<svg xmlns="http://www.w3.org/2000/svg" width="10" height="10" fill="none" viewBox="0 0 10 10"><path fill="#000" fill-rule="evenodd" d="M6.357.4818Q6.0916.372 5.781.3719H4.219q-.3107 0-.576.1099-.265.1098-.4847.3295-.2197.2196-.3296.4848-.1098.2652-.1097.5759v.3319H1.443c-.28 0-.5.22-.5.5s.22.5.5.5h.3978v5.049q0 .285.1006.528.1008.243.3022.4444.2012.2013.4443.302t.528.1007h3.568q.2849 0 .5279-.1007t.4445-.302q.2014-.2014.302-.4445.1006-.243.1007-.5278V3.2039h.3978c.2799 0 .5-.22.5-.5s-.2201-.5-.5-.5H7.281v-.332q0-.3106-.1097-.5758-.1099-.2651-.3296-.4848T6.3569.4818m-.076 1.722V1.872a.5.5 0 0 0-.0366-.1919.49.49 0 0 0-.1098-.1616.5.5 0 0 0-.1616-.1098.5.5 0 0 0-.192-.0367H4.219a.5.5 0 0 0-.192.0367.5.5 0 0 0-.1616.1098.5.5 0 0 0-.11.1616.5.5 0 0 0-.0364.192v.3319zM2.841 8.253V3.2039h4.318v5.049q0 .1875-.0937.2813t-.2812.0938H3.2159a.37.37 0 0 1-.144-.0275.37.37 0 0 1-.1212-.0824.37.37 0 0 1-.0824-.1212.38.38 0 0 1-.0274-.144"/></svg>