<svg xmlns="http://www.w3.org/2000/svg" width="10" height="10" fill="none" viewBox="0 0 10 10"><path fill="#000" fill-rule="evenodd" d="M8.7236 1.2765C7.754.3067 6.2192.2455 5.1787 1.0938l-.2012.1826L3.839 2.4152a.5.5 0 0 0 0 .707.5006.5006 0 0 0 .707 0l1.1387-1.1386.126-.1133c.6477-.528 1.6024-.4904 2.206.1133l.1133.125c.528.6476.4902 1.6033-.1133 2.207l-1.126 1.126a.5.5 0 0 0 .707.707l1.126-1.126c.9695-.9696 1.0307-2.5045.1827-3.5449zM5.922 3.3712a.5.5 0 0 1 .707 0 .5005.5005 0 0 1 0 .707L4.0772 6.63a.5007.5007 0 0 1-.707 0 .5003.5003 0 0 1 0-.707zm-2.8057.4736a.5004.5004 0 0 0-.707 0L1.2764 4.9776c-1.0345 1.0345-1.0345 2.7116 0 3.7461l.2011.1826c1.0405.848 2.5753.787 3.545-.1826l1.127-1.126a.501.501 0 0 0 0-.707.5014.5014 0 0 0-.708 0l-1.126 1.126c-.6037.6037-1.5594.6413-2.207.1133l-.125-.1133c-.644-.644-.644-1.688 0-2.332l1.1327-1.1329a.501.501 0 0 0 0-.707"/></svg>