<svg xmlns="http://www.w3.org/2000/svg" width="10" height="10" fill="none" viewBox="0 0 10 10"><path fill="#000" fill-rule="evenodd" d="M8.6523 6.551q.3388-.7685.3388-1.8997v-2.392a.49.49 0 0 0-.0728-.2595.49.49 0 0 0-.1969-.1842L5.5184.153Q5.259.0184 5 .0184T4.4817.153L1.2786 1.8156a.49.49 0 0 0-.197.1842.49.49 0 0 0-.0727.2596v2.418q0 1.0928.3163 1.8449.455 1.0823 1.2122 1.8768.4357.457.9713.8189.7428.5017 1.3657.6633a.5.5 0 0 0 .2699-.0052q.6099-.1839 1.341-.6904.6636-.4597 1.1741-1.0515.6034-.6993.993-1.5832m-.6612-3.9878v2.0881q0 .9206-.2538 1.4964-.3327.7548-.8498 1.3493-.4239.4872-.9717.8667-.5148.3567-.9253.5094-.4084-.1368-.922-.4838a4.9 4.9 0 0 1-.7562-.6286q-.6677-.6805-1.0653-1.626-.238-.5662-.238-1.4572V2.5632l2.9334-1.5227A.124.124 0 0 1 5 1.0255q.0287 0 .0576.015zM6.7988 4.4721 5.1913 6.0796q-.1465.1464-.3535.1464-.2071 0-.3535-.1464l-.9825-.9824c-.198-.198-.198-.509 0-.707s.5092-.198.7072 0l.6288.6287 1.254-1.254c.198-.198.509-.198.707 0s.198.5092 0 .7072"/></svg>