<svg xmlns="http://www.w3.org/2000/svg" width="10" height="10" fill="none" viewBox="0 0 10 10"><path fill="#000" fill-rule="evenodd" d="M9.4949 5c0-2.4825-2.0125-4.495-4.495-4.495C2.5173.505.5049 2.5175.5049 5s2.0124 4.495 4.495 4.495c2.4825 0 4.495-2.0125 4.495-4.495M4.8152 6.6777l2.6486-2.6484c.1978-.198.198-.5092 0-.7072s-.5092-.198-.7072 0L4.4519 5.6268l-1.2186-1.152c-.2035-.1924-.5145-.1837-.707.0197-.1922.2035-.1835.5145.02.7069l1.5719 1.4861a.5.5 0 0 0 .1608.1037.5.5 0 0 0 .1896.033q.203-.003.3466-.1465"/></svg>