<svg width="25" height="24" viewBox="0 0 25 24" fill="none" xmlns="http://www.w3.org/2000/svg">
<path fill-rule="evenodd" clip-rule="evenodd" d="M17.002 17H19.002V21H17.002V17ZM17.002 16H19.002V15H17.002V16ZM24.002 18C24.002 21.3137 21.3158 24 18.002 24C14.6883 24 12.002 21.3137 12.002 18C12.002 14.6863 14.6883 12 18.002 12C21.3158 12 24.002 14.6863 24.002 18ZM22.002 18C22.002 15.7909 20.2112 14 18.002 14C15.7929 14 14.002 15.7909 14.002 18C14.002 20.2091 15.7929 22 18.002 22C20.2112 22 22.002 20.2091 22.002 18ZM2.00205 21.38C1.93365 19.6872 2.99411 18.1536 4.60205 17.62L6.71205 17.04C8.02729 16.5953 9.14761 15.7082 9.88205 14.53C10.2197 14.6897 10.5757 14.8073 10.942 14.88L11.342 12.93C9.03205 12.46 8.00205 9.21 8.00205 6.2C8.00205 2.55 10.512 2 12.002 2C13.492 2 16.002 2.55 16.002 6.2C16.0113 7.43723 15.8291 8.66845 15.462 9.85L17.362 10.47C17.7973 9.08888 18.0132 7.64804 18.002 6.2C18.002 2.43 15.642 0 12.002 0C8.36205 0 6.00205 2.43 6.00205 6.2C6.00205 8.68 6.64205 11.57 8.26205 13.34C7.80015 14.1615 7.05841 14.7897 6.17205 15.11L4.07205 15.69C1.59548 16.4629 -0.0665626 18.7865 0.00204716 21.38V24H11.432V22H2.00205V21.38Z" fill="currentColor"/>
</svg>
