<svg width="25" height="24" viewBox="0 0 25 24" fill="none" xmlns="http://www.w3.org/2000/svg">
<path fill-rule="evenodd" clip-rule="evenodd" d="M17.1512 17L15.8012 16.63C15.377 16.4497 15.0251 16.133 14.8012 15.73C15.6469 14.4265 16.0663 12.8924 16.0012 11.34C16.1033 10.2331 15.722 9.13614 14.9554 8.33121C14.1889 7.52629 13.1118 7.09197 12.0012 7.13998C10.8907 7.09197 9.81364 7.52629 9.04704 8.33121C8.28045 9.13614 7.89916 10.2331 8.00125 11.34C7.94348 12.9018 8.381 14.4418 9.25125 15.74C9.00684 16.1464 8.6338 16.4596 8.19125 16.63L6.85125 17C5.09814 17.5245 3.92447 19.1717 4.00125 21V23H20.0012V21C20.078 19.1717 18.9044 17.5245 17.1512 17ZM12.0012 9.13998C12.9112 9.13998 14.0012 9.51998 14.0012 11.34C14.0012 12.75 13.5812 15.14 12.0012 15.14C10.4212 15.14 10.0012 12.75 10.0012 11.34C10.0012 9.51998 11.0912 9.13998 12.0012 9.13998ZM6.00125 21C5.95843 20.0955 6.5286 19.2751 7.39125 19L8.73125 18.63C9.59804 18.3401 10.3438 17.7702 10.8512 17.01C11.2207 17.1404 11.6094 17.208 12.0012 17.21C12.4006 17.2096 12.7967 17.1385 13.1712 17C13.6649 17.7668 14.4059 18.3419 15.2712 18.63L16.6112 19C17.4533 19.3024 18.0113 20.1053 18.0012 21H6.00125ZM6.00125 11H2.00125C2.06103 10.5746 2.35482 10.219 2.76125 10.08L3.76125 9.80998C4.37968 9.60807 4.91861 9.21612 5.30125 8.68998C5.52901 8.75467 5.76447 8.78831 6.00125 8.78998C7.82125 8.78998 9.00125 7.04998 9.00125 4.35998C9.08328 3.5154 8.80381 2.67559 8.23207 2.04858C7.66032 1.42156 6.84979 1.066 6.00125 1.06998C5.1527 1.066 4.34217 1.42156 3.77042 2.04858C3.19868 2.67559 2.91921 3.5154 3.00125 4.35998C2.96101 5.43506 3.21699 6.50052 3.74125 7.43998C3.60675 7.62864 3.42357 7.77726 3.21125 7.86998L2.21125 8.12998C0.863367 8.55768 -0.038218 9.82642 0.00124581 11.24V13H6.00125V11ZM6.00125 3.11998C6.43125 3.11998 7.00125 3.24998 7.00125 4.39998C7.00125 5.54998 6.63125 6.82998 6.00125 6.82998C5.37125 6.82998 5.00125 5.59998 5.00125 4.39998C5.00125 3.19998 5.57125 3.11998 6.00125 3.11998ZM21.7512 8.11998L20.7512 7.85998C20.5375 7.76919 20.3562 7.61579 20.2312 7.41998C20.7578 6.49117 21.0238 5.43743 21.0012 4.36998C21.0012 2.71312 19.6581 1.36998 18.0012 1.36998C16.3444 1.36998 15.0012 2.71312 15.0012 4.36998C15.0012 7.05998 16.1812 8.79998 18.0012 8.79998C18.2413 8.79824 18.4801 8.76461 18.7112 8.69998C19.0981 9.22188 19.6409 9.60713 20.2612 9.79998L21.2612 10.07C21.6628 10.2167 21.9485 10.5758 22.0012 11H18.0012V13H24.0012V11.25C24.0321 9.82651 23.1129 8.55604 21.7512 8.13998V8.11998ZM17.0012 4.39998C17.0012 3.24998 17.5712 3.11998 18.0012 3.11998C18.4312 3.11998 19.0012 3.24998 19.0012 4.39998C19.0012 5.54998 18.6312 6.82998 18.0012 6.82998C17.3712 6.82998 17.0012 5.59998 17.0012 4.39998Z" fill="currentColor"/>
</svg>
