<svg width="24" height="24" viewBox="0 0 24 24" fill="none" xmlns="http://www.w3.org/2000/svg">
<path fill-rule="evenodd" clip-rule="evenodd" d="M24 20V0H0V20H8V22H6V24H18V22H16V20H24ZM22 2V14H2V2H22ZM2 16H22V18H2V16ZM14 22H10V20H14V22ZM10 8C10 6.89543 10.8954 6 12 6V8H14C14 9.10457 13.1046 10 12 10C10.8954 10 10 9.10457 10 8ZM12 13C14.9673 12.8315 17.6075 11.0611 18.89 8.38L19.08 7.97L18.89 7.56C17.5894 4.90367 14.9533 3.15902 12 3C9.03275 3.16853 6.39249 4.93892 5.11 7.62L4.92 8.03L5.11 8.44C6.41056 11.0963 9.04666 12.841 12 13ZM12 5C14.0175 5.13127 15.8384 6.25526 16.86 8C15.841 9.74728 14.0187 10.8722 12 11C9.98245 10.8687 8.16158 9.74474 7.14 8C8.15897 6.25272 9.98134 5.12779 12 5Z" fill="currentColor"/>
</svg>
