<svg width="24" height="24" viewBox="0 0 24 24" fill="none" xmlns="http://www.w3.org/2000/svg">
<path fill-rule="evenodd" clip-rule="evenodd" d="M0 0V14H24V0H0ZM19 12H17V9H19V12ZM15 12H13V9H15V12ZM11 12H9V9H11V12ZM7 12H5V9H7V12ZM22 12H21V7H3V12H2V2H22V12ZM16 5H4V3H16V5ZM20 5H18V3H20V5ZM7.21 21.43L8.37 22.59L7 24L5.83 22.83C4.80448 21.7903 4.80448 20.1197 5.83 19.08C5.95465 18.9594 6.02503 18.7934 6.02503 18.62C6.02503 18.4466 5.95465 18.2806 5.83 18.16L4.63 17L6.04 15.58L7.21 16.75C8.23552 17.7897 8.23552 19.4603 7.21 20.5C7.08217 20.6209 7.00974 20.7891 7.00974 20.965C7.00974 21.1409 7.08217 21.3091 7.21 21.43ZM13.21 21.43L14.37 22.59L13 24L11.83 22.83C10.7991 21.7926 10.7991 20.1174 11.83 19.08C11.9546 18.9594 12.025 18.7934 12.025 18.62C12.025 18.4466 11.9546 18.2806 11.83 18.16L10.63 17L12.04 15.58L13.21 16.75C14.2409 17.7874 14.2409 19.4626 13.21 20.5C13.0822 20.6209 13.0097 20.7891 13.0097 20.965C13.0097 21.1409 13.0822 21.3091 13.21 21.43ZM19.21 21.43L20.37 22.59L19 24L17.83 22.83C16.7991 21.7926 16.7991 20.1174 17.83 19.08C17.9546 18.9594 18.025 18.7934 18.025 18.62C18.025 18.4466 17.9546 18.2806 17.83 18.16L16.63 17L18.04 15.58L19.21 16.75C20.2409 17.7874 20.2409 19.4626 19.21 20.5C19.0822 20.6209 19.0097 20.7891 19.0097 20.965C19.0097 21.1409 19.0822 21.3091 19.21 21.43Z" fill="currentColor"/>
</svg>
