<svg width="24" height="24" viewBox="0 0 24 24" fill="none" xmlns="http://www.w3.org/2000/svg">
<path fill-rule="evenodd" clip-rule="evenodd" d="M6 6.12V0H0V2H4V22H0V24H6V17.88C8.28 17.32 10 14.88 10 12C10 9.12 8.28 6.68 6 6.12ZM6 15.75V8.25C7.24809 9.08987 7.99653 10.4956 7.99653 12C7.99653 13.5044 7.24809 14.9101 6 15.75ZM24 0V2C18.4772 2 14 6.47715 14 12C14 17.5228 18.4772 22 24 22V24C17.3726 24 12 18.6274 12 12C12 5.37258 17.3726 0 24 0ZM24 4V6C20.6863 6 18 8.68629 18 12C18 15.3137 20.6863 18 24 18V20C19.5817 20 16 16.4183 16 12C16 7.58172 19.5817 4 24 4ZM24 8V10C22.8954 10 22 10.8954 22 12C22 13.1046 22.8954 14 24 14V16C21.7909 16 20 14.2091 20 12C20 9.79086 21.7909 8 24 8Z" fill="currentColor"/>
</svg>
