<svg width="24" height="24" viewBox="0 0 24 24" fill="none" xmlns="http://www.w3.org/2000/svg">
<path fill-rule="evenodd" clip-rule="evenodd" d="M0 1V23H24V1H0ZM16 3V4H18V3H19V4H21V3H22V5H2V3H16ZM2 21V7H22V21H2ZM7.51 14C6.6816 14.0055 6.00558 13.3384 6.00007 12.51C5.99455 11.6816 6.66162 11.0056 7.49002 11.0001C8.31842 10.9945 8.99446 11.6616 9 12.49C9.00266 12.8878 8.84717 13.2704 8.56774 13.5536C8.28831 13.8368 7.90783 13.9974 7.51 14ZM16.51 12C15.6816 12.0055 15.0056 11.3384 15.0001 10.51C14.9945 9.68162 15.6616 9.0056 16.49 9.00007C17.3184 8.99454 17.9945 9.6616 18 10.49C18.0027 10.8878 17.8472 11.2704 17.5677 11.5536C17.2883 11.8368 16.9078 11.9974 16.51 12ZM14 17.49C14.0055 18.3184 13.3384 18.9944 12.51 18.9999C11.6816 19.0054 11.0056 18.3384 11.0001 17.51C10.9945 16.6816 11.6616 16.0055 12.49 16C12.8878 15.9973 13.2704 16.1528 13.5536 16.4323C13.8368 16.7117 13.9974 17.0922 14 17.49ZM11.44 15L10 16.44L8.56 15L9.97 13.59L11.44 15ZM5.12 13.85L6.76 14.99L5.32 17.04L3.68 15.9L5.12 13.85ZM14.28 12.15L16.07 13.03L14.72 15.79L12.93 14.91L14.28 12.15ZM18.97 11.53L20.21 12.76L18.79 14.18L17.56 13L18.97 11.53Z" fill="currentColor"/>
</svg>
