<svg width="25" height="24" viewBox="0 0 25 24" fill="none" xmlns="http://www.w3.org/2000/svg">
<path fill-rule="evenodd" clip-rule="evenodd" d="M21.5546 10.051C20.4171 6.45008 17.3657 3.78449 13.6446 3.14105C13.9754 2.44648 14.6752 2.00323 15.4446 2.00105C15.9547 2.00296 16.4447 2.19971 16.8146 2.55105L18.1846 1.09105C17.4076 0.362726 16.3723 -0.025694 15.308 0.0118473C14.2437 0.0493886 13.2383 0.509791 12.5146 1.29105C12.0034 0.517493 11.151 0.0373539 10.2246 0.00104747C9.40426 -0.0203043 8.60914 0.285508 8.01456 0.851047L9.39456 2.31105C9.61344 2.09264 9.9161 1.9796 10.2246 2.00105C10.5846 2.00105 10.9846 2.46105 11.2246 3.00105C7.13453 3.29522 3.64811 6.07799 2.45456 10.001C1.03218 10.264 0 11.5046 0 12.951C0 14.3975 1.03218 15.6381 2.45456 15.901C3.71022 20.1243 7.59861 23.0152 12.0046 23.001C16.3818 22.9765 20.2419 20.1269 21.5546 15.951C22.9769 15.6881 24.0091 14.4475 24.0091 13.001C24.0091 11.5546 22.9769 10.314 21.5546 10.051ZM21.0046 14.001L20.9146 15.001V14.001L20.0246 13.901L19.8246 14.781C18.9924 18.4275 15.7447 21.0106 12.0046 21.001C8.26589 20.9992 5.02707 18.4081 4.20456 14.761L4.00456 13.881L3.00456 14.001C2.45228 14.001 2.00456 13.5533 2.00456 13.001C2.00456 12.4488 2.45228 12.001 3.00456 12.001L3.09456 11.001V12.001L3.98456 12.101L4.18456 11.221C5.01414 7.58098 8.25117 4.99869 11.9846 4.99869C15.718 4.99869 18.955 7.58098 19.7846 11.221L19.9846 12.101L20.8746 12.001H20.9946C21.5468 12.001 21.9946 12.4488 21.9946 13.001C21.9946 13.5533 21.5468 14.001 20.9946 14.001H21.0046ZM14.1646 15.391L16.0146 16.131C15.3635 17.7879 13.7647 18.8774 11.9846 18.8774C10.2044 18.8774 8.60564 17.7879 7.95456 16.131L9.80456 15.391C10.1627 16.2807 11.0255 16.8635 11.9846 16.8635C12.9436 16.8635 13.8064 16.2807 14.1646 15.391ZM16.5046 11.001C16.5046 11.5533 16.0568 12.001 15.5046 12.001C14.9523 12.001 14.5046 11.5533 14.5046 11.001C14.5046 10.4488 14.9523 10.001 15.5046 10.001C16.0568 10.001 16.5046 10.4488 16.5046 11.001ZM8.50456 12.001C7.95228 12.001 7.50456 11.5533 7.50456 11.001C7.50456 10.4488 7.95228 10.001 8.50456 10.001C9.05685 10.001 9.50456 10.4488 9.50456 11.001C9.50456 11.5533 9.05685 12.001 8.50456 12.001Z" fill="currentColor"/>
</svg>
