<svg width="24" height="24" viewBox="0 0 24 24" fill="none" xmlns="http://www.w3.org/2000/svg">
<path fill-rule="evenodd" clip-rule="evenodd" d="M19.4229 12.085L15.9789 11.148C15.6429 11.058 15.3789 10.798 15.2809 10.464C15.1839 10.13 15.2669 9.769 15.5009 9.511C16.1539 8.792 16.4999 7.924 16.4999 7C16.4999 6.708 16.4589 6.404 16.3789 6.097C16.2469 5.596 16.5199 5.078 17.0059 4.902C17.6009 4.688 17.9999 4.124 17.9999 3.5C17.9999 2.673 17.3269 2 16.4999 2C15.9189 2 15.4009 2.332 15.1489 2.865C14.9219 3.346 14.3579 3.568 13.8669 3.364C12.6799 2.882 11.3199 2.882 10.1329 3.364C9.64292 3.568 9.07792 3.346 8.85192 2.865C8.59992 2.332 8.08092 2 7.49992 2C6.67292 2 5.99992 2.673 5.99992 3.5C5.99992 4.124 6.39992 4.688 6.99392 4.902C7.48092 5.078 7.75292 5.596 7.62092 6.097C7.54092 6.404 7.49992 6.708 7.49992 7C7.49992 7.924 7.84592 8.792 8.49892 9.511C8.73392 9.769 8.81692 10.13 8.71892 10.464C8.62092 10.798 8.35792 11.058 8.02192 11.148L4.57692 12.085C3.97992 12.247 3.62492 12.866 3.78692 13.464C3.94992 14.061 4.57792 14.416 5.16492 14.252L6.56492 13.871C6.65192 13.848 6.73892 13.836 6.82692 13.836C7.06792 13.836 7.30292 13.923 7.48692 14.085C7.73992 14.308 7.86392 14.641 7.81792 14.974C7.66992 16.036 7.69392 16.543 7.72192 16.751C7.74992 16.955 7.81392 17.176 7.92192 17.439C8.11092 17.902 7.92992 18.435 7.49592 18.685L5.56192 19.802C5.30192 19.951 5.11592 20.193 5.03892 20.483C4.96092 20.773 5.00092 21.075 5.15092 21.334C5.30092 21.595 5.54292 21.78 5.83292 21.858C6.12392 21.935 6.42592 21.895 6.68492 21.746L10.0369 19.811C10.2609 19.683 10.5259 19.646 10.7769 19.706C10.7959 19.711 10.8949 19.739 10.9139 19.745C11.6509 19.903 12.3479 19.903 13.0389 19.757C13.0439 19.756 13.1389 19.735 13.1439 19.734C13.3959 19.675 13.7459 19.686 13.9669 19.813L17.3159 21.746C17.5739 21.895 17.8749 21.935 18.1669 21.858C18.4569 21.78 18.6989 21.595 18.8489 21.335C18.9989 21.075 19.0389 20.773 18.9609 20.483C18.8839 20.193 18.6979 19.951 18.4389 19.802L16.5409 18.706C16.1059 18.454 15.9249 17.918 16.1179 17.454C16.2349 17.174 16.3069 16.93 16.3339 16.709C16.3589 16.515 16.3759 16.036 16.2139 14.999C16.1619 14.664 16.2829 14.325 16.5349 14.1C16.7869 13.873 17.1399 13.792 17.4639 13.88L18.8339 14.252C19.4329 14.41 20.0499 14.06 20.2129 13.463C20.3749 12.866 20.0209 12.247 19.4229 12.085ZM22.1429 13.987C21.6939 15.636 19.9969 16.616 18.3469 16.191C18.3559 16.484 18.3469 16.74 18.3189 16.961C18.3009 17.098 18.2759 17.237 18.2429 17.379L19.4389 18.069C20.1609 18.486 20.6779 19.16 20.8939 19.966C21.1099 20.772 20.9979 21.613 20.5799 22.336C20.1639 23.058 19.4899 23.574 18.6849 23.79C17.8819 24.007 17.0369 23.896 16.3159 23.479L13.3069 21.741C12.4009 21.907 11.5389 21.904 10.6909 21.743L7.68492 23.479C7.20392 23.756 6.66992 23.898 6.12892 23.898C5.85792 23.898 5.58392 23.862 5.31592 23.79C4.50992 23.574 3.83592 23.058 3.41892 22.335C3.00192 21.613 2.89092 20.772 3.10692 19.966C3.32192 19.16 3.83892 18.486 4.56192 18.069L5.80092 17.355C5.77592 17.241 5.75492 17.13 5.73992 17.02C5.70792 16.777 5.69492 16.498 5.70292 16.179L5.69092 16.182C4.02692 16.634 2.31092 15.65 1.85792 13.988C1.40692 12.325 2.39192 10.606 4.05192 10.155L6.13592 9.589C5.72092 8.786 5.49992 7.901 5.49992 7C5.49992 6.797 5.51192 6.592 5.53592 6.386C4.59292 5.745 3.99992 4.669 3.99992 3.5C3.99992 1.57 5.56992 0 7.49992 0C8.53492 0 9.50992 0.47 10.1669 1.245C11.3569 0.919 12.6439 0.919 13.8329 1.245C14.4899 0.47 15.4649 0 16.4999 0C18.4299 0 19.9999 1.57 19.9999 3.5C19.9999 4.669 19.4069 5.745 18.4639 6.386C18.4879 6.592 18.4999 6.797 18.4999 7C18.4999 7.901 18.2789 8.786 17.8639 9.589L19.9479 10.155C21.6089 10.606 22.5929 12.325 22.1429 13.987ZM13.4999 7C14.0529 7 14.4999 6.553 14.4999 6C14.4999 5.447 14.0529 5 13.4999 5C12.9469 5 12.4999 5.447 12.4999 6C12.4999 6.553 12.9469 7 13.4999 7ZM9.99992 8.75C9.99992 9.217 10.2599 10 11.9999 10C13.7399 10 13.9999 9.217 13.9999 8.75C13.9999 8.197 13.5529 7.75 12.9999 7.75C12.7599 7.75 12.5399 7.834 12.3679 7.976C12.1999 8.001 11.7999 8.001 11.6319 7.976C11.4599 7.834 11.2399 7.75 10.9999 7.75C10.4469 7.75 9.99992 8.197 9.99992 8.75ZM12.9999 15C12.9999 14.201 12.5319 13.5 11.9999 13.5C11.4679 13.5 10.9999 14.201 10.9999 15C10.9999 15.799 11.4679 16.5 11.9999 16.5C12.5319 16.5 12.9999 15.799 12.9999 15ZM14.9999 15C14.9999 16.93 13.6539 18.5 11.9999 18.5C10.3459 18.5 8.99992 16.93 8.99992 15C8.99992 13.07 10.3459 11.5 11.9999 11.5C13.6539 11.5 14.9999 13.07 14.9999 15ZM9.49992 6C9.49992 5.447 9.94692 5 10.4999 5C11.0529 5 11.4999 5.447 11.4999 6C11.4999 6.553 11.0529 7 10.4999 7C9.94692 7 9.49992 6.553 9.49992 6Z" fill="currentColor"/>
</svg>
