<svg width="24" height="24" viewBox="0 0 24 24" fill="none" xmlns="http://www.w3.org/2000/svg">
<path fill-rule="evenodd" clip-rule="evenodd" d="M12 17C9.794 17 8 15.43 8 13.5V5C8 3.346 9.57 2 11.5 2C13.43 2 15 3.346 15 5C15 6.654 13.43 8 11.5 8H10.167V10H12C14.206 10 16 11.57 16 13.5C16 15.43 14.206 17 12 17ZM17 5C17 2.243 14.532 0 11.5 0C8.468 0 6 2.243 6 5V24H8V17.588C9.062 18.463 10.463 19 12 19C15.309 19 18 16.532 18 13.5C18 11.5 16.825 9.751 15.079 8.788C16.253 7.871 17 6.514 17 5Z" fill="currentColor"/>
</svg>
