<svg width="24" height="24" viewBox="0 0 24 24" fill="none" xmlns="http://www.w3.org/2000/svg">
<path fill-rule="evenodd" clip-rule="evenodd" d="M0 1V23H24V1H0ZM22 5H20V3H22V5ZM18 3V5H2V3H18ZM6 17C6.00472 16.6649 6.03481 16.3306 6.09 16H7C7 16.33 7 16.66 7 17C7 17.34 7 17.67 7.06 18H6.06C6.0099 17.6692 5.98981 17.3345 6 17ZM9 17C9 16.65 9 16.32 9 16H11V18H9.06C9 17.67 9 17.34 9 17ZM18 17C18.0003 17.3354 17.9702 17.6701 17.91 18H16.91C16.91 17.67 16.97 17.34 16.97 17C16.97 16.66 16.97 16.33 16.97 16H17.92C17.9718 16.3308 17.9986 16.6651 18 17ZM15 17C15 17.34 15 17.67 14.94 18H13V16H15C15 16.32 15 16.65 15 17ZM13 14V11.39C13.7744 12.0836 14.3244 12.9923 14.58 14H13ZM11 11.39V14H9.42C9.67556 12.9923 10.2256 12.0836 11 11.39ZM11 20V21H9.83C9.68204 20.6752 9.55511 20.3411 9.45 20H11ZM13 20H14.55C14.4449 20.3411 14.318 20.6752 14.17 21H13V20ZM16.33 21C16.4557 20.674 16.5593 20.3399 16.64 20H17.19C16.9795 20.3586 16.7314 20.6938 16.45 21H16.33ZM16.65 14C16.5442 13.5904 16.4174 13.1865 16.27 12.79C16.6234 13.1556 16.9322 13.5618 17.19 14H16.65ZM7.35 14H6.81C7.06783 13.5618 7.37664 13.1556 7.73 12.79C7.58261 13.1865 7.45577 13.5904 7.35 14ZM6.81 20H7.36C7.44073 20.3399 7.5443 20.674 7.67 21H7.55C7.26861 20.6938 7.02055 20.3586 6.81 20ZM18.92 21C19.629 19.7863 20.0018 18.4056 20 17C20 12.5817 16.4183 9 12 9C7.58172 9 4 12.5817 4 17C3.9982 18.4056 4.37099 19.7863 5.08 21H2V7H22V21H18.92Z" fill="currentColor"/>
</svg>
