<svg width="24" height="24" viewBox="0 0 24 24" fill="none" xmlns="http://www.w3.org/2000/svg">
<path fill-rule="evenodd" clip-rule="evenodd" d="M11.9545 2.96197V4.96198C10.2977 4.96198 8.95451 6.30512 8.95451 7.96198H6.95451C6.95451 5.20055 9.19309 2.96197 11.9545 2.96197ZM19.9545 7.96198C19.951 10.319 18.9082 12.5546 17.1045 14.072C16.8993 14.2439 16.6821 14.401 16.4545 14.542C16.2732 14.652 16.1054 14.7829 15.9545 14.932V20.302C15.8573 22.4157 14.0685 24.0524 11.9545 23.962C9.84053 24.0524 8.05177 22.4157 7.95451 20.302V14.962C7.95451 14.842 7.63451 14.662 7.46451 14.542C7.22141 14.3979 6.99063 14.234 6.77451 14.052C4.37541 11.9822 3.42396 8.69152 4.34832 5.66081C5.27269 2.6301 7.89867 0.43054 11.0445 0.0519749C13.3033 -0.206671 15.5655 0.508011 17.2658 2.01743C18.966 3.52685 19.9437 5.68842 19.9545 7.96198ZM13.9545 19.962H9.95451V20.302C10.0547 21.3093 10.946 22.049 11.9545 21.962C12.9631 22.049 13.8543 21.3093 13.9545 20.302V19.962ZM13.9545 16.962H9.95451V17.962H13.9545V16.962ZM17.9545 7.96198C17.9539 6.25535 17.2266 4.62973 15.9545 3.49197C14.6869 2.32621 12.9757 1.76798 11.2645 1.96197C8.39754 2.28593 6.16709 4.60459 5.95451 7.48198C5.80199 9.40502 6.58339 11.2841 8.05451 12.532C8.208 12.6542 8.36825 12.7678 8.53451 12.872C9.3598 13.2502 9.90685 14.0554 9.95451 14.962H13.9545C14.007 14.0628 14.5429 13.2627 15.3545 12.872C15.5148 12.772 15.6685 12.6618 15.8145 12.542C17.1676 11.405 17.9505 9.72931 17.9545 7.96198Z" fill="currentColor"/>
</svg>
