<svg width="24" height="25" viewBox="0 0 24 25" fill="none" xmlns="http://www.w3.org/2000/svg">
<path fill-rule="evenodd" clip-rule="evenodd" d="M22 19.01V9.01H20V19.01H18.54L17 16.71V12.5C17.6605 11.2705 18.0042 9.89571 18 8.5C18 3.80558 14.1944 0 9.5 0C4.80558 0 1 3.80558 1 8.5C0.995845 9.89571 1.33953 11.2705 2 12.5V16.71L0 19.71V24.01H24V19.01H22ZM4 15.01C7.16782 17.7149 11.8322 17.7149 15 15.01V17.34L16.13 19.04H2.87L4 17.34V15.01ZM9.5 2.01C13.0899 2.01 16 4.92015 16 8.51C16 12.0999 13.0899 15.01 9.5 15.01C5.91015 15.01 3 12.0999 3 8.51C3.00551 4.92243 5.91243 2.01551 9.5 2.01ZM22 22.01H2V21.01H22V22.01ZM9.5 14.01C12.5376 14.01 15 11.5476 15 8.51C15 5.47243 12.5376 3.01 9.5 3.01C6.46243 3.01 4 5.47243 4 8.51C4.0055 11.5453 6.46472 14.0045 9.5 14.01ZM9.5 5.01C11.433 5.01 13 6.577 13 8.51C13 10.443 11.433 12.01 9.5 12.01C7.567 12.01 6 10.443 6 8.51C6 7.58174 6.36875 6.6915 7.02513 6.03513C7.6815 5.37875 8.57174 5.01 9.5 5.01ZM7 8.51C7 7.12929 8.11929 6.01 9.5 6.01V8.01C9.22386 8.01 9 8.23386 9 8.51C9 8.78614 9.22386 9.01 9.5 9.01C9.77614 9.01 10 8.78614 10 8.51H12C12 9.89071 10.8807 11.01 9.5 11.01C8.11929 11.01 7 9.89071 7 8.51Z" fill="currentColor"/>
</svg>
