<svg width="24" height="24" viewBox="0 0 24 24" fill="none" xmlns="http://www.w3.org/2000/svg">
<path fill-rule="evenodd" clip-rule="evenodd" d="M20 12.002C20 16.4202 16.4183 20.002 12 20.002C7.58172 20.002 4 16.4202 4 12.002C4 7.58367 7.58172 4.00195 12 4.00195C16.4183 4.00195 20 7.58367 20 12.002ZM22 12.002C22 17.5248 17.5228 22.002 12 22.002C6.47715 22.002 2 17.5248 2 12.002C2 6.47911 6.47715 2.00195 12 2.00195C17.5228 2.00195 22 6.47911 22 12.002ZM15.47 15.3499C15.9383 15.6426 16.5553 15.5003 16.848 15.0319C17.1407 14.5636 16.9983 13.9467 16.53 13.6539L13 11.4477L13 7.00194C13 6.44966 12.5523 6.00194 12 6.00194C11.4477 6.00194 11 6.44966 11 7.00194L11 12.0019C11 12.3467 11.1776 12.6672 11.47 12.8499L15.47 15.3499Z" fill="currentColor"/>
</svg>
