<svg width="24" height="24" viewBox="0 0 97 65" fill="none" xmlns="http://www.w3.org/2000/svg">
<path d="M96.5 45.5018C96.5 37.4687 91.5137 30.6001 84.4672 27.8216C85.5 0.50591 52.5433 -9.35965 36.6941 12.3395C26.4946 6.75488 13.2989 15.2937 14.5887 27.1445C6.47589 29.3091 0.5 36.7077 0.5 45.5018C0.5 55.9942 9.00659 64.5 19.5 64.5H45.4997V40.6533L40.7426 45.4098C39.9616 46.1908 38.6953 46.1908 37.9142 45.4098L35.0858 42.5817C34.3047 41.8007 34.3047 40.5345 35.0858 39.7535L47.5201 27.3204C48.6136 26.227 50.3864 26.227 51.4799 27.3204L63.9142 39.7535C64.6953 40.5345 64.6953 41.8007 63.9142 42.5817L61.0858 45.4098C60.3047 46.1908 59.0384 46.1908 58.2574 45.4098L53.4997 40.6526V64.5H77.5C87.9934 64.5 96.5 55.9942 96.5 45.5018Z" fill="currentColor"/>
</svg>
