<svg width="24" height="24" viewBox="0 0 24 24" fill="none" xmlns="http://www.w3.org/2000/svg">
<path fill-rule="evenodd" clip-rule="evenodd" d="M19.8759 4.99238C19.4346 6.72147 17.8666 8 16 8C14.1334 8 12.5654 6.72147 12.1241 4.99238C12.0998 4.99538 12.0753 4.99751 12.0505 4.99875C12.0406 4.99924 12.0307 4.99958 12.0208 4.99979C12.0139 4.99993 12.0069 5 12 5H1C0.447723 5 0 4.55228 0 4C0 3.44772 0.447723 3 1 3H12C12.042 3 12.0834 3.00259 12.1241 3.00762C12.5654 1.27853 14.1334 0 16 0C17.8666 0 19.4346 1.27853 19.8759 3.00762C19.8985 3.00483 19.9213 3.00278 19.9443 3.00153C19.9628 3.00051 19.9813 3 20 3H23C23.5523 3 24 3.44772 24 4C24 4.55228 23.5523 5 23 5H20C19.958 5 19.9166 4.99741 19.8759 4.99238ZM16 6C17.1046 6 18 5.10457 18 4C18 2.89543 17.1046 2 16 2C14.8954 2 14 2.89543 14 4C14 5.10457 14.8954 6 16 6Z" fill="currentColor"/>
<path fill-rule="evenodd" clip-rule="evenodd" d="M19.8759 20.9924C19.4346 22.7215 17.8666 24 16 24C14.1334 24 12.5654 22.7215 12.1241 20.9924C12.0998 20.9954 12.0753 20.9975 12.0505 20.9987C12.0338 20.9996 12.0169 21 12 21H1C0.447723 21 0 20.5523 0 20C0 19.4477 0.447723 19 1 19H12C12.0157 19 12.0313 19.0004 12.0468 19.0011C12.0728 19.0023 12.0986 19.0045 12.1241 19.0076C12.5654 17.2785 14.1334 16 16 16C17.8666 16 19.4346 17.2785 19.8759 19.0076C19.9166 19.0026 19.958 19 20 19H23C23.5523 19 24 19.4477 24 20C24 20.5523 23.5523 21 23 21H20C19.9822 21 19.9646 20.9995 19.9471 20.9986C19.9231 20.9974 19.8994 20.9953 19.8759 20.9924ZM16 22C17.1046 22 18 21.1046 18 20C18 18.8954 17.1046 18 16 18C14.8954 18 14 18.8954 14 20C14 21.1046 14.8954 22 16 22Z" fill="currentColor"/>
<path fill-rule="evenodd" clip-rule="evenodd" d="M8 16C6.13342 16 4.56543 14.7215 4.12405 12.9924C4.0834 12.9974 4.04202 13 4 13H1C0.447723 13 0 12.5523 0 12C0 11.4477 0.447723 11 1 11H4C4.04202 11 4.0834 11.0026 4.12405 11.0076C4.56543 9.27853 6.13342 8 8 8C9.86658 8 11.4346 9.27853 11.8759 11.0076C11.9166 11.0026 11.958 11 12 11H23C23.5523 11 24 11.4477 24 12C24 12.5523 23.5523 13 23 13H12C11.9831 13 11.9662 12.9996 11.9495 12.9987C11.9247 12.9975 11.9002 12.9954 11.8759 12.9924C11.4346 14.7215 9.86658 16 8 16ZM6 12C6 13.1046 6.89542 14 8 14C9.10458 14 10 13.1046 10 12C10 10.8954 9.10458 10 8 10C6.89542 10 6 10.8954 6 12Z" fill="currentColor"/>
</svg>
