<svg width="24" height="24" viewBox="0 0 24 24" fill="none" xmlns="http://www.w3.org/2000/svg">
<path fill-rule="evenodd" clip-rule="evenodd" d="M23.707 16.707L20.914 19.5L23.707 22.293L22.293 23.707L19.5 20.914L16.707 23.707L15.293 22.293L18.086 19.5L15.293 16.707L16.707 15.293L19.5 18.086L22.293 15.293L23.707 16.707ZM18.607 8C18.24 6.167 17.628 4.55 16.83 3.257C18.743 4.318 20.269 5.984 21.154 8H18.607ZM13 8V2.211C14.579 2.882 15.908 5.101 16.562 8H13ZM11 14H7.105C7.037 13.352 7 12.683 7 12C7 11.317 7.037 10.648 7.105 10H11V14ZM11 21.789C9.421 21.118 8.092 18.899 7.437 16H11V21.789ZM2.846 16H5.393C5.76 17.833 6.372 19.45 7.17 20.743C5.257 19.682 3.73 18.016 2.846 16ZM2 12C2 11.314 2.074 10.646 2.205 10H5.102C5.04 10.65 5 11.315 5 12C5 12.685 5.04 13.35 5.102 14H2.205C2.074 13.353 2 12.686 2 12ZM7.17 3.257C6.372 4.55 5.76 6.167 5.393 8H2.846C3.73 5.984 5.257 4.318 7.17 3.257ZM11 2.211V8H7.437C8.092 5.101 9.421 2.882 11 2.211ZM12 0C5.383 0 0 5.383 0 12C0 18.617 5.383 24 12 24H13V16H14.172V14H13V10H16.895C16.963 10.648 17 11.317 17 12C17 12.486 16.976 13.008 16.926 13.595L18.918 13.765C18.974 13.121 19 12.543 19 12C19 11.315 18.96 10.65 18.898 10H21.795C21.926 10.646 22 11.314 22 12C22 12.343 21.982 12.681 21.948 13.015L23.938 13.216C23.978 12.815 24 12.411 24 12C24 5.383 18.617 0 12 0Z" fill="currentColor"/>
</svg>
