<svg width="24" height="24" viewBox="0 0 24 24" fill="none" xmlns="http://www.w3.org/2000/svg">
<path fill-rule="evenodd" clip-rule="evenodd" d="M22 4.59V24H17V22H20V6H16V2H5V22H8V24H3V0H17.41L22 4.59ZM16 18V21H15V24H13V21H12V24H10V21H9V18C7.34315 18 6 16.6569 6 15V13H19V15C19 16.6569 17.6569 18 16 18ZM14 18H11V19H14V18ZM17 15H8C8 15.5523 8.44772 16 9 16H16C16.5523 16 17 15.5523 17 15ZM7 12H9V9H7V12ZM9 7H7V8H9V7ZM12 7H10V9H12V7ZM10 12H12V10H10V12ZM13 12H15V9H13V12ZM15 7H13V8H15V7ZM18 7H16V10H18V7ZM16 12H18V11H16V12Z" fill="currentColor"/>
</svg>
