<svg width="24" height="24" viewBox="0 0 24 24" fill="none" xmlns="http://www.w3.org/2000/svg">
<path fill-rule="evenodd" clip-rule="evenodd" d="M4 0V24H20V0H4ZM18 2V12H6V2H18ZM6 22V14H18V22H6ZM12 15C10.3431 15 9 16.3431 9 18C9 19.6569 10.3431 21 12 21C13.6569 21 15 19.6569 15 18C15 16.3431 13.6569 15 12 15ZM12 19C11.4477 19 11 18.5523 11 18C11 17.4477 11.4477 17 12 17C12.5523 17 13 17.4477 13 18C13 18.5523 12.5523 19 12 19ZM15 6C15.5523 6 16 6.44772 16 7C16 7.55228 15.5523 8 15 8C14.4477 8 14 7.55228 14 7C14 6.44772 14.4477 6 15 6ZM12 6C12.5523 6 13 6.44772 13 7C13 7.55228 12.5523 8 12 8C11.4477 8 11 7.55228 11 7C11 6.44772 11.4477 6 12 6ZM8 7C8 6.44772 8.44772 6 9 6C9.55228 6 10 6.44772 10 7C10 7.55228 9.55228 8 9 8C8.44772 8 8 7.55228 8 7ZM14.5 10C14.5 10.5523 14.0523 11 13.5 11C12.9477 11 12.5 10.5523 12.5 10C12.5 9.44771 12.9477 9 13.5 9C14.0523 9 14.5 9.44771 14.5 10ZM11.5 10C11.5 10.5523 11.0523 11 10.5 11C9.94772 11 9.5 10.5523 9.5 10C9.5 9.44771 9.94772 9 10.5 9C11.0523 9 11.5 9.44771 11.5 10ZM12.5 4C12.5 3.44772 12.9477 3 13.5 3C14.0523 3 14.5 3.44772 14.5 4C14.5 4.55228 14.0523 5 13.5 5C12.9477 5 12.5 4.55228 12.5 4ZM9.5 4C9.5 3.44772 9.94772 3 10.5 3C11.0523 3 11.5 3.44772 11.5 4C11.5 4.55228 11.0523 5 10.5 5C9.94772 5 9.5 4.55228 9.5 4Z" fill="currentColor"/>
</svg>
