<svg width="24" height="24" viewBox="0 0 24 24" fill="none" xmlns="http://www.w3.org/2000/svg">
<path fill-rule="evenodd" clip-rule="evenodd" d="M22.79 2.58736L22.08 1.87736C20.9087 0.707547 19.0113 0.707547 17.84 1.87736L2.48 17.2374L1 23.6674L7.43 22.1874L22.79 6.82736C23.9598 5.65609 23.9598 3.75863 22.79 2.58736ZM7.02 17.6474L5.33 17.2074L16.13 6.41736L18.25 8.53736L7.46 19.3374L7.02 17.6474ZM4.13 18.9674L5.38 19.2874L5.7 20.5374L3.7 21.0074L4.13 18.9674ZM21.37 5.41736L19.67 7.12736L17.54 4.99736L19.25 3.29736C19.4378 3.10805 19.6934 3.00156 19.96 3.00156C20.2266 3.00156 20.4822 3.10805 20.67 3.29736L21.37 3.99736C21.5593 4.18513 21.6658 4.44072 21.6658 4.70736C21.6658 4.974 21.5593 5.22959 21.37 5.41736Z" fill="currentColor"/>
</svg>
