<svg width="24" height="24" viewBox="0 0 24 24" fill="none" xmlns="http://www.w3.org/2000/svg">
<path fill-rule="evenodd" clip-rule="evenodd" d="M17.41 0H3V24H22V4.59L17.41 0ZM16 2V6H20V16.29L16.75 13L14.2 15.55L10.8 12.15L5 18V2H16ZM5 22V20.81L10.8 15.01L12.8 17.01L10.5 19.3L11.92 20.72L14.21 18.42L14.92 17.72L16.76 15.87L20.01 19.12V22H5ZM10 10C11.6569 10 13 8.65685 13 7C13 5.34315 11.6569 4 10 4C8.34315 4 7 5.34315 7 7C7 8.65685 8.34315 10 10 10ZM10 6C10.5523 6 11 6.44772 11 7C11 7.55228 10.5523 8 10 8C9.44772 8 9 7.55228 9 7C9 6.44772 9.44772 6 10 6Z" fill="currentColor"/>
</svg>
