<svg width="24" height="24" viewBox="0 0 24 24" fill="none" xmlns="http://www.w3.org/2000/svg">
<path fill-rule="evenodd" clip-rule="evenodd" d="M17 19H15C14.8387 17.7703 13.7351 16.8875 12.5 17C11.7577 16.9707 11.0355 17.2451 10.5 17.76C10.1748 18.0903 9.99488 18.5366 10 19H8C8.00679 18.005 8.40564 17.0528 9.11 16.35C10.0127 15.4753 11.223 14.9904 12.48 15C14.8285 14.8688 16.8447 16.653 17 19ZM22 4.59V24H3V0H17.41L22 4.59ZM20 22V6H16V2H5V22H20ZM9.5 12C10.3284 12 11 11.3284 11 10.5C11 9.67157 10.3284 9 9.5 9C8.67157 9 8 9.67157 8 10.5C8 11.3284 8.67157 12 9.5 12ZM15.5 9C14.6716 9 14 9.67157 14 10.5C14 11.3284 14.6716 12 15.5 12C16.3284 12 17 11.3284 17 10.5C17 9.67157 16.3284 9 15.5 9Z" fill="currentColor"/>
</svg>
