<svg width="24" height="24" viewBox="0 0 24 24" fill="none" xmlns="http://www.w3.org/2000/svg">
<path fill-rule="evenodd" clip-rule="evenodd" d="M17.41 0H3V24H22V4.59L17.41 0ZM5 22V2H16V6H20V22H5ZM13 17C13 17.5523 12.5523 18 12 18C11.4477 18 11 17.5523 11 17C11 16.4477 11.4477 16 12 16C12.5523 16 13 16.4477 13 17ZM15 11C14.985 12.0481 14.514 13.0375 13.71 13.71C13.22 14.2 13 14.44 13 15H11C11.015 13.9519 11.486 12.9625 12.29 12.29C12.78 11.8 13 11.56 13 11C13 10.4477 12.5523 10 12 10C11.4477 10 11 10.4477 11 11H9C9 9.34315 10.3431 8 12 8C13.6569 8 15 9.34315 15 11Z" fill="currentColor"/>
</svg>
