<svg width="24" height="24" viewBox="0 0 24 24" fill="none" xmlns="http://www.w3.org/2000/svg">
<path fill-rule="evenodd" clip-rule="evenodd" d="M18 16H20V14H18V16ZM18 12H20V10H18V12ZM6 12H7V14H6V15H4V14H3V12H4V11H6V12ZM22 12H20V14H22V19.5C22 20.879 20.879 22 19.5 22C18.121 22 17 20.879 17 19.5V18C17 16.897 16.103 16 15 16H9C7.897 16 7 16.897 7 18V19.5C7 20.879 5.878 22 4.5 22C3.122 22 2 20.879 2 19.5V11C2 9.346 3.346 8 5 8H7V12H16V14H18V12H17V8H19C20.654 8 22 9.346 22 11V12ZM9 10H15V8H9V10ZM19.764 6.077C19.429 5.44 18.769 5 18 5H15V6H13V4H15C16.103 4 17 3.103 17 2V0H15V2H13C11.897 2 11 2.897 11 4V6H9V5H6C5.231 5 4.571 5.44 4.236 6.077C1.843 6.448 0 8.505 0 11V19.5C0 21.981 2.019 24 4.5 24C6.981 24 9 21.981 9 19.5V18H15V19.5C15 21.981 17.019 24 19.5 24C21.981 24 24 21.981 24 19.5V11C24 8.505 22.157 6.448 19.764 6.077Z" fill="currentColor"/>
</svg>
