<svg width="24" height="24" viewBox="0 0 24 24" fill="none" xmlns="http://www.w3.org/2000/svg">
<path fill-rule="evenodd" clip-rule="evenodd" d="M17 5H13V3H17V5ZM22 0V24H2V0H22ZM20 22V9.41L19 8.41V4.59L20 3.59V2H4V3.59L5 4.59V8.41L4 9.41V22H20ZM19 14C19 17.866 15.866 21 12 21C8.13401 21 5 17.866 5 14C5 10.134 8.13401 7 12 7C15.866 7 19 10.134 19 14ZM17 14C17 11.2386 14.7614 9 12 9C9.23858 9 7 11.2386 7 14C7 16.7614 9.23858 19 12 19C14.7614 19 17 16.7614 17 14ZM15 14C15 15.6569 13.6569 17 12 17C10.3431 17 9 15.6569 9 14C9 12.3431 10.3431 11 12 11C13.6569 11 15 12.3431 15 14ZM13 14C13 13.4477 12.5523 13 12 13C11.4477 13 11 13.4477 11 14C11 14.5523 11.4477 15 12 15C12.5523 15 13 14.5523 13 14Z" fill="currentColor"/>
</svg>
