<svg width="25" height="24" viewBox="0 0 25 24" fill="none" xmlns="http://www.w3.org/2000/svg">
<path fill-rule="evenodd" clip-rule="evenodd" d="M20 1.45004C17.345 0.753044 14.5392 1.80723 13 4.08004C11.5131 1.83464 8.7732 0.769125 6.15998 1.42004C2.92374 2.24149 0.746689 5.2708 0.999977 8.60004C1.50998 15.44 12 22.33 12.44 22.6C12.6009 22.704 12.7884 22.7595 12.98 22.76C13.1742 22.7562 13.364 22.701 13.53 22.6C13.98 22.3 24.59 15.3 24.97 8.60004C25.2402 5.33381 23.1557 2.3349 20 1.45004ZM6.65998 3.36004C7.03191 3.26106 7.4151 3.21065 7.79998 3.21004C9.59998 3.21004 11.15 4.36004 12.09 6.43004C12.2569 6.7806 12.6117 7.00282 13 7.00004C13.3837 7.00653 13.7373 6.79282 13.91 6.45004C15.21 3.92004 17.31 2.76004 19.52 3.36004C21.7511 4.01429 23.2085 6.15439 23 8.47004C22.8734 9.73015 22.4446 10.9411 21.75 12H18.68L16.93 7.63004C16.7783 7.24932 16.4098 6.99965 16 7.00004C15.5852 7.00285 15.2152 7.26146 15.07 7.65004L12.87 13.5L10.87 9.55004C10.7143 9.23803 10.4074 9.02962 10.06 9.00004C9.70434 8.98085 9.36534 9.15226 9.16998 9.45004L7.45998 12H4.27998C3.58639 10.9307 3.14841 9.71596 2.99998 8.45004C2.82884 6.09162 4.36978 3.94863 6.65998 3.36004ZM13 20.57C10.2947 18.6987 7.83837 16.491 5.68998 14H7.99998C8.3345 13.9983 8.64599 13.8294 8.82998 13.55L9.87998 12L12.11 16.46C12.2822 16.7924 12.6256 17.0008 13 17H13.05C13.45 16.9812 13.8002 16.7254 13.94 16.35L16 10.77L17 13.37C17.1603 13.7756 17.5649 14.0306 18 14H20.33C18.1695 16.4865 15.7072 18.6936 13 20.57Z" fill="currentColor"/>
</svg>
