<svg width="24" height="24" viewBox="0 0 24 24" fill="none" xmlns="http://www.w3.org/2000/svg">
<path fill-rule="evenodd" clip-rule="evenodd" d="M22.718 9.48324C22.9821 9.4463 23.25 9.51635 23.4622 9.67784C23.6743 9.83933 23.8133 10.0789 23.848 10.3432L23.908 10.8832C23.9329 11.1552 23.8454 11.4255 23.666 11.6313C23.4866 11.8372 23.2308 11.9607 22.958 11.9732C22.439 11.9753 22.0047 11.5801 21.958 11.0632L21.898 10.6132C21.8196 10.0765 22.1835 9.57518 22.718 9.48324ZM20.818 7.34324C20.9447 7.59657 21.0647 7.85657 21.178 8.12324C21.3359 8.49611 21.7031 8.73695 22.108 8.73324C22.4433 8.73296 22.7561 8.56472 22.9411 8.28517C23.1261 8.00561 23.1588 7.65193 23.028 7.34324C22.888 7.02324 22.748 6.71324 22.588 6.40324C22.4664 6.16683 22.2556 5.9886 22.0023 5.90791C21.749 5.82722 21.474 5.85073 21.238 5.97324C20.998 6.09655 20.818 6.31162 20.7389 6.56961C20.6598 6.82759 20.6883 7.10659 20.818 7.34324ZM15.818 2.75324C16.078 2.86324 16.338 2.99324 16.588 3.12324C16.7325 3.2012 16.8939 3.24242 17.058 3.24324C17.5226 3.24985 17.9306 2.93558 18.0427 2.48467C18.1548 2.03375 17.9416 1.56501 17.528 1.35324C17.218 1.19324 16.908 1.04324 16.588 0.913237C16.3427 0.810596 16.0667 0.809859 15.8209 0.911188C15.5751 1.01252 15.3797 1.20757 15.278 1.45324C15.072 1.96409 15.3179 2.54533 15.828 2.75324H15.818ZM19.318 5.22324C19.6989 5.58781 20.2975 5.59397 20.6858 5.23732C21.0742 4.88067 21.1189 4.28376 20.788 3.87324C20.5573 3.61756 20.3137 3.3739 20.058 3.14324C19.6475 2.81234 19.0506 2.85705 18.6939 3.24541C18.3373 3.63376 18.3434 4.23231 18.708 4.61324L19.318 5.22324ZM12.858 2.02324L13.308 2.07324H13.448C13.8053 2.09646 14.1478 1.92732 14.3465 1.62953C14.5453 1.33174 14.5701 0.950541 14.4115 0.629528C14.253 0.308516 13.9353 0.0964591 13.578 0.0732368L13.038 0.00323679C12.7644 -0.0188239 12.4937 0.0725829 12.2894 0.256024C12.0852 0.439465 11.9654 0.698806 11.958 0.973237C11.929 1.51123 12.3313 1.97553 12.868 2.02324H12.858ZM21.858 13.0232C21.3037 18.2433 16.8075 22.1462 11.5614 21.9611C6.31523 21.7761 2.1052 17.566 1.92013 12.3199C1.73506 7.07375 5.63796 2.57752 10.858 2.02324V0.0232368C4.53753 0.62754 -0.218331 6.05074 0.00773401 12.396C0.233799 18.7413 5.36354 23.8123 11.711 23.9653C18.0585 24.1183 23.4265 19.3003 23.958 12.9732L21.858 13.0232ZM10.958 4.97324V12.5932L15.508 14.8632L16.408 13.0832L12.958 11.3532V4.97324H10.958Z" fill="currentColor"/>
</svg>
