<svg width="24" height="24" viewBox="0 0 24 24" fill="none" xmlns="http://www.w3.org/2000/svg">
<path fill-rule="evenodd" clip-rule="evenodd" d="M0 15H24V0H0V15ZM20 4H22V2H20V4ZM17 4H19V2H17V4ZM14 4H16V2H14V4ZM11 4H13V2H11V4ZM8 4H10V2H8V4ZM5 4H7V2H5V4ZM2 4H4V2H2V4ZM20 7H22V5H20V7ZM17 7H19V5H17V7ZM14 7H16V5H14V7ZM11 7H13V5H11V7ZM8 7H10V5H8V7ZM5 7H7V5H5V7ZM2 7H4V5H2V7ZM20 10H22V8H20V10ZM17 10H19V8H17V10ZM14 10H16V8H14V10ZM11 10H13V8H11V10ZM8 10H10V8H8V10ZM5 10H7V8H5V10ZM2 10H4V8H2V10ZM20 13H22V11H20V13ZM17 13H19V11H17V13ZM8 13H16V11H8V13ZM5 13H7V11H5V13ZM2 13H4V11H2V13ZM12 20.586L8.707 17.293L7.293 18.707L12 23.414L16.707 18.707L15.293 17.293L12 20.586Z" fill="currentColor"/>
</svg>
