<svg width="24" height="24" viewBox="0 0 24 24" fill="none" xmlns="http://www.w3.org/2000/svg">
<path fill-rule="evenodd" clip-rule="evenodd" d="M20 12H22V10H20V12ZM20 15H22V13H20V15ZM20 18H22V16H20V18ZM20 21H22V19H20V21ZM17 12H19V10H17V12ZM17 15H19V13H17V15ZM17 18H19V16H17V18ZM17 21H19V19H17V21ZM14 12H16V10H14V12ZM14 15H16V13H14V15ZM14 18H16V16H14V18ZM8 21H16V19H8V21ZM5 12H7V10H5V12ZM5 15H7V13H5V15ZM5 18H7V16H5V18ZM5 21H7V19H5V21ZM2 12H4V10H2V12ZM2 15H4V13H2V15ZM2 18H4V16H2V18ZM2 21H4V19H2V21ZM8 18H10V16H8V18ZM8 15H10V13H8V15ZM8 12H10V10H8V12ZM11 18H13V16H11V18ZM11 15H13V13H11V15ZM11 12H13V10H11V12ZM13 8V6C13 5.449 13.448 5 14 5C15.654 5 17 3.654 17 2V0H15V2C15 2.551 14.552 3 14 3C12.346 3 11 4.346 11 6V8H0V23H24V8H13Z" fill="currentColor"/>
</svg>
