<svg width="24" height="24" viewBox="0 0 24 24" fill="none" xmlns="http://www.w3.org/2000/svg">
<path fill-rule="evenodd" clip-rule="evenodd" d="M12 0C5.37258 0 0 5.37258 0 12C0 18.6274 5.37258 24 12 24C18.6274 24 24 18.6274 24 12C24 5.37258 18.6274 0 12 0ZM6.76 20.5C7.55794 19.9994 8.42337 19.6155 9.33 19.36C11.0077 20.2132 12.9923 20.2132 14.67 19.36C15.5766 19.6155 16.4421 19.9994 17.24 20.5C14.0331 22.5006 9.9669 22.5006 6.76 20.5ZM12 10C14.2091 10 16 11.7909 16 14C16 16.2091 14.2091 18 12 18C9.79086 18 8 16.2091 8 14C8 11.7909 9.79086 10 12 10ZM13.62 8.23C13.6595 8.20479 13.7038 8.18779 13.75 8.18C13.932 8.19394 14.0993 8.28489 14.21 8.43C14.0187 8.34847 13.8215 8.28161 13.62 8.23ZM18.91 19.23C18.1723 18.7105 17.3811 18.2713 16.55 17.92C17.1763 17.192 17.6187 16.3244 17.84 15.39C18.3808 15.1489 18.7292 14.6121 18.7292 14.02C18.7292 13.4279 18.3808 12.8911 17.84 12.65C17.3914 10.743 16.04 9.17505 14.22 8.45L15.73 7.14C15.2346 6.54708 14.5027 6.20309 13.73 6.2C13.1018 6.20896 12.4994 6.45135 12.04 6.88C11.6947 6.45474 11.1778 6.20547 10.63 6.2C9.99385 6.2073 9.39494 6.50124 9 7L10.46 8.26C8.32515 8.83088 6.67692 10.5291 6.17 12.68C5.62918 12.9211 5.28082 13.4579 5.28082 14.05C5.28082 14.6421 5.62918 15.1789 6.17 15.42C6.39135 16.3544 6.83374 17.222 7.46 17.95C6.6289 18.3013 5.83774 18.7405 5.1 19.26C2.14666 16.4368 1.20779 12.1009 2.72869 8.30892C4.24959 4.51689 7.92434 2.03145 12.01 2.03145C16.0957 2.03145 19.7704 4.51689 21.2913 8.30892C22.8122 12.1009 21.8733 16.4368 18.92 19.26L18.91 19.23ZM12.86 13.9C12.86 13.425 13.245 13.04 13.72 13.04C14.195 13.04 14.58 13.425 14.58 13.9C14.58 14.375 14.195 14.76 13.72 14.76C13.4875 14.7629 13.264 14.6704 13.1016 14.5042C12.9391 14.3379 12.8518 14.1123 12.86 13.88V13.9ZM9.43 13.9C9.43 13.425 9.81503 13.04 10.29 13.04C10.765 13.04 11.15 13.425 11.15 13.9C11.15 14.375 10.765 14.76 10.29 14.76C10.0575 14.7629 9.83404 14.6704 9.67156 14.5042C9.50907 14.3379 9.42178 14.1123 9.43 13.88V13.9Z" fill="currentColor"/>
</svg>
