<svg width="24" height="24" viewBox="0 0 24 24" fill="none" xmlns="http://www.w3.org/2000/svg">
<path fill-rule="evenodd" clip-rule="evenodd" d="M2 0V24H23V0H2ZM21 22H4V2H21V22ZM15 9H10V7H15V9ZM16 13H9V11H16V13ZM16 16H9V14H16V16ZM7 20V21H18V20C18 19.4477 18.4477 19 19 19H20V5H19C18.4477 5 18 4.55228 18 4V3H7V4C7 4.55228 6.55228 5 6 5H5V19H6C6.55228 19 7 19.4477 7 20ZM7 6.83C7.85528 6.52801 8.52801 5.85528 8.83 5H16.17C16.472 5.85528 17.1447 6.52801 18 6.83V17.17C17.1447 17.472 16.472 18.1447 16.17 19H8.83C8.52801 18.1447 7.85528 17.472 7 17.17V6.83Z" fill="currentColor"/>
</svg>
