<svg width="24" height="24" viewBox="0 0 24 24" fill="none" xmlns="http://www.w3.org/2000/svg">
<path fill-rule="evenodd" clip-rule="evenodd" d="M19.2807 6.07005C18.9602 5.84564 18.8 5.45489 18.8707 5.07005C19.0252 4.1168 18.7114 3.14745 18.0276 2.46559C17.3438 1.78373 16.3735 1.47275 15.4207 1.63005C15.2516 1.65051 15.0801 1.62993 14.9207 1.57005H14.8607C14.6934 1.50017 14.5482 1.3861 14.4407 1.24005C13.8764 0.461032 12.9727 -0.000112277 12.0107 5.26749e-05C11.047 -0.00564982 10.1393 0.451947 9.57071 1.23005C9.47162 1.37361 9.33252 1.48489 9.17071 1.55005H9.09071C8.93128 1.60993 8.75978 1.63051 8.59071 1.61005C7.63948 1.4564 6.67234 1.769 5.991 2.45034C5.30966 3.13168 4.99706 4.09882 5.15071 5.05005C5.22146 5.43489 5.06125 5.82564 4.74071 6.05005C3.96142 6.61425 3.5 7.51797 3.5 8.48005C3.5 9.44214 3.96142 10.3459 4.74071 10.9101C5.06125 11.1345 5.22146 11.5252 5.15071 11.9101C5.00281 12.8597 5.31886 13.8227 6.00071 14.5001C6.28447 14.7873 6.62507 15.0121 7.00071 15.1601V24.0001L12.0007 21.1601L17.0007 24.0001V15.1701C17.3764 15.0221 17.717 14.7973 18.0007 14.5101C18.6826 13.8327 18.9986 12.8697 18.8507 11.9201C18.78 11.5352 18.9402 11.1445 19.2607 10.9201C20.04 10.3559 20.5014 9.45214 20.5014 8.49005C20.5014 7.52797 20.04 6.62425 19.2607 6.06005L19.2807 6.07005ZM17.0907 10.6101C16.5411 11.9227 15.5057 12.9724 14.2007 13.5401L14.0507 13.6001C13.4159 13.8606 12.7369 13.9965 12.0507 14.0001C9.82874 13.9977 7.82562 12.661 6.97071 10.6101C6.41071 9.26605 6.41071 7.75405 6.97071 6.41005C7.52228 5.10208 8.55243 4.05405 9.85071 3.48005L10.0207 3.41005C11.3241 2.89024 12.7773 2.89024 14.0807 3.41005L14.2507 3.48005C15.549 4.05405 16.5791 5.10208 17.1307 6.41005C17.6907 7.75405 17.6907 9.26605 17.1307 10.6101H17.0907ZM12.0107 18.8501L9.01071 20.5501V15.3901H9.17071C9.33021 15.4637 9.47053 15.5732 9.58071 15.7101C10.1342 16.508 11.0397 16.9887 12.0107 17.0001C12.9744 17.0058 13.8821 16.5482 14.4507 15.7701C14.5512 15.6318 14.6855 15.5216 14.8407 15.4501H15.0107V20.6101L12.0107 18.8501Z" fill="currentColor"/>
</svg>
