<svg width="24" height="24" viewBox="0 0 24 24" fill="none" xmlns="http://www.w3.org/2000/svg">
<path fill-rule="evenodd" clip-rule="evenodd" d="M12 4C10.8954 4 10 4.89543 10 6C10 7.10457 10.8954 8 12 8C13.1046 8 14 7.10457 14 6C14 4.89543 13.1046 4 12 4ZM12 0C9.28862 0.00479688 6.91739 1.82738 6.21527 4.44628C5.51316 7.06518 6.65465 9.82951 9 11.19V13H6V18H9V19H6V24H15V11.19C17.3454 9.82951 18.4868 7.06518 17.7847 4.44628C17.0826 1.82738 14.7114 0.00479688 12 0ZM13.6 9.66L13 9.92V22H8V21H11V16H8V15H11V9.92L10.4 9.66C8.66398 8.90234 7.69738 7.0309 8.08437 5.1767C8.47137 3.3225 10.1058 1.99394 12 1.99394C13.8942 1.99394 15.5286 3.3225 15.9156 5.1767C16.3026 7.0309 15.336 8.90234 13.6 9.66Z" fill="currentColor"/>
</svg>
