<svg width="24" height="24" viewBox="0 0 18 18" fill="none" xmlns="http://www.w3.org/2000/svg">
<path d="M12.6955 11.1473C12.305 10.7568 12.305 10.1236 12.6955 9.73311L14.9592 7.46943C16.2104 6.21822 16.2104 4.18961 14.9592 2.93841C13.708 1.6872 11.6794 1.6872 10.4282 2.93841L8.16453 5.20209C7.774 5.59262 7.14084 5.59262 6.75031 5.20209C6.35979 4.81157 6.35979 4.1784 6.75031 3.78788L9.014 1.52419C11.0463 -0.508065 14.3412 -0.508063 16.3734 1.52419C18.4057 3.55645 18.4057 6.85139 16.3734 8.88364L14.1098 11.1473C13.7192 11.5379 13.0861 11.5379 12.6955 11.1473Z" fill="currentColor"/>
<path d="M11.1473 12.6955C10.7568 12.305 10.1236 12.305 9.73311 12.6955L7.46943 14.9592C6.21822 16.2104 4.18961 16.2104 2.93841 14.9592C1.6872 13.708 1.6872 11.6794 2.9384 10.4282L5.20209 8.16453C5.59262 7.774 5.59262 7.14084 5.20209 6.75031C4.81157 6.35979 4.1784 6.35979 3.78788 6.75031L1.52419 9.014C-0.508064 11.0463 -0.508064 14.3412 1.52419 16.3734C3.55645 18.4057 6.85139 18.4057 8.88364 16.3734L11.1473 14.1098C11.5379 13.7192 11.5379 13.0861 11.1473 12.6955Z" fill="currentColor"/>
<path d="M11.8938 5.82762C12.2843 6.21815 12.2843 6.85131 11.8938 7.24184L7.41924 11.7164C7.02872 12.1069 6.39555 12.1069 6.00503 11.7164C5.6145 11.3258 5.6145 10.6927 6.00503 10.3021L10.4796 5.82762C10.8701 5.4371 11.5032 5.4371 11.8938 5.82762Z" fill="currentColor"/>
</svg>
