<svg width="24" height="24" viewBox="0 0 24 24" fill="none" xmlns="http://www.w3.org/2000/svg">
<path fill-rule="evenodd" clip-rule="evenodd" d="M12 17C15.3137 17 18 14.3137 18 11V6C18 2.68629 15.3137 0 12 0C8.68629 0 6 2.68629 6 6V11C6 14.3137 8.68629 17 12 17ZM12 2C13.4204 2.00857 14.7298 2.76982 15.44 4H14V6H16V7H14V9H16V10H14V12H15.86C15.3866 13.742 13.8051 14.951 12 14.951C10.1949 14.951 8.6134 13.742 8.14 12H10V10H8V9H10V7H8V6H10V4H8.56C9.27021 2.76982 10.5796 2.00857 12 2ZM13 19.94V22H17V24H7V22H11V19.94C6.44641 19.4309 3.00217 15.582 3 11H5C5 14.866 8.13401 18 12 18C15.866 18 19 14.866 19 11H21C20.9978 15.582 17.5536 19.4309 13 19.94Z" fill="currentColor"/>
</svg>
