<svg width="24" height="24" viewBox="0 0 24 24" fill="none" xmlns="http://www.w3.org/2000/svg">
<path fill-rule="evenodd" clip-rule="evenodd" d="M23 9.62V12.39C23.0124 15.3189 21.9443 18.1495 20 20.34V24H18V19.54C19.9267 17.6611 21.0092 15.0812 21 12.39V9.62C21.006 8.12836 20.6636 6.65593 20 5.32C19.4822 4.26856 18.7735 3.3225 17.91 2.53C17.78 1.65917 17.538 0.808797 17.19 0H19.32C19.5061 0.50549 19.6565 1.02343 19.77 1.55C21.8504 3.72226 23.0142 6.61225 23.02 9.62H23ZM19 9.62C18.9978 8.43709 18.7241 7.27048 18.2 6.21C17.6769 5.16568 16.9208 4.25557 15.99 3.55C15.9193 2.29867 15.5525 1.082 14.92 0H12.46C13.4483 1.09825 13.9967 2.52254 14 4C14 4.20667 14 4.41667 14 4.63C15.0548 5.17833 15.9089 6.04646 16.44 7.11C16.8251 7.89086 17.0269 8.74933 17.03 9.62V12.39C17.033 14.3985 16.0308 16.2753 14.36 17.39L14.03 17.61V24H16.03V18.64C17.9277 17.1207 19.0315 14.8209 19.03 12.39L19 9.62ZM15 12.39C15.0009 13.7278 14.3329 14.9775 13.22 15.72L12 16.54V24H4.00002V16.54L2.78002 15.72C1.66715 14.9775 0.999146 13.7278 1.00002 12.39V9.62C0.994345 7.64172 2.58192 6.02739 4.56002 6C4.19646 5.39601 4.00297 4.70496 4.00002 4C4.00002 1.79086 5.79088 0 8.00002 0C10.2092 0 12 1.79086 12 4C11.9971 4.70496 11.8036 5.39601 11.44 6C13.4181 6.02739 15.0057 7.64172 15 9.62V12.39ZM6.00002 4C6.00002 5.10457 6.89545 6 8.00002 6C9.10458 6 10 5.10457 10 4C10 2.89543 9.10458 2 8.00002 2C6.89545 2 6.00002 2.89543 6.00002 4ZM13 9.62C12.9984 9.36705 12.9403 9.11765 12.83 8.89C12.5557 8.34133 11.9934 7.99621 11.38 8H4.62002C4.0066 7.99621 3.44433 8.34133 3.17002 8.89C3.05974 9.11765 3.00166 9.36705 3.00002 9.62V12.39C2.99791 13.0607 3.3321 13.6878 3.89002 14.06L4.00002 14.13V10H6.00002V22H7.00002V15H9.00002V22H10V10H12V14.13L12.11 14.06C12.6679 13.6878 13.0021 13.0607 13 12.39V9.62Z" fill="currentColor"/>
</svg>
