<svg width="24" height="24" viewBox="0 0 24 24" fill="none" xmlns="http://www.w3.org/2000/svg">
<path fill-rule="evenodd" clip-rule="evenodd" d="M24 21V12H12V21H15V22H14V24H22V22H21V21H24ZM14 14H22V19H14V14ZM19 22H17V21H19V22ZM3 10H2V12H10V10H9V9H12V0H0V9H3V10ZM7 10H5V9H7V10ZM2 2H10V7H2V2ZM6 16.18V13H4V16.18C2.67731 16.6408 1.84953 17.9556 2.00573 19.3475C2.16193 20.7395 3.26053 21.8381 4.65246 21.9943C6.0444 22.1505 7.35917 21.3227 7.82 20H11V18H7.82C7.51762 17.1507 6.84932 16.4824 6 16.18ZM5 20C4.44772 20 4 19.5523 4 19C4 18.4477 4.44772 18 5 18C5.55228 18 6 18.4477 6 19C6 19.5523 5.55228 20 5 20ZM18 7.82V11H20V7.82C21.3227 7.35917 22.1505 6.0444 21.9943 4.65246C21.8381 3.26053 20.7395 2.16193 19.3475 2.00573C17.9556 1.84953 16.6408 2.67731 16.18 4H13V6H16.18C16.4824 6.84932 17.1507 7.51762 18 7.82ZM19 4C19.5523 4 20 4.44772 20 5C20 5.55228 19.5523 6 19 6C18.4477 6 18 5.55228 18 5C18 4.44772 18.4477 4 19 4Z" fill="currentColor"/>
</svg>
