<svg width="24" height="24" viewBox="0 0 24 24" fill="none" xmlns="http://www.w3.org/2000/svg">
<path fill-rule="evenodd" clip-rule="evenodd" d="M16 9.006H18V6.006H16V9.006ZM6 9.006H8V6.006H6V9.006ZM14.523 21C14.371 20.055 14.295 18.963 14.301 17.855C17.806 17.401 19.937 16.057 20.043 15.987L18.96 14.306C18.939 14.318 17.231 15.381 14.406 15.818C14.545 14.479 14.816 13.252 15.241 12.414L15.979 10.962H10.862C10.938 8.709 11.896 5.834 13.517 3H22L22.002 21H14.523ZM2 3H11.235C10.074 5.24 8.613 8.787 8.891 12.047L8.969 12.962H12.905C12.646 13.871 12.48 14.916 12.387 15.996C12.258 16 12.132 16.006 12 16.006C7.778 16.006 5.095 14.201 5.07 14.185L3.93 15.827C4.058 15.916 7.12 18.006 12 18.006C12.104 18.006 12.201 18 12.303 17.998C12.304 19.045 12.371 20.071 12.503 21H2V3ZM22 1H2C0.897 1 0 1.897 0 3V21C0 22.103 0.897 23 2 23H22C23.103 23 24 22.103 24 21V3C24 1.897 23.103 1 22 1Z" fill="currentColor"/>
</svg>
