<svg width="24" height="24" viewBox="0 0 24 24" fill="none" xmlns="http://www.w3.org/2000/svg">
<path fill-rule="evenodd" clip-rule="evenodd" d="M10 15.436V8.554L15.623 11.992L10 15.436ZM17.239 10.635L10.418 6.465C9.929 6.165 9.313 6.155 8.813 6.435C8.312 6.716 8 7.248 8 7.822V16.17C8 16.745 8.312 17.276 8.812 17.556C9.053 17.692 9.321 17.758 9.589 17.758C9.877 17.758 10.165 17.68 10.419 17.525L17.241 13.346C17.717 13.055 18 12.548 18 11.991C18 11.433 17.715 10.926 17.239 10.635ZM12 22C6.486 22 2 17.514 2 12C2 6.487 6.486 2 12 2C17.514 2 22 6.487 22 12C22 17.514 17.514 22 12 22ZM12 0C5.383 0 0 5.383 0 12C0 18.618 5.383 24 12 24C18.617 24 24 18.618 24 12C24 5.383 18.617 0 12 0Z" fill="currentColor"/>
</svg>
