<svg width="24" height="24" viewBox="0 0 24 24" fill="none" xmlns="http://www.w3.org/2000/svg">
<path fill-rule="evenodd" clip-rule="evenodd" d="M20 11C19.2958 10.9984 18.6044 11.1886 18 11.55V6H12.45C12.8114 5.3956 13.0016 4.70423 13 4C13 1.79086 11.2091 0 9 0C6.79086 0 5 1.79086 5 4C4.99843 4.70423 5.18856 5.3956 5.55 6H0V24H8V21.78L7.67 21.48C7.05008 20.928 6.83555 20.0505 7.13086 19.2748C7.42617 18.499 8.16995 17.9863 9 17.9863C9.83005 17.9863 10.5738 18.499 10.8691 19.2748C11.1645 20.0505 10.9499 20.928 10.33 21.48L10 21.78V24H18V18.45C18.6044 18.8114 19.2958 19.0016 20 19C22.2091 19 24 17.2091 24 15C24 12.7909 22.2091 11 20 11ZM20 17C19.4341 16.9961 18.8963 16.7527 18.52 16.33L18.22 16H16V22H12.45C12.8114 21.3956 13.0016 20.7042 13 20C13 17.7909 11.2091 16 9 16C6.79086 16 5 17.7909 5 20C4.99843 20.7042 5.18856 21.3956 5.55 22H2V8H8V5.78L7.67 5.48C7.05008 4.92802 6.83555 4.0505 7.13086 3.27476C7.42617 2.49902 8.16995 1.98631 9 1.98631C9.83005 1.98631 10.5738 2.49902 10.8691 3.27476C11.1645 4.0505 10.9499 4.92802 10.33 5.48L10 5.78V8H16V14H18.22L18.52 13.67C19.1327 12.982 20.1361 12.8015 20.9501 13.2328C21.7642 13.6642 22.1782 14.5958 21.9529 15.4891C21.7276 16.3825 20.9213 17.0063 20 17Z" fill="currentColor"/>
</svg>
