<svg width="24" height="24" viewBox="0 0 24 24" fill="none" xmlns="http://www.w3.org/2000/svg">
<path fill-rule="evenodd" clip-rule="evenodd" d="M16.4015 2.925L15.5985 4.757C18.8805 6.195 21.0005 9.431 21.0005 13C21.0005 17.963 16.9635 22 12.0005 22C7.03749 22 3.00049 17.963 3.00049 13C3.00049 9.431 5.12049 6.195 8.40149 4.757L7.59849 2.925C3.58949 4.682 1.00049 8.637 1.00049 13C1.00049 19.066 5.93449 24 12.0005 24C18.0655 24 23.0005 19.066 23.0005 13C23.0005 8.637 20.4105 4.682 16.4015 2.925ZM11.0005 11H13.0005V0H11.0005V11Z" fill="currentColor"/>
</svg>
