<svg width="24" height="25" viewBox="0 0 24 25" fill="none" xmlns="http://www.w3.org/2000/svg">
<path fill-rule="evenodd" clip-rule="evenodd" d="M12 0L3 5.2V14.26C3 20.71 11.31 23.76 11.66 23.89L12 24.01L12.33 23.89C12.68 23.77 21 20.77 21 14.26V5.2L12 0ZM5 6.36L12 2.31L19 6.36V14.26C18.9929 14.5959 18.9561 14.9306 18.89 15.26C18.4561 14.8786 17.9492 14.5894 17.4 14.41L16 14C15.5865 13.8632 15.2077 13.638 14.89 13.34C15.5204 12.2541 15.8387 11.0153 15.81 9.76C15.81 7.66132 14.1087 5.96 12.01 5.96C9.91132 5.96 8.21 7.66132 8.21 9.76C8.17847 11.0232 8.50059 12.2701 9.14 13.36C8.80602 13.6466 8.41856 13.8641 8 14L6.59 14.39C6.04209 14.5674 5.5354 14.853 5.1 15.23C5.02848 14.9014 4.99161 14.5663 4.99 14.23L5 6.36ZM10.2 9.8C10.2 8.80589 11.0059 8 12 8C12.9941 8 13.8 8.80589 13.8 9.8C13.8 9.93 13.8 13 12 13C10.2 13 10.2 9.93 10.2 9.8ZM12 21.88C10.91 21.43 7.53 19.88 5.9 17.28C6.2314 16.8803 6.65296 16.565 7.13 16.36L8.54 15.97C9.33059 15.7273 10.0533 15.3026 10.65 14.73C11.077 14.9106 11.5364 15.0024 12 15C12.4714 15.005 12.9384 14.9095 13.37 14.72C13.9609 15.2924 14.6762 15.7202 15.46 15.97L16.87 16.36C17.3437 16.5611 17.7622 16.8732 18.09 17.27C16.45 19.89 13.07 21.44 12 21.88Z" fill="currentColor"/>
</svg>
