<svg width="24" height="24" viewBox="0 0 24 24" fill="none" xmlns="http://www.w3.org/2000/svg">
<path fill-rule="evenodd" clip-rule="evenodd" d="M24 20V0H0V20H8V22H6V24H18V22H16V20H24ZM2 16H6V14H2V2H22V14H18V16H22V18H2V16ZM14 22H10V20H14V22ZM19 9V7H5V9C5 10.6569 6.34315 12 8 12V15H9V17H11V15H13V17H15V15H16V12C17.6569 12 19 10.6569 19 9ZM14 13H10V12H14V13ZM16 10H8C7.44772 10 7 9.55229 7 9H17C17 9.55229 16.5523 10 16 10ZM7 6H5V5H7V6ZM7 4H5V3H7V4ZM10 6H8V4H10V6ZM13 6H11V3H13V6ZM16 6H14V5H16V6ZM16 4H14V3H16V4ZM19 6H17V4H19V6Z" fill="currentColor"/>
</svg>
