<svg width="24" height="24" viewBox="0 0 24 24" fill="none" xmlns="http://www.w3.org/2000/svg">
<path fill-rule="evenodd" clip-rule="evenodd" d="M23.2019 6.88C22.8294 6.32884 22.2072 5.999 21.5419 6H19.0219V5H21.0219V0H3.02195V5H5.02195V6H2.50195C1.83849 5.99936 1.21789 6.32777 0.845259 6.8767C0.472626 7.42563 0.396466 8.12362 0.641946 8.74L1.84195 11.74C2.1452 12.5014 2.88234 13.0008 3.70195 13H5.80195C5.99638 13.3169 6.22436 13.6119 6.48195 13.88L8.14195 15.54C8.70472 16.1021 9.02125 16.8646 9.02195 17.66V19H7.02195V24H17.0219V19H15.0219V17.66C15.0226 16.8646 15.3392 16.1021 15.9019 15.54L17.5619 13.88C17.8195 13.6119 18.0475 13.3169 18.2419 13H20.3419C21.1616 13.0008 21.8987 12.5014 22.2019 11.74L23.4019 8.74C23.6472 8.12511 23.5723 7.42869 23.2019 6.88ZM5.02195 2H19.0219V3H5.02195V2ZM5.02195 11H3.70195L2.50195 8H5.02195V11ZM15.0219 22H9.02195V21H15.0219V22ZM14.4819 14.12C13.5448 15.0595 13.0196 16.333 13.0219 17.66V19H11.0219V17.66C11.0243 16.333 10.4991 15.0595 9.56195 14.12L7.90195 12.46C7.33918 11.8979 7.02265 11.1354 7.02195 10.34V5H17.0219V10.34C17.0212 11.1354 16.7047 11.8979 16.1419 12.46L14.4819 14.12ZM20.3419 11H19.0219V8H21.5419L20.3419 11ZM12.9219 8.08L15.1719 8.29L13.4719 9.79L13.9719 12L11.9719 10.84L9.97195 12L10.4719 9.79L8.77195 8.29L11.0219 8.08L11.9219 6L12.9219 8.08Z" fill="currentColor"/>
</svg>
