<svg width="24" height="24" viewBox="0 0 24 24" fill="none" xmlns="http://www.w3.org/2000/svg">
<path fill-rule="evenodd" clip-rule="evenodd" d="M12 0C5.37258 0 0 5.37258 0 12C0 18.6274 5.37258 24 12 24C18.6274 24 24 18.6274 24 12C24 5.37258 18.6274 0 12 0ZM4 18L7.82 14.17L7.6 13.57C7.00651 11.9753 7.29207 10.1863 8.3525 8.85565C9.41293 7.525 11.0931 6.84736 12.78 7.07L9.36 10.5L13.53 14.67L16.96 11.25C17.1826 12.9369 16.505 14.6171 15.1743 15.6775C13.8437 16.7379 12.0547 17.0235 10.46 16.43L9.86 16.21L6 20C5.23985 19.4339 4.56613 18.7601 4 18ZM12 22C10.5479 21.9998 9.1137 21.6788 7.8 21.06L10.39 18.47C12.9724 19.1642 15.7225 18.29 17.4299 16.232C19.1374 14.1741 19.489 11.3098 18.33 8.9L17.72 7.62L13.53 11.82L12.18 10.47L16.38 6.28L15.1 5.67C12.6902 4.51103 9.82592 4.86265 7.76797 6.57009C5.71001 8.27753 4.83576 11.0276 5.53 13.61L2.94 16.2C2.32121 14.8863 2.00023 13.4521 2 12C2 6.47715 6.47715 2 12 2C17.5228 2 22 6.47715 22 12C22 17.5228 17.5228 22 12 22Z" fill="currentColor"/>
</svg>
