<svg width="24" height="24" viewBox="0 0 24 24" fill="none" xmlns="http://www.w3.org/2000/svg">
<path fill-rule="evenodd" clip-rule="evenodd" d="M12 0C5.37258 0 0 5.37258 0 12C0 18.6274 5.37258 24 12 24C18.6274 24 24 18.6274 24 12C24 5.37258 18.6274 0 12 0ZM12 2C15.7454 2.00445 19.1744 4.1015 20.8847 7.43363C22.5949 10.7658 22.2998 14.7743 20.12 17.82C19.596 17.2584 18.9287 16.8504 18.19 16.64L16.56 16.19C16.105 16.0192 15.7091 15.7206 15.42 15.33C16.5127 13.7726 17.0675 11.9013 17 10C17 7.23858 14.7614 5 12 5C9.23858 5 7 7.23858 7 10C6.92956 11.9094 7.48819 13.789 8.59 15.35C8.29307 15.7323 7.89455 16.0234 7.44 16.19L5.81 16.64C5.07127 16.8504 4.40396 17.2584 3.88 17.82C1.70016 14.7743 1.40505 10.7658 3.11535 7.43363C4.82564 4.1015 8.25458 2.00445 12 2ZM9 10C9 8.34315 10.3431 7 12 7C13.6569 7 15 8.34315 15 10C15 11.86 14.37 15 12 15C9.63 15 9 11.86 9 10ZM5.2 19.31C5.50056 18.9562 5.89616 18.696 6.34 18.56L7.97 18.11C8.83305 17.8339 9.59505 17.3085 10.16 16.6C10.7366 16.8667 11.3647 17.0033 12 17C12.643 17.0051 13.2788 16.865 13.86 16.59C14.4091 17.3085 15.1671 17.8395 16.03 18.11L17.66 18.56C18.1038 18.696 18.4994 18.9562 18.8 19.31C14.976 22.8966 9.02395 22.8966 5.2 19.31Z" fill="currentColor"/>
</svg>
