<svg width="24" height="24" viewBox="0 0 24 24" fill="none" xmlns="http://www.w3.org/2000/svg">
<path fill-rule="evenodd" clip-rule="evenodd" d="M2 4V20H22V4H2ZM20 18H4V6H20V18ZM6 3H4V0H20V3H18V2H6V3ZM18 21H20V24H4V21H6V22H18V21ZM16 16H8V15.4C7.97902 14.6169 8.4753 13.9131 9.22 13.67L10 13.46C10.4815 13.2804 10.8754 12.9223 11.1 12.46L11.18 12.37C10.5305 11.7068 10.1988 10.7955 10.27 9.87C10.27 8.91455 11.0445 8.14 12 8.14C12.9555 8.14 13.73 8.91455 13.73 9.87C13.7983 10.7903 13.4709 11.696 12.83 12.36L12.92 12.45C13.132 12.9142 13.5209 13.2743 14 13.45L14.78 13.66C15.5283 13.9042 16.0255 14.6132 16 15.4V16Z" fill="currentColor"/>
</svg>
