<svg width="24" height="25" viewBox="0 0 24 25" fill="none" xmlns="http://www.w3.org/2000/svg">
<path fill-rule="evenodd" clip-rule="evenodd" d="M17.5014 14.92H14.5014C14.4803 14.0443 13.9971 13.2453 13.2314 12.82L14.7614 10.16C16.4613 11.1414 17.5064 12.9571 17.5014 14.92ZM10.7814 12.83L9.25136 10.17C8.42059 10.6494 7.73078 11.3392 7.25136 12.17C6.76672 13.0091 6.5115 13.961 6.51136 14.93H9.51136C9.53638 14.0555 10.0185 13.2583 10.7814 12.83ZM12.0014 17.5C11.5534 17.4959 11.1148 17.3716 10.7314 17.14L9.26136 19.69C10.9563 20.671 13.0464 20.671 14.7414 19.69L13.2714 17.13C12.8889 17.3651 12.4502 17.4929 12.0014 17.5ZM12.0014 16.5C12.8298 16.5 13.5014 15.8284 13.5014 15C13.5014 14.1716 12.8298 13.5 12.0014 13.5C11.1729 13.5 10.5014 14.1716 10.5014 15C10.5014 15.8284 11.1729 16.5 12.0014 16.5ZM21.0014 15C21.004 19.5776 17.5703 23.428 13.0222 23.9472C8.47413 24.4664 4.26086 21.489 3.23175 17.0286C2.20263 12.5682 4.68555 8.04587 9.00136 6.52V5H8.00136V0H16.0014V5H15.0014V6.52C18.5954 7.7907 20.9991 11.1879 21.0014 15ZM10.0014 3H14.0014V2H10.0014V3ZM19.0014 15C18.9978 11.8109 16.8392 9.02728 13.7514 8.23L13.0014 8V5H11.0014V8L10.2514 8.19C6.73319 9.09843 4.49502 12.5477 5.09873 16.1307C5.70244 19.7138 8.94729 22.2392 12.5689 21.9447C16.1905 21.6501 18.9846 18.6335 19.0014 15Z" fill="currentColor"/>
</svg>
