<svg width="24" height="24" viewBox="0 0 24 24" fill="none" xmlns="http://www.w3.org/2000/svg">
<path fill-rule="evenodd" clip-rule="evenodd" d="M24 2H17.72L16.61 0.779997C16.1943 0.32258 15.5405 0.16702 14.9633 0.38817C14.3861 0.60932 14.0037 1.16189 14 1.78V2H0V22H14V22.21C14.0089 22.8395 14.4074 23.3974 15 23.61C15.5778 23.8331 16.2333 23.6782 16.65 23.22L17.73 22H24V2ZM11 11H5V7H11V11ZM5 13H11V17H5V13ZM2 20V4H11.28C11.1002 4.30286 11.0037 4.64782 11 5H3V19H11V20H2ZM13 20V5H14V20H13ZM16 20.92V3.08L19 6.36V17.64L16 20.92ZM22 20H19.55L21 18.41V17H22V20ZM22 15H21V9H22V15ZM22 7H21V5.59L19.55 4H22V7ZM8 10H6V8H8V10ZM8 14V16H6V14H8Z" fill="currentColor"/>
</svg>
