<svg width="24" height="24" viewBox="0 0 24 24" fill="none" xmlns="http://www.w3.org/2000/svg">
<path fill-rule="evenodd" clip-rule="evenodd" d="M7.98275 17.0494H13.9827C13.9827 18.7062 12.6396 20.0494 10.9827 20.0494C9.32589 20.0494 7.98275 18.7062 7.98275 17.0494ZM8.48275 13.0494C8.48275 12.221 7.81117 11.5494 6.98275 11.5494C6.15432 11.5494 5.48275 12.221 5.48275 13.0494C5.48275 13.8778 6.15432 14.5494 6.98275 14.5494C7.81117 14.5494 8.48275 13.8778 8.48275 13.0494ZM20.7327 5.29939C21.3358 6.01728 21.687 6.91296 21.7327 7.84939C21.7777 8.80802 21.5854 9.76294 21.1727 10.6294C21.9639 11.7236 22.2142 13.1184 21.8527 14.4194C21.6294 15.5823 20.985 16.6221 20.0427 17.3394C18.3827 21.3394 14.8727 23.9494 10.9927 23.9494C7.11275 23.9494 3.60275 21.3694 1.99275 17.3394C1.04465 16.6257 0.395922 15.5849 0.172746 14.4194C-0.239329 13.0218 0.0969403 11.5104 1.06275 10.4194C0.818138 8.73463 1.00037 7.01543 1.59275 5.41939C2.20401 4.12535 3.49207 3.28599 4.92275 3.24939C5.92275 1.74939 9.42275 -1.05061 22.0727 0.409391L23.0227 0.519391L22.9527 1.51939C22.742 3.02347 21.9437 4.38271 20.7327 5.29939ZM19.7327 12.0694L19.4727 11.9794C17.6127 11.3394 17.2227 10.7794 17.2227 10.1494C17.199 9.96384 17.1265 9.78788 17.0127 9.63939C16.4217 9.57676 15.8244 9.60713 15.2427 9.72939L13.8827 10.2694C12.1161 10.9121 10.1794 10.9121 8.41275 10.2694L7.05275 9.72939C6.48787 9.53349 5.88369 9.47857 5.29275 9.56939C4.97275 9.66939 4.96275 9.72939 4.94275 9.87939C4.55454 11.0015 3.56127 11.8047 2.38275 11.9494H2.28275C1.94287 12.5592 1.86355 13.2803 2.06275 13.9494C2.17796 14.6705 2.58248 15.3134 3.18275 15.7294L3.53275 15.9094L3.67275 16.2694C4.96275 19.6994 7.83275 21.9194 10.9727 21.9194C14.1127 21.9194 16.9727 19.6994 18.2727 16.2694L18.4127 15.9094L18.7627 15.7294C19.3941 15.34 19.8358 14.7064 19.9827 13.9794C20.1519 13.3331 20.0808 12.6473 19.7827 12.0494L19.7327 12.0694ZM20.6127 2.32939C7.82275 1.04939 6.51275 4.52939 6.50275 4.56939L6.31275 5.46939L5.42275 5.30939C5.36275 5.30939 3.90275 5.17939 3.42275 6.30939C3.05817 7.34845 2.90848 8.45074 2.98275 9.54939L3.06275 9.46939C3.22199 8.5887 3.88383 7.88378 4.75275 7.66939C5.79006 7.4311 6.87435 7.50061 7.87275 7.86939L9.23275 8.40939C10.526 8.87183 11.9395 8.87183 13.2327 8.40939L14.6027 7.86939C15.5785 7.59439 16.6032 7.53974 17.6027 7.70939C18.4975 7.99713 19.1448 8.77693 19.2627 9.70939L19.4527 9.80939C19.7131 9.24973 19.8365 8.63617 19.8127 8.01939C19.7769 7.25538 19.3699 6.55713 18.7227 6.14939L18.5627 6.04939L17.2227 5.15939L18.6027 4.34939C19.4593 3.87454 20.1712 3.17647 20.6627 2.32939H20.6127ZM14.9827 11.5494C14.1543 11.5494 13.4827 12.221 13.4827 13.0494C13.4827 13.8778 14.1543 14.5494 14.9827 14.5494C15.8112 14.5494 16.4827 13.8778 16.4827 13.0494C16.4827 12.221 15.8112 11.5494 14.9827 11.5494Z" fill="currentColor"/>
</svg>
