<svg width="17" height="16" viewBox="0 0 17 16" fill="none" xmlns="http://www.w3.org/2000/svg">
<path fill-rule="evenodd" clip-rule="evenodd" d="M0.0999756 4.5C0.0999756 4.07493 0.310067 3.64987 0.730251 3.44714L7.66893 0.0993037C7.94335 -0.033101 8.2566 -0.0331013 8.53102 0.0993034L15.4697 3.44713C15.8899 3.64987 16.1 4.07493 16.1 4.5V11.5C16.1 11.8788 15.886 12.225 15.5472 12.3944L8.54719 15.8944C8.26566 16.0352 7.93429 16.0352 7.65276 15.8944L0.652762 12.3944C0.313978 12.225 0.0999756 11.8788 0.0999756 11.5V4.5ZM2.09998 6.21374V10.882L7.09998 13.382V8.62618L2.09998 6.21374ZM14.1 10.882L9.09998 13.382V8.62618L14.1 6.21374V10.882ZM5.16046 5.46976L3.15054 4.5L8.09997 2.11196L13.0494 4.5L11.0395 5.46976L8.09998 4L5.16046 5.46976Z" fill='currentColor' fill-opacity="0.55"/>
</svg>
