<svg width="24" height="24" viewBox="0 0 24 24" fill="none" xmlns="http://www.w3.org/2000/svg">
<path fill-rule="evenodd" clip-rule="evenodd" d="M20 0H4C2.34315 0 1 1.34315 1 3V21C1 22.6569 2.34315 24 4 24H20C21.6569 24 23 22.6569 23 21V3C23 1.34315 21.6569 0 20 0ZM21 21C21 21.5523 20.5523 22 20 22H4C3.44772 22 3 21.5523 3 21V3C3 2.44772 3.44772 2 4 2H20C20.5523 2 21 2.44772 21 3V21ZM5 18H19V20H5V18ZM5 14H19V16H5V14ZM12 3C8.13401 3 5 6.13401 5 10V11H19V10C19 6.13401 15.866 3 12 3ZM13.62 9L14.62 6.92L12.83 6.03L11.34 9.03H7.1C7.57319 6.69968 9.62212 5.02499 12 5.02499C14.3779 5.02499 16.4268 6.69968 16.9 9.03L13.62 9Z" fill="currentColor"/>
</svg>
