<svg width="24" height="24" viewBox="0 0 24 24" fill="none" xmlns="http://www.w3.org/2000/svg">
<path fill-rule="evenodd" clip-rule="evenodd" d="M0 0V20H8V22H6V24H18V22H16V20H19.76L17.76 18H2V16H10.11C9.51832 15.4258 9.03702 14.7479 8.69 14H2V2H22V13.76L24 15.76V0H0ZM10 20H14V22H10V20ZM20 11C20.0027 8.70909 18.4481 6.70943 16.2272 6.14713C14.0064 5.58483 11.6875 6.60375 10.5997 8.6199C9.51183 10.6361 9.93333 13.1336 11.6226 14.6811C13.3119 16.2285 15.8367 16.43 17.75 15.17L21.58 19L23 17.58L19.17 13.75C19.7097 12.9342 19.9983 11.9781 20 11ZM12 11C12 9.34315 13.3431 8 15 8C16.6569 8 18 9.34315 18 11C18 12.6569 16.6569 14 15 14C13.3431 14 12 12.6569 12 11Z" fill="currentColor"/>
</svg>
