<svg width="24" height="24" viewBox="0 0 18 20" fill="none" xmlns="http://www.w3.org/2000/svg">
<path d="M7 5C7 4.44771 7.44772 4 8 4H13C13.5523 4 14 4.44771 14 5C14 5.55228 13.5523 6 13 6H8C7.44771 6 7 5.55228 7 5Z" fill="currentColor"/>
<path d="M7 9C7 8.44771 7.44771 8 8 8H10C10.5523 8 11 8.44771 11 9C11 9.55229 10.5523 10 10 10H8C7.44771 10 7 9.55229 7 9Z" fill="currentColor"/>
<path fill-rule="evenodd" clip-rule="evenodd" d="M6 0H15C16.6569 0 18 1.34315 18 3V16.96C18 18.6422 16.66 20 15 20H3C1.34 20 0 18.6422 0 16.96V14.0133C0 13.456 0.45 13 1 13H3V3C3 1.34315 4.34315 0 6 0ZM5 13H13C13.55 13 14 13.456 14 14.0133V16.96C14 17.5174 14.45 17.9734 15 17.9734C15.55 17.9734 16 17.5174 16 16.96V3C16 2.44772 15.5523 2 15 2H6C5.44772 2 5 2.44772 5 3V13ZM12 17.9734H3C2.45 17.9734 2 17.5174 2 16.96V15.0267H12V17.9734Z" fill="currentColor"/>
</svg>
