<svg width="24" height="24" viewBox="0 0 24 24" fill="none" xmlns="http://www.w3.org/2000/svg">
<path fill-rule="evenodd" clip-rule="evenodd" d="M23.98 14.33V9.63L20.92 8.63C20.8467 8.44333 20.7667 8.25333 20.68 8.06L22.13 5.18L18.8 1.85L15.92 3.3C15.7333 3.20667 15.5433 3.12667 15.35 3.06L14.35 0H9.63L8.63 3.06C8.43667 3.12667 8.24667 3.20667 8.06 3.3L5.18 1.85L1.85 5.18L3.3 8.06C3.21333 8.25333 3.13333 8.44333 3.06 8.63L0 9.63V14.33L3.06 15.33C3.12667 15.5167 3.20667 15.7067 3.3 15.9L1.85 18.78L5.18 22.11L8.06 20.66C8.24667 20.7533 8.43667 20.8333 8.63 20.9L9.63 23.96H14.33L15.33 20.9C15.5233 20.8333 15.7133 20.7533 15.9 20.66L18.78 22.11L22.11 18.78L20.66 15.9C20.7533 15.7067 20.8333 15.5167 20.9 15.33L23.98 14.33ZM19.69 18.41L18.41 19.69L15.91 18.45L15.46 18.68C15.0725 18.8854 14.6676 19.0561 14.25 19.19L13.77 19.34L12.89 21.98H11.07L10.19 19.34L9.71 19.19C9.29239 19.0561 8.88747 18.8854 8.5 18.68L8.05 18.45L5.55 19.69L4.27 18.41L5.51 15.91L5.28 15.46C5.07458 15.0725 4.90391 14.6676 4.77 14.25L4.62 13.77L1.98 12.89V11.07L4.62 10.19L4.77 9.71C4.90391 9.29239 5.07458 8.88747 5.28 8.5L5.51 8.05L4.27 5.55L5.55 4.27L8.05 5.51L8.5 5.28C8.88747 5.07458 9.29239 4.90391 9.71 4.77L10.19 4.62L11.07 1.98H12.89L13.77 4.62L14.25 4.77C14.6676 4.90391 15.0725 5.07458 15.46 5.28L15.91 5.51L18.41 4.27L19.69 5.55L18.45 8.05L18.68 8.5C18.8854 8.88747 19.0561 9.29239 19.19 9.71L19.34 10.19L21.98 11.07V12.89L19.34 13.77L19.19 14.25C19.0561 14.6676 18.8854 15.0725 18.68 15.46L18.45 15.91L19.69 18.41ZM11.98 7.98C9.77086 7.98 7.98 9.77086 7.98 11.98C7.98 14.1891 9.77086 15.98 11.98 15.98C14.1891 15.98 15.98 14.1891 15.98 11.98C15.98 9.77086 14.1891 7.98 11.98 7.98ZM11.98 13.98C10.8754 13.98 9.98 13.0846 9.98 11.98C9.98 10.8754 10.8754 9.98 11.98 9.98C13.0846 9.98 13.98 10.8754 13.98 11.98C13.98 13.0846 13.0846 13.98 11.98 13.98Z" fill="currentColor"/>
</svg>
