<svg width="24" height="24" viewBox="0 0 24 24" fill="none" xmlns="http://www.w3.org/2000/svg">
<path fill-rule="evenodd" clip-rule="evenodd" d="M18.148 14.4975L17.0285 15.617L16.0403 14.6288C19.0246 10.8955 18.5726 5.48104 15.0106 2.29415C11.4486 -0.892741 6.0174 -0.741918 2.63774 2.63774C-0.741918 6.0174 -0.892741 11.4486 2.29415 15.0106C5.48104 18.5726 10.8955 19.0246 14.6288 16.0403L15.617 17.0285L14.4975 18.148L20.3265 23.977L23.977 20.3265L18.148 14.4975ZM9.02816 16.0152C5.16932 16.0152 2.04112 12.887 2.04112 9.02816C2.04112 5.16932 5.16932 2.04112 9.02816 2.04112C12.887 2.04112 16.0152 5.16932 16.0152 9.02816C16.0109 12.8852 12.8852 16.0109 9.02816 16.0152ZM17.3204 18.148L18.148 17.3204L21.1541 20.3265L20.3265 21.1541L17.3204 18.148ZM12.73 7.85913C12.7214 7.83218 12.7068 7.80837 12.6976 7.78169C12.6404 7.61224 12.5713 7.447 12.491 7.28719C12.4833 7.27196 12.479 7.25484 12.4711 7.23967L13.08 6.02192L12.0344 4.97634L10.8166 5.58521C10.8015 5.57736 10.7844 5.57303 10.7692 5.56535C10.6092 5.48497 10.4437 5.41588 10.2741 5.35858C10.2476 5.3496 10.2239 5.33489 10.1971 5.32641L9.76751 4.03741H8.28881L7.85913 5.3264C7.83238 5.33488 7.80868 5.34956 7.78218 5.35857C7.61253 5.41587 7.4471 5.48496 7.2871 5.56534C7.27187 5.57302 7.25475 5.57732 7.23964 5.5852L6.02189 4.97633L4.97634 6.02195L5.58521 7.2397C5.57736 7.25487 5.57309 7.27199 5.56535 7.28722C5.48503 7.44703 5.41599 7.61227 5.35873 7.78172C5.3496 7.8084 5.33492 7.83223 5.32638 7.85916L4.03741 8.28875V9.76751L5.32634 10.1972C5.33488 10.2241 5.34962 10.248 5.35869 10.2746C5.41604 10.4441 5.48513 10.6094 5.56546 10.7693C5.57314 10.7845 5.57735 10.8015 5.5852 10.8166L4.97633 12.0343L6.02194 13.0799L7.23969 12.4711C7.2548 12.479 7.27192 12.4833 7.28715 12.491C7.44715 12.5714 7.61258 12.6405 7.78223 12.6978C7.80873 12.7069 7.83237 12.7215 7.85918 12.7299L8.28881 14.0189H9.76751L10.1972 12.7299C10.224 12.7214 10.2476 12.7068 10.2741 12.6977C10.4438 12.6404 10.6092 12.5714 10.7692 12.491C10.7845 12.4833 10.8016 12.479 10.8167 12.4711L12.0344 13.0799L13.08 12.0343L12.4712 10.8166C12.479 10.8015 12.4832 10.7845 12.4909 10.7693C12.5712 10.6094 12.6403 10.4441 12.6977 10.2746C12.7067 10.248 12.7215 10.2241 12.73 10.1972L14.0189 9.76751V8.28875L12.73 7.85913ZM10.8262 9.59632C10.793 9.69924 10.7509 9.79908 10.7004 9.89471L10.5991 10.0894C10.463 10.2901 10.29 10.4631 10.0892 10.5992L9.89512 10.7002C9.79942 10.7507 9.69952 10.7929 9.59655 10.8261L9.40543 10.8865C9.1565 10.9372 8.89989 10.9372 8.65097 10.8865L8.45985 10.8261C8.35693 10.7929 8.25707 10.7508 8.16141 10.7003L7.96713 10.5992C7.76633 10.4632 7.59328 10.2901 7.45721 10.0893L7.3559 9.89469C7.30542 9.79906 7.26333 9.69922 7.23013 9.5963L7.16995 9.40549C7.11911 9.15653 7.11909 8.89986 7.16988 8.65089L7.23019 8.45983C7.26337 8.3569 7.30545 8.25706 7.35596 8.16144L7.45716 7.96713C7.59325 7.7663 7.76632 7.5932 7.96713 7.45707L8.16135 7.356C8.25702 7.30549 8.3569 7.26338 8.45986 7.23013L8.65086 7.16992C8.89982 7.11907 9.1565 7.11907 9.40546 7.16992L9.59646 7.23016C9.69938 7.26343 9.79924 7.30554 9.8949 7.35603L10.0892 7.45707C10.29 7.59318 10.4631 7.76624 10.5992 7.96705L10.7004 8.16145C10.7509 8.25707 10.793 8.35691 10.8261 8.45984L10.8864 8.6509C10.9372 8.89987 10.9372 9.15654 10.8864 9.4055L10.8262 9.59632Z" fill="currentColor"/>
</svg>
