<svg width="24" height="24" viewBox="0 0 24 24" fill="none" xmlns="http://www.w3.org/2000/svg">
<path fill-rule="evenodd" clip-rule="evenodd" d="M2 0V24H22V0H2ZM20 2V6H4V2H20ZM4 22V8H20V22H4ZM9 5H5V3H9V5ZM19 5H17V3H19V5ZM16 5H14V3H16V5ZM12 9C8.68629 9 6 11.6863 6 15C6 18.3137 8.68629 21 12 21C15.3137 21 18 18.3137 18 15C18 11.6863 15.3137 9 12 9ZM12 19C9.79086 19 8 17.2091 8 15C8 12.7909 9.79086 11 12 11C14.2091 11 16 12.7909 16 15C16 17.2091 14.2091 19 12 19ZM12 12V14C11.4477 14 11 14.4477 11 15H9C9 13.3431 10.3431 12 12 12Z" fill="currentColor"/>
</svg>
