<svg width="24" height="24" viewBox="0 0 24 24" fill="none" xmlns="http://www.w3.org/2000/svg">
<path fill-rule="evenodd" clip-rule="evenodd" d="M18 5H16V3H18V5ZM15 3H13V5H15V3ZM13 11H15V9H13V11ZM16 11H18V9H16V11ZM21 14H3V0H21V14ZM5 2V6H19V2H5ZM19 12V8H5V12H19ZM24 22H14.82C14.3894 23.1865 13.2622 23.9765 12 23.9765C10.7378 23.9765 9.61063 23.1865 9.18 22H0V20H9.18C9.48238 19.1507 10.1507 18.4824 11 18.18V15H13V18.18C13.8493 18.4824 14.5176 19.1507 14.82 20H24V22ZM13 21C13 20.4477 12.5523 20 12 20C11.4477 20 11 20.4477 11 21C11 21.5523 11.4477 22 12 22C12.5523 22 13 21.5523 13 21Z" fill="currentColor"/>
</svg>
