<svg width="24" height="24" viewBox="0 0 24 24" fill="none" xmlns="http://www.w3.org/2000/svg">
<path fill-rule="evenodd" clip-rule="evenodd" d="M17.7324 1H20C21.1046 1 22 1.89543 22 3V22C22 23.1046 21.1046 24 20 24H4C2.89543 24 2 23.1046 2 22V3C2 1.89543 2.89543 1 4 1H6.26756C6.61337 0.402199 7.25972 0 8 0H16C16.7403 0 17.3866 0.402199 17.7324 1ZM18 3C18 4.10457 17.1046 5 16 5H15C15 5.66667 14.6667 6 14 6H10C9.33333 6 9 5.66667 9 5H8C6.89543 5 6 4.10457 6 3H4V22H20V3H18ZM13 4V3H16V2H8V3H11V4H13ZM11 14.0858L14.7929 10.2929L16.2071 11.7071L11 16.9142L7.79289 13.7071L9.20711 12.2929L11 14.0858Z" fill="currentColor"/>
</svg>
