<svg width="24" height="24" viewBox="0 0 24 24" fill="none" xmlns="http://www.w3.org/2000/svg">
<path fill-rule="evenodd" clip-rule="evenodd" d="M2 0V24H22V0H2ZM8 2H9V4H8V2ZM11 2H12V4H11V2ZM14 2H15V4H14V2ZM20 22H4V2H6V6H17V2H20V22ZM5 7H7V9H5V7ZM17 7H19V9H17V7ZM17 19H19V21H17V19ZM5 19H7V21H5V19ZM13 18C13 18.5523 12.5523 19 12 19C11.4477 19 11 18.5523 11 18C11 17.4477 11.4477 17 12 17C12.5523 17 13 17.4477 13 18ZM15 12C14.985 13.0481 14.514 14.0375 13.71 14.71C13.22 15.2 13 15.44 13 16H11C11.015 14.9519 11.486 13.9625 12.29 13.29C12.78 12.8 13 12.56 13 12C13 11.4477 12.5523 11 12 11C11.4477 11 11 11.4477 11 12H9C9 10.3431 10.3431 9 12 9C13.6569 9 15 10.3431 15 12Z" fill="currentColor"/>
</svg>
