<svg width="24" height="24" viewBox="0 0 16 19" fill="none" xmlns="http://www.w3.org/2000/svg">
<path d="M8.09239 0C6.75838 0 5.74935 0.681724 5.148 1.6095L5.14727 1.61063C4.82885 2.10772 5.04988 2.79144 5.58818 3.03012L5.59185 3.03168C6.00466 3.2069 6.50147 3.07943 6.73933 2.67776C7.01213 2.23788 7.44356 1.88286 8.10448 1.88286C8.84354 1.88286 9.27457 2.23775 9.46313 2.68297C9.65508 3.13616 9.5964 3.68696 9.33902 4.06644C9.11517 4.39917 8.81647 4.68672 8.50567 4.98453C8.46756 5.02104 8.42927 5.05774 8.39126 5.0944C8.04421 5.42923 7.69431 5.78534 7.45399 6.23607C7.27741 6.56407 7.20255 6.91061 7.16563 7.23675C7.10017 7.83027 7.56639 8.35714 8.1589 8.35714C8.66703 8.35714 9.06291 7.95263 9.12181 7.4576C9.15665 7.18629 9.2076 7.05837 9.29305 6.8984L9.29401 6.89657C9.46686 6.56642 9.71148 6.31792 10.0096 6.01812L10.0437 5.9838C10.356 5.66935 10.7172 5.30034 11.0854 4.7358C11.425 4.2127 11.5282 3.60348 11.4942 3.03645C11.4602 2.46977 11.2884 1.93712 11.0692 1.56271C10.5565 0.691946 9.55045 0 8.09239 0Z" fill="currentColor"/>
<path d="M9.12175 10C9.12175 10.5523 8.67403 11 8.12174 11C7.56946 11 7.12174 10.5523 7.12174 10C7.12174 9.44771 7.56946 9 8.12174 9C8.67403 9 9.12175 9.44771 9.12175 10Z" fill="currentColor"/>
<path fill-rule="evenodd" clip-rule="evenodd" d="M8 19C9.30622 19 10.4175 18.1652 10.8293 17H15C15.5523 17 16 16.5523 16 16C16 15.4477 15.5523 15 15 15H10.8293C10.4175 13.8348 9.30622 13 8 13C6.69378 13 5.58254 13.8348 5.17071 15H1C0.447715 15 0 15.4477 0 16C0 16.5523 0.447715 17 1 17H5.17071C5.58254 18.1652 6.69378 19 8 19ZM8 15C7.44772 15 7 15.4477 7 16C7 16.5523 7.44772 17 8 17C8.55228 17 9 16.5523 9 16C9 15.4477 8.55228 15 8 15Z" fill="currentColor"/>
</svg>
