<svg width="24" height="24" viewBox="0 0 24 24" fill="none" xmlns="http://www.w3.org/2000/svg">
<path fill-rule="evenodd" clip-rule="evenodd" d="M9 10.9763V7.9763C8.99745 6.47545 10.1044 5.20365 11.5913 4.99918C13.0781 4.7947 14.4873 5.72047 14.89 7.1663C15.1945 8.23894 16.175 8.97838 17.29 8.9763C18.0747 8.96713 18.8118 8.59856 19.29 7.9763C19.7565 7.3793 19.9124 6.59644 19.71 5.8663C18.6435 2.01373 14.8969 -0.460304 10.9351 0.0718134C6.97317 0.603931 4.01215 3.97886 4 7.9763V10.9763H1V23.9763H23V10.9763H9ZM6 7.9763C6.00175 4.97003 8.22805 2.42912 11.208 2.03229C14.188 1.63547 17.0016 3.50525 17.79 6.4063C17.8219 6.53219 17.7922 6.66574 17.71 6.7663C17.5903 6.90529 17.4072 6.97252 17.226 6.94401C17.0448 6.91551 16.8912 6.79533 16.82 6.6263C16.1537 4.21037 13.8018 2.66092 11.319 3.00224C8.83621 3.34356 6.98965 5.47019 7 7.9763V10.9763H6V7.9763ZM21 12.9763V18.9763H3V12.9763H21ZM3 21.9763V20.9763H21V21.9763H3Z" fill="currentColor"/>
</svg>
