<svg width="24" height="24" viewBox="0 0 24 24" fill="none" xmlns="http://www.w3.org/2000/svg">
<path fill-rule="evenodd" clip-rule="evenodd" d="M11 0H3V5H1V19H3V24H11V19H13V5H11V0ZM5 2H9V5H5V2ZM9 22H5V19H9V22ZM11 17H3V7H11V17ZM19.5 12C19.5023 13.1937 19.027 14.3388 18.18 15.18L16.77 13.77C17.7438 12.7909 17.7438 11.2091 16.77 10.23L18.18 8.82C19.027 9.66122 19.5023 10.8063 19.5 12ZM23 12C23.0017 14.1224 22.1599 16.1584 20.66 17.66L19.24 16.24C21.5796 13.8975 21.5796 10.1025 19.24 7.76L20.66 6.34C22.1599 7.84158 23.0017 9.87763 23 12ZM16 12C16 12.5523 15.5523 13 15 13C14.4477 13 14 12.5523 14 12C14 11.4477 14.4477 11 15 11C15.5523 11 16 11.4477 16 12Z" fill="currentColor"/>
</svg>
