<svg width="24" height="25" viewBox="0 0 24 25" fill="none" xmlns="http://www.w3.org/2000/svg">
<path fill-rule="evenodd" clip-rule="evenodd" d="M18.608 8C18.237 6.149 17.625 4.544 16.839 3.265C18.732 4.317 20.273 5.968 21.165 8H18.608ZM13 2.228C14.537 2.904 15.895 5.084 16.56 8H13V2.228ZM2.845 16H5.392C5.759 17.833 6.372 19.45 7.17 20.743C5.256 19.682 3.73 18.016 2.845 16ZM2.201 10H5.101C5.04 10.65 5 11.315 5 12C5 12.685 5.04 13.35 5.101 14H2.205C2.074 13.354 2 12.686 2 12C2 11.315 2.069 10.646 2.201 10ZM7.18 3.24C6.378 4.535 5.761 6.158 5.392 8H2.835C3.721 5.977 5.258 4.301 7.18 3.24ZM11 8H7.437C8.091 5.101 9.42 2.882 11 2.211V8ZM7 12C7 11.317 7.037 10.648 7.105 10H11V14H7.105C7.037 13.352 7 12.683 7 12ZM7.437 16H11V21.789C9.42 21.118 8.091 18.899 7.437 16ZM23.545 8.727C22.087 3.589 17.339 0 12 0C5.382 0 0 5.383 0 12C0 18.617 5.382 24 12 24H13V10H23.907L23.545 8.727ZM22 18.604C22 20.348 19.84 21.489 18.997 21.867C18.148 21.49 16 20.359 16 18.604V14.942L19 13.206L22 14.942V18.604ZM19 10.896L14 13.788V18.604C14 22.11 18.181 23.718 18.658 23.89L18.994 24.011L19.33 23.893C19.52 23.826 24 22.214 24 18.604V13.788L19 10.896Z" fill="currentColor"/>
</svg>
