<svg width="24" height="24" viewBox="0 0 24 24" fill="none" xmlns="http://www.w3.org/2000/svg">
<path fill-rule="evenodd" clip-rule="evenodd" d="M9.22854 14.961C8.49741 14.2384 7.85305 13.4329 7.30854 12.561C6.74374 11.6795 6.28078 10.7368 5.92854 9.75099L7.58854 8.69099V1.20099L2.73854 0.350995C2.12684 0.242715 1.49754 0.390998 0.998541 0.760995C0.506807 1.13084 0.191519 1.68893 0.128541 2.30099C-0.213166 5.33803 0.128502 8.41304 1.12854 11.301C1.63108 12.7544 2.30233 14.1439 3.12854 15.441C3.9306 16.6848 4.88091 17.8265 5.95854 18.841C8.09732 20.8657 10.7107 22.3202 13.5585 23.071C13.7377 23.1197 13.9228 23.1433 14.1085 23.141C14.5336 23.1406 14.9499 23.0192 15.3085 22.791C15.8321 22.4479 16.1932 21.9062 16.3085 21.291L17.1585 16.451L10.7585 13.691L9.22854 14.961ZM14.9985 17.701L14.4185 20.981C14.4006 21.0478 14.3621 21.1073 14.3085 21.151C14.254 21.1727 14.1931 21.1727 14.1385 21.151C11.6147 20.4889 9.29948 19.1989 7.40854 17.401C6.4515 16.5027 5.60244 15.4959 4.87854 14.401C4.10972 13.2346 3.47883 11.9829 2.99854 10.671C2.08374 8.05442 1.76598 5.26631 2.06854 2.51099C2.08106 2.45239 2.11273 2.39962 2.15854 2.36099C2.20745 2.34626 2.25963 2.34626 2.30854 2.36099L5.50854 2.92099V7.59099L3.50854 8.891L3.73854 9.62099C4.16316 11.0333 4.78245 12.3796 5.57854 13.621C6.3734 14.8844 7.34681 16.0262 8.46854 17.011L9.07854 17.551L11.0785 16.021L14.9985 17.701ZM22.2385 3.18099C20.7365 0.360386 17.2874 -0.788062 14.3943 0.569145C11.5013 1.92635 10.1796 5.3129 11.3885 8.271L10.3285 10.851L13.6385 11.111C15.9464 12.6937 19.0419 12.4708 21.0992 10.5737C23.1565 8.67671 23.6292 5.6094 22.2385 3.18099ZM17.6185 10.001C17.6185 10.0728 17.5603 10.131 17.4885 10.131H16.5485C16.5141 10.131 16.481 10.1173 16.4566 10.0929C16.4322 10.0685 16.4185 10.0355 16.4185 10.001V9.13099C16.4185 9.09652 16.4322 9.06345 16.4566 9.03907C16.481 9.01469 16.5141 9.00099 16.5485 9.00099H17.4885C17.5603 9.00099 17.6185 9.0592 17.6185 9.13099V10.001ZM17.6185 7.30099V7.98099C17.6185 8.04727 17.5648 8.10099 17.4985 8.10099H16.6385C16.605 8.1038 16.5719 8.0924 16.5471 8.06959C16.5224 8.04677 16.5084 8.01463 16.5085 7.98099V6.38099C16.5085 6.3092 16.5667 6.25099 16.6385 6.25099H16.9985C17.819 6.25425 18.4919 5.60183 18.514 4.7817C18.5361 3.96157 17.8993 3.27384 17.0799 3.23289C16.2605 3.19194 15.5583 3.81275 15.4985 4.63099C15.4892 4.69678 15.4349 4.74691 15.3685 4.75099H14.5085C14.474 4.74844 14.4419 4.73223 14.4194 4.70595C14.3969 4.67967 14.3858 4.6455 14.3885 4.61099C14.4607 3.26144 15.5512 2.19021 16.9018 2.14207C18.2525 2.09392 19.4164 3.08477 19.5845 4.42577C19.7526 5.76676 18.8693 7.01427 17.5485 7.30099H17.6185Z" fill="currentColor"/>
</svg>
