<svg width="24" height="24" viewBox="0 0 24 24" fill="none" xmlns="http://www.w3.org/2000/svg">
<path fill-rule="evenodd" clip-rule="evenodd" d="M4.08457 6.05C4.47522 5.21335 4.47522 4.24665 4.08457 3.41L3.52457 2.23L4.70457 2.79C5.54122 3.18065 6.50793 3.18065 7.34457 2.79L8.52457 2.23L7.96457 3.41C7.57392 4.24665 7.57392 5.21335 7.96457 6.05L8.52457 7.23L7.34457 6.67C6.50793 6.27935 5.54122 6.27935 4.70457 6.67L3.52457 7.23L4.08457 6.05ZM19.4046 15.73L19.0246 14.73L18.6446 15.73C18.3851 16.4692 17.8038 17.0505 17.0646 17.31L16.0646 17.69L17.0646 18.07C17.8038 18.3295 18.3851 18.9108 18.6446 19.65L19.0246 20.65L19.4046 19.65C19.664 18.9108 20.2453 18.3295 20.9846 18.07L21.9846 17.69L20.9846 17.31C20.2453 17.0505 19.664 16.4692 19.4046 15.73ZM15.6946 12.05L6.02457 22.61C5.38769 23.3093 4.4903 23.7146 3.54457 23.73H3.46457C2.54724 23.7367 1.66523 23.3767 1.01457 22.73C0.347897 22.0624 -0.0181715 21.152 0.000694747 20.2087C0.019561 19.2654 0.421735 18.3704 1.11457 17.73L11.6346 8.09L9.99457 7.67L14.2246 5L13.9046 0L17.7546 3.19L22.4046 1.34L20.5546 5.99L23.7446 9.84L18.7446 9.52L16.1146 13.73L15.6946 12.05ZM17.8646 6.73C18.0907 6.48791 18.0907 6.11209 17.8646 5.87C17.6225 5.64391 17.2467 5.64391 17.0046 5.87L2.52457 19.15C2.22903 19.4206 2.05583 19.7995 2.04457 20.2C2.03011 20.6014 2.18635 20.9902 2.47457 21.27L1.77457 21.99L2.48457 21.28C2.75817 21.5773 3.15132 21.7353 3.55457 21.71C3.93753 21.6857 4.29607 21.5136 4.55457 21.23L17.8646 6.73Z" fill="currentColor"/>
</svg>
