<svg width="40" height="40" viewBox="0 0 40 40" fill="none" xmlns="http://www.w3.org/2000/svg">
<path fill-rule="evenodd" clip-rule="evenodd" d="M17.3 14C17.7315 14 18.1144 14.2768 18.2496 14.6866L21.5496 24.6866C21.7227 25.2111 21.4378 25.7766 20.9134 25.9496C20.3889 26.1227 19.8234 25.8378 19.6504 25.3134L18.887 23H15.713L14.9496 25.3134C14.7766 25.8378 14.2111 26.1227 13.6866 25.9496C13.1622 25.7766 12.8773 25.2111 13.0504 24.6866L16.3504 14.6866C16.4856 14.2768 16.8685 14 17.3 14ZM16.373 21H18.227L17.3 18.191L16.373 21Z" fill="black"/>
<path d="M25 14C25.5523 14 26 14.4477 26 15V25C26 25.5523 25.5523 26 25 26C24.4477 26 24 25.5523 24 25V15C24 14.4477 24.4477 14 25 14Z" fill="black"/>
<path fill-rule="evenodd" clip-rule="evenodd" d="M16 2C16.5523 2 17 2.44772 17 3V6H23V3C23 2.44772 23.4477 2 24 2C24.5523 2 25 2.44772 25 3V6H29C31.7614 6 34 8.23858 34 11V15H37C37.5523 15 38 15.4477 38 16C38 16.5523 37.5523 17 37 17H34V23H37C37.5523 23 38 23.4477 38 24C38 24.5523 37.5523 25 37 25H34V29C34 31.7614 31.7614 34 29 34H25V37C25 37.5523 24.5523 38 24 38C23.4477 38 23 37.5523 23 37V34H17V37C17 37.5523 16.5523 38 16 38C15.4477 38 15 37.5523 15 37V34H11C8.23858 34 6 31.7614 6 29V25H3C2.44772 25 2 24.5523 2 24C2 23.4477 2.44772 23 3 23H6V17H3C2.44772 17 2 16.5523 2 16C2 15.4477 2.44772 15 3 15H6V11C6 8.23858 8.23858 6 11 6H15V3C15 2.44772 15.4477 2 16 2ZM8 29C8 30.6569 9.34315 32 11 32H29C30.6569 32 32 30.6569 32 29V11C32 9.34315 30.6569 8 29 8H11C9.34315 8 8 9.34315 8 11V29Z" fill="black"/>
</svg>
