<svg xmlns="http://www.w3.org/2000/svg" width="40" height="40" fill="none" viewBox="0 0 40 40"><path fill="#000" fill-rule="evenodd" d="M19.9998 5c-6.6275 0-12 5.3726-12 12 0 3.3082 1.3386 6.3037 3.5039 8.4744l-3.7053 4.658C6.235 32.098 7.6346 35 10.1462 35h19.7071c2.5116 0 3.9113-2.902 2.3478-4.8676l-3.7052-4.658c2.1652-2.1707 3.5039-5.1662 3.5039-8.4744 0-6.6274-5.3726-12-12-12m-10 12c0-5.5228 4.4771-10 10-10s10 4.4772 10 10-4.4772 10-10 10-10-4.4772-10-10m4 0c0-3.3137 2.6862-6 6-6 3.3137 0 6 2.6863 6 6s-2.6863 6-6 6c-3.3138 0-6-2.6863-6-6m6-4c-2.2092 0-4 1.7909-4 4s1.7908 4 4 4c2.2091 0 4-1.7909 4-4s-1.7909-4-4-4M9.3636 31.3775l3.6658-4.6084C14.9942 28.1736 17.4005 29 19.9998 29s5.0055-.8264 6.9703-2.2309l3.6658 4.6084c.5211.6552.0546 1.6225-.7826 1.6225H10.1462c-.8372 0-1.3038-.9673-.7826-1.6225"/></svg>