<svg xmlns="http://www.w3.org/2000/svg" width="40" height="40" fill="none" viewBox="0 0 40 40"><path fill="#000" fill-rule="evenodd" d="M20 38c9.9411 0 18-8.0589 18-18S29.9411 2 20 2 2 10.0589 2 20s8.0589 18 18 18m-4.6958-21.2814c-.3905-.3905-.3905-1.0237 0-1.4142.3906-.3906 1.0237-.3906 1.4143 0l3.2837 3.2837 3.2838-3.2837c.3905-.3906 1.0237-.3906 1.4142 0s.3905 1.0237 0 1.4142l-3.2838 3.2838 3.2838 3.2837c.3905.3905.3905 1.0237 0 1.4142s-1.0237.3905-1.4143 0l-3.2837-3.2837-3.2837 3.2837c-.3905.3905-1.0237.3905-1.4142 0s-.3905-1.0237 0-1.4142l3.2837-3.2837z"/></svg>