<svg xmlns="http://www.w3.org/2000/svg" width="40" height="40" fill="none" viewBox="0 0 40 40"><path fill="#000" fill-rule="evenodd" d="M21 6c0-.5523-.4477-1-1-1s-1 .4477-1 1v2H9c-3.3137 0-6 2.6863-6 6v11.5C3 29.0899 5.9101 32 9.5 32h.5c2.973 0 5.441-2.1623 5.917-5h8.166c.476 2.8377 2.944 5 5.917 5h.5c3.5899 0 6.5-2.9101 6.5-6.5V14c0-3.3137-2.6863-6-6-6H21zm14 8c0-2.2091-1.7909-4-4-4H9c-2.2091 0-4 1.7909-4 4v11.5C5 27.9853 7.0147 30 9.5 30h.5c2.2091 0 4-1.7909 4-4 0-.5523.4477-1 1-1h10c.5523 0 1 .4477 1 1 0 2.2091 1.7909 4 4 4h.5c2.4853 0 4.5-2.0147 4.5-4.5zm-22 0c0-.5523-.4477-1-1-1s-1 .4477-1 1v2H9c-.5523 0-1 .4477-1 1s.4477 1 1 1h2v2c0 .5523.4477 1 1 1s1-.4477 1-1v-2h2c.5523 0 1-.4477 1-1s-.4477-1-1-1h-2zm15.5 2c.8284 0 1.5-.6716 1.5-1.5s-.6716-1.5-1.5-1.5-1.5.6716-1.5 1.5.6716 1.5 1.5 1.5m-3 3c.8284 0 1.5-.6716 1.5-1.5s-.6716-1.5-1.5-1.5-1.5.6716-1.5 1.5.6716 1.5 1.5 1.5m6 0c.8284 0 1.5-.6716 1.5-1.5s-.6716-1.5-1.5-1.5-1.5.6716-1.5 1.5.6716 1.5 1.5 1.5m-3 3c.8284 0 1.5-.6716 1.5-1.5s-.6716-1.5-1.5-1.5-1.5.6716-1.5 1.5.6716 1.5 1.5 1.5"/></svg>