<svg xmlns="http://www.w3.org/2000/svg" width="40" height="40" fill="none" viewBox="0 0 40 40"><path fill="#000" fill-rule="evenodd" d="M3 11c0-4.4183 3.5817-8 8-8s8 3.5817 8 8-3.5817 8-8 8-8-3.5817-8-8m8-6c-3.3137 0-6 2.6863-6 6s2.6863 6 6 6 6-2.6863 6-6-2.6863-6-6-6m19 0H19.0007a10 10 0 0 1 1.1672 2H30c1.1046 0 2 .8954 2 2v3c0 1.1046-.8954 2-2 2h-9.4578a9.95 9.95 0 0 1-.88 2H30c1.1046 0 2 .8954 2 2v3c0 1.1046-.8954 2-2 2H10c-1.1046 0-2-.8954-2-2v-.4578a9.95 9.95 0 0 1-2-.88V21c0 2.2091 1.7909 4 4 4h9v4.126c-1.4056.3618-2.5122 1.4684-2.874 2.874H6c-.5523 0-1 .4477-1 1s.4477 1 1 1h10.126c.4441 1.7252 2.0102 3 3.874 3s3.4299-1.2748 3.874-3H34c.5523 0 1-.4477 1-1s-.4477-1-1-1H23.874c-.3618-1.4056-1.4684-2.5122-2.874-2.874V25h9c2.2091 0 4-1.7909 4-4v-3c0-1.1947-.5238-2.2671-1.3542-3C33.4762 14.2671 34 13.1947 34 12V9c0-2.2091-1.7909-4-4-4m-16 7.732-3 1.7321c-1.3333.7698-3-.1925-3-1.7321V9.268c0-1.5397 1.6667-2.5019 3-1.7321l3 1.732c1.3333.7699 1.3333 2.6944 0 3.4641M13 11l-3-1.732v3.464zm7 20c1.1046 0 2 .8954 2 2s-.8954 2-2 2-2-.8954-2-2 .8954-2 2-2"/></svg>