<svg xmlns="http://www.w3.org/2000/svg" width="40" height="40" fill="none" viewBox="0 0 40 40"><path fill="#000" fill-rule="evenodd" d="M4 9.6154V7q0-.6213.2197-1.1517t.6592-.9696q.4388-.4394.9692-.659Q6.3787 4 7 4h2.6152c.5601 0 1 .44 1 1s-.4399 1-1 1H7q-.2073 0-.3838.0732-.177.0732-.3232.2197-.1466.1464-.2198.3232T6 7v2.6154c0 .56-.44 1-1 1s-1-.44-1-1M33 4h-2.6152c-.5601 0-1 .44-1 1s.4399 1 1 1H33q.2073 0 .3838.0732c.1182.0488.2256.122.3232.2197q.1465.1464.2198.3232Q34 6.793 34 7v2.6154c0 .56.4399 1 1 1s1-.44 1-1V7q0-.6213-.2197-1.1517t-.6592-.9696q-.4388-.4394-.9692-.659Q33.621 4 33 4M17.1519 8.2197Q16.6213 8 16 8h-5q-.6213 0-1.1519.2197-.5304.2195-.9692.659-.4395.4393-.6592.9696T8 11v5q0 .6213.2197 1.1517.2197.5302.6592.9696.4389.4394.9692.659Q10.379 19 11 19h5q.621 0 1.1519-.2197.5303-.2196.9692-.659.4395-.4394.6592-.9696v-.0001Q19 16.6213 19 16v-5q0-.6213-.2197-1.1516t-.6592-.9697q-.4388-.4394-.9692-.659m13 0Q29.6213 8 29 8h-5q-.6213 0-1.1519.2197-.5304.2195-.9692.659-.4395.4393-.6592.9696T21 11v5q0 .6213.2197 1.1517.2197.5302.6592.9696.4388.4394.9692.659Q23.379 19 24 19h5q.6212 0 1.1514-.2196l.0005-.0001q.5304-.2197.9692-.659.4395-.4393.6592-.9697T32 16v-5q0-.6213-.2197-1.1516v-.0001q-.2197-.5304-.6592-.9696-.4388-.4394-.9692-.659M11 10h5q.2073 0 .3838.0732c.1182.0489.2256.1221.3232.2197q.1465.1464.2198.3232Q17 10.7929 17 11v5q0 .2071-.0732.3839-.0733.1768-.2198.3232c-.0976.0976-.205.1708-.3232.2197Q16.2073 17 16 17h-5q-.2073 0-.3838-.0732c-.1182-.0488-.2256-.1221-.3232-.2197q-.1465-.1464-.2198-.3232Q10 16.2071 10 16v-5q0-.2071.0732-.3839.0733-.1768.2198-.3232c.0976-.0976.205-.1709.3232-.2197Q10.7927 10 11 10m13 0h5q.2073 0 .3838.0732l.0005.0001q.1764.0733.3227.2196.1465.1464.2198.3232Q30 10.7929 30 11v5q0 .2071-.0732.3839v.0001q-.0733.1767-.2198.3231-.1463.1463-.3227.2196l-.0005.0001Q29.2073 17 29 17h-5q-.2073 0-.3838-.0732l-.0005-.0001q-.1764-.0733-.3227-.2196-.1465-.1464-.2198-.3231v-.0001Q23 16.2071 23 16v-5q0-.2071.0732-.3839v-.0001q.0733-.1767.2198-.3231.1463-.1463.3227-.2196l.0005-.0001Q23.7927 10 24 10m-9.5 2c.2764 0 .5.2239.5.5v2c0 .2761-.2236.5-.5.5h-2a.5.5 0 0 1-.5-.5v-2c0-.2761.2236-.5.5-.5zm2.6519 9.2197Q16.6213 21 16 21h-5q-.6212 0-1.1514.2196l-.0005.0001q-.5304.2196-.9692.659-.4395.4394-.6592.9696Q8 23.3787 8 24v5q0 .6213.2197 1.1517.2197.5302.6592.9696.4389.4394.9692.659Q10.379 32 11 32h5q.6212 0 1.1514-.2196l.0005-.0001q.5303-.2196.9692-.659.4395-.4392.6592-.9695v-.0003Q19 29.6213 19 29v-5q0-.6213-.2197-1.1516t-.6592-.9697q-.4388-.4394-.9692-.659M24 21c.5522 0 1 .4477 1 1v2c0 .5523-.4478 1-1 1h-2c-.5522 0-1-.4477-1-1v-2c0-.5523.4478-1 1-1zm7 0c.5522 0 1 .4477 1 1v2c0 .5523-.4478 1-1 1h-2c-.5522 0-1-.4477-1-1v-2c0-.5523.4478-1 1-1zm-20 2h5q.2073 0 .3838.0732v.0001c.1182.0488.2256.122.3232.2196q.1465.1463.2198.3229v.0004Q17 23.7929 17 24v5q0 .207-.0732.3838v.0004q-.0733.1766-.2198.3229c-.0976.0976-.205.1708-.3232.2196v.0001Q16.2073 30 16 30h-5q-.2073 0-.3838-.0732c-.1182-.0488-.2256-.1221-.3232-.2197q-.1465-.1463-.2198-.3229v-.0004Q10 29.2071 10 29v-5q0-.207.0732-.3838v-.0004q.0733-.1766.2198-.3229c.0976-.0976.205-.1708.3232-.2196v-.0001Q10.7927 23 11 23m16.5 1.5c.5522 0 1 .4477 1 1v2c0 .5523-.4478 1-1 1h-2c-.5522 0-1-.4477-1-1v-2c0-.5523.4478-1 1-1zM24 28c.5522 0 1 .4477 1 1v2c0 .5523-.4478 1-1 1h-2c-.5522 0-1-.4477-1-1v-2c0-.5523.4478-1 1-1zm7 0c.5522 0 1 .4477 1 1v2c0 .5523-.4478 1-1 1h-2c-.5522 0-1-.4477-1-1v-2c0-.5523.4478-1 1-1zM4 30.3846c0-.56.44-1 1-1s1 .44 1 1V33q0 .2071.0732.3839.0733.1767.2198.3232c.0976.0976.205.1709.3232.2197Q6.7927 34 7 34h2.6152c.5601 0 1 .44 1 1s-.4399 1-1 1H7c-.414 0-.7983-.0732-1.1519-.2197q-.5304-.2196-.9692-.659-.4395-.4394-.6592-.9696Q4 33.6213 4 33zM36 33v-2.6154c0-.56-.4399-1-1-1s-1 .44-1 1V33q0 .2071-.0732.3839-.0733.1767-.2198.3232c-.0976.0976-.205.1709-.3232.2197Q33.2073 34 33 34h-2.6152c-.5601 0-1 .44-1 1s.4399 1 1 1H33q.621 0 1.1519-.2197.5303-.2196.9692-.659.4395-.4394.6592-.9696Q36 33.6213 36 33"/></svg>