<svg xmlns="http://www.w3.org/2000/svg" width="40" height="40" fill="none" viewBox="0 0 40 40"><path fill="#000" fill-rule="evenodd" d="M21.853 7.2139q1.0284-1.0284 2.2671-1.4786a5.7 5.7 0 0 1 .5615-.1717q6.221-1.5562 8.4262.6487 2.2048 2.205.6485 8.426a5.7 5.7 0 0 1-.1714.5616c-.3003.8257-.793 1.5814-1.479 2.267l-5.2353 5.2357.9516 4.1252q.0871.3779.0777.7534a3 3 0 0 1-.1167.7482 2.98 2.98 0 0 1-.2979.6964 2.98 2.98 0 0 1-.4648.5979l-4.5196 4.5194c-.0976.0977-.205.1709-.3232.2197q-.1765.0732-.3838.0732t-.3838-.0732q-.1767-.0732-.3232-.2197l-7.2481-7.2479-1.0605 1.0607c-.396.396-1.0181.396-1.4141 0s-.396-1.0183 0-1.4142l1.0606-1.0607-7.2475-7.2478q-.1466-.1464-.2198-.3232t-.0732-.3839.0732-.3838.2198-.3233l4.519-4.5194a3 3 0 0 1 .5981-.4649 3 3 0 0 1 .6963-.2976 3 3 0 0 1 .7485-.1168q.375-.0098.753.0774l4.125.9519zm-6.5996 18.267 2.2978 2.2982q.1467.1464.3233.2196c.1177.0488.2461.0733.3838.0733q.2072 0 .3842-.0733c.1177-.0488.2256-.122.3228-.2196l6.0376-6.0373a.94.94 0 0 1 .1162-.1161l5.5727-5.573q.8283-.8282 1.1006-1.8105l.0005-.0009c.0083-.0293.0156-.0588.0234-.0883.3472-1.3893.5352-2.6232.563-3.7019q.0537-2.085-.686-2.8246t-2.8247-.6858q-1.6179.0418-3.7017.5631a4 4 0 0 0-.0893.0235q-.9822.2727-1.8106 1.1008l-5.5712 5.5713a.95.95 0 0 1-.1192.1194l-6.0356 6.0356q-.1465.1465-.2197.3233t-.0733.3839.0733.3838q.0732.1768.2197.3233l2.2978 2.298 2.8287-2.8283c.3959-.396 1.018-.396 1.414 0 .396.3959.396 1.0182 0 1.4142zm-5.1265-6.5407c-.252.2516-.4492.5255-.5927.8217l-2.2359-2.2358 3.8125-3.8123q.1958-.196.4287-.2628c.1553-.0446.3233-.046.503-.0045l2.9072.6708zm15.7466 8.3373-.6709-2.9072-4.8228 4.823q-.3771.3772-.8217.5926l2.2358 2.2359 3.8125-3.8123c.1304-.1307.2183-.2737.2627-.429q.0666-.233.0044-.503M8.3589 27.072l-1.7676 1.7678c-.396.3959-1.0186.3959-1.4145 0-.396-.396-.396-1.0183 0-1.4142l1.768-1.7678c.396-.396 1.018-.396 1.414 0s.396 1.0182 0 1.4142m5.3032 5.3033-2.6514 2.6517c-.396.3959-1.0185.3959-1.4145 0-.396-.396-.396-1.0183 0-1.4143l2.6518-2.6516c.396-.396 1.0181-.396 1.4141 0s.396 1.0182 0 1.4142"/></svg>