<svg width="40" height="40" viewBox="0 0 40 40" fill="none" xmlns="http://www.w3.org/2000/svg">
<path d="M21.711 9.04089C21.8386 8.9171 23.8779 7 27.2353 7C30.5486 7 32.5783 8.86685 32.7547 9.03615C33.1532 9.41853 33.7862 9.40546 34.1686 9.00695C34.551 8.60845 34.5379 7.97542 34.1394 7.59304C33.8107 7.27762 31.3053 5 27.2353 5C23.1121 5 20.5946 7.33745 20.3183 7.60555C19.9219 7.99016 19.9124 8.62325 20.297 9.01961C20.6816 9.41596 21.3147 9.42549 21.711 9.04089Z" fill="black"/>
<path d="M24.7381 12.0413C24.3679 12.4464 23.7396 12.4776 23.331 12.1098C22.9317 11.7505 22.8894 11.1425 23.2273 10.7318C23.2659 10.6848 23.3094 10.6408 23.353 10.5976C23.4053 10.5458 23.4778 10.4771 23.57 10.3973C23.7538 10.238 24.019 10.0316 24.3601 9.82636C25.042 9.41624 26.0473 9 27.3141 9C28.5809 9 29.5862 9.41624 30.2681 9.82636C30.6092 10.0316 30.8744 10.238 31.0582 10.3973C31.1395 10.4677 31.3954 10.7249 31.4069 10.7392C31.7383 11.1498 31.6941 11.7526 31.2972 12.1098C30.8886 12.4776 30.2603 12.4464 29.8901 12.0413L29.8892 12.0404C29.8803 12.0309 29.8321 11.9812 29.7486 11.9089C29.6367 11.8119 29.4641 11.6767 29.2372 11.5402C28.783 11.2671 28.1312 11 27.3141 11C26.497 11 25.8452 11.2671 25.391 11.5402C25.1641 11.6767 24.9915 11.8119 24.8795 11.9089C24.8349 11.9476 24.7682 12.0083 24.7381 12.0413Z" fill="black"/>
<path d="M11.5 31C12.3284 31 13 30.3284 13 29.5C13 28.6716 12.3284 28 11.5 28C10.6716 28 10 28.6716 10 29.5C10 30.3284 10.6716 31 11.5 31Z" fill="black"/>
<path d="M18 29.5C18 30.3284 17.3284 31 16.5 31C15.6716 31 15 30.3284 15 29.5C15 28.6716 15.6716 28 16.5 28C17.3284 28 18 28.6716 18 29.5Z" fill="black"/>
<path d="M21.5 31C22.3284 31 23 30.3284 23 29.5C23 28.6716 22.3284 28 21.5 28C20.6716 28 20 28.6716 20 29.5C20 30.3284 20.6716 31 21.5 31Z" fill="black"/>
<path fill-rule="evenodd" clip-rule="evenodd" d="M27 14C27.5523 14 28 14.4477 28 15V24H31C33.2091 24 35 25.7909 35 28V31C35 33.2091 33.2091 35 31 35H9C6.79086 35 5 33.2091 5 31V28C5 25.7909 6.79086 24 9 24H26V15C26 14.4477 26.4477 14 27 14ZM9 26C7.89543 26 7 26.8954 7 28V31C7 32.1046 7.89543 33 9 33H31C32.1046 33 33 32.1046 33 31V28C33 26.8954 32.1046 26 31 26H9Z" fill="black"/>
</svg>
