<svg xmlns="http://www.w3.org/2000/svg" width="40" height="40" fill="none" viewBox="0 0 40 40"><path fill="#000" fill-rule="evenodd" d="M21.711 9.0409C21.8386 8.917 23.8779 7 27.2353 7c3.3133 0 5.343 1.8668 5.5194 2.0361.3985.3824 1.0315.3694 1.4139-.0291s.3693-1.0316-.0292-1.414C33.8107 7.2776 31.3053 5 27.2353 5c-4.1232 0-6.6407 2.3374-6.917 2.6056-.3964.3846-.4059 1.0177-.0213 1.414.3846.3964 1.0177.4059 1.414.0213m1.62 3.0689c.4086.3678 1.0369.3366 1.4071-.0685.0301-.033.0968-.0937.1414-.1324.112-.097.2846-.2322.5115-.3687.4542-.2731 1.106-.5402 1.9231-.5402s1.4689.2671 1.9231.5402c.2269.1365.3995.2717.5114.3687.0835.0723.1317.122.1406.1315l.0009.0009c.3702.4051.9985.4363 1.4071.0685.3969-.3572.4411-.96.1097-1.3706-.0115-.0143-.2674-.2715-.3487-.3419a5.7 5.7 0 0 0-.7901-.571C29.5862 9.4164 28.5809 9 27.3141 9s-2.2721.4162-2.954.8264a5.7 5.7 0 0 0-.7901.5709 4.4 4.4 0 0 0-.217.2003 1.8 1.8 0 0 0-.1257.1342c-.3379.4107-.2956 1.0187.1037 1.378M28 15c0-.5523-.4477-1-1-1s-1 .4477-1 1v9H9c-2.2091 0-4 1.7909-4 4v3c0 2.2091 1.7909 4 4 4h22c2.2091 0 4-1.7909 4-4v-3c0-2.2091-1.7909-4-4-4h-3zM7 28c0-1.1046.8954-2 2-2h22c1.1046 0 2 .8954 2 2v3c0 1.1046-.8954 2-2 2H9c-1.1046 0-2-.8954-2-2zm4.5 3c.8284 0 1.5-.6716 1.5-1.5s-.6716-1.5-1.5-1.5-1.5.6716-1.5 1.5.6716 1.5 1.5 1.5m5 0c.8284 0 1.5-.6716 1.5-1.5s-.6716-1.5-1.5-1.5-1.5.6716-1.5 1.5.6716 1.5 1.5 1.5m5 0c.8284 0 1.5-.6716 1.5-1.5s-.6716-1.5-1.5-1.5-1.5.6716-1.5 1.5.6716 1.5 1.5 1.5"/></svg>