<svg width="40" height="40" viewBox="0 0 40 40" fill="none" xmlns="http://www.w3.org/2000/svg">
<path d="M20 11C20.5523 11 21 11.4477 21 12V23C21 23.5523 20.5523 24 20 24C19.4477 24 19 23.5523 19 23V12C19 11.4477 19.4477 11 20 11Z" fill="black"/>
<path d="M20 28.2483C20.6895 28.2483 21.2484 27.6894 21.2484 26.9999C21.2484 26.3104 20.6895 25.7515 20 25.7515C19.3105 25.7515 18.7516 26.3104 18.7516 26.9999C18.7516 27.6894 19.3105 28.2483 20 28.2483Z" fill="black"/>
<path fill-rule="evenodd" clip-rule="evenodd" d="M5 11C5 7.68629 7.68629 5 11 5H29C32.3137 5 35 7.68629 35 11V29C35 32.3137 32.3137 35 29 35H11C7.68629 35 5 32.3137 5 29V11ZM11 7C8.79086 7 7 8.79086 7 11V29C7 31.2091 8.79086 33 11 33H29C31.2091 33 33 31.2091 33 29V11C33 8.79086 31.2091 7 29 7H11Z" fill="black"/>
</svg>
