<svg xmlns="http://www.w3.org/2000/svg" width="40" height="40" fill="none" viewBox="0 0 40 40"><path fill="#000" fill-rule="evenodd" d="M11 5c-3.3137 0-6 2.6863-6 6v18c0 3.3137 2.6863 6 6 6h18c3.3137 0 6-2.6863 6-6V11c0-3.3137-2.6863-6-6-6zm-4 6c0-2.2091 1.7909-4 4-4h18c2.2091 0 4 1.7909 4 4v18c0 2.2091-1.7909 4-4 4H11c-2.2091 0-4-1.7909-4-4zm13 0c.5523 0 1 .4477 1 1v11c0 .5523-.4477 1-1 1s-1-.4477-1-1V12c0-.5523.4477-1 1-1m0 17.2483c.6895 0 1.2484-.5589 1.2484-1.2484S20.6895 25.7515 20 25.7515s-1.2484.5589-1.2484 1.2484.5589 1.2484 1.2484 1.2484"/></svg>