<svg xmlns="http://www.w3.org/2000/svg" width="40" height="40" fill="none" viewBox="0 0 40 40"><path fill="#000" fill-rule="evenodd" d="M6 9c0-2.2091 1.7909-4 4-4h20c2.2091 0 4 1.7909 4 4v3c0 1.1947-.5238 2.2671-1.3542 3C33.4762 15.7329 34 16.8053 34 18v3c0 2.2091-1.7909 4-4 4h-9v4.126c1.4056.3618 2.5122 1.4684 2.874 2.874H34c.5523 0 1 .4477 1 1s-.4477 1-1 1H23.874c-.4441 1.7252-2.0102 3-3.874 3s-3.4299-1.2748-3.874-3H6c-.5523 0-1-.4477-1-1s.4477-1 1-1h10.126c.3618-1.4056 1.4684-2.5122 2.874-2.874V25h-9c-2.2091 0-4-1.7909-4-4v-3c0-1.1947.5238-2.2671 1.3542-3C6.5238 14.2671 6 13.1947 6 12zm4-2c-1.1046 0-2 .8954-2 2v3c0 1.1046.8954 2 2 2h20c1.1046 0 2-.8954 2-2V9c0-1.1046-.8954-2-2-2zm4 3.5c0 .8284-.6716 1.5-1.5 1.5s-1.5-.6716-1.5-1.5.6716-1.5 1.5-1.5 1.5.6716 1.5 1.5M32 21c0 1.1046-.8954 2-2 2H10c-1.1046 0-2-.8954-2-2v-3c0-1.1046.8954-2 2-2h20c1.1046 0 2 .8954 2 2zm-19.5 0c.8284 0 1.5-.6716 1.5-1.5s-.6716-1.5-1.5-1.5-1.5.6716-1.5 1.5.6716 1.5 1.5 1.5M20 31c1.1046 0 2 .8954 2 2s-.8954 2-2 2-2-.8954-2-2 .8954-2 2-2"/></svg>