<svg width="40" height="40" viewBox="0 0 40 40" fill="none" xmlns="http://www.w3.org/2000/svg">
<path d="M12.5 21C13.3284 21 14 20.3284 14 19.5C14 18.6716 13.3284 18 12.5 18C11.6716 18 11 18.6716 11 19.5C11 20.3284 11.6716 21 12.5 21Z" fill="black"/>
<path d="M14 10.5C14 11.3284 13.3284 12 12.5 12C11.6716 12 11 11.3284 11 10.5C11 9.67157 11.6716 9 12.5 9C13.3284 9 14 9.67157 14 10.5Z" fill="black"/>
<path fill-rule="evenodd" clip-rule="evenodd" d="M10 5C7.79086 5 6 6.79086 6 9V12C6 13.1947 6.52376 14.2671 7.35418 15C6.52376 15.7329 6 16.8053 6 18V21C6 23.2091 7.79086 25 10 25H19V29.126C17.5944 29.4878 16.4878 30.5944 16.126 32H6C5.44772 32 5 32.4477 5 33C5 33.5523 5.44772 34 6 34H16.126C16.5701 35.7252 18.1362 37 20 37C21.8638 37 23.4299 35.7252 23.874 34H34C34.5523 34 35 33.5523 35 33C35 32.4477 34.5523 32 34 32H23.874C23.5122 30.5944 22.4056 29.4878 21 29.126V25H30C32.2091 25 34 23.2091 34 21V18C34 16.8053 33.4762 15.7329 32.6458 15C33.4762 14.2671 34 13.1947 34 12V9C34 6.79086 32.2091 5 30 5H10ZM22 33C22 31.8954 21.1046 31 20 31C18.8954 31 18 31.8954 18 33C18 34.1046 18.8954 35 20 35C21.1046 35 22 34.1046 22 33ZM30 23C31.1046 23 32 22.1046 32 21V18C32 16.8954 31.1046 16 30 16H10C8.89543 16 8 16.8954 8 18V21C8 22.1046 8.89543 23 10 23H30ZM8 9C8 7.89543 8.89543 7 10 7H30C31.1046 7 32 7.89543 32 9V12C32 13.1046 31.1046 14 30 14H10C8.89543 14 8 13.1046 8 12V9Z" fill="black"/>
</svg>
