<svg width="40" height="40" viewBox="0 0 40 40" fill="none" xmlns="http://www.w3.org/2000/svg">
<path d="M18 24C17.4477 24 17 24.4477 17 25C17 25.5523 17.4477 26 18 26H22C22.5523 26 23 25.5523 23 25C23 24.4477 22.5523 24 22 24H18Z" fill="black"/>
<path fill-rule="evenodd" clip-rule="evenodd" d="M5 12C5 9.23858 7.23858 7 10 7H30C32.7614 7 35 9.23858 35 12V24C35 26.7614 32.7614 29 30 29H24.1887L27.2766 32.431C27.6461 32.8415 27.6128 33.4738 27.2023 33.8433C26.7918 34.2127 26.1595 34.1795 25.79 33.769L21.59 29.1023C21.5606 29.0695 21.5336 29.0353 21.5093 29H18.4908C18.4664 29.0353 18.4395 29.0695 18.41 29.1023L14.21 33.769C13.8405 34.1795 13.2082 34.2127 12.7977 33.8433C12.3872 33.4738 12.3539 32.8415 12.7234 32.431L15.8113 29H10C7.23858 29 5 26.7614 5 24V12ZM10 9C8.34315 9 7 10.3431 7 12V24C7 25.6569 8.34315 27 10 27H30C31.6569 27 33 25.6569 33 24V12C33 10.3431 31.6569 9 30 9H10Z" fill="black"/>
</svg>
