<svg width="40" height="40" viewBox="0 0 40 40" fill="none" xmlns="http://www.w3.org/2000/svg">
<path d="M20 13C18.3431 13 17 14.3431 17 16C17 16.5523 16.5523 17 16 17C15.4477 17 15 16.5523 15 16C15 13.2386 17.2386 11 20 11C22.7614 11 25 13.2386 25 16V16.7639C25 18.5131 24.0117 20.1122 22.4472 20.8944L22.2361 21C21.4785 21.3788 21 22.153 21 23C21 23.5523 20.5523 24 20 24C19.4477 24 19 23.5523 19 23C19 21.3955 19.9065 19.9287 21.3416 19.2111L21.5528 19.1056C22.4397 18.6621 23 17.7556 23 16.7639V16C23 14.3431 21.6569 13 20 13Z" fill="black"/>
<path d="M20 28.2522C20.6895 28.2522 21.2484 27.6933 21.2484 27.0038C21.2484 26.3143 20.6895 25.7554 20 25.7554C19.3105 25.7554 18.7516 26.3143 18.7516 27.0038C18.7516 27.6933 19.3105 28.2522 20 28.2522Z" fill="black"/>
<path fill-rule="evenodd" clip-rule="evenodd" d="M5 11C5 7.68629 7.68629 5 11 5H29C32.3137 5 35 7.68629 35 11V29C35 32.3137 32.3137 35 29 35H11C7.68629 35 5 32.3137 5 29V11ZM11 7C8.79086 7 7 8.79086 7 11V29C7 31.2091 8.79086 33 11 33H29C31.2091 33 33 31.2091 33 29V11C33 8.79086 31.2091 7 29 7H11Z" fill="black"/>
</svg>
