<svg xmlns="http://www.w3.org/2000/svg" width="40" height="40" fill="none" viewBox="0 0 40 40"><path fill="#000" fill-rule="evenodd" d="M11.8331 14.1613C12.4265 10.5309 15.3664 7 20 7s7.5735 3.5309 8.1669 7.1613a1 1 0 0 0 .9869.8387C32.9167 15 36 18.1156 36 22s-3.0833 7-6.8462 7H23v2h6.1538C34.0577 31 38 26.9522 38 22c0-4.6715-3.5081-8.5382-8.0221-8.9616C28.9789 8.9402 25.4722 5 20 5s-8.9789 3.9402-9.9779 8.0384C5.5081 13.4618 2 17.3285 2 22c0 4.9522 3.9423 9 8.8462 9H17v-2h-6.1538C7.0833 29 4 25.8844 4 22s3.0833-7 6.8462-7a1 1 0 0 0 .9869-.8387M20 16a1 1 0 0 1 .7863.3822l4 5.0909c.3412.4343.2658 1.0629-.1685 1.4041s-1.0629.2658-1.4041-.1685L21 19.8913V35c0 .5523-.4477 1-1 1s-1-.4477-1-1V19.8913l-2.2137 2.8174c-.3412.4343-.9698.5097-1.4041.1685s-.5097-.9698-.1685-1.4041l4-5.0909A1 1 0 0 1 20 16"/></svg>