<svg width="16" height="16" viewBox="0 0 16 16" fill="none" xmlns="http://www.w3.org/2000/svg">
<path fill-rule="evenodd" clip-rule="evenodd" d="M8 0C3.58172 0 0 3.58172 0 8C0 12.4183 3.58172 16 8 16C12.4183 16 16 12.4183 16 8C16 3.58172 12.4183 0 8 0ZM8 2C10.1425 2.0022 12.1212 3.14666 13.1915 5.00266C14.2618 6.85867 14.2612 9.14454 13.19 11C13.0425 10.9286 12.8885 10.8717 12.73 10.83L11.1 10.43C10.8615 10.3552 10.6542 10.2041 10.51 10C11.1528 8.98161 11.4991 7.80424 11.51 6.6C11.5322 4.63767 9.96226 3.02744 8 3C6.04166 3.03288 4.47772 4.64151 4.5 6.6C4.51092 7.80424 4.8572 8.98161 5.5 10C5.35579 10.2041 5.14849 10.3552 4.91 10.43L3.28 10.83C3.12154 10.8717 2.96749 10.9286 2.82 11C1.74963 9.14609 1.74809 6.86233 2.81595 5.00698C3.88381 3.15163 5.85929 2.00576 8 2ZM6.5 6.6C6.48652 6.18886 6.63704 5.78922 6.91839 5.48911C7.19973 5.189 7.58884 5.01305 8 5C8.41116 5.01305 8.80027 5.189 9.08161 5.48911C9.36296 5.78922 9.51348 6.18886 9.5 6.6C9.5 7.77 8.87 9.5 8 9.5C7.13 9.5 6.5 7.77 6.5 6.6ZM4.22 12.66L5.38 12.37C6.01845 12.1967 6.58559 11.8257 7 11.31C7.64149 11.5691 8.35851 11.5691 9 11.31C9.41703 11.8274 9.98792 12.1987 10.63 12.37L11.79 12.66C9.58689 14.4472 6.43311 14.4472 4.23 12.66H4.22Z" fill="currentColor"/>
</svg>
