<svg width="16" height="16" viewBox="0 0 16 16" fill="none" xmlns="http://www.w3.org/2000/svg">
<path d="M8.0001 2.96586C8.24501 2.96586 8.48307 2.99521 8.71096 3.05058L10.2513 1.51025C10.1338 1.45106 10.0133 1.39618 9.8901 1.34586C9.61129 0.540305 8.85254 0 8.0001 0C7.14766 0 6.38891 0.540305 6.1101 1.34586C4.23234 2.11253 3.00376 3.93762 3.0001 5.96586V8.63586L5.0001 6.76144V5.96586C5.0001 4.30901 6.34325 2.96586 8.0001 2.96586Z" fill="currentColor"/>
<path fill-rule="evenodd" clip-rule="evenodd" d="M3.44844 13.9659L2.20718 15.2071L0.792969 13.7929L13.793 0.792908L15.2072 2.20712L12.8091 4.60521C12.9332 5.04095 12.9993 5.498 13.0001 5.96586V8.63586L15.2001 11.5659C15.541 12.0204 15.5958 12.6285 15.3417 13.1367C15.0877 13.6449 14.5683 13.9659 14.0001 13.9659H10.8201C10.3895 15.1523 9.26228 15.9423 8.0001 15.9423C6.73791 15.9423 5.61072 15.1523 5.1801 13.9659H3.44844ZM11.0001 6.4142V9.29586L13.0001 11.9659H5.44844L11.0001 6.4142Z" fill="currentColor"/>
</svg>
