<svg width="16" height="16" viewBox="0 0 16 16" fill="none" xmlns="http://www.w3.org/2000/svg">
<path d="M0.0290909 12.64C0.0775709 12.56 0.155142 12.555 0.261818 12.625C2.68605 14.075 5.32364 14.8 8.17455 14.8C10.0751 14.8 11.9515 14.435 13.8036 13.705C13.8521 13.685 13.9224 13.655 14.0145 13.615C14.1067 13.575 14.1721 13.545 14.2109 13.525C14.3564 13.465 14.4703 13.495 14.5527 13.615C14.6351 13.735 14.6085 13.845 14.4727 13.945C14.2982 14.075 14.0751 14.225 13.8036 14.395C12.9697 14.905 12.0388 15.3 11.0109 15.58C9.98303 15.86 8.97939 16 8 16C6.48727 16 5.05696 15.7275 3.70909 15.1825C2.36121 14.6375 1.15393 13.87 0.0872727 12.88C0.0290909 12.83 0 12.78 0 12.73C0 12.7 0.00968727 12.67 0.0290909 12.64ZM4.40727 8.365C4.40727 7.675 4.57212 7.085 4.90182 6.595C5.23151 6.10499 5.68241 5.735 6.25455 5.485C6.77818 5.255 7.42303 5.09 8.18909 4.99C8.45091 4.96 8.87757 4.91999 9.46909 4.87V4.615C9.46909 3.97499 9.40121 3.545 9.26545 3.325C9.06182 3.025 8.74182 2.875 8.30545 2.875H8.18909C7.86909 2.905 7.59273 3.01 7.36 3.19C7.12727 3.37 6.97696 3.62 6.90909 3.94C6.8703 4.13999 6.77332 4.255 6.61818 4.285L4.94545 4.075C4.7806 4.03499 4.69818 3.94499 4.69818 3.805C4.69818 3.775 4.70303 3.74001 4.71273 3.7C4.87757 2.81 5.28241 2.15 5.92727 1.72C6.57212 1.28999 7.32605 1.04999 8.18909 1H8.55273C9.65818 1 10.5212 1.295 11.1418 1.885C11.2392 1.98546 11.3291 2.09325 11.4109 2.2075C11.4933 2.3225 11.5588 2.425 11.6073 2.515C11.6558 2.605 11.6994 2.735 11.7382 2.905C11.777 3.075 11.8061 3.1925 11.8255 3.2575C11.8448 3.32249 11.8594 3.4625 11.8691 3.6775C11.8788 3.89249 11.8836 4.01999 11.8836 4.06V7.69C11.8836 7.95 11.92 8.1875 11.9927 8.4025C12.0655 8.6175 12.1358 8.7725 12.2036 8.8675C12.2715 8.96249 12.383 9.115 12.5382 9.325C12.5964 9.415 12.6255 9.495 12.6255 9.565C12.6255 9.64499 12.5867 9.715 12.5091 9.775C11.7042 10.495 11.2679 10.885 11.2 10.945C11.0836 11.035 10.943 11.045 10.7782 10.975C10.6424 10.855 10.5236 10.74 10.4218 10.63C10.32 10.52 10.2473 10.44 10.2036 10.39C10.16 10.34 10.0897 10.2425 9.99273 10.0975C9.89575 9.95249 9.82787 9.85499 9.78909 9.805C9.24605 10.415 8.71273 10.795 8.18909 10.945C7.85939 11.045 7.45212 11.095 6.96727 11.095C6.2206 11.095 5.60727 10.8575 5.12727 10.3825C4.64727 9.90749 4.40727 9.235 4.40727 8.365ZM6.90909 8.065C6.90909 8.455 7.00364 8.76749 7.19273 9.0025C7.38182 9.2375 7.63636 9.355 7.95636 9.355C7.98545 9.355 8.02666 9.35001 8.08 9.34C8.13332 9.33 8.16969 9.325 8.18909 9.325C8.59636 9.215 8.91151 8.945 9.13455 8.515C9.24121 8.325 9.32121 8.1175 9.37455 7.8925C9.42787 7.6675 9.45696 7.48499 9.46182 7.345C9.46666 7.205 9.46909 6.97499 9.46909 6.655V6.28C8.90666 6.28 8.48 6.32 8.18909 6.4C7.33575 6.65 6.90909 7.205 6.90909 8.065ZM13.0182 12.895C13.0376 12.855 13.0667 12.815 13.1055 12.775C13.3479 12.605 13.5806 12.49 13.8036 12.43C14.1721 12.33 14.5309 12.275 14.88 12.265C14.977 12.255 15.0691 12.26 15.1564 12.28C15.5927 12.32 15.8545 12.395 15.9418 12.505C15.9806 12.565 16 12.655 16 12.775V12.88C16 13.23 15.9079 13.6425 15.7236 14.1175C15.5394 14.5925 15.2824 14.975 14.9527 15.265C14.9042 15.305 14.8606 15.325 14.8218 15.325C14.8024 15.325 14.783 15.32 14.7636 15.31C14.7055 15.28 14.6909 15.225 14.72 15.145C15.0788 14.275 15.2582 13.67 15.2582 13.33C15.2582 13.22 15.2388 13.14 15.2 13.09C15.103 12.97 14.8315 12.91 14.3855 12.91C14.2206 12.91 14.0267 12.92 13.8036 12.94C13.5612 12.97 13.3382 13 13.1345 13.03C13.0764 13.03 13.0376 13.02 13.0182 13C12.9988 12.98 12.9939 12.96 13.0036 12.94C13.0036 12.93 13.0085 12.915 13.0182 12.895Z" fill="black"/>
</svg>
