<svg width="16" height="16" viewBox="0 0 16 16" fill="none" xmlns="http://www.w3.org/2000/svg">
<path fill-rule="evenodd" clip-rule="evenodd" d="M16.0001 2.99916C15.9995 1.56708 14.9869 0.33505 13.582 0.0572718C12.1771 -0.220506 10.7717 0.533428 10.2262 1.85755C9.68073 3.18168 10.1472 4.70673 11.3401 5.49915L10.7101 7.99915C10.3631 8.02753 10.0242 8.11903 9.71006 8.26914L7.71006 6.26915C8.3927 4.81965 7.81584 3.08956 6.39991 2.33977C4.98397 1.58997 3.22875 2.08514 2.41344 3.46438C1.59813 4.84363 2.01052 6.62012 3.35006 7.49915L2.71006 9.99914C1.10029 10.1555 -0.0957669 11.5598 0.00604439 13.1739C0.107856 14.7881 1.47088 16.0309 3.08754 15.9838C4.7042 15.9366 5.99249 14.6165 6.00006 12.9991C6.00044 11.9939 5.49735 11.0553 4.66006 10.4991L5.29006 7.99915C5.63705 7.97076 5.97594 7.87926 6.29006 7.72915L8.29006 9.72914C7.76085 10.8437 7.96805 12.1687 8.81228 13.0685C9.65651 13.9683 10.9656 14.2595 12.1116 13.8023C13.2577 13.3452 14.0069 12.233 14.0001 10.9991C14.0004 9.99394 13.4974 9.05535 12.6601 8.49914L13.2901 5.99915C14.8327 5.84934 16.0073 4.54907 16.0001 2.99916ZM13.0001 1.99917C13.5523 1.99917 14.0001 2.44688 14.0001 2.99916C14.0001 3.55145 13.5523 3.99916 13.0001 3.99916C12.4478 3.99916 12.0001 3.55145 12.0001 2.99916C12.0001 2.44688 12.4478 1.99917 13.0001 1.99917ZM3.00006 13.9991C2.44778 13.9991 2.00006 13.5514 2.00006 12.9991C2.00006 12.4468 2.44778 11.9991 3.00006 11.9991C3.55235 11.9991 4.00006 12.4468 4.00006 12.9991C4.00006 13.5514 3.55235 13.9991 3.00006 13.9991ZM5.00006 5.99915C4.44778 5.99915 4.00006 5.55144 4.00006 4.99916C4.00006 4.44687 4.44778 3.99916 5.00006 3.99916C5.55235 3.99916 6.00006 4.44687 6.00006 4.99916C6.00006 5.55144 5.55235 5.99915 5.00006 5.99915ZM11.0001 11.9991C10.4478 11.9991 10.0001 11.5514 10.0001 10.9991C10.0001 10.4469 10.4478 9.99914 11.0001 9.99914C11.5523 9.99914 12.0001 10.4469 12.0001 10.9991C12.0001 11.5514 11.5523 11.9991 11.0001 11.9991Z" fill="currentColor"/>
</svg>
