<svg width="16" height="17" viewBox="0 0 16 17" fill="none" xmlns="http://www.w3.org/2000/svg">
<path d="M8.69691 1.44265C9.74818 0.057048 11.2097 0.050293 11.2097 0.050293C11.2097 0.050293 11.4271 1.353 10.3827 2.60791C9.26757 3.94789 8.00006 3.72863 8.00006 3.72863C8.00006 3.72863 7.76205 2.67478 8.69691 1.44265ZM8.13377 4.64116C8.67459 4.64116 9.67834 3.89774 10.9849 3.89774C13.2338 3.89774 14.1185 5.49801 14.1185 5.49801C14.1185 5.49801 12.3881 6.38271 12.3881 8.5294C12.3881 10.9511 14.5437 11.7856 14.5437 11.7856C14.5437 11.7856 13.0369 16.0268 11.0016 16.0268C10.0668 16.0268 9.34003 15.3968 8.35508 15.3968C7.35134 15.3968 6.35527 16.0503 5.70652 16.0503C3.84798 16.0503 1.5 12.0272 1.5 8.79319C1.5 5.61142 3.48741 3.94232 5.35152 3.94232C6.56336 3.94232 7.50376 4.64116 8.13377 4.64116Z" fill="#999999"/>
</svg>
