<svg width="16" height="16" viewBox="0 0 16 16" fill="none" xmlns="http://www.w3.org/2000/svg">
<path fill-rule="evenodd" clip-rule="evenodd" d="M16 8C15.9963 12.0289 12.9973 15.4264 9 15.93V13.93C11.5936 13.4914 13.5991 11.4146 13.9469 8.80731C14.2947 6.19998 12.9037 3.67013 10.5157 2.56706C8.12775 1.46398 5.29975 2.0449 3.54 4H6V6H0V0H2V2.72C4.19932 0.226203 7.7119 -0.647202 10.8231 0.526146C13.9342 1.6995 15.9952 4.67495 16 8ZM7 4V9H11V7H9V4H7ZM2.31 10C2.30889 9.73275 2.20086 9.47707 2.01 9.29C1.72432 9.01045 1.29962 8.92787 0.93 9.08C0.806357 9.12581 0.693869 9.1974 0.6 9.29C0.412813 9.47872 0.308463 9.7342 0.31 10C0.308407 10.13 0.332184 10.2591 0.38 10.38C0.434357 10.5015 0.508723 10.6131 0.6 10.71C0.697201 10.7983 0.808815 10.8694 0.93 10.92C1.04868 10.976 1.17882 11.0034 1.31 11C1.57234 10.9989 1.82374 10.8947 2.01 10.71C2.20086 10.5229 2.30889 10.2672 2.31 10ZM2.36 12.24C2.07277 12.5255 1.98612 12.9561 2.14055 13.3305C2.29498 13.7049 2.66 13.9492 3.065 13.9492C3.47 13.9492 3.83502 13.7049 3.98945 13.3305C4.14388 12.9561 4.05723 12.5255 3.77 12.24C3.37996 11.8523 2.75004 11.8523 2.36 12.24ZM6.7 14C6.65706 13.9491 6.60646 13.9053 6.55 13.87L6.38 13.78L6.2 13.72C5.86885 13.6537 5.52659 13.759 5.29 14C5.20005 14.0922 5.12874 14.2008 5.08 14.32C5.02962 14.444 5.0025 14.5762 5 14.71C5.00166 15.0426 5.16856 15.3526 5.44529 15.5371C5.72202 15.7216 6.07236 15.7564 6.38 15.63C6.50188 15.5817 6.61127 15.5065 6.7 15.41C6.88841 15.2254 6.99624 14.9738 7 14.71C7.00245 14.5757 6.97513 14.4425 6.92 14.32C6.87171 14.1981 6.79651 14.0887 6.7 14Z" fill="currentColor"/>
</svg>
