<svg width="16" height="16" viewBox="0 0 16 16" fill="none" xmlns="http://www.w3.org/2000/svg">
<path d="M5 7V5H3V7H5Z" fill="currentColor"/>
<path d="M6 7H8V5H6V7Z" fill="currentColor"/>
<path d="M9 7H11V5H9V7Z" fill="currentColor"/>
<path d="M5 11H3V13H5V11Z" fill="currentColor"/>
<path d="M13 13V12H12V13H13Z" fill="currentColor"/>
<path d="M11 13V11H9V13H11Z" fill="currentColor"/>
<path d="M12 10H13V9H12V10Z" fill="currentColor"/>
<path d="M12 7H13V6H12V7Z" fill="currentColor"/>
<path d="M3 8H5V10H3V8Z" fill="currentColor"/>
<path d="M6 11V13H8V11H6Z" fill="currentColor"/>
<path d="M6 8V10H8V8H6Z" fill="currentColor"/>
<path d="M9 8V10H11V8H9Z" fill="currentColor"/>
<path fill-rule="evenodd" clip-rule="evenodd" d="M5 1V2H4V0H3V2H2V1H0V16H16V1H14V2H13V0H12V2H11V1H5ZM13 3H12V2H13V3ZM3 2V3H4V2H3ZM14 4H2V14H14V4Z" fill="currentColor"/>
</svg>
