<svg width="16" height="16" viewBox="0 0 16 16" fill="none" xmlns="http://www.w3.org/2000/svg">
<path fill-rule="evenodd" clip-rule="evenodd" d="M8 0C3.58172 0 0 3.58171 0 7.99997C0 12.4182 3.58172 15.9999 8 15.9999C12.4183 15.9999 16 12.4182 16 7.99997C16 3.58171 12.4183 0 8 0ZM14 7.99997C13.9986 9.24372 13.6107 10.4563 12.89 11.47L4.53 3.10999C6.35969 1.8129 8.76004 1.64456 10.7529 2.67359C12.7457 3.70261 13.9982 5.75716 14 7.99997ZM2 7.99997C2.0014 6.75622 2.38929 5.54364 3.11 4.52998L11.47 12.8899C9.64031 14.187 7.23996 14.3554 5.24714 13.3264C3.25432 12.2973 2.0018 10.2428 2 7.99997Z" fill="currentColor"/>
</svg>
