<svg width="16" height="16" viewBox="0 0 16 16" fill="none" xmlns="http://www.w3.org/2000/svg">
<path fill-rule="evenodd" clip-rule="evenodd" d="M15.9572 10.457L14.5432 9.043L13.0002 10.586L11.4572 9.043L10.0432 10.457L11.5862 12L10.0432 13.543L11.4572 14.957L13.0002 13.414L14.5432 14.957L15.9572 13.543L14.4142 12L15.9572 10.457ZM8.00017 10.5C7.17217 10.5 6.50017 11.172 6.50017 12C6.50017 12.828 7.17217 13.5 8.00017 13.5C8.82817 13.5 9.50017 12.828 9.50017 12C9.50017 11.172 8.82817 10.5 8.00017 10.5ZM14.3642 5.636L15.7782 4.222C13.7872 2.231 11.0372 1 8.00017 1C4.96317 1 2.21317 2.231 0.222168 4.222L1.63617 5.636C3.26517 4.008 5.51517 3 8.00017 3C10.4852 3 12.7352 4.008 14.3642 5.636ZM12.2422 7.758L13.6562 6.344C12.2092 4.895 10.2092 4 8.00017 4C5.79117 4 3.79117 4.895 2.34417 6.344L3.75817 7.758C4.84417 6.672 6.34417 6 8.00017 6C9.65617 6 11.1562 6.672 12.2422 7.758ZM11.0352 8.051L9.61017 9.476C9.14517 9.178 8.59417 9 8.00017 9C7.17217 9 6.42217 9.336 5.87917 9.879L4.46517 8.465C5.36917 7.56 6.61917 7 8.00017 7C9.14717 7 10.1912 7.401 11.0352 8.051Z" fill="currentColor"/>
</svg>
