<svg width="17" height="16" viewBox="0 0 17 16" fill="none" xmlns="http://www.w3.org/2000/svg">
<path fill-rule="evenodd" clip-rule="evenodd" d="M2.10001 0C1.41901 0 0.755006 0.065 0.100006 0.16V2.181C0.752006 2.07 1.41701 2 2.10001 2C8.71701 2 14.1 7.383 14.1 14C14.1 14.683 14.03 15.348 13.919 16H15.94C16.035 15.345 16.1 14.681 16.1 14C16.1 6.28 9.82001 0 2.10001 0ZM0.100006 4.201C0.746006 4.07 1.41501 4 2.10001 4C7.61401 4 12.1 8.486 12.1 14C12.1 14.685 12.03 15.354 11.899 16H9.83601C10.002 15.359 10.1 14.691 10.1 14C10.1 9.589 6.51101 6 2.10001 6C1.40901 6 0.741006 6.098 0.100006 6.264V4.201ZM0.100006 8.35C0.727006 8.127 1.39801 8 2.10001 8C5.40901 8 8.10001 10.691 8.10001 14C8.10001 14.702 7.97301 15.373 7.75001 16H5.54301C5.88801 15.409 6.10001 14.732 6.10001 14C6.10001 11.794 4.30601 10 2.10001 10C1.36801 10 0.691006 10.212 0.100006 10.557V8.35ZM4.10001 14C4.10001 12.8957 3.20429 12 2.10001 12C0.995721 12 0.100006 12.8957 0.100006 14C0.100006 15.1043 0.995721 16 2.10001 16C3.20429 16 4.10001 15.1043 4.10001 14Z" fill='currentColor' />
</svg>
