<svg width="16" height="16" viewBox="0 0 16 16" fill="none" xmlns="http://www.w3.org/2000/svg">
<path fill-rule="evenodd" clip-rule="evenodd" d="M16 0V5H14V2H2V8H6V10H2V11H7V13H6V14H10V16H3V14H4V13H0V0H16ZM11 11C12.1046 11 13 10.1046 13 9C13 7.89543 12.1046 7 11 7C9.89543 7 9 7.89543 9 9C9 10.1046 9.89543 11 11 11ZM13.9063 11.7484C14.5843 11.0317 15 10.0644 15 9C15 6.79086 13.2091 5 11 5C8.79086 5 7 6.79086 7 9C7 11.2091 8.79086 13 11 13C11.4216 13 11.828 12.9348 12.2096 12.8139L14.1863 15.5812L15.8137 14.4188L13.9063 11.7484Z" fill="currentColor"/>
</svg>
