<svg width="16" height="16" viewBox="0 0 16 16" fill="none" xmlns="http://www.w3.org/2000/svg">
<path d="M8.00007 0.32C12.2453 0.32 15.6801 3.75621 15.6801 7.99678C15.6801 12.2374 12.2453 15.68 8.00007 15.68C3.75484 15.68 0.320068 12.2438 0.320068 8.00322C0.320068 3.76265 3.75484 0.32 8.00007 0.32Z" fill="#E74D89"/>
<path d="M8 16C3.5875 16 0 12.4145 0 8.00313C0 3.58545 3.5875 0 8 0C12.4125 0 16 3.58545 16 7.99687C16 12.4083 12.4125 16 8 16ZM14.7437 9.0919C14.5125 9.01682 12.6313 8.45991 10.4875 8.79781C11.3813 11.2507 11.7437 13.253 11.8125 13.666C13.35 12.6336 14.4437 10.9941 14.7437 9.0919ZM10.6687 14.298C10.5687 13.6973 10.1687 11.6074 9.2125 9.11693C9.2 9.12319 9.18125 9.12945 9.16875 9.12945C5.3125 10.4748 3.93125 13.1467 3.80625 13.3969C4.9625 14.298 6.41875 14.8361 8 14.8361C8.94375 14.8424 9.85 14.6484 10.6687 14.298ZM2.925 12.5772C3.08125 12.3144 4.95625 9.21079 8.48125 8.0657C8.56875 8.03442 8.6625 8.00939 8.75 7.98436C8.58125 7.5964 8.39375 7.20845 8.19375 6.82675C4.78125 7.8467 1.46875 7.80289 1.16875 7.79664C1.16875 7.86547 1.1625 7.9343 1.1625 8.00313C1.16875 9.76144 1.83125 11.3633 2.925 12.5772ZM1.3125 6.60774C1.61875 6.614 4.43125 6.62652 7.63125 5.77552C6.5 3.76066 5.275 2.07118 5.1 1.82714C3.18125 2.7282 1.75625 4.49276 1.3125 6.60774ZM6.4 1.3641C6.5875 1.61439 7.83125 3.30387 8.95 5.36253C11.3813 4.44896 12.4062 3.07235 12.5312 2.89715C11.325 1.82714 9.7375 1.17638 8 1.17638C7.45 1.17638 6.9125 1.24521 6.4 1.3641ZM13.2875 3.68557C13.1438 3.87955 12 5.35002 9.475 6.38248C9.63125 6.70786 9.7875 7.0395 9.93125 7.37114C9.98125 7.49003 10.0312 7.60892 10.0813 7.72155C12.3563 7.43371 14.6125 7.89675 14.8375 7.94056C14.8187 6.33242 14.2438 4.84943 13.2875 3.68557Z" fill="#B2215A"/>
</svg>
