<svg width="16" height="16" viewBox="0 0 16 16" fill="none" xmlns="http://www.w3.org/2000/svg">
<path fill-rule="evenodd" clip-rule="evenodd" d="M9 5.99998C9 5.44698 9.447 4.99998 10 4.99998C10.553 4.99998 11 5.44698 11 5.99998C11 6.55298 10.553 6.99997 10 6.99997C9.447 6.99997 9 6.55298 9 5.99998ZM5 5.99998C5 5.44698 5.447 4.99998 6 4.99998C6.553 4.99998 7 5.44698 7 5.99998C7 6.55298 6.553 6.99997 6 6.99997C5.447 6.99997 5 6.55298 5 5.99998ZM9.491 9.01697L11.491 9.00697C11.495 9.72496 11.202 10.417 10.665 10.959C10.006 11.624 9.036 12.008 8.006 12.012H7.991C6.068 12.012 4.5 10.671 4.491 9.01697L6.491 9.00697C6.494 9.48296 7.109 10.012 7.99 10.012H7.998C8.494 10.01 8.961 9.83796 9.245 9.55096C9.358 9.43696 9.492 9.25097 9.491 9.01697ZM8 13.9999C4.691 13.9999 2 11.309 2 7.99997C2 4.69098 4.691 1.99999 8 1.99999C11.309 1.99999 14 4.69098 14 7.99997C14 11.309 11.309 13.9999 8 13.9999ZM8 0C3.589 0 0 3.58899 0 7.99997C0 12.411 3.589 15.9999 8 15.9999C12.411 15.9999 16 12.411 16 7.99997C16 3.58899 12.411 0 8 0Z" fill="currentColor"/>
</svg>
