<svg width="16" height="16" viewBox="0 0 16 16" fill="none" xmlns="http://www.w3.org/2000/svg">
<path d="M4 0C1.79086 0 0 1.79086 0 4V12C0 14.2091 1.79086 16 4 16H7.37021V9.2948H6V7.66089H7.37021V6.95183C7.37021 6.0167 7.66525 5.29223 8.25532 4.77842C8.85106 4.25947 9.68227 4 10.7489 4C11.0894 4 11.5064 4.05138 12 4.15414L11.9745 5.88054C11.7702 5.8343 11.5206 5.81118 11.2255 5.81118C10.3007 5.81118 9.8383 6.20424 9.8383 6.99037V7.66089H11.6681V9.2948H9.8383V16H12C14.2091 16 16 14.2091 16 12V4C16 1.79086 14.2091 0 12 0H4Z" fill="#494DB0"/>
</svg>
