<svg width="16" height="16" viewBox="0 0 16 16" fill="none" xmlns="http://www.w3.org/2000/svg">
<path d="M14.6871 2C15.408 2 15.9979 2.61146 15.9979 3.35877V3.75267L14.1768 5.10114L7.9771 9.5283L1.77738 5.05623V14H1.31076C0.589863 14 0 13.3886 0 12.6412V3.35914C0 2.61183 0.589863 2.00036 1.31076 2.00036L7.9771 7.12402L14.6868 2.00036L14.6871 2Z" fill="#E75A4D"/>
<path d="M1.31079 2L7.97713 7.12366L14.6871 2H1.31079Z" fill="url(#paint0_linear)"/>
<path d="M1.77734 5.05623V14H14.1771V5.10114L7.97706 9.5283L1.77734 5.05623Z" fill="#E7E4D7"/>
<path d="M1.77734 14L7.97706 9.52832L7.949 9.50772L1.77734 13.9017V14Z" fill="#B8B7AE"/>
<path d="M14.1771 5.10111L14.1807 14L7.97705 9.52827L14.1771 5.10111Z" fill="#B7B6AD"/>
<path d="M15.998 3.75268L16.0001 12.6423C15.9688 13.6304 15.5558 13.9831 14.1808 13.9997L14.1772 5.10078L15.9983 3.75232L15.998 3.75268Z" fill="#B2392F"/>
<path d="M1.31079 2L7.97713 7.12366L14.6871 2H1.31079Z" fill="url(#paint1_linear)"/>
<path d="M1.31079 2L7.97713 7.12366L14.6871 2H1.31079Z" fill="url(#paint2_linear)"/>
<path d="M1.31079 2L7.97713 7.12366L14.6871 2H1.31079Z" fill="url(#paint3_linear)"/>
<path d="M1.31079 2L7.97713 7.12366L14.6871 2H1.31079Z" fill="url(#paint4_linear)"/>
<path d="M1.31079 2L7.97713 7.12366L14.6871 2H1.31079Z" fill="url(#paint5_linear)"/>
<path d="M1.31079 2L7.97713 7.12366L14.6871 2H1.31079Z" fill="url(#paint6_linear)"/>
<path d="M1.31079 2L7.97713 7.12366L14.6871 2H1.31079Z" fill="url(#paint7_linear)"/>
<path d="M1.31079 2L7.97713 7.12366L14.6871 2H1.31079Z" fill="#F7F5ED"/>
<defs>
<linearGradient id="paint0_linear" x1="3.71748" y1="4.56227" x2="12.2642" y2="4.56227" gradientUnits="userSpaceOnUse">
<stop stop-color="#F8F6EF"/>
<stop offset="1" stop-color="#E7E4D6"/>
</linearGradient>
<linearGradient id="paint1_linear" x1="3.71748" y1="4.56227" x2="12.2642" y2="4.56227" gradientUnits="userSpaceOnUse">
<stop stop-color="#F8F6EF"/>
<stop offset="1" stop-color="#E7E4D6"/>
</linearGradient>
<linearGradient id="paint2_linear" x1="3.71748" y1="4.56227" x2="12.2642" y2="4.56227" gradientUnits="userSpaceOnUse">
<stop stop-color="#F8F6EF"/>
<stop offset="1" stop-color="#E7E4D6"/>
</linearGradient>
<linearGradient id="paint3_linear" x1="3.71748" y1="4.56227" x2="12.2642" y2="4.56227" gradientUnits="userSpaceOnUse">
<stop stop-color="#F8F6EF"/>
<stop offset="1" stop-color="#E7E4D6"/>
</linearGradient>
<linearGradient id="paint4_linear" x1="3.71748" y1="4.56227" x2="12.2642" y2="4.56227" gradientUnits="userSpaceOnUse">
<stop stop-color="#F8F6EF"/>
<stop offset="1" stop-color="#E7E4D6"/>
</linearGradient>
<linearGradient id="paint5_linear" x1="3.71748" y1="4.56227" x2="12.2642" y2="4.56227" gradientUnits="userSpaceOnUse">
<stop stop-color="#F8F6EF"/>
<stop offset="1" stop-color="#E7E4D6"/>
</linearGradient>
<linearGradient id="paint6_linear" x1="3.71748" y1="4.56227" x2="12.2642" y2="4.56227" gradientUnits="userSpaceOnUse">
<stop stop-color="#F8F6EF"/>
<stop offset="1" stop-color="#E7E4D6"/>
</linearGradient>
<linearGradient id="paint7_linear" x1="3.71748" y1="4.56227" x2="12.2642" y2="4.56227" gradientUnits="userSpaceOnUse">
<stop stop-color="#F8F6EF"/>
<stop offset="1" stop-color="#E7E4D6"/>
</linearGradient>
</defs>
</svg>
