<svg width="16" height="16" viewBox="0 0 16 16" fill="none" xmlns="http://www.w3.org/2000/svg">
<path fill-rule="evenodd" clip-rule="evenodd" d="M11.3152 13.6547C12.6364 13.5754 14.0587 13.8553 15.1652 14.6824C15.5179 14.9467 16 14.6684 16 14.2004V3.54183C16 3.37237 15.9317 3.21069 15.8137 3.1003C14.09 1.48188 10.6098 1.30931 8.00569 2.87954C5.39449 1.30464 1.91431 1.4741 0.184889 3.09719C0.0668444 3.20758 0 3.36926 0 3.53872V14.1973C0 14.6653 0.480711 14.9435 0.833422 14.6792C1.93991 13.8522 3.3664 13.5723 4.68907 13.6516C6.03022 13.7324 7.1424 14.174 7.63876 14.6404C7.7312 14.729 8 15 8 15C8 15 8.25031 14.7539 8.36836 14.6435C8.86471 14.1771 9.97689 13.7356 11.3152 13.6547ZM14 11.9379C13.1076 11.6915 12.1568 11.6006 11.1954 11.6583C10.4264 11.7048 9.67547 11.8472 9 12.0704V4.61544L9.03844 4.59226C10.6547 3.61766 12.7887 3.56623 14 4.23915V11.9379ZM7 4.60859V12.0653C6.32534 11.8431 5.57664 11.7015 4.80874 11.6552C3.84623 11.5975 2.8939 11.6884 2 11.935V4.23423C3.21227 3.55976 5.34841 3.61246 6.97276 4.59215L7 4.60859Z" fill="currentColor"/>
</svg>
