<svg width="16" height="16" viewBox="0 0 16 16" fill="none" xmlns="http://www.w3.org/2000/svg">
<path d="M6.74895 12.7559C7.08368 12.4305 7.08368 11.9028 6.74895 11.5774L3.06933 8L6.74895 4.42259C7.08368 4.09715 7.08368 3.56951 6.74895 3.24408C6.41421 2.91864 5.8715 2.91864 5.53676 3.24408L1.25105 7.41075C0.916316 7.73618 0.916316 8.26382 1.25105 8.58926L5.53677 12.7559C5.8715 13.0814 6.41421 13.0814 6.74895 12.7559Z" fill="currentColor"/>
<path d="M13.7489 12.7559C14.0837 12.4305 14.0837 11.9028 13.7489 11.5774L10.0693 8L13.7489 4.42259C14.0837 4.09715 14.0837 3.56951 13.7489 3.24408C13.4142 2.91864 12.8715 2.91864 12.5368 3.24408L8.25105 7.41075C7.91632 7.73618 7.91632 8.26382 8.25105 8.58926L12.5368 12.7559C12.8715 13.0814 13.4142 13.0814 13.7489 12.7559Z" fill="currentColor"/>
</svg>
