<svg width="16" height="17" viewBox="0 0 16 17" fill="none" xmlns="http://www.w3.org/2000/svg">
<path fill-rule="evenodd" clip-rule="evenodd" d="M15.9384 9C15.4225 13.1295 11.8268 16.1738 7.66878 16.0014C3.51076 15.8291 0.179323 12.4976 0.00696793 8.33962C-0.165387 4.1816 2.87891 0.585883 7.0084 0.0699997V2.07C3.99694 2.57703 1.84676 5.2651 2.01353 8.31439C2.1803 11.3637 4.61082 13.8012 7.6596 13.9768C10.7084 14.1524 13.4027 12.01 13.9184 9H15.9384ZM7.0084 4V8.54L9.9484 10.54L11.0584 8.87L9.0084 7.46V4H7.0084ZM13.6984 6C13.6984 6.55228 14.1461 7 14.6984 7C14.9642 7.00154 15.2197 6.89719 15.4084 6.71C15.4997 6.61308 15.574 6.50153 15.6284 6.38C15.6718 6.25786 15.6954 6.12958 15.6984 6C15.6968 5.86932 15.6696 5.74022 15.6184 5.62C15.5678 5.49881 15.4967 5.3872 15.4084 5.29C15.0184 4.90228 14.3884 4.90228 13.9984 5.29C13.8075 5.47707 13.6995 5.73275 13.6984 6ZM12.9484 4.06C13.2122 4.05624 13.4638 3.94841 13.6484 3.76C14.0361 3.36996 14.0361 2.74004 13.6484 2.35C13.2516 2.01022 12.6602 2.03307 12.2908 2.40244C11.9215 2.77181 11.8986 3.36324 12.2384 3.76C12.4255 3.95086 12.6812 4.05889 12.9484 4.06ZM9.2984 2C9.53395 2.23595 9.87159 2.33899 10.1988 2.27477C10.5259 2.21054 10.7995 1.98749 10.9284 1.68C11.085 1.3076 11.0021 0.87756 10.7184 0.59L10.5684 0.46L10.3884 0.37C10.2073 0.298171 10.0092 0.280792 9.8184 0.32L9.6284 0.37L9.4484 0.46L9.2984 0.59C9.25304 0.635471 9.2128 0.685771 9.1784 0.74C9.13882 0.791051 9.10837 0.848566 9.0884 0.91C9.05944 0.970148 9.03924 1.03413 9.0284 1.1C9.0235 1.16324 9.0235 1.22676 9.0284 1.29C9.02866 1.42405 9.05586 1.55668 9.1084 1.68C9.14732 1.79939 9.2122 1.90868 9.2984 2Z" fill="currentColor"/>
</svg>
