<svg width="16" height="17" viewBox="0 0 16 17" fill="none" xmlns="http://www.w3.org/2000/svg">
<path fill-rule="evenodd" clip-rule="evenodd" d="M12.0005 4.01317C12.0072 1.93283 10.4182 0.194606 8.34564 0.0151056C6.27305 -0.164395 4.40886 1.27476 4.05785 3.32528C3.70684 5.3758 4.98619 7.35307 7.00048 7.87317V10.0132H5.00048V12.0132H7.00048V14.0132H5.00048V16.0132H9.00048V7.87317C10.7619 7.41838 11.9946 5.83232 12.0005 4.01317ZM8.00048 6.01317C6.89591 6.01317 6.00048 5.11774 6.00048 4.01317C6.00048 2.9086 6.89591 2.01317 8.00048 2.01317C9.10505 2.01317 10.0005 2.9086 10.0005 4.01317C10.0005 5.11774 9.10505 6.01317 8.00048 6.01317Z" fill="currentColor"/>
</svg>
