<svg width="16" height="17" viewBox="0 0 16 17" fill="none" xmlns="http://www.w3.org/2000/svg">
<path fill-rule="evenodd" clip-rule="evenodd" d="M9.53977 4.79001L10.9598 6.21001L7.24977 9.91002L5.16977 7.83001L6.57977 6.42001L7.24977 7.09001L9.53977 4.79001ZM11.9998 11.46V17L7.99977 15.85L3.99977 17V11.47C2.14555 9.81155 1.50707 7.18088 2.39473 4.85694C3.2824 2.533 5.51207 0.997864 7.99977 0.997864C10.4875 0.997864 12.7171 2.533 13.6048 4.85694C14.4925 7.18088 13.854 9.81155 11.9998 11.47V11.46ZM9.99977 12.65C8.70726 13.1166 7.29228 13.1166 5.99977 12.65V14.34L7.99977 13.76L9.99977 14.34V12.65ZM11.9998 7.00001C11.9998 4.79087 10.2089 3 7.99977 3C5.79063 3 3.99977 4.79087 3.99977 7.00001C3.99977 9.20915 5.79063 11 7.99977 11C10.2089 11 11.9998 9.20915 11.9998 7.00001Z" fill="currentColor"/>
</svg>
