<svg width="17" height="16" viewBox="0 0 17 16" fill="none"
  xmlns="http://www.w3.org/2000/svg">
  <path fill-rule="evenodd" clip-rule="evenodd" d="M0.100098 0H10.1001H11.1001H12.1001V13C12.1001 13.5523 12.5478 14 13.1001 14C13.6524 14 14.1001 13.5523 14.1001 13V6H13.1001V4H16.1001V13C16.1001 14.6569 14.757 16 13.1001 16H3.1001C1.44324 16 0.100098 14.6569 0.100098 13V0ZM10.2708 14C10.1603 13.6872 10.1001 13.3506 10.1001 13V2H2.1001V13C2.1001 13.5523 2.54781 14 3.1001 14H10.2708ZM8.1001 6H4.1001V4H8.1001V6ZM8.1001 9H4.1001V7H8.1001V9ZM4.1001 12H8.1001V10H4.1001V12Z" fill="currentColor"/>
</svg>
