<svg width="16" height="16" viewBox="0 0 16 16" fill="none" xmlns="http://www.w3.org/2000/svg">
<path fill-rule="evenodd" clip-rule="evenodd" d="M14 5.5C14 3.57 12.43 2 10.5 2C8.57 2 7 3.57 7 5.5C7 5.723 7.025 5.949 7.077 6.194L7.189 6.725L6.414 7.5L6.914 8L2 12.914V14H3.086L8 9.08601L8.5 9.58601L9.275 8.811L9.806 8.923C10.051 8.975 10.277 9 10.5 9C12.43 9 14 7.43 14 5.5ZM16 5.5C16.001 8.714 13.263 11.327 9.945 10.969L8.5 12.414L8 11.914L3.914 16H0V12.086L0.836 11.25L0.54 10.954L1.954 9.54L2.25 9.83601L4.086 8L3.586 7.5L5.031 6.055C5.011 5.867 5 5.682 5 5.5C5 2.468 7.468 0 10.5 0C13.532 0 16 2.468 16 5.5ZM12.5 4.5C12.5 5.051 12.052 5.5 11.5 5.5C10.948 5.5 10.5 5.051 10.5 4.5C10.5 3.948 10.948 3.5 11.5 3.5C12.052 3.5 12.5 3.948 12.5 4.5Z" fill="currentColor"/>
</svg>
