<svg width="16" height="16" viewBox="0 0 16 16" fill="none" xmlns="http://www.w3.org/2000/svg">
<path fill-rule="evenodd" clip-rule="evenodd" d="M8 4C6.89543 4 6 4.89543 6 6C6 7.10457 6.89543 8 8 8C9.10457 8 10 7.10457 10 6C10 4.89543 9.10457 4 8 4ZM8 0C4.68629 0 2 2.68629 2 6C2 10.39 7.1 15.15 7.32 15.35L8 16L8.68 15.37C8.9 15.17 14 10.37 14 6.02C14.0053 4.42524 13.3755 2.89397 12.2497 1.76442C11.1239 0.634877 9.59477 -8.85977e-06 8 0ZM8 13.21C6.47 11.61 4 8.5 4 6C4 3.79086 5.79086 2 8 2C10.2091 2 12 3.79086 12 6C12 8.49 9.53 11.61 8 13.21Z" fill="currentColor"/>
</svg>
