<svg width="8" height="8" viewBox="0 0 8 8" fill="none" xmlns="http://www.w3.org/2000/svg">
  <path d="M8 1C8 1.55228 7.55228 2 7 2C6.44772 2 6 1.55228 6 1C6 0.447715 6.44772 0 7 0C7.55228 0 8 0.447715 8 1Z" fill="currentColor" fill-opacity="0.7"/>
  <path d="M7 5C7.55228 5 8 4.55228 8 4C8 3.44772 7.55228 3 7 3C6.44772 3 6 3.44772 6 4C6 4.55228 6.44772 5 7 5Z" fill="currentColor" fill-opacity="0.7"/>
  <path d="M2 7C2 7.55228 1.55228 8 1 8C0.447715 8 0 7.55228 0 7C0 6.44772 0.447715 6 1 6C1.55228 6 2 6.44772 2 7Z" fill="currentColor" fill-opacity="0.7"/>
  <path d="M4 8C4.55228 8 5 7.55228 5 7C5 6.44772 4.55228 6 4 6C3.44772 6 3 6.44772 3 7C3 7.55228 3.44772 8 4 8Z" fill="currentColor" fill-opacity="0.7"/>
  <path d="M7 8C7.55228 8 8 7.55228 8 7C8 6.44772 7.55228 6 7 6C6.44772 6 6 6.44772 6 7C6 7.55228 6.44772 8 7 8Z" fill="currentColor" fill-opacity="0.7"/>
  <path d="M4 5C4.55228 5 5 4.55228 5 4C5 3.44772 4.55228 3 4 3C3.44772 3 3 3.44772 3 4C3 4.55228 3.44772 5 4 5Z" fill="currentColor" fill-opacity="0.7"/>
</svg>
