<svg width="16" height="16" viewBox="0 0 16 16" fill="none"
  xmlns="http://www.w3.org/2000/svg">
  <path fill-rule="evenodd" clip-rule="evenodd" d="M0 4.5C0 4.07493 0.210091 3.64987 0.630276 3.44714L7.56896 0.0993037C7.84338 -0.033101 8.15662 -0.0331013 8.43104 0.0993034L15.3697 3.44713C15.7899 3.64987 16 4.07493 16 4.5V11.5C16 11.8788 15.786 12.225 15.4472 12.3944L8.44721 15.8944C8.16569 16.0352 7.83431 16.0352 7.55279 15.8944L0.552786 12.3944C0.214002 12.225 0 11.8788 0 11.5V4.5ZM2 6.21374V10.882L7 13.382V8.62618L2 6.21374ZM14 10.882L9 13.382V8.62618L14 6.21374V10.882ZM5.06048 5.46976L3.05057 4.5L8 2.11196L12.9494 4.5L10.9395 5.46976L8 4L5.06048 5.46976Z" fill="currentColor"/>
</svg>
