<svg width="16" height="17" viewBox="0 0 16 17" fill="none" xmlns="http://www.w3.org/2000/svg">
<path fill-rule="evenodd" clip-rule="evenodd" d="M13.6508 2.35C10.9485 -0.345731 6.71821 -0.756933 3.54736 1.36791C0.376503 3.49275 -0.851582 7.56171 0.614269 11.086C2.08012 14.6103 5.83156 16.6081 9.574 15.8575C13.3164 15.1069 16.0073 11.817 16.0008 8C15.9972 5.87966 15.1519 3.84749 13.6508 2.35ZM8.00081 14C5.40817 14.0029 3.10692 12.3403 2.29548 9.87788C1.48405 7.4155 2.34598 4.71045 4.43243 3.17146C6.51887 1.63246 9.35781 1.60767 11.4708 3.11L10.7708 3.82C8.98696 2.64919 6.65668 2.73942 4.96871 4.04466C3.28074 5.3499 2.60707 7.5825 3.29136 9.60355C3.97564 11.6246 5.86708 12.9887 8.00081 13C9.3271 13.0037 10.5992 12.474 11.5308 11.53L10.1208 10.12C9.16089 11.0811 7.67495 11.2773 6.49848 10.5983C5.32201 9.91921 4.74861 8.5344 5.10068 7.22244C5.45275 5.91049 6.64243 4.9988 8.00081 5C8.43689 5.00393 8.86688 5.1029 9.26081 5.29L8.40081 6.15C8.2695 6.1199 8.13548 6.10315 8.00081 6.1C6.95146 6.1 6.10081 6.95066 6.10081 8C6.10081 9.04934 6.95146 9.9 8.00081 9.9C9.05015 9.9 9.90081 9.04934 9.90081 8C9.89975 7.85528 9.88298 7.7111 9.85081 7.57L12.8508 4.57C14.1212 6.39296 14.2801 8.76873 13.2639 10.7447C12.2476 12.7206 10.2226 13.9731 8.00081 14Z" fill="currentColor"/>
</svg>
