<svg width="16" height="16" viewBox="0 0 16 16" fill="none" xmlns="http://www.w3.org/2000/svg">
<path fill-rule="evenodd" clip-rule="evenodd" d="M9.793 4.793L8 6.586L6.207 4.793L4.793 6.207L6.586 8L4.793 9.793L6.207 11.207L8 9.414L9.793 11.207L11.207 9.793L9.414 8L11.207 6.207L9.793 4.793ZM8 14C4.691 14 2 11.309 2 8C2 4.691 4.691 2 8 2C11.309 2 14 4.691 14 8C14 11.309 11.309 14 8 14ZM8 0C3.589 0 0 3.589 0 8C0 12.411 3.589 16 8 16C12.411 16 16 12.411 16 8C16 3.589 12.411 0 8 0Z" fill="currentColor"/>
</svg>
