<svg width="16" height="17" viewBox="0 0 16 17" fill="none" xmlns="http://www.w3.org/2000/svg">
<path fill-rule="evenodd" clip-rule="evenodd" d="M5 6.00411V5.00411C4.99791 3.59614 5.97524 2.37614 7.34975 2.07097C8.72425 1.76579 10.1261 2.45755 10.72 3.73411L12.53 2.88411C11.5377 0.760057 9.20275 -0.389284 6.91426 0.119803C4.62577 0.62889 2.99831 2.65968 3 5.00411V6.00411H1V16.0041H15V6.00411H5ZM13 14.0041H3V8.00411H13V14.0041ZM7 11.0041C7 10.4518 7.44772 10.0041 8 10.0041C8.55228 10.0041 9 10.4518 9 11.0041C9 11.5564 8.55228 12.0041 8 12.0041C7.44772 12.0041 7 11.5564 7 11.0041Z" fill="currentColor"/>
</svg>
