<svg width="16" height="16" viewBox="0 0 16 16" fill="none" xmlns="http://www.w3.org/2000/svg">
<path fill-rule="evenodd" clip-rule="evenodd" d="M16 7.52831V8.97131H12.332C12.432 8.42831 12.5 7.86231 12.5 7.25731C12.5 4.95031 11.33 3.44731 9.847 2.77331C10.063 1.47631 11.034 1.00031 12 1.00031C13.095 1.00031 13.951 1.60731 13.951 3.29231C13.951 3.99431 13.991 4.64831 13.771 5.14631L14.358 5.27831C15.324 5.54531 16 6.47031 16 7.52831ZM3.667 8.97131H0V7.52831C0 6.47031 0.676 5.54531 1.644 5.27831L2.317 5.17131C2.097 4.67331 2 3.99331 2 3.29231C2 1.60731 2.905 1.00031 4 1.00031C4.966 1.00031 5.938 1.47631 6.153 2.77331C4.67 3.44731 3.5 4.95031 3.5 7.25731C3.5 7.86231 3.568 8.42831 3.667 8.97131ZM4.024 14.0003C4.108 13.5533 4.401 13.1863 4.782 13.0813L5.738 12.8163C6.268 12.6713 6.77 12.3143 7.178 11.8463C7.436 11.9363 7.706 12.0003 8 12.0003C8.298 12.0003 8.571 11.9353 8.832 11.8423C9.236 12.3153 9.734 12.6723 10.261 12.8163L11.219 13.0813C11.6 13.1863 11.892 13.5533 11.976 14.0003H4.024ZM8 6.00031C8.248 6.00031 9 6.00031 9 7.40031C9 8.65031 8.618 10.0003 8 10.0003C7.382 10.0003 7 8.65031 7 7.40031C7 6.00031 7.752 6.00031 8 6.00031ZM11.752 11.1533L10.793 10.8883C10.658 10.8513 10.475 10.7103 10.311 10.5053C10.747 9.71931 11 8.66931 11 7.40031C11 5.05131 9.493 4.00031 8 4.00031C6.507 4.00031 5 5.05131 5 7.40031C5 8.67431 5.255 9.72931 5.695 10.5143C5.529 10.7133 5.343 10.8503 5.206 10.8883L4.249 11.1533C2.925 11.5193 2 12.7983 2 14.2613V16.0003H14V14.2613C14 12.7983 13.075 11.5193 11.752 11.1533Z" fill="currentColor"/>
</svg>
