<svg width="16" height="16" viewBox="0 0 16 16" fill="none" xmlns="http://www.w3.org/2000/svg">
<path d="M13.1597 0L13.7314 2.34071L16 3.28673L13.8716 4.59035L13.5957 7L11.9089 5.628L2.56066 15.5607C1.97487 16.1465 1.02513 16.1465 0.43934 15.5607C-0.146447 14.9749 -0.146447 14.0251 0.43934 13.4393L9.8977 4.53746L10.2316 3.75587L9 1.68196L11.4818 1.82497L13.1597 0Z" fill="currentColor"/>
<path d="M7 3C6 2.5 5.5 2 5 1C4.5 2 4 2.5 3 3C4 3.5 4.5 4 5 5C5.5 4 6 3.5 7 3Z" fill="currentColor"/>
<path d="M11.5 11C12.125 12.25 12.75 12.875 14 13.5C12.75 14.125 12.125 14.75 11.5 16C10.875 14.75 10.25 14.125 9 13.5C10.25 12.875 10.875 12.25 11.5 11Z" fill="currentColor"/>
<path d="M15 10C15.5523 10 16 9.55229 16 9C16 8.44771 15.5523 8 15 8C14.4477 8 14 8.44771 14 9C14 9.55229 14.4477 10 15 10Z" fill="currentColor"/>
</svg>
