<svg xmlns="http://www.w3.org/2000/svg" width="64" height="42" fill="none" viewBox="0 0 64 42"><g clip-path="url(#a)"><rect width="64" height="42" fill="#fff" rx="5"/><path fill="#24aad5" fill-rule="evenodd" d="M0 14h64V0H0z" clip-rule="evenodd"/><path fill="#21bf75" fill-rule="evenodd" d="M0 42h64V28H0z" clip-rule="evenodd"/><path fill="#ed1845" fill-rule="evenodd" d="M0 28h64V14H0z" clip-rule="evenodd"/><path fill="#fff" fill-rule="evenodd" d="M34.2858 17.1905q.1283 0 .2546.0083A4.55 4.55 0 0 0 32 16.4286c-2.5247 0-4.5714 2.0467-4.5714 4.5714S29.4753 25.5714 32 25.5714a4.55 4.55 0 0 0 2.5404-.7703 4 4 0 0 1-.2546.0084c-2.1039 0-3.8095-1.7056-3.8095-3.8095s1.7056-3.8095 3.8095-3.8095m.7617 5.3333c.8416 0 1.5238-.6822 1.5238-1.5238s-.6822-1.5238-1.5238-1.5238-1.5238.6822-1.5238 1.5238.6823 1.5238 1.5238 1.5238" clip-rule="evenodd"/></g><defs><clipPath id="a"><rect width="64" height="42" fill="#fff" rx="5"/></clipPath></defs></svg>