<svg xmlns="http://www.w3.org/2000/svg" width="64" height="42" fill="none" viewBox="0 0 64 42"><path fill="#fff" fill-rule="evenodd" d="M0 4.2C0 1.8804 1.8804 0 4.2 0h.9761a1.4 1.4 0 0 1 .7766.2351l25.5527 17.0352C33.8105 18.807 32.7226 22.4 29.9522 22.4H16.8l16.7918 14.6928C35.5375 38.7953 34.3334 42 31.7479 42H4.2C1.8804 42 0 40.1196 0 37.8z" clip-rule="evenodd"/><mask id="a" fill="#fff"><path fill-rule="evenodd" d="M0 0h5.1761a1.4 1.4 0 0 1 .7766.2351l25.5527 17.0352C33.8105 18.807 32.7226 22.4 29.9522 22.4H16.8l16.7918 14.6928C35.5375 38.7953 34.3334 42 31.7479 42H0z" clip-rule="evenodd"/></mask><path fill="#ee1b44" fill-rule="evenodd" stroke="#0543a8" stroke-linejoin="round" stroke-width="6" d="M0 0h5.1761a1.4 1.4 0 0 1 .7766.2351l25.5527 17.0352C33.8105 18.807 32.7226 22.4 29.9522 22.4H16.8l16.7918 14.6928C35.5375 38.7953 34.3334 42 31.7479 42H0z" clip-rule="evenodd" mask="url(#a)"/><path fill="#fff" fill-rule="evenodd" d="M14.3876 16.3819c.8065-.2211 1.5501-.5234 2.2077-.8916-.6523 2.3695-2.8227 4.1101-5.3996 4.1101S6.4483 17.8597 5.796 15.49c.6595.3694 1.4054.6724 2.2146.8936l1.0895-.9835-1.7803-1.6073 2.3954.1223-.1224-2.3953 1.6073 1.7803 1.6073-1.7803-.1224 2.3953 2.3954-.1223-1.7803 1.6073zM9.057 35.9741l2.143-2.3737 2.1431 2.3737-.1632-3.1938 3.1939.1631L14 30.8004l2.3738-2.1431-3.1939.1632.1632-3.1939L11.2 28.0004l-2.143-2.3738.1631 3.1939-3.1938-.1632 2.3738 2.1431-2.3738 2.143 3.1939-.1631z" clip-rule="evenodd"/></svg>