<svg xmlns="http://www.w3.org/2000/svg" width="64" height="42" fill="none" viewBox="0 0 64 42"><g clip-path="url(#a)"><rect width="64" height="42" fill="#fff" rx="5"/><path fill="#19bfbf" d="M0 0h64v42H0z"/><path fill="#fff" fill-rule="evenodd" d="m30.6 30.8001-1.2065-2.413a.7.7 0 0 0-.6261-.387h-.6775a.7.7 0 0 1-.4949-.205l-5.19-5.19a.7.7 0 0 1-.205-.495V19.89a.7.7 0 0 0-.205-.4949l-2.4579-2.4579a.7.7 0 0 1-.1841-.3252l-1.2598-5.0391a.7.7 0 0 0-.4577-.4943l-3.7883-1.2628a.7.7 0 0 1-.0917-.038L11.387 8.5937A.7.7 0 0 1 11 7.9675V6.3a.7.7 0 0 1 .7-.7h1.8101a.7.7 0 0 1 .4949.205l.99.99a.7.7 0 0 0 .4949.205h2.2202a.7.7 0 0 0 .4949-.205l.99-.99a.7.7 0 0 1 .4949-.205h5.1449a.7.7 0 0 1 .313.0739l2.5044 1.2522a.7.7 0 0 0 .313.0739h2.4696a.7.7 0 0 0 .313-.0739l2.5044-1.2522a.7.7 0 0 1 .313-.0739H38.3a.7.7 0 0 1 .7.7v1.4a.7.7 0 0 1-.7.7h-1.4a.7.7 0 0 0-.7.7v3.0674c0 .2651.1498.5075.3869.6261l1.4.7c.4655.2327 1.0131-.1058 1.0131-.6261V10.5a.7.7 0 0 1 .7-.7h2.8a.7.7 0 0 1 .7.7.7.7 0 0 0 .7.7h2.8a.7.7 0 0 1 .7.7v1.9864c0 .0752-.0121.15-.0359.2214l-1.3118 3.9354a.7.7 0 0 1-.1692.2736l-4.0028 4.0029a.7.7 0 0 0-.1311.1819l-1.2753 2.5506a.7.7 0 0 0-.0739.313V27.3a.7.7 0 0 1-.7.7h-.2674a.7.7 0 0 1-.6261-.387l-1.013-2.0261a.7.7 0 0 0-.6261-.3869h-3.3348a.7.7 0 0 0-.6261.3869l-1.05 2.1a.7.7 0 0 0 0 .6261l1.05 2.1a.7.7 0 0 0 .6261.387H35.91a.7.7 0 0 1 .495.205l2.39 2.39a.7.7 0 0 1 .205.495v1.8101a.7.7 0 0 1-.7.7h-1.6674a.7.7 0 0 1-.6261-.387l-1.013-2.0261a.7.7 0 0 0-.6261-.3869h-1.9348a.7.7 0 0 1-.6261-.387z" clip-rule="evenodd"/></g><defs><clipPath id="a"><rect width="64" height="42" fill="#fff" rx="5"/></clipPath></defs></svg>