<svg xmlns="http://www.w3.org/2000/svg" width="64" height="42" fill="none" viewBox="0 0 64 42"><g clip-path="url(#a)"><rect width="64" height="42" fill="#fff" rx="5"/><path fill="#00abc2" d="M0 0h64v42H0z"/><path fill="#ffec2d" d="M33.276 23.073c2.824 0 5.113-2.289 5.113-5.113s-2.289-5.113-5.113-5.113-5.113 2.289-5.113 5.113 2.289 5.113 5.113 5.113m.001-10.923c.304-.004.418-.194.418-.422 0-.304-.418-1.752-.418-1.752s-.418 1.448-.418 1.752c0 .228.114.422.418.422m5.81 5.81c.004.304.194.418.422.418.304 0 1.752-.418 1.752-.418s-1.448-.418-1.752-.418c-.228 0-.422.114-.422.418m-5.81 5.81c-.304.004-.418.194-.418.422 0 .304.418 1.752.418 1.752s.418-1.448.418-1.752c0-.228-.114-.422-.418-.422m-5.811-5.81c-.004-.304-.194-.418-.422-.418-.304 0-1.752.418-1.752.418s1.448.418 1.752.418c.228 0 .422-.114.422-.418m8.034-5.368c.282.113.46-.019.548-.23.116-.281.284-1.778.284-1.778s-.94 1.178-1.056 1.459c-.087.211-.056.433.225.55m3.144 7.591c-.113.282.019.46.23.548.281.116 1.779.284 1.779.284s-1.178-.94-1.458-1.057c-.211-.087-.433-.056-.55.225m-7.593 3.144c-.282-.113-.46.019-.548.23-.116.281-.284 1.778-.284 1.778s.94-1.178 1.057-1.458c.087-.211.056-.433-.225-.55m-3.144-7.591c.113-.282-.019-.46-.23-.548-.281-.116-1.778-.284-1.778-.284s1.178.94 1.459 1.057c.211.087.433.056.55-.225m9.475-1.885c.218.212.433.159.594-.003.215-.215.943-1.534.943-1.534s-1.319.728-1.534.943c-.161.161-.218.379-.003.594m0 8.216c-.212.218-.158.433.003.594.215.215 1.534.943 1.534.943s-.728-1.319-.943-1.534c-.161-.161-.379-.218-.594-.003m-8.217 0c-.218-.212-.433-.158-.594.003-.215.215-.943 1.534-.943 1.534s1.319-.728 1.534-.943c.161-.161.218-.379.003-.594m0-8.216c.212-.218.159-.433-.003-.594-.215-.215-1.534-.943-1.534-.943s.728 1.319.943 1.534c.161.161.379.218.594.003m9.477 1.885c.12.279.339.312.55.225.281-.116 1.459-1.057 1.459-1.057s-1.497.168-1.778.284c-.211.087-.346.267-.23.548M35.5 23.328c-.279.12-.312.339-.225.55.116.281 1.057 1.458 1.057 1.458s-.168-1.497-.284-1.778c-.087-.211-.267-.346-.548-.23m-7.591-3.144c-.12-.279-.339-.312-.55-.225-.281.116-1.458 1.057-1.458 1.057s1.498-.168 1.778-.284c.211-.087.346-.267.23-.548m3.144-7.592c.279-.12.312-.339.225-.55-.116-.281-1.057-1.458-1.057-1.458s.168 1.498.284 1.778c.087.211.267.346.548.23m3.357-.33c.299.056.448-.109.492-.332.059-.298-.068-1.8-.068-1.8s-.692 1.339-.752 1.637c-.044.224.03.436.328.495m4.565 6.832c-.056.299.109.448.332.492.298.059 1.8-.068 1.8-.068s-1.338-.692-1.637-.752c-.224-.044-.436.03-.495.328m-6.832 4.565c-.299-.055-.448.109-.492.332-.059.298.068 1.8.068 1.8s.693-1.338.752-1.637c.044-.224-.03-.436-.328-.495m-4.565-6.832c.056-.299-.108-.448-.332-.492-.298-.059-1.8.068-1.8.068s1.339.692 1.637.752c.224.045.436-.029.495-.328m8.926-3.698c.255.166.455.071.582-.118.169-.253.626-1.689.626-1.689s-1.152.972-1.321 1.224c-.127.19-.139.414.113.583m1.603 8.059c-.166.255-.071.455.119.582.253.169 1.689.626 1.689.626s-.972-1.152-1.224-1.321c-.19-.127-.414-.14-.583.113m-8.06 1.603c-.255-.166-.455-.071-.582.119-.169.253-.626 1.689-.626 1.689s1.152-.972 1.321-1.224c.127-.19.14-.414-.113-.583m-1.603-8.06c.166-.255.071-.455-.118-.582-.253-.169-1.689-.626-1.689-.626s.972 1.152 1.224 1.321c.19.127.414.14.583-.113m9.662 0c.172.251.393.24.583.113.253-.169 1.224-1.321 1.224-1.321s-1.436.457-1.689.626c-.189.127-.287.329-.118.582m-1.603 8.059c-.251.172-.24.393-.113.583.169.253 1.321 1.224 1.321 1.224s-.457-1.436-.626-1.689c-.127-.19-.329-.287-.582-.118m-8.059-1.603c-.172-.251-.393-.24-.583-.113-.253.169-1.224 1.321-1.224 1.321s1.436-.457 1.689-.626c.19-.127.287-.329.119-.582m1.603-8.059c.251-.172.24-.393.113-.583-.169-.253-1.321-1.224-1.321-1.224s.457 1.436.626 1.689c.127.19.329.287.582.119m8.926 3.697c.063.297.272.372.495.328.298-.059 1.637-.752 1.637-.752s-1.501-.127-1.8-.068c-.224.045-.391.194-.332.492m-4.565 6.832c-.297.063-.372.272-.328.495.059.298.752 1.637.752 1.637s.128-1.501.068-1.8c-.044-.224-.194-.391-.492-.332m-6.832-4.565c-.063-.297-.272-.372-.495-.328-.298.059-1.637.752-1.637.752s1.502.128 1.8.068c.224-.044.392-.194.332-.492m4.565-6.832c.297-.063.372-.272.328-.495-.059-.298-.752-1.637-.752-1.637s-.127 1.502-.068 1.8c.044.224.194.392.492.332m.221 16.774c-.137.008-.27.025-.4.067-.179.024-.35.086-.527.115l-.071.011-.119.011a.44.44 0 0 1 .013.099.32.32 0 0 1-.013.095c-.008.027-.032.06-.051.08-.025.028-.052.052-.084.067a.26.26 0 0 1-.099.024c-.034.001-.07 0-.103-.013-.034-.011-.066-.033-.095-.058a.8.8 0 0 1-.106.019.44.44 0 0 1-.1 0 1.1 1.1 0 0 1-.106-.035.6.6 0 0 1-.099-.052c-.129.076-.274.148-.352.281-.044.061-.053.13-.063.203-.006.089.017.182.055.265.014.024.025-.087.068-.103.072-.06.162-.103.253-.127.077-.039.067.003.036.063-.008.032-.051.152.008.091.257-.114.542-.137.82-.158.403-.042.807-.051 1.211-.056l1.14.024c.181.005.364.046.542.015.043-.011.11-.014.136-.039-.081-.047-.176-.048-.266-.06h-.724c-.201-.02-.412-.023-.602-.099-.051-.02-.097-.068-.146-.016a.87.87 0 0 1-.225.048c-.133.01-.266-.018-.389-.067.089-.123.195-.231.293-.345a3 3 0 0 1-.233-.048c.138-.095.266-.203.4-.304"/><path fill="#ffec2d" d="M38.2822 30.3483c-.2753.1653-.4855-.1278-.7156-.2157-.1643.0893-.1797.3879-.3332.5294-.1838.2091-.4089-.0584-.3922-.2647-.2197.1852-.3308.605-.6861.549-.1684-.1374-.2934-.4257-.4221-.0975-.1048.1605-.3841.3888-.5288.1465-.0447-.214-.152-.4655-.2684-.1257-.0798.2403-.3363.4171-.5844.3119-.1358-.111.1089-.5216-.064-.4924-.2584.1708-.4086.595-.7692.561-.14-.1571.085-.4234-.0686-.5979-.1812.2327-.3824.5734-.696.5979-.1515-.1228.006-.475-.0908-.5271-.3217.1929-.6612.5368-1.0659.4291.1577-.6031.8166-.8148 1.3708-.8618.9534-.1172 1.9564.0983 2.8737-.2459.1482-.0901.5073-.218.3794-.4272-.1132-.1652.2947-.1006.3339-.2935-.0243-.2443.1872-.2107.3938-.2321.9263-.04 1.8413.1551 2.7648.1882.0698.45-.4294.766-.8313.627-.192.0312-.4798-.4413-.4234-.0976-.0387.1804-.0116.4187-.1764.5392m-7.8812-.9215c.2144.1963.3648-.0369.5652-.1222.6723-.2312 1.2589-.6353 1.8372-1.039.3503-.29.6541-.666 1.1247-.76.9179-.2776 1.8936-.2439 2.815-.5.7017-.9606 1.8934-1.3034 2.8917-1.8555.2242-.0697.3108-.2542.3824-.4579.381-.6015.9001-1.1345 1.5141-1.4987.2904-.1587.637-.2501.9658-.1775-.0235.3917-.2482.7388-.5195 1.0097.222-.0049.4128-.1451.6372-.1372.0768.4019-.3572.6123-.5882.8626.1286.0299.6214.0671.3529.196-.3422.2375-.733.4006-1.0489.6764.2914.0523.3247.1143.0283.2197-.1604.1087-.469.1467-.4988.3586.2202.1353-.1014.2697-.2254.3137-.2372.0552-.4864.1582-.1713.3384-.1192.1801-.3749.2185-.5835.2007.0633.204.1549.4324-.1099.5224-.5937.4488-1.2905.7753-2.0368.8499.9323.0717 1.8926-.1013 2.6893-.6084.1052-.1243.6567-.258.3482-.3626-.1452-.0604-.4566-.1275-.4776-.2383.4315-.2662.9752-.1715 1.4394-.3297.012-.1502-.3531-.1084-.4892-.1426-.3246-.0266-.3056-.1095.0074-.1402.396-.1049.8446-.1255 1.1777-.3837-.2712-.1257-.6124-.0151-.9018-.1177.4906-.2147 1.0694-.2362 1.5096-.5587.2005-.2231-.2569-.1534-.3901-.1479-.2717.0473-.3974-.0828-.0886-.1957.527-.3886 1.1944-.6411 1.5646-1.2045.0877-.1261.2065-.5061-.0732-.3694-.3679.1223-.6915.5358-1.1107.4079.8259-.6401 1.6117-1.3688 2.1762-2.2545.0291-.2555-.3719-.2831-.4763-.0826-.5305.5113-1.0108 1.1148-1.6901 1.4353.6506-.628 1.1885-1.3715 1.6578-2.1422.1006-.2292.371-.5048.2243-.7593-.2366-.1958-.5325-.0166-.6554.2177-.4125.5385-.7257 1.167-1.2561 1.6055.4644-.8862.9451-1.8296.9568-2.8517-.0014-.2105-.0437-.5204-.3294-.4811-.2266.0406-.1728.3797-.2662.5512-.2056.6983-.3021 1.4546-.7239 2.0661.0949-.5675.2609-1.159.1335-1.7321-.0596-.2561-.4731-.1459-.4198.1076-.4941 2.5026-2.1734 4.6914-4.3697 5.9576-1.0056.569-2.1288.9358-3.2716 1.1021-.3074.0673-.6399.0278-.9337.1326-.712.5459-1.1431 1.4595-2.0445 1.7455-.404.2008-.9309.2416-1.2197.6169-.025.048-.0304.1036-.0294.1568"/><path fill="#ffec2d" d="M33.099 26.888c-.133.242-.211.519-.382.735-.515-.468-1.26-.453-1.913-.484-.539-.029-1.125-.078-1.541-.463-.438-.359-.796-.825-1.286-1.117-.447-.122-.898-.274-1.258-.58-.768-.626-1.208-1.556-1.959-2.201-.143-.141-.312-.25-.472-.37-.152.037-.083.366-.27.198-.101-.072-.355-.079-.378.022.23.303.459.648.491 1.035-.157.016-.435-.033-.512.025.208.312.474.588.777.808-.145.023-.431.011-.487.069.301.245.623.495 1.016.558.081.106-.118.311.049.402.097.04.416.106.196.216-.151.102-.095.339.098.333.122.062.396.078.417.186-.108.11-.444.24-.158.344.268.148.573.245.878.255-.153.129-.342.202-.5.324.705.413 1.486.685 2.259.947.307.103.618.199.937.259-.926-.053-1.821-.328-2.664-.703-.437-.192-.877-.377-1.325-.542.196-.102.424-.127.627-.216-.423-.085-.885-.112-1.256-.345.057-.102.273-.106.392-.158.225-.054.364-.119.047-.139-.319-.087-.686-.048-.967-.24.018-.115.313-.075.433-.125.151-.026.319-.048.44-.149-.494-.205-1.14-.06-1.526-.496-.089-.166.277-.032.381-.06.265 0 .55.084.802-.023-.719-.316-1.49-.612-2.039-1.196-.061-.094-.243-.351-.096-.382.427.057.736.523 1.193.45.061-.082-.265-.216-.347-.333-.666-.571-1.312-1.192-1.779-1.94-.032-.25.361-.287.464-.094.509.491.97 1.063 1.604 1.398.225.109-.129-.129-.176-.216-.586-.681-1.144-1.4-1.554-2.201-.073-.144-.195-.406.025-.483.219-.11.437.04.548.228.431.544.748 1.19 1.285 1.643-.457-.888-.946-1.822-.958-2.843.011-.198.024-.497.292-.489.225-.034.19.255.264.392.222.75.319 1.563.765 2.225-.098-.557-.243-1.13-.147-1.696.022-.186.231-.242.368-.13.11.27.133.604.234.893.572 1.958 1.857 3.68 3.532 4.835 1.379.946 3.016 1.511 4.686 1.609.151.013.302.018.453.027m5.658 2.594a.09.09 0 1 0 0-.18.09.09 0 0 0 0 .18"/><path fill="#ffec2d" d="M38.7519 29.4152a.0363.0363 0 1 0 0-.0726.0363.0363 0 0 0 0 .0726"/><path fill="#ffec2d" fill-rule="evenodd" d="M38.7524 29.3499a.0295.0295 0 1 0 .0001.059.0295.0295 0 0 0-.0001-.059m-.0439.0295a.044.044 0 1 1 .088 0 .044.044 0 0 1-.088 0" clip-rule="evenodd"/><path fill="#ffec2d" d="M4.56 4.7711s-.3652-.3069-.4892-.153c-.1996.2476.6133 1.4808.6133 1.9151 0 .7128-.4757.9067-1.063 1.0085-.3941.0683-1.0358-.0286-1.0358-.0286.1208-.1624.1994-.2102.403-.2232-.2267-.1177-.4575-.3731-.4575-.7708 0-.6132.2524-.866.2524-1.5573 0-.3836-.3144-.8718-.3144-.8718.5559.0557.8314.5704.6746.9817.0885.0128.1688-.0072.2378-.0726.0407.114-.0236.2464-.1096.3604.0693.037.1202.0149.2306-.008-.0105.1176-.0809.2423-.2531.3598.4997-.1297.8072.2186.8072.5832 0 .2755-.193.4729-.3817.4729-.061 0-.1505-.0252-.201-.0629-.0356.0758-.0173.1773.0194.253-.1382-.0365-.226-.1186-.1635-.2895-.1063-.0098-.1907-.0457-.2482-.114.0582-.0746.1466-.1176.2481-.114-.0773-.1597.0089-.249.1345-.3214 0 0-.0799.3213.124.3213.0918 0 .1753-.0298.1753-.165 0-.1177-.1028-.2807-.3407-.2703s-.4306.164-.4306.5436c0 .3502.2825.5244.6547.5357.3357.0103.589-.1715.589-.5178 0-.4609-.6653-1.5114-.6653-1.922 0-.3082.2771-.4802.5483-.4802.3515 0 .6482.3481.6482.3481l-.2066.259z"/><path fill="#ffec2d" d="M4.6368 13.1013c0 .7703-.6915 1.1662-1.235 1.1662-.732 0-1.1218-.4378-1.1218-1.0108 0-.3248.0595-.5286.2092-.8395l1.6779-3.4828c.0586-.1211.0775-.259.0775-.4612 0-.3123-.3029-.5675-.6204-.5753-.2895-.0072-.6049.2699-.6049.5856 0 .3836.199.5546.4033.5546.2514 0 .3515-.1034.3515-.2799 0-.123-.0594-.1762-.1447-.1762-.2157 0-.1551.2902-.1551.2902-.1071-.0234-.1951-.1328-.1448-.2695a.39.39 0 0 1-.2094-.1244c.0578-.056.1241-.0993.2094-.114-.0505-.1667.017-.2481.1629-.2824-.0295.064-.0305.1231-.0207.1788.2296-.0654.5816.0386.5816.4353 0 .3939-.2734.7255-.7859.6427.122.0583.184.1775.1965.311-.0931-.0363-.1965-.0415-.1965-.0415.06.1056.1432.1967.1396.4042-.095-.0432-.1833-.1232-.305-.0726.1911.3761-.0437.8935-.6411 1.0159.2186-.2563.3257-.5331.3257-.8086 0-.8928-.2482-1.0429-.2482-1.6636 0-.2597.1335-.5402.3981-.7308v.0104c-.1748-.0469-.2869-.133-.3513-.25.3996-.1133.9804-.1112 1.2923.0115.3584.0415.6087.3166.6824.4562.0738.1396.217.6442 0 1.0986L2.854 12.697c-.0741.1583-.119.3262-.119.508 0 .4571.4187.6167.6566.6167.2844 0 .5739-.2166.5739-.4872 0-.1714-.0931-.2746-.2275-.2746-.3214 0-.3019.2734-.2378.4457-.2-.09-.3163-.2505-.2844-.4198-.1132-.0156-.221-.0692-.3205-.1814.0783-.0988.1737-.1736.3205-.1762-.064-.2627.1117-.3738.2844-.4354-.0546.1928-.0905.4147.2378.4147.2394 0 .4278.0414.5377.1969l.0258-1.0262c.0138-.3077-.4118-.2989-.6824-.2073.1021-.3544.3115-.5461.7962-.4975-.1177-.0492-.243-.1599-.243-.3732 0-.2885.2341-.6082.3878-.7027z"/><path fill="#ffec2d" d="M4.637 15.412c0-.77-.691-1.166-1.235-1.166-.732 0-1.122.438-1.122 1.011 0 .325.06.529.209.839l1.678 3.483c.059.121.078.259.078.461 0 .312-.303.568-.62.575-.289.007-.605-.27-.605-.586 0-.383.199-.554.403-.554.251 0 .352.103.352.28 0 .123-.059.176-.145.176-.216 0-.155-.29-.155-.29-.107.024-.195.133-.145.27a.39.39 0 0 0-.209.124c.058.056.124.099.209.114-.05.167.017.248.163.283-.029-.064-.03-.123-.021-.179.23.065.582-.039.582-.435 0-.394-.273-.726-.786-.643.122-.058.184-.178.197-.311-.093.036-.196.041-.196.041.06-.106.143-.197.14-.404-.095.043-.183.123-.305.073.191-.376-.044-.893-.641-1.016.219.256.326.533.326.809 0 .893-.248 1.043-.248 1.664 0 .26.134.54.398.731v-.01c-.175.047-.287.133-.351.25.4.113.98.111 1.292-.011.358-.042.609-.317.682-.456.074-.14.217-.644 0-1.099l-1.706-3.618c-.074-.158-.119-.326-.119-.508 0-.457.419-.617.657-.617.284 0 .574.217.574.487 0 .172-.093.275-.227.275-.321 0-.302-.273-.238-.446-.2.09-.316.251-.284.42-.113.016-.221.069-.32.181.078.099.174.174.321.176-.064.263.112.374.284.435-.055-.193-.09-.415.238-.415.239 0 .428-.041.538-.197l.026 1.026c.014.308-.412.299-.682.207.102.354.312.546.796.498-.118.049-.243.16-.243.373 0 .289.234.608.388.703zM4.56 4.771s.365-.307.489-.153c.2.248-.613 1.481-.613 1.915 0 .713.476.907 1.063 1.009.394.068 1.036-.028 1.036-.028-.121-.162-.199-.21-.403-.223.227-.118.458-.373.458-.771 0-.613-.252-.866-.252-1.557 0-.384.314-.872.314-.872-.556.056-.831.57-.675.982-.088.013-.169-.007-.238-.073-.041.114.024.246.11.36-.069.037-.12.015-.23-.008.011.118.081.242.253.36-.5-.13-.807.219-.807.583 0 .275.193.473.382.473.061 0 .151-.025.201-.063.036.076.017.177-.019.253.138-.036.226-.119.164-.289.106-.01.191-.046.248-.114a.294.294 0 0 0-.248-.114c.077-.16-.009-.249-.134-.321 0 0 .08.321-.124.321-.092 0-.175-.03-.175-.165 0-.118.103-.281.341-.27.238.01.431.164.431.544 0 .35-.282.524-.655.536-.336.01-.589-.171-.589-.518 0-.461.665-1.511.665-1.922 0-.308-.277-.48-.548-.48-.351 0-.648.348-.648.348l.207.259z"/><path fill="#ffec2d" d="M4.4833 13.1013c0 .7702.6915 1.1661 1.2349 1.1661.732 0 1.1219-.4377 1.1219-1.0107 0-.3248-.0595-.5286-.2093-.8395L4.953 8.9344c-.0586-.1212-.0776-.2591-.0776-.4613 0-.3122.303-.5674.6205-.5752.2895-.0073.6049.2698.6049.5856 0 .3836-.199.5546-.4033.5546-.2514 0-.3516-.1034-.3516-.28 0-.123.0594-.1761.1448-.1761.2156 0 .155.2902.155.2902.1072-.0234.1952-.1329.1449-.2695a.39.39 0 0 0 .2093-.1244c-.0578-.056-.124-.0993-.2093-.114.0505-.1667-.017-.2482-.1629-.2824.0294.064.0304.123.0207.1788-.2297-.0654-.5817.0386-.5817.4353 0 .3938.2734.7255.786.6426-.122.0583-.184.1776-.1965.311.093-.0363.1964-.0414.1964-.0414-.06.1056-.1431.1967-.1395.4042.095-.0432.1832-.1232.305-.0726-.1912.3761.0437.8934.641 1.0158-.2186-.2563-.3256-.533-.3256-.8085 0-.8928.2481-1.0429.2481-1.6636 0-.2597-.1335-.5402-.398-.7308v.0104c.1748-.0469.2868-.133.3512-.25-.3995-.1133-.9804-.1112-1.2922.0115-.3585.0415-.6088.3165-.6825.4561s-.217.6443 0 1.0987l1.7062 3.6175c.074.1583.1189.3262.1189.5079 0 .4572-.4188.6168-.6566.6168-.2844 0-.574-.2166-.574-.4872 0-.1714.0932-.2747.2276-.2747.3214 0 .3018.2735.2378.4457.2-.0899.3163-.2505.2843-.4197.1133-.0156.221-.0693.3206-.1815-.0783-.0988-.1738-.1735-.3206-.1762.0641-.2626-.1117-.3737-.2843-.4353.0546.1928.0904.4146-.2378.4146-.2394 0-.4278.0415-.5377.197l-.0259-1.0262c-.0138-.3077.4119-.299.6824-.2073-.102-.3545-.3115-.5461-.7961-.4976.1176-.0492.243-.1599.243-.3731-.0001-.2886-.2342-.6082-.3878-.7027z"/><path fill="#ffec2d" d="M4.483 15.412c0-.77.692-1.166 1.235-1.166.732 0 1.122.438 1.122 1.011 0 .325-.059.529-.209.84l-1.678 3.481c-.059.121-.078.259-.078.461 0 .312.303.567.621.575.29.007.605-.27.605-.586 0-.383-.199-.554-.403-.554-.251 0-.352.103-.352.28 0 .123.059.176.145.176.216 0 .155-.29.155-.29.107.023.195.133.145.27a.39.39 0 0 1 .209.124c-.058.056-.124.099-.209.114.051.167-.017.248-.163.283.029-.064.03-.123.021-.179-.23.065-.582-.039-.582-.435 0-.394.273-.725.786-.643-.122-.058-.184-.178-.196-.311.093.036.196.042.196.042-.06-.106-.143-.197-.139-.404.095.043.183.123.305.073-.191-.376.044-.893.641-1.016-.219.256-.326.533-.326.809 0 .893.248 1.043.248 1.664 0 .26-.133.54-.398.731v-.01c.175.047.287.133.351.25-.399.113-.98.111-1.292-.011-.358-.041-.609-.316-.682-.456s-.217-.644 0-1.099l1.706-3.617c.074-.158.119-.326.119-.508 0-.457-.419-.617-.657-.617-.284 0-.574.217-.574.487 0 .171.093.275.228.275.321 0 .302-.273.238-.446.2.09.316.251.284.42.113.016.221.069.321.181-.078.099-.174.174-.321.176.064.263-.112.374-.284.435.055-.193.09-.415-.238-.415-.239 0-.428-.041-.538-.197l-.026 1.026c-.014.308.412.299.682.207-.102.354-.311.546-.796.498.118.049.243.16.243.373 0 .289-.234.608-.388.703zm.077 21.817s-.365.307-.489.153c-.2-.247.613-1.481.613-1.915 0-.713-.476-.907-1.063-1.008-.394-.068-1.036.029-1.036.029.121.162.199.21.403.223-.227.118-.457.373-.457.771 0 .613.252.866.252 1.557 0 .384-.314.872-.314.872.556-.056.831-.57.675-.982.089-.013.169.007.238.073.041-.114-.024-.246-.11-.36.069-.037.12-.015.231.008-.01-.117-.081-.242-.253-.36.5.13.807-.219.807-.583 0-.275-.193-.473-.382-.473-.061 0-.15.025-.201.063-.036-.076-.017-.177.019-.253-.138.037-.226.119-.163.29-.106.01-.191.046-.248.114.058.075.147.118.248.114-.077.16.009.249.135.321 0 0-.08-.321.124-.321.092 0 .175.03.175.165 0 .118-.103.281-.341.27s-.431-.164-.431-.544c0-.35.283-.524.655-.536.336-.01.589.172.589.518 0 .461-.665 1.511-.665 1.922 0 .308.277.48.548.48.352 0 .648-.348.648-.348l-.207-.259z"/><path fill="#ffec2d" d="M4.6368 28.8986c0-.7702-.6915-1.1661-1.235-1.1661-.732 0-1.1218.4377-1.1218 1.0107 0 .3248.0595.5286.2092.8395l1.6779 3.4828c.0586.1212.0775.2591.0775.4613 0 .3122-.3029.5674-.6204.5752-.2895.0073-.6049-.2698-.6049-.5856 0-.3835.199-.5545.4033-.5545.2514 0 .3515.1033.3515.2798 0 .123-.0594.1762-.1447.1762-.2157 0-.1551-.2902-.1551-.2902-.1071.0234-.1951.1329-.1448.2695a.39.39 0 0 0-.2094.1244c.0578.056.1241.0993.2094.114-.0505.1667.017.2482.1629.2825-.0295-.0642-.0305-.1232-.0207-.1788.2296.0653.5816-.0386.5816-.4354 0-.3938-.2734-.7255-.7859-.6426.122-.0583.184-.1776.1965-.311-.0931.0363-.1965.0414-.1965.0414.06-.1056.1432-.1967.1396-.4042-.095.0432-.1833.1232-.305.0726.1911-.3761-.0437-.8934-.6411-1.0158.2186.2563.3257.533.3257.8085 0 .8928-.2482 1.0429-.2482 1.6636 0 .2598.1335.5402.3981.7308v-.0104c-.1748.0469-.2869.133-.3513.25.3996.1133.9804.1112 1.2923-.0115.3584-.0415.6087-.3165.6824-.4561.0738-.1396.217-.6442 0-1.0987L2.854 29.303c-.0741-.1583-.119-.3262-.119-.5079 0-.4572.4187-.6168.6566-.6168.2844 0 .5739.2166.5739.4872 0 .1714-.0931.2747-.2275.2747-.3214 0-.3019-.2734-.2378-.4457-.2.0899-.3163.2505-.2844.4198-.1132.0155-.221.0692-.3205.1814.0783.0988.1737.1735.3205.1762-.064.2626.1117.3737.2844.4353-.0546-.1928-.0905-.4146.2378-.4146.2394 0 .4278-.0415.5377-.197l.0258 1.0262c.0138.3077-.4118.299-.6824.2073.1021.3545.3115.5461.7962.4976-.1177.0492-.243.1599-.243.3731 0 .2886.2341.6082.3878.7027z"/><path fill="#ffec2d" d="M4.637 26.588c0 .77-.691 1.166-1.235 1.166-.732 0-1.122-.438-1.122-1.011 0-.325.06-.529.209-.839l1.678-3.483c.059-.121.078-.259.078-.461 0-.312-.303-.567-.62-.575-.289-.007-.605.27-.605.586 0 .384.199.555.403.555.251 0 .352-.103.352-.28 0-.123-.059-.176-.145-.176-.216 0-.155.29-.155.29-.107-.023-.195-.133-.145-.269a.39.39 0 0 1-.209-.124c.058-.056.124-.099.209-.114-.05-.167.017-.248.163-.282-.029.064-.03.123-.021.179.23-.065.582.039.582.435 0 .394-.273.726-.786.643.122.058.184.178.197.311-.093-.036-.196-.041-.196-.041.06.106.143.197.14.404-.095-.043-.183-.123-.305-.073.191.376-.044.894-.641 1.016.219-.256.326-.533.326-.809 0-.893-.248-1.043-.248-1.664 0-.26.134-.54.398-.731v.01c-.175-.047-.287-.133-.351-.25.4-.113.98-.111 1.292.012.358.042.609.317.682.456.074.14.217.644 0 1.099l-1.708 3.616c-.074.158-.119.326-.119.508 0 .457.419.617.657.617.284 0 .574-.217.574-.487 0-.171-.093-.275-.227-.275-.321 0-.302.273-.238.446-.2-.09-.316-.25-.284-.42-.113-.016-.221-.069-.32-.181.078-.099.174-.174.321-.176-.064-.263.112-.374.284-.435-.055.193-.09.415.238.415.239 0 .428.041.538.197l.026-1.026c.014-.308-.412-.299-.682-.207.102-.354.312-.546.796-.497-.118-.049-.243-.16-.243-.373 0-.288.234-.608.388-.703zM4.56 37.229s.365.307.489.153c.2-.248-.613-1.481-.613-1.915 0-.713.476-.907 1.063-1.008.394-.068 1.036.029 1.036.029-.121.162-.199.21-.403.223.227.118.458.373.458.771 0 .613-.252.866-.252 1.557 0 .384.314.872.314.872-.556-.056-.831-.57-.675-.982-.088-.013-.169.007-.238.073-.041-.114.024-.246.11-.36-.069-.037-.12-.015-.23.008.011-.117.081-.242.253-.36-.5.13-.807-.218-.807-.583 0-.275.193-.473.382-.473.061 0 .151.025.201.063.036-.076.017-.177-.019-.253.138.037.226.119.164.29.106.01.191.046.248.114a.294.294 0 0 1-.248.114c.077.16-.009.249-.134.321 0 0 .08-.321-.124-.321-.092 0-.175.03-.175.165 0 .118.103.281.341.27s.431-.164.431-.544c0-.35-.282-.524-.655-.536-.336-.01-.589.172-.589.518 0 .461.665 1.511.665 1.922 0 .308-.277.48-.548.48-.351 0-.648-.348-.648-.348l.207-.259z"/><path fill="#ffec2d" d="M4.4833 28.8987c0-.7703.6915-1.1662 1.2349-1.1662.732 0 1.1219.4378 1.1219 1.0108 0 .3248-.0595.5286-.2093.8395L4.953 33.0656c-.0586.1211-.0776.2591-.0776.4612 0 .3123.303.5675.6205.5753.2895.0072.6049-.2699.6049-.5856 0-.3836-.199-.5546-.4033-.5546-.2514 0-.3516.1034-.3516.2799 0 .123.0594.1762.1448.1762.2156 0 .155-.2902.155-.2902.1072.0234.1952.1328.1449.2695a.388.388 0 0 1 .2093.1244c-.0578.056-.124.0993-.2093.114.0505.1667-.017.2481-.1629.2824.0294-.0641.0304-.1231.0207-.1788-.2297.0653-.5817-.0386-.5817-.4353 0-.3939.2734-.7255.786-.6427-.122-.0583-.184-.1775-.1965-.3109.093.0362.1964.0414.1964.0414-.06-.1056-.1431-.1967-.1395-.4042.095.0432.1832.1232.305.0726-.1912-.3761.0437-.8935.641-1.0159-.2186.2563-.3256.5331-.3256.8086 0 .8928.2481 1.0429.2481 1.6636 0 .2597-.1335.5402-.398.7308v-.0104c.1748.0469.2868.133.3512.25-.3995.1133-.9804.1112-1.2922-.0115-.3585-.0415-.6088-.3166-.6825-.4562s-.217-.6442 0-1.0986l1.7062-3.6175c.074-.1583.1189-.3262.1189-.508 0-.4571-.4188-.6167-.6566-.6167-.2844 0-.574.2166-.574.4872 0 .1714.0932.2746.2276.2746.3214 0 .3018-.2734.2378-.4457.2.09.3163.2505.2843.4198.1133.0156.221.0692.3206.1814-.0783.0988-.1738.1736-.3206.1762.0641.2627-.1117.3738-.2843.4354.0546-.1928.0904-.4147-.2378-.4147-.2394 0-.4278-.0414-.5377-.1969l-.0259 1.0262c-.0138.3077.4119.2989.6824.2073-.102.3544-.3115.5461-.7961.4975.1176.0492.243.1599.243.3732-.0001.2885-.2342.6082-.3878.7027z"/><path fill="#ffec2d" d="M4.4833 26.5885c0 .7702.6915 1.1661 1.2349 1.1661.732 0 1.1219-.4377 1.1219-1.0107 0-.3248-.0595-.5286-.2093-.8395L4.953 22.4216c-.0586-.1212-.0776-.2591-.0776-.4613 0-.3122.303-.5674.6205-.5753.2895-.0072.6049.2699.6049.5857 0 .3835-.199.5545-.4033.5545-.2514 0-.3516-.1033-.3516-.2798 0-.123.0594-.1762.1448-.1762.2156 0 .155.2902.155.2902.1072-.0234.1952-.1329.1449-.2695a.39.39 0 0 0 .2093-.1244c-.0578-.0561-.124-.0993-.2093-.114.0505-.1668-.017-.2482-.1629-.2825.0294.0641.0304.1232.0207.1788-.2297-.0653-.5817.0386-.5817.4354 0 .3938.2734.7255.786.6426-.122.0583-.184.1776-.1965.311.093-.0363.1964-.0415.1964-.0415-.06.1057-.1431.1968-.1395.4043.095-.0433.1832-.1232.305-.0726-.1912.3761.0437.8934.641 1.0158-.2186-.2563-.3256-.533-.3256-.8085 0-.8928.2481-1.0429.2481-1.6636 0-.2598-.1335-.5402-.398-.7308v.0104c.1748-.0469.2868-.133.3512-.25-.3995-.1133-.9804-.1112-1.2922.0115-.3585.0415-.6088.3165-.6825.4561s-.217.6442 0 1.0987l1.7062 3.6175c.074.1583.1189.3262.1189.5079 0 .4571-.4188.6167-.6566.6167-.2844 0-.574-.2166-.574-.4871 0-.1714.0932-.2747.2276-.2747.3214 0 .3018.2734.2378.4457.2-.0899.3163-.2505.2843-.4198.1133-.0155.221-.0692.3206-.1814-.0783-.0988-.1738-.1735-.3206-.1762.0641-.2626-.1117-.3737-.2843-.4353.0546.1928.0904.4146-.2378.4146-.2394 0-.4278.0415-.5377.197l-.0259-1.0262c-.0138-.3077.4119-.299.6824-.2074-.102-.3544-.3115-.546-.7961-.4975.1176-.0492.243-.1599.243-.3731-.0001-.2886-.2342-.6082-.3878-.7027z"/></g><defs><clipPath id="a"><rect width="64" height="42" fill="#fff" rx="5"/></clipPath></defs></svg>