<svg xmlns="http://www.w3.org/2000/svg" width="64" height="42" fill="none" viewBox="0 0 64 42"><g clip-path="url(#a)"><rect width="64" height="42" fill="#fff" rx="5"/><rect width="63" height="41" x="1" y="1" stroke="#f5f5f5" rx="5"/><path fill="#d82332" fill-rule="evenodd" d="M0 11.2h64V0H0zM0 42h64V30.8H0z" clip-rule="evenodd"/><g clip-path="url(#b)"><g fill-rule="evenodd" clip-path="url(#c)" clip-rule="evenodd"><path fill="#064a89" d="m30.042 22.581-.597.557c.54.152 1.289-.025 1.587-.557zm-4.82.379c.404.404 1.074.357 1.478.101s.702-.272.954-.245c.027.228.086.521.189.81h-2.398c-.06-.148-.176-.493-.222-.665m.444 1.079c.471-.222.952-.046 1.16.114.385.297 1.02.216 1.331.048.119.194.263.385.438.53H26.03c-.104-.168-.33-.582-.363-.692m11.159 1.842c.113-.114.265-.303.365-.438-.166-.02-.358-.14-.563-.242-.378-.189-.739-.189-1.061.034-.477.33-1.074.411-1.538.081-.509-.362-.981-.283-1.379-.054s-.65.242-.888.242-.49-.013-.888-.242-.87-.308-1.379.054c-.464.33-1.061.249-1.538-.081-.322-.222-.683-.222-1.061-.034-.205.102-.397.222-.563.243.1.135.252.323.365.438zm-1.242 1.126c.106-.067.398-.289.544-.404-.159.034-.522-.084-.709-.182-.544-.283-.902-.256-1.306-.04s-.974.33-1.392.101c-.417-.229-.716-.29-.935-.29s-.517.061-.935.29-.988.115-1.392-.101c-.404-.215-.762-.242-1.306.04-.187.098-.55.216-.709.182.146.115.438.337.544.404zm-2.39-2.238c-.113-.06-.244-.202-.365-.383-.192-.29-.497-.451-.954-.451s-.762.162-.954.451c-.12.181-.252.322-.364.383zm-.752-1.04c-.046-.081-.146-.337-.179-.472-.106.034-.311.047-.431.047-.119 0-.325-.013-.431-.047-.033.135-.132.391-.179.472zm1.104-1.149.597.557c-.54.152-1.289-.025-1.587-.557zm4.963.379c-.404.404-1.074.357-1.478.101s-.702-.272-.954-.245a3.86 3.86 0 0 1-.188.81h2.398c.06-.148.176-.493.222-.665m-.358 1.079c-.471-.222-.952-.046-1.16.114-.384.297-1.02.216-1.331.048-.119.194-.263.385-.437.53h2.566c.104-.168.33-.582.363-.692m-3.718 3.41a6.78 6.78 0 0 1-2.605.517 6.78 6.78 0 0 1-2.606-.518c.172-.02.4-.105.584-.209.299-.168.842-.202 1.101-.034.258.168.57.337.921.337s.663-.168.921-.337c.259-.168.802-.135 1.101.034.184.104.411.189.583.209"/><path fill="#514537" d="M33.313 14.127c-1.452-.303-2.757-.128-2.757 1.26v3.799c0 .418.008.47.497.586 1.06.251 1.16.276 2.313.545v-3.906c-.901-.101-1.246-.615-1.246-1.212 0-.579.398-.956 1.193-1.071m-3.72 10.712c-.809 0-1.657-.714-1.657-2.074v-3.381c0-.306.034-.349-.036-.421-.041-.042.047-.104.106-.165.09-.091.151-.167.03-.29s-.069-.155.007-.232c.076-.078.106-.155.033-.229s-.089-.097-.01-.178c.08-.081.047-.114-.02-.182-.066-.067-.098-.116-.013-.202.083-.084.089-.098.186-.098h.398c.093 0 .095.029.017.108-.101.103-.131.143-.016.259.114.116.109.155.037.229-.11.111-.158.187-.046.3.111.113.121.163.037.249s-.093.162 0 .256c.071.073.076.115.076.243v3.452c0 .579.411.929 1.193.929s1.047-.323 1.273-.539c-.146 1.037-.57 1.967-1.591 1.967m2.279-3.306c.109.033.215.195.215.37h.216c0-.148-.063-.377-.177-.519a.5.5 0 0 0-.015-.101c.08-.101.196-.263.192-.418-.002-.098-.116-.094-.129-.017-.011.064-.053.162-.132.195 0-.125-.07-.273-.169-.273s-.169.148-.169.273c-.079-.034-.121-.132-.132-.195-.013-.077-.127-.081-.129.017-.003.155.113.317.192.418a.5.5 0 0 0-.015.101c-.114.142-.177.371-.177.519h.216c0-.175.106-.337.215-.37"/><path fill="#514537" d="M30.765 21.535c.109.033.216.195.216.37h.215c0-.148-.063-.377-.177-.519a.48.48 0 0 0-.015-.101c.08-.101.196-.263.192-.418-.002-.098-.116-.094-.129-.017-.011.064-.053.162-.132.195 0-.125-.069-.273-.169-.273-.099 0-.169.148-.169.273-.079-.034-.122-.132-.133-.195-.013-.077-.127-.081-.129.017-.003.155.113.317.192.418a.5.5 0 0 0-.015.101c-.114.142-.177.371-.177.519h.216c0-.175.106-.337.215-.37m-1.113 0c.109.033.215.195.215.37h.216c0-.148-.063-.377-.177-.519a.5.5 0 0 0-.015-.101c.08-.101.196-.263.192-.418-.002-.098-.116-.094-.129-.017-.011.064-.053.162-.133.195 0-.125-.069-.273-.169-.273-.099 0-.169.148-.169.273-.079-.034-.121-.132-.132-.195-.013-.077-.127-.081-.129.017-.003.155.113.317.192.418a.47.47 0 0 0-.015.101c-.114.142-.177.371-.177.519h.215c0-.175.106-.337.216-.37m3.333 0c-.109.033-.215.195-.215.37h-.216c0-.148.063-.377.177-.519a.45.45 0 0 1 .015-.101c-.08-.101-.196-.263-.192-.418.002-.098.116-.094.129-.017.011.064.053.162.132.195 0-.125.07-.273.169-.273.1 0 .169.148.169.273.079-.034.122-.132.133-.195.013-.077.127-.081.129.017.003.155-.113.317-.192.418a.48.48 0 0 1 .015.101c.114.142.177.371.177.519h-.215c0-.175-.106-.337-.215-.37m1.111 0c-.109.033-.215.195-.215.37h-.216c0-.148.063-.377.177-.519a.5.5 0 0 1 .015-.101c-.079-.101-.195-.263-.192-.418.002-.098.116-.094.129-.017.011.064.053.162.132.195 0-.125.07-.273.169-.273.1 0 .169.148.169.273.08-.034.122-.132.133-.195.013-.077.127-.081.129.017.003.155-.113.317-.192.418a.5.5 0 0 1 .015.101c.114.142.177.371.177.519h-.215c0-.175-.106-.337-.216-.37M29 22.129h5.833v.28H29z"/><path fill="#514537" d="M34.1466 24.8398c.8086 0 1.6571-.714 1.6571-2.0744v-3.3813c0-.3064-.034-.3495.0364-.4209.0413-.042-.0464-.1043-.106-.165-.0895-.091-.1509-.1667-.03-.2898.1211-.1228.0696-.1549-.0064-.2321-.0765-.0777-.1063-.1549-.0334-.2292.0729-.074.0896-.0975.01-.1784-.0795-.0808-.0464-.1145.0198-.182.0665-.0673.0978-.116.0133-.2018-.0828-.0843-.0893-.0978-.1855-.0978h-.3978c-.0927 0-.0944.0287-.0164.1079.1011.1025.1309.143.0164.2592-.1142.1161-.1093.155-.0364.229.1095.1111.1573.187.0464.2999-.1111.1127-.1211.1632-.0364.2491.0844.0858.0929.1616 0 .2558-.0714.0725-.0763.1147-.0763.2425v3.4519c0 .5792-.4111.9294-1.1931.9294-.7822 0-1.0471-.3233-1.2726-.5387.1457 1.0371.57 1.9667 1.5909 1.9667"/><path fill="#eea339" d="M29 20.316v-.445l1.166.445zm-1.391.207L25 20.165a7.1 7.1 0 0 1 .425-1.649l2.184.881zM33 16.161l.464-1.936a6.83 6.83 0 0 1 1.57.601l-1.496 2.909.005-1.461c-.173.001-.438-.026-.544-.114m-5.328 4.552-2.658-.164a7.13 7.13 0 0 0 .102 1.702s2.556.016 2.556 0zm-.027-1.821c-.086-.114-.033-.175.06-.236.093-.06.08-.108.033-.195-.046-.088-.093-.182-.007-.276s.053-.135-.013-.202-.073-.141-.013-.195.047-.094.007-.148-.118-.163-.048-.234l-1.084-.92a7.04 7.04 0 0 0-.912 1.431zm2.598.501-1.292-1.273c.182-.185.2-.215.071-.347-.141-.143-.146-.158.141-.45.098-.099.043-.168-.096-.168h-.852c-.073 0-.13.004-.184.058L27 16.199a6.93 6.93 0 0 1 1.306-1.07l1.935 3.162zm-1.344.194v-.674c0-.094-.007-.131-.079-.205s-.036-.109.02-.19l1.226 1.038v.609zm1.148-1.849v-1.493c0-.97.054-1.455.193-1.552l-.111-.466c-.544.149-1.072.35-1.572.616zm4.787 2.579v-.445l-1.166.445zm1.278.207 2.609-.357a7.1 7.1 0 0 0-.425-1.649l-2.184.881zm0 .189 2.658-.164a7.12 7.12 0 0 1-.102 1.702s-2.556.016-2.556 0zm-.084-1.821c.086-.114.033-.175-.06-.236-.093-.06-.079-.108-.033-.195.046-.088.093-.182.007-.276s-.053-.135.013-.202.073-.141.013-.195-.046-.094-.007-.148c.04-.054.118-.163.048-.234l1.084-.92c.358.435.665.916.912 1.431zm-2.36.501 1.292-1.273c-.182-.185-.201-.215-.071-.347.141-.143.146-.158-.141-.45-.098-.099-.043-.168.096-.168h.852c.073 0 .13.004.184.058l1.03-1.013a6.93 6.93 0 0 0-1.306-1.07l-1.935 3.162zm1.166.194v-.674c0-.094.007-.131.08-.205s.037-.109-.02-.19l-1.226 1.038v.609z"/><path fill="#d82332" d="M28.111 18.968c.046.047.066.094.066.209v3.603c0 1.199.716 1.866 1.452 1.866.676 0 1.12-.626 1.352-1.354-.298.236-.736.31-1.153.31-.484 0-1.266-.33-1.266-1.044v-3.496c0-.094-.093-.094-.451-.094m4.227-4.722c-.924-.095-1.782.1-1.782 1.382v3.404c0 .568-.044.501.43.62.86.217.958.244 2.001.486v-3.463c-.891-.099-1.277-.692-1.277-1.348 0-.522.227-1.014.628-1.08m3.31 4.721c-.046.047-.066.094-.066.209v3.603c0 1.199-.716 1.866-1.452 1.866-.676 0-1.12-.626-1.352-1.354.298.236.736.31 1.154.31.484 0 1.266-.33 1.266-1.044v-3.496c0-.094.093-.094.451-.094"/></g><g clip-path="url(#d)"><mask id="e" width="14" height="14" x="25" y="14" maskUnits="userSpaceOnUse" style="mask-type:luminance"><circle cx="32" cy="21" r="7" fill="#fff"/></mask><g mask="url(#e)"><circle cx="32" cy="32" r="7" fill="#064a89"/></g></g></g></g><defs><clipPath id="a"><rect width="64" height="42" fill="#fff" rx="5"/></clipPath><clipPath id="b"><path fill="#fff" d="M25 14h14v14H25z"/></clipPath><clipPath id="c"><path fill="#fff" d="M25 14h14v14H25z"/></clipPath><clipPath id="d"><path fill="#fff" d="M25 14h14v14H25z"/></clipPath></defs></svg>