<svg xmlns="http://www.w3.org/2000/svg" width="64" height="42" fill="none" viewBox="0 0 64 42"><g clip-path="url(#a)"><rect width="64" height="42" fill="#fff" rx="5"/><path fill="#e42235" d="M-.4 0H64v42H-.4z"/><path fill="#079b77" d="M5.646 5.6h52.83v30.8H5.646z"/><path fill="#ffd93b" fill-rule="evenodd" d="M32.061 21 58.476 5.6H5.646zL5.646 36.4h52.83z" clip-rule="evenodd"/><circle cx="32" cy="21" r="7" fill="url(#b)"/><path fill="#ffd938" fill-rule="evenodd" d="M11.826 21.277c.793 1.269 1.931 2.106 2.991 2.321.584.118-.485-2.558-.019-2.849.397-.248 2.309 1.978 2.476 1.513.385-1.068.158-2.581-.699-3.952-1.229-1.967-1.277-.669-4.6-2.078.347 2.015-1.378 3.079-.149 5.046M32 23.16l-3.292 2.371 1.238-3.863-3.272-2.398 4.057-.017L32 15.4l1.269 3.853 4.057.017-3.272 2.398 1.238 3.863z" clip-rule="evenodd"/></g><defs><linearGradient id="b" x1="25" x2="25" y1="14" y2="28" gradientUnits="userSpaceOnUse"><stop stop-color="#e21c30"/><stop offset="1" stop-color="#ce1225"/></linearGradient><clipPath id="a"><rect width="64" height="42" fill="#fff" rx="5"/></clipPath></defs></svg>