<svg xmlns="http://www.w3.org/2000/svg" width="64" height="42" fill="none" viewBox="0 0 64 42"><g clip-path="url(#a)"><rect width="64" height="42" fill="#fff" rx="5"/><rect width="63" height="41" x="1" y="1" stroke="#f5f5f5" rx="5"/><path fill="#262626" fill-rule="evenodd" d="M0 42h64V28H0z" clip-rule="evenodd"/><path fill="#e32139" fill-rule="evenodd" d="M0 14h64V0H0z" clip-rule="evenodd"/><path fill="#128a49" fill-rule="evenodd" d="m22.2 23.296-3.292 2.235 1.108-3.821-3.142-2.44 3.976-.127L22.2 15.4l1.35 3.743 3.976.127-3.142 2.44 1.108 3.821zm19.6 0-3.292 2.235 1.108-3.821-3.142-2.44 3.976-.127L41.8 15.4l1.35 3.743 3.976.127-3.142 2.44 1.108 3.821z" clip-rule="evenodd"/></g><defs><clipPath id="a"><rect width="64" height="42" fill="#fff" rx="5"/></clipPath></defs></svg>