<svg xmlns="http://www.w3.org/2000/svg" width="64" height="42" fill="none" viewBox="0 0 64 42"><g clip-path="url(#a)"><rect width="64" height="42" fill="#fff" rx="5"/><path fill="red" d="M0 0h64v42H0z"/><path fill="#fff" fill-rule="evenodd" d="M27.8 25.2h-7.7a.7.7 0 0 1-.7-.7v-7a.7.7 0 0 1 .7-.7h7.7V9.1a.7.7 0 0 1 .7-.7h7a.7.7 0 0 1 .7.7v7.7h7.7a.7.7 0 0 1 .7.7v7a.7.7 0 0 1-.7.7h-7.7v7.7a.7.7 0 0 1-.7.7h-7a.7.7 0 0 1-.7-.7z" clip-rule="evenodd"/></g><defs><clipPath id="a"><rect width="64" height="42" fill="#fff" rx="5"/></clipPath></defs></svg>