<svg xmlns="http://www.w3.org/2000/svg" width="64" height="42" fill="none" viewBox="0 0 64 42"><g clip-path="url(#a)"><rect width="64" height="42" fill="#fff" rx="5"/><path fill="#95cef5" d="M0 0h64v42H0z"/><path fill="#fff" fill-rule="evenodd" d="m28.7081 14.3304 3.2916-2.2344 3.2916 2.2344-1.1079-3.8209 3.1423-2.44-3.9764-.127L31.9997 4.2l-1.3495 3.7425-3.9764.127 3.1423 2.44zm0 22.4 3.2916-2.2345 3.2916 2.2345-1.1079-3.821 3.1423-2.44-3.9764-.127-1.3496-3.7425-1.3495 3.7425-3.9764.127 3.1423 2.44zM43.1998 23.296l-3.2916 2.2345 1.108-3.821-3.1423-2.44 3.9764-.127L43.1998 15.4l1.3496 3.7425 3.9763.127-3.1422 2.44 1.1079 3.821zm-25.6915 2.2345 3.2916-2.2345 3.2916 2.2345-1.108-3.821 3.1423-2.44-3.9763-.127L20.7999 15.4l-1.3495 3.7425-3.9764.127 3.1423 2.44z" clip-rule="evenodd"/></g><defs><clipPath id="a"><rect width="64" height="42" fill="#fff" rx="5"/></clipPath></defs></svg>