<svg xmlns="http://www.w3.org/2000/svg" width="64" height="42" fill="none" viewBox="0 0 64 42"><g clip-path="url(#a)"><rect width="64" height="42" fill="#fff" rx="5"/><path fill="#262626" fill-rule="evenodd" d="M0 5.6h64V0H0zM0 28h64v-5.6H0z" clip-rule="evenodd"/><path fill="#ed1623" fill-rule="evenodd" d="M0 22.4003h64v-8.4001H0z" clip-rule="evenodd"/><path fill="#fee044" fill-rule="evenodd" d="M0 14.0001h64v-8.4H0z" clip-rule="evenodd"/><path fill="#ed1623" fill-rule="evenodd" d="M0 41.9999h64v-5.6H0z" clip-rule="evenodd"/><path fill="#fee044" fill-rule="evenodd" d="M0 36.4h64V28H0z" clip-rule="evenodd"/><circle cx="32" cy="21" r="10" fill="#fff"/><path fill="#262626" fill-rule="evenodd" d="M29.6949 15.895a.7.7 0 0 1 0-.99l.8649-.8649a.8.8 0 0 0 .0735-.0848c.0736-.097.2609-.3336.48-.5328.3711-.3375 1.4283-.3729 1.7945-.0301.0995.093.1903.1967.2662.2916.151.1889.1602.4475.052.6639l-1.1522 2.3043a.7.7 0 0 0-.0739.3131v.8021a.7.7 0 0 0 .387.6261l2.3115 1.1557a.7.7 0 0 1 .1819.1312l2.3629 2.3629a.7.7 0 0 1 .1311.808l-.74 1.4801c-.2137.4273-.7832.5198-1.1211.1819l-.2183-.2183a.7.7 0 0 0-.9899 0l-.7.7a.7.7 0 0 0-.2051.495v.8201a.7.7 0 0 0 .2051.495c.441.441.1286 1.195-.495 1.195h-.8201c-.6236 0-.936-.754-.495-1.195a.7.7 0 0 0 .205-.495v-.41a.7.7 0 0 0-.7-.7h-.41a.7.7 0 0 0-.495.205l-.7.7a.7.7 0 0 1-.9899 0l-.4101-.4101a.7.7 0 0 1 0-.9899l.7-.7a.7.7 0 0 1 .495-.2051h.8201c.6236 0 .9359-.754.495-1.1949l-2.5101-2.5101a.7.7 0 0 1 0-.9899l1.8101-1.8101a.7.7 0 0 0 0-.99z" clip-rule="evenodd"/></g><defs><clipPath id="a"><rect width="64" height="42" fill="#fff" rx="5"/></clipPath></defs></svg>