<svg xmlns="http://www.w3.org/2000/svg" width="64" height="42" fill="none" viewBox="0 0 64 42"><g clip-path="url(#a)"><rect width="64" height="42" fill="#fff" rx="5"/><path fill="#0a17a7" d="M0 0h65.6823v42H0z"/><g clip-path="url(#b)"><path fill="#fff" fill-rule="evenodd" d="M38.0134 22.2815V14l3.3126 1.6563L44.6386 14l3.3126 1.6563L51.2638 14v8.2815c0 4.9688-6.6252 8.2814-6.6252 8.2814s-6.6252-3.3126-6.6252-8.2814" clip-rule="evenodd"/><mask id="c" width="14" height="17" x="38" y="14" maskUnits="userSpaceOnUse" style="mask-type:luminance"><path fill="#fff" fill-rule="evenodd" d="M38.0134 22.2815V14l3.3126 1.6563L44.6386 14l3.3126 1.6563L51.2638 14v8.2815c0 4.9688-6.6252 8.2814-6.6252 8.2814s-6.6252-3.3126-6.6252-8.2814" clip-rule="evenodd"/></mask><g mask="url(#c)"><path fill="#9accff" d="M38.0134 27.2503h13.2503v3.3126H38.0134z"/><path fill="url(#d)" fill-rule="evenodd" d="M46.295 18.9689c0 .9147-.7416 1.6562-1.6563 1.6562s-1.6563-.7415-1.6563-1.6562c0-.9148.7415-1.6563 1.6563-1.6563.9147 0 1.6563.7415 1.6563 1.6563m-3.3127 3.3125c0 .9148-.7416 1.6563-1.6563 1.6563s-1.6563-.7415-1.6563-1.6563c0-.9147.7415-1.6563 1.6563-1.6563.9147 0 1.6563.7416 1.6563 1.6563m4.9688 1.6563c.9147 0 1.6563-.7415 1.6563-1.6563 0-.9147-.7416-1.6563-1.6563-1.6563s-1.6563.7416-1.6563 1.6563.7415 1.6563 1.6563 1.6563" clip-rule="evenodd"/></g></g><path fill="#0a17a7" d="M0 19.6h24.932v6.101H0zm24.932 4.8V-.532h6.101V24.4z"/><mask id="e" width="27" height="21" x="0" y="0" maskUnits="userSpaceOnUse" style="mask-type:alpha"><path fill="#0a17a7" d="M0 0h26.7133v21H0z"/></mask><g mask="url(#e)"><mask id="f" width="35" height="27" x="-4" y="-3" fill="#000" maskUnits="userSpaceOnUse"><path fill="#fff" d="M-4-3h35v27H-4z"/><path fill-rule="evenodd" d="M10.3885 9 0 0h1.484l10.3886 7.5h2.9682L26.7134 0v1.5L16.3248 9v3l10.3886 9h-1.2582a.7.7 0 0 1-.4091-.1322L14.8408 13.5h-2.9682L0 21v-1.5L10.3885 12z" clip-rule="evenodd"/></mask><path fill="#ff2e3b" fill-rule="evenodd" d="M10.3885 9 0 0h1.484l10.3886 7.5h2.9682L26.7134 0v1.5L16.3248 9v3l10.3886 9h-1.2582a.7.7 0 0 1-.4091-.1322L14.8408 13.5h-2.9682L0 21v-1.5L10.3885 12z" clip-rule="evenodd"/><path stroke="#fff" stroke-width="3" d="M10.3885 9 0 0h1.484l10.3886 7.5h2.9682L26.7134 0v1.5L16.3248 9v3l10.3886 9h-1.2582a.7.7 0 0 1-.4091-.1322L14.8408 13.5h-2.9682L0 21v-1.5L10.3885 12z" clip-rule="evenodd" mask="url(#f)"/><path fill="#fff" fill-rule="evenodd" d="M0 7.5v6h10.3885v7.6024c0 .7719.6258 1.3976 1.3976 1.3976h3.1411c.7719 0 1.3976-.6257 1.3976-1.3976V13.5h10.4751c.7718 0 1.3975-.6257 1.3975-1.3976V8.8976c0-.7719-.6257-1.3976-1.3975-1.3976H16.3248V0h-5.9363v7.5z" clip-rule="evenodd"/><path fill="#ff2e3b" fill-rule="evenodd" d="M0 9h11.8726V0h2.9682v9h11.8726v3H14.8408v9h-2.9682v-9H0z" clip-rule="evenodd"/></g></g><defs><clipPath id="a"><rect width="64" height="42" fill="#fff" rx="5"/></clipPath><clipPath id="b"><path fill="#fff" d="M38.0134 14h14.7737v17.421H38.0134z"/></clipPath><linearGradient id="d" x1="40" x2="40" y1="17" y2="24" gradientUnits="userSpaceOnUse"><stop stop-color="#ffa51b"/><stop offset="1" stop-color="#ff9a00"/></linearGradient></defs></svg>