<svg xmlns="http://www.w3.org/2000/svg" width="64" height="42" fill="none" viewBox="0 0 64 42"><g clip-path="url(#a)"><rect width="64" height="42" fill="#fff" rx="5"/><path fill="#043cae" d="M0 0h64v42H0z"/><path fill="#ffd429" fill-rule="evenodd" d="m30.0199 8.98 1.9799-.5798 1.9799.5799L33.3998 7l.5799-1.9798-1.9799.5799-1.9799-.58.5799 1.98zm0 28.0004 1.9799-.5799 1.9799.5799-.5799-1.9799.5799-1.9799-1.9799.5799-1.9799-.5799.5799 1.9799zm15.9798-14.5801-1.9799.5799.5799-1.9799-.5799-1.9799 1.9799.5799 1.9799-.5799-.5799 1.9799.5799 1.9799zm-29.9797.5799 1.9799-.5799 1.9799.5799-.5799-1.9799.5799-1.9799-1.9799.5799-1.9799-.5799.5799 1.9799zm28.1043-7.5797-1.9799.5799.5799-1.9799-.5799-1.9799 1.9799.5799 1.9799-.5799-.5799 1.9799.5799 1.9799zM17.8957 29.9801l1.9799-.5799 1.9799.5799-.5799-1.9799.5799-1.9799-1.9799.5799-1.9799-.5799.5799 1.9799zm21.1042-19.704-1.9799.5799.5799-1.9799-.5799-1.9799 1.9799.58 1.9799-.58-.5799 1.98.5799 1.9798zM23.0198 35.1045l1.9799-.5799 1.9799.5799-.5799-1.9799.5799-1.9799-1.9799.5799-1.9799-.5799.5799 1.9799zm21.1045-5.7043-1.9799.5799.5799-1.9799-.5799-1.9799 1.9799.5799 1.9799-.5799-.5799 1.9799.5799 1.9799zM17.8957 15.9804l1.9799-.5799 1.9799.5799-.5799-1.9799.5799-1.9799-1.9799.5799-1.9799-.5799.5799 1.9799zm21.1042 18.5442-1.9799.5799.5799-1.9799-.5799-1.9799 1.9799.5799 1.9799-.5799-.5799 1.9799.5799 1.9799zM23.0198 10.856l1.9799-.5799 1.9799.5799-.5799-1.9799.5799-1.9799-1.9799.58-1.9799-.58.5799 1.98z" clip-rule="evenodd"/></g><defs><clipPath id="a"><rect width="64" height="42" fill="#fff" rx="5"/></clipPath></defs></svg>