<svg xmlns="http://www.w3.org/2000/svg" width="64" height="42" fill="none" viewBox="0 0 64 42"><g clip-path="url(#a)"><rect width="64" height="42" fill="#fff" rx="5"/><rect width="43" height="41" x="1" y="1" stroke="#f5f5f5" rx="5"/><path fill="#de233c" fill-rule="evenodd" d="M33.3999 42H64V0H33.3999z" clip-rule="evenodd"/><mask id="b" width="14" height="14" x="4" y="4" fill="#000" maskUnits="userSpaceOnUse"><path fill="#fff" d="M4.2576 3.5998h14v14h-14z"/><path fill-rule="evenodd" d="M13.1527 5.5999H9.7052v3.4476H6.2576v3.4475h3.4476v3.4473h3.4475V12.495H16.6V9.0475h-3.4473z" clip-rule="evenodd"/></mask><path fill="#cccccd" fill-rule="evenodd" d="M13.1527 5.5999H9.7052v3.4476H6.2576v3.4475h3.4476v3.4473h3.4475V12.495H16.6V9.0475h-3.4473z" clip-rule="evenodd"/><path fill="#7b716a" d="M9.7052 5.5999v-1.4h-1.4v1.4zm3.4475 0h1.4v-1.4h-1.4zM9.7052 9.0475v1.4h1.4v-1.4zm-3.4476 0v-1.4h-1.4v1.4zm0 3.4475h-1.4v1.4h1.4zm3.4476 0h1.4v-1.4h-1.4zm0 3.4473h-1.4v1.4h1.4zm3.4475 0v1.4h1.4v-1.4zm0-3.4473v-1.4h-1.4v1.4zm3.4473 0v1.4H18v-1.4zm0-3.4475H18v-1.4h-1.4zm-3.4473 0h-1.4v1.4h1.4zM9.7052 6.9999h3.4475v-2.8H9.7052zm1.4 2.0476V5.5999h-2.8v3.4476zm-4.8476 1.4h3.4476v-2.8H6.2576zm1.4 2.0475V9.0475h-2.8v3.4475zm2.0476-1.4H6.2576v2.8h3.4476zm1.4 4.8473V12.495h-2.8v3.4473zm2.0475-1.4H9.7052v2.8h3.4475zm-1.4-2.0473v3.4473h2.8V12.495zm4.8473-1.4h-3.4473v2.8H16.6zm-1.4-2.0475v3.4475H18V9.0475zm-2.0473 1.4H16.6v-2.8h-3.4473zm-1.4-4.8476v3.4476h2.8V5.5999z" mask="url(#b)"/><circle cx="11" cy="11" r="2" fill="#7b716a"/></g><defs><clipPath id="a"><rect width="64" height="42" fill="#fff" rx="5"/></clipPath></defs></svg>