<svg xmlns="http://www.w3.org/2000/svg" width="64" height="42" fill="none" viewBox="0 0 64 42"><g clip-path="url(#a)"><rect width="64" height="42" fill="#fff" rx="5"/><path fill="#e31f37" d="M0 0h64v42H0z"/><path fill="#083b9a" fill-rule="evenodd" d="M0 21h30.7999V0H0z" clip-rule="evenodd"/><path fill="#fff" fill-rule="evenodd" d="m14.6999 4.9-1.9799.58.5799-1.98-.5799-1.9799 1.9799.58 1.9799-.58-.5799 1.98.5799 1.9798zm0 14.0002-1.9799.5799.5799-1.9799-.5799-1.9799 1.9799.5799 1.9799-.5799-.5799 1.9799.5799 1.9799zm-7.5798-6.4199 1.98-.5799 1.9798.5799-.5799-1.9799.5799-1.98-1.9799.58-1.9799-.58.58 1.98zM21.7 10.5002l-1.9799.5799.5799-1.9799-.5799-1.9799 1.9799.58 1.9799-.58-.5799 1.98.5799 1.9798zM18.1998 14.7a.7.7 0 1 0 0-1.4.7.7 0 0 0 0 1.4" clip-rule="evenodd"/></g><defs><clipPath id="a"><rect width="64" height="42" fill="#fff" rx="5"/></clipPath></defs></svg>