<svg width="64" height="42" viewBox="0 0 64 42" fill="none" xmlns="http://www.w3.org/2000/svg">
<g clip-path="url(#clip0_37941_2243)">
<rect width="64" height="42" rx="5" fill="white"/>
<rect width="64" height="42" fill="#07319C"/>
<g clip-path="url(#clip1_37941_2243)">
<g clip-path="url(#clip2_37941_2243)">
<path fill-rule="evenodd" clip-rule="evenodd" d="M38.4001 22C38.4001 19.7031 38.4001 16.9876 38.4001 14.9982C38.4001 13.4518 39.6537 12.2 41.2001 12.2H49.6001C51.1465 12.2 52.4001 13.4518 52.4001 14.9982C52.4001 16.9876 52.4001 19.7031 52.4001 22C52.4001 29 45.4001 31.7999 45.4001 31.7999C45.4001 31.7999 38.4001 29 38.4001 22Z" fill="#0072C4"/>
<mask id="mask0_37941_2243" style="mask-type:luminance" maskUnits="userSpaceOnUse" x="38" y="12" width="15" height="20">
<path fill-rule="evenodd" clip-rule="evenodd" d="M38.4001 22C38.4001 19.7031 38.4001 16.9876 38.4001 14.9982C38.4001 13.4518 39.6537 12.2 41.2001 12.2H49.6001C51.1465 12.2 52.4001 13.4518 52.4001 14.9982C52.4001 16.9876 52.4001 19.7031 52.4001 22C52.4001 29 45.4001 31.7999 45.4001 31.7999C45.4001 31.7999 38.4001 29 38.4001 22Z" fill="white"/>
</mask>
<g mask="url(#mask0_37941_2243)">
<path fill-rule="evenodd" clip-rule="evenodd" d="M41.6255 20.4621C40.1908 21.9113 43.0025 21.7275 43.0025 21.7275L45.0051 21.0863C45.0051 21.0863 45.9054 21.1952 46.5131 21.3784C46.9157 21.4998 48.036 22 48.036 22C48.036 22 50.4021 21.5276 49.5702 20.4621C48.7382 19.3966 43.0601 19.013 41.6255 20.4621Z" fill="#005121"/>
</g>
<g clip-path="url(#clip3_37941_2243)">
<g clip-path="url(#clip4_37941_2243)">
<path fill-rule="evenodd" clip-rule="evenodd" d="M47.5909 18.9568C47.6485 18.9437 47.7829 18.9467 47.833 19.0077C47.9117 19.1032 48.0728 19.0715 48.1515 19.1635C48.2299 19.2557 48.3211 19.3408 48.3211 19.472C48.3211 19.6032 48.3058 19.9285 48.3086 20C48.3127 20.1101 48.3317 20.1272 48.4449 20.1243C48.5815 20.1208 48.77 20.1101 48.7759 19.8656C48.78 19.6952 48.6104 19.5888 48.561 18.9827C48.6353 18.9189 48.7016 18.8621 48.6767 18.7773C48.6518 18.6923 48.8173 18.6496 48.8008 18.5219C48.784 18.3944 48.966 18.3163 48.8917 18.1747C48.8173 18.0328 48.9825 18.0259 48.9166 17.9123C48.8503 17.7989 49.0239 17.6995 48.9495 17.6005C48.8752 17.5011 49.0488 17.4091 48.9579 17.2885C48.8668 17.168 49.0074 17.0971 48.9166 17.0048C48.9744 16.9128 48.9246 16.6504 48.7426 16.5016C48.561 16.3525 48.3046 16.2747 48.1556 16.2179C47.8784 16.1123 47.3616 16.1611 46.9976 16.2037C46.6336 16.2461 45.9554 16.2888 45.7485 16.2605C45.5419 16.2323 45.0541 16.2037 44.6693 16.2675C44.5377 16.2893 44.388 16.2499 44.3096 16.1755C44.2468 16.116 44.2104 16.1224 44.1525 16.1259C44.0946 16.1293 44.0614 16.1115 44.0324 16.0405C43.9814 15.9157 43.8672 16.0016 43.8134 15.8456C43.7773 15.7413 43.5897 15.8315 43.5322 15.7429C43.474 15.6544 43.404 15.6437 43.2466 15.6544C43.2385 15.6011 43.1517 15.5621 43.073 15.5763C43.0854 15.4877 42.9986 15.4168 42.8539 15.4203C42.8704 15.3104 42.6679 15.2253 42.5643 15.2928C42.4983 15.2112 42.3658 15.2288 42.3328 15.2928C42.2625 15.2112 42.0391 15.236 41.9853 15.3245C41.8904 15.2715 41.7056 15.4019 41.7209 15.6083C41.7249 15.6651 41.7286 15.724 41.6338 15.7429C41.4561 15.7784 41.3528 15.9768 41.1994 16.0051C41.0467 16.0336 40.8936 16.0832 40.8647 16.1683C40.8358 16.2533 40.8896 16.3421 40.8317 16.3845C40.7738 16.4272 40.8687 16.4661 40.8977 16.4872C40.9266 16.5085 40.972 16.544 40.9804 16.5936C40.9922 16.664 41.1083 16.6851 41.2287 16.6077C41.2782 16.576 41.365 16.6717 41.5056 16.6043C41.6462 16.5371 41.8459 16.5725 41.8117 16.6824C41.7952 16.7355 41.8322 16.7923 41.878 16.8453C41.9234 16.8984 41.9915 17.0587 41.9523 17.1501C41.8945 17.2848 42.0102 17.3595 41.9813 17.4797C41.9523 17.6005 41.9978 17.7104 41.9358 17.8733C41.8736 18.0363 41.8727 18.2403 41.9648 18.2987C42.093 18.3803 42.0155 18.5419 42.1259 18.6107C42.2168 18.6672 42.1633 18.8056 42.3328 18.848C42.5024 18.8907 42.4031 19.004 42.5808 19.0288C42.7587 19.0536 42.8206 19.1813 43.0067 19.1528C43.1439 19.132 43.2161 19.1653 43.296 19.1968C43.3125 19.3104 43.2758 19.7272 43.2674 19.8336C43.2599 19.9277 43.2095 20.0779 43.2095 20.1704C43.2095 20.2269 43.3253 20.2411 43.4578 20.2411C43.5897 20.2411 43.6479 20.188 43.6146 20.0392C43.5816 19.8901 43.5735 19.5272 43.5819 19.3003C43.6967 19.3555 43.8059 19.4328 43.801 19.5181C43.7926 19.6563 43.7947 19.9043 43.7717 20.032C43.7555 20.1243 43.7801 20.2696 43.7885 20.3653C43.7969 20.4005 44.02 20.3971 44.1111 20.3653C44.202 20.3333 44.202 20.2483 44.1936 19.8619C44.1895 19.6707 43.9867 19.4752 44.2434 19.3797C44.3675 19.3336 44.5411 19.2272 44.6074 19.1283C44.6733 19.0288 44.8183 19.0677 44.9216 19.1176C45.0249 19.1672 45.1904 19.2429 45.294 19.2096C45.4262 19.1672 45.5668 19.2733 45.6826 19.2096C45.7983 19.1459 45.9473 19.2557 46.0422 19.1779C46.1374 19.0997 46.3029 19.1741 46.3732 19.0997C46.4435 19.0253 46.7329 19.1424 46.8365 19.0432C46.9398 18.9437 47.0804 19.0715 47.1756 18.9971C47.2005 18.9773 47.23 18.9731 47.2624 18.9755C47.2586 19.1432 47.2272 19.4101 47.221 19.4933C47.2135 19.5877 47.1631 19.7376 47.1631 19.8299C47.1631 19.8867 47.2789 19.9008 47.4111 19.9008C47.5436 19.9008 47.6015 19.8477 47.5685 19.6989C47.5352 19.5501 47.5828 19.184 47.5909 18.9568Z" fill="#A3A3A3"/>
<path fill-rule="evenodd" clip-rule="evenodd" d="M40.8988 16.372C40.9542 16.3317 40.9028 16.248 40.9305 16.1675C40.9582 16.0872 41.1047 16.0403 41.2513 16.0136C41.3978 15.9867 41.4967 15.7992 41.6672 15.7656C41.7581 15.7477 41.7543 15.692 41.7503 15.6384C41.736 15.4435 41.9127 15.3203 42.0039 15.3707C42.0552 15.2867 42.2692 15.2632 42.3364 15.3403C42.3682 15.28 42.4948 15.2632 42.5583 15.3403C42.6572 15.2768 42.8513 15.3571 42.8355 15.4608C42.9742 15.4576 43.0573 15.5245 43.0455 15.6083C43.1207 15.5949 43.2038 15.6317 43.2119 15.6819C43.1991 15.7643 43.3874 15.7853 43.3003 15.8387C43.224 15.8853 43.1515 15.8669 43.0647 15.8032C42.9779 15.7392 42.6883 15.796 42.6469 15.828C42.6055 15.86 42.5601 15.8741 42.5268 15.8493C42.4939 15.8245 42.4155 15.7853 42.3781 15.7891C42.3408 15.7925 42.2624 15.7925 42.2167 15.7181C42.1712 15.6437 42.0555 15.6331 42.035 15.6613C42.0144 15.6896 42.0804 15.7925 42.1467 15.8315C42.2126 15.8707 42.1796 15.9451 42.2583 15.9875C42.3097 16.0155 42.2624 16.1115 42.2335 16.1683C42.2045 16.2251 42.0928 16.2072 42.0844 16.1648C42.0763 16.1224 42.0471 16.0939 41.9811 16.1576C41.9149 16.2216 41.7746 16.2037 41.7413 16.1861C41.7083 16.1683 41.6171 16.1365 41.5552 16.1541C41.493 16.172 41.5842 16.2003 41.5926 16.2251C41.6007 16.2499 41.493 16.2605 41.4311 16.2605C41.3692 16.2605 41.3483 16.2957 41.3857 16.3029C41.423 16.3101 41.5674 16.3173 41.6255 16.2888C41.6834 16.2605 41.8611 16.2888 41.8779 16.3421C41.8943 16.3952 41.7746 16.4165 41.7039 16.4093C41.6 16.3989 41.4476 16.4555 41.3732 16.4731C41.2989 16.4909 41.1004 16.4448 41.0217 16.4661C40.9433 16.4872 40.8658 16.4037 40.8988 16.372Z" fill="#A3A3A3"/>
<path fill-rule="evenodd" clip-rule="evenodd" d="M42.2292 16.8064C42.1549 16.8346 42.1798 16.9197 42.246 16.9552C42.3123 16.9906 42.461 17.0048 42.5562 16.9872C42.6511 16.9693 42.6719 16.9978 42.61 17.0333C42.5478 17.0685 42.7049 17.0757 42.6925 17.1325C42.6803 17.189 42.7503 17.1784 42.8166 17.1749C42.8829 17.1714 42.9697 17.1288 43.044 17.0898C43.1184 17.0509 43.1722 17.0792 43.1019 17.1466C43.0319 17.2138 42.7961 17.2992 42.61 17.2885C42.4237 17.2778 42.3244 17.3202 42.3658 17.3805C42.4072 17.4408 42.6057 17.4514 42.709 17.4194C42.8126 17.3877 42.7961 17.4445 42.7174 17.4832C42.6386 17.5224 42.527 17.5258 42.4321 17.5224C42.3369 17.5189 42.2541 17.6005 42.3782 17.6464C42.5024 17.6925 42.6679 17.6642 42.7298 17.7032C42.792 17.7421 42.9821 17.6818 42.9862 17.7493C42.9902 17.8165 42.9323 17.8413 42.8206 17.8344C42.709 17.8272 42.7419 17.8776 42.825 17.905C42.8994 17.9301 43.0319 17.9301 43.1019 17.9229C43.1722 17.916 43.1517 17.9866 43.0814 18.0114C43.011 18.0362 42.7836 18.0717 42.6719 18.0682C42.5602 18.0648 42.6138 18.1357 42.7587 18.1357C43.2011 18.1357 43.3502 17.9264 43.4618 17.781C43.5166 17.7098 43.623 17.6712 43.6479 17.7138C43.6728 17.7562 43.6768 17.7669 43.6274 17.8024C43.5776 17.8378 43.5897 17.8592 43.6809 17.8626C43.7717 17.8661 43.9042 17.8413 43.983 17.8202C44.0614 17.7989 44.2928 17.933 44.1027 17.937C43.7677 17.9442 43.3542 18.0648 43.2179 18.1144C43.0814 18.164 42.8536 18.2573 42.7133 18.2525C42.61 18.249 42.5683 18.288 42.61 18.3341C42.6511 18.3802 42.7836 18.3802 42.858 18.3589C42.9323 18.3376 42.9488 18.3589 42.8994 18.4013C42.8499 18.444 42.7258 18.4616 42.6386 18.476C42.5522 18.4901 42.5092 18.5456 42.5767 18.568C42.7049 18.6106 42.5892 18.6496 42.6803 18.6709C42.7712 18.6922 42.6719 18.7594 42.7712 18.7808C42.8704 18.8021 42.9283 18.7914 43.0026 18.7418C43.0773 18.6922 43.1184 18.6637 43.1971 18.6709C43.2758 18.6781 43.3296 18.6424 43.375 18.5893C43.4205 18.5362 43.5735 18.4405 43.623 18.4866C43.6728 18.5328 43.7761 18.4474 43.7969 18.4936C43.8174 18.5397 43.9042 18.5114 43.9251 18.5752C43.9478 18.6461 44.0449 18.6602 44.1111 18.6354C44.1771 18.6106 44.2309 18.5504 44.2309 18.4616C44.2309 18.373 44.2558 18.3376 44.2807 18.4333C44.3053 18.529 44.3964 18.5573 44.4418 18.5114C44.4873 18.4653 44.5038 18.3058 44.4708 18.2314C44.4378 18.1568 44.4334 18.061 44.4667 18.0434C44.4997 18.0258 44.5784 18.1888 44.6114 18.2597C44.6447 18.3306 44.7312 18.3093 44.7355 18.2384C44.7396 18.1674 44.8183 18.132 44.8762 18.1853C44.934 18.2384 44.901 18.4157 44.9175 18.5008C44.934 18.5858 45.0952 18.4794 45.112 18.5077C45.1285 18.5362 45.1904 18.5432 45.2153 18.4829C45.2402 18.4226 45.298 18.3696 45.331 18.405C45.3643 18.4405 45.4138 18.5008 45.4343 18.568C45.4551 18.6354 45.5295 18.6709 45.5749 18.6C45.6203 18.529 45.6536 18.3909 45.6371 18.2949C45.6203 18.1994 45.6496 18.1392 45.6906 18.1888C45.732 18.2384 45.728 18.373 45.732 18.4829C45.7364 18.5928 45.8726 18.5824 45.8726 18.4192C45.8726 18.3448 45.914 18.3306 45.9265 18.373C45.9389 18.4157 45.9389 18.4866 45.9514 18.5184C45.9818 18.597 46.0879 18.5538 46.1001 18.5008C46.1125 18.4474 46.092 18.256 46.0671 18.1712C46.0422 18.0858 46.092 18.0258 46.1334 18.0717C46.1747 18.1178 46.1828 18.2384 46.1912 18.373C46.1993 18.5077 46.2861 18.5149 46.3318 18.476C46.3773 18.4368 46.3773 18.3234 46.3567 18.2418C46.3359 18.1605 46.4022 18.1605 46.4311 18.2101C46.46 18.2597 46.5098 18.2277 46.5014 18.1888C46.4933 18.1498 46.5344 18.1144 46.5758 18.1674C46.6171 18.2208 46.6047 18.3413 46.5842 18.4368C46.5633 18.5328 46.6874 18.5218 46.7453 18.4405C46.8032 18.3589 46.7742 18.1357 46.7248 18.0648C46.675 17.9938 46.6794 17.9016 46.708 17.8202C46.7372 17.7386 46.791 17.7349 46.7951 17.7706C46.7991 17.8058 46.824 17.8661 46.8694 17.9122C46.9149 17.9584 46.9398 17.9656 46.9478 17.8944C46.9562 17.8237 46.9976 17.8413 47.0141 17.8944C47.0309 17.9477 47.0595 17.9901 47.1009 17.9442C47.1423 17.8981 47.1961 17.9336 47.1631 18.0045C47.1298 18.0754 47.1298 18.1392 47.1547 18.2101C47.1796 18.281 47.2664 18.2704 47.2748 18.1888C47.2919 18.0192 47.3162 18.132 47.3367 18.2064C47.3573 18.281 47.4195 18.2773 47.4319 18.2349C47.4444 18.1922 47.4568 18.1818 47.4568 18.2277C47.4568 18.2738 47.4774 18.3128 47.5312 18.3128C47.585 18.3128 47.5726 18.2208 47.5971 18.164C47.622 18.1072 47.6674 18.1853 47.7297 18.3162C47.7916 18.4474 47.837 18.3234 47.982 18.6213C48.0411 18.7426 48.1266 18.6389 48.1226 18.5965C48.1182 18.5538 48.1307 18.5256 48.201 18.5256C48.2713 18.5256 48.3292 18.5114 48.3046 18.4653C48.2797 18.4192 48.2962 18.3341 48.2922 18.2384C48.2881 18.1426 48.3002 18.0896 48.3127 18.1426C48.3251 18.1957 48.3665 18.2704 48.4325 18.3093C48.4987 18.3482 48.5442 18.2418 48.4903 18.1746C48.4368 18.1072 48.3625 17.9477 48.3665 17.813C48.3696 17.7138 48.416 17.7456 48.416 17.8165C48.416 17.8874 48.4574 18.0152 48.5196 18.0434C48.5815 18.0717 48.6064 17.9405 48.5774 17.8733C48.5485 17.8058 48.532 17.7138 48.5939 17.696C48.6558 17.6784 48.5774 17.604 48.5236 17.5506C48.4698 17.4976 48.4368 17.4445 48.532 17.448C48.6269 17.4514 48.5485 17.3912 48.5028 17.3522C48.4574 17.3133 48.379 17.2352 48.5028 17.2458C48.6269 17.2565 48.5858 17.1928 48.5361 17.1573C48.4863 17.1218 48.4574 17.0544 48.5442 17.0581C48.6313 17.0616 48.6848 17.0189 48.6767 16.9872C48.645 16.8642 48.4368 16.7213 48.3086 16.6114C48.1805 16.5016 47.9736 16.3917 47.8619 16.3738C47.7502 16.356 47.7462 16.4272 47.7751 16.4696C47.804 16.512 47.8619 16.5405 47.8703 16.4978C47.8784 16.4554 47.9652 16.5016 48.0066 16.5581C48.0479 16.6149 48.1886 16.6858 48.2757 16.7496C48.3625 16.8133 48.1596 16.7816 48.0604 16.6965C48.0038 16.6477 48.0106 16.7069 48.0853 16.7744C48.1596 16.8418 48.0644 16.8701 47.986 16.8133C47.9073 16.7568 47.7048 16.5973 47.5766 16.4944C47.4484 16.3917 47.4276 16.4165 47.4235 16.4837C47.4195 16.5512 47.4649 16.5973 47.5477 16.6538C47.6304 16.7106 47.7337 16.7992 47.8124 16.8594C47.8908 16.9197 47.8249 16.9586 47.7751 16.916C47.7253 16.8736 47.5561 16.7568 47.4568 16.6752C47.3573 16.5936 47.2664 16.5546 47.2045 16.5653C47.1423 16.576 47.1466 16.6362 47.221 16.7C47.2954 16.7637 47.3865 16.8842 47.3865 16.9552C47.3865 17.0261 47.3202 17.0757 47.287 16.9482C47.254 16.8205 47.0969 16.6717 46.9811 16.5581C46.8654 16.4448 46.7494 16.4234 46.6626 16.4306C46.5758 16.4376 46.5798 16.5226 46.5798 16.5901C46.5798 16.6573 46.5219 16.6184 46.5179 16.5688C46.5138 16.5192 46.4476 16.4768 46.4102 16.4802C46.3732 16.4837 46.3857 16.5866 46.3732 16.6328C46.3608 16.6786 46.3029 16.7213 46.3029 16.6149C46.3029 16.5085 46.1663 16.4554 46.1085 16.4517C46.0506 16.4482 45.9968 16.4696 46.0257 16.5157C46.0546 16.5616 46.0422 16.6858 46.0217 16.7568C46.0008 16.8274 45.9389 16.7034 45.9265 16.5722C45.914 16.4413 45.7199 16.349 45.5833 16.388C45.4467 16.4272 45.5503 16.512 45.5254 16.5936C45.5006 16.6752 45.4632 16.6008 45.4508 16.5157C45.4386 16.4306 45.3724 16.3773 45.2815 16.3986C45.1904 16.42 45.1285 16.4624 45.1325 16.5192C45.1366 16.576 45.1366 16.6256 45.116 16.7176C45.0952 16.8098 45.0582 16.7637 45.0622 16.7034C45.0666 16.6432 45.0457 16.544 45.0249 16.4872C45.0043 16.4306 44.971 16.4837 44.9794 16.5546C44.9878 16.6256 44.967 16.7885 44.934 16.888C44.901 16.9872 44.8513 16.9906 44.8762 16.856C44.901 16.7213 44.8388 16.5226 44.7769 16.4306C44.7324 16.3648 44.6322 16.3421 44.6322 16.4341C44.6322 16.5264 44.6612 16.5936 44.7355 16.661C44.8099 16.7282 44.752 16.8949 44.6777 16.9837C44.603 17.0722 44.6074 16.9445 44.6322 16.8488C44.6568 16.753 44.5206 16.7213 44.4667 16.7034C44.4129 16.6858 44.5246 16.5901 44.5495 16.4624C44.5616 16.3994 44.5451 16.3597 44.4957 16.356C44.4459 16.3525 44.3137 16.473 44.2558 16.5616C44.2723 16.4696 44.2558 16.388 44.206 16.388C44.1566 16.388 44.1027 16.4768 44.0657 16.5405C44.0284 16.6042 43.991 16.5688 44.0284 16.5016C44.0657 16.4341 44.1233 16.2533 44.0489 16.2144C43.9746 16.1754 43.9083 16.3349 43.8299 16.3064C43.7854 16.2904 43.8464 16.1896 43.8713 16.1434C43.8958 16.0973 43.8464 16.0618 43.7347 16.1469C43.623 16.2322 43.5735 16.3704 43.5443 16.4554C43.5157 16.5405 43.3172 16.6786 43.2095 16.753C43.1019 16.8274 43.0565 16.7992 43.1103 16.7672C43.1641 16.7354 43.2714 16.6362 43.3253 16.5973C43.3791 16.5581 43.3542 16.5352 43.2509 16.6024C43.1476 16.6698 42.9594 16.7922 42.7668 16.8346C42.6539 16.8597 42.6386 16.8384 42.7503 16.8064C42.862 16.7744 43.1184 16.6218 43.1806 16.5512C43.2195 16.5066 43.1184 16.544 43.0689 16.5546C43.0194 16.5653 42.9781 16.5512 43.0773 16.5157C43.1762 16.4802 43.4908 16.2002 43.557 16.0973C43.623 15.9946 43.5651 15.9554 43.5238 15.9592C43.4824 15.9626 43.4245 15.9874 43.437 15.945C43.4494 15.9024 43.4205 15.8456 43.3666 15.8634C43.3128 15.881 43.3172 15.984 43.2963 16.0405C43.2758 16.0973 43.1598 16.172 43.0854 16.172C43.011 16.172 42.9078 16.1861 42.829 16.2392C42.7503 16.2922 42.7133 16.2426 42.7503 16.2002C42.7877 16.1576 42.8704 16.1469 42.9532 16.1434C43.0359 16.14 43.1268 16.1293 43.1971 16.0618C43.2674 15.9946 43.2714 15.9413 43.2179 15.9378C43.1641 15.9344 43.073 15.8741 43.044 15.8493C42.8972 15.7232 42.6281 15.8989 42.5229 16.0016C42.465 16.0584 42.2666 16.2216 42.2046 16.264C42.1424 16.3064 42.1673 16.3666 42.2706 16.2853C42.3742 16.2037 42.4072 16.2605 42.3123 16.3208C42.2168 16.381 42.1468 16.4696 42.1798 16.5016C42.2127 16.5333 42.3409 16.4944 42.4112 16.4554C42.4815 16.4165 42.5148 16.512 42.3409 16.544C42.2242 16.5656 42.1835 16.6066 42.275 16.6114C42.3453 16.6149 42.4526 16.5866 42.5522 16.537C42.6511 16.4872 42.7298 16.5157 42.647 16.5653C42.5643 16.6149 42.3823 16.6824 42.2914 16.6824C42.2152 16.6824 42.3039 16.7781 42.2292 16.8064Z" fill="white"/>
<path fill-rule="evenodd" clip-rule="evenodd" d="M42.7091 16.0141C42.8086 15.9105 42.8954 15.8651 42.9863 15.9396C43.0687 16.0071 43.0774 16.0365 42.9738 16.0141C42.8705 15.9917 42.8002 16.0141 42.7383 16.081C42.6761 16.1482 42.6058 16.1219 42.7091 16.0141Z" fill="#A3A3A3"/>
<path fill-rule="evenodd" clip-rule="evenodd" d="M41.0717 16.2772C41.146 16.2028 41.2658 16.2028 41.3196 16.121C41.3734 16.039 41.4313 16.0689 41.365 16.147C41.2991 16.2252 41.1709 16.2403 41.1171 16.296C41.0633 16.3517 41.0343 16.3145 41.0717 16.2772Z" fill="#A3A3A3"/>
<path fill-rule="evenodd" clip-rule="evenodd" d="M41.5347 15.9926C41.5795 15.9864 41.667 15.933 41.7208 15.8697C41.7746 15.8064 41.8903 15.784 41.9603 15.8585C42.0307 15.933 42.068 15.959 42.1053 15.9741C42.1423 15.989 42.1423 16.0374 42.0845 16.052C42.0266 16.0671 41.9482 16.0783 41.9068 16.0595C41.8655 16.041 41.8032 16.0262 41.7538 16.0374C41.704 16.0483 41.6835 16.0262 41.7248 16.0074C41.7662 15.989 41.8157 15.933 41.8406 15.9106C41.8655 15.8884 41.9314 15.9069 41.8944 15.9293C41.8571 15.9517 41.8735 15.9999 41.9109 16.0186C41.9482 16.0374 42.0226 16.0374 42.0555 16.0038C42.0061 15.9554 41.9233 15.8921 41.8903 15.8736C41.8571 15.8548 41.8281 15.8473 41.7867 15.8921C41.7454 15.9369 41.6461 16.0447 41.5512 16.041C41.456 16.0374 41.4809 15.9999 41.5347 15.9926Z" fill="#A3A3A3"/>
<path fill-rule="evenodd" clip-rule="evenodd" d="M44.1482 16.6605C44.1115 16.7117 44.0779 16.7778 44.0739 16.8299C44.0698 16.8819 44.1174 16.9175 44.1233 16.8523C44.1295 16.787 44.1358 16.7481 44.1874 16.6997C44.2394 16.6512 44.1896 16.6028 44.1482 16.6605Z" fill="#A3A3A3"/>
<path fill-rule="evenodd" clip-rule="evenodd" d="M43.6415 16.6592C43.6845 16.6419 43.7573 16.6015 43.7924 16.5643C43.8276 16.5273 43.8503 16.5514 43.8151 16.5923C43.78 16.6332 43.6994 16.6816 43.6621 16.6928C43.625 16.704 43.5961 16.678 43.6415 16.6592Z" fill="#A3A3A3"/>
<path fill-rule="evenodd" clip-rule="evenodd" d="M43.7058 16.8664C43.6464 16.9379 43.4122 17.1077 43.3418 17.1395C43.2715 17.1715 43.2964 17.2176 43.3751 17.1928C43.3173 17.2387 43.1888 17.3133 43.1063 17.3344C43.0236 17.3557 43.0068 17.4195 43.1309 17.3805C43.255 17.3416 43.4286 17.2387 43.4741 17.1928C43.5198 17.1467 43.4619 17.1253 43.5322 17.0757C43.6026 17.0261 43.7326 16.9355 43.7513 16.8984C43.7802 16.8419 43.7472 16.8168 43.7058 16.8664Z" fill="#A3A3A3"/>
<path fill-rule="evenodd" clip-rule="evenodd" d="M43.4494 17.4445C43.5381 17.4013 43.7036 17.2485 43.7512 17.1608C43.7801 17.1077 43.838 17.1147 43.7926 17.1963C43.7472 17.2779 43.5776 17.4232 43.5197 17.4621C43.4619 17.5011 43.3542 17.4904 43.4494 17.4445Z" fill="#A3A3A3"/>
<path fill-rule="evenodd" clip-rule="evenodd" d="M45.331 16.6043C45.3068 16.6541 45.3021 16.7709 45.3105 16.8275C45.3186 16.8843 45.3684 16.9269 45.36 16.8419C45.3519 16.7568 45.3519 16.6717 45.3805 16.6469C45.4097 16.6219 45.3724 16.5192 45.331 16.6043Z" fill="#A3A3A3"/>
<path fill-rule="evenodd" clip-rule="evenodd" d="M45.8356 16.8133C45.8776 16.852 45.8975 17.0333 45.8934 17.1005C45.8894 17.168 45.9597 17.168 45.9553 17.0723C45.9513 16.9765 45.9429 16.856 45.9059 16.7923C45.8685 16.7283 45.7777 16.7603 45.8356 16.8133Z" fill="#A3A3A3"/>
<path fill-rule="evenodd" clip-rule="evenodd" d="M46.2781 16.9304C46.3036 16.9768 46.3359 17.065 46.3359 17.1288C46.3359 17.1928 46.3898 17.1642 46.3938 17.0898C46.3978 17.0154 46.3857 16.9517 46.3568 16.9021C46.3278 16.8525 46.2407 16.8629 46.2781 16.9304Z" fill="#A3A3A3"/>
<path fill-rule="evenodd" clip-rule="evenodd" d="M46.5512 16.8749C46.5284 16.8178 46.4933 16.7669 46.4681 16.7744C46.4435 16.782 46.46 16.8341 46.4933 16.8898C46.526 16.9458 46.5757 16.9382 46.5512 16.8749Z" fill="#A3A3A3"/>
<path fill-rule="evenodd" clip-rule="evenodd" d="M44.8224 17.2707C44.8099 17.4192 44.7312 17.5507 44.6363 17.5968C44.5411 17.6429 44.5576 17.7173 44.6733 17.6429C44.7894 17.5685 44.8762 17.4408 44.9011 17.3275C44.9257 17.2139 44.8308 17.1715 44.8224 17.2707Z" fill="#A3A3A3"/>
<path fill-rule="evenodd" clip-rule="evenodd" d="M44.6155 17.2034C44.566 17.253 44.5371 17.3594 44.5371 17.4408C44.5371 17.5224 44.5701 17.4621 44.5785 17.416C44.5869 17.3698 44.6031 17.3061 44.6448 17.2848C44.6858 17.2634 44.6653 17.1538 44.6155 17.2034Z" fill="#A3A3A3"/>
<path fill-rule="evenodd" clip-rule="evenodd" d="M48.197 17.3062C48.2405 17.3779 48.3046 17.4942 48.3251 17.5614C48.346 17.6288 48.2962 17.6464 48.2797 17.5862C48.2629 17.5259 48.1845 17.3912 48.1556 17.3451C48.1267 17.2992 48.1472 17.2246 48.197 17.3062Z" fill="#A3A3A3"/>
</g>
</g>
<path d="M35.6 20.5999C35.6 20.5999 40.3626 22.0149 41.1665 22.0149C41.3924 22.0149 44.4773 21.3074 45.4022 21.3074C45.7481 21.3074 48.9413 21.7921 49.7751 22.0149C50.6088 22.2378 55.2044 20.5999 55.2044 20.5999" stroke="white" stroke-width="1.4" stroke-linecap="round" stroke-linejoin="round"/>
<path d="M35.6 23.4C35.6 23.4 40.3626 24.8149 41.1665 24.8149C41.3924 24.8149 44.4773 24.1074 45.4022 24.1074C45.7481 24.1074 48.9413 24.5921 49.7751 24.8149C50.6088 25.0378 55.2044 23.4 55.2044 23.4" stroke="white" stroke-width="1.4" stroke-linecap="round" stroke-linejoin="round"/>
<path d="M35.6 28.9999C35.6 28.9999 40.3626 30.4149 41.1665 30.4149C41.3924 30.4149 43.2314 29.27 45.4022 29.27C47.573 29.27 48.9413 30.1921 49.7751 30.4149C50.6088 30.6378 55.2044 28.9999 55.2044 28.9999L70.2768 31.4106" stroke="white" stroke-width="2.8" stroke-linecap="round" stroke-linejoin="round"/>
</g>
<mask id="path-26-inside-1_37941_2243" fill="white">
<path fill-rule="evenodd" clip-rule="evenodd" d="M38.4001 22C38.4001 19.7031 38.4001 16.9876 38.4001 14.9982C38.4001 13.4518 39.6537 12.2 41.2001 12.2H49.6001C51.1465 12.2 52.4001 13.4518 52.4001 14.9982C52.4001 16.9876 52.4001 19.7031 52.4001 22C52.4001 29 45.4001 31.7999 45.4001 31.7999C45.4001 31.7999 38.4001 29 38.4001 22Z"/>
</mask>
<path fill-rule="evenodd" clip-rule="evenodd" d="M38.4001 22C38.4001 19.7031 38.4001 16.9876 38.4001 14.9982C38.4001 13.4518 39.6537 12.2 41.2001 12.2H49.6001C51.1465 12.2 52.4001 13.4518 52.4001 14.9982C52.4001 16.9876 52.4001 19.7031 52.4001 22C52.4001 29 45.4001 31.7999 45.4001 31.7999C45.4001 31.7999 38.4001 29 38.4001 22Z" stroke="white" stroke-width="2.8" mask="url(#path-26-inside-1_37941_2243)"/>
<mask id="mask1_37941_2243" style="mask-type:luminance" maskUnits="userSpaceOnUse" x="38" y="12" width="15" height="20">
<mask id="path-27-inside-2_37941_2243" fill="white">
<path fill-rule="evenodd" clip-rule="evenodd" d="M38.4001 22C38.4001 19.7031 38.4001 16.9876 38.4001 14.9982C38.4001 13.4518 39.6537 12.2 41.2001 12.2H49.6001C51.1465 12.2 52.4001 13.4518 52.4001 14.9982C52.4001 16.9876 52.4001 19.7031 52.4001 22C52.4001 29 45.4001 31.7999 45.4001 31.7999C45.4001 31.7999 38.4001 29 38.4001 22Z"/>
</mask>
<path fill-rule="evenodd" clip-rule="evenodd" d="M38.4001 22C38.4001 19.7031 38.4001 16.9876 38.4001 14.9982C38.4001 13.4518 39.6537 12.2 41.2001 12.2H49.6001C51.1465 12.2 52.4001 13.4518 52.4001 14.9982C52.4001 16.9876 52.4001 19.7031 52.4001 22C52.4001 29 45.4001 31.7999 45.4001 31.7999C45.4001 31.7999 38.4001 29 38.4001 22Z" fill="white" stroke="white" stroke-width="2.8" mask="url(#path-27-inside-2_37941_2243)"/>
</mask>
<g mask="url(#mask1_37941_2243)">
</g>
</g>
<rect y="0.035759" width="26.7134" height="21" fill="#042C90"/>
<mask id="mask2_37941_2243" style="mask-type:alpha" maskUnits="userSpaceOnUse" x="0" y="0" width="27" height="22">
<rect y="0.035759" width="26.7133" height="21" fill="#0A17A7"/>
</mask>
<g mask="url(#mask2_37941_2243)">
<mask id="path-30-outside-3_37941_2243" maskUnits="userSpaceOnUse" x="-4" y="-2.96424" width="35" height="27" fill="black">
<rect fill="white" x="-4" y="-2.96424" width="35" height="27"/>
<path fill-rule="evenodd" clip-rule="evenodd" d="M10.3885 9.03576L0 0.035759H1.48408L11.8726 7.53576H14.8408L26.7134 0.035759V1.53576L16.3248 9.03576V12.0358L26.7134 21.0358H25.4552C25.3083 21.0358 25.1652 20.9895 25.0461 20.9035L14.8408 13.5358H11.8726L0 21.0358V19.5358L10.3885 12.0358V9.03576Z"/>
</mask>
<path fill-rule="evenodd" clip-rule="evenodd" d="M10.3885 9.03576L0 0.035759H1.48408L11.8726 7.53576H14.8408L26.7134 0.035759V1.53576L16.3248 9.03576V12.0358L26.7134 21.0358H25.4552C25.3083 21.0358 25.1652 20.9895 25.0461 20.9035L14.8408 13.5358H11.8726L0 21.0358V19.5358L10.3885 12.0358V9.03576Z" fill="#FF2E3B"/>
<path fill-rule="evenodd" clip-rule="evenodd" d="M10.3885 9.03576L0 0.035759H1.48408L11.8726 7.53576H14.8408L26.7134 0.035759V1.53576L16.3248 9.03576V12.0358L26.7134 21.0358H25.4552C25.3083 21.0358 25.1652 20.9895 25.0461 20.9035L14.8408 13.5358H11.8726L0 21.0358V19.5358L10.3885 12.0358V9.03576Z" stroke="white" stroke-width="2.7952" mask="url(#path-30-outside-3_37941_2243)"/>
<path fill-rule="evenodd" clip-rule="evenodd" d="M0 7.53576V13.5358H10.3885V21.1382C10.3885 21.91 11.0143 22.5358 11.7861 22.5358H14.9272C15.6991 22.5358 16.3248 21.91 16.3248 21.1382V13.5358H26.7999C27.5717 13.5358 28.1974 12.91 28.1974 12.1382V8.93336C28.1974 8.16149 27.5717 7.53576 26.7999 7.53576H16.3248V0.035759H10.3885V7.53576H0Z" fill="white"/>
<path fill-rule="evenodd" clip-rule="evenodd" d="M0 9.03576H11.8726V7.53576V0.035759H14.8408V7.53576V9.03576H26.7134V12.0358H14.8408V13.5358V21.0358H11.8726V13.5358V12.0358H0V9.03576Z" fill="#FF2E3B"/>
</g>
</g>
<defs>
<clipPath id="clip0_37941_2243">
<rect width="64" height="42" rx="5" fill="white"/>
</clipPath>
<clipPath id="clip1_37941_2243">
<rect width="14.7" height="21" fill="white" transform="translate(38.4001 12.2)"/>
</clipPath>
<clipPath id="clip2_37941_2243">
<rect width="14.7" height="21" fill="white" transform="translate(38.4001 12.2)"/>
</clipPath>
<clipPath id="clip3_37941_2243">
<rect width="11.2" height="5.6" fill="white" transform="translate(38.4001 15)"/>
</clipPath>
<clipPath id="clip4_37941_2243">
<rect width="8.4" height="5.6" fill="white" transform="translate(40.64 15)"/>
</clipPath>
</defs>
</svg>
