<svg width="64" height="42" viewBox="0 0 64 42" fill="none" xmlns="http://www.w3.org/2000/svg">
<g clip-path="url(#clip0_37941_2383)">
<rect width="64" height="42" rx="5" fill="white"/>
<rect x="-13.4204" y="-6.65027" width="77.4204" height="55.3003" rx="5.53003" fill="#009F60"/>
<rect x="55.6001" y="22.4001" width="8.39995" height="19.5999" fill="#EA8B42"/>
<path fill-rule="evenodd" clip-rule="evenodd" d="M47.2002 42H55.6001V22.4001H47.2002V42Z" fill="#1A1919"/>
<path fill-rule="evenodd" clip-rule="evenodd" d="M38.8002 42H47.2001V22.4001H38.8002V42Z" fill="#DB3C36"/>
<g clip-path="url(#clip1_37941_2383)">
<g clip-path="url(#clip2_37941_2383)">
<path fill-rule="evenodd" clip-rule="evenodd" d="M49.3298 7.3166C49.1369 7.32202 48.995 7.25518 48.9443 7.14282C49.2589 6.9582 49.4717 6.99939 49.7356 7.23459C49.7863 7.05069 49.7356 6.84584 49.624 6.72301C49.5124 6.60017 49.4209 6.60017 49.269 6.58969C49.1167 6.57957 48.9644 6.53875 48.8629 6.53875C48.7142 6.21106 48.3416 6.34979 47.9838 6.48419C47.4021 6.70241 46.8793 7.09874 46.6446 7.49436C46.5373 7.67536 46.5244 7.74653 46.4585 7.84914C46.5129 7.84228 46.5093 7.84228 46.5431 7.82168C46.5024 8.27221 46.4484 8.68841 46.5294 8.95468C46.4283 9.34379 46.5093 9.58947 46.6309 9.7123C46.753 9.83514 46.8034 9.88644 46.8239 10.0299C46.8441 10.1729 46.9049 10.3059 47.0064 10.3879C47.1079 10.4699 47.1688 10.5928 47.1789 10.6647C47.1889 10.7362 47.5029 11.0447 47.6353 11.1253C47.6861 11.1557 47.6962 11.2174 47.7574 11.2991C47.6252 12.0773 48.153 12.8555 48.031 13.6232C48.1224 13.6334 48.2441 13.6232 48.3661 13.5925C48.4673 14.2476 48.5281 14.5651 47.96 14.7595C47.392 14.9542 47.0813 15.1457 47.2397 15.3636C47.3513 15.5171 47.5824 15.3834 47.7268 15.2509C47.8384 15.1486 47.9701 15.0565 48.0716 15.0258C48.1732 14.9951 48.1937 15.0258 48.1426 15.1587C48.0918 15.292 47.8182 15.5785 47.8078 15.722C47.7977 15.8654 47.9194 15.9676 48.1123 15.8549C48.3049 15.7422 48.4745 15.4474 48.518 15.2714C48.5483 15.1486 48.5994 15.0666 48.589 15.2714C48.5789 15.4763 48.4572 15.8448 48.7312 15.9062C49.0051 15.9676 49.0865 15.64 48.995 15.343C48.9036 15.0464 48.8734 14.8823 48.9137 14.7801C48.9544 14.6775 48.995 14.6164 49.0962 14.6468C49.1977 14.6775 49.4008 14.6367 49.3907 14.473C49.3802 14.3093 49.2384 14.176 49.076 14.2681C48.9137 14.3603 48.792 14.3465 48.8629 14.1453C48.9137 14.0019 49.0051 13.8277 49.0152 13.7154C49.1268 13.879 49.7557 13.8996 50.0095 13.7461C50.0704 14.0532 50.2327 14.3296 49.8778 14.6164C49.5224 14.9029 49.2384 15.1793 49.2485 15.3842C49.2589 15.589 49.3399 15.7115 49.5224 15.6093C49.705 15.507 49.8166 15.3636 49.8572 15.2306C49.8979 15.0973 49.9793 15.0973 49.9386 15.2613C49.8979 15.425 49.827 15.6606 49.8572 15.804C49.8878 15.9471 50.111 15.9575 50.2021 15.8242C50.2936 15.6913 50.273 15.5171 50.2529 15.343C50.2327 15.1688 50.2633 14.9849 50.3036 14.913C50.3443 14.8415 50.4253 14.7389 50.5067 14.9336C50.588 15.128 50.6284 15.2816 50.7907 15.3329C50.9531 15.3842 51.0748 15.3123 51.0445 15.1179C51.0139 14.9235 50.8008 14.7082 50.588 14.5445C50.3749 14.3809 50.4458 14.2989 50.4559 14.1453C50.466 13.9918 50.4358 13.7154 50.4253 13.5925C50.6183 13.736 50.8314 13.7154 50.9326 13.7154C51.0341 13.7154 51.2007 13.6839 51.0341 13.5311C50.6993 13.224 50.8109 13.0394 50.5776 12.8143C50.3443 12.5892 50.1312 12.241 50.0603 11.9443C49.989 11.6474 49.8328 11.1047 49.5224 10.8283C49.35 10.6748 49.2992 10.255 49.3399 9.77372C49.3802 9.29249 49.3907 8.76031 48.9544 8.51463C48.518 8.26896 48.5281 8.06411 48.6703 7.84914C48.8122 7.63417 48.9947 7.4239 49.2283 7.40873C49.2809 7.40548 49.4022 7.39536 49.4515 7.35923C49.4296 7.34225 49.3939 7.31516 49.3298 7.3166Z" fill="#EA8B42"/>
<path fill-rule="evenodd" clip-rule="evenodd" d="M46.4923 8.42259C46.4815 8.6307 46.4865 8.81387 46.5294 8.95477C46.4282 9.34388 46.5092 9.58956 46.6309 9.71239C46.7529 9.83523 46.8033 9.88653 46.8238 10.03C46.844 10.173 46.9048 10.306 47.0064 10.388C47.1079 10.47 47.1687 10.5929 47.1788 10.6647C47.1889 10.7363 47.5028 11.0448 47.6353 11.1254C47.686 11.1557 47.6961 11.2175 47.7573 11.2992C47.7022 11.6225 47.7602 11.9459 47.8394 12.2685C47.1223 12.869 46.4145 12.5857 46.7122 11.9715C46.1168 12.4492 45.089 12.4358 45.319 11.9715C44.3856 12.2992 44.1015 12.0261 44.2232 11.7259C43.4388 12.0398 43.0327 11.7396 43.1411 11.521C42.4916 11.6984 42.0722 11.5893 42.0045 11.4802C41.9372 11.3711 42.0992 11.1254 42.2483 11.0026C41.9505 11.1117 41.6665 11.1117 41.3958 11.0708C41.1254 11.0297 41.1931 10.9476 41.2471 10.8248C41.3015 10.702 41.3724 10.5076 41.5887 10.3165C41.0714 10.4187 40.422 10.4906 39.9655 10.3367C39.8795 10.3078 39.7322 10.2753 39.8233 10.1835C39.9148 10.0914 40.1887 9.86594 40.5235 9.72251C39.7625 9.83523 38.3218 9.91724 37.916 9.4566C38.3117 9.53825 38.8189 9.37459 39.1436 9.24163C37.8653 9.0982 36.1204 8.21774 36.0999 7.35788C36.4653 7.95147 37.0945 8.15632 37.7234 8.34058C36.871 7.83875 36.516 7.23468 36.4858 6.83545C36.9725 7.30657 37.713 7.83875 38.4438 7.96195C37.9261 7.68557 37.2565 6.87664 37.074 6.31339C37.4495 6.6512 38.4132 7.19385 39.0727 7.36799C38.6162 7.0096 37.8757 6.15985 37.916 5.68909C38.0885 5.86323 38.5147 6.19055 39.387 6.7025C40.2596 7.21445 40.733 7.17687 41.4534 7.33042C41.3216 7.15303 41.2032 6.91747 41.1931 6.85605C41.4062 6.88676 41.6089 6.96877 42.2177 7.3474C42.8264 7.72639 44.1566 7.84237 44.9166 8.17692C45.4742 8.42259 46.2691 8.26905 46.4923 8.42259Z" fill="#EA8B42"/>
<path fill-rule="evenodd" clip-rule="evenodd" d="M51.084 13.6805C51.1174 13.6538 51.1174 13.6076 51.0339 13.5313C50.6991 13.2242 50.8107 13.0396 50.5774 12.8145C50.3442 12.5894 50.131 12.2412 50.0601 11.9445C49.9888 11.6476 49.8326 11.1049 49.5223 10.8285C49.3498 10.675 49.2991 10.2552 49.3398 9.77393C49.3743 9.36206 49.3869 8.91298 49.1162 8.63804C49.6234 8.49461 50.0907 8.46353 50.2527 8.6272C51.0948 8.41223 51.8256 8.3472 52.5423 8.29987C53.3674 8.24496 54.923 7.89017 56.0325 7.13941C55.9648 7.41255 55.5861 7.82189 55.2477 8.02674C56.3705 7.7536 57.7234 7.24852 58.8732 6.38866C58.8596 6.98948 58.3728 7.43964 58.0884 7.68568C58.8732 7.24852 60.0227 6.70262 60.4151 6.02014C60.5875 6.7196 59.4143 7.63438 58.7782 8.13946C59.4276 7.8255 60.2664 7.53538 60.5911 7.07113C60.5843 7.63763 59.847 8.3407 59.1436 8.75004C59.8607 8.47726 60.6588 8.1904 61.1185 7.76733C61.1725 8.33744 58.9744 9.64784 57.8854 10.0059C58.8326 9.77393 60.0634 9.45997 60.6045 9.13228C60.5775 9.24825 60.3568 9.41083 60.1962 9.52933C59.5346 10.0185 58.5197 10.2812 57.8991 10.4018C57.9804 10.7433 57.8721 10.9344 57.4934 10.9615C57.1146 10.9889 56.1981 10.8423 55.7384 10.6099C55.6707 10.6508 55.5893 10.6649 55.4979 10.675C55.9443 11.0128 56.0966 11.2585 56.0051 11.4019C55.9141 11.5453 55.5944 11.5193 55.351 11.4684C55.5436 12.011 54.8992 11.9753 54.3617 11.6678C54.5749 11.9445 54.6055 12.1797 54.311 12.2412C54.0169 12.3026 53.7832 12.2824 53.4992 12.0977C53.479 12.3026 53.2828 12.4392 53.0225 12.3709C53.9153 12.9135 53.8646 13.1115 53.7123 13.316C53.5604 13.5208 53.0276 13.48 52.7436 13.2958C52.6219 13.7156 52.1366 13.717 51.7744 13.3828C51.7712 13.5501 51.4256 13.8821 51.084 13.6805Z" fill="#EA8B42"/>
<path fill-rule="evenodd" clip-rule="evenodd" d="M46.9424 15.7393C46.9571 15.61 46.9694 15.4597 47.0774 15.3639C47.1857 15.2682 47.2534 15.1865 47.3481 15.2819C47.4428 15.3777 47.3819 15.4665 47.2534 15.5074C47.1249 15.5482 47.037 15.6642 47.0165 15.7393C46.9964 15.8144 46.9287 15.8553 46.9424 15.7393Z" fill="black"/>
<path fill-rule="evenodd" clip-rule="evenodd" d="M47.6792 16.3666C47.6122 16.152 47.6457 15.8753 47.7199 15.7933C47.7944 15.7113 47.8891 15.6567 47.9769 15.7387C48.0647 15.8207 48.0986 15.9367 47.9362 16.005C47.7926 16.0653 47.7807 16.2163 47.7742 16.3258C47.7674 16.4349 47.7199 16.4963 47.6792 16.3666Z" fill="black"/>
<path fill-rule="evenodd" clip-rule="evenodd" d="M48.6261 15.8142C48.5739 15.902 48.6394 16.2579 48.8154 16.3464C48.94 16.4092 48.998 16.3944 48.9234 16.2781C48.8493 16.1621 48.8763 16.053 48.917 15.9916C48.9573 15.9302 48.9508 15.8211 48.8626 15.7665C48.7748 15.7116 48.6664 15.7459 48.6261 15.8142Z" fill="black"/>
<path fill-rule="evenodd" clip-rule="evenodd" d="M49.3906 15.4933C49.279 15.4088 49.1743 15.5103 49.1336 15.5819C49.0522 15.7253 49.1134 15.9301 49.242 16.0461C49.3705 16.1621 49.35 16.0053 49.3093 15.937C49.269 15.8687 49.2621 15.7322 49.35 15.7184C49.4378 15.7051 49.499 15.575 49.3906 15.4933Z" fill="black"/>
<path fill-rule="evenodd" clip-rule="evenodd" d="M50.0265 15.7252C49.9178 15.693 49.8102 15.8072 49.8235 15.9438C49.8336 16.0457 49.844 16.1757 49.9452 16.244C50.0132 16.2895 50.0604 16.3192 50.0265 16.1963C49.9927 16.0735 50.0471 15.9709 50.1075 15.9369C50.1684 15.903 50.1414 15.7595 50.0265 15.7252Z" fill="black"/>
<path fill-rule="evenodd" clip-rule="evenodd" d="M50.9261 15.1451C50.8472 15.2008 50.8515 15.3298 50.9261 15.3775C51.0002 15.4251 51.1086 15.4934 51.0884 15.6094C51.0679 15.7254 51.1287 15.7666 51.1831 15.6369C51.2371 15.5072 51.2439 15.316 51.1831 15.2272C51.1219 15.1383 50.9934 15.0975 50.9261 15.1451Z" fill="black"/>
</g>
<g clip-path="url(#clip3_37941_2383)">
<path fill-rule="evenodd" clip-rule="evenodd" d="M48.9646 7.13342C49.0117 7.23758 49.1465 7.29908 49.3291 7.29395L49.3292 7.29395C49.3873 7.29264 49.4223 7.30819 49.4647 7.37739C49.4201 7.41007 49.3361 7.4246 49.2296 7.43118C49.0358 7.44378 48.8664 7.5926 48.6889 7.86155C48.5291 8.10312 48.5851 8.2808 48.9652 8.49486C49.343 8.70759 49.4206 9.07813 49.3622 9.77555C49.3194 10.2823 49.3811 10.6723 49.5372 10.8114C49.7957 11.0415 49.9621 11.4392 50.082 11.939C50.1505 12.2253 50.3577 12.5708 50.5931 12.798C50.6484 12.8513 50.6879 12.9052 50.7196 12.9666C50.7378 13.0019 50.751 13.0338 50.7725 13.091C50.8467 13.2886 50.8968 13.3747 51.0491 13.5144C51.1336 13.5918 51.15 13.6562 51.0978 13.6981C51.0634 13.7257 51.0014 13.7379 50.9324 13.7379C50.9152 13.738 50.9152 13.738 50.895 13.7384C50.7312 13.7414 50.6257 13.728 50.5044 13.6675C50.4865 13.6586 50.469 13.6488 50.4519 13.638C50.4527 13.6467 50.4535 13.656 50.4544 13.6654C50.4575 13.6995 50.4608 13.7354 50.4622 13.7519C50.4666 13.8026 50.4702 13.8477 50.4731 13.8905C50.4802 13.9979 50.4824 14.0837 50.4782 14.1467C50.4767 14.1706 50.474 14.1914 50.4689 14.2242C50.4594 14.2847 50.4576 14.3013 50.4594 14.3276C50.4639 14.3921 50.502 14.4501 50.6016 14.5265C50.8623 14.7271 51.0383 14.9343 51.0666 15.1143C51.0981 15.3166 50.9712 15.4135 50.7838 15.3543C50.6691 15.3181 50.61 15.243 50.542 15.0803C50.5383 15.0713 50.5284 15.0471 50.5178 15.0209C50.5053 14.99 50.4917 14.9565 50.4858 14.9423C50.4526 14.8629 50.4225 14.8375 50.396 14.8451C50.3732 14.8517 50.3478 14.8807 50.3231 14.924C50.2813 14.9985 50.2569 15.183 50.2751 15.3403L50.2753 15.342C50.3061 15.6079 50.3008 15.7202 50.2205 15.8369C50.1188 15.9859 49.8701 15.9724 49.8351 15.8086C49.8191 15.7327 49.828 15.6324 49.8566 15.4993C49.8645 15.4627 49.8736 15.4248 49.8854 15.3781C49.8865 15.3738 49.8896 15.3615 49.8936 15.3461C49.9016 15.3149 49.9128 15.2711 49.9166 15.2558C49.9323 15.1927 49.928 15.1573 49.9241 15.1566C49.9178 15.1554 49.8945 15.1851 49.8786 15.2372C49.8331 15.386 49.7101 15.5299 49.5333 15.6289C49.3468 15.7334 49.2382 15.6271 49.2259 15.3852C49.2164 15.1925 49.4299 14.9484 49.8635 14.5988C49.9477 14.5307 50.0043 14.4616 50.0379 14.3893C50.0986 14.2582 50.0898 14.1576 50.023 13.9005C50.0093 13.8477 50.0007 13.8132 49.9936 13.7806C49.7373 13.9119 49.201 13.9006 49.0304 13.7637C49.0188 13.8176 48.9937 13.8834 48.9433 14.0037L48.9431 14.0043C48.9115 14.0799 48.8979 14.1136 48.884 14.1528C48.8539 14.2383 48.8602 14.2835 48.8903 14.2957C48.923 14.3091 48.987 14.2926 49.0648 14.2484C49.2325 14.1533 49.4007 14.2779 49.413 14.4715C49.4229 14.6319 49.2358 14.7126 49.0896 14.6683C49.0137 14.6456 48.9791 14.6757 48.9345 14.7883C48.8986 14.8792 48.9215 15.0285 49.0164 15.3362C49.1222 15.6797 49.0019 15.99 48.7261 15.9282C48.5573 15.8903 48.5132 15.7565 48.5368 15.5223C48.5397 15.4933 48.5432 15.4656 48.5491 15.4223C48.562 15.3276 48.5646 15.306 48.5664 15.2702C48.568 15.2372 48.5681 15.2112 48.5668 15.1924C48.5582 15.2126 48.5481 15.243 48.5398 15.2768C48.4877 15.4872 48.3028 15.7694 48.1235 15.8744C47.931 15.9868 47.7726 15.8995 47.7852 15.7202C47.79 15.6543 47.837 15.5703 47.9338 15.4342L47.9607 15.3968C48.0834 15.2271 48.1036 15.1973 48.1214 15.1505C48.1661 15.0345 48.1595 15.0227 48.078 15.0473C47.9865 15.075 47.86 15.1592 47.7418 15.2674C47.5413 15.4516 47.3288 15.5245 47.2214 15.3768C47.1364 15.2599 47.1715 15.1445 47.3136 15.0349C47.4386 14.9384 47.6492 14.8421 47.9527 14.738C48.4335 14.5735 48.4703 14.4152 48.3715 13.6144C48.2493 13.6451 48.1245 13.6563 48.0086 13.6196C48.0584 13.3064 48.0194 13.0548 47.8708 12.4796C47.7188 11.8913 47.6788 11.6263 47.7393 11.3126C47.7235 11.2915 47.7102 11.2709 47.6965 11.2469C47.6943 11.243 47.6893 11.234 47.684 11.2244C47.6772 11.2122 47.67 11.1991 47.6673 11.1945C47.6521 11.1686 47.6401 11.1544 47.6235 11.1445C47.4794 11.0569 47.1674 10.7454 47.1564 10.6677C47.1455 10.5894 47.079 10.4756 46.9922 10.4054C46.89 10.3229 46.8234 10.1885 46.8015 10.033C46.7841 9.91163 46.7584 9.87264 46.6148 9.72814C46.4648 9.57662 46.4152 9.30409 46.5078 8.9612C46.4452 8.75561 46.4511 8.55763 46.5094 7.93994L46.5167 7.86149C46.5101 7.86382 46.5029 7.86549 46.4934 7.86705C46.4799 7.86909 46.4799 7.86909 46.4612 7.87146L46.4612 7.87147L46.4395 7.83683C46.4529 7.81595 46.4646 7.79557 46.4761 7.77325C46.4858 7.75421 46.4859 7.75404 46.4952 7.73483C46.494 7.73724 46.5321 7.65593 46.5454 7.62899C46.5687 7.58206 46.5938 7.53558 46.6252 7.48272C46.8635 7.08098 47.3915 6.68214 47.9758 6.46297C48.5295 6.255 48.752 6.24004 48.8628 6.51609C48.9117 6.51609 48.9364 6.51951 49.0804 6.54297C49.1627 6.5564 49.2154 6.56343 49.2704 6.56708L49.3051 6.56942C49.4348 6.57818 49.4892 6.58978 49.5549 6.63283C49.5838 6.65173 49.6119 6.67624 49.6405 6.70771C49.7602 6.83954 49.8087 7.05356 49.7571 7.24054L49.7205 7.25139C49.4551 7.01485 49.2524 6.98801 48.9646 7.13342ZM49.4378 7.37728C49.4024 7.34991 49.3762 7.3383 49.3303 7.33933L49.3305 7.33933C49.1315 7.34492 48.9794 7.27554 48.9329 7.12348C49.2365 6.94533 49.4557 6.96696 49.7223 7.19331C49.7199 7.20521 49.7171 7.21702 49.7139 7.22872L49.7505 7.21786C49.741 7.20942 49.7316 7.20124 49.7223 7.19331C49.755 7.03 49.7091 6.85042 49.6073 6.73837C49.5812 6.70961 49.556 6.6876 49.5305 6.67089C49.4731 6.63332 49.4246 6.62299 49.3022 6.61472L49.2675 6.61238C49.2108 6.60861 49.1569 6.60142 49.0733 6.58779C49.0472 6.58353 49.0251 6.57995 49.006 6.57685C48.9222 6.56328 48.896 6.55903 48.8424 6.54826C48.7264 6.29247 48.5223 6.30619 47.9917 6.5055C47.4163 6.72131 46.8966 7.11392 46.6639 7.50605C46.6332 7.55791 46.6086 7.60339 46.5859 7.64932C46.5723 7.67665 46.5323 7.76209 46.5361 7.75403C46.5313 7.76415 46.5288 7.76922 46.5263 7.77425C46.5238 7.7793 46.5213 7.78431 46.5162 7.79435C46.5119 7.80266 46.5075 7.81073 46.5031 7.81866C46.499 7.82026 46.4942 7.82142 46.4862 7.82272C46.4741 7.82454 46.4741 7.82454 46.4557 7.82689L46.4557 7.82689L46.4774 7.86153C46.4866 7.84724 46.495 7.83318 46.5031 7.81866C46.5039 7.81834 46.5047 7.818 46.5055 7.81764C46.5102 7.81555 46.5142 7.81312 46.5314 7.80253L46.5655 7.82388L46.5543 7.94443C46.4967 8.55435 46.4909 8.75099 46.5512 8.96054C46.4626 9.30141 46.5091 9.55749 46.6469 9.69652C46.7967 9.84731 46.8271 9.89338 46.8462 10.0269C46.8666 10.1718 46.928 10.2958 47.0205 10.3705C47.1161 10.4477 47.1885 10.5717 47.2011 10.6617C47.2095 10.7214 47.5137 11.0251 47.6468 11.1061C47.6709 11.1205 47.6875 11.14 47.7062 11.1719C47.7092 11.177 47.717 11.1911 47.7239 11.2036C47.729 11.2128 47.7337 11.2212 47.7357 11.2247C47.739 11.2306 47.7424 11.2363 47.7458 11.2421C47.7554 11.2584 47.7657 11.2759 47.7795 11.303C47.7248 11.6256 47.7641 11.8864 47.9145 12.4685C48.0646 13.0498 48.1043 13.3055 48.0334 13.601C48.1168 13.6102 48.2247 13.6019 48.3545 13.5918C48.3656 13.591 48.3769 13.5901 48.3883 13.5892C48.5179 14.428 48.4763 14.6069 47.9673 14.781C47.6682 14.8836 47.4613 14.9782 47.3411 15.0709C47.2165 15.1671 47.1893 15.2562 47.2579 15.3504C47.342 15.4663 47.5289 15.4022 47.7116 15.2343C47.8343 15.1219 47.9659 15.0343 48.0651 15.0043C48.1896 14.9667 48.2198 15.0207 48.1636 15.1669C48.1436 15.2194 48.1243 15.2479 47.9972 15.4236L47.9706 15.4607C47.8792 15.5891 47.8341 15.6697 47.8302 15.7237C47.8203 15.8652 47.9385 15.9305 48.101 15.8356C48.2688 15.7374 48.4468 15.4655 48.4962 15.2662C48.5132 15.1969 48.5346 15.1445 48.5562 15.13C48.5827 15.1122 48.6023 15.1319 48.6086 15.1635C48.613 15.186 48.614 15.2221 48.6114 15.2727C48.6096 15.3104 48.6069 15.3323 48.5938 15.4286C48.5879 15.4714 48.5845 15.4987 48.5817 15.5271C48.5601 15.7412 48.5971 15.8532 48.7361 15.8843C48.9662 15.9359 49.0709 15.6659 48.9735 15.3498C48.8754 15.0316 48.8516 14.8763 48.8928 14.7719C48.945 14.6402 48.9981 14.5939 49.1027 14.6253C49.2232 14.6618 49.3757 14.596 49.3682 14.4746C49.3578 14.3113 49.2226 14.2111 49.0871 14.288C48.9983 14.3384 48.9226 14.3578 48.8735 14.3378C48.8145 14.3137 48.8046 14.2433 48.8417 14.1379C48.856 14.0976 48.8697 14.0634 48.9017 13.9871L48.902 13.9865C48.9652 13.8353 48.9875 13.7726 48.9928 13.7135L49.0338 13.7028C49.1377 13.8552 49.7537 13.8746 49.9979 13.7269L50.0316 13.7418C50.0399 13.7838 50.0489 13.8209 50.0667 13.8894C50.1361 14.1566 50.1456 14.2645 50.0788 14.4085C50.0421 14.4875 49.9811 14.562 49.8918 14.6342C49.4713 14.9732 49.2625 15.212 49.2709 15.3832C49.2818 15.5965 49.361 15.674 49.5115 15.5897C49.6785 15.4961 49.7937 15.3614 49.8357 15.2242C49.8577 15.152 49.8944 15.1052 49.9326 15.1124C49.9747 15.1204 49.9819 15.1801 49.9604 15.267C49.9566 15.2825 49.9452 15.3266 49.9372 15.3579C49.9333 15.3731 49.9302 15.3852 49.9291 15.3895C49.9174 15.4356 49.9085 15.4731 49.9007 15.5091C49.8734 15.6364 49.8649 15.7315 49.8792 15.7994C49.905 15.9201 50.1021 15.9308 50.1836 15.8115C50.2552 15.7074 50.2602 15.6022 50.2307 15.3474L50.2305 15.3457C50.2113 15.1798 50.237 14.986 50.2841 14.902C50.3143 14.8488 50.3458 14.8129 50.3837 14.8019C50.4381 14.7862 50.4865 14.8272 50.5274 14.9251C50.5335 14.9396 50.5473 14.9736 50.5599 15.0047C50.5703 15.0306 50.58 15.0543 50.5836 15.0631C50.647 15.2147 50.6986 15.2803 50.7975 15.3115C50.9543 15.361 51.0483 15.2892 51.0223 15.1216C50.9963 14.9566 50.8265 14.7566 50.5743 14.5626C50.4654 14.479 50.4201 14.4102 50.4146 14.3309C50.4125 14.2999 50.4145 14.2817 50.4245 14.2174C50.4295 14.1859 50.432 14.1662 50.4334 14.144C50.4374 14.0834 50.4353 13.9993 50.4283 13.8937C50.4254 13.8513 50.4219 13.8065 50.4175 13.7561C50.4161 13.7397 50.4128 13.704 50.4097 13.6701C50.4066 13.6364 50.4037 13.6044 50.4029 13.5946L50.4387 13.5746C50.4662 13.595 50.4948 13.6125 50.5246 13.6273C50.6377 13.6837 50.7372 13.6964 50.8943 13.6935C50.905 13.6933 50.91 13.6932 50.9151 13.6931C50.9196 13.693 50.9241 13.693 50.9325 13.693C50.9919 13.693 51.0457 13.6824 51.0698 13.6631C51.0945 13.6433 51.0858 13.6093 51.0189 13.5479C50.8604 13.4026 50.807 13.3108 50.7305 13.1072C50.7096 13.0515 50.6969 13.0209 50.6797 12.9875C50.6503 12.9305 50.6137 12.8806 50.562 12.8308C50.3206 12.5979 50.1089 12.2448 50.0384 11.9498C49.9205 11.4586 49.7568 11.0674 49.5075 10.8454C49.337 10.6936 49.2735 10.2922 49.3175 9.77199C49.3745 9.09121 49.3 8.7353 48.9433 8.53448C48.5415 8.30822 48.4764 8.10155 48.6515 7.83683C48.8361 7.55709 49.0148 7.40013 49.2269 7.38635C49.2574 7.38446 49.2863 7.38178 49.3126 7.37935C49.3695 7.37407 49.4144 7.3699 49.4378 7.37728Z" fill="black"/>
<path fill-rule="evenodd" clip-rule="evenodd" d="M45.9441 8.31578C46.291 8.32802 46.4172 8.34357 46.5049 8.40389L46.5147 8.42369C46.5026 8.65532 46.5124 8.82202 46.551 8.9604C46.4624 9.30127 46.509 9.55735 46.6467 9.69638C46.7965 9.84717 46.8269 9.89324 46.846 10.0267C46.8664 10.1716 46.9279 10.2956 47.0204 10.3703C47.116 10.4476 47.1884 10.5716 47.201 10.6615C47.2094 10.7213 47.5135 11.0249 47.6467 11.1059C47.6708 11.1203 47.6874 11.1398 47.7061 11.1717C47.7091 11.1769 47.7169 11.1909 47.7238 11.2035C47.7289 11.2127 47.7335 11.221 47.7355 11.2245C47.7389 11.2304 47.7422 11.2361 47.7457 11.2419C47.7553 11.2583 47.7656 11.2758 47.7794 11.3029C47.732 11.5814 47.7621 11.8596 47.8537 12.2858C47.5143 12.57 47.1476 12.6789 46.8884 12.597C46.6535 12.5227 46.5611 12.3077 46.6586 12.0399C46.3824 12.2351 46.0154 12.3489 45.7059 12.3472C45.3871 12.3455 45.2072 12.2181 45.2787 12.0091C44.5086 12.2677 44.0802 12.1213 44.1857 11.7644C43.5483 12.0022 43.0202 11.8373 43.1037 11.5542C42.5565 11.6946 42.0802 11.645 41.9853 11.492C41.9262 11.3962 42.0182 11.2027 42.1578 11.056C41.916 11.127 41.6695 11.1349 41.3923 11.0931C41.2618 11.0732 41.1971 11.0425 41.1797 10.9902C41.1665 10.9503 41.1706 10.9383 41.2202 10.8295L41.2265 10.8156C41.2263 10.8159 41.2589 10.7406 41.2702 10.716C41.2898 10.6728 41.3091 10.6345 41.331 10.5963C41.3808 10.5093 41.4407 10.4292 41.5165 10.3533C40.8836 10.4717 40.3437 10.488 39.9583 10.358C39.9535 10.3564 39.9405 10.3523 39.9277 10.3482C39.9163 10.3445 39.9051 10.3409 39.9005 10.3394C39.8467 10.3216 39.8137 10.306 39.7926 10.284C39.7609 10.2509 39.7657 10.2094 39.8073 10.1675C39.9304 10.0435 40.148 9.8841 40.3794 9.76539C39.281 9.91015 38.2298 9.847 37.8991 9.47148L37.9205 9.43441C38.2287 9.49801 38.6251 9.41928 39.0534 9.25322C37.6508 9.06595 36.0962 8.15253 36.0773 7.35834L36.1189 7.34594C36.4034 7.80811 36.7831 8.02803 37.5652 8.26944C36.8881 7.83151 36.4974 7.28744 36.4632 6.83709L36.5013 6.81913C37.0544 7.35452 37.7133 7.77256 38.3183 7.91362C37.8172 7.58763 37.2241 6.84967 37.0525 6.3203L37.0889 6.29651C37.4712 6.64041 38.3579 7.12618 38.9727 7.31575C38.413 6.84565 37.8594 6.08603 37.8935 5.68708L37.9319 5.6731C38.1457 5.88902 38.6365 6.23585 39.3983 6.68293C39.8703 6.95984 40.2299 7.08698 40.7036 7.17449C40.7706 7.18687 40.8355 7.19792 40.9375 7.21464C41.1892 7.2559 41.2821 7.27177 41.4013 7.29635C41.2909 7.1367 41.1821 6.92822 41.1708 6.85964L41.1962 6.83362C41.4329 6.86772 41.6592 6.97344 42.2294 7.32814C42.5042 7.49921 42.8401 7.59974 43.6552 7.78937L43.6928 7.79812C44.3507 7.95121 44.643 8.03179 44.9255 8.15617C45.0729 8.22111 45.2451 8.26171 45.4505 8.28537C45.5894 8.30138 45.6898 8.3068 45.9441 8.31578ZM46.4691 8.43451C46.4693 8.43018 46.4695 8.42583 46.4697 8.42146L46.4795 8.44126C46.4761 8.43894 46.4726 8.43669 46.4691 8.43451ZM37.9828 9.49088C38.3103 9.53517 38.7172 9.44065 39.1521 9.26258L39.1461 9.21923C37.7955 9.0677 36.2641 8.20791 36.1314 7.44826C36.4382 7.89945 36.8604 8.11132 37.7171 8.3623L37.7348 8.32114C37.0118 7.89557 36.5816 7.34882 36.5149 6.89469C37.1046 7.45308 37.8064 7.87745 38.44 7.98426L38.4543 7.94205C37.9671 7.68193 37.3383 6.93942 37.1237 6.386C37.5646 6.75034 38.4765 7.23398 39.0669 7.38987L39.0865 7.35025C38.5337 6.91621 37.9532 6.15479 37.9373 5.74145C38.1709 5.96206 38.6517 6.29721 39.3756 6.72203C39.8523 7.00172 40.2168 7.1306 40.6955 7.21902C40.7629 7.23147 40.8279 7.24256 40.9303 7.25933C41.2194 7.30672 41.2983 7.32049 41.4486 7.35255L41.4714 7.31696C41.3686 7.1786 41.2571 6.9763 41.2242 6.88394C41.4417 6.9224 41.6687 7.03261 42.2057 7.36663C42.4865 7.54144 42.8243 7.64251 43.645 7.83348L43.6826 7.84223C44.3376 7.99464 44.6285 8.07482 44.9075 8.19763C45.0595 8.26463 45.2359 8.30622 45.4454 8.33035C45.5859 8.34654 45.6871 8.352 45.9426 8.36102C46.2628 8.37233 46.3911 8.3869 46.4691 8.43451C46.4578 8.66422 46.4683 8.83157 46.5078 8.9614C46.4152 9.3043 46.4648 9.57683 46.6148 9.72835C46.7584 9.87285 46.7841 9.91184 46.8015 10.0332C46.8234 10.1887 46.89 10.3231 46.9922 10.4056C47.079 10.4758 47.1455 10.5896 47.1564 10.6679C47.1674 10.7456 47.4794 11.0571 47.6235 11.1447C47.6401 11.1546 47.6521 11.1688 47.6673 11.1947C47.67 11.1993 47.6772 11.2124 47.6839 11.2245C47.6893 11.2342 47.6943 11.2432 47.6965 11.2471C47.7102 11.2711 47.7235 11.2917 47.7393 11.3128C47.6863 11.5814 47.7171 11.865 47.8175 12.2739C47.4963 12.5264 47.1448 12.6308 46.9019 12.554C46.6724 12.4814 46.5966 12.2616 46.7324 11.9814L46.6981 11.9539C46.4245 12.1734 46.0316 12.304 45.7061 12.3022C45.3916 12.3005 45.2412 12.1792 45.3391 11.9816L45.3115 11.9503C44.5071 12.2326 44.1035 12.0809 44.244 11.7344L44.2148 11.7049C43.5552 11.9689 43.0321 11.7914 43.1611 11.5311L43.1351 11.4993C42.5872 11.6489 42.1069 11.6026 42.0236 11.4683C41.9709 11.383 42.0989 11.1549 42.2625 11.02L42.2405 10.9814C41.9745 11.0789 41.7068 11.0949 41.3991 11.0485C41.2842 11.031 41.2326 11.0066 41.2225 10.9761C41.2148 10.9532 41.2192 10.9405 41.2612 10.8484L41.2676 10.834C41.3824 10.5745 41.425 10.5001 41.5766 10.3579C41.5832 10.3519 41.5864 10.3488 41.5898 10.3458C41.5932 10.3427 41.5966 10.3396 41.6035 10.3335L41.5843 10.2944C40.9255 10.4246 40.3641 10.4473 39.9726 10.3153C39.9675 10.3136 39.9538 10.3092 39.9408 10.3051C39.9296 10.3015 39.919 10.2981 39.9147 10.2967C39.8678 10.2811 39.8393 10.2677 39.8251 10.2528C39.812 10.2391 39.8135 10.2253 39.8392 10.1995C39.9821 10.0554 40.2589 9.86043 40.5323 9.74331L40.5202 9.70021C39.4381 9.86048 38.3656 9.82127 37.9828 9.49088ZM37.9828 9.49088C37.9645 9.47514 37.9479 9.45875 37.9328 9.44168L37.9114 9.47876C37.9348 9.48357 37.9585 9.4876 37.9828 9.49088ZM41.2242 6.88394C41.2196 6.87118 41.2166 6.86052 41.2152 6.85242L41.1898 6.87844C41.2013 6.88009 41.2127 6.88191 41.2242 6.88394ZM37.9373 5.74145C37.9367 5.72401 37.937 5.7072 37.9384 5.69106L37.9 5.70504C37.9117 5.71681 37.9241 5.72894 37.9373 5.74145ZM37.1237 6.386C37.1132 6.359 37.1038 6.33246 37.0953 6.30645L37.0589 6.33025C37.0792 6.34847 37.1008 6.36707 37.1237 6.386ZM36.5149 6.89469C36.5119 6.87419 36.5097 6.85388 36.5081 6.83378L36.4701 6.85175C36.485 6.86615 36.4999 6.88046 36.5149 6.89469ZM36.1314 7.44826C36.1261 7.41778 36.123 7.38747 36.1223 7.35738L36.0806 7.36978C36.0972 7.39673 36.1141 7.42287 36.1314 7.44826Z" fill="black"/>
<path fill-rule="evenodd" clip-rule="evenodd" d="M51.0728 13.7001L51.0702 13.6629C51.0948 13.6433 51.086 13.6092 51.019 13.548C50.8606 13.4027 50.8072 13.3109 50.7307 13.1073C50.7097 13.0516 50.697 13.021 50.6798 12.9877C50.6504 12.9306 50.6138 12.8808 50.5621 12.8309C50.3207 12.598 50.1091 12.2449 50.0385 11.9499C49.9206 11.4587 49.7569 11.0675 49.5076 10.8455C49.3371 10.6937 49.2736 10.2923 49.3176 9.77209C49.323 9.70814 49.3272 9.64735 49.3302 9.58949L49.3446 9.59723L49.3443 9.59897L49.3469 9.59845C49.3559 9.60324 49.365 9.60792 49.3741 9.61248C49.3711 9.66472 49.3672 9.71921 49.3625 9.77613C49.3196 10.2829 49.3813 10.6729 49.5375 10.8119C49.7959 11.0421 49.9623 11.4398 50.0823 11.9396C50.1507 12.2259 50.3579 12.5714 50.5933 12.7985C50.6486 12.8519 50.6882 12.9057 50.7198 12.9671C50.738 13.0025 50.7513 13.0344 50.7728 13.0916C50.847 13.2891 50.8971 13.3753 51.0493 13.5149C51.119 13.5785 51.1425 13.6336 51.1195 13.6743C51.1115 13.6703 51.1035 13.666 51.0956 13.6614L51.0983 13.6985C51.1075 13.6911 51.1145 13.6831 51.1195 13.6743C51.3924 13.8109 51.7482 13.5888 51.7522 13.3827L51.7899 13.3665C52.1556 13.7039 52.6102 13.6763 52.7222 13.2897L52.756 13.2771C53.0471 13.4659 53.5582 13.4867 53.6946 13.3028C53.8824 13.0505 53.7719 12.8529 53.0112 12.3905L53.0285 12.3493C53.2662 12.4117 53.4575 12.2952 53.4771 12.0958L53.5117 12.0791C53.774 12.2496 53.9958 12.2843 54.3067 12.2193C54.5616 12.1662 54.5665 11.9705 54.3442 11.6819L54.3732 11.6485C54.6402 11.8012 54.9307 11.8845 55.1282 11.8647C55.3366 11.8438 55.4151 11.7156 55.3301 11.4762L55.3559 11.4466C55.668 11.5119 55.9156 11.5016 55.9865 11.39C56.0719 11.256 55.9072 11.0131 55.4846 10.6933L55.4957 10.6528C55.606 10.6406 55.6712 10.6246 55.7488 10.5901C56.1667 10.8013 57.0705 10.9698 57.492 10.9392C57.8447 10.914 57.9586 10.7478 57.8951 10.38C58.7998 10.2041 59.6322 9.91876 60.1832 9.51143C60.2429 9.46736 60.2696 9.44743 60.3037 9.42127C60.3521 9.38406 60.3933 9.35068 60.4293 9.31902C60.4848 9.27013 60.5264 9.22659 60.5525 9.18902C60.5746 9.1767 60.5959 9.16433 60.6164 9.1519L60.5828 9.12743C60.5786 9.14567 60.5684 9.16625 60.5525 9.18902C60.0886 9.44824 59.2781 9.68843 57.891 10.0281L57.8787 9.98471L57.8804 9.98415L57.8824 9.9835C59.1142 9.57729 61.0171 8.34611 61.0948 7.81947C61.1081 7.80784 61.1212 7.79611 61.134 7.78427L61.0964 7.76976C61.0979 7.78553 61.0973 7.80212 61.0948 7.81947C60.7754 8.09865 60.3252 8.3208 59.5735 8.6109C59.5105 8.63521 59.4458 8.65991 59.3615 8.69192L59.1519 8.77144L59.1326 8.73079C59.8902 8.28991 60.5009 7.64279 60.5637 7.14593C60.5798 7.1258 60.5952 7.10531 60.6098 7.08439L60.5689 7.07115C60.5686 7.09565 60.5669 7.1206 60.5637 7.14593C60.354 7.40671 60.007 7.60753 59.3396 7.90813L59.3181 7.91776L59.3171 7.91821L59.3166 7.91845L59.3162 7.91865L59.3148 7.91928C59.251 7.94786 59.0841 8.02276 59.0294 8.04757C58.937 8.08957 58.8598 8.12548 58.7882 8.16009L58.7645 8.12204C59.098 7.85726 59.2141 7.76307 59.3956 7.60492C59.7372 7.30716 59.9977 7.03684 60.1729 6.78164C60.3518 6.52115 60.433 6.2872 60.4044 6.08229C60.415 6.0655 60.4251 6.04864 60.4349 6.03172L60.3935 6.02586C60.3981 6.04441 60.4017 6.06323 60.4044 6.08229C60.1619 6.46683 59.6931 6.8193 58.9423 7.24385C58.8232 7.31116 58.5249 7.47368 58.3152 7.58794L58.3152 7.58797L58.3123 7.58954C58.2076 7.64658 58.1255 7.69133 58.0996 7.70572L58.074 7.66887C58.5525 7.25495 58.8221 6.89245 58.8491 6.43518L58.887 6.40705L58.851 6.38843C58.8507 6.40412 58.85 6.41971 58.8491 6.43518C57.8307 7.1871 56.5825 7.72316 55.2743 8.04383L55.241 8.01906L55.2364 8.00769C55.5568 7.81368 55.893 7.45125 55.9918 7.19409C56.0098 7.18227 56.0277 7.17039 56.0454 7.15843L56.0109 7.13425C56.0062 7.15343 55.9998 7.17342 55.9918 7.19409C55.0278 7.82665 53.5936 8.25284 52.5441 8.32269C51.5945 8.3854 50.9798 8.46525 50.237 8.6434C50.0955 8.50039 49.6781 8.50801 49.1585 8.65008C49.1501 8.64074 49.1414 8.63153 49.1325 8.62246L49.1226 8.66006L49.1585 8.65008C49.339 8.85127 49.3942 9.11751 49.3776 9.53862L49.3356 9.54693L49.3308 9.57819C49.3529 9.12503 49.2966 8.85312 49.1005 8.65396L49.1104 8.61636C49.6621 8.46034 50.108 8.44869 50.2474 8.60537C50.9718 8.42043 51.589 8.34026 52.5411 8.27739C53.6028 8.20673 55.0635 7.76808 56.0202 7.12075L56.0546 7.14492C55.9944 7.38784 55.6891 7.74629 55.3705 7.97301C56.6504 7.64687 57.8677 7.1127 58.8601 6.3706L58.896 6.38923C58.8858 6.83556 58.6604 7.18896 58.2489 7.57245L58.2943 7.5477L58.2944 7.54767C58.5041 7.43342 58.8016 7.27133 58.9201 7.20427C59.6969 6.76504 60.1687 6.40406 60.3959 6.00891L60.4372 6.01477C60.4947 6.24775 60.4121 6.5127 60.21 6.80703C60.0321 7.06597 59.7693 7.33875 59.425 7.63878C59.2735 7.77086 59.1674 7.85843 58.9438 8.03684L59.0108 8.0062C59.0668 7.98078 59.24 7.90307 59.3004 7.876L59.3212 7.86669C60.0322 7.54645 60.3753 7.34081 60.573 7.05821L60.6139 7.07146C60.6081 7.55261 60.0686 8.18107 59.3573 8.64496C59.4359 8.61513 59.4974 8.59164 59.5573 8.56851C60.3352 8.26832 60.7875 8.04165 61.1036 7.75074L61.1412 7.76525C61.1865 8.24328 59.5401 9.3661 58.2683 9.88775C59.4768 9.58353 60.1884 9.35811 60.5931 9.113L60.6266 9.13747C60.6126 9.19798 60.555 9.26822 60.4589 9.35275C60.4221 9.38515 60.3802 9.41912 60.331 9.45689C60.2967 9.48328 60.2698 9.50333 60.2098 9.54757C59.6522 9.95984 58.8144 10.247 57.9212 10.3966C58.0087 10.7635 57.8763 10.9568 57.4953 10.9841C57.0658 11.0152 56.1539 10.8451 55.7502 10.6294C55.6979 10.6609 55.6403 10.6782 55.5555 10.6905C55.9641 11.008 56.1252 11.2559 56.0244 11.4141C55.942 11.5438 55.6978 11.5589 55.3847 11.4982C55.4576 11.7423 55.3591 11.8867 55.1327 11.9094C54.9463 11.9281 54.6865 11.8611 54.4371 11.7341C54.6158 12.0049 54.5871 12.2067 54.3158 12.2633C54.0054 12.3281 53.7769 12.2965 53.5167 12.1354C53.4824 12.3099 53.3275 12.4199 53.13 12.4104C53.8247 12.8449 53.9307 13.0609 53.7306 13.3295C53.581 13.5313 53.0682 13.5159 52.7565 13.3303C52.6239 13.7165 52.165 13.7473 51.7919 13.4283C51.7423 13.6582 51.3601 13.8696 51.0728 13.7001ZM50.3729 9.46331C50.3838 9.43394 50.392 9.40218 50.3971 9.36799L50.3706 9.34244L49.3776 9.53862L49.3763 9.56969C49.3677 9.56511 49.3592 9.56041 49.3507 9.5556L49.3446 9.59723L49.3469 9.59845L49.3751 9.59268L49.3741 9.61248C49.7601 9.80618 50.1868 9.79487 50.3425 9.52785C50.6805 9.71159 51.2148 9.62156 51.3871 9.36409C51.8718 9.53959 52.3249 9.4342 52.4056 8.98941L52.3762 8.96399L51.4245 9.29039C51.4381 9.25244 51.4444 9.21174 51.4423 9.16851L50.3729 9.46331ZM50.3629 9.48804C50.3664 9.47999 50.3698 9.47175 50.3729 9.46331L50.3279 9.47571L50.323 9.51681C50.3294 9.52059 50.3359 9.52428 50.3425 9.52785L50.3487 9.51679L50.393 9.50344C50.7115 9.65585 51.1909 9.56916 51.3623 9.35487L51.3871 9.36409C51.3908 9.35862 51.3943 9.35307 51.3976 9.34744L51.4373 9.33385C51.8709 9.479 52.2625 9.38696 52.3532 9.01972L52.3908 9.00682L52.3614 8.98141C52.359 8.9945 52.3563 9.00726 52.3532 9.01972L51.4373 9.33385C51.4282 9.33082 51.4192 9.32769 51.4101 9.32446C51.4155 9.31337 51.4204 9.30201 51.4245 9.29039L51.3981 9.29944C51.415 9.26581 51.4247 9.22975 51.4259 9.19158L50.393 9.50344C50.3828 9.49855 50.3727 9.49342 50.3629 9.48804ZM51.3887 9.31668C51.3959 9.31934 51.403 9.32193 51.4101 9.32446C51.4062 9.33225 51.4021 9.33991 51.3976 9.34744L51.3763 9.35474L51.3767 9.33561C51.3809 9.3294 51.385 9.32309 51.3887 9.31668ZM51.3887 9.31668C51.3849 9.31523 51.381 9.31376 51.3771 9.31227L51.3767 9.33561C51.3722 9.34214 51.3674 9.34856 51.3623 9.35487L51.361 9.35438L51.3618 9.31191L51.3981 9.29944C51.3952 9.30526 51.3921 9.31101 51.3887 9.31668ZM50.3629 9.48804C50.3585 9.49792 50.3538 9.5075 50.3487 9.51679L50.3405 9.51927L50.3455 9.47817C50.3512 9.48155 50.357 9.48483 50.3629 9.48804ZM49.4076 9.58604L49.3751 9.59268L49.3763 9.56969C49.3867 9.57531 49.3972 9.58075 49.4076 9.58604ZM50.3467 9.39432C50.2692 9.74839 49.8204 9.7941 49.4076 9.58604L50.3467 9.39432ZM50.3467 9.39432C50.349 9.38359 50.351 9.37257 50.3527 9.36127L50.3793 9.38767L50.3467 9.39432ZM55.2738 8.04397L55.2743 8.04383L57.8824 9.9835L55.2738 8.04397ZM55.2414 8.01988L55.2738 8.04397L55.2533 8.04897L55.2414 8.01988ZM55.2413 8.01983L55.2411 8.01919L55.2414 8.01988L55.2413 8.01983ZM55.2405 8.01925L53.2121 8.67407L53.2227 8.71784C53.4375 8.68182 53.7755 8.58227 54.2247 8.42915C54.2868 8.40799 54.3508 8.38587 54.4171 8.36268C54.6407 8.2845 55.2775 8.05398 55.2554 8.06183L55.2413 8.01983L55.2405 8.01925ZM55.2405 8.01925L55.2549 8.06202L53.226 8.71704L53.2154 8.67327C53.4271 8.63778 53.7634 8.53872 54.2104 8.38636C54.2723 8.36525 54.3362 8.34317 54.4024 8.32001C54.6182 8.24456 55.2199 8.02683 55.2405 8.01925ZM49.3308 9.57819L49.3302 9.58949L49.3291 9.5889L49.3308 9.57819ZM41.4249 7.33644C41.5683 7.54549 41.9446 7.85199 42.1815 7.92658C42.1985 8.09246 42.2685 8.25318 42.3863 8.38277L41.3149 8.03906L41.2863 8.06641C41.3113 8.16006 41.3536 8.24255 41.4084 8.31297L40.6708 8.01387C40.7317 8.01501 40.7986 8.01086 40.8716 8.00112L40.8837 7.96199L40.3533 7.481C40.447 7.50224 40.5413 7.51871 40.636 7.53007L40.649 7.48757L38.5995 6.42972L38.5738 6.4662C39.064 6.932 39.6333 7.28787 40.2326 7.45088C40.1944 7.53746 40.1844 7.64764 40.2129 7.74406L39.0702 7.33677L39.0483 7.37548C39.2993 7.58283 39.6915 7.70551 40.2344 7.79954C40.2373 7.80546 40.2404 7.81129 40.2437 7.81701C40.2924 7.9021 40.3752 7.96189 40.4932 7.99191C40.4724 8.04285 40.4624 8.09185 40.4627 8.13783C39.9172 8.03411 39.5721 8.00088 39.4289 8.06395C39.3548 8.09684 39.3055 8.14347 39.2838 8.1972C39.1874 8.15965 39.0963 8.12822 38.9962 8.09736C38.9565 8.08513 38.9151 8.07289 38.8674 8.05923C38.8955 8.06727 38.5622 7.97356 38.4501 7.94021L38.4375 7.98499L38.4378 7.9851L38.4377 7.98546L38.4636 7.9931L39.2721 8.24388C39.2637 8.32244 39.3088 8.41089 39.4142 8.49201C39.4513 8.52048 39.4954 8.54773 39.5459 8.57375C39.4391 8.62496 39.3989 8.7087 39.4216 8.79832L37.7297 8.31913L37.7115 8.35993C38.1475 8.63742 38.693 8.78556 39.4433 8.85352C39.4636 8.89199 39.4951 8.93055 39.5375 8.96717C39.4867 9.02631 39.467 9.09282 39.4745 9.16055C39.3737 9.15733 39.2297 9.18301 39.1354 9.22251L39.1473 9.2672L39.4855 9.21249C39.5058 9.27768 39.5504 9.34255 39.6159 9.40166C40.1608 9.89472 41.506 9.88523 42.7782 9.44235C42.807 9.50653 42.8812 9.55069 42.9997 9.58387C43.0479 9.59742 43.0968 9.60897 43.1463 9.61855L41.58 10.2959L41.5922 10.339C42.0678 10.2691 42.7358 9.95874 43.2292 9.63272C43.3601 9.6521 43.4943 9.65823 43.6294 9.6519C43.5716 9.75979 43.5615 9.89801 43.6035 10.0151L41.9516 10.6009L41.9479 10.602L41.948 10.6022L41.9469 10.6026L41.9608 10.6455C42.5063 10.4847 43.2193 10.2354 43.6217 10.0579C43.6712 10.1578 43.7634 10.2354 43.9013 10.2534L42.2394 10.9818L42.254 11.0244C42.6423 10.9237 43.4123 10.5871 44.0017 10.2624C44.1706 10.2716 44.3572 10.2533 44.5496 10.2136C44.5135 10.2883 44.4922 10.362 44.4851 10.432L42.8979 11.1768L42.913 11.2191C43.3939 11.0958 43.8281 10.8785 44.4824 10.4868C44.4829 10.5923 44.5172 10.6873 44.5833 10.7619L43.1312 11.4944L43.1459 11.5367C43.3037 11.5036 43.492 11.4321 43.7057 11.3284C43.8228 11.2715 43.9457 11.2059 44.0739 11.1325C44.2569 11.0277 44.4008 10.9379 44.6183 10.7969C44.6919 10.8621 44.7945 10.9069 44.9242 10.9225C44.939 10.9243 44.954 10.9256 44.9693 10.9265L43.781 11.4836L43.7952 11.5261C44.0591 11.4701 44.3112 11.3667 44.5828 11.2172C44.644 11.1835 44.769 11.1091 44.8804 11.0427L44.8805 11.0426L44.8806 11.0426L44.8806 11.0426L44.8807 11.0425C44.967 10.9911 45.0451 10.9446 45.0791 10.9256C45.2147 10.9162 45.3657 10.8773 45.5253 10.8118C45.4544 10.9234 45.4164 11.0127 45.4105 11.0912L44.1963 11.6987L44.2138 11.7402C44.4271 11.6656 45.0441 11.3506 45.4115 11.1434C45.4176 11.1957 45.4397 11.2441 45.4773 11.2924C45.515 11.3408 45.5597 11.3671 45.6186 11.3717L44.7856 11.7597L44.8035 11.8011L44.8045 11.8007L44.8046 11.8009L44.8084 11.7991C45.0943 11.6834 45.4822 11.5033 45.8104 11.3347C45.8991 11.3022 46.0081 11.2489 46.1447 11.1752C46.2525 11.1173 46.3795 11.035 46.525 10.9307C46.5632 10.9033 46.6026 10.8744 46.6432 10.8441C46.6121 10.9571 46.6105 11.0545 46.635 11.1357L45.3047 11.9433L45.3042 11.9434L45.3043 11.9435L45.3007 11.9457L45.3204 11.9861C45.6779 11.8487 46.3398 11.4342 46.6527 11.1823C46.687 11.256 46.7458 11.3138 46.8257 11.3551L45.8987 11.9458L45.9196 11.9857C46.2726 11.836 46.681 11.5719 46.8783 11.3787L46.8871 11.382C47.0925 11.4587 47.2994 11.4612 47.4933 11.3598L46.6988 11.957L46.7238 11.9945L46.7258 11.9933L46.7258 11.9933L46.726 11.9932C47.1136 11.7627 47.5729 11.4229 47.7239 11.2421L47.6931 11.2095L47.6913 11.2109L47.6851 11.1765L46.7463 10.7662C46.7982 10.7265 46.8522 10.6845 46.9113 10.638C46.9469 10.6099 47.0371 10.5385 47.0794 10.505L47.1016 10.4874L47.0836 10.4474L46.4694 10.5613L46.8985 10.2323L46.8723 10.1956L46.8712 10.1963L46.5994 10.0536C46.6572 9.99518 46.7141 9.93426 46.77 9.87094L46.75 9.83362L46.3023 9.89754L46.1423 9.81352L46.2927 9.7127C46.385 9.65118 46.4589 9.60296 46.529 9.55887L46.5308 9.55778L46.5308 9.55773L46.5314 9.55731L46.5081 9.51872L46.0721 9.77668L45.8429 9.6563C45.9533 9.57846 46.0518 9.49676 46.1339 9.41347C46.2437 9.39827 46.3571 9.37693 46.4725 9.34897L46.4781 9.35006L46.478 9.34763L46.4876 9.34528L46.4865 9.30117L45.1397 9.04238C45.2255 9.03596 45.3137 9.02566 45.4036 9.01115L45.4063 8.96718L43.8609 8.51376L43.8321 8.53434C43.8313 8.5499 43.8319 8.56526 43.8339 8.58042L43.2655 8.30291L41.6532 7.45628L41.4571 7.3057L41.4249 7.33644ZM41.4318 7.34003L41.4249 7.33644L41.4312 7.34056L41.4299 7.34185L41.6004 7.47282C41.7296 7.60265 41.9029 7.73828 42.0533 7.82076L42.1807 7.91859L42.1815 7.92658C42.1884 7.92878 42.1953 7.93077 42.202 7.93255L42.2214 7.8928L42.1775 7.85902C42.1773 7.8493 42.1773 7.83957 42.1775 7.82983L42.2223 7.85921C42.2276 8.17025 42.4311 8.4755 42.7958 8.58537C43.0266 8.65492 43.2543 8.68169 43.4638 8.6731L43.5226 8.71163L43.5121 8.71579C43.285 8.73079 43.0357 8.70483 42.783 8.62868C42.6572 8.59078 42.5495 8.53071 42.4613 8.45548L42.472 8.44701L42.4647 8.40793L42.3863 8.38277C42.3994 8.39722 42.4132 8.41129 42.4275 8.42493C42.4216 8.4294 42.4156 8.43376 42.4095 8.438L41.3419 8.09549C41.3375 8.08228 41.3334 8.0688 41.3297 8.05506L41.3011 8.08242L41.3419 8.09549C41.3881 8.23265 41.4754 8.34194 41.5845 8.41968L41.482 8.39374L41.4809 8.39263L41.4907 8.38962L41.4925 8.3471L41.4084 8.31297C41.4201 8.32797 41.4323 8.34241 41.445 8.3563L41.4157 8.3647L40.5355 8.00778L40.5381 8.00157C40.5787 8.00883 40.6229 8.01298 40.6708 8.01387L40.5321 7.95763L40.5033 7.96898C40.4997 7.97667 40.4963 7.98431 40.4932 7.99191C40.5018 7.99408 40.5105 7.99609 40.5194 7.99795L40.5152 7.99958L40.5355 8.00778C40.5154 8.05669 40.5067 8.10365 40.5089 8.14735L40.4986 8.14474L40.4974 8.14446L40.4627 8.13783C40.4628 8.15371 40.4641 8.16922 40.4666 8.18434C39.9268 8.08125 39.5788 8.04711 39.4472 8.10509C39.2818 8.17847 39.2651 8.32013 39.4417 8.45597C39.4874 8.49105 39.5443 8.52425 39.6109 8.55556L39.6056 8.55424L39.593 8.55474C39.5761 8.56043 39.5604 8.56679 39.5459 8.57375C39.5616 8.58188 39.578 8.5899 39.595 8.5978L39.5948 8.59781L39.5952 8.59792L39.5997 8.59998C39.4227 8.66349 39.4157 8.81416 39.5778 8.94374L39.5729 8.94305L39.5538 8.94949C39.5481 8.9553 39.5426 8.9612 39.5375 8.96717C39.5485 8.9767 39.5603 8.98609 39.5728 8.99532C39.4773 9.10546 39.5106 9.24607 39.646 9.36817C40.165 9.83783 41.4535 9.83795 42.6896 9.42492L42.7759 9.43699L42.7782 9.44235L42.7938 9.43689L42.7895 9.39321L42.7886 9.39309L42.7916 9.35269L42.7664 9.34636C42.7722 9.30154 42.7912 9.24979 42.8237 9.1897C42.8734 9.09764 42.985 8.99877 43.13 8.9074C43.1713 8.90046 43.2105 8.89296 43.2476 8.88491L43.2483 8.84094L43.2451 8.84014C43.3283 8.79501 43.4187 8.75289 43.5121 8.71579L43.5273 8.71472L43.5691 8.74215C43.2438 8.86517 42.9492 9.05223 42.8633 9.21118C42.7594 9.40367 42.8036 9.48203 43.0119 9.54033C43.4946 9.67611 44.0506 9.6054 44.5354 9.37563L44.5795 9.40454C44.4522 9.4666 44.3198 9.51784 44.185 9.55742L43.6665 9.60785L43.6501 9.61763C43.6426 9.62864 43.6357 9.64009 43.6294 9.6519C43.6449 9.65117 43.6605 9.65028 43.6761 9.64922L43.6707 9.65246L43.6814 9.65142C43.5597 9.84378 43.6244 10.1724 43.9082 10.2084C43.9339 10.2117 43.9601 10.2141 43.9867 10.2159L43.9013 10.2534L43.9027 10.2535L43.9203 10.2556C43.7242 10.3618 43.5107 10.4684 43.2997 10.5666L42.8131 10.7799C42.5885 10.8717 42.3882 10.9431 42.2428 10.9809L42.2574 11.0234L42.8131 10.7799C42.9671 10.7169 43.1326 10.6444 43.2997 10.5666L43.9947 10.262L44.0017 10.2624L44.0317 10.2457L44.0329 10.2452L44.0329 10.2451L44.0348 10.244L44.0219 10.2178C44.193 10.2251 44.3824 10.2041 44.5772 10.1613C44.5672 10.1788 44.558 10.1962 44.5496 10.2136C44.5683 10.2098 44.5871 10.2057 44.606 10.2014C44.4293 10.5288 44.5542 10.8322 44.9294 10.8774C44.9727 10.8826 45.0185 10.8837 45.0665 10.8809L44.9693 10.9265L44.9864 10.9273C44.9491 10.9493 44.9033 10.9766 44.8552 11.0052L44.855 11.0054C44.7876 11.0455 44.7156 11.0884 44.656 11.1233L44.0387 11.4127C43.9549 11.4408 43.871 11.4639 43.786 11.482L43.8002 11.5245L44.0387 11.4127C44.2101 11.3552 44.3812 11.2768 44.5612 11.1777C44.5847 11.1647 44.6178 11.1457 44.656 11.1233L45.0774 10.9257L45.0791 10.9256L45.0884 10.9206L45.0886 10.9205L45.0886 10.9204L45.0894 10.92L45.0701 10.8807C45.2197 10.8714 45.3904 10.8239 45.5715 10.7425C45.5548 10.7666 45.5394 10.7896 45.5253 10.8118C45.5504 10.8015 45.5757 10.7905 45.6012 10.7789C45.4384 11.0154 45.4154 11.1404 45.5125 11.2651C45.5644 11.3317 45.6398 11.3441 45.772 11.3002L45.6186 11.3717C45.6243 11.3721 45.6302 11.3724 45.6362 11.3724C45.345 11.5172 45.0284 11.6619 44.7867 11.7595L44.8045 11.8007L44.8084 11.7991L45.7901 11.3418L45.8104 11.3347L45.8549 11.3116L45.8594 11.3096L45.8593 11.3094L45.8603 11.3089L45.843 11.2735C45.9193 11.242 46.0112 11.1963 46.1231 11.1359C46.229 11.079 46.3545 10.9977 46.4986 10.8944C46.5489 10.8583 46.6012 10.8198 46.6559 10.7785L46.6671 10.77C46.6578 10.7954 46.6498 10.8201 46.6432 10.8441L46.6832 10.8141L46.7052 10.7975L46.7052 10.7975C46.6045 11.0823 46.6889 11.2603 46.9028 11.3397C47.1561 11.4342 47.4088 11.4099 47.6358 11.2041L47.6672 11.2179L47.6605 11.1809C47.6523 11.1889 47.6441 11.1967 47.6358 11.2041L46.7052 10.7975L46.7052 10.7974L46.7463 10.7662L46.7012 10.7466L46.6942 10.7495C46.7536 10.7043 46.815 10.6566 46.8833 10.6029L47.0022 10.5089L47.0915 10.4923L47.0735 10.4524L47.0512 10.47L47.0022 10.5089L46.3897 10.6224L46.4694 10.5613L46.4321 10.5682C46.6037 10.4392 46.7778 10.3135 46.8974 10.233L46.8712 10.1963L46.8711 10.1964C46.7393 10.2852 46.543 10.4275 46.356 10.5691L46.1593 10.4402C46.3078 10.3282 46.456 10.1986 46.5994 10.0536L46.5573 10.0315C46.6037 9.98487 46.6496 9.9366 46.6949 9.88675L46.7561 9.878L46.7361 9.84068C46.7224 9.85618 46.7087 9.87154 46.6949 9.88675L46.37 9.93313L46.3023 9.89754L45.9382 9.94952C45.9733 9.92646 46.0095 9.90247 46.0469 9.87749L46.1399 9.81512L46.1423 9.81352L46.1191 9.80137L46.529 9.55887L46.5308 9.55773L46.5074 9.51919C46.4362 9.56395 46.3613 9.61279 46.2677 9.67524L46.1146 9.77784L46.0969 9.7897L46.0721 9.77668L45.7297 9.97929L45.5051 10.0113L45.3775 9.92769C45.5454 9.84642 45.7036 9.75444 45.8429 9.6563L45.7975 9.6325C45.8949 9.56515 45.9832 9.49476 46.0593 9.42293C46.0839 9.42009 46.1088 9.41694 46.1339 9.41347L46.1399 9.4073L46.1241 9.37414C46.2052 9.36283 46.2884 9.34807 46.3732 9.3296L46.4725 9.34897L46.478 9.34763L46.4769 9.3053C46.4421 9.31402 46.4075 9.32212 46.3732 9.3296L44.9417 9.05047C45.0061 9.05007 45.0721 9.04743 45.1397 9.04238L44.946 9.00516C45.0571 9.00427 45.1738 8.99658 45.2945 8.98116L45.3939 9.01035L45.3967 8.96639C45.3623 8.97193 45.3282 8.97685 45.2945 8.98116L43.8778 8.56554C43.877 8.55588 43.8768 8.54615 43.8773 8.53636L43.8485 8.55694L43.8778 8.56554C43.8789 8.57896 43.8813 8.59223 43.8849 8.60534L43.8339 8.58042C43.8349 8.58817 43.8362 8.59586 43.8379 8.60349L43.2655 8.30291L42.2107 7.78794L42.1784 7.80708C42.178 7.81466 42.1777 7.82225 42.1775 7.82983L41.9177 7.65948L41.6532 7.45628L41.5206 7.38666C41.4982 7.36044 41.4785 7.33508 41.4621 7.31111L41.4318 7.34003ZM41.5465 7.4161L41.9177 7.65948L42.1775 7.85902L42.178 7.87811C42.1395 7.86455 42.0974 7.84494 42.0533 7.82076L41.6004 7.47282C41.5814 7.45373 41.5633 7.43476 41.5465 7.4161ZM41.5465 7.4161C41.5375 7.40619 41.5289 7.39637 41.5206 7.38666L41.4318 7.34003L41.4312 7.34056L41.5465 7.4161ZM43.8483 8.60895L43.8379 8.60349L43.8396 8.61098L43.8091 8.61856L42.2222 7.84381C42.2223 7.83232 42.2226 7.82084 42.2232 7.80936L42.1909 7.8285L42.2222 7.84381L42.2223 7.85921L43.4638 8.6731C43.5523 8.66947 43.6374 8.65954 43.7182 8.64388C43.6525 8.66362 43.5869 8.68642 43.5226 8.71163L43.5273 8.71472C43.5966 8.70955 43.6638 8.70055 43.7283 8.68798C43.675 8.70411 43.6217 8.7223 43.5691 8.74215L44.1139 9.09929L43.5063 9.29915L43.5158 9.34455C43.8013 9.30834 44.0022 9.25507 44.2129 9.16418L44.5354 9.37563C44.659 9.31707 44.7779 9.24817 44.8898 9.16973L44.9121 9.18104C44.9157 9.18774 44.9197 9.19433 44.9241 9.2008C44.8151 9.27787 44.6996 9.34601 44.5795 9.40454L44.7316 9.50424L44.185 9.55742C44.0199 9.60585 43.851 9.6368 43.6831 9.64873L43.6871 9.64268L43.6761 9.64922L43.6831 9.64873L43.6814 9.65142L44.7914 9.54345L44.8443 9.57813L44.1871 9.87604L44.2032 9.91816L44.2057 9.91736L44.2057 9.91754L44.2072 9.91687C44.4371 9.84404 44.6842 9.74141 44.9191 9.62713L45.333 9.89852C45.1431 9.98871 44.9413 10.0649 44.7412 10.1204L44.599 10.1407L44.5828 10.1516L44.5772 10.1613C44.6315 10.1493 44.6863 10.1356 44.7412 10.1204L45.0116 10.0818C44.9267 10.1124 44.8411 10.1399 44.7558 10.1636L44.6159 10.1836L44.6213 10.1742L44.6051 10.1851L44.6159 10.1836L44.606 10.2014C44.6557 10.1902 44.7057 10.1775 44.7558 10.1636L45.5618 10.0485L45.5859 10.0643L45.0371 10.3891L45.0564 10.4297C45.2527 10.3559 45.439 10.2612 45.6706 10.1198L46.1188 10.4137C45.9516 10.5387 45.7845 10.6411 45.6246 10.7178L45.5924 10.7238L45.5781 10.733L45.5715 10.7425C45.5891 10.7346 45.6068 10.7264 45.6246 10.7178L45.7785 10.6893C45.7313 10.7155 45.6844 10.7396 45.6381 10.7617L45.6094 10.767L45.6147 10.7595L45.6004 10.7687L45.6094 10.767L45.6012 10.7789C45.6134 10.7733 45.6258 10.7676 45.6381 10.7617L46.253 10.6477C46.0744 10.7852 45.918 10.9121 45.8544 10.9763L45.884 11.0101L46.3897 10.6224L46.3509 10.6296C46.3777 10.6091 46.4049 10.5886 46.4321 10.5682L46.3716 10.5794L46.356 10.5691L46.333 10.5865L45.7785 10.6893C45.9037 10.62 46.0315 10.5366 46.1593 10.4402L46.1188 10.4137C46.2664 10.3033 46.4142 10.1753 46.5573 10.0315L46.37 9.93313L45.8492 10.0075C45.8781 9.98885 45.9077 9.96954 45.9382 9.94952L45.8466 9.96259L46.1191 9.80137L46.0969 9.7897L46.0218 9.84005C45.955 9.88466 45.8922 9.92607 45.8325 9.9646L45.7297 9.97929L45.6288 10.0389L45.5618 10.0485L45.5051 10.0113L45.0116 10.0818C45.1363 10.0368 45.2593 9.98491 45.3775 9.92769L45.333 9.89852C45.5002 9.81913 45.6581 9.72892 45.7975 9.6325L45.4972 9.4748L45.8632 9.43919C45.9268 9.43601 45.9923 9.43063 46.0593 9.42293L46.0626 9.41981L46.1258 9.41365L46.108 9.37634L46.1241 9.37414L46.1217 9.36903L45.7785 9.40241C45.5761 9.40666 45.3979 9.38718 45.2579 9.34915L44.9827 9.20461C44.9424 9.15906 44.9255 9.10715 44.9362 9.0505L44.9417 9.05047L44.9365 9.04944C44.9377 9.04291 44.9394 9.03631 44.9414 9.02966L44.9157 9.04539L44.9365 9.04944L44.9362 9.0505C44.9209 9.05056 44.9056 9.0505 44.8904 9.05031C44.8922 9.0392 44.8948 9.02791 44.8983 9.01645L44.9169 9.00524L44.946 9.00516L44.9241 9.00094L44.9169 9.00524C44.817 9.00498 44.7217 8.99919 44.6323 8.98857L43.888 8.61102L43.8883 8.60698L43.8849 8.60534L43.8863 8.61017L43.8799 8.60695L43.8717 8.60593L43.8717 8.60565L43.8711 8.60585L43.8648 8.60508L43.8483 8.60895ZM43.8528 8.61133L43.8483 8.60895L43.8396 8.61098L43.8406 8.61483L43.8155 8.62169L43.8091 8.61856C43.7789 8.62631 43.7486 8.63477 43.7182 8.64388C43.7514 8.63744 43.7839 8.63003 43.8155 8.62169L43.8477 8.63739C43.8497 8.64292 43.8519 8.64842 43.8542 8.65388C43.8125 8.66385 43.7704 8.67527 43.7283 8.68798C43.7721 8.67945 43.8147 8.66928 43.8558 8.65754C43.9235 8.80901 44.1298 8.93232 44.421 8.99826L44.1139 9.09929L44.1635 9.13181L43.8226 9.24393C43.7285 9.26579 43.6266 9.28336 43.5104 9.29809L43.5199 9.3435L43.8226 9.24393C43.9453 9.21546 44.0549 9.17972 44.1661 9.13348L44.2129 9.16418C44.3074 9.12341 44.4039 9.07506 44.5109 9.01729L44.5105 9.01623C44.5457 9.02243 44.5819 9.02784 44.6191 9.03243L44.8898 9.16973L44.901 9.16174L44.9035 9.16304C44.9061 9.16912 44.9089 9.17513 44.9121 9.18104L44.9231 9.18661L44.922 9.17277L44.9458 9.18525L44.9241 9.2008C44.9799 9.2839 45.0973 9.34894 45.2581 9.39055L45.0826 9.4701L44.7316 9.50424L44.7914 9.54345L44.9562 9.52742L44.8443 9.57813L44.8754 9.5985C44.6482 9.70785 44.4107 9.80569 44.1897 9.87542L44.2057 9.91736L44.2072 9.91687L44.8893 9.60765L44.9191 9.62713C44.9981 9.58867 45.0758 9.54889 45.1509 9.50848L45.4972 9.4748L45.4249 9.43681L45.4874 9.43073C45.6017 9.44277 45.7282 9.44596 45.8632 9.43919L46.0626 9.41981C46.0777 9.40544 46.0923 9.39102 46.1065 9.37655L46.108 9.37634L46.1076 9.37539L46.1065 9.37655C45.9921 9.39185 45.8821 9.40024 45.7785 9.40241L45.4874 9.43073C45.4532 9.42712 45.4201 9.42271 45.3882 9.41754L45.3276 9.38573L45.3165 9.36409L45.3003 9.37141L45.2579 9.34915C45.1315 9.31482 45.0364 9.26537 44.9827 9.20461L44.9458 9.18525L44.9464 9.18481L44.9434 9.14635L44.8906 9.11957C44.8867 9.09738 44.8865 9.07427 44.8904 9.05031C44.8397 9.04967 44.7902 9.04762 44.7421 9.04425L44.6323 8.98857C44.6041 8.98522 44.5764 8.98138 44.5494 8.97708L43.8944 8.63318C43.8919 8.62705 43.8897 8.62088 43.8877 8.61467L43.888 8.61102L43.8863 8.61017L43.8877 8.61467L43.8866 8.62905L43.8706 8.62064L43.8717 8.60593L43.8711 8.60585L43.8528 8.61133ZM43.8528 8.61133L43.8706 8.62064L43.8685 8.64754L43.8477 8.63739C43.845 8.62993 43.8427 8.62241 43.8406 8.61483L43.8528 8.61133ZM43.8712 8.65306L43.885 8.64887L43.8866 8.62905L43.8944 8.63318C43.9004 8.64779 43.908 8.66216 43.9169 8.67625L43.8712 8.65306ZM43.8669 8.65089L43.8712 8.65306L43.8558 8.65754L43.8542 8.65388L43.8669 8.65089ZM43.8669 8.65089L43.8748 8.64908L43.8597 8.64721L43.8669 8.65089ZM43.9169 8.67625C43.9997 8.80622 44.2061 8.91254 44.4894 8.9666L43.9169 8.67625ZM44.4894 8.9666L44.6191 9.03243C44.6341 9.03427 44.6492 9.03598 44.6645 9.03755L44.901 9.16174L44.9025 9.16068L44.9035 9.16304L44.922 9.17277L44.9201 9.14815L44.9025 9.16068C44.8971 9.14736 44.8931 9.13365 44.8906 9.11957L44.7421 9.04425C44.7158 9.04241 44.69 9.04017 44.6645 9.03755L44.5494 8.97708C44.529 8.97384 44.509 8.97035 44.4894 8.9666ZM45.3024 9.3725L45.3003 9.37141L45.2581 9.39055L45.2672 9.39285C45.2251 9.41693 45.1818 9.44094 45.1377 9.46474L45.0826 9.4701L44.9562 9.52742L45.033 9.51995C44.9813 9.54662 44.9286 9.57288 44.8754 9.5985L44.8893 9.60765L45.0964 9.51378L45.1509 9.50848C45.1847 9.49035 45.2179 9.47209 45.2505 9.45377L45.4249 9.43681L45.3882 9.41754C45.3689 9.41441 45.35 9.41101 45.3316 9.40734L45.3331 9.40646L45.3351 9.40559L45.335 9.4054L45.337 9.40418L45.3276 9.38573L45.3239 9.38378L45.3145 9.3655L45.3024 9.3725ZM45.3024 9.3725L45.2672 9.39285C45.2879 9.39805 45.3093 9.40286 45.3313 9.40728L45.2228 9.45646L45.1377 9.46474C45.1033 9.48329 45.0684 9.50172 45.033 9.51995L45.0964 9.51378L45.2228 9.45646L45.2505 9.45377C45.278 9.43833 45.3051 9.42283 45.3316 9.40734L45.3313 9.40728L45.3331 9.40646L45.335 9.4054L45.3239 9.38378L45.3024 9.3725ZM44.5061 9.01544L44.5105 9.01623L44.4937 8.97435L44.421 8.99826L44.4402 9.00249C44.3528 9.04858 44.2721 9.08809 44.1928 9.12217L44.1635 9.13181L44.1661 9.13348L44.1928 9.12217L44.5074 9.0187L44.5061 9.01544ZM44.5061 9.01544C44.4837 9.01144 44.4617 9.00712 44.4402 9.00249L44.4902 8.97576L44.5061 9.01544ZM45.7412 10.0229L45.6288 10.0389L45.5859 10.0643L45.628 10.0919L45.4777 10.1809C45.3222 10.2682 45.1839 10.3337 45.0405 10.3875L45.0598 10.4281L45.4777 10.1809C45.5262 10.1536 45.5763 10.1243 45.6288 10.0925L45.6706 10.1198C45.7271 10.0853 45.7864 10.048 45.8492 10.0075L45.7458 10.0222L45.8466 9.96259L45.8325 9.9646C45.8012 9.98481 45.7709 10.0042 45.7412 10.0229ZM45.6783 10.0622L45.628 10.0919L45.6288 10.0925L45.6783 10.0622ZM45.6783 10.0622C45.6989 10.0495 45.7199 10.0364 45.7412 10.0229L45.7458 10.0222L45.6783 10.0622ZM46.2918 10.6405L45.8567 10.9742L45.8863 11.008C45.9568 10.937 46.1454 10.7859 46.3509 10.6296L46.2918 10.6405ZM46.2918 10.6405L46.3716 10.5794L46.333 10.5865C46.306 10.607 46.2793 10.6275 46.253 10.6477L46.2918 10.6405ZM46.7052 10.7974L46.7052 10.7975L46.6833 10.7879L46.7133 10.7753L46.7052 10.7974ZM46.6942 10.7495L46.6671 10.77L46.6712 10.7592L46.6942 10.7495ZM45.842 11.274L45.843 11.2735L45.8404 11.2683L45.772 11.3002C45.7792 11.2978 45.7866 11.2952 45.7942 11.2925C45.7428 11.3189 45.6899 11.3457 45.6362 11.3724C45.6793 11.3727 45.7298 11.3624 45.7901 11.3418L45.8549 11.3116L45.8593 11.3094L45.842 11.274ZM45.842 11.274L45.8395 11.269L45.7942 11.2925C45.8094 11.287 45.8253 11.2808 45.842 11.274ZM45.069 10.8807L45.0886 10.9204L45.0884 10.9206L45.0774 10.9257C45.0462 10.9278 45.0159 10.9284 44.9864 10.9273C45.0238 10.9053 45.0527 10.8885 45.067 10.8809L45.069 10.8807ZM45.069 10.8807L45.0701 10.8807L45.0695 10.8795L45.0665 10.8809L45.067 10.8809L45.0686 10.88L45.069 10.8807ZM44.0194 10.2177L44.0329 10.2451L44.0317 10.2457L43.9947 10.262C43.9695 10.2605 43.9447 10.2584 43.9203 10.2556C43.9446 10.2425 43.9686 10.2294 43.9923 10.2163L44.0194 10.2177ZM44.0194 10.2177L44.0219 10.2178L44.0149 10.2036L43.9867 10.2159L43.9923 10.2163L44.013 10.2048L44.0194 10.2177ZM43.2381 8.84398L43.2451 8.84014L42.2099 8.57803C42.2999 8.55477 42.3857 8.51429 42.4613 8.45548L42.4499 8.44554L42.4437 8.41222C42.4383 8.41656 42.4329 8.42079 42.4275 8.42493C42.4348 8.43191 42.4423 8.43878 42.4499 8.44554L42.451 8.45129L42.4095 8.438C42.319 8.50165 42.2145 8.53896 42.1068 8.55191L41.5845 8.41968C41.636 8.45642 41.6924 8.48611 41.7516 8.50836L41.5655 8.46122C41.5361 8.44083 41.5082 8.41832 41.482 8.39374L41.4794 8.39307L41.4809 8.39263L41.4758 8.38778L41.4776 8.34653L41.445 8.3563C41.455 8.36713 41.4652 8.37763 41.4758 8.38778L41.4757 8.38905L41.4157 8.3647L41.3924 8.37105L40.5089 8.14735C40.5097 8.16389 40.5121 8.17997 40.516 8.19551L40.4883 8.1885L40.489 8.18863L40.4877 8.18834L40.4883 8.1885L40.4666 8.18434C40.5063 8.42302 40.8453 8.56018 41.3928 8.41749L41.5655 8.46122C41.7209 8.56927 41.9162 8.61769 42.1033 8.5974L43.1395 8.85977C42.5571 8.96123 41.5426 8.94759 40.7045 8.82965L39.6109 8.55556C39.8652 8.67519 40.2601 8.76709 40.7045 8.82965L41.0561 8.91774C40.9348 8.90537 40.8153 8.89097 40.6991 8.87455L39.6012 8.59943L39.6074 8.59731L39.595 8.5978L39.5952 8.59792L39.6012 8.59943L39.5997 8.59998C39.8597 8.7199 40.2554 8.81189 40.6991 8.87455L42.6461 9.36249C42.628 9.36356 42.6096 9.36454 42.591 9.36543L39.5778 8.94374C39.6027 8.96364 39.6316 8.98304 39.6645 9.00154L39.578 8.98944L39.5857 8.98141L39.5666 8.98785L39.578 8.98944L39.5728 8.99532C39.6243 9.03343 39.6883 9.0687 39.7644 9.09864C40.2893 9.30517 41.7418 9.45068 42.5898 9.41094L42.6896 9.42492C42.7147 9.41654 42.7397 9.40799 42.7648 9.39927L42.766 9.39916C42.7678 9.41248 42.7711 9.42508 42.7759 9.43699L42.7832 9.43801L42.7792 9.39793L42.7883 9.39708L42.7886 9.39309L42.7811 9.39204L42.784 9.35187L42.7655 9.35361L42.7664 9.34636L41.0561 8.91774C41.8062 8.99425 42.6219 8.99277 43.13 8.9074C43.1488 8.89549 43.1683 8.88372 43.1882 8.8721L43.2374 8.88455L43.2381 8.84398ZM43.2381 8.84398L43.2381 8.84058C43.2069 8.84738 43.174 8.85378 43.1395 8.85977L43.1882 8.8721C43.2045 8.86261 43.2211 8.85323 43.2381 8.84398ZM42.765 9.38979L42.7811 9.39204L42.7808 9.39625L42.779 9.39582L42.7789 9.39434L42.7765 9.39518L42.7652 9.39236L42.765 9.38979ZM42.7423 9.3866L42.6461 9.36249C42.6876 9.36003 42.7275 9.35707 42.7655 9.35361C42.7643 9.36622 42.7641 9.37827 42.765 9.38979L42.7423 9.3866ZM42.766 9.39885L42.7648 9.39927C42.71 9.40418 42.6515 9.40805 42.5898 9.41094L42.3118 9.37204C42.4102 9.37173 42.5039 9.36957 42.591 9.36543L42.7423 9.3866L42.7652 9.39236L42.766 9.39885ZM42.766 9.39885L42.7765 9.39518L42.779 9.39582L42.7792 9.39793L42.766 9.39916L42.766 9.39885ZM42.3118 9.37204C41.4594 9.37478 40.2461 9.23937 39.7809 9.05634C39.7377 9.03936 39.6989 9.02094 39.6645 9.00154L42.3118 9.37204ZM41.9163 8.55004L41.7516 8.50836C41.8048 8.52833 41.8601 8.54232 41.9163 8.55004ZM41.9163 8.55004L42.1033 8.5974C42.1393 8.5935 42.1749 8.58707 42.2099 8.57803L42.1068 8.55191C42.0437 8.5595 41.9795 8.55874 41.9163 8.55004ZM41.2992 8.39381C41.3295 8.38715 41.3606 8.37958 41.3924 8.37105L41.4794 8.39307C41.45 8.40198 41.4211 8.41011 41.3928 8.41749L41.2992 8.39381ZM41.2992 8.39381L40.516 8.19551C40.5639 8.38533 40.8406 8.4947 41.2992 8.39381ZM40.5194 7.99795L40.5381 8.00157L40.5441 7.98822L40.5194 7.99795ZM42.178 7.87811C42.1902 7.88243 42.2021 7.88614 42.2136 7.88918L42.1942 7.92894L42.1807 7.91859C42.1794 7.90512 42.1785 7.89163 42.178 7.87811ZM47.6906 11.2145L47.7201 11.2458L46.726 11.9932L46.7258 11.9933L46.7008 11.9558C47.0753 11.7334 47.5194 11.4062 47.6778 11.2267L47.6906 11.2145ZM47.6906 11.2145L47.6894 11.2133L47.6778 11.2267C47.618 11.2828 47.5563 11.3268 47.4933 11.3598L47.6913 11.2109L47.6917 11.2134L47.6906 11.2145ZM46.8745 11.3772L46.8783 11.3787L46.8905 11.3666L46.8625 11.3316L46.8257 11.3551L46.8335 11.359C46.7554 11.4332 46.6467 11.5176 46.5228 11.6014L46.3415 11.7169C46.1979 11.8032 46.0451 11.8832 45.9018 11.944L45.9226 11.9839L46.3415 11.7169C46.4042 11.6792 46.4651 11.6404 46.5228 11.6014L46.8745 11.3772ZM46.8745 11.3772L46.8863 11.3697L46.8583 11.3347C46.8504 11.3427 46.8421 11.3508 46.8335 11.359C46.8466 11.3655 46.8603 11.3716 46.8745 11.3772ZM46.6509 11.1783L46.6527 11.1823L46.6759 11.1634L46.65 11.1266L46.6474 11.1282L46.6473 11.1281L46.6462 11.129L46.635 11.1357L46.6356 11.1376C46.5096 11.2403 46.321 11.3725 46.1179 11.5019L45.803 11.6931C45.6167 11.8003 45.4387 11.8917 45.3047 11.9433L45.3043 11.9435L45.3239 11.9839L45.803 11.6931C45.9075 11.6329 46.0145 11.5678 46.1179 11.5019L46.6509 11.1783ZM46.6509 11.1783C46.6451 11.1653 46.6399 11.1517 46.6356 11.1376L46.6462 11.129L46.6474 11.1282L46.6732 11.1648L46.6509 11.1783ZM45.4112 11.1413L45.4115 11.1434L45.4451 11.1244L45.4239 11.0845L45.4105 11.0912L45.4104 11.0922C45.0483 11.2977 44.4132 11.6226 44.1991 11.6975L44.2166 11.739L45.4112 11.1413ZM45.4112 11.1413C45.4095 11.1253 45.4092 11.109 45.4104 11.0922L45.423 11.085L45.4442 11.1248L45.4112 11.1413ZM44.6165 10.7953L44.6183 10.7969L44.6346 10.7864L44.6123 10.7473L44.6101 10.7483L44.6101 10.7482L44.6089 10.7489L44.5833 10.7619L44.5853 10.7642C44.4373 10.8601 44.3234 10.9321 44.2071 11.0019L43.3753 11.4215C43.2891 11.4532 43.2094 11.4769 43.1367 11.4922L43.1514 11.5345L43.3753 11.4215C43.4712 11.3863 43.575 11.3413 43.686 11.2875C43.8021 11.2311 43.9242 11.1659 44.0515 11.093C44.1058 11.0619 44.1567 11.0321 44.2071 11.0019L44.6165 10.7953ZM44.6165 10.7953C44.6055 10.7854 44.5951 10.775 44.5853 10.7642L44.6089 10.7489L44.6101 10.7483L44.6324 10.7873L44.6165 10.7953ZM44.4824 10.4828L44.4824 10.4868L44.512 10.4691L44.4909 10.4293L44.4891 10.4301L44.489 10.43L44.4877 10.4308L44.4851 10.432L44.4851 10.4324C44.3273 10.527 44.1825 10.6116 44.0468 10.6872L43.2021 11.0836C43.1023 11.1189 43.0032 11.1491 42.902 11.175L42.9171 11.2173L43.2021 11.0836C43.4644 10.9909 43.7306 10.8634 44.0468 10.6872L44.4824 10.4828ZM44.4824 10.4828L44.5101 10.4698L44.4891 10.4301L44.4877 10.4308L44.4851 10.4324C44.4833 10.4494 44.4825 10.4663 44.4824 10.4828ZM43.621 10.0566L43.6217 10.0579L43.6376 10.0509L43.6209 10.009L43.6192 10.0096L43.6191 10.0094L43.617 10.0103L43.6035 10.0151L43.6039 10.0162C43.2045 10.1924 42.4952 10.4405 41.9516 10.6009L41.948 10.6022L41.9617 10.645L43.621 10.0566ZM43.621 10.0566C43.6146 10.0435 43.6089 10.03 43.6039 10.0162L43.617 10.0103L43.6192 10.0096L43.6357 10.0514L43.621 10.0566ZM43.2277 9.6325L43.2292 9.63272L43.2346 9.62914L43.2133 9.58956L43.1463 9.61855L43.1635 9.6218C43.095 9.66601 43.0235 9.70983 42.9499 9.75266L41.7993 10.2502C41.7248 10.2694 41.6532 10.2843 41.5857 10.2943L41.5978 10.3373L41.7993 10.2502C42.1558 10.1583 42.5798 9.96788 42.9499 9.75266L43.2277 9.6325ZM43.2277 9.6325C43.2062 9.62929 43.1848 9.62573 43.1635 9.6218C43.1791 9.6117 43.1946 9.60158 43.2099 9.59144L43.2312 9.63102L43.2277 9.6325ZM39.484 9.20769L39.4855 9.21249L39.5073 9.20896L39.5062 9.1627C39.4962 9.16161 39.4856 9.1609 39.4745 9.16055L39.4753 9.16693L39.1404 9.22111L39.1523 9.26579C39.2444 9.22718 39.39 9.20222 39.484 9.20769ZM39.484 9.20769C39.48 9.19409 39.4771 9.18049 39.4753 9.16693L39.5004 9.16287L39.5015 9.20913C39.4959 9.20852 39.4901 9.20804 39.484 9.20769ZM39.4418 8.85066L39.4433 8.85352L39.4564 8.8547L39.4645 8.81048L39.4216 8.79832L39.4237 8.80607C39.3465 8.79886 39.2715 8.79078 39.1985 8.78177L37.8877 8.4105C37.8354 8.38244 37.7848 8.35279 37.7356 8.32148L37.7174 8.36228L37.8877 8.4105C38.2384 8.59889 38.661 8.71539 39.1985 8.78177L39.4418 8.85066ZM39.4418 8.85066C39.4341 8.83574 39.4281 8.82083 39.4237 8.80607L39.4604 8.80941L39.4523 8.85363L39.4418 8.85066ZM39.2722 8.24293L39.2721 8.24388L39.284 8.24758L39.288 8.24916L39.2881 8.24885L39.2896 8.24931L39.3041 8.20516L39.2838 8.1972L39.2831 8.19898L38.4504 7.94068L38.4378 7.9851L38.4636 7.9931C38.5939 8.03124 38.8818 8.11217 38.8554 8.10461C38.9028 8.1182 38.9439 8.13035 38.9833 8.14249C39.084 8.1735 39.1753 8.20505 39.2722 8.24293ZM39.2722 8.24293C39.2739 8.22787 39.2775 8.21318 39.2831 8.19898L39.3025 8.205L39.2881 8.24885L39.284 8.24758L39.2722 8.24293ZM40.2327 7.796L40.2344 7.79954L40.2357 7.79975L40.247 7.75622L40.2434 7.75494L40.2435 7.7547L40.242 7.75445L40.2129 7.74406L40.2146 7.74964C40.1215 7.73319 40.0329 7.71583 39.9489 7.6973L39.2111 7.4343C39.1624 7.40496 39.1177 7.37362 39.0771 7.34006L39.0553 7.37877L39.2111 7.4343C39.3974 7.54658 39.6429 7.62976 39.9489 7.6973L40.2321 7.79823L40.2327 7.796ZM40.2327 7.796C40.2256 7.78106 40.2195 7.76555 40.2146 7.74964L40.242 7.75445L40.2434 7.75494L40.2327 7.796ZM40.2784 7.41665L40.247 7.42186C40.2419 7.43118 40.2371 7.44087 40.2326 7.45088L40.2613 7.45853L40.2735 7.4696C40.2308 7.56667 40.2279 7.69879 40.2826 7.79458C40.358 7.9264 40.5314 7.99133 40.8166 7.96218L40.8534 7.99554L40.8655 7.9564C40.8489 7.95863 40.8326 7.96055 40.8166 7.96218L40.2735 7.4696L40.2767 7.46252C40.3022 7.46903 40.3278 7.47519 40.3533 7.481L40.284 7.41809C40.3584 7.43722 40.4333 7.45331 40.5085 7.4662L40.6283 7.52805L40.6413 7.48555C40.5969 7.48023 40.5526 7.47376 40.5085 7.4662L38.7282 6.5473C38.6865 6.51024 38.6452 6.47236 38.6046 6.43372L38.5788 6.4702L38.7282 6.5473C39.1939 6.96087 39.7242 7.27302 40.2784 7.41665ZM40.2784 7.41665L40.2818 7.41608L40.284 7.41809L40.2784 7.41665ZM40.2767 7.46252L40.2613 7.45853L40.2515 7.44963L40.2863 7.44385C40.2829 7.44989 40.2797 7.45612 40.2767 7.46252ZM47.7089 11.5522C47.616 11.6769 47.3822 11.9533 47.2334 12.1135L47.267 12.1435L47.2663 12.1442L47.2327 12.1142L47.7097 11.551L47.7449 11.5791L47.744 11.5803L47.7089 11.5522ZM47.7439 11.5805L47.744 11.5803L47.744 11.5803L47.7439 11.5805ZM47.7439 11.5805L47.2676 12.1429C47.417 11.9819 47.6496 11.7069 47.7439 11.5805ZM47.2676 12.1429L47.267 12.1435L47.267 12.1435L47.2676 12.1429Z" fill="black"/>
<path fill-rule="evenodd" clip-rule="evenodd" d="M46.5501 7.84346C46.618 7.80741 46.6517 7.79722 46.7279 7.78268C46.7468 7.77907 46.7584 7.77651 46.7708 7.77291C46.8189 7.75894 46.8604 7.73204 46.9156 7.67566C47.2724 7.31073 47.8451 6.90389 48.1826 6.7582L48.1853 6.76453C48.1978 6.75875 48.2064 6.76166 48.2213 6.77687C48.2277 6.78336 48.2496 6.81002 48.2587 6.82116L48.2587 6.82116L48.2587 6.82118L48.2587 6.82118L48.2627 6.82601C48.3296 6.90397 48.403 6.92942 48.5222 6.8848C48.5972 6.85655 48.6349 6.80196 48.6497 6.72336C48.6539 6.70096 48.6553 6.68659 48.6584 6.64523C48.6623 6.59363 48.6666 6.58057 48.6753 6.57979L48.6752 6.57855L48.6771 6.57814C48.7389 6.56509 48.7994 6.55964 48.8675 6.56133L48.8686 6.51618C48.7978 6.51442 48.7344 6.52006 48.6698 6.53354C48.6636 6.53419 48.6582 6.53536 48.6533 6.53713C48.5971 6.54993 48.5384 6.5688 48.4626 6.59752C48.4129 6.61636 48.198 6.70289 48.2002 6.70202C47.8622 6.83615 47.2568 7.2622 46.8835 7.64402C46.8334 7.69518 46.7984 7.71788 46.7583 7.72953C46.7476 7.73264 46.7371 7.73495 46.7195 7.73832C46.6393 7.75362 46.6017 7.76499 46.5291 7.80354L46.5501 7.84346ZM48.6196 6.58934C48.6252 6.5598 48.6346 6.54398 48.6533 6.53713L48.6678 6.53395L48.6698 6.53354L48.6713 6.53339L48.6752 6.57855C48.6612 6.58147 48.6509 6.58332 48.6423 6.58488C48.6361 6.586 48.6307 6.58697 48.6253 6.58809L48.6196 6.58934ZM48.2423 6.73388L48.3139 6.70541C48.5446 6.61373 48.5868 6.59695 48.6196 6.58934C48.6169 6.60346 48.6151 6.62071 48.6136 6.64162C48.6106 6.68109 48.6093 6.69446 48.6055 6.71446C48.5935 6.77824 48.5654 6.81896 48.5068 6.84102C48.4064 6.87862 48.3518 6.85968 48.2963 6.79507L48.2953 6.79379C48.2895 6.78671 48.2616 6.75256 48.2529 6.74368C48.2494 6.7401 48.2458 6.73682 48.2423 6.73388ZM48.2423 6.73388C48.2189 6.71433 48.1947 6.70912 48.1669 6.72203L48.1826 6.7582C48.1943 6.75315 48.2057 6.74842 48.2168 6.74401L48.2423 6.73388ZM56.2777 8.91371L56.2566 8.92151L56.241 8.87914L56.2773 8.86572C56.2785 8.88115 56.2786 8.89717 56.2777 8.91371ZM56.1056 9.31507C56.1743 9.23151 56.2377 9.11182 56.264 9.0029C56.2715 8.97178 56.2761 8.94197 56.2777 8.91371C57.2595 8.55 57.8074 8.31609 58.4661 7.93509C58.8065 7.73819 59.1228 7.52551 59.4146 7.29368L59.3866 7.25827C59.0967 7.48867 58.7822 7.70012 58.4436 7.89596C57.7911 8.27337 57.2473 8.50605 56.2773 8.86572C56.2702 8.77398 56.226 8.70253 56.1411 8.66095C57.0001 8.38109 57.8032 8.00443 58.1108 7.70168L58.0793 7.66943C57.6804 8.06203 56.4158 8.5883 55.3009 8.8509C55.2421 8.82272 55.171 8.79883 55.0872 8.77969C54.5497 8.65693 53.7406 8.78682 53.2459 9.07259C53.1791 9.05573 53.1128 9.04023 53.048 9.02635C53.1983 8.89215 53.2772 8.71989 53.2159 8.55812L53.1739 8.57416C53.298 8.90201 52.7479 9.29841 52.276 9.20908L52.2677 9.25346C52.528 9.30274 52.8111 9.21268 53.0037 9.06319C53.242 9.11239 53.5028 9.18501 53.7362 9.26687L53.7366 9.26941L53.7411 9.26862C54.0155 9.36516 54.2514 9.47437 54.3673 9.5731C54.5012 9.68677 54.5717 9.78786 54.5675 9.86508C54.5628 9.94982 54.465 10.015 54.2563 10.0521C53.9955 10.0986 53.8284 10.1102 53.5956 10.0846C53.5514 10.076 53.5072 10.0675 53.4629 10.0592L53.4614 10.067C53.3754 10.0541 53.2791 10.0372 53.167 10.0161C52.848 9.79057 52.3585 9.56873 51.8529 9.39433L51.8382 9.43703C52.3364 9.60886 52.8201 9.82792 53.1345 10.0484L53.1332 10.0557L53.149 10.0587C53.2388 10.1227 53.3141 10.1868 53.3711 10.2499C53.5094 10.403 53.4919 10.5045 53.3403 10.5631C53.1907 10.6209 52.925 10.6274 52.62 10.5813C52.0471 10.4942 51.0956 10.0059 50.6124 9.57298L50.5825 9.60667C50.8744 9.86823 51.3335 10.149 51.7801 10.3517L51.7788 10.353C51.8889 10.4643 51.9914 10.6264 52.0372 10.7741C52.0801 10.9124 52.0246 10.98 51.8981 10.9699C51.7282 10.9569 51.6028 10.9274 51.4391 10.8492L51.4326 10.8629C51.3542 10.7729 51.2486 10.6872 51.1154 10.6142C50.7519 10.415 50.2783 9.99623 50.058 9.68911L50.0215 9.7155C50.2458 10.0281 50.7245 10.4514 51.0939 10.6539C51.5118 10.8827 51.6397 11.234 51.5124 11.4197C51.3998 11.584 51.0242 11.6055 50.6496 11.3824C50.202 11.1154 49.6848 10.2668 49.6154 9.66898L49.5707 9.67421C49.6416 10.2856 50.1665 11.1468 50.6266 11.4212C50.7015 11.4658 50.7768 11.5011 50.8504 11.5277C50.8844 11.6219 50.8985 11.7394 50.8898 11.9231C50.8791 12.1532 50.7103 12.3087 50.5045 12.2307C50.3012 12.1539 50.1446 11.9831 50.0397 11.7707L49.9994 11.7908C50.1088 12.0125 50.2731 12.1915 50.4886 12.273C50.5451 12.2944 50.5992 12.3006 50.6491 12.2941C50.7707 12.5528 50.8374 12.7426 50.8289 12.8117C50.8161 12.9158 50.7891 12.9476 50.694 12.9254L50.6838 12.9694C50.8113 12.9991 50.858 12.9444 50.8736 12.8172C50.8835 12.7369 50.8174 12.5475 50.6943 12.2845C50.7195 12.2769 50.7433 12.266 50.7654 12.252C50.9367 12.479 51.0621 12.6407 51.2167 12.8278C51.2631 12.8838 51.3082 12.9372 51.3519 12.9877C51.5142 13.175 51.6524 13.3163 51.7605 13.4008L51.7882 13.3652C51.6829 13.2829 51.5464 13.1434 51.3859 12.9581C51.3424 12.9079 51.2975 12.8547 51.2513 12.7989C51.0974 12.6127 50.9723 12.4515 50.8017 12.2253C50.879 12.1588 50.9289 12.0513 50.9348 11.9252C50.94 11.8144 50.9371 11.7262 50.9265 11.652C51.3728 12.1688 52.4205 13.1387 52.7325 13.3157L52.7546 13.2764C52.4355 13.0953 51.3171 12.0553 50.9094 11.5619L50.9085 11.5627L50.9036 11.5455C51.1651 11.626 51.3993 11.5961 51.515 11.4856C51.7762 11.8282 52.5913 12.3092 53.0116 12.3898L53.02 12.3454C52.6071 12.2663 51.7925 11.7841 51.5454 11.4511L51.5494 11.4453C51.6258 11.334 51.6227 11.1749 51.5376 11.014C51.8346 11.2632 52.3341 11.6306 52.7965 11.9527L52.8222 11.9156C52.3282 11.5715 51.7909 11.1749 51.5068 10.9285C51.6368 10.9812 51.7507 11.0039 51.8946 11.0149C51.9614 11.0203 52.0143 11.0058 52.0491 10.9746C52.3634 11.3025 53.1717 11.9629 53.4928 12.1218L53.5127 12.0813C53.1956 11.9243 52.3849 11.2615 52.0772 10.9388C52.1007 10.8954 52.1032 10.8349 52.0801 10.7606C52.0414 10.6358 51.9649 10.5022 51.8764 10.3943C52.1446 10.5097 52.4034 10.594 52.6133 10.6259C52.6765 10.6355 52.7381 10.6428 52.7974 10.648L52.7945 10.6513C53.1898 11.0024 53.9222 11.483 54.3521 11.6884L54.3714 11.6476C53.9596 11.4508 53.265 10.9975 52.8649 10.6529C52.9845 10.66 53.0934 10.6576 53.186 10.6455C53.3085 10.7448 53.5356 10.8838 53.8614 11.0647C53.9036 11.0881 53.9473 11.1122 53.9931 11.1371C54.1043 11.1979 54.3717 11.3408 54.5378 11.4296L54.5383 11.4298L54.5385 11.4299L54.6757 11.5034L54.697 11.4636L54.5593 11.3899C54.3932 11.3011 54.1257 11.1581 54.0146 11.0975C53.9689 11.0725 53.9253 11.0485 53.8832 11.0252C53.5869 10.8607 53.3727 10.7309 53.2468 10.6357C53.2876 10.6278 53.3244 10.6176 53.3564 10.6053C53.3898 10.5924 53.4179 10.5771 53.4406 10.5598C54.2733 11.0863 54.8035 11.3642 55.3457 11.4904L55.3559 11.4464C54.8224 11.3222 54.2971 11.0475 53.4743 10.5278C53.5147 10.4789 53.5211 10.4178 53.4911 10.3475C53.5856 10.3855 53.697 10.432 53.8385 10.4925C53.9019 10.5197 54.0814 10.597 54.1989 10.6476L54.3023 10.6922L54.3929 10.731C54.9123 10.953 55.2383 11.0796 55.4619 11.1372L55.4731 11.0934C55.2525 11.0366 54.9277 10.9105 54.4106 10.6895L54.32 10.6507L54.2166 10.6061L54.2165 10.6061L54.2142 10.6051C54.0968 10.5545 53.9192 10.4779 53.8561 10.451C53.6881 10.3792 53.5625 10.3269 53.4569 10.2854L53.4568 10.2856C53.4423 10.2643 53.4249 10.2422 53.4045 10.2196C53.3618 10.1724 53.3095 10.1248 53.249 10.0772C53.3812 10.1011 53.4906 10.1184 53.5887 10.1293C54.4491 10.2972 55.2801 10.5179 55.4831 10.6925L55.5124 10.6582C55.3235 10.4958 54.6429 10.3026 53.8799 10.1422C53.9971 10.1383 54.1159 10.123 54.2641 10.0966C54.3879 10.0746 54.4784 10.0418 54.5362 9.99828L54.5365 10.0013C54.5707 9.99774 54.6044 9.99383 54.6375 9.98953C55.0266 10.1581 55.6515 10.2043 55.9532 10.0592C56.0481 10.2488 55.9011 10.5344 55.7316 10.5887L55.7453 10.6318C55.8388 10.6018 55.9249 10.5133 55.977 10.4055C56.4199 10.509 57.4146 10.529 57.897 10.4228L57.8876 10.3771C57.4149 10.4812 56.4365 10.4623 55.9957 10.362C56.0149 10.3115 56.0264 10.2581 56.028 10.2054C56.6893 10.2653 57.4854 10.2154 57.8914 10.0211L57.8725 9.97871C57.4746 10.1691 56.6816 10.2184 56.0266 10.1584C56.0228 10.1165 56.012 10.0757 55.9928 10.0379C55.9979 10.0349 56.0028 10.0318 56.0076 10.0286C56.0589 9.99472 56.1009 9.95693 56.1339 9.91678C56.9478 9.79972 57.5481 9.61049 58.0959 9.33585C58.2145 9.2764 58.4626 9.13643 58.6631 9.02329C58.7965 8.94803 58.9088 8.88464 58.948 8.86474C59.0194 8.82844 59.0862 8.79766 59.1519 8.77112L59.1351 8.72922C59.0681 8.75628 59.0002 8.7876 58.9277 8.82445C58.8876 8.84479 58.7737 8.90907 58.639 8.98504L58.6389 8.98509C58.4388 9.09802 58.1929 9.23675 58.0758 9.29545C57.5419 9.56312 56.9577 9.74903 56.1703 9.86583C56.2068 9.80616 56.2251 9.74299 56.2259 9.68076C57.5946 9.33672 58.7801 8.82355 59.5771 8.16752L59.5485 8.1326C58.7592 8.78238 57.5826 9.29231 56.2233 9.63486C56.2106 9.53604 56.1531 9.44249 56.0533 9.37272C56.7764 9.21793 57.2515 9.00557 58.1667 8.49438L58.2265 8.46097C58.4864 8.31583 58.6266 8.23933 58.7884 8.15634L58.7679 8.11613C58.6055 8.19943 58.465 8.27612 58.2047 8.42151L58.1448 8.45492C57.2596 8.94934 56.7892 9.16249 56.1056 9.31507ZM56.052 9.37176C56.0699 9.35581 56.0879 9.33664 56.1056 9.31507C56.0843 9.31982 56.0628 9.32452 56.0411 9.32916L56.0498 9.37027C56.0426 9.3653 56.0351 9.36044 56.0275 9.35573L56.0039 9.39424L56.0156 9.40164C55.6266 9.71239 55.2425 9.89609 54.7271 9.97672C54.7022 9.96756 54.6781 9.95793 54.6548 9.94785L54.637 9.98931L54.6375 9.98953C54.6678 9.98559 54.6977 9.98133 54.7271 9.97672C55.1325 10.126 55.7388 10.1522 55.9828 9.99091C56.2419 9.81966 56.2406 9.54889 56.0156 9.40164L56.0398 9.38216L56.0504 9.37315L56.0505 9.37333L56.0533 9.37272L56.052 9.37176ZM56.052 9.37176L56.0498 9.37027L56.0504 9.37315L56.052 9.37176ZM56.2233 9.63486L56.1892 9.64339L56.2001 9.68722L56.2259 9.68076C56.2261 9.66538 56.2252 9.65006 56.2233 9.63486ZM56.1703 9.86583L56.1103 9.87454L56.1166 9.91926L56.1339 9.91678C56.1476 9.90016 56.1597 9.88314 56.1703 9.86583ZM56.0266 10.1584C56.028 10.174 56.0284 10.1897 56.028 10.2054L56.0029 10.2031L56.007 10.1566L56.0266 10.1584ZM55.9957 10.362L55.9701 10.356L55.9597 10.4014L55.977 10.4055C55.9838 10.3913 55.9901 10.3768 55.9957 10.362ZM55.9928 10.0379C55.9803 10.0454 55.9671 10.0525 55.9532 10.0592C55.9507 10.0544 55.9482 10.0497 55.9455 10.045L55.9843 10.0222C55.9873 10.0274 55.9902 10.0326 55.9928 10.0379ZM54.5834 9.95069C54.5664 9.95267 54.5492 9.95455 54.5319 9.95633L54.5362 9.99828C54.5556 9.98362 54.5714 9.96775 54.5834 9.95069ZM54.4815 9.61759C54.5703 9.70887 54.6165 9.79283 54.6124 9.86756C54.6107 9.89785 54.6011 9.92557 54.5834 9.95069C55.1724 9.88217 55.5864 9.69216 56.0115 9.34706C56.0942 9.27978 56.1879 9.1263 56.2203 8.99225C56.2585 8.83442 56.2144 8.72394 56.0726 8.68301L56.1411 8.66095C56.1204 8.65082 56.0974 8.64247 56.0718 8.63602L56.0609 8.67982L56.0726 8.68301C55.8354 8.75862 55.5948 8.82654 55.36 8.88322C55.3419 8.8719 55.3223 8.86112 55.3009 8.8509L55.3 8.85112L55.3102 8.89509L55.36 8.88322C55.4433 8.93537 55.4925 8.999 55.5087 9.07197C55.5326 9.18007 55.4794 9.29916 55.3817 9.3915C55.2146 9.54955 54.8544 9.64226 54.4815 9.61759ZM54.43 9.56807C54.4485 9.5848 54.4657 9.60131 54.4815 9.61759C54.4612 9.61624 54.4408 9.61455 54.4205 9.6125L54.425 9.56757L54.43 9.56807ZM53.8328 9.25365C53.8005 9.25864 53.7699 9.26364 53.7411 9.26862L53.7362 9.26687L53.7291 9.22339L53.7423 9.22111C53.7729 9.2318 53.8031 9.24266 53.8328 9.25365ZM53.3091 9.08894C53.7971 8.82471 54.5654 8.70682 55.0773 8.82372C55.316 8.87829 55.4399 8.96951 55.4647 9.08178C55.4847 9.17187 55.4381 9.27616 55.3509 9.35864C55.1861 9.51441 54.8106 9.60524 54.43 9.56807C54.4192 9.55833 54.408 9.54853 54.3964 9.53864C54.2871 9.44558 54.0789 9.34492 53.8328 9.25365C54.1955 9.19753 54.7595 9.1428 55.0515 9.1428V9.09613C54.7334 9.09613 54.0982 9.16023 53.7423 9.22111C53.6037 9.17273 53.456 9.12776 53.3091 9.08894ZM53.3091 9.08894C53.288 9.08336 53.2669 9.07791 53.2459 9.07259L53.2345 9.0792L53.2573 9.11817C53.2742 9.10823 53.2914 9.09849 53.3091 9.08894ZM53.8799 10.1422C53.7866 10.1452 53.6942 10.141 53.5887 10.1293C53.544 10.1206 53.4993 10.112 53.4546 10.1036L53.4614 10.067C53.5089 10.0741 53.5534 10.08 53.5956 10.0846C53.6911 10.1032 53.7861 10.1224 53.8799 10.1422ZM53.4568 10.2856L53.4405 10.3274L53.4911 10.3475C53.4826 10.3276 53.4712 10.307 53.4568 10.2856ZM53.4743 10.5278C53.4649 10.5391 53.4536 10.5498 53.4406 10.5598L53.4261 10.5507L53.4501 10.5125L53.4743 10.5278ZM53.2468 10.6357C53.2332 10.6255 53.2206 10.6156 53.2091 10.6062L53.1806 10.6411L53.186 10.6455C53.2071 10.6427 53.2274 10.6395 53.2468 10.6357ZM52.8649 10.6529C52.8428 10.6516 52.8203 10.6499 52.7974 10.648L52.8244 10.6175C52.8375 10.6291 52.851 10.641 52.8649 10.6529ZM52.0772 10.9388L52.0651 10.926L52.0323 10.957L52.0491 10.9746C52.0604 10.9644 52.0699 10.9525 52.0772 10.9388ZM51.4747 10.9151C51.4855 10.9198 51.4962 10.9242 51.5068 10.9285C51.4844 10.9091 51.4637 10.8907 51.4446 10.8733L51.443 10.875L51.4326 10.8629L51.4197 10.89L51.4265 10.8932L51.4143 10.9067C51.4499 10.9392 51.4913 10.9752 51.5376 11.014C51.5201 10.981 51.4992 10.9479 51.4747 10.9151ZM51.4747 10.9151C51.459 10.9082 51.4429 10.901 51.4265 10.8932L51.443 10.875C51.4542 10.8883 51.4647 10.9017 51.4747 10.9151ZM51.5454 11.4511C51.5364 11.4633 51.5263 11.4749 51.515 11.4856C51.5082 11.4767 51.5018 11.4679 51.4957 11.4592L51.5327 11.4334C51.5367 11.4393 51.541 11.4451 51.5454 11.4511ZM50.9085 11.5627C50.9159 11.5903 50.9219 11.6198 50.9265 11.652C50.9082 11.6308 50.8909 11.6103 50.8748 11.5907L50.9085 11.5627ZM50.8017 12.2253L50.7883 12.2075L50.7524 12.2347L50.7654 12.252C50.7781 12.2441 50.7902 12.2351 50.8017 12.2253ZM50.6943 12.2845L50.679 12.252L50.6384 12.2714L50.6491 12.2941C50.6646 12.2921 50.6797 12.2889 50.6943 12.2845ZM50.9036 11.5455C50.886 11.5401 50.8683 11.5341 50.8504 11.5277L50.8481 11.5213L50.8902 11.5054C50.895 11.5184 50.8995 11.5317 50.9036 11.5455ZM51.8764 10.3943C51.8444 10.3805 51.8123 10.3663 51.7801 10.3517L51.8108 10.3211C51.8331 10.3437 51.8551 10.3683 51.8764 10.3943ZM53.249 10.0772C53.2231 10.0568 53.1958 10.0365 53.167 10.0161L53.1415 10.0113L53.1345 10.0484L53.149 10.0587C53.1838 10.0652 53.2171 10.0714 53.249 10.0772ZM53.0037 9.06319C53.019 9.05128 53.0338 9.03898 53.048 9.02635C53.0296 9.02242 53.0113 9.01861 52.9931 9.01494L52.9842 9.05921L53.0037 9.06319ZM50.2572 8.60566C50.0686 8.65931 49.9629 8.71355 49.7643 8.84129L49.788 8.88095C49.9832 8.75537 50.0855 8.70288 50.2691 8.65067L50.2572 8.60566ZM51.1344 9.53813C51.6524 9.83211 52.3488 10.1625 52.8323 10.3382L52.8476 10.2957C52.3667 10.121 51.6725 9.79163 51.1565 9.49882L51.1344 9.53813ZM53.0179 9.56351C52.6441 9.48637 52.3214 9.43586 51.996 9.40755L51.9999 9.36255C52.3272 9.39104 52.6516 9.4418 53.027 9.51928C53.1776 9.55036 53.3331 9.5849 53.5323 9.631L53.7207 9.67495L53.7211 9.67504L53.7216 9.67516L53.7223 9.67532L53.7232 9.67553C53.847 9.70444 53.9926 9.73844 54.0521 9.75215L54.042 9.79616C53.9821 9.78235 53.8348 9.74796 53.7105 9.71893L53.5221 9.675C53.3233 9.62898 53.1681 9.59451 53.0179 9.56351ZM49.795 9.71971C49.8864 9.99575 50.534 10.8086 50.8393 11.0013L50.8633 10.963C50.5666 10.7759 49.9257 9.97143 49.8377 9.70546L49.795 9.71971ZM50.3636 11.6768C50.2627 11.43 49.6366 10.495 49.3013 10.0544L49.3371 10.027C49.6748 10.4709 50.3022 11.4079 50.4052 11.6597L50.3636 11.6768ZM50.2057 9.65579C50.4147 9.89351 51.0992 10.4162 51.4111 10.5423L51.4279 10.5004C51.1231 10.3772 50.4441 9.85869 50.2394 9.62591L50.2057 9.65579ZM48.9338 7.12294C48.8078 7.18843 48.7159 7.2842 48.6401 7.41755L48.6789 7.44125C48.7505 7.31521 48.8363 7.22583 48.954 7.16466L48.9338 7.12294ZM46.842 8.59813C46.8296 8.42815 46.8471 8.20684 46.8932 8.04788L46.9364 8.0605C46.8919 8.21387 46.8748 8.42989 46.8869 8.59483L46.842 8.59813ZM46.8727 8.87843C46.8358 9.03601 46.8631 9.40271 46.9135 9.6055L46.9571 9.59457C46.9083 9.39813 46.8816 9.0381 46.9165 8.88876L46.8727 8.87843ZM47.0317 10.0911C47.0109 10.0578 46.995 10.0265 46.9849 9.99706L47.0272 9.98129C47.0361 10.0069 47.0503 10.0352 47.0694 10.0656C47.0934 10.1037 47.1243 10.1443 47.1615 10.1877C47.1923 10.2235 47.2174 10.2505 47.2653 10.3005L47.2334 10.3334C47.1849 10.2828 47.1594 10.2554 47.1279 10.2187C47.0893 10.1737 47.0571 10.1314 47.0317 10.0911ZM47.2068 9.14815C47.1861 9.41012 47.33 9.90734 47.4761 10.0759C47.5082 10.3548 47.7015 10.7539 47.9743 11.029L48.0062 10.9972C47.7404 10.7292 47.5515 10.3392 47.5154 10.0582C47.3723 9.88732 47.2319 9.40213 47.2516 9.15171L47.2068 9.14815ZM47.1462 8.8561C47.1229 8.69055 47.1174 8.52452 47.1363 8.41903L47.1805 8.42701C47.1627 8.5268 47.1681 8.68858 47.1908 8.84979L47.1462 8.8561ZM47.5331 7.39054C47.4434 7.61683 47.3934 8.09566 47.4202 8.28255C47.4252 8.31836 47.4245 8.32741 47.4087 8.47776C47.38 8.75193 47.3914 8.95986 47.482 9.22846L47.5246 9.21398C47.4364 8.95254 47.4254 8.75074 47.4535 8.48249C47.47 8.32534 47.4706 8.31773 47.4647 8.27619C47.4391 8.09685 47.4883 7.62598 47.5749 7.40723L47.5331 7.39054ZM47.8472 9.12574C47.7512 8.80329 47.7478 8.02899 47.8469 7.6193L47.8906 7.62996C47.7933 8.03217 47.7967 8.79838 47.8903 9.11281L47.8472 9.12574ZM47.7248 9.247C47.6705 9.48752 47.6763 9.76598 47.7459 9.97556L47.7886 9.96127C47.7217 9.75999 47.7161 9.48983 47.7686 9.25696L47.7248 9.247ZM48.5417 8.87787C48.272 8.57663 48.1087 8.12745 48.1198 7.77675L48.1648 7.77819C48.154 8.11725 48.3132 8.5551 48.5752 8.84769L48.5417 8.87787ZM48.0489 8.90197C48.0179 9.29109 48.0401 9.6485 48.111 9.85271C48.1292 9.90541 48.142 9.96946 48.1601 10.0868C48.1686 10.1427 48.1734 10.1747 48.1776 10.2011C48.1847 10.2461 48.1912 10.284 48.1981 10.3203C48.2321 10.4975 48.2767 10.6278 48.3474 10.7286L48.3842 10.7026C48.318 10.6082 48.2752 10.4832 48.2423 10.3118C48.2355 10.276 48.2291 10.2386 48.222 10.194C48.2179 10.1678 48.2131 10.136 48.2045 10.0799C48.1861 9.95986 48.1729 9.89404 48.1535 9.83788C48.0851 9.64074 48.0632 9.289 48.0938 8.90558L48.0489 8.90197ZM48.4115 9.53674L48.3946 9.47277L48.4381 9.46117L48.4551 9.52541C48.4784 9.61593 48.4922 9.68418 48.4986 9.75231C48.5079 9.85067 48.4991 9.93556 48.4676 10.0082L48.4263 9.99014C48.4544 9.92546 48.4624 9.84792 48.4538 9.75655C48.4477 9.69131 48.4343 9.62513 48.4115 9.53674ZM48.6586 9.17663C48.7334 9.42258 48.78 9.72348 48.7693 9.85427L48.8141 9.85798C48.8254 9.72063 48.7779 9.41439 48.7016 9.16345L48.6586 9.17663ZM48.9752 11.1675C48.8826 11.0045 48.7986 10.7441 48.7794 10.534L48.8242 10.5299C48.8428 10.7335 48.9248 10.9876 49.0143 11.1451L48.9752 11.1675ZM48.4457 11.1533C48.5306 11.4094 48.6765 11.6738 48.8084 11.7781L48.8363 11.7426C48.7129 11.6451 48.5708 11.3875 48.4884 11.139L48.4457 11.1533ZM49.6938 11.8695C49.6037 11.5966 49.5446 11.4641 49.4023 11.2613L49.4391 11.2353C49.5845 11.4424 49.6451 11.5786 49.7365 11.8553L49.6938 11.8695Z" fill="black"/>
<path fill-rule="evenodd" clip-rule="evenodd" d="M47.7548 11.3216C47.7828 11.3246 47.8003 11.3258 47.8486 11.3282C47.9607 11.3338 48 11.3452 48.0505 11.3987C48.0838 11.4339 48.1168 11.4872 48.1525 11.5648C48.2771 11.8357 48.6177 12.2499 48.8165 12.3787L48.8161 12.379C49.0794 12.8423 49.1965 13.4539 49.1149 13.7825C49.0914 13.6382 49.0096 13.5271 48.8834 13.4361C48.8344 13.4007 48.8031 13.3827 48.7179 13.3373C48.6052 13.4359 48.4407 13.5494 48.3578 13.5671L48.3672 13.6113C48.4608 13.5913 48.6326 13.4727 48.724 13.3725C48.7654 13.4088 48.7928 13.4277 48.8231 13.4488L48.8231 13.4488C48.8338 13.4562 48.8449 13.4639 48.8572 13.4728C48.9747 13.5576 49.0495 13.6593 49.0707 13.7908L49.1147 13.7836L49.1117 13.7951L49.1551 13.8069C49.2426 13.4828 49.1368 12.8868 48.8878 12.4159C49.1946 12.5572 49.3907 12.7165 49.4291 12.9411L49.4718 12.9465L49.4939 12.8971C49.5961 12.6666 49.635 12.5083 49.596 12.3447L49.5999 12.3494L49.6359 12.3927C49.7487 12.5287 49.8318 12.6287 49.8933 12.7043L49.8891 12.7049C49.8952 12.7479 49.9009 12.8134 49.9076 12.9133C49.9088 12.9311 49.9121 12.9828 49.9158 13.0415C49.9208 13.1212 49.9267 13.2139 49.9293 13.2526C49.9455 13.4898 49.9617 13.6479 49.9837 13.7509L50.0277 13.7415C50.0063 13.6412 49.9902 13.4845 49.9742 13.2495C49.9716 13.211 49.9657 13.1185 49.9607 13.0388C49.957 12.98 49.9537 12.9282 49.9525 12.9102C49.9484 12.8498 49.9447 12.8018 49.9411 12.7635C50.037 12.8838 50.062 12.9259 50.075 12.9715C50.0789 12.9851 50.0817 12.9991 50.085 13.0156L50.085 13.0156L50.0888 13.034C50.1263 13.2136 50.2706 13.4598 50.4154 13.618L50.4485 13.5875C50.3087 13.4348 50.1685 13.1954 50.1328 13.0248L50.128 13.0011C50.1245 12.9832 50.1215 12.9682 50.1173 12.9535C50.0949 12.875 50.0378 12.8063 49.6762 12.3707L49.6345 12.3205C49.6037 12.2835 49.576 12.2495 49.5498 12.2168L49.5119 12.2404C49.6013 12.4356 49.5762 12.5978 49.4577 12.8675C49.3909 12.6524 49.1859 12.5003 48.8823 12.3639C48.707 12.2852 48.3244 11.8308 48.1934 11.5459C48.1558 11.4642 48.1203 11.407 48.0832 11.3676C48.0226 11.3035 47.9735 11.2892 47.8508 11.2831C47.8034 11.2807 47.7865 11.2796 47.7595 11.2767L47.7548 11.3216ZM49.9411 12.7635C49.9386 12.7378 49.9362 12.7164 49.9337 12.6985L49.8933 12.7043C49.9109 12.7259 49.9268 12.7456 49.9411 12.7635ZM49.1147 13.7836L49.1151 13.7836L49.1149 13.7825L49.1147 13.7836ZM48.8878 12.4159L48.864 12.4051C48.8493 12.3985 48.8334 12.3897 48.8165 12.3787L48.8552 12.3566C48.8663 12.3761 48.8772 12.3959 48.8878 12.4159ZM48.0703 12.0063C48.1492 12.2445 48.2118 12.5306 48.2182 12.6962L48.2632 12.6945C48.2566 12.524 48.1931 12.234 48.113 11.992L48.0703 12.0063ZM48.7523 13.181C48.7453 13.0473 48.6615 12.6973 48.578 12.4641L48.6203 12.4488C48.7052 12.6858 48.79 13.0399 48.7973 13.1786L48.7523 13.181ZM49.5384 13.0992C49.6037 13.2572 49.645 13.5065 49.6318 13.6551L49.6767 13.6591C49.6905 13.5031 49.648 13.2464 49.58 13.0819L49.5384 13.0992Z" fill="black"/>
</g>
</g>
</g>
<defs>
<clipPath id="clip0_37941_2383">
<rect width="64" height="42" rx="5" fill="white"/>
</clipPath>
<clipPath id="clip1_37941_2383">
<rect width="25.1999" height="11.1999" fill="white" transform="translate(36.0001 5.60022)"/>
</clipPath>
<clipPath id="clip2_37941_2383">
<rect width="25.1999" height="11.1999" fill="white" transform="translate(36.0001 5.60022)"/>
</clipPath>
<clipPath id="clip3_37941_2383">
<rect width="25.1999" height="10.4774" fill="white" transform="translate(36.0001 5.60022)"/>
</clipPath>
</defs>
</svg>
