<svg xmlns="http://www.w3.org/2000/svg" width="64" height="42" fill="none" viewBox="0 0 64 42"><g clip-path="url(#a)"><rect width="64" height="42" fill="#fff" rx="5"/><path fill="#f0371d" fill-rule="evenodd" d="M0 42h64V0H0z" clip-rule="evenodd"/><path fill="#fff" fill-rule="evenodd" d="M33.2308 8.6844c1.4707.4779 1.8882 3.2498.9324 6.1912-.9557 2.9414-2.9227 4.9385-4.3934 4.4606s-1.8882-3.2497-.9325-6.1911 2.9228-4.9385 4.3935-4.4607m-13.0702 7.7077c.909-1.2511 3.6742-.7916 6.1763 1.0263s3.7937 4.3058 2.8847 5.5569c-.9089 1.251-3.6742.7915-6.1763-1.0264s-3.7936-4.3057-2.8847-5.5568M39 21.5329c3.0928 0 5.6-1.2536 5.6-2.8s-2.5072-2.8-5.6-2.8-5.6 1.2536-5.6 2.8 2.5072 2.8 5.6 2.8m.6999-1.9331a.7.7 0 1 0 0-1.4.7.7 0 0 0 0 1.4M38.5564 32.651c-1.4707.4779-3.4377-1.5192-4.3934-4.4606-.9558-2.9415-.5383-5.7133.9324-6.1912s3.4378 1.5192 4.3935 4.4607c.9557 2.9414.5382 5.7133-.9325 6.1911m-2.3385-4.3923a.7.7 0 1 0 1.3316-.4328.7.7 0 0 0-1.3316.4328m-12.7657 2.9455c-.9089-1.251.3826-3.7389 2.8847-5.5568 2.5022-1.8179 5.2674-2.2774 6.1763-1.0264s-.3825 3.739-2.8847 5.5569c-2.5021 1.8179-5.2673 2.2774-6.1763 1.0263m3.4547-3.5815a.7.7 0 1 0 .8229 1.1326.7.7 0 1 0-.8229-1.1326m-2.2726-9.0518a.7.7 0 0 0-.9777.1549.7.7 0 1 0 .9777-.1549m7.9068-4.9584a.7.7 0 1 0-1.3316-.4326.7.7 0 0 0 1.3316.4326" clip-rule="evenodd"/></g><defs><clipPath id="a"><rect width="64" height="42" fill="#fff" rx="5"/></clipPath></defs></svg>