<svg xmlns="http://www.w3.org/2000/svg" width="64" height="42" fill="none" viewBox="0 0 64 42"><g clip-path="url(#a)"><rect width="64" height="42" fill="#fff" rx="5"/><path fill="#079d7b" fill-rule="evenodd" d="M0 42h64V0H0z" clip-rule="evenodd"/><g fill-rule="evenodd" clip-path="url(#b)" clip-rule="evenodd"><path fill="#fff" d="M27.4499 25.1997h-6.6496a12.87 12.87 0 0 0 1.324 2.8h19.7519c.545-.8638.992-1.8031 1.3241-2.8h-6.7394a18.4 18.4 0 0 0 1.3918-.3161c3.7343-1.0006 6.4557-2.9531 6.0785-4.3609s-3.7103-1.738-7.4445-.7374a19 19 0 0 0-.6562.1886 12.16 12.16 0 0 0 .1283-1.7741c0-3.866-1.7724-7-3.9586-7s-3.9586 3.134-3.9586 7c0 .6161.045 1.2136.1295 1.7827a19 19 0 0 0-.5793-.1652c-3.7343-1.0006-7.0673-.6704-7.4446.7374s2.3442 3.3603 6.0785 4.3609c.4141.111.8234.2056 1.2242.2841m4.5504 8.4002c2.8281 0 5.4254-1.0489 7.465-2.8h-14.93c2.0396 1.7511 4.6368 2.8 7.465 2.8m0-8.4c3.866 0 7-.6268 7-1.4s-3.134-1.4-7-1.4-7 .6268-7 1.4 3.134 1.4 7 1.4"/><path fill="#fcd117" d="M33.4 6.9999c0 .7731-.6268 1.4-1.4 1.4s-1.4-.6269-1.4-1.4c0-.7732.6268-1.4 1.4-1.4s1.4.6268 1.4 1.4m-11.1999 7c0 .7732-.6268 1.4-1.4 1.4s-1.4-.6268-1.4-1.4.6268-1.4 1.4-1.4 1.4.6268 1.4 1.4m21.0002 1.4c.7732 0 1.4-.6268 1.4-1.4s-.6268-1.4-1.4-1.4-1.4.6268-1.4 1.4.6268 1.4 1.4 1.4m-2.8-5.6c0 .7732-.6268 1.4-1.4 1.4s-1.4-.6268-1.4-1.4.6268-1.4 1.4-1.4 1.4.6268 1.4 1.4m-15.4002 1.4c.7732 0 1.4-.6268 1.4-1.4s-.6268-1.4-1.4-1.4-1.4.6268-1.4 1.4.6268 1.4 1.4 1.4"/></g></g><defs><clipPath id="a"><rect width="64" height="42" fill="#fff" rx="5"/></clipPath><clipPath id="b"><path fill="#fff" d="M19.4001 5.5999h25.2v29.4h-25.2z"/></clipPath></defs></svg>