<svg xmlns="http://www.w3.org/2000/svg" width="64" height="42" fill="none" viewBox="0 0 64 42"><g clip-path="url(#a)"><rect width="64" height="42" fill="#fff" rx="5"/><mask id="b" fill="#fff"><path d="M0 5c0-2.7614 2.2386-5 5-5h54c2.7614 0 5 2.2386 5 5v21.6583H0z"/></mask><path stroke="#f5f5f5" stroke-width="2" d="M0 5c0-2.7614 2.2386-5 5-5h54c2.7614 0 5 2.2386 5 5v21.6583H0z" mask="url(#b)"/><path fill="#0c47b7" fill-rule="evenodd" d="M0 27.9654h64V13.9308H19.4602v-2.8069s-1.9795-1.4034-4.0222-1.4034-4.2104 1.4034-4.2104 1.4034v2.8069H0zm15.438-8.4208c1.5502 0 2.8069-1.2567 2.8069-2.807s-1.2567-2.8069-2.8069-2.8069-2.8069 1.2567-2.8069 2.8069 1.2567 2.807 2.8069 2.807" clip-rule="evenodd"/><path fill="#e53b35" fill-rule="evenodd" d="M0 42h64V27.9655H0z" clip-rule="evenodd"/></g><defs><clipPath id="a"><rect width="64" height="42" fill="#fff" rx="5"/></clipPath></defs></svg>