<svg xmlns="http://www.w3.org/2000/svg" width="64" height="42" fill="none" viewBox="0 0 64 42"><g clip-path="url(#a)"><rect width="64" height="42" fill="#fff" rx="5"/><rect width="63" height="41" x="1" y="1" stroke="#f5f5f5" rx="5"/><path fill="#e12237" fill-rule="evenodd" d="M0 21h64V0H0z" clip-rule="evenodd"/><path fill="#fff" fill-rule="evenodd" d="M15.7499 3.9375a6.55 6.55 0 0 1 2.293.4117c-1.3476-1.0789-3.0575-1.724-4.918-1.724-4.3493 0-7.875 3.5257-7.875 7.8749 0 4.3493 3.5257 7.8751 7.875 7.8751 1.8608 0 3.5708-.6454 4.9185-1.7246a6.55 6.55 0 0 1-2.2935.4119c-3.6243 0-6.5625-2.9381-6.5625-6.5625s2.9382-6.5625 6.5625-6.5625M14.4374 10.5c.7249 0 1.3125-.5876 1.3125-1.3125s-.5876-1.3125-1.3125-1.3125-1.3125.5876-1.3125 1.3125.5877 1.3125 1.3125 1.3125m3.9376 3.9377c0 .7249-.5876 1.3125-1.3125 1.3125s-1.3125-.5876-1.3125-1.3125.5877-1.3125 1.3125-1.3125 1.3125.5876 1.3125 1.3125m3.9375 1.3125c.7248 0 1.3125-.5876 1.3125-1.3125s-.5877-1.3125-1.3125-1.3125S21 13.7128 21 14.4377s.5876 1.3125 1.3125 1.3125M26.25 9.1875c0 .7249-.5876 1.3125-1.3125 1.3125s-1.3125-.5876-1.3125-1.3125.5877-1.3125 1.3125-1.3125 1.3125.5876 1.3125 1.3125m-6.5626-2.625c.7249 0 1.3125-.5876 1.3125-1.3125s-.5876-1.3125-1.3125-1.3125-1.3125.5876-1.3125 1.3125.5876 1.3125 1.3125 1.3125" clip-rule="evenodd"/></g><defs><clipPath id="a"><rect width="64" height="42" fill="#fff" rx="5"/></clipPath></defs></svg>