<svg width="64" height="42" viewBox="0 0 64 42" fill="none" xmlns="http://www.w3.org/2000/svg">
<g clip-path="url(#clip0_37941_2275)">
<rect width="64" height="42" rx="5" fill="white"/>
<path d="M0 0H64V42H0V0Z" fill="#00ABC2"/>
<path d="M33.2764 23.0732C36.1001 23.0732 38.3893 20.7841 38.3893 17.9603C38.3893 15.1365 36.1001 12.8474 33.2764 12.8474C30.4526 12.8474 28.1635 15.1365 28.1635 17.9603C28.1635 20.7841 30.4526 23.0732 33.2764 23.0732Z" fill="#FFEC2D"/>
<path d="M33.2765 12.1498C33.5805 12.146 33.6945 11.956 33.6945 11.728C33.6945 11.424 33.2765 9.97623 33.2765 9.97623C33.2765 9.97623 32.8585 11.424 32.8585 11.728C32.8585 11.956 32.9725 12.1498 33.2765 12.1498Z" fill="#FFEC2D"/>
<path d="M39.0867 17.9601C39.0905 18.2641 39.2805 18.3781 39.5085 18.3781C39.8125 18.3781 41.2603 17.9601 41.2603 17.9601C41.2603 17.9601 39.8125 17.5421 39.5085 17.5421C39.2805 17.5421 39.0867 17.6561 39.0867 17.9601Z" fill="#FFEC2D"/>
<path d="M33.2766 23.7702C32.9726 23.774 32.8586 23.964 32.8586 24.192C32.8586 24.496 33.2766 25.9438 33.2766 25.9438C33.2766 25.9438 33.6946 24.496 33.6946 24.192C33.6946 23.964 33.5806 23.7702 33.2766 23.7702Z" fill="#FFEC2D"/>
<path d="M27.4663 17.9602C27.4625 17.6562 27.2725 17.5422 27.0445 17.5422C26.7405 17.5422 25.2927 17.9602 25.2927 17.9602C25.2927 17.9602 26.7405 18.3782 27.0445 18.3782C27.2725 18.3782 27.4663 18.2642 27.4663 17.9602Z" fill="#FFEC2D"/>
<path d="M35.4999 12.5923C35.7823 12.7052 35.9603 12.5732 36.0475 12.3626C36.1639 12.0817 36.3317 10.5842 36.3317 10.5842C36.3317 10.5842 35.3915 11.7618 35.2752 12.0427C35.1879 12.2533 35.2191 12.476 35.4999 12.5923Z" fill="#FFEC2D"/>
<path d="M38.6445 20.1837C38.5317 20.466 38.6636 20.644 38.8742 20.7313C39.1551 20.8476 40.6527 21.0155 40.6527 21.0155C40.6527 21.0155 39.475 20.0753 39.1942 19.9589C38.9835 19.8717 38.7609 19.9028 38.6445 20.1837Z" fill="#FFEC2D"/>
<path d="M31.053 23.328C30.7707 23.2152 30.5927 23.3471 30.5054 23.5578C30.3891 23.8386 30.2212 25.3362 30.2212 25.3362C30.2212 25.3362 31.1615 24.1586 31.2778 23.8777C31.3651 23.6671 31.3339 23.4444 31.053 23.328Z" fill="#FFEC2D"/>
<path d="M27.9086 15.7367C28.0214 15.4544 27.8895 15.2764 27.6789 15.1891C27.398 15.0728 25.9004 14.9049 25.9004 14.9049C25.9004 14.9049 27.0781 15.8451 27.3589 15.9615C27.5696 16.0487 27.7922 16.0176 27.9086 15.7367Z" fill="#FFEC2D"/>
<path d="M37.3849 13.8515C37.6026 14.0638 37.8176 14.01 37.9788 13.8488C38.1937 13.6338 38.9219 12.3145 38.9219 12.3145C38.9219 12.3145 37.6026 13.0427 37.3876 13.2577C37.2264 13.4189 37.17 13.6365 37.3849 13.8515Z" fill="#FFEC2D"/>
<path d="M37.385 22.0683C37.1727 22.2859 37.2265 22.5009 37.3877 22.6621C37.6026 22.8771 38.922 23.6053 38.922 23.6053C38.922 23.6053 38.1938 22.2859 37.9788 22.071C37.8176 21.9098 37.6 21.8533 37.385 22.0683Z" fill="#FFEC2D"/>
<path d="M29.1682 22.0682C28.9506 21.856 28.7356 21.9097 28.5744 22.0709C28.3594 22.2859 27.6312 23.6052 27.6312 23.6052C27.6312 23.6052 28.9506 22.877 29.1655 22.6621C29.3267 22.5009 29.3832 22.2832 29.1682 22.0682Z" fill="#FFEC2D"/>
<path d="M29.1681 13.8517C29.3804 13.634 29.3266 13.419 29.1654 13.2578C28.9505 13.0429 27.6311 12.3147 27.6311 12.3147C27.6311 12.3147 28.3593 13.634 28.5743 13.849C28.7355 14.0102 28.9531 14.0666 29.1681 13.8517Z" fill="#FFEC2D"/>
<path d="M38.6445 15.7366C38.7643 16.016 38.9835 16.0486 39.1941 15.9614C39.475 15.8451 40.6526 14.9048 40.6526 14.9048C40.6526 14.9048 39.1551 15.0727 38.8742 15.189C38.6636 15.2763 38.5282 15.4558 38.6445 15.7366Z" fill="#FFEC2D"/>
<path d="M35.5 23.3279C35.2206 23.4477 35.188 23.6669 35.2753 23.8776C35.3916 24.1584 36.3318 25.336 36.3318 25.336C36.3318 25.336 36.164 23.8385 36.0476 23.5576C35.9604 23.347 35.7809 23.2116 35.5 23.3279Z" fill="#FFEC2D"/>
<path d="M27.9085 20.1838C27.7887 19.9044 27.5695 19.8718 27.3589 19.959C27.078 20.0754 25.9004 21.0156 25.9004 21.0156C25.9004 21.0156 27.398 20.8477 27.6788 20.7314C27.8895 20.6441 28.0249 20.4646 27.9085 20.1838Z" fill="#FFEC2D"/>
<path d="M31.0531 12.592C31.3325 12.4722 31.3651 12.253 31.2779 12.0424C31.1616 11.7615 30.2213 10.5839 30.2213 10.5839C30.2213 10.5839 30.3892 12.0815 30.5055 12.3623C30.5928 12.573 30.7723 12.7084 31.0531 12.592Z" fill="#FFEC2D"/>
<path d="M34.41 12.2618C34.7089 12.3173 34.8578 12.1532 34.9022 11.9296C34.9616 11.6314 34.834 10.1299 34.834 10.1299C34.834 10.1299 34.1416 11.4684 34.0823 11.7665C34.0378 11.9901 34.1118 12.2024 34.41 12.2618Z" fill="#FFEC2D"/>
<path d="M38.975 19.0936C38.9194 19.3925 39.0835 19.5414 39.3071 19.5859C39.6053 19.6452 41.1068 19.5177 41.1068 19.5177C41.1068 19.5177 39.7684 18.8252 39.4702 18.7659C39.2466 18.7215 39.0343 18.7955 38.975 19.0936Z" fill="#FFEC2D"/>
<path d="M32.143 23.6588C31.8441 23.6033 31.6952 23.7674 31.6507 23.991C31.5914 24.2891 31.7189 25.7907 31.7189 25.7907C31.7189 25.7907 32.4114 24.4522 32.4707 24.1541C32.5151 23.9305 32.4411 23.7181 32.143 23.6588Z" fill="#FFEC2D"/>
<path d="M27.5779 16.8265C27.6335 16.5276 27.4694 16.3787 27.2457 16.3343C26.9476 16.275 25.446 16.4025 25.446 16.4025C25.446 16.4025 26.7845 17.0949 27.0826 17.1542C27.3063 17.1987 27.5186 17.1247 27.5779 16.8265Z" fill="#FFEC2D"/>
<path d="M36.5043 13.1291C36.7592 13.2949 36.9596 13.2002 37.0862 13.0107C37.2551 12.7579 37.7119 11.3219 37.7119 11.3219C37.7119 11.3219 36.56 12.2934 36.3911 12.5462C36.2645 12.7358 36.2516 12.9602 36.5043 13.1291Z" fill="#FFEC2D"/>
<path d="M38.1073 21.1879C37.9416 21.4428 38.0363 21.6431 38.2258 21.7698C38.4786 21.9387 39.9146 22.3955 39.9146 22.3955C39.9146 22.3955 38.943 21.2436 38.6903 21.0747C38.5007 20.948 38.2762 20.9351 38.1073 21.1879Z" fill="#FFEC2D"/>
<path d="M30.0484 22.7912C29.7935 22.6254 29.5932 22.7201 29.4665 22.9097C29.2976 23.1624 28.8408 24.5985 28.8408 24.5985C28.8408 24.5985 29.9927 23.6269 30.1616 23.3741C30.2883 23.1845 30.3012 22.9601 30.0484 22.7912Z" fill="#FFEC2D"/>
<path d="M28.4453 14.7322C28.611 14.4773 28.5164 14.277 28.3268 14.1503C28.074 13.9814 26.638 13.5246 26.638 13.5246C26.638 13.5246 27.6096 14.6765 27.8623 14.8454C28.0519 14.9721 28.2764 14.985 28.4453 14.7322Z" fill="#FFEC2D"/>
<path d="M38.1074 14.7322C38.2795 14.9828 38.5008 14.9721 38.6904 14.8454C38.9431 14.6765 39.9147 13.5246 39.9147 13.5246C39.9147 13.5246 38.4787 13.9814 38.2259 14.1503C38.0364 14.277 37.9385 14.4794 38.1074 14.7322Z" fill="#FFEC2D"/>
<path d="M36.5044 22.7911C36.2538 22.9631 36.2645 23.1845 36.3912 23.374C36.5601 23.6268 37.712 24.5984 37.712 24.5984C37.712 24.5984 37.2552 23.1623 37.0863 22.9096C36.9597 22.72 36.7572 22.6222 36.5044 22.7911Z" fill="#FFEC2D"/>
<path d="M28.4454 21.1881C28.2734 20.9375 28.052 20.9483 27.8625 21.0749C27.6097 21.2438 26.6381 22.3957 26.6381 22.3957C26.6381 22.3957 28.0742 21.9389 28.3269 21.77C28.5165 21.6434 28.6143 21.4409 28.4454 21.1881Z" fill="#FFEC2D"/>
<path d="M30.0485 13.1292C30.2991 12.9571 30.2884 12.7358 30.1617 12.5463C29.9928 12.2935 28.8409 11.3219 28.8409 11.3219C28.8409 11.3219 29.2977 12.7579 29.4666 13.0107C29.5933 13.2003 29.7957 13.2981 30.0485 13.1292Z" fill="#FFEC2D"/>
<path d="M38.975 16.8268C39.038 17.1242 39.2466 17.1989 39.4702 17.1544C39.7684 17.0951 41.1068 16.4027 41.1068 16.4027C41.1068 16.4027 39.6053 16.2752 39.3071 16.3345C39.0835 16.379 38.9157 16.5286 38.975 16.8268Z" fill="#FFEC2D"/>
<path d="M34.4099 23.6587C34.1125 23.7217 34.0377 23.9303 34.0822 24.1539C34.1415 24.4521 34.8339 25.7905 34.8339 25.7905C34.8339 25.7905 34.9614 24.289 34.9021 23.9908C34.8577 23.7672 34.708 23.5994 34.4099 23.6587Z" fill="#FFEC2D"/>
<path d="M27.5778 19.0936C27.5147 18.7962 27.3061 18.7215 27.0825 18.7659C26.7844 18.8253 25.4459 19.5177 25.4459 19.5177C25.4459 19.5177 26.9474 19.6452 27.2456 19.5859C27.4692 19.5414 27.6371 19.3918 27.5778 19.0936Z" fill="#FFEC2D"/>
<path d="M32.1429 12.2617C32.4403 12.1986 32.5151 11.9901 32.4706 11.7664C32.4113 11.4683 31.7189 10.1298 31.7189 10.1298C31.7189 10.1298 31.5914 11.6314 31.6507 11.9295C31.6951 12.1532 31.8448 12.321 32.1429 12.2617Z" fill="#FFEC2D"/>
<path d="M32.3643 29.0356C32.2275 29.0432 32.0945 29.0609 31.964 29.1027C31.7854 29.1268 31.6144 29.1889 31.4371 29.218L31.3662 29.2294L31.2471 29.2408C31.2547 29.2737 31.2598 29.3067 31.2598 29.3396C31.2598 29.3738 31.256 29.4067 31.2471 29.4346C31.2395 29.4612 31.2154 29.4941 31.1964 29.5144C31.1711 29.5423 31.1445 29.5663 31.1128 29.5815C31.0824 29.5967 31.0482 29.6031 31.014 29.6056C30.9798 29.6069 30.9444 29.6056 30.9114 29.5929C30.8772 29.5815 30.8456 29.56 30.8164 29.5347C30.7814 29.5433 30.7459 29.5497 30.71 29.5537C30.6746 29.5575 30.6416 29.5575 30.61 29.5537C30.5745 29.5435 30.5378 29.5321 30.5036 29.5182C30.4691 29.5039 30.4361 29.4866 30.4048 29.4663C30.2756 29.5423 30.1312 29.6145 30.0526 29.7475C30.0083 29.8083 29.9994 29.8779 29.9893 29.9501C29.983 30.0388 30.0058 30.1325 30.0438 30.2149C30.0577 30.2389 30.0691 30.1275 30.1122 30.1123C30.1844 30.0527 30.2743 30.0097 30.3655 29.9856C30.4428 29.9463 30.4326 29.9881 30.401 30.0489C30.3934 30.0806 30.3503 30.2009 30.4086 30.1401C30.6657 30.0261 30.9507 30.0033 31.2281 29.9818C31.6309 29.94 32.035 29.9311 32.439 29.9261L33.579 29.9501C33.7602 29.9552 33.9426 29.9957 34.1212 29.9653C34.1642 29.9539 34.2314 29.9514 34.2567 29.9261C34.1756 29.8792 34.0806 29.8779 33.9907 29.8665H33.2662C33.0648 29.8463 32.8545 29.8437 32.6645 29.7677C32.6138 29.7475 32.567 29.6993 32.5188 29.7513C32.4466 29.7766 32.3694 29.7943 32.2934 29.7994C32.1604 29.8095 32.0274 29.7817 31.9045 29.7323C31.9932 29.6094 32.0996 29.5017 32.1971 29.3877C32.1186 29.3751 32.0426 29.3586 31.964 29.3396C32.1021 29.2446 32.23 29.1369 32.3643 29.0356Z" fill="#FFEC2D"/>
<path d="M38.2822 30.3483C38.0069 30.5136 37.7967 30.2205 37.5666 30.1326C37.4023 30.2219 37.3869 30.5205 37.2334 30.662C37.0496 30.8711 36.8245 30.6036 36.8412 30.3973C36.6215 30.5825 36.5104 31.0023 36.1551 30.9463C35.9867 30.8089 35.8617 30.5206 35.733 30.8488C35.6282 31.0093 35.3489 31.2376 35.2042 30.9953C35.1595 30.7813 35.0522 30.5298 34.9358 30.8696C34.856 31.1099 34.5995 31.2867 34.3514 31.1815C34.2156 31.0705 34.4603 30.6599 34.2874 30.6891C34.029 30.8599 33.8788 31.2841 33.5182 31.2501C33.3782 31.093 33.6032 30.8267 33.4496 30.6522C33.2684 30.8849 33.0672 31.2256 32.7536 31.2501C32.6021 31.1273 32.7596 30.7751 32.6628 30.723C32.3411 30.9159 32.0016 31.2598 31.5969 31.1521C31.7546 30.549 32.4135 30.3373 32.9677 30.2903C33.9211 30.1731 34.9241 30.3886 35.8414 30.0444C35.9896 29.9543 36.3487 29.8264 36.2208 29.6172C36.1076 29.452 36.5155 29.5166 36.5547 29.3237C36.5304 29.0794 36.7419 29.113 36.9485 29.0916C37.8748 29.0516 38.7898 29.2467 39.7133 29.2798C39.7831 29.7298 39.2839 30.0458 38.882 29.9068C38.69 29.938 38.4022 29.4655 38.4586 29.8092C38.4199 29.9896 38.447 30.2279 38.2822 30.3484M30.401 29.4269C30.6154 29.6232 30.7658 29.39 30.9662 29.3047C31.6385 29.0735 32.2251 28.6694 32.8034 28.2657C33.1537 27.9757 33.4575 27.5997 33.9281 27.5057C34.846 27.2281 35.8217 27.2618 36.7431 27.0057C37.4448 26.0451 38.6365 25.7023 39.6348 25.1502C39.859 25.0805 39.9456 24.896 40.0172 24.6923C40.3982 24.0908 40.9173 23.5578 41.5313 23.1936C41.8217 23.0349 42.1683 22.9435 42.4971 23.0161C42.4736 23.4078 42.2489 23.7549 41.9776 24.0258C42.1996 24.0209 42.3904 23.8807 42.6148 23.8886C42.6916 24.2905 42.2576 24.5009 42.0266 24.7512C42.1552 24.7811 42.648 24.8183 42.3795 24.9472C42.0373 25.1847 41.6465 25.3478 41.3306 25.6236C41.622 25.6759 41.6553 25.7379 41.3589 25.8433C41.1985 25.952 40.8899 25.99 40.8601 26.2019C41.0803 26.3372 40.7587 26.4716 40.6347 26.5156C40.3975 26.5708 40.1483 26.6738 40.4634 26.854C40.3442 27.0341 40.0885 27.0725 39.8799 27.0547C39.9432 27.2587 40.0348 27.4871 39.77 27.5771C39.1763 28.0259 38.4795 28.3524 37.7332 28.427C38.6655 28.4987 39.6258 28.3257 40.4225 27.8186C40.5277 27.6943 41.0792 27.5606 40.7707 27.456C40.6255 27.3956 40.3141 27.3285 40.2931 27.2177C40.7246 26.9515 41.2683 27.0462 41.7325 26.888C41.7445 26.7378 41.3794 26.7796 41.2433 26.7454C40.9187 26.7188 40.9377 26.6359 41.2507 26.6052C41.6467 26.5003 42.0953 26.4797 42.4284 26.2215C42.1572 26.0958 41.816 26.2064 41.5266 26.1038C42.0172 25.8891 42.596 25.8676 43.0362 25.5451C43.2367 25.322 42.7793 25.3917 42.6461 25.3972C42.3744 25.4445 42.2487 25.3144 42.5575 25.2015C43.0845 24.8129 43.7519 24.5604 44.1221 23.997C44.2098 23.8709 44.3286 23.4909 44.0489 23.6276C43.681 23.7499 43.3574 24.1634 42.9382 24.0355C43.7641 23.3954 44.5499 22.6667 45.1144 21.781C45.1435 21.5255 44.7425 21.4979 44.6381 21.6984C44.1076 22.2097 43.6273 22.8132 42.948 23.1337C43.5986 22.5057 44.1365 21.7622 44.6058 20.9915C44.7064 20.7623 44.9768 20.4867 44.8301 20.2322C44.5935 20.0364 44.2976 20.2156 44.1747 20.4499C43.7622 20.9884 43.449 21.6169 42.9186 22.0554C43.383 21.1692 43.8637 20.2258 43.8754 19.2037C43.874 18.9932 43.8317 18.6833 43.546 18.7226C43.3194 18.7632 43.3732 19.1023 43.2798 19.2738C43.0742 19.9721 42.9777 20.7284 42.5559 21.3399C42.6508 20.7724 42.8168 20.1809 42.6894 19.6078C42.6298 19.3517 42.2163 19.4619 42.2696 19.7154C41.7755 22.218 40.0962 24.4068 37.8999 25.673C36.8943 26.242 35.7711 26.6088 34.6283 26.7751C34.3209 26.8424 33.9884 26.8029 33.6946 26.9077C32.9826 27.4536 32.5515 28.3672 31.6501 28.6532C31.2461 28.854 30.7192 28.8948 30.4304 29.2701C30.4054 29.3181 30.4 29.3737 30.401 29.4269Z" fill="#FFEC2D"/>
<path d="M33.099 26.8883C32.966 27.1298 32.8877 27.4073 32.7167 27.6235C32.2021 27.1553 31.4562 27.1708 30.8035 27.1396C30.2648 27.1108 29.6789 27.0611 29.2621 26.6769C28.8236 26.3177 28.4657 25.8514 27.9757 25.56C27.5285 25.4384 27.0777 25.2862 26.7181 24.9797C25.9498 24.3534 25.5097 23.4241 24.7589 22.7782C24.6158 22.6373 24.447 22.5281 24.2866 22.4086C24.1342 22.4457 24.2032 22.7746 24.0167 22.607C23.9153 22.5348 23.6615 22.5277 23.6386 22.6286C23.8682 22.9311 24.098 23.2764 24.1298 23.6633C23.9732 23.6794 23.6949 23.6303 23.6173 23.6885C23.8252 24.0001 24.0917 24.2765 24.3945 24.4965C24.2492 24.5199 23.963 24.5072 23.9074 24.5657C24.2079 24.8107 24.5302 25.061 24.9238 25.1239C25.0043 25.2301 24.806 25.4351 24.9728 25.5258C25.0695 25.5653 25.3886 25.6315 25.1688 25.7415C25.018 25.8431 25.0739 26.08 25.2669 26.0747C25.3888 26.137 25.6627 26.1523 25.6841 26.2602C25.576 26.3702 25.2396 26.5006 25.5259 26.6037C25.7934 26.752 26.0985 26.8484 26.4039 26.8589C26.2506 26.9879 26.0618 27.0611 25.904 27.1824C26.6089 27.5957 27.3903 27.8676 28.1625 28.1293C28.4699 28.2321 28.7809 28.3278 29.0995 28.3881C28.1736 28.3347 27.2785 28.0605 26.4352 27.6853C25.9981 27.4936 25.558 27.3084 25.11 27.1432C25.3064 27.041 25.5336 27.0161 25.7373 26.9276C25.3145 26.8429 24.8525 26.8151 24.4808 26.5827C24.5378 26.481 24.7537 26.4762 24.8732 26.4244C25.0978 26.3706 25.2371 26.3053 24.9204 26.2858C24.601 26.1991 24.2347 26.238 23.9532 26.0453C23.9714 25.9298 24.2659 25.9701 24.3859 25.9202C24.537 25.8943 24.705 25.8725 24.8257 25.7709C24.3319 25.5662 23.6861 25.7112 23.2993 25.2752C23.2101 25.109 23.5763 25.2429 23.6806 25.2152C23.9455 25.2152 24.2303 25.2994 24.4826 25.1926C23.7631 24.8767 22.9924 24.5809 22.4437 23.9967C22.3828 23.9027 22.2003 23.6461 22.3475 23.6144C22.7746 23.6709 23.0838 24.137 23.5406 24.0644C23.6013 23.9826 23.2752 23.8486 23.1938 23.7316C22.5277 23.1601 21.8813 22.5398 21.4145 21.7911C21.3823 21.5411 21.7753 21.5037 21.8788 21.6967C22.3882 22.1874 22.8483 22.7599 23.4828 23.0948C23.7079 23.204 23.3535 22.9656 23.3063 22.8791C22.7201 22.1984 22.162 21.4795 21.7523 20.6777C21.679 20.5333 21.5575 20.2717 21.7769 20.1948C21.9962 20.0849 22.2139 20.2346 22.3251 20.423C22.7561 20.9666 23.0733 21.6127 23.6102 22.0656C23.1528 21.1779 22.6644 20.2435 22.6526 19.2221C22.6633 19.0241 22.6761 18.7246 22.9446 18.7327C23.17 18.6985 23.1344 18.9872 23.2083 19.1248C23.4304 19.8752 23.5273 20.6874 23.9729 21.35C23.8745 20.7933 23.7296 20.22 23.8259 19.6541C23.8481 19.4683 24.0572 19.4121 24.1938 19.5244C24.3042 19.7946 24.3272 20.1282 24.4277 20.4171C25 22.3748 26.285 24.0967 27.9595 25.2522C29.3386 26.198 30.9753 26.7627 32.6457 26.8611C32.7965 26.8743 32.948 26.8788 33.0991 26.8881" fill="#FFEC2D"/>
<path d="M38.76 29.4838C38.8097 29.4838 38.8499 29.4435 38.8499 29.3938C38.8499 29.3441 38.8097 29.3039 38.76 29.3039C38.7103 29.3039 38.67 29.3441 38.67 29.3938C38.67 29.4435 38.7103 29.4838 38.76 29.4838Z" fill="#FFEC2D"/>
<path d="M38.7519 29.4152C38.7719 29.4152 38.7882 29.399 38.7882 29.379C38.7882 29.359 38.7719 29.3427 38.7519 29.3427C38.7319 29.3427 38.7157 29.359 38.7157 29.379C38.7157 29.399 38.7319 29.4152 38.7519 29.4152Z" fill="#FFEC2D"/>
<path fill-rule="evenodd" clip-rule="evenodd" d="M38.7524 29.3499C38.7362 29.3499 38.723 29.3631 38.723 29.3794C38.723 29.3956 38.7361 29.4088 38.7524 29.4088C38.7687 29.4088 38.7818 29.3956 38.7818 29.3794C38.7818 29.3631 38.7687 29.3499 38.7524 29.3499ZM38.7085 29.3794C38.7085 29.3551 38.7282 29.3354 38.7524 29.3354C38.7767 29.3354 38.7963 29.3551 38.7963 29.3794C38.7963 29.4036 38.7767 29.4233 38.7524 29.4233C38.7282 29.4233 38.7085 29.4036 38.7085 29.3794Z" fill="#FFEC2D"/>
<path d="M4.55997 4.7711C4.55997 4.7711 4.19479 4.46421 4.07075 4.61815C3.87125 4.86572 4.68407 6.09893 4.68407 6.5332C4.68407 7.24604 4.20843 7.43988 3.6211 7.54168C3.227 7.61001 2.58526 7.51311 2.58526 7.51311C2.7061 7.35073 2.78468 7.30289 2.98829 7.28993C2.76162 7.17225 2.5308 6.91677 2.5308 6.51914C2.5308 5.90589 2.78324 5.65312 2.78324 4.96178C2.78324 4.57825 2.46875 4.09003 2.46875 4.09003C3.02465 4.14566 3.30015 4.66037 3.1434 5.07172C3.23187 5.08445 3.3122 5.0645 3.38121 4.99914C3.42187 5.11314 3.35765 5.24549 3.27165 5.35953C3.34093 5.39654 3.39181 5.37435 3.50216 5.35155C3.49167 5.46905 3.4213 5.59384 3.24908 5.71133C3.74882 5.58157 4.05631 5.92987 4.05631 6.29452C4.05631 6.56995 3.86331 6.76735 3.67464 6.76735C3.61369 6.76735 3.52412 6.74224 3.47362 6.7045C3.43798 6.78031 3.45633 6.88177 3.493 6.95758C3.35476 6.92103 3.26698 6.83891 3.32945 6.66798C3.22324 6.65822 3.13877 6.62235 3.08131 6.55398C3.13953 6.47939 3.22788 6.43645 3.32945 6.43995C3.25212 6.28035 3.3383 6.19105 3.46389 6.11862C3.46389 6.11862 3.38402 6.43995 3.58796 6.43995C3.67966 6.43995 3.76322 6.41008 3.76322 6.27491C3.76322 6.15723 3.66035 5.99421 3.42251 6.00458C3.18467 6.01496 2.9919 6.16855 2.9919 6.54821C2.9919 6.89842 3.27439 7.07261 3.64664 7.08386C3.98229 7.09423 4.23564 6.9124 4.23564 6.56611C4.23564 6.10524 3.57033 5.05473 3.57033 4.64407C3.57033 4.33589 3.84743 4.1639 4.11856 4.1639C4.47013 4.1639 4.76676 4.51202 4.76676 4.51202L4.56023 4.77099L4.55997 4.7711Z" fill="#FFEC2D"/>
<path d="M4.6368 13.1013C4.6368 13.8716 3.94528 14.2675 3.40188 14.2675C2.66977 14.2675 2.27997 13.8297 2.27997 13.2567C2.27997 12.9319 2.33948 12.7281 2.48923 12.4172L4.16705 8.93442C4.22568 8.81327 4.24461 8.67533 4.24461 8.47317C4.24461 8.16093 3.94175 7.90572 3.62418 7.89789C3.3347 7.89067 3.0193 8.16777 3.0193 8.48355C3.0193 8.86708 3.21826 9.03808 3.42255 9.03808C3.67396 9.03808 3.77413 8.93472 3.77413 8.75821C3.77413 8.6352 3.71473 8.582 3.62935 8.582C3.41374 8.582 3.47427 8.87225 3.47427 8.87225C3.36719 8.8488 3.27918 8.73936 3.32949 8.60271C3.24818 8.58475 3.17478 8.54115 3.12011 8.47834C3.17791 8.42229 3.24422 8.37905 3.32949 8.36434C3.27899 8.1976 3.34648 8.11616 3.49236 8.08189C3.46291 8.14599 3.46192 8.20501 3.47169 8.26068C3.70132 8.19535 4.05331 8.29928 4.05331 8.696C4.05331 9.08987 3.77994 9.42154 3.26744 9.33866C3.38934 9.39695 3.45136 9.51623 3.4639 9.64961C3.3708 9.61336 3.26744 9.60819 3.26744 9.60819C3.32736 9.71383 3.41058 9.80492 3.40701 10.0124C3.31201 9.96919 3.22374 9.8892 3.10198 9.93982C3.29312 10.3159 3.05828 10.8333 2.46089 10.9557C2.67954 10.6994 2.78658 10.4226 2.78658 10.1471C2.78658 9.2543 2.53844 9.10424 2.53844 8.48351C2.53844 8.22378 2.67194 7.94334 2.93653 7.75273V7.7631C2.76166 7.71625 2.64963 7.63014 2.58522 7.51314C2.98479 7.39982 3.56562 7.40191 3.87745 7.52462C4.23594 7.56615 4.48621 7.84116 4.55993 7.98077C4.63365 8.12038 4.77687 8.62498 4.55993 9.07942L2.85381 12.6969C2.77978 12.8552 2.73487 13.0231 2.73487 13.2049C2.73487 13.662 3.15363 13.8216 3.39151 13.8216C3.67586 13.8216 3.96538 13.605 3.96538 13.3344C3.96538 13.163 3.87228 13.0598 3.73788 13.0598C3.41647 13.0598 3.436 13.3332 3.50007 13.5055C3.30004 13.4155 3.18376 13.255 3.21572 13.0857C3.10248 13.0701 2.99467 13.0165 2.89519 12.9043C2.97347 12.8055 3.06892 12.7307 3.21572 12.7281C3.15161 12.4654 3.32744 12.3543 3.50007 12.2927C3.44547 12.4855 3.40963 12.7074 3.73788 12.7074C3.97728 12.7074 4.16568 12.7488 4.27558 12.9043L4.30142 11.8781C4.31525 11.5704 3.88957 11.5792 3.61901 11.6708C3.72112 11.3164 3.93054 11.1247 4.41519 11.1733C4.29754 11.1241 4.17218 11.0134 4.17218 10.8001C4.17225 10.5116 4.40633 10.1919 4.56001 10.0974L4.63684 13.1013L4.6368 13.1013Z" fill="#FFEC2D"/>
<path d="M4.6368 15.4116C4.6368 14.6413 3.94528 14.2454 3.40188 14.2454C2.66977 14.2454 2.27997 14.6831 2.27997 15.2562C2.27997 15.581 2.33948 15.7848 2.48923 16.0956L4.16705 19.5785C4.22568 19.6996 4.24461 19.8375 4.24461 20.0397C4.24461 20.352 3.94175 20.6072 3.62418 20.615C3.3347 20.6222 3.0193 20.3451 3.0193 20.0293C3.0193 19.6458 3.21826 19.4748 3.42255 19.4748C3.67396 19.4748 3.77413 19.5782 3.77413 19.7547C3.77413 19.8777 3.71473 19.9309 3.62935 19.9309C3.41374 19.9309 3.47427 19.6406 3.47427 19.6406C3.36719 19.6641 3.27918 19.7735 3.32949 19.9102C3.24818 19.9281 3.17478 19.9717 3.12011 20.0345C3.17791 20.0906 3.24422 20.1338 3.32949 20.1485C3.27899 20.3153 3.34648 20.3967 3.49236 20.431C3.46291 20.3669 3.46192 20.3079 3.47169 20.2522C3.70132 20.3175 4.05331 20.2136 4.05331 19.8169C4.05331 19.423 3.77994 19.0913 3.26744 19.1742C3.38934 19.1159 3.45136 18.9966 3.4639 18.8633C3.3708 18.8995 3.26744 18.9047 3.26744 18.9047C3.32736 18.799 3.41058 18.708 3.40701 18.5005C3.31201 18.5437 3.22374 18.6237 3.10198 18.5731C3.29312 18.1969 3.05828 17.6796 2.46089 17.5572C2.67954 17.8135 2.78658 18.0902 2.78658 18.3657C2.78658 19.2586 2.53844 19.4086 2.53844 20.0294C2.53844 20.2891 2.67194 20.5695 2.93653 20.7601V20.7498C2.76166 20.7966 2.64963 20.8827 2.58522 20.9997C2.98479 21.1131 3.56562 21.111 3.87745 20.9883C4.23594 20.9467 4.48621 20.6717 4.55993 20.5321C4.63365 20.3925 4.77687 19.8879 4.55993 19.4335L2.85381 15.8159C2.77978 15.6577 2.73487 15.4898 2.73487 15.308C2.73487 14.8509 3.15363 14.6913 3.39151 14.6913C3.67586 14.6913 3.96538 14.9079 3.96538 15.1784C3.96538 15.3499 3.87228 15.4531 3.73788 15.4531C3.41647 15.4531 3.436 15.1797 3.50007 15.0074C3.30004 15.0973 3.18376 15.2579 3.21572 15.4272C3.10248 15.4427 2.99467 15.4964 2.89519 15.6086C2.97347 15.7074 3.06892 15.7821 3.21572 15.7848C3.15161 16.0475 3.32744 16.1585 3.50007 16.2201C3.44547 16.0274 3.40963 15.8055 3.73788 15.8055C3.97728 15.8055 4.16568 15.7641 4.27558 15.6086L4.30142 16.6348C4.31525 16.9425 3.88957 16.9337 3.61901 16.8421C3.72112 17.1965 3.93054 17.3881 4.41519 17.3396C4.29754 17.3888 4.17218 17.4995 4.17218 17.7128C4.17225 18.0013 4.40633 18.321 4.56001 18.4155L4.63684 15.4115L4.6368 15.4116Z" fill="#FFEC2D"/>
<path d="M4.56003 4.77107C4.56003 4.77107 4.92521 4.46418 5.04924 4.61812C5.24874 4.86569 4.43592 6.0989 4.43592 6.53317C4.43592 7.24601 4.91157 7.43985 5.4989 7.54165C5.89299 7.60997 6.53474 7.51307 6.53474 7.51307C6.4139 7.3507 6.33531 7.30286 6.13171 7.2899C6.35838 7.17221 6.58919 6.91674 6.58919 6.51911C6.58919 5.90586 6.33676 5.65309 6.33676 4.96175C6.33676 4.57822 6.65125 4.09 6.65125 4.09C6.09534 4.14563 5.81984 4.66034 5.97659 5.07169C5.88813 5.08442 5.8078 5.06447 5.73879 4.99911C5.69813 5.11311 5.76235 5.24546 5.84834 5.3595C5.77907 5.39651 5.72819 5.37432 5.61784 5.35152C5.62832 5.46902 5.6987 5.59381 5.87092 5.7113C5.37118 5.58153 5.06368 5.92984 5.06368 6.29449C5.06368 6.56991 5.25668 6.76732 5.44535 6.76732C5.5063 6.76732 5.59587 6.74221 5.64637 6.70447C5.68202 6.78028 5.66366 6.88174 5.62699 6.95755C5.76524 6.921 5.85302 6.83888 5.79055 6.66795C5.89676 6.65819 5.98123 6.62232 6.03869 6.55395C5.98047 6.47936 5.89212 6.43642 5.79055 6.43992C5.86788 6.28032 5.78169 6.19102 5.6561 6.11859C5.6561 6.11859 5.73598 6.43992 5.53203 6.43992C5.44034 6.43992 5.35678 6.41005 5.35678 6.27488C5.35678 6.1572 5.45964 5.99418 5.69748 6.00455C5.93533 6.01492 6.1281 6.16852 6.1281 6.54818C6.1281 6.89839 5.84561 7.07258 5.47336 7.08383C5.13771 7.0942 4.88436 6.91237 4.88436 6.56608C4.88436 6.10521 5.54966 5.0547 5.54966 4.64404C5.54966 4.33586 5.27257 4.16387 5.00144 4.16387C4.64986 4.16387 4.35323 4.51199 4.35323 4.51199L4.55976 4.77096L4.56003 4.77107Z" fill="#FFEC2D"/>
<path d="M4.48325 13.1013C4.48325 13.8715 5.17478 14.2674 5.71818 14.2674C6.45028 14.2674 6.84009 13.8297 6.84009 13.2567C6.84009 12.9319 6.78058 12.7281 6.63082 12.4172L4.95301 8.93439C4.89437 8.81324 4.87545 8.6753 4.87545 8.47314C4.87545 8.1609 5.17831 7.90569 5.49588 7.89786C5.78536 7.89064 6.10076 8.16774 6.10076 8.48352C6.10076 8.86705 5.90179 9.03805 5.6975 9.03805C5.4461 9.03805 5.34593 8.93469 5.34593 8.75818C5.34593 8.63517 5.40532 8.58197 5.49071 8.58197C5.70632 8.58197 5.64579 8.87222 5.64579 8.87222C5.75287 8.84877 5.84088 8.73933 5.79057 8.60268C5.87188 8.58472 5.94528 8.54112 5.99995 8.47831C5.94215 8.42226 5.87584 8.37902 5.79057 8.36431C5.84107 8.19757 5.77358 8.11613 5.6277 8.08186C5.65715 8.14596 5.65814 8.20498 5.64837 8.26065C5.41874 8.19532 5.06674 8.29925 5.06674 8.69597C5.06674 9.08984 5.34011 9.42151 5.85262 9.33863C5.73072 9.39692 5.6687 9.5162 5.65616 9.64958C5.74926 9.61333 5.85262 9.60816 5.85262 9.60816C5.79269 9.7138 5.70947 9.80489 5.71305 10.0124C5.80805 9.96916 5.89632 9.88917 6.01807 9.93979C5.82693 10.3159 6.06177 10.8332 6.65917 10.9556C6.44052 10.6993 6.33347 10.4226 6.33347 10.1471C6.33347 9.25427 6.58161 9.10421 6.58161 8.48348C6.58161 8.22375 6.44812 7.94331 6.18352 7.7527V7.76307C6.3584 7.71622 6.47042 7.63011 6.53483 7.51311C6.13526 7.39979 5.55443 7.40188 5.24261 7.52459C4.88411 7.56612 4.63385 7.84113 4.56013 7.98074C4.48641 8.12035 4.34318 8.62495 4.56013 9.07939L6.26625 12.6969C6.34027 12.8552 6.38519 13.0231 6.38519 13.2048C6.38519 13.662 5.96643 13.8216 5.72855 13.8216C5.4442 13.8216 5.15467 13.605 5.15467 13.3344C5.15467 13.163 5.24777 13.0597 5.38218 13.0597C5.70358 13.0597 5.68405 13.3332 5.61998 13.5054C5.82002 13.4155 5.9363 13.2549 5.90434 13.0857C6.01758 13.0701 6.12538 13.0164 6.22487 12.9042C6.14659 12.8054 6.05113 12.7307 5.90434 12.728C5.96844 12.4654 5.79262 12.3543 5.61998 12.2927C5.67459 12.4855 5.71042 12.7073 5.38218 12.7073C5.14278 12.7073 4.95438 12.7488 4.84448 12.9043L4.81864 11.8781C4.80481 11.5704 5.23048 11.5791 5.50104 11.6708C5.39894 11.3163 5.18952 11.1247 4.70487 11.1732C4.82252 11.124 4.94788 11.0133 4.94788 10.8001C4.9478 10.5115 4.71372 10.1919 4.56005 10.0974L4.48321 13.1013L4.48325 13.1013Z" fill="#FFEC2D"/>
<path d="M4.48325 15.4115C4.48325 14.6413 5.17478 14.2454 5.71818 14.2454C6.45028 14.2454 6.84009 14.6831 6.84009 15.2561C6.84009 15.5809 6.78058 15.7847 6.63082 16.0956L4.95301 19.5784C4.89437 19.6996 4.87545 19.8375 4.87545 20.0397C4.87545 20.3519 5.17831 20.6071 5.49588 20.615C5.78536 20.6222 6.10076 20.3451 6.10076 20.0293C6.10076 19.6458 5.90179 19.4748 5.6975 19.4748C5.4461 19.4748 5.34593 19.5781 5.34593 19.7546C5.34593 19.8776 5.40532 19.9308 5.49071 19.9308C5.70632 19.9308 5.64579 19.6406 5.64579 19.6406C5.75287 19.664 5.84088 19.7735 5.79057 19.9101C5.87188 19.9281 5.94528 19.9717 5.99995 20.0345C5.94215 20.0906 5.87584 20.1338 5.79057 20.1485C5.84107 20.3153 5.77358 20.3967 5.6277 20.431C5.65715 20.3669 5.65814 20.3078 5.64837 20.2522C5.41874 20.3175 5.06674 20.2136 5.06674 19.8168C5.06674 19.423 5.34011 19.0913 5.85262 19.1742C5.73072 19.1159 5.6687 18.9966 5.65616 18.8632C5.74926 18.8995 5.85262 18.9047 5.85262 18.9047C5.79269 18.799 5.70947 18.7079 5.71305 18.5004C5.80805 18.5437 5.89632 18.6236 6.01807 18.573C5.82693 18.1969 6.06177 17.6796 6.65917 17.5572C6.44052 17.8135 6.33347 18.0902 6.33347 18.3657C6.33347 19.2585 6.58161 19.4086 6.58161 20.0293C6.58161 20.2891 6.44812 20.5695 6.18352 20.7601V20.7497C6.3584 20.7966 6.47042 20.8827 6.53483 20.9997C6.13526 21.113 5.55443 21.1109 5.24261 20.9882C4.88411 20.9467 4.63385 20.6717 4.56013 20.5321C4.48641 20.3925 4.34318 19.8879 4.56013 19.4334L6.26625 15.8159C6.34027 15.6576 6.38519 15.4897 6.38519 15.308C6.38519 14.8509 5.96643 14.6913 5.72855 14.6913C5.4442 14.6913 5.15467 14.9079 5.15467 15.1784C5.15467 15.3498 5.24777 15.4531 5.38218 15.4531C5.70358 15.4531 5.68405 15.1797 5.61998 15.0074C5.82002 15.0973 5.9363 15.2579 5.90434 15.4272C6.01758 15.4427 6.12538 15.4964 6.22487 15.6086C6.14659 15.7074 6.05113 15.7821 5.90434 15.7848C5.96844 16.0474 5.79262 16.1585 5.61998 16.2201C5.67459 16.0273 5.71042 15.8055 5.38218 15.8055C5.14278 15.8055 4.95438 15.764 4.84448 15.6085L4.81864 16.6347C4.80481 16.9424 5.23048 16.9337 5.50104 16.8421C5.39894 17.1965 5.18952 17.3881 4.70487 17.3396C4.82252 17.3888 4.94788 17.4995 4.94788 17.7127C4.9478 18.0013 4.71372 18.3209 4.56005 18.4154L4.48321 15.4115L4.48325 15.4115Z" fill="#FFEC2D"/>
<path d="M4.55997 37.2289C4.55997 37.2289 4.19479 37.5358 4.07075 37.3818C3.87125 37.1343 4.68407 35.9011 4.68407 35.4668C4.68407 34.754 4.20843 34.5601 3.6211 34.4583C3.227 34.39 2.58526 34.4869 2.58526 34.4869C2.7061 34.6493 2.78468 34.6971 2.98829 34.7101C2.76162 34.8278 2.5308 35.0832 2.5308 35.4809C2.5308 36.0941 2.78324 36.3469 2.78324 37.0382C2.78324 37.4217 2.46875 37.91 2.46875 37.91C3.02465 37.8543 3.30015 37.3396 3.1434 36.9283C3.23187 36.9156 3.3122 36.9355 3.38121 37.0009C3.42187 36.8869 3.35765 36.7545 3.27165 36.6405C3.34093 36.6035 3.39181 36.6256 3.50216 36.6484C3.49167 36.531 3.4213 36.4062 3.24908 36.2887C3.74882 36.4184 4.05631 36.0701 4.05631 35.7055C4.05631 35.4301 3.86331 35.2326 3.67464 35.2326C3.61369 35.2326 3.52412 35.2578 3.47362 35.2955C3.43798 35.2197 3.45633 35.1182 3.493 35.0424C3.35476 35.079 3.26698 35.1611 3.32945 35.332C3.22324 35.3418 3.13877 35.3777 3.08131 35.446C3.13953 35.5206 3.22788 35.5635 3.32945 35.5601C3.25212 35.7197 3.3383 35.809 3.46389 35.8814C3.46389 35.8814 3.38402 35.5601 3.58796 35.5601C3.67966 35.5601 3.76322 35.5899 3.76322 35.7251C3.76322 35.8428 3.66035 36.0058 3.42251 35.9954C3.18467 35.985 2.9919 35.8314 2.9919 35.4518C2.9919 35.1016 3.27439 34.9274 3.64664 34.9161C3.98229 34.9058 4.23564 35.0876 4.23564 35.4339C4.23564 35.8948 3.57033 36.9453 3.57033 37.3559C3.57033 37.6641 3.84743 37.8361 4.11856 37.8361C4.47013 37.8361 4.76676 37.488 4.76676 37.488L4.56023 37.229L4.55997 37.2289Z" fill="#FFEC2D"/>
<path d="M4.6368 28.8986C4.6368 28.1284 3.94528 27.7325 3.40188 27.7325C2.66977 27.7325 2.27997 28.1702 2.27997 28.7432C2.27997 29.068 2.33948 29.2718 2.48923 29.5827L4.16705 33.0655C4.22568 33.1867 4.24461 33.3246 4.24461 33.5268C4.24461 33.839 3.94175 34.0942 3.62418 34.102C3.3347 34.1093 3.0193 33.8322 3.0193 33.5164C3.0193 33.1329 3.21826 32.9619 3.42255 32.9619C3.67396 32.9619 3.77413 33.0652 3.77413 33.2417C3.77413 33.3647 3.71473 33.4179 3.62935 33.4179C3.41374 33.4179 3.47427 33.1277 3.47427 33.1277C3.36719 33.1511 3.27918 33.2606 3.32949 33.3972C3.24818 33.4152 3.17478 33.4588 3.12011 33.5216C3.17791 33.5776 3.24422 33.6209 3.32949 33.6356C3.27899 33.8023 3.34648 33.8838 3.49236 33.9181C3.46291 33.8539 3.46192 33.7949 3.47169 33.7393C3.70132 33.8046 4.05331 33.7007 4.05331 33.3039C4.05331 32.9101 3.77994 32.5784 3.26744 32.6613C3.38934 32.603 3.45136 32.4837 3.4639 32.3503C3.3708 32.3866 3.26744 32.3917 3.26744 32.3917C3.32736 32.2861 3.41058 32.195 3.40701 31.9875C3.31201 32.0307 3.22374 32.1107 3.10198 32.0601C3.29312 31.684 3.05828 31.1667 2.46089 31.0443C2.67954 31.3006 2.78658 31.5773 2.78658 31.8528C2.78658 32.7456 2.53844 32.8957 2.53844 33.5164C2.53844 33.7762 2.67194 34.0566 2.93653 34.2472V34.2368C2.76166 34.2837 2.64963 34.3698 2.58522 34.4868C2.98479 34.6001 3.56562 34.598 3.87745 34.4753C4.23594 34.4338 4.48621 34.1588 4.55993 34.0192C4.63365 33.8796 4.77687 33.375 4.55993 32.9205L2.85381 29.303C2.77978 29.1447 2.73487 28.9768 2.73487 28.7951C2.73487 28.3379 3.15363 28.1783 3.39151 28.1783C3.67586 28.1783 3.96538 28.3949 3.96538 28.6655C3.96538 28.8369 3.87228 28.9402 3.73788 28.9402C3.41647 28.9402 3.436 28.6668 3.50007 28.4945C3.30004 28.5844 3.18376 28.745 3.21572 28.9143C3.10248 28.9298 2.99467 28.9835 2.89519 29.0957C2.97347 29.1945 3.06892 29.2692 3.21572 29.2719C3.15161 29.5345 3.32744 29.6456 3.50007 29.7072C3.44547 29.5144 3.40963 29.2926 3.73788 29.2926C3.97728 29.2926 4.16568 29.2511 4.27558 29.0956L4.30142 30.1218C4.31525 30.4295 3.88957 30.4208 3.61901 30.3291C3.72112 30.6836 3.93054 30.8752 4.41519 30.8267C4.29754 30.8759 4.17218 30.9866 4.17218 31.1998C4.17225 31.4884 4.40633 31.808 4.56001 31.9025L4.63684 28.8986L4.6368 28.8986Z" fill="#FFEC2D"/>
<path d="M4.6368 26.5884C4.6368 27.3587 3.94528 27.7545 3.40188 27.7545C2.66977 27.7545 2.27997 27.3168 2.27997 26.7438C2.27997 26.419 2.33948 26.2152 2.48923 25.9043L4.16705 22.4215C4.22568 22.3004 4.24461 22.1624 4.24461 21.9603C4.24461 21.648 3.94175 21.3928 3.62418 21.385C3.3347 21.3778 3.0193 21.6549 3.0193 21.9706C3.0193 22.3542 3.21826 22.5252 3.42255 22.5252C3.67396 22.5252 3.77413 22.4218 3.77413 22.2453C3.77413 22.1223 3.71473 22.0691 3.62935 22.0691C3.41374 22.0691 3.47427 22.3593 3.47427 22.3593C3.36719 22.3359 3.27918 22.2265 3.32949 22.0898C3.24818 22.0718 3.17478 22.0282 3.12011 21.9654C3.17791 21.9094 3.24422 21.8661 3.32949 21.8514C3.27899 21.6847 3.34648 21.6033 3.49236 21.569C3.46291 21.6331 3.46192 21.6921 3.47169 21.7478C3.70132 21.6824 4.05331 21.7864 4.05331 22.1831C4.05331 22.577 3.77994 22.9086 3.26744 22.8258C3.38934 22.884 3.45136 23.0033 3.4639 23.1367C3.3708 23.1005 3.26744 23.0953 3.26744 23.0953C3.32736 23.2009 3.41058 23.292 3.40701 23.4995C3.31201 23.4563 3.22374 23.3763 3.10198 23.4269C3.29312 23.803 3.05828 24.3204 2.46089 24.4428C2.67954 24.1865 2.78658 23.9097 2.78658 23.6342C2.78658 22.7414 2.53844 22.5913 2.53844 21.9706C2.53844 21.7109 2.67194 21.4304 2.93653 21.2398V21.2502C2.76166 21.2033 2.64963 21.1172 2.58522 21.0002C2.98479 20.8869 3.56562 20.889 3.87745 21.0117C4.23594 21.0532 4.48621 21.3282 4.55993 21.4679C4.63365 21.6075 4.77687 22.1121 4.55993 22.5665L2.85381 26.184C2.77978 26.3423 2.73487 26.5102 2.73487 26.6919C2.73487 27.1491 3.15363 27.3087 3.39151 27.3087C3.67586 27.3087 3.96538 27.0921 3.96538 26.8215C3.96538 26.6501 3.87228 26.5469 3.73788 26.5469C3.41647 26.5469 3.436 26.8203 3.50007 26.9926C3.30004 26.9026 3.18376 26.7421 3.21572 26.5728C3.10248 26.5572 2.99467 26.5035 2.89519 26.3914C2.97347 26.2926 3.06892 26.2178 3.21572 26.2152C3.15161 25.9525 3.32744 25.8414 3.50007 25.7798C3.44547 25.9726 3.40963 26.1945 3.73788 26.1945C3.97728 26.1945 4.16568 26.2359 4.27558 26.3914L4.30142 25.3652C4.31525 25.0575 3.88957 25.0663 3.61901 25.1579C3.72112 24.8035 3.93054 24.6118 4.41519 24.6604C4.29754 24.6111 4.17218 24.5004 4.17218 24.2872C4.17225 23.9987 4.40633 23.679 4.56001 23.5845L4.63684 26.5884L4.6368 26.5884Z" fill="#FFEC2D"/>
<path d="M4.56003 37.229C4.56003 37.229 4.92521 37.5358 5.04924 37.3819C5.24874 37.1343 4.43592 35.9011 4.43592 35.4669C4.43592 34.754 4.91157 34.5602 5.4989 34.4584C5.89299 34.3901 6.53474 34.487 6.53474 34.487C6.4139 34.6493 6.33531 34.6972 6.13171 34.7101C6.35838 34.8278 6.58919 35.0833 6.58919 35.4809C6.58919 36.0942 6.33676 36.3469 6.33676 37.0383C6.33676 37.4218 6.65125 37.91 6.65125 37.91C6.09534 37.8544 5.81984 37.3397 5.97659 36.9283C5.88813 36.9156 5.8078 36.9356 5.73879 37.0009C5.69813 36.8869 5.76235 36.7546 5.84834 36.6405C5.77907 36.6035 5.72819 36.6257 5.61784 36.6485C5.62832 36.531 5.6987 36.4062 5.87092 36.2887C5.37118 36.4185 5.06368 36.0702 5.06368 35.7055C5.06368 35.4301 5.25668 35.2327 5.44535 35.2327C5.5063 35.2327 5.59587 35.2578 5.64637 35.2956C5.68202 35.2197 5.66366 35.1183 5.62699 35.0425C5.76524 35.079 5.85302 35.1612 5.79055 35.3321C5.89676 35.3418 5.98123 35.3777 6.03869 35.4461C5.98047 35.5207 5.89212 35.5636 5.79055 35.5601C5.86788 35.7197 5.78169 35.809 5.6561 35.8814C5.6561 35.8814 5.73598 35.5601 5.53203 35.5601C5.44034 35.5601 5.35678 35.59 5.35678 35.7251C5.35678 35.8428 5.45964 36.0059 5.69748 35.9955C5.93533 35.9851 6.1281 35.8315 6.1281 35.4519C6.1281 35.1016 5.84561 34.9275 5.47336 34.9162C5.13771 34.9058 4.88436 35.0877 4.88436 35.434C4.88436 35.8948 5.54966 36.9453 5.54966 37.356C5.54966 37.6642 5.27257 37.8362 5.00144 37.8362C4.64986 37.8362 4.35323 37.488 4.35323 37.488L4.55976 37.2291L4.56003 37.229Z" fill="#FFEC2D"/>
<path d="M4.48325 28.8987C4.48325 28.1284 5.17478 27.7325 5.71818 27.7325C6.45028 27.7325 6.84009 28.1703 6.84009 28.7433C6.84009 29.0681 6.78058 29.2719 6.63082 29.5828L4.95301 33.0656C4.89437 33.1867 4.87545 33.3247 4.87545 33.5268C4.87545 33.8391 5.17831 34.0943 5.49588 34.1021C5.78536 34.1093 6.10076 33.8322 6.10076 33.5165C6.10076 33.1329 5.90179 32.9619 5.6975 32.9619C5.4461 32.9619 5.34593 33.0653 5.34593 33.2418C5.34593 33.3648 5.40532 33.418 5.49071 33.418C5.70632 33.418 5.64579 33.1278 5.64579 33.1278C5.75287 33.1512 5.84088 33.2606 5.79057 33.3973C5.87188 33.4152 5.94528 33.4588 5.99995 33.5217C5.94215 33.5777 5.87584 33.621 5.79057 33.6357C5.84107 33.8024 5.77358 33.8838 5.6277 33.9181C5.65715 33.854 5.65814 33.795 5.64837 33.7393C5.41874 33.8046 5.06674 33.7007 5.06674 33.304C5.06674 32.9101 5.34011 32.5785 5.85262 32.6613C5.73072 32.603 5.6687 32.4838 5.65616 32.3504C5.74926 32.3866 5.85262 32.3918 5.85262 32.3918C5.79269 32.2862 5.70947 32.1951 5.71305 31.9876C5.80805 32.0308 5.89632 32.1108 6.01807 32.0602C5.82693 31.6841 6.06177 31.1667 6.65917 31.0443C6.44052 31.3006 6.33347 31.5774 6.33347 31.8529C6.33347 32.7457 6.58161 32.8958 6.58161 33.5165C6.58161 33.7762 6.44812 34.0567 6.18352 34.2473V34.2369C6.3584 34.2838 6.47042 34.3699 6.53483 34.4869C6.13526 34.6002 5.55443 34.5981 5.24261 34.4754C4.88411 34.4339 4.63385 34.1588 4.56013 34.0192C4.48641 33.8796 4.34318 33.375 4.56013 32.9206L6.26625 29.3031C6.34027 29.1448 6.38519 28.9769 6.38519 28.7951C6.38519 28.338 5.96643 28.1784 5.72855 28.1784C5.4442 28.1784 5.15467 28.395 5.15467 28.6656C5.15467 28.837 5.24777 28.9402 5.38218 28.9402C5.70358 28.9402 5.68405 28.6668 5.61998 28.4945C5.82002 28.5845 5.9363 28.745 5.90434 28.9143C6.01758 28.9299 6.12538 28.9835 6.22487 29.0957C6.14659 29.1945 6.05113 29.2693 5.90434 29.2719C5.96844 29.5346 5.79262 29.6457 5.61998 29.7073C5.67459 29.5145 5.71042 29.2926 5.38218 29.2926C5.14278 29.2926 4.95438 29.2512 4.84448 29.0957L4.81864 30.1219C4.80481 30.4296 5.23048 30.4208 5.50104 30.3292C5.39894 30.6836 5.18952 30.8753 4.70487 30.8267C4.82252 30.8759 4.94788 30.9866 4.94788 31.1999C4.9478 31.4884 4.71372 31.8081 4.56005 31.9026L4.48321 28.8987L4.48325 28.8987Z" fill="#FFEC2D"/>
<path d="M4.48325 26.5885C4.48325 27.3587 5.17478 27.7546 5.71818 27.7546C6.45028 27.7546 6.84009 27.3169 6.84009 26.7439C6.84009 26.4191 6.78058 26.2153 6.63082 25.9044L4.95301 22.4216C4.89437 22.3004 4.87545 22.1625 4.87545 21.9603C4.87545 21.6481 5.17831 21.3929 5.49588 21.385C5.78536 21.3778 6.10076 21.6549 6.10076 21.9707C6.10076 22.3542 5.90179 22.5252 5.6975 22.5252C5.4461 22.5252 5.34593 22.4219 5.34593 22.2454C5.34593 22.1224 5.40532 22.0692 5.49071 22.0692C5.70632 22.0692 5.64579 22.3594 5.64579 22.3594C5.75287 22.336 5.84088 22.2265 5.79057 22.0899C5.87188 22.0719 5.94528 22.0283 5.99995 21.9655C5.94215 21.9094 5.87584 21.8662 5.79057 21.8515C5.84107 21.6847 5.77358 21.6033 5.6277 21.569C5.65715 21.6331 5.65814 21.6922 5.64837 21.7478C5.41874 21.6825 5.06674 21.7864 5.06674 22.1832C5.06674 22.577 5.34011 22.9087 5.85262 22.8258C5.73072 22.8841 5.6687 23.0034 5.65616 23.1368C5.74926 23.1005 5.85262 23.0953 5.85262 23.0953C5.79269 23.201 5.70947 23.2921 5.71305 23.4996C5.80805 23.4563 5.89632 23.3764 6.01807 23.427C5.82693 23.8031 6.06177 24.3204 6.65917 24.4428C6.44052 24.1865 6.33347 23.9098 6.33347 23.6343C6.33347 22.7415 6.58161 22.5914 6.58161 21.9707C6.58161 21.7109 6.44812 21.4305 6.18352 21.2399V21.2503C6.3584 21.2034 6.47042 21.1173 6.53483 21.0003C6.13526 20.887 5.55443 20.8891 5.24261 21.0118C4.88411 21.0533 4.63385 21.3283 4.56013 21.4679C4.48641 21.6075 4.34318 22.1121 4.56013 22.5666L6.26625 26.1841C6.34027 26.3424 6.38519 26.5103 6.38519 26.692C6.38519 27.1491 5.96643 27.3087 5.72855 27.3087C5.4442 27.3087 5.15467 27.0921 5.15467 26.8216C5.15467 26.6502 5.24777 26.5469 5.38218 26.5469C5.70358 26.5469 5.68405 26.8203 5.61998 26.9926C5.82002 26.9027 5.9363 26.7421 5.90434 26.5728C6.01758 26.5573 6.12538 26.5036 6.22487 26.3914C6.14659 26.2926 6.05113 26.2179 5.90434 26.2152C5.96844 25.9526 5.79262 25.8415 5.61998 25.7799C5.67459 25.9727 5.71042 26.1945 5.38218 26.1945C5.14278 26.1945 4.95438 26.236 4.84448 26.3915L4.81864 25.3653C4.80481 25.0576 5.23048 25.0663 5.50104 25.1579C5.39894 24.8035 5.18952 24.6119 4.70487 24.6604C4.82252 24.6112 4.94788 24.5005 4.94788 24.2873C4.9478 23.9987 4.71372 23.6791 4.56005 23.5846L4.48321 26.5885L4.48325 26.5885Z" fill="#FFEC2D"/>
</g>
<defs>
<clipPath id="clip0_37941_2275">
<rect width="64" height="42" rx="5" fill="white"/>
</clipPath>
</defs>
</svg>
