<svg xmlns="http://www.w3.org/2000/svg" width="64" height="42" fill="none" viewBox="0 0 64 42"><g clip-path="url(#a)"><rect width="64" height="42" fill="#fff" rx="5"/><path fill="url(#b)" fill-rule="evenodd" d="m0 .0001 67.9606-1.0619L0 42.0001z" clip-rule="evenodd"/><path fill="#2c7442" fill-rule="evenodd" d="m61.454.2424-58.8 42h58.8L72.0889-.2424z" clip-rule="evenodd"/><path fill="#ffd646" d="M-5.8247 41.382 52.5804 1.9872l27.9871 41.4926-58.4051 39.3948z"/><path fill="#fff" fill-rule="evenodd" d="m4.2426 9.1316.393-2.2908-1.6644-1.6223 2.3-.3342L6.3 2.8l1.0286 2.0842 2.3.3342-1.6643 1.6223.393 2.2908L6.3 8.05zm16.0575-1.0815-2.0573 1.0815.3929-2.2908-1.6643-1.6223 2.3-.3342L20.3001 2.8l1.0286 2.0842 2.3001.3342-1.6644 1.6223.3929 2.2908zm-2.0573 9.4815 2.0573-1.0816 2.0572 1.0816-.3929-2.2908 1.6644-1.6223-2.3001-.3342L20.3001 11.2l-1.0287 2.0843-2.3.3342 1.6643 1.6223zm-14.0002 0 .393-2.2908-1.6644-1.6223 2.3-.3342L6.3 11.2l1.0286 2.0843 2.3.3342-1.6643 1.6223.393 2.2908L6.2998 16.45zm7.3928-6.4908-.3929 2.2908 2.0572-1.0816 2.0573 1.0816-.3929-2.2908 1.6643-1.6223-2.3001-.3342L13.2997 7l-1.0286 2.0843-2.3.3342z" clip-rule="evenodd"/></g><defs><linearGradient id="b" x1="0" x2="0" y1="0" y2="42" gradientUnits="userSpaceOnUse"><stop stop-color="#0660d4"/><stop offset="1" stop-color="#0051bb"/></linearGradient><clipPath id="a"><rect width="64" height="42" fill="#fff" rx="5"/></clipPath></defs></svg>