<svg xmlns="http://www.w3.org/2000/svg" width="64" height="42" fill="none" viewBox="0 0 64 42"><g clip-path="url(#a)"><rect width="64" height="42" fill="#fff" rx="5"/><path fill="#fff" fill-rule="evenodd" d="M0 41.9999h64v-14H0z" clip-rule="evenodd"/><mask id="b" fill="#fff"><path d="M0 19.4243h64v17.5756c0 2.7614-2.2386 5-5 5H5c-2.7614 0-5-2.2386-5-5z"/></mask><path stroke="#f5f5f5" stroke-width="2" d="M0 19.4243h64v17.5756c0 2.7614-2.2386 5-5 5H5c-2.7614 0-5-2.2386-5-5z" mask="url(#b)"/><path fill="#17508f" fill-rule="evenodd" d="M0 27.9999h64v-14H0z" clip-rule="evenodd"/><path fill="#e1444d" fill-rule="evenodd" d="M0 14h64V0H0z" clip-rule="evenodd"/><g clip-path="url(#c)"><path fill="#fff" fill-rule="evenodd" d="M12.6 20.9999c0-1.3546.7217-4.3725 1.1287-5.967.1561-.6112.7087-1.033 1.3395-1.033h6.2661c.6296 0 1.1814.4201 1.3381 1.0299.4073 1.5852 1.1276 4.5845 1.1276 5.9701 0 1.5644-1.0507 5.6716-1.3316 6.7419-.0452.1722-.122.3301-.2353.4674-.5366.65-2.2848 2.5907-4.0331 2.5907-1.7494 0-3.4987-1.9431-4.0342-2.5919-.1126-.1365-.1891-.2935-.2343-.4645-.2811-1.0627-1.3315-5.1404-1.3315-6.7436" clip-rule="evenodd"/><mask id="d" width="12" height="18" x="12" y="13" maskUnits="userSpaceOnUse" style="mask-type:luminance"><path fill="#fff" fill-rule="evenodd" d="M12.6 20.9999c0-1.3546.7217-4.3725 1.1287-5.967.1561-.6112.7087-1.033 1.3395-1.033h6.2661c.6296 0 1.1814.4201 1.3381 1.0299.4073 1.5852 1.1276 4.5845 1.1276 5.9701 0 1.5644-1.0507 5.6716-1.3316 6.7419-.0452.1722-.122.3301-.2353.4674-.5366.65-2.2848 2.5907-4.0331 2.5907-1.7494 0-3.4987-1.9431-4.0342-2.5919-.1126-.1365-.1891-.2935-.2343-.4645-.2811-1.0627-1.3315-5.1404-1.3315-6.7436" clip-rule="evenodd"/></mask><g stroke="#e1444d" stroke-linecap="square" stroke-width="3" mask="url(#d)"><path d="m23.8 15.4-11.2 14m0-14 11.2 14"/></g></g></g><defs><clipPath id="a"><rect width="64" height="42" fill="#fff" rx="5"/></clipPath><clipPath id="c"><path fill="#fff" d="M11.2001 13.9999h12.6v16.8h-12.6z"/></clipPath></defs></svg>