<svg xmlns="http://www.w3.org/2000/svg" width="64" height="42" fill="none" viewBox="0 0 64 42"><g clip-path="url(#a)"><rect width="64" height="42" fill="#fff" rx="5"/><path fill="#0c4799" fill-rule="evenodd" d="M-1.4 30 61.4 0H-1.4z" clip-rule="evenodd"/><path fill="#ffd243" fill-rule="evenodd" d="m10.3999 12.6-2.143 2.3737.1631-3.1938-3.1938.1631L7.5999 9.8 5.2262 7.657 8.42 7.82l-.163-3.1937L10.3999 7l2.1431-2.3738-.1632 3.1939 3.1939-.1632L13.1999 9.8l2.3738 2.1431-3.1939-.1631.1632 3.1938z" clip-rule="evenodd"/><path fill="#1bac55" fill-rule="evenodd" d="M2.6 41.9999h61.8v-30z" clip-rule="evenodd"/><path fill="#fff" fill-rule="evenodd" d="m9.0729 47.5999 56.8855-35.546L54.9269-5.6002l-56.8855 35.546z" clip-rule="evenodd"/><path fill="#e52347" fill-rule="evenodd" d="M1.2787 48.4512 70.1402 5.4218 62.7214-6.451-6.1401 36.5785z" clip-rule="evenodd"/></g><defs><clipPath id="a"><rect width="64" height="42" fill="#fff" rx="5"/></clipPath></defs></svg>