<svg xmlns="http://www.w3.org/2000/svg" width="64" height="42" fill="none" viewBox="0 0 64 42"><g clip-path="url(#a)"><rect width="64" height="42" fill="#fff" rx="5"/><path fill="#fff" fill-rule="evenodd" d="M0 42h64V28H0z" clip-rule="evenodd"/><mask id="b" fill="#fff"><path fill-rule="evenodd" d="M0 37c0 2.7614 2.2386 5 5 5h54c2.7614 0 5-2.2386 5-5V26.7847c0-2.7615-2.2386-5-5-5H5c-2.7614 0-5 2.2385-5 5z" clip-rule="evenodd"/></mask><path stroke="#f5f5f5" stroke-width="2" d="M0 37c0 2.7614 2.2386 5 5 5h54c2.7614 0 5-2.2386 5-5V26.7847c0-2.7615-2.2386-5-5-5H5c-2.7614 0-5 2.2385-5 5z" clip-rule="evenodd" mask="url(#b)"/><path fill="#262626" fill-rule="evenodd" d="M0 28h64V14H0z" clip-rule="evenodd"/><path fill="#5da8f1" fill-rule="evenodd" d="M0 14h64V0H0z" clip-rule="evenodd"/></g><defs><clipPath id="a"><rect width="64" height="42" fill="#fff" rx="5"/></clipPath></defs></svg>