<svg xmlns="http://www.w3.org/2000/svg" width="64" height="42" fill="none" viewBox="0 0 64 42"><g clip-path="url(#a)"><rect width="64" height="42" fill="#fff" rx="5"/><path fill="#262626" d="M0 0h64v42H0z"/><path fill="#e8283f" fill-rule="evenodd" d="M0 0h64v42z" clip-rule="evenodd"/><path fill="#fff" fill-rule="evenodd" d="m16.6 35-1.98.58.58-1.98-.58-1.98 1.98.58 1.98-.58L18 33.6l.58 1.98zm0-16.8-1.98.58.58-1.98-.58-1.98 1.98.58 1.98-.58L18 16.8l.58 1.98zm-7 7-1.98.58.58-1.98-.58-1.98 1.98.58 1.98-.58L11 23.8l.58 1.98zm12.6-1.4-1.98.58.58-1.98-.58-1.98 1.98.58 1.98-.58-.58 1.98.58 1.98z" clip-rule="evenodd"/><path fill="#ffd84e" fill-rule="evenodd" d="M42.2087 19.4576c-.3352-.2012-.6069-.6749-.6069-1.054v-2.5803c0-.3809-.2741-.5984-.6888-.4601l-1.5923.5307c-.3804.1268-.9629.1383-1.3776 0l-1.5922-.5307c-.3804-.1268-.4227-.3893-.0819-.5938l3.7359-2.2415c.3352-.2011.5156-.6382.3773-1.053l-.5307-1.5922c-.1268-.3804.0444-.5975.4592-.4592l1.5922.5307c.3804.1268.8485-.0365 1.053-.3773l2.2415-3.7359c.2011-.3352.4555-.3328.5938.0819l.5307 1.5922c.1268.3804.1383.963 0 1.3776l-.5307 1.5923c-.1268.3804.0811.6888.4601.6888h2.5803c.3809 0 .8494.2661 1.0539.6069l2.2415 3.7359c.2012.3352.0394.6719-.324.7446l-3.5733.7146c-.3801.0761-.7532.4625-.8259.8259l-.7146 3.5733c-.0761.3801-.4038.5286-.7446.3241z" clip-rule="evenodd"/></g><defs><clipPath id="a"><rect width="64" height="42" fill="#fff" rx="5"/></clipPath></defs></svg>