<svg xmlns="http://www.w3.org/2000/svg" width="64" height="42" fill="none" viewBox="0 0 64 42"><g clip-path="url(#a)"><rect width="64" height="42" fill="#fff" rx="5"/><path fill="#d9101c" fill-rule="evenodd" d="M0 14h64V0H0z" clip-rule="evenodd"/><path fill="#0f7811" fill-rule="evenodd" d="M0 42h64V28H0z" clip-rule="evenodd"/><path fill="#fad14e" fill-rule="evenodd" d="M29.2001 19.5999c.7732 0 1.4-.6268 1.4-1.4s-.6268-1.4-1.4-1.4-1.4.6268-1.4 1.4.6268 1.4 1.4 1.4M32.0002 25.2l.0156-.0002h2.7843c.7732 0 1.4-.6268 1.4-1.4s-.6268-1.4-1.4-1.4h-1.3999c-.0001-1.5463-.6269-2.7998-1.4-2.7998-.7732 0-1.4 1.2535-1.4 2.7998h-1.4001c-.7732 0-1.4.6268-1.4 1.4s.6268 1.4 1.4 1.4h2.7844zm2.8001-5.6001c.7732 0 1.4-.6268 1.4-1.4s-.6268-1.4-1.4-1.4-1.4.6268-1.4 1.4.6268 1.4 1.4 1.4M41.8002 21c0 .7732-.6268 1.4-1.4 1.4s-1.4-.6268-1.4-1.4.6268-1.4 1.4-1.4 1.4.6268 1.4 1.4m-18.2 1.4c.7732 0 1.4-.6268 1.4-1.4s-.6268-1.4-1.4-1.4-1.4.6268-1.4 1.4.6268 1.4 1.4 1.4" clip-rule="evenodd"/></g><defs><clipPath id="a"><rect width="64" height="42" fill="#fff" rx="5"/></clipPath></defs></svg>