<svg xmlns="http://www.w3.org/2000/svg" width="64" height="42" fill="none" viewBox="0 0 64 42"><g clip-path="url(#a)"><rect width="64" height="42" fill="#fff" rx="5"/><path fill="#244aa5" d="M0 0h64v42H0z"/><path fill="#d0a650" d="M32.3348 12.9016c.2591.3024.4326.6046.4326.9721-.2175.1076-.5181.1515-.6916.3459 1.0802-.1516 1.2954 1.1011 2.5053.6257.0439.1735.2174.3249.4325.2595l.1296-.345c.4742-.1296.3446.6476.8649.4961.2593.2163.0858.583.2593.8433 0 .3018.1297.5609.2591.82.1296-.1504.2152-.3667.5181-.3019.2152.2372.3887.4535.4325.7125-.0878.4974-.2173.9288.3008 1.1878v.1515c.347.1515 1.1243-.1515 1.1243.4534-.0441.2164.2151.022.303.1515.2152-.0867.5182-.0427.7772-.0427.2152.4534-.259.7772-.3886 1.1878.2151.2152.1296.6049.0856.8628l-.1296.0648c.3447.0648.7772-.0416 1.0803.1527l.5621.2151c.2591-.1503.5599-.1734.9068-.1503.2591.1944-.0878.5182.1296.6686.3031 0 .5621.044.6038.3031l.0439.0855c.2152-.3886.8212-.1296 1.0803-.4094.4326 0 .5181.4743.7333.7334.0879.6707-.7333.9739-.4742 1.6424-.1735.3237-.5182.5829-.7772.8859.0855.0439.0415.1504.0415.2151-.259.1528-.0415.6061-.3886.6479-.0416.2821-.5598.1734-.3886.4764.3469.4534-.1712.7334-.1712 1.1451-.2175.2382-.65-.2175-.65.2382-.2591.0648-.5182-.2382-.6894.0209-.0878.3031.1712.4094.1296.7125.4303-.044.5599.3886.7334.6477l.4325.4326c-.4325.3446-.9947-.044-1.513.1503-.1295-.0648 0-.236-.1295-.3007-.1296-.1528-.3886-.1528-.6038-.1945.0417.1945-.3469.2591-.1734.4951 0 .0647.0855.2591-.0857.2591-.347.1088-.303-.3007-.6061-.1504-.3886.1504-.0855.7334-.6476.6686.0855.5205-.8629.8652-.2152 1.3186.0855.0857.0416.2591.0416.3886-.3887.347-1.0781.2175-1.5106.0879-.347-.0879-.1296-.5205-.259-.7564-.1296-.2174-.5182-.3678-.5182-.6709-.2593-.1065-.4765-.1733-.65-.3886-.6038.583-1.3392 1.145-2.2023 1.1659-.3886.1943-.606.9739-1.2098.6499-.2371.3888-.9508 0-.9936.56-.2811.1086-.1515.4764-.3238.6476-.0648.4326 0 .8003.3666 1.0596.1515.3237-.3239.3237-.1296.6269.0441.1064 0 .259-.0647.3029-.1296.0648-.1723.1297-.1296.2592-.1075 0-.1514.0647-.2371.1503-.1087.2152-.4534.3238-.6916.4742-.2372.0648-.4106-.1064-.561-.259-.044.2382-.2383.3678-.4754.3678-.3458 0-.281-.3031-.5402-.4326.1076-.3887-.2382-.5599-.1295-.9068.281-.2152.7553-.3678.6257-.8212-.3018-.3656-.1943-.9068-.4962-1.3394-.1943-.1712-.5181-.4302-.4106-.842.2811-.3238 0-.7125-.1514-1.0572-.0648-.2821-.2372-.5412-.2372-.8651-.4753-.2799-.4973-1.0155-1.167-1.0803-.4753 0-.561-.6038-1.0363-.5621-.0439-.0856-.1515-.1503-.2383-.236-.3446.236-.7772-.0647-1.2087.0416-.281-.4742.2371-1.1219-.5193-1.4042v-.3006c.0868.0415.1296-.0441.1515-.088.0429-.3238-.5401-.3655-.3018-.7333-.1296-.1087-.2811-.1527-.1943-.3678-.325-.6686-1.2966-.6038-1.5129-1.2746.1735-.1503.1735-.3031.2383-.4325-.1516-.2592-.1943-.5391-.1516-.819.1516-.044.2372-.2382.3239-.3909-.1943-.1295-.4315-.3238-.6477-.2591-.3886-.0647-.6698-.3655-1.0156-.539-.0867-.0856-.0427-.2382-.0427-.3447.4753-.1527-.0647-.8224.5182-.7356.1515-.1943.4753-.2591.7125-.4106.2383-.0427.4326.044.6697.1088.1943.2579.5401.1504.7344.3666.1943-.0439.4326-.1516.6697-.0439 0-.3667.1724-.583.4325-.8421.0429-.1504.28-.2591.4743-.3447.3679.0856.7993.0856 1.0595-.1735.1724.1086.3239-.1076.5182-.1076.237-.0439.4314.0208.6049.1296.0208-.4326.7772-.0648.9288-.583.1724-.3459-.4754-.4754-.4326-.7784-.1076-.3459.1515-.5182.281-.7553.1515-.0648.3239-.1515.5182-.1088.4973-.1723.1087-1.1878.908-.82 0 .1077-.044.2371.0208.2591.281 0 .3242-.3241.5193-.4325.0856-.3019-.1086-.6697.1504-.9069.1296-.0219.2382-.0647.3239-.1734 0-.2372-.1296-.3666-.3239-.5182-.0647.1079-.2371.022-.3455.0648 0-.2591-.1507-.4314-.1947-.6697-.1295-.0648-.1943-.1723-.1503-.3239.1943-.1943 0-.6697.4534-.5619.1724-.1506.4753-.043.6477-.3021.4535-.2591 1.0583-.2591 1.4042-.7344.1514.0219.3238-.1296.4753 0 .0429.2809.4535.1722.4535.4319"/><path fill="#fff" d="m35.679 7.045-.597-1.836-.59 1.836H32.56l1.563 1.135-.597 1.836 1.556-1.135 1.563 1.136-.597-1.836 1.563-1.135zm6.076 1.069-.597-1.828-.59 1.829h-1.932l1.563 1.136-.597 1.836 1.556-1.135 1.563 1.136-.597-1.836 1.563-1.135zm5.795 2.109-.59-1.829-.597 1.829h-1.932l1.563 1.135-.597 1.836 1.563-1.135 1.556 1.135-.597-1.836 1.563-1.135zM29.508 7.045l-.59-1.836-.597 1.836h-1.932l1.563 1.135-.597 1.836 1.563-1.135 1.556 1.136-.597-1.836 1.563-1.135zm-6.076 1.069-.59-1.828-.597 1.829h-1.932l1.563 1.136-.597 1.836 1.563-1.135 1.556 1.136-.597-1.836 1.563-1.135zm-5.795 2.109-.597-1.829-.59 1.829h-1.932l1.563 1.135-.597 1.836 1.556-1.135 1.563 1.135-.597-1.836 1.563-1.135z"/></g><defs><clipPath id="a"><rect width="64" height="42" fill="#fff" rx="5"/></clipPath></defs></svg>