<svg xmlns="http://www.w3.org/2000/svg" width="64" height="42" fill="none" viewBox="0 0 64 42"><g clip-path="url(#a)"><rect width="64" height="42" fill="#fff" rx="5"/><rect width="43" height="32" x="1" y="1" stroke="#f5f5f5" rx="5"/><path fill="#e20f1b" fill-rule="evenodd" d="M64.8 0H33.6v22.4H0V42h64.8z" clip-rule="evenodd"/><path fill="url(#b)" fill-rule="evenodd" d="M14.6999 2.8a.7.7 0 0 0-.7.7v4.9H9.1a.7.7 0 0 0-.7.7v4.2a.7.7 0 0 0 .7.7H14v4.9a.7.7 0 0 0 .7.7h4.2a.7.7 0 0 0 .7-.7V14h4.9a.7.7 0 0 0 .7-.7V9.1a.7.7 0 0 0-.7-.7h-4.9001V3.5a.7.7 0 0 0-.7-.7z" clip-rule="evenodd"/></g><defs><linearGradient id="b" x1="8" x2="8" y1="3" y2="20" gradientUnits="userSpaceOnUse"><stop stop-color="#df101b"/><stop offset="1" stop-color="#c00711"/></linearGradient><clipPath id="a"><rect width="64" height="42" fill="#fff" rx="5"/></clipPath></defs></svg>