<svg xmlns="http://www.w3.org/2000/svg" width="64" height="42" fill="none" viewBox="0 0 64 42"><g clip-path="url(#a)"><rect width="64" height="42" fill="#fff" rx="5"/><mask id="b" fill="#fff"><path d="M30.2858 0H59c2.7614 0 5 2.2386 5 5v32c0 2.7614-2.2386 5-5 5H30.2858z"/></mask><path fill="#fff" stroke="#f5f5f5" stroke-width="2" d="M30.2858 0H59c2.7614 0 5 2.2386 5 5v32c0 2.7614-2.2386 5-5 5H30.2858z" mask="url(#b)"/><path fill="#048345" fill-rule="evenodd" d="M0 42h32V0H0z" clip-rule="evenodd"/><path fill="#e81b42" fill-rule="evenodd" d="m36.3999 23.184-3.2916 2.3465 1.2145-3.8556-3.2488-2.4054 4.0422-.0364L36.3999 15.4l1.2837 3.8331 4.0422.0364-3.2488 2.4054 1.2145 3.8556z" clip-rule="evenodd"/><path fill="#e81b42" fill-rule="evenodd" d="M37.1282 11.7994c-1.4892-.709-3.1738-1.1085-4.9577-1.1085-6.0635 0-10.979 4.6156-10.979 10.3091s4.9155 10.3091 10.979 10.3091c1.7839 0 3.4684-.3995 4.9577-1.1084-2.159 2.1084-5.0607 3.3993-8.2513 3.3993C22.2071 33.6 16.8 27.9588 16.8 21S22.2071 8.4 28.8769 8.4c3.1907 0 6.0923 1.2909 8.2513 3.3994" clip-rule="evenodd"/></g><defs><clipPath id="a"><rect width="64" height="42" fill="#fff" rx="5"/></clipPath></defs></svg>