<svg xmlns="http://www.w3.org/2000/svg" width="64" height="42" fill="none" viewBox="0 0 64 42"><g clip-path="url(#a)"><rect width="64" height="42" fill="#fff" rx="5"/><path fill="#07319c" d="M0 0h64v42H0z"/><mask id="b" fill="#fff"><path fill-rule="evenodd" d="M38 21.8v-7.0018C38 13.2518 39.2536 12 40.8 12h8.4c1.5464 0 2.8 1.2518 2.8 2.7982V21.8c0 7-7 9.8-7 9.8s-7-2.8-7-9.8" clip-rule="evenodd"/></mask><path fill="#ffd033" fill-rule="evenodd" stroke="#fff" stroke-width="3" d="M38 21.8v-7.0018C38 13.2518 39.2536 12 40.8 12h8.4c1.5464 0 2.8 1.2518 2.8 2.7982V21.8c0 7-7 9.8-7 9.8s-7-2.8-7-9.8Z" clip-rule="evenodd" mask="url(#b)"/><mask id="d" width="14" height="20" x="38" y="12" maskUnits="userSpaceOnUse" style="mask-type:luminance"><mask id="c" fill="#fff"><path fill-rule="evenodd" d="M38 21.8v-7.0018C38 13.2518 39.2536 12 40.8 12h8.4c1.5464 0 2.8 1.2518 2.8 2.7982V21.8c0 7-7 9.8-7 9.8s-7-2.8-7-9.8" clip-rule="evenodd"/></mask><path fill="#fff" fill-rule="evenodd" stroke="#fff" stroke-width="3" d="M38 21.8v-7.0018C38 13.2518 39.2536 12 40.8 12h8.4c1.5464 0 2.8 1.2518 2.8 2.7982V21.8c0 7-7 9.8-7 9.8s-7-2.8-7-9.8Z" clip-rule="evenodd" mask="url(#c)"/></mask><g mask="url(#d)"><ellipse cx="48" cy="18" fill="#ba5b1f" rx="1" ry="3"/><ellipse cx="42" cy="18" fill="#ff9f3e" rx="1" ry="3" transform="rotate(-20 41.673 17.684)"/><ellipse cx="43" cy="18" fill="#ff937f" rx="1" ry="3" transform="rotate(25 42.792 17.731)"/><path fill="#01a827" fill-rule="evenodd" d="m43.6001 23.2 1.4-2.8 1.4 2.8V26h-2.8z" clip-rule="evenodd"/></g><path fill="#042c90" d="M0 0h26.7134v21H0z"/><mask id="e" width="27" height="21" x="0" y="0" maskUnits="userSpaceOnUse" style="mask-type:alpha"><path fill="#0a17a7" d="M0 0h26.7133v21H0z"/></mask><g mask="url(#e)"><mask id="f" width="35" height="27" x="-4" y="-3" fill="#000" maskUnits="userSpaceOnUse"><path fill="#fff" d="M-4-3h35v27H-4z"/><path fill-rule="evenodd" d="M10.3885 9 0 0h1.484l10.3886 7.5h2.9682L26.7134 0v1.5L16.3248 9v3l10.3886 9h-1.2582a.7.7 0 0 1-.4091-.1322L14.8408 13.5h-2.9682L0 21v-1.5L10.3885 12z" clip-rule="evenodd"/></mask><path fill="#ff2e3b" fill-rule="evenodd" d="M10.3885 9 0 0h1.484l10.3886 7.5h2.9682L26.7134 0v1.5L16.3248 9v3l10.3886 9h-1.2582a.7.7 0 0 1-.4091-.1322L14.8408 13.5h-2.9682L0 21v-1.5L10.3885 12z" clip-rule="evenodd"/><path stroke="#fff" stroke-width="3" d="M10.3885 9 0 0h1.484l10.3886 7.5h2.9682L26.7134 0v1.5L16.3248 9v3l10.3886 9h-1.2582a.7.7 0 0 1-.4091-.1322L14.8408 13.5h-2.9682L0 21v-1.5L10.3885 12z" clip-rule="evenodd" mask="url(#f)"/><path fill="#fff" fill-rule="evenodd" d="M0 7.5v6h10.3885v7.6024c0 .7719.6258 1.3976 1.3976 1.3976h3.1411c.7719 0 1.3976-.6257 1.3976-1.3976V13.5h10.4751c.7718 0 1.3975-.6257 1.3975-1.3976V8.8976c0-.7719-.6257-1.3976-1.3975-1.3976H16.3248V0h-5.9363v7.5z" clip-rule="evenodd"/><path fill="#ff2e3b" fill-rule="evenodd" d="M0 9h11.8726V0h2.9682v9h11.8726v3H14.8408v9h-2.9682v-9H0z" clip-rule="evenodd"/></g></g><defs><clipPath id="a"><rect width="64" height="42" fill="#fff" rx="5"/></clipPath></defs></svg>