<svg xmlns="http://www.w3.org/2000/svg" width="64" height="42" fill="none" viewBox="0 0 64 42"><g clip-path="url(#a)"><rect width="64" height="42" fill="#fff" rx="5"/><path fill="#009440" d="M0 0h64v42H0z"/><path fill="#ffcb00" d="m7.1001 21.1539 24.9 16.0165 24.9-16.0165-24.9-16.0164z"/><path fill="#302681" d="M32 31.7308c5.799 0 10.5-4.7355 10.5-10.577S37.799 10.5769 32 10.5769s-10.5 4.7355-10.5 10.5769 4.701 10.577 10.5 10.577"/><path fill="#fff" d="M21.8335 18.4988a23.83 23.83 0 0 1 4.1664-.367c5.9297 0 11.6331 2.2105 16.0246 6.1783.1676-.5407.2932-1.1.3732-1.6741-4.5751-3.8701-10.3767-6.0152-16.3978-6.0152-1.214 0-2.4191.0873-3.6071.2582a10.55 10.55 0 0 0-.5593 1.6198"/><path fill="#009440" fill-rule="evenodd" d="M23.045 18.062c.118-.015.226-.081.298-.185s.104-.237.088-.37-.079-.254-.174-.337-.215-.122-.334-.107-.226.081-.298.186-.104.237-.088.37.079.254.174.337.215.122.334.107m-.023-.186c.07-.009.132-.05.174-.115s.06-.148.05-.232c-.01-.083-.048-.16-.104-.213s-.127-.078-.197-.069-.132.05-.174.115-.06.148-.05.232c.01.083.048.16.104.213s.127.078.197.069m.837.094.185-.013-.026-.373.399-.028a.314.314 0 0 0 .216-.108.318.318 0 0 0-.031-.446.313.313 0 0 0-.228-.077l-.57.04zm.147-.573.385-.027a.13.13 0 0 0 .076-.227.128.128 0 0 0-.093-.031l-.385.027z" clip-rule="evenodd"/><path fill="#009440" d="M24.7073 17.9112c-.0099-.1435-.0316-.4591-.2455-.444l-.2709.0192c.3137-.0222.3355.2934.3454.4369"/><path fill="#009440" fill-rule="evenodd" d="m25.1268 17.8914.4714-.0083a.426.426 0 0 0 .3008-.1318.433.433 0 0 0 .1202-.3074l-.0025-.1439a.434.434 0 0 0-.1308-.303.426.426 0 0 0-.3052-.1211l-.4713.0083zm.1825-.1903.2714-.0048a.27.27 0 0 0 .1905-.0834.274.274 0 0 0 .0761-.1947l-.0015-.0864a.274.274 0 0 0-.0828-.1919.27.27 0 0 0-.1933-.0767l-.2714.0048z" clip-rule="evenodd"/><path fill="#009440" d="m26.397 17.879.899.032.007-.187-.728-.026.009-.259.571.02.006-.173-.571-.02.007-.201.685.024.007-.187-.857-.03zm1.268.054.171.015.06-.688.14.706.157.014.259-.671-.06.688.171.015.087-1.004-.249-.022-.259.671-.139-.706-.249-.022zm2.072.236.739.128.029-.17-.57-.099.039-.227.465.08.029-.17-.465-.08.027-.156.553.096.029-.17-.722-.125z"/><path fill="#009440" fill-rule="evenodd" d="m31.636 18.545.18.047.093-.362.387.101a.313.313 0 0 0 .238-.034.316.316 0 0 0 .145-.193.32.32 0 0 0-.033-.24.315.315 0 0 0-.192-.146l-.553-.144zm.319-.496.373.097a.128.128 0 0 0 .157-.093.13.13 0 0 0-.014-.098.13.13 0 0 0-.079-.06l-.373-.097zm.908.824.177.057.111-.356.382.122a.312.312 0 0 0 .24-.021.314.314 0 0 0 .154-.185.318.318 0 0 0-.206-.397l-.546-.174zm.344-.478.368.117a.128.128 0 0 0 .161-.084.13.13 0 0 0-.084-.162l-.368-.117z" clip-rule="evenodd"/><path fill="#009440" d="M33.6742 19.1316c.0428-.137.1368-.4385-.0678-.5037l-.2592-.0826c.3001.0956.206.3971.1633.5342"/><path fill="#009440" fill-rule="evenodd" d="M34.4924 19.4269c.1118.0421.2375.0327.3494-.026s.2008-.1619.2472-.2871c.0465-.1251.0466-.2618.0004-.38s-.135-.2084-.2468-.2505-.2374-.0327-.3493.026-.2008.1619-.2473.2871c-.0464.1251-.0465.2618-.0003.38s.1349.2084.2467.2505m.0651-.1753c.0656.0248.1402.0172.2073-.0209.067-.0381.1211-.1037.1503-.1824.0292-.0786.0311-.1639.0053-.237s-.0771-.128-.1428-.1527c-.0656-.0248-.1402-.0172-.2073.0209-.067.0381-.1211.1037-.1503.1824-.0292.0786-.0311.1639-.0053.237s.0771.128.1428.1527" clip-rule="evenodd"/><path fill="#009440" d="m35.6779 19.9083-.0156-.0069c-.1059-.0491-.1871-.1422-.2265-.2599-.0396-.1185-.0336-.2524.0167-.3731l.0052-.012c.0531-.1196.146-.2154.2589-.2669.1131-.0517.2372-.0547.3457-.0088l.0097.0043c.1073.0488.1897.1425.2294.2613a.515.515 0 0 1 .0237.2101l-.1849-.0812a.3.3 0 0 0-.0116-.0608c-.0222-.0744-.0708-.132-.1352-.1603s-.1393-.0249-.2083.0095c-.0689.0343-.1262.0968-.1593.1737-.0331.0768-.0393.1618-.0171.2361s.0707.132.1351.1603.1394.0249.2083-.0095c.069-.0343.1263-.0968.1594-.1737l.1706.075c-.0526.1223-.1467.2204-.2614.2728-.1121.0512-.235.0547-.3428.01"/><path fill="#009440" d="m35.9343 19.4726.3474.1524-.0567.1316-.3474-.1524z"/><path fill="#009440" d="m36.1504 19.5673.1314.0577-.199.4616-.1314-.0576z"/><path fill="#009440" fill-rule="evenodd" d="m36.4174 20.2429.1664.0837.1653-.3343.3585.1803a.313.313 0 0 0 .4216-.1413.318.318 0 0 0 .0163-.2415.317.317 0 0 0-.1582-.1831l-.5122-.2576zm.4143-.4178.3458.1739a.128.128 0 0 0 .1724-.0578.13.13 0 0 0-.058-.1737l-.3458-.1739z" clip-rule="evenodd"/><path fill="#009440" d="M37.179 20.626c.064-.129.203-.411.011-.508l-.243-.122c.282.142.142.425.078.553m.525.275.783.447.091-.163-.634-.361.127-.225.497.283.084-.15-.497-.283.098-.175.597.34.091-.163-.746-.425zm1.459.493c-.054.085.001.18.121.257s.203.075.237.02c.109-.173-.523-.425-.328-.727.168-.259.456-.057.564.012s.283.25.147.457l-.184-.118c.058-.091-.006-.179-.102-.24-.093-.06-.169-.087-.225.001-.093.141.527.406.337.707-.14.222-.384.125-.546.021-.138-.089-.346-.299-.211-.511zm1.072.714c-.058.082-.009.179.108.263.116.084.198.085.236.032.118-.167-.5-.452-.29-.743.181-.25.458-.033.563.042s.269.264.123.464l-.177-.127c.062-.088.004-.179-.089-.245-.09-.065-.164-.096-.225-.011-.1.136.505.433.299.723-.151.214-.39.104-.547-.008-.134-.096-.33-.316-.184-.521z"/><path fill="#009440" fill-rule="evenodd" d="M41.0959 23.1902c.0934.0748.2157.1051.3402.0841.1244-.021.2407-.0916.3232-.1961.0826-.1045.1246-.2345.1169-.3614-.0076-.1268-.0644-.2401-.1578-.315s-.2158-.105-.3402-.084-.2407.0915-.3232.196c-.0826.1046-.1247.2346-.117.3614s.0645.2401.1579.315m.1156-.1464c.0548.0439.1281.06.2035.0446.0755-.0154.1471-.0609.199-.1267.0518-.0657.0798-.1462.0777-.2237s-.0341-.1458-.0889-.1898-.1281-.06-.2036-.0446-.147.061-.1989.1267-.0799.1462-.0778.2237.0341.1458.089.1898" clip-rule="evenodd"/><path fill="#fff" d="m23.426 18.801.104.318h.335l-.271.197.104.318-.271-.197-.271.197.104-.318-.271-.197h.335zm.931 4.447-.139.431.214.07"/><path fill="#fff" d="m24.3572 23.2475.139.4311-.214.07"/><path fill="#fff" d="m24.7852 23.5609-.4497.0008-.0003.2259"/><path fill="#fff" d="m24.7852 23.5605-.3645.2668-.1319-.183"/><path fill="#fff" d="m23.9292 23.5603.3644.2668.1319-.183"/><path fill="#fff" d="m23.9292 23.5608.4496.0007.0004.2259"/><path fill="#fff" d="m24.6218 24.0673-.1387-.4309-.2143.0702"/><path fill="#fff" d="m24.6216 24.0675-.3639-.2662.1325-.1836"/><path fill="#fff" d="m24.093 24.0677.3639-.2662-.1325-.1836"/><path fill="#fff" d="m24.093 24.067.139-.431.214.07m-1.375.567-.116.359.178.058"/><path fill="#fff" d="m23.0713 24.2729.1159.3592-.1784.0584"/><path fill="#fff" d="m23.428 24.5341-.3747.0007-.0003.1882"/><path fill="#fff" d="m23.428 24.5337-.3037.2223-.1099-.1524"/><path fill="#fff" d="m22.7146 24.5336.3037.2224.1099-.1525"/><path fill="#fff" d="m22.7146 24.5339.3747.0006.0003.1882"/><path fill="#fff" d="m23.2917 24.9562-.1156-.3591-.1786.0585"/><path fill="#fff" d="m23.2915 24.9562-.3032-.2219.1104-.153"/><path fill="#fff" d="m22.8511 24.9563.3032-.2219-.1104-.153"/><path fill="#fff" d="m22.851 24.956.116-.359.179.059m2.24-1.819-.066.205.102.033"/><path fill="#fff" d="m25.3855 22.8373.0662.2053-.1019.0334"/><path fill="#fff" d="m25.5894 22.9865-.2141.0004-.0002.1076"/><path fill="#fff" d="m25.5894 22.9865-.1736.1271-.0628-.0871"/><path fill="#fff" d="m25.1819 22.9865.1735.127.0628-.0871"/><path fill="#fff" d="m25.1819 22.9865.2141.0004.0002.1075"/><path fill="#fff" d="m25.5115 23.2278-.0661-.2052-.102.0335"/><path fill="#fff" d="m25.5115 23.228-.1733-.1267.0631-.0875"/><path fill="#fff" d="m25.2598 23.2278.1732-.1268-.0631-.0874"/><path fill="#fff" d="m25.26 23.228.066-.205.102.034m1.115 1.317-.116.359.178.058"/><path fill="#fff" d="m26.543 24.3737.1159.3593-.1784.0583"/><path fill="#fff" d="m26.8997 24.6347-.3747.0007-.0003.1882"/><path fill="#fff" d="m26.8997 24.6343-.3037.2223-.1099-.1524"/><path fill="#fff" d="m26.1863 24.6342.3037.2224.1099-.1525"/><path fill="#fff" d="m26.1863 24.6345.3747.0006.0003.1882"/><path fill="#fff" d="m26.7634 25.0568-.1156-.3591-.1786.0585"/><path fill="#fff" d="m26.7632 25.057-.3032-.2219.1104-.153"/><path fill="#fff" d="m26.3228 25.0571.3032-.2219-.1104-.153"/><path fill="#fff" d="m26.323 25.057.116-.359.179.059m-.389.743-.093.287.143.047"/><path fill="#fff" d="m26.2285 25.4997.0927.2874-.1426.0467"/><path fill="#fff" d="m26.5144 25.7087-.2997.0006-.0003.1505"/><path fill="#fff" d="m26.5144 25.7085-.2429.1779-.088-.122"/><path fill="#fff" d="m25.9434 25.7082.2429.1779.0879-.122"/><path fill="#fff" d="m25.9434 25.7084.2997.0005.0003.1506"/><path fill="#fff" d="m26.405 26.0462-.0925-.2872-.1428.0468"/><path fill="#fff" d="m26.405 26.0464-.2425-.1774.0883-.1224"/><path fill="#fff" d="m26.0522 26.0466.2426-.1774-.0883-.1224"/><path fill="#fff" d="m26.052 26.046.093-.287.143.047m8.969-8.386-.139.431.214.07"/><path fill="#fff" d="m35.2573 17.4196.1391.4311-.214.07"/><path fill="#fff" d="m35.6851 17.7328-.4497.0008-.0003.2258"/><path fill="#fff" d="m35.6851 17.7323-.3645.2669-.1319-.183"/><path fill="#fff" d="m34.8291 17.7324.3644.2668.1319-.1829"/><path fill="#fff" d="m34.8291 17.7328.4496.0008.0004.2259"/><path fill="#fff" d="m35.5217 18.2394-.1387-.4309-.2143.0702"/><path fill="#fff" d="m35.5215 18.2396-.3639-.2662.1325-.1836"/><path fill="#fff" d="m34.9929 18.2395.3639-.2662-.1325-.1836"/><path fill="#fff" d="m34.993 18.239.139-.431.214.07m4.011 6.535-.139.431.214.07"/><path fill="#fff" d="m39.3574 24.4131.1391.4311-.214.07"/><path fill="#fff" d="m39.7852 24.7266-.4497.0007-.0003.2259"/><path fill="#fff" d="m39.7852 24.7261-.3645.2668-.1319-.1829"/><path fill="#fff" d="m38.9292 24.7262.3644.2668.1319-.183"/><path fill="#fff" d="m38.9292 24.7266.4496.0008.0004.2259"/><path fill="#fff" d="m39.6218 25.2331-.1387-.4309-.2143.0703"/><path fill="#fff" d="m39.6216 25.2334-.3639-.2662.1325-.1836"/><path fill="#fff" d="m39.093 25.2333.3639-.2662-.1325-.1836"/><path fill="#fff" d="m39.093 25.233.139-.431.214.07m1.369-.207-.093.287.143.047"/><path fill="#fff" d="m40.8145 24.6649.0927.2874-.1427.0467"/><path fill="#fff" d="m41.0999 24.874-.2998.0005-.0002.1506"/><path fill="#fff" d="m41.0999 24.8737-.243.1779-.0879-.122"/><path fill="#fff" d="m40.5291 24.8734.2429.1779.0879-.122"/><path fill="#fff" d="m40.5291 24.8739.2997.0005.0003.1506"/><path fill="#fff" d="m40.9905 25.2115-.0925-.2873-.1429.0469"/><path fill="#fff" d="m40.9905 25.2117-.2426-.1775.0883-.1224"/><path fill="#fff" d="m40.6379 25.2119.2426-.1774-.0883-.1225"/><path fill="#fff" d="m40.638 25.212.093-.287.143.047m-1.088.452-.116.359.178.058"/><path fill="#fff" d="m39.7856 25.4241.1159.3592-.1783.0584"/><path fill="#fff" d="m40.1423 25.6851-.3746.0006-.0004.1883"/><path fill="#fff" d="m40.1423 25.6848-.3036.2224-.11-.1525"/><path fill="#fff" d="m39.429 25.6848.3036.2224.1099-.1525"/><path fill="#fff" d="m39.429 25.6851.3746.0006.0004.1882"/><path fill="#fff" d="m40.0061 26.1071-.1156-.3591-.1786.0586"/><path fill="#fff" d="m40.0059 26.1074-.3032-.2219.1104-.153"/><path fill="#fff" d="m39.5654 26.1074.3032-.2218-.1104-.153"/><path fill="#fff" d="m39.565 26.107.116-.359.179.059m-2.603 1.833-.116.359.178.058"/><path fill="#fff" d="m37.2573 27.6403.1159.3593-.1783.0583"/><path fill="#fff" d="m37.614 27.9013-.3747.0007-.0003.1882"/><path fill="#fff" d="m37.614 27.9008-.3037.2224-.1099-.1525"/><path fill="#fff" d="m36.9004 27.9003.3037.2224.1099-.1525"/><path fill="#fff" d="m36.9004 27.9005.3747.0007.0003.1882"/><path fill="#fff" d="m37.4778 28.3233-.1156-.359-.1786.0585"/><path fill="#fff" d="m37.4775 28.3236-.3032-.2219.1104-.153"/><path fill="#fff" d="m37.0371 28.3237.3032-.2219-.1104-.153"/><path fill="#fff" d="m37.037 28.324.116-.359.179.059m-.089.757-.093.287.143.047"/><path fill="#fff" d="m37.2427 28.7808.0927.2874-.1427.0467"/><path fill="#fff" d="m37.5283 28.9898-.2997.0005-.0003.1506"/><path fill="#fff" d="m37.5283 28.9896-.2429.1779-.088-.122"/><path fill="#fff" d="m36.9575 28.9892.243.1779.0879-.122"/><path fill="#fff" d="m36.9575 28.9894.2998.0006.0002.1505"/><path fill="#fff" d="m37.4192 29.3273-.0925-.2873-.1429.0468"/><path fill="#fff" d="m37.4192 29.3273-.2426-.1775.0883-.1224"/><path fill="#fff" d="m37.0664 29.3272.2426-.1775-.0883-.1224"/><path fill="#fff" d="m37.066 29.327.093-.287.143.047m.998-2.206-.093.287.143.047"/><path fill="#fff" d="m38.3 26.8812.0928.2874-.1427.0467"/><path fill="#fff" d="m38.5854 27.0902-.2997.0005-.0003.1506"/><path fill="#fff" d="m38.5854 27.09-.2429.1779-.0879-.122"/><path fill="#fff" d="m38.0146 27.0899.243.1779.0879-.122"/><path fill="#fff" d="m38.0146 27.0901.2998.0005.0002.1506"/><path fill="#fff" d="m38.4763 27.4277-.0925-.2873-.1428.0469"/><path fill="#fff" d="m38.4763 27.4279-.2425-.1774.0883-.1224"/><path fill="#fff" d="m38.1238 27.4279.2425-.1775-.0883-.1224"/><path fill="#fff" d="m38.124 27.428.093-.287.143.047m.783-.915-.116.359.178.058"/><path fill="#fff" d="m39.1431 26.2731.1158.3592-.1783.0584"/><path fill="#fff" d="m39.4998 26.5343-.3747.0006-.0003.1882"/><path fill="#fff" d="m39.4998 26.5338-.3037.2224-.1099-.1525"/><path fill="#fff" d="m38.7861 26.5338.3037.2224.1099-.1525"/><path fill="#fff" d="m38.7861 26.534.3747.0007.0003.1882"/><path fill="#fff" d="m39.3633 26.9563-.1156-.359-.1786.0585"/><path fill="#fff" d="m39.363 26.9565-.3032-.2218.1104-.153"/><path fill="#fff" d="m38.9226 26.9566.3032-.2218-.1104-.153"/><path fill="#fff" d="m38.922 26.956.116-.359.179.059m-2.003.024-.093.288.143.047"/><path fill="#fff" d="m37.2144 26.6797.0927.2875-.1427.0466"/><path fill="#fff" d="m37.5 26.8888-.2997.0005-.0003.1506"/><path fill="#fff" d="m37.5 26.8885-.2429.1779-.088-.1219"/><path fill="#fff" d="m36.929 26.8885.2429.1779.0879-.122"/><path fill="#fff" d="m36.929 26.8887.2997.0005.0003.1506"/><path fill="#fff" d="m37.3906 27.2263-.0925-.2873-.1428.0469"/><path fill="#fff" d="m37.3904 27.2265-.2426-.1774.0883-.1224"/><path fill="#fff" d="m37.0378 27.2265.2426-.1775-.0883-.1224"/><path fill="#fff" d="m37.038 27.227.093-.287.143.047m-9.281-5.784.087.267h.281l-.227.165.087.267-.227-.165-.227.165.087-.267-.227-.165h.281zm6.864-.884-.093.287.143.047"/><path fill="#fff" d="m34.8569 20.3191.0927.2874-.1426.0467"/><path fill="#fff" d="m35.1426 20.5281-.2998.0006-.0002.1505"/><path fill="#fff" d="m35.1426 20.5279-.243.1779-.0879-.122"/><path fill="#fff" d="m34.5718 20.5278.2429.1779.088-.122"/><path fill="#fff" d="m34.5718 20.528.2997.0005.0003.1506"/><path fill="#fff" d="m35.0337 20.8656-.0925-.2872-.1429.0468"/><path fill="#fff" d="m35.0334 20.8658-.2425-.1774.0883-.1224"/><path fill="#fff" d="m34.6807 20.8658.2425-.1774-.0883-.1225"/><path fill="#fff" d="m34.681 20.866.093-.287.143.047m-1.699 2.805.083.256h.269l-.218.158.083.256-.218-.158-.218.158.083-.256-.218-.158h.269zm-2.286.095.068.209h.22l-.178.129.068.209-.178-.129-.178.129.068-.209-.178-.129h.22zm.544.784.049.151h.158l-.128.093.049.151-.128-.093-.128.093.049-.151-.128-.093h.158zm.521 1.161.097.299h.315l-.254.185.097.299-.254-.185-.254.185.097-.299-.254-.185h.314zM32 22.455l.087.267h.281l-.227.165.087.267-.227-.165-.227.165.087-.267-.227-.165h.281zm3.143 5.444-.116.359.178.058"/><path fill="#fff" d="m35.1428 27.8992.1159.3593-.1783.0584"/><path fill="#fff" d="m35.4995 28.1605-.3747.0006-.0003.1883"/><path fill="#fff" d="m35.4995 28.16-.3037.2224-.1099-.1525"/><path fill="#fff" d="m34.7861 28.16.3037.2224.1099-.1525"/><path fill="#fff" d="m34.7861 28.1602.3747.0007.0003.1882"/><path fill="#fff" d="m35.3633 28.5825-.1156-.3591-.1786.0586"/><path fill="#fff" d="m35.363 28.5827-.3032-.2218.1104-.153"/><path fill="#fff" d="m34.9226 28.5828.3032-.2218-.1104-.153"/><path fill="#fff" d="m34.922 28.583.116-.359.179.059m.826-1.243-.093.287.143.047"/><path fill="#fff" d="m36.043 27.0396.0927.2874-.1427.0467"/><path fill="#fff" d="m36.3286 27.2483-.2997.0005-.0003.1506"/><path fill="#fff" d="m36.3286 27.2481-.2429.1779-.088-.122"/><path fill="#fff" d="m35.7576 27.2482.2429.1779.0879-.122"/><path fill="#fff" d="m35.7576 27.2484.2997.0006.0003.1505"/><path fill="#fff" d="m36.2192 27.5861-.0925-.2873-.1428.0468"/><path fill="#fff" d="m36.219 27.5863-.2426-.1775.0883-.1224"/><path fill="#fff" d="m35.8667 27.5862.2426-.1775-.0884-.1224"/><path fill="#fff" d="m35.867 27.586.093-.287.143.047m-1.789-.565-.093.287.143.047"/><path fill="#fff" d="m34.314 26.7806.0927.2874-.1427.0467"/><path fill="#fff" d="m34.5996 26.9894-.2997.0005-.0003.1506"/><path fill="#fff" d="m34.5996 26.9894-.2429.1779-.088-.122"/><path fill="#fff" d="m34.0288 26.9891.2429.1779.088-.122"/><path fill="#fff" d="m34.0288 26.9893.2997.0005.0003.1506"/><path fill="#fff" d="m34.4905 27.3269-.0925-.2873-.1429.0469"/><path fill="#fff" d="m34.4902 27.3271-.2425-.1774.0883-.1225"/><path fill="#fff" d="m34.1379 27.3271.2426-.1775-.0883-.1224"/><path fill="#fff" d="m34.138 27.327.093-.287.143.047m-6.588-.774-.139.431.214.07"/><path fill="#fff" d="m27.7859 26.3127.139.4311-.2139.07"/><path fill="#fff" d="m28.2136 26.6261-.4496.0008-.0004.2258"/><path fill="#fff" d="m28.2136 26.6256-.3644.2669-.1319-.183"/><path fill="#fff" d="m27.3577 26.6255.3644.2668.1319-.1829"/><path fill="#fff" d="m27.3577 26.6259.4496.0008.0004.2259"/><path fill="#fff" d="m28.0503 27.1324-.1388-.4308-.2143.0702"/><path fill="#fff" d="m28.05 27.1327-.3638-.2662.1325-.1836"/><path fill="#fff" d="m27.5215 27.1328.3638-.2662-.1324-.1836"/><path fill="#fff" d="m27.522 27.133.139-.431.214.07M32 29.277l-.046.144.071.023"/><path fill="#fff" d="m32 29.2773.0464.1437-.0714.0233"/><path fill="#fff" d="m32.1428 29.3814-.1498.0003-.0002.0753"/><path fill="#fff" d="m32.1428 29.3814-.1214.089-.044-.061"/><path fill="#fff" d="m31.8574 29.3816.1215.089.044-.061"/><path fill="#fff" d="m31.8574 29.3816.1499.0003.0001.0753"/><path fill="#fff" d="m32.0881 29.5505-.0462-.1436-.0714.0234"/><path fill="#fff" d="m32.0881 29.5508-.1212-.0888.0441-.0612"/><path fill="#fff" d="m31.9121 29.5508.1213-.0888-.0442-.0612"/><path fill="#fff" d="m31.9121 29.5505.0463-.1436.0714.0234"/></g><defs><clipPath id="a"><rect width="64" height="42" fill="#fff" rx="5"/></clipPath></defs></svg>