<svg xmlns="http://www.w3.org/2000/svg" width="64" height="42" fill="none" viewBox="0 0 64 42"><g clip-path="url(#a)"><rect width="64" height="42" fill="#fff" rx="5"/><path fill="#e92434" d="M0 0h64v42H0z"/><path fill="#fff" fill-rule="evenodd" d="M32 33.6c6.9588 0 12.6-5.6412 12.6-12.6S38.9588 8.4 32 8.4 19.4 14.0412 19.4 21 25.0412 33.6 32 33.6m.0001-2.7999c1.2896 0 2.5211-.2491 3.6489-.7019a6 6 0 0 1-.149.0017c-4.2526 0-7.7-4.0742-7.7-9.1s3.4474-9.1 7.7-9.1q.0741 0 .1481.0017c-1.1276-.4525-2.3587-.7015-3.648-.7015-5.4124 0-9.8 4.3876-9.8 9.8s4.3876 9.8 9.8 9.8m2.3715-4.2245 2.5721-3.1185 3.7868 1.4146-2.171-3.4099 2.5155-3.1642-3.9139 1.011-2.232-3.3703-.2479 4.0348-3.8951 1.0814 3.7607 1.4825z" clip-rule="evenodd"/></g><defs><clipPath id="a"><rect width="64" height="42" fill="#fff" rx="5"/></clipPath></defs></svg>