<svg xmlns="http://www.w3.org/2000/svg" width="64" height="42" fill="none" viewBox="0 0 64 42"><g clip-path="url(#a)"><rect width="64" height="42" fill="#fff" rx="5"/><rect width="63" height="41" y="1" stroke="#f5f5f5" rx="5"/><path fill="#ff3131" d="M44.7063 0H64v42.3542H44.7063z"/><path fill="#ff3131" fill-rule="evenodd" d="M0 42.354h19.294V0H0zm36.472-22.825c-.494.494-1.328.047-1.191-.638l.955-4.773-2.824 1.412L32 11.295l-1.412 4.235-2.824-1.412.955 4.773c.137.685-.697 1.131-1.191.638l-.676-.676a.706.706 0 0 0-.998 0l-.913.913-2.824-1.412 1.412 2.824-.913.913a.706.706 0 0 0 0 .998l3.736 3.736h4.235l.706 4.235h1.412l.706-4.235h4.235l3.736-3.736a.706.706 0 0 0 0-.998l-.913-.913 1.412-2.824-2.824 1.412-.913-.913a.706.706 0 0 0-.998 0z" clip-rule="evenodd"/></g><defs><clipPath id="a"><rect width="64" height="42" fill="#fff" rx="5"/></clipPath></defs></svg>