<svg width="64" height="42" viewBox="0 0 64 42" fill="none" xmlns="http://www.w3.org/2000/svg">
<g clip-path="url(#clip0_37941_2284)">
<rect width="64" height="42" rx="5" fill="white"/>
<rect x="-3.08301" width="67.083" height="42" fill="#07319C"/>
<ellipse cx="45.5999" cy="12.2" rx="4.2" ry="2.8" fill="#FAD051"/>
<g clip-path="url(#clip1_37941_2284)">
<path fill-rule="evenodd" clip-rule="evenodd" d="M38.6001 22.0001C38.6001 17.8001 38.6001 12.2001 38.6001 12.2001H52.6001C52.6001 12.2001 52.6001 17.8001 52.6001 22.0001C52.6001 29.0001 45.6001 31.8001 45.6001 31.8001C45.6001 31.8001 38.6001 29.0001 38.6001 22.0001Z" fill="url(#paint0_linear_37941_2284)"/>
<mask id="mask0_37941_2284" style="mask-type:luminance" maskUnits="userSpaceOnUse" x="38" y="12" width="15" height="20">
<path fill-rule="evenodd" clip-rule="evenodd" d="M38.6001 22.0001C38.6001 17.8001 38.6001 12.2001 38.6001 12.2001H52.6001C52.6001 12.2001 52.6001 17.8001 52.6001 22.0001C52.6001 29.0001 45.6001 31.8001 45.6001 31.8001C45.6001 31.8001 38.6001 29.0001 38.6001 22.0001Z" fill="white"/>
</mask>
<g mask="url(#mask0_37941_2284)">
<path fill-rule="evenodd" clip-rule="evenodd" d="M38.6001 12.2001H52.6001V15.0001H47.0001H44.2001H38.6001V12.2001Z" fill="#CF142C"/>
<path fill-rule="evenodd" clip-rule="evenodd" d="M52.6002 17.8H38.6002V20.6H44.2002H47.0002H52.6002V17.8ZM38.6001 23.3999H52.6001V26.1999H47.0001H44.2001H38.6001V23.3999ZM38.6001 29H52.6001V31.8H47.0001H44.2001H38.6001V29Z" fill="#125FBA"/>
</g>
</g>
<rect width="26.7134" height="21" fill="#042C90"/>
<mask id="mask1_37941_2284" style="mask-type:alpha" maskUnits="userSpaceOnUse" x="0" y="0" width="27" height="21">
<rect width="26.7133" height="21" fill="#0A17A7"/>
</mask>
<g mask="url(#mask1_37941_2284)">
<mask id="path-10-outside-1_37941_2284" maskUnits="userSpaceOnUse" x="-4" y="-3" width="35" height="27" fill="black">
<rect fill="white" x="-4" y="-3" width="35" height="27"/>
<path fill-rule="evenodd" clip-rule="evenodd" d="M10.3885 9L0 0H1.48408L11.8726 7.5H14.8408L26.7134 0V1.5L16.3248 9V12L26.7134 21H25.4552C25.3083 21 25.1652 20.9537 25.0461 20.8678L14.8408 13.5H11.8726L0 21V19.5L10.3885 12V9Z"/>
</mask>
<path fill-rule="evenodd" clip-rule="evenodd" d="M10.3885 9L0 0H1.48408L11.8726 7.5H14.8408L26.7134 0V1.5L16.3248 9V12L26.7134 21H25.4552C25.3083 21 25.1652 20.9537 25.0461 20.8678L14.8408 13.5H11.8726L0 21V19.5L10.3885 12V9Z" fill="#FF2E3B"/>
<path fill-rule="evenodd" clip-rule="evenodd" d="M10.3885 9L0 0H1.48408L11.8726 7.5H14.8408L26.7134 0V1.5L16.3248 9V12L26.7134 21H25.4552C25.3083 21 25.1652 20.9537 25.0461 20.8678L14.8408 13.5H11.8726L0 21V19.5L10.3885 12V9Z" stroke="white" stroke-width="2.7952" mask="url(#path-10-outside-1_37941_2284)"/>
<path fill-rule="evenodd" clip-rule="evenodd" d="M0 7.5V13.5H10.3885V21.1024C10.3885 21.8743 11.0143 22.5 11.7861 22.5H14.9272C15.6991 22.5 16.3248 21.8743 16.3248 21.1024V13.5H26.7999C27.5717 13.5 28.1974 12.8743 28.1974 12.1024V8.8976C28.1974 8.12573 27.5717 7.5 26.7999 7.5H16.3248V0H10.3885V7.5H0Z" fill="white"/>
<path fill-rule="evenodd" clip-rule="evenodd" d="M0 9H11.8726V7.5V0H14.8408V7.5V9H26.7134V12H14.8408V13.5V21H11.8726V13.5V12H0V9Z" fill="#FF2E3B"/>
</g>
</g>
<defs>
<linearGradient id="paint0_linear_37941_2284" x1="38.6001" y1="12.2001" x2="38.6001" y2="31.8001" gradientUnits="userSpaceOnUse">
<stop stop-color="white"/>
<stop offset="1" stop-color="#F0F0F0"/>
</linearGradient>
<clipPath id="clip0_37941_2284">
<rect width="64" height="42" rx="5" fill="white"/>
</clipPath>
<clipPath id="clip1_37941_2284">
<rect width="14.7" height="21" fill="white" transform="translate(38.6001 12.2001)"/>
</clipPath>
</defs>
</svg>
