<svg xmlns="http://www.w3.org/2000/svg" width="64" height="42" fill="none" viewBox="0 0 64 42"><g clip-path="url(#a)"><rect width="64" height="42" fill="#fff" rx="5"/><path fill="#ee343c" d="M0-1.8571h64v45.7143H0z"/><path fill="#262626" fill-rule="evenodd" d="M27.8153 7.6722a.667.667 0 0 0-.8412-.0833l-3.1608 2.1072c-.4259.284-.3862.9221.0717 1.151l4.6992 2.3496a.667.667 0 0 1 .3685.5963v1.969a.6667.6667 0 0 1-.6667.6666h-2.2236a.67.67 0 0 1-.2981-.0704l-5.5247-2.7623a.667.667 0 0 0-.7695.1249l-2.0539 2.0538c-.3217.3217-.2337.8642.1733 1.0677l4.2404 2.1202c.4579.2289.4976.867.0717 1.151l-2.2764 1.5176c-.4942.3294-.3434 1.0919.239 1.2084l4.5788.9158c.565.113.7302.8412.2692 1.187l-3.3024 2.4768c-.5125.3844-.2406 1.2.4 1.2h.9656a.67.67 0 0 0 .1617-.0199l4.3427-1.0857c.5911-.1478 1.0544.5096.7164 1.0166l-1.4002 2.1002c-.2953.443.0223 1.0364.5547 1.0364h2.8453a.667.667 0 0 1 .6324.4559l.7394 2.2182c.2026.6078 1.0624.6078 1.265 0l.7394-2.2182a.667.667 0 0 1 .6324-.4559h2.8453c.5324 0 .85-.5934.5547-1.0364l-1.4002-2.1002c-.338-.507.1253-1.1644.7164-1.0166l4.3427 1.0857a.67.67 0 0 0 .1617.0199h.9656c.6407 0 .9125-.8156.4-1.2l-3.3024-2.4768c-.461-.3458-.2958-1.074.2692-1.187l4.5788-.9158c.5824-.1165.7332-.879.239-1.2084l-2.2764-1.5176c-.4259-.284-.3862-.9221.0717-1.151l4.2404-2.1202c.407-.2035.495-.746.1733-1.0677l-2.0539-2.0538a.667.667 0 0 0-.7695-.1249l-5.5247 2.7623a.67.67 0 0 1-.2981.0704h-2.2236a.6667.6667 0 0 1-.6667-.6666v-1.969c0-.2525.142-.483.3678-.5959l4.7006-2.3503c.4579-.2289.4969-.8667.071-1.1507L37.0265 7.589a.667.667 0 0 0-.8412.0833l-3.7136 3.7136a.6667.6667 0 0 1-.9428 0z" clip-rule="evenodd"/></g><defs><clipPath id="a"><rect width="64" height="42" fill="#fff" rx="5"/></clipPath></defs></svg>