<svg xmlns="http://www.w3.org/2000/svg" width="64" height="42" fill="none" viewBox="0 0 64 42"><g clip-path="url(#a)"><rect width="64" height="42" fill="#fff" rx="5"/><path fill="#dc1f37" d="M0 0h64v42H0z"/><path fill="#042c90" d="M0 0h26.7134v21H0z"/><path fill="#fff" fill-rule="evenodd" d="M38 22.3658V14h13.3853v8.3658c0 5.0195-6.6926 8.3658-6.6926 8.3658S38 27.3853 38 22.3658" clip-rule="evenodd"/><mask id="b" width="14" height="17" x="38" y="14" maskUnits="userSpaceOnUse" style="mask-type:luminance"><path fill="#fff" fill-rule="evenodd" d="M38 22.3658V14h13.3853v8.3658c0 5.0195-6.6926 8.3658-6.6926 8.3658S38 27.3853 38 22.3658" clip-rule="evenodd"/></mask><g mask="url(#b)"><circle cx="45" cy="24" r="3" fill="#65b5d2"/><path fill="url(#c)" fill-rule="evenodd" d="M46.3658 19.0195c0 .924-.7491 1.6731-1.6732 1.6731s-1.6732-.7491-1.6732-1.6731.7491-1.6732 1.6732-1.6732 1.6732.7491 1.6732 1.6732m-3.3461 3.3463c0 .924-.7491 1.6731-1.6732 1.6731s-1.6732-.7491-1.6732-1.6731.7491-1.6732 1.6732-1.6732 1.6732.7491 1.6732 1.6732m5.0196 1.6731c.924 0 1.6731-.7491 1.6731-1.6731s-.7491-1.6732-1.6731-1.6732-1.6732.7491-1.6732 1.6732.7491 1.6731 1.6732 1.6731" clip-rule="evenodd"/><path fill="#2f8f22" d="M38 27.3853h13.3853v3.3463H38z"/></g><mask id="d" width="27" height="21" x="0" y="0" maskUnits="userSpaceOnUse" style="mask-type:alpha"><path fill="#0a17a7" d="M0 0h26.7133v21H0z"/></mask><g mask="url(#d)"><mask id="e" width="35" height="27" x="-4" y="-3" fill="#000" maskUnits="userSpaceOnUse"><path fill="#fff" d="M-4-3h35v27H-4z"/><path fill-rule="evenodd" d="M10.3885 9 0 0h1.484l10.3886 7.5h2.9682L26.7134 0v1.5L16.3248 9v3l10.3886 9h-1.2582a.7.7 0 0 1-.4091-.1322L14.8408 13.5h-2.9682L0 21v-1.5L10.3885 12z" clip-rule="evenodd"/></mask><path fill="#ff2e3b" fill-rule="evenodd" d="M10.3885 9 0 0h1.484l10.3886 7.5h2.9682L26.7134 0v1.5L16.3248 9v3l10.3886 9h-1.2582a.7.7 0 0 1-.4091-.1322L14.8408 13.5h-2.9682L0 21v-1.5L10.3885 12z" clip-rule="evenodd"/><path stroke="#fff" stroke-width="3" d="M10.3885 9 0 0h1.484l10.3886 7.5h2.9682L26.7134 0v1.5L16.3248 9v3l10.3886 9h-1.2582a.7.7 0 0 1-.4091-.1322L14.8408 13.5h-2.9682L0 21v-1.5L10.3885 12z" clip-rule="evenodd" mask="url(#e)"/><path fill="#fff" fill-rule="evenodd" d="M0 7.5v6h10.3885v7.6024c0 .7719.6258 1.3976 1.3976 1.3976h3.1411c.7719 0 1.3976-.6257 1.3976-1.3976V13.5h10.4751c.7718 0 1.3975-.6257 1.3975-1.3976V8.8976c0-.7719-.6257-1.3976-1.3975-1.3976H16.3248V0h-5.9363v7.5z" clip-rule="evenodd"/><path fill="#ff2e3b" fill-rule="evenodd" d="M0 9h11.8726V0h2.9682v9h11.8726v3H14.8408v9h-2.9682v-9H0z" clip-rule="evenodd"/></g></g><defs><linearGradient id="c" x1="40" x2="40" y1="17" y2="24" gradientUnits="userSpaceOnUse"><stop stop-color="#e20b0c"/><stop offset="1" stop-color="#d40001"/></linearGradient><clipPath id="a"><rect width="64" height="42" fill="#fff" rx="5"/></clipPath></defs></svg>