<svg xmlns="http://www.w3.org/2000/svg" width="64" height="42" fill="none" viewBox="0 0 64 42"><g clip-path="url(#a)"><rect width="64" height="42" fill="#fff" rx="5"/><rect width="63" height="41" x="1" y="1" stroke="#f5f5f5" rx="5"/><path fill="#e3243b" d="m-12.8345-6.9135 3.27-4.6702 86.3993 60.4974-3.2701 4.6702z"/><path fill="#e3243b" d="m76.8345-6.9134-3.2701-4.6703-86.3993 60.4974 3.2702 4.6702z"/><g clip-path="url(#b)"><path fill="#faef32" fill-rule="evenodd" d="M34.312 4.3095h-4.5923l.1865-.1094-2.1096-1.2182 2.7275.3045-.3835-1.8273 1.8752 1.5228 1.8753-1.5228-.3835 1.8273 2.7275-.3045L34.1255 4.2z" clip-rule="evenodd"/><path fill="#e3243b" fill-rule="evenodd" d="M27.7402 9.654V7.16c0-1.5743 1.2763-2.8505 2.8507-2.8505h2.8499c1.5744 0 2.8506 1.2762 2.8506 2.8505v2.494c0 3.8175-4.2756 5.3445-4.2756 5.3445s-4.2756-1.527-4.2756-5.3445" clip-rule="evenodd"/><mask id="c" width="10" height="11" x="27" y="4" maskUnits="userSpaceOnUse" style="mask-type:luminance"><path fill="#fff" fill-rule="evenodd" d="M27.7402 9.654V7.16c0-1.5743 1.2763-2.8505 2.8507-2.8505h2.8499c1.5744 0 2.8506 1.2762 2.8506 2.8505v2.494c0 3.8175-4.2756 5.3445-4.2756 5.3445s-4.2756-1.527-4.2756-5.3445" clip-rule="evenodd"/></mask><g fill="#faef32" mask="url(#c)"><rect width="1" height="1" x="31" y="13" rx="1"/><rect width="6" height="1" x="29" y="10" rx="1"/><rect width="6" height="1" x="29" y="7" rx="1"/></g></g></g><defs><clipPath id="a"><rect width="64" height="42" fill="#fff" rx="5"/></clipPath><clipPath id="b"><path fill="#fff" d="M26.3152 1.4592h11.4025v14.2532H26.3152z"/></clipPath></defs></svg>