<svg xmlns="http://www.w3.org/2000/svg" width="64" height="42" fill="none" viewBox="0 0 64 42"><g clip-path="url(#a)"><rect width="64" height="42" fill="#fff" rx="5"/><rect width="63" height="41" x="1" y="1" stroke="#f5f5f5" rx="5"/><path fill="#0c33b8" fill-rule="evenodd" d="M0 14h64V0H0z" clip-rule="evenodd"/><path fill="#1db158" fill-rule="evenodd" d="M0 42h64V28H0z" clip-rule="evenodd"/><path fill="#262626" fill-rule="evenodd" d="m30.6001 21 .0719-.2155c.4254-1.2764 2.2308-1.2764 2.6563 0l.0718.2155 2.4817 3.7225c.1851.2776.1444.6437-.1325.8298-.6168.4148-1.8665 1.0477-3.7492 1.0477s-3.1323-.6329-3.7491-1.0477c-.2769-.1861-.3176-.5522-.1325-.8298z" clip-rule="evenodd"/><circle cx="32" cy="18" r="2" stroke="#262626"/></g><defs><clipPath id="a"><rect width="64" height="42" fill="#fff" rx="5"/></clipPath></defs></svg>