<svg width="64" height="42" viewBox="0 0 64 42" fill="none" xmlns="http://www.w3.org/2000/svg">
<g clip-path="url(#clip0_37941_2195)">
<rect width="64" height="42" rx="5" fill="white"/>
<rect x="2.44116" y="-0.113464" width="59.1177" height="42.2269" fill="#E4233B"/>
<path fill-rule="evenodd" clip-rule="evenodd" d="M-0.99939 -0.113464L27.7773 21L-0.99939 42.1135V-0.113464Z" fill="#34CD4E"/>
<path fill-rule="evenodd" clip-rule="evenodd" d="M65.3556 -0.113464L36.2227 21L65.3556 42.1135V-0.113464Z" fill="#34CD4E"/>
<path fill-rule="evenodd" clip-rule="evenodd" d="M38.2539 13.386C36.5526 11.987 34.3743 11.1471 31.9998 11.1471C29.6254 11.1471 27.4471 11.9869 25.7459 13.3859L-0.26652 -4.15976L-3.41492 0.507936L22.5954 18.0521C22.3039 18.9829 22.1468 19.9731 22.1468 21C22.1468 22.0269 22.3039 23.017 22.5954 23.9478L-3.41504 41.4921L-0.266639 46.1597L25.7458 28.6141C27.4471 30.013 29.6253 30.853 31.9998 30.853C34.3743 30.853 36.5527 30.013 38.2539 28.6139L64.2667 46.1597L67.4151 41.492L41.4043 23.9476C41.6957 23.0169 41.8527 22.0268 41.8527 21C41.8527 19.9732 41.6957 18.9831 41.4043 18.0524L67.4149 0.507942L64.2665 -4.15975L38.2539 13.386Z" fill="white"/>
<path fill-rule="evenodd" clip-rule="evenodd" d="M32.0003 18.1848L30.0097 18.7679L30.5927 16.7773L30.0097 14.7867L32.0003 15.3697L33.9909 14.7867L33.4078 16.7773L33.9909 18.7679L32.0003 18.1848ZM27.7775 25.2227L25.7869 25.8057L26.3699 23.8151L25.7869 21.8245L27.7775 22.4075L29.7681 21.8245L29.185 23.8151L29.7681 25.8057L27.7775 25.2227ZM34.2324 25.8057L36.223 25.2227L38.2136 25.8057L37.6305 23.8151L38.2136 21.8245L36.223 22.4075L34.2324 21.8245L34.8154 23.8151L34.2324 25.8057Z" fill="#DF2239"/>
</g>
<defs>
<clipPath id="clip0_37941_2195">
<rect width="64" height="42" rx="5" fill="white"/>
</clipPath>
</defs>
</svg>
