<svg xmlns="http://www.w3.org/2000/svg" width="64" height="42" fill="none" viewBox="0 0 64 42"><g clip-path="url(#a)"><rect width="64" height="42" fill="#fff" rx="5"/><path fill="#19bfbf" d="M0 0h64v42H0z"/><path fill="#fff" fill-rule="evenodd" d="M47.3999 21.0001c0 8.5052-6.8949 15.4-15.4 15.4s-15.4-6.8948-15.4-15.4 6.8948-15.4 15.4-15.4 15.4 6.8948 15.4 15.4m-2.8769 1.4002c-.5199 4.7021-3.6272 8.6244-7.8667 10.3114 1.3651-2.7804 2.1626-6.4026 2.3162-10.3114zm-8.3533 0c-.2045 4.7228-1.4375 8.8968-3.3601 11.1741a12.8 12.8 0 0 1-1.6195 0c-1.9226-2.2773-3.1556-6.4513-3.3601-11.1741zm-11.1425 0c.1536 3.9087.9511 7.5308 2.3161 10.3112-4.2393-1.687-7.3465-5.6092-7.8664-10.3112zm2.8028-2.8h8.3397c-.2044-4.7232-1.4377-8.8976-3.3606-11.1747a12.8 12.8 0 0 0-1.6186 0c-1.9228 2.2771-3.1561 6.4515-3.3605 11.1747m-.4864-10.312c-1.3652 2.7805-2.1628 6.403-2.3164 10.312h-5.5504c.5197-4.7024 3.6272-8.6249 7.8668-10.312m17.1795 10.312h-5.5506c-.1536-3.909-.9512-7.5316-2.3165-10.3121 4.2398 1.687 7.3474 5.6096 7.8671 10.3121" clip-rule="evenodd"/></g><defs><clipPath id="a"><rect width="64" height="42" fill="#fff" rx="5"/></clipPath></defs></svg>