<svg xmlns="http://www.w3.org/2000/svg" width="64" height="42" fill="none" viewBox="0 0 64 42"><g clip-path="url(#a)"><rect width="64" height="42" fill="#fff" rx="5"/><path fill="#262626" fill-rule="evenodd" d="M0 27.9999h64v-14H0z" clip-rule="evenodd"/><path fill="#34b857" fill-rule="evenodd" d="M0 42h64V28H0z" clip-rule="evenodd"/><path fill="#f41f34" fill-rule="evenodd" d="M0 14h64V0H0z" clip-rule="evenodd"/><path fill="#fff" fill-rule="evenodd" d="M34.1001 17.5001q.1181 0 .2341.0077A4.18 4.18 0 0 0 32 16.7999c-2.3196 0-4.2 1.8804-4.2 4.2s1.8804 4.2 4.2 4.2a4.18 4.18 0 0 0 2.3338-.7075 3.6 3.6 0 0 1-.2337.0076c-1.933 0-3.5-1.567-3.5-3.5s1.567-3.4999 3.5-3.4999m.6998 4.8999c.7732 0 1.4-.6268 1.4-1.4s-.6268-1.4-1.4-1.4S33.4 20.2268 33.4 21s.6268 1.4 1.3999 1.4" clip-rule="evenodd"/></g><defs><clipPath id="a"><rect width="64" height="42" fill="#fff" rx="5"/></clipPath></defs></svg>