<svg xmlns="http://www.w3.org/2000/svg" width="64" height="42" fill="none" viewBox="0 0 64 42"><g clip-path="url(#a)"><rect width="64" height="42" fill="#fff" rx="5"/><path fill="#1461b6" fill-rule="evenodd" d="M0 8.4h64V0H0zM0 42h64v-8.4H0z" clip-rule="evenodd"/><path fill="#fff" fill-rule="evenodd" d="M0 33.6h58.8V8.4H0z" clip-rule="evenodd"/><path fill="#f53846" fill-rule="evenodd" d="M0 30.8001h64v-19.6H0z" clip-rule="evenodd"/><path fill="#fff" fill-rule="evenodd" d="M20.9999 27.9999c3.866 0 7-3.134 7-7s-3.134-7-7-7-7 3.134-7 7 3.134 7 7 7m-4.1145-1.3369 4.1145-2.8542 4.1145 2.8542-1.4431-4.7951 3.986-3.0311-5.0064-.1094-1.651-4.7275-1.6511 4.7275-5.0063.1094 3.9859 3.0311z" clip-rule="evenodd"/></g><defs><clipPath id="a"><rect width="64" height="42" fill="#fff" rx="5"/></clipPath></defs></svg>