<svg xmlns="http://www.w3.org/2000/svg" width="64" height="42" fill="none" viewBox="0 0 64 42"><g clip-path="url(#a)"><rect width="64" height="42" fill="#fff" rx="5"/><path fill="#112ebc" fill-rule="evenodd" d="M0 21h64V0H0z" clip-rule="evenodd"/><path fill="#e3264a" fill-rule="evenodd" d="M0 42h64V21H0z" clip-rule="evenodd"/><g clip-path="url(#b)"><rect width="20" height="17" x="22" y="14" fill="url(#c)" rx="1"/><mask id="d" width="20" height="17" x="22" y="14" maskUnits="userSpaceOnUse" style="mask-type:luminance"><rect width="20" height="17" x="22" y="14" fill="#fff" rx="1"/></mask><g mask="url(#d)"><mask id="e" fill="#fff"><path fill-rule="evenodd" d="m22.2001 28 4.4176-2.2088a5.6 5.6 0 0 1 2.5044-.5912h5.756c.8694 0 1.7268.2024 2.5044.5912L41.8001 28v2.8h-19.6z" clip-rule="evenodd"/></mask><path fill="#aabcae" fill-rule="evenodd" stroke="#366c14" stroke-width="3" d="m22.2001 28 4.4176-2.2088a5.6 5.6 0 0 1 2.5044-.5912h5.756c.8694 0 1.7268.2024 2.5044.5912L41.8001 28v2.8h-19.6z" clip-rule="evenodd" mask="url(#e)"/><circle cx="32" cy="21" r="4" fill="#d4b872"/><mask id="f" fill="#fff"><path fill-rule="evenodd" d="M25.0002 23.9129c0-1.1739 1.3579-1.8266 2.2746-1.0932l3.8508 3.0807a1.4 1.4 0 0 0 1.7492 0l3.8508-3.0807c.9167-.7334 2.2746-.0807 2.2746 1.0932V26.6c0 .7732-.6268 1.4-1.4 1.4h-11.2c-.7732 0-1.4-.6268-1.4-1.4z" clip-rule="evenodd"/></mask><path fill="#c28321" fill-rule="evenodd" stroke="#0d3488" stroke-width="3" d="M25.0002 23.9129c0-1.1739 1.3579-1.8266 2.2746-1.0932l3.8508 3.0807a1.4 1.4 0 0 0 1.7492 0l3.8508-3.0807c.9167-.7334 2.2746-.0807 2.2746 1.0932V26.6c0 .7732-.6268 1.4-1.4 1.4h-11.2c-.7732 0-1.4-.6268-1.4-1.4z" clip-rule="evenodd" mask="url(#f)"/><path fill="#216c30" fill-rule="evenodd" d="M28.995 17.995c-.441-.441-.1287-1.195.4949-1.195H34.51c.6237 0 .936.754.495 1.195l-2.51 2.51a.7.7 0 0 1-.99 0z" clip-rule="evenodd"/></g></g></g><defs><clipPath id="a"><rect width="64" height="42" fill="#fff" rx="5"/></clipPath><clipPath id="b"><path fill="#fff" d="M22.2001 14.0001h21v16.8h-21z"/></clipPath><linearGradient id="c" x1="22" x2="22" y1="14" y2="31" gradientUnits="userSpaceOnUse"><stop stop-color="#fff"/><stop offset="1" stop-color="#f0f0f0"/></linearGradient></defs></svg>