<svg xmlns="http://www.w3.org/2000/svg" width="64" height="42" fill="none" viewBox="0 0 64 42"><g clip-path="url(#a)"><rect width="64" height="42" fill="#fff" rx="5"/><path fill="#fff" d="M0 0h64v42H0z"/><rect width="63" height="41" x="1" y="1" stroke="#f5f5f5" rx="5"/><path fill="#00bce4" d="M0 0h64v14H0zm0 28h64v14H0zm20.972-13.014 1.355 4.171-3.548-2.578h4.385l-3.548 2.578zm0 6.917 1.355 4.171-3.548-2.578h4.385l-3.548 2.578zM32.5 18.444l1.355 4.171-3.548-2.578h4.385l-3.548 2.578zm11.528-3.458 1.355 4.171-3.548-2.578h4.385l-3.548 2.578zm0 6.917 1.355 4.171-3.548-2.578h4.385l-3.548 2.578z"/></g><defs><clipPath id="a"><rect width="64" height="42" fill="#fff" rx="5"/></clipPath></defs></svg>