<svg xmlns="http://www.w3.org/2000/svg" width="64" height="42" fill="none" viewBox="0 0 64 42"><g clip-path="url(#a)"><rect width="64" height="42" fill="#fff" rx="5"/><path fill="#dd172c" fill-rule="evenodd" d="M0 11.2h64V0H0zM0 42h64V30.8H0z" clip-rule="evenodd"/><path fill="#ffd133" fill-rule="evenodd" d="M0 30.8h64V11.2H0z" clip-rule="evenodd"/><path fill="#ffedb1" fill-rule="evenodd" d="M15.4 19.6h2.8V21h-2.8z" clip-rule="evenodd"/><mask id="b" fill="#fff"><path fill-rule="evenodd" d="M12.0263 19.7163c-.0681-.8162.5761-1.5163 1.3951-1.5163h3.957c.819 0 1.4632.7001 1.3951 1.5163l-.3596 4.3162c-.121 1.4513-1.3341 2.5675-2.7904 2.5675h-.4472c-1.4563 0-2.6694-1.1162-2.7904-2.5675z" clip-rule="evenodd"/></mask><path stroke="#a41517" stroke-width="3" d="M12.0263 19.7163c-.0681-.8162.5761-1.5163 1.3951-1.5163h3.957c.819 0 1.4632.7001 1.3951 1.5163l-.3596 4.3162c-.121 1.4513-1.3341 2.5675-2.7904 2.5675h-.4472c-1.4563 0-2.6694-1.1162-2.7904-2.5675z" clip-rule="evenodd" mask="url(#b)"/><path fill="#a41517" fill-rule="evenodd" d="M12.6 21h5.6v1.4h-1.4l-1.4 2.8-1.4-2.8h-1.4z" clip-rule="evenodd"/><rect width="3" height="10" x="8" y="17" fill="#a41517" rx="1"/><rect width="3" height="10" x="20" y="17" fill="#a41517" rx="1"/><path fill="#a41517" d="M12.6 16.24c0-1.2371 1.0029-2.24 2.24-2.24h1.12c1.2371 0 2.24 1.0029 2.24 2.24a.56.56 0 0 1-.56.56h-4.48a.56.56 0 0 1-.56-.56"/></g><defs><clipPath id="a"><rect width="64" height="42" fill="#fff" rx="5"/></clipPath></defs></svg>