<svg xmlns="http://www.w3.org/2000/svg" width="64" height="42" fill="none" viewBox="0 0 64 42"><g clip-path="url(#a)"><rect width="64" height="42" fill="#fff" rx="5"/><path fill="#fff" d="M0 0h64v42H0z"/><rect width="63" height="41" x="1" y="1" stroke="#f5f5f5" rx="5"/><path fill="#4997d0" d="M0 0h20v42H0zm44 0h20v42H44z"/><path d="M30.4815 26.6377c.1895-.0295.2987-.0824.4284-.1293m.1573-.2935c.0956.1034.1716.2136.2125.3356m-.576-.3675c.0997.0951.1687.1964.2228.3006m-3.5196-9.889c-.0742.116-.2195.1974-.3394.2482m-.0241-.0143c.0025-.0991-.0168-.2191.0035-.3181m-.1405.3637.048.1468m.1437.0668-.144.0244m-.2806-.0635c-.0009.1824.0203.402.0377.5662m-.1271-.0695c.0335.0548.0672.1089.1097.1363m-.3255.4682c.0347.0681.0669.1537.0925.2867m.2638-.3352c-.0294.0149-.0862.0674-.137.1119m.1129.3182c-.0695.0631-.156.1089-.2434.1538m-.2706 2.9255c.0819.1372.1719.2578.2811.3392m.0412.122c-.0918-.012-.1534-.0394-.209-.0699m.312.6086.1199.07m-.0312.2515c.0891.0591.1782.1653.2673.2797m-.1026.2061c.0983.0212.177.0464.2297.0769m-.0756.1751.1507.0052m.0857-.3897-.0343.3077m.0719.1152.0308-.1189m.3327.4338-.0104.2343m2.7833 2.0204-.0823.1153m-.1712-.2833-.048-.1328"/><path fill="#406325" d="M32.8945 27.177c-.0566-.0909-.1497-.1469-.2327-.1923-.5485-.2938-1.0937-.4232-1.712-.5245-.1429-.0245-.2858-.1609-.4321-.2308-.3524-.1712-.7447-.2378-1.087-.4125-.0233-.0105-.1097-.0629-.1496-.1118-.1363-.1609-.3823-.2099-.5352-.3602-.5917-.5699-1.2199-1.0945-1.5457-1.8497-.3956-.9196-.8876-1.867-.8211-2.9125.0432-.6609-.0533-1.3286.1063-1.958.2361-.9336.5386-1.8565 1.0937-2.6293l-.093.0594c-.5585.7728-.861 1.6958-1.097 2.6293-.1596.6293-.0632 1.2972-.1064 1.958-.0665 1.0454.4256 1.993.8211 2.916.3257.7518.9574 1.2762 1.5458 1.8497.1529.1467.399.1957.5352.36.0399.0455.1296.1015.1496.1119.3425.1749.7347.2413 1.0871.4092.1462.0734.2892.2062.4321.2308.6183.1013 1.1634.2342 1.712.5243.0864.0454.1762.1015.2327.1923l.0964-.0595"/><path d="M32.8945 27.177c-.0566-.0909-.1497-.1469-.2327-.1923-.5485-.2938-1.0937-.4232-1.712-.5245-.1429-.0245-.2858-.1609-.4321-.2308-.3524-.1712-.7447-.2378-1.087-.4125-.0233-.0105-.1097-.0629-.1496-.1118-.1363-.1609-.3823-.2099-.5352-.3602-.5917-.5699-1.2199-1.0945-1.5457-1.8497-.3956-.9196-.8876-1.867-.8211-2.9125.0432-.6609-.0533-1.3286.1063-1.958.2361-.9336.5386-1.8565 1.0937-2.6293l-.093.0594c-.5585.7728-.861 1.6958-1.097 2.6293-.1596.6293-.0632 1.2972-.1064 1.958-.0665 1.0454.4256 1.993.8211 2.916.3257.7518.9574 1.2762 1.5458 1.8497.1529.1467.399.1957.5352.36.0399.0455.1296.1015.1496.1119.3424.1749.7347.2413 1.0871.4092.1462.0734.2892.2062.4321.2308.6183.1013 1.1634.2342 1.712.5243.0864.0454.1762.1015.2327.1923l.0964-.0595"/><path fill="#67923d" d="M27.2315 23.3172c-.1984-.4561-.0969-1.5645-.0141-1.7037.4709.9417.3141 1.719.0141 1.7037m3.2556 3.2864c-.5034.0264-1.4631.673-1.5521.8251 1.0709.0084 1.7052-.5296 1.5521-.8251m.5296-.3106c-.4859-.3945-1.0073-1.7132-.9961-1.9188 1.0727.7844 1.3443 1.758.9961 1.9188"/><path fill="#67923d" d="M30.6583 26.2974c-.4934-.3067-1.1207-1.4564-1.1315-1.6475 1.0792.5933 1.4339 1.4574 1.1315 1.6475m-1.1046-.4909c.0698-.5664-.4023-1.7552-.5386-1.881-.2094 1.1923.2128 1.9964.5386 1.881m-1.9388-1.758c-.1636-.4088-.0435-1.3989.0334-1.5203.3918.8468.2317 1.5362-.0334 1.5203m-.9733-5.5628c.2548-.4813 1.3049-1.1376 1.4901-1.1534-.4807 1.0548-1.2805 1.4357-1.4901 1.1534"/><path fill="#67923d" d="M26.6919 18.0831c.1526-.5273 1.056-1.3949 1.2325-1.4506-.2646 1.135-.9711 1.6783-1.2325 1.4506m1.9743 7.1788c-.3544-.4472-.5688-1.7279-.5175-1.9086.8001.9061.8539 1.827.5175 1.9086m-2.0339-2.6398c-.4905.0788-1.5164-.3357-1.6272-.4589 1.0317-.228 1.7243.1501 1.6272.4589m-.1576-.7009c.0584-.4038.6152-1.1446.7356-1.2063-.0788.8658-.5289 1.3468-.7356 1.2063m3.644 4.2385c-.6017.0315-1.7485.8042-1.8549.986 1.2799.0103 2.0378-.6329 1.8549-.986"/><path fill="#406325" d="M27.2364 23.3063c.3001.0152.4547-.7527-.0191-1.6927.086.8919.0858 1.6152.0191 1.6927m.7937 1.4473c-.3176-.396-1.3759-.8202-1.5413-.8066.6307.8747 1.4113 1.0931 1.5413.8066m-1.7336-3.8359c-.0814-.5823-.8756-1.6445-1.0466-1.7354.1077 1.2435.7488 1.9329 1.0466 1.7354m.5956 2.4827c-.3544-.2665-1.3467-.3869-1.4865-.3419.7196.6013 1.4348.6123 1.4865.3419m-.6644-1.7978c-.2049-.4119-1.0516-.9761-1.1992-.992.3916.8969 1.0335 1.2265 1.1992.992m.1938-3.442c.0642-.5483-.3928-1.6976-.5215-1.8216-.2034 1.1531.2072 1.9306.5215 1.8216m.3173-1.0803c.1887-.4703.0537-1.6239-.0371-1.7679-.4545.9781-.2717 1.7846.0371 1.7679m.3564-.5539c.2226-.3454.2954-1.2804.2474-1.4097-.5137.7034-.494 1.3716-.2474 1.4097m.4224-.4445c.3125-.2518.6548-1.1224.6448-1.2623-.6914.5035-.8675 1.147-.6448 1.2623m-1.1394 3.1278c.0076.0628-.0695-.5923-.7138-1.326.029 1.0729.4437 1.4786.7138 1.326m2.3114 6.2108c-.4383-.3301-1.6601-.4872-1.8292-.4292.8918.7498 1.7661.764 1.8292.4292m.8569.3794c-.3224.1153-.7414-.6819-.5353-1.8741.1995 1.0104.4388 1.8147.5353 1.8741m.9442.8073c.1502.2955-.4757.828-1.5467.8192.8485-.3541 1.5078-.714 1.5467-.8192m.5246-.3237c.3454-.1628.0782-1.1248-.9945-1.9092.6102.9568 1.0262 1.7818.9945 1.9092m-.3599.0058c.3037-.193-.049-1.0458-1.1281-1.6391.6676.8097 1.1426 1.5181 1.1281 1.6391m-3.0377-2.2438c.2651.0161.4229-.6706.0338-1.5149.051.7945.0297 1.4464-.0338 1.5149m-.9769-5.5562c.2095.2821.9978-.0948 1.4793-1.1529-.7217.6762-1.3648 1.1631-1.4793 1.1529m.0597-.4062c.2613.2277.9613-.3115 1.2259-1.4464-.5747.8142-1.1106 1.4289-1.2259 1.4464m1.9678 7.1745c.3365-.0815.2807-.998-.5149-1.9022.3558.9713.569 1.7924.5149 1.9022m-2.0495-2.6399c.0999-.307-.589-.6783-1.6188-.4531.8704.1589 1.5649.365 1.6188.4531m-.1377-.6958c.2061.1367.6515-.3373.7302-1.2031-.3318.6647-.6507 1.1776-.7302 1.2031m3.6347 4.2487c.1829.353-.565.9895-1.8482.979 1.014-.4231 1.8017-.8531 1.8482-.979"/><path fill="#406325" d="M26.736 22.9319c-.1887-.4533-1.0506-1.1195-1.2056-1.1469.3511.9874 1.0115 1.3862 1.2056 1.1469"/><path fill="#67923d" d="M26.2433 19.1394c.2893-.3379 1.2401-.6614 1.3913-.6419-.5709.7537-1.2736.9062-1.3913.6419m1.7797 5.6178c-.1283.2837-.9013.0663-1.5367-.8075.7728.4945 1.4372.8335 1.5367.8075m-1.7315-3.841c-.2978.1974-.9319-.4879-1.0425-1.7293.4702.9559.9255 1.6931 1.0425 1.7293m.5978 2.4863c-.0546.2701-.7588.2599-1.4812-.3415.7617.2466 1.4013.3861 1.4812.3415m-.6709-1.8065c-.1657.2345-.8014-.0918-1.1931-.9888.5815.5769 1.0998.9951 1.1931.9888m.196-3.4428c-.3143.1127-.7213-.6573-.5179-1.8104.1894.9766.4214 1.7503.5179 1.8104m.3173-1.0759c-.3056.0165-.4878-.783-.0332-1.761-.0584.9266-.036 1.6823.0332 1.761m.3578-.5553c-.2466-.038-.2639-.6991.2499-1.4024-.1944.7223-.2946 1.3298-.2499 1.4024m.4245-.4402c-.2227-.119-.0498-.7553.6416-1.2553-.3922.6259-.6615 1.1714-.6416 1.2553"/><path fill="#67923d" d="M26.3732 19.2105c-.2701.1525-.6799-.2536-.709-1.3266.3622.846.6107 1.2893.709 1.3266m2.3122 6.2122c-.0629.3349-.9331.3187-1.8229-.4268.9348.3095 1.7212.4847 1.8229.4268m-.58-.6863c-.2856-.3145-.5082-1.256-.479-1.3932.6398.633.7252 1.3152.479 1.3932m-1.1983-1.8094c-.2535-.4189-.2752-1.5138-.2073-1.6621.5866.855.5149 1.6352.2073 1.6621m-.1868.0065c-.1942.2393-.8469-.1563-1.1977-1.1464.5773.6597 1.0985 1.1449 1.1977 1.1464"/><path fill="#406325" d="M26.2397 19.1452c.1148.2624.8129.1108 1.3839-.6429-.8498.4918-1.1864.7053-1.3839.6429m.6631 3.7701c.3075-.0269.3785-.7991-.2082-1.6541.189.8582.2691 1.5695.2082 1.6541m1.204 1.818c.2464-.0775.1597-.7566-.4765-1.3885.3125.7043.5114 1.3041.4765 1.3885"/><path fill="#406325" d="M26.3718 20.4319c.1461-.6071-.1208-1.6363-.3053-1.8505-.3348 1.117-.0174 1.9258.3053 1.8505"/><path fill="#67923d" d="M26.3505 20.5767c-.4185.097-.6137-.8713-.2897-1.9605.0761.9807.2011 1.8931.2897 1.9605"/><path fill="#67923d" d="M26.2653 20.5731c-.0396-.545.4922-1.6716.6329-1.7889.143 1.1442-.3168 1.9048-.6329 1.7889"/><path fill="#406325" d="M26.2732 20.565c.3133.1185.7703-.6343.6272-1.7785-.2492.9606-.5285 1.7206-.6272 1.7785"/><path fill="#67923d" d="M26.3646 21.2639c.0004-.551.6013-1.6096.7498-1.7101.0592 1.1702-.4495 1.8701-.7498 1.7101"/><path fill="#406325" d="M26.3704 21.2746c.3003.16.8026-.5332.7433-1.7033-.313.9309-.6423 1.658-.7433 1.7033"/><path fill="#ba1f3e" d="M26.556 17.578a.078.078 0 0 0 .077-.078.078.078 0 0 0-.077-.078.078.078 0 0 0-.077.078c0 .043.034.078.077.078m.595-.449a.078.078 0 0 0 .077-.078.078.078 0 0 0-.077-.078.078.078 0 0 0-.077.078c0 .043.034.078.077.078m-.259-.243a.078.078 0 0 0 .077-.078.078.078 0 0 0-.077-.078.078.078 0 0 0-.077.078c0 .043.034.078.077.078m-.643 5.184c.05 0 .09-.041.09-.092a.091.091 0 0 0-.09-.092.091.091 0 0 0-.09.092c0 .051.041.092.09.092m.18-1.158a.091.091 0 0 0 .09-.092.091.091 0 0 0-.09-.092.091.091 0 0 0-.09.092c0 .051.041.092.09.092m.935 2.703a.091.091 0 0 0 .09-.092.091.091 0 0 0-.09-.092.091.091 0 0 0-.09.092c0 .051.041.092.09.092m-.413.142a.091.091 0 0 0 .09-.092.091.091 0 0 0-.09-.092.091.091 0 0 0-.09.092c0 .051.041.092.09.092m3.146 2.259a.091.091 0 0 0 .09-.092.091.091 0 0 0-.09-.092.091.091 0 0 0-.09.092c0 .051.041.092.09.092m.206.513a.091.091 0 0 0 .09-.092.091.091 0 0 0-.09-.092.091.091 0 0 0-.09.092c0 .051.04.092.09.092"/><path d="M38.222 18.057c.044.045.083.059.163.137m-.47-1.372c-.002-.099-.045-.261-.065-.36m.245.216c.004.141-.015.276-.075.399m-.295-.039c.124.114.249.223.373.282m.27.089c.008.143-.01.287-.048.43m.023.109.093-.164m-.132.885c.099.021.2.141.249.252m.034-.093.116-.158m.122 2.225a1.74 1.74 0 0 1-.174.252m-.281-.005c.056.105.111.213.184.292m.174.425c-.093.128-.196.229-.315.292m.01.326c-.077.054-.172.214-.262.341m.599-1.461-.151.063m-.099-.542.089.08m-.66 2.707c-.06-.008-.103.001-.151.005m-.142-.14.044.119m-.548.371c-.019.135-.005.27.015.405m.306-.653.073.163m.272-.015-.179.03m-2.19 1.83-.065.126m.845-.284c-.106.014-.197-.003-.291-.015m-.388.43a1.9 1.9 0 0 0-.208-.069m-1.047.192c-.064.056-.141.176-.218.297m-.039-.331c-.173.091-.226.269-.315.42m.199.208c-.11-.033-.242-.089-.378-.148m1.19-.049c-.165-.087-.337-.079-.507-.106m.764-.025c-.258-.051-.498-.044-.729-.01m.552-.188-.099-.042m-.393.398-.165-.094m4.113-3.562c-.089.059-.178.165-.267.28m.13-5.765-.153-.052"/><path fill="#406325" d="M32.0624 27.1713c.0566-.0909.1497-.1468.2327-.1923.5485-.2937 1.0937-.4231 1.7121-.5245.1429-.0245.2858-.1609.4321-.2307.3523-.1713.7446-.2378 1.087-.4125.0232-.0106.1096-.0629.1496-.1119.1362-.1609.3823-.2099.5352-.3602.5917-.5699 1.2199-1.0944 1.5456-1.8496.3957-.9195.8876-1.8671.8212-2.9124-.0432-.6609.0532-1.3286-.1064-1.9581-.2361-.9335-.5386-1.8566-1.0938-2.6292l.0931.0594c.5585.7728.8609 1.6959 1.0969 2.6292.1596.6293.0632 1.2972.1064 1.958.0666 1.0455-.4255 1.993-.821 2.9161-.3257.7517-.9574 1.2762-1.5458 1.8496-.1529.1468-.399.1957-.5352.3601-.0399.0454-.1296.1014-.1495.1118-.3425.1749-.7347.2413-1.0871.4092-.1462.0734-.2892.2062-.4321.2308-.6183.1013-1.1634.2342-1.7118.5244-.0864.0453-.1762.1014-.2328.1923z"/><path d="M32.0624 27.1713c.0566-.0909.1497-.1468.2327-.1923.5485-.2937 1.0937-.4231 1.7121-.5245.1429-.0245.2858-.1609.4321-.2307.3523-.1713.7446-.2378 1.087-.4125.0232-.0106.1096-.0629.1496-.1119.1362-.1609.3823-.2099.5352-.3602.5917-.5699 1.2199-1.0944 1.5456-1.8496.3957-.9195.8876-1.8671.8212-2.9124-.0432-.6609.0532-1.3286-.1064-1.9581-.2361-.9335-.5386-1.8566-1.0938-2.6292l.0931.0594c.5585.7728.8609 1.6959 1.0969 2.6292.1596.6293.0632 1.2972.1064 1.958.0666 1.0455-.4255 1.993-.821 2.9161-.3257.7517-.9574 1.2762-1.5458 1.8496-.1529.1468-.399.1957-.5352.3601-.0399.0454-.1296.1014-.1495.1118-.3425.1749-.7347.2413-1.0871.4092-.1462.0734-.2892.2062-.4321.2308-.6183.1013-1.1634.2342-1.7118.5244-.0864.0453-.1762.1014-.2328.1923l-.0964-.0596"/><path fill="#406325" d="M37.6892 23.533c.1946-.5369-.0006-1.7984-.1057-1.9514-.472 1.113-.2372 1.9913.1057 1.9514m-.5048.5097c.1636-.4088.0436-1.3989-.0333-1.5203-.3919.8468-.2318 1.5363.0333 1.5203m1.1934-5.3687c-.2338-.4417-1.1974-1.0439-1.3674-1.0584.4411.9679 1.1751 1.3174 1.3674 1.0584m-.1129-.5807c-.1271-.4393-.8799-1.1623-1.0269-1.2087.2204.9458.8091 1.3985 1.0269 1.2087m.3365 1.0832c-.2511-.2933-1.0765-.574-1.2077-.5572.4955.6543 1.1054.7866 1.2077.5572m-.1987 3.3544c.4353.07 1.3459-.2979 1.4443-.4072-.9158-.2025-1.5305.1331-1.4443.4072m-.0107-.4083c-.0031-.4082-.454-1.2205-.5648-1.2984-.0394.8685.341 1.4084.5648 1.2984m.0291-.9905c-.0003-.5509-.6013-1.6095-.7498-1.7101-.0592 1.1701.4495 1.87.7498 1.7101m-3.7547 5.4498c.3178.3985 1.3952.8061 1.568.7895-.625-.8857-1.4248-1.0897-1.568-.7895"/><path fill="#67923d" d="M37.683 23.521c-.342.04-.574-.828-.099-1.939-.035 1.028.017 1.856.099 1.939m-3.789 3.161c.503.026 1.463.673 1.552.825-1.071.008-1.705-.53-1.552-.825m0-.575c.149-.577 1.065-1.536 1.243-1.604-.256 1.241-.975 1.849-1.243 1.604m1.51-.306c-.07-.566.402-1.755.539-1.881.21 1.192-.213 1.997-.538 1.881Zm1.524-1.053c.318-.396 1.376-.82 1.541-.807-.631.875-1.411 1.093-1.541.807m1.831-3.856c.064-.458.689-1.295.824-1.366-.085.979-.589 1.522-.824 1.366m-.83 2.756c.413-.311 1.569-.451 1.732-.398-.839.701-1.672.714-1.732.399Zm.729-1.775c.215-.433 1.105-1.026 1.26-1.043-.412.943-1.086 1.289-1.26 1.043m-.105-3.299c-.007-.552.567-1.646.708-1.755.083 1.169-.406 1.897-.707 1.755Zm-.492-1.877c-.165-.382-.078-1.333-.007-1.453.394.794.261 1.46.007 1.454Zm-.3-.158c-.374-.339-.756-1.43-.739-1.6.834.671 1.021 1.474.739 1.6m.826 2.501c-.022.059.209-.557 1.01-1.108-.285 1.033-.784 1.324-1.01 1.108m-2.421 6.509c.497-.374 1.884-.553 2.075-.487-1.012.851-2.004.867-2.075.487m1.017-1.509c-.265.016-.423-.671-.034-1.515-.051.795-.03 1.446.034 1.515m1.196-5.363c-.192.259-.915-.087-1.357-1.058.662.621 1.252 1.067 1.357 1.058m-.121-.584c-.218.19-.801-.259-1.022-1.205.479.678.926 1.191 1.022 1.205m.347 1.088c-.1.228-.706.096-1.201-.558.738.427 1.03.612 1.201.558m-.191 3.346c-.089-.272.523-.602 1.437-.402-.773.141-1.389.324-1.437.402m-.028-.405c-.223.106-.599-.426-.56-1.295.239.705.485 1.258.56 1.295m.03-.979c-.3.16-.803-.533-.743-1.703.313.931.642 1.658.743 1.703m-3.741 5.435c.143-.3.934-.1 1.56.788-.78-.489-1.454-.818-1.56-.788"/><path fill="#406325" d="M35.4104 25.7942c.3224.1153.7414-.6818.5353-1.874-.1995 1.0104-.4389 1.8147-.5353 1.874"/><path fill="#406325" d="M36.1401 25.4147c.308-.4816.394-1.7778.3251-1.9525-.7059.9842-.668 1.9059-.3251 1.9525m-2.2497 1.27c-.1502.2954.4756.828 1.5467.8192-.8484-.354-1.5077-.7139-1.5467-.8192m.0114-.5829c.2687.2417.9802-.3582 1.2358-1.5989-.5769.8995-1.1161 1.5783-1.2358 1.5989m3.032-1.3503c.1283.2837.9013.0663 1.5367-.8075-.7728.4946-1.4372.8335-1.5367.8075m1.828-3.8613c.2345.1554.7337-.384.8208-1.3614-.3702.7526-.7286 1.3329-.8208 1.3614m-.8299 2.7593c.0636.3148.8842.3029 1.726-.3979-.8876.2873-1.6329.4499-1.726.3979m.7355-1.784c.1741.2465.8423-.0966 1.254-1.0392-.6112.6063-1.1558 1.0459-1.254 1.0392m-.1072-3.2987c.3009.1459.7855-.5758.7027-1.7445-.2895.9507-.6005 1.6952-.7027 1.7445m-.4941-1.8731c.2515.0067.3844-.654-.0095-1.4477.0674.7601.0648 1.3814.0095 1.4477m-.3003-.1622c.282-.1261.0945-.9203-.7399-1.5908.4595.7978.7705 1.4895.7399 1.5908m.8242 2.5102c.2254.2151.7201-.0768 1.0049-1.1099-.5536.7301-.9007 1.0983-1.0049 1.1099m-2.4201 6.5098c.0714.3799 1.0587.3616 2.0682-.4842-1.0607.3511-1.9529.5499-2.0682.4842m.4892-.5596c.2322-.3573.3034-1.3231.253-1.4537-.5316.7298-.5083 1.4171-.253 1.4537m1.3914-2.0715c.2534-.4189.2752-1.5138.2072-1.6622-.5867.8551-.515 1.6353-.2072 1.6622"/><path fill="#67923d" d="M36.1373 25.4111c-.3429-.0462-.3785-.9638.3231-1.9457-.2574 1.0032-.3878 1.8421-.3231 1.9457m2.4961-4.9473c-.067-.5622.2822-1.4585.4708-1.6307.1826 1.0415-.1889 1.734-.4708 1.6307m-1.9764 4.5245c-.2554-.0362-.277-.7207.2513-1.4486-.1973.7463-.2991 1.371-.2513 1.4486m1.6583-7.5474c-.1538-.4258.0021-1.451.0878-1.5765.3754.8875.1872 1.6013-.0878 1.5765m-4.1232 8.6993c.1757-.5858 1.1495-1.5263 1.3352-1.5867-.3078 1.2613-1.0695 1.8484-1.3352 1.5867m3.8712-3.0113c.1887-.4533 1.0505-1.1195 1.2055-1.1469-.3511.9874-1.0115 1.3862-1.2055 1.1469m-.0085-.2193c-.3076-.0269-.3785-.7992.2082-1.6542-.1891.8583-.2691 1.5696-.2082 1.6542"/><path fill="#406325" d="M38.637 20.5963c.3661.1333.6444-.7161.4684-1.7315-.1725.8737-.3818 1.6806-.4684 1.7315"/><path fill="#406325" d="M38.6916 20.5673c.0395-.545-.4924-1.6715-.6329-1.7889-.1431 1.1442.3168 1.9049.6329 1.7889m-.3706-3.1293c.2722.0244.4595-.6831.0843-1.5704.0234.8287-.0201 1.5024-.0843 1.5704M34.2 26.1344c.2688.2622 1.02-.3198 1.3278-1.5811-.6275.8944-1.2046 1.5648-1.3278 1.5811m3.8789-3.004c.1942.2393.8469-.1562 1.1978-1.1464-.5774.6597-1.0985 1.1449-1.1978 1.1464"/><path fill="#67923d" d="M38.6838 20.5593c-.3133.1185-.7704-.6343-.6272-1.7784.2491.9605.5285 1.7205.6272 1.7784"/><path fill="#ba1f3e" d="M38.468 17.841a.078.078 0 0 0 .077-.078.078.078 0 0 0-.077-.078.078.078 0 0 0-.077.078c0 .043.034.078.077.078m.269.862a.078.078 0 0 0 .077-.078.078.078 0 0 0-.077-.078.078.078 0 0 0-.077.078c0 .043.034.078.077.078m.096 2.728a.091.091 0 0 0 .09-.092.091.091 0 0 0-.09-.092.091.091 0 0 0-.09.092c0 .051.04.092.09.092m-.363-.508a.091.091 0 0 0 .09-.092.091.091 0 0 0-.09-.092.091.091 0 0 0-.09.092c0 .051.04.092.09.092m-1.047 2.888a.091.091 0 0 0 .09-.092.091.091 0 0 0-.09-.092.091.091 0 0 0-.09.092c0 .051.041.092.09.092m.447.198a.091.091 0 0 0 .09-.092.091.091 0 0 0-.09-.092.091.091 0 0 0-.09.092c0 .051.041.092.09.092m-3.01 2.343a.091.091 0 0 0 .09-.092.091.091 0 0 0-.09-.092.091.091 0 0 0-.09.092c0 .051.041.092.09.092m-.497.364a.091.091 0 0 0 .09-.092.091.091 0 0 0-.09-.092.091.091 0 0 0-.09.092c0 .051.041.092.09.092m3.568-9.285a.077.077 0 0 0 .077-.078.078.078 0 0 0-.077-.078.078.078 0 0 0-.077.078c0 .043.034.078.077.078"/><path fill="#8c959d" d="M29.2128 23.6536c-.0095.0769.0596.1688.1506.1494.0273-.0056.0442-.0419.0093-.0353-.0301.0078-.0622-.0051-.0851-.027a.123.123 0 0 1-.028-.1386z"/><path fill="#8c959d" d="M29.4251 23.8036c-.0722.0843-.1823.1213-.2433.0604-.0407-.0409-.0553-.0874-.0332-.1385l-.0796.0892c.0033.0065.0507.0947.1212.1272.0868.0399.211-.0202.2853-.1132.0524-.0658.1108-.1758.0686-.2613-.0259-.0528-.0879-.1032-.1396-.1231l-.0729.0797c.0362-.0173.0815-.0097.1204.0227.0903.0749.038.1809-.0269.2567z"/><path fill="#485654" d="M29.425 23.8036a.28.28 0 0 1-.0825.0692c-.0317.0172-.0679.0283-.1045.023a.103.103 0 0 1-.0506-.0214.17.17 0 0 1-.0362-.0419.12.12 0 0 1-.0175-.0534.12.12 0 0 1 .01-.0556l.0087.0058-.0788.0897.0009-.0071a.36.36 0 0 0 .074.0941.18.18 0 0 0 .0492.0316.14.14 0 0 0 .0566.0097c.039-.0011.0772-.0149.1117-.0344a.37.37 0 0 0 .0921-.0755.45.45 0 0 0 .0664-.1005c.017-.0362.0291-.0759.0265-.1155a.13.13 0 0 0-.0159-.0561.22.22 0 0 0-.0355-.0474.3.3 0 0 0-.0973-.0676l.0066-.0016-.0735.0791-.006-.0084a.1.1 0 0 1 .0535-.0085.13.13 0 0 1 .0508.0178c.0304.0186.0567.047.0657.0828.0091.0359.0002.073-.0147.1049a.37.37 0 0 1-.0595.0872zm0-.0001a.38.38 0 0 0 .0563-.0887c.0141-.0322.0215-.0682.0119-.1017-.0096-.0334-.035-.0598-.0639-.0769s-.0656-.0221-.0956-.0073l-.0059-.0084.0722-.0803.0027-.003.0039.0015a.29.29 0 0 1 .1026.0695.23.23 0 0 1 .0381.0505.15.15 0 0 1 .0178.0616c.003.0433-.0099.0853-.0273.1231a.46.46 0 0 1-.0682.1044.37.37 0 0 1-.0965.0782c-.0361.0202-.0763.0346-.1185.0357a.15.15 0 0 1-.0622-.011.2.2 0 0 1-.0528-.0343.36.36 0 0 1-.0763-.0987l-.002-.0039.0029-.0033.0804-.0885.0087.0058a.11.11 0 0 0-.01.0507.11.11 0 0 0 .0154.0494.16.16 0 0 0 .0336.0403.1.1 0 0 0 .0466.0213c.0346.0059.0704-.0038.1019-.0198a.29.29 0 0 0 .0842-.066z"/><path fill="#6c301e" d="m34.9624 17.3531-2.8494 2.861c-.2167.2195-2.695 2.634-2.9181 2.8516l-.3238.3875c-.1511.1673-.3151.3859-.5109.5814-.0349.0449-.0811.0286-.1231.0534-.1287.076-.2625.2078-.3587.3164l-.8667.9779c-.0558.0617-.0707.0999-.0329.1354l.4701.6407c.0873.0879.1877.1331.2269.0593.2233-.3943.7782-.9962.9878-1.4722.1252-.2845.2824-.8006.3946-.9255.1376-.1561.509-.5597.8381-.9199l.066-.0721.0673-.0738 5.0067-5.3259c-.0552-.0561-.0203-.0226-.074-.0753z"/><path fill="#8c959d" d="M29.0446 23.0626c-.0867.0031-.1431-.0511-.2016-.1011.0828.025.166.0575.2443.0244z"/><path fill="#b2b6ba" d="m37.9305 15.2426-2.2578 1.8984c-.0217.0271-.0443.0193-.0659 0l-.2055-.175c.0002-.0026.0009-.0052.0009-.0079a.1.1 0 0 0-.0058-.0336l.1008-.1048c.0125-.016.0086-.0224-.0087-.0395l-.0417-.0435c-.0162-.0128-.0296-.0026-.0456.0129l-.1018.1068a.1015.1015 0 0 0-.096.0989l-3.9001 3.9005-1.6025 1.5602c-.0572.0755-.3046.2106-.4683.3194-.058.0386-.1081.0735-.1289.1117l-.1309.3935c-.0413.0865-.1726.2898-.1784.3036l.2744.2699c.1291-.1464.4749-.5149.7891-.8582.0254-.0276.0269-.0305.0592-.0702a.96.96 0 0 0-.0989-.1197 2.5 2.5 0 0 0-.0853-.0791c-.0174-.0153-.0332-.0283-.0446-.0395-.0113-.0112.0171-.0321.0301-.0465l5.5569-5.5457a.1.1 0 0 0 .0727-.0069l.1978.2323c.0464.0473.0857.0464.1231.0287l2.2617-2.0665z"/><path fill="#485654" d="M28.9786 23.228a.2.2 0 0 0 .043.0022.105.105 0 0 0 .0408-.0118l-.0012.0015.0507-.1723.0539-.1712.0004.002c-.0138-.0162-.0309-.0305-.0519-.036.0213.0042.0397.0177.0548.0333l.0007.0008-.0003.0011-.0504.1724-.0535.1713-.0003.001-.0009.0005a.1.1 0 0 1-.0427.0102.2.2 0 0 1-.0432-.005z"/><path d="M29.492 23.109c.024 0 .044-.02.044-.045a.044.044 0 0 0-.044-.045.044.044 0 0 0-.044.045c0 .025.02.045.044.045m-.266.271c.024 0 .044-.02.044-.045a.044.044 0 0 0-.044-.045.044.044 0 0 0-.044.045c0 .025.02.045.044.045"/><path fill="#485654" d="M29.6894 22.6477a.8.8 0 0 1-.0641-.056l-.0589-.0616a.8.8 0 0 1 .0641.0559z"/><path fill="#8c959d" d="m34.035 18.063.247.246.046-.042-.247-.246zm1.493 5.717c.006.077-.068.166-.158.142-.027-.007-.042-.044-.008-.036.03.009.062-.002.086-.023a.123.123 0 0 0 .035-.137l.044.054z"/><path fill="#8c959d" d="M35.3086 23.9192c.068.0879.1763.1304.2401.0726.0427-.0388.0594-.0844.0399-.1365l.0752.093c-.0036.0063-.0553.0921-.1273.121-.0886.0354-.2098-.0309-.2794-.1276-.0492-.0684-.1022-.1812-.0559-.2644.0284-.0514.0928-.0986.1454-.1159l.0689.0833c-.0352-.0191-.0808-.0138-.1213.0166-.0939.0702-.0468.1787.0144.2577z"/><path fill="#485654" d="M35.3087 23.9193a.29.29 0 0 0 .079.0733c.0309.0188.0665.0316.1034.0282a.104.104 0 0 0 .0515-.0188.17.17 0 0 0 .0382-.04.12.12 0 0 0 .0201-.0524.12.12 0 0 0-.0073-.0561l-.0089.0054.0743.0936-.0006-.0073a.36.36 0 0 1-.0784.0903.18.18 0 0 1-.0508.0291.14.14 0 0 1-.057.0068c-.0388-.0031-.0764-.0188-.1098-.04a.37.37 0 0 1-.0884-.08.45.45 0 0 1-.0614-.1038c-.0153-.037-.0254-.0773-.021-.1166a.14.14 0 0 1 .0187-.0553.22.22 0 0 1 .0377-.0455.3.3 0 0 1 .1005-.0626l-.0065-.0019.0696.0827.0064-.0081a.1.1 0 0 0-.0531-.0112.13.13 0 0 0-.0515.0152c-.0313.017-.0589.044-.0697.0794-.0108.0353-.0037.0728.0096.1054a.37.37 0 0 0 .0552.0902l.0001.0001zm0-.0002a.38.38 0 0 1-.0519-.0914c-.0125-.0328-.0182-.0692-.007-.1021s.0379-.058.0676-.0736.0666-.0187.0958-.0024l.0064-.0081-.0683-.0839-.0026-.0032-.0039.0014a.295.295 0 0 0-.1059.0642.23.23 0 0 0-.0404.0485.15.15 0 0 0-.0208.0607c-.0051.043.0057.0856.0212.1242a.47.47 0 0 0 .0631.1078.38.38 0 0 0 .0926.083c.0351.022.0746.0384.1167.0416a.15.15 0 0 0 .0626-.0079.19.19 0 0 0 .0544-.0315.36.36 0 0 0 .081-.0947l.0022-.0038-.0027-.0035-.076-.0924-.009.0053a.11.11 0 0 1 .0075.0511.11.11 0 0 1-.0177.0486.16.16 0 0 1-.0355.0385.097.097 0 0 1-.0477.0189c-.0348.0042-.0701-.0073-.1008-.0249a.29.29 0 0 1-.0809-.0702z"/><path fill="#6c301e" d="m30.0911 17.1968 2.7072 3.0016c.2058.2302 2.564 2.767 2.7763 2.9956l.3046.4034c.1428.1747.296.4014.4821.6066.0326.0465.0796.0325.1203.0595.1249.0824.2521.2208.343.3341l.8182 1.0205c.0527.0645.0657.1034.0263.137l-.5007.6161c-.0915.0833-.194.1234-.2295.0477-.2039-.4052-.7289-1.0343-.9152-1.5204-.1113-.2904-.2432-.8139-.3492-.9442-.1298-.1629-.4812-.5847-.7925-.9611l-.0623-.0755-.0637-.0771-4.7423-5.5724c.0578-.0533.0213-.0215.0775-.0715z"/><path fill="#8c959d" d="M35.7245 23.1985c.0865.0075.1455-.0438.2063-.0908-.0839.0208-.1686.0491-.2452.012z"/><path fill="#b2b6ba" d="m27.2291 14.9388 2.163 2.0102c.0204.0281.0433.0216.0659.0033l.2138-.1643c-.0002-.0026-.0008-.0053-.0006-.008a.1.1 0 0 1 .0074-.0332l-.0956-.1097c-.0117-.0167-.0074-.0229.0106-.0391l.0438-.0413c.0168-.0119.0297-.0011.0449.0151l.0965.1119a.1017.1017 0 0 1 .0911.1036l3.7062 4.0929 1.5249 1.6393c.0534.0783.2939.2257.4522.3427.056.0414.1044.0789.1233.1181l.1117.3996c.037.0884.1583.2982.1634.3122l-.2871.2557c-.1218-.1528-.4493-.5383-.7466-.897-.024-.0289-.0254-.0319-.0557-.0732a.96.96 0 0 1 .1046-.1145 2.4 2.4 0 0 1 .089-.0746c.0181-.0145.0346-.0266.0465-.0373.0119-.0106-.0155-.0329-.0278-.0479l-5.2811-5.8199a.098.098 0 0 1-.0723-.0105l-.2088.222c-.0487.0448-.0879.042-.1245.0224l-2.1587-2.1783z"/><path fill="#485654" d="M35.7826 23.3669a.2.2 0 0 1-.0431.0001.105.105 0 0 1-.0401-.0138l.0011.0015-.0423-.1746-.0455-.1738-.0005.0019c.0146-.0154.0324-.0288.0535-.0332-.0214.003-.0405.0156-.0563.0305l-.0008.0008.0003.0011.0419.1747.0452.1738.0003.001.0008.0005a.1.1 0 0 0 .0421.0123.2.2 0 0 0 .0435-.0028z"/><path d="M35.276 23.223a.044.044 0 0 1-.042-.047.044.044 0 0 1 .046-.042.044.044 0 0 1 .042.047.044.044 0 0 1-.046.042m.252.284a.044.044 0 0 1-.042-.047.044.044 0 0 1 .046-.042.044.044 0 0 1 .042.047.044.044 0 0 1-.046.042"/><path fill="#485654" d="M35.1007 22.7514a.8.8 0 0 0 .0667-.0526l.0618-.0586a.8.8 0 0 0-.0667.0526z"/><path fill="#8c959d" d="m30.9838 17.9531-.2585.2334-.0435-.0446.2584-.2333z"/><path fill="#67923d" d="M29.1887 25.76c-.5584-.2405-1.909-.0485-2.0743.0675 1.1561.58 2.0971.3311 2.0743-.0675m6.3196.2404c.5584-.2405 1.909-.0486 2.0743.0675-1.1561.5779-2.0971.3311-2.0743-.0675"/><path fill="#406325" d="M29.1781 25.7686c.0228.3987-.9079.6433-2.0641.0654 1.0858.0675 1.9731.0274 2.0641-.0654m6.3409.2382c-.0228.3987.9079.6433 2.0641.0654-1.0858.0676-1.9731.0295-2.0641-.0654"/><path fill="#b2b6ba" d="M34.4833 25.3712c-1.4719-2.1808-3.6912-3.9541-5.4026-4.9228.2525-.0121.8135.281 1.0414.4307 1.6996 1.117 3.1449 2.5923 4.6616 4.3313a2.5 2.5 0 0 1-.2446.221l-.0558-.0601z"/><path fill="#8c959d" d="m34.6295 25.3537-.103.101c-1.6335-2.1446-3.9111-4.1955-5.4428-5.0053 2.1355 1.0032 3.9323 3.0243 5.5397 4.8981z"/><path fill="#485654" d="m34.6304 25.3538-.1027.1011-.0003.0003-.0002-.0003c-.3781-.494-.7792-.9694-1.1972-1.4285a24.3 24.3 0 0 0-1.304-1.3277c-.4512-.4251-.9188-.8323-1.4063-1.2135a14 14 0 0 0-.7484-.5476c-.2557-.1735-.518-.3368-.7904-.481l.0068-.0142c.5603.2638 1.089.5933 1.5885.9616s.9709.7758 1.4219 1.2041c.4509.4284.8818.8786 1.3011 1.3393s.8255.9334 1.2312 1.4064m0 0-1.2367-1.4012c-.42-.4598-.8512-.9091-1.3026-1.3368s-.9228-.8337-1.4224-1.2013c-.4995-.367-1.0279-.6953-1.5874-.9578l.0068-.0142c.273.1448.5353.3092.7911.483.2558.1737.5046.3582.7484.5491.4873.3822.9544.7905 1.4055 1.2163.4509.426.8854.8697 1.3027 1.33.4166.4607.8156.9381 1.1919 1.4335h-.0005z"/><path fill="#fab81c" d="M35.1229 25.015q-.2102.0556-.3734.1612c-.0161.1011-.1386.2142-.2546.2398l-.042-.0558c-.0027-.0036-.0072-.0053-.012-.0028l-.0407.0246c-.0433-.0074-.0949.0143-.1179.0706-.0268.0702.0274.1628.0869.2233.0656.0528.0985.0774.1744.0666.077-.0162.1194-.0878.1368-.1106.2641.326.4626.502.7971.7704.149.0012.229-.0946.1789-.203-.0164-.0363-.0597-.0604-.0945-.0472a.08.08 0 0 0 0-.0326c.1748-.1639.2494-.3684.0649-.7149-.1579-.2917-.3345-.3907-.5031-.3895h-.0009zm.4434.3281c.0311.0536.0491.0999.0727.1486.1053.2172.0139.4781-.1657.558-.0088-.0003-.0061-.0015-.0151.0016.0293-.0497-.0588-.1559-.1038-.1186.0213-.055-.0475-.1462-.1038-.1227.0295-.0511-.0378-.138-.1008-.1097.0326-.0555-.023-.1351-.0881-.1207.0196-.0591-.0297-.1269-.096-.1157.0056-.0523-.0112-.0811-.036-.1049.079-.0613.1666-.1557.2441-.1982.1932-.0854.3125.0776.3923.1822z"/><path fill="#fab81c" d="M35.6474 25.5722c-.0365-.0182-.0535-.0548-.0416-.0797s.0497-.0312.0862-.0129c.0364.0184.0567.0537.0448.0786-.0119.0248-.0529.0324-.0895.0141z"/><path fill="#fab81c" d="M35.626 25.4984c-.0364-.0183-.0535-.0549-.0415-.0797.0119-.0249.0497-.0313.0861-.0129.0365.0184.0567.0537.0448.0785s-.0529.0325-.0894.0141"/><path fill="#fab81c" d="M35.5821 25.4165c-.0365-.0182-.0535-.0548-.0416-.0797s.0497-.0313.0862-.0129.0567.0537.0448.0786c-.012.0248-.0529.0324-.0895.0141z"/><path fill="#fab81c" d="M35.5268 25.3427c-.0365-.0183-.0535-.0549-.0416-.0798s.0497-.0312.0862-.0128.0567.0537.0448.0785-.0529.0324-.0894.0142z"/><path fill="#fab81c" d="M35.454 25.271c-.036-.018-.053-.055-.041-.08.002-.003.001-.01.004-.008.015.008.046.014.042-.01-.005-.008-.01-.016-.005-.01.011 0 .033.01.045.016.037.018.057.054.045.079s-.053.033-.089.014zm-.773.362c.049-.128.145-.247.249-.276zm.016.018c.09.019.235-.09.27-.187zm.085.105c.118.028.234-.088.279-.174zm.106.114c.139.005.225-.096.266-.173zm.107.111c.118.001.225-.098.259-.176zm.104.101c.128-.005.219-.065.257-.15zm.116.103c.118.007.213-.065.244-.135zm.126.105c.118.007.191-.067.223-.137z"/><path fill="#6c301e" d="M34.681 25.632a.53.53 0 0 1 .093-.168.4.4 0 0 1 .07-.066.24.24 0 0 1 .086-.041.28.28 0 0 0-.082.046.43.43 0 0 0-.067.066.67.67 0 0 0-.098.163zm.016.018c.029.004.057-.003.084-.014a.35.35 0 0 0 .074-.043.4.4 0 0 0 .064-.058.27.27 0 0 0 .048-.072.23.23 0 0 1-.043.076.37.37 0 0 1-.064.06.32.32 0 0 1-.077.042c-.028.01-.057.016-.086.008m.085.105a.18.18 0 0 0 .085-.006.27.27 0 0 0 .076-.04.4.4 0 0 0 .065-.058.44.44 0 0 0 .053-.07.34.34 0 0 1-.048.074.38.38 0 0 1-.065.061.26.26 0 0 1-.079.039.16.16 0 0 1-.087.001m.106.114a.3.3 0 0 0 .081-.013.27.27 0 0 0 .073-.037.33.33 0 0 0 .062-.055.5.5 0 0 0 .049-.068.327.327 0 0 1-.106.13.237.237 0 0 1-.159.044m.107.111c.054-.003.106-.024.15-.055a.37.37 0 0 0 .061-.053.3.3 0 0 0 .048-.067.24.24 0 0 1-.043.071.35.35 0 0 1-.061.056.3.3 0 0 1-.073.038.21.21 0 0 1-.081.011m.104.101a.5.5 0 0 0 .077-.013.33.33 0 0 0 .072-.028.254.254 0 0 0 .109-.109.21.21 0 0 1-.042.067.25.25 0 0 1-.063.048.315.315 0 0 1-.152.035m.116.103a.32.32 0 0 0 .072-.009.28.28 0 0 0 .068-.026.27.27 0 0 0 .059-.042.22.22 0 0 0 .045-.058.18.18 0 0 1-.041.062.26.26 0 0 1-.06.045.26.26 0 0 1-.07.025.24.24 0 0 1-.074.003m.126.105a.27.27 0 0 0 .068-.009.233.233 0 0 0 .115-.071.3.3 0 0 0 .04-.057.22.22 0 0 1-.088.108.21.21 0 0 1-.065.026.21.21 0 0 1-.069.003z"/><path fill="#b2b6ba" d="M30.3381 25.1856c1.5963-2.0873 3.9151-3.7226 5.6799-4.5857-.2513-.0273-.8285.2311-1.0647.3667-1.7616 1.0118-3.2904 2.3966-4.9057 4.0404.0839.0954.1392.152.2313.2354l.0592-.0566z"/><path fill="#8c959d" d="m30.1932 25.1593.097.107c1.7555-2.0414 4.1486-3.9502 5.7248-4.6656-2.1902.8717-4.1016 2.78-5.8153 4.5528z"/><path fill="#485654" d="m30.1924 25.1594.0967.1072.0002.0003.0003-.0003c.4062-.4702.8342-.9203 1.2783-1.3532a24.2 24.2 0 0 1 1.379-1.2461c.4752-.3969.9657-.775 1.4746-1.1259a14 14 0 0 1 .779-.5011c.2653-.1577.5367-.3048.817-.4322l-.006-.0146c-.5747.2294-1.1216.5262-1.6417.8634-.5201.3373-1.0144.7155-1.4895 1.1156-.4752.4002-.9315.8235-1.3769 1.2578s-.8785.8816-1.311 1.3291m0 0 1.3161-1.3235c.4461-.4335.9028-.8558 1.3783-1.2553.4754-.3995.9697-.7762 1.4899-1.1127.52-.3361 1.0665-.6317 1.6404-.8597l-.006-.0146c-.2809.128-.5524.2761-.8178.4341a13.7 13.7 0 0 0-.7791.5027c-.5087.3519-.9988.7311-1.4739 1.1287a24 24 0 0 0-1.3779 1.2484 21.7 21.7 0 0 0-1.2733 1.3586l.0004.0001z"/><path fill="#fab81c" d="M29.7203 24.7917q.2066.0681.3634.1835c.0102.1019.1259.2222.2402.2548l.0452-.0532a.009.009 0 0 1 .0121-.002l.0393.027c.0436-.0048.0939.0201.1135.0777.0227.0716-.0368.1608-.0997.2176-.0686.0487-.1028.0712-.1781.0559-.0758-.0209-.114-.0949-.13-.1188-.2827.3094-.4911.473-.8407.7206-.1488-.0079-.2231-.1083-.1668-.2135.0185-.0352.0631-.0567.0971-.0413a.08.08 0 0 1 .0019-.0326c-.1649-.1742-.2275-.3829-.0232-.7174.1746-.2816.3567-.3698.525-.3583l.0009.0001zm-.4618.3005c-.0341.0517-.0548.0967-.0812.144-.1177.2103-.0417.4763.133.567.0087.0001.0061-.0012.015.0025-.0264-.0515.0676-.1521.1104-.1122-.0181-.0561.0559-.143.1108-.1161-.0265-.0528.0458-.1354.107-.1034-.0292-.0574.0308-.1334.0951-.1151-.0162-.0602.037-.1249.1025-.1096-.0025-.0526.0159-.0803.0421-.1026-.0754-.066-.1573-.1655-.2322-.2126-.1879-.097-.3166.0585-.4023.158z"/><path fill="#fab81c" d="M29.1643 25.3161c.0375-.016.0566-.0515.0461-.0771-.0105-.0255-.0478-.0341-.0852-.018-.0375.0161-.0597.0501-.0493.0756s.0509.0357.0885.0196z"/><path fill="#fab81c" d="M29.19 25.2436c.0374-.016.0566-.0515.0461-.077s-.0478-.0342-.0853-.018c-.0374.0161-.0597.0501-.0493.0756s.0509.0356.0885.0195z"/><path fill="#fab81c" d="M29.2387 25.1647c.0374-.0161.0566-.0515.0461-.0771s-.0478-.0342-.0853-.0181-.0598.0502-.0493.0757.0509.0356.0885.0195"/><path fill="#fab81c" d="M29.2983 25.0941c.0376-.016.0567-.0515.0462-.0771s-.0478-.0341-.0853-.0181c-.0375.0161-.0597.0502-.0493.0757s.0509.0356.0884.0196z"/><path fill="#fab81c" d="M29.376 25.027c.037-.016.057-.051.046-.077-.001-.003 0-.01-.003-.008-.015.007-.046.011-.042-.012.005-.008.011-.016.006-.01-.011 0-.033.008-.046.013-.037.016-.06.05-.049.076s.051.036.089.02zm.75.408c-.041-.131-.131-.255-.233-.29zm-.017.017c-.091.014-.229-.104-.259-.203zm-.09.1c-.119.02-.228-.102-.269-.191zm-.112.108c-.139-.004-.219-.109-.255-.189zm-.113.104c-.118-.006-.219-.112-.248-.191zm-.109.095c-.128-.013-.215-.078-.248-.166zm-.122.096c-.118 0-.209-.078-.236-.149zm-.132.097c-.118 0-.187-.079-.214-.151z"/><path fill="#6c301e" d="M30.126 25.434a.52.52 0 0 0-.083-.173.4.4 0 0 0-.066-.07.24.24 0 0 0-.083-.046.28.28 0 0 1 .08.05.43.43 0 0 1 .063.07.67.67 0 0 1 .089.169m-.017.018c-.029.002-.057-.007-.083-.019a.34.34 0 0 1-.072-.047.4.4 0 0 1-.06-.062.27.27 0 0 1-.044-.075.23.23 0 0 0 .039.079.37.37 0 0 0 .06.064.33.33 0 0 0 .074.047c.027.012.057.019.085.014m-.09.1a.18.18 0 0 1-.085-.011.27.27 0 0 1-.074-.044.4.4 0 0 1-.061-.062.44.44 0 0 1-.048-.073.34.34 0 0 0 .044.077.38.38 0 0 0 .061.065.26.26 0 0 0 .077.044.16.16 0 0 0 .087.006m-.112.108a.3.3 0 0 1-.08-.018.27.27 0 0 1-.071-.041.33.33 0 0 1-.058-.059.5.5 0 0 1-.045-.071.33.33 0 0 0 .099.136.26.26 0 0 0 .074.041.24.24 0 0 0 .083.013m-.113.104c-.054-.006-.104-.03-.146-.064a.37.37 0 0 1-.058-.057.3.3 0 0 1-.044-.069.24.24 0 0 0 .039.073.34.34 0 0 0 .058.06.3.3 0 0 0 .071.042.21.21 0 0 0 .08.016m-.109.095a.5.5 0 0 1-.076-.018.32.32 0 0 1-.07-.032.257.257 0 0 1-.102-.115.21.21 0 0 0 .038.07.25.25 0 0 0 .06.052.315.315 0 0 0 .15.044m-.122.096a.32.32 0 0 1-.072-.013.285.285 0 0 1-.123-.076.22.22 0 0 1-.042-.06.18.18 0 0 0 .037.065.26.26 0 0 0 .057.048.27.27 0 0 0 .068.029.24.24 0 0 0 .073.007m-.132.097a.27.27 0 0 1-.068-.013.22.22 0 0 1-.061-.031.23.23 0 0 1-.05-.047.3.3 0 0 1-.036-.059.22.22 0 0 0 .082.113.207.207 0 0 0 .133.037"/><path fill="#406325" d="M27.4376 16.685c.5119-.1714 1.3297-1.1189 1.3828-1.2973-1.107.3008-1.6156 1.0385-1.3828 1.2973m10.3463.3403c-.1209-.5101-.9427-1.3765-1.1052-1.4417.1961 1.0977.8459 1.6479 1.1052 1.4417"/><path fill="#67923d" d="M27.4375 16.685c-.2361-.2587.2691-.9894 1.3729-1.2902-.7779.6084-1.363 1.1713-1.3729 1.2902m10.3462.3403c-.2595.2094-.903-.3369-1.0993-1.4314.5085.8017.9891 1.4127 1.0993 1.4314"/><path fill="url(#b)" d="M30.4878 22.3382s-.4372.048-.5597-.5672c-.131-.6578.3767-.7278.3767-.7278s.5752-.0565.9335-.0658l.159 1.2999z"/><path fill="url(#c)" d="M30.5453 22.1399s-.2829.0552-.3412-.4021c-.0414-.3238.1551-.3697.1551-.3697l.6557.1132.0035.5967z"/><path fill="url(#d)" d="m30.3594 21.3681.6381-.0601.091.4135-.5042.0322s-.0345-.3733-.2249-.3856"/><path fill="url(#e)" d="M30.2712 21.0538s.5378-.1344.6047.4699c.0174.1579-.0668.5189-.3306.6164l.985-.1055-.0892-1.0866-.3318.0283s-.7045.0247-.8381.0775"/><path fill="#f9f0aa" d="M30.4872 22.3382c.0033 0 3.6846-.2527 4.0619-.237 1.1176-.6254-.0054-3.0814-.9472-4.4551.1076-.3096-2.1196-1.0059-3.1269-.943l-.3659.0256c-.5464.0591-.552.7743-.3292 1.2253.2162.4375 2.1521 3.9913.7908 4.3672z"/><path fill="url(#f)" d="M34.4335 19.0975a10.8 10.8 0 0 0-.8318-1.4514c.1075-.3096-2.1198-1.0059-3.127-.943l-.3659.0256c-.5463.0591-.5519.7743-.3292 1.2253.0679.1374.3054.582.557 1.1391"/><path d="M34.4335 19.0975a10.8 10.8 0 0 0-.8318-1.4514c.1075-.3096-2.1198-1.0059-3.127-.943l-.3659.0256c-.5463.0591-.5519.7743-.3292 1.2253.0679.1374.3054.582.557 1.1391"/><path fill="url(#g)" d="M30.6887 19.9381c.3944 1.0607.6151 2.1806-.1165 2.3826l-.0836.0171c.0034 0 3.6847-.2528 4.0619-.237.6061-.3392.5532-1.2167.2277-2.168"/><path d="M30.6887 19.9381c.3944 1.0607.6151 2.1806-.1165 2.3826l-.0836.0171c.0034 0 3.6847-.2528 4.0619-.237.6061-.3392.5532-1.2167.2277-2.168"/><path fill="url(#h)" d="M30.1464 16.9363c-.263 0-.3305.2579-.3269.4211.0095.4279.3269.4484.3269.4484l.4234-.0241.2029-.8806z"/><path fill="url(#i)" d="m30.1464 16.9391.6262-.0352.0645.6579-.5463.0244s.1768-.5267-.1444-.647z"/><path fill="url(#j)" d="M33.6051 17.6458c.4745-.0778.4682-.729.1438-.99-1.1002-.0412-2.5482-.0103-3.5943.0694.119-.0034.4499.0273.4867.4715.0172.2073-.0827.3975-.2173.5058-.1315.1058-.2773.1058-.2773.1058.0176.0069.1535.0005.2555-.0063a5 5 0 0 0 .2168-.0239c1.4917-.2 2.9807-.132 2.9807-.132l.0057.0002z"/><path fill="#b07e09" d="M30.932 18.669c-.01-.024-.023-.054-.052-.058-.018.001-.046-.004-.04-.028.017-.008.038-.003.056-.005.04.001.079-.008.119-.011.024.007.019.039-.007.034-.029.007-.012.041-.005.059l.094.225c.009.022.027.042.051.044.026.003.054.003.077-.008.022-.014.017-.045.014-.068-.009-.026.038-.02.035.003l.032.092c-.002.014-.02.01-.03.012l-.211.016c-.023-.001-.056.02-.07-.007-.008-.028.036-.012.042-.033 0-.024-.014-.045-.022-.066zm.343-.025c-.01-.023-.021-.052-.049-.058-.018-.002-.046-.001-.044-.027.011-.012.032-.004.048-.007.042.001.083-.006.125-.01.021-.002.028.038.002.032-.025.001-.027.029-.016.047l.102.247c.008.018.017.04.038.043.018.004.046-.002.05.023-.003.019-.031.009-.045.012-.037-.003-.074.002-.11.009-.016.005-.039.002-.04-.019.004-.02.041-.005.043-.029-.003-.024-.015-.045-.023-.067zm.317.051c.006.016.029.005.042.005.019-.002.039-.015.037-.037a.124.124 0 0 0-.045-.086c-.024-.017-.055-.015-.083-.012-.002.011.007.022.01.033zm.047.116c.012.025.02.054.04.074.017.012.04.007.06.005.022-.001.034-.024.027-.044-.01-.046-.039-.094-.088-.104a.17.17 0 0 0-.065 0c-.002.01.007.021.01.031zm-.144-.172c-.011-.025-.022-.055-.049-.067-.017-.006-.046.002-.049-.023.005-.022.04-.007.057-.012.061-.002.124-.019.184 0 .052.013.099.059.103.115.002.027-.018.05-.041.061-.003-.01.026.004.036.006.041.014.079.042.098.083.014.029.025.067.003.095-.026.029-.067.03-.102.032-.053.002-.107.002-.159.013-.019.003-.032-.035-.006-.032.026-.001.029-.03.017-.048zm.527-.138c.023-.004.025.023.033.039.007.021.02.039.025.06-.02.02-.036-.01-.044-.026-.01-.018-.027-.034-.049-.033a.6.6 0 0 0-.086.005c-.01.012.005.029.008.042l.04.097c.019-.002.044.001.058-.015.005-.017-.019-.054.015-.046.021.012.019.044.03.064.009.028.027.052.035.081-.019.021-.037-.009-.044-.026-.013-.025-.044-.022-.068-.021-.017-.004-.005.012-.003.021.015.036.027.073.047.107.015.025.046.021.071.02.023-.001.052-.002.066-.024.015-.018-.019-.054.009-.06.025-.002.024.027.03.044.005.02.013.04.02.06-.002.015-.02.01-.03.012l-.217.014c-.021 0-.057.017-.064-.014.002-.021.046-.01.039-.039-.005-.025-.018-.048-.026-.072l-.08-.195c-.01-.021-.026-.045-.052-.045-.017.003-.043-.009-.033-.029.025-.005.05-.001.076-.004l.197-.012zm.164.096c-.011-.025-.021-.056-.048-.067-.018-.006-.052.001-.049-.028.017-.014.047-.002.069-.006.057-.001.115-.017.171 0 .059.017.108.07.112.133.002.03-.022.054-.049.062-.021.001.016.007.022.014.045.022.076.064.1.107.005.016.037.05.042.018-.002-.035.045-.005.035.019 0 .026-.025.043-.048.042-.033.003-.064-.017-.081-.045-.03-.04-.05-.089-.09-.12-.016-.012-.04-.019-.059-.011-.004.01.005.02.007.03.013.03.022.061.039.089.014.022.042.026.066.026.026.007.018.042-.009.031-.042 0-.083-.003-.124.006-.019.009-.061.001-.046-.027.02-.001.048-.012.034-.038l-.074-.188-.018-.045zm.1.065c.01.024.042.011.061.008.025-.006.025-.037.017-.056-.012-.034-.026-.074-.063-.086-.019-.003-.06-.015-.063.011l.045.115zm.512.124c.008.019.015.044.038.048.018.004.047-.002.051.024-.003.019-.031.008-.045.01-.038-.004-.076.001-.114.006-.016.005-.039-.002-.037-.023.009-.015.046-.003.044-.029-.006-.029-.02-.056-.029-.083l-.081-.209c-.007-.022-.031-.021-.05-.02-.019 0-.048.005-.048.03-.006.017.015.045-.003.053-.021.005-.026-.02-.03-.035-.007-.023-.018-.045-.027-.067.003-.015.023-.013.035-.014l.293-.013c.022-.003.036.014.037.035.008.024.019.047.029.071-.008.024-.036.003-.039-.014-.014-.025-.036-.05-.067-.051-.018.001-.046-.006-.058.011.001.017.01.033.016.049l.087.223zm.265-.066c-.014 0-.007.018-.008.027.001.021-.001.041.002.061.009.022.037.017.056.023.016.01.012.036-.01.028-.03-.002-.06-.005-.09.002-.018.01-.051-.009-.035-.028.014-.002.032-.007.035-.024.005-.03.002-.061.003-.091l.002-.269c.009-.02.036-.003.043.012l.255.328a.077.077 0 0 0 .055.03c.018 0 .029.039.002.031-.036-.002-.073-.005-.109.002-.016.001-.035.008-.049-.002-.017-.013-.005-.031.014-.029.025-.007 0-.035-.008-.047l-.042-.054c-.012-.006-.026-.002-.04-.002zm.083-.037c.013.001-.004-.011-.006-.017l-.09-.12c.006-.001.001.013.003.019v.122zm.217-.134c-.011-.029-.025-.064-.058-.071-.017.003-.05-.013-.032-.032l.117-.001c.05-.004.101-.003.148.015.104.036.19.129.207.241.008.044-.006.094-.044.119-.052.034-.117.028-.175.024-.033-.002-.067.003-.1.006-.022-.003-.024-.037.002-.033.026-.001.026-.03.016-.048zm.14.181c.011.025.017.055.04.071.022.01.047.008.07.006.031-.004.051-.036.051-.066.002-.054-.02-.107-.045-.154-.027-.051-.075-.089-.131-.099-.023-.004-.047-.007-.07-.003-.005.009.004.02.006.029zm-1.499.899a.068.068 0 0 0 .057.046c.018.003.05-.001.051.026-.01.017-.038.005-.055.009a.6.6 0 0 0-.11.007c-.02.001-.04.009-.059.004-.017-.008-.014-.034.008-.031.018-.004.043-.01.044-.032-.002-.021-.013-.039-.02-.058l-.082-.199c-.006-.023-.032-.024-.051-.021-.018.003-.044.009-.048-.016.002-.021.035-.017.05-.028l.067-.026c.015-.003.023.011.027.023zm.053-.327c.048-.002.097.006.145 0 .021-.002.007-.036.027-.034.026.001.022.035.024.054a.038.038 0 0 1-.024.04.04.04 0 0 1-.016.002c-.038.002-.076-.004-.113-.001.009.03.021.059.032.088.002-.01.033-.011.045-.013.076-.003.154.041.186.112.015.035.023.08-.002.112-.027.033-.073.04-.113.04-.035 0-.075-.008-.096-.04-.012-.015-.01-.049.016-.046.022 0 .047.019.043.043.012.016.037.01.055.01.021-.001.042-.017.04-.04.001-.035-.013-.07-.032-.098-.021-.031-.056-.051-.092-.05-.021-.004-.039.011-.059.011-.02-.003-.024-.026-.031-.042l-.046-.131a.011.011 0 0 1 .013-.013m.486.074c-.011-.029-.026-.064-.06-.07-.017.004-.05-.012-.033-.031l.119-.005c.05-.006.102-.005.15.013.106.036.192.132.208.245.006.042-.008.09-.045.113-.051.034-.114.029-.172.027-.032 0-.064.005-.096.009-.021-.002-.025-.036.001-.033.026-.002.024-.032.014-.049zm.144.178c.011.025.018.055.042.07.021.01.046.007.069.004.031-.005.049-.038.048-.068 0-.055-.023-.107-.049-.154-.028-.05-.076-.088-.133-.096-.023-.003-.047-.006-.07-.002-.005.009.005.02.007.029zm.457-.308c.022-.004.025.021.031.037.007.021.017.04.025.06-.013.023-.036-.004-.042-.02-.01-.018-.025-.038-.048-.037a.7.7 0 0 0-.088.003c-.016.007.001.028.004.041l.039.098c.019-.001.041.001.057-.011.012-.015-.019-.053.015-.049.023.009.02.041.03.061.009.029.025.054.035.083-.012.024-.038-.004-.042-.022-.01-.023-.037-.026-.059-.025-.015-.003-.026.001-.016.016.015.037.027.076.047.112.014.025.046.022.071.022.023-.001.052 0 .067-.023.015-.018-.014-.048.006-.059.024-.007.03.02.033.038.005.022.013.044.021.065-.002.014-.02.01-.03.011l-.219.009c-.02-.001-.049.015-.062-.008-.013-.029.036-.013.038-.038.002-.022-.011-.041-.018-.062l-.081-.21c-.01-.023-.026-.048-.053-.049-.017.003-.043-.01-.032-.03.025-.004.052 0 .077-.002l.197-.008zm-1.937 1.034c.011.035.047.05.079.059.055.019.114.038.152.084.022.027.037.062.035.097-.003.036-.033.063-.066.072a.174.174 0 0 1-.123-.007c-.019-.008-.012.034-.035.02-.017-.013-.012-.04-.021-.059a.7.7 0 0 0-.027-.07c.001-.024.034-.011.035.007.023.043.066.081.116.082.025.001.057-.013.06-.042.001-.039-.03-.069-.061-.086-.045-.024-.098-.032-.142-.059-.039-.024-.067-.069-.067-.116.001-.032.026-.056.054-.065a.183.183 0 0 1 .111-.004c.017.009.024-.02.042-.006.008.014.006.033.014.049.006.021.019.039.024.06-.011.018-.033.001-.037-.015-.016-.026-.037-.056-.07-.058-.025-.002-.056-.002-.071.021a.044.044 0 0 0-.002.037zm.475-.119c.023-.004.024.023.03.038.006.02.015.038.021.058-.01.021-.035.002-.038-.015-.01-.019-.024-.041-.048-.04a.7.7 0 0 0-.087.005c-.016.007 0 .028.002.041l.033.098c.019-.001.041-.001.057-.013.014-.015-.014-.044.01-.05.027-.003.024.032.031.05.007.033.024.062.033.093-.01.023-.038.001-.039-.018-.008-.024-.034-.029-.056-.027-.013-.001-.03-.001-.02.015l.039.11c.009.021.032.025.052.023.028-.002.06.001.082-.02.017-.017.003-.042.007-.062.018-.014.037.005.036.025a.7.7 0 0 0 .019.074c-.003.015-.021.01-.032.012l-.217.017c-.02-.001-.049.017-.061-.006-.011-.028.032-.015.038-.036s-.007-.041-.012-.062l-.071-.213c-.008-.022-.023-.048-.05-.048-.017.004-.042-.01-.03-.029.025-.005.051-.002.076-.005l.197-.014zm.297.3c.006.022.019.046.043.051.018.006.047-.005.052.021-.001.024-.035.011-.05.015a.44.44 0 0 0-.108.008c-.015.002-.039.008-.043-.014-.004-.024.033-.011.041-.029.006-.019-.005-.037-.01-.055l-.072-.218c-.008-.021-.019-.049-.045-.051-.016-.001-.045-.002-.04-.027.012-.012.035-.004.051-.006.052.001.103-.014.155-.01.053.002.105.037.123.089.012.029.016.066-.006.092-.027.033-.072.04-.112.045-.015-.002-.003.014-.002.022zm-.041-.125c.015.002.033-.002.048-.006.022-.004.034-.029.028-.05-.006-.03-.016-.063-.039-.085-.021-.018-.053-.019-.079-.012-.01.009 0 .023.003.034zm.437.104c.006.018.012.044.035.047.018.004.047-.003.049.023-.004.019-.031.008-.046.011-.038-.003-.076.002-.114.008-.016.006-.039-.002-.035-.023.01-.015.046-.004.046-.03-.004-.028-.015-.055-.023-.082l-.067-.21c-.005-.022-.03-.021-.048-.019s-.044.003-.049.025c-.006.018.003.039-.001.056-.017.012-.033-.006-.032-.024a.5.5 0 0 0-.024-.072c-.001-.017.022-.016.034-.017l.294-.018c.021-.004.035.014.034.034.006.024.016.047.025.071-.005.021-.034.009-.036-.009-.012-.026-.032-.053-.062-.055-.02 0-.044-.004-.061.009-.004.015.006.029.009.043zm.149-.238c-.007-.022-.016-.05-.04-.057-.017-.004-.046.001-.044-.026.007-.015.03-.006.043-.009.043.002.085-.004.127-.009.019-.009.034.031.011.031-.018 0-.039.014-.031.034.009.039.023.076.035.114l.051.159c.005.017.018.031.035.032.017 0 .047.002.042.027-.013.011-.034.004-.05.006-.038-.003-.076.004-.114.008-.016.007-.038-.01-.028-.027.015-.007.046-.003.044-.028-.005-.03-.017-.058-.025-.087l-.053-.169zm.409-.116c.023-.004.024.022.029.038.006.02.014.039.02.059-.01.021-.035.001-.038-.016-.009-.019-.023-.042-.047-.041a.7.7 0 0 0-.087.004c-.016.007-.001.028.001.041l.031.098c.019-.001.041 0 .057-.012.014-.014-.013-.044.011-.05.027-.003.024.032.03.05.006.033.023.062.031.093-.008.021-.037.003-.037-.015-.007-.023-.03-.033-.052-.031-.01.001-.036-.005-.025.012l.038.112c.008.021.032.026.051.024.028-.001.06.002.083-.019.018-.016.004-.042.008-.061.018-.014.037.006.035.025a.7.7 0 0 0 .018.074c-.003.014-.02.01-.03.012l-.22.012c-.019-.001-.046.015-.059-.005-.015-.028.027-.018.036-.035.01-.019-.003-.04-.008-.059l-.068-.216c-.008-.023-.022-.051-.05-.052-.017.004-.042-.01-.03-.03.024-.005.05-.001.075-.003l.199-.011zm.142.07c-.005-.026-.024-.049-.052-.045-.027.007-.035-.041-.002-.031.036 0 .073-.006.109.003.017.019.031.042.047.062l.154.21c-.011.003-.002-.013-.004-.022l.025-.256c.019-.016.052-.009.077-.015.02-.003.066-.01.053.025-.024.004-.055.016-.038.047l.079.259c.005.03.035.04.061.038.023.001.024.041-.003.031-.042-.001-.084-.004-.126.005-.019.007-.058.004-.045-.026.021-.004.056-.01.042-.041l-.07-.23c.005.007-.001.019 0 .027l-.021.215c-.003.019.004.042-.005.058-.017.008-.027-.008-.036-.02l-.203-.268c.007-.003.006.015.01.021l.065.209c.007.028.035.036.06.037.027.014.007.04-.016.029-.035-.005-.071.002-.106.006-.022-.001-.023-.037.002-.032.033 0 .023-.038.015-.058l-.073-.237.003-.001zm.621.062c.004.016.026.005.037.007.02-.001.044-.013.045-.036.001-.031-.011-.065-.035-.086-.023-.018-.055-.017-.082-.014-.003.011.004.022.007.033zm.035.116c.009.025.014.054.032.074.017.013.04.008.06.006.018-.001.035-.017.033-.036-.002-.043-.022-.091-.064-.108-.024-.009-.051-.009-.076-.007-.008.007.003.021.004.031zm-.126-.174c-.008-.025-.016-.056-.042-.068-.017-.006-.046.001-.047-.024.006-.021.039-.006.055-.01.063.001.128-.016.189.005.049.013.091.059.091.113 0 .03-.024.052-.049.063-.002-.01.026.005.036.007.038.014.072.04.087.079.013.03.02.069-.003.096-.026.029-.067.031-.103.032-.056 0-.112-.001-.168.008-.02.003-.028-.036-.003-.032.026 0 .033-.027.023-.047zm.355-.013c-.008-.025-.015-.056-.041-.068-.017-.006-.049.001-.047-.027.014-.018.047-.003.068-.007.048 0 .096-.009.144-.003.056.007.11.047.124.104.01.031.004.069-.025.086-.006.007-.037.014-.032.014a.192.192 0 0 1 .1.092c.011.019.017.042.033.058.019.014.021-.012.024-.024.025-.013.038.023.027.042-.01.031-.048.037-.075.029-.024-.006-.043-.025-.054-.047-.024-.039-.039-.085-.073-.117-.016-.014-.04-.022-.06-.014-.005.01.003.021.005.031.009.028.015.058.027.085.011.024.039.03.062.03.023-.001.025.041-.002.031-.043 0-.087-.005-.13.002-.016 0-.038.01-.048-.007-.015-.03.03-.017.04-.034.006-.02-.004-.041-.009-.06zm.093.066c.007.024.039.011.057.01.021-.002.033-.024.028-.043-.005-.032-.014-.068-.039-.091-.022-.016-.051-.016-.077-.012-.011.009-.001.025.001.036zm.489-.184c.022-.003.023.022.027.037.005.02.013.04.018.06-.01.019-.035.002-.036-.015-.009-.019-.021-.043-.044-.044a.7.7 0 0 0-.091 0c-.017.006-.002.028 0 .041l.028.099c.018 0 .038.001.055-.007.02-.011-.008-.043.013-.051.027-.006.026.029.03.046.005.034.021.064.029.097-.009.02-.038.002-.037-.016a.0455.0455 0 0 0-.047-.032c-.01.002-.039-.009-.031.01l.035.114c.008.021.031.026.051.026.028 0 .061.005.084-.016.019-.015.005-.042.01-.06.018-.013.038.006.035.026a.7.7 0 0 0 .015.074c-.004.014-.021.009-.032.01l-.221.005c-.019-.002-.043.011-.058-.004-.019-.027.021-.022.034-.034.013-.016.002-.037-.002-.055l-.063-.222c-.007-.022-.019-.049-.045-.052-.017.001-.043-.007-.034-.029.021-.008.047 0 .069-.002l.209-.004zm-2.33.951c-.007-.027-.015-.062-.046-.069-.017 0-.046-.004-.035-.028.022-.009.048-.002.071-.005.058-.003.117-.018.175-.002.085.02.158.086.183.172.016.053.019.116-.016.162-.037.048-.1.062-.157.062-.044 0-.088-.001-.131.008-.017.01-.045-.007-.03-.026.018-.005.048-.011.042-.037l-.026-.11zm.117.177c.007.023.01.051.029.068.02.012.044.007.065.005.033-.004.058-.035.063-.067.01-.055-.006-.111-.027-.161a.147.147 0 0 0-.103-.088.21.21 0 0 0-.082-.003c-.006.008.002.02.003.029zm.501-.321c.023-.004.022.022.026.037.004.02.011.039.015.059-.009.019-.035.004-.035-.013-.008-.018-.019-.042-.042-.042a.65.65 0 0 0-.091.004c-.017.006-.003.028-.002.041l.024.098c.02-.001.042 0 .058-.012.015-.014-.009-.045.015-.05.027-.003.022.032.026.05.004.032.018.062.024.093-.008.021-.038.004-.036-.015-.005-.023-.029-.033-.05-.03-.01.002-.035-.005-.026.013.01.037.016.076.029.112.007.021.031.025.049.024.03-.002.064.002.087-.022.017-.016.001-.044.012-.06.021-.012.034.01.032.03a.7.7 0 0 0 .012.071c-.004.014-.022.01-.033.012l-.218.014c-.018-.001-.039.011-.055.001-.018-.02.007-.03.023-.032.021-.007.019-.032.013-.049l-.056-.235c-.006-.022-.017-.049-.042-.051-.017.002-.043-.006-.033-.028.021-.009.046-.002.069-.005zm.461.297a.053.053 0 0 0 .042.045c.017.007.043-.003.052.018.007.025-.027.017-.042.018a.7.7 0 0 0-.122.005c-.02.001-.041.007-.061.005-.02-.008-.011-.036.011-.032.019-.004.045-.009.05-.032.002-.019-.006-.038-.009-.057l-.046-.2c-.002-.024-.027-.024-.045-.021-.016.001-.042.012-.047-.012-.003-.024.033-.019.048-.029l.079-.027c.015-.003.021.011.023.023l.068.298zm.26-.246c-.005-.026-.02-.057-.049-.061-.021-.004-.048.002-.055.025a.068.068 0 0 0 .026.074c.019.014.042.023.064.033.004-.009.018-.025.017-.04a.1.1 0 0 0-.002-.03m.059.21c-.007-.035-.04-.056-.071-.069-.013-.002-.032-.02-.04-.013a.077.077 0 0 0-.023.08c.008.035.034.07.071.073.025.003.054-.008.061-.034a.07.07 0 0 0 0-.037zm.063-.015a.088.088 0 0 1-.033.094c-.041.029-.096.031-.143.017-.042-.012-.077-.048-.084-.092-.009-.035.006-.076.036-.095.007-.007.035-.01.012-.016-.035-.018-.07-.047-.077-.088a.084.084 0 0 1 .039-.092c.061-.034.148-.014.183.049.016.027.019.062 0 .088-.01.014-.023.028-.04.032a.147.147 0 0 1 .087.058.12.12 0 0 1 .02.046m.232.04c.017.001.036-.01.038-.028.006-.014-.006-.045.018-.043.022.001.02.027.022.044.002.029 0 .063-.024.082-.018.011-.04.007-.059.007-.04-.001-.08-.01-.12-.005-.017.002-.035.021-.051.007-.014-.016-.005-.038 0-.055.014-.044.044-.081.078-.111.024-.023.05-.047.054-.082a.144.144 0 0 0-.021-.086.0726.0726 0 0 0-.099-.023c-.016.011-.029.036-.016.054.015.012.043.001.05.026.009.017 0 .043-.021.043-.031.005-.059-.02-.068-.05-.013-.037.002-.082.035-.102.035-.023.081-.022.12-.012a.123.123 0 0 1 .086.082c.011.031.011.068-.006.097-.027.052-.082.078-.118.121-.01.011-.017.027-.013.042.005-.015.028-.01.041-.012.025-.001.049.006.074.005zm.28-.03a.053.053 0 0 0 .042.046c.016.007.04-.001.051.016.01.025-.024.021-.038.02-.042-.002-.084-.004-.126.002-.02.001-.041.006-.061.003-.02-.009-.009-.036.011-.032.019-.004.045-.008.051-.031.003-.019-.005-.038-.008-.057l-.041-.2c-.001-.021-.022-.025-.039-.023-.017-.002-.04.012-.051-.007-.012-.025.024-.025.039-.032l.087-.028c.015-.003.021.011.022.024l.061.298z"/><path fill="url(#k)" d="m32.1625 15.1926-.2677.3246c-.0852.3794.1265.6651.543.9133.3374.2135.9619.2671 1.1591.0949l-.9736-.9464z"/><path fill="#448127" d="m34.1347 24.957-.1445-.1755c-.6075.818-1.3664 1.5516-2.3155 2.069 1.0703-.3091 1.7709-1.1047 2.46-1.8935m-1.0961 2.5856c.3774-.78.8328-1.5599 1.2922-2.3399l-.1522-.1909c-.5219.8824-1.1344 1.9317-1.14 2.5307zm2.9624-8.2902c-.0699-.3075-.1611-.6399-.3059-.9453-.1886-.3932-.4701-.7842-.8399-1.2166-.6661-.7366-1.3326-1.4479-2.2665-1.9731l.0049-.0099.0055.0033h.0116l-.0114-.0145h.0334l-.0181-.0184h.031l-.025-.029h.0328l-.0234-.0238h.0349l-.0193-.0263.0282.0022-.0264-.0281.0389-.0078-.0315-.0202.0341-.0067-.0286-.02.0416-.0135-.0367-.0222.0463-.0208-.0449-.0331.0475-.0165-.0516-.0214.0435-.0233-.0512-.0094.0347-.041-.0498.0027.0227-.0432-.0474.0039-.0031-.0042.026-.0325-.0479.0087.0211-.0442-.0462.0235.0131-.0512-.0445.0313.0067-.0521-.0411.036.0043-.0498-.0362.0386.0032-.0525-.0357.0442-.0035-.0516-.0286.0405-.0146-.0489-.0238.0489-.0121-.0519-.0225.0519-.011-.0519-.0193.0519-.0147-.0489-.0152.0489-.0113-.043-.0171.0518-.0159-.0488-.0171.0557-.0208-.0498-.0089.0595-.025-.0486-.0029.0574-.0272-.0435-.0018.0569-.0289-.0411.0022.05-.0308-.0264.0151.0539-.0372-.0222.014.0472-.0307-.0175.0109.0457-.0279-.0091.0147.034-.0021.0046-.0216-.0041.0124.0265c-.0272.0752-.0294.165-.0249.2545.0009.0167.0422.0336.0486.044.0196.031.0161.0478.0161.0478-.113.1868-.214.3311-.2254.5453.0908-.1172.1849-.2607.3167-.2607-.0653.1113-.0963.4469-.0229.498l.0547-.0979c.002.0778.0128.1296.0276.168.0229-.047.0456-.092.0684-.126.0052.109.0189.1965.0499.2397.0304-.0536.0716-.0862.1148-.1138-.0149.0623-.0369.1211-.0276.1958.0457-.0797.0915-.1269.1372-.1819-.0265.1149-.0024.2006.0296.3274.0284-.1503.0395-.1663.1076-.2295.0075.1377-.0182.2629.0102.3398.062-.1212.1036-.1039.1407-.1824-.0072.1144-.0297.2383-.001.3404.0239-.1023.0883-.157.138-.1934.0041.1592.0402.133-.0568.2681.0411.0191.1804-.0273.2559-.0604-.0366.0853-.0258.1522-.0623.2126.0766-.0393.142-.1028.2059-.168-.0297.0979-.1082.1958-.0688.2936.0178-.0914.0903-.1668.1591-.1805-.0106.0513-.0179.1574-.0903.2087.1735.0183.2419-.1012.3292-.1958-.0113.0984-.0081.1769.1102.3153-.0239-.176.0171-.1398.0953-.2455.0378.1555.0811.3207.2401.4354-.0659-.1641-.0781-.2487-.0407-.352.0204.1065.1195.2352.1433.3362.0148-.1121.0314-.2205.0684-.2937.0463.1273.0849.2586.0959.4054a1.26 1.26 0 0 0 .0825-.2234c1.4011 1.4932 1.7135 3.3914.1784 5.397.5516-.38.694-.9824 1.0005-1.496-.2992.6725-.4325 1.4291-.9594 1.9854.5103-.449.6185-.8605.9253-1.2933-.327.9051-.7796 1.897-1.4071 2.8051l.335.3757.2908-.4959c.6651-1.1176 1.7505-2.7151 1.2007-5.1513z"/><path fill="#eac102" d="M31.9746 14.8943c-.0706.0164-.0985.0464-.1494.1042.0649.0145.1198.0178.1784.0191.0182-.0017.0243-.0251.0203-.0423l-.0091-.0689c-.0016-.0157-.0425-.0144-.0618-.0062z"/><path fill="#a08307" d="M31.8246 14.9985a.7.7 0 0 1 .0745-.0215l.0763-.0138a.7.7 0 0 1-.0745.0215z"/><path fill="#000" d="M32.2958 14.9619c.0303 0 .0549-.0262.0549-.0586s-.0246-.0585-.0549-.0585-.0548.0262-.0548.0585.0245.0586.0548.0586"/><path fill="url(#l)" d="M32.3088 14.9176c.0131 0 .0238-.0114.0238-.0254 0-.0141-.0107-.0255-.0238-.0255s-.0239.0114-.0239.0255.0107.0254.0239.0254"/><path fill="#34541f" d="m33.0413 27.5216.1085-.3215.1266-.3146.2935-.6108.3311-.5903.1742-.2899.1782-.2872-.1718.2913-.1703.2921-.3277.5916-.2963.6082-.1303.3125-.1156.3188zm-1.3374-.6849.3465-.172.3338-.1958a5.1 5.1 0 0 0 .6199-.4646c.1956-.1696.3783-.3543.5511-.548a8 8 0 0 0 .2523-.2969 12 12 0 0 0 .2413-.3066 11 11 0 0 1-.2354.3115 8 8 0 0 1-.2493.3002 5.9 5.9 0 0 1-.5498.5519 5 5 0 0 1-.6237.4629 5 5 0 0 1-.3367.1924 5.4 5.4 0 0 1-.35.165m2.6465-2.1244.1563-.2386.149-.2434.281-.4971.2663-.5058.2611-.5088-.1239.2579-.1266.2565-.2633.5078-.2845.4959zm.4182-1.818a4.2 4.2 0 0 0 .333-.4648 4.4 4.4 0 0 0 .2705-.505c.1587-.3482.2727-.7163.3532-1.0912l.0294-.1407a4.6 4.6 0 0 0 .0493-.4283 4 4 0 0 0-.0022-.575 3.7 3.7 0 0 0-.088-.5681 3.9 3.9 0 0 0-.1706-.5487c.0722.1775.1323.3602.178.5469.0449.1869.0753.3772.0909.569a4 4 0 0 1 .0047.5767 4.5 4.5 0 0 1-.0476.4303l-.0288.1413c-.0823.3752-.1983.7438-.359 1.0921a4.4 4.4 0 0 1-.2735.5046 4.2 4.2 0 0 1-.3394.4608zm-.1165-.4134a2.6 2.6 0 0 0 .3477-.4235c.102-.1523.1904-.3137.2695-.4795l.2148-.508.0967-.2587.0235-.0648.0209-.0655.041-.1325-.0003.0012a3.07 3.07 0 0 0 .0575-.5553 3.4 3.4 0 0 0-.0406-.5573 4.3 4.3 0 0 0-.1228-.5453 5.9 5.9 0 0 0-.1813-.5289l.1885.5266c.0539.1789.0959.3612.1258.5459.0293.1848.0448.3719.0433.5592a3.06 3.06 0 0 1-.0554.5582l-.0001.0006-.0002.0006-.0413.1314-.0215.0661-.024.0648-.0979.2584-.2177.5077c-.08.1658-.1692.3273-.2724.4793-.1036.1515-.2212.2934-.3538.4191zm-.4131 2.1113.2536-.3619.1262-.1815.123-.1832c.0758-.1264.1413-.2589.2057-.3916l.1923-.3993c.1265-.2669.2489-.5361.3526-.8129a5.5 5.5 0 0 0 .245-.8517c.0602-.2898.1006-.5837.1339-.8782.0302-.2943.0334-.5923.0027-.8868a3.88 3.88 0 0 0-.1935-.8644c-.0958-.2799-.2211-.5486-.3618-.808.1429.2581.2706.5258.369.8054.0979.2795.1651.5705.1966.8659.0314.2953.0293.5938-.0001.8894-.0325.2948-.0721.5891-.1316.8799a5.5 5.5 0 0 1-.2481.8532c-.1052.2768-.2281.5461-.3554.8128l-.1936.3987c-.0649.1327-.1307.2653-.2073.3916-.0381.0635-.0825.1225-.1249.1826l-.1277.1803-.2568.3598zm.1959.2186.4937-.8386c.1597-.2825.3182-.5658.4589-.8585.1407-.2926.2628-.5947.3548-.9067a5.5 5.5 0 0 0 .1173-.4735 4.3 4.3 0 0 0 .0421-.2403l.0335-.242c.0413-.323.0659-.6485.0655-.9743s-.026-.6517-.0851-.9719c-.059-.3203-.152-.634-.2823-.9315a3.93 3.93 0 0 0-.4939-.835c.2003.2549.3686.5343.5009.8319.1315.2976.2256.612.2855.9327s.0866.6475.0879.9738c.0012.3263-.0224.6527-.0631.9764l-.0342.2423a4.3 4.3 0 0 1-.0429.241 5.5 5.5 0 0 1-.1188.4743c-.0931.3125-.216.6151-.3579.9075s-.3008.5758-.4616.8577c-.1616.2816-.3305.5585-.5002.8348zm-1.9743-9.5196a.55.55 0 0 1 .1007.0082 1 1 0 0 1 .099.0213q.0979.027.1907.069c.1237.0556.2394.1285.3479.2102.1077.083.2088.1747.3022.2741l.1351.1532.1248.1619-.1305-.1568-.1379-.1499a2.7 2.7 0 0 0-.3029-.2699 1.9 1.9 0 0 0-.3435-.2118 1.35 1.35 0 0 0-.1879-.0727c-.0643-.0191-.1303-.0341-.1976-.0368z"/><path fill="#448127" d="M33.6235 16.0731s.2171.1302.3354.3214c0 0-.3349-.0638-.5729-.3367"/><path fill="#34541f" d="M33.6235 16.0732c.034.0189.0663.041.0979.0637l.0909.0742a.9.9 0 0 1 .0824.0842.75.75 0 0 1 .0707.095l.0097.0158-.0176-.0039a1.03 1.03 0 0 1-.1614-.0516 1.06 1.06 0 0 1-.1517-.0752.98.98 0 0 1-.2584-.2177c.0769.0827.166.1527.2641.2075q.0733.041.1511.0722.0775.0312.159.0494l-.0078.0119a.8.8 0 0 0-.0686-.0939 1.2 1.2 0 0 0-.0798-.0846l-.0874-.077-.0932-.0701z"/><path fill="#448127" d="m33.1409 16.0095.5873.3604s-.1142-.2518-.3585-.36"/><path fill="#34541f" d="m33.1409 16.0095.2939.1801.1469.09.0741.0436.0748.0397-.0091.0102a.77.77 0 0 0-.0656-.1105.9.9 0 0 0-.0811-.0999.76.76 0 0 0-.0955-.0858.65.65 0 0 0-.1095-.067.6.6 0 0 1 .1133.0615.7.7 0 0 1 .0994.0836.8.8 0 0 1 .0844.0995.8.8 0 0 1 .068.1123l.0088.0181-.0179-.0078c-.0546-.0239-.102-.0549-.1516-.0846l-.1462-.0915z"/><path fill="#448127" d="M33.3453 15.8407s.2669.1157.3274.317c0 0-.4794-.2057-.5653-.3149"/><path fill="#34541f" d="M33.3454 15.8407a.75.75 0 0 1 .1991.1217.52.52 0 0 1 .0809.0865.35.35 0 0 1 .0547.1066l.0047.016-.015-.0065-.1478-.0677-.1455-.0726-.1416-.0804-.0674-.0459c-.0217-.0164-.0433-.0337-.06-.0555.0179.0207.0401.0366.0622.0521l.069.0428.143.0763.2941.1365-.0103.0095a.36.36 0 0 0-.0515-.1025.56.56 0 0 0-.0775-.0857.8.8 0 0 0-.0912-.0716.9.9 0 0 0-.0999-.0596"/><path fill="#448127" d="M32.9406 16.05s.4718.3445.6114.3445c0 0-.1383-.2359-.3825-.3441"/><path fill="#34541f" d="m32.9406 16.05.1473.0977.1496.094.153.087.0795.0365c.0267.0106.0547.021.0819.0217l-.0063.0114a.9.9 0 0 0-.0759-.105 1.1 1.1 0 0 0-.0886-.0947.95.95 0 0 0-.1002-.0822.8.8 0 0 0-.1115-.066c.0803.0326.1538.0818.2188.14a.9.9 0 0 1 .0916.094.9.9 0 0 1 .0784.1062l.0072.0116-.0135-.0003c-.0317-.0008-.0599-.0115-.0877-.022a1 1 0 0 1-.0804-.038l-.1533-.0889-.1472-.0984-.1429-.1048z"/><path fill="#448127" d="M32.9406 16.1579s.2457.2113.3852.2113c0 0-.1383-.2359-.3825-.344"/><path fill="#34541f" d="m32.9406 16.1579.0903.0655.0933.0603a.8.8 0 0 0 .0977.0513.4.4 0 0 0 .0513.0182.2.2 0 0 0 .0526.0087l-.0063.0114a.9.9 0 0 0-.0759-.105 1.1 1.1 0 0 0-.0886-.0948.95.95 0 0 0-.1002-.0822.8.8 0 0 0-.1115-.0659c.0803.0325.1538.0817.2188.14a.9.9 0 0 1 .0916.0939.9.9 0 0 1 .0784.1062l.0071.0114h-.0134c-.0391-.0001-.0754-.0131-.1097-.0281a.8.8 0 0 1-.0987-.0536l-.0914-.0648-.0856-.0723z"/><path fill="#448127" d="M32.8179 15.6829s.5116.3705.5721.5717c0 0-.463-.2168-.5488-.326"/><path fill="#34541f" d="m32.8179 15.6829.1635.1216.1566.131a1.9 1.9 0 0 1 .1458.1439.9.9 0 0 1 .0647.0803c.0196.0284.0384.0582.0488.0927l.0051.0168-.0156-.0074-.1435-.0714-.1413-.076-.1372-.0833-.0654-.0469a.32.32 0 0 1-.0582-.0556c.0176.0205.0391.0366.0605.0523l.0669.0438.1389.0792.2857.1436-.0105.0094c-.01-.0313-.0273-.0607-.0464-.0884a.9.9 0 0 0-.063-.0794 2.1 2.1 0 0 0-.1434-.1444l-.1532-.1341z"/><path fill="#406325" d="M29.9774 26.12c-.3471.2638-1.3171.3931-1.4516.3476.7058-.5989 1.4003-.6133 1.4516-.3475zm4.9523.3215c.373.3452 1.4982.583 1.6666.5402-.7484-.7798-1.5691-.859-1.6666-.5402"/><path fill="#67923d" d="M29.9745 26.1176c-.0512-.2658-.7424-.2497-1.4467.3457.7416-.2492 1.3658-.3913 1.4467-.3457m4.963.3193c.0973-.3187.9083-.2417 1.6586.5403-.8436-.3635-1.558-.5863-1.6586-.5403"/></g><defs><radialGradient id="b" cx="0" cy="0" r="1" gradientTransform="matrix(24.6497 0 0 22.5143 696.939 440.747)" gradientUnits="userSpaceOnUse"><stop offset="0" stop-color="#f9f0aa"/><stop offset="1" stop-color="#b07e09"/></radialGradient><radialGradient id="c" cx="0" cy="0" r="1" gradientTransform="matrix(8.94774 0 0 8.44409 400.506 263.597)" gradientUnits="userSpaceOnUse"><stop offset="0" stop-color="#f9f0aa"/><stop offset="1" stop-color="#b07e09"/></radialGradient><radialGradient id="d" cx="0" cy="0" r="1" gradientTransform="matrix(7.13042 0 0 4.35911 361.443 158.875)" gradientUnits="userSpaceOnUse"><stop offset="0" stop-color="#f9f0aa"/><stop offset="1" stop-color="#b07e09"/></radialGradient><radialGradient id="e" cx="0" cy="0" r="1" gradientTransform="matrix(21.8492 0 0 20.6869 607.398 386.977)" gradientUnits="userSpaceOnUse"><stop offset="0" stop-color="#f9f0aa"/><stop offset="1" stop-color="#b07e09"/></radialGradient><radialGradient id="h" cx="0" cy="0" r="1" gradientTransform="matrix(12.4105 0 0 11.7772 454.983 245.209)" gradientUnits="userSpaceOnUse"><stop offset="0" stop-color="#f9f0aa"/><stop offset="1" stop-color="#b07e09"/></radialGradient><radialGradient id="k" cx="0" cy="0" r="1" gradientTransform="matrix(.59364 0 0 .49518 854.128 324.165)" gradientUnits="userSpaceOnUse"><stop offset="0" stop-color="#a50a0a"/><stop offset="1" stop-color="#4c0505"/></radialGradient><radialGradient id="l" cx="0" cy="0" r="1" gradientTransform="matrix(.01608 0 0 .018 54.306 26.201)" gradientUnits="userSpaceOnUse"><stop stop-color="#fff"/><stop offset="1" stop-color="#fff" stop-opacity="0"/></radialGradient><linearGradient id="f" x1="2301" x2="2299" y1="638" y2="573" gradientUnits="userSpaceOnUse"><stop offset="0" stop-color="#b07e09" stop-opacity="0"/><stop offset="1" stop-color="#b07e09"/></linearGradient><linearGradient id="g" x1="2218" x2="2221" y1="733" y2="806" gradientUnits="userSpaceOnUse"><stop offset="0" stop-color="#b07e09" stop-opacity="0"/><stop offset="1" stop-color="#b07e09"/></linearGradient><linearGradient id="i" x1="342" x2="345" y1="187" y2="181" gradientUnits="userSpaceOnUse"><stop offset="0" stop-color="#f9f0aa"/><stop offset="1" stop-color="#b07e09"/></linearGradient><linearGradient id="j" x1="1844" x2="1845" y1="295" y2="334" gradientUnits="userSpaceOnUse"><stop offset="0" stop-color="#f9f0aa"/><stop offset="1" stop-color="#b07e09"/></linearGradient><clipPath id="a"><rect width="64" height="42" fill="#fff" rx="5"/></clipPath></defs></svg>