<svg xmlns="http://www.w3.org/2000/svg" width="64" height="42" fill="none" viewBox="0 0 64 42"><g clip-path="url(#a)"><rect width="64" height="42" fill="#fff" rx="5"/><path fill="url(#b)" d="M0 0h64v42H0z"/><path fill="#fff" fill-rule="evenodd" d="M30.8332 7.0001a.7.7 0 0 0-.42.14l-5.3002 3.9752a.7.7 0 0 1-.2502.1191l-5.3884 1.3471a.7.7 0 0 0-.1432.053l-5.3226 2.6612a.7.7 0 0 0-.3131.3131l-2.5139 5.028a.7.7 0 0 0 .0436.7013l2.4571 3.6857a.7.7 0 0 1 .1176.3882v3.6981c0 .1857.0737.3637.205.495l2.2382 2.2382a.7.7 0 0 0 .8081.1312l7.8009-3.9005a.7.7 0 0 1 .313-.0739h5.1814a.7.7 0 0 1 .4481.1622l8.0106 6.6756a.7.7 0 0 0 .4481.1622h4.972a.7.7 0 0 0 .5824-.3117l5.2746-7.912a.7.7 0 0 0 .1176-.3882V21.212a.7.7 0 0 0-.1176-.3882l-5.4824-8.2237L40.6038 5.94a.7.7 0 0 0-.6002-.3399h-.879c-.5627 0-.8444.6803-.4466 1.0781a.6315.6315 0 0 1 .1183.729l-1.0029 2.006a.7.7 0 0 1-.6261.3869h-3.3348a.7.7 0 0 1-.6261-.387l-1.013-2.026A.7.7 0 0 0 31.5673 7zm12.3666 29.4h-2.8l.905.9051a.7.7 0 0 0 .9899 0z" clip-rule="evenodd"/></g><defs><linearGradient id="b" x1="0" x2="0" y1="0" y2="42" gradientUnits="userSpaceOnUse"><stop stop-color="#19bfbf"/><stop offset="1" stop-color="#10acac"/></linearGradient><clipPath id="a"><rect width="64" height="42" fill="#fff" rx="5"/></clipPath></defs></svg>