<svg xmlns="http://www.w3.org/2000/svg" width="64" height="42" fill="none" viewBox="0 0 64 42"><g clip-path="url(#a)"><rect width="64" height="42" fill="#fff" rx="5"/><path fill="#ec3938" fill-rule="evenodd" d="M0 42h64V28H0z" clip-rule="evenodd"/><path fill="#51b422" fill-rule="evenodd" d="M0 14h64V0H0z" clip-rule="evenodd"/><path fill="#159940" fill-rule="evenodd" d="M31.5124 24.7449a.354.354 0 0 0 .0985-.2428l.0237-4.1414a.614.614 0 0 0-.6141-.6176c-.547 0-.821-.6614-.4342-1.0482l1.2568-1.2568a.7.7 0 0 1 .99 0l1.255 1.255c.3875.3875.113 1.05-.4349 1.05a.615.615 0 0 0-.6151.6151v4.1399a.35.35 0 0 0 .1025.2475c.2205.2205.0643.5975-.2475.5975h-1.1257c-.3114 0-.4707-.3736-.255-.5982" clip-rule="evenodd"/><path fill="#258de7" fill-rule="evenodd" d="m0 0 19.6 21L0 42z" clip-rule="evenodd"/></g><defs><clipPath id="a"><rect width="64" height="42" fill="#fff" rx="5"/></clipPath></defs></svg>