<svg xmlns="http://www.w3.org/2000/svg" width="64" height="42" fill="none" viewBox="0 0 64 42"><g clip-path="url(#a)"><rect width="64" height="42" fill="#fff" rx="5"/><path fill="#fff" d="M0 0h64v42H0z"/><rect width="63" height="41" x="1" y="1" stroke="#f5f5f5" rx="5"/><path fill="#0038a8" d="M-6 28h76v14H-6z"/><path fill="#d52b1e" d="M-6 0h76.4096v14H-6z"/><path fill="#fff" d="M37.5317 20.9987c0 2.9411-2.3841 5.3249-5.3269 5.3249-2.9413 0-5.3266-2.3838-5.3266-5.3249 0-2.9399 2.3854-5.3222 5.3266-5.3222 2.9428 0 5.3269 2.3823 5.3269 5.3222"/><path fill="#000" fill-rule="evenodd" d="M32.2048 15.794c-2.8765 0-5.2093 2.3298-5.2093 5.2048 0 2.8764 2.3328 5.2077 5.2093 5.2077 2.8779 0 5.2095-2.3313 5.2095-5.2077 0-2.8751-2.3315-5.2048-5.2095-5.2048m-5.4441 5.2048c0-3.0047 2.438-5.4395 5.4441-5.4395 3.0076 0 5.4443 2.4348 5.4443 5.4395 0 3.0059-2.4367 5.4423-5.4443 5.4423-3.0062 0-5.4441-2.4364-5.4441-5.4423" clip-rule="evenodd"/><path fill="#009b3a" d="M34.7805 20.174c-.1293-.0051-.1301.1373-.1301.1373s.0044-.0421.0008.0057c-.0025.0473.0212.1626.1167.172.1008.0089.1343-.1089.1351-.166 0-.0227-.0074-.1461-.1225-.1489"/><path fill="#000" fill-rule="evenodd" d="M34.6876 20.1674c.0244-.0169.0555-.0264.094-.0249v.0001a.147.147 0 0 1 .0849.0273.15.15 0 0 1 .0466.0576.24.24 0 0 1 .0211.0953v.0005a.264.264 0 0 1-.0345.1233c-.0251.0423-.0687.0793-.1347.0735h-.0003c-.0623-.0062-.0998-.0474-.1203-.0893a.25.25 0 0 1-.0247-.1156v-.0007h.0001l.0002-.0035h-.0011.0011l-.0011-.0001v-.0008l.0001-.0017.0003-.0056a.22.22 0 0 1 .0191-.0755.15.15 0 0 1 .0492-.0599m-.0615.1436.0242.0001zm.0503.0032-.0501-.0028.003.0038.0005.0006a.03.03 0 0 0 .0097.0068q.0083.0037.0178.0024a.03.03 0 0 0 .0147-.0065l-.021-.0016.0216.0011q.0024-.002.0038-.0038m.0059.0047a.19.19 0 0 0 .0185.0844c.0146.0299.0366.051.0698.0544.0347.0029.0582-.0145.0752-.0431a.2.2 0 0 0 .0257-.092.17.17 0 0 0-.015-.0682.09.09 0 0 0-.0269-.0339.085.085 0 0 0-.05-.0152l.0007-.0317-.0012.0315c-.0262-.001-.0436.0054-.0558.0138a.085.085 0 0 0-.0281.0349.15.15 0 0 0-.0115.0379l.0001.0015v.0037z" clip-rule="evenodd"/><path fill="#000" d="m28.8631 23.1298-.0457-.0755c-.0046-.0084-.0165-.0223-.0355-.0429a.052.052 0 0 0-.0353-.0174.063.063 0 0 0-.0415.0084c-.0177.0108-.0293.0252-.0312.0429-.0034.018.005.0428.025.0762l.0462.0786zm.4508-.0259-.5795.3444-.1769-.2971c-.0327-.0557-.0527-.1-.0604-.135a.15.15 0 0 1 .0099-.1021c.0146-.0335.0412-.0613.0783-.0835a.2.2 0 0 1 .0942-.0291c.0325 0 .0621.008.0908.0232a.3.3 0 0 1 .0609.0489c-.0054-.0248-.0085-.0443-.0072-.0595a.46.46 0 0 1 .034-.0928l.1171-.1863.1193.2023-.1193.2009c-.015.0254-.0241.045-.0253.0586a.094.094 0 0 0 .0124.0513l.0099.0165.2348-.1397zm-1.0201-.4716-.1769-.5283.1364-.0458.1108.3312.1023-.0344-.1042-.3074.131-.0427.1029.3059.1255-.0406-.1132-.3407.1447-.0493.1797.5383zm.0188-1.0754-.0071-.0495c-.0046-.0412-.0146-.0678-.0299-.0817a.072.072 0 0 0-.0571-.0179.083.083 0 0 0-.0503.0265c-.0133.0162-.0178.0428-.0122.0815l.0057.0594zm-.262.2412-.0402-.3433c-.0081-.0737.0025-.1325.0334-.174q.0477-.0618.146-.0733c.0674-.0084.1232.0061.1656.0418.0419.0362.0687.0966.0787.1795l.0128.113.2481-.0288.0243.2077zm-.0234-1.3135.0215-.2068.4.043a.35.35 0 0 1 .1089.0307.225.225 0 0 1 .0867.0683c.0231.0298.0394.0583.0469.0889.0102.0405.013.0901.0065.147a.8.8 0 0 1-.0187.1053.27.27 0 0 1-.0378.0935.25.25 0 0 1-.0649.0655.21.21 0 0 1-.0821.035.37.37 0 0 1-.1153.0071l-.3982-.042.0215-.2071.4085.0443c.0368.0037.0661-.0031.0888-.0218.0229-.0182.0357-.0448.04-.0798.0038-.0369-.0037-.0653-.0216-.0872-.0177-.0227-.0452-.0353-.0823-.0397zm.67-.5658.036-.0997c.0108-.0337.014-.0598.0065-.0787a.062.062 0 0 0-.0409-.0367c-.02-.0069-.0365-.0056-.0527.0043q-.0253.0151-.0428.0655l-.0355.1003zm-.2498-.0876.0302-.0846c.0102-.0309.0131-.0544.0056-.0702-.0056-.0152-.0188-.0273-.039-.0331a.058.058 0 0 0-.0493.0021c-.0146.0087-.0269.0272-.0368.057l-.0316.0869zm-.3181.1117.128-.3686c.0222-.0614.0537-.1022.0961-.1254a.16.16 0 0 1 .1299-.0096.164.164 0 0 1 .0842.0696.18.18 0 0 1 .0187.0833q.0398-.063.0911-.0802.0519-.0187.1132.0025a.19.19 0 0 1 .0803.0535.2.2 0 0 1 .0402.0849c.0031.0203.0015.0476-.0057.0814-.0105.0473-.0168.0773-.0221.0913l-.1186.3392zm.3434-.8626.1088-.1776.4337.2627.1689-.2772.1414.0863-.2752.4546zm.4448-.6622.1339-.1594.5139.4342-.1341.1594zm.9333-.3619.1751-.0748c.0225.0471.0353.0919.037.1359a.26.26 0 0 1-.0248.1222c-.0201.0386-.0528.0761-.0977.1155-.0572.0464-.1096.0767-.1592.09q-.0734.0191-.165-.0096c-.059-.0195-.1151-.0619-.1694-.1254-.0705-.0862-.103-.1708-.0958-.2538.0069-.0844.0524-.1603.1354-.2302.0659-.0545.127-.0829.1872-.0876.0587-.0056.1211.0121.1837.0514l-.115.1492c-.0175-.0115-.0321-.0191-.0446-.0217a.1.1 0 0 0-.0559-.0006.12.12 0 0 0-.0512.0254q-.0549.0457-.0471.1135c.0031.0337.0246.0731.0621.1198q.0728.086.1245.0959c.0362.0075.0695-.0027.1007-.0287.0304-.026.0468-.0532.0475-.0829.0009-.0317-.0075-.066-.0275-.1035m.6813-.4044-.1759-.182.0443.2497zm.1049.1105-.2109.1072.0215.1141-.1894.0963-.0803-.7147.2025-.1034.5315.4851-.1938.099zm.819-.7016.0518.3634.0506-.0075c.0433-.0053.0736-.0149.0907-.0269.0166-.0133.0279-.0303.0347-.057.0074-.0248.0074-.0634-.0003-.1173-.0099-.0702-.0287-.1173-.0549-.1396-.0268-.0223-.0671-.0303-.1208-.0223zm-.2265-.1217.3058-.0439c.0602-.008.1092-.0075.1485.0037a.246.246 0 0 1 .1033.0573.29.29 0 0 1 .0674.099.47.47 0 0 1 .0349.1272c.0109.0705.0109.1275-.0007.168a.28.28 0 0 1-.053.1092c-.0256.0301-.054.0527-.0855.0654a.46.46 0 0 1-.1207.0368l-.3064.0431zm.9164-.1304.5557.0412-.0104.1432-.3479-.026-.0081.1068.3227.0238-.0116.1365-.321-.0229-.0094.1313.3579.0265-.0112.1517-.5664-.0418zm.8561.0785.2001.0558-.1383.489.3124.0882-.0456.1585-.5127-.1451zm1.136.7466.043.0279c.0331.0219.0612.0312.0815.029a.062.062 0 0 0 .0497-.0309.083.083 0 0 0 .0127-.057c-.004-.0197-.0224-.0398-.0549-.0612l-.0497-.0335zm-.0166-.3544.2894.1907c.0626.0411.0994.0876.1108.1377.0121.0508 0 .104-.0373.1591-.0361.056-.0829.0889-.1385.0984-.0561.009-.1176-.0083-.1878-.0545l-.0951-.0631-.1368.2083-.1744-.1154zm.7305 1.026.1173-.2244-.2227.1204zm-.0711.1337-.1689-.1659-.1016.0558-.1513-.1486.311-.1436.3426-.1583.161.1592-.2927.6577-.1547-.1535zm.6253.2919.0475.0749c.0056.0075.0159.022.0371.0417a.055.055 0 0 0 .0363.0158.058.058 0 0 0 .0399-.0099.063.063 0 0 0 .0309-.0439c.0024-.0174-.0069-.0434-.0278-.0749l-.0481-.0767zm-.4501.0399.5675-.3621.1863.2918c.0346.0538.0565.0981.0671.1325a.165.165 0 0 1-.0088.1021c-.0138.0341-.039.0623-.0745.0856-.0322.0203-.0631.0318-.0949.0318-.0303.0018-.0611-.0059-.0914-.0187a.34.34 0 0 1-.0615-.0479c.0059.0248.0097.0449.009.0588a.4.4 0 0 1-.0119.0465.24.24 0 0 1-.0202.0476l-.1098.19-.1274-.1984.1143-.2036c.0153-.0272.0227-.0467.0227-.0603.0007-.0184-.0022-.0357-.0143-.0512l-.009-.0154-.2309.147zm.7956.9061.2019-.1522-.2524.014zm-.1225.0901-.0808-.2225-.1149.008-.0734-.1996.7196.0084.0777.2123-.5463.468-.0749-.2056zm.3222.7157.1386-.0183.0401.3208-.2848.0343c-.0481-.0557-.0848-.1056-.1045-.1511-.0219-.0451-.0359-.0999-.044-.164-.0103-.0792-.005-.1455.0171-.1987.02-.0532.0556-.0975.1055-.1325a.41.41 0 0 1 .1785-.0634c.0727-.0096.1385-.0022.1959.0216.0575.0229.1036.0616.1395.1161.0277.0431.0461.1022.0549.1789q.0153.1102.0006.1675a.2.2 0 0 1-.0508.0992.26.26 0 0 1-.099.0676l-.0605-.1941c.0241-.0121.0418-.0275.0525-.0495.0109-.021.0137-.0477.0109-.0768-.0075-.0458-.0262-.0798-.0605-.1027q-.053-.0343-.1552-.0216c-.0723.0089-.1213.0296-.1497.0597-.0268.0315-.0368.072-.0318.1204a.21.21 0 0 0 .0181.064.43.43 0 0 0 .043.0691l.0635-.0087zm.4263 1.009-.0237.2061-.3981-.0449a.34.34 0 0 1-.1099-.0313.24.24 0 0 1-.0861-.0683.24.24 0 0 1-.0459-.0882.44.44 0 0 1-.0057-.148 2 2 0 0 1 .0185-.1058.27.27 0 0 1 .0393-.0932.27.27 0 0 1 .0643-.0647c.0293-.0183.0561-.0297.0829-.0344.0438-.0083.0828-.011.1155-.0061l.3988.0455-.0237.2055-.4078-.0468c-.0372-.004-.0665.0025-.0896.0208-.0224.0185-.0359.0445-.0396.0802q-.0062.0544.0208.0872c.0176.0223.045.0356.0816.0412zm-.6197.7658.2537.0091-.2048-.1493zm-.1505-.0076.0768-.2232-.094-.0672.0699-.2008.5536.4596-.0762.215-.7173.0177.0705-.2061zm.3717.6194-.1171.199-.2652.0009.1269.2328-.1163.1966-.2046-.4239-.2428-.1429.1067-.1798.2425.1439z"/><path fill="#000" fill-rule="evenodd" d="M32.204 16.5919c-2.4372 0-4.4123 1.974-4.4123 4.4084 0 2.436 1.9752 4.4104 4.4123 4.4104 2.4299 0 4.4011-1.9636 4.4117-4.3907v-.0198c0-2.4343-1.9752-4.4083-4.4117-4.4083m-4.5062 4.4084c0-2.4862 2.0172-4.5023 4.5062-4.5023 2.4817 0 4.4949 2.0053 4.5056 4.4823l.0001.0001v.0198c0 2.488-2.0173 4.5044-4.5057 4.5044-2.489 0-4.5062-2.0164-4.5062-4.5043" clip-rule="evenodd"/><path fill="#000" fill-rule="evenodd" d="M32.2038 17.7157c-1.8068 0-3.2715 1.4637-3.2715 3.2686 0 1.8068 1.4647 3.2701 3.2716 3.2701s3.271-1.4633 3.271-3.2701c0-1.8049-1.4641-3.2686-3.2711-3.2686m-3.3654 3.2686c0-1.8567 1.5067-3.3625 3.3654-3.3625 1.8589 0 3.365 1.5058 3.365 3.3625 0 1.8586-1.5061 3.364-3.3649 3.364s-3.3655-1.5054-3.3655-3.364" clip-rule="evenodd"/><path fill="#fedf00" d="m32.2043 19.7917.2787.7974.8433.0188-.672.5108.2443.808-.6943-.4803-.6945.4803.2431-.808-.6731-.5108.845-.0188z"/><path fill="#000" fill-rule="evenodd" d="m32.2042 19.7336.2924.8366.8849.0197-.7051.5359.2564.8478-.7286-.504-.7287.5039.2551-.8477-.7062-.5359.8866-.0197zm0 .1161-.2658.7582-.8034.0179.64.4856-.2312.7684.6604-.4568.6601.4567-.2323-.7683.639-.4856-.8018-.0179z" clip-rule="evenodd"/><path fill="#009b3a" d="M33.7364 23.2737c-.0282.0236-.1414.0363-.1713.0413-.0303.0039-.1492.0051-.1995.007-.0277.0019-.0811.0096-.1088.0096-.2438-.0278.396-.0239.4796-.0579m-.6387-.1884c.0159-.0285.0958-.2062.1245-.2566.0293-.0496.0955-.1818.135-.2368.0204-.0297.0999-.116.1189-.0774-.1385.1196-.2477.3286-.3059.469-.0075.0151-.0531.0934-.0699.1138-.0163.0201-.0096.0581-.0351.0611-.0269.0034-.0081.0083-.0081.0083s.0231-.0514.0406-.0814m.9189.1359s-.1102-.0165-.1785-.0406c-.068-.0229-.1823-.0405-.2796-.0381-.0964.0013-.1847.0304-.2633.0604-.0783.029-.1798.0315-.1798.0315s-.0574.009-.0305-.0042c.0255-.0128.1144-.0821.1144-.0821l.0575-.0786c.0165-.0046.3079-.3867.2762-.4893.0446-.0755.0969-.2102.0773-.2337-.0094-.0095-.2269.069-.2746.1123-.0552.0477-.0942.1471-.1108.2044-.0161.0568-.0998.1039-.0998.1039-.068.0488-.1173.2036-.1404.3302-.0234.125-.3316.1943-.3316.1943s-.0855.0319-.0096.056c.013.0037.0469.0609.0741.0618.0377.0044.2291-.0775.2587-.071q.0975.022.1928.0527c.073.0247.1333.0374.1843.0186.0519-.0187.1259-.0115.1814-.0007.0546.0118.1158.0068.151-.004.0377-.0115.137-.0666.137-.0666s.1073-.0465.1694-.0755c.0621-.0291.0244-.0418.0244-.0418"/><path fill="#000" fill-rule="evenodd" d="M33.6135 22.3221a.027.027 0 0 1 .0141.0074l.0007.0007.0006.0007a.047.047 0 0 1 .0097.0277.13.13 0 0 1-.002.0275.4.4 0 0 1-.018.0655.9.9 0 0 1-.06.1324.14.14 0 0 1-.0042.052.4.4 0 0 1-.0268.0731 1.4 1.4 0 0 1-.0943.1654 2.4 2.4 0 0 1-.1027.1454 1 1 0 0 1-.0375.0469.2.2 0 0 1-.0184.0194l-.0009.0007-.0569.0778-.0026.0021-.001.0008-.0029.0023-.0105.0081-.0337.0254-.0047.0035.0117-.0014a.52.52 0 0 0 .1137-.0253c.0791-.0301.1706-.0605.2713-.0618.0998-.0025.2168.0154.2877.0393l.0004.0001a.9.9 0 0 0 .1115.0284c.0177.0035.0334.0063.0447.0082l.0131.0022.0035.0005.0009.0001.0002.0001-.0034.0236.0076-.0227h.0001l.0002.0001.0003.0001.0008.0003.0022.0009q.0027.0011.0066.0036a.037.037 0 0 1 .0166.022c.0035.0146-.0033.027-.0117.0356a.13.13 0 0 1-.037.0236 5 5 0 0 1-.1084.0489l-.0438.0192-.013.0057-.0037.0016h-.0001l-.0033.0018-.0119.0065a2 2 0 0 1-.0387.0204c-.029.015-.0652.0327-.0866.0392-.0391.0121-.1043.0172-.1628.0047a.54.54 0 0 0-.0879-.0103c-.0304-.0008-.0585.0021-.0805.0099-.0597.022-.1273.0063-.2-.0183a2.2 2.2 0 0 0-.1898-.0519c0 .0001-.0025.0001-.0089.0013a.3.3 0 0 0-.0274.0071c-.0218.0064-.0487.0156-.0765.025l-.0013.0005a2 2 0 0 1-.0812.0264.4.4 0 0 1-.0334.0086.1.1 0 0 1-.0273.0025.064.064 0 0 1-.0341-.0145.2.2 0 0 1-.0243-.0232l-.0097-.011-.0003-.0003-.0083-.0094-.0052-.0052a.1.1 0 0 1-.0248-.0113.046.046 0 0 1-.0183-.0206c-.009-.0215.0055-.0382.0127-.0449a.11.11 0 0 1 .0268-.0175l.01-.0046.003-.0012.0009-.0004.0003-.0001h.0001l.0085.0224-.0084-.0224.0015-.0006.0016-.0004h.0002l.0005-.0001.0025-.0006.0095-.0023a1.1 1.1 0 0 0 .1405-.046c.0391-.0161.0777-.0356.1076-.058.0304-.0227.0483-.0458.0525-.0682a1.1 1.1 0 0 1 .0546-.1987c.0239-.0611.0553-.1179.0954-.1467l.0011-.0008.0011-.0006.0001-.0001.0006-.0003.0023-.0014.009-.0056a.3.3 0 0 0 .0284-.0209c.0223-.0183.0422-.0403.0481-.0613l.0001-.0001a.7.7 0 0 1 .0424-.1097c.0192-.039.0444-.079.0755-.106.0148-.0133.04-.0275.0671-.0407a1.2 1.2 0 0 1 .0918-.0396 1.2 1.2 0 0 1 .0846-.0295.3.3 0 0 1 .03-.0077.1.1 0 0 1 .0122-.0015.03.03 0 0 1 .0078.0005m-.4751.4649c-.0276.0204-.0545.0652-.0778.1246a1.07 1.07 0 0 0-.0521.1899v.0001c-.0075.04-.037.0725-.0709.0979-.0345.0257-.0773.047-.1181.0639a1.1 1.1 0 0 1-.1471.0481l-.0101.0025-.0019.0004-.0014.0006-.0073.0033-.0073.004.0063.0022a.04.04 0 0 1 .0144.0085.1.1 0 0 1 .0095.0093l.0092.0103.0002.0003.0092.0104a.14.14 0 0 0 .018.0174c.0052.004.0076.0045.0075.0046h.0009l.001.0001q-.0001 0 0 0 .0001.0001.0035-.0002a.1.1 0 0 0 .0096-.0015.4.4 0 0 0 .0295-.0076c.0231-.0068.051-.0163.0792-.0259l.0019-.0006c.0274-.0093.055-.0187.0778-.0254a.4.4 0 0 1 .0317-.0081.07.07 0 0 1 .0278-.0013h.0002q.0986.0224.1948.0533l.0004.0001c.0732.0248.126.0344.1683.0188l.0002-.0001c.0299-.0107.0647-.0136.098-.0128a.6.6 0 0 1 .0961.0112l.0004.0001c.0507.0109.1076.0061.1389-.0035l.0001-.0001c.0164-.0049.0486-.0205.0786-.0359a2 2 0 0 0 .0379-.02l.0116-.0063.0031-.0018.0011-.0005v-.0001l.0011-.0005.001-.0005.0047-.002.013-.0057.0436-.0191a6 6 0 0 0 .1075-.0484l.0021-.001-.0358-.0067a.9.9 0 0 1-.1181-.0302c-.065-.0219-.1763-.0391-.2711-.0368h-.0003c-.092.0013-.1769.029-.2551.0588l-.0002.0001a.57.57 0 0 1-.1247.028.8.8 0 0 1-.0579.0048l-.0033.0002-.0012.0001-.0065.0009a.2.2 0 0 1-.0286.0019l-.006-.0007a.03.03 0 0 1-.0099-.0039.0252.0252 0 0 1-.0041-.0393.05.05 0 0 1 .0129-.0087c.0104-.0052.037-.0241.0631-.0436l.0331-.025.0104-.008.0011-.0009.0604-.0826.0034-.0009.0002-.0002.0106-.0117a1 1 0 0 0 .0358-.0448 2.5 2.5 0 0 0 .1006-.1425c.0352-.054.0684-.1104.0908-.1592a.4.4 0 0 0 .0239-.0645c.0046-.0189.0045-.0309.0025-.0375l-.0032-.0102.0054-.0091a.8.8 0 0 0 .0608-.1321.36.36 0 0 0 .016-.0575l.0007-.0051-.0128.0036a1 1 0 0 0-.0809.0283 1.2 1.2 0 0 0-.0881.038c-.0273.0133-.047.0251-.0561.0333l-.0005.0004c-.024.0208-.0459.0542-.0641.0911a.66.66 0 0 0-.0393.1018c-.0102.0359-.0402.0658-.0638.0852a.4.4 0 0 1-.0431.0305zm-.0608.2852a3 3 0 0 0 .043-.0898l.013-.0276c.0254-.0538.053-.1119.0679-.1382l.0002-.0003c.0097-.0163.0234-.0418.0391-.0709l.0242-.0447c.0249-.0457.052-.0938.0727-.1227a.4.4 0 0 1 .0644-.0691.13.13 0 0 1 .0436-.0259.047.047 0 0 1 .0281-.0005.04.04 0 0 1 .024.0212l.0082.0167-.014.0121c-.1341.1158-.2416.3203-.2995.46l-.0003.0008-.0003.0007a1.3 1.3 0 0 1-.0324.0566.7.7 0 0 1-.0404.0618l-.0062-.0051m-.0693.0315.0057-.0121a.8.8 0 0 1 .0278-.0537l.0005-.0008m-.034.0666-.0009.0004a.027.027 0 0 0-.0135.013.025.025 0 0 0 .0034.0266.03.03 0 0 0 .0086.007.03.03 0 0 0 .005.0023l.0033.0012.0011.0003.0004.0001h.0002l.0061-.0232-.0061.0232.0197.0052.0067-.0149a.044.044 0 0 0 .021-.0154.07.07 0 0 0 .0109-.0239l.0025-.0092c.0008-.0032.0014-.0058.0026-.0094a.03.03 0 0 1 .0045-.0098m-.0556.0311q.0001 0 0 0m.6731.1302-.0091-.0223a.24.24 0 0 1-.0486.0095 1.6 1.6 0 0 1-.0885.0083c-.0585.0042-.1261.0074-.1887.0104l-.0288.0014c-.0693.0033-.1306.0065-.1592.0108a.08.08 0 0 0-.0208.0055.025.025 0 0 0-.0147.0267.025.025 0 0 0 .0088.0157.03.03 0 0 0 .0071.0045.1.1 0 0 0 .0231.0061.6.6 0 0 0 .0371.005l.0013.0002h.0014a.6.6 0 0 0 .057-.0042l.0152-.0017c.0147-.0016.028-.003.0379-.0037.0157-.0006.038-.0011.0623-.0017l.0443-.001c.0391-.001.078-.0023.0947-.0045l.0009-.0001.0179-.0027a2 2 0 0 0 .0689-.0111.5.5 0 0 0 .053-.0125c.0153-.0047.0318-.011.0429-.0202z" clip-rule="evenodd"/><path fill="#009b3a" d="M33.1791 23.5929s-.4244-.2219-.4472-.2272c-.0134-.0019-.1926-.1006-.2745-.126-.0593-.0192-.1411-.0242-.1704-.0223-.0699.0049-.184.0357-.184.0357l.1055.0431s.0989.0486.1473.0746c.0692.0365.0723.081.0723.081l.3843.1689.078.056s.0709-.0978.2887-.0838"/><path fill="#000" fill-rule="evenodd" d="M32.4631 23.2213c.0427.0133.1094.0451.1657.0729l.0459.023.0286.0143a1 1 0 0 0 .0313.0148l.0012.0005.0003.0001a.1.1 0 0 1 .0122.0045l.0175.0081c.014.0067.0326.0159.0541.0267.0431.0216.0983.0498.1528.0779s.1083.056.1485.0769l.0484.0252.0183.0096-.0101.0361c-.1058-.0068-.1745.0136-.2162.0346a.2.2 0 0 0-.0441.0293.1.1 0 0 0-.0114.0117l-.0004.0004-.0111.0154-.0918-.066-.393-.1728-.0008-.0112-.0001-.0004q-.0001-.001-.0008-.0034a.07.07 0 0 0-.0067-.0148c-.0075-.0125-.0229-.0304-.0546-.0471l-.0001-.0001a4 4 0 0 0-.0914-.0468l-.0392-.0195-.0118-.0058-.0038-.0019-.1573-.0642.0548-.0148.0003-.0001.001-.0003.0038-.001.0141-.0036c.0119-.003.0285-.007.0474-.0112a.9.9 0 0 1 .121-.0201h.0001c.0313-.0021.1154.0031.1774.0231m-.2984.0362.0516.0211.0005.0003.0044.0021.0119.0059.0394.0196c.0307.0153.0678.0341.0923.0472.0374.0198.0581.0424.0695.0613a.1.1 0 0 1 .0104.023l.3772.1659.0658.0473.0043-.004a.25.25 0 0 1 .0523-.0348c.0358-.0181.0866-.0346.1561-.039l-.1452-.0753a19 19 0 0 0-.1525-.0777 3 3 0 0 0-.0534-.0263l-.0164-.0076-.0052-.0021-.0004-.0002a.04.04 0 0 1-.007-.0023l-.0088-.0039-.0252-.0122-.0293-.0146-.0452-.0226c-.0571-.0283-.1209-.0586-.1602-.0708h-.0002c-.0566-.0183-.1358-.0232-.1632-.0214a.9.9 0 0 0-.1153.0193z" clip-rule="evenodd"/><path fill="#009b3a" d="M33.6057 22.7121c.1335-.119.1988-.2881.3086-.3818.0178.0127.0178.034-.0039.0714-.0208.037-.0484.0497-.0605.0689-.0224.03-.0893.0855-.1074.1189-.016.0315-.0368.0757-.0951.1093-.0579.0346-.0397.0897-.0445.1128-.0047.0254-.0939.0893-.1371.1683-.0082.0823-.0119.0478-.0618.077.0909-.137.1387-.2252.2017-.3449m-.2999.3766c-.0086.018-.2719.1673-.1895.1452.0818-.0215.325-.1093.3941-.14.0845-.0369.1352-.1142.1987-.1771.0647-.0643.2651-.2556.2997-.3294.0339-.076.0647-.1816-.0711-.4188 0 0-.0211.0453-.0717.0897-.0501.0454-.1247.0956-.1247.0956l-.0871.0822s-.3076.5648-.3484.6526"/><path fill="#000" fill-rule="evenodd" d="m33.9355 22.1135.0243.0424c.069.1206.097.21.1025.2805.0054.0714-.0124.1212-.0302.1612l-.0002.0005c-.0102.0217-.0312.0497-.0559.079a2 2 0 0 1-.0873.096c-.0482.0501-.0986.0996-.134.1344l-.0276.0271a1 1 0 0 0-.045.048l-.0034.0039c-.0138.0153-.028.0311-.0428.0462-.0322.0328-.0686.0639-.1151.0842m.1707-.2181.0282-.0278a7 7 0 0 0 .1325-.1329 2 2 0 0 0 .0851-.0935c.0245-.0292.0415-.0526.0487-.0678.016-.0359.0304-.0769.0259-.1365-.0042-.0538-.024-.1247-.0753-.2218a.37.37 0 0 1-.0536.0586 1.1 1.1 0 0 1-.083.0663l-.0316.0226-.0093.0064-.0017.0012-.0827.0781-.0114.0209-.0354.0651-.1102.2037c-.0822.1527-.1688.3149-.1888.3579m.3255-.6632-.0222-.0121.0019-.0035.0915-.0865.0018-.0012.0001-.0001.0006-.0004.0024-.0016.009-.0062a1 1 0 0 0 .0306-.0219c.0247-.018.055-.0413.0791-.0631l.0003-.0003a.3.3 0 0 0 .0507-.0568.2.2 0 0 0 .0141-.0233l.0006-.0011v-.0002h.0001l.0205-.0443m-.8125 1.1447-.0065-.0244zm.7901-.9599.0161.0115a.054.054 0 0 1 .0234.048c-.0007.0178-.0087.0368-.0201.0565a.19.19 0 0 1-.0383.0471l-.0079.0072c-.0078.0071-.012.0109-.0149.0155l-.0005.0008-.0006.0008c-.0105.0142-.0293.0328-.0472.0506a1 1 0 0 0-.0402.0415.15.15 0 0 0-.0178.0235l-.0018.0035c-.0161.0319-.0403.0797-.1029.1158a.057.057 0 0 0-.03.0428.15.15 0 0 0-.0012.0254v.0024a.12.12 0 0 1-.0013.0253.06.06 0 0 1-.0094.0207.2.2 0 0 1-.0139.0172 1 1 0 0 1-.0375.0389c-.0272.0279-.0567.0599-.0765.0944a.3.3 0 0 1-.0062.0412.05.05 0 0 1-.0199.0306.05.05 0 0 1-.0136.0061l-.0068.0019-.0034.0009a.1.1 0 0 0-.0238.0104l-.0338-.0358c.0902-.136.1376-.2234.2005-.3427l.0158.0083.0015-.0021-.0118-.0132c.0641-.0572.1122-.1267.159-.1958l.0054-.0079c.0443-.0654.0888-.1309.1446-.1785zm-.0294.0989a.13.13 0 0 1-.0163.0199z" clip-rule="evenodd"/><path fill="#009b3a" d="M34.3753 22.8899s-.1684-.0151-.1831-.0151c-.0159 0-.1082-.0127-.2425-.0127-.1329 0-.1828.0461-.2177.0832-.0378.0415-.1427.1374-.1427.1374l.0566-.005c.1347-.1048.2396-.0664.2814-.0694.0437-.0016.0962.0028.2312-.045.1369-.048.1288-.003.1138.0016a.71.71 0 0 1-.2032.0409c-.1017.0056-.1909.0253-.2308.0253-.0402 0-.3368.0811-.3368.0811s.3209.0188.3555.0303c.0344.014.0884.0074.133-.014.1229-.0566.1785-.0674.229-.0789.0509-.0098.1114-.0442.1114-.0442s.0325-.0205.0624-.0748c.0309-.0558-.0175-.0407-.0175-.0407m.1575-.8788c.0203-.0502.0709-.1682.1246-.2145.0327-.0286.0891-.0419.1191-.0545.0127-.0043.1049-.0088-.0102.0228-.0478.0128-.1123.0409-.141.089-.0402.1116-.0754.2089-.1501.2802-.0549.0576-.0897.1326-.0897.1326l-.0588.0204c.1079-.066.1547-.1885.2061-.276m.5217-.0629c-.0615.0205-.083.0374-.083.0374-.1376.0413-.1939.1275-.2541.1978-.0306.0368-.0736.0643-.2187.1264-.1326.057-.2352.145-.2377.145 0 0-.042.0086-.034.029.0032.0097.039.0019.039.0019s.2732-.0389.387-.1081c.0727-.0456.1139-.0788.1828-.1852.0309-.0471.0655-.1356.0671-.0786.0053.151-.2294.2974-.3316.3426-.0548.0232-.1277.0328-.2232.0486-.0943.0173-.1516.0121-.1447-.0086.0096-.0301.0206-.0363.0455-.066.0449-.0535.1534-.0724.2333-.1099.0946-.0423.1842-.1046.2291-.1578.0458-.0538.0617-.0737.0742-.1191.0351-.1189.0368-.1848.0696-.2273.1154-.142.1323-.1878.1379-.2512.0013-.0146-.0599.0337-.0916.0513-.0622.0368-.0852.0368-.2125.07-.1293.0322-.1264.1154-.1465.1548-.0058.0157-.0582.081-.0833.0931-.0249.0127-.0864.1015-.1091.1535-.0168.038-.0469.0653-.0709.0623-.0252-.0048.0484-.2799.0646-.3254.0175-.0451.0209-.1334.0209-.1631 0-.0285.0011-.1034-.0489-.1118-.0496-.0084-.0519-.0769-.0519-.0769-.1195.1034-.0527.2856-.0399.3936.0128.107-.0246.3051-.0246.3051.1154.0493.0246.1894-.0112.2347-.0378.046-.1093.0544-.1414.095-.034.0418-.2758.3782-.2758.3782l.3008-.0851s.028.0049-.0169-.029c-.0455-.0326.0146-.1589.0534-.1898.0739-.0579.1738-.0158.1738-.0158s.1394.0214.3104-.0464c.1429-.0564.2043-.1477.272-.2164.0369-.0374.1043-.1616.1467-.2351.0256-.0426.0715-.1233.0433-.1137"/><path fill="#000" fill-rule="evenodd" d="M34.251 21.5224c-.028.0406-.0353.0905-.0328.1442a.8.8 0 0 0 .0133.1028l.0044.0237c.0047.0249.0093.0491.0118.0703.0068.0567.0003.1356-.0075.1985a2 2 0 0 1-.0142.0962.2.2 0 0 0-.0173-.0088l-.0094.0221-.0236-.0044.0001-.0006.0003-.0016.0011-.0063.004-.0236c.0033-.02.0075-.0478.0114-.0789.0077-.0628.0135-.1365.0075-.1869a1 1 0 0 0-.0111-.0658l-.0047-.0252a.8.8 0 0 1-.0141-.1092c-.0035-.0752.0101-.1557.0778-.2144l.0381-.0329.0017.0502v.0003l.0001.0015.0007.0063a.1.1 0 0 0 .005.0197c.0055.0149.0137.0243.0261.0264.0394.0066.0557.0398.0624.066a.27.27 0 0 1 .0065.0673v.0021a1 1 0 0 1-.004.0781c-.003.0315-.0085.0675-.0184.0934a2.3 2.3 0 0 0-.0469.175 1.1 1.1 0 0 0-.0192.0987l-.0014.0118.0026-.0022a.11.11 0 0 0 .0267-.0382.6.6 0 0 1 .0561-.0957.5.5 0 0 1 .0326-.042.12.12 0 0 1 .0316-.0276l.0004-.0002a.1.1 0 0 0 .0167-.0132.4.4 0 0 0 .0523-.0629l.0022-.0038q0-.0001 0 0l.0005-.0013.0006-.0012c.0031-.006.0054-.0132.0087-.0235l.0031-.0094a.23.23 0 0 1 .0213-.0487c.0216-.0357.0587-.0681.1288-.0856.028-.0073.0508-.0129.0699-.0177.0694-.0173.0905-.0226.1363-.0497l.0006-.0003c.01-.0055.0227-.0141.0362-.0232l.0205-.0137a.2.2 0 0 1 .0274-.0159.04.04 0 0 1 .0176-.0042.026.026 0 0 1 .0192.0089.027.027 0 0 1 .0064.0198l-.0001.0001a.26.26 0 0 1-.0304.1051c-.0205.0393-.0548.0878-.1126.1589-.0128.0168-.0206.0393-.0294.0757l-.0072.0306c-.0069.0301-.0152.0664-.0277.1092a.41.41 0 0 1 .1512-.0829l.002-.0014a.2.2 0 0 1 .016-.0091.5.5 0 0 1 .0679-.0278c.0055-.0019.0202-.0055.0318.006a.033.033 0 0 1 .0085.027.13.13 0 0 1-.0123.037.9.9 0 0 1-.0429.0785l-.0233.0408a6 6 0 0 1-.0522.0905c-.0264.0442-.0539.0874-.0748.1085a1 1 0 0 0-.037.0397c-.0556.0612-.1221.1344-.2433.1821a.73.73 0 0 1-.2268.0504.6.6 0 0 1-.0887-.0016l-.0053-.0006-.0014-.0002-.0004-.0001h-.0002l.0036-.0237-.0036.0237-.003-.0004-.0027-.0012h-.0001l-.0005-.0002-.0027-.001a.2.2 0 0 0-.0489-.0109c-.0309-.0029-.0672.0009-.0975.0246a.14.14 0 0 0-.0255.0319.3.3 0 0 0-.025.0516.15.15 0 0 0-.01.0482c.0001.0132.0038.0179.0063.0197l.0005.0004a.17.17 0 0 1 .0253.0224.04.04 0 0 1 .0075.0119.027.027 0 0 1-.0158.0362.04.04 0 0 1-.0101.0019h-.0021l-.0711.0201a2.3 2.3 0 0 1 .1647.0101l.001.0001a.4.4 0 0 0 .0235.0019c.0087 0 .0561.0039.0991.0076l.0596.0052.0225.002.0058-.001a.05.05 0 0 1 .0251.0023.035.035 0 0 1 .016.0122.037.037 0 0 1 .0068.0208c.0004.0131-.005.0273-.0133.0423a.28.28 0 0 1-.0464.0631.2.2 0 0 1-.0166.0149l-.0051.0038-.0016.0011-.0005.0003-.0002.0002h-.0001s-.0001.0001-.0129-.0202l.0119.0208-.0001.0001-.0002.0001-.0006.0003-.0022.0012a.4.4 0 0 1-.0354.0177.38.38 0 0 1-.0798.0275l-.0082.0018c-.0474.0107-.1018.0229-.2156.0753a.25.25 0 0 1-.0779.0224.16.16 0 0 1-.0733-.0075.2.2 0 0 0-.0204-.0035 1 1 0 0 0-.0441-.0048 5 5 0 0 0-.12-.0098 10 10 0 0 0-.1506-.01l-.0138-.0008.0014-.024-.0064-.0231.0034-.0009.0095-.0026.0342-.0092.0261-.007.0048-.0044.0001-.0001.0045-.0041.0123-.0113.04-.0374c.0311-.0293.066-.063.0842-.083l.0003-.0003.0111-.0115-.0143.004.0401-.0558.0105-.0145.0278-.0387.0869-.1203c.0643-.0887.1336-.1839.1514-.2057.0191-.0241.0486-.0384.0729-.0502l.0039-.0018c.0272-.0133.0495-.0248.0646-.0431.0172-.0218.0464-.065.0578-.1071.0057-.0209.0063-.0391.0013-.0536-.0046-.0135-.0152-.0268-.0387-.0368l-.0177-.0076.0036-.0189m-.3451.6705.0849-.1176c.065-.0897.1334-.1835.1498-.2036l.0002-.0003c.012-.0151.032-.0251.0602-.0388l.0003-.0001c.0258-.0126.0579-.0282.0806-.0558l.0003-.0003c.0186-.0235.0526-.0729.0666-.1245.0071-.0259.0097-.0548.0004-.0818a.104.104 0 0 0-.0479-.0566l-.0015.0088-.0012.0066-.0003.0017-.0001.0005v.0001l-.0236-.0044m-.3687.6661.2042-.0578c-.0155-.0145-.0202-.035-.0203-.0534a.2.2 0 0 1 .0128-.0648.33.33 0 0 1 .0294-.0607.18.18 0 0 1 .0365-.0442l.0001-.0001a.17.17 0 0 1 .0941-.0351.033.033 0 0 1-.0069-.0327c.009-.028.0209-.0413.0363-.0584l.0137-.0155c.0269-.0321.0709-.052.1135-.068a2 2 0 0 1 .0456-.0164 2 2 0 0 0 .0391-.0139 1 1 0 0 1 .0605-.0289q.0217-.0093.0404-.0176c.0697-.038.1303-.0839.1633-.123l.0001-.0001c.0458-.0538.0584-.0701.0694-.1099l.0001-.0004c.0126-.0428.0207-.0782.0278-.1089q.0038-.017.0075-.0323c.009-.0367.0185-.0683.0383-.0939l.0004-.0005c.0575-.0708.0892-.1162.1074-.1511a.22.22 0 0 0 .018-.0442l-.0067.0044c-.0144.0097-.0301.0203-.0419.0269-.052.0307-.0804.0378-.1518.0555-.0188.0047-.0406.0101-.0666.0169l-.0002.0001c-.0591.0147-.0851.04-.0995.0638a.2.2 0 0 0-.0168.0389l-.0023.0071a.24.24 0 0 1-.0118.0315.13.13 0 0 1-.0144.0236.43.43 0 0 1-.0515.0597.13.13 0 0 1-.0285.0214l-.0003.0002-.0105-.0216.0108.0214-.0003.0002-.0012.0009-.004.0034a.1.1 0 0 0-.0117.012.5.5 0 0 0-.0294.0379.56.56 0 0 0-.0513.0873l-.0001.0001a.16.16 0 0 1-.0387.0548c-.0149.0132-.0352.0243-.0571.0215h-.0007l-.0007-.0002a.029.029 0 0 1-.0217-.0192.06.06 0 0 1-.003-.0167.2.2 0 0 1 .0025-.0372 1.2 1.2 0 0 1 .02-.1032c.0173-.0753.04-.1565.0486-.1806l.0002-.0006c.0075-.0193.0125-.0499.0155-.0811a.8.8 0 0 0 .0038-.0734v-.0011c0-.0148 0-.0369-.005-.0564-.0052-.0204-.0133-.0288-.0239-.0306-.0339-.0058-.0517-.0303-.0607-.0509m.0482.9335a1.4 1.4 0 0 1 .0454-.0326 1 1 0 0 1 .104-.0631.9.9 0 0 0 .1021-.0471c.1119-.0496.1539-.0771.185-.1144q.0118-.0139.0234-.0279c.0528-.0638.1065-.1286.2192-.1624l.0044-.0013.0034-.0027.0003-.0002.0023-.0016a.3.3 0 0 1 .0384-.0189 1 1 0 0 1-.0366.0656l-.0002.0003-.024.0421c-.0154.0271-.0322.0567-.0489.0849a.19.19 0 0 0 .0095-.0638v.0001l-.024.0007.024-.0009v.0001a.07.07 0 0 0-.0038-.0229.03.03 0 0 0-.0105-.0138.027.027 0 0 0-.0226-.0041.03.03 0 0 0-.0127.0067.1.1 0 0 0-.0068.0071.2.2 0 0 0-.0107.0156c-.0057.0093-.012.021-.0183.0326l-.0036.0066a.5.5 0 0 1-.0222.0384l-.0001.0001c-.0339.0524-.0603.0857-.0866.1113-.0261.0255-.0528.0441-.0886.0665-.0532.0323-.1462.0587-.2288.0771a2 2 0 0 1-.1124.0219m.4748-.0973a.93.93 0 0 1-.193.1195l-.0004.0002c-.0505.0214-.1152.0318-.1927.0443l-.0356.0058a.8.8 0 0 1-.0582.0085l.0138.001a.6.6 0 0 0 .0638 0 .68.68 0 0 0 .2118-.0471c.0887-.0349.1437-.0831.1905-.1322m.2881-.3879-.0049-.0144zm-.0229-.0174q0-.0012.0001-.0002zm-.3096.2246-.0183-.0155zm-1.0656.916-.0034.0026-.0022.0017.0096.0007c.0423.0031.0859.0065.1211.0099.0176.0017.0334.0034.0459.0051a.2.2 0 0 1 .0296.0056l.0007.0002.0008.0003c.0123.005.03.007.0509.0047a.2.2 0 0 0 .0626-.018l.0003-.0002c.1185-.0545.1762-.0675.2256-.0786l.0082-.0019.0007-.0002a.33.33 0 0 0 .0694-.024.5.5 0 0 0 .0324-.0162l.0017-.0009.0002-.0001.003-.0023a.1.1 0 0 0 .0123-.0111.23.23 0 0 0 .0411-.0575l-.0013-.0001-.0265-.0024-.0595-.0052-.0621-.0051-.0225-.0017-.0072-.0005-.0023-.0001h-.0009a.4.4 0 0 1-.0265-.002l-.0024-.0002a2.1 2.1 0 0 0-.2136-.0105c-.0636 0-.1056.011-.1352.0252a.21.21 0 0 0-.0649.0502 1.4 1.4 0 0 1-.0567.057.32.32 0 0 1 .1266-.0376.4.4 0 0 1 .0801.002c.0121.0011.0199.0019.026.0014h.0009l.0153-.0004c.0181-.0004.0372-.0008.0635-.0045.0335-.0049.0788-.0152.1451-.0387h.0001a.43.43 0 0 1 .0824-.0218c.0197-.0027.0364-.0021.0491.0035a.04.04 0 0 1 .0176.015.033.033 0 0 1 .0041.0227.036.036 0 0 1-.0237.0275.74.74 0 0 1-.2097.0422 1.6 1.6 0 0 0-.1364.0145l-.0132.0019c-.0334.0047-.0628.0089-.0824.0089a.2.2 0 0 0-.0217.0031 1 1 0 0 0-.0426.009 4 4 0 0 0-.11.0269m.5024-.1081-.0054-.0155zm-.5003.058a4 4 0 0 1 .0973-.0236 1 1 0 0 1 .0445-.0094.2.2 0 0 1 .0304-.0039c.0159 0 .0416-.0036.0765-.0086l.0117-.0016.0004-.0001h.0003a1.7 1.7 0 0 1 .1405-.0149.7.7 0 0 0 .1965-.0396l.0005-.0002.0006-.0002-.0011.0004a.012.012 0 0 0-.0077.0094.015.015 0 0 0 .0019.0103.01.01 0 0 0 .0043.0043c-.0001 0-.0016-.0006-.0056-.0009a.1.1 0 0 0-.0178.001.4.4 0 0 0-.0729.0196m-.5003.058-.0173.0044-.0059.0015m.0018.0143.0183-.0172.0031-.003m-.1646.0682-.0064-.0231.005.0471zm.8289-.1068.0119.0208.0005-.0002.0004-.0003zm.3112-1.227c.0197-.0171.0452-.0287.0677-.0374a1 1 0 0 1 .0306-.011l.002-.0008a.4.4 0 0 0 .0252-.0092l.0008-.0004.0008-.0002a.1.1 0 0 1 .0125-.0027l.0138-.0013a.12.12 0 0 1 .0296.0012.04.04 0 0 1 .0103.004.026.026 0 0 1 .0126.0219.027.027 0 0 1-.0089.0198.04.04 0 0 1-.009.0062c-.01.0054-.0284.0117-.057.0195l-.0001.0001a.3.3 0 0 0-.072.0289c-.0229.013-.0419.0289-.0534.0473l-.0001.0003c-.0394.1092-.0762.2112-.1548.2865a.5.5 0 0 0-.0619.0832 1 1 0 0 0-.0172.0308l-.0044.0088-.0011.0022-.0003.0006v.0001l-.0043.0092-.0685.0237-.0204-.0431c.0496-.0303.0859-.0741.1165-.1223a1 1 0 0 0 .0423-.0738l.0074-.0138c.0103-.0193.0205-.0385.0309-.0562a1.2 1.2 0 0 1 .0501-.1093c.022-.0418.0498-.0864.0803-.1128" clip-rule="evenodd"/><path fill="#009b3a" d="M34.2017 22.7561c.023-.0092.0264-.0134.0685-.0593.0414-.0458.0049-.1232-.0592-.12-.0313.0021-.0646-.0052-.1262.0776-.0594.0828.0285.1131.0619.1166.0143.0007.0331-.0055.055-.0149"/><path fill="#000" fill-rule="evenodd" d="M34.2096 22.5499c.0871-.0042.1382.1007.0803.1647l-.0001.0002-.0039.0043a.6.6 0 0 1-.0395.041.11.11 0 0 1-.0345.0206c-.0214.0091-.0455.018-.0667.0168h-.0007l-.0006-.0001c-.0198-.002-.057-.0117-.0818-.036a.077.077 0 0 1-.0242-.0537c-.0006-.0223.0081-.0454.0251-.069l.0003-.0004c.0321-.0432.0592-.0661.0851-.0776.0213-.0094.0409-.01.0539-.0104l.0068-.0003zm.0028.0534c.0409-.0018.0627.0479.0379.0754l-.0013.0014a.6.6 0 0 1-.038.0399.05.05 0 0 1-.0194.0112l-.0005.0002c-.0218.0093-.0351.013-.0425.0128-.0137-.0016-.0366-.0088-.049-.0209a.024.024 0 0 1-.0083-.0171c-.0001-.0068.0024-.0185.015-.0362.0294-.0394.0497-.0542.0637-.0604.0111-.0049.0191-.0052.0311-.0057z" clip-rule="evenodd"/><path fill="#009b3a" d="M34.0463 22.2321c-.0398.0667-.0611.1432-.0298.1668.007.0038.0348.0282.0582.0282.0231 0 .0885-.0314.1258-.0889.0374-.0557.0679-.1169-.0085-.155-.0693-.0343-.1169-.0022-.1457.0489"/><path fill="#000" fill-rule="evenodd" d="M34.0934 22.1504c.0328-.0137.0704-.0117.1107.0083h.0001c.0222.0111.0392.0251.0499.0427a.088.088 0 0 1 .012.0554c-.0036.0346-.0244.0689-.0428.0964a.25.25 0 0 1-.1146.0935.1.1 0 0 1-.034.0077c-.0198 0-.0382-.0098-.0495-.0167-.0063-.0038-.0118-.0077-.0159-.0106l-.0025-.0019-.0036-.0025-.0016-.0009L34 22.4206a.066.066 0 0 1-.0247-.0442.14.14 0 0 1 .0027-.0504c.0071-.034.0237-.0724.0445-.1073v-.0001c.0161-.0286.0391-.0549.0709-.0682m-.0489.0806.0252.0151a.32.32 0 0 0-.0383.0911.09.09 0 0 0-.0021.0308c.0009.0055.0024.0078.0032.0086.0025.0016.0052.0036.0073.0051l.0014.001q.0057.0042.0125.0084a.05.05 0 0 0 .021.0087m0 0 .001-.0001.0031-.0006a.1.1 0 0 0 .0102-.0033.196.196 0 0 0 .0885-.0725l.0003-.0003c.0189-.0283.0319-.0523.0339-.0717a.033.033 0 0 0-.0042-.0215c-.0039-.0064-.0118-.0143-.0277-.0222-.0289-.0143-.0498-.0133-.0653-.0069-.0166.007-.0317.0222-.0444.0447l-.0256-.0144" clip-rule="evenodd"/><path fill="#009b3a" d="M34.2737 21.4188s.0064-.0103-.0199-.0374c-.0415-.0426-.0935-.1182-.0935-.1182-.0826.0452-.1101.1365-.1101.1728 0 .0376.014.1197.0013.2033-.0045.0284-.0091.0609-.05.1643-.0418.1021.006.1959.0153.229.0072.0328.0413.1349.0413.1349s.0323-.0207.0433-.0231c.0127-.0035.0568-.0016.0568-.0016s.0498-.09.0516-.14c.0009-.0369-.0049-.0994-.0225-.1953-.0243-.1397-.0228-.1795-.0062-.2576.0166-.0792.0926-.1313.0926-.1313"/><path fill="#000" fill-rule="evenodd" d="m34.1801 21.2496-.0123-.0179-.019.0104a.24.24 0 0 0-.0959.0997c-.0186.0357-.0268.0714-.0268.0941a.5.5 0 0 0 .0021.0378l.0004.0055q.0016.0196.003.0424a.56.56 0 0 1-.0039.114l-.0004.0022c-.004.0261-.009.058-.0481.1569-.0394.0963-.006.1877.009.2287q.0035.0093.0053.0151a1.2 1.2 0 0 0 .0237.0811c.0047.0149.0093.0288.0126.0389l.004.0121.0015.0045.0097.0292.026-.0166.0001-.0001.0002-.0001.001-.0006.0036-.0023.0117-.0071.0131-.0071.0056-.0026.0002-.0001.0006-.0001.0005-.0001.0026-.0004.0066-.0005a1 1 0 0 1 .0336-.0001l.0049.0002h.0014l.0004.0001.0148.0006.0072-.013.0001-.0001.0001-.0002.0005-.0009.0017-.0031.0058-.0113a1 1 0 0 0 .0179-.0376c.0126-.0285.0274-.0674.0285-.0976v-.0002c.001-.0394-.0052-.1038-.0228-.2002-.0121-.0695-.0175-.1128-.0181-.148-.0005-.0346.0036-.0621.0117-.1003l.0001-.0001c.007-.0337.027-.0627.0467-.084a.24.24 0 0 1 .0335-.0306l.002-.0015.0004-.0003-.0133-.0196.0203.0124.0001-.0002.0002-.0002.0003-.0005.0006-.0012.0011-.0027a.03.03 0 0 0 .0016-.0066.04.04 0 0 0-.0014-.0162c-.0032-.0112-.0111-.0239-.0257-.0389l-.0001-.0001a.8.8 0 0 1-.0602-.0727 1 1 0 0 1-.0221-.0302l-.0063-.0089-.0017-.0024-.0004-.0006zm.0662.1599a.1.1 0 0 0-.0098-.0115.8.8 0 0 1-.0642-.0773l-.0185-.0252a.194.194 0 0 0-.0583.0685c-.0158.0302-.0214.0584-.0214.0719q.0001.0123.002.0341l.0004.0054q.0017.0195.003.0437a.6.6 0 0 1-.0044.1237v.0001l-.0001.0011c-.0047.03-.0102.0646-.0512.1684l-.0001.0003c-.0315.077-.0068.1471.0086.1907a.4.4 0 0 1 .0076.0226l.0002.0008.0001.0007c.0033.0151.0132.0476.0228.0776l.0085.0265.0077-.0041a.1.1 0 0 1 .0164-.0065.1.1 0 0 1 .0187-.0023.3.3 0 0 1 .0296-.0003l.0007-.0013a1 1 0 0 0 .0167-.0352c.0127-.0289.0237-.06.0244-.0799.0009-.0344-.0046-.0949-.022-.1903l-.0001-.0002c-.0122-.07-.0181-.1164-.0188-.1555a.46.46 0 0 1 .0128-.1111c.0095-.0455.0358-.0821.0583-.1066a.3.3 0 0 1 .0304-.0288" clip-rule="evenodd"/><path fill="#009b3a" d="M34.3971 21.5581s.0469-.0112.0706-.0537c.0298-.0513.0219-.1058.0219-.1058-.0727-.1408-.1704-.0271-.1704-.0271-.0874.1788.0779.1867.0779.1867"/><path fill="#000" fill-rule="evenodd" d="M34.4436 21.3111c.0263.0124.0496.037.0695.0754l.002.004.0006.0044-.0261.0037.0261-.0037.0001.0001v.0003l.0001.0007.0002.0025q.0004.003.0006.0082a.2.2 0 0 1-.0261.1107.14.14 0 0 1-.0543.0528.15.15 0 0 1-.0319.0132l-.0007.0002-.0003.0001h-.0001l-.0062-.0256v-.0002.0002l-.0013.0264h-.0001l-.0003-.0001h-.0005l-.0019-.0001-.0063-.0007a.2.2 0 0 1-.0205-.0039.15.15 0 0 1-.0573-.0273.108.108 0 0 1-.0406-.0731c-.004-.0327.0041-.072.0273-.1194l.0014-.0031.0022-.0025.02.0171-.02-.0171.0001-.0001.0002-.0002.0003-.0004.0011-.0012.004-.0041a.2.2 0 0 1 .014-.0128.16.16 0 0 1 .0502-.0284.1.1 0 0 1 .0745.004m-.1023.0753.001-.001a.1.1 0 0 1 .0101-.0092.1.1 0 0 1 .0329-.0189.046.046 0 0 1 .0358.0015c.0119.0056.0271.0186.0428.0475l.0002.0028a.2.2 0 0 1-.0005.0208.15.15 0 0 1-.0187.0612l-.0003.0005a.085.085 0 0 1-.0338.0325.1.1 0 0 1-.0149.0068l-.0016.0005-.0008-.0001a.1.1 0 0 1-.0145-.0027.1.1 0 0 1-.0372-.0173.055.055 0 0 1-.0211-.0385c-.0023-.0185.0015-.0462.0206-.0864m.1222.0158" clip-rule="evenodd"/><path fill="#009b3a" d="M34.6444 21.3001c-.1085.0056-.1618.2004-.1618.2004s-.0176.0482-.0754.0854c-.0615.038-.0252.0926-.0252.1897 0 .0969-.0677.2685-.0677.2685l-.0252.0582s.0023.0436.0419-.0357c.0672-.1334.1409-.101.1687-.2445.0176-.1068.1945-.1408.1945-.1408l-.0498-.0093c-.1838-.0861.0107-.3008.0421-.3388.0333-.038.0651-.038-.0421-.0331"/><path fill="#000" fill-rule="evenodd" d="M34.7105 21.3533c.0064-.0073.0129-.0129.0187-.0181l.001-.0008c.0025-.0023.0063-.0056.0092-.0088a.04.04 0 0 0 .0065-.0091.034.034 0 0 0 .0024-.0254.034.034 0 0 0-.0177-.0202.04.04 0 0 0-.012-.0036.1.1 0 0 0-.0178-.0009q-.0155.0001-.046.0017l-.0116.0005h-.0002c-.0369.0019-.0672.0199-.0909.0422a.3.3 0 0 0-.0566.0764.54.54 0 0 0-.0401.0954l-.0021.0068-.0002.0008-.002.0042a.14.14 0 0 1-.0101.0168.18.18 0 0 1-.0504.0481.102.102 0 0 0-.0418.0459.12.12 0 0 0-.0084.0546c.0006.0134.0026.0283.0045.0429l.0015.0114a.5.5 0 0 1 .0044.0613c0 .0433-.0155.1064-.0324.1614a2 2 0 0 1-.0228.0682l-.0075.0203-.0021.0054-.0005.0013-.0279.0644.0004.0074.0312-.0017-.0312.0017v.0006l.0001.0009.0003.0027.0018.0085a.04.04 0 0 0 .0064.0134.0365.0365 0 0 0 .0507.0091.07.07 0 0 0 .0149-.0137.26.26 0 0 0 .027-.0448c.0268-.0534.0537-.0764.0809-.0996l.0109-.0094a.23.23 0 0 0 .0469-.0532c.0143-.0231.0253-.0518.0327-.0905l.0002-.0008c.0061-.0369.0413-.066.0863-.0872a.4.4 0 0 1 .0767-.0265l.005-.0011.0012-.0003h.0003v-.0001l-.0002-.0615-.0457-.0085c-.0361-.0178-.05-.0395-.0546-.0605-.0051-.0237.0003-.0527.0139-.0846.0246-.0576.0698-.1113.091-.1365zm-.1137.3269a.142.142 0 0 1-.0582-.0856c-.0091-.042.0016-.0852.0175-.1225.0249-.0582.0671-.112.0912-.141m-.0012 0q-.026.0016-.0511.0253a.24.24 0 0 0-.0445.0608.5.5 0 0 0-.037.0897l-.0004.0014-.0001.0003-.0004.0012-.0004.0013-.0294-.0108.0294.0108v.0001l-.0001.0001-.0001.0003-.0003.0008-.001.0024-.0036.0076a.2.2 0 0 1-.0146.0246.24.24 0 0 1-.0682.0651l-.0005.0003c-.011.0068-.0154.0128-.0176.0179a.06.06 0 0 0-.0032.0267.4.4 0 0 0 .0038.0358l.0017.0134a.5.5 0 0 1 .005.0692c0 .0521-.0173.1208-.0338.1751q.0104-.0093.0198-.0173l.0102-.0088a.17.17 0 0 0 .0349-.0389c.0094-.0153.0181-.0363.0244-.0692.0117-.0696.0736-.1107.1214-.1332l.0064-.0029" clip-rule="evenodd"/><path fill="#009b3a" d="M34.6137 21.5312c-.0496.1065.0917.1116.1243.093.0132-.0076.0431-.0431.0431-.0431.0573-.0823.0049-.138-.025-.146-.0288-.0095-.0903-.0169-.1424.0961"/><path fill="#000" fill-rule="evenodd" d="M34.7636 21.4096c.0236.0067.0501.0289.0624.0611.0134.0348.0097.0785-.0232.1257l-.0007.001-.0008.001-.0001.0001-.0003.0003-.001.0013-.0038.0043a.6.6 0 0 1-.0276.0293.1.1 0 0 1-.0172.0136l-.0002.0001c-.0138.0079-.034.0113-.0527.0118a.17.17 0 0 1-.0628-.0095c-.0204-.0076-.0417-.0214-.0525-.0455-.011-.0246-.0081-.0533.0063-.0842.0276-.06.0599-.0926.0934-.1072a.112.112 0 0 1 .0808-.0032m-.0039.1554c.0237-.0347.0225-.0597.0165-.0752a.05.05 0 0 0-.0272-.0289l-.0007-.0002-.0008-.0002a.058.058 0 0 0-.0434.0012c-.0174.0076-.0419.0278-.0663.0807v.0001c-.0105.0224-.0086.0342-.006.0399.0028.0063.0095.0125.0223.0172a.12.12 0 0 0 .0429.0063.08.08 0 0 0 .0275-.0047l.0021-.0016.0052-.0046a.3.3 0 0 0 .0241-.0257l.0034-.0039z" clip-rule="evenodd"/><path fill="#009b3a" d="M34.3452 21.1181c.0371.0691.1407.2612.165.2492.0153-.0074.0032-.0468.0032-.0468s-.0031-.052-.02-.1148c-.0166-.0634-.0125-.1445-.0456-.1965-.0321-.052-.1091-.1136-.1394-.1957-.03-.0822-.0065-.238-.004-.2571.0031-.018.0122-.0062-.0038-.0248-.0162-.0201-.1471-.0898-.1471-.0898s.0076.0508.0045.1428c-.0013.0223-.0076.0482-.011.0869-.0031.0369.0191.0832.0728.1891.0623.1226.0923.1978.1254.2575m.7855-.914s-.0378.0629-.0512.0767c-.0141.014-.2274.1973-.2396.205-.0103.008-.1217.0436-.2231.3175-.1017.273-.0577.5283-.0577.5283l.0493-.0061.0084-.0267.0293-.1594c.0141-.0677.0902-.1625.1406-.2324.0482-.0684.087-.1668.087-.1668.0571-.1151.0846-.2181.1413-.2984.0022.0956-.3615.6836-.4004.8836l.1077-.0164c.086-.0786.1987-.2436.2749-.35.0767-.1068.1093-.2736.1232-.3476.0134-.073.0103-.4072.0103-.4072"/><path fill="#000" fill-rule="evenodd" d="m35.11 20.1917.0206.0124.024-.0003v.0038l.0001.0108.0002.039c.0001.0325 0 .0767-.0004.1231a5 5 0 0 1-.003.1373c-.0016.0413-.0039.0776-.0076.0979v.0001a1.6 1.6 0 0 1-.0387.164c-.0198.0653-.048.1366-.0886.1931m.0903-.6881a.1.1 0 0 1-.0103.0126l-.0003.0003a6 6 0 0 1-.1218.1061 11 11 0 0 1-.1062.0899.3.3 0 0 1-.0146.0115c-.0021.0016-.0043.0027-.0054.0033v.0001l-.0033.0017-.0022.0012a.2.2 0 0 0-.0149.0088.27.27 0 0 0-.0481.0409c-.0391.0413-.0908.1157-.1406.2503-.0496.1333-.0638.2625-.0655.3586a1.1 1.1 0 0 0 .0059.1347l.0104-.0013.0033-.0106.0096-.0525.0195-.1054.0001-.0006c.0081-.0387.033-.0827.0602-.1237a2 2 0 0 1 .0614-.0863l.023-.0315a.75.75 0 0 0 .0594-.1053 2 2 0 0 0 .0182-.0404l.0049-.0118.0012-.0031.0003-.0007.0001-.0002.0004-.001.0004-.0009a2 2 0 0 0 .056-.1267l.0143-.0343c.0212-.0503.0431-.0982.073-.1406l.0419-.0595.0017.0727a.11.11 0 0 1-.0045.0302.4.4 0 0 1-.012.0362 1.4 1.4 0 0 1-.042.0948c-.0307.0641-.071.1415-.1129.2223l-.0161.0308a8 8 0 0 0-.1359.271c-.031.0666-.0554.1251-.0689.1698l.0647-.0099c.04-.0378.0865-.0948.1328-.1564.0357-.0473.0705-.0965.1018-.1405l.0317-.0444c.0361-.0503.0625-.1159.0816-.1791a1.5 1.5 0 0 0 .0375-.1589.8.8 0 0 0 .0069-.091 6 6 0 0 0 .0029-.1359c.0003-.0343.0004-.0673.0004-.0953m-.5222 1.0677-.0435.0054-.0007.0039a.038.038 0 0 1-.0199.027.03.03 0 0 1-.0242.0009.05.05 0 0 1-.014-.0083.15.15 0 0 1-.022-.0235.8.8 0 0 1-.0485-.0724 3.5 3.5 0 0 1-.0879-.156 1.7 1.7 0 0 1-.0523-.1063l-.0003-.0006c-.0194-.0415-.0422-.0905-.0731-.1512a1.8 1.8 0 0 1-.0586-.1224c-.0123-.0305-.0187-.0555-.0167-.0796v-.0001a1 1 0 0 1 .0065-.0511l.0001-.0009c.0021-.0139.0037-.0244.0043-.0339a1.1 1.1 0 0 0-.001-.1033 1 1 0 0 0-.003-.0329l-.0002-.0015v-.0004l-.0071-.0471.0421.0224.0015.0008.0042.0022.0152.0083c.0126.0069.0297.0163.0472.0264.0175.01.0358.0208.0509.0305a.4.4 0 0 1 .0202.0139.1.1 0 0 1 .0167.0155.1.1 0 0 1 .0068.0081.03.03 0 0 1 .0047.0083.026.026 0 0 1-.0032.0238l-.0008.0011-.0001.0004-.0005.0037c-.002.0149-.0073.0537-.0094.0987-.0024.0514-.0005.1066.0127.1429.0136.0369.0382.0702.0649.1019q.0101.012.0207.024c.0195.0224.0389.0447.0516.0652.0194.0306.0272.0683.0324.1032l.0044.0315a.6.6 0 0 0 .0117.0684m.0102.0442a1 1 0 0 1-.001-.0743c.0018-.0998.0164-.2347.0685-.3745.0515-.1392.1063-.2196.1508-.2665a.3.3 0 0 1 .0568-.0483.2.2 0 0 1 .0211-.0123l.0023-.0012.0005-.0003.0002-.0002.0011-.0006.0002-.0002.0106-.0085.0271-.0227c.0219-.0184.0501-.0424.0784-.0667a6 6 0 0 0 .1189-.1034.2.2 0 0 0 .0111-.0146 2 2 0 0 0 .0307-.0478l.0044-.0072.0012-.002.0004-.0006m-.6212 1.1241-.0002-.0022a.65.65 0 0 0-.0185-.1018v-.0002c-.0064-.0243-.01-.0517-.0134-.0774l-.0038-.0276c-.0051-.0345-.0119-.0633-.0255-.0847l-.0001-.0002a.5.5 0 0 0-.0443-.0558q-.0115-.013-.0241-.0279c-.0274-.0326-.0565-.0712-.0732-.1162v-.0002c-.0168-.046-.018-.1097-.0156-.1615a1.2 1.2 0 0 1 .0099-.1029l.0005-.004.0001-.0005v-.0004l.0012-.0056-.0001-.0002-.0066-.0054a.3.3 0 0 0-.0174-.0119 1 1 0 0 0-.0488-.0293l-.0277-.0157c.0013.0246.0021.0586.0006.1011v.0005a.4.4 0 0 1-.0049.0396 1 1 0 0 0-.0061.0481c-.001.0127.0021.0293.0135.0576s.0298.0654.0568.1186c.0312.0614.0544.111.0738.1525l.0002.0005c.0195.0418.0349.0747.051.1037l.0001.0003c.0186.0345.0535.0993.0867.1538a1 1 0 0 0 .0359.0553m.052.0188.0182-.0031zm.0439.0179-.0003.0017.1486-.0227.0054-.0049c.0448-.0409.0956-.1034.1441-.1678.0361-.048.0715-.0979.1029-.1421l.0312-.0438" clip-rule="evenodd"/><path fill="#009b3a" d="M34.4055 20.2646c-.0549-.0508-.0976-.066-.0976-.066s.0131.0997.0131.1604c0 .0609.0053.1631.0021.2176-.0021.0544-.0292.1445.0094.2327.0397.087.0842.1313.1158.186.0287.0536.0813.332.0813.332s-.0193-.3765-.0027-.483c.0153-.1046.0203-.2677-.0031-.3494-.0243-.0821-.0646-.1783-.1183-.2303m.2511-.3675c.0166-.0322.0553-.0988.0715-.2a1.1 1.1 0 0 0 .0084-.1609c-.0013-.0323-.0141-.0882 0-.092.0124-.003.0021.0175.0091.0652.0035.017-.0083.0641-.0104.1245-.0029.0482-.0048.0885-.0263.1538-.0187.0576-.0018.1215-.0133.1394-.0124.0182-.0455.0872-.0455.0872s-.0203.0558-.0169.1065c.0019.0519.005.1081.005.1081s.024-.0446.0777-.052c0 0 .0122-.0871.0122-.1143s.0349-.2055.0527-.26c.0243-.0798.0415-.2188.0028-.3801-.0107-.0436-.0184-.1801-.0184-.1801s-.0515.0412-.082.1969c-.0095.0473.0105.1742.0027.3095-.0031.0746-.0747.3769-.0844.3958"/><path fill="#000" fill-rule="evenodd" d="m34.7864 19.1943.0026.0465.0001.0015.0003.0043.001.016c.0009.0133.0022.0316.0038.0513.0033.0401.0078.083.0126.1026v.0001c.0398.1658.0223.3091-.0032.3927l-.0001.0005c-.0084.0257-.0214.0825-.0323.1374a2 2 0 0 0-.0139.0746.4.4 0 0 0-.0054.0405.8.8 0 0 1-.0062.0702l-.0056.0435-.0004.0029-.0002.001-.0025.0179-.0179.0025a.083.083 0 0 0-.0458.0225.1.1 0 0 0-.0112.0127l-.0025.0037-.0004.0008m.035-.0833.0038-.0299a.7.7 0 0 0 .0059-.0645.4.4 0 0 1 .0061-.0484 3 3 0 0 1 .0141-.0761c.0109-.0545.0243-.1138.0336-.1427.0216-.071.0378-.1929.0092-.3364v.003c-.0002.0105-.0005.0244.0023.0434a.1.1 0 0 1 .0003.0241 1 1 0 0 1-.0033.0285v.0004a.8.8 0 0 0-.0072.0763v.0006l-.0002.0039c-.0028.047-.0053.0895-.0272.156-.008.0246-.0087.0515-.0082.0766l.0002.0088c.0002.0092.0004.0183.0001.0261a.066.066 0 0 1-.0081.0334l-.0003.0005a.6.6 0 0 0-.0258.0477l-.0126.0255-.0039.008-.0009.0017-.0003.001-.002.0064a.3.3 0 0 0-.0062.023.24.24 0 0 0-.0065.0653v.0008l.0022.0531a.13.13 0 0 1 .0349-.0161m-.0561.0719-.024.0013.0047.085.0403-.0748.0001-.0001m-.0211-.0114-.024.0013-.0001-.0026-.0004-.0071-.0013-.025-.0021-.0464-.0302-.0154-.0001.0003.0012-.0035.0035-.0118a2 2 0 0 0 .0104-.0393 5 5 0 0 0 .0436-.1915l-.0035-.0018.0051-.0098.0013-.0024c.0111-.0553.0193-.1032.0203-.1261v-.0004a1.7 1.7 0 0 0-.002-.1851l-.0005-.0092a2 2 0 0 1-.0027-.064.27.27 0 0 1 .0029-.0545c.0157-.0799.0369-.1316.0551-.1639a.2.2 0 0 1 .0236-.0349.1.1 0 0 1 .0078-.0085l.0026-.0023.0008-.0008.0004-.0003.0001-.0001h.0001l.015.0186-.015-.0187.0364-.0291m-.0404.12a.57.57 0 0 0-.0394.1293.23.23 0 0 0-.002.0442q.0006.027.0027.0626l.0005.0091q.0016.0297.0028.0634a1 1 0 0 0 .0017-.0862.3.3 0 0 0-.0023-.0255l-.0007-.0055c-.0009-.008-.0019-.0166-.0026-.0244a.15.15 0 0 1-.0003-.0288.05.05 0 0 1 .0044-.0157.03.03 0 0 1 .0193-.016l.0005-.0002a.03.03 0 0 1 .0182.0009.027.027 0 0 1 .0121.0095l-.0007-.0031c-.0059-.0241-.0106-.0711-.0139-.1101zm-.0271.1375v.0002zm-.4031.7239-.0081.0226zl.0002.0001.0006.0002.002.0007.0065.0029a.3.3 0 0 1 .0228.0118.42.42 0 0 1 .0737.0552l.0004.0004c.0584.0566.1001.158.1246.2406l.0001.0003c.0127.0442.0172.1082.0169.1728a1.4 1.4 0 0 1-.0132.1867v.0002c-.0079.0506-.0074.1689-.0046.2771.0014.0536.0032.1038.0048.1407l.0019.044.0006.0121.0002.0041-.024.0013-.0235.0044-.0006-.0031-.0017-.0088-.0064-.0322a5 5 0 0 0-.0211-.1011 3 3 0 0 0-.0263-.1105c-.0091-.0339-.017-.0584-.0227-.0691a.7.7 0 0 0-.037-.0555l-.0165-.0233a.67.67 0 0 1-.0631-.1089l-.0001-.0003c-.0214-.0488-.0243-.0976-.022-.14a1 1 0 0 1 .0059-.0584l.0003-.0022a.5.5 0 0 0 .0044-.0426v-.0005a1.4 1.4 0 0 0 .0001-.1044l-.0008-.0309c-.0007-.0294-.0015-.0581-.0015-.0809a1.1 1.1 0 0 0-.0064-.1005 2 2 0 0 0-.0045-.0405l-.0014-.012-.0004-.0032-.0002-.001-.0051-.0389zm.2136 1.1513-.0235.0044.0475-.0057zm-.0328-.2619c-.0014-.0893-.0006-.1792.0064-.2247a1.3 1.3 0 0 0 .0127-.1798c.0003-.0635-.0043-.1219-.015-.1593-.0242-.0815-.0631-.1722-.1118-.2196a.4.4 0 0 0-.052-.0407l.0013.0123c.0033.0327.0066.0738.0066.1054 0 .0222.0008.0498.0015.079l.0008.0316a1.5 1.5 0 0 1-.0001.1082.6.6 0 0 1-.0047.0457l-.0004.0031a.7.7 0 0 0-.0055.055c-.0022.0383.0007.0786.0179.1179a.63.63 0 0 0 .0587.1012l.015.0212a.8.8 0 0 1 .0409.0614l.0004.0007c.0087.0162.018.0465.0268.0796z" clip-rule="evenodd"/><path fill="#009b3a" d="m34.6569 19.897-.0038.0071s.0024-.0021.0038-.0071"/><path fill="#000" fill-rule="evenodd" d="m34.6325 19.8909.0031-.0056.0013.0005-.0001.0001-.0005.0004-.0008.0008a.01.01 0 0 0-.0021.0034l.0111.0031-.0059-.0067-.0006-.0007.042.0173a.04.04 0 0 1-.0083.0157l-.0013.0014-.0006.0006-.0003.0002-.0001.0001-.0001.0001-.016-.0181-.022-.0102.0001-.0001.0001-.0002.0002-.0005zm.0208.0126-.022-.0102.038.0283zm-.0153-.0173-.0011-.0004.0001-.0002.0001-.0001h.0001z" clip-rule="evenodd"/><path fill="#009b3a" d="M34.4537 19.1122c.0275 0 .0275.0297.0219.0532-.0044.0241-.0037.069-.0037.0782 0 .0106.0114.0747.0206.1081.0099.0344.0271.0452.0196.1142-.0051.0434-.0496.0943-.034.168.0084.0388.0362.0793.0499.1127.0115.0232.0053.0799.0084.1263a.136.136 0 0 0 .0262.0758s-.0309.0576-.0412-.0145c-.0112-.0827-.0149-.1195-.0308-.1569-.0259-.0614-.0497-.1716-.0094-.2567.0069-.0164.0122-.0469.0122-.0832 0-.0368-.0227-.0998-.0271-.1387-.0038-.031-.0012-.0963-.0012-.1199m-.1443.3462c.0065.0467.0216.0733.0743.1748.0162.0335.0531.1189.0586.1462a.5.5 0 0 1 .0123.0684c0 .0089.0059.073.0059.073v.0266s-.1461-.0851-.21-.1306c-.0637-.0458-.136-.1087-.1823-.1466-.0524-.0431-.1772-.1911-.1788-.3096l-.0573-.052s-.0438.2634.1628.4339c.0596.0489.1245.1028.2634.1656.1391.0641.1209.1215.1789.2447.0571.1237.0929.195.1001.23.0049.0374-.0159.5636-.0159.5636l.005.0477s.1272-.4874.1883-.5419c0 0-.1213-.0186-.1117-.2092l-.0212-.1257s-.0243-.151.0212-.2448c0 0 .054-.1718.0356-.3203-.0115-.0889-.0156-.1155-.0264-.2006-.0166-.1325-.0697-.3219-.0756-.3448-.0182-.0665-.0244-.0767-.0456-.1293-.0063-.0186-.0181-.0799-.0377-.0808-.0113-.0007-.0285.0789-.0285.0789s-.0254.0867-.0308.1101c-.0166.07-.0553.1288-.073.286-.0032.0285-.0063.1053-.0097.1155-.0019.0087-.0056.0539-.0019.0712"/><path fill="#000" fill-rule="evenodd" d="M34.4484 18.8448a.027.027 0 0 1 .0176-.0054h.0001l-.0013.024.0011-.024h.0001c.0174.0008.0277.0143.0322.0214a.13.13 0 0 1 .0131.0284c.0034.0097.0062.0198.0086.0283l.0014.0052.0038.0132-.0003-.0007-.0223.009.0228-.0077-.0002-.0006.0095.0234a.7.7 0 0 1 .0366.1079l.0001.0003.003.0113c.013.048.058.2154.0732.3365.0059.0465.0097.0753.0139.1063.0035.0259.0072.0534.0125.0942v.0001c.0097.0777.0003.1606-.0111.2231a1 1 0 0 1-.0247.1052l-.0005.0016-.0001.0004-.0001.0001-.0229-.0071-.0216-.0105-.0008.0017v-.0001l.0016-.0054.0057-.0209a1 1 0 0 0 .0162-.0736c.011-.0605.0195-.1378.0107-.2085l.0238-.0031-.0238.003v.0001l-.0124-.0936c-.0042-.0314-.0082-.0607-.0141-.107-.0146-.1171-.0584-.2799-.0717-.3295l-.0033-.0122.0001.0002.0232-.0063-.0233.006v.0001c-.0145-.0532-.0209-.0687-.0345-.1019l-.01-.0246-.0003-.0006-.0002-.0006c-.0015-.0045-.0033-.011-.0051-.0174l-.0011-.0043-.0052-.0177.001-.0033a.2.2 0 0 1 .0082-.0242q.0019-.0042.0021-.0043s-.0009.0013-.0029.0028a.02.02 0 0 1-.0131.0038h-.0003a.012.012 0 0 1-.0069-.0024l-.0003-.0004.0003.0004.0014.0018a.1.1 0 0 1 .0081.0183l.0024.0075a1 1 0 0 0-.0079.0316l-.0006.0024-.0001.0006v.0002l-.0235-.005-.023-.0068-.0003.0008.0001-.0001.0005-.0027.0022-.0093.0074-.0283a.3.3 0 0 1 .0103-.03.07.07 0 0 1 .0074-.0135.04.04 0 0 1 .0075-.0076m-.0663.2022a4 4 0 0 1 .0271-.0975l.003-.0102.0008-.003m-.0309.1107c-.005.0211-.0118.0401-.0198.0626-.0048.0135-.0101.0284-.0157.0457a.88.88 0 0 0-.0379.1804 1.3 1.3 0 0 0-.0049.0657l-.0024.032-.0011.0106-.0005.0029-.0002.0007-.0003.0013a.3.3 0 0 0-.0035.0362.2.2 0 0 0 .0015.044c.0067.0476.0224.0778.0657.161l.0107.0206a1.4 1.4 0 0 1 .0326.0738.5.5 0 0 1 .024.0663l.0002.0008a.7.7 0 0 1 .0108.0557l.0006.0052.0001.0019c0 .0058.0017.0256.0031.042l.0013.0147-.043-.0258a2.3 2.3 0 0 1-.1275-.0813 2.6 2.6 0 0 1-.1436-.1147l-.0373-.031c-.0241-.0198-.0668-.0656-.1038-.1212-.0372-.0562-.0656-.118-.0663-.1701l-.0001-.0105-.0977-.0885-.0072.0434.0237.0039-.0237-.0039-.0001.0001v.0002l-.0001.0008-.0004.0026-.0011.0093a.57.57 0 0 0 .0056.1479c.0156.091.0583.2054.1673.2954l.0021.0017c.0597.049.1266.1039.2665.1672.0662.0305.0917.0577.1087.0896a.5.5 0 0 1 .0248.0603c.0087.0237.0187.0512.0337.0831v-.0001l.0218-.0101-.0218.0103v-.0001m.0981.2236v.0002l.0002.0021.0002.0069.0001.0219a4 4 0 0 1-.0011.0684 21 21 0 0 1-.0057.1918c-.0023.068-.0047.1349-.0066.1848l-.0023.0601-.0009.0227-.0001.0017.0052.0495.0471.0035.0004-.0013.001-.0041.0041-.0155.0152-.0557a7 7 0 0 1 .0503-.1729 3 3 0 0 1 .0613-.1822.8.8 0 0 1 .0286-.0665c.0093-.0185.0163-.0283.0202-.0318l.038-.0339-.0501-.0077h-.0004l-.0025-.0006q-.0036-.001-.0105-.0037a.11.11 0 0 1-.0331-.0223c-.0234-.0228-.0496-.068-.0451-.1577l.0001-.0026-.0216-.1281-.0237.0038.0236-.004v-.0001l-.0002-.0011-.0006-.0046-.002-.0177a.7.7 0 0 1-.0033-.0599c-.0003-.0486.005-.1052.0253-.1469l.0008-.0016.0005-.0017-.0229-.0072-.0229-.0072v-.0001l.0001-.0003.0004-.0012-.0047.0106-.006-.0073-.0005-.0007-.0021-.003a.11.11 0 0 1-.0183-.0576v-.001c-.0011-.0153-.001-.0313-.001-.0476l-.0001-.023a.3.3 0 0 0-.0017-.0339.1.1 0 0 0-.0077-.0301c-.0053-.0128-.0127-.0269-.0197-.0404l-.0077-.0149a.23.23 0 0 1-.0209-.0525c-.0065-.0307-.0008-.057.0083-.0823l.0089-.0229.006-.015a.17.17 0 0 0 .0111-.0401l.0001-.0002c.004-.0367.0016-.06-.0041-.0794-.0026-.0088-.0058-.0165-.0085-.023l-.0004-.0009a.2.2 0 0 1-.0074-.0199.9.9 0 0 1-.0194-.0981l-.0003-.0034v-.0036a.5.5 0 0 1 .0032-.0699.1.1 0 0 0 .0012-.0464.05.05 0 0 0-.0154-.0251.048.048 0 0 0-.0312-.0106v.0471l-.0003-.0004.0003.0007v.0006h.0002q.0008.003.0005.0096a.1.1 0 0 1-.0022.014l-.0002.0007-.0001.0007a.2.2 0 0 0-.0022.0177h-.0087l-.0003.0222-.0005.0348a.6.6 0 0 0 .0023.0657.5.5 0 0 0 .0132.063l.0025.01c.0064.0259.0112.0479.0112.0629 0 .0343-.0051.061-.0102.0735-.0223.0475-.0264.1008-.0221.1491a.44.44 0 0 0 .0314.1266c.013.0306.017.0604.0262.1293l.0029.0215v.0002c.0027.0185.0072.0349.0169.0455a.034.034 0 0 0 .0437.0059.07.07 0 0 0 .0189-.0185l.0002-.0002a.47.47 0 0 0-.0146.1265.7.7 0 0 0 .0057.0836l.0008.0053.0002.0014v.0005s.0001.0001.0236-.0037l-.0235.0038.0208.1233c-.0044.0993.025.158.0596.1918a.16.16 0 0 0 .038.0275.4.4 0 0 0-.0089.0166.8.8 0 0 0-.0305.0709 3 3 0 0 0-.0624.1853 6 6 0 0 0-.0244.0817l.0049-.1388c.0023-.0682.0044-.1376.0057-.1923a5 5 0 0 0 .0011-.0693.4.4 0 0 0-.001-.0382l-.0001-.0009-.0001-.0008c-.0043-.0206-.0162-.0496-.033-.0867q-.0147-.0322-.035-.0758l-.0338-.0727-.0001-.0002c-.014-.0297-.0234-.0555-.032-.0791l-.0006-.0016c-.0083-.0227-.0162-.0446-.027-.0648-.0231-.0435-.058-.0771-.131-.1107l-.0002-.0001c-.1342-.0607-.1974-.1126-.2557-.1603l-.0022-.0019-.0153.0185.0152-.0186.0001.0001c-.0976-.0806-.1363-.1831-.1505-.2664a.53.53 0 0 1-.0074-.0983l.0135.0123c.0042.0633.0374.1302.0739.1853.039.0588.0849.1084.1133.1318l.0359.0298c.0433.0363.0981.0822.1475.1178h.0001c.0328.0234.086.0565.1305.0834.0223.0135.0427.0256.0574.0343l.0175.0103.0048.0028.0016.001.0362.021v-.0694l-.0001-.0011-.001-.0101-.002-.0229-.002-.0245-.0007-.0091-.0001-.003-.0001-.001v-.0002a.2.2 0 0 0-.004-.0314 1 1 0 0 0-.0088-.0423c-.0034-.0164-.0149-.0465-.0265-.0746a1.6 1.6 0 0 0-.0339-.0768l-.0003-.0005-.0077-.0149c-.0471-.0906-.0586-.1127-.0641-.1523l-.0001-.0008-.0002-.0009a.17.17 0 0 1-.0007-.0326l.0014-.0189.0007-.0067.0004-.0024a.3.3 0 0 0 .003-.0217 1 1 0 0 0 .0034-.0468c.0013-.0199.0025-.0388.0038-.0498a.82.82 0 0 1 .0359-.171 1 1 0 0 1 .014-.0409c.0087-.0245.017-.0478.0225-.0713l.0001-.0002c.0025-.0109.01-.0377.0171-.0626l.0093-.0322.0029-.0101.0011-.0037.0003-.0009.0002-.0009m-.1136.5121v-.0005l-.0234-.005.0227.0076zm.131.3814v-.0004l-.0234.0056.0235-.0048zm-.5999-.4025.0075.0068.0161-.0178-.024.0003zm.6797 1.574.0047.046-.0238.0025-.0233-.0061.0001-.0001.0003-.0013.0011-.0041.0042-.0157.0053-.0197.0003-.001.0097-.0354a7 7 0 0 1 .0262-.0925l-.0017.0462-.0023.0602zm.1692-.4934-.0037.0237h-.0003l-.0006-.0001-.0007-.0002-.0009-.0001-.0052-.0013a.12.12 0 0 1-.0268-.0105.13.13 0 0 1 .0222-.0294zm.0037-.0237-.0037.0237zm-.1395-.1841.0005.0026.0236-.004-.0239-.0012zm-.0094-.3526.0029.0016-.0001.0001-.0002.0002-.0004.0008-.0005.001-.0008.0012-.0045.007zm-.0183-.0098.0183.0098zm0 0-.0158-.0084a.1.1 0 0 1-.0016-.0093l-.0032-.0237-.0047-.0343c-.0063-.0452-.0119-.075-.0246-.105l-.0046-.0115-.0005-.0014a.39.39 0 0 1-.0239-.1223.226.226 0 0 1 .0192-.1018l.0002-.0005.0002-.0005a.22.22 0 0 0 .013-.0636.4.4 0 0 0 .0011-.0289c0-.0219-.0065-.0498-.0126-.0743l-.0026-.0105-.0008-.0034.0142-.0039v-.0003l-.0143.0041a.5.5 0 0 1-.0111-.0531l-.0001-.0003a.5.5 0 0 1-.0019-.0521l.0001-.0075c0-.0113.0002-.0233.0004-.0338l.0004-.0235h-.0394c-.0021.0235-.0019.0516-.0019.0619l.0001.0029c0 .0048.001.0127.0022.0202a1 1 0 0 0 .0062.036l-.0138.0015v.0003l.0139-.0017a1 1 0 0 0 .0129.0581l.0001.0003a.2.2 0 0 0 .0092.0252l.0002.0003c.0029.007.0052.0125.007.0187a.11.11 0 0 1 .0041.0349.3.3 0 0 1-.0017.0257.12.12 0 0 1-.0082.0283l-.005.0126-.0046.0115-.0109-.0051-.0003.0005-.0002.0005.0112.0046-.0055.0144c-.0105.0294-.0192.0655-.0101.1085v.0001a.28.28 0 0 0 .025.0641l.0091.0175c.0067.0129.0126.0242.0171.0351l.0003.0007.0004.0007a.04.04 0 0 1 .003.0122l.0004.003a.3.3 0 0 1 .0014.029l.0001.0202a1 1 0 0 0 .001.0526.16.16 0 0 0 .0138.0594l.0021.0046a.2.2 0 0 0 .0103.0183l.0036.0051.0012.0015.0004.0005.0001.0002.0001.0001zm0 0 .0186-.0151zm-.1087-.8125.0014.0002-.0012-.0007-.0004-.0004v.0003zm.0452.0341.0001-.0006-.0236-.0043.0233.0057zm.0508.5665-.0003-.0008-.0216.0106.0222-.0091zm.031.2217a.3.3 0 0 1 .0064-.0175l.004.005-.0075.0141zm-.056.4947v-.0006l.0237-.0032-.0235.0049z" clip-rule="evenodd"/><path fill="#009b3a" d="M34.4292 20.1901s-.0212-.0471-.0428-.0712c-.0433-.051-.1016-.0944-.2676-.1754-.1654-.0824-.2091-.2177-.2934-.2734-.0386-.0266-.1135-.0393-.1135-.0393s.0736.1013.0911.1362c.0224.0445.0278.0749.1188.1597.0905.0852.201.1149.2721.1359.1005.0312.2353.1275.2353.1275m-.5212-.7821c.0045.0133.0471.1588.1367.2718.1369.173.4006.2966.4006.2966-.0247-.1077-.0677-.2322-.1017-.2873-.1199-.1935-.4365-.2883-.4365-.2883s-.0056-.0074.0009.0072m.378.0815c.0709-.1552-.1408-.3035-.2006-.4117.0221-.0175.0484.0285.0726.0592.0347.0461.1324.1795.1324.1795l.0302-.1421-.2522-.2293c-.003.0333-.081.0607-.081.0607-.0377.2123.2987.4837.2987.4837"/><path fill="#000" fill-rule="evenodd" d="m34.049 18.8948.298.271-.0384.1804c.0188.0481.0237.0998-.0007.1532l-.0218-.01-.0151.0186-.0003-.0002-.0008-.0007-.0029-.0024-.0109-.0092a1.4 1.4 0 0 1-.1518-.1529c-.0404-.0481-.0803-.1036-.1078-.1615-.0273-.0576-.0433-.1197-.0327-.1796l.0025-.0138.0132-.0046h.0001l.0005-.0002.0022-.0008.0081-.0033a.3.3 0 0 0 .0248-.0119.12.12 0 0 0 .0229-.0159c.0054-.005.0063-.0078.0065-.0082q0-.0002 0 0zm-.0397.1281c-.0041.0428.0078.0896.0306.1377.025.0527.0621.1048.1011.1511.0389.0462.079.0861.1095.1144q.0133.0123.0238.0216c.0098-.0544-.0163-.1098-.0589-.1676a1.4 1.4 0 0 0-.0686-.0835l-.013-.0151c-.0269-.0313-.053-.0627-.0693-.0922l-.0098-.0178.0158-.0126a.04.04 0 0 1 .0205-.0088.04.04 0 0 1 .0205.0028.08.08 0 0 1 .027.0199.3.3 0 0 1 .0204.0251l.0055.0075q.0065.0088.0125.0166l.0003.0004a13 13 0 0 1 .1009.1365l.0162-.0761-.22-.2001-.0033.0033a.17.17 0 0 1-.0325.0228.3.3 0 0 1-.0292.0141m-.0899.3565.0092.003a1.3 1.3 0 0 1 .1628.0685c.0952.0485.2092.123.2727.2255.0361.0585.0798.1861.1046.2945l.011.0479-.0446-.0208.0102-.0218-.0102.0218-.0002-.0002-.0007-.0003-.0023-.0011-.0089-.0043a1.7 1.7 0 0 1-.1395-.079c-.0838-.053-.1866-.1289-.2576-.2185-.0871-.11-.1311-.2491-.1394-.2755l-.0009-.0027a.1.1 0 0 1-.0035-.0092.03.03 0 0 1-.0011-.009.024.024 0 0 1 .0255-.0233c.0055.0003.0094.0024.0108.0031zm.0243.0592c.0187.0525.0576.1477.1198.2262.066.0833.1634.1557.2457.2078.0389.0246.074.0444.1001.0583-.0248-.0923-.0591-.1857-.086-.2293-.0564-.091-.1607-.1606-.2537-.2079a1.2 1.2 0 0 0-.1196-.0527zm-.2277.1684-.004.0237-.0195.0141-.0345-.0476zm.1229.0431c-.0228-.0156-.0544-.0263-.0783-.0329a.5.5 0 0 0-.0314-.0076l-.0095-.0019-.0027-.0005-.0007-.0001h-.0002l-.0001-.0001-.004.0237-.0195.0141.0008.0011.0024.0032.0085.0119c.0071.01.0168.0236.027.0384.0209.0301.0425.0626.0503.0782l.0001.0001.0082.017c.0072.0153.0149.0318.0268.0501.017.0259.0426.0562.0889.0993.0906.0853.2001.1175.2711.1383l.0104.0031c.0473.0147.104.0452.1499.073.0227.0137.0424.0265.0564.0359l.0163.0111.0043.003.0011.0008.0002.0002h.0001l.0723.0517-.0365-.081v-.0003l-.0003-.0004-.0007-.0017-.0029-.006-.0101-.0198a.27.27 0 0 0-.0325-.049c-.0467-.0549-.1088-.1-.2751-.1812-.0784-.039-.1281-.0906-.1692-.1404l-.0263-.0326a1 1 0 0 0-.0321-.0397.3.3 0 0 0-.063-.059m.5004.4541c-.0397-.0367-.1013-.0759-.231-.1393l-.0002-.0001c-.0869-.0433-.1417-.1005-.1849-.1529-.0103-.0124-.0193-.0239-.0279-.0347a1 1 0 0 0-.03-.037.26.26 0 0 0-.0531-.0502l-.0003-.0002a.18.18 0 0 0-.0426-.0197l.0014.0019c.0202.0292.0441.0648.0538.0841" clip-rule="evenodd"/><path fill="#009b3a" d="M33.8468 19.1298c-.0608.0272-.0824.0272-.0824.0272l.0339.09.0198.0244s.0792.1146.1254.1288c.0193.0072.0914.0198.1638.0507.091.0387.2397.1687.2397.1687s-.2473-.2787-.3421-.4877l-.032-.1204-.0896.0059s.0246.0846-.0365.1124"/><path fill="#000" fill-rule="evenodd" d="m33.9911 18.9861.0365.1375c.0464.1015.1299.2207.203.3157a3.6 3.6 0 0 0 .1238.1521l.0079.009.0021.0024.0005.0005.0001.0002-.0337.034-.0001-.0001-.0003-.0002-.0012-.0011-.0048-.0041-.0179-.015a2 2 0 0 0-.0603-.0484c-.0486-.0373-.1064-.0777-.1488-.0957a.7.7 0 0 0-.0986-.0332 1 1 0 0 0-.0318-.0082l-.0063-.0016c-.0098-.0025-.0191-.0048-.0254-.0071-.0168-.0054-.0335-.0182-.0476-.0312a.5.5 0 0 1-.0431-.0458 1 1 0 0 1-.0457-.0595l-.0005-.0006-.0216-.0268-.0476-.126h.0342l.0015-.0002a.1.1 0 0 0 .0113-.0025.4.4 0 0 0 .0603-.0225c.0189-.0087.0258-.0258.027-.0461a.12.12 0 0 0-.0031-.0352l-.0005-.0021-.0001-.0004-.0084-.0286zm-.0796.0533a.2.2 0 0 1 .0005.0251c-.0018.0288-.0131.0678-.0552.087l-.0083-.0183.0082.0183a.5.5 0 0 1-.06.023l.0228.0603.0179.0221.0005.0007v.0001l.0001.0002.0007.0009.0025.0035.0093.0128a1 1 0 0 0 .0314.0398.4.4 0 0 0 .0387.0413c.0136.0124.0239.0191.03.021l.0006.0001.0006.0003a.3.3 0 0 0 .0273.0073q.0141.0035.0326.0084a.8.8 0 0 1 .105.0354.5.5 0 0 1 .0794.0446l-.0036-.0047c-.0738-.0961-.1608-.2198-.2094-.327l-.0008-.0018-.0275-.1032z" clip-rule="evenodd"/><path fill="#009b3a" d="M32.9211 18.9513a.9.9 0 0 0 .1345.0997c.0546.0328.2119.1253.3295.1476.0275.0043.1753.0229.1753.0229.0059-.0647.0761-.0703.0761-.0703l-.2093-.0229c-.1688-.0125-.2972-.083-.3972-.1959.1341.0813.3269.2093.4832.2024.6415-.063-.1933-.0789-.2657-.1253-.0768-.0474-.1423-.126-.1423-.126l-.1881-.0084s-.0924-.0058.004.0762"/><path fill="#000" fill-rule="evenodd" d="M32.9184 18.8512h-.0003l-.0011-.0001h-.0036a.1.1 0 0 0-.0116.0006.065.065 0 0 0-.0337.0121.038.038 0 0 0-.0141.0229.046.046 0 0 0 .004.0279c.0071.0161.0229.0339.0474.0548a.9.9 0 0 0 .1379.1022c.0275.0165.0811.0483.1429.0787.0613.0303.1324.0602.1945.072l.0008.0001c.0142.0022.0584.008.0986.0132l.0538.0068.0235.003.0247.0031.0023-.0247a.047.047 0 0 1 .0274-.0403.1.1 0 0 1 .0252-.0081l.0014-.0002h.0002l-.0001-.0002.0005-.0301a1 1 0 0 0 .054-.008.4.4 0 0 0 .0468-.01.1.1 0 0 0 .0158-.0056.04.04 0 0 0 .0142-.0093.028.028 0 0 0 .0073-.0273.03.03 0 0 0-.0134-.0175.1.1 0 0 0-.0275-.0107.8.8 0 0 0-.085-.0143 6 6 0 0 0-.1379-.0154 8 8 0 0 1-.1007-.0108 2 2 0 0 1-.1024-.014.4.4 0 0 1-.0344-.0072.07.07 0 0 1-.0153-.0054l-.0003-.0003a.56.56 0 0 1-.0957-.0774 1 1 0 0 1-.0381-.0404l-.002-.0024-.0005-.0005-.0001-.0002-.0068-.0081zm.1755.0559-.1782-.008h-.0023q-.0027 0-.0067.0003l-.0023.0003a.17.17 0 0 0 .0324.0334l.0005.0005a.86.86 0 0 0 .1308.0969 2 2 0 0 0 .1393.0768c.0602.0297.1265.0571.1819.0677.0138.0022.0567.0078.0969.013l.0538.0068.0017.0002a.09.09 0 0 1 .0157-.0283l-.0743-.0081a.4.4 0 0 1-.0392-.0043l-.0188-.002c-.1751-.0131-.3092-.0867-.413-.2039l.0305-.0364.0367.0224a4 4 0 0 0 .1215.0723.7.7 0 0 1-.07-.0608 1 1 0 0 1-.0319-.0332zm.1743.1353.0057.0028c.0605.0295.1205.0524.1764.0615l.0368.0041a.3.3 0 0 0 .0245.0001 3 3 0 0 0 .1548-.0183l-.0213-.0028a6 6 0 0 0-.1356-.0151c-.0344-.0036-.0693-.0072-.1024-.011a2 2 0 0 1-.1052-.0144 1 1 0 0 1-.0337-.0069" clip-rule="evenodd"/><path fill="#009b3a" d="M33.6765 19.3165c.0415-.003.0705-.0108.0799-.0562.0084-.0508-.0109-.0876-.0721-.101-.034-.0084-.0936-.0102-.1179.0502-.0265.0619.0698.1016.0698.1016s.0184.008.0403.0054m.0719-.3675c-.0543 0-.0727.0443-.0611.1306.0143.087.1475.049.1475.049l.0247-.0128s.0181-.014.0081-.0832c-.0094-.0709-.0645-.0836-.1192-.0836m.2181.0611h-.0021c-.001.0006.0021 0 .0021 0"/><path fill="#000" fill-rule="evenodd" d="M33.7021 18.9367a.09.09 0 0 1 .0464-.0117c.0284 0 .0609.0032.0882.0183.0289.016.0491.0438.0547.0861.0053.0366.0035.0608-.0009.0771a.07.07 0 0 1-.0081.0191.04.04 0 0 1-.0044.0058l-.002.002-.0009.0008-.0005.0004-.0002.0001-.0001.0001s-.0001.0001-.0147-.0189l.0146.019-.0017.0013-.0287.0148-.0023.0007-.0066-.0231.0066.0231h-.0001l-.0001.0001-.0004.0001-.0014.0003-.0048.0012a.25.25 0 0 1-.0691.0073.15.15 0 0 1-.0224-.0023.1.1 0 0 1 .0233.0242c.0159.024.0184.0527.0136.0817v.0004l-.0001.0005c-.0058.0278-.0186.0477-.0393.0599-.0187.011-.0412.0139-.0619.0154a.11.11 0 0 1-.0471-.0055l-.0033-.0012-.0011-.0004-.0002-.0001-.0001-.0001-.0003-.0001-.0011-.0005-.0035-.0016a.2.2 0 0 1-.0462-.0292.114.114 0 0 1-.0318-.0408.076.076 0 0 1 .0002-.0606.105.105 0 0 1 .0712-.0649.15.15 0 0 1 .0743.0005l.0032.0007a.085.085 0 0 1-.0293-.0532l-.0001-.0007c-.006-.0442-.0051-.0825.0078-.1108a.08.08 0 0 1 .0307-.0353m-.0562.3524.0015.0006q.002.0007.0062.0017a.06.06 0 0 0 .0202.0014l.0005-.0001h.0005c.0206-.0015.0332-.0041.0416-.009.0065-.0038.0128-.0105.0165-.0277.0034-.0216.0005-.0365-.0064-.0469s-.0205-.0205-.0472-.0263l-.0007-.0001a.104.104 0 0 0-.0505-.0009.057.057 0 0 0-.0394.0367l-.0002.0005a.027.027 0 0 0-.0002.0231.07.07 0 0 0 .0187.0232.16.16 0 0 0 .0261.0176l.0093.0047.0025.0011.0005.0002.0001.0001zm.1803-.183.0169-.0087.0011-.0034c.0022-.008.0044-.0253-.0003-.0579l-.0001-.0003c-.0037-.0285-.0158-.0425-.0304-.0505-.0163-.0091-.0387-.0123-.0649-.0123a.04.04 0 0 0-.0217.0049.03.03 0 0 0-.0117.014c-.007.0154-.0096.0423-.004.0842a.037.037 0 0 0 .0177.0273.08.08 0 0 0 .0387.0094.21.21 0 0 0 .0587-.0067m.1314-.12h.009v.0004l-.0021-.0001h-.0009l-.0013.0002h-.0004q-.0002 0 0 0h-.0001l.0048.0235v.0034l.001.0016.0038.0185-.0001.0001h-.0003l-.0006.0001-.0023.0004-.0023.0002c-.0005 0-.0031.0001-.0061-.0005a.023.023 0 0 1-.0105-.0049.024.024 0 0 1 .0026-.0392zm.01.029.0038.0185-.0015-.0148.0073.0117q.001-.0006.0034-.0026.0012-.001.003-.0034a.0237.0237 0 0 0-.0042-.0327.02.02 0 0 0-.0065-.0038q-.0023-.0008-.0038-.0011l-.0025-.0004.0033.0323z" clip-rule="evenodd"/><path fill="#009b3a" d="M33.9646 19.0101c.0015-.0007.0053-.0026.0194-.0065.0277-.0105.0557-.0772.0557-.0772.0141-.09-.0504-.1122-.0504-.1122-.1087-.0217-.1115.0736-.1115.0736-.0299.1241.0708.1229.0867.1222m-.4836-.4262c.0061.0413.0647.1009.0738.1112.0105.0092.0855.0873.1108.1222.0252.035.1092.1936.1092.1936s.0147-.0024.0209-.0145c.0147-.0247-.0563-.2169-.0634-.2301-.026-.0584-.0684-.1019-.1111-.1474-.0099-.0064-.045-.0513-.0833-.0996.076.0971.2706.3733.328.496 0 0-.007-.1308-.0141-.2011-.0243-.2049-.0777-.2683-.0949-.298-.0302-.0554-.1069-.1092-.1619-.1282-.0549-.0198-.1198-.047-.1894-.0693-.0718-.0219-.0165.0427.01.0985.0331.0659.0596.125.0656.1668"/><path fill="#000" fill-rule="evenodd" d="M33.3853 18.2903a.1.1 0 0 1 .0273.0054l.0004.0001c.0463.0148.0914.0321.132.0477q.031.012.0579.0219a.36.36 0 0 1 .0969.054c.0312.0237.0607.0533.078.085l.0059.0095a.46.46 0 0 1 .0402.0765c.0195.0475.0393.1167.0517.221v.0003l.0012.0125a.093.093 0 0 1 .0408-.03c.0207-.0079.046-.0096.0765-.0035l.0016.0003.0015.0006-.0078.0226.0078-.0226h.0002l.0001.0001.0004.0001.001.0004.0031.0013a.11.11 0 0 1 .0361.0276c.0191.0223.0335.0574.0254.1091l-.0004.0029-.0012.0027-.0221-.0093.0221.0093v.0001l-.0001.0002-.0003.0007-.001.0023-.0038.0083a.4.4 0 0 1-.0136.0258.2.2 0 0 1-.0203.0294.08.08 0 0 1-.0302.0235l-.001.0003-.0011.0003a.2.2 0 0 0-.0154.0051l-.0012.0005-.0093-.0223.0011.024c-.0086.0004-.0444.0014-.0747-.0181l-.0024-.0016-.0445.0111a1 1 0 0 0-.0225-.0436.1.1 0 0 1-.0002.0105.04.04 0 0 1-.0046.0156.056.056 0 0 1-.0331.0255l-.0031.0008-.0011.0002-.0005.0001h-.0002l-.004-.0236-.0212.0112-.0036-.0068-.0099-.0184-.0315-.0582c-.0245-.0446-.051-.0913-.0625-.1074a1 1 0 0 0-.0591-.0685 1 1 0 0 0-.048-.0497l-.0012-.001-.001-.0011-.0032-.0035a.6.6 0 0 1-.0358-.0417.3.3 0 0 1-.0249-.0369.12.12 0 0 1-.0156-.0415l.0001-.0001c-.0054-.0372-.0298-.0928-.0633-.1594l-.0002-.0005c-.0058-.0121-.0132-.0249-.0206-.0379l-.0014-.0024a.4.4 0 0 1-.0205-.0394.07.07 0 0 1-.0052-.0209.034.034 0 0 1 .0113-.0281.04.04 0 0 1 .0278-.0084m.1195.2903a.08.08 0 0 0 .0099.0249.3.3 0 0 0 .021.0309c.0126.0162.0251.0297.0324.0377l.0037.004c.0077.0071.0287.0287.0504.0521a1 1 0 0 1 .0628.073c.0137.019.0418.069.0657.1125l.0161.0295a1 1 0 0 0-.0175-.0609 2 2 0 0 0-.0151-.0452 5 5 0 0 0-.2152-.305l.0377-.0297.0128.0161c.0144.0182.0279.0352.0392.0491a1 1 0 0 0 .0185.0218.1.1 0 0 0 .007.0073l.0025.0016.002.0022.0068.0072c.0399.0424.082.0871.1084.1462a.2.2 0 0 1 .0061.0142l.0098.026.0078.0217c.0207.0318.0404.063.0578.092a3 3 0 0 0-.0075-.093c-.012-.1006-.0309-.1654-.0485-.2082a.4.4 0 0 0-.0353-.0675l-.008-.0129-.0003-.0005c-.0129-.0236-.0367-.0485-.0651-.0702a.32.32 0 0 0-.0836-.0468l-.0004-.0001a4 4 0 0 1-.061-.023 2.4 2.4 0 0 0-.1236-.0449l.0115.0205.0015.0028a.6.6 0 0 1 .022.0406c.0327.0652.0612.1277.0678.1739zm.27.4303-.0212.0112.0081.0153.017-.0029zm.185-.0247.0017-.0006a.1.1 0 0 1 .0145-.0046.04.04 0 0 0 .0101-.0093.2.2 0 0 0 .0155-.0227.3.3 0 0 0 .0149-.0292c.005-.0364-.0055-.0566-.0149-.0676a.06.06 0 0 0-.0191-.0149c-.0226-.0041-.0378-.0021-.0479.0018a.044.044 0 0 0-.0218.0173.07.07 0 0 0-.0107.0301l-.0002.0019v.0003l-.0001.0024-.0006.0024c-.0068.0282-.0055.0467-.0017.0587a.04.04 0 0 0 .0176.0234.083.083 0 0 0 .0427.0106" clip-rule="evenodd"/><path fill="#009b3a" d="M33.2131 18.921c.0709.06.1026.1018.2496.1235.1482.0232.1607.0133.1607.0133s.0768-.0371.0378-.0696c-.2178-.0957-.424-.2096-.5286-.3377 0 0 .0181-.0176.0936.0579.0437.0443.0731.0665.0999.0873.0792.0554.1135.0712.1925.1142.042.0229.1472.0476.1472.0476s.015-.0318.0284-.0356c.0128-.003-.0081-.053-.0996-.1269a.74.74 0 0 1-.1335-.1449s-.1082-.0237-.2255-.0432c-.0874-.0139-.2519-.1414-.249-.1068.003.0356.0247.1461.069.2163.0445.0706.087.1427.1575.2046"/><path fill="#000" fill-rule="evenodd" d="M33.1699 18.5579c.0273.0132.0513.0224.0695.0253l.0002.0001a5 5 0 0 1 .2078.0394l.014.0029.0024.0005h.0099l.0072.0103a.7.7 0 0 0 .129.1401c.0468.0378.0768.0705.0935.0951a.11.11 0 0 1 .0168.0338.04.04 0 0 1 .0004.0195.028.028 0 0 1-.0178.0196l-.0011.001a.1.1 0 0 0-.012.0183l-.0016.003-.0004.0008-.0001.0002-.0041.0087a.045.045 0 0 1 .0118.0414.07.07 0 0 1-.022.035.16.16 0 0 1-.0354.0245l-.0028.0015-.0004.0002-.0003.0002q-.002.001-.0037.0016l-.0077.0019a.14.14 0 0 1-.0248.0011c-.0232-.0004-.0646-.004-.139-.0156-.0755-.0111-.1233-.0277-.1619-.0504-.0291-.0171-.0527-.0377-.0775-.0594l-.0221-.0191-.0004-.0003c-.0675-.0593-.1103-.1276-.1509-.1922l-.0111-.0176c-.0239-.038-.0412-.0857-.0528-.1276a.6.6 0 0 1-.0197-.0996.0287.0287 0 0 1 .0313-.0318.08.08 0 0 1 .0278.0081c.0168.0075.0396.0204.0635.0339l.0037.0022c.026.0147.054.0304.0808.0434m.4446.4776.0009-.0004.007-.004a.1.1 0 0 0 .0182-.0134.03.03 0 0 0 .0074-.0089l-.0001-.0002c-.2164-.0953-.4258-.2106-.5339-.3428l-.0139-.0171.0158-.0153.0167.0172a.4.4 0 0 1-.0166-.0173v-.0001l.0002-.0001.0003-.0003.0007-.0006.0015-.0012a.04.04 0 0 1 .0141-.0057.053.053 0 0 1 .0265.0033c.019.0069.0454.0244.0839.0629l.0001.0001c.0404.041.068.0623.0935.0821l.0036.0028c.064.0447.0977.0628.1522.0921l.0376.0203c.0183.01.0526.0213.0845.0304.015.0043.0288.0079.0391.0106l.0011-.0017a.1.1 0 0 1 .0117-.0155q.0015-.0016.0036-.0035a.1.1 0 0 0-.0065-.0106c-.0133-.0196-.0395-.0489-.0841-.0849l-.0002-.0002a.75.75 0 0 1-.1324-.1419l-.0095-.002c-.0119-.0025-.029-.0061-.0498-.0102a5 5 0 0 0-.1559-.0288c-.0255-.0041-.0547-.0159-.0828-.0295a1.4 1.4 0 0 1-.0835-.0449l-.0021-.0012c-.0189-.0107-.0353-.02-.0485-.0267a.7.7 0 0 0 .0139.0606c.0111.0399.0268.0825.0471.1148m.5979.2139-.0001-.0003zm-.0079.04-.0014.0059zm-.0514.0779a.1.1 0 0 1-.0153.0005c-.0201-.0004-.059-.0036-.1327-.0152h-.0002c-.0715-.0105-.113-.0256-.1447-.0443-.0249-.0146-.0441-.0313-.0681-.0523l-.0246-.0213c-.0619-.0544-.1012-.1169-.1422-.1822l-.0108-.017m.6274.2403" clip-rule="evenodd"/><path fill="#009b3a" d="M31.9891 23.3493c-.0641.0189-.5458.1996-.5458.1996l-.1345.0538c.1857-.0417.328.0518.328.0518l.5364-.2482s-.0015-.0082-.0149-.0178c-.014-.0095-.1042-.0588-.1692-.0392"/><path fill="#000" fill-rule="evenodd" d="M32.0988 23.3397a.34.34 0 0 1 .0701.0328l.0004.0003a.07.07 0 0 1 .0175.0178.05.05 0 0 1 .0049.0111l.0001.0005v.0003l.0001.0001-.0189.0036.0189-.0036.0027.0147-.5597.2589-.0088-.0058-.0003-.0002-.001-.0006-.0044-.0027a.44.44 0 0 0-.0838-.0358.434.434 0 0 0-.2238-.0098l-.0113-.0365.1349-.054.0208-.0078.0555-.0207c.0461-.0173.1084-.0404.1726-.0642.1279-.0474.2652-.0976.2982-.1073.0383-.0115.0819-.0025.1153.0089m-.6487.2269-.0173.0069a.49.49 0 0 1 .1872.0497.4.4 0 0 1 .0177.0095l.5028-.2326a.33.33 0 0 0-.0541-.0241c-.0314-.0107-.0654-.0165-.0919-.0085h-.0001c-.0313.0092-.1669.0588-.2958.1065a51 51 0 0 0-.2279.0849z" clip-rule="evenodd"/><path fill="#009b3a" d="M31.2884 23.6187c-.0035.0031-.0071.0158.0022.0199.0268.0148.0196.0207.1411.0352.1226.0133.2025-.0099.2235-.033.0245-.027-.3037-.0771-.3668-.0221"/><path fill="#000" fill-rule="evenodd" d="M31.6768 23.6407a.025.025 0 0 1-.0065.0141l-.0152-.0138.0153.0137-.0001.0001m-.389.0023a.0305.0305 0 0 1-.0171-.0295.04.04 0 0 1 .0028-.0126.03.03 0 0 1 .008-.0115.105.105 0 0 1 .0432-.0203.3.3 0 0 1 .0562-.0082.8.8 0 0 1 .1324.0039.8.8 0 0 1 .1156.0198.17.17 0 0 1 .0368.0135.04.04 0 0 1 .0143.0132.025.025 0 0 1 .0033.0153m-.3484-.0178a.1.1 0 0 0-.0157.0052l.0003.0002c.006.0037.0093.0058.0186.0087.0147.0045.0415.0094.1024.0167.0596.0065.1081.004.1438-.0026a.2.2 0 0 0 .0402-.0111l-.0062-.0018a.8.8 0 0 0-.1092-.0186.8.8 0 0 0-.1254-.0038.27.27 0 0 0-.0488.0071m.3119.0258-.0002-.0001zm-.0004-.0215" clip-rule="evenodd"/><path fill="#009b3a" d="m30.5177 21.8872-.0223-.1505s-.028-.4067-.0742-.4883c-.0089-.0181-.0049-.0603-.0342-.061-.0562-.0042-.0562.1281-.063.2479-.0913.6046.3912 1.0662.3912 1.0662z"/><path fill="#000" fill-rule="evenodd" d="M30.3883 21.161a.048.048 0 0 1 .035.0161.07.07 0 0 1 .014.027c.0019.0065.0033.0136.0044.019l.0006.0032a.1.1 0 0 0 .0026.0102.24.24 0 0 1 .0184.0495 1 1 0 0 1 .0152.0685c.0092.0505.0172.1097.0236.1659a5 5 0 0 1 .0195.2101l.0003.0034v.0002l.0218.1472.1968.6123-.0437.0274.0184-.0193-.0184.0193-.0002-.0002-.0003-.0003-.0012-.0011-.0042-.0042-.0157-.0162a1.4 1.4 0 0 1-.0545-.0618 1.64 1.64 0 0 1-.1585-.2286c-.1107-.1937-.2111-.466-.1647-.7758l.0019-.0358c.0024-.0479.0048-.0971.0113-.1363.0041-.0246.0102-.0484.0207-.0664.0111-.019.0297-.035.0569-.0333m.2633 1.2299-.1599-.4974-.0228-.1537v-.001l-.0001-.0011-.0003-.0034-.0009-.013c-.0009-.0112-.0021-.0273-.0038-.0469a5 5 0 0 0-.0146-.148 2.5 2.5 0 0 0-.0231-.1622.8.8 0 0 0-.0141-.0641.2.2 0 0 0-.014-.0384l-.0004-.0007-.0003-.0007c-.004-.008-.0059-.0173-.0072-.0234l-.0009-.0045q-.0014-.0076-.003-.0134a.03.03 0 0 0-.0018-.005c-.001 0-.0032.0006-.007.0071q-.0083.014-.0142.0483c-.0059.0358-.0082.0809-.0106.1283l-.002.0394-.0001.0012-.0002.0013c-.0444.2942.0507.5546.1582.7426a1.56 1.56 0 0 0 .1431.2087" clip-rule="evenodd"/><path fill="#009b3a" d="M32.9052 23.6786s-.0506-.0113-.0186-.0508c.0307-.0375.1219-.0576.1402-.0576a.44.44 0 0 1 .1072.0143c.0385.0095.0916.0433.0761.0679-.0163.0233-.0682.0525-.1393.0525-.0609 0-.0921-.0016-.119-.0092-.026-.0099-.0466-.0171-.0466-.0171"/><path fill="#000" fill-rule="evenodd" d="M33.1275 23.6081a.43.43 0 0 0-.0995-.0134h-.0011a.14.14 0 0 0-.0202.0032.4.4 0 0 0-.0374.0103.25.25 0 0 0-.0386.0164.08.08 0 0 0-.025.0188.03.03 0 0 0-.0046.0071.04.04 0 0 0 .0089.0041l.0008.0002.0012.0003.0014.0005.001.0003.0028.001.01.0036.0324.012c.0229.0063.0507.008.1113.008a.21.21 0 0 0 .0806-.0156.11.11 0 0 0 .0357-.023.05.05 0 0 0-.01-.0098.14.14 0 0 0-.0489-.0238zm-.2293.0941.0025.0008.0098.0036c.0083.003.0198.0072.0327.0121l.001.0004.001.0003c.0307.0087.0653.0101.1257.0101a.255.255 0 0 0 .0998-.0195c.0263-.0112.0479-.0267.0596-.0436l.0003-.0004.0003-.0005a.044.044 0 0 0 .0013-.0437.09.09 0 0 0-.0246-.0282.19.19 0 0 0-.0672-.0327.47.47 0 0 0-.1141-.0152.2.2 0 0 0-.0298.0043.4.4 0 0 0-.0429.0118.3.3 0 0 0-.0463.0197.13.13 0 0 0-.0396.0309l-.0001.0001a.062.062 0 0 0-.016.0409.046.046 0 0 0 .016.0329.07.07 0 0 0 .0306.0159" clip-rule="evenodd"/><path fill="#009b3a" d="M32.3823 23.3909s-.1657-.0761-.3226-.1528c-.207-.101-.4556-.2412-.6287-.4984-.2169-.3185-.4054-.489-.4509-.5233-.0469-.0344-.0536-.0471-.0708-.0229-.0156.021-.0047.0392.0084.0615.0445.0725.1541.2086.1934.2817.0677.1306.2078.2732.2066.3578 0 .0117-.0409-.0084-.0409-.0084s-.3279-.1123-.4608-.5094c-.0967-.2879-.0556-.3724-.0781-.5162-.0383-.2557-.0461-.2765-.1728-.5631-.0034-.0071-.0774-.1269-.0874-.1003-.0137.0344.0125.1625.0125.1625l.0135.1477s-.0107.3277-.0107.3475c0 .0199-.0826.2244.2683.5683 0 0 .0053.0584-.0418.007-.0333-.0368-.2845-.2296-.361-.5467-.0787-.3173-.0901-.6349-.0305-.7667.0539-.1192.1622-.4105.1161-.6649-.0054-.0265-.0129-.1046-.0297-.0841-.0071.0099-.0387.1387-.0578.1832-.0265.061-.0677.121-.0804.1631-.0247.0714-.1457.182-.122.3853.0268.2337.042.2702.0702.3535.0096.0303.0331.1077.0178.1154-.0141.0075-.0637-.0925-.0637-.0925s-.2222-.4364-.0852-.7905c.1386-.3525.4861-.6868.4861-.6868s.2824-.234.3399-.2885c.0224-.021.0171-.0368.0096-.0343-.0702.0176-.6135.13-.8044.7768 0 0-.0099.0273-.024.0205-.0175-.0078 0-.0382 0-.0382s.1196-.4585.4549-.6665c.366-.2282.323-.1948.444-.2666.0762-.0473.1451-.1107.2303-.2516.0087-.0157.0433-.0977.0387-.1117-.0038-.0139-.0203.0053-.028.0285 0 0-.1037.16-.2588.2138-.1556.0539-.2821-.0229-.4383.1498-.1567.1737-.2812.4142-.2812.4142s-.0408.0622-.0499.0603c-.0172-.0052.0084-.0662.0084-.0662s.2091-.4432.377-.5333c.1681-.0907.3178-.1777.4134-.2513.1161-.091.316-.3138.3881-.3906.0153-.0164.1227-.1251.1463-.1603.0144-.0193.0484-.0471.0428-.052-.0153-.0114-.1171.0375-.1171.0375s-.5536.1524-.898.6724a.9.9 0 0 1-.0742.0939c-.0368.0381-.0552.1016-.0552.1016-.0224-.0185.1948-.2898.1948-.2898l.038-.1755s.0643-.2637.1994-.4498c.0134-.0169.0932-.0974.1067-.1142.0268-.029-.0509.0255-.0372.0133 0 0-.5164.3705-.5164.8373 0 .0838-.0521.1604-.1241.2646-.0843.121-.1124.1954-.1488.3755a16 16 0 0 1-.0475.2268s.005.0666-.0165.0616c-.0225-.005-.0147-.0601-.0147-.0601s.0527-.3479.0902-.455c.0365-.1039.0605-.1748.0605-.1748s-.0215-.2615.0365-.4049c.0493-.125.1741-.2896.1935-.3308.0084-.0179.0661-.1352.0823-.2689.0022-.0179-.0118-.003-.0352.0491-.0568.1279-.1042.1614-.1975.2817 0 0-.2393.1733-.326.6889 0 0-.0029.1922-.0321.4934-.0213.2207-.0032.4274.0217.5519.016.0761.0463.0768.0275.086-.0116.0059.0074.001-.0197-.0565-.0331-.0691-.0584-.1753-.0584-.322 0-.269.0233-.4849.0233-.4849s.0176-.4347-.1627-.6306c-.0088-.0102.0316.0879.0496.1857.0222.1214-.018.2898-.0299.3553-.0115.0659-.1317.3532-.0893.6228 0 0 .1017.4571.2328.6787 0 0 .0815.0955.0094.006-.0715-.0895-.2182-.4452-.2309-.4755-.0113-.0291-.1164-.2505-.2153-.3405-.0512-.0477-.1919-.1321-.1919-.1321s-.0764-.0582-.0185.0191c.0459.0611.1075.1706.1367.2183.061.0985.1152.2011.1623.3069.0471.1035.1566.4077.1566.4077l.0701.193s.1175.0652.1815.1363c.0523.0576.1609.1898.2511.425.0405.104.1215.1993.1215.1993s-.0172.033-.0893-.0917c-.0711-.1263-.1407-.3633-.312-.5477-.1302-.1415-.4803-.2841-.4803-.2841s.225.3918.2808.4617c.0946.112.2312.2693.2665.3108.0365.0424.2481.3036.2793.3454.0492.0653.0817.0941.1076.1207.0557.0594.2211.1677.234.1848.0024.0173.0057.003-.0083-.0072-.0734-.0437-.1609-.1127-.2514-.1715-.0902-.0597-.4383-.2083-.6729-.5314-.0556-.0955-.0821-.1336-.1008-.1237-.0287.0152.1579.6323.5417.8285 0 0 .4234.1882.5173.2448.0515.0309.1553.0768.2034.1155.0275.0226-.025.0213-.0284.0207-.225-.0176-.5478-.0473-.7461-.1623 0 0-.0851-.0597-.0152.0243.0555.0649.161.2249.3644.315.2038.0894.4999.1415.6082.147.1063.006.4857.0078.5584.0313.0711.0241.1922.1016.2615.1239.063.0204.253.0932.253.0932s.0572.0313.0877.0424c.0344.0137.1767.0124.1867-.0142.0096-.0239-.0406-.0602-.0406-.0602"/><path fill="#000" fill-rule="evenodd" d="M30.9971 18.44a2 2 0 0 1-.051.0545l-.0031.0032c-.0235.0246-.0456.0477-.0519.0555-.0659.091-.115.2014-.1476.2897a1.7 1.7 0 0 0-.0455.1417l-.0022.0085-.0006.0022-.0001.0004-.0218.1008c.1518-.1777.3238-.301.4685-.3832a1.8 1.8 0 0 1 .2304-.1104 1.3 1.3 0 0 1 .092-.0321h.0001l.0031-.0015.012-.0055a1 1 0 0 1 .0375-.0159.4.4 0 0 1 .0418-.0141.1.1 0 0 1 .019-.0033.034.034 0 0 1 .022.0055l.0005.0004.0005.0004a.021.021 0 0 1 .006.0235.04.04 0 0 1-.0053.0098.2.2 0 0 1-.0133.0151l-.0069.0071a.3.3 0 0 0-.0202.0221c-.0131.0194-.0469.0563-.078.0893-.0201.0213-.0391.041-.0525.0549-.0082.0085-.0144.0148-.0174.0181l-.0424.0457c-.0901.0974-.2488.2692-.3479.3468l-.0002.0001c-.0968.0747-.2479.1624-.4159.2531-.0385.0206-.0811.0626-.1239.1164a1.7 1.7 0 0 0-.1203.177 3 3 0 0 0-.1222.2263l-.0012.0024.0007-.001.0046-.0068.0012-.0018.001-.0019.0043-.0081.0164-.0299a3 3 0 0 1 .0603-.1024c.051-.0822.122-.1869.2014-.2749.0816-.0902.1567-.116.2312-.1256a1 1 0 0 1 .0693-.0059l.0383-.0027a.43.43 0 0 0 .1075-.0209m-.7132.5821.016.0105-.0001.0002-.0004.0005-.0013.0021-.0049.0072-.0154.0217a.3.3 0 0 1-.0181.0224.1.1 0 0 1-.0093.0088.04.04 0 0 1-.0066.0041.023.023 0 0 1-.0138.0015l-.0008-.0001-.0008-.0003a.026.026 0 0 1-.0165-.015.04.04 0 0 1-.003-.0158c0-.009.0021-.0191.0043-.0275a.3.3 0 0 1 .0075-.0232l.0028-.0074.0009-.0022.0002-.0006.0001-.0001v-.0001l.0003-.0008.0173.0082-.0173-.0082.0001-.0001.0001-.0002.0005-.001.0018-.0038.007-.0144a3 3 0 0 1 .117-.215 1.7 1.7 0 0 1 .1231-.1812c.0436-.0547.0901-.1018.1357-.1262.1681-.0908.3165-.1771.4107-.2497.0963-.0755.2518-.2436.3423-.3415l.0436-.047.0175-.0182c.0138-.0143.0334-.0346.0526-.0549.0321-.0341.0635-.0688.0743-.0848l.0003-.0004.0002-.0004a.2.2 0 0 1 .0098-.0116l-.0088.0034a1 1 0 0 0-.0359.0152l-.0115.0052-.0031.0015-.0008.0004-.0002.0001-.0016.0008-.0017.0004-.0003.0001-.0011.0003-.0045.0013-.0177.0056a1.4 1.4 0 0 0-.0664.024 1.8 1.8 0 0 0-.2255.1081c-.1797.1022-.4016.2684-.5717.5252l-.0052-.0034a4 4 0 0 0-.0723.0989l.0012.0011a.2.2 0 0 0-.0095.011 1 1 0 0 0-.0158.0241.3.3 0 0 0-.0221.0491l-.0025.0072-.0005.0018-.0002.0004v.0001l-.0081.028-.0225-.0186a.026.026 0 0 1-.0083-.0233.06.06 0 0 1 .0047-.0165.3.3 0 0 1 .0204-.0381l.0062-.0099a.2.2 0 0 1 .0176-.0267 2 2 0 0 1 .0451-.0635 5 5 0 0 1 .0969-.1268l.0065-.0082.0372-.1716.0186.0045-.0186-.0045.0001-.0003.0001-.0006.0006-.0023.0024-.0089a1.8 1.8 0 0 1 .0465-.1451c.0317-.0857.0791-.1935.1432-.2857a1.7 1.7 0 0 0-.1489.1528c-.1281.1497-.2536.3546-.2536.5812 0 .0461-.0144.0892-.0372.1334-.0227.044-.0545.0902-.0904.1421-.0416.0598-.0688.1073-.0902.1617-.0215.0546-.0374.1169-.0556.2066q-.0226.1125-.0469.2245v.0004l.0003.0081a.2.2 0 0 1-.0007.0245.09.09 0 0 1-.0064.0277.034.034 0 0 1-.0112.014.027.027 0 0 1-.0222.0042.036.036 0 0 1-.0251-.0228.08.08 0 0 1-.0054-.0266.2.2 0 0 1 .0002-.0221l.0007-.007.0002-.0021.0001-.0006v-.0002l.019.0027-.019-.0029.0007-.004.0017-.0113.0065-.0409a7 7 0 0 1 .0223-.1316c.0177-.0999.0405-.2154.0599-.2707.0182-.0519.0333-.0956.0439-.1263l.0122-.0356.003-.009-.0005-.0079-.0017-.032a1.7 1.7 0 0 1-.001-.1068c.0019-.0835.011-.1877.0414-.2629.0254-.0644.0698-.1381.1096-.2a5 5 0 0 1 .0393-.0601l.0148-.0226a.6.6 0 0 0 .0302-.0491m-.1729 1.3281c.0702-.1158.1675-.2356.2976-.3164.2592-.1615.3128-.1916.3653-.2211a3 3 0 0 0 .0785-.0452l.0003-.0002c.0792-.0492.1501-.1149.2366-.258l.0003-.0006a.6.6 0 0 0 .0255-.059.4.4 0 0 0 .0121-.0358.1.1 0 0 0 .0033-.0153.04.04 0 0 0-.0006-.0164.027.027 0 0 0-.0074-.0124.023.023 0 0 0-.0176-.0058.03.03 0 0 0-.0124.0045.05.05 0 0 0-.0075.0065.1.1 0 0 0-.0188.0326l-.0031.0046a.7.7 0 0 1-.0645.0774c-.0443.0457-.1066.0968-.1801.1223m.0142.1228c.073-.0455.1398-.1064.2235-.2448a.2.2 0 0 0 .0073-.0154.7.7 0 0 1-.0374.0417c-.0463.0478-.1135.1036-.195.1319a.47.47 0 0 1-.1169.0229q-.0214.0017-.0411.0029a1 1 0 0 0-.0648.0055c-.0667.0086-.133.0307-.2076.1133-.0773.0856-.1468.188-.1973.2694a3 3 0 0 0-.0755.1302l-.0042.0078-.001.002-.0003.0005v.0001l-.0005.0009-.0006.0009-.016-.0105m.5358 2.4382c-.0489-.1454-.0632-.2402-.0679-.317-.0018-.0279-.0022-.0535-.0027-.0778l-.0005-.0262a.7.7 0 0 0-.0078-.0984l-.0001-.0001c-.0192-.128-.0305-.1957-.0526-.2671-.0222-.0716-.0552-.1472-.1185-.2906l-.0001-.0001-.0033-.0056-.0092-.0146a1 1 0 0 0-.0268-.0394.4.4 0 0 0-.0155-.0198.4.4 0 0 0 .0049.0626 1 1 0 0 0 .0101.0617l.0008.0041.0002.001.0003.0013.0136.1499v.0012l-.0192-.0006m-.5417-.8924a.2.2 0 0 0 .0085.0203.08.08 0 0 1 .0052.0234l-.0001.0029-.0001.0024c0 .0003-.0002.005.0023.0097a.02.02 0 0 0 .0199.0102c.0035-.0005.0062-.0019.0066-.0021l.0018-.0009.0001-.0001.0013-.0007a.03.03 0 0 0 .0106-.0076.023.023 0 0 0 .0055-.0195c-.0009-.0052-.0035-.0094-.0047-.0114l-.0034-.005-.0014-.0021a.1.1 0 0 1-.0083-.0142.3.3 0 0 0-.0082-.0197m.2916-1.0689c.0362-.0524.0665-.0965.0878-.1378.0213-.0411.0329-.0781.0329-.1159 0-.2402.1327-.4539.2628-.6061a1.73 1.73 0 0 1 .2555-.2422l.0045-.0033.0012-.0009.0003-.0002.0001-.0001.0108.015-.0108-.015.0114.0143.0108-.0114-.0029-.0021c-.006-.0035-.0118-.0025-.0126-.0024l-.0032.0008-.0013.0006.0003-.0002.0026-.0015.0064-.0039.0244-.0143c.003-.0015.0073-.0037.0113-.0047a.02.02 0 0 1 .0052-.0007.02.02 0 0 1 .0196.0268.03.03 0 0 1-.0045.008l-.0046.0055m-.9197 1.7065-.019-.0029v.0002zm.3838-.6938" clip-rule="evenodd"/><path fill="#009b3a" d="M34.8426 20.1776c.0429.0157.062.1432.062.1432s-.0038-.073-.0038-.1089c0-.0363-.0177-.1721-.0177-.1721l-.0381.0272c-.0456.0363-.0708.1003-.0708.1003s.0261-.0043.0684.0102"/><path fill="#000" fill-rule="evenodd" d="m34.907 20.0365.0007.006.002.0159.0062.0509c.0043.0379.009.0826.009.1024 0 .0174.0009.0442.0018.067l.0013.0288.0004.0087.0002.0032-.0476.0048h-.0001l-.0001-.0003-.0001-.0009-.0006-.0038a.6.6 0 0 0-.0134-.0574.22.22 0 0 0-.0173-.0438c-.0072-.013-.0128-.0173-.0151-.0181a.17.17 0 0 0-.0432-.0092.1.1 0 0 0-.0108-.0001l-.0022.0002h-.0002l-.0416.0069.0156-.0394.0223.0088-.0223-.0088v-.0001l.0001-.0002.0003-.0007.001-.0024.0038-.0085a.4.4 0 0 1 .0147-.0279.26.26 0 0 1 .0583-.0704l.0004-.0004.0713-.0509zm-.095.1084a.24.24 0 0 1 .0384.0097l-.0082.0238.0086-.0235a.06.06 0 0 1 .0233.0157 3 3 0 0 0-.0059-.0558l-.0039-.0323-.0048.0035a.21.21 0 0 0-.0462.0567z" clip-rule="evenodd"/></g><defs><clipPath id="a"><rect width="64" height="42" fill="#fff" rx="5"/></clipPath></defs></svg>