<svg xmlns="http://www.w3.org/2000/svg" width="64" height="42" fill="none" viewBox="0 0 64 42"><g clip-path="url(#a)"><rect width="64" height="42" fill="#fff" rx="5"/><path fill="#fff" d="M0 0h64v42H0z"/><rect width="63" height="41" x="1" y="1" stroke="#f5f5f5" rx="5"/><path fill="#000" d="m32.5001 15.6866-4.3955 7.6455h8.7908z"/><path fill="#fff" d="m32.5001 15.689-2.1721 3.779-1.064 1.8503h6.4721l-1.0153-1.7659z"/><path fill="#17c0eb" d="m32.5 15.689-.1626.2828.1626 3.8097.1627-3.8097z"/><path fill="#fff" d="m32.5001 19.2277-.0093.0002.0093.2155.0092-.2155z"/><path fill="#17c0eb" d="m36.3758 18.5164-.318-.0674-3.5579 1.3332 3.658-1.0234z"/><path fill="#fff" d="m33.0246 19.6104-.0031-.0088-.2013.0755.207-.0579z"/><path fill="#17c0eb" d="m34.8951 23.0922-.0338-.3249-2.3611-2.9857 2.0977 3.1779z"/><path fill="#fff" d="m32.8242 20.2295.0073-.0057-.1336-.1689.1187.1799z"/><path fill="#17c0eb" d="m30.1048 23.0922.2973-.1327 2.0977-3.1779-2.3612 2.9857z"/><path fill="#fff" d="m32.176 20.2295.0076.0053.1187-.1799-.1337.1689z"/><path fill="#17c0eb" d="m28.6244 18.5162.2178.2424 3.6582 1.0231-3.558-1.3329z"/><path fill="#fff" d="m31.9756 19.6103-.0026.0089.207.0579-.2013-.0755z"/><path fill="#17c0eb" d="m33.0669 15.7289-.2007.2572-.3652 3.7952.6884-3.7494z"/><path fill="#fff" d="m32.5769 19.233-.0092-.0011-.0206.2148.039-.2122z"/><path fill="#17c0eb" d="m36.5134 19.0705-.3056-.1114-3.7077.8226 3.7641-.5015z"/><path fill="#fff" d="m33.0432 19.6852-.0018-.0091-.2098.0466.213-.0283z"/><path fill="#17c0eb" d="m34.4133 23.3948.0115-.3265-1.9246-3.2867 1.6371 3.4402z"/><path fill="#fff" d="m32.759 20.2704.0081-.0045-.1089-.186.0926.1947z"/><path fill="#17c0eb" d="m29.6695 22.7252.3128-.0898L32.5 19.7816l-2.752 2.6266z"/><path fill="#fff" d="m32.1171 20.1799.0068.0063.1425-.1615-.1558.1486z"/><path fill="#17c0eb" d="m28.8373 17.9868.1821.2704 3.481 1.5245-3.3389-1.8172z"/><path fill="#fff" d="m32.0045 19.5386-.0038.0084.197.0862-.1889-.1029z"/><path fill="#17c0eb" d="m33.6229 15.8478-.2344.2266-.8877 3.707 1.2014-3.6165z"/><path fill="#fff" d="m32.6522 19.2492-.0089-.0024-.0502.2098.068-.2047z"/><path fill="#17c0eb" d="m36.5727 19.6395-.2873-.1543-3.7851.2954 3.7967.0327z"/><path fill="#fff" d="m33.0512 19.7623-.0005-.0094-.2142.0168.2149.0019z"/><path fill="#17c0eb" d="m33.8938 23.6273.0566-.3217-1.4501-3.5239 1.1443 3.6357z"/><path fill="#fff" d="m32.6888 20.302.0086-.0034-.0821-.1994.0648.2058z"/><path fill="#17c0eb" d="m29.2892 22.301.3221-.0453 2.8888-2.474-3.0892 2.2164z"/><path fill="#fff" d="m32.0657 20.1226.0059.0072.1634-.1401-.1748.1254z"/><path fill="#17c0eb" d="m29.1217 17.4928.1428.2933 3.2361 1.9959-3.0547-2.266z"/><path fill="#fff" d="m32.043 19.4719-.005.0078.1832.1129-.1729-.1282z"/><path fill="#17c0eb" d="m34.1573 16.0431-.2635.1917-1.3933 3.5465 1.6912-3.4132z"/><path fill="#fff" d="m32.7244 19.2756-.0085-.0036-.0788.2007.0957-.1931z"/><path fill="#17c0eb" d="m36.5531 20.2099-.2633-.1915-3.7897-.2375 3.7559.5612z"/><path fill="#fff" d="m33.0486 19.8395.0008-.0093-.2145-.0134.2125.0318z"/><path fill="#17c0eb" d="m33.3476 23.7846.1004-.3106-.9478-3.6925.6297 3.7604z"/><path fill="#fff" d="m32.6149 20.3232.009-.0021-.0537-.209.0356.2128z"/><path fill="#17c0eb" d="m28.9712 21.8276.3253.0002 3.2036-2.0463-3.3664 1.7631z"/><path fill="#fff" d="m32.0226 20.0583.0048.0079.1813-.1158-.1906.0997z"/><path fill="#17c0eb" d="m29.4716 17.0429.1008.3104 2.9281 2.4285-2.7109-2.6707z"/><path fill="#fff" d="m32.0903 19.4109-.006.007.1657.1374-.1534-.1511z"/><path fill="#17c0eb" d="m34.6594 16.3111-.2874.1531-1.8716 3.3172 2.1479-3.1438z"/><path fill="#fff" d="m32.7924 19.3119-.008-.0048-.1058.1878.1215-.1779z"/><path fill="#17c0eb" d="m36.4543 20.772-.2341-.2267-3.7202-.7638 3.6417 1.0802z"/><path fill="#fff" d="m33.0352 19.9156.0021-.0091-.2105-.0432.206.0612z"/><path fill="#17c0eb" d="m32.7847 23.8642.1421-.2935-.4272-3.7892.1036 3.8118z"/><path fill="#fff" d="m32.5387 20.3341.0091-.0009-.0242-.2144.0058.2157z"/><path fill="#17c0eb" d="m28.7219 21.3145.3221.0456 3.4561-1.5786-3.5781 1.2755z"/><path fill="#fff" d="m31.9888 19.989.0037.0085.1956-.0893-.2025.0721z"/><path fill="#17c0eb" d="m29.8806 16.6463.0567.3216 2.5631 2.8137-2.3143-3.0234z"/><path fill="#fff" d="m32.1457 19.3573-.0069.0061.1451.1592-.1309-.1711z"/><path fill="#17c0eb" d="m35.1194 16.6466-.3057.1116-2.3135 3.0232 2.5629-2.8131z"/><path fill="#fff" d="m32.8546 19.3573-.0072-.0058-.1309.1711.1451-.1592z"/><path fill="#17c0eb" d="m36.2786 21.3148-.2003-.2573-3.5781-1.276 3.4564 1.5787z"/><path fill="#fff" d="m33.0114 19.989.0033-.0087-.2025-.0721.1956.0893z"/><path fill="#17c0eb" d="m32.2162 23.8639.1821-.2707.1017-3.8117-.4266 3.7888z"/><path fill="#fff" d="m32.4617 20.3339.0093.0005.0057-.2157-.0242.2144z"/><path fill="#17c0eb" d="m28.5462 20.7715.3127.0901 3.6413-1.0798-3.7201.7628z"/><path fill="#fff" d="m31.965 19.9155.0025.0089.206-.0611-.2105.0431z"/><path fill="#17c0eb" d="m30.3406 16.3108.0114.3264 2.1482 3.1443-1.8725-3.3173z"/><path fill="#fff" d="m32.2079 19.3118-.0077.0051.1216.1779-.1059-.1877z"/><path fill="#17c0eb" d="m35.5285 17.043-.3181.0679L32.5 19.7815l2.9279-2.4279z"/><path fill="#fff" d="m32.9099 19.4108-.0064-.0067-.1533.1511.1657-.1373z"/><path fill="#17c0eb" d="m36.0291 21.8276-.1625-.2829-3.3665-1.7632 3.2038 2.0462z"/><path fill="#fff" d="m32.9777 20.0584.0044-.0081-.1905-.0998.1813.1158z"/><path fill="#17c0eb" d="m31.6527 23.7845.2176-.2428.6297-3.7603-.9477 3.6924z"/><path fill="#fff" d="m32.3854 20.3232.0091.0017.0355-.2128-.0536.209z"/><path fill="#17c0eb" d="m28.4473 20.2093.297.1327 3.7557-.5609-3.7896.2363z"/><path fill="#fff" d="m31.9515 19.8394.0012.0092.2125-.0318-.2144.0134z"/><path fill="#17c0eb" d="m30.8426 16.0428-.0341.3249 1.6914 3.4137-1.3941-3.5467z"/><path fill="#fff" d="m32.2758 19.2755-.0084.0039.0958.1932-.0789-.2007z"/><path fill="#17c0eb" d="m35.8785 17.4928-.3243.0229-3.0543 2.2659 3.2359-1.9954z"/><path fill="#fff" d="m32.9572 19.4717-.0053-.0075-.1729.1282.1832-.1129z"/><path fill="#17c0eb" d="m35.7112 22.3009-.1217-.303-3.0893-2.2163 2.8888 2.474z"/><path fill="#fff" d="m32.9346 20.1224.0055-.0075-.1748-.1254.1634.1401z"/><path fill="#17c0eb" d="m31.1062 23.6271.249-.21L32.5 19.7813l-1.4502 3.5242z"/><path fill="#fff" d="m32.3115 20.3018.0088.0029.0647-.2057-.0821.1994z"/><path fill="#17c0eb" d="m28.4275 19.6393.2757.1737 3.7967-.0323-3.7852-.2956z"/><path fill="#fff" d="m31.9489 19.7622-.0001.0093.2149-.0019-.2142-.0167z"/><path fill="#17c0eb" d="m31.377 15.8477-.0789.317 1.2015 3.6168-.8885-3.7071z"/><path fill="#fff" d="m32.348 19.2491-.0088.0027.068.2047-.0502-.2098z"/><path fill="#17c0eb" d="m36.1629 17.9871-.3243-.0224-3.3387 1.8171 3.4809-1.5242z"/><path fill="#fff" d="m32.9957 19.5387-.0042-.0082-.1889.1029.197-.0863z"/><path fill="#17c0eb" d="m35.3307 22.7251-.0784-.3172-2.752-2.6263 2.5175 2.8537z"/><path fill="#fff" d="m32.8831 20.1797.0065-.0066-.1557-.1486.1424.1616z"/><path fill="#17c0eb" d="m30.5867 23.3949.2758-.1731L32.5 19.7813l-1.9245 3.2873z"/><path fill="#fff" d="m32.2412 20.2704.0083.0042.0926-.1947-.1089.186z"/><path fill="#17c0eb" d="m28.487 19.0707.2491.21 3.764.5004-3.7075-.8223z"/><path fill="#fff" d="m31.9569 19.6852-.0014.0092.213.0283-.2098-.0466z"/><path fill="#17c0eb" d="m31.9334 15.729-.1224.3029.689 3.7494-.3659-3.7951z"/><path fill="#fff" d="m32.4234 19.2331-.0092.0015.039.2121-.0206-.2147z"/><path fill="#fff" fill-rule="evenodd" d="M45.017 8.9888H19.983V33.011h25.034zM32.5 15.5826l4.485 7.8016h-8.97z" clip-rule="evenodd"/><path fill="#c8a400" d="m32.5 15.5826-2.2178 3.8588-2.2672 3.9428 4.4366-.0005 4.5334.0005-2.2185-3.8585zm0 .2081 2.177 3.7871 2.1286 3.7023-4.354-.0003-4.2574.0003 2.1776-3.7867z"/><path fill="red" d="M32.5 18.4216a3.045 3.045 0 0 0-1.9989.745l-1.0112 1.7605a3.1 3.1 0 0 0-.0518.5716h.3472c0-1.5055 1.2156-2.7263 2.7147-2.7263s2.7147 1.2208 2.7147 2.7263h.3472a3.1 3.1 0 0 0-.0518-.5716l-1.0112-1.7605a3.046 3.046 0 0 0-1.9989-.745"/><path fill="#f60" d="M32.5 18.4779c-.8117 0-1.5484.324-2.0894.8489l-.8301 1.4443a3.03 3.03 0 0 0-.0884.7276h.2932c0-1.5055 1.2156-2.7263 2.7147-2.7263s2.7147 1.2208 2.7147 2.7263h.2933c0-.2511-.0309-.4964-.0884-.7297l-.8302-1.4422c-.541-.5249-1.2777-.8489-2.0894-.8489"/><path fill="#ff0" d="M32.5 18.5342c-.8764 0-1.6629.3827-2.2037.9919l-.6016 1.0458a2.97 2.97 0 0 0-.1466.9269h.2372c0-1.5055 1.2156-2.7264 2.7147-2.7264s2.7147 1.2209 2.7147 2.7264h.2372a2.97 2.97 0 0 0-.1466-.9269l-.6017-1.046c-.5406-.6089-1.3273-.9917-2.2037-.9917z"/><path fill="#0f0" d="M32.5 18.5884c-1.004 0-1.8887.5137-2.4085 1.2927l-.1941.3379a2.91 2.91 0 0 0-.2955 1.2798h.1834c0-1.5055 1.2155-2.7264 2.7146-2.7264s2.7148 1.2209 2.7148 2.7264h.1833c.0001-.443-.101-.88-.2953-1.2776l-.1963-.3421c-.52-.778-1.4033-1.2907-2.4064-1.2907"/><path fill="#0cf" d="M32.4999 18.6447c-1.5695 0-2.8419 1.2777-2.8419 2.8541h.1272c0-1.5056 1.2156-2.7264 2.7147-2.7264s2.7148 1.2208 2.7148 2.7264h.1272c0-1.5764-1.2724-2.8541-2.842-2.8541"/><path fill="#00f" d="M32.5 18.6989c-1.5391 0-2.7859 1.2542-2.7859 2.7999h.0927c0-1.494 1.2056-2.7047 2.6932-2.7047s2.6931 1.2108 2.6931 2.7047h.0949c0-1.5457-1.2489-2.7999-2.788-2.7999"/><path fill="purple" d="M32.5001 18.7551c-1.5086 0-2.7317 1.2283-2.7317 2.7433l.0005.0508h.0553a3 3 0 0 1-.0005-.0508c0-1.4844 1.1983-2.6878 2.6764-2.6878s2.6763 1.2034 2.6763 2.6878l-.0004.0508h.055l.0004-.0508c0-1.515-1.2227-2.7433-2.7313-2.7433"/><path fill="#fff" d="m29.2641 21.3183-.6869 1.1944h7.8459l-.687-1.1944z"/><path fill="url(#b)" d="M29.0296 22.269c-.1144 0-.2206.0115-.325.0244l-.0335.0586.4926-.0491c.2273.0056.4336.0575.6753.0575h.3123c.2415 0 .4477-.0519.675-.0575.2274.0056.435.0575.6764.0575h.3126c.2415 0 .4467-.0519.6738-.0575.2272.0056.4326.0575.674.0575h.3135c.2415 0 .4478-.0519.6753-.0575.2274.0056.4333.0575.6749.0575h.3126c.2414 0 .4468-.0519.6738-.0575.176.0043.3395.0359.5165.0502l-.0355-.0619-.3014-.0222c-.1055-.0014-.2095.002-.3137 0-.2415 0-.4467.0518-.6738.0574-.2274-.0055-.4335-.0574-.6753-.0574-.1043-.0014-.209.0021-.3122 0-.2415 0-.4481.0519-.6753.0574-.2273-.0055-.4336-.0574-.675-.0574-.105-.0014-.2099.002-.3137 0-.2415 0-.4469.0519-.6738.0574-.2273-.0055-.4327-.0574-.6741-.0574-.105-.0015-.2088.0021-.3123 0-.2416 0-.4478.0519-.6752.0574-.2273-.0055-.4336-.0574-.6751-.0574-.1048-.0014-.2099.0021-.3137 0"/><path fill="url(#c)" d="M29.0296 22.1919c-.1144 0-.2206.0115-.325.0244l-.0335.0586.4926-.0491c.2273.0056.4336.0575.6753.0575h.3123c.2415 0 .4477-.0519.675-.0575.2274.0056.435.0575.6764.0575h.3126c.2415 0 .4467-.0519.6738-.0575.2272.0056.4326.0575.674.0575h.3135c.2415 0 .4478-.0519.6753-.0575.2274.0056.4333.0575.6749.0575h.3126c.2414 0 .4468-.0519.6738-.0575.176.0043.3395.0359.5165.0502l-.0355-.0619-.3014-.0222c-.1055-.0014-.2095.002-.3137 0-.2415 0-.4467.0518-.6738.0574-.2274-.0055-.4335-.0574-.6753-.0574-.1043-.0014-.209.0021-.3122 0-.2415 0-.4481.0519-.6753.0574-.2273-.0055-.4336-.0574-.675-.0574-.105-.0014-.2099.002-.3137 0-.2415 0-.4469.0519-.6738.0574-.2273-.0055-.4327-.0574-.6741-.0574-.105-.0015-.2088.0021-.3123 0-.2416 0-.4478.0519-.6752.0574-.2273-.0055-.4336-.0574-.6751-.0574-.1048-.0014-.2099.0021-.3137 0"/><path fill="url(#d)" d="M29.0296 22.1144c-.1144 0-.1573.0172-.2617.0301l-.0335.0586.4294-.0547c.2272.0055.4335.0575.6752.0575h.3123c.2415 0 .4477-.052.675-.0575.2274.0055.435.0575.6764.0575h.3126c.2415 0 .4467-.052.6738-.0575.2272.0055.4326.0575.674.0575h.3135c.2415 0 .4478-.052.6753-.0575.2274.0055.4333.0575.675.0575h.3125c.2415 0 .4468-.052.6738-.0575.176.0043.2754.0326.4524.0469l-.0273-.0508-.2455-.0301c-.1055-.0014-.2094.0021-.3137 0-.2415 0-.4467.0518-.6738.0575-.2274-.0056-.4335-.0575-.6752-.0575-.1044-.0014-.2091.0022-.3123 0-.2415 0-.448.0519-.6753.0575-.2272-.0056-.4335-.0575-.675-.0575-.105-.0014-.2099.0021-.3137 0-.2415 0-.4469.0519-.6738.0575-.2273-.0056-.4326-.0575-.6741-.0575-.105-.0014-.2088.0022-.3123 0-.2416 0-.4478.0519-.6752.0575-.2273-.0056-.4335-.0575-.675-.0575-.1049-.0014-.21.0022-.3138 0"/><path fill="url(#e)" d="M29.0296 22.0372c-.1144 0-.0987-.0071-.2031.0057l-.0335.0587.3707-.0305c.2273.0056.4336.0575.6753.0575h.3123c.2415 0 .4477-.0519.675-.0575.2274.0056.435.0575.6764.0575h.3126c.2415 0 .4467-.0519.6738-.0575.2272.0056.4326.0575.674.0575h.3135c.2415 0 .4478-.0519.6753-.0575.2274.0056.4333.0575.6749.0575h.3126c.2414 0 .4468-.0519.6738-.0575.176.0043.2363.0279.4134.0422l-.0313-.0469-.2025-.0292c-.1055-.0014-.2095.0021-.3137 0-.2415 0-.4467.0518-.6738.0574-.2274-.0055-.4335-.0574-.6753-.0574-.1043-.0014-.209.0021-.3122 0-.2415 0-.4481.0519-.6753.0574-.2273-.0055-.4336-.0574-.675-.0574-.105-.0014-.2099.0021-.3137 0-.2415 0-.4469.0519-.6738.0574-.2273-.0055-.4327-.0574-.6741-.0574-.105-.0015-.2088.0021-.3123 0-.2416 0-.4478.0519-.6752.0574-.2273-.0055-.4336-.0574-.6751-.0574-.1048-.0014-.2099.0021-.3137 0"/><path fill="url(#f)" d="M29.0296 21.9601c-.1144 0-.0557-.016-.1601-.0031l-.0336.0586.3278-.0216c.2273.0056.4336.0575.6753.0575h.3123c.2415 0 .4477-.0519.675-.0575.2274.0056.435.0575.6764.0575h.3126c.2415 0 .4467-.0519.6738-.0575.2272.0056.4326.0575.674.0575h.3135c.2415 0 .4478-.0519.6753-.0575.2274.0056.4333.0575.6749.0575h.3126c.2414 0 .4468-.0519.6738-.0575.176.0043.1738.0113.3509.0255l-.0352-.0468-.1361-.0126c-.1055-.0014-.2095.0021-.3137 0-.2415 0-.4467.0518-.6738.0574-.2274-.0055-.4335-.0574-.6753-.0574-.1043-.0014-.209.0021-.3122 0-.2415 0-.4481.0519-.6753.0574-.2273-.0055-.4336-.0574-.675-.0574-.105-.0014-.2099.0021-.3137 0-.2415 0-.4469.0519-.6738.0574-.2273-.0055-.4327-.0574-.6741-.0574-.105-.0015-.2088.0021-.3123 0-.2416 0-.4478.0519-.6752.0574-.2273-.0055-.4336-.0574-.6751-.0574-.1048-.0014-.2099.0021-.3137 0"/><path fill="url(#g)" d="M29.0296 21.8827c-.1144 0 .0038-.0166-.1006-.0037l-.0335.0586.2683-.021c.2272.0056.4335.0575.6752.0575h.3123c.2415 0 .4477-.0519.675-.0575.2274.0056.435.0575.6764.0575h.3126c.2415 0 .4467-.0519.6738-.0575.2272.0056.4326.0575.674.0575h.3135c.2415 0 .4478-.0519.6753-.0575.2274.0056.4333.0575.675.0575h.3125c.2415 0 .4468-.0519.6738-.0575.176.0043.1269.0066.304.0209l-.0274-.043-.097-.0118c-.1055-.0014-.2094.0021-.3137 0-.2415 0-.4467.0518-.6738.0574-.2274-.0055-.4335-.0574-.6752-.0574-.1044-.0014-.2091.0021-.3123 0-.2415 0-.448.0519-.6753.0574-.2272-.0055-.4335-.0574-.675-.0574-.105-.0014-.2099.0021-.3137 0-.2415 0-.4469.0519-.6738.0574-.2273-.0055-.4326-.0574-.6741-.0574-.105-.0015-.2088.0021-.3123 0-.2416 0-.4478.0519-.6752.0574-.2273-.0055-.4335-.0574-.675-.0574-.1049-.0014-.21.0021-.3138 0"/><path fill="url(#h)" d="M29.0296 21.8052c-.1144 0 .0374.0023-.067.0151l-.0336.0587.2347-.0398c.2273.0055.4336.0575.6753.0575h.3123c.2415 0 .4477-.052.675-.0575.2274.0055.435.0575.6764.0575h.3126c.2415 0 .4467-.052.6738-.0575.2272.0055.4326.0575.674.0575h.3135c.2415 0 .4478-.052.6753-.0575.2274.0055.4333.0575.6749.0575h.3126c.2414 0 .4468-.052.6738-.0575.176.0043.0996.0059.2766.0202l-.0312-.043-.0658-.0112c-.1055-.0014-.2095.0021-.3137 0-.2415 0-.4467.0518-.6738.0574-.2274-.0055-.4335-.0574-.6753-.0574-.1043-.0014-.209.0022-.3122 0-.2415 0-.4481.0519-.6753.0574-.2273-.0055-.4336-.0574-.675-.0574-.105-.0014-.2099.0021-.3137 0-.2415 0-.4469.0519-.6738.0574-.2273-.0055-.4327-.0574-.6741-.0574-.105-.0015-.2088.0022-.3123 0-.2416 0-.4478.0519-.6752.0574-.2273-.0055-.4336-.0574-.6751-.0574-.1048-.0014-.2099.0022-.3137 0"/><path fill="url(#i)" d="M29.0296 21.7281c-.1144 0 .0709.0207-.0335.0336l-.0335.0586.2011-.0582c.2273.0055.4336.0575.6753.0575h.3123c.2415 0 .4477-.052.675-.0575.2274.0055.435.0575.6764.0575h.3126c.2415 0 .4467-.052.6738-.0575.2272.0055.4326.0575.674.0575h.3135c.2415 0 .4478-.052.6753-.0575.2274.0055.4333.0575.6749.0575h.3126c.2414 0 .4468-.052.6738-.0575.176.0043.0449.0049.222.0191l-.0424-.0531c-.1055-.0014-.2095.0021-.3137 0-.2415 0-.4467.0518-.6738.0574-.2274-.0055-.4335-.0574-.6753-.0574-.1043-.0014-.209.0022-.3122 0-.2415 0-.4481.0519-.6753.0574-.2273-.0055-.4336-.0574-.675-.0574-.105-.0014-.2099.0021-.3137 0-.2415 0-.4469.0519-.6738.0574-.2273-.0055-.4327-.0574-.6741-.0574-.105-.0015-.2088.0022-.3123 0-.2416 0-.4478.0519-.6752.0574-.2273-.0055-.4336-.0574-.6751-.0574-.1048-.0014-.2099.0022-.3137 0"/><path fill="url(#j)" d="M29.0296 21.6507c.0446.0095.1044.0395 0 .0524l-.0335.0586.1677-.077c.2272.0055.4335.0575.6752.0575h.3123c.2415 0 .4477-.052.675-.0575.2274.0055.435.0575.6764.0575h.3126c.2415 0 .4467-.052.6738-.0575.2272.0055.4326.0575.674.0575h.3135c.2415 0 .4478-.052.6753-.0575.2274.0055.4333.0575.675.0575h.3125c.2415 0 .4468-.052.6738-.0575.176.0043-.002.0042.1751.0184l-.0117-.0195-.0274-.0274c-.1055-.0013-.1658-.0034-.2701-.0055-.2415 0-.4467.0519-.6738.0575-.2274-.0056-.4335-.0575-.6752-.0575-.1044-.0014-.2091.0022-.3123 0-.2415 0-.448.0519-.6753.0575-.2272-.0056-.4335-.0575-.675-.0575-.105-.0014-.2099.0021-.3137 0-.2415 0-.4469.0519-.6738.0575-.2273-.0056-.4326-.0575-.6741-.0575-.105-.0014-.2088.0022-.3123 0-.2416 0-.4478.0519-.6752.0575-.2273-.0056-.4335-.0575-.675-.0575-.1049-.0014-.21.0022-.3138 0"/><path fill="url(#k)" d="m29.2729 21.3053-.0085.0149h6.4715l-.0086-.0149zm-.0151.0261-.0088.0153h6.5022l-.0087-.0153zm-.0138.024-.0142.0247h6.5407l-.0142-.0247zm-.022.0381-.0172.0301h6.5907l-.0172-.03zm-.0275.048-.0173.03h6.6458l-.0172-.03zm-.0275.0478-.0171.0298h6.7004l-.017-.0298zm-.0275.048-.0173.0298h6.7558l-.0172-.0298zm-.0297.0516-.0209.0367h6.8225l-.0209-.0367zm.4478.051c.2381.0459.261 0 .261 0zm5.6237 0s.0229.0459.261 0z"/><path fill="#fff" d="M36.3984 22.4995c-.0396.0141-.305-.0131-.4438-.003l-.0884.0233c-.0774-.0006-.1544.0016-.2297 0-.2486 0-.4588.0656-.6952.0656-.2369 0-.4464-.0656-.6952-.0656-.0773-.0006-.1541.0017-.2298 0-.2485 0-.4586.0656-.6952.0656s-.4466-.0656-.6952-.0656c-.078-.0005-.1547.0015-.231 0-.2485 0-.4576.0656-.694.0656s-.4454-.0656-.694-.0656c-.0184 0-.0356.0006-.0535.0011l-.0385-.0011c-.0082 0-.0153-.0003-.0234 0-.008-.0003-.0163 0-.0245 0-.0125 0-.0238.0009-.0361.0011l-.0538-.0011c-.2488 0-.4583.0657-.6952.0656s-.4466-.0656-.6952-.0656q-.0272.0002-.0535.0011c-.0124-.0002-.0234-.0011-.036-.0011-.0086 0-.0174-.0003-.0258 0-.0081-.0003-.0164 0-.0246 0-.0125 0-.025.0009-.0373.0011l-.0535-.0011c-.1987 0-.4291.042-.6166.0589l-.4328.7524h8.7869z"/><path fill="url(#l)" d="m35.8115 22.3899-.0412.0005c-.2235.0066-.3839.0773-.7727.0773s-.4292-.0707-.8683-.0609c-.4104.009-.5826.0874-.8053.0843-.2226-.0031-.5846-.0483-.8632-.0191s-.6091.089-.8261.0895c-.2697-.0012-.5396-.0506-.8215-.0225s-.4138.104-.7634.1029c-.3005-.0009-.6267-.0483-.8794-.0481-.2371.0002-.5015.0663-.696.1l-.0581.1014c.155-.018.59-.0844.7453-.0885.1617-.0042.7395.0335 1.0581.0225.3187-.0109.3559-.0812.7327-.0812.2622 0 .4599.0277.729.0277.168 0 .3204-.0861.5757-.0861l.1928-.0063c.2152-.0357.5785.0031.8313.0161.2287.012.3765-.0426.615-.0506l.3087-.0102c.2388-.008.4432.0443.668.0432.2242-.0139.4418-.0639.6803-.0719l.3098-.0102c.1578-.0053.4028.0054.5709.0347l-.058-.1005c-.1642-.0053-.3665-.044-.5644-.044"/><path fill="url(#m)" d="M29.0715 23.1963c-.2385 0-.4417.0592-.666.0655-.0835-.0023-.1633-.0126-.2439-.0239l-.0338.0589.1027.0044h.3087c.2385 0 .4403-.059.6647-.0655.2245.0064.4282.0655.667.0655h.3087c.2385 0 .4424-.0591.6669-.0655.2247.0064.4299.0655.6684.0655h.3085c.2385 0 .4416-.0591.6659-.0655.2245.0064.4272.0655.6658.0655h.3098c.2386 0 .4423-.0591.6671-.0655.2247.0064.4284.0655.6672.0655h.3084c.2385 0 .4416-.0591.6659-.0655.2245.0064.4285.0655.667.0655h.3087l.1227-.0053-.032-.0553-.2232.0212c-.2245-.0063-.4274-.0655-.666-.0655-.1042-.0013-.2068.0021-.3098 0-.2386 0-.4414.0592-.6658.0655-.2247-.0063-.4282-.0655-.6669-.0655-.1032-.0013-.2065.0021-.3087 0-.2386 0-.4425.0592-.667.0655-.2245-.0063-.4284-.0655-.6669-.0655-.1037-.0013-.2072.0021-.3098 0-.2386 0-.4416.0592-.6659.0655-.2244-.0063-.4274-.0655-.6659-.0655-.1039-.0013-.2063.0021-.3087 0-.2388 0-.4422.0592-.667.0655-.2245-.0063-.4283-.0655-.6669-.0655-.1037-.0013-.2075.0021-.3099 0"/><path fill="url(#n)" d="M29.0715 23.107c-.2385 0-.4417.0591-.666.0655-.0835-.0023-.1192-.0131-.1998-.0244l-.0338.0589.0586.0048h.3087c.2385 0 .4403-.059.6647-.0654.2245.0063.4282.0654.667.0654h.3087c.2385 0 .4424-.0591.6669-.0654.2247.0063.4299.0654.6684.0654h.3085c.2385 0 .4416-.0591.6659-.0654.2245.0063.4272.0654.6658.0654h.3098c.2386 0 .4423-.0591.6671-.0654.2247.0063.4284.0654.6672.0654h.3084c.2385 0 .4416-.0591.6659-.0654.2245.0063.4285.0654.667.0654h.3087l.1024.0109-.043-.0586-.1919.0084c-.2245-.0064-.4274-.0655-.666-.0655-.1042-.0014-.2068.0021-.3098 0-.2386 0-.4414.0591-.6658.0655-.2247-.0063-.4282-.0655-.6669-.0655-.1032-.0014-.2065.0021-.3087 0-.2386 0-.4425.0591-.667.0655-.2245-.0064-.4284-.0655-.6669-.0655-.1037-.0014-.2072.0021-.3098 0-.2386 0-.4416.0591-.6659.0655-.2244-.0064-.4274-.0655-.6659-.0655-.1039-.0014-.2063.0021-.3087 0-.2388 0-.4422.0592-.667.0655-.2245-.0064-.4283-.0655-.6669-.0655-.1037-.0014-.2075.0021-.3099 0"/><path fill="url(#o)" d="M29.0715 23.0179c-.2385 0-.4417.0591-.666.0655-.0835-.0023-.0606-.0083-.1412-.0195l-.0338.0589h.3087c.2385 0 .4403-.0591.6647-.0655.2246.0064.4282.0655.667.0655h.3087c.2385 0 .4424-.0591.6669-.0655.2247.0064.4299.0655.6684.0655h.3085c.2385 0 .4416-.0591.666-.0655.2244.0064.4271.0655.6657.0655h.3099c.2386 0 .4422-.0591.667-.0655.2247.0064.4285.0655.6672.0655h.3084c.2385 0 .4416-.0591.666-.0655.2244.0064.4284.0655.6669.0655h.3087l.0399-.0056-.0352-.0469-.1372.0131c-.2245-.0064-.4274-.0655-.666-.0655-.1041-.0014-.2067.0021-.3098 0-.2386 0-.4414.0591-.6657.0655-.2248-.0063-.4283-.0655-.667-.0655-.1032-.0014-.2065.0021-.3086 0-.2386 0-.4425.0591-.6671.0655-.2245-.0064-.4284-.0655-.6669-.0655-.1037-.0014-.2072.0021-.3098 0-.2386 0-.4416.0591-.6659.0655-.2244-.0064-.4274-.0655-.6659-.0655-.1039-.0014-.2063.0021-.3087 0-.2387 0-.4422.0592-.6669.0655-.2246-.0064-.4284-.0655-.667-.0655-.1036-.0014-.2075.0021-.3099 0"/><path fill="url(#p)" d="M29.0715 22.9284c-.2385 0-.4417.0591-.666.0655-.0835-.0023-.0216-.0025-.1022-.0137l-.0338.0589.2697-.0059c.2385 0 .4403-.059.6647-.0655.2245.0064.4282.0655.667.0655h.3087c.2385 0 .4424-.0591.6669-.0655.2247.0064.4299.0655.6684.0655h.3085c.2385 0 .4416-.0591.6659-.0655.2245.0064.4272.0655.6658.0655h.3098c.2386 0 .4423-.0591.6671-.0655.2247.0064.4284.0655.6672.0655h.3084c.2385 0 .4416-.0591.6659-.0655.2245.0064.4285.0655.667.0655h.3087l-.0226-.0137-.0352-.0351-.0747.0095c-.2245-.0064-.4274-.0655-.666-.0655-.1042-.0014-.2068.0021-.3098 0-.2386 0-.4414.0591-.6658.0655-.2247-.0063-.4282-.0655-.6669-.0655-.1032-.0014-.2065.0021-.3087 0-.2386 0-.4425.0591-.667.0655-.2245-.0064-.4284-.0655-.6669-.0655-.1037-.0014-.2072.0021-.3098 0-.2386 0-.4416.0591-.6659.0655-.2244-.0064-.4274-.0655-.6659-.0655-.1039-.0014-.2063.0021-.3087 0-.2388 0-.4422.0592-.667.0655-.2245-.0064-.4283-.0655-.6669-.0655-.1037-.0014-.2075.0021-.3099 0"/><path fill="url(#q)" d="M29.0715 22.839c-.2385 0-.4417.0591-.666.0655-.0835-.0023.0292-.0069-.0514-.0181l-.0338.0589.2189-.0014c.2385 0 .4403-.0591.6647-.0655.2245.0064.4282.0655.667.0655h.3087c.2385 0 .4424-.0591.6669-.0655.2247.0064.4299.0655.6684.0655h.3085c.2385 0 .4416-.0591.6659-.0655.2245.0064.4272.0655.6658.0655h.3098c.2386 0 .4423-.0591.6671-.0655.2247.0064.4284.0655.6672.0655h.3084c.2385 0 .4416-.0591.6659-.0655.2245.0064.4285.0655.667.0655l.2392.0053-.0195-.0312-.0157-.0352-.0278.0217c-.2245-.0064-.4274-.0655-.666-.0655-.1042-.0014-.2068.0021-.3098 0-.2386 0-.4414.0591-.6658.0655-.2247-.0063-.4282-.0655-.6669-.0655-.1032-.0014-.2065.0021-.3087 0-.2386 0-.4425.0591-.667.0655-.2245-.0064-.4284-.0655-.6669-.0655-.1037-.0014-.2072.0021-.3098 0-.2386 0-.4416.0591-.6659.0655-.2244-.0064-.4274-.0655-.6659-.0655-.1039-.0014-.2063.0021-.3087 0-.2388 0-.4422.0592-.667.0655-.2245-.0064-.4283-.0655-.6669-.0655-.1037-.0014-.2075.0021-.3099 0"/><path fill="url(#r)" d="M29.0715 22.75c-.2385 0-.4417.0591-.666.0655-.0835-.0023.0878.0001.0072-.0111l-.0338.0589.1603-.0085c.2385 0 .4403-.059.6647-.0654.2246.0063.4282.0654.667.0654h.3087c.2385 0 .4424-.0591.6669-.0654.2247.0063.4299.0654.6684.0654h.3085c.2385 0 .4416-.0591.666-.0654.2244.0063.4271.0654.6657.0654h.3099c.2386 0 .4422-.0591.667-.0654.2247.0063.4285.0654.6672.0654h.3084c.2385 0 .4416-.0591.666-.0654.2244.0063.4284.0654.6669.0654l.1611.0163.039-.0234-.0429-.0469.019.0147c-.2245-.0064-.4274-.0655-.666-.0655-.1041-.0014-.2067.0021-.3098 0-.2386 0-.4414.0591-.6657.0655-.2248-.0063-.4283-.0655-.667-.0655-.1032-.0014-.2065.0021-.3086 0-.2386 0-.4425.0591-.6671.0655-.2245-.0064-.4284-.0655-.6669-.0655-.1037-.0014-.2072.0021-.3098 0-.2386 0-.4416.0591-.6659.0655-.2244-.0064-.4274-.0655-.6659-.0655-.1039-.0014-.2063.0021-.3087 0-.2387 0-.4422.0592-.6669.0655-.2246-.0064-.4284-.0655-.667-.0655-.1036-.0014-.2075.0021-.3099 0"/><path fill="url(#s)" d="M29.0715 22.6608c-.2385 0-.4417.0591-.666.0655-.0835-.0023.1495-.0213.0689-.0325l-.0338.0589.0047.0168.0939-.0039c.2385 0 .4403-.059.6647-.0654.2245.0063.4282.0654.667.0654h.3087c.2385 0 .4424-.0591.6669-.0654.2247.0063.4299.0654.6684.0654h.3085c.2385 0 .4416-.0591.6659-.0654.2245.0063.4272.0654.6658.0654h.3098c.2386 0 .4423-.0591.6671-.0654.2247.0063.4284.0654.6672.0654h.3084c.2385 0 .4416-.0591.6659-.0654.2245.0063.4285.0654.667.0654l.1415.0039-.0234-.0117-.0078-.0351c-.2245-.0064-.3615-.0619-.6001-.0619-.1042-.0014-.2068.0021-.3098 0-.2386 0-.4414.0591-.6658.0655-.2247-.0063-.4282-.0655-.6669-.0655-.1032-.0014-.2065.0021-.3087 0-.2386 0-.4425.0591-.667.0655-.2245-.0064-.4284-.0655-.6669-.0655-.1037-.0014-.2072.0021-.3098 0-.2386 0-.4416.0591-.6659.0655-.2244-.0064-.4274-.0655-.6659-.0655-.1039-.0014-.2063.0021-.3087 0-.2388 0-.4422.0592-.667.0655-.2245-.0064-.4283-.0655-.6669-.0655-.1037-.0014-.2075.0021-.3099 0"/><path fill="url(#t)" d="M29.0715 22.5714c-.2385 0-.3355.0628-.5598.0692-.0835-.0023.0771.0055-.0035-.0057l-.0338.0589.0648-.0175c.2385 0 .4403-.0591.6647-.0655.2245.0064.4282.0655.667.0655h.3087c.2385 0 .4424-.0591.6669-.0655.2247.0064.4299.0655.6684.0655h.3085c.2385 0 .4416-.0591.6659-.0655.2245.0064.4272.0655.6658.0655h.3098c.2386 0 .4423-.0591.6671-.0655.2247.0064.4284.0655.6672.0655h.3084c.2385 0 .4416-.0591.6659-.0655.2245.0064.4285.0655.667.0655l.079.0034h.0274l-.043-.0547c-.2245-.0064-.3146-.0536-.5532-.0536-.1042-.0013-.2068.0021-.3098 0-.2386 0-.4414.0591-.6658.0655-.2247-.0063-.4282-.0655-.6669-.0655-.1032-.0013-.2065.0021-.3087 0-.2386 0-.4425.0591-.667.0655-.2245-.0064-.4284-.0655-.6669-.0655-.1037-.0013-.2072.0021-.3098 0-.2386 0-.4416.0591-.6659.0655-.2244-.0064-.4274-.0655-.6659-.0655-.1039-.0013-.2063.0021-.3087 0-.2388 0-.4422.0592-.667.0655-.2245-.0064-.4283-.0655-.6669-.0655-.1037-.0013-.2075.0021-.3099 0"/><path fill="url(#u)" d="M29.0715 22.4823c-.2385 0-.2613.0465-.4856.0529-.0835-.0023.0679-.0042-.0127-.0154l-.0338.0589-.0002.0084c.2385 0 .4403-.059.6647-.0654.2246.0063.4282.0654.667.0654h.3087c.2385 0 .4424-.0591.6669-.0654.2247.0063.4299.0654.6684.0654h.3085c.2385 0 .4416-.0591.666-.0654.2244.0063.4271.0654.6657.0654h.3099c.2386 0 .4422-.0591.667-.0654.2247.0063.4285.0654.6672.0654h.3084c.2385 0 .4416-.0591.666-.0654.2244.0063.4284.0654.6669.0654l.0322-.0012.0078-.0312-.0157-.0117c-.2245-.0064-.2755-.0607-.5141-.0607-.1041-.0014-.2067.0021-.3098 0-.2386 0-.4414.0591-.6657.0655-.2248-.0063-.4283-.0655-.667-.0655-.1032-.0014-.2065.0021-.3086 0-.2386 0-.4425.0591-.6671.0655-.2245-.0064-.4284-.0655-.6669-.0655-.1037-.0014-.2072.0021-.3098 0-.2386 0-.4416.0591-.6659.0655-.2244-.0064-.4274-.0655-.6659-.0655-.1039-.0014-.2063.0021-.3087 0-.2387 0-.4422.0592-.6669.0655-.2246-.0064-.4284-.0655-.667-.0655-.1036-.0014-.2075.0021-.3099 0"/><path fill="url(#v)" d="M34.6135 20.5836c-.118 0-.1541.0597-.1541.0597-.1887.7329-.8146 1.4783-1.5593 1.4783h-.5576v.7461h4.2445l-.4269-.759c-.6698-.1004-1.2172-.7881-1.3915-1.4654 0 0-.0372-.0597-.1551-.0597"/><path fill="#97c924" d="M34.6135 20.6128c-.0541 0-.0869.0125-.1061.0246-.0182.0114-.0217.0191-.0222.0199 0 .0005-.001.0007-.0012.0012-.0966.3688-.3003.7393-.575 1.0191-.2769.282-.6259.4733-1.0078.4733h-.5295v.6875h4.199l-.3919-.697c-.3234-.0424-.6192-.2191-.8596-.4638-.2751-.2798-.4783-.6503-.5751-1.0191l-.0011-.0012c-.0005-.0008-.0049-.0072-.0234-.0187-.0195-.0122-.052-.0258-.1061-.0258"/><path fill="#ede71f" d="M34.6134 20.6128c.0102 0 .0194.0014.028.0023v.7485c-.002.1622-.0572.2926-.1388.4463-.0377.1077-.068.0668-.1621.198-.1263.0453-.2199.063-.3546.0843-.1736.0275-.5603.0519-.7512.0094.2513-.074.4803-.2266.6742-.4241a2.1 2.1 0 0 0 .147-.1663 2.3 2.3 0 0 0 .2077-.3104 2.4 2.4 0 0 0 .0688-.1312 2.3 2.3 0 0 0 .0862-.2037 2 2 0 0 0 .0655-.2074c.0001-.0005.001-.0007.0011-.0012 0-.0005.004-.0085.0221-.0199a.16.16 0 0 1 .0397-.0164h.0012a.24.24 0 0 1 .0652-.0082"/><path fill="#c6cb24" d="M34.5657 20.7123c-.0285.4182-.1572.9142-.4585 1.2342-.1109.0926-.2525.1767-.3895.1562.4671-.3818.751-.9664.848-1.3904"/><path fill="#9ecb34" d="M34.19 21.4315c-.0691.1886-.3303.4675-.6099.6961-.0794.0024-.1215.007-.1935.0026.1703-.0156.5672-.3522.8034-.6987"/><path fill="url(#w)" d="M33.555 20.5836c-.1179 0-.154.0597-.154.0597-.1888.7329-.8147 1.4783-1.5594 1.4783h-.5575v.7461h4.2444l-.4269-.759c-.6698-.1004-1.2171-.7881-1.3914-1.4654 0 0-.0372-.0597-.1552-.0597"/><path fill="#97c924" d="M33.5549 20.6128c-.0541 0-.0869.0125-.1061.0246-.0182.0114-.0217.0191-.0222.0199 0 .0005-.001.0007-.0012.0012-.0966.3688-.3003.7393-.575 1.0191-.2769.282-.6259.4733-1.0078.4733h-.5295v.6875h4.199l-.3919-.697c-.3234-.0424-.6192-.2191-.8596-.4638-.2751-.2798-.4783-.6503-.5751-1.0191l-.0011-.0012c-.0005-.0008-.0049-.0072-.0234-.0187-.0195-.0122-.052-.0258-.1061-.0258"/><path fill="#ede71f" d="M33.5548 20.6128c.0102 0 .0194.0014.0281.0023v.7485c-.002.1622-.0573.2926-.1389.4463-.0377.1077-.068.0668-.1621.198-.1263.0453-.2199.063-.3545.0843-.1737.0275-.5604.0519-.7513.0094.2513-.074.4804-.2266.6742-.4241a2.1 2.1 0 0 0 .147-.1663 2.3 2.3 0 0 0 .2077-.3104 2.4 2.4 0 0 0 .0688-.1312 2.4 2.4 0 0 0 .1108-.2729 2.3 2.3 0 0 0 .0409-.1382c.0001-.0005.001-.0007.0011-.0012 0-.0005.004-.0085.0221-.0199a.16.16 0 0 1 .0397-.0164h.0012a.24.24 0 0 1 .0652-.0082"/><path fill="#c6cb24" d="M33.5071 20.7123c-.0285.4182-.1571.9142-.4585 1.2342-.1109.0926-.2525.1767-.3895.1562.4671-.3818.751-.9664.848-1.3904"/><path fill="#9ecb34" d="M33.1316 21.4315c-.0692.1886-.3304.4675-.61.6961-.0793.0024-.1214.007-.1935.0026.1703-.0156.5673-.3522.8035-.6987"/><path fill="url(#x)" d="M32.653 20.6437c.1887.7328.8135 1.4783 1.5582 1.4783h.5582v.7462h-4.5411l-.0011-.7462h.5569c.7447 0 1.3706-.7455 1.5594-1.4783 0 0 .0369-.06.1548-.06s.1548.06.1548.06z"/><path fill="#97c924" d="M32.4983 20.6128c.0541 0 .0866.0136.1061.0258.0186.0115.0229.0179.0234.0187l.0012.0012c.0966.3688.3.7393.5749 1.0191.2772.282.627.4733 1.009.4733h.5272v.6875h-4.4836v-.6876h.5295c.382 0 .731-.1913 1.0078-.4733.2747-.2797.4784-.6502.575-1.019.0002-.0005.0011-.0007.0012-.0012.0004-.0008.0039-.0085.0221-.0199.0193-.0121.0521-.0246.1062-.0246"/><path fill="#ede71f" d="M32.4491 20.6173a.2.2 0 0 0-.0167.0038h-.0012a.15.15 0 0 0-.0395.0164c-.0182.0114-.0217.019-.0221.0198-.0002.0004-.0011.0007-.0012.0012l-.0409.1384-.0246.0689-.0862.2039a2.4 2.4 0 0 1-.0688.1312 2.3 2.3 0 0 1-.2077.3102 2.1 2.1 0 0 1-.147.1666c-.1939.1975-.4228.3499-.6741.4238.1908.0427.2782-.0038.4519-.0314.1347-.0214.2905-.039.417-.0844.0941-.1312.062-.09.0998-.1977.0815-.1537.2005-.2926.23-.463.1117-.2094.1313-.5969.1313-.7077"/><path fill="#c6cb24" d="M32.4499 20.7124c-.0284.4181-.1571.9141-.4584 1.2341-.1108.0927-.2525.1767-.3896.1563.4672-.3818.7511-.9665.848-1.3904"/><path fill="#9ecb34" d="M32.0744 21.4316c-.0691.1886-.3303.4676-.6099.6961-.0794.0024-.1215.007-.1935.0026.1702-.0156.5673-.3522.8034-.6987"/><path fill="#ede71f" d="M32.5656 20.6211h.0012a.16.16 0 0 1 .0394.0163c.0183.0115.0218.019.0222.0199.0001.0004.0011.0007.0012.0012l.0409.1383.0246.069.0862.2038.0689.1314a2.34 2.34 0 0 0 .2076.3102q.0692.0871.147.1664c.1939.1975.4229.3773.674.4513-.4999.0019-.7168-.0437-.8985-.2783s-.2488-.3373-.2857-.4807c-.0368-.1434-.1398-.4553-.129-.7488"/><path fill="#c6cb24" d="M32.6018 20.7124c.0284.4181.1532.832.4545 1.152.1109.0927.2525.1767.3896.1563-.5061-.3466-.7472-.8844-.8441-1.3083"/><path fill="url(#y)" d="M31.4477 20.5836c-.118 0-.1551.0597-.1551.0597-.1741.6754-.816 1.5465-1.4833 1.65l-.3305.5744h3.382v-.7863c-.6089-.1643-1.0964-.8059-1.2591-1.4381 0 0-.0361-.0597-.154-.0597"/><path fill="#97c924" d="M31.4476 20.6128c-.0541 0-.0866.0136-.1061.0258-.0186.0115-.0229.0179-.0233.0187l-.0012.0012c-.0967.3688-.3228.7418-.5575 1.0387s-.6707.5971-.9689.6289l-.2955.5123h3.3162v-.741c-.2453-.0756-.4692-.2264-.6591-.4199-.2748-.2797-.4785-.6502-.5751-1.019-.0001-.0005-.001-.0007-.0011-.0012-.0005-.0008-.0041-.0085-.0222-.0199-.0193-.0121-.0521-.0246-.1062-.0246"/><path fill="#93bc30" d="M31.3576 20.7124c-.0425.6266-.39 1.4174-.7824 1.5536-.128.0443-.3519.0599-.4297.0698.6864-.3278 1.0921-1.0985 1.2121-1.6234"/><path fill="#ede71f" d="M31.4474 20.6127c-.0101 0-.0193.0015-.028.0024v.7484c.0021.1622.0574.2927.1389.4464a.3.3 0 0 0 .014.0339c.0283.0753.0492.1014.1574.1839.3441.2625.7708.3017 1.0218.28-.0787-.0622-.1627-.1188-.2368-.171.1181-.0038.2312-.0173.3114-.0352-.2511-.0739-.4802-.2266-.6741-.424a2 2 0 0 1-.0968-.1077l-.0408-.0563c-.0772-.097-.1562-.2042-.2171-.3127a2.4 2.4 0 0 1-.0687-.1313 2.4 2.4 0 0 1-.1109-.2729 2.2 2.2 0 0 1-.0408-.1382c-.0001-.0004-.001-.0007-.0012-.0012s-.0039-.0084-.0221-.0199a.16.16 0 0 0-.0397-.0164h-.0012a.25.25 0 0 0-.0653-.0082"/><path fill="#ccd11e" d="M31.4957 20.7123c.0285.4182.1571.9142.4585 1.2342.1108.0926.2525.1767.3895.1562-.4671-.3818-.7511-.9664-.848-1.3904"/><path fill="#9ecb34" d="M31.7832 21.2906c.1635.4045.5775.7823 1.0035 1.0362.0793.0024.1029.0002.175-.0041-.3049-.1643-.7962-.3988-1.1785-1.0321"/><path fill="url(#z)" d="M30.383 20.5836c-.118 0-.1551.0598-.1551.0598-.1741.6754-.816 1.5465-1.4833 1.6499l-.3305.5745h3.382v-.7864c-.6089-.1643-1.0964-.8059-1.2591-1.438 0 0-.0361-.0598-.154-.0598"/><path fill="#97c924" d="M30.3829 20.6128c-.0541 0-.0866.0136-.1061.0258-.0186.0115-.0229.0179-.0233.0187l-.0012.0012c-.0967.3688-.3228.7418-.5575 1.0387s-.6707.5971-.9689.6289l-.2955.5123h3.3162v-.741c-.2453-.0756-.4692-.2264-.6591-.4199-.2748-.2797-.4785-.6502-.5751-1.019-.0001-.0005-.001-.0007-.0011-.0012-.0005-.0008-.004-.0085-.0222-.0199-.0193-.0121-.0521-.0246-.1062-.0246"/><path fill="#93bc30" d="M30.2929 20.7125c-.0425.6266-.39 1.4173-.7824 1.5536-.128.0443-.3519.0598-.4297.0698.6864-.3278 1.0921-1.0985 1.2121-1.6234"/><path fill="#ede71f" d="M30.3828 20.6128c-.0102 0-.0194.0015-.0281.0024v.7484c.0021.1622.0574.2926.1389.4463a.3.3 0 0 0 .014.034c.0283.0752.0492.1014.1574.1839.3441.2624.7708.3016 1.0218.28-.0787-.0623-.1627-.1189-.2368-.171.1181-.0039.2312-.0173.3114-.0352-.2511-.0739-.4802-.2266-.6741-.4241a2 2 0 0 1-.0968-.1077l-.0408-.0562c-.0772-.097-.1562-.2042-.2171-.3128a2.4 2.4 0 0 1-.0687-.1312 2.4 2.4 0 0 1-.1109-.2729 2.2 2.2 0 0 1-.0408-.1382c-.0001-.0004-.001-.0007-.0012-.0012s-.0039-.0085-.0221-.0199a.15.15 0 0 0-.0397-.0164h-.0012a.25.25 0 0 0-.0652-.0082"/><path fill="#c6cb24" d="M30.431 20.7124c.0285.4181.1571.9141.4585 1.2341.1108.0927.2525.1767.3895.1563-.4671-.3818-.7511-.9665-.848-1.3904"/><path fill="#9ecb34" d="M30.7185 21.2906c.1635.4045.5775.7824 1.0035 1.0363.0793.0024.1029.0002.175-.0042-.3049-.1643-.7962-.3987-1.1785-1.0321"/><path fill="#510000" d="M32.5273 19.9662c-.0445-.0086-.0846-.0335-.1225-.0422-.0522.0502-.0576.1009-.0505.1441.0181.0097.0214.0244.0606.0596s.0343.0535.0319.1361c-.001.0349.0048.1096.04.1166.0378.0076.0643-.024.0752-.0804.0105-.0547.0287-.0842.0481-.1179.0211-.1284-.0133-.1738-.0828-.2159"/><path fill="red" d="M32.3046 19.6468c-.041.001-.1054.0701-.1341.0329-.0165-.0214-.0192-.0625-.0025-.097.0386-.0798.0775-.1189.1495-.1615.1641-.0971.2684-.0658.3501.0737.0758.1228.1485.2584.155.3722.0021.0347.0195.0975-.0108.1288-.093.0964-.3171-.0994-.4483-.0684-.0441.0104-.095.0427-.1366.0151-.0324-.0215-.0054-.0691.0188-.0897.0422-.036.1036-.1639.0952-.2193-.0046-.0309-.0055.0124-.0363.0132"/><path fill="url(#A)" d="M32.2879 19.5791c-.0747.0309-.0667.0746-.1042.1102.0106.004.0529.0215.0941-.0209.0178-.0148.0378-.0203.0467-.025-.021.0153-.0361.0383-.0472.0473a.36.36 0 0 0-.0924.128c-.0211.0528-.0297.1159-.026.1234.0038.0076.0294.0541.1081.0854.1401.0559.1668.169.3089.169.1114 0 .0935-.0731.1826-.0576.0772.0134.1182-.0482.0439-.0854-.0946-.0324-.2824-.0133-.3707.0023-.0286-.2829-.0039-.1836-.0105-.3052s-.043-.1289.005-.2274c-.0399.0604-.0881.0509-.1383.0559"/><path fill="#ff2a2a" d="M32.5647 19.3884c-.0028.0155-.0053.0358-.0039.0416l.0192.0689c.008.0233.0112.0402.0166.0643.0056.0249.0277.0346.0479.05.0255.0194.0058.0719.0217.0741.0127.0017.0337-.0743.0338-.0864a.3.3 0 0 0-.0025-.0448 1 1 0 0 0-.0294-.0605.3.3 0 0 0-.014-.0233.3.3 0 0 0-.0543-.0598l-.0038-.0033-.0179-.0129z"/><path fill="url(#B)" d="M32.5862 19.9152c-.0496-.013-.0984-.0376-.1406-.0502-.0828-.0249-.1711-.0786-.2322-.0564-.0219.0097-.02.0316-.0269.0631-.0029.0369-.0412.0914-.0094.0735.0472-.0265.1718.0508.2135.0767.0198.0122.0616.0363.0747.0708s.0063.1217.0028.1591c-.0036.0392.0082.1272.0474.1377.0421.0113.0743-.0224.0908-.0852.0158-.0611.0279-.0962.0522-.1327s.0522-.0524.0911-.0598c.0389-.0075.0953.032.0953-.0141 0-.0303-.0265-.0593-.0151-.1008.0088-.0327-.0278-.0262-.0581-.0396-.0715-.0221-.136-.0291-.1855-.0421"/><path fill="#910000" d="M32.3871 20.0195c-.0226-.0124-.1598-.1025-.21-.0743-.0159.0089-.0219-.0011-.0221-.0178s.0076-.0411.0127-.06c.0052-.0188.0135-.0549.0356-.0736.0474-.0402.1566.0399.2145.0614z"/><path fill="#ff3a3a" d="M32.6217 20.1899c.0632-.1111.104-.0968.1803-.0952.0254.0005.0329-.0228.0271-.0462-.0192.0432-.1147-.0049-.1667.0182-.1085.0479-.0883.2612-.1398.282.0535.0451.0775-.121.0991-.1588"/><path fill="#c8a400" d="m26.29 20.7419.6886.0462.0068-.101-.2709-.0181.021-.3334.2871-.209.0086-.1281-.3028.2208c-.0102-.0719-.0498-.146-.1218-.171-.063-.0229-.1402-.0269-.1948.0183-.0692.0512-.0817.1427-.0906.2223zm.1049-.0944.0242-.3405c.0085-.056.0187-.1207.0676-.1564.0441-.0294.1093-.0075.1274.0426.036.0864.02.1817.0154.2723l-.0132.1969zm-.0152-.9674.6719.1576.1527-.6568-.0954-.0224-.13.5587-.2045-.048.117-.5035-.095-.0222-.117.5035-.181-.0425.125-.5377-.0959-.0225zm.242-.9062.6517.2277.0331-.0956-.2563-.0896.1009-.2968c.0221-.0816.0391-.1769-.0087-.2528a.212.212 0 0 0-.176-.0898c-.075.0032-.1362.0587-.1696.123-.0492.093-.0768.1953-.1127.2938zm.1259-.0631.1042-.2948c.0235-.0519.0521-.1135.1116-.13.0489-.0113.1001.0265.1044.0768.0119.0926-.0284.18-.0566.2659l-.0539.1553zm.2341-.775.3683.2153c.0697.0376.158.0591.231.017.0993-.0553.1616-.1574.2104-.2569.0386-.0839.0665-.188.0174-.2738-.0528-.0855-.1488-.1249-.2307-.176l-.2385-.1401-.0506.0869.3509.2069c.0557.0341.1018.0957.0922.1642-.0111.0816-.0575.1532-.1037.2192-.0383.0534-.1024.0966-.1705.0822-.071-.0137-.1287-.0603-.191-.0941l-.2346-.1378zm.497-.8157.548.4211.2554-.3343c.0491-.0708.0944-.1628.0611-.2497-.0303-.0692-.1012-.1227-.1772-.1261-.0343-.0049-.079.0212-.0976.0327.0196-.0738-.0407-.1433-.1084-.1628-.0816-.0291-.1642.0234-.2183.0816-.0634.0694-.1164.1475-.1745.2214zm.139-.0207.192-.2478c.0313-.0349.0814-.0745.1299-.0488.0441.0192.055.0752.0339.1154-.0335.0721-.0887.1305-.1348.1944l-.0752.0988zm.2233.1716.1994-.2566c.0358-.0377.0809-.0852.1378-.0743.0486.0113.0839.0642.0672.1134-.0274.0907-.095.1601-.1494.2353l-.0856.1124zm.259-.8859.4738.5037.4059-.3852-.0673-.0715-.3247.308-.0082.0079-.0061-.0063-.4006-.4258zm.6075-.5338.4205.5494.0821-.0634-.4206-.5493zm.6179-.4215c-.0682.0427-.1231.0926-.1654.1508-.0424.0583-.065.1185-.0683.1817s.0135.1243.0506.1841a.355.355 0 0 0 .1363.1278.31.31 0 0 0 .1847.0342c.0669-.0075.1418-.0371.2256-.0895.0804-.0504.1373-.1083.1725-.1749a.3.3 0 0 0 .0287-.2043l-.0954.0376c.025.1384-.064.205-.1635.2684-.1559.0953-.3078.0884-.4008-.0547-.0965-.1612.009-.2945.1415-.3811.0941-.0589.1869-.0992.2752-.0428l.0747-.0668a.274.274 0 0 0-.1763-.0485c-.0699.0038-.1428.0297-.2201.078m.8154-.4086-.0723.7765.1075-.0435.0217-.2407.0004-.0002.349-.1414.182.1583.1074-.0435-.5883-.509zm.0944.0796.2294.1994-.2569.1041zm1.4179-.508.0431.6916.3736-.0246c.0978-.0113.2027-.0368.2696-.115.0863-.0961.0986-.2399.0608-.3595-.0317-.1054-.1261-.1851-.2329-.2054-.1052-.0203-.2124-.0042-.3183.0006zm.1063.092.2973-.0155a.253.253 0 0 1 .1579.0485.237.237 0 0 1 .1005.2166c-.0049.0963-.0755.1849-.1687.2093-.0533.0138-.1087.0178-.1633.0238l-.1929.0121-.0309-.4947zm.8555-.1329-.0394.6918.6705.0385.0055-.0983-.5703-.0327.012-.2106.514.0295.0055-.0978-.514-.0295.0106-.1864.549.0315.0056-.0987zm1.8015.2887-.2495.646.0888.0346.1978-.5123.0103-.0266.011.0296.2379.6873.1162.0452.2495-.646-.089-.0346-.1977.512-.01.0261-.0109-.0292-.2384-.687zm.927.3999-.3137.6172-.0922-.0473.3137-.6172zm.5205.3062c-.067-.0444-.1351-.0738-.2055-.0881s-.1344-.0098-.1929.0135q-.0877.035-.1456.123a.36.36 0 0 0-.0587.1778.31.31 0 0 0 .0462.1827c.0347.058.0927.114.175.1685.0792.0525.1553.0803.2303.0846a.296.296 0 0 0 .1968-.0591l-.0738-.0714c-.1149.0806-.2122.0272-.3112-.0372-.1511-.1026-.2083-.244-.1176-.3886.1057-.1554.2702-.1147.4039-.0298.0927.0613.1678.1291.1536.2332l.0916.0403a.277.277 0 0 0-.0297-.1812c-.0327-.0621-.0864-.1178-.1624-.1682m.6569.4977-.7213.2889.0875.0762.2233-.0901.0004.0003.2842.2478-.0575.2347.0875.0763.1834-.7579zm-.0276.1206-.0723.2959-.2092-.1823zm.5488.3608-.5324.4409.0641.0781.2094-.1734.2125.2569-.066.3499.0812.0991.0695-.3693c.0596.049.1467.0737.218.0348.0613-.0291.1152-.0851.1184-.1564.0075-.0955-.0604-.173-.1147-.2438zm-.0118.141.224.277c.0328.0491.0737.1179.0361.1752-.0311.049-.099.0447-.1408.0129-.0844-.0571-.1402-.1446-.2062-.2206l-.0844-.1028zm.8189.9618-.7757.0357.0578.1009.2404-.0118.0002.0005.1877.3275-.1309.2029.0578.1008.4205-.6556zm-.0654.105-.1649.2557-.1381-.2411zm.5081.8123c-.0431-.1176-.1111-.238-.2263-.2967-.1281-.0647-.2986-.0333-.3894.08-.0792.0943-.0832.2274-.0621.3432a.737.737 0 0 0 .1768.3593l-.0515.0186.033.0922.3232-.1166-.1257-.3506-.0746.0271.0924.2583-.1095.0395c-.0966-.0834-.1504-.2065-.1784-.329-.0208-.092-.0216-.2022.0478-.2744.0797-.0833.2209-.1092.3165-.0381.0943.0693.1476.1816.1745.2933.0183.0734.0154.1608-.0401.2181-.0155.0116.009.0279.0133.0419l.0263.0438a.244.244 0 0 0 .0927-.1938c.002-.0738-.0142-.1469-.0389-.2161m.1982.5411-.3859.0754c-.0716.014-.1253.0367-.1611.0671-.0358.0303-.0586.0729-.0696.1296-.0109.0562-.0094.125.0067.2086l.0004.002c.0163.0837.0405.148.0716.1959.0314.0485.0686.0794.1129.094.0444.0145.1028.0156.1745.0016l.3858-.0754-.0191-.0989-.3766.0736c-.1691.033-.226-.0563-.255-.2092l-.0004-.0019c-.0301-.1526-.0107-.2569.1584-.29l.3766-.0735zm.2117 1.1794-.714-.3066.0083.1161.2217.0943v.0005l.0271.377-.2056.1255.0083.116.6625-.4067zm-.1043.0659-.2593.1584-.02-.2775zm-11.7725 1.7266-.1001.0265.1107.4222.1-.0264zm11.3527 0 .1.0265-.1106.4222-.1-.0265zM27.892 23.8366l-.7714.0891.0645.0967.239-.0283.0003.0004.2097.3139-.1168.2113.0646.0967.3747-.6831zm-.0581.1092-.147.2665-.1543-.2309zm.3534.3142-.4917.4618.0657.0705.4144-.3892-.2174.6008.0752.0809.5943-.1812-.407.3823.0656.0704.4918-.4617-.0997-.1072-.6038.1812.226-.5869zm.7163.7339-.4151.5535.5366.4057.0589-.0786-.4564-.3451.1264-.1686.4112.311.0587-.0782-.4112-.311.1118-.1491.4392.3322.0594-.079zm.6751.4962-.325.6114.0889.0476.1279-.2404.2939.1562.0717.3488.1127.0604-.0759-.3679c.0738.0225.1637.0119.2148-.0513.0435-.0489.073-.1173.0522-.1829-.0242-.0903-.1128-.1376-.1875-.1814zm.0426.1348.3122.1704c.0472.0321.1072.0759.1012.1405-.0052.0567-.0661.0869-.1175.0748-.1007-.0167-.1856-.077-.2753-.1219l-.1251-.0672zm.7368.2744-.2608.6416.0959.0393.2607-.6416zm.6222.2159c-.0762-.0254-.1495-.036-.2212-.0315q-.107.0067-.1828.0634-.0757.0566-.1087.1566a.36.36 0 0 0-.0108.1871.31.31 0 0 0 .0918.1644c.0485.0469.119.0859.2126.1171.09.0299.1708.037.2443.0215a.297.297 0 0 0 .1748-.1083l-.0897-.0497c-.0901.1078-.1979.0816-.3102.0452-.1725-.0596-.2642-.1813-.2141-.3446.0619-.1776.2314-.1812.3824-.1341.1053.0351.1954.0809.2086.1852l.0989.015a.276.276 0 0 0-.0755-.1672c-.0476-.0514-.1139-.0913-.2004-.1201m.6937.156-.4512.6347.1147.0166.1393-.1971h.0005l.3724.0542.078.2287.1147.0166-.2537-.7371zm.0418.1164.0984.2882-.2742-.0398zm1.5757-.1115c-.0789.0152-.148.042-.2083.0812q-.0903.0586-.1285.1451-.0384.0866-.0184.1901a.357.357 0 0 0 .0817.1684.31.31 0 0 0 .1602.0983q.0972.0256.2425-.0024c.093-.018.1668-.0517.2234-.1013a.298.298 0 0 0 .0997-.1803l-.1024.0006c-.0261.1384-.1329.1685-.2485.192-.1795.0328-.3188-.0283-.3547-.1953-.0325-.1853.1135-.2718.2682-.3049.1089-.0212.2098-.0255.2721.059l.0936-.0356a.275.275 0 0 0-.1473-.1086c-.0666-.0215-.1439-.0236-.2333-.0063m.4608-.082.1962.6643.6438-.1918-.0278-.0944-.5477.1632-.0598-.2022.4936-.1471-.0277-.0939-.4936.1471-.0528-.1789.5271-.1571-.0281-.095zm.7464-.2356.2897.6289.0863-.0402-.2415-.5245.6682.3094c.0148.0129.0296.0043.0445-.0037l.0869-.0403-.2896-.6289-.0866.0401.2412.5239-.6862-.3171zm.7577-.3574.054.0824.2465-.1628.0094-.0062.0046.0071.3206.4892.0838-.0553-.3206-.4893-.0047-.0071.0095-.0062.2478-.1638-.0541-.0824zm.6943-.4775.4676.5097.0742-.0686-.184-.2004.2437-.2272.3516.047.0939-.087-.3709-.0493c.0455-.0625.0652-.1513.0226-.2206-.0323-.0598-.0909-.1109-.162-.1102-.0953-.0021-.1686.0701-.2361.1285zm.1407.0041.2632-.2398c.0469-.0356.1131-.0804.1722-.0459.0504.0284.0499.0969.0206.1404-.0522.088-.1363.1488-.2083.2192l-.0973.0901zm.662-.8109.3086.7156.0735-.0901-.0964-.2215.0003-.0004.2383-.2925.2353.0509.0734-.0901-.7597-.1619zm.1209.0242.2967.0639-.1755.2153zm.1796-.4168.5789.377.3038-.4705-.0822-.0535-.243.3763-.0063.0097-.0073-.0048-.4893-.3187z"/><path fill="#0067c6" d="M0 0h64v14H0zm0 28h64v14H0z"/></g><defs><linearGradient id="b" x1="28" x2="43" y1="15" y2="15" gradientUnits="userSpaceOnUse"><stop stop-color="#025"/><stop offset="1" stop-color="#04a"/><stop offset="1" stop-color="#025"/></linearGradient><linearGradient id="c" x1="28" x2="43" y1="15" y2="15" gradientUnits="userSpaceOnUse"><stop stop-color="#025"/><stop offset="1" stop-color="#04a"/><stop offset="1" stop-color="#025"/></linearGradient><linearGradient id="d" x1="28" x2="43" y1="15" y2="15" gradientUnits="userSpaceOnUse"><stop stop-color="#025"/><stop offset="1" stop-color="#04a"/><stop offset="1" stop-color="#025"/></linearGradient><linearGradient id="e" x1="28" x2="43" y1="15" y2="15" gradientUnits="userSpaceOnUse"><stop stop-color="#025"/><stop offset="1" stop-color="#04a"/><stop offset="1" stop-color="#025"/></linearGradient><linearGradient id="f" x1="28" x2="43" y1="15" y2="15" gradientUnits="userSpaceOnUse"><stop stop-color="#025"/><stop offset="1" stop-color="#04a"/><stop offset="1" stop-color="#025"/></linearGradient><linearGradient id="g" x1="28" x2="43" y1="15" y2="15" gradientUnits="userSpaceOnUse"><stop stop-color="#025"/><stop offset="1" stop-color="#04a"/><stop offset="1" stop-color="#025"/></linearGradient><linearGradient id="h" x1="28" x2="43" y1="15" y2="15" gradientUnits="userSpaceOnUse"><stop stop-color="#025"/><stop offset="1" stop-color="#04a"/><stop offset="1" stop-color="#025"/></linearGradient><linearGradient id="i" x1="28" x2="43" y1="15" y2="15" gradientUnits="userSpaceOnUse"><stop stop-color="#025"/><stop offset="1" stop-color="#04a"/><stop offset="1" stop-color="#025"/></linearGradient><linearGradient id="j" x1="28" x2="43" y1="15" y2="15" gradientUnits="userSpaceOnUse"><stop stop-color="#025"/><stop offset="1" stop-color="#04a"/><stop offset="1" stop-color="#025"/></linearGradient><linearGradient id="k" x1="28" x2="43" y1="22" y2="22" gradientUnits="userSpaceOnUse"><stop stop-color="#025"/><stop offset="1" stop-color="#04a"/><stop offset="1" stop-color="#025"/></linearGradient><linearGradient id="l" x1="-5" x2="-5" y1="-91" y2="-91" gradientUnits="userSpaceOnUse"><stop stop-color="#025"/><stop offset="1" stop-color="#04a"/><stop offset="1" stop-color="#025"/></linearGradient><linearGradient id="m" x1="-2" x2="-2" y1="-1" y2="-1" gradientUnits="userSpaceOnUse"><stop stop-color="#025"/><stop offset="1" stop-color="#04a"/><stop offset="1" stop-color="#025"/></linearGradient><linearGradient id="n" x1="-2" x2="-2" y1="-1" y2="-1" gradientUnits="userSpaceOnUse"><stop stop-color="#025"/><stop offset="1" stop-color="#04a"/><stop offset="1" stop-color="#025"/></linearGradient><linearGradient id="o" x1="-2" x2="-2" y1="-1" y2="-1" gradientUnits="userSpaceOnUse"><stop stop-color="#025"/><stop offset="1" stop-color="#04a"/><stop offset="1" stop-color="#025"/></linearGradient><linearGradient id="p" x1="-2" x2="-2" y1="-1" y2="-1" gradientUnits="userSpaceOnUse"><stop stop-color="#025"/><stop offset="1" stop-color="#04a"/><stop offset="1" stop-color="#025"/></linearGradient><linearGradient id="q" x1="-2" x2="-2" y1="-1" y2="-1" gradientUnits="userSpaceOnUse"><stop stop-color="#025"/><stop offset="1" stop-color="#04a"/><stop offset="1" stop-color="#025"/></linearGradient><linearGradient id="r" x1="-2" x2="-2" y1="-1" y2="-1" gradientUnits="userSpaceOnUse"><stop stop-color="#025"/><stop offset="1" stop-color="#04a"/><stop offset="1" stop-color="#025"/></linearGradient><linearGradient id="s" x1="-2" x2="-2" y1="-1" y2="-1" gradientUnits="userSpaceOnUse"><stop stop-color="#025"/><stop offset="1" stop-color="#04a"/><stop offset="1" stop-color="#025"/></linearGradient><linearGradient id="t" x1="-2" x2="-2" y1="-1" y2="-1" gradientUnits="userSpaceOnUse"><stop stop-color="#025"/><stop offset="1" stop-color="#04a"/><stop offset="1" stop-color="#025"/></linearGradient><linearGradient id="u" x1="-2" x2="-2" y1="-1" y2="-1" gradientUnits="userSpaceOnUse"><stop stop-color="#025"/><stop offset="1" stop-color="#04a"/><stop offset="1" stop-color="#025"/></linearGradient><linearGradient id="v" x1="31" x2="31" y1="22" y2="22" gradientUnits="userSpaceOnUse"><stop stop-color="#f5f549"/><stop offset="1" stop-color="#97c924"/></linearGradient><linearGradient id="w" x1="30" x2="30" y1="22" y2="22" gradientUnits="userSpaceOnUse"><stop stop-color="#f5f549"/><stop offset="1" stop-color="#97c924"/></linearGradient><linearGradient id="x" x1="31" x2="31" y1="22" y2="22" gradientUnits="userSpaceOnUse"><stop stop-color="#f5f549"/><stop offset="1" stop-color="#97c924"/></linearGradient><linearGradient id="y" x1="31" x2="31" y1="22" y2="22" gradientUnits="userSpaceOnUse"><stop stop-color="#f5f549"/><stop offset="1" stop-color="#97c924"/></linearGradient><linearGradient id="z" x1="30" x2="30" y1="22" y2="22" gradientUnits="userSpaceOnUse"><stop stop-color="#f5f549"/><stop offset="1" stop-color="#97c924"/></linearGradient><linearGradient id="A" x1="32" x2="33" y1="20" y2="20" gradientUnits="userSpaceOnUse"><stop stop-color="#510000"/><stop offset="0" stop-color="#8a0000"/><stop offset="1" stop-color="#a00"/></linearGradient><linearGradient id="B" x1="33" x2="33" y1="20" y2="20" gradientUnits="userSpaceOnUse"><stop stop-color="#ff2a2a"/><stop offset="1" stop-color="red"/></linearGradient><clipPath id="a"><rect width="64" height="42" fill="#fff" rx="5"/></clipPath></defs></svg>