<svg xmlns="http://www.w3.org/2000/svg" width="64" height="42" fill="none" viewBox="0 0 64 42"><g clip-path="url(#a)"><rect width="64" height="42" fill="#fff" rx="5"/><path fill="#e6be53" d="M0 0h64v42H0z"/><path fill="#e01826" fill-rule="evenodd" d="M3.0294 37.1001c0 1.1597.9402 2.1 2.1 2.1h53.7412c1.1598 0 2.1-.9403 2.1-2.1001V4.9c0-1.1598-.9402-2.1-2.1-2.1H5.1294c-1.1598 0-2.1.9403-2.1 2.1z" clip-rule="evenodd"/><path fill="#e6be53" fill-rule="evenodd" d="M29.9491 7.6836c-.9874.3291-1.2832 1.5822-.5473 2.3181l.7882.7882c.2625.2626.6186.4101.9899.4101h1.6402c.3714 0 .7274-.1475.99-.4101l.7882-.7882c.7359-.7359.4401-1.989-.5473-2.318l-1.6082-.5362a1.4 1.4 0 0 0-.8855 0zm3.0407 6.7263c-.5467.5468-1.4331.5468-1.9799 0l-.41-.41-2.0865-2.0865a1.4 1.4 0 0 0-1.6161-.2623l-.1601.0801c-.8547.4274-1.0395 1.5665-.3638 2.2422l.0265.0265 2.0865 2.0865a1.4 1.4 0 0 1 .2622 1.616l-.869 1.738a.756.756 0 0 0-.0797.3377c0 .5613-.5907.9264-1.0928.6754l-.6781-.3391c-.5063-.2531-.6158-.9279-.2155-1.3281a.8294.8294 0 0 0 0-1.1728l-.653-.653a1.4 1.4 0 0 1-.2622-.3638l-1.2297-2.4594a1.4 1.4 0 0 1-.106-.2865l-.6493-2.5974c-.286-1.1436-1.7709-1.4435-2.4782-.5004l-2.1552 2.8735a1.4 1.4 0 0 0-.28.84v4.8029c0 .2173.0506.4317.1478.6261l1.1506 2.3012c.0673.1346.1558.2574.2622.3638l2.4787 2.4787c.1064.1064.2293.195.3639.2623l2.4646 1.2323a.63.63 0 0 0 .28.0661c.6607 0 .8709.8906.28 1.1861l-.3245.1622a.71.71 0 0 0-.185.1333l-.6183.6184c-.3866.3866-1.0134.3866-1.4 0s-1.0134-.3866-1.4 0l-.1136.1136a1.1505 1.1505 0 0 0-.2155 1.3281l.6421 1.2844a1.4 1.4 0 0 0 1.2522.7739h1.6043c.2173 0 .4317-.0506.6261-.1478l2.087-1.0435a1.4 1.4 0 0 0 .6261-.6261l.6347-1.2695c.2738-.5476 1.0037-.666 1.4366-.2331a.897.897 0 0 1 .1121 1.1318l-1.6155 2.4233c-.4289.6433-.2551 1.5126.3882 1.9414l2.2586 1.5057a1.4 1.4 0 0 0 1.5532.0001l2.2585-1.5058c.6433-.4288.8172-1.2981.3883-1.9414l-1.6155-2.4233a.897.897 0 0 1 .1121-1.1318c.4329-.4329 1.1627-.3145 1.4365.2331l.6348 1.2695c.1354.2709.3551.4906.6261.6261l2.087 1.0435c.1944.0972.4087.1478.6261.1478h1.6042a1.4 1.4 0 0 0 1.2522-.7739l.6422-1.2844a1.1505 1.1505 0 0 0-.2155-1.3281l-.1136-.1136c-.3866-.3866-1.0134-.3866-1.4 0s-1.0134.3866-1.4 0l-.6184-.6184a.71.71 0 0 0-.1849-.1333l-.3245-.1622c-.5909-.2955-.3807-1.1861.28-1.1861a.63.63 0 0 0 .28-.0661l2.4646-1.2323a1.4 1.4 0 0 0 .3638-.2623l2.4787-2.4787a1.4 1.4 0 0 0 .2623-.3638l1.1506-2.3012a1.4 1.4 0 0 0 .1478-.6261v-4.8029c0-.3029-.0983-.5976-.28-.84l-2.1552-2.8735c-.7073-.9431-2.1923-.6432-2.4782.5004l-.6493 2.5974a1.4 1.4 0 0 1-.106.2865l-1.2297 2.4594a1.4 1.4 0 0 1-.2623.3638l-.6529.653a.829.829 0 0 0 0 1.1728c.4002.4002.2907 1.075-.2155 1.3281l-.6782.3391c-.502.251-1.0927-.1141-1.0927-.6754a.756.756 0 0 0-.0797-.3377l-.8691-1.738a1.4 1.4 0 0 1 .2623-1.616l2.0865-2.0865.0265-.0266c.6757-.6756.4908-1.8147-.3639-2.2421l-.1601-.0801a1.4 1.4 0 0 0-1.616.2623l-2.0865 2.0865z" clip-rule="evenodd"/><circle cx="32" cy="23" r="3" fill="#215f90"/></g><defs><clipPath id="a"><rect width="64" height="42" fill="#fff" rx="5"/></clipPath></defs></svg>