<svg width="64" height="42" viewBox="0 0 64 42" fill="none" xmlns="http://www.w3.org/2000/svg">
<g clip-path="url(#clip0_37941_2204)">
<rect width="64" height="42" rx="5" fill="white"/>
<path d="M0 0H64V42H0V0Z" fill="#009440"/>
<path d="M7.1001 21.1539L32.0001 37.1704L56.9001 21.1539L32.0001 5.13745L7.1001 21.1539Z" fill="#FFCB00"/>
<path d="M32 31.7308C37.799 31.7308 42.5 26.9953 42.5 21.1538C42.5 15.3124 37.799 10.5769 32 10.5769C26.201 10.5769 21.5 15.3124 21.5 21.1538C21.5 26.9953 26.201 31.7308 32 31.7308Z" fill="#302681"/>
<path d="M21.8335 18.4988C23.1999 18.2562 24.5936 18.1318 25.9999 18.1318C31.9296 18.1318 37.633 20.3423 42.0245 24.3101C42.1921 23.7694 42.3177 23.2101 42.3977 22.636C37.8226 18.7659 32.021 16.6208 25.9999 16.6208C24.7859 16.6208 23.5808 16.7081 22.3928 16.879C22.1648 17.3983 21.977 17.9396 21.8335 18.4988Z" fill="white"/>
<path fill-rule="evenodd" clip-rule="evenodd" d="M23.0446 18.062C23.163 18.0474 23.2702 17.9807 23.3426 17.8766C23.4149 17.7724 23.4465 17.6395 23.4303 17.5069C23.4141 17.3743 23.3516 17.253 23.2564 17.1696C23.1612 17.0862 23.0412 17.0476 22.9227 17.0622C22.8043 17.0769 22.6971 17.1436 22.6247 17.2477C22.5524 17.3518 22.5208 17.4848 22.537 17.6174C22.5532 17.75 22.6157 17.8713 22.7109 17.9547C22.8061 18.0381 22.9261 18.0767 23.0446 18.062ZM23.022 17.8764C23.0915 17.8678 23.1542 17.8264 23.1962 17.7614C23.2382 17.6964 23.2561 17.613 23.246 17.5297C23.2358 17.4463 23.1984 17.3698 23.1421 17.317C23.0857 17.2641 23.0149 17.2393 22.9454 17.2479C22.8758 17.2565 22.8131 17.2979 22.7711 17.3629C22.7291 17.4279 22.7112 17.5112 22.7213 17.5946C22.7315 17.6779 22.7689 17.7544 22.8253 17.8073C22.8816 17.8601 22.9524 17.885 23.022 17.8764Z" fill="#009440"/>
<path fill-rule="evenodd" clip-rule="evenodd" d="M23.8591 17.971L24.0444 17.9579L24.0187 17.5848L24.4179 17.5565C24.5011 17.5506 24.5786 17.5117 24.6334 17.4483C24.6881 17.3849 24.7156 17.3023 24.7098 17.2186C24.7041 17.1348 24.6655 17.0569 24.6026 17.0019C24.5397 16.9468 24.4576 16.9192 24.3744 16.9251L23.8041 16.9655L23.8591 17.971ZM24.0058 17.3982L24.3908 17.371C24.4248 17.3685 24.4565 17.3526 24.4789 17.3267C24.5013 17.3008 24.5126 17.267 24.5102 17.2327C24.5079 17.1985 24.4921 17.1666 24.4663 17.1441C24.4406 17.1215 24.407 17.1103 24.373 17.1127L23.988 17.14L24.0058 17.3982Z" fill="#009440"/>
<path d="M24.7073 17.9112C24.6974 17.7677 24.6757 17.4521 24.4618 17.4672L24.1909 17.4864C24.5046 17.4642 24.5264 17.7798 24.5363 17.9233" fill="#009440"/>
<path fill-rule="evenodd" clip-rule="evenodd" d="M25.1268 17.8914L25.5982 17.8831C25.6545 17.8821 25.71 17.87 25.7616 17.8474C25.8132 17.8248 25.8599 17.7921 25.899 17.7513C25.9381 17.7106 25.9688 17.6624 25.9895 17.6097C26.0101 17.5569 26.0202 17.5006 26.0192 17.4439L26.0167 17.3C26.0157 17.2434 26.0037 17.1874 25.9812 17.1354C25.9588 17.0834 25.9264 17.0364 25.8859 16.997C25.8454 16.9576 25.7976 16.9267 25.7453 16.9059C25.6929 16.8851 25.637 16.8749 25.5807 16.8759L25.1094 16.8842L25.1268 17.8914ZM25.3093 17.7011L25.5807 17.6963C25.6526 17.695 25.7212 17.665 25.7712 17.6129C25.8212 17.5607 25.8486 17.4907 25.8473 17.4182L25.8458 17.3318C25.8446 17.2593 25.8148 17.1903 25.763 17.1399C25.7112 17.0895 25.6417 17.062 25.5697 17.0632L25.2983 17.068L25.3093 17.7011Z" fill="#009440"/>
<path d="M26.3965 17.879L27.2959 17.9107L27.3024 17.7237L26.5743 17.6981L26.5833 17.4392L27.1544 17.4593L27.1603 17.2867L26.5893 17.2666L26.5962 17.0653L27.2815 17.0894L27.288 16.9024L26.4314 16.8723L26.3965 17.879Z" fill="#009440"/>
<path d="M27.665 17.9333L27.8358 17.9483L27.8956 17.2602L28.0351 17.9659L28.1916 17.9797L28.4506 17.3091L28.3908 17.9972L28.5616 18.0123L28.6488 17.0088L28.3997 16.9868L28.1407 17.6574L28.0012 16.9517L27.7522 16.9298L27.665 17.9333Z" fill="#009440"/>
<path d="M29.737 18.1686L30.4762 18.2966L30.5052 18.1264L29.935 18.0277L29.9737 17.8008L30.4383 17.8812L30.4673 17.711L30.0027 17.6306L30.0293 17.4746L30.5819 17.5702L30.611 17.4L29.8894 17.2751L29.737 18.1686Z" fill="#009440"/>
<path fill-rule="evenodd" clip-rule="evenodd" d="M31.6361 18.5445L31.8159 18.5914L31.9089 18.2291L32.2962 18.33C32.3768 18.351 32.4625 18.3389 32.5344 18.2963C32.6062 18.2537 32.6582 18.1841 32.6791 18.1028C32.7 18.0215 32.6879 17.9352 32.6456 17.8628C32.6033 17.7905 32.5342 17.738 32.4535 17.717L31.9003 17.5729L31.6361 18.5445ZM31.9554 18.048L32.3288 18.1453C32.3618 18.1539 32.3969 18.1489 32.4263 18.1315C32.4556 18.1141 32.4769 18.0856 32.4855 18.0523C32.494 18.0191 32.4891 17.9838 32.4718 17.9542C32.4545 17.9246 32.4262 17.9031 32.3932 17.8945L32.0198 17.7972L31.9554 18.048Z" fill="#009440"/>
<path fill-rule="evenodd" clip-rule="evenodd" d="M32.863 18.8729L33.0404 18.9295L33.1516 18.5731L33.5336 18.6948C33.6133 18.7202 33.6995 18.7128 33.7735 18.6741C33.8474 18.6355 33.903 18.5689 33.9279 18.4889C33.9529 18.409 33.9452 18.3222 33.9065 18.2477C33.8679 18.1732 33.8014 18.1171 33.7218 18.0918L33.176 17.9179L32.863 18.8729ZM33.2072 18.3949L33.5756 18.5123C33.6082 18.5227 33.6435 18.5196 33.6737 18.5038C33.704 18.488 33.7267 18.4608 33.7369 18.4281C33.7471 18.3954 33.744 18.3599 33.7281 18.3294C33.7123 18.2989 33.6852 18.276 33.6526 18.2656L33.2841 18.1482L33.2072 18.3949Z" fill="#009440"/>
<path d="M33.6742 19.1316C33.717 18.9946 33.811 18.6931 33.6064 18.6279L33.3472 18.5453C33.6473 18.6409 33.5532 18.9424 33.5105 19.0795" fill="#009440"/>
<path fill-rule="evenodd" clip-rule="evenodd" d="M34.4924 19.4269C34.6042 19.469 34.7299 19.4596 34.8418 19.4009C34.9537 19.3422 35.0426 19.239 35.089 19.1138C35.1355 18.9887 35.1356 18.852 35.0894 18.7338C35.0432 18.6155 34.9544 18.5254 34.8426 18.4833C34.7309 18.4412 34.6052 18.4506 34.4933 18.5093C34.3814 18.568 34.2925 18.6712 34.246 18.7964C34.1996 18.9215 34.1995 19.0582 34.2457 19.1764C34.2919 19.2947 34.3806 19.3848 34.4924 19.4269ZM34.5575 19.2516C34.6231 19.2764 34.6977 19.2688 34.7648 19.2307C34.8318 19.1926 34.8859 19.127 34.9151 19.0483C34.9443 18.9697 34.9462 18.8844 34.9204 18.8113C34.8946 18.7382 34.8433 18.6833 34.7776 18.6586C34.712 18.6338 34.6374 18.6414 34.5703 18.6795C34.5033 18.7176 34.4492 18.7832 34.42 18.8619C34.3908 18.9405 34.3889 19.0258 34.4147 19.0989C34.4405 19.172 34.4918 19.2269 34.5575 19.2516Z" fill="#009440"/>
<path d="M35.6779 19.9083L35.6623 19.9014C35.5564 19.8523 35.4752 19.7592 35.4358 19.6415C35.3962 19.523 35.4022 19.3891 35.4525 19.2684L35.4577 19.2564C35.5108 19.1368 35.6037 19.041 35.7166 18.9895C35.8297 18.9378 35.9538 18.9348 36.0623 18.9807L36.072 18.985C36.1793 19.0338 36.2617 19.1275 36.3014 19.2463C36.3238 19.3131 36.3316 19.3849 36.3251 19.4564L36.1402 19.3752C36.1383 19.3544 36.1344 19.334 36.1286 19.3144C36.1064 19.24 36.0578 19.1824 35.9934 19.1541C35.929 19.1258 35.8541 19.1292 35.7851 19.1636C35.7162 19.1979 35.6589 19.2604 35.6258 19.3373C35.5927 19.4141 35.5865 19.4991 35.6087 19.5734C35.6308 19.6478 35.6794 19.7054 35.7438 19.7337C35.8082 19.762 35.8832 19.7586 35.9521 19.7242C36.0211 19.6899 36.0784 19.6274 36.1115 19.5505L36.2821 19.6255C36.2295 19.7478 36.1354 19.8459 36.0207 19.8983C35.9086 19.9495 35.7857 19.953 35.6779 19.9083Z" fill="#009440"/>
<path d="M35.9343 19.4726L36.2817 19.625L36.225 19.7566L35.8776 19.6042L35.9343 19.4726Z" fill="#009440"/>
<path d="M36.1504 19.5673L36.2818 19.625L36.0828 20.0866L35.9514 20.029L36.1504 19.5673Z" fill="#009440"/>
<path fill-rule="evenodd" clip-rule="evenodd" d="M36.4174 20.2429L36.5838 20.3266L36.7491 19.9923L37.1076 20.1726C37.1823 20.2102 37.2687 20.2164 37.3478 20.1899C37.4268 20.1634 37.4921 20.1064 37.5292 20.0313C37.5663 19.9563 37.5721 19.8694 37.5455 19.7898C37.5189 19.7101 37.462 19.6443 37.3873 19.6067L36.8751 19.3491L36.4174 20.2429ZM36.8317 19.8251L37.1775 19.999C37.208 20.0143 37.2434 20.0169 37.2757 20.006C37.308 19.9952 37.3347 19.9719 37.3499 19.9412C37.3651 19.9105 37.3675 19.8749 37.3566 19.8423C37.3457 19.8098 37.3224 19.7828 37.2919 19.7675L36.9461 19.5936L36.8317 19.8251Z" fill="#009440"/>
<path d="M37.1787 20.6261C37.2423 20.4975 37.3821 20.2146 37.19 20.118L36.9468 19.9957C37.2284 20.1373 37.0886 20.4202 37.0251 20.5488" fill="#009440"/>
<path d="M37.5496 20.8236L38.3329 21.2701L38.4243 21.1072L37.7902 20.7458L37.9168 20.5204L38.4142 20.8038L38.4986 20.6535L38.0013 20.3701L38.0997 20.1948L38.6966 20.5349L38.788 20.3721L38.042 19.9469L37.5496 20.8236Z" fill="#009440"/>
<path d="M39.0085 21.3167C38.9548 21.4016 39.0093 21.4963 39.1297 21.5736C39.2502 21.6509 39.3323 21.6481 39.3669 21.5936C39.4763 21.4207 38.844 21.1684 39.0389 20.8669C39.2069 20.6079 39.4944 20.8095 39.6029 20.8791C39.7113 20.9487 39.8854 21.1287 39.75 21.3361L39.5663 21.2182C39.6238 21.1271 39.5606 21.0396 39.4642 20.9778C39.3708 20.9179 39.295 20.8905 39.2393 20.9785C39.1461 21.1192 39.7659 21.3847 39.5759 21.685C39.4358 21.9065 39.1921 21.8098 39.0294 21.7055C38.8909 21.6165 38.6838 21.4069 38.8188 21.1949L39.0085 21.3167Z" fill="#009440"/>
<path d="M40.0813 22.0314C40.0232 22.1134 40.0727 22.2108 40.189 22.2944C40.3053 22.3779 40.3874 22.3795 40.4248 22.3268C40.5431 22.1599 39.9247 21.8747 40.135 21.5839C40.3163 21.3341 40.5929 21.5505 40.6976 21.6257C40.8022 21.7009 40.9668 21.8899 40.8208 22.0899L40.6434 21.9624C40.7056 21.8746 40.647 21.7838 40.554 21.717C40.4638 21.6522 40.3895 21.6209 40.3294 21.7058C40.229 21.8414 40.8341 22.1392 40.6288 22.4292C40.4774 22.643 40.239 22.5336 40.082 22.4207C39.9482 22.3246 39.7524 22.1044 39.8981 21.8998L40.0813 22.0314Z" fill="#009440"/>
<path fill-rule="evenodd" clip-rule="evenodd" d="M41.0959 23.1902C41.1893 23.265 41.3116 23.2953 41.4361 23.2743C41.5605 23.2533 41.6768 23.1827 41.7593 23.0782C41.8419 22.9737 41.8839 22.8437 41.8762 22.7168C41.8686 22.59 41.8118 22.4767 41.7184 22.4018C41.625 22.327 41.5026 22.2968 41.3782 22.3178C41.2538 22.3388 41.1375 22.4093 41.055 22.5138C40.9724 22.6184 40.9303 22.7484 40.938 22.8752C40.9457 23.002 41.0025 23.1153 41.0959 23.1902ZM41.2115 23.0438C41.2663 23.0877 41.3396 23.1038 41.415 23.0884C41.4905 23.073 41.5621 23.0275 41.614 22.9617C41.6658 22.896 41.6938 22.8155 41.6917 22.738C41.6896 22.6605 41.6576 22.5922 41.6028 22.5482C41.5479 22.5043 41.4747 22.4882 41.3992 22.5036C41.3237 22.519 41.2522 22.5646 41.2003 22.6303C41.1484 22.696 41.1204 22.7765 41.1225 22.854C41.1246 22.9316 41.1566 22.9998 41.2115 23.0438Z" fill="#009440"/>
<path d="M23.4264 18.801L23.5299 19.1194H23.8647L23.5938 19.3162L23.6973 19.6346L23.4264 19.4379L23.1555 19.6346L23.259 19.3162L22.9881 19.1194H23.3229L23.4264 18.801Z" fill="white"/>
<path d="M24.3572 23.2475L24.2181 23.6786L24.4321 23.7486" fill="white"/>
<path d="M24.3572 23.2475L24.4962 23.6786L24.2822 23.7486" fill="white"/>
<path d="M24.7852 23.5609L24.3355 23.5617L24.3352 23.7876" fill="white"/>
<path d="M24.7852 23.5605L24.4207 23.8273L24.2888 23.6443" fill="white"/>
<path d="M23.9292 23.5603L24.2936 23.8271L24.4255 23.6441" fill="white"/>
<path d="M23.9292 23.5608L24.3788 23.5615L24.3792 23.7874" fill="white"/>
<path d="M24.6218 24.0673L24.4831 23.6364L24.2688 23.7066" fill="white"/>
<path d="M24.6216 24.0675L24.2577 23.8013L24.3902 23.6177" fill="white"/>
<path d="M24.093 24.0677L24.4569 23.8015L24.3244 23.6179" fill="white"/>
<path d="M24.0928 24.0674L24.2315 23.6366L24.4458 23.7068" fill="white"/>
<path d="M23.0713 24.2729L22.9554 24.6321L23.1337 24.6905" fill="white"/>
<path d="M23.0713 24.2729L23.1872 24.6321L23.0088 24.6905" fill="white"/>
<path d="M23.428 24.5341L23.0533 24.5348L23.053 24.723" fill="white"/>
<path d="M23.428 24.5337L23.1243 24.756L23.0144 24.6036" fill="white"/>
<path d="M22.7146 24.5336L23.0183 24.756L23.1282 24.6035" fill="white"/>
<path d="M22.7146 24.5339L23.0893 24.5345L23.0896 24.7227" fill="white"/>
<path d="M23.2917 24.9562L23.1761 24.5971L22.9975 24.6556" fill="white"/>
<path d="M23.2915 24.9562L22.9883 24.7343L23.0987 24.5813" fill="white"/>
<path d="M22.8511 24.9563L23.1543 24.7344L23.0439 24.5814" fill="white"/>
<path d="M22.8508 24.9562L22.9665 24.5972L23.145 24.6557" fill="white"/>
<path d="M25.3855 22.8373L25.3193 23.0426L25.4212 23.076" fill="white"/>
<path d="M25.3855 22.8373L25.4517 23.0426L25.3498 23.076" fill="white"/>
<path d="M25.5894 22.9865L25.3753 22.9869L25.3751 23.0945" fill="white"/>
<path d="M25.5894 22.9865L25.4158 23.1136L25.353 23.0265" fill="white"/>
<path d="M25.1819 22.9865L25.3554 23.1135L25.4182 23.0264" fill="white"/>
<path d="M25.1819 22.9865L25.396 22.9869L25.3962 23.0944" fill="white"/>
<path d="M25.5115 23.2278L25.4454 23.0226L25.3434 23.0561" fill="white"/>
<path d="M25.5115 23.228L25.3382 23.1013L25.4013 23.0138" fill="white"/>
<path d="M25.2598 23.2278L25.433 23.101L25.3699 23.0136" fill="white"/>
<path d="M25.2598 23.2278L25.3258 23.0226L25.4279 23.0561" fill="white"/>
<path d="M26.543 24.3737L26.4271 24.733L26.6054 24.7913" fill="white"/>
<path d="M26.543 24.3737L26.6589 24.733L26.4805 24.7913" fill="white"/>
<path d="M26.8997 24.6347L26.525 24.6354L26.5247 24.8236" fill="white"/>
<path d="M26.8997 24.6343L26.596 24.8566L26.4861 24.7042" fill="white"/>
<path d="M26.1863 24.6342L26.49 24.8566L26.5999 24.7041" fill="white"/>
<path d="M26.1863 24.6345L26.561 24.6351L26.5613 24.8233" fill="white"/>
<path d="M26.7634 25.0568L26.6478 24.6977L26.4692 24.7562" fill="white"/>
<path d="M26.7632 25.057L26.46 24.8351L26.5704 24.6821" fill="white"/>
<path d="M26.3228 25.0571L26.626 24.8352L26.5156 24.6822" fill="white"/>
<path d="M26.3225 25.0569L26.4381 24.6978L26.6167 24.7563" fill="white"/>
<path d="M26.2285 25.4997L26.1358 25.7871L26.2785 25.8338" fill="white"/>
<path d="M26.2285 25.4997L26.3212 25.7871L26.1786 25.8338" fill="white"/>
<path d="M26.5144 25.7087L26.2147 25.7093L26.2144 25.8598" fill="white"/>
<path d="M26.5144 25.7085L26.2715 25.8864L26.1835 25.7644" fill="white"/>
<path d="M25.9434 25.7082L26.1863 25.8861L26.2742 25.7641" fill="white"/>
<path d="M25.9434 25.7084L26.2431 25.7089L26.2434 25.8595" fill="white"/>
<path d="M26.405 26.0462L26.3125 25.759L26.1697 25.8058" fill="white"/>
<path d="M26.405 26.0464L26.1625 25.869L26.2508 25.7466" fill="white"/>
<path d="M26.0522 26.0466L26.2948 25.8692L26.2065 25.7468" fill="white"/>
<path d="M26.0522 26.0464L26.1447 25.7592L26.2876 25.806" fill="white"/>
<path d="M35.2573 17.4196L35.1183 17.8507L35.3323 17.9207" fill="white"/>
<path d="M35.2573 17.4196L35.3964 17.8507L35.1824 17.9207" fill="white"/>
<path d="M35.6851 17.7328L35.2354 17.7336L35.2351 17.9594" fill="white"/>
<path d="M35.6851 17.7323L35.3206 17.9992L35.1887 17.8162" fill="white"/>
<path d="M34.8291 17.7324L35.1935 17.9992L35.3254 17.8163" fill="white"/>
<path d="M34.8291 17.7328L35.2787 17.7336L35.2791 17.9595" fill="white"/>
<path d="M35.5217 18.2394L35.383 17.8085L35.1687 17.8787" fill="white"/>
<path d="M35.5215 18.2396L35.1576 17.9734L35.2901 17.7898" fill="white"/>
<path d="M34.9929 18.2395L35.3568 17.9733L35.2243 17.7897" fill="white"/>
<path d="M34.9927 18.2393L35.1314 17.8084L35.3457 17.8787" fill="white"/>
<path d="M39.3574 24.4131L39.2184 24.8442L39.4324 24.9142" fill="white"/>
<path d="M39.3574 24.4131L39.4965 24.8442L39.2825 24.9142" fill="white"/>
<path d="M39.7852 24.7266L39.3355 24.7273L39.3352 24.9532" fill="white"/>
<path d="M39.7852 24.7261L39.4207 24.9929L39.2888 24.81" fill="white"/>
<path d="M38.9292 24.7262L39.2936 24.993L39.4255 24.81" fill="white"/>
<path d="M38.9292 24.7266L39.3788 24.7274L39.3792 24.9533" fill="white"/>
<path d="M39.6218 25.2331L39.4831 24.8022L39.2688 24.8725" fill="white"/>
<path d="M39.6216 25.2334L39.2577 24.9672L39.3902 24.7836" fill="white"/>
<path d="M39.093 25.2333L39.4569 24.9671L39.3244 24.7835" fill="white"/>
<path d="M39.0928 25.2331L39.2315 24.8022L39.4458 24.8724" fill="white"/>
<path d="M40.8145 24.6649L40.7217 24.9523L40.8644 24.999" fill="white"/>
<path d="M40.8145 24.6649L40.9072 24.9523L40.7645 24.999" fill="white"/>
<path d="M41.0999 24.874L40.8001 24.8745L40.7999 25.0251" fill="white"/>
<path d="M41.0999 24.8737L40.8569 25.0516L40.769 24.9296" fill="white"/>
<path d="M40.5291 24.8734L40.772 25.0513L40.8599 24.9293" fill="white"/>
<path d="M40.5291 24.8739L40.8288 24.8744L40.8291 25.025" fill="white"/>
<path d="M40.9905 25.2115L40.898 24.9242L40.7551 24.9711" fill="white"/>
<path d="M40.9905 25.2117L40.7479 25.0342L40.8362 24.9118" fill="white"/>
<path d="M40.6379 25.2119L40.8805 25.0345L40.7922 24.912" fill="white"/>
<path d="M40.6379 25.2117L40.7304 24.9244L40.8733 24.9712" fill="white"/>
<path d="M39.7856 25.4241L39.6698 25.7833L39.8481 25.8417" fill="white"/>
<path d="M39.7856 25.4241L39.9015 25.7833L39.7232 25.8417" fill="white"/>
<path d="M40.1423 25.6851L39.7677 25.6857L39.7673 25.874" fill="white"/>
<path d="M40.1423 25.6848L39.8387 25.9072L39.7287 25.7547" fill="white"/>
<path d="M39.429 25.6848L39.7326 25.9072L39.8425 25.7547" fill="white"/>
<path d="M39.429 25.6851L39.8036 25.6857L39.804 25.8739" fill="white"/>
<path d="M40.0061 26.1071L39.8905 25.748L39.7119 25.8066" fill="white"/>
<path d="M40.0059 26.1074L39.7027 25.8855L39.8131 25.7325" fill="white"/>
<path d="M39.5654 26.1074L39.8686 25.8856L39.7582 25.7326" fill="white"/>
<path d="M39.5652 26.1072L39.6808 25.7481L39.8594 25.8067" fill="white"/>
<path d="M37.2573 27.6403L37.1414 27.9996L37.3198 28.0579" fill="white"/>
<path d="M37.2573 27.6403L37.3732 27.9996L37.1949 28.0579" fill="white"/>
<path d="M37.614 27.9013L37.2393 27.902L37.239 28.0902" fill="white"/>
<path d="M37.614 27.9008L37.3103 28.1232L37.2004 27.9707" fill="white"/>
<path d="M36.9004 27.9003L37.2041 28.1227L37.314 27.9702" fill="white"/>
<path d="M36.9004 27.9005L37.2751 27.9012L37.2754 28.0894" fill="white"/>
<path d="M37.4778 28.3233L37.3622 27.9643L37.1836 28.0228" fill="white"/>
<path d="M37.4775 28.3236L37.1743 28.1017L37.2847 27.9487" fill="white"/>
<path d="M37.0371 28.3237L37.3403 28.1018L37.2299 27.9488" fill="white"/>
<path d="M37.0369 28.3235L37.1525 27.9644L37.3311 28.0229" fill="white"/>
<path d="M37.2427 28.7808L37.15 29.0682L37.2926 29.1149" fill="white"/>
<path d="M37.2427 28.7808L37.3354 29.0682L37.1927 29.1149" fill="white"/>
<path d="M37.5283 28.9898L37.2286 28.9903L37.2283 29.1409" fill="white"/>
<path d="M37.5283 28.9896L37.2854 29.1675L37.1974 29.0455" fill="white"/>
<path d="M36.9575 28.9892L37.2005 29.1671L37.2884 29.0451" fill="white"/>
<path d="M36.9575 28.9894L37.2573 28.99L37.2575 29.1405" fill="white"/>
<path d="M37.4192 29.3273L37.3267 29.04L37.1838 29.0868" fill="white"/>
<path d="M37.4192 29.3273L37.1766 29.1498L37.2649 29.0274" fill="white"/>
<path d="M37.0664 29.3272L37.309 29.1497L37.2207 29.0273" fill="white"/>
<path d="M37.0664 29.3272L37.1589 29.0399L37.3018 29.0868" fill="white"/>
<path d="M38.3 26.8812L38.2073 27.1686L38.35 27.2153" fill="white"/>
<path d="M38.3 26.8812L38.3928 27.1686L38.2501 27.2153" fill="white"/>
<path d="M38.5854 27.0902L38.2857 27.0907L38.2854 27.2413" fill="white"/>
<path d="M38.5854 27.09L38.3425 27.2679L38.2546 27.1459" fill="white"/>
<path d="M38.0146 27.0899L38.2576 27.2678L38.3455 27.1458" fill="white"/>
<path d="M38.0146 27.0901L38.3144 27.0906L38.3146 27.2412" fill="white"/>
<path d="M38.4763 27.4277L38.3838 27.1404L38.241 27.1873" fill="white"/>
<path d="M38.4763 27.4279L38.2338 27.2505L38.3221 27.1281" fill="white"/>
<path d="M38.1238 27.4279L38.3663 27.2504L38.278 27.128" fill="white"/>
<path d="M38.1235 27.4279L38.216 27.1406L38.3589 27.1875" fill="white"/>
<path d="M39.1431 26.2731L39.0272 26.6323L39.2055 26.6907" fill="white"/>
<path d="M39.1431 26.2731L39.2589 26.6323L39.0806 26.6907" fill="white"/>
<path d="M39.4998 26.5343L39.1251 26.5349L39.1248 26.7231" fill="white"/>
<path d="M39.4998 26.5338L39.1961 26.7562L39.0862 26.6037" fill="white"/>
<path d="M38.7861 26.5338L39.0898 26.7562L39.1997 26.6037" fill="white"/>
<path d="M38.7861 26.534L39.1608 26.5347L39.1611 26.7229" fill="white"/>
<path d="M39.3633 26.9563L39.2477 26.5973L39.0691 26.6558" fill="white"/>
<path d="M39.363 26.9565L39.0598 26.7347L39.1702 26.5817" fill="white"/>
<path d="M38.9226 26.9566L39.2258 26.7348L39.1154 26.5818" fill="white"/>
<path d="M38.9224 26.9564L39.038 26.5973L39.2166 26.6559" fill="white"/>
<path d="M37.2144 26.6797L37.1217 26.9672L37.2643 27.0138" fill="white"/>
<path d="M37.2144 26.6797L37.3071 26.9672L37.1644 27.0138" fill="white"/>
<path d="M37.5 26.8888L37.2003 26.8893L37.2 27.0399" fill="white"/>
<path d="M37.5 26.8885L37.2571 27.0664L37.1691 26.9445" fill="white"/>
<path d="M36.929 26.8885L37.1719 27.0664L37.2598 26.9444" fill="white"/>
<path d="M36.929 26.8887L37.2287 26.8892L37.229 27.0398" fill="white"/>
<path d="M37.3906 27.2263L37.2981 26.939L37.1553 26.9859" fill="white"/>
<path d="M37.3904 27.2265L37.1478 27.0491L37.2361 26.9267" fill="white"/>
<path d="M37.0378 27.2265L37.2804 27.049L37.1921 26.9266" fill="white"/>
<path d="M37.0376 27.2265L37.1301 26.9392L37.273 26.986" fill="white"/>
<path d="M27.9926 21.2034L28.0793 21.4703H28.36L28.1329 21.6353L28.2196 21.9023L27.9926 21.7373L27.7655 21.9023L27.8522 21.6353L27.6251 21.4703H27.9058L27.9926 21.2034Z" fill="white"/>
<path d="M34.8569 20.3191L34.7642 20.6065L34.9069 20.6532" fill="white"/>
<path d="M34.8569 20.3191L34.9496 20.6065L34.807 20.6532" fill="white"/>
<path d="M35.1426 20.5281L34.8428 20.5287L34.8426 20.6792" fill="white"/>
<path d="M35.1426 20.5279L34.8996 20.7058L34.8117 20.5838" fill="white"/>
<path d="M34.5718 20.5278L34.8147 20.7057L34.9027 20.5837" fill="white"/>
<path d="M34.5718 20.528L34.8715 20.5285L34.8718 20.6791" fill="white"/>
<path d="M35.0337 20.8656L34.9412 20.5784L34.7983 20.6252" fill="white"/>
<path d="M35.0334 20.8658L34.7909 20.6884L34.8792 20.566" fill="white"/>
<path d="M34.6807 20.8658L34.9232 20.6884L34.8349 20.5659" fill="white"/>
<path d="M34.6807 20.8658L34.7732 20.5786L34.916 20.6254" fill="white"/>
<path d="M33.2184 23.4312L33.3015 23.687H33.5705L33.3529 23.8451L33.436 24.1009L33.2184 23.9428L33.0008 24.1009L33.0839 23.8451L32.8663 23.687H33.1353L33.2184 23.4312Z" fill="white"/>
<path d="M30.9319 23.5259L30.9999 23.7349H31.2197L31.0419 23.8641L31.1098 24.0732L30.9319 23.944L30.7541 24.0732L30.822 23.8641L30.6442 23.7349H30.864L30.9319 23.5259Z" fill="white"/>
<path d="M31.4758 24.3101L31.5248 24.4607H31.6832L31.555 24.5538L31.604 24.7045L31.4758 24.6114L31.3477 24.7045L31.3966 24.5538L31.2685 24.4607H31.4269L31.4758 24.3101Z" fill="white"/>
<path d="M31.9968 25.4707L32.094 25.7698H32.4085L32.1541 25.9547L32.2513 26.2538L31.9968 26.0689L31.7424 26.2538L31.8396 25.9547L31.5852 25.7698H31.8996L31.9968 25.4707Z" fill="white"/>
<path d="M32.0001 22.4548L32.0869 22.7218H32.3676L32.1405 22.8868L32.2272 23.1538L32.0001 22.9888L31.773 23.1538L31.8598 22.8868L31.6327 22.7218H31.9134L32.0001 22.4548Z" fill="white"/>
<path d="M35.1428 27.8992L35.0269 28.2585L35.2053 28.3169" fill="white"/>
<path d="M35.1428 27.8992L35.2587 28.2585L35.0804 28.3169" fill="white"/>
<path d="M35.4995 28.1605L35.1248 28.1611L35.1245 28.3494" fill="white"/>
<path d="M35.4995 28.16L35.1958 28.3824L35.0859 28.2299" fill="white"/>
<path d="M34.7861 28.16L35.0898 28.3824L35.1997 28.2299" fill="white"/>
<path d="M34.7861 28.1602L35.1608 28.1609L35.1611 28.3491" fill="white"/>
<path d="M35.3633 28.5825L35.2477 28.2234L35.0691 28.282" fill="white"/>
<path d="M35.363 28.5827L35.0598 28.3609L35.1702 28.2079" fill="white"/>
<path d="M34.9226 28.5828L35.2258 28.361L35.1154 28.208" fill="white"/>
<path d="M34.9224 28.5826L35.038 28.2235L35.2166 28.2821" fill="white"/>
<path d="M36.043 27.0396L35.9503 27.327L36.0929 27.3737" fill="white"/>
<path d="M36.043 27.0396L36.1357 27.327L35.993 27.3737" fill="white"/>
<path d="M36.3286 27.2483L36.0289 27.2488L36.0286 27.3994" fill="white"/>
<path d="M36.3286 27.2481L36.0857 27.426L35.9977 27.304" fill="white"/>
<path d="M35.7576 27.2482L36.0005 27.4261L36.0884 27.3041" fill="white"/>
<path d="M35.7576 27.2484L36.0573 27.249L36.0576 27.3995" fill="white"/>
<path d="M36.2192 27.5861L36.1267 27.2988L35.9839 27.3456" fill="white"/>
<path d="M36.219 27.5863L35.9764 27.4088L36.0647 27.2864" fill="white"/>
<path d="M35.8667 27.5862L36.1093 27.4087L36.0209 27.2863" fill="white"/>
<path d="M35.8665 27.5862L35.959 27.299L36.1018 27.3458" fill="white"/>
<path d="M34.314 26.7806L34.2213 27.068L34.3639 27.1147" fill="white"/>
<path d="M34.314 26.7806L34.4067 27.068L34.264 27.1147" fill="white"/>
<path d="M34.5996 26.9894L34.2999 26.9899L34.2996 27.1405" fill="white"/>
<path d="M34.5996 26.9894L34.3567 27.1673L34.2687 27.0453" fill="white"/>
<path d="M34.0288 26.9891L34.2717 27.167L34.3597 27.045" fill="white"/>
<path d="M34.0288 26.9893L34.3285 26.9898L34.3288 27.1404" fill="white"/>
<path d="M34.4905 27.3269L34.398 27.0396L34.2551 27.0865" fill="white"/>
<path d="M34.4902 27.3271L34.2477 27.1497L34.336 27.0272" fill="white"/>
<path d="M34.1379 27.3271L34.3805 27.1496L34.2922 27.0272" fill="white"/>
<path d="M34.1379 27.3271L34.2304 27.0398L34.3733 27.0866" fill="white"/>
<path d="M27.7859 26.3127L27.6468 26.7438L27.8608 26.8138" fill="white"/>
<path d="M27.7859 26.3127L27.9249 26.7438L27.711 26.8138" fill="white"/>
<path d="M28.2136 26.6261L27.764 26.6269L27.7636 26.8527" fill="white"/>
<path d="M28.2136 26.6256L27.8492 26.8925L27.7173 26.7095" fill="white"/>
<path d="M27.3577 26.6255L27.7221 26.8923L27.854 26.7094" fill="white"/>
<path d="M27.3577 26.6259L27.8073 26.6267L27.8077 26.8526" fill="white"/>
<path d="M28.0503 27.1324L27.9115 26.7016L27.6972 26.7718" fill="white"/>
<path d="M28.05 27.1327L27.6862 26.8665L27.8187 26.6829" fill="white"/>
<path d="M27.5215 27.1328L27.8853 26.8666L27.7529 26.683" fill="white"/>
<path d="M27.5215 27.1326L27.6602 26.7017L27.8745 26.772" fill="white"/>
<path d="M32 29.2773L31.9536 29.421L32.025 29.4443" fill="white"/>
<path d="M32 29.2773L32.0464 29.421L31.975 29.4443" fill="white"/>
<path d="M32.1428 29.3814L31.993 29.3817L31.9928 29.457" fill="white"/>
<path d="M32.1428 29.3814L32.0214 29.4704L31.9774 29.4094" fill="white"/>
<path d="M31.8574 29.3816L31.9789 29.4706L32.0229 29.4096" fill="white"/>
<path d="M31.8574 29.3816L32.0073 29.3819L32.0074 29.4572" fill="white"/>
<path d="M32.0881 29.5505L32.0419 29.4069L31.9705 29.4303" fill="white"/>
<path d="M32.0881 29.5508L31.9669 29.462L32.011 29.4008" fill="white"/>
<path d="M31.9121 29.5508L32.0334 29.462L31.9892 29.4008" fill="white"/>
<path d="M31.9121 29.5505L31.9584 29.4069L32.0298 29.4303" fill="white"/>
</g>
<defs>
<clipPath id="clip0_37941_2204">
<rect width="64" height="42" rx="5" fill="white"/>
</clipPath>
</defs>
</svg>
