<svg width="64" height="42" viewBox="0 0 64 42" fill="none" xmlns="http://www.w3.org/2000/svg">
<g clip-path="url(#clip0_37941_2371)">
<rect width="64" height="42" rx="5" fill="white"/>
<path d="M0 0H64V42H0V0Z" fill="white"/>
<rect x="0.5" y="0.5" width="63" height="41" rx="4.5" stroke="#F5F5F5"/>
<path d="M23.7037 4.66663H64V9.33329H23.7037V4.66663ZM23.7037 14H64V18.6666H23.7037V14ZM0 23.3333H64V28H0V23.3333ZM0 32.6666H64V37.3333H0V32.6666Z" fill="#0038A8"/>
<path d="M11.314 13.9484L12.0998 15.1024C8.87465 17.4003 10.843 18.7584 8.55981 19.4916C9.98043 18.126 8.37296 17.9168 9.56832 15.0696" fill="#FCD116"/>
<path fill-rule="evenodd" clip-rule="evenodd" d="M11.3355 13.8417L12.2067 15.1211L12.1457 15.1646C11.3455 15.7347 10.8712 16.2439 10.5728 16.6963C10.2746 17.1483 10.1495 17.5474 10.0521 17.9037C10.0412 17.9434 10.0307 17.9829 10.0202 18.0219C9.93776 18.3296 9.86136 18.6148 9.68698 18.8632C9.48721 19.1479 9.16505 19.3781 8.58414 19.5646L8.26587 19.6668L8.50538 19.4366C8.85488 19.1006 9.01032 18.8432 9.07318 18.6055C9.13654 18.366 9.10893 18.1375 9.07121 17.8459L9.06987 17.8355C9.03266 17.5479 8.98865 17.2078 9.02857 16.7629C9.06896 16.3126 9.19489 15.7581 9.49629 15.0402L9.5261 14.9692L9.67041 15.0279L9.64059 15.0989C9.34431 15.8046 9.2229 16.3439 9.18411 16.7764C9.14567 17.2047 9.18791 17.5312 9.22505 17.8183L9.2261 17.8264C9.26324 18.1137 9.29643 18.3715 9.22428 18.6442C9.16935 18.8519 9.05509 19.0632 8.84659 19.3038C9.20935 19.1494 9.41999 18.9732 9.55852 18.7759C9.71634 18.551 9.78558 18.2935 9.86935 17.9819C9.87972 17.9434 9.89031 17.904 9.90132 17.8637C10.0003 17.5016 10.1306 17.0845 10.4418 16.6126C10.7449 16.1531 11.2172 15.6452 11.9933 15.0837L11.2058 13.9273L11.3355 13.8417Z" fill="#7B3F00"/>
<path d="M9.83366 12.906L9.55998 14.2677C5.63021 13.6475 6.04641 15.9781 3.90264 14.9075C5.8882 14.9314 4.94648 13.6457 7.83716 12.4671" fill="#FCD116"/>
<path fill-rule="evenodd" clip-rule="evenodd" d="M9.92548 12.8452L9.62198 14.3553L9.5475 14.3435C8.57248 14.1897 7.8716 14.2195 7.3358 14.3317C6.8005 14.4438 6.42541 14.6389 6.10049 14.823C6.06436 14.8435 6.02868 14.864 5.99333 14.8842C5.71379 15.0445 5.45459 15.1932 5.15235 15.2475C4.80626 15.3098 4.41259 15.2484 3.86716 14.976L3.5674 14.8263L3.9035 14.8303C4.3917 14.8362 4.6895 14.7614 4.90906 14.6353C5.13041 14.5082 5.28066 14.3248 5.46903 14.0903L5.47833 14.0787C5.66353 13.8481 5.8818 13.5763 6.232 13.2896C6.58809 12.9981 7.07824 12.693 7.80713 12.3958L7.8794 12.3663L7.93926 12.5086L7.867 12.5381C7.15055 12.8302 6.67441 13.1277 6.33203 13.408C5.99445 13.6844 5.78461 13.9456 5.59966 14.1759L5.59174 14.1858C5.40602 14.417 5.23873 14.6243 4.98789 14.7683C4.79689 14.878 4.56221 14.9488 4.24105 14.9741C4.60868 15.1172 4.88435 15.1392 5.12423 15.096C5.39777 15.0468 5.63201 14.9128 5.91533 14.7507C5.95024 14.7307 5.98588 14.7103 6.02244 14.6896C6.35266 14.5024 6.74435 14.2981 7.30325 14.1811C7.84754 14.0671 8.54608 14.0368 9.49774 14.18L9.77201 12.8153L9.92548 12.8452Z" fill="#7B3F00"/>
<path d="M9.83361 12.9058L9.21489 12.7969L9.22005 12.8226C7.56754 13.2213 6.67137 13.8951 5.96929 14.4064C5.61755 14.6637 5.31423 14.8818 4.98545 14.9992C4.76755 15.0788 4.53363 15.1066 4.30275 15.0803C6.0097 15.6761 5.89602 13.6889 9.55993 14.2675L9.83361 12.9058Z" fill="#FCD116"/>
<path fill-rule="evenodd" clip-rule="evenodd" d="M9.87499 12.8779L9.58777 14.307L9.55425 14.3017C8.64137 14.1576 7.9656 14.1735 7.43905 14.2683C6.91279 14.363 6.53386 14.5368 6.21441 14.7107C6.13132 14.7559 6.05175 14.8015 5.97434 14.8458C5.75594 14.9709 5.5547 15.0862 5.34003 15.1562C5.04539 15.2523 4.72439 15.2643 4.29088 15.113L3.99821 15.0108L4.30669 15.0459C4.53206 15.0715 4.7604 15.0444 4.9731 14.9667L4.97335 14.9666C5.2964 14.8513 5.59557 14.6365 5.94819 14.3786L5.94826 14.3785C5.96568 14.3658 5.98323 14.353 6.00091 14.3401C6.69155 13.8367 7.581 13.1883 9.1789 12.7969L9.17026 12.7539L9.87499 12.8779ZM9.25932 12.8399L9.26101 12.8484L9.22833 12.8562C7.62363 13.2434 6.736 13.8905 6.04254 14.396C6.02495 14.4088 6.0075 14.4216 5.99015 14.4342C5.63935 14.6908 5.33191 14.9123 4.99746 15.0317C4.86035 15.0818 4.71704 15.1118 4.57207 15.1213C4.86526 15.185 5.09964 15.1616 5.31789 15.0904C5.52506 15.0229 5.71718 14.9128 5.93326 14.7891C6.01183 14.7441 6.09356 14.6973 6.18034 14.6501C6.50383 14.474 6.89014 14.2967 7.42639 14.2001C7.9558 14.1048 8.62966 14.0886 9.53187 14.2281L9.79201 12.9337L9.25932 12.8399Z" fill="#7B3F00"/>
<path fill-rule="evenodd" clip-rule="evenodd" d="M5.92478 14.247C6.62237 13.7377 7.54022 13.0677 9.18355 12.6718L9.22074 12.8214C7.60812 13.2099 6.71078 13.8649 6.01735 14.3711C6.00139 14.3828 5.98554 14.3943 5.96979 14.4058C5.62085 14.6603 5.31321 14.8805 4.98656 14.9979C4.65448 15.1173 4.30603 15.1296 3.87647 14.98L3.92866 14.8348C4.32583 14.9731 4.6368 14.9597 4.93291 14.8533C5.23445 14.7449 5.52378 14.5394 5.87666 14.2821C5.89259 14.2705 5.90863 14.2587 5.92478 14.247Z" fill="#7B3F00"/>
<path d="M11.8516 11.6654L10.7459 10.5769L5.76733 17.6547L12.9574 12.7539L11.8516 11.6654L5.76733 17.6547L11.8516 11.6654Z" fill="#FCD116"/>
<path fill-rule="evenodd" clip-rule="evenodd" d="M10.7348 10.4576L13.0787 12.7648L5.4585 17.9587L10.7348 10.4576ZM10.7567 10.6965L6.32449 16.9976L11.7411 11.6656L10.7567 10.6965ZM11.8515 11.7743L6.43489 17.1063L12.836 12.7433L11.8515 11.7743Z" fill="#7B3F00"/>
<path d="M9.53446 11.138L8.36283 11.9104C6.0296 8.73635 4.64985 10.6742 3.903 8.42481C5.28983 9.82382 5.51812 8.24162 8.40868 9.42034" fill="#FCD116"/>
<path fill-rule="evenodd" clip-rule="evenodd" d="M9.64284 11.1592L8.34354 12.0158L8.29932 11.9557C7.72042 11.1682 7.20338 10.7014 6.74394 10.4077C6.28493 10.1144 5.87956 9.99127 5.51755 9.89531C5.47729 9.88464 5.43736 9.87427 5.3978 9.864C5.08501 9.78277 4.79497 9.70744 4.54221 9.53549C4.25278 9.3386 4.01853 9.02114 3.82851 8.44885L3.72408 8.13434L3.95884 8.37116C4.29993 8.71524 4.56231 8.86838 4.8051 8.9304C5.04988 8.99293 5.28389 8.96585 5.58203 8.9289L5.59283 8.92756C5.88679 8.89112 6.23396 8.84808 6.68701 8.88767C7.1456 8.92774 7.7096 9.0521 8.43847 9.34932L8.51074 9.37879L8.45088 9.52107L8.37861 9.4916C7.6622 9.19946 7.11371 9.07957 6.67318 9.04107C6.23692 9.00294 5.90353 9.04427 5.6101 9.08064L5.60158 9.0817C5.30797 9.11809 5.04421 9.15058 4.76581 9.07946C4.55396 9.02535 4.33878 8.91295 4.09427 8.70793C4.25144 9.06493 4.43056 9.27235 4.63114 9.4088C4.8599 9.56441 5.12181 9.63268 5.4386 9.71525C5.47762 9.72542 5.51748 9.73581 5.55821 9.74661C5.92614 9.84413 6.34987 9.97228 6.82912 10.2786C7.29584 10.5769 7.81156 11.0417 8.38161 11.8054L9.55578 11.0313L9.64284 11.1592Z" fill="#7B3F00"/>
<path d="M9.53431 11.1381L9.17503 10.6304L9.16024 10.6522C7.70534 9.78386 6.58771 9.6365 5.72403 9.50935C5.29048 9.44646 4.91933 9.38958 4.60254 9.24372C4.3913 9.14832 4.20593 9.00514 4.06154 8.82586C4.84052 10.4354 6.18754 8.95101 8.36268 11.9106L9.53431 11.1381Z" fill="#FCD116"/>
<path fill-rule="evenodd" clip-rule="evenodd" d="M9.58375 11.147L8.35412 11.9576L8.33422 11.9306C7.79228 11.1932 7.30299 10.7341 6.86259 10.4346C6.42243 10.1352 6.02967 9.99434 5.67888 9.89494C5.58764 9.86909 5.49864 9.84593 5.41205 9.8234C5.16778 9.75984 4.94269 9.70126 4.74061 9.60133C4.46325 9.46418 4.22766 9.24922 4.02983 8.84045L3.89627 8.56448L4.08918 8.80402C4.23013 8.97903 4.41107 9.11879 4.61727 9.21192L4.61751 9.21202C4.92879 9.35534 5.29459 9.41171 5.72922 9.47475L5.7293 9.47476C5.75073 9.47792 5.77233 9.48109 5.79409 9.48428C6.64407 9.609 7.73873 9.76962 9.14974 10.6051L9.17452 10.5687L9.58375 11.147ZM9.17567 10.6916L9.17083 10.6987L9.14205 10.6815C7.72926 9.83831 6.63684 9.67801 5.78338 9.55278C5.76175 9.5496 5.74027 9.54645 5.71894 9.54331C5.28654 9.4806 4.91008 9.4232 4.58781 9.27485C4.45489 9.21481 4.33198 9.13629 4.22267 9.04207C4.38424 9.29119 4.56676 9.43781 4.77221 9.53941C4.96722 9.63584 5.18209 9.69177 5.42377 9.75468C5.51164 9.77755 5.60305 9.80135 5.69835 9.82835C6.05357 9.92899 6.45409 10.0725 6.9026 10.3775C7.3454 10.6787 7.83357 11.1362 8.37131 11.8629L9.485 11.1287L9.17567 10.6916Z" fill="#7B3F00"/>
<path fill-rule="evenodd" clip-rule="evenodd" d="M5.80717 9.36556C6.66619 9.49105 7.79647 9.65616 9.24285 10.5201L9.1617 10.6517C7.74235 9.80396 6.63735 9.64253 5.78345 9.51778C5.7638 9.51491 5.74428 9.51206 5.7249 9.50922C5.29536 9.4463 4.91963 9.3879 4.60433 9.24352C4.2838 9.09675 4.02856 8.86292 3.83231 8.45809L3.9735 8.39177C4.15495 8.76607 4.3845 8.97302 4.67031 9.10389C4.96135 9.23716 5.31352 9.29326 5.74792 9.3569C5.76752 9.35977 5.78727 9.36265 5.80717 9.36556Z" fill="#7B3F00"/>
<path d="M11.8519 11.6663V10.1262L3.24793 11.6663L11.8519 13.2064V11.6663H3.24793H11.8519Z" fill="#FCD116"/>
<path fill-rule="evenodd" clip-rule="evenodd" d="M11.9302 10.0341V13.2987L2.81073 11.6664L11.9302 10.0341ZM11.7737 10.2186L4.11537 11.5894H11.7737V10.2186ZM11.7737 11.7434H4.11537L11.7737 13.1142V11.7434Z" fill="#7B3F00"/>
<path d="M11.8519 11.6663V13.2063V11.6663H3.24793L11.8519 13.2063" fill="#FCD116"/>
<path d="M10.5926 9.67956L9.20919 9.41017C9.83918 5.5417 7.47157 5.95144 8.55914 3.8411C8.53493 5.79568 9.90927 5.02416 11.1067 7.86973" fill="#FCD116"/>
<path fill-rule="evenodd" clip-rule="evenodd" d="M10.6541 9.77007L9.12 9.47133L9.13194 9.39801C9.28825 8.4382 9.25791 7.74825 9.14393 7.22081C9.03007 6.69386 8.83185 6.32463 8.64477 6.00479C8.62397 5.96922 8.60318 5.9341 8.58259 5.89929C8.41975 5.62412 8.26875 5.36896 8.21352 5.07144C8.15028 4.73075 8.21266 4.34322 8.48937 3.8063L8.64144 3.51121L8.63734 3.84207C8.6314 4.32176 8.71132 4.62522 8.84641 4.85668C8.98269 5.09019 9.17884 5.25785 9.42523 5.46247C9.43267 5.46865 9.44014 5.47485 9.44764 5.48108C9.93985 5.88964 10.5826 6.42316 11.1789 7.84029L11.2088 7.91143L11.0643 7.97036L11.0344 7.89922C10.4525 6.5165 9.83148 6.00106 9.34943 5.601C9.34102 5.59402 9.33266 5.58709 9.32435 5.58018C9.0805 5.37767 8.86277 5.19387 8.71075 4.93339C8.59453 4.73425 8.51883 4.4945 8.49174 4.17314C8.34597 4.53564 8.32354 4.80736 8.36742 5.04375C8.41741 5.31302 8.55358 5.54361 8.71829 5.82251C8.73858 5.85687 8.7593 5.89196 8.78035 5.92795C8.97048 6.25302 9.17807 6.63859 9.29696 7.18877C9.41273 7.72456 9.44356 8.41221 9.29808 9.34902L10.6845 9.619L10.6541 9.77007Z" fill="#7B3F00"/>
<path d="M10.5926 9.67953L10.7032 9.07046L10.6771 9.07554C10.272 7.44881 9.58753 6.56663 9.06812 5.87552C8.80671 5.52927 8.58511 5.23068 8.46586 4.90704C8.38501 4.69253 8.35677 4.46227 8.38344 4.23499C7.77816 5.91531 9.79695 5.80338 9.20923 9.41014L10.5926 9.67953Z" fill="#FCD116"/>
<path fill-rule="evenodd" clip-rule="evenodd" d="M10.6209 9.72039L9.16903 9.43767L9.17441 9.40468C9.32084 8.50603 9.30463 7.84081 9.20834 7.32248C9.11209 6.80443 8.93555 6.43141 8.75888 6.11695C8.71293 6.03516 8.66663 5.95683 8.62158 5.88062C8.49451 5.66564 8.37741 5.46754 8.30629 5.25622C8.20867 4.96617 8.19648 4.65018 8.3502 4.22344L8.45399 3.93533L8.41835 4.23899C8.39231 4.46085 8.41987 4.68562 8.49879 4.89501L8.49888 4.89525C8.61606 5.21327 8.83424 5.50776 9.09631 5.85488L9.09635 5.85494C9.10925 5.8721 9.12224 5.88937 9.13534 5.90678C9.64681 6.58663 10.3055 7.46219 10.7032 9.03516L10.7469 9.02666L10.6209 9.72039ZM10.6594 9.11433L10.6509 9.11599L10.6429 9.08382C10.2495 7.50417 9.59212 6.63039 9.07856 5.94775C9.06553 5.93044 9.0526 5.91325 9.03977 5.89618M10.6594 9.11433L10.5642 9.63871L10.6594 9.11433Z" fill="#7B3F00"/>
<path fill-rule="evenodd" clip-rule="evenodd" d="M9.23012 5.83172C9.74744 6.51841 10.4281 7.42194 10.8304 9.03962L10.6784 9.07623C10.2837 7.48877 9.61823 6.60545 9.104 5.92284C9.09217 5.90713 9.08041 5.89153 9.06874 5.87603C8.8102 5.53254 8.58645 5.2297 8.46719 4.90814C8.34596 4.58124 8.33343 4.23823 8.48544 3.81537L8.63292 3.86675C8.49237 4.25772 8.50605 4.56384 8.61415 4.85533C8.72424 5.15216 8.93297 5.43697 9.19445 5.78435C9.20625 5.80002 9.21814 5.81581 9.23012 5.83172Z" fill="#7B3F00"/>
<path d="M11.8519 11.6663L12.9581 10.5774L5.76761 5.67712L10.7457 12.7553L11.8519 11.6663L5.76761 5.67712L11.8519 11.6663Z" fill="#FCD116"/>
<path fill-rule="evenodd" clip-rule="evenodd" d="M13.0797 10.5665L10.7347 12.8749L5.4584 5.37268L13.0797 10.5665ZM12.8365 10.5881L6.43633 6.22643L11.8519 11.5574L12.8365 10.5881ZM11.7413 11.6663L6.32571 6.33533L10.7566 12.6355L11.7413 11.6663Z" fill="#7B3F00"/>
<path d="M11.8519 11.6663L10.7457 12.7552L11.8519 11.6663L5.76764 5.67704L10.7457 12.7552" fill="#FCD116"/>
<path d="M12.3886 9.3848L11.604 8.23147C14.8281 5.93469 12.8597 4.57651 15.1446 3.84133C13.7235 5.20649 15.3248 5.43162 14.1275 8.27702" fill="#FCD116"/>
<path fill-rule="evenodd" clip-rule="evenodd" d="M12.3671 9.49168L11.497 8.21269L11.5581 8.16916C12.3581 7.5993 12.8322 7.09034 13.1305 6.63808C13.4285 6.18624 13.5535 5.78721 13.651 5.43085C13.6618 5.39122 13.6724 5.35192 13.6828 5.31297C13.7653 5.00507 13.8418 4.71956 14.0165 4.47075C14.2165 4.18584 14.5389 3.95525 15.1203 3.7682L15.4397 3.6654L15.1992 3.89649C14.8497 4.23227 14.6937 4.49062 14.6302 4.72974C14.5661 4.97078 14.593 5.20123 14.6298 5.49472L14.6312 5.5064C14.6675 5.79557 14.7103 6.13705 14.6696 6.58248C14.6284 7.03389 14.5017 7.58908 14.1998 8.30654L14.1698 8.37768L14.0253 8.31875L14.0553 8.24761C14.352 7.54238 14.4742 7.0024 14.5138 6.56868C14.553 6.13968 14.5119 5.81171 14.4757 5.52305L14.4745 5.51358C14.4383 5.22446 14.406 4.96482 14.4788 4.69078C14.5342 4.48229 14.6487 4.2705 14.857 4.02985C14.4944 4.18456 14.2838 4.36086 14.1452 4.55829C13.9871 4.78347 13.9178 5.04129 13.8339 5.35314C13.8236 5.39155 13.813 5.43079 13.802 5.47088C13.703 5.83306 13.5728 6.25017 13.2617 6.72193C12.9587 7.18136 12.4866 7.68902 11.7108 8.25016L12.4971 9.40599L12.3671 9.49168Z" fill="#7B3F00"/>
<path d="M12.3886 9.38457L12.9043 9.03091L12.8822 9.01634C13.7643 7.58417 13.914 6.48401 14.0431 5.63382C14.107 5.20705 14.1648 4.84169 14.3129 4.52985C14.4098 4.32191 14.5553 4.13945 14.7374 3.99731C13.1024 4.76412 14.6103 6.09009 11.604 8.23124L12.3886 9.38457Z" fill="#FCD116"/>
<path fill-rule="evenodd" clip-rule="evenodd" d="M12.3792 9.43342L11.5557 8.22301L11.5832 8.20342C12.3323 7.66994 12.7986 7.1883 13.1028 6.75478C13.4069 6.3215 13.55 5.93488 13.651 5.58957C13.6772 5.49975 13.7008 5.41214 13.7236 5.3269C13.7882 5.08645 13.8477 4.86488 13.9492 4.66596C14.0885 4.39293 14.3069 4.16102 14.7221 3.96628L15.0024 3.8348L14.7591 4.02471C14.5813 4.16346 14.4394 4.34157 14.3448 4.54455L14.3447 4.54478C14.1991 4.8512 14.1418 5.21128 14.0778 5.63912L14.0778 5.6392C14.0746 5.6603 14.0714 5.68156 14.0681 5.70298C13.9414 6.53968 13.7783 7.61723 12.9296 9.0062L12.9666 9.03059L12.3792 9.43342ZM12.8418 9.03172L12.8346 9.02695L12.852 8.99863C13.7085 7.60791 13.8713 6.53256 13.9985 5.69243C14.0018 5.67113 14.005 5.64997 14.0082 5.62897M12.8418 9.03172L12.3978 9.33622L12.8418 9.03172Z" fill="#7B3F00"/>
<path fill-rule="evenodd" clip-rule="evenodd" d="M14.1891 5.71584C14.0617 6.56144 13.8939 7.67406 13.0164 9.09783L12.8827 9.01796C13.7438 7.62078 13.9078 6.53305 14.0345 5.69249C14.0374 5.67314 14.0403 5.65393 14.0432 5.63485C14.1071 5.21203 14.1664 4.84217 14.3131 4.5318C14.4622 4.21628 14.6997 3.96503 15.1109 3.77184L15.1783 3.91082C14.7981 4.08943 14.5879 4.3154 14.4549 4.59674C14.3196 4.88324 14.2626 5.22991 14.1979 5.65752C14.195 5.67682 14.1921 5.69626 14.1891 5.71584Z" fill="#7B3F00"/>
<path d="M11.8519 11.6663H13.4163L11.8519 3.1967L10.2875 11.6663H11.8519L11.8519 3.1967L11.8519 11.6663Z" fill="#FCD116"/>
<path fill-rule="evenodd" clip-rule="evenodd" d="M13.51 11.7433H10.1938L11.8519 2.76631L13.51 11.7433ZM13.3226 11.5893L11.9301 4.05063V11.5893H13.3226ZM11.7737 11.5893V4.05063L10.3813 11.5893H11.7737Z" fill="#7B3F00"/>
<path d="M11.8519 11.6663H10.2876H11.8519L11.8519 3.1967L10.2876 11.6663" fill="#FCD116"/>
<path d="M13.8702 10.4265L14.1439 9.06484C18.0735 9.68496 17.6573 7.35447 19.801 8.42499C17.8155 8.40116 18.7006 9.69316 15.8101 10.8718" fill="#FCD116"/>
<path fill-rule="evenodd" clip-rule="evenodd" d="M13.7783 10.4871L14.0817 8.97701L14.1562 8.98876C15.1312 9.14262 15.8321 9.11275 16.3678 9.00057C16.9031 8.88849 17.2782 8.69337 17.6031 8.50923C17.6392 8.48875 17.6749 8.4683 17.7103 8.44802C17.9898 8.28774 18.249 8.13911 18.5512 8.08475C18.8973 8.0225 19.2909 8.0839 19.8364 8.35627L20.1361 8.50596L19.8 8.50192C19.312 8.49606 19.0103 8.5712 18.7851 8.69825C18.5581 8.82632 18.4007 9.01106 18.2055 9.24615C18.2006 9.25197 18.1958 9.25782 18.1909 9.2637C17.9999 9.49366 17.7756 9.76378 17.4235 10.0483C17.0623 10.3402 16.5688 10.6457 15.84 10.9428L15.7677 10.9723L15.7078 10.83L15.7801 10.8006C16.4966 10.5084 16.9764 10.2104 17.3242 9.92931C17.6643 9.65455 17.8803 9.3944 18.0711 9.16465C18.0755 9.15931 18.0799 9.15398 18.0844 9.14867C18.2773 8.91641 18.4516 8.70895 18.7073 8.56464C18.9022 8.4547 19.1398 8.38361 19.4625 8.35814C19.0949 8.21507 18.8192 8.19308 18.5793 8.23623C18.3058 8.28543 18.0716 8.41947 17.7882 8.5816C17.7533 8.60157 17.7177 8.62197 17.6812 8.64269C17.3509 8.82984 16.9593 9.03417 16.4004 9.15119C15.8561 9.26515 15.1576 9.29549 14.206 9.1523L13.9317 10.5169L13.7783 10.4871Z" fill="#7B3F00"/>
<path d="M13.8703 10.4264L14.4889 10.5352L14.4838 10.5096C16.1362 10.1108 17.0324 9.43706 17.7344 8.92579C18.0861 8.66848 18.3895 8.45036 18.7182 8.33297C18.9361 8.25339 19.17 8.2256 19.4009 8.25185C17.694 7.65606 17.8077 9.64319 14.1439 9.06469L13.8703 10.4264Z" fill="#FCD116"/>
<path fill-rule="evenodd" clip-rule="evenodd" d="M13.8287 10.4545L14.1159 9.02544L14.1495 9.03073C15.0623 9.17487 15.7381 9.15891 16.2646 9.06412C16.7908 8.96939 17.1697 8.79562 17.4892 8.62172C17.5723 8.57649 17.6518 8.53091 17.7292 8.48657C17.9476 8.36149 18.1489 8.24623 18.3635 8.17622C18.6582 8.08014 18.9791 8.06814 19.4126 8.21945L19.7053 8.3216L19.3968 8.28652C19.1715 8.2609 18.9431 8.28803 18.7304 8.36571L18.7302 8.3658C18.4072 8.48114 18.108 8.69589 17.7554 8.95385L17.7553 8.9539C17.7379 8.96659 17.7204 8.97938 17.7027 8.99227C17.0121 9.49572 16.1227 10.1441 14.5248 10.5355L14.5335 10.5785L13.8287 10.4545ZM14.4444 10.4925L14.4427 10.484L14.4754 10.4762C16.08 10.0889 16.9676 9.44189 17.6611 8.93638C17.6786 8.92356 17.6961 8.91083 17.7134 8.8982M14.4444 10.4925L13.9117 10.3987L14.4444 10.4925Z" fill="#7B3F00"/>
<path fill-rule="evenodd" clip-rule="evenodd" d="M17.7788 9.08533C17.0813 9.59454 16.1635 10.2645 14.5202 10.6605L14.483 10.5109C16.0956 10.1224 16.9929 9.46735 17.6863 8.96118C17.7022 8.94954 17.7181 8.93797 17.7338 8.92648C18.0827 8.67199 18.3904 8.45175 18.717 8.33436C19.0491 8.21503 19.3975 8.2027 19.8271 8.35232L19.7749 8.49749C19.3777 8.35915 19.0668 8.37261 18.7707 8.47902C18.4691 8.58738 18.1798 8.79284 17.8269 9.05021C17.811 9.06183 17.795 9.07354 17.7788 9.08533Z" fill="#7B3F00"/>
<path d="M11.8518 11.666L12.958 12.7549L17.9358 5.67711L10.7457 10.5771L11.8518 11.666L17.9358 5.67711L11.8518 11.666Z" fill="#FCD116"/>
<path fill-rule="evenodd" clip-rule="evenodd" d="M12.969 12.8746L10.6241 10.5664L18.245 5.37283L12.969 12.8746ZM12.9471 12.6353L17.3777 6.33543L11.9625 11.6661L12.9471 12.6353ZM11.8519 11.5572L17.2671 6.22654L10.8673 10.588L11.8519 11.5572Z" fill="#7B3F00"/>
<path d="M11.8518 11.666L10.7456 10.5771L11.8518 11.666L17.9357 5.67713L10.7456 10.5771" fill="#FCD116"/>
<path d="M14.1698 12.1946L15.3415 11.4222C17.675 14.596 19.0549 12.6584 19.8018 14.9075C18.4148 13.5086 18.1538 15.0745 15.2629 13.8959" fill="#FCD116"/>
<path fill-rule="evenodd" clip-rule="evenodd" d="M14.0613 12.1733L15.3607 11.3168L15.4049 11.3769C15.9839 12.1644 16.501 12.6311 16.9605 12.9247C17.4195 13.2181 17.8249 13.3412 18.187 13.4371C18.2272 13.4478 18.2672 13.4581 18.3067 13.4684C18.6196 13.5496 18.9096 13.625 19.1624 13.7969C19.4519 13.9938 19.6861 14.3112 19.8762 14.8834L19.9806 15.1979L19.7458 14.9611C19.4048 14.6172 19.1403 14.4629 18.8942 14.3994C18.646 14.3353 18.4076 14.3606 18.1055 14.3954L18.0907 14.3972C17.7936 14.4315 17.4436 14.472 16.9896 14.431C16.528 14.3894 15.962 14.2641 15.233 13.9669L15.1608 13.9375L15.2206 13.7952L15.2929 13.8247C16.0094 14.1168 16.5601 14.2377 17.0038 14.2777C17.4415 14.3171 17.778 14.2782 18.0747 14.2439L18.0872 14.2425C18.3851 14.2081 18.6527 14.1778 18.9339 14.2504C19.148 14.3057 19.365 14.4189 19.6105 14.6246C19.4533 14.2675 19.2741 14.06 19.0735 13.9236C18.8447 13.768 18.5828 13.6997 18.2659 13.6172C18.2269 13.607 18.187 13.5966 18.1463 13.5858C17.7783 13.4883 17.3546 13.3602 16.8753 13.0539C16.4085 12.7556 15.8927 12.2909 15.3226 11.5272L14.1483 12.3013L14.0613 12.1733Z" fill="#7B3F00"/>
<path d="M14.1698 12.1947L14.5291 12.7023L14.5439 12.6806C15.999 13.5488 17.1167 13.6962 17.9805 13.8233C18.414 13.8862 18.7852 13.9431 19.1021 14.0889C19.3133 14.1843 19.4987 14.3274 19.6431 14.5067C18.8641 12.8973 17.5169 14.3816 15.3416 11.4223L14.1698 12.1947Z" fill="#FCD116"/>
<path fill-rule="evenodd" clip-rule="evenodd" d="M14.1205 12.1855L15.3502 11.3749L15.3701 11.4019C15.9121 12.1393 16.4015 12.5983 16.8419 12.8978C17.2821 13.1971 17.6749 13.338 18.0257 13.4374C18.117 13.4632 18.206 13.4864 18.2926 13.5089C18.5369 13.5725 18.762 13.631 18.9641 13.7309C19.2415 13.8681 19.4771 14.083 19.675 14.4918L19.8085 14.7677L19.6156 14.5282C19.4746 14.3532 19.2937 14.2135 19.0875 14.1203L19.0872 14.1202C18.7759 13.9769 18.4101 13.9206 17.9754 13.8575L17.9753 13.8575C17.9539 13.8544 17.9323 13.8512 17.9105 13.848C17.0605 13.7233 15.9657 13.5627 14.5545 12.7273L14.5298 12.7637L14.1205 12.1855ZM14.5286 12.6408L14.5335 12.6337L14.5622 12.6509C15.9752 13.494 17.0677 13.6543 17.9212 13.7795C17.9429 13.7827 17.9644 13.7858 17.9857 13.789C18.4181 13.8517 18.7946 13.9091 19.1169 14.0574C19.2499 14.1174 19.3728 14.1959 19.4821 14.2902C19.3205 14.0411 19.138 13.8945 18.9325 13.7929C18.7375 13.6964 18.5226 13.6405 18.2809 13.5776C18.193 13.5547 18.1016 13.531 18.0063 13.504C17.651 13.4033 17.2505 13.2598 16.8019 12.9548C16.3591 12.6537 15.8708 12.1962 15.333 11.4696L14.2193 12.2038L14.5286 12.6408Z" fill="#7B3F00"/>
<path fill-rule="evenodd" clip-rule="evenodd" d="M17.8974 13.9671C17.0383 13.8416 15.9079 13.6765 14.4614 12.8127L14.5425 12.681C15.962 13.5287 17.0671 13.6901 17.9211 13.8149C17.9408 13.8178 17.9603 13.8206 17.9797 13.8234C18.4093 13.8864 18.785 13.9448 19.1003 14.0891C19.4209 14.2359 19.6762 14.4697 19.8724 14.8745L19.7313 14.9408C19.5498 14.5665 19.3202 14.3596 19.0344 14.2287C18.7433 14.0955 18.3911 14.0394 17.9566 13.9758C17.937 13.9729 17.9173 13.97 17.8974 13.9671Z" fill="#7B3F00"/>
<path d="M11.8519 11.6664V13.2063L20.4568 11.6664L11.8519 10.1265V11.6664H20.4568H11.8519Z" fill="#FCD116"/>
<path fill-rule="evenodd" clip-rule="evenodd" d="M11.7737 13.2985V10.0341L20.8941 11.6663L11.7737 13.2985ZM11.9301 13.1139L19.5892 11.7433H11.9301V13.1139ZM11.9301 11.5893H19.5892L11.9301 10.2186V11.5893Z" fill="#7B3F00"/>
<path d="M11.8519 11.6663V10.1263V11.6663H20.4568L11.8519 10.1263" fill="#FCD116"/>
<path d="M13.1113 13.6531L14.4947 13.9225C13.8647 17.791 16.2323 17.3812 15.1447 19.4916C15.1689 17.537 13.8621 18.4421 12.6647 15.5965" fill="#FCD116"/>
<path fill-rule="evenodd" clip-rule="evenodd" d="M13.0498 13.5626L14.5839 13.8613L14.5719 13.9347C14.4156 14.8945 14.446 15.5844 14.5599 16.1119C14.6738 16.6388 14.872 17.008 15.0591 17.3279C15.0799 17.3634 15.1007 17.3986 15.1213 17.4334C15.2841 17.7085 15.4351 17.9637 15.4903 18.2612C15.5536 18.6019 15.4912 18.9894 15.2145 19.5264L15.0624 19.8215L15.0665 19.4906C15.0725 19.0101 14.9965 18.7154 14.8681 18.4971C14.7388 18.277 14.5521 18.1263 14.3139 17.9382C14.3091 17.9345 14.3044 17.9307 14.2996 17.9269C14.0658 17.7424 13.7907 17.5252 13.5005 17.1798C13.2044 16.8273 12.8944 16.3435 12.5925 15.626L12.5625 15.5548L12.7071 15.4959L12.737 15.567C13.0338 16.2723 13.3362 16.7425 13.6211 17.0817C13.901 17.4148 14.1657 17.6238 14.3992 17.8081L14.4118 17.8181C14.6469 18.0037 14.8573 18.1711 15.0035 18.4199C15.1149 18.6094 15.1868 18.8416 15.2126 19.1583C15.3579 18.7964 15.3803 18.525 15.3364 18.2889C15.2865 18.0196 15.1503 17.7891 14.9856 17.5102C14.9653 17.4758 14.9446 17.4407 14.9235 17.4047C14.7334 17.0796 14.5258 16.6941 14.4069 16.1439C14.2911 15.6081 14.2603 14.9205 14.4058 13.9836L13.0194 13.7137L13.0498 13.5626Z" fill="#7B3F00"/>
<path d="M13.1113 13.6531L13.0007 14.2622L13.0267 14.2571C13.4318 15.8838 14.1163 16.766 14.6357 17.4571C14.8972 17.8034 15.1187 18.102 15.238 18.4256C15.3188 18.6401 15.3471 18.8704 15.3204 19.0977C15.9257 17.4173 13.9069 17.5293 14.4946 13.9225L13.1113 13.6531Z" fill="#FCD116"/>
<path fill-rule="evenodd" clip-rule="evenodd" d="M13.083 13.6122L14.5348 13.895L14.5294 13.928C14.383 14.8266 14.3992 15.4918 14.4955 16.0102C14.5918 16.5282 14.7683 16.9012 14.945 17.2157C14.9909 17.2975 15.0372 17.3758 15.0823 17.452C15.2094 17.667 15.3264 17.8651 15.3976 18.0764C15.4952 18.3665 15.5074 18.6825 15.3537 19.1092L15.2499 19.3973L15.2855 19.0936C15.3115 18.8718 15.284 18.647 15.2051 18.4376L15.205 18.4374C15.0878 18.1194 14.8696 17.8249 14.6076 17.4778L14.6075 17.4777C14.5946 17.4605 14.5816 17.4433 14.5685 17.4259C14.057 16.746 13.3983 15.8704 13.0007 14.2975L12.957 14.306L13.083 13.6122ZM13.0444 14.2183L13.053 14.2167L13.061 14.2488C13.4544 15.8285 14.1117 16.7023 14.6253 17.3849C14.6383 17.4022 14.6513 17.4194 14.6641 17.4365M13.0444 14.2183L13.1397 13.6939L13.0444 14.2183Z" fill="#7B3F00"/>
<path fill-rule="evenodd" clip-rule="evenodd" d="M14.4737 17.5009C13.9564 16.8142 13.2757 15.9107 12.8735 14.293L13.0255 14.2564C13.4202 15.8439 14.0856 16.7272 14.5999 17.4098C14.6117 17.4255 14.6234 17.4411 14.6351 17.4566C14.8937 17.8001 15.1174 18.1029 15.2367 18.4245C15.3579 18.7514 15.3704 19.0944 15.2184 19.5173L15.0709 19.4659C15.2115 19.0749 15.1978 18.7688 15.0897 18.4773C14.9796 18.1805 14.7709 17.8957 14.5094 17.5483C14.4976 17.5326 14.4857 17.5168 14.4737 17.5009Z" fill="#7B3F00"/>
<path d="M11.852 11.6663L10.7457 12.7552L17.9363 17.6555L12.9582 10.5773L11.852 11.6663L17.9363 17.6555L11.852 11.6663Z" fill="#FCD116"/>
<path fill-rule="evenodd" clip-rule="evenodd" d="M10.624 12.7661L12.969 10.4577L18.2453 17.96L10.624 12.7661ZM10.8672 12.7445L17.2674 17.1062L11.8518 11.7753L10.8672 12.7445ZM11.9625 11.6664L17.378 16.9973L12.9471 10.6971L11.9625 11.6664Z" fill="#7B3F00"/>
<path d="M11.8518 11.6664L12.958 10.5774L11.8518 11.6664L17.9361 17.6556L12.958 10.5774" fill="#FCD116"/>
<path d="M11.3166 13.9484L10.7995 14.3011L10.8226 14.3137C9.94203 15.7449 9.79101 16.846 9.66303 17.6976C9.59903 18.1235 9.54016 18.4888 9.3917 18.8012C9.29458 19.0089 9.149 19.1911 8.9668 19.3329C10.5999 18.5669 9.09478 17.2416 12.0998 15.0999L11.3166 13.9484Z" fill="#7B3F00"/>
<path fill-rule="evenodd" clip-rule="evenodd" d="M11.3262 13.8989L12.1489 15.1085L12.1209 15.1284C11.3722 15.662 10.906 16.1436 10.6017 16.5771C10.2977 17.0103 10.1544 17.3968 10.0533 17.742C10.027 17.8318 10.0034 17.9195 9.9805 18.0047C9.91586 18.245 9.85627 18.4665 9.75479 18.6653C9.61543 18.9383 9.39715 19.1701 8.98228 19.3647L8.69507 19.4994L8.94464 19.3052C9.12241 19.1668 9.26446 18.9891 9.35922 18.7865L9.35931 18.7863C9.50516 18.4793 9.5635 18.1193 9.62765 17.6924C9.6303 17.6748 9.63296 17.657 9.63565 17.6391C9.76144 16.8001 9.92348 15.7193 10.7728 14.3268L10.7318 14.3044L11.3262 13.8989ZM10.8673 14.2978L10.8725 14.3006L10.8533 14.332C9.99471 15.7274 9.83289 16.8068 9.7065 17.6497C9.70384 17.6675 9.70119 17.6852 9.69854 17.7028C9.63471 18.1275 9.57531 18.4982 9.42428 18.8161C9.36398 18.945 9.28544 19.0643 9.19136 19.1707C9.44091 19.0126 9.58833 18.8343 9.69075 18.6336C9.78863 18.4419 9.84547 18.2307 9.90944 17.993C9.93273 17.9064 9.95696 17.8164 9.98446 17.7225C10.0869 17.3729 10.2328 16.9786 10.5428 16.537C10.8487 16.1012 11.3133 15.6206 12.0509 15.0912L11.3071 13.9977L10.8673 14.2978Z" fill="#7B3F00"/>
<path fill-rule="evenodd" clip-rule="evenodd" d="M9.5141 17.6165C9.64161 16.7711 9.80935 15.6588 10.6867 14.236L10.8202 14.3157C9.9592 15.712 9.79519 16.7994 9.66843 17.6399C9.66548 17.6594 9.66255 17.6789 9.65963 17.6982C9.59568 18.121 9.53628 18.4908 9.38946 18.8012C9.24021 19.1166 9.00243 19.3678 8.59086 19.5609L8.52368 19.4222C8.90432 19.2436 9.11481 19.0176 9.24792 18.7363C9.38346 18.4498 9.44052 18.1031 9.50519 17.6755C9.50815 17.656 9.51111 17.6363 9.5141 17.6165Z" fill="#7B3F00"/>
<path d="M11.8516 11.6654H10.2876L11.8516 20.1365L13.4155 11.6654H11.8516V20.1365V11.6654Z" fill="#FCD116"/>
<path fill-rule="evenodd" clip-rule="evenodd" d="M10.194 11.5886H13.5089L11.8515 20.5664L10.194 11.5886ZM10.381 11.7423L11.7734 19.2839V11.7423H10.381ZM11.9295 11.7423V19.2839L13.3219 11.7423H11.9295Z" fill="#7B3F00"/>
<path d="M11.8517 11.6654V20.1365L13.4156 11.6654" fill="#7B3F00"/>
<path d="M11.8516 11.6655L5.76733 17.6548L12.9574 12.754" fill="#7B3F00"/>
<path d="M11.8516 14.49C13.4363 14.49 14.7209 13.2254 14.7209 11.6655C14.7209 10.1055 13.4363 8.84094 11.8516 8.84094C10.2668 8.84094 8.98218 10.1055 8.98218 11.6655C8.98218 13.2254 10.2668 14.49 11.8516 14.49Z" fill="#FCD116"/>
<path fill-rule="evenodd" clip-rule="evenodd" d="M11.8516 8.91774C10.31 8.91774 9.06031 10.1479 9.06031 11.6654C9.06031 13.1829 10.31 14.4131 11.8516 14.4131C13.3932 14.4131 14.6429 13.1829 14.6429 11.6654C14.6429 10.1479 13.3932 8.91774 11.8516 8.91774ZM8.90417 11.6654C8.90417 10.063 10.2238 8.76404 11.8516 8.76404C13.4795 8.76404 14.7991 10.063 14.7991 11.6654C14.7991 13.2678 13.4795 14.5668 11.8516 14.5668C10.2238 14.5668 8.90417 13.2678 8.90417 11.6654Z" fill="#7B3F00"/>
<path d="M13.9634 10.5368C13.7816 10.7409 13.6767 10.3831 13.024 10.3831C12.3713 10.3831 12.2689 10.7686 12.1639 10.6905C12.059 10.6124 12.7117 10.1513 12.919 10.1261C13.3012 10.1531 13.6654 10.2966 13.9608 10.5368M13.2057 10.7686C13.2395 10.8076 13.2626 10.8544 13.273 10.9045C13.2834 10.9547 13.2807 11.0067 13.2651 11.0556C13.2494 11.1044 13.2215 11.1486 13.1838 11.1839C13.1461 11.2192 13.0999 11.2445 13.0496 11.2574C12.8678 11.2574 12.5274 10.95 12.6835 10.7434" fill="#7B3F00"/>
<path d="M12.3481 10.9978C12.3737 10.6904 12.6348 10.6375 13.052 10.6375C13.4693 10.6375 13.651 10.9449 13.8071 11.023C13.6254 11.023 13.4693 10.766 13.052 10.766C12.6348 10.766 12.6348 10.766 12.3481 11.023M12.4275 11.0734C12.5324 10.9197 12.663 11.2271 12.9496 11.2271C13.1759 11.2347 13.3975 11.1623 13.5742 11.023C13.7559 10.8945 13.3131 11.3304 13.0264 11.3304C12.7398 11.3304 12.3481 11.1767 12.4275 11.0734ZM10.3925 10.7408C10.262 10.7912 10.0547 11.0482 10.3925 11.2296C10.1315 11.0507 10.3414 10.7937 10.3925 10.7408Z" fill="#7B3F00"/>
<path d="M13.3131 10.7434C13.3643 10.7938 13.5742 11.0508 13.3131 11.2322C13.651 11.0533 13.4436 10.7963 13.3131 10.7434ZM11.4368 11.847C11.2014 11.8974 11.2807 12.2325 11.0708 12.2577C10.8609 12.2829 10.7585 12.5147 10.7841 12.4895C10.9147 12.3862 11.2014 12.3106 11.4087 12.3106C11.616 12.3106 11.6698 12.4391 11.8515 12.4391C12.0332 12.4391 12.087 12.3106 12.2943 12.3106C12.5017 12.3106 12.7909 12.3888 12.9189 12.4895C12.9445 12.5147 12.8395 12.2854 12.6322 12.2577C12.4249 12.23 12.5017 11.8974 12.2662 11.847C12.2662 11.9503 12.3455 11.9251 12.3711 12.0788C12.3711 12.2073 12.1356 12.2073 12.0844 12.0788C12.1356 12.2829 11.9795 12.2829 11.8489 12.2829C11.7184 12.2829 11.5623 12.2829 11.6135 12.0788C11.5623 12.2073 11.3268 12.2073 11.3268 12.0788C11.3524 11.9251 11.4317 11.9503 11.4317 11.847H11.4368ZM10.628 12.7188C10.4207 12.8725 10.3669 12.9506 10.3413 13.1295C10.3832 13.0551 10.4303 12.9835 10.4821 12.9154L10.4463 12.9002L10.4898 12.9053L10.628 12.7188Z" fill="#7B3F00"/>
<path d="M10.4873 12.9051L10.4847 12.9101C10.518 12.9177 10.5513 12.9202 10.5871 12.9202L10.4873 12.9051ZM10.5871 12.9202C10.7251 12.945 10.8612 12.9795 10.9941 13.0235C11.14 13.0134 11.3422 12.9756 11.8516 12.9756C12.361 12.9756 12.5632 13.0109 12.7091 13.0235C12.8421 12.9795 12.9781 12.945 13.1161 12.9202C12.8294 12.9202 12.4454 12.7186 12.2688 12.7186C12.0615 12.7186 12.0077 12.769 11.8516 12.769C11.6955 12.769 11.6443 12.7186 11.4344 12.7186C11.2578 12.7186 10.8738 12.9202 10.5871 12.9202ZM13.1161 12.9202C13.1519 12.9202 13.1877 12.9177 13.2185 12.9101L13.2159 12.9051L13.1161 12.9202Z" fill="#7B3F00"/>
<path d="M13.2159 12.9051L13.2594 12.9L13.2235 12.9152C13.2754 12.9833 13.3224 13.0549 13.3643 13.1293C13.3387 12.9504 13.285 12.8723 13.0776 12.7186L13.2159 12.9051Z" fill="#7B3F00"/>
<path d="M13.2236 12.9128C12.9498 13.0136 12.855 13.0312 12.7091 13.0212C12.4609 13.0993 12.2586 13.1799 11.8517 13.1799C11.4447 13.1799 11.2425 13.0993 10.9942 13.0212C10.8483 13.0312 10.7536 13.0136 10.4822 12.9103C11.2988 13.258 11.2117 13.384 11.8517 13.384C12.4916 13.384 12.4045 13.258 13.2236 12.9128ZM10.4822 12.9103C10.472 12.9027 10.4566 12.9002 10.4438 12.8977L10.4822 12.9103ZM13.2236 12.9103L13.262 12.8977C13.2492 12.9027 13.2364 12.9053 13.2211 12.9078L13.2236 12.9103Z" fill="#7B3F00"/>
<path d="M9.7391 10.5366C9.92168 10.742 10.026 10.3826 10.6781 10.3826C11.3302 10.3826 11.4345 10.7677 11.5388 10.6907C11.6432 10.6137 10.9911 10.1515 10.7824 10.1258C10.5738 10.1002 9.97385 10.3056 9.7391 10.5366ZM10.4955 10.7677C10.3129 10.9218 10.4694 11.2556 10.652 11.2556C10.8346 11.2556 11.1737 10.9474 11.0172 10.742" fill="#7B3F00"/>
<path d="M11.3562 10.9989C11.3301 10.6908 11.0693 10.6394 10.652 10.6394C10.2346 10.6394 10.0521 10.9475 9.89556 11.0245C10.0781 11.0245 10.2346 10.7678 10.652 10.7678C11.0693 10.7678 11.0693 10.7678 11.3562 11.0245M11.278 11.0759C11.1736 10.9218 11.0432 11.2299 10.7563 11.2299C10.4694 11.2299 10.3129 11.1529 10.1303 11.0245C9.94772 10.8962 10.3911 11.3326 10.678 11.3326C10.965 11.3326 11.3562 11.1786 11.278 11.0759Z" fill="#7B3F00"/>
<path d="M11.8517 13.6182C11.7211 13.6182 11.3832 13.6963 11.8517 13.6963C12.3201 13.6963 11.9822 13.6182 11.8517 13.6182Z" fill="#7B3F00"/>
</g>
<defs>
<clipPath id="clip0_37941_2371">
<rect width="64" height="42" rx="5" fill="white"/>
</clipPath>
</defs>
</svg>
