<svg xmlns="http://www.w3.org/2000/svg" width="64" height="42" fill="none" viewBox="0 0 64 42"><g clip-path="url(#a)"><rect width="64" height="42" fill="#fff" rx="5"/><rect width="63" height="41" x="1" y="1" fill="#fff" stroke="#f5f5f5" rx="5"/><path fill="red" d="M27.6489-.806h8.7021v43.612h-8.7021z"/><path fill="red" d="M67.224 16.649v8.702H-6.448v-8.702zM15.19 5.679a18.8 18.8 0 0 0-.225 1.98 18.7 18.7 0 0 0 1.981-.224l1.378-.23a6.77 6.77 0 0 0 0 3.142l-1.378-.231a18.7 18.7 0 0 0-1.98-.224c.04.663.115 1.324.225 1.98l.231 1.378a6.77 6.77 0 0 0-3.142 0l.231-1.378c.11-.657.183-1.318.223-1.98a18.8 18.8 0 0 0-1.979.224l-1.378.232a6.77 6.77 0 0 0 0-3.142l1.378.23c.656.11 1.317.184 1.98.224a18.7 18.7 0 0 0-.223-1.979l-.231-1.378a6.77 6.77 0 0 0 3.142 0zm36.301 0a18.7 18.7 0 0 0-.225 1.98 18.7 18.7 0 0 0 1.98-.224l1.378-.23a6.77 6.77 0 0 0 0 3.142l-1.378-.231a18.7 18.7 0 0 0-1.98-.224c.04.663.115 1.324.225 1.98l.23 1.378a6.77 6.77 0 0 0-3.142 0l.232-1.378c.11-.657.183-1.318.223-1.98a18.8 18.8 0 0 0-1.979.224l-1.378.232a6.77 6.77 0 0 0 0-3.142l1.378.23c.656.11 1.317.184 1.979.224a18.7 18.7 0 0 0-.223-1.979l-.231-1.378a6.77 6.77 0 0 0 3.142 0zM15.19 30.129a18.8 18.8 0 0 0-.225 1.98 18.7 18.7 0 0 0 1.981-.224l1.378-.23a6.77 6.77 0 0 0 0 3.142l-1.378-.231a18.8 18.8 0 0 0-1.98-.224 18.7 18.7 0 0 0 .225 1.981l.231 1.378a6.77 6.77 0 0 0-3.142 0l.231-1.378c.11-.657.183-1.318.223-1.98a18.7 18.7 0 0 0-1.979.224l-1.378.231a6.77 6.77 0 0 0 0-3.142l1.378.231a18.7 18.7 0 0 0 1.98.224 18.7 18.7 0 0 0-.223-1.979l-.231-1.378a6.77 6.77 0 0 0 3.142 0zm36.301 0a18.7 18.7 0 0 0-.225 1.98 18.7 18.7 0 0 0 1.98-.224l1.378-.23a6.77 6.77 0 0 0 0 3.142l-1.378-.231a18.8 18.8 0 0 0-1.98-.224 18.7 18.7 0 0 0 .225 1.981l.23 1.378a6.77 6.77 0 0 0-3.142 0l.232-1.378c.11-.657.183-1.318.223-1.98a18.7 18.7 0 0 0-1.979.224l-1.378.231a6.77 6.77 0 0 0 0-3.142l1.378.231a18.7 18.7 0 0 0 1.979.224 18.7 18.7 0 0 0-.223-1.979l-.231-1.378a6.77 6.77 0 0 0 3.142 0z"/></g><defs><clipPath id="a"><rect width="64" height="42" fill="#fff" rx="5"/></clipPath></defs></svg>