<svg xmlns="http://www.w3.org/2000/svg" width="64" height="42" fill="none" viewBox="0 0 64 42"><g clip-path="url(#a)"><rect width="64" height="42" fill="#fff" rx="5"/><path fill="#e7832c" fill-rule="evenodd" d="M44.9735 6.6135c.7859-.393 1.5836.5106 1.0962 1.2417l-.9506 1.4258a1.31 1.31 0 0 1-.3639.364l-3.9916 2.661a1.44 1.44 0 0 0-.2199.1803l-.3216.3216c-.5635.5635-.5635 1.4771 0 2.0406l.8452.8453c.5635.5635.5635 1.4771 0 2.0406l-1.1301 1.1302a1.443 1.443 0 0 1-1.6657.2703l-.665-.3326c-.7128-.3564-1.5795-.0675-1.9359.6453l-.5304 1.0607a1.443 1.443 0 0 1-.8343.7236l-3.5397 1.1799a1.44 1.44 0 0 1-.4563.074H28.55a1.443 1.443 0 0 0-1.2906.7977l-.3988.7976c-.3564.7128-1.2231 1.0017-1.9359.6453l-4.2718-2.1358a1.45 1.45 0 0 1-.375-.2703l-2.2977-2.2977a1.443 1.443 0 0 1-.4226-1.0203v-1.2679c0-.5635.4568-1.0203 1.0203-1.0203.2706 0 .5302-.1075.7215-.2989l2.1644-2.1644a1.443 1.443 0 0 1 1.0203-.4226h1.2482a1.443 1.443 0 0 0 1.3689-.9867l.7113-2.1337a1.443 1.443 0 0 1 1.6518-.9586l5.6475 1.1295c.2095.0419.4257.0367.633-.0151l5.3033-1.3258a1.44 1.44 0 0 0 .2953-.1093l2.7442-1.372z" clip-rule="evenodd"/><circle cx="32" cy="33" r="1" fill="#445128"/><path stroke="#445128" stroke-linecap="round" stroke-width="3" d="M36.316 31.144s4.329-1.443 5.772-4.329m-14.43 4.329s-4.329-1.443-5.772-4.329"/><rect width="63" height="41" x="1" y="1" stroke="#f5f5f5" rx="5"/></g><defs><clipPath id="a"><rect width="64" height="42" fill="#fff" rx="5"/></clipPath></defs></svg>