<svg xmlns="http://www.w3.org/2000/svg" width="64" height="42" fill="none" viewBox="0 0 64 42"><g clip-path="url(#a)"><rect width="64" height="42" fill="#fff" rx="5"/><rect width="63" height="41" x="1" y="1" stroke="#f5f5f5" rx="5"/><path fill="#0c47b7" fill-rule="evenodd" d="M0 27.9997h64V13.9998H0z" clip-rule="evenodd"/><path fill="#e53b35" fill-rule="evenodd" d="M0 41.9999h64V28H0z" clip-rule="evenodd"/><mask id="b" width="21" height="27" x="8" y="7" fill="#000" maskUnits="userSpaceOnUse"><path fill="#fff" d="M7.9586 7.0836h21v27h-21z"/><path fill-rule="evenodd" d="M9.9586 20.4722V9.0836H26.228v11.3886c0 8.1347-8.1347 11.3886-8.1347 11.3886s-8.1347-3.2539-8.1347-11.3886" clip-rule="evenodd"/></mask><path fill="#f73744" fill-rule="evenodd" d="M9.9586 20.4722V9.0836H26.228v11.3886c0 8.1347-8.1347 11.3886-8.1347 11.3886s-8.1347-3.2539-8.1347-11.3886" clip-rule="evenodd"/><path stroke="#fff" stroke-width="4" d="M9.9586 20.4722V9.0836H26.228v11.3886c0 8.1347-8.1347 11.3886-8.1347 11.3886s-8.1347-3.2539-8.1347-11.3886Z" clip-rule="evenodd" mask="url(#b)"/><path fill="#fff" fill-rule="evenodd" d="M16.9285 21.9927a.5825.5825 0 0 0-.5825-.5825h-2.3297a.5824.5824 0 0 1-.5825-.5824v-1.1649a.5824.5824 0 0 1 .5825-.5824h2.3297a.5825.5825 0 0 0 .5825-.5825v-1.1649a.5825.5825 0 0 0-.5825-.5824h-1.1648a.5825.5825 0 0 1-.5825-.5824v-1.1649a.5825.5825 0 0 1 .5825-.5825h1.1648a.5824.5824 0 0 0 .5825-.5824v-1.1649a.5824.5824 0 0 1 .5824-.5824h1.1649a.5824.5824 0 0 1 .5824.5824v1.1649c0 .3217.2608.5824.5825.5824h1.1649a.5825.5825 0 0 1 .5824.5825v1.1649a.5825.5825 0 0 1-.5824.5824h-1.1649a.5825.5825 0 0 0-.5825.5824v1.1649c0 .3217.2608.5825.5825.5825h2.3297a.5824.5824 0 0 1 .5825.5824v1.1649a.5824.5824 0 0 1-.5825.5824h-2.3297a.5825.5825 0 0 0-.5825.5825v3.4946a.5823.5823 0 0 1-.5824.5824h-1.1649a.5823.5823 0 0 1-.5824-.5824z" clip-rule="evenodd"/><path fill="#1251a1" fill-rule="evenodd" d="M23.7601 27.5179c-2.3938 3.0337-5.6669 4.3429-5.6669 4.3429s-3.2729-1.3092-5.6667-4.3427c.8707-.6019 2.1155-1.0596 3.5639-1.2878.3751-.784 1.1757-1.3256 2.1029-1.3256s1.7278.5415 2.1029 1.3256c1.4483.2282 2.6931.6858 3.5639 1.2876" clip-rule="evenodd"/></g><defs><clipPath id="a"><rect width="64" height="42" fill="#fff" rx="5"/></clipPath></defs></svg>