<svg xmlns="http://www.w3.org/2000/svg" width="64" height="42" fill="none" viewBox="0 0 64 42"><g clip-path="url(#a)"><rect width="64" height="42" fill="#fff" rx="5"/><rect width="63" height="41" x="1" y="1" stroke="#f5f5f5" rx="5"/><path fill="#ff202d" d="M0 0h64v14H0z"/><path fill="#2027ac" d="M0 28h64v14H0z"/><path fill="#1895db" fill-rule="evenodd" d="m24.9954 11.1955 1.4009-1.4009 1.4009 1.4009v2.8019h-2.8018zm5.6035 0 1.401-1.4009 1.4009 1.4009v2.8019h-2.8019zm7.0049-1.4009-1.4009 1.4009v2.8019h2.8019v-2.8019z" clip-rule="evenodd"/><path fill="#191f94" fill-rule="evenodd" d="m29.1982 9.7946-1.401 1.4009v2.8019h2.8019v-2.8019zm5.6035 0-1.4009 1.4009v2.8019h2.8018v-2.8019z" clip-rule="evenodd"/><path fill="url(#b)" fill-rule="evenodd" d="M30.599 13.9973h2.8018v2.8019H30.599zm5.6039 0h1.401l1.4009 2.8019h-2.8019zm-8.4056.0001h-1.401l-1.4009 2.8018h2.8018v2.8019h2.8019v-2.8019h-2.8018zm8.4054 2.8018h-2.8019v2.8019h2.8019zm-5.6037 2.8019h2.8018v2.8019H30.599zm8.4058 2.8019v-2.8019h-2.8019v2.8019zm-5.604 0h2.8019v2.8019h-2.8019zm-5.6036-2.8019h-2.8018v2.8019h2.8018zm0 2.8019h2.8019v2.8017h2.8017v2.8019H30.599v-2.8017h-2.8018zm0 2.8017h-2.8018v2.8019h2.8018zm11.2076 2.8019v-2.8019h-2.8019v2.8019zm-5.604.0001h2.8019v2.8019h-2.8019zm-2.8017 0h-2.8019v2.8019h2.8019z" clip-rule="evenodd"/></g><defs><linearGradient id="b" x1="25" x2="25" y1="14" y2="31" gradientUnits="userSpaceOnUse"><stop stop-color="#ff212e"/><stop offset="1" stop-color="#fd0d1b"/></linearGradient><clipPath id="a"><rect width="64" height="42" fill="#fff" rx="5"/></clipPath></defs></svg>