<svg xmlns="http://www.w3.org/2000/svg" width="64" height="42" fill="none" viewBox="0 0 64 42"><g clip-path="url(#a)"><rect width="64" height="42" fill="#fff" rx="5"/><path fill="#e81b26" d="M0 0h64v42H0z"/><circle cx="32" cy="21" r="7" fill="#ffe94f"/><path fill="#ffe94f" fill-rule="evenodd" d="M25.4858 28.3217a9.85 9.85 0 0 1-1.4488-1.6081L1.0988 43.172l5.6207 6.2424zm8.4365-16.9332L36.2 0h-8.4l2.2777 11.3886a9.84 9.84 0 0 1 1.9224-.1885c.6579 0 1.3006.0648 1.9222.1884m-3.8446 19.2231L27.8 42h8.4l-2.2777-11.3884a9.84 9.84 0 0 1-1.9222.1885 9.84 9.84 0 0 1-1.9224-.1885m8.4365-2.2898a9.86 9.86 0 0 0 1.4489-1.6082l22.938 16.4584-5.6207 6.2424zm3.2056-6.0618L64.4 25.2v-8.4l-22.6802 2.94a9.9 9.9 0 0 1 .0803 1.2601 9.9 9.9 0 0 1-.0803 1.2599m-1.7567-6.9735L62.9012-1.1718l-5.6207-6.2424-18.7662 21.0926a9.86 9.86 0 0 1 1.4488 1.6081M22.2803 22.26a9.9 9.9 0 0 1-.0802-1.2599c0-.4269.0273-.8475.0802-1.26L-.4 16.8v8.4zm3.2055-8.5815L6.7194-7.4142 1.0987-1.1718 24.037 15.2866a9.85 9.85 0 0 1 1.4488-1.6081" clip-rule="evenodd"/></g><defs><clipPath id="a"><rect width="64" height="42" fill="#fff" rx="5"/></clipPath></defs></svg>