<svg xmlns="http://www.w3.org/2000/svg" width="64" height="42" fill="none" viewBox="0 0 64 42"><g clip-path="url(#a)"><rect width="64" height="42" fill="#fff" rx="5"/><path fill="#262626" fill-rule="evenodd" d="M0 11.2h64V0H0z" clip-rule="evenodd"/><path fill="#018301" fill-rule="evenodd" d="M0 41.9999h64v-11.2H0z" clip-rule="evenodd"/><path fill="#fff" fill-rule="evenodd" d="M2.6 30.8002h58.8V11.2001H2.6z" clip-rule="evenodd"/><path fill="#dc0808" fill-rule="evenodd" d="M0 28h64V13.9999H0z" clip-rule="evenodd"/><ellipse cx="32" cy="21" fill="#bc0000" rx="7" ry="14"/><mask id="b" width="15" height="29" x="24" y="6" maskUnits="userSpaceOnUse" style="mask-type:luminance"><ellipse cx="32" cy="21" fill="#fff" rx="7" ry="14"/></mask><g mask="url(#b)"><ellipse cx="21" cy="21" fill="#262626" rx="7" ry="15"/><ellipse cx="43" cy="21" fill="#262626" rx="7" ry="15"/><path fill="url(#c)" fill-rule="evenodd" d="M33.3999 11.1999c0 3.088-.6249 5.5923-1.3965 5.6.7716.0058 1.3965 1.884 1.3965 4.2 0 2.3196-.6268 4.2-1.4 4.2s-1.4-1.8804-1.4-4.2c0-2.316.6248-4.1942 1.3964-4.2-.7716-.0077-1.3964-2.512-1.3964-5.6 0-3.0928.6268-5.6 1.4-5.6s1.4 2.5072 1.4 5.6m-1.4 14c.7732 0 1.4 2.5072 1.4 5.6s-.6268 5.6-1.4 5.6-1.4-2.5072-1.4-5.6.6268-5.6 1.4-5.6" clip-rule="evenodd"/></g></g><defs><linearGradient id="c" x1="31" x2="31" y1="6" y2="36" gradientUnits="userSpaceOnUse"><stop stop-color="#fff"/><stop offset="1" stop-color="#f0f0f0"/></linearGradient><clipPath id="a"><rect width="64" height="42" fill="#fff" rx="5"/></clipPath></defs></svg>