<svg xmlns="http://www.w3.org/2000/svg" width="64" height="42" fill="none" viewBox="0 0 64 42"><g clip-path="url(#a)"><rect width="64" height="42" fill="#fff" rx="5"/><path fill="#e92434" d="M0 0h64v42H0z"/><path fill="#fff" fill-rule="evenodd" d="m42.5439 22.6137-2.5722 3.1185.1752-4.0386-3.7606-1.4826 3.895-1.0813.2479-4.0348 2.2321 3.3703 3.9138-1.0111-2.5155 3.1643 2.171 3.4099z" clip-rule="evenodd"/><path fill="#fff" fill-rule="evenodd" d="M39.1458 13.2636c-1.7792-1.2932-4.0162-2.0635-6.446-2.0635-5.799 0-10.5 4.3876-10.5 9.8s4.701 9.8 10.5 9.8c2.4297 0 4.6666-.7703 6.4458-2.0634C36.84 31.6964 33.2422 33.6 29.1999 33.6c-6.9588 0-12.6-5.6412-12.6-12.6s5.6412-12.6 12.6-12.6c4.0425 0 7.6403 1.9038 9.9459 4.8636" clip-rule="evenodd"/></g><defs><clipPath id="a"><rect width="64" height="42" fill="#fff" rx="5"/></clipPath></defs></svg>