<svg xmlns="http://www.w3.org/2000/svg" width="64" height="42" fill="none" viewBox="0 0 64 42"><g clip-path="url(#a)"><rect width="64" height="42" fill="#fff" rx="5"/><path fill="url(#b)" d="M0 0h64v42H0z"/><path fill="#042c90" d="M0 .0001h26.7134v21H0z"/><mask id="c" width="27" height="22" x="0" y="0" maskUnits="userSpaceOnUse" style="mask-type:alpha"><path fill="#0a17a7" d="M0 .0001h26.7133v21H0z"/></mask><g mask="url(#c)"><mask id="d" width="35" height="27" x="-4" y="-3" fill="#000" maskUnits="userSpaceOnUse"><path fill="#fff" d="M-4-2.9999h35v27H-4z"/><path fill-rule="evenodd" d="M10.3885 9.0001 0 .0001h1.484l10.3886 7.5h2.9682l11.8726-7.5v1.5l-10.3886 7.5v3l10.3886 9h-1.2582a.7.7 0 0 1-.4091-.1322l-10.2053-7.3678h-2.9682L0 21.0001v-1.5l10.3885-7.5z" clip-rule="evenodd"/></mask><path fill="#ff2e3b" fill-rule="evenodd" d="M10.3885 9.0001 0 .0001h1.484l10.3886 7.5h2.9682l11.8726-7.5v1.5l-10.3886 7.5v3l10.3886 9h-1.2582a.7.7 0 0 1-.4091-.1322l-10.2053-7.3678h-2.9682L0 21.0001v-1.5l10.3885-7.5z" clip-rule="evenodd"/><path stroke="#fff" stroke-width="3" d="M10.3885 9.0001 0 .0001h1.484l10.3886 7.5h2.9682l11.8726-7.5v1.5l-10.3886 7.5v3l10.3886 9h-1.2582a.7.7 0 0 1-.4091-.1322l-10.2053-7.3678h-2.9682L0 21.0001v-1.5l10.3885-7.5z" clip-rule="evenodd" mask="url(#d)"/><path fill="#fff" fill-rule="evenodd" d="M0 7.5001v6h10.3885v7.6024c0 .7719.6258 1.3976 1.3976 1.3976h3.1411c.7719 0 1.3976-.6257 1.3976-1.3976v-7.6024h10.4751c.7718 0 1.3975-.6257 1.3975-1.3976V8.8977c0-.7719-.6257-1.3976-1.3975-1.3976H16.3248v-7.5h-5.9363v7.5z" clip-rule="evenodd"/><path fill="#ff2e3b" fill-rule="evenodd" d="M0 9.0001h11.8726v-9h2.9682v9h11.8726v3H14.8408v9h-2.9682v-9H0z" clip-rule="evenodd"/></g><g clip-path="url(#e)"><g clip-path="url(#f)"><path fill="#8fc5ff" fill-rule="evenodd" d="M38 21.0001v-7.0018c0-1.5464 1.2536-2.7982 2.8-2.7982h8.4c1.5464 0 2.8 1.2518 2.8 2.7982v7.0018c0 7-7 9.8-7 9.8s-7-2.8-7-9.8" clip-rule="evenodd"/><mask id="g" width="14" height="20" x="38" y="11" maskUnits="userSpaceOnUse" style="mask-type:luminance"><path fill="#fff" fill-rule="evenodd" d="M38 21.0001v-7.0018c0-1.5464 1.2536-2.7982 2.8-2.7982h8.4c1.5464 0 2.8 1.2518 2.8 2.7982v7.0018c0 7-7 9.8-7 9.8s-7-2.8-7-9.8" clip-rule="evenodd"/></mask><g mask="url(#g)"><path fill="#366cc9" fill-rule="evenodd" d="M43.7886 24.9555s1.4013-1.8146 2.2256-1.8146.9756 1.2049 2.2431 1.2049 1.9359-1.9203 3.1568-1.9203 0 6.3001 0 6.3001l-1.6544 1.7064-9.6838 1.1185z" clip-rule="evenodd"/><path fill="#cf6200" fill-rule="evenodd" d="M39.6652 22.1575 40.9011 21l1.2143 2.973L43.7456 21l1.402 8.4743L42.8161 29l-7.6159-3.4822z" clip-rule="evenodd"/><path fill="#ff0" d="M38 11.2001h14v8.4H38z"/></g></g><mask id="h" fill="#fff"><path fill-rule="evenodd" d="M38 21.0001v-7.0018c0-1.5464 1.2536-2.7982 2.8-2.7982h8.4c1.5464 0 2.8 1.2518 2.8 2.7982v7.0018c0 7-7 9.8-7 9.8s-7-2.8-7-9.8" clip-rule="evenodd"/></mask><path stroke="#fff" stroke-width="3" d="M38 21.0001v-7.0018c0-1.5464 1.2536-2.7982 2.8-2.7982h8.4c1.5464 0 2.8 1.2518 2.8 2.7982v7.0018c0 7-7 9.8-7 9.8s-7-2.8-7-9.8Z" clip-rule="evenodd" mask="url(#h)"/></g></g><defs><clipPath id="a"><rect width="64" height="42" fill="#fff" rx="5"/></clipPath><clipPath id="e"><path fill="#fff" d="M38 11.2001h14.7v21H38z"/></clipPath><clipPath id="f"><path fill="#fff" d="M38 11.2001h14.7v21H38z"/></clipPath><linearGradient id="b" x1="0" x2="0" y1="0" y2="42" gradientUnits="userSpaceOnUse"><stop stop-color="#07319c"/><stop offset="1" stop-color="#00247e"/></linearGradient></defs></svg>