<svg xmlns="http://www.w3.org/2000/svg" width="64" height="42" fill="none" viewBox="0 0 64 42"><g clip-path="url(#a)"><rect width="64" height="42" fill="#fff" rx="5"/><path fill="#369d0c" fill-rule="evenodd" d="M-.2 5.6H64V0H-.2zm0 36.4H64v-5.6H-.2zm0-25.2H64v-5.6H-.2zm0 14H64v-5.6H-.2z" clip-rule="evenodd"/><path fill="#262626" fill-rule="evenodd" d="M-.2 25.1997H64v-8.3999H-.2z" clip-rule="evenodd"/><path fill="#ffd40e" fill-rule="evenodd" d="M-.2 11.2H64V5.6H-.2zm0 25.201H64v-5.6H-.2z" clip-rule="evenodd"/><path fill="#fff" fill-rule="evenodd" d="M-3 41.9997V0h2.8l27.9997 20.9998L-.2 41.9997z" clip-rule="evenodd"/><path fill="url(#b)" fill-rule="evenodd" d="M8.1999 23.7299 4.0854 26.663l1.5181-4.8194-4.061-3.0068 5.0527-.0455L8.2 14l1.6046 4.7913 5.0527.0455-4.0609 3.0068 1.5181 4.8194z" clip-rule="evenodd"/><mask id="c" width="31" height="42" x="-3" y="0" maskUnits="userSpaceOnUse" style="mask-type:alpha"><path fill="#fff" fill-rule="evenodd" d="M-3 41.9997V0h2.8l27.9997 20.9998L-.2 41.9997z" clip-rule="evenodd"/></mask><g mask="url(#c)"><rect width="63" height="41" x="1" y="1" stroke="#f5f5f5" rx="5"/></g><path fill="#262626" fill-rule="evenodd" d="m-.2 38.4997 23.333-17.4999L-.2 3.5zm27.9997-17.4999L-.2 41.9997H-3V0h2.8z" clip-rule="evenodd"/></g><defs><linearGradient id="b" x1="1" x2="1" y1="14" y2="28" gradientUnits="userSpaceOnUse"><stop stop-color="#f12f1f"/><stop offset="1" stop-color="#de2010"/></linearGradient><clipPath id="a"><rect width="64" height="42" fill="#fff" rx="5"/></clipPath></defs></svg>