<svg xmlns="http://www.w3.org/2000/svg" width="64" height="42" fill="none" viewBox="0 0 64 42"><g clip-path="url(#a)"><rect width="64" height="42" fill="#fff" rx="5"/><path fill="#ffcb49" fill-rule="evenodd" d="M0 10.5h64V0H0z" clip-rule="evenodd"/><path fill="#fff" fill-rule="evenodd" d="M0 21h64V10.5H0z" clip-rule="evenodd"/><path fill="#dc1d34" fill-rule="evenodd" d="M0 31.5h64V21H0z" clip-rule="evenodd"/><path fill="#4985d4" fill-rule="evenodd" d="M0 42h64V31.5H0z" clip-rule="evenodd"/><path fill="#4ba343" fill-rule="evenodd" d="m0 42 28-21L0 0z" clip-rule="evenodd"/><path fill="#fff" fill-rule="evenodd" d="M6.9998 21c0 3.9141 2.677 7.2029 6.3 8.1354a8.42 8.42 0 0 1-2.1.2646c-4.6392 0-8.4-3.7608-8.4-8.4s3.7608-8.4 8.4-8.4a8.42 8.42 0 0 1 2.1.2646c-3.623.9325-6.3 4.2213-6.3 8.1354M15.4 16.8c.7732 0 1.4-.6268 1.4-1.4s-.6268-1.4-1.4-1.4-1.4.6268-1.4 1.4.6268 1.4 1.4 1.4m1.4 4.2c0 .7732-.6268 1.4-1.4 1.4S14 21.7732 14 21s.6268-1.4 1.4-1.4 1.4.6268 1.4 1.4m-1.4 7c.7732 0 1.4-.6268 1.4-1.4s-.6268-1.4-1.4-1.4-1.4.6268-1.4 1.4.6268 1.4 1.4 1.4" clip-rule="evenodd"/></g><defs><clipPath id="a"><rect width="64" height="42" fill="#fff" rx="5"/></clipPath></defs></svg>