<svg width="64" height="42" viewBox="0 0 64 42" fill="none" xmlns="http://www.w3.org/2000/svg">
<g clip-path="url(#clip0_37941_2182)">
<rect width="64" height="42" rx="5" fill="white"/>
<rect width="64" height="42" fill="#E2243B"/>
<path fill-rule="evenodd" clip-rule="evenodd" d="M2.6001 0H61.4001L32.0001 42L2.6001 0Z" fill="#262626"/>
<mask id="mask0_37941_2182" style="mask-type:luminance" maskUnits="userSpaceOnUse" x="2" y="0" width="60" height="42">
<path fill-rule="evenodd" clip-rule="evenodd" d="M2.6001 0H61.4001L32.0001 42L2.6001 0Z" fill="white"/>
</mask>
<g mask="url(#mask0_37941_2182)">
<path fill-rule="evenodd" clip-rule="evenodd" d="M32 23.1L27.1782 28.4409L27.5453 21.2548L20.3591 21.6218L25.7 16.8L19.4 11.2L27.5453 12.6L26.4 4.20001L32 11.2L37.6 4.20001L36.4548 12.6L44.6 11.2L38.3 16.8L43.6409 21.6218L36.4548 21.2548L36.8218 28.4409L32 23.1Z" fill="#FFCF3C"/>
<path fill-rule="evenodd" clip-rule="evenodd" d="M2.6001 28H61.4001V16.8H2.6001V28Z" fill="#1984D8"/>
<path fill-rule="evenodd" clip-rule="evenodd" d="M2.6001 42H61.4001V28H2.6001V42Z" fill="white"/>
</g>
</g>
<defs>
<clipPath id="clip0_37941_2182">
<rect width="64" height="42" rx="5" fill="white"/>
</clipPath>
</defs>
</svg>
