<svg xmlns="http://www.w3.org/2000/svg" width="64" height="42" fill="none" viewBox="0 0 64 42"><g clip-path="url(#a)"><rect width="64" height="42" fill="#fff" rx="5"/><path fill="#e41d33" fill-rule="evenodd" d="M0 14h64V0H0z" clip-rule="evenodd"/><path fill="#262626" fill-rule="evenodd" d="M0 42h64V28H0z" clip-rule="evenodd"/><mask id="b" fill="#fff"><path fill-rule="evenodd" d="M26.21 18.2c0-.7732.6268-1.4 1.4-1.4h.9673a.7.7 0 0 1 .6261.387L30.41 19.6s1.5381-2.8 2.8-2.8c1.4 0 2.8 2.8 2.8 2.8l1.2065-2.413a.7.7 0 0 1 .6261-.387h.9674c.7732 0 1.4.6268 1.4 1.4v4.3841c0 1.1182-1.2462 1.7851-2.1766 1.1649L36.01 22.4h-1.4v1.4c0 .7732-.6268 1.4-1.4 1.4s-1.4-.6268-1.4-1.4v-1.4h-1.4l-2.0235 1.349c-.9303.6202-2.1765-.0467-2.1765-1.1649z" clip-rule="evenodd"/></mask><path stroke="#c6a846" stroke-width="3" d="M26.21 18.2c0-.7732.6268-1.4 1.4-1.4h.9673a.7.7 0 0 1 .6261.387L30.41 19.6s1.5381-2.8 2.8-2.8c1.4 0 2.8 2.8 2.8 2.8l1.2065-2.413a.7.7 0 0 1 .6261-.387h.9674c.7732 0 1.4.6268 1.4 1.4v4.3841c0 1.1182-1.2462 1.7851-2.1766 1.1649L36.01 22.4h-1.4v1.4c0 .7732-.6268 1.4-1.4 1.4s-1.4-.6268-1.4-1.4v-1.4h-1.4l-2.0235 1.349c-.9303.6202-2.1765-.0467-2.1765-1.1649z" clip-rule="evenodd" mask="url(#b)"/></g><defs><clipPath id="a"><rect width="64" height="42" fill="#fff" rx="5"/></clipPath></defs></svg>