<svg width="64" height="42" viewBox="0 0 64 42" fill="none" xmlns="http://www.w3.org/2000/svg">
<g clip-path="url(#clip0_37941_2331)">
<rect width="64" height="42" rx="5" fill="white"/>
<mask id="path-2-inside-1_37941_2331" fill="white">
<path fill-rule="evenodd" clip-rule="evenodd" d="M0 26.1565C0 28.9179 2.23858 31.1565 5 31.1565H59C61.7614 31.1565 64 28.9179 64 26.1565V5C64 2.23858 61.7614 0 59 0H5C2.23858 0 0 2.23858 0 5V26.1565Z"/>
</mask>
<path fill-rule="evenodd" clip-rule="evenodd" d="M0 26.1565C0 28.9179 2.23858 31.1565 5 31.1565H59C61.7614 31.1565 64 28.9179 64 26.1565V5C64 2.23858 61.7614 0 59 0H5C2.23858 0 0 2.23858 0 5V26.1565Z" stroke="#F5F5F5" stroke-width="2" mask="url(#path-2-inside-1_37941_2331)"/>
<path fill-rule="evenodd" clip-rule="evenodd" d="M0 42H64V21H0V42Z" fill="#EB2A50"/>
</g>
<defs>
<clipPath id="clip0_37941_2331">
<rect width="64" height="42" rx="5" fill="white"/>
</clipPath>
</defs>
</svg>
