<svg xmlns="http://www.w3.org/2000/svg" width="64" height="42" fill="none" viewBox="0 0 64 42"><g clip-path="url(#a)"><rect width="64" height="42" fill="#fff" rx="5"/><path fill="url(#b)" d="M2.6 0h58.8v42H2.6z"/><path fill="#08379d" d="M42.6666 0H64v42H42.6666z"/><path fill="#08379d" fill-rule="evenodd" d="M0 42h21.3333V0H0z" clip-rule="evenodd"/><path fill="#ffcc50" fill-rule="evenodd" d="M21.3335 42h21.3333V0H21.3335z" clip-rule="evenodd"/><path fill="#262626" fill-rule="evenodd" d="M31.4657 13.4683c.2809-.413.8916-.4074 1.1648.0108l1.462 2.238c.3042.4656-.0299 1.0829-.586 1.0829h-.0331c-.4141 0-.7377.3575-.6965.7696l.56 5.6a.7.7 0 0 0 .6965.6304h.4788a.7.7 0 0 0 .4923-.2024l.9877-.9771a.7.7 0 0 0 .2077-.4977v-2.2329a.7.7 0 0 0-.205-.495l-.3941-.394c-.368-.368-.2201-.9945.2736-1.1591l2.0014-.6671c.5053-.1685 1.0061.2668.9098.7907l-1.0323 5.6128a.7.7 0 0 1-.2033.378l-2.5469 2.4484a.7.7 0 0 1-.4851.1954h-.4181a.7.7 0 0 0-.7.7v1.4a.7.7 0 0 1-.7.7h-1.4a.7.7 0 0 1-.7-.7v-1.4a.7.7 0 0 0-.7-.7h-.41a.7.7 0 0 1-.495-.2051l-2.4451-2.4451a.7.7 0 0 1-.1915-.3577l-1.1218-5.6093c-.1054-.5271.3978-.9714.9077-.8014l1.9812.6604c.4937.1646.6416.7911.2736 1.1591l-.3941.394a.7.7 0 0 0-.205.495v2.2329c0 .187.0748.3662.2077.4977l.9878.9771a.7.7 0 0 0 .4922.2024h.4788a.7.7 0 0 0 .6965-.6304l.56-5.6c.0413-.4121-.2838-.7696-.6979-.7696-.562 0-.8974-.6289-.5813-1.0937z" clip-rule="evenodd"/></g><defs><linearGradient id="b" x1="3" x2="3" y1="0" y2="42" gradientUnits="userSpaceOnUse"><stop stop-color="#1132c7"/><stop offset="1" stop-color="#0522a5"/></linearGradient><clipPath id="a"><rect width="64" height="42" fill="#fff" rx="5"/></clipPath></defs></svg>