<svg width="64" height="42" viewBox="0 0 64 42" fill="none" xmlns="http://www.w3.org/2000/svg">
<g clip-path="url(#clip0_37941_2270)">
<rect width="64" height="42" rx="5" fill="white"/>
<rect width="64" height="42" fill="#D01129"/>
<g clip-path="url(#clip1_37941_2270)">
<g clip-path="url(#clip2_37941_2270)">
<path fill-rule="evenodd" clip-rule="evenodd" d="M31.7653 21.0858C33.1533 21.0858 34.2785 19.9044 34.2785 18.4474C34.2785 16.9901 33.1533 15.8087 31.7653 15.8087C30.3774 15.8087 29.2524 16.9901 29.2524 18.4474C29.2524 19.9044 30.3774 21.0858 31.7653 21.0858Z" fill="#FFF101"/>
<path fill-rule="evenodd" clip-rule="evenodd" d="M29.4743 17.3865C30.186 17.1481 31.1094 17.4256 31.7169 18.0377C32.3618 17.9144 33.0084 17.0641 33.2088 16.3071C32.9886 13.7915 31.4213 11.8857 30.9447 10.5779C30.794 10.1646 30.0953 9.51466 29.3686 9.81726C28.7712 10.0662 28.469 9.87249 26.4623 10.9234C25.3773 11.4916 24.4639 12.0752 23.9827 12.177C23.5012 12.2787 22.9933 12.3694 22.6082 12.0526C22.0785 11.617 21.4845 11.4965 21.1346 11.1682C20.706 10.7659 20.431 10.4623 20.141 10.3392C19.8511 10.2159 19.3603 10.4898 19.5676 11.1415C20.0351 12.6134 21.1373 12.8518 21.6105 14.2276C21.8338 14.8781 22.1514 15.3669 22.8612 14.874C23.5709 14.381 24.574 13.7262 26.2842 13.6574C27.4326 13.6109 28.6195 13.1675 29.1648 12.44C29.1595 13.0694 29.3708 13.5852 29.3151 14.4039C29.2595 15.2228 29.2683 16.2413 29.4743 17.3865Z" fill="white"/>
<path fill-rule="evenodd" clip-rule="evenodd" d="M30.8197 17.4555C30.6088 16.2171 30.9912 16.0386 30.5347 14.5869C30.2602 13.7141 30.0847 12.62 30.0803 12.1109L29.8969 12.1669C29.9013 12.676 30.0769 13.7703 30.3512 14.6432C30.7928 16.0468 30.4495 16.26 30.6174 17.3926C30.6692 17.4036 30.7781 17.4401 30.8197 17.4555Z" fill="#FFF101"/>
<path fill-rule="evenodd" clip-rule="evenodd" d="M29.7394 17.3197C29.7408 17.1622 29.7313 16.9978 29.708 16.8566C30.0307 16.7751 30.5834 17.0883 30.568 16.8555C30.5634 16.7818 30.5705 16.5434 30.5749 16.417C30.5678 16.6146 29.7993 16.2811 29.6669 16.3672C29.5248 15.6466 29.7009 14.9053 29.5882 14.4529C29.8448 14.3792 30.3165 14.54 30.2588 14.3288C30.226 14.2207 30.1634 13.9517 30.122 13.7835C30.1624 13.9597 29.7878 13.8138 29.6611 13.9145C29.5953 13.5238 29.4991 12.7824 29.5011 12.4436L29.1649 12.44C29.1595 13.0694 29.3709 13.5852 29.3151 14.4039C29.2596 15.2228 29.2684 16.2413 29.4744 17.3865C29.548 17.3639 29.6694 17.3349 29.7394 17.3197Z" fill="#FFF101"/>
<path fill-rule="evenodd" clip-rule="evenodd" d="M28.8903 11.5668C28.3893 12.3264 27.1924 12.8507 26.0858 12.9666C24.7906 13.1022 23.921 13.5548 23.2808 13.9979C23.2257 13.8939 23.1264 13.8379 23.0385 13.7693C22.1017 13.0408 22.4868 12.0536 22.8416 12.1946C22.7078 12.1402 22.63 12.0667 22.5568 12.0115C22.433 11.9151 22.0758 12.2843 22.1206 12.8705C22.1397 13.1202 22.3432 13.4885 22.5089 13.6838C22.2065 13.626 22.0616 13.5448 21.884 13.3195C21.9838 13.2543 22.113 13.2173 22.2172 13.2088C22.1817 13.1194 22.1323 13.0202 22.1206 12.8705C21.9726 12.8692 21.792 12.9234 21.6371 13.0339C21.2655 12.6452 20.8828 12.3351 20.6609 11.8764C20.3059 11.1414 20.6671 10.6775 21.1346 11.1681C20.706 10.7659 20.431 10.4622 20.141 10.3392C19.8511 10.2159 19.3603 10.4897 19.5676 11.1414C20.0351 12.6133 21.1373 12.8517 21.6105 14.2276C21.8338 14.878 22.1632 15.3848 22.8612 14.8739C22.9532 14.8066 22.9776 14.7907 23.0576 14.7311C23.279 14.5967 23.6299 14.8223 23.5925 15.3126C23.7718 14.8623 23.6573 14.7244 23.5051 14.4544C23.3926 14.5173 23.4016 14.1487 23.3321 14.1002C23.7304 13.8402 24.2149 13.5795 24.826 13.3937C24.8485 13.6139 24.9063 13.8477 25.0993 13.8137C25.2028 13.7896 25.3078 13.7678 25.4181 13.7485C25.2251 13.7824 25.1708 13.5266 25.1485 13.3067C25.4382 13.2368 25.7548 13.1839 26.1017 13.1541C26.5015 13.1197 26.9147 13.0344 27.3027 12.9021C27.3605 13.1132 27.4799 13.469 27.6788 13.3991C27.8552 13.3398 28.0267 13.2728 28.1877 13.1949C27.911 13.3334 27.8021 12.938 27.7355 12.7289C28.2412 12.498 28.6721 12.1831 28.9297 11.8073L28.8903 11.5668Z" fill="#FFF101"/>
<path fill-rule="evenodd" clip-rule="evenodd" d="M31.1036 11.9439C31.3478 11.7451 31.5575 11.6511 31.3468 11.23C31.0023 10.5416 31.2164 10.5392 30.4621 10.1012C29.6938 9.65581 29.791 9.62088 28.7744 9.99721C28.5244 10.0897 28.5802 10.1842 28.6239 10.5649C28.7181 11.3854 28.8972 12.0461 29.0609 12.7212C29.6999 12.6336 30.6831 12.2868 31.1036 11.9439Z" fill="#FFF101"/>
<path fill-rule="evenodd" clip-rule="evenodd" d="M28.719 11.7575C28.5849 11.3547 28.6209 11.4094 29.1068 11.5322C29.2658 11.0012 29.4855 10.5531 29.6085 10.1233C29.746 9.64217 29.7891 9.5556 29.9914 9.67351C30.2503 9.82404 30.5346 9.98305 30.7198 10.0786C31.0432 10.2451 30.9955 10.3034 30.8411 10.568C30.6868 10.8326 30.1818 11.3688 29.8704 11.9283C30.2812 12.2319 30.413 12.2594 30.1212 12.3902C29.7945 12.5363 29.2519 12.7174 29.0234 12.7603C28.9815 12.496 28.8465 12.1395 28.719 11.7575Z" fill="#FFF101"/>
<path fill-rule="evenodd" clip-rule="evenodd" d="M23.8957 15.5451L23.8634 15.9595L23.5725 15.682L23.2471 15.914L23.2686 15.5004L22.894 15.3815L23.2141 15.1405L23.0729 14.7562L23.4484 14.8713L23.6469 14.5155L23.7976 14.8955L24.1851 14.8341L23.9953 15.1965L24.281 15.4765L23.8957 15.5451Z" fill="#FFF101"/>
<path fill-rule="evenodd" clip-rule="evenodd" d="M32.0356 21.0609C31.4829 20.5327 31.25 19.5545 31.4513 18.696C31.0271 18.1715 30.0024 18.0084 29.2778 18.2046C27.3129 19.6629 26.5246 22.0409 25.6842 23.1282C25.4185 23.4719 25.2318 24.4319 25.8449 24.9416C26.3489 25.3603 26.3404 25.7317 28.2103 27.031C29.2215 27.7336 30.1595 28.2723 30.4842 28.6591C30.8091 29.046 31.1377 29.4627 31.0689 29.971C30.9745 30.6705 31.1719 31.2711 31.0763 31.753C30.9586 32.3438 30.8458 32.7459 30.8891 33.0711C30.9326 33.3963 31.4036 33.7056 31.8376 33.1913C32.8178 32.0302 32.4635 30.9089 33.3619 29.7907C33.7864 29.2623 34.031 28.729 33.2696 28.3301C32.508 27.9314 31.4665 27.3465 30.5544 25.8263C29.942 24.8052 28.9829 23.9474 28.11 23.8154C28.6319 23.5059 28.9519 23.0555 29.655 22.6967C30.3582 22.3378 31.1939 21.821 32.0356 21.0609Z" fill="white"/>
<path fill-rule="evenodd" clip-rule="evenodd" d="M31.4197 19.8029C30.5039 20.6139 30.1653 20.3552 29.1962 21.4963C28.6137 22.1824 27.799 22.8891 27.3811 23.1475L27.5191 23.2863C27.937 23.0278 28.7517 22.3212 29.3345 21.635C30.2715 20.5317 30.6189 20.7372 31.4694 20.0182C31.4525 19.9658 31.4278 19.8484 31.4197 19.8029Z" fill="#FFF101"/>
<path fill-rule="evenodd" clip-rule="evenodd" d="M31.8479 20.8533C31.7175 20.9306 31.5866 21.0216 31.4816 21.1133C31.2531 20.8605 31.235 20.2014 31.051 20.3321C30.9923 20.3727 30.7922 20.4857 30.6855 20.5448C30.8524 20.4526 30.9612 21.318 31.0985 21.3953C30.5752 21.885 29.8757 22.0953 29.5591 22.4241C29.37 22.2274 29.2667 21.7185 29.1214 21.8765C29.0487 21.9602 28.8581 22.1516 28.74 22.2734C28.8652 22.1485 28.932 22.5621 29.0783 22.6268C28.7891 22.8822 28.2257 23.3402 27.9451 23.5079L28.1102 23.8154C28.6321 23.5059 28.9521 23.0556 29.6552 22.6967C30.3584 22.3378 31.1942 21.821 32.0358 21.0609C31.9802 21.0051 31.8954 20.9093 31.8479 20.8533Z" fill="#FFF101"/>
<path fill-rule="evenodd" clip-rule="evenodd" d="M27.5272 24.5015C28.4043 24.5773 29.4351 25.4034 30.0839 26.3518C30.8433 27.4618 31.6517 28.0259 32.3372 28.3866C32.279 28.4888 32.2824 28.607 32.27 28.7213C32.1374 29.9374 31.1306 30.0807 31.0694 29.6877C31.0914 29.8367 31.0697 29.9441 31.0608 30.0383C31.0432 30.1991 31.5264 30.3391 31.9874 30.0055C32.1838 29.8631 32.3857 29.494 32.4642 29.2459C32.5675 29.5495 32.5728 29.7219 32.4762 29.996C32.3722 29.9379 32.2773 29.8387 32.2181 29.7486C32.1621 29.8254 32.1051 29.9199 31.9874 30.0055C32.0603 30.1408 32.1953 30.2778 32.3639 30.3633C32.2291 30.8956 32.1648 31.3985 31.8971 31.8296C31.4687 32.5198 30.9052 32.4235 31.0763 31.753C30.9586 32.3438 30.8458 32.7459 30.8891 33.0711C30.9326 33.3963 31.4036 33.7056 31.8376 33.1913C32.8178 32.0302 32.4635 30.9089 33.3619 29.7907C33.7864 29.2623 34.0401 28.7095 33.2696 28.3301C33.1679 28.2803 33.1427 28.2661 33.0536 28.223C32.8319 28.0889 32.8427 27.6571 33.2657 27.4459C32.8048 27.5081 32.7483 27.6812 32.6017 27.9545C32.7096 28.0252 32.4011 28.2014 32.3957 28.289C31.9822 28.0568 31.5252 27.7467 31.0662 27.2836C31.2368 27.1533 31.4007 26.9838 31.2759 26.8253C31.2042 26.7433 31.1338 26.6586 31.0626 26.5679C31.1873 26.7266 31.0036 26.9036 30.8331 27.0341C30.6307 26.8058 30.4289 26.5443 30.2307 26.2437C30.0024 25.8972 29.7255 25.5643 29.4224 25.2776C29.5677 25.1193 29.8013 24.8332 29.6443 24.687C29.5073 24.5563 29.3661 24.4337 29.2215 24.3266C29.474 24.509 29.2022 24.8057 29.0632 24.9706C28.6196 24.6264 28.1445 24.3918 27.7058 24.3459L27.5272 24.5015Z" fill="#FFF101"/>
<path fill-rule="evenodd" clip-rule="evenodd" d="M26.3756 22.4653C26.0894 22.3428 26.2306 22.1771 25.9887 22.5791C25.593 23.2365 25.5166 23.0851 25.5327 23.9901C25.5491 24.911 25.7195 24.7641 26.5383 25.5003C27.1678 25.0048 27.9192 24.2557 28.3941 23.7692C28.0024 23.2321 26.8686 22.6767 26.3756 22.4653Z" fill="#FFF101"/>
<path fill-rule="evenodd" clip-rule="evenodd" d="M27.7705 24.5621C27.5053 24.8855 27.5324 24.8257 27.3908 24.3222C26.8733 24.4429 26.4742 24.5824 26.0585 24.6854C25.5926 24.8007 25.4999 24.8049 25.4958 24.5621C25.4906 24.2513 25.4799 23.9135 25.4659 23.6972C25.4417 23.3201 25.5134 23.334 25.8089 23.3422C26.1045 23.3501 26.7184 23.4264 27.3357 23.4298C27.3807 22.9045 27.3374 22.7709 27.5914 22.971C27.8749 23.1947 28.2957 23.5978 28.4455 23.784C28.2483 23.9541 28.022 24.2554 27.7705 24.5621Z" fill="#FFF101"/>
<path fill-rule="evenodd" clip-rule="evenodd" d="M33.306 27.0541L33.6639 26.8761L33.5805 27.2792L33.9348 27.4592L33.5827 27.6462L33.6718 28.0465L33.3128 27.8759L33.0665 28.1965L32.9737 27.7973L32.5811 27.7947L32.8194 27.468L32.5747 27.1464L32.9689 27.1376L33.0569 26.7379L33.306 27.0541Z" fill="#FFF101"/>
<path fill-rule="evenodd" clip-rule="evenodd" d="M33.7855 16.8948C33.6265 17.661 32.9358 18.3621 32.1272 18.6084C31.9065 19.2563 32.2843 20.2691 32.8086 20.8304C34.9936 21.8878 37.3495 21.4156 38.6665 21.636C39.0829 21.7056 39.9681 21.3953 40.0818 20.5833C40.1753 19.9157 40.4858 19.7379 40.6225 17.3877C40.6964 16.1169 40.6717 14.9946 40.8285 14.506C40.9854 14.0174 41.1647 13.5101 41.6183 13.3185C42.2424 13.0547 42.639 12.5745 43.0848 12.4207C43.6306 12.2321 44.0187 12.1337 44.265 11.9318C44.5117 11.7299 44.5312 11.1468 43.8902 11.0094C42.4423 10.6985 41.6946 11.5814 40.3231 11.3235C39.675 11.2018 39.1127 11.2457 39.1646 12.1378C39.2165 13.0297 39.2549 14.2692 38.4568 15.8585C37.9208 16.9261 37.693 18.2269 38.0203 19.0867C37.5041 18.7669 36.9727 18.7011 36.3253 18.2413C35.6777 17.7813 34.8334 17.2801 33.7855 16.8948Z" fill="white"/>
<path fill-rule="evenodd" clip-rule="evenodd" d="M33.0562 18.0837C34.1831 18.5109 34.139 18.9481 35.5647 19.2589C36.4219 19.4457 37.4121 19.833 37.8344 20.0838L37.8796 19.8888C37.4576 19.6381 36.4672 19.251 35.6102 19.0639C34.2315 18.7634 34.2273 18.3447 33.2091 17.9308C33.1743 17.9727 33.0897 18.0536 33.0562 18.0837Z" fill="#FFF101"/>
<path fill-rule="evenodd" clip-rule="evenodd" d="M33.7081 17.1692C33.8373 17.249 33.9777 17.3225 34.1057 17.3723C34.0118 17.7063 33.4769 18.0526 33.6768 18.1545C33.7397 18.1877 33.9327 18.313 34.0348 18.3803C33.8755 18.2748 34.5346 17.743 34.5299 17.5794C35.1957 17.8106 35.7188 18.3416 36.1484 18.4651C36.0808 18.7354 35.7124 19.0837 35.9155 19.1369C36.0209 19.161 36.2741 19.2386 36.4336 19.2851C36.268 19.2337 36.5758 18.966 36.556 18.8009C36.9112 18.936 37.5706 19.2193 37.8493 19.3907L38.0203 19.0868C37.504 18.767 36.9726 18.7012 36.3253 18.2414C35.6776 17.7813 34.8333 17.2801 33.7854 16.8948C33.7673 16.9729 33.7306 17.098 33.7081 17.1692Z" fill="#FFF101"/>
<path fill-rule="evenodd" clip-rule="evenodd" d="M38.8776 19.2735C38.5016 18.4381 38.6677 17.0877 39.1257 16.0234C39.6615 14.7778 39.7226 13.7608 39.6771 12.9573C39.7907 12.9593 39.8863 12.8969 39.9871 12.8512C41.0563 12.3639 41.678 13.2075 41.3841 13.4595C41.4962 13.365 41.5958 13.3313 41.6777 13.2923C41.8191 13.2275 41.6931 12.7184 41.1874 12.4661C40.9719 12.3585 40.5665 12.3595 40.3223 12.4122C40.5215 12.1664 40.6607 12.0754 40.9352 12.0264C40.9393 12.1499 40.9051 12.2858 40.8601 12.3847C40.9516 12.397 41.058 12.4017 41.1874 12.4661C41.2625 12.332 41.308 12.1409 41.2943 11.9447C41.8008 11.8013 42.2478 11.6084 42.7371 11.6362C43.5208 11.6806 43.7231 12.2411 43.0848 12.4207C43.6306 12.2321 44.0186 12.1337 44.265 11.9318C44.5116 11.7299 44.5312 11.1468 43.8902 11.0094C42.4423 10.6985 41.6946 11.5814 40.323 11.3235C39.6749 11.2018 39.0922 11.2475 39.1646 12.1378C39.1741 12.2552 39.1751 12.2853 39.1842 12.3878C39.1842 12.6565 38.8228 12.8625 38.4372 12.5833C38.7188 12.9717 38.8898 12.9365 39.1886 12.9331C39.193 12.7993 39.4924 12.9917 39.5673 12.9529C39.5827 13.4451 39.5553 14.0159 39.4029 14.6645C39.2101 14.5749 38.9887 14.5104 38.9199 14.7031C38.8881 14.8091 38.8536 14.9155 38.8145 15.0254C38.883 14.8328 39.121 14.9116 39.3136 15.0013C39.2265 15.2995 39.1117 15.614 38.963 15.9443C38.7912 16.325 38.6552 16.7432 38.5703 17.1624C38.3672 17.1093 38.0142 17.0399 37.9721 17.2559C37.933 17.4458 37.9024 17.6353 37.8862 17.8206C37.9105 17.4997 38.2909 17.5984 38.4967 17.6423C38.4345 18.2177 38.4786 18.7669 38.6598 19.1892L38.8776 19.2735Z" fill="#FFF101"/>
<path fill-rule="evenodd" clip-rule="evenodd" d="M37.3729 21.0198C37.415 21.3414 37.3876 21.579 37.8402 21.5978C38.5803 21.6289 38.5201 21.7247 39.2585 21.2577C40.0099 20.7822 40.0299 20.8761 40.2278 19.7635C40.2765 19.4899 40.1706 19.4933 39.8347 19.3428C39.1112 19.0181 38.4788 19.0402 37.8402 18.8514C37.5929 19.4764 37.3005 20.466 37.3729 21.0198Z" fill="#FFF101"/>
<path fill-rule="evenodd" clip-rule="evenodd" d="M38.8059 19.0226C39.2054 19.1017 39.1423 19.1071 38.7981 19.4878C39.1565 19.8978 39.4309 20.1862 39.724 20.513C40.0521 20.8788 40.1017 20.961 39.9035 21.0861C39.6498 21.2461 39.3768 21.4249 39.2053 21.5459C38.9061 21.7566 38.8818 21.6841 38.7407 21.4113C38.5995 21.1388 38.3951 20.5467 38.0895 19.9841C37.6335 20.2055 37.5449 20.3119 37.5831 19.981C37.6259 19.6111 37.748 19.027 37.8268 18.7978C38.0656 18.8918 38.4272 18.9471 38.8059 19.0226Z" fill="#FFF101"/>
<path fill-rule="evenodd" clip-rule="evenodd" d="M38.094 12.7431L37.7683 12.5065L38.1426 12.3806L38.1138 11.9686L38.4441 12.1952L38.7298 11.9141L38.7685 12.3256L39.156 12.3894L38.8732 12.6735L39.0675 13.0316L38.6787 12.9784L38.5356 13.3616L38.3315 13.0077L37.9577 13.1276L38.094 12.7431Z" fill="#FFF101"/>
</g>
<g clip-path="url(#clip3_37941_2270)">
<path fill-rule="evenodd" clip-rule="evenodd" d="M31.7064 18.0493C31.0981 17.4364 30.1799 17.167 29.4791 17.4018L29.4594 17.3895C29.2753 16.3661 29.2338 15.3776 29.2999 14.4027C29.3256 14.0256 29.3034 13.7495 29.2296 13.2573C29.1989 13.0531 29.1948 13.0246 29.1839 12.9401C29.1621 12.7706 29.1506 12.627 29.1496 12.4855C28.6114 13.1679 27.4729 13.6253 26.2849 13.6734C24.8795 13.73 24.0018 14.1011 22.8697 14.8873C22.2407 15.3242 21.8816 15.0642 21.5962 14.2331C21.4072 13.6835 21.1767 13.3663 20.6239 12.7824L20.5814 12.7374C20.0025 12.1256 19.7508 11.7688 19.5531 11.1465C19.3686 10.5661 19.7673 10.1629 20.1468 10.3243C20.1727 10.3353 20.1986 10.3478 20.2248 10.3618C20.3471 10.4272 20.4725 10.5238 20.6384 10.6753C20.6953 10.7272 20.8619 10.8863 20.9909 11.0095L20.9909 11.0096L20.991 11.0096L20.991 11.0096L20.9912 11.0098L20.9914 11.01L20.9914 11.01C21.0619 11.0774 21.1211 11.1339 21.1449 11.1562C21.1639 11.1741 21.1836 11.1914 21.2042 11.2083C21.1749 11.1889 21.1444 11.1762 21.1132 11.1699C21.0847 11.1429 21.0315 11.092 20.9697 11.033L20.9697 11.033L20.9695 11.0329L20.9695 11.0328L20.9695 11.0328L20.9694 11.0328L20.9694 11.0327L20.9694 11.0327C20.8405 10.9096 20.6746 10.7511 20.618 10.6995C20.4538 10.5496 20.3301 10.4543 20.2106 10.3904C20.1852 10.3768 20.16 10.3647 20.135 10.3541C19.7799 10.2031 19.4054 10.5817 19.5818 11.1364C19.7776 11.7528 20.0268 12.1062 20.6027 12.7148L20.6453 12.7597C21.201 13.3467 21.4337 13.6671 21.6246 14.2222C21.9043 15.0366 22.2445 15.2828 22.8525 14.8605C23.9888 14.0713 24.8714 13.6981 26.2833 13.6413C27.4837 13.5927 28.6326 13.1236 29.1526 12.4301L29.1799 12.4401C29.1785 12.595 29.1899 12.7494 29.2139 12.9358C29.2247 13.0199 29.2288 13.0484 29.2594 13.2523C29.3336 13.7467 29.3559 14.0248 29.33 14.405C29.2645 15.3717 29.305 16.3516 29.4859 17.3658L29.4694 17.3712L29.4891 17.3835L29.4859 17.3658C30.1958 17.1369 31.1159 17.4101 31.7139 18.0219C32.3178 17.9064 32.9813 17.1058 33.1933 16.3085C33.0886 15.1121 32.7022 14.0301 32.0074 12.7011C31.9003 12.4961 31.6077 11.9583 31.4655 11.6971L31.4654 11.6968L31.3874 11.5533C31.166 11.1391 31.0262 10.8471 30.9302 10.5836C30.7312 10.038 29.9874 9.57673 29.374 9.83216C29.2906 9.86692 29.2094 9.89461 29.1205 9.91949C29.0636 9.93543 29.0056 9.94975 28.9263 9.9679C28.1096 10.1548 27.6576 10.3152 26.4689 10.9377L26.3686 10.9906C26.1401 11.1115 25.5896 11.4154 25.247 11.6045C25.1015 11.6848 24.9935 11.7444 24.9636 11.7606C24.4929 12.0141 24.1982 12.1477 23.9854 12.1927C23.282 12.3413 22.9264 12.3349 22.5985 12.0652C22.4952 11.9803 22.3849 11.9035 22.2633 11.8303C22.2319 11.8114 22.2001 11.793 22.1673 11.7745L22.177 11.7625L22.1727 11.741C22.2091 11.7613 22.2443 11.7816 22.2789 11.8025C22.4016 11.8764 22.5132 11.954 22.6177 12.04C22.936 12.3018 23.2848 12.308 23.9798 12.1612C24.1888 12.117 24.4818 11.9842 24.95 11.732C24.9798 11.7159 25.0875 11.6565 25.2327 11.5763C25.5753 11.3872 26.1263 11.083 26.3551 10.9619L26.4556 10.909C27.6467 10.2852 28.1011 10.124 28.9201 9.93653C28.999 9.91848 29.0566 9.90426 29.113 9.88847C29.2008 9.8639 29.2808 9.83659 29.3631 9.80232C29.994 9.53958 30.7546 10.0112 30.9591 10.5721C31.0545 10.8338 31.1937 11.1246 31.4145 11.5376L31.4922 11.6807L31.4923 11.6808C31.6342 11.9418 31.9272 12.4803 32.0346 12.6857C32.7312 14.0182 33.1189 15.1039 33.2236 16.3114C33.0082 17.1252 32.3368 17.9355 31.7064 18.0493ZM22.1413 11.7236L22.1727 11.741L22.1721 11.7376C22.1618 11.7324 22.1515 11.7277 22.1413 11.7236ZM22.0294 11.7003C22.0665 11.7009 22.1039 11.7086 22.1413 11.7236C22.0849 11.6928 22.0251 11.6617 21.9591 11.6287C21.9272 11.6127 21.8564 11.578 21.7905 11.5458L21.7898 11.5394C21.7641 11.5272 21.739 11.5169 21.7144 11.5087L21.6546 11.4794C21.4622 11.3839 21.3308 11.3081 21.2247 11.2247L21.2247 11.2231C21.2179 11.2178 21.2111 11.2128 21.2042 11.2083L21.2247 11.2247L21.224 11.2493L21.2138 11.2565C21.205 11.2497 21.1964 11.2429 21.188 11.236L21.1882 11.2358C21.1943 11.2399 21.2003 11.2442 21.2062 11.2489L21.2069 11.2227L21.1882 11.2358C21.1875 11.2354 21.1869 11.235 21.1862 11.2345C21.1647 11.2169 21.1441 11.1988 21.1241 11.1801L21.1132 11.1699C20.9168 11.1298 20.6923 11.3389 20.5647 11.6752L20.5874 11.6945L21.2138 11.2565C21.3113 11.332 21.4294 11.4014 21.5938 11.4847C21.3546 11.473 21.1536 11.6963 20.8969 12.2677L20.9202 12.2872L21.7808 11.5767C21.8456 11.6083 21.9144 11.642 21.9456 11.6576C21.9747 11.6722 22.0025 11.6863 22.0294 11.7003ZM22.1269 11.7521C22.0956 11.735 22.0633 11.7178 22.0294 11.7003C21.7566 11.6957 21.497 12.074 21.3414 12.7473L21.3679 12.7615L22.1673 11.7745L22.1399 11.7593L22.141 11.7579C22.147 11.7606 22.153 11.7634 22.1591 11.7665L22.1541 11.7417L22.141 11.7579C22.1363 11.7559 22.1316 11.7539 22.1269 11.7521ZM21.3875 12.6882C21.5616 11.9879 21.8481 11.6452 22.1269 11.7521L22.1399 11.7593L21.3875 12.6882ZM21.3875 12.6882C21.3821 12.7101 21.3767 12.7323 21.3715 12.7549L21.345 12.7407L21.3875 12.6882ZM21.7498 11.5616L21.7808 11.5767L21.7929 11.5666L21.7905 11.5458L21.7502 11.5261L21.7501 11.5261L21.7144 11.5087C21.6729 11.4947 21.6329 11.4866 21.5938 11.4847L21.6411 11.5084L21.7024 11.5384C21.4346 11.4507 21.2301 11.6208 20.9531 12.2194L20.9015 12.262L20.9248 12.2814C20.9343 12.2603 20.9438 12.2396 20.9531 12.2194L21.7498 11.5616ZM21.7541 11.5581C21.7366 11.5505 21.7194 11.5439 21.7024 11.5384L21.7371 11.5553L21.7498 11.5616L21.7541 11.5581ZM21.7541 11.5581C21.7618 11.5614 21.7696 11.565 21.7774 11.5687L21.7742 11.5414L21.7541 11.5581ZM20.6126 11.6383L21.188 11.236C21.1874 11.2355 21.1868 11.235 21.1862 11.2345C21.0022 11.1153 20.7574 11.2969 20.6126 11.6383ZM20.6126 11.6383L20.5703 11.6679L20.593 11.6872C20.5993 11.6706 20.6059 11.6543 20.6126 11.6383Z" fill="black"/>
<path fill-rule="evenodd" clip-rule="evenodd" d="M30.7764 16.2972C30.7546 16.7719 30.7622 17.0273 30.8347 17.4529L30.8145 17.4708C30.7914 17.4623 30.7615 17.452 30.7305 17.4414C30.6841 17.4255 30.6352 17.4086 30.6022 17.3952C30.5469 17.022 30.5423 16.7897 30.5624 16.3515L30.5665 16.2605C30.5907 15.6976 30.548 15.3205 30.3366 14.6484C30.0817 13.8372 29.8863 12.73 29.8925 12.1516L30.0955 12.1109C30.1004 12.6706 30.2951 13.7743 30.5491 14.5821C30.7618 15.2583 30.8049 15.6393 30.7805 16.206L30.7764 16.2972ZM30.8245 17.4405L30.8044 17.4584C30.8029 17.4494 30.8014 17.4405 30.7999 17.4316C30.8087 17.4347 30.817 17.4377 30.8245 17.4405ZM30.6202 17.3769C30.6591 17.3852 30.7406 17.4107 30.7999 17.4316C30.7312 17.0191 30.7243 16.7624 30.7457 16.2956L30.7498 16.2045C30.774 15.6415 30.7313 15.2644 30.5199 14.5921C30.2649 13.7813 30.0697 12.6744 30.0844 12.1264L29.9119 12.1668C29.9167 12.7261 30.1115 13.8301 30.3655 14.6382C30.5782 15.3143 30.6213 15.6952 30.5969 16.2619L30.5928 16.353C30.5728 16.7892 30.5773 17.0196 30.6202 17.3769Z" fill="black"/>
<path fill-rule="evenodd" clip-rule="evenodd" d="M27.2088 10.5223C27.0375 10.5994 27.0388 10.8729 27.1773 11.2989C27.2881 11.6396 27.4843 12.0675 27.7202 12.5047L27.7483 12.4925L27.2296 10.5327L27.2088 10.5223ZM29.7231 16.8539C29.7456 16.9903 29.7562 17.1537 29.7547 17.3199L29.7425 17.3355L29.6901 17.3471C29.6136 17.3642 29.5268 17.3837 29.4594 17.3895C29.2753 16.3661 29.2338 15.3777 29.2999 14.4028C29.3256 14.0256 29.3034 13.7496 29.2296 13.2573C29.1989 13.0532 29.1947 13.0246 29.1839 12.9401C29.1598 12.7524 29.1483 12.5965 29.1651 12.424L29.5164 12.4437C29.5147 12.7342 29.5915 13.4022 29.6722 13.8882C29.7157 13.864 29.7768 13.8574 29.8728 13.8592L29.9121 13.8602C30.0018 13.8628 30.0362 13.8619 30.0676 13.8531C30.1037 13.8431 30.1158 13.8249 30.1072 13.7873L30.1368 13.7795L30.1369 13.7798L30.1073 13.7875L30.124 13.8561C30.113 13.8689 30.0967 13.8782 30.0756 13.8841C30.0401 13.894 30.0046 13.895 29.9114 13.8923L29.8724 13.8913C29.7673 13.8893 29.7074 13.8979 29.6704 13.9273L29.6461 13.9173C29.5637 13.4278 29.4842 12.7411 29.501 12.4596L29.1803 12.4401C29.179 12.5951 29.1904 12.7495 29.2143 12.9358C29.2251 13.02 29.2293 13.0485 29.2599 13.2523C29.3341 13.7467 29.3564 14.0249 29.3305 14.405C29.2645 15.3773 29.306 16.363 29.4702 17.3711C29.5323 17.352 29.6387 17.3255 29.7243 17.3066L29.7242 17.3195L29.7364 17.304L29.7243 17.3066C29.7252 17.1467 29.7149 16.9897 29.7046 16.8409C29.7905 16.8193 29.8944 16.8228 30.0278 16.8461C30.0726 16.8539 30.1173 16.8632 30.18 16.8773C30.3727 16.9204 30.4012 16.926 30.4578 16.9272C30.528 16.9285 30.5563 16.9084 30.5529 16.8566C30.5494 16.8012 30.552 16.6542 30.5577 16.4767C30.577 16.4646 30.5881 16.4466 30.59 16.4219C30.5831 16.6223 30.5796 16.7951 30.5833 16.8545C30.5882 16.9289 30.543 16.961 30.4571 16.9593C30.3975 16.9581 30.3693 16.9526 30.1736 16.9087C30.1112 16.8947 30.0669 16.8855 30.0227 16.8778C29.893 16.8552 29.7927 16.8518 29.7231 16.8539ZM30.5597 16.4165L30.5577 16.4767C30.5302 16.4939 30.4859 16.4994 30.427 16.4955C30.3524 16.4905 30.2685 16.4741 30.1081 16.4365L30.0906 16.4323C29.8163 16.3679 29.7181 16.3529 29.6751 16.3808L29.6521 16.3704C29.6426 16.3226 29.6344 16.2739 29.6274 16.2242C29.5884 15.9483 29.5861 15.7156 29.6032 15.2609C29.6205 14.7987 29.6178 14.6346 29.5842 14.4374C29.6515 14.4181 29.7332 14.4131 29.8471 14.4171C29.8736 14.418 29.8975 14.4192 29.9402 14.4215C30.0828 14.4293 30.1327 14.4298 30.1812 14.4199C30.2388 14.4082 30.258 14.3837 30.2443 14.3337C30.2275 14.2782 30.2034 14.1836 30.1663 14.0311L30.162 14.0133C30.164 14.0215 30.1413 13.9275 30.124 13.8561C30.1391 13.8385 30.1441 13.8144 30.1378 13.7835C30.1501 13.8337 30.1943 14.0168 30.1916 14.0054L30.1959 14.0232C30.2327 14.175 30.2568 14.2694 30.2735 14.3245C30.2928 14.3952 30.2606 14.4365 30.1869 14.4515C30.1349 14.4621 30.0843 14.4615 29.9385 14.4536C29.896 14.4513 29.8722 14.4501 29.846 14.4492C29.7772 14.4468 29.7207 14.4478 29.6751 14.4485C29.647 14.449 29.6231 14.4494 29.603 14.4489C29.6483 14.6308 29.6511 14.7963 29.6336 15.2623C29.6166 15.7149 29.6189 15.9462 29.6576 16.2195C29.6635 16.2617 29.6703 16.3031 29.6781 16.3439C29.7355 16.3221 29.8376 16.3401 30.0971 16.4011L30.1146 16.4052C30.2734 16.4424 30.3564 16.4587 30.4288 16.4635C30.5162 16.4693 30.5583 16.4536 30.5596 16.4165L30.5597 16.4165ZM30.5597 16.4165L30.5902 16.4177L30.59 16.4219L30.5903 16.4176L30.5597 16.4164L30.5597 16.4165ZM30.1378 13.7835L30.1369 13.7798L30.137 13.7797L30.1378 13.7835ZM27.2055 10.56L27.2005 10.5414L27.2213 10.5518C27.2158 10.5543 27.2106 10.557 27.2055 10.56ZM27.6851 12.3722C27.4779 11.9777 27.3069 11.5967 27.2067 11.2886C27.0781 10.8931 27.0722 10.6383 27.2055 10.56L27.6851 12.3722ZM27.6851 12.3722C27.7055 12.411 27.7262 12.4499 27.7473 12.4889L27.7192 12.5011L27.6851 12.3722ZM27.7295 12.7143C27.5856 12.7895 27.4418 12.8556 27.2981 12.9118L27.3083 12.9464L27.3072 12.9468L27.2971 12.9122L27.7299 12.7141L27.7414 12.7481L27.7411 12.7483L27.7295 12.7143ZM27.7399 12.7489L27.7411 12.7483L27.7411 12.7483L27.7399 12.7489ZM27.7399 12.7489L27.3088 12.9462C27.4524 12.89 27.5961 12.824 27.7399 12.7489ZM27.3088 12.9462L27.3083 12.9464L27.3083 12.9465L27.3088 12.9462ZM25.1451 13.2911C25.0346 13.3214 24.9271 13.3547 24.8218 13.391L24.8298 13.4265L24.8303 13.4263L24.8303 13.4263C24.8306 13.4262 24.831 13.4261 24.8313 13.426L25.1509 13.3272C25.1513 13.3271 25.1516 13.327 25.152 13.3269L25.152 13.3269L25.1523 13.3268L25.1451 13.2911ZM25.152 13.3269L25.1448 13.2912L24.8223 13.3909L24.8303 13.4263L24.8313 13.426C24.9354 13.3901 25.0417 13.3572 25.1509 13.3272L25.152 13.3269Z" fill="black"/>
<path fill-rule="evenodd" clip-rule="evenodd" d="M26.0844 12.9506C27.255 12.828 28.4045 12.2753 28.8778 11.5577L28.9055 11.5641L28.9422 11.8167C28.6921 12.1816 28.271 12.502 27.7501 12.7239C27.7489 12.72 27.7713 12.7912 27.7783 12.8127C27.7901 12.8492 27.8009 12.8804 27.8121 12.9102C27.9028 13.151 28.0094 13.2558 28.1651 13.188C28.1281 13.2056 28.0902 13.2229 28.0514 13.2398C27.9398 13.226 27.855 13.1123 27.7833 12.922C27.7719 12.8917 27.761 12.8599 27.749 12.823C27.742 12.8014 27.7195 12.7301 27.7292 12.7142C28.2538 12.4746 28.6705 12.1576 28.9144 11.81L28.8812 11.6076C28.8885 11.5971 28.8956 11.5866 28.9026 11.576L28.875 11.5695L28.8812 11.6076C28.3896 12.3187 27.2486 12.8609 26.087 12.9825C24.964 13.1001 24.1032 13.4478 23.2671 14.0057C23.2323 13.9399 23.1904 13.9011 23.0852 13.8241L23.0848 13.8238C23.057 13.8034 23.0444 13.7941 23.0292 13.7822C22.6058 13.4529 22.412 13.0384 22.4402 12.6547C22.4599 12.3865 22.5929 12.1865 22.746 12.1664C22.7733 12.1817 22.8015 12.1955 22.8317 12.2079C22.6657 12.1468 22.4934 12.3523 22.4711 12.6571C22.4437 13.0295 22.6325 13.4335 23.0478 13.7564C23.0627 13.7681 23.0751 13.7773 23.1027 13.7975L23.1031 13.7978C23.212 13.8775 23.2563 13.9186 23.2724 13.9845C24.0907 13.4183 24.9561 13.0688 26.0844 12.9506ZM22.8358 12.2095L22.8467 12.1796C22.8128 12.1661 22.779 12.1621 22.746 12.1664C22.7183 12.1509 22.6916 12.1338 22.6648 12.1146C22.6395 12.0966 22.5725 12.044 22.5529 12.0286C22.5496 12.0261 22.5477 12.0246 22.5474 12.0244C22.3995 11.9093 22.0979 12.3761 22.1356 12.8692C22.1356 12.8692 22.1356 12.8692 22.1356 12.8692C22.1364 12.8803 22.1376 12.8916 22.1393 12.9033C22.1495 12.9765 22.1746 13.0616 22.2101 13.1503C22.2138 13.1596 22.2176 13.169 22.2216 13.1784C22.2952 13.3535 22.4064 13.5392 22.52 13.6731L22.5058 13.6996C22.1966 13.6405 22.05 13.5556 21.8756 13.3059C21.9655 13.2472 22.0847 13.2072 22.1947 13.1948C22.1982 13.2035 22.2012 13.2109 22.2028 13.215L22.2035 13.2138L22.2158 13.1928C22.209 13.1933 22.2022 13.194 22.1954 13.1948C22.1951 13.1948 22.1949 13.1948 22.1947 13.1948C22.1913 13.1867 22.1875 13.1774 22.184 13.1687C22.1787 13.1558 22.1739 13.1443 22.1721 13.1396C22.1494 13.0832 22.1329 13.0339 22.1246 12.9865C22.1187 12.9528 22.117 12.9201 22.1202 12.8865C22.1157 12.8865 22.1113 12.8865 22.1068 12.8866C21.9576 12.8886 21.7865 12.9461 21.6261 13.0452C21.6032 13.0213 21.5796 12.9969 21.5547 12.9715C21.5118 12.9278 21.4006 12.8172 21.3227 12.7396C21.2843 12.7014 21.2539 12.6712 21.2439 12.6611C20.9442 12.359 20.7743 12.1466 20.647 11.8836C20.4789 11.5355 20.4589 11.2185 20.5768 11.053C20.6554 10.9427 20.7796 10.9199 20.9202 10.9857C20.937 11.0018 20.9535 11.0175 20.9695 11.0328C20.9968 11.0589 21.0225 11.0834 21.0451 11.105C20.8608 10.9496 20.6941 10.9425 20.6016 11.0723C20.4921 11.2262 20.5112 11.5308 20.6747 11.8691C20.8 12.1282 20.968 12.3382 21.2655 12.6379C21.2754 12.648 21.3056 12.678 21.3438 12.7161C21.4218 12.7936 21.5333 12.9047 21.5763 12.9485C21.6013 12.974 21.6251 12.9985 21.6286 13.0206C21.7707 12.9193 21.9408 12.8603 22.1051 12.8671C22.068 12.3538 22.3878 11.86 22.5658 11.9985C22.5662 11.9987 22.5685 12.0006 22.5723 12.0035C22.5931 12.0199 22.658 12.0708 22.6823 12.0881C22.735 12.1256 22.7869 12.1551 22.8472 12.1797L22.8363 12.2097C22.8361 12.2096 22.836 12.2096 22.8358 12.2095ZM21.1447 11.1563C21.1449 11.1565 21.145 11.1566 21.1451 11.1568L21.1241 11.1801C21.1094 11.1663 21.0811 11.1394 21.0451 11.105C21.071 11.1269 21.0974 11.1517 21.1239 11.1795L21.1447 11.1563ZM21.1419 11.1534C21.1429 11.1544 21.1439 11.1553 21.1449 11.1562L21.1447 11.1563C21.1438 11.1554 21.1428 11.1544 21.1419 11.1534ZM21.072 11.0869C21.0202 11.0424 20.9692 11.0086 20.9202 10.9857C20.8012 10.872 20.6676 10.7447 20.618 10.6995C20.4538 10.5496 20.3301 10.4543 20.2106 10.3904C20.1852 10.3768 20.16 10.3647 20.135 10.3541C19.7799 10.203 19.4054 10.5817 19.5818 11.1363C19.7776 11.7527 20.0268 12.1062 20.6027 12.7148L20.6453 12.7597C21.201 13.3467 21.4337 13.667 21.6246 14.2221C21.754 14.599 21.8919 14.8458 22.0663 14.9731C22.2738 15.1245 22.5291 15.0972 22.8522 14.8607C22.8904 14.8327 22.917 14.8136 22.9617 14.7815L22.963 14.7806C22.993 14.759 23.0166 14.7417 23.0497 14.7172C23.296 14.5677 23.5977 14.8171 23.6096 15.2221C23.6003 15.249 23.5898 15.2771 23.5781 15.3065L23.6074 15.3139C23.6098 15.2825 23.6105 15.2519 23.6096 15.2221C23.6909 14.9884 23.6851 14.8405 23.61 14.6788C23.5958 14.6482 23.5792 14.6165 23.5562 14.5756C23.5558 14.5749 23.5553 14.574 23.5548 14.5731C23.5427 14.5518 23.5035 14.4823 23.512 14.4686C23.4731 14.4903 23.4417 14.4728 23.4196 14.4269C23.4044 14.3954 23.3944 14.3577 23.3784 14.2817L23.3745 14.2632C23.3543 14.1667 23.3413 14.126 23.3234 14.1135L23.3238 14.0865C23.7962 13.7782 24.2735 13.5449 24.841 13.392C24.8703 13.6787 24.9442 13.8247 25.0957 13.7981C25.168 13.7812 25.2386 13.766 25.3092 13.7523C25.3409 13.7676 25.3778 13.7718 25.4204 13.7643L25.4153 13.7327C25.4155 13.7327 25.4156 13.7327 25.4157 13.7327L25.4207 13.7644C25.3149 13.7828 25.2107 13.8042 25.1019 13.8296C24.9239 13.8609 24.842 13.6991 24.8304 13.4092C24.2917 13.5729 23.8217 13.8015 23.357 14.103C23.3749 14.1273 23.3868 14.171 23.4048 14.2563L23.4086 14.2748C23.424 14.348 23.4337 14.3843 23.4472 14.4125C23.4625 14.4441 23.4768 14.4521 23.5184 14.4463C23.524 14.4563 23.5377 14.4802 23.5511 14.5037C23.5646 14.5272 23.5778 14.5504 23.5828 14.5593C23.6062 14.6009 23.6233 14.6333 23.6379 14.6647C23.7257 14.8539 23.7231 15.0266 23.6066 15.3189L23.5773 15.3114C23.6105 14.8767 23.3058 14.5991 23.0666 14.7442C23.0345 14.768 23.0108 14.7854 22.9807 14.8071L22.9793 14.808C22.9346 14.8401 22.9081 14.8592 22.87 14.8871C22.5373 15.1306 22.2683 15.1594 22.0492 14.9995C21.8682 14.8674 21.7276 14.6157 21.5962 14.2331C21.4072 13.6835 21.1767 13.3663 20.6239 12.7823L20.5814 12.7374C20.0025 12.1256 19.7508 11.7687 19.5531 11.1465C19.3686 10.5661 19.7673 10.1629 20.1468 10.3243C20.1727 10.3353 20.1986 10.3478 20.2248 10.3618C20.3471 10.4271 20.4725 10.5238 20.6384 10.6753C20.6953 10.7271 20.8619 10.8863 20.9909 11.0095C21.0205 11.0378 21.0481 11.0642 21.072 11.0869ZM25.4098 13.7336C25.3762 13.7395 25.3427 13.7457 25.3092 13.7523C25.2093 13.704 25.1603 13.5451 25.1448 13.291C25.4458 13.2184 25.7636 13.167 26.1002 13.1381C26.5031 13.1034 26.9148 13.0174 27.3172 12.8976C27.411 13.2408 27.5246 13.4363 27.6738 13.3839C27.809 13.3384 27.9345 13.2907 28.0514 13.2398C28.0946 13.2451 28.1419 13.2355 28.194 13.2094L28.1811 13.1805C28.1811 13.1805 28.1811 13.1805 28.1812 13.1805L28.1941 13.2095C28.0404 13.2839 27.8712 13.3513 27.6837 13.4144C27.5075 13.4763 27.3874 13.2696 27.3075 12.9174C26.9224 13.0487 26.5083 13.1352 26.103 13.1701C25.7679 13.1989 25.4515 13.2501 25.1638 13.305C25.1937 13.6009 25.2639 13.7549 25.4098 13.7336ZM25.4098 13.7336C25.4116 13.7333 25.4135 13.733 25.4153 13.7327L25.4153 13.7327C25.4135 13.7331 25.4116 13.7334 25.4098 13.7336ZM21.1419 11.1534C21.1185 11.1291 21.0952 11.1069 21.072 11.0869C21.1029 11.1164 21.1275 11.1398 21.1419 11.1534ZM22.2088 13.2257C22.1004 13.2361 21.9808 13.2746 21.8959 13.3093C22.0607 13.5184 22.1956 13.602 22.4687 13.6594C22.3707 13.5361 22.2767 13.3788 22.2088 13.2257ZM22.8358 12.2095L22.8358 12.2096C22.8344 12.209 22.8331 12.2085 22.8317 12.2079C22.8331 12.2084 22.8345 12.209 22.8358 12.2095ZM28.1811 13.1805C28.1757 13.1832 28.1704 13.1857 28.1651 13.188C28.1704 13.1854 28.1757 13.1829 28.181 13.1803L28.1811 13.1805Z" fill="black"/>
<path fill-rule="evenodd" clip-rule="evenodd" d="M31.4662 18.6999C31.2646 19.5594 31.5016 20.5289 32.0459 21.0491L32.0455 21.0731C31.2938 21.7521 30.4998 22.2835 29.6617 22.7112C29.4155 22.8369 29.2055 22.9778 28.9761 23.1618C28.9193 23.2075 28.8629 23.2542 28.7902 23.3158C28.7968 23.3102 28.6517 23.4333 28.6117 23.4669C28.4325 23.617 28.299 23.7181 28.1552 23.8067C28.9873 23.9548 29.9338 24.7614 30.5673 25.8178C31.317 27.0673 32.0628 27.6805 33.2765 28.3158C33.9511 28.6692 33.9162 29.1257 33.3735 29.8011C33.0122 30.2508 32.8686 30.6142 32.659 31.4256C32.4306 32.3096 32.2716 32.7015 31.8491 33.202C31.4625 33.66 30.931 33.4992 30.8739 33.0734C30.8537 32.921 30.8654 32.7488 30.9073 32.5088C30.926 32.4012 31.0026 32.0326 31.0405 31.8505L31.0405 31.8504L31.0613 31.7498C31.0663 31.7245 31.0706 31.6999 31.0742 31.6753C31.0735 31.7096 31.0783 31.7418 31.0882 31.7717L31.0703 31.8581L31.0703 31.8582C31.0324 32.0407 30.9561 32.4077 30.9375 32.5146C30.8962 32.7514 30.8846 32.9206 30.9044 33.0689C30.9577 33.4673 31.4569 33.6184 31.8263 33.1807C32.2449 32.6848 32.4024 32.2967 32.6296 31.4172C32.8403 30.6016 32.9854 30.2347 33.3503 29.7804C33.882 29.1185 33.9151 28.6862 33.2629 28.3445C32.0448 27.7068 31.2947 27.0902 30.5416 25.8349C29.9014 24.7675 28.9401 23.9572 28.108 23.8313L28.1026 23.8015C28.2596 23.7084 28.3992 23.6039 28.5927 23.4417C28.6327 23.4083 28.7777 23.2852 28.7711 23.2907C28.8441 23.229 28.9006 23.1821 28.9577 23.1363C29.1886 22.951 29.4002 22.809 29.6485 22.6823C30.4794 22.2582 31.2669 21.7319 32.0127 21.0605L32.0254 21.0728L32.0257 21.0487L32.0127 21.0605C31.4687 20.5292 31.2341 19.5561 31.4398 18.7065C31.0424 18.2151 30.0502 18.0121 29.2867 18.2178C28.5522 18.7629 27.9407 19.4612 27.3604 20.3525C27.2007 20.5979 26.8775 21.1602 26.563 21.7074L26.563 21.7075C26.2362 22.2761 25.9187 22.8285 25.8034 22.9927C25.7671 23.0443 25.7314 23.0928 25.6962 23.1384C25.3455 23.5921 25.337 24.4988 25.8546 24.929C25.8787 24.9491 25.9021 24.9694 25.925 24.9901C25.995 25.0535 26.0585 25.1189 26.1333 25.203C26.1459 25.2172 26.1808 25.2575 26.2215 25.3044C26.2804 25.3723 26.3513 25.4541 26.3836 25.4903C26.4958 25.6159 26.6078 25.7319 26.7417 25.8584C27.0874 26.185 27.5553 26.5566 28.2189 27.0177C28.5565 27.2523 29.6184 27.9536 29.6131 27.95C30.0825 28.2667 30.3484 28.4729 30.4958 28.6486C30.9697 29.2129 31.1427 29.5403 31.0842 29.9733C31.06 30.1526 31.0528 30.3117 31.0598 30.511L31.045 30.5082L31.0295 30.5228C31.0218 30.3167 31.0288 30.1535 31.0538 29.9688C31.1106 29.5485 30.9409 29.2273 30.4727 28.6698C30.3278 28.4972 30.0633 28.292 29.5964 27.9771C29.602 27.9808 28.5398 27.2793 28.2019 27.0445C27.5371 26.5826 27.068 26.21 26.7211 25.8823C26.5865 25.7551 26.474 25.6386 26.3611 25.5123C26.3286 25.4759 26.2574 25.3937 26.1984 25.3257C26.1579 25.279 26.1232 25.239 26.1108 25.225C26.0367 25.1417 25.9739 25.077 25.9049 25.0145C25.8823 24.994 25.8593 24.974 25.8354 24.9542C25.3031 24.5117 25.3117 23.5846 25.6723 23.1182C25.7072 23.073 25.7426 23.0249 25.7786 22.9736C25.8931 22.8108 26.2091 22.2609 26.535 21.6938L26.535 21.6937L26.535 21.6937L26.535 21.6937L26.535 21.6937C26.8501 21.1455 27.1745 20.5811 27.335 20.3344C27.9172 19.4402 28.5311 18.7392 29.2739 18.1891C30.0528 17.9782 31.057 18.1837 31.4662 18.6999ZM31.0311 30.5615L31.0295 30.5228L31.027 30.5251C31.0279 30.5376 31.0292 30.5497 31.0311 30.5615ZM31.068 30.6742C31.0499 30.6404 31.0375 30.6028 31.0311 30.5615C31.0361 30.6727 31.0451 30.7969 31.0576 30.9433L31.0597 30.9677L31.0547 30.9717C31.0575 31.0014 31.0616 31.0296 31.0671 31.0563C31.0909 31.3494 31.0959 31.5011 31.0786 31.6425L31.0764 31.6438C31.0752 31.6545 31.0745 31.665 31.0742 31.6753C31.0758 31.6644 31.0773 31.6535 31.0786 31.6425L31.0984 31.6313L31.1102 31.6375C31.1089 31.6487 31.1075 31.6599 31.106 31.671L31.1051 31.6706C31.1054 31.663 31.106 31.6554 31.1069 31.6476L31.0849 31.6601L31.1051 31.6706C31.105 31.673 31.105 31.6755 31.105 31.6779C31.1012 31.7038 31.0967 31.7297 31.0914 31.7563L31.0882 31.7717C31.1533 31.9704 31.4381 32.0701 31.7791 32.0177L31.7837 31.9874L31.1102 31.6375C31.1241 31.5176 31.1223 31.3893 31.1072 31.1767C31.217 31.4003 31.5018 31.4716 32.1019 31.4192L32.1063 31.3883L31.09 30.9613L31.0883 30.9404C31.0798 30.8426 31.073 30.7548 31.068 30.6742ZM31.0618 30.5605C31.0634 30.5969 31.0655 30.6347 31.068 30.6742C31.2012 30.9237 31.6427 30.9703 32.275 30.7754L32.2734 30.7442L31.0598 30.511L31.0611 30.5439L31.0593 30.5436C31.0585 30.5367 31.0578 30.5298 31.0573 30.5228L31.0393 30.5397L31.0593 30.5436L31.0603 30.5509L31.0618 30.5605ZM32.2032 30.7634C31.5397 30.9549 31.1141 30.8663 31.0618 30.5605L31.0611 30.5439L32.2032 30.7634ZM32.2032 30.7634C32.224 30.7574 32.245 30.7511 32.2662 30.7446L32.2677 30.7758L32.2032 30.7634ZM31.0931 30.9971L31.09 30.9613L31.0756 30.9552L31.0597 30.9677L31.0671 31.0563C31.0763 31.1005 31.0895 31.1406 31.1072 31.1767C31.1044 31.1377 31.1012 31.0958 31.0975 31.0506C31.1585 31.3387 31.4011 31.4401 32.0343 31.3925L32.0952 31.4181L32.0996 31.3872C32.0774 31.3892 32.0556 31.3909 32.0343 31.3925L31.0931 30.9971ZM31.0882 30.995C31.0907 31.0143 31.0937 31.0328 31.0975 31.0506L31.0931 30.9971L31.0882 30.995ZM31.0882 30.995C31.0871 30.9864 31.0862 30.9775 31.0853 30.9686L31.0644 30.985L31.0882 30.995ZM31.7247 31.9925L31.106 31.671C31.1056 31.6733 31.1053 31.6756 31.105 31.6779C31.1026 31.9019 31.3736 32.0316 31.7247 31.9925ZM31.7247 31.9925L31.7702 32.0161L31.7748 31.9858C31.7579 31.9884 31.7413 31.9906 31.7247 31.9925Z" fill="black"/>
<path fill-rule="evenodd" clip-rule="evenodd" d="M30.4495 20.4412C30.8983 20.1983 31.0849 20.0786 31.4099 19.7908L31.4348 19.8001C31.4393 19.8252 31.4459 19.858 31.4529 19.8923C31.4629 19.9419 31.4736 19.9945 31.479 20.0308C31.1888 20.2762 31.0198 20.3821 30.6014 20.6087C30.5667 20.6274 30.5407 20.6416 30.5152 20.6556C30.0762 20.8976 29.7794 21.1354 29.346 21.6458C28.8044 22.2834 27.9889 23.0145 27.5086 23.2979L27.3734 23.1338C27.8326 22.8498 28.6457 22.1208 29.1849 21.4857C29.6211 20.9721 29.9208 20.732 30.3633 20.4882C30.3888 20.4741 30.4148 20.46 30.4495 20.4412ZM31.4049 19.806L31.4298 19.8153C31.4231 19.8212 31.4165 19.8271 31.4099 19.8329C31.408 19.8233 31.4063 19.8142 31.4049 19.806ZM31.4099 19.8329C31.0948 20.1101 30.9051 20.2308 30.4636 20.4698C30.429 20.4885 30.4031 20.5026 30.3777 20.5166C29.9383 20.7587 29.6415 20.9964 29.2078 21.5071C28.6666 22.1446 27.8512 22.8757 27.3919 23.136L27.5115 23.2725C27.9706 22.9886 28.7837 22.2597 29.3232 21.6244C29.7593 21.1111 30.059 20.8709 30.5011 20.6272C30.5267 20.6131 30.5528 20.5989 30.5875 20.5801C31.0042 20.3545 31.1718 20.2495 31.4551 20.0235C31.4424 19.9839 31.4223 19.8964 31.4099 19.8329Z" fill="black"/>
<path fill-rule="evenodd" clip-rule="evenodd" d="M31.4716 21.101C31.573 21.0124 31.7025 20.921 31.8401 20.8394L31.8591 20.8427L31.8952 20.8849C31.947 20.9452 32.0068 21.0147 32.0455 21.0731C31.2938 21.7521 30.4997 22.2835 29.6617 22.7112C29.4154 22.8369 29.2055 22.9778 28.9761 23.1618C28.9192 23.2075 28.8629 23.2542 28.7901 23.3158C28.7968 23.3102 28.6517 23.4333 28.6116 23.4669C28.417 23.63 28.2762 23.7353 28.0966 23.8234L27.9373 23.494C28.1781 23.35 28.6918 22.9454 29.0507 22.63C29.0075 22.6017 28.9711 22.5474 28.9206 22.4504L28.8923 22.3956C28.8816 22.3753 28.8731 22.3596 28.8649 22.3456C28.8195 22.2679 28.7891 22.2486 28.7528 22.2826L28.7997 22.2345C28.83 22.2421 28.8596 22.2749 28.8911 22.3289C28.8996 22.3434 28.9084 22.3595 28.9192 22.3802L28.9476 22.435C29.0026 22.5408 29.0397 22.5925 29.0842 22.6121L29.0881 22.6392C28.7272 22.9579 28.1994 23.3744 27.9583 23.5001L28.1026 23.8015C28.2596 23.7084 28.3992 23.604 28.5927 23.4418C28.6326 23.4083 28.7776 23.2852 28.7711 23.2908C28.844 23.2291 28.9006 23.1822 28.9577 23.1364C29.1885 22.9511 29.4002 22.809 29.6484 22.6823C30.4843 22.2558 31.2761 21.7258 32.0251 21.0726C31.978 21.0253 31.9019 20.9409 31.8446 20.8738L31.8553 20.8674L31.8364 20.8641L31.8446 20.8738C31.7125 20.9528 31.588 21.0407 31.4704 21.1244C31.4005 21.0471 31.3475 20.9346 31.2923 20.7672C31.2849 20.7447 31.2681 20.6908 31.2518 20.6387L31.2518 20.6387L31.2518 20.6385L31.2518 20.6384L31.2517 20.6382L31.2517 20.6382C31.2361 20.5882 31.2211 20.5399 31.2153 20.5226C31.1878 20.4399 31.165 20.3883 31.1408 20.3585C31.1156 20.3273 31.0915 20.3228 31.0593 20.3456C31.015 20.3763 30.8833 20.4527 30.7434 20.5308C30.7225 20.5186 30.701 20.5181 30.6783 20.5307L30.6925 20.559L30.6924 20.5591L30.6781 20.5307C30.8347 20.444 30.9939 20.3523 31.0422 20.3189C31.0876 20.2866 31.129 20.2945 31.1639 20.3376C31.1913 20.3714 31.2154 20.4257 31.2441 20.512C31.2499 20.5296 31.2652 20.5785 31.2808 20.6289L31.2809 20.629L31.2809 20.629C31.2971 20.681 31.3137 20.7345 31.321 20.7567C31.375 20.9201 31.4264 21.0292 31.4716 21.101ZM30.6947 20.5579L30.7434 20.5308C30.7717 20.5473 30.7986 20.5855 30.8251 20.642C30.8584 20.713 30.8864 20.7968 30.9365 20.9647C30.9706 21.0789 30.9713 21.0812 30.9837 21.1208C31.0331 21.2778 31.0709 21.3617 31.1056 21.3813L31.1086 21.4074C30.958 21.5483 30.7862 21.6734 30.5764 21.8014C30.4896 21.8544 30.2756 21.9744 30.1172 22.0633C30.0296 22.1125 29.9591 22.1521 29.9365 22.1655C29.7697 22.2643 29.6545 22.3476 29.5482 22.4356C29.4945 22.3797 29.4474 22.3024 29.3866 22.18L29.3688 22.1438L29.3688 22.1438C29.35 22.1053 29.3223 22.0486 29.3123 22.0289C29.2854 21.9762 29.2639 21.9393 29.2436 21.9122C29.2012 21.8559 29.1692 21.8476 29.1326 21.8874C29.0941 21.9317 29.0261 22.003 28.9117 22.12L28.908 22.1238C28.9221 22.1094 28.8524 22.1806 28.7997 22.2345C28.7769 22.2289 28.7538 22.2374 28.7293 22.2618L28.7505 22.2848L28.7502 22.2851L28.729 22.262C28.7598 22.2302 28.9066 22.0803 28.8865 22.1008L28.8903 22.097C29.0041 21.9805 29.0719 21.9094 29.1101 21.8654C29.1622 21.8088 29.2149 21.8225 29.2674 21.8923C29.2892 21.9212 29.3115 21.9595 29.3391 22.0138C29.3493 22.0337 29.3772 22.0909 29.3961 22.1294L29.3961 22.1295L29.3961 22.1295L29.4136 22.1651C29.4588 22.2562 29.4961 22.3214 29.5243 22.3708L29.5243 22.3708L29.5243 22.3708C29.5331 22.3863 29.5411 22.4002 29.5481 22.4128C29.6352 22.3224 29.7524 22.2376 29.9213 22.1375C29.9442 22.1239 30.0154 22.0839 30.1036 22.0344C30.2619 21.9456 30.4747 21.8262 30.5609 21.7736C30.7624 21.6507 30.9284 21.5306 31.0738 21.3966C31.0357 21.3606 31.0004 21.2766 30.9545 21.1308C30.942 21.091 30.9413 21.0887 30.9072 20.9742C30.8576 20.8081 30.8299 20.7251 30.7975 20.6562C30.7593 20.5746 30.7257 20.5432 30.6947 20.5579ZM30.6947 20.5579L30.6925 20.559L30.6925 20.5591L30.6947 20.5579ZM28.7505 22.2848L28.7528 22.2826L28.7506 22.2849L28.7505 22.2848ZM27.5058 26.5525C27.6552 26.6697 27.8801 26.5318 28.1623 26.1929C28.3879 25.9219 28.6429 25.5294 28.8853 25.0967L28.8612 25.0773L27.504 26.5284L27.5058 26.5525ZM27.5387 26.5371L27.5258 26.5509L27.524 26.5268C27.5288 26.5305 27.5337 26.5339 27.5387 26.5371ZM28.1392 26.1718C27.8773 26.4863 27.67 26.6191 27.5387 26.5371L28.7937 25.1952C28.5721 25.5806 28.3433 25.9266 28.1392 26.1718ZM28.7937 25.1952C28.8155 25.1573 28.8372 25.119 28.8588 25.0804L28.8829 25.0998L28.7937 25.1952ZM29.4111 25.2888L29.4119 25.2896L29.4119 25.2895L29.4126 25.2901L29.4324 25.2657C29.3193 25.1586 29.1989 25.056 29.0721 24.9577L29.0534 24.9831L29.0539 24.9835L29.0539 24.9836L29.0548 24.9843L29.4111 25.2888ZM29.4111 25.2888C29.2992 25.183 29.1802 25.0815 29.0548 24.9843L29.0539 24.9835L29.0726 24.9582L29.4318 25.2652L29.4119 25.2895L29.4111 25.2888ZM30.8217 27.0468C30.9095 27.1441 30.9943 27.2335 31.0781 27.3168L31.0781 27.3168L31.0785 27.3172L31.1022 27.2925C31.101 27.2913 31.0997 27.2901 31.0985 27.2889L30.8504 27.0276C30.8491 27.0261 30.8478 27.0247 30.8465 27.0232L30.8464 27.0233L30.8459 27.0228L30.8217 27.0468ZM30.8464 27.0233L30.8222 27.0473L31.0781 27.3168L31.1017 27.2922L31.0985 27.2889C31.0175 27.2081 30.9353 27.1216 30.8504 27.0276L30.8464 27.0233Z" fill="black"/>
<path fill-rule="evenodd" clip-rule="evenodd" d="M27.5368 24.5139L27.5282 24.4855C27.5405 24.4866 27.5528 24.4878 27.5651 24.4892L27.5368 24.5139ZM29.3236 24.4255C29.3491 24.4873 29.3445 24.5581 29.3137 24.6362C29.2857 24.7074 29.2382 24.781 29.1698 24.8668C29.1444 24.8987 29.1192 24.9286 29.0539 24.9835C28.5932 24.6261 28.1236 24.4058 27.7154 24.3582L27.5651 24.4892C28.3974 24.5807 29.4151 25.347 30.0961 26.3425C30.7544 27.3047 31.4713 27.9132 32.3501 28.3949C32.3132 28.4598 32.3021 28.5174 32.2913 28.652L32.291 28.6556C32.2885 28.6874 32.287 28.7042 32.2849 28.7232C32.225 29.2728 31.9799 29.6562 31.6493 29.8224C31.4185 29.9384 31.1872 29.9177 31.0939 29.7889C31.0929 29.7554 31.0897 29.7221 31.0843 29.6853L31.0543 29.6903C31.0543 29.6902 31.0543 29.6902 31.0543 29.6901L31.0845 29.6851C31.1134 29.8706 31.3713 29.9266 31.6363 29.7934C31.9571 29.6321 32.196 29.2584 32.2548 28.7194C32.2568 28.7008 32.2582 28.6844 32.2608 28.6528L32.2611 28.6493C32.2722 28.5098 32.2839 28.4489 32.3304 28.4009C31.4537 27.9397 30.7329 27.3278 30.0715 26.3612C29.3851 25.3579 28.3546 24.5891 27.526 24.5175L27.5175 24.4891L27.7073 24.3298C28.133 24.3745 28.6076 24.597 29.0517 24.9599C29.0966 24.9072 29.1215 24.8777 29.1466 24.8461C29.2131 24.7626 29.2591 24.6914 29.2857 24.6239C29.3299 24.5118 29.315 24.4214 29.2267 24.3503C29.2588 24.3744 29.2911 24.3995 29.3236 24.4255ZM31.12 26.665C31.1302 26.7799 31.0238 26.9037 30.8216 27.0451C30.6118 26.8082 30.4105 26.5449 30.2179 26.2528C29.9881 25.904 29.7113 25.5727 29.4111 25.2664C29.6474 25.0092 29.7516 24.8086 29.6338 24.6989C29.5278 24.5978 29.4248 24.5068 29.3236 24.4255C29.3064 24.384 29.2757 24.3465 29.2302 24.3136L29.2303 24.3134C29.3684 24.4157 29.5087 24.5359 29.6544 24.6749C29.7936 24.8044 29.6834 25.0164 29.4326 25.2656C29.7338 25.5504 30.0121 25.8836 30.2433 26.2345C30.435 26.5253 30.6354 26.7874 30.8241 27.0211C31.0516 26.8469 31.1437 26.7074 31.0567 26.586C31.0777 26.6127 31.0988 26.639 31.12 26.665ZM33.1824 27.4751C32.9158 27.5233 32.8037 27.6145 32.6888 27.8233C32.6874 27.8258 32.6857 27.829 32.6837 27.8327C32.6643 27.8684 32.6196 27.9506 32.6096 27.9409C32.645 27.9641 32.648 27.9995 32.6247 28.0399C32.6084 28.0684 32.5819 28.0978 32.5342 28.144L32.5202 28.1575C32.4381 28.2363 32.4122 28.2661 32.4107 28.29L32.3883 28.3032C31.8979 28.0277 31.4669 27.7104 31.057 27.2706C31.2787 27.1012 31.3624 26.9606 31.2644 26.8362C31.2152 26.7799 31.1673 26.7232 31.12 26.665C31.1167 26.6285 31.1017 26.5928 31.0742 26.5578L31.0744 26.5576C31.1441 26.6464 31.2142 26.731 31.2877 26.815C31.4028 26.9613 31.3101 27.1171 31.0768 27.2719C31.4813 27.6801 31.9045 27.9931 32.3853 28.2649C32.3962 28.2361 32.4269 28.2037 32.4998 28.1337L32.5137 28.1203C32.5593 28.0762 32.5844 28.0482 32.5988 28.0233C32.6142 27.9964 32.6129 27.9807 32.5884 27.9466C32.5899 27.9438 32.5949 27.9344 32.6016 27.9217C32.6199 27.887 32.6515 27.8272 32.6626 27.8072C32.7937 27.5688 32.925 27.4756 33.2638 27.4299L33.2723 27.4604C32.8973 27.6476 32.8206 28.0634 33.06 28.2083C33.0948 28.2252 33.1198 28.2376 33.1541 28.2548L33.1553 28.2554C33.2248 28.2903 33.232 28.2939 33.2761 28.3155C33.6433 28.4963 33.8015 28.7266 33.7791 29.0058C33.7606 29.2364 33.6234 29.49 33.3736 29.801C33.0123 30.2507 32.8686 30.6141 32.659 31.4255C32.4307 32.3095 32.2716 32.7013 31.8491 33.2019C31.4625 33.6599 30.931 33.4991 30.874 33.0732C30.8537 32.9209 30.8654 32.7486 30.9073 32.5087C30.9259 32.402 31.0013 32.0389 31.0395 31.8552C31.0293 31.9224 31.0272 31.9838 31.0325 32.0384C30.9949 32.2206 30.9507 32.4366 30.9371 32.5146C30.8958 32.7514 30.8843 32.9206 30.904 33.0689C30.9574 33.4673 31.4566 33.6183 31.826 33.1807C32.2446 32.6848 32.4021 32.2967 32.6293 31.4172C32.8399 30.6015 32.985 30.2346 33.35 29.7804C33.596 29.4741 33.7306 29.2254 33.7484 29.0032C33.7696 28.7388 33.6194 28.5202 33.2629 28.3446C33.2187 28.323 33.2115 28.3194 33.1419 28.2844L33.1407 28.2838C33.1065 28.2666 33.0816 28.2543 33.0457 28.2369C32.7992 28.0877 32.8541 27.6885 33.1824 27.4751ZM31.0707 31.8544C31.0705 31.8556 31.0702 31.8569 31.0699 31.8581C31.0597 31.9076 31.0466 31.9707 31.0325 32.0384C31.0484 32.1994 31.1294 32.3012 31.2599 32.3175C31.4553 32.3419 31.7068 32.1652 31.9097 31.8383C32.0791 31.5656 32.1619 31.3088 32.2838 30.7714C32.3444 30.5041 32.3508 30.4767 32.3785 30.3674C32.2164 30.2712 32.0836 30.1446 32.0074 30.0102C32.005 30.006 32.0027 30.0018 32.0005 29.9976C32.0191 29.9939 32.0378 29.9831 32.056 29.9685C32.0705 29.9569 32.0848 29.9429 32.0985 29.9284C32.1239 29.9014 32.1469 29.8734 32.1717 29.8397C32.1796 29.829 32.1982 29.8029 32.2125 29.7829C32.2142 29.7804 32.2159 29.778 32.2175 29.7758C32.2831 29.8697 32.3756 29.9581 32.4688 30.0101C32.5872 29.7266 32.5839 29.5509 32.4784 29.2405L32.4495 29.2408C32.3607 29.5213 32.154 29.8651 31.9785 29.9923C31.5907 30.2729 31.0548 30.2322 31.0758 30.0402C31.0774 30.0232 31.0792 30.0076 31.0832 29.9733C31.0916 29.9002 31.0956 29.8443 31.0939 29.7889C31.0752 29.763 31.062 29.7329 31.0555 29.6986C31.0551 29.6958 31.0547 29.6931 31.0543 29.6903L31.0541 29.6903C31.0545 29.6931 31.055 29.6958 31.0555 29.6986C31.0681 29.7887 31.0659 29.8582 31.0531 29.9694C31.049 30.0037 31.0472 30.0196 31.0456 30.0367C31.0203 30.2678 31.5876 30.3116 31.9924 30.0213C32.0688 30.174 32.2025 30.2992 32.3573 30.3777C32.3214 30.4688 32.315 30.4962 32.2543 30.7639C32.1332 31.2978 32.0512 31.552 31.8843 31.8208C31.6871 32.1385 31.4454 32.3083 31.2637 32.2856C31.108 32.2661 31.0305 32.1063 31.0707 31.8544ZM31.0707 31.8544C31.0802 31.8088 31.0872 31.7752 31.0901 31.7609C31.0819 31.7933 31.0755 31.8245 31.0707 31.8544ZM31.0901 31.7609C31.0904 31.7594 31.0906 31.7581 31.0908 31.7571L31.091 31.7571C31.0907 31.7584 31.0904 31.7597 31.0901 31.7609ZM32.2291 29.7583L32.23 29.7584C32.2281 29.7609 32.2235 29.7674 32.2175 29.7758C32.2175 29.7757 32.2174 29.7756 32.2173 29.7755C32.2132 29.7696 32.2092 29.7637 32.2053 29.7577L32.2291 29.7583ZM32.2362 29.7477C32.3285 29.6094 32.4113 29.4455 32.4642 29.2945C32.5531 29.5713 32.5516 29.7358 32.4619 29.9903C32.3909 29.9307 32.2995 29.8413 32.2362 29.7477ZM33.1824 27.4751C33.2092 27.4703 33.2374 27.4659 33.2674 27.4618L33.2589 27.4314C33.232 27.4449 33.2065 27.4595 33.1824 27.4751ZM31.0908 31.7571L31.0613 31.7497C31.0592 31.76 31.0515 31.7973 31.0405 31.8503C31.0401 31.8519 31.0398 31.8535 31.0395 31.8552C31.0446 31.8212 31.0519 31.7857 31.0613 31.7489L31.091 31.7563C31.091 31.7566 31.0909 31.7568 31.0908 31.7571ZM31.0742 26.5578L31.0508 26.5781C31.0528 26.5807 31.0548 26.5833 31.0567 26.586C31.0547 26.5834 31.0526 26.5807 31.0505 26.5781L31.0741 26.5577C31.0741 26.5577 31.0742 26.5577 31.0742 26.5578ZM29.2302 24.3136L29.2128 24.3398C29.2176 24.3432 29.2222 24.3468 29.2267 24.3503C29.2219 24.3468 29.2172 24.3432 29.2124 24.3397L29.2299 24.3134C29.23 24.3135 29.2301 24.3135 29.2302 24.3136Z" fill="black"/>
<path fill-rule="evenodd" clip-rule="evenodd" d="M33.3103 27.0344L33.0688 26.7278L33.0421 26.7344L32.9541 27.1341L32.5745 27.1304L32.5629 27.1565L32.8075 27.4781L32.569 27.7851L32.5811 27.8109L32.9738 27.8135L33.0517 28.2004L33.0785 28.2067L33.3249 27.8861L33.6656 28.0612L33.6868 28.0429L33.5977 27.6427L33.9418 27.4737L33.9415 27.4449L33.5873 27.2648L33.679 26.8797L33.6575 26.8617L33.3103 27.0344ZM33.6426 26.9047L33.3127 27.0688L33.2944 27.0645L33.0644 26.7724L33.072 26.7416L33.0453 26.7483L33.0644 26.7724L32.9694 27.1538L32.6051 27.1619L32.5868 27.1364L32.5752 27.1625L32.6051 27.1619L32.8317 27.4778L32.6114 27.7799L32.5814 27.7788L32.5934 27.8046L32.6114 27.7799L32.9888 27.7936L33.0744 28.1623L33.0548 28.1865L33.0815 28.1928L33.0744 28.1623L33.3193 27.8614L33.651 28.019L33.6571 28.0502L33.6783 28.0319L33.651 28.019L33.576 27.632L33.9015 27.4591L33.9283 27.4738L33.9281 27.445L33.9015 27.4591L33.5658 27.2759L33.6426 26.9047ZM33.6426 26.9047L33.6707 26.8907L33.6492 26.8728L33.6426 26.9047Z" fill="black"/>
<path fill-rule="evenodd" clip-rule="evenodd" d="M32.123 18.5931C32.9326 18.3464 33.614 17.6459 33.7706 16.8914L33.7906 16.8797C34.7271 17.224 35.5631 17.6805 36.3339 18.2281C36.6538 18.4553 36.8446 18.5465 37.4057 18.7738C37.6731 18.8821 37.8304 18.9542 37.9905 19.05C37.6968 18.2193 37.8888 16.9554 38.4433 15.8511C39.0993 14.5448 39.2321 13.5606 39.1494 12.1389C39.1034 11.3485 39.4972 11.1521 40.3258 11.3078C40.8664 11.4094 41.2522 11.3591 41.9809 11.157L42.0375 11.1413C42.864 10.9117 43.2731 10.8605 43.8933 10.9937C44.4642 11.1161 44.5974 11.6802 44.2745 11.9445C44.1522 12.0448 43.9946 12.123 43.7512 12.2117C43.6746 12.2396 43.4383 12.3188 43.2673 12.3761L43.2672 12.3762L43.2672 12.3762L43.2671 12.3762C43.1834 12.4043 43.1154 12.4271 43.0896 12.436C43.0811 12.4389 43.0726 12.442 43.064 12.4452C43.0892 12.4291 43.1107 12.4103 43.1286 12.389L43.2586 12.3454L43.2586 12.3453C43.4295 12.2881 43.6651 12.209 43.7413 12.1813C43.9818 12.0937 44.1367 12.0168 44.2558 11.9192C44.5579 11.6719 44.4329 11.1421 43.8873 11.0251C43.2729 10.8932 42.8677 10.9438 42.0454 11.1723L41.9889 11.1881C41.2561 11.3913 40.8666 11.442 40.3205 11.3394C39.5086 11.1868 39.1356 11.3728 39.18 12.1369C39.263 13.564 39.1295 14.5537 38.4705 15.866C37.9102 16.9819 37.7226 18.2611 38.0347 19.0808L38.0127 19.1006C37.8408 18.994 37.6816 18.9199 37.3949 18.8037C36.8316 18.5755 36.6393 18.4836 36.3169 18.2547C35.5526 17.7117 34.7242 17.2586 33.7968 16.9159L33.8006 16.8982L33.7806 16.9099L33.7968 16.9159C33.6309 17.6757 32.9453 18.3759 32.1418 18.6139C31.9351 19.2206 32.2636 20.2239 32.8152 20.8159C33.1132 20.9601 33.4228 21.0799 33.7453 21.1777C34.7388 21.4789 35.5524 21.5445 37.1691 21.5485C37.9991 21.5505 38.3229 21.5623 38.6691 21.6202C39.2187 21.7121 39.9708 21.2664 40.0669 20.581C40.0828 20.4672 40.1054 20.3629 40.1385 20.2435C40.159 20.1696 40.249 19.8755 40.2403 19.9044C40.286 19.7518 40.3219 19.6184 40.3568 19.4644C40.4703 18.9633 40.5534 18.3162 40.6074 17.3868C40.6283 17.0285 40.6339 16.8866 40.661 16.1217C40.695 15.1637 40.7264 14.7745 40.8142 14.5009C41.0433 13.7872 41.2265 13.4668 41.6128 13.3036C41.7674 13.2382 41.9108 13.1597 42.0681 13.0569L42.0731 13.0716L42.0929 13.0784C41.9307 13.185 41.7834 13.2661 41.6241 13.3334C41.2491 13.4918 41.0694 13.8062 40.8431 14.5112C40.7567 14.7804 40.7252 15.169 40.6915 16.1229C40.6643 16.8881 40.6587 17.0301 40.6378 17.3888C40.5837 18.3199 40.5003 18.9688 40.3864 19.4718C40.3513 19.6267 40.3153 19.7608 40.2694 19.914C40.2779 19.8856 40.1881 20.1791 40.1678 20.2525C40.135 20.3706 40.1127 20.4735 40.097 20.5857C39.9982 21.2908 39.2292 21.7464 38.6641 21.6519C38.3202 21.5944 37.9971 21.5826 37.1689 21.5806C35.5495 21.5766 34.7338 21.5108 33.7367 21.2085C33.4128 21.1103 33.1017 20.99 32.7977 20.8417C32.2342 20.2384 31.9017 19.223 32.123 18.5931ZM42.1234 13.0582L42.0929 13.0784L42.0961 13.0795C42.1057 13.0727 42.1148 13.0656 42.1234 13.0582ZM42.198 12.9688C42.179 13.002 42.1542 13.0319 42.1234 13.0582C42.1745 13.024 42.2273 12.9872 42.2825 12.9475C42.3134 12.9253 42.3813 12.8753 42.4449 12.8285L42.4508 12.8311C42.4742 12.8135 42.4956 12.7955 42.5151 12.7769L42.5787 12.7302C42.6895 12.6498 42.775 12.5925 42.8577 12.5447C42.9063 12.5166 42.953 12.4925 42.9986 12.4721L43.0043 12.4753C43.0261 12.4668 43.046 12.4567 43.064 12.4452C43.0424 12.4533 43.0206 12.4623 42.9986 12.4721L42.98 12.4616L42.9789 12.4461C42.9901 12.441 43.0012 12.4361 43.0123 12.4314L43.0126 12.4358C43.0053 12.4393 42.9977 12.4426 42.9899 12.4457L43.0142 12.4595L43.0126 12.4358C43.0229 12.4308 43.0326 12.4254 43.0418 12.4195C43.0547 12.4145 43.0674 12.4099 43.0802 12.4055L43.1286 12.389C43.2651 12.2272 43.1938 11.9264 42.9552 11.6491L42.924 11.6601L42.9789 12.4461C42.9348 12.4661 42.8897 12.4895 42.843 12.5165C42.7676 12.5602 42.6901 12.6114 42.5939 12.6803C42.7229 12.4687 42.6392 12.1741 42.2965 11.655L42.2688 11.6665L42.4246 12.8043C42.3619 12.8505 42.2956 12.8992 42.2653 12.921C42.2425 12.9374 42.22 12.9533 42.198 12.9688ZM42.1062 13.0317C42.1361 13.0117 42.1667 12.9907 42.198 12.9688C42.3384 12.7231 42.1563 12.2977 41.6785 11.8195L41.6535 11.8365L42.0681 13.0569L42.0948 13.0393L42.0953 13.0408C42.0901 13.0449 42.0847 13.049 42.0792 13.053L42.1022 13.0609L42.0953 13.0408L42.1062 13.0317ZM41.7046 11.8906C42.1959 12.3997 42.335 12.832 42.1062 13.0317L42.0948 13.0393L41.7046 11.8906ZM41.7046 11.8906C41.6893 11.8748 41.6736 11.8588 41.6576 11.8428L41.6826 11.8258L41.7046 11.8906ZM42.4527 12.7837L42.4246 12.8043L42.4268 12.8204L42.4449 12.8285L42.4789 12.8035L42.4791 12.8034L42.4791 12.8034L42.4792 12.8033L42.5151 12.7769C42.5467 12.7464 42.5731 12.7145 42.5939 12.6803L42.5614 12.7037L42.4954 12.7522C42.7015 12.5526 42.6635 12.2813 42.3084 11.7302L42.299 11.662L42.2713 11.6734C42.284 11.6926 42.2964 11.7116 42.3084 11.7302L42.4527 12.7837ZM42.4534 12.7892C42.4684 12.7771 42.4824 12.7648 42.4954 12.7522L42.4614 12.7772L42.4614 12.7772L42.4609 12.7776L42.4609 12.7776L42.4527 12.7837L42.4534 12.7892ZM42.4534 12.7892C42.4468 12.7946 42.44 12.7999 42.433 12.8051L42.4571 12.8159L42.4534 12.7892ZM42.962 11.7112L43.0123 12.4314C43.0222 12.4273 43.032 12.4233 43.0418 12.4195C43.2296 12.2997 43.191 12.0003 42.962 11.7112ZM42.962 11.7112L42.9582 11.658L42.9271 11.669C42.9391 11.683 42.9508 11.6971 42.962 11.7112Z" fill="black"/>
<path fill-rule="evenodd" clip-rule="evenodd" d="M33.2803 18.1927C33.2075 18.1606 33.1312 18.1293 33.0506 18.0988L33.0459 18.0715C33.0655 18.0539 33.0904 18.0304 33.116 18.0062C33.1512 17.973 33.1878 17.9385 33.2143 17.9159C33.2542 17.9321 33.2932 17.9486 33.3312 17.9653C33.6272 18.0955 33.7567 18.1738 34.1484 18.4376C34.6181 18.754 34.9428 18.9021 35.6129 19.0482C36.4099 19.2221 37.4208 19.5979 37.8942 19.8926L37.8265 20.0977C37.3625 19.8222 36.3548 19.4475 35.5612 19.2746C34.8871 19.1277 34.559 18.9779 34.0862 18.6595C33.6982 18.3982 33.5711 18.3211 33.2803 18.1927ZM33.0656 18.0959L33.0609 18.0686C33.069 18.0717 33.0772 18.0748 33.0853 18.0779C33.0784 18.0843 33.0717 18.0904 33.0656 18.0959ZM33.2201 17.9414C33.194 17.9728 33.1323 18.0343 33.0853 18.0779C33.1574 18.1056 33.2261 18.134 33.292 18.1631C33.5849 18.2924 33.7131 18.3702 34.1026 18.6325C34.5724 18.9489 34.8971 19.097 35.5673 19.2432C36.3638 19.4167 37.3744 19.7925 37.819 20.0799L37.8716 19.9027C37.4085 19.6276 36.4006 19.2529 35.6066 19.0796C34.9325 18.9327 34.6044 18.783 34.1317 18.4646C33.7414 18.2018 33.6131 18.1241 33.3192 17.9949C33.3171 17.994 33.3151 17.9931 33.313 17.9922C33.2773 17.9765 33.2415 17.9608 33.2201 17.9414Z" fill="black"/>
<path fill-rule="evenodd" clip-rule="evenodd" d="M39.4347 14.669C39.4347 14.6688 39.4348 14.6687 39.4348 14.6685L39.401 14.6604L39.2988 14.9971L39.3323 15.0062C39.3324 15.006 39.3324 15.0059 39.3325 15.0057L39.3329 15.0058L39.337 14.9923C39.373 14.8837 39.4043 14.7807 39.4314 14.6811L39.4351 14.669L39.4347 14.669ZM39.4347 14.669L39.4012 14.6609C39.3723 14.7681 39.3386 14.8791 39.2993 14.9968L39.3325 15.0057C39.334 15.0012 39.3355 14.9967 39.337 14.9923L39.4314 14.6811C39.4325 14.677 39.4336 14.673 39.4347 14.669ZM34.1005 17.3874C33.9766 17.3392 33.8364 17.2671 33.7005 17.183L33.6937 17.1641L33.7106 17.1098C33.7345 17.0324 33.7619 16.9437 33.7906 16.8797C34.7271 17.2241 35.5631 17.6805 36.3339 18.2281C36.6537 18.4553 36.8446 18.5465 37.4057 18.7738C37.6939 18.8906 37.8543 18.9653 38.0335 19.095L37.8416 19.4046C37.6022 19.2573 37.0108 18.9922 36.5722 18.8242C36.5704 18.8696 36.5504 18.9216 36.5135 18.9894C36.5051 19.0048 36.4962 19.0204 36.4838 19.0416C36.4263 19.1403 36.4149 19.1614 36.4049 19.1959C36.3929 19.237 36.4014 19.2584 36.4381 19.2697L36.4297 19.3006L36.4294 19.3005L36.4378 19.2697L36.3728 19.2505C36.3673 19.2327 36.3684 19.2111 36.3756 19.1865C36.3868 19.1481 36.3982 19.1269 36.4577 19.0248C36.4699 19.0039 36.4787 18.9885 36.4869 18.9735C36.5278 18.8985 36.546 18.8453 36.5409 18.8029L36.5613 18.7858C37.0034 18.954 37.6117 19.226 37.8362 19.3826L38.0126 19.1007C37.8406 18.9941 37.6814 18.92 37.3947 18.8038C36.8315 18.5756 36.6391 18.4837 36.3168 18.2547C35.548 17.7086 34.7144 17.2534 33.8004 16.8987C33.785 16.9648 33.7535 17.0758 33.7266 17.1619L33.716 17.1554L33.7227 17.1743L33.7266 17.1619C33.8577 17.2423 33.9925 17.3116 34.1204 17.377C34.1158 17.3933 34.1101 17.4099 34.1034 17.4268C34.0648 17.5236 33.998 17.6195 33.8875 17.7504L33.8342 17.8127L33.8342 17.8127L33.8342 17.8128C33.808 17.8433 33.7806 17.8752 33.7705 17.8872C33.7294 17.9361 33.7016 17.9724 33.6816 18.0041C33.6363 18.0761 33.6361 18.116 33.6837 18.1403C33.7311 18.1652 33.8574 18.2452 33.9943 18.3348C33.9947 18.3591 34.0045 18.3786 34.0249 18.3928C33.872 18.2919 33.7215 18.1961 33.6702 18.169C33.6017 18.1341 33.6021 18.0723 33.6561 17.9864C33.6771 17.9531 33.7057 17.9159 33.7476 17.866C33.7578 17.8537 33.7855 17.8216 33.8117 17.7909L33.8646 17.7291C33.9731 17.6007 34.0383 17.507 34.0752 17.4144L34.0762 17.4119C34.0821 17.397 34.0876 17.3833 34.1005 17.3874ZM34.0267 18.394L34.043 18.3668L33.9943 18.3348C33.9938 18.3019 34.0106 18.26 34.0419 18.21C34.0822 18.1455 34.1383 18.0763 34.245 17.9542L34.2588 17.9386C34.4562 17.7132 34.5163 17.6338 34.5147 17.5799L34.5348 17.5642C34.7816 17.6499 35.0122 17.7738 35.3115 17.9675L35.3222 17.9746C35.3822 18.0142 35.6766 18.2085 35.7605 18.26C35.9181 18.3569 36.0408 18.4176 36.1632 18.4693C36.1499 18.5228 36.1248 18.5813 36.0878 18.6496C36.069 18.6843 36.0482 18.7198 36.0198 18.7661L36.0184 18.7685C35.926 18.9192 35.9077 18.9492 35.8942 18.9812C35.8908 18.9892 35.8878 18.9973 35.884 19.0074L35.884 19.0074L35.8835 19.0087C35.8586 19.0749 35.8679 19.1079 35.9188 19.1212C35.975 19.1341 36.0682 19.1604 36.2239 19.2065L36.2359 19.21L36.3419 19.2414L36.3728 19.2505C36.3799 19.2736 36.3981 19.2905 36.4282 19.3002L36.3336 19.2723L36.2276 19.2409L36.2157 19.2374C36.0606 19.1915 35.9676 19.1653 35.9119 19.1525C35.8395 19.1335 35.8242 19.079 35.8551 18.9969L35.8559 18.9948C35.8599 18.984 35.8632 18.9754 35.8667 18.9669C35.8806 18.934 35.8995 18.9032 35.9919 18.7522L35.9941 18.7487C36.0222 18.7028 36.0428 18.6678 36.0613 18.6337C36.0741 18.6101 36.0853 18.5877 36.0956 18.5673L36.0957 18.5673L36.0957 18.5673L36.0957 18.5673C36.1142 18.5307 36.1294 18.5004 36.1444 18.4806C36.0297 18.4477 35.9047 18.3859 35.745 18.2877C35.6603 18.2357 35.3631 18.0395 35.3052 18.0013L35.2955 17.9949C35.0056 17.8072 34.781 17.6857 34.5438 17.6012C34.5333 17.6645 34.4682 17.7469 34.2813 17.9603L34.2676 17.9759C34.162 18.0967 34.1066 18.1651 34.0675 18.2276C34.0209 18.3022 34.0135 18.3473 34.043 18.3668L34.0267 18.394L34.0267 18.394ZM34.0267 18.394L34.0249 18.3928L34.0267 18.394L34.0267 18.394ZM36.4282 19.3002L36.4294 19.3005L36.4294 19.3005L36.4282 19.3002ZM40.5801 18.2672C40.6022 18.0729 40.376 17.9374 39.9554 17.8503C39.619 17.7807 39.1679 17.7452 38.6895 17.7412L38.6856 17.7728L40.5611 18.2809L40.5801 18.2672ZM40.5508 18.2449L40.5687 18.2498L40.5497 18.2634C40.5504 18.2572 40.5508 18.2511 40.5508 18.2449ZM38.8165 17.7751C39.2454 17.7839 39.6451 17.8189 39.9494 17.8819C40.3398 17.9626 40.5529 18.0847 40.5508 18.2449L38.8165 17.7751ZM38.8165 17.7751C38.7743 17.7742 38.7319 17.7736 38.6892 17.7733L38.6931 17.7417L38.8165 17.7751ZM38.5162 17.6442C38.5365 17.4803 38.5643 17.3207 38.6002 17.1659L38.5659 17.16L38.5661 17.1592L38.6005 17.1651L38.5162 17.645L38.4815 17.6406L38.4816 17.6399L38.5162 17.6442ZM38.4818 17.638L38.4816 17.6399L38.4815 17.6399L38.4818 17.638ZM38.4818 17.638L38.5655 17.1617L38.5659 17.16L38.5658 17.16L38.5655 17.1617C38.5298 17.316 38.5021 17.4749 38.4818 17.638Z" fill="black"/>
<path fill-rule="evenodd" clip-rule="evenodd" d="M39.1395 16.0301C38.655 17.1559 38.5361 18.4774 38.8913 19.2667L38.8722 19.2886L38.6458 19.1959C38.4699 18.7861 38.4163 18.2434 38.4935 17.6581L38.4162 17.6414C38.3526 17.6281 38.3027 17.6194 38.2541 17.6141C38.0369 17.5905 37.9147 17.6462 37.9014 17.8219L37.9013 17.8219C37.9055 17.7741 37.9107 17.7255 37.9168 17.676C37.9775 17.5904 38.0946 17.5645 38.2572 17.5821C38.3069 17.5875 38.3577 17.5964 38.4221 17.6099C38.4398 17.6136 38.495 17.6256 38.5117 17.6442C38.4472 18.2417 38.5003 18.7788 38.665 19.1742L38.8482 19.2451C38.8532 19.257 38.8584 19.2687 38.8636 19.2804L38.8827 19.2585L38.8482 19.2451C38.5075 18.4426 38.6309 17.1339 39.1116 16.0169C39.5761 14.937 39.7196 13.9805 39.6773 12.9413C39.748 12.9426 39.8024 12.9237 39.9134 12.869L39.9187 12.8664C39.9492 12.8513 39.9634 12.8445 39.9809 12.8365C40.4641 12.6163 40.9029 12.6475 41.2053 12.8649C41.4154 13.016 41.514 13.2353 41.4559 13.3845C41.4303 13.4011 41.4075 13.4192 41.3763 13.4455C41.5123 13.3258 41.4293 13.0649 41.188 12.8914C40.8946 12.6804 40.467 12.65 39.9931 12.866C39.976 12.8738 39.962 12.8805 39.9318 12.8954L39.9265 12.898C39.8113 12.9548 39.7537 12.9748 39.6923 12.9564C39.7505 13.9836 39.6062 14.9452 39.1395 16.0301ZM41.3744 13.4471L41.3937 13.472C41.4225 13.4473 41.4431 13.4176 41.4559 13.3845C41.4974 13.3577 41.5465 13.3347 41.6511 13.2871L41.6715 13.2776C41.8403 13.2003 41.6062 12.6929 41.1807 12.4807C40.9882 12.3846 40.6013 12.3685 40.3253 12.428L40.3105 12.4019C40.5142 12.1505 40.6572 12.0598 40.9503 12.0259C40.9541 12.1368 40.9274 12.2651 40.8826 12.3715L40.8619 12.3688L40.8624 12.3698L40.8737 12.3917C40.8767 12.3852 40.8796 12.3786 40.8824 12.3719C40.8825 12.3717 40.8825 12.3716 40.8826 12.3715L40.8936 12.3728C40.9805 12.3833 41.0378 12.3927 41.0868 12.4109C41.1174 12.4223 41.1448 12.4372 41.1741 12.4581C41.1764 12.4539 41.1787 12.4497 41.181 12.4455C41.2538 12.3087 41.2918 12.1247 41.2902 11.9292C41.3711 11.9064 41.4501 11.8824 41.5632 11.8471C41.923 11.7347 41.9847 11.7164 42.1378 11.681C42.3561 11.6305 42.548 11.6094 42.7378 11.6202C43.1089 11.6412 43.3804 11.7816 43.4581 11.9715C43.5098 12.098 43.4666 12.2224 43.3423 12.3172C43.3133 12.3269 43.285 12.3364 43.2583 12.3454C43.2295 12.355 43.2025 12.3641 43.1784 12.3722C43.4009 12.2825 43.4912 12.1338 43.43 11.9841C43.3578 11.8076 43.0969 11.6727 42.7362 11.6522C42.5494 11.6417 42.3603 11.6624 42.1445 11.7123C41.9924 11.7475 41.9309 11.7658 41.572 11.8779C41.4587 11.9133 41.3794 11.9373 41.3095 11.9436C41.3221 12.1236 41.2857 12.3076 41.1979 12.4537C41.6398 12.6766 41.8871 13.214 41.684 13.3069L41.6634 13.3165C41.4955 13.3929 41.4739 13.4044 41.3936 13.4721L41.3744 13.4471C41.3744 13.4471 41.3744 13.4471 41.3744 13.4471ZM40.8503 12.3686C40.896 12.2646 40.924 12.1368 40.9377 12.0422C40.6828 12.0878 40.5466 12.1685 40.3625 12.3879C40.5135 12.3606 40.6901 12.3538 40.8503 12.3686ZM43.1865 12.4032C43.2475 12.3787 43.2997 12.3497 43.3423 12.3172C43.4989 12.2646 43.6767 12.2047 43.7409 12.1813C43.9814 12.0937 44.1364 12.0168 44.2555 11.9192C44.5576 11.6719 44.4326 11.1421 43.887 11.0252C43.2726 10.8933 42.8674 10.9439 42.0451 11.1724L41.9885 11.1881C41.2558 11.3913 40.8662 11.4421 40.3202 11.3394C39.9445 11.2688 39.6721 11.2708 39.48 11.3657C39.2513 11.4787 39.1462 11.7245 39.1797 12.1365C39.1811 12.1535 39.1819 12.1645 39.1828 12.1754C39.1844 12.1951 39.1858 12.2148 39.1899 12.2703L39.1904 12.277C39.1932 12.3156 39.1956 12.3455 39.1993 12.3878C39.1993 12.6866 38.8431 12.8361 38.5032 12.6446C38.4856 12.6226 38.4676 12.5989 38.4492 12.5736L38.4284 12.5966C38.4531 12.6145 38.4781 12.6305 38.5032 12.6446C38.6036 12.7699 38.6933 12.843 38.787 12.8809C38.8749 12.9166 38.9417 12.9218 39.1272 12.9182C39.1571 12.9176 39.1705 12.9174 39.1731 12.9327C39.1746 12.8869 39.2043 12.8669 39.2523 12.8693C39.2855 12.871 39.3222 12.8807 39.3908 12.9034L39.3998 12.9064C39.5019 12.9403 39.5402 12.9491 39.5604 12.9386L39.5824 12.9525C39.6007 13.5352 39.5544 14.0864 39.3965 14.6793C39.1454 14.5625 38.9884 14.5567 38.9344 14.7079C38.9123 14.7816 38.8895 14.8534 38.8655 14.9247C38.8382 14.945 38.817 14.9747 38.802 15.0146C38.839 14.9103 38.8729 14.8063 38.9055 14.6975C38.9689 14.5198 39.143 14.5262 39.388 14.6607C39.5224 14.0887 39.569 13.5466 39.5526 12.9744C39.5234 12.9787 39.4812 12.9671 39.3906 12.937L39.3816 12.934C39.3158 12.9122 39.2805 12.9029 39.251 12.9014C39.218 12.8997 39.2046 12.9088 39.1886 12.9493L39.1279 12.9503C38.9384 12.954 38.8689 12.9485 38.776 12.9109C38.6599 12.8638 38.551 12.7669 38.425 12.5931L38.4458 12.5701C38.7876 12.8177 39.1688 12.6796 39.1688 12.3893C39.1652 12.3483 39.1628 12.3182 39.1599 12.2795L39.1595 12.2728C39.1554 12.2173 39.1539 12.1977 39.1524 12.178C39.1515 12.1671 39.1506 12.1562 39.1493 12.1393C39.1147 11.7149 39.2255 11.456 39.467 11.3367C39.6664 11.2382 39.9442 11.2361 40.3257 11.3078C40.8662 11.4094 41.252 11.3591 41.9808 11.157L42.0373 11.1413C42.8638 10.9117 43.2729 10.8605 43.8932 10.9937C44.4641 11.1161 44.5972 11.6802 44.2743 11.9445C44.152 12.0448 43.9944 12.123 43.751 12.2117C43.6744 12.2396 43.438 12.3189 43.267 12.3762C43.2379 12.3859 43.2107 12.3951 43.1865 12.4032ZM38.8287 15.0311C38.8413 14.9956 38.8535 14.9602 38.8655 14.9247C38.9551 14.8581 39.1104 14.893 39.3281 15.0061C39.2377 15.3154 39.1212 15.6302 38.9767 15.9512C38.8038 16.3344 38.669 16.7516 38.5665 17.1781C38.2366 17.0917 38.0185 17.0972 37.9869 17.2594C37.9567 17.406 37.9332 17.5443 37.9168 17.676C37.8932 17.7094 37.8781 17.7519 37.8722 17.8045C37.8879 17.6326 37.9164 17.45 37.957 17.2528C37.9943 17.0614 38.225 17.0555 38.5553 17.1592C38.6396 16.7425 38.7752 16.3228 38.9491 15.9375C39.093 15.6179 39.209 15.3045 39.3073 15.016C39.0443 14.8936 38.8819 14.8815 38.8287 15.0311L38.8287 15.0311ZM38.8287 15.0311C38.8287 15.0311 38.8287 15.0311 38.8287 15.0311L38.8 15.0199C38.8006 15.0181 38.8013 15.0163 38.802 15.0146C38.8013 15.0163 38.8007 15.0181 38.8001 15.0199L38.8287 15.0311ZM43.1865 12.4032C43.156 12.4154 43.1234 12.4264 43.0886 12.4362L43.0799 12.4055C43.0969 12.3996 43.1323 12.3877 43.1784 12.3722C43.1483 12.3843 43.1157 12.3954 43.0807 12.4052L43.0895 12.436C43.1063 12.4302 43.1411 12.4184 43.1865 12.4032ZM41.3744 13.4471L41.3744 13.447C41.375 13.4465 41.3757 13.446 41.3763 13.4455C41.3757 13.446 41.3751 13.4465 41.3744 13.4471ZM37.8722 17.8045C37.8718 17.8094 37.8713 17.8143 37.8709 17.8192L37.9013 17.8219C37.9013 17.8219 37.9013 17.822 37.9013 17.8221L37.8708 17.8194C37.8712 17.8143 37.8717 17.8093 37.8722 17.8045Z" fill="black"/>
</g>
</g>
</g>
<defs>
<clipPath id="clip0_37941_2270">
<rect width="64" height="42" rx="5" fill="white"/>
</clipPath>
<clipPath id="clip1_37941_2270">
<rect width="25.2" height="30.8" fill="white" transform="translate(19.4 5.60001)"/>
</clipPath>
<clipPath id="clip2_37941_2270">
<rect width="25.2" height="28" fill="white" transform="translate(19.4 5.60001)"/>
</clipPath>
<clipPath id="clip3_37941_2270">
<rect width="25.2" height="25.2" fill="white" transform="translate(19.4 9.71017)"/>
</clipPath>
</defs>
</svg>
