<svg xmlns="http://www.w3.org/2000/svg" width="64" height="42" fill="none" viewBox="0 0 64 42"><g clip-path="url(#a)"><rect width="64" height="42" fill="#fff" rx="5"/><path fill="#19bfbf" d="M0 0h64v42H0z"/><path fill="#fff" fill-rule="evenodd" d="m38.5049 37.3051-2.1882-2.1882a.7.7 0 0 1-.1691-.2736l-1.1883-3.5649a.6995.6995 0 0 0-.6636-.4783c-.455 0-.7889.4276-.6786.8691l1.0866 4.3464a.7.7 0 0 1-.1841.6647l-.6248.6248a.7.7 0 0 1-.9899 0l-.7-.7a.7.7 0 0 1-.205-.495v-2.3448a.7.7 0 0 0-.0739-.313l-1.1327-2.2653a.7.7 0 0 0-.6261-.3869h-3.6021a.7.7 0 0 0-.313.0739l-2.3929 1.1964a.7.7 0 0 0-.351.4048l-1.2167 3.6498a.7.7 0 0 1-.351.4048l-2.2276 1.1138a.7.7 0 0 1-.6261 0l-2.1-1.05a.7.7 0 0 1-.3869-.6261v-4.4674a.7.7 0 0 1 .7-.7h2.8a.7.7 0 0 0 .7-.7v-1.9864c0-.0752.0121-.15.0359-.2214l1.2045-3.6136a.7.7 0 0 1 .6641-.4786h2.1302a.7.7 0 0 0 .3131-.0739l2.5044-1.2522a.7.7 0 0 1 .313-.0739h1.9348a.7.7 0 0 0 .7-.7V21.29a.7.7 0 0 1 .205-.4949l.5082-.5083c.3379-.3378.9074-.2454 1.1211.182l.7722 1.5443a.7.7 0 0 0 .6261.387h3.2628a.7.7 0 0 0 .6641-.4786l1.0809-3.2428a.7.7 0 0 1 .6641-.4786h1.5955a.7.7 0 1 0 0-1.4h-1.4a.7.7 0 0 1-.7-.7v-1.9348a.7.7 0 0 1 .0739-.313l1.1004-2.2009a.7.7 0 0 0-.1311-.8081l-.5483-.5482a.7.7 0 0 0-.9899 0l-2.1 2.1a.7.7 0 0 0-.205.4949v2.3965c0 .0752-.0122.15-.036.2214l-1.2045 3.6136a.7.7 0 0 1-.6641.4786h-.6055a.7.7 0 0 1-.495-.205l-.9932-.9932a.69.69 0 0 1-.2017-.4872c0-.5121-.539-.8451-.997-.6161l-1.3518.6759a.7.7 0 0 1-.808-.1312l-.8382-.8382a.7.7 0 0 1-.205-.495V14.29a.7.7 0 0 1 .205-.4949l2.595-2.595 4.0831-4.0832a.7.7 0 0 1 .2736-.169l3.9355-1.3119a.7.7 0 0 1 .2214-.0359h2.2537a.7.7 0 0 1 .6261.387l1.1327 2.2652a.7.7 0 0 1 .0739.313v3.7448c0 .1857.0737.3637.205.495l.889.8891a.7.7 0 0 1 .1691.7163l-1.0941 3.2824a.7.7 0 0 0 .2758.8038l3.7552 2.5034 2.0907 1.0454c.3766.1883.503.664.2694 1.0144l-2.2426 3.3638a.7.7 0 0 0-.1175.3883v3.4836a.7.7 0 0 1-.4787.664l-3.4463 1.1488a.7.7 0 0 0-.4047.351l-1.2195 2.4391a.7.7 0 0 1-.1312.1819l-2.2247 2.2247a.7.7 0 0 1-.9899 0M27.7999 35c0 .7732-.6268 1.4-1.4 1.4s-1.4-.6268-1.4-1.4.6268-1.4 1.4-1.4 1.4.6268 1.4 1.4M20.8 19.6c.7732 0 1.4-.6268 1.4-1.4s-.6268-1.4-1.4-1.4-1.4.6268-1.4 1.4.6268 1.4 1.4 1.4" clip-rule="evenodd"/><path fill="#fff" fill-rule="evenodd" d="M23.5262 18.348a.7.7 0 0 0 .0739-.313v-1.0695a.7.7 0 0 0-.0739-.3131l-.8196-1.6391c-.2327-.4654.1057-1.0131.6261-1.0131h.9674a.7.7 0 0 1 .7.7v3.3348c0 .1087.0253.2158.0739.313l.8195 1.6392c.2328.4654-.1057 1.013-.6261 1.013h-1.9347c-.5204 0-.8588-.5476-.6261-1.013z" clip-rule="evenodd"/></g><defs><clipPath id="a"><rect width="64" height="42" fill="#fff" rx="5"/></clipPath></defs></svg>