<svg xmlns="http://www.w3.org/2000/svg" width="64" height="42" fill="none" viewBox="0 0 64 42"><g clip-path="url(#a)"><rect width="64" height="42" fill="#fff" rx="5"/><path fill="#19bfbf" d="M0 0h64v42H0z"/><path fill="#fff" fill-rule="evenodd" d="M19.459 11.555a.7.7 0 0 1 .196-.61l5.14-5.14a.7.7 0 0 1 .495-.205h3.477a.7.7 0 0 1 .626.387l1.013 2.026a.7.7 0 0 0 .626.387h4.735a.7.7 0 0 1 .626.387l3.813 7.626a.7.7 0 0 0 .626.387H43.2c.577 0 .906.659.56 1.12l-3.322 4.43a.7.7 0 0 0-.066.107l-1.298 2.596a.7.7 0 0 0-.074.313v2.47a.7.7 0 0 1-.074.313L37.6 30.8l-1.4 2.8-1.206 2.413a.7.7 0 0 1-.626.387h-1.935a.7.7 0 0 1-.626-.387l-1.133-2.265a.7.7 0 0 1-.074-.313V25.49a.7.7 0 0 0-.205-.495l-1.078-1.078a.7.7 0 0 1-.169-.274l-1.188-3.565a.7.7 0 0 0-.664-.479h-5.903a.7.7 0 0 1-.69-.585zM41.8 28.7a.7.7 0 0 1 .7-.7h1.4a.7.7 0 0 1 .7.7v1.935a.7.7 0 0 1-.074.313l-1.133 2.265a.7.7 0 0 1-.626.387H42.5a.7.7 0 0 1-.7-.7z" clip-rule="evenodd"/></g><defs><clipPath id="a"><rect width="64" height="42" fill="#fff" rx="5"/></clipPath></defs></svg>