<svg xmlns="http://www.w3.org/2000/svg" width="64" height="42" fill="none" viewBox="0 0 64 42"><g clip-path="url(#a)"><rect width="64" height="42" fill="#fff" rx="5"/><path fill="#fff" d="M0 0h64v42H0z"/><rect width="63" height="41" x="1" y="1" stroke="#f5f5f5" rx="5"/><path fill="#74acdf" d="M64 0H0v14h64zm0 28H0v14h64z"/><path fill="#f6b40e" d="m32.2354 21.1005 2.383 5.2049s.041.0995.1072.0721.025-.1269.025-.1269l-1.9861-5.3699m-.057 2.0252c-.029.7916.4567 1.2269.3932 1.9338-.0634.707.3239 1.1066.4137 1.3815.0898.275-.0972.4393-.0166.4785.0807.0391.2571-.1781.1996-.5689-.0575-.3909-.3535-.5069-.2839-1.3703s-.3523-1.0645-.2496-1.852"/><path fill="#85340a" fill-rule="evenodd" d="m34.794 26.2338-1.9859-5.3693-.0873.0325 1.9864 5.3707.0003.0006v.0002l.0001.0001.0008.0021.0028.0089a.13.13 0 0 1 .0052.0275c.0016.0219-.0042.0254-.0086.0273m.0862-.1006.0004.001.0011.0029.0005.0014a.23.23 0 0 1 .0133.0613c.0025.0348-.0043.0947-.066.1202-.0617.0256-.1087-.012-.1314-.0383a.23.23 0 0 1-.0338-.0528l-.0013-.0028-.0006-.0014-.0006-.0013-1.3706-2.9936c.0204.1693.0668.3124.1154.4611l.0016.0049c.0839.2566.1731.5293.1378.9678-.0342.4254.0216.663.0913.8416.0228.0586.0465.1095.0701.1602a4 4 0 0 1 .0403.0884c.0356.0813.0667.1661.0819.2695.0299.2033-.0005.3649-.0521.4727-.0256.0536-.0574.0959-.0918.1225-.0327.0255-.0784.0437-.1221.0226a.08.08 0 0 1-.0428-.0485.11.11 0 0 1-.0014-.0549.4.4 0 0 1 .0139-.0495l.0061-.0181a1 1 0 0 0 .0119-.036c.0241-.0759.0456-.1747.005-.2989-.0209-.0638-.0596-.1364-.108-.2245l-.0114-.0207c-.0451-.0818-.0962-.1745-.1431-.2789-.1025-.2278-.1859-.5126-.1534-.8762.0307-.3415-.0707-.6178-.1809-.9147l-.0016-.0043c-.1092-.2946-.2256-.6082-.2108-1.0123l.0931.0034c-.0141.3855.0966.6843.2066.9807l.0005.0012c.1094.295.2186.5896.1859.9544-.0308.3434.0476.6119.1454.8294.0454.1008.0947.1904.14.2725l.0112.0205c.0475.0863.0909.1667.1149.2404.0493.1507.0222.2715-.0046.3563a2 2 0 0 1-.013.0391l-.0055.0162a.3.3 0 0 0-.0107.0375l-.0001.0002a.07.07 0 0 0 .0179-.0107c.0197-.0152.0435-.0443.0649-.089.0424-.0887.0715-.2311.0439-.4187-.0136-.092-.0411-.1683-.075-.2457q-.0175-.0395-.0375-.0821a3 3 0 0 1-.0744-.17c-.0753-.1929-.1327-.445-.0974-.8831.0338-.4197-.0506-.678-.1337-.932l-.0013-.0041c-.0695-.2123-.1377-.4228-.1303-.716l-.9087-1.9847.0846-.0389.8387 1.832.0014-.0106.0923.0121a2 2 0 0 0-.0146.1711l1.4656 3.2012.0003.0006v.0002l.0001.0002.0009.002.0043.0083a.14.14 0 0 0 .0157.0231c.0143.0166.0209.0151.0255.0132" clip-rule="evenodd"/><path fill="#f6b40e" d="m32.2135 20.9906.2148 5.723s-.0001.1077.0715.1078c.0716 0 .0716-.1077.0716-.1077l.2148-5.7231m-.8257 1.8492c-.3289.7201-.0464 1.3087-.3749 1.9374s-.1232 1.1466-.1451 1.4351-.2575.3686-.198.4356c.0596.0671.3055-.0659.4016-.449.096-.3832-.1331-.6039.2607-1.3749s.0809-1.1186.4764-1.8068"/><path fill="#85340a" fill-rule="evenodd" d="m32.618 26.7148.2148-5.7225-.0931-.0035-.2148 5.724v.0011l-.0001.0022-.0007.0093a.14.14 0 0 1-.0058.0274c-.0069.0208-.0135.0219-.0184.0219m.1181-.0599v.0011l-.0001.0031-.0001.0015a.24.24 0 0 1-.0111.0618c-.011.033-.0401.0857-.1069.0857-.0667-.0001-.0958-.0528-.1067-.0858a.23.23 0 0 1-.0111-.0618l-.0001-.0031-.0001-.0015v-.0014l-.1235-3.2916c-.0458.1643-.0576.3143-.0694.4703l-.0004.0051c-.0205.2693-.0422.5555-.2422.9471-.194.3798-.2331.6208-.2369.8125-.0013.0629.0012.119.0036.1749.0014.0321.0029.064.0035.0971.0019.0888-.0018.179-.0272.2804-.05.1993-.1397.3369-.2286.4168-.044.0396-.0896.0665-.1315.0779-.04.011-.0892.0103-.1214-.026a.08.08 0 0 1-.0211-.0612.11.11 0 0 1 .0197-.0512.4.4 0 0 1 .0317-.0404l.0126-.0144c.0079-.0091.016-.0183.0247-.0287.0512-.0609.1088-.144.1187-.2743.0051-.0669-.003-.1489-.0141-.2488l-.0026-.0235c-.0104-.0928-.0222-.1981-.0258-.3126-.0077-.2498.0239-.5449.1928-.8683.1587-.3038.1705-.5979.182-.9145l.0002-.0045c.0115-.3141.0237-.6485.1917-1.0162l.0846.0389c-.1602.3507-.1719.6692-.1834.9853l-.0001.0013c-.0115.3145-.023.6286-.1925.953-.1595.3055-.1896.5836-.1822.8221.0034.1106.0148.2123.0252.3055l.0026.0232c.0109.0979.0203.1889.0144.2662-.012.1581-.0831.2594-.1403.3274a2 2 0 0 1-.0269.0311l-.0113.0129a.3.3 0 0 0-.0242.0305l-.0001.0002a.07.07 0 0 0 .0206-.003c.024-.0066.0571-.0243.0939-.0574.0731-.0657.1543-.1861.2004-.37.0226-.0902.0262-.1712.0245-.2557a4 4 0 0 0-.0033-.0902c-.0025-.0582-.0052-.1203-.0039-.1857.0041-.2071.0473-.462.2472-.8532.1914-.3748.212-.6459.2322-.9123l.0003-.0044c.0169-.2228.0343-.4434.1529-.7115l-.0819-2.1822.0931-.0035.0756 2.0143.0052-.0092.0807.0466a2 2 0 0 0-.0788.1524l.1321 3.5198v.0011l.0001.0022.0007.0093a.14.14 0 0 0 .0057.0274c.0069.0208.0136.0219.0185.022" clip-rule="evenodd"/><path fill="#f6b40e" d="m32.2353 20.8807-1.9861 5.3697s-.0412.0995.0249.127c.0662.0275.1072-.072.1072-.072l2.3831-5.205m-1.4687 1.3916c-.5788.5392-.5424 1.1913-1.0859 1.6461-.5435.455-.5515 1.0121-.6819 1.2702s-.3786.2417-.3492.3265c.0295.0849.3074.0564.5424-.2608s.1076-.6089.7657-1.1701c.6582-.5613.5018-1.0024 1.1298-1.4865"/><path fill="#85340a" fill-rule="evenodd" d="m30.4239 26.3243 2.3828-5.2045-.0846-.0389-2.3834 5.2058-.0003.0006v.0001l-.0001.0001v.0002l-.001.002-.0042.0083a.14.14 0 0 1-.0157.0231c-.0143.0166-.0209.015-.0254.0132m.1319-.01-.0004.001-.0013.0028-.0006.0014a.24.24 0 0 1-.0339.0528c-.0227.0263-.0697.0638-.1314.0382-.0616-.0257-.0684-.0856-.0659-.1203a.24.24 0 0 1 .0134-.0613l.001-.0029.0006-.0014.0005-.0013 1.1423-3.0884c-.105.1341-.1732.2682-.2436.4078l-.0024.0046c-.1216.2409-.2509.497-.5852.7821-.3242.2764-.4523.4841-.529.6597-.0252.0577-.0443.1105-.0634.163a4 4 0 0 1-.0339.0911c-.0321.0828-.07.1647-.1322.2486-.1222.1649-.2577.2577-.3702.2974-.0559.0197-.1082.027-.1513.0215-.0411-.0052-.0863-.0247-.1022-.0706a.08.08 0 0 1 .0039-.0646.11.11 0 0 1 .0377-.0398.4.4 0 0 1 .0447-.0252l.0172-.0085q.0159-.0078.0337-.0169c.0706-.0367.1555-.0913.2144-.208.0303-.0598.0541-.1386.0819-.2352l.0066-.0228c.0258-.0897.0551-.1915.0955-.2986.0883-.2337.2301-.4943.5096-.7282.2626-.2198.3857-.4871.5172-.7751l.0019-.0041c.1305-.2858.2695-.5901.565-.8653l.0634.0684c-.2819.2625-.4143.5523-.5456.8399l-.0006.0012c-.1307.2861-.2612.5719-.5417.8066-.2639.221-.3978.4665-.4821.6896-.0391.1035-.0673.2018-.0933.2919l-.0064.0224c-.0273.0947-.0534.1824-.0883.2515-.0715.1415-.1759.2077-.2546.2486-.0128.0067-.0255.0129-.0368.0185q-.0083.004-.0153.0076a.3.3 0 0 0-.0341.0189l-.0001.0001a.06.06 0 0 0 .0201.0051c.0247.0032.062-.0005.1087-.017.0926-.0326.2136-.1127.3264-.2649.0553-.0747.0896-.1481.1202-.2269q.0155-.0404.0314-.0846a3 3 0 0 1 .0673-.173c.0829-.1898.2201-.4087.554-.6934.32-.2729.4424-.5154.5628-.7538l.002-.0039c.1007-.1994.2009-.3966.4129-.5987l.7573-2.0475.0873.0324-.6991 1.89.0084-.0065.0567.074a2 2 0 0 0-.131.1106l-1.2215 3.3026-.0002.0006-.0001.0001v.0001l-.0001.0002-.0008.0021-.0028.0088a.13.13 0 0 0-.0052.0275c-.0016.0219.0042.0255.0087.0274" clip-rule="evenodd"/><path fill="#f6b40e" d="m32.2974 20.7875-3.8847 4.199s-.076.0761-.0254.1269.1265-.0254.1265-.0254l4.1886-3.8946m-1.8881.7223c-.7406.276-.9559.8925-1.6317 1.1042s-.8958.7234-1.1148.9118-.442.0782-.4472.1678c-.0052.0897.2625.17.6006-.0329.3382-.2028.3319-.5213 1.1541-.7873.8223-.266.8462-.7336 1.6113-.9399"/><path fill="#85340a" fill-rule="evenodd" d="m28.5459 25.1218 4.1881-3.8942-.0633-.0684-4.1892 3.8952-.0004.0005h-.0001l-.0001.0001-.0001.0001-.0016.0015-.0071.0061a.13.13 0 0 1-.0234.0153c-.0195.0098-.025.0059-.0284.0024m.1256.0414-.0007.0007-.0023.0021-.0011.0011-.0115.0098a.23.23 0 0 1-.0399.026c-.0311.0155-.0889.0322-.136-.0152s-.0305-.1052-.015-.1363a.23.23 0 0 1 .0357-.0516l.0021-.0022.0011-.0011.001-.0011 2.2342-2.415c-.1482.0837-.2624.1814-.3808.2833l-.0039.0034c-.2043.1759-.4215.3629-.8391.498-.4051.131-.6028.2737-.7407.4066a2.7 2.7 0 0 0-.1208.1262c-.0216.0237-.0431.0473-.066.0712-.0613.0641-.1276.1253-.2171.1789-.1758.1055-.3364.1392-.4555.1327-.0591-.0032-.1103-.0165-.148-.0381-.036-.0206-.0703-.056-.0675-.1045a.08.08 0 0 1 .0283-.0582.11.11 0 0 1 .0501-.0223.4.4 0 0 1 .0509-.0061l.019-.0012c.012-.0008.0242-.0016.0377-.0027.0792-.0068.1785-.0247.2774-.1099.0508-.0437.1029-.1074.1655-.1859l.0148-.0185c.0581-.073.124-.1558.2022-.2393.1708-.182.4013-.3684.7488-.4773.3265-.1023.5422-.302.7737-.5176l.0033-.0031c.2297-.214.4742-.4417.8523-.5827l.0324.0875c-.3606.1344-.5936.3514-.8247.5667l-.0009.0009c-.23.2142-.4596.4281-.8084.5374-.3282.1029-.5456.2783-.7086.4521-.0756.0806-.1393.1606-.1976.2339l-.0146.0183c-.0613.077-.1189.1479-.1775.1984-.1201.1033-.2418.1245-.3302.132a2 2 0 0 1-.041.003l-.017.0011a.3.3 0 0 0-.0387.0044l-.0002.0001a.07.07 0 0 0 .0167.0124c.0216.0124.0575.0233.1069.026.098.0054.2403-.0222.4026-.1195.0796-.0478.1394-.1025.1977-.1635a4 4 0 0 0 .0613-.0661c.0393-.0429.0812-.0888.1282-.134.149-.1436.3593-.2932.7766-.4281.3997-.1294.6054-.3064.8077-.4805l.0033-.0029c.1691-.1455.337-.2893.6099-.3947l1.4813-1.6011.0682.0635-1.3672 1.4779.0102-.0028.0242.0901a2 2 0 0 0-.1633.052l-2.3892 2.5825-.0005.0005v.0001h-.0001l-.0001.0001-.0015.0017a.13.13 0 0 0-.0213.0305c-.0098.0196-.0059.0251-.0024.0286" clip-rule="evenodd"/><path fill="#85340a" d="M32.861 23.04c.0379.7601.4678 1.0968.3834 1.7895.1854-.5478-.2615-.9725-.2361-1.7816m-.6406-1.9947 1.632 3.5748-1.3675-3.6848"/><path fill="#85340a" d="M32.0511 23.0225c-.2551.7169.0136 1.1928-.3288 1.8004.3804-.435.1295-.9988.4619-1.7366m.1696-2.0886.1432 3.9288.1431-3.929"/><path fill="#85340a" d="M31.3097 22.6956c-.5093.5645-.4427 1.1073-.991 1.5373.5174-.256.5009-.8731 1.0896-1.4273m.9539-1.8645-1.3674 3.6847 1.632-3.575"/><path fill="#85340a" d="M30.7494 22.1091c-.686.3261-.8317.8531-1.5024 1.04.5758-.038.7961-.6145 1.5515-.9006m1.5931-1.3566-2.6699 2.8796 2.8724-2.6767"/><path fill="#f6b40e" d="m32.3903 20.7252-5.1918 2.389s-.0993.0411-.0719.1075c.0273.0663.1266.0251.1266.0251l5.3563-1.9912m-2.0201-.0571c-.7895-.0291-1.2238.4578-1.9289.3942s-1.1038.3247-1.378.4147-.4382-.0974-.4772-.0166c-.0391.0809.1776.2577.5674.2001.3899-.0577.5056-.3544 1.3668-.2846s1.0618-.3532 1.8474-.2502"/><path fill="#85340a" fill-rule="evenodd" d="m27.27 23.2903 5.3557-1.9909-.0323-.0875-5.3572 1.9914-.0006.0003h-.0001l-.0001.0001h-.0002l-.002.0008-.0089.0029a.14.14 0 0 1-.0274.0052c-.0218.0015-.0254-.0042-.0272-.0087m.1003.0864-.001.0004-.0029.0011-.0014.0005a.23.23 0 0 1-.0612.0133c-.0346.0025-.0944-.0042-.1199-.0661-.0254-.0618.012-.1089.0383-.1317a.22.22 0 0 1 .0526-.0339l.0028-.0013.0014-.0006.0013-.0006 2.9861-1.3741c-.1689.0205-.3117.067-.46.1157l-.0049.0016c-.2559.0841-.528.1736-.9654.1382-.4242-.0344-.6613.0216-.8394.0915a2.6 2.6 0 0 0-.1598.0703 4 4 0 0 1-.0882.0404c-.0811.0357-.1657.0668-.2688.082-.2028.03-.364-.0004-.4715-.0521-.0534-.0257-.0956-.0576-.1222-.092-.0254-.0329-.0436-.0787-.0225-.1225a.08.08 0 0 1 .0483-.0429.11.11 0 0 1 .0548-.0014.4.4 0 0 1 .0494.0139l.0181.0062c.0113.0038.0229.0078.0358.0119.0758.0241.1743.0457.2982.0049.0637-.0208.1361-.0597.2239-.1082l.0207-.0114c.0815-.0452.174-.0964.2782-.1435.2272-.1027.5113-.1864.8739-.1537.3407.0307.6163-.071.9124-.1814l.0043-.0016c.2939-.1095.6067-.2262 1.0098-.2113l-.0034.0932c-.3845-.0141-.6825.0969-.9782.2072l-.0013.0005c-.2942.1096-.588.2192-.9519.1863-.3425-.0308-.6104.0478-.8273.1459-.1006.0454-.19.0949-.2719.1403l-.0204.0112c-.0861.0476-.1663.0911-.2398.1152-.1503.0494-.2708.0223-.3554-.0046a2 2 0 0 1-.039-.0131l-.0162-.0054a.3.3 0 0 0-.0373-.0108h-.0003a.07.07 0 0 0 .0107.0179c.0152.0197.0442.0435.0888.065.0885.0425.2306.0717.4177.044.0917-.0136.1678-.0412.245-.0752.0263-.0115.0536-.0243.0819-.0375a3 3 0 0 1 .1696-.0747c.1925-.0754.4438-.1329.8808-.0976.4187.0339.6764-.0507.9297-.134l.0041-.0014c.2118-.0695.4218-.1379.7142-.1306l1.9797-.911.0388.0849-1.8274.8408.0106.0014-.0121.0925a1.8 1.8 0 0 0-.1706-.0146l-3.1932 1.4693-.0006.0003h-.0002l-.0001.0001-.0021.0009-.0082.0043a.14.14 0 0 0-.0231.0157c-.0165.0144-.015.021-.0131.0256" clip-rule="evenodd"/><path fill="#f6b40e" d="m32.4999 20.7033-5.7086.2153s-.1073-.0001-.1074.0717.1074.0718.1074.0718l5.7086.2153m-1.8445-.8277c-.7184-.3298-1.3054-.0466-1.9325-.3759-.6273-.3293-1.1438-.1235-1.4315-.1455s-.3676-.2581-.4345-.1985c-.067.0598.0657.3063.4479.4026.3821.0963.6023-.1334 1.3714.2614s1.1157.0811 1.8022.4776"/><path fill="#85340a" fill-rule="evenodd" d="m26.7901 21.1087 5.708.2153.0035-.0932-5.7095-.2155h-.0033l-.0092-.0008a.14.14 0 0 1-.0274-.0057c-.0207-.0069-.0218-.0136-.0218-.0185m.0597.1184h-.0011l-.003-.0001-.0016-.0001a.23.23 0 0 1-.0616-.0112c-.0329-.011-.0855-.0401-.0855-.1071.0001-.0668.0527-.096.0856-.107a.23.23 0 0 1 .0616-.0111l.0031-.0001.0015-.0001h.0015l3.2832-.1239c-.1639-.0459-.3135-.0577-.4691-.0695l-.0051-.0004c-.2686-.0205-.5541-.0423-.9447-.2428-.3788-.1945-.6192-.2337-.8105-.2375a2.6 2.6 0 0 0-.1744.0037c-.032.0014-.0639.0028-.0969.0035-.0886.0018-.1786-.0019-.2797-.0274-.1987-.0501-.336-.14-.4157-.2291-.0395-.0442-.0663-.0899-.0777-.1319-.011-.0401-.0103-.0894.0259-.1217a.08.08 0 0 1 .061-.0211.11.11 0 0 1 .0512.0197.4.4 0 0 1 .0403.0318l.0144.0126c.009.008.0182.0161.0285.0248.0608.0514.1436.1091.2736.119.0668.0051.1485-.003.2482-.0141l.0235-.0027c.0925-.0104.1975-.0222.3118-.0258.2491-.0077.5435.024.866.1933.3031.1591.5965.1709.9122.1825l.0046.0001c.3133.0116.6468.0238 1.0136.1922l-.0388.0849c-.3498-.1606-.6675-.1724-.9828-.1839l-.0013-.0001c-.3137-.0115-.627-.0231-.9506-.193-.3047-.16-.5822-.19-.8201-.1827-.1102.0034-.2117.0149-.3046.0253l-.0232.0026c-.0977.011-.1884.0204-.2655.0145-.1577-.0121-.2587-.0834-.3266-.1407-.011-.0093-.0216-.0187-.0311-.027l-.0128-.0113a.3.3 0 0 0-.0304-.0243l-.0002-.0001a.07.07 0 0 0 .003.0207c.0065.024.0242.0572.0572.0941.0655.0733.1856.1547.3691.2009.0899.0227.1708.0263.255.0246q.0432-.0012.09-.0033c.058-.0025.1201-.0052.1852-.0039.2067.0041.4608.0474.8511.2478.3739.1919.6442.2125.91.2328l.0044.0003c.2222.017.4423.0343.7096.1533l2.1767-.0821.0035.0933-2.0092.0757.0092.0053-.0464.0809a2 2 0 0 0-.1521-.079l-3.5109.1324h-.0011l-.0022.0001-.0093.0008a.13.13 0 0 0-.0273.0057c-.0207.0069-.0219.0136-.0219.0185" clip-rule="evenodd"/><path fill="#f6b40e" d="m32.6095 20.7251-5.3562-1.9912s-.0992-.0413-.1266.025c-.0275.0663.0718.1075.0718.1075l5.1919 2.3891m-1.3881-1.4724c-.5378-.5803-1.1883-.5438-1.642-1.0887-.4538-.5448-1.0095-.5529-1.2669-.6836-.2575-.1307-.2412-.3795-.3257-.35-.0847.0295-.0563.3081.2601.5437s.6074.1079 1.1672.7677.9999.503 1.4827 1.1327"/><path fill="#85340a" fill-rule="evenodd" d="m27.1796 18.9092 5.1914 2.3888.0388-.0848-5.1927-2.3895-.0006-.0003h-.0002l-.0001-.0001-.0021-.0009-.0082-.0043a.13.13 0 0 1-.0231-.0157c-.0165-.0144-.015-.021-.0131-.0255m.0099.1323-.0009-.0005-.0028-.0012-.0014-.0007a.24.24 0 0 1-.0527-.0339c-.0262-.0228-.0637-.07-.0381-.1318s.0853-.0685.12-.066a.23.23 0 0 1 .0611.0133l.0029.0011.0014.0006.0013.0005 3.0806 1.1452c-.1338-.1053-.2676-.1736-.4068-.2443l-.0046-.0023c-.2403-.1219-.4957-.2516-.7801-.5867-.2757-.325-.4828-.4535-.6581-.5304a2.7 2.7 0 0 0-.1625-.0635c-.0301-.011-.0601-.0219-.0909-.034-.0825-.0322-.1643-.0702-.248-.1325-.1645-.1225-.257-.2584-.2966-.3712-.0196-.056-.0269-.1085-.0215-.1516.0053-.0413.0247-.0866.0705-.1025a.08.08 0 0 1 .0644.0039.11.11 0 0 1 .0397.0378.4.4 0 0 1 .0251.0448l.0085.0172c.0053.0108.0107.0218.0169.0339.0366.0707.0911.1558.2074.2149.0598.0303.1383.0542.2347.0821l.0227.0066c.0895.0259.191.0552.2979.0958.2331.0884.493.2306.7264.5108.2192.2633.4857.3867.773.5185l.0042.002c.2851.1308.5885.2701.8631.5664l-.0682.0635c-.2619-.2826-.551-.4153-.8378-.547l-.0012-.0005c-.2854-.1311-.5705-.2619-.8046-.5431-.2204-.2646-.4653-.3989-.6879-.4833-.1032-.0392-.2012-.0676-.2911-.0935l-.0224-.0065c-.0945-.0274-.1819-.0535-.2508-.0886-.1412-.0716-.2072-.1762-.248-.2552-.0067-.0128-.0129-.0256-.0185-.0369l-.0075-.0153a.3.3 0 0 0-.0189-.0341l-.0001-.0002a.07.07 0 0 0-.0051.0202c-.0031.0247.0006.0622.017.109.0325.0928.1124.2141.2642.3272.0745.0554.1478.0898.2263.1205q.0403.0156.0844.0315a3 3 0 0 1 .1726.0674c.1893.0831.4076.2206.6917.5554.2721.3208.514.4436.7519.5643l.0039.002c.1988.1009.3955.2014.5971.4139l2.0424.7592-.0324.0875-1.8852-.7008.0065.0084-.0738.0569a2 2 0 0 0-.1104-.1314l-3.2942-1.2246-.0006-.0002-.0001-.0001h-.0001l-.0002-.0001-.0021-.0008-.0088-.0028a.13.13 0 0 0-.0274-.0052c-.0218-.0016-.0254.0042-.0273.0087" clip-rule="evenodd"/><path fill="#f6b40e" d="m32.7025 20.7874-4.1885-3.8946s-.0758-.0762-.1265-.0254c-.0507.0507.0253.1268.0253.1268l3.8847 4.1992m-.7204-1.8929c-.2753-.7425-.8902-.9583-1.1014-1.6358-.2113-.6774-.7216-.8981-.9095-1.1176-.188-.2195-.078-.4432-.1673-.4484-.0895-.0052-.1696.2632.0327.6022s.52.3326.7854 1.157.7317.8483.9375 1.6153"/><path fill="#85340a" fill-rule="evenodd" d="m28.3791 17.0264 3.8843 4.1987.0683-.0635-3.8853-4.1997-.0005-.0005-.0001-.0001-.0001-.0001-.0001-.0001-.0015-.0016q-.0023-.0024-.006-.0071a.14.14 0 0 1-.0153-.0234c-.0098-.0196-.0059-.0251-.0024-.0286m-.0413.126-.0007-.0008-.0021-.0022-.0011-.0011a.23.23 0 0 1-.0357-.0516c-.0155-.0311-.0321-.089.0151-.1363s.105-.0306.136-.015a.23.23 0 0 1 .0514.0358l.0023.0021.0011.001.001.001 2.409 2.2399c-.0835-.1486-.181-.263-.2826-.3817l-.0034-.0039c-.1754-.2049-.362-.4227-.4967-.8413-.1307-.4061-.273-.6043-.4056-.7426a2.7 2.7 0 0 0-.1259-.121c-.0236-.0217-.0472-.0433-.071-.0662-.064-.0615-.125-.1279-.1785-.2176-.1052-.1763-.1388-.3373-.1324-.4567.0033-.0593.0165-.1106.0381-.1484.0205-.0361.0558-.0705.1042-.0677a.08.08 0 0 1 .058.0284.11.11 0 0 1 .0223.0502.4.4 0 0 1 .0061.051l.0012.0191c.0008.012.0016.0243.0027.0378.0068.0794.0247.1789.1096.2781.0436.0509.1071.1032.1854.1659l.0185.0148c.0728.0582.1554.1243.2387.2028.1816.1711.3674.4022.4761.7506.102.3273.3012.5436.5163.7757l.0031.0033c.2134.2303.4406.4754.5812.8545l-.0873.0325c-.1341-.3616-.3505-.5951-.5652-.8268l-.0009-.001c-.2137-.2305-.4271-.4607-.5361-.8103-.1026-.3291-.2776-.5471-.451-.7105-.0804-.0758-.1602-.1396-.2333-.1981l-.0182-.0146c-.0768-.0615-.1476-.1192-.1979-.178-.1031-.1203-.1242-.2424-.1317-.331-.0013-.0143-.0022-.0285-.003-.0411l-.0011-.0171a.3.3 0 0 0-.0044-.0387v-.0002a.07.07 0 0 0-.0125.0167c-.0123.0216-.0232.0576-.0259.1072-.0053.0982.0222.2409.1193.4036.0476.0798.1022.1397.163.1982a5 5 0 0 0 .0659.0615c.0428.0393.0886.0814.1337.1285.1433.1494.2924.3602.4271.7785.129.4008.3056.607.4793.8098l.0028.0033c.1452.1695.2885.3378.3937.6115l1.5971 1.485-.0633.0684-1.4742-1.3707.0027.0102-.0899.0243a2 2 0 0 0-.0517-.1637l-2.5761-2.3952-.0004-.0005-.0001-.0001-.0001-.0001-.0001-.0001-.0016-.0015q-.0024-.0022-.0071-.006a.13.13 0 0 0-.0234-.0154c-.0195-.0098-.025-.0059-.0285-.0024" clip-rule="evenodd"/><path fill="#85340a" d="M30.4558 21.3524c-.7583.038-1.0941.4691-1.7851.3844.5465.1859.9701-.2622 1.7772-.2368m1.9896-.6422-3.5658 1.6362 3.6755-1.371"/><path fill="#85340a" d="M30.4732 20.5405c-.7151-.2558-1.1898.0136-1.7959-.3297.4339.3813.9963.1299 1.7322.4631m2.0834.17-3.919.1436 3.9191.1435"/><path fill="#85340a" d="M30.7992 19.7972c-.563-.5107-1.1044-.4439-1.5333-.9936.2553.5188.8709.5022 1.4236 1.0924m1.8599.9563-3.6755-1.3708 3.566 1.6361"/><path fill="#85340a" d="M31.3843 19.2355c-.3253-.6878-.851-.8338-1.0374-1.5063.0378.5773.6129.7982.8983 1.5555m1.3532 1.5971-2.8724-2.6766 2.67 2.8797"/><path fill="#f6b40e" d="m32.7646 20.8805-2.383-5.205s-.041-.0995-.1072-.0721-.025.1269-.025.1269l1.9861 5.3699m.057-2.0251c.029-.7916-.4567-1.227-.3932-1.9339.0634-.7069-.3239-1.1066-.4137-1.3815s.0972-.4393.0166-.4784c-.0807-.0391-.2571.1781-.1996.5689s.3535.5069.2839 1.3703c-.0695.8633.3523 1.0644.2496 1.852"/><path fill="#85340a" fill-rule="evenodd" d="m30.206 15.7472 1.9859 5.3693.0873-.0324-1.9864-5.3707-.0003-.0007v-.0002l-.0001-.0001-.0008-.0021-.0028-.0089a.13.13 0 0 1-.0052-.0275c-.0016-.0218.0042-.0254.0086-.0273m-.0862.1006-.0004-.001-.0011-.0029-.0005-.0014a.23.23 0 0 1-.0133-.0613c-.0025-.0347.0043-.0947.066-.1202.0617-.0256.1087.012.1314.0383a.23.23 0 0 1 .0338.0528l.0013.0028.0006.0014.0006.0013 1.3706 2.9936c-.0204-.1693-.0668-.3124-.1154-.4611l-.0016-.0049c-.0839-.2565-.1731-.5293-.1378-.9678.0342-.4253-.0216-.663-.0913-.8416-.0228-.0586-.0465-.1095-.0701-.1602a4 4 0 0 1-.0403-.0884c-.0356-.0813-.0667-.1661-.0819-.2695-.0299-.2033.0005-.3649.0521-.4727.0256-.0535.0574-.0958.0918-.1225.0327-.0255.0784-.0437.1221-.0225a.08.08 0 0 1 .0428.0484.11.11 0 0 1 .0014.0549.4.4 0 0 1-.0139.0495l-.0061.0181a1 1 0 0 0-.0119.036c-.0241.0759-.0456.1747-.005.299.0209.0638.0596.1364.108.2244l.0114.0207c.0451.0818.0962.1745.1431.279.1025.2277.1859.5125.1534.8761-.0307.3415.0707.6178.1809.9147l.0016.0043c.1092.2946.2256.6082.2108 1.0123l-.0931-.0034c.0141-.3855-.0966-.6842-.2066-.9807l-.0005-.0012c-.1094-.295-.2186-.5896-.1859-.9544.0308-.3434-.0476-.6119-.1454-.8294-.0454-.1008-.0947-.1904-.14-.2725l-.0112-.0204c-.0475-.0864-.0909-.1668-.1149-.2405-.0493-.1507-.0222-.2715.0046-.3563a2 2 0 0 1 .013-.0391l.0055-.0162a.3.3 0 0 0 .0107-.0375l.0001-.0002a.07.07 0 0 0-.0179.0107c-.0197.0152-.0435.0443-.0649.0891-.0424.0887-.0715.2311-.0439.4187.0136.0919.0411.1682.075.2456q.0175.0395.0375.0821c.0245.0527.0507.1091.0744.17.0753.193.1327.445.0974.8831-.0338.4198.0506.678.1337.932l.0013.0041c.0695.2123.1377.4228.1303.716l.9087 1.9847-.0846.0389-.8387-1.8319-.0014.0105-.0923-.0121a2 2 0 0 0 .0146-.1711l-1.4656-3.2012-.0003-.0006v-.0002l-.0001-.0001-.0009-.0021-.0043-.0083a.14.14 0 0 0-.0157-.0231c-.0143-.0165-.0209-.015-.0255-.0132" clip-rule="evenodd"/><path fill="#f6b40e" d="m32.7865 20.9904-.2148-5.723s.0001-.1077-.0715-.1077c-.0716-.0001-.0716.1076-.0716.1076l-.2148 5.7231m.8257-1.8491c.3289-.7202.0464-1.3088.3749-1.9375s.1232-1.1466.1451-1.435.2575-.3686.198-.4357c-.0596-.0671-.3055.0659-.4016.449-.096.3832.1331.6039-.2607 1.3749s-.0809 1.1186-.4764 1.8068"/><path fill="#85340a" fill-rule="evenodd" d="m32.382 15.2662-.2148 5.7225.0931.0035.2148-5.724v-.001l.0001-.0023.0007-.0092a.14.14 0 0 1 .0058-.0275c.0069-.0207.0135-.0218.0184-.0218m-.1181.0598v-.0011l.0001-.0031.0001-.0015a.25.25 0 0 1 .0111-.0617c.011-.0331.0401-.0858.1069-.0858.0667.0001.0958.0528.1067.0859a.22.22 0 0 1 .0112.0648l.0001.0015v.0015l.1235 3.2915c.0458-.1643.0576-.3143.0694-.4703l.0004-.0051c.0205-.2692.0422-.5555.2422-.947.194-.3798.2331-.6209.2369-.8126.0013-.0629-.0012-.119-.0036-.1749-.0014-.032-.0029-.064-.0035-.0971-.0019-.0888.0018-.179.0272-.2804.05-.1993.1397-.3369.2286-.4168.044-.0396.0896-.0665.1315-.0779.04-.011.0892-.0103.1214.026a.08.08 0 0 1 .0211.0612.11.11 0 0 1-.0197.0513.4.4 0 0 1-.0317.0404l-.0126.0144c-.0079.009-.016.0182-.0247.0286-.0512.0609-.1088.144-.1187.2743-.0051.067.003.1489.0141.2488l.0026.0235c.0104.0928.0222.1981.0258.3126.0077.2498-.0239.5449-.1928.8683-.1587.3038-.1705.5979-.182.9145l-.0002.0046c-.0115.3141-.0237.6484-.1917 1.0161l-.0846-.0388c.1602-.3507.1719-.6693.1834-.9853l.0001-.0014c.0115-.3145.023-.6285.1925-.953.1595-.3055.1896-.5836.1822-.8221-.0034-.1105-.0148-.2123-.0252-.3054l-.0026-.0233c-.0109-.0979-.0203-.1889-.0144-.2662.012-.1581.0831-.2593.1403-.3273.0093-.0111.0186-.0217.0269-.0312l.0113-.0129a.3.3 0 0 0 .0242-.0305l.0001-.0002a.07.07 0 0 0-.0206.003c-.024.0066-.0571.0243-.0939.0574-.0731.0657-.1543.1861-.2004.37-.0226.0902-.0262.1712-.0245.2557q.001.0433.0033.0902c.0025.0582.0052.1204.0039.1857-.0041.2072-.0473.462-.2472.8532-.1914.3749-.212.6459-.2322.9123l-.0003.0044c-.0169.2228-.0343.4434-.1529.7115l.0819 2.1822-.0931.0035-.0756-2.0143-.0052.0092-.0807-.0466a1.8 1.8 0 0 0 .0788-.1524l-.1321-3.5198v-.0011l-.0001-.0022-.0007-.0093a.14.14 0 0 0-.0057-.0274c-.0069-.0208-.0136-.0219-.0185-.0219" clip-rule="evenodd"/><path fill="#f6b40e" d="m32.7647 21.1004 1.9861-5.3698s.0412-.0994-.0249-.127c-.0662-.0275-.1072.072-.1072.072l-2.3831 5.205m1.4687-1.3916c.5788-.5391.5424-1.1913 1.0859-1.6461.5435-.455.5515-1.0121.6819-1.2701.1304-.2582.3786-.2418.3492-.3266-.0295-.0849-.3074-.0563-.5424.2608s-.1076.609-.7657 1.1702-.5018 1.0024-1.1298 1.4865"/><path fill="#85340a" fill-rule="evenodd" d="m34.5761 15.6567-2.3828 5.2045.0846.0389 2.3834-5.2058.0003-.0007v-.0001l.0001-.0001v-.0001l.001-.0021.0042-.0082a.14.14 0 0 1 .0157-.0232c.0143-.0165.0209-.015.0254-.0131m-.1319.01.0004-.001.0013-.0028.0006-.0014a.23.23 0 0 1 .0339-.0528c.0227-.0263.0697-.0639.1314-.0382s.0684.0855.0659.1202a.24.24 0 0 1-.0134.0614l-.001.0028-.0006.0015-.0005.0013-1.1423 3.0884c.105-.1342.1732-.2683.2436-.4079l.0024-.0046c.1216-.2409.2509-.497.5852-.782.3242-.2765.4523-.4841.529-.6598.0252-.0576.0443-.1104.0634-.163a4 4 0 0 1 .0339-.0911c.0321-.0827.07-.1646.1322-.2486.1222-.1649.2577-.2576.3702-.2973.0559-.0197.1082-.027.1513-.0216.0411.0053.0863.0248.1022.0707a.08.08 0 0 1-.0039.0646.11.11 0 0 1-.0377.0398.4.4 0 0 1-.0447.0251l-.0172.0085-.0337.017c-.0706.0366-.1555.0913-.2144.2079-.0303.0599-.0541.1387-.0819.2352l-.0066.0228c-.0258.0897-.0551.1915-.0955.2987-.0883.2337-.2301.4942-.5096.7282-.2626.2198-.3857.487-.5172.775l-.0019.0042c-.1305.2858-.2695.59-.565.8653l-.0634-.0684c.2819-.2625.4143-.5523.5456-.8399l.0006-.0012c.1307-.2862.2612-.5719.5417-.8066.2639-.221.3978-.4665.4821-.6897.0391-.1034.0673-.2017.0933-.2918l.0064-.0225c.0273-.0947.0534-.1823.0883-.2514.0715-.1415.1759-.2078.2546-.2487l.0368-.0185.0153-.0075a.3.3 0 0 0 .0341-.0189l.0001-.0001a.07.07 0 0 0-.0201-.0052c-.0247-.0031-.062.0006-.1087.017-.0926.0327-.2136.1128-.3264.265-.0553.0746-.0896.1481-.1202.2268q-.0155.0404-.0314.0846a3 3 0 0 1-.0673.173c-.0829.1899-.2201.4087-.554.6935-.32.2729-.4424.5154-.5628.7538l-.002.0039c-.1007.1993-.2009.3965-.4129.5986l-.7573 2.0476-.0873-.0325.6991-1.89-.0084.0065-.0567-.074a2 2 0 0 0 .131-.1105l1.2215-3.3026.0002-.0007h.0001v-.0001l.0001-.0002.0008-.0021.0028-.0088a.14.14 0 0 0 .0052-.0275c.0016-.0219-.0042-.0255-.0087-.0274" clip-rule="evenodd"/><path fill="#f6b40e" d="m32.7026 21.1936 3.8847-4.1991s.076-.076.0254-.1269c-.0506-.0508-.1265.0254-.1265.0254l-4.1886 3.8946m1.8881-.7223c.7406-.276.9559-.8925 1.6317-1.1042s.8958-.7234 1.1148-.9118.442-.0781.4472-.1677c.0052-.0897-.2625-.17-.6006.0328s-.3319.5213-1.1541.7873c-.8223.266-.8462.7336-1.6113.9399"/><path fill="#85340a" fill-rule="evenodd" d="m36.4541 16.8592-4.1881 3.8942.0633.0684 4.1892-3.8952.0004-.0004.0001-.0001.0001-.0001.0001-.0001.0016-.0015q.0024-.0023.0071-.006a.13.13 0 0 1 .0234-.0154c.0195-.0098.025-.0058.0284-.0024m-.1256-.0414.0007-.0007.0023-.0021.0011-.0011.0115-.0098a.23.23 0 0 1 .0399-.0259c.0311-.0156.0889-.0323.136.0151.0471.0473.0305.1052.015.1363a.23.23 0 0 1-.0357.0516l-.0021.0022-.0011.0011-.001.0011-2.2342 2.415c.1482-.0837.2624-.1814.3808-.2833l.0039-.0034c.2043-.1759.4215-.3629.8391-.498.4051-.131.6028-.2737.7407-.4065.0452-.0436.0831-.0851.1208-.1263.0216-.0237.0431-.0473.066-.0712.0613-.0641.1276-.1253.2171-.1789.1758-.1055.3364-.1392.4555-.1327.0591.0032.1103.0165.148.0381.036.0206.0703.056.0675.1045a.08.08 0 0 1-.0283.0582.11.11 0 0 1-.0501.0223.4.4 0 0 1-.0509.0061l-.019.0013a1 1 0 0 0-.0377.0027c-.0792.0067-.1785.0247-.2774.1098-.0508.0437-.1029.1074-.1655.1859l-.0148.0185c-.0581.073-.124.1558-.2022.2393-.1708.1821-.4013.3684-.7488.4773-.3265.1023-.5422.302-.7737.5176l-.0033.0031c-.2297.214-.4742.4417-.8523.5827l-.0324-.0875c.3606-.1344.5936-.3514.8247-.5667l.0009-.0009c.23-.2142.4596-.4281.8084-.5374.3282-.1029.5456-.2783.7086-.4521.0756-.0806.1393-.1606.1976-.2339l.0146-.0183c.0613-.077.1189-.1479.1775-.1984.1201-.1033.2418-.1245.3302-.132a2 2 0 0 1 .041-.003l.017-.0011a.3.3 0 0 0 .0387-.0044l.0002-.0001a.07.07 0 0 0-.0167-.0124c-.0216-.0124-.0575-.0233-.1069-.026-.098-.0054-.2403.0222-.4026.1196-.0796.0477-.1394.1024-.1977.1634a4 4 0 0 0-.0613.0661c-.0393.0429-.0812.0888-.1282.134-.149.1436-.3593.2932-.7766.4282-.3997.1293-.6054.3064-.8077.4805l-.0033.0028c-.1691.1455-.337.2893-.6099.3947l-1.4813 1.6011-.0682-.0635 1.3672-1.4779-.0102.0028-.0242-.0901a2 2 0 0 0 .1633-.0519l2.3892-2.5826.0005-.0005.0001-.0001.0001-.0001.0015-.0017a.14.14 0 0 0 .0213-.0305c.0098-.0195.0059-.0251.0024-.0286" clip-rule="evenodd"/><path fill="#85340a" d="M32.139 18.9411c-.0379-.7602-.4678-1.0968-.3834-1.7896-.1854.5478.2615.9725.2361 1.7817m.6406 1.9947-1.632-3.5749 1.3675 3.6848"/><path fill="#85340a" d="M32.9489 18.9585c.2551-.7168-.0136-1.1928.3288-1.8004-.3804.435-.1295.9988-.4619 1.7366m-.1696 2.0886-.1432-3.9288-.1431 3.929"/><path fill="#85340a" d="M33.6903 19.2854c.5093-.5644.4427-1.1072.991-1.5373-.5174.256-.5009.8732-1.0896 1.4273m-.9539 1.8646 1.3674-3.6848-1.632 3.575"/><path fill="#85340a" d="M34.2506 19.8719c.686-.326.8317-.8531 1.5024-1.04-.5758.038-.7961.6145-1.5515.9006m-1.5931 1.3566 2.6699-2.8796-2.8724 2.6768"/><path fill="#f6b40e" d="m32.6097 21.2559 5.1918-2.3891s.0993-.0411.0719-.1075c-.0273-.0663-.1266-.0251-.1266-.0251l-5.3563 1.9912m2.0201.0571c.7895.0291 1.2238-.4578 1.9289-.3941.7052.0635 1.1038-.3248 1.378-.4148s.4382.0974.4772.0166-.1776-.2577-.5674-.2001c-.3899.0577-.5056.3544-1.3668.2846-.8612-.0696-1.0618.3532-1.8474.2503"/><path fill="#85340a" fill-rule="evenodd" d="m37.73 18.6906-5.3557 1.991.0323.0875 5.3572-1.9915.0006-.0002.0001-.0001h.0001l.0002-.0001.002-.0007a.13.13 0 0 1 .0363-.0081c.0218-.0016.0254.0042.0272.0087m-.1003-.0865.001-.0003.0029-.0011.0014-.0006q.0055-.002.0144-.0046a.23.23 0 0 1 .0468-.0087c.0346-.0025.0944.0043.1199.0661.0254.0619-.012.109-.0383.1318a.24.24 0 0 1-.0526.0339l-.0028.0013-.0014.0006-.0013.0006-2.9861 1.374c.1689-.0204.3117-.0669.46-.1157l.0049-.0016c.2559-.0841.528-.1735.9654-.1381.4242.0343.6613-.0216.8394-.0915.0585-.0229.1093-.0467.1598-.0703a4 4 0 0 1 .0882-.0404c.0811-.0357.1657-.0668.2688-.0821.2028-.03.364.0005.4715.0522.0534.0257.0956.0576.1222.092.0254.0329.0436.0787.0225.1224a.08.08 0 0 1-.0483.043.11.11 0 0 1-.0548.0013.4.4 0 0 1-.0494-.0139l-.0181-.0061-.0358-.012c-.0758-.0241-.1743-.0456-.2982-.0049-.0637.0209-.1361.0597-.2239.1083l-.0207.0114c-.0815.0452-.174.0964-.2782.1435-.2272.1027-.5113.1864-.8739.1537-.3407-.0308-.6163.0709-.9124.1813l-.0043.0016c-.2939.1096-.6067.2262-1.0098.2114l.0034-.0933c.3845.0142.6825-.0969.9782-.2071l.0013-.0005c.2942-.1097.588-.2192.9519-.1864.3425.0309.6104-.0478.8273-.1458.1006-.0455.19-.095.2719-.1403l.0204-.0113c.0861-.0476.1663-.0911.2398-.1152.1503-.0494.2708-.0222.3554.0047.0137.0044.0271.0089.039.013l.0162.0055a.3.3 0 0 0 .0373.0108h.0003a.07.07 0 0 0-.0107-.0179c-.0152-.0197-.0442-.0436-.0888-.065-.0885-.0426-.2306-.0717-.4177-.0441-.0917.0136-.1678.0412-.245.0752a4 4 0 0 0-.0819.0376c-.0526.0245-.1089.0508-.1696.0746-.1925.0755-.4438.133-.8808.0976-.4187-.0339-.6764.0508-.9297.1341l-.0041.0013c-.2118.0696-.4218.138-.7142.1307l-1.9797.9109-.0388-.0848 1.8274-.8409-.0106-.0013.0121-.0926q.0902.0118.1706.0147l3.1932-1.4693.0006-.0003h.0001l.0001-.0001.0001-.0001.0021-.0009.0082-.0042a.13.13 0 0 0 .0231-.0158c.0165-.0143.015-.021.0131-.0255" clip-rule="evenodd"/><path fill="#f6b40e" d="m32.5001 21.2778 5.7086-.2154s.1073.0001.1074-.0717-.1074-.0717-.1074-.0717l-5.7086-.2154m1.8445.8277c.7184.3298 1.3054.0466 1.9325.3759.6273.3293 1.1438.1235 1.4315.1455s.3676.2581.4345.1985c.067-.0598-.0657-.3063-.4479-.4026-.3821-.0963-.6023.1334-1.3714-.2614s-1.1157-.0811-1.8022-.4776"/><path fill="#85340a" fill-rule="evenodd" d="m38.2099 20.8723-5.708-.2154-.0035.0933 5.7095.2154h.001l.0023.0001.0092.0007a.14.14 0 0 1 .0274.0058c.0207.0069.0218.0136.0218.0184m-.0597-.1183h.0011l.003.0001.0016.0001a.23.23 0 0 1 .0616.0111c.0329.011.0855.0402.0855.1071-.0001.0669-.0527.0961-.0856.107a.23.23 0 0 1-.0616.0112l-.0031.0001h-.0015l-.0015.0001-3.2832.1238c.1639.0459.3135.0577.4691.0696l.0051.0004c.2686.0204.5541.0422.9447.2427.3788.1945.6192.2338.8105.2376a2.6 2.6 0 0 0 .1744-.0037c.032-.0014.0639-.0028.0969-.0035.0886-.0019.1786.0019.2797.0273.1987.0501.336.1401.4157.2291.0395.0442.0663.0899.0777.1319.011.0401.0103.0894-.0259.1217a.08.08 0 0 1-.061.0212.11.11 0 0 1-.0512-.0198.4.4 0 0 1-.0403-.0318l-.0144-.0126c-.009-.0079-.0182-.016-.0285-.0248-.0608-.0513-.1436-.109-.2736-.1189-.0668-.0051-.1485.0029-.2482.0141l-.0235.0026c-.0925.0105-.1975.0223-.3118.0258-.2491.0077-.5435-.0239-.866-.1932-.3031-.1592-.5965-.1709-.9122-.1825l-.0046-.0002c-.3133-.0115-.6468-.0238-1.0136-.1922l.0388-.0848c.3498.1606.6675.1723.9828.1839l.0013.0001c.3137.0115.627.023.9506.193.3047.1599.5822.19.8201.1826.1102-.0034.2117-.0148.3046-.0253l.0232-.0026c.0977-.0109.1884-.0203.2655-.0144.1577.012.2587.0834.3266.1407.011.0093.0216.0186.0311.027l.0128.0112a.3.3 0 0 0 .0306.0244.07.07 0 0 0-.003-.0206c-.0065-.024-.0242-.0572-.0572-.0942-.0655-.0732-.1856-.1546-.3691-.2008-.0899-.0227-.1708-.0264-.255-.0246a4 4 0 0 0-.09.0033c-.058.0025-.1201.0052-.1852.0039-.2067-.0041-.4608-.0475-.8511-.2478-.3739-.1919-.6442-.2126-.91-.2328l-.0044-.0004c-.2222-.0169-.4423-.0343-.7096-.1532l-2.1767.0821-.0035-.0933 2.0092-.0758-.0092-.0053.0464-.0808a2 2 0 0 0 .1521.079l3.5109-.1325h.0011l.0022-.0001.0093-.0007a.14.14 0 0 0 .0273-.0057c.0207-.0069.0219-.0136.0219-.0186" clip-rule="evenodd"/><path fill="#f6b40e" d="m32.3905 21.256 5.3562 1.9911s.0992.0413.1266-.025c.0275-.0663-.0718-.1075-.0718-.1075l-5.1919-2.3891m1.3881 1.4724c.5378.5803 1.1883.5438 1.642 1.0887.4538.5448 1.0095.5529 1.2669.6836.2575.1307.2412.3795.3257.3501.0847-.0296.0563-.3082-.2601-.5438s-.6074-.1078-1.1672-.7677-.9999-.503-1.4827-1.1326"/><path fill="#85340a" fill-rule="evenodd" d="M37.8204 23.0719 32.629 20.683l-.0388.0848 5.1927 2.3895.0006.0003h.0002l.0001.0001.0021.0009.0082.0043a.13.13 0 0 1 .0231.0158c.0165.0143.015.0209.0131.0254m-.0099-.1322.0009.0004.0028.0013.0014.0006a.24.24 0 0 1 .0527.0339c.0262.0228.0637.07.0381.1318s-.0853.0685-.12.066a.23.23 0 0 1-.0611-.0133l-.0029-.0011-.0014-.0005-.0013-.0006-3.0806-1.1452c.1338.1053.2676.1736.4068.2443l.0046.0023c.2403.122.4957.2516.7801.5867.2757.325.4828.4535.6581.5304.0575.0252.1101.0444.1625.0635.0301.011.0601.0219.0909.034.0825.0322.1643.0702.248.1325.1645.1226.257.2584.2966.3712.0196.056.0269.1085.0215.1517-.0053.0412-.0247.0865-.0705.1024a.08.08 0 0 1-.0644-.0038.11.11 0 0 1-.0397-.0379.4.4 0 0 1-.0251-.0448l-.0085-.0172-.0169-.0338c-.0366-.0708-.0911-.1559-.2074-.215-.0598-.0303-.1383-.0542-.2347-.0821l-.0227-.0066c-.0895-.0258-.191-.0552-.2979-.0958-.2331-.0884-.493-.2306-.7264-.5108-.2192-.2633-.4857-.3867-.773-.5185l-.0042-.0019c-.2851-.1309-.5885-.2702-.8631-.5664l.0682-.0636c.2619.2826.551.4153.8378.547l.0012.0006c.2854.131.5705.2618.8046.543.2204.2647.4653.3989.6879.4834.1032.0391.2012.0675.2911.0935l.0224.0064c.0945.0274.1819.0536.2508.0886.1412.0716.2072.1763.248.2552.0067.0128.0129.0256.0185.0369l.0075.0153a.3.3 0 0 0 .0189.0342l.0001.0001a.07.07 0 0 0 .0051-.0202c.0031-.0247-.0006-.0622-.017-.1089-.0325-.0928-.1124-.2142-.2642-.3272-.0745-.0555-.1478-.0899-.2263-.1206a5 5 0 0 0-.0844-.0315 3 3 0 0 1-.1726-.0674c-.1893-.0831-.4076-.2206-.6917-.5554-.2721-.3208-.514-.4436-.7519-.5643l-.0039-.0019c-.1988-.101-.3955-.2014-.5971-.4139l-2.0424-.7593.0324-.0875 1.8852.7008-.0065-.0084.0738-.0569c.0371.0483.0738.0918.1104.1314l3.2942 1.2246.0006.0003h.0002l.0002.0001.0021.0008.0088.0028a.13.13 0 0 0 .0274.0052c.0218.0016.0254-.0042.0273-.0087" clip-rule="evenodd"/><path fill="#f6b40e" d="m32.2975 21.1937 4.1885 3.8945s.0758.0762.1265.0255-.0253-.1269-.0253-.1269l-3.8847-4.1991m.7204 1.8928c.2753.7425.8902.9584 1.1014 1.6358.2113.6775.7216.8981.9095 1.1176.188.2195.078.4432.1673.4484.0895.0052.1696-.2631-.0327-.6022s-.52-.3326-.7854-1.157-.7317-.8483-.9375-1.6153"/><path fill="#85340a" fill-rule="evenodd" d="m36.6209 24.9546-3.8843-4.1987-.0683.0635 3.8853 4.1998.0005.0005h.0001l.0001.0001.0001.0001.0015.0017a.14.14 0 0 1 .0213.0305c.0098.0196.0059.0251.0024.0285m.0413-.126.0007.0008.0021.0022.0011.0011.0098.0116a.23.23 0 0 1 .0259.04c.0155.0311.0321.0891-.0151.1364s-.105.0305-.136.0149a.23.23 0 0 1-.0537-.0379l-.0011-.001-.001-.001-2.409-2.2399c.0835.1486.181.263.2826.3817l.0034.0039c.1754.2049.362.4227.4967.8414.1307.406.273.6042.4056.7425a2.7 2.7 0 0 0 .1259.1211 4 4 0 0 1 .071.0662c.064.0614.125.1278.1785.2176.1052.1763.1388.3372.1324.4566-.0033.0593-.0165.1106-.0381.1484-.0205.0361-.0558.0705-.1042.0677a.08.08 0 0 1-.058-.0283.11.11 0 0 1-.0223-.0502.4.4 0 0 1-.0061-.0511l-.0012-.0191c-.0008-.012-.0016-.0243-.0027-.0378-.0068-.0794-.0247-.1789-.1096-.2781-.0436-.0509-.1071-.1031-.1854-.1659l-.0185-.0148c-.0728-.0582-.1554-.1243-.2387-.2028-.1816-.1711-.3674-.4022-.4761-.7506-.102-.3273-.3012-.5436-.5163-.7757l-.0031-.0033c-.2134-.2303-.4406-.4754-.5812-.8544l.0873-.0326c.1341.3616.3505.5951.5652.8268l.0009.001c.2137.2305.4271.4607.5361.8104.1026.329.2776.547.451.7104.0804.0758.1602.1396.2333.1981l.0182.0146c.0768.0615.1476.1192.1979.178.1031.1203.1242.2424.1317.331.0013.0144.0022.0285.003.0411l.0011.0171a.3.3 0 0 0 .0044.0387v.0003a.07.07 0 0 0 .0125-.0168c.0123-.0216.0232-.0576.0259-.1071.0053-.0983-.0222-.241-.1193-.4037-.0476-.0798-.1022-.1397-.163-.1982a5 5 0 0 0-.0659-.0615 3 3 0 0 1-.1337-.1285c-.1433-.1494-.2924-.3602-.4271-.7785-.129-.4008-.3056-.607-.4793-.8097l-.0028-.0034c-.1452-.1695-.2885-.3378-.3937-.6114l-1.5971-1.485.0633-.0685 1.4742 1.3708-.0027-.0103.0899-.0242q.0237.088.0517.1636l2.5761 2.3953.0004.0005h.0001l.0001.0001.0001.0001.0016.0015.0071.0061a.13.13 0 0 0 .0234.0153c.0195.0098.025.0059.0285.0024" clip-rule="evenodd"/><path fill="#85340a" d="M34.5442 20.6286c.7583-.038 1.0941-.469 1.7851-.3844-.5465-.1858-.9701.2622-1.7772.2368m-1.9896.6422 3.5658-1.6362-3.6755 1.371"/><path fill="#85340a" d="M34.5268 21.4405c.7151.2558 1.1898-.0136 1.7959.3297-.4339-.3813-.9963-.1299-1.7322-.4631m-2.0834-.17 3.919-.1436-3.9191-.1434"/><path fill="#85340a" d="M34.2008 22.1839c.563.5106 1.1044.4438 1.5333.9935-.2553-.5187-.8709-.5022-1.4236-1.0924m-1.8599-.9563 3.6755 1.3708-3.566-1.6361"/><path fill="#85340a" d="M33.6157 22.7455c.3253.6878.851.8338 1.0374 1.5063-.0378-.5773-.6129-.7982-.8983-1.5555m-1.3532-1.5971 2.8724 2.6766-2.67-2.8796"/><path fill="#f6b40e" d="M32.5 23.3228c1.2848 0 2.3264-1.0442 2.3264-2.3323s-1.0416-2.3323-2.3264-2.3323-2.3264 1.0442-2.3264 2.3323 1.0416 2.3323 2.3264 2.3323"/><path fill="#85340a" fill-rule="evenodd" d="M32.5001 18.7212c-1.2502 0-2.2636 1.016-2.2636 2.2693s1.0134 2.2693 2.2636 2.2693 2.2636-1.016 2.2636-2.2693-1.0135-2.2693-2.2636-2.2693m-2.3893 2.2693c0-1.3229 1.0697-2.3953 2.3893-2.3953s2.3892 1.0724 2.3892 2.3953-1.0697 2.3953-2.3892 2.3953-2.3893-1.0724-2.3893-2.3953" clip-rule="evenodd"/><path fill="#843511" d="M33.2931 20.4917c-.1588 0-.3109.069-.4004.2125.1789.1615.5742.179.8427-.0183a.613.613 0 0 0-.4423-.1942m-.0026.0367c.1546-.0028.2991.0684.3193.1391-.1789.1973-.4649.1802-.6438.0367.0783-.1256.2043-.1736.3245-.1758"/><path fill="#85340a" d="M33.3232 20.3809c-.2325 0-.2863.0539-.3937.1436s-.161.0717-.1789.0897 0 .0717.0357.0537.1075-.0537.2147-.1435c.1075-.0898.2147-.0897.3221-.0897.3221 0 .5011.2691.5368.2512s-.1789-.305-.5368-.305z"/><path fill="#85340a" d="M33.9673 20.4884c-.4116-.3588-.9305-.4126-1.2169-.1435-.0701.0941-.115.1947-.1334.2998-.0361.2042.0276.4249.1873.6512-.018-.0001-.0539.0178-.0718.0358-.1421-.2724-.1923-.5522-.1457-.8183a1.16 1.16 0 0 1 .0561-.2045c.3937-.3228.9304-.3587 1.3241.1795z"/><path fill="#85340a" d="M33.2874 20.8287a.1613.1613 0 0 0 .161-.1615.1613.1613 0 0 0-.161-.1615.1613.1613 0 0 0-.1611.1615c0 .0892.0721.1615.1611.1615"/><path fill="#85340a" d="M33.753 20.776c-.304.233-.608.215-.787.108s-.179-.143-.143-.143.072.036.215.108.358.072.716-.072zm-1.609.537a.162.162 0 0 0-.131.16c0 .089.074.16.162.16a.158.158 0 0 0 .131-.068c.062.047.148.052.194.052h.021c.046-.001.132-.006.194-.052a.158.158 0 0 0 .131.068c.089 0 .162-.071.162-.16 0-.078-.054-.146-.131-.16a.108.108 0 0 1 .071.102.107.107 0 0 1-.107.108.108.108 0 0 1-.107-.102c-.017.035-.087.139-.222.144-.136-.005-.205-.109-.222-.144a.108.108 0 0 1-.107.102.107.107 0 0 1-.107-.108.108.108 0 0 1 .071-.102m.172.478c-.179 0-.25.163-.411.27.09-.036.16-.107.285-.178.125-.072.232.016.304.016h.003c.071 0 .178-.087.304-.016.125.072.198.143.288.178-.161-.108-.234-.27-.414-.27-.036 0-.106.019-.178.055h-.003c-.071-.036-.142-.055-.178-.055"/><path fill="#85340a" d="M32.2588 22.003c-.0707.0032-.1641.0174-.2984.0577.3223-.0717.3934.0368.5366.0368h.0026c.1432 0 .2143-.1085.5365-.0368-.358-.1076-.4292-.0367-.5365-.0367h-.0026c-.0671 0-.1204-.0262-.2382-.021"/><path fill="#85340a" d="M31.977 22.059c-.021 0-.043 0-.068.003.376.036.195.252.589.252h.002c.394 0 .216-.216.592-.252-.394-.036-.269.197-.591.197h-.003c-.302 0-.209-.203-.521-.199m.846.581a.323.323 0 0 0-.322-.323.323.323 0 0 0-.322.323.331.331 0 0 1 .322-.255.331.331 0 0 1 .322.255m-1.769-2.153c.412-.359.931-.413 1.217-.143.07.094.115.195.133.3.036.204-.028.425-.187.651.018 0 .054.018.072.036.142-.272.192-.552.146-.818a1.16 1.16 0 0 0-.056-.204c-.394-.323-.93-.359-1.324.18z"/><path fill="#85340a" d="M31.6977 20.3809c.2325 0 .2863.0539.3936.1436.1075.0897.1611.0717.179.0897s0 .0717-.0357.0537-.1075-.0537-.2147-.1435c-.1075-.0898-.2147-.0897-.3221-.0897-.3222 0-.5011.2691-.5368.2512s.1789-.305.5368-.305z"/><path fill="#843511" d="M31.6867 20.4917c-.1589 0-.311.069-.4004.2125.1789.1615.5742.179.8426-.0183a.613.613 0 0 0-.4422-.1942m-.0026.0367c.1546-.0028.2991.0684.3193.1391-.179.1973-.4649.1802-.6439.0367.0783-.1256.2043-.1736.3246-.1758"/><path fill="#85340a" d="M31.7077 20.8287a.1613.1613 0 0 0 .161-.1615.1613.1613 0 0 0-.161-.1615.1613.1613 0 0 0-.1611.1615c0 .0892.0721.1615.1611.1615"/><path fill="#85340a" d="M31.2681 20.7756c.3042.2332.6084.2153.7874.1076s.1789-.1435.1432-.1435-.0715.0359-.2147.1076c-.1432.0719-.3579.0719-.7157-.0717z"/></g><defs><clipPath id="a"><rect width="64" height="42" fill="#fff" rx="5"/></clipPath></defs></svg>