<svg xmlns="http://www.w3.org/2000/svg" width="64" height="42" fill="none" viewBox="0 0 64 42"><g clip-path="url(#a)"><rect width="64" height="42" fill="#fff" rx="5"/><rect width="63" height="41" x="1" y="1" stroke="#f5f5f5" rx="5"/><path fill="#38bb56" fill-rule="evenodd" d="M0 14h64V0H0z" clip-rule="evenodd"/><path fill="#de1b27" fill-rule="evenodd" d="M0 42h64V28H0z" clip-rule="evenodd"/><rect width="3" height="3" x="3" y="11" fill="#dadada" rx="1"/><rect width="3" height="3" x="9" y="11" fill="#dadada" rx="1"/><rect width="3" height="3" x="15" y="11" fill="#dadada" rx="1"/><rect width="3" height="3" x="21" y="11" fill="#dadada" rx="1"/><rect width="3" height="3" x="27" y="11" fill="#dadada" rx="1"/><rect width="3" height="3" x="34" y="11" fill="#dadada" rx="1"/><rect width="3" height="3" x="40" y="11" fill="#dadada" rx="1"/><rect width="3" height="3" x="46" y="11" fill="#dadada" rx="1"/><rect width="3" height="3" x="52" y="11" fill="#dadada" rx="1"/><rect width="3" height="3" x="58" y="11" fill="#dadada" rx="1"/><rect width="3" height="3" x="3" y="28" fill="#dadada" rx="1"/><rect width="3" height="3" x="9" y="28" fill="#dadada" rx="1"/><rect width="3" height="3" x="15" y="28" fill="#dadada" rx="1"/><rect width="3" height="3" x="21" y="28" fill="#dadada" rx="1"/><rect width="3" height="3" x="27" y="28" fill="#dadada" rx="1"/><rect width="3" height="3" x="34" y="28" fill="#dadada" rx="1"/><rect width="3" height="3" x="40" y="28" fill="#dadada" rx="1"/><rect width="3" height="3" x="46" y="28" fill="#dadada" rx="1"/><rect width="3" height="3" x="52" y="28" fill="#dadada" rx="1"/><rect width="3" height="3" x="58" y="28" fill="#dadada" rx="1"/><mask id="b" fill="#fff"><path fill-rule="evenodd" d="M29.1724 17.8943C28.3292 18.6625 27.8 19.7694 27.8 21c0 2.3196 1.8805 4.2 4.2001 4.2s4.2-1.8804 4.2-4.2c0-1.2073-.5094-2.2957-1.325-3.0618" clip-rule="evenodd"/></mask><path fill="#d80915" d="M28.2296 16.8594C27.1075 17.8817 26.4 19.3592 26.4 21h2.8001c0-.8203.3509-1.5567.9152-2.0707zM26.4 21c0 3.0928 2.5073 5.6 5.6001 5.6v-2.8c-1.5464 0-2.8-1.2536-2.8-2.8zm5.6001 5.6c3.0928 0 5.6-2.5072 5.6-5.6h-2.8c0 1.5464-1.2536 2.8-2.8 2.8zm5.6-5.6c0-1.6097-.681-3.0625-1.7665-4.0822l-1.9171 2.0408c.5457.5126.8836 1.2364.8836 2.0414z" mask="url(#b)"/><rect width="3" height="6" x="31" y="20" fill="#d80915" rx="1"/></g><defs><clipPath id="a"><rect width="64" height="42" fill="#fff" rx="5"/></clipPath></defs></svg>