<svg xmlns="http://www.w3.org/2000/svg" width="64" height="42" fill="none" viewBox="0 0 64 42"><g clip-path="url(#a)"><rect width="64" height="42" fill="#fff" rx="5"/><path fill="#07319c" d="M0 0h64v42H0z"/><g clip-path="url(#b)"><path fill="#008339" fill-rule="evenodd" d="M37.8602 20.3v-7.0018c0-1.5464 1.2536-2.7982 2.8-2.7982h8.4c1.5464 0 2.8 1.2518 2.8 2.7982V20.3c0 7-7 9.8-7 9.8s-7-2.8-7-9.8" clip-rule="evenodd"/><mask id="c" width="15" height="21" x="37" y="10" maskUnits="userSpaceOnUse" style="mask-type:luminance"><path fill="#fff" fill-rule="evenodd" d="M37.8602 20.3v-7.0018c0-1.5464 1.2536-2.7982 2.8-2.7982h8.4c1.5464 0 2.8 1.2518 2.8 2.7982V20.3c0 7-7 9.8-7 9.8s-7-2.8-7-9.8" clip-rule="evenodd"/></mask><g mask="url(#c)"><path fill="#ffd033" fill-rule="evenodd" d="M47.6759 16.0998c.766-.0083 1.3844-.6319 1.3844-1.3999 0-.7732-.6268-1.4-1.4-1.4s-1.4.6268-1.4 1.4c0 .768.6184 1.3916 1.3844 1.3999-.766.0084-1.3844.632-1.3844 1.4 0 .7732.6268 1.4 1.4 1.4s1.4-.6268 1.4-1.4c0-.768-.6184-1.3916-1.3844-1.4M43.4604 14.7c0 .7667-.6162 1.3894-1.3804 1.3999.7642.0105 1.3804.6332 1.3804 1.3999 0 .7732-.6268 1.4-1.4 1.4s-1.4-.6268-1.4-1.4c0-.7667.6162-1.3894 1.3804-1.3999-.7641-.0105-1.3804-.6332-1.3804-1.3999 0-.7732.6268-1.4 1.4-1.4s1.4.6268 1.4 1.4m0 5.6001c0 .7681-.6185 1.3917-1.3846 1.3999.7661.0083 1.3846.6319 1.3846 1.3999 0 .7732-.6268 1.4-1.4 1.4s-1.4-.6268-1.4-1.4c0-.768.6185-1.3916 1.3846-1.3999-.7661-.0082-1.3846-.6318-1.3846-1.3999 0-.7732.6268-1.4 1.4-1.4s1.4.6268 1.4 1.4m4.1999 4.1998c.7732 0 1.4-.6268 1.4-1.4 0-.768-.6185-1.3916-1.3846-1.3999.7661-.0082 1.3846-.6318 1.3846-1.3999 0-.7732-.6268-1.4-1.4-1.4s-1.4.6268-1.4 1.4c0 .7681.6185 1.3917 1.3846 1.3999-.7661.0083-1.3846.6319-1.3846 1.3999 0 .7732.6268 1.4 1.4 1.4" clip-rule="evenodd"/><ellipse cx="45" cy="19" fill="#fff" rx="1" ry="4"/></g></g><path fill="#ffd033" d="M36.4601 27.3004c0 2.6702 3.8245 4.2 8.4 4.2s8.4-1.5298 8.4-4.2c0-.7732-.6268-1.4-1.4-1.4s-1.4.6268-1.4 1.4c0 .0268-.3394.3477-1.1702.68-1.1279.4512-2.7168.72-4.4298.72s-3.302-.2688-4.4298-.72c-.8309-.3323-1.1702-.6532-1.1702-.68 0-.7732-.6268-1.4-1.4-1.4s-1.4.6268-1.4 1.4"/><path fill="#042c90" d="M0 0h26.7134v21H0z"/><mask id="d" width="27" height="21" x="0" y="0" maskUnits="userSpaceOnUse" style="mask-type:alpha"><path fill="#0a17a7" d="M0 0h26.7133v21H0z"/></mask><g mask="url(#d)"><mask id="e" width="35" height="27" x="-4" y="-3" fill="#000" maskUnits="userSpaceOnUse"><path fill="#fff" d="M-4-3h35v27H-4z"/><path fill-rule="evenodd" d="M10.3885 9 0 0h1.484l10.3886 7.5h2.9682L26.7134 0v1.5L16.3248 9v3l10.3886 9h-1.2582a.7.7 0 0 1-.4091-.1322L14.8408 13.5h-2.9682L0 21v-1.5L10.3885 12z" clip-rule="evenodd"/></mask><path fill="#ff2e3b" fill-rule="evenodd" d="M10.3885 9 0 0h1.484l10.3886 7.5h2.9682L26.7134 0v1.5L16.3248 9v3l10.3886 9h-1.2582a.7.7 0 0 1-.4091-.1322L14.8408 13.5h-2.9682L0 21v-1.5L10.3885 12z" clip-rule="evenodd"/><path stroke="#fff" stroke-width="3" d="M10.3885 9 0 0h1.484l10.3886 7.5h2.9682L26.7134 0v1.5L16.3248 9v3l10.3886 9h-1.2582a.7.7 0 0 1-.4091-.1322L14.8408 13.5h-2.9682L0 21v-1.5L10.3885 12z" clip-rule="evenodd" mask="url(#e)"/><path fill="#fff" fill-rule="evenodd" d="M0 7.5v6h10.3885v7.6024c0 .7719.6258 1.3976 1.3976 1.3976h3.1411c.7719 0 1.3976-.6257 1.3976-1.3976V13.5h10.4751c.7718 0 1.3975-.6257 1.3975-1.3976V8.8976c0-.7719-.6257-1.3976-1.3975-1.3976H16.3248V0h-5.9363v7.5z" clip-rule="evenodd"/><path fill="#ff2e3b" fill-rule="evenodd" d="M0 9h11.8726V0h2.9682v9h11.8726v3H14.8408v9h-2.9682v-9H0z" clip-rule="evenodd"/></g></g><defs><clipPath id="a"><rect width="64" height="42" fill="#fff" rx="5"/></clipPath><clipPath id="b"><path fill="#fff" d="M37.8602 10.5h14.7v21h-14.7z"/></clipPath></defs></svg>