<svg xmlns="http://www.w3.org/2000/svg" width="64" height="42" fill="none" viewBox="0 0 64 42"><g clip-path="url(#a)"><rect width="64" height="42" fill="#fff" rx="5"/><rect width="63" height="41" x="1" y="1" stroke="#f5f5f5" rx="5"/><path fill="#e34f4f" fill-rule="evenodd" d="M-1.935 42H64V26.776H-1.935zm23.307-15.224h18.269v-12.18H21.372z" clip-rule="evenodd"/><path fill="#181a1a" fill-rule="evenodd" d="M24.417 26.776h3.045v-3.045h-3.045zm9.135 0h3.045v-3.045h-3.045zm-12.18-12.18h3.045v-3.045h-3.045zm9.134 0h3.045v-3.045h-3.045z" clip-rule="evenodd"/><path fill="#181a1a" fill-rule="evenodd" d="M27.462 14.596h3.045v-3.045h-3.045zm9.134 0h3.045v-3.045h-3.045z" clip-rule="evenodd"/><path fill="#e34f4f" fill-rule="evenodd" d="M21.372 11.552h3.045V8.507h-3.045zm9.134 0h3.045V8.507h-3.045z" clip-rule="evenodd"/><path fill="#e34f4f" fill-rule="evenodd" d="M27.462 11.552h3.045V8.507h-3.045zm9.134 0h3.045V8.507h-3.045z" clip-rule="evenodd"/></g><defs><clipPath id="a"><rect width="64" height="42" fill="#fff" rx="5"/></clipPath></defs></svg>