<svg xmlns="http://www.w3.org/2000/svg" width="64" height="42" fill="none" viewBox="0 0 64 42"><g clip-path="url(#a)"><rect width="64" height="42" fill="#fff" rx="5"/><rect width="63" height="41" x="1" y="1" stroke="#f5f5f5" rx="5"/><path fill="#f03340" fill-rule="evenodd" d="M0 11.2h64V0H0zM0 42h64V30.8H0z" clip-rule="evenodd"/><path fill="#1fc065" fill-rule="evenodd" d="M29.7799 26.0201c.4529-.4529.4529-1.1872 0-1.6402l-.1611-.1611a1.046 1.046 0 0 0-.9934-.2751l-.7964.1991c-.9317.2329-1.51-.982-.7417-1.5583l.7197-.5397c.4462-.3347.2095-1.0448-.3483-1.0448-.6125 0-.8074-.8257-.2596-1.0996l1.2017-.6008c.5479-.2739.3529-1.0996-.2595-1.0996-.5578 0-.7945-.7101-.3483-1.0448L31.16 14.63a1.4 1.4 0 0 1 1.68 0l3.367 2.5252c.4462.3347.2095 1.0448-.3483 1.0448-.6125 0-.8074.8257-.2596 1.0996l1.2018.6008c.5478.2739.3529 1.0996-.2596 1.0996-.5578 0-.7945.7101-.3483 1.0448l.7197.5397c.7683.5763.19 1.7912-.7417 1.5583l-.7964-.1991a1.046 1.046 0 0 0-.9934.2751l-.1611.1611c-.4529.453-.4529 1.1873 0 1.6402.7306.7307.2132 1.9799-.8201 1.9799h-2.8c-1.0333 0-1.5507-1.2492-.8201-1.9799" clip-rule="evenodd"/></g><defs><clipPath id="a"><rect width="64" height="42" fill="#fff" rx="5"/></clipPath></defs></svg>