<svg xmlns="http://www.w3.org/2000/svg" width="64" height="42" fill="none" viewBox="0 0 64 42"><g clip-path="url(#a)"><rect width="64" height="42" fill="#fff" rx="5"/><path fill="url(#b)" d="M0-1.8571h64v45.7143H0z"/><path fill="#262626" fill-rule="evenodd" d="M0 42h64V22.4H0z" clip-rule="evenodd"/><path fill="#dd2137" fill-rule="evenodd" d="M0 22.4h64V0H0z" clip-rule="evenodd"/><path fill="#f8d84b" fill-rule="evenodd" d="M37.0234 24.5494a9.16 9.16 0 0 0 .89-2.169c1.3069-4.8774-1.5876-9.8908-6.465-11.1977-.8129-.2178-1.6484.2646-1.8663 1.0775s.2646 1.6485 1.0775 1.8663c3.2516.8713 5.1813 4.2135 4.31 7.4651a6.1 6.1 0 0 1-.4919 1.2606l-4.6802-3.1201c-.7002-.4668-1.6463-.2776-2.1131.4227s-.2776 1.6463.4226 2.1131l4.2909 2.8606c-1.3975.9054-3.1583 1.238-4.8934.7731-.8129-.2178-1.6484.2646-1.8663 1.0775s.2646 1.6485 1.0775 1.8663c3.0472.8165 6.1475-.0069 8.3638-1.9292l2.1704 1.447c.7002.4668 1.6463.2776 2.1131-.4227s.2776-1.6463-.4226-2.1131zm-6.5472-8.1208c0 .8416-.6823 1.5238-1.5238 1.5238s-1.5238-.6822-1.5238-1.5238.6822-1.5238 1.5238-1.5238 1.5238.6822 1.5238 1.5238" clip-rule="evenodd"/></g><defs><linearGradient id="b" x1="0" x2="0" y1="-2" y2="44" gradientUnits="userSpaceOnUse"><stop stop-color="#ff323e"/><stop offset="1" stop-color="#fd0d1b"/></linearGradient><clipPath id="a"><rect width="64" height="42" fill="#fff" rx="5"/></clipPath></defs></svg>