<svg xmlns="http://www.w3.org/2000/svg" width="64" height="42" fill="none" viewBox="0 0 64 42"><g clip-path="url(#a)"><rect width="64" height="42" fill="#fff" rx="5"/><rect width="63" height="41" x="1" y="1" stroke="#f5f5f5" rx="5"/><path fill="#d6182d" d="M24.9998 0h14v42h-14z"/><path fill="#1425a2" d="M0 14h64v14H0z"/><path fill="#fff" fill-rule="evenodd" d="m26.4 24.5-.99.29.29-.99-.29-.99.99.29.99-.29-.29.99.29.99zm11.2 0-.99.29.29-.99-.29-.99.99.29.99-.29-.29.99.29.99zm-16.8-2.8-.99.29.29-.99-.29-.99.99.29.99-.29-.29.99.29.99zm22.4 0-.99.29.29-.99-.29-.99.99.29.99-.29-.29.99.29.99zM32 18.9l-.99.29.29-.99-.29-.99.99.29.99-.29-.29.99.29.99z" clip-rule="evenodd"/></g><defs><clipPath id="a"><rect width="64" height="42" fill="#fff" rx="5"/></clipPath></defs></svg>