<svg xmlns="http://www.w3.org/2000/svg" width="64" height="42" fill="none" viewBox="0 0 64 42"><g clip-path="url(#a)"><rect width="64" height="42" fill="#fff" rx="5"/><path fill="#19bfbf" d="M0 0h64v42H0z"/><path fill="#fff" fill-rule="evenodd" d="M14.113 17.574a.7.7 0 0 0 .3131.9391l4.3478 2.1739a.7.7 0 0 1 .3131.9392l-.7739 1.5478a.7.7 0 0 1-.9392.313l-2.0261-1.013a.7.7 0 0 0-.313-.0739H11.7a.7.7 0 0 0-.7.7v1.5955c0 .3013.1928.5688.4786.664l2.6469.8823c.4937.1646.6416.7911.2736 1.1591l-.3941.3941a.7.7 0 0 0-.205.4949v.9965c0 .0752.0121.15.0359.2214l1.2724 3.8171a.7.7 0 0 0 .351.4048l2.0894 1.0447a.7.7 0 0 0 .8081-.1312L20.8 32.2001l.7133-.7133c.3378-.3378.2454-.9074-.182-1.121l-1.5443-.7722a.7.7 0 0 1-.387-.6261v-.0709c0-.4554.428-.7895.8698-.6791l4.2 1.05a.7.7 0 0 1 .5302.6791v2.0416c0 .1382.0409.2733.1176.3882l2.4746 3.712a.7.7 0 0 0 .5824.3117h.5515a.7.7 0 0 0 .6499-.44l2.0451-5.1127c.2243-.5608 1.0059-.5933 1.276-.0531l.6521 1.3042a.7.7 0 0 0 .1311.1819l2.6394 2.6394a.7.7 0 0 0 .1819.1311l1.6854.8427c.4654.2327 1.013-.1058 1.013-.6261V33.89a.7.7 0 0 0-.205-.4949l-.7-.7a.7.7 0 0 1 0-.99l.7-.7a.7.7 0 0 1 .495-.205h2.3448a.7.7 0 0 0 .313-.0739l2.2653-1.1326a.7.7 0 0 0 .3869-.6261V26.89a.7.7 0 0 0-.205-.4949l-.7-.7a.7.7 0 0 1 0-.99l1.6183-1.6183c.3378-.3378.9074-.2454 1.121.182l.7927 1.5852a.626.626 0 0 0 .56.3461c.4654 0 .7681-.4898.56-.9061l-.6339-1.2678a.7.7 0 0 1 .313-.9392l1.5478-.7739a.7.7 0 0 0 .3131-.9391l-.9573-1.9146a.7.7 0 0 0-.4048-.351l-2.8504-.9501c-.4937-.1646-.6416-.7911-.2736-1.1591l1.7941-1.7941a.7.7 0 0 1 .495-.205h3.4774a.7.7 0 0 0 .6261-.387l.7478-1.4957c.2205-.4409-.0717-.9655-.5627-1.0102L39.0884 9.9354c-.5911-.0537-.8513-.7724-.4316-1.192l.1382-.1383a.7.7 0 0 0 .205-.495v-1.81a.7.7 0 0 0-.7-.7h-6.01a.7.7 0 0 0-.495.205L27.9371 9.663a.7.7 0 0 1-.3252.1841L22.2 11.2001l-5.3488 1.3372a.7.7 0 0 1-.4828-.053l-1.0569-.5284c-.5578-.2789-1.1743.2558-.9771.8474l.7739 2.3217a.7.7 0 0 1-.038.5344zM32.0001 36.4c.7732 0 1.4-.6268 1.4-1.4s-.6268-1.4-1.4-1.4-1.4.6268-1.4 1.4.6268 1.4 1.4 1.4m-7-15.3997c0 .7732-.6268 1.4-1.4 1.4s-1.4-.6268-1.4-1.4.6268-1.4 1.4-1.4 1.4.6268 1.4 1.4M50.1999 26.6V28l-1.605 1.605c-.441.441-.1287 1.195.4949 1.195h.6775a.7.7 0 0 0 .6261-.387L51.5999 28zm0 0 .7739-.3869c.5047-.2524.3251-1.0131-.2392-1.0131a.5347.5347 0 0 0-.5347.5348z" clip-rule="evenodd"/></g><defs><clipPath id="a"><rect width="64" height="42" fill="#fff" rx="5"/></clipPath></defs></svg>