<svg xmlns="http://www.w3.org/2000/svg" width="64" height="42" fill="none" viewBox="0 0 64 42"><g clip-path="url(#a)"><rect width="64" height="42" fill="#fff" rx="5"/><path fill="#fff" d="M0 0h64v42H0z"/><rect width="63" height="41" x="1" y="1" stroke="#f5f5f5" rx="5"/><path fill="#c00" fill-rule="evenodd" d="M64 3H35.9139V0H64zM35.9139 6H64v3H35.9139zM64 15H35.9139v-3H64zm-28.0861 3H64v3H35.9139z" clip-rule="evenodd"/><path fill="#006" d="M0 0h35.9139v25.5H0z"/><path fill="#c00" fill-rule="evenodd" d="M64 27.0001H0v-3h64zm-64 3h64v3H0zm64 9H0v-3h64z" clip-rule="evenodd"/><path fill="#fc0" d="m24.2499 4.5.6688 4.575 2.5875-3.8312-1.3875 4.4125 3.9937-2.3313-3.1625 3.375 4.6125-.3687L27.2499 12l4.3125 1.6688-4.6125-.3688 3.1625 3.375-3.9937-2.3312 1.3875 4.4125-2.5875-3.8313-.6688 4.575-.6687-4.575-2.5875 3.8313 1.3875-4.4125-3.9938 2.3312 3.1625-3.375-4.6125.3688L21.2499 12l-4.3125-1.6687 4.6125.3687-3.1625-3.375 3.9938 2.3313-1.3875-4.4125 2.5875 3.8312zm-3.75.1875A7.9998 7.9998 0 0 0 9.2554 12a8 8 0 0 0 11.2445 7.3125 9.001 9.001 0 0 1-9.3564.6944A9.001 9.001 0 0 1 6.2533 12a9 9 0 0 1 14.2466-7.3125"/></g><defs><clipPath id="a"><rect width="64" height="42" fill="#fff" rx="5"/></clipPath></defs></svg>