<svg xmlns="http://www.w3.org/2000/svg" width="64" height="42" fill="none" viewBox="0 0 64 42"><g clip-path="url(#a)"><rect width="64" height="42" fill="#fff" rx="5"/><path fill="#ffbf19" d="M0 0h64v42H0z"/><path fill="#a52531" fill-rule="evenodd" d="M23.5647 2.8h34.6875c1.5464 0 2.8 1.2537 2.8 2.8v30.8001c0 1.5463-1.2536 2.8-2.8 2.8H23.5647z" clip-rule="evenodd"/><path fill="#03664f" d="M3.4 5.6c0-1.5463 1.2536-2.8 2.8-2.8h5.6v36.4001H6.2c-1.5464 0-2.8-1.2537-2.8-2.8z"/><path fill="#ff6816" d="M11.8 2.8001h8.4v36.4h-8.4z"/><path fill="#ffbf18" fill-rule="evenodd" d="M27.8 8.4c.773 0 1.4-.627 1.4-1.4s-.627-1.4-1.4-1.4-1.4.627-1.4 1.4.627 1.4 1.4 1.4m28.873 0c-.773 0-1.4-.627-1.4-1.4s.627-1.4 1.4-1.4 1.4.627 1.4 1.4-.627 1.4-1.4 1.4m-1.4 26.6c0-.773.627-1.4 1.4-1.4s1.4.627 1.4 1.4-.627 1.4-1.4 1.4-1.4-.627-1.4-1.4M27.8 33.6c.773 0 1.4.627 1.4 1.4s-.627 1.4-1.4 1.4-1.4-.627-1.4-1.4.627-1.4 1.4-1.4m9.844-7.195c0-.665-.539-1.204-1.205-1.204a1.13 1.13 0 0 1-.38-.064c-.81-.29-4.016-1.513-4.016-2.736 0-.766.419-1.532.799-2.069.331-.467.454-1.074.251-1.61-.476-1.256-1.246-3.542-1.05-4.721.105-.628.523-1.178 1.006-1.621.747-.685 1.795-.038 1.795.976v5.38a1.4 1.4 0 0 0 .774 1.252l1.421.71a.939.939 0 0 0 1.084-.176c.453-.453.329-1.217-.244-1.504l-1.635-.818v-1.4c.698 0 .919-.94.296-1.252l-.296-.148V14h2.22c.371 0 .727-.147.99-.41l.58-.58c.263-.262.619-.41.99-.41h1.355a1.4 1.4 0 0 1 1.252.774l.754 1.507c.166.332.193.717.076 1.069l-.602 1.807c-.302.907.373 1.843 1.328 1.843h4.602a1.1 1.1 0 0 0 .777-.322c.53-.53.385-1.424-.286-1.76l-1.141-.57a1.4 1.4 0 0 0-.626-.148h-1.069c-.773 0-1.4-.627-1.4-1.4v-.82c0-.371.148-.727.41-.99l.99-.99V14c0 .773.627 1.4 1.4 1.4h1.935a1.4 1.4 0 0 1 1.252.774l.901 1.802a1.33 1.33 0 0 1 .137.474c.064.705.218 2.739-.024 3.951-.196.982-.746 1.891-1.095 2.393-.188.27-.304.587-.304.916v4.021c0 .591-.479 1.07-1.069 1.07-.795 0-1.312-.837-.957-1.548l.478-.957a.661.661 0 0 0 0-.591l-.066-.132c-.295-.591-1.186-.381-1.186.28a.63.63 0 0 1-.066.28l-.988 1.976a1.252 1.252 0 0 1-1.12.692c-.931 0-1.536-.98-1.12-1.812l.346-.692a1.4 1.4 0 0 0 .148-.626V26.6c0-.773-.627-1.4-1.4-1.4h-2.8c-.773 0-1.4.627-1.4 1.4v1.07c0 .217-.051.432-.148.626l-.906 1.812a1.252 1.252 0 0 1-1.12.692c-.931 0-1.536-.98-1.12-1.812l.346-.692a1.4 1.4 0 0 0 .148-.626z" clip-rule="evenodd"/></g><defs><clipPath id="a"><rect width="64" height="42" fill="#fff" rx="5"/></clipPath></defs></svg>