<svg xmlns="http://www.w3.org/2000/svg" width="24" height="24" fill="none" viewBox="0 0 24 24"><path fill="#000" fill-rule="evenodd" d="M13.301 2.7467c-.5799-.9956-2.0221-.9956-2.602 0l-3.4948 6C6.614 9.7599 7.3608 11 8.5052 11h6.9896c1.1444 0 1.8912-1.24 1.301-2.2533zM9.3712 9 12 4.4868 14.6288 9zM16 12.0001c-1.6569 0-3 1.3431-3 3v3c0 1.6568 1.3431 3 3 3h3c1.6569 0 3-1.3432 3-3v-3c0-1.6569-1.3431-3-3-3zm-14 4.5c0-2.4853 2.0147-4.5 4.5-4.5s4.5 2.0147 4.5 4.5c0 2.4852-2.0147 4.5-4.5 4.5s-4.5-2.0148-4.5-4.5m13-1.5c0-.5523.4477-1 1-1h3c.5523 0 1 .4477 1 1v3c0 .5522-.4477 1-1 1h-3c-.5523 0-1-.4478-1-1zm-8.5-1c-1.3807 0-2.5 1.1193-2.5 2.5s1.1193 2.5 2.5 2.5 2.5-1.1193 2.5-2.5-1.1193-2.5-2.5-2.5"/></svg>