<svg width="24" height="24" viewBox="0 0 24 24" fill="none" xmlns="http://www.w3.org/2000/svg">
<path fill-rule="evenodd" clip-rule="evenodd" d="M12 2C10.3431 2 9 3.34315 9 5C9 6.65685 10.3431 8 12 8C13.6569 8 15 6.65685 15 5C15 3.34315 13.6569 2 12 2ZM11 5C11 4.44772 11.4477 4 12 4C12.5523 4 13 4.44772 13 5C13 5.55228 12.5523 6 12 6C11.4477 6 11 5.55228 11 5Z" fill="black"/>
<path fill-rule="evenodd" clip-rule="evenodd" d="M5 9C4.44772 9 4 9.44772 4 10C4 10.5523 4.44772 11 5 11H8.17071C8.06015 11.3128 8 11.6494 8 12V21C8 21.5523 8.44772 22 9 22C9.55228 22 10 21.5523 10 21V17.8293C10.3128 17.9398 10.6494 18 11 18H13C13.3506 18 13.6872 17.9398 14 17.8293V21C14 21.5523 14.4477 22 15 22C15.5523 22 16 21.5523 16 21V12C16 11.6494 15.9398 11.3128 15.8293 11H19C19.5523 11 20 10.5523 20 10C20 9.44772 19.5523 9 19 9H5ZM11 16C10.4477 16 10 15.5523 10 15V12C10 11.4477 10.4477 11 11 11H13C13.5523 11 14 11.4477 14 12V15C14 15.5523 13.5523 16 13 16H11Z" fill="black"/>
</svg>
