<svg xmlns="http://www.w3.org/2000/svg" width="24" height="24" fill="none" viewBox="0 0 24 24"><path fill="#000" fill-rule="evenodd" d="M9 5c0-1.6569 1.3431-3 3-3s3 1.3431 3 3-1.3431 3-3 3-3-1.3431-3-3m3-1c-.5523 0-1 .4477-1 1s.4477 1 1 1 1-.4477 1-1-.4477-1-1-1m-8 6c0-.5523.4477-1 1-1h14c.5523 0 1 .4477 1 1s-.4477 1-1 1h-3.1707c.1105.3128.1707.6494.1707 1v9c0 .5523-.4477 1-1 1s-1-.4477-1-1v-3.1707A3 3 0 0 1 13 18h-2a3 3 0 0 1-1-.1707V21c0 .5523-.4477 1-1 1s-1-.4477-1-1v-9c0-.3506.0602-.6872.1707-1H5c-.5523 0-1-.4477-1-1m6 5c0 .5523.4477 1 1 1h2c.5523 0 1-.4477 1-1v-3c0-.5523-.4477-1-1-1h-2c-.5523 0-1 .4477-1 1z"/></svg>