<svg width="24" height="24" viewBox="0 0 24 24" fill="none" xmlns="http://www.w3.org/2000/svg">
<path fill-rule="evenodd" clip-rule="evenodd" d="M12 3C9.79086 3 8 4.79086 8 7C8 9.20914 9.79086 11 12 11C14.2091 11 16 9.20914 16 7C16 4.79086 14.2091 3 12 3ZM10 7C10 5.89543 10.8954 5 12 5C13.1046 5 14 5.89543 14 7C14 8.10457 13.1046 9 12 9C10.8954 9 10 8.10457 10 7Z" fill="black"/>
<path fill-rule="evenodd" clip-rule="evenodd" d="M9 12C6.23858 12 4 14.2386 4 17V18.2C4 19.7464 5.2536 21 6.8 21H17.2C18.7464 21 20 19.7464 20 18.2V17C20 14.2386 17.7614 12 15 12H9ZM6 17C6 15.3431 7.34315 14 9 14H15C16.6569 14 18 15.3431 18 17V18.2C18 18.6418 17.6418 19 17.2 19H6.8C6.35817 19 6 18.6418 6 18.2V17Z" fill="black"/>
<path d="M21 11.9963C21.5523 11.9963 22 11.5486 22 10.9963V6.99634C22 6.44405 21.5523 5.99634 21 5.99634C20.4477 5.99634 20 6.44405 20 6.99634V10.9963C20 11.5486 20.4477 11.9963 21 11.9963Z" fill="black"/>
<path d="M21 3C21.5523 3 22 3.44772 22 4C22 4.55228 21.5523 5 21 5C20.4477 5 20 4.55228 20 4C20 3.44772 20.4477 3 21 3Z" fill="black"/>
</svg>
