<svg xmlns="http://www.w3.org/2000/svg" width="24" height="24" fill="none" viewBox="0 0 24 24"><path fill="#000" fill-rule="evenodd" d="M12 3C9.7909 3 8 4.7909 8 7s1.7909 4 4 4 4-1.7909 4-4-1.7909-4-4-4m10.0063 1.0037c0-.5523-.4477-1-1-1s-1 .4477-1 1v4c0 .5522.4478 1 1 1s1-.4478 1-1zM10 7c0-1.1046.8954-2 2-2s2 .8954 2 2-.8954 2-2 2-2-.8954-2-2m12.0063 4c0 .5523-.4477 1-1 1s-1-.4477-1-1 .4478-1 1-1 1 .4477 1 1M4 17c0-2.7614 2.2386-5 5-5h6c2.7614 0 5 2.2386 5 5v1.2c0 1.5464-1.2536 2.8-2.8 2.8H6.8C5.2536 21 4 19.7464 4 18.2zm5-3c-1.6569 0-3 1.3431-3 3v1.2a.8.8 0 0 0 .8.8h10.4a.8.8 0 0 0 .8-.8V17c0-1.6569-1.3431-3-3-3z"/></svg>