<svg xmlns="http://www.w3.org/2000/svg" width="24" height="24" fill="none" viewBox="0 0 24 24"><path fill="#000" fill-rule="evenodd" d="M6.8501 6.9766C6.8501 4.7804 8.6305 3 10.8267 3s3.9766 1.7804 3.9766 3.9766-1.7804 3.9766-3.9766 3.9766-3.9766-1.7804-3.9766-3.9766M10.8267 5c-1.0916 0-1.9766.885-1.9766 1.9766s.885 1.9766 1.9766 1.9766 1.9766-.885 1.9766-1.9766S11.9183 5 10.8267 5M3 17.0566c0-2.7614 2.2386-5 5-5h4.5986a6.03 6.03 0 0 0-1.8283 2H8c-1.6569 0-3 1.3432-3 3v1.0412c0 .5523.4477 1 1 1h4.3769a6 6 0 0 0 1.2404 2H6c-1.6569 0-3-1.3431-3-3zM16 13c-2.2091 0-4 1.7909-4 4s1.7909 4 4 4a3.98 3.98 0 0 0 2.032-.5538l1.7609 1.7609c.3905.3905 1.0237.3905 1.4142 0s.3905-1.0237 0-1.4142l-1.7609-1.7609A3.98 3.98 0 0 0 20 17c0-2.2091-1.7909-4-4-4m-2 4c0-1.1046.8954-2 2-2s2 .8954 2 2-.8954 2-2 2-2-.8954-2-2"/></svg>