<svg xmlns="http://www.w3.org/2000/svg" width="24" height="24" fill="none" viewBox="0 0 24 24"><path fill="#000" fill-rule="evenodd" d="M11.9889 4c-4.2834 0-7.781 3.3668-7.9901 7.5978-.0273.5516-.4965.9767-1.0481.9495s-.9767-.4966-.9495-1.0482C2.2626 6.2085 6.634 2 11.989 2c4.3811 0 8.1038 2.817 9.456 6.7388l.1382-.2393c.2761-.4783.8877-.6423 1.366-.3662s.6422.8877.3661 1.366l-1.4714 2.5491a1 1 0 0 1-1.4277.3275l-2.4276-1.648c-.457-.3102-.5759-.932-.2658-1.389s.9321-.576 1.3891-.2658l.4341.2948C18.4576 6.2429 15.485 4 11.9889 4M10.2 7h3.6c1.215 0 2.2.985 2.2 2.2v3.6a2.19 2.19 0 0 1-.3558 1.2H18.8c1.215 0 2.2.985 2.2 2.2v3.6c0 1.215-.9849 2.2-2.2 2.2h-3.6c-1.215 0-2.2-.985-2.2-2.2v-3.6c0-.4427.1308-.8549.3558-1.2h-2.7116A2.19 2.19 0 0 1 11 16.2v3.6c0 1.215-.9849 2.2-2.2 2.2H5.2C3.985 22 3 21.015 3 19.8v-3.6c0-1.215.985-2.2 2.2-2.2h3.1558A2.19 2.19 0 0 1 8 12.8V9.2C8 7.985 8.985 7 10.2 7m0 2a.2.2 0 0 0-.2.2v3.6a.2.2 0 0 0 .2.2h3.6a.2.2 0 0 0 .2-.2V9.2a.2.2 0 0 0-.2-.2zm-5 7a.2.2 0 0 0-.2.2v3.6a.2.2 0 0 0 .2.2h3.6a.2.2 0 0 0 .2-.2v-3.6a.2.2 0 0 0-.2-.2zm9.8.2a.2.2 0 0 1 .2-.2h3.6a.2.2 0 0 1 .2.2v3.6a.2.2 0 0 1-.2.2h-3.6a.2.2 0 0 1-.2-.2z"/></svg>