<svg width="24" height="24" viewBox="0 0 24 24" fill="none" xmlns="http://www.w3.org/2000/svg">
<path d="M5 4C3.34315 4 2 5.34315 2 7V10C2 10.7684 2.28885 11.4692 2.7639 12C2.28885 12.5308 2 13.2316 2 14V17C2 18.6569 3.34315 20 5 20H9.17152C8.9466 19.3634 8.93885 18.6577 9.17155 18H5C4.44772 18 4 17.5523 4 17V14C4 13.4477 4.44772 13 5 13H16.5417C16.6416 12.4063 16.9205 11.8368 17.3787 11.3787C17.5226 11.2348 17.6775 11.1086 17.8406 11H5C4.44772 11 4 10.5523 4 10V7C4 6.44772 4.44772 6 5 6H19C19.5523 6 20 6.44772 20 7V10C20 10.1908 19.9466 10.3691 19.8538 10.5208C20.4998 10.5971 21.1257 10.883 21.6213 11.3787L21.6501 11.4074C21.8734 10.9877 22 10.5086 22 10V7C22 5.34315 20.6569 4 19 4H5Z" fill="black"/>
<path d="M8 8.5C8 9.32843 7.32843 10 6.5 10C5.67157 10 5 9.32843 5 8.5C5 7.67157 5.67157 7 6.5 7C7.32843 7 8 7.67157 8 8.5Z" fill="black"/>
<path d="M12 8.5C12 9.32843 11.3284 10 10.5 10C9.67157 10 9 9.32843 9 8.5C9 7.67157 9.67157 7 10.5 7C11.3284 7 12 7.67157 12 8.5Z" fill="black"/>
<path d="M6.5 17C7.32843 17 8 16.3284 8 15.5C8 14.6716 7.32843 14 6.5 14C5.67157 14 5 14.6716 5 15.5C5 16.3284 5.67157 17 6.5 17Z" fill="black"/>
<path d="M22.9239 16.3827C22.7691 16.7564 22.4045 17 22 17H14C13.4477 17 13 16.5523 13 16C13 15.4477 13.4477 15 14 15H19.5858L18.7929 14.2071C18.4024 13.8166 18.4024 13.1834 18.7929 12.7929C19.1834 12.4024 19.8166 12.4024 20.2071 12.7929L22.7071 15.2929C22.9931 15.5789 23.0787 16.009 22.9239 16.3827Z" fill="black"/>
<path d="M11.0761 18.6173C11.2309 18.2436 11.5955 18 12 18H20C20.5523 18 21 18.4477 21 19C21 19.5523 20.5523 20 20 20H14.4142L15.2071 20.7929C15.5976 21.1834 15.5976 21.8166 15.2071 22.2071C14.8166 22.5976 14.1834 22.5976 13.7929 22.2071L11.2929 19.7071C11.0069 19.4211 10.9213 18.991 11.0761 18.6173Z" fill="black"/>
</svg>
