<svg xmlns="http://www.w3.org/2000/svg" width="24" height="24" fill="none" viewBox="0 0 24 24"><path fill="#000" d="M16.2384 10.4801c.3905-.3906.3905-1.0237 0-1.4142-.3906-.3906-1.0237-.3906-1.4142 0l-3.747 3.7469-1.6084-1.6083c-.3905-.3906-1.0237-.3906-1.4142 0s-.3905 1.0236 0 1.4142l2.3155 2.3154a.9997.9997 0 0 0 1.4142 0z"/><path fill="#000" fill-rule="evenodd" d="M2 5c0-1.6568 1.3432-3 3-3h14c1.6569 0 3 1.3432 3 3v14c0 1.6569-1.3431 3-3 3H5c-1.6568 0-3-1.3431-3-3zm3-1h14c.5523 0 1 .4477 1 1v14c0 .5523-.4477 1-1 1H5c-.5523 0-1-.4477-1-1V5c0-.5523.4477-1 1-1" clip-rule="evenodd"/></svg>