<svg width="24" height="24" viewBox="0 0 24 24" fill="none" xmlns="http://www.w3.org/2000/svg">
<path fill-rule="evenodd" clip-rule="evenodd" d="M16 10.0001C16 11.0001 14.2091 13.0001 12 13.0001C9.79086 13.0001 8 11.0001 8 10.0001C8 9.00012 9.79086 7.00012 12 7.00012C14.2091 7.00012 16 9.00012 16 10.0001ZM13 10.0001C13 10.5524 12.5523 11.0001 12 11.0001C11.4477 11.0001 11 10.5524 11 10.0001C11 9.44784 11.4477 9.00012 12 9.00012C12.5523 9.00012 13 9.44784 13 10.0001Z" fill="black"/>
<path fill-rule="evenodd" clip-rule="evenodd" d="M6 3.01855C4.34315 3.01855 3 4.3617 3 6.01855V14.0186C3 15.6754 4.34315 17.0186 6 17.0186H8.99854V19.0087H8C7.44772 19.0087 7 19.4564 7 20.0087C7 20.561 7.44772 21.0087 8 21.0087H16C16.5523 21.0087 17 20.561 17 20.0087C17 19.4564 16.5523 19.0087 16 19.0087H15.0015V17.0186H18C19.6569 17.0186 21 15.6754 21 14.0186V6.01855C21 4.3617 19.6569 3.01855 18 3.01855H6ZM18 5.01855H6C5.44772 5.01855 5 5.46627 5 6.01855V14.0186C5 14.5708 5.44772 15.0186 6 15.0186H18C18.5523 15.0186 19 14.5708 19 14.0186V6.01855C19 5.46627 18.5523 5.01855 18 5.01855ZM13.0015 17.0186V19.0087H10.9985V17.0186H13.0015Z" fill="black"/>
</svg>
