<svg xmlns="http://www.w3.org/2000/svg" width="24" height="24" fill="none" viewBox="0 0 24 24"><path fill="#000" fill-rule="evenodd" d="M2 7c0-1.6569 1.3431-3 3-3h14c1.6569 0 3 1.3431 3 3v3c0 .5086-.1266.9877-.3499 1.4074l-.0288-.0287a2.987 2.987 0 0 0-1.7675-.8579A.995.995 0 0 0 20 10V7c0-.5523-.4477-1-1-1H5c-.5523 0-1 .4477-1 1v3c0 .5523.4477 1 1 1h12.8406a3 3 0 0 0-.4619.3787A2.986 2.986 0 0 0 16.5417 13H5c-.5523 0-1 .4477-1 1v3c0 .5523.4477 1 1 1h4.1716a3 3 0 0 0 0 2H5c-1.6569 0-3-1.3431-3-3v-3a2.99 2.99 0 0 1 .7639-2A2.99 2.99 0 0 1 2 10zm6 1.5c0 .8284-.6716 1.5-1.5 1.5S5 9.3284 5 8.5 5.6716 7 6.5 7 8 7.6716 8 8.5m4 0c0 .8284-.6716 1.5-1.5 1.5S9 9.3284 9 8.5 9.6716 7 10.5 7s1.5.6716 1.5 1.5M22 17a1 1 0 0 0 .7071-1.7071l-2.5-2.5c-.3905-.3905-1.0237-.3905-1.4142 0s-.3905 1.0237 0 1.4142l.7929.7929H14c-.5523 0-1 .4477-1 1s.4477 1 1 1zM8 15.5c0 .8284-.6716 1.5-1.5 1.5S5 16.3284 5 15.5 5.6716 14 6.5 14s1.5.6716 1.5 1.5m4 2.5a1 1 0 0 0-.7071 1.7071l2.5 2.5c.3905.3905 1.0237.3905 1.4142 0s.3905-1.0237 0-1.4142L14.4142 20H20c.5523 0 1-.4477 1-1s-.4477-1-1-1z"/></svg>