<svg width="24" height="24" viewBox="0 0 24 24" fill="none" xmlns="http://www.w3.org/2000/svg">
<path d="M3.9988 11.5978C4.20785 7.36684 7.70549 4 11.9889 4C15.485 4 18.4576 6.24288 19.5459 9.36787L19.1118 9.07315C18.6548 8.76296 18.0329 8.88193 17.7227 9.33888C17.4126 9.79583 17.5315 10.4177 17.9885 10.7279L20.4161 12.3759C20.646 12.5319 20.9305 12.5853 21.2013 12.5232C21.4721 12.4611 21.7049 12.2891 21.8438 12.0484L23.3152 9.49933C23.5913 9.02102 23.4274 8.40944 22.9491 8.13334C22.4708 7.85724 21.8592 8.02117 21.5831 8.49949L21.4449 8.73883C20.0927 4.81699 16.37 2 11.9889 2C6.63398 2 2.26264 6.20855 2.00124 11.4991C1.97399 12.0507 2.39906 12.52 2.95067 12.5473C3.50229 12.5745 3.97155 12.1494 3.9988 11.5978Z" fill="black"/>
<path fill-rule="evenodd" clip-rule="evenodd" d="M13.8 7H10.2C8.985 7 8.00002 7.98497 8.00002 9.2V12.8C8.00002 13.2427 8.13079 13.6549 8.35581 14H5.20002C3.985 14 3.00002 14.985 3.00002 16.2V19.8C3.00002 21.015 3.985 22 5.20002 22H8.80002C10.015 22 11 21.015 11 19.8V16.2C11 15.7573 10.8693 15.3451 10.6442 15H13.3558C13.1308 15.3451 13 15.7573 13 16.2V19.8C13 21.015 13.985 22 15.2 22H18.8C20.015 22 21 21.015 21 19.8V16.2C21 14.985 20.015 14 18.8 14H15.6442C15.8693 13.6549 16 13.2427 16 12.8V9.2C16 7.98497 15.015 7 13.8 7ZM10 9.2C10 9.08954 10.0896 9 10.2 9H13.8C13.9105 9 14 9.08954 14 9.2V12.8C14 12.9105 13.9105 13 13.8 13H10.2C10.0896 13 10 12.9105 10 12.8V9.2ZM5.00002 16.2C5.00002 16.0895 5.08957 16 5.20002 16H8.80002C8.91048 16 9.00002 16.0895 9.00002 16.2V19.8C9.00002 19.9105 8.91048 20 8.80002 20H5.20002C5.08957 20 5.00002 19.9105 5.00002 19.8V16.2ZM15.2 16C15.0896 16 15 16.0895 15 16.2V19.8C15 19.9105 15.0896 20 15.2 20H18.8C18.9105 20 19 19.9105 19 19.8V16.2C19 16.0895 18.9105 16 18.8 16H15.2Z" fill="black"/>
</svg>
