<svg xmlns="http://www.w3.org/2000/svg" width="24" height="24" fill="none" viewBox="0 0 24 24"><path fill="#000" fill-rule="evenodd" d="M20 4.0964v3.9037c1.0905.0074 1.9722.8938 1.9722 1.986S21.0905 11.9647 20 11.9722v4.7923l-2-2V4.0965c0-.1547-.168-.2508-.3013-.1725L13 6.6834v3.0811l-2.3408-2.3408V7h-.4236l-2-2h3.6813l4.769-2.8006C18.1525 1.338 20 2.3956 20 4.0964M12.5858 15l5.7071 5.7071c.3905.3905 1.0237.3905 1.4142 0s.3905-1.0237 0-1.4142l-17-17c-.3905-.3905-1.0237-.3905-1.4142 0s-.3905 1.0237 0 1.4142l2.331 2.331A2.788 2.788 0 0 0 3 7.8v4.4C3 13.7464 4.2536 15 5.8 15h1.7v5.5c0 .8285.6716 1.5 1.5 1.5s1.5-.6715 1.5-1.5V15zm-2-2H5.8a.8.8 0 0 1-.8-.8V7.8a.8.8 0 0 1 .0663-.3194z"/></svg>