<svg width="24" height="24" viewBox="0 0 24 24" fill="none" xmlns="http://www.w3.org/2000/svg">
<path d="M20 8.00005V4.0964C20 2.39559 18.1525 1.33805 16.6859 2.19934L11.9169 5.00005H8.23555L10.2356 7.00005H10.6592V7.42368L13 9.7645V6.68336L17.6987 3.92394C17.832 3.84564 18 3.94178 18 4.0964V14.7645L20 16.7645V11.9722C21.0905 11.9647 21.9722 11.0784 21.9722 9.98611C21.9722 8.89385 21.0905 8.00752 20 8.00005Z" fill="black"/>
<path fill-rule="evenodd" clip-rule="evenodd" d="M18.2929 20.7071L12.5858 15H10.5V20.5C10.5 21.3285 9.82843 22 9 22C8.17157 22 7.5 21.3285 7.5 20.5V15H5.8C4.2536 15 3 13.7464 3 12.2V7.80005C3 7.13234 3.23372 6.51921 3.62381 6.03802L1.29289 3.70711C0.902369 3.31658 0.902369 2.68342 1.29289 2.29289C1.68342 1.90237 2.31658 1.90237 2.70711 2.29289L19.7071 19.2929C20.0976 19.6834 20.0976 20.3166 19.7071 20.7071C19.3166 21.0976 18.6834 21.0976 18.2929 20.7071ZM5.8 13H10.5858L5.06634 7.48056C5.02367 7.57842 5 7.68647 5 7.80005V12.2C5 12.6419 5.35817 13 5.8 13Z" fill="black"/>
</svg>
