<svg width="24" height="24" viewBox="0 0 24 24" fill="none" xmlns="http://www.w3.org/2000/svg">
<path d="M7.46802 12C7.46802 11.4477 7.91573 11 8.46802 11H11V8.46805C11 7.91576 11.4477 7.46805 12 7.46805C12.5523 7.46805 13 7.91576 13 8.46805V11H15.5319C16.0842 11 16.5319 11.4477 16.5319 12C16.5319 12.5523 16.0842 13 15.5319 13H13V15.532C13 16.0842 12.5523 16.532 12 16.532C11.4477 16.532 11 16.0842 11 15.532V13H8.46802C7.91573 13 7.46802 12.5523 7.46802 12Z" fill="black"/>
<path fill-rule="evenodd" clip-rule="evenodd" d="M2 12C2 6.47715 6.47715 2 12 2C17.5228 2 22 6.47715 22 12C22 17.5228 17.5228 22 12 22C6.47715 22 2 17.5228 2 12ZM12 4C7.58172 4 4 7.58172 4 12C4 16.4183 7.58172 20 12 20C16.4183 20 20 16.4183 20 12C20 7.58172 16.4183 4 12 4Z" fill="black"/>
</svg>
