<svg xmlns="http://www.w3.org/2000/svg" width="24" height="24" fill="none" viewBox="0 0 24 24"><path fill="#000" fill-rule="evenodd" d="M5.8501 6.9766C5.8501 4.7804 7.6305 3 9.8267 3s3.9766 1.7804 3.9766 3.9766-1.7804 3.9766-3.9766 3.9766-3.9766-1.7804-3.9766-3.9766M19 3c.5523 0 1 .4477 1 1v1h1c.5523 0 1 .4477 1 1s-.4477 1-1 1h-1v1c0 .5523-.4477 1-1 1s-1-.4477-1-1V7h-1c-.5523 0-1-.4477-1-1s.4477-1 1-1h1V4c0-.5523.4477-1 1-1M2 17.0566c0-2.7614 2.2386-5 5-5h5.6931c2.7614 0 5 2.2386 5 5v1.0412c0 1.6569-1.3431 3-3 3H5c-1.6569 0-3-1.3431-3-3z"/></svg>