<svg xmlns="http://www.w3.org/2000/svg" width="24" height="24" fill="none" viewBox="0 0 24 24"><path fill="#000" fill-rule="evenodd" d="M8 7c0-2.2091 1.7909-4 4-4s4 1.7909 4 4-1.7909 4-4 4-4-1.7909-4-4m14-3c0-.5523-.4477-1-1-1s-1 .4477-1 1v1h-1c-.5523 0-1 .4477-1 1s.4477 1 1 1h1v1c0 .5523.4477 1 1 1s1-.4477 1-1V7h1c.5523 0 1-.4477 1-1s-.4477-1-1-1h-1zM12 5c-1.1046 0-2 .8954-2 2s.8954 2 2 2 2-.8954 2-2-.8954-2-2-2m-3 7c-2.7614 0-5 2.2386-5 5v1.2C4 19.7464 5.2536 21 6.8 21h10.4c1.5464 0 2.8-1.2536 2.8-2.8V17c0-2.7614-2.2386-5-5-5zm-3 5c0-1.6569 1.3431-3 3-3h6c1.6569 0 3 1.3431 3 3v1.2a.8.8 0 0 1-.8.8H6.8a.8.8 0 0 1-.8-.8z"/></svg>