<svg width="24" height="24" viewBox="0 0 24 24" fill="none" xmlns="http://www.w3.org/2000/svg">
<path d="M5.8501 6.9766C5.8501 4.78038 7.63048 3 9.82669 3C12.0229 3 13.8033 4.78038 13.8033 6.9766C13.8033 9.17281 12.0229 10.9532 9.82669 10.9532C7.63048 10.9532 5.8501 9.17281 5.8501 6.9766Z" fill="black"/>
<path d="M2 17.0566C2 14.2952 4.23858 12.0566 7 12.0566H12.6931C15.4545 12.0566 17.6931 14.2952 17.6931 17.0566V18.0978C17.6931 19.7547 16.35 21.0978 14.6931 21.0978H5C3.34315 21.0978 2 19.7547 2 18.0978V17.0566Z" fill="black"/>
<path d="M20 4C20 3.44772 19.5523 3 19 3C18.4477 3 18 3.44772 18 4V5H17C16.4477 5 16 5.44772 16 6C16 6.55228 16.4477 7 17 7H18V8C18 8.55228 18.4477 9 19 9C19.5523 9 20 8.55228 20 8V7H21C21.5523 7 22 6.55228 22 6C22 5.44772 21.5523 5 21 5H20V4Z" fill="black"/>
</svg>
