<svg xmlns="http://www.w3.org/2000/svg" width="24" height="24" fill="none" viewBox="0 0 24 24"><path fill="#000" fill-rule="evenodd" d="M6.827 2.8062c1.9545 0 3.5436 1.5809 3.5436 3.5367 0 1.956-1.5891 3.5368-3.5437 3.5368S3.2832 8.2988 3.2832 6.343 4.8724 2.8062 6.827 2.8062m11.9617 3.559c0-1.9558-1.5891-3.5367-3.5437-3.5367s-3.5437 1.5809-3.5437 3.5368S13.2905 9.902 15.245 9.902s3.5437-1.5808 3.5437-3.5367M8.3707 6.343c0-.8462-.6887-1.5368-1.5438-1.5368s-1.5437.6906-1.5437 1.5368.6886 1.5368 1.5437 1.5368 1.5437-.6906 1.5437-1.5368m6.8743-1.5144c.8552 0 1.5437.6906 1.5437 1.5368S16.1002 7.902 15.245 7.902c-.8551 0-1.5437-.6905-1.5437-1.5367s.6886-1.5368 1.5437-1.5368m2.7707 6.2375c-.7498.4039-1.3081 1.1177-1.5034 1.97H12.915c-1.1045 0-2 .8954-2 2v2.3836h2.3147c.1296.8274.5974 1.5427 1.2575 2H10.915c-1.1045 0-2-.8954-2-2V15.036c0-2.2091 1.7909-4 4-4h4.6088q.25.0001.4919.03m.4209 9.1278v-.7742l-.0001-1.468h-2.2431a.9997.9997 0 0 1-1-.9999c0-.5523.4477-1 1-1h2.2432v-2.2428a1 1 0 0 1 .0859-.4062 1.0002 1.0002 0 0 1 1.914.4061v2.2428l2.2419.0001c.5523 0 1 .4477 1 1s-.4477 1-1 1l-2.2419-.0001.0001 2.2422c0 .5523-.4477 1-1 1s-1-.4477-1-1M7.4375 19.397H2.324c-1.1046 0-2-.8955-2-2v-2.361c0-2.2091 1.7908-4 4-4h4.119a6 6 0 0 0-1.1864 2H4.324c-1.1046 0-2 .8954-2 2v2.361h4.5913v.0226a3.98 3.98 0 0 0 .5222 1.9774"/></svg>