<svg width="24" height="24" viewBox="0 0 24 24" fill="none" xmlns="http://www.w3.org/2000/svg">
<path fill-rule="evenodd" clip-rule="evenodd" d="M10.3706 6.34293C10.3706 4.38706 8.78147 2.80615 6.82691 2.80615C4.87235 2.80615 3.28321 4.38706 3.28321 6.34293C3.28321 8.29881 4.87235 9.87972 6.82691 9.87972C8.78147 9.87972 10.3706 8.29881 10.3706 6.34293ZM6.82691 4.80615C7.68204 4.80615 8.37061 5.49676 8.37061 6.34293C8.37061 7.18911 7.68204 7.87972 6.82691 7.87972C5.97178 7.87972 5.28321 7.18911 5.28321 6.34293C5.28321 5.49676 5.97178 4.80615 6.82691 4.80615Z" fill="black"/>
<path d="M7.43747 19.397H2.32397C1.2194 19.397 0.323975 18.5015 0.323975 17.397V15.036C0.323975 12.8269 2.11483 11.036 4.32397 11.036H8.44312C7.9266 11.6131 7.52015 12.2908 7.25674 13.036H4.32397C3.2194 13.036 2.32397 13.9314 2.32397 15.036V17.397L6.91533 17.397V17.4196C6.91533 18.1388 7.10517 18.8138 7.43747 19.397Z" fill="black"/>
<path fill-rule="evenodd" clip-rule="evenodd" d="M15.245 2.82849C17.1996 2.82849 18.7887 4.4094 18.7887 6.36527C18.7887 8.32115 17.1996 9.90205 15.245 9.90205C13.2905 9.90205 11.7013 8.32115 11.7013 6.36527C11.7013 4.4094 13.2905 2.82849 15.245 2.82849ZM16.7887 6.36527C16.7887 5.5191 16.1002 4.82849 15.245 4.82849C14.3899 4.82849 13.7013 5.5191 13.7013 6.36527C13.7013 7.21145 14.3899 7.90205 15.245 7.90205C16.1002 7.90205 16.7887 7.21145 16.7887 6.36527Z" fill="black"/>
<path d="M16.5123 13.036C16.7076 12.1837 17.2659 11.4699 18.0157 11.066C17.8545 11.0462 17.6904 11.036 17.5238 11.036H12.915C10.7059 11.036 8.91504 12.8269 8.91504 15.036V17.4196C8.91504 18.5242 9.81047 19.4196 10.915 19.4196L14.4872 19.4196L16.4619 19.4196L18.4366 19.4196V20.1938C18.4366 20.7461 18.8843 21.1938 19.4366 21.1938C19.9888 21.1938 20.4366 20.7461 20.4366 20.1938L20.4365 17.9516L22.6784 17.9517C23.2307 17.9517 23.6784 17.5039 23.6784 16.9517C23.6784 16.3994 23.2307 15.9517 22.6784 15.9517L20.4365 15.9516V13.7088C20.4365 13.1566 19.9888 12.7088 19.4365 12.7088C19.0289 12.7088 18.6782 12.9528 18.5225 13.3026C18.4673 13.4267 18.4366 13.5643 18.4366 13.7089V15.9517H16.1934C15.6411 15.9517 15.1934 16.3994 15.1934 16.9517C15.1934 17.1207 15.2353 17.28 15.3094 17.4196C15.4773 17.7361 15.8101 17.9516 16.1934 17.9516H18.4365L18.4366 19.4196L16.4619 19.4196L14.4872 19.4196C13.8271 18.9623 13.3592 18.247 13.2296 17.4196L10.915 17.4196V15.036C10.915 13.9314 11.8105 13.036 12.915 13.036L16.5123 13.036Z" fill="black"/>
</svg>
