<svg width="24" height="24" viewBox="0 0 24 24" fill="none" xmlns="http://www.w3.org/2000/svg">
<path d="M9 8.99996C8.44772 8.99996 8 9.44767 8 9.99996C8 10.5522 8.44772 11 9 11H10C10.5523 11 11 10.5522 11 9.99996C11 9.44767 10.5523 8.99996 10 8.99996H9Z" fill="black"/>
<path d="M13 9.99996C13 9.44767 13.4477 8.99996 14 8.99996H15C15.5523 8.99996 16 9.44767 16 9.99996C16 10.5522 15.5523 11 15 11H14C13.4477 11 13 10.5522 13 9.99996Z" fill="black"/>
<path d="M13 12.9999C13 12.4477 13.4477 11.9999 14 11.9999H15C15.5523 11.9999 16 12.4477 16 12.9999C16 13.5522 15.5523 13.9999 15 13.9999H14C13.4477 13.9999 13 13.5522 13 12.9999Z" fill="black"/>
<path d="M9 11.9999C8.44772 11.9999 8 12.4477 8 12.9999C8 13.5522 8.44772 13.9999 9 13.9999H10C10.5523 13.9999 11 13.5522 11 12.9999C11 12.4477 10.5523 11.9999 10 11.9999H9Z" fill="black"/>
<path fill-rule="evenodd" clip-rule="evenodd" d="M7 22C5.34315 22 4 20.6568 4 19V8.52919C4 7.56034 4.4679 6.65113 5.25629 6.08799L10.2563 2.51656C11.2994 1.7715 12.7006 1.7715 13.7437 2.51656L18.7437 6.08799C19.5321 6.65113 20 7.56034 20 8.52919V19C20 20.6568 18.6569 22 17 22H7ZM11.4188 4.14403C11.7665 3.89567 12.2335 3.89567 12.5812 4.14403L17.5812 7.71546C17.844 7.90317 18 8.20624 18 8.52919V19C18 19.5522 17.5523 20 17 20H15V18C15 16.8954 14.1046 16 13 16H11C9.89543 16 9 16.8954 9 18V20H7C6.44772 20 6 19.5522 6 19V8.52919C6 8.20624 6.15597 7.90317 6.41876 7.71546L11.4188 4.14403ZM11 20H13V18H11V20Z" fill="black"/>
</svg>
