<svg width="24" height="24" viewBox="0 0 24 24" fill="none" xmlns="http://www.w3.org/2000/svg">
<path fill-rule="evenodd" clip-rule="evenodd" d="M12 3C9.79086 3 8 4.79086 8 7C8 9.20914 9.79086 11 12 11C14.2091 11 16 9.20914 16 7C16 4.79086 14.2091 3 12 3ZM10 7C10 5.89543 10.8954 5 12 5C13.1046 5 14 5.89543 14 7C14 8.10457 13.1046 9 12 9C10.8954 9 10 8.10457 10 7Z" fill="black"/>
<path d="M9.2 12C6.32812 12 4 14.3281 4 17.2V18C4 19.6569 5.34315 21 7 21H12.269C11.9604 20.3852 11.9149 19.6526 12.1533 19H7C6.44772 19 6 18.5523 6 18V17.2C6 15.4327 7.43269 14 9.2 14H13.5945C13.6752 13.9216 13.7624 13.8417 13.8528 13.7627C14.0981 13.5483 14.4124 13.3005 14.7682 13.0618C15.1427 12.8105 15.7075 12.469 16.3719 12.2418C15.876 12.0847 15.3479 12 14.8 12H9.2Z" fill="black"/>
<path fill-rule="evenodd" clip-rule="evenodd" d="M19.7314 14.43C19.6914 14.18 19.4814 14 19.2414 14H17.7314C17.4814 14 17.2714 14.18 17.2414 14.43L17.1114 15.35C16.8414 15.46 16.5814 15.6 16.3514 15.77L15.4314 15.41C15.2014 15.32 14.9514 15.41 14.8214 15.62L14.0714 16.87C13.9414 17.09 13.9914 17.38 14.2014 17.53L14.9714 18.1C14.9514 18.23 14.9514 18.37 14.9514 18.5C14.9514 18.63 14.9514 18.77 14.9714 18.9L14.2014 19.47C13.9914 19.62 13.9414 19.91 14.0714 20.13L14.8214 21.38C14.9514 21.59 15.2014 21.68 15.4314 21.59L16.3514 21.23C16.5814 21.4 16.8414 21.54 17.1114 21.65L17.2414 22.57C17.2814 22.82 17.4914 23 17.7314 23H19.2414C19.4914 23 19.7014 22.82 19.7314 22.57L19.8614 21.65C20.1314 21.54 20.3914 21.4 20.6214 21.23L21.5414 21.59C21.7714 21.68 22.0214 21.59 22.1514 21.38L22.9014 20.13C23.0314 19.91 22.9814 19.62 22.7714 19.47L22.0014 18.9C22.0214 18.77 22.0214 18.63 22.0214 18.5C22.0214 18.37 22.0214 18.23 22.0014 18.1L22.7714 17.53C22.9814 17.38 23.0314 17.09 22.9014 16.87L22.1514 15.62C22.0214 15.41 21.7714 15.32 21.5414 15.41L20.6214 15.77C20.3914 15.6 20.1314 15.46 19.8614 15.35L19.7314 14.43ZM18.4814 19.6C19.0914 19.6 19.5814 19.11 19.5814 18.5C19.5814 17.89 19.0914 17.4 18.4814 17.4C17.8714 17.4 17.3814 17.89 17.3814 18.5C17.3814 19.11 17.8714 19.6 18.4814 19.6Z" fill="black"/>
</svg>
