<svg xmlns="http://www.w3.org/2000/svg" width="24" height="24" fill="none" viewBox="0 0 24 24"><path fill="#000" fill-rule="evenodd" d="M12 3C9.7909 3 8 4.7909 8 7s1.7909 4 4 4 4-1.7909 4-4-1.7909-4-4-4m-2 4c0-1.1046.8954-2 2-2s2 .8954 2 2-.8954 2-2 2-2-.8954-2-2m-.8 5C6.3281 12 4 14.3281 4 17.2v.8c0 1.6569 1.3431 3 3 3h5.269c-.3086-.6148-.3541-1.3474-.1157-2H7c-.5523 0-1-.4477-1-1v-.8C6 15.4327 7.4327 14 9.2 14h4.3945a7 7 0 0 1 .2583-.2373 9.2 9.2 0 0 1 .9154-.7009c.3745-.2513.9393-.5928 1.6037-.82A5.2 5.2 0 0 0 14.8 12zm10.0414 2c.24 0 .45.18.49.43l.13.92c.27.11.53.25.76.42l.92-.36c.23-.09.48 0 .61.21l.75 1.25c.13.22.08.51-.13.66l-.77.57c.02.13.02.27.02.4s0 .27-.02.4l.77.57c.21.15.26.44.13.66l-.75 1.25c-.13.21-.38.3-.61.21l-.92-.36c-.23.17-.49.31-.76.42l-.13.92c-.03.25-.24.43-.49.43h-1.51c-.24 0-.45-.18-.49-.43l-.13-.92c-.27-.11-.53-.25-.76-.42l-.92.36c-.23.09-.48 0-.61-.21l-.75-1.25c-.13-.22-.08-.51.13-.66l.77-.57c-.02-.13-.02-.27-.02-.4s0-.27.02-.4l-.77-.57c-.21-.15-.26-.44-.13-.66l.75-1.25c.13-.21.38-.3.61-.21l.92.36c.23-.17.49-.31.76-.42l.13-.92c.03-.25.24-.43.49-.43zm.34 4.5c0 .61-.49 1.1-1.1 1.1s-1.1-.49-1.1-1.1.49-1.1 1.1-1.1 1.1.49 1.1 1.1"/></svg>