<svg xmlns="http://www.w3.org/2000/svg" width="24" height="24" fill="none" viewBox="0 0 24 24"><path fill="#000" fill-rule="evenodd" d="M20 8V4.0965c0-1.7008-1.8475-2.7583-3.3141-1.897L11.9169 5H5.8C4.2536 5 3 6.2537 3 7.8v4.4C3 13.7464 4.2536 15 5.8 15h1.7v5.5c0 .8285.6716 1.5 1.5 1.5s1.5-.6715 1.5-1.5V15h1.0597l5.1697 2.8799C18.1958 18.6967 20 17.6365 20 15.958v-3.9858c1.0905-.0075 1.9722-.8938 1.9722-1.986S21.0905 8.0076 20 8m-2.3013-4.076c.1333-.0784.3013.0178.3013.1724V15.958c0 .1525-.164.2489-.2973.1747L13 13.513V6.6834zM10.6592 7H5.8a.8.8 0 0 0-.8.8v4.4a.8.8 0 0 0 .8.8h4.8592z"/></svg>