<svg xmlns="http://www.w3.org/2000/svg" width="24" height="24" fill="none" viewBox="0 0 24 24"><path fill="#000" fill-rule="evenodd" d="M3 5.5a1 1 0 0 1 .4-.8l3-2.25a1 1 0 0 1 1.2 0l3 2.25a1 1 0 0 1 .4.8V10c0 .5523-.4477 1-1 1H4c-.5523 0-1-.4477-1-1zM19 11h-1v2h1c1.1046 0 2 .8954 2 2v4c0 1.1046-.8954 2-2 2h-4c-1.1046 0-2-.8954-2-2v-4c0-1.1046.8954-2 2-2h1v-2h-1c-1.1046 0-2-.8954-2-2V5c0-1.1046.8954-2 2-2h4c1.1046 0 2 .8954 2 2v4c0 1.1046-.8954 2-2 2M7 4.5 9 6v3H5V6zm8 .5h4v4h-4zm-4 12c0 2.2091-1.7909 4-4 4s-4-1.7909-4-4 1.7909-4 4-4 4 1.7909 4 4m-2 0c0 1.1046-.8954 2-2 2s-2-.8954-2-2 .8954-2 2-2 2 .8954 2 2m6 2v-4h4v4z"/></svg>