<svg width="24" height="24" viewBox="0 0 24 24" fill="none" xmlns="http://www.w3.org/2000/svg">
<path fill-rule="evenodd" clip-rule="evenodd" d="M10.0332 3.50661C10.5743 1.49769 13.4257 1.49771 13.9668 3.50661L15.3457 8.62868C15.3491 8.64109 15.3587 8.65065 15.3711 8.65407L20.4932 10.033C22.5024 10.574 22.5024 13.4256 20.4932 13.9666L15.3711 15.3455C15.3587 15.3488 15.3491 15.3585 15.3457 15.3709L13.9668 20.4929C13.4258 22.5022 10.5742 22.5022 10.0332 20.4929L8.6543 15.3709C8.65086 15.3585 8.64129 15.3488 8.62891 15.3455L3.50684 13.9666C1.49777 13.4255 1.49767 10.574 3.50684 10.033L8.62891 8.65407C8.64138 8.65069 8.65092 8.64115 8.6543 8.62868L10.0332 3.50661ZM11.9717 4.00466C11.9701 4.0081 11.9677 4.0167 11.9649 4.02712L10.5859 9.14821C10.3973 9.84901 9.84925 10.397 9.14844 10.5857L4.02735 11.9646C4.01685 11.9674 4.00836 11.9699 4.00489 11.9715C4.00337 11.9748 4.00004 11.9844 4.00001 11.9998C4.00001 12.0139 4.0032 12.023 4.00489 12.0271L4.00587 12.0281C4.00931 12.0297 4.0169 12.0321 4.02735 12.0349L9.14844 13.4138C9.84916 13.6025 10.3972 14.1507 10.5859 14.8513L11.9649 19.9724L11.9717 19.9939C11.9747 19.9953 11.9839 19.9998 12 19.9998C12.0149 19.9998 12.0236 19.9955 12.0274 19.9939C12.0289 19.9904 12.0324 19.9828 12.0352 19.9724L13.4141 14.8513C13.6028 14.1506 14.1509 13.6025 14.8516 13.4138L19.9727 12.0349C19.9832 12.0321 19.9907 12.0297 19.9941 12.0281C19.9958 12.0243 20 12.0144 20 11.9998C20 11.9838 19.9956 11.9745 19.9941 11.9715C19.9906 11.9699 19.983 11.9674 19.9727 11.9646L14.8516 10.5857C14.1508 10.397 13.6027 9.84896 13.4141 9.14821L12.0352 4.02712C12.0324 4.01673 12.0299 4.00907 12.0283 4.00563L12.0274 4.00466C12.0233 4.00298 12.0142 3.99977 12 3.99977C11.9846 3.99979 11.9751 4.00313 11.9717 4.00466Z" fill="black"/>
<path d="M19.1094 2.20583C19.1897 1.90897 19.6112 1.90889 19.6914 2.20583L20.0928 3.69606C20.1208 3.7996 20.2011 3.881 20.3047 3.90895L21.7949 4.30934C22.0921 4.3895 22.0919 4.81108 21.7949 4.89138L20.3047 5.29274C20.2011 5.32073 20.1207 5.40201 20.0928 5.50563L19.6914 6.99489C19.6113 7.29229 19.1895 7.29229 19.1094 6.99489L18.708 5.50563C18.6801 5.4019 18.5989 5.32067 18.4951 5.29274L17.0059 4.89138C16.7085 4.8113 16.7085 4.38942 17.0059 4.30934L18.4951 3.90895C18.5988 3.88104 18.68 3.79972 18.708 3.69606L19.1094 2.20583Z" fill="black"/>
</svg>
