<svg xmlns="http://www.w3.org/2000/svg" width="24" height="24" fill="none" viewBox="0 0 24 24"><path fill="#000" fill-rule="evenodd" d="M19.6913 2.2058c-.0802-.297-.5017-.2968-.582 0l-.4014 1.4903a.302.302 0 0 1-.2129.2129l-1.4892.4004c-.2974.08-.2974.5019 0 .582l1.4892.4013a.302.302 0 0 1 .2129.213l.4014 1.4892c.0801.2974.5019.2974.582 0l.4014-1.4893a.301.301 0 0 1 .2119-.2129l1.4902-.4013c.297-.0803.2972-.502 0-.582l-1.4902-.4005a.301.301 0 0 1-.2119-.2128zm-5.7246 1.3008c-.5411-2.0089-3.3925-2.009-3.9336 0l-1.3789 5.122a.036.036 0 0 1-.0254.0255l-5.122 1.3789c-2.0092.541-2.0091 3.3925 0 3.9336l5.122 1.3789a.036.036 0 0 1 .0254.0254l1.3789 5.122c.541 2.0093 3.3926 2.0093 3.9336 0l1.3789-5.122a.036.036 0 0 1 .0254-.0254l5.1221-1.3789c2.0092-.541 2.0092-3.3926 0-3.9336L15.371 8.654a.036.036 0 0 1-.0254-.0253zm-2.0019.5205a.2.2 0 0 1 .0068-.0225.07.07 0 0 1 .0283-.0048.07.07 0 0 1 .0274.0048l.0009.001a.2.2 0 0 1 .0069.0215l1.3789 5.1211a2.038 2.038 0 0 0 1.4375 1.4375l5.1211 1.3789a.2.2 0 0 1 .0214.0069.06.06 0 0 1 .0059.0283.07.07 0 0 1-.0059.0283.2.2 0 0 1-.0214.0068l-5.1211 1.3789a2.039 2.039 0 0 0-1.4375 1.4375l-1.3789 5.1211c-.0028.0104-.0063.018-.0078.0215-.0038.0016-.0125.0059-.0274.0059-.0161 0-.0253-.0045-.0283-.0059l-.0068-.0215-1.379-5.1211a2.038 2.038 0 0 0-1.4375-1.4375l-5.121-1.3789a.2.2 0 0 1-.0215-.0068l-.001-.001a.07.07 0 0 1-.0049-.0273c0-.0154.0034-.025.0049-.0283a.2.2 0 0 1 .0225-.0069l5.121-1.3789a2.038 2.038 0 0 0 1.4375-1.4375z"/></svg>