<svg width="24" height="24" viewBox="0 0 24 24" fill="none" xmlns="http://www.w3.org/2000/svg">
<path d="M18 8C18.5523 8 19 7.55228 19 7C19 6.44772 18.5523 6 18 6C17.4477 6 17 6.44772 17 7C17 7.55228 17.4477 8 18 8Z" fill="black"/>
<path fill-rule="evenodd" clip-rule="evenodd" d="M5 3C3.34315 3 2 4.34315 2 6V12C2 13.6569 3.34315 15 5 15H19C20.6569 15 22 13.6569 22 12V6C22 4.34315 20.6569 3 19 3H5ZM16 13H8V12C8 11.4477 8.44772 11 9 11H15C15.5523 11 16 11.4477 16 12V13ZM18 12V13H19C19.5523 13 20 12.5523 20 12V6C20 5.44772 19.5523 5 19 5H5C4.44772 5 4 5.44772 4 6V12C4 12.5523 4.44772 13 5 13H6V12C6 10.3431 7.34315 9 9 9H15C16.6569 9 18 10.3431 18 12Z" fill="black"/>
<path d="M9 17C9 16.4477 8.55228 16 8 16C7.44772 16 7 16.4477 7 17V18C7 18.5523 6.55228 19 6 19H4C3.44772 19 3 19.4477 3 20C3 20.5523 3.44772 21 4 21H6C7.65685 21 9 19.6569 9 18V17Z" fill="black"/>
<path d="M17 17C17 16.4477 16.5523 16 16 16C15.4477 16 15 16.4477 15 17V18C15 19.6569 16.3431 21 18 21H20C20.5523 21 21 20.5523 21 20C21 19.4477 20.5523 19 20 19H18C17.4477 19 17 18.5523 17 18V17Z" fill="black"/>
<path d="M13 18C13 17.4477 12.5523 17 12 17C11.4477 17 11 17.4477 11 18V20C11 20.5523 11.4477 21 12 21C12.5523 21 13 20.5523 13 20V18Z" fill="black"/>
</svg>
