<svg xmlns="http://www.w3.org/2000/svg" width="24" height="24" fill="none" viewBox="0 0 24 24"><path fill="#000" fill-rule="evenodd" d="M2 6c0-1.6569 1.3431-3 3-3h14c1.6569 0 3 1.3431 3 3v6c0 1.6569-1.3431 3-3 3H5c-1.6569 0-3-1.3431-3-3zm16 7v-1c0-1.6569-1.3431-3-3-3H9c-1.6569 0-3 1.3431-3 3v1H5c-.5523 0-1-.4477-1-1V6c0-.5523.4477-1 1-1h14c.5523 0 1 .4477 1 1v6c0 .5523-.4477 1-1 1zm1-6c0 .5523-.4477 1-1 1s-1-.4477-1-1 .4477-1 1-1 1 .4477 1 1M8 13h8v-1c0-.5523-.4477-1-1-1H9c-.5523 0-1 .4477-1 1zm0 3c.5523 0 1 .4477 1 1v1c0 1.6569-1.3431 3-3 3H4c-.5523 0-1-.4477-1-1s.4477-1 1-1h2c.5523 0 1-.4477 1-1v-1c0-.5523.4477-1 1-1m8 0c.5523 0 1 .4477 1 1v1c0 .5523.4477 1 1 1h2c.5523 0 1 .4477 1 1s-.4477 1-1 1h-2c-1.6569 0-3-1.3431-3-3v-1c0-.5523.4477-1 1-1m-4 1c.5523 0 1 .4477 1 1v2c0 .5523-.4477 1-1 1s-1-.4477-1-1v-2c0-.5523.4477-1 1-1"/></svg>