<svg width="24" height="24" viewBox="0 0 24 24" fill="none" xmlns="http://www.w3.org/2000/svg">
<path d="M10.0332 3.50661C10.5743 1.49769 13.4257 1.49771 13.9668 3.50661L15.3457 8.62868C15.3491 8.64109 15.3587 8.65065 15.3711 8.65407L20.4932 10.033C22.5024 10.574 22.5024 13.4256 20.4932 13.9666L15.3711 15.3455C15.3587 15.3488 15.3491 15.3585 15.3457 15.3709L13.9668 20.4929C13.4258 22.5022 10.5742 22.5022 10.0332 20.4929L8.6543 15.3709C8.65086 15.3585 8.64129 15.3488 8.62891 15.3455L3.50684 13.9666C1.49777 13.4255 1.49767 10.574 3.50684 10.033L8.62891 8.65407C8.64138 8.65069 8.65092 8.64115 8.6543 8.62868L10.0332 3.50661Z" fill="black"/>
<path d="M19.1094 2.20583C19.1897 1.90897 19.6112 1.90889 19.6914 2.20583L20.0928 3.69606C20.1208 3.7996 20.2011 3.881 20.3047 3.90895L21.7949 4.30934C22.0921 4.3895 22.0919 4.81108 21.7949 4.89138L20.3047 5.29274C20.2011 5.32073 20.1207 5.40201 20.0928 5.50563L19.6914 6.99489C19.6113 7.29229 19.1895 7.29229 19.1094 6.99489L18.708 5.50563C18.6801 5.4019 18.5989 5.32067 18.4951 5.29274L17.0059 4.89138C16.7085 4.8113 16.7085 4.38942 17.0059 4.30934L18.4951 3.90895C18.5988 3.88104 18.68 3.79972 18.708 3.69606L19.1094 2.20583Z" fill="black"/>
</svg>
