<svg xmlns="http://www.w3.org/2000/svg" width="24" height="24" fill="none" viewBox="0 0 24 24"><path fill="#000" fill-rule="evenodd" d="M19.6914 2.2058c-.0802-.297-.5017-.2968-.582 0l-.4014 1.4903a.302.302 0 0 1-.2129.2129l-1.4892.4004c-.2974.08-.2974.5019 0 .582l1.4892.4013a.302.302 0 0 1 .2129.213l.4014 1.4892c.0801.2974.5019.2974.582 0l.4014-1.4893a.301.301 0 0 1 .2119-.2129l1.4902-.4013c.297-.0803.2972-.502 0-.582l-1.4902-.4005a.301.301 0 0 1-.2119-.2128zm-5.7246 1.3008c-.5411-2.0089-3.3925-2.009-3.9336 0l-1.3789 5.122a.036.036 0 0 1-.0254.0255L3.507 10.033c-2.0092.541-2.0091 3.3925 0 3.9336l5.122 1.3789a.036.036 0 0 1 .0254.0254l1.3789 5.122c.541 2.0093 3.3926 2.0093 3.9336 0l1.3789-5.122a.036.036 0 0 1 .0254-.0254l5.1221-1.3789c2.0092-.541 2.0092-3.3926 0-3.9336l-5.1221-1.379a.036.036 0 0 1-.0254-.0253z"/></svg>