<svg width="24" height="24" viewBox="0 0 24 24" fill="none" xmlns="http://www.w3.org/2000/svg">
<path fill-rule="evenodd" clip-rule="evenodd" d="M6.39362 6.80319L4.29289 4.70247C3.90237 4.31194 3.90237 3.67878 4.29289 3.28825C4.68342 2.89773 5.31658 2.89773 5.70711 3.28825L21.2071 18.7883C21.5976 19.1788 21.5976 19.8119 21.2071 20.2025C20.8166 20.593 20.1834 20.593 19.7929 20.2025L18.5869 18.9964L3.99999 18.9963C3.44771 18.9963 3 18.5486 3 17.9963C3 17.444 3.44772 16.9963 4.00001 16.9963L5 16.9963V10.9954C5 9.42303 5.5184 7.97177 6.39362 6.80319ZM16.5869 16.9964L7 16.9964V10.9954C7 9.97628 7.30488 9.0284 7.8284 8.23797L16.5869 16.9964Z" fill="black"/>
<path d="M17 10.9954V11.804L19 13.804V10.9954C19 7.46889 16.3923 4.55148 13 4.06625V2.9954C13 2.44311 12.5523 1.99538 12 1.99536C11.4477 1.99534 11 2.44304 11 2.99532V4.06625C10.5192 4.13503 10.0541 4.25268 9.60995 4.414L11.2476 6.0516C11.493 6.01456 11.7442 5.99536 12 5.99536C14.7614 5.99536 17 8.23394 17 10.9954Z" fill="black"/>
<path d="M12.0001 21.9944C10.8365 21.9944 9.87679 21.1217 9.73975 19.9951H14.2604C14.1233 21.1217 13.1636 21.9944 12.0001 21.9944Z" fill="black"/>
</svg>
