<svg width="24" height="24" viewBox="0 0 24 24" fill="none" xmlns="http://www.w3.org/2000/svg">
<path fill-rule="evenodd" clip-rule="evenodd" d="M6.39362 6.80783L4.29289 4.70711C3.90237 4.31658 3.90237 3.68342 4.29289 3.29289C4.68342 2.90237 5.31658 2.90237 5.70711 3.29289L21.2071 18.7929C21.5976 19.1834 21.5976 19.8166 21.2071 20.2071C20.8166 20.5976 20.1834 20.5976 19.7929 20.2071L18.5869 19.0011L3.99999 19.001C3.44771 19.001 3 18.5533 3 18.001C3 17.4487 3.44772 17.001 4.00001 17.001L5 17.001V11C5 9.42767 5.5184 7.97641 6.39362 6.80783ZM16.5869 17.0011L7 17.001V11C7 9.98092 7.30488 9.03304 7.8284 8.24261L16.5869 17.0011Z" fill="black"/>
<path d="M17 11V11.8087L19 13.8087V11C19 7.47353 16.3923 4.55612 13 4.07089V3.00004C13 2.44775 12.5523 2.00002 12 2C11.4477 1.99998 11 2.44768 11 2.99996V4.07089C10.5192 4.13967 10.0541 4.25731 9.60995 4.41864L11.2476 6.05624C11.493 6.0192 11.7442 6 12 6C14.7614 6 17 8.23858 17 11Z" fill="black"/>
<path d="M12.0001 21.999C10.8365 21.999 9.87679 21.1263 9.73975 19.9998H14.2604C14.1233 21.1263 13.1636 21.999 12.0001 21.999Z" fill="black"/>
</svg>
