<svg xmlns="http://www.w3.org/2000/svg" width="24" height="24" fill="none" viewBox="0 0 24 24"><path fill="#000" fill-rule="evenodd" d="M17 10.9954v.8086l2 2v-2.8086c0-3.5265-2.6077-6.444-6-6.9292V2.9954c0-.5523-.4477-1-1-1s-1 .4476-1 1v1.0708a6.95 6.95 0 0 0-1.39.3478l1.6376 1.6376A5.04 5.04 0 0 1 12 5.9954c2.7614 0 5 2.2385 5 5M4.2929 4.7024l2.1007 2.1008C5.5184 7.9718 5 9.423 5 10.9954v6.0009H4c-.5523 0-1 .4477-1 1s.4477 1 1 1l14.5869.0001 1.206 1.2061c.3905.3905 1.0237.3905 1.4142 0s.3905-1.0237 0-1.4142l-15.5-15.5c-.3905-.3906-1.0237-.3906-1.4142 0s-.3905 1.0236 0 1.4142M7 16.9965h9.5869L7.8284 8.238C7.3049 9.0284 7 9.9763 7 10.9954zm5.0001 4.998c-1.1636 0-2.1233-.8727-2.2604-1.9993h4.5207c-.1371 1.1266-1.0968 1.9993-2.2603 1.9993"/></svg>