<svg xmlns="http://www.w3.org/2000/svg" width="24" height="24" fill="none" viewBox="0 0 24 24"><path fill="#000" fill-rule="evenodd" d="M13 2.9954c0-.5523-.4477-1-1-1s-1 .4476-1 1v1.0708c-3.3925.485-6.0005 3.4025-6.0005 6.9292v6.0003l-.9992-.0003c-.5523-.0002-1.0001.4474-1.0003.9997s.4475 1.0001.9997 1.0003l16 .0046c.5523.0002 1.0002-.4474 1.0003-.9997.0002-.5523-.4474-1.0001-.9997-1.0003l-1.0008-.0003v-6.0043c0-3.5263-2.6074-6.4436-5.9995-6.929zm-6.184.4222c.319.4508.2123 1.0749-.2385 1.394-.875.6194-1.4356 1.2555-1.818 1.9347-.3864.6861-.6184 1.465-.7725 2.41-.0889.545-.6028.9149-1.1479.826-.545-.0888-.9149-.6028-.826-1.1479.1766-1.0832.4634-2.11 1.0037-3.0694.5442-.9666 1.3181-1.8163 2.4052-2.5858.4508-.3191 1.0749-.2124 1.394.2384m10.6055 1.394c-.4507-.3191-.5575-.9432-.2384-1.394s.9432-.5575 1.394-.2384c1.087.7694 1.8611 1.619 2.4056 2.5856.5406.9595.8276 1.9862 1.0043 3.0696.0889.5451-.281 1.059-.826 1.148-.5451.0888-1.0591-.281-1.1479-.8261-.1541-.9448-.3863-1.7236-.7729-2.4098-.3826-.6792-.9435-1.3155-1.8187-1.935m-.422 6.1838v6.0037l-10-.0029v-6.0008c0-2.7615 2.2386-5 5-5s5 2.2385 5 5m-7.2602 9c.1354 1.1283 1.0959 2.0029 2.2607 2.0029s2.1254-.8746 2.2608-2.0029z"/></svg>