<svg width="24" height="24" viewBox="0 0 24 24" fill="none" xmlns="http://www.w3.org/2000/svg">
<path fill-rule="evenodd" clip-rule="evenodd" d="M12.0002 1.99536C12.5524 1.99538 13.0002 2.44311 13.0002 2.9954V4.06632C16.3922 4.55176 18.9997 7.46906 18.9997 10.9954V16.9997L20.0004 17C20.5527 17.0002 21.0003 17.448 21.0002 18.0003C21 18.5526 20.5521 19.0002 19.9999 19L3.99986 18.9954C3.44758 18.9952 2.99999 18.5474 3.00015 17.9951C3.00031 17.4428 3.44816 16.9952 4.00044 16.9954L4.99966 16.9957V10.9954C4.99966 7.46872 7.60762 4.5512 11.0002 4.06618V2.99532C11.0002 2.44304 11.4479 1.99534 12.0002 1.99536ZM16.9997 16.9991V10.9954C16.9997 8.23394 14.7611 5.99536 11.9997 5.99536C9.23824 5.99536 6.99966 8.23394 6.99966 10.9954V16.9962L16.9997 16.9991Z" fill="black"/>
<path d="M6.57767 4.81157C7.02845 4.49248 7.1352 3.86838 6.81611 3.4176C6.49703 2.96682 5.87293 2.86007 5.42215 3.17915C4.33502 3.94868 3.56113 4.79839 3.01687 5.76496C2.47659 6.72447 2.18981 7.75115 2.01318 8.83444C1.92431 9.37953 2.29415 9.89346 2.83923 9.98233C3.38432 10.0712 3.89825 9.70137 3.98712 9.15628C4.14119 8.2113 4.37321 7.43244 4.75959 6.74626C5.14199 6.06713 5.70263 5.43097 6.57767 4.81157Z" fill="black"/>
<path d="M17.4217 4.81157C16.9709 4.49248 16.8641 3.86838 17.1832 3.4176C17.5023 2.96682 18.1264 2.86007 18.5772 3.17915C19.6642 3.94863 20.4383 4.79826 20.9828 5.76477C21.5234 6.72426 21.8105 7.75096 21.9871 8.83444C22.076 9.37953 21.7062 9.89346 21.1611 9.98233C20.616 10.0712 20.1021 9.70137 20.0132 9.15628C19.8591 8.21148 19.6269 7.43265 19.2403 6.74645C18.8577 6.06726 18.2968 5.43103 17.4217 4.81157Z" fill="black"/>
<path d="M12.0002 21.9983C10.8354 21.9983 9.87482 21.1237 9.73941 19.9954H14.2609C14.1255 21.1237 13.165 21.9983 12.0002 21.9983Z" fill="black"/>
</svg>
