<svg xmlns="http://www.w3.org/2000/svg" width="24" height="24" fill="none" viewBox="0 0 24 24"><path fill="#e62e04" d="M4.4063 3A1.4063 1.4063 0 0 0 3 4.4063v15.1875A1.406 1.406 0 0 0 4.4063 21h15.1875A1.4063 1.4063 0 0 0 21 19.5938V4.4062A1.4064 1.4064 0 0 0 19.5938 3z"/><path fill="#b32100" d="M7.95 9.0334c.069.2812.0301.585.098.871.2362-.173.3937-.4585.3613-.7557-.0047-.5322-.6033-.9493-1.1042-.7701-.315.09-.5478.3727-.6007.6919-.063.3656.1566.7397.4832.9067-.0324-.315-.108-.6469-.0234-.9551.1294-.3358.6663-.329.7858.0113m9.3201.3813c.1148-.4129-.135-.8915-.5445-1.0237-.3937-.1547-.8811.0422-1.0547.4258-.1935.3552-.0765.8606.2773 1.0687.0698-.2851.0183-.5906.1013-.8676.1322-.331.6623-.3215.783.014.0768.2999.0073.6149-.0217.9175.2402-.0743.3904-.3046.4593-.5347"/><path fill="#fff" d="M16.0495 9.0179c-.0833.2798-.0318.5827-.1013.8676-.2058 1.2375-1.0339 2.3432-2.1558 2.8975a3.993 3.993 0 0 1-3.5994-.0045c-1.1115-.5529-1.9339-1.6498-2.145-2.8741-.0676-.2863-.0293-.587-.098-.871-.1192-.3376-.6564-.3474-.7858-.0113-.0843.311-.0084.6404.0234.9551.2362 1.53 1.2602 2.9043 2.6474 3.5863a4.876 4.876 0 0 0 4.116.0973c1.5-.6477 2.6213-2.0942 2.8612-3.7125.029-.3026.0984-.6179.0214-.9174-.121-.3355-.6508-.3448-.7833-.014z"/><path fill="#f90" d="M4.4063 3A1.4063 1.4063 0 0 0 3 4.4063V7.078a1.406 1.406 0 0 1 1.4063-1.406h15.1875A1.406 1.406 0 0 1 21 7.078V4.4063A1.4064 1.4064 0 0 0 19.5938 3z"/></svg>