<svg xmlns="http://www.w3.org/2000/svg" width="24" height="24" fill="none" viewBox="0 0 24 24"><path fill="#000" d="M1.5382 17.382q.0954-.156.3054-.0195Q6.6163 20.19 12.2291 20.19q3.7418 0 7.3882-1.4235.0954-.039.2768-.117t.2577-.117q.2864-.117.4487.117t-.105.429q-.3437.2535-.8782.585-1.6419.9945-3.6655 1.5405T12 21.75q-2.9782 0-5.6318-1.0628-2.6537-1.0627-4.7536-2.9932-.1146-.0975-.1146-.195 0-.0585.0382-.117m5.7464-5.5575q0-1.3455.649-2.301.6492-.9555 1.7755-1.443 1.0309-.4485 2.5391-.6435.5154-.0585 1.68-.156v-.3315q0-1.248-.2673-1.677-.401-.585-1.26-.585h-.1527q-.63.0585-1.0882.4095t-.5918.975q-.0764.39-.3818.4485l-2.1955-.273q-.3245-.078-.3245-.351 0-.0585.019-.1365.3246-1.7355 1.5942-2.574 1.2694-.8385 2.9686-.936h.4773q2.1764 0 3.3981 1.1505a3.7 3.7 0 0 1 .3532.4192q.1623.2244.2577.3998.0955.1755.1719.507t.1145.4582.0573.546q.019.4193.0191.4973v4.719q0 .507.1432.9262t.2768.6045.4391.5948q.1145.1755.1145.312 0 .156-.1527.273-1.5846 1.404-1.7182 1.521-.2291.1755-.5536.039-.2673-.234-.4678-.4485a16 16 0 0 1-.2863-.312q-.086-.0975-.2768-.3803-.191-.2827-.2673-.3802-1.0691 1.1895-2.1 1.482-.6491.195-1.6037.195-1.47 0-2.415-.9263t-.945-2.6227m3.2836-.39q0 .7605.3723 1.2187.3722.4583 1.0022.4583.0573 0 .1623-.0195t.1432-.0195q.8018-.2145 1.2409-1.053.21-.3705.315-.8093.105-.4387.1145-.7117t.0096-.897V9.114q-1.1073 0-1.68.156-1.68.4875-1.68 2.1645m8.0182 6.279q.0381-.078.1145-.156.4773-.3315.9164-.4485.7254-.195 1.4127-.2145.191-.0195.3627.0195.8592.078 1.0309.2925.0764.117.0764.351v.1365q0 .6825-.3627 1.6087t-1.0118 1.4918q-.0955.078-.1719.078a.166.166 0 0 1-.0763-.0195q-.1146-.0585-.0573-.2145.7064-1.6965.7064-2.3595 0-.2145-.0764-.312-.1909-.234-1.0691-.234-.3246 0-.7636.039-.4773.0585-.8782.117-.1146 0-.1527-.039-.0383-.039-.0191-.078 0-.0195.0191-.0585"/></svg>