<svg xmlns="http://www.w3.org/2000/svg" width="24" height="24" fill="none" viewBox="0 0 24 24"><path fill="#000" fill-rule="evenodd" d="M19.2304 8.9913C20.7796 8.8736 22 7.5793 22 6c0-1.6569-1.3431-3-3-3s-3 1.3431-3 3c0 1.0236.5126 1.9274 1.2951 2.4688l-1.2149 3.5323a2.986 2.986 0 0 0-1.7812.5274l-3.4639-2.545A3 3 0 0 0 11 9c0-1.6569-1.3431-3-3-3S5 7.3431 5 9c0 .9645.4552 1.8227 1.1624 2.3715l-1.3586 3.6348C3.2384 15.1074 2 16.4091 2 18c0 1.6569 1.3432 3 3 3s3-1.3431 3-3c0-1.0104-.4995-1.9042-1.265-2.4478l1.3279-3.5528a2.985 2.985 0 0 0 1.5227-.4522l3.5376 2.5992A3 3 0 0 0 13 15c0 1.6569 1.3431 3 3 3s3-1.3431 3-3c0-.9132-.408-1.731-1.0516-2.2813zM19 7c.5523 0 1-.4477 1-1s-.4477-1-1-1-1 .4477-1 1 .4477 1 1 1M5 17c-.5523 0-1 .4477-1 1s.4477 1 1 1 1-.4477 1-1-.4477-1-1-1m2-8c0-.5523.4477-1 1-1s1 .4477 1 1-.4477 1-1 1-1-.4477-1-1m9 7c.5523 0 1-.4477 1-1s-.4477-1-1-1-1 .4477-1 1 .4477 1 1 1"/></svg>