<svg width="24" height="24" viewBox="0 0 24 24" fill="none" xmlns="http://www.w3.org/2000/svg">
<path d="M20.426 4.90481C20.9258 4.66965 21.1402 4.07391 20.9051 3.5742C20.6699 3.07448 20.0742 2.86001 19.5744 3.09517L2.58061 11.0923C2.51734 11.1215 2.457 11.1573 2.40074 11.1994C2.31731 11.2617 2.24562 11.3357 2.1869 11.4179C2.14514 11.4764 2.10994 11.539 2.08174 11.6045C2.02624 11.7332 1.99991 11.8676 2 12C1.99991 12.1324 2.02624 12.2668 2.08174 12.3955C2.11275 12.4676 2.15224 12.5361 2.19961 12.5995C2.26331 12.6847 2.33916 12.7577 2.42352 12.8171C2.4732 12.8521 2.52583 12.8824 2.58067 12.9077L19.5744 20.9048C20.0742 21.14 20.6699 20.9255 20.9051 20.4258C21.1402 19.9261 20.9258 19.3303 20.426 19.0952L5.34877 12L20.426 4.90481Z" fill="black"/>
</svg>
