<svg xmlns="http://www.w3.org/2000/svg" width="24" height="24" fill="none" viewBox="0 0 24 24"><path fill="#000" fill-rule="evenodd" d="M8 2.5c.5523 0 1 .4477 1 1h6c0-.5523.4477-1 1-1s1 .4477 1 1h1c1.6569 0 3 1.3431 3 3v8c0 1.6569-1.3431 3-3 3h-1v3c0 .5523-.4477 1-1 1s-1-.4477-1-1v-3H9v3c0 .5523-.4477 1-1 1s-1-.4477-1-1v-3H6c-1.6569 0-3-1.3431-3-3v-8c0-1.6569 1.3431-3 3-3h1c0-.5523.4477-1 1-1m-3 4c0-.5523.4477-1 1-1h12c.5523 0 1 .4477 1 1v8c0 .5523-.4477 1-1 1H6c-.5523 0-1-.4477-1-1zm4.2929 1.2929c.3905-.3905 1.0237-.3905 1.4142 0L12 9.0858l1.2929-1.2929c.3905-.3905 1.0237-.3905 1.4142 0s.3905 1.0237 0 1.4142L13.4142 10.5l1.2563 1.2563c.3905.3905.3905 1.0237 0 1.4142s-1.0237.3905-1.4142 0L12 11.9142l-1.2929 1.2929c-.3905.3905-1.0237.3905-1.4142 0s-.3905-1.0237 0-1.4142L10.5858 10.5 9.2929 9.2071c-.3905-.3905-.3905-1.0237 0-1.4142"/></svg>