<svg width="24" height="24" viewBox="0 0 24 24" fill="none" xmlns="http://www.w3.org/2000/svg">
<path d="M10.7071 7.79289C10.3166 7.40237 9.68342 7.40237 9.29289 7.79289C8.90237 8.18342 8.90237 8.81658 9.29289 9.20711L10.5858 10.5L9.29289 11.7929C8.90237 12.1834 8.90237 12.8166 9.29289 13.2071C9.68342 13.5976 10.3166 13.5976 10.7071 13.2071L12 11.9142L13.2563 13.1705C13.6468 13.561 14.28 13.561 14.6705 13.1705C15.061 12.78 15.061 12.1468 14.6705 11.7563L13.4142 10.5L14.7071 9.20711C15.0976 8.81658 15.0976 8.18342 14.7071 7.79289C14.3166 7.40237 13.6834 7.40237 13.2929 7.79289L12 9.08579L10.7071 7.79289Z" fill="black"/>
<path fill-rule="evenodd" clip-rule="evenodd" d="M9 3.5C9 2.94772 8.55228 2.5 8 2.5C7.44772 2.5 7 2.94772 7 3.5H6C4.34315 3.5 3 4.84315 3 6.5V14.5C3 16.1569 4.34315 17.5 6 17.5H7V20.5C7 21.0523 7.44772 21.5 8 21.5C8.55228 21.5 9 21.0523 9 20.5V17.5H15V20.5C15 21.0523 15.4477 21.5 16 21.5C16.5523 21.5 17 21.0523 17 20.5V17.5H18C19.6569 17.5 21 16.1569 21 14.5V6.5C21 4.84315 19.6569 3.5 18 3.5H17C17 2.94772 16.5523 2.5 16 2.5C15.4477 2.5 15 2.94772 15 3.5H9ZM6 5.5C5.44772 5.5 5 5.94772 5 6.5V14.5C5 15.0523 5.44772 15.5 6 15.5H18C18.5523 15.5 19 15.0523 19 14.5V6.5C19 5.94772 18.5523 5.5 18 5.5H6Z" fill="black"/>
</svg>
