<svg xmlns="http://www.w3.org/2000/svg" width="24" height="24" fill="none" viewBox="0 0 24 24"><path fill="#000" fill-rule="evenodd" d="M12 2c1.7865 0 3.4361.8403 4.4756 2.3623C18.3819 4.7446 20 6.416 20 8.625c0 1.8819-1.2096 3.4521-2.8809 4.0801l1.5879 1.5879A1 1 0 0 1 19 15v2.0498c1.1411.2316 2 1.2407 2 2.4502 0 1.3807-1.1193 2.5-2.5 2.5S16 20.8807 16 19.5c0-.8172.3936-1.5409 1-1.9971v-2.0888L14.5859 13H13v1.209c.8828.3858 1.5 1.266 1.5 2.291 0 1.3807-1.1193 2.5-2.5 2.5s-2.5-1.1193-2.5-2.5c0-1.025.6172-1.9052 1.5-2.291V13H9.414L7 15.4141v2.0888c.6064.4562 1 1.1799 1 1.9971C8 20.8807 6.8807 22 5.5 22S3 20.8807 3 19.5c0-1.2095.8589-2.2186 2-2.4502V15a1 1 0 0 1 .293-.707l1.4638-1.4649C5.2578 12.3766 4 11.0687 4 9.375c0-1.0756.3468-2.0452 1.0156-2.7705.5145-.5579 1.1828-.9304 1.9356-1.1074C7.7763 3.286 9.8254 2 12 2M5.5 19a.5.5 0 1 0 0 1 .5.5 0 0 0 0-1m13 0a.5.5 0 1 0 .0001 1.0001A.5.5 0 0 0 18.5 19M12 16a.5.5 0 1 0 .0001 1.0001A.5.5 0 0 0 12 16m0-12c-1.5083 0-2.8986.959-3.3066 2.626l-.1729.706-.7256.0537c-.5904.0434-1.0231.2657-1.3086.5752C6.201 8.2704 6 8.735 6 9.375 6 10.1634 6.8266 11 7.8936 11H15.5c1.4153 0 2.5-1.0973 2.5-2.375 0-1.2755-1.028-2.2562-2.1953-2.3408l-.5371-.039-.2627-.4698C14.3568 4.6189 13.2389 4 12 4"/></svg>