<svg width="24" height="24" viewBox="0 0 24 24" fill="none" xmlns="http://www.w3.org/2000/svg">
<path d="M17.7727 10.255C18.1633 9.86444 18.1633 9.23128 17.7727 8.84075C17.3822 8.45023 16.7491 8.45022 16.3585 8.84075L13.0155 12.1837L11.5471 10.7154C11.1566 10.3249 10.5235 10.3249 10.1329 10.7154L6.25456 14.5938C5.86404 14.9844 5.86404 15.6175 6.25457 16.0081C6.64509 16.3986 7.27826 16.3986 7.66878 16.0081L10.8401 12.8367L12.3084 14.3051C12.699 14.6956 13.3321 14.6956 13.7226 14.305L17.7727 10.255Z" fill="black"/>
<path fill-rule="evenodd" clip-rule="evenodd" d="M5.01367 4C3.35682 4 2.01367 5.34315 2.01367 7V17C2.01367 18.6569 3.35682 20 5.01367 20H19.0137C20.6705 20 22.0137 18.6569 22.0137 17V7C22.0137 5.34315 20.6705 4 19.0137 4H5.01367ZM4.01367 7L4.01368 6.99615H20.0137L20.0137 7V17C20.0137 17.5523 19.566 18 19.0137 18H5.01367C4.46139 18 4.01367 17.5523 4.01367 17V7Z" fill="black"/>
</svg>
