<svg xmlns="http://www.w3.org/2000/svg" width="24" height="24" fill="none" viewBox="0 0 24 24"><path fill="#000" fill-rule="evenodd" d="M2.0137 7c0-1.6569 1.3431-3 3-3h14c1.6568 0 3 1.3431 3 3v10c0 1.6569-1.3432 3-3 3h-14c-1.6569 0-3-1.3431-3-3zm2-.0038V17c0 .5523.4477 1 1 1h14c.5523 0 1-.4477 1-1V6.9962zm13.7591 1.8446c.3905.3905.3905 1.0236-.0001 1.4142l-4.0501 4.0501c-.3905.3905-1.0236.3905-1.4142 0l-1.4683-1.4684-3.1713 3.1714c-.3906.3905-1.0237.3905-1.4142 0-.3906-.3906-.3906-1.0237 0-1.4143l3.8783-3.8784c.3906-.3905 1.0237-.3905 1.4143 0l1.4683 1.4683 3.343-3.343c.3906-.3905 1.0237-.3905 1.4143 0"/></svg>