<svg xmlns="http://www.w3.org/2000/svg" width="24" height="24" fill="none" viewBox="0 0 24 24"><path fill="#000" fill-rule="evenodd" d="M5.0137 4c-1.6569 0-3 1.3431-3 3v10c0 1.6569 1.3431 3 3 3h14c1.6568 0 3-1.3431 3-3V7c0-1.6569-1.3432-3-3-3zm-1 3v-.0038h16V17c0 .5523-.4477 1-1 1h-14c-.5523 0-1-.4477-1-1zm6.8962 2.8906c-.3905-.3905-1.0237-.3905-1.4143 0s-.3905 1.0237 0 1.4142l1.293 1.2929-1.293 1.2929c-.3905.3905-.3905 1.0237 0 1.4142s1.0238.3905 1.4143 0l1.2929-1.2929 1.2562 1.2563c.3906.3905 1.0237.3905 1.4143 0s.3905-1.0237 0-1.4142l-1.2563-1.2563 1.2929-1.2929c.3905-.3905.3905-1.0237 0-1.4142s-1.0237-.3905-1.4142 0l-1.2929 1.2929z"/></svg>