<svg xmlns="http://www.w3.org/2000/svg" width="24" height="24" fill="none" viewBox="0 0 24 24"><path fill="#000" fill-rule="evenodd" d="M5.0137 4c-1.6569 0-3 1.3431-3 3v10c0 1.6569 1.3431 3 3 3H11v-2H5.0137c-.5523 0-1-.4477-1-1V6.9962h16v2.4252a5.02 5.02 0 0 1 2 1.5933V7c0-1.6569-1.3432-3-3-3zm12.9877 7c-1.656 0-3.0013 1.3423-3.0013 3v1.1707c-1.1652.4118-2 1.5231-2 2.8293v2.0162c0 1.6568 1.3432 3 3 3h4.0231c1.6569 0 3-1.3432 3-3V18c0-1.3139-.8446-2.4305-2.0205-2.8365V14c0-1.6577-1.3453-3-3.0013-3m1.0013 4v-1c0-.5515-.4482-1-1.0013-1s-1.0013.4485-1.0013 1v1zm-4.0026 3c0-.5523.4477-1 1-1h4.0231c.5523 0 1 .4477 1 1v2.0162c0 .5523-.4477 1-1 1h-4.0231c-.5523 0-1-.4477-1-1z"/></svg>