<svg xmlns="http://www.w3.org/2000/svg" width="24" height="24" fill="none" viewBox="0 0 24 24"><path fill="#000" d="M12.828 3.6534C14.1176 2.008 15.9103 2 15.9103 2s.2667 1.547-1.0144 3.0372C13.528 6.6284 11.9733 6.368 11.9733 6.368s-.292-1.2514.8547-2.7146m-.6907 3.7983c.6634 0 1.8946-.8829 3.4972-.8829 2.7587 0 3.8439 1.9004 3.8439 1.9004s-2.1225 1.0505-2.1225 3.5997c0 2.8758 2.6441 3.8668 2.6441 3.8668s-1.8483 5.0364-4.3449 5.0364c-1.1467 0-2.0382-.7481-3.2464-.7481-1.2312 0-2.453.776-3.2488.776C6.8801 21.0001 4 16.2225 4 12.3822c0-3.7784 2.4378-5.7604 4.7244-5.7604 1.4865 0 2.6401.8299 3.4129.8299"/></svg>