<svg width="24" height="24" viewBox="0 0 24 24" fill="none" xmlns="http://www.w3.org/2000/svg">
<path d="M2.01367 7C2.01367 5.34315 3.35682 4 5.01367 4H19.0137C20.6705 4 22.0137 5.34315 22.0137 7V11.0147C21.4991 10.3247 20.8107 9.77211 20.0137 9.42143V7L20.0137 6.99615H4.01368L4.01367 7V17C4.01367 17.5523 4.46139 18 5.01367 18H11.0001V20H5.01367C3.35682 20 2.01367 18.6569 2.01367 17V7Z" fill="black"/>
<path fill-rule="evenodd" clip-rule="evenodd" d="M15.0001 14C15.0001 12.3423 16.3454 11 18.0014 11C19.6574 11 21.0027 12.3423 21.0027 14V15.1635C22.1786 15.5695 23.0232 16.6861 23.0232 18V20.0162C23.0232 21.673 21.68 23.0162 20.0232 23.0162H16.0001C14.3433 23.0162 13.0001 21.673 13.0001 20.0162V18C13.0001 16.6938 13.8349 15.5825 15.0001 15.1707V14ZM19.0027 14V15H17.0001V14C17.0001 13.4485 17.4483 13 18.0014 13C18.5545 13 19.0027 13.4485 19.0027 14ZM16.0001 17C15.4478 17 15.0001 17.4477 15.0001 18V20.0162C15.0001 20.5685 15.4478 21.0162 16.0001 21.0162H20.0232C20.5755 21.0162 21.0232 20.5685 21.0232 20.0162V18C21.0232 17.4477 20.5755 17 20.0232 17H16.0001Z" fill="black"/>
</svg>
