<svg xmlns="http://www.w3.org/2000/svg" width="24" height="24" fill="none" viewBox="0 0 24 24"><path fill="#000" fill-rule="evenodd" d="M3 5.5C3 4.1193 4.1193 3 5.5 3h3C9.8807 3 11 4.1193 11 5.5v3C11 9.8807 9.8807 11 8.5 11h-3C4.1193 11 3 9.8807 3 8.5zM15.5 3C14.1193 3 13 4.1193 13 5.5v3c0 1.3807 1.1193 2.5 2.5 2.5h3c1.3807 0 2.5-1.1193 2.5-2.5v-3C21 4.1193 19.8807 3 18.5 3zm-10 10C4.1193 13 3 14.1193 3 15.5v3C3 19.8807 4.1193 21 5.5 21h3c1.3807 0 2.5-1.1193 2.5-2.5v-3c0-1.3807-1.1193-2.5-2.5-2.5zm10 0c-1.3807 0-2.5 1.1193-2.5 2.5v3c0 1.3807 1.1193 2.5 2.5 2.5h3c1.3807 0 2.5-1.1193 2.5-2.5v-3c0-1.3807-1.1193-2.5-2.5-2.5z"/></svg>