<svg xmlns="http://www.w3.org/2000/svg" width="24" height="24" fill="none" viewBox="0 0 24 24"><path fill="#000" d="M22 18.465c1.196-.692 2-1.984 2-3.465v-5c0-1.481-.804-2.773-2-3.465zM2 6.535C.804 7.227 0 8.519 0 10v5c0 1.481.804 2.773 2 3.465z"/><path fill="#000" fill-rule="evenodd" d="M4 8c0-2.2091 1.7909-4 4-4h8c2.2091 0 4 1.7909 4 4v8c0 2.2091-1.7909 4-4 4H8c-2.2091 0-4-1.7909-4-4zm4-2c-1.1046 0-2 .8954-2 2v8c0 1.1046.8954 2 2 2h8c1.1046 0 2-.8954 2-2V8c0-1.1046-.8954-2-2-2z" clip-rule="evenodd"/></svg>