<svg xmlns="http://www.w3.org/2000/svg" width="24" height="24" fill="none" viewBox="0 0 24 24"><path fill="#000" fill-rule="evenodd" d="M5.0137 4c-1.6569 0-3 1.3431-3 3v10c0 1.6569 1.3431 3 3 3h4.0062v-2H5.0137c-.5523 0-1-.4477-1-1V6.9962h16V17c0 .5523-.4477 1-1 1h-3.9938v2h3.9938c1.6568 0 3-1.3431 3-3V7c0-1.6569-1.3432-3-3-3zm7.7768 7.3456a.998.998 0 0 0-.7706-.3626h-.0068a.997.997 0 0 0-.7065.2929L8.2 14.3825c-.3905.3905-.3905 1.0236 0 1.4142s1.0237.3905 1.4142 0L11.02 14.391V20c0 .5523.4477 1 1 1s1-.4477 1-1v-5.5966l1.3932 1.3933c.3906.3905 1.0237.3905 1.4143 0s.3905-1.0237 0-1.4142z"/></svg>