<svg xmlns="http://www.w3.org/2000/svg" width="24" height="24" fill="none" viewBox="0 0 24 24"><path fill="#000" fill-rule="evenodd" d="M5 2C3.3431 2 2 3.3431 2 5v2.5c0 .5523.4477 1 1 1s1-.4477 1-1V5c0-.5523.4477-1 1-1h2.5c.5523 0 1-.4477 1-1s-.4477-1-1-1zm11.5 0c-.5523 0-1 .4477-1 1s.4477 1 1 1H19c.5523 0 1 .4477 1 1v2.5c0 .5523.4477 1 1 1s1-.4477 1-1V5c0-1.6569-1.3431-3-3-3zM10 3c0-.5523.4477-1 1-1h2c.5523 0 1 .4477 1 1s-.4477 1-1 1h-2c-.5523 0-1-.4477-1-1M8 7c-.5523 0-1 .4477-1 1v2c0 .5523.4477 1 1 1h2c.5523 0 1-.4477 1-1V8c0-.5523-.4477-1-1-1zm6 0c-.5523 0-1 .4477-1 1v2c0 .5523.4477 1 1 1h2c.5523 0 1-.4477 1-1V8c0-.5523-.4477-1-1-1zM2 13c0 .5523.4477 1 1 1s1-.4477 1-1v-2c0-.5523-.4477-1-1-1s-1 .4477-1 1zm19-3c.5523 0 1 .4477 1 1v2c0 .5523-.4477 1-1 1s-1-.4477-1-1v-2c0-.5523.4477-1 1-1M7 14c0-.5523.4477-1 1-1h2c.5523 0 1 .4477 1 1v2c0 .5523-.4477 1-1 1H8c-.5523 0-1-.4477-1-1zm6 0c0-.5523.4477-1 1-1h2c.5523 0 1 .4477 1 1v2c0 .5523-.4477 1-1 1h-2c-.5523 0-1-.4477-1-1zm-9 2.5c0-.5523-.4477-1-1-1s-1 .4477-1 1V19c0 1.6569 1.3431 3 3 3h2.5c.5523 0 1-.4477 1-1s-.4477-1-1-1H5c-.5523 0-1-.4477-1-1zm18 0c0-.5523-.4477-1-1-1s-1 .4477-1 1V19c0 .5523-.4477 1-1 1h-2.5c-.5523 0-1 .4477-1 1s.4477 1 1 1H19c1.6569 0 3-1.3431 3-3zM13 22c.5523 0 1-.4477 1-1s-.4477-1-1-1h-2c-.5523 0-1 .4477-1 1s.4477 1 1 1z"/></svg>