<svg xmlns="http://www.w3.org/2000/svg" width="24" height="24" fill="none" viewBox="0 0 24 24"><path fill="#000" fill-rule="evenodd" d="M3 4c0-.5523.4477-1 1-1h2c.5523 0 1 .4477 1 1v2c0 .5523-.4477 1-1 1H4c-.5523 0-1-.4477-1-1zm7 0c0-.5523.4477-1 1-1h2c.5523 0 1 .4477 1 1v2c0 .5523-.4477 1-1 1h-2c-.5523 0-1-.4477-1-1zm8-1c-.5523 0-1 .4477-1 1v2c0 .5523.4477 1 1 1h2c.5523 0 1-.4477 1-1V4c0-.5523-.4477-1-1-1zM4 10c-.5523 0-1 .4477-1 1v2c0 .5523.4477 1 1 1h2c.5523 0 1-.4477 1-1v-2c0-.5523-.4477-1-1-1zm6 1c0-.5523.4477-1 1-1h2c.5523 0 1 .4477 1 1v2c0 .5523-.4477 1-1 1h-2c-.5523 0-1-.4477-1-1zm7 0c0-.5523.4477-1 1-1h2c.5523 0 1 .4477 1 1v2c0 .5523-.4477 1-1 1h-2c-.5523 0-1-.4477-1-1zM4 17c-.5523 0-1 .4477-1 1v2c0 .5523.4477 1 1 1h2c.5523 0 1-.4477 1-1v-2c0-.5523-.4477-1-1-1zm6 1c0-.5523.4477-1 1-1h2c.5523 0 1 .4477 1 1v2c0 .5523-.4477 1-1 1h-2c-.5523 0-1-.4477-1-1zm7 0c0-.5523.4477-1 1-1h2c.5523 0 1 .4477 1 1v2c0 .5523-.4477 1-1 1h-2c-.5523 0-1-.4477-1-1z"/></svg>