<svg width="24" height="24" viewBox="0 0 24 24" fill="none" xmlns="http://www.w3.org/2000/svg">
<path d="M9.41335 3.70711C9.80388 3.31658 9.80388 2.68342 9.41335 2.29289C9.02283 1.90237 8.38966 1.90237 7.99914 2.29289L3.29289 6.99914C2.90237 7.38966 2.90237 8.02283 3.29289 8.41335L7.99914 13.1196C8.38966 13.5101 9.02283 13.5101 9.41335 13.1196C9.80388 12.7291 9.80388 12.0959 9.41335 11.7054L6.41414 8.70618H12.0315C15.2765 8.70618 17.9071 11.3368 17.9071 14.5818V21C17.9071 21.5523 18.3548 22 18.9071 22C19.4594 22 19.9071 21.5523 19.9071 21V14.5818C19.9071 10.2322 16.381 6.70618 12.0315 6.70618H6.41428L9.41335 3.70711Z" fill="black"/>
</svg>
