<svg xmlns="http://www.w3.org/2000/svg" width="24" height="24" fill="none" viewBox="0 0 24 24"><path fill="#000" fill-rule="evenodd" d="M11.3754 5.0108c.3905.3905.3905 1.0237 0 1.4142l-5.575 5.5751 5.575 5.5749c.3905.3906.3905 1.0237 0 1.4142-.3905.3906-1.0237.3906-1.4142 0l-6.282-6.282c-.3906-.3905-.3906-1.0237 0-1.4142l6.282-6.2822c.3905-.3905 1.0237-.3905 1.4142 0m8.9456 0c.3905.3905.3905 1.0237 0 1.4142l-5.575 5.5751 5.575 5.5749c.3905.3906.3905 1.0237 0 1.4142-.3905.3906-1.0237.3906-1.4143 0l-6.282-6.282c-.3906-.3905-.3906-1.0237 0-1.4142l6.282-6.2822c.3906-.3905 1.0237-.3905 1.4143 0"/></svg>