<svg xmlns="http://www.w3.org/2000/svg" width="24" height="24" fill="none" viewBox="0 0 24 24"><path d="M0 24h24V0H0z"/><path fill="#000" fill-rule="evenodd" d="M12 1.9999c5.5229 0 10.0001 4.4772 10.0001 10.0001S17.5229 22 12 22 2 17.5228 2 12 6.4772 1.9999 12 1.9999m0 2c4.4183 0 8.0001 3.5818 8.0001 8.0001S16.4183 20 12 20s-8-3.5817-8-8 3.5817-8.0001 8-8.0001m4.7349 10.4943c-.3961.3849-1.0292.3758-1.4141-.0203l-3.3164-3.4126-3.326 3.4136c-.3854.3956-1.0186.4038-1.4141.0184-.3956-.3855-.4038-1.0186-.0184-1.4141l4.0433-4.1497a1 1 0 0 1 1.4333.001l4.0326 4.1496c.3849.396.3759 1.0292-.0202 1.414"/></svg>