<svg width="24" height="24" viewBox="0 0 24 24" fill="none" xmlns="http://www.w3.org/2000/svg">
<path d="M15.3208 14.4739C15.7057 14.87 16.3388 14.8791 16.7349 14.4942C17.131 14.1093 17.14 13.4762 16.7551 13.0801L12.7225 8.93047C12.5344 8.73688 12.276 8.62757 12.006 8.62739C11.7361 8.62722 11.4775 8.73618 11.2892 8.92953L7.24592 13.0792C6.8605 13.4747 6.86872 14.1078 7.26428 14.4933C7.65985 14.8787 8.29296 14.8705 8.67838 14.4749L12.0044 11.0613L15.3208 14.4739Z" fill="black"/>
<path fill-rule="evenodd" clip-rule="evenodd" d="M22.0001 12C22.0001 6.47711 17.5229 1.99994 12 1.99994C6.47717 1.99994 2 6.47711 2 12C2 17.5228 6.47717 22 12 22C17.5229 22 22.0001 17.5228 22.0001 12ZM20.0001 12C20.0001 7.58168 16.4183 3.99994 12 3.99994C7.58174 3.99994 4 7.58168 4 12C4 16.4183 7.58174 20 12 20C16.4183 20 20.0001 16.4183 20.0001 12Z" fill="black"/>
</svg>
