<svg xmlns="http://www.w3.org/2000/svg" width="24" height="24" fill="none" viewBox="0 0 24 24"><path fill="#000" d="M11.2934 3.0924c.3906-.3906.3906-1.0237 0-1.4142-.3905-.3906-1.0236-.3906-1.4142 0l-4.6041 4.604c-.3906.3905-.3906 1.0237 0 1.4142l4.6041 4.6042c.3906.3905 1.0237.3905 1.4142 0 .3906-.3905.3906-1.0237 0-1.4142L8.407 8h5.7085C17.3987 8 20 10.5762 20 13.716 20 16.7682 17.4745 19 14.0972 19H4c-.5523 0-1 .4477-1 1s.4477 1 1 1h10.0972C18.3444 21 22 18.0936 22 13.716 22 9.426 18.457 6 14.1155 6H8.3858z"/></svg>