<svg width="24" height="24" viewBox="0 0 24 24" fill="none" xmlns="http://www.w3.org/2000/svg">
<path d="M12.6247 6.42488C12.2342 6.03435 12.2342 5.40118 12.6247 5.01066C13.0152 4.62014 13.6484 4.62014 14.0389 5.01067L20.321 11.2928C20.7115 11.6834 20.7115 12.3165 20.321 12.707L14.0389 18.9891C13.6484 19.3796 13.0152 19.3796 12.6247 18.9891C12.2342 18.5986 12.2342 17.9654 12.6247 17.5749L18.1997 11.9999L12.6247 6.42488Z" fill="black"/>
<path d="M3.67912 6.42488C3.2886 6.03435 3.2886 5.40118 3.67913 5.01066C4.06966 4.62014 4.70282 4.62014 5.09334 5.01067L11.3754 11.2928C11.7659 11.6834 11.7659 12.3165 11.3754 12.707L5.09334 18.9891C4.70281 19.3796 4.06965 19.3796 3.67912 18.9891C3.2886 18.5986 3.2886 17.9654 3.67912 17.5749L9.2541 11.9999L3.67912 6.42488Z" fill="black"/>
</svg>
