<svg width="24" height="24" viewBox="0 0 24 24" fill="none" xmlns="http://www.w3.org/2000/svg">
<path d="M16.2849 8.24485C16.7108 8.59643 16.7711 9.22672 16.4195 9.65264C16.0679 10.0786 15.4376 10.1388 15.0117 9.78722L11.9961 7.29788L8.98944 9.7864C8.56398 10.1385 7.93361 10.0791 7.58147 9.65364C7.22933 9.22818 7.28877 8.59781 7.71423 8.24567L11.3577 5.23012C11.7272 4.92425 12.2619 4.92391 12.6319 5.2293L16.2849 8.24485Z" fill="black"/>
<path d="M16.2849 15.7765C16.7108 15.4249 16.7711 14.7946 16.4195 14.3687C16.0679 13.9428 15.4376 13.8825 15.0117 14.2341L11.9961 16.7234L8.98944 14.2349C8.56398 13.8828 7.93361 13.9422 7.58147 14.3677C7.22933 14.7931 7.28877 15.4235 7.71423 15.7757L11.3577 18.7912C11.7272 19.0971 12.2619 19.0974 12.6319 18.792L16.2849 15.7765Z" fill="black"/>
</svg>
