<svg xmlns="http://www.w3.org/2000/svg" width="24" height="24" fill="none" viewBox="0 0 24 24"><path fill="#000" d="M11.2929 2.2929c.3905-.3905 1.0237-.3905 1.4142 0l4 4c.3905.3905.3905 1.0237 0 1.4142s-1.0237.3905-1.4142 0L13 5.4142v13.1715l2.2929-2.2928c.3905-.3906 1.0237-.3906 1.4142 0s.3905 1.0237 0 1.4142l-4 4c-.3905.3905-1.0237.3905-1.4142 0l-4-4c-.3905-.3905-.3905-1.0237 0-1.4142.3905-.3906 1.0237-.3906 1.4142 0L11 18.5857V5.4142L8.7071 7.707c-.3905.3905-1.0237.3905-1.4142 0s-.3905-1.0237 0-1.4142z"/></svg>