<svg width="24" height="24" viewBox="0 0 24 24" fill="none" xmlns="http://www.w3.org/2000/svg">
<path d="M14.2929 3.70711C13.9024 3.31658 13.9024 2.68342 14.2929 2.29289C14.6834 1.90237 15.3166 1.90237 15.7071 2.29289L20.7071 7.29289C21.0976 7.68342 21.0976 8.31658 20.7071 8.70711L15.7071 13.7071C15.3166 14.0976 14.6834 14.0976 14.2929 13.7071C13.9024 13.3166 13.9024 12.6834 14.2929 12.2929L17.5858 9H12C8.68629 9 6 11.6863 6 15V21C6 21.5523 5.55229 22 5 22C4.44771 22 4 21.5523 4 21V15C4 10.5817 7.58172 7 12 7H17.5858L14.2929 3.70711Z" fill="black"/>
</svg>
