<svg width="24" height="24" viewBox="0 0 24 24" fill="none" xmlns="http://www.w3.org/2000/svg">
<path d="M11.3754 6.42488C11.7659 6.03435 11.7659 5.40118 11.3754 5.01066C10.9849 4.62014 10.3517 4.62014 9.96119 5.01067L3.67912 11.2928C3.2886 11.6834 3.2886 12.3165 3.67912 12.707L9.9612 18.9891C10.3517 19.3796 10.9849 19.3796 11.3754 18.9891C11.7659 18.5986 11.7659 17.9654 11.3754 17.5749L5.80044 11.9999L11.3754 6.42488Z" fill="black"/>
<path d="M20.321 6.42488C20.7115 6.03435 20.7115 5.40118 20.321 5.01066C19.9304 4.62014 19.2973 4.62014 18.9067 5.01067L12.6247 11.2928C12.2342 11.6834 12.2342 12.3165 12.6247 12.707L18.9068 18.9891C19.2973 19.3796 19.9304 19.3796 20.321 18.9891C20.7115 18.5986 20.7115 17.9654 20.321 17.5749L14.746 11.9999L20.321 6.42488Z" fill="black"/>
</svg>
