<svg xmlns="http://www.w3.org/2000/svg" width="24" height="24" fill="none" viewBox="0 0 24 24"><path fill="#000" d="M13.5197 2.7804c1.7057-1.7057 4.4712-1.7057 6.1769 0s1.7058 4.4712 0 6.1769l-7.6877 7.6876c-1.0506 1.0506-2.754 1.0506-3.8047 0s-1.0506-2.754 0-3.8046l6.3636-6.3636c.3905-.3905 1.0237-.3905 1.4142 0 .3906.3905.3906 1.0237 0 1.4142l-6.3635 6.3636a.6903.6903 0 1 0 .9762.9762l6.3635-6.3636.0103-.0101 1.3139-1.314c.9247-.9246.9247-2.4237 0-3.3484s-2.4238-.9247-3.3485 0l-9.1184 9.1182c-1.5598 1.5598-1.5598 4.0887 0 5.6484 1.5598 1.5598 4.0886 1.5598 5.6484 0l7.7942-7.7942c.3905-.3905 1.0237-.3905 1.4142 0s.3905 1.0237 0 1.4142l-7.7942 7.7942c-2.3408 2.3408-6.136 2.3408-8.4768 0s-2.3408-6.136 0-8.4768z"/></svg>