<svg xmlns="http://www.w3.org/2000/svg" width="24" height="24" fill="none" viewBox="0 0 24 24"><path fill="#000" fill-rule="evenodd" d="M4.1827 3.7325q-.2711-.7238-.1522-1.5937.033-.2415-.0402-.4553a.983.983 0 0 0-.3874-.51q-.185-.127-.4246-.1605l-.0032-.0004q-.2415-.033-.4552.0402a.983.983 0 0 0-.5101.3874q-.127.185-.1604.4246l-.0005.0032q-.06.4381-.0422.8732.0409 1.0073.497 1.9974.3229.7007.8015 1.2706.5313.6328 1.2547 1.1044.8414.5485 2.3987 1.4171.2573.1435.4845.2727a1.04 1.04 0 0 1 .053-.2234 8 8 0 0 1 .2796-.675 8.1 8.1 0 0 1 .5086-.9237 75 75 0 0 0-.3515-.1973l-.155-.0866-.0423-.0237Q6.3832 5.9149 5.652 5.4382q-1.0989-.7164-1.4694-1.7057m8.0384-.0967a8 8 0 0 0-.316.1398Q10.8962 4.248 10.0181 5s-.8065.0004-.8065 0H7q-.2437 0-.4456-.1015a.982.982 0 0 1-.4529-.453Q6 4.2439 6 4t.1015-.4456a.983.983 0 0 1 .4529-.453Q6.7561 3 7 3h3.3158a3.1 3.1 0 0 0 .0796-.735v-.0001a3 3 0 0 0-.0076-.1798q-.0176-.2431.0691-.4518a.983.983 0 0 1 .419-.4843q.194-.1157.4372-.1334t.4517.0691a.983.983 0 0 1 .4844.4191q.1158.194.1334.4371a5.1 5.1 0 0 1-.0039.7924l-.0002.0016a5.1 5.1 0 0 1-.1574.9009M15.5 18q-1.3462 0-2.4952-.476h-.0001q-1.149-.476-2.1009-1.4278-.9519-.952-1.4279-2.101v-.0002Q8.9999 12.846 9 11.5q0-1.3462.476-2.4952v-.0002q.476-1.149 1.4278-2.1008t2.1009-1.4278l.0001-.0001q1.149-.476 2.4952-.476t2.4952.476 2.101 1.4279 1.4278 2.1008l.0001.0002q.476 1.149.4759 2.4952 0 1.346-.4758 2.495l-.0001.0002-.0001.0001q-.294.71-.7698 1.3446l1.9564 1.9564q.1438.145.2161.3197a1 1 0 0 1 .0239.0641.983.983 0 0 1 0 .6397 1 1 0 0 1-.0238.0639q-.0714.1727-.2128.3164l-.0069.007-.0034.0034q-.145.1438-.3197.2162a1 1 0 0 1-.0641.0238.982.982 0 0 1-.6397 0 1 1 0 0 1-.0639-.0237q-.1727-.0715-.3164-.2128l-.007-.0069-1.9529-1.953q-.6347.4758-1.3446.7699h-.0002l-.0002.0001q-1.1489.476-2.495.4759m0-2q.932 0 1.7275-.3295t1.4545-.9886.9885-1.4545T20 11.5t-.3295-1.7275l-.0001-.0002q-.3294-.7954-.9884-1.4543-.659-.6591-1.4545-.9885T15.5 7t-1.7275.3295h-.0001q-.7954.3296-1.4544.9885t-.9884 1.4544l-.0001.0001Q11.0001 10.5679 11 11.5t.3295 1.7274q.3296.7956.9885 1.4545.659.659 1.4543.9885l.0002.0001Q14.5681 16 15.5 16m-2.6192-6.5241v4.0481q0 .4143.2928.7071.293.293.7072.2929h3.2385q.4142 0 .7071-.2929.293-.2928.2929-.7071v-2.4716a.99.99 0 0 0-.064-.3518.99.99 0 0 0-.1836-.3068l-.6899-.7883-.69-.7882a.99.99 0 0 0-.3393-.2521.99.99 0 0 0-.4131-.0893h-1.8586q-.4143 0-.7072.2929-.2928.2929-.2928.7071m-5.5409 4.4667A1.02 1.02 0 0 1 7 14H4.789l.015.0147a4 4 0 0 0 .0525.0498q.5052.467 2.012 1.2602.5412.2848.8211.4397.875.4843 1.5193.8755.4036.2451.7168.4537.4875.3248.7553.5609.1411.1245.2743.2669.664.7105 1.128 1.8672.5109 1.2734.3477 2.3366l-.0005.0033a1.1 1.1 0 0 1-.0411.1713.94.94 0 0 1-.1264.2506.983.983 0 0 1-.5162.3789.95.95 0 0 1-.3238.045 1 1 0 0 1-.093-.007q-.0147-.0017-.0294-.0039l-.0097-.0014-.0004-.0001-.0045-.0007a1 1 0 0 1-.0599-.011l-.0118-.0026a.96.96 0 0 1-.3485-.1535.984.984 0 0 1-.379-.5163q-.0696-.2149-.0327-.4559l.0004-.0025q.0494-.3258-.0515-.746A3 3 0 0 0 10.3844 21H7q-.2437 0-.4456-.1015a.982.982 0 0 1-.4529-.4529Q6.0001 20.2439 6 20q0-.2439.1015-.4456a.983.983 0 0 1 .453-.453Q6.7562 19.0001 7 19h2.1665q-.6609-.498-2.4454-1.4857l-.0858-.0472a41 41 0 0 0-.4914-.2634l-.0805-.0425-.0172-.0091-.1093-.0576a39 39 0 0 1-.2447-.1302l-.0791-.0428a24 24 0 0 1-.481-.268q-1.1094-.6361-1.6332-1.1203-.5649-.522-.9164-1.1614a4.43 4.43 0 0 1-.3044-.6862 4.8 4.8 0 0 1-.1604-.5821 5.2 5.2 0 0 1-.0756-.4663 3.96 3.96 0 0 1-.024-.6166q.052-1.323.9977-2.6108a7.4 7.4 0 0 1 .488-.5973q.674.4371 1.739 1.0463-1.1127.971-1.2192 2.042A2 2 0 0 0 4.016 12h2.989q.241.001.4406.1015C7.7766 12.2629 8 12.601 8 13v.0049q-.001.2409-.1015.4407a.983.983 0 0 1-.5586.497m8.7794-1.4186v-1.0958l-.4424-.5054-.3912-.4469h-.4049v2.0481zm-11.114 6.3403q-.8996-.4735-1.5743-.9025a5.66 5.66 0 0 0-.5927.7829 5.65 5.65 0 0 0-.4195.8058q-.54 1.2766-.3955 2.4706.006.0492.013.0983c.0573.3949.327.6974.6777.8096q.212.0708.4507.0371l.0049-.0006c.3948-.0573.6974-.3269.8096-.6777a1 1 0 0 0 .019-.0651q.0465-.1829.0182-.3848l-.0008-.0056q-.0996-.6873.2452-1.5027a3.6 3.6 0 0 1 .1326-.2793q.3117-.5901.8433-1.0638a81 81 0 0 0-.2314-.1222"/></svg>