<svg width="24" height="24" viewBox="0 0 24 24" fill="none" xmlns="http://www.w3.org/2000/svg">
<path d="M8 7C8.55228 7 9 7.44772 9 8C9 8.55228 8.55228 9 8 9C7.44772 9 7 8.55228 7 8C7 7.44772 7.44772 7 8 7Z" fill="black"/>
<path fill-rule="evenodd" clip-rule="evenodd" d="M9 3C12.3137 3 15 5.68629 15 9C15 9.4873 14.9413 9.96191 14.8311 10.417L20.707 16.293C20.8946 16.4805 21 16.7348 21 17V20C21 20.5523 20.5523 21 20 21H15.5C15.0411 21 14.6416 20.6874 14.5303 20.2422L14.2188 19H13C12.4477 19 12 18.5523 12 18V15.9141L10.8086 14.7227C10.2372 14.9031 9.62905 15 9 15C5.68629 15 3 12.3137 3 9C3 5.68629 5.68629 3 9 3ZM9 5C6.79086 5 5 6.79086 5 9C5 11.2091 6.79086 13 9 13C9.58878 13 10.1457 12.8729 10.6465 12.6465L11.2764 12.3623L13.707 14.793C13.8946 14.9805 14 15.2348 14 15.5V17H15C15.4589 17 15.8584 17.3126 15.9697 17.7578L16.2812 19H19V17.4141L12.5459 10.96L12.7627 10.3623C12.9162 9.93847 13 9.48008 13 9C13 6.79086 11.2091 5 9 5Z" fill="black"/>
<path d="M19 2C19.5523 2 20 2.44772 20 3V4H21C21.5523 4 22 4.44772 22 5C22 5.55228 21.5523 6 21 6H20V7C20 7.55228 19.5523 8 19 8C18.4477 8 18 7.55228 18 7V6H17C16.4477 6 16 5.55228 16 5C16 4.44772 16.4477 4 17 4H18V3C18 2.44772 18.4477 2 19 2Z" fill="black"/>
</svg>
