<svg width="24" height="24" viewBox="0 0 24 24" fill="none" xmlns="http://www.w3.org/2000/svg">
<path d="M11.8773 4C9.30983 4 7.02366 5.1723 5.53595 7.00001H7.00023C7.55251 7.00001 8.00023 7.44773 8.00023 8.00001C8.00023 8.5523 7.55251 9.00001 7.00023 9.00001H3.00023C2.44794 9.00001 2.00023 8.5523 2.00023 8.00001V4.00001C2.00023 3.44773 2.44794 3.00001 3.00023 3.00001C3.55251 3.00001 4.00023 3.44773 4.00023 4.00001V5.71879C5.8569 3.44932 8.69745 2 11.8773 2C17.4552 2 22.0002 6.46441 22.0002 12C22.0002 17.5356 17.4552 22 11.8773 22C7.10184 22 3.0884 18.7309 2.0279 14.3174C1.89887 13.7804 2.2296 13.2405 2.7666 13.1114C3.3036 12.9824 3.84352 13.3131 3.97255 13.8501C4.81791 17.3683 8.03015 20 11.8773 20C16.3763 20 20.0002 16.4055 20.0002 12C20.0002 7.59446 16.3763 4 11.8773 4Z" fill="black"/>
<path d="M13.0002 8C13.0002 7.44772 12.5525 7 12.0002 7C11.4479 7 11.0002 7.44772 11.0002 8V11.7514C11.0002 12.1553 11.2431 12.5195 11.616 12.6747L14.616 13.9232C15.1259 14.1354 15.7113 13.8941 15.9235 13.3842C16.1357 12.8743 15.8944 12.289 15.3845 12.0768L13.0002 11.0845V8Z" fill="black"/>
</svg>
