<svg width="24" height="24" viewBox="0 0 24 24" fill="none" xmlns="http://www.w3.org/2000/svg">
<path d="M10.7963 9.29289C11.1868 8.90237 11.82 8.90237 12.2105 9.29289L13.5034 10.5858L14.7963 9.29289C15.1868 8.90237 15.82 8.90237 16.2105 9.29289C16.601 9.68342 16.601 10.3166 16.2105 10.7071L14.9176 12L16.1739 13.2563C16.5644 13.6468 16.5644 14.28 16.1739 14.6705C15.7834 15.061 15.1502 15.061 14.7597 14.6705L13.5034 13.4142L12.2105 14.7071C11.82 15.0976 11.1868 15.0976 10.7963 14.7071C10.4058 14.3166 10.4058 13.6834 10.7963 13.2929L12.0892 12L10.7963 10.7071C10.4058 10.3166 10.4058 9.68342 10.7963 9.29289Z" fill="black"/>
<path fill-rule="evenodd" clip-rule="evenodd" d="M8.87968 5C8.03876 5 7.23645 5.35294 6.66822 5.97283L2.38214 10.6486C1.68121 11.4132 1.68121 12.5868 2.38214 13.3514L6.66822 18.0272C7.23645 18.6471 8.03876 19 8.87968 19H18.9999C20.6567 19 21.9999 17.6569 21.9999 16V8C21.9999 6.34315 20.6567 5 18.9999 5H8.87968ZM8.14253 7.32428C8.33194 7.11765 8.59937 7 8.87968 7H18.9999C19.5522 7 19.9999 7.44772 19.9999 8V16C19.9999 16.5523 19.5522 17 18.9999 17H8.87968C8.59937 17 8.33194 16.8824 8.14253 16.6757L3.85645 12L8.14253 7.32428Z" fill="black"/>
</svg>
