<svg width="24" height="24" viewBox="0 0 24 24" fill="none" xmlns="http://www.w3.org/2000/svg">
<path d="M5.53595 7.00001C7.02366 5.1723 9.30983 4 11.8773 4C16.3763 4 20.0002 7.59446 20.0002 12C20.0002 16.4055 16.3763 20 11.8773 20C8.03015 20 4.81791 17.3683 3.97255 13.8501C3.84352 13.3131 3.3036 12.9824 2.7666 13.1114C2.2296 13.2405 1.89887 13.7804 2.0279 14.3174C3.0884 18.7309 7.10184 22 11.8773 22C17.4552 22 22.0002 17.5356 22.0002 12C22.0002 6.46441 17.4552 2 11.8773 2C8.69745 2 5.8569 3.44932 4.00023 5.71879V4.00001C4.00023 3.44773 3.55251 3.00001 3.00023 3.00001C2.44794 3.00001 2.00023 3.44773 2.00023 4.00001V8.00001C2.00023 8.5523 2.44794 9.00001 3.00023 9.00001H7.00023C7.55251 9.00001 8.00023 8.5523 8.00023 8.00001C8.00023 7.44773 7.55251 7.00001 7.00023 7.00001H5.53595Z" fill="black"/>
<path d="M9.31143 9.3112C9.70196 8.92068 10.3351 8.92068 10.7256 9.3112L12.0002 10.5858L13.2748 9.3112C13.6653 8.92068 14.2985 8.92068 14.689 9.3112C15.0796 9.70173 15.0796 10.3349 14.689 10.7254L13.4144 12L14.689 13.2746C15.0795 13.6651 15.0795 14.2983 14.689 14.6888C14.2985 15.0793 13.6653 15.0793 13.2748 14.6888L12.0002 13.4142L10.7257 14.6888C10.3351 15.0793 9.70196 15.0793 9.31144 14.6888C8.92091 14.2983 8.92091 13.6651 9.31144 13.2746L10.586 12L9.31143 10.7254C8.92091 10.3349 8.92091 9.70173 9.31143 9.3112Z" fill="black"/>
</svg>
