<svg xmlns="http://www.w3.org/2000/svg" width="24" height="24" fill="none" viewBox="0 0 24 24"><path fill="#000" fill-rule="evenodd" d="M6.6682 5.9728A3 3 0 0 1 8.8797 5h10.1202c1.6568 0 3 1.3431 3 3v8c0 1.6569-1.3432 3-3 3H8.8797a3 3 0 0 1-2.2115-.9728l-4.286-4.6757c-.701-.7647-.701-1.9383 0-2.7029zM8.8797 7a1 1 0 0 0-.7372.3243L3.8565 12l4.286 4.6757A1 1 0 0 0 8.8797 17h10.1202c.5523 0 1-.4477 1-1V8c0-.5523-.4477-1-1-1zm3.3308 2.2929c-.3905-.3905-1.0237-.3905-1.4142 0s-.3905 1.0237 0 1.4142L12.0892 12l-1.2929 1.2929c-.3905.3905-.3905 1.0237 0 1.4142s1.0237.3905 1.4142 0l1.2929-1.2929 1.2563 1.2563c.3905.3905 1.0237.3905 1.4142 0s.3905-1.0237 0-1.4142L14.9176 12l1.2929-1.2929c.3905-.3905.3905-1.0237 0-1.4142s-1.0237-.3905-1.4142 0l-1.2929 1.2929z"/></svg>