<svg xmlns="http://www.w3.org/2000/svg" width="24" height="24" fill="none" viewBox="0 0 24 24"><path fill="#000" fill-rule="evenodd" d="M5.536 7c1.4877-1.8277 3.7738-3 6.3414-3 4.4989 0 8.1228 3.5945 8.1228 8s-3.6239 8-8.1228 8c-3.8472 0-7.0595-2.6317-7.9048-6.1499-.129-.537-.669-.8677-1.206-.7387s-.8677.669-.7387 1.206C3.0884 18.7309 7.1019 22 11.8774 22c5.5778 0 10.1228-4.4644 10.1228-10S17.4552 2 11.8774 2c-3.18 0-6.0205 1.4493-7.8772 3.7188V4c0-.5523-.4477-1-1-1s-1 .4477-1 1v4c0 .5523.4477 1 1 1h4c.5523 0 1-.4477 1-1s-.4477-1-1-1zm6.4642 0c.5523 0 1 .4477 1 1v3.0845l2.3843.9923c.5099.2122.7512.7976.539 1.3074-.2122.5099-.7976.7512-1.3075.539l-3-1.2485a1 1 0 0 1-.6158-.9233V8c0-.5523.4477-1 1-1"/></svg>