<svg xmlns="http://www.w3.org/2000/svg" width="24" height="24" fill="none" viewBox="0 0 24 24"><path fill="#000" fill-rule="evenodd" d="M12.5547 1.168a1 1 0 0 0-1.1094 0l-9 6A1 1 0 0 0 3 9h18a1 1 0 0 0 .5547-1.832zM12 3.2018 17.6972 7H6.3028zM7 10c.5523 0 1 .4477 1 1v7c0 .5523-.4477 1-1 1s-1-.4477-1-1v-7c0-.5523.4477-1 1-1m11 1c0-.5523-.4477-1-1-1s-1 .4477-1 1v7c0 .5523.4477 1 1 1s1-.4477 1-1zm-5 0c0-.5523-.4477-1-1-1s-1 .4477-1 1v7c0 .5523.4477 1 1 1s1-.4477 1-1zm-9 9c-.5523 0-1 .4477-1 1s.4477 1 1 1h16c.5523 0 1-.4477 1-1s-.4477-1-1-1z"/></svg>