<svg xmlns="http://www.w3.org/2000/svg" width="24" height="24" fill="none" viewBox="0 0 24 24"><path fill="#000" fill-rule="evenodd" d="M2 8c0-1.6569 1.3431-3 3-3h14c1.6569 0 3 1.3431 3 3v8c0 1.6569-1.3431 3-3 3H5c-1.6569 0-3-1.3431-3-3zm18 3v2c-2.2091 0-4 1.7909-4 4H8c0-2.2091-1.7909-4-4-4v-2c2.2091 0 4-1.7909 4-4h8c0 2.2091 1.7909 4 4 4M6 7c0 1.1046-.8954 2-2 2V8c0-.5523.4477-1 1-1zm14 1v1c-1.1046 0-2-.8954-2-2h1c.5523 0 1 .4477 1 1m-5 4c0 1.6569-1.3431 3-3 3s-3-1.3431-3-3 1.3431-3 3-3 3 1.3431 3 3M4 15v1c0 .5523.4477 1 1 1h1c0-1.1046-.8954-2-2-2m16 0c-1.1046 0-2 .8954-2 2h1c.5523 0 1-.4477 1-1z"/></svg>