<svg width="24" height="24" viewBox="0 0 24 24" fill="none" xmlns="http://www.w3.org/2000/svg">
<path fill-rule="evenodd" clip-rule="evenodd" d="M12.5548 1.16795C12.2189 0.944017 11.7813 0.944017 11.4454 1.16795L2.44538 7.16795C2.07872 7.41239 1.91529 7.86803 2.04299 8.28978C2.17068 8.71154 2.55941 9 3.00008 9H21.0001C21.4407 9 21.8295 8.71154 21.9572 8.28978C22.0849 7.86803 21.9214 7.41239 21.5548 7.16795L12.5548 1.16795ZM12.0001 3.20185L17.6973 7H6.30285L12.0001 3.20185Z" fill="black"/>
<path d="M12.0001 10C12.5524 10 13.0001 10.4477 13.0001 11V18C13.0001 18.5523 12.5524 19 12.0001 19C11.4478 19 11.0001 18.5523 11.0001 18V11C11.0001 10.4477 11.4478 10 12.0001 10Z" fill="black"/>
<path d="M3.00008 21C3.00008 20.4477 3.44779 20 4.00008 20H20.0001C20.5524 20 21.0001 20.4477 21.0001 21C21.0001 21.5523 20.5524 22 20.0001 22H4.00008C3.44779 22 3.00008 21.5523 3.00008 21Z" fill="black"/>
<path d="M18.0001 11C18.0001 10.4477 17.5524 10 17.0001 10C16.4478 10 16.0001 10.4477 16.0001 11V18C16.0001 18.5523 16.4478 19 17.0001 19C17.5524 19 18.0001 18.5523 18.0001 18V11Z" fill="black"/>
<path d="M7.00008 10C7.55236 10 8.00008 10.4477 8.00008 11V18C8.00008 18.5523 7.55236 19 7.00008 19C6.44779 19 6.00008 18.5523 6.00008 18V11C6.00008 10.4477 6.44779 10 7.00008 10Z" fill="black"/>
</svg>
