<svg xmlns="http://www.w3.org/2000/svg" width="24" height="24" fill="none" viewBox="0 0 24 24"><path fill="#000" fill-rule="evenodd" d="M5 2C3.3431 2 2 3.3431 2 5v10c0 1.6569 1.3431 3 3 3h2v3c0 .5523.4477 1 1 1h8c.5523 0 1-.4477 1-1v-3h2c1.6569 0 3-1.3431 3-3V5c0-1.6569-1.3431-3-3-3zm1 12h1v2H5c-.5523 0-1-.4477-1-1V5c0-.5523.4477-1 1-1h14c.5523 0 1 .4477 1 1v10c0 .5523-.4477 1-1 1h-2v-2h1c.5523 0 1-.4477 1-1s-.4477-1-1-1H6c-.5523 0-1 .4477-1 1s.4477 1 1 1M5 6c0-.5523.4477-1 1-1h12c.5523 0 1 .4477 1 1v4c0 .5523-.4477 1-1 1H6c-.5523 0-1-.4477-1-1zm2 3V7h10v2zm2 5h1v6H9zm3 0h3v6h-3z"/></svg>