<svg xmlns="http://www.w3.org/2000/svg" width="24" height="24" fill="none" viewBox="0 0 24 24"><path fill="#000" fill-rule="evenodd" d="M9 4v-.5c0-.8284.6716-1.5 1.5-1.5h3c.8284 0 1.5.6716 1.5 1.5V4h.6C16.9255 4 18 5.0745 18 6.4v13.2c0 1.3255-1.0745 2.4-2.4 2.4H8.4C7.0745 22 6 20.9255 6 19.6V6.4C6 5.0745 7.0745 4 8.4 4zM8 19.6a.4.4 0 0 0 .4.4h7.2a.4.4 0 0 0 .4-.4V6.4a.4.4 0 0 0-.4-.4H8.4a.4.4 0 0 0-.4.4zm4.0174-9.6C11.4538 10 11 10.459 11 11c0 .5523-.4477 1-1 1s-1-.4477-1-1c0-1.6681 1.3719-3 3.0174-3C13.6439 8 15 9.3164 15 10.9654v.1602c0 1.2352-.8198 2.3158-2 2.6535V14c0 .5523-.4477 1-1 1s-1-.4477-1-1v-.3128c0-.8627.5872-1.6148 1.4241-1.824A.76.76 0 0 0 13 11.1256v-.1602c0-.5219-.4381-.9654-.9826-.9654M12 18c.5523 0 1-.4477 1-1s-.4477-1-1-1-1 .4477-1 1 .4477 1 1 1"/></svg>