<svg xmlns="http://www.w3.org/2000/svg" width="24" height="24" fill="none" viewBox="0 0 24 24"><path fill="#000" fill-rule="evenodd" d="M9 3.5V4h-.6C7.0745 4 6 5.0745 6 6.4v13.2C6 20.9255 7.0745 22 8.4 22h7.2c1.3255 0 2.4-1.0745 2.4-2.4V6.4C18 5.0745 16.9255 4 15.6 4H15v-.5c0-.8284-.6716-1.5-1.5-1.5h-3C9.6716 2 9 2.6716 9 3.5M8.4 20a.4.4 0 0 1-.4-.4V6.4a.4.4 0 0 1 .4-.4h7.2a.4.4 0 0 1 .4.4v13.2a.4.4 0 0 1-.4.4zm3.6-8c-.5523 0-1 .4477-1 1s.4477 1 1 1 1 .4477 1 1-.4477 1-1 1c-1.6569 0-3-1.3431-3-3s1.3431-3 3-3c1.1705 0 2.1826.6705 2.6765 1.6439.2499.4925.0532 1.0943-.4394 1.3442-.4925.2499-1.0943.0532-1.3442-.4393A1 1 0 0 0 12 12"/></svg>