<svg xmlns="http://www.w3.org/2000/svg" width="24" height="24" fill="none" viewBox="0 0 24 24"><path fill="#000" fill-rule="evenodd" d="M9 3.5V4h-.6C7.0745 4 6 5.0745 6 6.4v13.2C6 20.9255 7.0745 22 8.4 22h7.2c1.3255 0 2.4-1.0745 2.4-2.4V6.4C18 5.0745 16.9255 4 15.6 4H15v-.5c0-.8284-.6716-1.5-1.5-1.5h-3C9.6716 2 9 2.6716 9 3.5M8.4 20a.4.4 0 0 1-.4-.4V6.4a.4.4 0 0 1 .4-.4h7.2a.4.4 0 0 1 .4.4v13.2a.4.4 0 0 1-.4.4zm3.7846-10.9133-2.6045 4.039c-.1372.2129.0156.4933.269.4933h.9775a.4.4 0 0 1 .4.4v2.721c0 .3191.4159.4415.5888.1734l2.6044-4.0391c.1373-.2129-.0155-.4933-.2688-.4933h-.9776a.4.4 0 0 1-.4-.4V9.26c0-.319-.4159-.4415-.5888-.1733"/></svg>