<svg xmlns="http://www.w3.org/2000/svg" width="24" height="24" fill="none" viewBox="0 0 24 24"><path fill="#000" fill-rule="evenodd" d="M18 6.4v1.5509a5.42 5.42 0 0 0-2-.3912V6.4a.4.4 0 0 0-.4-.4H8.4a.4.4 0 0 0-.4.4v1.1597a5.42 5.42 0 0 0-2 .3912V6.4C6 5.0745 7.0745 4 8.4 4H9v-.5c0-.8284.6716-1.5 1.5-1.5h3c.8284 0 1.5.6716 1.5 1.5V4h.6C16.9255 4 18 5.0745 18 6.4m-6 5.3589a11.1 11.1 0 0 0-.7739-.7368c-.7272-.6263-1.9042-1.4625-3.1964-1.4625-1.9 0-3.4403 1.5403-3.4403 3.4404s1.5403 3.4404 3.4403 3.4404c.6666 0 1.2871-.225 1.8024-.4968.5215-.2751.9952-.6299 1.3852-.9645.3054-.2621.5716-.5223.7827-.7421.2111.2198.4773.48.7827.7421.39.3346.8637.6894 1.3852.9645.5153.2718 1.1358.4968 1.8024.4968 1.9 0 3.4404-1.5403 3.4404-3.4404s-1.5404-3.4404-3.4404-3.4404c-1.2921 0-2.4692.8362-3.1964 1.4625-.3018.2599-.5648.518-.7739.7368M6.5894 13c0-.7955.6448-1.4404 1.4403-1.4404.5109 0 1.2016.384 1.8913.978a8.8 8.8 0 0 1 .4934.46 9 9 0 0 1-.4995.4637c-.321.2754-.6697.5307-1.0158.7132-.3522.1858-.6444.2659-.8694.2659-.7955 0-1.4403-.6449-1.4403-1.4404m10.8213 0c0-.7955-.6449-1.4404-1.4404-1.4404-.5109 0-1.2016.384-1.8913.978a8.8 8.8 0 0 0-.4934.46c.1467.1464.3153.3056.4995.4637.321.2754.6697.5307 1.0158.7132.3522.1858.6444.2659.8694.2659.7955 0 1.4404-.6449 1.4404-1.4404M8 18.4403a5.42 5.42 0 0 1-2-.3912V19.6C6 20.9255 7.0745 22 8.4 22h7.2c1.3255 0 2.4-1.0745 2.4-2.4v-1.5509a5.42 5.42 0 0 1-2 .3912V19.6a.4.4 0 0 1-.4.4H8.4a.4.4 0 0 1-.4-.4z"/></svg>