<svg width="24" height="24" viewBox="0 0 24 24" fill="none" xmlns="http://www.w3.org/2000/svg">
<path d="M9.58014 13.1257L12.1846 9.08665C12.3575 8.81848 12.7734 8.94095 12.7734 9.26003V11.981C12.7734 12.2019 12.9525 12.381 13.1734 12.381H14.151C14.4043 12.381 14.5571 12.6614 14.4198 12.8743L11.8154 16.9134C11.6425 17.1815 11.2266 17.0591 11.2266 16.74V14.019C11.2266 13.7981 11.0475 13.619 10.8266 13.619H9.84903C9.5957 13.619 9.44286 13.3386 9.58014 13.1257Z" fill="black"/>
<path fill-rule="evenodd" clip-rule="evenodd" d="M9 4V3.5C9 2.67157 9.67157 2 10.5 2H13.5C14.3284 2 15 2.67157 15 3.5V4L15.6 4C16.9255 4 18 5.07452 18 6.4V19.6C18 20.9255 16.9255 22 15.6 22H8.4C7.07452 22 6 20.9255 6 19.6V6.4C6 5.07452 7.07452 4 8.4 4L9 4ZM8 19.6C8 19.8209 8.17909 20 8.4 20H15.6C15.8209 20 16 19.8209 16 19.6V6.4C16 6.17909 15.8209 6 15.6 6L8.4 6C8.17909 6 8 6.17909 8 6.4L8 19.6Z" fill="black"/>
</svg>
