<svg width="24" height="24" viewBox="0 0 24 24" fill="none" xmlns="http://www.w3.org/2000/svg">
<path fill-rule="evenodd" clip-rule="evenodd" d="M11.2261 11.0221C11.5279 11.282 11.7909 11.5401 12 11.7589C12.2091 11.5401 12.4721 11.282 12.7739 11.0221C13.5011 10.3958 14.6781 9.55963 15.9703 9.55963C17.8703 9.55963 19.4106 11.0999 19.4106 13C19.4106 14.9001 17.8703 16.4404 15.9703 16.4404C15.3037 16.4404 14.6832 16.2154 14.1679 15.9436C13.6464 15.6685 13.1727 15.3137 12.7827 14.9791C12.4773 14.717 12.2111 14.4568 12 14.237C11.7889 14.4568 11.5227 14.717 11.2173 14.9791C10.8273 15.3137 10.3536 15.6685 9.83213 15.9436C9.31679 16.2154 8.69628 16.4404 8.02972 16.4404C6.12966 16.4404 4.58936 14.9001 4.58936 13C4.58936 11.0999 6.12966 9.55963 8.02972 9.55963C9.32186 9.55963 10.4989 10.3958 11.2261 11.0221ZM8.02972 11.5596C7.23423 11.5596 6.58936 12.2045 6.58936 13C6.58936 13.7955 7.23423 14.4404 8.02972 14.4404C8.25471 14.4404 8.5469 14.3603 8.8991 14.1745C9.2452 13.992 9.5939 13.7367 9.91486 13.4613C10.0991 13.3032 10.2677 13.144 10.4144 12.9976C10.2696 12.8521 10.1031 12.6944 9.92101 12.5376C9.23127 11.9436 8.5406 11.5596 8.02972 11.5596ZM15.9703 11.5596C16.7658 11.5596 17.4106 12.2045 17.4106 13C17.4106 13.7955 16.7658 14.4404 15.9703 14.4404C15.7453 14.4404 15.4531 14.3603 15.1009 14.1745C14.7548 13.992 14.4061 13.7367 14.0851 13.4613C13.9009 13.3032 13.7323 13.144 13.5856 12.9976C13.7304 12.8521 13.8969 12.6944 14.079 12.5376C14.7687 11.9436 15.4594 11.5596 15.9703 11.5596Z" fill="black"/>
<path d="M8 18.4403C7.29332 18.4365 6.61852 18.298 6 18.0491V19.6C6 20.9255 7.07452 22 8.4 22H15.6C16.9255 22 18 20.9255 18 19.6V18.0491C17.3815 18.298 16.7067 18.4365 16 18.4403V19.6C16 19.8209 15.8209 20 15.6 20H8.4C8.17909 20 8 19.8209 8 19.6V18.4403Z" fill="black"/>
<path d="M18 6.4V7.95089C17.3815 7.70201 16.7067 7.56349 16 7.55971V6.4C16 6.17909 15.8209 6 15.6 6H8.4C8.17909 6 8 6.17909 8 6.4L8 7.55971C7.29332 7.56349 6.61852 7.70201 6 7.95089V6.4C6 5.07452 7.07452 4 8.4 4H9L9 3.5C9 2.67157 9.67157 2 10.5 2L13.5 2C14.3284 2 15 2.67157 15 3.5V4H15.6C16.9255 4 18 5.07452 18 6.4Z" fill="black"/>
</svg>
