<svg width="24" height="24" viewBox="0 0 24 24" fill="none" xmlns="http://www.w3.org/2000/svg">
<path fill-rule="evenodd" clip-rule="evenodd" d="M12 11.5C10.3431 11.5 9 12.8431 9 14.5C9 16.1569 10.3431 17.5 12 17.5C13.6569 17.5 15 16.1569 15 14.5C15 12.8431 13.6569 11.5 12 11.5ZM11 14.5C11 13.9477 11.4477 13.5 12 13.5C12.5523 13.5 13 13.9477 13 14.5C13 15.0523 12.5523 15.5 12 15.5C11.4477 15.5 11 15.0523 11 14.5Z" fill="black"/>
<path d="M10 10.5C10 11.0523 9.55229 11.5 9 11.5C8.44772 11.5 8 11.0523 8 10.5C8 9.94771 8.44772 9.5 9 9.5C9.55229 9.5 10 9.94771 10 10.5Z" fill="black"/>
<path d="M15 11.5C15.5523 11.5 16 11.0523 16 10.5C16 9.94771 15.5523 9.5 15 9.5C14.4477 9.5 14 9.94771 14 10.5C14 11.0523 14.4477 11.5 15 11.5Z" fill="black"/>
<path fill-rule="evenodd" clip-rule="evenodd" d="M1 6C1 7.3354 1.58209 8.53419 2.50378 9.35739C2.17691 10.3456 2 11.4022 2 12.5C2 18.0228 6.47715 22.5 12 22.5C17.5228 22.5 22 18.0228 22 12.5C22 11.4022 21.8231 10.3456 21.4962 9.35739C22.4179 8.53419 23 7.3354 23 6C23 3.51472 20.9853 1.5 18.5 1.5C17.1646 1.5 15.9658 2.08209 15.1426 3.00378C14.1544 2.67691 13.0978 2.5 12 2.5C10.9022 2.5 9.84564 2.67691 8.85739 3.00378C8.03419 2.08209 6.8354 1.5 5.5 1.5C3.01472 1.5 1 3.51472 1 6ZM5.5 3.5C4.11929 3.5 3 4.61929 3 6C3 6.50751 3.15104 6.98005 3.41145 7.37484C4.26128 5.95379 5.45379 4.76128 6.87484 3.91145C6.48005 3.65104 6.00751 3.5 5.5 3.5ZM17.1252 3.91145C18.5462 4.76127 19.7387 5.95378 20.5886 7.37484C20.849 6.98005 21 6.50751 21 6C21 4.61929 19.8807 3.5 18.5 3.5C17.9925 3.5 17.5199 3.65103 17.1252 3.91145ZM4 12.5C4 8.08172 7.58172 4.5 12 4.5C16.4183 4.5 20 8.08172 20 12.5C20 16.9183 16.4183 20.5 12 20.5C7.58172 20.5 4 16.9183 4 12.5Z" fill="black"/>
</svg>
