<svg xmlns="http://www.w3.org/2000/svg" width="24" height="24" fill="none" viewBox="0 0 24 24"><path fill="#000" fill-rule="evenodd" d="M2.5038 9.3574C1.582 8.5342 1 7.3354 1 6c0-2.4853 2.0147-4.5 4.5-4.5 1.3354 0 2.5342.582 3.3574 1.5038C9.8456 2.6769 10.9022 2.5 12 2.5s2.1544.177 3.1426.5038C15.9658 2.082 17.1646 1.5 18.5 1.5 20.9853 1.5 23 3.5147 23 6c0 1.3354-.5821 2.5342-1.5038 3.3574.3269.9882.5038 2.0448.5038 3.1426 0 5.5228-4.4772 10-10 10s-10-4.4772-10-10c0-1.0978.177-2.1544.5038-3.1426M3 6c0-1.3807 1.1193-2.5 2.5-2.5.5075 0 .98.151 1.3748.4114a10.05 10.05 0 0 0-3.4634 3.4634A2.49 2.49 0 0 1 3 6m17.5886 1.3748a10.05 10.05 0 0 0-3.4634-3.4634A2.49 2.49 0 0 1 18.5 3.5C19.8807 3.5 21 4.6193 21 6c0 .5075-.151.98-.4114 1.3748M12 4.5c-4.4183 0-8 3.5817-8 8s3.5817 8 8 8 8-3.5817 8-8-3.5817-8-8-8m-3 7c.5523 0 1-.4477 1-1s-.4477-1-1-1-1 .4477-1 1 .4477 1 1 1m7-1c0 .5523-.4477 1-1 1s-1-.4477-1-1 .4477-1 1-1 1 .4477 1 1m-4 1c-1.6569 0-3 1.3431-3 3s1.3431 3 3 3 3-1.3431 3-3-1.3431-3-3-3m-1 3c0-.5523.4477-1 1-1s1 .4477 1 1-.4477 1-1 1-1-.4477-1-1"/></svg>