<svg width="24" height="24" viewBox="0 0 24 24" fill="none" xmlns="http://www.w3.org/2000/svg">
<path fill-rule="evenodd" clip-rule="evenodd" d="M12 1.99536C12.5523 1.99538 13 2.44311 13 2.9954V4.06625C16.3923 4.55148 19 7.46889 19 10.9954V16.9954H20C20.5523 16.9954 21 17.4431 21 17.9954C21 18.5476 20.5523 18.9954 20 18.9954H4C3.44772 18.9954 3 18.5476 3 17.9954C3 17.4431 3.44772 16.9954 4 16.9954H5V10.9954C5 7.46889 7.60771 4.55148 11 4.06625V2.99532C11 2.44304 11.4477 1.99534 12 1.99536ZM7 10.9954C7 8.23394 9.23858 5.99536 12 5.99536C14.7614 5.99536 17 8.23394 17 10.9954V16.9954H7V10.9954Z" fill="black"/>
<path d="M12.0005 21.9983C10.8357 21.9983 9.87516 21.1237 9.73975 19.9954H14.2612C14.1258 21.1237 13.1653 21.9983 12.0005 21.9983Z" fill="black"/>
</svg>
