<svg xmlns="http://www.w3.org/2000/svg" width="24" height="24" fill="none" viewBox="0 0 24 24"><path fill="#000" fill-rule="evenodd" d="M14.9468 9.3932A4.482 4.482 0 0 0 16 6.5C16 4.0147 13.9853 2 11.5 2H11C8.2386 2 6 4.2386 6 7v14c0 .5523.4477 1 1 1s1-.4477 1-1v-2.9996A4.978 4.978 0 0 0 11 19h2c2.7614 0 5-2.2386 5-5 0-2.0708-1.2589-3.8476-3.0532-4.6068M11 4C9.3431 4 8 5.3431 8 7v7c0 1.6569 1.3431 3 3 3h2c1.6569 0 3-1.3431 3-3s-1.3431-3-3-3h-2c-.5523 0-1-.4477-1-1s.4477-1 1-1h.5C12.8807 9 14 7.8807 14 6.5S12.8807 4 11.5 4z"/></svg>