<svg xmlns="http://www.w3.org/2000/svg" width="24" height="24" fill="none" viewBox="0 0 24 24"><path fill="#000" fill-rule="evenodd" d="M3.001 3.9555A1 1 0 0 1 4 3h3.2193a2 2 0 0 1 1.9403 1.515l.6724 2.6895a2 2 0 0 1-.534 1.9073l-2.077 2.0535c.6312 1.0232 1.4426 2.0839 2.4862 3.1276 1.0231 1.023 2.0904 1.8239 3.1349 2.4509l.028-.028q.0199.0562.0422.1115.2205.5472.6739 1.0005l.1716.1717-.1719.172q-.4177.4176-.6377.915a18 18 0 0 1-.2681-.1389.99.99 0 0 1-.2964-.1601c-1.3514-.7462-2.7549-1.7446-4.0907-3.0804-1.4052-1.4052-2.4405-2.8484-3.2018-4.2224C3.9748 9.4698 3.4517 7.6118 3.208 6.2493c-.1219-.6815-.1742-1.2407-.1958-1.6361a9 9 0 0 1-.0141-.4661 6 6 0 0 1 .0011-.132l.001-.039.0005-.0127.0002-.0045V3.957zm0 0 .9748.0434-.8478-.0379a7 7 0 0 0-.127-.0055M16.4144 9l4.2929-4.2929c.3905-.3905.3905-1.0237 0-1.4142s-1.0237-.3905-1.4142 0l-4.2929 4.2929V6c0-.5523-.4477-1-1-1s-1 .4477-1 1v4c0 .5523.4477 1 1 1h4c.5523 0 1-.4477 1-1s-.4477-1-1-1zM5.0491 5c.0267.2563.067.5578.1277.8971.1639.9163.4755 2.1046 1.066 3.4229l1.649-1.6304L7.2193 5zm11.5372 12.9995-1.5859-1.5859c-.396-.3959-.396-1.0182 0-1.4142.3959-.396 1.0182-.396 1.4142 0l1.5859 1.5859 1.5852-1.5852c.396-.396 1.0182-.396 1.4142 0s.396 1.0182 0 1.4142l-1.5852 1.5852 1.5854 1.5855c.396.396.396 1.0182 0 1.4142-.3959.396-1.0182.396-1.4142 0l-1.5854-1.5855-1.5862 1.5862c-.3959.396-1.0182.396-1.4142 0s-.396-1.0182 0-1.4142z"/></svg>