<svg xmlns="http://www.w3.org/2000/svg" width="24" height="24" fill="none" viewBox="0 0 24 24"><path d="M0 24h24V0H0z"/><path fill="#000" fill-rule="evenodd" d="m7.707 20.2928-2.2928-2.2929h9.7587l3.5821 3.5821c.396.396 1.0182.396 1.4142 0 .396-.3959.396-1.0182 0-1.4142l-16.5-16.5c-.396-.396-1.0182-.396-1.4142 0s-.396 1.0183 0 1.4142L3.1729 6h-.5757c-.56 0-1 .44-1 1s.44 1 1 1h2.5757l8 7.9999H5.4142l2.2929-2.2929c.396-.3959.396-1.0182 0-1.4142s-1.0182-.3959-1.4142 0l-3.9367 3.9367a.98.98 0 0 0-.2547.3248Q2 16.7561 2 16.9999c0 .3129.1373.5883.3562.7705l3.9367 3.9366c.396.396 1.0182.396 1.4142 0 .396-.3959.396-1.0182 0-1.4142m11.1201-4.2929 1.9901 1.9901c.4895-.0681.8558-.4791.8558-.9901 0-.56-.44-1-1-1zm-8-8-2-2h9.7587L16.293 3.7071c-.396-.396-.396-1.0183 0-1.4143s1.0182-.396 1.4142 0l3.9367 3.9367a.98.98 0 0 1 .2547.3248 1 1 0 0 1 .0283.0618q.0714.1725.0731.374v.0149q-.0009.2042-.0732.379a1 1 0 0 1-.0283.0617.98.98 0 0 1-.2547.3248l-3.9367 3.9366c-.396.396-1.0182.396-1.4142 0-.396-.3959-.396-1.0182 0-1.4142L18.5858 8z"/></svg>