<svg xmlns="http://www.w3.org/2000/svg" width="24" height="24" fill="none" viewBox="0 0 24 24"><path fill="#000" fill-rule="evenodd" d="M4.002 3a1 1 0 0 0-.999.9555v.0015l-.0001.0019-.0002.0045-.0005.0126-.001.0391A6 6 0 0 0 3 4.1471c.0003.1113.0034.2683.0142.4661.0216.3954.0739.9546.1958 1.636.2437 1.3626.7668 3.2206 1.8831 5.2355.7614 1.374 1.7966 2.8172 3.2019 4.2224 1.3358 1.3358 2.7393 2.3342 4.0906 3.0804a.99.99 0 0 0 .2964.1601q.1337.0706.2665.1381.22-.497.6374-.9142l.1719-.172-.1716-.1717q-.4534-.4533-.6739-1.0005a3 3 0 0 1-.0417-.11l-.0266.0265c-1.0444-.627-2.1118-1.4279-3.1348-2.4509-1.0437-1.0437-1.855-2.1044-2.4863-3.1276L9.3 9.1118a2 2 0 0 0 .534-1.9073L9.1617 4.515A2 2 0 0 0 7.2213 3zm-.999.9555c0-.0002.0015-.0001.1154.005l.0095.0004.874.039zm10.29 6.7515c-.3905-.3905-.3905-1.0237 0-1.4142L17.5858 5H16c-.5523 0-1-.4477-1-1s.4477-1 1-1h4c.5523 0 1 .4477 1 1v4c0 .5523-.4477 1-1 1s-1-.4477-1-1V6.4142l-4.2929 4.2929c-.3905.3905-1.0237.3905-1.4142 0m-8.1142-4.81A12.4 12.4 0 0 1 5.051 5h2.1703l.6724 2.6896L6.2447 9.32c-.5904-1.3183-.902-2.5066-1.066-3.4229m11.4076 12.1024-1.5859-1.5859c-.396-.3959-.396-1.0182 0-1.4142.3959-.396 1.0182-.396 1.4142 0l1.5859 1.5859 1.5852-1.5852c.396-.396 1.0182-.396 1.4142 0s.396 1.0182 0 1.4142l-1.5852 1.5852 1.5854 1.5855c.396.396.396 1.0182 0 1.4142-.3959.396-1.0182.396-1.4142 0l-1.5854-1.5855-1.5862 1.5862c-.3959.396-1.0182.396-1.4142 0s-.396-1.0182 0-1.4142z"/></svg>