<svg xmlns="http://www.w3.org/2000/svg" width="24" height="24" fill="none" viewBox="0 0 24 24"><path fill="#000" fill-rule="evenodd" d="M11.5407 2.1588A1 1 0 0 0 10 3v7.4648L6.5547 8.1679c-.4595-.3063-1.0804-.1821-1.3868.2774s-.1821 1.0804.2774 1.3868L8.6973 12l-3.252 2.168c-.4595.3063-.5837.9272-.2774 1.3867s.9273.5837 1.3868.2774L10 13.5352V21a1 1 0 0 0 1.5407.8412l7-4.5a1 1 0 0 0 0-1.6824L12.8492 12l5.6915-3.6588a1 1 0 0 0 0-1.6824zm4.61 5.3412L12 10.1683V4.8317zm0 9L12 13.8317v5.3366z"/></svg>