<svg xmlns="http://www.w3.org/2000/svg" width="24" height="24" fill="none" viewBox="0 0 24 24"><path fill="#000" fill-rule="evenodd" d="M5.0137 4c-1.6569 0-3 1.3431-3 3v10c0 1.6569 1.3431 3 3 3h14c1.6568 0 3-1.3431 3-3V7c0-1.6569-1.3432-3-3-3zm-1 3v-.0038h16V17c0 .5523-.4477 1-1 1h-14c-.5523 0-1-.4477-1-1zm5.2486 4.5675c-.5522 0-1 .4477-1 1s.4478 1 1 1h1.7v1.6999c0 .5523.4477 1 1 1s1-.4477 1-1v-1.6999h1.9051c.5523 0 1-.4477 1-1s-.4477-1-1-1h-1.9051V9.6624c0-.5523-.4477-1-1-1s-1 .4477-1 1v1.9051z"/></svg>