<svg width="24" height="24" viewBox="0 0 24 24" fill="none" xmlns="http://www.w3.org/2000/svg">
<path fill-rule="evenodd" clip-rule="evenodd" d="M12.7679 8.01019C13.0165 8.01019 13.2274 8.1929 13.2628 8.43902L13.3949 9.35745C13.6669 9.46795 13.9218 9.61014 14.1546 9.7794L15.0777 9.41967C15.3043 9.33137 15.5616 9.41893 15.6873 9.62713L16.4418 10.8768C16.575 11.0974 16.5186 11.3832 16.3116 11.5368L15.5432 12.1069C15.5594 12.2392 15.5677 12.3738 15.5677 12.5101C15.5677 12.6466 15.5594 12.7814 15.5431 12.9139L16.3111 13.4842C16.5179 13.6378 16.5742 13.9235 16.441 14.1441L15.6866 15.3937C15.5608 15.602 15.3034 15.6895 15.0768 15.6011L14.1541 15.2411C13.9215 15.4102 13.6667 15.5523 13.3949 15.6627L13.2628 16.5814C13.2274 16.8275 13.0165 17.0102 12.7679 17.0102H11.259C11.0102 17.0102 10.7993 16.8274 10.764 16.5811L10.6324 15.6628C10.3605 15.5523 10.1057 15.4102 9.87306 15.2411L8.95063 15.601C8.72399 15.6894 8.46659 15.6019 8.34085 15.3936L7.5864 14.144C7.45323 13.9234 7.50948 13.6378 7.71634 13.4841L8.48401 12.9141C8.46778 12.7814 8.45944 12.6466 8.45944 12.5101C8.45944 12.3738 8.46775 12.2391 8.48394 12.1067L7.7158 11.5368C7.5088 11.3833 7.45246 11.0975 7.58567 10.8768L8.34013 9.6272C8.46582 9.419 8.7231 9.33144 8.9497 9.41974L9.87262 9.77936C10.1054 9.61009 10.3604 9.46788 10.6324 9.35738L10.764 8.43925C10.7993 8.19303 11.0102 8.01019 11.259 8.01019H12.7679ZM13.1107 12.5102C13.1107 13.116 12.6195 13.6072 12.0136 13.6072C11.4078 13.6072 10.9166 13.116 10.9166 12.5102C10.9166 11.9043 11.4078 11.4131 12.0136 11.4131C12.6195 11.4131 13.1107 11.9043 13.1107 12.5102Z" fill="black"/>
<path fill-rule="evenodd" clip-rule="evenodd" d="M5.01367 4C3.35682 4 2.01367 5.34315 2.01367 7V17C2.01367 18.6569 3.35682 20 5.01367 20H19.0137C20.6705 20 22.0137 18.6569 22.0137 17V7C22.0137 5.34315 20.6705 4 19.0137 4H5.01367ZM4.01367 7L4.01368 6.99615H20.0137L20.0137 7V17C20.0137 17.5523 19.566 18 19.0137 18H5.01367C4.46139 18 4.01367 17.5523 4.01367 17V7Z" fill="black"/>
</svg>
