<svg xmlns="http://www.w3.org/2000/svg" width="24" height="24" fill="none" viewBox="0 0 24 24"><path fill="#000" fill-rule="evenodd" d="M2.0137 7c0-1.6569 1.3431-3 3-3h14c1.6568 0 3 1.3431 3 3v10c0 1.6569-1.3432 3-3 3h-14c-1.6569 0-3-1.3431-3-3zm2-.0038V17c0 .5523.4477 1 1 1h14c.5523 0 1-.4477 1-1V6.9962zm9.2491 1.4428a.5.5 0 0 0-.4949-.4288H11.259a.5.5 0 0 0-.495.429l-.1316.9182a3.6 3.6 0 0 0-.7598.422l-.9229-.3597a.5.5 0 0 0-.6096.2075l-.7544 1.2496a.5.5 0 0 0 .13.66l.7682.5699a3.33 3.33 0 0 0 .0001.8074l-.7677.57a.5.5 0 0 0-.13.6599l.7546 1.2496a.5.5 0 0 0 .6097.2074l.9225-.3599c.2326.1691.4874.3112.7593.4217l.1316.9183a.5.5 0 0 0 .495.4291h1.5089a.5.5 0 0 0 .4949-.4288l.1321-.9187a3.6 3.6 0 0 0 .7592-.4216l.9227.36a.5.5 0 0 0 .6098-.2074l.7544-1.2496a.5.5 0 0 0-.1299-.6599l-.768-.5703a3.32 3.32 0 0 0 .0001-.807l.7684-.5701a.5.5 0 0 0 .1302-.66l-.7545-1.2497a.5.5 0 0 0-.6096-.2074l-.9231.3597a3.6 3.6 0 0 0-.7597-.422zm-1.2491 5.1682c.6058 0 1.097-.4912 1.097-1.097 0-.6059-.4912-1.0971-1.097-1.0971-.6059 0-1.0971.4912-1.0971 1.0971s.4912 1.097 1.0971 1.097"/></svg>