<svg xmlns="http://www.w3.org/2000/svg" width="24" height="24" fill="none" viewBox="0 0 24 24"><path fill="#000" fill-rule="evenodd" d="M13 1c0 .5523-.4477 1-1 1s-1-.4477-1-1 .4477-1 1-1 1 .4477 1 1M5 5c.5523 0 1-.4477 1-1s-.4477-1-1-1-1 .4477-1 1 .4477 1 1 1m14 0c.5523 0 1-.4477 1-1s-.4477-1-1-1-1 .4477-1 1 .4477 1 1 1M5 10c0-3.866 3.134-7 7-7s7 3.134 7 7c0 2.38-1.1882 4.4814-3 5.7452V17c0 1.1046-.8954 2-2 2h-4c-1.1046 0-2-.8954-2-2v-1.2548C6.1882 14.4814 5 12.38 5 10m7-5c-2.7614 0-5 2.2386-5 5 0 1.8494 1.0036 3.4657 2.5007 4.3317a1 1 0 0 1 .4993.8656V17h4v-1.8027a1 1 0 0 1 .4993-.8656C15.9964 13.4657 17 11.8494 17 10c0-2.7614-2.2386-5-5-5m-8 5c0 .5523-.4477 1-1 1s-1-.4477-1-1 .4477-1 1-1 1 .4477 1 1m18 0c0 .5523-.4477 1-1 1s-1-.4477-1-1 .4477-1 1-1 1 .4477 1 1M10 21c-.5523 0-1 .4477-1 1s.4477 1 1 1h4c.5523 0 1-.4477 1-1s-.4477-1-1-1z"/></svg>