<svg width="24" height="24" viewBox="0 0 24 24" fill="none" xmlns="http://www.w3.org/2000/svg">
<path d="M12 2C12.5523 2 13 1.55228 13 1C13 0.447715 12.5523 0 12 0C11.4477 0 11 0.447715 11 1C11 1.55228 11.4477 2 12 2Z" fill="black"/>
<path fill-rule="evenodd" clip-rule="evenodd" d="M5 10C5 6.13401 8.13401 3 12 3C15.866 3 19 6.13401 19 10C19 12.38 17.8118 14.4814 16 15.7452V17C16 18.1046 15.1046 19 14 19H10C8.89543 19 8 18.1046 8 17V15.7452C6.18818 14.4814 5 12.38 5 10ZM12 5C9.23858 5 7 7.23858 7 10C7 11.8494 8.00361 13.4657 9.50073 14.3317C9.80972 14.5104 10 14.8403 10 15.1973V17H14V15.1973C14 14.8403 14.1903 14.5104 14.4993 14.3317C15.9964 13.4657 17 11.8494 17 10C17 7.23858 14.7614 5 12 5Z" fill="black"/>
<path d="M9 22C9 21.4477 9.44772 21 10 21H14C14.5523 21 15 21.4477 15 22C15 22.5523 14.5523 23 14 23H10C9.44772 23 9 22.5523 9 22Z" fill="black"/>
<path d="M3 11C3.55228 11 4 10.5523 4 10C4 9.44771 3.55228 9 3 9C2.44772 9 2 9.44771 2 10C2 10.5523 2.44772 11 3 11Z" fill="black"/>
<path d="M6 4C6 4.55228 5.55228 5 5 5C4.44772 5 4 4.55228 4 4C4 3.44772 4.44772 3 5 3C5.55228 3 6 3.44772 6 4Z" fill="black"/>
<path d="M20 4C20 4.55228 19.5523 5 19 5C18.4477 5 18 4.55228 18 4C18 3.44772 18.4477 3 19 3C19.5523 3 20 3.44772 20 4Z" fill="black"/>
<path d="M21 11C21.5523 11 22 10.5523 22 10C22 9.44771 21.5523 9 21 9C20.4477 9 20 9.44771 20 10C20 10.5523 20.4477 11 21 11Z" fill="black"/>
</svg>
