<svg xmlns="http://www.w3.org/2000/svg" width="24" height="24" fill="none" viewBox="0 0 24 24"><path fill="#000" fill-rule="evenodd" d="M7 1c.5523 0 1 .4477 1 1v1h8V2c0-.5523.4477-1 1-1s1 .4477 1 1v1c2.2091 0 4 1.7909 4 4v11c0 2.2091-1.7909 4-4 4H6c-2.2091 0-4-1.7909-4-4V7c0-2.2091 1.7909-4 4-4V2c0-.5523.4477-1 1-1m13 7H4V7c0-1.1046.8954-2 2-2h12c1.1046 0 2 .8954 2 2zM4 10v8c0 1.1046.8954 2 2 2h12c1.1046 0 2-.8954 2-2v-8zm2.7183 2a.7.7 0 0 0-.7.7v.7195a.7.7 0 0 0 .7.7h.7195a.7.7 0 0 0 .7-.7V12.7a.7.7 0 0 0-.7-.7zm4.2395.7a.7.7 0 0 1 .7-.7h.7194a.7.7 0 0 1 .7.7v.7195a.7.7 0 0 1-.7.7h-.7194a.7.7 0 0 1-.7-.7zm4.9397 0a.7.7 0 0 1 .7-.7h.7194a.7.7 0 0 1 .7.7v.7195a.7.7 0 0 1-.7.7h-.7194a.7.7 0 0 1-.7-.7zM6 16.7234a.7.7 0 0 1 .7-.7h.7195a.7.7 0 0 1 .7.7v.7195a.7.7 0 0 1-.7.7H6.7a.7.7 0 0 1-.7-.7zm5.6487-.5829a.7.7 0 0 0-.7.7v.7195a.7.7 0 0 0 .7.7h.7195a.7.7 0 0 0 .7-.7v-.7195a.7.7 0 0 0-.7-.7z"/></svg>