<svg width="24" height="24" viewBox="0 0 24 24" fill="none" xmlns="http://www.w3.org/2000/svg">
<path d="M6.71831 12C6.33171 12 6.01831 12.3134 6.01831 12.7V13.4195C6.01831 13.8061 6.33171 14.1195 6.71831 14.1195H7.43778C7.82438 14.1195 8.13778 13.8061 8.13778 13.4195V12.7C8.13778 12.3134 7.82438 12 7.43778 12H6.71831Z" fill="black"/>
<path d="M6 16.7234C6 16.3368 6.3134 16.0234 6.7 16.0234H7.41947C7.80607 16.0234 8.11947 16.3368 8.11947 16.7234V17.4429C8.11947 17.8295 7.80607 18.1429 7.41947 18.1429H6.7C6.3134 18.1429 6 17.8295 6 17.4429V16.7234Z" fill="black"/>
<path d="M11.6578 12C11.2712 12 10.9578 12.3134 10.9578 12.7V13.4195C10.9578 13.8061 11.2712 14.1195 11.6578 14.1195H12.3772C12.7638 14.1195 13.0772 13.8061 13.0772 13.4195V12.7C13.0772 12.3134 12.7638 12 12.3772 12H11.6578Z" fill="black"/>
<path d="M10.9487 16.8405C10.9487 16.4539 11.2621 16.1405 11.6487 16.1405H12.3682C12.7548 16.1405 13.0682 16.4539 13.0682 16.8405V17.56C13.0682 17.9466 12.7548 18.26 12.3682 18.26H11.6487C11.2621 18.26 10.9487 17.9466 10.9487 17.56V16.8405Z" fill="black"/>
<path d="M16.5975 12C16.2109 12 15.8975 12.3134 15.8975 12.7V13.4195C15.8975 13.8061 16.2109 14.1195 16.5975 14.1195H17.3169C17.7035 14.1195 18.0169 13.8061 18.0169 13.4195V12.7C18.0169 12.3134 17.7035 12 17.3169 12H16.5975Z" fill="black"/>
<path fill-rule="evenodd" clip-rule="evenodd" d="M8 2C8 1.44772 7.55228 1 7 1C6.44772 1 6 1.44772 6 2V3C3.79086 3 2 4.79086 2 7V18C2 20.2091 3.79086 22 6 22H18C20.2091 22 22 20.2091 22 18V7C22 4.79086 20.2091 3 18 3V2C18 1.44772 17.5523 1 17 1C16.4477 1 16 1.44772 16 2V3H8V2ZM4 18V10H20V18C20 19.1046 19.1046 20 18 20H6C4.89543 20 4 19.1046 4 18ZM4 8H20V7C20 5.89543 19.1046 5 18 5H6C4.89543 5 4 5.89543 4 7V8Z" fill="black"/>
</svg>
