<svg xmlns="http://www.w3.org/2000/svg" width="24" height="24" fill="none" viewBox="0 0 24 24"><path fill="#000" fill-rule="evenodd" d="M20.7072 4.7071 16.4143 9h1.5858c.5523 0 1 .4477 1 1s-.4477 1-1 1h-4c-.5523 0-1-.4477-1-1V6c0-.5523.4477-1 1-1s1 .4477 1 1v1.5858l4.2929-4.2929c.3905-.3905 1.0237-.3905 1.4142 0s.3905 1.0237 0 1.4142M3.0011 3.9555A1 1 0 0 1 4 3h3.2193a2 2 0 0 1 1.9402 1.515l.6724 2.6895a2 2 0 0 1-.534 1.9073l-2.077 2.0535c.6312 1.0232 1.4426 2.0839 2.4862 3.1276 1.0231 1.023 2.0904 1.8239 3.1348 2.451l2.0507-2.0506a2 2 0 0 1 1.8992-.5261l2.6933.6733A2 2 0 0 1 21 16.7808V20c-.0001.5523-.4486 1-1.0009 1C19.9995 21 20 21 20 20l-.0009 1h-.0101l-.0197-.0002q-.024-.0003-.065-.0014a8 8 0 0 1-.228-.0097 12.6 12.6 0 0 1-.813-.0742c-.6865-.0837-1.6475-.2498-2.7705-.5801a18.47 18.47 0 0 1-3.4128-1.3868.99.99 0 0 1-.2964-.1601c-1.3514-.7462-2.7548-1.7446-4.0907-3.0804-1.4052-1.4052-2.4405-2.8484-3.2018-4.2224C3.9748 9.4698 3.4517 7.6118 3.208 6.2493c-.1219-.6816-.1742-1.2407-.1958-1.6361a9 9 0 0 1-.0141-.4661 6 6 0 0 1 .0011-.132l.001-.039.0005-.0127.0002-.0045V3.957zm0 0c0-.0004.0063.0003.999.0445zM5.049 5c.0267.2563.067.5578.1277.8971.1639.9163.4756 2.1046 1.066 3.4229l1.649-1.6304L7.2194 5zm9.659 12.7063a16.5 16.5 0 0 0 1.9492.7093c.9442.2778 1.7547.4237 2.3428.5003v-2.1351l-2.6932-.6733z"/></svg>