<svg width="24" height="24" viewBox="0 0 24 24" fill="none" xmlns="http://www.w3.org/2000/svg">
<path d="M16.4143 9L20.7072 4.70711C21.0978 4.31658 21.0978 3.68342 20.7072 3.29289C20.3167 2.90237 19.6835 2.90237 19.293 3.29289L15.0001 7.58579V6C15.0001 5.44772 14.5524 5 14.0001 5C13.4478 5 13.0001 5.44772 13.0001 6V10C13.0001 10.5523 13.4478 11 14.0001 11H18.0001C18.5524 11 19.0001 10.5523 19.0001 10C19.0001 9.44772 18.5524 9 18.0001 9H16.4143Z" fill="black"/>
<path fill-rule="evenodd" clip-rule="evenodd" d="M4.00006 3C3.46509 3 3.02486 3.42104 3.00105 3.95549L4.00006 4C3.00105 3.95549 3.00107 3.95512 3.00105 3.95549L3.00099 3.95703L3.00091 3.95886L3.00072 3.96341L3.00027 3.97603L2.99921 4.01512C2.99852 4.04726 2.99793 4.09146 2.99807 4.1471C2.99833 4.25835 3.00145 4.41543 3.01225 4.6132C3.03383 5.00856 3.08614 5.56775 3.20803 6.24926C3.45173 7.61182 3.97479 9.4698 5.0912 11.4847C5.85252 12.8587 6.88777 14.3019 8.29302 15.7071C9.62885 17.0429 11.0323 18.0413 12.3837 18.7875C12.4746 18.8588 12.575 18.9122 12.6801 18.9476C13.8975 19.5909 15.0648 20.032 16.0929 20.3344C17.2159 20.6647 18.177 20.8308 18.8634 20.9145C19.2069 20.9564 19.4825 20.9778 19.6764 20.9887C19.7734 20.9941 19.8499 20.9969 19.9044 20.9984C19.9317 20.9992 19.9534 20.9995 19.9694 20.9998L19.9891 21L19.9957 21L19.9992 21C19.9996 21 20.0001 21 20.0001 20L19.9992 21C20.5515 21 21.0001 20.5523 21.0001 20L21.0001 16.7808C21.0001 15.8631 20.3755 15.0631 19.4852 14.8405L16.7919 14.1672C16.1104 13.9968 15.3894 14.1965 14.8927 14.6933L12.8421 16.7439C11.7976 16.1168 10.7303 15.3159 9.70722 14.2929C8.66355 13.2492 7.85221 12.1885 7.22097 11.1653L9.29792 9.11182C9.80037 8.61504 10.0034 7.89002 9.83203 7.20454L9.15963 4.51493C8.93705 3.62459 8.13708 3 7.21935 3H4.00006ZM5.17679 5.89714C5.1161 5.55781 5.07577 5.25631 5.04908 5H7.21935L7.89175 7.68961L6.24281 9.31996C5.65235 8.00167 5.34067 6.81343 5.17679 5.89714ZM16.6573 18.4156C16.0533 18.238 15.396 18.0069 14.7081 17.7063L16.3069 16.1075L19.0001 16.7808L19.0001 18.9159C18.412 18.8393 17.6015 18.6934 16.6573 18.4156Z" fill="black"/>
</svg>
