<svg width="24" height="24" viewBox="0 0 24 24" fill="none" xmlns="http://www.w3.org/2000/svg">
<path fill-rule="evenodd" clip-rule="evenodd" d="M4.0069 3C3.47192 3 3.0317 3.42104 3.00789 3.95549L4.0069 4C3.00789 3.95549 3.00791 3.95512 3.00789 3.95549L3.00782 3.95703L3.00774 3.95886L3.00756 3.96341L3.00711 3.97603L3.00605 4.01512C3.00535 4.04726 3.00477 4.09146 3.0049 4.1471C3.00517 4.25835 3.00829 4.41543 3.01908 4.6132C3.04066 5.00856 3.09297 5.56775 3.21487 6.24926C3.45857 7.61182 3.98162 9.4698 5.09804 11.4847C5.85936 12.8587 6.89461 14.3019 8.29986 15.7071C9.63569 17.0429 11.0392 18.0413 12.3905 18.7875C12.4814 18.8588 12.5818 18.9122 12.6869 18.9476C13.9043 19.5909 15.0716 20.032 16.0998 20.3344C17.2228 20.6647 18.1838 20.8308 18.8702 20.9145C19.2137 20.9564 19.4894 20.9778 19.6832 20.9887C19.7802 20.9941 19.8568 20.9969 19.9113 20.9984C19.9385 20.9992 19.9603 20.9995 19.9763 20.9998L19.996 21L20.0025 21L20.006 21C20.0065 21 20.0069 21 20.0069 20L20.006 21C20.5583 21 21.0069 20.5523 21.0069 20L21.0069 16.7808C21.007 15.8631 20.3824 15.0631 19.492 14.8405L16.7988 14.1672C16.1172 13.9968 15.3963 14.1965 14.8995 14.6933L12.8489 16.7439C11.8045 16.1168 10.7371 15.3159 9.71406 14.2929C8.67039 13.2492 7.85905 12.1885 7.22781 11.1653L9.30476 9.11182C9.8072 8.61504 10.0102 7.89002 9.83887 7.20454L9.16647 4.51493C8.94388 3.62459 8.14392 3 7.22618 3H4.0069ZM5.18362 5.89714C5.12293 5.55781 5.08261 5.25631 5.05592 5H7.22618L7.89858 7.68961L6.24964 9.31996C5.65918 8.00167 5.34751 6.81343 5.18362 5.89714ZM16.6641 18.4156C16.0601 18.238 15.4029 18.0069 14.7149 17.7063L16.3137 16.1075L19.0069 16.7808L19.0069 18.9159C18.4189 18.8393 17.6083 18.6934 16.6641 18.4156Z" fill="black"/>
<path d="M13.2978 9.29289C12.9073 9.68342 12.9073 10.3166 13.2978 10.7071C13.6883 11.0976 14.3215 11.0976 14.712 10.7071L19.0049 6.41421V8C19.0049 8.55228 19.4526 9 20.0049 9C20.5572 9 21.0049 8.55228 21.0049 8V4C21.0049 3.44772 20.5572 3 20.0049 3H16.0049C15.4526 3 15.0049 3.44772 15.0049 4C15.0049 4.55228 15.4526 5 16.0049 5H17.5907L13.2978 9.29289Z" fill="black"/>
</svg>
