<svg xmlns="http://www.w3.org/2000/svg" width="24" height="24" fill="none" viewBox="0 0 24 24"><path fill="#000" fill-rule="evenodd" d="M16 2c-1.6569 0-3 1.3431-3 3v5c0 .5523.4477 1 1 1s1-.4477 1-1h5c1.6569 0 3-1.3431 3-3V5c0-1.6569-1.3431-3-3-3zM4.002 3a1 1 0 0 0-.999.9555c0-.0004.0064.0003.9988.0445l-.9988-.0445v.0015l-.0001.0019-.0002.0045-.0005.0126-.001.0391A6 6 0 0 0 3 4.1471c.0003.1112.0034.2683.0142.4661.0216.3954.0739.9545.1958 1.636.2437 1.3626.7667 3.2206 1.8832 5.2355.7613 1.374 1.7965 2.8172 3.2018 4.2224 1.3358 1.3358 2.7393 2.3342 4.0906 3.0804a1 1 0 0 0 .2964.1601 18.47 18.47 0 0 0 3.4129 1.3868c1.123.3303 2.084.4964 2.7705.5801.3435.0419.6191.0633.813.0742.0969.0054.1735.0082.228.0097q.0409.001.065.0014l.0197.0002h.0109c.5523 0 1-.4477 1-1l.0001-3.2192a2 2 0 0 0-1.515-1.9403l-2.6932-.6733a2 2 0 0 0-1.8993.5261l-2.0506 2.0506a16.27 16.27 0 0 1-3.1348-2.451c-1.0437-1.0437-1.855-2.1044-2.4863-3.1276L9.3 9.1118a2 2 0 0 0 .534-1.9073L9.1617 4.515A2 2 0 0 0 7.2213 3zm16 18c.0005-.0001 0-.0072 0-1zM15 5c0-.5523.4477-1 1-1h4c.5523 0 1 .4477 1 1v2c0 .5523-.4477 1-1 1h-5zm-9.8213.8971A12.4 12.4 0 0 1 5.051 5h2.1703l.6724 2.6896L6.2447 9.32c-.5904-1.3183-.902-2.5066-1.066-3.4229m11.4805 12.5185a16.5 16.5 0 0 1-1.9492-.7093l1.5988-1.5988 2.6933.6733-.0001 2.1351c-.588-.0766-1.3985-.2225-2.3428-.5003"/></svg>