<svg width="24" height="24" viewBox="0 0 24 24" fill="none" xmlns="http://www.w3.org/2000/svg">
<path fill-rule="evenodd" clip-rule="evenodd" d="M4.00202 3C3.46704 3 3.02682 3.42104 3.00301 3.95549L4.00202 4C3.00301 3.95549 3.00302 3.95512 3.00301 3.95549L3.00294 3.95703L3.00286 3.95886L3.00268 3.96341L3.00222 3.97603L3.00117 4.01512C3.00047 4.04726 2.99989 4.09146 3.00002 4.1471C3.00028 4.25835 3.0034 4.41543 3.0142 4.6132C3.03578 5.00856 3.08809 5.56775 3.20998 6.24926C3.45369 7.61182 3.97674 9.4698 5.09316 11.4847C5.85447 12.8587 6.88973 14.3019 8.29497 15.7071C9.6308 17.0429 11.0343 18.0413 12.3856 18.7875C12.4765 18.8588 12.5769 18.9122 12.682 18.9476C13.8994 19.5909 15.0668 20.032 16.0949 20.3344C17.2179 20.6647 18.1789 20.8308 18.8654 20.9145C19.2089 20.9564 19.4845 20.9778 19.6784 20.9887C19.7753 20.9941 19.8519 20.9969 19.9064 20.9984C19.9336 20.9992 19.9554 20.9995 19.9714 20.9998L19.9911 21L19.9977 21L20.0011 21C20.0016 21 20.002 21 20.002 20L20.0011 21C20.5534 21 21.002 20.5523 21.002 20L21.0021 16.7808C21.0021 15.8631 20.3775 15.0631 19.4871 14.8405L16.7939 14.1672C16.1123 13.9968 15.3914 14.1965 14.8946 14.6933L12.844 16.7439C11.7996 16.1168 10.7322 15.3159 9.70918 14.2929C8.66551 13.2492 7.85417 12.1885 7.22292 11.1653L9.29987 9.11182C9.80232 8.61504 10.0054 7.89002 9.83399 7.20454L9.16158 4.51493C8.939 3.62459 8.13903 3 7.2213 3H4.00202ZM5.17874 5.89714C5.11805 5.55781 5.07773 5.25631 5.05104 5H7.2213L7.8937 7.68961L6.24476 9.31996C5.6543 8.00167 5.34263 6.81343 5.17874 5.89714ZM16.6592 18.4156C16.0552 18.238 15.398 18.0069 14.71 17.7063L16.3088 16.1075L19.0021 16.7808L19.002 18.9159C18.414 18.8393 17.6035 18.6934 16.6592 18.4156Z" fill="black"/>
<path d="M13.2929 9.29289C12.9024 9.68342 12.9024 10.3166 13.2929 10.7071C13.6834 11.0976 14.3166 11.0976 14.7071 10.7071L19 6.41421V8C19 8.55228 19.4477 9 20 9C20.5523 9 21 8.55228 21 8V4C21 3.44772 20.5523 3 20 3H16C15.4477 3 15 3.44772 15 4C15 4.55228 15.4477 5 16 5H17.5858L13.2929 9.29289Z" fill="black"/>
</svg>
