<svg xmlns="http://www.w3.org/2000/svg" width="24" height="24" fill="none" viewBox="0 0 24 24"><path fill="#000" fill-rule="evenodd" d="M13.2929 10.7071c-.3905-.3905-.3905-1.0237 0-1.4142L17.5858 5H16c-.5523 0-1-.4477-1-1s.4477-1 1-1h4c.5523 0 1 .4477 1 1v4c0 .5523-.4477 1-1 1s-1-.4477-1-1V6.4142l-4.2929 4.2929c-.3905.3905-1.0237.3905-1.4142 0M3.003 3.9555A1 1 0 0 1 4.002 3h3.2193a2 2 0 0 1 1.9403 1.515l.6724 2.6895a2 2 0 0 1-.5341 1.9073l-2.077 2.0535c.6313 1.0232 1.4426 2.0839 2.4863 3.1276a16.27 16.27 0 0 0 3.1348 2.451l2.0506-2.0506a2 2 0 0 1 1.8993-.5261l2.6932.6733a2 2 0 0 1 1.515 1.9403L21.002 20c0 .5523-.4486 1-1.0009 1 .0005 0 .0009 0 .0009-1l-.0009 1h-.01l-.0197-.0002q-.0241-.0003-.065-.0014a8 8 0 0 1-.228-.0097 12.6 12.6 0 0 1-.813-.0742c-.6865-.0837-1.6475-.2498-2.7705-.5801a18.47 18.47 0 0 1-3.4129-1.3868.99.99 0 0 1-.2964-.1601c-1.3513-.7462-2.7548-1.7446-4.0906-3.0804-1.4053-1.4052-2.4405-2.8484-3.2018-4.2224C3.9767 9.4698 3.4537 7.6118 3.21 6.2493c-.122-.6816-.1742-1.2407-.1958-1.6361A9 9 0 0 1 3 4.1471a6 6 0 0 1 .0012-.132l.001-.039.0005-.0127.0002-.0045V3.957zm0 0c0-.0004.0064.0003.999.0445zM5.051 5c.0267.2563.067.5578.1277.8971.164.9163.4756 2.1046 1.066 3.4229l1.649-1.6304L7.2213 5zm9.659 12.7063c.688.3006 1.3452.5317 1.9492.7093.9443.2778 1.7548.4237 2.3428.5003l.0001-2.1351-2.6933-.6733z"/></svg>