<svg xmlns="http://www.w3.org/2000/svg" width="24" height="24" fill="none" viewBox="0 0 24 24"><path fill="#000" fill-rule="evenodd" d="m14.4142 4 .2929-.293c.396-.396.396-1.0182 0-1.4142s-1.0182-.396-1.4142 0l-2 2-.0023.0024c-.2803.282-.3606.6778-.241 1.025q.0704.213.241.3845l.0023.0024 2 2c.396.396 1.0182.396 1.4142 0s.396-1.0183 0-1.4143L14.4142 6H18.5q.3107 0 .5758.1098t.4849.3295q.2196.2196.3295.4848Q20 7.1893 20 7.5t-.1098.5758q-.11.2652-.3295.4848-.2197.2197-.4849.3295T18.5 9H17c-.56 0-1 .44-1 1s.44 1 1 1h1.5q.7249 0 1.3436-.2563.6188-.2563 1.1313-.7689.5126-.5125.7688-1.1313Q22 8.225 22 7.5q0-.7248-.2563-1.3435t-.7688-1.1313-1.1313-.7689T18.5 4zM4.002 3a1 1 0 0 0-.999.9554c0-.0003.0065.0003.9988.0445l-.9988-.0445v.0016l-.0001.0018-.0002.0046-.0005.0126-.001.039A5 5 0 0 0 3 4.147c.0003.1113.0034.2684.0142.4661.0216.3954.0739.9546.1958 1.6361.2437 1.3625.7668 3.2205 1.8832 5.2354.7613 1.374 1.7965 2.8172 3.2018 4.2224 1.3358 1.3359 2.7393 2.3343 4.0906 3.0804a.99.99 0 0 0 .2964.1602 18.5 18.5 0 0 0 3.4129 1.3867c1.123.3303 2.084.4964 2.7705.5802.3435.0418.6191.0632.813.0741a8 8 0 0 0 .293.0111l.0197.0002h.0109c.5523 0 1-.4477 1-.9999l.0001-3.2193a2 2 0 0 0-1.515-1.9403l-2.6932-.6733a2 2 0 0 0-1.8993.5261l-2.0506 2.0506a16.26 16.26 0 0 1-3.1348-2.451c-1.0437-1.0436-1.855-2.1043-2.4863-3.1275L9.3 9.1118a2 2 0 0 0 .534-1.9073l-.6723-2.6896a2 2 0 0 0-1.9403-1.515zm16 17.9999c.0005 0 0-.0073 0-1zM5.1787 5.8971a12.4 12.4 0 0 1-.1277-.8972h2.1703l.6724 2.6896L6.2447 9.32c-.5904-1.3183-.902-2.5065-1.066-3.4228m11.4805 12.5185a16.5 16.5 0 0 1-1.9492-.7094l1.5988-1.5988 2.6933.6733v2.1352c-.5881-.0766-1.3986-.2226-2.3429-.5003"/></svg>