<svg width="24" height="24" viewBox="0 0 24 24" fill="none" xmlns="http://www.w3.org/2000/svg">
<path fill-rule="evenodd" clip-rule="evenodd" d="M12 10C9.79086 10 8 11.7909 8 14C8 16.2091 9.79086 18 12 18C14.2091 18 16 16.2091 16 14C16 11.7909 14.2091 10 12 10ZM10 14C10 12.8954 10.8954 12 12 12C13.1046 12 14 12.8954 14 14C14 15.1046 13.1046 16 12 16C10.8954 16 10 15.1046 10 14Z" fill="black"/>
<path fill-rule="evenodd" clip-rule="evenodd" d="M3 4C3 2.89543 3.89543 2 5 2H19C20.1046 2 21 2.89543 21 4V6C21 6.74028 20.5978 7.38663 20 7.73244V14C20 18.4183 16.4183 22 12 22C7.58172 22 4 18.4183 4 14V7.73244C3.4022 7.38663 3 6.74028 3 6V4ZM6 8H18V14C18 17.3137 15.3137 20 12 20C8.68629 20 6 17.3137 6 14V8ZM19 6H5V4H19V6Z" fill="black"/>
</svg>
