<svg xmlns="http://www.w3.org/2000/svg" width="24" height="24" fill="none" viewBox="0 0 24 24"><path fill="#000" fill-rule="evenodd" d="M6.5528 4.6584A3 3 0 0 1 9.236 3h5.5278a3 3 0 0 1 2.6833 1.6584L17.618 5H19c1.6569 0 3 1.3431 3 3v9c0 1.6569-1.3431 3-3 3H5c-1.6569 0-3-1.3431-3-3V8c0-1.6569 1.3431-3 3-3h1.382zM9.236 5a1 1 0 0 0-.8945.5528l-.1708.3416A2 2 0 0 1 6.382 7H5c-.5523 0-1 .4477-1 1v9c0 .5523.4477 1 1 1h14c.5523 0 1-.4477 1-1V8c0-.5523-.4477-1-1-1h-1.382a2 2 0 0 1-1.7888-1.1056l-.1708-.3416A1 1 0 0 0 14.7639 5zM7 12c0-2.7614 2.2386-5 5-5s5 2.2386 5 5-2.2386 5-5 5-5-2.2386-5-5m5-3c-1.6569 0-3 1.3431-3 3s1.3431 3 3 3 3-1.3431 3-3-1.3431-3-3-3"/></svg>