<svg xmlns="http://www.w3.org/2000/svg" width="24" height="24" fill="none" viewBox="0 0 24 24"><path fill="#000" fill-rule="evenodd" d="M12 2c-4.4183 0-8 3.5817-8 8 0 2.4699 1.1193 4.6784 2.8783 6.1458l-1.5641 2.4809C4.3905 20.0917 5.4433 22 7.1752 22h9.5833c1.7569 0 2.805-1.9578 1.8309-3.4198l-1.5674-2.3525C18.8383 14.7611 20 12.5162 20 10c0-4.4183-3.5817-8-8-8m-6 8c0-3.3137 2.6863-6 6-6s6 2.6863 6 6-2.6863 6-6 6-6-2.6863-6-6m6-4c-2.2091 0-4 1.7909-4 4s1.7909 4 4 4 4-1.7909 4-4-1.7909-4-4-4m-2 4c0-1.1046.8954-2 2-2s2 .8954 2 2-.8954 2-2 2-2-.8954-2-2m-2.994 9.6933 1.5559-2.4677C9.6034 17.7221 10.7693 18 12 18c1.1845 0 2.3089-.2574 3.3203-.7194l1.6047 2.4085c.0885.1329-.0067.3109-.1665.3109H7.1752c-.1575 0-.2532-.1735-.1692-.3067"/></svg>