<svg xmlns="http://www.w3.org/2000/svg" width="24" height="24" fill="none" viewBox="0 0 24 24"><path fill="#000" d="M8.7953 8.7955c.3906-.3906 1.0237-.3906 1.4142 0L12 10.5859l1.7905-1.7904c.3905-.3906 1.0236-.3906 1.4142 0s.3905 1.0237 0 1.4142l-1.7905 1.7904 1.7903 1.7903c.3905.3905.3905 1.0237 0 1.4142s-1.0237.3905-1.4142 0L12 13.4143l-1.7903 1.7903c-.3905.3905-1.0237.3905-1.4142 0s-.3905-1.0237 0-1.4142l1.7903-1.7903-1.7905-1.7904c-.3905-.3905-.3905-1.0237 0-1.4142"/><path fill="#000" fill-rule="evenodd" d="M2 12C2 6.4772 6.4772 2 12 2s10 4.4772 10 10-4.4772 10-10 10S2 17.5228 2 12m10-8c-4.4183 0-8 3.5817-8 8s3.5817 8 8 8 8-3.5817 8-8-3.5817-8-8-8" clip-rule="evenodd"/></svg>