<svg xmlns="http://www.w3.org/2000/svg" width="24" height="24" fill="none" viewBox="0 0 24 24"><path fill="#000" fill-rule="evenodd" d="M11.2929 2.2929c.3905-.3905 1.0237-.3905 1.4142 0L16.4142 6H18c1.1046 0 2 .8954 2 2v1h2c.5523 0 1 .4477 1 1v4c0 .5523-.4477 1-1 1H9c-.5523 0-1-.4477-1-1v-2c-2.2091 0-4 1.7909-4 4s1.7909 4 4 4h6c.5523 0 1 .4477 1 1s-.4477 1-1 1H8c-3.3137 0-6-2.6863-6-6s2.6863-6 6-6V7c0-.5523.4477-1 1-1h4.5858l-2.2929-2.2929c-.3905-.3905-.3905-1.0237 0-1.4142M9.9999 8v5H21v-2h-2c-.5523 0-1-.4477-1-1V8z" clip-rule="evenodd"/></svg>