<svg xmlns="http://www.w3.org/2000/svg" width="24" height="24" fill="none" viewBox="0 0 24 24"><path fill="#000" d="M10.8273 10.1449a.65.65 0 0 0-.975.563v4.2844a.65.65 0 0 0 .975.5629l3.7104-2.1422a.6498.6498 0 0 0 0-1.1258z"/><path fill="#000" fill-rule="evenodd" d="M10.2179 2.8501a1 1 0 0 0-.9907.8642l-.2937 2.143a7.57 7.57 0 0 0-1.6924.9785l-2.0052-.817a1 1 0 0 0-1.2434.426L2.369 9.2565a1 1 0 0 0 .2531 1.2901l1.7104 1.3269a7.6 7.6 0 0 0-.0625.9763c0 .3309.0213.6573.0626.9777l-1.7093 1.3274a1 1 0 0 0-.2527 1.2898l1.6234 2.8117a1 1 0 0 0 1.2438.4259l2.0042-.8177a7.56 7.56 0 0 0 1.6913.9778l.2938 2.1435a1 1 0 0 0 .9907.8642h3.2467a1 1 0 0 0 .9907-.8638l.2948-2.1441a7.56 7.56 0 0 0 1.691-.9777l2.0048.818a1 1 0 0 0 1.2438-.4259l1.6233-2.8118a1 1 0 0 0-.2527-1.2898l-1.7099-1.3278a7.6 7.6 0 0 0 .0626-.9774c0-.3303-.0212-.6561-.0624-.976l1.711-1.3273a1 1 0 0 0 .253-1.2901l-1.6233-2.8117a1 1 0 0 0-1.2434-.4261l-2.0058.8173a7.57 7.57 0 0 0-1.692-.9785l-.2948-2.1436a1 1 0 0 0-.9907-.8637zm.5298 4.4988.3425-2.4988h1.5025l.3437 2.499.6008.1917a5.565 5.565 0 0 1 2.0531 1.1873l.4664.4245 2.3385-.9529.7512 1.3012-1.9933 1.5465.1335.6157c.0827.3815.1264.7785.1264 1.1867 0 .4086-.0438.8058-.1266 1.1876l-.1335.6156 1.9921 1.5469-.7512 1.3012-2.3374-.9536-.4666.4246a5.57 5.57 0 0 1-2.0526 1.1868l-.6007.1917-.3438 2.4995h-1.5025l-.3426-2.4993-.6011-.1918a5.56 5.56 0 0 1-2.053-1.1869l-.4667-.4245-2.3368.9534-.7513-1.3012 1.9916-1.5466-.1335-.6155a5.6 5.6 0 0 1-.1267-1.1879c0-.4083.0438-.8053.1265-1.187l.1335-.6157-1.9928-1.546.7513-1.3012 2.3379.9526.4664-.4245a5.565 5.565 0 0 1 2.0536-1.1874z" clip-rule="evenodd"/></svg>