<svg xmlns="http://www.w3.org/2000/svg" width="24" height="24" fill="none" viewBox="0 0 24 24"><path fill="#000" fill-rule="evenodd" d="M3.7639 10H3c-.5523 0-1-.4477-1-1s.4477-1 1-1h1.4692l.682-2.7276C5.485 3.9369 6.685 3 8.0615 3h7.8768c1.3767 0 2.5766.9369 2.9105 2.2724L19.5308 8H21c.5523 0 1 .4477 1 1s-.4477 1-1 1h-.7639A2.99 2.99 0 0 1 21 12v4c0 1.3062-.8348 2.4175-2 2.8293V20c0 .5523-.4477 1-1 1s-1-.4477-1-1v-1H7v1c0 .5523-.4477 1-1 1s-1-.4477-1-1v-1.1707C3.8348 18.4175 3 17.3062 3 16v-4a2.99 2.99 0 0 1 .7639-2m4.2977-5a1 1 0 0 0-.9702.7575L6.2808 9h11.4384l-.8106-3.2425A1 1 0 0 0 15.9384 5zM19 16c0 .5523-.4477 1-1 1H6c-.5523 0-1-.4477-1-1v-4c0-.5523.4477-1 1-1h12c.5523 0 1 .4477 1 1zM9 13.5c0 .8284-.6716 1.5-1.5 1.5S6 14.3284 6 13.5 6.6716 12 7.5 12s1.5.6716 1.5 1.5m7.5 1.5c.8284 0 1.5-.6716 1.5-1.5s-.6716-1.5-1.5-1.5-1.5.6716-1.5 1.5.6716 1.5 1.5 1.5"/></svg>