<svg width="24" height="24" viewBox="0 0 24 24" fill="none" xmlns="http://www.w3.org/2000/svg">
<path d="M6.00018 13C5.4479 13 5.00018 13.4477 5.00018 14C5.00018 14.5523 5.4479 15 6.00018 15H12.0002C12.5525 15 13.0002 14.5523 13.0002 14C13.0002 13.4477 12.5525 13 12.0002 13H6.00018Z" fill="black"/>
<path fill-rule="evenodd" clip-rule="evenodd" d="M5.01367 4C3.35682 4 2.01367 5.34315 2.01367 7V17C2.01367 18.6569 3.35682 20 5.01367 20H19.0137C20.6705 20 22.0137 18.6569 22.0137 17V7C22.0137 5.34315 20.6705 4 19.0137 4H5.01367ZM19.0137 6H5.01367C4.46139 6 4.01367 6.44772 4.01367 7V8H20.0137V7C20.0137 6.44771 19.566 6 19.0137 6ZM4.01367 17V10H20.0137V17C20.0137 17.5523 19.566 18 19.0137 18H5.01367C4.46139 18 4.01367 17.5523 4.01367 17Z" fill="black"/>
</svg>
