<svg width="24" height="24" viewBox="0 0 24 24" fill="none" xmlns="http://www.w3.org/2000/svg">
<path fill-rule="evenodd" clip-rule="evenodd" d="M7 4C7 2.89543 7.89543 2 9 2H15C16.1046 2 17 2.89543 17 4V6H20C21.1046 6 22 6.89543 22 8V13L2 13V8C2 6.89543 2.89543 6 4 6H7V4ZM15 4V6H9V4H15Z" fill="black"/>
<path d="M2 15V20C2 21.1046 2.89543 22 4 22H20C21.1046 22 22 21.1046 22 20V15L17 15V16C17 16.5523 16.5523 17 16 17C15.4477 17 15 16.5523 15 16V15H9V16C9 16.5523 8.55228 17 8 17C7.44772 17 7 16.5523 7 16V15H2Z" fill="black"/>
</svg>
