<svg xmlns="http://www.w3.org/2000/svg" width="24" height="24" fill="none" viewBox="0 0 24 24"><path fill="#000" fill-rule="evenodd" d="M8.7392 3.7441a1.0005 1.0005 0 0 0-1.877-.1601l-.0556.1582-4.2725 16a.9994.9994 0 0 0 .708 1.2236.9995.9995 0 0 0 1.2236-.708L5.6024 16h4.3057l1.125 4.2559c.1413.5337.6889.8519 1.2227.7109.5336-.1413.8519-.6889.7109-1.2227zM9.3798 14H6.1366l1.63-6.1055zm12.6201 0c0-1.6568-1.3432-2.9999-3-3h-1c-1.6568 0-3 1.3431-3 3 0 .5523.4477 1 1 1 .5176 0 .9438-.3934.9951-.8975l.0098-.205A1.0003 1.0003 0 0 1 17.9999 13h1c.5523.0001 1 .4477 1 1v1h-2c-1.6568 0-3 1.3431-3 3s1.3432 3 3 3h3l.1026-.0049c.504-.0514.8974-.4775.8974-.9951zm-5 4c0-.5523.4477-1 1-1h2v2h-2c-.5523 0-1-.4477-1-1"/></svg>