<svg width="24" height="24" viewBox="0 0 24 24" fill="none" xmlns="http://www.w3.org/2000/svg">
<path fill-rule="evenodd" clip-rule="evenodd" d="M8.92825 5.62861C8.77639 5.24895 8.40868 5 7.99978 5C7.59087 5 7.22316 5.24895 7.0713 5.62861L3.0713 15.6286C2.86619 16.1414 3.1156 16.7234 3.62839 16.9285C4.14117 17.1336 4.72314 16.8842 4.92825 16.3714L5.87681 14H10.1227L11.0713 16.3714C11.2764 16.8842 11.8584 17.1336 12.3712 16.9285C12.884 16.7234 13.1334 16.1414 12.9283 15.6286L8.92825 5.62861ZM9.32274 12L7.99978 8.69258L6.67681 12H9.32274Z" fill="black"/>
<path fill-rule="evenodd" clip-rule="evenodd" d="M16.9998 9C16.4475 9 15.9998 9.44772 15.9998 10C15.9998 10.5523 15.5521 11 14.9998 11C14.4475 11 13.9998 10.5523 13.9998 10C13.9998 8.34315 15.3429 7 16.9998 7H17.9998C19.6566 7 20.9998 8.34315 20.9998 10V16C20.9998 16.5523 20.5521 17 19.9998 17H16.7498C15.231 17 13.9998 15.7688 13.9998 14.25C13.9998 12.7312 15.231 11.5 16.7498 11.5H18.9998V10C18.9998 9.44772 18.5521 9 17.9998 9H16.9998ZM18.9998 13.5H16.7498C16.3356 13.5 15.9998 13.8358 15.9998 14.25C15.9998 14.6642 16.3356 15 16.7498 15H18.9998V13.5Z" fill="black"/>
</svg>
