<svg width="24" height="24" viewBox="0 0 24 24" fill="none" xmlns="http://www.w3.org/2000/svg">
<path fill-rule="evenodd" clip-rule="evenodd" d="M18.9999 11C20.6567 11.0001 21.9999 12.3432 21.9999 14V20C21.9999 20.5176 21.6065 20.9437 21.1024 20.9951L20.9999 21H17.9999C16.3431 21 14.9999 19.6569 14.9999 18C14.9999 16.3431 16.3431 15 17.9999 15H19.9999V14C19.9999 13.4477 19.5522 13.0001 18.9999 13H17.9999C17.4822 13 17.0561 13.3933 17.0048 13.8975L16.995 14.1025C16.9437 14.6066 16.5175 15 15.9999 15C15.4476 15 14.9999 14.5523 14.9999 14C14.9999 12.3431 16.3431 11 17.9999 11H18.9999ZM17.9999 17C17.4476 17 16.9999 17.4477 16.9999 18C16.9999 18.5523 17.4476 19 17.9999 19H19.9999V17H17.9999Z" fill="black"/>
<path fill-rule="evenodd" clip-rule="evenodd" d="M7.77335 3C8.2266 3.00063 8.62323 3.30599 8.73917 3.74414L12.9667 19.7441C13.1077 20.2779 12.7894 20.8255 12.2558 20.9668C11.722 21.1078 11.1744 20.7896 11.0331 20.2559L9.90811 16H5.60245L4.46573 20.2578C4.32326 20.7913 3.77563 21.1082 3.2421 20.9658C2.70853 20.8233 2.39166 20.2758 2.53409 19.7422L6.80655 3.74219L6.86221 3.58399C7.02278 3.23237 7.37674 2.99956 7.77335 3ZM6.13663 14H9.37979L7.76651 7.89453L6.13663 14Z" fill="black"/>
</svg>
