<svg width="24" height="24" viewBox="0 0 24 24" fill="none" xmlns="http://www.w3.org/2000/svg">
<path d="M9.19156 7.5C9.19156 8.32843 8.50571 9 7.65968 9C6.81364 9 6.1278 8.32843 6.1278 7.5C6.1278 6.67157 6.81364 6 7.65968 6C8.50571 6 9.19156 6.67157 9.19156 7.5Z" fill="black"/>
<path d="M18.3828 7.5C18.3828 8.32843 17.697 9 16.851 9C16.0049 9 15.3191 8.32843 15.3191 7.5C15.3191 6.67157 16.0049 6 16.851 6C17.697 6 18.3828 6.67157 18.3828 7.5Z" fill="black"/>
<path d="M11.2341 12V10C11.2341 9.44772 11.6913 9 12.2553 9C12.8193 9 13.2766 9.44772 13.2766 10V12C13.2766 13.1046 14.191 14 15.3191 14C16.4471 14 17.3616 13.1046 17.3616 12C17.3616 11.4477 17.8188 11 18.3828 11C18.9469 11 19.4041 11.4477 19.4041 12C19.4041 14.2091 17.5752 16 15.3191 16C14.099 16 13.0038 15.4762 12.2553 14.6458C11.5068 15.4762 10.4116 16 9.19156 16C6.93547 16 5.10654 14.2091 5.10654 12C5.10654 11.4477 5.56377 11 6.1278 11C6.69182 11 7.14905 11.4477 7.14905 12C7.14905 13.1046 8.06351 14 9.19156 14C10.3196 14 11.2341 13.1046 11.2341 12Z" fill="black"/>
<path d="M23.3014 10.9487C23.8365 10.774 24.1257 10.2077 23.9473 9.68377C23.769 9.15983 23.1906 8.87667 22.6555 9.05132L21.1236 9.55132C20.5886 9.72596 20.2994 10.2923 20.4777 10.8162C20.6561 11.3402 21.2345 11.6233 21.7695 11.4487L23.3014 10.9487Z" fill="black"/>
<path d="M23.9473 14.8162C24.1257 14.2923 23.8365 13.726 23.3014 13.5513L21.7695 13.0513C21.2345 12.8767 20.6561 13.1598 20.4777 13.6838C20.2994 14.2077 20.5886 14.774 21.1236 14.9487L22.6555 15.4487C23.1906 15.6233 23.769 15.3402 23.9473 14.8162Z" fill="black"/>
<path d="M0.698582 10.9487C0.163503 10.774 -0.125675 10.2077 0.0526844 9.68377C0.231044 9.15983 0.8094 8.87667 1.34448 9.05132L2.87636 9.55132C3.41144 9.72596 3.70062 10.2923 3.52226 10.8162C3.3439 11.3402 2.76554 11.6233 2.23046 11.4487L0.698582 10.9487Z" fill="black"/>
<path d="M0.0526844 14.8162C-0.125675 14.2923 0.163503 13.726 0.698582 13.5513L2.23046 13.0513C2.76554 12.8767 3.3439 13.1598 3.52226 13.6838C3.70062 14.2077 3.41144 14.774 2.87636 14.9487L1.34448 15.4487C0.8094 15.6233 0.231044 15.3402 0.0526844 14.8162Z" fill="black"/>
</svg>
