<svg xmlns="http://www.w3.org/2000/svg" width="24" height="24" fill="none" viewBox="0 0 24 24"><path fill="#000" fill-rule="evenodd" d="M7.6597 9c.846 0 1.5319-.6716 1.5319-1.5S8.5057 6 7.6596 6c-.846 0-1.5318.6716-1.5318 1.5S6.8136 9 7.6597 9m9.1913 0c.846 0 1.5318-.6716 1.5318-1.5S17.697 6 16.851 6s-1.5319.6716-1.5319 1.5S16.0049 9 16.851 9m7.0963.6838c.1784.5239-.1108 1.0902-.6459 1.2649l-1.5319.5c-.535.1746-1.1134-.1085-1.2918-.6325-.1783-.5239.1109-1.0902.6459-1.2649l1.5319-.5c.5351-.1746 1.1135.1085 1.2918.6325m-23.8946 0c-.1784.5239.1108 1.0902.6459 1.2649l1.5319.5c.535.1746 1.1134-.1085 1.2918-.6325.1783-.5239-.1109-1.0902-.646-1.2649l-1.5318-.5C.8094 8.8767.231 9.1598.0527 9.6838M11.234 10c0-.5523.4572-1 1.0212-1s1.0213.4477 1.0213 1v2c0 1.1046.9144 2 2.0425 2s2.0425-.8954 2.0425-2c0-.5523.4572-1 1.0212-1s1.0213.4477 1.0213 1c0 2.2091-1.8289 4-4.085 4-1.2201 0-2.3153-.5238-3.0638-1.3542C11.5068 15.4762 10.4116 16 9.1916 16c-2.2561 0-4.085-1.7909-4.085-4 0-.5523.4572-1 1.0212-1s1.0212.4477 1.0212 1c0 1.1046.9145 2 2.0426 2 1.128 0 2.0425-.8954 2.0425-2zm12.0673 3.5513c.5351.1747.8243.741.6459 1.2649-.1783.524-.7567.8071-1.2918.6325l-1.5319-.5c-.535-.1747-.8242-.741-.6459-1.2649.1784-.524.7568-.8071 1.2918-.6325zm-22.6028 0c-.5351.1747-.8243.741-.646 1.2649.1784.524.7568.8071 1.2919.6325l1.5319-.5c.535-.1747.8242-.741.6459-1.2649-.1784-.524-.7568-.8071-1.2918-.6325z"/></svg>