<svg width="24" height="24" viewBox="0 0 24 24" fill="none" xmlns="http://www.w3.org/2000/svg">
<g clip-path="url(#clip0_34265_73)">
<path d="M8.99978 7.5C8.99978 8.32843 8.32821 9 7.49978 9C6.67136 9 5.99978 8.32843 5.99978 7.5C5.99978 6.67157 6.67136 6 7.49978 6C8.32821 6 8.99978 6.67157 8.99978 7.5Z" fill="black"/>
<path d="M17.9998 7.5C17.9998 8.32843 17.3282 9 16.4998 9C15.6714 9 14.9998 8.32843 14.9998 7.5C14.9998 6.67157 15.6714 6 16.4998 6C17.3282 6 17.9998 6.67157 17.9998 7.5Z" fill="black"/>
<path d="M10.9998 12V10C10.9998 9.44772 11.4475 9 11.9998 9C12.5521 9 12.9998 9.44772 12.9998 10V12C12.9998 13.1046 13.8952 14 14.9998 14C16.1044 14 16.9998 13.1046 16.9998 12C16.9998 11.4477 17.4475 11 17.9998 11C18.5521 11 18.9998 11.4477 18.9998 12C18.9998 14.2091 17.2089 16 14.9998 16C13.8051 16 12.7327 15.4762 11.9998 14.6458C11.2668 15.4762 10.1945 16 8.99978 16C6.79064 16 4.99978 14.2091 4.99978 12C4.99978 11.4477 5.4475 11 5.99978 11C6.55207 11 6.99978 11.4477 6.99978 12C6.99978 13.1046 7.89521 14 8.99978 14C10.1044 14 10.9998 13.1046 10.9998 12Z" fill="black"/>
<path d="M22.816 10.9487C23.34 10.774 23.6231 10.2077 23.4485 9.68377C23.2738 9.15983 22.7075 8.87667 22.1836 9.05132L20.6836 9.55132C20.1596 9.72596 19.8765 10.2923 20.0511 10.8162C20.2257 11.3402 20.7921 11.6233 21.316 11.4487L22.816 10.9487Z" fill="black"/>
<path d="M23.4485 14.8162C23.6231 14.2923 23.34 13.726 22.816 13.5513L21.316 13.0513C20.7921 12.8767 20.2257 13.1598 20.0511 13.6838C19.8765 14.2077 20.1596 14.774 20.6836 14.9487L22.1836 15.4487C22.7075 15.6233 23.2738 15.3402 23.4485 14.8162Z" fill="black"/>
<path d="M0.683555 10.9487C0.159612 10.774 -0.123548 10.2077 0.0510997 9.68377C0.225748 9.15983 0.792068 8.87667 1.31601 9.05132L2.81601 9.55132C3.33995 9.72596 3.62311 10.2923 3.44847 10.8162C3.27382 11.3402 2.7075 11.6233 2.18356 11.4487L0.683555 10.9487Z" fill="black"/>
<path d="M0.0510997 14.8162C-0.123548 14.2923 0.159612 13.726 0.683555 13.5513L2.18356 13.0513C2.7075 12.8767 3.27382 13.1598 3.44847 13.6838C3.62311 14.2077 3.33995 14.774 2.81601 14.9487L1.31601 15.4487C0.792068 15.6233 0.225748 15.3402 0.0510997 14.8162Z" fill="black"/>
</g>
<defs>
<clipPath id="clip0_34265_73">
<rect width="24" height="24" fill="white"/>
</clipPath>
</defs>
</svg>
