<svg width="24" height="24" viewBox="0 0 24 24" fill="none" xmlns="http://www.w3.org/2000/svg">
<path d="M2.29289 6.29289C2.10536 6.48043 2 6.73478 2 7C2 7.26522 2.10536 7.51957 2.29289 7.70711L6.29289 11.7071C6.68342 12.0976 7.31658 12.0976 7.70711 11.7071C8.09763 11.3166 8.09763 10.6834 7.70711 10.2929L5.41421 8L13 8C13.5523 8 14 7.55229 14 7C14 6.44772 13.5523 6 13 6L5.41421 6L7.70711 3.70711C8.09763 3.31658 8.09763 2.68342 7.70711 2.29289C7.31658 1.90237 6.68342 1.90237 6.29289 2.29289L2.29289 6.29289Z" fill="black"/>
<path d="M18.5858 16L16.2929 13.7071C15.9024 13.3166 15.9024 12.6834 16.2929 12.2929C16.6834 11.9024 17.3166 11.9024 17.7071 12.2929L21.7071 16.2929C21.8946 16.4804 22 16.7348 22 17C22 17.2652 21.8946 17.5196 21.7071 17.7071L17.7071 21.7071C17.3166 22.0976 16.6834 22.0976 16.2929 21.7071C15.9024 21.3166 15.9024 20.6834 16.2929 20.2929L18.5858 18H11C10.4477 18 10 17.5523 10 17C10 16.4477 10.4477 16 11 16H18.5858Z" fill="black"/>
</svg>
