<svg xmlns="http://www.w3.org/2000/svg" width="24" height="24" fill="none" viewBox="0 0 24 24"><path d="M0 24h24V0H0z"/><path fill="#000" fill-rule="evenodd" d="M16.2929 3.7071c-.3905-.3905-.3905-1.0237 0-1.4142s1.0237-.3905 1.4142 0l4 4c.3905.3905.3905 1.0237 0 1.4142l-4 4c-.3905.3906-1.0237.3906-1.4142 0s-.3905-1.0237 0-1.4142L18.5858 8H10c-.5523 0-1-.4477-1-1s.4477-1 1-1h8.5858zM7.7071 20.293c.3905.3905.3905 1.0237 0 1.4142-.3905.3906-1.0237.3906-1.4142 0l-4-4A.997.997 0 0 1 2 17.003v-.006a.997.997 0 0 1 .2839-.695l.01-.0102 3.999-3.9989c.3905-.3905 1.0237-.3905 1.4142 0s.3905 1.0237 0 1.4142L5.4142 16H14c.5523 0 1 .4477 1 1s-.4477 1-1 1H5.4142z"/></svg>