<svg xmlns="http://www.w3.org/2000/svg" width="24" height="24" fill="none" viewBox="0 0 24 24"><path fill="#000" fill-rule="evenodd" d="M2 7a1 1 0 0 1 .2929-.7071l4-4c.3905-.3905 1.0237-.3905 1.4142 0s.3905 1.0237 0 1.4142L5.4142 6H13c.5523 0 1 .4477 1 1s-.4477 1-1 1H5.4142l2.2929 2.2929c.3905.3905.3905 1.0237 0 1.4142s-1.0237.3905-1.4142 0l-4-4A1 1 0 0 1 2 7m14.2929 6.7071L18.5858 16H11c-.5523 0-1 .4477-1 1s.4477 1 1 1h7.5858l-2.2929 2.2929c-.3905.3905-.3905 1.0237 0 1.4142s1.0237.3905 1.4142 0l4-4a1 1 0 0 0 0-1.4142l-4-4c-.3905-.3905-1.0237-.3905-1.4142 0s-.3905 1.0237 0 1.4142"/></svg>