<svg xmlns="http://www.w3.org/2000/svg" width="24" height="24" fill="none" viewBox="0 0 24 24"><path fill="#000" fill-rule="evenodd" d="M12 3C9.7909 3 8 4.7909 8 7s1.7909 4 4 4 4-1.7909 4-4-1.7909-4-4-4m-2 4c0-1.1046.8954-2 2-2s2 .8954 2 2-.8954 2-2 2-2-.8954-2-2M4 17.2C4 14.3281 6.3281 12 9.2 12h5.6a5.177 5.177 0 0 1 3.02.9663 5 5 0 0 0-.1277.063h-.0001q-.6641.34-1.2186.8945a5.2 5.2 0 0 0-.3351.3687A3.19 3.19 0 0 0 14.8 14H9.2C7.4327 14 6 15.4327 6 17.2v.8c0 .5523.4477 1 1 1h4.0342q.1617.2364.3759.4506.3631.363.7903.5756.2173.4783.6177.8788.0489.0488.099.095H7c-1.6569 0-3-1.3431-3-3zm14.7968-2.4797q-.497.206-.9089.6177-.4117.4118-.6177.9089a3 3 0 0 0-.0314.0795h-3.7044c-.56 0-1 .44-1 1s.44 1 1 1h.4081v.4544c0 .56.44 1 1 1 .5599 0 1-.44 1-1v-.4544h1.2963q.0151.04.0314.0794.206.4971.6177.9089.4119.4118.9089.6177t1.0795.2059 1.0794-.2059q.4971-.206.9089-.6177t.6177-.9089.2059-1.0794q0-.5824-.2059-1.0795t-.6177-.9089-.9089-.6177-1.0794-.2059-1.0794.2059m1.0794 1.7941q.1682 0 .3117.0595t.2624.1783q.1189.119.1784.2625t.0594.3117-.0594.3117q-.0595.1434-.1784.2624-.1189.1189-.2624.1784t-.3117.0594-.3117-.0594q-.1436-.0595-.2625-.1784t-.1783-.2624-.0595-.3117.0595-.3117q.0594-.1436.1783-.2625.119-.1189.2625-.1783.1436-.0595.3117-.0595"/></svg>