<svg width="24" height="24" viewBox="0 0 24 24" fill="none" xmlns="http://www.w3.org/2000/svg">
<path d="M7.70711 21.7071C8.09763 21.3166 8.09763 20.6834 7.70711 20.2929L5.41421 18H14C14.5523 18 15 17.5523 15 17C15 16.4477 14.5523 16 14 16L5.41421 16L7.70711 13.7071C8.09763 13.3166 8.09763 12.6834 7.70711 12.2929C7.31658 11.9024 6.68342 11.9024 6.29289 12.2929L2.29289 16.2929C1.90237 16.6834 1.90237 17.3166 2.29289 17.7071L6.29289 21.7071C6.68342 22.0976 7.31658 22.0976 7.70711 21.7071Z" fill="black"/>
<path d="M16.2929 2.29289C15.9024 2.68342 15.9024 3.31658 16.2929 3.70711L18.5858 6H10C9.44772 6 9 6.44771 9 7C9 7.55228 9.44771 8 10 8L18.5858 8L16.2929 10.2929C15.9024 10.6834 15.9024 11.3166 16.2929 11.7071C16.6834 12.0976 17.3166 12.0976 17.7071 11.7071L21.706 7.7082L21.7161 7.698C21.8075 7.60426 21.8769 7.49701 21.9241 7.38278C21.9727 7.26575 21.9996 7.1375 22 7.003L22 7L22 6.997C21.9992 6.74208 21.9016 6.48739 21.7071 6.29289L17.7071 2.29289C17.3166 1.90237 16.6834 1.90237 16.2929 2.29289Z" fill="black"/>
</svg>
