<svg xmlns="http://www.w3.org/2000/svg" width="24" height="24" fill="none" viewBox="0 0 24 24"><path d="M0 24h24V0H0z"/><path fill="#000" fill-rule="evenodd" d="M22 15c0 1.1046-.8954 2-2 2h-2c-1.1046 0-2-.8954-2-2V5c0-1.1046.8954-2 2-2h2c1.1046 0 2 .8954 2 2zM8 15c0 1.1046-.8954 2-2 2H4c-1.1046 0-2-.8954-2-2V6c0-1.1046.8954-2 2-2h2c1.1046 0 2 .8954 2 2zm12 0V5h-2v10zM6 15V6H4v9zm7 2c1.1046 0 2-.8954 2-2v-5c0-1.1046-.8954-2-2-2h-2c-1.1046 0-2 .8954-2 2v5c0 1.1046.8954 2 2 2zm0-7v5h-2v-5zm8 9c.5523 0 1 .4477 1 1s-.4477 1-1 1H3c-.5523 0-1-.4477-1-1s.4477-1 1-1z"/></svg>