<svg width="24" height="24" viewBox="0 0 24 24" fill="none" xmlns="http://www.w3.org/2000/svg">
<path fill-rule="evenodd" clip-rule="evenodd" d="M8 14.6143H12.5438V17H14.689V14.6143H16V12.6143H14.689V7H12.5438L8 13.0571V14.6143ZM12.5438 10.0571V12.6143H10.5922L11.5605 11.3143C11.8485 10.9238 12.077 10.5048 12.2458 10.0571H12.5438Z" fill="black"/>
<path fill-rule="evenodd" clip-rule="evenodd" d="M5 3C3.34315 3 2 4.34315 2 6V18C2 19.6569 3.34315 21 5 21H19C20.6569 21 22 19.6569 22 18V6C22 4.34315 20.6569 3 19 3H5ZM4 6C4 5.44772 4.44772 5 5 5H19C19.5523 5 20 5.44772 20 6V18C20 18.5523 19.5523 19 19 19H5C4.44772 19 4 18.5523 4 18V6Z" fill="black"/>
</svg>
