<svg xmlns="http://www.w3.org/2000/svg" width="24" height="24" fill="none" viewBox="0 0 24 24"><path fill="#000" fill-rule="evenodd" d="M5 8c0-1.6569 1.3431-3 3-3h8c1.6569 0 3 1.3431 3 3v8c0 1.6569-1.3431 3-3 3H8c-1.6569 0-3-1.3431-3-3zm3-1c-.5523 0-1 .4477-1 1v8c0 .5523.4477 1 1 1h8c.5523 0 1-.4477 1-1V8c0-.5523-.4477-1-1-1zm8.1229 2.158c.3905.3905.3905 1.0237 0 1.4142l-4.2698 4.2698c-.3905.3905-1.0236.3905-1.4142 0l-2.5618-2.5619c-.3906-.3905-.3906-1.0237 0-1.4142s1.0237-.3905 1.4142 0l1.8547 1.8548 3.5627-3.5627c.3905-.3905 1.0237-.3905 1.4142 0"/></svg>