<svg width="24" height="24" viewBox="0 0 24 24" fill="none" xmlns="http://www.w3.org/2000/svg">
<path d="M16.1229 10.5673C16.5134 10.1768 16.5134 9.54365 16.1229 9.15312C15.7324 8.7626 15.0992 8.7626 14.7087 9.15312L11.146 12.7158L9.29127 10.861C8.90075 10.4705 8.26759 10.4705 7.87706 10.861C7.48654 11.2516 7.48654 11.8847 7.87706 12.2752L10.4389 14.8371C10.8295 15.2276 11.4626 15.2276 11.8531 14.8371L16.1229 10.5673Z" fill="black"/>
<path fill-rule="evenodd" clip-rule="evenodd" d="M8 4.99512C6.34315 4.99512 5 6.33826 5 7.99512V15.9951C5 17.652 6.34315 18.9951 8 18.9951H16C17.6569 18.9951 19 17.652 19 15.9951V7.99512C19 6.33826 17.6569 4.99512 16 4.99512H8ZM7 7.99512C7 7.44283 7.44772 6.99512 8 6.99512H16C16.5523 6.99512 17 7.44283 17 7.99512V15.9951C17 16.5474 16.5523 16.9951 16 16.9951H8C7.44772 16.9951 7 16.5474 7 15.9951V7.99512Z" fill="black"/>
</svg>
