<svg width="24" height="24" viewBox="0 0 24 24" fill="none" xmlns="http://www.w3.org/2000/svg">
<path d="M8.8 8C8.35817 8 8 8.35817 8 8.8V15.2C8 15.6418 8.35817 16 8.8 16H15.2C15.6418 16 16 15.6418 16 15.2V8.8C16 8.35817 15.6418 8 15.2 8H8.8Z" fill="black"/>
<path fill-rule="evenodd" clip-rule="evenodd" d="M8 5C6.34315 5 5 6.34315 5 8V16C5 17.6569 6.34315 19 8 19H16C17.6569 19 19 17.6569 19 16V8C19 6.34315 17.6569 5 16 5H8ZM7 8C7 7.44772 7.44772 7 8 7H16C16.5523 7 17 7.44772 17 8V16C17 16.5523 16.5523 17 16 17H8C7.44772 17 7 16.5523 7 16V8Z" fill="black"/>
</svg>
