<svg width="24" height="24" viewBox="0 0 24 24" fill="none" xmlns="http://www.w3.org/2000/svg">
<path fill-rule="evenodd" clip-rule="evenodd" d="M5 7.99512C5 6.33826 6.34315 4.99512 8 4.99512H16C17.6569 4.99512 19 6.33826 19 7.99512V15.9951C19 17.652 17.6569 18.9951 16 18.9951H8C6.34315 18.9951 5 17.652 5 15.9951V7.99512ZM16.1229 10.5673C16.5135 10.1768 16.5135 9.54365 16.1229 9.15312C15.7324 8.7626 15.0992 8.7626 14.7087 9.15312L11.146 12.7158L9.29129 10.861C8.90077 10.4705 8.2676 10.4705 7.87708 10.861C7.48655 11.2516 7.48655 11.8847 7.87708 12.2752L10.4389 14.8371C10.8295 15.2276 11.4626 15.2276 11.8532 14.8371L16.1229 10.5673Z" fill="black"/>
</svg>
