<svg width="24" height="24" viewBox="0 0 24 24" fill="none" xmlns="http://www.w3.org/2000/svg">
<path d="M8.8 7.99512C8.35817 7.99512 8 8.35329 8 8.79512V15.1951C8 15.6369 8.35817 15.9951 8.8 15.9951H15.2C15.6418 15.9951 16 15.6369 16 15.1951V8.79512C16 8.35329 15.6418 7.99512 15.2 7.99512H8.8Z" fill="black"/>
<path fill-rule="evenodd" clip-rule="evenodd" d="M8 4.99512C6.34315 4.99512 5 6.33826 5 7.99512V15.9951C5 17.652 6.34315 18.9951 8 18.9951H16C17.6569 18.9951 19 17.652 19 15.9951V7.99512C19 6.33826 17.6569 4.99512 16 4.99512H8ZM7 7.99512C7 7.44283 7.44772 6.99512 8 6.99512H16C16.5523 6.99512 17 7.44283 17 7.99512V15.9951C17 16.5474 16.5523 16.9951 16 16.9951H8C7.44772 16.9951 7 16.5474 7 15.9951V7.99512Z" fill="black"/>
</svg>
