<svg width="24" height="24" viewBox="0 0 24 24" fill="none" xmlns="http://www.w3.org/2000/svg">
<path d="M12 8.61328C12.7204 8.61328 13.3044 8.02929 13.3044 7.3089C13.3044 6.58851 12.7204 6.00452 12 6.00452C11.2796 6.00452 10.6956 6.58851 10.6956 7.3089C10.6956 8.02929 11.2796 8.61328 12 8.61328Z" fill="black"/>
<path fill-rule="evenodd" clip-rule="evenodd" d="M12 2C6.47715 2 2 6.47715 2 12C2 17.5228 6.47715 22 12 22C17.5228 22 22 17.5228 22 12C22 6.47715 17.5228 2 12 2ZM4 12C4 7.58172 7.58172 4 12 4C16.4183 4 20 7.58172 20 12C20 16.4183 16.4183 20 12 20C7.58172 20 4 16.4183 4 12Z" fill="black"/>
</svg>
