<svg xmlns="http://www.w3.org/2000/svg" width="24" height="24" fill="none" viewBox="0 0 24 24"><path fill="#fff" d="M12.0004 17c2.7614 0 5.0004-2.2386 5.0004-5.0004s-2.2386-5.0004-5.0004-5.0004S7 9.2378 7 11.9996 9.2386 17 12.0004 17"/><path fill="url(#a)" d="m7.6697 14.5006-4.3294-7.499A9.9979 9.9979 0 0 0 12.0011 22l4.3295-7.4994v-.0012a4.999 4.999 0 0 1-6.8305 1.8321 4.996 4.996 0 0 1-1.8305-1.8309"/><path fill="url(#b)" d="M16.3307 14.5006 12.0012 22a9.99 9.99 0 0 0 4.9996-1.3398A9.998 9.998 0 0 0 20.659 7H12l-.0012.0008a5 5 0 0 1 2.5006.669 4.999 4.999 0 0 1 2.501 4.3306 4.995 4.995 0 0 1-.6697 2.5002"/><path fill="#1a73e8" d="M12.0004 15.9591c2.1863 0 3.9587-1.7723 3.9587-3.9587s-1.7724-3.9587-3.9587-3.9587-3.9587 1.7724-3.9587 3.9587 1.7723 3.9587 3.9587 3.9587"/><path fill="url(#c)" d="M12 7h8.659a9.9977 9.9977 0 0 0-17.3187.0016l4.3294 7.499.0012.0008A5 5 0 0 1 7 12.0012c0-.878.2306-1.7406.6693-2.5006A4.995 4.995 0 0 1 9.4998 7.67 4.993 4.993 0 0 1 12 7.0001"/><defs><linearGradient id="a" x1="17" x2="6" y1="21" y2="1" gradientUnits="userSpaceOnUse"><stop stop-color="#1e8e3e"/><stop offset="1" stop-color="#34a853"/></linearGradient><linearGradient id="b" x1="-1" x2="8" y1="22" y2="-1" gradientUnits="userSpaceOnUse"><stop stop-color="#fcc934"/><stop offset="1" stop-color="#fbbc04"/></linearGradient><linearGradient id="c" x1="3" x2="21" y1="8" y2="8" gradientUnits="userSpaceOnUse"><stop stop-color="#d93025"/><stop offset="1" stop-color="#ea4335"/></linearGradient></defs></svg>