<svg xmlns="http://www.w3.org/2000/svg" width="24" height="24" fill="none" viewBox="0 0 24 24"><path fill="#000" d="M7.221 6.698c0-.263-.215-.477-.479-.477s-.479.214-.479.477v5.076a.479.479 0 0 0 .958 0zM4.112 8.022c.264 0 .479.214.479.478v2.32a.479.479 0 0 1-.479.478.479.479 0 0 1-.479-.478V8.5c0-.263.215-.477.479-.477M1.96 9.817c0-.263-.215-.477-.479-.477s-.479.214-.479.477v1.003a.479.479 0 0 0 .958 0zm9.132 4.86c.334 0 .74.112.754.117v-.816c-.029-.008-.47-.122-.94-.122-.889 0-1.424.48-1.424 1.195 0 .633.448.948.985 1.118.024.008.052.017.081.026.044.014.09.029.125.041.239.075.43.187.43.381 0 .217-.221.357-.7.357-.38 0-.746-.098-.876-.133q-.022-.006-.034-.009v.88c.047.01.528.105 1.041.105.738 0 1.583-.323 1.583-1.283 0-.466-.285-.894-.911-1.093l-.266-.085-.016-.005c-.161-.051-.426-.134-.426-.359 0-.184.21-.313.597-.313"/><path fill="#000" fill-rule="evenodd" d="M21.0193 15.8352c0 1.0934-.8442 1.9794-2.0198 1.9794s-2.0185-.886-2.0185-1.9794c0-1.0916.8429-1.9785 2.0185-1.9785s2.0198.8869 2.0198 1.9785m-2.0198-1.0051c-.5722 0-.9972.4503-.9972 1.0051 0 .556.425 1.0061.9972 1.0061.5716 0 .9978-.4501.9978-1.0061 0-.5548-.4262-1.0051-.9978-1.0051" clip-rule="evenodd"/><path fill="#000" d="m5.888 15.015.009.005v-1.026l-.019-.006c-.113-.034-.434-.131-.86-.131-1.174 0-2.035.837-2.035 1.979 0 1.232.951 1.98 2.035 1.98.406 0 .722-.091.857-.129l.023-.006v-1.026l-.003.002c-.052.029-.363.201-.807.201-.643 0-1.057-.452-1.057-1.02 0-.585.432-1.02 1.057-1.02.435 0 .735.163.801.199m10.076.003-.009-.005c-.066-.036-.366-.199-.801-.199-.625 0-1.057.434-1.057 1.02 0 .568.414 1.021 1.057 1.021.444 0 .756-.173.807-.201l.003-.002v1.026l-.023.007c-.135.039-.451.13-.857.13-1.084 0-2.035-.748-2.035-1.979 0-1.141.862-1.978 2.035-1.978.426 0 .748.097.86.131l.019.006zm-7.777-1.095h-.964v3.822h.965zm1.184-5.903c.264 0 .479.214.479.478v2.32a.479.479 0 0 1-.479.478.479.479 0 0 1-.479-.478V8.5c0-.263.215-.477.479-.477m2.916 1.413a.473.473 0 0 0-.286-.096H12c-.263.001-.478.214-.478.477v1.003a.479.479 0 0 0 .764.385.478.478 0 0 0 .194-.384V9.817a.476.476 0 0 0-.191-.381M15.11 8.5c0-.263-.215-.478-.479-.478s-.479.214-.479.478v2.32c0 .265.215.478.479.478a.479.479 0 0 0 .479-.478zm2.151-2.279c.264 0 .479.214.479.477v5.076a.479.479 0 0 1-.958 0V6.698c0-.263.215-.477.479-.477M20.37 8.5c0-.263-.215-.478-.479-.478s-.479.214-.479.478v2.32c0 .265.215.478.479.478a.479.479 0 0 0 .479-.478zm2.152.84c.262 0 .476.214.476.477v1.003c0 .265-.214.479-.476.479a.479.479 0 0 1-.479-.479V9.817c0-.263.215-.477.479-.477"/></svg>