<svg xmlns="http://www.w3.org/2000/svg" width="24" height="24" fill="none" viewBox="0 0 24 24"><path fill="#000" fill-rule="evenodd" d="M11.9999 2c-1.6569 0-3 1.3432-3 3v5h-.1934c-1.2961 0-2.4228.8896-2.7236 2.1503l-1.468 6.1536C4.1653 20.1893 5.5949 22 7.5332 22h8.9336c1.9383 0 3.3679-1.8107 2.9181-3.6961l-1.4679-6.1536C17.6161 10.8896 16.4894 10 15.1933 10h-.1934V5c0-1.6568-1.3432-3-3-3m-1 18v-1c0-.5523-.4477-1-1-1s-1 .4477-1 1v1H7.533c-.6461 0-1.1226-.6036-.9727-1.232l.4032-1.6902h10.0726l.4032 1.6902c.1499.6284-.3266 1.232-.9727 1.232zm2-10V5c0-.5523-.4477-1-1-1s-1 .4477-1 1v5zm-4.9716 2.6144A.8.8 0 0 1 8.8065 12h6.3868a.8.8 0 0 1 .7782.6144l.5876 2.4634H7.4407z"/></svg>