<svg xmlns="http://www.w3.org/2000/svg" width="16" height="16" fill="none" viewBox="0 0 16 16"><path stroke="#000" stroke-linecap="round" stroke-linejoin="round" d="M7.353 13.333V8m0 0L6.02 9.333M7.353 8l1.333 1.333M11.353 8v5.333m0 0L10.02 12m1.333 1.333L12.686 12"/><path fill="#000" d="M8.0001 2.0166c-1.8339 0-3.535 1.145-4.1767 3.0784-.6575.1376-1.2326.4598-1.6655.9466-.5298.5958-.8078 1.394-.8078 2.2917 0 1.6975 1.5343 2.9833 3.13 2.9833h.9229c-.5647-.1918-1.0253-.7832-1.2192-1.3244-.85-.1407-1.5337-.8691-1.5337-1.659 0-.6274.1912-1.1037.4793-1.4277.2866-.3223.7075-.5378 1.2531-.5792l.4741-.036.1092-.4629c.3792-1.606 1.6681-2.5108 3.0343-2.5108 1.1238 0 2.1529.5847 2.7511 1.6918l.1689.3125.3543.0267c1.0803.0811 2.0757 1.0294 2.0757 2.319v2.7841s.1597-.1326.2182-.1905c.668-.6615 1.0818-1.5792 1.0818-2.5936 0-1.8518-1.3352-3.279-2.9272-3.5702-.844-1.335-2.2194-2.0798-3.7228-2.0798"/><path fill="#000" d="m13.146 12.46-1.333 1.333a.65.65 0 0 1-.919 0L9.56 12.46a.65.65 0 0 1 .919-.919l.224.224V8.001a.65.65 0 1 1 1.3 0v3.764l.224-.224a.65.65 0 0 1 .919.919M7.813 7.54a.65.65 0 0 0-.919 0L5.56 8.874a.65.65 0 0 0 .919.919l.224-.224v3.764a.65.65 0 1 0 1.3 0V9.569l.224.224a.65.65 0 0 0 .919-.919z"/></svg>