<svg xmlns="http://www.w3.org/2000/svg" width="24" height="24" fill="none" viewBox="0 0 24 24"><path fill="#000" fill-rule="evenodd" d="M12 4C9.2427 4 6.6853 5.719 5.7158 8.621c-.9852.2091-1.8477.6939-2.4978 1.4249C2.4187 10.9448 2 12.1484 2 13.5 2 16.062 4.3146 18 6.72 18h.2983c0-.7158.2546-1.4317.7638-2H6.72C5.2592 16 4 14.804 4 13.5c0-.936.2851-1.6443.7126-2.1251.4252-.4782 1.0504-.7987 1.863-.8605l.7293-.0554.168-.712C8.039 7.3493 9.9624 6 12 6c1.6764 0 3.2116.8719 4.1047 2.5246l.2598.4808.545.041C18.5173 9.1672 20 10.579 20 12.5c0 1.933-1.567 3.5-3.5 3.5h-.2455l-.0022.0025c.4899.5661.733 1.2719.7293 1.9767C19.7937 17.7352 22 15.3753 22 12.5c0-2.786-2.0058-4.9346-4.4005-5.3779C16.3284 5.1183 14.2603 4 12 4m-1.2746 9.2929c-.3905-.3905-1.0237-.3905-1.4142 0s-.3905 1.0237 0 1.4142L10.6041 16l-1.2929 1.2929c-.3905.3905-.3905 1.0237 0 1.4142s1.0237.3905 1.4142 0l1.2929-1.2929 1.2563 1.2563c.3905.3905 1.0237.3905 1.4142 0s.3905-1.0237 0-1.4142L13.4325 16l1.2929-1.2929c.3905-.3905.3905-1.0237 0-1.4142s-1.0237-.3905-1.4142 0l-1.2929 1.2929z"/></svg>