<svg xmlns="http://www.w3.org/2000/svg" width="24" height="24" fill="none" viewBox="0 0 24 24"><path fill="#000" fill-rule="evenodd" d="M5.7158 9.621C6.6853 6.719 9.2426 5 12 5c2.2603 0 4.3284 1.1182 5.5995 3.1221C19.9942 8.5654 22 10.714 22 13.5c0 3.0376-2.4624 5.5-5.5 5.5H6.72C4.3145 19 2 17.062 2 14.5c0-1.3516.4187-2.5552 1.218-3.4541.6501-.731 1.5126-1.2158 2.4978-1.4248M12 7c-2.0377 0-3.961 1.3493-4.527 3.747l-.168.712-.7295.0554c-.8125.0618-1.4377.3823-1.8629.8605C4.2851 12.8557 4 13.564 4 14.5 4 15.804 5.2592 17 6.72 17h9.78c1.933 0 3.5-1.567 3.5-3.5 0-1.921-1.4827-3.3328-3.0905-3.4536l-.545-.041-.2598-.4808C15.2116 7.8719 13.6763 7 12 7"/></svg>