<svg width="24" height="24" viewBox="0 0 24 24" fill="none" xmlns="http://www.w3.org/2000/svg">
<path d="M5.71576 8.62107C6.68529 5.71909 9.24265 4 12 4C14.2603 4 16.3284 5.11825 17.5995 7.12214C19.9942 7.56536 22 9.71401 22 12.5C22 15.3753 19.7937 17.7352 16.9816 17.9792C16.9853 17.2744 16.7422 16.5686 16.2523 16.0025L16.2545 16H16.5C18.433 16 20 14.433 20 12.5C20 10.579 18.5173 9.16717 16.9095 9.04635L16.3645 9.0054L16.1047 8.52457C15.2116 6.8719 13.6763 6 12 6C9.9623 6 8.03895 7.34926 7.47296 9.74702L7.30491 10.4589L6.57551 10.5144C5.76295 10.5762 5.13781 10.8967 4.71262 11.3749C4.28511 11.8557 4 12.564 4 13.5C4 14.804 5.25921 16 6.71992 16H7.78213C7.27292 16.5683 7.01831 17.2842 7.01831 18H6.71992C4.31464 18 2 16.062 2 13.5C2 12.1484 2.41871 10.9448 3.21804 10.0459C3.8681 9.31487 4.73057 8.83012 5.71576 8.62107Z" fill="black"/>
<path d="M9.3112 13.2929C9.70173 12.9024 10.3349 12.9024 10.7254 13.2929L12.0183 14.5858L13.3112 13.2929C13.7017 12.9024 14.3349 12.9024 14.7254 13.2929C15.1159 13.6834 15.1159 14.3166 14.7254 14.7071L13.4325 16L14.6888 17.2563C15.0793 17.6468 15.0793 18.28 14.6888 18.6705C14.2983 19.061 13.6651 19.061 13.2746 18.6705L12.0183 17.4142L10.7254 18.7071C10.3349 19.0976 9.70173 19.0976 9.3112 18.7071C8.92068 18.3166 8.92068 17.6834 9.3112 17.2929L10.6041 16L9.3112 14.7071C8.92068 14.3166 8.92068 13.6834 9.3112 13.2929Z" fill="black"/>
</svg>
