<svg xmlns="http://www.w3.org/2000/svg" width="24" height="24" fill="none" viewBox="0 0 24 24"><path fill="#000" fill-rule="evenodd" d="M12 .4004c.5523 0 1 .4477 1 1v1.6545c2.0864.2307 3.9578 1.1745 5.3651 2.5823l1.323-1.0551c.4318-.3443 1.061-.2734 1.4053.1583.3443.4318.2734 1.061-.1583 1.4054L19.614 7.1992C20.4919 8.5886 21 10.235 21 12c0 .3407-.0189.677-.0558 1.0079l1.6623.3794c.5384.1229.8753.659.7524 1.1975s-.659.8753-1.1975.7524l-1.659-.3787c-.6767 1.9452-2.0022 3.5866-3.7172 4.6654l.712 1.4786c.2396.4976.0305 1.0952-.4671 1.3348s-1.0952.0305-1.3348-.4671l-.7112-1.4767C14.0503 20.8216 13.046 21 12 21s-2.0502-.1784-2.984-.5065l-.7113 1.4767c-.2396.4976-.8372.7068-1.3348.4671s-.7067-.8372-.4671-1.3348l.712-1.4786c-1.715-1.0788-3.0405-2.7202-3.7172-4.6654l-1.659.3787C1.3 15.4601.764 15.1232.641 14.5848s.214-1.0746.7524-1.1975l1.6623-.3794A9.1 9.1 0 0 1 3 12c0-1.765.508-3.4114 1.386-4.8008L3.065 6.1458c-.4318-.3444-.5027-.9736-.1584-1.4054s.9736-.5026 1.4053-.1583l1.323 1.055C7.0422 4.2295 8.9137 3.2857 11 3.055V1.4004c0-.5523.4477-1 1-1M11 8.126V5.071c-1.4553.2081-2.7661.864-3.7887 1.8234l2.389 1.9052A3.98 3.98 0 0 1 11 8.126m2 0a3.98 3.98 0 0 1 1.3997.6735l2.389-1.9052C15.7662 5.9348 14.4553 5.279 13 5.0709zm2.6497 2.2347c.2095.4656.3325.9785.3485 1.5183l2.9798.6801A7 7 0 0 0 19 12c0-1.2932-.3506-2.5044-.9621-3.5439zm-.0919 3.4692a4.02 4.02 0 0 1-.9737 1.2235l1.3261 2.7535c1.1821-.7975 2.1075-1.9465 2.6264-3.2971zm-2.7746 2.0935A4 4 0 0 1 12 16c-.268 0-.5299-.0264-.7832-.0766l-1.326 2.7533A7 7 0 0 0 12 19a7 7 0 0 0 2.1092-.3233zm-3.3673-.87a4.02 4.02 0 0 1-.9737-1.2235l-2.9788.6799c.519 1.3506 1.4443 2.4996 2.6265 3.2971zm-1.414-3.1744a3.98 3.98 0 0 1 .3484-1.5183L5.962 8.4561C5.3507 9.4956 5 10.7068 5 12q0 .2824.022.5591zM14 12c0 1.1046-.8954 2-2 2s-2-.8954-2-2 .8954-2 2-2 2 .8954 2 2"/></svg>