<svg xmlns="http://www.w3.org/2000/svg" width="24" height="24" fill="none" viewBox="0 0 24 24"><path fill="#000" fill-rule="evenodd" d="M4 3v13H3q-.4142 0-.7071.2929Q1.9999 16.5858 2 17v4q0 .4142.2929.7071T3 22h1q0 .2439.1015.4456a.983.983 0 0 0 .4529.4529Q4.756 23 5 23q.2438 0 .4456-.1015a.983.983 0 0 0 .453-.4529Q6 22.2439 6 22h12q0 .2439.1015.4456a.982.982 0 0 0 .4529.4529Q18.7562 23 19 23q.2439 0 .4456-.1015a.982.982 0 0 0 .4529-.4529Q20 22.2439 20 22h1q.4142 0 .7071-.2929.293-.2929.2929-.7071v-4q0-.4142-.2929-.7071-.293-.293-.7071-.2929h-1V2.9902q-.0017-.2015-.0732-.374a1 1 0 0 0-.0283-.0618.983.983 0 0 0-.4529-.453 1 1 0 0 0-.0618-.0282q-.1746-.0723-.3789-.0732H19c-.399 0-.7371.2234-.8985.5544a1 1 0 0 0-.0283.0617q-.0723.1747-.0732.379V4h-2V3q0-.4142-.2929-.707Q15.4141 2 15 2H9q-.4141 0-.7071.293Q7.9999 2.5857 8 3v1H6V3q0-.207-.0732-.3837a1 1 0 0 0-.0283-.062.983.983 0 0 0-.4529-.4528 1 1 0 0 0-.0617-.0283Q5.2072 2 5 2q-.207 0-.3838.0732a1 1 0 0 0-.0618.0283.983.983 0 0 0-.453.4529 1 1 0 0 0-.0282.0618Q4 2.793 4 3m4 3H6v10h2v-2q0-.4142.2929-.7071.293-.293.7071-.2929h6q.4141 0 .7071.2929T16 14v2h2V6h-2q0 .4143-.2929.707Q15.4141 7 15 7h-1v.005q-.001.2408-.1015.4406C13.7371 7.7766 13.399 8 13 8v3.0049q-.001.2409-.1015.4407C12.7371 11.7766 12.399 12 12 12h-.0049q-.2409-.001-.4407-.1015C11.2234 11.7371 11 11.399 11 11V8q-.2438 0-.4456-.1015a.983.983 0 0 1-.4529-.4529Q10 7.244 10 7H9q-.4141 0-.7071-.293Q7.9999 6.4144 8 6m6-1h-4V4h4zm-4 10v1h4v-1zm-6 3h16v2H4z"/></svg>