<svg xmlns="http://www.w3.org/2000/svg" width="24" height="24" fill="none" viewBox="0 0 24 24"><path d="M0 24.0001h24v-24H0z"/><path fill="#000" fill-rule="evenodd" d="M9.6 8.2c.4418.3314.5314.9582.2 1.4-.3314.4419-.9582.5314-1.4.2l-4-3a1 1 0 0 1 0-1.6l4-3c.4418-.3313 1.0686-.2418 1.4.2.3314.4419.2418 1.0687-.2 1.4L6.6667 6zm4.6 1.4c-.3314-.4418-.2418-1.0686.2-1.4L17.3333 6 14.4 3.8c-.4418-.3313-.5314-.9581-.2-1.4s.9582-.5313 1.4-.2l4 3a1 1 0 0 1 0 1.6l-4 3c-.4418.3314-1.0686.2419-1.4-.2M12 19.0002c.2652 0 .5196-.1054.7071-.2929l3-3c.3905-.3906.3905-1.0237 0-1.4142-.3905-.3906-1.0237-.3906-1.4142 0L13 15.5858V5.0001c0-.5523-.4477-1-1-1s-1 .4477-1 1v10.5857L9.7071 14.293c-.3905-.3906-1.0237-.3906-1.4142 0s-.3905 1.0236 0 1.4142l3 3c.1875.1875.4419.2929.7071.2929m-6 3c-1.6569 0-3-1.3432-3-3v-5c0-1.6569 1.3431-3 3-3h.6667c.5523 0 1 .4477 1 1s-.4477 1-1 1H6c-.5523 0-1 .4477-1 1v5c0 .5522.4477 1 1 1h12c.5523 0 1-.4478 1-1v-5c0-.5523-.4477-1-1-1h-.6667c-.5523 0-1-.4478-1-1s.4477-1 1-1H18c1.6569 0 3 1.3431 3 3v5c0 1.6568-1.3431 3-3 3z"/></svg>