<svg xmlns="http://www.w3.org/2000/svg" width="24" height="24" fill="none" viewBox="0 0 24 24"><path fill="#000" fill-rule="evenodd" d="M14.9615 5.2747c.1517-.531-.1557-1.0845-.6868-1.2362s-1.0845.1558-1.2362.6868l-4 14c-.1517.531.1557 1.0845.6868 1.2362.531.1518 1.0845-.1557 1.2362-.6868zm1.3314 3.4324c-.3905-.3905-.3905-1.0237 0-1.4142s1.0237-.3905 1.4142 0l4 4c.3905.3905.3905 1.0237 0 1.4142l-4 4c-.3905.3905-1.0237.3905-1.4142 0s-.3905-1.0237 0-1.4142L19.5858 12zM7.7071 7.293c.3905.3905.3905 1.0237 0 1.4142L4.4142 12l3.2929 3.2929c.3905.3905.3905 1.0237 0 1.4142s-1.0237.3905-1.4142 0l-4-4c-.3905-.3905-.3905-1.0237 0-1.4142l4-4c.3905-.3905 1.0237-.3905 1.4142 0"/></svg>