<svg xmlns="http://www.w3.org/2000/svg" width="24" height="24" fill="none" viewBox="0 0 24 24"><path fill="#000" fill-rule="evenodd" d="M10 1c-1.1046 0-2 .8954-2 2v2c0 1.1046.8954 2 2 2h3v10h-1v-5c0-1.1046-.8954-2-2-2H7c-1.1046 0-2 .8954-2 2H4c-.5523 0-1 .4477-1 1s.4477 1 1 1h1v3c-1.1046 0-2 .8954-2 2v2c0 1.1046.8954 2 2 2h15c1.1046 0 2-.8954 2-2V3c0-1.1046-.8954-2-2-2zm0 2h10v18H5v-2h8c1.1046 0 2-.8954 2-2V7c0-1.1046-.8954-2-2-2h-3zm9 3c0 .5523-.4477 1-1 1s-1-.4477-1-1 .4477-1 1-1 1 .4477 1 1m-1 4c.5523 0 1-.4477 1-1s-.4477-1-1-1-1 .4477-1 1 .4477 1 1 1M7 17h3v-5H7z"/></svg>