<svg width="24" height="24" viewBox="0 0 24 24" fill="none" xmlns="http://www.w3.org/2000/svg">
<path fill-rule="evenodd" clip-rule="evenodd" d="M3.9934 5.70354C3.98795 5.63662 3.98511 5.568 3.98511 5.49764C3.98511 4.13878 5.04628 3.42735 5.44708 3.19284C5.98759 2.87658 6.63663 2.66038 7.26383 2.50516C8.54919 2.18706 10.2197 2.01123 11.9913 2.01123C13.763 2.01123 15.4335 2.18706 16.7188 2.50516C17.346 2.66038 17.9951 2.87658 18.5356 3.19284C18.9364 3.42735 19.9976 4.13878 19.9976 5.49764C19.9976 5.60719 19.9907 5.71253 19.9778 5.81375L19.9891 9.5771C19.3578 9.32266 18.6866 9.14641 17.9875 9.06035L17.9846 8.07789C17.5798 8.25149 17.1443 8.38484 16.7188 8.49012C15.4335 8.80822 13.763 8.98405 11.9913 8.98405C10.2197 8.98405 8.54919 8.80822 7.26383 8.49012C6.8338 8.3837 6.39351 8.24861 5.98497 8.07226L5.98516 12.1199C6.02384 12.1951 6.21482 12.5093 7.03401 12.8505C7.65958 13.1112 8.56501 13.3442 9.81835 13.4712C9.51977 14.0777 9.29575 14.7275 9.15827 15.4087C7.96923 15.2574 7.01415 15.0089 6.26489 14.6967C6.16983 14.6571 6.07654 14.6158 5.98527 14.5727L5.98544 18.7479C5.99897 18.769 6.02627 18.8056 6.07786 18.857C6.22282 19.0013 6.50387 19.2007 6.98508 19.401C7.58484 19.6507 8.43757 19.8776 9.58668 20.0127C9.89928 20.7812 10.3279 21.49 10.8508 22.1176C8.8305 22.0282 7.30465 21.7004 6.21648 21.2474C5.57557 20.9806 5.04895 20.6548 4.66677 20.2743C4.29255 19.9017 3.98545 19.3997 3.98545 18.8084L3.98486 5.70359L3.9934 5.70354ZM16.2721 6.54027C16.3056 6.53184 16.3388 6.52331 16.3715 6.51469C17.3799 6.24881 17.9976 5.89107 17.9976 5.49764C17.9976 5.10421 17.3799 4.74648 16.3715 4.48059C16.3388 4.47197 16.3056 4.46344 16.2721 4.45501C15.1826 4.18108 13.6671 4.01123 11.9913 4.01123C10.3155 4.01123 8.80002 4.18108 7.71054 4.45501C7.67702 4.46344 7.64389 4.47197 7.61118 4.48059C6.60276 4.74648 5.98511 5.10421 5.98511 5.49764C5.98511 5.89107 6.60276 6.24881 7.61118 6.51469C7.64389 6.52331 7.67702 6.53184 7.71054 6.54027C8.80002 6.8142 10.3155 6.98405 11.9913 6.98405C13.6671 6.98405 15.1826 6.8142 16.2721 6.54027Z" fill="black"/>
<path d="M15.0456 15.2707V18.3418C15.0456 18.52 15.2611 18.6092 15.387 18.4832L16.2345 17.6357L17.8165 19.2177C17.8946 19.2958 18.0212 19.2958 18.0993 19.2177L19.1742 18.1429C19.2523 18.0648 19.2523 17.9381 19.1742 17.86L17.5922 16.2781L18.4581 15.4122C18.5841 15.2862 18.4948 15.0707 18.3167 15.0707H15.2456C15.1352 15.0707 15.0456 15.1603 15.0456 15.2707Z" fill="black"/>
<path fill-rule="evenodd" clip-rule="evenodd" d="M11 17C11 13.6863 13.6863 11 17 11C20.3137 11 23 13.6863 23 17C23 20.3137 20.3137 23 17 23C13.6863 23 11 20.3137 11 17ZM17 13C14.7909 13 13 14.7909 13 17C13 19.2091 14.7909 21 17 21C19.2091 21 21 19.2091 21 17C21 14.7909 19.2091 13 17 13Z" fill="black"/>
</svg>
