<svg width="24" height="24" viewBox="0 0 24 24" fill="none" xmlns="http://www.w3.org/2000/svg">
<path d="M10.2915 10.8773C9.90096 10.4868 9.2678 10.4868 8.87727 10.8773C8.48675 11.2678 8.48675 11.901 8.87727 12.2915L10.5858 14L8.87728 15.7085C8.48675 16.099 8.48675 16.7322 8.87728 17.1227C9.2678 17.5132 9.90096 17.5132 10.2915 17.1227L12 15.4142L13.7085 17.1227C14.099 17.5132 14.7322 17.5132 15.1227 17.1227C15.5132 16.7322 15.5132 16.099 15.1227 15.7085L13.4142 14L15.1227 12.2915C15.5132 11.901 15.5132 11.2678 15.1227 10.8773C14.7322 10.4868 14.099 10.4868 13.7085 10.8773L12 12.5858L10.2915 10.8773Z" fill="black"/>
<path fill-rule="evenodd" clip-rule="evenodd" d="M7 6C7 3.23858 9.23858 1 12 1C13.7155 1 15.2288 1.86485 16.1278 3.17776C16.4398 3.63345 16.3234 4.25581 15.8677 4.56785C15.412 4.87989 14.7897 4.76344 14.4776 4.30775C13.9355 3.51604 13.0279 3 12 3C10.3431 3 9 4.34315 9 6V7H17C18.6569 7 20 8.34315 20 10V18C20 19.6569 18.6569 21 17 21H7C5.34315 21 4 19.6569 4 18V10C4 8.34315 5.34315 7 7 7V6ZM7 9H17C17.5523 9 18 9.44772 18 10V18C18 18.5523 17.5523 19 17 19H7C6.44772 19 6 18.5523 6 18V10C6 9.44772 6.44772 9 7 9Z" fill="black"/>
</svg>
