<svg xmlns="http://www.w3.org/2000/svg" width="24" height="24" fill="none" viewBox="0 0 24 24"><path fill="#000" fill-rule="evenodd" d="M5 1C3.3431 1 2 2.3431 2 4v14c0 1.6569 1.3431 3 3 3h5v-2H5c-.5523 0-1-.4477-1-1V4c0-.5523.4477-1 1-1h10c.5523 0 1 .4477 1 1v.0164A7.6 7.6 0 0 1 16.5 4c.5137 0 1.0153.0516 1.5.15V4c0-1.6569-1.3431-3-3-3zm11.5 5C13.4624 6 11 8.4624 11 11.5c0 1.1774.37 2.2684 1 3.1631V22a1 1 0 0 0 1.5812.8137L16.5 20.7289l2.9188 2.0848A.9998.9998 0 0 0 21 22v-7.3369c.63-.8947 1-1.9857 1-3.1631C22 8.4624 19.5376 6 16.5 6M13 11.5C13 9.567 14.567 8 16.5 8S20 9.567 20 11.5 18.433 15 16.5 15 13 13.433 13 11.5m6 4.9003c-.7501.3834-1.5998.5997-2.5.5997s-1.7499-.2163-2.5-.5997v3.6565l1.9188-1.3705a1 1 0 0 1 1.1624 0L19 20.0568z"/></svg>