<svg width="24" height="24" viewBox="0 0 24 24" fill="none" xmlns="http://www.w3.org/2000/svg">
<path fill-rule="evenodd" clip-rule="evenodd" d="M8 4.5C8 3.11929 9.11929 2 10.5 2H19.5C20.8807 2 22 3.11929 22 4.5V10.5C22 11.7095 21.1411 12.7184 20 12.95V17.5C20 18.8807 18.8807 20 17.5 20H15.5V21H16C16.5523 21 17 21.4477 17 22C17 22.5523 16.5523 23 16 23H10C9.44772 23 9 22.5523 9 22C9 21.4477 9.44772 21 10 21H10.5V20H8.5C7.11929 20 6 18.8807 6 17.5V16H4.5C3.11929 16 2 14.8807 2 13.5V7.5C2 6.11929 3.11929 5 4.5 5H8V4.5ZM10 5H13.5C14.8807 5 16 6.11929 16 7.5V9H17.5C18.6375 9 19.5976 9.75969 19.9005 10.7994C19.963 10.7159 20 10.6123 20 10.5V4.5C20 4.22386 19.7761 4 19.5 4H10.5C10.2239 4 10 4.22386 10 4.5V5ZM18 11.5C18 11.2239 17.7761 11 17.5 11H8.5C8.22386 11 8 11.2239 8 11.5V17.5C8 17.7761 8.22386 18 8.5 18H17.5C17.7761 18 18 17.7761 18 17.5V11.5ZM13.5 20H12.5V21H13.5V20ZM4.5 7C4.22386 7 4 7.22386 4 7.5V13.5C4 13.7761 4.22386 14 4.5 14H6V11.5C6 10.1193 7.11929 9 8.5 9H14V7.5C14 7.22386 13.7761 7 13.5 7H4.5Z" fill="black"/>
</svg>
