<svg xmlns="http://www.w3.org/2000/svg" width="24" height="24" fill="none" viewBox="0 0 24 24"><path fill="#000" fill-rule="evenodd" d="M3 4c-.5523 0-1 .4477-1 1s.4477 1 1 1h2c.5523 0 1-.4477 1-1s-.4477-1-1-1zm5 1c0-.5523.4477-1 1-1h12c.5523 0 1 .4477 1 1s-.4477 1-1 1H9c-.5523 0-1-.4477-1-1m5 4c-.5523 0-1 .4477-1 1s.4477 1 1 1h8c.5523 0 1-.4477 1-1s-.4477-1-1-1zM7 9c-.5523 0-1 .4477-1 1s.4477 1 1 1h2c.5523 0 1-.4477 1-1s-.4477-1-1-1zm-1 6c0 .5523.4477 1 1 1h2c.5523 0 1-.4477 1-1s-.4477-1-1-1H7c-.5523 0-1 .4477-1 1m6 0c0 .5523.4477 1 1 1h8c.5523 0 1-.4477 1-1s-.4477-1-1-1h-8c-.5523 0-1 .4477-1 1m-4 5c0 .5523.4477 1 1 1h12c.5523 0 1-.4477 1-1s-.4477-1-1-1H9c-.5523 0-1 .4477-1 1m-6 0c0 .5523.4477 1 1 1h2c.5523 0 1-.4477 1-1s-.4477-1-1-1H3c-.5523 0-1 .4477-1 1"/></svg>