<svg xmlns="http://www.w3.org/2000/svg" width="24" height="24" fill="none" viewBox="0 0 24 24"><path fill="#000" fill-rule="evenodd" d="M2 4c0-1.013.8608-2 2.0006-2H6c.496 0 1.0624.1668 1.4856.5406l.0323.0285L7.9284 3h3.071C12.1392 3 13 3.987 13 5v4c0 1.0131-.8608 2-2.0006 2H4.0006C2.8608 11 2 10.0131 2 9zm2 .0247v4.9506l.002.0031A.1.1 0 0 0 4.0216 9h6.9568a.09.09 0 0 0 .0196-.0216L11 8.9753V5.0247l-.002-.0031A.1.1 0 0 0 10.9784 5H7.5a1 1 0 0 1-.724-.3102l-.6236-.6545a.3.3 0 0 0-.0353-.0148A.38.38 0 0 0 6 4H4.0216a.1.1 0 0 0-.0196.0216zM5 13c0-.5523-.4477-1-1-1s-1 .4477-1 1v5c0 .5523.4477 1 1 1h5c.5523 0 1-.4477 1-1s-.4477-1-1-1H5zm8.0006 0C11.8608 13 11 13.9869 11 15v5c0 1.0131.8608 2 2.0006 2h6.9988C21.1392 22 22 21.0131 22 20v-4c0-1.0131-.8608-2-2.0006-2h-3.0709l-.4106-.4309-.0323-.0285C16.0624 13.1668 15.496 13 15 13zM13 19.9753v-4.9506l.002-.0031A.1.1 0 0 1 13.0216 15H15a.38.38 0 0 1 .1171.0205.3.3 0 0 1 .0353.0148l.6236.6545A1 1 0 0 0 16.5 16h3.4784a.1.1 0 0 1 .0155.0159l.0041.0057.002.0031v3.9506l-.002.0031a.1.1 0 0 1-.0112.0139l-.0045.0044-.0039.0033h-6.9568a.1.1 0 0 1-.0196-.0216z"/></svg>