<svg xmlns="http://www.w3.org/2000/svg" width="24" height="24" fill="none" viewBox="0 0 24 24"><path fill="#000" fill-rule="evenodd" d="m6.0315 3.9757 1.4332 1.4332a8 8 0 0 1 .981-.5779 10 10 0 0 0-.188.3989 11.3 11.3 0 0 0-.2799.692l1.5893 1.5894c.1494-.5391.324-1.032.5183-1.4691.328-.738.6926-1.2733 1.047-1.6105C11.4816 4.0993 11.7731 4 12 4s.5183.0993.8676.4317c.3544.3372.719.8725 1.047 1.6105.5615 1.2633.958 2.9913 1.0597 4.9578h-1.9185l3.762 3.7619A20.2 20.2 0 0 0 16.9767 13h2.9614a7.955 7.955 0 0 1-1.347 3.5353l1.4332 1.4332C21.2654 16.3026 22 14.2371 22 12c0-5.5228-4.4772-10-10-10-2.237 0-4.3026.7346-5.9685 1.9757M2 12c0-1.8381.496-3.5604 1.3613-5.0403L1.89 5.4884c-.3906-.3905-.3906-1.0236 0-1.4142s1.0237-.3905 1.4142 0l16.5 16.5c.3905.3906.3905 1.0237 0 1.4143s-1.0237.3905-1.4142 0l-1.3498-1.3498C15.5604 21.5041 13.8381 22 12 22 6.4772 22 2 17.5228 2 12m13.5544-7.169C17.9051 5.9987 19.6 8.2887 19.9381 11h-2.9614c-.1031-2.204-.5447-4.218-1.2345-5.7701a10 10 0 0 0-.1878-.3989M4.8364 8.4348l2.2067 2.2067A21 21 0 0 0 7.0233 11H4.0619a7.95 7.95 0 0 1 .7745-2.5652M7.0233 13H4.0619c.338 2.7113 2.033 5.0013 4.3837 6.169a10 10 0 0 1-.1878-.3989C7.568 17.2181 7.1264 15.204 7.0233 13m2.3783 0 4.6449 4.6449a9 9 0 0 1-.1319.3129c-.328.738-.6926 1.2733-1.047 1.6105-.3493.3324-.6407.4317-.8676.4317s-.5184-.0993-.8676-.4317c-.3544-.3372-.719-.8725-1.047-1.6105-.5615-1.2633-.958-2.9913-1.0597-4.9578zm6.1582 6.1582.0054.0054-.0108.0054z"/></svg>