<svg xmlns="http://www.w3.org/2000/svg" width="24" height="24" fill="none" viewBox="0 0 24 24"><g fill="#000"><circle cx="12" cy="18" r="2"/><path fill-rule="evenodd" d="M5.849 12.5578c1.544-1.6332 3.7277-2.6501 6.1505-2.6501s4.6067 1.0169 6.1506 2.6501c.3794.4014 1.0123.4192 1.4136.0398s.4192-1.0124.0398-1.4137c-1.906-2.0162-4.6086-3.2762-7.604-3.2762-2.9953 0-5.698 1.26-7.6039 3.2762-.3794.4013-.3616 1.0343.0397 1.4137s1.0343.3616 1.4137-.0398m2.735 3.085c.8025-1.0036 2.0341-1.6436 3.4157-1.6436s2.6132.64 3.4157 1.6436c.345.4313.9742.5014 1.4056.1564s.5014-.9742.1564-1.4055c-1.1657-1.4578-2.9626-2.3945-4.9777-2.3945s-3.812.9367-4.9777 2.3945c-.345.4313-.2749 1.0606.1564 1.4055s1.0607.2749 1.4056-.1564m5.493 2.4751c0 1.1473-.93 2.0774-2.0774 2.0774s-2.0774-.9301-2.0774-2.0774.9301-2.0774 2.0774-2.0774 2.0774.9301 2.0774 2.0774"/></g></svg>