<svg xmlns="http://www.w3.org/2000/svg" width="24" height="24" fill="none" viewBox="0 0 24 24"><path fill="#000" fill-rule="evenodd" d="M3 7c0-2.2091 1.7909-4 4-4h10c2.2091 0 4 1.7909 4 4v7c0 1.8638-1.2748 3.4299-3 3.874V18c0 1.6569-1.3431 3-3 3H9c-1.6569 0-3-1.3431-3-3v-.126C4.2748 17.4299 3 15.8638 3 14zm2 0c0-1.1046.8954-2 2-2v3c0 .5523.4477 1 1 1s1-.4477 1-1V5h2v3c0 .5523.4477 1 1 1s1-.4477 1-1V5h2v3c0 .5523.4477 1 1 1s1-.4477 1-1V5c1.1046 0 2 .8954 2 2v7c0 1.1046-.8954 2-2 2h-1v2c0 .5523-.4477 1-1 1H9c-.5523 0-1-.4477-1-1v-2H7c-1.1046 0-2-.8954-2-2zm4.2929 3.2929c.3905-.3905 1.0237-.3905 1.4142 0L12 11.5858l1.2929-1.2929c.3905-.3905 1.0237-.3905 1.4142 0s.3905 1.0237 0 1.4142L13.4142 13l1.2563 1.2563c.3905.3905.3905 1.0237 0 1.4142s-1.0237.3905-1.4142 0L12 14.4142l-1.2929 1.2929c-.3905.3905-1.0237.3905-1.4142 0s-.3905-1.0237 0-1.4142L10.5858 13l-1.2929-1.2929c-.3905-.3905-.3905-1.0237 0-1.4142"/></svg>