<svg xmlns="http://www.w3.org/2000/svg" width="24" height="24" fill="none" viewBox="0 0 24 24"><path fill="#000" fill-rule="evenodd" d="M3.8494 2.8664c.3905-.3906 1.0237-.3906 1.4142 0l14 14c.3906.3905.3906 1.0237 0 1.4142s-1.0237.3905-1.4142 0l-3.2143-3.2144a4.35 4.35 0 0 0-2.6347-.8828c-1.3816 0-2.6132.6399-3.4157 1.6435-.345.4314-.9742.5014-1.4055.1565s-.5014-.9742-.1565-1.4055c1.1186-1.3988 2.8182-2.3178 4.7341-2.3899l-1.8383-1.8383c-1.5799.3995-2.9827 1.2434-4.0688 2.3923-.3794.4014-1.0123.4192-1.4136.0398s-.4191-1.0123-.0397-1.4137c1.083-1.1457 2.4233-2.0472 3.9284-2.6121L6.7183 7.1494a12.59 12.59 0 0 0-3.4337 2.3537c-.3978.3832-1.0309.3713-1.414-.0265s-.3713-1.0308.0265-1.414A14.6 14.6 0 0 1 5.226 5.6572L3.8494 4.2806c-.3905-.3905-.3905-1.0237 0-1.4142m7.363 3.1468L9.4166 4.2175a14.65 14.65 0 0 1 2.5836-.2286c3.9228 0 7.4852 1.5522 10.1031 4.0738.3978.3831.4097 1.0161.0265 1.414-.3831.3977-1.0162.4096-1.4139.0264-2.2602-2.177-5.3308-3.5141-8.7157-3.5141q-.397 0-.7878.0242m2.169 2.1691 3.3641 3.364a8.5 8.5 0 0 1 1.4053 1.1957c.3794.4014 1.0123.4192 1.4137.0398s.4191-1.0123.0397-1.4137c-1.608-1.701-3.7832-2.8638-6.2228-3.1858m.6964 10.1198c0 1.1473-.9301 2.0774-2.0774 2.0774s-2.0774-.9301-2.0774-2.0774.9301-2.0774 2.0774-2.0774 2.0774.93 2.0774 2.0774"/></svg>