<svg width="24" height="24" viewBox="0 0 24 24" fill="none" xmlns="http://www.w3.org/2000/svg">
<path d="M8.58426 15.827C9.3868 14.8234 10.6183 14.1835 12 14.1835C13.3817 14.1835 14.6132 14.8234 15.4157 15.827C15.7606 16.2584 16.3899 16.3284 16.8213 15.9835C17.2526 15.6386 17.3226 15.0093 16.9777 14.578C15.812 13.1202 14.015 12.1835 12 12.1835C9.98495 12.1835 8.18802 13.1202 7.02226 14.578C6.67734 15.0093 6.74739 15.6386 7.17872 15.9835C7.61006 16.3284 8.23933 16.2584 8.58426 15.827Z" fill="black"/>
<path d="M11.9999 20.3795C13.1472 20.3795 14.0773 19.4494 14.0773 18.3021C14.0773 17.1548 13.1472 16.2247 11.9999 16.2247C10.8526 16.2247 9.92252 17.1548 9.92252 18.3021C9.92252 19.4494 10.8526 20.3795 11.9999 20.3795Z" fill="black"/>
<g opacity="0.2">
<path d="M3.28407 9.50319C5.54425 7.32617 8.61479 5.98901 11.9997 5.98901C15.3846 5.98901 18.4552 7.32617 20.7154 9.50319C21.1131 9.88633 21.7462 9.87446 22.1293 9.47669C22.5125 9.07892 22.5006 8.44586 22.1028 8.06272C19.485 5.54117 15.9226 3.98901 11.9997 3.98901C8.07687 3.98901 4.51447 5.54117 1.8966 8.06272C1.49883 8.44586 1.48696 9.07892 1.8701 9.47669C2.25324 9.87446 2.88629 9.88633 3.28407 9.50319Z" fill="black"/>
<path d="M5.84919 12.7421C7.39309 11.1089 9.57683 10.0919 11.9997 10.0919C14.4226 10.0919 16.6064 11.1089 18.1503 12.7421C18.5297 13.1434 19.1626 13.1612 19.5639 12.7818C19.9653 12.4024 19.983 11.7695 19.6036 11.3682C17.6977 9.352 14.9951 8.09192 11.9997 8.09192C9.00438 8.09192 6.30173 9.352 4.3958 11.3682C4.01641 11.7695 4.0342 12.4024 4.43554 12.7818C4.83688 13.1612 5.4698 13.1434 5.84919 12.7421Z" fill="black"/>
</g>
</svg>
