<svg width="24" height="24" viewBox="0 0 24 24" fill="none" xmlns="http://www.w3.org/2000/svg">
<path fill-rule="evenodd" clip-rule="evenodd" d="M7.46471 5.40887L6.03153 3.97568C7.69741 2.73458 9.76292 2 12 2C17.5228 2 22 6.47715 22 12C22 14.2371 21.2654 16.3026 20.0243 17.9685L18.5911 16.5353C19.301 15.5056 19.7758 14.3013 19.9381 13H16.9767C16.9485 13.6034 16.8949 14.1926 16.8178 14.7619L13.0558 11H14.9743C14.8726 9.03347 14.4761 7.30546 13.9146 6.04218C13.5866 5.30422 13.222 4.76892 12.8676 4.43166C12.5184 4.0993 12.2269 4 12 4C11.7731 4 11.4816 4.0993 11.1324 4.43166C10.778 4.76892 10.4134 5.30422 10.0854 6.04218C9.89109 6.47935 9.71654 6.97217 9.56712 7.51127L7.97781 5.92197C8.0659 5.68239 8.1593 5.45144 8.25776 5.2299C8.31802 5.09431 8.38064 4.96122 8.44561 4.83099C8.10409 5.00065 7.7764 5.19399 7.46471 5.40887ZM19.9381 11C19.6 8.2887 17.9052 5.99874 15.5544 4.83099C15.6194 4.96122 15.682 5.09431 15.7422 5.2299C16.432 6.78191 16.8736 8.79597 16.9767 11H19.9381Z" fill="black"/>
<path fill-rule="evenodd" clip-rule="evenodd" d="M3.36128 6.95967C2.49593 8.43961 2 10.1619 2 12C2 17.5228 6.47715 22 12 22C13.8381 22 15.5604 21.5041 17.0403 20.6387L18.3901 21.9884C18.7806 22.379 19.4137 22.379 19.8043 21.9884C20.1948 21.5979 20.1948 20.9648 19.8043 20.5742L3.30427 4.07423C2.91375 3.68371 2.28059 3.68371 1.89006 4.07423C1.49954 4.46476 1.49954 5.09792 1.89006 5.48845L3.36128 6.95967ZM15.5652 19.1636L15.5598 19.1582C15.558 19.1618 15.5562 19.1654 15.5544 19.169C15.558 19.1672 15.5616 19.1654 15.5652 19.1636ZM14.0465 17.6449L9.40161 13H9.02567C9.12736 14.9665 9.52392 16.6945 10.0854 17.9578C10.4134 18.6958 10.778 19.2311 11.1324 19.5683C11.4816 19.9007 11.7731 20 12 20C12.2269 20 12.5184 19.9007 12.8676 19.5683C13.222 19.2311 13.5866 18.6958 13.9146 17.9578C13.9597 17.8565 14.0036 17.7521 14.0465 17.6449ZM7.04313 10.6415L4.83639 8.43477C4.44261 9.22446 4.17557 10.0884 4.06189 11H7.02328C7.0289 10.8799 7.03552 10.7604 7.04313 10.6415ZM4.06189 13H7.02328C7.12643 15.204 7.56798 17.2181 8.25776 18.7701C8.31802 18.9057 8.38064 19.0388 8.44561 19.169C6.09485 18.0013 4.39999 15.7113 4.06189 13Z" fill="black"/>
</svg>
