<svg xmlns="http://www.w3.org/2000/svg" width="24" height="24" fill="none" viewBox="0 0 24 24"><g fill="#000"><path fill-rule="evenodd" d="M11.9997 13.9996c-1.3817 0-2.6132.64-3.4157 1.6436-.345.4313-.9742.5014-1.4056.1565s-.5014-.9742-.1564-1.4056c1.1657-1.4578 2.9626-2.3945 4.9777-2.3945s3.812.9367 4.9777 2.3945c.3449.4314.2749 1.0606-.1564 1.4056s-1.0607.2748-1.4056-.1565c-.8025-1.0036-2.034-1.6436-3.4157-1.6436m2.0773 4.1187c0 1.1473-.9301 2.0774-2.0774 2.0774s-2.0774-.9301-2.0774-2.0774.9301-2.0774 2.0774-2.0774 2.0774.9301 2.0774 2.0774"/><circle cx="12" cy="18" r="2"/></g></svg>