<svg width="24" height="24" viewBox="0 0 24 24" fill="none" xmlns="http://www.w3.org/2000/svg">
<circle cx="11.9998" cy="18.3021" r="2.0774" fill="black"/>
<g opacity="0.2">
<path d="M3.28407 9.50319C5.54425 7.32617 8.61479 5.98901 11.9997 5.98901C15.3846 5.98901 18.4552 7.32617 20.7154 9.50319C21.1131 9.88633 21.7462 9.87446 22.1293 9.47669C22.5125 9.07892 22.5006 8.44586 22.1028 8.06272C19.485 5.54117 15.9226 3.98901 11.9997 3.98901C8.07687 3.98901 4.51447 5.54117 1.8966 8.06272C1.49883 8.44586 1.48696 9.07892 1.8701 9.47669C2.25324 9.87446 2.88629 9.88633 3.28407 9.50319Z" fill="black"/>
<path d="M11.9997 10.0919C9.57683 10.0919 7.39309 11.1089 5.84919 12.7421C5.4698 13.1434 4.83688 13.1612 4.43554 12.7818C4.0342 12.4024 4.01641 11.7695 4.3958 11.3682C6.30173 9.352 9.00438 8.09192 11.9997 8.09192C14.9951 8.09192 17.6977 9.352 19.6036 11.3682C19.983 11.7695 19.9653 12.4024 19.5639 12.7818C19.1626 13.1612 18.5297 13.1434 18.1503 12.7421C16.6064 11.1089 14.4226 10.0919 11.9997 10.0919Z" fill="black"/>
<path d="M11.9999 14.1835C10.6182 14.1835 9.3867 14.8234 8.58416 15.827C8.23924 16.2584 7.60996 16.3284 7.17863 15.9835C6.74729 15.6386 6.67724 15.0093 7.02217 14.578C8.18792 13.1202 9.98485 12.1835 11.9999 12.1835C14.0149 12.1835 15.8119 13.1202 16.9776 14.578C17.3225 15.0093 17.2525 15.6386 16.8212 15.9835C16.3898 16.3284 15.7605 16.2584 15.4156 15.827C14.6131 14.8234 13.3816 14.1835 11.9999 14.1835Z" fill="black"/>
</g>
</svg>
