<svg xmlns="http://www.w3.org/2000/svg" width="24" height="24" fill="none" viewBox="0 0 24 24"><path fill="#000" fill-rule="evenodd" d="M13 2c0-.5523-.4477-1-1-1s-1 .4477-1 1v4c0 .5523.4477 1 1 1s1-.4477 1-1zm7.3682.9961c.2741-.4795.1075-1.0903-.3721-1.3643s-1.0903-.1075-1.3643.372l-2 3.5c-.2741.4796-.1075 1.0904.3721 1.3644s1.0903.1075 1.3643-.372zm-16.7364 0c-.274-.4795-.1075-1.0903.372-1.3643.4796-.274 1.0904-.1075 1.3644.372l2 3.5c.274.4796.1075 1.0904-.372 1.3644-.4796.274-1.0904.1075-1.3644-.372zM4.6 8C3.164 8 2 9.164 2 10.6v2.8C2 14.8359 3.164 16 4.6 16h14.8c1.4359 0 2.6-1.1641 2.6-2.6v-2.8C22 9.164 20.8359 8 19.4 8zM4 10.6a.6.6 0 0 1 .6-.6H8v4H4.6a.6.6 0 0 1-.6-.6zM14 14v-4h-4v4zm2-4v4h3.4a.6.6 0 0 0 .6-.6v-2.8a.6.6 0 0 0-.6-.6zm3.9961 12.3682c.4796-.274.6462-.8848.3721-1.3643l-2-3.5c-.274-.4796-.8848-.6462-1.3643-.3721s-.6462.8848-.3721 1.3643l2 3.5c.274.4796.8848.6462 1.3643.3721m-15.9922 0c-.4796-.274-.6462-.8848-.3721-1.3643l2-3.5c.274-.4796.8848-.6462 1.3643-.3721s.6462.8848.3721 1.3643l-2 3.5c-.274.4796-.8848.6462-1.3643.3721M12 23c.5523 0 1-.4477 1-1v-4c0-.5523-.4477-1-1-1s-1 .4477-1 1v4c0 .5523.4477 1 1 1"/></svg>