<svg width="24" height="24" viewBox="0 0 24 24" fill="none" xmlns="http://www.w3.org/2000/svg">
<path d="M6.23007 4.81633C5.83955 4.42581 5.20638 4.42581 4.81586 4.81633C4.42533 5.20686 4.42533 5.84002 4.81586 6.23054L10.5855 12.0001L4.81584 17.7697C4.42532 18.1603 4.42532 18.7934 4.81584 19.184C5.20637 19.5745 5.83953 19.5745 6.23006 19.184L11.9997 13.4143L17.7692 19.1839C18.1598 19.5744 18.7929 19.5744 19.1835 19.1839C19.574 18.7934 19.574 18.1602 19.1835 17.7697L13.4139 12.0001L19.1834 6.23057C19.574 5.84005 19.574 5.20689 19.1834 4.81636C18.7929 4.42584 18.1598 4.42584 17.7692 4.81636L11.9997 10.5859L6.23007 4.81633Z" fill="black"/>
</svg>
