<svg width="24" height="24" viewBox="0 0 24 24" fill="none" xmlns="http://www.w3.org/2000/svg">
<path fill-rule="evenodd" clip-rule="evenodd" d="M4.29301 2.29237C4.65781 1.92774 5.23436 1.9044 5.62699 2.22108L21.7774 18.3715C22.0952 18.7641 22.0721 19.3412 21.7071 19.7064C21.341 20.0725 20.7619 20.0949 20.3692 19.7748L20.293 19.7064L18.1465 17.5599L17.3448 21.306L17.3116 21.4408C16.9137 22.7901 15.0918 23.1012 14.2793 21.9027L10.1348 15.7855L3.14652 13.3793L3.0186 13.3305C1.76813 12.7912 1.64206 11.0447 2.80277 10.3324L2.92289 10.266L8.15922 7.57264L4.29301 3.70643L4.22465 3.63026C3.90494 3.2375 3.92713 2.65825 4.29301 2.29237ZM4.46879 11.7191L11.1006 14.0043C11.2534 14.057 11.391 14.1458 11.501 14.2621L11.6026 14.3881L15.5381 20.1937L16.4629 15.8764L9.6436 9.05702L4.46879 11.7191Z" fill="black"/>
<path d="M18.7227 2.14588C19.9659 1.61822 21.3285 2.71143 21.0381 4.06776L19.1426 12.9086L17.459 11.225L18.9493 4.27186L13.3721 7.13807L11.8877 5.6537L18.6016 2.20252L18.7227 2.14588Z" fill="black"/>
</svg>
