<svg xmlns="http://www.w3.org/2000/svg" width="24" height="24" fill="none" viewBox="0 0 24 24"><path fill="#000" fill-rule="evenodd" d="M11.5413 2.1593a1.001 1.001 0 0 0-1.0205-.0371 1 1 0 0 0-.5118.7422L10.0002 3v1.7861l2 2v-1.955L16.1506 7.5l-2.0927 1.3438 1.4472 1.4472 3.0362-1.9502.1015-.0742a1.001 1.001 0 0 0 0-1.5332l-.1015-.0742zm-6.9102.0654c-.3928-.3203-.9718-.2977-1.3379.0684-.366.366-.3887.9451-.0683 1.3379l.0683.0761 6.707 6.7071v.0507L6.555 8.1681l-.088-.0528a1.0004 1.0004 0 0 0-1.1035 1.6563l.082.0605 3.252 2.168-3.252 2.168c-.4595.3063-.5836.9272-.2773 1.3867.3064.4594.9273.5836 1.3868.2773l3.4452-2.2968v7.4648c.0001.3657.1996.7026.5206.8779.321.1752.7128.1607 1.0205-.0371l6.0166-3.8691 2.7353 2.7353.0762.0684c.3928.3202.9718.2977 1.3379-.0684.366-.366.3885-.9451.0683-1.3379l-.0683-.0761-17-17zm11.4795 14.2998-4.1104 2.6436v-5.3369l3.9698 2.5527z"/></svg>