<svg width="24" height="24" viewBox="0 0 24 24" fill="none" xmlns="http://www.w3.org/2000/svg">
<path fill-rule="evenodd" clip-rule="evenodd" d="M3 7C3 5.34315 4.34315 4 6 4H18C18.892 4 19.693 4.38929 20.2426 5.00724C22.3388 5.13262 24 6.8723 24 9C24 11.1875 22.244 12.9649 20.0647 12.9995C18.5921 15.9632 15.5339 18 12 18C7.02944 18 3 13.9706 3 9V7ZM20.8144 10.8272C21.5131 10.5154 22 9.81454 22 9C22 8.25972 21.5978 7.61337 21 7.26756V9C21 9.62606 20.9361 10.2372 20.8144 10.8272ZM12 16C15.866 16 19 12.866 19 9V7C19 6.44772 18.5523 6 18 6H6C5.44772 6 5 6.44772 5 7V9C5 12.866 8.13401 16 12 16Z" fill="black"/>
<path d="M4 20C4 19.4477 4.44772 19 5 19L19 19C19.5523 19 20 19.4477 20 20C20 20.5523 19.5523 21 19 21L5 21C4.44772 21 4 20.5523 4 20Z" fill="black"/>
</svg>
