<svg xmlns="http://www.w3.org/2000/svg" width="24" height="24" fill="none" viewBox="0 0 24 24"><path fill="#000" fill-rule="evenodd" d="M6 4C4.3431 4 3 5.3431 3 7v2c0 4.9706 4.0294 9 9 9 3.5339 0 6.5921-2.0368 8.0647-5.0005C22.244 12.9649 24 11.1875 24 9c0-2.1277-1.6612-3.8674-3.7574-3.9928C19.693 4.3892 18.892 4 18 4zm13 5c0 3.866-3.134 7-7 7s-7-3.134-7-7V7c0-.5523.4477-1 1-1h12c.5523 0 1 .4477 1 1zm3 0c0 .8145-.4869 1.5154-1.1856 1.8272A9.04 9.04 0 0 0 21 9V7.2676c.5978.3458 1 .9921 1 1.7324M5 19c-.5523 0-1 .4477-1 1s.4477 1 1 1h14c.5523 0 1-.4477 1-1s-.4477-1-1-1z"/></svg>