<svg xmlns="http://www.w3.org/2000/svg" width="24" height="24" fill="none" viewBox="0 0 24 24"><path fill="#000" fill-rule="evenodd" d="M12 21c.5523 0 1-.4477 1-1v-3.1707c1.1652-.4118 2-1.5231 2-2.8293s-.8348-2.4175-2-2.8293V4c0-.5523-.4477-1-1-1s-1 .4477-1 1v7.1707C9.8348 11.5825 9 12.6938 9 14s.8348 2.4175 2 2.8293V20c0 .5523.4477 1 1 1M4 3c.5523 0 1 .4477 1 1v3.1707C6.1652 7.5825 7 8.6937 7 10s-.8348 2.4175-2 2.8293V20c0 .5523-.4477 1-1 1s-1-.4477-1-1v-7.1707C1.8348 12.4175 1 11.3062 1 10s.8348-2.4175 2-2.8293V4c0-.5523.4477-1 1-1m16 0c.5523 0 1 .4477 1 1v3.1707c1.1652.4118 2 1.523 2 2.8293s-.8348 2.4175-2 2.8293V20c0 .5523-.4477 1-1 1s-1-.4477-1-1v-7.1707c-1.1652-.4118-2-1.5231-2-2.8293s.8348-2.4175 2-2.8293V4c0-.5523.4477-1 1-1M3 10c0-.5523.4477-1 1-1s1 .4477 1 1-.4477 1-1 1-1-.4477-1-1m16 0c0-.5523.4477-1 1-1s1 .4477 1 1-.4477 1-1 1-1-.4477-1-1m-8 4c0 .5523.4477 1 1 1s1-.4477 1-1-.4477-1-1-1-1 .4477-1 1"/></svg>