<svg xmlns="http://www.w3.org/2000/svg" width="24" height="24" fill="none" viewBox="0 0 24 24"><path fill="#000" fill-rule="evenodd" d="M5 4c0-.5523-.4477-1-1-1s-1 .4477-1 1v3.1707C1.8348 7.5826 1 8.6937 1 10s.8348 2.4174 2 2.8293V20c0 .5523.4477 1 1 1s1-.4477 1-1v-7.1707C6.1652 12.4174 7 11.3062 7 10s-.8348-2.4174-2-2.8293zm7 17c.5523 0 1-.4477 1-1V4c0-.5523-.4477-1-1-1s-1 .4477-1 1v7.1707C9.8348 11.5826 9 12.6938 9 14s.8348 2.4174 2 2.8293V20c0 .5523.4477 1 1 1m0-8c.5523 0 1 .4477 1 1s-.4477 1-1 1-1-.4477-1-1 .4477-1 1-1m9-6c0-.0057-2 0-2 0V4c0-.5523.4477-1 1-1s1 .4477 1 1zM4 9c-.5523 0-1 .4477-1 1s.4477 1 1 1 1-.4477 1-1-.4477-1-1-1m17 0q.4142 0 .7678.1464t.6464.4394.4394.6464Q23 10.5857 23 11v8q0 .4143-.1464.7678-.1465.3534-.4394.6464-.2928.293-.6464.4393Q21.4142 21 21 21h-4q-.4142 0-.7678-.1465t-.6464-.4393-.4394-.6464Q15 19.4143 15 19v-8q0-.4143.1464-.7678t.4394-.6464q.2928-.2929.6464-.4394Q16.5858 9 17 9zm-3 2h-1v8h4v-8h-1v.5a.5.5 0 0 1-.5.5h-1a.5.5 0 0 1-.5-.5z"/></svg>