<svg xmlns="http://www.w3.org/2000/svg" width="24" height="24" fill="none" viewBox="0 0 24 24"><path fill="#000" fill-rule="evenodd" d="M5.1863 3.5812c-.321-.4494-.217-1.074.2325-1.395s1.074-.2169 1.395.2325l3.9618 5.5467-1.2321 1.7159zm13.3949-1.395c.4495.321.5535.9456.2325 1.395L13.2289 11.4l1.8925 2.6494c1.434-.2807 3.1561.6499 4.1519 2.3615 1.179 2.0268.8932 4.3812-.6384 5.2588s-3.7291-.054-4.9082-2.0807c-.8959-1.5401-.946-3.2694-.2464-4.3961L12 13.1204l-1.4803 2.0725c.6996 1.1267.6495 2.856-.2464 4.3961-1.179 2.0267-3.3765 2.9583-4.9082 2.0807s-1.8174-3.232-.6384-5.2588c.9958-1.7116 2.718-2.6422 4.152-2.3615l8.3076-11.6307c.321-.4494.9455-.5535 1.3949-.2325M6.3594 19.9344c-.0985-.0565-.2868-.2283-.3446-.7042-.058-.4783.0485-1.1395.4407-1.8136.392-.6738.9185-1.1008 1.3737-1.2938.4553-.193.7099-.1154.8114-.0572.0985.0564.2868.2282.3446.7041.058.4784-.0485 1.1395-.4407 1.8136-.392.6739-.9185 1.1008-1.3737 1.2938-.4553.193-.7099.1154-.8114.0573m11.6258-.7042c.058-.4783-.0485-1.1395-.4407-1.8136-.392-.6738-.9185-1.1008-1.3737-1.2938-.4553-.193-.7099-.1154-.8114-.0572-.0985.0564-.2868.2282-.3446.7041-.058.4784.0485 1.1395.4407 1.8136.392.6739.9185 1.1008 1.3737 1.2938.4553.193.7099.1154.8114.0573.0985-.0565.2868-.2283.3446-.7042"/></svg>