<svg width="24" height="24" viewBox="0 0 24 24" fill="none" xmlns="http://www.w3.org/2000/svg">
<path fill-rule="evenodd" clip-rule="evenodd" d="M18.8137 3.58132C19.1347 3.1319 19.0307 2.50735 18.5812 2.18634C18.1318 1.86534 17.5073 1.96943 17.1863 2.41884L8.87861 14.0496C7.44462 13.7689 5.72248 14.6994 4.72672 16.411C3.54766 18.4378 3.83348 20.7922 5.36513 21.6698C6.89677 22.5474 9.09422 21.6158 10.2733 19.5891C11.1692 18.049 11.2193 16.3197 10.5197 15.193L12 13.1205L13.4803 15.193C12.7807 16.3197 12.8308 18.049 13.7267 19.5891C14.9058 21.6158 17.1032 22.5474 18.6349 21.6698C20.1665 20.7922 20.4523 18.4378 19.2733 16.411C18.2775 14.6994 16.5554 13.7689 15.1214 14.0496L13.2289 11.4001L18.8137 3.58132ZM6.01483 19.2303C6.07261 19.7062 6.26093 19.878 6.35943 19.9345C6.46095 19.9926 6.71548 20.0702 7.17082 19.8772C7.62598 19.6842 8.15251 19.2573 8.54454 18.5834C8.93667 17.9094 9.04324 17.2482 8.98517 16.7698C8.92739 16.2939 8.73906 16.1221 8.64057 16.0657C8.53905 16.0075 8.28452 15.9299 7.82918 16.123C7.37402 16.3159 6.84749 16.7429 6.45546 17.4167C6.06333 18.0908 5.95676 18.752 6.01483 19.2303ZM17.5445 17.4167C17.9367 18.0908 18.0432 18.752 17.9852 19.2303C17.9274 19.7062 17.7391 19.878 17.6406 19.9345C17.5391 19.9926 17.2845 20.0702 16.8292 19.8772C16.374 19.6842 15.8475 19.2573 15.4555 18.5834C15.0633 17.9094 14.9568 17.2482 15.0148 16.7698C15.0726 16.2939 15.2609 16.1221 15.3594 16.0657C15.4609 16.0075 15.7155 15.9299 16.1708 16.123C16.626 16.3159 17.1525 16.7429 17.5445 17.4167Z" fill="black"/>
<path d="M5.41876 2.18634C4.96935 2.50735 4.86526 3.1319 5.18627 3.58132L9.54348 9.68142L10.7756 7.96548L6.81373 2.41884C6.49272 1.96943 5.86817 1.86534 5.41876 2.18634Z" fill="black"/>
</svg>
