<svg xmlns="http://www.w3.org/2000/svg" width="24" height="24" fill="none" viewBox="0 0 24 24"><path fill="#000" fill-rule="evenodd" d="M3.7071 2.2929c-.3905-.3905-1.0237-.3905-1.4142 0s-.3905 1.0237 0 1.4142L7.5858 9H5c-.5523 0-1 .4477-1 1s.4477 1 1 1h5.003a.997.997 0 0 0 .7041-.2929A.997.997 0 0 0 11 10.003V5c0-.5523-.4477-1-1-1s-1 .4477-1 1v2.5858zm18 0c-.3905-.3905-1.0237-.3905-1.4142 0L15 7.5858V5c0-.5523-.4477-1-1-1s-1 .4477-1 1v5.003a.997.997 0 0 0 .2929.7041.997.997 0 0 0 .7041.2929H19c.5523 0 1-.4477 1-1s-.4477-1-1-1h-2.5858l5.2929-5.2929c.3905-.3905.3905-1.0237 0-1.4142m-18 19.4142c-.3905.3905-1.0237.3905-1.4142 0s-.3905-1.0237 0-1.4142L7.5858 15H5c-.5523 0-1-.4477-1-1s.4477-1 1-1h5.003a.996.996 0 0 1 .7041.2929.997.997 0 0 1 .2929.7041V19c0 .5523-.4477 1-1 1s-1-.4477-1-1v-2.5858zm16.5858 0c.3905.3905 1.0237.3905 1.4142 0s.3905-1.0237 0-1.4142L16.4142 15H19c.5523 0 1-.4477 1-1s-.4477-1-1-1h-5.003a.996.996 0 0 0-.7041.2929.997.997 0 0 0-.2929.7041V19c0 .5523.4477 1 1 1s1-.4477 1-1v-2.5858z"/></svg>