<svg xmlns="http://www.w3.org/2000/svg" width="24" height="24" fill="none" viewBox="0 0 24 24"><path fill="#000" fill-rule="evenodd" d="M12 2C6.4772 2 2 6.4772 2 12s4.4772 10 10 10q.4874-.0002.9629-.0458c-1.2892-.8377-2.2628-2.1202-2.7034-3.6299a8 8 0 0 1-.1741-.3665c-.5615-1.2633-.958-2.9913-1.0597-4.9578h1.9961a6.535 6.535 0 0 1 2.0125-2H9.0257c.1017-1.9665.4982-3.6945 1.0597-4.9578.328-.738.6926-1.2733 1.047-1.6105C11.4816 4.0993 11.7731 4 12 4s.5184.0993.8676.4317c.3544.3372.719.8725 1.047 1.6105.4835 1.0877.8446 2.52 1.0006 4.1524A6.5 6.5 0 0 1 16.5 10q.205 0 .4069.0125c-.1728-1.816-.5794-3.4657-1.1647-4.7826a10 10 0 0 0-.1878-.3989c2.3453 1.165 4.0378 3.4471 4.3813 6.1502a6.53 6.53 0 0 1 2.0185 1.9817Q21.9998 12.4874 22 12c0-5.5228-4.4772-10-10-10M8.2578 5.2299C7.568 6.7819 7.1264 8.7959 7.0233 11H4.0619c.338-2.7113 2.033-5.0013 4.3837-6.169a10 10 0 0 0-.1878.3989M16.5 12c-2.4853 0-4.5 2.0147-4.5 4.5s2.0147 4.5 4.5 4.5c.8805 0 1.702-.2529 2.3957-.69l2.3972 2.3971c.3905.3905 1.0237.3905 1.4142 0s.3905-1.0237 0-1.4142L20.31 18.8957A4.48 4.48 0 0 0 21 16.5c0-2.4853-2.0147-4.5-4.5-4.5m-9.4767 1H4.0619c.338 2.7113 2.033 5.0013 4.3837 6.169a10 10 0 0 1-.1878-.3989C7.568 17.2181 7.1264 15.204 7.0233 13M14 16.5c0-1.3807 1.1193-2.5 2.5-2.5s2.5 1.1193 2.5 2.5-1.1193 2.5-2.5 2.5-2.5-1.1193-2.5-2.5"/></svg>