<svg xmlns="http://www.w3.org/2000/svg" width="24" height="24" fill="none" viewBox="0 0 24 24"><path fill="#000" fill-rule="evenodd" d="M7 2C5.3431 2 4 3.3431 4 5v3.8099A5.96 5.96 0 0 1 6 8.09V5c0-.5523.4477-1 1-1h5.0093v2.9849c0 1.6568 1.3431 3.0151 3 3.0151H20v-.7854c0-.396-.1566-.7758-.4355-1.0568L13.891 2.4432A1.5 1.5 0 0 0 12.8265 2zm9.5745 5.9849L14.0093 5.401v1.584c0 .5523.4477 1 1 1zM4 16.653a4 4 0 0 0 2 1.2282c.3196.0822.6547.126 1 .126 2.2091 0 4-1.7909 4-4s-1.7909-4-4-4c-.3453 0-.6804.0437-1 .126a4 4 0 0 0-2 1.2282 3.985 3.985 0 0 0-1 2.6458 3.985 3.985 0 0 0 1 2.6458m3-5.1459a.5.5 0 0 1 .5.5V13.8l1.3535 1.3536a.5.5 0 1 1-.7071.7071l-1.5-1.5a.5.5 0 0 1-.1465-.3536v-2a.5.5 0 0 1 .5-.5m12.7164.793c-.3905-.3906-1.0237-.3906-1.4142 0-.3906.3905-.3906 1.0237 0 1.4142l.2929.2929h-4.5858c-.5523 0-1 .4477-1 1s.4477 1 1 1h4.5858l-.2929.2929c-.3906.3905-.3906 1.0237 0 1.4142s1.0237.3905 1.4142 0l2-2a1.0003 1.0003 0 0 0 0-1.4142zM7.296 20a6 6 0 0 1-.296.0072c-1.09 0-2.112-.2906-2.9929-.7986C4.1143 20.7681 5.4133 22 7 22h10c1.3062 0 2.4175-.8348 2.8293-2z"/></svg>