<svg xmlns="http://www.w3.org/2000/svg" width="24" height="24" fill="none" viewBox="0 0 24 24"><path fill="#000" fill-rule="evenodd" d="M6.9941 5c0-1.6568 1.3432-3 3-3h4.0119c1.6568 0 3 1.3431 3 3v.994H20c.5523 0 1 .4477 1 1s-.4477 1-1 1h-1.0193V19c0 1.6569-1.3431 3-3 3H8.0192c-1.6569 0-3-1.3431-3-3V7.994H4c-.5523 0-1-.4477-1-1s.4477-1 1-1h2.9941zm8.0119 0v.994H8.9941V5c0-.5523.4478-1 1-1h4.0119c.5523 0 1 .4477 1 1M11 11c0-.5523-.4477-1-1-1s-1 .4477-1 1v6c0 .5523.4477 1 1 1s1-.4477 1-1zm3-1c.5523 0 1 .4477 1 1v6c0 .5523-.4477 1-1 1s-1-.4477-1-1v-6c0-.5523.4477-1 1-1"/></svg>