<svg xmlns="http://www.w3.org/2000/svg" width="24" height="24" fill="none" viewBox="0 0 24 24"><path fill="#000" fill-rule="evenodd" d="M8.0034 6.9278c0-2.1962 1.7804-3.9766 3.9766-3.9766s3.9766 1.7804 3.9766 3.9766-1.7804 3.9766-3.9766 3.9766S8.0034 9.124 8.0034 6.9278M11.98 4.9512c-1.0916 0-1.9766.885-1.9766 1.9766s.885 1.9766 1.9766 1.9766 1.9766-.885 1.9766-1.9766-.8849-1.9766-1.9766-1.9766m3.8244 8.0566c0-.5523.4477-1 1-1h2.3766c.5523 0 1 .4477 1 1v.5248h.8683c.5523 0 1 .4478 1 1 0 .4737-.3293.8705-.7715.9738v3.5469c0 1.1046-.8954 2-2 2h-2.5702c-1.1046 0-2-.8954-2-2v-3.5469c-.4422-.1033-.7715-.5001-.7715-.9738 0-.5522.4477-1 1-1h.8683zm-6.651-1h4.1617c-.6894.4436-1.1854 1.1618-1.3333 2H9.1533c-1.6568 0-3 1.3432-3 3v1.0412c0 .5523.4477 1 1 1h5.5543v.0043c0 .7268.1938 1.4083.5326 1.9957H7.1533c-1.6568 0-3-1.3432-3-3v-1.0412c0-2.7614 2.2386-5 5-5m7.5542 3.5248h2.5702v3.5207h-2.5702z"/></svg>