<svg xmlns="http://www.w3.org/2000/svg" width="24" height="24" fill="none" viewBox="0 0 24 24"><path d="M0 24h24V0H0z"/><path fill="#000" fill-rule="evenodd" d="M18 1c-.5523 0-1 .4477-1 1v.172c-1.0466 0-1.9055.804-1.9927 1.828A2 2 0 0 0 15 4.172V6c-.5523 0-1 .4477-1 1s.4477 1 1 1h2c0 .5523.4477 1 1 1s1-.4477 1-1h2c.5523 0 1-.4477 1-1s-.4477-1-1-1V4.172c0-1.1045-.8954-2-2-2V2c0-.5523-.4477-1-1-1M7 2h6.6405a3.98 3.98 0 0 0-.6369 2H7c-.5523 0-1 .4477-1 1v2c0 .5523.4477 1 1 1h5.1707c.3774 1.0678 1.3423 1.8754 2.5062 2H7c-.5523 0-1 .4477-1 1v2c0 .5523.4477 1 1 1h10c.5523 0 1-.4477 1-1v-2c.73 0 1.3991-.2607 1.9193-.6942.0528.2228.0807.4553.0807.6942v2c0 1.6569-1.3431 3-3 3H7c-1.6569 0-3-1.3431-3-3v-2a2.99 2.99 0 0 1 .7639-2A2.99 2.99 0 0 1 4 7V5c0-1.6569 1.3431-3 3-3m3 4c0 .5523-.4477 1-1 1s-1-.4477-1-1 .4477-1 1-1 1 .4477 1 1m-1 7c.5523 0 1-.4477 1-1s-.4477-1-1-1-1 .4477-1 1 .4477 1 1 1m6 5c0-.5523.4477-1 1-1s1 .4477 1 1v1.6337c.3824-.2211.8799-.168 1.2071.1592.3905.3905.3905 1.0237 0 1.4142l-1.5 1.5c-.3905.3905-1.0237.3905-1.4142 0l-1.5-1.5c-.3905-.3905-.3905-1.0237 0-1.4142.3272-.3272.8247-.3803 1.2071-.1592zm-8 2.3663V22c0 .5523.4477 1 1 1s1-.4477 1-1v-1.6337c.3824.221.88.168 1.2071-.1592.3905-.3905.3905-1.0237 0-1.4142l-1.5-1.5c-.3905-.3905-1.0237-.3905-1.4142 0l-1.5 1.5c-.3905.3905-.3905 1.0237 0 1.4142.3272.3272.8247.3802 1.2071.1592"/></svg>