<svg xmlns="http://www.w3.org/2000/svg" width="24" height="24" fill="none" viewBox="0 0 24 24"><path fill="#000" fill-rule="evenodd" d="M5 6c0-1.6569 1.3431-3 3-3h8c1.6569 0 3 1.3431 3 3v1.0764c-.6124-.1006-1.2795-.16-2-.16V6c0-.5523-.4477-1-1-1H8c-.5523 0-1 .4477-1 1v12c0 .5523.4477 1 1 1h8c.5523 0 1-.4477 1-1l.0005-1.7499c.3154 0 .4839.0752.5336.1l.003.0016c.4282.371.9361.601 1.4629.6898V18c0 1.6569-1.3431 3-3 3H8c-1.6569 0-3-1.3431-3-3zm12.0005 4.9165c-2.7953 0-4.2232 1.3083-4.2975 1.378-.4025.3782-1.0353.3584-1.4135-.0442s-.3583-1.0353.0442-1.4135c.3054-.2868 2.1988-1.9203 5.6668-1.9203s5.3614 1.6335 5.6668 1.9203c.4025.3782.4223 1.011.0442 1.4135s-1.011.4224-1.4135.0442c-.0743-.0697-1.5022-1.378-4.2975-1.378m-3.2073 2.4599c-.3906.3906-.3906 1.0237 0 1.4142.3864.3865 1.0104.3905 1.4018.0122l.0028-.0025a1 1 0 0 1 .0587-.047c.0618-.0463.1672-.1176.3161-.192.2944-.1473.7673-.3112 1.4279-.3112s1.1336.1639 1.428.3112c.1488.0744.2543.1457.316.192.0308.0231.0504.0397.0587.047l.0029.0025c.3914.3783 1.0154.3743 1.4018-.0122.3905-.3905.3905-1.0236 0-1.4142l-.0014-.0014-.0016-.0015-.0032-.0032-.0076-.0074-.0192-.0183a2 2 0 0 0-.0547-.0495 3 3 0 0 0-.1757-.1418c-.1466-.11-.3537-.247-.6216-.3809-.539-.2695-1.3162-.5223-2.3224-.5223s-1.7834.2528-2.3224.5223c-.2678.1339-.4749.2709-.6216.3809a3 3 0 0 0-.1757.1418 2 2 0 0 0-.0547.0495l-.0192.0183-.0075.0074-.0033.0032-.0015.0015z"/></svg>