<svg xmlns="http://www.w3.org/2000/svg" width="24" height="24" fill="none" viewBox="0 0 24 24"><path fill="#000" fill-rule="evenodd" d="M11.3164 7A5.97 5.97 0 0 0 8 6c-3.3137 0-6 2.6863-6 6s2.6863 6 6 6a5.97 5.97 0 0 0 3.3164-1H17c2.7614 0 5-2.2386 5-5s-2.2386-5-5-5zM4 12c0-2.2091 1.7909-4 4-4s4 1.7909 4 4-1.7909 4-4 4-4-1.7909-4-4m10 0a5.97 5.97 0 0 0-.8047-3H17c1.6569 0 3 1.3431 3 3s-1.3431 3-3 3h-3.8047A5.97 5.97 0 0 0 14 12m-4 0c0-.5523-.4477-1-1-1H7c-.5523 0-1 .4477-1 1s.4477 1 1 1h2c.5523 0 1-.4477 1-1"/></svg>