<svg xmlns="http://www.w3.org/2000/svg" width="24" height="24" fill="none" viewBox="0 0 24 24"><path fill="#000" fill-rule="evenodd" d="m10.8271 8 2 2H21q.2071 0 .3839-.0733.1768-.0732.3232-.2196.293-.293.2929-.7072a.99.99 0 0 0-.0761-.3826.99.99 0 0 0-.2168-.3245l-5-5c-.396-.396-1.0182-.396-1.4142 0s-.396 1.0183 0 1.4142L18.5858 8zM2.255 3.6678c.396-.396 1.0182-.396 1.4142 0l16.5 16.4999c.396.396.396 1.0183 0 1.4143s-1.0182.3959-1.4142 0l-5.5821-5.5822H5.4142l3.293 3.2929c.3959.396.3959 1.0183 0 1.4142-.396.396-1.0183.396-1.4143 0l-5-5a.99.99 0 0 1-.2168-.3244A.99.99 0 0 1 2 14.9999q0-.4141.2929-.7071Q2.5859 14 3 13.9999h8.1729l-4-4H3c-.56 0-1-.44-1-1s.44-1 1-1h2.1729l-2.918-2.9178c-.3959-.396-.3959-1.0183 0-1.4142m14.5721 10.332 2 2H21c.56 0 1-.44 1-1s-.44-1-1-1z"/></svg>