<svg xmlns="http://www.w3.org/2000/svg" width="24" height="24" fill="none" viewBox="0 0 24 24"><path fill="#000" fill-rule="evenodd" d="M9.4704 19.5753c-.2987 1.3568 1.348 2.2733 2.3437 1.3043l6.0433-5.8812a1 1 0 0 0 .3026-.7166V6.094c0-1.1046-.8955-2-2-2H7.6354a1.8 1.8 0 0 0-1.581.9396L2.086 12.3257c-.7253 1.3327.2394 2.9561 1.7567 2.9561h6.5731zm6.6896-5.7157-4.3058 4.1902.7824-3.553a1 1 0 0 0-.9766-1.215H3.8427L7.7543 6.094H16.16z" clip-rule="evenodd"/><path fill="#000" d="M20.16 14.094c0 .5523.4477 1 1 1s1-.4477 1-1v-9c0-.5523-.4477-1-1-1s-1 .4477-1 1z"/></svg>