<svg width="24" height="24" viewBox="0 0 24 24" fill="none" xmlns="http://www.w3.org/2000/svg">
<path fill-rule="evenodd" clip-rule="evenodd" d="M9.63059 18.9532C9.33182 20.31 10.9786 21.2265 11.9742 20.2576L18.0176 14.3763C18.211 14.1881 18.3201 13.9296 18.3201 13.6597V5.47192C18.3201 4.36736 17.4247 3.47192 16.3201 3.47192H7.79556C7.13623 3.47192 6.52967 3.8324 6.21451 4.41152L2.2461 11.7037C1.52085 13.0364 2.48555 14.6597 4.00282 14.6597H10.576L9.63059 18.9532Z" fill="black"/>
<path d="M20.3201 13.4719C20.3201 14.0242 20.7678 14.4719 21.3201 14.4719C21.8724 14.4719 22.3201 14.0242 22.3201 13.4719V4.47192C22.3201 3.91964 21.8724 3.47192 21.3201 3.47192C20.7678 3.47192 20.3201 3.91964 20.3201 4.47192V13.4719Z" fill="black"/>
</svg>
