<svg width="24" height="24" viewBox="0 0 24 24" fill="none" xmlns="http://www.w3.org/2000/svg">
<path fill-rule="evenodd" clip-rule="evenodd" d="M9.47043 18.8873C9.17167 20.2441 10.8184 21.1606 11.8141 20.1916L17.8574 14.3104C18.0508 14.1222 18.16 13.8637 18.16 13.5938V5.40601C18.16 4.30144 17.2645 3.40601 16.16 3.40601H7.6354C6.97608 3.40601 6.36952 3.76648 6.05436 4.3456L2.08595 11.6378C1.36069 12.9705 2.32539 14.5938 3.84266 14.5938H10.4158L9.47043 18.8873ZM16.16 13.1716L11.8542 17.3618L12.6366 13.8088C12.7017 13.5129 12.6292 13.2034 12.4394 12.9673C12.2496 12.7311 11.963 12.5938 11.66 12.5938H3.84266L7.75426 5.40601L16.16 5.40601V13.1716Z" fill="black"/>
<path d="M20.16 13.406C20.16 13.9583 20.6077 14.406 21.16 14.406C21.7123 14.406 22.16 13.9583 22.16 13.406V4.40601C22.16 3.85372 21.7123 3.40601 21.16 3.40601C20.6077 3.40601 20.16 3.85372 20.16 4.40601V13.406Z" fill="black"/>
</svg>
