<svg xmlns="http://www.w3.org/2000/svg" width="24" height="24" fill="none" viewBox="0 0 24 24"><path fill="#000" fill-rule="evenodd" d="M21.16 14.4059c-.5523 0-1-.4477-1-1v-9c0-.5523.4477-1 1-1s1 .4477 1 1v9c0 .5523-.4477 1-1 1m-9.3459 5.7856c-.9957.969-2.6424.0525-2.3437-1.3044l.9454-4.2935H3.8427c-1.5173 0-2.482-1.6233-1.7568-2.956l3.9685-7.2921a1.8 1.8 0 0 1 1.581-.9396H16.16c1.1045 0 2 .8954 2 2v8.1877c0 .27-.1092.5284-.3026.7167zm.0401-2.8298 4.3058-4.1903V5.4059H7.7543l-3.9116 7.1877H11.66a1 1 0 0 1 .9766 1.2151z"/></svg>