<svg xmlns="http://www.w3.org/2000/svg" width="24" height="24" fill="none" viewBox="0 0 24 24"><path fill="#000" fill-rule="evenodd" d="M2.8322 8h2.2381a8.036 8.036 0 0 1 3.3754-3.169 10 10 0 0 0-.1879.3989C7.8977 6.0402 7.6052 6.9765 7.3932 8h2.0485c.1737-.7324.3922-1.3917.6438-1.9578.3279-.738.6926-1.2733 1.047-1.6105.3492-.3324.6407-.4317.8676-.4317s.5183.0993.8676.4317c.3544.3372.719.8725 1.047 1.6105.2516.566.4701 1.2254.6437 1.9578h2.0485c-.212-1.0235-.5045-1.9598-.8646-2.7701a10 10 0 0 0-.1878-.3989A8.036 8.036 0 0 1 18.9298 8h2.2382c-1.5431-3.5318-5.0673-6-9.1679-6-4.1007 0-7.6248 2.4682-9.168 6M2.25 9.75A.75.75 0 0 1 3 9h2.25c1.2426 0 2.25 1.0074 2.25 2.25v1.5C7.5 13.9926 6.4926 15 5.25 15H3a.75.75 0 0 1-.75-.75zM18.375 9c-1.0355 0-1.875.8395-1.875 1.875s.8395 1.875 1.875 1.875h1.5a.375.375 0 0 1 0 .75H17.25a.75.75 0 0 0 0 1.5h2.625c1.0355 0 1.875-.8395 1.875-1.875s-.8395-1.875-1.875-1.875h-1.5a.375.375 0 0 1 0-.75H21A.75.75 0 0 0 21 9zm-7.6202.3233a.75.75 0 0 0-1.3261.4802v4.5a.75.75 0 0 0 1.5 0V11.875l2.4238 2.9086a.75.75 0 0 0 1.3262-.4801v-4.5a.75.75 0 0 0-1.5 0v2.4284zM3.75 10.5v3h1.5a.75.75 0 0 0 .75-.75v-1.5a.75.75 0 0 0-.75-.75zM21.168 16h-2.2382a8.036 8.036 0 0 1-3.3753 3.169q.0973-.1954.1878-.3989c.3601-.8103.6526-1.7466.8646-2.7701h-2.0485c-.1736.7324-.3921 1.3917-.6437 1.9578-.328.738-.6926 1.2733-1.047 1.6105-.3493.3324-.6407.4317-.8676.4317s-.5184-.0993-.8676-.4317c-.3544-.3372-.7191-.8725-1.047-1.6105-.2516-.5661-.4701-1.2254-.6438-1.9578H7.3932c.212 1.0235.5045 1.9598.8646 2.7701q.0904.2035.1879.3989A8.036 8.036 0 0 1 5.0703 16H2.8322c1.543 3.5318 5.0672 6 9.1679 6s7.6248-2.4682 9.1679-6"/></svg>