<svg xmlns="http://www.w3.org/2000/svg" width="24" height="24" fill="none" viewBox="0 0 24 24"><path fill="#000" fill-rule="evenodd" d="M7 2C5.3431 2 4 3.3431 4 5v4h2V5c0-.5523.4477-1 1-1h5.0093v2.9849c0 1.6568 1.3431 3 3 3H20v-.7703c0-.396-.1566-.7758-.4355-1.0568L13.891 2.4432A1.5 1.5 0 0 0 12.8265 2zm9.5745 5.9849L14.0093 5.401v1.584c0 .5523.4477 1 1 1zM3 18c-.5523 0-1-.4477-1-1s.4477-1 1-1h5c.5523 0 1-.4477 1-1v-1c0-.5523-.4477-1-1-1H3c-.5523 0-1-.4477-1-1s.4477-1 1-1h5c1.6569 0 3 1.3431 3 3v1c0 1.6569-1.3431 3-3 3zm15.2929-6.2071c.3905-.3905 1.0237-.3905 1.4142 0l2 2c.3905.3905.3905 1.0237 0 1.4142l-2 2c-.3905.3905-1.0237.3905-1.4142 0s-.3905-1.0237 0-1.4142l.2929-.2929H14c-.5523 0-1-.4477-1-1s.4477-1 1-1h4.5858l-.2929-.2929c-.3905-.3905-.3905-1.0237 0-1.4142M4.1707 20c.4118 1.1652 1.523 2 2.8293 2h10c1.5434 0 2.8146-1.1655 2.9814-2.6644a3.012 3.012 0 0 1-2.0308-.0243c-.1308.3998-.507.6887-.9506.6887z"/></svg>