<svg xmlns="http://www.w3.org/2000/svg" width="24" height="24" fill="none" viewBox="0 0 24 24"><path fill="#000" fill-rule="evenodd" d="M7.5 8C8.3284 8 9 7.3284 9 6.5S8.3284 5 7.5 5 6 5.6716 6 6.5 6.6716 8 7.5 8m9 0c.8284 0 1.5-.6716 1.5-1.5S17.3284 5 16.5 5 15 5.6716 15 6.5 15.6716 8 16.5 8M6 11c0-.5523-.4477-1-1-1s-1 .4477-1 1c0 1.8299 1.3146 3.2368 3 3.7688V16c0 2.7614 2.2386 5 5 5s5-2.2386 5-5v-1.2312c1.6854-.532 3-1.9389 3-3.7688 0-.5523-.4477-1-1-1s-1 .4477-1 1c0 .9655-.9691 2-2.5 2S13 11.9655 13 11c.5523 0 1-.4477 1-1s-.4477-1-1-1h-2c-.5523 0-1 .4477-1 1s.4477 1 1 1c0 .9655-.9691 2-2.5 2S6 11.9655 6 11m9 3.9748c-.7173-.0725-1.4041-.2989-2-.6503V16c0 .5523-.4477 1-1 1s-1-.4477-1-1v-1.6755c-.5959.3514-1.2827.5778-2 .6503V16c0 1.6569 1.3431 3 3 3s3-1.3431 3-3z"/></svg>