<svg xmlns="http://www.w3.org/2000/svg" width="24" height="24" fill="none" viewBox="0 0 24 24"><path fill="#000" fill-rule="evenodd" d="M4.9999 2c.5523 0 1 .4477 1 1v6.4182q0 .0617.0013.1231l-1.7718 1.7718a7.9 7.9 0 0 1-.2295-1.8949V3c0-.5523.4477-1 1-1m8.4447 5.6546-5.82 5.8199c1.07 1.1209 2.5789 1.8193 4.2509 1.8193h5.6173l-2.9993-2.9993c-.3905-.3905-.3905-1.0237 0-1.4142s1.0237-.3905 1.4142 0l4.7062 4.7062a1 1 0 0 1 0 1.4143l-4.7062 4.7062c-.3905.3905-1.0237.3905-1.4142 0s-.3905-1.0237 0-1.4142l2.9989-2.999h-5.6169c-2.2243 0-4.2332-.9221-5.6653-2.4048l-2.5117 2.5116c-.3905.3905-1.0236.3905-1.4141 0-.3906-.3905-.3906-1.0237 0-1.4142l9.7459-9.746c.3906-.3905 1.0237-.3905 1.4143 0s.3905 1.0237 0 1.4142"/></svg>