<svg xmlns="http://www.w3.org/2000/svg" width="24" height="24" fill="none" viewBox="0 0 24 24"><path fill="#000" d="M17 12c0 2.7614-2.2386 5-5 5s-5-2.2386-5-5 2.2386-5 5-5 5 2.2386 5 5"/><path fill="#000" fill-rule="evenodd" d="M17 12c0 2.7614-2.2386 5-5 5s-5-2.2386-5-5 2.2386-5 5-5 5 2.2386 5 5m-5 3q.6213 0 1.1516-.2197h.0001q.5303-.2197.9696-.659t.659-.9696v-.0001Q15 12.6213 15 12t-.2197-1.1516-.659-.9697-.9696-.659h-.0001Q12.6213 9 12 9t-1.1516.2197h-.0001q-.5303.2196-.9696.659t-.659.9697T9 12t.2196 1.1516.659.9697.9698.659T12 15"/></svg>