<svg width="24" height="24" viewBox="0 0 24 24" fill="none" xmlns="http://www.w3.org/2000/svg">
<path d="M7.8 1.40006C8.13137 1.84189 8.04183 2.46869 7.6 2.80006L6 4.00006H13C17.9706 4.00006 22 8.0295 22 13.0001C22 17.9706 17.9706 22.0001 13 22.0001H10C9.44772 22.0001 9 21.5523 9 21.0001C9 20.4478 9.44772 20.0001 10 20.0001H13C16.866 20.0001 20 16.8661 20 13.0001C20 9.13407 16.866 6.00006 13 6.00006H6L7.6 7.20006C8.04183 7.53143 8.13137 8.15823 7.8 8.60006C7.46863 9.04189 6.84183 9.13143 6.4 8.80006L2.4 5.80006C2.14819 5.6112 2 5.31482 2 5.00006C2 4.6853 2.14819 4.38891 2.4 4.20006L6.4 1.20006C6.84183 0.868688 7.46863 0.958231 7.8 1.40006Z" fill="black"/>
<path d="M5.41421 15.0001L5.70711 14.7072C6.09763 14.3166 6.09763 13.6835 5.70711 13.293C5.31658 12.9024 4.68342 12.9024 4.29289 13.293L2.29289 15.293C1.90237 15.6835 1.90237 16.3166 2.29289 16.7072L4.29289 18.7072C4.68342 19.0977 5.31658 19.0977 5.70711 18.7072C6.09763 18.3166 6.09763 17.6835 5.70711 17.293L5.41421 17.0001H13C15.2091 17.0001 17 15.2092 17 13.0001C17 10.7909 15.2091 9.00006 13 9.00006H11C10.4477 9.00006 10 9.44777 10 10.0001C10 10.5523 10.4477 11.0001 11 11.0001H13C14.1046 11.0001 15 11.8955 15 13.0001C15 14.1046 14.1046 15.0001 13 15.0001H5.41421Z" fill="black"/>
</svg>
