<svg xmlns="http://www.w3.org/2000/svg" width="24" height="24" fill="none" viewBox="0 0 24 24"><path fill="#000" fill-rule="evenodd" d="M7.6 2.8c.4418-.3313.5314-.9581.2-1.4s-.9582-.5313-1.4-.2l-4 3a1 1 0 0 0 0 1.6l4 3c.4418.3314 1.0686.2419 1.4-.2s.2418-1.0686-.2-1.4L6 6h7c3.866 0 7 3.134 7 7.0001s-3.134 7-7 7h-3c-.5523 0-1 .4477-1 1s.4477 1 1 1h3c4.9706 0 9-4.0295 9-9s-4.0294-9-9-9H6zM5.7071 14.7073l-.2929.2929H13c1.1046 0 2-.8955 2-2s-.8954-2-2-2h-2c-.5523 0-1-.4478-1-1s.4477-1 1-1h2c2.2091 0 4 1.7908 4 4 0 2.2091-1.7909 4-4 4H5.4142l.2929.2929c.3905.3905.3905 1.0236 0 1.4142s-1.0237.3905-1.4142 0l-2-2c-.3905-.3906-.3905-1.0237 0-1.4142l2-2c.3905-.3906 1.0237-.3906 1.4142 0s.3905 1.0236 0 1.4142"/></svg>