<svg xmlns="http://www.w3.org/2000/svg" width="24" height="24" fill="none" viewBox="0 0 24 24"><path fill="#000" fill-rule="evenodd" d="M13 4c0-.5523-.4477-1-1-1s-1 .4477-1 1v7.5859l-2.293-2.293c-.3905-.3905-1.0235-.3905-1.414 0-.3906.3906-.3906 1.0236 0 1.4141l4 4 .0761.0684c.3928.3203.9718.2977 1.3379-.0684l4-4 .0684-.0761c.3203-.3928.2977-.9718-.0684-1.338-.3661-.366-.9451-.3886-1.3379-.0683l-.0761.0684L13 11.5859zm8 12c0-.5523-.4477-1-1-1s-1 .4477-1 1v2c0 .5523-.4477 1-1 1H6c-.5523 0-1-.4477-1-1v-2c0-.5523-.4477-1-1-1s-1 .4477-1 1v2c0 1.6569 1.3431 3 3 3h12c1.6569 0 3-1.3431 3-3z"/></svg>