<svg width="24" height="24" viewBox="0 0 24 24" fill="none" xmlns="http://www.w3.org/2000/svg">
<path d="M5.71576 6.62094C6.68529 3.71896 9.24265 1.99988 12 1.99988C14.2603 1.99988 16.3284 3.11813 17.5995 5.12201C19.9942 5.56524 22 7.71389 22 10.4999C22 12.6591 20.7558 14.5277 18.9452 15.4278C18.8355 14.8602 18.5608 14.3183 18.1213 13.8787C17.2772 13.0347 16.0553 12.7987 15 13.1709V10.8901C15 9.23324 13.6569 7.8901 12 7.8901C10.3431 7.8901 9 9.23324 9 10.8901V13.1709C7.94468 12.7987 6.72276 13.0347 5.87868 13.8787C5.3753 14.3821 5.0882 15.0199 5.01739 15.6766C3.32795 15.023 2 13.4405 2 11.4999C2 10.1483 2.41871 8.9447 3.21804 8.04578C3.8681 7.31474 4.73057 6.83 5.71576 6.62094Z" fill="black"/>
<path d="M16.7071 16.7072L12.7071 20.7072C12.3166 21.0977 11.6834 21.0977 11.2929 20.7072L7.29289 16.7072C6.90237 16.3166 6.90237 15.6835 7.29289 15.293C7.68342 14.9024 8.31658 14.9024 8.70711 15.293L11 17.5858V10.8901C11 10.3378 11.4477 9.8901 12 9.8901C12.5523 9.8901 13 10.3378 13 10.8901V17.5858L15.2929 15.293C15.6834 14.9024 16.3166 14.9024 16.7071 15.293C17.0976 15.6835 17.0976 16.3166 16.7071 16.7072Z" fill="black"/>
</svg>
