<svg xmlns="http://www.w3.org/2000/svg" width="24" height="24" fill="none" viewBox="0 0 24 24"><path fill="#000" fill-rule="evenodd" d="M12 4.0024c-2.7573 0-5.3147 1.7191-6.2842 4.6211-.9852.209-1.8477.6938-2.4978 1.4248C2.4187 10.9473 2 12.1508 2 13.5024c0 1.9664 1.3635 3.5652 3.085 4.2023-.1683-.6931-.0866-1.4346.2452-2.0808C4.5433 15.1689 4 14.359 4 13.5024c0-.936.2851-1.6443.7126-2.1251.4252-.4781 1.0504-.7987 1.863-.8605l.7293-.0554.168-.712C8.039 7.3518 9.9624 6.0025 12 6.0025c1.6764 0 3.2116.872 4.1047 2.5246l.2598.4808.545.041C18.5173 9.1696 20 10.5814 20 12.5024c0 1.1814-.5853 2.2261-1.4818 2.8599.4013.6179.5519 1.3511.4519 2.0556C20.7672 16.5131 22 14.6517 22 12.5024c0-2.786-2.0058-4.9346-4.4005-5.3778C16.3284 5.1207 14.2603 4.0024 12 4.0024m.7071 17.6986 4-4c.3905-.3905.3905-1.0237 0-1.4142s-1.0237-.3905-1.4142 0L13 18.5797v-6.6958c0-.5523-.4477-1-1-1s-1 .4477-1 1v6.6958l-2.2929-2.2929c-.3905-.3905-1.0237-.3905-1.4142 0s-.3905 1.0237 0 1.4142l4 4c.3905.3905 1.0237.3905 1.4142 0"/></svg>