<svg xmlns="http://www.w3.org/2000/svg" width="24" height="24" fill="none" viewBox="0 0 24 24"><path fill="#000" fill-rule="evenodd" d="m12.7071 16.7071 4-4c.3905-.3905.3905-1.0237 0-1.4142s-1.0237-.3905-1.4142 0L13 13.5858V3c0-.5523-.4477-1-1-1s-1 .4477-1 1v10.5858l-2.2929-2.2929c-.3905-.3905-1.0237-.3905-1.4142 0s-.3905 1.0237 0 1.4142l4 4c.3905.3905 1.0237.3905 1.4142 0M5 7c-.5523 0-1 .4477-1 1v10c0 .5523.4477 1 1 1h14c.5523 0 1-.4477 1-1V8c0-.5523-.4477-1-1-1h-2.5c-.5523 0-1-.4477-1-1s.4477-1 1-1H19c1.6569 0 3 1.3431 3 3v10c0 1.6569-1.3431 3-3 3H5c-1.6569 0-3-1.3431-3-3V8c0-1.6569 1.3431-3 3-3h2.5c.5523 0 1 .4477 1 1s-.4477 1-1 1z"/></svg>