<svg width="24" height="24" viewBox="0 0 24 24" fill="none" xmlns="http://www.w3.org/2000/svg">
<path d="M5.71576 6.62107C6.68529 3.71909 9.24265 2 12 2C14.2603 2 16.3284 3.11825 17.5995 5.12214C19.9942 5.56536 22 7.71401 22 10.5C22 12.6592 20.7558 14.5278 18.9452 15.4279C18.8355 14.8604 18.5608 14.3184 18.1213 13.8789C17.2772 13.0348 16.0553 12.7988 15 13.171V10.8902C15 9.23336 13.6569 7.89022 12 7.89022C10.3431 7.89022 9 9.23336 9 10.8902V13.171C7.94468 12.7988 6.72276 13.0348 5.87868 13.8789C5.3753 14.3822 5.0882 15.02 5.01739 15.6767C3.32795 15.0231 2 13.4406 2 11.5C2 10.1484 2.41871 8.94482 3.21804 8.04591C3.8681 7.31487 4.73057 6.83012 5.71576 6.62107Z" fill="black"/>
<path d="M16.7071 16.7073L12.7071 20.7073C12.3166 21.0978 11.6834 21.0978 11.2929 20.7073L7.29289 16.7073C6.90237 16.3168 6.90237 15.6836 7.29289 15.2931C7.68342 14.9026 8.31658 14.9026 8.70711 15.2931L11 17.586V10.8902C11 10.3379 11.4477 9.89022 12 9.89022C12.5523 9.89022 13 10.3379 13 10.8902V17.586L15.2929 15.2931C15.6834 14.9026 16.3166 14.9026 16.7071 15.2931C17.0976 15.6836 17.0976 16.3168 16.7071 16.7073Z" fill="black"/>
</svg>
