<svg width="24" height="24" viewBox="0 0 24 24" fill="none" xmlns="http://www.w3.org/2000/svg">
<path d="M20 15C20.5523 15 21 15.4477 21 16V18C21 19.6569 19.6569 21 18 21H6C4.34315 21 3 19.6569 3 18V16C3 15.4477 3.44772 15 4 15C4.55228 15 5 15.4477 5 16V18C5 18.5523 5.44772 19 6 19H18C18.5523 19 19 18.5523 19 18V16C19 15.4477 19.4477 15 20 15Z" fill="black"/>
<path d="M12 3C12.5523 3 13 3.44772 13 4V11.5859L15.293 9.29297L15.3691 9.22461C15.7619 8.90426 16.3409 8.92685 16.707 9.29297C17.0731 9.65908 17.0957 10.2381 16.7754 10.6309L16.707 10.707L12.707 14.707C12.3409 15.0731 11.7619 15.0957 11.3691 14.7754L11.293 14.707L7.29297 10.707C6.90244 10.3165 6.90244 9.68349 7.29297 9.29297C7.68349 8.90244 8.31651 8.90244 8.70703 9.29297L11 11.5859V4C11 3.44772 11.4477 3 12 3Z" fill="black"/>
</svg>
