<svg xmlns="http://www.w3.org/2000/svg" width="24" height="24" fill="none" viewBox="0 0 24 24"><path fill="#000" fill-rule="evenodd" d="M12 2C9.2427 2 6.6853 3.719 5.7158 6.621c-.9852.209-1.8477.6938-2.4978 1.4248C2.4187 8.9448 2 10.1483 2 11.5c0 1.9406 1.328 3.5231 3.0174 4.1767a2.987 2.987 0 0 1 .8613-1.7978c.844-.8441 2.066-1.0801 3.1213-.7079v-2.2808c0-1.6568 1.3431-3 3-3s3 1.3432 3 3v2.2808c1.0553-.3722 2.2772-.1362 3.1213.7079.4395.4395.7142.9815.8239 1.549C20.7558 14.5277 22 12.6591 22 10.4999c0-2.786-2.0058-4.9346-4.4005-5.3779C16.3284 3.1182 14.2603 2 12 2m.7071 18.7072 4-4c.3905-.3905.3905-1.0237 0-1.4142s-1.0237-.3905-1.4142 0L13 17.5859v-6.6958c0-.5523-.4477-1-1-1s-1 .4477-1 1v6.6958L8.7071 15.293c-.3905-.3905-1.0237-.3905-1.4142 0s-.3905 1.0237 0 1.4142l4 4c.3905.3905 1.0237.3905 1.4142 0"/></svg>