<svg width="24" height="24" viewBox="0 0 24 24" fill="none" xmlns="http://www.w3.org/2000/svg">
<path d="M5.71576 8.62351C6.68529 5.72153 9.24265 4.00244 12 4.00244C14.2603 4.00244 16.3284 5.1207 17.5995 7.12458C19.9942 7.56781 22 9.71645 22 12.5024C22 14.6517 20.7672 16.5131 18.9701 17.4179C19.0701 16.7134 18.9195 15.9802 18.5182 15.3623C19.4147 14.7285 20 13.6838 20 12.5024C20 10.5814 18.5173 9.16961 16.9095 9.0488L16.3645 9.00784L16.1047 8.52701C15.2116 6.87434 13.6763 6.00244 12 6.00244C9.9623 6.00244 8.03895 7.3517 7.47296 9.74946L7.30491 10.4614L6.57551 10.5168C5.76295 10.5786 5.13781 10.8992 4.71262 11.3773C4.28511 11.8581 4 12.5664 4 13.5024C4 14.359 4.54331 15.1689 5.33017 15.6239C4.99839 16.2701 4.91666 17.0116 5.08498 17.7047C3.3635 17.0676 2 15.4688 2 13.5024C2 12.1508 2.41871 10.9473 3.21804 10.0483C3.8681 9.31731 4.73057 8.83257 5.71576 8.62351Z" fill="black"/>
<path d="M16.7071 17.701L12.7071 21.701C12.3166 22.0915 11.6834 22.0915 11.2929 21.701L7.29289 17.701C6.90237 17.3105 6.90237 16.6773 7.29289 16.2868C7.68342 15.8963 8.31658 15.8963 8.70711 16.2868L11 18.5797V11.8839C11 11.3316 11.4477 10.8839 12 10.8839C12.5523 10.8839 13 11.3316 13 11.8839V18.5797L15.2929 16.2868C15.6834 15.8963 16.3166 15.8963 16.7071 16.2868C17.0976 16.6773 17.0976 17.3105 16.7071 17.701Z" fill="black"/>
</svg>
