<svg width="24" height="24" viewBox="0 0 24 24" fill="none" xmlns="http://www.w3.org/2000/svg">
<path d="M16.7071 12.7071L12.7071 16.7071C12.3166 17.0976 11.6834 17.0976 11.2929 16.7071L7.29289 12.7071C6.90237 12.3166 6.90237 11.6834 7.29289 11.2929C7.68342 10.9024 8.31658 10.9024 8.70711 11.2929L11 13.5858V3C11 2.44771 11.4477 2 12 2C12.5523 2 13 2.44771 13 3V13.5858L15.2929 11.2929C15.6834 10.9024 16.3166 10.9024 16.7071 11.2929C17.0976 11.6834 17.0976 12.3166 16.7071 12.7071Z" fill="black"/>
<path d="M4 8C4 7.44772 4.44772 7 5 7H7.5C8.05228 7 8.5 6.55228 8.5 6C8.5 5.44772 8.05228 5 7.5 5H5C3.34315 5 2 6.34315 2 8V18C2 19.6569 3.34315 21 5 21H19C20.6569 21 22 19.6569 22 18V8C22 6.34315 20.6569 5 19 5H16.5C15.9477 5 15.5 5.44772 15.5 6C15.5 6.55228 15.9477 7 16.5 7H19C19.5523 7 20 7.44772 20 8V18C20 18.5523 19.5523 19 19 19H5C4.44772 19 4 18.5523 4 18V8Z" fill="black"/>
</svg>
