<svg width="24" height="24" viewBox="0 0 24 24" fill="none" xmlns="http://www.w3.org/2000/svg">
<path d="M16.7071 13.5572L12.7071 17.5572C12.3166 17.9477 11.6834 17.9477 11.2929 17.5572L7.29289 13.5572C6.90237 13.1667 6.90237 12.5335 7.29289 12.143C7.68342 11.7525 8.31658 11.7525 8.70711 12.143L11 14.4359V3.8501C11 3.29781 11.4477 2.8501 12 2.8501C12.5523 2.8501 13 3.29781 13 3.8501V14.4359L15.2929 12.143C15.6834 11.7525 16.3166 11.7525 16.7071 12.143C17.0976 12.5335 17.0976 13.1667 16.7071 13.5572Z" fill="black"/>
<path d="M4 8.8501C4 8.29781 4.44772 7.8501 5 7.8501H7.5C8.05228 7.8501 8.5 7.40238 8.5 6.8501C8.5 6.29781 8.05228 5.8501 7.5 5.8501H5C3.34315 5.8501 2 7.19324 2 8.8501V18.8501C2 20.507 3.34315 21.8501 5 21.8501H19C20.6569 21.8501 22 20.507 22 18.8501V8.8501C22 7.19324 20.6569 5.8501 19 5.8501H16.5C15.9477 5.8501 15.5 6.29781 15.5 6.8501C15.5 7.40238 15.9477 7.8501 16.5 7.8501H19C19.5523 7.8501 20 8.29781 20 8.8501V18.8501C20 19.4024 19.5523 19.8501 19 19.8501H5C4.44772 19.8501 4 19.4024 4 18.8501V8.8501Z" fill="black"/>
</svg>
