<svg width="24" height="24" viewBox="0 0 24 24" fill="none" xmlns="http://www.w3.org/2000/svg">
<path d="M12 2C17.5276 2 22 6.47424 22 11.9958C22 17.5174 17.5276 22 12 22C6.47236 22 2 17.5258 2 12.0042C2 6.48261 6.47236 2 12 2Z" fill="#E74D89"/>
<path d="M12 22C6.48438 22 2 17.5185 2 12.0042C2 6.48209 6.48438 2 12 2C17.5156 2 22 6.48154 22 11.9958C22 17.5101 17.5156 22 12 22ZM20.4297 13.3649C20.1406 13.271 17.7891 12.5749 15.1094 12.9973C16.2266 16.0634 16.6797 18.5663 16.7656 19.0825C18.6875 17.7919 20.0547 15.7427 20.4297 13.3649ZM15.3359 19.8725C15.2109 19.1216 14.7109 16.5092 13.5156 13.3962C13.5 13.404 13.4766 13.4118 13.4609 13.4118C8.64063 15.0935 6.91406 18.4333 6.75781 18.7462C8.20312 19.8725 10.0234 20.5452 12 20.5452C13.1797 20.553 14.3125 20.3105 15.3359 19.8725ZM5.65625 17.7215C5.85156 17.393 8.19531 13.5135 12.6016 12.0821C12.7109 12.043 12.8281 12.0117 12.9375 11.9804C12.7266 11.4955 12.4922 11.0106 12.2422 10.5334C7.97656 11.8084 3.83594 11.7536 3.46094 11.7458C3.46094 11.8318 3.45312 11.9179 3.45312 12.0039C3.46094 14.2018 4.28906 16.2041 5.65625 17.7215ZM3.64062 10.2597C4.02344 10.2675 7.53906 10.2831 11.5391 9.2194C10.125 6.70082 8.59375 4.58897 8.375 4.28393C5.97656 5.41025 4.19531 7.61596 3.64062 10.2597ZM10 3.70512C10.2344 4.01799 11.7891 6.12984 13.1875 8.70317C16.2266 7.5612 17.5078 5.84044 17.6641 5.62143C16.1562 4.28393 14.1719 3.47047 12 3.47047C11.3125 3.47047 10.6406 3.55651 10 3.70512ZM18.6094 6.60696C18.4297 6.84943 17 8.68752 13.8438 9.9781C14.0391 10.3848 14.2344 10.7994 14.4141 11.2139C14.4766 11.3625 14.5391 11.5111 14.6016 11.6519C17.4453 11.2921 20.2656 11.8709 20.5469 11.9257C20.5234 9.91553 19.8047 8.06179 18.6094 6.60696Z" fill="#B2215A"/>
</svg>
