<svg xmlns="http://www.w3.org/2000/svg" width="24" height="24" fill="none" viewBox="0 0 24 24"><path fill="#000" fill-rule="evenodd" d="M19.2727 1.8585c-.703-.703-1.8426-.703-2.5456 0l-2.4322 2.4322-.0021.0021-.0021.0021L3.5069 15.0787a2 2 0 0 0-.547 1.022l-.8817 4.409c-.168.8396.5723 1.5799 1.412 1.412l4.409-.8818a2 2 0 0 0 1.022-.5469l13.22-13.2203c.703-.703.703-1.8426 0-2.5456zm-.2728 5.7272L20.5857 6l-2.5858-2.5858L16.4141 5zm-4-1.1716L17.5857 9 7.5069 19.0787l-3.2322.6465.6464-3.2322z"/></svg>