<svg xmlns="http://www.w3.org/2000/svg" width="24" height="24" fill="none" viewBox="0 0 24 24"><path fill="#000" fill-rule="evenodd" d="M11.9999 1.9142c-.5523 0-1 .4477-1 1v9c0 .5523.4477 1 1 1s1-.4477 1-1v-9c0-.5523-.4477-1-1-1m7.8787 10.7071-7.1716 7.1716c-.3905.3905-1.0237.3905-1.4142 0l-7.1715-7.1716c-.3906-.3905-.3906-1.0237 0-1.4142L7.707 7.6213c.3905-.3905.3905-1.0237 0-1.4142s-1.0237-.3905-1.4143 0L2.7071 9.7929c-1.1716 1.1715-1.1716 3.071 0 4.2426l7.1715 7.1716c1.1716 1.1715 3.0711 1.1715 4.2426 0l7.1716-7.1716c1.1716-1.1716 1.1716-3.0711 0-4.2426L17.707 6.207c-.3905-.3905-1.0237-.3905-1.4142 0s-.3905 1.0237 0 1.4142l3.5858 3.5858c.3905.3905.3905 1.0237 0 1.4142"/></svg>