<svg xmlns="http://www.w3.org/2000/svg" width="16" height="16" fill="none" viewBox="0 0 16 16"><path fill="#000" d="M8.65 2.8502a.65.65 0 1 0-1.3 0v6a.65.65 0 0 0 1.3 0z"/><path fill="#000" d="M7.0454 13.643 3.207 9.8048c-.5272-.5272-.5272-1.382 0-1.9092l1.9191-1.9191a.65.65 0 0 0-.9192-.9192l-1.9191 1.919c-1.0349 1.035-1.0349 2.7128 0 3.7477l3.8382 3.8383c1.035 1.0349 2.7128 1.0348 3.7477 0l3.8382-3.8383c1.0349-1.0349 1.0349-2.7127 0-3.7476l-1.9191-1.9191a.65.65 0 1 0-.9192.9192l1.9191 1.9191c.5272.5272.5272 1.382 0 1.9092L8.9545 13.643c-.5272.5272-1.382.5272-1.9091 0"/></svg>