<svg width="24" height="24" viewBox="0 0 24 24" fill="none" xmlns="http://www.w3.org/2000/svg">
<path d="M12.9999 3.8501C12.9999 3.29781 12.5522 2.8501 11.9999 2.8501C11.4476 2.8501 10.9999 3.29781 10.9999 3.8501V12.8501C10.9999 13.4024 11.4476 13.8501 11.9999 13.8501C12.5522 13.8501 12.9999 13.4024 12.9999 12.8501V3.8501Z" fill="black"/>
<path d="M11.2928 20.7288L4.12126 13.5572C3.73074 13.1667 3.73074 12.5335 4.12126 12.143L7.70704 8.55721C8.09757 8.16669 8.09757 7.53352 7.70704 7.143C7.31652 6.75247 6.68335 6.75247 6.29283 7.143L2.70705 10.7288C1.53548 11.9004 1.53548 13.7998 2.70705 14.9714L9.87861 22.143C11.0502 23.3146 12.9497 23.3146 14.1213 22.143L21.2928 14.9714C22.4644 13.7998 22.4644 11.9004 21.2928 10.7288L17.707 7.143C17.3165 6.75247 16.6833 6.75247 16.2928 7.143C15.9023 7.53352 15.9023 8.16669 16.2928 8.55721L19.8786 12.143C20.2691 12.5335 20.2691 13.1667 19.8786 13.5572L12.707 20.7288C12.3165 21.1193 11.6833 21.1193 11.2928 20.7288Z" fill="black"/>
</svg>
