<svg xmlns="http://www.w3.org/2000/svg" width="24" height="24" fill="none" viewBox="0 0 24 24"><path fill="#000" fill-rule="evenodd" d="M22.0001 12c0 5.5229-4.4772 10.0001-10.0001 10.0001S2 17.5229 2 12 6.4772 2 12 2s10.0001 4.4772 10.0001 10m-2 0c0 4.4183-3.5818 8.0001-8.0001 8.0001S4 16.4183 4 12s3.5817-8 8-8 8.0001 3.5817 8.0001 8M8.9979 10.7501c.7852 0 1.4217-.6365 1.4217-1.4216s-.6365-1.4217-1.4217-1.4217-1.4216.6365-1.4216 1.4217.6365 1.4216 1.4216 1.4216m7.4258-1.4216c0 .7851-.6365 1.4216-1.4216 1.4216s-1.4217-.6365-1.4217-1.4216.6365-1.4217 1.4217-1.4217 1.4216.6365 1.4216 1.4217m-7.3348 4.6497c-.4069-.3735-1.0395-.3465-1.413.0604s-.3464 1.0394.0604 1.4129c.3821.3508 1.8697 1.5753 4.1813 1.6391.1192.0033.2432.0036.366 0 2.2142-.065 3.6426-1.3093 4.0021-1.6567.3971-.3837.4079-1.0168.0241-1.414s-1.0168-.4079-1.414-.0241c-.2112.2041-1.1851 1.052-2.6709 1.0957a4.6 4.6 0 0 1-.2521-.0001c-1.6216-.0448-2.6653-.9125-2.884-1.1132"/></svg>