<svg xmlns="http://www.w3.org/2000/svg" width="24" height="24" fill="none" viewBox="0 0 24 24"><path fill="#000" fill-rule="evenodd" d="M22.0001 12c0 5.5229-4.4772 10.0001-10.0001 10.0001S2 17.5229 2 12 6.4772 2 12 2s10.0001 4.4772 10.0001 10m-2 0c0 4.4183-3.5818 8.0001-8.0001 8.0001S4 16.4183 4 12s3.5817-8 8-8 8.0001 3.5817 8.0001 8M8.9979 10.7501c.7852 0 1.4217-.6365 1.4217-1.4216s-.6365-1.4217-1.4217-1.4217-1.4216.6365-1.4216 1.4217.6365 1.4216 1.4216 1.4216m7.4258-1.4216c0 .7851-.6365 1.4216-1.4216 1.4216s-1.4217-.6365-1.4217-1.4216.6365-1.4217 1.4217-1.4217 1.4216.6365 1.4216 1.4217m-.0846 5.6272c.3887.3923.3858 1.0255-.0065 1.4142-.3923.3888-1.0254.3859-1.4142-.0064-.1305-.1318-1.1435-1.0884-2.7349-1.119a5 5 0 0 0-.1654 0c-1.701.0308-2.7763.97-2.9455 1.1295-.4019.3788-1.0347.3602-1.4136-.0417-.3789-.4018-.3602-1.0347.0416-1.4136.3262-.3075 1.859-1.63 4.2813-1.6738a6 6 0 0 1 .2401 0c2.3669.0455 3.8516 1.4429 4.1171 1.7108"/></svg>