<svg width="24" height="24" viewBox="0 0 24 24" fill="none" xmlns="http://www.w3.org/2000/svg">
<path d="M11.9997 16.2271C12.6825 16.2271 13.236 15.6735 13.236 14.9908C13.236 14.308 12.6825 13.7545 11.9997 13.7545C11.3169 13.7545 10.7634 14.308 10.7634 14.9908C10.7634 15.6735 11.3169 16.2271 11.9997 16.2271Z" fill="black"/>
<path d="M16.8488 14.9908C16.8488 15.6735 16.2953 16.2271 15.6125 16.2271C14.9297 16.2271 14.3762 15.6735 14.3762 14.9908C14.3762 14.308 14.9297 13.7545 15.6125 13.7545C16.2953 13.7545 16.8488 14.308 16.8488 14.9908Z" fill="black"/>
<path d="M8.38766 16.2271C9.07045 16.2271 9.62396 15.6735 9.62396 14.9908C9.62396 14.308 9.07045 13.7545 8.38766 13.7545C7.70488 13.7545 7.15137 14.308 7.15137 14.9908C7.15137 15.6735 7.70488 16.2271 8.38766 16.2271Z" fill="black"/>
<path fill-rule="evenodd" clip-rule="evenodd" d="M7 7V8C5.34315 8 4 9.34315 4 11V19C4 20.6569 5.34315 22 7 22H17C18.6569 22 20 20.6569 20 19V11C20 9.34315 18.6569 8 17 8V7C17 4.23858 14.7614 2 12 2C9.23858 2 7 4.23858 7 7ZM15 8V7C15 5.34315 13.6569 4 12 4C10.3431 4 9 5.34315 9 7V8H15ZM17 10C17.5523 10 18 10.4477 18 11V19C18 19.5523 17.5523 20 17 20H7C6.44772 20 6 19.5523 6 19V11C6 10.4477 6.44772 10 7 10H17Z" fill="black"/>
</svg>
