<svg xmlns="http://www.w3.org/2000/svg" width="24" height="24" fill="none" viewBox="0 0 24 24"><path fill="#000" fill-rule="evenodd" d="M7 8V7c0-2.7614 2.2386-5 5-5s5 2.2386 5 5v1c1.6569 0 3 1.3431 3 3v8c0 1.6569-1.3431 3-3 3H7c-1.6569 0-3-1.3431-3-3v-8c0-1.6569 1.3431-3 3-3m8-1v1H9V7c0-1.6569 1.3431-3 3-3s3 1.3431 3 3m3 4c0-.5523-.4477-1-1-1H7c-.5523 0-1 .4477-1 1v8c0 .5523.4477 1 1 1h10c.5523 0 1-.4477 1-1zm-9.6123 5.2271c.6828 0 1.2363-.5536 1.2363-1.2363s-.5535-1.2363-1.2363-1.2363-1.2363.5535-1.2363 1.2363.5535 1.2363 1.2363 1.2363m4.8483-1.2363c0 .6827-.5535 1.2363-1.2363 1.2363s-1.2363-.5536-1.2363-1.2363.5535-1.2363 1.2363-1.2363 1.2363.5535 1.2363 1.2363m2.3765 1.2363c.6828 0 1.2363-.5536 1.2363-1.2363s-.5535-1.2363-1.2363-1.2363-1.2363.5535-1.2363 1.2363.5535 1.2363 1.2363 1.2363"/></svg>