<svg xmlns="http://www.w3.org/2000/svg" width="24" height="24" fill="none" viewBox="0 0 24 24"><path fill="#000" fill-rule="evenodd" d="M8 5c0-1.1046.8954-2 2-2h4c1.1046 0 2 .8954 2 2v4a1.995 1.995 0 0 1-.6921 1.5131L17.6594 16H18.4c.8837 0 1.6.7163 1.6 1.6v2.8c0 .8837-.7163 1.6-1.6 1.6h-2.8c-.8837 0-1.6-.7163-1.6-1.6v-2.8c0-.8451.6551-1.5371 1.4852-1.5959L13.3406 11h-2.6812l-2.1446 5.0041C9.3448 16.0629 10 16.7549 10 17.6v2.8c0 .8837-.7163 1.6-1.6 1.6H5.6c-.8837 0-1.6-.7163-1.6-1.6v-2.8c0-.8837.7163-1.6 1.6-1.6h.7406l2.3515-5.4869A1.995 1.995 0 0 1 8 9zm2.023 4L10 8.9997V5h4v3.9997L13.977 9zm-3.046 9H6v2h2v-2h-.9779q-.0225.0005-.0451 0m10.0461 0a1 1 0 0 1-.0452 0H16v2h2v-2z"/></svg>