<svg width="24" height="24" viewBox="0 0 24 24" fill="none" xmlns="http://www.w3.org/2000/svg">
<path d="M17.1854 8.41506C17.5759 8.02453 17.5759 7.39137 17.1854 7.00084C16.7948 6.61032 16.1617 6.61031 15.7712 7.00084L13.0035 9.7685L11.5245 8.28951C11.134 7.89898 10.5008 7.89898 10.1103 8.28951L6.81487 11.5849C6.42434 11.9754 6.42434 12.6086 6.81487 12.9991C7.20539 13.3896 7.83855 13.3896 8.22908 12.9991L10.8174 10.4108L12.2964 11.8898C12.6869 12.2803 13.3201 12.2803 13.7106 11.8898L17.1854 8.41506Z" fill="black"/>
<path fill-rule="evenodd" clip-rule="evenodd" d="M3 6C3 4.34315 4.34315 3 6 3H18C19.6569 3 21 4.34315 21 6V14C21 15.6569 19.6569 17 18 17H15V19H16C16.5523 19 17 19.4477 17 20C17 20.5523 16.5523 21 16 21H8C7.44772 21 7 20.5523 7 20C7 19.4477 7.44772 19 8 19H9V17H6C4.34315 17 3 15.6569 3 14V6ZM13 19V17H11V19H13ZM18 15H6C5.44772 15 5 14.5523 5 14V6C5 5.44772 5.44772 5 6 5H18C18.5523 5 19 5.44772 19 6V14C19 14.5523 18.5523 15 18 15Z" fill="black"/>
</svg>
