<svg xmlns="http://www.w3.org/2000/svg" width="24" height="24" fill="none" viewBox="0 0 24 24"><path fill="#000" fill-rule="evenodd" d="M6 3C4.3431 3 3 4.3431 3 6v8c0 1.6569 1.3431 3 3 3h3v2H8c-.5523 0-1 .4477-1 1s.4477 1 1 1h8c.5523 0 1-.4477 1-1s-.4477-1-1-1h-1v-2h3c1.6569 0 3-1.3431 3-3V6c0-1.6569-1.3431-3-3-3zm0 12h12c.5523 0 1-.4477 1-1V6c0-.5523-.4477-1-1-1H6c-.5523 0-1 .4477-1 1v8c0 .5523.4477 1 1 1m11.1854-7.9992c.3905.3906.3905 1.0237 0 1.4143l-3.4748 3.4747c-.3905.3905-1.0237.3905-1.4142 0l-1.479-1.479-2.5883 2.5883c-.3905.3905-1.0237.3905-1.4142 0-.3906-.3905-.3906-1.0237 0-1.4142l3.2954-3.2954c.3905-.3905 1.0237-.3905 1.4142 0l1.479 1.479 2.7677-2.7677c.3905-.3905 1.0236-.3905 1.4142 0M13 17v2h-2v-2z"/></svg>