<svg xmlns="http://www.w3.org/2000/svg" width="24" height="24" fill="none" viewBox="0 0 24 24"><path fill="#000" fill-rule="evenodd" d="M13.891 2.4432a1.5 1.5 0 0 0-.2121-.1775.996.996 0 0 0-.7572-.2627A1.5 1.5 0 0 0 12.8265 2H7C5.3431 2 4 3.3431 4 5v14c0 1.6569 1.3431 3 3 3h10c1.3062 0 2.4175-.8348 2.8293-2H7c-.5523 0-1-.4477-1-1V5c0-.5523.4477-1 1-1h5v3c0 1.6569 1.3431 3 3 3h5v-.7854c0-.396-.1566-.7758-.4355-1.0568zM14 5.3917 16.5896 8H15c-.5523 0-1-.4477-1-1zM8 10c0-.5523.4477-1 1-1h1c.5523 0 1 .4477 1 1s-.4477 1-1 1H9c-.5523 0-1-.4477-1-1m12 8H10c-1.1046 0-2-.8954-2-2v-2c0-1.1046.8954-2 2-2h10c1.1046 0 2 .8954 2 2v2c0 1.1046-.8954 2-2 2m0-4H10v2h10z"/></svg>