<svg xmlns="http://www.w3.org/2000/svg" width="24" height="24" fill="none" viewBox="0 0 24 24"><path fill="#000" d="m17.091 14.03 4.372 6.028h-3.08l-3.743-5.233v-1.524l3.644-4.836h3.047zm-7.706 4.03v1.976a3.1 3.1 0 0 1-.374.023H6.793c-.847 0-1.653-.367-2.157-.966l-1.754-2.124c-.282-.348-.443-.753-.443-1.178v-.135c-.544-.405-.887-1.043-.887-1.777s.343-1.39.887-1.777v-.019a.1.1 0 0 0-.012-.009l-.01-.006c-.011-.006-.019-.011-.019-.023-.605-1.024-1.27-2.897-.806-4.326.378-1.199 1.324-1.512 2.139-1.782l.003-.001c.189-.063.371-.123.538-.192.109-.045.212-.094.305-.149.085-.05.177-.107.276-.168.883-.546 2.298-1.421 4.039-.952.179.05.344.112.495.182v3.599c-1.339.572-2.69 1.812-2.995 3.018l-.061.058a.1.1 0 0 0-.023.004.17.17 0 0 1-.03.005.05.05 0 0 1-.016-.002.03.03 0 0 1-.012-.007c-.322-.135-1.23-.56-1.492-1.603 0 0-.625.522-.826 1.545v.039a103 103 0 0 1-.061.676v.058c0 .065-.005.135-.009.207a3.4 3.4 0 0 0-.011.237l-.06 1.101c0 .01-.01.015-.021.014-.01 0-.02-.005-.02-.014l-.262-.637c-.302.135-.504.483-.504.908 0 .522.323.947.726.947.02 0 .037 0 .054-.001l.032-.002a.4.4 0 0 0 .037-.006.4.4 0 0 0 .038-.01v.637c1.129-.309 1.593.521 2.016 1.371l.02-.019c.242-.463.786-.773 1.391-.773h1.411c.24 0 .471.049.677.137v1.166l-.112-.221c-.101-.193-.323-.309-.565-.309H7.298c-.242 0-.464.116-.565.309l-.322.637c.161.232.343.406.585.464v-.367c0-.193.181-.348.403-.348h1.23c.222 0 .403.155.403.348v.406a.7.7 0 0 0 .148-.042.8.8 0 0 0 .09-.044.9.9 0 0 0 .08-.051zm3.963 1.998h-2.484V4.159h2.484z"/><path fill="#000" d="M5.369 12.945c0-.545.409-.945.911-.945s.911.436.911.945c0 .545-.408.945-.911.945s-.911-.436-.911-.945m3.304 1.694c-.412 0-.735-.293-.735-.618.206.13.441.228.735.228s.529-.098.735-.228c0 .358-.323.618-.735.618"/></svg>