<svg xmlns="http://www.w3.org/2000/svg" width="24" height="24" fill="none" viewBox="0 0 24 24"><path fill="#000" fill-rule="evenodd" d="M4 5c0-1.6569 1.3431-3 3-3h10c.8933 0 1.6954.3904 2.245 1.01-.8472-.069-1.7182.2205-2.3663.8687A3 3 0 0 0 16.7638 4H7c-.5523 0-1 .4477-1 1v4H4zm14.2929.2929c.3905-.3905 1.0237-.3905 1.4142 0l2 2c.3905.3905.3905 1.0237 0 1.4142l-2 2c-.3905.3905-1.0237.3905-1.4142 0s-.3905-1.0237 0-1.4142L18.5858 9H14c-.5523 0-1-.4477-1-1s.4477-1 1-1h4.5858l-.2929-.2929c-.3905-.3905-.3905-1.0237 0-1.4142m-10 4c.3905-.3905 1.0237-.3905 1.4142 0l2 2c.3905.3905.3905 1.0237 0 1.4142l-2 2c-.3905.3905-1.0237.3905-1.4142 0s-.3905-1.0237 0-1.4142L8.5858 13H3c-.5523 0-1-.4477-1-1s.4477-1 1-1h5.5858l-.2929-.2929c-.3905-.3905-.3905-1.0237 0-1.4142m10 4c.3905-.3905 1.0237-.3905 1.4142 0l2 2c.3905.3905.3905 1.0237 0 1.4142l-2 2c-.3905.3905-1.0237.3905-1.4142 0s-.3905-1.0237 0-1.4142L18.5858 17H14c-.5523 0-1-.4477-1-1s.4477-1 1-1h4.5858l-.2929-.2929c-.3905-.3905-.3905-1.0237 0-1.4142m-1.4142 6.8284c.6481.6482 1.5191.9377 2.3663.8687C18.6954 21.6096 17.8933 22 17 22H7c-1.6569 0-3-1.3431-3-3v-4h2v4c0 .5523.4477 1 1 1h9.7638q.0555.0618.1149.1213M9 18c0 .5523-.4477 1-1 1s-1-.4477-1-1 .4477-1 1-1 1 .4477 1 1m2 1c.5523 0 1-.4477 1-1s-.4477-1-1-1-1 .4477-1 1 .4477 1 1 1"/></svg>