<svg xmlns="http://www.w3.org/2000/svg" width="24" height="24" fill="none" viewBox="0 0 24 24"><path fill="#000" fill-rule="evenodd" d="M3 6c0-1.6569 1.3431-3 3-3h2c.5523 0 1 .4477 1 1s-.4477 1-1 1H6c-.5523 0-1 .4477-1 1v2c0 .5523-.4477 1-1 1s-1-.4477-1-1zm12-2c0-.5523.4477-1 1-1h2c1.6569 0 3 1.3431 3 3v2c0 .5523-.4477 1-1 1s-1-.4477-1-1V6c0-.5523-.4477-1-1-1h-2c-.5523 0-1-.4477-1-1m-1.0081 4.546c.4778.277.6406.8889.3636 1.3667l-.6279 1.0829 1.2708-.0023c.5523-.001 1.0008.4459 1.0018.9982s-.4459 1.0008-.9982 1.0018l-1.2802.0023.6384 1.1013c.277.4778.1143 1.0896-.3635 1.3667-.4778.277-1.0897.1142-1.3667-.3636l-.641-1.1056-.6429 1.109c-.277.4778-.8889.6406-1.3667.3636s-.6406-.8889-.3636-1.3667l.6368-1.0984-1.2506.0023c-.5523.001-1.0008-.4459-1.0018-.9982s.4459-1.0008.9982-1.0018l1.2557-.0023-.6335-1.0926c-.277-.4778-.1142-1.0897.3635-1.3667s1.0897-.1142 1.3667.3635l.6382 1.1008.6362-1.0973c.2771-.4778.8889-.6406 1.3667-.3636M4 15c.5523 0 1 .4477 1 1v2c0 .5523.4477 1 1 1h2c.5523 0 1 .4477 1 1s-.4477 1-1 1H6c-1.6569 0-3-1.3431-3-3v-2c0-.5523.4477-1 1-1m16 0c.5523 0 1 .4477 1 1v2c0 1.6569-1.3431 3-3 3h-2c-.5523 0-1-.4477-1-1s.4477-1 1-1h2c.5523 0 1-.4477 1-1v-2c0-.5523.4477-1 1-1"/></svg>