<svg xmlns="http://www.w3.org/2000/svg" width="24" height="24" fill="none" viewBox="0 0 24 24"><path fill="#000" fill-rule="evenodd" d="M6 4.5C6 5.3284 5.3284 6 4.5 6S3 5.3284 3 4.5 3.6716 3 4.5 3 6 3.6716 6 4.5m5 0c0 .8284-.6716 1.5-1.5 1.5S8 5.3284 8 4.5 8.6716 3 9.5 3s1.5.6716 1.5 1.5M14.5 6c.8284 0 1.5-.6716 1.5-1.5S15.3284 3 14.5 3 13 3.6716 13 4.5 13.6716 6 14.5 6M21 4.5c0 .8284-.6716 1.5-1.5 1.5S18 5.3284 18 4.5 18.6716 3 19.5 3s1.5.6716 1.5 1.5M4.5 16c.8284 0 1.5-.6716 1.5-1.5S5.3284 13 4.5 13 3 13.6716 3 14.5 3.6716 16 4.5 16m6.5-1.5c0 .8284-.6716 1.5-1.5 1.5S8 15.3284 8 14.5 8.6716 13 9.5 13s1.5.6716 1.5 1.5m3.5 1.5c.8284 0 1.5-.6716 1.5-1.5s-.6716-1.5-1.5-1.5-1.5.6716-1.5 1.5.6716 1.5 1.5 1.5m6.5-1.5c0 .8284-.6716 1.5-1.5 1.5s-1.5-.6716-1.5-1.5.6716-1.5 1.5-1.5 1.5.6716 1.5 1.5"/></svg>