<svg width="24" height="24" viewBox="0 0 24 24" fill="none" xmlns="http://www.w3.org/2000/svg">
<path fill-rule="evenodd" clip-rule="evenodd" d="M6.5 2C8.06021 2 9.43496 2.79401 10.2422 4H16C17.6569 4 19 5.34315 19 7V8.58579L19.2929 8.29289C19.6834 7.90237 20.3166 7.90237 20.7071 8.29289C21.0976 8.68342 21.0976 9.31658 20.7071 9.70711L18.7071 11.7071C18.3166 12.0976 17.6834 12.0976 17.2929 11.7071L15.2929 9.70711C14.9024 9.31658 14.9024 8.68342 15.2929 8.29289C15.6834 7.90237 16.3166 7.90237 16.7071 8.29289L17 8.58579V7C17 6.44772 16.5523 6 16 6H10.9725C10.9907 6.16417 11 6.331 11 6.5C11 8.98528 8.98528 11 6.5 11C4.01472 11 2 8.98528 2 6.5C2 4.01472 4.01472 2 6.5 2ZM9 6.5C9 5.11929 7.88071 4 6.5 4C5.11929 4 4 5.11929 4 6.5C4 7.88071 5.11929 9 6.5 9C7.88071 9 9 7.88071 9 6.5Z" fill="black"/>
<path fill-rule="evenodd" clip-rule="evenodd" d="M17.5 13C19.9853 13 22 15.0147 22 17.5C22 19.9853 19.9853 22 17.5 22C15.9398 22 14.565 21.206 13.7578 20H8C6.34315 20 5 18.6569 5 17V15.4142L4.70711 15.7071C4.31658 16.0976 3.68342 16.0976 3.29289 15.7071C2.90237 15.3166 2.90237 14.6834 3.29289 14.2929L5.29289 12.2929C5.68342 11.9024 6.31658 11.9024 6.70711 12.2929L8.70711 14.2929C9.09763 14.6834 9.09763 15.3166 8.70711 15.7071C8.31658 16.0976 7.68342 16.0976 7.29289 15.7071L7 15.4142V17C7 17.5523 7.44772 18 8 18L13.0275 18C13.0093 17.8358 13 17.669 13 17.5C13 15.0147 15.0147 13 17.5 13ZM20 17.5C20 16.1193 18.8807 15 17.5 15C16.1193 15 15 16.1193 15 17.5C15 18.8807 16.1193 20 17.5 20C18.8807 20 20 18.8807 20 17.5Z" fill="black"/>
</svg>
