<svg width="24" height="24" viewBox="0 0 24 24" fill="none" xmlns="http://www.w3.org/2000/svg">
<path fill-rule="evenodd" clip-rule="evenodd" d="M6.5 2.8501C8.06021 2.8501 9.43496 3.64411 10.2422 4.8501H16C17.6569 4.8501 19 6.19324 19 7.8501V9.43588L19.2929 9.14299C19.6834 8.75247 20.3166 8.75247 20.7071 9.14299C21.0976 9.53351 21.0976 10.1667 20.7071 10.5572L18.7071 12.5572C18.3166 12.9477 17.6834 12.9477 17.2929 12.5572L15.2929 10.5572C14.9024 10.1667 14.9024 9.53351 15.2929 9.14299C15.6834 8.75247 16.3166 8.75247 16.7071 9.14299L17 9.43588V7.8501C17 7.29781 16.5523 6.8501 16 6.8501H10.9725C10.9907 7.01426 11 7.18109 11 7.3501C11 9.83538 8.98528 11.8501 6.5 11.8501C4.01472 11.8501 2 9.83538 2 7.3501C2 4.86482 4.01472 2.8501 6.5 2.8501ZM9 7.3501C9 5.96939 7.88071 4.8501 6.5 4.8501C5.11929 4.8501 4 5.96939 4 7.3501C4 8.73081 5.11929 9.8501 6.5 9.8501C7.88071 9.8501 9 8.73081 9 7.3501Z" fill="black"/>
<path fill-rule="evenodd" clip-rule="evenodd" d="M17.5 13.8501C19.9853 13.8501 22 15.8648 22 18.3501C22 20.8354 19.9853 22.8501 17.5 22.8501C15.9398 22.8501 14.565 22.0561 13.7578 20.8501H8C6.34315 20.8501 5 19.507 5 17.8501V16.2643L4.70711 16.5572C4.31658 16.9477 3.68342 16.9477 3.29289 16.5572C2.90237 16.1667 2.90237 15.5335 3.29289 15.143L5.29289 13.143C5.68342 12.7525 6.31658 12.7525 6.70711 13.143L8.70711 15.143C9.09763 15.5335 9.09763 16.1667 8.70711 16.5572C8.31658 16.9477 7.68342 16.9477 7.29289 16.5572L7 16.2643V17.8501C7 18.4024 7.44772 18.8501 8 18.8501L13.0275 18.8501C13.0093 18.6859 13 18.5191 13 18.3501C13 15.8648 15.0147 13.8501 17.5 13.8501ZM20 18.3501C20 16.9694 18.8807 15.8501 17.5 15.8501C16.1193 15.8501 15 16.9694 15 18.3501C15 19.7308 16.1193 20.8501 17.5 20.8501C18.8807 20.8501 20 19.7308 20 18.3501Z" fill="black"/>
</svg>
