<svg width="24" height="24" viewBox="0 0 24 24" fill="none" xmlns="http://www.w3.org/2000/svg">
<path d="M4 4C4.55228 4 5 3.55228 5 3C5 2.44772 4.55228 2 4 2C3.44772 2 3 2.44772 3 3C3 3.55228 3.44772 4 4 4Z" fill="black"/>
<path d="M8 4C8.55228 4 9 3.55228 9 3C9 2.44772 8.55228 2 8 2C7.44772 2 7 2.44772 7 3C7 3.55228 7.44772 4 8 4Z" fill="black"/>
<path d="M13 3C13 3.55228 12.5523 4 12 4C11.4477 4 11 3.55228 11 3C11 2.44772 11.4477 2 12 2C12.5523 2 13 2.44772 13 3Z" fill="black"/>
<path d="M16 4C16.5523 4 17 3.55228 17 3C17 2.44772 16.5523 2 16 2C15.4477 2 15 2.44772 15 3C15 3.55228 15.4477 4 16 4Z" fill="black"/>
<path d="M21 3C21 3.55228 20.5523 4 20 4C19.4477 4 19 3.55228 19 3C19 2.44772 19.4477 2 20 2C20.5523 2 21 2.44772 21 3Z" fill="black"/>
<path d="M13 7C13 6.44772 12.5523 6 12 6C11.4477 6 11 6.44772 11 7V18.5858L6.70711 14.2929C6.31658 13.9024 5.68342 13.9024 5.29289 14.2929C4.90237 14.6834 4.90237 15.3166 5.29289 15.7071L11.2929 21.7071C11.6834 22.0976 12.3166 22.0976 12.7071 21.7071L18.7071 15.7071C19.0976 15.3166 19.0976 14.6834 18.7071 14.2929C18.3166 13.9024 17.6834 13.9024 17.2929 14.2929L13 18.5858V7Z" fill="black"/>
</svg>
