<svg xmlns="http://www.w3.org/2000/svg" width="24" height="24" fill="none" viewBox="0 0 24 24"><path fill="#000" fill-rule="evenodd" d="M12.7071 2.2929c-.3905-.3905-1.0237-.3905-1.4142 0l-6 6c-.3905.3905-.3905 1.0237 0 1.4142s1.0237.3905 1.4142 0L11 5.4142V17c0 .5523.4477 1 1 1s1-.4477 1-1V5.4142l4.2929 4.2929c.3905.3905 1.0237.3905 1.4142 0s.3905-1.0237 0-1.4142zM5 21c0 .5523-.4477 1-1 1s-1-.4477-1-1 .4477-1 1-1 1 .4477 1 1m4 0c0 .5523-.4477 1-1 1s-1-.4477-1-1 .4477-1 1-1 1 .4477 1 1m12 0c0 .5523-.4477 1-1 1s-1-.4477-1-1 .4477-1 1-1 1 .4477 1 1m-9 1c.5523 0 1-.4477 1-1s-.4477-1-1-1-1 .4477-1 1 .4477 1 1 1m5-1c0 .5523-.4477 1-1 1s-1-.4477-1-1 .4477-1 1-1 1 .4477 1 1"/></svg>