<svg width="24" height="24" viewBox="0 0 24 24" fill="none" xmlns="http://www.w3.org/2000/svg">
<path d="M12.7071 2.29289C12.3166 1.90237 11.6834 1.90237 11.2929 2.29289L5.29289 8.29289C4.90237 8.68342 4.90237 9.31658 5.29289 9.70711C5.68342 10.0976 6.31658 10.0976 6.70711 9.70711L11 5.41421V17C11 17.5523 11.4477 18 12 18C12.5523 18 13 17.5523 13 17V5.41421L17.2929 9.70711C17.6834 10.0976 18.3166 10.0976 18.7071 9.70711C19.0976 9.31658 19.0976 8.68342 18.7071 8.29289L12.7071 2.29289Z" fill="black"/>
<path d="M4 22C4.55228 22 5 21.5523 5 21C5 20.4477 4.55228 20 4 20C3.44772 20 3 20.4477 3 21C3 21.5523 3.44772 22 4 22Z" fill="black"/>
<path d="M8 22C8.55228 22 9 21.5523 9 21C9 20.4477 8.55228 20 8 20C7.44772 20 7 20.4477 7 21C7 21.5523 7.44772 22 8 22Z" fill="black"/>
<path d="M13 21C13 21.5523 12.5523 22 12 22C11.4477 22 11 21.5523 11 21C11 20.4477 11.4477 20 12 20C12.5523 20 13 20.4477 13 21Z" fill="black"/>
<path d="M16 22C16.5523 22 17 21.5523 17 21C17 20.4477 16.5523 20 16 20C15.4477 20 15 20.4477 15 21C15 21.5523 15.4477 22 16 22Z" fill="black"/>
<path d="M21 21C21 21.5523 20.5523 22 20 22C19.4477 22 19 21.5523 19 21C19 20.4477 19.4477 20 20 20C20.5523 20 21 20.4477 21 21Z" fill="black"/>
</svg>
