<svg xmlns="http://www.w3.org/2000/svg" width="24" height="24" fill="none" viewBox="0 0 24 24"><path fill="#000" fill-rule="evenodd" d="M7 2C5.3431 2 4 3.3431 4 5v13.9954c0 1.6568 1.3431 3 3 3h7.0941c-.3845-.6008-.5337-1.3087-.4474-1.9926h-2.6528a3 3 0 0 1-.2134-.0074H7c-.5523 0-1-.4478-1-1V5c0-.5523.4477-1 1-1h5v2.9954c0 1.6568 1.3431 3 3 3h3v.9638c.268.1385.5196.3202.7443.5449L20 12.7598V9.2109a1.5 1.5 0 0 0-.439-1.0603l-5.7072-5.711A1.5 1.5 0 0 0 12.7928 2zm9.5784 5.9954L14 5.4154v1.58c0 .5522.4477 1 1 1zm4.1282 8.2994-3.3765-3.3765c-.3905-.3905-1.0237-.3905-1.4142 0-.3906.3905-.3906 1.0237 0 1.4142l1.6703 1.6703h-6.5923c-.5522 0-1 .4478-1 1s.4478 1 1 1h6.5923l-1.6703 1.6703a1 1 0 0 0-.2192.3297 1 1 0 0 0 .2192 1.0846c.3905.3905 1.0237.3905 1.4142 0l3.3764-3.3764a.996.996 0 0 0 .2926-.7597.997.997 0 0 0-.2925-.6565"/></svg>