<svg width="24" height="24" viewBox="0 0 24 24" fill="none" xmlns="http://www.w3.org/2000/svg">
<path fill-rule="evenodd" clip-rule="evenodd" d="M4 5C4 3.34315 5.34315 2 7 2H12.7928C13.1908 2 13.5725 2.15817 13.8538 2.43969L19.561 8.15062C19.8421 8.43189 20 8.81327 20 9.21093L20 12.7598L18.7443 11.5041C18.5196 11.2794 18.268 11.0977 18 10.9592V9.99536H15C13.3431 9.99536 12 8.65222 12 6.99536V4H7C6.44772 4 6 4.44772 6 5V18.9954C6 19.5476 6.44772 19.9954 7 19.9954H10.7805C10.851 20.0003 10.9222 20.0028 10.9939 20.0028H13.6467C13.5604 20.6867 13.7096 21.3946 14.0941 21.9954H7C5.34315 21.9954 4 20.6522 4 18.9954V5ZM14 5.41533L16.5784 7.99536H15C14.4477 7.99536 14 7.54765 14 6.99536V5.41533Z" fill="black"/>
<path d="M20.7066 16.2948C20.8767 16.4645 20.9861 16.6952 20.9991 16.9513L20.7066 16.2948Z" fill="black"/>
<path d="M20.7066 16.2948L17.3301 12.9183C16.9396 12.5278 16.3064 12.5278 15.9159 12.9183C15.5253 13.3088 15.5253 13.942 15.9159 14.3325L17.5862 16.0028H10.9939C10.4417 16.0028 9.99395 16.4506 9.99395 17.0028C9.99395 17.5551 10.4417 18.0028 10.9939 18.0028H17.5862L15.9159 19.6731C15.8185 19.7705 15.7455 19.8829 15.6967 20.0028C15.5496 20.3642 15.6227 20.7942 15.9159 21.0874C16.3064 21.4779 16.9396 21.4779 17.3301 21.0874L20.7065 17.711C20.7292 17.6883 20.7508 17.6646 20.7712 17.6399C20.9144 17.4669 21.0004 17.2449 21.0004 17.0028C21.0004 16.9855 21 16.9684 20.9991 16.9513" fill="black"/>
</svg>
