<svg xmlns="http://www.w3.org/2000/svg" width="24" height="24" fill="none" viewBox="0 0 24 24"><path fill="#000" fill-rule="evenodd" d="M3 6c0-1.6569 1.3431-3 3-3h2c.5523 0 1 .4477 1 1s-.4477 1-1 1H6c-.5523 0-1 .4477-1 1v2c0 .5523-.4477 1-1 1s-1-.4477-1-1zm12-2c0-.5523.4477-1 1-1h2c1.6569 0 3 1.3431 3 3v2c0 .5523-.4477 1-1 1s-1-.4477-1-1V6c0-.5523-.4477-1-1-1h-2c-.5523 0-1-.4477-1-1M9.4335 8.6693c0-.5523-.4477-1-1-1s-1 .4477-1 1v1.074c0 .5522.4477.9999 1 .9999s1-.4477 1-1zm7.4717 0c0-.5523-.4478-1-1-1s-1 .4477-1 1v1.074c0 .5522.4477.9999 1 .9999s1-.4477 1-1zm-3.5286.0536c0-.5523-.4477-1-1-1s-1 .4477-1 1v2.97h-.4381c-.5523 0-1 .4477-1 1s.4477 1 1 1h.8381c.8837 0 1.6-.7163 1.6-1.6zm2.3708 6.4682c-.3187-.4511-.9427-.5584-1.3938-.2398-.2203.1556-1.1797.7651-2.5214.7322-1.3473-.033-2.0204-.5808-2.1201-.6681-.4157-.3636-1.0475-.3214-1.4111.0943s-.3215 1.0474.0942 1.411c.363.3175 1.4677 1.1151 3.388 1.1622 1.9534.0479 3.3381-.8252 3.7243-1.098.4511-.3187.5585-.9427.2399-1.3938M5 16c0-.5523-.4477-1-1-1s-1 .4477-1 1v2c0 1.6569 1.3431 3 3 3h2c.5523 0 1-.4477 1-1s-.4477-1-1-1H6c-.5523 0-1-.4477-1-1zm15-1c.5523 0 1 .4477 1 1v2c0 1.6569-1.3431 3-3 3h-2c-.5523 0-1-.4477-1-1s.4477-1 1-1h2c.5523 0 1-.4477 1-1v-2c0-.5523.4477-1 1-1"/></svg>