<svg xmlns="http://www.w3.org/2000/svg" width="24" height="24" fill="none" viewBox="0 0 24 24"><path fill="#494db0" d="M3 5.25C3 4.0074 4.0074 3 5.25 3h13.5C19.9926 3 21 4.0074 21 5.25v13.5c0 1.2426-1.0074 2.25-2.25 2.25H5.25C4.0074 21 3 19.9926 3 18.75z"/><path fill="#fff" d="M16.249 6.1448a.225.225 0 0 1 .225.225v2.294a.225.225 0 0 1-.225.225h-1.6191a.9.9 0 0 0-.9.9v1.9976h2.3871a.225.225 0 0 1 .2236.2507l-.2636 2.294a.225.225 0 0 1-.2235.1994h-2.1236V21h-2.744v-6.4695H8.9576a.225.225 0 0 1-.225-.225v-2.2941a.225.225 0 0 1 .225-.225h2.0283V9.5198c0-1.864 1.511-3.375 3.375-3.375z"/></svg>