<svg width="24" height="24" viewBox="0 0 24 24" fill="none" xmlns="http://www.w3.org/2000/svg">
<path d="M9 17.6071V15C9 14.4477 8.55228 14 8 14C7.44772 14 7 14.4477 7 15V17.6071C7 18.1594 7.44772 18.6071 8 18.6071C8.55228 18.6071 9 18.1594 9 17.6071Z" fill="black"/>
<path d="M12 14C12.5523 14 13 14.4477 13 15V17.6071C13 18.1594 12.5523 18.6071 12 18.6071C11.4477 18.6071 11 18.1594 11 17.6071V15C11 14.4477 11.4477 14 12 14Z" fill="black"/>
<path d="M17 15C17 14.4477 16.5523 14 16 14C15.4477 14 15 14.4477 15 15V17.6071C15 18.1594 15.4477 18.6071 16 18.6071C16.5523 18.6071 17 18.1594 17 17.6071V15Z" fill="black"/>
<path fill-rule="evenodd" clip-rule="evenodd" d="M16.4161 3.78888C16.524 2.77175 17.382 2 18.4049 2H19.2481C20.2709 2 21.1289 2.77174 21.2369 3.78885L21.9943 10.9226C21.998 10.9577 21.9999 10.9929 21.9999 11.0282V12.2741L22 12.3V19C22 20.6569 20.6569 22 19 22H5C3.34315 22 2 20.6569 2 19V11.0282C2 10.7118 2.14693 10.4298 2.37627 10.2465C2.43894 10.1594 2.50891 10.0769 2.58579 10L7.29289 5.29289C7.57889 5.0069 8.00901 4.92134 8.38268 5.07612C8.75636 5.2309 9 5.59554 9 6V8.58579L12.2929 5.29289C12.5789 5.0069 13.009 4.92134 13.3827 5.07612C13.7564 5.2309 14 5.59554 14 6V10H15.7567L16.4161 3.78888ZM19.9999 12.2906C19.9949 12.1293 19.8626 12 19.7 12H13C12.4477 12 12 11.5523 12 11V8.41421L8.70711 11.7071C8.42111 11.9931 7.99099 12.0787 7.61732 11.9239C7.24364 11.7691 7 11.4045 7 11V8.41421L4 11.4142L4 19C4 19.5523 4.44772 20 5 20H19C19.5523 20 20 19.5523 20 19L19.9999 12.2906ZM19.2481 4L19.8859 10.0074C19.8246 10.0025 19.7626 10 19.7 10H17.768L18.4049 4L19.2481 4Z" fill="black"/>
</svg>
