<svg xmlns="http://www.w3.org/2000/svg" width="24" height="24" fill="none" viewBox="0 0 24 24"><path fill="#000" fill-rule="evenodd" d="M18.4049 2c-1.0229 0-1.8809.7717-1.9888 1.7889L15.7567 10H14V6a1 1 0 0 0-1.7071-.7071L9 8.5858V6a1 1 0 0 0-1.7071-.7071L2.5858 10a2 2 0 0 0-.2095.2465.998.998 0 0 0-.3763.7817V19c0 1.6569 1.3431 3 3 3h14c1.6569 0 3-1.3431 3-3v-6.7l-.0001-.0259v-1.2459q0-.053-.0056-.1056l-.7574-7.1337C21.1289 2.7717 20.2709 2 19.2481 2zm1.481 8.0074L19.2481 4h-.8432l-.6369 6H19.7q.094 0 .1859.0074M19.7 12a.3.3 0 0 1 .2999.2906L20 19c0 .5523-.4477 1-1 1H5c-.5523 0-1-.4477-1-1v-7.5858l3-3V11a1 1 0 0 0 1.7071.7071L12 8.4142V11c0 .5523.4477 1 1 1zM9 15v2.6071c0 .5523-.4477 1-1 1s-1-.4477-1-1V15c0-.5523.4477-1 1-1s1 .4477 1 1m4 0c0-.5523-.4477-1-1-1s-1 .4477-1 1v2.6071c0 .5523.4477 1 1 1s1-.4477 1-1zm4 0c0-.5523-.4477-1-1-1s-1 .4477-1 1v2.6071c0 .5523.4477 1 1 1s1-.4477 1-1z"/></svg>