<svg xmlns="http://www.w3.org/2000/svg" width="24" height="24" fill="none" viewBox="0 0 24 24"><path fill="#000" fill-rule="evenodd" d="M4 5c0-1.6569 1.3431-3 3-3h5.8265a1.5 1.5 0 0 1 1.0645.4432l5.6735 5.7146c.2789.281.4355.6609.4355 1.0568v7.5492C19.4317 16.2546 18.7158 16 18 16V9.9849h-2.9907c-1.6569 0-3-1.3432-3-3V4H7c-.5523 0-1 .4477-1 1v14c0 .5523.4477 1 1 1h2.1708c.1444.4095.3804.7938.7079 1.1213l.8787.8787H7c-1.6569 0-3-1.3431-3-3zm10.0093.401 2.5652 2.5839h-1.5652c-.5523 0-1-.4477-1-1zM15 23a.997.997 0 0 1-.7071-.2929l-3-3c-.3905-.3905-.3905-1.0237 0-1.4142s1.0237-.3905 1.4142 0L14 19.5858V15c0-.5523.4477-1 1-1s1 .4477 1 1v4.5858l1.2929-1.2929A.997.997 0 0 1 18 18a.997.997 0 0 1 .7071.2929c.3905.3905.3905 1.0237 0 1.4142l-3 3A.997.997 0 0 1 15 23"/></svg>