<svg width="24" height="24" viewBox="0 0 24 24" fill="none" xmlns="http://www.w3.org/2000/svg">
<path d="M9.41516 13.8054C8.86288 13.8054 8.41516 14.2531 8.41516 14.8054C8.41516 15.3576 8.86288 15.8054 9.41516 15.8054H10.9152V17.3054C10.9152 17.8576 11.3629 18.3054 11.9152 18.3054C12.4674 18.3054 12.9152 17.8576 12.9152 17.3054V15.8054H14.4152C14.9674 15.8054 15.4152 15.3576 15.4152 14.8054C15.4152 14.2531 14.9674 13.8054 14.4152 13.8054H12.9152V12.3054C12.9152 11.7531 12.4674 11.3054 11.9152 11.3054C11.3629 11.3054 10.9152 11.7531 10.9152 12.3054V13.8054H9.41516Z" fill="black"/>
<path fill-rule="evenodd" clip-rule="evenodd" d="M7 2.00464C5.34315 2.00464 4 3.34778 4 5.00464V19.0046C4 20.6615 5.34315 22.0046 7 22.0046H17C18.6569 22.0046 20 20.6615 20 19.0046V9.21925C20 8.8233 19.8434 8.44341 19.5645 8.16242L13.891 2.44781C13.6093 2.16416 13.2262 2.00464 12.8265 2.00464H7ZM6 5.00464C6 4.45235 6.44772 4.00464 7 4.00464H12.0093L12.0093 6.98949C12.0093 8.64635 13.3524 9.9895 15.0093 9.9895H18V19.0046C18 19.5569 17.5523 20.0046 17 20.0046H7C6.44772 20.0046 6 19.5569 6 19.0046V5.00464ZM16.5745 7.9895L14.0093 5.40569L14.0093 6.9895C14.0093 7.54178 14.457 7.9895 15.0093 7.9895H16.5745Z" fill="black"/>
</svg>
