<svg xmlns="http://www.w3.org/2000/svg" width="24" height="24" fill="none" viewBox="0 0 24 24"><path fill="#000" fill-rule="evenodd" d="M9 1C7.3431 1 6 2.3431 6 4v14c0 1.6569 1.3431 3 3 3h10c1.6569 0 3-1.3431 3-3V8.2146c0-.396-.1566-.7758-.4355-1.0568L15.891 1.4432A1.5 1.5 0 0 0 14.8265 1zM8 4c0-.5523.4477-1 1-1h5.0093v2.9849c0 1.6568 1.3431 3 3 3H20V18c0 .5523-.4477 1-1 1H9c-.5523 0-1-.4477-1-1zm10.5746 2.9849L16.0093 4.401v1.584c0 .5523.4477 1 1 1zM10 12c0-.5523.4477-1 1-1h6c.5523 0 1 .4477 1 1s-.4477 1-1 1h-6c-.5523 0-1-.4477-1-1m-5 1c0-.5523-.4477-1-1-1s-1 .4477-1 1v6c0 2.7614 2.2386 5 5 5h4c.5523 0 1-.4477 1-1s-.4477-1-1-1H8c-1.6569 0-3-1.3431-3-3zm5 3c0-.5523.4477-1 1-1h3c.5523 0 1 .4477 1 1s-.4477 1-1 1h-3c-.5523 0-1-.4477-1-1"/></svg>