<svg xmlns="http://www.w3.org/2000/svg" width="24" height="24" fill="none" viewBox="0 0 24 24"><path fill="#000" fill-rule="evenodd" d="M7 2C5.3431 2 4 3.3431 4 5v14c0 1.6569 1.3431 3 3 3h10c1.6569 0 3-1.3431 3-3V9.2146c0-.396-.1566-.7758-.4355-1.0568L13.891 2.4432A1.5 1.5 0 0 0 12.8265 2zM6 5c0-.5523.4477-1 1-1h5.0093v2.9849c0 1.6568 1.3431 3 3 3H18V19c0 .5523-.4477 1-1 1H7c-.5523 0-1-.4477-1-1zm10.5746 2.9849L14.0093 5.401v1.584c0 .5523.4477 1 1 1zM9 12c-.5523 0-1 .4477-1 1s.4477 1 1 1h6c.5523 0 1-.4477 1-1s-.4477-1-1-1zm0 4c-.5523 0-1 .4477-1 1s.4477 1 1 1h3c.5523 0 1-.4477 1-1s-.4477-1-1-1z"/></svg>