<svg xmlns="http://www.w3.org/2000/svg" width="24" height="24" fill="none" viewBox="0 0 24 24"><path fill="#000" fill-rule="evenodd" d="M3 5c0-1.6569 1.3431-3 3-3h5.8265a1.5 1.5 0 0 1 1.0645.4432l5.6735 5.7146c.2789.281.4355.6609.4355 1.0568v2.1304a2.56 2.56 0 0 0-.5212.402L17 13.2258v-3.241h-2.9907c-1.6569 0-3-1.343-3-3V4H6c-.5523 0-1 .4477-1 1v14c0 .5523.4477 1 1 1h5.0157a2.6 2.6 0 0 0-.0157.2822v1.4976q0 .1115.0108.2202H6c-1.6569 0-3-1.3431-3-3zm10.0093.401 2.5652 2.5839h-1.5652c-.5523 0-1-.4478-1-1zm8.8295 8.9276a.5504.5504 0 0 1 0 .7783l-1.0124 1.0124-1.9457-1.9457 1.0124-1.0124a.5504.5504 0 0 1 .7783 0zm-3.6652.5521 1.9457 1.9457-5.0123 5.0124a.55.55 0 0 1-.3892.1612h-1.4977A.22.22 0 0 1 13 21.7799v-1.4977c0-.1459.058-.2859.1612-.3891z"/></svg>