<svg width="24" height="24" viewBox="0 0 24 24" fill="none" xmlns="http://www.w3.org/2000/svg">
<path d="M15.7295 13.3113C16.1073 12.9084 16.0869 12.2756 15.6839 11.8978C15.281 11.5201 14.6482 11.5405 14.2705 11.9434L11.216 15.2015L9.69615 13.7277C9.29966 13.3432 8.66657 13.3529 8.2821 13.7494C7.89763 14.1459 7.90737 14.779 8.30385 15.1635L10.5539 17.3453C10.7464 17.5319 11.0057 17.6335 11.2738 17.6271C11.5419 17.6207 11.7961 17.5069 11.9795 17.3113L15.7295 13.3113Z" fill="black"/>
<path fill-rule="evenodd" clip-rule="evenodd" d="M4 5.00464C4 3.34778 5.34315 2.00464 7 2.00464H12.8265C13.2262 2.00464 13.6093 2.16416 13.891 2.44781L19.5645 8.16242C19.8434 8.44341 20 8.8233 20 9.21925V19.0046C20 20.6615 18.6569 22.0046 17 22.0046H7C5.34315 22.0046 4 20.6615 4 19.0046V5.00464ZM7 4.00464C6.44772 4.00464 6 4.45235 6 5.00464V19.0046C6 19.5569 6.44772 20.0046 7 20.0046H17C17.5523 20.0046 18 19.5569 18 19.0046V9.98953H15.0093C13.3524 9.98953 12.0093 8.64638 12.0093 6.98952L12.0093 4.00464H7ZM14.0093 5.40569L16.5746 7.98953H15.0093C14.457 7.98953 14.0093 7.54181 14.0093 6.98953L14.0093 5.40569Z" fill="black"/>
</svg>
