<svg width="24" height="24" viewBox="0 0 24 24" fill="none" xmlns="http://www.w3.org/2000/svg">
<path fill-rule="evenodd" clip-rule="evenodd" d="M7 4.00464C6.44772 4.00464 6 4.45235 6 5.00464V19.0046C6 19.5569 6.44772 20.0046 7 20.0046H9C9 20.773 9.28885 21.4739 9.76389 22.0046H7C5.34315 22.0046 4 20.6615 4 19.0046V5.00464C4 3.34778 5.34315 2.00464 7 2.00464H12.8265C13.2262 2.00464 13.6093 2.16416 13.891 2.44781L19.5645 8.16242C19.8434 8.44341 20 8.8233 20 9.21925V19.0046C20 20.6615 18.6569 22.0046 17 22.0046H14.2361C14.7111 21.4739 15 20.773 15 20.0046H17C17.5523 20.0046 18 19.5569 18 19.0046V9.98953H15.0093C13.3524 9.98953 12.0093 8.64638 12.0093 6.98952L12.0093 4.00464H7ZM14.0093 5.40568L16.5746 7.98953H15.0093C14.457 7.98953 14.0093 7.54181 14.0093 6.98953L14.0093 5.40568Z" fill="black"/>
<path d="M11 20.0046C11 20.5569 11.4477 21.0046 12 21.0046C12.5523 21.0046 13 20.5569 13 20.0046C13 19.4524 12.5523 19.0046 12 19.0046C11.4477 19.0046 11 19.4524 11 20.0046Z" fill="black"/>
<path d="M11 14.0046C11 13.4636 11.4538 13.0046 12.0174 13.0046C12.5619 13.0046 13 13.4481 13 13.9701V14.1303C13 14.4791 12.7626 14.7832 12.4241 14.8678C11.5872 15.0771 11 15.8291 11 16.6918V17.0046C11 17.5569 11.4477 18.0046 12 18.0046C12.5523 18.0046 13 17.5569 13 17.0046V16.7838C14.1802 16.446 15 15.3654 15 14.1303V13.9701C15 12.3211 13.6439 11.0046 12.0174 11.0046C10.3719 11.0046 9 12.3365 9 14.0046C9 14.5569 9.44772 15.0046 10 15.0046C10.5523 15.0046 11 14.5569 11 14.0046Z" fill="black"/>
</svg>
