<svg xmlns="http://www.w3.org/2000/svg" width="24" height="24" fill="none" viewBox="0 0 24 24"><path fill="#000" fill-rule="evenodd" d="M4 5c0-1.6569 1.3431-3 3-3h5.8265a1.5 1.5 0 0 1 1.0645.4432l5.6735 5.7146c.2789.281.4355.6609.4355 1.0568V11h-2V9.9849h-2.9907c-1.6569 0-3-1.3432-3-3V4H7c-.5523 0-1 .4477-1 1v6H4zm10.0093.401 2.5653 2.5839h-1.5653c-.5523 0-1-.4477-1-1zM4 15v4c0 1.6569 1.3431 3 3 3h10c1.6569 0 3-1.3431 3-3v-4h2c.5523 0 1-.4477 1-1s-.4477-1-1-1H2c-.5523 0-1 .4477-1 1s.4477 1 1 1zm2 0h12v4c0 .5523-.4477 1-1 1H7c-.5523 0-1-.4477-1-1z"/></svg>