<svg width="24" height="24" viewBox="0 0 24 24" fill="none" xmlns="http://www.w3.org/2000/svg">
<path fill-rule="evenodd" clip-rule="evenodd" d="M6 5C6 4.44772 6.44772 4 7 4H12.0093L12.0093 6.98487C12.0093 8.64173 13.3524 9.98488 15.0093 9.98488H18L18 13C18.7158 13 19.4317 13.2546 20 13.7638V9.21461C20 8.81866 19.8434 8.43877 19.5645 8.15778L13.891 2.44317C13.6093 2.15952 13.2262 2 12.8265 2H7C5.34315 2 4 3.34315 4 5V19C4 20.6569 5.34315 22 7 22H8.12602C8.04375 21.6804 8 21.3453 8 21V20H7C6.44772 20 6 19.5523 6 19V5ZM16.5745 7.98488L14.0093 5.40104L14.0093 6.98488C14.0093 7.53716 14.457 7.98488 15.0093 7.98488H16.5745Z" fill="black"/>
<path d="M16 12C16 11.4477 15.5523 11 15 11C14.4477 11 14 11.4477 14 12V16.5858L12.7071 15.2929C12.3166 14.9024 11.6834 14.9024 11.2929 15.2929C10.9024 15.6834 10.9024 16.3166 11.2929 16.7071L14.2923 19.7065C14.4733 19.8878 14.7236 20 15 20C15.2763 20 15.5264 19.888 15.7074 19.7068L18.7071 16.7071C19.0976 16.3166 19.0976 15.6834 18.7071 15.2929C18.3166 14.9024 17.6834 14.9024 17.2929 15.2929L16 16.5858V12Z" fill="black"/>
<path d="M11 19C11.5523 19 12 19.4477 12 20V21H18V20C18 19.4477 18.4477 19 19 19C19.5523 19 20 19.4477 20 20V21C20 22.1046 19.1046 23 18 23H12C10.8954 23 10 22.1046 10 21V20C10 19.4477 10.4477 19 11 19Z" fill="black"/>
</svg>
