<svg width="24" height="24" viewBox="0 0 24 24" fill="none" xmlns="http://www.w3.org/2000/svg">
<path fill-rule="evenodd" clip-rule="evenodd" d="M6 2C4.34315 2 3 3.34315 3 5V19C3 20.6569 4.34315 22 6 22H11.0108C11.0036 21.9276 11 21.8541 11 21.7798L11 20.2822C11 20.1874 11.0053 20.0933 11.0157 20H6C5.44772 20 5 19.5523 5 19V5C5 4.44772 5.44772 4 6 4H11.0093L11.0093 6.98485C11.0093 8.64171 12.3524 9.98486 14.0093 9.98486H17V13.2258L18.4788 11.747C18.6384 11.5874 18.8138 11.4535 19 11.345V9.21461C19 8.81866 18.8434 8.43877 18.5645 8.15778L12.891 2.44317C12.6093 2.15952 12.2262 2 11.8265 2H6ZM13.0093 6.98486L13.0093 5.40105L15.5745 7.98486H14.0093C13.457 7.98486 13.0093 7.53714 13.0093 6.98486Z" fill="black"/>
<path d="M8.5 13C9.32843 13 10 12.3284 10 11.5C10 10.6716 9.32843 10 8.5 10C7.67157 10 7 10.6716 7 11.5C7 12.3284 7.67157 13 8.5 13Z" fill="black"/>
<path d="M10 16.5C10 17.3284 9.32843 18 8.5 18C7.67157 18 7 17.3284 7 16.5C7 15.6716 7.67157 15 8.5 15C9.32843 15 10 15.6716 10 16.5Z" fill="black"/>
<path d="M21.8388 14.3286C22.0537 14.5436 22.0537 14.892 21.8388 15.1069L20.8264 16.1193L18.8807 14.1736L19.8931 13.1612C20.108 12.9463 20.4564 12.9463 20.6714 13.1612L21.8388 14.3286Z" fill="black"/>
<path d="M18.1736 14.8807L20.1193 16.8264L15.107 21.8388C15.0038 21.942 14.8638 22 14.7178 22L13.2201 22C13.0986 22 13 21.9014 13 21.7799L13 20.2822C13 20.1363 13.058 19.9963 13.1612 19.8931L18.1736 14.8807Z" fill="black"/>
</svg>
