<svg xmlns="http://www.w3.org/2000/svg" width="24" height="24" fill="none" viewBox="0 0 24 24"><path fill="#000" fill-rule="evenodd" d="M4 5c0-1.6569 1.3431-3 3-3h5.8265a1.5 1.5 0 0 1 1.0645.4432l5.6735 5.7146c.2789.281.4355.6609.4355 1.0568v4.1268A5.99 5.99 0 0 0 18 13V9.9849h-2.9907c-1.6569 0-3-1.3432-3-3V4H7c-.5523 0-1 .4477-1 1v14c0 .5523.4477 1 1 1h5.083a5.96 5.96 0 0 0 .7197 2H7c-1.6569 0-3-1.3431-3-3zm10.0093.401 2.5652 2.5839h-1.5652c-.5523 0-1-.4478-1-1zM18 23c2.2091 0 4-1.7909 4-4s-1.7909-4-4-4-4 1.7909-4 4 1.7909 4 4 4m.5-6a.5.5 0 0 0-1 0v2c0 .1326.0527.2598.1464.3536l1.5 1.5a.5.5 0 0 0 .7072 0 .5.5 0 0 0 0-.7072L18.5 18.7929z"/></svg>