<svg width="24" height="24" viewBox="0 0 24 24" fill="none" xmlns="http://www.w3.org/2000/svg">
<path fill-rule="evenodd" clip-rule="evenodd" d="M7 2C5.34315 2 4 3.34315 4 5V19C4 20.6569 5.34315 22 7 22H12.8027C12.4513 21.3926 12.2034 20.7179 12.083 20H7C6.44772 20 6 19.5523 6 19V5C6 4.44772 6.44772 4 7 4H12.0093L12.0093 6.98485C12.0093 8.64171 13.3524 9.98486 15.0093 9.98486H18L18 13C18.7013 13 19.3744 13.1203 20 13.3414V9.21461C20 8.81866 19.8434 8.43877 19.5645 8.15778L13.891 2.44317C13.6093 2.15952 13.2262 2 12.8265 2H7ZM16.5745 7.98486L14.0093 5.40105L14.0093 6.98486C14.0093 7.53714 14.457 7.98486 15.0093 7.98486H16.5745Z" fill="black"/>
<path fill-rule="evenodd" clip-rule="evenodd" d="M22 19C22 21.2091 20.2091 23 18 23C15.7909 23 14 21.2091 14 19C14 16.7909 15.7909 15 18 15C20.2091 15 22 16.7909 22 19ZM18 16.5C18.2761 16.5 18.5 16.7239 18.5 17V18.7929L19.8536 20.1464C20.0488 20.3417 20.0488 20.6583 19.8536 20.8536C19.6583 21.0488 19.3417 21.0488 19.1464 20.8536L17.6464 19.3536C17.5527 19.2598 17.5 19.1326 17.5 19V17C17.5 16.7239 17.7239 16.5 18 16.5Z" fill="black"/>
</svg>
