<svg xmlns="http://www.w3.org/2000/svg" width="24" height="24" fill="none" viewBox="0 0 24 24"><path fill="#000" fill-rule="evenodd" d="M4 7.1594V4q0-.4141.1464-.7678t.4394-.6464q.2928-.293.6464-.4393Q5.5858 2 6 2h12q.4141 0 .7677.1464h.0001q.3535.1465.6464.4394.293.2928.4393.6464Q20 3.5857 20 4v5.1594q.1023.035.2013.0776.5001.2154.9158.6266.4161.4116.6362.9099Q22 11.3322 22 12v6.9459q0 .6479-.231 1.1992-.2172.5182-.6388.9511-.4531.465-1.0042.6908-.52.213-1.1272.213H5.0012q-.6072 0-1.1272-.213-.551-.2258-1.0042-.6908-.4215-.4328-.6388-.9511Q2 19.5939 2 18.9459V10q0-.6677.2467-1.2265.22-.4982.6362-.9099.4158-.4112.9158-.6266.099-.0426.2013-.0776M6 7h3q1.2749 0 2.0802.6149a2.7 2.7 0 0 1 .2775.244l.009.0091L12.4321 9H18V4H6zm10-1h-3c-.56 0-1 .44-1 1s.44 1 1 1h3c.56 0 1-.44 1-1s-.44-1-1-1M4.5618 9.0931q.1977-.093.4394-.0931H9q.6642 0 .93.2597L11.568 11h7.4309q.2417 0 .4395.0931a.98.98 0 0 1 .2724.1925.97.97 0 0 1 .1901.2615Q20 11.7493 20 12v6.9459q0 .2415-.0894.4435-.075.1695-.213.3111-.1588.163-.3517.2373a.96.96 0 0 1-.3471.0622H5.0012a.96.96 0 0 1-.347-.0622q-.193-.0742-.3518-.2373a1.06 1.06 0 0 1-.213-.3111Q4 19.1874 4 18.9459V10q0-.2508.0992-.4528a.97.97 0 0 1 .1902-.2616.98.98 0 0 1 .2724-.1925"/></svg>