<svg xmlns="http://www.w3.org/2000/svg" width="24" height="24" fill="none" viewBox="0 0 24 24"><path fill="#000" fill-rule="evenodd" d="M4 5c0-1.6569 1.3431-3 3-3h5.8265a1.5 1.5 0 0 1 1.0645.4432l5.6735 5.7146c.2789.281.4355.6609.4355 1.0568V19c0 1.6569-1.3431 3-3 3H7c-1.6569 0-3-1.3431-3-3zm3-1c-.5523 0-1 .4477-1 1v14c0 .5523.4477 1 1 1h10c.5523 0 1-.4477 1-1V9.9849h-2.9907c-1.6569 0-3-1.3432-3-3V4zm7.0093 1.401 2.5653 2.5839h-1.5653c-.5523 0-1-.4477-1-1zM11 12.5c0 .8284-.6716 1.5-1.5 1.5S8 13.3284 8 12.5 8.6716 11 9.5 11s1.5.6716 1.5 1.5m3.5 1.5c.8284 0 1.5-.6716 1.5-1.5s-.6716-1.5-1.5-1.5-1.5.6716-1.5 1.5.6716 1.5 1.5 1.5m-3.619 3.4731c-.2547.475-.843.664-1.3282.4213-.494-.247-.6942-.8476-.4472-1.3416L9.9999 17c-.8943-.4472-.8938-.4483-.8938-.4483l.0005-.0011.0012-.0022.0024-.0048.0056-.0107.014-.026a2 2 0 0 1 .0398-.0688 2.4 2.4 0 0 1 .132-.1943 2.92 2.92 0 0 1 .5112-.5247C10.2898 15.3375 11.0071 15 12 15s1.7102.3375 2.1872.7191c.2322.1858.3987.3747.5112.5247.0565.0752.1.1415.132.1943a2 2 0 0 1 .0538.0948l.0056.0107.0024.0048.0012.0022.0005.0011s.0005.0011-.8939.4483l.8944-.4472c.247.494.0468 1.0946-.4472 1.3416-.4852.2427-1.0735.0537-1.3282-.4213a.5.5 0 0 0-.0206-.0293.92.92 0 0 0-.1606-.1629C12.7898 17.1625 12.5071 17 12 17s-.7898.1625-.9378.2809a.92.92 0 0 0-.1606.1629.5.5 0 0 0-.0206.0293"/></svg>