<svg xmlns="http://www.w3.org/2000/svg" width="24" height="24" fill="none" viewBox="0 0 24 24"><path fill="#000" fill-rule="evenodd" d="M7 2C5.3431 2 4 3.3431 4 5v14c0 1.6569 1.3431 3 3 3h10c1.6569 0 3-1.3431 3-3V9.2146c0-.396-.1566-.7758-.4355-1.0568L13.891 2.4432A1.5 1.5 0 0 0 12.8265 2zM6 5c0-.5523.4477-1 1-1h5.0093v2.9849c0 1.6568 1.3431 3 3 3H18V19c0 .5523-.4477 1-1 1H7c-.5523 0-1-.4477-1-1zm10.5746 2.9849L14.0093 5.401v1.584c0 .5523.4477 1 1 1zm-.8907 3.9083c.403.3777.4234 1.0106.0456 1.4135l-3.75 4a1 1 0 0 1-1.4256.0339l-2.25-2.1818c-.3965-.3844-.4063-1.0175-.0218-1.414s1.0176-.4062 1.414-.0218l1.5199 1.4739 3.0545-3.2581c.3777-.4029 1.0105-.4233 1.4134-.0456"/></svg>