<svg width="24" height="24" viewBox="0 0 24 24" fill="none" xmlns="http://www.w3.org/2000/svg">
<path d="M9 12C8.44772 12 8 12.4477 8 13C8 13.5523 8.44772 14 9 14H15C15.5523 14 16 13.5523 16 13C16 12.4477 15.5523 12 15 12H9Z" fill="black"/>
<path d="M9 16C8.44772 16 8 16.4477 8 17C8 17.5523 8.44772 18 9 18H12C12.5523 18 13 17.5523 13 17C13 16.4477 12.5523 16 12 16H9Z" fill="black"/>
<path fill-rule="evenodd" clip-rule="evenodd" d="M4 5C4 3.34315 5.34315 2 7 2H12.8265C13.2262 2 13.6093 2.15952 13.891 2.44317L19.5645 8.15778C19.8434 8.43877 20 8.81866 20 9.21461V19C20 20.6569 18.6569 22 17 22H7C5.34315 22 4 20.6569 4 19V5ZM7 4C6.44772 4 6 4.44772 6 5V19C6 19.5523 6.44772 20 7 20H17C17.5523 20 18 19.5523 18 19V9.98489H15.0093C13.3524 9.98489 12.0093 8.64174 12.0093 6.98488L12.0093 4H7ZM14.0093 5.40105L16.5746 7.98489H15.0093C14.457 7.98489 14.0093 7.53717 14.0093 6.98489L14.0093 5.40105Z" fill="black"/>
</svg>
