<svg width="24" height="24" viewBox="0 0 24 24" fill="none" xmlns="http://www.w3.org/2000/svg">
<path fill-rule="evenodd" clip-rule="evenodd" d="M7 2C5.34 2 4 3.34 4 5V19C4 20.66 5.34 22 7 22H12.828L12.33 21.17C12.1094 20.8023 11.9917 20.401 11.9713 20H7C6.45 20 6 19.55 6 19V5C6 4.45 6.45 4 7 4H12.01V6.98C12.01 8.64 13.35 9.98 15.01 9.98H18V11.99H19.22C19.4905 11.99 19.753 12.0344 20 12.1169V9.21C20 8.81 19.84 8.43 19.56 8.15L13.89 2.44C13.61 2.16 13.23 2 12.83 2H7ZM16.57 7.98L14 5.4V6.98C14 7.53 14.45 7.98 15 7.98H16.57Z" fill="black"/>
<path fill-rule="evenodd" clip-rule="evenodd" d="M19.22 14.01C19.46 14.01 19.67 14.19 19.71 14.44L19.84 15.36C20.11 15.47 20.37 15.61 20.6 15.78L21.52 15.42C21.75 15.33 22 15.42 22.13 15.63L22.88 16.88C23.01 17.1 22.96 17.39 22.75 17.54L21.98 18.11C22 18.24 22 18.38 22 18.51C22 18.64 22 18.78 21.98 18.91L22.75 19.48C22.96 19.63 23.01 19.92 22.88 20.14L22.13 21.39C22 21.6 21.75 21.69 21.52 21.6L20.6 21.24C20.37 21.41 20.11 21.55 19.84 21.66L19.71 22.58C19.68 22.83 19.47 23.01 19.22 23.01H17.71C17.47 23.01 17.26 22.83 17.22 22.58L17.09 21.66C16.82 21.55 16.56 21.41 16.33 21.24L15.41 21.6C15.18 21.69 14.93 21.6 14.8 21.39L14.05 20.14C13.92 19.92 13.97 19.63 14.18 19.48L14.95 18.91C14.93 18.78 14.93 18.64 14.93 18.51C14.93 18.38 14.93 18.24 14.95 18.11L14.18 17.54C13.97 17.39 13.92 17.1 14.05 16.88L14.8 15.63C14.93 15.42 15.18 15.33 15.41 15.42L16.33 15.78C16.56 15.61 16.82 15.47 17.09 15.36L17.22 14.44C17.25 14.19 17.46 14.01 17.71 14.01H19.22ZM19.56 18.51C19.56 19.12 19.07 19.61 18.46 19.61C17.85 19.61 17.36 19.12 17.36 18.51C17.36 17.9 17.85 17.41 18.46 17.41C19.07 17.41 19.56 17.9 19.56 18.51Z" fill="black"/>
</svg>
