<svg width="24" height="24" viewBox="0 0 24 24" fill="none" xmlns="http://www.w3.org/2000/svg">
<path fill-rule="evenodd" clip-rule="evenodd" d="M7 2C5.34315 2 4 3.34315 4 5V11H6V5C6 4.44772 6.44772 4 7 4H12.0093L12.0093 6.98488C12.0093 8.64174 13.3524 9.98489 15.0093 9.98489H18V11H20V9.21461C20 8.81866 19.8434 8.43877 19.5645 8.15778L13.891 2.44317C13.6093 2.15952 13.2262 2 12.8265 2H7ZM16.5746 7.98489L14.0093 5.40105L14.0093 6.98489C14.0093 7.53717 14.457 7.98489 15.0093 7.98489H16.5746Z" fill="black"/>
<path fill-rule="evenodd" clip-rule="evenodd" d="M4 19V15H2C1.44772 15 1 14.5523 1 14C1 13.4477 1.44772 13 2 13H22C22.5523 13 23 13.4477 23 14C23 14.5523 22.5523 15 22 15H20V19C20 20.6569 18.6569 22 17 22H7C5.34315 22 4 20.6569 4 19ZM18 15H6V19C6 19.5523 6.44772 20 7 20H17C17.5523 20 18 19.5523 18 19V15Z" fill="black"/>
</svg>
