<svg xmlns="http://www.w3.org/2000/svg" width="24" height="24" fill="none" viewBox="0 0 24 24"><path fill="#000" fill-rule="evenodd" d="M4 5c0-1.66 1.34-3 3-3h5.83c.4 0 .78.16 1.06.44l5.67 5.71c.28.28.44.66.44 1.06v2.9069a2.46 2.46 0 0 0-.78-.1269H18V9.98h-2.99c-1.66 0-3-1.34-3-3V4H7c-.55 0-1 .45-1 1v14c0 .55.45 1 1 1h4.9713c.0204.401.1381.8023.3587 1.17l.498.83H7c-1.66 0-3-1.34-3-3zm10 .4 2.57 2.58H15c-.55 0-1-.45-1-1zm5.71 9.04c-.04-.25-.25-.43-.49-.43h-1.51c-.25 0-.46.18-.49.43l-.13.92c-.27.11-.53.25-.76.42l-.92-.36c-.23-.09-.48 0-.61.21l-.75 1.25c-.13.22-.08.51.13.66l.77.57c-.02.13-.02.27-.02.4s0 .27.02.4l-.77.57c-.21.15-.26.44-.13.66l.75 1.25c.13.21.38.3.61.21l.92-.36c.23.17.49.31.76.42l.13.92c.04.25.25.43.49.43h1.51c.25 0 .46-.18.49-.43l.13-.92c.27-.11.53-.25.76-.42l.92.36c.23.09.48 0 .61-.21l.75-1.25c.13-.22.08-.51-.13-.66l-.77-.57c.02-.13.02-.27.02-.4s0-.27-.02-.4l.77-.57c.21-.15.26-.44.13-.66l-.75-1.25c-.13-.21-.38-.3-.61-.21l-.92.36c-.23-.17-.49-.31-.76-.42zm-1.25 5.17c.61 0 1.1-.49 1.1-1.1s-.49-1.1-1.1-1.1-1.1.49-1.1 1.1.49 1.1 1.1 1.1"/></svg>