<svg xmlns="http://www.w3.org/2000/svg" width="24" height="24" fill="none" viewBox="0 0 24 24"><path fill="#000" fill-rule="evenodd" d="M4 5c0-1.6569 1.3431-3 3-3h5.8265a1.5 1.5 0 0 1 1.0645.4432l5.6735 5.7146c.2789.281.4355.6609.4355 1.0568V19c0 1.6569-1.3431 3-3 3H7c-1.6569 0-3-1.3431-3-3zm3-1c-.5523 0-1 .4477-1 1v14c0 .5523.4477 1 1 1h10c.5523 0 1-.4477 1-1V9.9849h-2.9907c-1.6569 0-3-1.3432-3-3V4zm7.0093 1.401 2.5652 2.5839h-1.5652c-.5523 0-1-.4478-1-1zm-5.5941 9.3997c0-.5523.4477-1 1-1h1.5v-1.5c0-.5523.4477-1 1-1s1 .4477 1 1v1.5h1.5c.5522 0 1 .4477 1 1s-.4478 1-1 1h-1.5v1.5c0 .5523-.4478 1-1 1s-1-.4477-1-1v-1.5h-1.5c-.5523 0-1-.4477-1-1"/></svg>