<svg width="24" height="24" viewBox="0 0 24 24" fill="none" xmlns="http://www.w3.org/2000/svg">
<path d="M11 11.0046C10.4477 11.0046 10 11.4524 10 12.0046C10 12.5569 10.4477 13.0046 11 13.0046H17C17.5523 13.0046 18 12.5569 18 12.0046C18 11.4524 17.5523 11.0046 17 11.0046H11Z" fill="black"/>
<path d="M11 15.0046C10.4477 15.0046 10 15.4524 10 16.0046C10 16.5569 10.4477 17.0046 11 17.0046H14C14.5523 17.0046 15 16.5569 15 16.0046C15 15.4524 14.5523 15.0046 14 15.0046H11Z" fill="black"/>
<path fill-rule="evenodd" clip-rule="evenodd" d="M6 4.00464C6 2.34778 7.34315 1.00464 9 1.00464H14.8265C15.2262 1.00464 15.6093 1.16416 15.891 1.44781L21.5645 7.16242C21.8434 7.44341 22 7.8233 22 8.21925V18.0046C22 19.6615 20.6569 21.0046 19 21.0046H9C7.34315 21.0046 6 19.6615 6 18.0046V4.00464ZM9 3.00464C8.44772 3.00464 8 3.45235 8 4.00464V18.0046C8 18.5569 8.44772 19.0046 9 19.0046H19C19.5523 19.0046 20 18.5569 20 18.0046V8.98953H17.0093C15.3524 8.98953 14.0093 7.64638 14.0093 5.98952L14.0093 3.00464H9ZM16.0093 4.40569L18.5746 6.98953H17.0093C16.457 6.98953 16.0093 6.54181 16.0093 5.98953L16.0093 4.40569Z" fill="black"/>
<path d="M5 13.0046C5 12.4524 4.55228 12.0046 4 12.0046C3.44772 12.0046 3 12.4524 3 13.0046V19.0046C3 21.7661 5.23858 24.0046 8 24.0046H12C12.5523 24.0046 13 23.5569 13 23.0046C13 22.4524 12.5523 22.0046 12 22.0046H8C6.34315 22.0046 5 20.6615 5 19.0046V13.0046Z" fill="black"/>
</svg>
