<svg width="24" height="24" viewBox="0 0 24 24" fill="none" xmlns="http://www.w3.org/2000/svg">
<path d="M9.41516 13.8007C8.86288 13.8007 8.41516 14.2484 8.41516 14.8007C8.41516 15.353 8.86288 15.8007 9.41516 15.8007H10.9152V17.3007C10.9152 17.853 11.3629 18.3007 11.9152 18.3007C12.4674 18.3007 12.9152 17.853 12.9152 17.3007V15.8007H14.4152C14.9674 15.8007 15.4152 15.353 15.4152 14.8007C15.4152 14.2484 14.9674 13.8007 14.4152 13.8007H12.9152V12.3007C12.9152 11.7484 12.4674 11.3007 11.9152 11.3007C11.3629 11.3007 10.9152 11.7484 10.9152 12.3007V13.8007H9.41516Z" fill="black"/>
<path fill-rule="evenodd" clip-rule="evenodd" d="M7 2C5.34315 2 4 3.34315 4 5V19C4 20.6569 5.34315 22 7 22H17C18.6569 22 20 20.6569 20 19V9.21461C20 8.81866 19.8434 8.43877 19.5645 8.15778L13.891 2.44317C13.6093 2.15952 13.2262 2 12.8265 2H7ZM6 5C6 4.44772 6.44772 4 7 4H12.0093L12.0093 6.98485C12.0093 8.64171 13.3524 9.98486 15.0093 9.98486H18V19C18 19.5523 17.5523 20 17 20H7C6.44772 20 6 19.5523 6 19V5ZM16.5745 7.98486L14.0093 5.40105L14.0093 6.98486C14.0093 7.53714 14.457 7.98486 15.0093 7.98486H16.5745Z" fill="black"/>
</svg>
