<svg width="24" height="24" viewBox="0 0 24 24" fill="none" xmlns="http://www.w3.org/2000/svg">
<path d="M9.50022 12.0046C10.3286 12.0046 11.0002 11.3331 11.0002 10.5046C11.0002 9.67621 10.3286 9.00464 9.50022 9.00464C8.67179 9.00464 8.00022 9.67621 8.00022 10.5046C8.00022 11.3331 8.67179 12.0046 9.50022 12.0046Z" fill="black"/>
<path fill-rule="evenodd" clip-rule="evenodd" d="M20.0002 9.21925V16.4924C20.0003 16.5011 20.0003 16.5099 20.0002 16.5186V19.0046C20.0002 20.6615 18.6571 22.0046 17.0002 22.0046H7.00022C5.34336 22.0046 4.00022 20.6615 4.00022 19.0046V14.5248C3.99993 14.5108 3.99993 14.4969 4.00022 14.483V5.00464C4.00022 3.34778 5.34336 2.00464 7.00022 2.00464H12.8267C13.2264 2.00464 13.6096 2.16416 13.8912 2.44781L19.5647 8.16242C19.8437 8.44341 20.0002 8.8233 20.0002 9.21925ZM6.00022 5.00464C6.00022 4.45235 6.44793 4.00464 7.00022 4.00464H12.0095L12.0095 6.98952C12.0095 8.64638 13.3526 9.98953 15.0095 9.98953H18.0002V14.584L15.1471 12.5868C14.4585 12.1048 13.5419 12.1048 12.8533 12.5868L8.9147 15.3438L6.00022 13.8866V5.00464ZM14.0002 14.2253L18.0002 17.0253V19.0046C18.0002 19.5569 17.5525 20.0046 17.0002 20.0046H7.00022C6.44793 20.0046 6.00022 19.5569 6.00022 19.0046V16.1227L8.02027 17.1327C8.67677 17.4609 9.46032 17.4032 10.0616 16.9823L14.0002 14.2253ZM16.5748 7.98953L14.0095 5.40569L14.0095 6.98953C14.0095 7.54181 14.4572 7.98953 15.0095 7.98953H16.5748Z" fill="black"/>
</svg>
