<svg xmlns="http://www.w3.org/2000/svg" width="24" height="24" fill="none" viewBox="0 0 24 24"><path fill="#000" fill-rule="evenodd" d="M2 18c0 2.2091 1.7909 4 4 4h8v-2h-4V10h12V6c0-2.2091-1.7909-4-4-4H6C3.7909 2 2 3.7909 2 6zM6 4h12c1.1046 0 2 .8954 2 2v2H4V6c0-1.1046.8954-2 2-2M4 18v-8h4v10H6c-1.1046 0-2-.8954-2-2m8.2779-5.8868C12.6575 11.4504 13.385 11 14.2434 11h6.5132c.8584 0 1.5859.4504 1.9655 1.1132.38.6637.3975 1.5299-.1188 2.2471L20 18.3005V20.5c0 1.024-.7972 2.5-2.5 2.5S15 21.524 15 20.5v-2.1656l-2.6046-3.9759c-.515-.7168-.4972-1.5822-.1175-2.2453M14 13.1495c0 .0015 0 .0156.0219.0452q.0172.0232.033.0472l2.7816 4.2461a1 1 0 0 1 .1635.548V20.5c0 .0804.0407.2268.1385.3425.0769.0908.1809.1575.3615.1575s.2846-.0667.3615-.1575c.0978-.1157.1385-.2621.1385-.3425V18c0-.196.0576-.3877.1657-.5512l2.7816-4.2101a1 1 0 0 1 .0308-.044C21 13.1651 21 13.1509 21 13.1494c.0002-.005-.0006-.0199-.0135-.0424-.0242-.0422-.0905-.107-.2299-.107h-6.5132c-.1394 0-.2057.0648-.2299.107-.0129.0225-.0137.0375-.0135.0425"/></svg>