<svg xmlns="http://www.w3.org/2000/svg" width="24" height="24" fill="none" viewBox="0 0 24 24"><path fill="#000" fill-rule="evenodd" d="M3.579 6.8094C2.0214 4.6758 3.7538 2 6.2104 2h11.5791c2.4567 0 4.1891 2.6759 2.6314 4.8095l-.0021.0028L15 14.3231V19c0 .8-.2741 1.5602-.8234 2.1256C13.623 21.6955 12.855 22 12 22s-1.6229-.3045-2.1766-.8744C9.2741 20.5602 9 19.8 9 19v-4.6769zM6.2104 4C5.1208 4 4.756 5.0308 5.1953 5.6314l.004.0053 5.6117 7.7782A1 1 0 0 1 11 14v5c0 .3435.1135.5833.2579.732.1401.1442.3722.268.7421.268s.602-.1238.7421-.268c.1444-.1487.2579-.3885.2579-.732v-5a1 1 0 0 1 .189-.5851l5.6157-7.7835C19.2441 5.0308 18.8792 4 17.7895 4z"/></svg>