<svg xmlns="http://www.w3.org/2000/svg" width="24" height="24" fill="none" viewBox="0 0 24 24"><path d="M1 2h22v20H1z"/><circle cx="20" cy="4" r="3" fill="#000"/><path fill="#000" d="M15.4299 2H6.2244C3.7677 2 2.0354 4.6758 3.593 6.8094l5.421 7.5137V19c0 .8.274 1.5602.8233 2.1256.5537.5699 1.3217.8744 2.1766.8744s1.623-.3045 2.1766-.8744c.5493-.5654.8234-1.3256.8234-2.1256v-4.6769l3.9245-5.4395a4.975 4.975 0 0 1-1.862-.8374l-3.8735 5.3687a1 1 0 0 0-.189.5851v5c0 .3435-.1135.5833-.2579.732-.1401.1442-.3722.268-.7421.268s-.6019-.1238-.7421-.268c-.1444-.1487-.2579-.3885-.2579-.732v-5a1 1 0 0 0-.189-.5851L5.2131 5.6367l-.0039-.0053C4.7698 5.0308 5.1348 4 6.2244 4h8.7895c0-.711.1484-1.3876.416-2"/></svg>