<svg xmlns="http://www.w3.org/2000/svg" width="24" height="24" fill="none" viewBox="0 0 24 24"><path fill="#000" fill-rule="evenodd" d="m14.045 12.2285 4.7597-6.5971C19.2441 5.0308 18.8792 4 17.7896 4H6.2104a1.5 1.5 0 0 0-.3537.0403L4.3745 2.558C4.8923 2.2095 5.523 2 6.2105 2h11.5791c2.4567 0 4.1891 2.6759 2.6313 4.8095l-.0021.0028-4.9412 6.8488zM1.2929 4.8848l3.2228 3.2229L9 14.323V19c0 .8.274 1.5602.8234 2.1256C10.3771 21.6955 11.145 22 12 22s1.623-.3045 2.1766-.8744C14.7259 20.5602 15 19.8 15 19v-.4081l3.1151 3.1152c.3906.3905 1.0237.3905 1.4143 0s.3905-1.0237 0-1.4142L2.7071 3.4706c-.3905-.3905-1.0237-.3905-1.4142 0s-.3905 1.0237 0 1.4142M13 19v-2.4081l-2-2V19c0 .3435.1135.5833.2579.732.1402.1442.3722.268.7421.268s.602-.1238.7421-.268c.1444-.1487.2579-.3885.2579-.732"/></svg>