<svg xmlns="http://www.w3.org/2000/svg" width="24" height="24" fill="none" viewBox="0 0 24 24"><path fill="#000" d="M11.5077 2H6.2104C3.7538 2 2.0214 4.6758 3.579 6.8094L9 14.323V19c0 .8.274 1.5602.8234 2.1256C10.3771 21.6955 11.145 22 12 22s1.623-.3045 2.1766-.8744C14.7259 20.5602 15 19.8 15 19v-4.6769l2.559-3.5469a7.95 7.95 0 0 1-1.9298-.7435l-2.4402 3.3822A1 1 0 0 0 13 14v5c0 .3435-.1135.5833-.2579.732-.1401.1442-.3722.268-.7421.268s-.602-.1238-.7421-.268C11.1135 19.5833 11 19.3435 11 19v-5a1 1 0 0 0-.189-.5851L5.1992 5.6367l-.004-.0053C4.756 5.0308 5.1209 4 6.2105 4h5.2973a8.1 8.1 0 0 1-.0619-1c0-.3387.021-.6724.0619-1"/></svg>