<svg width="24" height="24" viewBox="0 0 24 24" fill="none" xmlns="http://www.w3.org/2000/svg">
<path d="M3.57928 6.80939C2.02165 4.6758 3.75402 2 6.21068 2H17.7898C20.2465 2 21.9789 4.6759 20.4211 6.8095L20.4191 6.8123C18.6075 9.32327 16.7967 11.8331 15.0002 14.3231V14.9936L15.0002 15C14.2319 15 13.531 15.2889 13.0002 15.7639V14C13.0002 13.79 13.0664 13.5852 13.1893 13.4149L18.8049 5.63136C19.2443 5.03079 18.8794 4 17.7898 4H6.21068C5.12108 4 4.75614 5.0308 5.19553 5.63137L5.19945 5.63673L10.8112 13.4149C10.9341 13.5852 11.0002 13.79 11.0002 14V19C11.0002 19.3435 11.1137 19.5833 11.2582 19.732C11.3983 19.8762 11.6303 20 12.0003 20C12.2808 20 12.482 19.9288 12.624 19.8315C13.046 20.3783 13.6526 20.7753 14.3503 20.9294C14.2959 20.9971 14.2381 21.0626 14.1768 21.1256C13.6232 21.6955 12.8552 22 12.0003 22C11.1453 22 10.3773 21.6955 9.82366 21.1256C9.27432 20.5602 9.00024 19.8 9.00024 19V14.3231L3.57928 6.80939Z" fill="black"/>
<path d="M14.0002 18C14.0002 17.4477 14.4479 17 15.0002 17H17.0002V15C17.0002 14.4477 17.4479 14 18.0002 14C18.5525 14 19.0002 14.4477 19.0002 15V17H21.0002C21.5525 17 22.0002 17.4477 22.0002 18C22.0002 18.5523 21.5525 19 21.0002 19H19.0002V21C19.0002 21.5523 18.5525 22 18.0002 22C17.4479 22 17.0002 21.5523 17.0002 21V19H15.0002C14.9657 19 14.9316 18.9983 14.898 18.9948C14.3937 18.9436 14.0002 18.5178 14.0002 18Z" fill="black"/>
</svg>
