<svg width="24" height="24" viewBox="0 0 24 24" fill="none" xmlns="http://www.w3.org/2000/svg">
<path d="M12.3682 1.06923C12.7486 1.21988 12.9815 1.59461 13 1.99891V11.9999C13 12.5522 12.5523 12.9999 12 12.9999C11.6203 12.9999 11.2904 12.7881 11.1211 12.4765C11.1041 12.4452 11.0889 12.4129 11.0752 12.3798C11.027 12.2626 11 12.1344 11 11.9999V8.73036L8.66992 10.0761V13.9218L12 15.8446L15.3301 13.9218V12.0429C15.9164 12.4902 16.6282 12.6876 17.3301 12.6581V13.9218C17.33 14.636 16.9485 15.2959 16.3301 15.6532L13 17.5761C12.3812 17.9333 11.6188 17.9333 11 17.5761L7.66992 15.6532C7.05151 15.2959 6.66999 14.636 6.66992 13.9218V10.0761C6.67034 9.36205 7.05156 8.70171 7.66992 8.34462L11 6.42079V3.73036L4.83984 7.28798C4.53094 7.4664 4.34033 7.79654 4.33984 8.15321V15.8446C4.33999 16.2015 4.53086 16.5312 4.83984 16.7099L11.5 20.5556C11.8094 20.7342 12.1906 20.7341 12.5 20.5556L19.1602 16.7099C19.4691 16.5312 19.66 16.2015 19.6602 15.8446V12.455C20.1027 12.5671 20.5531 12.5965 20.9609 12.5468C21.19 12.5188 21.4256 12.4607 21.6602 12.3798V15.8446C21.66 16.9161 21.0879 17.9064 20.1602 18.4423L13.5 22.288C12.5719 22.8237 11.4281 22.8238 10.5 22.288L3.83984 18.4423C2.91197 17.9064 2.33999 16.9161 2.33984 15.8446V8.15321C2.34033 7.08195 2.91204 6.09122 3.83984 5.55556L11.5 1.1327C11.7654 0.980786 12.0973 0.962308 12.3682 1.06923Z" fill="black"/>
<path d="M17.6846 6.30067C18.5572 6.1796 19.2235 7.06511 18.8652 7.87001L18.6436 8.36806C18.5224 8.64038 18.4392 8.92838 18.3975 9.22353L18.3311 9.69618C18.1765 10.7894 16.7027 11.0265 16.2129 10.037L15.9746 9.55556C15.7983 9.19942 15.5569 8.87936 15.2637 8.61122L14.8662 8.24794C14.0519 7.50301 14.6883 6.15315 15.7812 6.30751L16.2549 6.37489C16.5499 6.41657 16.8494 6.4168 17.1445 6.37587L17.6846 6.30067Z" fill="black"/>
<path d="M20.4521 8.3788C21.1853 8.28939 21.8396 8.70562 21.9131 9.30849C21.9863 9.9111 21.4516 10.4719 20.7188 10.5614C19.9856 10.6508 19.3313 10.2346 19.2578 9.63173C19.1844 9.02893 19.7191 8.46826 20.4521 8.3788Z" fill="black"/>
<path d="M20.6406 5.69813C21.3451 5.38533 22.1087 5.56495 22.3457 6.09852C22.5823 6.63206 22.2032 7.31784 21.499 7.63075C20.7945 7.94372 20.031 7.76498 19.7939 7.23134C19.557 6.69772 19.9362 6.01107 20.6406 5.69813Z" fill="black"/>
<path d="M18.6445 3.83583C19.1406 3.24597 19.9046 3.07249 20.3516 3.44813C20.7985 3.82386 20.7587 4.60703 20.2627 5.19716C19.7667 5.78696 19.0026 5.96043 18.5557 5.58485C18.1087 5.20914 18.1485 4.42596 18.6445 3.83583Z" fill="black"/>
<path d="M15.6113 3.77333C15.9005 3.09369 16.5886 2.73478 17.1475 2.97255C17.7062 3.21027 17.9246 3.95415 17.6357 4.63368C17.3467 5.31313 16.6594 5.67183 16.1006 5.43446C15.5418 5.19674 15.3224 4.45286 15.6113 3.77333Z" fill="black"/>
</svg>
