<svg xmlns="http://www.w3.org/2000/svg" width="24" height="24" fill="none" viewBox="0 0 24 24"><path fill="#000" fill-rule="evenodd" d="M13 1.999c-.0185-.4043-.2514-.779-.6318-.9296-.2709-.107-.6028-.0885-.8682.0634L3.8398 5.5557a3.002 3.002 0 0 0-1.5 2.5976v7.6914a3.001 3.001 0 0 0 1.5 2.5977L10.5 22.2881a3.001 3.001 0 0 0 3 0l6.6602-3.8457a3.001 3.001 0 0 0 1.5-2.5977v-3.4648c-.2346.0809-.4702.139-.6993.167-.4078.0497-.8582.0203-1.3007-.0918v3.3896a1.001 1.001 0 0 1-.5.8653L12.5 20.5557a1 1 0 0 1-1 0L4.8398 16.71a1 1 0 0 1-.5-.8653V8.1533a1.001 1.001 0 0 1 .5-.8652L11 3.7305v2.6904L7.67 8.3448a2.001 2.001 0 0 0-1 1.7314v3.8457a2 2 0 0 0 1 1.7314L11 17.5762a2 2 0 0 0 2 0l3.3301-1.9229a2 2 0 0 0 1-1.7314v-1.2637c-.7019.0295-1.4137-.1679-2-.6152v1.8789L12 15.8447l-3.33-1.9228v-3.8457L11 8.7305V12a.996.996 0 0 0 .1211.4766A1 1 0 0 0 12 13c.5523 0 1-.4477 1-1zm2.6113 1.7745c.2892-.6797.9773-1.0386 1.5362-.8008.5587.2377.7771.9816.4882 1.6611s-.9763 1.0381-1.5351.8008c-.5588-.2377-.7782-.9816-.4893-1.6611m3.0332.0625c.496-.59 1.2601-.7634 1.7071-.3878.4469.3758.4071 1.159-.0889 1.749-.496.5899-1.2601.7634-1.707.3878s-.4072-1.159.0888-1.749m1.9961 1.8623c.7045-.3129 1.4681-.1332 1.7051.4004.2366.5335-.1425 1.2193-.8467 1.5322-.7045.313-1.468.1342-1.7051-.3994-.2369-.5336.1423-1.2203.8467-1.5332m-2.956.6025c.8726-.121 1.5389.7644 1.1806 1.5693l-.2216.498a3.2 3.2 0 0 0-.2461.8555l-.0664.4727c-.1546 1.0932-1.6284 1.3303-2.1182.3408l-.2383-.4814a3.21 3.21 0 0 0-.7109-.9443l-.3975-.3633c-.8143-.745-.1779-2.0948.915-1.9405l.4737.0674c.295.0417.5945.042.8896.001zm2.7675 2.0781c.7332-.0894 1.3875.3269 1.461.9297.0732.6026-.4615 1.1634-1.1944 1.2529-.7331.0894-1.3874-.3268-1.4609-.9297-.0734-.6028.4613-1.1634 1.1943-1.2529"/></svg>