<svg width="24" height="24" viewBox="0 0 24 24" fill="none" xmlns="http://www.w3.org/2000/svg">
<path d="M21.275 8.70671C20.84 7.6925 19.9577 6.59744 19.2668 6.25128C19.7595 7.17586 20.1015 8.16879 20.2806 9.1948L20.2824 9.21106C19.1506 6.4778 17.232 5.37398 15.6642 2.97361C15.5849 2.85221 15.5057 2.73057 15.4284 2.60216C15.3843 2.52883 15.3489 2.46275 15.3181 2.40192C15.2531 2.27992 15.203 2.15098 15.1688 2.01772C15.1689 2.01157 15.1666 2.00562 15.1624 2.001C15.1582 1.99638 15.1524 1.99342 15.1461 1.99269C15.1399 1.99105 15.1334 1.99105 15.1273 1.99269C15.126 1.99269 15.1239 1.99494 15.1224 1.99544C15.1208 1.99594 15.1174 1.99819 15.1151 1.99919L15.119 1.99269C12.6046 3.41939 11.7509 6.06005 11.6735 7.38163C10.669 7.44836 9.70856 7.80695 8.91753 8.41061C8.83504 8.34289 8.74882 8.27956 8.65925 8.22088C8.43118 7.44719 8.42146 6.62837 8.6311 5.8498C7.70768 6.28326 6.88719 6.89778 6.22154 7.65445H6.21689C5.82016 7.16712 5.84806 5.5602 5.87079 5.22455C5.75342 5.27026 5.64139 5.3279 5.53656 5.3965C5.18633 5.63873 4.85893 5.91053 4.55817 6.20873C4.21545 6.54545 3.90243 6.90941 3.6224 7.29678V7.29828V7.29653C2.97889 8.18049 2.52241 9.17921 2.27931 10.235L2.26588 10.2991C2.24702 10.3845 2.1791 10.812 2.16747 10.9048C2.16747 10.9121 2.16592 10.9189 2.16515 10.9261C2.07752 11.3675 2.02323 11.8144 2.00269 12.2635V12.3135C2.00711 14.7411 2.95049 17.0788 4.6466 18.8652C6.34271 20.6517 8.66829 21.757 11.1643 21.963C13.6602 22.169 16.1452 21.4607 18.1286 19.978C20.1121 18.4953 21.4498 16.3458 21.8778 13.954C21.8946 13.8288 21.9083 13.7049 21.9233 13.5785C22.1295 11.927 21.9063 10.2518 21.274 8.70521L21.275 8.70671ZM9.73734 16.3008C9.78409 16.3226 9.828 16.3461 9.87604 16.3669L9.88301 16.3711C9.83445 16.3486 9.78589 16.3252 9.73734 16.3008ZM20.2827 9.21382V9.20456L20.2845 9.21482L20.2827 9.21382Z" fill="url(#paint0_linear_21654_2198)"/>
<path d="M21.2751 8.70653C20.8402 7.69232 19.9579 6.59726 19.267 6.2511C19.7596 7.17568 20.1016 8.16862 20.2807 9.19462V9.20388L20.2825 9.21414C21.0542 11.354 20.9426 13.7 19.971 15.762C18.8237 18.1476 16.0477 20.5927 11.7007 20.4726C7.00505 20.3437 2.8673 16.9659 2.09502 12.5431C1.95426 11.8455 2.09502 11.4919 2.1658 10.9249C2.06926 11.3653 2.01539 11.8135 2.00488 12.2635V12.3136C2.00931 14.7411 2.95269 17.0789 4.6488 18.8653C6.34491 20.6517 8.67049 21.757 11.1665 21.9631C13.6624 22.1691 16.1474 21.4608 18.1308 19.9781C20.1143 18.4953 21.452 16.3459 21.88 13.9541C21.8968 13.8289 21.9105 13.705 21.9255 13.5786C22.1317 11.9271 21.9085 10.2519 21.2762 8.70528L21.2751 8.70653Z" fill="url(#paint1_radial_21654_2198)"/>
<path d="M21.2751 8.70653C20.8402 7.69232 19.9579 6.59726 19.267 6.2511C19.7596 7.17568 20.1016 8.16862 20.2807 9.19462V9.20388L20.2825 9.21414C21.0542 11.354 20.9426 13.7 19.971 15.762C18.8237 18.1476 16.0477 20.5927 11.7007 20.4726C7.00505 20.3437 2.8673 16.9659 2.09502 12.5431C1.95426 11.8455 2.09502 11.4919 2.1658 10.9249C2.06926 11.3653 2.01539 11.8135 2.00488 12.2635V12.3136C2.00931 14.7411 2.95269 17.0789 4.6488 18.8653C6.34491 20.6517 8.67049 21.757 11.1665 21.9631C13.6624 22.1691 16.1474 21.4608 18.1308 19.9781C20.1143 18.4953 21.452 16.3459 21.88 13.9541C21.8968 13.8289 21.9105 13.705 21.9255 13.5786C22.1317 11.9271 21.9085 10.2519 21.2762 8.70528L21.2751 8.70653Z" fill="url(#paint2_radial_21654_2198)"/>
<path d="M16.4091 9.84536C16.4308 9.86012 16.451 9.87489 16.4714 9.88966C16.2199 9.45757 15.9069 9.06196 15.5415 8.7145C12.4292 5.6984 14.7261 2.17669 15.1133 1.99647L15.1172 1.99097C12.6028 3.41767 11.7491 6.05833 11.6716 7.37991C11.7884 7.37215 11.9041 7.36264 12.0234 7.36264C12.9155 7.36431 13.7912 7.59486 14.5615 8.03085C15.3319 8.46684 15.9693 9.09272 16.4091 9.84486V9.84536Z" fill="url(#paint3_radial_21654_2198)"/>
<path d="M12.0282 10.4484C12.0116 10.6897 11.1319 11.5219 10.8243 11.5219C7.97796 11.5219 7.51562 13.1907 7.51562 13.1907C7.64167 14.5958 8.65209 15.7537 9.87352 16.3645C9.92931 16.3925 9.98588 16.4178 10.0424 16.4425C10.1404 16.4846 10.2384 16.5235 10.3364 16.5592C10.7556 16.7029 11.1946 16.785 11.6389 16.8027C16.629 17.0295 17.595 11.0208 13.9942 9.27623C14.8436 9.16913 15.7038 9.37152 16.4079 9.84416C15.9681 9.09202 15.3307 8.46614 14.5603 8.03015C13.79 7.59416 12.9143 7.36361 12.0222 7.36194C11.9034 7.36194 11.7872 7.37145 11.6704 7.37921C10.6659 7.44595 9.70553 7.80454 8.91451 8.40819C9.06715 8.53334 9.23943 8.70054 9.60232 9.0472C10.2816 9.69573 12.0238 10.3675 12.0276 10.4464L12.0282 10.4484Z" fill="url(#paint4_radial_21654_2198)"/>
<path d="M12.0282 10.4484C12.0116 10.6897 11.1319 11.5219 10.8243 11.5219C7.97796 11.5219 7.51562 13.1907 7.51562 13.1907C7.64167 14.5958 8.65209 15.7537 9.87352 16.3645C9.92931 16.3925 9.98588 16.4178 10.0424 16.4425C10.1404 16.4846 10.2384 16.5235 10.3364 16.5592C10.7556 16.7029 11.1946 16.785 11.6389 16.8027C16.629 17.0295 17.595 11.0208 13.9942 9.27623C14.8436 9.16913 15.7038 9.37152 16.4079 9.84416C15.9681 9.09202 15.3307 8.46614 14.5603 8.03015C13.79 7.59416 12.9143 7.36361 12.0222 7.36194C11.9034 7.36194 11.7872 7.37145 11.6704 7.37921C10.6659 7.44595 9.70553 7.80454 8.91451 8.40819C9.06715 8.53334 9.23943 8.70054 9.60232 9.0472C10.2816 9.69573 12.0238 10.3675 12.0276 10.4464L12.0282 10.4484Z" fill="url(#paint5_radial_21654_2198)"/>
<path d="M8.44861 8.0884C8.52971 8.13846 8.59661 8.18201 8.65524 8.2213C8.42717 7.44761 8.41745 6.62879 8.62709 5.85022C7.70367 6.28369 6.88318 6.89821 6.21753 7.65488C6.26635 7.65363 7.71843 7.62835 8.44861 8.0884Z" fill="url(#paint6_radial_21654_2198)"/>
<path d="M2.09334 12.5438C2.86587 16.9666 7.00337 20.3456 11.699 20.4732C16.046 20.5924 18.8226 18.147 19.9694 15.7626C20.941 13.7007 21.0526 11.3546 20.2809 9.21479V9.20553C20.2809 9.19827 20.2793 9.19401 20.2809 9.19627L20.2827 9.21253C20.6378 11.4595 19.4585 13.6353 17.6146 15.1096L17.6089 15.1221C14.0161 17.958 10.5783 16.8326 9.88352 16.3736C9.83496 16.3511 9.78641 16.3276 9.73785 16.3033C7.6434 15.3331 6.77788 13.4849 6.96385 11.898C6.46668 11.9051 5.97804 11.7723 5.55716 11.5158C5.13627 11.2592 4.80119 10.8899 4.59252 10.4525C5.14236 10.1261 5.76929 9.94159 6.41358 9.91653C7.05786 9.89147 7.69804 10.0267 8.27311 10.3093C9.45846 10.8307 10.8072 10.8821 12.0312 10.4525C12.0273 10.3737 10.2852 9.70162 9.60586 9.05334C9.24297 8.70668 9.07069 8.53973 8.91805 8.41433C8.83555 8.34662 8.74933 8.28328 8.65976 8.2246C8.60035 8.18531 8.53346 8.14276 8.45313 8.09169C7.72295 7.63164 6.27087 7.65693 6.22283 7.65818H6.21818C5.82145 7.17084 5.84934 5.56392 5.87207 5.22827C5.75471 5.27398 5.64267 5.33162 5.53785 5.40023C5.18762 5.64245 4.86021 5.91425 4.55946 6.21245C4.21551 6.54823 3.90119 6.91135 3.61981 7.298V7.2995V7.29775C2.9763 8.18171 2.51982 9.18043 2.27672 10.2363C2.27182 10.256 1.91615 11.7628 2.09153 12.5443L2.09334 12.5438Z" fill="url(#paint7_radial_21654_2198)"/>
<path d="M15.5413 8.71422C15.9068 9.06206 16.2198 9.45809 16.4711 9.89062C16.5262 9.93092 16.5776 9.97097 16.6212 10.0098C18.8908 12.0372 17.7016 14.9031 17.613 15.1059C19.4567 13.6338 20.635 11.4565 20.2811 9.20881C19.1488 6.47304 17.2282 5.36922 15.663 2.96885C15.5837 2.84745 15.5044 2.72581 15.4271 2.5974C15.383 2.52407 15.3476 2.45799 15.3169 2.39716C15.2518 2.27516 15.2017 2.14621 15.1676 2.01295C15.1676 2.00681 15.1653 2.00085 15.1611 1.99624C15.1569 1.99162 15.1511 1.98866 15.1448 1.98792C15.1387 1.98628 15.1322 1.98628 15.126 1.98792C15.1247 1.98792 15.1226 1.99018 15.1211 1.99068C15.1195 1.99118 15.1162 1.99343 15.1138 1.99443C14.7267 2.17239 12.4302 5.69636 15.5426 8.70996L15.5413 8.71422Z" fill="url(#paint8_radial_21654_2198)"/>
<path d="M16.621 10.0107C16.5773 9.97192 16.5259 9.93188 16.4709 9.89158C16.4505 9.87681 16.4304 9.86204 16.4087 9.84728C15.7045 9.37464 14.8444 9.17225 13.995 9.27935C17.5955 11.0239 16.6295 17.0311 11.6397 16.8058C11.1954 16.7881 10.7563 16.7061 10.3371 16.5623C10.2391 16.5268 10.1412 16.4879 10.0432 16.4457C9.98662 16.4206 9.93006 16.3956 9.87427 16.3676L9.88124 16.3718C10.5771 16.8321 14.0138 17.9567 17.6066 15.1203L17.6123 15.1078C17.7019 14.9051 18.8911 12.0391 16.6205 10.0117L16.621 10.0107Z" fill="url(#paint9_radial_21654_2198)"/>
<path d="M7.51622 13.1893C7.51622 13.1893 7.97829 11.5205 10.8249 11.5205C11.1325 11.5205 12.013 10.6883 12.0287 10.447C10.8048 10.8766 9.45602 10.8252 8.27067 10.3038C7.6956 10.0212 7.05543 9.88596 6.41114 9.91103C5.76686 9.93609 5.13993 10.1206 4.59009 10.447C4.79876 10.8844 5.13383 11.2537 5.55472 11.5103C5.97561 11.7668 6.46424 11.8996 6.96142 11.8925C6.77597 13.4786 7.64123 15.3266 9.73542 16.2978C9.78217 16.3195 9.82607 16.3431 9.87412 16.3638C8.65165 15.7519 7.64226 14.5945 7.51622 13.19V13.1893Z" fill="url(#paint10_radial_21654_2198)"/>
<path d="M21.275 8.70671C20.84 7.6925 19.9577 6.59744 19.2668 6.25128C19.7595 7.17586 20.1015 8.16879 20.2806 9.1948L20.2824 9.21106C19.1506 6.4778 17.232 5.37398 15.6642 2.97361C15.5849 2.85221 15.5056 2.73057 15.4284 2.60216C15.3842 2.52883 15.3488 2.46275 15.3181 2.40192C15.2531 2.27992 15.203 2.15098 15.1688 2.01772C15.1689 2.01157 15.1666 2.00562 15.1624 2.001C15.1582 1.99638 15.1524 1.99342 15.1461 1.99269C15.1399 1.99105 15.1334 1.99105 15.1272 1.99269C15.1259 1.99269 15.1239 1.99494 15.1223 1.99544C15.1208 1.99594 15.1174 1.99819 15.1151 1.99919L15.119 1.99269C12.6045 3.41939 11.7509 6.06005 11.6734 7.38163C11.7902 7.37387 11.9059 7.36436 12.0252 7.36436C12.9173 7.36603 13.793 7.59658 14.5633 8.03257C15.3337 8.46856 15.9711 9.09444 16.4109 9.84658C15.7068 9.37394 14.8466 9.17154 13.9972 9.27865C17.5977 11.0232 16.6318 17.0304 11.6419 16.8051C11.1976 16.7874 10.7586 16.7054 10.3394 16.5616C10.2414 16.5261 10.1434 16.4872 10.0454 16.445C9.98888 16.4199 9.93231 16.3949 9.87652 16.3669L9.8835 16.3711C9.83494 16.3486 9.78638 16.3252 9.73782 16.3008C9.78457 16.3226 9.82848 16.3461 9.87652 16.3669C8.65405 15.7546 7.64467 14.5973 7.51863 13.1931C7.51863 13.1931 7.9807 11.5243 10.8273 11.5243C11.1349 11.5243 12.0154 10.6921 12.0312 10.4508C12.0273 10.372 10.2851 9.6999 9.60584 9.05162C9.24295 8.70496 9.07067 8.53801 8.91802 8.41261C8.83553 8.34489 8.7493 8.28156 8.65974 8.22288C8.43167 7.44919 8.42194 6.63037 8.63158 5.8518C7.70817 6.28527 6.88768 6.89979 6.22203 7.65646H6.21738C5.82065 7.16912 5.84855 5.5622 5.87127 5.22655C5.75391 5.27226 5.64187 5.3299 5.53705 5.39851C5.18682 5.64073 4.85941 5.91253 4.55866 6.21073C4.21594 6.54746 3.90292 6.91141 3.62289 7.29878V7.30028V7.29853C2.97938 8.18249 2.5229 9.18121 2.2798 10.237L2.26637 10.3011C2.24751 10.3865 2.16305 10.82 2.15091 10.9131C2.07366 11.3606 2.02432 11.8122 2.00317 12.2655V12.3155C2.0076 14.7431 2.95098 17.0808 4.64709 18.8672C6.3432 20.6537 8.66878 21.759 11.1647 21.965C13.6607 22.171 16.1457 21.4627 18.1291 19.98C20.1126 18.4973 21.4503 16.3478 21.8783 13.956C21.8951 13.8308 21.9088 13.7069 21.9238 13.5805C22.13 11.929 21.9068 10.2538 21.2745 8.70721L21.275 8.70671ZM20.2819 9.20506L20.2837 9.21532L20.2819 9.20506Z" fill="url(#paint11_linear_21654_2198)"/>
<defs>
<linearGradient id="paint0_linear_21654_2198" x1="19.95" y1="5.09137" x2="3.83482" y2="21.1359" gradientUnits="userSpaceOnUse">
<stop offset="0.048" stop-color="#FFF44F"/>
<stop offset="0.111" stop-color="#FFE847"/>
<stop offset="0.225" stop-color="#FFC830"/>
<stop offset="0.368" stop-color="#FF980E"/>
<stop offset="0.401" stop-color="#FF8B16"/>
<stop offset="0.462" stop-color="#FF672A"/>
<stop offset="0.534" stop-color="#FF3647"/>
<stop offset="0.705" stop-color="#E31587"/>
</linearGradient>
<radialGradient id="paint1_radial_21654_2198" cx="0" cy="0" r="1" gradientUnits="userSpaceOnUse" gradientTransform="translate(19.307 4.2437) scale(20.8696 20.2242)">
<stop offset="0.129" stop-color="#FFBD4F"/>
<stop offset="0.186" stop-color="#FFAC31"/>
<stop offset="0.247" stop-color="#FF9D17"/>
<stop offset="0.283" stop-color="#FF980E"/>
<stop offset="0.403" stop-color="#FF563B"/>
<stop offset="0.467" stop-color="#FF3750"/>
<stop offset="0.71" stop-color="#F5156C"/>
<stop offset="0.782" stop-color="#EB0878"/>
<stop offset="0.86" stop-color="#E50080"/>
</radialGradient>
<radialGradient id="paint2_radial_21654_2198" cx="0" cy="0" r="1" gradientUnits="userSpaceOnUse" gradientTransform="translate(11.5584 12.5036) scale(20.8696 20.2242)">
<stop offset="0.3" stop-color="#960E18"/>
<stop offset="0.351" stop-color="#B11927" stop-opacity="0.74"/>
<stop offset="0.435" stop-color="#DB293D" stop-opacity="0.343"/>
<stop offset="0.497" stop-color="#F5334B" stop-opacity="0.094"/>
<stop offset="0.53" stop-color="#FF3750" stop-opacity="0"/>
</radialGradient>
<radialGradient id="paint3_radial_21654_2198" cx="0" cy="0" r="1" gradientUnits="userSpaceOnUse" gradientTransform="translate(14.1414 -0.261727) scale(15.1175 14.65)">
<stop offset="0.132" stop-color="#FFF44F"/>
<stop offset="0.252" stop-color="#FFDC3E"/>
<stop offset="0.506" stop-color="#FF9D12"/>
<stop offset="0.526" stop-color="#FF980E"/>
</radialGradient>
<radialGradient id="paint4_radial_21654_2198" cx="0" cy="0" r="1" gradientUnits="userSpaceOnUse" gradientTransform="translate(9.23349 17.7596) scale(9.93629 9.62901)">
<stop offset="0.353" stop-color="#3A8EE6"/>
<stop offset="0.472" stop-color="#5C79F0"/>
<stop offset="0.669" stop-color="#9059FF"/>
<stop offset="1" stop-color="#C139E6"/>
</radialGradient>
<radialGradient id="paint5_radial_21654_2198" cx="0" cy="0" r="1" gradientUnits="userSpaceOnUse" gradientTransform="translate(12.5675 10.7673) rotate(-13.1862) scale(5.2602 5.98808)">
<stop offset="0.206" stop-color="#9059FF" stop-opacity="0"/>
<stop offset="0.278" stop-color="#8C4FF3" stop-opacity="0.064"/>
<stop offset="0.747" stop-color="#7716A8" stop-opacity="0.45"/>
<stop offset="0.975" stop-color="#6E008B" stop-opacity="0.6"/>
</radialGradient>
<radialGradient id="paint6_radial_21654_2198" cx="0" cy="0" r="1" gradientUnits="userSpaceOnUse" gradientTransform="translate(11.3001 3.4929) scale(7.14937 6.92828)">
<stop stop-color="#FFE226"/>
<stop offset="0.121" stop-color="#FFDB27"/>
<stop offset="0.295" stop-color="#FFC82A"/>
<stop offset="0.502" stop-color="#FFA930"/>
<stop offset="0.732" stop-color="#FF7E37"/>
<stop offset="0.792" stop-color="#FF7139"/>
</radialGradient>
<radialGradient id="paint7_radial_21654_2198" cx="0" cy="0" r="1" gradientUnits="userSpaceOnUse" gradientTransform="translate(16.9825 -1.01244) scale(30.5037 29.5603)">
<stop offset="0.113" stop-color="#FFF44F"/>
<stop offset="0.456" stop-color="#FF980E"/>
<stop offset="0.622" stop-color="#FF5634"/>
<stop offset="0.716" stop-color="#FF3647"/>
<stop offset="0.904" stop-color="#E31587"/>
</radialGradient>
<radialGradient id="paint8_radial_21654_2198" cx="0" cy="0" r="1" gradientUnits="userSpaceOnUse" gradientTransform="translate(14.4472 0.626547) rotate(83.7853) scale(21.67 14.6652)">
<stop stop-color="#FFF44F"/>
<stop offset="0.06" stop-color="#FFE847"/>
<stop offset="0.168" stop-color="#FFC830"/>
<stop offset="0.304" stop-color="#FF980E"/>
<stop offset="0.356" stop-color="#FF8B16"/>
<stop offset="0.455" stop-color="#FF672A"/>
<stop offset="0.57" stop-color="#FF3647"/>
<stop offset="0.737" stop-color="#E31587"/>
</radialGradient>
<radialGradient id="paint9_radial_21654_2198" cx="0" cy="0" r="1" gradientUnits="userSpaceOnUse" gradientTransform="translate(11.3003 5.99592) scale(19.0409 18.4521)">
<stop offset="0.137" stop-color="#FFF44F"/>
<stop offset="0.48" stop-color="#FF980E"/>
<stop offset="0.592" stop-color="#FF5634"/>
<stop offset="0.655" stop-color="#FF3647"/>
<stop offset="0.904" stop-color="#E31587"/>
</radialGradient>
<radialGradient id="paint10_radial_21654_2198" cx="0" cy="0" r="1" gradientUnits="userSpaceOnUse" gradientTransform="translate(16.2076 6.99689) scale(20.8411 20.1966)">
<stop offset="0.094" stop-color="#FFF44F"/>
<stop offset="0.231" stop-color="#FFE141"/>
<stop offset="0.509" stop-color="#FFAF1E"/>
<stop offset="0.626" stop-color="#FF980E"/>
</radialGradient>
<linearGradient id="paint11_linear_21654_2198" x1="19.7485" y1="5.00877" x2="6.05395" y2="19.1429" gradientUnits="userSpaceOnUse">
<stop offset="0.167" stop-color="#FFF44F" stop-opacity="0.8"/>
<stop offset="0.266" stop-color="#FFF44F" stop-opacity="0.634"/>
<stop offset="0.489" stop-color="#FFF44F" stop-opacity="0.217"/>
<stop offset="0.6" stop-color="#FFF44F" stop-opacity="0"/>
</linearGradient>
</defs>
</svg>
