<svg xmlns="http://www.w3.org/2000/svg" width="24" height="24" fill="none" viewBox="0 0 24 24"><path fill="url(#a)" d="M21.275 8.7067c-.435-1.0142-1.3173-2.1093-2.0082-2.4554a9.87 9.87 0 0 1 1.0138 2.9435l.0018.0163c-1.1318-2.7333-3.0504-3.8371-4.6182-6.2375a12 12 0 0 1-.2358-.3714 3 3 0 0 1-.1103-.2003 1.73 1.73 0 0 1-.1493-.3842.024.024 0 0 0-.0064-.0167.026.026 0 0 0-.0163-.0083.04.04 0 0 0-.0188 0c-.0013 0-.0034.0022-.0049.0027-.0016.0005-.005.0028-.0073.0038l.0039-.0065c-2.5144 1.4267-3.3681 4.0674-3.4455 5.389-1.0045.0667-1.965.4252-2.756 1.029a3 3 0 0 0-.2583-.1898 4.364 4.364 0 0 1-.0281-2.3711c-.9234.4335-1.744 1.048-2.4096 1.8046H6.217c-.3967-.4873-.3688-2.0942-.3461-2.4298a1.8 1.8 0 0 0-.3342.1719 7.23 7.23 0 0 0-.9784.8122 8.54 8.54 0 0 0-.9358 1.088v.0016-.0018c-.6435.884-1.1 1.8827-1.343 2.9385l-.0135.0641c-.0189.0854-.0868.5129-.0984.6057 0 .0073-.0016.0141-.0023.0213a9 9 0 0 0-.1625 1.3374v.05c.0044 2.4276.9478 4.7653 2.6439 6.5517s4.0217 2.8918 6.5177 3.0978 4.9809-.5023 6.9643-1.985c1.9835-1.4827 3.3212-3.6322 3.7492-6.024.0168-.1252.0305-.2491.0455-.3755.2062-1.6515-.017-3.3267-.6493-4.8733zM9.7373 16.3008c.0468.0218.0907.0453.1387.0661l.007.0042a5 5 0 0 1-.1457-.0703m10.5454-7.087v-.0092l.0018.0102z"/><path fill="url(#b)" d="M21.2751 8.7065c-.4349-1.0142-1.3172-2.1092-2.0081-2.4554a9.87 9.87 0 0 1 1.0137 2.9435v.0093l.0018.0102c.7717 2.1399.6601 4.4859-.3115 6.5479-1.1473 2.3856-3.9233 4.8307-8.2703 4.7106-4.6956-.1289-8.8334-3.5067-9.6057-7.9295-.1407-.6976 0-1.0512.0708-1.6182a7 7 0 0 0-.161 1.3386v.0501c.0045 2.4275.9479 4.7653 2.644 6.5517s4.0217 2.8917 6.5177 3.0978 4.9809-.5023 6.9643-1.985c1.9835-1.4828 3.3212-3.6322 3.7492-6.024.0168-.1252.0305-.2491.0455-.3755.2062-1.6515-.017-3.3267-.6493-4.8733z"/><path fill="url(#c)" d="M21.2751 8.7065c-.4349-1.0142-1.3172-2.1092-2.0081-2.4554a9.87 9.87 0 0 1 1.0137 2.9435v.0093l.0018.0102c.7717 2.1399.6601 4.4859-.3115 6.5479-1.1473 2.3856-3.9233 4.8307-8.2703 4.7106-4.6956-.1289-8.8334-3.5067-9.6057-7.9295-.1407-.6976 0-1.0512.0708-1.6182a7 7 0 0 0-.161 1.3386v.0501c.0045 2.4275.9479 4.7653 2.644 6.5517s4.0217 2.8917 6.5177 3.0978 4.9809-.5023 6.9643-1.985c1.9835-1.4828 3.3212-3.6322 3.7492-6.024.0168-.1252.0305-.2491.0455-.3755.2062-1.6515-.017-3.3267-.6493-4.8733z"/><path fill="url(#d)" d="M16.4091 9.8454c.0217.0147.0419.0295.0623.0443a5.3 5.3 0 0 0-.9299-1.1752c-3.1123-3.0161-.8154-6.5378-.4282-6.718l.0039-.0055c-2.5144 1.4267-3.3681 4.0673-3.4456 5.389.1168-.0078.2325-.0174.3518-.0174.8921.0017 1.7678.2323 2.5381.6682s1.4078 1.062 1.8476 1.814z"/><path fill="url(#e)" d="M12.0282 10.4484c-.0166.2413-.8963 1.0735-1.2039 1.0735-2.8463 0-3.3087 1.6688-3.3087 1.6688.126 1.4051 1.1365 2.563 2.358 3.1738.0557.028.1123.0533.1688.078q.147.0632.294.1167a4.58 4.58 0 0 0 1.3025.2435c4.9901.2268 5.9561-5.7819 2.3553-7.5265.8494-.107 1.7096.0953 2.4137.568-.4398-.7522-1.0772-1.378-1.8476-1.814s-1.646-.6666-2.5381-.6683c-.1188 0-.235.0095-.3518.0173-1.0045.0667-1.9649.4253-2.7559 1.029.1526.1251.325.2923.6878.639.6793.6485 2.4215 1.3203 2.4253 1.3992z"/><path fill="url(#f)" d="M12.0282 10.4484c-.0166.2413-.8963 1.0735-1.2039 1.0735-2.8463 0-3.3087 1.6688-3.3087 1.6688.126 1.4051 1.1365 2.563 2.358 3.1738.0557.028.1123.0533.1688.078q.147.0632.294.1167a4.58 4.58 0 0 0 1.3025.2435c4.9901.2268 5.9561-5.7819 2.3553-7.5265.8494-.107 1.7096.0953 2.4137.568-.4398-.7522-1.0772-1.378-1.8476-1.814s-1.646-.6666-2.5381-.6683c-.1188 0-.235.0095-.3518.0173-1.0045.0667-1.9649.4253-2.7559 1.029.1526.1251.325.2923.6878.639.6793.6485 2.4215 1.3203 2.4253 1.3992z"/><path fill="url(#g)" d="M8.4486 8.0884c.0811.05.148.0936.2066.1329a4.364 4.364 0 0 1-.0281-2.371c-.9234.4334-1.744 1.048-2.4096 1.8046.0488-.0013 1.501-.0265 2.2311.4335"/><path fill="url(#h)" d="M2.0933 12.5438c.7726 4.4228 4.91 7.8018 9.6057 7.9294 4.347.1192 7.1236-2.3262 8.2704-4.7106.9716-2.0619 1.0832-4.408.3115-6.5478v-.0093c0-.0072-.0016-.0115 0-.0092l.0018.0162c.3551 2.247-.8242 4.4228-2.6681 5.8971l-.0057.0125c-3.5928 2.8359-7.0306 1.7105-7.7254 1.2515a5 5 0 0 1-.1456-.0703c-2.0945-.9702-2.96-2.8184-2.774-4.4053a2.633 2.633 0 0 1-1.4067-.3822c-.421-.2566-.756-.6259-.9647-1.0633a3.86 3.86 0 0 1 1.821-.536 3.88 3.88 0 0 1 1.8596.3928c1.1854.5214 2.5341.5728 3.7581.1432-.0039-.0788-1.746-.7509-2.4253-1.3992-.363-.3466-.5352-.5136-.6879-.639a3 3 0 0 0-.2582-.1897 14 14 0 0 0-.2067-.133c-.7301-.46-2.1822-.4347-2.2303-.4334h-.0046c-.3968-.4874-.3689-2.0943-.3461-2.43a1.8 1.8 0 0 0-.3342.172 7.23 7.23 0 0 0-.9784.8122 8.54 8.54 0 0 0-.9397 1.0856v.0015-.0018c-.6435.884-1.1 1.8827-1.343 2.9386-.005.0197-.3607 1.5265-.1853 2.308z"/><path fill="url(#i)" d="M15.5413 8.7142c.3655.3479.6785.7439.9298 1.1764.0551.0403.1065.0804.1501.1192 2.2696 2.0274 1.0804 4.8933.9918 5.0961 1.8437-1.4721 3.022-3.6494 2.6681-5.897-1.1323-2.7359-3.0529-3.8397-4.6181-6.24a12 12 0 0 1-.2359-.3715 3 3 0 0 1-.1102-.2002 1.72 1.72 0 0 1-.1493-.3843.025.025 0 0 0-.0065-.0167.026.026 0 0 0-.0163-.0083.04.04 0 0 0-.0188 0c-.0013 0-.0034.0023-.0049.0028-.0016.0005-.0049.0027-.0073.0037-.3871.178-2.6836 3.702.4288 6.7156z"/><path fill="url(#j)" d="M16.621 10.0107a2.1 2.1 0 0 0-.1501-.1191c-.0204-.0148-.0405-.0296-.0622-.0443-.7042-.4727-1.5643-.675-2.4137-.568 3.6005 1.7446 2.6345 7.7518-2.3553 7.5265a4.58 4.58 0 0 1-1.3026-.2435 5.4 5.4 0 0 1-.2939-.1166c-.0566-.0251-.1131-.0501-.169-.0781l.007.0042c.6959.4603 4.1326 1.5849 7.7254-1.2515l.0057-.0125c.0896-.2027 1.2788-3.0687-.9918-5.0961z"/><path fill="url(#k)" d="M7.5162 13.1893s.462-1.6688 3.3087-1.6688c.3076 0 1.1881-.8322 1.2038-1.0735-1.2239.4296-2.5727.3782-3.758-.1432A3.88 3.88 0 0 0 6.411 9.911a3.86 3.86 0 0 0-1.821.536c.2087.4374.5437.8067.9646 1.0633a2.633 2.633 0 0 0 1.4067.3822c-.1854 1.5861.6798 3.4341 2.774 4.4053.0468.0217.0907.0453.1387.066-1.2225-.6119-2.2318-1.7693-2.3579-3.1738z"/><path fill="url(#l)" d="M21.275 8.7067c-.435-1.0142-1.3173-2.1093-2.0082-2.4554a9.87 9.87 0 0 1 1.0138 2.9435l.0018.0163c-1.1318-2.7333-3.0504-3.8371-4.6182-6.2375a12 12 0 0 1-.2358-.3714 3 3 0 0 1-.1103-.2003 1.73 1.73 0 0 1-.1493-.3842.024.024 0 0 0-.0064-.0167.026.026 0 0 0-.0163-.0083.04.04 0 0 0-.0189 0c-.0013 0-.0033.0022-.0049.0027s-.0049.0028-.0072.0038l.0039-.0065c-2.5145 1.4267-3.3681 4.0674-3.4456 5.389.1168-.0078.2325-.0173.3518-.0173.8921.0016 1.7678.2322 2.5381.6682s1.4078 1.0618 1.8476 1.814c-.7041-.4727-1.5643-.675-2.4137-.568 3.6005 1.7446 2.6346 7.7518-2.3553 7.5265a4.58 4.58 0 0 1-1.3025-.2435 5.4 5.4 0 0 1-.294-.1166c-.0565-.0251-.113-.0501-.1689-.0781l.007.0042a5 5 0 0 1-.1457-.0703c.0468.0218.0907.0453.1387.0661-1.2225-.6123-2.2318-1.7696-2.3579-3.1738 0 0 .4621-1.6688 3.3087-1.6688.3076 0 1.1881-.8322 1.2039-1.0735-.0039-.0788-1.7461-.7509-2.4254-1.3992-.3628-.3466-.5351-.5136-.6878-.639a3 3 0 0 0-.2583-.1897 4.364 4.364 0 0 1-.0281-2.3711c-.9234.4335-1.744 1.048-2.4096 1.8047h-.0046c-.3967-.4874-.3688-2.0943-.3461-2.43a1.8 1.8 0 0 0-.3342.172 7.23 7.23 0 0 0-.9784.8122 8.54 8.54 0 0 0-.9358 1.088v.0016-.0018c-.6435.884-1.1 1.8827-1.3431 2.9385l-.0134.0641c-.0189.0854-.1033.5189-.1155.612a11 11 0 0 0-.1477 1.3524v.05c.0044 2.4276.9478 4.7653 2.6439 6.5517s4.0217 2.8918 6.5176 3.0978c2.496.206 4.981-.5023 6.9644-1.985s3.3212-3.6322 3.7492-6.024c.0168-.1252.0305-.2491.0455-.3755.2062-1.6515-.017-3.3267-.6493-4.8733zm-.9931.4984.0018.0102z"/><defs><radialGradient id="b" cx="0" cy="0" r="1" gradientTransform="matrix(20.8696 0 0 20.2242 19.307 4.244)" gradientUnits="userSpaceOnUse"><stop offset="0" stop-color="#ffbd4f"/><stop offset="0" stop-color="#ffac31"/><stop offset="0" stop-color="#ff9d17"/><stop offset="0" stop-color="#ff980e"/><stop offset="0" stop-color="#ff563b"/><stop offset="0" stop-color="#ff3750"/><stop offset="1" stop-color="#f5156c"/><stop offset="1" stop-color="#eb0878"/><stop offset="1" stop-color="#e50080"/></radialGradient><radialGradient id="c" cx="0" cy="0" r="1" gradientTransform="matrix(20.8696 0 0 20.2242 11.558 12.504)" gradientUnits="userSpaceOnUse"><stop offset="0" stop-color="#960e18"/><stop offset="0" stop-color="#b11927"/><stop offset="0" stop-color="#db293d" stop-opacity="0"/><stop offset="0" stop-color="#f5334b" stop-opacity="0"/><stop offset="1" stop-color="#ff3750" stop-opacity="0"/></radialGradient><radialGradient id="d" cx="0" cy="0" r="1" gradientTransform="matrix(15.1175 0 0 14.65 14.141 -.262)" gradientUnits="userSpaceOnUse"><stop offset="0" stop-color="#fff44f"/><stop offset="0" stop-color="#ffdc3e"/><stop offset="1" stop-color="#ff9d12"/><stop offset="1" stop-color="#ff980e"/></radialGradient><radialGradient id="e" cx="0" cy="0" r="1" gradientTransform="matrix(9.93629 0 0 9.62901 9.233 17.76)" gradientUnits="userSpaceOnUse"><stop offset="0" stop-color="#3a8ee6"/><stop offset="0" stop-color="#5c79f0"/><stop offset="1" stop-color="#9059ff"/><stop offset="1" stop-color="#c139e6"/></radialGradient><radialGradient id="f" cx="0" cy="0" r="1" gradientTransform="rotate(-13.186 52.862 -48.983)scale(5.2602 5.98808)" gradientUnits="userSpaceOnUse"><stop offset="0" stop-color="#9059ff" stop-opacity="0"/><stop offset="0" stop-color="#8c4ff3" stop-opacity="0"/><stop offset="1" stop-color="#7716a8" stop-opacity="0"/><stop offset="1" stop-color="#6e008b"/></radialGradient><radialGradient id="g" cx="0" cy="0" r="1" gradientTransform="matrix(7.14937 0 0 6.92828 11.3 3.493)" gradientUnits="userSpaceOnUse"><stop stop-color="#ffe226"/><stop offset="0" stop-color="#ffdb27"/><stop offset="0" stop-color="#ffc82a"/><stop offset="1" stop-color="#ffa930"/><stop offset="1" stop-color="#ff7e37"/><stop offset="1" stop-color="#ff7139"/></radialGradient><radialGradient id="h" cx="0" cy="0" r="1" gradientTransform="matrix(30.5037 0 0 29.5603 16.983 -1.012)" gradientUnits="userSpaceOnUse"><stop offset="0" stop-color="#fff44f"/><stop offset="0" stop-color="#ff980e"/><stop offset="1" stop-color="#ff5634"/><stop offset="1" stop-color="#ff3647"/><stop offset="1" stop-color="#e31587"/></radialGradient><radialGradient id="i" cx="0" cy="0" r="1" gradientTransform="rotate(83.785 6.874 8.366)scale(21.67 14.6652)" gradientUnits="userSpaceOnUse"><stop stop-color="#fff44f"/><stop offset="0" stop-color="#ffe847"/><stop offset="0" stop-color="#ffc830"/><stop offset="0" stop-color="#ff980e"/><stop offset="0" stop-color="#ff8b16"/><stop offset="0" stop-color="#ff672a"/><stop offset="1" stop-color="#ff3647"/><stop offset="1" stop-color="#e31587"/></radialGradient><radialGradient id="j" cx="0" cy="0" r="1" gradientTransform="matrix(19.0409 0 0 18.4521 11.3 5.996)" gradientUnits="userSpaceOnUse"><stop offset="0" stop-color="#fff44f"/><stop offset="0" stop-color="#ff980e"/><stop offset="1" stop-color="#ff5634"/><stop offset="1" stop-color="#ff3647"/><stop offset="1" stop-color="#e31587"/></radialGradient><radialGradient id="k" cx="0" cy="0" r="1" gradientTransform="matrix(20.8411 0 0 20.1966 16.208 6.997)" gradientUnits="userSpaceOnUse"><stop offset="0" stop-color="#fff44f"/><stop offset="0" stop-color="#ffe141"/><stop offset="1" stop-color="#ffaf1e"/><stop offset="1" stop-color="#ff980e"/></radialGradient><linearGradient id="a" x1="20" x2="4" y1="5" y2="21" gradientUnits="userSpaceOnUse"><stop offset="0" stop-color="#fff44f"/><stop offset="0" stop-color="#ffe847"/><stop offset="0" stop-color="#ffc830"/><stop offset="0" stop-color="#ff980e"/><stop offset="0" stop-color="#ff8b16"/><stop offset="0" stop-color="#ff672a"/><stop offset="1" stop-color="#ff3647"/><stop offset="1" stop-color="#e31587"/></linearGradient><linearGradient id="l" x1="20" x2="6" y1="5" y2="19" gradientUnits="userSpaceOnUse"><stop offset="0" stop-color="#fff44f"/><stop offset="0" stop-color="#fff44f"/><stop offset="0" stop-color="#fff44f" stop-opacity="0"/><stop offset="1" stop-color="#fff44f" stop-opacity="0"/></linearGradient></defs></svg>