<svg xmlns="http://www.w3.org/2000/svg" width="24" height="24" fill="none" viewBox="0 0 24 24"><path fill="#000" fill-rule="evenodd" d="M13 2c0-.5523-.4477-1-1-1s-1 .4477-1 1v1c0 .5523.4477 1 1 1s1-.4477 1-1zM7.1467 3.9818c-.3906-.3905-.3906-1.0237 0-1.4142s1.0236-.3905 1.4142 0l.707.707c.3906.3906.3906 1.0238 0 1.4143s-1.0236.3905-1.4141 0zm8.9995.7071.7071-.7071c.3906-.3905.3906-1.0237 0-1.4142s-1.0236-.3905-1.4142 0l-.7071.707c-.3905.3906-.3905 1.0238 0 1.4143s1.0237.3905 1.4142 0M6 8c0-1.1046.8954-2 2-2h8c1.1046 0 2 .8954 2 2v3c0 .1974-.0584.3904-.1679.5547L16 14.3028V21c0 1.1046-.8954 2-2 2h-4c-1.1046 0-2-.8954-2-2v-6.6972l-1.832-2.7481A1 1 0 0 1 6 11zm10 2.6972V8H8v2.6972l1.832 2.7481A1 1 0 0 1 10 14v7h4v-7a1 1 0 0 1 .168-.5547zM13 16c0 .5523-.4477 1-1 1s-1-.4477-1-1 .4477-1 1-1 1 .4477 1 1"/></svg>