<svg xmlns="http://www.w3.org/2000/svg" width="24" height="24" fill="none" viewBox="0 0 24 24"><path fill="#000" fill-rule="evenodd" d="M9 2C7.3431 2 6 3.3431 6 5v4.1707C4.8348 9.5825 4 10.6938 4 12v7c0 1.6569 1.3431 3 3 3h10c1.6569 0 3-1.3431 3-3v-7c0-1.3062-.8348-2.4175-2-2.8293V5c0-1.6569-1.3431-3-3-3zm7 3c0-.5523-.4477-1-1-1H9c-.5523 0-1 .4477-1 1v4h8zm-5 1c0-.5523-.4477-1-1-1s-1 .4477-1 1v1c0 .5523.4477 1 1 1s1-.4477 1-1zm4 0c0-.5523-.4477-1-1-1s-1 .4477-1 1v1c0 .5523.4477 1 1 1s1-.4477 1-1zm-8 5c-.5523 0-1 .4477-1 1v7c0 .5523.4477 1 1 1h10c.5523 0 1-.4477 1-1v-7c0-.5523-.4477-1-1-1z"/></svg>