<svg width="24" height="24" viewBox="0 0 24 24" fill="none" xmlns="http://www.w3.org/2000/svg">
<path d="M11 6C11 5.44772 10.5523 5 10 5C9.44772 5 9 5.44772 9 6V7C9 7.55228 9.44772 8 10 8C10.5523 8 11 7.55228 11 7V6Z" fill="black"/>
<path d="M15 6C15 5.44772 14.5523 5 14 5C13.4477 5 13 5.44772 13 6V7C13 7.55228 13.4477 8 14 8C14.5523 8 15 7.55228 15 7V6Z" fill="black"/>
<path fill-rule="evenodd" clip-rule="evenodd" d="M6 5C6 3.34315 7.34315 2 9 2H15C16.6569 2 18 3.34315 18 5V9.17071C19.1652 9.58254 20 10.6938 20 12V19C20 20.6569 18.6569 22 17 22H7C5.34315 22 4 20.6569 4 19V12C4 10.6938 4.83481 9.58254 6 9.17071V5ZM15 4C15.5523 4 16 4.44772 16 5V9H8V5C8 4.44772 8.44772 4 9 4H15ZM6 12C6 11.4477 6.44772 11 7 11H17C17.5523 11 18 11.4477 18 12V19C18 19.5523 17.5523 20 17 20H7C6.44772 20 6 19.5523 6 19V12Z" fill="black"/>
</svg>
