<svg xmlns="http://www.w3.org/2000/svg" width="24" height="24" fill="none" viewBox="0 0 24 24"><path fill="#000" fill-rule="evenodd" d="M19.513 14.9152q.5292-1.3016.5292-3.1004V6.6444a1 1 0 0 0-.0364-.2698 1 1 0 0 0-.109-.2494.983.983 0 0 0-.3939-.3683l-6.5604-3.4053q-.4607-.2392-.9214-.2392t-.9214.2392L4.5393 5.7569a1 1 0 0 0-.2227.1566 1 1 0 0 0-.1712.2117 1 1 0 0 0-.109.2494A1 1 0 0 0 4 6.6444V7h2.4856l5.5355-2.8733 6.0211 3.1254v4.5627q0 1.4079-.3819 2.3472-.6695 1.6468-1.7635 2.9323h-.0001q-.8472.9955-1.9489 1.7743-1.0781.762-1.9456 1.0832-.693-.231-1.5226-.7547a3.2 3.2 0 0 1-.3583.4242l-1.0468 1.0468q1.4535.9776 2.6954 1.2998a1 1 0 0 0 .5397-.0104q1.2779-.3851 2.7926-1.4557 1.3404-.9475 2.3631-2.1624v-.0001q1.2681-1.5065 2.0477-3.4241M5.6323 11.5H3c-.56 0-1-.44-1-1s.44-1 1-1h2.6323c-.2251-.3835-.1716-.875.1606-1.2071.396-.396 1.0182-.396 1.4142 0l1.5 1.5q.1464.1464.2197.3232Q9 10.2928 9 10.5q0 .2071-.0732.3839t-.2197.3232l-1.5 1.5c-.396.396-1.0182.396-1.4142 0-.3322-.3322-.3857-.8236-.1606-1.2071m6 3.5H9c-.56 0-1-.44-1-1s.44-1 1-1h2.6323c-.2251-.3835-.1716-.8749.1606-1.2071.396-.396 1.0182-.396 1.4142 0l1.5 1.5q.1465.1464.2197.3232T15 14t-.0732.3839-.2197.3232l-1.5 1.5c-.396.396-1.0182.396-1.4142 0-.3322-.3322-.3857-.8236-.1606-1.2071M3 18.5h2.6323c-.2251.3835-.1716.8749.1606 1.2071.396.396 1.0182.396 1.4142 0l1.5-1.5q.1464-.1464.2197-.3232Q9 17.7071 9 17.5q0-.4143-.2929-.7071l-1.5-1.5c-.396-.396-1.0182-.396-1.4142 0-.3322.3322-.3857.8236-.1606 1.2071H3c-.56 0-1 .44-1 1s.44 1 1 1"/></svg>