<svg xmlns="http://www.w3.org/2000/svg" width="24" height="24" fill="none" viewBox="0 0 24 24"><path fill="#000" fill-rule="evenodd" d="M13 2c0-.5523-.4477-1-1-1s-1 .4477-1 1v5c0 .5523.4477 1 1 1s1-.4477 1-1zM8 3c.5523 0 1 .4477 1 1v3c0 .5523-.4477 1-1 1s-1-.4477-1-1V4c0-.5523.4477-1 1-1m8 0c.5523 0 1 .4477 1 1v3c0 .5523-.4477 1-1 1s-1-.4477-1-1V4c0-.5523.4477-1 1-1M5 9c-1.6569 0-3 1.3431-3 3v8c0 1.6569 1.3431 3 3 3h14c1.6569 0 3-1.3431 3-3v-8c0-1.6569-1.3431-3-3-3zm6.3694 6.6992L5.5858 11h12.8284l-5.7836 4.6992a1 1 0 0 1-1.2612 0m2.5224 1.5522L20 12.2885V20c0 .5523-.4477 1-1 1H5c-.5523 0-1-.4477-1-1v-7.7115l6.1082 4.9629c1.1022.8955 2.6814.8955 3.7836 0"/></svg>