<svg xmlns="http://www.w3.org/2000/svg" width="24" height="24" fill="none" viewBox="0 0 24 24"><path fill="#000" fill-rule="evenodd" d="M17.4225 1c-.7732 0-1.4.6268-1.4 1.4v3.2c0 .7732.6268 1.4 1.4 1.4H20.6c.7732 0 1.4-.6268 1.4-1.4V2.4c0-.7732-.6268-1.4-1.4-1.4zM9.2929 2.2929c-.3905.3905-.3905 1.0237 0 1.4142L11.5858 6H8.9696C5.1156 6 2 9.1388 2 13s3.1156 7 6.9696 7h3.5166c.5523 0 1-.4477 1-1s-.4477-1-1-1H8.9696C6.2297 18 4 15.7662 4 13s2.2297-5 4.9696-5h2.6162l-2.2929 2.2929c-.3905.3905-.3905 1.0237 0 1.4142s1.0237.3905 1.4142 0l4-4c.3905-.3905.3905-1.0237 0-1.4142l-4-4c-.3905-.3905-1.0237-.3905-1.4142 0M18.0225 5V3H20v2zm-2 5.4c0-.7732.6268-1.4 1.4-1.4H20.6c.7732 0 1.4.6268 1.4 1.4v3.2c0 .7732-.6268 1.4-1.4 1.4h-3.1775c-.7732 0-1.4-.6268-1.4-1.4zm2 .6v2H20v-2zm-.6 6c-.7732 0-1.4.6268-1.4 1.4v3.2c0 .7732.6268 1.4 1.4 1.4H20.6c.7732 0 1.4-.6268 1.4-1.4v-3.2c0-.7732-.6268-1.4-1.4-1.4zM20 21h-1.9775v-2H20z"/></svg>