<svg width="24" height="24" viewBox="0 0 24 24" fill="none" xmlns="http://www.w3.org/2000/svg">
<path d="M12 1C12.5523 1 13 1.44772 13 2V7C13 7.55228 12.5523 8 12 8C11.4477 8 11 7.55228 11 7V2C11 1.44772 11.4477 1 12 1Z" fill="black"/>
<path fill-rule="evenodd" clip-rule="evenodd" d="M2 12C2 10.3431 3.34315 9 5 9H19C20.6569 9 22 10.3431 22 12V20C22 21.6569 20.6569 23 19 23H5C3.34315 23 2 21.6569 2 20V12ZM5.58581 11L11.3694 15.6992C11.7368 15.9977 12.2632 15.9977 12.6306 15.6992L18.4142 11H5.58581ZM20 12.2885L13.8918 17.2514C12.7896 18.1469 11.2104 18.1469 10.1082 17.2514L4 12.2885V20C4 20.5523 4.44772 21 5 21H19C19.5523 21 20 20.5523 20 20V12.2885Z" fill="black"/>
<path d="M17 4C17 3.44772 16.5523 3 16 3C15.4477 3 15 3.44772 15 4V7C15 7.55228 15.4477 8 16 8C16.5523 8 17 7.55228 17 7V4Z" fill="black"/>
<path d="M8 3C8.55228 3 9 3.44772 9 4V7C9 7.55228 8.55228 8 8 8C7.44772 8 7 7.55228 7 7V4C7 3.44772 7.44772 3 8 3Z" fill="black"/>
</svg>
