<svg xmlns="http://www.w3.org/2000/svg" width="24" height="24" fill="none" viewBox="0 0 24 24"><path fill="#000" fill-rule="evenodd" d="M2 6.0541C2 4.3921 3.3192 3 5.0012 3h4.0677c.8612 0 1.6827.3476 2.2887.9593l1.077 1.087h6.5642C20.6808 5.0463 22 6.4384 22 8.1004v9.8455C22 19.6078 20.6808 21 18.9988 21H5.0012C3.3192 21 2 19.6078 2 17.9459zM5.0012 5C4.4727 5 4 5.4472 4 6.0541V17.946C4 18.5528 4.4727 19 5.0012 19h13.9976C19.5273 19 20 18.5528 20 17.9459V8.1004c0-.607-.4727-1.0541-1.0012-1.0541h-6.9811a1 1 0 0 1-.7104-.2962L9.9369 5.3669C9.7009 5.1287 9.3886 5 9.0689 5zm6.2917 12.0716-2.5-2.5c-.3905-.3905-.3905-1.0237 0-1.4142s1.0237-.3905 1.4142 0l.7929.7929V9.8127c0-.5523.4477-1 1-1s1 .4477 1 1v4.1376l.7929-.7929c.3905-.3905 1.0237-.3905 1.4142 0s.3905 1.0237 0 1.4142l-2.5 2.5c-.3905.3905-1.0237.3905-1.4142 0"/></svg>