<svg xmlns="http://www.w3.org/2000/svg" width="24" height="24" fill="none" viewBox="0 0 24 24"><path fill="#000" fill-rule="evenodd" d="M5.0012 4C4.4727 4 4 4.4472 4 5.0541V16.946C4 17.5528 4.4727 18 5.0012 18H12v1c0 .3425.0344.6769.1 1H5.0012C3.3192 20 2 18.6078 2 16.9459V5.0541C2 3.3921 3.3192 2 5.0012 2h4.0677c.8612 0 1.6827.3476 2.2887.9593l1.077 1.087h6.5642C20.6808 4.0463 22 5.4384 22 7.1004v1.8992A4.98 4.98 0 0 0 20 8.1v-.9996c0-.607-.4727-1.0541-1.0012-1.0541h-6.9811a1 1 0 0 1-.7104-.2962L9.9369 4.3669C9.7009 4.1287 9.3886 4 9.0689 4zM16 13c0-1.6569 1.3431-3 3-3s3 1.3431 3 3v1.1707c1.1652.4118 2 1.5231 2 2.8293v2c0 1.6569-1.3431 3-3 3h-4c-1.6569 0-3-1.3431-3-3v-2c0-1.3062.8348-2.4175 2-2.8293zm4 0v1h-2v-1c0-.5523.4477-1 1-1s1 .4477 1 1m-4 4c0-.5523.4477-1 1-1h4c.5523 0 1 .4477 1 1v2c0 .5523-.4477 1-1 1h-4c-.5523 0-1-.4477-1-1z"/></svg>