<svg xmlns="http://www.w3.org/2000/svg" width="24" height="24" fill="none" viewBox="0 0 24 24"><path fill="#000" fill-rule="evenodd" d="M4.0352 2.55h8.262q3.024 0 4.644 1.35 1.647 1.35 1.647 3.591 0 2.43-1.998 3.402v.5401q1.62.459 2.484 1.593.891 1.134.891 2.8349 0 1.5391-.702 2.8081t-2.187 2.025q-1.458.756-3.699.756h-9.342zm8.154 7.344q1.08 0 1.647-.459.567-.486.567-1.35t-.567-1.296q-.567-.459-1.647-.459h-3.996v3.564zm1.134 7.7761q1.08 0 1.755-.486.675-.513.675-1.5121t-.675-1.485q-.675-.513-1.755-.5129h-5.13v3.996z"/></svg>