<svg xmlns="http://www.w3.org/2000/svg" width="24" height="24" fill="none" viewBox="0 0 24 24"><path fill="#000" fill-rule="evenodd" d="M22 12c0-5.5228-4.4772-10-10-10S2 6.4772 2 12s4.4772 10 10 10 10-4.4772 10-10M4 12c0-4.4183 3.5817-8 8-8s8 3.5817 8 8-3.5817 8-8 8-8-3.5817-8-8m3.7363-3.707c.3906-.3904 1.0236-.3905 1.4141 0l3 3a1 1 0 0 1 .293.707c0 .2652-.1056.5195-.293.707l-3 3c-.3905.3905-1.0235.3904-1.414 0a.9996.9996 0 0 1 0-1.414L10.0292 12l-2.293-2.293c-.3905-.3905-.3905-1.0235 0-1.414m5 0c.3906-.3904 1.0236-.3905 1.4141 0l3 3a1 1 0 0 1 .293.707c0 .2652-.1056.5195-.293.707l-3 3c-.3905.3905-1.0235.3904-1.4141 0s-.3905-1.0235 0-1.414L15.0293 12l-2.293-2.293c-.3905-.3905-.3905-1.0235 0-1.414"/></svg>