<svg width="24" height="24" viewBox="0 0 24 24" fill="none" xmlns="http://www.w3.org/2000/svg">
<path d="M3 6.8501C3 5.19324 4.34315 3.8501 6 3.8501H18C19.6569 3.8501 21 5.19324 21 6.8501V9.24251C20.4905 8.39701 19.8074 7.66797 19 7.10479V6.8501C19 6.29781 18.5523 5.8501 18 5.8501H6C5.44772 5.8501 5 6.29781 5 6.8501V14.8501C5 15.4024 5.44772 15.8501 6 15.8501H8.67363C9.19873 16.9555 10.005 17.9014 11 18.5954V19.8501C12.6667 19.8501 14.3333 19.8501 16 19.8501C16.5523 19.8501 17 20.2978 17 20.8501C17 21.4024 16.5523 21.8501 16 21.8501H8C7.44772 21.8501 7 21.4024 7 20.8501C7 20.2978 7.44772 19.8501 8 19.8501H9V17.8501H6C4.34315 17.8501 3 16.507 3 14.8501V6.8501Z" fill="black"/>
<path fill-rule="evenodd" clip-rule="evenodd" d="M10 12.8501C10 10.0887 12.2386 7.8501 15 7.8501C17.7614 7.8501 20 10.0887 20 12.8501C20 13.8692 19.6951 14.8171 19.1716 15.6075L21.7071 18.143C22.0976 18.5335 22.0976 19.1667 21.7071 19.5572C21.3166 19.9477 20.6834 19.9477 20.2929 19.5572L17.7574 17.0217C16.967 17.5452 16.0191 17.8501 15 17.8501C12.2386 17.8501 10 15.6115 10 12.8501ZM15 9.8501C13.3431 9.8501 12 11.1932 12 12.8501C12 14.507 13.3431 15.8501 15 15.8501C16.6569 15.8501 18 14.507 18 12.8501C18 11.1932 16.6569 9.8501 15 9.8501Z" fill="black"/>
</svg>
