<svg xmlns="http://www.w3.org/2000/svg" width="24" height="24" fill="none" viewBox="0 0 24 24"><path fill="#000" fill-rule="evenodd" d="M6 3C4.3431 3 3 4.3431 3 6v8c0 1.6569 1.3431 3 3 3h3v2H8c-.5523 0-1 .4477-1 1s.4477 1 1 1h8c.5523 0 1-.4477 1-1s-.4477-1-1-1h-5v-1.2547A7.03 7.03 0 0 1 8.6736 15H6c-.5523 0-1-.4477-1-1V6c0-.5523.4477-1 1-1h12c.5523 0 1 .4477 1 1v.2547a7.04 7.04 0 0 1 2 2.1377V6c0-1.6569-1.3431-3-3-3zm9 4c-2.7614 0-5 2.2386-5 5s2.2386 5 5 5c1.0191 0 1.967-.3049 2.7574-.8284l2.5355 2.5355c.3905.3905 1.0237.3905 1.4142 0s.3905-1.0237 0-1.4142l-2.5355-2.5355C19.6951 13.967 20 13.0191 20 12c0-2.7614-2.2386-5-5-5m-3 5c0-1.6569 1.3431-3 3-3s3 1.3431 3 3-1.3431 3-3 3-3-1.3431-3-3"/></svg>