<svg xmlns="http://www.w3.org/2000/svg" width="24" height="24" fill="none" viewBox="0 0 24 24"><path fill="#000" fill-rule="evenodd" d="M6.7977 4C4.1507 4 2 6.1405 2 8.787v6.745C2 18.0023 4.0074 20 6.4778 20c1.8135 0 3.3746-1.0759 4.0783-2.6212.0398-.0873.0928-.1489.1347-.1812.0196-.0152.0317-.0205.0369-.0221h2.5446c.0052.0016.0173.0069.0369.0221.0419.0323.0949.0939.1347.1812C14.1476 18.9241 15.7087 20 17.5222 20 19.9926 20 22 18.0023 22 15.532V8.787C22 6.1405 19.8493 4 17.2023 4zM4 8.787C4 7.2504 5.25 6 6.7977 6h10.4046C18.7501 6 20 7.2504 20 8.787v6.745C20 16.8924 18.8933 18 17.5222 18a2.479 2.479 0 0 1-2.2582-1.4501c-.3021-.6633-.9903-1.3744-1.9893-1.3744h-2.5494c-.999 0-1.6872.7111-1.9893 1.3744A2.479 2.479 0 0 1 6.4778 18C5.1067 18 4 16.8924 4 15.532zm13.1549 1.2762c.5834 0 1.0563-.4729 1.0563-1.0563s-.4729-1.0562-1.0563-1.0562-1.0563.4729-1.0563 1.0562.4729 1.0563 1.0563 1.0563m-9.1593-1.698c.5523 0 1 .4476 1 1v.6413h.6411c.5523 0 1 .4477 1 1s-.4477 1-1 1h-.6411v.6415c0 .5523-.4477 1-1 1s-1-.4477-1-1v-.6415h-.6418c-.5523 0-1-.4477-1-1s.4477-1 1-1h.6418v-.6414c0-.5523.4477-1 1-1m8.103 3.7944c0 .5834-.4729 1.0563-1.0563 1.0563s-1.0562-.4729-1.0562-1.0563.4729-1.0563 1.0562-1.0563 1.0563.4729 1.0563 1.0563"/></svg>