<svg xmlns="http://www.w3.org/2000/svg" width="24" height="24" fill="none" viewBox="0 0 24 24"><path fill="#000" fill-rule="evenodd" d="M6 7.5C6 5.0147 8.0147 3 10.5 3S15 5.0147 15 7.5v3.5001L18.5858 11l-1.2929-1.2929c-.3905-.3905-.3905-1.0237 0-1.4142s1.0237-.3905 1.4142 0l3 3c.3905.3905.3905 1.0237 0 1.4142l-3 3c-.3905.3905-1.0237.3905-1.4142 0s-.3905-1.0237 0-1.4142L18.5858 13 15 13.0001V16.5c0 2.4853-2.0147 4.5-4.5 4.5S6 18.9853 6 16.5v-.4221c0-.5523.4477-1 1-1s1 .4477 1 1V16.5c0 1.3807 1.1193 2.5 2.5 2.5s2.5-1.1193 2.5-2.5v-9C13 6.1193 11.8807 5 10.5 5S8 6.1193 8 7.5v.2922c0 .5523-.4477 1-1 1s-1-.4477-1-1zM2 12c0-.5523.4477-1 1-1l7-.0001c.5523 0 1 .4477 1 1s-.4477 1-1 1L3 13c-.5523 0-1-.4477-1-1"/></svg>