<svg xmlns="http://www.w3.org/2000/svg" width="24" height="24" fill="none" viewBox="0 0 24 24"><path fill="#000" fill-rule="evenodd" d="M9.3865 2.8706a1 1 0 0 1 .9907-.8643h3.2444a1 1 0 0 1 .9907.8638l.2945 2.1416c.3313.138.6505.2987.9558.4803.4744.282.6305.8951.3489 1.3697l-1.815 3.059a1 1 0 0 1-1.3712.3492 1.996 1.996 0 0 0-1.0256-.2806c-1.1103 0-2.0105.9001-2.0105 2.0105s.9002 2.0104 2.0105 2.0104 2.0104-.9 2.0105-2.0103c0-.5523.4477-1 1-1h3.5563a1 1 0 0 1 1 1.0001 7.6 7.6 0 0 1-.0625.9761l1.7084 1.3265c.3946.3065.5025.8572.2527 1.2899l-1.6222 2.8097a1 1 0 0 1-1.2438.4259l-2.003-.8172a7.56 7.56 0 0 1-1.6892.9767l-.2946 2.1422a1 1 0 0 1-.9907.8637h-3.2444a1 1 0 0 1-.9907-.8642l-.2935-2.1416a7.56 7.56 0 0 1-1.6896-.9768l-2.0024.817a1 1 0 0 1-1.2438-.4259L2.535 15.5923a1 1 0 0 1 .2527-1.2898l1.7078-1.3262a7.6 7.6 0 0 1-.0626-.9766c0-.3301.0212-.6557.0624-.9753L2.7865 9.6987a1 1 0 0 1-.253-1.2901l1.6221-2.8098a1 1 0 0 1 1.2434-.426l2.0035.8163a7.56 7.56 0 0 1 1.6906-.9775zm1.863 1.1358-.3422 2.4968-.6012.1917a5.56 5.56 0 0 0-2.0519 1.1864l-.4664.4245-2.336-.9519-.7502 1.2992 1.9912 1.5448-.1335.6158a5.6 5.6 0 0 0-.1264 1.186c0 .4083.0438.8053.1266 1.1868l.1336.6156-1.99 1.5453.75 1.2992 2.335-.9527.4666.4246a5.56 5.56 0 0 0 2.0514 1.1859l.6011.1918.3423 2.4973h1.5002l.3435-2.4976.6008-.1917a5.56 5.56 0 0 0 2.0508-1.1858l.4666-.4245 2.3356.9529.7501-1.2993-1.9906-1.5457.1335-.6155a5 5 0 0 0 .0371-.1864h-1.5926c-.4444 1.731-2.0152 3.0104-3.8848 3.0104-2.215 0-4.0105-1.7956-4.0105-4.0105s1.7956-4.0105 4.0105-4.0105a4 4 0 0 1 1.1226.1595l.8131-1.3704a5.5 5.5 0 0 0-.2415-.0833l-.6008-.1917-.3434-2.497z"/></svg>