<svg width="24" height="24" viewBox="0 0 24 24" fill="none" xmlns="http://www.w3.org/2000/svg">
<path d="M20.3588 5C21.2599 5 21.9972 5.71337 21.9972 6.58523V7.04479L19.7209 8.618L11.9713 13.783L4.22172 8.56561V19H3.63844C2.73733 19 2 18.2866 2 17.4148V6.58567C2 5.7138 2.73733 5.00042 3.63844 5.00042L11.9713 10.978L20.3588 5Z" fill="#E75A4D"/>
<path d="M3.63844 5.00042L11.9713 10.978L20.3588 5L3.63844 5.00042Z" fill="url(#paint0_linear_20816_2271)"/>
<path d="M4.22172 8.56561V19L19.7215 19L19.7209 8.618L11.9713 13.783L4.22172 8.56561Z" fill="#E7E4D7"/>
<path d="M4.22172 19L11.9713 13.783L11.9362 13.759L4.22167 18.8854L4.22172 19Z" fill="#B8B7AE"/>
<path d="M19.7209 8.618L19.7259 19L11.9713 13.783L19.7209 8.618Z" fill="#B7B6AD"/>
<path d="M21.9972 7.04479L22 17.4161C21.9609 18.5688 21.4447 18.9806 19.7259 19L19.7209 8.618L21.9972 7.04479Z" fill="#B2392F"/>
<path d="M3.63844 5.00042L11.9713 10.978L20.3588 5L3.63844 5.00042Z" fill="url(#paint1_linear_20816_2271)"/>
<path d="M3.63844 5.00042L11.9713 10.978L20.3588 5L3.63844 5.00042Z" fill="url(#paint2_linear_20816_2271)"/>
<path d="M3.63844 5.00042L11.9713 10.978L20.3588 5L3.63844 5.00042Z" fill="url(#paint3_linear_20816_2271)"/>
<path d="M3.63844 5.00042L11.9713 10.978L20.3588 5L3.63844 5.00042Z" fill="url(#paint4_linear_20816_2271)"/>
<path d="M3.63844 5.00042L11.9713 10.978L20.3588 5L3.63844 5.00042Z" fill="url(#paint5_linear_20816_2271)"/>
<path d="M3.63844 5.00042L11.9713 10.978L20.3588 5L3.63844 5.00042Z" fill="url(#paint6_linear_20816_2271)"/>
<path d="M3.63844 5.00042L11.9713 10.978L20.3588 5L3.63844 5.00042Z" fill="url(#paint7_linear_20816_2271)"/>
<path d="M3.63844 5.00042L11.9713 10.978L20.3588 5L3.63844 5.00042Z" fill="#F7F5ED"/>
<defs>
<linearGradient id="paint0_linear_20816_2271" x1="5.59843" y1="12.0012" x2="18.3773" y2="12.0012" gradientUnits="userSpaceOnUse">
<stop stop-color="#F8F6EF"/>
<stop offset="1" stop-color="#E7E4D6"/>
</linearGradient>
<linearGradient id="paint1_linear_20816_2271" x1="5.59843" y1="12.0012" x2="18.3773" y2="12.0012" gradientUnits="userSpaceOnUse">
<stop stop-color="#F8F6EF"/>
<stop offset="1" stop-color="#E7E4D6"/>
</linearGradient>
<linearGradient id="paint2_linear_20816_2271" x1="5.59843" y1="12.0012" x2="18.3773" y2="12.0012" gradientUnits="userSpaceOnUse">
<stop stop-color="#F8F6EF"/>
<stop offset="1" stop-color="#E7E4D6"/>
</linearGradient>
<linearGradient id="paint3_linear_20816_2271" x1="5.59843" y1="12.0012" x2="18.3773" y2="12.0012" gradientUnits="userSpaceOnUse">
<stop stop-color="#F8F6EF"/>
<stop offset="1" stop-color="#E7E4D6"/>
</linearGradient>
<linearGradient id="paint4_linear_20816_2271" x1="5.59843" y1="12.0012" x2="18.3773" y2="12.0012" gradientUnits="userSpaceOnUse">
<stop stop-color="#F8F6EF"/>
<stop offset="1" stop-color="#E7E4D6"/>
</linearGradient>
<linearGradient id="paint5_linear_20816_2271" x1="5.59843" y1="12.0012" x2="18.3773" y2="12.0012" gradientUnits="userSpaceOnUse">
<stop stop-color="#F8F6EF"/>
<stop offset="1" stop-color="#E7E4D6"/>
</linearGradient>
<linearGradient id="paint6_linear_20816_2271" x1="5.59843" y1="12.0012" x2="18.3773" y2="12.0012" gradientUnits="userSpaceOnUse">
<stop stop-color="#F8F6EF"/>
<stop offset="1" stop-color="#E7E4D6"/>
</linearGradient>
<linearGradient id="paint7_linear_20816_2271" x1="5.59843" y1="12.0012" x2="18.3773" y2="12.0012" gradientUnits="userSpaceOnUse">
<stop stop-color="#F8F6EF"/>
<stop offset="1" stop-color="#E7E4D6"/>
</linearGradient>
</defs>
</svg>
