<svg xmlns="http://www.w3.org/2000/svg" width="24" height="24" fill="none" viewBox="0 0 24 24"><path fill="#e75a4d" d="M20.3588 5c.9011 0 1.6384.7134 1.6384 1.5852v.4596L19.7209 8.618l-7.7496 5.165-7.7496-5.2174V19h-.5833C2.7374 19 2 18.2866 2 17.4148V6.5857c0-.8719.7373-1.5853 1.6384-1.5853l8.3329 5.9776z"/><path fill="url(#a)" d="m3.6384 5.0004 8.3329 5.9776L20.3588 5z"/><path fill="#e7e4d7" d="M4.2217 8.5656V19h15.4998l-.0006-10.382-7.7496 5.165z"/><path fill="#b8b7ae" d="m4.2217 19 7.7496-5.217-.0351-.024-7.7145 5.1264z"/><path fill="#b7b6ad" d="M19.7209 8.618 19.7259 19l-7.7546-5.217z"/><path fill="#b2392f" d="M21.9972 7.0448 22 17.416c-.0391 1.1527-.5553 1.5645-2.2741 1.5839l-.005-10.382z"/><path fill="url(#b)" d="m3.6384 5.0004 8.3329 5.9776L20.3588 5z"/><path fill="url(#c)" d="m3.6384 5.0004 8.3329 5.9776L20.3588 5z"/><path fill="url(#d)" d="m3.6384 5.0004 8.3329 5.9776L20.3588 5z"/><path fill="url(#e)" d="m3.6384 5.0004 8.3329 5.9776L20.3588 5z"/><path fill="url(#f)" d="m3.6384 5.0004 8.3329 5.9776L20.3588 5z"/><path fill="url(#g)" d="m3.6384 5.0004 8.3329 5.9776L20.3588 5z"/><path fill="url(#h)" d="m3.6384 5.0004 8.3329 5.9776L20.3588 5z"/><path fill="#f7f5ed" d="m3.6384 5.0004 8.3329 5.9776L20.3588 5z"/><defs><linearGradient id="a" x1="6" x2="18" y1="12" y2="12" gradientUnits="userSpaceOnUse"><stop stop-color="#f8f6ef"/><stop offset="1" stop-color="#e7e4d6"/></linearGradient><linearGradient id="b" x1="6" x2="18" y1="12" y2="12" gradientUnits="userSpaceOnUse"><stop stop-color="#f8f6ef"/><stop offset="1" stop-color="#e7e4d6"/></linearGradient><linearGradient id="c" x1="6" x2="18" y1="12" y2="12" gradientUnits="userSpaceOnUse"><stop stop-color="#f8f6ef"/><stop offset="1" stop-color="#e7e4d6"/></linearGradient><linearGradient id="d" x1="6" x2="18" y1="12" y2="12" gradientUnits="userSpaceOnUse"><stop stop-color="#f8f6ef"/><stop offset="1" stop-color="#e7e4d6"/></linearGradient><linearGradient id="e" x1="6" x2="18" y1="12" y2="12" gradientUnits="userSpaceOnUse"><stop stop-color="#f8f6ef"/><stop offset="1" stop-color="#e7e4d6"/></linearGradient><linearGradient id="f" x1="6" x2="18" y1="12" y2="12" gradientUnits="userSpaceOnUse"><stop stop-color="#f8f6ef"/><stop offset="1" stop-color="#e7e4d6"/></linearGradient><linearGradient id="g" x1="6" x2="18" y1="12" y2="12" gradientUnits="userSpaceOnUse"><stop stop-color="#f8f6ef"/><stop offset="1" stop-color="#e7e4d6"/></linearGradient><linearGradient id="h" x1="6" x2="18" y1="12" y2="12" gradientUnits="userSpaceOnUse"><stop stop-color="#f8f6ef"/><stop offset="1" stop-color="#e7e4d6"/></linearGradient></defs></svg>