<svg width="24" height="24" viewBox="0 0 24 24" fill="none" xmlns="http://www.w3.org/2000/svg">
<path d="M22 12.2222C22 11.4 21.9319 10.8 21.7846 10.1778H12.2041V13.8889H17.8276C17.7143 14.8111 17.102 16.2 15.7415 17.1333L15.7224 17.2575L18.7516 19.5573L18.9614 19.5778C20.8888 17.8333 22 15.2667 22 12.2222Z" fill="#4285F4"/>
<path d="M12.2043 22C14.9594 22 17.272 21.1111 18.9614 19.5778L15.7415 17.1333C14.8798 17.7222 13.7235 18.1333 12.2043 18.1333C9.50591 18.1333 7.21568 16.3889 6.39928 13.9778L6.27961 13.9877L3.12983 16.3766L3.08864 16.4888C4.76663 19.7555 8.21335 22 12.2043 22Z" fill="#34A853"/>
<path d="M6.39928 13.9778C6.18386 13.3556 6.05896 12.6889 6.05896 12C6.05896 11.3111 6.18363 10.6444 6.38771 10.0222L6.38201 9.88969L3.19276 7.46242L3.08841 7.51106C2.39683 8.86664 2 10.3889 2 12C2 13.6111 2.39706 15.1333 3.08864 16.4888L6.39928 13.9778Z" fill="#FBBC05"/>
<path d="M12.2043 5.86665C14.1204 5.86665 15.4129 6.67775 16.1499 7.35558L19.0297 4.6C17.261 2.98889 14.9594 2 12.2043 2C8.21334 2 4.7664 4.24442 3.08841 7.51106L6.38771 10.0222C7.21545 7.6111 9.50591 5.86665 12.2043 5.86665Z" fill="#EB4335"/>
</svg>
