<svg xmlns="http://www.w3.org/2000/svg" width="24" height="24" fill="none" viewBox="0 0 24 24"><path fill="#4285f4" d="M22 12.2222c0-.8222-.0681-1.4222-.2154-2.0444h-9.5805v3.7111h5.6235c-.1133.9222-.7256 2.3111-2.0861 3.2444l-.0191.1242 3.0292 2.2998.2098.0205C20.8888 17.8333 22 15.2667 22 12.2222"/><path fill="#34a853" d="M12.2043 22c2.7551 0 5.0677-.8889 6.7571-2.4222l-3.2199-2.4445c-.8617.5889-2.018 1-3.5372 1-2.6984 0-4.9886-1.7444-5.805-4.1555l-.1197.0099-3.1498 2.3889-.0412.1122C4.7666 19.7555 8.2134 22 12.2043 22"/><path fill="#fbbc05" d="M6.3993 13.9778C6.1839 13.3556 6.059 12.6889 6.059 12s.1246-1.3556.3287-1.9778l-.0057-.1325-3.1892-2.4273-.1044.0487C2.3968 8.8666 2 10.3889 2 12s.397 3.1333 1.0886 4.4888z"/><path fill="#eb4335" d="M12.2043 5.8667c1.9161 0 3.2086.811 3.9456 1.4889L19.0297 4.6C17.261 2.9889 14.9594 2 12.2043 2c-3.991 0-7.4379 2.2444-9.1159 5.511l3.2993 2.5112c.8278-2.4111 3.1182-4.1555 5.8166-4.1555"/></svg>