<svg xmlns="http://www.w3.org/2000/svg" width="24" height="24" fill="none" viewBox="0 0 24 24"><path fill="#ef4058" d="M10.4981 12.2065H8.6425c-.0189 0-.0283.0094-.0378.0283-.0474.8419-.2083 1.7406-.4355 2.4784 0 .0094 0 .0189.0094.0284.0095.0094.019.0094.0285.0094h.6343c.0189 0 .0284-.0094.0284-.0189.1798-.5676.3218-1.3054.3787-1.9297h.6059v1.9202c0 .019.0189.0379.0378.0379h.6059a.041.041 0 0 0 .0379-.0379v-2.4878c0-.0189-.0189-.0283-.0379-.0283m7.8484 0h-.6059a.041.041 0 0 0-.0379.0378v1.9202a1.48 1.48 0 0 1-.4166.0568c-.3976 0-.4923-.123-.4923-.6527v-1.3243a.0406.0406 0 0 0-.0378-.0378h-.5965a.0406.0406 0 0 0-.0378.0378v1.3905c0 .8703.2935 1.2013 1.0414 1.2013.426 0 .9088-.1135 1.1928-.2175.0095-.0095.019-.0189.019-.0284v-2.3459c.0094-.0284-.0095-.0378-.0284-.0378m-12.8376 0h-.6154q-.0285 0-.0284.0283c-.0946.3784-.2935 1.0217-.5586 1.6933l-.6153-1.6933c-.0095-.0094-.019-.0189-.0284-.0189h-.6249c-.0094 0-.0189.0095-.0284.0189q-.0141.0143 0 .0284l.9278 2.5351a8.2 8.2 0 0 1-.265.5108c-.0663.1135-.1231.227-.18.3405q-.0141.0143 0 .0284c.0095.0095.019.0189.0285.0189h.6721c.0095 0 .0285-.0094.0285-.0189.1136-.2175.2556-.5202.3881-.8324.3976-.927.71-1.7973.9467-2.5918 0-.0095 0-.019-.0094-.0284-.019-.0189-.0284-.0189-.038-.0189m2.2059 1.958c0-.0094-.0095-.0189-.019-.0189h-.0284c-.1514.0568-.426.0946-.6153.0946-.426 0-.6249-.1135-.6249-.7567 0-.5203.0663-.7568.6249-.7568.1609 0 .3029.0189.4922.0757.019 0 .0285 0 .038-.0189.0662-.1324.1514-.2933.246-.4919v-.0284c0-.0094-.0094-.0189-.0189-.0189-.2461-.0757-.5396-.123-.8047-.123-.8804 0-1.278.4162-1.278 1.3527 0 .9459.3976 1.3716 1.278 1.3716.2178 0 .6627-.0473.871-.1324.019-.0095.0284-.0284.019-.0473zm5.7655-1.958h-.6154q-.0284 0-.0284.0283c-.0946.3879-.2935 1.0217-.5585 1.6933l-.6154-1.6933c-.0095-.0094-.0189-.0189-.0284-.0189h-.6248c-.0095 0-.019.0095-.0284.0189q-.0142.0143 0 .0284l.9277 2.5351a8.2 8.2 0 0 1-.265.5108 4 4 0 0 0-.1799.35q-.0142.0142 0 .0284c.0095.0094.0189.0189.0284.0189h.6722c.0094 0 .0284-.0095.0284-.0189.1136-.2176.2556-.5203.3881-.8324.3882-.927.7101-1.7973.9467-2.5919 0-.0094 0-.0189-.0094-.0284-.019-.0283-.0284-.0283-.0379-.0283m2.2721 0H13.963a.0406.0406 0 0 0-.0378.0378v2.4878c0 .0189.0189.0378.0378.0378h.6059a.041.041 0 0 0 .0379-.0378v-1.9202h.9373c.0094 0 .0284-.0095.0284-.019.0757-.1702.142-.3499.2177-.5297v-.0284c-.0189-.0283-.0284-.0283-.0379-.0283"/><path fill="#1466ac" d="M6.2283 8.3849c-.871 0-1.2118.3784-1.2118 1.3337 0 .9743.3408 1.3527 1.2118 1.3527.8805 0 1.2213-.3784 1.2213-1.3527 0-.9648-.3408-1.3337-1.2213-1.3337m0 2.1283c-.3976 0-.5207-.104-.5207-.7851 0-.7189.1326-.7851.5207-.7851.3976 0 .5302.0662.5302.7851 0 .6811-.123.7851-.5302.7851m3.645-.104a.0203.0203 0 0 0-.019-.0189h-.0284c-.1515.0567-.426.0945-.6154.0945-.426 0-.6248-.1135-.6248-.7567 0-.5203.0662-.7567.6248-.7567.161 0 .303.0189.4923.0756.019 0 .0284 0 .0379-.0189.0662-.1324.1515-.2932.2461-.4919V8.508a.0204.0204 0 0 0-.019-.019c-.246-.0756-.5396-.123-.8046-.123-.8805 0-1.2781.4163-1.2781 1.3527 0 .946.3976 1.3716 1.278 1.3716.2178 0 .6628-.0473.8711-.1324.0189-.0095.0284-.0284.0189-.0473zM4.8271 8.4511H3.0379A.041.041 0 0 0 3 8.4889v2.4878c0 .0189.019.0379.0379.0379h.6059c.019 0 .0378-.019.0378-.0379V9.047h.9278c.0095 0 .0284-.0094.0284-.0189.0758-.1703.142-.35.2178-.5297V8.47c-.0095-.0094-.019-.0189-.0284-.0189"/><path fill="url(#a)" d="M21.177 14.4957v-.0378c0-.019 0-.0473.0095-.0663.0284-.3499.0473-.7756.0662-1.2675v-.0378c.0095-.3311.019-.6906.019-1.0595s-.0095-.7283-.019-1.0594v-.0378c-.0189-.4825-.0378-.9176-.0662-1.2676 0-.019 0-.0473-.0095-.0662V9.558c0-.0379-.0095-.0663-.0095-.104v-.038c-.0284-.3688-.0473-.5959-.0568-.6148 0-.0378-.0094-.0757-.0094-.104v-.0284c-.0095-.0662-.019-.123-.0379-.1892 0-.0095 0-.019-.0095-.0284-.1609-.7662-.587-1.608-1.1171-2.2418-.2083-.246-.426-.4635-.6533-.6338-.0189-.019-.284-.2081-.7005-.5013-.4829-.3311-1.174-.7946-1.9598-1.2487-1.4011-.823-2.6413-1.4-2.8117-1.4662-.0095 0-.0095-.0094-.0095-.0094-.3692-.1608-.8142-.2743-1.297-.3216-.0947-.0095-.1893-.019-.284-.019C12.1263 2 12.0411 2 11.9559 2h-.1325c-.6438.019-1.2402.1324-1.7136.35-.0663.0284-1.3254.6054-2.755 1.4473l-.0568.0283c-1.4674.8608-2.613 1.7122-2.6603 1.75-.3597.2649-.6816.6054-.9751 1.0405-.0663.0946-.0663.3406.2178.3406h.729c.3124 0 .388-.1892.7384-.4446.3881-.2838 1.155-.8514 2.5561-1.6838 1.013-.596 1.9597-1.0689 2.4236-1.2864.0095 0 .019-.0095.0284-.0095 0 0 .0095 0 .0095-.0095 0 0 .0095 0 .0095-.0094.0094 0 .0189-.0095.0189-.0095.0095 0 .0189-.0094.0284-.0094a2.2 2.2 0 0 1 .1894-.0852c.3218-.1419.7763-.2365 1.2591-.246h.1893c.1421 0 .2841.0095.4166.0285.2935.0378.5586.0946.7763.1892.0189.0094.0474.0189.0663.0283 0 0 .0095.0095.0379.019.2177.0945 1.3916.6526 2.6697 1.4a30.6 30.6 0 0 1 1.8935 1.2107c.4071.2838.6532.4635.6627.473.1798.1324.3597.3216.5301.5297.4261.5486.7763 1.296.8331 1.873 0 .0094.0284.2364.0569.6242 0 .0284 0 .0473.0094.0757v.0568c0 .0378.0095.0662.0095.104v.0379c0 .0189 0 .0473.0095.0662 0 .0473.0094.0946.0094.1419 0 .0283 0 .0567.0095.0851v.0189c0 .0379 0 .0662.0095.1041v.0756c.0284.4919.0473 1.0784.0473 1.6932s-.0189 1.2014-.0473 1.6933v.0756c0 .0379 0 .0662-.0095.1041v.0189c0 .0284 0 .0568-.0095.0851 0 .0473-.0094.0946-.0094.1419 0 .0284 0 .0473-.0095.0662v.0379c0 .0378-.0095.0662-.0095.104v.0568c0 .0284 0 .0567-.0094.0757-.0285.3878-.0569.6243-.0569.6243-.0568.577-.407 1.3243-.8331 1.8729-.1704.2176-.3503.3973-.5301.5297-.0095 0-.2556.1892-.6627.473-.4639.3216-1.1456.7662-1.8935 1.2108-1.2781.7567-2.4615 1.3054-2.6697 1.4l-.0379.0189c-.0189.0094-.0474.0189-.0663.0283-.2177.0852-.4828.1514-.7763.1892a3 3 0 0 1-.4166.0284h-.1893c-.4828-.0094-.9373-.0946-1.2591-.2459 0 0-.0663-.0284-.1894-.0852-.0095-.0094-.0284-.0094-.0379-.0189-.0094-.0094-.0189-.0094-.0284-.0189-.0094 0-.0094-.0095-.0189-.0095s-.0189-.0094-.0284-.0094c-.0095-.0095-.0189-.0095-.0379-.0189h-.0094c-.4829-.1892-1.3917-.6433-2.3574-1.2108-1.4106-.823-2.168-1.4-2.5561-1.6838-.3503-.2554-.426-.4446-.7385-.4446h-.729c-.284 0-.284.246-.2177.3406.2935.4351.6154.7756.9751 1.0405.0474.0378 1.2024.8892 2.6603 1.75.0758.0473.1515.0945.2367.1324 1.3538.7756 2.5183 1.3054 2.5846 1.3432.4639.2081 1.0698.3311 1.7135.35h.1326c.0852 0 .1704 0 .2556-.0095.0947 0 .1893-.0094.284-.0189.4828-.0473.9373-.1608 1.297-.3216 0 0 .0095 0 .0095-.0095.1609-.0756 1.4106-.6526 2.8023-1.4661a34.8 34.8 0 0 0 1.9597-1.2487c.4166-.2932.6816-.4824.7006-.5013.2272-.1703.4449-.3878.6532-.6338.5302-.6338.9562-1.4756 1.1171-2.2418 0-.0095 0-.0189.0095-.0284.0095-.0662.0284-.1324.0379-.1892v-.0284c.0095-.0378.0095-.0756.0095-.104 0-.0189.0284-.246.0568-.6149v-.0378c.0189-.0284.0189-.0568.0189-.0946"/><defs><linearGradient id="a" x1="12" x2="12" y1="2" y2="22" gradientUnits="userSpaceOnUse"><stop offset="0" stop-color="#1466ac"/><stop offset="1" stop-color="#ef4058"/></linearGradient></defs></svg>