<svg width="24" height="24" viewBox="0 0 24 24" fill="none" xmlns="http://www.w3.org/2000/svg">
<path fill-rule="evenodd" clip-rule="evenodd" d="M21 6.5C21 8.433 19.433 10 17.5 10C16.8972 10 16.3301 9.84763 15.8349 9.57931L9.57931 15.8349C9.84763 16.3301 10 16.8972 10 17.5C10 19.433 8.433 21 6.5 21C4.567 21 3 19.433 3 17.5C3 15.567 4.567 14 6.5 14C7.10276 14 7.66993 14.1524 8.1651 14.4207L14.4207 8.1651C14.1524 7.66993 14 7.10276 14 6.5C14 4.567 15.567 3 17.5 3C19.433 3 21 4.567 21 6.5ZM6.5 19C7.32843 19 8 18.3284 8 17.5C8 16.6716 7.32843 16 6.5 16C5.67157 16 5 16.6716 5 17.5C5 18.3284 5.67157 19 6.5 19Z" fill="black"/>
</svg>
