<svg width="24" height="24" viewBox="0 0 24 24" fill="none" xmlns="http://www.w3.org/2000/svg">
<path d="M3.5 4.8999C3.5 3.79533 4.39543 2.8999 5.5 2.8999H7.5C8.60457 2.8999 9.5 3.79533 9.5 4.8999V8.8999C9.5 10.0045 8.60457 10.8999 7.5 10.8999H5.5C4.39543 10.8999 3.5 10.0045 3.5 8.8999V4.8999Z" fill="black"/>
<path d="M21.5 14.8999C21.5 13.7953 20.6046 12.8999 19.5 12.8999H17.5C16.3954 12.8999 15.5 13.7953 15.5 14.8999V18.8999C15.5 20.0045 16.3954 20.8999 17.5 20.8999H19.5C20.6046 20.8999 21.5 20.0045 21.5 18.8999V14.8999Z" fill="black"/>
<path d="M13.5 2.8999C12.3954 2.8999 11.5 3.79533 11.5 4.8999V8.8999C11.5 10.0045 12.3954 10.8999 13.5 10.8999H19.5C20.6046 10.8999 21.5 10.0045 21.5 8.8999V4.8999C21.5 3.79533 20.6046 2.8999 19.5 2.8999H13.5Z" fill="black"/>
<path d="M13.5 14.8999C13.5 13.7953 12.6046 12.8999 11.5 12.8999H5.5C4.39543 12.8999 3.5 13.7953 3.5 14.8999V18.8999C3.5 20.0045 4.39543 20.8999 5.5 20.8999H11.5C12.6046 20.8999 13.5 20.0045 13.5 18.8999V14.8999Z" fill="black"/>
</svg>
