<svg xmlns="http://www.w3.org/2000/svg" width="24" height="24" fill="none" viewBox="0 0 24 24"><path fill="#000" fill-rule="evenodd" d="M18 19c.5523 0 1-.4477 1-1V6c0-.5523-.4477-1-1-1H6c-.5523 0-1 .4477-1 1v7.3333c0 .5523-.4477 1-1 1s-1-.4477-1-1V6c0-1.6569 1.3431-3 3-3h12c1.6569 0 3 1.3431 3 3v12c0 1.6569-1.3431 3-3 3h-7.3333c-.5523 0-1-.4477-1-1s.4477-1 1-1zm-12.7071-.2929c-.3905-.3905-.3905-1.0237 0-1.4142L12.5858 10H9.6667c-.5523 0-1-.4477-1-1s.4477-1 1-1H15c.5523 0 1 .4477 1 1v5.3333c0 .5523-.4477 1-1 1s-1-.4477-1-1v-2.9191l-7.2929 7.2929c-.3905.3905-1.0237.3905-1.4142 0"/></svg>