<svg xmlns="http://www.w3.org/2000/svg" width="24" height="24" fill="none" viewBox="0 0 24 24"><path fill="#000" fill-rule="evenodd" d="M3 3c0-1.1046.8954-2 2-2h3c1.1046 0 2 .8954 2 2v1h3c1.6569 0 3 1.3431 3 3v4h3.5858l-1.2929-1.2929c-.3905-.3905-.3905-1.0237 0-1.4142s1.0237-.3905 1.4142 0l3 3c.3905.3905.3905 1.0237 0 1.4142l-3 3c-.3905.3905-1.0237.3905-1.4142 0s-.3905-1.0237 0-1.4142L19.5858 13H16v4c0 1.6569-1.3431 3-3 3h-3v1c0 1.1046-.8954 2-2 2H5c-1.1046 0-2-.8954-2-2v-3c0-1.1046.8954-2 2-2h3c1.1046 0 2 .8954 2 2h3c.5523 0 1-.4477 1-1v-4h-4v.5c0 1.1046-.8954 2-2 2H5c-1.1046 0-2-.8954-2-2v-3c0-1.1046.8954-2 2-2h3c1.1046 0 2 .8954 2 2v.5h4V7c0-.5523-.4477-1-1-1h-3c0 1.1046-.8954 2-2 2H5c-1.1046 0-2-.8954-2-2zm5 0H5v3h3zm0 7.5H5v3h3zM8 18H5v3h3z"/></svg>