<svg xmlns="http://www.w3.org/2000/svg" width="24" height="24" fill="none" viewBox="0 0 24 24"><path fill="#000" fill-rule="evenodd" d="M6 5c-.5523 0-1 .4477-1 1v12c0 .5523.4477 1 1 1h12c.5523 0 1-.4477 1-1v-7.3333c0-.5523.4477-1 1-1s1 .4477 1 1V18c0 1.6569-1.3431 3-3 3H6c-1.6569 0-3-1.3431-3-3V6c0-1.6569 1.3431-3 3-3h7.3333c.5523 0 1 .4477 1 1s-.4477 1-1 1zm12.7071 1.7071L11.4142 14h2.9191c.5523 0 1 .4477 1 1s-.4477 1-1 1H9c-.5523 0-1-.4477-1-1V9.6667c0-.5523.4477-1 1-1s1 .4477 1 1v2.9191l7.2929-7.2929c.3905-.3905 1.0237-.3905 1.4142 0s.3905 1.0237 0 1.4142"/></svg>