<svg xmlns="http://www.w3.org/2000/svg" width="24" height="24" fill="none" viewBox="0 0 24 24"><path fill="#000" fill-rule="evenodd" d="M13 4c0-.5523-.4477-1-1-1s-1 .4477-1 1v7H5V4c0-.5523-.4477-1-1-1s-1 .4477-1 1v16c0 .5523.4477 1 1 1s1-.4477 1-1v-7h6v7c0 .5523.4477 1 1 1s1-.4477 1-1zm6.3623 7.0752a1 1 0 0 0-.9766.1221l-.1132.0976-2.9815 3c-.3893.3917-.3876 1.0247.0039 1.4141.3917.3893 1.0247.3876 1.4141-.0039l1.2773-1.2862L18 20.002c.0013.5521.4498.9991 1.002.998.5521-.0012.9991-.4498.998-1.002l-.0186-8a1 1 0 0 0-.6191-.9228"/></svg>