<svg xmlns="http://www.w3.org/2000/svg" width="24" height="24" fill="none" viewBox="0 0 24 24"><path fill="#000" fill-rule="evenodd" d="M13 4c0-.5523-.4477-1-1-1s-1 .4477-1 1v7H5V4c0-.5523-.4477-1-1-1s-1 .4477-1 1v16c0 .5523.4477 1 1 1s1-.4477 1-1v-7h6v7c0 .5523.4477 1 1 1s1-.4477 1-1zm8.9023 7.5693A1 1 0 0 0 21 11h-5c-.5522 0-.9998.4479-1 1 .0002.5521.4478 1 1 1h2.8174c-.531.5818-1.056 1.1139-1.3965 1.3594a1.0005 1.0005 0 0 0-.3887 1.041c.0933.3935.4152.6924.8145.7568.8671.1395 1.4068.3505 1.7051.6016.2239.1887.3917.4627.333 1.0664-.0465.4724-.5003 1.1747-1.5664 1.1748-.4862 0-.7732-.1875-.9678-.4102-.2214-.2534-.3336-.5728-.3643-.7548-.0914-.5445-.6069-.9124-1.1513-.8213-.5447.0914-.9127.6077-.8213 1.1523.0802.4773.3233 1.1581.831 1.7393.5349.6121 1.3526 1.0947 2.4737 1.0947 2.1477-.0001 3.4167-1.5367 3.5576-2.9814.1131-1.1623-.2383-2.1176-1.0352-2.7891-.259-.2182-.5529-.3927-.8662-.5361a32 32 0 0 0 .6621-.7227 45 45 0 0 0 .8067-.9375c.1022-.1221.1857-.2221.2431-.292.0286-.0348.051-.0631.0664-.082l.0176-.0215.0049-.0059.0019-.0019a1.002 1.002 0 0 0 .125-1.0606"/></svg>