<svg width="24" height="24" viewBox="0 0 24 24" fill="none" xmlns="http://www.w3.org/2000/svg">
<path d="M12 3C12.5523 3 13 3.44772 13 4V20C13 20.5523 12.5523 21 12 21C11.4477 21 11 20.5523 11 20V13H5V20C5 20.5523 4.55228 21 4 21C3.44772 21 3 20.5523 3 20V4C3 3.44772 3.44772 3 4 3C4.55228 3 5 3.44772 5 4V11H11V4C11 3.44772 11.4477 3 12 3Z" fill="black"/>
<path d="M21 11C21.3853 11 21.7363 11.2217 21.9023 11.5693C22.0682 11.9171 22.0198 12.3304 21.7773 12.6299L21.7754 12.6318C21.7743 12.6332 21.7725 12.6353 21.7705 12.6377C21.7664 12.6427 21.7604 12.65 21.7529 12.6592C21.7375 12.6781 21.7151 12.7064 21.6865 12.7412C21.6291 12.8111 21.5456 12.9111 21.4434 13.0332C21.2389 13.2774 20.9544 13.6121 20.6367 13.9707C20.4349 14.1986 20.2079 14.4461 19.9746 14.6934C20.2879 14.8368 20.5818 15.0113 20.8408 15.2295C21.6377 15.901 21.9891 16.8563 21.876 18.0186C21.7351 19.4633 20.4661 20.9999 18.3184 21C17.1973 21 16.3796 20.5174 15.8447 19.9053C15.337 19.3241 15.0939 18.6433 15.0137 18.166C14.9223 17.6214 15.2903 17.1051 15.835 17.0137C16.3794 16.9226 16.8949 17.2905 16.9863 17.835C17.017 18.017 17.1292 18.3364 17.3506 18.5898C17.5452 18.8125 17.8322 19 18.3184 19C19.3845 18.9999 19.8383 18.2976 19.8848 17.8252C19.9435 17.2215 19.7757 16.9475 19.5518 16.7588C19.2535 16.5077 18.7138 16.2967 17.8467 16.1572C17.4474 16.0928 17.1255 15.7939 17.0322 15.4004C16.9392 15.0069 17.093 14.596 17.4209 14.3594C17.7614 14.1139 18.2864 13.5818 18.8174 13H16C15.4478 13 15.0002 12.5521 15 12C15.0002 11.4479 15.4478 11 16 11H21Z" fill="black"/>
</svg>
