<svg width="24" height="24" viewBox="0 0 24 24" fill="none" xmlns="http://www.w3.org/2000/svg">
<path d="M12.04 17C11.47 17 11 17.48 11 18.06C11 18.64 11.47 19.12 12.04 19.12C12.61 19.12 13.08 18.64 13.08 18.06C13.08 17.48 12.61 17 12.04 17Z" fill="black"/>
<path d="M8 18.06C8 17.48 8.47 17 9.04 17C9.61 17 10.08 17.48 10.08 18.06C10.08 18.64 9.61 19.12 9.04 19.12C8.47 19.12 8 18.64 8 18.06Z" fill="black"/>
<path fill-rule="evenodd" clip-rule="evenodd" d="M16 2H8C5.79 2 4 3.79 4 6V18C4 20.21 5.79 22 8 22H16C16.28 22 16.55 21.97 16.81 21.92C18.11 21.65 19.18 20.75 19.69 19.56C19.89 19.08 20 18.56 20 18V6C20 3.79 18.21 2 16 2ZM8 4H16C17.1 4 18 4.9 18 6V14.55C17.41 14.21 16.73 14 16 14H8C7.27 14 6.59 14.21 6 14.55V6C6 4.9 6.9 4 8 4ZM16 20H8C6.9 20 6 19.1 6 18C6 16.89 6.9 16 8 16H16C17.1 16 18 16.9 18 18C18 19.1 17.1 20 16 20Z" fill="black"/>
</svg>
