<svg width="24" height="24" viewBox="0 0 24 24" fill="none" xmlns="http://www.w3.org/2000/svg">
<path d="M15.4119 5.49334C16.2756 6.75666 17.8195 7.83082 17.976 7.93947C18.0967 8.02335 18.252 8.0272 18.374 7.94275C18.5066 7.85095 20.063 6.77343 20.9357 5.50368C21.2241 5.08408 21.4539 4.61648 21.4977 4.14208C21.5776 3.27554 21.2362 2.47175 20.3933 2.13456C19.5984 1.81659 18.966 2.098 18.5508 2.45812C18.4015 2.58764 18.277 2.72926 18.1773 2.86066C18.0801 2.73241 17.9592 2.59448 17.8147 2.46759C17.3999 2.1033 16.7637 1.81362 15.9614 2.13456C15.1185 2.47175 14.7771 3.27554 14.857 4.14208C14.9004 4.61274 15.127 5.07659 15.4119 5.49334Z" fill="black"/>
<path d="M9.03891 19.1294C9.61269 19.1294 10.0778 18.6536 10.0778 18.0667C10.0778 17.4798 9.61269 17.004 9.03891 17.004C8.46514 17.004 8 17.4798 8 18.0667C8 18.6536 8.46514 19.1294 9.03891 19.1294Z" fill="black"/>
<path d="M13.0778 18.0667C13.0778 18.6536 12.6127 19.1294 12.0389 19.1294C11.4651 19.1294 11 18.6536 11 18.0667C11 17.4798 11.4651 17.004 12.0389 17.004C12.6127 17.004 13.0778 17.4798 13.0778 18.0667Z" fill="black"/>
<path fill-rule="evenodd" clip-rule="evenodd" d="M13.2953 2.00404C12.9699 2.63724 12.835 3.34106 12.8476 4.00404H8.00024C6.89568 4.00404 6.00024 4.89947 6.00024 6.00404V14.539C6.58854 14.1988 7.27153 14.004 8 14.004H16C16.7286 14.004 17.4117 14.1988 18 14.5392V9.99718C18.5146 10.0373 19.0478 9.90873 19.5124 9.58712L19.5202 9.58175C19.5676 9.54901 19.7452 9.4266 20 9.23226V18.004C20 20.2132 18.2092 22.004 16 22.004H8.00024C5.79482 22.004 4.00604 20.2192 4.00002 18.0152L4 18.004L4.00024 17.9594V6.00404C4.00024 3.7949 5.79111 2.00404 8.00024 2.00404H13.2953ZM6.00024 17.9725V18.004C6.00024 19.1086 6.89567 20.004 8.00024 20.004H16C17.1009 20.004 17.994 19.1146 18 18.0152L18 18.004C18 16.8995 17.1046 16.004 16 16.004H8C6.90597 16.004 6.01711 16.8825 6.00024 17.9725Z" fill="black"/>
</svg>
