<svg xmlns="http://www.w3.org/2000/svg" width="24" height="24" fill="none" viewBox="0 0 24 24"><path fill="#000" fill-rule="evenodd" d="M15.4119 5.4933c.8637 1.2633 2.4076 2.3375 2.5641 2.4461.1207.0839.276.0877.398.0033.1326-.0918 1.689-1.1693 2.5617-2.439.2884-.4197.5182-.8873.562-1.3617.0799-.8665-.2615-1.6703-1.1044-2.0075-.7949-.318-1.4273-.0366-1.8425.3236-.1493.1295-.2738.271-.3735.4025a2.67 2.67 0 0 0-.3626-.393c-.4148-.3644-1.051-.654-1.8533-.3331-.8429.3372-1.1843 1.141-1.1044 2.0075.0434.4707.27.9345.5549 1.3513M12.8476 4.004c-.0126-.663.1223-1.3668.4477-2h-5.295c-2.2092 0-4 1.7909-4 4v11.9553L4 18.004v.0112c.006 2.204 1.7948 3.9888 4.0002 3.9888H16c2.2092 0 4-1.7909 4-4V9.2322c-.2548.1943-.4324.3167-.4798.3495l-.0078.0053A2.326 2.326 0 0 1 18 9.9972v4.542a3.98 3.98 0 0 0-2-.5351H8a3.98 3.98 0 0 0-1.9998.535V6.004c0-1.1046.8955-2 2-2zm-6.8474 14v-.0316c.017-1.09.9058-1.9684 1.9998-1.9684h8c1.1046 0 2 .8954 2 2v.0112c-.006 1.0994-.8991 1.9888-2 1.9888H8.0002c-1.1045 0-2-.8954-2-2m4.0776.0627c0 .5869-.4651 1.0627-1.0389 1.0627S8 18.6536 8 18.0667s.4651-1.0627 1.039-1.0627c.5737 0 1.0388.4758 1.0388 1.0627m1.9611 1.0627c.5738 0 1.0389-.4758 1.0389-1.0627s-.4651-1.0627-1.0389-1.0627S11 17.4798 11 18.0667s.4651 1.0627 1.0389 1.0627"/><path d="M15.4119 5.4933c-.2849-.4168-.5115-.8806-.5549-1.3513-.0799-.8665.2615-1.6703 1.1044-2.0075.8023-.321 1.4385-.0313 1.8533.333.1445.127.2654.2649.3626.393.0997-.1313.2242-.273.3735-.4024.4152-.3602 1.0476-.6416 1.8425-.3236.8429.3372 1.1843 1.141 1.1044 2.0075-.0438.4744-.2736.942-.562 1.3616-.8727 1.2698-2.4291 2.3473-2.5617 2.439-.122.0845-.2773.0807-.398-.0032-.1565-.1086-1.7004-1.1828-2.5641-2.4461M13.2953 2.004h-5.295c-2.2092 0-4 1.7908-4 4v11.9553L4 18.004v.0111c.006 2.204 1.7948 3.9889 4.0002 3.9889H16c2.2092 0 4-1.7909 4-4V9.2322c-.2548.1943-.4324.3167-.4798.3495l-.0078.0054A2.326 2.326 0 0 1 18 9.997v4.542a3.98 3.98 0 0 0-2-.5351H8a3.98 3.98 0 0 0-1.9998.535V6.004c0-1.1046.8955-2 2-2h4.8474c-.0126-.663.1223-1.3668.4477-2m-7.295 15.9684C6.017 16.8824 6.906 16.004 8 16.004h8c1.1046 0 2 .8954 2 2v.0111c-.006 1.0995-.8991 1.9889-2 1.9889H8.0002c-1.1045 0-2-.8954-2-2zm3.0386 1.157C8.4651 19.1294 8 18.6536 8 18.0667s.4651-1.0627 1.039-1.0627c.5737 0 1.0388.4758 1.0388 1.0627s-.4651 1.0627-1.0389 1.0627m4.0389-1.0627c0-.5869-.4651-1.0627-1.0389-1.0627S11 17.4798 11 18.0667s.4651 1.0627 1.0389 1.0627 1.0389-.4758 1.0389-1.0627"/></svg>