<svg xmlns="http://www.w3.org/2000/svg" width="24" height="24" fill="none" viewBox="0 0 24 24"><path fill="#000" fill-rule="evenodd" d="M8 2h8c2.21 0 4 1.79 4 4v12c0 .56-.11 1.08-.31 1.56-.51 1.19-1.58 2.09-2.88 2.36-.26.05-.53.08-.81.08H8c-2.21 0-4-1.79-4-4V6c0-2.21 1.79-4 4-4m8 2H8c-1.1 0-2 .9-2 2v8.55c.59-.34 1.27-.55 2-.55h8c.73 0 1.41.21 2 .55V6c0-1.1-.9-2-2-2M8 20h8c1.1 0 2-.9 2-2s-.9-2-2-2H8c-1.1 0-2 .89-2 2 0 1.1.9 2 2 2m0-1.94c0-.58.47-1.06 1.04-1.06s1.04.48 1.04 1.06-.47 1.06-1.04 1.06S8 18.64 8 18.06M12.04 17c-.57 0-1.04.48-1.04 1.06s.47 1.06 1.04 1.06 1.04-.48 1.04-1.06S12.61 17 12.04 17"/></svg>