<svg xmlns="http://www.w3.org/2000/svg" width="24" height="24" fill="none" viewBox="0 0 24 24"><path fill="#000" fill-rule="evenodd" d="M6 3C4.3431 3 3 4.3431 3 6v2c0 .5523.4477 1 1 1s1-.4477 1-1V6c0-.5523.4477-1 1-1h12c.5523 0 1 .4477 1 1v2c0 .5523.4477 1 1 1s1-.4477 1-1V6c0-1.6569-1.3431-3-3-3zm8 4a1 1 0 0 1 .8944.5528L16.618 11H21c.5523 0 1 .4477 1 1s-.4477 1-1 1h-5a1 1 0 0 1-.8944-.5528L14 10.2361l-3.1056 6.2111a1 1 0 0 1-1.7888 0L7.382 13H3c-.5523 0-1-.4477-1-1s.4477-1 1-1h5a1 1 0 0 1 .8944.5528L10 13.7639l3.1056-6.2111A1 1 0 0 1 14 7m-9 9c0-.5523-.4477-1-1-1s-1 .4477-1 1v2c0 1.6569 1.3431 3 3 3h12c1.6569 0 3-1.3431 3-3v-2c0-.5523-.4477-1-1-1s-1 .4477-1 1v2c0 .5523-.4477 1-1 1H6c-.5523 0-1-.4477-1-1z"/></svg>