<svg xmlns="http://www.w3.org/2000/svg" width="24" height="24" fill="none" viewBox="0 0 24 24"><path fill="#000" fill-rule="evenodd" d="M11.8406 21.002a.995.995 0 0 1-.446-.1711c-.3135-.2177-2.4928-1.7523-4.6584-3.8404-1.0824-1.0437-2.1839-2.247-3.0491-3.5126-.8565-1.2528-1.5375-2.6471-1.668-4.062-.113-1.2246.0003-2.4527.5245-3.533.5362-1.1054 1.4605-1.9677 2.7953-2.5016 2.4118-.9647 4.324-.094 5.571 1.0011.4343.3815.7976.796 1.0901 1.1816.2996-.395.6738-.8207 1.1227-1.21 1.2481-1.0826 3.1489-1.9285 5.5384-.9727 1.3347.534 2.259 1.3962 2.7953 2.5016.5241 1.0803.6375 2.3084.5245 3.533-.1316 1.4261-.8225 2.8317-1.6893 4.093-.876 1.2746-1.99 2.4853-3.0811 3.5327-2.1828 2.0955-4.3643 3.6226-4.6194 3.7992a.997.997 0 0 1-.7505.1612"/></svg>