<svg xmlns="http://www.w3.org/2000/svg" width="24" height="24" fill="none" viewBox="0 0 24 24"><path fill="#000" d="M21.8349 5.45c-.13-.2-1.41-1.95-5.33-1.95-2.33 0-3.72.62-4.5 1.16-.78-.54-2.17-1.16-4.5-1.16-3.92 0-5.2 1.75-5.33 1.95-.11.16-.17.36-.17.55v13.5c0 .35.18.67.47.85s.66.2.97.05c.02 0 1.84-.9 4.05-.9s4.04.89 4.05.89.03 0 .04.01q.18.09.39.09h.02c.03 0 .06 0 .09-.01.05 0 .1 0 .15-.02.04 0 .07-.02.11-.04.03-.01.07-.02.1-.03.02 0 1.84-.9 4.05-.9s4.04.89 4.05.89c.14.07.29.11.45.11.18 0 .37-.05.53-.15.29-.18.47-.5.47-.85V6c0-.2-.06-.39-.17-.55zm-17.83 12.6V6.41c.38-.31 1.39-.91 3.5-.91s3.13.61 3.5.9v11.65c-.89-.28-2.12-.55-3.5-.55s-2.61.27-3.5.55m16 0c-.89-.28-2.12-.55-3.5-.55s-2.61.27-3.5.55V6.41c.38-.31 1.39-.91 3.5-.91s3.13.61 3.5.9z"/></svg>