<svg xmlns="http://www.w3.org/2000/svg" width="24" height="24" fill="none" viewBox="0 0 24 24"><path fill="#000" fill-rule="evenodd" d="M9.5164 14.0472c-2.204-.9782-3.7427-3.1855-3.7427-5.7544C5.7737 4.8174 8.591 2 12.0665 2s6.2928 2.8174 6.2928 6.2928a6.268 6.268 0 0 1-1.3435 3.8866l1.0415.3986c1.3606.5207 2.1504 1.9437 1.8727 3.3738l-1.0174 5.2388a1 1 0 0 1-.9817.8094h-7.4145a1 1 0 0 1-.71-.2959L5.29 17.1501a1 1 0 0 1 .0592-1.4635l1.0538-.9032a1 1 0 0 1 .8013-.2294l2.3121.3519zM7.7737 8.2928C7.7737 5.922 9.6957 4 12.0665 4s4.2928 1.922 4.2928 4.2928c0 1.2288-.5155 2.3371-1.3448 3.1207l-.4495-.172V7.6953c0-1.3941-1.1302-2.5243-2.5243-2.5243S9.5164 6.3012 9.5164 7.6953v4.0515c-1.0576-.7824-1.7427-2.0389-1.7427-3.454m3.7427-.5975a.5243.5243 0 0 1 1.0486 0v4.2342a1 1 0 0 0 .6426.9339l4.1348 1.5825a1 1 0 0 1 .6243 1.1246L17.1064 20h-6.1733l-3.3353-3.3631 2.7682.4213a1.0002 1.0002 0 0 0 1.1504-.9886z"/></svg>