<svg xmlns="http://www.w3.org/2000/svg" width="24" height="24" fill="none" viewBox="0 0 24 24"><path fill="#000" fill-rule="evenodd" d="m20.0001 10.8869.9068.6682c.4446.3276 1.0706.2327 1.3982-.2119s.2328-1.0706-.2118-1.3982l-9.5-7a1 1 0 0 0-.544-.1938l-.0227-.017-.0212.0158a1 1 0 0 0-.5985.195l-9.5 7c-.4447.3276-.5395.9536-.2119 1.3982s.9536.5395 1.3983.2119L4 10.8869V18.25c0 1.6569 1.3431 3 3 3h1v-6.4c0-.8836.7163-1.6 1.6-1.6h4.8c.8836 0 1.6.7164 1.6 1.6v6.4h1c1.6568 0 3-1.3431 3-3zm-6 10.3631h-4v-6h4z"/></svg>