<svg xmlns="http://www.w3.org/2000/svg" width="24" height="24" fill="none" viewBox="0 0 24 24"><path fill="#000" fill-rule="evenodd" d="M11.4069 2.945a1 1 0 0 1 1.1864 0l9.5 7c.4446.3276.5394.9536.2118 1.3982s-.9536.5395-1.3982.2119l-.9068-.6682V18.25c0 1.6569-1.3432 3-3 3h-10c-1.6569 0-3-1.3431-3-3v-7.3631l-.9068.6682c-.4447.3276-1.0707.2327-1.3983-.2119s-.2327-1.0706.2119-1.3983zm.5932 2.0471 6 4.4211V18.25c0 .5523-.4477 1-1 1h-1v-4.4c0-.8837-.7164-1.6-1.6-1.6h-4.8c-.8837 0-1.6.7163-1.6 1.6v4.4H7c-.5523 0-1-.4477-1-1V9.4132zm-2 14.2579h4v-4h-4z"/></svg>