<svg xmlns="http://www.w3.org/2000/svg" width="24" height="24" fill="none" viewBox="0 0 24 24"><path fill="#000" fill-rule="evenodd" d="M12.5933 2.945a1 1 0 0 0-1.1864 0l-9.5 7c-.4446.3276-.5395.9536-.2119 1.3982s.9536.5395 1.3983.2119L4 10.8869V18.25c0 1.6569 1.3431 3 3 3h10c1.6568 0 3-1.3431 3-3v-7.3631l.9068.6682c.4446.3276 1.0706.2327 1.3982-.2119s.2328-1.0706-.2118-1.3983zm5.4068 6.4682-6-4.421-6 4.421V18.25c0 .5523.4477 1 1 1h1v-6.4c0-.8837.7163-1.6 1.6-1.6h4.8c.8836 0 1.6.7163 1.6 1.6v6.4h1c.5523 0 1-.4477 1-1zm-4 5.8368v-2h-4v2zm-4 2h4v2h-4z"/></svg>