<svg xmlns="http://www.w3.org/2000/svg" width="24" height="24" fill="none" viewBox="0 0 24 24"><path fill="#000" fill-rule="evenodd" d="M10.6621 2.3589c.7606-.6846 1.9152-.6846 2.6758 0l4 3.6c.4215.3792.6621.9196.6621 1.4866V12c0 1.6569-1.3431 3-3 3h-2v1.1707A3.009 3.009 0 0 1 14.8293 18H19c.5523 0 1 .4477 1 1s-.4477 1-1 1h-4.1707c-.4118 1.1652-1.5231 2-2.8293 2s-2.4175-.8348-2.8293-2H5c-.5523 0-1-.4477-1-1s.4477-1 1-1h4.1707A3.009 3.009 0 0 1 11 16.1708v-1.1707H9c-1.6569 0-3-1.3432-3-3V7.4455a2 2 0 0 1 .662-1.4866zM13 13v-2c0-.5523-.4477-1-1-1s-1 .4477-1 1v2H9c-.5523 0-1-.4477-1-1V7.4455l4-3.6 4 3.6V12c0 .5523-.4477 1-1 1zm-1 5c-.5523 0-1 .4477-1 1s.4477 1 1 1 1-.4477 1-1-.4477-1-1-1"/></svg>