<svg xmlns="http://www.w3.org/2000/svg" width="24" height="24" fill="none" viewBox="0 0 24 24"><path fill="#000" fill-rule="evenodd" d="M16 2c.5523 0 1 .4477 1 1v3.1707c1.1652.4118 2 1.523 2 2.8293s-.8348 2.4175-2 2.8293V16c0 3.3137-2.6863 6-6 6s-6-2.6863-6-6v-4a1 1 0 0 1 1.7071-.7071l3 3c.3905.3905.3905 1.0237 0 1.4142s-1.0237.3905-1.4142 0L7 14.4142V16c0 2.2091 1.7909 4 4 4s4-1.7909 4-4v-4.1707c-1.1652-.4118-2-1.5231-2-2.8293s.8348-2.4175 2-2.8293V3c0-.5523.4477-1 1-1m-1 7c0-.5523.4477-1 1-1s1 .4477 1 1-.4477 1-1 1-1-.4477-1-1"/></svg>