<svg xmlns="http://www.w3.org/2000/svg" width="24" height="24" fill="none" viewBox="0 0 24 24"><path fill="#000" fill-rule="evenodd" d="M2 5.0968C2 3.3865 3.3431 2 5 2h14c1.6569 0 3 1.3865 3 3.0968v9.8064C22 16.6135 20.6569 18 19 18h-5.875v2H16.5c.5523 0 1 .4477 1 1s-.4477 1-1 1h-9c-.5523 0-1-.4477-1-1s.4477-1 1-1h3.375v-2H5c-1.6569 0-3-1.3865-3-3.0968zm3-1.0323c-.5523 0-1 .4622-1 1.0323v9.8064c0 .5701.4477 1.0323 1 1.0323h14c.5523 0 1-.4622 1-1.0323V5.0968c0-.5701-.4477-1.0323-1-1.0323zM6 7.143C6 6.5117 6.4477 6 7 6h10c.5523 0 1 .5117 1 1.1429v5.7142C18 13.4883 17.5523 14 17 14H7c-.5523 0-1-.5117-1-1.1429z"/></svg>