<svg xmlns="http://www.w3.org/2000/svg" width="24" height="24" fill="none" viewBox="0 0 24 24"><path fill="#000" fill-rule="evenodd" d="M2.8322 8h2.2381a8.036 8.036 0 0 1 3.3754-3.169 10 10 0 0 0-.1879.3989C7.8977 6.0402 7.6052 6.9765 7.3932 8h2.0485c.1737-.7324.3922-1.3917.6437-1.9578.328-.738.6927-1.2733 1.0471-1.6105.3492-.3324.6407-.4317.8676-.4317s.5183.0993.8676.4317c.3544.3372.719.8725 1.047 1.6105.2516.566.4701 1.2254.6437 1.9578h2.0485c-.212-1.0235-.5045-1.9598-.8646-2.7701a10 10 0 0 0-.1878-.3989A8.036 8.036 0 0 1 18.9298 8h2.2382c-1.5431-3.5318-5.0673-6-9.1679-6-4.1007 0-7.6248 2.4682-9.168 6m15.916.9374a1 1 0 0 1 .0534.0019 1 1 0 0 1 .0534-.002h2.4022c.9665 0 1.75.7836 1.75 1.7501v.5783c0 .9665-.7835 1.75-1.75 1.75h-1.759v1.2792a.75.75 0 0 1-1.5 0V9.6874a.75.75 0 0 1 .75-.75m-17.0417 0a.75.75 0 0 1 .75.75V11.25h2.0548V9.6963a.75.75 0 0 1 1.5 0v4.6075a.75.75 0 0 1-1.5 0V12.75H2.4565v1.5449a.75.75 0 0 1-1.5 0V9.6874a.75.75 0 0 1 .75-.75m10.7839.75a.75.75 0 0 1 .75-.75h3.0516a.75.75 0 0 1 0 1.5h-.7758v3.8575a.75.75 0 0 1-1.5 0v-3.8575h-.7758a.75.75 0 0 1-.75-.75m-5.5077.0089a.75.75 0 0 1 .75-.75h3.0516a.75.75 0 0 1 0 1.5h-.7758v3.8575a.75.75 0 1 1-1.5 0v-3.8575h-.7758a.75.75 0 0 1-.75-.75m14.2745 1.8194h-1.759v-1.0783h1.759a.25.25 0 0 1 .25.25v.5783a.25.25 0 0 1-.25.25M18.9298 16h2.2382c-1.5431 3.5318-5.0673 6-9.1679 6-4.1007 0-7.6248-2.4682-9.168-6h2.2382a8.036 8.036 0 0 0 3.3754 3.169 10 10 0 0 1-.1879-.3989c-.3601-.8103-.6526-1.7466-.8646-2.7701h2.0485c.1737.7324.3922 1.3917.6437 1.9578.328.738.6927 1.2733 1.0471 1.6105.3492.3324.6407.4317.8676.4317s.5183-.0993.8676-.4317c.3544-.3372.719-.8725 1.047-1.6105.2516-.5661.4701-1.2254.6437-1.9578h2.0485c-.212 1.0235-.5045 1.9598-.8646 2.7701a10 10 0 0 1-.1878.3989A8.036 8.036 0 0 0 18.9298 16"/></svg>