<svg xmlns="http://www.w3.org/2000/svg" width="24" height="24" fill="none" viewBox="0 0 24 24"><path fill="#000" fill-rule="evenodd" d="M18 3c2.2091 0 4 1.7909 4 4v10c0 2.2091-1.7909 4-4 4H6c-2.2091 0-4-1.7909-4-4V7c0-2.2091 1.7909-4 4-4zM6 5c-1.1046 0-2 .8954-2 2v10c0 1.1046.8954 2 2 2h12c1.1046 0 2-.8954 2-2V7c0-1.1046-.8954-2-2-2zm11 2c.5523 0 1 .4477 1 1s-.4477 1-1 1h-3c-.5523 0-1-.4477-1-1s.4477-1 1-1zm-6 2c0-1.1046-.8954-2-2-2s-2 .8954-2 2 .8954 2 2 2 2-.8954 2-2m7 2c0-.5523-.4477-1-1-1h-3c-.5523 0-1 .4477-1 1s.4477 1 1 1h3c.5523 0 1-.4477 1-1m-8.0322 1C11.6424 12 13 13.3576 13 15.0322 13 16.119 12.119 17 11.0322 17H6.9678C5.881 17 5 16.119 5 15.0322 5 13.3576 6.3576 12 8.0322 12zm-1.9356 2c-.5593 0-1.0132.4449-1.0302 1h3.996c-.017-.5551-.4709-1-1.0302-1z"/></svg>