<svg width="24" height="24" viewBox="0 0 24 24" fill="none" xmlns="http://www.w3.org/2000/svg">
<path d="M8 7C8.55228 7 9 7.44772 9 8V10C9.55228 10 10 10.4477 10 11C10 11.5523 9.55228 12 9 12V16C9 16.5523 8.55228 17 8 17C7.44772 17 7 16.5523 7 16V12C6.44772 12 6 11.5523 6 11C6 10.4477 6.44772 10 7 10V8C7 7.44772 7.44772 7 8 7Z" fill="black"/>
<path d="M15 8C15 7.44772 15.4477 7 16 7H18C18.5523 7 19 7.44772 19 8C19 8.55228 18.5523 9 18 9H16C15.4477 9 15 8.55228 15 8Z" fill="black"/>
<path d="M15 11C15 10.4477 15.4477 10 16 10H18C18.5523 10 19 10.4477 19 11C19 11.5523 18.5523 12 18 12H16C15.4477 12 15 11.5523 15 11Z" fill="black"/>
<path d="M18 17C18.5523 17 19 16.5523 19 16C19 15.4477 18.5523 15 18 15C17.4477 15 17 15.4477 17 16C17 16.5523 17.4477 17 18 17Z" fill="black"/>
<path fill-rule="evenodd" clip-rule="evenodd" d="M2 7C2 5.34315 3.34315 4 5 4H19C20.6569 4 22 5.34315 22 7V17C22 18.6569 20.6569 20 19 20H5C3.34315 20 2 18.6569 2 17V7ZM5 6H12V18H5C4.44772 18 4 17.5523 4 17V7C4 6.44772 4.44772 6 5 6ZM19 6H14V18H19C19.5523 18 20 17.5523 20 17V7C20 6.44772 19.5523 6 19 6Z" fill="black"/>
</svg>
