<svg xmlns="http://www.w3.org/2000/svg" width="24" height="24" fill="none" viewBox="0 0 24 24"><path fill="#000" fill-rule="evenodd" d="M5 4C3.3431 4 2 5.3431 2 7v10c0 1.6569 1.3431 3 3 3h14c1.6569 0 3-1.3431 3-3V7c0-1.6569-1.3431-3-3-3zm7 2H5c-.5523 0-1 .4477-1 1v10c0 .5523.4477 1 1 1h7zm2 0h5c.5523 0 1 .4477 1 1v10c0 .5523-.4477 1-1 1h-5zM9 8c0-.5523-.4477-1-1-1s-1 .4477-1 1v2c-.5523 0-1 .4477-1 1s.4477 1 1 1v4c0 .5523.4477 1 1 1s1-.4477 1-1v-4c.5523 0 1-.4477 1-1s-.4477-1-1-1zm7-1c-.5523 0-1 .4477-1 1s.4477 1 1 1h2c.5523 0 1-.4477 1-1s-.4477-1-1-1zm0 3c-.5523 0-1 .4477-1 1s.4477 1 1 1h2c.5523 0 1-.4477 1-1s-.4477-1-1-1zm3 6c0 .5523-.4477 1-1 1s-1-.4477-1-1 .4477-1 1-1 1 .4477 1 1"/></svg>