<svg width="24" height="24" viewBox="0 0 24 24" fill="none" xmlns="http://www.w3.org/2000/svg">
<path d="M10.5 9.31201C11.3284 9.31201 12 8.64044 12 7.81201C12 6.98358 11.3284 6.31201 10.5 6.31201C9.67157 6.31201 9 6.98358 9 7.81201C9 8.64044 9.67157 9.31201 10.5 9.31201Z" fill="black"/>
<path fill-rule="evenodd" clip-rule="evenodd" d="M4 6.31201C4 4.10287 5.79086 2.31201 8 2.31201H20C22.2091 2.31201 24 4.10287 24 6.31201V14.312C24 16.5212 22.2091 18.312 20 18.312H8C5.79086 18.312 4 16.5212 4 14.312V6.31201ZM8 4.31201H20C21.1046 4.31201 22 5.20744 22 6.31201V12.0584L18.1003 9.57683C17.4183 9.14279 16.542 9.16207 15.8796 9.62569L11.9146 12.4012L9.9476 11.4177C9.3259 11.1069 8.58739 11.1411 7.99711 11.5081L6 12.7499V6.31201C6 5.20744 6.89543 4.31201 8 4.31201ZM21.9632 14.4057C21.9743 14.4127 21.9855 14.4196 21.9968 14.4261C21.9377 15.4776 21.0663 16.312 20 16.312H8C7.14618 16.312 6.41731 15.777 6.1304 15.0239L9.05317 13.2066L11.0202 14.1901C11.6767 14.5183 12.4602 14.4606 13.0615 14.0397L17.0266 11.2642L21.9632 14.4057Z" fill="black"/>
<path d="M2 9.31201C2 8.75973 1.55228 8.31201 1 8.31201C0.447715 8.31201 0 8.75973 0 9.31201V16.312C0 19.6257 2.68629 22.312 6 22.312H16C16.5523 22.312 17 21.8643 17 21.312C17 20.7597 16.5523 20.312 16 20.312H6C3.79086 20.312 2 18.5212 2 16.312V9.31201Z" fill="black"/>
</svg>
