<svg width="24" height="24" viewBox="0 0 24 24" fill="none" xmlns="http://www.w3.org/2000/svg">
<path d="M10.5 9C11.3284 9 12 8.32843 12 7.5C12 6.67157 11.3284 6 10.5 6C9.67157 6 9 6.67157 9 7.5C9 8.32843 9.67157 9 10.5 9Z" fill="black"/>
<path fill-rule="evenodd" clip-rule="evenodd" d="M4 6C4 3.79086 5.79086 2 8 2H20C22.2091 2 24 3.79086 24 6V14C24 16.2091 22.2091 18 20 18H8C5.79086 18 4 16.2091 4 14V6ZM8 4H20C21.1046 4 22 4.89543 22 6V11.7464L18.1003 9.26482C17.4183 8.83078 16.542 8.85006 15.8796 9.31368L11.9146 12.0892L9.9476 11.1057C9.3259 10.7949 8.58739 10.8291 7.99711 11.1961L6 12.4379V6C6 4.89543 6.89543 4 8 4ZM21.9632 14.0937C21.9743 14.1007 21.9855 14.1075 21.9968 14.1141C21.9377 15.1656 21.0663 16 20 16H8C7.14618 16 6.41731 15.465 6.1304 14.7119L9.05317 12.8946L11.0202 13.8781C11.6767 14.2063 12.4602 14.1486 13.0615 13.7277L17.0266 10.9521L21.9632 14.0937Z" fill="black"/>
<path d="M2 9C2 8.44772 1.55228 8 1 8C0.447715 8 0 8.44772 0 9V16C0 19.3137 2.68629 22 6 22H16C16.5523 22 17 21.5523 17 21C17 20.4477 16.5523 20 16 20H6C3.79086 20 2 18.2091 2 16V9Z" fill="black"/>
</svg>
