<svg width="24" height="24" viewBox="0 0 24 24" fill="none" xmlns="http://www.w3.org/2000/svg">
<path fill-rule="evenodd" clip-rule="evenodd" d="M7 2C5.34315 2 4 3.34315 4 5V18.9954C4 20.6522 5.34315 21.9954 7 21.9954H11.7438L9.74384 19.9954H7C6.44772 19.9954 6 19.5476 6 18.9954V5C6 4.44772 6.44772 4 7 4H12V6.99536C12 8.65222 13.3431 9.99536 15 9.99536H18L18 14.0028H20L20 9.21093C20 8.81327 19.8421 8.43189 19.561 8.15062L13.8538 2.43969C13.5725 2.15817 13.1908 2 12.7928 2H7ZM16.5784 7.99536L14 5.41533V6.99536C14 7.54765 14.4477 7.99536 15 7.99536H16.5784Z" fill="black"/>
<path d="M15.0785 12.9183C14.6879 12.5278 14.0548 12.5278 13.6643 12.9183L10.288 16.2945C10.1064 16.4756 9.99395 16.7261 9.99395 17.0028C9.99395 17.2796 10.1064 17.5301 10.288 17.7111L13.6643 21.0874C14.0548 21.4779 14.6879 21.4779 15.0785 21.0874C15.469 20.6968 15.469 20.0637 15.0785 19.6731L13.4082 18.0028H20.0004C20.5527 18.0028 21.0004 17.5551 21.0004 17.0028C21.0004 16.4506 20.5527 16.0028 20.0004 16.0028H13.4082L15.0785 14.3325C15.469 13.942 15.469 13.3088 15.0785 12.9183Z" fill="black"/>
</svg>
