<svg xmlns="http://www.w3.org/2000/svg" width="24" height="24" fill="none" viewBox="0 0 24 24"><path fill="#000" fill-rule="evenodd" d="M6 5.0046c0-.5522.4477-1 1-1h5V7c0 1.6569 1.3431 3 3 3h5v-.7844a1.5 1.5 0 0 0-.439-1.0603l-5.7072-5.711a1.5 1.5 0 0 0-1.061-.4397H7c-1.6569 0-3 1.3432-3 3V19c0 1.6569 1.3431 3 3 3h1.402a3 3 0 0 1-.36-2H7c-.5523 0-1-.4477-1-1zM14 7V5.42L16.5784 8H15c-.5523 0-1-.4477-1-1m2.5412 4.3236c.3736-.4068 1.0062-.4337 1.413-.0601l2.7222 2.5a1 1 0 0 1 0 1.473l-2.7222 2.5c-.4068.3736-1.0394.3467-1.413-.0601s-.3466-1.0394.0602-1.4129l.8313-.7635H11c-.5523 0-1-.4477-1-1s.4477-1 1-1h6.4327l-.8313-.7635c-.4068-.3735-.4337-1.0061-.0602-1.4129m-2.0824 6c-.3736-.4068-1.0062-.4337-1.413-.0601l-2.7222 2.5a1 1 0 0 0 0 1.473l2.7222 2.5c.4068.3736 1.0394.3467 1.413-.0601s.3466-1.0394-.0602-1.4129l-.8313-.7635H20c.5523 0 1-.4477 1-1s-.4477-1-1-1h-6.4327l.8313-.7635c.4068-.3735.4337-1.0061.0602-1.4129"/></svg>