<svg width="24" height="24" viewBox="0 0 24 24" fill="none" xmlns="http://www.w3.org/2000/svg">
<path fill-rule="evenodd" clip-rule="evenodd" d="M7 4.00464C6.44772 4.00464 6 4.45235 6 5.00464V19C6 19.5523 6.44772 20 7 20H8.04194C8.01421 20.1641 8 20.3313 8 20.5C8 21.0319 8.14122 21.5484 8.40192 22H7C5.34315 22 4 20.6569 4 19V5.00464C4 3.34779 5.34315 2.00464 7 2.00464H12.7928C13.1908 2.00464 13.5725 2.16281 13.8538 2.44432L19.561 8.15525C19.8421 8.43653 20 8.81791 20 9.21557V10H15C13.3431 10 12 8.65685 12 7V4.00464H7ZM14 5.41997V7C14 7.55228 14.4477 8 15 8H16.5784L14 5.41997Z" fill="black"/>
<path d="M16.5412 11.3236C16.9148 10.9168 17.5474 10.8899 17.9542 11.2635L20.6764 13.7635C20.8826 13.9529 21 14.22 21 14.5C21 14.78 20.8826 15.0471 20.6764 15.2365L17.9542 17.7365C17.5474 18.1101 16.9148 18.0832 16.5412 17.6764C16.1677 17.2696 16.1946 16.637 16.6014 16.2635L17.4327 15.5H11C10.4477 15.5 10 15.0523 10 14.5C10 13.9477 10.4477 13.5 11 13.5H17.4327L16.6014 12.7365C16.1946 12.363 16.1677 11.7304 16.5412 11.3236Z" fill="black"/>
<path d="M14.4588 17.3236C14.0852 16.9168 13.4526 16.8899 13.0458 17.2635L10.3236 19.7635C10.1174 19.9529 10 20.22 10 20.5C10 20.78 10.1174 21.0471 10.3236 21.2365L13.0458 23.7365C13.4526 24.1101 14.0852 24.0832 14.4588 23.6764C14.8323 23.2696 14.8054 22.637 14.3986 22.2635L13.5673 21.5H20C20.5523 21.5 21 21.0523 21 20.5C21 19.9477 20.5523 19.5 20 19.5H13.5673L14.3986 18.7365C14.8054 18.363 14.8323 17.7304 14.4588 17.3236Z" fill="black"/>
</svg>
