<svg xmlns="http://www.w3.org/2000/svg" width="24" height="24" fill="none" viewBox="0 0 24 24"><path fill="#000" d="M3 19c-.5523 0-1-.4477-1-1s.4477-1 1-1h2.9044l2.7083-5-2.7083-5H3c-.5523 0-1-.4477-1-1s.4477-1 1-1h3.5a1 1 0 0 1 .8793.5237L9.75 9.9004l2.3707-4.3767A1 1 0 0 1 13 5h5.5858l-1.2929-1.2929c-.3905-.3905-.3905-1.0237 0-1.4142s1.0237-.3905 1.4142 0l3 3c.3905.3905.3905 1.0237 0 1.4142l-3 3c-.3905.3905-1.0237.3905-1.4142 0s-.3905-1.0237 0-1.4142L18.5858 7h-4.9902l-2.7083 5 2.7083 5h4.9902l-1.2929-1.2929c-.3905-.3905-.3905-1.0237 0-1.4142s1.0237-.3905 1.4142 0l3 3c.3905.3905.3905 1.0237 0 1.4142l-3 3c-.3905.3905-1.0237.3905-1.4142 0s-.3905-1.0237 0-1.4142L18.5858 19H13a1 1 0 0 1-.8793-.5237L9.75 14.0996l-2.3707 4.3767A1 1 0 0 1 6.5 19z"/></svg>