<svg xmlns="http://www.w3.org/2000/svg" width="24" height="24" fill="none" viewBox="0 0 24 24"><path fill="#000" fill-rule="evenodd" d="M5 3C3.3431 3 2 4.3431 2 6v1c0 .5523.4477 1 1 1s1-.4477 1-1V6c0-.5523.4477-1 1-1h2c.5523 0 1-.4477 1-1s-.4477-1-1-1zm6 0c-.5523 0-1 .4477-1 1s.4477 1 1 1h2c.5523 0 1-.4477 1-1s-.4477-1-1-1zm6 0c-.5523 0-1 .4477-1 1s.4477 1 1 1h2c.5523 0 1 .4477 1 1v1c0 .5523.4477 1 1 1s1-.4477 1-1V6c0-1.6569-1.3431-3-3-3zM8.7929 8.7929c.3905-.3905 1.0237-.3905 1.4142 0l2.5 2.5c.3905.3905.3905 1.0237 0 1.4142l-2.5 2.5c-.3905.3905-1.0237.3905-1.4142 0s-.3905-1.0237 0-1.4142L9.5858 13H3c-.5523 0-1-.4477-1-1s.4477-1 1-1h6.5858l-.7929-.7929c-.3905-.3905-.3905-1.0237 0-1.4142M20 13c0 .5523.4477 1 1 1s1-.4477 1-1v-2c0-.5523-.4477-1-1-1s-1 .4477-1 1zM4 17c0-.5523-.4477-1-1-1s-1 .4477-1 1v1c0 1.6569 1.3431 3 3 3h2c.5523 0 1-.4477 1-1s-.4477-1-1-1H5c-.5523 0-1-.4477-1-1zm18 0c0-.5523-.4477-1-1-1s-1 .4477-1 1v1c0 .5523-.4477 1-1 1h-2c-.5523 0-1 .4477-1 1s.4477 1 1 1h2c1.6569 0 3-1.3431 3-3zm-12 3c0-.5523.4477-1 1-1h2c.5523 0 1 .4477 1 1s-.4477 1-1 1h-2c-.5523 0-1-.4477-1-1"/></svg>