<svg xmlns="http://www.w3.org/2000/svg" width="24" height="24" fill="none" viewBox="0 0 24 24"><path fill="url(#a)" d="M12.0029 3c-3.7574 0-4.8563.0039-5.0699.0216-.771.0641-1.2509.1856-1.7736.4459-.4029.2-.7206.432-1.0341.7572-.571.5929-.9172 1.3224-1.0425 2.1895-.0609.421-.0786.5068-.0822 2.657-.0014.7168 0 1.66 0 2.9253 0 3.7554.0042 4.8535.0222 5.0667.0623.7505.18 1.2227.4291 1.7392.4762.9887 1.3857 1.7309 2.4573 2.0079.371.0955.7807.1482 1.3068.1731.2229.0097 2.4946.0166 4.7677.0166s4.5462-.0028 4.7636-.0138c.6091-.0287.9628-.0762 1.3539-.1773a3.769 3.769 0 0 0 2.4572-2.012c.2443-.5041.3682-.9942.4243-1.7056.0122-.1551.0173-2.6278.0173-5.0972 0-2.4698-.0055-4.938-.0177-5.093-.0568-.7229-.1807-1.2089-.4329-1.7226-.207-.4206-.4368-.7346-.7704-1.0558-.5954-.5688-1.3236-.915-2.1913-1.0402-.4204-.0608-.5042-.0788-2.6555-.0825z"/><path fill="url(#b)" d="M12.0029 3c-3.7574 0-4.8563.0039-5.0699.0216-.771.0641-1.2509.1856-1.7736.4459-.4029.2-.7206.432-1.0341.7572-.571.5929-.9172 1.3224-1.0425 2.1895-.0609.421-.0786.5068-.0822 2.657-.0014.7168 0 1.66 0 2.9253 0 3.7554.0042 4.8535.0222 5.0667.0623.7505.18 1.2227.4291 1.7392.4762.9887 1.3857 1.7309 2.4573 2.0079.371.0955.7807.1482 1.3068.1731.2229.0097 2.4946.0166 4.7677.0166s4.5462-.0028 4.7636-.0138c.6091-.0287.9628-.0762 1.3539-.1773a3.769 3.769 0 0 0 2.4572-2.012c.2443-.5041.3682-.9942.4243-1.7056.0122-.1551.0173-2.6278.0173-5.0972 0-2.4698-.0055-4.938-.0177-5.093-.0568-.7229-.1807-1.2089-.4329-1.7226-.207-.4206-.4368-.7346-.7704-1.0558-.5954-.5688-1.3236-.915-2.1913-1.0402-.4204-.0608-.5042-.0788-2.6555-.0825z"/><path fill="#fff" d="M12.0007 5c-1.9011 0-2.1397.0083-2.8864.0423-.7452.0341-1.2539.1521-1.699.3252-.4604.1788-.851.418-1.24.8072-.3894.389-.6286.7796-.808 1.2399-.1735.4452-.2916.954-.3251 1.699C5.0087 9.8601 5 10.0988 5 12s.0085 2.1389.0423 2.8856c.0343.7452.1522 1.2539.3252 1.699.179.4604.4181.8509.8074 1.24.3889.3894.7794.6291 1.2395.8079.4454.1731.9542.2911 1.6993.3252.7467.034.9851.0423 2.8861.0423 1.9012 0 2.1391-.0083 2.8858-.0423.7452-.0341 1.2544-.1521 1.6998-.3252.4603-.1788.8502-.4185 1.2392-.8079.3894-.3891.6285-.7796.8079-1.2399.1721-.4452.2902-.954.3252-1.699C18.9912 14.1391 19 13.9011 19 12s-.0088-2.1397-.0423-2.8863c-.035-.7452-.1531-1.254-.3252-1.699-.1794-.4604-.4185-.851-.8079-1.24-.3894-.3894-.7788-.6285-1.2396-.8072-.4463-.1731-.9552-.291-1.7005-.3252-.7466-.034-.9843-.0423-2.886-.0423zm-.628 1.2615c.1864-.0003.3943 0 .628 0 1.869 0 2.0905.0067 2.8286.0402.6825.0312 1.0529.1453 1.2996.241.3267.127.5596.2786.8045.5236s.3966.4783.5238.805c.0958.2465.21.6169.2411 1.2994.0335.7379.0408.9596.0408 2.8277s-.0073 2.0898-.0408 2.8277c-.0312.6825-.1453 1.0529-.2411 1.2994-.1269.3266-.2788.5592-.5238.8041s-.4776.3967-.8045.5235c-.2464.0963-.6171.21-1.2996.2413-.738.0335-.9596.0408-2.8286.0408-1.8692 0-2.0907-.0073-2.8287-.0408-.6825-.0315-1.0529-.1456-1.2998-.2414-.3266-.1269-.56-.2785-.805-.5235s-.3967-.4778-.5238-.8046c-.0958-.2465-.21-.6169-.241-1.2994-.0336-.7379-.0403-.9596-.0403-2.8289s.0067-2.0898.0402-2.8277c.0312-.6825.1453-1.0529.241-1.2996.127-.3267.279-.56.524-.805s.4783-.3967.805-.5239c.2467-.0962.6172-.21 1.2997-.2413.6458-.0292.8961-.038 2.2007-.0394zm4.3645 1.1623c-.4637 0-.84.3758-.84.8397 0 .4637.3763.84.84.84a.84.84 0 1 0 0-1.6797m-3.7365.9814c-1.9853 0-3.5949 1.6096-3.5949 3.5948s1.6096 3.5941 3.5949 3.5941S15.5949 13.9852 15.5949 12s-1.609-3.5948-3.5942-3.5948m0 1.2615c1.2886 0 2.3333 1.0446 2.3333 2.3333s-1.0447 2.3333-2.3333 2.3333c-1.2888 0-2.3334-1.0447-2.3334-2.3333s1.0446-2.3333 2.3334-2.3333"/><defs><radialGradient id="a" cx="0" cy="0" r="1" gradientTransform="matrix(0 -17.8393 16.592 0 7.781 22.386)" gradientUnits="userSpaceOnUse"><stop stop-color="#fd5"/><stop offset="0" stop-color="#fd5"/><stop offset="1" stop-color="#ff543e"/><stop offset="1" stop-color="#c837ab"/></radialGradient><radialGradient id="b" cx="0" cy="0" r="1" gradientTransform="rotate(78.68 -2.629 2.14)scale(7.97425 32.8702)" gradientUnits="userSpaceOnUse"><stop stop-color="#3771c8"/><stop offset="0" stop-color="#3771c8"/><stop offset="1" stop-color="#60f" stop-opacity="0"/></radialGradient></defs></svg>