<svg xmlns="http://www.w3.org/2000/svg" width="24" height="24" fill="none" viewBox="0 0 24 24"><path fill="#000" fill-rule="evenodd" d="M12.9425 2.3516a2 2 0 0 0-1.8428 0L4.5393 5.757A1 1 0 0 0 4 6.6445v5.2121c0 .9687.1069 2.013.4953 3.0121 1.119 2.8783 2.9127 4.6515 4.4367 5.7024.7595.5238 1.4513.868 1.9599 1.0832.2546.1078.4643.1836.6151.2337.0754.0251.1361.0438.1805.0569q.0334.0097.0541.0154l.0174.0048.0063.0016.0025.0007.0011.0003c.0005.0001.0018-.003.2522-.9677l-.2512.9679c.1774.0461.365.0422.5406-.0107l.001-.0003.0023-.0007.0059-.0018.0167-.0053a3 3 0 0 0 .0524-.017 6 6 0 0 0 .1764-.0624 9 9 0 0 0 .6042-.2508c.5004-.2281 1.1823-.5867 1.9322-1.1167 1.5019-1.0615 3.285-2.8177 4.4105-5.5847.4174-1.0261.5301-2.1055.5301-3.1027V6.6445a1 1 0 0 0-.5393-.8876zm-1.2712 17.4608c.1288.0546.2406.0977.3318.1308a7.5 7.5 0 0 0 .3368-.1442c.406-.185.9758-.4836 1.6074-.93 1.2611-.8913 2.7603-2.3648 3.7122-4.7051.2827-.695.3827-1.4882.3827-2.3491V7.2521l-6.0211-3.1254L6 7.2521v4.6045c0 .8345.0944 1.6059.3593 2.2874.949 2.4408 2.4521 3.9145 3.7081 4.7806.6304.4348 1.1993.7166 1.6039.8878m-.4968-10.1972c-.2176.1673-.3051.353-.3051.5463 0 .2192.049.3464.0982.4258.0509.0821.1382.171.298.2567.2137.1144.4266.156.81.156a1 1 0 0 1 .0691.0024c.4943.0137 1.0208.0931 1.5763.3907.4104.2198.7851.5328 1.0537.9663.2702.4361.3981.9382.3981 1.4791 0 .9262-.472 1.6597-1.0858 2.1317-.3234.2488-.6954.4344-1.087.5529V17c0 .5523-.4477 1-1 1s-1-.4477-1-1v-.4579c-.8199-.2388-1.4908-.7812-1.9695-1.5192-.3006-.4634-.1686-1.0826.2947-1.3832s1.0826-.1686 1.3832.2947c.3345.5157.7539.7426 1.2582.7426.3369 0 .6709-.1151.9011-.2921.2176-.1673.3051-.3531.3051-.5464 0-.2192-.0491-.3464-.0983-.4258-.0509-.0821-.1381-.171-.2979-.2567-.2137-.1144-.4266-.156-.81-.156a1 1 0 0 1-.0691-.0023c-.4943-.0137-1.0209-.0932-1.5763-.3908-.4104-.2198-.7851-.5328-1.0537-.9663-.2702-.4361-.398-.9382-.398-1.4791 0-.9261.4719-1.6596 1.0856-2.1317.3118-.2398.6688-.421 1.0449-.5398V7c0-.5523.4477-1 1-1s1 .4477 1 1v.446c.8391.2322 1.5248.7805 2.0117 1.5312.3006.4633.1686 1.0825-.2947 1.3831s-1.0826.1686-1.3832-.2947c-.3345-.5157-.754-.7426-1.2582-.7425-.3369 0-.671.115-.9011.292"/></svg>