<svg xmlns="http://www.w3.org/2000/svg" width="24" height="24" fill="none" viewBox="0 0 24 24"><path fill="#000" fill-rule="evenodd" d="M6.849 1.309c1.947 0 3.525 1.578 3.525 3.525 0 .294-.036.58-.104.853l4.099 2.52A5.53 5.53 0 0 0 13.32 9.91L9.255 7.411c-.63.588-1.476.949-2.406.949-1.947 0-3.525-1.578-3.525-3.525S4.902 1.31 6.849 1.31m1.526 3.524c0-.842-.683-1.525-1.525-1.525s-1.525.683-1.525 1.525.682 1.525 1.524 1.525 1.525-.683 1.525-1.525M8 15.833c1.382.477 2.375 1.789 2.375 3.333 0 1.947-1.578 3.525-3.525 3.525s-3.525-1.578-3.525-3.525c0-1.654 1.139-3.042 2.676-3.422v-5.449c.277.043.561.065.849.065.395 0 .779-.041 1.151-.12zm.375 3.333c0-.842-.683-1.525-1.525-1.525s-1.525.683-1.525 1.525.683 1.525 1.525 1.525 1.525-.683 1.525-1.525M22 11.906c0-1.947-1.578-3.525-3.525-3.525s-3.525 1.578-3.525 3.525c0 .353.052.694.148 1.015l-4.143 2.548a5.53 5.53 0 0 1 1.049 1.703l4.191-2.577a3.51 3.51 0 0 0 2.28.837c1.947 0 3.525-1.578 3.525-3.525m-3.525-1.525c.842 0 1.525.683 1.525 1.525s-.683 1.525-1.525 1.525-1.525-.683-1.525-1.525.683-1.525 1.525-1.525" clip-rule="evenodd"/></svg>