<svg xmlns="http://www.w3.org/2000/svg" width="24" height="24" fill="none" viewBox="0 0 24 24"><path d="M0 24h24V0H0z"/><path fill="#000" fill-rule="evenodd" d="M6.6873 1.309c1.9469 0 3.5251 1.5782 3.5251 3.5251 0 .2942-.036.58-.104.8532l4.0992 2.5204a5.53 5.53 0 0 0-1.0488 1.703l-4.0658-2.5c-.63.5884-1.4758.9486-2.4058.9486-1.9468 0-3.525-1.5783-3.525-3.5252S4.7403 1.309 6.6871 1.309m1.5252 3.525c0-.8423-.6828-1.5251-1.5252-1.5251-.8422 0-1.525.6828-1.525 1.5251s.6827 1.5252 1.525 1.5252c.8424 0 1.5252-.6829 1.5252-1.5252m10.1003 3.5464c1.9469 0 3.5252 1.5783 3.5252 3.5252s-1.5783 3.5251-3.5252 3.5251a3.51 3.51 0 0 1-2.2801-.8366l-4.1913 2.577a5.52 5.52 0 0 0-1.0487-1.703l4.1433-2.5475a3.53 3.53 0 0 1-.1483-1.015c0-1.947 1.5783-3.5252 3.5251-3.5252M7.8379 15.833c1.3819.4769 2.3745 1.7891 2.3745 3.3331 0 1.9468-1.5783 3.5251-3.5252 3.5251s-3.525-1.5783-3.525-3.5251c0-1.6541 1.1391-3.0421 2.6757-3.4222v-5.4494a5.6 5.6 0 0 0 .8493.0649c.3946 0 .7796-.0414 1.1507-.12zm12-3.9272c0-.8423-.6828-1.5252-1.5252-1.5252s-1.5251.6829-1.5251 1.5252.6828 1.5251 1.5251 1.5251c.8424 0 1.5252-.6828 1.5252-1.5251M8.2124 19.166c0-.8424-.6828-1.5252-1.5252-1.5252-.8422 0-1.525.6828-1.525 1.5252s.6827 1.5251 1.525 1.5251c.8424 0 1.5252-.6828 1.5252-1.5251"/></svg>