<svg xmlns="http://www.w3.org/2000/svg" width="24" height="24" fill="none" viewBox="0 0 24 24"><path fill="#000" fill-rule="evenodd" d="M8.5 4c0-.5523-.4477-1-1-1H6C4.3431 3 3 4.3431 3 6v1.5c0 .5523.4477 1 1 1s1-.4477 1-1V6c0-.5523.4477-1 1-1h1.5c.5523 0 1-.4477 1-1M21 6c0-1.6051-1.2606-2.9158-2.8457-2.9961L18 3h-1.5c-.5523 0-1 .4477-1 1s.4477 1 1 1H18l.1025.0049C18.6067 5.0562 19 5.4823 19 6v1.5c0 .5523.4477 1 1 1s1-.4477 1-1zm-8.8115 4.2988c-.3976-.4258-.9585-.6708-1.6074-.6709-.6464.0001-1.2068.245-1.6036.6709-.3955.4249-.619 1.0188-.6191 1.7012 0 .6826.2234 1.2772.6191 1.7021.3968.4259.9573.6699 1.6036.67.6488-.0001 1.2098-.2443 1.6074-.67.3967-.425.6201-1.0194.6201-1.7021s-.2235-1.2762-.6201-1.7012m3.4775-.6709c.4626.0001.937.1242 1.3164.4004.3837.2794.6609.7079.7305 1.2881a.2.2 0 0 1-.0488.1563.203.203 0 0 1-.1504.0673h-1.0801a.2005.2005 0 0 1-.1934-.1504c-.067-.2595-.3347-.365-.5859-.3652-.2242 0-.3961.0856-.5166.2373-.1245.1571-.208.4027-.208.7383s.0835.5812.208.7383c.1205.1517.2924.2383.5166.2383.2568-.0002.536-.1094.6084-.4317l.0264-.0635a.2.2 0 0 1 .1689-.0937h1.0801a.2.2 0 0 1 .1484.0664.2.2 0 0 1 .0498.1553c-.0659.6062-.3456 1.0531-.7353 1.3447-.3856.2884-.8683.4179-1.335.418-.6541 0-1.2185-.2426-1.6181-.668-.3986-.4245-.6221-1.0187-.6221-1.7041s.2234-1.2796.6221-1.7041c.3996-.4255.9639-.668 1.6181-.668m-7.9238.2725a.2004.2004 0 0 0-.2002-.2002h-1.08a.2007.2007 0 0 0-.2003.2002v4.2002a.2013.2013 0 0 0 .2002.2002H7.542a.201.201 0 0 0 .2002-.2002zm2.3252 1.3642c.1198-.1536.2915-.2401.5137-.2402.2258.0001.3973.0878.5175.2412.1245.1589.2061.4048.2061.7344 0 .3295-.0817.5755-.2061.7344-.1202.1533-.2918.242-.5175.2422-.2222-.0001-.3939-.0876-.5137-.2412-.1239-.1591-.205-.4059-.2051-.7354 0-.3294.0812-.5763.2051-.7354M5 16.5c0-.5523-.4477-1-1-1s-1 .4477-1 1V18c0 1.6569 1.3431 3 3 3h1.5c.5523 0 1-.4477 1-1s-.4477-1-1-1H6c-.5523 0-1-.4477-1-1zm16 0c0-.5523-.4477-1-1-1s-1 .4477-1 1V18c0 .5523-.4477 1-1 1h-1.5c-.5523 0-1 .4477-1 1s.4477 1 1 1H18c1.6569 0 3-1.3431 3-3z"/></svg>