<svg xmlns="http://www.w3.org/2000/svg" width="24" height="24" fill="none" viewBox="0 0 24 24"><path fill="#000" d="M4 15.5c.552 0 1 .448 1 1V18c0 .552.448 1 1 1h1.5c.552 0 1 .448 1 1s-.448 1-1 1H6c-1.657 0-3-1.343-3-3v-1.5c0-.552.448-1 1-1m16 0c.552 0 1 .448 1 1V18c0 1.657-1.343 3-3 3h-1.5c-.552 0-1-.448-1-1s.448-1 1-1H18c.552 0 1-.448 1-1v-1.5c0-.552.448-1 1-1"/><path fill="#000" fill-rule="evenodd" d="M10.581 9.628c.649 0 1.21.245 1.607.671.397.425.62 1.019.62 1.701s-.223 1.277-.62 1.702c-.398.426-.959.67-1.607.67-.646 0-1.207-.244-1.604-.67-.396-.425-.619-1.02-.619-1.702s.224-1.276.619-1.701c.397-.426.957-.671 1.604-.671m0 1.396c-.222 0-.394.087-.514.24-.124.159-.205.406-.205.735 0 .33.081.576.205.735.12.154.292.241.514.241.226 0 .397-.089.518-.242.124-.159.206-.405.206-.734s-.082-.575-.206-.734c-.12-.153-.292-.241-.517-.241m5.084-1.396c.463 0 .937.124 1.316.4.384.279.661.708.731 1.288a.2.2 0 0 1-.049.156.203.203 0 0 1-.15.067h-1.08a.201.201 0 0 1-.193-.15c-.067-.259-.335-.365-.586-.365-.224 0-.396.086-.517.237-.124.157-.208.403-.208.738s.084.581.208.738c.121.152.292.238.517.238.257 0 .536-.109.608-.432l.026-.063a.2.2 0 0 1 .169-.094h1.08a.2.2 0 0 1 .148.066.2.2 0 0 1 .05.155c-.066.606-.346 1.053-.735 1.345-.386.288-.868.418-1.335.418-.654 0-1.218-.243-1.618-.668-.399-.424-.622-1.019-.622-1.704s.223-1.28.622-1.704c.4-.425.964-.668 1.618-.668" clip-rule="evenodd"/><path fill="#000" d="M7.542 9.7a.2.2 0 0 1 .2.2v4.2a.201.201 0 0 1-.2.2h-1.08a.201.201 0 0 1-.2-.2V9.9c0-.11.09-.2.2-.2zM7.5 3c.552 0 1 .448 1 1s-.448 1-1 1H6c-.552 0-1 .448-1 1v1.5c0 .552-.448 1-1 1s-1-.448-1-1V6c0-1.657 1.343-3 3-3zm10.654.004C19.739 3.084 21 4.395 21 6v1.5c0 .552-.448 1-1 1s-1-.448-1-1V6c0-.518-.393-.944-.897-.995L18 5h-1.5c-.552 0-1-.448-1-1s.448-1 1-1H18z"/></svg>