<svg xmlns="http://www.w3.org/2000/svg" width="24" height="24" fill="none" viewBox="0 0 24 24"><path fill="#000" fill-rule="evenodd" d="M21.6613 12.8815c-.2265-.4113-.5096-.7571-.8504-1.0375-.3407-.2815-.7113-.5193-1.1097-.7167a28 28 0 0 1-1.1098-.5782c-.3408-.1876-.6249-.3884-.8514-.6087-.2244-.2204-.3387-.4942-.3387-.8237 0-.3523.1225-.6327.3686-.8422.245-.2072.5981-.313 1.0593-.313.49 0 .9461.0632 1.3692.1898.4221.1265.7402.2672.9512.421l.6188-1.896c-.3356-.2203-.7639-.3872-1.2828-.5018C19.9668 6.0579 19.415 6 18.8292 6c-.5096 0-.9708.0666-1.3847.1986-.4128.132-.77.336-1.0737.6109-.3027.2738-.5343.6163-.698 1.0298-.1637.4113-.246.8967-.246 1.4574 0 .6491.1142 1.1826.3387 1.6004.2264.4167.5106.7658.8513 1.0462a5.57 5.57 0 0 0 1.1098.7091c.3984.192.769.3774 1.1098.5596s.6239.3807.8504.6011c.2254.2204.3387.5051.3387.8574 0 .4615-.1565.8051-.4685 1.031-.3129.2247-.7618.3381-1.3486.3381a3.9 3.9 0 0 1-.7278-.0676 5.9 5.9 0 0 1-.6692-.1636c-.2121-.0666-.4015-.1364-.5703-.2149-.1678-.0764-.3047-.1473-.4098-.215l-.6341 1.9299c.2594.1538.663.3065 1.2096.4603.5487.1549 1.1829.2313 1.9035.2313.5467 0 1.0501-.072 1.5062-.2149q.684-.2144 1.1674-.6578c.3212-.2978.5703-.6688.7484-1.1138.1781-.444.2677-.9742.2677-1.5906 0-.6142-.1132-1.128-.3387-1.5414M12.097 12c0-.5596-.0422-1.0822-.1225-1.5655-.0823-.4843-.21-.9065-.3829-1.2687-.172-.3633-.3964-.6469-.6754-.8498-.2779-.2018-.6177-.3044-1.0212-.3044-.7 0-1.2416.3218-1.6245.9644-.385.6426-.5776 1.6516-.5776 3.024 0 .5825.0443 1.1193.1297 1.6069.0865.4898.2183.9098.3953 1.2611.1781.3524.4067.6273.6836.8247.279.1986.6095.2968.9935.2968.7 0 1.2415-.3131 1.6265-.9393.383-.6273.5755-1.644.5755-3.0502m1.8109-2.4567c.1729.7374.2594 1.5556.2594 2.4567 0 1.9233-.3716 3.4047-1.1149 4.4433C12.3101 17.4807 11.257 18 9.895 18c-.729 0-1.362-.1429-1.8994-.4276q-.8048-.4288-1.3301-1.2208c-.351-.528-.6105-1.1596-.7835-1.896-.173-.7352-.2594-1.5534-.2594-2.4556 0-1.9222.3696-3.4036 1.1077-4.4422C7.4685 6.5204 8.5237 6 9.895 6c.7185 0 1.3476.143 1.8849.4287s.9822.6928 1.3384 1.2207c.3541.527.6177 1.1597.7896 1.8939M3.0048 6c-.314 0-.56.1036-.7382.313-.178.2085-.2666.4615-.2666.756 0 .2957.0885.5423.2666.7408.1781.1975.4242.2968.7382.2968s.5672-.0993.7628-.2968c.1936-.1985.2914-.445.2914-.7407 0-.2946-.0978-.5476-.2914-.756C3.572 6.1036 3.3188 6 3.0048 6m-.9776 12h2.059V9.1658h-2.059z" clip-rule="evenodd"/></svg>