<svg xmlns="http://www.w3.org/2000/svg" width="24" height="24" fill="none" viewBox="0 0 24 24"><path fill="#000" fill-rule="evenodd" d="M2 5c0-1.6569 1.3431-3 3-3h9c1.6569 0 3 1.3431 3 3v2h-1.5q-.2536.0001-.5.0275V5c0-.5523-.4477-1-1-1H5c-.5523 0-1 .4477-1 1v14c0 .5523.4477 1 1 1h6.0275a4.474 4.474 0 0 0 .7303 2H5c-1.6569 0-3-1.3431-3-3zm13 4.05a2.5 2.5 0 0 1 .5-.05h4c1.3807 0 2.5 1.1193 2.5 2.5v8c0 1.3807-1.1193 2.5-2.5 2.5h-4a2.5 2.5 0 0 1-.715-.1037c-.8762-.2611-1.5509-.9896-1.735-1.8963a2.5 2.5 0 0 1-.05-.5v-8c0-1.2095.8589-2.2184 2-2.45m.5 1.95a.5.5 0 0 0-.5.5v8a.5.5 0 0 0 .5.5h4a.5.5 0 0 0 .5-.5v-8a.5.5 0 0 0-.5-.5H19v.5a.5.5 0 0 1-.5.5h-2a.5.5 0 0 1-.5-.5V11zm-5 7c0 .5523-.4477 1-1 1s-1-.4477-1-1 .4477-1 1-1 1 .4477 1 1"/></svg>