<svg width="24" height="24" viewBox="0 0 24 24" fill="none" xmlns="http://www.w3.org/2000/svg">
<path d="M2 5C2 3.34315 3.34315 2 5 2H14C15.6569 2 17 3.34315 17 5V7H15.5C15.331 7 15.1642 7.00932 15 7.02746V5C15 4.44772 14.5523 4 14 4H5C4.44772 4 4 4.44772 4 5V19C4 19.5523 4.44772 20 5 20H11.0275C11.1087 20.7344 11.3666 21.4156 11.7578 22H5C3.34315 22 2 20.6569 2 19V5Z" fill="black"/>
<path fill-rule="evenodd" clip-rule="evenodd" d="M15.5 9C15.3288 9 15.1616 9.01722 15 9.05001C13.8589 9.28164 13 10.2905 13 11.5V19.5C13 19.6712 13.0172 19.8384 13.05 20C13.2341 20.9067 13.9088 21.6352 14.785 21.8963C15.0115 21.9638 15.2515 22 15.5 22H19.5C20.8807 22 22 20.8807 22 19.5V11.5C22 10.1193 20.8807 9 19.5 9H15.5ZM15 11.5C15 11.2239 15.2239 11 15.5 11H16V11.5C16 11.7761 16.2239 12 16.5 12H18.5C18.7761 12 19 11.7761 19 11.5V11H19.5C19.7761 11 20 11.2239 20 11.5V19.5C20 19.7761 19.7761 20 19.5 20H15.5C15.2239 20 15 19.7761 15 19.5V11.5Z" fill="black"/>
<path d="M10.5 18C10.5 18.5523 10.0523 19 9.5 19C8.94772 19 8.5 18.5523 8.5 18C8.5 17.4477 8.94772 17 9.5 17C10.0523 17 10.5 17.4477 10.5 18Z" fill="black"/>
</svg>
