<svg xmlns="http://www.w3.org/2000/svg" width="24" height="24" fill="none" viewBox="0 0 24 24"><path fill="#000" fill-rule="evenodd" d="M14 17.79a8.6 8.6 0 0 0 1.1125-.3224h.0001a8.6 8.6 0 0 0 .673-.2787l.0007-.0004A9 9 0 0 0 16 17.0854V20h2c.56 0 1 .44 1 1s-.44 1-1 1H3q-.4142 0-.7071-.2929-.1465-.1464-.2197-.3232T2 21V3c0-.56.44-1 1-1s1 .44 1 1v17h4v-2.9146q.106.053.2135.103l.0003.0002a8.5 8.5 0 0 0 .6735.2789v.0001h.0002q.5428.198 1.1125.3224V20h1v-2.0505A9.8 9.8 0 0 0 12 18q.5092 0 1-.0505V20h1zm.6872-15.2774Q13.4497 2 12 2t-2.6872.5126-2.2625 1.5377Q6.025 5.0753 5.5126 6.3128T5 9t.5125 2.6871v.0001q.5127 1.2374 1.5378 2.2625 1.025 1.0252 2.2625 1.5377T12 16t2.6872-.5126q.7993-.331 1.51-.876l4.0957 4.0957c.396.396 1.0182.396 1.4142 0s.396-1.0182 0-1.4142l-4.0957-4.0957q.5449-.7106.876-1.5098v-.0002Q19 10.4497 19 9t-.5125-2.687l-.0001-.0002q-.5125-1.2375-1.5377-2.2625-1.0251-1.0252-2.2625-1.5377M16 11.9959l.0097.0001q.388-.5067.624-1.0762l.0002-.0004Q17 10.0356 17 9t-.3661-1.9194q-.3661-.884-1.0984-1.6161-.7322-.7323-1.616-1.0983h-.0001Q13.0356 4 12 4t-1.9194.3661q-.884.3661-1.6161 1.0984-.7323.7322-1.0984 1.616v.0001Q7.0001 7.9645 7 9q0 1.0356.3661 1.9194.239.577.6339 1.0892V8c0-.56.44-1 1-1s1 .44 1 1v5.5996q.0401.0175.0806.0343.4409.1826.9194.2741V11c0-.56.44-1 1-1s1 .44 1 1v2.908q.4785-.0915.9192-.274l.0002-.0001.0063-.0026A5 5 0 0 0 14 13.5996V9c0-.56.44-1 1-1s1 .44 1 1z"/></svg>