<svg xmlns="http://www.w3.org/2000/svg" width="24" height="24" fill="none" viewBox="0 0 24 24"><path fill="#000" fill-rule="evenodd" d="M8 9.8738 2.8664 4.7403c-.3905-.3905-.3905-1.0237 0-1.4142s1.0237-.3905 1.4142 0l16.9668 16.9668c.3906.3905.3906 1.0237 0 1.4142s-1.0236.3905-1.4142 0L13.1261 15H9c-.5523 0-1-.4477-1-1v-2c-2.2091 0-4 1.7909-4 4s1.7909 4 4 4h6c.5523 0 1 .4477 1 1s-.4477 1-1 1H8c-3.3137 0-6-2.6863-6-6s2.6863-6 6-6zM11.126 13H10v-1.1261z" clip-rule="evenodd"/><path fill="#000" d="M21 13h-4.45l2 2H22c.5523 0 1-.4477 1-1v-4c0-.5523-.4477-1-1-1h-2V8c0-1.1046-.8954-2-2-2h-1.5858l-3.7071-3.7071c-.3905-.3905-1.0237-.3905-1.4142 0s-.3905 1.0237 0 1.4142L13.5858 6H9.55l2 2H18v2c0 .5523.4477 1 1 1h2z"/></svg>