<svg xmlns="http://www.w3.org/2000/svg" width="24" height="24" fill="none" viewBox="0 0 24 24"><path fill="#000" fill-rule="evenodd" d="M17.8 8c-.9941 0-1.8-.8059-1.8-1.8V3.8c0-.9941.8059-1.8 1.8-1.8h2.4c.9941 0 1.8.8059 1.8 1.8v2.4c0 .9941-.8059 1.8-1.8 1.8zm.2-4v2h2V4zm-.2 11c-.9941 0-1.8-.8059-1.8-1.8v-2.4c0-.9941.8059-1.8 1.8-1.8h2.4c.9941 0 1.8.8059 1.8 1.8v2.4c0 .9941-.8059 1.8-1.8 1.8zm-14 0c-.9941 0-1.8-.8059-1.8-1.8v-2.4C2 9.8059 2.8059 9 3.8 9h2.4c.9941 0 1.8.8059 1.8 1.8v2.4c0 .9941-.8059 1.8-1.8 1.8zm7 0c-.9941 0-1.8-.8059-1.8-1.8v-2.4c0-.9941.8059-1.8 1.8-1.8h2.4c.9941 0 1.8.8059 1.8 1.8v2.4c0 .9941-.8059 1.8-1.8 1.8zm7.2-4v2h2v-2zM4 11v2h2v-2zm7 0v2h2v-2zM3.8 22c-.9941 0-1.8-.8059-1.8-1.8v-2.4c0-.9941.8059-1.8 1.8-1.8h2.4c.9941 0 1.8.8059 1.8 1.8v2.4c0 .9941-.8059 1.8-1.8 1.8zM9 20.2c0 .9941.8059 1.8 1.8 1.8h2.4c.9941 0 1.8-.8059 1.8-1.8v-2.4c0-.9941-.8059-1.8-1.8-1.8h-2.4c-.9941 0-1.8.8059-1.8 1.8zm7 0c0 .9941.8059 1.8 1.8 1.8h2.4c.9941 0 1.8-.8059 1.8-1.8v-2.4c0-.9941-.8059-1.8-1.8-1.8h-2.4c-.9941 0-1.8.8059-1.8 1.8zM4 18v2h2v-2zm7 2v-2h2v2zm7 0v-2h2v2z"/></svg>