<svg width="24" height="24" viewBox="0 0 24 24" fill="none" xmlns="http://www.w3.org/2000/svg">
<path d="M3.11011 15.8977C3.11011 14.5116 4.24031 13.3879 5.63449 13.3879H10.6425C12.0367 13.3879 13.1669 14.5116 13.1669 15.8977V17.915C13.1669 18.2616 12.8843 18.5425 12.5358 18.5425H3.7412C3.39266 18.5425 3.11011 18.2616 3.11011 17.915V15.8977Z" fill="black"/>
<path d="M10.5709 9.6225C10.5709 10.9581 9.48195 12.0408 8.13861 12.0408C6.79528 12.0408 5.70629 10.9581 5.70629 9.6225C5.70629 8.28689 6.79528 7.20416 8.13861 7.20416C9.48195 7.20416 10.5709 8.28689 10.5709 9.6225Z" fill="black"/>
<path d="M18.265 8.19283C18.265 9.65657 17.0716 10.8432 15.5994 10.8432C14.1272 10.8432 12.9337 9.65657 12.9337 8.19283C12.9337 6.72908 14.1272 5.54248 15.5994 5.54248C17.0716 5.54248 18.265 6.72908 18.265 8.19283Z" fill="black"/>
<path d="M11.6834 12.495C11.4876 12.5721 11.5581 12.8139 11.7687 12.8139C13.1628 12.8139 14.2931 13.9376 14.2931 15.3238V17.9685L20.479 17.9685C20.8276 17.9685 21.1101 17.6876 21.1101 17.341V14.8293C21.1101 13.4431 19.9799 12.3194 18.5857 12.3194H12.6129C12.2847 12.3194 11.9711 12.3817 11.6834 12.495Z" fill="black"/>
</svg>
