<svg xmlns="http://www.w3.org/2000/svg" width="24" height="24" fill="none" viewBox="0 0 24 24"><path fill="#000" fill-rule="evenodd" d="M18.265 8.1928c0 1.4638-1.1934 2.6504-2.6656 2.6504s-2.6657-1.1866-2.6657-2.6504 1.1935-2.6503 2.6657-2.6503S18.265 6.729 18.265 8.1928m-7.6941 1.4297c0 1.3356-1.089 2.4183-2.4323 2.4183s-2.4323-1.0827-2.4323-2.4183 1.089-2.4183 2.4323-2.4183 2.4323 1.0827 2.4323 2.4183m1.1125 2.8725c-.1958.0771-.1253.3189.0853.3189 1.3941 0 2.5243 1.1237 2.5243 2.5099v2.6447h6.186c.3486 0 .6311-.2809.6311-.6275v-2.5117c0-1.3862-1.1302-2.5099-2.5244-2.5099h-5.9728c-.3282 0-.6418.0623-.9295.1756m-8.5733 3.4027c0-1.3861 1.1302-2.5098 2.5244-2.5098h5.008c1.3942 0 2.5244 1.1237 2.5244 2.5098v2.0173c0 .3466-.2826.6275-.6311.6275H3.7412c-.3485 0-.631-.2809-.631-.6275z"/></svg>