<svg width="24" height="24" viewBox="0 0 24 24" fill="none" xmlns="http://www.w3.org/2000/svg">
<path d="M5.5 9C5.22386 9 5 9.22386 5 9.5V10.5C5 10.7761 5.22386 11 5.5 11H6.5C6.77614 11 7 10.7761 7 10.5V9.5C7 9.22386 6.77614 9 6.5 9H5.5Z" fill="black"/>
<path d="M5 13.5C5 13.2239 5.22386 13 5.5 13H6.5C6.77614 13 7 13.2239 7 13.5V14.5C7 14.7761 6.77614 15 6.5 15H5.5C5.22386 15 5 14.7761 5 14.5V13.5Z" fill="black"/>
<path d="M9.5 9C9.22386 9 9 9.22386 9 9.5V10.5C9 10.7761 9.22386 11 9.5 11H10.5C10.7761 11 11 10.7761 11 10.5V9.5C11 9.22386 10.7761 9 10.5 9H9.5Z" fill="black"/>
<path d="M9 13.5C9 13.2239 9.22386 13 9.5 13H14.5C14.7761 13 15 13.2239 15 13.5V14.5C15 14.7761 14.7761 15 14.5 15H9.5C9.22386 15 9 14.7761 9 14.5V13.5Z" fill="black"/>
<path d="M13.5 9C13.2239 9 13 9.22386 13 9.5V10.5C13 10.7761 13.2239 11 13.5 11H14.5C14.7761 11 15 10.7761 15 10.5V9.5C15 9.22386 14.7761 9 14.5 9H13.5Z" fill="black"/>
<path d="M17 9.5C17 9.22386 17.2239 9 17.5 9H18.5C18.7761 9 19 9.22386 19 9.5V10.5C19 10.7761 18.7761 11 18.5 11H17.5C17.2239 11 17 10.7761 17 10.5V9.5Z" fill="black"/>
<path d="M17.5 13C17.2239 13 17 13.2239 17 13.5V14.5C17 14.7761 17.2239 15 17.5 15H18.5C18.7761 15 19 14.7761 19 14.5V13.5C19 13.2239 18.7761 13 18.5 13H17.5Z" fill="black"/>
<path fill-rule="evenodd" clip-rule="evenodd" d="M1 9C1 6.79086 2.79086 5 5 5H19C21.2091 5 23 6.79086 23 9V15C23 17.2091 21.2091 19 19 19H5C2.79086 19 1 17.2091 1 15V9ZM5 7H19C20.1046 7 21 7.89543 21 9V15C21 16.1046 20.1046 17 19 17H5C3.89543 17 3 16.1046 3 15V9C3 7.89543 3.89543 7 5 7Z" fill="black"/>
</svg>
