<svg xmlns="http://www.w3.org/2000/svg" width="24" height="24" fill="none" viewBox="0 0 24 24"><path fill="#000" fill-rule="evenodd" d="M20.1442 15.8339C18.705 18.8859 15.6014 21 12 21s-6.705-2.1141-8.1442-5.1661C2.2042 15.3418 1 13.8115 1 12s1.2042-3.3418 2.8558-3.834C5.295 5.1142 8.3986 3 12 3s6.705 2.1141 8.1442 5.166C21.7958 8.6583 23 10.1886 23 12s-1.2042 3.3418-2.8558 3.8339M18.716 13.98C17.8619 16.8818 15.1783 19 12 19s-5.862-2.1182-6.716-5.02A2 2 0 0 1 5 14c-1.1046 0-2-.8954-2-2s.8954-2 2-2q.1447.0001.284.02C6.138 7.1182 8.8217 5 12 5s5.8619 2.1182 6.716 5.02q.1393-.0199.284-.02c1.1046 0 2 .8954 2 2s-.8954 2-2 2a2 2 0 0 1-.284-.02M11 10.5c0 .8284-.6716 1.5-1.5 1.5S8 11.3284 8 10.5 8.6716 9 9.5 9s1.5.6716 1.5 1.5m5 0c0 .8284-.6716 1.5-1.5 1.5s-1.5-.6716-1.5-1.5.6716-1.5 1.5-1.5 1.5.6716 1.5 1.5M15 14c0 1.6569-1.3431 3-3 3s-3-1.3431-3-3z"/></svg>