<svg xmlns="http://www.w3.org/2000/svg" width="24" height="24" fill="none" viewBox="0 0 24 24"><defs><linearGradient id="a" x1="16" x2="3" y1="-1" y2="11" gradientUnits="userSpaceOnUse"><stop offset="0" stop-color="var(--icon--ai--violet, rgb(195,61,170))"/><stop offset="1" stop-color="var(--icon--ai--marina, rgb(66,105,231))"/></linearGradient><linearGradient id="b" x1="2" x2="10" y1="12" y2="12" gradientUnits="userSpaceOnUse"><stop offset="0" stop-color="var(--icon--ai--green, rgb(41,204,177))"/><stop offset="1" stop-color="var(--icon--ai--green_0, rgb(41,204,177))" stop-opacity="0"/></linearGradient></defs><path fill="url(#a)" fill-rule="evenodd" d="M14.4608 2.1934a1.001 1.001 0 0 1 1.2988.1016c.3481.3494.3898.9013.0977 1.2988l-1.1621 1.579c-1.0918 1.4851-1.4754 3.3188-1.1514 5.0489.0875.4649.2266.9229.416 1.3643.1926.4487.4371.8812.7354 1.2871l.6025.8193a41 41 0 0 0 1.5918-1.7734c.8547-1.0104 1.5666-1.9595 2.0957-2.7871.4772-.7466.7779-1.3498.919-1.7813-.4315.1413-1.0344.4431-1.7803.92-.7605.486-1.6248 1.1244-2.544 1.8876a4.507 4.507 0 0 1 .1094-2.6308c.4725-.3514.9273-.6665 1.3574-.9414.827-.5287 1.6108-.9382 2.2862-1.1514.3364-.1061.6998-.1819 1.0556-.169.3628.0134.7946.1238 1.1368.4659.2466.2469.3708.5407.4267.8213a2 2 0 0 1 .0391.4482 2.76 2.76 0 0 1-.0401.4014c-.0303.1777-.0757.353-.1289.5214-.2132.6754-.6228 1.4594-1.1513 2.2862-.124.194-.2583.3915-.3985.5947-.0244.0355-.0483.0717-.0732.1074a25 25 0 0 1-.3584.5c-.0556.0758-.1125.1518-.1699.2286-.107.1425-.2178.2861-.3311.4316-.0735.0946-.1475.1904-.2236.2861q-.0659.0823-.1328.1651c-.8808 1.0942-1.9219 2.2578-3.0801 3.416a46 46 0 0 1-1.9961 1.8769l.001.001c-.009.008-.0184.0155-.0274.0234a39 39 0 0 1-1.5312 1.2891 33 33 0 0 1-.3018.2373c-.3916.3052-.7727.588-1.1406.8457-.0503.0352-.1007.0693-.1504.1035-.1992.1372-.3927.269-.583.3907-.8269.5285-1.6108.9381-2.2861 1.1513-.3364.1062-.7008.1809-1.0567.168-.3624-.0134-.7938-.1234-1.1357-.4648-.342-.3421-.4525-.7741-.4658-1.1368-.013-.3558.0628-.7192.1689-1.0556.2131-.6754.6228-1.4592 1.1514-2.2862.2684-.4199.5746-.8638.916-1.3242a4.505 4.505 0 0 1 2.6621-.1474c-.765.9208-1.4055 1.786-1.8926 2.5478-.477.7461-.7787 1.3498-.9199 1.7813.0327-.0107.066-.0236.1006-.0362.189-.0684.4074-.1633.6523-.2881.3027-.1542.6471-.352 1.0284-.5957.8452-.5403 1.8162-1.2715 2.8505-2.1504a41.3 41.3 0 0 0 1.7383-1.5644l-.9092-.6416a6.5 6.5 0 0 0-1.2197-.6768 6.53 6.53 0 0 0-1.0996-.3535c-1.7565-.3948-3.6415-.0513-5.1748 1.0303l-1.6992 1.1992a1.001 1.001 0 0 1-1.2813-.1084 1.0006 1.0006 0 0 1-.1162-1.2803l1.211-1.7402c1.551-2.2306 1.5508-5.1912 0-7.4219l-1.211-1.7402a1.0014 1.0014 0 0 1 .123-1.2871 1.0004 1.0004 0 0 1 1.2882-.0918l1.5966 1.167c2.2846 1.6697 5.3874 1.6699 7.6719 0zm6.3857 12.2754c-.4532-.315-1.0762-.2031-1.3916.25-.4597.6606-1.3392 1.6439-2.3193 2.623-.9751.9741-1.9875 1.8816-2.6826 2.4004-.4423.3303-.5331.9569-.2031 1.3994.3304.4422.9579.5334 1.4004.2032.8046-.6007 1.8928-1.5834 2.8984-2.5879 1.0008-.9998 1.9834-2.0845 2.5478-2.8955.3154-.4532.2029-1.0771-.25-1.3926"/><path fill="url(#b)" fill-rule="evenodd" d="M14.4608 2.1934a1.001 1.001 0 0 1 1.2988.1016c.3481.3494.3898.9013.0977 1.2988l-1.1621 1.579c-1.0918 1.4851-1.4754 3.3188-1.1514 5.0489.0875.4649.2266.9229.416 1.3643.1926.4487.4371.8812.7354 1.2871l.6025.8193a41 41 0 0 0 1.5918-1.7734c.8547-1.0104 1.5666-1.9595 2.0957-2.7871.4772-.7466.7779-1.3498.919-1.7813-.4315.1413-1.0344.4431-1.7803.92-.7605.486-1.6248 1.1244-2.544 1.8876a4.507 4.507 0 0 1 .1094-2.6308c.4725-.3514.9273-.6665 1.3574-.9414.827-.5287 1.6108-.9382 2.2862-1.1514.3364-.1061.6998-.1819 1.0556-.169.3628.0134.7946.1238 1.1368.4659.2466.2469.3708.5407.4267.8213a2 2 0 0 1 .0391.4482 2.76 2.76 0 0 1-.0401.4014c-.0303.1777-.0757.353-.1289.5214-.2132.6754-.6228 1.4594-1.1513 2.2862-.124.194-.2583.3915-.3985.5947-.0244.0355-.0483.0717-.0732.1074a25 25 0 0 1-.3584.5c-.0556.0758-.1125.1518-.1699.2286-.107.1425-.2178.2861-.3311.4316-.0735.0946-.1475.1904-.2236.2861q-.0659.0823-.1328.1651c-.8808 1.0942-1.9219 2.2578-3.0801 3.416a46 46 0 0 1-1.9961 1.8769l.001.001c-.009.008-.0184.0155-.0274.0234a39 39 0 0 1-1.5312 1.2891 33 33 0 0 1-.3018.2373c-.3916.3052-.7727.588-1.1406.8457-.0503.0352-.1007.0693-.1504.1035-.1992.1372-.3927.269-.583.3907-.8269.5285-1.6108.9381-2.2861 1.1513-.3364.1062-.7008.1809-1.0567.168-.3624-.0134-.7938-.1234-1.1357-.4648-.342-.3421-.4525-.7741-.4658-1.1368-.013-.3558.0628-.7192.1689-1.0556.2131-.6754.6228-1.4592 1.1514-2.2862.2684-.4199.5746-.8638.916-1.3242a4.505 4.505 0 0 1 2.6621-.1474c-.765.9208-1.4055 1.786-1.8926 2.5478-.477.7461-.7787 1.3498-.9199 1.7813.0327-.0107.066-.0236.1006-.0362.189-.0684.4074-.1633.6523-.2881.3027-.1542.6471-.352 1.0284-.5957.8452-.5403 1.8162-1.2715 2.8505-2.1504a41.3 41.3 0 0 0 1.7383-1.5644l-.9092-.6416a6.5 6.5 0 0 0-1.2197-.6768 6.53 6.53 0 0 0-1.0996-.3535c-1.7565-.3948-3.6415-.0513-5.1748 1.0303l-1.6992 1.1992a1.001 1.001 0 0 1-1.2813-.1084 1.0006 1.0006 0 0 1-.1162-1.2803l1.211-1.7402c1.551-2.2306 1.5508-5.1912 0-7.4219l-1.211-1.7402a1.0014 1.0014 0 0 1 .123-1.2871 1.0004 1.0004 0 0 1 1.2882-.0918l1.5966 1.167c2.2846 1.6697 5.3874 1.6699 7.6719 0zm6.3857 12.2754c-.4532-.315-1.0762-.2031-1.3916.25-.4597.6606-1.3392 1.6439-2.3193 2.623-.9751.9741-1.9875 1.8816-2.6826 2.4004-.4423.3303-.5331.9569-.2031 1.3994.3304.4422.9579.5334 1.4004.2032.8046-.6007 1.8928-1.5834 2.8984-2.5879 1.0008-.9998 1.9834-2.0845 2.5478-2.8955.3154-.4532.2029-1.0771-.25-1.3926"/></svg>