<svg xmlns="http://www.w3.org/2000/svg" width="24" height="24" fill="none" viewBox="0 0 24 24"><path fill="#000" fill-rule="evenodd" d="M15.7596 2.295a1.001 1.001 0 0 0-1.2988-.1016l-1.5957 1.167c-2.2845 1.6699-5.3873 1.6697-7.6719 0l-1.5966-1.167a1.0005 1.0005 0 0 0-1.2881.0918 1.0015 1.0015 0 0 0-.123 1.2871l1.2108 1.7402c1.551 2.2307 1.551 5.1913 0 7.4219l-1.2109 1.7402a1.0006 1.0006 0 0 0 .1162 1.2803 1.001 1.001 0 0 0 1.2813.1084l1.6992-1.1992c1.5333-1.0816 3.4183-1.4251 5.1748-1.0303.3738.0844.742.2026 1.0996.3535.4237.1789.8331.404 1.2197.6768l.9092.6416a41.3 41.3 0 0 1-1.7383 1.5644c-1.0343.8789-2.0053 1.6101-2.8505 2.1504-.3813.2437-.7257.4415-1.0284.5957-.245.1248-.4632.2197-.6523.2881-.0347.0126-.0679.0255-.1006.0362.1412-.4315.443-1.0352.92-1.7813.487-.7618 1.1276-1.627 1.8925-2.5478a4.505 4.505 0 0 0-2.6621.1474c-.3414.4604-.6476.9043-.916 1.3242-.5286.827-.9382 1.6108-1.1514 2.2862-.1061.3364-.1819.6998-.169 1.0556.0134.3627.1239.7947.4659 1.1368.3419.3414.7733.4514 1.1357.4648.3559.0129.7203-.0618 1.0567-.168.6753-.2132 1.4592-.6228 2.2861-1.1513.1903-.1217.3838-.2535.583-.3907.0498-.0342.1001-.0683.1504-.1035.3679-.2577.749-.5405 1.1406-.8457q.15-.1165.3018-.2373.1307-.1044.2627-.2119c.4149-.3371.839-.6968 1.2685-1.0771.009-.008.0184-.0155.0274-.0235l-.001-.001a46 46 0 0 0 1.9961-1.8769c1.1582-1.1582 2.1993-2.3218 3.0801-3.416q.067-.0828.1328-.1651c.0761-.0957.1501-.1915.2236-.2861.1133-.1455.2241-.2891.3311-.4316q.0863-.115.1699-.2286.1865-.2538.3584-.5c.0249-.0357.0488-.0719.0732-.1074.1402-.2032.2745-.4007.3985-.5947.5285-.8268.9381-1.6108 1.1513-2.2861.0532-.1685.0986-.3438.1289-.5215a2.76 2.76 0 0 0 .0401-.4014 2 2 0 0 0-.0391-.4482c-.0559-.2806-.1801-.5744-.4267-.8213-.3421-.3421-.774-.4525-1.1368-.4658-.3558-.013-.7192.0628-1.0556.1689-.6754.2132-1.4592.6227-2.2861 1.1514-.4302.275-.885.59-1.3575.9414a4.506 4.506 0 0 0-.1093 2.6308c.9191-.7632 1.7834-1.4015 2.5439-1.8877.7459-.4768 1.3489-.7786 1.7803-.9199-.1411.4315-.4418 1.0347-.919 1.7813-.5291.8276-1.241 1.7767-2.0957 2.7871a41 41 0 0 1-1.5918 1.7734l-.6025-.8193a6.5 6.5 0 0 1-.7354-1.2871 6.52 6.52 0 0 1-.416-1.3643c-.324-1.7301.0596-3.5638 1.1514-5.0488l1.1621-1.5791a1.001 1.001 0 0 0-.0977-1.2988m5.087 12.1738c-.4533-.315-1.0763-.2031-1.3916.25-.4598.6606-1.3392 1.6439-2.3194 2.623-.9751.9741-1.9875 1.8816-2.6826 2.4004-.4423.3303-.5331.9569-.2031 1.3994.3304.4422.958.5334 1.4004.2032.8046-.6007 1.8928-1.5834 2.8984-2.5879 1.0008-.9998 1.9834-2.0845 2.5479-2.8955.3153-.4532.2029-1.077-.25-1.3926"/></svg>