<svg width="24" height="24" viewBox="0 0 24 24" fill="none" xmlns="http://www.w3.org/2000/svg">
<path d="M14.461 2.19339C14.8594 1.90232 15.4114 1.94569 15.7599 2.29495C16.108 2.64438 16.1497 3.19631 15.8575 3.59378L14.6954 5.17288C13.6037 6.65793 13.22 8.49158 13.5441 10.2217C13.6315 10.6866 13.7707 11.1446 13.9601 11.586C14.1527 12.0347 14.3971 12.4672 14.6954 12.8731L15.298 13.6924C15.871 13.0894 16.4035 12.4942 16.8898 11.919C17.7444 10.9086 18.4563 9.95949 18.9855 9.13186C19.4627 8.38531 19.7633 7.7821 19.9044 7.35061C19.473 7.49185 18.8701 7.79371 18.1241 8.27053C17.3637 8.75667 16.4993 9.39496 15.5802 10.1582C15.3547 9.2928 15.391 8.37553 15.6896 7.52737C16.162 7.17595 16.6169 6.86093 17.047 6.58596C17.874 6.05732 18.6577 5.64779 19.3331 5.4346C19.6696 5.32845 20.0329 5.25272 20.3888 5.26565C20.7515 5.27899 21.1834 5.38937 21.5255 5.73147C21.7721 5.97837 21.8964 6.27221 21.9523 6.55276C21.9738 6.66071 21.9867 6.76645 21.9903 6.86721C21.9919 6.91143 21.9923 6.95662 21.9913 7.001C21.9883 7.13494 21.974 7.26936 21.9513 7.40237C21.9209 7.58006 21.8755 7.7554 21.8224 7.92385C21.6091 8.59917 21.1995 9.38319 20.671 10.21C20.547 10.404 20.4128 10.6015 20.2726 10.8047C20.2481 10.8402 20.2243 10.8764 20.1993 10.9121C20.0848 11.0762 19.9653 11.243 19.8409 11.4121C19.7854 11.4879 19.7285 11.5639 19.671 11.6407C19.564 11.7832 19.4533 11.9268 19.34 12.0723C19.2664 12.1669 19.1924 12.2627 19.1163 12.3584C19.0726 12.4133 19.0281 12.4682 18.9835 12.5235C18.1027 13.6177 17.0616 14.7813 15.9034 15.9395C15.2356 16.6073 14.5639 17.234 13.9073 17.8164L13.9083 17.8174C13.8993 17.8254 13.8899 17.8329 13.881 17.8408C13.4515 18.2212 13.0273 18.5809 12.6124 18.918C12.5244 18.9896 12.4369 19.0604 12.3497 19.1299C12.2485 19.2105 12.1479 19.2895 12.048 19.3672C11.6564 19.6724 11.2752 19.9552 10.9073 20.2129C10.8571 20.2481 10.8067 20.2822 10.7569 20.3164C10.5578 20.4536 10.3642 20.5854 10.1739 20.7071C9.34706 21.2356 8.56315 21.6452 7.88781 21.8584C7.5514 21.9646 7.18699 22.0393 6.83117 22.0264C6.46874 22.013 6.0373 21.903 5.69542 21.5616C5.35342 21.2195 5.24299 20.7875 5.2296 20.4248C5.21667 20.069 5.29244 19.7056 5.39855 19.3692C5.6117 18.6938 6.02134 17.91 6.54992 17.083C6.81834 16.6631 7.12454 16.2192 7.46593 15.7588C8.321 15.4417 9.2503 15.3909 10.128 15.6114C9.36311 16.5322 8.7225 17.3974 8.23546 18.1592C7.75851 18.9053 7.45675 19.509 7.31554 19.9405C7.34825 19.9298 7.38146 19.9169 7.41613 19.9043C7.60519 19.8359 7.8235 19.741 8.06847 19.6162C8.37112 19.462 8.71556 19.2642 9.09679 19.0205C9.94201 18.4802 10.9131 17.749 11.9474 16.8701C12.5118 16.3908 13.0952 15.8678 13.6857 15.3057L12.7765 14.6641C12.3898 14.3913 11.9804 14.1662 11.5568 13.9873C11.1991 13.8364 10.8309 13.7182 10.4571 13.6338C8.70068 13.239 6.81567 13.5825 5.28234 14.6641L3.58312 15.8633C3.18668 16.1426 2.64609 16.0966 2.30187 15.7549C1.95797 15.4129 1.90875 14.8729 2.18566 14.4746L3.3966 12.7344C4.94763 10.5038 4.94747 7.54321 3.3966 5.31253L2.18566 3.57229C1.90687 3.17124 1.9593 2.62649 2.30871 2.28518C2.65807 1.9445 3.20265 1.90565 3.59679 2.19339L5.19347 3.36038C7.47801 5.03014 10.5809 5.03026 12.8653 3.36038L14.461 2.19339Z" fill="black"/>
<path d="M19.4552 14.7188C19.7705 14.2657 20.3935 14.1538 20.8468 14.4688C21.2997 14.7843 21.4121 15.4082 21.0968 15.8614C20.5324 16.6724 19.5497 17.7571 18.5489 18.7569C17.5433 19.7614 16.4551 20.7441 15.6505 21.3448C15.2081 21.675 14.5806 21.5838 14.2501 21.1416C13.9202 20.6991 14.011 20.0725 14.4532 19.7422C15.1483 19.2234 16.1607 18.3159 17.1359 17.3418C18.116 16.3627 18.9955 15.3794 19.4552 14.7188Z" fill="black"/>
</svg>
