<svg xmlns="http://www.w3.org/2000/svg" width="24" height="24" fill="none" viewBox="0 0 24 24"><path fill="#000" fill-rule="evenodd" d="M11.0001 1.848a2 2 0 0 1 2 0l7.291 4.2095a2 2 0 0 1 1 1.7321v8.419a2 2 0 0 1-1 1.7321l-7.291 4.2095a2 2 0 0 1-2 0L3.709 17.9407a2 2 0 0 1-1-1.7321v-8.419a2 2 0 0 1 1-1.732zm1.0912 4.1531C9.8318 6.0011 8 7.833 8 10.0925c0 1.8816 1.2702 3.4666 3 3.9442v3.9644c0 .5523.4477 1 1 1s1-.4477 1-1v-3.9185c1.8223-.4133 3.1827-2.0428 3.1827-3.9901 0-2.2596-1.8318-4.0914-4.0914-4.0914M10 10.0925c0-1.155.9363-2.0914 2.0913-2.0914s2.0914.9364 2.0914 2.0914-.9364 2.0913-2.0914 2.0913S10 11.2475 10 10.0925"/></svg>