<svg width="24" height="24" viewBox="0 0 24 24" fill="none" xmlns="http://www.w3.org/2000/svg">
<path d="M12.0913 8.00115C10.9363 8.00115 10 8.93747 10 10.0925C10 11.2475 10.9363 12.1838 12.0913 12.1838C13.2464 12.1838 14.1827 11.2475 14.1827 10.0925C14.1827 8.93747 13.2464 8.00115 12.0913 8.00115Z" fill="black"/>
<path fill-rule="evenodd" clip-rule="evenodd" d="M13.0001 1.84803C12.3813 1.49076 11.6189 1.49076 11.0001 1.84803L3.70898 6.05754C3.09018 6.4148 2.70898 7.07506 2.70898 7.78959V16.2086C2.70898 16.9231 3.09018 17.5834 3.70898 17.9407L11.0001 22.1502C11.6189 22.5074 12.3813 22.5074 13.0001 22.1502L20.2912 17.9407C20.91 17.5834 21.2912 16.9231 21.2912 16.2086V7.78959C21.2912 7.07506 20.91 6.4148 20.2912 6.05754L13.0001 1.84803ZM8 10.0925C8 7.8329 9.83175 6.00115 12.0913 6.00115C14.3509 6.00115 16.1827 7.8329 16.1827 10.0925C16.1827 12.0398 14.8223 13.6693 13 14.0826V18.0011C13 18.5534 12.5523 19.0011 12 19.0011C11.4477 19.0011 11 18.5534 11 18.0011V14.0367C9.27024 13.5591 8 11.9741 8 10.0925Z" fill="black"/>
</svg>
