<svg xmlns="http://www.w3.org/2000/svg" width="24" height="24" fill="none" viewBox="0 0 24 24"><path fill="#000" fill-rule="evenodd" d="M6 3C3.7909 3 2 4.7909 2 7v8c0 2.2091 1.7909 4 4 4h2.5858l2.7071 2.7071c.3905.3905 1.0237.3905 1.4142 0L15.4142 19H18c2.2091 0 4-1.7909 4-4V7c0-2.2091-1.7909-4-4-4zM4 7c0-1.1046.8954-2 2-2h12c1.1046 0 2 .8954 2 2v8c0 1.1046-.8954 2-2 2h-3c-.2652 0-.5196.1054-.7071.2929L12 19.5858l-2.2929-2.2929A1 1 0 0 0 9 17H6c-1.1046 0-2-.8954-2-2zm8.9191.1082a.9999.9999 0 0 0-1.8382 0l-3 7c-.2176.5076.0176 1.0955.5252 1.313s1.0955-.0176 1.313-.5252l.5974-1.3939h2.967l.5974 1.3939c.2175.5076.8054.7428 1.313.5252.5076-.2175.7428-.8054.5252-1.313zM12 10.0407l.6263 1.4614h-1.2526z"/></svg>