<svg xmlns="http://www.w3.org/2000/svg" width="24" height="24" fill="none" viewBox="0 0 24 24"><path fill="#000" fill-rule="evenodd" d="M10.336 2.761a3 3 0 0 1 3.3282 0l6.3945 4.263c1.7812 1.1875 1.7812 3.8049 0 4.9924l-6.3945 4.263a3 3 0 0 1-3.3282 0l-6.3945-4.263c-1.7812-1.1875-1.7812-3.8049 0-4.9923zm2.2188 1.6641a1 1 0 0 0-1.1094 0l-6.3945 4.263c-.5938.3959-.5938 1.2684 0 1.6642l6.3945 4.263a1 1 0 0 0 1.1094 0l6.3945-4.263c.5938-.3958.5938-1.2683 0-1.6641zM2.8345 15.6323c.3063-.4595.9272-.5837 1.3867-.2774l5.462 3.6413a4 4 0 0 0 4.5437-.0732l4.9696-3.5497c.4494-.321 1.074-.217 1.395.2325s.2169 1.0739-.2325 1.3949l-4.9696 3.5497c-2.0285 1.4489-4.7415 1.4927-6.8156.1099l-5.462-3.6413c-.4595-.3063-.5837-.9272-.2773-1.3867"/></svg>