<svg xmlns="http://www.w3.org/2000/svg" width="24" height="24" fill="none" viewBox="0 0 24 24"><path fill="#000" fill-rule="evenodd" d="M4.8 21c-.9941 0-1.8-.8059-1.8-1.8V4.8C3 3.8059 3.8059 3 4.8 3h4.4c.9941 0 1.8.8059 1.8 1.8v14.4c0 .9941-.8059 1.8-1.8 1.8zm10-18c-.9941 0-1.8.8059-1.8 1.8v4.4c0 .9941.8059 1.8 1.8 1.8h4.4c.9941 0 1.8-.8059 1.8-1.8V4.8c0-.9941-.8059-1.8-1.8-1.8zM5 19h4V5H5zM15 5h4v4h-4zm-.2 8c-.9941 0-1.8.8059-1.8 1.8v4.4c0 .9941.8059 1.8 1.8 1.8h4.4c.9941 0 1.8-.8059 1.8-1.8v-4.4c0-.9941-.8059-1.8-1.8-1.8zm.2 2h4v4h-4z"/></svg>