<svg xmlns="http://www.w3.org/2000/svg" width="24" height="24" fill="none" viewBox="0 0 24 24"><path fill="#000" fill-rule="evenodd" d="M18.25 1.9932c2.0711 0 3.75 1.6789 3.75 3.75v8.5046q0 .0325-.0005.0646l.0003 6.1912c.0001 1.3685-1.6823 2.0223-2.6064 1.0129l-2.8497-3.1127a1.25 1.25 0 0 0-.922-.406H5.75c-2.071 0-3.75-1.6789-3.75-3.75V5.7432c0-2.0711 1.679-3.75 3.75-3.75zm1.75 3.75v8.5046l-.0005.0478.0002 4.9214-1.9808-2.1637q-.4831-.5277-1.0824-.7916t-1.3148-.2639H5.75q-.3625 0-.6718-.1281-.3094-.1282-.5656-.3844t-.3845-.5657Q4 14.6103 4 14.2478V5.7432q0-.3625.1281-.6718.1282-.3094.3845-.5657t.5656-.3844.6718-.1281h12.5q.3624 0 .6718.1281t.5656.3844.3845.5657Q20 5.3807 20 5.7432m-9.0292 4.1624.18-.178q.4052-.4007.5387-.8775t-.0047-1.0296l-.0549-.22q-.0836-.3338-.2609-.6067-.1773-.2727-.4486-.4846t-.579-.3177-.6519-.1059h-.7492q-.4013 0-.6913.2773-.2898.2774-.3078.6782-.0185.4167.0883 1.0137.0234.1315.0521.262.219.9984.7359 1.9314.5272.9516 1.3282 1.7527.6765.6765 1.4725 1.1534.1075.0644.2173.1252a1 1 0 0 0 .1644.0884q.6579.343 1.3918.559.951.2797 1.6688.2797.4141 0 .7071-.2929t.2929-.707v-.7495q0-.3443-.1059-.652-.106-.3077-.3176-.5789-.2118-.2713-.4847-.4486-.2728-.1774-.6066-.2609l-.2233-.0558q-.5495-.1374-1.0242-.0058-.475.1315-.8753.532l-.1822.1822a5.7 5.7 0 0 1-.6807-.5827 6.1 6.1 0 0 1-.5892-.6811"/></svg>