<svg width="24" height="24" viewBox="0 0 24 24" fill="none" xmlns="http://www.w3.org/2000/svg">
<path fill-rule="evenodd" clip-rule="evenodd" d="M2 12C2 9.23858 4.23858 7 7 7C9.41896 7 11.4367 8.71776 11.9 11H21C21.5523 11 22 11.4477 22 12C22 12.5523 21.5523 13 21 13H20V15.2107C20 15.763 19.5523 16.2107 19 16.2107C18.4477 16.2107 18 15.763 18 15.2107V13H11.9C11.4367 15.2822 9.41896 17 7 17C4.23858 17 2 14.7614 2 12ZM7 9C5.34315 9 4 10.3431 4 12C4 13.6569 5.34315 15 7 15C8.65685 15 10 13.6569 10 12C10 10.3431 8.65685 9 7 9Z" fill="black"/>
</svg>
