<svg width="24" height="24" viewBox="0 0 24 24" fill="none" xmlns="http://www.w3.org/2000/svg">
<path d="M8 7C8 6.44772 8.44772 6 9 6H15C15.5523 6 16 6.44772 16 7C16 7.55228 15.5523 8 15 8H9C8.44772 8 8 7.55228 8 7Z" fill="black"/>
<path d="M8 10C8 9.44772 8.44772 9 9 9H13C13.5523 9 14 9.44772 14 10C14 10.5523 13.5523 11 13 11H9C8.44772 11 8 10.5523 8 10Z" fill="black"/>
<path d="M8 14C8 13.4477 8.44772 13 9 13H10C10.5523 13 11 13.4477 11 14C11 14.5523 10.5523 15 10 15H9C8.44772 15 8 14.5523 8 14Z" fill="black"/>
<path d="M15 19C16.1046 19 17 18.1046 17 17C17 15.8954 16.1046 15 15 15C13.8954 15 13 15.8954 13 17C13 18.1046 13.8954 19 15 19Z" fill="black"/>
<path fill-rule="evenodd" clip-rule="evenodd" d="M4 5C4 3.34315 5.34315 2 7 2H17C18.6569 2 20 3.34315 20 5V19C20 20.6569 18.6569 22 17 22H7C5.34315 22 4 20.6569 4 19V5ZM7 4C6.44772 4 6 4.44772 6 5V19C6 19.5523 6.44772 20 7 20H17C17.5523 20 18 19.5523 18 19V5C18 4.44772 17.5523 4 17 4H7Z" fill="black"/>
</svg>
