<svg xmlns="http://www.w3.org/2000/svg" width="24" height="24" fill="none" viewBox="0 0 24 24"><path fill="#000" d="M8 7c0-.552.448-1 1-1h6c.552 0 1 .448 1 1s-.448 1-1 1H9c-.552 0-1-.448-1-1m0 3c0-.552.448-1 1-1h4c.552 0 1 .448 1 1s-.448 1-1 1H9c-.552 0-1-.448-1-1m0 4c0-.552.448-1 1-1h1c.552 0 1 .448 1 1s-.448 1-1 1H9c-.552 0-1-.448-1-1m7 5c1.105 0 2-.895 2-2s-.895-2-2-2-2 .895-2 2 .895 2 2 2"/><path fill="#000" fill-rule="evenodd" d="M4 5c0-1.6568 1.3431-3 3-3h10c1.6569 0 3 1.3432 3 3v14c0 1.6569-1.3431 3-3 3H7c-1.6569 0-3-1.3431-3-3zm3-1c-.5523 0-1 .4477-1 1v14c0 .5523.4477 1 1 1h10c.5523 0 1-.4477 1-1V5c0-.5523-.4477-1-1-1z" clip-rule="evenodd"/></svg>