<svg width="24" height="24" viewBox="0 0 24 24" fill="none" xmlns="http://www.w3.org/2000/svg">
<path d="M15.1218 2.2161C15.1599 1.78161 14.912 1.37253 14.5092 1.20522C14.1064 1.0379 13.6416 1.15095 13.3607 1.48458L4.10669 12.4737C3.85615 12.7712 3.80085 13.187 3.96491 13.5396C4.12898 13.8923 4.48264 14.1178 4.8716 14.1178H8.52933L7.86621 21.6772C7.8281 22.1117 8.07599 22.5208 8.47878 22.6881C8.88158 22.8554 9.34635 22.7424 9.6273 22.4087L18.8813 11.4196C19.1318 11.1221 19.1871 10.7063 19.0231 10.3537C18.859 10.001 18.5053 9.7755 18.1164 9.7755H14.4587L15.1218 2.2161Z" fill="black"/>
</svg>
