<svg width="24" height="24" viewBox="0 0 24 24" fill="none" xmlns="http://www.w3.org/2000/svg">
<path d="M13 2C13 1.44772 12.5523 1 12 1C11.4477 1 11 1.44772 11 2V4C11 4.55228 11.4477 5 12 5C12.5523 5 13 4.55228 13 4V2Z" fill="black"/>
<path fill-rule="evenodd" clip-rule="evenodd" d="M18 12C18 15.3137 15.3137 18 12 18C8.68629 18 6 15.3137 6 12C6 8.68629 8.68629 6 12 6C15.3137 6 18 8.68629 18 12ZM16 12C16 13.8638 14.7252 15.4299 13 15.874V8.12602C14.7252 8.57006 16 10.1362 16 12ZM11 8.12602V15.874C9.27477 15.4299 8 13.8638 8 12C8 10.1362 9.27477 8.57006 11 8.12602Z" fill="black"/>
<path d="M12 19C12.5523 19 13 19.4477 13 20V22C13 22.5523 12.5523 23 12 23C11.4477 23 11 22.5523 11 22V20C11 19.4477 11.4477 19 12 19Z" fill="black"/>
<path d="M2 11C1.44772 11 1 11.4477 1 12C1 12.5523 1.44772 13 2 13H4C4.55228 13 5 12.5523 5 12C5 11.4477 4.55228 11 4 11H2Z" fill="black"/>
<path d="M7.05025 16.9498C7.44077 17.3403 7.44077 17.9734 7.05025 18.364L5.63603 19.7782C5.24551 20.1687 4.61234 20.1687 4.22182 19.7782C3.8313 19.3877 3.8313 18.7545 4.22182 18.364L5.63603 16.9498C6.02656 16.5592 6.65972 16.5592 7.05025 16.9498Z" fill="black"/>
<path d="M5.63606 4.22182C5.24554 3.83129 4.61237 3.83129 4.22185 4.22182C3.83132 4.61234 3.83132 5.24551 4.22185 5.63603L5.63606 7.05024C6.02659 7.44077 6.65975 7.44077 7.05028 7.05024C7.4408 6.65972 7.4408 6.02656 7.05028 5.63603L5.63606 4.22182Z" fill="black"/>
</svg>
