<svg xmlns="http://www.w3.org/2000/svg" width="24" height="24" fill="none" viewBox="0 0 24 24"><path fill="#000" fill-rule="evenodd" d="M12 1c.5523 0 1 .4477 1 1v2c0 .5523-.4477 1-1 1s-1-.4477-1-1V2c0-.5523.4477-1 1-1M5.636 4.2218c-.3905-.3905-1.0236-.3905-1.4142 0s-.3905 1.0237 0 1.4142l1.4143 1.4142c.3905.3906 1.0237.3906 1.4142 0s.3905-1.0236 0-1.4142zM18 12c0 3.3137-2.6863 6-6 6s-6-2.6863-6-6 2.6863-6 6-6 6 2.6863 6 6m-7 3.874C9.2748 15.4299 8 13.8638 8 12s1.2748-3.43 3-3.874zM16 12c0 1.8638-1.2748 3.4299-3 3.874V8.126c1.7252.444 3 2.0102 3 3.874M1 12c0-.5523.4477-1 1-1h2c.5523 0 1 .4477 1 1s-.4477 1-1 1H2c-.5523 0-1-.4477-1-1m6.0502 6.364c.3906-.3906.3906-1.0237 0-1.4142-.3905-.3906-1.0236-.3906-1.4142 0L4.2218 18.364c-.3905.3905-.3905 1.0237 0 1.4142s1.0237.3905 1.4142 0zM13 20c0-.5523-.4477-1-1-1s-1 .4477-1 1v2c0 .5523.4477 1 1 1s1-.4477 1-1z"/></svg>