<svg width="24" height="24" viewBox="0 0 24 24" fill="none" xmlns="http://www.w3.org/2000/svg">
<path fill-rule="evenodd" clip-rule="evenodd" d="M14.6895 4.51868C14.9883 3.16185 13.3416 2.24535 12.3459 3.21431L6.30257 9.09554C6.10912 9.2838 6 9.54226 6 9.81219V17.9999C6 19.1045 6.89543 19.9999 8 19.9999H16.5246C17.1839 19.9999 17.7905 19.6395 18.1056 19.0604L22.074 11.7682C22.7993 10.4355 21.8346 8.81219 20.3173 8.81219H13.7441L14.6895 4.51868Z" fill="black"/>
<path d="M4 9.99995C4 9.44766 3.55228 8.99995 3 8.99995C2.44772 8.99995 2 9.44766 2 9.99995V18.9999C2 19.5522 2.44772 19.9999 3 19.9999C3.55228 19.9999 4 19.5522 4 18.9999V9.99995Z" fill="black"/>
</svg>
