<svg xmlns="http://www.w3.org/2000/svg" width="24" height="24" fill="none" viewBox="0 0 24 24"><path fill="#000" fill-rule="evenodd" d="M19.5484 4.4004c-2.1067-2.1068-5.5225-2.1068-7.6292 0L9.5905 6.729c-.3906.3905-.3906 1.0237 0 1.4142s1.0237.3905 1.4142 0l2.3287-2.3287c1.3257-1.3257 3.4751-1.3257 4.8008 0s1.3257 3.475 0 4.8008l-2.3032 2.3032c-.3905.3905-.3905 1.0236 0 1.4142s1.0237.3905 1.4142 0l2.3032-2.3032c2.1067-2.1068 2.1067-5.5225 0-7.6292m-4.5683 5.9825c.3905-.3905.3905-1.0237 0-1.4142-.3905-.3906-1.0237-.3906-1.4142 0l-4.6486 4.6485c-.3905.3906-.3905 1.0237 0 1.4142.3905.3906 1.0237.3906 1.4142 0zm-6.9-.7293c.3906.3905.3906 1.0237 0 1.4142l-2.3168 2.3169c-1.3257 1.3257-1.3257 3.4751 0 4.8008s3.4751 1.3257 4.8008 0l2.3041-2.3041c.3905-.3905 1.0237-.3905 1.4142 0s.3905 1.0237 0 1.4142l-2.3041 2.3041c-2.1067 2.1067-5.5225 2.1067-7.6292 0s-2.1067-5.5225 0-7.6292L6.666 9.6536c.3905-.3905 1.0237-.3905 1.4142 0"/></svg>