<svg xmlns="http://www.w3.org/2000/svg" width="24" height="24" fill="none" viewBox="0 0 24 24"><path fill="#000" fill-rule="evenodd" d="M13 4c0-.5523.4477-1 1-1h6c.5523 0 1 .4477 1 1v6c0 .5523-.4477 1-1 1s-1-.4477-1-1V6.4142l-6.7929 6.7929c-.3905.3905-1.0237.3905-1.4142 0s-.3905-1.0237 0-1.4142L17.5858 5H14c-.5523 0-1-.4477-1-1M6 5c-.5523 0-1 .4477-1 1v12c0 .5523.4477 1 1 1h12c.5523 0 1-.4477 1-1v-4c0-.5523.4477-1 1-1s1 .4477 1 1v4c0 1.6569-1.3431 3-3 3H6c-1.6569 0-3-1.3431-3-3V6c0-1.6569 1.3431-3 3-3h4c.5523 0 1 .4477 1 1s-.4477 1-1 1z"/></svg>