<svg width="24" height="24" viewBox="0 0 24 24" fill="none" xmlns="http://www.w3.org/2000/svg">
<path d="M5 6C5 5.44772 5.44772 5 6 5H10C10.5523 5 11 4.55228 11 4C11 3.44772 10.5523 3 10 3H6C4.34315 3 3 4.34315 3 6V18C3 19.6569 4.34315 21 6 21H18C19.6569 21 21 19.6569 21 18V14C21 13.4477 20.5523 13 20 13C19.4477 13 19 13.4477 19 14V18C19 18.5523 18.5523 19 18 19H6C5.44772 19 5 18.5523 5 18V6Z" fill="black"/>
<path d="M14 3C13.4477 3 13 3.44772 13 4C13 4.55228 13.4477 5 14 5H17.5858L10.7929 11.7929C10.4024 12.1834 10.4024 12.8166 10.7929 13.2071C11.1834 13.5976 11.8166 13.5976 12.2071 13.2071L19 6.41421V10C19 10.5523 19.4477 11 20 11C20.5523 11 21 10.5523 21 10V4C21 3.44772 20.5523 3 20 3H14Z" fill="black"/>
</svg>
