<svg xmlns="http://www.w3.org/2000/svg" width="24" height="24" fill="none" viewBox="0 0 24 24"><path fill="#000" fill-rule="evenodd" d="M11.9195 4.4005c2.1068-2.1066 5.5222-2.1066 7.6289 0 1.8436 1.8437 2.0728 4.6892.6895 6.7832a6.47 6.47 0 0 0-1.8174-.8955c1.03-1.3314.9354-3.2519-.2861-4.4736-1.3257-1.3256-3.4751-1.3256-4.8008 0l-2.3281 2.3281c-.3905.3905-1.0245.3905-1.415 0-.3902-.3905-.3904-1.0236 0-1.414zM13.566 8.969c.3905-.3905 1.0236-.3905 1.4141 0 .3166.3168.3758.7929.1787 1.1699-2.5216.5289-4.5057 2.519-5.0254 5.0439-.3836.2278-.8857.1786-1.2158-.1513-.3905-.3906-.3905-1.0236 0-1.4141zm-6.9003.6845c.3904-.3902 1.0235-.3901 1.414 0 .3905.3906.3905 1.0246 0 1.4151L5.7633 13.385c-1.3255 1.3257-1.3256 3.4751 0 4.8008 1.2384 1.2382 3.1953 1.3193 4.5283.2441a6.48 6.48 0 0 0 .8994 1.8184c-2.0993 1.4273-4.9805 1.2126-6.8418-.6485-2.1066-2.1067-2.1065-5.5221 0-7.6289zm9.8339 2.3467c2.4853 0 4.5 2.0147 4.5 4.5 0 .8804-.2524 1.7019-.6894 2.3955l2.3964 2.3975c.3906.3905.3906 1.0235 0 1.4141-.3905.3903-1.0236.3904-1.414 0l-2.3965-2.3975a4.48 4.48 0 0 1-2.3965.6904c-2.4851-.0001-4.4999-2.0149-4.5-4.5s2.0149-4.4998 4.5-4.5m0 2c-1.3805.0002-2.5 1.1194-2.5 2.5.0001 1.3806 1.1195 2.4999 2.5 2.5 1.3807 0 2.5-1.1193 2.5-2.5s-1.1193-2.5-2.5-2.5"/></svg>