<svg xmlns="http://www.w3.org/2000/svg" width="24" height="24" fill="none" viewBox="0 0 24 24"><path fill="#000" d="M14.5 4.8999c0-2.2091 1.7909-4 4-4s4 1.7909 4 4-1.7909 4-4 4c-1.1058 0-2.1069-.4488-2.8309-1.174l-5.3011 3.151c.0861.3265.132.6694.132 1.023 0 .3771-.0522.7421-.1497 1.088l5.3083 3.0966c.7249-.7315 1.7302-1.1846 2.8414-1.1846 2.2091 0 4 1.7909 4 4s-1.7909 4-4 4-4-1.7909-4-4c0-.3557.0464-.7007.1336-1.029l-5.2983-3.1494c-.7244.7279-1.7273 1.1784-2.8353 1.1784-2.2091 0-4-1.7909-4-4s1.7909-4 4-4c1.1112 0 2.1165.453 2.8414 1.1846l5.3084-3.0966A4 4 0 0 1 14.5 4.9"/></svg>