<svg xmlns="http://www.w3.org/2000/svg" width="24" height="24" fill="none" viewBox="0 0 24 24"><path fill="#000" fill-rule="evenodd" d="M20.0105 18.0583c-.5865-.2402-.8373-.5589-.8131-1.0345.025-.5552-.2899-.9618-.4395-1.1225.0903-.3451.3544-1.5393.0002-2.5764-.3806-1.1102-1.5425-2.8058-2.7415-4.4725-.4908-.6844-.514-1.4284-.5408-2.29l-.0001-.0008c-.0257-.8215-.0548-1.7526-.5129-2.7877C14.4646 2.6465 13.4649 2 12.2198 2c-.7407 0-1.5009.2315-2.086.635-1.198.8268-1.0397 2.6295-.9349 3.8224.0144.1634.0279.3177.0358.4494.0697 1.1683.0063 1.784-.0768 1.9712-.0535.1219-.3164.4681-.5952.8354l-.0039.005c-.289.3808-.6166.8121-.8851 1.2141-.3209.4844-.5799 1.2247-.8303 1.9407l-.0001.0002c-.1833.5239-.3564 1.0188-.525 1.3145a1.79 1.79 0 0 0-.1735 1.3446c-.121.084-.2956.2494-.443.5611-.1783.3803-.54.5847-1.292.7293-.3455.0707-.5838.216-.7084.4319-.1813.3142-.0826.7089.0075.9787.1331.3966.0502.6476-.1006 1.1033l-.0018.0055c-.0343.1038-.073.2211-.1123.3501-.063.2073-.0402.3958.0672.5602.284.4341 1.1128.5873 1.9659.688.5094.0604 1.0669.2642 1.6061.4613l.0007.0003c.5281.1929 1.0742.3925 1.5705.453.0755.0095.1503.0143.2223.0143.7498 0 1.0886-.4975 1.196-.7019.2693-.055 1.1981-.231 2.1555-.2546.9558-.0272 1.8806.1615 2.1425.2202.0824.1576.2995.5177.6456.7032.1902.104.455.1636.7261.1636h.0001c.2896 0 .8404-.0685 1.2764-.5271.4349-.4609 1.5215-1.0492 2.3149-1.4788.1771-.0959.3427-.1856.488-.2666.4457-.2471.6889-.6001.6672-.9686-.0181-.306-.2207-.5745-.5287-.7006m-9.8669-.0887c-.0555-.3908-.5582-.7784-1.1405-1.2272l-.0004-.0003c-.476-.3669-1.0153-.7828-1.164-1.1349-.3071-.7267-.065-2.0045.3573-2.6625.2085-.3293.3789-.8286.5437-1.3115l.0002-.0007c.178-.5217.362-1.0611.5679-1.2972.326-.3687.6272-1.086.6806-1.6513.3052.2914.7787.6612 1.2162.6612a.72.72 0 0 0 .1952-.0265c.299-.0863.7386-.3402 1.1639-.5859l.0013-.0008c.367-.212.8196-.4735.9899-.4973.292.4192 1.9887 4.1741 2.1621 5.3799.1372.9541-.0077 1.7429-.0806 2.0518a1.5 1.5 0 0 0-.202-.0145c-.4725 0-.5977.258-.6303.412-.0838.4002-.0926 1.6799-.0935 1.9674-.1709.2171-1.0351 1.2396-2.2758 1.4234-.5054.0734-.9774.1107-1.4027.1107-.3635 0-.5955-.0281-.6919-.0427l-.6234-.7134c.2458-.1214.4916-.3775.4268-.8397M13.0873 7.579c-.0062.0279-.0194.0402-.1659.1164a4.5 4.5 0 0 0-.2813.1566l-.0785.0475c-.3103.1881-1.0326.626-1.2289.6517-.1336.018-.2162-.0338-.402-.16a6 6 0 0 0-.134-.0894c-.3349-.2197-.5503-.4618-.5746-.5564.1092-.0844.3798-.2956.5183-.4206.2813-.2615.5643-.4373.7044-.4373a.1.1 0 0 1 .021.0018c.1643.029.5689.1904.8653.3087l.0018.0007c.1371.0547.2554.102.3387.1318.2624.0901.3992.2054.4157.2485m2.3572 12.2211c.148-.6676.3185-1.5758.2909-2.1112-.0063-.1216-.0171-.254-.0275-.382-.0195-.2394-.0484-.5951-.0186-.7006a.1.1 0 0 1 .0198-.0072c.0012.3061.0677.9167.556 1.1296.1455.0635.3118.0956.4942.0956.4891 0 1.0318-.2399 1.2541-.4622.1309-.1309.241-.291.3181-.4179.0169.0494.0272.1139.0218.1971-.0291.4515.1903 1.0504.6079 1.2711l.0608.032c.1487.078.5438.2854.5501.3838 0 0-.0033.0116-.0254.032-.0988.0904-.4467.268-.7832.4399l-.0001.0001-.0007.0003c-.5974.3051-1.2746.6508-1.5787.9707-.4282.4506-.9126.7533-1.205.7533a.32.32 0 0 1-.0958-.0135c-.3177-.099-.5791-.5573-.4387-1.2109M4.6175 18.097c-.0324-.1516-.058-.2712-.0305-.3872.02-.0859.444-.1779.6252-.2172l.0006-.0002c.2544-.0552.5175-.1123.6895-.2167.2329-.1411.359-.4012.4702-.6307l.0004-.0008c.0804-.1657.1634-.3369.2622-.3931a.056.056 0 0 1 .0304-.0071c.1854 0 .5743.3897.7985.7385.0568.0879.1621.2641.284.4681l.0016.0028c.3643.6094.8621 1.4424 1.1223 1.7219.2348.2516.615.7353.5215 1.1502-.0685.3219-.433.5837-.519.6416a.53.53 0 0 1-.1152.0107c-.4988 0-1.486-.415-2.0165-.6379l-.0785-.033c-.296-.1242-.7794-.2024-1.247-.278l-.0003-.0001-.0018-.0003c-.372-.0602-.88-.1425-.9643-.2169-.0684-.0767.011-.3262.081-.5464v-.0003c.0504-.1583.1025-.3219.131-.4933.0404-.273-.007-.4953-.0452-.674zm8.8956-11.9396c.0018.2176-.0358.4029-.1183.592-.047.1079-.1011.1985-.1662.277a1.3 1.3 0 0 0-.0685-.0304 6 6 0 0 0-.22-.0887 4 4 0 0 0-.1296-.0461h-.0002l-.0386-.0134a.7.7 0 0 1 .0446-.0464c.0361-.0352.077-.0752.096-.1215.0423-.1025.0629-.2026.0669-.3219a.04.04 0 0 1 .0007-.0066l.0008-.0079a.89.89 0 0 0-.0461-.312c-.035-.1051-.0794-.1805-.1438-.2434-.0643-.0627-.1287-.0912-.2059-.0938q-.0054-.0003-.0108-.0002c-.0724.0002-.1355.0253-.2005.0796-.0685.0572-.1192.1303-.1614.2321s-.0628.2027-.0669.3227c-.0006.0046-.0006.0087-.0006.0135a.95.95 0 0 0 .0129.185c-.1484-.0739-.3382-.1279-.4694-.1592a1.6 1.6 0 0 1-.0131-.1764V6.175c-.0024-.217.0332-.4032.1167-.592.0835-.1892.1867-.3252.3321-.4358.1455-.1104.2886-.1611.458-.1629h.0079c.1656 0 .3074.0488.4529.1543.1478.1074.2544.2415.3402.4292.0842.183.1246.3617.1287.5737 0 .0056 0 .0104.0015.016m-2.5675.2368a1.3 1.3 0 0 1 .0638-.02 1.5 1.5 0 0 0 .0019-.2249v-.0015c-.0104-.1876-.0475-.3466-.1176-.5055-.07-.159-.1535-.2717-.2638-.36-.1018-.0813-.2002-.118-.3104-.1182l-.028.0006c-.1218.0063-.2226.0564-.3228.1559-.1003.0992-.1694.2199-.221.3869-.0515.1669-.07.3283-.0596.5159v.0015c.0112.1877.0485.3466.1185.5053.059.1345.1265.2361.2131.3173q.0593-.044.1023-.0753c.031-.0225.0579-.0437.0894-.0684l.0463-.0363a.4.4 0 0 1-.0259-.0205c-.0525-.0452-.0931-.1041-.128-.1867-.034-.0802-.0533-.1596-.0627-.2551a.03.03 0 0 0-.0005-.0056q-.0003-.0025-.0004-.0055c-.0087-.0985-.0032-.1844.0174-.2717.0208-.0876.0494-.1536.093-.2066.0439-.0533.0901-.0805.1457-.0853a.2.2 0 0 1 .0153-.0006c.0495-.0005.0944.0185.1418.0595.0524.0454.0923.1043.128.1876a.87.87 0 0 1 .063.2544c0 .0038 0 .007.0005.011a.82.82 0 0 1-.0031.1982c.091-.0603.1852-.1054.3038-.1464" clip-rule="evenodd"/></svg>