<svg xmlns="http://www.w3.org/2000/svg" width="24" height="24" fill="none" viewBox="0 0 24 24"><path fill="#000" fill-rule="evenodd" d="M13.8029 20.9975a27 27 0 0 1-.8268.7342c-.1162.0989-.5971.4886-.9496.4886-.3525-.0001-.6681-.2492-.9496-.4886a27 27 0 0 1-.8268-.7342c-.6798-.6278-1.5884-1.5251-2.4999-2.6011C5.9711 16.296 4 13.3061 4 10.2166 4 5.7041 7.5686 2 12.0265 2s8.0265 3.704 8.0265 8.2166c0 3.0895-1.9711 6.0794-3.7502 8.1798-.9115 1.076-1.8201 1.9733-2.4999 2.6011M14 10c0 1.1046-.8954 2-2 2s-2-.8954-2-2 .8954-2 2-2 2 .8954 2 2"/></svg>