<svg xmlns="http://www.w3.org/2000/svg" width="24" height="24" fill="none" viewBox="0 0 24 24"><path fill="#000" fill-rule="evenodd" d="M12 4c-4.4183 0-8 3.5817-8 8s3.5817 8 8 8c3.6634 0 6.754-2.4632 7.7012-5.8256A8 8 0 0 0 20 12c0-.4346.3126-.8198.7451-.8619l.2312-.0224C21.5155 11.0632 22 11.4583 22 12c0 .9402-.13 1.8517-.3737 2.7167C20.4426 18.9186 16.5824 22 12 22 6.4772 22 2 17.5228 2 12S6.4772 2 12 2c.5417 0 .9368.4845.8843 1.0237l-.0224.2312C12.8198 3.6874 12.4346 4 12 4m2.5511-.4088c-.1257.4149.1107.8495.5111 1.0155s.8749.0262 1.0796-.356l.1098-.205c.2562-.4784.0776-1.0787-.4236-1.2866s-1.0521.0901-1.2095.6094zm3.0227 1.6167c-.2756.3355-.2239.8283.0831 1.1352.3069.307.7997.3587 1.1352.083l.1797-.1476c.4188-.344.4825-.9663.0993-1.3496s-1.0055-.3195-1.3496.0993zM13 7c0-.5523-.4477-1-1-1s-1 .4477-1 1v5c0 .3448.1776.6653.47.848l4 2.5c.4683.2927 1.0853.1503 1.378-.318s.1503-1.0853-.318-1.378L13 11.4458zm6.3933 1.9378c-.1661-.4004-.0262-.8749.3559-1.0795l.2052-.11c.4783-.2561 1.0786-.0775 1.2865.4237s-.0901 1.0521-.6094 1.2095l-.2227.0674c-.4149.1257-.8495-.1107-1.0155-.511"/></svg>