<svg width="24" height="24" viewBox="0 0 24 24" fill="none" xmlns="http://www.w3.org/2000/svg">
<path d="M16.2929 7.29289L17.5858 6H7C5.89543 6 5 6.89543 5 8V13C5 13.5523 4.55228 14 4 14C3.44772 14 3 13.5523 3 13V8C3 5.79086 4.79086 4 7 4H17.5858L16.2929 2.70711C15.9024 2.31658 15.9024 1.68342 16.2929 1.29289C16.6834 0.902369 17.3166 0.902369 17.7071 1.29289L20.7071 4.29289C21.0976 4.68342 21.0976 5.31658 20.7071 5.70711L17.7071 8.70711C17.3166 9.09763 16.6834 9.09763 16.2929 8.70711C15.9024 8.31658 15.9024 7.68342 16.2929 7.29289Z" fill="black"/>
<path d="M17 18C18.1046 18 19 17.1046 19 16V11C19 10.4477 19.4477 10 20 10C20.5523 10 21 10.4477 21 11V16C21 18.2091 19.2091 20 17 20H6.41421L7.70711 21.2929C8.09763 21.6834 8.09763 22.3166 7.70711 22.7071C7.31658 23.0976 6.68342 23.0976 6.29289 22.7071L3.29289 19.7071C2.90237 19.3166 2.90237 18.6834 3.29289 18.2929L6.29289 15.2929C6.68342 14.9024 7.31658 14.9024 7.70711 15.2929C8.09763 15.6834 8.09763 16.3166 7.70711 16.7071L6.41421 18H17Z" fill="black"/>
</svg>
