<svg xmlns="http://www.w3.org/2000/svg" width="24" height="24" fill="none" viewBox="0 0 24 24"><path fill="#000" fill-rule="evenodd" d="m17.5858 6-1.2929 1.2929c-.3905.3905-.3905 1.0237 0 1.4142s1.0237.3905 1.4142 0l3-3c.3905-.3905.3905-1.0237 0-1.4142l-3-3c-.3905-.3905-1.0237-.3905-1.4142 0s-.3905 1.0237 0 1.4142L17.5858 4H7C4.7909 4 3 5.7909 3 8v5c0 .5523.4477 1 1 1s1-.4477 1-1V8c0-1.1046.8954-2 2-2zM19 16c0 1.1046-.8954 2-2 2H6.4142l1.2929-1.2929c.3905-.3905.3905-1.0237 0-1.4142s-1.0237-.3905-1.4142 0l-3 3c-.3905.3905-.3905 1.0237 0 1.4142l3 3c.3905.3905 1.0237.3905 1.4142 0s.3905-1.0237 0-1.4142L6.4142 20H17c2.2091 0 4-1.7909 4-4v-5c0-.5523-.4477-1-1-1s-1 .4477-1 1z"/></svg>