<svg xmlns="http://www.w3.org/2000/svg" width="24" height="24" fill="none" viewBox="0 0 24 24"><path fill="#000" d="M16 9c.552 0 1-.448 1-1s-.448-1-1-1-1 .448-1 1 .448 1 1 1M9 8c0 .552-.448 1-1 1s-1-.448-1-1 .448-1 1-1 1 .448 1 1"/><path fill="#000" fill-rule="evenodd" d="M17 3h-4.4815a1 1 0 0 0-.0391 0H7C4.7909 3 3 4.7908 3 7v9.9999c0 2.2092 1.7909 4 4 4h4.9843a1 1 0 0 0 .0289 0H17c2.2091 0 4-1.7908 4-4v-10c0-2.209-1.7909-4-4-4m0 15.9999h-4.0749c-.0218-.6876.0238-1.3856.1122-2.0646.8095-.099 1.5327-.2968 2.095-.4892.4004-.137.7283-.2745.9592-.3793.1298-.0589.2589-.1195.3843-.1873l.88-.4772-.9535-1.7581c-.6276.3403-1.2401.6778-1.9176.9096a8.9 8.9 0 0 1-1.0431.2884q.0425-.169.0865-.3323c.2092-.777.4335-1.4348.6048-1.8965.0881-.2377.1791-.4748.2808-.7071l.0004-.0009.6247-1.4055h-2.819l1.1-5.5H17c1.1046 0 2 .8955 2 2v10c0 1.1046-.8954 2-2 2m-5.6432-4.033c.0761-.3427.1574-.6698.2401-.9769a24 24 0 0 1 .4539-1.4901H9.7802l1.5-7.5H7c-1.1046 0-2 .8955-2 2v10c0 1.1046.8954 2 2 2h3.9244c-.0186-.6962.0207-1.3893.0972-2.0576-.8333-.0964-1.578-.2991-2.154-.4962a10.8 10.8 0 0 1-.9591-.3793 7 7 0 0 1-.373-.1813l-.0075-.0039-.0027-.0015-.0011-.0006-.88-.4772.9535-1.7581.8863.4805c.0644.0336.4541.2316 1.0313.4291.5115.1751 1.1512.3438 1.8415.4131" clip-rule="evenodd"/></svg>