<svg xmlns="http://www.w3.org/2000/svg" width="24" height="24" fill="none" viewBox="0 0 24 24"><path fill="#000" fill-rule="evenodd" d="M1.9216 7.7459c-.3906-.3906-.3906-1.0237 0-1.4142l4.41-4.41c.3905-.3905 1.0236-.3905 1.4142 0l4.2556 4.2556 3.2372-3.237c.953-.953 2.4981-.953 3.451 0l2.3732 2.373c.9529.953.9529 2.4981 0 3.4511l-3.2372 3.2371 4.2528 4.2528c.3905.3905.3905 1.0237 0 1.4142l-4.41 4.41c-.3905.3905-1.0237.3905-1.4142 0l-4.2528-4.2528-3.4693 3.4693a1 1 0 0 1-.707.2929l-4.41.0001a1 1 0 0 1-1-1v-4.4101c0-.2652.1053-.5195.2928-.7071l3.4693-3.4693zm5.6698 2.8414 2.9958-2.9957-1.1241-1.1241-1.059 1.059c-.3906.3906-1.0238.3906-1.4143 0s-.3905-1.0236 0-1.4142l1.059-1.059L7.0387 4.043 4.043 7.0388zm5.8242 5.8242 3.5457 3.5457 2.9957-2.9958-1.0469-1.047-1.1293 1.1293c-.3905.3905-1.0237.3905-1.4142 0s-.3905-1.0237 0-1.4142l1.1293-1.1293-1.0845-1.0844zm3.8598-12.057a.44.44 0 0 0-.6226 0l-1.4099 1.4098L18.2387 8.76l1.4098-1.4098a.44.44 0 0 0 0-.6227zM4.415 16.5921l9.4137-9.4137 2.9958 2.9957-9.4137 9.4137-2.9957.0001z"/></svg>