<svg xmlns="http://www.w3.org/2000/svg" width="24" height="24" fill="none" viewBox="0 0 24 24"><path fill="#000" fill-rule="evenodd" d="M22 3c0-.5523-.4477-1-1-1s-1 .4477-1 1v3c0 .5523.4477 1 1 1s1-.4477 1-1zM5 4h13v2H5.5186l5.8229 5.095a1 1 0 0 0 1.317 0l5.3677-4.6967c.0527.397.183.7695.3751 1.1017a2.987 2.987 0 0 0-.4003 1.5779l-4.0255 3.5223c-1.1311.9897-2.8199.9897-3.951 0L4 7.3288V17c0 .5523.4477 1 1 1h14c.5523 0 1-.4477 1-1v-5.1707A3 3 0 0 0 21 12c.3506 0 .6872-.0602 1-.1707V17c0 1.6569-1.3431 3-3 3H5c-1.6569 0-3-1.3431-3-3V7c0-1.6569 1.3431-3 3-3m17 5c0 .5523-.4477 1-1 1s-1-.4477-1-1 .4477-1 1-1 1 .4477 1 1"/></svg>