<svg width="24" height="24" viewBox="0 0 24 24" fill="none" xmlns="http://www.w3.org/2000/svg">
<path d="M20.3697 4.33022C19.9591 4.11914 19.4935 4 19 4H5C4.5115 4 4.05026 4.11676 3.64269 4.32389L4.9692 5.51926L11.3415 11.095C11.7185 11.4249 12.2814 11.4249 12.6585 11.095L19.0307 5.51931L19.0362 5.51445L20.3697 4.33022Z" fill="black"/>
<path d="M2.26204 5.77199C2.09367 6.14681 2 6.56247 2 7V17C2 18.6569 3.34315 20 5 20H19C20.6569 20 22 18.6569 22 17V7C22 6.56745 21.9085 6.15628 21.7437 5.78482L20.3532 7.01962L13.9755 12.6001C12.8444 13.5898 11.1555 13.5898 10.0244 12.6001L3.64669 7.0196L3.63577 7.0099L2.26204 5.77199Z" fill="black"/>
</svg>
