<svg width="24" height="24" viewBox="0 0 24 24" fill="none" xmlns="http://www.w3.org/2000/svg">
<path fill-rule="evenodd" clip-rule="evenodd" d="M3.99343 6.55398C3.98796 6.48696 3.98511 6.41822 3.98511 6.34774C3.98511 4.98887 5.04628 4.27745 5.44708 4.04293C5.98759 3.72668 6.63663 3.51047 7.26383 3.35526C8.54919 3.03716 10.2197 2.86133 11.9913 2.86133C13.763 2.86133 15.4335 3.03716 16.7188 3.35526C17.346 3.51047 17.9951 3.72668 18.5356 4.04293C18.9364 4.27745 19.9976 4.98887 19.9976 6.34774C19.9976 6.4573 19.9907 6.56265 19.9778 6.66388L19.9958 12.6593C19.3725 12.3976 18.6992 12.2312 17.9943 12.1786L17.9846 8.92801C17.5797 9.1016 17.1443 9.23494 16.7188 9.34022C15.4335 9.65832 13.763 9.83415 11.9913 9.83415C10.2197 9.83415 8.54919 9.65832 7.26383 9.34022C6.8338 9.2338 6.39351 9.09871 5.98497 8.92235L5.98515 12.9702C6.02406 13.0458 6.21541 13.3597 7.0339 13.7007C7.79044 14.0159 8.95627 14.2907 10.6518 14.3864C10.6335 14.5204 10.624 14.6572 10.624 14.7961V16.3879C8.72844 16.288 7.30011 15.9782 6.26478 15.5469C6.16975 15.5073 6.0765 15.466 5.98526 15.4229L5.98544 19.598C5.99897 19.6191 6.02627 19.6557 6.07786 19.707C6.22282 19.8513 6.50387 20.0508 6.98508 20.2511C7.94537 20.6508 9.55416 20.9922 11.9897 20.9922L12.0076 20.9922C12.021 21.7057 12.2876 22.4168 12.8119 22.9796C12.546 22.9879 12.272 22.9922 11.9897 22.9922C9.39378 22.9922 7.50046 22.632 6.21648 22.0975C5.57557 21.8307 5.04895 21.5049 4.66677 21.1243C4.29255 20.7518 3.98545 20.2498 3.98545 19.6584L3.98486 6.55408L3.99343 6.55398ZM16.2721 7.39037C16.3056 7.38194 16.3388 7.37341 16.3715 7.36479C17.3799 7.0989 17.9976 6.74117 17.9976 6.34774C17.9976 5.95431 17.3799 5.59657 16.3715 5.33069C16.3388 5.32206 16.3056 5.31354 16.2721 5.30511C15.1826 5.03118 13.6671 4.86133 11.9913 4.86133C10.3155 4.86133 8.80002 5.03118 7.71054 5.30511C7.67702 5.31354 7.64389 5.32206 7.61118 5.33069C6.60276 5.59657 5.98511 5.95431 5.98511 6.34774C5.98511 6.74117 6.60276 7.0989 7.61118 7.36479C7.64389 7.37341 7.67702 7.38194 7.71054 7.39037C8.80002 7.6643 10.3155 7.83415 11.9913 7.83415C13.6671 7.83415 15.1826 7.6643 16.2721 7.39037Z" fill="black"/>
<path d="M13.624 13.7961C14.1763 13.7961 14.624 14.2439 14.624 14.7961V15.2286C15.3985 14.5632 16.4061 14.1604 17.5085 14.1604C19.9545 14.1604 21.9374 16.1433 21.9374 18.5893C21.9374 21.0354 19.9545 23.0183 17.5085 23.0183C16.2342 23.0183 15.0844 22.4789 14.2777 21.6188C13.8999 21.216 13.9201 20.5832 14.3229 20.2054C14.7257 19.8275 15.3586 19.8478 15.7364 20.2506C16.1809 20.7244 16.8096 21.0183 17.5085 21.0183C18.8499 21.0183 19.9374 19.9308 19.9374 18.5893C19.9374 17.2479 18.8499 16.1604 17.5085 16.1604C16.9073 16.1604 16.3565 16.3787 15.9317 16.7415H16.4284C16.9807 16.7415 17.4284 17.1892 17.4284 17.7415C17.4284 18.2938 16.9807 18.7415 16.4284 18.7415H13.624C13.0717 18.7415 12.624 18.2938 12.624 17.7415V14.7961C12.624 14.2439 13.0717 13.7961 13.624 13.7961Z" fill="black"/>
</svg>
