<svg width="24" height="24" viewBox="0 0 24 24" fill="none" xmlns="http://www.w3.org/2000/svg">
<path d="M22 3C22 2.44772 21.5523 2 21 2C20.4477 2 20 2.44772 20 3V6C20 6.55228 20.4477 7 21 7C21.5523 7 22 6.55228 22 6V3Z" fill="black"/>
<path d="M18 4H5C3.34315 4 2 5.34315 2 7V17C2 18.6569 3.34315 20 5 20H19C20.6569 20 22 18.6569 22 17V11.8293C21.6872 11.9398 21.3506 12 21 12C20.6494 12 20.3128 11.9398 20 11.8293V17C20 17.5523 19.5523 18 19 18H5C4.44772 18 4 17.5523 4 17V7.32877L10.0245 12.6002C11.1556 13.5899 12.8444 13.5899 13.9755 12.6002L18.001 9.0779C18.0003 9.05201 18 9.02605 18 9C18 8.45357 18.1461 7.94126 18.4013 7.5C18.2092 7.16779 18.0789 6.7953 18.0262 6.3983L12.6585 11.095C12.2815 11.4249 11.7185 11.4249 11.3415 11.095L5.51859 6H18V4Z" fill="black"/>
<path d="M22 9C22 9.55228 21.5523 10 21 10C20.4477 10 20 9.55228 20 9C20 8.44772 20.4477 8 21 8C21.5523 8 22 8.44772 22 9Z" fill="black"/>
</svg>
