<svg xmlns="http://www.w3.org/2000/svg" width="24" height="24" fill="none" viewBox="0 0 24 24"><path fill="#000" fill-rule="evenodd" d="M3.9851 5.4977q.0001.1057.0083.2062H3.985l.0005 13.1044c0 .5914.3071 1.0934.6814 1.466.3821.3805.9088.7063 1.5497.9731 1.284.5345 3.1773.8947 5.7732.8947q.4234 0 .8222-.0126a2.99 2.99 0 0 1-.8043-1.9874h-.0179c-2.4355 0-4.0443-.3414-5.0046-.7411-.4812-.2003-.7623-.3998-.9072-.5441-.0516-.0514-.079-.0879-.0925-.109l-.0001-4.1751q.1368.0646.2795.124c1.0353.4313 2.4636.7411 4.3592.841v-1.5917q.0002-.2086.0278-.4098c-1.6955-.0957-2.8614-.3705-3.6179-.6857-.8185-.341-1.0098-.6549-1.0488-.7305L5.985 8.0722c.4085.1764.8488.3115 1.2788.418 1.2854.318 2.9559.4939 4.7275.4939 1.7717 0 3.4422-.1759 4.7275-.494.4255-.1052.8609-.2386 1.2658-.4122l.0097 3.2506a6.4 6.4 0 0 1 2.0015.4807l-.018-5.9954a2.5 2.5 0 0 0 .0198-.3161c0-1.359-1.0612-2.0703-1.462-2.3049-.5405-.3162-1.1896-.5324-1.8168-.6877-1.2853-.318-2.9558-.4939-4.7275-.4939s-3.4421.1759-4.7275.494c-.6272.1552-1.2762.3714-1.8167.6876-.4008.2346-1.462.946-1.462 2.3049m12.3864 1.017a9 9 0 0 1-.0994.0256c-1.0895.274-2.605.4437-4.2808.4437S8.8 6.8143 7.7105 6.5404a9 9 0 0 1-.0993-.0256C6.6028 6.2488 5.985 5.891 5.985 5.4977c0-.3935.6177-.7512 1.626-1.0171a9 9 0 0 1 .0994-.0256c1.0895-.274 2.605-.4438 4.2808-.4438s3.1913.1699 4.2808.4438q.0503.0127.0994.0256c1.0084.2659 1.6261.6236 1.6261 1.017 0 .3935-.6177.7512-1.6261 1.017M14.624 13.946c0-.5523-.4477-1-1-1s-1 .4477-1 1v2.9453c0 .5523.4477 1 1 1h2.8044c.5523 0 1-.4477 1-1s-.4477-1-1-1h-.4967a2.42 2.42 0 0 1 1.5768-.5811c1.3414 0 2.4289 1.0875 2.4289 2.429s-1.0875 2.4289-2.4289 2.4289c-.6989 0-1.3276-.2939-1.7721-.7677-.3778-.4028-1.0107-.4231-1.4135-.0452s-.423 1.0106-.0452 1.4134c.8067.8601 1.9565 1.3995 3.2308 1.3995 2.446 0 4.4289-1.9829 4.4289-4.4289 0-2.4461-1.9829-4.429-4.4289-4.429-1.1024 0-2.11.4028-2.8845 1.0682z"/></svg>