<svg width="24" height="24" viewBox="0 0 24 24" fill="none" xmlns="http://www.w3.org/2000/svg">
<path d="M5.94372 11.04C5.95787 12.1227 6.83997 12.9961 7.92606 12.9961C9.01214 12.9961 9.89424 12.1227 9.90839 11.04H5.94372Z" fill="black"/>
<path d="M16.0511 12.9876C14.965 12.9876 14.0829 12.1142 14.0687 11.0315H18.0334C18.0192 12.1142 17.1371 12.9876 16.0511 12.9876Z" fill="black"/>
<path fill-rule="evenodd" clip-rule="evenodd" d="M7.80425 7.06581C6.79922 6.9589 5.59171 6.93548 4.5243 7.36409C3.37458 7.82575 2.49664 8.76744 2.15105 10.3119C1.85934 11.6155 1.96743 13.1861 2.67539 14.4985C3.41094 15.862 4.76571 16.8826 6.76849 17.0097C7.77124 17.0734 8.57265 16.9617 9.24052 16.7149C9.91383 16.4661 10.3883 16.1031 10.7572 15.7612C10.9025 15.6264 11.0394 15.487 11.1537 15.3707L11.2214 15.3019C11.3571 15.1645 11.4602 15.0645 11.5596 14.9833C11.712 14.8589 11.8365 14.7936 11.9999 14.7686C12.1633 14.7936 12.2878 14.8589 12.4402 14.9833C12.5395 15.0644 12.6427 15.1645 12.7783 15.3019L12.846 15.3707C12.9603 15.487 13.0972 15.6264 13.2426 15.7612C13.6114 16.1031 14.0859 16.4661 14.7592 16.7149C15.4271 16.9617 16.2285 17.0734 17.2313 17.0097C19.234 16.8826 20.5888 15.862 21.3244 14.4985C22.0323 13.1861 22.1404 11.6155 21.8487 10.3119C21.5031 8.76744 20.6252 7.82575 19.4755 7.36409C18.408 6.93548 17.2005 6.9589 16.1955 7.06581C14.6465 7.23058 13.0367 7.64131 11.9999 8.02831C10.9631 7.64131 9.35321 7.23058 7.80425 7.06581ZM11.9999 10.1005C11.864 10.1021 11.7255 10.0759 11.5925 10.0186C10.8107 9.68155 9.17474 9.22287 7.5927 9.05459C6.66964 8.9564 5.86772 8.97986 5.26955 9.22006C4.75368 9.4272 4.30988 9.82307 4.10278 10.7486C3.89843 11.6618 3.99233 12.7272 4.43562 13.5489C4.85132 14.3196 5.59705 14.9313 6.89522 15.0137C7.68123 15.0637 8.19397 14.9694 8.54737 14.8389C8.89532 14.7103 9.14918 14.5246 9.39753 14.2944C9.5054 14.1944 9.60314 14.095 9.71596 13.9803L9.79831 13.8966C9.93836 13.7548 10.1058 13.5883 10.2947 13.4341C10.6979 13.1049 11.2076 12.8241 11.9073 12.7671C11.9383 12.7646 11.9691 12.7635 11.9996 12.7639C12.0303 12.7635 12.0612 12.7646 12.0924 12.7671C12.7922 12.824 13.3019 13.1049 13.7051 13.4341C13.8939 13.5883 14.0614 13.7548 14.2014 13.8966L14.2838 13.9802C14.3966 14.095 14.4944 14.1944 14.6022 14.2944C14.8506 14.5246 15.1044 14.7103 15.4524 14.8389C15.8058 14.9694 16.3185 15.0636 17.1045 15.0137C18.4027 14.9313 19.1484 14.3196 19.5641 13.5489C20.0074 12.7272 20.1013 11.6618 19.897 10.7486C19.6899 9.82307 19.2461 9.4272 18.7302 9.22005C18.132 8.97986 17.3301 8.9564 16.4071 9.05459C14.825 9.22287 13.1891 9.68155 12.4072 10.0186C12.2743 10.0759 12.1359 10.1021 11.9999 10.1005Z" fill="black"/>
</svg>
