<svg xmlns="http://www.w3.org/2000/svg" width="24" height="24" fill="none" viewBox="0 0 24 24"><path fill="#000" fill-rule="evenodd" d="M4.5243 7.3641c1.0674-.4286 2.275-.4052 3.28-.2983 1.5489.1648 3.1588.5755 4.1956.9625 1.0368-.387 2.6466-.7977 4.1956-.9625 1.005-.1069 2.2125-.1303 3.28.2983 1.1497.4616 2.0276 1.4033 2.3732 2.9478.2917 1.3036.1836 2.8742-.5243 4.1866-.7356 1.3635-2.0904 2.3841-4.0931 2.5112-1.0028.0637-1.8042-.048-2.4721-.2948-.6733-.2488-1.1478-.6118-1.5166-.9537-.1454-.1348-.2823-.2742-.3966-.3905l-.0677-.0688c-.1356-.1374-.2388-.2375-.3381-.3186-.1524-.1244-.2769-.1897-.4403-.2147-.1634.025-.2879.0903-.4403.2147-.0994.0812-.2025.1812-.3382.3186l-.0677.0688c-.1143.1163-.2512.2557-.3965.3905-.3689.3419-.8434.7049-1.5167.9537-.6678.2468-1.4693.3585-2.472.2948-2.0028-.1271-3.3576-1.1477-4.0931-2.5112-.708-1.3124-.816-2.883-.5244-4.1866.3456-1.5445 1.2236-2.4861 2.3733-2.9478m7.0682 2.6545a1 1 0 0 0 .4074.0819 1 1 0 0 0 .4073-.0819c.7819-.337 2.4178-.7957 3.9999-.964.923-.0982 1.7249-.0747 2.3231.1655.5159.2071.9597.603 1.1668 1.5285.2043.9132.1104 1.9786-.3329 2.8003-.4157.7707-1.1614 1.3824-2.4596 1.4648-.786.0499-1.2987-.0443-1.6521-.1748-.348-.1286-.6018-.3143-.8502-.5445-.1078-.1-.2056-.1994-.3184-.3142l-.0824-.0836c-.14-.1418-.3075-.3083-.4963-.4625-.4032-.3292-.9129-.6101-1.6127-.667a1 1 0 0 0-.0928-.0032 1 1 0 0 0-.0923.0032c-.6997.057-1.2094.3378-1.6126.667-.1889.1542-.3563.3207-.4964.4625l-.0823.0837c-.1129.1147-.2106.2141-.3185.3141-.2483.2302-.5022.4159-.8501.5445-.3534.1306-.8662.2248-1.6522.1748-1.2981-.0824-2.0439-.6941-2.4596-1.4648-.4433-.8217-.5372-1.8871-.3328-2.8003.207-.9255.6509-1.3214 1.1667-1.5285.5982-.2402 1.4001-.2637 2.3232-.1655 1.582.1683 3.218.627 3.9998.964m4.4586 2.969c-1.0861 0-1.9682-.8734-1.9824-1.9561h3.9647c-.0142 1.0827-.8963 1.9561-1.9823 1.9561M5.9437 11.04c.0142 1.0827.8963 1.9561 1.9824 1.9561s1.9681-.8734 1.9823-1.9561z"/></svg>