<svg xmlns="http://www.w3.org/2000/svg" width="24" height="24" fill="none" viewBox="0 0 24 24"><path fill="#000" fill-rule="evenodd" d="M4.0108 13.3589c.1826 1.482 1.446 2.6293 2.9773 2.6293h4v1.1707a3.008 3.008 0 0 0-1.8293 1.8293H4.9881c-.5523 0-1 .4477-1 1s.4477 1 1 1h4.1707c.4118 1.1651 1.5231 2 2.8293 2s2.4175-.8349 2.8293-2h4.1707c.5523 0 1-.4478 1-1s-.4477-1-1-1h-4.1707a3.008 3.008 0 0 0-1.8293-1.8293v-1.1707h4c1.6569 0 3-1.3432 3-3v-2a2.99 2.99 0 0 0-.7639-2 2.99 2.99 0 0 0 .7639-2v-2c0-1.6569-1.3431-3-3-3h-5.148a7.01 7.01 0 0 1 1.453 2h3.695c.5523 0 1 .4477 1 1v2c0 .5522-.4477 1-1 1h-3.065a6.94 6.94 0 0 1-.589 2h3.654c.5523 0 1 .4477 1 1v2c0 .5522-.4477 1-1 1H7.0565c-1.0671 0-2.1409-.2019-3.0457-.6293M2 6.9941C2 4.2359 4.2359 2 6.994 2s4.994 2.236 4.994 4.994c0 2.7582-2.2359 4.9942-4.994 4.9942S2 9.7522 2 6.9941M6.994 4C5.3405 4 4 5.3405 4 6.994c0 1.6537 1.3405 2.9942 2.994 2.9942S9.988 8.6477 9.988 6.994 8.6475 4 6.994 4m1.3824 2.4745c.4.2309.4.8082 0 1.0392L6.753 8.451c-.4.231-.9-.0577-.9-.5196V6.0568c0-.462.5-.7506.9-.5197zm3.6117 12.5137c.5523 0 1 .4477 1 1s-.4477 1-1 1-1-.4478-1-1 .4477-1 1-1"/></svg>