<svg xmlns="http://www.w3.org/2000/svg" width="24" height="24" fill="none" viewBox="0 0 24 24"><path fill="#000" fill-rule="evenodd" d="M6.9881 15.9883c-1.5313 0-2.7946-1.1473-2.9773-2.6292.9048.4273 1.9786.6292 3.0457.6292h9.9316c.5523 0 1-.4477 1-1v-2c0-.5523-.4477-1-1-1h-3.654a6.94 6.94 0 0 0 .589-2h3.065c.5523 0 1-.4477 1-1v-2c0-.5523-.4477-1-1-1h-3.695a7.01 7.01 0 0 0-1.453-2h5.148c1.6569 0 3 1.3431 3 3v2a2.99 2.99 0 0 1-.7639 2 2.99 2.99 0 0 1 .7639 2v2c0 1.6568-1.3431 3-3 3h-4v1.1707a3.009 3.009 0 0 1 1.8293 1.8293h4.1707c.5523 0 1 .4477 1 1s-.4477 1-1 1h-4.1707c-.4118 1.1652-1.5231 2-2.8293 2s-2.4175-.8348-2.8293-2H4.9881c-.5523 0-1-.4477-1-1s.4477-1 1-1h4.1707a3.009 3.009 0 0 1 1.8293-1.8293v-1.1707zm6 4c0-.5523-.4477-1-1-1s-1 .4477-1 1 .4477 1 1 1 1-.4477 1-1" clip-rule="evenodd"/><path fill="#000" d="M8.3764 6.4746c.4.231.4.8083 0 1.0392l-1.6234.9373c-.4.231-.9-.0577-.9-.5196V6.057c0-.462.5-.7506.9-.5196z"/><path fill="#000" fill-rule="evenodd" d="M2 6.9942c0-2.7581 2.2359-4.994 4.994-4.994 2.7582 0 4.994 2.2359 4.994 4.994s-2.2358 4.9941-4.994 4.9941S2 9.7523 2 6.9942m4.994-2.994C5.3405 4.0001 4 5.3405 4 6.9941s1.3405 2.994 2.994 2.994 2.994-1.3404 2.994-2.994-1.3404-2.994-2.994-2.994" clip-rule="evenodd"/></svg>