<svg xmlns="http://www.w3.org/2000/svg" width="24" height="24" fill="none" viewBox="0 0 24 24"><path fill="#000" fill-rule="evenodd" d="M19 2c1.1046 0 2 .8954 2 2v.5352A3.98 3.98 0 0 0 19 4H5a3.98 3.98 0 0 0-2 .5361V4c0-1.1046.8954-2 2-2zm0 4c1.1046 0 2 .8954 2 2v1.4297C20.1523 8.571 19.1053 8 18 8H6a3 3 0 0 0-.1963.0059C4.7641 8.073 3.793 8.6292 3 9.4365V8c0-1.1046.8954-2 2-2zm0 5c0-.5523-.4477-1-1-1s-1 .4477-1 1v1h-1v-1c0-.5523-.4477-1-1-1s-1 .4477-1 1v1h-1v-1c0-.5523-.4477-1-1-1s-1 .4477-1 1v1h-1v-1c0-.5523-.4477-1-1-1s-1 .4477-1 1v1H7v-1c0-.5523-.4477-1-1-1s-1 .4477-1 1v1c-1.1046 0-2 .8954-2 2v4l.0107.2041C3.113 19.2128 3.9643 20 5 20v1c0 .5523.4477 1 1 1s1-.4477 1-1v-1h1v1c0 .5523.4477 1 1 1s1-.4477 1-1v-1h1v1c0 .5523.4477 1 1 1s1-.4477 1-1v-1h1v1c0 .5523.4477 1 1 1s1-.4477 1-1v-1h1v1c0 .5523.4477 1 1 1s1-.4477 1-1v-1c1.1046 0 2-.8954 2-2v-4c0-1.1046-.8954-2-2-2zm0 3v4H5v-4z"/></svg>