<svg xmlns="http://www.w3.org/2000/svg" width="24" height="24" fill="none" viewBox="0 0 24 24"><path fill="#000" fill-rule="evenodd" d="M11 4c0-.5523-.4477-1-1-1s-1 .4477-1 1v1H8C6.3431 5 5 6.3431 5 8v1H4c-.5523 0-1 .4477-1 1s.4477 1 1 1h1v2H4c-.5523 0-1 .4477-1 1s.4477 1 1 1h1v1c0 1.6569 1.3431 3 3 3h1v1c0 .5523.4477 1 1 1s1-.4477 1-1v-1h2v1c0 .5523.4477 1 1 1s1-.4477 1-1v-1h1c1.6569 0 3-1.3431 3-3v-1h1c.5523 0 1-.4477 1-1s-.4477-1-1-1h-1v-2h1c.5523 0 1-.4477 1-1s-.4477-1-1-1h-1V8c0-1.6569-1.3431-3-3-3h-1V4c0-.5523-.4477-1-1-1s-1 .4477-1 1v1h-2zm6 4c0-.5523-.4477-1-1-1H8c-.5523 0-1 .4477-1 1v8c0 .5523.4477 1 1 1h8c.5523 0 1-.4477 1-1zm-7 3c0-.5523.4477-1 1-1h2c.5523 0 1 .4477 1 1v2c0 .5523-.4477 1-1 1h-2c-.5523 0-1-.4477-1-1z"/></svg>