<svg width="24" height="24" viewBox="0 0 24 24" fill="none" xmlns="http://www.w3.org/2000/svg">
<path fill-rule="evenodd" clip-rule="evenodd" d="M18 10C18.5523 10 19 10.4477 19 11V12C20.1046 12 21 12.8954 21 14V18C21 19.1046 20.1046 20 19 20V21C19 21.5523 18.5523 22 18 22C17.4477 22 17 21.5523 17 21V20H16V21C16 21.5523 15.5523 22 15 22C14.4477 22 14 21.5523 14 21V20H13V21C13 21.5523 12.5523 22 12 22C11.4477 22 11 21.5523 11 21V20H10V21C10 21.5523 9.55228 22 9 22C8.44772 22 8 21.5523 8 21V20H7V21C7 21.5523 6.55228 22 6 22C5.44772 22 5 21.5523 5 21V20C3.96435 20 3.113 19.2128 3.01074 18.2041L3 18V14C3 12.8954 3.89543 12 5 12V11C5 10.4477 5.44772 10 6 10C6.55228 10 7 10.4477 7 11V12H8V11C8 10.4477 8.44772 10 9 10C9.55228 10 10 10.4477 10 11V12H11V11C11 10.4477 11.4477 10 12 10C12.5523 10 13 10.4477 13 11V12H14V11C14 10.4477 14.4477 10 15 10C15.5523 10 16 10.4477 16 11V12H17V11C17 10.4477 17.4477 10 18 10ZM5 18H19V14H5V18Z" fill="black"/>
<path d="M19 6C20.1046 6 21 6.89543 21 8V9.42969C20.1523 8.57112 19.1053 8 18 8H6C5.93406 8 5.86859 8.00167 5.80371 8.00586C4.76406 8.07313 3.79294 8.62923 3 9.43652V8C3 6.89543 3.89543 6 5 6H19Z" fill="black"/>
<path d="M19 2C20.1046 2 21 2.89543 21 4V4.53516C20.4116 4.19484 19.7286 4 19 4H5C4.27125 4 3.58845 4.19564 3 4.53613V4C3 2.89543 3.89543 2 5 2H19Z" fill="black"/>
</svg>
