<svg width="24" height="24" viewBox="0 0 24 24" fill="none" xmlns="http://www.w3.org/2000/svg">
<path d="M5 10.0046C6.10457 10.0046 7 10.9001 7 12.0046C7 13.1092 6.10457 14.0046 5 14.0046C3.89543 14.0046 3 13.1092 3 12.0046C3 10.9001 3.89543 10.0046 5 10.0046Z" fill="black"/>
<path d="M12 10.0046C13.1046 10.0046 14 10.9001 14 12.0046C14 13.1092 13.1046 14.0046 12 14.0046C10.8954 14.0046 10 13.1092 10 12.0046C10 10.9001 10.8954 10.0046 12 10.0046Z" fill="black"/>
<path d="M21 12.0046C21 10.9001 20.1046 10.0046 19 10.0046C17.8954 10.0046 17 10.9001 17 12.0046C17 13.1092 17.8954 14.0046 19 14.0046C20.1046 14.0046 21 13.1092 21 12.0046Z" fill="black"/>
</svg>
