<svg width="24" height="24" viewBox="0 0 24 24" fill="none" xmlns="http://www.w3.org/2000/svg">
<path fill-rule="evenodd" clip-rule="evenodd" d="M3 5.99536C3 5.44308 3.44772 4.99536 4 4.99536H20C20.5523 4.99536 21 5.44308 21 5.99536C21 6.54765 20.5523 6.99536 20 6.99536H4C3.44772 6.99536 3 6.54765 3 5.99536ZM3 12C3 11.4477 3.44772 11 4 11H20C20.5523 11 21 11.4477 21 12C21 12.5523 20.5523 13 20 13H4C3.44772 13 3 12.5523 3 12ZM3 17.9954C3 17.4431 3.44772 16.9954 4 16.9954H20C20.5523 16.9954 21 17.4431 21 17.9954C21 18.5476 20.5523 18.9954 20 18.9954H4C3.44772 18.9954 3 18.5476 3 17.9954Z" fill="black"/>
</svg>
