<svg width="24" height="24" viewBox="0 0 24 24" fill="none" xmlns="http://www.w3.org/2000/svg">
<path fill-rule="evenodd" clip-rule="evenodd" d="M3 6C3 5.44772 3.44772 5 4 5H20C20.5523 5 21 5.44772 21 6C21 6.55228 20.5523 7 20 7H4C3.44772 7 3 6.55228 3 6ZM3 12.0046C3 11.4524 3.44772 11.0046 4 11.0046H20C20.5523 11.0046 21 11.4524 21 12.0046C21 12.5569 20.5523 13.0046 20 13.0046H4C3.44772 13.0046 3 12.5569 3 12.0046ZM3 18C3 17.4477 3.44772 17 4 17H20C20.5523 17 21 17.4477 21 18C21 18.5523 20.5523 19 20 19H4C3.44772 19 3 18.5523 3 18Z" fill="black"/>
</svg>
