<svg xmlns="http://www.w3.org/2000/svg" width="24" height="24" fill="none" viewBox="0 0 24 24"><path fill="#000" fill-rule="evenodd" d="M2 5.7432c0-2.0711 1.679-3.75 3.75-3.75h12.5c2.0711 0 3.75 1.6789 3.75 3.75v8.5046c0 2.0711-1.6789 3.75-3.75 3.75H8.3783c-.3507 0-.6852.1473-.922.406l-2.8497 3.1127c-.9241 1.0094-2.6065.3556-2.6064-1.0129v-8.9955zm6 5.2567c.5523 0 1-.4477 1-1s-.4477-1-1-1-1 .4477-1 1 .4477 1 1 1m5-1c0 .5523-.4477 1-1 1s-1-.4477-1-1 .4477-1 1-1 1 .4477 1 1m4 0c0 .5523-.4477 1-1 1s-1-.4477-1-1 .4477-1 1-1 1 .4477 1 1"/></svg>