<svg xmlns="http://www.w3.org/2000/svg" width="24" height="24" fill="none" viewBox="0 0 24 24"><path fill="#000" fill-rule="evenodd" d="M2 6.6232C2 5.1745 3.2592 4 4.8125 4h9.375C15.7408 4 17 5.1745 17 6.6232v5.9493c0 1.4488-1.2592 2.6232-2.8125 2.6232H6.7837c-.263 0-.5139.1031-.6915.284L3.955 17.6571c-.693.7061-1.9548.2488-1.9547-.7086l.0002-4.3308L2 12.5725zm2 5.9583q.0004.0182.0004.0363l-.0001 2.138.6646-.6771c.5692-.5798 1.3414-.883 2.1188-.883h7.4038c.5822 0 .8125-.408.8125-.6232V6.6232C15 6.408 14.7697 6 14.1875 6h-9.375C4.2303 6 4 6.408 4 6.6232zM19 8h.1875C20.7408 8 22 9.1745 22 10.6232v5.9493q0 .0226-.0005.0452l.0003 4.3308c.0001.9574-1.2617 1.4147-1.9548.7086l-2.1373-2.1774c-.1776-.1809-.4285-.284-.6915-.284H9.8125c-1.2832 0-2.3657-.8014-2.7034-1.8969l-.027-.1031h10.1341c.7774 0 1.5497.3032 2.1188.883l.6647.6771-.0002-2.138q0-.0182.0004-.0363l.0001-.009v-5.9493c0-.2152-.2303-.6232-.8125-.6232H19z"/></svg>