<svg width="24" height="24" viewBox="0 0 24 24" fill="none" xmlns="http://www.w3.org/2000/svg">
<path d="M8 10.9999C8.55228 10.9999 9 10.5522 9 9.99991C9 9.44762 8.55228 8.99991 8 8.99991C7.44772 8.99991 7 9.44762 7 9.99991C7 10.5522 7.44772 10.9999 8 10.9999Z" fill="black"/>
<path d="M13 9.99991C13 10.5522 12.5523 10.9999 12 10.9999C11.4477 10.9999 11 10.5522 11 9.99991C11 9.44762 11.4477 8.99991 12 8.99991C12.5523 8.99991 13 9.44762 13 9.99991Z" fill="black"/>
<path d="M16 10.9999C16.5523 10.9999 17 10.5522 17 9.99991C17 9.44762 16.5523 8.99991 16 8.99991C15.4477 8.99991 15 9.44762 15 9.99991C15 10.5522 15.4477 10.9999 16 10.9999Z" fill="black"/>
<path fill-rule="evenodd" clip-rule="evenodd" d="M5.75 1.99316C3.67893 1.99316 2 3.6721 2 5.74316V14.2478C2 14.2694 2.00018 14.2909 2.00055 14.3124L2.00021 20.5036C2.00014 21.8721 3.68248 22.5259 4.60658 21.5165L7.45631 18.4038C7.6931 18.1451 8.02763 17.9978 8.37829 17.9978H18.25C20.3211 17.9978 22 16.3189 22 14.2478V5.74316C22 3.6721 20.3211 1.99316 18.25 1.99316H5.75ZM4.00055 14.3125L4 14.2478V5.74316C4 4.77667 4.7835 3.99316 5.75 3.99316H18.25C19.2165 3.99316 20 4.77667 20 5.74316V14.2478C20 15.2143 19.2165 15.9978 18.25 15.9978H8.37829C7.46658 15.9978 6.59679 16.3808 5.98115 17.0533L4.00028 19.217L4.00055 14.3125Z" fill="black"/>
</svg>
