<svg xmlns="http://www.w3.org/2000/svg" width="24" height="24" fill="none" viewBox="0 0 24 24"><path fill="url(#a)" d="M20.0512 16.8864a7.4 7.4 0 0 1-.8235.368 7.96 7.96 0 0 1-2.8049.5047c-3.6971 0-6.9176-2.5432-6.9176-5.8066a2.46 2.46 0 0 1 1.2836-2.1338c-3.344.1407-4.2033 3.6253-4.2033 5.6668 0 5.7722 5.3198 6.3574 6.466 6.3574.618 0 1.5501-.1797 2.1095-.3562l.1023-.0344a10.027 10.027 0 0 0 5.2035-4.1253.312.312 0 0 0 .0472-.1972.312.312 0 0 0-.2632-.2791.312.312 0 0 0-.1996.0357"/><path fill="url(#b)" d="M10.2586 20.8618a6.19 6.19 0 0 1-1.7767-1.6673 6.306 6.306 0 0 1-1.0299-5.2251 6.306 6.306 0 0 1 3.3371-4.1505c.2438-.1148.6602-.3226 1.2141-.3125a2.528 2.528 0 0 1 2.0072 1.0157c.3155.4213.4895.9317.4969 1.4579 0-.0164 1.9111-6.2191-6.2504-6.2191-3.4299 0-6.2504 3.2549-6.2504 6.1105a10.17 10.17 0 0 0 .9462 4.3753A10.001 10.001 0 0 0 15.1706 21.49a5.903 5.903 0 0 1-4.905-.625z"/><path fill="url(#c)" d="M13.8991 13.6299c-.0633.0821-.2578.1954-.2578.4423 0 .2039.1328.4.3687.5648 1.1236.7813 3.2417.6782 3.2471.6782a4.654 4.654 0 0 0 2.365-.6524 4.796 4.796 0 0 0 2.3775-4.1315c.0203-1.7509-.625-2.915-.886-3.4307-1.6555-3.2385-5.2292-5.101-9.1154-5.101a10.0006 10.0006 0 0 0-10.0006 9.8599C2.035 9.0046 4.8727 6.699 8.248 6.699c.2734 0 1.8329.0266 3.2814.7868 1.2767.6704 1.9455 1.4798 2.4103 2.2822.4829.8336.5688 1.8868.5688 2.3064s-.2141 1.0415-.6094 1.5555"/><path fill="url(#d)" d="M13.8991 13.6299c-.0633.0821-.2578.1954-.2578.4423 0 .2039.1328.4.3687.5648 1.1236.7813 3.2417.6782 3.2471.6782a4.654 4.654 0 0 0 2.365-.6524 4.796 4.796 0 0 0 2.3775-4.1315c.0203-1.7509-.625-2.915-.886-3.4307-1.6555-3.2385-5.2292-5.101-9.1154-5.101a10.0006 10.0006 0 0 0-10.0006 9.8599C2.035 9.0046 4.8727 6.699 8.248 6.699c.2734 0 1.8329.0266 3.2814.7868 1.2767.6704 1.9455 1.4798 2.4103 2.2822.4829.8336.5688 1.8868.5688 2.3064s-.2141 1.0415-.6094 1.5555"/><defs><radialGradient id="c" cx="0" cy="0" r="1" gradientTransform="rotate(92.29 -.73 4.78)scale(15.8285 33.7114)" gradientUnits="userSpaceOnUse"><stop stop-color="#35c1f1"/><stop offset="0" stop-color="#34c1ed"/><stop offset="0" stop-color="#2fc2df"/><stop offset="0" stop-color="#2bc3d2"/><stop offset="1" stop-color="#36c752"/></radialGradient><radialGradient id="d" cx="0" cy="0" r="1" gradientTransform="rotate(73.74 5.012 17.86)scale(7.60518 6.18453)" gradientUnits="userSpaceOnUse"><stop stop-color="#66eb6e"/><stop offset="1" stop-color="#66eb6e" stop-opacity="0"/></radialGradient><linearGradient id="a" x1="7" x2="21" y1="16" y2="16" gradientUnits="userSpaceOnUse"><stop stop-color="#0c59a4"/><stop offset="1" stop-color="#114a8b"/></linearGradient><linearGradient id="b" x1="14" x2="5" y1="10" y2="19" gradientUnits="userSpaceOnUse"><stop stop-color="#1b9de2"/><stop offset="0" stop-color="#1595df"/><stop offset="1" stop-color="#0680d7"/><stop offset="1" stop-color="#0078d4"/></linearGradient></defs></svg>