<svg width="24" height="24" viewBox="0 0 24 24" fill="none" xmlns="http://www.w3.org/2000/svg">
<path fill-rule="evenodd" clip-rule="evenodd" d="M8 6.31201C8 4.10287 9.79086 2.31201 12 2.31201C14.2091 2.31201 16 4.10287 16 6.31201V11.312C16 13.5212 14.2091 15.312 12 15.312C9.79086 15.312 8 13.5212 8 11.312V6.31201ZM12 4.31201C10.8954 4.31201 10 5.20744 10 6.31201V11.312C10 12.4166 10.8954 13.312 12 13.312C13.1046 13.312 14 12.4166 14 11.312V6.31201C14 5.20744 13.1046 4.31201 12 4.31201Z" fill="black"/>
<path d="M5 10.312C5.55228 10.312 6 10.7597 6 11.312C6 14.6257 8.68629 17.312 12 17.312C15.3137 17.312 18 14.6257 18 11.312C18 10.7597 18.4477 10.312 19 10.312C19.5523 10.312 20 10.7597 20 11.312C20 15.3916 16.9463 18.758 13 19.2501V21.312C13 21.8643 12.5523 22.312 12 22.312C11.4477 22.312 11 21.8643 11 21.312V19.2501C7.05369 18.758 4 15.3916 4 11.312C4 10.7597 4.44772 10.312 5 10.312Z" fill="black"/>
</svg>
