<svg xmlns="http://www.w3.org/2000/svg" width="24" height="24" fill="none" viewBox="0 0 24 24"><path fill="#000" fill-rule="evenodd" d="M4 4C2.3431 4 1 5.3431 1 7v10c0 1.6569 1.3431 3 3 3 0 .5523.4477 1 1 1s1-.4477 1-1h12c0 .5523.4477 1 1 1s1-.4477 1-1c1.6569 0 3-1.3431 3-3V7c0-1.6569-1.3431-3-3-3zm17 13c0 .5523-.4477 1-1 1H4c-.5523 0-1-.4477-1-1V7c0-.5523.4477-1 1-1h16c.5523 0 1 .4477 1 1zM5 10c0-1.1046.8954-2 2-2h6c1.1046 0 2 .8954 2 2v4c0 1.1046-.8954 2-2 2H7c-1.1046 0-2-.8954-2-2zm12-2c-.5523 0-1 .4477-1 1s.4477 1 1 1h2c.5523 0 1-.4477 1-1s-.4477-1-1-1zm-4 2H7v4h6z"/></svg>