<svg width="24" height="24" viewBox="0 0 24 24" fill="none" xmlns="http://www.w3.org/2000/svg">
<path fill-rule="evenodd" clip-rule="evenodd" d="M8.00023 9.41421L3.29485 4.70883C2.90432 4.31831 2.90432 3.68514 3.29485 3.29462C3.68537 2.90409 4.31854 2.90409 4.70906 3.29462L20.7056 19.2912C21.0961 19.6817 21.0961 20.3149 20.7056 20.7054C20.3151 21.0959 19.6819 21.0959 19.2914 20.7054L16.3204 17.7344C15.3395 18.3649 14.212 18.787 13.0002 18.9381V21C13.0002 21.5523 12.5525 22 12.0002 22C11.4479 22 11.0002 21.5523 11.0002 21V18.9381C7.05392 18.446 4.00023 15.0796 4.00023 11C4.00023 10.4477 4.44794 10 5.00023 10C5.55251 10 6.00023 10.4477 6.00023 11C6.00023 14.3137 8.68652 17 12.0002 17C13.0362 17 14.0108 16.7374 14.8613 16.2752L13.3519 14.7659C12.9297 14.9174 12.4746 15 12.0002 15C9.79109 15 8.00023 13.2091 8.00023 11V9.41421ZM11.5306 12.9445C10.8032 12.7695 10.2307 12.197 10.0557 11.4697L11.5306 12.9445Z" fill="black"/>
<path d="M14.0002 6V9.7793L15.9364 11.7155C15.9783 11.4833 16.0002 11.2442 16.0002 11V6C16.0002 3.79086 14.2094 2 12.0002 2C10.4369 2 9.08301 2.89686 8.42506 4.20414L10.0111 5.79018C10.116 4.78423 10.9665 4 12.0002 4C13.1048 4 14.0002 4.89543 14.0002 6Z" fill="black"/>
<path d="M17.5369 13.316L19.0345 14.8136C19.6504 13.68 20.0002 12.3808 20.0002 11C20.0002 10.4477 19.5525 10 19.0002 10C18.4479 10 18.0002 10.4477 18.0002 11C18.0002 11.8209 17.8354 12.6034 17.5369 13.316Z" fill="black"/>
</svg>
