<svg xmlns="http://www.w3.org/2000/svg" width="24" height="24" fill="none" viewBox="0 0 24 24"><path fill="#000" fill-rule="evenodd" d="M12 2C9.7909 2 8 3.7909 8 6v5c0 2.2091 1.7909 4 4 4s4-1.7909 4-4V6c0-2.2091-1.7909-4-4-4m-2 4c0-1.1046.8954-2 2-2s2 .8954 2 2v5c0 1.1046-.8954 2-2 2s-2-.8954-2-2zm-4 5c0-.5523-.4477-1-1-1s-1 .4477-1 1c0 4.0796 3.0537 7.446 7 7.9381V21c0 .5523.4477 1 1 1s1-.4477 1-1v-2.0619c3.9463-.4921 7-3.8585 7-7.9381 0-.5523-.4477-1-1-1s-1 .4477-1 1c0 3.3137-2.6863 6-6 6s-6-2.6863-6-6"/></svg>