<svg width="24" height="24" viewBox="0 0 24 24" fill="none" xmlns="http://www.w3.org/2000/svg">
<path fill-rule="evenodd" clip-rule="evenodd" d="M8.00023 9.72623L3.29485 5.02084C2.90432 4.63032 2.90432 3.99715 3.29485 3.60663C3.68537 3.2161 4.31854 3.2161 4.70906 3.60663L20.7056 19.6032C21.0961 19.9937 21.0961 20.6269 20.7056 21.0174C20.3151 21.4079 19.6819 21.4079 19.2914 21.0174L16.3204 18.0464C15.3395 18.6769 14.212 19.099 13.0002 19.2501V21.312C13.0002 21.8643 12.5525 22.312 12.0002 22.312C11.4479 22.312 11.0002 21.8643 11.0002 21.312V19.2501C7.05392 18.758 4.00023 15.3916 4.00023 11.312C4.00023 10.7597 4.44794 10.312 5.00023 10.312C5.55251 10.312 6.00023 10.7597 6.00023 11.312C6.00023 14.6257 8.68652 17.312 12.0002 17.312C13.0362 17.312 14.0108 17.0495 14.8613 16.5873L13.3519 15.0779C12.9297 15.2294 12.4746 15.312 12.0002 15.312C9.79109 15.312 8.00023 13.5212 8.00023 11.312V9.72623ZM11.5306 13.2566C10.8032 13.0815 10.2307 12.509 10.0557 11.7817L11.5306 13.2566Z" fill="black"/>
<path d="M14.0002 6.31201V10.0913L15.9364 12.0275C15.9783 11.7954 16.0002 11.5562 16.0002 11.312V6.31201C16.0002 4.10287 14.2094 2.31201 12.0002 2.31201C10.4369 2.31201 9.08301 3.20887 8.42506 4.51615L10.0111 6.10219C10.116 5.09624 10.9665 4.31201 12.0002 4.31201C13.1048 4.31201 14.0002 5.20744 14.0002 6.31201Z" fill="black"/>
<path d="M17.5369 13.628L19.0345 15.1256C19.6504 13.992 20.0002 12.6928 20.0002 11.312C20.0002 10.7597 19.5525 10.312 19.0002 10.312C18.4479 10.312 18.0002 10.7597 18.0002 11.312C18.0002 12.133 17.8354 12.9154 17.5369 13.628Z" fill="black"/>
</svg>
