<svg width="24" height="24" viewBox="0 0 24 24" fill="none" xmlns="http://www.w3.org/2000/svg">
<path d="M8.66675 11C8.11446 11 7.66675 11.4477 7.66675 12C7.66675 12.5523 8.11446 13 8.66675 13H15.3334C15.8857 13 16.3334 12.5523 16.3334 12C16.3334 11.4477 15.8857 11 15.3334 11H8.66675Z" fill="black"/>
<path fill-rule="evenodd" clip-rule="evenodd" d="M1.99756 5C1.99756 3.34314 3.3407 2 4.99756 2H19.0027C20.6595 2 22.0027 3.34315 22.0027 5V19C22.0027 20.6568 20.6595 22 19.0027 22H4.99756C3.3407 22 1.99756 20.6568 1.99756 19V5ZM4.99756 4H19.0027C19.555 4 20.0027 4.44771 20.0027 5V19C20.0027 19.5523 19.555 20 19.0027 20H4.99756C4.44527 20 3.99756 19.5523 3.99756 19V5C3.99756 4.44771 4.44527 4 4.99756 4Z" fill="black"/>
</svg>
