<svg xmlns="http://www.w3.org/2000/svg" width="24" height="24" fill="none" viewBox="0 0 24 24"><path fill="#000" fill-rule="evenodd" d="m15.8123 20.2372.0158-2.7986q-1.8436-.4345-3.8278-.4345-1.9614 0-3.8087.4574v2.7851q0 .5662-.2427.995t-.7283.72l-2.2798 1.3679q-.295.177-.6134.2445t-.66.0255-.634-.1847-.5358-.3861L.3019 20.8329q-.2928-.293-.2929-.7071t.293-.7071q1.1322-1.1322 3.1477-2.2316 1.6186-.883 3.3266-1.4087a1 1 0 0 1 .245-.0734 17 17 0 0 1 .6457-.175q2.1009-.5259 4.3333-.5259 2.6606 0 5.108.7023 2.48.7115 4.5392 2.0637.1814.119.3594.2431 1.1234.7824 1.7226 1.4377.2709.2961.2619.6972-.0044.2005-.0776.3718-.0732.1712-.215.313l-2.1958 2.1958q-.2433.2433-.5358.386t-.6341.1848-.6599-.0255-.6134-.2445l-2.2766-1.366q-.4887-.2932-.7314-.7248t-.2395-1.0015m1.9999.0114.0125-2.1969q1.5802.6048 2.9391 1.5336.05.0343.1.069.381.2654.6813.5038l-1.4563 1.4564zM15 6c0 .56.44 1 1 1h.5858L12 11.5858l-3.2929-3.293c-.396-.3959-1.0182-.3959-1.4142 0-.396.396-.396 1.0183 0 1.4143l4 4q.293.293.7071.2929.4143 0 .7071-.2929L18 8.4142V9c0 .56.44 1 1 1s1-.44 1-1V6q0-.4141-.2929-.7071T19 5h-3c-.56 0-1 .44-1 1M6.1916 20.2466v-2.1427a16.3 16.3 0 0 0-1.7842.839q-1.1424.6231-1.9346 1.2325l1.439 1.4391z"/></svg>