<svg xmlns="http://www.w3.org/2000/svg" width="24" height="24" fill="none" viewBox="0 0 24 24"><path fill="#000" fill-rule="evenodd" d="M2 5c0-1.6569 1.3431-3 3-3h14c1.6569 0 3 1.3431 3 3v14c0 1.6569-1.3431 3-3 3H5c-1.6569 0-3-1.3431-3-3zm3-1c-.5523 0-1 .4477-1 1v14c0 .5523.4477 1 1 1h14c.5523 0 1-.4477 1-1V5c0-.5523-.4477-1-1-1zm5 11.7324c.5978-.3458 1-.9921 1-1.7324s-.4022-1.3866-1-1.7324V7c0-.5523-.4477-1-1-1s-1 .4477-1 1v5.2676c-.5978.3458-1 .9921-1 1.7324s.4022 1.3866 1 1.7324V17c0 .5523.4477 1 1 1s1-.4477 1-1zm4-7.4648c-.5978.3458-1 .9921-1 1.7324s.4022 1.3866 1 1.7324V17c0 .5523.4477 1 1 1s1-.4477 1-1v-5.2676c.5978-.3458 1-.9921 1-1.7324s-.4022-1.3866-1-1.7324V7c0-.5523-.4477-1-1-1s-1 .4477-1 1z"/></svg>