<svg width="24" height="24" viewBox="0 0 24 24" fill="none" xmlns="http://www.w3.org/2000/svg">
<path d="M11.6109 3.40834C11.7619 3.07067 11.7142 2.67721 11.4869 2.38542C11.2595 2.09362 10.8897 1.95116 10.5253 2.01506C5.70135 2.861 2 6.95472 2 11.927C2 17.5217 6.68083 22 12.3835 22C16.6374 22 20.3109 19.5151 21.9128 15.9338C22.0639 15.5961 22.0162 15.2027 21.7888 14.9109C21.5615 14.6191 21.1916 14.4766 20.8273 14.5405C20.3373 14.6264 19.8318 14.6715 19.3146 14.6715C14.6525 14.6715 10.9311 11.0256 10.9311 6.59848C10.9311 5.46411 11.1735 4.38627 11.6109 3.40834Z" fill="black"/>
</svg>
