<svg xmlns="http://www.w3.org/2000/svg" width="24" height="24" fill="none" viewBox="0 0 24 24"><path fill="#000" d="M9.5 11.87c0 .552-.448 1-1 1s-1-.448-1-1 .448-1 1-1 1 .448 1 1m3 1c.552 0 1-.448 1-1s-.448-1-1-1-1 .448-1 1 .448 1 1 1m5-1c0 .552-.448 1-1 1s-1-.448-1-1 .448-1 1-1 1 .448 1 1"/><path fill="#000" fill-rule="evenodd" d="M12.5 21.8701c5.5228 0 10-4.4771 10-10s-4.4772-10-10-10-10 4.4772-10 10 4.4772 10 10 10m8-10c0 4.4183-3.5817 8-8 8s-8-3.5817-8-8 3.5817-8 8-8 8 3.5817 8 8" clip-rule="evenodd"/></svg>