<svg xmlns="http://www.w3.org/2000/svg" width="24" height="24" fill="none" viewBox="0 0 24 24"><path fill="#000" fill-rule="evenodd" d="m15.8736 7.3561 3.9177.0003q.515 0 .9691.1661.3944.1444.743.414.3236.2502.5542.5682l.0002.0002q.2552.3517.3963.7862.1412.4343.1415.8689a2.78 2.78 0 0 1-.1144.7858q-.1234.4227-.3575.7711l-.0001.0002q-.2697.4015-.6866.7044l-1.0438.7584a3.3 3.3 0 0 0-.269-.3041q-.426-.426-.9402-.6448l-.0006-.0002a2.84 2.84 0 0 0-.6318-.185l.9489-.6894.0368-.0268.7241-.5261c.6269-.4555.3047-1.4471-.4702-1.4471h-.9406l-3.8488-.0003a.8.8 0 0 1-.7608-.5527l-1.1896-3.6606-.014-.0433-.2766-.851c-.2395-.737-1.2822-.737-1.5217 0l-.2766.851-1.2036 3.7039a.8.8 0 0 1-.7608.5527l-3.8488.0002h-.9406c-.775 0-1.0971.9917-.4702 1.4472l.7241.5261.0368.0268 3.1137 2.2624a.8.8 0 0 1 .2906.8944l-1.1892 3.6606-.014.0433-.2766.8511c-.2394.737.604 1.3499 1.231.8944l.724-.526.0369-.0267 3.114-2.2623a.8.8 0 0 1 .6269-.1373Q12 17.4719 12 18q0 .602.2036 1.1174c.0001.0001-.2036.1607-.2036.1607l-3.1695 2.3026q-.4169.3028-.8824.4354-.4036.115-.8438.1016-.4092-.0122-.7826-.134-.4132-.1346-.7827-.4031-.3696-.2685-.6253-.6198-.2311-.3176-.3693-.7029-.1486-.4146-.164-.834-.018-.4836.1414-.9737l1.2104-3.7259-3.1693-2.3028q-.417-.303-.6867-.7046-.234-.3484-.3575-.7711-.1147-.393-.1144-.7858.0003-.4345.1415-.869.1412-.4343.3963-.786v-.0001q.2307-.318.5545-.5685.3483-.2694.7424-.4137.4545-.1663.9697-.1663l3.9176-.0003L9.337 3.6303q.1593-.49.4579-.8708.259-.3303.623-.5783.3383-.2306.7119-.3516.4134-.134.8702-.134t.8701.134h.0001q.3737.1211.7118.3516.364.248.623.5783.2986.3808.4579.8708zM17 15c0-.56.44-1 1-1s1 .44 1 1v2h2c.56 0 1 .44 1 1s-.44 1-1 1h-2v2c0 .56-.44 1-1 1s-1-.44-1-1v-2h-2c-.56 0-1-.44-1-1s.44-1 1-1h2z"/></svg>