<svg xmlns="http://www.w3.org/2000/svg" width="24" height="24" fill="none" viewBox="0 0 24 24"><path fill="#000" fill-rule="evenodd" d="M7 2C5.3431 2 4 3.3431 4 5v4c0 1.6569 1.3431 3 3 3h3c0 1.1046.8954 2 2 2s2-.8954 2-2h3c1.6569 0 3-1.3431 3-3V5c0-1.6569-1.3431-3-3-3zm10 8c.5523 0 1-.4477 1-1V5c0-.5523-.4477-1-1-1H7c-.5523 0-1 .4477-1 1v4c0 .5523.4477 1 1 1zM7 7c0-.5523.4477-1 1-1h4c.5523 0 1 .4477 1 1s-.4477 1-1 1H8c-.5523 0-1-.4477-1-1m9 1c.5523 0 1-.4477 1-1s-.4477-1-1-1-1 .4477-1 1 .4477 1 1 1m-7.3452 6.2648c-.3368-.4345-.9618-.5159-1.3987-.181-.4141.3175-.511.8954-.237 1.3279q.024.038.0518.0742c.034.0443.0698.0871.1062.1294.0602.0701.1454.1649.2548.2761.2179.2217.5361.513.9483.8042.8219.5804 2.054 1.1844 3.6199 1.1844s2.798-.604 3.6199-1.1844a7 7 0 0 0 .9484-.8042c.113-.1149.3856-.439.3872-.4413.3051-.4361.215-1.0393-.2115-1.3662-.4369-.335-1.0619-.2536-1.3987.1809l-.0046.0058a2 2 0 0 1-.0345.0412 3.7 3.7 0 0 1-.1642.1776 5 5 0 0 1-.6759.5725c-.5957.4208-1.4315.8181-2.4661.8181s-1.8703-.3973-2.4661-.8181a5 5 0 0 1-.6759-.5725 3.7 3.7 0 0 1-.1641-.1776 2 2 0 0 1-.0345-.0412zm9.204 3.0855-.0129.0151a3 3 0 0 1-.0657.0735 6 6 0 0 1-.2888.2931c-.2614.2493-.6536.5867-1.1641.9247-1.0226.6772-2.4908 1.3391-4.3273 1.3391s-3.3047-.6619-4.3273-1.3391c-.5105-.338-.9027-.6754-1.1641-.9247a6 6 0 0 1-.2888-.2931 4 4 0 0 1-.0657-.0735l-.0125-.0147-.001-.0011c-.35-.4252-.9783-.4874-1.405-.1385-.408.3335-.4842.9225-.1865 1.3472a1 1 0 0 0 .0454.0599c.1638.1999.347.3829.5337.5611.3305.3151.8142.7304 1.4403 1.145 1.2507.8281 3.098 1.6715 5.4315 1.6715s4.1808-.8434 5.4315-1.6715c.6261-.4146 1.1098-.8299 1.4403-1.145.1921-.1832.5593-.5938.5618-.5971.3177-.4262.2464-1.0312-.1693-1.3711-.4267-.3489-1.0555-.2859-1.4055.1392"/></svg>