<svg width="24" height="24" viewBox="0 0 24 24" fill="none" xmlns="http://www.w3.org/2000/svg">
<path fill-rule="evenodd" clip-rule="evenodd" d="M10 3C8.34315 3 7 4.34315 7 6V14C7 15.6569 8.34315 17 10 17H18C19.6569 17 21 15.6569 21 14V6C21 4.34315 19.6569 3 18 3H10ZM9 6C9 5.44772 9.44772 5 10 5H18C18.5523 5 19 5.44772 19 6V14C19 14.5523 18.5523 15 18 15H10C9.44772 15 9 14.5523 9 14V6Z" fill="black"/>
<path d="M4 9C4.55228 9 5 8.55228 5 8C5 7.44772 4.55228 7 4 7C3.44772 7 3 7.44772 3 8C3 8.55228 3.44772 9 4 9Z" fill="black"/>
<path d="M5 12C5 12.5523 4.55228 13 4 13C3.44772 13 3 12.5523 3 12C3 11.4477 3.44772 11 4 11C4.55228 11 5 11.4477 5 12Z" fill="black"/>
<path d="M4 17C4.55228 17 5 16.5523 5 16C5 15.4477 4.55228 15 4 15C3.44772 15 3 15.4477 3 16C3 16.5523 3.44772 17 4 17Z" fill="black"/>
<path d="M5 20C5 20.5523 4.55228 21 4 21C3.44772 21 3 20.5523 3 20C3 19.4477 3.44772 19 4 19C4.55228 19 5 19.4477 5 20Z" fill="black"/>
<path d="M8 21C8.55228 21 9 20.5523 9 20C9 19.4477 8.55228 19 8 19C7.44772 19 7 19.4477 7 20C7 20.5523 7.44772 21 8 21Z" fill="black"/>
<path d="M13 20C13 20.5523 12.5523 21 12 21C11.4477 21 11 20.5523 11 20C11 19.4477 11.4477 19 12 19C12.5523 19 13 19.4477 13 20Z" fill="black"/>
<path d="M16 21C16.5523 21 17 20.5523 17 20C17 19.4477 16.5523 19 16 19C15.4477 19 15 19.4477 15 20C15 20.5523 15.4477 21 16 21Z" fill="black"/>
</svg>
