<svg xmlns="http://www.w3.org/2000/svg" width="24" height="24" fill="none" viewBox="0 0 24 24"><path fill="#000" fill-rule="evenodd" d="M4 6.0541C4 5.4471 4.4727 5 5.0012 5h4.0677c.3197 0 .632.1287.868.367l1.3704 1.383c.1878.1895.4436.2962.7104.2962h6.9811c.5285 0 1.0012.4471 1.0012 1.0541v9.8455C20 18.5528 19.5273 19 18.9988 19H5.0012C4.4727 19 4 18.5528 4 17.9459V15H2v2.9459C2 19.6078 3.3192 21 5.0012 21h13.9976C20.6808 21 22 19.6078 22 17.9459V8.1004c0-1.662-1.3192-3.0541-3.0012-3.0541h-6.5642l-1.077-1.087C10.7516 3.3476 9.9301 3 9.0689 3H5.0012C3.3192 3 2 4.3922 2 6.0541V9h2zM8.2929 8.293c.3905-.3905 1.0237-.3905 1.4142 0l3 3c.3905.3905.3905 1.0237 0 1.4142l-3 3c-.3905.3905-1.0237.3905-1.4142 0s-.3905-1.0237 0-1.4142L9.5858 13H2c-.5523 0-1-.4477-1-1s.4477-1 1-1h7.5858L8.2929 9.7071c-.3905-.3905-.3905-1.0237 0-1.4142"/></svg>