<svg width="24" height="24" viewBox="0 0 24 24" fill="none" xmlns="http://www.w3.org/2000/svg">
<path d="M2 5C2 3.34315 3.34315 2 5 2H7C7.55228 2 8 2.44772 8 3C8 3.55228 7.55228 4 7 4H5C4.44772 4 4 4.44772 4 5V7C4 7.55228 3.55228 8 3 8C2.44772 8 2 7.55228 2 7V5Z" fill="black"/>
<path d="M16 3C16 2.44772 16.4477 2 17 2H19C20.6569 2 22 3.34315 22 5V7C22 7.55228 21.5523 8 21 8C20.4477 8 20 7.55228 20 7V5C20 4.44772 19.5523 4 19 4H17C16.4477 4 16 3.55228 16 3Z" fill="black"/>
<path d="M3 16C3.55228 16 4 16.4477 4 17V19C4 19.5523 4.44772 20 5 20H7C7.55228 20 8 20.4477 8 21C8 21.5523 7.55228 22 7 22H5C3.34315 22 2 20.6569 2 19V17C2 16.4477 2.44772 16 3 16Z" fill="black"/>
<path d="M21 16C21.5523 16 22 16.4477 22 17V19C22 20.6569 20.6569 22 19 22H17C16.4477 22 16 21.5523 16 21C16 20.4477 16.4477 20 17 20H19C19.5523 20 20 19.5523 20 19V17C20 16.4477 20.4477 16 21 16Z" fill="black"/>
<path d="M10 3C10 2.44772 10.4477 2 11 2H13C13.5523 2 14 2.44772 14 3C14 3.55228 13.5523 4 13 4H11C10.4477 4 10 3.55228 10 3Z" fill="black"/>
<path d="M21 10C21.5523 10 22 10.4477 22 11V13C22 13.5523 21.5523 14 21 14C20.4477 14 20 13.5523 20 13V11C20 10.4477 20.4477 10 21 10Z" fill="black"/>
<path d="M13 22C13.5523 22 14 21.5523 14 21C14 20.4477 13.5523 20 13 20H11C10.4477 20 10 20.4477 10 21C10 21.5523 10.4477 22 11 22H13Z" fill="black"/>
<path d="M2 13C2 13.5523 2.44771 14 3 14C3.55229 14 4 13.5523 4 13V11C4 10.4477 3.55229 10 3 10C2.44771 10 2 10.4477 2 11V13Z" fill="black"/>
</svg>
