<svg xmlns="http://www.w3.org/2000/svg" width="24" height="24" fill="none" viewBox="0 0 24 24"><path fill="#000" fill-rule="evenodd" d="M6 7.8293C7.1652 7.4175 8 6.3063 8 5c0-1.6568-1.3431-3-3-3S2 3.3432 2 5c0 1.3062.8348 2.4175 2 2.8293V11a1 1 0 0 0 .4453.8321L7 13.5352V16H6c-1.6569 0-3 1.3431-3 3s1.3431 3 3 3h12c1.6569 0 3-1.3431 3-3s-1.3431-3-3-3h-1v-2.4648l2.5547-1.7031A1 1 0 0 0 20 11V7.8293c1.1652-.4118 2-1.523 2-2.8293 0-1.6568-1.3431-3-3-3s-3 1.3432-3 3c0 1.3062.8348 2.4175 2 2.8293v2.6355l-2.5547 1.7031A1 1 0 0 0 15 13v3h-2v-4.1707c1.1652-.4118 2-1.5231 2-2.8293 0-1.6569-1.3431-3-3-3S9 7.3431 9 9c0 1.3062.8348 2.4175 2 2.8293V16H9v-3a1 1 0 0 0-.4453-.8321L6 10.4648zM6 5c0 .5523-.4477 1-1 1s-1-.4477-1-1 .4477-1 1-1 1 .4477 1 1m14 0c0 .5523-.4477 1-1 1s-1-.4477-1-1 .4477-1 1-1 1 .4477 1 1m-7 4c0 .5523-.4477 1-1 1s-1-.4477-1-1 .4477-1 1-1 1 .4477 1 1M5 19c0-.5523.4477-1 1-1h12c.5523 0 1 .4477 1 1s-.4477 1-1 1H6c-.5523 0-1-.4477-1-1"/></svg>