<svg xmlns="http://www.w3.org/2000/svg" width="24" height="24" fill="none" viewBox="0 0 24 24"><path fill="#000" fill-rule="evenodd" d="M11 2c-.5523 0-1 .4477-1 1s.4477 1 1 1h2c.5523 0 1-.4477 1-1s-.4477-1-1-1zM5 2C3.3431 2 2 3.3431 2 5v2c0 .5523.4477 1 1 1s1-.4477 1-1V5c0-.5523.4477-1 1-1h2c.5523 0 1-.4477 1-1s-.4477-1-1-1zm12 0c-.5523 0-1 .4477-1 1s.4477 1 1 1h2c.5523 0 1 .4477 1 1v2c0 .5523.4477 1 1 1s1-.4477 1-1V5c0-1.6569-1.3431-3-3-3zM3 14c-.5523 0-1-.4477-1-1v-2c0-.5523.4477-1 1-1s1 .4477 1 1v2c0 .5523-.4477 1-1 1m19-3c0-.5523-.4477-1-1-1s-1 .4477-1 1v2c0 .5523.4477 1 1 1s1-.4477 1-1zM4 17c0-.5523-.4477-1-1-1s-1 .4477-1 1v2c0 1.6569 1.3431 3 3 3h2c.5523 0 1-.4477 1-1s-.4477-1-1-1H5c-.5523 0-1-.4477-1-1zm18 0c0-.5523-.4477-1-1-1s-1 .4477-1 1v2c0 .5523-.4477 1-1 1h-2c-.5523 0-1 .4477-1 1s.4477 1 1 1h2c1.6569 0 3-1.3431 3-3zm-8 4c0 .5523-.4477 1-1 1h-2c-.5523 0-1-.4477-1-1s.4477-1 1-1h2c.5523 0 1 .4477 1 1"/></svg>