<svg width="24" height="24" viewBox="0 0 24 24" fill="none" xmlns="http://www.w3.org/2000/svg">
<path fill-rule="evenodd" clip-rule="evenodd" d="M6 7.82929C7.16519 7.41746 8 6.30622 8 5C8 3.34315 6.65685 2 5 2C3.34315 2 2 3.34315 2 5C2 6.30622 2.83481 7.41746 4 7.82929V11C4 11.3344 4.1671 11.6466 4.4453 11.8321L7 13.5352V16H6C4.34315 16 3 17.3431 3 19C3 20.6569 4.34315 22 6 22H18C19.6569 22 21 20.6569 21 19C21 17.3431 19.6569 16 18 16H17V13.5352L19.5547 11.8321C19.8329 11.6466 20 11.3344 20 11V7.82929C21.1652 7.41746 22 6.30622 22 5C22 3.34315 20.6569 2 19 2C17.3431 2 16 3.34315 16 5C16 6.30622 16.8348 7.41746 18 7.82929V10.4648L15.4453 12.1679C15.1671 12.3534 15 12.6656 15 13V16H13V11.8293C14.1652 11.4175 15 10.3062 15 9C15 7.34315 13.6569 6 12 6C10.3431 6 9 7.34315 9 9C9 10.3062 9.83481 11.4175 11 11.8293V16H9V13C9 12.6656 8.8329 12.3534 8.5547 12.1679L6 10.4648V7.82929ZM6 5C6 5.55228 5.55228 6 5 6C4.44772 6 4 5.55228 4 5C4 4.44772 4.44772 4 5 4C5.55228 4 6 4.44772 6 5ZM20 5C20 5.55228 19.5523 6 19 6C18.4477 6 18 5.55228 18 5C18 4.44772 18.4477 4 19 4C19.5523 4 20 4.44772 20 5ZM13 9C13 9.55228 12.5523 10 12 10C11.4477 10 11 9.55228 11 9C11 8.44772 11.4477 8 12 8C12.5523 8 13 8.44772 13 9ZM5 19C5 18.4477 5.44772 18 6 18H18C18.5523 18 19 18.4477 19 19C19 19.5523 18.5523 20 18 20H6C5.44772 20 5 19.5523 5 19Z" fill="black"/>
</svg>
