<svg xmlns="http://www.w3.org/2000/svg" width="24" height="24" fill="none" viewBox="0 0 24 24"><path fill="#000" fill-rule="evenodd" d="M12 2c1.1046 0 2 .8954 2 2 0 .7398-.4029 1.3835-1 1.7295V9h2c.5523 0 1 .4477 1 1v1h2c1.1046 0 2 .8954 2 2v5.2695c.5973.346 1 .9906 1 1.7305 0 1.1046-.8954 2-2 2s-2-.8954-2-2c0-.7399.4027-1.3845 1-1.7305V13h-2v1c0 .5523-.4477 1-1 1h-2v3.2695c.5973.346 1 .9906 1 1.7305 0 1.1046-.8954 2-2 2s-2-.8954-2-2c0-.7399.4027-1.3845 1-1.7305V15H9c-.5523 0-1-.4477-1-1v-1H6v5.2695c.5973.346 1 .9906 1 1.7305 0 1.1046-.8954 2-2 2s-2-.8954-2-2c0-.7399.4027-1.3845 1-1.7305V13c0-1.1046.8954-2 2-2h2v-1c0-.5523.4477-1 1-1h2V5.7295c-.5971-.346-1-.9897-1-1.7295 0-1.1046.8954-2 2-2m-2 11h4v-2h-4z"/></svg>