<svg xmlns="http://www.w3.org/2000/svg" width="24" height="24" fill="none" viewBox="0 0 24 24"><path fill="#000" d="M19.3447 3H4.6553C3.7411 3 3 3.7411 3 4.6553v14.6894C3 20.2589 3.7411 21 4.6553 21h14.6894C20.2589 21 21 20.2589 21 19.3447V4.6553C21 3.7411 20.2589 3 19.3447 3"/><path fill="#b1060f" fill-rule="evenodd" d="m12.965 5.903-.005 2.698-.005 2.698-.222-.626v-.001l-.287 6.007c.282.797.433 1.222.435 1.223.002.002.163.012.357.022.589.029 1.318.092 1.871.161.128.016.238.024.245.018s.01-2.753.008-6.105l-.004-6.094h-2.393m-4.328-.009v6.101c0 3.355.003 6.104.007 6.108s.212-.016.462-.044.595-.063.768-.077c.264-.022 1.053-.073 1.144-.074.027 0 .028-.137.032-2.584l.004-2.584.191.54.068.191.287-6.006-.099-.278c-.234-.662-.433-1.224-.442-1.249l-.016-.044z" clip-rule="evenodd"/><path fill="url(#a)" fill-rule="evenodd" d="M8.6367 5.8953v3.4244l2.4124 6.3991.0008-.3935.004-2.5838.1909.54c1.0624 3.0061 1.6331 4.6179 1.6365 4.6213.0022.0022.1629.0119.3572.0215.5885.0292 1.3177.0918 1.8709.1605.1281.016.2383.0241.245.0182.0045-.0041.0075-1.3512.0083-3.2516l-2.4011-6.903-.0011.6532-.0048 2.6983-.222-.6264a6479 6479 0 0 1-1.2332-3.4853c-.2343-.6625-.4332-1.2245-.4419-1.2488l-.0158-.0441z" clip-rule="evenodd"/><path fill="#e50914" fill-rule="evenodd" d="m8.6367 5.8953 2.4172 6.8493v-.0031l.1908.54c1.0624 3.0061 1.6332 4.6179 1.6365 4.6213.0023.0022.163.0119.3572.0215.5885.0292 1.3178.0918 1.871.1605.1274.0159.2371.024.2447.0182l-2.3984-6.8044v.0013l-.222-.6264a5588 5588 0 0 1-1.2332-3.4853l-.4419-1.2488-.0159-.0441z" clip-rule="evenodd"/><path fill="#b1060f" fill-rule="evenodd" d="m12.965 5.903-.005 2.698-.005 2.698-.222-.626v-.001l-.287 6.007c.282.797.433 1.222.435 1.223.002.002.163.012.357.022.589.029 1.318.092 1.871.161.128.016.238.024.245.018s.01-2.753.008-6.105l-.004-6.094h-2.393m-4.328-.009v6.101c0 3.355.003 6.104.007 6.108s.212-.016.462-.044.595-.063.768-.077c.264-.022 1.053-.073 1.144-.074.027 0 .028-.137.032-2.584l.004-2.584.191.54.068.191.287-6.006-.099-.278c-.234-.662-.433-1.224-.442-1.249l-.016-.044z" clip-rule="evenodd"/><path fill="url(#b)" fill-rule="evenodd" d="M8.6367 5.8953v3.4244l2.4124 6.3991.0008-.3935.004-2.5838.1909.54c1.0624 3.0061 1.6331 4.6179 1.6365 4.6213.0022.0022.1629.0119.3572.0215.5885.0292 1.3177.0918 1.8709.1605.1281.016.2383.0241.245.0182.0045-.0041.0075-1.3512.0083-3.2516l-2.4011-6.903-.0011.6532-.0048 2.6983-.222-.6264a6479 6479 0 0 1-1.2332-3.4853c-.2343-.6625-.4332-1.2245-.4419-1.2488l-.0158-.0441z" clip-rule="evenodd"/><path fill="#e50914" fill-rule="evenodd" d="m8.6367 5.8953 2.4172 6.8493v-.0031l.1908.54c1.0624 3.0061 1.6332 4.6179 1.6365 4.6213.0023.0022.163.0119.3572.0215.5885.0292 1.3178.0918 1.871.1605.1274.0159.2371.024.2447.0182l-2.3984-6.8044v.0013l-.222-.6264a5588 5588 0 0 1-1.2332-3.4853l-.4419-1.2488-.0159-.0441z" clip-rule="evenodd"/><defs><radialGradient id="a" cx="0" cy="0" r="1" gradientTransform="rotate(-19.098 41.4 -29.37)scale(1.52448 55.8404)" gradientUnits="userSpaceOnUse"><stop/><stop offset="1" stop-opacity="0"/></radialGradient><radialGradient id="b" cx="0" cy="0" r="1" gradientTransform="rotate(-19.098 41.4 -29.37)scale(1.52448 55.8404)" gradientUnits="userSpaceOnUse"><stop/><stop offset="1" stop-opacity="0"/></radialGradient></defs></svg>