<svg xmlns="http://www.w3.org/2000/svg" width="24" height="24" fill="none" viewBox="0 0 24 24"><path fill="#000" fill-rule="evenodd" d="M17 3c0-.5523-.4477-1-1-1s-1 .4477-1 1v8H5c-1.6569 0-3 1.3431-3 3v5c0 1.6569 1.3431 3 3 3h14c1.6569 0 3-1.3431 3-3v-5c0-1.6569-1.3431-3-3-3h-2zm2 10H5c-.5523 0-1 .4477-1 1v5c0 .5523.4477 1 1 1h14c.5523 0 1-.4477 1-1v-5c0-.5523-.4477-1-1-1M6 16c.5523 0 1-.4477 1-1s-.4477-1-1-1-1 .4477-1 1 .4477 1 1 1m4-1c0 .5523-.4477 1-1 1s-1-.4477-1-1 .4477-1 1-1 1 .4477 1 1m2 1c.5523 0 1-.4477 1-1s-.4477-1-1-1-1 .4477-1 1 .4477 1 1 1m2-1c0-.5523.4477-1 1-1h3c.5523 0 1 .4477 1 1s-.4477 1-1 1h-3c-.5523 0-1-.4477-1-1m-7 3c0 .5523-.4477 1-1 1s-1-.4477-1-1 .4477-1 1-1 1 .4477 1 1m2 1c.5523 0 1-.4477 1-1s-.4477-1-1-1-1 .4477-1 1 .4477 1 1 1m4-1c0 .5523-.4477 1-1 1s-1-.4477-1-1 .4477-1 1-1 1 .4477 1 1"/></svg>