<svg xmlns="http://www.w3.org/2000/svg" width="24" height="24" fill="none" viewBox="0 0 24 24"><path fill="#000" fill-rule="evenodd" d="M20.8457 14.6891a9.05 9.05 0 0 0 .1591-1.6942c0-3.9414-2.532-7.2913-6.0581-8.5119C14.706 3.0732 13.4782 2 11.9997 2c-1.4784 0-2.7063 1.0732-2.947 2.483-3.526 1.2206-6.058 4.5706-6.058 8.5119a9.05 9.05 0 0 0 .159 1.6942c-.7155.5463-1.1771 1.4081-1.1771 2.3779 0 1.6511 1.3385 2.9897 2.9897 2.9897.412 0 .8045-.0834 1.1617-.2341C7.7046 21.1796 9.7563 22 11.9997 22s4.2952-.8204 5.8718-2.1775a2.98 2.98 0 0 0 1.1618.2342c1.6511 0 2.9897-1.3386 2.9897-2.9897 0-.9698-.4617-1.8317-1.1773-2.3779M11.01 4.9897c0-.5466.4431-.9897.9897-.9897s.9897.4431.9897.9897-.4431.9897-.9897.9897-.9897-.4431-.9897-.9897M9.4097 6.4841c-2.5867 1.03-4.415 3.5568-4.415 6.5108 0 .3688.0284.731.0834 1.0844 1.5993.0588 2.8779 1.3739 2.8779 2.9877a2.98 2.98 0 0 1-.3423 1.3903C8.8142 19.4224 10.3395 20 11.9997 20s3.1856-.5776 4.3861-1.5428a2.98 2.98 0 0 1-.3422-1.3902c0-1.6137 1.2785-2.9288 2.8778-2.9877a7.06 7.06 0 0 0 .0834-1.0844c0-2.954-1.8283-5.4809-4.4151-6.5108-.5169.8939-1.4832 1.4953-2.59 1.4953s-2.0731-.6014-2.59-1.4953m2.7747 3.0692-2.6045 4.0391c-.1373.2129.0156.4933.2689.4933h.9775a.4.4 0 0 1 .4.4v2.721c0 .3191.4159.4415.5888.1734l2.6045-4.0391c.1373-.2129-.0156-.4933-.2689-.4933h-.9775a.4.4 0 0 1-.4-.4v-2.721c0-.319-.4159-.4415-.5888-.1734m-7.2181 6.524c-.5466 0-.9897.4431-.9897.9897s.443.9897.9897.9897.9897-.4431.9897-.9897-.4431-.9897-.9897-.9897m13.0773.9897c0-.5466.4431-.9897.9897-.9897s.9897.4431.9897.9897-.4431.9897-.9897.9897-.9897-.4431-.9897-.9897"/></svg>