<svg xmlns="http://www.w3.org/2000/svg" width="24" height="24" fill="none" viewBox="0 0 24 24"><path fill="#000" fill-rule="evenodd" d="M9.0528 4.483C9.2935 3.0732 10.5213 2 11.9997 2s2.7063 1.0732 2.947 2.483c3.5261 1.2206 6.0581 4.5705 6.0581 8.5119a9.05 9.05 0 0 1-.1591 1.6942c.7156.5462 1.1773 1.4081 1.1773 2.3779 0 1.6511-1.3385 2.9897-2.9897 2.9897a2.98 2.98 0 0 1-1.1618-.2342C16.2949 21.1796 14.2431 22 11.9997 22s-4.2951-.8204-5.8717-2.1774a2.98 2.98 0 0 1-1.1617.2341c-1.6512 0-2.9897-1.3386-2.9897-2.9897 0-.9698.4616-1.8316 1.1772-2.3779a9.05 9.05 0 0 1-.1592-1.6942c0-3.9413 2.532-7.2913 6.0582-8.5119m1.9572.5067c0-.5466.4431-.9897.9897-.9897s.9897.4431.9897.9897-.4431.9897-.9897.9897-.9897-.4431-.9897-.9897m5.3758 13.4675a2.98 2.98 0 0 1-.3422-1.3902c0-1.6138 1.2785-2.9288 2.8778-2.9877a7.06 7.06 0 0 0 .0834-1.0844c0-2.954-1.8283-5.4809-4.4151-6.5108-.5169.8939-1.4832 1.4953-2.59 1.4953s-2.073-.6014-2.59-1.4953c-2.5867 1.03-4.415 3.5568-4.415 6.5108 0 .3688.0284.731.0834 1.0844 1.5993.0588 2.8779 1.3739 2.8779 2.9877a2.98 2.98 0 0 1-.3423 1.3903C8.8142 19.4224 10.3395 20 11.9997 20s3.1856-.5776 4.3861-1.5428M4.9663 16.0773c-.5466 0-.9897.4431-.9897.9897s.443.9897.9897.9897.9897-.4431.9897-.9897-.4431-.9897-.9897-.9897m13.0773.9897c0-.5466.4431-.9897.9897-.9897s.9897.4431.9897.9897-.4431.9897-.9897.9897-.9897-.4431-.9897-.9897"/></svg>