<svg xmlns="http://www.w3.org/2000/svg" width="24" height="24" fill="none" viewBox="0 0 24 24"><path fill="#000" fill-rule="evenodd" d="M15.2191 2.3753c.345-.4312.9743-.5011 1.4056-.1561l5 4a1 1 0 0 1 0 1.5617l-5 4c-.4313.345-1.0606.2751-1.4056-.1562s-.2751-1.0605.1562-1.4055L18.1492 8H3c-.5523 0-1-.4477-1-1s.4477-1 1-1h15.1492l-2.7739-2.219c-.4313-.345-.5012-.9743-.1562-1.4056m-5.512 12.3318c.3905-.3905.3905-1.0236 0-1.4142s-1.0237-.3905-1.4142 0L6 15.5858l-2.2929-2.2929c-.3905-.3905-1.0237-.3905-1.4142 0s-.3905 1.0237 0 1.4142L4.5858 17l-2.2929 2.2929c-.3905.3906-.3905 1.0237 0 1.4142.3905.3906 1.0237.3906 1.4142 0L6 18.4143l2.2929 2.2928c.3905.3906 1.0237.3906 1.4142 0s.3905-1.0236 0-1.4142L7.4142 17zM11 17c0-.5522.4477-1 1-1h2c.5523 0 1 .4478 1 1s-.4477 1-1 1h-2c-.5523 0-1-.4477-1-1m8-1c-.5523 0-1 .4478-1 1s.4477 1 1 1h2c.5523 0 1-.4477 1-1s-.4477-1-1-1z"/></svg>