<svg width="24" height="24" viewBox="0 0 24 24" fill="none" xmlns="http://www.w3.org/2000/svg">
<path d="M15.2191 2.37534C15.5641 1.94408 16.1934 1.87416 16.6247 2.21917L21.6247 6.21917C21.8619 6.40894 22 6.69625 22 7.00004C22 7.30382 21.8619 7.59113 21.6247 7.78091L16.6247 11.7809C16.1934 12.1259 15.5641 12.056 15.2191 11.6247C14.8741 11.1935 14.944 10.5642 15.3753 10.2192L18.1492 8.00004H3C2.44772 8.00004 2 7.55232 2 7.00004C2 6.44775 2.44772 6.00004 3 6.00004H18.1492L15.3753 3.78091C14.944 3.4359 14.8741 2.8066 15.2191 2.37534Z" fill="black"/>
<path d="M18 17C18 16.4478 18.4477 16 19 16H21C21.5523 16 22 16.4478 22 17C22 17.5523 21.5523 18 21 18H19C18.4477 18 18 17.5523 18 17Z" fill="black"/>
<path d="M12 16C11.4477 16 11 16.4478 11 17C11 17.5523 11.4477 18 12 18H14C14.5523 18 15 17.5523 15 17C15 16.4478 14.5523 16 14 16H12Z" fill="black"/>
<path d="M9.70711 13.2929C10.0976 13.6835 10.0976 14.3166 9.70711 14.7071L7.41421 17L9.70711 19.2929C10.0976 19.6835 10.0976 20.3166 9.70711 20.7071C9.31658 21.0977 8.68342 21.0977 8.29289 20.7071L6 18.4143L3.70711 20.7071C3.31658 21.0977 2.68342 21.0977 2.29289 20.7071C1.90237 20.3166 1.90237 19.6835 2.29289 19.2929L4.58579 17L2.29289 14.7071C1.90237 14.3166 1.90237 13.6835 2.29289 13.2929C2.68342 12.9024 3.31658 12.9024 3.70711 13.2929L6 15.5858L8.29289 13.2929C8.68342 12.9024 9.31658 12.9024 9.70711 13.2929Z" fill="black"/>
</svg>
