<svg width="24" height="24" viewBox="0 0 24 24" fill="none" xmlns="http://www.w3.org/2000/svg">
<path d="M9.99998 3C9.99998 2.44772 9.55227 2 8.99998 2C8.4477 2 7.99998 2.44772 7.99998 3V5H7.05585L9.05585 7H17C17.5523 7 18 7.44772 18 8V12C18 13.0904 17.5637 14.0788 16.8562 14.8004L18.2705 16.2146C19.3399 15.1311 20 13.6426 20 12V8C20 6.34315 18.6568 5 17 5H16V3C16 2.44772 15.5523 2 15 2C14.4477 2 14 2.44772 14 3V5H9.99998V3Z" fill="black"/>
<path fill-rule="evenodd" clip-rule="evenodd" d="M4.02358 7.62196L1.89006 5.48844C1.49954 5.09792 1.49954 4.46475 1.89006 4.07423C2.28059 3.6837 2.91375 3.6837 3.30427 4.07423L19.8043 20.5742C20.1948 20.9648 20.1948 21.5979 19.8043 21.9884C19.4137 22.379 18.7806 22.379 18.3901 21.9884L14.3892 17.9876C14.2605 17.9958 14.1307 18 14 18H13V21C13 21.5523 12.5523 22 12 22C11.4477 22 11 21.5523 11 21V18H9.99998C6.68628 18 3.99998 15.3137 3.99998 12V8C3.99998 7.87195 4.00801 7.74578 4.02358 7.62196ZM12.4016 16H9.99998C7.79084 16 5.99998 14.2091 5.99998 12V9.59837L12.4016 16Z" fill="black"/>
</svg>
