<svg xmlns="http://www.w3.org/2000/svg" width="24" height="24" fill="none" viewBox="0 0 24 24"><path fill="#000" fill-rule="evenodd" d="M9 2c.5523 0 1 .4477 1 1v2h4V3c0-.5523.4477-1 1-1s1 .4477 1 1v2h1c1.6568 0 3 1.3431 3 3v4c0 1.6426-.6601 3.1311-1.7295 4.2146l-1.4143-1.4142C17.5637 14.0788 18 13.0904 18 12V8c0-.5523-.4477-1-1-1H9.0559l-2-2h.944V3c0-.5523.4478-1 1-1M1.89 5.4884 4.0237 7.622A3 3 0 0 0 4 8v4c0 3.3137 2.6863 6 6 6h1v3c0 .5523.4477 1 1 1s1-.4477 1-1v-3h1q.1961 0 .3892-.0124l4.0009 4.0008c.3905.3906 1.0236.3906 1.4142 0s.3905-1.0236 0-1.4142l-16.5-16.5c-.3906-.3905-1.0237-.3905-1.4142 0-.3906.3906-.3906 1.0237 0 1.4142M10 16h2.4016L6 9.5984V12c0 2.2091 1.7909 4 4 4"/></svg>