<svg width="24" height="24" viewBox="0 0 24 24" fill="none" xmlns="http://www.w3.org/2000/svg">
<path d="M16.0886 2.02532C15.6981 1.63479 15.0649 1.63479 14.6744 2.02532C14.2838 2.41584 14.2838 3.049 14.6744 3.43953L16.7498 5.51501L14.6744 7.59044C14.2839 7.98096 14.2839 8.61413 14.6744 9.00465C15.0649 9.39518 15.6981 9.39518 16.0886 9.00465L18.1641 6.92923L20.2395 9.00465C20.63 9.39518 21.2632 9.39518 21.6537 9.00465C22.0442 8.61413 22.0442 7.98096 21.6537 7.59044L19.5783 5.51501L21.6538 3.43953C22.0443 3.049 22.0443 2.41584 21.6538 2.02532C21.2632 1.63479 20.6301 1.63479 20.2395 2.02532L18.1641 4.1008L16.0886 2.02532Z" fill="black"/>
<path fill-rule="evenodd" clip-rule="evenodd" d="M7 2.00003H12.4718C12.3056 2.66306 12.3688 3.37179 12.6615 4.00003H7V15H15C15.5523 15 16 15.4477 16 16V18.5C16 19.3285 16.6716 20 17.5 20C18.3284 20 19 19.3285 19 18.5V10.5805C19.5738 11.0708 20.2887 11.3097 21 11.2971V19.2C21 20.7464 19.7464 22 18.2 22H5C3.34315 22 2 20.6569 2 19V16C2 15.4477 2.44772 15 3 15H5V4.00003C5 2.89546 5.89543 2.00003 7 2.00003ZM14 17V18.5C14 19.0368 14.1208 19.5454 14.3368 20H5C4.44772 20 4 19.5523 4 19V17H14Z" fill="black"/>
</svg>
