<svg xmlns="http://www.w3.org/2000/svg" width="24" height="24" fill="none" viewBox="0 0 24 24"><path fill="#000" fill-rule="evenodd" d="M12 2C8.134 2 5 5.134 5 9c0 1.9073.7628 3.6364 2 4.899V21a1 1 0 0 0 1.46.8879l3.5933-1.8617 3.4757 1.8559A1 1 0 0 0 17 21v-7.101c1.2372-1.2626 2-2.9917 2-4.899 0-3.866-3.134-7-7-7M9.2929 6.2929c.3905-.3905 1.0237-.3905 1.4142 0L12 7.5858l1.2929-1.293c.3905-.3904 1.0237-.3904 1.4142 0 .3905.3906.3905 1.0238 0 1.4143L13.4142 9l1.2929 1.2929c.3905.3905.3905 1.0237 0 1.4142s-1.0237.3905-1.4142 0L12 10.4142l-1.2929 1.2929c-.3905.3905-1.0237.3905-1.4142 0s-.3905-1.0237 0-1.4142L10.5858 9l-1.293-1.2929c-.3904-.3905-.3904-1.0237 0-1.4142"/></svg>