<svg xmlns="http://www.w3.org/2000/svg" width="24" height="24" fill="none" viewBox="0 0 24 24"><path fill="#000" fill-rule="evenodd" d="M1.5429 1.7028c.3905-.3905 1.0237-.3905 1.4142 0l18 18c.3905.3905.3905 1.0237 0 1.4142-.3905.3906-1.0237.3906-1.4142 0l-2.1171-2.1171h-2.0115l-2.7071 2.7071c-.3905.3906-1.0237.3906-1.4142 0l-2.7071-2.7071H6.0001c-2.2091 0-4-1.7908-4-4v-8c0-.9583.337-1.8379.899-2.5267L1.5429 3.117c-.3905-.3905-.3905-1.0237 0-1.4142m18.285 14.1104a1.99 1.99 0 0 0 .1722-.8133v-8c0-1.1046-.8954-2-2-2H9.0146l-2-2h10.9855c2.2092 0 4 1.7909 4 4v8a3.98 3.98 0 0 1-.7099 2.2756zM4.328 5.9022l11.0978 11.0977h-.4257c-.2652 0-.5195.1054-.7071.2929l-2.2929 2.2929-2.2929-2.2929a1 1 0 0 0-.707-.2929h-3c-1.1046 0-2-.8954-2-2v-8c0-.4054.1205-.7826.3278-1.0977"/></svg>