<svg width="24" height="24" viewBox="0 0 24 24" fill="none" xmlns="http://www.w3.org/2000/svg">
<path d="M12 2C14.9207 2 17.5487 3.25231 19.377 5.24902C18.5871 5.12822 17.7587 5.32089 17.0947 5.83203C15.711 4.68775 13.9358 4 12 4C7.58172 4 4 7.58172 4 12C4 16.4183 7.58172 20 12 20C13.9938 20 15.815 19.268 17.2158 18.0615C17.9156 18.547 18.7738 18.7016 19.5752 18.5234C17.7414 20.651 15.0292 22 12 22C6.47715 22 2 17.5228 2 12C2 6.47715 6.47715 2 12 2Z" fill="black"/>
<path d="M18.7822 7.22168C19.03 7.18688 19.2876 7.24538 19.5 7.39648C19.504 7.39931 19.5078 7.40238 19.5117 7.40527C19.5524 7.43509 19.5922 7.46716 19.6289 7.50391L23.3213 11.1963C23.7117 11.5867 23.7113 12.2198 23.3213 12.6104L19.6289 16.3047L19.5527 16.373C19.5407 16.3828 19.527 16.3903 19.5146 16.3994C19.4969 16.4126 19.4793 16.4257 19.4609 16.4375C19.4475 16.4461 19.4337 16.454 19.4199 16.4619C19.3965 16.4754 19.3728 16.4876 19.3486 16.499C19.3375 16.5043 19.3267 16.5098 19.3154 16.5146C19.2447 16.545 19.1715 16.5669 19.0967 16.5801C19.0853 16.5821 19.0739 16.5834 19.0625 16.585C19.0346 16.5889 19.0066 16.5912 18.9785 16.5928C18.9681 16.5933 18.9577 16.5945 18.9473 16.5947C18.868 16.5967 18.7888 16.59 18.7109 16.5732C18.7083 16.5727 18.7057 16.5719 18.7031 16.5713C18.6655 16.5629 18.6285 16.5519 18.5918 16.5391C18.59 16.5384 18.5878 16.5387 18.5859 16.5381C18.4506 16.4899 18.3232 16.412 18.2148 16.3037C17.8244 15.9132 17.8245 15.2802 18.2148 14.8896L20.1035 13H10C9.44774 13 9.00004 12.5522 9 12C9.00004 11.4478 9.44774 11 10 11H20.2959L19.8711 10.5752L19.8701 10.5732L18.2148 8.91797C17.8244 8.52744 17.8243 7.89441 18.2148 7.50391C18.2949 7.42398 18.3852 7.36066 18.4814 7.31348C18.4863 7.3111 18.4912 7.30893 18.4961 7.30664C18.5355 7.28809 18.5761 7.27288 18.6172 7.25977C18.6208 7.25861 18.6243 7.25697 18.6279 7.25586C18.6735 7.24188 18.7198 7.23096 18.7666 7.22363C18.7718 7.22283 18.777 7.22241 18.7822 7.22168Z" fill="black"/>
</svg>
