<svg xmlns="http://www.w3.org/2000/svg" width="24" height="24" fill="none" viewBox="0 0 24 24"><path fill="#000" fill-rule="evenodd" d="M19.377 5.249C17.5487 3.2523 14.9207 2 12 2 6.4772 2 2 6.4772 2 12s4.4772 10 10 10c3.0292 0 5.7414-1.349 7.5752-3.4766a2.998 2.998 0 0 1-2.3594-.4619C15.815 19.268 13.9938 20 12 20c-4.4183 0-8-3.5817-8-8s3.5817-8 8-8c1.9359 0 3.711.6878 5.0947 1.832.664-.5111 1.4924-.7038 2.2823-.583m.123 2.1475a.998.998 0 0 0-.7178-.1748l-.0156.002a1 1 0 0 0-.1387.0322c-.0036.001-.0071.0027-.0107.0039a1 1 0 0 0-.1211.0468l-.0147.0069a1 1 0 0 0-.2666.1904c-.3905.3905-.3904 1.0235 0 1.414l1.6553 1.6553.001.002.4248.4248H10c-.5523 0-1 .4478-1 1s.4477 1 1 1h10.1035l-1.8887 1.8896c-.3903.3906-.3904 1.0236 0 1.4141a1 1 0 0 0 .3711.2344c.0019.0006.0041.0003.0059.001.0367.0128.0737.0238.1113.0322l.0078.0019a1 1 0 0 0 .2364.0215c.0104-.0002.0208-.0014.0312-.0019a1 1 0 0 0 .084-.0078c.0114-.0016.0228-.0029.0342-.0049a1 1 0 0 0 .2187-.0655c.0113-.0048.0221-.0103.0332-.0156a1 1 0 0 0 .0713-.0371 1 1 0 0 0 .041-.0244 1 1 0 0 0 .0537-.0381c.0124-.0091.0261-.0166.0381-.0264l.0762-.0683 3.6924-3.6943c.39-.3906.3904-1.0237 0-1.4141l-3.6924-3.6924a1 1 0 0 0-.1172-.0986q-.0058-.0046-.0117-.0088"/></svg>