<svg xmlns="http://www.w3.org/2000/svg" width="24" height="24" fill="none" viewBox="0 0 24 24"><path fill="#000" fill-rule="evenodd" d="M8 1.25c.5523 0 1 .4477 1 1v.5h2v-.5c0-.5523.4477-1 1-1s1 .4477 1 1v.5h2v-.5c0-.5523.4477-1 1-1s1 .4477 1 1v.5c1.6569 0 3 1.3431 3 3v14c0 1.6569-1.3431 3-3 3H7c-1.6569 0-3-1.3431-3-3v-14c0-1.6569 1.3431-3 3-3v-.5c0-.5523.4477-1 1-1m0 4.5c-.5523 0-1-.4477-1-1-.5523 0-1 .4477-1 1v14c0 .5523.4477 1 1 1h10c.5523 0 1-.4477 1-1v-14c0-.5523-.4477-1-1-1 0 .5523-.4477 1-1 1s-1-.4477-1-1h-2c0 .5523-.4477 1-1 1s-1-.4477-1-1H9c0 .5523-.4477 1-1 1m1 4.2454c-.5523 0-1 .4477-1 1s.4477 1 1 1h6c.5523 0 1-.4478 1-1s-.4477-1-1-1zm0 4c-.5523 0-1 .4477-1 1s.4477 1 1 1h3c.5523 0 1-.4478 1-1s-.4477-1-1-1z"/></svg>