<svg width="24" height="24" viewBox="0 0 24 24" fill="none" xmlns="http://www.w3.org/2000/svg">
<path d="M12.0001 2.00464C12.5524 2.00467 13.0001 2.45242 13.0001 3.0047L13 4.07553L13.0018 4.07579C12.633 4.62378 12.2781 5.28363 12.0248 6.0047L12 6.00464C9.23858 6.00464 7 8.24321 7 11.0046V17.0046H17V15.0046H19V17.0046H20C20.5523 17.0046 21 17.4524 21 18.0046C21 18.5569 20.5523 19.0046 20 19.0046H4C3.44772 19.0046 3 18.5569 3 18.0046C3 17.4524 3.44772 17.0046 4 17.0046H5V11.0046C5 7.47816 7.60772 4.56074 11 4.07552L11.0001 3.00458C11.0001 2.45229 11.4478 2.0046 12.0001 2.00464Z" fill="black"/>
<path d="M12 22.003C10.8368 22.003 9.87724 21.1308 9.7398 20.0046H14.2602C14.1228 21.1308 13.1632 22.003 12 22.003Z" fill="black"/>
<path fill-rule="evenodd" clip-rule="evenodd" d="M18.7085 4.00464C18.9571 4.00464 19.168 4.18735 19.2034 4.43347L19.3355 5.35189C19.6075 5.46239 19.8624 5.60459 20.0952 5.77384L21.0183 5.41412C21.2449 5.32582 21.5022 5.41337 21.6279 5.62157L22.3824 6.87122C22.5156 7.09187 22.4592 7.37763 22.2522 7.5312L21.4838 8.1013C21.5 8.23368 21.5083 8.36825 21.5083 8.50452C21.5083 8.64101 21.5 8.7758 21.4837 8.90839L22.2517 9.47866C22.4585 9.63227 22.5148 9.91793 22.3816 10.1385L21.6272 11.3882C21.5014 11.5964 21.244 11.684 21.0174 11.5955L20.0947 11.2355C19.8621 11.4046 19.6073 11.5467 19.3355 11.6571L19.2034 12.5758C19.168 12.8219 18.9571 13.0046 18.7085 13.0046H17.1996C16.9508 13.0046 16.7399 12.8218 16.7046 12.5756L16.573 11.6572C16.3011 11.5468 16.0463 11.4047 15.8137 11.2356L14.8912 11.5955C14.6646 11.6839 14.4072 11.5964 14.2815 11.3881L13.527 10.1384C13.3938 9.91786 13.4501 9.6322 13.657 9.47859L14.4246 8.90852C14.4084 8.77589 14.4001 8.64106 14.4001 8.50452C14.4001 8.3682 14.4084 8.23359 14.4246 8.10116L13.6564 7.53127C13.4494 7.3777 13.3931 7.09194 13.5263 6.87129L14.2807 5.62164C14.4064 5.41344 14.6637 5.32588 14.8903 5.41418L15.8132 5.77381C16.046 5.60453 16.301 5.46233 16.573 5.35183L16.7046 4.4337C16.7399 4.18748 16.9508 4.00464 17.1996 4.00464H18.7085ZM19.0513 8.50461C19.0513 9.11047 18.5601 9.60162 17.9543 9.60162C17.3484 9.60162 16.8572 9.11047 16.8572 8.50461C16.8572 7.89874 17.3484 7.40759 17.9543 7.40759C18.5601 7.40759 19.0513 7.89874 19.0513 8.50461Z" fill="black"/>
</svg>
