<svg xmlns="http://www.w3.org/2000/svg" width="24" height="24" fill="none" viewBox="0 0 24 24"><path fill="#000" fill-rule="evenodd" d="M12.0001 2c.5523 0 1 .4478 1 1L13 4.071l.0018.0002c-.3688.548-.7237 1.2079-.977 1.929L12 6c-2.7614 0-5 2.2386-5 5v6h10v-2h2v2h1c.5523 0 1 .4477 1 1s-.4477 1-1 1H4c-.5523 0-1-.4477-1-1s.4477-1 1-1h1v-6c0-3.5265 2.6077-6.4439 6-6.9291l.0001-1.071c0-.5522.4477-1 1-.9999m7.2033 2.4288A.5.5 0 0 0 18.7085 4h-1.5089a.5.5 0 0 0-.495.429l-.1316.9182a3.6 3.6 0 0 0-.7598.422l-.9229-.3597a.5.5 0 0 0-.6096.2075l-.7544 1.2497a.5.5 0 0 0 .1301.66l.7682.5698a3.33 3.33 0 0 0 0 .8074l-.7676.57a.5.5 0 0 0-.13.6599l.7545 1.2496a.5.5 0 0 0 .6097.2074l.9225-.3599c.2326.1691.4874.3112.7593.4217l.1316.9183a.5.5 0 0 0 .495.4291h1.5089a.5.5 0 0 0 .4949-.4288l.1321-.9187a3.6 3.6 0 0 0 .7592-.4216l.9227.36a.5.5 0 0 0 .6098-.2074l.7544-1.2496a.5.5 0 0 0-.1299-.6599l-.768-.5703a3.32 3.32 0 0 0 .0001-.807l.7684-.5701a.5.5 0 0 0 .1302-.66l-.7545-1.2497a.5.5 0 0 0-.6096-.2074l-.9231.3597a3.6 3.6 0 0 0-.7597-.422zM17.9543 9.597c.6058 0 1.097-.4912 1.097-1.097 0-.6059-.4912-1.097-1.097-1.097-.6059 0-1.0971.4911-1.0971 1.097s.4912 1.097 1.0971 1.097M12 21.9984c-1.1632 0-2.1228-.8723-2.2602-1.9984h4.5204c-.1374 1.1261-1.097 1.9984-2.2602 1.9984"/></svg>