<svg xmlns="http://www.w3.org/2000/svg" width="24" height="24" fill="none" viewBox="0 0 24 24"><path fill="#000" fill-rule="evenodd" d="M2.0137 7c0-1.6569 1.3431-3 3-3h14c1.6568 0 3 1.3431 3 3v10c0 1.6569-1.3432 3-3 3h-14c-1.6569 0-3-1.3431-3-3zm7.2792 2.2929c.3905-.3905 1.0237-.3905 1.4142 0L12 10.5858l1.2929-1.293c.3905-.3904 1.0237-.3904 1.4142 0 .3905.3906.3905 1.0238 0 1.4143L13.4142 12l1.2929 1.2929c.3905.3905.3905 1.0237 0 1.4142s-1.0237.3905-1.4142 0L12 13.4142l-1.2929 1.2929c-.3905.3905-1.0237.3905-1.4142 0s-.3905-1.0237 0-1.4142L10.5858 12l-1.293-1.2929c-.3904-.3905-.3904-1.0237 0-1.4142" clip-rule="evenodd"/></svg>