<svg width="24" height="24" viewBox="0 0 24 24" fill="none" xmlns="http://www.w3.org/2000/svg">
<path d="M12.0001 2C12.5524 2.00004 13.0001 2.44778 13.0001 3.00006L13 4.07089L13.0018 4.07115C12.633 4.61914 12.2781 5.279 12.0248 6.00006L12 6C9.23858 6 7 8.23858 7 11V17H17V15H19V17H20C20.5523 17 21 17.4477 21 18C21 18.5523 20.5523 19 20 19H4C3.44772 19 3 18.5523 3 18C3 17.4477 3.44772 17 4 17H5V11C5 7.47352 7.60772 4.5561 11 4.07089L11.0001 2.99994C11.0001 2.44765 11.4478 1.99997 12.0001 2Z" fill="black"/>
<path d="M12 21.9984C10.8368 21.9984 9.87724 21.1261 9.7398 20H14.2602C14.1228 21.1261 13.1632 21.9984 12 21.9984Z" fill="black"/>
<path fill-rule="evenodd" clip-rule="evenodd" d="M18.7085 4C18.9571 4 19.168 4.18271 19.2034 4.42883L19.3355 5.34726C19.6075 5.45775 19.8624 5.59995 20.0952 5.7692L21.0183 5.40948C21.2449 5.32118 21.5022 5.40874 21.6279 5.61694L22.3824 6.86659C22.5156 7.08723 22.4592 7.37299 22.2522 7.52656L21.4838 8.09666C21.5 8.22904 21.5083 8.36361 21.5083 8.49988C21.5083 8.63638 21.5 8.77116 21.4837 8.90375L22.2517 9.47402C22.4585 9.62763 22.5148 9.91329 22.3816 10.1339L21.6272 11.3835C21.5014 11.5918 21.244 11.6793 21.0174 11.5909L20.0947 11.2309C19.8621 11.4 19.6073 11.5421 19.3355 11.6525L19.2034 12.5712C19.168 12.8173 18.9571 13 18.7085 13H17.1996C16.9508 13 16.7399 12.8172 16.7046 12.5709L16.573 11.6526C16.3011 11.5421 16.0463 11.4 15.8137 11.2309L14.8912 11.5908C14.6646 11.6793 14.4072 11.5917 14.2815 11.3834L13.527 10.1338C13.3938 9.91322 13.4501 9.62757 13.657 9.47395L14.4246 8.90388C14.4084 8.77125 14.4001 8.63642 14.4001 8.49988C14.4001 8.36356 14.4084 8.22895 14.4246 8.09652L13.6564 7.52663C13.4494 7.37306 13.3931 7.0873 13.5263 6.86665L14.2807 5.617C14.4064 5.4088 14.6637 5.32124 14.8903 5.40954L15.8132 5.76917C16.046 5.5999 16.301 5.45769 16.573 5.34719L16.7046 4.42906C16.7399 4.18284 16.9508 4 17.1996 4H18.7085ZM19.0513 8.49997C19.0513 9.10583 18.5601 9.59698 17.9543 9.59698C17.3484 9.59698 16.8572 9.10583 16.8572 8.49997C16.8572 7.8941 17.3484 7.40295 17.9543 7.40295C18.5601 7.40295 19.0513 7.8941 19.0513 8.49997Z" fill="black"/>
</svg>
