<svg width="24" height="24" viewBox="0 0 24 24" fill="none" xmlns="http://www.w3.org/2000/svg">
<path fill-rule="evenodd" clip-rule="evenodd" d="M2 7C2 4.79086 3.79086 3 6 3H18C20.2091 3 22 4.79086 22 7V15C22 17.2091 20.2091 19 18 19H15.4142L12.7071 21.7071C12.3166 22.0976 11.6834 22.0976 11.2929 21.7071L8.58579 19H6C3.79086 19 2 17.2091 2 15V7ZM6 5C4.89543 5 4 5.89543 4 7V15C4 16.1046 4.89543 17 6 17H9C9.26522 17 9.51957 17.1054 9.70711 17.2929L12 19.5858L14.2929 17.2929C14.4804 17.1054 14.7348 17 15 17H18C19.1046 17 20 16.1046 20 15V7C20 5.89543 19.1046 5 18 5H6Z" fill="black"/>
</svg>
