<svg xmlns="http://www.w3.org/2000/svg" width="24" height="24" fill="none" viewBox="0 0 24 24"><path fill="#000" fill-rule="evenodd" d="M9 1C7.3431 1 6 2.3431 6 4v14c0 1.6569 1.3431 3 3 3h10c1.6569 0 3-1.3431 3-3V8.2146c0-.396-.1566-.7758-.4355-1.0568L15.891 1.4432A1.5 1.5 0 0 0 14.8265 1zM8 4c0-.5523.4477-1 1-1h5.0093v2.9849c0 1.6568 1.3431 3 3 3H20V18c0 .5523-.4477 1-1 1H9c-.5523 0-1-.4477-1-1zm10.5745 2.9849L16.0093 4.401v1.584c0 .5523.4477 1 1 1zM5 6.7423c0-.5523-.4477-1-1-1s-1 .4477-1 1V18.5C3 21.5376 5.4624 24 8.5 24h8.5755c.5522 0 1-.4477 1-1s-.4478-1-1-1H8.5C6.567 22 5 20.433 5 18.5zm6.2929 4.5506c.3905-.3905 1.0237-.3905 1.4142 0L14 12.5858l1.2929-1.2929c.3905-.3905 1.0237-.3905 1.4142 0s.3905 1.0237 0 1.4142L15.4142 14l1.2563 1.2563c.3905.3905.3905 1.0237 0 1.4142s-1.0237.3905-1.4142 0L14 15.4142l-1.2929 1.2929c-.3905.3905-1.0237.3905-1.4142 0s-.3905-1.0237 0-1.4142L12.5858 14l-1.2929-1.2929c-.3905-.3905-.3905-1.0237 0-1.4142"/></svg>