<svg xmlns="http://www.w3.org/2000/svg" width="24" height="24" fill="none" viewBox="0 0 24 24"><path fill="#000" fill-rule="evenodd" d="M12 2c5.5229 0 10 4.4771 10 10s-4.4771 10-10 10S2 17.5228 2 12 6.4772 2 12 2m0 2q-1.657 0-3.071.5858-1.4143.5858-2.5859 1.7573Q5.1717 7.5146 4.5859 8.929T4 12q0 1.6569.5858 3.0711t1.7573 2.5858 2.5858 1.7573T12 20t3.0711-.5858 2.5858-1.7573q1.1715-1.1716 1.7573-2.5858T20 12t-.5858-3.071q-.5858-1.4143-1.7573-2.5859-1.1716-1.1715-2.5858-1.7573T12 4m0 13.0671q-1.0493 0-1.8696-.3759-.7136-.3301-1.1505-.88a2.8 2.8 0 0 1-.1244-.1694 2.63 2.63 0 0 1-.2647-.4988q-.19-.4767-.19-1.029a2.9 2.9 0 0 1 .066-.6178q.0914-.4192.31-.8109a2.6 2.6 0 0 1 .1442-.227q.3678-.5167.994-.8497v-.1674q-.6547-.4143-.9223-1.0042-.185-.4079-.185-.8996 0-.4912.1703-.9135a2.3 2.3 0 0 1 .2364-.44 2.5 2.5 0 0 1 .1666-.2175q.3772-.44.9579-.7054.7212-.3281 1.6611-.3281.9365 0 1.6577.328.5911.2691.971.717l.0001.0002q.0836.0986.1568.2057.1436.21.2364.4401.1704.4223.1704.9134 0 .492-.1851.8997-.2676.59-.9223 1.0042v.1674q.6173.3297.9834.8395.082.1141.1513.2372.2233.3964.3153.8213.064.2967.0641.6074 0 .5452-.1865 1.0168a2.62 2.62 0 0 1-.2715.511 2.8 2.8 0 0 1-.1244.1694q-.437.5499-1.1505.88-.817.3759-1.8662.3759m0-6.1591q.6303 0 1.0336-.3026a1.3 1.3 0 0 0 .0499-.0392q.1981-.1655.3013-.3771.1123-.2301.1123-.515 0-.2871-.1154-.516-.103-.2044-.2982-.3624a1 1 0 0 0-.0395-.0311q-.4056-.3073-1.044-.3073-.6472 0-1.0544.3126a1 1 0 0 0-.0325.0258q-.1907.1556-.2927.3563-.1175.2313-.1175.522 0 .2889.1143.5213.1023.2079.2959.3709.021.0174.0428.0339.4051.3078 1.0441.3079m0 4.5903q.7953 0 1.2905-.3856a2 2 0 0 0 .0391-.0314q.218-.1824.3414-.415.161-.3034.161-.6924t-.161-.6925q-.1235-.2325-.3414-.4149a2 2 0 0 0-.0492-.0396q-.493-.3809-1.2804-.3809-.7851 0-1.2808.3788a2 2 0 0 0-.0522.0417q-.218.1824-.3414.4149-.161.3036-.161.6925t.161.6924q.1235.2326.3414.415.0207.0171.042.0335.4977.3835 1.291.3835"/></svg>