<svg xmlns="http://www.w3.org/2000/svg" width="24" height="24" fill="none" viewBox="0 0 24 24"><path fill="#000" fill-rule="evenodd" d="M4.879 3.8745a.602.602 0 0 0-.6544.1308L3.1768 5.0532a.6.6 0 0 0 0 .8486.5993.5993 0 0 0 .8476 0l.0244-.0244v1.6973a.6002.6002 0 0 0 1.2002 0V4.4292a.601.601 0 0 0-.37-.5547M22 6.0005c0-.5523-.4477-1-1-1H9c-.5523 0-1 .4477-1 1 .0002.552.4479 1 1 1h12c.5521 0 .9998-.448 1-1M4.4531 9.976c.8927 0 1.5837.7811 1.4746 1.667a1.222 1.222 0 0 1-.4638.8155l-.4932.3818h.4844a.6003.6003 0 0 1 .5996.6006.6.6 0 0 1-.5996.5996H3.5449a.6.6 0 0 1-.5996-.5996v-.084c0-.2936.136-.5711.3682-.751l1.416-1.0966a.02.02 0 0 0 .0078-.0127.2866.2866 0 0 0-.2842-.3213h-.0547a.2546.2546 0 0 0-.2539.2539c-.0002.3312-.2683.6006-.5996.6006-.3312-.0001-.5994-.2694-.5996-.6006.0002-.8027.6505-1.4529 1.4531-1.4532zM22 12.0005c0-.5523-.4477-1-1-1H9c-.5523 0-1 .4477-1 1 .0002.552.4479 1 1 1h12c.5521 0 .9998-.448 1-1M5.415 16.0259a.5996.5996 0 0 1 .4239 1.0234l-.4278.4267c.364.2446.6035.6604.6035 1.1319-.0001.7522-.61 1.3622-1.3622 1.3623h-.4708a1.303 1.303 0 0 1-1.1064-.6162.6006.6006 0 0 1 .1933-.8262.6005.6005 0 0 1 .8262.1934.103.103 0 0 0 .087.0488h.4707a.1624.1624 0 0 0 .162-.1621.163.163 0 0 0-.162-.1631h-.457a.601.601 0 0 1-.5548-.3701.6.6 0 0 1 .13-.6533l.1962-.1963H3.585a.5996.5996 0 1 1 0-1.1992zM22 18.0005c0-.5523-.4477-1-1-1H9c-.5523 0-1 .4477-1 1 .0002.552.4479 1 1 1h12c.5521 0 .9998-.448 1-1"/></svg>