<svg xmlns="http://www.w3.org/2000/svg" width="24" height="24" fill="none" viewBox="0 0 24 24"><path fill="#000" fill-rule="evenodd" d="M12 2c5.5228 0 10 4.4771 10 10s-4.4772 10-10 10S2 17.5229 2 12 6.4772 2 12 2m0 2q-1.657 0-3.071.5858-1.4143.5858-2.5859 1.7573Q5.1716 7.5147 4.5858 8.929T4 12t.5858 3.0711q.5858 1.4142 1.7573 2.5858t2.5858 1.7573T12 20t3.0711-.5858 2.5858-1.7573q1.1715-1.1716 1.7573-2.5858T20 12t-.5858-3.071q-.5858-1.4143-1.7573-2.5859-1.1716-1.1715-2.5858-1.7573T12 4m2.0386 9.1467h1.4424v1.5142h-1.4424v2.2388h-1.6372v-2.2388H7.8486v-1.3467l4.5528-6.2139h1.6372zm-4.2862 0h2.649V9.4109h-.1709q-.1095.2358-.3145.5742-.2016.335-.3555.5571z"/></svg>