<svg xmlns="http://www.w3.org/2000/svg" width="24" height="24" fill="none" viewBox="0 0 24 24"><path fill="#000" fill-rule="evenodd" d="M12 2C6.477 2 2 6.4772 2 12s4.477 10 10 10 10-4.4772 10-10S17.5229 2 12 2m.8049 8.7388q.559.0423 1.0403.2578.181.0811.3508.1865.2696.165.49.3799l.0005.0004q.2912.284.4973.6554.0405.0718.0767.1462.289.5949.2891 1.3303 0 .3431-.066.673-.095.4753-.3271.9232a2.9 2.9 0 0 1-.2024.3323q-.3746.5307-.9905.8913-.7965.4683-1.9585.4683-1.0903 0-1.8833-.4204-.6272-.334-1.0215-.8471a2.9 2.9 0 0 1-.1884-.2774 3.3 3.3 0 0 1-.3128-.6962 3.32 3.32 0 0 1-.1487-.8385h1.75q.0381.516.3011.86.115.1504.2732.2679.1336.0984.2797.1717.4227.2111.9507.2112.5516 0 .9654-.2387a1.7 1.7 0 0 0 .3095-.2296 1.55 1.55 0 0 0 .2803-.3442q.2256-.3795.2256-.8931 0-.4552-.1983-.7947-.1248-.2135-.3281-.3811-.5263-.4341-1.562-.4341h-1.1894v-1.3467l2.3652-2.1396H8.8435V7.0166h6.2583v1.456l-2.2969 2.1124z"/></svg>