<svg xmlns="http://www.w3.org/2000/svg" width="24" height="24" fill="none" viewBox="0 0 24 24"><path fill="#000" fill-rule="evenodd" d="M12 2C6.477 2 2 6.4772 2 12s4.477 10 10 10 10-4.4772 10-10S17.5229 2 12 2m.4973 8.0688q.7638 0 1.3811.301.1062.0518.2083.1126.2348.139.4348.3169.391.3479.6487.8452.393.7487.393 1.7124 0 .8989-.3357 1.647a3.7 3.7 0 0 1-.0983.2022 3.24 3.24 0 0 1-.4944.7023l-.0003.0004q-.3237.3489-.7529.5995-.8101.4751-1.9004.4751-1.0801 0-1.873-.4136-.6515-.3413-1.0564-.8709l-.004-.0053a2.9 2.9 0 0 1-.1564-.2278q-.25-.406-.363-.8469a3 3 0 0 1-.0916-.6433h1.75q.0645.4367.2946.7528.123.1688.2933.3033.119.0926.25.1628.4108.22.9394.2201.5127 0 .9089-.2149a1.73 1.73 0 0 0 .407-.3081 1.7 1.7 0 0 0 .1756-.2087q.3439-.4844.344-1.2132 0-.715-.3399-1.1836a1.6 1.6 0 0 0-.1455-.1733 1.6 1.6 0 0 0-.3396-.2722q-.393-.2337-.925-.2337-.5377 0-.9585.2218a2 2 0 0 0-.0567.0312q-.409.2347-.5945.5871a1 1 0 0 0-.0275.0554H8.7752l.2939-5.4858h5.8071v1.6099h-4.2417l-.1094 1.9858h.1675q.3213-.2769.8032-.4102a3.78 3.78 0 0 1 1.0015-.1333"/></svg>