<svg xmlns="http://www.w3.org/2000/svg" width="24" height="24" fill="none" viewBox="0 0 24 24"><path fill="#000" fill-rule="evenodd" d="M12 2c5.5229 0 10 4.4771 10 10s-4.4771 10-10 10S2 17.5228 2 12 6.4772 2 12 2m0 2q-1.657 0-3.071.5858-1.4143.5858-2.5859 1.7573Q5.1717 7.5146 4.5859 8.929T4 12q0 1.6569.5858 3.0711t1.7573 2.5858 2.5858 1.7573T12 20t3.0711-.5858 2.5858-1.7573q1.1715-1.1716 1.7573-2.5858T20 12t-.5858-3.071q-.5858-1.4143-1.7573-2.5859-1.1716-1.1715-2.5858-1.7573T12 4m-.4124 12.8997H9.6838l3.8486-7.9947v-.181H8.9147V7.1003h6.5933v1.4971z"/></svg>