<svg xmlns="http://www.w3.org/2000/svg" width="24" height="24" fill="none" viewBox="0 0 24 24"><path fill="#000" fill-rule="evenodd" d="M12 2C6.477 2 2 6.4772 2 12s4.477 10 10 10 10-4.4772 10-10S17.5229 2 12 2m0 15.0671q-1.0493 0-1.8696-.3759-.7137-.33-1.1504-.8799a2.8 2.8 0 0 1-.1245-.1695 2.63 2.63 0 0 1-.2647-.4987q-.19-.4768-.19-1.0291 0-.316.066-.6178.0915-.4192.31-.8109a2.6 2.6 0 0 1 .1441-.2269q.368-.5168.9941-.8498v-.1674q-.6547-.4143-.9223-1.0042-.185-.408-.185-.8996 0-.4911.1703-.9135a2.3 2.3 0 0 1 .2364-.44 2.5 2.5 0 0 1 .1667-.2175q.3769-.44.9578-.7054.721-.3281 1.6611-.3281.9366 0 1.6577.328.5912.269.971.7171.0835.0985.1569.2058.1436.21.2364.4401.1703.4223.1704.9134 0 .4918-.1851.8997-.2676.59-.9223 1.0042v.1674q.6172.3297.9834.8395a2.6 2.6 0 0 1 .1513.2372q.2234.3965.3152.8213a2.87 2.87 0 0 1 .0642.6074q0 .5453-.1865 1.0167a2.6 2.6 0 0 1-.2715.5111 2.8 2.8 0 0 1-.1245.1695q-.4368.5499-1.1504.8799-.817.3759-1.8662.3759m0-6.1591q.6302 0 1.0337-.3025a2 2 0 0 0 .0498-.0393q.198-.1655.3013-.3771.1123-.2301.1123-.515 0-.287-.1155-.516V9.158q-.103-.2044-.2981-.3623a1 1 0 0 0-.0396-.0312Q12.6384 8.4573 12 8.4573q-.6472 0-1.0544.3126a1 1 0 0 0-.0325.0258q-.1905.1556-.2927.3564-.1176.231-.1175.522 0 .2887.1143.5212.1021.2079.2959.3709.0211.0174.0427.0339.4053.308 1.0442.3079m0 4.5903q.7954 0 1.2905-.3855a2 2 0 0 0 .0391-.0315q.2179-.1824.3413-.415.1611-.3034.1611-.6924t-.1611-.6924q-.1234-.2328-.3413-.415a1.4 1.4 0 0 0-.0493-.0396q-.493-.3809-1.2803-.3809-.7851 0-1.2808.3788a2 2 0 0 0-.0522.0417q-.2179.1822-.3413.415-.1611.3034-.1611.6924t.1611.6924q.1234.2326.3413.415.0208.0172.042.0334.4977.3836 1.291.3836"/></svg>