<svg xmlns="http://www.w3.org/2000/svg" width="24" height="24" fill="none" viewBox="0 0 24 24"><path fill="#000" fill-rule="evenodd" d="M12 2c5.5228 0 10 4.4771 10 10s-4.4772 10-10 10S2 17.5229 2 12 6.4772 2 12 2m0 2q-1.657 0-3.071.5858-1.4143.5858-2.5859 1.7573Q5.1716 7.5147 4.5858 8.929T4 12t.5858 3.0711q.5858 1.4142 1.7573 2.5858t2.5858 1.7573T12 20t3.0711-.5858 2.5858-1.7573q1.1715-1.1716 1.7573-2.5858T20 12t-.5858-3.071q-.5858-1.4143-1.7573-2.5859-1.1716-1.1715-2.5858-1.7573T12 4m.4973 6.0688q.764 0 1.381.301.1064.0518.2084.1126.2349.1389.4349.3169.3908.3478.6486.8452.393.7487.393 1.7124 0 .8988-.3357 1.647a4 4 0 0 1-.0983.2022 3.24 3.24 0 0 1-.4947.7027q-.3236.3488-.7529.5995-.81.475-1.9004.4751-1.08 0-1.873-.4136-.6516-.3412-1.0564-.871a2.9 2.9 0 0 1-.1604-.233q-.25-.4059-.363-.8469a3 3 0 0 1-.0916-.6433h1.75q.0645.4367.2948.7528v.0001q.1228.1688.2931.3032a1.76 1.76 0 0 0 .25.1628q.4108.22.9394.2201.5127 0 .9088-.215a1.73 1.73 0 0 0 .4071-.308 1.7 1.7 0 0 0 .1754-.2087q.3442-.4844.3442-1.2132 0-.715-.3399-1.1835a1.6 1.6 0 0 0-.1455-.1734 1.6 1.6 0 0 0-.3396-.2722q-.393-.2337-.925-.2337-.5377 0-.9586.2218-.0285.015-.0566.0312-.409.2346-.5946.5871a1 1 0 0 0-.0274.0554H8.7752l.2939-5.4858h5.8071v1.6099h-4.2417l-.1094 1.9858h.1675q.3213-.2769.8032-.4102a3.78 3.78 0 0 1 1.0015-.1333"/></svg>