<svg xmlns="http://www.w3.org/2000/svg" width="24" height="24" fill="none" viewBox="0 0 24 24"><path fill="#000" fill-rule="evenodd" d="M12 2c5.5228 0 10 4.4771 10 10s-4.4772 10-10 10S2 17.5228 2 12 6.4772 2 12 2m0 2q-1.657 0-3.071.5858-1.4143.5858-2.5859 1.7573Q5.1716 7.5146 4.5858 8.929T4 12q0 1.6569.5858 3.0711t1.7573 2.5858 2.5858 1.7573T12 20t3.0711-.5858 2.5858-1.7573q1.1715-1.1716 1.7573-2.5858T20 12t-.5858-3.071q-.5858-1.4143-1.7573-2.5859-1.1716-1.1715-2.5858-1.7573T12 4m.0427 3.0166q1.0357 0 1.8389.4204.4929.2549.8544.6347.23.2418.4068.5343.1025.1684.1817.3474.273.615.2729 1.3513 0 .7143-.3076 1.48-.3077.7622-1.0493 1.8662l-2.2388 3.3325h-2.003l2.1705-3.1924v-.1401q-.0991.0137-.335.0137-.9946 0-1.7739-.4034-.4653-.244-.8102-.6035a3.04 3.04 0 0 1-.542-.7814q-.3055-.6355-.3055-1.4178 0-.8131.3084-1.4846.0689-.15.153-.2927a3.2 3.2 0 0 1 .4206-.564q.367-.3925.868-.6597.8271-.441 1.8901-.4409m-.041 5.1509q.5873 0 1.0164-.2605a1.7 1.7 0 0 0 .3029-.2351 1.66 1.66 0 0 0 .2797-.3568q.233-.4017.233-.9386 0-.5947-.2703-1.0159a1.6 1.6 0 0 0-.2355-.2864 1.65 1.65 0 0 0-.2527-.2033q-.4425-.2889-1.0735-.2889-.6363 0-1.0824.2913a1.66 1.66 0 0 0-.2506.201 1.6 1.6 0 0 0-.2287.2782q-.2737.4236-.2737 1.024 0 .5422.2361.9467.1107.1894.2731.3487.1395.1348.3012.2329.4328.2627 1.025.2627"/></svg>