<svg xmlns="http://www.w3.org/2000/svg" width="24" height="24" fill="none" viewBox="0 0 24 24"><path fill="#000" fill-rule="evenodd" d="M12 2C6.477 2 2 6.4772 2 12s4.477 10 10 10 10-4.4772 10-10S17.5229 2 12 2M8.6145 16.9834v-1.3877l3.3428-3.4556q.8851-.9263 1.1792-1.3945.294-.4682.2939-.875 0-.4234-.1948-.7183l-.0002-.0006a1.1 1.1 0 0 0-.198-.2244l-.014-.0121q-.3913-.3331-1.0661-.3332-.6365 0-1.0647.2986a1.5 1.5 0 0 0-.0974.074 1.33 1.33 0 0 0-.2049.2106q-.257.3322-.2976.8319h-1.75q.0333-.718.3318-1.3a2.9 2.9 0 0 1 .1502-.2586q.1749-.27.3982-.4907.3397-.336.7912-.5586.752-.3727 1.7158-.3726.981 0 1.7159.3418.5896.2743.9636.7267a2.5 2.5 0 0 1 .2859.4303q.2851.5468.2851 1.2424 0 .363-.0903.702a2.7 2.7 0 0 1-.1148.3371q-.2017.4888-.6562 1.0698T13.01 13.3296l-1.7944 1.8491v.1812h4.2417v1.6235z"/></svg>