<svg xmlns="http://www.w3.org/2000/svg" width="24" height="24" fill="none" viewBox="0 0 24 24"><path fill="#000" fill-rule="evenodd" d="M12 2c5.5229 0 10 4.4771 10 10s-4.4771 10-10 10S2 17.5229 2 12 6.4772 2 12 2m0 2q-1.657 0-3.071.5858-1.4143.5858-2.5859 1.7573Q5.1717 7.5147 4.5859 8.929T4 12t.5858 3.0711 1.7573 2.5858q1.1715 1.1715 2.5858 1.7573T12 20t3.0711-.5858 2.5858-1.7573 1.7573-2.5858T20 12q0-1.657-.5858-3.071-.5858-1.4143-1.7573-2.5859-1.1716-1.1715-2.5858-1.7573T12 4m.8049 6.7388q.559.0422 1.0404.2578a2.95 2.95 0 0 1 .3507.1865q.2696.165.4901.3799.2916.2842.4977.6558a2.7 2.7 0 0 1 .0766.1461q.2892.595.2892 1.3304 0 .343-.066.673-.095.4753-.3271.9232a2.9 2.9 0 0 1-.2023.3322q-.3747.5308-.9906.8914-.7963.4683-1.9585.4683-1.0903 0-1.8833-.4204-.6272-.334-1.0215-.847a2.9 2.9 0 0 1-.1884-.2775 3.3 3.3 0 0 1-.3129-.6962 3.32 3.32 0 0 1-.1486-.8385h1.75q.0381.516.3011.86.115.1504.2732.2679.1335.0985.2798.1716.4225.2113.9506.2113.5514 0 .9653-.2387a1.7 1.7 0 0 0 .3096-.2296 1.54 1.54 0 0 0 .2803-.3443q.2256-.3794.2256-.893 0-.4552-.1983-.7947-.1248-.2134-.3281-.3811-.5264-.4341-1.562-.4341h-1.1894v-1.3467l2.3652-2.1396H8.8435V7.0166h6.2583v1.456l-2.2969 2.1124z"/></svg>