<svg xmlns="http://www.w3.org/2000/svg" width="24" height="24" fill="none" viewBox="0 0 24 24"><path fill="#000" fill-rule="evenodd" d="M2 9c0-.5523.4477-1 1-1h2c.5523 0 1 .4477 1 1v6c0 .5523-.4477 1-1 1s-1-.4477-1-1v-5H3c-.5523 0-1-.4477-1-1m6 0c0-.5523.4477-1 1-1h4c.5523 0 1 .4477 1 1v3c0 .5523-.4477 1-1 1h-3v1h3c.5523 0 1 .4477 1 1s-.4477 1-1 1H9c-.5523 0-1-.4477-1-1v-3c0-.5523.4477-1 1-1h3v-1H9c-.5523 0-1-.4477-1-1m8 0c0-.5523.4477-1 1-1h4c.5523 0 1 .4477 1 1v6c0 .5523-.4477 1-1 1h-4c-.5523 0-1-.4477-1-1s.4477-1 1-1h3v-1h-1.5c-.5523 0-1-.4477-1-1s.4477-1 1-1H20v-1h-3c-.5523 0-1-.4477-1-1"/></svg>