<svg xmlns="http://www.w3.org/2000/svg" width="24" height="24" fill="none" viewBox="0 0 24 24"><path fill="#000" fill-rule="evenodd" d="M12 2C6.477 2 2 6.4772 2 12s4.477 10 10 10 10-4.4772 10-10S17.5229 2 12 2m.0427 5.0166q1.0358 0 1.8389.4204.493.255.8545.6348.2299.2417.4067.5342.1026.1685.1817.3474.2728.6152.2729 1.3513 0 .7143-.3076 1.48-.3077.7622-1.0493 1.8662l-2.2388 3.3325h-2.003l2.1705-3.1924v-.1401q-.0992.0137-.335.0137-.9946 0-1.7739-.4034-.4654-.2439-.8103-.6035v-.0001a3.04 3.04 0 0 1-.542-.7813q-.3054-.6356-.3054-1.4178 0-.8132.3083-1.4846.069-.15.1531-.2927a3.2 3.2 0 0 1 .4207-.564q.3669-.3925.8679-.6597.8271-.441 1.8901-.4409m-.041 5.1509q.5873 0 1.0164-.2605a1.7 1.7 0 0 0 .3029-.2351 1.66 1.66 0 0 0 .2798-.3568q.233-.4018.2329-.9386 0-.5947-.2702-1.0159a1.6 1.6 0 0 0-.2356-.2864 1.65 1.65 0 0 0-.2527-.2033q-.4424-.2889-1.0735-.2889-.6361 0-1.0825.2913l-.0007.0006a1.65 1.65 0 0 0-.2498.2003 1.6 1.6 0 0 0-.2288.2783q-.2735.4236-.2736 1.024 0 .5422.236.9466.1106.1896.2732.3488a1.72 1.72 0 0 0 .3011.2329h.0002q.4328.2627 1.0249.2627"/></svg>