<svg xmlns="http://www.w3.org/2000/svg" width="24" height="24" fill="none" viewBox="0 0 24 24"><path fill="#000" d="M13.6586 11.8642c0-1.5918-.9702-2.957-2.3515-3.5366v7.0733c1.3813-.5796 2.3515-1.9448 2.3515-3.5367"/><path fill="#000" fill-rule="evenodd" d="M18.8923 19.9065h3.1076l-4.4108-6.0236 4.2771-5.5602h-3.0741l-3.6757 4.8321v1.5225zm-5.0791 0V4.0201h-2.5061v4.3075c1.3813.5796 2.3515 1.9448 2.3515 3.5366 0 1.5919-.9702 2.9571-2.3515 3.5367v4.5056zm-3.6941-1.7153a6.4 6.4 0 0 1-.2942.0067c-3.498 0-6.3337-2.8357-6.3337-6.3337S6.327 5.5305 9.825 5.5305q.148 0 .2942.0067v2.5044a4 4 0 0 0-.2942-.011c-2.1173 0-3.8337 1.7163-3.8337 3.8336s1.7164 3.8337 3.8337 3.8337q.1485 0 .2942-.0111z" clip-rule="evenodd"/><path fill="#000" d="M11.307 3.94h2.503v15.869h-2.503zM5.304 14.845 2 18.148l1.912 1.912 3.304-3.303z"/></svg>