<svg xmlns="http://www.w3.org/2000/svg" width="24" height="24" fill="none" viewBox="0 0 24 24"><path fill="#000" fill-rule="evenodd" d="M8.1836 4.9672C9.318 4.3504 10.618 4 12 4c4.4183 0 8 3.5817 8 8 0 1.382-.3504 2.6821-.9673 3.8163l1.4622 1.4622C21.4489 15.7465 22 13.9376 22 12c0-5.5229-4.4772-10-10-10-1.9376 0-3.7465.551-5.2786 1.505zM19.293 21.7071l-1.5322-1.5321C16.1322 21.3246 14.145 22 12 22 6.4771 22 2 17.5228 2 12c0-2.145.6754-4.1323 1.825-5.7608L2.293 4.7071c-.3905-.3905-.3905-1.0237 0-1.4142s1.0237-.3905 1.4142 0l17 17c.3905.3905.3905 1.0237 0 1.4142s-1.0237.3905-1.4142 0"/></svg>