<svg xmlns="http://www.w3.org/2000/svg" width="24" height="24" fill="none" viewBox="0 0 24 24"><path fill="#000" d="M6 4.5C6 5.328 5.328 6 4.5 6S3 5.328 3 4.5 3.672 3 4.5 3 6 3.672 6 4.5m5 10c0 .828-.672 1.5-1.5 1.5S8 15.328 8 14.5 8.672 13 9.5 13s1.5.672 1.5 1.5M4.5 21c.828 0 1.5-.672 1.5-1.5S5.328 18 4.5 18 3 18.672 3 19.5 3.672 21 4.5 21M21 19.5c0 .828-.672 1.5-1.5 1.5s-1.5-.672-1.5-1.5.672-1.5 1.5-1.5 1.5.672 1.5 1.5M14.5 11c.828 0 1.5-.672 1.5-1.5S15.328 8 14.5 8 13 8.672 13 9.5s.672 1.5 1.5 1.5"/></svg>