<svg xmlns="http://www.w3.org/2000/svg" width="24" height="24" fill="none" viewBox="0 0 24 24"><path fill="#000" fill-rule="evenodd" d="M4.5 6C5.3284 6 6 5.3284 6 4.5S5.3284 3 4.5 3 3 3.6716 3 4.5 3.6716 6 4.5 6m10 5c.8284 0 1.5-.6716 1.5-1.5S15.3284 8 14.5 8 13 8.6716 13 9.5s.6716 1.5 1.5 1.5m-5 5c.8284 0 1.5-.6716 1.5-1.5S10.3284 13 9.5 13 8 13.6716 8 14.5 8.6716 16 9.5 16m-5 5c.8284 0 1.5-.6716 1.5-1.5S5.3284 18 4.5 18 3 18.6716 3 19.5 3.6716 21 4.5 21M21 19.5c0 .8284-.6716 1.5-1.5 1.5s-1.5-.6716-1.5-1.5.6716-1.5 1.5-1.5 1.5.6716 1.5 1.5"/></svg>