<svg width="24" height="24" viewBox="0 0 24 24" fill="none" xmlns="http://www.w3.org/2000/svg">
<path d="M15 22.8501C15.5523 22.8501 16 22.4024 16 21.8501C16 21.2978 15.5523 20.8501 15 20.8501L7 20.8501C5.34315 20.8501 4 19.507 4 17.8501L4 9.8501C4 9.29781 3.55229 8.8501 3 8.8501C2.44772 8.8501 2 9.29781 2 9.8501L2 17.8501C2 20.6115 4.23857 22.8501 7 22.8501L15 22.8501Z" fill="black"/>
<path fill-rule="evenodd" clip-rule="evenodd" d="M22 15.8501C22 17.507 20.6569 18.8501 19 18.8501L9 18.8501C7.34315 18.8501 6 17.507 6 15.8501L6 5.8501C6 4.19324 7.34315 2.8501 9 2.8501L19 2.8501C20.6569 2.8501 22 4.19324 22 5.8501L22 15.8501ZM19 16.8501L9 16.8501C8.44772 16.8501 8 16.4024 8 15.8501L8 5.8501C8 5.29781 8.44772 4.8501 9 4.8501L19 4.8501C19.5523 4.8501 20 5.29781 20 5.8501L20 15.8501C20 16.4024 19.5523 16.8501 19 16.8501Z" fill="black"/>
</svg>
