<svg xmlns="http://www.w3.org/2000/svg" width="24" height="24" fill="none" viewBox="0 0 24 24"><path fill="#000" fill-rule="evenodd" d="M6 2C4.3431 2 3 3.3431 3 5v14c0 1.6569 1.3431 3 3 3h12c1.6569 0 3-1.3431 3-3V5c0-1.6569-1.3431-3-3-3zM5 5c0-.5523.4477-1 1-1h12c.5523 0 1 .4477 1 1v14c0 .5523-.4477 1-1 1H6c-.5523 0-1-.4477-1-1zm6 5V8c0-.5523.4477-1 1-1s1 .4477 1 1 .4477 1 1 1 1-.4477 1-1c0-1.6569-1.3431-3-3-3S9 6.3431 9 8v2.1707C7.8348 10.5825 7 11.6938 7 13v2c0 1.6569 1.3431 3 3 3h4c1.6569 0 3-1.3431 3-3v-2c0-1.6569-1.3431-3-3-3zm-1 2c-.5523 0-1 .4477-1 1v2c0 .5523.4477 1 1 1h4c.5523 0 1-.4477 1-1v-2c0-.5523-.4477-1-1-1zm2 3c.5523 0 1-.4477 1-1s-.4477-1-1-1-1 .4477-1 1 .4477 1 1 1"/></svg>