<svg width="24" height="24" viewBox="0 0 24 24" fill="none" xmlns="http://www.w3.org/2000/svg">
<path d="M15 22C15.5523 22 16 21.5523 16 21C16 20.4477 15.5523 20 15 20L7 20C5.34315 20 4 18.6569 4 17L4 9C4 8.44772 3.55229 8 3 8C2.44772 8 2 8.44772 2 9L2 17C2 19.7614 4.23857 22 7 22L15 22Z" fill="black"/>
<path fill-rule="evenodd" clip-rule="evenodd" d="M22 15C22 16.6569 20.6569 18 19 18L9 18C7.34315 18 6 16.6569 6 15L6 5C6 3.34315 7.34315 2 9 2L19 2C20.6569 2 22 3.34315 22 5L22 15ZM19 16L9 16C8.44772 16 8 15.5523 8 15L8 5C8 4.44772 8.44772 4 9 4L19 4C19.5523 4 20 4.44772 20 5L20 15C20 15.5523 19.5523 16 19 16Z" fill="black"/>
</svg>
