<svg xmlns="http://www.w3.org/2000/svg" width="24" height="24" fill="none" viewBox="0 0 24 24"><path fill="url(#a)" d="M11.9998 2.0006c-5.5226 0-9.9996 4.477-9.9996 9.9996 0 5.3627 4.222 9.7395 9.5233 9.9879.1582.0074.3167.0117.4764.0117 2.5602 0 4.895-.9627 6.6641-2.5448-1.1721.7774-2.5425 1.2246-4.007 1.2246-2.3814 0-4.514-1.1813-5.9484-3.0442-1.1057-1.3052-1.8219-3.2346-1.8707-5.3998v-.471c.0488-2.1651.765-4.0949 1.8704-5.3997 1.4346-1.863 3.5672-3.0443 5.9484-3.0443 1.4649 0 2.8355.4472 4.0078 1.2251-1.7605-1.5749-4.0812-2.5356-6.6271-2.545-.0127 0-.0251-.0005-.0378-.0005z"/><path fill="url(#b)" d="M8.7085 6.3655c.9177-1.0833 2.1027-1.7366 3.3975-1.7366 2.9112 0 5.2707 3.3005 5.2707 7.3718s-2.3597 7.3718-5.2707 7.3718c-1.2948 0-2.4798-.653-3.3973-1.7364 1.4344 1.863 3.5669 3.0443 5.9484 3.0443 1.4647 0 2.835-.4473 4.0071-1.2246 2.0467-1.8311 3.3355-4.4925 3.3355-7.455 0-2.9622-1.2885-5.6235-3.3348-7.4543-1.1724-.7779-2.543-1.2252-4.0078-1.2252-2.3813 0-4.5143 1.1813-5.9486 3.0442"/><defs><linearGradient id="a" x1="10" x2="10" y1="2" y2="22" gradientUnits="userSpaceOnUse"><stop stop-color="#ff1b2d"/><stop offset="0" stop-color="#ff1b2d"/><stop offset="1" stop-color="#ff1b2d"/><stop offset="1" stop-color="#a70014"/></linearGradient><linearGradient id="b" x1="15" x2="15" y1="3" y2="21" gradientUnits="userSpaceOnUse"><stop stop-color="#9c0000"/><stop offset="1" stop-color="#ff4b4b"/><stop offset="1" stop-color="#ff4b4b"/></linearGradient></defs></svg>