<svg width="24" height="24" viewBox="0 0 24 24" fill="none" xmlns="http://www.w3.org/2000/svg">
<path d="M12 6C12.5523 6 13 6.44772 13 7V8C13 8.55228 12.5523 9 12 9C11.4477 9 11 8.55228 11 8V7C11 6.44772 11.4477 6 12 6Z" fill="black"/>
<path d="M16 7C16 6.44772 15.5523 6 15 6C14.4477 6 14 6.44772 14 7V8C14 8.55228 14.4477 9 15 9C15.5523 9 16 8.55228 16 8V7Z" fill="black"/>
<path d="M9 6C9.55228 6 10 6.44772 10 7V8C10 8.55228 9.55228 9 9 9C8.44772 9 8 8.55228 8 8V7C8 6.44772 8.44772 6 9 6Z" fill="black"/>
<path d="M10 11C10 10.4477 9.55228 10 9 10C8.44772 10 8 10.4477 8 11V12C8 12.5523 8.44772 13 9 13C9.55228 13 10 12.5523 10 12V11Z" fill="black"/>
<path d="M15 10C15.5523 10 16 10.4477 16 11V12C16 12.5523 15.5523 13 15 13C14.4477 13 14 12.5523 14 12V11C14 10.4477 14.4477 10 15 10Z" fill="black"/>
<path d="M13 11C13 10.4477 12.5523 10 12 10C11.4477 10 11 10.4477 11 11V12C11 12.5523 11.4477 13 12 13C12.5523 13 13 12.5523 13 12V11Z" fill="black"/>
<path fill-rule="evenodd" clip-rule="evenodd" d="M4 3C4 2.44772 4.44772 2 5 2H19C19.5523 2 20 2.44772 20 3V21C20 21.5523 19.5523 22 19 22H14C13.4477 22 13 21.5523 13 21V18H11V21C11 21.5523 10.5523 22 10 22H5C4.44772 22 4 21.5523 4 21V3ZM6 4V20H9V17C9 16.4477 9.44772 16 10 16H14C14.5523 16 15 16.4477 15 17V20H18V4H6Z" fill="black"/>
</svg>
