<svg xmlns="http://www.w3.org/2000/svg" width="24" height="24" fill="none" viewBox="0 0 24 24"><path fill="#000" fill-rule="evenodd" d="M4 3c0-.5523.4477-1 1-1h14c.5523 0 1 .4477 1 1v18c0 .5523-.4477 1-1 1h-5c-.5523 0-1-.4477-1-1v-3h-2v3c0 .5523-.4477 1-1 1H5c-.5523 0-1-.4477-1-1zm2 1v16h3v-3c0-.5523.4477-1 1-1h4c.5523 0 1 .4477 1 1v3h3V4zm4 3c0-.5523-.4477-1-1-1s-1 .4477-1 1v1c0 .5523.4477 1 1 1s1-.4477 1-1zm3 0c0-.5523-.4477-1-1-1s-1 .4477-1 1v1c0 .5523.4477 1 1 1s1-.4477 1-1zm2-1c.5523 0 1 .4477 1 1v1c0 .5523-.4477 1-1 1s-1-.4477-1-1V7c0-.5523.4477-1 1-1m-6 4c.5523 0 1 .4477 1 1v1c0 .5523-.4477 1-1 1s-1-.4477-1-1v-1c0-.5523.4477-1 1-1m3 0c.5523 0 1 .4477 1 1v1c0 .5523-.4477 1-1 1s-1-.4477-1-1v-1c0-.5523.4477-1 1-1m4 1c0-.5523-.4477-1-1-1s-1 .4477-1 1v1c0 .5523.4477 1 1 1s1-.4477 1-1z"/></svg>