<svg xmlns="http://www.w3.org/2000/svg" width="24" height="24" fill="none" viewBox="0 0 24 24"><path fill="#000" fill-rule="evenodd" d="M22 7.1141c0-1.7222-1.4468-3.091-3.1664-2.9954l-14 .7778C3.2438 4.9848 2 6.2997 2 7.892v8.216c0 1.5922 1.2438 2.9071 2.8336 2.9954l14 .7778C20.5532 19.9766 22 18.608 22 16.8857zm-3.0555-.9984C19.5177 6.0837 20 6.54 20 7.114V11h-8V6.5015zM10 6.6126l-5.0555.2808A1 1 0 0 0 4 7.892V11h6zm-6 6.3873h6v4.3874l-5.0555-.2809A1 1 0 0 1 4 16.1079zm8 4.4985 6.9445.3858c.5732.0318 1.0555-.4244 1.0555-.9985v-3.8858h-8z" clip-rule="evenodd"/></svg>