<svg width="24" height="24" viewBox="0 0 24 24" fill="none" xmlns="http://www.w3.org/2000/svg">
<path d="M3 7C3 4.79086 4.79086 3 7 3H17C19.2091 3 21 4.79086 21 7V8.64494C20.6831 8.55064 20.3475 8.5 20 8.5C19.6525 8.5 19.3169 8.55064 19 8.64494V7C19 5.89543 18.1046 5 17 5H7C5.89543 5 5 5.89543 5 7V17C5 18.1046 5.89543 19 7 19H17C18.1046 19 19 18.1046 19 17V15.3551C19.3169 15.4494 19.6525 15.5 20 15.5C20.3475 15.5 20.6831 15.4494 21 15.3551V17C21 19.2091 19.2091 21 17 21H7C4.79086 21 3 19.2091 3 17V7Z" fill="black"/>
<path d="M20 13.5C20.8284 13.5 21.5 12.8284 21.5 12C21.5 11.1716 20.8284 10.5 20 10.5C19.1716 10.5 18.5 11.1716 18.5 12C18.5 12.8284 19.1716 13.5 20 13.5Z" fill="black"/>
<path d="M16.8132 12C16.8132 12.8284 16.1417 13.5 15.3132 13.5C14.4848 13.5 13.8132 12.8284 13.8132 12C13.8132 11.1716 14.4848 10.5 15.3132 10.5C16.1417 10.5 16.8132 11.1716 16.8132 12Z" fill="black"/>
<path d="M10.6265 13.5C11.4549 13.5 12.1265 12.8284 12.1265 12C12.1265 11.1716 11.4549 10.5 10.6265 10.5C9.79804 10.5 9.12646 11.1716 9.12646 12C9.12646 12.8284 9.79804 13.5 10.6265 13.5Z" fill="black"/>
</svg>
