<svg xmlns="http://www.w3.org/2000/svg" width="24" height="24" fill="none" viewBox="0 0 24 24"><path fill="#000" fill-rule="evenodd" d="M5 3C3.3431 3 2 4.3431 2 6v8c0 1.6569 1.3431 3 3 3h14c1.6569 0 3-1.3431 3-3V6c0-1.6569-1.3431-3-3-3zM4 6c0-.5523.4477-1 1-1h14c.5523 0 1 .4477 1 1v8c0 .5523-.4477 1-1 1H5c-.5523 0-1-.4477-1-1zm4 5c.5523 0 1-.4477 1-1s-.4477-1-1-1-1 .4477-1 1 .4477 1 1 1m4 0c.5523 0 1-.4477 1-1s-.4477-1-1-1-1 .4477-1 1 .4477 1 1 1m5-1c0 .5523-.4477 1-1 1s-1-.4477-1-1 .4477-1 1-1 1 .4477 1 1M6 20c0-.5523.4477-1 1-1h10c.5523 0 1 .4477 1 1s-.4477 1-1 1H7c-.5523 0-1-.4477-1-1"/></svg>