<svg width="24" height="24" viewBox="0 0 24 24" fill="none" xmlns="http://www.w3.org/2000/svg">
<path d="M7 4C6.44772 4 6 4.44772 6 5V19C6 19.5523 6.44772 20 7 20H12V21C12 21.3506 12.0602 21.6872 12.1707 22H7C5.34315 22 4 20.6569 4 19V5C4 3.34315 5.34315 2 7 2H17.4C18.8359 2 20 3.16406 20 4.6V13.7574L18 11.7574V4.6C18 4.26863 17.7314 4 17.4 4H7Z" fill="black"/>
<path d="M18.7071 16.7071C19.0976 16.3166 19.0976 15.6834 18.7071 15.2929L15.7078 12.2936C15.5268 12.1122 15.2765 12 15 12C14.7235 12 14.4732 12.1122 14.2922 12.2936L11.2929 15.2929C10.9024 15.6834 10.9024 16.3166 11.2929 16.7071C11.6834 17.0976 12.3166 17.0976 12.7071 16.7071L14 15.4142V21C14 21.5523 14.4477 22 15 22C15.5523 22 16 21.5523 16 21V15.4142L17.2929 16.7071C17.6834 17.0976 18.3166 17.0976 18.7071 16.7071Z" fill="black"/>
</svg>
