<svg width="24" height="24" viewBox="0 0 24 24" fill="none" xmlns="http://www.w3.org/2000/svg">
<path d="M7 4C6.44772 4 6 4.44772 6 5V19C6 19.5523 6.44772 20 7 20H9.76382C9.80077 20.0412 9.83905 20.0817 9.87868 20.1213L11.7574 22H7C5.34315 22 4 20.6569 4 19V5C4 3.34315 5.34315 2 7 2H17C18.6569 2 20 3.34315 20 5V15.7638C19.4317 15.2546 18.7158 15 18 15L18 5C18 4.44772 17.5523 4 17 4H7Z" fill="black"/>
<path d="M16 13C16 12.4477 15.5523 12 15 12C14.4477 12 14 12.4477 14 13V18.5858L12.7071 17.2929C12.3166 16.9024 11.6834 16.9024 11.2929 17.2929C10.9024 17.6834 10.9024 18.3166 11.2929 18.7071L14.2929 21.7071C14.4804 21.8946 14.7348 22 15 22C15.2652 22 15.5196 21.8946 15.7071 21.7071L18.7071 18.7071C19.0976 18.3166 19.0976 17.6834 18.7071 17.2929C18.3166 16.9024 17.6834 16.9024 17.2929 17.2929L16 18.5858V13Z" fill="black"/>
</svg>
