<svg width="24" height="24" viewBox="0 0 24 24" fill="none" xmlns="http://www.w3.org/2000/svg">
<path d="M7 4C6.44772 4 6 4.44772 6 5V19C6 19.5523 6.44772 20 7 20H9.75736L11.7574 22H7C5.34315 22 4 20.6569 4 19V5C4 3.34315 5.34315 2 7 2H17C18.6569 2 20 3.34315 20 5V14.1707C19.6872 14.0602 19.3506 14 19 14H18V5C18 4.44772 17.5523 4 17 4H7Z" fill="black"/>
<path d="M14.7071 20.7071C14.3166 21.0976 13.6834 21.0976 13.2929 20.7071L10.2929 17.7071C10.1054 17.5196 10 17.2652 10 17C10 16.7348 10.1056 16.4802 10.2932 16.2926L13.2929 13.2929C13.6834 12.9024 14.3166 12.9024 14.7071 13.2929C15.0976 13.6834 15.0976 14.3166 14.7071 14.7071L13.4142 16H19C19.5523 16 20 16.4477 20 17C20 17.5523 19.5523 18 19 18H13.4142L14.7071 19.2929C15.0976 19.6834 15.0976 20.3166 14.7071 20.7071Z" fill="black"/>
</svg>
