<svg xmlns="http://www.w3.org/2000/svg" width="24" height="24" fill="none" viewBox="0 0 24 24"><path fill="#000" fill-rule="evenodd" d="M6 5c0-.5523.4477-1 1-1h10.4a.6.6 0 0 1 .6.6v7.1574l2 2V4.6C20 3.164 18.8359 2 17.4 2H7C5.3431 2 4 3.3431 4 5v14c0 1.6569 1.3431 3 3 3h5.1707A3 3 0 0 1 12 21v-1H7c-.5523 0-1-.4477-1-1zm12.7071 10.2929c.3905.3905.3905 1.0237 0 1.4142s-1.0237.3905-1.4142 0L16 15.4142V21c0 .5523-.4477 1-1 1s-1-.4477-1-1v-5.5858l-1.2929 1.2929c-.3905.3905-1.0237.3905-1.4142 0s-.3905-1.0237 0-1.4142l2.9993-2.9993A.997.997 0 0 1 15 12a.997.997 0 0 1 .7078.2936z"/></svg>