<svg xmlns="http://www.w3.org/2000/svg" width="24" height="24" fill="none" viewBox="0 0 24 24"><path fill="#000" fill-rule="evenodd" d="M6 5c0-.5523.4477-1 1-1h10c.5523 0 1 .4477 1 1v9h1c.3506 0 .6872.0602 1 .1707V5c0-1.6569-1.3431-3-3-3H7C5.3431 2 4 3.3431 4 5v14c0 1.6569 1.3431 3 3 3h4.7574l-2-2H7c-.5523 0-1-.4477-1-1zm7.2929 15.7071c.3905.3905 1.0237.3905 1.4142 0s.3905-1.0237 0-1.4142L13.4142 18H19c.5523 0 1-.4477 1-1s-.4477-1-1-1h-5.5858l1.2929-1.2929c.3905-.3905.3905-1.0237 0-1.4142s-1.0237-.3905-1.4142 0l-2.9997 2.9997a1 1 0 0 0-.0003 1.4145z"/></svg>