<svg xmlns="http://www.w3.org/2000/svg" width="24" height="24" fill="none" viewBox="0 0 24 24"><path fill="#000" fill-rule="evenodd" d="M6 5c0-.5523.4477-1 1-1h10c.5523 0 1 .4477 1 1v6.7638q.0618.0555.1213.1149L20 13.7574V5c0-1.6569-1.3431-3-3-3H7C5.3431 2 4 3.3431 4 5v14c0 1.6569 1.3431 3 3 3h6.7639a2.995 2.995 0 0 1-.7638-2H7c-.5523 0-1-.4477-1-1zm10.7071 15.7071c-.3713.3714-.9621.3896-1.355.0547a1 1 0 0 1-.121-.1223c-.3275-.3929-.3069-.9779.0618-1.3466L16.5858 18H11c-.454 0-.8374-.3026-.9594-.7171a1.03 1.03 0 0 1 0-.5658C10.1626 16.3026 10.546 16 11 16h5.5858l-1.2929-1.2929c-.3753-.3753-.3899-.9748-.0438-1.3676a1 1 0 0 1 .091-.0909c.3927-.3456.9918-.3309 1.367.0443l3 3c.1346.1346.2269.3037.2683.4865a1.01 1.01 0 0 1 0 .4412 1 1 0 0 1-.2683.4865z"/></svg>