<svg width="24" height="24" viewBox="0 0 24 24" fill="none" xmlns="http://www.w3.org/2000/svg">
<path d="M7 4.50708C6.44772 4.50708 6 4.9548 6 5.50708V19.5071C6 20.0594 6.44772 20.5071 7 20.5071H9.76382C9.80077 20.5483 9.83905 20.5888 9.87868 20.6284L11.7574 22.5071H7C5.34315 22.5071 4 21.1639 4 19.5071V5.50708C4 3.85023 5.34315 2.50708 7 2.50708H17C18.6569 2.50708 20 3.85023 20 5.50708V16.2709C19.4317 15.7617 18.7158 15.5071 18 15.5071L18 5.50708C18 4.9548 17.5523 4.50708 17 4.50708H7Z" fill="black"/>
<path d="M16 13.5071C16 12.9548 15.5523 12.5071 15 12.5071C14.4477 12.5071 14 12.9548 14 13.5071V19.0929L12.7071 17.8C12.3166 17.4094 11.6834 17.4094 11.2929 17.8C10.9024 18.1905 10.9024 18.8237 11.2929 19.2142L14.2929 22.2142C14.4804 22.4017 14.7348 22.5071 15 22.5071C15.2652 22.5071 15.5196 22.4017 15.7071 22.2142L18.7071 19.2142C19.0976 18.8237 19.0976 18.1905 18.7071 17.8C18.3166 17.4094 17.6834 17.4094 17.2929 17.8L16 19.0929V13.5071Z" fill="black"/>
</svg>
