<svg xmlns="http://www.w3.org/2000/svg" width="24" height="24" fill="none" viewBox="0 0 24 24"><path fill="#000" fill-rule="evenodd" d="M6 5c0-.5523.4477-1 1-1h10c.5523 0 1 .4477 1 1v10c.7158 0 1.4317.2546 2 .7638V5c0-1.6569-1.3431-3-3-3H7C5.3431 2 4 3.3431 4 5v14c0 1.6569 1.3431 3 3 3h4.7574l-1.8787-1.8787A3 3 0 0 1 9.7638 20H7c-.5523 0-1-.4477-1-1zm9 7c.5523 0 1 .4477 1 1v5.5858l1.2929-1.2929c.3905-.3905 1.0237-.3905 1.4142 0s.3905 1.0237 0 1.4142l-3 3a1 1 0 0 1-1.4142 0l-3-3c-.3905-.3905-.3905-1.0237 0-1.4142s1.0237-.3905 1.4142 0L14 18.5858V13c0-.5523.4477-1 1-1"/></svg>