<svg width="24" height="24" viewBox="0 0 24 24" fill="none" xmlns="http://www.w3.org/2000/svg">
<path d="M7 4.50708C6.44772 4.50708 6 4.9548 6 5.50708V19.5071C6 20.0594 6.44772 20.5071 7 20.5071H9.75736L11.7574 22.5071H7C5.34315 22.5071 4 21.1639 4 19.5071V5.50708C4 3.85023 5.34315 2.50708 7 2.50708H17C18.6569 2.50708 20 3.85023 20 5.50708V14.6778C19.6872 14.5672 19.3506 14.5071 19 14.5071H18V5.50708C18 4.9548 17.5523 4.50708 17 4.50708H7Z" fill="black"/>
<path d="M14.7071 21.2142C14.3166 21.6047 13.6834 21.6047 13.2929 21.2142L10.2929 18.2142C10.1054 18.0267 10 17.7723 10 17.5071C10 17.2419 10.1056 16.9872 10.2932 16.7997L13.2929 13.8C13.6834 13.4094 14.3166 13.4094 14.7071 13.8C15.0976 14.1905 15.0976 14.8237 14.7071 15.2142L13.4142 16.5071H19C19.5523 16.5071 20 16.9548 20 17.5071C20 18.0594 19.5523 18.5071 19 18.5071H13.4142L14.7071 19.8C15.0976 20.1905 15.0976 20.8237 14.7071 21.2142Z" fill="black"/>
</svg>
