<svg width="24" height="24" viewBox="0 0 24 24" fill="none" xmlns="http://www.w3.org/2000/svg">
<path d="M7 4C6.44772 4 6 4.44772 6 5V19C6 19.5523 6.44772 20 7 20L13.0001 20C13.0003 20.6823 13.2319 21.3647 13.6949 21.9201C13.7174 21.9471 13.7404 21.9737 13.7639 22H7C5.34315 22 4 20.6569 4 19V5C4 3.34315 5.34315 2 7 2H17C18.6569 2 20 3.34315 20 5V13.7574L18.1213 11.8787C18.0817 11.8391 18.0412 11.8008 18 11.7638V5C18 4.44772 17.5523 4 17 4H7Z" fill="black"/>
<path d="M15.3521 20.7618C15.745 21.0967 16.3358 21.0785 16.7071 20.7071L19.7071 17.7071C19.8417 17.5725 19.934 17.4034 19.9754 17.2206C20.0079 17.077 20.0079 16.923 19.9754 16.7794C19.934 16.5966 19.8417 16.4275 19.7071 16.2929L16.7071 13.2929C16.3319 12.9177 15.7328 12.903 15.3401 13.2486C15.3081 13.2768 15.2773 13.3076 15.2491 13.3395C14.903 13.7323 14.9176 14.3318 15.2929 14.7071L16.5858 16H11C10.546 16 10.1626 16.3026 10.0406 16.7171C9.98777 16.8965 9.98777 17.1035 10.0406 17.2829C10.1626 17.6974 10.546 18 11 18H16.5858L15.2929 19.2929C14.9242 19.6616 14.9036 20.2466 15.2311 20.6395C15.2675 20.6831 15.3087 20.7248 15.3521 20.7618Z" fill="black"/>
</svg>
