<svg width="24" height="24" viewBox="0 0 24 24" fill="none" xmlns="http://www.w3.org/2000/svg">
<path d="M7.97836 4C5.98639 4 4.37158 5.61481 4.37158 7.60678C4.37158 9.59875 5.98639 11.2136 7.97836 11.2136C9.97033 11.2136 11.5851 9.59875 11.5851 7.60678C11.5851 5.61481 9.97033 4 7.97836 4Z" fill="black"/>
<path d="M14 10C14 8.34315 15.3431 7 17 7C18.6569 7 20 8.34315 20 10C20 11.6569 18.6569 13 17 13C15.3431 13 14 11.6569 14 10Z" fill="black"/>
<path d="M15.4649 20H20C21.1046 20 22 19.1046 22 18V17C22 15.3431 20.6569 14 19 14H15.6586C15.8797 14.6256 16 15.2987 16 16V18C16 18.7286 15.8052 19.4117 15.4649 20Z" fill="black"/>
<path d="M2 16C2 13.7909 3.79086 12 6 12H10C12.2091 12 14 13.7909 14 16V18C14 19.1046 13.1046 20 12 20H4C2.89543 20 2 19.1046 2 18V16Z" fill="black"/>
</svg>
