<svg xmlns="http://www.w3.org/2000/svg" width="24" height="24" fill="none" viewBox="0 0 24 24"><path fill="#000" fill-rule="evenodd" d="M7.9785 4c-1.992 0-3.6068 1.6148-3.6068 3.6068s1.6148 3.6068 3.6068 3.6068 3.6068-1.6148 3.6068-3.6068S9.9705 4 7.9785 4M6.3717 7.6068C6.3717 6.7194 7.0911 6 7.9785 6s1.6068.7194 1.6068 1.6068-.7194 1.6068-1.6068 1.6068-1.6068-.7194-1.6068-1.6068M14 10c0-1.6569 1.3431-3 3-3s3 1.3431 3 3-1.3431 3-3 3-3-1.3431-3-3m3-1c-.5523 0-1 .4477-1 1s.4477 1 1 1 1-.4477 1-1-.4477-1-1-1M2 16c0-2.2091 1.7909-4 4-4h4c2.2091 0 4 1.7909 4 4v2c0 1.1046-.8954 2-2 2H4c-1.1046 0-2-.8954-2-2zm4-2c-1.1046 0-2 .8954-2 2v2h8v-2c0-1.1046-.8954-2-2-2zm9.4649 6H20c1.1046 0 2-.8954 2-2v-1c0-1.6569-1.3431-3-3-3h-3.3414A5.99 5.99 0 0 1 16 16h3c.5523 0 1 .4477 1 1v1h-4a3.98 3.98 0 0 1-.5351 2"/></svg>