<svg xmlns="http://www.w3.org/2000/svg" width="24" height="24" fill="none" viewBox="0 0 24 24"><path fill="#000" fill-rule="evenodd" d="M4.7878 7.8551C6.475 6.3791 8.9498 5 12 5c3.0365 0 5.5088 1.3124 7.2046 2.766.849.7276 1.522 1.5059 1.9906 2.2065.234.3499.4257.6934.5624 1.0134.1281.3.2424.6581.2424 1.0141 0 .3522-.1109.7079-.237 1.0083-.1343.3198-.3229.6635-.5541 1.0139-.4628.7016-1.1294 1.4811-1.9748 2.2099C17.5438 17.6894 15.0707 19 12 19c-3.0845 0-5.5598-1.3773-7.2417-2.857-.8423-.7412-1.5043-1.5235-1.963-2.2072-.2288-.3413-.4157-.6708-.5493-.97C2.1264 12.6981 2 12.348 2 12c0-.3521.1304-.7049.2517-.9718.136-.2992.3257-.6285.5574-.9693.4644-.6827 1.1327-1.4638 1.9787-2.2038m-.7746 4.1468a1.7 1.7 0 0 0 .059.1485c.0768.1719.2028.401.3841.6713.3618.5393.9092 1.1916 1.6231 1.8197C7.5102 15.9002 9.5348 17 12 17c2.479 0 4.5058-1.0563 5.9281-2.2826.7109-.6129 1.2537-1.2543 1.6113-1.7964.1791-.2715.3033-.5053.3794-.6867.0556-.1324.0732-.2075.0787-.2332-.0056-.0249-.0234-.0989-.0792-.2296-.0774-.1813-.2037-.4153-.3856-.6872-.3632-.5431-.9132-1.1857-1.6296-1.7998C16.4682 8.0545 14.4405 7 12 7 9.5733 7 7.5479 8.098 6.1045 9.3605c-.7194.6293-1.2741 1.2828-1.6415 1.8231-.1842.2708-.3124.5001-.3905.672a1.7 1.7 0 0 0-.0593.1463M8 12c0-2.2091 1.7909-4 4-4s4 1.7909 4 4-1.7909 4-4 4-4-1.7909-4-4m4-2c-1.1046 0-2 .8954-2 2s.8954 2 2 2 2-.8954 2-2-.8954-2-2-2"/></svg>