<svg xmlns="http://www.w3.org/2000/svg" width="24" height="24" fill="none" viewBox="0 0 24 24"><path fill="#000" fill-rule="evenodd" d="M2.5253 9.1167a.75.75 0 0 0-.2726 1.025l.47.8109-.9326.0016a.75.75 0 0 0 .0028 1.5l.9299-.0016-.4735.8165a.75.75 0 0 0 1.2977.7524l.4775-.8236.4762.8213a.75.75 0 0 0 1.2977-.7524l-.4748-.8189.9513-.0018a.75.75 0 0 0-.0027-1.5l-.9432.0017.466-.8038a.75.75 0 0 0-1.2976-.7524l-.4729.8156-.4742-.8179a.75.75 0 0 0-1.025-.2726m15.6619 1.0273a.75.75 0 0 1 1.2977-.7524l.4742.8179.4728-.8155a.7501.7501 0 0 1 1.2977.7523l-.466.8039.9431-.0018a.75.75 0 1 1 .0027 1.5l-.9513.0018.4748.8189a.75.75 0 0 1-.2726 1.025.75.75 0 0 1-1.025-.2726l-.4762-.8213-.4775.8236a.75.75 0 0 1-1.2977-.7524l.4734-.8165-.9299.0017a.75.75 0 0 1-.0027-1.5l.9326-.0017zm-7.9673.0023a.75.75 0 0 1 1.2977-.7523l.4742.8179.4729-.8156a.75.75 0 1 1 1.2976.7523l-.466.8039.9431-.0017a.75.75 0 1 1 .0028 1.5l-.9514.0017.4749.8189a.75.75 0 0 1-1.2977.7524l-.4762-.8213-.4775.8236a.75.75 0 0 1-1.2977-.7524l.4734-.8165-.9299.0017a.7501.7501 0 0 1-.0027-1.5l.9327-.0017z"/></svg>