<svg xmlns="http://www.w3.org/2000/svg" width="24" height="24" fill="none" viewBox="0 0 24 24"><path fill="#000" fill-rule="evenodd" d="M11.0994 2.3516a2 2 0 0 1 1.8429 0l6.5603 3.4053a1 1 0 0 1 .5393.8876v.7026q-.03.0126-.0599.0258c-.6008-.2687-1.2911-.3194-1.9401-.1174V7.252l-6.0211-3.1254-6.021 3.1254v.0088c-.6522-.2078-1.3474-.1594-1.9524.1097a3 3 0 0 0-.0476-.0208v-.7053a1 1 0 0 1 .5393-.8876zm-8.553 6.8798a.75.75 0 0 0-.2727 1.025l.47.8108-.9326.0017a.75.75 0 0 0 .0028 1.5l.9299-.0017-.4735.8166a.75.75 0 0 0 .2727 1.025.75.75 0 0 0 1.025-.2726l.4775-.8237.4762.8213a.75.75 0 1 0 1.2977-.7523l-.4748-.819.9513-.0017a.75.75 0 0 0-.0027-1.5l-.9432.0017.466-.8038a.75.75 0 0 0-1.2976-.7524l-.4729.8156-.4742-.8179a.75.75 0 0 0-1.025-.2726m15.9345.0023a.75.75 0 0 0-.2727 1.025l.4701.8109-.9326.0016a.75.75 0 0 0 .0027 1.5l.9299-.0016-.4734.8165a.75.75 0 0 0 1.2977.7524l.4775-.8236.4762.8213a.75.75 0 1 0 1.2976-.7524l-.4748-.819.9513-.0017a.75.75 0 1 0-.0027-1.5l-.9431.0017.466-.8038a.75.75 0 1 0-1.2977-.7523l-.4728.8155-.4742-.8179a.75.75 0 0 0-1.025-.2726m-8.24 1.0273a.75.75 0 0 1 1.2977-.7523l.4742.8178.4729-.8155a.75.75 0 1 1 1.2976.7523l-.466.8038.9431-.0017a.7501.7501 0 0 1 .0028 1.5l-.9514.0018.4749.8189a.75.75 0 0 1-1.2977.7524l-.4762-.8213-.4775.8236a.75.75 0 0 1-1.025.2726.75.75 0 0 1-.2727-1.025l.4734-.8165-.9299.0017a.7501.7501 0 0 1-.0027-1.5l.9327-.0017zm7.2335 5.8804c.3986.231.831.3508 1.2614.3689a12.52 12.52 0 0 1-3.6344 3.9919c-.7499.53-1.4318.8886-1.9322 1.1167a9 9 0 0 1-.6042.2508 6 6 0 0 1-.1764.0624l-.0268.0088-.0256.0082-.0167.0053-.0059.0018-.0024.0007-.001.0003a1.003 1.003 0 0 1-.5406.0107L12.0208 21c-.2512.9679-.2521.9677-.2521.9677l-.0011-.0003-.0025-.0007-.0063-.0016-.0174-.0048-.0162-.0045-.0379-.0109a6 6 0 0 1-.1806-.0569 8.3 8.3 0 0 1-.615-.2337c-.5086-.2152-1.2005-.5594-1.96-1.0832-1.2107-.8349-2.5917-2.1257-3.6694-4.0644a2.74 2.74 0 0 0 1.2875-.37 2.75 2.75 0 0 0 .5595-.4278c.8914 1.5348 1.997 2.5531 2.9578 3.2157.6305.4348 1.1993.7166 1.604.8878.1288.0546.2405.0977.3318.1308a7.5 7.5 0 0 0 .3368-.1442c.4059-.185.9757-.4836 1.6073-.93a10.51 10.51 0 0 0 2.9486-3.1749c.1682.1704.3617.3214.5788.4473"/></svg>