<svg xmlns="http://www.w3.org/2000/svg" width="24" height="24" fill="none" viewBox="0 0 24 24"><path fill="#000" fill-rule="evenodd" d="M7 8V7c0-2.7614 2.2386-5 5-5s5 2.2386 5 5v1c1.6569 0 3 1.3431 3 3v8c0 1.6569-1.3431 3-3 3H7c-1.6569 0-3-1.3431-3-3v-8c0-1.6569 1.3431-3 3-3m8-1v1H9V7c0-1.6569 1.3431-3 3-3s3 1.3431 3 3m3 4c0-.5523-.4477-1-1-1H7c-.5523 0-1 .4477-1 1v8c0 .5523.4477 1 1 1h10c.5523 0 1-.4477 1-1zm-2.3161 1.2705c.403.3777.4234 1.0105.0456 1.4134l-3.75 4a.9996.9996 0 0 1-1.4256.034l-2.25-2.1818c-.3965-.3845-.4063-1.0176-.0218-1.4141s1.0176-.4062 1.414-.0217l1.5199 1.4738 3.0545-3.258c.3777-.403 1.0105-.4234 1.4134-.0456"/></svg>