<svg xmlns="http://www.w3.org/2000/svg" width="24" height="24" fill="none" viewBox="0 0 24 24"><path fill="#000" fill-rule="evenodd" d="M8 7c0-2.2091 1.7909-4 4-4s4 1.7909 4 4-1.7909 4-4 4-4-1.7909-4-4m4-2c-1.1046 0-2 .8954-2 2s.8954 2 2 2 2-.8954 2-2-.8954-2-2-2m9.9095 7.3508c0 1.2952-.7886 2.4063-1.9119 2.8791l-.0106 1.3209.9693 1.0895-.9693 1.1225.9693 1.2247-1.943 1.943-1.4181-1.4181v-5.2748c-1.1331-.4684-1.9303-1.5845-1.9303-2.8868 0-1.7244 1.3979-3.1223 3.1223-3.1223s3.1223 1.3979 3.1223 3.1223m-3.1224-.3077a.7607.7607 0 1 0 0-1.5215.7607.7607 0 0 0 0 1.5215M7 19h8.5952v2H7c-1.6569 0-3-1.3431-3-3v-.8C4 14.3281 6.3281 12 9.2 12h4.4767a5 5 0 0 0-.0118.3508c0 .5773.0954 1.132.2712 1.6492H9.2C7.4327 14 6 15.4327 6 17.2v.8c0 .5523.4477 1 1 1"/></svg>