<svg xmlns="http://www.w3.org/2000/svg" width="24" height="24" fill="none" viewBox="0 0 24 24"><path fill="#000" d="M9 2c-.552 0-1 .448-1 1s.448 1 1 1h8c1.657 0 3 1.343 3 3v8c0 .552.448 1 1 1s1-.448 1-1V7c0-2.761-2.239-5-5-5zm1 8c.552 0 1 .448 1 1v2h2c.552 0 1 .448 1 1s-.448 1-1 1h-2v2c0 .552-.448 1-1 1s-1-.448-1-1v-2H7c-.552 0-1-.448-1-1s.448-1 1-1h2v-2c0-.552.448-1 1-1"/><path fill="#000" fill-rule="evenodd" d="M2 9c0-1.6569 1.3432-3 3-3h10c1.6569 0 3 1.3431 3 3v10c0 1.6569-1.3431 3-3 3H5c-1.6568 0-3-1.3431-3-3zm3-1h10c.5523 0 1 .4477 1 1v10c0 .5523-.4477 1-1 1H5c-.5523 0-1-.4477-1-1V9c0-.5523.4477-1 1-1" clip-rule="evenodd"/></svg>