<svg width="24" height="24" viewBox="0 0 24 24" fill="none" xmlns="http://www.w3.org/2000/svg">
<path fill-rule="evenodd" clip-rule="evenodd" d="M5 1C3.34315 1 2 2.34315 2 4V18C2 19.6569 3.34315 21 5 21H8.10002C8.03443 20.6769 8 20.3425 8 20V19H5C4.44772 19 4 18.5523 4 18V4C4 3.44772 4.44772 3 5 3H6V4C6 5.10457 6.89543 6 8 6H12C13.1046 6 14 5.10457 14 4V3H15C15.5523 3 16 3.44772 16 4V7H18V4C18 2.34315 16.6569 1 15 1H5ZM12 3H8V4H12V3Z" fill="black"/>
<path fill-rule="evenodd" clip-rule="evenodd" d="M13 9C11.3431 9 10 10.3431 10 12V20C10 20.3506 10.0602 20.6872 10.1707 21C10.5825 22.1652 11.6938 23 13 23H19C20.6569 23 22 21.6569 22 20V12C22 10.3431 20.6569 9 19 9H13ZM17 13C16.4477 13 16 12.5523 16 12V11H13C12.4477 11 12 11.4477 12 12V20C12 20.5523 12.4477 21 13 21H19C19.5523 21 20 20.5523 20 20V13H17Z" fill="black"/>
</svg>
