<svg xmlns="http://www.w3.org/2000/svg" width="24" height="24" fill="none" viewBox="0 0 24 24"><path fill="#000" fill-rule="evenodd" d="M9 2c-.5523 0-1 .4477-1 1s.4477 1 1 1h8c1.6569 0 3 1.3431 3 3v8c0 .5523.4477 1 1 1s1-.4477 1-1V7c0-2.7614-2.2386-5-5-5zM5 6C3.3431 6 2 7.3431 2 9v10c0 1.6569 1.3431 3 3 3h10c1.6569 0 3-1.3431 3-3V9c0-1.6569-1.3431-3-3-3zm10 2H5c-.5523 0-1 .4477-1 1v10c0 .5523.4477 1 1 1h10c.5523 0 1-.4477 1-1V9c0-.5523-.4477-1-1-1m-5 2c.5523 0 1 .4477 1 1v2h2c.5523 0 1 .4477 1 1s-.4477 1-1 1h-2v2c0 .5523-.4477 1-1 1s-1-.4477-1-1v-2H7c-.5523 0-1-.4477-1-1s.4477-1 1-1h2v-2c0-.5523.4477-1 1-1"/></svg>