<svg xmlns="http://www.w3.org/2000/svg" width="24" height="24" fill="none" viewBox="0 0 24 24"><path fill="#000" fill-rule="evenodd" d="M2 4c0-1.6569 1.3431-3 3-3h10c1.6569 0 3 1.3431 3 3v3h-2V4c0-.5523-.4477-1-1-1h-1v1c0 1.1046-.8954 2-2 2H8c-1.1046 0-2-.8954-2-2V3H5c-.5523 0-1 .4477-1 1v14c0 .5523.4477 1 1 1h3v1c0 .3425.0344.6769.1 1H5c-1.6569 0-3-1.3431-3-3zm6-1h4v1H8zm2 9c0-1.6569 1.3431-3 3-3h6c1.6569 0 3 1.3431 3 3v8c0 1.6569-1.3431 3-3 3h-6c-1.3062 0-2.4175-.8348-2.8293-2A3 3 0 0 1 10 20zm6 0c0 .5523.4477 1 1 1h3v7c0 .5523-.4477 1-1 1h-6c-.5523 0-1-.4477-1-1v-8c0-.5523.4477-1 1-1h3z"/></svg>