<svg xmlns="http://www.w3.org/2000/svg" width="24" height="24" fill="none" viewBox="0 0 24 24"><path fill="#000" fill-rule="evenodd" d="M15 5c0-2.2091 1.7909-4 4-4s4 1.7909 4 4-1.7909 4-4 4-4-1.7909-4-4M7 2h6.7868a5.6 5.6 0 0 0-.3474.6967h-.0001A5.7 5.7 0 0 0 13.0757 4H7v11a.99.99 0 0 1 .4412.1051l1.5641.7801 1.6109-.7843A.99.99 0 0 1 11.0619 15a.99.99 0 0 1 .4441.108l1.521.7708 1.4464-.733A1.007 1.007 0 0 1 15 15c.56 0 1 .44 1 1v2.5q0 .3106.1098.5758.11.2652.3295.4849.2197.2196.4849.3295Q17.1894 20 17.5 20t.5758-.1098q.2652-.11.4849-.3295.2196-.2197.3295-.4849Q19 18.8106 19 18.5V11q1.0671 0 2-.324V19.2q0 .5799-.205 1.0749t-.6151.905-.905.6151h-.0001Q18.7798 22 18.2 22H5q-.6212 0-1.1516-.2196v-.0001q-.5304-.2196-.9697-.659t-.659-.9696Q2 19.6213 2 19v-3q0-.4141.2929-.7071.1464-.1465.3232-.2197T3 15a1 1 0 0 1 .4577.1109l1.497.7707L5 15.8595V4q0-.4141.1464-.7678t.4394-.6464q.2928-.293.6464-.4393Q6.5858 2 7 2m12.5 1c0-.28-.22-.5-.5-.5s-.5.22-.5.5v2q0 .0994.0381.1913a.5.5 0 0 0 .1083.1623l1.5 1.5c.198.198.5092.198.7072 0 .1979-.198.1979-.5092 0-.7072L19.5 4.793zm-10 3h3.5757q.1066.6827.3635 1.303l.0001.0003q.1486.3588.3475.6967H9.5c-.56 0-1-.44-1-1s.44-1 1-1m3.3293 4H9.5c-.56 0-1 .44-1 1s.44 1 1 1h3.3293c.56 0 1-.44 1-1s-.44-1-1-1M6 20h8.326a3 3 0 0 1-.0697-.1564Q14 19.2248 14 18.5v-.8721l-.521.264a.986.986 0 0 1-.452.108.99.99 0 0 1-.4521-.108l-1.5299-.7753-1.6073.7825a.986.986 0 0 1-.4425.1008.99.99 0 0 1-.4415-.105l-1.564-.78-1.6095.784a.99.99 0 0 1-.449.101.99.99 0 0 1-.4467-.1109L4 17.6396V19q0 .2071.0732.3839t.2197.3232.3232.2197T5 20z"/></svg>