<svg xmlns="http://www.w3.org/2000/svg" width="24" height="24" fill="none" viewBox="0 0 24 24"><path fill="#000" fill-rule="evenodd" d="M3 6c0-1.6569 1.3431-3 3-3h12c1.6569 0 3 1.3431 3 3v8c0 1.6569-1.3431 3-3 3h-3v2h1c.5523 0 1 .4477 1 1s-.4477 1-1 1H8c-.5523 0-1-.4477-1-1s.4477-1 1-1h1v-2H6c-1.6569 0-3-1.3431-3-3zm16 8c0 .5523-.4477 1-1 1H6c-.5523 0-1-.4477-1-1V6c0-.5523.4477-1 1-1h12c.5523 0 1 .4477 1 1zm-7-8c.5523 0 1 .4477 1 1v3c0 .5523-.4477 1-1 1s-1-.4477-1-1V7c0-.5523.4477-1 1-1m0 8c.5523 0 1-.4477 1-1s-.4477-1-1-1-1 .4477-1 1 .4477 1 1 1m1 5v-2h-2v2z"/></svg>