<svg xmlns="http://www.w3.org/2000/svg" width="24" height="24" fill="none" viewBox="0 0 24 24"><path fill="#000" fill-rule="evenodd" d="M6 5c-.5523 0-1 .4477-1 1v12c0 .5523.4477 1 1 1s1 .4477 1 1-.4477 1-1 1c-1.6569 0-3-1.3431-3-3V6c0-1.6569 1.3431-3 3-3h6c.5523 0 1 .4477 1 1s-.4477 1-1 1zm9 0c.5523 0 1-.4477 1-1s-.4477-1-1-1-1 .4477-1 1 .4477 1 1 1m2-1c0-.5523.4477-1 1-1 1.6569 0 3 1.3431 3 3v12c0 1.6569-1.3431 3-3 3h-6c-.5523 0-1-.4477-1-1s.4477-1 1-1h6c.5523 0 1-.4477 1-1V6c0-.5523-.4477-1-1-1s-1-.4477-1-1M9 8c0-.5523.4477-1 1-1h2.5c1.933 0 3.5 1.567 3.5 3.5S14.433 14 12.5 14H11v2c0 .5523-.4477 1-1 1s-1-.4477-1-1zm2 4V9h1.5c.8284 0 1.5.6716 1.5 1.5s-.6716 1.5-1.5 1.5zm-1 8c0 .5523-.4477 1-1 1s-1-.4477-1-1 .4477-1 1-1 1 .4477 1 1"/></svg>