<svg xmlns="http://www.w3.org/2000/svg" width="24" height="24" fill="none" viewBox="0 0 24 24"><path fill="#000" d="M15.2639 9.9656a2.69 2.69 0 0 1 1.9684-.856c1.4972 0 2.7066 1.2219 2.6911 2.7191l-.0033.3192c-.014 1.3574-1.0464 2.4872-2.397 2.6232l-.2089.021a2.196 2.196 0 0 1-1.7071-.569l-.363-.3435c-.4051-.3834-1.0455-.3612-1.4232.0492-.3701.4024-.3485 1.0274.0486 1.4032l.3834.363a4.196 4.196 0 0 0 3.2616 1.087l.209-.021c2.3646-.2381 4.172-2.216 4.1965-4.5924l.0033-.3193c.027-2.6097-2.0811-4.7397-4.691-4.7397a4.69 4.69 0 0 0-3.4313 1.4922l-3.046 3.267-.0183.0202-2.0003 2.1455c-.509.546-1.222.856-1.9685.856-1.4972 0-2.7065-1.2219-2.691-2.7191l.0032-.3192c.014-1.3574 1.0464-2.4872 2.397-2.6231l.209-.021a2.196 2.196 0 0 1 1.707.5689l.2664.2507c.4054.3815 1.0443.3586 1.4213-.0511.3708-.4032.3483-1.0297-.0506-1.4052l-.2829-.2663a4.196 4.196 0 0 0-3.2616-1.087l-.209.021c-2.3645.238-4.172 2.216-4.1965 4.5925l-.0033.3192c-.027 2.6097 2.0812 4.7397 4.691 4.7397a4.69 4.69 0 0 0 3.4313-1.4922l3.046-3.267q.0093-.01.0184-.0202z"/></svg>