<svg xmlns="http://www.w3.org/2000/svg" width="24" height="24" fill="none" viewBox="0 0 24 24"><path fill="#000" fill-rule="evenodd" d="M7.5 7C8.3284 7 9 6.3284 9 5.5S8.3284 4 7.5 4 6 4.6716 6 5.5 6.6716 7 7.5 7m9 0c.8284 0 1.5-.6716 1.5-1.5S17.3284 4 16.5 4 15 4.6716 15 5.5 15.6716 7 16.5 7m-3.4215 4.6846C13.6327 11.329 14 10.7074 14 10c0-1.1046-.8954-2-2-2s-2 .8954-2 2c0 .7074.3673 1.329.9215 1.6846C10.6118 13.0116 9.4213 14 8 14c-1.6569 0-3-1.3431-3-3 0-.5523-.4477-1-1-1s-1 .4477-1 1c0 2.7614 2.2386 5 5 5v1c0 2.2091 1.7909 4 4 4s4-1.7909 4-4v-1c2.7614 0 5-2.2386 5-5 0-.5523-.4477-1-1-1s-1 .4477-1 1c0 1.6569-1.3431 3-3 3-1.4213 0-2.6118-.9884-2.9215-2.3154M10 17v-1.416a5.02 5.02 0 0 0 2-1.5835 5.02 5.02 0 0 0 2 1.5835V17c0 1.1046-.8954 2-2 2s-2-.8954-2-2"/></svg>