<svg xmlns="http://www.w3.org/2000/svg" width="24" height="24" fill="none" viewBox="0 0 24 24"><path fill="#000" fill-rule="evenodd" d="M13.5285 4.24c.6332-.5285 1.4869-.84 2.3848-.6328.8979.2073 1.5288.8617 1.8662 1.6143.3369.7517.4138 1.6552.209 2.543-.205.8878-.6704 1.6661-1.3027 2.1943-.6332.5286-1.4868.84-2.3848.6328-.8979-.2074-1.5288-.8616-1.8662-1.6143-.3368-.7518-.4149-1.6552-.21-2.543.2051-.8878.6713-1.6662 1.3037-2.1943m-5.4443-.6328c.8978-.2072 1.7516.1043 2.3848.6328.6324.528 1.0977 1.3065 1.3027 2.1944.2049.8877.1278 1.7911-.209 2.543-.3374.7526-.9682 1.4068-1.8662 1.6142-.898.2073-1.7515-.1042-2.3848-.6328-.6324-.5282-1.0987-1.3065-1.3037-2.1944-.2047-.8877-.1269-1.7912.21-2.543.3374-.7525.9683-1.4069 1.8662-1.6142m1.1025 2.168c-.2673-.223-.498-.2556-.6533-.2197-.1552.036-.3478.1662-.4902.4834-.1428.3186-.2019.7738-.086 1.2763.1161.5024.3688.8846.6368 1.1084.2672.223.497.2555.6523.2197.1554-.0358.3487-.1655.4912-.4834.1427-.3186.2018-.773.086-1.2753-.1161-.5025-.3687-.8856-.6368-1.1094m6.2764-.2197c-.1553-.0357-.3853-.003-.6523.2197-.2681.2238-.5207.6069-.6367 1.1094-.1159.5022-.0568.9567.0859 1.2753.1424.3175.335.4474.4902.4834.1554.036.3859.0036.6533-.2197.2681-.2238.5207-.606.6368-1.1084.1159-.5025.0569-.9577-.086-1.2763-.1425-.3175-.3359-.4476-.4912-.4834m5.3672 3.7353c-1.6029-.9254-3.5033-.0042-4.3672 1.4922-.8638 1.4963-.7112 3.6029.8916 4.5283 1.6027.9248 3.5033.0039 4.3672-1.4922s.711-3.6028-.8916-4.5283M7.5373 10.783C6.6735 9.2867 4.773 8.3656 3.1701 9.2908c-1.6028.9254-1.7555 3.032-.8916 4.5283.864 1.496 2.7645 2.4174 4.3672 1.4922s1.7552-3.032.8916-4.5283m1.8174 1.7256a2.9696 2.9696 0 0 1 5.2891 0l.4746.8965c.2173.4104.4877.7857.8017 1.1152l.6055.6357c1.0291 1.0798 1.0716 2.5362.5274 3.6192-.5468 1.0875-1.753 1.9152-3.2393 1.623l-.9473-.1865a4.49 4.49 0 0 0-1.7343 0l-.9473.1865c-1.4865.2924-2.6924-.5354-3.2393-1.623-.5444-1.0831-.5019-2.5393.5274-3.6192l.6054-.6357a5.03 5.03 0 0 0 .8018-1.1152zm8.8408-.7256c.5035-.872 1.29-.9596 1.6348-.7607.3446.1992.6626.9249.1592 1.7968-.5034.8715-1.2899.9585-1.6348.7598-.3447-.199-.6627-.9237-.1592-1.7959m-14.0254-.7607c.345-.1987 1.1315-.1111 1.6348.7607.5032.8719.1855 1.5968-.1592 1.7959-.3446.199-1.1312.1118-1.6347-.7598-.5036-.8722-.1856-1.5978.1591-1.7968m8.7061 2.4218c-.3917-.7395-1.3621-.7393-1.7539 0l-.4746.8975a7.03 7.03 0 0 1-1.1211 1.5586l-.6065.6357c-.3708.3891-.404.91-.1875 1.3408.2144.4263.6067.6501 1.0665.5596l.9472-.1865a6.49 6.49 0 0 1 2.5069 0l.9472.1865c.4594.09.8513-.1336 1.0654-.5596.2164-.4307.1832-.9518-.1875-1.3408l-.6064-.6357a7.02 7.02 0 0 1-1.1211-1.5586z"/></svg>