<svg xmlns="http://www.w3.org/2000/svg" width="24" height="24" fill="none" viewBox="0 0 24 24"><path fill="#000" fill-rule="evenodd" d="M7.0396 2.3506c-.3125-.201-.639-.3153-.9764-.3404l-.031-.0023c-.08-.0061-.1584-.0121-.2395-.008-.6106.031-1.234.3328-1.8663.892-.0937.0817-.1787.1606-.2698.237l-.001.002c-.5826.5202-1.004 1.0954-1.267 1.7288-.2597.633-.389 1.3917-.389 2.2802 0 .9762.1958 2.011.5831 3.0993.396 1.0873.949 2.2102 1.705 3.3471.7618 1.1279 1.674 2.1996 2.7679 3.2904 1.0938 1.085 2.256 2.0648 3.3839 2.8207l.421.2756c.9786.621 1.9297 1.0852 2.8764 1.4293 1.0893.3966 2.103.5653 3.0784.5653.8746 0 1.6482-.1002 2.2762-.3513q.023-.0091.0438-.018c.0141-.0059.0287-.0122.0428-.0179.5769-.2421 1.1077-.6242 1.5895-1.1476.1317-.1434.2711-.2921.4011-.4399l.001-.0009c.2445-.2864.4513-.6031.6011-.9505.1466-.338.2289-.665.2289-.9904 0-.3775-.1131-.7418-.3334-1.0888-.1954-.3089-.4819-.6038-.8569-.8838l-.1662-.1194-2.958-2.0513c-.4623-.3181-.9568-.4817-1.476-.4877h-.0239c-.4467 0-.863.1647-1.2481.4897l-.1632.1493-.7833.7833c-.1095.1094-.21.1639-.3006.1761-.0077.0004-.0154.0015-.0209.002a.2.2 0 0 1-.0179.001c-.0545 0-.1131-.015-.1772-.0468l-.0666-.0378-.3086-.214a11 11 0 0 1-.3852-.2996q-.4142-.3437-.8728-.7494c-.305-.2756-.5808-.54-.8301-.7893a28 28 0 0 1-.7693-.8012 27 27 0 0 1-.3514-.3981l-.3264-.3822a9 9 0 0 1-.2767-.3672l-.227-.3384c-.0617-.1052-.083-.1997-.0736-.2827.0123-.0911.0656-.1919.1772-.3006l.7703-.7833c.4357-.4358.654-.9154.648-1.4352-.0053-.457-.1307-.8909-.3753-1.3018l-.1124-.1742-2.0513-2.958-.1214-.1662c-.2838-.3742-.5777-.6572-.8819-.845M5.3984 4.3113c.2816-.225.4614-.2793.4987-.2797.0545.0545.1014.0918.186.1831.072.0775.1657.1851.2728.3175l2.0453 2.946c.0816.1189.112.2056.1234.2727-.0134.016-.0298.0358-.0518.0578l-.7623.7743c-.5347.5349-.707 1.0985-.7555 1.48-.0737.5703.0727 1.1362.3643 1.6223l.001.001c.2006.3217.4214.6408.6698.9306.2243.2685.4691.5491.7286.835l.002.002c.1421.1422.28.2889.419.436.1387.1467.2784.2943.422.4379.2685.2685.5725.5582.8997.8559l.002.001.9585.8241.002.001c.345.2773.6329.4913.8858.6519.4118.2615.8731.403 1.3356.4031.0994 0 .2031-.0059.3026-.0179.3816-.0485.9449-.2213 1.477-.7564l.7753-.7743c.0205-.0187.037-.0339.0508-.0458.0667.011.1555.04.2707.1184l2.9659 2.0572.1344.0906c.0479.0333.098.0694.1453.1085.0895.0739.158.1521.1891.2279-.0454.1881-.1423.358-.2657.5176a3.6 3.6 0 0 1-.204.2389l-.215.2279c-.2511.2714-.5049.4699-.7684.5991l-.1134.0508c-.4925.1969-1.0416.2279-1.5776.2279-.7777 0-1.5597-.1449-2.3837-.4429-.9718-.3542-1.9059-.8381-2.8644-1.4859-.9849-.6596-2.0506-1.548-3.0754-2.5669-.9096-.9096-1.652-1.7714-2.2593-2.6186l-.2519-.3622c-.5486-.8231-.9984-1.6773-1.3416-2.535l-.1403-.3683c-.31-.8657-.4648-1.6796-.4648-2.4156 0-.6192.0821-1.1254.2369-1.5008l.0567-.1265c.1435-.2932.3614-.5729.6658-.847.1383-.1154.2702-.2382.4081-.3542m16.3147.6927c-.4786-.4444-1.2266-.4167-1.6711.0617l-3.0336 3.2655-1.5118-1.5118c-.462-.4618-1.2112-.462-1.6731 0-.4617.4619-.4617 1.2112 0 1.673l2.316 2.3151c.5095.5093 1.3401.494 1.8303-.0339l3.805-4.0975c.4445-.4787.4169-1.2276-.0617-1.6721"/></svg>