<svg xmlns="http://www.w3.org/2000/svg" width="24" height="24" fill="none" viewBox="0 0 24 24"><path fill="#000" fill-rule="evenodd" d="M3.003 3.9555A1 1 0 0 1 4.002 3h3.2193a2 2 0 0 1 1.9403 1.515l.6724 2.6895a2 2 0 0 1-.5341 1.9073l-2.077 2.0535c.6313 1.0232 1.4426 2.0839 2.4863 3.1276a16.27 16.27 0 0 0 3.1348 2.451l2.0506-2.0506a2 2 0 0 1 1.8993-.5261l2.6932.6733a2 2 0 0 1 1.515 1.9403L21.002 20c0 .5523-.4486 1-1.0009 1 .0005 0 .0009 0 .0009-1l-.0009 1h-.01l-.0197-.0002q-.0241-.0003-.065-.0014a8 8 0 0 1-.228-.0097 12.6 12.6 0 0 1-.813-.0742c-.6865-.0837-1.6475-.2498-2.7705-.5801a18.47 18.47 0 0 1-3.4129-1.3868.99.99 0 0 1-.2964-.1601c-1.3513-.7462-2.7548-1.7446-4.0906-3.0804-1.4053-1.4052-2.4405-2.8484-3.2018-4.2224C3.9767 9.4698 3.4537 7.6118 3.21 6.2493c-.122-.6816-.1742-1.2407-.1958-1.6361A9 9 0 0 1 3 4.1471a6 6 0 0 1 .0012-.132l.001-.039.0005-.0127.0002-.0045V3.957zm0 0c0-.0004.0064.0003.999.0445zm12.806-.604a2 2 0 0 1 1.8428 0l2.2697 1.1782a1 1 0 0 1 .5393.8876v1.155c0 .9365-.0559 2.166-.7278 3.2144a5.48 5.48 0 0 1-1.7229 1.6985 5.1 5.1 0 0 1-.6704.3518 4 4 0 0 1-.2139.0847 3 3 0 0 1-.068.0235l-.0233.0075-.0087.0027-.0037.0011-.0017.0005-.0015.0005L16.7304 11c.2865.9508.2881.9575.2885.9575a1 1 0 0 1-.5397.0104l.2511-.9675c-.2511.9675-.2523.9672-.2528.9671l-.0018-.0005-.004-.001-.0095-.0026-.0248-.007a2 2 0 0 1-.072-.0221 3.7 3.7 0 0 1-.2242-.0809 4.76 4.76 0 0 1-.6981-.3486c-.5479-.3306-1.2267-.8823-1.765-1.7661C13.0516 8.7099 13 7.5234 13 6.614V5.4173a1 1 0 0 1 .5393-.8876zM5.051 5c.0267.2563.067.5578.1277.8971.164.9163.4756 2.1046 1.066 3.4229l1.649-1.6304L7.2213 5zm11.6638 4.9219a3.3 3.3 0 0 0 .2402-.1358 3.48 3.48 0 0 0 1.0941-1.0785c.3307-.516.4117-1.214.4117-2.1354V6.025l-1.7304-.8982L15 6.0249v.5891c0 .8938.0749 1.5731.3862 2.0843.3378.5546.7581.8937 1.0903 1.0942.0872.0526.1678.0953.2383.1294M14.71 17.7063c.688.3006 1.3452.5317 1.9492.7093.9443.2778 1.7548.4237 2.3428.5003l.0001-2.1351-2.6933-.6733z"/></svg>