<svg width="24" height="24" viewBox="0 0 24 24" fill="none" xmlns="http://www.w3.org/2000/svg">
<path d="M12 8C12.5523 8 13 8.44772 13 9V12C13 12.5523 12.5523 13 12 13C11.4477 13 11 12.5523 11 12V9C11 8.44772 11.4477 8 12 8Z" fill="black"/>
<path d="M12 16C12.5523 16 13 15.5523 13 15C13 14.4477 12.5523 14 12 14C11.4477 14 11 14.4477 11 15C11 15.5523 11.4477 16 12 16Z" fill="black"/>
<path fill-rule="evenodd" clip-rule="evenodd" d="M5 5C5 3.34315 6.34315 2 8 2H16C17.6569 2 19 3.34315 19 5V19C19 20.6569 17.6569 22 16 22H8C6.34315 22 5 20.6569 5 19V5ZM8 4C7.44772 4 7 4.44772 7 5V19C7 19.5523 7.44772 20 8 20H16C16.5523 20 17 19.5523 17 19V5C17 4.44772 16.5523 4 16 4H8Z" fill="black"/>
</svg>
