<svg width="24" height="24" viewBox="0 0 24 24" fill="none" xmlns="http://www.w3.org/2000/svg">
<path d="M11 17C10.4477 17 10 17.4477 10 18C10 18.5523 10.4477 19 11 19H13C13.5523 19 14 18.5523 14 18C14 17.4477 13.5523 17 13 17H11Z" fill="black"/>
<path fill-rule="evenodd" clip-rule="evenodd" d="M8 2C6.34315 2 5 3.34315 5 5V19C5 20.6569 6.34315 22 8 22H16C17.6569 22 19 20.6569 19 19V5C19 3.34315 17.6569 2 16 2H8ZM7 5C7 4.44772 7.44772 4 8 4H16C16.5523 4 17 4.44772 17 5V19C17 19.5523 16.5523 20 16 20H8C7.44772 20 7 19.5523 7 19V5Z" fill="black"/>
</svg>
