<svg xmlns="http://www.w3.org/2000/svg" width="24" height="24" fill="none" viewBox="0 0 24 24"><path fill="#000" fill-rule="evenodd" d="M3.0056 3.9143A1 1 0 0 1 4.0019 3h3.2193a2 2 0 0 1 1.9403 1.515l.6724 2.6895a2 2 0 0 1-.5342 1.9073l-2.0769 2.0535c.6312 1.0232 1.4426 2.0839 2.4863 3.1276a16.27 16.27 0 0 0 3.1348 2.451l2.0506-2.0506a2 2 0 0 1 1.8993-.5261l2.6932.6733a2 2 0 0 1 1.5149 1.9403V20c0 .5129-.3862.9357-.8837.9933-.0792.0092-.1616.0069-.2432.0049-.3376-.0083-.6748-.0428-1.0098-.0837-.6864-.0837-1.6474-.2498-2.7704-.5801a18.47 18.47 0 0 1-3.4129-1.3868 1 1 0 0 1-.2964-.1601c-1.3514-.7462-2.7548-1.7446-4.0906-3.0804-1.4053-1.4052-2.4405-2.8484-3.2019-4.2224C3.9766 9.4698 3.4536 7.6118 3.21 6.2493c-.122-.6815-.1742-1.2407-.1958-1.6361-.0125-.2283-.028-.471-.0085-.699"/></svg>