<svg width="24" height="24" viewBox="0 0 24 24" fill="none" xmlns="http://www.w3.org/2000/svg">
<path fill-rule="evenodd" clip-rule="evenodd" d="M4.00202 3C3.46704 3 3.02682 3.42104 3.00301 3.95549L4.00202 4C3.00301 3.95549 3.00302 3.95512 3.00301 3.95549L3.00294 3.95703L3.00286 3.95886L3.00268 3.96341L3.00222 3.97603L3.00117 4.01512C3.00047 4.04726 2.99989 4.09146 3.00002 4.1471C3.00028 4.25835 3.0034 4.41543 3.0142 4.6132C3.03578 5.00856 3.08809 5.56775 3.20998 6.24926C3.45369 7.61182 3.97674 9.4698 5.09316 11.4847C5.85447 12.8587 6.88973 14.3019 8.29497 15.7071C9.6308 17.0429 11.0343 18.0413 12.3856 18.7875C12.4765 18.8588 12.5769 18.9122 12.682 18.9476C13.8994 19.5909 15.0668 20.032 16.0949 20.3344C17.2179 20.6647 18.1789 20.8308 18.8654 20.9145C19.2089 20.9564 19.4845 20.9778 19.6784 20.9887C19.7753 20.9941 19.8519 20.9969 19.9064 20.9984C19.9336 20.9992 19.9554 20.9995 19.9714 20.9998L19.9911 21L19.9977 21L20.0011 21C20.0016 21 20.002 21 20.002 20L20.0011 21C20.5534 21 21.002 20.5523 21.002 20L21.0021 16.7808C21.0021 15.8631 20.3775 15.0631 19.4871 14.8405L16.7939 14.1672C16.1123 13.9968 15.3914 14.1965 14.8946 14.6933L12.844 16.7439C11.7996 16.1168 10.7322 15.3159 9.70918 14.2929C8.66551 13.2492 7.85417 12.1885 7.22292 11.1653L9.29987 9.11182C9.80232 8.61504 10.0054 7.89002 9.83399 7.20454L9.16158 4.51493C8.939 3.62459 8.13903 3 7.2213 3H4.00202ZM5.17874 5.89714C5.11805 5.55781 5.07773 5.25631 5.05104 5H7.2213L7.8937 7.68961L6.24476 9.31996C5.6543 8.00167 5.34263 6.81343 5.17874 5.89714ZM16.6592 18.4156C16.0552 18.238 15.398 18.0069 14.71 17.7063L16.3088 16.1075L19.0021 16.7808L19.002 18.9159C18.414 18.8393 17.6035 18.6934 16.6592 18.4156Z" fill="black"/>
<path fill-rule="evenodd" clip-rule="evenodd" d="M17.6518 3.35159C17.0742 3.05173 16.3867 3.05173 15.809 3.35159L13.5393 4.52974C13.208 4.70173 13 5.04397 13 5.41729V6.61404C13 7.52338 13.0516 8.70995 13.6781 9.73867C14.2164 10.6225 14.8952 11.1742 15.4431 11.5048C15.7168 11.67 15.9599 11.7814 16.1412 11.8534C16.232 11.8894 16.308 11.9158 16.3654 11.9343C16.3941 11.9436 16.4183 11.9509 16.4374 11.9564L16.4622 11.9634L16.4717 11.966L16.4757 11.967L16.4775 11.9675C16.478 11.9676 16.4792 11.9679 16.7304 11L16.4792 11.9679C16.6567 12.014 16.8434 12.0104 17.0189 11.9575L16.7304 11C17.0189 11.9575 17.0185 11.9576 17.0189 11.9575L17.0204 11.957L17.0221 11.9565L17.0258 11.9554L17.0345 11.9527L17.0578 11.9452C17.0757 11.9393 17.0986 11.9315 17.1258 11.9217C17.1803 11.9021 17.2528 11.8743 17.3397 11.837C17.5131 11.7625 17.7464 11.6489 18.0101 11.4852C18.5366 11.1582 19.1975 10.6223 19.733 9.7867C20.4049 8.73825 20.4608 7.50883 20.4608 6.57223V5.41729C20.4608 5.04397 20.2529 4.70173 19.9215 4.52974L17.6518 3.35159ZM16.955 9.78614C16.867 9.84078 16.7858 9.88568 16.7148 9.9219C16.6443 9.88781 16.5637 9.84511 16.4765 9.79247C16.1443 9.59196 15.724 9.25285 15.3862 8.69834C15.0749 8.18712 15 7.50778 15 6.61404V6.02491L16.7304 5.12669L18.4608 6.02491V6.57223C18.4608 7.49368 18.3798 8.19165 18.0491 8.70757C17.7095 9.23752 17.2901 9.57805 16.955 9.78614Z" fill="black"/>
</svg>
