<svg width="24" height="24" viewBox="0 0 24 24" fill="none" xmlns="http://www.w3.org/2000/svg">
<path d="M10.0002 9.5C10.0002 10.3284 9.32865 11 8.50022 11C7.67179 11 7.00022 10.3284 7.00022 9.5C7.00022 8.67157 7.67179 8 8.50022 8C9.32865 8 10.0002 8.67157 10.0002 9.5Z" fill="black"/>
<path fill-rule="evenodd" clip-rule="evenodd" d="M2.00022 8C2.00022 5.79086 3.79108 4 6.00022 4H18.0002C20.2094 4 22.0002 5.79086 22.0002 8V16C22.0002 18.2091 20.2094 20 18.0002 20H6.00022C3.79944 20 2.01377 18.2227 2.0003 16.025C1.99993 16.01 1.9999 15.9949 2.00022 15.9799V8ZM4.08439 16.5759C4.33171 17.3998 5.09587 18 6.00022 18H18.0002C18.9861 18 19.8054 17.2866 19.9701 16.3479C19.9678 16.3465 19.9656 16.3451 19.9633 16.3437L15.0267 13.2021L11.0616 15.9777C10.4603 16.3986 9.67677 16.4563 9.02027 16.1281L7.00022 15.118L4.08439 16.5759ZM20.0002 13.9965L16.1004 11.5148C15.4184 11.0808 14.5421 11.1001 13.8797 11.5637L9.9147 14.3392L7.89465 13.3292C7.33159 13.0477 6.66885 13.0477 6.10579 13.3292L4.00022 14.382V8C4.00022 6.89543 4.89565 6 6.00022 6H18.0002C19.1048 6 20.0002 6.89543 20.0002 8V13.9965Z" fill="black"/>
</svg>
