<svg width="24" height="24" viewBox="0 0 24 24" fill="none" xmlns="http://www.w3.org/2000/svg">
<path d="M10.0002 9.81201C10.0002 10.6404 9.32865 11.312 8.50022 11.312C7.67179 11.312 7.00022 10.6404 7.00022 9.81201C7.00022 8.98358 7.67179 8.31201 8.50022 8.31201C9.32865 8.31201 10.0002 8.98358 10.0002 9.81201Z" fill="black"/>
<path fill-rule="evenodd" clip-rule="evenodd" d="M2.00022 8.31201C2.00022 6.10287 3.79108 4.31201 6.00022 4.31201H18.0002C20.2094 4.31201 22.0002 6.10287 22.0002 8.31201V16.312C22.0002 18.5212 20.2094 20.312 18.0002 20.312H6.00022C3.79944 20.312 2.01377 18.5347 2.0003 16.3371C1.99993 16.322 1.9999 16.3069 2.00022 16.2919V8.31201ZM4.08439 16.888C4.33171 17.7118 5.09587 18.312 6.00022 18.312H18.0002C18.9861 18.312 19.8054 17.5986 19.9701 16.6599C19.9678 16.6585 19.9656 16.6571 19.9633 16.6557L15.0267 13.5142L11.0616 16.2897C10.4603 16.7106 9.67677 16.7683 9.02027 16.4401L7.00022 15.43L4.08439 16.888ZM20.0002 14.3085L16.1004 11.8268C15.4184 11.3928 14.5421 11.4121 13.8797 11.8757L9.9147 14.6512L7.89465 13.6412C7.33159 13.3597 6.66885 13.3597 6.10579 13.6412L4.00022 14.694V8.31201C4.00022 7.20744 4.89565 6.31201 6.00022 6.31201H18.0002C19.1048 6.31201 20.0002 7.20744 20.0002 8.31201V14.3085Z" fill="black"/>
</svg>
