<svg xmlns="http://www.w3.org/2000/svg" width="24" height="24" fill="none" viewBox="0 0 24 24"><path fill="#000" fill-rule="evenodd" d="M6.0002 4c-2.2091 0-4 1.7909-4 4v7.9799a1 1 0 0 0 .0001.0452C2.0138 18.2227 3.7994 20 6.0003 20h11.9999c2.2092 0 4-1.7909 4-4V8c0-2.2091-1.7908-4-4-4zm10.1002 7.5148 3.8998 2.4817V8c0-1.1046-.8954-2-2-2h-12c-1.1045 0-2 .8954-2 2v6.382l2.1056-1.0528a2 2 0 0 1 1.7888 0l2.0201 1.01 3.965-2.7755a2 2 0 0 1 2.2207-.0489M8.5002 11c.8284 0 1.5-.6716 1.5-1.5S9.3286 8 8.5002 8s-1.5.6716-1.5 1.5.6716 1.5 1.5 1.5m-2.5 7c-.9043 0-1.6685-.6002-1.9158-1.4241l2.9158-1.4579 2.02 1.0101a2 2 0 0 0 2.0414-.1504l3.9651-2.7756 4.9366 3.1416.0068.0042c-.1647.9387-.984 1.6521-1.9699 1.6521z"/></svg>