<svg width="24" height="24" viewBox="0 0 24 24" fill="none" xmlns="http://www.w3.org/2000/svg">
<path fill-rule="evenodd" clip-rule="evenodd" d="M6 3C6 2.44772 6.44772 2 7 2H17C17.5523 2 18 2.44772 18 3C18 3.55228 17.5523 4 17 4H16V9C16 10.6569 17.3431 12 19 12C19.5523 12 20 12.4477 20 13C20 13.5523 19.5523 14 19 14H13V21C13 21.5523 12.5523 22 12 22C11.4477 22 11 21.5523 11 21V14H5C4.44772 14 4 13.5523 4 13C4 12.4477 4.44772 12 5 12C6.65685 12 8 10.6569 8 9V4H7C6.44772 4 6 3.55228 6 3ZM14.9996 12C14.3719 11.1643 14 10.1256 14 9V4H10V9C10 10.1256 9.62806 11.1643 9.00037 12H14.9996Z" fill="black"/>
</svg>
