<svg width="24" height="24" viewBox="0 0 24 24" fill="none" xmlns="http://www.w3.org/2000/svg">
<path d="M3 6C3 4.34315 4.34315 3 6 3H7C7.55228 3 8 3.44772 8 4C8 4.55228 7.55228 5 7 5H6C5.44772 5 5 5.44772 5 6V7C5 7.55228 4.55228 8 4 8C3.44772 8 3 7.55228 3 7V6Z" fill="black"/>
<path d="M18 3C19.6569 3 21 4.34315 21 6V7C21 7.55228 20.5523 8 20 8C19.4477 8 19 7.55228 19 7V6C19 5.44772 18.5523 5 18 5H17C16.4477 5 16 4.55228 16 4C16 3.44772 16.4477 3 17 3H18Z" fill="black"/>
<path d="M13 5C13.5523 5 14 4.55228 14 4C14 3.44772 13.5523 3 13 3H11C10.4477 3 10 3.44772 10 4C10 4.55228 10.4477 5 11 5H13Z" fill="black"/>
<path d="M5 11C5 10.4477 4.55228 10 4 10C3.44772 10 3 10.4477 3 11V13C3 13.5523 3.44772 14 4 14C4.55228 14 5 13.5523 5 13V11Z" fill="black"/>
<path d="M6 21C4.34315 21 3 19.6569 3 18V17C3 16.4477 3.44772 16 4 16C4.55229 16 5 16.4477 5 17L5 18C5 18.5523 5.44772 19 6 19H7C7.55228 19 8 19.4477 8 20C8 20.5523 7.55228 21 7 21H6Z" fill="black"/>
<path d="M21 18C21 19.6569 19.6569 21 18 21H17C16.4477 21 16 20.5523 16 20C16 19.4477 16.4477 19 17 19H18C18.5523 19 19 18.5523 19 18V17C19 16.4477 19.4477 16 20 16C20.5523 16 21 16.4477 21 17V18Z" fill="black"/>
<path d="M21 11C21 10.4477 20.5523 10 20 10C19.4477 10 19 10.4477 19 11V13C19 13.5523 19.4477 14 20 14C20.5523 14 21 13.5523 21 13V11Z" fill="black"/>
<path d="M14 20C14 20.5523 13.5523 21 13 21H11C10.4477 21 10 20.5523 10 20C10 19.4477 10.4477 19 11 19H13C13.5523 19 14 19.4477 14 20Z" fill="black"/>
<path fill-rule="evenodd" clip-rule="evenodd" d="M10 8C8.89543 8 8 8.89543 8 10V14C8 15.1046 8.89543 16 10 16H14C15.1046 16 16 15.1046 16 14V10C16 8.89543 15.1046 8 14 8H10ZM10 10H14V14H10V10Z" fill="black"/>
</svg>
