<svg xmlns="http://www.w3.org/2000/svg" width="24" height="24" fill="none" viewBox="0 0 24 24"><path fill="#000" fill-rule="evenodd" d="M6 3C4.3431 3 3 4.3431 3 6v1c0 .5523.4477 1 1 1s1-.4477 1-1V6c0-.5523.4477-1 1-1h1c.5523 0 1-.4477 1-1s-.4477-1-1-1zm15 3c0-1.6569-1.3431-3-3-3h-1c-.5523 0-1 .4477-1 1s.4477 1 1 1h1c.5523 0 1 .4477 1 1v1c0 .5523.4477 1 1 1s1-.4477 1-1zm-8-1c.5523 0 1-.4477 1-1s-.4477-1-1-1h-2c-.5523 0-1 .4477-1 1s.4477 1 1 1zm-5 5c0-1.1046.8954-2 2-2h4c1.1046 0 2 .8954 2 2v4c0 1.1046-.8954 2-2 2h-4c-1.1046 0-2-.8954-2-2zm12 0c.5523 0 1 .4477 1 1v2c0 .5523-.4477 1-1 1s-1-.4477-1-1v-2c0-.5523.4477-1 1-1M5 11c0-.5523-.4477-1-1-1s-1 .4477-1 1v2c0 .5523.4477 1 1 1s1-.4477 1-1zm9-1h-4v4h4zM3 18c0 1.6569 1.3431 3 3 3h1c.5523 0 1-.4477 1-1s-.4477-1-1-1H6c-.5523 0-1-.4477-1-1v-1c0-.5523-.4477-1-1-1s-1 .4477-1 1zm15 3c1.6569 0 3-1.3431 3-3v-1c0-.5523-.4477-1-1-1s-1 .4477-1 1v1c0 .5523-.4477 1-1 1h-1c-.5523 0-1 .4477-1 1s.4477 1 1 1zm-5 0c.5523 0 1-.4477 1-1s-.4477-1-1-1h-2c-.5523 0-1 .4477-1 1s.4477 1 1 1z"/></svg>