<svg xmlns="http://www.w3.org/2000/svg" width="24" height="24" fill="none" viewBox="0 0 24 24"><path fill="#000" fill-rule="evenodd" d="m4.5695 5.3116.1405.9901c-.1415-.99-.1405-.99-.1405-.99M12 3.9435a5 5 0 0 0-.168.2362C11.4191 4.7991 11 5.7343 11 7c0 1.4085.5195 2.5752 1 3.3502.4805-.775 1-1.9417 1-3.3502-.0001-1.2657-.4192-2.201-.8321-2.8203A5 5 0 0 0 12 3.9435M5.7307 7.3224c.0904.0125.186.0283.2858.0483.7299.146 1.6876.5109 2.5826 1.4059.996.996 1.4536 2.1883 1.6618 3.076-.8877-.2082-2.0801-.6659-3.076-1.6618-.895-.895-1.26-1.8527-1.406-2.5826a5 5 0 0 1-.0483-.2858m12.2528.0483c.0998-.02.1954-.0358.2858-.0483a5 5 0 0 1-.0483.2858c-.146.7299-.5109 1.6876-1.4059 2.5826-.996.9959-2.1883 1.4536-3.076 1.6618.2082-.8877.6658-2.08 1.6618-3.076.895-.895 1.8527-1.26 2.5826-1.406M8 14v5c0 .5523.4477 1 1 1h6c.5523 0 1-.4477 1-1v-5zm3.4-12.3-.0016.0012-.0018.0013-.0041.0032-.0104.008a3 3 0 0 0-.1188.0974 5 5 0 0 0-.2829.263c-.2262.2262-.5202.5578-.8125.9962-.532.7982-1.0591 1.953-1.1531 3.4537a6.92 6.92 0 0 0-2.6061-1.1145c-.5167-.1033-.959-.1299-1.2789-.1299a5 5 0 0 0-.386.014 3.5 3.5 0 0 0-.153.0152l-.013.0017-.005.0007-.0023.0003-.001.0001a1.001 1.001 0 0 0-.8495.8487l-.0003.002-.0003.0022-.0007.0051-.0017.013-.0044.037a4 4 0 0 0-.0108.1159 5 5 0 0 0-.014.386c0 .3199.0266.7623.13 1.279.2076 1.0377.7265 2.3781 1.9528 3.6045a7.8 7.8 0 0 0 .6493.5803A.999.999 0 0 0 6 13v6c0 1.6569 1.3432 3 3 3h6c1.6568 0 3-1.3431 3-3v-6a.999.999 0 0 0-.42-.8147 7.8 7.8 0 0 0 .6493-.5803c1.2263-1.2264 1.7453-2.5668 1.9529-3.6046.1033-.5166.1299-.959.1299-1.2788a5 5 0 0 0-.014-.3861 3.5 3.5 0 0 0-.0152-.1529l-.0017-.013-.0007-.0051-.0003-.0022-.0001-.001a1.0025 1.0025 0 0 0-.8496-.8497l-.0011-.0001-.0022-.0003-.0051-.0007-.013-.0017-.037-.0044a4 4 0 0 0-.1159-.0108 5 5 0 0 0-.3861-.014c-.3198 0-.7622.0266-1.2788.1299a6.92 6.92 0 0 0-2.6061 1.1145c-.0941-1.5006-.6211-2.6555-1.1532-3.4537-.2922-.4384-.5863-.77-.8124-.9961a5 5 0 0 0-.2829-.2631 3 3 0 0 0-.1188-.0974l-.0104-.008-.0041-.0032-.0018-.0013L12.6 1.7l-.6.8.6-.8a1 1 0 0 0-1.2 0"/></svg>