<svg width="24" height="24" viewBox="0 0 24 24" fill="none" xmlns="http://www.w3.org/2000/svg">
<path fill-rule="evenodd" clip-rule="evenodd" d="M11.25 8.20171C10.25 7.62436 9 8.34604 9 9.50075V14.6969C9 15.8516 10.25 16.5733 11.25 15.9959L15.75 13.3979C16.75 12.8205 16.75 11.3771 15.75 10.7998L11.25 8.20171ZM14 12.0988L11 13.8309V10.3668L14 12.0988Z" fill="black"/>
<path fill-rule="evenodd" clip-rule="evenodd" d="M12 2C6.47715 2 2 6.47715 2 12C2 17.5228 6.47715 22 12 22C17.5228 22 22 17.5228 22 12C22 6.47715 17.5228 2 12 2ZM4 12C4 7.58172 7.58172 4 12 4C16.4183 4 20 7.58172 20 12C20 16.4183 16.4183 20 12 20C7.58172 20 4 16.4183 4 12Z" fill="black"/>
</svg>
