<svg width="24" height="24" viewBox="0 0 24 24" fill="none" xmlns="http://www.w3.org/2000/svg">
<path fill-rule="evenodd" clip-rule="evenodd" d="M11.25 8.51372C10.25 7.93637 9 8.65805 9 9.81276V15.0089C9 16.1636 10.25 16.8853 11.25 16.3079L15.75 13.7099C16.75 13.1325 16.75 11.6891 15.75 11.1118L11.25 8.51372ZM14 12.4108L11 14.1429V10.6788L14 12.4108Z" fill="black"/>
<path fill-rule="evenodd" clip-rule="evenodd" d="M12 2.31201C6.47715 2.31201 2 6.78916 2 12.312C2 17.8349 6.47715 22.312 12 22.312C17.5228 22.312 22 17.8349 22 12.312C22 6.78916 17.5228 2.31201 12 2.31201ZM4 12.312C4 7.89373 7.58172 4.31201 12 4.31201C16.4183 4.31201 20 7.89373 20 12.312C20 16.7303 16.4183 20.312 12 20.312C7.58172 20.312 4 16.7303 4 12.312Z" fill="black"/>
</svg>
