<svg width="24" height="24" viewBox="0 0 24 24" fill="none" xmlns="http://www.w3.org/2000/svg">
<path d="M5 8C5 7.44772 5.44772 7 6 7H8C8.55228 7 9 7.44772 9 8C9 8.55228 8.55228 9 8 9H6C5.44772 9 5 8.55228 5 8Z" fill="black"/>
<path d="M5 11C5 10.4477 5.44772 10 6 10H8C8.55228 10 9 10.4477 9 11C9 11.5523 8.55228 12 8 12H6C5.44772 12 5 11.5523 5 11Z" fill="black"/>
<path d="M7 16C7.55228 16 8 15.5523 8 15C8 14.4477 7.55228 14 7 14C6.44772 14 6 14.4477 6 15C6 15.5523 6.44772 16 7 16Z" fill="black"/>
<path fill-rule="evenodd" clip-rule="evenodd" d="M2 7C2 5.34315 3.34315 4 5 4H19C20.6569 4 22 5.34315 22 7V17C22 18.6569 20.6569 20 19 20H5C3.34315 20 2 18.6569 2 17V7ZM5 6H10V18H5C4.44772 18 4 17.5523 4 17V7C4 6.44772 4.44772 6 5 6ZM15 6H12V18H15V6ZM19 18H17V6H19C19.5523 6 20 6.44772 20 7V17C20 17.5523 19.5523 18 19 18Z" fill="black"/>
</svg>
