<svg xmlns="http://www.w3.org/2000/svg" width="24" height="24" fill="none" viewBox="0 0 24 24"><path fill="#000" fill-rule="evenodd" d="M5 4C3.3431 4 2 5.3431 2 7v10c0 1.6569 1.3431 3 3 3h14c1.6569 0 3-1.3431 3-3V7c0-1.6569-1.3431-3-3-3zm5 2H5c-.5523 0-1 .4477-1 1v10c0 .5523.4477 1 1 1h5zm2 0h3v12h-3zm5 12h2c.5523 0 1-.4477 1-1V7c0-.5523-.4477-1-1-1h-2zM6 7c-.5523 0-1 .4477-1 1s.4477 1 1 1h2c.5523 0 1-.4477 1-1s-.4477-1-1-1zm-1 4c0-.5523.4477-1 1-1h2c.5523 0 1 .4477 1 1s-.4477 1-1 1H6c-.5523 0-1-.4477-1-1m3 4c0 .5523-.4477 1-1 1s-1-.4477-1-1 .4477-1 1-1 1 .4477 1 1"/></svg>