<svg xmlns="http://www.w3.org/2000/svg" width="24" height="24" fill="none" viewBox="0 0 24 24"><path fill="#000" fill-rule="evenodd" d="M11 4c-.5523 0-1 .4477-1 1 0 .344 0 .6748.0019.9942L10.0078 7H7c-1.1046 0-2 .8954-2 2v8c0 1.1046.8954 2 2 2h1c0-1.6569 1.3431-3 3-3s3 1.3431 3 3h1c1.1046 0 2-.8954 2-2v-3.0182l1.0123.0124c.3108.0039.6397.0058.9877.0058.5523 0 1-.4477 1-1s-.4477-1-1-1c-.3477 0-.676.0022-.9859.0066L17 12.0209V9c0-1.1046-.8954-2-2-2h-2.9695l-.0192-.9804A52 52 0 0 1 12 5c0-.5523-.4477-1-1-1M8 5c0-1.6568 1.3431-3 3-3s3 1.3432 3 3h1c2.2091 0 4 1.7909 4 4v1c1.6569 0 3 1.3431 3 3s-1.3431 3-3 3v1c0 2.2091-1.7909 4-4 4h-3.012l.0091-1.009C12 19.6714 12 19.3416 12 19c0-.5523-.4477-1-1-1s-1 .4477-1 1c0 .349 0 .6793.002.9938L10.0082 21H7c-2.2091 0-4-1.7909-4-4V9c0-2.2091 1.7909-4 4-4z"/></svg>