<svg xmlns="http://www.w3.org/2000/svg" width="24" height="24" fill="none" viewBox="0 0 24 24"><path fill="#000" fill-rule="evenodd" d="M1.9974 5c0-1.6569 1.3432-3 3-3h14.0052c1.6568 0 2.9999 1.3431 2.9999 3v14c0 1.6568-1.3431 3-3 3H4.9975c-1.657 0-3-1.3432-3-3zm3-1h14.0052c.5522 0 .9999.4477.9999 1v14c0 .5523-.4477 1-1 1H4.9975c-.5523 0-1-.4477-1-1V5c0-.5523.4477-1 1-1m3.6692 7c-.5523 0-1 .4477-1 1s.4477 1 1 1H11v2.3333c0 .5523.4477 1 1 1s1-.4477 1-1V13h2.3333c.5523 0 1-.4477 1-1s-.4477-1-1-1H13V8.6666c0-.5522-.4477-1-1-1s-1 .4478-1 1V11z"/></svg>