<svg width="24" height="24" viewBox="0 0 24 24" fill="none" xmlns="http://www.w3.org/2000/svg">
<path d="M12.9998 4.99829C12.9998 4.44601 12.5521 3.99829 11.9998 3.99829C11.4475 3.99829 10.9998 4.44601 10.9998 4.99829V11H4.99805C4.44576 11 3.99805 11.4477 3.99805 12C3.99805 12.5523 4.44576 13 4.99805 13H10.9998V19.0018C10.9998 19.554 11.4475 20.0018 11.9998 20.0018C12.5521 20.0018 12.9998 19.554 12.9998 19.0018V13H19.0015C19.5538 13 20.0015 12.5523 20.0015 12C20.0015 11.4477 19.5538 11 19.0015 11H12.9998V4.99829Z" fill="black"/>
</svg>
