<svg xmlns="http://www.w3.org/2000/svg" width="24" height="24" fill="none" viewBox="0 0 24 24"><path fill="#000" fill-rule="evenodd" d="M12.3162 2.0513a1 1 0 0 0-.6324 0L2.7057 5.044a1 1 0 0 0-.4555.2943A.996.996 0 0 0 2 6v11.1516a1 1 0 0 0 .6068.9195l9 3.8484c.2511.1073.5353.1073.7864 0l9-3.8484A1 1 0 0 0 22 17.1516V6a.996.996 0 0 0-.2502-.6617 1 1 0 0 0-.4555-.2943zM20 7.3874l-7.0077 2.336q.0077.0615.0077.125v9.6364l7-2.9932zm-8.9923 2.336L4 7.3873v9.1042l7 2.9932V9.8484q0-.0635.0077-.125M12 7.9458 6.1623 6 12 4.054 17.8377 6z"/></svg>