<svg xmlns="http://www.w3.org/2000/svg" width="24" height="24" fill="none" viewBox="0 0 24 24"><path fill="#000" fill-rule="evenodd" d="M12.0265 21.2205c-.6223.7827-.6228.7824-.6228.7824zm.6223.7827a1.001 1.001 0 0 1-1.2451-.0003l-.0023-.0019-.0053-.0042-.018-.0145-.065-.0529a19 19 0 0 1-.2362-.1977 27 27 0 0 1-.8268-.7342c-.6798-.6278-1.5884-1.5251-2.4999-2.6011C5.9711 16.296 4 13.3061 4 10.2166 4 5.704 7.5686 2 12.0265 2s8.0265 3.704 8.0265 8.2166c0 3.0895-1.9711 6.0794-3.7502 8.1798-.9115 1.076-1.8201 1.9733-2.4999 2.6011a27 27 0 0 1-.8268.7342 18 18 0 0 1-.3012.2506l-.0181.0145-.0052.0042-.0017.0014zM12.0265 4C8.7232 4 6 6.758 6 10.2166c0 2.3278 1.5422 4.8399 3.2763 6.8871.8452.9977 1.6932 1.8357 2.3308 2.4246.1534.1416.2942.2685.4194.3794.1252-.1109.266-.2378.4194-.3794.6376-.5889 1.4856-1.4269 2.3308-2.4246 1.7341-2.0472 3.2763-4.5593 3.2763-6.8871C18.053 6.7579 15.3298 4 12.0265 4M14 10c0 1.1046-.8954 2-2 2s-2-.8954-2-2 .8954-2 2-2 2 .8954 2 2"/></svg>