<svg xmlns="http://www.w3.org/2000/svg" width="24" height="24" fill="none" viewBox="0 0 24 24"><path fill="#000" fill-rule="evenodd" d="M14.0141 9.1707V5c0-1.6568-1.3431-3-3-3s-3 1.3432-3 3v7.8958l-1.365-1.1118c-1.1366-.9256-2.7892-.8413-3.8257.1951-1.116 1.1161-1.1161 2.9257 0 4.0418l4.8076 4.8075A4 4 0 0 0 10.4594 22h6.4297c2.8305 0 5.125-2.2945 5.125-5.125V12c0-1.6569-1.3431-3-3-3a2.99 2.99 0 0 0-2 .7639 2.99 2.99 0 0 0-2-.7639c-.3506 0-.6872.0602-1 .1707m-3-5.1707c-.5523 0-1 .4477-1 1v10a1 1 0 0 1-1.6315.7754L5.386 13.3348a.858.858 0 0 0-1.1484.0586.858.858 0 0 0 0 1.2132l4.8076 4.8076c.375.3751.8838.5858 1.4142.5858h6.4297c1.7259 0 3.125-1.3991 3.125-3.125V12c0-.5523-.4477-1-1-1s-1 .4477-1 1v1c0 .5523-.4477 1-1 1s-1-.4477-1-1v-1c0-.5523-.4477-1-1-1s-1 .4477-1 1v1c0 .5523-.4477 1-1 1s-1-.4477-1-1V5c0-.5523-.4477-1-1-1"/></svg>