<svg xmlns="http://www.w3.org/2000/svg" width="24" height="24" fill="none" viewBox="0 0 24 24"><path fill="#000" fill-rule="evenodd" d="M12 3c.5523 0 1 .4477 1 1v8c0 .5523-.4477 1-1 1s-1-.4477-1-1V4c0-.5523.4477-1 1-1M6.708 5.918c.4113.3686.4459 1.0008.0773 1.4121C5.6744 8.5696 5 10.2049 5 12c0 3.866 3.134 7 7 7s7-3.134 7-7c0-1.7951-.6744-3.4304-1.7853-4.6699-.3686-.4113-.334-1.0435.0773-1.4121s1.0435-.334 1.4121.0773C20.131 7.5874 21 9.6934 21 12c0 4.9706-4.0294 9-9 9s-9-4.0294-9-9c0-2.3066.869-4.4126 2.296-6.0047.3685-.4113 1.0007-.4459 1.412-.0773"/></svg>