<svg xmlns="http://www.w3.org/2000/svg" width="24" height="24" fill="none" viewBox="0 0 24 24"><path fill="#000" fill-rule="evenodd" d="M12.9153 3.5702c-.4354-.6531-1.3951-.6532-1.8306 0L7.8446 8.4304 3.8778 4.4637C3.1848 3.7707 2 4.2615 2 5.2415V18c0 1.6569 1.3432 3 3 3h14c1.6569 0 3-1.3431 3-3V5.2415c0-.98-1.1848-1.4708-1.8778-.7778l-3.9668 3.9667zM20 15V7.4143l-3.2066 3.2066c-.4909.4908-1.3081.4099-1.6931-.1676L12 5.8028l-3.1003 4.6505c-.385.5775-1.2022.6584-1.693.1676L4 7.4143V15zM4 17h16v1c0 .5523-.4477 1-1 1H5c-.5523 0-1-.4477-1-1z"/></svg>