<svg xmlns="http://www.w3.org/2000/svg" width="24" height="24" fill="none" viewBox="0 0 24 24"><path fill="#000" fill-rule="evenodd" d="M12 4.5902c-.5657-.9935-1.3224-1.7232-2.1761-2.1621-1.6143-.8302-3.5732-.5613-4.6485 1.0063C4.6524 4.1968 4.2523 5.69 5.306 7H5c-1.1046 0-2 .8954-2 2v2c0 .7471.4096 1.3985 1.0165 1.7419A2 2 0 0 0 4 13.0001v7c0 1.1046.8954 2 2 2h12c1.1046 0 2-.8954 2-2v-7q0-.1313-.0165-.2581C20.5904 12.3986 21 11.7472 21 11.0001v-2c0-1.1046-.8954-2-2-2h-.306c1.0537-1.3101.6536-2.8033.1306-3.5657-1.0753-1.5676-3.0342-1.8365-4.6485-1.0063-.8537.439-1.6104 1.1686-2.1761 2.162m-3.0907-.3835c.7206.3705 1.5119 1.233 1.9003 2.7607-2.5538-.1482-3.5727-.7687-3.9344-1.2076-.345-.4184-.2473-.9072-.0505-1.194.4021-.5863 1.1932-.8175 2.0846-.3591M13 20v-7h5v7zm-2-7v7H6v-7zm2-2V9h6v2zm-2-2v2H5V9zm6.1753-4.4344c.1968.2869.2944.7757-.0505 1.1941-.3617.439-1.3806 1.0594-3.9344 1.2076.3884-1.5277 1.1797-2.3902 1.9003-2.7607.8914-.4584 1.6825-.2272 2.0846.359"/></svg>