<svg xmlns="http://www.w3.org/2000/svg" width="24" height="24" fill="none" viewBox="0 0 24 24"><path fill="#000" fill-rule="evenodd" d="M3.7361 6.8888 1.9963 5.149c-.3906-.3905-.3906-1.0236 0-1.4142s1.0237-.3905 1.4142 0L20.573 20.8973c.3905.3905.3905 1.0236 0 1.4142s-1.0237.3905-1.4142 0l-3.1435-3.1436a7.55 7.55 0 0 1-1.2652.6743l-.2948 2.1441a1 1 0 0 1-.9907.8638h-3.2467a1 1 0 0 1-.9907-.8642l-.2938-2.1435a7.56 7.56 0 0 1-1.6913-.9778l-2.0042.8177a1 1 0 0 1-1.2438-.4259l-1.6234-2.8117a1 1 0 0 1 .2527-1.2898l1.7093-1.3274a7.6 7.6 0 0 1-.0626-.9777c0-.3304.0212-.6563.0625-.9763l-1.7104-1.3269a1 1 0 0 1-.253-1.29zm10.825 10.825a5.53 5.53 0 0 1-1.0239.4451l-.6007.1917-.3438 2.4995h-1.5025l-.3426-2.4993-.6011-.1918a5.56 5.56 0 0 1-2.053-1.1869l-.4667-.4245-2.3368.9534-.7513-1.3012 1.9916-1.5466-.1335-.6155a5.6 5.6 0 0 1-.1267-1.1879c0-.4083.0438-.8053.1265-1.187l.1335-.6157-1.9928-1.546.663-1.1482 4.652 4.6521v1.9873a.65.65 0 0 0 .975.5629l.9987-.5766z" clip-rule="evenodd"/><path fill="#000" d="m19.145 16.1999-.2332.4039 1.4641 1.4641.9371-1.6231a1 1 0 0 0-.2527-1.2898l-1.7099-1.3278a7.6 7.6 0 0 0 .0626-.9774c0-.3303-.0212-.6561-.0624-.976l1.711-1.3273a1 1 0 0 0 .253-1.2901l-1.6233-2.8117a1 1 0 0 0-1.2434-.4261l-2.0058.8173a7.57 7.57 0 0 0-1.692-.9785l-.2948-2.1436a1 1 0 0 0-.9907-.8637h-3.2467a1 1 0 0 0-.9907.8642l-.2937 2.143A7.5 7.5 0 0 0 8.408 6.1l1.5165 1.5166a6 6 0 0 1 .2219-.076l.6012-.1917.3425-2.4988h1.5025l.3437 2.499.6008.1917a5.565 5.565 0 0 1 2.0531 1.1873l.4664.4245 2.3385-.9529.7512 1.3012-1.9933 1.5465.1335.6157c.0827.3815.1264.7785.1264 1.1867 0 .4086-.0438.8058-.1266 1.1876l-.1335.6156z"/></svg>