<svg xmlns="http://www.w3.org/2000/svg" width="24" height="24" fill="none" viewBox="0 0 24 24"><path fill="#000" fill-rule="evenodd" d="M4 8c0-2.2091 1.7909-4 4-4h8c2.2091 0 4 1.7909 4 4v8c0 2.2091-1.7909 4-4 4H8c-2.2091 0-4-1.7909-4-4zm4-2c-1.1046 0-2 .8954-2 2v8c0 1.1046.8954 2 2 2h8c1.1046 0 2-.8954 2-2V8c0-1.1046-.8954-2-2-2zm-8 4c0-1.4806.8044-2.7733 2-3.4649V18.465C.8044 17.7733 0 16.4806 0 15zm24 5c0 1.4806-.8044 2.7733-2 3.4649V6.5351c1.1956.6916 2 1.9843 2 3.4649zM8 10c0-.5523.4477-1 1-1h6c.5523 0 1 .4477 1 1s-.4477 1-1 1H9c-.5523 0-1-.4477-1-1m0 4c0-.5523.4477-1 1-1h6c.5523 0 1 .4477 1 1s-.4477 1-1 1H9c-.5523 0-1-.4477-1-1"/></svg>