<svg width="24" height="24" viewBox="0 0 24 24" fill="none" xmlns="http://www.w3.org/2000/svg">
<path d="M17 12C17.5523 12 18 11.5523 18 11C18 10.4477 17.5523 10 17 10C16.4477 10 16 10.4477 16 11C16 11.5523 16.4477 12 17 12Z" fill="black"/>
<path fill-rule="evenodd" clip-rule="evenodd" d="M7 2C6.44772 2 6 2.44772 6 3V7H4C2.89543 7 2 7.89543 2 9V16C2 17.1046 2.89543 18 4 18H6V20C6 21.1046 6.89543 22 8 22H16C17.1046 22 18 21.1046 18 20V18H20C21.1046 18 22 17.1046 22 16V9C22 7.89543 21.1046 7 20 7H18V3C18 2.44772 17.5523 2 17 2H7ZM6 15V16H4V9H20V16H18V15C18 13.8954 17.1046 13 16 13H8C6.89543 13 6 13.8954 6 15ZM16 7V4H8V7H16ZM16 15H8V20H16V15Z" fill="black"/>
</svg>
