<svg xmlns="http://www.w3.org/2000/svg" width="24" height="24" fill="none" viewBox="0 0 24 24"><path fill="#000" fill-rule="evenodd" d="M11.0787 2.3516a2 2 0 0 1 1.8428 0l6.5604 3.4053a1 1 0 0 1 .5393.8876v5.1703c0 .9972-.1127 2.0766-.5301 3.1027-1.1255 2.767-2.9086 4.5232-4.4105 5.5847-.7499.53-1.4318.8886-1.9322 1.1167a9 9 0 0 1-.6042.2508 6 6 0 0 1-.1764.0624 3 3 0 0 1-.0524.017l-.0167.0053-.0059.0018-.0023.0007-.0019.0006L12.0001 21c.2862.9501.288.9576.2885.9575a1 1 0 0 1-.5397.0104l.2509-.9669c-.25.9636-.2514.9668-.2519.9667l-.0011-.0003-.0025-.0007-.0063-.0016-.0174-.0048-.0541-.0154a6 6 0 0 1-.1805-.0569 8.3 8.3 0 0 1-.6151-.2337c-.5086-.2152-1.2004-.5594-1.96-1.0832-1.5239-1.0509-3.3176-2.8241-4.4366-5.7024-.3884-.9991-.4953-2.0434-.4953-3.0121V6.6445a1 1 0 0 1 .5393-.8876zM6.3383 14.144c.1277.3283.2654.6392.4112.9334.8735-.7481 2.009-1.201 3.2506-1.201h3.9087c1.2612 0 2.4126.4672 3.2915 1.2364.1557-.2993.3025-.6153.4382-.9489.2827-.695.3827-1.4882.3827-2.3491V7.2521l-6.0211-3.1254L5.979 7.2521v4.6045c0 .8345.0944 1.6059.3593 2.2874M12.0001 6c-1.933 0-3.5 1.567-3.5 3.5s1.567 3.5 3.5 3.5 3.5-1.567 3.5-3.5-1.567-3.5-3.5-3.5m-1.5 3.5c0-.8284.6716-1.5 1.5-1.5s1.5.6716 1.5 1.5-.6716 1.5-1.5 1.5-1.5-.6716-1.5-1.5m1.482 10.4432a7 7 0 0 1-.3318-.1308c-.4046-.1712-.9735-.453-1.6039-.8878-.7097-.4893-1.4982-1.1727-2.221-2.1148.5472-.5759 1.3196-.9334 2.1747-.9334h3.9087c.8606 0 1.6373.3621 2.1852.9444a10.52 10.52 0 0 1-2.1677 2.0482c-.6316.4464-1.2014.745-1.6074.93a7.5 7.5 0 0 1-.3368.1442"/></svg>