<svg xmlns="http://www.w3.org/2000/svg" width="24" height="24" fill="none" viewBox="0 0 24 24"><path fill="#000" fill-rule="evenodd" d="M2 12C2 6.4772 6.4772 2 12 2s10 4.4772 10 10c0 .902-.1194 1.7761-.3433 2.6074a7.93 7.93 0 0 0-1.8095-1.0436A8 8 0 0 0 19.9381 13H9.0257c.1 1.934.4852 3.6373 1.032 4.8948A3.26 3.26 0 0 0 10 18.5c0 .7457.2681 1.3249.3623 1.5226.3961.8316.9888 1.4872 1.5377 1.9769C6.4232 21.9458 2 17.4895 2 12m9.1324-7.5683C11.4816 4.0993 11.7731 4 12 4s.5184.0993.8676.4317c.3544.3372.719.8725 1.047 1.6105.5615 1.2633.958 2.9913 1.0597 4.9578H9.0257c.1017-1.9665.4982-3.6945 1.0597-4.9578.328-.738.6926-1.2733 1.047-1.6105M7.0233 11c.1031-2.204.5447-4.218 1.2345-5.7701a10 10 0 0 1 .1878-.3989C6.0948 5.9987 4.4 8.2887 4.062 11zm12.9148 0c-.3381-2.7113-2.0329-5.0013-4.3837-6.169q.0975.1954.1878.3989c.6898 1.552 1.1314 3.566 1.2345 5.7701zM4.0619 13h2.9614c.1031 2.204.5447 4.2181 1.2345 5.7701q.0903.2035.1878.3989C6.0948 18.0013 4.4 15.7113 4.062 13m16.0482 9.5534-1.0742-.9409A5.52 5.52 0 0 1 17 22c-1.5225 0-2.74-.6377-3.5612-1.3151-.4112-.3392-.7399-.7014-.9739-1.0286-.1165-.1627-.2191-.3302-.297-.4937C12.1061 19.0329 12 18.7859 12 18.5c0-.2903.1098-.5401.1722-.6687.0792-.1636.1834-.3307.301-.4929.1897-.2615.4403-.5455.7446-.822l-.6456-.5654c-.4155-.3639-.4573-.9957-.0934-1.4111s.9957-.4573 1.4112-.0934l1.0886.9535c.5932-.2418 1.2712-.4 2.0214-.4 1.4953 0 2.7096.606 3.5392 1.2727.415.3334.7511.6954.9922 1.0334.1201.1684.2264.3445.3066.5205.0702.1542.162.3967.162.6734 0 .2727-.0887.5127-.158.6675-.0787.1759-.1834.3521-.3023.5211-.1874.2663-.4333.5475-.7308.8181l.619.5422c.4155.3639.4573.9957.0934 1.4111s-.9957.4573-1.4112.0934M17 17a3.3 3.3 0 0 0-.1885.0054l2.4778 2.1703.007-.0056c.2963-.2395.5132-.4907.6316-.6671-.1207-.1773-.3416-.4303-.6415-.6713C18.7246 17.3802 17.9389 17 17 17m-2.2787.8598c-.2788.2286-.4887.4613-.6222.6434.131.1809.3371.4118.6123.6388.5621.4636 1.3446.858 2.2886.858q.0958 0 .1892-.005l-2.4523-2.1479z"/></svg>