<svg xmlns="http://www.w3.org/2000/svg" width="24" height="24" fill="none" viewBox="0 0 24 24"><path fill="#000" fill-rule="evenodd" d="M5 5c0-1.6569 1.3431-3 3-3h8c1.6569 0 3 1.3431 3 3h.1497C20.7239 5 22 6.2761 22 7.8503a3.776 3.776 0 0 1-1.1058 2.6697l-2.6529 2.653c-1.0128 1.9882-2.9477 3.428-5.2413 3.7561V20h2c.5523 0 1 .4477 1 1s-.4477 1-1 1H9c-.5523 0-1-.4477-1-1s.4477-1 1-1h2v-3.0709c-2.2936-.3281-4.2285-1.7679-5.2413-3.7561L3.1058 10.52A3.775 3.775 0 0 1 2 7.8503C2 6.2761 3.2761 5 4.8503 5zm11-1c.5523 0 1 .4477 1 1v5c0 2.7614-2.2386 5-5 5s-5-2.2386-5-5V5c0-.5523.4477-1 1-1zm-4 7c1.1046 0 2-.8954 2-2s-.8954-2-2-2-2 .8954-2 2 .8954 2 2 2M5 7h-.1497A.8504.8504 0 0 0 4 7.8503c0 .471.187.9225.52 1.2555l.48.48zm14.1497 0H19v2.5858l.48-.48c.3329-.333.52-.7846.52-1.2555A.8503.8503 0 0 0 19.1497 7"/></svg>