<svg width="24" height="24" viewBox="0 0 24 24" fill="none" xmlns="http://www.w3.org/2000/svg">
<path d="M9.5 10C10.0523 10 10.5 10.4477 10.5 11V12C10.5 12.5523 10.0523 13 9.5 13C8.94772 13 8.5 12.5523 8.5 12V11C8.5 10.4477 8.94772 10 9.5 10Z" fill="black"/>
<path d="M12.5 10C13.0523 10 13.5 10.4477 13.5 11V12C13.5 12.5523 13.0523 13 12.5 13C11.9477 13 11.5 12.5523 11.5 12V11C11.5 10.4477 11.9477 10 12.5 10Z" fill="black"/>
<path fill-rule="evenodd" clip-rule="evenodd" d="M13.0195 6C13.627 6.00005 14.2015 6.27659 14.5811 6.75098L18.0615 11.1016C18.3452 11.4561 18.5 11.8965 18.5 12.3506V20C18.5 21.1046 17.6046 22 16.5 22H7.5C6.39543 22 5.5 21.1046 5.5 20V8C5.5 6.89543 6.39543 6 7.5 6H13.0195ZM7.5 20H16.5V12.3506L13.0195 8H7.5V20Z" fill="black"/>
<path d="M13.0195 2C14.8443 2.00014 16.567 2.83152 17.7041 4.25293L17.8418 4.4248C18.2677 4.95682 18.5 5.6183 18.5 6.2998V8.44824L16.1426 5.50195C15.3841 4.55387 14.2354 4.00009 13.0195 4H7.5C6.77484 4 6.09526 4.19386 5.50879 4.53125V3.75586C5.50879 2.90728 6.04355 2.11722 6.8877 2.03125C7.08891 2.01081 7.29339 2 7.5 2H13.0195Z" fill="black"/>
</svg>
