<svg width="24" height="24" viewBox="0 0 24 24" fill="none" xmlns="http://www.w3.org/2000/svg">
<path d="M8 2C6.34315 2 5 3.34315 5 5H7C7 4.44772 7.44772 4 8 4H19C19.5523 4 20 4.44772 20 5V9C20 9.55228 19.5523 10 19 10H8C7.44772 10 7 9.55228 7 9H5C5 10.6569 6.34315 12 8 12H19C20.6569 12 22 10.6569 22 9V5C22 3.34315 20.6569 2 19 2H8Z" fill="black"/>
<path d="M5 8H12C12 8.25592 12.0976 8.51184 12.2929 8.70711C12.6834 9.09763 13.3166 9.09763 13.7071 8.70711L14.7071 7.70711C15.0976 7.31658 15.0976 6.68342 14.7071 6.29289L13.7071 5.29289C13.3166 4.90237 12.6834 4.90237 12.2929 5.29289C12.0976 5.48816 12 5.74408 12 6H5C3.34315 6 2 7.34315 2 9V16C2 17.6569 3.34315 19 5 19C5 20.6569 6.34314 22 8 22H19C20.6569 22 22 20.6569 22 19V17C22 15.3431 20.6569 14 19 14H8C6.69378 14 5.58254 14.8348 5.17071 16H19C19.5523 16 20 16.4477 20 17V19C20 19.5523 19.5523 20 19 20H8C7.44771 20 7 19.5523 7 19H8C8.55228 19 9 18.5523 9 18C9 17.4477 8.55228 17 8 17H5C4.44772 17 4 16.5523 4 16V9C4 8.44772 4.44772 8 5 8Z" fill="black"/>
<path d="M16 18C16 18.5523 15.5523 19 15 19C14.4477 19 14 18.5523 14 18C14 17.4477 14.4477 17 15 17C15.5523 17 16 17.4477 16 18Z" fill="black"/>
<path d="M18 19C18.5523 19 19 18.5523 19 18C19 17.4477 18.5523 17 18 17C17.4477 17 17 17.4477 17 18C17 18.5523 17.4477 19 18 19Z" fill="black"/>
</svg>
