<svg xmlns="http://www.w3.org/2000/svg" width="24" height="24" fill="none" viewBox="0 0 24 24"><path fill="#000" fill-rule="evenodd" d="M13.0195 2a6 6 0 0 1 4.6846 2.253l.1377.1718a3 3 0 0 1 .6582 1.875v2.1484L16.1426 5.502A4 4 0 0 0 13.0195 4H7.5a3.98 3.98 0 0 0-1.9912.5313v-.7754c0-.8486.5348-1.6387 1.3789-1.7246A6 6 0 0 1 7.5 2zm1.5616 4.751A2 2 0 0 0 13.0195 6H7.5c-1.1046 0-2 .8954-2 2v12c0 1.1046.8954 2 2 2h9c1.1046 0 2-.8954 2-2v-7.6494a2 2 0 0 0-.4385-1.249zM16.5 20h-9V8h5.5195L16.5 12.3506zm-6-9c0-.5523-.4477-1-1-1s-1 .4477-1 1v1c0 .5523.4477 1 1 1s1-.4477 1-1zm3 0c0-.5523-.4477-1-1-1s-1 .4477-1 1v1c0 .5523.4477 1 1 1s1-.4477 1-1z"/></svg>