<svg xmlns="http://www.w3.org/2000/svg" width="24" height="24" fill="none" viewBox="0 0 24 24"><path fill="#000" fill-rule="evenodd" d="M8 2C6.3431 2 5 3.3431 5 5h2c0-.5523.4477-1 1-1h11c.5523 0 1 .4477 1 1v4c0 .5523-.4477 1-1 1H8c-.5523 0-1-.4477-1-1H5c0 1.6569 1.3431 3 3 3h11c1.6569 0 3-1.3431 3-3V5c0-1.6569-1.3431-3-3-3zm4 6H5c-.5523 0-1 .4477-1 1v7c0 .5523.4477 1 1 1h3c.5523 0 1 .4477 1 1s-.4477 1-1 1H7c0 .5523.4477 1 1 1h11c.5523 0 1-.4477 1-1v-2c0-.5523-.4477-1-1-1H5.1707c.4118-1.1652 1.523-2 2.8293-2h11c1.6569 0 3 1.3431 3 3v2c0 1.6569-1.3431 3-3 3H8c-1.6569 0-3-1.3431-3-3-1.6569 0-3-1.3431-3-3V9c0-1.6569 1.3431-3 3-3h7c0-.256.0976-.5118.2929-.7071.3905-.3905 1.0237-.3905 1.4142 0l1 1c.3905.3905.3905 1.0237 0 1.4142l-1 1c-.3905.3905-1.0237.3905-1.4142 0A.997.997 0 0 1 12 8m3 11c.5523 0 1-.4477 1-1s-.4477-1-1-1-1 .4477-1 1 .4477 1 1 1m4-1c0 .5523-.4477 1-1 1s-1-.4477-1-1 .4477-1 1-1 1 .4477 1 1"/></svg>