<svg xmlns="http://www.w3.org/2000/svg" width="24" height="24" fill="none" viewBox="0 0 24 24"><path fill="#000" fill-rule="evenodd" d="M22 12c0 5.5228-4.4772 10-10 10S2 17.5228 2 12 6.4772 2 12 2s10 4.4772 10 10M12 4c-4.4183 0-8 3.5817-8 8 0 1.6208.482 3.129 1.3104 4.3891.605-1.4406 2.0292-2.4523 3.6896-2.4523h6c1.6604 0 3.0845 1.0117 3.6896 2.4523C19.518 15.129 20 13.6208 20 12c0-4.4183-3.5817-8-8-8M8.374 9.6085C8.374 7.6156 9.9896 6 11.9826 6c1.9929 0 3.6085 1.6156 3.6085 3.6085 0 1.993-1.6156 3.6086-3.6085 3.6086-1.993 0-3.6086-1.6156-3.6086-3.6086M11.9826 8c-.8884 0-1.6086.7202-1.6086 1.6085s.7202 1.6086 1.6086 1.6086c.8883 0 1.6085-.7202 1.6085-1.6086 0-.8883-.7202-1.6085-1.6085-1.6085M11 19.9381v-4.0013H9c-1.1046 0-2 .8954-2 2v.3086c1.1244.9013 2.4975 1.5054 4 1.6927m6-1.6927v-.3086c0-1.1046-.8954-2-2-2h-2v4.0013c1.5025-.1873 2.8756-.7914 4-1.6927"/></svg>