<svg xmlns="http://www.w3.org/2000/svg" width="24" height="24" fill="none" viewBox="0 0 24 24"><path fill="#000" fill-rule="evenodd" d="M12 2C6.4772 2 2 6.4772 2 12s4.4772 10 10 10 10-4.4772 10-10S17.5228 2 12 2M4 12c0-4.4183 3.5817-8 8-8s8 3.5817 8 8c0 1.6208-.482 3.129-1.3104 4.3891-.6051-1.4406-2.0292-2.4523-3.6896-2.4523H9c-1.6604 0-3.0845 1.0117-3.6896 2.4523C4.482 15.129 4 13.6208 4 12m7.9826-6C9.9896 6 8.374 7.6156 8.374 9.6085c0 1.993 1.6156 3.6086 3.6086 3.6086 1.9929 0 3.6085-1.6156 3.6085-3.6086C15.5911 7.6156 13.9755 6 11.9826 6M10.374 9.6085c0-.8883.7202-1.6085 1.6086-1.6085.8883 0 1.6085.7202 1.6085 1.6085s-.7202 1.6086-1.6085 1.6086-1.6086-.7202-1.6086-1.6086M17 17.9368v.3086C15.6304 19.3433 13.8919 20 12 20s-3.6304-.6567-5-1.7546v-.3086c0-1.1046.8954-2 2-2h6c1.1046 0 2 .8954 2 2"/></svg>