<svg width="24" height="24" viewBox="0 0 24 24" fill="none" xmlns="http://www.w3.org/2000/svg">
<path fill-rule="evenodd" clip-rule="evenodd" d="M8.37402 9.60855C8.37402 7.6156 9.98963 6 11.9826 6C13.9755 6 15.5911 7.6156 15.5911 9.60855C15.5911 11.6015 13.9755 13.2171 11.9826 13.2171C9.98963 13.2171 8.37402 11.6015 8.37402 9.60855ZM11.9826 8C11.0942 8 10.374 8.72017 10.374 9.60855C10.374 10.4969 11.0942 11.2171 11.9826 11.2171C12.8709 11.2171 13.5911 10.4969 13.5911 9.60855C13.5911 8.72017 12.8709 8 11.9826 8Z" fill="black"/>
<path fill-rule="evenodd" clip-rule="evenodd" d="M2 12C2 6.47715 6.47715 2 12 2C17.5228 2 22 6.47715 22 12C22 17.5228 17.5228 22 12 22C6.47715 22 2 17.5228 2 12ZM12 4C7.58172 4 4 7.58172 4 12C4 13.6208 4.48198 15.129 5.31044 16.3891C5.91547 14.9485 7.33959 13.9368 9 13.9368H15C16.6604 13.9368 18.0845 14.9485 18.6896 16.3891C19.518 15.129 20 13.6208 20 12C20 7.58172 16.4183 4 12 4ZM17 18.2454V17.9368C17 16.8322 16.1046 15.9368 15 15.9368H9C7.89543 15.9368 7 16.8322 7 17.9368V18.2454C8.3696 19.3433 10.1081 20 12 20C13.8919 20 15.6304 19.3433 17 18.2454Z" fill="black"/>
</svg>
