<svg width="24" height="24" viewBox="0 0 24 24" fill="none" xmlns="http://www.w3.org/2000/svg">
<path d="M19 11C19 11.5523 18.5523 12 18 12C17.4477 12 17 11.5523 17 11C17 10.4477 17.4477 10 18 10C18.5523 10 19 10.4477 19 11Z" fill="black"/>
<path fill-rule="evenodd" clip-rule="evenodd" d="M14.584 7C13.8124 5.2341 12.0503 4 10 4C7.94968 4 6.1876 5.2341 5.41604 7H5C3.34315 7 2 8.34315 2 10V15C2 16.6569 3.34315 18 5 18H6V19C6 19.5523 6.44772 20 7 20C7.55228 20 8 19.5523 8 19V18H16V19C16 19.5523 16.4477 20 17 20C17.5523 20 18 19.5523 18 19V18H19C20.6569 18 22 16.6569 22 15V10C22 8.34315 20.6569 7 19 7H14.584ZM7 9C7 7.34315 8.34315 6 10 6C11.6569 6 13 7.34315 13 9C13 10.6569 11.6569 12 10 12C8.34315 12 7 10.6569 7 9ZM5 9C4.44772 9 4 9.44772 4 10V15C4 15.5523 4.44772 16 5 16H19C19.5523 16 20 15.5523 20 15V10C20 9.44772 19.5523 9 19 9H15C15 11.7614 12.7614 14 10 14C7.23858 14 5 11.7614 5 9Z" fill="black"/>
</svg>
