<svg xmlns="http://www.w3.org/2000/svg" width="24" height="24" fill="none" viewBox="0 0 24 24"><path fill="#000" fill-rule="evenodd" d="M10 4c2.0503 0 3.8124 1.2341 4.584 3H19c1.6569 0 3 1.3431 3 3v5c0 1.6569-1.3431 3-3 3h-1v1c0 .5523-.4477 1-1 1s-1-.4477-1-1v-1H8v1c0 .5523-.4477 1-1 1s-1-.4477-1-1v-1H5c-1.6569 0-3-1.3431-3-3v-5c0-1.6569 1.3431-3 3-3h.416C6.1876 5.2341 7.9497 4 10 4m0 2C8.3431 6 7 7.3431 7 9s1.3431 3 3 3 3-1.3431 3-3-1.3431-3-3-3m-6 4c0-.5523.4477-1 1-1 0 2.7614 2.2386 5 5 5s5-2.2386 5-5h4c.5523 0 1 .4477 1 1v5c0 .5523-.4477 1-1 1H5c-.5523 0-1-.4477-1-1zm14 2c.5523 0 1-.4477 1-1s-.4477-1-1-1-1 .4477-1 1 .4477 1 1 1"/></svg>