<svg xmlns="http://www.w3.org/2000/svg" width="24" height="24" fill="none" viewBox="0 0 24 24"><path fill="#000" fill-rule="evenodd" d="M18.7491 1.4288A.5.5 0 0 0 18.2542 1h-1.5089a.5.5 0 0 0-.495.429l-.1315.9182a3.6 3.6 0 0 0-.7599.422l-.9229-.3597a.5.5 0 0 0-.6095.2075l-.7545 1.2497a.5.5 0 0 0 .1301.66l.7682.5698a3.33 3.33 0 0 0 0 .8074l-.7676.57a.5.5 0 0 0-.13.6599l.7545 1.2496a.5.5 0 0 0 .6098.2074l.9224-.3599c.2327.1691.4875.3112.7593.4217l.1316.9183a.5.5 0 0 0 .495.4291h1.5089a.5.5 0 0 0 .4949-.4288l.1321-.9187a3.6 3.6 0 0 0 .7592-.4216l.9227.36a.5.5 0 0 0 .6098-.2074l.7544-1.2496a.5.5 0 0 0-.1299-.6599l-.7679-.5703a3.33 3.33 0 0 0 0-.807l.7685-.5701a.5.5 0 0 0 .1301-.66l-.7545-1.2497a.5.5 0 0 0-.6096-.2074l-.9231.3597a3.6 3.6 0 0 0-.7597-.422zm-7.6124 1.8485c-.0806.251-.1264.5384-.1354.7227H7c-.5523 0-1 .4477-1 1v2c0 .5523.4477 1 1 1h4.2656c.3445.6389.8932 1.5326 1.1094 1.7734.0764.0851.1526.1606.2251.2266H7c-.5523 0-1 .4477-1 1v2c0 .5523.4477 1 1 1h10c.5523 0 1-.4477 1-1v-.993c.1969.0024.4975-.0019.6758-.0382.283-.0578.5586-.1329.8984-.3477l.0068-.0043c.0686-.0432.2554-.1611.419-.3314V13c0 1.6569-1.3431 3-3 3h-4v1.1707A3.009 3.009 0 0 1 14.8293 19H19c.5523 0 1 .4477 1 1s-.4477 1-1 1h-4.1707c-.4118 1.1652-1.5231 2-2.8293 2s-2.4175-.8348-2.8293-2H5c-.5523 0-1-.4477-1-1s.4477-1 1-1h4.1707A3.009 3.009 0 0 1 11 17.1707V16H7c-1.6569 0-3-1.3431-3-3v-2a2.99 2.99 0 0 1 .7639-2A2.99 2.99 0 0 1 4 7V5c0-1.6569 1.3431-3 3-3h4.8594l-.0585.0935c-.2345.3739-.5818.9277-.6642 1.1838M18.597 5.5c0 .6058-.4911 1.097-1.097 1.097s-1.097-.4912-1.097-1.097c0-.6059.4911-1.097 1.097-1.097s1.097.4911 1.097 1.097M9 7c.5523 0 1-.4477 1-1s-.4477-1-1-1-1 .4477-1 1 .4477 1 1 1m0 6c.5523 0 1-.4477 1-1s-.4477-1-1-1-1 .4477-1 1 .4477 1 1 1m4 7c0-.5523-.4477-1-1-1s-1 .4477-1 1 .4477 1 1 1 1-.4477 1-1"/></svg>