<svg width="24" height="24" viewBox="0 0 24 24" fill="none" xmlns="http://www.w3.org/2000/svg">
<path fill-rule="evenodd" clip-rule="evenodd" d="M18.7491 1.42883C18.7137 1.18271 18.5028 1 18.2542 1H16.7453C16.4966 1 16.2856 1.18284 16.2503 1.42906L16.1188 2.34719C15.8467 2.45769 15.5917 2.5999 15.3589 2.76917L14.436 2.40954C14.2094 2.32124 13.9522 2.4088 13.8265 2.617L13.072 3.86665C12.9388 4.0873 12.9951 4.37306 13.2021 4.52663L13.9703 5.09652C13.9541 5.22895 13.9458 5.36356 13.9458 5.49988C13.9458 5.63642 13.9541 5.77125 13.9703 5.90388L13.2027 6.47395C12.9958 6.62757 12.9396 6.91322 13.0727 7.1338L13.8272 8.38345C13.9529 8.59172 14.2103 8.67926 14.437 8.59083L15.3594 8.23092C15.5921 8.40004 15.8469 8.54213 16.1187 8.65256L16.2503 9.57094C16.2856 9.81716 16.4966 10 16.7453 10H18.2542C18.5028 10 18.7137 9.81729 18.7491 9.57117L18.8812 8.65249C19.153 8.54207 19.4078 8.39999 19.6404 8.23089L20.5631 8.59089C20.7897 8.67932 21.0471 8.59178 21.1729 8.38351L21.9273 7.13386C22.0605 6.91329 22.0042 6.62763 21.7974 6.47402L21.0295 5.90375C21.0457 5.77116 21.054 5.63638 21.054 5.49988C21.054 5.36361 21.0457 5.22904 21.0295 5.09666L21.798 4.52656C22.005 4.37299 22.0613 4.08723 21.9281 3.86659L21.1736 2.61694C21.0479 2.40874 20.7907 2.32118 20.564 2.40948L19.6409 2.7692C19.4081 2.59995 19.1532 2.45775 18.8812 2.34726L18.7491 1.42883ZM18.597 5.49997C18.597 6.10583 18.1059 6.59698 17.5 6.59698C16.8941 6.59698 16.403 6.10583 16.403 5.49997C16.403 4.8941 16.8941 4.40295 17.5 4.40295C18.1059 4.40295 18.597 4.8941 18.597 5.49997Z" fill="black"/>
<path fill-rule="evenodd" clip-rule="evenodd" d="M11.0013 4C11.0103 3.81566 11.0561 3.52822 11.1367 3.27734C11.2191 3.02122 11.5664 2.46739 11.8009 2.0935L11.8594 2H7C5.34315 2 4 3.34315 4 5V7C4 7.76835 4.28885 8.46924 4.76389 9C4.28885 9.53076 4 10.2316 4 11V13C4 14.6569 5.34315 16 7 16H11V17.1707C10.1476 17.472 9.47199 18.1476 9.17071 19H5C4.44772 19 4 19.4477 4 20C4 20.5523 4.44772 21 5 21H9.17071C9.58254 22.1652 10.6938 23 12 23C13.3062 23 14.4175 22.1652 14.8293 21H19C19.5523 21 20 20.5523 20 20C20 19.4477 19.5523 19 19 19H14.8293C14.528 18.1476 13.8524 17.472 13 17.1707V16H17C18.6569 16 20 14.6569 20 13V11.2854C19.8364 11.4557 19.6496 11.5736 19.581 11.6168L19.5742 11.6211C19.2344 11.8359 18.9588 11.911 18.6758 11.9688C18.4975 12.0051 18.1969 12.0094 18 12.007V13C18 13.5523 17.5523 14 17 14H7C6.44772 14 6 13.5523 6 13V11C6 10.4477 6.44772 10 7 10H12.6001C12.5276 9.93399 12.4514 9.85854 12.375 9.77344C12.1588 9.53264 11.6101 8.63887 11.2656 8H7C6.44772 8 6 7.55228 6 7V5C6 4.44772 6.44772 4 7 4H11.0013ZM12 19C12.5523 19 13 19.4477 13 20C13 20.5523 12.5523 21 12 21C11.4477 21 11 20.5523 11 20C11 19.4477 11.4477 19 12 19Z" fill="black"/>
<path d="M10 6C10 6.55228 9.55228 7 9 7C8.44772 7 8 6.55228 8 6C8 5.44772 8.44772 5 9 5C9.55228 5 10 5.44772 10 6Z" fill="black"/>
<path d="M10 12C10 12.5523 9.55228 13 9 13C8.44772 13 8 12.5523 8 12C8 11.4477 8.44772 11 9 11C9.55228 11 10 11.4477 10 12Z" fill="black"/>
</svg>
