<svg xmlns="http://www.w3.org/2000/svg" width="24" height="24" fill="none" viewBox="0 0 24 24"><path fill="#000" fill-rule="evenodd" d="m8.292 3.4671.001-.002v-.0007q.293-.707.8789-1.2928c.3906-.3906.8213-.6835 1.293-.8787C10.9356 1.0976 11.4483 1 12 1q.8292 0 1.5352.2929c.4717.1953.9023.4881 1.2929.8787q.586.5857.879 1.2928T16 5h1.1905c.3779 0 .7334.0626 1.0644.1877.0049.002.0108.0041.0166.0062q.5024.1939.9317.5817c.2851.2585.5097.5483.6718.8693.1612.321.2617.673.2998 1.0564l.3252 3.2542c-.0195-.0309-.0381-.0616-.0586-.0919a4.2 4.2 0 0 0-.207-.291 4 4 0 0 0-.1055-.1316c-.2607-.3108-.5644-.5849-.9121-.8222a4.5 4.5 0 0 0-.8838-.47l-.0244-.0097-.124-1.2386q-.019-.1918-.0996-.3522c-.0537-.107-.1289-.2036-.2236-.2898q-.1436-.1292-.3106-.1939A1 1 0 0 0 17.1905 7H16v1c0 .56-.4404 1-1 1s-1-.44-1-1V7h-4v1c0 .56-.4394 1-1 1-.5596 0-1-.44-1-1V7H6.8096a1 1 0 0 0-.3604.0646q-.167.0647-.3105.194c-.0948.0862-.17.1827-.2237.2897a1 1 0 0 0-.1005.3522l-1.0996 11c-.0147.1472-.001.285.042.4134.042.1284.1122.2474.2119.3571q.1494.1645.334.2468Q5.4887 20 5.71 20h4.1572a4.6 4.6 0 0 0-.0488.4886 4.5 4.5 0 0 0-.003.2822v.007l.001.0251v.0056q.006.182.0264.3623c.0312.2795.0908.5559.1767.8292H5.71c-.4405 0-.8448-.081-1.2139-.2431-.002-.0012-.0049-.0024-.0078-.0036-.3701-.1645-.705-.4113-1.002-.7402-.2978-.3291-.5107-.6862-.6377-1.0714-.126-.3852-.168-.7986-.123-1.2401l1.0996-11q.0568-.5751.2998-1.0566c.1621-.321.3857-.6108.6719-.8693q.4292-.3879.9316-.5818c.0049-.002.0108-.0041.0166-.0062Q6.2414 5 6.8096 5H8c0-.5512.0977-1.0622.292-1.5329M10 5q0-.414.1465-.7675.1465-.3536.4395-.6467c.1953-.1953.4111-.3417.6464-.4394Q11.5854 3 12 3t.7676.1465c.2363.0976.4512.244.6465.4393q.293.2928.4394.6464T14 5zm9.4043 8.6468h1.1475q.4467 0 .8408.1415c.2402.0857.4658.2104.6777.3742q.2916.2258.4981.5132c.1475.2052.2617.4339.3437.6861s.1241.5046.125.7572c.002.2359-.0322.472-.1015.7082-.0752.2567-.1836.4901-.3272.7001q-.2358.347-.5976.6094l-.9287.6746.3545 1.0915c.0927.283.1337.5644.1259.8443q-.0117.3813-.1465.7588a2.47 2.47 0 0 1-.3349.6326q-.2239.3054-.5459.5392c-.2149.1559-.4414.2735-.6817.3528a2.47 2.47 0 0 1-.705.1223c-.2666.008-.5225-.0236-.7666-.0949q-.4029-.1179-.7647-.3801l-.9277-.6746-.9287.6746c-.2412.1748-.4952.3015-.7647.3801-.2441.0713-.499.1029-.7666.0949a2.47 2.47 0 0 1-.7051-.1223c-.2402-.0793-.4668-.1969-.6816-.3528-.2149-.1559-.3965-.3356-.5459-.5392a2.47 2.47 0 0 1-.334-.6326c-.0908-.2517-.1396-.5047-.1475-.7588q-.0117-.4198.126-.8443l.3545-1.0915-.9287-.6746q-.3604-.2623-.5977-.6094c-.1435-.2101-.2519-.4434-.3271-.7001a2.47 2.47 0 0 1-.1016-.7082c.001-.2526.043-.5051.125-.7572.0821-.2522.1963-.4809.3438-.6861a2.46 2.46 0 0 1 .499-.5132c.2109-.1636.4365-.2883.6758-.374.2637-.0944.5449-.1417.8418-.1417h1.1475l.3554-1.0916c.0918-.2829.2227-.5351.3946-.7567.1552-.2012.3437-.377.5644-.5276a2.47 2.47 0 0 1 .6426-.3154q.3603-.1152.7588-.1152c.2549 0 .498.0356.7314.1067.0088.0028.0186.0056.0274.0085a2.47 2.47 0 0 1 .6416.3154c.2207.1506.4092.3264.5644.5276q.2578.3324.3955.7567zm-1.1025 1.9999a.483.483 0 0 1-.459-.333l-.6953-2.1404c-.1445-.444-.7725-.444-.917 0l-.6953 2.1404a.482.482 0 0 1-.458.333h-.8135l-1.4375.0001c-.4668 0-.6611.5974-.2832.8719l1.8203 1.3229a.482.482 0 0 1 .1758.5388l-.6953 2.1404c-.1446.444.3633.8133.7412.5389l1.8213-1.3228a.482.482 0 0 1 .5664 0l1.8203 1.3228c.3779.2744.8857-.0949.7422-.5389l-.6953-2.1404a.482.482 0 0 1 .1748-.5388l1.8203-1.3229c.3779-.2745.1836-.8719-.2832-.8719l-1.4375-.0001z"/></svg>