<svg xmlns="http://www.w3.org/2000/svg" width="24" height="24" fill="none" viewBox="0 0 24 24"><path fill="#000" fill-rule="evenodd" d="M12 4a24 24 0 0 0-1.0231.0214c-.5518.0233-.9802.4895-.957 1.0413.0233.5518.4895.9802 1.0413.957a22.3 22.3 0 0 1 1.8777 0c.5517.0232 1.0179-.4052 1.0412-.957s-.4052-1.018-.957-1.0413A24 24 0 0 0 12 4M8.0536 6.3726c.5413-.1094.8915-.637.782-1.1783-.1094-.5414-.6369-.8915-1.1782-.7821-.7263.1468-1.4069.3307-2.0253.5483-.521.1833-.7947.7542-.6114 1.2752s.7542.7947 1.2752.6114c.5198-.1829 1.1097-.3436 1.7577-.4745m8.289-1.9604c-.5413-.1094-1.0688.2407-1.1782.782-.1095.5414.2407 1.069.782 1.1784.648.131 1.2379.2916 1.7577.4745.521.1833 1.0919-.0904 1.2752-.6114s-.0904-1.092-.6114-1.2752c-.6184-.2176-1.299-.4015-2.0253-.5483M4.1316 8.156c.3149-.4538.2023-1.0769-.2515-1.3917s-1.0768-.2022-1.3916.2515C2.1922 7.4428 2 7.9444 2 8.5s.1922 1.0572.4885 1.4842c.3148.4537.9379.5663 1.3916.2515s.5664-.9379.2515-1.3917C4.0236 8.6882 4 8.577 4 8.5s.0235-.1882.1316-.344m17.3799-1.1402c-.3148-.4537-.9379-.5663-1.3916-.2515s-.5664.9379-.2515 1.3917c.1081.1558.1316.267.1316.344s-.0235.1882-.1316.344c-.3149.4538-.2023 1.0769.2515 1.3917s1.0768.2022 1.3916-.2515C21.8078 9.5572 22 9.0556 22 8.5s-.1922-1.0572-.4885-1.4842M6.2959 10.153c-.521-.1833-1.092.0904-1.2752.6114-.1833.521.0904 1.0919.6114 1.2752.6184.2176 1.299.4015 2.0253.5483.5413.1094 1.0688-.2407 1.1782-.7821.1095-.5413-.2407-1.0689-.782-1.1783-.648-.1309-1.2379-.2916-1.7577-.4745m12.072 1.8866c.521-.1833.7947-.7542.6114-1.2752s-.7542-.7947-1.2752-.6114c-.5198.1829-1.1097.3436-1.7577.4745-.5413.1094-.8915.637-.782 1.1783.1094.5414.6369.8915 1.1782.7821.7263-.1468 1.4069-.3307 2.0253-.5483M4 11.6429c0-.5523-.4477-1-1-1s-1 .4477-1 1v1.7142c0 .5523.4477 1 1 1s1-.4477 1-1zm18 0c0-.5523-.4477-1-1-1s-1 .4477-1 1v1.7142c0 .5523.4477 1 1 1s1-.4477 1-1zm-8.9769 1.3357c.5518-.0233.9802-.4895.957-1.0413-.0233-.5518-.4895-.9802-1.0412-.957a22.3 22.3 0 0 1-1.8777 0c-.5518-.0232-1.018.4052-1.0413.957s.4052 1.018.957 1.0413a24.4 24.4 0 0 0 2.0462 0M21 15.1429c.5523 0 1 .4477 1 1V17c0 .6084-.2697 1.1225-.6248 1.521-.3674.4123-.9995.4487-1.4119.0812s-.4487-.9995-.0812-1.4118c.0642-.0721.0939-.1245.107-.1543a.15.15 0 0 0 .0099-.0285l.0008-.0047L20 17v-.8571c0-.5523.4477-1 1-1m-17 1c0-.5523-.4477-1-1-1s-1 .4477-1 1V17c0 .6084.2697 1.1225.6248 1.521.3674.4123.9995.4487 1.4119.0812s.4487-.9995.0812-1.4118c-.0642-.0721-.094-.1245-.107-.1543a.16.16 0 0 1-.0099-.0285A.04.04 0 0 1 4 17zm2.3745 2.161c-.5304-.1538-1.085.1515-1.2389.682-.1538.5304.1515 1.0851.682 1.2389.6055.1756 1.269.3241 1.9756.4427.5446.0914 1.0603-.2761 1.1517-.8207s-.2761-1.0603-.8208-1.1517c-.6408-.1076-1.2278-.2399-1.7496-.3912m11.8079 1.9209c.5305-.1538.8358-.7085.682-1.2389-.1538-.5305-.7085-.8358-1.2389-.682-.5218.1513-1.1088.2836-1.7496.3912-.5447.0914-.9121.607-.8207 1.1517.0913.5446.607.9121 1.1517.8207.7065-.1186 1.37-.2671 1.9755-.4427m-7.102-1.2409c-.5519-.0194-1.0151.4124-1.0345.9643s.4123 1.0151.9643 1.0345a28.3 28.3 0 0 0 1.9796 0c.552-.0194.9837-.4826.9643-1.0345s-.4826-.9837-1.0345-.9643q-.4532.016-.9196.0161t-.9196-.0161"/></svg>