<svg width="24" height="24" viewBox="0 0 24 24" fill="none" xmlns="http://www.w3.org/2000/svg">
<path d="M6.5 6C6.22386 6 6 6.22386 6 6.5V7.5C6 7.77614 6.22386 8 6.5 8H7.5C7.77614 8 8 7.77614 8 7.5V6.5C8 6.22386 7.77614 6 7.5 6H6.5Z" fill="black"/>
<path fill-rule="evenodd" clip-rule="evenodd" d="M5.5 3C4.11929 3 3 4.11929 3 5.5V8.5C3 9.88071 4.11929 11 5.5 11H8.5C9.88071 11 11 9.88071 11 8.5V5.5C11 4.11929 9.88071 3 8.5 3H5.5ZM5 5.5C5 5.22386 5.22386 5 5.5 5H8.5C8.77614 5 9 5.22386 9 5.5V8.5C9 8.77614 8.77614 9 8.5 9H5.5C5.22386 9 5 8.77614 5 8.5V5.5Z" fill="black"/>
<path fill-rule="evenodd" clip-rule="evenodd" d="M15.5 3C14.1193 3 13 4.11929 13 5.5V8.5C13 9.88071 14.1193 11 15.5 11H18.5C19.8807 11 21 9.88071 21 8.5V5.5C21 4.11929 19.8807 3 18.5 3H15.5ZM15 5.5C15 5.22386 15.2239 5 15.5 5H18.5C18.7761 5 19 5.22386 19 5.5V8.5C19 8.77614 18.7761 9 18.5 9H15.5C15.2239 9 15 8.77614 15 8.5V5.5Z" fill="black"/>
<path fill-rule="evenodd" clip-rule="evenodd" d="M3 15.5C3 14.1193 4.11929 13 5.5 13H8.5C9.88071 13 11 14.1193 11 15.5V18.5C11 19.8807 9.88071 21 8.5 21H5.5C4.11929 21 3 19.8807 3 18.5V15.5ZM5.5 15C5.22386 15 5 15.2239 5 15.5V18.5C5 18.7761 5.22386 19 5.5 19H8.5C8.77614 19 9 18.7761 9 18.5V15.5C9 15.2239 8.77614 15 8.5 15H5.5Z" fill="black"/>
<path d="M13 13.5C13 13.2239 13.2239 13 13.5 13H14.5C14.7761 13 15 13.2239 15 13.5V14.5C15 14.7761 14.7761 15 14.5 15H13.5C13.2239 15 13 14.7761 13 14.5V13.5Z" fill="black"/>
<path d="M15.5 15C15.2239 15 15 15.2239 15 15.5V16.5C15 16.7761 15.2239 17 15.5 17H16.5C16.7761 17 17 16.7761 17 16.5V15.5C17 15.2239 16.7761 15 16.5 15H15.5Z" fill="black"/>
<path d="M13 17.5C13 17.2239 13.2239 17 13.5 17H14.5C14.7761 17 15 17.2239 15 17.5V18.5C15 18.7761 14.7761 19 14.5 19H13.5C13.2239 19 13 18.7761 13 18.5V17.5Z" fill="black"/>
<path d="M15.5 19C15.2239 19 15 19.2239 15 19.5V20.5C15 20.7761 15.2239 21 15.5 21H16.5C16.7761 21 17 20.7761 17 20.5V19.5C17 19.2239 16.7761 19 16.5 19H15.5Z" fill="black"/>
<path d="M17 13.5C17 13.2239 17.2239 13 17.5 13H18.5C18.7761 13 19 13.2239 19 13.5V14.5C19 14.7761 18.7761 15 18.5 15H17.5C17.2239 15 17 14.7761 17 14.5V13.5Z" fill="black"/>
<path d="M19.5 15C19.2239 15 19 15.2239 19 15.5V16.5C19 16.7761 19.2239 17 19.5 17H20.5C20.7761 17 21 16.7761 21 16.5V15.5C21 15.2239 20.7761 15 20.5 15H19.5Z" fill="black"/>
<path d="M17 17.5C17 17.2239 17.2239 17 17.5 17H18.5C18.7761 17 19 17.2239 19 17.5V18.5C19 18.7761 18.7761 19 18.5 19H17.5C17.2239 19 17 18.7761 17 18.5V17.5Z" fill="black"/>
<path d="M19.5 19C19.2239 19 19 19.2239 19 19.5V20.5C19 20.7761 19.2239 21 19.5 21H20.5C20.7761 21 21 20.7761 21 20.5V19.5C21 19.2239 20.7761 19 20.5 19H19.5Z" fill="black"/>
</svg>
