<svg width="24" height="24" viewBox="0 0 24 24" fill="none" xmlns="http://www.w3.org/2000/svg">
<path d="M4.5 7.5C5.32843 7.5 6 6.82843 6 6C6 5.17157 5.32843 4.5 4.5 4.5C3.67157 4.5 3 5.17157 3 6C3 6.82843 3.67157 7.5 4.5 7.5Z" fill="black"/>
<path d="M9 5C8.44772 5 8 5.44772 8 6C8 6.55228 8.44772 7 9 7H21C21.5523 7 22 6.55228 22 6C22 5.44772 21.5523 5 21 5H9Z" fill="black"/>
<path d="M9 11C8.44772 11 8 11.4477 8 12C8 12.5523 8.44772 13 9 13H21C21.5523 13 22 12.5523 22 12C22 11.4477 21.5523 11 21 11H9Z" fill="black"/>
<path d="M9 17C8.44772 17 8 17.4477 8 18C8 18.5523 8.44772 19 9 19H21C21.5523 19 22 18.5523 22 18C22 17.4477 21.5523 17 21 17H9Z" fill="black"/>
<path d="M6 12C6 12.8284 5.32843 13.5 4.5 13.5C3.67157 13.5 3 12.8284 3 12C3 11.1716 3.67157 10.5 4.5 10.5C5.32843 10.5 6 11.1716 6 12Z" fill="black"/>
<path d="M4.5 19.5C5.32843 19.5 6 18.8284 6 18C6 17.1716 5.32843 16.5 4.5 16.5C3.67157 16.5 3 17.1716 3 18C3 18.8284 3.67157 19.5 4.5 19.5Z" fill="black"/>
</svg>
