<svg xmlns="http://www.w3.org/2000/svg" width="24" height="24" fill="none" viewBox="0 0 24 24"><path fill="#000" fill-rule="evenodd" d="M6 6c0 .8284-.6716 1.5-1.5 1.5S3 6.8284 3 6s.6716-1.5 1.5-1.5S6 5.1716 6 6m2 0c0-.5523.4477-1 1-1h12c.5523 0 1 .4477 1 1s-.4477 1-1 1H9c-.5523 0-1-.4477-1-1m-3.5 7.5c.8284 0 1.5-.6716 1.5-1.5s-.6716-1.5-1.5-1.5S3 11.1716 3 12s.6716 1.5 1.5 1.5M9 11c-.5523 0-1 .4477-1 1s.4477 1 1 1h12c.5523 0 1-.4477 1-1s-.4477-1-1-1zm-3 7c0 .8284-.6716 1.5-1.5 1.5S3 18.8284 3 18s.6716-1.5 1.5-1.5S6 17.1716 6 18m3-1c-.5523 0-1 .4477-1 1s.4477 1 1 1h12c.5523 0 1-.4477 1-1s-.4477-1-1-1z"/></svg>