<svg width="24" height="24" viewBox="0 0 24 24" fill="none" xmlns="http://www.w3.org/2000/svg">
<path d="M12 15.9951C14.2091 15.9951 16 14.2043 16 11.9951C16 9.78598 14.2091 7.99512 12 7.99512C9.79086 7.99512 8 9.78598 8 11.9951C8 14.2043 9.79086 15.9951 12 15.9951Z" fill="black"/>
<path fill-rule="evenodd" clip-rule="evenodd" d="M12 4.99512C8.13401 4.99512 5 8.12912 5 11.9951C5 15.8611 8.13401 18.9951 12 18.9951C15.866 18.9951 19 15.8611 19 11.9951C19 8.12912 15.866 4.99512 12 4.99512ZM7 11.9951C7 9.23369 9.23858 6.99512 12 6.99512C14.7614 6.99512 17 9.23369 17 11.9951C17 14.7565 14.7614 16.9951 12 16.9951C9.23858 16.9951 7 14.7565 7 11.9951Z" fill="black"/>
</svg>
