<svg width="24" height="24" viewBox="0 0 24 24" fill="none" xmlns="http://www.w3.org/2000/svg">
<path d="M12 16.312C14.2091 16.312 16 14.5212 16 12.312C16 10.1029 14.2091 8.31201 12 8.31201C9.79086 8.31201 8 10.1029 8 12.312C8 14.5212 9.79086 16.312 12 16.312Z" fill="black"/>
<path fill-rule="evenodd" clip-rule="evenodd" d="M22 12.312C22 17.8349 17.5228 22.312 12 22.312C6.47715 22.312 2 17.8349 2 12.312C2 6.78916 6.47715 2.31201 12 2.31201C17.5228 2.31201 22 6.78916 22 12.312ZM20 12.312C20 16.7303 16.4183 20.312 12 20.312C7.58172 20.312 4 16.7303 4 12.312C4 7.89373 7.58172 4.31201 12 4.31201C16.4183 4.31201 20 7.89373 20 12.312Z" fill="black"/>
</svg>
