<svg xmlns="http://www.w3.org/2000/svg" width="24" height="24" fill="none" viewBox="0 0 24 24"><path fill="#000" fill-rule="evenodd" d="M17.3047 4.1072q-.628-.2605-1.3639-.2605-.736 0-1.3639.2605h-.0002q-.6236.2587-1.1407.7744-.5212.5197-.7809 1.1477-.258.6237-.258 1.3542t.258 1.3541v.0002q.2598.6278.7809 1.1475.517.5157 1.1409.7745.6279.2604 1.3639.2604t1.3639-.2604l.0001-.0001h.0001q.6236-.2587 1.1407-.7744.5211-.5197.7809-1.1477.258-.6237.258-1.3541t-.2579-1.354l-.0001-.0002q-.2598-.628-.7809-1.1477-.5172-.5158-1.1409-.7744M7.8353 3.869q.736 0 1.364.2605.6237.2587 1.1408.7745.5212.5197.7809 1.1476h.0001q.2579.6238.2579 1.3542T11.121 8.76q-.2597.6279-.7809 1.1476-.517.5158-1.1409.7745-.6279.2605-1.3639.2605t-1.3638-.2605h-.0001q-.6238-.2587-1.1409-.7744-.5211-.5197-.7808-1.1476V8.76h-.0001q-.258-.6238-.258-1.3542t.258-1.3542q.2598-.6279.781-1.1476.517-.5158 1.1408-.7745.628-.2605 1.364-.2605m3.8565 8.5773q-.7071-.293-1.5356-.2929h-4q-.8283 0-1.5355.2929-.7071.2928-1.2929.8787-.5857.5857-.8787 1.2928-.2929.7072-.2929 1.5356v2q0 .4141.1465.7677.1404.339.4154.6222.0245.0253.0498.0497.2826.274.6206.4139.3355.139.7258.1461.021.0004.042.0004h7.9999q.0227 0 .0452-.0005.3884-.0075.7226-.146.338-.14.6206-.4138a2 2 0 0 0 .0498-.0498q.275-.2832.4154-.6222.1464-.3534.1464-.7677v-2q0-.8284-.2928-1.5356-.293-.707-.8787-1.2928t-1.2929-.8787m3.9399 7.7071h4.2119q.4142 0 .7678-.1465.3535-.1464.6464-.4393t.4394-.6465.1464-.7677v-2q0-.8284-.2929-1.5355v-.0001q-.293-.707-.8787-1.2928t-1.2929-.8787q-.707-.293-1.5355-.2929H14.63q.7074.7804 1.087 1.6967.4393 1.0608.4393 2.3033v2q0 .8285-.2929 1.5356a3.7 3.7 0 0 1-.2316.4644"/></svg>