<svg xmlns="http://www.w3.org/2000/svg" width="24" height="24" fill="none" viewBox="0 0 24 24"><path fill="#000" fill-rule="evenodd" d="M5.4628 3.0667q.628-.2605 1.364-.2605t1.3637.2605h.0002q.6237.2587 1.1408.7745.5212.5196.7809 1.1476.258.6237.2581 1.3542t-.2581 1.3541v.0001q-.2596.628-.7809 1.1476-.517.5158-1.1408.7745h-.0001l-.0003.0001q-.6278.2604-1.3635.2604-.736 0-1.364-.2605-.6236-.2587-1.1409-.7745-.5211-.5197-.7809-1.1476-.258-.6237-.258-1.3542t.258-1.3542q.2598-.628.7809-1.1476.5173-.5158 1.1409-.7745m9.7822-.2382q-.736 0-1.364.2605-.6236.2588-1.1409.7745-.5211.5197-.7809 1.1476-.258.6239-.2579 1.3542 0 .7305.2579 1.3542.2598.628.7809 1.1477.5173.5158 1.1409.7744.628.2605 1.364.2605.7359 0 1.3639-.2604.6237-.2588 1.1409-.7745.5211-.5197.7808-1.1477.258-.6237.2581-1.3542t-.2581-1.3542q-.2597-.6279-.7808-1.1476-.5172-.5158-1.1409-.7745-.628-.2605-1.3639-.2605M7.4242 4.9208q-.2748-.1145-.5974-.1145t-.5974.1145q-.2709.1128-.4951.3366-.2275.2267-.3401.5005-.1111.2698-.1111.5852t.111.5851q.1128.274.3402.5006.2231.2226.4923.3354l.0028.0012q.2748.1145.5974.1145t.5974-.1145q.2706-.1128.4951-.3366.2273-.2267.3401-.5005.111-.2699.111-.5852 0-.3155-.111-.5852-.1128-.2738-.34-.5005-.2246-.2238-.4952-.3366m7.8208-.0922q.3225 0 .5974.1146.2707.1127.4951.3365.2273.2267.3401.5006.111.2697.1111.5851 0 .3155-.1111.5852-.1128.2739-.3401.5006-.2244.2237-.4951.3365-.2748.1145-.5974.1145t-.5974-.1145l-.0028-.0012q-.2692-.1127-.4923-.3354-.2274-.2267-.3401-.5005-.1111-.2697-.1111-.5852 0-.3154.1111-.5851.1128-.274.3401-.5006.2242-.2238.4951-.3365.2748-.1146.5974-.1146M2.324 19.397h5.1026a3.7 3.7 0 0 1-.2185-.4418q-.2928-.7071-.2928-1.5356v-.0226H2.324v-2.3609q0-.4143.1465-.7678.1463-.3536.4393-.6464.2929-.293.6464-.4394.3536-.1464.7678-.1464h2.9153a5.6 5.6 0 0 1 .1153-.3033q.3795-.9163 1.087-1.6967H4.324q-.828 0-1.5347.2925l-.0008.0003v.0001q-.7072.2928-1.2929.8786-.5859.5859-.8788 1.2929-.2928.7071-.2928 1.5356v2.3609q0 .4137.146.767l.0005.0008q.1463.3536.4393.6464.293.2929.6463.4394.3537.1464.7679.1464m15.914-8.2974a4.03 4.03 0 0 0-.714-.0635h-4.6087c-2.2091 0-4 1.7908-4 4v2.3835c0 1.1046.8954 2 2 2h3.3591a3 3 0 0 1 .0563-.2025l.1238-.3964-.3002-.2268q-.4092-.3091-.6764-.7123a2.8 2.8 0 0 1-.2466-.462h-2.316v-2.3835c0-1.1046.8954-2 2-2h3.347l.0027-.0087q.1641-.5251.481-.9312.2528-.3239.6029-.572.3592-.2546.7589-.3855a3 3 0 0 1 .1302-.0391m1.5883 2.5245c-.1138-.3641-.3945-.5689-.6962-.6144a.87.87 0 0 0-.3102.0091c-.2822.0597-.5387.2614-.6461.6053L17.825 14.74c-.1163.3721-.4499.624-.8261.624l-1.1285.0002c-.8416 0-1.1914 1.1196-.5107 1.6339l.913.6897c.3044.23.4318.6377.3156 1.0099l-.151.4833-.1978.6325c-.26.8322.6561 1.5242 1.337 1.0099l.9129-.6896a.842.842 0 0 1 1.0212 0l.913.6896c.6808.5143 1.5968-.1777 1.3368-1.0099l-.3487-1.1158c-.1162-.3722.0113-.7799.3157-1.0099l.9129-.6896c.6807-.5144.3309-1.634-.5108-1.634l-.6055-.0001-.5228-.0001h-.0001a.8.8 0 0 1-.1079-.0069c-.3309-.043-.613-.281-.7182-.6171l-.1271-.4072-.003-.0092z"/></svg>