<svg xmlns="http://www.w3.org/2000/svg" width="24" height="24" fill="none" viewBox="0 0 24 24"><path fill="#000" fill-rule="evenodd" d="M15.2266 3.2664c.5522 0 1 .4477 1 1v3.5179l3.0466-1.759c.4783-.2761 1.0899-.1122 1.366.366.2762.4784.1123 1.09-.366 1.366l-3.0466 1.759 3.0466 1.759c.4783.2762.6422.8878.366 1.3661s-.8877.6421-1.366.366l-3.0466-1.759v3.518c0 .5522-.4478 1-1 1s-1-.4478-1-1v-3.518l-3.0467 1.759c-.4783.2761-1.0899.1123-1.366-.366s-.1123-1.0899.366-1.3661l3.0467-1.759-3.0467-1.759c-.4783-.276-.6421-.8876-.366-1.366.2761-.4782.8877-.6421 1.366-.366l3.0467 1.759v-3.518c0-.5522.4477-1 1-1M6.6938 19c0 .9575-.7761 1.7336-1.7336 1.7336S3.2266 19.9575 3.2266 19s.7761-1.7336 1.7336-1.7336S6.6938 18.0425 6.6938 19"/></svg>