<svg xmlns="http://www.w3.org/2000/svg" width="24" height="24" fill="none" viewBox="0 0 24 24"><path d="M24 0H0v24h24z"/><path fill="#000" fill-rule="evenodd" d="M24 12.5c0-2.4853-2.0147-4.5-4.5-4.5-1.9593 0-3.6262 1.2522-4.2439 3H8.7439C8.1262 9.2522 6.4593 8 4.5 8 2.0147 8 0 10.0147 0 12.5S2.0147 17 4.5 17c2.3163 0 4.2238-1.75 4.4725-4h6.055c.2487 2.25 2.1562 4 4.4725 4 2.4853 0 4.5-2.0147 4.5-4.5M19.5 10c1.3807 0 2.5 1.1193 2.5 2.5S20.8807 15 19.5 15 17 13.8807 17 12.5s1.1193-2.5 2.5-2.5m-15 0C5.8807 10 7 11.1193 7 12.5S5.8807 15 4.5 15 2 13.8807 2 12.5 3.1193 10 4.5 10"/></svg>