<svg width="24" height="24" viewBox="0 0 24 24" fill="none" xmlns="http://www.w3.org/2000/svg">
<path fill-rule="evenodd" clip-rule="evenodd" d="M24 13.3501C24 10.8648 21.9853 8.8501 19.5 8.8501C17.5407 8.8501 15.8738 10.1023 15.2561 11.8501H8.74394C8.12619 10.1023 6.45933 8.8501 4.5 8.8501C2.01472 8.8501 0 10.8648 0 13.3501C0 15.8354 2.01472 17.8501 4.5 17.8501C6.81628 17.8501 8.72381 16.1001 8.97254 13.8501H15.0275C15.2762 16.1001 17.1837 17.8501 19.5 17.8501C21.9853 17.8501 24 15.8354 24 13.3501ZM19.5 10.8501C20.8807 10.8501 22 11.9694 22 13.3501C22 14.7308 20.8807 15.8501 19.5 15.8501C18.1193 15.8501 17 14.7308 17 13.3501C17 11.9694 18.1193 10.8501 19.5 10.8501ZM4.5 10.8501C5.88071 10.8501 7 11.9694 7 13.3501C7 14.7308 5.88071 15.8501 4.5 15.8501C3.11929 15.8501 2 14.7308 2 13.3501C2 11.9694 3.11929 10.8501 4.5 10.8501Z" fill="black"/>
</svg>
