<svg xmlns="http://www.w3.org/2000/svg" width="24" height="24" fill="none" viewBox="0 0 24 24"><path fill="#000" d="M18.4643 7c-1.4877-1.8277-3.7739-3-6.3414-3C7.6239 4 4 7.5945 4 12s3.624 8 8.1229 8c3.8472 0 7.0594-2.6317 7.9048-6.1499.129-.537.6689-.8677 1.2059-.7387s.8678.669.7387 1.206C20.9118 18.7309 16.8984 22 12.1229 22 6.545 22 2 17.5356 2 12S6.545 2 12.1229 2C15.3028 2 18.1433 3.4493 20 5.7188V4c0-.5523.4477-1 1-1s1 .4477 1 1v4c0 .5523-.4477 1-1 1h-4c-.5523 0-1-.4477-1-1s.4477-1 1-1z"/></svg>