<svg xmlns="http://www.w3.org/2000/svg" width="24" height="24" fill="none" viewBox="0 0 24 24"><path fill="#000" d="M11.877 4C9.31 4 7.024 5.172 5.536 7H7c.552 0 1 .448 1 1s-.448 1-1 1H3c-.552 0-1-.448-1-1V4c0-.552.448-1 1-1s1 .448 1 1v1.719C5.857 3.449 8.697 2 11.877 2 17.455 2 22 6.464 22 12c0 1.667-.412 3.237-1.14 4.617l-1.5-1.5A7.87 7.87 0 0 0 20 12c0-4.405-3.624-8-8.123-8m3.226 15.345c-.988.421-2.078.655-3.225.655-3.847 0-7.059-2.632-7.905-6.15-.129-.537-.669-.868-1.206-.739s-.868.669-.739 1.206C3.088 18.731 7.102 22 11.877 22c1.705 0 3.314-.417 4.726-1.155z"/><path fill="#000" fill-rule="evenodd" d="M17.1718 15.7574c.5236-.7904.8284-1.7383.8284-2.7574 0-2.7614-2.2385-5-5-5s-5 2.2386-5 5 2.2386 5 5 5c1.0191 0 1.967-.3049 2.7574-.8284l4.5355 4.5355c.3905.3905 1.0237.3905 1.4142 0 .3906-.3905.3906-1.0237 0-1.4142zM10.0002 13c0-1.6569 1.3432-3 3-3s3 1.3431 3 3-1.3431 3-3 3-3-1.3431-3-3" clip-rule="evenodd"/></svg>