<svg xmlns="http://www.w3.org/2000/svg" width="24" height="24" fill="none" viewBox="0 0 24 24"><path fill="#000" fill-rule="evenodd" d="M4 6.0541C4 5.4471 4.4727 5 5.0012 5h4.0677c.3197 0 .632.1287.868.367l1.3704 1.383c.1878.1895.4436.2962.7104.2962h6.9811c.5285 0 1.0012.4471 1.0012 1.0541v5.0958c.5698-.5043 1.2854-.7548 2-.7515V8.1004c0-1.662-1.3192-3.0541-3.0012-3.0541h-6.5642l-1.077-1.087C10.7516 3.3476 9.9301 3 9.0689 3H5.0012C3.3192 3 2 4.3922 2 6.0541V17.946C2 19.6078 3.3192 21 5.0012 21h8.4199c.0023-.7167.2599-1.4327.7726-2H5.0012C4.4727 19 4 18.5528 4 17.9459zm11.7139 8.6835c.3905-.3906 1.0237-.3906 1.4142 0l2.0755 2.0755 2.0755-2.0755c.3905-.3906 1.0237-.3906 1.4142 0s.3905 1.0237 0 1.4142l-2.0755 2.0755 2.0755 2.0754c.3905.3905.3905 1.0237 0 1.4142s-1.0237.3905-1.4143 0l-2.0754-2.0754-2.0754 2.0754c-.3905.3905-1.0237.3905-1.4142 0s-.3905-1.0237 0-1.4142l2.0754-2.0754-2.0755-2.0755c-.3905-.3905-.3905-1.0237 0-1.4142"/></svg>