<svg xmlns="http://www.w3.org/2000/svg" width="24" height="24" fill="none" viewBox="0 0 24 24"><path fill="#000" fill-rule="evenodd" d="M6 3C4.3431 3 3 4.3431 3 6v8c0 1.6569 1.3431 3 3 3h2.9985v1.9901H8c-.5523 0-1 .4478-1 1s.4477 1 1 1h8c.5523 0 1-.4477 1-1s-.4477-1-1-1h-.9985V17H18c1.6569 0 3-1.3431 3-3V6c0-1.6569-1.3431-3-3-3zm12 2H6c-.5523 0-1 .4477-1 1v8c0 .5523.4477 1 1 1h12c.5523 0 1-.4477 1-1V6c0-.5523-.4477-1-1-1m-9.1566 5.5374-.0016.0025c-.2961.4618-.9099.5991-1.3749.3062-.4673-.2945-.6074-.912-.313-1.3792l.0011-.0017.0012-.002.0028-.0043.0071-.011.0202-.0303a3 3 0 0 1 .0647-.092 4.6 4.6 0 0 1 .23-.2894 5.8 5.8 0 0 1 .8863-.8322C9.162 7.5997 10.3693 7 12 7s2.838.5997 3.6327 1.204c.3946.3.6882.6013.8864.8322a4.7 4.7 0 0 1 .2299.2893 3 3 0 0 1 .0849.1225l.0071.011.0028.0043.0012.0019.0005.0009c.2944.4672.1549 1.0855-.3124 1.38-.465.2929-1.0787.1556-1.3748-.3062l-.0017-.0025a1 1 0 0 0-.0246-.0348 2.6 2.6 0 0 0-.1305-.1637 3.8 3.8 0 0 0-.5794-.5429C13.9018 9.4003 13.1091 9 12 9s-1.9018.4003-2.4221.796c-.263.2-.4557.3988-.5794.5429a2.6 2.6 0 0 0-.1305.1637 1 1 0 0 0-.0246.0348m4.3199 2.0103c.298.4556.9074.5897 1.3698.2984.4673-.2945.6069-.9127.3124-1.38l-.0005-.0009-.0011-.0017-.0025-.0039-.0056-.0087-.0147-.022a2 2 0 0 0-.0424-.0604 2.8 2.8 0 0 0-.1398-.1761 3.4 3.4 0 0 0-.5199-.4884C13.6531 10.3497 12.9458 10 12 10s-1.6531.3497-2.119.704a3.4 3.4 0 0 0-.52.4884 2.8 2.8 0 0 0-.1397.1761 2 2 0 0 0-.0424.0604l-.0147.022-.0056.0087-.0025.0039-.0011.0017-.001.0017c-.2945.4673-.1544 1.0847.3129 1.3792.4624.2913 1.0718.1572 1.3698-.2984l.0015-.0021a.8.8 0 0 1 .0404-.0505 1.4 1.4 0 0 1 .213-.1991c.1916-.1457.4843-.296.9084-.296s.7168.1503.9084.296c.0986.075.1697.1488.213.1991a.8.8 0 0 1 .0404.0505zm-2.3266 0-.0013.0019.0006-.0009.0029-.0044zm4.0088-1.0816-.8379.5291c.8373-.5276.8382-.5287.8379-.5291m-1.844 7.524V17h-2.003v1.9901z"/></svg>