<svg xmlns="http://www.w3.org/2000/svg" width="24" height="24" fill="none" viewBox="0 0 24 24"><path fill="#000" d="M5.125 17.783C3.799 16.203 3 14.159 3 11.928c0-4.452 3.181-8.155 7.377-8.925V8.97c0 1.955-.57 3.867-1.639 5.498l-.118.18a9.15 9.15 0 0 1-3.495 3.137M13.611 3v5.969c0 1.955.57 3.867 1.639 5.498l.118.18a9.147 9.147 0 0 0 3.504 3.141c1.328-1.581 2.129-3.626 2.129-5.859 0-4.456-3.187-8.162-7.389-8.927m2.634 16.927-.733-.576c-1.634-1.283-2.86-3.02-3.527-4.997-.654 1.974-1.871 3.709-3.5 4.989l-.739.58C9.013 20.611 10.462 21 12 21c1.535 0 2.981-.388 4.246-1.071"/></svg>