<svg width="24" height="24" viewBox="0 0 24 24" fill="none" xmlns="http://www.w3.org/2000/svg">
<path d="M5.12486 17.7829C3.79908 16.2027 2.99976 14.1592 2.99976 11.9275C2.99976 7.47538 6.18111 3.77224 10.3772 3.00214V8.9691C10.3772 10.924 9.80713 12.8358 8.73782 14.4667L8.6201 14.6463C7.74473 15.9814 6.53958 17.062 5.12486 17.7829Z" fill="black"/>
<path d="M13.6106 3V8.9691C13.6106 10.924 14.1807 12.8358 15.25 14.4667L15.3677 14.6463C16.2448 15.984 17.4529 17.0662 18.8712 17.787C20.199 16.2062 20.9998 14.1612 20.9998 11.9275C20.9998 7.47125 17.8125 3.76537 13.6106 3Z" fill="black"/>
<path d="M16.2457 19.9289L15.5123 19.3528C13.8785 18.0694 12.6527 16.3326 11.9854 14.3562C11.3316 16.3301 10.1142 18.0656 8.48573 19.3448L7.74688 19.9252C9.01334 20.611 10.4615 21 11.9998 21C13.5352 21 14.9809 20.6124 16.2457 19.9289Z" fill="black"/>
</svg>
