<svg xmlns="http://www.w3.org/2000/svg" width="24" height="24" fill="none" viewBox="0 0 24 24"><path fill="#000" fill-rule="evenodd" d="M13.5 3c0-.5523.4477-1 1-1h1c.5523 0 1 .4477 1 1s-.4477 1-1 1h-1c-.5523 0-1-.4477-1-1M18 3c0-.5523.4477-1 1-1h2c1.1046 0 2 .8954 2 2v2c0 .5523-.4477 1-1 1s-1-.4477-1-1V4h-2c-.5523 0-1-.4477-1-1M7 4c0-1.1046.8954-2 2-2h2c.5523 0 1 .4477 1 1s-.4477 1-1 1H9v3c0 .5523-.4477 1-1 1H6v2h9c1.1046 0 2 .8954 2 2v3h1v-2a.997.997 0 0 1 .2929-.7071A.998.998 0 0 1 19 12h2v-2c0-.5523.4477-1 1-1s1 .4477 1 1v2c0 1.1046-.8954 2-2 2h-1v1c0 1.1046-.8954 2-2 2h-1v2c0 1.1046-.8954 2-2 2H3c-1.1046 0-2-.8954-2-2v-7c0-1.1046.8954-2 2-2h1V8c0-1.1046.8954-2 2-2h1zm4.5 2c-.5523 0-1 .4477-1 1s.4477 1 1 1h1c.5523 0 1-.4477 1-1s-.4477-1-1-1zM16 6c-.5523 0-1 .4477-1 1s.4477 1 1 1h2v2c0 .5523.4477 1 1 1s1-.4477 1-1V8c0-1.1046-.8954-2-2-2zM3 19v-7h12v7z"/></svg>