<svg xmlns="http://www.w3.org/2000/svg" width="24" height="24" fill="none" viewBox="0 0 24 24"><path fill="#000" fill-rule="evenodd" d="m18.7656 4.3597 1.7416.0002q.4459 0 .8407.1414.359.1287.6766.3742a2.47 2.47 0 0 1 .4984.5132q.2212.3078.3441.6861t.1249.7572a2.46 2.46 0 0 1-.1016.7083q-.1122.385-.3272.7-.2366.347-.5977.6094l-1.4083 1.0237.5381 1.6563q.1377.4244.1252.8443-.0113.3812-.1467.7588a2.47 2.47 0 0 1-.334.6326q-.2244.3054-.5463.5392-.3216.2338-.6815.3528a2.42 2.42 0 0 1-.5119.1094v-2.072c.1584-.1098.2549-.3141.1928-.5472l-.1211-.3726-.323-.9943-.1488-.4582-.2858-.88a.482.482 0 0 1 .175-.5389l.7485-.5439.3898-.2832 1.1628-.8448c.3282-.2386.2244-.721-.1147-.8432a.5.5 0 0 0-.1687-.0287l-2.8444-.0002a.482.482 0 0 1-.4582-.333l-.286-.88-.1489-.4582-.4441-1.3669c-.0539-.1656-.1751-.2695-.3134-.3115-.2323-.0707-.513.0331-.6035.3115l-.8791 2.7051a.482.482 0 0 1-.4584.333l-2.8444.0002c-.4594 0-.6548.5789-.3004.8588l.0172.013L12.0007 8H9.0264a2.53 2.53 0 0 1-.1836-.4597 2.47 2.47 0 0 1-.1016-.7083q.002-.3789.125-.7572t.344-.686a2.47 2.47 0 0 1 .4985-.5133q.3171-.2453.6763-.374.3955-.1416.8417-.1416l1.7414-.0002.5382-1.6563q.138-.4243.3949-.7566l.0003-.0004q.2332-.3015.5644-.5273a2.47 2.47 0 0 1 .6421-.3154l.0021-.0007q.3601-.1145.7567-.1145.398 0 .7588.1152.337.1075.6422.3154.3312.2258.5644.5273l.0003.0004q.2569.3322.3948.7566zM5 10h9c1.6568 0 3 1.3431 3 3v6c0 1.6569-1.3432 3-3 3H5c-1.6569 0-3-1.3431-3-3v-6c0-1.6569 1.3431-3 3-3m9.9269 2.6165q.073.1767.0731.3835H4q0-.2068.0731-.3835l.0001-.0004q.0733-.1768.2196-.3232.1466-.1465.3233-.2197Q4.7929 12 5 12h9q.207 0 .3839.0732.1768.0732.3232.2197.1464.1464.2196.3232zM15 15H4v4q0 .2068.0731.3835l.0001.0004q.0733.1768.2196.3232.1466.1465.3233.2197h.0001Q4.793 20 5 20h9q.207 0 .3839-.0732.1768-.0732.3232-.2197.1464-.1464.2196-.3232l.0002-.0004q.073-.1767.0731-.3835zm-5 2H6c-.56 0-1 .44-1 1s.44 1 1 1h4c.56 0 1-.44 1-1s-.44-1-1-1"/></svg>