<svg width="24" height="24" viewBox="0 0 24 24" fill="none" xmlns="http://www.w3.org/2000/svg">
<path fill-rule="evenodd" clip-rule="evenodd" d="M9 2C7.89543 2 7 2.89543 7 4V6H6C4.89543 6 4 6.89543 4 8V10H3C1.89543 10 1 10.8954 1 12V19C1 20.1046 1.89543 21 3 21H15C16.1046 21 17 20.1046 17 19V17H18C19.1046 17 20 16.1046 20 15L20 14H21C22.1046 14 23 13.1046 23 12V10C23 9.44772 22.5523 9 22 9C21.4477 9 21 9.44772 21 10V12H19C18.931 12 18.8636 12.007 18.7985 12.0203C18.6032 12.0603 18.4286 12.1572 18.2929 12.2929C18.1119 12.4738 18 12.7238 18 13L18 15H17V12C17 10.8954 16.1046 10 15 10H6V8L8 8C8.55228 8 9 7.55228 9 7V4H11C11.5523 4 12 3.55228 12 3C12 2.44772 11.5523 2 11 2H9ZM3 12V19H15V12H3Z" fill="black"/>
<path d="M19 2C18.4477 2 18 2.44772 18 3C18 3.55228 18.4477 4 19 4H21V6C21 6.55228 21.4477 7 22 7C22.5523 7 23 6.55228 23 6V4C23 2.89543 22.1046 2 21 2H19Z" fill="black"/>
<path d="M15 7C15 6.44772 15.4477 6 16 6H18C19.1046 6 20 6.89543 20 8V10C20 10.5523 19.5523 11 19 11C18.4477 11 18 10.5523 18 10V8H16C15.4477 8 15 7.55228 15 7Z" fill="black"/>
<path d="M10.5 7C10.5 6.44772 10.9477 6 11.5 6H12.5C13.0523 6 13.5 6.44772 13.5 7C13.5 7.55228 13.0523 8 12.5 8H11.5C10.9477 8 10.5 7.55228 10.5 7Z" fill="black"/>
<path d="M14.5 2C13.9477 2 13.5 2.44772 13.5 3C13.5 3.55228 13.9477 4 14.5 4H15.5C16.0523 4 16.5 3.55228 16.5 3C16.5 2.44772 16.0523 2 15.5 2H14.5Z" fill="black"/>
</svg>
