<svg xmlns="http://www.w3.org/2000/svg" width="24" height="24" fill="none" viewBox="0 0 24 24"><path fill="#000" d="M20.971 6.6703c1.4747 0 2.6702-1.1955 2.6702-2.6703 0-1.4747-1.1955-2.6702-2.6702-2.6702S18.3008 2.5253 18.3008 4c0 .8104.3609 1.5364.9308 2.026l-3.0574 6.0946a2.7 2.7 0 0 0-.5333-.0533c-.4319 0-.8398.1025-1.2007.2846l-1.8243-1.8243a2.66 2.66 0 0 0 .2831-1.1978c0-1.4747-1.1955-2.6702-2.6702-2.6702S7.5586 7.8551 7.5586 9.3298c0 .7909.3438 1.5014.89 1.9903l-3.0333 6.0465a2.7 2.7 0 0 0-.4443-.0368c-1.4747 0-2.6702 1.1955-2.6702 2.6703 0 1.4747 1.1955 2.6702 2.6702 2.6702s2.6702-1.1955 2.6702-2.6702c0-.7843-.338-1.4896-.8765-1.9781l3.038-6.0558a2.7 2.7 0 0 0 .4261.0338c.4984 0 .9648-.1365 1.364-.3742l1.7504 1.7505a2.66 2.66 0 0 0-.3725 1.3612c0 1.4748 1.1955 2.6703 2.6702 2.6703s2.6702-1.1955 2.6702-2.6703c0-.7516-.3105-1.4307-.8104-1.916l3.0988-6.1769a2.7 2.7 0 0 0 .3715.0257"/></svg>