<svg xmlns="http://www.w3.org/2000/svg" width="24" height="24" fill="none" viewBox="0 0 24 24"><path fill="#000" d="M9 8c0-.552-.448-1-1-1s-1 .448-1 1v4c0 .552.448 1 1 1s1-.448 1-1zm8 .5c0-.552-.448-1-1-1s-1 .448-1 1V12c0 .552.448 1 1 1s1-.448 1-1zM13 10c0-.552-.448-1-1-1s-1 .448-1 1v2c0 .552.448 1 1 1s1-.448 1-1z"/><path fill="#000" fill-rule="evenodd" d="M6 3C4.3431 3 3 4.3431 3 6v8c0 1.6569 1.3431 3 3 3h2.9985v1.9901H8c-.5523 0-1 .4478-1 1s.4477 1 1 1h8c.5523 0 1-.4477 1-1s-.4477-1-1-1h-.9985V17H18c1.6569 0 3-1.3431 3-3V6c0-1.6569-1.3431-3-3-3zm12 2H6c-.5523 0-1 .4477-1 1v8c0 .5523.4477 1 1 1h12c.5523 0 1-.4477 1-1V6c0-.5523-.4477-1-1-1m-4.9985 12v1.9901h-2.003V17z" clip-rule="evenodd"/></svg>