<svg width="24" height="24" viewBox="0 0 24 24" fill="none" xmlns="http://www.w3.org/2000/svg">
<path fill-rule="evenodd" clip-rule="evenodd" d="M0 12.8501C0 10.0887 2.23858 7.8501 5 7.8501C7.41896 7.8501 9.43671 9.56786 9.89998 11.8501H16.6022L15.3093 10.5572C14.9187 10.1667 14.9187 9.53352 15.3093 9.14299C15.6998 8.75247 16.333 8.75247 16.7235 9.14299L19.7235 12.143C20.114 12.5335 20.114 13.1667 19.7235 13.5572L16.7235 16.5572C16.333 16.9477 15.6998 16.9477 15.3093 16.5572C14.9187 16.1667 14.9187 15.5335 15.3093 15.143L16.6022 13.8501H9.89998C9.43671 16.1323 7.41896 17.8501 5 17.8501C2.23858 17.8501 0 15.6115 0 12.8501ZM5 9.8501C3.34315 9.8501 2 11.1932 2 12.8501C2 14.507 3.34315 15.8501 5 15.8501C6.65685 15.8501 8 14.507 8 12.8501C8 11.1932 6.65685 9.8501 5 9.8501Z" fill="black"/>
<path d="M21.1377 10.7288L18.3067 7.89778C18.5333 7.86634 18.7647 7.8501 19 7.8501C21.7614 7.8501 24 10.0887 24 12.8501C24 15.6115 21.7614 17.8501 19 17.8501C18.7647 17.8501 18.5333 17.8339 18.3067 17.8024L21.1377 14.9714C22.3093 13.7998 22.3093 11.9003 21.1377 10.7288Z" fill="black"/>
</svg>
