<svg xmlns="http://www.w3.org/2000/svg" width="24" height="24" fill="none" viewBox="0 0 24 24"><path fill="#000" fill-rule="evenodd" d="m18.3067 7.0477 2.831 2.831c1.1716 1.1716 1.1716 3.071 0 4.2426l-2.831 2.831c.2266.0315.4581.0477.6933.0477 2.7614 0 5-2.2386 5-5s-2.2386-5-5-5c-.2352 0-.4667.0162-.6933.0477M5 7c-2.7614 0-5 2.2386-5 5s2.2386 5 5 5c2.419 0 4.4367-1.7178 4.9-4h6.7022l-1.2929 1.2929c-.3906.3905-.3906 1.0237 0 1.4142s1.0237.3905 1.4142 0l3-3c.3905-.3905.3905-1.0237 0-1.4142l-3-3c-.3905-.3905-1.0237-.3905-1.4142 0-.3906.3905-.3906 1.0237 0 1.4142L16.6022 11H9.9C9.4367 8.7178 7.419 7 5 7m-3 5c0-1.6569 1.3431-3 3-3s3 1.3431 3 3-1.3431 3-3 3-3-1.3431-3-3"/></svg>