<svg width="24" height="24" viewBox="0 0 24 24" fill="none" xmlns="http://www.w3.org/2000/svg">
<path fill-rule="evenodd" clip-rule="evenodd" d="M0 12C0 9.23858 2.23858 7 5 7C7.41896 7 9.43671 8.71776 9.89998 11H16.6022L15.3093 9.70711C14.9187 9.31658 14.9187 8.68342 15.3093 8.29289C15.6998 7.90237 16.333 7.90237 16.7235 8.29289L19.7235 11.2929C20.114 11.6834 20.114 12.3166 19.7235 12.7071L16.7235 15.7071C16.333 16.0976 15.6998 16.0976 15.3093 15.7071C14.9187 15.3166 14.9187 14.6834 15.3093 14.2929L16.6022 13H9.89998C9.43671 15.2822 7.41896 17 5 17C2.23858 17 0 14.7614 0 12ZM5 9C3.34315 9 2 10.3431 2 12C2 13.6569 3.34315 15 5 15C6.65685 15 8 13.6569 8 12C8 10.3431 6.65685 9 5 9Z" fill="black"/>
<path d="M21.1377 9.87868L18.3067 7.04768C18.5333 7.01625 18.7647 7 19 7C21.7614 7 24 9.23858 24 12C24 14.7614 21.7614 17 19 17C18.7647 17 18.5333 16.9838 18.3067 16.9523L21.1377 14.1213C22.3093 12.9497 22.3093 11.0503 21.1377 9.87868Z" fill="black"/>
</svg>
