<svg xmlns="http://www.w3.org/2000/svg" width="24" height="24" fill="none" viewBox="0 0 24 24"><path fill="#000" d="M6.7071 4.7071c.3905-.3905.3905-1.0237 0-1.4142s-1.0237-.3905-1.4142 0l-4 4c-.3905.3905-.3905 1.0237 0 1.4142l4 4c.3905.3905 1.0237.3905 1.4142 0s.3905-1.0237 0-1.4142L4.4142 9H9c1.1046 0 2 .8954 2 2v10c0 .5523.4477 1 1 1s1-.4477 1-1V11c0-1.1046.8954-2 2-2h4.5858l-2.2929 2.2929c-.3905.3905-.3905 1.0237 0 1.4142s1.0237.3905 1.4142 0l4-4c.3905-.3905.3905-1.0237 0-1.4142l-4-4c-.3905-.3905-1.0237-.3905-1.4142 0s-.3905 1.0237 0 1.4142L19.5858 7H15c-1.1947 0-2.2671.5238-3 1.3542C11.2671 7.5238 10.1947 7 9 7H4.4142z"/></svg>