<svg width="24" height="24" viewBox="0 0 24 24" fill="none" xmlns="http://www.w3.org/2000/svg">
<path d="M6.70711 4.70711C7.09763 4.31658 7.09763 3.68342 6.70711 3.29289C6.31658 2.90237 5.68342 2.90237 5.29289 3.29289L1.29289 7.29289C0.902369 7.68342 0.902369 8.31658 1.29289 8.70711L5.29289 12.7071C5.68342 13.0976 6.31658 13.0976 6.70711 12.7071C7.09763 12.3166 7.09763 11.6834 6.70711 11.2929L4.41421 9H9C10.1046 9 11 9.89543 11 11V21C11 21.5523 11.4477 22 12 22C12.5523 22 13 21.5523 13 21V11C13 9.89543 13.8954 9 15 9H19.5858L17.2929 11.2929C16.9024 11.6834 16.9024 12.3166 17.2929 12.7071C17.6834 13.0976 18.3166 13.0976 18.7071 12.7071L22.7071 8.70711C23.0976 8.31658 23.0976 7.68342 22.7071 7.29289L18.7071 3.29289C18.3166 2.90237 17.6834 2.90237 17.2929 3.29289C16.9024 3.68342 16.9024 4.31658 17.2929 4.70711L19.5858 7H15C13.8053 7 12.7329 7.52376 12 8.35418C11.2671 7.52376 10.1947 7 9 7H4.41421L6.70711 4.70711Z" fill="black"/>
</svg>
