<svg width="24" height="24" viewBox="0 0 24 24" fill="none" xmlns="http://www.w3.org/2000/svg">
<path fill-rule="evenodd" clip-rule="evenodd" d="M21.7071 5.29753C22.0976 5.68806 22.0976 6.32122 21.7071 6.71175L6.70711 21.7117C6.31658 22.1023 5.68342 22.1023 5.29289 21.7117C4.90237 21.3212 4.90237 20.6881 5.29289 20.2975L20.2929 5.29753C20.6834 4.90701 21.3166 4.90701 21.7071 5.29753ZM21.7071 14.2975C22.0976 14.6881 22.0976 15.3212 21.7071 15.7117L15.7071 21.7117C15.3166 22.1023 14.6834 22.1023 14.2929 21.7117C13.9024 21.3212 13.9024 20.6881 14.2929 20.2975L20.2929 14.2975C20.6834 13.907 21.3166 13.907 21.7071 14.2975Z" fill="black"/>
</svg>
