<svg xmlns="http://www.w3.org/2000/svg" width="24" height="24" fill="none" viewBox="0 0 24 24"><path fill="#000" fill-rule="evenodd" d="M19 7.8501c2.7614 0 5 2.2386 5 5s-2.2386 5-5 5c-2.419 0-4.4367-1.7178-4.9-4H7.3978l1.293 1.2929c.3905.3905.3905 1.0237 0 1.4142s-1.0237.3905-1.4143 0l-3-3c-.3905-.3905-.3905-1.0237 0-1.4142l3-3c.3905-.3905 1.0237-.3905 1.4142 0 .3906.3905.3906 1.0237 0 1.4142l-1.2929 1.2929H14.1c.4633-2.2822 2.481-4 4.9-4m3 5c0-1.6569-1.3431-3-3-3s-3 1.3431-3 3 1.3431 3 3 3 3-1.3431 3-3" clip-rule="evenodd"/><path fill="#000" d="m5.6933 7.8978-2.831 2.831c-1.1716 1.1715-1.1716 3.071 0 4.2426l2.831 2.831A5 5 0 0 1 5 17.8501c-2.7614 0-5-2.2386-5-5s2.2386-5 5-5c.2352 0 .4667.0162.6933.0477"/></svg>