<svg width="24" height="24" viewBox="0 0 24 24" fill="none" xmlns="http://www.w3.org/2000/svg">
<path d="M9.48604 9.48633C9.85216 9.12021 10.4312 9.09762 10.8239 9.41797L10.9001 9.48633L11.9997 10.5859L13.1003 9.48633L13.1765 9.41797C13.5692 9.09762 14.1482 9.12021 14.5144 9.48633C14.8801 9.85247 14.903 10.4316 14.5827 10.8242L14.5144 10.9004L13.4138 12L14.5144 13.1006L14.5827 13.1768C14.9027 13.5695 14.8803 14.1487 14.5144 14.5146C14.1484 14.8805 13.5692 14.9029 13.1765 14.583L13.1003 14.5146L11.9997 13.4141L10.9001 14.5146L10.8239 14.583C10.4313 14.9032 9.85214 14.8804 9.48604 14.5146C9.11998 14.1486 9.09749 13.5695 9.41768 13.1768L9.48604 13.1006L10.5856 12L9.48604 10.9004L9.41768 10.8242C9.09736 10.4315 9.12002 9.85245 9.48604 9.48633Z" fill="black"/>
<path fill-rule="evenodd" clip-rule="evenodd" d="M13.5573 2.00391C14.0155 2.04626 14.3908 2.39953 14.4548 2.86328L14.7497 5.00977C15.3574 5.26287 15.9243 5.59218 16.4392 5.98633L18.448 5.16895L18.5349 5.1377C18.9755 5.00367 19.4568 5.18894 19.6911 5.59473L21.3142 8.40625C21.5641 8.8391 21.4561 9.38992 21.0612 9.69629L19.3474 11.0254C19.3885 11.3449 19.4128 11.6701 19.4128 12C19.4128 12.33 19.3885 12.6551 19.3474 12.9746L21.0603 14.3047C21.4548 14.6111 21.5629 15.162 21.3132 15.5947L19.6892 18.4062C19.4393 18.8391 18.9087 19.0208 18.446 18.832L16.4372 18.0127C15.9228 18.4064 15.3568 18.7354 14.7497 18.9883L14.4548 21.1367C14.3865 21.6314 13.964 22 13.4646 22H10.2175C9.71781 21.9998 9.29511 21.6308 9.22725 21.1357L8.93233 18.9883C8.32502 18.7352 7.75838 18.4066 7.24385 18.0127L5.23799 18.832C4.77522 19.0208 4.24376 18.8391 3.99385 18.4062L2.3708 15.5947C2.12099 15.162 2.22911 14.6111 2.62373 14.3047L4.33467 12.9746C4.29353 12.6551 4.27023 12.33 4.27022 12C4.27022 11.6698 4.29348 11.3442 4.33467 11.0244L2.62178 9.69629C2.22713 9.38987 2.11901 8.83898 2.36885 8.40625L3.9919 5.59473L4.04268 5.5166C4.30855 5.14083 4.80229 4.99221 5.23604 5.16895L7.24288 5.98633C7.75765 5.59215 8.32467 5.26291 8.93233 5.00977L9.22725 2.86426L9.24385 2.77246C9.34821 2.32421 9.74919 2.00014 10.2175 2H13.4646L13.5573 2.00391ZM10.7478 6.49902L10.1462 6.69043C9.37633 6.936 8.67786 7.34518 8.09248 7.87793L7.62666 8.30273L5.2878 7.34863L4.53682 8.65039L6.52998 10.1973L6.3962 10.8125C6.31346 11.1941 6.27022 11.5916 6.27022 12C6.27024 12.4085 6.31339 12.8058 6.3962 13.1875L6.52998 13.8027L6.03291 14.1895L4.5378 15.3496L5.28975 16.6504L7.62666 15.6973L8.09346 16.1221C8.60551 16.5879 9.20392 16.959 9.86104 17.209L10.1462 17.3086L10.7478 17.501L10.8327 18.126L11.0896 20H12.5925L12.9362 17.5L13.5368 17.3086C14.3063 17.0631 15.0044 16.6545 15.5896 16.1221L16.0564 15.6973L18.3933 16.6504L19.1442 15.3496L17.153 13.8027L17.2858 13.1875C17.3686 12.8058 17.4128 12.4085 17.4128 12C17.4128 11.5919 17.3694 11.1948 17.2868 10.8135L17.153 10.1973L17.6511 9.81152L19.1462 8.65039L18.3942 7.34961L16.0564 8.30273L15.5905 7.87793C15.0783 7.41174 14.4794 7.04014 13.822 6.79004L13.5368 6.69043L12.9362 6.49902L12.5925 4H11.0905L10.7478 6.49902Z" fill="black"/>
</svg>
