<svg xmlns="http://www.w3.org/2000/svg" width="24" height="24" fill="none" viewBox="0 0 24 24"><path fill="#000" fill-rule="evenodd" d="M9.3854 2.8642A1 1 0 0 1 10.376 2h3.2467a1 1 0 0 1 .9907.8638l.2948 2.1435a7.57 7.57 0 0 1 1.692.9785l2.0058-.8173a1 1 0 0 1 1.2434.426l1.6233 2.8118a1 1 0 0 1-.253 1.29l-1.711 1.3274a7.64 7.64 0 0 1-.0002 1.9534l1.7099 1.3278a1 1 0 0 1 .2527 1.2898l-1.6233 2.8118a1 1 0 0 1-1.2438.4259l-2.0048-.818a7.56 7.56 0 0 1-1.691.9777l-.2948 2.1441a1 1 0 0 1-.9907.8638H10.376a1 1 0 0 1-.9907-.8642l-.2938-2.1435a7.56 7.56 0 0 1-1.6913-.9778l-2.0042.8177a1 1 0 0 1-1.2438-.4259l-1.6234-2.8117a1 1 0 0 1 .2527-1.2898l1.7093-1.3274a7.6 7.6 0 0 1-.0626-.9777c0-.3304.0212-.6563.0625-.9763L2.7804 9.6965a1 1 0 0 1-.253-1.29l1.6233-2.8118a1 1 0 0 1 1.2434-.426l2.0052.817a7.57 7.57 0 0 1 1.6923-.9786zM11.2484 4l-.3425 2.4988-.6012.1917a5.565 5.565 0 0 0-2.0536 1.1874l-.4664.4245-2.3379-.9526-.7512 1.3012 1.9927 1.546-.1335.6157a5.6 5.6 0 0 0-.1265 1.187c0 .4087.0438.806.1267 1.1879l.1335.6155-1.9916 1.5466.7513 1.3012 2.3368-.9534.4666.4245a5.56 5.56 0 0 0 2.0531 1.1869l.6011.1918L11.2484 20h1.5025l.3438-2.4995.6007-.1917a5.57 5.57 0 0 0 2.0526-1.1868l.4666-.4246 2.3374.9536.7512-1.3012-1.9921-1.5469.1335-.6156a5.6 5.6 0 0 0 .1267-1.1876c0-.4082-.0438-.8052-.1265-1.1867l-.1335-.6157 1.9933-1.5465-.7512-1.3012-2.3385.9529-.4664-.4245a5.565 5.565 0 0 0-2.0531-1.1873l-.6008-.1917L12.7509 4zm-.9129 5.2948a.65.65 0 0 1 .65 0l3.7105 2.1423a.6502.6502 0 0 1 0 1.1258l-3.7105 2.1422a.65.65 0 0 1-.975-.5629V9.8578a.65.65 0 0 1 .325-.563"/></svg>