<svg width="24" height="24" viewBox="0 0 24 24" fill="none" xmlns="http://www.w3.org/2000/svg">
<path d="M10.9855 9.29485C10.7844 9.17874 10.5366 9.17874 10.3355 9.29485C10.1344 9.41096 10.0105 9.62554 10.0105 9.85776V14.1422C10.0105 14.3744 10.1344 14.589 10.3355 14.7051C10.5366 14.8212 10.7844 14.8212 10.9855 14.7051L14.6959 12.5629C14.8971 12.4468 15.0209 12.2322 15.0209 12C15.0209 11.7678 14.8971 11.5532 14.6959 11.4371L10.9855 9.29485Z" fill="black"/>
<path fill-rule="evenodd" clip-rule="evenodd" d="M10.3761 2C9.87631 2 9.45325 2.36903 9.38538 2.8642L9.09165 5.00715C8.48297 5.26054 7.91484 5.59086 7.39933 5.98572L5.39407 5.16863C4.93137 4.9801 4.40052 5.16201 4.1507 5.59471L2.52735 8.40642C2.27745 8.83927 2.38551 9.39016 2.78041 9.69653L4.49076 11.0234C4.44951 11.3434 4.42828 11.6693 4.42828 11.9997C4.42828 12.3307 4.44957 12.657 4.49094 12.9774L2.78161 14.3048C2.38698 14.6112 2.2791 15.1619 2.52891 15.5946L4.15226 18.4063C4.40216 18.8392 4.93328 19.021 5.39605 18.8322L7.40028 18.0145C7.91552 18.409 8.4833 18.7391 9.09158 18.9923L9.38538 21.1358C9.45325 21.631 9.87631 22 10.3761 22H13.6228C14.1224 22 14.5454 21.6312 14.6135 21.1362L14.9083 18.9921C15.5165 18.7389 16.0842 18.4089 16.5993 18.0144L18.6041 18.8324C19.0669 19.0212 19.598 18.8393 19.8479 18.4065L21.4712 15.5947C21.721 15.162 21.6132 14.6114 21.2185 14.3049L19.5086 12.9771C19.55 12.6568 19.5712 12.3306 19.5712 11.9997C19.5712 11.6694 19.55 11.3436 19.5088 11.0237L21.2198 9.69637C21.6147 9.39001 21.7227 8.83912 21.4728 8.40627L19.8495 5.59455C19.5997 5.16186 19.0688 4.97995 18.6061 5.16848L16.6003 5.98579C16.0849 5.59098 15.5168 5.2607 14.9083 5.00731L14.6135 2.86376C14.5454 2.36878 14.1224 2 13.6228 2H10.3761ZM10.9059 6.49876L11.2484 4H12.7509L13.0946 6.499L13.6954 6.69069C14.4651 6.93628 15.1632 7.3453 15.7485 7.87799L16.2149 8.30248L18.5534 7.34963L19.3046 8.65085L17.3113 10.1973L17.4448 10.813C17.5275 11.1945 17.5712 11.5915 17.5712 11.9997C17.5712 12.4083 17.5274 12.8055 17.4446 13.1873L17.3111 13.8029L19.3032 15.3498L18.552 16.651L16.2146 15.6974L15.748 16.122C15.1628 16.6544 14.4649 17.0632 13.6954 17.3088L13.0947 17.5005L12.7509 20H11.2484L10.9058 17.5007L10.3047 17.3089C9.53498 17.0635 8.83691 16.6546 8.25162 16.122L7.78499 15.6975L5.44817 16.6509L4.69691 15.3497L6.68852 13.8031L6.55497 13.1876C6.47212 12.8057 6.42828 12.4084 6.42828 11.9997C6.42828 11.5914 6.47205 11.1944 6.55478 10.8127L6.68828 10.197L4.69555 8.651L5.44681 7.34978L7.78468 8.3024L8.25109 7.87792C8.8365 7.34513 9.53479 6.93607 10.3047 6.6905L10.9059 6.49876Z" fill="black"/>
</svg>
