<svg xmlns="http://www.w3.org/2000/svg" width="24" height="24" fill="none" viewBox="0 0 24 24"><path fill="#000" fill-rule="evenodd" d="M14.4548 2.8633a1 1 0 0 0-.8975-.8594L13.4646 2h-3.2471a1 1 0 0 0-.9737.7725l-.0166.0918-.2949 2.1455a7.56 7.56 0 0 0-1.6894.9765L5.236 5.169a1 1 0 0 0-1.1933.3477l-.0508.0781-1.623 2.8116a1 1 0 0 0 .2529 1.29l1.7129 1.3281A7.6 7.6 0 0 0 4.2702 12c0 .33.0233.6551.0645.9746l-1.711 1.3301a1 1 0 0 0-.2529 1.29l1.623 2.8116c.25.4328.7814.6145 1.2442.4257l2.0058-.8193a7.56 7.56 0 0 0 1.6885.9756l.295 2.1474a1 1 0 0 0 .9902.8643h3.2471a1 1 0 0 0 .9902-.8633l.2949-2.1484a7.56 7.56 0 0 0 1.6875-.9756l2.0088.8193a.999.999 0 0 0 1.2432-.4257l1.624-2.8116a1.0005 1.0005 0 0 0-.2529-1.29l-1.7129-1.3301c.0411-.3195.0654-.6446.0654-.9746 0-.3299-.0243-.6551-.0654-.9746l1.7138-1.3291a1 1 0 0 0 .253-1.29l-1.6231-2.8116a1 1 0 0 0-1.1562-.457l-.0869.0312-2.0088.8174a7.56 7.56 0 0 0-1.6895-.9765zm-4.3086 3.8271.6016-.1914L11.0905 4h1.502l.3437 2.499.6006.1914.2852.0996a5.57 5.57 0 0 1 1.7685 1.088l.4658.4247 2.3379-.9531.752 1.3008-1.4951 1.1611-.4981.3858.1338.6162c.0826.3813.126.7784.126 1.1865 0 .4085-.0442.8058-.127 1.1875l-.1328.6152 1.9912 1.5469-.7509 1.3008-2.337-.9531-.4667.4248a5.565 5.565 0 0 1-2.0528 1.1865l-.6006.1914-.3437 2.5h-1.5029l-.2569-1.874-.0849-.625-.6016-.1924-.2852-.0996a5.57 5.57 0 0 1-1.7675-1.0869l-.4668-.4248-2.337.9531-.7519-1.3008 1.4951-1.1601.497-.3868-.1337-.6152A5.6 5.6 0 0 1 6.2702 12c0-.4084.0433-.8059.126-1.1875l.1338-.6152-1.9932-1.5469.751-1.3018 2.3389.9541.4658-.4248a5.57 5.57 0 0 1 2.0537-1.1875m.6777 2.7276c-.3927-.3204-.9717-.2978-1.3379.0683-.366.3662-.3886.9452-.0683 1.3379l.0683.0762L10.5856 12 9.486 13.1006l-.0683.0762c-.3202.3927-.2977.9718.0683 1.3378.3661.3658.9453.3886 1.3379.0684l.0762-.0684 1.0996-1.1005 1.1006 1.1005.0762.0684c.3927.3199.9719.2975 1.3379-.0684.3659-.3659.3883-.9451.0683-1.3378l-.0683-.0762L13.4138 12l1.1006-1.0996.0683-.0762a1 1 0 0 0-.0683-1.3379c-.3662-.366-.9452-.3887-1.3379-.0683l-.0762.0683-1.1006 1.0996-1.0996-1.0996z"/></svg>