<svg xmlns="http://www.w3.org/2000/svg" width="24" height="24" fill="none" viewBox="0 0 24 24"><path fill="#000" fill-rule="evenodd" d="M12 2C6.4772 2 2 6.4772 2 12s4.4772 10 10 10 10-4.4772 10-10S17.5228 2 12 2M4 12c0-4.4183 3.5817-8 8-8s8 3.5817 8 8-3.5817 8-8 8-8-3.5817-8-8m10.7579-.3161c.0182.1456.1372.2626.2843.2625l2.8149-.001c.1503-.0001.2726-.1218.2657-.2715-.0894-1.926-1.09-3.7718-2.8238-4.8735-.1266-.0805-.2933-.0356-.3684.094l-1.4385 2.4844c-.0757.1306-.0289.2967.0951.383.6302.439 1.071 1.1263 1.1707 1.9221m-8.8807.0038c-.0063.1493.1159.2703.2657.2703l2.8134.0011c.1476 0 .2669-.1178.2845-.2639.0964-.7992.5373-1.4896 1.1687-1.9307.1237-.0864.1703-.2523.0948-.3828L9.0666 6.898c-.075-.1295-.2415-.1745-.368-.0941A6.086 6.086 0 0 0 6.694 8.895c-.5109.8833-.7767 1.8406-.817 2.7927m6.1227-1.3252c-.9226 0-1.6712.7451-1.6712 1.6664s.7486 1.6651 1.6712 1.6651c.9239 0 1.6725-.7438 1.6725-1.6651s-.7486-1.6664-1.6725-1.6664m2.9177 6.6545c.0752.1299.0305.2966-.1032.3653-1.7161.8822-3.8143.9384-5.6362-.007-.1332-.0692-.1776-.2356-.1025-.3653l1.3695-2.3648c.0758-.1308.2437-.1733.3805-.1084.3569.1694.7526.2686 1.1742.2686.4194 0 .8128-.0983 1.1682-.2658.1367-.0645.3041-.0217.3797.1089z"/></svg>