<svg xmlns="http://www.w3.org/2000/svg" width="24" height="24" fill="none" viewBox="0 0 24 24"><path fill="#000" fill-rule="evenodd" d="m18.9118 15.7537.2332-.4039-1.9921-1.5469.1335-.6156a5.6 5.6 0 0 0 .1266-1.1876c0-.4082-.0437-.8052-.1264-1.1867l-.1335-.6157 1.9933-1.5465-.7512-1.3012-2.3385.9529-.4664-.4245a5.565 5.565 0 0 0-2.0531-1.1873l-.6008-.1917L12.5927 4h-1.5025l-.3425 2.4988-.6012.1917a6 6 0 0 0-.2218.076L8.408 5.2499a7.6 7.6 0 0 1 .5254-.2428l.2937-2.1429A1 1 0 0 1 10.2179 2h3.2467a1 1 0 0 1 .9907.8638l.2948 2.1435a7.57 7.57 0 0 1 1.692.9785l2.0058-.8173a1 1 0 0 1 1.2434.426l1.6233 2.8118a1 1 0 0 1-.253 1.29l-1.711 1.3274c.0412.3199.0624.6457.0624.976 0 .3309-.0212.6571-.0626.9774l1.7099 1.3278a1 1 0 0 1 .2527 1.2898l-.9371 1.6231zM1.9963 4.2988l1.7399 1.74-1.367 2.3676a1 1 0 0 0 .253 1.2901l1.7104 1.3269a7.6 7.6 0 0 0-.0625.9763c0 .331.0213.6573.0626.9777l-1.7093 1.3274a1 1 0 0 0-.2527 1.2898l1.6234 2.8117a1 1 0 0 0 1.2438.4259l2.0042-.8177a7.56 7.56 0 0 0 1.6913.9778l.2938 2.1435a1 1 0 0 0 .9907.8642h3.2467a1 1 0 0 0 .9907-.8638l.2948-2.1441a7.55 7.55 0 0 0 1.2652-.6743l3.1435 3.1436c.3905.3905 1.0237.3905 1.4142 0s.3905-1.0237 0-1.4142L3.4105 2.8846c-.3905-.3905-1.0237-.3905-1.4142 0-.3906.3906-.3906 1.0237 0 1.4142m11.5409 13.01a5.53 5.53 0 0 0 1.0239-.4451l-2.7351-2.7351-.9987.5765a.65.65 0 0 1-.975-.5629v-1.9873l-4.652-4.652-.663 1.1481 1.9928 1.546-.1335.6157a5.6 5.6 0 0 0-.1265 1.187c0 .4087.0438.806.1267 1.1879l.1335.6155-1.9916 1.5466.7513 1.3012 2.3368-.9534.4666.4245a5.56 5.56 0 0 0 2.053 1.1869l.6012.1918L11.0902 20h1.5025l.3438-2.4995z"/></svg>