<svg width="24" height="24" viewBox="0 0 24 24" fill="none" xmlns="http://www.w3.org/2000/svg">
<path fill-rule="evenodd" clip-rule="evenodd" d="M19 7C21.7614 7 24 9.23858 24 12C24 14.7614 21.7614 17 19 17C16.581 17 14.5633 15.2822 14.1 13H7.39784L8.69073 14.2929C9.08126 14.6834 9.08126 15.3166 8.69073 15.7071C8.30021 16.0976 7.66705 16.0976 7.27652 15.7071L4.27652 12.7071C3.886 12.3166 3.886 11.6834 4.27652 11.2929L7.27652 8.29289C7.66705 7.90237 8.30021 7.90237 8.69073 8.29289C9.08126 8.68342 9.08126 9.31658 8.69073 9.70711L7.39784 11H14.1C14.5633 8.71776 16.581 7 19 7ZM22 12C22 10.3431 20.6569 9 19 9C17.3431 9 16 10.3431 16 12C16 13.6569 17.3431 15 19 15C20.6569 15 22 13.6569 22 12Z" fill="black"/>
<path d="M5.69331 7.04768L2.86231 9.87868C1.69074 11.0503 1.69074 12.9497 2.86231 14.1213L5.69331 16.9523C5.46671 16.9838 5.23525 17 5 17C2.23858 17 0 14.7614 0 12C0 9.23858 2.23858 7 5 7C5.23525 7 5.46671 7.01625 5.69331 7.04768Z" fill="black"/>
</svg>
