<svg xmlns="http://www.w3.org/2000/svg" width="24" height="24" fill="none" viewBox="0 0 24 24"><path fill="#000" fill-rule="evenodd" d="M2 12C2 6.4772 6.4772 2 12 2s10 4.4772 10 10c0 .4941-.0358.9798-.105 1.4546a6.2 6.2 0 0 0-1.9131-.9116A8 8 0 0 0 20 12c0-4.4183-3.5817-8-8-8s-8 3.5817-8 8 3.5817 8 8 8a8.02 8.02 0 0 0 1.8777-.2216c-.451.5237-.7216 1.208-.7216 1.9585q0 .0989.0064.1963A10.1 10.1 0 0 1 12 22C6.4772 22 2 17.5228 2 12m14.8394-1.8359c.3756 0 .7341.051 1.0739.1817-.3874-1.4196-1.2855-2.701-2.6143-3.5455-.1266-.0804-.2933-.0356-.3684.094l-1.4385 2.4845c-.0757.1306-.0289.2967.0951.383.4813.3352.8521.8153 1.0449 1.3779l.094-.0928a3 3 0 0 1 .9223-.6318c.1514-.0662.8153-.251 1.191-.251M5.8772 11.6877c-.0063.1492.1159.2702.2657.2703l2.8134.0011c.1476 0 .2669-.1178.2845-.264.0964-.7991.5373-1.4896 1.1687-1.9306.1237-.0865.1703-.2523.0948-.3828L9.0666 6.898c-.075-.1296-.2415-.1746-.368-.0942A6.086 6.086 0 0 0 6.694 8.895c-.5109.8833-.7767 1.8406-.817 2.7927m7.7942.3995-1.1253 1.1097a3.06 3.06 0 0 0-.3988.4907 1.7 1.7 0 0 1-.1474.0064c-.9226 0-1.6712-.7439-1.6712-1.6651s.7486-1.6664 1.6712-1.6664c.9239 0 1.6725.7451 1.6725 1.6664q0 .0292-.001.0583m3.8514.3304c.3981.3751.4189 1.0105.0462 1.41-.1061.1137-.2176.2229-.329.3319q-.0802.0785-.1596.1574a28 28 0 0 0 .4664-.0042h.0007l.0044-.0001c.3454-.005.6921-.01 1.0346.0119 2.1991.1411 3.9384 1.9682 3.9384 4.2024 0 2.303-1.8485 4.174-4.143 4.2106-.0279.0004-2.2207.0005-2.2278.0005-.5523 0-1-.4477-1-1s.4477-1 1-1l2.196-.0003c1.2042-.0191 2.1748-1.0017 2.1748-2.2108 0-1.1631-.8986-2.1171-2.0387-2.2045l-1.402-.004.4603.4604c.3906.3905.3906 1.0237 0 1.4142s-1.0237.3905-1.4142 0l-2.17-2.1701c-.3906-.3905-.3906-1.0237 0-1.4142l2.17-2.1701c.3834-.3833 1.0006-.3903 1.3925-.021m-5.8567 2.8993c0-.1787.0155-.3548.0459-.5271-.3145-.034-.6119-.1228-.8863-.2531-.1368-.0649-.3047-.0223-.3805.1085L9.0757 17.01c-.0751.1296-.0307.2961.1025.3652 1.241.644 2.6102.8233 3.8995.5933l-.5316-.5316c-.57-.57-.88-1.32-.88-2.12"/></svg>