<svg width="24" height="24" viewBox="0 0 24 24" fill="none" xmlns="http://www.w3.org/2000/svg">
<path d="M5.53573 7C7.02344 5.1723 9.30961 4 11.8771 4C16.3761 4 20 7.59446 20 12C20 16.4055 16.3761 20 11.8771 20C8.02992 20 4.81768 17.3683 3.97232 13.8501C3.84329 13.3131 3.30337 12.9824 2.76637 13.1114C2.22937 13.2405 1.89864 13.7804 2.02768 14.3174C3.08817 18.7309 7.10161 22 11.8771 22C17.455 22 22 17.5356 22 12C22 6.46441 17.455 2 11.8771 2C8.69722 2 5.85667 3.44932 4 5.71879V4C4 3.44772 3.55228 3 3 3C2.44772 3 2 3.44772 2 4V8C2 8.55228 2.44772 9 3 9H7C7.55228 9 8 8.55228 8 8C8 7.44772 7.55228 7 7 7H5.53573Z" fill="black"/>
</svg>
