<svg xmlns="http://www.w3.org/2000/svg" width="24" height="24" fill="none" viewBox="0 0 24 24"><path fill="#000" d="M2 12C2 6.4772 6.4772 2 12 2s10 4.4772 10 10c0 .4941-.0358.9798-.105 1.4546a6.2 6.2 0 0 0-1.9131-.9116A8 8 0 0 0 20 12c0-4.4183-3.5817-8-8-8s-8 3.5817-8 8 3.5817 8 8 8a8.02 8.02 0 0 0 1.8777-.2216c-.451.5237-.7216 1.2079-.7216 1.9585q0 .099.0064.1962A10.1 10.1 0 0 1 12 22C6.4772 22 2 17.5228 2 12"/><path fill="#000" d="M11.712 14.79a3.03 3.03 0 0 0-.046.527c0 .8.31 1.55.88 2.12l.532.532c-1.289.23-2.658.051-3.899-.593-.133-.069-.178-.236-.102-.365l1.37-2.365c.076-.131.244-.173.381-.108.274.13.572.219.886.253m.832-1.594 1.125-1.11a2 2 0 0 0 .001-.058c0-.921-.749-1.666-1.672-1.666s-1.671.745-1.671 1.666.749 1.665 1.671 1.665q.075 0 .147-.006a3.06 3.06 0 0 1 .399-.491m5.367-2.851c-.34-.131-.698-.182-1.074-.182s-1.04.185-1.191.251a3 3 0 0 0-.922.632l-.094.093c-.193-.563-.564-1.043-1.045-1.378-.124-.086-.171-.252-.095-.383l1.439-2.484c.075-.13.242-.174.368-.094 1.329.844 2.227 2.126 2.614 3.545m-11.77 1.612c-.15 0-.272-.121-.266-.27.04-.952.306-1.909.817-2.793a6.084 6.084 0 0 1 2.004-2.091c.127-.08.293-.035.368.094l1.438 2.484c.076.131.029.296-.095.383-.631.441-1.072 1.132-1.169 1.931-.018.146-.137.264-.284.264zm11.38.46c.398.375.419 1.011.046 1.41-.106.114-.218.223-.329.332q-.08.079-.16.157c.157 0 .314-.002.472-.004.345-.005.692-.01 1.035.012 2.199.141 3.938 1.968 3.938 4.202 0 2.303-1.848 4.174-4.143 4.211l-2.228.001c-.552 0-1-.448-1-1s.448-1 1-1h2.196c1.204-.019 2.175-1.002 2.175-2.211 0-1.163-.899-2.117-2.039-2.204l-1.402-.004.46.46c.391.391.391 1.024 0 1.414s-1.024.391-1.414 0l-2.17-2.17c-.391-.39-.391-1.024 0-1.414l2.17-2.17c.383-.383 1.001-.39 1.393-.021"/></svg>