<svg width="24" height="24" viewBox="0 0 24 24" fill="none" xmlns="http://www.w3.org/2000/svg">
<path fill-rule="evenodd" clip-rule="evenodd" d="M3.72371 17.2939L5.63191 17.501L5.71883 17.5146C6.14388 17.5988 6.47005 17.9503 6.51766 18.3877L6.72566 20.2959C6.77861 20.7844 6.46818 21.2387 5.99422 21.3682L3.08602 22.1621C2.74009 22.2564 2.36998 22.1576 2.11629 21.9043C1.86254 21.6505 1.76406 21.2798 1.85848 20.9336L2.65145 18.0254C2.78077 17.5514 3.23524 17.2411 3.72371 17.2939ZM4.24715 19.7715L4.64461 19.6631L4.61629 19.4023L4.35555 19.374L4.24715 19.7715Z" fill="black"/>
<path d="M14.4083 6.77539C15.1534 6.03024 16.3623 6.0303 17.1075 6.77539C17.8527 7.52058 17.8527 8.72941 17.1075 9.47461C16.3623 10.2198 15.1535 10.2198 14.4083 9.47461C13.6632 8.7294 13.6631 7.52056 14.4083 6.77539Z" fill="black"/>
<path fill-rule="evenodd" clip-rule="evenodd" d="M20.4747 1.8125C21.3439 1.82977 22.0314 2.51759 22.0489 3.38672L22.043 3.57617L21.9952 4.04492C21.7301 6.37673 21.0816 8.47073 19.8555 10.4219C19.0814 11.6537 18.0885 12.8066 16.8497 13.9189V19.6973C16.8496 20.1738 16.5132 20.5841 16.046 20.6777L11.0997 21.667C10.8062 21.7256 10.5011 21.6505 10.2696 21.4609C10.0381 21.2712 9.90363 20.9868 9.9034 20.6875V18.46C9.67887 18.5779 9.50292 18.6717 9.3702 18.7383C9.273 18.787 9.19965 18.8234 9.14949 18.8477C9.12474 18.8596 9.10549 18.8686 9.09188 18.875C9.08524 18.8781 9.07926 18.8809 9.07527 18.8828C9.07343 18.8837 9.07039 18.8857 9.07039 18.8857H9.06844L8.64754 17.9795L9.06746 18.8867C8.687 19.063 8.23712 18.9829 7.94051 18.6865L5.22762 15.9736C4.96979 15.7158 4.8749 15.3417 4.97078 14.998L5.02352 14.8525L5.02449 14.8496L5.02742 14.8457C5.02937 14.8415 5.03178 14.8346 5.03523 14.8271C5.04214 14.8122 5.05155 14.7903 5.06453 14.7627C5.09063 14.7072 5.13014 14.6265 5.18172 14.5205C5.24908 14.3821 5.34088 14.2018 5.45418 13.9785L3.19539 13.9795C2.89602 13.9793 2.61176 13.8448 2.42195 13.6133C2.23233 13.3817 2.15729 13.0767 2.2159 12.7832L3.20418 7.83691C3.29772 7.36981 3.70831 7.03349 4.18465 7.0332H9.94832C12.8482 3.87169 16.2319 2.18702 20.2852 1.81836L20.4747 1.8125ZM14.8497 15.5264C14.5615 15.7354 14.2642 15.9449 13.9561 16.1523C13.9419 16.1619 13.9269 16.1708 13.9122 16.1797C13.1462 16.6396 12.4781 17.0288 11.9044 17.3574V19.4668L14.8507 18.8779L14.8497 15.5264ZM20.002 3.86035C15.7775 4.37099 12.3605 6.55413 9.38387 10.999C8.47638 12.5403 7.83919 13.7162 7.42977 14.5039C7.31768 14.7195 7.22531 14.9075 7.14656 15.0645L8.84188 16.7598C8.97326 16.6913 9.12821 16.6129 9.30379 16.5186C10.0581 16.1134 11.2262 15.4599 12.8663 14.4756C15.3727 12.7842 17.0522 11.1221 18.1612 9.35742C19.1929 7.71568 19.7616 5.93367 20.002 3.86035ZM4.41609 11.9785H6.51863C6.84508 11.3911 7.23026 10.7166 7.67781 9.95703C7.68731 9.94091 7.6977 9.92474 7.70809 9.90918C7.90919 9.60827 8.11225 9.31571 8.31844 9.03223H5.00496L4.41609 11.9785Z" fill="black"/>
</svg>
