<svg xmlns="http://www.w3.org/2000/svg" width="24" height="24" fill="none" viewBox="0 0 24 24"><path fill="#000" fill-rule="evenodd" d="M13.6987 6.2049s1.26-1.21 3.3001-1.21 3.25 1.16 3.3 1.21c.2.2.45.3.71.3s.51-.1.6999-.29a.9955.9955 0 0 0 0-1.41c-.07-.07-1.82-1.8-4.7199-1.8s-4.6499 1.73-4.72 1.8c-.3901.39-.3801 1.02 0 1.41.3899.39 1.02.39 1.4099 0zm.4002 1c.1098-.12 1.1299-1.21 2.8699-1.21h.01c1.7299 0 2.76 1.09 2.8701 1.21.3699.41.3398 1.04-.0701 1.41-.1899.18-.4299.26-.6699.26-.27 0-.5401-.11-.74-.33-.01-.01-.53-.55-1.3901-.55-.8599 0-1.3799.54-1.3999.56-.3802.4-1.0101.42-1.4102.05-.3999-.38-.4399-.99-.0698-1.4m4.8999 6.79h-1v-4c0-.55-.45-1-1-1s-1 .45-1 1v4h-11c-1.65 0-3 1.3499-3 3v2c0 1.65 1.35 3 3 3h14c1.6499 0 3-1.35 3-3v-2c0-1.6501-1.3501-3-3-3m1 5c0 .55-.45 1-1 1h-14c-.55 0-1-.45-1-1v-2c0-.55.45-1 1-1h14c.55 0 1 .45 1 1zm-13-1c0 .5523-.4478 1-1 1s-1-.4477-1-1 .4477-1 1-1 1 .4477 1 1m2 1c.5522 0 1-.4477 1-1s-.4478-1-1-1-1 .4477-1 1 .4477 1 1 1m3 0c.5522 0 1-.4477 1-1s-.4478-1-1-1-1 .4477-1 1 .4477 1 1 1"/></svg>