<svg xmlns="http://www.w3.org/2000/svg" width="24" height="24" fill="none" viewBox="0 0 24 24"><path fill="#000" fill-rule="evenodd" d="M22.0137 7c0-1.6569-1.3432-3-3-3h-14c-1.6569 0-3 1.3431-3 3v10c0 1.6051 1.2605 2.9158 2.8457 2.9961L5.0137 20h14l.1543-.0039c1.5851-.0803 2.8457-1.391 2.8457-2.9961zm-17 11c-.5523 0-1-.4477-1-1V6.9961h16V17c0 .5523-.4477 1-1 1zm6.0273-9.3887c-1-.5773-2.25.1442-2.25 1.2989v5.1962c.0003 1.1545 1.2501 1.8761 2.25 1.2989l4.5-2.5987c.9994-.5774.9995-2.0202 0-2.5976zm2.749 3.8965-2.999 1.7315v-3.4639z"/></svg>