<svg width="24" height="24" viewBox="0 0 24 24" fill="none" xmlns="http://www.w3.org/2000/svg">
<path fill-rule="evenodd" clip-rule="evenodd" d="M8.79102 9.91016C8.79102 8.75545 10.041 8.03398 11.041 8.61133L15.541 11.209C16.5405 11.7864 16.5403 13.2292 15.541 13.8066L11.041 16.4053C10.0411 16.9825 8.79128 16.2609 8.79102 15.1064V9.91016ZM10.791 14.2393L13.79 12.5078L10.791 10.7754V14.2393Z" fill="black"/>
<path fill-rule="evenodd" clip-rule="evenodd" d="M19.0137 4C20.6705 4 22.0137 5.34315 22.0137 7V17C22.0137 18.6051 20.7531 19.9158 19.168 19.9961L19.0137 20H5.01367L4.85938 19.9961C3.27423 19.9158 2.01367 18.6051 2.01367 17V7C2.01367 5.34315 3.35682 4 5.01367 4H19.0137ZM4.01367 17C4.01367 17.5523 4.46139 18 5.01367 18H19.0137C19.566 18 20.0137 17.5523 20.0137 17V6.99609H4.01367V17Z" fill="black"/>
</svg>
