<svg xmlns="http://www.w3.org/2000/svg" width="24" height="24" fill="none" viewBox="0 0 24 24"><path fill="#000" fill-rule="evenodd" d="M12 4.25c-2.7573 0-5.3147 1.719-6.2842 4.621-.9852.2091-1.8477.6939-2.4978 1.4249C2.4187 11.1948 2 12.3984 2 13.75c0 2.562 2.3146 4.5 4.72 4.5h6.0381l-.1007-.1259a2.987 2.987 0 0 1-.6575-1.8741h-5.28C5.2592 16.25 4 15.054 4 13.75c0-.936.2851-1.6443.7126-2.1251.4252-.4782 1.0504-.7987 1.863-.8605l.7293-.0554.168-.712C8.039 7.5993 9.9624 6.25 12 6.25c1.6764 0 3.2116.8719 4.1047 2.5246l.2598.4808.545.041c1.2361.0928 2.3982.9488 2.8695 2.2125a3.012 3.012 0 0 1 2.049-.1431c-.5342-2.0947-2.2484-3.6272-4.2285-3.9937C16.3284 5.3683 14.2603 4.25 12 4.25m9.6644 9.2526c.4128.3669.45.999.083 1.4118l-4 4.5a1 1 0 0 1-1.5282-.0397l-2-2.5c-.345-.4313-.2751-1.0606.1561-1.4056s1.0606-.2751 1.4056.1562l1.2594 1.5742 3.2123-3.6139c.3669-.4127.999-.4499 1.4118-.083"/></svg>