<svg width="24" height="24" viewBox="0 0 24 24" fill="none" xmlns="http://www.w3.org/2000/svg">
<path d="M5.71576 8.87107C6.68529 5.96909 9.24265 4.25 12 4.25C14.2603 4.25 16.3284 5.36825 17.5995 7.37214C19.5796 7.73863 21.2938 9.27113 21.828 11.3658C21.1513 11.1721 20.4232 11.2224 19.779 11.5089C19.3077 10.2452 18.1456 9.38923 16.9095 9.29635L16.3645 9.2554L16.1047 8.77457C15.2116 7.1219 13.6763 6.25 12 6.25C9.9623 6.25 8.03895 7.59926 7.47296 9.99702L7.30491 10.7089L6.57551 10.7644C5.76295 10.8262 5.13781 11.1467 4.71262 11.6249C4.28511 12.1057 4 12.814 4 13.75C4 15.054 5.25921 16.25 6.71992 16.25H11.9999C11.9995 16.9079 12.2144 17.5704 12.6574 18.1241L12.7581 18.25H6.71992C4.31464 18.25 2 16.312 2 13.75C2 12.3984 2.41871 11.1948 3.21804 10.2959C3.8681 9.56487 4.73057 9.08012 5.71576 8.87107Z" fill="black"/>
<path d="M21.7474 14.9144C22.1144 14.5016 22.0772 13.8695 21.6644 13.5026C21.2516 13.1357 20.6195 13.1729 20.2526 13.5856L17.0403 17.1995L15.7809 15.6253C15.4359 15.194 14.8066 15.1241 14.3753 15.4691C13.9441 15.8141 13.8742 16.4434 14.2192 16.8747L16.2192 19.3747C16.4033 19.6048 16.6795 19.742 16.9741 19.7497C17.2687 19.7573 17.5517 19.6346 17.7474 19.4144L21.7474 14.9144Z" fill="black"/>
</svg>
