<svg xmlns="http://www.w3.org/2000/svg" width="24" height="24" fill="none" viewBox="0 0 24 24"><path fill="#000" fill-rule="evenodd" d="M6 3C3.7909 3 2 4.7909 2 7v8c0 2.2091 1.7909 4 4 4v1c0 .5523.4477 1 1 1s1-.4477 1-1v-1h8v1c0 .5523.4477 1 1 1s1-.4477 1-1v-1c2.2091 0 4-1.7909 4-4V7c0-2.2091-1.7909-4-4-4zm1 12c0 .7286.1948 1.4117.5351 2H6c-1.1046 0-2-.8954-2-2V7c0-1.1046.8954-2 2-2h1.5351A3.98 3.98 0 0 0 7 7zm4 2h7c1.1046 0 2-.8954 2-2V7c0-1.1046-.8954-2-2-2h-7c-1.1046 0-2 .8954-2 2v8c0 1.1046.8954 2 2 2m2-6c0-1.6569 1.3431-3 3-3s3 1.3431 3 3-1.3431 3-3 3-3-1.3431-3-3m3-1c-.5523 0-1 .4477-1 1s.4477 1 1 1 1-.4477 1-1-.4477-1-1-1"/></svg>