<svg xmlns="http://www.w3.org/2000/svg" width="24" height="24" fill="none" viewBox="0 0 24 24"><path fill="#000" fill-rule="evenodd" d="M2 7c0-2.2091 1.7909-4 4-4h12c2.2091 0 4 1.7909 4 4v8c0 2.2091-1.7909 4-4 4v1c0 .5523-.4477 1-1 1s-1-.4477-1-1v-1H8v1c0 .5523-.4477 1-1 1s-1-.4477-1-1v-1c-2.2091 0-4-1.7909-4-4zm2 1h3V7c0-.7286.1948-1.4117.5351-2H6c-1.1046 0-2 .8954-2 2zm7 9c-1.1046 0-2-.8954-2-2V7c0-1.1046.8954-2 2-2h7c1.1046 0 2 .8954 2 2v8c0 1.1046-.8954 2-2 2zm2-6c0-1.6569 1.3431-3 3-3s3 1.3431 3 3-1.3431 3-3 3-3-1.3431-3-3m3-1c-.5523 0-1 .4477-1 1s.4477 1 1 1 1-.4477 1-1-.4477-1-1-1M4 12h3v-2H4zm0 3v-1h3v1c0 .7286.1948 1.4117.5351 2H6c-1.1046 0-2-.8954-2-2"/></svg>