<svg width="24" height="24" viewBox="0 0 24 24" fill="none" xmlns="http://www.w3.org/2000/svg">
<path fill-rule="evenodd" clip-rule="evenodd" d="M16 8C14.3431 8 13 9.34315 13 11C13 12.6569 14.3431 14 16 14C17.6569 14 19 12.6569 19 11C19 9.34315 17.6569 8 16 8ZM15 11C15 10.4477 15.4477 10 16 10C16.5523 10 17 10.4477 17 11C17 11.5523 16.5523 12 16 12C15.4477 12 15 11.5523 15 11Z" fill="black"/>
<path fill-rule="evenodd" clip-rule="evenodd" d="M6 3C3.79086 3 2 4.79086 2 7V15C2 17.2091 3.79086 19 6 19L6 20C6 20.5523 6.44772 21 7 21C7.55228 21 8 20.5523 8 20V19H16V20C16 20.5523 16.4477 21 17 21C17.5523 21 18 20.5523 18 20V19C20.2091 19 22 17.2091 22 15V7C22 4.79086 20.2091 3 18 3H6ZM4 14V15C4 16.1046 4.89543 17 6 17H7.53513C7.19479 16.4117 7 15.7286 7 15V14H4ZM7 12H4V10H7V12ZM7 8H4V7C4 5.89543 4.89543 5 6 5H7.53513C7.19479 5.58835 7 6.27143 7 7V8ZM9 15C9 16.1046 9.89543 17 11 17H18C19.1046 17 20 16.1046 20 15V7C20 5.89543 19.1046 5 18 5H11C9.89543 5 9 5.89543 9 7V15Z" fill="black"/>
</svg>
