<svg xmlns="http://www.w3.org/2000/svg" width="24" height="24" fill="none" viewBox="0 0 24 24"><path fill="#000" d="M9.5 14c.828 0 1.5-.672 1.5-1.5S10.328 11 9.5 11 8 11.672 8 12.5 8.672 14 9.5 14m6.5-1.5c0 .828-.672 1.5-1.5 1.5s-1.5-.672-1.5-1.5.672-1.5 1.5-1.5 1.5.672 1.5 1.5m-4 5.996c1.657 0 3-1.343 3-3H9c0 1.657 1.343 3 3 3"/><path fill="#000" fill-rule="evenodd" d="M12 2C8.1814 2 4.9889 4.6747 4.1915 8.2531 2.9066 8.7714 2 10.0291 2 11.5c0 1.4079.8306 2.6202 2.0282 3.1761C4.3714 18.778 7.8094 22 12 22s7.6286-3.222 7.9718-7.3239C21.1694 14.1202 22 12.9079 22 11.5c0-1.4709-.9066-2.7286-2.1915-3.2469C19.0111 4.6747 15.8186 2 12 2M6.3411 8C7.1647 5.6698 9.388 4 12 4v1c0 1.6569-1.3431 3-3 3zm-.9739 2-.129.0226C4.5347 10.1459 4 10.7615 4 11.5c0 .7246.5147 1.3311 1.199 1.47l.804.1631L6 14v.0017C6.0009 17.3146 8.6868 20 12 20c3.3137 0 6-2.6863 6-6l-.0002-.043-.0057-.8233.8069-.1637c.6843-.1389 1.199-.7454 1.199-1.47 0-.7385-.5347-1.3541-1.2382-1.4774L18.6328 10H17c-1.6356 0-3.0878-.7853-4-1.9995C12.0878 9.2147 10.6356 10 9 10zM14 5c0 1.6569 1.3431 3 3 3h.6589C17.0564 6.2954 15.7049 4.9441 14 4.3415z" clip-rule="evenodd"/></svg>