<svg xmlns="http://www.w3.org/2000/svg" width="24" height="24" fill="none" viewBox="0 0 24 24"><path fill="#000" fill-rule="evenodd" d="M12.667 10.0004a.666.666 0 0 1 .666.666.6666.6666 0 0 1-.666.667c0 .6436.6456 1.3329 1.666 1.333 1.0206 0 1.667-.6893 1.667-1.333 0-.3682.2988-.667.667-.667a.6667.6667 0 0 1 .666.667c0 1.2199-.8764 2.1581-2 2.5127v.8203c0 1.841-1.4921 3.334-3.333 3.334s-3.333-1.493-3.333-3.334v-.8203c-1.1236-.3546-2-1.2928-2-2.5127 0-.3681.298-.6668.666-.667.3682 0 .667.2988.667.667 0 .6437.6464 1.333 1.667 1.333 1.0204-.0001 1.666-.6894 1.666-1.333a.6666.6666 0 0 1-.666-.667.666.666 0 0 1 .666-.666zm0 4.666a.667.667 0 0 1-.667.667.667.667 0 0 1-.667-.667v-1.1172c-.3972.2343-.8548.3853-1.333.4336v.6836c0 1.1046.8954 2 2 2s2-.8954 2-2v-.6836c-.4782-.0483-.9358-.1993-1.333-.4336z" clip-rule="evenodd"/><path fill="#000" d="m9 7.333.103.005c.504.051.898.477.898.995 0 .552-.448 1-1 1l-.102-.005C8.393 9.277 8 8.851 8 8.334c0-.552.448-1 1-1m6-.001.103.005c.504.051.898.477.898.995 0 .552-.448 1-1 1l-.102-.005c-.506-.051-.899-.477-.899-.994 0-.552.448-1 1-1"/><path fill="#000" fill-rule="evenodd" d="M12.0586 1.2377a4.1 4.1 0 0 1 .4053.0254c.0345.004.069.0089.1035.0137a4 4 0 0 1 .2578.044q.0637.013.1269.0283a4 4 0 0 1 .128.0322c.0093.0025.019.0042.0283.0068l.1904.0586.0117.004c.0575.0193.1142.0414.1709.0634.028.0108.0563.0208.084.0322.1599.066.3172.1424.4698.2295l5.8544 3.3457.2334.1445a4 4 0 0 1 .2178.1553 4.1 4.1 0 0 1 .3174.2705c.023.0216.0468.0424.0693.0645.0412.0404.0799.083.1192.125.0173.0185.0358.0359.0527.0547.0367.0407.0715.083.1065.125.0226.0272.0454.0542.0673.082.029.0367.0564.0746.084.1123.0241.0327.0483.0652.0713.0986.0253.0366.0492.074.0733.1114.0214.0333.043.0666.0634.1006q.0342.057.0664.1152a4.3 4.3 0 0 1 .1153.2207 4.3 4.3 0 0 1 .2363.6103q.0196.0656.0371.1319.0134.0515.0254.1035c.0113.0483.0227.0967.0322.1455.0258.1312.0438.2641.0567.3984.0039.0416.009.0832.0117.125a4 4 0 0 1 .0098.2657v6.6357c0 .0887-.0041.1769-.0098.2646l-.001.0147a4 4 0 0 1-.0264.2568c-.0006.0049-.0003.0098-.0009.0147a4 4 0 0 1-.0371.2236c-.0084.0434-.0196.086-.0293.1289-.0102.0448-.0197.0895-.0313.1338a4 4 0 0 1-.0342.1221c-.012.0408-.0238.0817-.0371.1221-.0117.0357-.0244.071-.0371.1064a4 4 0 0 1-.0547.1436 4 4 0 0 1-.0468.1103 4 4 0 0 1-.0684.1484c-.0107.0221-.0221.0437-.0332.0655a4 4 0 0 1-.0879.164c-.0131.0231-.0255.0465-.0391.0694a4 4 0 0 1-.1416.2207 4 4 0 0 1-.0976.1377c-.02.0268-.0399.0537-.0606.08-.0309.0396-.0633.0779-.0957.1163a4 4 0 0 1-.0781.0908 4 4 0 0 1-.1006.1074c-.0236.0245-.046.0502-.0703.0742-.0385.038-.0791.0738-.1191.1104-.0271.0247-.0533.0502-.0811.0742a4.1 4.1 0 0 1-.4141.3164l-.2334.1435-5.8544 3.3458a4 4 0 0 1-.2315.121c-.0364.0179-.0735.0341-.1103.0508-.0423.0192-.0842.039-.127.0567-.028.0116-.0567.0213-.085.0322-.0568.022-.1134.0441-.1709.0635-.0249.0084-.0501.0155-.0751.0234a4 4 0 0 1-.1573.0469c-.0334.0091-.067.0171-.1006.0254a4 4 0 0 1-.1748.04c-.0178.0036-.0358.0065-.0537.0098a4 4 0 0 1-.1855.0303 4 4 0 0 1-.0996.0126 4 4 0 0 1-.1475.0137q-.06.0048-.1201.0078a4 4 0 0 1-.1406.0039 4 4 0 0 1-.2539-.0048 4 4 0 0 1-.1163-.0069 4 4 0 0 1-.2539-.0273 4 4 0 0 1-.1582-.0254c-.0264-.0048-.0527-.0094-.0791-.0147a4 4 0 0 1-.1855-.042c-.0228-.0056-.0457-.0105-.0684-.0166a4.1 4.1 0 0 1-.7353-.2734l-.0147-.0078a4 4 0 0 1-.2256-.1191l-5.8535-3.3458a4.1 4.1 0 0 1-2.0664-3.5605V8.6821c0-.1519.01-.3023.0264-.4512a4.1 4.1 0 0 1 2.04-3.1094l5.8535-3.3457a4.1 4.1 0 0 1 .5811-.2725c.0471-.0178.0941-.0356.1416-.0517.0369-.0125.0742-.0238.1113-.0352.0413-.0126.0825-.0258.1241-.037.0491-.0134.0989-.0237.1484-.0352.0349-.0081.0695-.0173.1045-.0245.036-.0073.0722-.013.1084-.0195a4 4 0 0 1 .1621-.0263c.0315-.0043.0631-.0072.0947-.0108a4.1 4.1 0 0 1 .5176-.0254m.9844 2.2754a2.104 2.104 0 0 0-1.5948-.204 2.1 2.1 0 0 0-.3144.1142q-.0265.0118-.0527.0244l-.1231.0654-5.8545 3.3447a2.1 2.1 0 0 0-1.0088 1.373 2.1 2.1 0 0 0-.0498.4513v6.6357c0 .7539.404 1.4501 1.0586 1.8242l5.8545 3.3457.1231.0645a2.102 2.102 0 0 0 1.7285.0498 2.1 2.1 0 0 0 .2334-.1143l5.8535-3.3457c.0156-.0089.0306-.019.0459-.0283l.0742-.0459a2.101 2.101 0 0 0 .9307-1.5723 2.2 2.2 0 0 0 .0078-.1611V8.6821q0-.0663-.0039-.1319a2 2 0 0 0-.0108-.1142 2 2 0 0 0-.0244-.1573c-.0037-.019-.0084-.0377-.0127-.0566a2.1 2.1 0 0 0-.7803-1.2139l-.1064-.0761a2 2 0 0 0-.1201-.0743z" clip-rule="evenodd"/></svg>