<svg xmlns="http://www.w3.org/2000/svg" width="24" height="24" fill="none" viewBox="0 0 24 24"><path fill="#000" fill-rule="evenodd" d="M11.5557 2.1088a.998.998 0 0 1 .9031-.0017l8.9736 4.53a.996.996 0 0 1 .4759.5169c.0639.1331.0985.2808.0985.4332v8.897c0 .3787-.2135.7249-.5516.8946l-8.9944 4.512a.998.998 0 0 1-.9079 0l-8.9944-4.512a1.001 1.001 0 0 1-.5517-.8946v-8.897a1.001 1.001 0 0 1 .6013-.9178 1 1 0 0 1 .0555-.0306zm.4553 2.0134 6.7826 3.424-2.9152 1.4091-3.8712-1.9756-3.8741 1.9745-2.8772-1.3907zm.9952 15.2567v-6.8131l7.002-3.3845v6.685zm-1.9987-6.8131-7.002-3.3845v6.685l7.002 3.5126z"/></svg>