<svg width="24" height="24" viewBox="0 0 24 24" fill="none" xmlns="http://www.w3.org/2000/svg">
<path fill-rule="evenodd" clip-rule="evenodd" d="M19 22.8501C20.6569 22.8501 22 21.507 22 19.8501V7.8501C22 7.58488 21.8946 7.33053 21.7071 7.14299L17.7071 3.14299C17.5196 2.95545 17.2652 2.8501 17 2.8501H5C3.34315 2.8501 2 4.19324 2 5.8501V19.8501C2 21.507 3.34315 22.8501 5 22.8501H19ZM5 4.8501C4.44772 4.8501 4 5.29781 4 5.8501V19.8501C4 20.4024 4.44772 20.8501 5 20.8501H6V14.2501C6 13.4769 6.6268 12.8501 7.4 12.8501H16.6C17.3732 12.8501 18 13.4769 18 14.2501V20.8501H19C19.5523 20.8501 20 20.4024 20 19.8501V8.26431L17 5.26431V7.4501C17 8.2233 16.3732 8.8501 15.6 8.8501H7.4C6.6268 8.8501 6 8.22329 6 7.4501V4.8501H5ZM16 20.8501V14.8501H8V20.8501H16ZM8 4.8501H15V6.8501H8V4.8501Z" fill="black"/>
</svg>
