<svg width="24" height="24" viewBox="0 0 24 24" fill="none" xmlns="http://www.w3.org/2000/svg">
<path fill-rule="evenodd" clip-rule="evenodd" d="M19 22C20.6569 22 22 20.6569 22 19V7C22 6.73478 21.8946 6.48043 21.7071 6.29289L17.7071 2.29289C17.5196 2.10536 17.2652 2 17 2H5C3.34315 2 2 3.34315 2 5V19C2 20.6569 3.34315 22 5 22H19ZM5 4C4.44772 4 4 4.44772 4 5V19C4 19.5523 4.44772 20 5 20H6V13.4C6 12.6268 6.6268 12 7.4 12H16.6C17.3732 12 18 12.6268 18 13.4V20H19C19.5523 20 20 19.5523 20 19V7.41421L17 4.41421V6.6C17 7.3732 16.3732 8 15.6 8H7.4C6.6268 8 6 7.3732 6 6.6V4H5ZM16 20V14H8V20H16ZM8 4H15V6H8V4Z" fill="black"/>
</svg>
