<svg xmlns="http://www.w3.org/2000/svg" width="24" height="24" fill="none" viewBox="0 0 24 24"><path fill="#000" fill-rule="evenodd" d="M15 22H5c-1.6569 0-3-1.3431-3-3V5c0-1.6569 1.3431-3 3-3h12a1 1 0 0 1 .7071.2929l4 4C21.8946 6.4804 22 6.7348 22 7v9.1707A3 3 0 0 0 21 16c0-.8885-.3863-1.6868-1-2.2361V7.4142l-3-3V6.6c0 .7732-.6268 1.4-1.4 1.4H7.4C6.6268 8 6 7.3732 6 6.6V4H5c-.5523 0-1 .4477-1 1v14c0 .5523.4477 1 1 1h1v-6.6c0-.7732.6268-1.4 1.4-1.4h9.2c.6344 0 1.1703.422 1.3422 1.0005-.8653.0164-1.6409.3991-2.1783.9995H8v6h4.1707c.4118 1.1652 1.5231 2 2.8293 2m0-18H8v2h7zm4 12c0-.5523-.4477-1-1-1s-1 .4477-1 1v2h-2c-.5523 0-1 .4477-1 1s.4477 1 1 1h2v2c0 .5523.4477 1 1 1s1-.4477 1-1v-2h2c.5523 0 1-.4477 1-1s-.4477-1-1-1h-2z"/></svg>