<svg width="24" height="24" viewBox="0 0 24 24" fill="none" xmlns="http://www.w3.org/2000/svg">
<path fill-rule="evenodd" clip-rule="evenodd" d="M5 22H15C13.6938 22 12.5825 21.1652 12.1707 20H8V14H15.7639C16.3013 13.3996 17.0769 13.0169 17.9422 13.0005C17.7703 12.422 17.2344 12 16.6 12H7.4C6.6268 12 6 12.6268 6 13.4V20H5C4.44772 20 4 19.5523 4 19V5C4 4.44772 4.44772 4 5 4H6V6.6C6 7.3732 6.6268 8 7.4 8H15.6C16.3732 8 17 7.3732 17 6.6V4.41421L20 7.41421V13.7639C20.6137 14.3132 21 15.1115 21 16C21.3506 16 21.6872 16.0602 22 16.1707V7C22 6.73478 21.8946 6.48043 21.7071 6.29289L17.7071 2.29289C17.5196 2.10536 17.2652 2 17 2H5C3.34315 2 2 3.34315 2 5V19C2 20.6569 3.34315 22 5 22ZM8 4H15V6H8V4Z" fill="black"/>
<path d="M18 15C18.5523 15 19 15.4477 19 16V18H21C21.5523 18 22 18.4477 22 19C22 19.5523 21.5523 20 21 20H19V22C19 22.5523 18.5523 23 18 23C17.4477 23 17 22.5523 17 22V20H15C14.4477 20 14 19.5523 14 19C14 18.4477 14.4477 18 15 18H17V16C17 15.4477 17.4477 15 18 15Z" fill="black"/>
</svg>
