<svg xmlns="http://www.w3.org/2000/svg" width="24" height="24" fill="none" viewBox="0 0 24 24"><path fill="#000" fill-rule="evenodd" d="M19 22c1.6569 0 3-1.3431 3-3V7c0-.2652-.1054-.5196-.2929-.7071l-4-4A1 1 0 0 0 17 2H5C3.3432 2 2 3.3432 2 5v14c0 1.6569 1.3432 3 3 3zM5 4c-.5523 0-1 .4477-1 1v14c0 .5523.4477 1 1 1h1v-6.6c0-.7732.6268-1.4 1.4-1.4h9.2c.7732 0 1.4.6268 1.4 1.4V20h1c.5523 0 1-.4477 1-1V7.4142l-3-3V6.6c0 .7732-.6268 1.4-1.4 1.4H7.4C6.6268 8 6 7.3732 6 6.6V4zm11 16v-6H8v6zM8 4h7v2H8z"/></svg>