<svg xmlns="http://www.w3.org/2000/svg" width="24" height="24" fill="none" viewBox="0 0 24 24"><path fill="#000" fill-rule="evenodd" d="M7 3C4.7909 3 3 4.7909 3 7v10c0 2.2091 1.7909 4 4 4h10c2.2091 0 4-1.7909 4-4V7c0-2.2091-1.7909-4-4-4zM5 7c0-1.1046.8954-2 2-2h10c1.1046 0 2 .8954 2 2v10c0 1.1046-.8954 2-2 2H7c-1.1046 0-2-.8954-2-2zm7-1c-2.7614 0-5 2.2386-5 5v1c0 .5523.4477 1 1 1h8c.5523 0 1-.4477 1-1v-1c0-2.7614-2.2386-5-5-5m1 4v1h2c0-1.6569-1.3431-3-3-3s-3 1.3431-3 3h2v-1c0-.5523.4477-1 1-1s1 .4477 1 1"/></svg>