<svg xmlns="http://www.w3.org/2000/svg" width="24" height="24" fill="none" viewBox="0 0 24 24"><path fill="#000" fill-rule="evenodd" d="M16.5 3c-.5523 0-1 .4477-1 1s.4477 1 1 1H18c.5523 0 1 .4477 1 1v1.5c0 .5523.4477 1 1 1s1-.4477 1-1V6c0-1.6569-1.3431-3-3-3zM3 6c0-1.6569 1.3431-3 3-3h1.5c.5523 0 1 .4477 1 1s-.4477 1-1 1H6c-.5523 0-1 .4477-1 1v1.5c0 .5523-.4477 1-1 1s-1-.4477-1-1zm0 6c0-.5523.4477-1 1-1h16c.5523 0 1 .4477 1 1s-.4477 1-1 1H4c-.5523 0-1-.4477-1-1m2 4.5c0-.5523-.4477-1-1-1s-1 .4477-1 1V18c0 1.6569 1.3431 3 3 3h1.5c.5523 0 1-.4477 1-1s-.4477-1-1-1H6c-.5523 0-1-.4477-1-1zm16 0c0-.5523-.4477-1-1-1s-1 .4477-1 1V18c0 .5523-.4477 1-1 1h-1.5c-.5523 0-1 .4477-1 1s.4477 1 1 1H18c1.6569 0 3-1.3431 3-3z"/></svg>