<svg width="24" height="24" viewBox="0 0 24 24" fill="none" xmlns="http://www.w3.org/2000/svg">
<path d="M6 3.8501C4.34315 3.8501 3 5.19324 3 6.8501V8.8501C3 9.40238 3.44772 9.8501 4 9.8501C4.55228 9.8501 5 9.40238 5 8.8501V6.8501C5 6.29781 5.44772 5.8501 6 5.8501H8C8.55228 5.8501 9 5.40238 9 4.8501C9 4.29781 8.55228 3.8501 8 3.8501H6Z" fill="black"/>
<path d="M16 3.8501C15.4477 3.8501 15 4.29781 15 4.8501C15 5.40238 15.4477 5.8501 16 5.8501H18C18.5523 5.8501 19 6.29781 19 6.8501V8.8501C19 9.40238 19.4477 9.8501 20 9.8501C20.5523 9.8501 21 9.40238 21 8.8501V6.8501C21 5.19324 19.6569 3.8501 18 3.8501H16Z" fill="black"/>
<path d="M5 16.8501C5 16.2978 4.55228 15.8501 4 15.8501C3.44772 15.8501 3 16.2978 3 16.8501V18.8501C3 20.507 4.34315 21.8501 6 21.8501H8C8.55228 21.8501 9 21.4024 9 20.8501C9 20.2978 8.55228 19.8501 8 19.8501H6C5.44772 19.8501 5 19.4024 5 18.8501V16.8501Z" fill="black"/>
<path d="M21 16.8501C21 16.2978 20.5523 15.8501 20 15.8501C19.4477 15.8501 19 16.2978 19 16.8501V18.8501C19 19.4024 18.5523 19.8501 18 19.8501H16C15.4477 19.8501 15 20.2978 15 20.8501C15 21.4024 15.4477 21.8501 16 21.8501H18C19.6569 21.8501 21 20.507 21 18.8501V16.8501Z" fill="black"/>
<path fill-rule="evenodd" clip-rule="evenodd" d="M12 9.8501C10.3431 9.8501 9 11.1932 9 12.8501C9 14.507 10.3431 15.8501 12 15.8501C13.6569 15.8501 15 14.507 15 12.8501C15 11.1932 13.6569 9.8501 12 9.8501ZM11 12.8501C11 12.2978 11.4477 11.8501 12 11.8501C12.5523 11.8501 13 12.2978 13 12.8501C13 13.4024 12.5523 13.8501 12 13.8501C11.4477 13.8501 11 13.4024 11 12.8501Z" fill="black"/>
</svg>
