<svg xmlns="http://www.w3.org/2000/svg" width="24" height="24" fill="none" viewBox="0 0 24 24"><path fill="#000" fill-rule="evenodd" d="M7 2c-1.1046 0-2 .8954-2 2v11H3c-.5523 0-1 .4477-1 1v3c0 1.6569 1.3431 3 3 3h13.2c1.5464 0 2.8-1.2536 2.8-2.8V4c0-1.1046-.8954-2-2-2zm10.5 18c.8284 0 1.5-.6716 1.5-1.5V4H7v11h8c.5523 0 1 .4477 1 1v2.5c0 .8284.6716 1.5 1.5 1.5m-8-14c-.5523 0-1 .4477-1 1s.4477 1 1 1H16c.5523 0 1-.4477 1-1s-.4477-1-1-1zm-1 5c0-.5523.4477-1 1-1h3.3293c.5523 0 1 .4477 1 1s-.4477 1-1 1H9.5c-.5523 0-1-.4477-1-1m5.5 7.5V17H4v2c0 .5523.4477 1 1 1h9.3368A3.486 3.486 0 0 1 14 18.5"/></svg>