<svg xmlns="http://www.w3.org/2000/svg" width="24" height="24" fill="none" viewBox="0 0 24 24"><path fill="#000" fill-rule="evenodd" d="M7 2c-1.1046 0-2 .8954-2 2v11H3c-.5523 0-1 .4477-1 1v3c0 1.6569 1.3431 3 3 3h10c-1.3062 0-2.4175-.8348-2.8293-2H5c-.5523 0-1-.4477-1-1v-2h8.7639c.5493-.6137 1.3476-1 2.2361-1v-1H7V4h12v9.1707c1.1652.4118 2 1.5231 2 2.8293V4c0-1.1046-.8954-2-2-2zm1.5 5c0-.5523.4477-1 1-1H16c.5523 0 1 .4477 1 1s-.4477 1-1 1H9.5c-.5523 0-1-.4477-1-1m1 3c-.5523 0-1 .4477-1 1s.4477 1 1 1h3.3293c.5523 0 1-.4477 1-1s-.4477-1-1-1zm8.5 5c.5523 0 1 .4477 1 1v2h2c.5523 0 1 .4477 1 1s-.4477 1-1 1h-2v2c0 .5523-.4477 1-1 1s-1-.4477-1-1v-2h-2c-.5523 0-1-.4477-1-1s.4477-1 1-1h2v-2c0-.5523.4477-1 1-1"/></svg>