<svg width="24" height="24" viewBox="0 0 24 24" fill="none" xmlns="http://www.w3.org/2000/svg">
<path d="M5 4C5 2.89543 5.89543 2 7 2H19C20.1046 2 21 2.89543 21 4V16C21 14.6938 20.1652 13.5825 19 13.1707V4L7 4V15H15V16C14.1115 16 13.3132 16.3863 12.7639 17H4V19C4 19.5523 4.44772 20 5 20H12.1707C12.5825 21.1652 13.6938 22 15 22H5C3.34315 22 2 20.6569 2 19V16C2 15.4477 2.44772 15 3 15H5V4Z" fill="black"/>
<path d="M9.5 6C8.94772 6 8.5 6.44772 8.5 7C8.5 7.55228 8.94772 8 9.5 8H16C16.5523 8 17 7.55228 17 7C17 6.44772 16.5523 6 16 6H9.5Z" fill="black"/>
<path d="M8.5 11C8.5 10.4477 8.94772 10 9.5 10H12.8293C13.3816 10 13.8293 10.4477 13.8293 11C13.8293 11.5523 13.3816 12 12.8293 12H9.5C8.94772 12 8.5 11.5523 8.5 11Z" fill="black"/>
<path d="M18 15C18.5523 15 19 15.4477 19 16V18H21C21.5523 18 22 18.4477 22 19C22 19.5523 21.5523 20 21 20H19V22C19 22.5523 18.5523 23 18 23C17.4477 23 17 22.5523 17 22V20H15C14.4477 20 14 19.5523 14 19C14 18.4477 14.4477 18 15 18H17V16C17 15.4477 17.4477 15 18 15Z" fill="black"/>
</svg>
