<svg width="24" height="24" viewBox="0 0 24 24" fill="none" xmlns="http://www.w3.org/2000/svg">
<path d="M10 7C10 6.44772 9.55228 6 9 6C8.44772 6 8 6.44772 8 7V9C8 9.55228 8.44772 10 9 10C9.55228 10 10 9.55228 10 9V7Z" fill="black"/>
<path d="M14 7C14 6.44772 13.5523 6 13 6C12.4477 6 12 6.44772 12 7V9C12 9.55228 12.4477 10 13 10C13.5523 10 14 9.55228 14 9V7Z" fill="black"/>
<path fill-rule="evenodd" clip-rule="evenodd" d="M7 2C5.34315 2 4 3.34315 4 5V19C4 20.6569 5.34315 22 7 22H17C18.6569 22 20 20.6569 20 19V8.17539C20 7.83478 19.8841 7.50432 19.6713 7.23835L15.931 2.56296C15.6463 2.20713 15.2154 2 14.7597 2H7ZM6 5C6 4.44772 6.44772 4 7 4H14.5194L18 8.35078V19C18 19.5523 17.5523 20 17 20H7C6.44772 20 6 19.5523 6 19V5Z" fill="black"/>
</svg>
