<svg width="24" height="24" viewBox="0 0 24 24" fill="none" xmlns="http://www.w3.org/2000/svg">
<path d="M3 4C2.44772 4 2 4.44772 2 5C2 5.55228 2.44772 6 3 6H10.4009C10.8777 5.55777 11.4121 5.17677 11.9916 4.86952C11.9276 4.37888 11.5081 4 11 4H3Z" fill="black"/>
<path d="M3 9H8.42676C8.20336 9.63207 8.06228 10.303 8.0164 11H3C2.44772 11 2 10.5523 2 10C2 9.44772 2.44772 9 3 9Z" fill="black"/>
<path d="M3 14H8.42676C8.68272 14.7242 9.04674 15.3973 9.49945 16H3C2.44772 16 2 15.5523 2 15C2 14.4477 2.44772 14 3 14Z" fill="black"/>
<path fill-rule="evenodd" clip-rule="evenodd" d="M10.5997 14C10.906 14.5992 11.3189 15.1347 11.8135 15.5817C12.7889 16.4632 14.0818 17 15.5 17C16.5093 17 17.4551 16.7281 18.2682 16.2536L21.2474 19.6585C21.6111 20.0741 22.2428 20.1162 22.6585 19.7525C23.0741 19.3888 23.1162 18.7571 22.7525 18.3414L19.7843 14.9492C20.5448 14.0058 21 12.8061 21 11.5C21 8.46243 18.5376 6 15.5 6C13.3627 6 11.5101 7.21916 10.5997 9C10.2881 9.60964 10.0868 10.2851 10.0224 11C10.0076 11.1647 10 11.3315 10 11.5C10 12.4002 10.2163 13.2499 10.5997 14ZM15.5 8C13.567 8 12 9.567 12 11.5C12 13.433 13.567 15 15.5 15C17.433 15 19 13.433 19 11.5C19 9.567 17.433 8 15.5 8Z" fill="black"/>
<path d="M3 19H17C17.5523 19 18 19.4477 18 20C18 20.5523 17.5523 21 17 21H3C2.44772 21 2 20.5523 2 20C2 19.4477 2.44772 19 3 19Z" fill="black"/>
</svg>
