<svg xmlns="http://www.w3.org/2000/svg" width="24" height="24" fill="none" viewBox="0 0 24 24"><path fill="#000" fill-rule="evenodd" d="M2 5c0-.5523.4477-1 1-1h8c.5081 0 .9276.3789.9916.8695A7.52 7.52 0 0 0 10.4009 6H3c-.5523 0-1-.4477-1-1m9.8135 10.5817A5.52 5.52 0 0 1 10.5997 14C10.2163 13.2499 10 12.4002 10 11.5q.0001-.2528.0224-.5a5.47 5.47 0 0 1 .5773-2c.9104-1.7808 2.763-3 4.9003-3 3.0376 0 5.5 2.4624 5.5 5.5a5.477 5.477 0 0 1-1.2157 3.4492l2.9682 3.3922c.3637.4157.3216 1.0474-.094 1.4111-.4157.3637-1.0474.3216-1.4111-.094l-2.9792-3.4049C17.4551 16.7281 16.5093 17 15.5 17c-1.4182 0-2.7111-.5368-3.6865-1.4183M12 11.5C12 9.567 13.567 8 15.5 8S19 9.567 19 11.5 17.433 15 15.5 15 12 13.433 12 11.5M8.4268 9H3c-.5523 0-1 .4477-1 1s.4477 1 1 1h5.0164c.0459-.697.187-1.368.4104-2m0 5H3c-.5523 0-1 .4477-1 1s.4477 1 1 1h6.4995a7.48 7.48 0 0 1-1.0727-2M17 19H3c-.5523 0-1 .4477-1 1s.4477 1 1 1h14c.5523 0 1-.4477 1-1s-.4477-1-1-1"/></svg>