<svg xmlns="http://www.w3.org/2000/svg" width="24" height="24" fill="none" viewBox="0 0 24 24"><path fill="#000" fill-rule="evenodd" d="M3.5492 13.3791Q3 12.0532 3 10.5t.5492-2.8791 1.6475-2.4242 2.4242-1.6475T10.5 3t2.8791.5492l.0082.0034.0162.0067q.0878.0368.1747.076a4.6 4.6 0 0 0-.2162.4515h-.0001q-.2911.7032-.3507 1.5022a5 5 0 0 0-.3998-.1863Q11.6391 5 10.5 5t-2.1113.4027T6.6108 6.611 5.4027 8.3886 5 10.5t.4027 2.1114q.4027.9722 1.2082 1.7777t1.7777 1.2082T10.5 16t2.1114-.4027 1.7777-1.2082 1.2082-1.7777q.3837-.9264.4018-2.0042.0386.0168.0773.0329.8793.3642 1.9087.3661-.0757 1.2657-.5343 2.3729-.368.8886-.9826 1.6748l4.2389 4.239c.396.396.396 1.0182 0 1.4142s-1.0182.396-1.4142 0l-4.239-4.2389q-.7863.6146-1.6748.9826Q12.0532 18 10.5 18t-2.8791-.5492-2.4242-1.6475-1.6475-2.4242"/></svg>