<svg xmlns="http://www.w3.org/2000/svg" width="24" height="24" fill="none" viewBox="0 0 24 24"><path fill="#000" fill-rule="evenodd" d="M2 11.5C2 6.2533 6.2533 2 11.5 2S21 6.2533 21 11.5c0 2.2631-.7914 4.3415-2.1125 5.9733l2.8196 2.8196c.3905.3905.3905 1.0237 0 1.4142s-1.0237.3905-1.4142 0l-2.8196-2.8196C15.8415 20.2086 13.7631 21 11.5 21 6.2533 21 2 16.7467 2 11.5M11.5 4C7.3579 4 4 7.3579 4 11.5S7.3579 19 11.5 19s7.5-3.3579 7.5-7.5S15.6421 4 11.5 4m-1.0298 6.5855c.5689-.1314.8896-.8468.7162-1.598-.1734-.751-.7753-1.2535-1.3442-1.1221s-.8896.8467-.7162 1.5979c.1734.7511.7752 1.2535 1.3442 1.1222m2.0603 0c-.5689-.1314-.8896-.8468-.7162-1.598.1735-.751.7753-1.2535 1.3442-1.1221s.8897.8467.7163 1.5979c-.1735.7511-.7753 1.2535-1.3443 1.1222M8.8736 12.457c.526-.3037.653-1.0684.2837-1.708-.3693-.6397-1.095-.912-1.621-.6084-.526.3037-.653 1.0684-.2837 1.708.3693.6397 1.095.912 1.621.6084m5.2528 0c-.526-.3037-.653-1.0684-.2837-1.708.3693-.6397 1.095-.912 1.621-.6084.526.3037.653 1.0684.2837 1.708-.3693.6397-1.0951.912-1.621.6084m-3.6077-.7455c.4278-.7702 1.5354-.7702 1.9633 0l.2649.4767c.1448.2606.3251.4998.5359.7105l.338.338c.7807.7807.0842 2.1013-1.001 1.8978l-.5281-.099a3.21 3.21 0 0 0-1.1826 0l-.5281.099c-1.0852.2035-1.7818-1.1171-1.001-1.8978l.3379-.3379a3.2 3.2 0 0 0 .536-.7106z"/></svg>