<svg width="24" height="24" viewBox="0 0 24 24" fill="none" xmlns="http://www.w3.org/2000/svg">
<path fill-rule="evenodd" clip-rule="evenodd" d="M12 3C9.79086 3 8 4.79086 8 7C8 9.20914 9.79086 11 12 11C14.2091 11 16 9.20914 16 7C16 4.79086 14.2091 3 12 3ZM10 7C10 5.89543 10.8954 5 12 5C13.1046 5 14 5.89543 14 7C14 8.10457 13.1046 9 12 9C10.8954 9 10 8.10457 10 7Z" fill="black"/>
<path d="M9.2 12C6.32812 12 4 14.3281 4 17.2V18C4 19.6569 5.34315 21 7 21H13.2811C13.1539 20.8169 13.0307 20.6229 12.9131 20.4174C12.6442 19.9478 12.4543 19.4676 12.3202 19H7C6.44772 19 6 18.5523 6 18V17.2C6 15.4327 7.43269 14 9.2 14H12.1274C12.3577 13.2357 12.888 12.5815 13.6179 12.2026L14.0083 12H9.2Z" fill="black"/>
<path fill-rule="evenodd" clip-rule="evenodd" d="M18.9218 12.6595C18.3441 12.3596 17.6567 12.3596 17.079 12.6595L14.5393 13.9778C14.208 14.1497 14 14.492 14 14.8653V16.3147C14 17.2341 14.0603 18.3959 14.6488 19.4237C15.2283 20.436 15.9817 21.0667 16.5942 21.4441C16.9 21.6324 17.1725 21.7589 17.3752 21.8402C17.4768 21.8809 17.5616 21.9106 17.6252 21.9312C17.7467 21.9705 17.8726 21.9999 18.0004 21.9999C18.1695 21.9999 18.2474 21.9754 18.406 21.9181C18.4666 21.8962 18.5478 21.8649 18.6454 21.8226C18.8402 21.7381 19.103 21.6087 19.3989 21.4213C19.9899 21.0469 20.7264 20.432 21.3048 19.4716C21.9365 18.4224 22.0008 17.2194 22.0008 16.2729V14.8653C22.0008 14.492 21.7928 14.1497 21.4615 13.9778L18.9218 12.6595ZM17.6432 19.7412C17.7711 19.82 17.8875 19.8804 17.9844 19.9253C18.082 19.8773 18.1994 19.8136 18.3286 19.7318C18.7211 19.4832 19.2084 19.0759 19.5914 18.4399C19.9181 17.8973 20.0008 17.1844 20.0008 16.2729V15.4729L18.0004 14.4346L16 15.4729V16.3147C16 17.1984 16.077 17.8931 16.3844 18.4301C16.7655 19.0956 17.2539 19.5014 17.6432 19.7412Z" fill="black"/>
</svg>
