<svg xmlns="http://www.w3.org/2000/svg" width="24" height="24" fill="none" viewBox="0 0 24 24"><path fill="#000" fill-rule="evenodd" d="M2 7c0-1.6569 1.3431-3 3-3h11c1.6569 0 3 1.3431 3 3v4c0 1.6569-1.3431 3-3 3h-5v3c0 1.6569-1.3431 3-3 3H3c-.5523 0-1-.4477-1-1s.4477-1 1-1h5c.5523 0 1-.4477 1-1v-3H5c-1.6569 0-3-1.3431-3-3zm19-1c.5523 0 1 .4477 1 1v4c0 .5523-.4477 1-1 1s-1-.4477-1-1V7c0-.5523.4477-1 1-1m-4 5c0 .5523-.4477 1-1 1H5c-.5523 0-1-.4477-1-1V7c0-.5523.4477-1 1-1h11c.5523 0 1 .4477 1 1zM7 10c.5523 0 1-.4477 1-1s-.4477-1-1-1-1 .4477-1 1 .4477 1 1 1"/></svg>