<svg width="24" height="24" viewBox="0 0 24 24" fill="none" xmlns="http://www.w3.org/2000/svg">
<path fill-rule="evenodd" clip-rule="evenodd" d="M1 4.8224C1 4.51381 1.14247 4.22251 1.38606 4.03305L3.38606 2.47749C3.74717 2.19663 4.25283 2.19663 4.61394 2.47749L6.61394 4.03305C6.85753 4.22251 7 4.51381 7 4.8224V7.99998C7 8.55227 6.55228 8.99998 6 8.99998H2C1.44772 8.99998 1 8.55227 1 7.99998V4.8224ZM4 4.53371L5 5.31149V6.99998H3V5.31149L4 4.53371Z" fill="black"/>
<path fill-rule="evenodd" clip-rule="evenodd" d="M23.0001 5.86525C23.0001 7.59655 21.5966 9.00004 19.8653 9.00004C18.134 9.00004 16.7305 7.59655 16.7305 5.86525C16.7305 4.13395 18.134 2.73045 19.8653 2.73045C21.5966 2.73045 23.0001 4.13395 23.0001 5.86525ZM21.0001 5.86525C21.0001 6.49198 20.492 7.00004 19.8653 7.00004C19.2385 7.00004 18.7305 6.49198 18.7305 5.86525C18.7305 5.23852 19.2385 4.73045 19.8653 4.73045C20.492 4.73045 21.0001 5.23852 21.0001 5.86525Z" fill="black"/>
<path fill-rule="evenodd" clip-rule="evenodd" d="M16 22C17.7313 22 19.1348 20.5965 19.1348 18.8652C19.1348 17.4836 18.241 16.3107 17 15.8933V13H22C22.5523 13 23 12.5523 23 12C23 11.4477 22.5523 11 22 11L2 11C1.44772 11 1 11.4477 1 12C1 12.5523 1.44772 13 2 13H7V16C5.89543 16 5 16.8954 5 18V20C5 21.1046 5.89543 22 7 22H9C10.1046 22 11 21.1046 11 20V18C11 16.8954 10.1046 16 9 16V13L15 13V15.8933C13.7591 16.3108 12.8652 17.4836 12.8652 18.8652C12.8652 20.5965 14.2687 22 16 22ZM16 20C16.6268 20 17.1348 19.492 17.1348 18.8652C17.1348 18.2385 16.6268 17.7305 16 17.7305C15.3733 17.7305 14.8652 18.2385 14.8652 18.8652C14.8652 19.492 15.3733 20 16 20ZM9 18H7V20H9V18Z" fill="black"/>
<path fill-rule="evenodd" clip-rule="evenodd" d="M9 4.99998C9 3.89541 9.89543 2.99998 11 2.99998H13C14.1046 2.99998 15 3.89541 15 4.99998V6.99998C15 8.10455 14.1046 8.99998 13 8.99998H11C9.89543 8.99998 9 8.10455 9 6.99998V4.99998ZM11 4.99998H13V6.99998H11V4.99998Z" fill="black"/>
</svg>
