<svg width="24" height="24" viewBox="0 0 24 24" fill="none" xmlns="http://www.w3.org/2000/svg">
<path d="M8 2.8501C6.34315 2.8501 5 4.19324 5 5.8501V8.8501H7V5.8501C7 5.29781 7.44772 4.8501 8 4.8501H16C16.5523 4.8501 17 5.29781 17 5.8501V19.8501C17 20.4024 16.5523 20.8501 16 20.8501H8C7.44772 20.8501 7 20.4024 7 19.8501V14.8501H5V19.8501C5 21.507 6.34315 22.8501 8 22.8501H16C17.6569 22.8501 19 21.507 19 19.8501V5.8501C19 4.19324 17.6569 2.8501 16 2.8501H8Z" fill="black"/>
<path d="M11 17.8501C10.4477 17.8501 10 18.2978 10 18.8501C10 19.4024 10.4477 19.8501 11 19.8501H13C13.5523 19.8501 14 19.4024 14 18.8501C14 18.2978 13.5523 17.8501 13 17.8501H11Z" fill="black"/>
<path d="M2 11.8501C2 11.2978 2.44772 10.8501 3 10.8501H10.5858L9.29289 9.5572C8.90237 9.16668 8.90237 8.53351 9.29289 8.14299C9.68342 7.75247 10.3166 7.75247 10.7071 8.14299L13.5704 11.0063C13.5868 11.0227 13.6034 11.0389 13.62 11.0552C13.6557 11.0902 13.6915 11.1252 13.7255 11.1619C13.7477 11.1852 13.7687 11.2097 13.7886 11.2351C13.7951 11.2433 13.8014 11.2517 13.8076 11.2602C13.8554 11.3255 13.8943 11.3952 13.9243 11.4678C13.9731 11.5856 14 11.7147 14 11.8501C14 11.9855 13.9731 12.1146 13.9243 12.2324C13.8943 12.305 13.8554 12.3747 13.8076 12.44C13.8014 12.4485 13.7951 12.4569 13.7886 12.4651C13.7687 12.4906 13.7476 12.515 13.7255 12.5384C13.6915 12.575 13.6557 12.61 13.62 12.645C13.6034 12.6613 13.5868 12.6775 13.5704 12.6939L10.7071 15.5572C10.3166 15.9477 9.68342 15.9477 9.29289 15.5572C8.90237 15.1667 8.90237 14.5335 9.29289 14.143L10.5858 12.8501H3C2.44772 12.8501 2 12.4024 2 11.8501Z" fill="black"/>
</svg>
