<svg xmlns="http://www.w3.org/2000/svg" width="24" height="24" fill="none" viewBox="0 0 24 24"><path fill="#000" fill-rule="evenodd" d="M8 2C6.3431 2 5 3.3431 5 5v3h2V5c0-.5523.4477-1 1-1h8c.5523 0 1 .4477 1 1v14c0 .5523-.4477 1-1 1H8c-.5523 0-1-.4477-1-1v-5H5v5c0 1.6569 1.3431 3 3 3h8c1.6569 0 3-1.3431 3-3V5c0-1.6569-1.3431-3-3-3zm-5 8c-.5523 0-1 .4477-1 1s.4477 1 1 1h7.5858l-1.2929 1.2929c-.3905.3905-.3905 1.0237 0 1.4142s1.0237.3905 1.4142 0l2.8633-2.8633q.0247-.0245.0496-.0489c.0357-.035.0715-.07.1055-.1066a1 1 0 0 0 .0821-.0984A.997.997 0 0 0 14 11a.997.997 0 0 0-.2745-.6882 3 3 0 0 0-.1055-.1067q-.025-.0244-.0496-.0489l-2.8633-2.8633c-.3905-.3905-1.0237-.3905-1.4142 0s-.3905 1.0237 0 1.4142L10.5858 10zm8 7c-.5523 0-1 .4477-1 1s.4477 1 1 1h2c.5523 0 1-.4477 1-1s-.4477-1-1-1z"/></svg>