<svg width="24" height="24" viewBox="0 0 24 24" fill="none" xmlns="http://www.w3.org/2000/svg">
<path d="M8 8.5C8 9.32843 7.32843 10 6.5 10C5.67157 10 5 9.32843 5 8.5C5 7.67157 5.67157 7 6.5 7C7.32843 7 8 7.67157 8 8.5Z" fill="black"/>
<path d="M6.5 17C7.32843 17 8 16.3284 8 15.5C8 14.6716 7.32843 14 6.5 14C5.67157 14 5 14.6716 5 15.5C5 16.3284 5.67157 17 6.5 17Z" fill="black"/>
<path fill-rule="evenodd" clip-rule="evenodd" d="M5 4C3.34315 4 2 5.34315 2 7V10C2 10.7684 2.28885 11.4692 2.7639 12C2.28885 12.5308 2 13.2316 2 14V17C2 18.6569 3.34315 20 5 20H19C20.6569 20 22 18.6569 22 17V14C22 13.2316 21.7111 12.5308 21.2361 12C21.7111 11.4692 22 10.7684 22 10V7C22 5.34315 20.6569 4 19 4H5ZM5 11H19C19.5523 11 20 10.5523 20 10V7C20 6.44772 19.5523 6 19 6H5C4.44772 6 4 6.44772 4 7V10C4 10.5523 4.44772 11 5 11ZM5 13C4.44772 13 4 13.4477 4 14V17C4 17.5523 4.44772 18 5 18H19C19.5523 18 20 17.5523 20 17V14C20 13.4477 19.5523 13 19 13H5Z" fill="black"/>
</svg>
