<svg width="24" height="24" viewBox="0 0 24 24" fill="none" xmlns="http://www.w3.org/2000/svg">
<path d="M9.22742 2.8642C9.29529 2.36903 9.71835 2 10.2182 2H13.4648C13.9645 2 14.3874 2.36878 14.4555 2.86376L14.7503 5.00731C15.3589 5.2607 15.9269 5.59098 16.4423 5.98579L18.4481 5.16848C18.9108 4.97995 19.4417 5.16186 19.6915 5.59455L21.3149 8.40627C21.5648 8.83912 21.4567 9.39001 21.0618 9.69637L19.3509 11.0237C19.3921 11.3436 19.4133 11.6694 19.4133 11.9997C19.4133 12.3306 19.3135 13.3275 19.0917 13.6725L17.4094 12.2105C17.412 12.1406 17.4133 12.0703 17.4133 11.9997C17.4133 11.5915 17.3695 11.1945 17.2868 10.813L17.1534 10.1973L19.1467 8.65085L18.3954 7.34963L16.057 8.30248L15.5906 7.87799C15.0053 7.3453 14.3072 6.93628 13.5374 6.69069L12.9366 6.499L12.593 4H11.0904L10.7479 6.49876L10.1468 6.6905C9.37683 6.93607 8.67854 7.34513 8.09313 7.87792L7.62672 8.3024L5.28885 7.34978L4.53759 8.651L6.53032 10.197L6.39682 10.8127C6.31409 11.1944 6.27032 11.5914 6.27032 11.9997C6.27032 12.4084 6.31416 12.8057 6.39701 13.1876L6.53056 13.8031L4.53895 15.3497L5.29021 16.6509L7.62703 15.6975L8.09366 16.122C8.67895 16.6546 9.37702 17.0635 10.1467 17.3089L10.7479 17.5007L11.0904 20H12.593L12.829 18.2836L14.6037 20.0584L14.4555 21.1362C14.3874 21.6312 13.9645 22 13.4648 22H10.2182C9.71835 22 9.29529 21.631 9.22742 21.1358L8.93362 18.9923C8.32534 18.7391 7.75756 18.409 7.24232 18.0145L5.23809 18.8322C4.77532 19.021 4.2442 18.8392 3.9943 18.4063L2.37096 15.5946C2.12114 15.1619 2.22903 14.6112 2.62365 14.3048L4.33298 12.9774C4.29161 12.657 4.27032 12.3307 4.27032 11.9997C4.27032 11.6693 4.29155 11.3434 4.3328 11.0234L2.62245 9.69653C2.22755 9.39016 2.11949 8.83927 2.3694 8.40642L3.99274 5.59471C4.24256 5.16201 4.77341 4.9801 5.23611 5.16863L7.24137 5.98572C7.75688 5.59086 8.32501 5.26054 8.9337 5.00715L9.22742 2.8642Z" fill="black"/>
<path d="M8.38136 10.3644C7.7005 11.8062 7.9562 13.5804 9.14847 14.7727C10.2164 15.8406 11.7513 16.1571 13.096 15.7222L18.3219 20.9481C18.7124 21.3387 19.3456 21.3387 19.7361 20.9481L20.8203 19.864C21.2108 19.4735 21.2108 18.8403 20.8203 18.4498L15.5944 13.2239C16.0293 11.8792 15.7128 10.3443 14.6449 9.27629C13.4526 8.08402 11.6784 7.82832 10.2365 8.50918C10.1166 8.56583 10.0946 8.7234 10.1884 8.8172L12.9653 11.5941L11.4662 13.0931L8.68938 10.3162C8.59558 10.2224 8.438 10.2444 8.38136 10.3644Z" fill="black"/>
</svg>
