<svg xmlns="http://www.w3.org/2000/svg" width="24" height="24" fill="none" viewBox="0 0 24 24"><path fill="#000" fill-rule="evenodd" d="M10.218 2a1 1 0 0 0-.9907.8642l-.2937 2.143a7.57 7.57 0 0 0-1.6924.9785l-2.0052-.817a1 1 0 0 0-1.2434.426L2.3693 8.4064a1 1 0 0 0 .253 1.2901l1.7104 1.3269a7.6 7.6 0 0 0-.0625.9763c0 .331.0213.6573.0626.9777l-1.7093 1.3274a1 1 0 0 0-.2527 1.2898l1.6234 2.8117a1 1 0 0 0 1.2438.4259l2.0042-.8177a7.56 7.56 0 0 0 1.6913.9778l.2938 2.1435A1 1 0 0 0 10.218 22h3.2467a1 1 0 0 0 .9907-.8638l.1482-1.0778-1.7747-1.7748L12.5928 20h-1.5025l-.3426-2.4993-.6011-.1918a5.56 5.56 0 0 1-2.053-1.1869l-.4667-.4245-2.3368.9534-.7513-1.3012 1.9916-1.5466-.1335-.6155a5.6 5.6 0 0 1-.1267-1.1879c0-.4083.0438-.8053.1265-1.187l.1335-.6157-1.9927-1.546.7512-1.3012 2.338.9526.4663-.4245a5.565 5.565 0 0 1 2.0536-1.1874l.6012-.1917L11.0903 4h1.5025l.3437 2.499.6008.1917a5.565 5.565 0 0 1 2.0531 1.1873l.4665.4245 2.3384-.9529.7512 1.3012-1.9932 1.5465.1334.6157a5.6 5.6 0 0 1 .1226 1.3975l1.6823 1.462c.2217-.345.3216-1.3419.3216-1.6728 0-.3303-.0213-.6561-.0625-.976l1.711-1.3273a1 1 0 0 0 .253-1.2901l-1.6233-2.8117a1 1 0 0 0-1.2434-.4261l-2.0058.8173a7.56 7.56 0 0 0-1.692-.9785l-.2948-2.1435A1 1 0 0 0 13.4647 2zM9.1484 14.7727c-1.1923-1.1923-1.448-2.9665-.7672-4.4083.0567-.12.2142-.142.308-.0482l2.7769 2.7769 1.499-1.499-2.7768-2.7769c-.0938-.0938-.0718-.2514.0481-.308 1.4419-.6809 3.2161-.4252 4.4083.7671 1.068 1.068 1.3845 2.6029.9495 3.9476l5.2259 5.2259c.3906.3905.3906 1.0237 0 1.4142l-1.0841 1.0841c-.3905.3906-1.0237.3906-1.4142 0l-5.226-5.2259c-1.3447.4349-2.8795.1184-3.9474-.9495"/></svg>