<svg xmlns="http://www.w3.org/2000/svg" width="24" height="24" fill="none" viewBox="0 0 24 24"><path fill="#000" fill-rule="evenodd" d="M3.9851 5.4976c0 4.4344.0002 8.8743.0004 13.3108 0 .5913.307 1.0933.6813 1.4659.3821.3805.9088.7063 1.5497.9731 1.284.5345 3.1773.8947 5.7732.8947 2.5961 0 4.4939-.3603 5.7822-.894.643-.2664 1.1718-.5916 1.556-.9712.3754-.3709.6873-.8736.6873-1.4685 0-.3538-.0095-3.6326-.0189-6.8193-.0065-2.1636.0013-4.3294.0013-6.4915 0-1.3588-1.0612-2.0702-1.462-2.3048-.5405-.3162-1.1896-.5324-1.8168-.6876-1.2853-.3181-2.9558-.494-4.7275-.494s-3.4421.1759-4.7275.494c-.6272.1552-1.2762.3714-1.8167.6876-.4008.2346-1.462.946-1.462 2.3048m12.3864 1.017a9 9 0 0 1-.0994.0257c-1.0895.2739-2.605.4437-4.2808.4437S8.8 6.8143 7.7105 6.5404a9 9 0 0 1-.0993-.0256c-1.0084-.2659-1.626-.6236-1.626-1.017 0-.3935.6176-.7512 1.626-1.0171a9 9 0 0 1 .0993-.0256c1.0895-.274 2.605-.4438 4.2808-.4438s3.1913.1699 4.2808.4438q.0503.0127.0994.0256c1.0084.2659 1.6261.6236 1.6261 1.017 0 .3935-.6177.7512-1.6261 1.017m.3473 1.9755c-1.2853.3181-2.9558.494-4.7275.494s-3.4421-.1759-4.7275-.494c-.43-.1064-.8703-.2415-1.2788-.4178l.0002 4.0476c.0386.0752.2296.3894 1.0488.7306.9412.3921 2.5158.7218 4.9556.7218 2.4368 0 4.0455-.3373 5.0053-.7332.481-.1983.7611-.3957.9049-.538.0519-.0514.0787-.0875.0916-.1076a1 1 0 0 1 .0053-.0571l-.0004-.1414-.0117-3.9171c-.4048.1736-.8403.307-1.2658.4122m1.2851 6.0908a7 7 0 0 1-.2464.1072c-1.2822.5288-3.1734.8842-5.7679.8842-2.5916 0-4.4541-.3462-5.7247-.8756a6.6 6.6 0 0 1-.2796-.124l.0001 4.1752c.0136.0211.0409.0577.0925.1091.145.1443.426.3437.9072.544.9603.3997 2.569.7411 5.0046.7411 2.4353 0 4.0502-.3413 5.0167-.7417.4845-.2008.7687-.4008.9157-.5461.0515-.0509.0791-.0873.093-.1086a5346 5346 0 0 0-.0112-4.1648m.0237 4.1426-.0012.0029zm-12.054.0031.0012.0028z"/></svg>