<svg xmlns="http://www.w3.org/2000/svg" width="24" height="24" fill="none" viewBox="0 0 24 24"><path fill="#000" fill-rule="evenodd" d="M8 5c0-1.1046.8954-2 2-2h4c1.1046 0 2 .8954 2 2v2h2c1.6569 0 3 1.3431 3 3v6h.4c.8837 0 1.6.7163 1.6 1.6v2.8c0 .8837-.7163 1.6-1.6 1.6h-2.8c-.8837 0-1.6-.7163-1.6-1.6v-2.8c0-.8837.7163-1.6 1.6-1.6h.4v-6c0-.5523-.4477-1-1-1h-2c0 1.1046-.8954 2-2 2h-1v5h.4c.8837 0 1.6.7163 1.6 1.6v2.8c0 .8837-.7163 1.6-1.6 1.6h-2.8c-.8837 0-1.6-.7163-1.6-1.6v-2.8c0-.8837.7163-1.6 1.6-1.6h.4v-5h-1c-1.1046 0-2-.8954-2-2H6c-.5523 0-1 .4477-1 1v6h.4c.8837 0 1.6.7163 1.6 1.6v2.8c0 .8837-.7163 1.6-1.6 1.6H2.6c-.8837 0-1.6-.7163-1.6-1.6v-2.8c0-.8837.7163-1.6 1.6-1.6H3v-6c0-1.6569 1.3431-3 3-3h2zm6 0h-4v4h4zm-3 13v2h2v-2zm-8 2v-2h2v2zm16-2v2h2v-2z"/></svg>