<svg width="24" height="24" viewBox="0 0 24 24" fill="none" xmlns="http://www.w3.org/2000/svg">
<path d="M6 13C6.55228 13 7 12.5523 7 12C7 11.4477 6.55228 11 6 11C5.44772 11 5 11.4477 5 12C5 12.5523 5.44772 13 6 13Z" fill="black"/>
<path d="M7 6C7 6.55228 6.55228 7 6 7C5.44772 7 5 6.55228 5 6C5 5.44772 5.44772 5 6 5C6.55228 5 7 5.44772 7 6Z" fill="black"/>
<path fill-rule="evenodd" clip-rule="evenodd" d="M5 2C3.34315 2 2 3.34315 2 5V7C2 7.76835 2.28885 8.46924 2.76389 9C2.28885 9.53076 2 10.2316 2 11V13C2 13.7684 2.28885 14.4692 2.7639 15C2.28885 15.5308 2 16.2316 2 17V19C2 20.6569 3.34315 22 5 22H14C15.6569 22 17 20.6569 17 19V17C17 16.2316 16.7111 15.5308 16.2361 15C16.7111 14.4692 17 13.7684 17 13V11C17 10.2316 16.7111 9.53076 16.2361 9C16.7111 8.46925 17 7.76836 17 7V5C17 3.34315 15.6569 2 14 2H5ZM14 14H5C4.44772 14 4 13.5523 4 13V11C4 10.4477 4.44772 10 5 10H14C14.5523 10 15 10.4477 15 11V13C15 13.5523 14.5523 14 14 14ZM5 16H14C14.5523 16 15 16.4477 15 17V19C15 19.5523 14.5523 20 14 20H5C4.44772 20 4 19.5523 4 19V17C4 16.4477 4.44772 16 5 16ZM5 8H14C14.5523 8 15 7.55228 15 7V5C15 4.44772 14.5523 4 14 4H5C4.44772 4 4 4.44772 4 5V7C4 7.55228 4.44772 8 5 8Z" fill="black"/>
<path d="M19 7H18V5H19C20.6569 5 22 6.34315 22 8V10C22 10.7684 21.7111 11.4692 21.2361 12C21.7111 12.5308 22 13.2316 22 14V16C22 17.6569 20.6569 19 19 19H18V17H19C19.5523 17 20 16.5523 20 16V14C20 13.4477 19.5523 13 19 13H18V11H19C19.5523 11 20 10.5523 20 10V8C20 7.44772 19.5523 7 19 7Z" fill="black"/>
</svg>
