<svg xmlns="http://www.w3.org/2000/svg" width="24" height="24" fill="none" viewBox="0 0 24 24"><path fill="#000" fill-rule="evenodd" d="M3 8h8.126c.4441 1.7252 2.0102 3 3.874 3s3.4299-1.2748 3.874-3H21c.5523 0 1-.4477 1-1s-.4477-1-1-1h-2.126C18.4299 4.2748 16.8638 3 15 3s-3.4299 1.2748-3.874 3H3c-.5523 0-1 .4477-1 1s.4477 1 1 1m12-3c-1.1046 0-2 .8954-2 2s.8954 2 2 2 2-.8954 2-2-.8954-2-2-2M3 16c-.5523 0-1 .4477-1 1s.4477 1 1 1h2.126C5.57 19.7252 7.1362 21 9 21s3.4299-1.2748 3.874-3H21c.5523 0 1-.4477 1-1s-.4477-1-1-1h-8.126c-.4441-1.7252-2.0102-3-3.874-3s-3.43 1.2748-3.874 3zm6-1c-1.1046 0-2 .8954-2 2s.8954 2 2 2 2-.8954 2-2-.8954-2-2-2"/></svg>