<svg width="24" height="24" viewBox="0 0 24 24" fill="none" xmlns="http://www.w3.org/2000/svg">
<path d="M10.4999 18C7.62013 18 5.11947 16.377 3.8627 13.9958C3.91576 13.9986 3.96919 14 4.02295 14C4.69918 14 5.32316 13.7763 5.82489 13.3988C6.79521 14.9603 8.52613 16 10.4999 16C13.5374 16 15.9999 13.5376 15.9999 10.5C15.9999 7.46243 13.5374 5 10.4999 5C9.24749 5 8.09288 5.41859 7.1683 6.12349C7.11931 6.13802 7.07085 6.15377 7.02295 6.17071V6C7.02295 5.32574 6.80051 4.70344 6.42502 4.20247C7.59826 3.44176 8.99748 3 10.4999 3C14.642 3 17.9999 6.35786 17.9999 10.5C17.9999 12.2105 17.4272 13.7873 16.4632 15.0491L20.707 19.2929C21.0975 19.6834 21.0975 20.3166 20.707 20.7071C20.3165 21.0976 19.6833 21.0976 19.2928 20.7071L15.049 16.4633C13.7872 17.4274 12.2104 18 10.4999 18Z" fill="black"/>
<path d="M5.02295 6C5.02295 5.44772 4.57523 5 4.02295 5C3.47066 5 3.02295 5.44772 3.02295 6V11C3.02295 11.5523 3.47066 12 4.02295 12C4.57523 12 5.02295 11.5523 5.02295 11V6Z" fill="black"/>
<path d="M13.0229 8C13.0229 7.44772 12.5752 7 12.0229 7C11.4707 7 11.0229 7.44772 11.0229 8V11C11.0229 11.5523 11.4707 12 12.0229 12C12.5752 12 13.0229 11.5523 13.0229 11V8Z" fill="black"/>
<path d="M9.02295 9C9.02295 8.44772 8.57523 8 8.02295 8C7.47066 8 7.02295 8.44772 7.02295 9V11C7.02295 11.5523 7.47066 12 8.02295 12C8.57523 12 9.02295 11.5523 9.02295 11V9Z" fill="black"/>
</svg>
