<svg xmlns="http://www.w3.org/2000/svg" width="24" height="24" fill="none" viewBox="0 0 24 24"><path fill="#000" fill-rule="evenodd" d="M3.8627 13.9958C5.1195 16.377 7.6201 18 10.5 18c1.7105 0 3.2873-.5726 4.5491-1.5367l4.2438 4.2438c.3905.3905 1.0236.3905 1.4142 0s.3905-1.0237 0-1.4142l-4.2438-4.2438C17.4273 13.7873 18 12.2105 18 10.5 18 6.3579 14.6421 3 10.5 3c-1.5024 0-2.9016.4418-4.0749 1.2025.3755.501.598 1.1232.598 1.7975v.1707a3 3 0 0 1 .1453-.0472A5.476 5.476 0 0 1 10.5 5c3.0375 0 5.5 2.4624 5.5 5.5S13.5375 16 10.5 16c-1.9738 0-3.7047-1.0397-4.675-2.6012A2.987 2.987 0 0 1 4.0229 14a3 3 0 0 1-.1602-.0042M4.023 5c.5522 0 1 .4477 1 1v5c0 .5523-.4478 1-1 1s-1-.4477-1-1V6c0-.5523.4477-1 1-1m7.9999 2c.5523 0 1 .4477 1 1v3c0 .5523-.4477 1-1 1s-1-.4477-1-1V8c0-.5523.4478-1 1-1m-3 2c0-.5523-.4477-1-1-1s-1 .4477-1 1v2c0 .5523.4478 1 1 1s1-.4477 1-1z"/></svg>