<svg width="24" height="24" viewBox="0 0 24 24" fill="none" xmlns="http://www.w3.org/2000/svg">
<path d="M10.4999 18.8501C7.62013 18.8501 5.11947 17.2271 3.8627 14.8459C3.91576 14.8487 3.96919 14.8501 4.02295 14.8501C4.69918 14.8501 5.32316 14.6264 5.82489 14.2489C6.79521 15.8104 8.52613 16.8501 10.4999 16.8501C13.5374 16.8501 15.9999 14.3877 15.9999 11.3501C15.9999 8.31253 13.5374 5.8501 10.4999 5.8501C9.24749 5.8501 8.09288 6.26869 7.1683 6.97359C7.11931 6.98812 7.07085 7.00387 7.02295 7.0208V6.8501C7.02295 6.17584 6.80051 5.55354 6.42502 5.05257C7.59826 4.29186 8.99748 3.8501 10.4999 3.8501C14.642 3.8501 17.9999 7.20796 17.9999 11.3501C17.9999 13.0606 17.4272 14.6374 16.4632 15.8992L20.707 20.143C21.0975 20.5335 21.0975 21.1667 20.707 21.5572C20.3165 21.9477 19.6833 21.9477 19.2928 21.5572L15.049 17.3134C13.7872 18.2775 12.2104 18.8501 10.4999 18.8501Z" fill="black"/>
<path d="M5.02295 6.8501C5.02295 6.29781 4.57523 5.8501 4.02295 5.8501C3.47066 5.8501 3.02295 6.29781 3.02295 6.8501V11.8501C3.02295 12.4024 3.47066 12.8501 4.02295 12.8501C4.57523 12.8501 5.02295 12.4024 5.02295 11.8501V6.8501Z" fill="black"/>
<path d="M13.0229 8.8501C13.0229 8.29781 12.5752 7.8501 12.0229 7.8501C11.4707 7.8501 11.0229 8.29781 11.0229 8.8501V11.8501C11.0229 12.4024 11.4707 12.8501 12.0229 12.8501C12.5752 12.8501 13.0229 12.4024 13.0229 11.8501V8.8501Z" fill="black"/>
<path d="M9.02295 9.8501C9.02295 9.29781 8.57523 8.8501 8.02295 8.8501C7.47066 8.8501 7.02295 9.29781 7.02295 9.8501V11.8501C7.02295 12.4024 7.47066 12.8501 8.02295 12.8501C8.57523 12.8501 9.02295 12.4024 9.02295 11.8501V9.8501Z" fill="black"/>
</svg>
