<svg xmlns="http://www.w3.org/2000/svg" width="24" height="24" fill="none" viewBox="0 0 24 24"><path fill="#000" fill-rule="evenodd" d="M12 1c-1.6569 0-3 1.3432-3 3 0 1.3062.8348 2.4175 2 2.8293V8.126C9.5944 8.4878 8.4878 9.5944 8.126 11H6.8293C6.4175 9.8348 5.3063 9 4 9c-1.6568 0-3 1.3431-3 3s1.3432 3 3 3c1.3062 0 2.4175-.8348 2.8293-2H8.126c.3618 1.4056 1.4684 2.5122 2.874 2.874v1.2967C9.8348 17.5825 9 18.6938 9 20c0 1.6569 1.3431 3 3 3s3-1.3431 3-3c0-1.3062-.8348-2.4175-2-2.8293V15.874c1.4056-.3618 2.5122-1.4684 2.874-2.874h1.2967c.4118 1.1652 1.5231 2 2.8293 2 1.6569 0 3-1.3431 3-3s-1.3431-3-3-3c-1.3062 0-2.4175.8348-2.8293 2H15.874C15.5122 9.5944 14.4056 8.4878 13 8.126V6.8293c1.1652-.4118 2-1.523 2-2.8293 0-1.6568-1.3431-3-3-3m-1 3c0-.5523.4477-1 1-1s1 .4477 1 1-.4477 1-1 1-1-.4477-1-1m-1 8c0-1.1046.8954-2 2-2s2 .8954 2 2-.8954 2-2 2-2-.8954-2-2m-7 0c0-.5523.4477-1 1-1s1 .4477 1 1-.4477 1-1 1-1-.4477-1-1m17-1c-.5523 0-1 .4477-1 1s.4477 1 1 1 1-.4477 1-1-.4477-1-1-1m-8 8c-.5523 0-1 .4477-1 1s.4477 1 1 1 1-.4477 1-1-.4477-1-1-1"/></svg>