<svg width="24" height="24" viewBox="0 0 24 24" fill="none" xmlns="http://www.w3.org/2000/svg">
<path fill-rule="evenodd" clip-rule="evenodd" d="M17.8127 1.30884C15.8659 1.30884 14.2876 2.8871 14.2876 4.83398C14.2876 5.12819 14.3236 5.41399 14.3916 5.68718L8.54305 9.28312C7.91871 8.72189 7.09286 8.3804 6.18726 8.3804C4.24037 8.3804 2.66211 9.95866 2.66211 11.9055C2.66211 13.8524 4.24037 15.4307 6.18726 15.4307C7.05677 15.4307 7.85276 15.1159 8.46746 14.594L14.4086 18.2469C14.3297 18.5399 14.2876 18.8479 14.2876 19.1658C14.2876 21.1127 15.8659 22.691 17.8127 22.691C19.7596 22.691 21.3379 21.1127 21.3379 19.1658C21.3379 17.2189 19.7596 15.6407 17.8127 15.6407C16.907 15.6407 16.0811 15.9822 15.4568 16.5436L9.56411 12.9205C9.66057 12.5991 9.7124 12.2584 9.7124 11.9055C9.7124 11.5876 9.6703 11.2794 9.59137 10.9864L15.407 7.41064C16.0369 7.99902 16.8828 8.35913 17.8127 8.35913C19.7596 8.35913 21.3379 6.78087 21.3379 4.83398C21.3379 2.8871 19.7596 1.30884 17.8127 1.30884ZM16.2876 4.83398C16.2876 3.99167 16.9704 3.30884 17.8127 3.30884C18.6551 3.30884 19.3379 3.99167 19.3379 4.83398C19.3379 5.6763 18.6551 6.35913 17.8127 6.35913C16.9704 6.35913 16.2876 5.6763 16.2876 4.83398ZM17.8127 17.6407C16.9704 17.6407 16.2876 18.3235 16.2876 19.1658C16.2876 20.0081 16.9704 20.691 17.8127 20.691C18.6551 20.691 19.3379 20.0081 19.3379 19.1658C19.3379 18.3235 18.6551 17.6407 17.8127 17.6407ZM4.66211 11.9055C4.66211 11.0632 5.34494 10.3804 6.18726 10.3804C7.02957 10.3804 7.7124 11.0632 7.7124 11.9055C7.7124 12.7479 7.02957 13.4307 6.18726 13.4307C5.34494 13.4307 4.66211 12.7479 4.66211 11.9055Z" fill="black"/>
</svg>
