<svg xmlns="http://www.w3.org/2000/svg" width="24" height="24" fill="none" viewBox="0 0 24 24"><path fill="#000" fill-rule="evenodd" d="M17.1423 1.309c-1.9469 0-3.5251 1.5782-3.5251 3.5251 0 .2942.036.58.1039.8532l-5.8485 3.596a3.512 3.512 0 0 0-2.3558-.9028c-1.9468 0-3.5251 1.5783-3.5251 3.5252s1.5783 3.5251 3.5252 3.5251a3.51 3.51 0 0 0 2.2802-.8367l5.9411 3.6529a3.53 3.53 0 0 0-.121.919c0 1.9468 1.5782 3.5251 3.5251 3.5251s3.5252-1.5783 3.5252-3.5251-1.5783-3.5252-3.5252-3.5252a3.512 3.512 0 0 0-2.3559.9029l-5.8927-3.6231a3.53 3.53 0 0 0 .1483-1.0149 3.53 3.53 0 0 0-.121-.9192l5.8156-3.5757c.6299.5883 1.4758.9484 2.4057.9484 1.9469 0 3.5252-1.5782 3.5252-3.525 0-1.947-1.5783-3.5252-3.5252-3.5252m-1.5251 3.525c0-.8423.6828-1.5251 1.5251-1.5251s1.5252.6828 1.5252 1.5251-.6829 1.5252-1.5252 1.5252-1.5251-.6829-1.5251-1.5252m1.5251 12.8067c-.8423 0-1.5251.6828-1.5251 1.5252s.6828 1.5251 1.5251 1.5251 1.5252-.6828 1.5252-1.5251c0-.8424-.6829-1.5252-1.5252-1.5252m-13.1506-5.735c0-.8423.6828-1.5252 1.5252-1.5252s1.525.6829 1.525 1.5252-.6827 1.5251-1.525 1.5251c-.8424 0-1.5252-.6828-1.5252-1.5251"/></svg>