<svg xmlns="http://www.w3.org/2000/svg" width="24" height="24" fill="none" viewBox="0 0 24 24"><path fill="#000" fill-rule="evenodd" d="M11.0997 2.3516a2 2 0 0 1 1.8428 0l6.5604 3.4053a1 1 0 0 1 .5393.8876v5.1703c0 .9972-.1127 2.0766-.5301 3.1027-1.1255 2.7671-2.9086 4.5232-4.4105 5.5847-.7499.53-1.4318.8886-1.9322 1.1167a9 9 0 0 1-.6042.2508c-.1751.0649-.3549.1303-.5441.1303-.1771 0-.3479-.0567-.5141-.1119a8.4 8.4 0 0 1-.6151-.2338c-.5086-.2152-1.2004-.5594-1.96-1.0832-1.5239-1.0509-3.3176-2.824-4.4366-5.7024C4.1068 13.8696 4 12.8253 4 11.8567V6.6445a1 1 0 0 1 .5393-.8876zM9.2929 9.2929c.3905-.3905 1.0237-.3905 1.4142 0L12 10.5858l1.2929-1.2929c.3905-.3905 1.0237-.3905 1.4142 0s.3905 1.0237 0 1.4142L13.4142 12l1.2929 1.2929c.3905.3905.3905 1.0237 0 1.4142s-1.0237.3905-1.4142 0L12 13.4142l-1.2929 1.2929c-.3905.3905-1.0237.3905-1.4142 0s-.3905-1.0237 0-1.4142L10.5858 12l-1.293-1.2929c-.3904-.3905-.3904-1.0237 0-1.4142"/></svg>