<svg xmlns="http://www.w3.org/2000/svg" width="24" height="24" fill="none" viewBox="0 0 24 24"><path fill="#000" fill-rule="evenodd" d="M17.4251 14.7q.122-.2601.2343-.5361c.2827-.695.3826-1.4882.3826-2.3491V7.2521l-6.021-3.1254L8.6181 5.893 7.1349 4.4096l3.9648-2.058a2 2 0 0 1 1.8428 0l6.5604 3.4053a1 1 0 0 1 .5392.8876v5.1703c0 .9972-.1126 2.0766-.53 3.1027a13.2 13.2 0 0 1-.5976 1.2718zM2.2016 4.885l1.7983 1.7982v5.1734c0 .9687.1068 2.013.4952 3.0121 1.119 2.8783 2.9128 4.6515 4.4368 5.7024.7595.5238 1.4513.868 1.9599 1.0832.2546.1078.4643.1836.6151.2337.0754.0251.1361.0438.1805.0569q.0333.0097.0541.0154l.0174.0048.0063.0016.0025.0007.0011.0003c.0005.0001.0018-.003.2511-.9637l-.2501.9639c.1774.0461.365.0422.5406-.0107l.001-.0003.0023-.0007.0059-.0018.0167-.0053a3 3 0 0 0 .0524-.017 6 6 0 0 0 .1764-.0624 9 9 0 0 0 .6042-.2508c.5004-.2281 1.1823-.5867 1.9322-1.1167a12.6 12.6 0 0 0 1.4859-1.2315l2.4364 2.4364c.3906.3906 1.0237.3906 1.4143 0s.3905-1.0236 0-1.4142L3.6158 3.4707c-.3905-.3905-1.0237-.3905-1.4142 0s-.3905 1.0237 0 1.4142m10.1088 17.0722L12.021 21c.2878.9553.2889.9574.2894.9572m1.6368-3.0882c.3933-.278.8099-.6127 1.2258-1.0127L5.9999 8.6832v3.1734c0 .8345.0944 1.6059.3593 2.2874.949 2.4408 2.452 3.9145 3.7081 4.7806.6304.4348 1.1993.7166 1.6039.8878.1288.0546.2406.0977.3318.1308a7.5 7.5 0 0 0 .3368-.1442c.406-.185.9757-.4836 1.6074-.93"/></svg>