<svg xmlns="http://www.w3.org/2000/svg" width="24" height="24" fill="none" viewBox="0 0 24 24"><path fill="#000" fill-rule="evenodd" d="M12.9425 2.3516a2 2 0 0 0-1.8428 0L4.5393 5.7569A1 1 0 0 0 4 6.6445v5.2122c0 .9686.1068 2.0129.4953 3.012 1.119 2.8784 2.9127 4.6515 4.4367 5.7024.7595.5238 1.4513.868 1.9599 1.0832.2546.1078.4643.1836.6151.2338.1667.0554.3383.1119.5141.1119.1892 0 .369-.0654.5441-.1303a9 9 0 0 0 .6042-.2508c.5004-.2281 1.1823-.5867 1.9322-1.1167 1.5019-1.0615 3.285-2.8176 4.4105-5.5847.4174-1.0261.5301-2.1055.5301-3.1027V6.6445a1 1 0 0 0-.5393-.8876zM12 7c.5523 0 1 .4477 1 1v4c0 .5523-.4477 1-1 1s-1-.4477-1-1V8c0-.5523.4477-1 1-1m0 9c.5523 0 1-.4477 1-1s-.4477-1-1-1-1 .4477-1 1 .4477 1 1 1"/></svg>