<svg xmlns="http://www.w3.org/2000/svg" width="24" height="24" fill="none" viewBox="0 0 24 24"><path fill="#000" fill-rule="evenodd" d="M11.0997 2.3516a2 2 0 0 1 1.8428 0l6.5604 3.4053a1 1 0 0 1 .5393.8876v5.1703c0 .9972-.1127 2.0766-.5301 3.1027-1.1255 2.767-2.9086 4.5232-4.4105 5.5847-.7499.53-1.4318.8886-1.9322 1.1167a9 9 0 0 1-.6042.2508 6 6 0 0 1-.1764.0624 3 3 0 0 1-.0524.017l-.0167.0053-.0059.0018-.0023.0007-.0019.0006L12.0211 21c.2862.9501.288.9576.2885.9575a1 1 0 0 1-.5397.0104l.2509-.9669c-.25.9636-.2514.9668-.2519.9667l-.0011-.0003-.0025-.0007-.0063-.0016-.0174-.0048-.0541-.0154a6 6 0 0 1-.1805-.0569 8.3 8.3 0 0 1-.6151-.2337c-.5086-.2152-1.2004-.5594-1.96-1.0832-1.5239-1.0509-3.3176-2.8241-4.4366-5.7024C4.1069 13.8696 4 12.8253 4 11.8566V6.6445a1 1 0 0 1 .5393-.8876zm.9034 17.5916a7 7 0 0 1-.3318-.1308c-.4046-.1712-.9735-.453-1.6039-.8878-1.256-.8661-2.7591-2.3398-3.708-4.7806C6.0943 13.4625 6 12.6911 6 11.8566V7.2521l6.0211-3.1254 6.0211 3.1254v4.5627c0 .8609-.1 1.6541-.3827 2.3491-.9519 2.3403-2.4511 3.8138-3.7122 4.7051-.6316.4464-1.2014.745-1.6074.93a7.5 7.5 0 0 1-.3368.1442m-3.1613-8.4033.0016-.0025a1 1 0 0 1 .0246-.0348 2.6 2.6 0 0 1 .1305-.1637 3.8 3.8 0 0 1 .5794-.5429C10.0982 10.4003 10.8909 10 12 10s1.9018.4003 2.4221.796c.263.2.4557.3988.5794.5429.0615.0716.105.1286.1305.1637.0128.0175.021.0294.0246.0348l.0017.0025c.2961.4618.9098.5992 1.3748.3062.4673-.2945.6068-.9128.3124-1.38l-.0005-.0009-.0012-.0019-.0028-.0044-.0071-.0109-.0202-.0304a3 3 0 0 0-.0647-.0921 4.7 4.7 0 0 0-.2299-.2893 5.8 5.8 0 0 0-.8864-.8322C14.838 8.5997 13.6307 8 12 8s-2.838.5997-3.6327 1.204a5.8 5.8 0 0 0-.8864.8322 4.7 4.7 0 0 0-.2299.2893 3.4 3.4 0 0 0-.0849.1225l-.007.0109-.0029.0044-.0012.0019-.001.0017c-.2945.4673-.1544 1.0847.3129 1.3792.465.293 1.0788.1556 1.3749-.3062m4.3215 2.0078c.298.4556.9074.5897 1.3698.2984.4673-.2945.6074-.9119.313-1.3792l-.0011-.0017-.0011-.0017-.0025-.0038-.0056-.0088-.0147-.022a2 2 0 0 0-.0424-.0604 2.8 2.8 0 0 0-.1398-.1761 3.4 3.4 0 0 0-.5199-.4884C13.6531 11.3497 12.9458 11 12 11s-1.6531.3497-2.119.704a3.4 3.4 0 0 0-.52.4884 3 3 0 0 0-.1397.1761 2 2 0 0 0-.0424.0604l-.0147.022-.0056.0088-.0025.0038-.0011.0017-.0005.0009c-.2945.4673-.1549 1.0855.3124 1.38.4624.2913 1.0718.1572 1.3698-.2984l.0015-.0021a.8.8 0 0 1 .0404-.0505 1.4 1.4 0 0 1 .213-.1991c.1916-.1457.4843-.296.9084-.296s.7168.1503.9084.296c.0986.075.1697.1488.213.1991a.8.8 0 0 1 .0404.0505zm-2.3266 0-.0013.0019.0006-.0009.0029-.0044zm-1.6822-1.0816.8453.5338c-.8459-.533-.8456-.5334-.8453-.5338m5.6916.0008a5 5 0 0 1-.1073.0678l-.7151.4504zM13 15c0 .5523-.4477 1-1 1s-1-.4477-1-1 .4477-1 1-1 1 .4477 1 1"/></svg>