<svg xmlns="http://www.w3.org/2000/svg" width="24" height="24" fill="none" viewBox="0 0 24 24"><path fill="#000" fill-rule="evenodd" d="M11.0997 2.3516a2 2 0 0 1 1.8428 0l6.5604 3.4053a1 1 0 0 1 .5393.8876v5.1703c0 .9972-.1127 2.0766-.5301 3.1027-1.1255 2.7671-2.9086 4.5232-4.4105 5.5847-.7499.53-1.4318.8886-1.9322 1.1167-.2585.1179-.8694.3811-1.1483.3811s-1.0181-.2986-1.1292-.3457c-.5086-.2152-1.2004-.5594-1.96-1.0832-1.5239-1.0509-3.3176-2.824-4.4366-5.7024C4.1068 13.8696 4 12.8253 4 11.8567V6.6445a1 1 0 0 1 .5393-.8876zm4.8743 6.9189c.4029.3777.4233 1.0105.0456 1.4134l-3.75 4a1 1 0 0 1-1.4257.034l-2.25-2.1818c-.3965-.3845-.4062-1.0176-.0218-1.4141s1.0176-.4062 1.414-.0217l1.52 1.4738 3.0544-3.258c.3777-.403 1.0106-.4234 1.4135-.0456"/></svg>