<svg width="24" height="24" viewBox="0 0 24 24" fill="none" xmlns="http://www.w3.org/2000/svg">
<path d="M12 7.00002C12.5523 7.00002 13 7.44773 13 8.00002V13C13 13.5523 12.5523 14 12 14C11.4477 14 11 13.5523 11 13V8.00002C11 7.44773 11.4477 7.00002 12 7.00002Z" fill="black"/>
<path d="M12 17C12.5523 17 13 16.5523 13 16C13 15.4477 12.5523 15 12 15C11.4477 15 11 15.4477 11 16C11 16.5523 11.4477 17 12 17Z" fill="black"/>
<path fill-rule="evenodd" clip-rule="evenodd" d="M11.0997 2.3516C11.6774 2.05174 12.3648 2.05174 12.9425 2.3516L19.5029 5.75693C19.8342 5.92892 20.0422 6.27116 20.0422 6.64448V11.8148C20.0422 12.812 19.9295 13.8914 19.5121 14.9175C18.3866 17.6846 16.6035 19.4407 15.1016 20.5022C14.3517 21.0322 13.6698 21.3908 13.1694 21.6189C12.9189 21.7331 12.7129 21.815 12.5652 21.8697C12.4914 21.8971 12.432 21.9176 12.3888 21.9321C12.3673 21.9393 12.3497 21.9449 12.3364 21.9492L12.3197 21.9544L12.3138 21.9562L12.3115 21.9569L12.3105 21.9572C12.31 21.9574 12.3096 21.9575 12.0211 21C11.7699 21.968 11.7694 21.9678 11.7689 21.9677L11.7678 21.9674L11.7653 21.9668L11.759 21.9651L11.7416 21.9603C11.7278 21.9565 11.7097 21.9514 11.6875 21.9449C11.6431 21.9318 11.5824 21.9131 11.507 21.8881C11.3562 21.8379 11.1465 21.7621 10.8919 21.6543C10.3833 21.4391 9.69148 21.0949 8.93197 20.5711C7.40804 19.5202 5.61429 17.7471 4.49525 14.8687C4.10685 13.8696 4 12.8253 4 11.8567V6.64448C4 6.27116 4.20795 5.92892 4.53929 5.75693L11.0997 2.3516ZM12.0031 19.9432C11.9119 19.9101 11.8001 19.867 11.6713 19.8125C11.2667 19.6412 10.6978 19.3594 10.0674 18.9246C8.81141 18.0585 7.30826 16.5848 6.35934 14.144C6.09439 13.4625 6 12.6911 6 11.8567V7.2521L12.0211 4.12671L18.0422 7.2521V11.8148C18.0422 12.6757 17.9422 13.4689 17.6595 14.1639C16.7076 16.5042 15.2084 17.9777 13.9473 18.869C13.3157 19.3154 12.7459 19.614 12.3399 19.799C12.209 19.8587 12.0956 19.9064 12.0031 19.9432Z" fill="black"/>
<path d="M12.0211 21L12.3105 21.9572C12.1349 22.0101 11.9473 22.014 11.7699 21.968L12.0211 21Z" fill="black"/>
</svg>
