<svg xmlns="http://www.w3.org/2000/svg" width="24" height="24" fill="none" viewBox="0 0 24 24"><path fill="#000" fill-rule="evenodd" d="M12.9425 2.3516a2 2 0 0 0-1.8428 0L4.5393 5.757A1 1 0 0 0 4 6.6445v5.2121c0 .9687.1069 2.013.4953 3.0121 1.119 2.8783 2.9127 4.6515 4.4367 5.7024.7595.5238 1.4513.868 1.9599 1.0832.2546.1078.4643.1836.6151.2337.0754.0251.1361.0438.1805.0569q.0334.0097.0541.0154l.0174.0048.0063.0016.0025.0007.0011.0003c.0005.0001.0017-.0027.2125-.8149l-.2115.8151c.1774.0461.365.0422.5406-.0107l.001-.0003.0023-.0007.0059-.0018.0167-.0053a3 3 0 0 0 .0524-.017 6 6 0 0 0 .1764-.0624 9 9 0 0 0 .6042-.2508c.5004-.2281 1.1823-.5867 1.9322-1.1167 1.5019-1.0615 3.285-2.8177 4.4105-5.5847.4174-1.0261.5301-2.1055.5301-3.1027V6.6445a1 1 0 0 0-.5393-.8876zm-1.2712 17.4608c.1288.0546.2406.0977.3318.1308a7.5 7.5 0 0 0 .3368-.1442c.406-.185.9758-.4836 1.6074-.93 1.2611-.8913 2.7603-2.3648 3.7122-4.7051.2827-.695.3827-1.4882.3827-2.3491V7.2521l-6.0211-3.1254L6 7.2521v4.6045c0 .8345.0944 1.6059.3593 2.2874.949 2.4408 2.4521 3.9145 3.7081 4.7806.6304.4348 1.1993.7166 1.6039.8878M12 7c.5523 0 1 .4477 1 1v5c0 .5523-.4477 1-1 1s-1-.4477-1-1V8c0-.5523.4477-1 1-1m1 9c0 .5523-.4477 1-1 1s-1-.4477-1-1 .4477-1 1-1 1 .4477 1 1"/></svg>