<svg xmlns="http://www.w3.org/2000/svg" width="24" height="24" fill="none" viewBox="0 0 24 24"><path fill="#000" fill-rule="evenodd" d="M11.3213 2.2525a2 2 0 0 1 1.6211.0986l6.5605 3.4053c.3313.172.539.5145.5391.8877v5.1699c0 .997-.1131 2.0766-.5303 3.1025-1.1254 2.767-2.9083 4.5235-4.4101 5.585-.7497.5299-1.4314.8891-1.9317 1.1172a9 9 0 0 1-.6045.251c-.0738.0273-.1336.0471-.1767.0615-.0213.0071-.0386.0134-.0518.0176-.0066.0021-.0131.0035-.0176.0049l-.0058.0019-.002.001-.29-.957.2881.957a1 1 0 0 1-.5401.0107h-.0019l-.002-.001-.0068-.0019-.0176-.0049c-.0137-.0038-.0319-.0082-.0537-.0146a6 6 0 0 1-.1807-.0577 8.3 8.3 0 0 1-.6152-.2334c-.5085-.2152-1.2006-.5593-1.96-1.083-1.5238-1.0509-3.3175-2.8241-4.4365-5.7021C4.1068 13.8697 4 12.8245 4 11.856V6.644a1.001 1.001 0 0 1 .539-.8876l6.5606-3.4053zM6 7.2515v4.6045c0 .8342.0946 1.6058.3594 2.2871.9489 2.4407 2.452 3.9151 3.708 4.7813.6301.4345 1.1989.7164 1.6035.8877a6.7 6.7 0 0 0 .333.1289 7.4 7.4 0 0 0 .3359-.1426c.406-.185.9759-.4834 1.6075-.9297 1.261-.8913 2.76-2.365 3.7119-4.7051.2826-.6949.3828-1.4888.3828-2.3496V7.2515l-3.2022-1.6621-1.3974 3.4639 2.3945 2.249.1016.1123c.2156.2746.2751.6462.1465.9785l-1.1524 2.9688c-.1999.5147-.7801.7701-1.2949.5703-.5146-.2-.7702-.7802-.5703-1.295l.9082-2.3398-2.4014-2.2549a1 1 0 0 1-.2431-1.1025l1.7255-4.2764-1.0351-.5371z"/></svg>