<svg xmlns="http://www.w3.org/2000/svg" width="24" height="24" fill="none" viewBox="0 0 24 24"><path fill="#000" fill-rule="evenodd" d="M11.0997 2.3516a2 2 0 0 1 1.8428 0l6.5604 3.4053a1 1 0 0 1 .5393.8876v5.1703c0 .9972-.1127 2.0766-.5301 3.1027-1.1255 2.7671-2.9086 4.5232-4.4105 5.5847-.7499.53-1.4318.8886-1.9322 1.1167a9 9 0 0 1-.6042.2508 6 6 0 0 1-.1764.0624q-.0323.0107-.0524.0171l-.0167.0052-.0059.0018-.0023.0007-.001.0003s-.0009.0003-.2894-.9572c-.2512.968-.2522.9677-.2522.9677l-.0011-.0003-.0025-.0006-.0063-.0017-.0174-.0048-.0541-.0154a6 6 0 0 1-.1805-.0568 8.4 8.4 0 0 1-.6151-.2338c-.5086-.2152-1.2004-.5594-1.96-1.0832-1.5239-1.0509-3.3176-2.824-4.4366-5.7024C4.1068 13.8696 4 12.8253 4 11.8567V6.6445a1 1 0 0 1 .5393-.8876zM12.0211 21l-.2512.968c.1774.046.365.0421.5406-.0108zm-.018-1.0568a7 7 0 0 1-.3318-.1307c-.4046-.1713-.9735-.4531-1.6039-.8879-1.256-.8661-2.7591-2.3398-3.708-4.7806C6.0943 13.4625 6 12.6911 6 11.8567V7.2521l6.0211-3.1254 6.0211 3.1254v4.5627c0 .8609-.1 1.6541-.3827 2.3491-.9519 2.3403-2.4511 3.8138-3.7122 4.7051-.6316.4464-1.2014.745-1.6074.93a7.5 7.5 0 0 1-.3368.1442"/></svg>