<svg xmlns="http://www.w3.org/2000/svg" width="24" height="24" fill="none" viewBox="0 0 24 24"><path fill="#000" fill-rule="evenodd" d="M12.9425 2.3516a2 2 0 0 0-1.8428 0L4.5393 5.7569A1 1 0 0 0 4 6.6445v5.2122c0 .9686.1068 2.0129.4953 3.012 1.119 2.8784 2.9127 4.6515 4.4367 5.7024.7595.5238 1.4513.868 1.9599 1.0832.2546.1078.4643.1836.6151.2338q.059.0195.1058.0341a1.01 1.01 0 0 0 .4088.0778 1 1 0 0 0 .288-.0425l-.0018-.0059.0018.0059.0019-.0006.0023-.0007.0059-.0018.0167-.0052q.02-.0064.0524-.0171a6 6 0 0 0 .1764-.0624 9 9 0 0 0 .6042-.2508c.5004-.2281 1.1823-.5867 1.9322-1.1167 1.5019-1.0615 3.285-2.8176 4.4105-5.5847.4174-1.0261.5301-2.1055.5301-3.1027V6.6445a1 1 0 0 0-.5393-.8876zm.4779 16.8665c.1689-.1047.3453-.2208.5269-.3491 1.2611-.8913 2.7603-2.3648 3.7122-4.7051.2827-.695.3827-1.4882.3827-2.3491V7.2521L13.232 4.7552 11.7626 11H14a1 1 0 0 1 .9762 1.2169zm-2.192-14.68L6 7.2522v4.6046c0 .8344.0944 1.6058.3593 2.2873.949 2.4408 2.4521 3.9145 3.7081 4.7806a9.34 9.34 0 0 0 1.2118.7094L12.7534 13H10.5a1 1 0 0 1-.9734-1.229z"/></svg>