<svg width="24" height="24" viewBox="0 0 24 24" fill="none" xmlns="http://www.w3.org/2000/svg">
<path d="M12 3.8501C12.5523 3.8501 13 4.29781 13 4.8501C13 5.40238 12.5523 5.8501 12 5.8501H6C5.44772 5.8501 5 6.29781 5 6.8501V18.8501C5 19.4024 5.44772 19.8501 6 19.8501H12C12.5523 19.8501 13 20.2978 13 20.8501C13 21.4024 12.5523 21.8501 12 21.8501H6C4.34315 21.8501 3 20.507 3 18.8501V6.8501C3 5.19324 4.34315 3.8501 6 3.8501H12Z" fill="black"/>
<path d="M16.6585 8.59752C16.2429 8.23384 15.6111 8.27596 15.2474 8.69159C14.8837 9.10723 14.9259 9.73899 15.3415 10.1027L17.3386 11.8501H10C9.44772 11.8501 9 12.2978 9 12.8501C9 13.4024 9.44772 13.8501 10 13.8501H17.3386L15.3415 15.5975C14.9259 15.9612 14.8837 16.593 15.2474 17.0086C15.6111 17.4242 16.2429 17.4664 16.6585 17.1027L20.6585 13.6027C20.8755 13.4128 21 13.1385 21 12.8501C21 12.5617 20.8755 12.2874 20.6585 12.0975L16.6585 8.59752Z" fill="black"/>
</svg>
