<svg width="24" height="24" viewBox="0 0 24 24" fill="none" xmlns="http://www.w3.org/2000/svg">
<path d="M12 3C12.5523 3 13 3.44772 13 4C13 4.55228 12.5523 5 12 5H6C5.44772 5 5 5.44772 5 6V18C5 18.5523 5.44772 19 6 19H12C12.5523 19 13 19.4477 13 20C13 20.5523 12.5523 21 12 21H6C4.34315 21 3 19.6569 3 18V6C3 4.34315 4.34315 3 6 3H12Z" fill="black"/>
<path d="M16.6585 7.74742C16.2429 7.38374 15.6111 7.42586 15.2474 7.8415C14.8837 8.25713 14.9259 8.88889 15.3415 9.25258L17.3386 11H10C9.44772 11 9 11.4477 9 12C9 12.5523 9.44772 13 10 13H17.3386L15.3415 14.7474C14.9259 15.1111 14.8837 15.7429 15.2474 16.1585C15.6111 16.5741 16.2429 16.6163 16.6585 16.2526L20.6585 12.7526C20.8755 12.5627 21 12.2884 21 12C21 11.7116 20.8755 11.4373 20.6585 11.2474L16.6585 7.74742Z" fill="black"/>
</svg>
