<svg xmlns="http://www.w3.org/2000/svg" width="24" height="24" fill="none" viewBox="0 0 24 24"><path fill="#000" fill-rule="evenodd" d="M13 4c0-.5523-.4477-1-1-1H6C4.3431 3 3 4.3431 3 6v12c0 1.6569 1.3431 3 3 3h6c.5523 0 1-.4477 1-1s-.4477-1-1-1H6c-.5523 0-1-.4477-1-1V6c0-.5523.4477-1 1-1h6c.5523 0 1-.4477 1-1m2.2474 3.8415c.3637-.4156.9955-.4578 1.4111-.094l4 3.4999a1 1 0 0 1 0 1.5052l-4 3.5c-.4156.3637-1.0474.3215-1.4111-.0941s-.3215-1.0474.0941-1.4111L17.3386 13H10c-.5523 0-1-.4477-1-1s.4477-1 1-1h7.3386l-1.9971-1.7474c-.4156-.3637-.4578-.9955-.0941-1.4111"/></svg>