<svg xmlns="http://www.w3.org/2000/svg" width="24" height="24" fill="none" viewBox="0 0 24 24"><path fill="#000" fill-rule="evenodd" d="M18.1516 21.7803Q17.6214 22 17 22H7q-.6214 0-1.1516-.2197-.5303-.2196-.9697-.659t-.659-.9697T4 19V8.207q0-.3106.1099-.5757.1097-.2652.3296-.4849l4.707-4.707q.2197-.2198.4848-.3295l.0013-.0005Q9.897 2 10.207 2H17q.6214 0 1.1516.2197.5303.2196.9697.659t.659.9696Q20 4.3787 20 5v14q0 .6213-.2197 1.1517-.2196.5302-.659.9696t-.9697.659m-4.8191-4.8806h-1.6919V9.158h-.1675l-1.9208 1.0766v-1.75l2.3686-1.3843h1.4116z"/></svg>