<svg xmlns="http://www.w3.org/2000/svg" width="24" height="24" fill="none" viewBox="0 0 24 24"><path fill="#000" fill-rule="evenodd" d="M18.1516 21.7803Q17.6214 22 17 22H7q-.6214 0-1.1516-.2197-.5303-.2196-.9697-.659t-.659-.9697T4 19V8.207q0-.3106.1099-.5757.1097-.2652.3296-.4849l4.707-4.707q.2197-.2198.4848-.3295l.0013-.0005Q9.897 2 10.207 2H17q.6214 0 1.1516.2197.5303.2196.9697.659t.659.9696Q20 4.3787 20 5v14q0 .6213-.2197 1.1517-.2196.5302-.659.9696t-.9697.659M8.698 16.9834v-1.3877l3.3428-3.4556q.8851-.9262 1.1792-1.3945.294-.4683.2939-.875 0-.4234-.1948-.7182a1.1 1.1 0 0 0-.2122-.2372q-.3914-.3333-1.0661-.3332-.6365 0-1.0647.2987a1.5 1.5 0 0 0-.0974.0739 1.32 1.32 0 0 0-.2049.2106q-.257.3322-.2976.8319h-1.75q.0333-.718.3318-1.3a2.9 2.9 0 0 1 .1502-.2586 2.93 2.93 0 0 1 .3981-.4907q.3398-.336.7913-.5586.7519-.3726 1.7158-.3726.981 0 1.7158.3418.5897.2742.9637.7267a2.5 2.5 0 0 1 .2859.4303q.2851.5468.2851 1.2424 0 .363-.0903.702a2.7 2.7 0 0 1-.1148.3371q-.2017.4887-.6562 1.0698-.4546.581-1.3091 1.4629l-1.7944 1.8491v.1812h4.2417v1.6235z"/></svg>