<svg xmlns="http://www.w3.org/2000/svg" width="24" height="24" fill="none" viewBox="0 0 24 24"><path fill="#000" fill-rule="evenodd" d="M18.1517 21.7803Q17.6213 22 17 22H7q-.6213 0-1.1517-.2197-.5303-.2196-.9696-.659t-.659-.9697T4 19V8.207q0-.3106.1098-.5757.1099-.2652.3295-.4849l4.7071-4.707q.2197-.2198.4849-.3296T10.207 2H17q.6213 0 1.1516.2197.5304.2195.9697.659.4394.4392.659.9697Q20 4.3787 20 5v14q0 .6213-.2197 1.1516-.2196.5304-.659.9697t-.9696.659M7 20h10q.2071 0 .3839-.0732t.3232-.2197.2197-.3232T18 19V5q0-.207-.0732-.3839-.0732-.1767-.2197-.3232-.1464-.1465-.3232-.2197T17 4h-6.5858L6 8.4142V19q0 .2071.0732.3839t.2197.3232.3232.2197T7 20m6.1678-3.1003H11.476V9.158h-.1675l-1.921 1.0766v-1.75l2.3687-1.3843h1.4116z"/></svg>