<svg width="24" height="24" viewBox="0 0 24 24" fill="none" xmlns="http://www.w3.org/2000/svg">
<path d="M9 12C9 11.4477 8.55229 11 8 11C7.44772 11 7 11.4477 7 12V14C7 14.5523 7.44772 15 8 15C8.55229 15 9 14.5523 9 14V12Z" fill="black"/>
<path d="M13 12C13 11.4477 12.5523 11 12 11C11.4477 11 11 11.4477 11 12V13C11 13.5523 11.4477 14 12 14C12.5523 14 13 13.5523 13 13V12Z" fill="black"/>
<path d="M17 12C17 11.4477 16.5523 11 16 11C15.4477 11 15 11.4477 15 12V14C15 14.5523 15.4477 15 16 15C16.5523 15 17 14.5523 17 14V12Z" fill="black"/>
<path d="M13 16C13 15.4477 12.5523 15 12 15C11.4477 15 11 15.4477 11 16V18C11 18.5523 11.4477 19 12 19C12.5523 19 13 18.5523 13 18V16Z" fill="black"/>
<path d="M9 17C9 16.4477 8.55229 16 8 16C7.44772 16 7 16.4477 7 17V18C7 18.5523 7.44772 19 8 19C8.55229 19 9 18.5523 9 18V17Z" fill="black"/>
<path d="M17 17C17 16.4477 16.5523 16 16 16C15.4477 16 15 16.4477 15 17V18C15 18.5523 15.4477 19 16 19C16.5523 19 17 18.5523 17 18V17Z" fill="black"/>
<path fill-rule="evenodd" clip-rule="evenodd" d="M17 2C18.6569 2 20 3.34315 20 5V19C20 20.6569 18.6569 22 17 22H7C5.34315 22 4 20.6569 4 19V8.20711C4 7.80928 4.15803 7.42775 4.43934 7.14645L9.14645 2.43934C9.42775 2.15804 9.80928 2 10.2071 2H17ZM18 5C18 4.44772 17.5523 4 17 4H10.4142L6 8.41421V19C6 19.5523 6.44772 20 7 20H17C17.5523 20 18 19.5523 18 19V5Z" fill="black"/>
</svg>
