<svg xmlns="http://www.w3.org/2000/svg" width="24" height="24" fill="none" viewBox="0 0 24 24"><path fill="#000" fill-rule="evenodd" d="M18.1517 21.7803Q17.6213 22 17 22H7q-.6213 0-1.1517-.2197-.5303-.2196-.9696-.659t-.659-.9697T4 19V8.207q0-.3106.1098-.5757.1099-.2652.3295-.4849l4.7071-4.707q.2197-.2198.4849-.3296T10.207 2H17q.6213 0 1.1516.2197.5304.2195.9697.659.4394.4392.659.9697Q20 4.3787 20 5v14q0 .6213-.2197 1.1516-.2196.5304-.659.9697t-.9696.659M7 20h10q.2071 0 .3839-.0732t.3232-.2197.2197-.3232T18 19V5q0-.207-.0732-.3839-.0732-.1767-.2197-.3232-.1464-.1465-.3232-.2197T17 4h-6.5858L6 8.4142V19q0 .2071.0732.3839t.2197.3232.3232.2197T7 20m1.6145-3.0166v-1.3877l3.3428-3.4556q.8852-.9262 1.1792-1.3945.2939-.4683.2939-.875 0-.4234-.1948-.7182a1.1 1.1 0 0 0-.1982-.2251l-.014-.0121q-.3912-.3332-1.0661-.3332-.6366 0-1.0648.2986a1.5 1.5 0 0 0-.0973.074 1.3 1.3 0 0 0-.2048.2106q-.257.3322-.2977.8319h-1.75q.0335-.718.3319-1.3a2.9 2.9 0 0 1 .15-.2586 2.93 2.93 0 0 1 .3983-.4908q.3396-.3358.7912-.5585.752-.3726 1.7158-.3726.981 0 1.7159.3418.5895.2742.9636.7267l.0001.0001q.092.1115.171.2336.0623.0958.1148.1966.2851.5468.2851 1.2424 0 .363-.0904.702a2.65 2.65 0 0 1-.1147.3371q-.2016.4887-.6562 1.0698-.4546.581-1.3091 1.4629l-1.7944 1.8491v.1812h4.2417v1.6235z"/></svg>