<svg xmlns="http://www.w3.org/2000/svg" width="24" height="24" fill="none" viewBox="0 0 24 24"><path fill="#000" fill-rule="evenodd" d="M19.9548 13H20.5q.3106 0 .5758-.1098.2652-.11.4849-.3295.2196-.2197.3295-.4849Q22 11.8107 22 11.5V6.1155a.99.99 0 0 0-.072-.3726.99.99 0 0 0-.2057-.3189L20.231 3.8662l-1.4913-1.5577a.99.99 0 0 0-.3297-.2282A.99.99 0 0 0 18.0173 2H14.5q-.3106 0-.5758.1098-.2652.11-.4849.3295-.2196.2197-.3295.4849Q13 3.1894 13 3.5v.9368a9.5 9.5 0 0 1 .4979.1686h.0002a9.4 9.4 0 0 1 .6715.2782q.425.1955.8304.433V4h2v2q0 .4141.2929.7071T18 7h2v4h-.4368q.2963.9629.3916 2M6.9289 21.4142Q8.3431 22 10 22t3.0711-.5858q1.2883-.5337 2.3754-1.5535l2.8464 2.8464c.2821.2822.6792.3633 1.0274.2433q.2123-.0702.3833-.2398l.0035-.0035c.2822-.2821.3633-.6792.2433-1.0274q-.0704-.213-.241-.3845l-.0023-.0023-2.9622-2.9622a7.5 7.5 0 0 0 .6693-1.2596Q18 15.6569 18 14t-.5858-3.0711-1.7573-2.5858-2.5858-1.7573T10 6q-1.657 0-3.071.5858-1.4143.5858-2.5859 1.7573-1.1715 1.1716-1.7573 2.5858T2 14t.5858 3.0711 1.7573 2.5858 2.5858 1.7573m5.3744-1.8535Q11.2426 20 10 20t-2.3033-.4393-1.9393-1.3181q-.8788-.8786-1.318-1.9393Q4 15.2426 4 14t.4393-2.3033q.4395-1.0607 1.318-1.9393.8787-.8788 1.9394-1.318Q8.7574 8 10 8t2.3033.4393q1.0607.4395 1.9393 1.318.8787.8787 1.3181 1.9394T16 14t-.4393 2.3033-1.3181 1.9393q-.8786.8787-1.9393 1.3181M8 18q-.3106 0-.5758-.1098-.2652-.11-.4849-.3295-.2196-.2197-.3295-.4849Q6.5 16.8107 6.5 16.5v-5q0-.3106.1098-.5758.11-.2652.3295-.4849.2197-.2196.4849-.3295Q7.6894 10 8 10h2.3695a.99.99 0 0 1 .4039.0852.99.99 0 0 1 .3351.241l1.0652 1.1684 1.0653 1.1683a1 1 0 0 1 .1935.3125.99.99 0 0 1 .0675.3613V16.5q0 .3107-.1098.5758-.11.2652-.3295.4849-.2197.2196-.4849.3295Q12.3106 18 12 18zm1.5-6v1q0 .4141.2929.7071T10.5 14h1v2h-3v-4z"/></svg>