<svg width="24" height="24" viewBox="0 0 24 24" fill="none" xmlns="http://www.w3.org/2000/svg">
<path d="M21.7071 3.70711C22.0976 3.31659 22.0976 2.68342 21.7071 2.2929C21.3166 1.90237 20.6834 1.90237 20.2929 2.29289L15 7.58578V3.99999C15 3.4477 14.5523 2.99998 14 2.99998C13.4477 2.99998 13 3.4477 13 3.99999L13 9.99999C13 10.0255 13.001 10.0508 13.0029 10.0761C13.0192 10.2914 13.105 10.5024 13.2602 10.6728C13.2708 10.6845 13.2817 10.6959 13.2929 10.7071C13.3041 10.7183 13.3155 10.7292 13.3271 10.7398C13.4979 10.8954 13.7096 10.9812 13.9255 10.9972C13.9502 10.9991 13.975 11 14 11L20 11C20.5523 11 21 10.5523 21 9.99997C21 9.44768 20.5523 8.99997 20 8.99997L16.4142 8.99998L21.7071 3.70711Z" fill="black"/>
<path d="M2.29289 20.2929C1.90237 20.6834 1.90237 21.3166 2.29289 21.7071C2.68341 22.0976 3.31658 22.0976 3.7071 21.7071L9.01756 16.3966L9.01755 20C9.01755 20.5523 9.46527 21 10.0176 21C10.5698 21 11.0175 20.5523 11.0176 20L11.0176 14C11.0176 13.4477 10.5698 13 10.0176 13L4.00003 13C3.44774 13 3.00003 13.4477 3.00003 14C3.00002 14.5523 3.44774 15 4.00002 15L7.58578 15L2.29289 20.2929Z" fill="black"/>
</svg>
