<svg xmlns="http://www.w3.org/2000/svg" width="24" height="24" fill="none" viewBox="0 0 24 24"><path fill="#000" fill-rule="evenodd" d="M21.7071 2.2929c.3905.3905.3905 1.0237 0 1.4142L16.4142 9H20c.5523 0 1 .4477 1 1s-.4477 1-1 1h-6a.996.996 0 0 1-.7398-.3272A.995.995 0 0 1 13 10V4c0-.5523.4477-1 1-1s1 .4477 1 1v3.5858l5.2929-5.2929c.3905-.3905 1.0237-.3905 1.4142 0M2.2929 21.7071c-.3905-.3905-.3905-1.0237 0-1.4142L7.5858 15H4c-.5523 0-1-.4477-1-1s.4477-1 1-1h6.0176c.5523 0 1 .4477 1 1v6c0 .5523-.4478 1-1 1s-1-.4477-1-1v-3.6034L3.707 21.7071c-.3905.3905-1.0237.3905-1.4142 0"/></svg>