<svg xmlns="http://www.w3.org/2000/svg" width="24" height="24" fill="none" viewBox="0 0 24 24"><path fill="#000" fill-rule="evenodd" d="M9.1716 3.1703c1.5621-1.5621 4.0947-1.5621 5.6568 0l6.0013 6.0013c1.5621 1.5621 1.5621 4.0947 0 5.6568l-6.0013 6.0013c-1.5621 1.5621-4.0947 1.5621-5.6568 0l-6.0013-6.0013c-1.5621-1.5621-1.5621-4.0947 0-5.6568zm4.2426 1.4142c-.781-.781-2.0474-.781-2.8284 0l-6.0013 6.0013c-.781.781-.781 2.0474 0 2.8284l6.0013 6.0013c.781.781 2.0474.781 2.8284 0l6.0013-6.0013c.781-.781.781-2.0474 0-2.8284zm-.1098 3.721c0 .7203-.584 1.3043-1.3044 1.3043s-1.3044-.584-1.3044-1.3043S11.2796 7.001 12 7.001s1.3044.584 1.3044 1.3044"/></svg>