<svg xmlns="http://www.w3.org/2000/svg" width="24" height="24" fill="none" viewBox="0 0 24 24"><path fill="#000" fill-rule="evenodd" d="M9 1c.5523 0 1 .4477 1 1v2h4V2c0-.5523.4477-1 1-1s1 .4477 1 1v2h1c1.6569 0 3 1.3431 3 3v5c0 3.3137-2.6863 6-6 6h-1v3c0 .5523-.4477 1-1 1s-1-.4477-1-1v-3h-1c-3.3137 0-6-2.6863-6-6V7c0-1.6569 1.3431-3 3-3h1V2c0-.5523.4477-1 1-1M6 7c0-.5523.4477-1 1-1h10c.5523 0 1 .4477 1 1v5c0 2.2091-1.7909 4-4 4h-4c-2.2091 0-4-1.7909-4-4zm2.7224 4.2496c.2117-.1928 1.4024-1.1879 3.2776-1.1879s3.0659.9951 3.2777 1.1879c.4083.3718 1.0408.3422 1.4126-.0661s.3423-1.0408-.066-1.4127C16.2447 9.4252 14.5906 8.0617 12 8.0617S7.7553 9.4252 7.3758 9.7708c-.4084.3719-.438 1.0044-.0661 1.4127s1.0043.4379 1.4127.0661m3.249 1.8102c-.7843 0-1.2955.4573-1.39.5511-.3923.3888-1.0254.3861-1.4142-.0061-.3889-.3922-.3861-1.0254.006-1.4142.244-.2418 1.2371-1.1308 2.7982-1.1308s2.5542.889 2.7982 1.1308c.3922.3888.3949 1.022.0061 1.4142s-1.022.3949-1.4142.0061c-.0946-.0938-.6058-.5511-1.3901-.5511"/></svg>