<svg width="24" height="24" viewBox="0 0 24 24" fill="none" xmlns="http://www.w3.org/2000/svg">
<path d="M11.9736 2C14.8736 2 16.6236 3.73 16.6936 3.8V3.81H16.6736C17.0736 4.2 17.0636 4.83 16.6736 5.22C16.4836 5.41 16.2336 5.51 15.9736 5.51C15.7136 5.51 15.4636 5.41 15.2636 5.21C15.2136 5.16 14.0036 4 11.9636 4C9.92361 4 8.71361 5.16 8.66361 5.21C8.27361 5.6 7.64361 5.6 7.25361 5.21C6.87361 4.82 6.86361 4.19 7.25361 3.8C7.32361 3.73 9.07361 2 11.9736 2Z" fill="black"/>
<path d="M9.07358 6.21C9.18358 6.09 10.2136 5 11.9436 5H11.9536C13.6836 5 14.7136 6.09 14.8236 6.21C15.1936 6.62 15.1636 7.25 14.7536 7.62C14.5636 7.8 14.3236 7.88 14.0836 7.88C13.8136 7.88 13.5436 7.77 13.3436 7.55C13.3436 7.54 13.3336 7.53 13.3236 7.53C13.2236 7.44 12.7336 7 11.9536 7C11.1036 7 10.5536 7.56 10.5536 7.56C10.1736 7.96 9.54358 7.98 9.14358 7.61C8.74358 7.23 8.70358 6.62 9.07358 6.21Z" fill="black"/>
<path d="M13.2636 9.46999C13.2636 10.18 12.6836 10.76 11.9736 10.76C11.2636 10.76 10.6836 10.18 10.6836 9.46999C10.6836 8.75999 11.2636 8.17999 11.9736 8.17999C12.6836 8.17999 13.2636 8.75999 13.2636 9.46999Z" fill="black"/>
<path fill-rule="evenodd" clip-rule="evenodd" d="M18.0837 6.63C18.3837 6.33 18.6037 5.98 18.7437 5.6L18.7637 5.59C20.7437 7.42 21.9937 10.03 21.9937 12.93C21.9937 18.44 17.5037 22.93 11.9937 22.93C6.48365 22.93 1.99365 18.45 1.99365 12.93C1.99365 10.04 3.23365 7.44 5.20365 5.61C5.35365 5.97 5.56365 6.31 5.84365 6.6V6.62C6.04365 6.83 6.27365 6.98 6.51365 7.11C4.95365 8.57 3.98365 10.64 3.98365 12.94C3.98365 15.15 4.88365 17.16 6.34365 18.61L6.48365 18.11C6.84365 16.83 8.03365 15.94 9.36365 15.94H14.4237C15.6937 15.94 16.8337 16.74 17.2537 17.95L17.5137 18.7C19.0237 17.24 19.9737 15.24 19.9737 12.94C19.9737 10.64 18.9937 8.57 17.4337 7.11C17.6637 6.98 17.8837 6.83 18.0837 6.63ZM8.04365 19.91C9.20365 20.57 10.5737 20.95 11.9737 20.95C13.3737 20.95 14.6937 20.58 15.8337 19.95L15.3637 18.61C15.2237 18.21 14.8437 17.94 14.4237 17.94H9.36365C8.92365 17.94 8.52365 18.23 8.40365 18.66L8.04365 19.91Z" fill="black"/>
</svg>
