<svg xmlns="http://www.w3.org/2000/svg" width="24" height="24" fill="none" viewBox="0 0 24 24"><path fill="#000" fill-rule="evenodd" d="M2 5c0-1.6569 1.3431-3 3-3h10c1.6569 0 3 1.3431 3 3v7h1c1.6569 0 3 1.3431 3 3s-1.3431 3-3 3h-1v1c0 1.6569-1.3431 3-3 3H5c-1.6569 0-3-1.3431-3-3zm14 0v7H9c-1.6569 0-3 1.3431-3 3s1.3431 3 3 3h7v1c0 .5523-.4477 1-1 1H5c-.5523 0-1-.4477-1-1V5c0-.5523.4477-1 1-1h10c.5523 0 1 .4477 1 1m-5.9999 2.1202c-1.8916 0-3.0866 1.0127-3.2823 1.1922-.407.3733-1.0395.3461-1.4129-.0609s-.3461-1.0395.0609-1.4129C5.7272 6.5071 7.3875 5.1202 10 5.1202c2.6127 0 4.273 1.3869 4.6344 1.7184.407.3734.4342 1.006.0609 1.413-.3734.4069-1.006.4341-1.4129.0608-.1957-.1795-1.3908-1.1922-3.2824-1.1922m-1.4179 3.5485c.0977-.0966.608-.5504 1.3894-.5504s1.2916.4538 1.3893.5504c.3928.3882 1.026.3845 1.4142-.0084.3882-.3928.3844-1.026-.0084-1.4142-.2481-.2451-1.2396-1.1278-2.7951-1.1278s-2.547.8827-2.7952 1.1278c-.3928.3882-.3966 1.0214-.0083 1.4142.3882.3929 1.0213.3966 1.4141.0084M9 14c-.5523 0-1 .4477-1 1s.4477 1 1 1h10c.5523 0 1-.4477 1-1s-.4477-1-1-1z"/></svg>