<svg xmlns="http://www.w3.org/2000/svg" width="24" height="24" fill="none" viewBox="0 0 24 24"><path fill="#000" fill-rule="evenodd" d="M2.6477 11.2621 3 10.9626v5.5375c0 2.2092 1.7909 4 4 4h4.126a5.98 5.98 0 0 1-.937-2H7c-1.1045 0-2-.8954-2-2V9.2626l6.3524-5.3995a1 1 0 0 1 1.2953 0L19 9.2626v2.5402a6.03 6.03 0 0 1 2 1.8796v-2.7198l.3524.2995c.4208.3576 1.0519.3065 1.4096-.1143s.3065-1.0519-.1143-1.4096l-8.7047-7.399c-1.1203-.9523-2.7656-.9523-3.8859 0l-8.7047 7.399c-.4208.3577-.472.9888-.1143 1.4096s.9888.4719 1.4096.1143M16 11.0001c.3399 0 .6733.0283.9978.0826a.996.996 0 0 0-.1517-.6007l-.0011-.0017-.0012-.0019-.0028-.0044-.0071-.0109-.0201-.0304a3 3 0 0 0-.0648-.0921 4.7 4.7 0 0 0-.2299-.2894 5.8 5.8 0 0 0-.8863-.8321c-.7947-.6043-2.002-1.204-3.6328-1.204-1.6307 0-2.838.5997-3.6327 1.204-.3946.3-.6881.6012-.8863.8321a4.6 4.6 0 0 0-.23.2894 3 3 0 0 0-.0849.1225l-.007.0109-.0028.0044-.0013.0019-.0005.0008c-.2944.4673-.1548 1.0856.3124 1.38.465.293 1.0788.1557 1.3749-.3062l.0016-.0024a1 1 0 0 1 .0246-.0348 2.7 2.7 0 0 1 .1305-.1638 3.8 3.8 0 0 1 .5794-.5428c.5203-.3957 1.313-.796 2.4221-.796s1.9018.4003 2.4222.796c.1409.1071.2616.214.3624.3122A6.02 6.02 0 0 1 16 11.0001m-4.5794 2.1231a6.015 6.015 0 0 1 2.2905-1.671c-.4381-.2443-1.0089-.4371-1.7111-.4371-.9458 0-1.6531.3497-2.119.704a3.4 3.4 0 0 0-.5199.4884 2.8 2.8 0 0 0-.1398.1761 2 2 0 0 0-.0424.0603l-.0146.022-.0057.0088-.0025.0038-.001.0018-.0011.0017c-.2945.4672-.1543 1.0847.313 1.3791.4623.2914 1.0717.1572 1.3697-.2983l.0015-.0022a1 1 0 0 1 .0405-.0504 1.4 1.4 0 0 1 .2129-.1991 1.43 1.43 0 0 1 .329-.1879m-.5839.4396-.0013.0018.0006-.0009.0028-.0043zM9.154 12.482l.8458.533-.7401-.4662-.0015-.0009-.0068-.0043a4 4 0 0 1-.0974-.0616M12 17.0001c0-2.2091 1.7909-4 4-4s4 1.7909 4 4a3.98 3.98 0 0 1-.5538 2.032l1.7609 1.7609c.3905.3905.3905 1.0237 0 1.4142-.3905.3906-1.0237.3906-1.4142 0l-1.7609-1.7609a3.98 3.98 0 0 1-2.032.5538c-2.2091 0-4-1.7908-4-4m4-2c-1.1046 0-2 .8955-2 2s.8954 2 2 2 2-.8954 2-2-.8954-2-2-2"/></svg>