<svg width="24" height="24" viewBox="0 0 24 24" fill="none" xmlns="http://www.w3.org/2000/svg">
<path d="M10.0001 7.12024C8.10854 7.12024 6.9135 8.13286 6.7178 8.31239C6.31083 8.68574 5.67825 8.65849 5.3049 8.25152C4.93154 7.84455 4.9588 7.21197 5.36577 6.83862C5.72717 6.50707 7.38747 5.12024 10.0001 5.12024C12.6128 5.12024 14.2731 6.50707 14.6345 6.83862C15.0415 7.21197 15.0687 7.84455 14.6954 8.25152C14.322 8.65849 13.6894 8.68574 13.2825 8.31239C13.0868 8.13286 11.8917 7.12024 10.0001 7.12024Z" fill="black"/>
<path d="M8.58225 10.6687C8.67995 10.5721 9.19024 10.1183 9.97156 10.1183C10.7529 10.1183 11.2632 10.5721 11.3609 10.6687C11.7537 11.0569 12.3869 11.0532 12.7751 10.6603C13.1633 10.2675 13.1595 9.63435 12.7667 9.24614C12.5186 9.00097 11.5271 8.11829 9.97156 8.11829C8.41603 8.11829 7.42451 9.00097 7.17642 9.24614C6.78359 9.63435 6.77985 10.2675 7.16806 10.6603C7.55626 11.0532 8.18942 11.0569 8.58225 10.6687Z" fill="black"/>
<path fill-rule="evenodd" clip-rule="evenodd" d="M5 2C3.34315 2 2 3.34315 2 5V19C2 20.6569 3.34315 22 5 22H15C16.6569 22 18 20.6569 18 19V18H19C20.6569 18 22 16.6569 22 15C22 13.3431 20.6569 12 19 12H18V5C18 3.34315 16.6569 2 15 2H5ZM16 12V5C16 4.44772 15.5523 4 15 4H5C4.44772 4 4 4.44772 4 5V19C4 19.5523 4.44772 20 5 20H15C15.5523 20 16 19.5523 16 19V18H9C7.34315 18 6 16.6569 6 15C6 13.3431 7.34315 12 9 12H16ZM8 15C8 14.4477 8.44772 14 9 14H19C19.5523 14 20 14.4477 20 15C20 15.5523 19.5523 16 19 16H9C8.44772 16 8 15.5523 8 15Z" fill="black"/>
</svg>
