<svg xmlns="http://www.w3.org/2000/svg" width="24" height="24" fill="none" viewBox="0 0 24 24"><path fill="#000" fill-rule="evenodd" d="M16.6936 3.8c-.07-.07-1.82-1.8-4.72-1.8s-4.65 1.73-4.72 1.8c-.39.39-.38 1.02 0 1.41.39.39 1.02.39 1.41 0 .05-.05 1.26-1.21 3.3-1.21s3.25 1.16 3.3 1.21c.2.2.45.3.71.3s.51-.1.7-.29c.39-.39.4-1.02 0-1.41h.02zm-7.62 2.41c.11-.12 1.14-1.21 2.87-1.21h.01c1.73 0 2.76 1.09 2.87 1.21.37.41.34 1.04-.07 1.41-.19.18-.43.26-.67.26-.27 0-.54-.11-.74-.33 0-.01-.01-.02-.02-.02-.1-.09-.59-.53-1.37-.53-.85 0-1.4.56-1.4.56-.38.4-1.01.42-1.41.05-.4-.38-.44-.99-.07-1.4m9.6701-.61c-.14.38-.36.73-.66 1.03-.2.2-.42.35-.65.48 1.56 1.46 2.54 3.53 2.54 5.83s-.95 4.3-2.46 5.76l-.26-.75c-.42-1.21-1.56-2.01-2.83-2.01h-5.06c-1.33 0-2.52.89-2.88 2.17l-.14.5c-1.46-1.45-2.36-3.46-2.36-5.67 0-2.3.97-4.37 2.53-5.83-.24-.13-.47-.28-.67-.49V6.6c-.28-.29-.49-.63-.64-.99-1.97 1.83-3.21 4.43-3.21 7.32 0 5.52 4.49 10 10 10s10-4.49 10-10c0-2.9-1.25-5.51-3.23-7.34zm-6.7701 5.16c.71 0 1.29-.58 1.29-1.29s-.58-1.29-1.29-1.29-1.29.58-1.29 1.29.58 1.29 1.29 1.29m.0001 10.19c-1.4 0-2.77-.38-3.93-1.04l.36-1.25c.12-.43.52-.72.96-.72h5.06c.42 0 .8.27.94.67l.47 1.34c-1.14.63-2.46 1-3.86 1"/></svg>