<svg width="24" height="24" viewBox="0 0 24 24" fill="none" xmlns="http://www.w3.org/2000/svg">
<path fill-rule="evenodd" clip-rule="evenodd" d="M10.5 2C9.11929 2 8 3.11929 8 4.5V6.17071C6.83481 6.58254 6 7.69378 6 9V15C6 16.3062 6.83481 17.4175 8 17.8293V19.5C8 20.8807 9.11929 22 10.5 22H13.5C14.8807 22 16 20.8807 16 19.5V17.8293C17.1652 17.4175 18 16.3062 18 15V11C18.5523 11 19 10.5523 19 10C19 9.44772 18.5523 9 18 9C18 7.69378 17.1652 6.58254 16 6.17071V4.5C16 3.11929 14.8807 2 13.5 2H10.5ZM16 9C16 8.44772 15.5523 8 15 8H9C8.44772 8 8 8.44772 8 9V15C8 15.5523 8.44772 16 9 16H15C15.5523 16 16 15.5523 16 15V9ZM14 6H10V4.5C10 4.22386 10.2239 4 10.5 4H13.5C13.7761 4 14 4.22386 14 4.5V6ZM10 19.5V18H14V19.5C14 19.7761 13.7761 20 13.5 20H10.5C10.2239 20 10 19.7761 10 19.5Z" fill="black"/>
</svg>
