<svg width="24" height="24" viewBox="0 0 24 24" fill="none" xmlns="http://www.w3.org/2000/svg">
<path d="M12 3C12.5523 3 13 2.55228 13 2C13 1.44772 12.5523 1 12 1C11.4477 1 11 1.44772 11 2C11 2.55228 11.4477 3 12 3Z" fill="black"/>
<path d="M19 6C19.5523 6 20 5.55228 20 5C20 4.44772 19.5523 4 19 4C18.4477 4 18 4.44772 18 5C18 5.55228 18.4477 6 19 6Z" fill="black"/>
<path d="M9 11C9.55229 11 10 11.4477 10 12V18C10 18.5523 9.55229 19 9 19C8.44771 19 8 18.5523 8 18V12C8 11.4477 8.44771 11 9 11Z" fill="black"/>
<path fill-rule="evenodd" clip-rule="evenodd" d="M12 5C8.13401 5 5 8.13401 5 12V21C5 21.5523 5.44772 22 6 22H18C18.5523 22 19 21.5523 19 21V12C19 8.13401 15.866 5 12 5ZM12 7C9.23858 7 7 9.23858 7 12V20H17V12C17 9.23858 14.7614 7 12 7Z" fill="black"/>
<path d="M2 12C2.55228 12 3 11.5523 3 11C3 10.4477 2.55228 10 2 10C1.44772 10 1 10.4477 1 11C1 11.5523 1.44772 12 2 12Z" fill="black"/>
<path d="M23 11C23 11.5523 22.5523 12 22 12C21.4477 12 21 11.5523 21 11C21 10.4477 21.4477 10 22 10C22.5523 10 23 10.4477 23 11Z" fill="black"/>
<path d="M6 5C6 5.55228 5.55228 6 5 6C4.44772 6 4 5.55228 4 5C4 4.44772 4.44772 4 5 4C5.55228 4 6 4.44772 6 5Z" fill="black"/>
</svg>
