<svg width="24" height="24" viewBox="0 0 24 24" fill="none" xmlns="http://www.w3.org/2000/svg">
<path d="M11.9714 13.0598C11.1871 13.0598 10.6759 13.5171 10.5814 13.6109C10.1891 13.9997 9.55599 13.997 9.16716 13.6048C8.77833 13.2126 8.78107 12.5794 9.17328 12.1906C9.41722 11.9488 10.4103 11.0598 11.9714 11.0598C13.5326 11.0598 14.5256 11.9488 14.7696 12.1906C15.1618 12.5794 15.1645 13.2126 14.7757 13.6048C14.3869 13.997 13.7537 13.9997 13.3615 13.6109C13.2669 13.5171 12.7557 13.0598 11.9714 13.0598Z" fill="black"/>
<path d="M8.72238 11.2496C8.93413 11.0568 10.1248 10.0617 12 10.0617C13.8752 10.0617 15.0659 11.0568 15.2777 11.2496C15.686 11.6214 16.3185 11.5918 16.6903 11.1835C17.0622 10.7752 17.0326 10.1427 16.6243 9.77083C16.2447 9.42523 14.5906 8.06171 12 8.06171C9.4095 8.06171 7.75531 9.42523 7.37578 9.77083C6.96744 10.1427 6.93786 10.7752 7.30971 11.1835C7.68156 11.5918 8.31403 11.6214 8.72238 11.2496Z" fill="black"/>
<path fill-rule="evenodd" clip-rule="evenodd" d="M10 2C10 1.44772 9.55228 1 9 1C8.44772 1 8 1.44772 8 2V4H7C5.34315 4 4 5.34315 4 7V12C4 15.3137 6.68629 18 10 18H11V21C11 21.5523 11.4477 22 12 22C12.5523 22 13 21.5523 13 21V18H14C17.3137 18 20 15.3137 20 12V7C20 5.34315 18.6569 4 17 4H16V2C16 1.44772 15.5523 1 15 1C14.4477 1 14 1.44772 14 2V4H10V2ZM7 6C6.44772 6 6 6.44772 6 7V12C6 14.2091 7.79086 16 10 16H14C16.2091 16 18 14.2091 18 12V7C18 6.44772 17.5523 6 17 6H7Z" fill="black"/>
</svg>
