<svg width="24" height="24" viewBox="0 0 24 24" fill="none" xmlns="http://www.w3.org/2000/svg">
<path d="M5.26023 4.32711C4.90269 4.71957 4.91358 5.32779 5.29289 5.70711C5.68174 6.09595 6.31114 6.09762 6.70206 5.71212C6.78751 5.63111 6.88092 5.55806 6.975 5.4875C7.18254 5.33185 7.50672 5.11467 7.94721 4.89443C8.82493 4.45557 10.1728 4 12 4C13.8272 4 15.1751 4.45557 16.0528 4.89443C16.4933 5.11467 16.8175 5.33185 17.025 5.4875C17.1191 5.55806 17.2125 5.6311 17.2979 5.71212C17.6889 6.09762 18.3183 6.09595 18.7071 5.70711C19.0838 5.33044 19.0971 4.72805 18.7472 4.33537C18.6983 4.28053 18.6555 4.24085 18.5648 4.16149C18.4845 4.09129 18.3713 3.99723 18.225 3.8875C17.9325 3.66815 17.5067 3.38533 16.9472 3.10557C15.8249 2.54443 14.1728 2 12 2C9.82724 2 8.17507 2.54443 7.05279 3.10557C6.49328 3.38533 6.06746 3.66815 5.775 3.8875C5.6287 3.99723 5.51547 4.09129 5.43525 4.16149C5.34906 4.23689 5.30723 4.27552 5.26023 4.32711Z" fill="black"/>
<path d="M8.29289 8.70711C7.90237 8.31658 7.90237 7.68342 8.29289 7.29289C8.36968 7.21626 8.44784 7.1485 8.5875 7.04375C8.75496 6.91815 8.99328 6.76033 9.30279 6.60557C9.92507 6.29443 10.8272 6 12 6C13.1728 6 14.0749 6.29443 14.6972 6.60557C15.0067 6.76033 15.245 6.91815 15.4125 7.04375C15.5724 7.16369 15.656 7.23511 15.7396 7.32696C16.0966 7.71947 16.0862 8.32797 15.7071 8.70711C15.3199 9.09428 14.6943 9.0976 14.303 8.71708C14.274 8.69124 14.2436 8.66706 14.2125 8.64375C14.13 8.58185 13.9933 8.48967 13.8028 8.39443C13.4251 8.20557 12.8272 8 12 8C11.1728 8 10.5749 8.20557 10.1972 8.39443C10.0067 8.48967 9.87004 8.58185 9.7875 8.64375C9.75643 8.66705 9.726 8.69123 9.697 8.71707C9.30573 9.0976 8.68007 9.09428 8.29289 8.70711Z" fill="black"/>
<path fill-rule="evenodd" clip-rule="evenodd" d="M11.9494 11L12.6032 10.2433L12.6049 10.2449L12.6082 10.2477L12.6191 10.2572L12.6574 10.2909C12.6902 10.3199 12.7369 10.3616 12.7957 10.415C12.9132 10.5217 13.0791 10.6753 13.2774 10.867C13.6727 11.2493 14.2027 11.7887 14.7356 12.4136C15.2655 13.035 15.8167 13.7623 16.2401 14.5201C16.6543 15.2616 17 16.1263 17 17C17 20.1209 14.6076 22 11.9494 22C9.19843 22 7 19.6766 7 17C7 16.1325 7.33486 15.2712 7.73893 14.5294C8.15148 13.7721 8.68882 13.0449 9.20574 12.4232C9.72551 11.798 10.2424 11.2584 10.6281 10.8759C10.8215 10.6841 10.9834 10.5303 11.0981 10.4235C11.1554 10.3701 11.2011 10.3283 11.233 10.2993L11.2705 10.2655L11.2811 10.256L11.2843 10.2532L11.2861 10.2516L11.9494 11ZM10.7436 13.7018C11.1776 13.1798 11.6141 12.7188 11.9583 12.3739C12.3129 12.72 12.7646 13.1847 13.2138 13.7114C13.6965 14.2775 14.158 14.894 14.4941 15.4956C14.8393 16.1134 15 16.6237 15 17C15 18.8791 13.6455 20 11.9494 20C10.3459 20 9 18.6154 9 17C9 16.6175 9.15881 16.1038 9.49525 15.4862C9.82319 14.8842 10.2732 14.2676 10.7436 13.7018Z" fill="black"/>
<path d="M11.2861 10.2516C11.6611 9.9193 12.2241 9.91577 12.6032 10.2433C12.6032 10.2433 12.6032 10.2433 11.9494 11C11.2861 10.2516 11.2861 10.2516 11.2861 10.2516Z" fill="black"/>
</svg>
