<svg width="24" height="24" viewBox="0 0 24 24" fill="none" xmlns="http://www.w3.org/2000/svg">
<path d="M12.0177 4.05737C8.7581 4.05737 6.74732 5.57631 6.60504 5.68738C6.16969 6.02722 5.54128 5.9498 5.20144 5.51445C4.86159 5.07911 4.93902 4.4507 5.37436 4.11085C5.69709 3.85892 8.13514 2.05737 12.0177 2.05737C15.9002 2.05737 18.3383 3.85892 18.661 4.11085C19.0963 4.4507 19.1738 5.07911 18.8339 5.51445C18.4941 5.9498 17.8657 6.02722 17.4303 5.68738C17.288 5.57631 15.2772 4.05737 12.0177 4.05737Z" fill="black"/>
<path d="M12 18.9999C12.5523 18.9999 13 18.5522 13 17.9999C13 17.4477 12.5523 16.9999 12 16.9999C11.4477 16.9999 11 17.4477 11 17.9999C11 18.5522 11.4477 18.9999 12 18.9999Z" fill="black"/>
<path fill-rule="evenodd" clip-rule="evenodd" d="M8 10.9999C5.79086 10.9999 4 12.7908 4 14.9999V17.9999C4 20.2091 5.79086 21.9999 8 21.9999H16C18.2091 21.9999 20 20.2091 20 17.9999V14.9999C20 12.7908 18.2091 10.9999 16 10.9999H8ZM6 14.9999C6 13.8954 6.89543 12.9999 8 12.9999H16C17.1046 12.9999 18 13.8954 18 14.9999V17.9999C18 19.1045 17.1046 19.9999 16 19.9999H8C6.89543 19.9999 6 19.1045 6 17.9999V14.9999Z" fill="black"/>
<path d="M9.548 8.76035C9.61589 8.70833 10.5339 8.03052 12.0177 8.03052C13.5015 8.03052 14.4195 8.70833 14.4874 8.76035C14.9258 9.09626 15.5535 9.01319 15.8894 8.57481C16.2253 8.13642 16.1422 7.50873 15.7038 7.17282C15.4518 6.97972 14.1117 6.03052 12.0177 6.03052C9.92371 6.03052 8.58357 6.97972 8.33156 7.17282C7.89317 7.50873 7.8101 8.13642 8.14601 8.57481C8.48192 9.01319 9.10961 9.09626 9.548 8.76035Z" fill="black"/>
</svg>
