<svg xmlns="http://www.w3.org/2000/svg" width="24" height="24" fill="none" viewBox="0 0 24 24"><path fill="#000" fill-rule="evenodd" d="M5 2C3.3431 2 2 3.3431 2 5v1c0 1.393.9493 2.5641 2.2362 2.902l1.285 3.2122A3 3 0 0 0 8.3066 14h7.2918a3 3 0 0 0 2.7855-1.8858l1.2747-3.1867C20.9986 8.6273 22 7.4306 22 6V5c0-1.6569-1.3431-3-3-3zm13.9758 5a1 1 0 0 0-.046 0H5c-.5523 0-1-.4477-1-1V5c0-.5523.4477-1 1-1h14c.5523 0 1 .4477 1 1v1c0 .5523-.4477 1-1 1zM8.9525 9h-2.523l.9486 2.3714A1 1 0 0 0 8.3066 12h.646zm2 0h2v3h-2zm4 0v3h.6459a1 1 0 0 0 .9285-.6286L17.4755 9zM11 14.75a.75.75 0 0 1 .75.75v.25h4.0406c1.1046 0 2 .8954 2 2s-.8954 2-2 2H8.25a.5.5 0 0 0 0 1H14a.75.75 0 0 1 0 1.5H8.25c-1.1046 0-2-.8954-2-2s.8954-2 2-2h7.5406a.5.5 0 1 0 0-1H11a.75.75 0 0 1-.75-.75v-1a.75.75 0 0 1 .75-.75"/></svg>