<svg xmlns="http://www.w3.org/2000/svg" width="24" height="24" fill="none" viewBox="0 0 24 24"><path fill="#000" fill-rule="evenodd" d="M4 3c-1.1046 0-2 .8954-2 2v6c0 1.1046.8954 2 2 2h16v3c0 .5523-.4477 1-1 1h-8c0-1.6569-1.3431-3-3-3H5c-.5523 0-1 .4477-1 1v.5H3c-.5523 0-1 .4477-1 1s.4477 1 1 1h1v1H3c-.5523 0-1 .4477-1 1s.4477 1 1 1h1v.5c0 .5523.4477 1 1 1h3c1.6569 0 3-1.3431 3-3h8c1.6569 0 3-1.3431 3-3V5c0-1.1046-.8954-2-2-2zm16 8V5H4v6zM8 8c0 .5523-.4477 1-1 1s-1-.4477-1-1 .4477-1 1-1 1 .4477 1 1m4 1c.5523 0 1-.4477 1-1s-.4477-1-1-1-1 .4477-1 1 .4477 1 1 1m5 0c.5523 0 1-.4477 1-1s-.4477-1-1-1-1 .4477-1 1 .4477 1 1 1m-9 7c.5523 0 1 .4477 1 1v2c0 .5523-.4477 1-1 1H6v-4z"/></svg>