<svg width="24" height="24" viewBox="0 0 24 24" fill="none" xmlns="http://www.w3.org/2000/svg">
<path d="M3 5C2.44772 5 2 5.44772 2 6C2 6.55228 2.44772 7 3 7H9C9.55228 7 10 6.55228 10 6C10 5.44772 9.55228 5 9 5H3Z" fill="black"/>
<path d="M2 12C2 11.4477 2.44772 11 3 11H15C15.5523 11 16 11.4477 16 12C16 12.5523 15.5523 13 15 13H3C2.44772 13 2 12.5523 2 12Z" fill="black"/>
<path d="M2 18C2 17.4477 2.44772 17 3 17H21C21.5523 17 22 17.4477 22 18C22 18.5523 21.5523 19 21 19H3C2.44772 19 2 18.5523 2 18Z" fill="black"/>
</svg>
