<svg width="24" height="24" viewBox="0 0 24 24" fill="none" xmlns="http://www.w3.org/2000/svg">
<path fill-rule="evenodd" clip-rule="evenodd" d="M2 18C2 18.5523 2.44772 19 3 19H21C21.5523 19 22 18.5523 22 18C22 17.4477 21.5523 17 21 17H3C2.44772 17 2 17.4477 2 18ZM2 12C2 12.5523 2.44772 13 3 13H15C15.5523 13 16 12.5523 16 12C16 11.4477 15.5523 11 15 11H9H3C2.44772 11 2 11.4477 2 12ZM2 6C2 6.55229 2.44772 7 3 7H9C9.55228 7 10 6.55229 10 6C10 5.44771 9.55228 5 9 5H3C2.44772 5 2 5.44771 2 6Z" fill="black"/>
</svg>
