<svg width="24" height="24" viewBox="0 0 24 24" fill="none" xmlns="http://www.w3.org/2000/svg">
<path fill-rule="evenodd" clip-rule="evenodd" d="M3.70711 3.29289C3.31658 2.90237 2.68342 2.90237 2.29289 3.29289C1.90237 3.68342 1.90237 4.31658 2.29289 4.70711L5.56496 7.97918L5.53284 8H3C2.44772 8 2 8.44771 2 9V15C2 15.5523 2.44772 16 3 16H5.53284L10.5298 19.2387C11.5943 19.9287 13 19.1647 13 17.8961V15.4142L17.2799 19.6941C17.2889 19.7035 17.2981 19.7127 17.3074 19.7217L19.2929 21.7071C19.6834 22.0976 20.3166 22.0976 20.7071 21.7071C21.0976 21.3166 21.0976 20.6834 20.7071 20.2929L3.70711 3.29289ZM11 13.4142L7.01104 9.42526L7 9.43242V14.5676L11 17.1602V13.4142ZM4 10H5V14H4V10Z" fill="black"/>
<path d="M11 6.83983V7.86917L13 9.86917V6.1039C13 4.83534 11.5943 4.07129 10.5298 4.76125L8.92937 5.79854L10.3755 7.24462L11 6.83983Z" fill="black"/>
<path d="M15.938 12.8071L17.5479 14.4171C17.8255 13.7585 18 12.9467 18 12C18 10.2857 17.4278 9.01363 16.7071 8.29289C16.3166 7.90237 15.6834 7.90237 15.2929 8.29289C14.9024 8.68342 14.9024 9.31658 15.2929 9.70711C15.5722 9.98637 16 10.7143 16 12C16 12.2987 15.9769 12.5673 15.938 12.8071Z" fill="black"/>
<path d="M19.1528 16.022L20.634 17.5031C21.4536 16.0717 22 14.1898 22 12C22 8.24315 20.3917 5.39264 18.5547 4.16795C18.0952 3.8616 17.4743 3.98577 17.1679 4.4453C16.8616 4.90483 16.9858 5.5257 17.4453 5.83205C18.6083 6.60736 20 8.75685 20 12C20 13.6281 19.6493 14.9806 19.1528 16.022Z" fill="black"/>
</svg>
