<svg width="24" height="24" viewBox="0 0 24 24" fill="none" xmlns="http://www.w3.org/2000/svg">
<path fill-rule="evenodd" clip-rule="evenodd" d="M3.70711 3.28801C3.31658 2.89749 2.68342 2.89749 2.29289 3.28801C1.90237 3.67853 1.90237 4.3117 2.29289 4.70222L5.56496 7.9743L5.53284 7.99512H3C2.44772 7.99512 2 8.44283 2 8.99512V14.9951C2 15.5474 2.44772 15.9951 3 15.9951H5.53284L10.5298 19.2339C11.5943 19.9238 13 19.1598 13 17.8912V15.4093L17.2799 19.6892C17.2889 19.6986 17.2981 19.7078 17.3074 19.7168L19.2929 21.7022C19.6834 22.0927 20.3166 22.0927 20.7071 21.7022C21.0976 21.3117 21.0976 20.6785 20.7071 20.288L3.70711 3.28801ZM11 13.4093L7.01104 9.42038L7 9.42754V14.5627L11 17.1553V13.4093ZM4 9.99512H5V13.9951H4V9.99512Z" fill="black"/>
<path d="M11 6.83494V7.86429L13 9.86429V6.09901C13 4.83045 11.5943 4.0664 10.5298 4.75637L8.92937 5.79366L10.3755 7.23974L11 6.83494Z" fill="black"/>
<path d="M15.938 12.8022L17.5479 14.4122C17.8255 13.7536 18 12.9418 18 11.9951C18 10.2809 17.4278 9.00875 16.7071 8.28801C16.3166 7.89749 15.6834 7.89749 15.2929 8.28801C14.9024 8.67853 14.9024 9.3117 15.2929 9.70222C15.5722 9.98149 16 10.7094 16 11.9951C16 12.2938 15.9769 12.5624 15.938 12.8022Z" fill="black"/>
<path d="M19.1528 16.0171L20.634 17.4982C21.4536 16.0668 22 14.1849 22 11.9951C22 8.23826 20.3917 5.38776 18.5547 4.16307C18.0952 3.85671 17.4743 3.98089 17.1679 4.44042C16.8616 4.89995 16.9858 5.52081 17.4453 5.82717C18.6083 6.60248 20 8.75197 20 11.9951C20 13.6232 19.6493 14.9757 19.1528 16.0171Z" fill="black"/>
</svg>
