<svg width="24" height="24" viewBox="0 0 24 24" fill="none" xmlns="http://www.w3.org/2000/svg">
<path d="M19.3965 4.16317C18.937 3.85682 18.3161 3.98099 18.0097 4.44052C17.7034 4.90005 17.8276 5.52092 18.2871 5.82727C19.4501 6.60258 20.8418 8.75208 20.8418 11.9952C20.8418 15.2384 19.4501 17.3879 18.2871 18.1632C17.8276 18.4695 17.7034 19.0904 18.0097 19.5499C18.3161 20.0095 18.937 20.1336 19.3965 19.8273C21.2335 18.6026 22.8418 15.7521 22.8418 11.9952C22.8418 8.23837 21.2335 5.38786 19.3965 4.16317Z" fill="black"/>
<path fill-rule="evenodd" clip-rule="evenodd" d="M6.37464 7.99522L11.3716 4.75647C12.4361 4.06651 13.8418 4.83056 13.8418 6.09912V17.8913C13.8418 19.1599 12.4361 19.9239 11.3716 19.234L6.37464 15.9952H3.8418C3.28951 15.9952 2.8418 15.5475 2.8418 14.9952V8.99522C2.8418 8.44294 3.28951 7.99522 3.8418 7.99522H6.37464ZM7.8418 9.42764L11.8418 6.83505V17.1554L7.8418 14.5628V9.42764ZM5.8418 9.99522H4.8418V13.9952H5.8418V9.99522Z" fill="black"/>
<path d="M16.1347 8.28812C16.5252 7.89759 17.1584 7.89759 17.5489 8.28812C18.2696 9.00885 18.8418 10.281 18.8418 11.9952C18.8418 13.7095 18.2696 14.9816 17.5489 15.7023C17.1584 16.0929 16.5252 16.0929 16.1347 15.7023C15.7442 15.3118 15.7442 14.6786 16.1347 14.2881C16.414 14.0089 16.8418 13.281 16.8418 11.9952C16.8418 10.7095 16.414 9.9816 16.1347 9.70233C15.7442 9.31181 15.7442 8.67864 16.1347 8.28812Z" fill="black"/>
</svg>
