<svg xmlns="http://www.w3.org/2000/svg" width="24" height="24" fill="none" viewBox="0 0 24 24"><path fill="#000" fill-rule="evenodd" d="M18.5547 4.168c-.4595-.3064-1.0804-.1822-1.3867.2773s-.1822 1.0804.2773 1.3867C18.6083 6.6073 20 8.7568 20 12c0 3.2431-1.3917 5.3926-2.5547 6.1679-.4595.3064-.5837.9273-.2773 1.3868s.9272.5837 1.3867.2773C20.3917 18.6073 22 15.7568 22 12s-1.6083-6.6074-3.4453-7.832m-8.0249.5932L5.5328 8H3c-.5523 0-1 .4477-1 1v6c0 .5523.4477 1 1 1h2.5328l4.997 3.2387c1.0645.69 2.4702-.074 2.4702-1.3426V6.1039c0-1.2686-1.4057-2.0326-2.4702-1.3427M11 6.8398 7 9.4324v5.1352l4 2.5926zm4.2929 1.453c.3905-.3904 1.0237-.3904 1.4142 0C17.4278 9.0137 18 10.2858 18 12s-.5722 2.9864-1.2929 3.7071c-.3905.3905-1.0237.3905-1.4142 0s-.3905-1.0237 0-1.4142C15.5722 14.0136 16 13.2857 16 12c0-1.2858-.4278-2.0136-.7071-2.2929-.3905-.3905-.3905-1.0237 0-1.4142M4 10h1v4H4z"/></svg>