<svg xmlns="http://www.w3.org/2000/svg" width="24" height="24" fill="none" viewBox="0 0 24 24"><path fill="#000" fill-rule="evenodd" d="M2.2929 3.2929c.3905-.3905 1.0237-.3905 1.4142 0l17 17c.3905.3905.3905 1.0237 0 1.4142s-1.0237.3905-1.4142 0l-1.9855-1.9854a1 1 0 0 1-.0275-.0276L13 15.4142v2.4819c0 1.2686-1.4057 2.0326-2.4702 1.3426L5.5328 16H3c-.5523 0-1-.4477-1-1V9c0-.5523.4477-1 1-1h2.5328l.0322-.0208L2.2929 4.707c-.3905-.3905-.3905-1.0237 0-1.4142M19.1528 16.022l1.4812 1.4811C21.4536 16.0717 22 14.1898 22 12c0-3.7569-1.6083-6.6074-3.4453-7.832-.4595-.3064-1.0804-.1822-1.3867.2773s-.1822 1.0804.2773 1.3868C18.6083 6.6074 20 8.7569 20 12c0 1.6281-.3507 2.9806-.8472 4.022M11 7.8692V6.8398l-.6245.4048-1.4461-1.446 1.6004-1.0373C11.5943 4.0713 13 4.8353 13 6.1039v3.7653zm6.5479 6.5479-1.6099-1.61c.0389-.2398.062-.5084.062-.8071 0-1.2857-.4278-2.0136-.7071-2.2929-.3905-.3905-.3905-1.0237 0-1.4142s1.0237-.3905 1.4142 0C17.4278 9.0136 18 10.2857 18 12c0 .9467-.1745 1.7585-.4521 2.4171M7.011 9.4253 11 13.4142v3.746l-4-2.5926V9.4324zM5 10H4v4h1z"/></svg>