<svg xmlns="http://www.w3.org/2000/svg" width="24" height="24" fill="none" viewBox="0 0 24 24"><path fill="#000" fill-rule="evenodd" d="M12 6c-4.4183 0-8 3.5817-8 8 0 1.4591.3897 2.8241 1.07 4h13.86c.6803-1.1759 1.07-2.5409 1.07-4 0-1.1085-.2255-2.1644-.6331-3.1243l1.2544-1.2544a3 3 0 0 0 .2368-.2662C21.5873 10.743 22 12.3233 22 14c0 1.8417-.4988 3.57-1.3693 5.0538-.3649.6218-1.0255.9462-1.6802.9462H5.0495c-.6547 0-1.3153-.3244-1.6802-.9462C2.4988 17.57 2 15.8417 2 14 2 8.4772 6.4772 4 12 4c1.6767 0 3.257.4127 4.6449 1.142a3 3 0 0 0-.2662.2367L15.1243 6.633C14.1644 6.2255 13.1085 6 12 6m7.2071 2.2071c.3905-.3905.3905-1.0237 0-1.4142s-1.0237-.3905-1.4142 0l-5.2749 5.2748A2 2 0 0 0 12 12c-1.1046 0-2 .8954-2 2s.8954 2 2 2 2-.8954 2-2c0-.1792-.0236-.3528-.0677-.518z"/></svg>