<svg xmlns="http://www.w3.org/2000/svg" width="24" height="24" fill="none" viewBox="0 0 24 24"><path fill="#000" fill-rule="evenodd" d="M2.044 10.7977C2.5293 4.7745 7.9552 2 12.263 2c2.2157 0 4.621.7926 6.4879 2.2815C20.6363 5.785 22 8.027 22 10.878c-.0001 2.7921-1.0992 4.8229-2.7429 6.1333-1.6103 1.2838-3.6661 1.818-5.5379 1.818-1.6495 0-3.4467-.5206-4.8541-1.5956-1.4332-1.0946-2.456-2.7664-2.456-4.9654 0-2.1475.8577-3.7039 2.0578-4.7065 1.1676-.9754 2.6141-1.391 3.7961-1.391 2.8103 0 5.3685 1.8936 5.3685 4.7072 0 .9444-.3628 1.8646-.944 2.5555-.5825.6922-1.4506 1.2251-2.4829 1.225-1.9745 0-3.427-1.2279-3.427-2.8537 0-.5522.4478-1 1.0001-.9999s.9999.4477.9999 1c0 .2279.239.8536 1.427.8536.3123 0 .6577-.1622.9525-.5127.296-.3518.4744-.8219.4744-1.2678 0-1.399-1.3249-2.7073-3.3685-2.7073-.7595 0-1.7399.2795-2.5138.926-.7414.6193-1.34 1.6117-1.34 3.1716 0 1.5083.676 2.617 1.6699 3.376 1.0195.7787 2.3772 1.185 3.6401 1.185 1.5258 0 3.1104-.4405 4.2911-1.3818 1.1473-.9147 1.9896-2.3595 1.9897-4.5695 0-2.151-1.0103-3.848-2.4961-5.0329C15.9995 4.6454 14.0364 4 12.263 4c-3.6703 0-7.8529 2.3338-8.2255 6.9584-.2234 2.7731.5592 5.166 2.066 6.9128 1.5065 1.7465 3.797 2.917 6.7182 3.1315.5508.0404.9645.5197.924 1.0705s-.5197.9646-1.0705.9241c-3.389-.2489-6.1949-1.6272-8.0861-3.8198-1.8909-2.1921-2.807-5.1285-2.5451-8.3798"/></svg>