<svg xmlns="http://www.w3.org/2000/svg" width="24" height="24" fill="none" viewBox="0 0 24 24"><path fill="#000" fill-rule="evenodd" d="M5 3c0-.5523-.4477-1-1-1s-1 .4477-1 1v18c0 .5523.4477 1 1 1s1-.4477 1-1zm4-1c-1.1046 0-2 .8954-2 2v2c0 1.1046.8954 2 2 2h10c1.1046 0 2-.8954 2-2V4c0-1.1046-.8954-2-2-2zm2 2H9v2h2zm2 2V4h6v2zm-6 5c0-1.1046.8954-2 2-2h5c1.1046 0 2 .8954 2 2v2c0 1.1046-.8954 2-2 2H9c-1.1046 0-2-.8954-2-2zm7 0H9v2h5zm-5 5c-1.1046 0-2 .8954-2 2v2c0 1.1046.8954 2 2 2h9c1.1046 0 2-.8954 2-2v-2c0-1.1046-.8954-2-2-2zm5 4v-2H9v2zm4 0h-2v-2h2z"/></svg>