<svg xmlns="http://www.w3.org/2000/svg" width="24" height="24" fill="none" viewBox="0 0 24 24"><path d="M0 24h24V0H0z"/><path fill="#000" fill-rule="evenodd" d="M2 15c0 1.1046.8954 2 2 2h2c1.1046 0 2-.8954 2-2V5c0-1.1046-.8954-2-2-2H4c-1.1046 0-2 .8954-2 2zm14 0c0 1.1046.8954 2 2 2h2c1.1046 0 2-.8954 2-2V6c0-1.1046-.8954-2-2-2h-2c-1.1046 0-2 .8954-2 2zM4 5v2h2V5zm14 6V6h2v5zm-7 6c-1.1046 0-2-.8954-2-2v-5c0-1.1046.8954-2 2-2h2c1.1046 0 2 .8954 2 2v5c0 1.1046-.8954 2-2 2zM4 9h2v6H4zm7 1v5h2v-5zm9 3h-2v2h2zM3 19c-.5523 0-1 .4477-1 1s.4477 1 1 1h18c.5523 0 1-.4477 1-1s-.4477-1-1-1z"/></svg>