<svg xmlns="http://www.w3.org/2000/svg" width="24" height="24" fill="none" viewBox="0 0 24 24"><path fill="#000" fill-rule="evenodd" d="M13.1081 2.538c-.4099-.9856-1.8061-.9855-2.216 0L9.6394 5.5499l1.5291 1.5314.8316-1.9993 1.854 4.4575a1 1 0 0 0 .8434.6127l4.8122.3858-2.6102 2.2359 1.4287 1.4096 3.9434-3.3779c.8106-.6944.3792-2.0222-.6848-2.1075l-6.1207-.4907zM4.1463 5.3188c-.1197-.5392.2203-1.0733.7595-1.193.5362-.119.9373.3102 1.3042.7029q.0527.0567.1048.1115c.288.3033.7064.7328 1.2277 1.262 1.0414 1.0569 2.4797 2.4967 4.0778 4.0876 3.1954 3.1811 7.0215 6.9582 9.5702 9.4659.3936.3874.3988 1.0205.0114 1.4142s-1.0205.3988-1.4142.0114l-.8425-.8294.0878.4211c.2477 1.0382-.8818 1.8589-1.7928 1.3025l-5.2401-3.2007L6.76 22.0755c-.911.5564-2.0404-.2643-1.7928-1.3025l1.4247-5.9727-4.6632-3.9946c-.8107-.6945-.3793-2.0222.6847-2.1075l4.4332-.3554a313 313 0 0 1-.7288-.737c-.5235-.5313-.952-.9713-1.253-1.288a9 9 0 0 0-.1366-.14c-.2464-.2493-.5045-.5106-.5819-.859m4.5524 4.8819-4.2082.3373 3.6664 3.1407a1 1 0 0 1 .3222.9915l-1.1202 4.6959 4.12-2.5165a1 1 0 0 1 1.0425 0l4.1199 2.5165-.4013-1.6823a2178 2178 0 0 1-6.0307-5.9766 1078 1078 0 0 1-1.5106-1.5065"/></svg>