<svg xmlns="http://www.w3.org/2000/svg" width="24" height="24" fill="none" viewBox="0 0 24 24"><path fill="#000" fill-rule="evenodd" d="M10.8921 2.622c.4099-.9856 1.8061-.9856 2.216 0l2.358 5.6694 6.1207.4907c1.064.0853 1.4954 1.4131.6848 2.1075l-4.6633 3.9946 1.4247 5.9727c.2477 1.0383-.8818 1.8589-1.7928 1.3026l-5.2401-3.2007L6.76 22.1595c-.911.5563-2.0404-.2643-1.7928-1.3026l1.4247-5.9727-4.6632-3.9946c-.8107-.6944-.3793-2.0222.6847-2.1075l6.1207-.4907zm1.108 2.544-1.854 4.4575a1 1 0 0 1-.8434.6127l-4.8122.3858 3.6664 3.1407a1 1 0 0 1 .3222.9915l-1.1202 4.6959 4.12-2.5165a1 1 0 0 1 1.0425 0l4.1199 2.5165-1.1202-4.6959a1 1 0 0 1 .3222-.9915l3.6664-3.1407-4.8122-.3858a1 1 0 0 1-.8434-.6128z"/></svg>