<svg width="24" height="24" viewBox="0 0 24 24" fill="none" xmlns="http://www.w3.org/2000/svg">
<path d="M12.3834 9C11.682 9 11.1097 9.56114 11.0958 10.2623C11.0848 10.8145 10.6283 11.2532 10.0761 11.2423C9.52394 11.2313 9.08519 10.7748 9.09614 10.2226C9.13165 8.43258 10.5929 7 12.3834 7H12.4632C14.324 7 15.8325 8.50849 15.8325 10.3693V10.7308C15.8325 12.0428 14.9966 13.209 13.7541 13.6305L13.4998 13.7168C13.4965 14.2662 13.0501 14.7107 12.4998 14.7107C11.9475 14.7107 11.4998 14.263 11.4998 13.7107C11.4998 12.8573 12.0435 12.0988 12.8516 11.8247L13.1117 11.7365C13.5426 11.5903 13.8325 11.1858 13.8325 10.7308V10.3693C13.8325 9.61306 13.2195 9 12.4632 9H12.3834Z" fill="black"/>
<path d="M12.5 17.9752C13.0523 17.9752 13.5 17.5275 13.5 16.9752C13.5 16.4229 13.0523 15.9752 12.5 15.9752C11.9477 15.9752 11.5 16.4229 11.5 16.9752C11.5 17.5275 11.9477 17.9752 12.5 17.9752Z" fill="black"/>
<path fill-rule="evenodd" clip-rule="evenodd" d="M12.5 22C18.0228 22 22.5 17.5228 22.5 12C22.5 6.47715 18.0228 2 12.5 2C6.97715 2 2.5 6.47715 2.5 12C2.5 17.5228 6.97715 22 12.5 22ZM12.5 20C16.9183 20 20.5 16.4183 20.5 12C20.5 7.58172 16.9183 4 12.5 4C8.08172 4 4.5 7.58172 4.5 12C4.5 16.4183 8.08172 20 12.5 20Z" fill="black"/>
</svg>
