<svg xmlns="http://www.w3.org/2000/svg" width="24" height="24" fill="none" viewBox="0 0 24 24"><path fill="#000" fill-rule="evenodd" d="M2 5c0-1.1046.8954-2 2-2h16c1.1046 0 2 .8954 2 2s-.8954 2-2 2h-5.1707C14.4175 5.8348 13.3062 5 12 5s-2.4175.8348-2.8293 2H4c-1.1046 0-2-.8954-2-2m11 3c0-.5523-.4477-1-1-1s-1 .4477-1 1v5c0 .5523.4477 1 1 1s1-.4477 1-1zM9 8H4c-1.1046 0-2 .8954-2 2s.8954 2 2 2h5zm6 0h5c1.1046 0 2 .8954 2 2s-.8954 2-2 2h-5zm-6 5H4c-1.1046 0-2 .8954-2 2s.8954 2 2 2h5.1707A3 3 0 0 1 9 16zm5.8293 4A3 3 0 0 0 15 16v-3h5c1.1046 0 2 .8954 2 2s-.8954 2-2 2zM12 17c.5523 0 1-.4477 1-1s-.4477-1-1-1-1 .4477-1 1 .4477 1 1 1m-2.2361 1c.5493.6138 1.3476 1 2.2361 1s1.6868-.3862 2.2361-1H20c1.1046 0 2 .8954 2 2s-.8954 2-2 2H4c-1.1046 0-2-.8954-2-2s.8954-2 2-2z"/></svg>