<svg width="24" height="24" viewBox="0 0 24 24" fill="none" xmlns="http://www.w3.org/2000/svg">
<path d="M11.8834 8.48065C11.182 8.48065 10.6097 9.04179 10.5958 9.74296C10.5848 10.2951 10.1283 10.7339 9.57611 10.7229C9.02394 10.712 8.58519 10.2555 8.59614 9.70329C8.63165 7.91323 10.0929 6.48065 11.8834 6.48065H11.9632C13.824 6.48065 15.3325 7.98914 15.3325 9.84996V10.2114C15.3325 11.5235 14.4966 12.6897 13.2541 13.1111L12.9998 13.1974C12.9965 13.7469 12.5501 14.1913 11.9998 14.1913C11.4475 14.1913 10.9998 13.7436 10.9998 13.1913C10.9998 12.338 11.5435 11.5795 12.3516 11.3054L12.6117 11.2171C13.0426 11.071 13.3325 10.6665 13.3325 10.2114V9.84996C13.3325 9.09371 12.7195 8.48065 11.9632 8.48065H11.8834Z" fill="black"/>
<path d="M12 17.4559C12.5523 17.4559 13 17.0082 13 16.4559C13 15.9036 12.5523 15.4559 12 15.4559C11.4477 15.4559 11 15.9036 11 16.4559C11 17.0082 11.4477 17.4559 12 17.4559Z" fill="black"/>
<path fill-rule="evenodd" clip-rule="evenodd" d="M12 22C17.5228 22 22 17.5228 22 12C22 6.47715 17.5228 2 12 2C6.47715 2 2 6.47715 2 12C2 17.5228 6.47715 22 12 22ZM12 20C16.4183 20 20 16.4183 20 12C20 7.58172 16.4183 4 12 4C7.58172 4 4 7.58172 4 12C4 16.4183 7.58172 20 12 20Z" fill="black"/>
</svg>
