<svg xmlns="http://www.w3.org/2000/svg" width="24" height="24" fill="none" viewBox="0 0 24 24"><path fill="#000" fill-rule="evenodd" d="M1.9087 14.1099c-1.1716-1.1716-1.1716-3.0711 0-4.2427l7.9585-7.9585c1.1716-1.1716 3.0711-1.1716 4.2427 0l7.9817 7.9817c1.1715 1.1716 1.1715 3.0711 0 4.2426l-7.9586 7.9586c-1.1715 1.1715-3.071 1.1715-4.2426 0zm1.4142-2.8285 7.9585-7.9585c.3906-.3905 1.0237-.3905 1.4142 0l7.9817 7.9817c.3906.3905.3906 1.0237 0 1.4142l-7.9585 7.9585c-.3905.3906-1.0237.3906-1.4142 0l-7.9817-7.9817c-.3905-.3905-.3905-1.0236 0-1.4142M12 7c.5523 0 1 .4478 1 1v5c0 .5523-.4477 1-1 1s-1-.4477-1-1V8c0-.5522.4477-1 1-1m0 10c.5523 0 1-.4477 1-1s-.4477-1-1-1-1 .4477-1 1 .4477 1 1 1"/></svg>