<svg xmlns="http://www.w3.org/2000/svg" width="24" height="24" fill="none" viewBox="0 0 24 24"><path fill="#000" fill-rule="evenodd" d="M12 22c5.5228 0 10-4.4772 10-10S17.5228 2 12 2 2 6.4772 2 12s4.4772 10 10 10m-.1166-13c-.7014 0-1.2737.5611-1.2876 1.2623-.011.5522-.4675.9909-1.0197.98s-.991-.4675-.98-1.0197C8.6318 8.4326 10.093 7 11.8835 7h.0798c1.8608 0 3.3693 1.5085 3.3693 3.3693v.3615a3.062 3.062 0 0 1-2.0784 2.8997l-.2543.0863c-.0033.5494-.4497.9939-1 .9939-.5523 0-1-.4477-1-1 0-.8534.5437-1.6119 1.3518-1.886l.2601-.0882a1.062 1.062 0 0 0 .7208-1.0057v-.3615c0-.7562-.613-1.3693-1.3693-1.3693zM13 16.9752c0 .5523-.4477 1-1 1s-1-.4477-1-1 .4477-1 1-1 1 .4477 1 1"/></svg>