<svg xmlns="http://www.w3.org/2000/svg" width="24" height="24" fill="none" viewBox="0 0 24 24"><path fill="#000" fill-rule="evenodd" d="M22 12c0 5.5228-4.4772 10-10 10S2 17.5228 2 12 6.4772 2 12 2s10 4.4772 10 10m-10.4661 5.0514c-.1989-.1048-.3978-.2018-.6094-.28-.3802-.1403-.8842-.2714-1.4245-.2714-.5722 0-1.1661.1352-1.6947.3768a4.6 4.6 0 0 0-.3392.1746A1 1 0 0 1 6 16.1666v-7.5a1 1 0 0 1 .1958-.5943c.2238-.3027.5876-.5083.9251-.6555C7.6482 7.1867 8.4129 7 9.5 7s1.8518.1867 2.3791.4168a4 4 0 0 1 .1209.055 4 4 0 0 1 .1209-.055C12.6482 7.1867 13.4128 7 14.5 7s1.8518.1867 2.3791.4168c.3375.1472.7013.3528.9251.6555A1 1 0 0 1 18 8.6666v7.5a1 1 0 0 1-1.4661.8848 4.6 4.6 0 0 0-.3392-.1746c-.5285-.2416-1.1225-.3768-1.6947-.3768-.5403 0-1.0443.1311-1.4245.2714-.2116.0782-.4105.1752-.6094.28a1 1 0 0 1-.9322 0M8 9.2175v5.483c.4335-.1139.9448-.2005 1.5-.2005s1.0665.0866 1.5.2005v-5.483C10.7411 9.1185 10.2709 9 9.5 9s-1.241.1186-1.5.2175M14.5 14.5c-.5552 0-1.0665.0866-1.5.2005v-5.483c.2589-.099.7291-.2175 1.5-.2175s1.2411.1186 1.5.2175v5.483c-.4335-.1139-.9448-.2005-1.5-.2005"/></svg>