<svg xmlns="http://www.w3.org/2000/svg" width="24" height="24" fill="none" viewBox="0 0 24 24"><path fill="#000" fill-rule="evenodd" d="M12 22c5.5228 0 10-4.4772 10-10S17.5228 2 12 2 2 6.4772 2 12s4.4772 10 10 10M7.0468 9.344l1.8333-2.2A.4.4 0 0 1 9.1874 7h5.6253a.4.4 0 0 1 .3073.144l1.8333 2.2c.2171.2605.0318.656-.3073.656H7.354c-.339 0-.5244-.3955-.3072-.656M7.2894 11h9.4213c.3276 0 .5163.3723.3225.6365l-4.7106 6.4236c-.1598.218-.4853.218-.6451 0l-4.7107-6.4236c-.1937-.2642-.005-.6365.3226-.6365"/></svg>