<svg xmlns="http://www.w3.org/2000/svg" width="24" height="24" fill="none" viewBox="0 0 24 24"><path fill="#000" fill-rule="evenodd" d="M2 5c0-1.1046.8954-2 2-2h16c1.1046 0 2 .8954 2 2s-.8954 2-2 2H4c-1.1046 0-2-.8954-2-2m2-1h16c.5523 0 1 .4477 1 1s-.4477 1-1 1H4c-.5523 0-1-.4477-1-1s.4477-1 1-1m0 4c-1.1046 0-2 .8954-2 2s.8954 2 2 2h16c1.1046 0 2-.8954 2-2s-.8954-2-2-2zm-2 7c0-1.1046.8954-2 2-2h16c1.1046 0 2 .8954 2 2s-.8954 2-2 2H4c-1.1046 0-2-.8954-2-2m2 3c-1.1046 0-2 .8954-2 2s.8954 2 2 2h16c1.1046 0 2-.8954 2-2s-.8954-2-2-2z"/></svg>