<svg xmlns="http://www.w3.org/2000/svg" width="24" height="24" fill="none" viewBox="0 0 24 24"><path fill="#000" fill-rule="evenodd" d="M9.3755 4.286c1.142-2.062 4.1067-2.062 5.2488 0l7.3437 13.2601c1.1073 1.9995-.3388 4.4535-2.6244 4.4535H4.6562c-2.2857 0-3.7318-2.454-2.6244-4.4535zm3.4992.969 7.3437 13.2601c.3691.6665-.113 1.4845-.8748 1.4845H4.6562c-.762 0-1.244-.818-.8748-1.4845l7.3437-13.26c.3806-.6874 1.3689-.6874 1.7496 0M12 8.5498c.5523 0 1 .4477 1 1v5c0 .5523-.4477 1-1 1s-1-.4477-1-1v-5c0-.5523.4477-1 1-1m0 10c.5523 0 1-.4477 1-1s-.4477-1-1-1-1 .4477-1 1 .4477 1 1 1"/></svg>