<svg width="24" height="24" viewBox="0 0 24 24" fill="none" xmlns="http://www.w3.org/2000/svg">
<path d="M12 7.00002C12.5523 7.00002 13 7.44774 13 8.00002V13C13 13.5523 12.5523 14 12 14C11.4478 14 11 13.5523 11 13V8.00002C11 7.44774 11.4478 7.00002 12 7.00002Z" fill="black"/>
<path d="M12 17C12.5523 17 13 16.5523 13 16C13 15.4477 12.5523 15 12 15C11.4478 15 11 15.4477 11 16C11 16.5523 11.4478 17 12 17Z" fill="black"/>
<path fill-rule="evenodd" clip-rule="evenodd" d="M1.90871 9.86723C0.737137 11.0388 0.737135 12.9383 1.90871 14.1099L9.8904 22.0916C11.062 23.2631 12.9615 23.2631 14.133 22.0916L22.0916 14.133C23.2631 12.9615 23.2631 11.062 22.0916 9.8904L14.1099 1.90871C12.9383 0.737137 11.0388 0.737136 9.86723 1.90871L1.90871 9.86723ZM11.2814 3.32292L3.32292 11.2814C2.9324 11.672 2.9324 12.3051 3.32292 12.6957L11.3046 20.6773C11.6951 21.0679 12.3283 21.0679 12.7188 20.6773L20.6773 12.7188C21.0679 12.3283 21.0679 11.6951 20.6773 11.3046L12.6957 3.32292C12.3051 2.9324 11.672 2.9324 11.2814 3.32292Z" fill="black"/>
</svg>
