<svg xmlns="http://www.w3.org/2000/svg" width="24" height="24" fill="none" viewBox="0 0 24 24"><path fill="#da8b03" fill-rule="evenodd" d="M11.999 22.0854S20 19.5244 20 14.1574v-7.782l-8.001-4.29L4 6.3744v7.783c0 5.361 7.978 7.921 7.999 7.928"/><path fill="#da8b03" fill-rule="evenodd" d="M11.999 22.0854v-20L4 6.3745v7.783c0 5.361 7.978 7.921 7.999 7.928"/><path fill="#fa0" fill-rule="evenodd" d="M11.999 22.0854v-20L4 6.3745v7.783c0 5.361 7.978 7.921 7.999 7.928"/><path fill="#da8b03" fill-rule="evenodd" d="M14 11.0854c0-1.104-.896-2-2-2s-2 .896-2 2c0 .738.404 1.376 1 1.723v3.277h2v-3.277c.596-.347 1-.985 1-1.723"/><path fill="#fff" fill-rule="evenodd" d="M14 11.0854c0-1.104-.896-2-2-2s-2 .896-2 2c0 .738.404 1.376 1 1.723v3.277h2v-3.277c.596-.347 1-.985 1-1.723"/></svg>