<svg xmlns="http://www.w3.org/2000/svg" width="24" height="24" fill="none" viewBox="0 0 24 24"><path fill="#000" d="M12 7c.552 0 1 .448 1 1v5c0 .552-.448 1-1 1s-1-.448-1-1V8c0-.552.448-1 1-1m0 10c.552 0 1-.448 1-1s-.448-1-1-1-1 .448-1 1 .448 1 1 1"/><path fill="#000" fill-rule="evenodd" d="M6 2.983c-1.6569 0-3 1.343-3 3v12.034c0 1.6568 1.3431 3 3 3h12c1.6569 0 3-1.3432 3-3V5.9829c0-1.6568-1.3431-3-3-3zm12 2H6c-.5523 0-1 .4476-1 1v12.034c0 .5523.4477 1 1 1h12c.5523 0 1-.4477 1-1V5.9829c0-.5523-.4477-1-1-1" clip-rule="evenodd"/></svg>