<svg xmlns="http://www.w3.org/2000/svg" width="24" height="24" fill="none" viewBox="0 0 24 24"><path fill="#000" fill-rule="evenodd" d="M12 22c5.5228 0 10-4.4772 10-10S17.5228 2 12 2 2 6.4772 2 12s4.4772 10 10 10m6.3199-5.0944C19.3729 15.551 20 13.8487 20 12c0-4.4183-3.5817-8-8-8s-8 3.5817-8 8 3.5817 8 8 8c1.8487 0 3.551-.6271 4.9056-1.6801l-2.1482-2.1483C13.967 16.6951 13.0191 17 12 17c-2.7614 0-5-2.2386-5-5s2.2386-5 5-5 5 2.2386 5 5c0 1.0191-.3049 1.967-.8284 2.7574zM12 9c-1.6569 0-3 1.3431-3 3s1.3431 3 3 3 3-1.3431 3-3-1.3431-3-3-3"/></svg>