<svg xmlns="http://www.w3.org/2000/svg" width="24" height="24" fill="none" viewBox="0 0 24 24"><path fill="#000" fill-rule="evenodd" d="M12 0c.5523 0 1 .4477 1 1v1.0494c2.0112.1997 3.8472.9952 5.3287 2.2077L19.5858 3l-.2929-.2929c-.3905-.3905-.3905-1.0237 0-1.4142s1.0237-.3905 1.4142 0l2 2c.3905.3905.3905 1.0237 0 1.4142s-1.0237.3905-1.4142 0L21 4.4142l-1.2571 1.257C21.1536 7.3953 22 9.5988 22 12c0 5.5228-4.4772 10-10 10S2 17.5228 2 12c0-5.1853 3.9467-9.4489 9-9.9506V1c0-.5523.4477-1 1-1M4 12c0-4.4183 3.5817-8 8-8s8 3.5817 8 8-3.5817 8-8 8-8-3.5817-8-8m12.2071-2.7929c.3905-.3905.3905-1.0237 0-1.4142s-1.0237-.3905-1.4142 0l-2.2749 2.2748A2 2 0 0 0 12 10c-1.1046 0-2 .8954-2 2s.8954 2 2 2 2-.8954 2-2c0-.1792-.0236-.3528-.0677-.518z"/></svg>