<svg width="24" height="24" viewBox="0 0 24 24" fill="none" xmlns="http://www.w3.org/2000/svg">
<path fill-rule="evenodd" clip-rule="evenodd" d="M3 6.31201C3 4.65516 4.34315 3.31201 6 3.31201H18C19.6569 3.31201 21 4.65516 21 6.31201V18.312C21 19.9689 19.6569 21.312 18 21.312H6C4.34315 21.312 3 19.9689 3 18.312V6.31201ZM6 5.31201C5.44772 5.31201 5 5.75973 5 6.31201V18.312C5 18.8643 5.44772 19.312 6 19.312H18C18.5523 19.312 19 18.8643 19 18.312V6.31201C19 5.75973 18.5523 5.31201 18 5.31201H6Z" fill="black"/>
</svg>
