<svg width="24" height="24" viewBox="0 0 24 24" fill="none" xmlns="http://www.w3.org/2000/svg">
<path d="M16.2071 7.79289C16.5976 8.18342 16.5976 8.81658 16.2071 9.20711L13.9323 11.482C13.9764 11.6472 14 11.8208 14 12C14 13.1046 13.1046 14 12 14C10.8954 14 10 13.1046 10 12C10 10.8954 10.8954 10 12 10C12.1792 10 12.3528 10.0236 12.518 10.0677L14.7929 7.79289C15.1834 7.40237 15.8166 7.40237 16.2071 7.79289Z" fill="black"/>
<path fill-rule="evenodd" clip-rule="evenodd" d="M13 1C13 0.447715 12.5523 0 12 0C11.4477 0 11 0.447715 11 1V2.04938C5.94668 2.5511 2 6.81465 2 12C2 17.5228 6.47715 22 12 22C17.5228 22 22 17.5228 22 12C22 9.59873 21.1536 7.39514 19.7429 5.67127L21 4.41421L21.2929 4.70711C21.6834 5.09763 22.3166 5.09763 22.7071 4.70711C23.0976 4.31658 23.0976 3.68342 22.7071 3.29289L20.7071 1.29289C20.3166 0.902369 19.6834 0.902369 19.2929 1.29289C18.9024 1.68342 18.9024 2.31658 19.2929 2.70711L19.5858 3L18.3287 4.25705C16.8472 3.04464 15.0112 2.24906 13 2.04938V1ZM12 4C7.58172 4 4 7.58172 4 12C4 16.4183 7.58172 20 12 20C16.4183 20 20 16.4183 20 12C20 7.58172 16.4183 4 12 4Z" fill="black"/>
</svg>
