<svg width="24" height="24" viewBox="0 0 24 24" fill="none" xmlns="http://www.w3.org/2000/svg">
<path d="M9 13C9.55228 13 10 12.5523 10 12C10 11.4477 9.55228 11 9 11C8.44772 11 8 11.4477 8 12C8 12.5523 8.44772 13 9 13Z" fill="black"/>
<path d="M10 6C10 6.55228 9.55228 7 9 7C8.44772 7 8 6.55228 8 6C8 5.44772 8.44772 5 9 5C9.55228 5 10 5.44772 10 6Z" fill="black"/>
<path fill-rule="evenodd" clip-rule="evenodd" d="M7 2C5.34315 2 4 3.34315 4 5V7C4 7.76835 4.28885 8.46924 4.76389 9C4.28885 9.53076 4 10.2316 4 11V13C4 14.6569 5.34315 16 7 16H11V17.1707C10.1476 17.472 9.47199 18.1476 9.17071 19H5C4.44772 19 4 19.4477 4 20C4 20.5523 4.44772 21 5 21H9.17071C9.58254 22.1652 10.6938 23 12 23C13.3062 23 14.4175 22.1652 14.8293 21H19C19.5523 21 20 20.5523 20 20C20 19.4477 19.5523 19 19 19H14.8293C14.528 18.1476 13.8524 17.472 13 17.1707V16H17C18.6569 16 20 14.6569 20 13V11C20 10.2316 19.7111 9.53076 19.2361 9C19.7111 8.46925 20 7.76836 20 7V5C20 3.34315 18.6569 2 17 2H7ZM13 20C13 19.4477 12.5523 19 12 19C11.4477 19 11 19.4477 11 20C11 20.5523 11.4477 21 12 21C12.5523 21 13 20.5523 13 20ZM17 14C17.5523 14 18 13.5523 18 13V11C18 10.4477 17.5523 10 17 10H7C6.44772 10 6 10.4477 6 11V13C6 13.5523 6.44772 14 7 14H17ZM7 8H17C17.5523 8 18 7.55228 18 7V5C18 4.44772 17.5523 4 17 4H7C6.44772 4 6 4.44772 6 5V7C6 7.55228 6.44772 8 7 8Z" fill="black"/>
</svg>
