<svg xmlns="http://www.w3.org/2000/svg" width="24" height="24" fill="none" viewBox="0 0 24 24"><path fill="#000" fill-rule="evenodd" d="M12 2C9.7909 2 8 3.7909 8 6H7C5.3431 6 4 7.3431 4 9v10c0 1.6569 1.3431 3 3 3h10c1.6569 0 3-1.3431 3-3V9c0-1.6569-1.3431-3-3-3h-1c0-2.2091-1.7909-4-4-4m2 6v2c0 .5523.4477 1 1 1s1-.4477 1-1V8h1c.5523 0 1 .4477 1 1v10c0 .5523-.4477 1-1 1H7c-.5523 0-1-.4477-1-1V9c0-.5523.4477-1 1-1h1v2c0 .5523.4477 1 1 1s1-.4477 1-1V8zm0-2c0-1.1046-.8954-2-2-2s-2 .8954-2 2z"/></svg>