<svg xmlns="http://www.w3.org/2000/svg" width="24" height="24" fill="none" viewBox="0 0 24 24"><path fill="#000" fill-rule="evenodd" d="M4 5c0-1.6569 1.3431-3 3-3h10c1.6569 0 3 1.3431 3 3v2a2.99 2.99 0 0 1-.7639 2A2.99 2.99 0 0 1 20 11v2c0 1.6569-1.3431 3-3 3h-4v1.1707A3.009 3.009 0 0 1 14.8293 19H19c.5523 0 1 .4477 1 1s-.4477 1-1 1h-4.1707c-.4118 1.1652-1.5231 2-2.8293 2s-2.4175-.8348-2.8293-2H5c-.5523 0-1-.4477-1-1s.4477-1 1-1h4.1707A3.009 3.009 0 0 1 11 17.1707V16H7c-1.6569 0-3-1.3431-3-3v-2a2.99 2.99 0 0 1 .7639-2A2.99 2.99 0 0 1 4 7zm13 3H7c-.5523 0-1-.4477-1-1V5c0-.5523.4477-1 1-1h10c.5523 0 1 .4477 1 1v2c0 .5523-.4477 1-1 1m-7-2c0 .5523-.4477 1-1 1s-1-.4477-1-1 .4477-1 1-1 1 .4477 1 1m8 7c0 .5523-.4477 1-1 1H7c-.5523 0-1-.4477-1-1v-2c0-.5523.4477-1 1-1h10c.5523 0 1 .4477 1 1zm-9 0c.5523 0 1-.4477 1-1s-.4477-1-1-1-1 .4477-1 1 .4477 1 1 1m3 6c.5523 0 1 .4477 1 1s-.4477 1-1 1-1-.4477-1-1 .4477-1 1-1"/></svg>