<svg width="24" height="24" viewBox="0 0 24 24" fill="none" xmlns="http://www.w3.org/2000/svg">
<path fill-rule="evenodd" clip-rule="evenodd" d="M12 2C9.79086 2 8 3.79086 8 6L7 6C5.34315 6 4 7.34315 4 9V19C4 20.6569 5.34315 22 7 22H17C18.6569 22 20 20.6569 20 19V9C20 7.34315 18.6569 6 17 6H16C16 3.79086 14.2091 2 12 2ZM14 8V10C14 10.5523 14.4477 11 15 11C15.5523 11 16 10.5523 16 10V8H17C17.5523 8 18 8.44772 18 9V19C18 19.5523 17.5523 20 17 20H7C6.44772 20 6 19.5523 6 19V9C6 8.44772 6.44772 8 7 8H8V10C8 10.5523 8.44772 11 9 11C9.55228 11 10 10.5523 10 10V8H14ZM14 6C14 4.89543 13.1046 4 12 4C10.8954 4 10 4.89543 10 6L14 6Z" fill="black"/>
</svg>
