<svg xmlns="http://www.w3.org/2000/svg" width="24" height="24" fill="none" viewBox="0 0 24 24"><path fill="#000" fill-rule="evenodd" d="M18 5v4.18c1.16.42 2 1.52 2 2.82v7c0 1.65-1.35 3-3 3H7c-1.65 0-3-1.35-3-3v-7c0-1.31.84-2.41 2-2.82V5c0-1.65 1.35-3 3-3h6c1.65 0 3 1.35 3 3M9 4c-.55 0-1 .45-1 1v4h8V5c0-.55-.45-1-1-1zm1 1c-.55 0-1 .45-1 1v1c0 .55.45 1 1 1s1-.45 1-1V6c0-.55-.45-1-1-1m4 0c-.55 0-1 .45-1 1v1c0 .55.45 1 1 1s1-.45 1-1V6c0-.55-.45-1-1-1m3 15c.55 0 1-.45 1-1v-7c0-.55-.45-1-1-1H7c-.55 0-1 .45-1 1v7c0 .55.45 1 1 1zm-5.01-7.44c-2.894.004-4.64 1.7301-4.71 1.8-.39.39-.38 1.02 0 1.41.39.39 1.02.39 1.41 0 .05-.05 1.26-1.21 3.3-1.21s3.25 1.16 3.3 1.21c.2.2.45.3.71.3s.51-.1.7-.29c.39-.39.4-1.02 0-1.42-.0699-.0699-1.816-1.796-4.71-1.8M9.1 16.77c.11-.12 1.14-1.21 2.87-1.21h.01c1.73 0 2.76 1.09 2.87 1.21.37.41.34 1.04-.07 1.41-.19.18-.43.26-.67.26-.27 0-.54-.11-.74-.33-.0018-.0009-.0079-.0064-.018-.0155-.0993-.0898-.5915-.5345-1.372-.5345-.8463 0-1.3633.5229-1.3987.5587l-.0013.0013c-.38.4-1.01.42-1.41.05s-.44-.99-.07-1.4"/></svg>