<svg width="24" height="24" viewBox="0 0 24 24" fill="none" xmlns="http://www.w3.org/2000/svg">
<path d="M10 5C9.45 5 9 5.45 9 6V7C9 7.55 9.45 8 10 8C10.55 8 11 7.55 11 7V6C11 5.45 10.55 5 10 5Z" fill="black"/>
<path d="M13 6C13 5.45 13.45 5 14 5C14.55 5 15 5.45 15 6V7C15 7.55 14.55 8 14 8C13.45 8 13 7.55 13 7V6Z" fill="black"/>
<path d="M11.97 15.56C10.24 15.56 9.21 16.65 9.1 16.77C8.73 17.18 8.77 17.8 9.17 18.17C9.57 18.54 10.2 18.52 10.58 18.12L10.5813 18.1187C10.6166 18.0829 11.1337 17.56 11.98 17.56C12.7605 17.56 13.2527 18.0047 13.352 18.0945C13.3621 18.1036 13.3681 18.1091 13.37 18.11C13.57 18.33 13.84 18.44 14.11 18.44C14.35 18.44 14.59 18.36 14.78 18.18C15.19 17.81 15.22 17.18 14.85 16.77C14.74 16.65 13.71 15.56 11.98 15.56H11.97Z" fill="black"/>
<path d="M7.28 14.36C7.34992 14.2901 9.09598 12.564 11.99 12.56C14.884 12.564 16.6301 14.2901 16.7 14.36C17.1 14.76 17.09 15.39 16.7 15.78C16.51 15.97 16.26 16.07 16 16.07C15.74 16.07 15.49 15.97 15.29 15.77C15.24 15.72 14.03 14.56 11.99 14.56C9.95 14.56 8.74 15.72 8.69 15.77C8.3 16.16 7.67 16.16 7.28 15.77C6.9 15.38 6.89 14.75 7.28 14.36Z" fill="black"/>
<path d="M11.99 12.56C11.9933 12.56 11.9967 12.56 12 12.56H11.98C11.9833 12.56 11.9867 12.56 11.99 12.56Z" fill="black"/>
<path fill-rule="evenodd" clip-rule="evenodd" d="M18 9.18V5C18 3.35 16.65 2 15 2H9C7.35 2 6 3.35 6 5V9.18C4.84 9.59 4 10.69 4 12V19C4 20.65 5.35 22 7 22H17C18.65 22 20 20.65 20 19V12C20 10.7 19.16 9.6 18 9.18ZM8 5C8 4.45 8.45 4 9 4H15C15.55 4 16 4.45 16 5V9H8V5ZM18 19C18 19.55 17.55 20 17 20H7C6.45 20 6 19.55 6 19V12C6 11.45 6.45 11 7 11H17C17.55 11 18 11.45 18 12V19Z" fill="black"/>
</svg>
