<svg xmlns="http://www.w3.org/2000/svg" width="24" height="24" fill="none" viewBox="0 0 24 24"><path fill="#000" fill-rule="evenodd" d="M8 4c0-1.1046.8954-2 2-2h4c1.1046 0 2 .8954 2 2v3c0 1.1046-.8954 2-2 2h-1v2h5c.5523 0 1 .4477 1 1v3h1c1.1046 0 2 .8954 2 2v3c0 1.1046-.8954 2-2 2h-4c-1.1046 0-2-.8954-2-2v-3c0-1.1046.8954-2 2-2h1v-2H7v2h1c1.1046 0 2 .8954 2 2v3c0 1.1046-.8954 2-2 2H4c-1.1046 0-2-.8954-2-2v-3c0-1.1046.8954-2 2-2h1v-3c0-.5523.4477-1 1-1h5V9h-1c-1.1046 0-2-.8954-2-2zm6 0h-4v3h4zM4 20v-3h4v3zm12 0v-3h4v3z"/></svg>