<svg width="24" height="24" viewBox="0 0 24 24" fill="none" xmlns="http://www.w3.org/2000/svg">
<path fill-rule="evenodd" clip-rule="evenodd" d="M2 5C2 3.34315 3.34315 2 5 2C6.65685 2 8 3.34315 8 5C8 6.65685 6.65685 8 5 8C3.34315 8 2 6.65685 2 5ZM5 4C4.44772 4 4 4.44772 4 5C4 5.55228 4.44772 6 5 6C5.55228 6 6 5.55228 6 5C6 4.44772 5.55228 4 5 4Z" fill="black"/>
<path d="M10.7071 22.7071L13.7071 19.7071C14.0976 19.3166 14.0976 18.6834 13.7071 18.2929L10.7071 15.2929C10.3166 14.9024 9.68342 14.9024 9.29289 15.2929C8.90237 15.6834 8.90237 16.3166 9.29289 16.7071L10.5858 18H6.5C5.11929 18 4 16.8807 4 15.5C4 14.1193 5.11929 13 6.5 13H17.5C19.9853 13 22 10.9853 22 8.5C22 6.01472 19.9853 4 17.5 4H11C10.4477 4 10 4.44772 10 5C10 5.55228 10.4477 6 11 6H17.5C18.8807 6 20 7.11929 20 8.5C20 9.88071 18.8807 11 17.5 11H6.5C4.01472 11 2 13.0147 2 15.5C2 17.9853 4.01472 20 6.5 20H10.5858L9.29289 21.2929C8.90237 21.6834 8.90237 22.3166 9.29289 22.7071C9.68342 23.0976 10.3166 23.0976 10.7071 22.7071Z" fill="black"/>
<path d="M16 19C16 17.3431 17.3431 16 19 16C20.6569 16 22 17.3431 22 19C22 20.6569 20.6569 22 19 22C17.3431 22 16 20.6569 16 19Z" fill="black"/>
</svg>
