<svg xmlns="http://www.w3.org/2000/svg" width="24" height="24" fill="none" viewBox="0 0 24 24"><path fill="#000" fill-rule="evenodd" d="M2 5c0-1.6569 1.3431-3 3-3s3 1.3431 3 3-1.3431 3-3 3-3-1.3431-3-3m3-1c-.5523 0-1 .4477-1 1s.4477 1 1 1 1-.4477 1-1-.4477-1-1-1m8.7071 15.7071-3 3c-.3905.3905-1.0237.3905-1.4142 0s-.3905-1.0237 0-1.4142L10.5858 20H6.5C4.0147 20 2 17.9853 2 15.5S4.0147 11 6.5 11h11c1.3807 0 2.5-1.1193 2.5-2.5S18.8807 6 17.5 6H11c-.5523 0-1-.4477-1-1s.4477-1 1-1h6.5C19.9853 4 22 6.0147 22 8.5S19.9853 13 17.5 13h-11C5.1193 13 4 14.1193 4 15.5S5.1193 18 6.5 18h4.0858l-1.2929-1.2929c-.3905-.3905-.3905-1.0237 0-1.4142s1.0237-.3905 1.4142 0l3 3c.3905.3905.3905 1.0237 0 1.4142M16 19c0-1.6569 1.3431-3 3-3s3 1.3431 3 3-1.3431 3-3 3-3-1.3431-3-3"/></svg>