<svg xmlns="http://www.w3.org/2000/svg" width="24" height="24" fill="none" viewBox="0 0 24 24"><path fill="#000" fill-rule="evenodd" d="M10 4c-1.1046 0-2 .8954-2 2v1c-1.6569 0-3 1.3431-3 3v3H4c-1.1046 0-2 .8954-2 2v3c0 1.1046.8954 2 2 2h4c1.1046 0 2-.8954 2-2v-3c0-1.1046-.8954-2-2-2H7v-3c0-.5523.4477-1 1-1 0 1.1046.8954 2 2 2h4c1.1046 0 2-.8954 2-2 .5523 0 1 .4477 1 1v3h-1c-1.1046 0-2 .8954-2 2v3c0 1.1046.8954 2 2 2h4c1.1046 0 2-.8954 2-2v-3c0-1.1046-.8954-2-2-2h-1v-3c0-1.6569-1.3431-3-3-3V6c0-1.1046-.8954-2-2-2zm6 11v3h4v-3zm-2-9h-4v3h4zM4 18v-3h4v3z"/></svg>