<svg xmlns="http://www.w3.org/2000/svg" width="24" height="24" fill="none" viewBox="0 0 24 24"><path fill="#000" fill-rule="evenodd" d="M12 1c.5523 0 1 .4477 1 1v2c0 .5523-.4477 1-1 1s-1-.4477-1-1V2c0-.5523.4477-1 1-1m7.7782 4.636c.3905-.3905.3905-1.0237 0-1.4142s-1.0237-.3905-1.4143 0L16.9497 5.636c-.3905.3906-.3905 1.0237 0 1.4142.3905.3906 1.0237.3906 1.4142 0zM5.6361 4.2218c-.3906-.3905-1.0237-.3905-1.4143 0s-.3905 1.0237 0 1.4142l1.4143 1.4142c.3905.3906 1.0237.3906 1.4142 0s.3905-1.0236 0-1.4142zM12 6c-3.3137 0-6 2.6863-6 6s2.6863 6 6 6 6-2.6863 6-6-2.6863-6-6-6m-4 6c0-2.2091 1.7909-4 4-4s4 1.7909 4 4-1.7909 4-4 4-4-1.7909-4-4m-6-1c-.5523 0-1 .4477-1 1s.4477 1 1 1h2c.5523 0 1-.4477 1-1s-.4477-1-1-1zm17 1.25c0-.5523.4477-1 1-1h2c.5523 0 1 .4477 1 1s-.4477 1-1 1h-2c-.5523 0-1-.4477-1-1M7.0502 16.9498c.3906.3905.3906 1.0236 0 1.4142L5.636 19.7782c-.3905.3905-1.0237.3905-1.4142 0s-.3905-1.0237 0-1.4142l1.4142-1.4142c.3906-.3906 1.0237-.3906 1.4142 0m9.7228.1767c.3905-.3905 1.0237-.3905 1.4142 0l1.4142 1.4142c.3905.3906.3905 1.0237 0 1.4142-.3905.3906-1.0237.3906-1.4142 0l-1.4142-1.4142c-.3905-.3905-.3905-1.0237 0-1.4142M13 20c0-.5523-.4477-1-1-1s-1 .4477-1 1v2c0 .5523.4477 1 1 1s1-.4477 1-1z"/></svg>