<svg width="24" height="24" viewBox="0 0 24 24" fill="none" xmlns="http://www.w3.org/2000/svg">
<path d="M12 1C12.5523 1 13 1.44772 13 2V3C13 3.55228 12.5523 4 12 4C11.4477 4 11 3.55228 11 3V2C11 1.44772 11.4477 1 12 1Z" fill="black"/>
<path d="M5 12C5 8.13401 8.13401 5 12 5C15.866 5 19 8.13401 19 12C19 15.866 15.866 19 12 19C8.13401 19 5 15.866 5 12Z" fill="black"/>
<path d="M13 21C13 20.4477 12.5523 20 12 20C11.4477 20 11 20.4477 11 21V22C11 22.5523 11.4477 23 12 23C12.5523 23 13 22.5523 13 22V21Z" fill="black"/>
<path d="M1 12C1 11.4477 1.44772 11 2 11H3C3.55228 11 4 11.4477 4 12C4 12.5523 3.55228 13 3 13H2C1.44772 13 1 12.5523 1 12Z" fill="black"/>
<path d="M5.70711 4.29289C5.31658 3.90237 4.68342 3.90237 4.29289 4.29289C3.90237 4.68342 3.90237 5.31658 4.29289 5.70711L5 6.41421C5.39052 6.80474 6.02369 6.80474 6.41421 6.41421C6.80474 6.02369 6.80474 5.39052 6.41421 5L5.70711 4.29289Z" fill="black"/>
<path d="M4.29289 20.4142C3.90237 20.0237 3.90237 19.3905 4.29289 19L5 18.2929C5.39052 17.9024 6.02369 17.9024 6.41421 18.2929C6.80474 18.6834 6.80474 19.3166 6.41421 19.7071L5.70711 20.4142C5.31658 20.8047 4.68342 20.8047 4.29289 20.4142Z" fill="black"/>
<path d="M22 11C22.5523 11 23 11.4477 23 12C23 12.5523 22.5523 13 22 13H21C20.4477 13 20 12.5523 20 12C20 11.4477 20.4477 11 21 11H22Z" fill="black"/>
<path d="M19.7071 4.29289C19.3166 3.90237 18.6834 3.90237 18.2929 4.29289L17.5858 5C17.1953 5.39052 17.1953 6.02369 17.5858 6.41421C17.9763 6.80474 18.6095 6.80474 19 6.41421L19.7071 5.70711C20.0976 5.31658 20.0976 4.68342 19.7071 4.29289Z" fill="black"/>
<path d="M19 18.2929L19.7071 19C20.0976 19.3905 20.0976 20.0237 19.7071 20.4142C19.3166 20.8047 18.6834 20.8047 18.2929 20.4142L17.5858 19.7071C17.1953 19.3166 17.1953 18.6834 17.5858 18.2929C17.9763 17.9024 18.6095 17.9024 19 18.2929Z" fill="black"/>
</svg>
