<svg xmlns="http://www.w3.org/2000/svg" width="24" height="24" fill="none" viewBox="0 0 24 24"><path fill="#000" fill-rule="evenodd" d="M12 1c.5523 0 1 .4477 1 1v1c0 .5523-.4477 1-1 1s-1-.4477-1-1V2c0-.5523.4477-1 1-1M4.2929 4.2929c.3905-.3905 1.0237-.3905 1.4142 0L6.4142 5c.3905.3905.3905 1.0237 0 1.4142s-1.0237.3905-1.4142 0l-.7071-.7071c-.3905-.3905-.3905-1.0237 0-1.4142m14 0c.3905-.3905 1.0237-.3905 1.4142 0s.3905 1.0237 0 1.4142L19 6.4142c-.3905.3905-1.0237.3905-1.4142 0s-.3905-1.0237 0-1.4142zM5 12c0-3.866 3.134-7 7-7s7 3.134 7 7-3.134 7-7 7-7-3.134-7-7m-3-1c-.5523 0-1 .4477-1 1s.4477 1 1 1h1c.5523 0 1-.4477 1-1s-.4477-1-1-1zm21 1c0-.5523-.4477-1-1-1h-1c-.5523 0-1 .4477-1 1s.4477 1 1 1h1c.5523 0 1-.4477 1-1M4.2929 19c-.3905.3905-.3905 1.0237 0 1.4142s1.0237.3905 1.4142 0l.7071-.7071c.3905-.3905.3905-1.0237 0-1.4142s-1.0237-.3905-1.4142 0zm15.4142 0L19 18.2929c-.3905-.3905-1.0237-.3905-1.4142 0s-.3905 1.0237 0 1.4142l.7071.7071c.3905.3905 1.0237.3905 1.4142 0s.3905-1.0237 0-1.4142M12 20c.5523 0 1 .4477 1 1v1c0 .5523-.4477 1-1 1s-1-.4477-1-1v-1c0-.5523.4477-1 1-1"/></svg>