<svg xmlns="http://www.w3.org/2000/svg" width="24" height="24" fill="none" viewBox="0 0 24 24"><path fill="#000" fill-rule="evenodd" d="M12 3c-3.866 0-7 3.134-7 7v.1707A3 3 0 0 1 6 10c1.6569 0 3 1.3431 3 3v2c0 1.6569-1.3431 3-3 3s-3-1.3431-3-3v-5c0-4.9706 4.0294-9 9-9s9 4.0294 9 9v9c0 1.6569-1.3431 3-3 3h-5c-.5523 0-1-.4477-1-1s.4477-1 1-1h5c.5523 0 1-.4477 1-1v-1.1707A3 3 0 0 1 18 18c-1.6569 0-3-1.3431-3-3v-2c0-1.6569 1.3431-3 3-3 .3506 0 .6872.0602 1 .1707V10c0-3.866-3.134-7-7-7m7 12v-2c0-.5523-.4477-1-1-1s-1 .4477-1 1v2c0 .5523.4477 1 1 1s1-.4477 1-1M5 15v-2c0-.5523.4477-1 1-1s1 .4477 1 1v2c0 .5523-.4477 1-1 1s-1-.4477-1-1"/></svg>