<svg xmlns="http://www.w3.org/2000/svg" width="24" height="24" fill="none" viewBox="0 0 24 24"><path fill="#000" fill-rule="evenodd" d="M5 4C3.3431 4 2 5.3431 2 7v3a2.99 2.99 0 0 0 .7639 2A2.99 2.99 0 0 0 2 14v3c0 1.6569 1.3431 3 3 3h11.9184a3 3 0 0 1-.1083-.8016v-.7336q0-.0917.0039-.1826A2.98 2.98 0 0 1 16.1457 18H5c-.5523 0-1-.4477-1-1v-3c0-.5523.4477-1 1-1h10.228c.4346-.8242 1.0854-1.5142 1.872-2H5c-.5523 0-1-.4477-1-1V7c0-.5523.4477-1 1-1h14c.5523 0 1 .4477 1 1v3c0 .0779-.0089.1537-.0257.2264a5.14 5.14 0 0 1 1.9506.4437A3 3 0 0 0 22 10V7c0-1.6569-1.3431-3-3-3zm3 4.5c0 .8284-.6716 1.5-1.5 1.5S5 9.3284 5 8.5 5.6716 7 6.5 7 8 7.6716 8 8.5m4 0c0 .8284-.6716 1.5-1.5 1.5S9 9.3284 9 8.5 9.6716 7 10.5 7s1.5.6716 1.5 1.5m7.829 5.7244c-.6588 0-1.1913.5361-1.1913 1.1723 0 .5523-.4477 1-1 1s-1-.4477-1-1c0-1.7633 1.4506-3.1723 3.1913-3.1723 1.72 0 3.1534 1.3922 3.1534 3.1348v.3233c0 1.2484-.8497 2.3367-2.0609 2.6395a.147.147 0 0 0-.1114.1428v.7336c0 .5522-.4478 1-1 1s-1-.4478-1-1v-.7336c0-.9853.6705-1.8441 1.6264-2.0831a.721.721 0 0 0 .5459-.6992v-.3233c0-.6155-.5153-1.1348-1.1534-1.1348M6.5 17c.8284 0 1.5-.6716 1.5-1.5S7.3284 14 6.5 14 5 14.6716 5 15.5 5.6716 17 6.5 17m5.5-1.5c0 .8284-.6716 1.5-1.5 1.5S9 16.3284 9 15.5s.6716-1.5 1.5-1.5 1.5.6716 1.5 1.5m7.8101 7.5c.5998 0 1.0861-.4863 1.0861-1.0862s-.4863-1.0862-1.0861-1.0862-1.0862.4863-1.0862 1.0862S19.2102 23 19.8101 23"/></svg>