<svg xmlns="http://www.w3.org/2000/svg" width="24" height="24" fill="none" viewBox="0 0 24 24"><path fill="#000" fill-rule="evenodd" d="M17.2929 2.2929c.3905-.3905 1.0237-.3905 1.4142 0l3 3c.3905.3905.3905 1.0237 0 1.4142l-3 3c-.3905.3905-1.0237.3905-1.4142 0s-.3905-1.0237 0-1.4142L18.5858 7h-5.1443a1 1 0 0 0-.9487.6838l-1.0883 3.2649A3 3 0 0 1 8.5585 13H3c-.5523 0-1-.4477-1-1s.4477-1 1-1h5.5585a1 1 0 0 0 .9487-.6838l1.0883-3.2649A3 3 0 0 1 13.4415 5h5.1443l-1.2929-1.2929c-.3905-.3905-.3905-1.0237 0-1.4142m0 19.4142c.3905.3905 1.0237.3905 1.4142 0l3-3c.3905-.3905.3905-1.0237 0-1.4142l-3-3c-.3905-.3905-1.0237-.3905-1.4142 0s-.3905 1.0237 0 1.4142L18.5858 17h-5.3497a1 1 0 0 1-.8945-.5528l-.9472-1.8944c-.247-.494-.8476-.6942-1.3416-.4472s-.6942.8476-.4472 1.3416l.9472 1.8944A3 3 0 0 0 13.2361 19h5.3497l-1.2929 1.2929c-.3905.3905-.3905 1.0237 0 1.4142"/></svg>