<svg xmlns="http://www.w3.org/2000/svg" width="24" height="24" fill="none" viewBox="0 0 24 24"><path fill="#000" d="M18.707 2.293c-.39-.39-1.024-.39-1.414 0s-.39 1.024 0 1.414L18.586 5h-5.144a3 3 0 0 0-2.846 2.051l-1.088 3.265a1 1 0 0 1-.949.684H3c-.552 0-1 .448-1 1s.448 1 1 1h5.559a3 3 0 0 0 2.846-2.051l1.088-3.265A1 1 0 0 1 13.442 7h5.144l-1.293 1.293c-.39.391-.39 1.024 0 1.414s1.024.391 1.414 0l3-3c.391-.39.391-1.024 0-1.414zm0 19.414c-.39.391-1.024.391-1.414 0s-.39-1.024 0-1.414L18.586 19h-5.35a3 3 0 0 1-2.683-1.658l-.947-1.894c-.247-.494-.047-1.095.447-1.342s1.095-.047 1.342.447l.947 1.894a1 1 0 0 0 .895.553h5.35l-1.293-1.293c-.39-.39-.39-1.024 0-1.414s1.024-.39 1.414 0l3 3c.391.391.391 1.024 0 1.414z"/></svg>