<svg xmlns="http://www.w3.org/2000/svg" width="24" height="24" fill="none" viewBox="0 0 24 24"><path fill="#000" fill-rule="evenodd" d="M2 7c0-1.6569 1.3431-3 3-3h14c1.6569 0 3 1.3431 3 3v3a2.99 2.99 0 0 1-.7639 2A2.99 2.99 0 0 1 22 14v3c0 1.6569-1.3431 3-3 3H5c-1.6569 0-3-1.3431-3-3v-3a2.99 2.99 0 0 1 .7639-2A2.99 2.99 0 0 1 2 10zm3 4c-.5523 0-1-.4477-1-1V7c0-.5523.4477-1 1-1h14c.5523 0 1 .4477 1 1v3c0 .5523-.4477 1-1 1zm1.5-1C7.3284 10 8 9.3284 8 8.5S7.3284 7 6.5 7 5 7.6716 5 8.5 5.6716 10 6.5 10M12 8.5c0 .8284-.6716 1.5-1.5 1.5S9 9.3284 9 8.5 9.6716 7 10.5 7s1.5.6716 1.5 1.5M4 14c0-.5523.4477-1 1-1h14c.5523 0 1 .4477 1 1v3c0 .5523-.4477 1-1 1H5c-.5523 0-1-.4477-1-1zm2.5 3c.8284 0 1.5-.6716 1.5-1.5S7.3284 14 6.5 14 5 14.6716 5 15.5 5.6716 17 6.5 17m5.5-1.5c0 .8284-.6716 1.5-1.5 1.5S9 16.3284 9 15.5s.6716-1.5 1.5-1.5 1.5.6716 1.5 1.5"/></svg>