<svg width="24" height="24" viewBox="0 0 24 24" fill="none" xmlns="http://www.w3.org/2000/svg">
<path d="M3 8C3 6.34315 4.34315 5 6 5H20C21.6569 5 23 6.34315 23 8V11C23 11.2304 22.974 11.4547 22.9249 11.6701C22.3233 11.402 21.6635 11.2457 20.9743 11.2264C20.9911 11.1537 21 11.0779 21 11V8C21 7.44772 20.5523 7 20 7H6C5.44772 7 5 7.44772 5 8V11C5 11.5523 5.44772 12 6 12H18.1C17.3134 12.4858 16.6626 13.1758 16.228 14H6C5.44772 14 5 14.4477 5 15V18C5 18.5523 5.44772 19 6 19H17.1457C17.354 19.1197 17.5781 19.215 17.814 19.2822C17.8114 19.3428 17.8101 19.4037 17.8101 19.4648V20.1984C17.8101 20.476 17.8478 20.7448 17.9184 21H6C4.34315 21 3 19.6569 3 18V15C3 14.2316 3.28885 13.5308 3.7639 13C3.28885 12.4692 3 11.7684 3 11V8Z" fill="black"/>
<path d="M9 9.5C9 10.3284 8.32843 11 7.5 11C6.67157 11 6 10.3284 6 9.5C6 8.67157 6.67157 8 7.5 8C8.32843 8 9 8.67157 9 9.5Z" fill="black"/>
<path d="M13 9.5C13 10.3284 12.3284 11 11.5 11C10.6716 11 10 10.3284 10 9.5C10 8.67157 10.6716 8 11.5 8C12.3284 8 13 8.67157 13 9.5Z" fill="black"/>
<path d="M7.5 18C8.32843 18 9 17.3284 9 16.5C9 15.6716 8.32843 15 7.5 15C6.67157 15 6 15.6716 6 16.5C6 17.3284 6.67157 18 7.5 18Z" fill="black"/>
<path d="M13 16.5C13 17.3284 12.3284 18 11.5 18C10.6716 18 10 17.3284 10 16.5C10 15.6716 10.6716 15 11.5 15C12.3284 15 13 15.6716 13 16.5Z" fill="black"/>
<path d="M21.8962 22.9138C21.8962 23.5137 21.4099 24 20.8101 24C20.2102 24 19.7239 23.5137 19.7239 22.9138C19.7239 22.3139 20.2102 21.8276 20.8101 21.8276C21.4099 21.8276 21.8962 22.3139 21.8962 22.9138Z" fill="black"/>
<path d="M19.6377 16.3967C19.6377 15.7605 20.1702 15.2244 20.829 15.2244C21.4671 15.2244 21.9824 15.7437 21.9824 16.3592V16.6825C21.9824 17.0132 21.7573 17.3015 21.4365 17.3817C20.4806 17.6207 19.8101 18.4795 19.8101 19.4648V20.1984C19.8101 20.7506 20.2578 21.1984 20.8101 21.1984C21.3623 21.1984 21.8101 20.7506 21.8101 20.1984V19.4648C21.8101 19.3972 21.856 19.3384 21.9215 19.322C23.1327 19.0192 23.9824 17.9309 23.9824 16.6825V16.3592C23.9824 14.6166 22.549 13.2244 20.829 13.2244C19.0883 13.2244 17.6377 14.6334 17.6377 16.3967C17.6377 16.949 18.0854 17.3967 18.6377 17.3967C19.19 17.3967 19.6377 16.949 19.6377 16.3967Z" fill="black"/>
</svg>
