<svg xmlns="http://www.w3.org/2000/svg" width="24" height="24" fill="none" viewBox="0 0 24 24"><path fill="#000" fill-rule="evenodd" d="M13.2181 1.998a2.004 2.004 0 0 0-1.4045.5748l-9.2145 9.0574c-.794.7804-.7995 2.0584-.0123 2.8456l6.9395 6.9395c.7856.7856 2.0605.7819 2.8416-.0082l9.0534-9.1584A2.004 2.004 0 0 0 22 10.8401V4.0016c0-1.1065-.897-2.0035-2.0036-2.0035zm-2.2725 18.003 9.0534-9.1584L20 4.0002l-.001-.001-.0012-.0011h-6.7797l-9.218 9.0594zM18 7.5c0 .8285-.6716 1.5-1.5 1.5S15 8.3286 15 7.5 15.6716 6 16.5 6s1.5.6716 1.5 1.5"/></svg>