<svg xmlns="http://www.w3.org/2000/svg" width="24" height="24" fill="none" viewBox="0 0 24 24"><path fill="#000" fill-rule="evenodd" d="M13 2c0-.5523-.4477-1-1-1s-1 .4477-1 1v1.055C6.8284 3.516 3.516 6.8283 3.055 11H2c-.5523 0-1 .4477-1 1s.4477 1 1 1h1.055c.461 4.1716 3.7734 7.4839 7.945 7.9451V22c0 .5523.4477 1 1 1s1-.4477 1-1v-1.0549c4.1716-.4612 7.4839-3.7735 7.9451-7.9451H22c.5523 0 1-.4477 1-1s-.4477-1-1-1h-1.0549C20.4839 6.8284 17.1716 3.516 13 3.055zm-2 3.0709V6c0 .5523.4477 1 1 1s1-.4477 1-1v-.9291c3.0657.4385 5.4906 2.8634 5.9291 5.9291H18c-.5523 0-1 .4477-1 1s.4477 1 1 1h.9291c-.4385 3.0657-2.8634 5.4906-5.9291 5.9291V18c0-.5523-.4477-1-1-1s-1 .4477-1 1v.9291C7.9343 18.4906 5.5094 16.0657 5.0709 13H6c.5523 0 1-.4477 1-1s-.4477-1-1-1h-.9291C5.5094 7.9343 7.9343 5.5094 11 5.0709M14 12c0 1.1046-.8954 2-2 2s-2-.8954-2-2 .8954-2 2-2 2 .8954 2 2"/></svg>