<svg width="24" height="24" viewBox="0 0 24 24" fill="none" xmlns="http://www.w3.org/2000/svg">
<path d="M15.6839 10.268C16.0869 10.6457 16.1073 11.2785 15.7295 11.6814L11.9795 15.6814C11.7961 15.8771 11.5419 15.9908 11.2738 15.9972C11.0057 16.0036 10.7464 15.9021 10.5539 15.7154L8.30385 13.5336C7.90737 13.1491 7.89763 12.516 8.2821 12.1195C8.66657 11.723 9.29966 11.7133 9.69615 12.0978L11.216 13.5716L14.2705 10.3136C14.6482 9.91064 15.281 9.89023 15.6839 10.268Z" fill="black"/>
<path fill-rule="evenodd" clip-rule="evenodd" d="M7 2C5.34315 2 4 3.34315 4 5V19C4 20.6569 5.34315 22 7 22H17C18.6569 22 20 20.6569 20 19V5C20 3.34315 18.6569 2 17 2H7ZM8 4H7C6.44772 4 6 4.44772 6 5V19C6 19.5523 6.44772 20 7 20H17C17.5523 20 18 19.5523 18 19V5C18 4.44772 17.5523 4 17 4H16V5C16 6.10457 15.1046 7 14 7H10C8.89543 7 8 6.10457 8 5V4ZM14 4H10V5H14V4Z" fill="black"/>
</svg>
