<svg xmlns="http://www.w3.org/2000/svg" width="24" height="24" fill="none" viewBox="0 0 24 24"><path fill="#000" fill-rule="evenodd" d="M12 3c.5523 0 1-.4477 1-1s-.4477-1-1-1-1 .4477-1 1 .4477 1 1 1m-6.2036 7.2106a1 1 0 0 1-.1101-.1294l-2.5-3.5A1 1 0 0 1 4 5h3l.0147.0001C7.5673 4.3828 8.3692 4 9.251 4h5.498c.8817 0 1.6836.3828 2.2362 1H19c1.1046 0 2 .8954 2 2v6c0 .5523-.4477 1-1 1s-1-.4477-1-1V7h-1.2245l1.4138 10.6035C19.4291 19.402 18.03 21 16.2156 21H7.7844c-1.8144 0-3.2135-1.598-2.9737-3.3965zm2.4634-3.3428A1 1 0 0 1 9.251 6h5.498a1 1 0 0 1 .9912.8678l1.4667 11c.0799.5995-.3865 1.1322-.9913 1.1322H7.7844c-.6048 0-1.0712-.5327-.9913-1.1322zM7 22c-.5523 0-1 .4477-1 1s.4477 1 1 1h10c.5523 0 1-.4477 1-1s-.4477-1-1-1z"/></svg>