<svg width="24" height="24" viewBox="0 0 24 24" fill="none" xmlns="http://www.w3.org/2000/svg">
<path fill-rule="evenodd" clip-rule="evenodd" d="M11.9826 6C9.98963 6 8.37402 7.6156 8.37402 9.60855C8.37402 11.6015 9.98963 13.2171 11.9826 13.2171C13.9755 13.2171 15.5911 11.6015 15.5911 9.60855C15.5911 9.40115 15.5736 9.19783 15.54 9H16C16.5523 9 17 8.55228 17 8C17 7.44772 16.5523 7 16 7H14.476C13.8281 6.38051 12.9498 6 11.9826 6ZM13.472 9H10.4931C10.4163 9.18772 10.374 9.39319 10.374 9.60855C10.374 10.4969 11.0942 11.2171 11.9826 11.2171C12.8709 11.2171 13.5911 10.4969 13.5911 9.60855C13.5911 9.39319 13.5488 9.18772 13.472 9Z" fill="black"/>
<path fill-rule="evenodd" clip-rule="evenodd" d="M12 2C6.47715 2 2 6.47715 2 12C2 17.5228 6.47715 22 12 22C17.5228 22 22 17.5228 22 12C22 6.47715 17.5228 2 12 2ZM4 12C4 7.58172 7.58172 4 12 4C16.4183 4 20 7.58172 20 12C20 13.6208 19.518 15.129 18.6896 16.3891C18.0845 14.9485 16.6604 13.9368 15 13.9368H9C7.33958 13.9368 5.91546 14.9485 5.31043 16.3891C4.48198 15.129 4 13.6208 4 12ZM17 17.9368V18.2454C15.6304 19.3433 13.8919 20 12 20C10.1081 20 8.3696 19.3433 7 18.2454V17.9368C7 16.8322 7.89543 15.9368 9 15.9368H15C16.1046 15.9368 17 16.8322 17 17.9368Z" fill="black"/>
</svg>
