<svg xmlns="http://www.w3.org/2000/svg" width="24" height="24" fill="none" viewBox="0 0 24 24"><path fill="#000" fill-rule="evenodd" d="M8.4556 6.1792C8.8762 4.6157 10.3037 3.4648 12 3.4648c1.7332 0 3.1857 1.2014 3.5703 2.8168h.0799c.5523 0 1 .4477 1 1s-.4477 1-1 1h-.1629C15.0058 9.747 13.6265 10.805 12 10.805c-1.6641 0-3.0695-1.1075-3.5193-2.6257h-.2291c-.5523 0-1-.4477-1-1s.4477-1 1-1zM5.66 16.1273c0-2.2091 1.7909-4 4-4h4.6802c2.2091 0 4 1.7909 4 4v1.4081c0 1.6569-1.3432 3-3 3H8.6599c-1.6569 0-3-1.3431-3-3z"/></svg>