<svg xmlns="http://www.w3.org/2000/svg" width="24" height="24" fill="none" viewBox="0 0 24 24"><path fill="#000" fill-rule="evenodd" d="M8.4559 6.1792c.4205-1.5635 1.848-2.7144 3.5443-2.7144 1.7332 0 3.1857 1.2014 3.5704 2.8168h.0799c.5523 0 1 .4477 1 1s-.4477 1-1 1h-.1629c-.4816 1.4653-1.8609 2.5233-3.4874 2.5233-1.6641 0-3.0695-1.1075-3.5193-2.6257h-.229c-.5523 0-1-.4477-1-1s.4477-1 1-1zm3.5443-.7144c-.9223 0-1.67.7477-1.67 1.67 0 .9224.7477 1.6701 1.67 1.6701.9224 0 1.6701-.7477 1.6701-1.67 0-.9224-.7477-1.67-1.6701-1.67m-6.34 10.6625c0-2.2091 1.7908-4 4-4h4.6801c2.2092 0 4 1.7909 4 4v1.4081c0 1.6569-1.3431 3-3 3H8.6602c-1.6569 0-3-1.3431-3-3zm4-2c-1.1046 0-2 .8954-2 2v1.4081c0 .5523.4477 1 1 1h6.6801c.5523 0 1-.4477 1-1v-1.4081c0-1.1046-.8954-2-2-2z"/></svg>