<svg width="24" height="24" viewBox="0 0 24 24" fill="none" xmlns="http://www.w3.org/2000/svg">
<path fill-rule="evenodd" clip-rule="evenodd" d="M12.0002 3.46484C10.3039 3.46484 8.87641 4.61569 8.45587 6.1792H8.25183C7.69955 6.1792 7.25183 6.62691 7.25183 7.1792C7.25183 7.73148 7.69955 8.1792 8.25183 8.1792H8.48091C8.93072 9.69738 10.3361 10.8049 12.0002 10.8049C13.6267 10.8049 15.006 9.74693 15.4876 8.28162H15.6505C16.2028 8.28162 16.6505 7.8339 16.6505 7.28162C16.6505 6.72933 16.2028 6.28162 15.6505 6.28162H15.5706C15.1859 4.66621 13.7334 3.46484 12.0002 3.46484ZM10.3302 7.13489C10.3302 6.21255 11.0779 5.46484 12.0002 5.46484C12.9226 5.46484 13.6703 6.21255 13.6703 7.13489C13.6703 8.05723 12.9226 8.80493 12.0002 8.80493C11.0779 8.80493 10.3302 8.05723 10.3302 7.13489Z" fill="black"/>
<path fill-rule="evenodd" clip-rule="evenodd" d="M9.66016 12.1273C7.45102 12.1273 5.66016 13.9182 5.66016 16.1273V17.5354C5.66016 19.1923 7.0033 20.5354 8.66016 20.5354H15.3403C16.9972 20.5354 18.3403 19.1923 18.3403 17.5354V16.1273C18.3403 13.9182 16.5495 12.1273 14.3403 12.1273H9.66016ZM7.66016 16.1273C7.66016 15.0227 8.55559 14.1273 9.66016 14.1273H14.3403C15.4449 14.1273 16.3403 15.0227 16.3403 16.1273V17.5354C16.3403 18.0877 15.8926 18.5354 15.3403 18.5354H8.66016C8.10787 18.5354 7.66016 18.0877 7.66016 17.5354V16.1273Z" fill="black"/>
</svg>
