<svg xmlns="http://www.w3.org/2000/svg" width="24" height="24" fill="none" viewBox="0 0 24 24"><path fill="#000" fill-rule="evenodd" d="M2.982 11.1005q7.4858-3.2615 9.9834-4.3003c4.7542-1.9775 5.7421-2.321 6.386-2.3323.1416-.0025.4582.0326.6634.199.1731.1406.2208.3304.2436.4636.0228.1333.0512.4368.0286.674-.2576 2.707-1.3724 9.276-1.9395 12.3078-.24 1.2829-.7125 1.713-1.1699 1.7551-.9942.0915-1.7491-.657-2.712-1.2882-1.5067-.9876-2.3579-1.6025-3.8204-2.5663-1.6902-1.1138-.5945-1.7259.3687-2.7264.2521-.2618 4.6323-4.246 4.7171-4.6074.0106-.0452.0205-.2137-.0796-.3027s-.2479-.0585-.3545-.0343q-.2266.0514-7.221 4.7728-1.0248.7037-1.8565.6857c-.6112-.0132-1.787-.3456-2.661-.6297-1.0722-.3485-1.9242-.5327-1.85-1.1246q.0579-.4624 1.2735-.9458" clip-rule="evenodd"/></svg>