<svg xmlns="http://www.w3.org/2000/svg" width="24" height="24" fill="none" viewBox="0 0 24 24"><path fill="url(#a)" d="M12 22c5.5228 0 10-4.4772 10-10S17.5228 2 12 2 2 6.4772 2 12s4.4772 10 10 10"/><path fill="#fff" fill-rule="evenodd" d="M6.5266 11.8944q4.3728-1.9051 5.8317-2.512c2.7772-1.155 3.3542-1.3557 3.7303-1.3623.0828-.0015.2677.019.3875.1162.1012.0821.129.193.1424.2708.0133.0779.0299.2552.0167.3937-.1505 1.5812-.8017 5.4185-1.133 7.1895-.1402.7494-.4162 1.0006-.6834 1.0252-.5807.0535-1.0217-.3837-1.5841-.7524-.8802-.577-1.3774-.9361-2.2317-1.4991-.9873-.6506-.3473-1.0082.2154-1.5926.1472-.153 2.7059-2.4803 2.7554-2.6914.0062-.0264.012-.1248-.0465-.1768s-.1448-.0342-.207-.0201q-.1324.0301-4.2181 2.788-.5987.4111-1.0845.4006c-.357-.0077-1.0438-.2019-1.5544-.3679-.6263-.2035-1.124-.3111-1.0807-.6569q.0339-.27.744-.5525" clip-rule="evenodd"/><defs><linearGradient id="a" x1="1002" x2="1002" y1="2" y2="1987" gradientUnits="userSpaceOnUse"><stop stop-color="#2aabee"/><stop offset="1" stop-color="#229ed9"/></linearGradient></defs></svg>