<svg xmlns="http://www.w3.org/2000/svg" width="24" height="24" fill="none" viewBox="0 0 24 24"><path fill="#000" d="M11.097 5.862c.03.364-.174.687-.453.722-.28.035-.531-.231-.56-.595s.174-.687.453-.722c.281-.036.532.231.561.595m2.382.032c-.19.065-.316.188-.368.258a.158.158 0 0 1-.255-.186c.084-.114.26-.282.522-.37.267-.091.611-.095 1.012.106a.158.158 0 0 1 .071.212.158.158 0 0 1-.212.071c-.328-.164-.585-.151-.769-.089"/><path fill="#000" fill-rule="evenodd" d="M18.7 10.3263c.0008-.0276.0127-.4924.0127-.732 0-4.0374-1.9404-8.0942-6.7126-8.0943-4.7723.0002-6.7129 4.057-6.7129 8.0941 0 .24.012.7045.0128.732l-.9632 2.3608c-.2639.6756-.5242 1.3794-.7151 1.9825-.9103 2.8767-.6153 4.0671-.3908 4.0937.4818.0573 1.8753-2.1653 1.8753-2.1653 0 1.2813.6683 2.9519 2.1148 4.1635-.542.1655-1.1995.4173-1.6238.7251-.3868.2802-.3384.566-.2688.6813.2927.4851 4.8302.3382 6.4705.1864a9 9 0 0 0 .1381.0019h.1261a10 10 0 0 0 .1415-.0019c1.6397.1518 6.1785.2988 6.4712-.1864.0698-.1153.118-.4011-.2685-.6813-.4253-.3085-1.0846-.5606-1.6271-.7261 1.4457-1.2115 2.1136-2.8815 2.1136-4.1625 0 0 1.3936 2.2226 1.8754 2.1655.2243-.0268.5193-1.2173-.3908-4.0939-.1908-.6033-.4513-1.3067-.7152-1.9823zm-1.6182 2.9862c-1.7568.3422-3.5737.5383-5.0706.5206h-.0227a18.7 18.7 0 0 1-1.2551-.03v2.8247c-1.481.2028-2.9593-.09-2.9593-.09v-3.0709a31 31 0 0 1-.8517-.1535c-.13.8175-.2022 1.8221-.1305 3.0034.1958 3.2205 2.1432 5.245 5.1492 5.2742h.122c3.0062-.0292 4.9535-2.0537 5.1495-5.2742.0718-1.1819-.0007-2.1865-.1308-3.0043m-.9964-4.5477c-.1728-.3762-1.9153-.7955-4.0722-.7955H11.99c-2.157 0-3.8993.4193-4.0723.7957a.124.124 0 0 0-.0126.0536.127.127 0 0 0 .0238.0725c.1458.2085 2.0804 1.2399 4.0611 1.2399h.0232c1.9806 0 3.9153-1.0312 4.0611-1.24a.126.126 0 0 0 .0238-.0727.124.124 0 0 0-.0127-.0535m-5.7813-1.3004c-.6474.0288-1.2005-.6954-1.2353-1.6163-.0351-.9212.4609-1.6913 1.1083-1.72.6466-.0286 1.1996.6954 1.2347 1.6166.0354.9213-.4607 1.6914-1.1077 1.7197m4.6314-1.6163c-.0347.9207-.5878 1.645-1.2352 1.6163-.6471-.0285-1.143-.7984-1.1076-1.7196.0351-.9212.5879-1.6451 1.2347-1.6168.6474.0288 1.1433.799 1.1081 1.72" clip-rule="evenodd"/></svg>