<svg xmlns="http://www.w3.org/2000/svg" width="24" height="24" fill="none" viewBox="0 0 24 24"><path fill="#000" fill-rule="evenodd" d="M15 2q.6213 0 1.1516.2197.5304.2195.9697.659.4394.4393.659.9697T18 5v7q0 .6213-.2197 1.1516-.2196.5304-.659.9697a3.4 3.4 0 0 1-.1213.1156V20q0 .4143-.1465.7678t-.4393.6464-.6464.4393T15 22H9q-.4141 0-.7678-.1465t-.6464-.4393q-.2929-.2928-.4394-.6464Q7 20.4143 7 20v-5.7631a3.4 3.4 0 0 1-.1213-.1156q-.4394-.4393-.659-.9697T6 12V5q0-.6213.2197-1.1516.2195-.5304.659-.9697.4393-.4394.9697-.659T9 2zm-5 2H9q-.207 0-.3839.0732-.1768.0732-.3232.2197t-.2197.3232T8 5v7q0 .2071.0732.3839t.2197.3232.3232.2197T9 13h6q.2071 0 .3839-.0732t.3232-.2197.2197-.3232T16 12V5q0-.207-.0732-.3839-.0732-.1767-.2197-.3232-.1464-.1465-.3232-.2197T15 4h-1c0 .5523-.4477 1-1 1h-2c-.5523 0-1-.4477-1-1m2 6c.5523 0 1 .4477 1 1s-.4477 1-1 1-1-.4477-1-1 .4477-1 1-1M9 20v-5h6v5zm1.4877-4a.3.3 0 0 1 .3.3v.4a.3.3 0 0 1-.3.3h-.4a.3.3 0 0 1-.3-.3v-.4a.3.3 0 0 1 .3-.3zM12.2 16a.3.3 0 0 1 .3.3v.4a.3.3 0 0 1-.3.3h-.4a.3.3 0 0 1-.3-.3v-.4a.3.3 0 0 1 .3-.3zm1.7123 0a.3.3 0 0 1 .3.3v.4a.3.3 0 0 1-.3.3h-.4a.3.3 0 0 1-.3-.3v-.4a.3.3 0 0 1 .3-.3zm-3.4246 2a.3.3 0 0 1 .3.3v.4a.3.3 0 0 1-.3.3h-.4a.3.3 0 0 1-.3-.3v-.4a.3.3 0 0 1 .3-.3zM12.2 18a.3.3 0 0 1 .3.3v.4a.3.3 0 0 1-.3.3h-.4a.3.3 0 0 1-.3-.3v-.4a.3.3 0 0 1 .3-.3zm1.7123 0a.3.3 0 0 1 .3.3v.4a.3.3 0 0 1-.3.3h-.4a.3.3 0 0 1-.3-.3v-.4a.3.3 0 0 1 .3-.3z"/></svg>