<svg xmlns="http://www.w3.org/2000/svg" width="24" height="24" fill="none" viewBox="0 0 24 24"><path fill="#000" fill-rule="evenodd" d="M5.0136 4c-1.657 0-3 1.3431-3 3v10c0 1.6569 1.343 3 3 3h13.9999c1.6569 0 3-1.3431 3-3V7c0-1.6569-1.3431-3-3-3zm-1 3v-.0038h15.9999V17c0 .5523-.4477 1-1 1h-14c-.5522 0-1-.4477-1-1zM7.707 9.2929c-.3905-.3905-1.0237-.3905-1.4142 0s-.3905 1.0237 0 1.4142L8.0858 12.5l-1.793 1.7929c-.3904.3905-.3904 1.0237 0 1.4142.3906.3905 1.0238.3905 1.4143 0l2.5-2.5c.3905-.3905.3905-1.0237 0-1.4142zM12 15c0-.5523.4477-1 1-1h4c.5523 0 1 .4477 1 1s-.4477 1-1 1h-4c-.5523 0-1-.4477-1-1"/></svg>