<svg width="24" height="24" viewBox="0 0 24 24" fill="none" xmlns="http://www.w3.org/2000/svg">
<path d="M12 7C12.5523 7 13 7.44772 13 8V13.1707C14.1652 13.5825 15 14.6938 15 16C15 17.6569 13.6569 19 12 19C10.3431 19 9 17.6569 9 16C9 14.6938 9.83481 13.5825 11 13.1707V8C11 7.44772 11.4477 7 12 7Z" fill="black"/>
<path fill-rule="evenodd" clip-rule="evenodd" d="M8 6C8 3.79086 9.79086 2 12 2C14.2091 2 16 3.79086 16 6V11.5278C17.2261 12.6253 18 14.2224 18 16C18 19.3137 15.3137 22 12 22C8.68629 22 6 19.3137 6 16C6 14.2224 6.77389 12.6253 8 11.5278V6ZM12 4C10.8954 4 10 4.89543 10 6V12.4992L9.60058 12.7992C8.62676 13.5307 8 14.692 8 16C8 18.2091 9.79086 20 12 20C14.2091 20 16 18.2091 16 16C16 14.692 15.3732 13.5307 14.3994 12.7992L14 12.4992V6C14 4.89543 13.1046 4 12 4Z" fill="black"/>
</svg>
