<svg width="24" height="24" viewBox="0 0 24 24" fill="none" xmlns="http://www.w3.org/2000/svg">
<path d="M9.01169 12.1552L12.2279 7.16744C12.4415 6.83629 12.955 6.98752 12.955 7.38155V10.7416C12.955 11.0144 13.1762 11.2356 13.449 11.2356H14.6561C14.969 11.2356 15.1577 11.5819 14.9882 11.8448L11.772 16.8326C11.5584 17.1637 11.0448 17.0125 11.0448 16.6185V13.2584C11.0448 12.9856 10.8237 12.7644 10.5509 12.7644H9.34374C9.03091 12.7644 8.84216 12.4181 9.01169 12.1552Z" fill="black"/>
<path fill-rule="evenodd" clip-rule="evenodd" d="M12 2C6.47715 2 2 6.47715 2 12C2 17.5228 6.47715 22 12 22C17.5228 22 22 17.5228 22 12C22 6.47715 17.5228 2 12 2ZM4 12C4 7.58172 7.58172 4 12 4C16.4183 4 20 7.58172 20 12C20 16.4183 16.4183 20 12 20C7.58172 20 4 16.4183 4 12Z" fill="black"/>
</svg>
