<svg xmlns="http://www.w3.org/2000/svg" width="24" height="24" fill="none" viewBox="0 0 24 24"><path fill="#000" fill-rule="evenodd" d="M2 12C2 6.4772 6.4772 2 12 2s10 4.4772 10 10-4.4772 10-10 10S2 17.5228 2 12m10-8c-4.4183 0-8 3.5817-8 8s3.5817 8 8 8 8-3.5817 8-8-3.5817-8-8-8m.2279 3.1674-3.2162 4.9878c-.1695.2629.0192.6092.332.6092h1.2072a.494.494 0 0 1 .4939.494v3.3601c0 .394.5136.5452.7272.2141l3.2162-4.9878c.1695-.2629-.0192-.6092-.3321-.6092H13.449a.494.494 0 0 1-.494-.494v-3.36c0-.394-.5135-.5453-.7271-.2142"/></svg>