<svg xmlns="http://www.w3.org/2000/svg" width="24" height="24" fill="none" viewBox="0 0 24 24"><path fill="#000" fill-rule="evenodd" d="M11 8H7v3l3-.0002q.0849.0001.166.0137C10.574 9.8413 11.6887 9 13 9h6c1.6569 0 3 1.3431 3 3s-1.3431 3-3 3h-6c-1.3114 0-2.4263-.8414-2.8342-2.0139a1 1 0 0 1-.1657.0137l-3 .0002L7 18h3.1707c.4118-1.1652 1.5231-2 2.8293-2h6c1.6569 0 3 1.3431 3 3s-1.3431 3-3 3h-6c-1.3062 0-2.4175-.8348-2.8293-2H6c-.5523 0-1-.4477-1-1V8C3.3432 8 2 6.6569 2 5s1.3432-3 3-3h6c1.6569 0 3 1.3432 3 3s-1.3431 3-3 3m0-4H5c-.5523 0-1 .4477-1 1s.4477 1 1 1h6c.5523 0 1-.4477 1-1s-.4477-1-1-1m2 16c-.5523 0-1-.4477-1-1s.4477-1 1-1h6c.5523 0 1 .4477 1 1s-.4477 1-1 1zm6-9h-6c-.5523 0-1 .4477-1 1s.4477 1 1 1h6c.5523 0 1-.4477 1-1s-.4477-1-1-1"/></svg>