<svg xmlns="http://www.w3.org/2000/svg" width="24" height="24" fill="none" viewBox="0 0 24 24"><path fill="#000" fill-rule="evenodd" d="M15.0388 3.8233a3.444 3.444 0 0 0-6.0776 0L2.463 15.5972C1.1706 17.9388 2.7423 21 5.5017 21h5.8907a7.04 7.04 0 0 1-2.1377-2h-3.753c-1.0865 0-1.9184-1.2938-1.2878-2.4363l6.4983-11.774c.5812-1.053 1.9944-1.053 2.5756 0l1.772 3.2106a6.98 6.98 0 0 1 2.565.5084zM15 10c-2.7614 0-5 2.2386-5 5s2.2386 5 5 5c1.0191 0 1.967-.3049 2.7574-.8284l2.5355 2.5355c.3905.3905 1.0237.3905 1.4142 0s.3905-1.0237 0-1.4142l-2.5355-2.5355C19.6951 16.967 20 16.0191 20 15c0-2.7614-2.2386-5-5-5m-3 5c0-1.6569 1.3432-3 3-3s3 1.3431 3 3-1.3431 3-3 3-3-1.3431-3-3"/></svg>