<svg xmlns="http://www.w3.org/2000/svg" width="24" height="24" fill="none" viewBox="0 0 24 24"><path fill="#000" fill-rule="evenodd" d="M7.8464 2.0134c0-.5522.4478-1 1-1h6.3073c.5523 0 1 .4477 1 1s-.4477 1-1 1H8.8464c-.5522 0-1-.4477-1-1M12 4.1671c-2.246 0-4.3082.7869-5.926 2.1L4.7927 4.9855c-.3906-.3905-1.0237-.3905-1.4142 0-.3906.3906-.3906 1.0237 0 1.4143L4.663 7.6845c-1.2967 1.6127-2.0728 3.6618-2.0728 5.8922 0 5.1968 4.2129 9.4097 9.4097 9.4097s9.4097-4.2129 9.4097-9.4097c0-2.2304-.776-4.2795-2.0728-5.8922l1.2848-1.2847c.3905-.3906.3905-1.0237 0-1.4142-.3906-.3906-1.0237-.3906-1.4142 0L17.9259 6.267c-1.6177-1.3132-3.6799-2.1-5.9259-2.1m-7.4097 9.4096C4.5903 9.4845 7.9078 6.167 12 6.167s7.4097 3.3175 7.4097 7.4097S16.0923 20.9864 12 20.9864s-7.4097-3.3174-7.4097-7.4097M13 9.3719c0-.5523-.4477-1-1-1s-1 .4477-1 1v4.2048c0 .2652.1054.5196.2929.7071l2.1024 2.1024c.3905.3906 1.0237.3906 1.4142 0 .3906-.3905.3906-1.0237 0-1.4142L13 13.1625z"/></svg>