<svg xmlns="http://www.w3.org/2000/svg" width="24" height="24" fill="none" viewBox="0 0 24 24"><path fill="#000" d="M16.2071 8.643c.3905.3905.3905 1.0237 0 1.4142l-2.2748 2.2749c.0441.1652.0677.3388.0677.518 0 1.1046-.8954 2-2 2s-2-.8954-2-2 .8954-2 2-2c.1792 0 .3528.0236.518.0677l2.2749-2.2748c.3905-.3905 1.0237-.3905 1.4142 0"/><path fill="#000" fill-rule="evenodd" d="M13 1.8501c0-.5523-.4477-1-1-1s-1 .4477-1 1v1.0494c-5.0533.5017-9 4.7653-9 9.9506 0 5.5228 4.4772 10 10 10s10-4.4772 10-10c0-2.4013-.8464-4.6049-2.2571-6.3287L21 5.2644l.2929.2928c.3905.3905 1.0237.3905 1.4142 0s.3905-1.0237 0-1.4142l-2-2c-.3905-.3905-1.0237-.3905-1.4142 0s-.3905 1.0237 0 1.4142l.2929.2929-1.2571 1.257C16.8472 3.8948 15.0112 3.0992 13 2.8996zm-1 3c-4.4183 0-8 3.5817-8 8s3.5817 8 8 8 8-3.5817 8-8-3.5817-8-8-8" clip-rule="evenodd"/></svg>