<svg xmlns="http://www.w3.org/2000/svg" width="24" height="24" fill="none" viewBox="0 0 24 24"><path d="M24 0H0v24h24z"/><path fill="#000" fill-rule="evenodd" d="M4.8151 3.5601a1 1 0 0 0 .2834.8445l3.4872 3.4872-.7071.7071-3.4872-3.4872a1 1 0 0 0-1.58.2191c-1.3832 2.4744-1.0248 5.6614 1.08 7.7663 1.6282 1.628 3.9042 2.2108 5.9949 1.7522l6.865 6.865c.3906.3906 1.0237.3906 1.4143 0l3.5355-3.5355c.3905-.3905.3905-1.0237 0-1.4142l-6.865-6.8651c.4585-2.0906-.1241-4.3667-1.7523-5.9948-2.1049-2.105-5.2919-2.4633-7.7662-1.08a1 1 0 0 0-.5025.7354m2.7939.5266c1.4241-.282 2.9579.1295 4.0606 1.2322 1.2355 1.2355 1.6038 3.0118 1.0993 4.5715a1 1 0 0 0 .2444 1.0148l6.5665 6.5665-2.1213 2.1213-6.5665-6.5664a1 1 0 0 0-1.0149-.2444c-1.5596.5045-3.3359.1362-4.5715-1.0994-1.1026-1.1027-1.5141-2.6365-1.2321-4.0606l3.098 3.098c.3905.3906 1.0237.3906 1.4142 0L10.707 8.599c.3905-.3905.3905-1.0237 0-1.4142z"/></svg>