<svg width="24" height="24" viewBox="0 0 24 24" fill="none" xmlns="http://www.w3.org/2000/svg">
<path d="M12.7303 4.25801C10.9313 2.45894 8.27495 2.0419 6.07855 3.00395C5.4787 3.2667 5.41666 4.01538 5.82606 4.42479L9.2929 7.89162L7.87868 9.30584L4.41185 5.839C4.00244 5.4296 3.25376 5.49164 2.99101 6.09149C2.02896 8.28789 2.446 10.9442 4.24507 12.7433C5.81597 14.3142 8.04073 14.8313 10.0414 14.2969L16.3979 20.6535C16.9837 21.2393 17.9334 21.2393 18.5192 20.6535L20.6405 18.5322C21.2263 17.9464 21.2263 16.9966 20.6405 16.4108L14.284 10.0543C14.8183 8.05367 14.3013 5.82891 12.7303 4.25801Z" fill="black"/>
</svg>
