<svg xmlns="http://www.w3.org/2000/svg" width="24" height="24" fill="none" viewBox="0 0 24 24"><path d="M0 24h24V0H0z"/><path fill="#000" d="M12.9464 4.4613C11.1473 2.6622 8.491 2.2452 6.2946 3.2072c-.5998.2627-.6619 1.0114-.2525 1.4208L9.509 8.095 8.0947 9.509 4.628 6.0423c-.4094-.4095-1.158-.3474-1.4208.2524-.962 2.1964-.545 4.8528 1.254 6.6518 1.571 1.5709 3.7957 2.088 5.7963 1.5537l6.3566 6.3565c.5857.5858 1.5355.5858 2.1213 0l2.1213-2.1213c.5858-.5858.5858-1.5355 0-2.1213l-6.3565-6.3565c.5343-2.0007.0172-4.2254-1.5537-5.7963"/></svg>