<svg width="24" height="24" viewBox="0 0 24 24" fill="none" xmlns="http://www.w3.org/2000/svg">
<path d="M4 2C3.44772 2 3 2.44772 3 3C3 3.55228 3.44772 4 4 4H20C20.5523 4 21 3.55228 21 3C21 2.44772 20.5523 2 20 2H4Z" fill="black"/>
<path d="M13 9.41421V21C13 21.5523 12.5523 22 12 22C11.4477 22 11 21.5523 11 21V9.41421L6.70711 13.7071C6.31658 14.0976 5.68342 14.0976 5.29289 13.7071C4.90237 13.3166 4.90237 12.6834 5.29289 12.2929L11.2929 6.29289C11.6834 5.90237 12.3166 5.90237 12.7071 6.29289L18.7071 12.2929C19.0976 12.6834 19.0976 13.3166 18.7071 13.7071C18.3166 14.0976 17.6834 14.0976 17.2929 13.7071L13 9.41421Z" fill="black"/>
</svg>
