<svg width="24" height="24" viewBox="0 0 24 24" fill="none" xmlns="http://www.w3.org/2000/svg">
<path d="M2 4C2 3.44772 2.44772 3 3 3C3.55228 3 4 3.44772 4 4L4 20C4 20.5523 3.55229 21 3 21C2.44772 21 2 20.5523 2 20V4Z" fill="black"/>
<path d="M21 13C21.5523 13 22 12.5523 22 12C22 11.4477 21.5523 11 21 11L9.41421 11L13.7071 6.70711C14.0976 6.31658 14.0976 5.68342 13.7071 5.29289C13.3166 4.90237 12.6834 4.90237 12.2929 5.29289L6.29289 11.2929C5.90237 11.6834 5.90237 12.3166 6.29289 12.7071L12.2929 18.7071C12.6834 19.0976 13.3166 19.0976 13.7071 18.7071C14.0976 18.3166 14.0976 17.6834 13.7071 17.2929L9.41421 13L21 13Z" fill="black"/>
</svg>
