<svg width="24" height="24" viewBox="0 0 24 24" fill="none" xmlns="http://www.w3.org/2000/svg">
<path d="M11 3C11 2.44772 11.4477 2 12 2C12.5523 2 13 2.44772 13 3L13 14.5858L17.2929 10.2929C17.6834 9.90237 18.3166 9.90237 18.7071 10.2929C19.0976 10.6834 19.0976 11.3166 18.7071 11.7071L12.7071 17.7071C12.3166 18.0976 11.6834 18.0976 11.2929 17.7071L5.29289 11.7071C4.90237 11.3166 4.90237 10.6834 5.29289 10.2929C5.68342 9.90237 6.31658 9.90237 6.70711 10.2929L11 14.5858L11 3Z" fill="black"/>
<path d="M20 22C20.5523 22 21 21.5523 21 21C21 20.4477 20.5523 20 20 20L4 20C3.44772 20 3 20.4477 3 21C3 21.5523 3.44772 22 4 22L20 22Z" fill="black"/>
</svg>
