<svg width="24" height="24" viewBox="0 0 24 24" fill="none" xmlns="http://www.w3.org/2000/svg">
<path d="M16.5518 2.99492C18.9941 4.1012 20.8727 6.02659 21.7117 7.85848C22.3969 9.35478 22.766 10.8396 22.5435 12.1536C22.3058 13.5566 21.4194 14.6135 19.9643 15.1918C17.5061 16.1688 15.1055 14.3859 14.1743 12.0576C13.9516 11.5008 13.4237 10.5019 11.9779 10.5067C11.1106 10.5095 10.3789 11.0148 10.0761 11.9156C9.76675 12.8357 9.86909 14.3281 11.1329 16.2221C12.1206 17.7024 13.4026 18.6546 14.5873 19.2316C15.7962 19.8203 16.8347 19.986 17.2789 19.9677C17.8307 19.9449 18.2964 20.3738 18.3192 20.9257C18.3419 21.4775 17.913 21.9432 17.3612 21.966C16.5054 22.0012 15.1363 21.7235 13.7116 21.0297C12.2628 20.3241 10.6853 19.1547 9.4692 17.3322C7.97819 15.0976 7.61526 12.9591 8.18036 11.2783C8.75196 9.5781 10.2344 8.51243 11.9712 8.50668C14.7049 8.49763 15.7261 10.5518 16.0313 11.3149C16.7415 13.0906 18.2076 13.7378 19.2256 13.3332C20.0942 12.988 20.4614 12.4701 20.5715 11.8196C20.6968 11.0801 20.5077 10.0329 19.8933 8.69126C19.2737 7.33831 17.7714 5.74299 15.7266 4.81673C13.7175 3.90667 11.2289 3.6613 8.58252 4.90619C3.71381 7.19647 2.58266 12.2232 3.89037 15.7453C4.08261 16.263 3.81873 16.8386 3.30099 17.0308C2.78324 17.223 2.20768 16.9592 2.01544 16.4414C0.39369 12.0736 1.80275 5.88521 7.73119 3.09642C10.9688 1.57344 14.0737 1.87244 16.5518 2.99492Z" fill="black"/>
<path d="M11.963 11.8129C12.5103 11.7385 13.0142 12.1219 13.0885 12.6692C13.1612 13.2039 13.6735 14.2228 14.6107 15.1559C15.5268 16.0681 16.6761 16.723 17.8544 16.7744C18.4062 16.7985 18.834 17.2653 18.8099 17.8171C18.7858 18.3688 18.319 18.7966 17.7673 18.7725C15.9214 18.692 14.3273 17.696 13.1996 16.5732C12.0929 15.4714 11.2606 14.0714 11.1067 12.9384C11.0324 12.3911 11.4158 11.8872 11.963 11.8129Z" fill="black"/>
<path d="M11.547 7.26195C12.0921 7.18694 13.2748 7.22588 14.4672 7.79401C15.6199 8.34326 16.8137 9.39951 17.4618 11.4383C17.6291 11.9647 18.1915 12.2557 18.7178 12.0884C19.2441 11.9211 19.5352 11.3588 19.3679 10.8325C18.5426 8.23616 16.9504 6.7618 15.3275 5.98849C13.7442 5.23408 12.1615 5.15853 11.2744 5.28063C9.07644 5.58312 5.57579 7.27421 4.79092 11.3951C4.39239 13.4875 4.95595 15.5754 5.76336 17.2803C6.57354 18.9911 7.68035 20.4262 8.53274 21.2635C8.92673 21.6505 9.55987 21.6449 9.9469 21.2509C10.3339 20.8569 10.3283 20.2237 9.93429 19.8367C9.24452 19.1591 8.27729 17.9159 7.57092 16.4243C6.86179 14.9269 6.4663 13.2882 6.7556 11.7693C7.32584 8.77533 9.8734 7.49229 11.547 7.26195Z" fill="black"/>
</svg>
