<svg width="24" height="24" viewBox="0 0 24 24" fill="none" xmlns="http://www.w3.org/2000/svg">
<path fill-rule="evenodd" clip-rule="evenodd" d="M16 4C16 2.89543 16.8954 2 18 2H20C21.1046 2 22 2.89543 22 4V6C22 7.10457 21.1046 8 20 8H18C17.8208 8 17.6472 7.97644 17.482 7.93226L14.7076 10.7066C14.895 11.0982 15 11.5369 15 12C15 13.6569 13.6569 15 12 15C10.3431 15 9 13.6569 9 12C9 10.3431 10.3431 9 12 9C12.4631 9 12.9018 9.10495 13.2934 9.29237L16.0677 6.51804C16.0236 6.35282 16 6.17916 16 6V4ZM20 4H18V6H20V4ZM11 12C11 11.4477 11.4477 11 12 11C12.5523 11 13 11.4477 13 12C13 12.5523 12.5523 13 12 13C11.4477 13 11 12.5523 11 12Z" fill="black"/>
<path d="M6 12C6 8.68629 8.68629 6 12 6C12.5523 6 13 5.55228 13 5C13 4.44772 12.5523 4 12 4C7.58172 4 4 7.58172 4 12C4 13.8487 4.62708 15.551 5.68014 16.9056L4.41359 18.1722C4.1306 18.061 3.82243 18 3.5 18C2.11929 18 1 19.1193 1 20.5C1 21.8807 2.11929 23 3.5 23C4.88071 23 6 21.8807 6 20.5C6 20.1776 5.93896 19.8694 5.82781 19.5864L7.09436 18.3199C8.44904 19.3729 10.1513 20 12 20C13.8487 20 15.551 19.3729 16.9056 18.3199L18.1722 19.5864C18.061 19.8694 18 20.1776 18 20.5C18 21.8807 19.1193 23 20.5 23C21.8807 23 23 21.8807 23 20.5C23 19.1193 21.8807 18 20.5 18C20.1776 18 19.8694 18.061 19.5864 18.1722L18.3199 16.9056C19.3729 15.551 20 13.8487 20 12C20 11.4477 19.5523 11 19 11C18.4477 11 18 11.4477 18 12C18 15.3137 15.3137 18 12 18C8.68629 18 6 15.3137 6 12Z" fill="black"/>
</svg>
