<svg xmlns="http://www.w3.org/2000/svg" width="24" height="24" fill="none" viewBox="0 0 24 24"><path fill="#000" fill-rule="evenodd" d="M11.5431 2.6006a1 1 0 0 1 .9138 0l9.6168 4.94a1 1 0 0 1 .3316.2615.996.996 0 0 1 .2292.6372v4.8941c0 .5523-.4477 1-1 1s-1-.4477-1-1v-3.2563l-1.4626.7514v6.731c0 .3852-.2212.7361-.5687.9023l-6.1719 2.9503a1 1 0 0 1-.8626 0l-6.1719-2.9503a1 1 0 0 1-.5687-.9023v-6.731L1.9086 9.3287a1 1 0 0 1 0-1.779zm.9138 11.6773 4.715-2.4221v5.0734L12 19.4015l-5.1719-2.4723v-5.0733l4.715 2.422a1 1 0 0 0 .9138 0M4.554 8.4392 12 12.2641l7.446-3.8249L12 4.6143z"/></svg>