<svg xmlns="http://www.w3.org/2000/svg" width="24" height="24" fill="none" viewBox="0 0 24 24"><path d="M24 0H0v24h24z"/><path fill="#000" fill-rule="evenodd" d="M22.2014 11.8594c0-5.5229-4.4772-10-10-10-2.237 0-4.3026.7346-5.9685 1.9757l1.4332 1.4331c1.289-.8886 2.8514-1.4088 4.5353-1.4088 1.8487 0 3.551.627 4.9056 1.6801l-4.5848 4.5848 1.4142 1.4143 4.5849-4.5849c1.053 1.3547 1.6801 3.057 1.6801 4.9057 0 1.6839-.5203 3.2463-1.4089 4.5353l1.4332 1.4331c1.2411-1.6658 1.9757-3.7313 1.9757-5.9684m-3.6099 9.9884-1.3498-1.3497c-1.4799.8653-3.2022 1.3613-5.0403 1.3613-5.5229 0-10-4.4772-10-10 0-1.8381.496-3.5604 1.3613-5.0404L2.0915 5.3478c-.3906-.3905-.3906-1.0237 0-1.4142s1.0237-.3905 1.4142 0l16.5 16.5c.3905.3905.3905 1.0237 0 1.4142s-1.0237.3905-1.4142 0m-8.8964-8.8963L5.0378 8.2941c-.5353 1.0735-.8364 2.2842-.8364 3.5653 0 1.8487.627 3.5509 1.6801 4.9056zm-2.3993 5.2277 3.8135-3.8135 4.6573 4.6573c-1.0734.5353-2.2842.8364-3.5652.8364-1.8487 0-3.551-.6271-4.9056-1.6802"/></svg>