<svg width="24" height="24" viewBox="0 0 24 24" fill="none" xmlns="http://www.w3.org/2000/svg">
<path d="M12.2014 1.85938C17.7242 1.85938 22.2014 6.33653 22.2014 11.8594C22.2014 14.0964 21.4668 16.162 20.2257 17.8278L18.7925 16.3946C19.6811 15.1057 20.2014 13.5433 20.2014 11.8594C20.2014 10.0107 19.5743 8.30841 18.5213 6.95373L13.9364 11.5385L12.5222 10.1243L17.107 5.53952C15.7524 4.48646 14.0501 3.85938 12.2014 3.85938C10.5175 3.85938 8.95505 4.37965 7.66613 5.26823L6.23294 3.83505C7.89883 2.59395 9.96433 1.85938 12.2014 1.85938Z" fill="black"/>
<path fill-rule="evenodd" clip-rule="evenodd" d="M17.2417 20.4981L18.5915 21.8478C18.982 22.2383 19.6152 22.2383 20.0057 21.8478C20.3962 21.4573 20.3962 20.8241 20.0057 20.4336L3.50569 3.9336C3.11517 3.54308 2.482 3.54308 2.09148 3.9336C1.70095 4.32413 1.70095 4.95729 2.09148 5.34782L3.56269 6.81903C2.69733 8.29898 2.2014 10.0213 2.2014 11.8594C2.2014 17.3822 6.67855 21.8594 12.2014 21.8594C14.0395 21.8594 15.7618 21.3634 17.2417 20.4981ZM5.0378 8.29413L9.69511 12.9515L5.88154 16.765C4.82848 15.4103 4.2014 13.7081 4.2014 11.8594C4.2014 10.5783 4.5025 9.36761 5.0378 8.29413ZM11.1093 14.3657L7.29576 18.1792C8.65044 19.2323 10.3527 19.8594 12.2014 19.8594C13.4824 19.8594 14.6932 19.5583 15.7666 19.023L11.1093 14.3657Z" fill="black"/>
</svg>
