<svg xmlns="http://www.w3.org/2000/svg" width="24" height="24" fill="none" viewBox="0 0 24 24"><path fill="#000" fill-rule="evenodd" d="M10 3c-1.3062 0-2.4175.8348-2.8293 2H18c.5523 0 1 .4477 1 1v8c0 .5523-.4477 1-1 1h-1v-5c0-1.6569-1.3431-3-3-3H6c-1.6569 0-3 1.3431-3 3v8c0 1.6569 1.3431 3 3 3h8c1.6569 0 3-1.3431 3-3v-1h1c1.6569 0 3-1.3431 3-3V6c0-1.6569-1.3431-3-3-3zM7 9H6c-.5523 0-1 .4477-1 1v8c0 .5523.4477 1 1 1h8c.5523 0 1-.4477 1-1v-8c0-.5523-.4477-1-1-1H9v5c0 .5523.4477 1 1 1h3v2h-3c-1.6569 0-3-1.3431-3-3z"/></svg>