<svg xmlns="http://www.w3.org/2000/svg" width="24" height="24" fill="none" viewBox="0 0 24 24"><path fill="#000" fill-rule="evenodd" d="M6 3C4.3431 3 3 4.3431 3 6v12c0 1.6569 1.3431 3 3 3h12c1.6569 0 3-1.3431 3-3V6c0-1.6569-1.3431-3-3-3zM5 6c0-.5523.4477-1 1-1h12c.5523 0 1 .4477 1 1v12c0 .5523-.4477 1-1 1H6c-.5523 0-1-.4477-1-1zm5.8276 3.7744c0-.6362.5325-1.1724 1.1913-1.1724.6381 0 1.1535.5193 1.1535 1.1348v.3233a.721.721 0 0 1-.546.6993A2.147 2.147 0 0 0 11 12.8424v.7336c0 .5523.4477 1 1 1s1-.4477 1-1v-.7336a.147.147 0 0 1 .1115-.1427c1.2112-.3028 2.0609-1.3911 2.0609-2.6396v-.3233c0-1.7425-1.4335-3.1348-3.1535-3.1348-1.7407 0-3.1913 1.409-3.1913 3.1724 0 .5523.4478 1 1 1s1-.4477 1-1m2.2586 6.5171c0 .5999-.4863 1.0862-1.0862 1.0862s-1.0862-.4863-1.0862-1.0862.4863-1.0862 1.0862-1.0862 1.0862.4863 1.0862 1.0862"/></svg>