<svg xmlns="http://www.w3.org/2000/svg" width="24" height="24" fill="none" viewBox="0 0 24 24"><path fill="#000" fill-rule="evenodd" d="M7 2C5.3431 2 4 3.3431 4 5v14c0 1.6569 1.3431 3 3 3h10c1.6569 0 3-1.3431 3-3V5c0-1.6569-1.3431-3-3-3zM6 5c0-.5523.4477-1 1-1h10c.5523 0 1 .4477 1 1v14c0 .5523-.4477 1-1 1H7c-.5523 0-1-.4477-1-1zm4.561 4.9822c0-.6362.5325-1.1724 1.1913-1.1724.6381 0 1.1535.5194 1.1535 1.1349v.3232a.721.721 0 0 1-.546.6993 2.147 2.147 0 0 0-1.6264 2.0831v.7335c0 .5523.4477 1 1 1s1-.4477 1-1v-.7335c0-.0676.046-.1264.1115-.1428 1.2112-.3028 2.0609-1.3911 2.0609-2.6396v-.3232c0-1.7426-1.4335-3.1349-3.1535-3.1349-1.7407 0-3.1913 1.4091-3.1913 3.1724 0 .5523.4478 1 1 1s1-.4477 1-1m2.2586 6.5171c0 .5999-.4863 1.0862-1.0862 1.0862s-1.0862-.4863-1.0862-1.0862.4863-1.0862 1.0862-1.0862 1.0862.4863 1.0862 1.0862"/></svg>