<svg xmlns="http://www.w3.org/2000/svg" width="24" height="24" fill="none" viewBox="0 0 24 24"><path fill="#000" fill-rule="evenodd" d="M12 1C9.2386 1 7 3.2386 7 6v1c-1.6569 0-3 1.3431-3 3v8c0 1.6569 1.3431 3 3 3h10c1.6569 0 3-1.3431 3-3v-8c0-1.6569-1.3431-3-3-3H9V6c0-1.6569 1.3431-3 3-3 1.0279 0 1.9355.516 2.4776 1.3078.3121.4556.9344.572 1.3901.26s.5721-.9344.2601-1.39C15.2288 1.8648 13.7155 1 12 1m6 9c0-.5523-.4477-1-1-1H7c-.5523 0-1 .4477-1 1v8c0 .5523.4477 1 1 1h10c.5523 0 1-.4477 1-1zm-4 4c0 1.1046-.8954 2-2 2s-2-.8954-2-2 .8954-2 2-2 2 .8954 2 2"/></svg>