<svg xmlns="http://www.w3.org/2000/svg" width="24" height="24" fill="none" viewBox="0 0 24 24"><path fill="#000" fill-rule="evenodd" d="M20.0037 2c-2.7615 0-5 2.2386-5 5v1H7c-1.6569 0-3 1.3431-3 3v8c0 1.6569 1.3431 3 3 3h10c1.6569 0 3-1.3431 3-3v-8c0-1.6556-1.3412-2.998-2.9963-3V7c0-1.6569 1.3431-3 3-3 .8923 0 1.6927.3884 2.2437 1.0086.3668.4128.9989.4502 1.4118.0834s.4502-.9989.0834-1.4118C22.8281 2.651 21.4913 2 20.0037 2M7 10c-.5523 0-1 .4477-1 1v8c0 .5523.4477 1 1 1h10c.5523 0 1-.4477 1-1v-8c0-.5523-.4477-1-1-1z"/></svg>