<svg width="24" height="24" viewBox="0 0 24 24" fill="none" xmlns="http://www.w3.org/2000/svg">
<path fill-rule="evenodd" clip-rule="evenodd" d="M20.0037 2C17.2422 2 15.0037 4.23858 15.0037 7V8H7C5.34315 8 4 9.34315 4 11V19C4 20.6569 5.34315 22 7 22H17C18.6569 22 20 20.6569 20 19V11C20 9.34437 18.6588 8.00198 17.0037 8V7C17.0037 5.34315 18.3468 4 20.0037 4C20.896 4 21.6964 4.38837 22.2474 5.00856C22.6142 5.42144 23.2463 5.45879 23.6592 5.09198C24.072 4.72517 24.1094 4.09311 23.7426 3.68023C22.8281 2.65092 21.4913 2 20.0037 2ZM7 10C6.44772 10 6 10.4477 6 11V19C6 19.5523 6.44772 20 7 20H17C17.5523 20 18 19.5523 18 19V11C18 10.4477 17.5523 10 17 10H7Z" fill="black"/>
</svg>
