<svg width="24" height="24" viewBox="0 0 24 24" fill="none" xmlns="http://www.w3.org/2000/svg">
<path fill-rule="evenodd" clip-rule="evenodd" d="M7 7C7 4.23858 9.23858 2 12 2C13.7155 2 15.2288 2.86485 16.1278 4.17776C16.4398 4.63345 16.3234 5.25581 15.8677 5.56785C15.412 5.87989 14.7897 5.76344 14.4776 5.30775C13.9355 4.51604 13.0279 4 12 4C10.3431 4 9 5.34315 9 7V8H17C18.6569 8 20 9.34315 20 11V19C20 20.6569 18.6569 22 17 22H7C5.34315 22 4 20.6569 4 19V11C4 9.34315 5.34315 8 7 8V7ZM7 10H17C17.5523 10 18 10.4477 18 11V19C18 19.5523 17.5523 20 17 20H7C6.44772 20 6 19.5523 6 19V11C6 10.4477 6.44772 10 7 10Z" fill="black"/>
</svg>
