<svg width="24" height="24" viewBox="0 0 24 24" fill="none" xmlns="http://www.w3.org/2000/svg">
<path fill-rule="evenodd" clip-rule="evenodd" d="M7.99995 8.48494L4.07317 4.55819C3.68264 4.16766 3.68264 3.5345 4.07316 3.14397C4.46369 2.75345 5.09685 2.75345 5.48738 3.14397L18.8479 16.5044C19.2384 16.8949 19.2384 17.528 18.8479 17.9186C18.4573 18.3091 17.8242 18.3091 17.4336 17.9186L14.3651 14.8501H12.9999V21.8501C12.9999 22.4024 12.5522 22.8501 11.9999 22.8501C11.4477 22.8501 10.9999 22.4024 10.9999 21.8501V14.8501H4.99995C4.44766 14.8501 3.99995 14.4024 3.99995 13.8501C3.99995 13.2978 4.44766 12.8501 4.99995 12.8501C6.6568 12.8501 7.99995 11.507 7.99995 9.8501V8.48494ZM12.3651 12.8501H9.00031C9.51491 12.165 9.85761 11.3434 9.9644 10.4494L12.3651 12.8501Z" fill="black"/>
<path d="M13.9999 4.8501V8.83638L16.2791 11.1155C16.1 10.731 15.9999 10.3022 15.9999 9.8501V4.8501H16.9999C17.5522 4.8501 17.9999 4.40238 17.9999 3.8501C17.9999 3.29781 17.5522 2.8501 16.9999 2.8501H8.01363L10.0136 4.8501H13.9999Z" fill="black"/>
</svg>
