<svg xmlns="http://www.w3.org/2000/svg" width="24" height="24" fill="none" viewBox="0 0 24 24"><path fill="#000" fill-rule="evenodd" d="M14 7.9863V4h-3.9864l-2-2H17c.5522 0 1 .4477 1 1s-.4478 1-1 1h-1v5c0 .4521.1.881.2791 1.2654zM4.0732 3.708 8 7.6348V9c0 1.6569-1.3432 3-3 3-.5523 0-1 .4477-1 1s.4477 1 1 1h6v7c0 .5523.4477 1 1 1s1-.4477 1-1v-7h1.3652l3.0684 3.0685c.3906.3905 1.0237.3905 1.4143 0s.3905-1.0237 0-1.4142L5.4874 2.2939c-.3906-.3906-1.0237-.3905-1.4142 0-.3906.3905-.3906 1.0237 0 1.4142M9.0003 12h3.3648L9.9644 9.5993A4.974 4.974 0 0 1 9.0004 12"/></svg>