<svg xmlns="http://www.w3.org/2000/svg" width="24" height="24" fill="none" viewBox="0 0 24 24"><path fill="#000" fill-rule="evenodd" d="M11.8567 4.0193c3.2154 0 5.9894 1.8386 7.3065 4.5h-1.4341c-.5523 0-1 .4477-1 1s.4477 1 1 1h4.0041c.5522 0 1-.4477 1-1v-4c0-.5523-.4478-1-1-1s-1 .4477-1 1v1.6892c-1.7226-3.0955-5.0545-5.1892-8.8765-5.1892-4.6073 0-8.5044 3.0426-9.7261 7.2193-.155.53.149 1.0854.679 1.2405.5301.155 1.0855-.149 1.2405-.679.9746-3.332 4.0956-5.7808 7.8066-5.7808M3.2666 18.4807v-1.6893c1.7225 3.0956 5.0544 5.1893 8.8765 5.1893 4.6073 0 8.5044-3.0426 9.7261-7.2193.155-.5301-.149-1.0855-.6791-1.2405s-1.0854.149-1.2405.679c-.9746 3.3319-4.0956 5.7808-7.8065 5.7808-3.2154 0-5.9895-1.8387-7.3065-4.5h1.434c.5523 0 1-.4477 1-1s-.4477-1-1-1h-4.004c-.5523 0-1 .4477-1 1v4c0 .5523.4477 1 1 1s1-.4477 1-1"/></svg>