<svg xmlns="http://www.w3.org/2000/svg" width="24" height="24" fill="none" viewBox="0 0 24 24"><path fill="#000" fill-rule="evenodd" d="M4 5c0-1.6569 1.3431-3 3-3h5.8265a1.5 1.5 0 0 1 1.0645.4432l5.6735 5.7146c.2789.281.4355.6609.4355 1.0568v2.864a6.39 6.39 0 0 0-2-.8304V9.9849h-2.9907c-1.6569 0-3-1.3432-3-3V4H7c-.5523 0-1 .4477-1 1v14c0 .5523.4477 1 1 1h4.0728a2.988 2.988 0 0 0 .8088 1.9156q.04.0425.0807.0844H7c-1.6569 0-3-1.3431-3-3zm10.0093.401 2.5652 2.5839h-1.5652c-.5523 0-1-.4478-1-1zm-.3227 8.3235c0-.5523-.4477-1-1-1s-1 .4477-1 1v2.9454c0 .5522.4478 1 1 1h2.8044c.5523 0 1-.4478 1-1s-.4477-1-1-1h-.4966a2.42 2.42 0 0 1 1.5767-.5811c1.3415 0 2.4289 1.0875 2.4289 2.429s-1.0874 2.4289-2.4289 2.4289c-.6989 0-1.3276-.2939-1.7721-.7677-.3778-.4028-1.0106-.423-1.4134-.0452s-.4231 1.0107-.0453 1.4135c.8068.86 1.9566 1.3994 3.2308 1.3994 2.446 0 4.4289-1.9829 4.4289-4.4289 0-2.4461-1.9829-4.429-4.4289-4.429-1.1024 0-2.11.4028-2.8845 1.0682z"/></svg>