<svg xmlns="http://www.w3.org/2000/svg" width="24" height="24" fill="none" viewBox="0 0 24 24"><path fill="#000" fill-rule="evenodd" d="M11.0997 2.3516a2 2 0 0 1 1.8428 0l6.5604 3.4053a1 1 0 0 1 .5393.8876v5.1703c0 .9972-.1127 2.0766-.5301 3.1027-1.1255 2.767-2.9086 4.5232-4.4105 5.5847-.7499.53-1.4318.8886-1.9322 1.1167a9 9 0 0 1-.6042.2508 6 6 0 0 1-.1764.0624l-.0267.0088-.0257.0082-.0167.0053-.0059.0018-.0023.0007-.0019.0006L12.0211 21c.2862.9501.288.9576.2885.9575a1 1 0 0 1-.5397.0104l.2509-.9669c-.25.9636-.2514.9668-.2519.9667l-.0011-.0003-.0025-.0007-.0063-.0016-.0174-.0048-.0162-.0045-.0379-.0109a6 6 0 0 1-.1805-.0569 8.3 8.3 0 0 1-.6151-.2337c-.5086-.2152-1.2004-.5594-1.96-1.0832-1.5239-1.0509-3.3176-2.8241-4.4366-5.7024C4.1069 13.8696 4 12.8252 4 11.8566V6.6445a1 1 0 0 1 .5393-.8876zm.9034 17.5916a7 7 0 0 1-.3318-.1308c-.4046-.1712-.9735-.453-1.6039-.8878-1.256-.8661-2.7591-2.3398-3.708-4.7806C6.0943 13.4625 6 12.6911 6 11.8566V7.2521l6.0211-3.1254 6.0211 3.1254v4.5627c0 .8609-.1 1.6541-.3827 2.3491-.9519 2.3403-2.4511 3.8138-3.7122 4.7051-.6316.4464-1.2014.745-1.6074.93a7.5 7.5 0 0 1-.3368.1442m-.7102-12.6503c.3905-.3905 1.0237-.3905 1.4142 0l2.5 2.5c.3905.3905.3905 1.0237 0 1.4142s-1.0237.3905-1.4142 0L13 10.4142V16c0 .5523-.4477 1-1 1s-1-.4477-1-1v-5.5858l-.7929.7929c-.3905.3905-1.0237.3905-1.4142 0s-.3905-1.0237 0-1.4142z"/></svg>