<svg width="24" height="24" viewBox="0 0 24 24" fill="none" xmlns="http://www.w3.org/2000/svg">
<path d="M20 15C20.5523 15 21 15.4477 21 16V18C20.9999 19.6568 19.6568 21 18 21H6C4.34322 21 3.00013 19.6568 3 18V16C3 15.4477 3.44772 15 4 15C4.55228 15 5 15.4477 5 16V18C5.00013 18.5522 5.44779 19 6 19H18C18.5522 19 18.9999 18.5522 19 18V16C19 15.4477 19.4477 15 20 15Z" fill="black"/>
<path d="M11.3691 3.22462C11.7619 2.90427 12.3409 2.92686 12.707 3.29298L16.707 7.29298L16.7754 7.36915C17.0956 7.76192 17.0731 8.34097 16.707 8.70704C16.3409 9.07301 15.7619 9.09562 15.3691 8.7754L15.293 8.70704L13 6.41407V14C12.9999 14.5522 12.5522 15 12 15C11.4478 15 11.0001 14.5522 11 14V6.41407L8.70703 8.70704C8.31654 9.09741 7.68346 9.09741 7.29297 8.70704C6.90248 8.31656 6.90256 7.68351 7.29297 7.29298L11.293 3.29298L11.3691 3.22462Z" fill="black"/>
</svg>
