<svg xmlns="http://www.w3.org/2000/svg" width="24" height="24" fill="none" viewBox="0 0 24 24"><path fill="#000" fill-rule="evenodd" d="M5.7158 8.6235c.9695-2.902 3.5269-4.621 6.2842-4.621 2.2603 0 4.3284 1.1182 5.5995 3.122C19.9942 7.5679 22 9.7166 22 12.5025c0 2.3624-1.4894 4.3769-3.5804 5.1558.5584-.7595.7138-1.7224.4665-2.5951.6853-.639 1.1139-1.5498 1.1139-2.5607 0-1.921-1.4827-3.3328-3.0905-3.4536l-.545-.041-.2598-.4808C15.2116 6.8743 13.6764 6.0024 12 6.0024c-2.0377 0-3.961 1.3493-4.527 3.747l-.1681.712-.7294.0554c-.8125.0618-1.4377.3824-1.8629.8605C4.2851 11.8581 4 12.5664 4 13.5024c0 .7446.4105 1.4539 1.0347 1.9255-.133.8692.1165 1.7855.7485 2.4775C3.7473 17.4834 2 15.7284 2 13.5024c0-1.3516.4187-2.5551 1.218-3.4541.6501-.731 1.5126-1.2157 2.4978-1.4248m6.9913 2.5533 4 4c.3905.3905.3905 1.0237 0 1.4142-.3905.3906-1.0237.3906-1.4142 0L13 14.2981v6.6958c0 .5523-.4477 1-1 1s-1-.4477-1-1v-6.6958L8.7071 16.591c-.3905.3906-1.0237.3906-1.4142 0s-.3905-1.0237 0-1.4142l4-4c.3905-.3905 1.0237-.3905 1.4142 0"/></svg>