<svg width="24" height="24" viewBox="0 0 24 24" fill="none" xmlns="http://www.w3.org/2000/svg">
<path d="M12.7071 2.29289C12.3166 1.90237 11.6834 1.90237 11.2929 2.29289L7.29289 6.29289C6.90237 6.68342 6.90237 7.31658 7.29289 7.70711C7.68342 8.09763 8.31658 8.09763 8.70711 7.70711L11 5.41421V16C11 16.5523 11.4477 17 12 17C12.5523 17 13 16.5523 13 16V5.41421L15.2929 7.70711C15.6834 8.09763 16.3166 8.09763 16.7071 7.70711C17.0976 7.31658 17.0976 6.68342 16.7071 6.29289L12.7071 2.29289Z" fill="black"/>
<path d="M4 13C4 12.4477 4.44772 12 5 12H7.5C8.05228 12 8.5 11.5523 8.5 11C8.5 10.4477 8.05228 10 7.5 10H5C3.34315 10 2 11.3431 2 13V19C2 20.6569 3.34315 22 5 22H19C20.6569 22 22 20.6569 22 19V13C22 11.3431 20.6569 10 19 10H16.5C15.9477 10 15.5 10.4477 15.5 11C15.5 11.5523 15.9477 12 16.5 12H19C19.5523 12 20 12.4477 20 13V19C20 19.5523 19.5523 20 19 20H5C4.44772 20 4 19.5523 4 19V13Z" fill="black"/>
</svg>
