<svg xmlns="http://www.w3.org/2000/svg" width="24" height="24" fill="none" viewBox="0 0 24 24"><path fill="#000" fill-rule="evenodd" d="M11.2929 2.2929c.3905-.3905 1.0237-.3905 1.4142 0l4 4c.3905.3905.3905 1.0237 0 1.4142s-1.0237.3905-1.4142 0L13 5.4142V16c0 .5523-.4477 1-1 1s-1-.4477-1-1V5.4142L8.7071 7.7071c-.3905.3905-1.0237.3905-1.4142 0s-.3905-1.0237 0-1.4142zM5 12c-.5523 0-1 .4477-1 1v6c0 .5523.4477 1 1 1h14c.5523 0 1-.4477 1-1v-6c0-.5523-.4477-1-1-1h-2.5c-.5523 0-1-.4477-1-1s.4477-1 1-1H19c1.6569 0 3 1.3431 3 3v6c0 1.6569-1.3431 3-3 3H5c-1.6569 0-3-1.3431-3-3v-6c0-1.6569 1.3431-3 3-3h2.5c.5523 0 1 .4477 1 1s-.4477 1-1 1z"/></svg>