<svg xmlns="http://www.w3.org/2000/svg" width="24" height="24" fill="none" viewBox="0 0 24 24"><path fill="#000" fill-rule="evenodd" d="M6 2C3.7909 2 2 3.7909 2 6v12c0 2.2091 1.7909 4 4 4h12c2.2091 0 4-1.7909 4-4V6c0-2.2091-1.7909-4-4-4zM4 6c0-1.1046.8954-2 2-2h12c1.1046 0 2 .8954 2 2v12c0 1.1046-.8954 2-2 2H6c-1.1046 0-2-.8954-2-2zm8 0c.5523 0 1 .4477 1 1v4c0 .5523-.4477 1-1 1s-1-.4477-1-1V7c0-.5523.4477-1 1-1M9.6876 9.9449c.3462-.4303.278-1.0598-.1524-1.406s-1.0599-.2778-1.406.1525C7.4226 9.5699 7 10.6933 7 11.9122 7 14.7015 9.2182 17 12 17s5-2.2985 5-5.0878c0-1.2189-.4226-2.3423-1.1292-3.2208-.3461-.4303-.9756-.4986-1.406-.1525-.4303.3462-.4986.9757-.1524 1.406.4286.5329.6876 1.2165.6876 1.9673C15 13.6381 13.6365 15 12 15s-3-1.3619-3-3.0878c0-.7508.259-1.4344.6876-1.9673"/></svg>