<svg xmlns="http://www.w3.org/2000/svg" width="24" height="24" fill="none" viewBox="0 0 24 24"><path fill="#000" fill-rule="evenodd" d="M7 2C5.3431 2 4 3.3431 4 5v14c0 1.6569 1.3431 3 3 3h10c1.6569 0 3-1.3431 3-3V5c0-1.6569-1.3431-3-3-3zM6 5c0-.5523.4477-1 1-1h10c.5523 0 1 .4477 1 1v14c0 .5523-.4477 1-1 1H7c-.5523 0-1-.4477-1-1zm6 1c.5523 0 1 .4477 1 1v4c0 .5523-.4477 1-1 1s-1-.4477-1-1V7c0-.5523.4477-1 1-1M9.6876 9.9449c.3462-.4304.278-1.0599-.1524-1.406s-1.0599-.2779-1.406.1525C7.4226 9.5699 7 10.6932 7 11.912 7 14.7015 9.2182 17 12 17s5-2.2985 5-5.0879c0-1.2189-.4226-2.3422-1.1292-3.2207-.3461-.4304-.9756-.4986-1.406-.1525s-.4986.9756-.1524 1.406c.4286.5329.6876 1.2165.6876 1.9672C15 13.6381 13.6365 15 12 15s-3-1.3619-3-3.0879c0-.7507.259-1.4343.6876-1.9672"/></svg>