<svg xmlns="http://www.w3.org/2000/svg" width="24" height="24" fill="none" viewBox="0 0 24 24"><path fill="#000" d="M12.3213 1.2379c-.1599-.2156-.4827-.2156-.6426 0L9.3561 4.3694c-.1958.264-.0074.6383.3213.6383H11v7.9922H8v-2.0091c.728-.3664 1.2274-1.1203 1.2274-1.9909 0-1.2302-.9973-2.2275-2.2275-2.2275S4.7725 7.7697 4.7725 9c0 .8706.4995 1.6246 1.2275 1.991V13c0 1.1046.8954 2 2 2h3v2.8953c-.9543.3933-1.626 1.3326-1.626 2.4288 0 1.4503 1.1757 2.6259 2.6259 2.6259s2.626-1.1756 2.626-2.6259c0-1.0962-.6717-2.0354-1.6259-2.4288V15h3c1.1046 0 2-.8954 2-2v-2c.5523 0 1-.4477 1-1V8c0-.5523-.4477-1-1-1h-2c-.5523 0-1 .4477-1 1v2c0 .5523.4477 1 1 1v2h-3V5.0077h1.3226c.3287 0 .5171-.3743.3213-.6383z"/></svg>