<svg xmlns="http://www.w3.org/2000/svg" width="24" height="24" fill="none" viewBox="0 0 24 24"><path fill="#000" fill-rule="evenodd" d="M8 7c0-2.2091 1.7909-4 4-4s4 1.7909 4 4-1.7909 4-4 4-4-1.7909-4-4m4-2c-1.1046 0-2 .8954-2 2s.8954 2 2 2 2-.8954 2-2-.8954-2-2-2M4 17.2C4 14.3281 6.3281 12 9.2 12h5.6c2.8719 0 5.2 2.3281 5.2 5.2v.8c0 1.6569-1.3431 3-3 3H7c-1.6569 0-3-1.3431-3-3zM9.2 14C7.4327 14 6 15.4327 6 17.2v.8c0 .5523.4477 1 1 1h10c.5523 0 1-.4477 1-1v-.8c0-1.7673-1.4327-3.2-3.2-3.2z"/></svg>