<svg xmlns="http://www.w3.org/2000/svg" width="24" height="24" fill="none" viewBox="0 0 24 24"><path fill="#000" fill-rule="evenodd" d="M12.3971 7.3835c0-1.956 1.5891-3.5368 3.5437-3.5368s3.5437 1.5809 3.5437 3.5368-1.5892 3.5367-3.5437 3.5367-3.5437-1.5809-3.5437-3.5367m-8.1055.0223c0-1.9559 1.5892-3.5368 3.5437-3.5368S11.379 5.45 11.379 7.4058s-1.5891 3.5368-3.5437 3.5368-3.5437-1.581-3.5437-3.5368m11.6492-1.5591c-.8551 0-1.5437.6906-1.5437 1.5368s.6886 1.5367 1.5437 1.5367 1.5437-.6906 1.5437-1.5367-.6886-1.5368-1.5437-1.5368m-8.1055.0223c-.8551 0-1.5437.6906-1.5437 1.5368s.6886 1.5368 1.5437 1.5368S9.379 8.252 9.379 7.4058 8.6905 5.869 7.8353 5.869m-1.679 6.2844c-2.2092 0-4 1.7908-4 4v2c0 1.1046.8954 2 2 2h7.9999c1.1046 0 2-.8954 2-2v-2c0-2.2092-1.7908-4-4-4zm9.4649 8h4.2224c1.1046 0 2-.8954 2-2v-2c0-2.2092-1.7908-4-4-4h-3.2152a6 6 0 0 1 1.1864 2h2.0288c1.1046 0 2 .8954 2 2v2h-3.6874a3.98 3.98 0 0 1-.535 2m-11.465-4c0-1.1046.8955-2 2-2h4c1.1046 0 2 .8954 2 2v2h-8z"/></svg>