<svg width="24" height="24" viewBox="0 0 24 24" fill="none" xmlns="http://www.w3.org/2000/svg">
<path d="M20.5164 2.26288C19.9399 1.73097 17.6104 0.0398698 12.4215 0.0168947C12.4215 0.0168947 6.30251 -0.352098 3.31958 2.38402C1.65911 4.04484 1.07499 6.47497 1.01337 9.48784C0.951759 12.5007 0.872042 18.147 6.31469 19.678H6.31991L6.31643 22.0141C6.31643 22.0141 6.28162 22.9599 6.90439 23.1528C7.65769 23.3867 8.09978 22.6679 8.81897 21.893C9.21373 21.4676 9.75886 20.8427 10.1696 20.3651C13.8919 20.6784 16.7548 19.9624 17.0799 19.8565C17.8315 19.6129 22.0843 19.0681 22.776 13.4221C23.4899 7.60284 22.4306 3.92196 20.5164 2.26288Z" fill="white"/>
<path d="M19.3063 3.43816C18.8189 2.99537 16.7153 1.67361 12.326 1.65446C12.326 1.65446 7.12844 1.31297 4.60536 3.59829C3.2011 4.9848 2.72802 7.04664 2.67615 9.56275C2.62428 12.0789 2.35554 16.8855 6.95786 18.1641C6.95786 18.1641 6.93976 21.7326 6.93767 22.0462C6.93767 22.2655 6.97248 22.4156 7.0978 22.4465C7.18796 22.4685 7.32303 22.4218 7.4379 22.3073C8.1738 21.5683 10.5298 18.726 10.5298 18.726C13.6909 18.9324 16.206 18.3082 16.4765 18.2198C17.1142 18.0148 20.5636 17.7185 21.1474 13.0031C21.7507 8.14248 20.9257 4.82467 19.3063 3.43816Z" fill="#7360F2"/>
<path d="M11.8436 4.15211C11.6815 4.15098 11.5492 4.28145 11.5481 4.44351C11.547 4.60558 11.6774 4.73787 11.8395 4.739C13.4017 4.74988 14.6926 5.26439 15.7322 6.27786C16.7622 7.28192 17.2977 8.66581 17.3114 10.4659C17.3126 10.6279 17.445 10.7583 17.607 10.7571C17.7691 10.7558 17.8995 10.6235 17.8983 10.4614C17.8836 8.54042 17.3073 6.99371 16.1419 5.8576C14.9861 4.73092 13.5466 4.16397 11.8436 4.15211Z" fill="white"/>
<path d="M12.066 5.94635C12.0778 5.78472 12.2184 5.66327 12.3801 5.6751C13.6124 5.76529 14.6043 6.18636 15.3268 6.97504C16.0415 7.75596 16.3812 8.72753 16.3566 9.867C16.3531 10.029 16.2189 10.1575 16.0568 10.154C15.8948 10.1505 15.7663 10.0163 15.7698 9.8543C15.7916 8.84949 15.4961 8.0294 14.894 7.3715C14.2938 6.71623 13.4546 6.34222 12.3372 6.26045C12.1756 6.24862 12.0541 6.10799 12.066 5.94635Z" fill="white"/>
<path d="M12.5109 7.52744C12.5193 7.36559 12.6574 7.24123 12.8192 7.24967C13.4248 7.28126 13.9286 7.46456 14.2874 7.83555C14.6448 8.20512 14.8201 8.72141 14.8508 9.34147C14.8588 9.50335 14.7341 9.64108 14.5723 9.64911C14.4104 9.65714 14.2727 9.53242 14.2646 9.37055C14.2383 8.83977 14.0927 8.47843 13.8655 8.24357C13.6397 8.01014 13.2952 7.86221 12.7887 7.83578C12.6268 7.82734 12.5025 7.68929 12.5109 7.52744Z" fill="white"/>
<path d="M12.8621 13.2864C12.8621 13.2864 13.2746 13.3212 13.4967 13.0476L13.9298 12.5029C14.1386 12.2327 14.6427 12.0604 15.1363 12.3354C15.5062 12.5464 15.8653 12.7757 16.2123 13.0226C16.5399 13.2635 17.2107 13.8232 17.2128 13.8232C17.5323 14.093 17.6061 14.4891 17.3886 14.9069C17.3886 14.9093 17.3868 14.9135 17.3868 14.9156C17.1472 15.331 16.843 15.7056 16.4856 16.0253C16.4814 16.0274 16.4814 16.0295 16.4776 16.0316C16.167 16.2911 15.862 16.4385 15.5624 16.4741C15.5183 16.4818 15.4734 16.4846 15.4287 16.4824C15.2966 16.4837 15.1652 16.4635 15.0395 16.4225L15.0298 16.4083C14.5682 16.2781 13.7975 15.9522 12.514 15.2442C11.7713 14.8393 11.0642 14.3722 10.4003 13.8479C10.0675 13.5853 9.75013 13.3038 9.44963 13.0048L9.35355 12.9087C9.34276 12.8983 9.33232 12.8875 9.32152 12.8767C9.02253 12.5762 8.74103 12.2588 8.47841 11.926C7.95423 11.2622 7.48714 10.5552 7.08215 9.81268C6.3741 8.52886 6.04827 7.75885 5.91808 7.29656L5.90381 7.28682C5.863 7.16117 5.8429 7.02973 5.84428 6.89763C5.84185 6.85292 5.84453 6.80807 5.85229 6.76396C5.88965 6.46482 6.03737 6.15953 6.29543 5.84809C6.29752 5.84426 6.29961 5.84426 6.3017 5.84009C6.62136 5.48269 6.99599 5.17857 7.41146 4.93919C7.41355 4.93919 7.41773 4.9371 7.42016 4.9371C7.83789 4.71953 8.23404 4.79333 8.50347 5.11115C8.50556 5.11324 9.06427 5.78404 9.30412 6.11161C9.55101 6.45893 9.78035 6.81839 9.99128 7.18865C10.2663 7.68192 10.094 8.18702 9.82384 8.39519L9.27905 8.82823C9.00405 9.05033 9.04025 9.46283 9.04025 9.46283C9.04025 9.46283 9.84717 12.5168 12.8621 13.2864Z" fill="white"/>
</svg>
