<svg xmlns="http://www.w3.org/2000/svg" width="24" height="24" fill="none" viewBox="0 0 24 24"><path fill="#fff" d="M20.5164 2.2626c-.5765-.5319-2.906-2.223-8.0949-2.246 0 0-6.119-.369-9.102 2.3672-1.6604 1.6608-2.2445 4.091-2.3061 7.1038-.0616 3.0129-.1414 8.6591 5.3013 10.1901h.0052l-.0035 2.3362s-.0348.9458.588 1.1386c.7533.234 1.1954-.4849 1.9146-1.2598.3947-.4254.9399-1.0502 1.3506-1.5278 3.7223.3133 6.5852-.4028 6.9103-.5086.7516-.2437 5.0044-.7885 5.6961-6.4344.7139-5.8193-.3454-9.5002-2.2596-11.1593"/><path fill="#7360f2" d="M19.3063 3.438c-.4874-.4429-2.591-1.7646-6.9803-1.7838 0 0-5.1976-.3415-7.7206 1.9439C3.201 4.9846 2.728 7.0464 2.676 9.5625c-.0518 2.5161-.3206 7.3228 4.2818 8.6014 0 0-.0181 3.5684-.0202 3.8821 0 .2193.0348.3693.1601.4003.0902.0219.2252-.0247.3401-.1393.7359-.739 3.0919-3.5813 3.0919-3.5813 3.1611.2065 5.6762-.4177 5.9467-.5061.6377-.2051 4.0871-.5013 4.6709-5.2168.6033-4.8606-.2217-8.1784-1.8411-9.5649"/><path fill="#fff" d="M11.8436 4.1519a.2934.2934 0 1 0-.0041.5869c1.5622.0108 2.8531.5253 3.8927 1.5388 1.03 1.004 1.5655 2.388 1.5792 4.188a.2935.2935 0 0 0 .5869-.0044c-.0147-1.921-.591-3.4677-1.7564-4.6038-1.1558-1.1267-2.5953-1.6937-4.2983-1.7055"/><path fill="#fff" d="M12.066 5.9461a.2934.2934 0 0 1 .3141-.2712c1.2323.0901 2.2242.5112 2.9467 1.2999.7147.781 1.0544 1.7525 1.0298 2.892a.2935.2935 0 0 1-.5868-.0127c.0218-1.0049-.2737-1.825-.8758-2.4829-.6002-.6552-1.4394-1.0292-2.5568-1.111a.2934.2934 0 0 1-.2712-.314"/><path fill="#fff" d="M12.511 7.527a.293.293 0 0 1 .308-.278c.606.032 1.109.215 1.468.586.357.37.533.886.563 1.506a.294.294 0 0 1-.586.029c-.026-.531-.172-.892-.399-1.127-.226-.233-.57-.381-1.077-.408a.294.294 0 0 1-.278-.308m.352 5.759s.413.035.635-.239l.433-.545c.209-.27.713-.442 1.207-.167.37.211.729.44 1.076.687.328.241.998.801 1.001.801.32.27.393.666.176 1.084 0 .003-.002.007-.002.009a4.52 4.52 0 0 1-.901 1.11c-.004.002-.004.004-.008.006q-.466.389-.915.442a.6.6 0 0 1-.134.008 1.22 1.22 0 0 1-.389-.06l-.01-.014c-.462-.13-1.232-.456-2.516-1.164a15 15 0 0 1-2.114-1.396 11.1 11.1 0 0 1-.951-.843l-.096-.096-.032-.032a11.1 11.1 0 0 1-.843-.951 15 15 0 0 1-1.396-2.113c-.708-1.284-1.034-2.054-1.164-2.516l-.014-.01a1.22 1.22 0 0 1-.059-.389.6.6 0 0 1 .008-.134q.056-.449.443-.916c.002-.004.004-.004.006-.008a4.51 4.51 0 0 1 1.11-.901c.002 0 .006-.002.009-.002.418-.218.814-.144 1.083.174.002.002.561.673.801 1.001.247.347.476.707.687 1.077.275.493.103.998-.167 1.207l-.545.433c-.275.222-.239.635-.239.635s.807 3.054 3.822 3.824"/></svg>