<svg width="24" height="24" viewBox="0 0 24 24" fill="none" xmlns="http://www.w3.org/2000/svg">
<path d="M15.4 12.6584C15.6667 12.5045 15.6667 12.1196 15.4 11.9656L10.6 9.19432C10.3333 9.04036 10 9.23281 10 9.54073V15.0833C10 15.3912 10.3333 15.5837 10.6 15.4297L15.4 12.6584Z" fill="black"/>
<path fill-rule="evenodd" clip-rule="evenodd" d="M2 7.31201C2 5.65516 3.34315 4.31201 5 4.31201H19C20.6569 4.31201 22 5.65516 22 7.31201V17.312C22 18.9689 20.6569 20.312 19 20.312H5C3.34315 20.312 2 18.9689 2 17.312V7.31201ZM5 6.31201H19C19.5523 6.31201 20 6.75973 20 7.31201V17.312C20 17.8643 19.5523 18.312 19 18.312H5C4.44772 18.312 4 17.8643 4 17.312V7.31201C4 6.75973 4.44772 6.31201 5 6.31201Z" fill="black"/>
</svg>
