<svg xmlns="http://www.w3.org/2000/svg" width="24" height="24" fill="none" viewBox="0 0 24 24"><path fill="#000" fill-rule="evenodd" d="M7 1C5.3431 1 4 2.3431 4 4v6c0 1.6569 1.3431 3 3 3h2v2H8c-.5523 0-1 .4477-1 1s.4477 1 1 1h8c.5523 0 1-.4477 1-1s-.4477-1-1-1h-1v-2h2c1.6569 0 3-1.3431 3-3V4c0-1.6569-1.3431-3-3-3zm0 10h10c.5523 0 1-.4477 1-1V4c0-.5523-.4477-1-1-1H7c-.5523 0-1 .4477-1 1v6c0 .5523.4477 1 1 1m6 2v2h-2v-2zm-6.2929 5.7071c.3905-.3905.3905-1.0237 0-1.4142s-1.0237-.3905-1.4142 0l-2 2a1 1 0 0 0 0 1.4142l2 2c.3905.3905 1.0237.3905 1.4142 0s.3905-1.0237 0-1.4142L5.4142 20zm10.5852-1.4141c-.3905.3906-.3904 1.0237.0002 1.4142L18.5856 20l-1.2931 1.2928c-.3906.3905-.3907 1.0237-.0002 1.4142.3905.3906 1.0237.3907 1.4142.0002l2.0005-2a1 1 0 0 0 0-1.4144l-2.0005-2c-.3905-.3905-1.0237-.3904-1.4142.0002M9 21c.5523 0 1-.4477 1-1s-.4477-1-1-1-1 .4477-1 1 .4477 1 1 1m4-1c0 .5523-.4477 1-1 1s-1-.4477-1-1 .4477-1 1-1 1 .4477 1 1m3 0c0 .5523-.4477 1-1 1s-1-.4477-1-1 .4477-1 1-1 1 .4477 1 1"/></svg>