<svg xmlns="http://www.w3.org/2000/svg" width="24" height="24" fill="none" viewBox="0 0 24 24"><path fill="#000" fill-rule="evenodd" d="M17.5986 7.122C16.3275 5.1186 14.2602 4 12 4 9.2427 4 6.6864 5.7193 5.7168 8.6211c-.9856.209-1.8488.6935-2.499 1.4248C2.4185 10.9448 2 12.1484 2 13.5c0 1.9338 1.319 3.5105 3 4.168V19c0 1.6569 1.3431 3 3 3h8c1.6569 0 3-1.3431 3-3v-1.6025c1.7805-.9102 3-2.7605 3-4.8975 0-2.7863-2.0063-4.935-4.4014-5.378M7.4726 9.747C8.0387 7.3494 9.9624 6 12 6c1.6763 0 3.2114.8719 4.1045 2.5244l.2598.4815.5449.04C18.5169 9.1667 20 10.579 20 12.5c0 1.1833-.5891 2.2264-1.4883 2.8594-.5093-.7782-1.3703-1.3055-2.3574-1.3555L16 14H8c-1.159 0-2.1625.6581-2.6621 1.6201C4.5475 15.1669 4 14.3588 4 13.5c0-.936.2854-1.6442.7129-2.125.4251-.478 1.05-.7985 1.8623-.8604l.7295-.0556zM7 17c0-.5523.4477-1 1-1h8l.1025.0049c.5042.0513.8975.4774.8975.9951v2c0 .5523-.4477 1-1 1H8c-.5523 0-1-.4477-1-1zm2 0c.5523 0 1 .4477 1 1s-.4477 1-1 1-1-.4477-1-1 .4477-1 1-1m3 0c.5523 0 1 .4477 1 1s-.4477 1-1 1-1-.4477-1-1 .4477-1 1-1"/></svg>