<svg xmlns="http://www.w3.org/2000/svg" width="24" height="24" fill="none" viewBox="0 0 24 24"><path fill="#000" fill-rule="evenodd" d="M6.7071 5.7071c.3905-.3905.3905-1.0237 0-1.4142s-1.0237-.3905-1.4142 0l-2 2a1 1 0 0 0 0 1.4142l2 2c.3905.3905 1.0237.3905 1.4142 0s.3905-1.0237 0-1.4142L5.4142 7zm10.5858-1.4142c-.3905.3905-.3905 1.0237 0 1.4142L18.5858 7l-1.2929 1.2929c-.3905.3905-.3905 1.0237 0 1.4142s1.0237.3905 1.4142 0l2-2a1 1 0 0 0 0-1.4142l-2-2c-.3905-.3905-1.0237-.3905-1.4142 0M13 7c0 .5523-.4477 1-1 1s-1-.4477-1-1 .4477-1 1-1 1 .4477 1 1m3 0c0 .5523-.4477 1-1 1s-1-.4477-1-1 .4477-1 1-1 1 .4477 1 1M9 8c.5523 0 1-.4477 1-1s-.4477-1-1-1-1 .4477-1 1 .4477 1 1 1m-7 6c0-1.6569 1.3431-3 3-3h14c1.6569 0 3 1.3431 3 3v2c0 1.6569-1.3431 3-3 3H5c-1.6569 0-3-1.3431-3-3zm3-1c-.5523 0-1 .4477-1 1v2c0 .5523.4477 1 1 1h14c.5523 0 1-.4477 1-1v-2c0-.5523-.4477-1-1-1zm2 2c0 .5523-.4477 1-1 1s-1-.4477-1-1 .4477-1 1-1 1 .4477 1 1m3 0c0 .5523-.4477 1-1 1s-1-.4477-1-1 .4477-1 1-1 1 .4477 1 1m3 0c0 .5523-.4477 1-1 1s-1-.4477-1-1 .4477-1 1-1 1 .4477 1 1"/></svg>