<svg width="24" height="24" viewBox="0 0 24 24" fill="none" xmlns="http://www.w3.org/2000/svg">
<path fill-rule="evenodd" clip-rule="evenodd" d="M4 4C4 2.34315 5.34315 1 7 1H17C18.6569 1 20 2.34315 20 4V10C20 11.6569 18.6569 13 17 13H15V15H16C16.5523 15 17 15.4477 17 16C17 16.5523 16.5523 17 16 17H8C7.44772 17 7 16.5523 7 16C7 15.4477 7.44772 15 8 15H9V13H7C5.34315 13 4 11.6569 4 10V4ZM13 15V13H11V15H13ZM17 11H7C6.44772 11 6 10.5523 6 10V4C6 3.44772 6.44772 3 7 3H17C17.5523 3 18 3.44772 18 4V10C18 10.5523 17.5523 11 17 11Z" fill="black"/>
<path d="M9 21C9.55228 21 10 20.5523 10 20C10 19.4477 9.55228 19 9 19C8.44772 19 8 19.4477 8 20C8 20.5523 8.44772 21 9 21Z" fill="black"/>
<path d="M13 20C13 20.5523 12.5523 21 12 21C11.4477 21 11 20.5523 11 20C11 19.4477 11.4477 19 12 19C12.5523 19 13 19.4477 13 20Z" fill="black"/>
<path d="M15 21C15.5523 21 16 20.5523 16 20C16 19.4477 15.5523 19 15 19C14.4477 19 14 19.4477 14 20C14 20.5523 14.4477 21 15 21Z" fill="black"/>
<path d="M6.70711 17.2929C7.09763 17.6834 7.09763 18.3166 6.7071 18.7071L5.41421 20L6.70711 21.2929C7.09763 21.6834 7.09763 22.3166 6.7071 22.7071C6.31658 23.0976 5.68341 23.0976 5.29289 22.7071L3.29289 20.7071C3.10535 20.5195 3 20.2652 3 20C3 19.7348 3.10536 19.4804 3.2929 19.2929L5.2929 17.2929C5.68342 16.9024 6.31659 16.9024 6.70711 17.2929Z" fill="black"/>
<path d="M17.2925 18.7072C16.9019 18.3167 16.9018 17.6836 17.2923 17.293C17.6828 16.9024 18.316 16.9023 18.7065 17.2928L20.707 19.2928C20.8946 19.4804 21 19.7347 21 20C21 20.2653 20.8946 20.5196 20.707 20.7072L18.7065 22.7072C18.316 23.0977 17.6828 23.0976 17.2923 22.707C16.9018 22.3164 16.9019 21.6833 17.2925 21.2928L18.5856 20L17.2925 18.7072Z" fill="black"/>
</svg>
