<svg width="24" height="24" viewBox="0 0 24 24" fill="none" xmlns="http://www.w3.org/2000/svg">
<path d="M17.2929 5.70711C16.9024 5.31658 16.9024 4.68342 17.2929 4.29289C17.6834 3.90237 18.3166 3.90237 18.7071 4.29289L20.7071 6.29289C20.8946 6.48043 21 6.73478 21 7C21 7.26521 20.8946 7.51957 20.7071 7.7071L18.7071 9.70711C18.3166 10.0976 17.6834 10.0976 17.2929 9.70711C16.9024 9.31658 16.9024 8.68342 17.2929 8.29289L18.5858 7L17.2929 5.70711Z" fill="black"/>
<path d="M6.70711 4.29289C7.09763 4.68342 7.09763 5.31658 6.70711 5.70711L5.41421 7L6.70711 8.29289C7.09763 8.68342 7.09763 9.31658 6.70711 9.70711C6.31658 10.0976 5.68342 10.0976 5.29289 9.70711L3.29289 7.70711C3.10536 7.51957 3 7.26522 3 7C3 6.73478 3.10536 6.48043 3.29289 6.29289L5.29289 4.29289C5.68342 3.90237 6.31658 3.90237 6.70711 4.29289Z" fill="black"/>
<path d="M9 8C9.55228 8 10 7.55228 10 7C10 6.44772 9.55228 6 9 6C8.44772 6 8 6.44772 8 7C8 7.55228 8.44772 8 9 8Z" fill="black"/>
<path d="M10 15C10 15.5523 9.55228 16 9 16C8.44772 16 8 15.5523 8 15C8 14.4477 8.44772 14 9 14C9.55228 14 10 14.4477 10 15Z" fill="black"/>
<path d="M7 15C7 15.5523 6.55228 16 6 16C5.44772 16 5 15.5523 5 15C5 14.4477 5.44772 14 6 14C6.55228 14 7 14.4477 7 15Z" fill="black"/>
<path d="M13 15C13 15.5523 12.5523 16 12 16C11.4477 16 11 15.5523 11 15C11 14.4477 11.4477 14 12 14C12.5523 14 13 14.4477 13 15Z" fill="black"/>
<path fill-rule="evenodd" clip-rule="evenodd" d="M2 14C2 12.3431 3.34315 11 5 11H19C20.6569 11 22 12.3431 22 14V16C22 17.6569 20.6569 19 19 19H5C3.34315 19 2 17.6569 2 16V14ZM5 13C4.44772 13 4 13.4477 4 14V16C4 16.5523 4.44772 17 5 17H19C19.5523 17 20 16.5523 20 16V14C20 13.4477 19.5523 13 19 13H5Z" fill="black"/>
<path d="M12 8C12.5523 8 13 7.55228 13 7C13 6.44772 12.5523 6 12 6C11.4477 6 11 6.44772 11 7C11 7.55228 11.4477 8 12 8Z" fill="black"/>
<path d="M15 8C15.5523 8 16 7.55228 16 7C16 6.44772 15.5523 6 15 6C14.4477 6 14 6.44772 14 7C14 7.55228 14.4477 8 15 8Z" fill="black"/>
</svg>
