<svg width="24" height="24" viewBox="0 0 24 24" fill="none" xmlns="http://www.w3.org/2000/svg">
<path d="M9 17C9.55228 17 10 17.4477 10 18C10 18.5523 9.55228 19 9 19C8.44772 19 8 18.5523 8 18C8 17.4477 8.44772 17 9 17Z" fill="black"/>
<path d="M12 17C12.5523 17 13 17.4477 13 18C13 18.5523 12.5523 19 12 19C11.4477 19 11 18.5523 11 18C11 17.4477 11.4477 17 12 17Z" fill="black"/>
<path fill-rule="evenodd" clip-rule="evenodd" d="M12 4C14.2602 4 16.3275 5.11848 17.5986 7.12207C19.9937 7.56493 22 9.71367 22 12.5C22 14.637 20.7805 16.4873 19 17.3975V19C19 20.6569 17.6569 22 16 22H8C6.34315 22 5 20.6569 5 19V17.668C3.31901 17.0105 2 15.4337 2 13.5C2 12.1484 2.41852 10.9448 3.21777 10.0459C3.86804 9.31461 4.7312 8.83004 5.7168 8.62109C6.6864 5.71929 9.24274 4 12 4ZM8 16C7.44772 16 7 16.4477 7 17V19C7 19.5523 7.44772 20 8 20H16C16.5523 20 17 19.5523 17 19V17C17 16.4823 16.6067 16.0562 16.1025 16.0049L16 16H8ZM12 6C9.9623 6 8.03865 7.34931 7.47266 9.74707L7.30469 10.459L6.5752 10.5146C5.76285 10.5765 5.13802 10.897 4.71289 11.375C4.28539 11.8558 4 12.564 4 13.5C4 14.3588 4.54754 15.1669 5.33789 15.6201C5.83755 14.6581 6.84108 14 8 14H16L16.1543 14.0039C17.1414 14.0539 18.0024 14.5812 18.5117 15.3594C19.4109 14.7264 20 13.6833 20 12.5C20 10.579 18.5169 9.16671 16.9092 9.0459L16.3643 9.00586L16.1045 8.52441C15.2114 6.87188 13.6763 6 12 6Z" fill="black"/>
</svg>
