<svg xmlns="http://www.w3.org/2000/svg" width="24" height="24" fill="none" viewBox="0 0 24 24"><path fill="#2787f5" fill-rule="evenodd" d="M4.263 4.263C3 5.5262 3 7.5592 3 11.625v.75c0 4.0659 0 6.0989 1.263 7.3619S7.5592 21 11.625 21h.75c4.0659 0 6.0989 0 7.3619-1.2631S21 16.4409 21 12.375v-.75c0-4.0659 0-6.0989-1.2631-7.362S16.4409 3 12.375 3h-.75C7.5591 3 5.5261 3 4.263 4.263m2.2995 4.362h1.3129c.3354 0 .4618.1469.5875.5103.642 1.8699 1.7247 3.5041 2.1697 3.5041.167 0 .2435-.0769.2435-.5006v-1.9329c-.03-.5502-.2223-.7882-.3647-.9644-.0881-.1088-.157-.194-.157-.3147 0-.1469.1255-.3018.334-.3018h2.0631c.2781 0 .375.1487.375.4825v2.6003c0 .2779.1208.3753.2043.3753.1668 0 .306-.0974.6119-.4032.9458-1.0569 1.6134-2.6837 1.6134-2.6837.0536-.1251.1364-.2427.277-.3108.0784-.0379.1747-.0604.2941-.0604h1.3129c.3969 0 .4804.2043.3969.4825-.1668.7646-1.7664 3.0174-1.7664 3.0174-.0774.1241-.1291.2135-.1258.3116.0026.078.0398.1615.1258.2723.0687.0959.2148.2391.3822.403.1721.1687.3667.3593.522.5426.564.6342.9889 1.1693 1.1072 1.538.1082.3701-.0793.5576-.4544.5576h-1.3127c-.3518 0-.5288-.1968-.9113-.6224-.1623-.1803-.3613-.4017-.6263-.6667-.7789-.7509-1.1127-.8483-1.3075-.8483-.2642 0-.3432.0749-.3432.4499v1.177c0 .323-.1032.5105-.9378.5105-1.3907 0-2.9193-.8441-4.004-2.4016-1.6272-2.2804-2.0724-4.0045-2.0724-4.3522 0-.1947.0751-.3712.4501-.3712" clip-rule="evenodd"/></svg>