<svg xmlns="http://www.w3.org/2000/svg" width="24" height="24" fill="none" viewBox="0 0 24 24"><path fill="#000" fill-rule="evenodd" d="M2 8.5c0-.8576.4509-1.5656 1.0304-2.0985.5787-.532 1.361-.9653 2.2432-1.3084C7.0445 4.4044 9.423 4 12 4s4.9555.4044 6.7264 1.0931c.8823.3431 1.6645.7763 2.2432 1.3084C21.5491 6.9344 22 7.6424 22 8.5V17c0 .8519-.5189 1.5044-1.0883 1.9531-.5807.4577-1.3589.826-2.2315 1.1169-1.7556.5852-4.1173.93-6.6802.93s-4.9246-.3448-6.6802-.93c-.8726-.2909-1.6508-.6592-2.2315-1.1169C2.5189 18.5044 2 17.8519 2 17zm2 0c0-.1089.0528-.3216.3841-.6262.3321-.3054.868-.6264 1.6144-.9167C7.485 6.3791 9.6065 6 12 6s4.515.379 6.0015.9571c.7464.2903 1.2823.6113 1.6144.9167.3313.3046.3841.5173.3841.6262s-.0528.3216-.3841.6262c-.3321.3054-.868.6264-1.6144.9167C16.515 10.6209 14.3935 11 12 11s-4.515-.3791-6.0015-.9571c-.7464-.2903-1.2823-.6113-1.6144-.9167C4.0528 8.8216 4 8.609 4 8.5m16 2.8014V17c0 .0007.0001.0049-.0031.0153a.3.3 0 0 1-.032.0661c-.0424.0692-.129.1731-.2911.3009-.3302.2602-.87.5383-1.6261.7903C16.546 18.6732 14.4077 19 12 19s-4.546-.3268-6.0477-.8274c-.7561-.252-1.2959-.5301-1.626-.7903-.1622-.1278-.2488-.2317-.2912-.3009a.3.3 0 0 1-.032-.0661C4 17.0052 4 17.001 4 17.0001v-5.6987c.3883.2267.8176.4281 1.2736.6055C7.0445 12.5956 9.423 13 12 13s4.9555-.4044 6.7264-1.0931c.456-.1774.8853-.3788 1.2736-.6055"/></svg>