<svg xmlns="http://www.w3.org/2000/svg" width="24" height="24" fill="none" viewBox="0 0 24 24"><path fill="#000" fill-rule="evenodd" d="m3.7908 4.0067.3617-1.3497q.0535-.2.17-.3519t.296-.2553q.1792-.1035.369-.1285.1896-.025.3897.0286l7.676 2.0568H21q.2071 0 .3838.0732.1768.0732.3232.2197.293.2929.293.707v5.0001q0 .4141-.293.7071-.1464.1464-.3232.2197-.1767.0732-.3838.0732-.2072 0-.384.0732-.1767.0733-.3232.2197t-.2196.3231-.0732.384.0732.3839q.0733.1768.2196.3232.1465.1464.3232.2196.1768.0733.384.0733t.3838.0732q.1768.0732.3232.2197.293.2928.293.7071v5q0 .4142-.293.7071-.2928.293-.707.2929h-.7909l-.3617 1.3496q-.1072.4002-.4659.6072-.3588.2071-.7588.0999l-7.6759-2.0567H3q-.4142 0-.7071-.2929T2 19.0067v-5q0-.4143.2929-.7071.293-.293.7071-.2929.207 0 .384-.0733.1767-.0732.3232-.2196.1462-.1464.2196-.3232Q4 12.2139 4 12.0067t-.0732-.384q-.0733-.1767-.2197-.3231t-.323-.2197q-.177-.0732-.3841-.0732-.207 0-.384-.0732-.1766-.0733-.3232-.2197-.2927-.293-.2928-.7071v-5q0-.4143.2929-.7071.1465-.1464.3232-.2197.1769-.0732.3839-.0732zm.2092 2h16v3.162a3 3 0 0 0-.1519.0577q-.5302.2196-.9694.659-.4394.4392-.6591.9696T18 12.0067t.2196 1.1517q.2197.5303.6591.9696.4392.4393.9694.659a3 3 0 0 0 .1519.0577v3.162H4v-3.162a3 3 0 0 0 .1517-.0577q.5304-.2197.9696-.659.4394-.4393.659-.9696T6 12.0067q0-.6215-.2197-1.1517-.2196-.5304-.659-.9696-.4392-.4394-.9696-.659A3 3 0 0 0 4 9.1687zm6.832 9.548 4-6c.3107-.466.1886-1.076-.2773-1.3867-.466-.3107-1.0761-.1886-1.3867.2773l-4 6c-.3107.466-.1886 1.0761.2773 1.3868.466.3106 1.0761.1886 1.3867-.2774M9.5 8c.8284 0 1.5.6716 1.5 1.5S10.3284 11 9.5 11 8 10.3284 8 9.5 8.6716 8 9.5 8m5 5c.8284 0 1.5.6716 1.5 1.5s-.6716 1.5-1.5 1.5-1.5-.6716-1.5-1.5.6716-1.5 1.5-1.5"/></svg>