<svg xmlns="http://www.w3.org/2000/svg" width="24" height="24" fill="none" viewBox="0 0 24 24"><path fill="#000" fill-rule="evenodd" d="M7 8V7c0-2.7614 2.2386-5 5-5s5 2.2386 5 5v1c1.6569 0 3 1.3431 3 3v8c0 1.6569-1.3431 3-3 3H7c-1.6569 0-3-1.3431-3-3v-8c0-1.6569 1.3431-3 3-3m8-1v1H9V7c0-1.6569 1.3431-3 3-3s3 1.3431 3 3m-8 3c-.5523 0-1 .4477-1 1v8c0 .5523.4477 1 1 1h10c.5523 0 1-.4477 1-1v-8c0-.5523-.4477-1-1-1zm1.8418 5.5939.0016-.0024a1 1 0 0 1 .0246-.0348 2.7 2.7 0 0 1 .1305-.1638 3.8 3.8 0 0 1 .5794-.5428c.5203-.3957 1.313-.796 2.4221-.796s1.9018.4003 2.4221.796c.263.2.4557.3987.5794.5428.0615.0717.105.1287.1305.1638.0128.0175.021.0294.0246.0348l.0017.0024c.2961.4619.9098.5992 1.3748.3062.4673-.2944.6074-.9119.313-1.3791l-.0011-.0017-.0012-.0019-.0028-.0044-.0071-.0109-.0202-.0304a3 3 0 0 0-.0647-.0921 4.7 4.7 0 0 0-.2299-.2894 5.8 5.8 0 0 0-.8864-.8321c-.7947-.6043-2.002-1.204-3.6327-1.204s-2.838.5997-3.6327 1.204c-.3946.3-.6882.6012-.8864.8321a4.6 4.6 0 0 0-.2299.2894 3 3 0 0 0-.0849.1225l-.007.0109-.0029.0044-.0012.0019-.0005.0009c-.2944.4672-.1549 1.0855.3124 1.3799.465.293 1.0788.1557 1.3749-.3062m4.3215 2.0079c.298.4555.9074.5897 1.3698.2983.4673-.2944.6069-.9127.3124-1.3799l-.0005-.0009-.0011-.0018-.0025-.0038-.0056-.0088-.0147-.022a2 2 0 0 0-.0424-.0603 2.8 2.8 0 0 0-.1398-.1761 3.4 3.4 0 0 0-.5199-.4884c-.4659-.3543-1.1732-.704-2.119-.704s-1.6531.3497-2.119.704a3.4 3.4 0 0 0-.52.4884 2.8 2.8 0 0 0-.1397.1761 2 2 0 0 0-.0424.0603l-.0147.022-.0056.0088-.0025.0038-.0011.0018-.001.0017c-.2945.4672-.1544 1.0847.3129 1.3791.4624.2914 1.0718.1572 1.3698-.2983l.0015-.0022a1 1 0 0 1 .0404-.0504 1.4 1.4 0 0 1 .213-.1991c.1916-.1457.4843-.296.9084-.296s.7168.1503.9084.296c.0986.075.1697.1487.213.1991a1 1 0 0 1 .0404.0504zm-2.3266 0-.0013.0018.0006-.0009.0029-.0043zm4.0088-1.0816-.8379.5291c.8373-.5276.8382-.5287.8379-.5291m-4.0004 1.0685-.0028.0043.0018-.0028z"/></svg>