<svg xmlns="http://www.w3.org/2000/svg" width="24" height="24" fill="none" viewBox="0 0 24 24"><path fill="#000" fill-rule="evenodd" d="M5.3131 4.7268c.3994.3774 1.028.3616 1.408-.034l.0034-.0034a2 2 0 0 1 .0401-.0379c.041-.0375.1102-.098.2083-.1742.1963-.1525.5075-.367.9381-.5854C8.768 3.4574 10.1141 3 12 3s3.2319.4574 4.089.892c.4307.2183.7418.4328.9381.5853.0981.0762.1673.1367.2083.1742a2 2 0 0 1 .0401.038l.0034.0034c.38.3955 1.0086.4113 1.408.0339.4014-.3794.4192-1.0123.0399-1.4137L18 4c.7252-.6854.7264-.6873.726-.6877l-.0008-.0008-.0017-.0018-.004-.0042-.0102-.0105-.0292-.0293a4 4 0 0 0-.094-.0891 5.4 5.4 0 0 0-.3323-.2789c-.2865-.2225-.7049-.508-1.2605-.7896C15.8778 1.5426 14.2238 1 12 1s-3.8778.5426-4.9933 1.108c-.5556.2817-.974.5672-1.2605.7897a5.4 5.4 0 0 0-.3323.2789 3.5 3.5 0 0 0-.1232.1184l-.0102.0105-.004.0042-.0017.0018-.0008.0008c-.0004.0004.0002.0017.7257.6874l-.7265-.6866c-.3793.4014-.3615 1.0343.04 1.4137m2.0437 3.5389c.4199.3527 1.0448.3012 1.4014-.1136l.0189-.02a2 2 0 0 1 .1206-.1134c.117-.1023.3063-.2495.5703-.4C9.9908 7.3205 10.8216 7 12 7s2.0092.3205 2.532.6187c.264.1505.4532.2977.5703.4.0585.051.0986.0906.1206.1133q.0154.016.019.02c.3565.4149.9814.4664 1.4013.1137.4229-.3553.4777-.986.1225-1.409L16 7.5c.7646-.6423.7653-.6436.765-.644l-.0007-.001-.0016-.0017-.0034-.004-.0084-.0098a3 3 0 0 0-.0928-.1004 4 4 0 0 0-.2399-.2265c-.2048-.179-.5018-.4068-.8953-.6313C14.7307 5.4295 13.5615 5 12 5s-2.7307.4295-3.5229.8813c-.3935.2245-.6905.4523-.8953.6313a4 4 0 0 0-.2399.2265 3 3 0 0 0-.0928.1004l-.0084.0097-.0034.004-.0016.0019-.0007.0008c-.0003.0005 0 .0014.7646.6438l-.7653-.643c-.3552.423-.3004 1.0537.1225 1.409M9 12c0-1.6569 1.3431-3 3-3s3 1.3431 3 3v1c1.6569 0 3 1.3431 3 3v4c0 1.6569-1.3431 3-3 3H9c-1.6569 0-3-1.3431-3-3v-4c0-1.6569 1.3431-3 3-3zm4 0v1h-2v-1c0-.5523.4477-1 1-1s1 .4477 1 1m-5 4c0-.5523.4477-1 1-1h6c.5523 0 1 .4477 1 1v4c0 .5523-.4477 1-1 1H9c-.5523 0-1-.4477-1-1zm4 3c.5523 0 1-.4477 1-1s-.4477-1-1-1-1 .4477-1 1 .4477 1 1 1"/></svg>