<svg xmlns="http://www.w3.org/2000/svg" width="24" height="24" fill="none" viewBox="0 0 24 24"><path fill="#000" fill-rule="evenodd" d="M12 2C6.4772 2 2 6.4772 2 12s4.4772 10 10 10 10-4.4772 10-10S17.5228 2 12 2M4 12c0-4.4183 3.5817-8 8-8s8 3.5817 8 8-3.5817 8-8 8-8-3.5817-8-8m10.2071-2.7929c.3905-.3905.3905-1.0237 0-1.4142-.3272-.3272-.8247-.3803-1.2071-.1592V6c0-.5523-.4477-1-1-1s-1 .4477-1 1v1.6337c-.3824-.221-.8799-.168-1.2071.1592-.3905.3905-.3905 1.0237 0 1.4142l1.5 1.5c.3905.3905 1.0237.3905 1.4142 0zm-5 .5858c-.3905-.3905-1.0237-.3905-1.4142 0-.3272.3272-.3803.8247-.1592 1.2071H6c-.5523 0-1 .4477-1 1s.4477 1 1 1h1.6337c-.221.3824-.168.8799.1592 1.2071.3905.3905 1.0237.3905 1.4142 0l1.5-1.5c.3905-.3905.3905-1.0237 0-1.4142zm5.5858 4.4142c.3905.3905 1.0237.3905 1.4142 0 .3272-.3272.3803-.8247.1592-1.2071H18c.5523 0 1-.4477 1-1s-.4477-1-1-1h-1.6337c.2211-.3824.168-.8799-.1592-1.2071-.3905-.3905-1.0237-.3905-1.4142 0l-1.5 1.5c-.3905.3905-.3905 1.0237 0 1.4142zm-.5858 2c.3905-.3905.3905-1.0237 0-1.4142l-1.5-1.5c-.3905-.3905-1.0237-.3905-1.4142 0l-1.5 1.5c-.3905.3905-.3905 1.0237 0 1.4142.3272.3272.8247.3803 1.2071.1592V18c0 .5523.4477 1 1 1s1-.4477 1-1v-1.6337c.3824.2211.8799.168 1.2071-.1592"/></svg>