<svg xmlns="http://www.w3.org/2000/svg" width="24" height="24" fill="none" viewBox="0 0 24 24"><path fill="#000" fill-rule="evenodd" d="M5 2c.5523 0 1 .4477 1 1v2c0 .5523-.4477 1-1 1s-1-.4477-1-1V3c0-.5523.4477-1 1-1m1 5.992c0-.5524-.4477-1-1-1s-1 .4476-1 1v1.4262c0 .4655.0405.9224.1184 1.3671.0953.544.6136.9078 1.1576.8125s.9077-.6136.8124-1.1576A5.9 5.9 0 0 1 6 9.4182zm9.6646 7.3018c-.5523 0-1 .4477-1 1s.4477 1 1 1h1.8282l-2.9991 2.9991c-.3905.3905-.3905 1.0237 0 1.4142s1.0237.3905 1.4142 0l4.7063-4.7062a1.0003 1.0003 0 0 0 0-1.4142l-4.7063-4.7063c-.3905-.3905-1.0236-.3905-1.4142 0s-.3905 1.0237 0 1.4142l2.9992 2.9992zm-9.996-2.7503c.4522-.3171 1.0758-.2077 1.393.2444a5.92 5.92 0 0 0 1.4443 1.4443c.4522.3172.5616.9408.2444 1.393-.3172.4521-.9408.5615-1.393.2444a7.92 7.92 0 0 1-1.933-1.9331c-.3172-.4522-.2078-1.0758.2443-1.393m5.185 2.6619c-.544-.0953-1.0622.2685-1.1575.8125s.2684 1.0622.8124 1.1575a7.9 7.9 0 0 0 1.3671.1184h.8356c.5523 0 1-.4477 1-1s-.4477-1-1-1h-.8356a5.9 5.9 0 0 1-1.022-.0884"/></svg>