<svg xmlns="http://www.w3.org/2000/svg" width="24" height="24" fill="none" viewBox="0 0 24 24"><path fill="#000" fill-rule="evenodd" d="M6.5 2C5.1193 2 4 3.1193 4 4.5v1.6707C2.8348 6.5825 2 7.6937 2 9v6c0 1.3062.8348 2.4175 2 2.8293V19.5C4 20.8807 5.1193 22 6.5 22h3c1.3807 0 2.5-1.1193 2.5-2.5v-1.6707c1.1652-.4118 2-1.5231 2-2.8293v-4c.5523 0 1-.4477 1-1s-.4477-1-1-1c0-1.3062-.8348-2.4175-2-2.8293V4.5C12 3.1193 10.8807 2 9.5 2zM10 6H6V4.5a.5.5 0 0 1 .5-.5h3a.5.5 0 0 1 .5.5zm8.4602.8418.0024.0016c.0054.0037.0173.0118.0348.0246.0351.0255.0921.069.1638.1305.1441.1237.3428.3164.5428.5794.3957.5203.796 1.313.796 2.4221s-.4003 1.9018-.796 2.4221c-.2.263-.3987.4557-.5428.5794a2.6 2.6 0 0 1-.1638.1305 1 1 0 0 1-.0348.0246l-.0024.0017c-.4619.2961-.5992.9098-.3062 1.3748.2944.4673.9119.6074 1.3791.313l.0017-.0011.0019-.0012.0044-.0028.0109-.0071.0155-.0102.0149-.01a3 3 0 0 0 .0921-.0647 4.7 4.7 0 0 0 .2894-.2299 5.8 5.8 0 0 0 .8321-.8864C21.4003 12.8381 22 11.6308 22 10s-.5997-2.838-1.204-3.6327a5.8 5.8 0 0 0-.8321-.8864 4.6 4.6 0 0 0-.2894-.2299 3 3 0 0 0-.1225-.0849l-.0109-.007-.0044-.0029-.0019-.0012-.0009-.0005c-.4672-.2944-1.0855-.1548-1.3799.3124-.293.465-.1557 1.0788.3062 1.3749M16.154 12.533c.2944.4673.9127.6069 1.3799.3124l.0009-.0005.0017-.0011.0039-.0025.0088-.0056.0219-.0146a2 2 0 0 0 .0604-.0425 2.8 2.8 0 0 0 .1761-.1398 3.4 3.4 0 0 0 .4884-.5199c.3543-.4659.704-1.1732.704-2.119s-.3497-1.653-.704-2.119a3.4 3.4 0 0 0-.4884-.52 2.8 2.8 0 0 0-.1761-.1397 2 2 0 0 0-.0604-.0424l-.0219-.0146-.0088-.0057-.0039-.0025-.0017-.0011-.0017-.001c-.4673-.2945-1.0847-.1543-1.3791.313-.2914.4623-.1572 1.0717.2983 1.3697l.0022.0015a1 1 0 0 1 .0504.0404c.0504.0433.1241.1144.1991.213.1457.1916.296.4843.296.9084s-.1503.7168-.296.9084a1.4 1.4 0 0 1-.1991.213 1 1 0 0 1-.0504.0404l-.0022.0016c-.4555.2979-.5897.9074-.2983 1.3697m.2983-3.6964.0034.0022-.0044-.003-.0009-.0005zm1.0808-1.6827-.533.8458c.5288-.8392.5326-.846.533-.8458m.0008 5.6915c-.0004.0003-.0022-.0016-.5291-.8379zM12 15V9c0-.5523-.4477-1-1-1H5c-.5523 0-1 .4477-1 1v6c0 .5523.4477 1 1 1h6c.5523 0 1-.4477 1-1m4.4638-6.1559-.0072-.0046.0045.0029zM6 19.5V18h4v1.5a.5.5 0 0 1-.5.5h-3a.5.5 0 0 1-.5-.5"/></svg>