<svg xmlns="http://www.w3.org/2000/svg" width="24" height="24" fill="none" viewBox="0 0 24 24"><path fill="#000" fill-rule="evenodd" d="M2 12C2 6.4772 6.4772 2 12 2s10 4.4772 10 10-4.4772 10-10 10S2 17.5228 2 12m9.1324-7.5683c-.3544.3372-.719.8725-1.047 1.6105C9.5239 7.3055 9.1274 9.0335 9.0257 11h5.9486c-.1017-1.9665-.4982-3.6945-1.0597-4.9578-.328-.738-.6926-1.2733-1.047-1.6105C12.5184 4.0993 12.2269 4 12 4s-.5184.0993-.8676.4317M7.0233 11c.1031-2.204.5447-4.218 1.2345-5.7701a10 10 0 0 1 .1878-.399C6.0948 5.9988 4.4 8.2888 4.062 11zm-2.9614 2c.338 2.7113 2.033 5.0013 4.3837 6.169a10 10 0 0 1-.1878-.3989C7.568 17.2181 7.1264 15.204 7.0233 13zm15.8762-2c-.3381-2.7113-2.0329-5.0013-4.3837-6.169q.0975.1954.1878.3989c.6898 1.552 1.1314 3.566 1.2345 5.7701zm-2.9614 2c-.1031 2.204-.5447 4.2181-1.2345 5.7701a10 10 0 0 1-.1878.3989C17.9052 18.0013 19.6 15.7113 19.9381 13zm-2.0024 0H9.0257c.1017 1.9665.4982 3.6945 1.0597 4.9578.328.738.6926 1.2733 1.047 1.6105.3492.3324.6407.4317.8676.4317s.5184-.0993.8676-.4317c.3544-.3372.719-.8725 1.047-1.6105.5615-1.2633.958-2.9913 1.0597-4.9578"/></svg>