<svg xmlns="http://www.w3.org/2000/svg" width="24" height="24" fill="none" viewBox="0 0 24 24"><path fill="#000" fill-rule="evenodd" d="M10.1105 4.6213c-.5962 1.628-1.0067 3.8575-1.0934 6.3788h5.9657c-.0867-2.5213-.4972-4.7507-1.0934-6.3787-.3385-.9242-.7177-1.6018-1.0884-2.03-.3731-.4308-.647-.5128-.8011-.5128s-.4279.082-.801.5129c-.3707.428-.7499 1.1058-1.0884 2.0298M7.016 11.0002H2.0493c.3958-3.9866 3.133-7.2845 6.8169-8.4991-.2348.4377-.4458.9196-.6337 1.4325-.6898 1.8835-1.1293 4.3547-1.2165 7.0666m8.1177-8.4991C18.8176 3.7156 21.5548 7.0135 21.9506 11h-4.9667c-.0872-2.7119-.5267-5.183-1.2165-7.0666-.1879-.513-.3989-.9948-.6337-1.4325m-1.2443 16.8779c.5962-1.628 1.0067-3.8575 1.0934-6.3788H9.0171c.0867 2.5213.4972 4.7508 1.0934 6.3788.3385.9241.7177 1.6018 1.0884 2.0299.3731.4308.6469.5128.801.5128s.428-.082.8011-.5128c.3707-.4281.7499-1.1058 1.0884-2.0299m-5.0232 2.1204C5.1822 20.2845 2.4452 16.9867 2.0493 13H7.016c.0872 2.7119.5267 5.1831 1.2165 7.0666.1879.513.3989.9949.6337 1.4326M21.9506 13c-.3958 3.9867-3.133 7.2845-6.8169 8.4992.2348-.4377.4458-.9196.6337-1.4326.6898-1.8835 1.1293-4.3547 1.2165-7.0666z"/></svg>