<svg xmlns="http://www.w3.org/2000/svg" width="24" height="24" fill="none" viewBox="0 0 24 24"><path fill="#000" fill-rule="evenodd" d="M8.9682 3.999c1.3474-2.334 4.7161-2.334 6.0635 0l6.5057 11.2681c1.3474 2.3338-.3369 5.2512-3.0318 5.2512H5.4943c-2.695 0-4.3792-2.9174-3.0318-5.2512zm4.3315 1c-.5777-1.0006-2.0218-1.0006-2.5995 0L4.1946 16.267c-.5777 1.0005.1444 2.2512 1.2997 2.2512h13.0113c1.1553 0 1.8774-1.2507 1.2997-2.2512zm-1.2998 11.2622c2.6919 0 4.3655-2.2738 4.3655-2.8818s-1.7089-2.8818-4.3655-2.8818-4.3655 2.3794-4.3655 2.8818c0 .5023 1.6736 2.8818 4.3655 2.8818m.0002-1.6861c.672 0 1.2168-.5448 1.2168-1.2169 0-.672-.5448-1.2168-1.2168-1.2168s-1.2169.5448-1.2169 1.2168.5448 1.2169 1.2169 1.2169"/></svg>