<svg width="24" height="24" viewBox="0 0 24 24" fill="none" xmlns="http://www.w3.org/2000/svg">
<path fill-rule="evenodd" clip-rule="evenodd" d="M16.3654 13.3794C16.3654 13.9874 14.6918 16.2612 11.9999 16.2612C9.30802 16.2612 7.6344 13.8817 7.6344 13.3794C7.6344 12.877 9.34327 10.4976 11.9999 10.4976C14.6565 10.4976 16.3654 12.7713 16.3654 13.3794ZM13.2169 13.3582C13.2169 14.0303 12.6721 14.5751 12.0001 14.5751C11.328 14.5751 10.7832 14.0303 10.7832 13.3582C10.7832 12.6862 11.328 12.1414 12.0001 12.1414C12.6721 12.1414 13.2169 12.6862 13.2169 13.3582Z" fill="black"/>
<path fill-rule="evenodd" clip-rule="evenodd" d="M15.0317 3.99893C13.6843 1.66507 10.3156 1.66507 8.96819 3.99892L2.46252 15.2671C1.11507 17.6009 2.79938 20.5182 5.49428 20.5182H18.5056C21.2005 20.5182 22.8848 17.6009 21.5374 15.2671L15.0317 3.99893ZM10.7002 4.99892C11.2779 3.99841 12.722 3.99841 13.2997 4.99892L19.8053 16.2671C20.383 17.2676 19.6609 18.5182 18.5056 18.5182H5.49428C4.33898 18.5182 3.61692 17.2676 4.19457 16.2671L10.7002 4.99892Z" fill="black"/>
</svg>
