<svg xmlns="http://www.w3.org/2000/svg" width="24" height="24" fill="none" viewBox="0 0 24 24"><path fill="#2dc100" d="M21 18.3c0 1.4912-1.2088 2.7-2.7 2.7H5.7C4.2088 21 3 19.7912 3 18.3V5.7C3 4.2088 4.2088 3 5.7 3h12.6C19.7912 3 21 4.2088 21 5.7z"/><path fill="#fff" fill-rule="evenodd" d="M12.4377 11.0298c2.0605-1.3498 5.0825-.8994 6.5352.9737 1.2674 1.6343 1.1187 3.8038-.4287 5.1767-.4478.3973-.6095.7243-.3223 1.2481.0531.0967.0591.2196.0899.3418-.46-.2049-.8819-.5127-1.3311-.5596-.4474-.0467-.9177.2118-1.3857.2598-1.4263.1459-2.7042-.2523-3.7578-1.2266-2.0038-1.8534-1.7178-4.695.6005-6.2139m.6416 1.5879c-.3035-.0013-.5574.2589-.5468.5606.0101.288.2524.521.5429.5214.2929.0004.5339-.2292.545-.5185.0114-.3061-.2345-.5622-.5411-.5635m3.3721.001c-.2841-.002-.5255.2305-.5371.5176-.0123.307.2265.5588.5303.5595.2937.0009.5254-.2213.5361-.5136.0113-.3076-.227-.5613-.5293-.5635" clip-rule="evenodd"/><path fill="#fff" fill-rule="evenodd" d="M7.8118 5.564c2.318-.7571 4.9234.015 6.333 1.8555.5089.6646.8208 1.4107.9033 2.293-1.4528.0758-2.7166.5167-3.7422 1.5117-1.036 1.0051-1.509 2.2369-1.3799 3.7636-.5676-.0703-1.0846-.1476-1.6045-.1914-.1796-.0151-.3927.007-.5449.0928-.505.285-.9897.6062-1.5635.9648.1053-.476.1734-.8929.294-1.2939.0887-.2948.0478-.4594-.2237-.6514-1.7438-1.2312-2.4796-3.0737-1.9296-4.9707.509-1.755 1.7596-2.8192 3.458-3.374m4.0381 2.8877c-.3583.0069-.6607.312-.6543.6602.0066.3609.3034.643.6718.6386.3695-.0044.6499-.2896.6465-.6582-.003-.3619-.2993-.6473-.664-.6406m-4.1329 0c-.3654-.0105-.666.2687-.6767.629-.0108.365.2685.6574.6367.6669.3651.0092.671-.2704.6846-.626.0134-.347-.2874-.6595-.6446-.6699" clip-rule="evenodd"/></svg>