<svg xmlns="http://www.w3.org/2000/svg" width="24" height="24" fill="none" viewBox="0 0 24 24"><path fill="#fff" d="M2.6272 15.3421c0 2.5594 3.332 4.6349 7.4433 4.6349s7.4433-2.0758 7.4433-4.6349-3.3324-4.6346-7.4433-4.6346-7.4433 2.0752-7.4433 4.6346"/><path fill="#e6162d" d="M10.2439 19.5997c-3.6384.3589-6.779-1.2852-7.0158-3.6743-.236-2.3884 2.523-4.6159 6.1607-4.9756 3.6386-.36 6.7796 1.2847 7.0157 3.6725.2359 2.3894-2.522 4.6174-6.1606 4.9774m7.2776-7.9298c-.3095-.0924-.5217-.1558-.3598-.5623.351-.8831.3872-1.6447.0067-2.1883-.7133-1.019-2.6655-.9643-4.9031-.0271 0-.0015-.7026.3074-.5231-.2499.3442-1.1067.2922-2.0334-.2435-2.5685-1.2136-1.2148-4.442.046-7.2106 2.8134-2.0731 2.0734-3.2769 4.2707-3.2769 6.1709 0 3.6345 4.661 5.8441 9.2207 5.8441 5.9771 0 9.9533-3.4729 9.9533-6.2299 0-1.666-1.403-2.6114-2.6637-3.0024"/><path fill="#f93" d="M21.4901 5.0188c-1.4433-1.6003-3.5726-2.2102-5.5379-1.7926a.842.842 0 0 0-.6477.9987.8415.8415 0 0 0 .9987.6472c1.3981-.2969 2.911.138 3.9379 1.2742a4.137 4.137 0 0 1 .8641 4.0466.842.842 0 0 0 .2554.9002.84.84 0 0 0 .287.1597.8416.8416 0 0 0 1.0594-.5406l.0003-.0035c.616-1.9118.2268-4.0913-1.2172-5.6899"/><path fill="#f93" d="M19.2732 7.0191c-.7025-.7794-1.7397-1.0754-2.6974-.8717a.724.724 0 1 0 .3019 1.4158 1.39 1.39 0 0 1 .7166.037 1.39 1.39 0 0 1 .6029.3891 1.384 1.384 0 0 1 .2884 1.3563.725.725 0 0 0 .0448.5527.725.725 0 0 0 .4219.3597.725.725 0 0 0 .9121-.467c.301-.9314.1128-1.9928-.5912-2.7719"/><path fill="#000" d="M10.4445 15.2728c-.1274.218-.4086.3227-.629.2318-.2167-.0894-.2848-.3326-.1615-.5465.1268-.2128.3974-.3165.6134-.2309.2198.0804.2987.3267.1771.5456m-1.1593 1.4884c-.3519.5614-1.1056.8075-1.6734.5482-.5593-.2545-.7244-.9071-.372-1.4544.3475-.5451 1.0757-.7882 1.6392-.5521.5698.2432.7522.8911.4062 1.4583m1.3224-3.9738c-1.7316-.4507-3.6887.4123-4.4406 1.9381-.766 1.5558-.0251 3.283 1.7236 3.8479 1.8122.5841 3.9479-.311 4.6904-1.9908.7327-1.6417-.1817-3.332-1.9734-3.7952"/></svg>