<svg xmlns="http://www.w3.org/2000/svg" width="24" height="24" fill="none" viewBox="0 0 24 24"><path fill="#25d366" fill-rule="evenodd" d="M19.0859 4.9042C17.2061 3.0323 14.7059 2.0009 12.042 2c-5.4892 0-9.9565 4.4422-9.9584 9.9025a9.84 9.84 0 0 0 1.3293 4.9508L2 21.9854l5.279-1.3771c1.4545.7893 3.0923 1.2047 4.7587 1.2052h.0043c5.4882 0 9.9561-4.4427 9.958-9.9029.0009-2.6463-1.0338-5.1341-2.9141-7.006zM12.042 20.141h-.0033c-1.485-.0004-2.9418-.3975-4.2129-1.1472l-.3022-.1785-3.1328.8171.836-3.0376-.1967-.3115a8.176 8.176 0 0 1-1.2653-4.3804c.0019-4.5382 3.7148-8.2306 8.2806-8.2306 2.2107.001 4.2888.858 5.8515 2.4141 1.5629 1.5557 2.4228 3.6241 2.4219 5.8231-.002 4.5386-3.7149 8.2311-8.2768 8.2311zm4.5399-6.1645c-.2487-.1239-1.472-.7222-1.7003-.8048s-.3939-.124-.5596.1239-.6427.8054-.7878.9701c-.1452.1653-.2904.1857-.5391.0617-.2488-.1239-1.0505-.3851-2.0012-1.2279-.7396-.6563-1.239-1.4663-1.3842-1.7142s-.0153-.3818.1089-.5048c.1117-.1111.2487-.2892.3733-.4335.1247-.1444.1658-.2479.2488-.4127.0831-.1652.0416-.3095-.0205-.4335s-.5596-1.342-.7673-1.8372c-.202-.4824-.4073-.4169-.5596-.425-.1452-.0071-.3109-.0085-.477-.0085-.1662 0-.4355.0617-.6637.3096-.2283.2478-.871.8466-.871 2.0641s.8915 2.3947 1.0161 2.56c.1246.1652 1.7547 2.6643 4.2506 3.7365.5935.255 1.0571.4074 1.4186.5214.5959.1885 1.1383.162 1.5671.0983.478-.0712 1.4721-.5988 1.6793-1.1767s.2073-1.0736.1452-1.1767-.2282-.1652-.477-.2891z" clip-rule="evenodd"/></svg>