<svg xmlns="http://www.w3.org/2000/svg" width="24" height="24" fill="none" viewBox="0 0 24 24"><path fill="#000" fill-rule="evenodd" d="M17.0175 3c-.5636 0-1.0174.459-1.0174 1 0 .5523-.4477 1-1 1s-1-.4477-1-1c0-1.6681 1.3719-3 3.0174-3 1.6265 0 2.9826 1.3164 2.9826 2.9654v.1602c0 1.2352-.8198 2.3158-2 2.6535V7.5c0 .5523-.4477 1-1 1s-1-.4477-1-1v-.8128c0-.8627.5872-1.6148 1.4241-1.824a.76.76 0 0 0 .5759-.7376v-.1602c0-.5219-.4381-.9654-.9826-.9654m-14.0094.8908A1 1 0 0 1 4.002 3h3.2193a2 2 0 0 1 1.9403 1.515l.6724 2.6895A2 2 0 0 1 9.3 9.1118l-2.077 2.0535c.6313 1.0232 1.4426 2.0839 2.4863 3.1276 1.0236 1.0236 2.0909 1.8243 3.1348 2.451l2.0506-2.0506a2 2 0 0 1 1.8993-.5261l2.6932.6733a2 2 0 0 1 1.515 1.9403L21.0021 20c0 .5523-.4477 1-1 1h-.0072l-.012-.0001-.0381-.0006a7 7 0 0 1-.131-.004 10.5 10.5 0 0 1-.4663-.0304c-.3961-.0341-.9567-.1015-1.6369-.2348-1.3253-.2597-3.1153-.7715-5.0285-1.7825a1 1 0 0 1-.2964-.1601c-1.352-.7466-2.7556-1.7454-4.0906-3.0804-1.4053-1.4052-2.4405-2.8484-3.2019-4.2224-1.1164-2.0149-1.6394-3.8729-1.8831-5.2354-.122-.6816-.1742-1.2407-.1958-1.6361-.012-.219-.0208-.4385-.0112-.6577a1 1 0 0 1 .005-.0647M5.051 5c.0267.2563.067.5578.1277.8971.164.9163.4756 2.1046 1.066 3.4229l1.649-1.6304L7.2214 5zM18 10c0 .5523-.4477 1-1 1s-1-.4477-1-1 .4477-1 1-1 1 .4477 1 1m-3.29 7.7062c1.2865.5622 2.4646.8809 3.3851 1.0612.3412.0669.6461.1146.9069.1485l.0001-2.1351-2.6933-.6733z"/></svg>