<svg xmlns="http://www.w3.org/2000/svg" width="24" height="24" fill="none" viewBox="0 0 24 24"><path fill="#000" fill-rule="evenodd" d="M18 4c0-.5523-.4477-1-1-1s-1 .4477-1 1v2h-2c-.5523 0-1 .4477-1 1s.4477 1 1 1h2v2c0 .5523.4477 1 1 1s1-.4477 1-1V8h2c.5523 0 1-.4477 1-1s-.4477-1-1-1h-2zm-7 1c0-1.1046-.8954-2-2-2H5c-1.1046 0-2 .8954-2 2v14c0 1.1046.8954 2 2 2h4c1.1046 0 2-.8954 2-2zM9 5v14H5V5zm12 10c0-1.1046-.8954-2-2-2h-4c-1.1046 0-2 .8954-2 2v4c0 1.1046.8954 2 2 2h4c1.1046 0 2-.8954 2-2zm-2 0v4h-4v-4z"/></svg>