<svg width="24" height="24" viewBox="0 0 24 24" fill="none" xmlns="http://www.w3.org/2000/svg">
<path fill-rule="evenodd" clip-rule="evenodd" d="M11 5C11 3.89543 10.1046 3 9 3H5C3.89543 3 3 3.89543 3 5V19C3 20.1046 3.89543 21 5 21H9C10.1046 21 11 20.1046 11 19L11 5ZM9 5L9 19H5L5 5L9 5Z" fill="black"/>
<path fill-rule="evenodd" clip-rule="evenodd" d="M21 15C21 13.8954 20.1046 13 19 13H15C13.8954 13 13 13.8954 13 15V19C13 20.1046 13.8954 21 15 21H19C20.1046 21 21 20.1046 21 19V15ZM19 15V19H15V15H19Z" fill="black"/>
<path d="M17 3C17.5523 3 18 3.44772 18 4V6H20C20.5523 6 21 6.44771 21 7C21 7.55228 20.5523 8 20 8H18V10C18 10.5523 17.5523 11 17 11C16.4477 11 16 10.5523 16 10V8H14C13.4477 8 13 7.55228 13 7C13 6.44772 13.4477 6 14 6H16V4C16 3.44772 16.4477 3 17 3Z" fill="black"/>
</svg>
