<svg width="24" height="24" viewBox="0 0 24 24" fill="none" xmlns="http://www.w3.org/2000/svg">
<path d="M13.36 14.59C13.55 14.81 13.83 14.92 14.1 14.92C14.34 14.92 14.58 14.83 14.77 14.66C15.18 14.29 15.21 13.66 14.84 13.25C14.73 13.12 13.7 12.04 11.97 12.04C10.24 12.04 9.21 13.13 9.1 13.25C8.73 13.66 8.76 14.29 9.17 14.66C9.58 15.03 10.21 15 10.58 14.59C10.6032 14.5664 11.1214 14.04 11.97 14.04C12.8186 14.04 13.3368 14.5664 13.36 14.59Z" fill="black"/>
<path d="M16.01 12.54C15.75 12.54 15.5 12.44 15.3 12.24C15.26 12.2 14.05 11.03 12 11.03C9.95 11.03 8.75 12.19 8.7 12.24C8.31 12.62 7.67 12.62 7.29 12.24C6.9 11.85 6.9 11.22 7.29 10.83C7.36 10.76 9.1 9.03 12.01 9.03C14.92 9.03 16.66 10.76 16.73 10.83C17.12 11.22 17.11 11.86 16.73 12.24C16.53 12.43 16.28 12.53 16.03 12.53L16.01 12.54Z" fill="black"/>
<path d="M12.99 16.25C12.99 16.8133 12.5333 17.27 11.97 17.27C11.4067 17.27 10.95 16.8133 10.95 16.25C10.95 15.6867 11.4067 15.23 11.97 15.23C12.5333 15.23 12.99 15.6867 12.99 16.25Z" fill="black"/>
<path fill-rule="evenodd" clip-rule="evenodd" d="M2 2C2.55 2 3 2.45 3 3V9H4V8C4 5.79 5.79 4 8 4H16C18.21 4 20 5.79 20 8V9H21V3C21 2.45 21.45 2 22 2C22.55 2 23 2.45 23 3V12C23 12.55 22.55 13 22 13C21.45 13 21 12.55 21 12V11H20V18C20 20.21 18.21 22 16 22H8C5.79 22 4 20.21 4 18V11H3V12C3 12.55 2.55 13 2 13C1.45 13 1 12.55 1 12V3C1 2.45 1.45 2 2 2ZM16 6C17.1 6 18 6.9 18 8V18C18 19.1 17.1 20 16 20H8C6.9 20 6 19.1 6 18V8C6 6.9 6.9 6 8 6H16Z" fill="black"/>
</svg>
