<svg width="24" height="24" viewBox="0 0 24 24" fill="none" xmlns="http://www.w3.org/2000/svg">
<path d="M19.5 11.0046C20.3284 11.0046 21 10.3331 21 9.50464C21 8.67621 20.3284 8.00464 19.5 8.00464C18.6716 8.00464 18 8.67621 18 9.50464C18 10.3331 18.6716 11.0046 19.5 11.0046Z" fill="black"/>
<path d="M19.5 16.0046C20.3284 16.0046 21 15.3331 21 14.5046C21 13.6762 20.3284 13.0046 19.5 13.0046C18.6716 13.0046 18 13.6762 18 14.5046C18 15.3331 18.6716 16.0046 19.5 16.0046Z" fill="black"/>
<path d="M16 14.5046C16 15.3331 15.3284 16.0046 14.5 16.0046C13.6716 16.0046 13 15.3331 13 14.5046C13 13.6762 13.6716 13.0046 14.5 13.0046C15.3284 13.0046 16 13.6762 16 14.5046Z" fill="black"/>
<path d="M19.5 21.0046C20.3284 21.0046 21 20.3331 21 19.5046C21 18.6762 20.3284 18.0046 19.5 18.0046C18.6716 18.0046 18 18.6762 18 19.5046C18 20.3331 18.6716 21.0046 19.5 21.0046Z" fill="black"/>
<path d="M16 19.5046C16 20.3331 15.3284 21.0046 14.5 21.0046C13.6716 21.0046 13 20.3331 13 19.5046C13 18.6762 13.6716 18.0046 14.5 18.0046C15.3284 18.0046 16 18.6762 16 19.5046Z" fill="black"/>
<path d="M9.5 21.0046C10.3284 21.0046 11 20.3331 11 19.5046C11 18.6762 10.3284 18.0046 9.5 18.0046C8.67157 18.0046 8 18.6762 8 19.5046C8 20.3331 8.67157 21.0046 9.5 21.0046Z" fill="black"/>
</svg>
