<svg xmlns="http://www.w3.org/2000/svg" width="24" height="24" fill="none" viewBox="0 0 24 24"><path fill="#000" fill-rule="evenodd" d="M21 9.5c0 .8284-.6716 1.5-1.5 1.5S18 10.3284 18 9.5 18.6716 8 19.5 8s1.5.6716 1.5 1.5M14.5 16c.8284 0 1.5-.6716 1.5-1.5s-.6716-1.5-1.5-1.5-1.5.6716-1.5 1.5.6716 1.5 1.5 1.5m6.5-1.5c0 .8284-.6716 1.5-1.5 1.5s-1.5-.6716-1.5-1.5.6716-1.5 1.5-1.5 1.5.6716 1.5 1.5M9.5 21c.8284 0 1.5-.6716 1.5-1.5S10.3284 18 9.5 18 8 18.6716 8 19.5 8.6716 21 9.5 21m6.5-1.5c0 .8284-.6716 1.5-1.5 1.5s-1.5-.6716-1.5-1.5.6716-1.5 1.5-1.5 1.5.6716 1.5 1.5m5 0c0 .8284-.6716 1.5-1.5 1.5s-1.5-.6716-1.5-1.5.6716-1.5 1.5-1.5 1.5.6716 1.5 1.5"/></svg>