<svg xmlns="http://www.w3.org/2000/svg" width="24" height="24" fill="none" viewBox="0 0 24 24"><path fill="#000" fill-rule="evenodd" d="M7.9518 1.8159c-.0644-.1741-.3107-.1741-.3751 0l-.617 1.6672a.2.2 0 0 1-.1181.1182l-1.6672.617c-.1742.0644-.1742.3107 0 .375l1.6672.617a.2.2 0 0 1 .1182.1182l.6169 1.6672c.0644.1742.3107.1742.3751 0l.617-1.6672a.2.2 0 0 1 .1181-.1182l1.6673-.617c.1741-.0643.1741-.3106 0-.375l-1.6673-.617a.2.2 0 0 1-.1181-.1182zm11.2705.3129c.0645-.1741.3107-.1741.3752 0l.6169 1.6672a.2.2 0 0 0 .1182.1182l1.6672.617c.1742.0644.1742.3106 0 .375l-1.6672.617a.2.2 0 0 0-.1182.1182l-.6169 1.6672c-.0645.1742-.3107.1742-.3752 0l-.6169-1.6672a.2.2 0 0 0-.1182-.1182l-1.6672-.617c-.1741-.0644-.1741-.3106 0-.375l1.6672-.617a.2.2 0 0 0 .1182-.1182zm-6.1551 4.6667c.3905-.3905 1.0237-.3905 1.4142 0l2.908 2.908c.3905.3905.3905 1.0237 0 1.4142L6.1088 22.3983c-.3906.3906-1.0237.3906-1.4143 0l-2.908-2.908c-.3905-.3905-.3905-1.0236 0-1.4142zm.7071 2.1213-1.2693 1.2693 1.4938 1.4938 1.2692-1.2693zm-9.8664 9.8664 7.1828-7.1828 1.4938 1.4937-7.1829 7.1829zm15.0228-3.9913c-.0644-.1741-.3107-.1741-.3751 0l-.6169 1.6673a.2.2 0 0 1-.1182.1181l-1.6673.617c-.1741.0644-.1741.3107 0 .3751l1.6673.617a.2.2 0 0 1 .1182.1181l.6169 1.6673c.0644.1741.3107.1741.3751 0l.617-1.6673a.2.2 0 0 1 .1181-.1181l1.6673-.617c.1741-.0644.1741-.3107 0-.3751l-1.6673-.617a.2.2 0 0 1-.1181-.1181z"/></svg>