<svg xmlns="http://www.w3.org/2000/svg" width="24" height="24" fill="none" viewBox="0 0 24 24"><path fill="#000" fill-rule="evenodd" d="M3 6c0-1.6569 1.3431-3 3-3h12c1.6569 0 3 1.3431 3 3v8c0 1.6569-1.3431 3-3 3h-3v2h1c.5523 0 1 .4477 1 1s-.4477 1-1 1H8c-.5523 0-1-.4477-1-1s.4477-1 1-1h1v-2H6c-1.6569 0-3-1.3431-3-3zm16 8c0 .5523-.4477 1-1 1H6c-.5523 0-1-.4477-1-1V6c0-.5523.4477-1 1-1h12c.5523 0 1 .4477 1 1zm-7.027-8.106c.3063.4595.1821 1.0803-.2774 1.3867L9.3923 8.8162l2.3033 1.5355c.4595.3064.5837.9273.2774 1.3868s-.9273.5837-1.3868.2773L7.0348 9.6483a1 1 0 0 1 0-1.6641l3.5514-2.3676c.4595-.3064 1.0804-.1822 1.3868.2773m.3314 3.7543c-.4595-.3064-.5837-.9273-.2774-1.3868s.9273-.5837 1.3868-.2773l3.5514 2.3675a1 1 0 0 1 0 1.6641l-3.5514 2.3676c-.4595.3064-1.0804.1822-1.3868-.2773s-.1821-1.0804.2774-1.3868l2.3033-1.5355zM13 19v-2h-2v2z"/></svg>