<svg xmlns="http://www.w3.org/2000/svg" width="24" height="24" fill="none" viewBox="0 0 24 24"><path fill="#000" fill-rule="evenodd" d="M8 2c-1.1046 0-2 .8954-2 2v2H4c-1.1046 0-2 .8954-2 2v9.9999c0 1.1046.8954 2 2 2h8.3337c-.3854-.5926-.756-1.2656-1.0438-2H4V14h2v1c0 .5523.4477 1 1 1s1-.4477 1-1v-1h2.8252a7.32 7.32 0 0 1 .6333-2H4V8h12.9695s2.117-.0175 3.0305.272V8c0-1.1046-.8954-2-2-2h-2V4c0-1.1046-.8954-2-2-2zm6 4V4H8v2zm3.8641 15.669.6224.7827a1.0005 1.0005 0 0 1-1.2451-.0003s.0004.0003.6227-.7824m.6233.782s-.0009.0007-.6233-.782l-.6227.7824-.0018-.0014-.0037-.003-.0119-.0095a12 12 0 0 1-.1853-.1541 17 17 0 0 1-.4993-.4434c-.4088-.3776-.9561-.9179-1.5063-1.5674-1.0565-1.2473-2.3049-3.1054-2.3049-5.0806 0-2.873 2.2744-5.2478 5.1359-5.2478S23 12.319 23 15.192c0 1.9752-1.2484 3.8333-2.3049 5.0806-.5501.6495-1.0974 1.1898-1.5063 1.5674-.2051.1894-.377.3394-.4993.4434a11 11 0 0 1-.1971.1636l-.0037.003zm-.6233-10.5068c-1.7069 0-3.1359 1.4287-3.1359 3.2478 0 1.2135.8195 2.5938 1.831 3.7879.4698.5546.9423 1.0242 1.3049 1.361.3627-.3368.8351-.8064 1.3049-1.361C20.1805 17.7858 21 16.4055 21 15.192c0-1.8191-1.429-3.2478-3.1359-3.2478m1.1471 3.3026c0 .6175-.5005 1.118-1.118 1.118-.6174 0-1.118-.5005-1.118-1.118 0-.6174.5006-1.118 1.118-1.118s1.118.5006 1.118 1.118"/></svg>