<svg xmlns="http://www.w3.org/2000/svg" width="24" height="24" fill="none" viewBox="0 0 24 24"><path fill="#000" fill-rule="evenodd" d="M8.2929 3.2929c.3905-.3905 1.0237-.3905 1.4142 0l3 3c.3905.3905.3905 1.0237 0 1.4142l-3 3c-.3905.3905-1.0237.3905-1.4142 0s-.3905-1.0237 0-1.4142L9.5858 8H9c-2.7614 0-5 2.2386-5 5s2.2386 5 5 5h3c.5523 0 1 .4477 1 1s-.4477 1-1 1H9c-3.866 0-7-3.134-7-7s3.134-7 7-7h.5858L8.2929 4.7071c-.3905-.3905-.3905-1.0237 0-1.4142M14 9c0-.5523.4477-1 1-1h5c.5523 0 1 .4477 1 1s-.4477 1-1 1h-5c-.5523 0-1-.4477-1-1m0 4c0-.5523.4477-1 1-1h5c.5523 0 1 .4477 1 1s-.4477 1-1 1h-5c-.5523 0-1-.4477-1-1m1 3c-.5523 0-1 .4477-1 1s.4477 1 1 1h5c.5523 0 1-.4477 1-1s-.4477-1-1-1z"/></svg>