<svg width="24" height="24" viewBox="0 0 24 24" fill="none" xmlns="http://www.w3.org/2000/svg">
<circle cx="12" cy="12" r="10" fill="#FC3F1D"/>
<path d="M12.4329 13.0413C13.0419 14.3751 13.2448 14.8391 13.2448 16.4412V18.5652H11.0701V14.9841L6.96704 6.0603H9.23602L12.4329 13.0413ZM15.1151 6.0603L12.4547 12.1062H14.6657L17.3334 6.0603H15.1151Z" fill="white"/>
<path d="M22 12C22 17.5228 17.5228 22 12 22C6.47715 22 2 17.5228 2 12C2 6.47715 6.47715 2 12 2C17.5228 2 22 6.47715 22 12Z" fill="#FC3F1D"/>
<path d="M12.4328 13.0412C13.0418 14.3751 13.2447 14.839 13.2447 16.4411V18.5651H11.07V14.984L6.96695 6.06025H9.23592L12.4328 13.0412ZM15.115 6.06025L12.4546 12.1061H14.6656L17.3333 6.06025H15.115Z" fill="white"/>
</svg>
