<svg xmlns="http://www.w3.org/2000/svg" width="24" height="24" fill="none" viewBox="0 0 24 24"><path fill="#fc3f1d" fill-rule="evenodd" d="M22 12c0 5.5228-4.4772 10-10 10S2 17.5228 2 12 6.4772 2 12 2s10 4.4772 10 10m-8.5767 6.2776h2.1952v-.0037h-.0148V5.7206h-3.1732c-3.1861 0-4.8692 1.6422-4.8692 4.0564 0 1.9317.9242 3.0766 2.5664 4.2494l-2.8558 4.2494h2.3603l3.1732-4.7597-1.1041-.7441c-1.3398-.8963-1.9874-1.5996-1.9874-3.1175 0-1.3379.9389-2.2342 2.7315-2.2342h.9779z" clip-rule="evenodd"/></svg>