<svg xmlns="http://www.w3.org/2000/svg" width="24" height="24" fill="none" viewBox="0 0 24 24"><path fill="#000" fill-rule="evenodd" d="M8.5004 4c0-.5522-.4479-.9998-1-1h-1.5c-1.6569 0-3 1.3431-3 3v1.5c0 .5523.4477 1 1 1 .5521-.0002 1-.4478 1-1V6c0-.5523.4477-1 1-1h1.5c.5521-.0002 1-.4478 1-1m12.5 2c0-1.605-1.2607-2.9156-2.8457-2.9961L18.0004 3h-1.5c-.5523 0-1 .4477-1 1s.4477 1 1 1h1.5l.1025.0049c.504.0515.8975.4776.8975.9951v1.5c0 .5523.4477 1 1 1 .5521-.0002 1-.4478 1-1zm-1.6543 3.71a.201.201 0 0 1 .127.123l1.5117 4.1992a.203.203 0 0 1-.0244.1836.201.201 0 0 1-.1631.085h-1.1348a.201.201 0 0 1-.1904-.1387l-.1885-.5879h-1.3115l-.1953.5889a.202.202 0 0 1-.1905.1377h-1.1035a.201.201 0 0 1-.1884-.2686l1.5185-4.2002.0293-.0537a.2.2 0 0 1 .1582-.0781h1.2842zm-14.7627.1084a.2.2 0 0 0-.125-.1094l-.0576-.0088h-1.206a.2006.2006 0 0 0-.1778.292l1.418 2.7344v1.374a.201.201 0 0 0 .2002.2002h1.079c.1103 0 .2-.09.2003-.2002v-1.3848L7.309 9.9912a.201.201 0 0 0-.0078-.1953.201.201 0 0 0-.171-.0957H5.9604a.2.2 0 0 0-.1513.0703l-.0313.0498-.5459 1.2412-.001.003c-.0125.0298-.0278.0703-.0449.1152-.017-.0447-.0305-.0855-.043-.1152l-.0019-.004zm5.6836.0146a.2.2 0 0 0-.1269-.123l-.0616-.0098H8.7943a.201.201 0 0 0-.1582.0781l-.0293.0537-1.5185 4.2002a.201.201 0 0 0 .0244.1826.202.202 0 0 0 .164.086h1.1036a.202.202 0 0 0 .1904-.1377l.1953-.5889h1.3116l.1884.5879a.202.202 0 0 0 .1905.1387h1.1347a.202.202 0 0 0 .1631-.085.202.202 0 0 0 .0244-.1836zm5.2227.3066c-.3036-.2877-.7289-.4394-1.2198-.4394h-1.9736a.2004.2004 0 0 0-.2002.2002v4.2002a.201.201 0 0 0 .2002.2002h1.0801a.201.201 0 0 0 .2002-.2002v-1.0625l.747 1.1699a.202.202 0 0 0 .169.0928h1.29a.2009.2009 0 0 0 .1651-.3135l-.8877-1.2978c.557-.2345.8983-.7253.8984-1.3731 0-.4788-.1644-.888-.4687-1.1768m-1.3213 1.4874h-.5918v-.6006h.5918c.0958 0 .169.0318.2168.0771.0464.0443.081.1133.081.2129-.0002.1867-.1298.3105-.2978.3106m4.1357.5693h.666l-.2822-.9141h-.1016zm-8.54 0h-.666l.2822-.9141h.1015zM4.0004 15.5c.5521.0002 1 .4478 1 1V18c0 .5523.4477 1 1 1h1.5c.5521.0002 1 .4478 1 1s-.4479.9998-1 1h-1.5c-1.6569 0-3-1.3431-3-3v-1.5c0-.5523.4477-1 1-1m16 0c.5521.0002 1 .4478 1 1V18c0 1.6567-1.3433 2.9998-3 3h-1.5c-.5523 0-1-.4477-1-1s.4477-1 1-1h1.5c.5521-.0002 1-.4478 1-1v-1.5c0-.5523.4477-1 1-1"/></svg>