<svg width="100" height="100" viewBox="0 0 100 100" fill="none" xmlns="http://www.w3.org/2000/svg">
    <path fill-rule="evenodd" clip-rule="evenodd"
        d="M70.297 60.3961C70.297 52.7458 64.2806 46.5347 56.8701 46.5347H41.1497C33.7392 46.5347 27.7228 52.7458 27.7228 60.3961V74.2574H65.1897C68.0083 74.2574 70.297 71.8949 70.297 68.9848V60.3961Z"
        fill="#52555A" />
    <path
        d="M78.7128 47.5247C83.3608 47.5247 87.1287 43.7568 87.1287 39.1089C87.1287 34.461 83.3608 30.6931 78.7128 30.6931C74.0649 30.6931 70.297 34.461 70.297 39.1089C70.297 43.7568 74.0649 47.5247 78.7128 47.5247Z"
        stroke="white" stroke-width="1.5" />
    <path
        d="M21.2872 47.5247C25.9351 47.5247 29.703 43.7568 29.703 39.1089C29.703 34.461 25.9351 30.6931 21.2872 30.6931C16.6392 30.6931 12.8713 34.461 12.8713 39.1089C12.8713 43.7568 16.6392 47.5247 21.2872 47.5247Z"
        stroke="white" stroke-width="1.5" />
    <path
        d="M61.3862 71.2871V66.5989C61.3862 59.8925 66.6439 54.4554 73.1292 54.4554H83.3065C86.5361 54.4554 89.4612 55.8037 91.5842 57.9857C93.7245 60.1853 95.0496 63.2322 95.0496 66.5989"
        stroke="white" stroke-width="1.5" stroke-linecap="round" />
    <path
        d="M38.6139 67.5699C38.6139 60.874 33.2015 55.4456 26.5255 55.4456H16.0489C9.37284 55.4456 3.96045 60.874 3.96045 67.5699V70.297"
        stroke="white" stroke-width="1.5" stroke-linecap="round" />
    <path
        d="M49.0099 40.5941C54.7515 40.5941 59.406 35.9396 59.406 30.198C59.406 24.4565 54.7515 19.802 49.0099 19.802C43.2684 19.802 38.6139 24.4565 38.6139 30.198C38.6139 35.9396 43.2684 40.5941 49.0099 40.5941Z"
        fill="#52555A" />
</svg>