<svg xmlns="http://www.w3.org/2000/svg" width="16" height="12" fill="none" viewBox="0 0 16 12"><g clip-path="url(#a)"><rect width="16" height="12" fill="#fff" rx="2"/><mask id="b" width="16" height="12" x="0" y="0" maskUnits="userSpaceOnUse" style="mask-type:luminance"><rect width="16" height="12" fill="#fff" rx="2"/></mask><g mask="url(#b)"><path fill="#e31f37" d="M0 0h16v12H0z"/><path fill="#083b9a" fill-rule="evenodd" d="M-.762 6.4h9.143V-.8H-.762z" clip-rule="evenodd"/><path fill="#fff" d="m4.19 5.1998.1583.5654-.5391-.165-.538.165.1571-.5654-.1572-.5655.5381.166.539-.166zm.5723-1.2002c.105.0002.1903.09.1905.2002 0 .1103-.0854.2-.1905.2002-.1052 0-.1904-.0898-.1904-.2002.0001-.1104.0853-.2002.1904-.2002m-2.0957-.7998.1582.5654-.539-.165-.5391.165.1582-.5654-.1582-.5655.539.166.5391-.166zm3.4287-.3995.1582.5655-.539-.166-.539.166.1581-.5655-.1582-.5663.539.166.5391-.166zM4.1901 1.1998l.1582.5654-.5391-.165-.538.165.1571-.5654-.1572-.5655.5381.166.539-.166z"/></g></g><defs><clipPath id="a"><path fill="#fff" d="M0 0h16v12H0z"/></clipPath></defs></svg>