<svg xmlns="http://www.w3.org/2000/svg" width="16" height="12" fill="none" viewBox="0 0 16 12"><g clip-path="url(#a)"><rect width="16" height="12" fill="#fff" stroke="#f5f5f5" rx="2"/><mask id="b" width="16" height="12" x="0" y="0" maskUnits="userSpaceOnUse" style="mask-type:luminance"><rect width="16" height="12" fill="#fff" stroke="#fff" rx="2"/></mask><g mask="url(#b)"><path fill="#e52448" d="M16.0004 0v5.5996H7.6195V0z"/><path fill="#1367ae" d="M7.6191 5.6v6.4003H0V5.5999z"/><path fill="#1367ae" fill-rule="evenodd" d="m3.8096 3.456-.8957.6384.3015-1.0917-.855-.6971 1.082-.0363L3.8096 1.2l.3672 1.0693 1.082.0363-.855.6971.3015 1.0917z" clip-rule="evenodd"/><path fill="#e52448" fill-rule="evenodd" d="m11.8096 9.456-.8957.6384.3015-1.0917-.8551-.6971 1.0821-.0363.3672-1.0693.3672 1.0693 1.082.0363-.855.6971.3014 1.0917z" clip-rule="evenodd"/></g></g><defs><clipPath id="a"><path fill="#fff" d="M0 0h16v12H0z"/></clipPath></defs></svg>