<svg xmlns="http://www.w3.org/2000/svg" width="16" height="12" fill="none" viewBox="0 0 16 12"><g clip-path="url(#a)"><rect width="16" height="12" fill="#fff" stroke="#f5f5f5" rx="2"/><mask id="b" width="16" height="12" x="0" y="0" maskUnits="userSpaceOnUse" style="mask-type:luminance"><rect width="16" height="12" fill="#fff" stroke="#fff" rx="2"/></mask><g mask="url(#b)"><path fill="#dd1c34" d="M16 5.6v6.4003H0l7.6191-6L7.1104 5.6z"/><path fill="#0d4bc3" d="M16 0v5.5996H7.1104L0 0z"/><path fill="#fdd64d" d="M1.3612 9.3377c.2104 0 .3809.1693.3809.378-.0003.2084-.1707.3769-.3809.3769s-.3806-.1685-.3809-.377c0-.2086.1705-.3779.381-.3779m1.9873-3.9033a.7.7 0 0 1 .042.042l1.254-.2627-1.0743.6943c.0004.0096.003.0196.003.0293 0 .0095-.0026.019-.003.0283l1.0742.6944-1.2539-.2637a.7.7 0 0 1-.042.042l.2656 1.2441L2.914 6.616c-.0096.0004-.0195.003-.0293.003-.0101 0-.0202-.0025-.0302-.003L2.156 7.6824l.2647-1.2441a.7.7 0 0 1-.042-.042l-1.254.2637 1.0743-.6944c-.0004-.0094-.002-.0188-.002-.0283 0-.0097.0016-.0197.002-.0293l-1.0742-.6943 1.2539.2627a.7.7 0 0 1 .042-.042L2.156 4.1912l.6983 1.0654c.01-.0004.02-.0019.0302-.0019.0098 0 .0197.0015.0293.002l.7002-1.0655zm2.584.125c.2104 0 .3808.1692.3808.378-.0002.2084-.1705.3769-.3808.3769-.2102 0-.3807-.1685-.3809-.377 0-.2086.1705-.3779.3809-.378M1.3612 1.781c.2104 0 .3809.1692.3809.3779-.0002.2085-.1706.3779-.3809.378s-.3807-.1695-.3809-.378c0-.2087.1705-.378.381-.378"/></g></g><defs><clipPath id="a"><path fill="#fff" d="M0 0h16v12H0z"/></clipPath></defs></svg>