<svg xmlns="http://www.w3.org/2000/svg" width="16" height="12" fill="none" viewBox="0 0 16 12"><g clip-path="url(#a)"><mask id="b" width="16" height="12" x="0" y="0" maskUnits="userSpaceOnUse" style="mask-type:luminance"><rect width="16" height="12" fill="#fff" rx="2"/></mask><g mask="url(#b)"><path fill="#1537d1" d="M0 0h16v12H0z"/><path fill="#ea3058" d="M7.619 0H16v12H7.619z"/><path fill="#ffcf3c" fill-rule="evenodd" d="M5.3334 12h5.3333V0H5.3334z" clip-rule="evenodd"/><path fill="#ffedb1" fill-rule="evenodd" d="M7.129 5.0195H8V5.6h-.871z" clip-rule="evenodd"/><mask id="c" fill="#fff"><path fill-rule="evenodd" d="M6.9 5.3396A.5.5 0 0 1 7.3984 4.8h1.2032a.5.5 0 0 1 .4985.5396l-.0892 1.1237a.8.8 0 0 1-.7975.7367h-.4267a.8.8 0 0 1-.7975-.7367z" clip-rule="evenodd"/></mask><path stroke="#d32e28" d="M6.9 5.3396A.5.5 0 0 1 7.3984 4.8h1.2032a.5.5 0 0 1 .4985.5396l-.0892 1.1237a.8.8 0 0 1-.7975.7367h-.4267a.8.8 0 0 1-.7975-.7367z" clip-rule="evenodd" mask="url(#c)"/><path fill="#d32e28" fill-rule="evenodd" d="M7.1602 5.6h1.6562V6H7.1602z" clip-rule="evenodd"/></g></g><defs><clipPath id="a"><path fill="#fff" d="M0 0h16v12H0z"/></clipPath></defs></svg>