<svg xmlns="http://www.w3.org/2000/svg" width="16" height="12" fill="none" viewBox="0 0 16 12"><g clip-path="url(#a)"><mask id="b" width="16" height="12" x="0" y="0" maskUnits="userSpaceOnUse" style="mask-type:luminance"><rect width="16" height="12" fill="#fff" rx="2"/></mask><g mask="url(#b)"><path fill="url(#c)" d="M0 0h16v12H0z"/><path fill="#08379d" d="M7.619 0H16v12H7.619z"/><path fill="#08379d" fill-rule="evenodd" d="M0 12h5.3333V0H0z" clip-rule="evenodd"/><path fill="#ffcc50" fill-rule="evenodd" d="M5.3334 12h5.3333V0H5.3334z" clip-rule="evenodd"/><path fill="#262626" fill-rule="evenodd" d="M7.7299 4.0407c.1328-.205.4337-.2023.5628.005l.2818.4531c.0817.1313-.0127.3012-.1673.3012a.197.197 0 0 0-.1962.2157l.1453 1.526a.2854.2854 0 0 0 .4898.1708l.2036-.2114a.333.333 0 0 0 .0931-.2312v-.5566a.283.283 0 0 0-.0781-.1954c-.142-.149-.0827-.395.1116-.463l.192-.0671c.2402-.0842.4823.1213.4384.372l-.2342 1.3373a.333.333 0 0 1-.0916.177l-.6401.6462a.27.27 0 0 1-.191.0797.269.269 0 0 0-.2689.2688v.1978a.3333.3333 0 0 1-.3333.3334h-.0952a.3333.3333 0 0 1-.3334-.3334v-.2A.2667.2667 0 0 0 7.3524 7.6a.267.267 0 0 1-.1931-.0828l-.6154-.6461a.333.333 0 0 1-.086-.1676L6.2033 5.368c-.048-.2523.1952-.4618.4376-.377l.1827.064c.1943.068.2536.3138.1116.4629a.283.283 0 0 0-.0782.1954V6.27c0 .0862.0334.169.0932.2312l.2036.2114a.2855.2855 0 0 0 .4897-.1709l.1456-1.5287a.1944.1944 0 0 0-.1935-.213c-.1541 0-.247-.1707-.1632-.3z" clip-rule="evenodd"/></g></g><defs><linearGradient id="c" x1="0" x2="0" y1="0" y2="12" gradientUnits="userSpaceOnUse"><stop stop-color="#1132c7"/><stop offset="1" stop-color="#0522a5"/></linearGradient><clipPath id="a"><path fill="#fff" d="M0 0h16v12H0z"/></clipPath></defs></svg>