<svg xmlns="http://www.w3.org/2000/svg" width="16" height="12" fill="none" viewBox="0 0 16 12"><g clip-path="url(#a)"><rect width="16" height="12" fill="#fff" stroke="#f5f5f5" rx="2"/><mask id="b" width="16" height="12" x="0" y="0" maskUnits="userSpaceOnUse" style="mask-type:luminance"><rect width="16" height="12" fill="#fff" stroke="#fff" rx="2"/></mask><g mask="url(#b)"><path fill="#048345" fill-rule="evenodd" d="M0 12h8.381V0H0z" clip-rule="evenodd"/><path fill="#e81b42" fill-rule="evenodd" d="m9.9048 6.624-.8957.6704.3305-1.1016-.884-.6872 1.0999-.0104L9.9048 4.4l.3493 1.0952 1.0999.0104-.884.6872.3305 1.1016z" clip-rule="evenodd"/><path fill="#e81b42" d="M7.8574 2.4004c.8705 0 1.662.3704 2.25.9756a3.006 3.006 0 0 0-1.3535-.3213c-1.65 0-2.9873 1.3186-2.9873 2.9453S7.104 8.9453 8.7539 8.9453a3.005 3.005 0 0 0 1.3535-.3223c-.588.6055-1.3793.9766-2.25.9766C6.0426 9.5995 4.5713 7.9881 4.5713 6s1.4713-3.5995 3.2861-3.5996"/></g></g><defs><clipPath id="a"><path fill="#fff" d="M0 0h16v12H0z"/></clipPath></defs></svg>