<svg xmlns="http://www.w3.org/2000/svg" width="16" height="12" fill="none" viewBox="0 0 16 12"><g clip-path="url(#a)"><rect width="16" height="12" fill="#fff" stroke="#f5f5f5" rx="2"/><mask id="b" width="16" height="12" x="0" y="0" maskUnits="userSpaceOnUse" style="mask-type:luminance"><rect width="16" height="12" fill="#fff" stroke="#fff" rx="2"/></mask><g mask="url(#b)"><path fill="#0e4dc5" d="M16 11.9997H0v-.7998h16zm0-4v1.6006H0V7.9997zM7.6191 4.8005H16V6.4H7.6191zm0-3.2002H16v1.5996H7.6191z"/><path fill="#fed443" d="m4.5162 2.6601.8067-.4863-.2832.915.9326-.08-.6416.6982.873.3427-.873.3438.6416.6982-.9326-.08.2832.915-.8067-.4863-.1318.9492-.5205-.7969-.5205.7969-.1319-.9492-.8066.4863.2832-.915-.9326.08.6416-.6982-.873-.3438.873-.3427-.6416-.6983.9326.0801-.2832-.915.8066.4863.1319-.9502.5205.7979.5205-.7979zm-.6523-.1377c-.8223 0-1.489.684-1.4893 1.5273 0 .8435.6669 1.5274 1.4893 1.5274s1.4893-.6839 1.4893-1.5274c-.0003-.8433-.667-1.5273-1.4893-1.5273m0 .2773c.6461 0 1.1699.5376 1.17 1.2002 0 .6628-.5238 1.2002-1.17 1.2002S2.6939 4.6627 2.6939 4c.0001-.6627.5238-1.2002 1.17-1.2002"/></g></g><defs><clipPath id="a"><path fill="#fff" d="M0 0h16v12H0z"/></clipPath></defs></svg>