<svg width="16" height="12" viewBox="0 0 16 12" fill="none" xmlns="http://www.w3.org/2000/svg">
<g clip-path="url(#clip0_41818_3489)">
<rect x="0.25" y="0.25" width="15.5" height="11.5" rx="1.75" fill="white" stroke="#F5F5F5" stroke-width="0.5"/>
<mask id="mask0_41818_3489" style="mask-type:luminance" maskUnits="userSpaceOnUse" x="0" y="0" width="16" height="12">
<rect x="0.25" y="0.25" width="15.5" height="11.5" rx="1.75" fill="white" stroke="white" stroke-width="0.5"/>
</mask>
<g mask="url(#mask0_41818_3489)">
<path fill-rule="evenodd" clip-rule="evenodd" d="M0 3.2H16V0H0V3.2Z" fill="#D82332"/>
<path fill-rule="evenodd" clip-rule="evenodd" d="M0 12H16V8.8H0V12Z" fill="#D82332"/>
</g>
<g clip-path="url(#clip1_41818_3489)">
<g clip-path="url(#clip2_41818_3489)">
<path fill-rule="evenodd" clip-rule="evenodd" d="M10.0537 4.06026C9.36252 3.91595 8.74072 3.99929 8.74072 4.66004C8.74072 5.30789 8.74072 6.27004 8.74072 6.46896C8.74072 6.66778 8.74464 6.69294 8.97744 6.748C9.48242 6.86746 9.52972 6.8795 10.0789 7.00767V5.14757C9.64972 5.09939 9.48559 4.85466 9.48559 4.57026C9.48559 4.29445 9.6749 4.11477 10.0537 4.06026Z" fill="#514537"/>
<path fill-rule="evenodd" clip-rule="evenodd" d="M8.28237 9.16183C7.89729 9.16183 7.49327 8.82183 7.49327 8.17398C7.49327 7.52602 7.49327 6.7114 7.49327 6.56387C7.49327 6.41796 7.50946 6.39742 7.47591 6.36344C7.45623 6.34344 7.49803 6.31376 7.52639 6.28484C7.56904 6.24151 7.59824 6.20548 7.54068 6.14688C7.483 6.08839 7.50755 6.07312 7.54385 6.03634C7.58015 5.99936 7.59433 5.96258 7.55962 5.9272C7.52491 5.89194 7.51697 5.88075 7.55486 5.84226C7.59274 5.80376 7.57697 5.78774 7.54544 5.75559C7.5138 5.72355 7.49888 5.70032 7.53909 5.65946C7.57856 5.61936 7.58163 5.6129 7.62745 5.6129C7.67327 5.6129 7.77263 5.6129 7.81687 5.6129C7.8611 5.6129 7.86184 5.62656 7.8247 5.6643C7.77655 5.71312 7.76237 5.73237 7.81687 5.78774C7.87126 5.84301 7.86893 5.86151 7.83422 5.89677C7.78205 5.94968 7.7592 5.98581 7.81211 6.03957C7.86502 6.09323 7.86967 6.11731 7.82946 6.15817C7.78925 6.19903 7.78523 6.23516 7.82946 6.28C7.86343 6.31452 7.86576 6.33462 7.86576 6.39548C7.86576 6.7628 7.86576 7.76344 7.86576 8.03925C7.86576 8.31505 8.06142 8.48183 8.4339 8.48183C8.80639 8.48183 8.93263 8.32785 9.03994 8.22527C8.97052 8.71914 8.76851 9.16183 8.28237 9.16183Z" fill="#514537"/>
<path fill-rule="evenodd" clip-rule="evenodd" d="M9.36916 7.58828C9.42122 7.60419 9.4717 7.68118 9.4717 7.76462H9.57434C9.57434 7.69409 9.54429 7.58505 9.4899 7.51764C9.48905 7.5 9.48673 7.48484 9.48281 7.46957C9.52069 7.4214 9.57593 7.34441 9.57434 7.27065C9.57329 7.22409 9.51911 7.22581 9.51276 7.26269C9.50757 7.29301 9.48757 7.33968 9.44969 7.3557C9.44969 7.29634 9.41646 7.22581 9.36916 7.22581C9.32186 7.22581 9.28863 7.29634 9.28863 7.3557C9.25075 7.33968 9.23075 7.29301 9.22556 7.26269C9.21921 7.22581 9.16493 7.22409 9.16397 7.27065C9.16239 7.34441 9.21762 7.4214 9.25551 7.46957C9.25159 7.48484 9.24926 7.5 9.24842 7.51764C9.19403 7.58505 9.16397 7.69409 9.16397 7.76462H9.26662C9.26662 7.68118 9.3171 7.60419 9.36916 7.58828Z" fill="#514537"/>
<path fill-rule="evenodd" clip-rule="evenodd" d="M8.84011 7.58828C8.89217 7.60419 8.94275 7.68118 8.94275 7.76462H9.04529C9.04529 7.69409 9.01534 7.58505 8.96085 7.51764C8.96011 7.5 8.95767 7.48484 8.95376 7.46957C8.99164 7.4214 9.04688 7.34441 9.04529 7.27065C9.04434 7.22409 8.99005 7.22581 8.9837 7.26269C8.97852 7.29301 8.95841 7.33968 8.92064 7.3557C8.92064 7.29634 8.88751 7.22581 8.84011 7.22581C8.7928 7.22581 8.75968 7.29634 8.75968 7.3557C8.7218 7.33968 8.70169 7.29301 8.69651 7.26269C8.69016 7.22581 8.63598 7.22409 8.63492 7.27065C8.63333 7.34441 8.68857 7.4214 8.72646 7.46957C8.72254 7.48484 8.72021 7.5 8.71937 7.51764C8.66497 7.58505 8.63492 7.69409 8.63492 7.76462H8.73757C8.73757 7.68118 8.78804 7.60419 8.84011 7.58828Z" fill="#514537"/>
<path fill-rule="evenodd" clip-rule="evenodd" d="M8.31105 7.58828C8.36312 7.60419 8.41359 7.68118 8.41359 7.76462H8.51624C8.51624 7.69409 8.48619 7.58505 8.43179 7.51764C8.43095 7.5 8.42862 7.48484 8.4247 7.46957C8.46259 7.4214 8.51783 7.34441 8.51624 7.27065C8.51518 7.22409 8.461 7.22581 8.45465 7.26269C8.44947 7.29301 8.42936 7.33968 8.39148 7.3557C8.39148 7.29634 8.35836 7.22581 8.31105 7.22581C8.26365 7.22581 8.23052 7.29634 8.23052 7.3557C8.19264 7.33968 8.17264 7.29301 8.16746 7.26269C8.16111 7.22581 8.10682 7.22409 8.10587 7.27065C8.10428 7.34441 8.15952 7.4214 8.1974 7.46957C8.19349 7.48484 8.19105 7.5 8.19031 7.51764C8.13582 7.58505 8.10587 7.69409 8.10587 7.76462H8.20841C8.20841 7.68118 8.25899 7.60419 8.31105 7.58828Z" fill="#514537"/>
<path fill-rule="evenodd" clip-rule="evenodd" d="M9.89833 7.58828C9.84627 7.60419 9.79579 7.68118 9.79579 7.76462H9.69315C9.69315 7.69409 9.7231 7.58505 9.77759 7.51764C9.77833 7.5 9.78077 7.48484 9.78479 7.46957C9.7468 7.4214 9.69156 7.34441 9.69315 7.27065C9.69421 7.22409 9.74839 7.22581 9.75474 7.26269C9.75992 7.29301 9.78003 7.33968 9.8178 7.3557C9.8178 7.29634 9.85103 7.22581 9.89833 7.22581C9.94574 7.22581 9.97886 7.29634 9.97886 7.3557C10.0166 7.33968 10.0367 7.29301 10.0419 7.26269C10.0483 7.22581 10.1025 7.22409 10.1035 7.27065C10.1051 7.34441 10.0499 7.4214 10.012 7.46957C10.0159 7.48484 10.0183 7.5 10.0191 7.51764C10.0736 7.58505 10.1035 7.69409 10.1035 7.76462H10.0009C10.0009 7.68118 9.9504 7.60419 9.89833 7.58828Z" fill="#514537"/>
<path fill-rule="evenodd" clip-rule="evenodd" d="M8 7.87097H10.7776V8.0043H8V7.87097Z" fill="#514537"/>
<path fill-rule="evenodd" clip-rule="evenodd" d="M10.4507 9.16183C10.8358 9.16183 11.2398 8.82183 11.2398 8.17398C11.2398 7.52602 11.2398 6.7114 11.2398 6.56387C11.2398 6.41796 11.2236 6.39742 11.2571 6.36344C11.2768 6.34344 11.235 6.31376 11.2067 6.28484C11.164 6.24151 11.1348 6.20548 11.1924 6.14688C11.25 6.08839 11.2255 6.07312 11.1893 6.03634C11.1529 5.99936 11.1387 5.96258 11.1734 5.9272C11.2081 5.89194 11.2161 5.88075 11.1782 5.84226C11.1403 5.80376 11.1561 5.78774 11.1876 5.75559C11.2193 5.72355 11.2342 5.70032 11.194 5.65946C11.1545 5.61936 11.1514 5.6129 11.1056 5.6129C11.0598 5.6129 10.9604 5.6129 10.9162 5.6129C10.8721 5.6129 10.8712 5.62656 10.9084 5.6643C10.9565 5.71312 10.9707 5.73237 10.9162 5.78774C10.8618 5.84301 10.8641 5.86151 10.8988 5.89677C10.951 5.94968 10.9738 5.98581 10.9209 6.03957C10.868 6.09323 10.8633 6.11731 10.9036 6.15817C10.9438 6.19903 10.9478 6.23516 10.9036 6.28C10.8696 6.31452 10.8673 6.33462 10.8673 6.39548C10.8673 6.7628 10.8673 7.76344 10.8673 8.03925C10.8673 8.31505 10.6715 8.48183 10.2991 8.48183C9.92666 8.48183 9.80052 8.32785 9.69312 8.22527C9.76253 8.71914 9.96454 9.16183 10.4507 9.16183Z" fill="#514537"/>
<path fill-rule="evenodd" clip-rule="evenodd" d="M8 7.00763C8 7.00763 8.00011 6.91301 8.00011 6.7957L8.55534 7.00774L8 7.00763Z" fill="#EEA339"/>
<path fill-rule="evenodd" clip-rule="evenodd" d="M7.33765 7.10613L6.09521 6.93591C6.1313 6.66538 6.19955 6.40161 6.29775 6.15054L7.33765 6.57V7.10613Z" fill="#EEA339"/>
<path fill-rule="evenodd" clip-rule="evenodd" d="M7.36695 7.19634L6.10135 7.11828C6.08505 7.38796 6.10124 7.66011 6.14992 7.9286C6.14992 7.9286 7.36695 7.93634 7.36695 7.9286V7.19634Z" fill="#EEA339"/>
<path fill-rule="evenodd" clip-rule="evenodd" d="M7.35441 6.32893C7.31346 6.27441 7.33875 6.24538 7.38288 6.21645C7.42711 6.18764 7.42076 6.16516 7.39875 6.12355C7.37664 6.08183 7.35452 6.03688 7.39558 5.99204C7.43664 5.9471 7.42076 5.92785 7.38923 5.89581C7.35769 5.86376 7.35452 5.8285 7.38288 5.8028C7.41134 5.7771 7.40499 5.75785 7.38616 5.73226C7.36711 5.70656 7.32997 5.65452 7.3632 5.62086L6.8469 5.1828C6.67632 5.39011 6.53029 5.61893 6.41272 5.8643L7.35441 6.32893Z" fill="#EEA339"/>
<path fill-rule="evenodd" clip-rule="evenodd" d="M8.59131 6.56774L7.97597 5.9614C8.06274 5.87323 8.07142 5.85882 8.00994 5.79624C7.94285 5.72806 7.94041 5.72097 8.07692 5.58215C8.12348 5.53495 8.09745 5.50193 8.03121 5.50193C7.96496 5.50193 7.66031 5.50193 7.6256 5.50193C7.59089 5.50193 7.56359 5.50376 7.53819 5.52957L7.04761 5.04699C7.2348 4.85118 7.4439 4.68032 7.66972 4.53763L8.59131 6.04355V6.56774Z" fill="#EEA339"/>
<path fill-rule="evenodd" clip-rule="evenodd" d="M7.95133 6.66C7.95133 6.50935 7.95143 6.36021 7.95143 6.33903C7.95143 6.29409 7.94826 6.27645 7.91355 6.24118C7.87884 6.20591 7.89619 6.18903 7.92307 6.15054L8.50678 6.64462V6.93473L7.95133 6.66Z" fill="#EEA339"/>
<path fill-rule="evenodd" clip-rule="evenodd" d="M8.49807 5.77968C8.49807 5.49032 8.49807 5.22269 8.49807 5.06849C8.49807 4.60667 8.52357 4.3757 8.58981 4.32925L8.5368 4.10753C8.27764 4.17839 8.02643 4.2743 7.78833 4.40075L8.49807 5.77968Z" fill="#EEA339"/>
<path fill-rule="evenodd" clip-rule="evenodd" d="M7.57666 6.36559C7.59878 6.38806 7.6083 6.41043 7.6083 6.46495C7.6083 6.51946 7.6083 7.71258 7.6083 8.18086C7.6083 8.75172 7.94915 9.06925 8.29952 9.06925C8.62142 9.06925 8.83296 8.77097 8.94343 8.42462C8.80142 8.53688 8.59306 8.57215 8.39412 8.57215C8.16375 8.57215 7.79137 8.41505 7.79137 8.07505C7.79137 7.76075 7.79137 6.59645 7.79137 6.41043C7.79137 6.36559 7.74714 6.36559 7.57666 6.36559Z" fill="#D82332"/>
<path fill-rule="evenodd" clip-rule="evenodd" d="M9.5896 4.11737C9.14949 4.0721 8.74124 4.16511 8.74124 4.77522C8.74124 5.41673 8.74124 6.1992 8.74124 6.39619C8.74124 6.66683 8.72028 6.63468 8.946 6.69157C9.35552 6.79479 9.40198 6.80791 9.8987 6.92318V5.27393C9.47457 5.22673 9.29076 4.94447 9.29076 4.63189C9.29076 4.38318 9.39891 4.14909 9.5896 4.11737Z" fill="#D82332"/>
<path fill-rule="evenodd" clip-rule="evenodd" d="M11.1657 6.36559C11.1436 6.38806 11.1341 6.41043 11.1341 6.46495C11.1341 6.51946 11.1341 7.71258 11.1341 8.18086C11.1341 8.75172 10.7932 9.06925 10.4429 9.06925C10.121 9.06925 9.90943 8.77097 9.79895 8.42462C9.94107 8.53688 10.1493 8.57215 10.3483 8.57215C10.5786 8.57215 10.951 8.41505 10.951 8.07505C10.951 7.76075 10.951 6.59645 10.951 6.41043C10.951 6.36559 10.9952 6.36559 11.1657 6.36559Z" fill="#D82332"/>
</g>
</g>
</g>
<defs>
<clipPath id="clip0_41818_3489">
<rect width="16" height="12" fill="white"/>
</clipPath>
<clipPath id="clip1_41818_3489">
<rect width="3.80952" height="4" fill="white" transform="translate(6.09521 4)"/>
</clipPath>
<clipPath id="clip2_41818_3489">
<rect width="3.80952" height="4" fill="white" transform="translate(6.09521 4)"/>
</clipPath>
</defs>
</svg>
