<svg xmlns="http://www.w3.org/2000/svg" width="16" height="12" fill="none" viewBox="0 0 16 12"><g clip-path="url(#a)"><rect width="16" height="12" fill="#fff" rx="2"/><mask id="b" width="16" height="12" x="0" y="0" maskUnits="userSpaceOnUse" style="mask-type:luminance"><rect width="16" height="12" fill="#fff" rx="2"/></mask><g mask="url(#b)"><path fill="#146bbc" fill-rule="evenodd" d="M5.3334 12h5.3333V0H5.3334z" clip-rule="evenodd"/><path fill="#e43642" fill-rule="evenodd" d="M0 12h5.333V0H0zm10.667 0H16V0h-5.333z" clip-rule="evenodd"/><path fill="url(#c)" d="M2.2858 9.5996H1.524V7.2002h.7618zm.3808 0-.3808-.7998h.7617zm1.1426 0h-.7617V7.2002h.7617zM2.6666 8c.2104 0 .3809.1795.3809.4004-.0002.2207-.1706.3994-.3809.3994-.2102 0-.3806-.1787-.3808-.3994 0-.221.1704-.4004.3808-.4004m0 0-.3808-.7998h.7617zm0-1.5996c.2104 0 .3808.1786.3809.3994 0 .221-.1705.4004-.3809.4004s-.3808-.1795-.3808-.4004.1705-.3994.3808-.3994m.3809 0h-.7617L2.6666 6z"/></g></g><defs><linearGradient id="c" x1="2" x2="2" y1="6" y2="10" gradientUnits="userSpaceOnUse"><stop stop-color="#f8d246"/><stop offset="1" stop-color="#f9ce2f"/></linearGradient><clipPath id="a"><path fill="#fff" d="M0 0h16v12H0z"/></clipPath></defs></svg>