<svg xmlns="http://www.w3.org/2000/svg" width="16" height="12" fill="none" viewBox="0 0 16 12"><g clip-path="url(#a)"><rect width="16" height="12" fill="#fff" stroke="#f5f5f5" rx="2"/><mask id="b" width="16" height="12" x="0" y="0" maskUnits="userSpaceOnUse" style="mask-type:luminance"><rect width="16" height="12" fill="#fff" stroke="#fff" rx="2"/></mask><g fill="#e3243b" mask="url(#b)"><path d="m-3.6066-1.5497.874-1.3106 23.0923 16.9779-.874 1.3106z"/><path d="m20.3597-1.5497-.874-1.3106-23.0922 16.9779.874 1.3106z"/></g><g clip-path="url(#c)"><path fill="#faef32" d="m8.722 1.3459.6465-.0908-.4746.3447H7.8431l-.4746-.3447.6465.0908-.0908-.546.4443.4552L8.813.8z"/><path fill="#e3243b" fill-rule="evenodd" d="M7.2382 3.1v-.7a.8.8 0 0 1 .8-.8h.6857a.8.8 0 0 1 .8.8v.7c0 1.0714-1.1429 1.5-1.1429 1.5s-1.1428-.4286-1.1428-1.5" clip-rule="evenodd"/></g></g><defs><clipPath id="a"><path fill="#fff" d="M0 0h16v12H0z"/></clipPath><clipPath id="c"><path fill="#fff" d="M6.8572.8h3.0476v4H6.8572z"/></clipPath></defs></svg>