<svg xmlns="http://www.w3.org/2000/svg" width="16" height="12" fill="none" viewBox="0 0 16 12"><g clip-path="url(#a)"><rect width="16" height="12" fill="#fff" rx="1"/><rect width="16" height="12" fill="#fff" rx="1"/><path fill="red" d="M6.8708 0h2.2583v12H6.8708z"/><path fill="red" d="M16 4.871v2.258H0V4.871zM3.637 2.024a4.9 4.9 0 0 0-.058.513 4.9 4.9 0 0 0 .514-.057l.357-.061a1.76 1.76 0 0 0 0 .815l-.357-.059a4.9 4.9 0 0 0-.514-.058c.01.172.029.344.058.514l.061.357a1.76 1.76 0 0 0-.815 0l.06-.357A4.9 4.9 0 0 0 3 3.117a4.9 4.9 0 0 0-.512.058l-.358.06c.064-.268.064-.547 0-.815l.358.061c.17.028.341.046.512.057a4.9 4.9 0 0 0-.057-.513l-.06-.357c.268.064.548.064.816 0zm9.421 0a4.9 4.9 0 0 0-.058.513 4.9 4.9 0 0 0 .513-.057l.358-.061a1.76 1.76 0 0 0 0 .815l-.358-.059A4.9 4.9 0 0 0 13 3.117a4.9 4.9 0 0 0 .058.514l.06.357a1.76 1.76 0 0 0-.815 0l.061-.357a4.9 4.9 0 0 0 .057-.514 4.9 4.9 0 0 0-.513.058l-.357.06a1.76 1.76 0 0 0 0-.815l.357.061c.17.028.341.046.513.057a4.8 4.8 0 0 0-.057-.513l-.061-.357c.268.064.548.064.816 0zM3.637 8.369a4.9 4.9 0 0 0-.058.513 4.9 4.9 0 0 0 .514-.057l.357-.06a1.76 1.76 0 0 0 0 .815l-.357-.06a4.9 4.9 0 0 0-.514-.058c.01.172.029.343.058.514l.061.357a1.76 1.76 0 0 0-.815 0l.06-.357A4.9 4.9 0 0 0 3 9.462a4.9 4.9 0 0 0-.512.058l-.358.06a1.756 1.756 0 0 0 0-.814l.358.06c.17.028.341.046.512.057a4.9 4.9 0 0 0-.057-.513l-.06-.357c.268.064.548.064.816 0zm9.421 0a4.9 4.9 0 0 0-.058.513 4.9 4.9 0 0 0 .513-.057l.358-.06a1.754 1.754 0 0 0 0 .815l-.358-.06A4.9 4.9 0 0 0 13 9.462a4.9 4.9 0 0 0 .058.514l.06.357a1.76 1.76 0 0 0-.815 0l.061-.357a4.9 4.9 0 0 0 .057-.514 4.9 4.9 0 0 0-.513.058l-.357.06a1.76 1.76 0 0 0 0-.814l.357.06c.17.029.341.046.513.057a4.8 4.8 0 0 0-.057-.513l-.061-.357c.268.064.548.064.816 0z"/></g><defs><clipPath id="a"><rect width="16" height="12" fill="#fff" rx="1"/></clipPath></defs></svg>