<svg xmlns="http://www.w3.org/2000/svg" width="16" height="12" fill="none" viewBox="0 0 16 12"><g clip-path="url(#a)"><rect width="16" height="12" fill="#fff" rx="2"/><mask id="b" width="16" height="12" x="0" y="0" maskUnits="userSpaceOnUse" style="mask-type:luminance"><rect width="16" height="12" fill="#fff" rx="2"/></mask><g mask="url(#b)"><path fill="url(#c)" d="M0 0h16v12H0z"/><path fill="#fff" d="M11.265 10.5465a.333.333 0 0 1-.4824 0l-.1397-.1464h.7618zm-.7734-8.9462a.261.261 0 0 1 .2265.1318l1.0674 1.8682 1.4727 2.3183a.335.335 0 0 1 .0517.1787v1.4063a.334.334 0 0 1-.0517.1777l-1.374 2.164a.333.333 0 0 1-.2813.1544h-1.2158a.334.334 0 0 1-.2197-.082l-2.0967-1.835a.334.334 0 0 0-.2198-.083H6.5347a.334.334 0 0 0-.1543.038L4.39 9.0828a.334.334 0 0 1-.3965-.0645l-.497-.5215a.335.335 0 0 1-.0918-.2304v-.9698a.335.335 0 0 0-.0518-.1787l-.6113-.9619a.334.334 0 0 1-.0196-.3223l.6348-1.333a.336.336 0 0 1 .1465-.1523l1.3916-.7305a.34.34 0 0 1 .0703-.0273l1.42-.373a.34.34 0 0 0 .122-.0606l1.379-1.085a.334.334 0 0 1 .206-.0722h.0547a.334.334 0 0 1 .3007.1904l.2002.42a.334.334 0 0 0 .3008.1904h.7217A.335.335 0 0 0 9.972 2.61l.2363-.496a.184.184 0 0 0-.0332-.2052c-.1107-.1164-.0279-.3086.1328-.3086z"/></g></g><defs><linearGradient id="c" x1="0" x2="0" y1="0" y2="12" gradientUnits="userSpaceOnUse"><stop stop-color="#19bfbf"/><stop offset="1" stop-color="#10acac"/></linearGradient><clipPath id="a"><path fill="#fff" d="M0 0h16v12H0z"/></clipPath></defs></svg>