<svg xmlns="http://www.w3.org/2000/svg" width="16" height="12" fill="none" viewBox="0 0 16 12"><g clip-path="url(#a)"><mask id="b" width="16" height="12" x="0" y="0" maskUnits="userSpaceOnUse" style="mask-type:luminance"><rect width="16" height="12" fill="#fff" rx="2"/></mask><g mask="url(#b)"><path fill="#20aa46" fill-rule="evenodd" d="M0 4h16V0H0z" clip-rule="evenodd"/><path fill="#e92f3b" fill-rule="evenodd" d="M0 12h16V8H0z" clip-rule="evenodd"/><path fill="#fadf50" fill-rule="evenodd" d="M0 8h16V4H0z" clip-rule="evenodd"/><circle cx="8" cy="6" r="3" fill="#205cca"/><mask id="c" fill="#fff"><path fill-rule="evenodd" d="m8.0932 6.7632-1.1195.8072.413-1.3263-1.105-.8275 1.3749-.0125.4366-1.3186L8.53 5.404l1.3749.0125-1.105.8275.413 1.3263z" clip-rule="evenodd"/></mask><path stroke="#ffdb3d" d="m8.0932 6.7632-1.1195.8072.413-1.3263-1.105-.8275 1.3749-.0125.4366-1.3186L8.53 5.404l1.3749.0125-1.105.8275.413 1.3263z" clip-rule="evenodd" mask="url(#c)"/></g></g><defs><clipPath id="a"><path fill="#fff" d="M0 0h16v12H0z"/></clipPath></defs></svg>