<svg width="16" height="12" viewBox="0 0 16 12" fill="none" xmlns="http://www.w3.org/2000/svg">
<g clip-path="url(#clip0_41816_3051)">
<rect x="0.25" y="0.25" width="15.5" height="11.5" rx="1.75" fill="white" stroke="#F5F5F5" stroke-width="0.5"/>
<mask id="mask0_41816_3051" style="mask-type:luminance" maskUnits="userSpaceOnUse" x="0" y="0" width="16" height="12">
<rect x="0.25" y="0.25" width="15.5" height="11.5" rx="1.75" fill="white" stroke="white" stroke-width="0.5"/>
</mask>
<g mask="url(#mask0_41816_3051)">
<path fill-rule="evenodd" clip-rule="evenodd" d="M0 3.2H16V0H0V3.2Z" fill="#F03340"/>
<path fill-rule="evenodd" clip-rule="evenodd" d="M0 12H16V8.8H0V12Z" fill="#F03340"/>
<path fill-rule="evenodd" clip-rule="evenodd" d="M7.39815 7.43188C7.52182 7.30203 7.52182 7.09797 7.39815 6.96812L7.35691 6.92481C7.28358 6.84781 7.17418 6.81676 7.07133 6.84376L6.88628 6.89234C6.62177 6.96177 6.45139 6.61949 6.66623 6.4503L6.86476 6.29396C6.98752 6.19729 6.91916 6 6.76291 6C6.59096 6 6.53414 5.76955 6.68639 5.68962L7.02779 5.51038C7.18004 5.43045 7.12322 5.2 6.95127 5.2C6.79502 5.2 6.72666 5.00271 6.84942 4.90604L7.6733 4.25724C7.86492 4.10633 8.13497 4.10633 8.3266 4.25724L9.15048 4.90604C9.27323 5.00271 9.20487 5.2 9.04863 5.2C8.87667 5.2 8.81985 5.43045 8.9721 5.51038L9.31351 5.68962C9.46576 5.76955 9.40894 6 9.23698 6C9.08074 6 9.01238 6.19729 9.13513 6.29396L9.33366 6.4503C9.54851 6.61949 9.37812 6.96177 9.11361 6.89234L8.92857 6.84376C8.82571 6.81676 8.71632 6.84781 8.64298 6.92481L8.60174 6.96812C8.47807 7.09797 8.47807 7.30203 8.60174 7.43188C8.80561 7.64595 8.65388 8 8.35826 8H7.64163C7.34602 8 7.19428 7.64595 7.39815 7.43188Z" fill="#1FC065"/>
</g>
</g>
<defs>
<clipPath id="clip0_41816_3051">
<rect width="16" height="12" fill="white"/>
</clipPath>
</defs>
</svg>
