<svg xmlns="http://www.w3.org/2000/svg" width="16" height="12" fill="none" viewBox="0 0 16 12"><g clip-path="url(#a)"><mask id="b" width="16" height="12" x="0" y="0" maskUnits="userSpaceOnUse" style="mask-type:luminance"><rect width="16" height="12" fill="#fff" rx="2"/></mask><g mask="url(#b)"><path fill="#dd172c" fill-rule="evenodd" d="M0 3.2h16V0H0zM0 12h16V8.8H0z" clip-rule="evenodd"/><path fill="#ffd133" fill-rule="evenodd" d="M0 8.8h16V3.2H0z" clip-rule="evenodd"/><path fill="#ffedb1" fill-rule="evenodd" d="M4.1904 5.6h.762v.5172h-.762z" clip-rule="evenodd"/><mask id="c" fill="#fff"><path fill-rule="evenodd" d="M3.2951 5.9194A.6667.6667 0 0 1 3.9597 5.2h.4614c.389 0 .6954.3317.6646.7194l-.0731.9211a.8248.8248 0 0 1-1.6444 0z" clip-rule="evenodd"/></mask><path stroke="#a41517" d="M3.2951 5.9194A.6667.6667 0 0 1 3.9597 5.2h.4614c.389 0 .6954.3317.6646.7194l-.0731.9211a.8248.8248 0 0 1-1.6444 0z" clip-rule="evenodd" mask="url(#c)"/><path fill="#a41517" fill-rule="evenodd" d="M3.5413 6.0888h1.2984v.3408h-.3246l-.3246.6817-.3246-.6817h-.3246z" clip-rule="evenodd"/><rect width="1" height="3" x="2" y="5" fill="#a41517" rx="0"/><rect width="1" height="3" x="5" y="5" fill="#a41517" rx="0"/><path fill="#a41517" d="M3.4286 4.64a.64.64 0 0 1 .64-.64h.2438a.64.64 0 0 1 .64.64.16.16 0 0 1-.16.16H3.5886a.16.16 0 0 1-.16-.16"/></g></g><defs><clipPath id="a"><path fill="#fff" d="M0 0h16v12H0z"/></clipPath></defs></svg>