<svg xmlns="http://www.w3.org/2000/svg" width="16" height="12" fill="none" viewBox="0 0 16 12"><g clip-path="url(#a)"><rect width="16" height="12" fill="#fff" stroke="#f5f5f5" rx="2"/><mask id="b" width="16" height="12" x="0" y="0" maskUnits="userSpaceOnUse" style="mask-type:luminance"><rect width="16" height="12" fill="#fff" stroke="#fff" rx="2"/></mask><g mask="url(#b)"><path fill="#04aac8" fill-rule="evenodd" d="M0 4h16V0H0z" clip-rule="evenodd"/><path fill="#23c840" fill-rule="evenodd" d="M0 12h16V8H0z" clip-rule="evenodd"/><path fill="#fff" d="M2.6666.8001c.2354 0 .454.075.6358.2031a1 1 0 0 0-.0645-.0029c-.526.0001-.9521.4478-.9521 1 .0001.5521.4263 1 .9521 1 .022 0 .0438-.0033.0654-.0049a1.1 1.1 0 0 1-.6367.2041c-.631 0-1.1424-.5366-1.1425-1.1992S2.0353.8001 2.6666.8001m1.5235 1.5996c.2104 0 .3808.1795.3808.4004s-.1705.3994-.3808.3994c-.2102-.0002-.3808-.1787-.3809-.3994 0-.2208.1706-.4001.3809-.4004m1.5244 0c.2103.0002.3808.1796.3808.4004s-.1706.3993-.3808.3994c-.2104 0-.3808-.1785-.3809-.3994s.1705-.4004.3809-.4004m1.5234 0c.2104 0 .3809.1795.3809.4004s-.1705.3994-.3809.3994c-.2103 0-.3808-.1786-.3808-.3994s.1705-.4003.3808-.4004M5.7145.8001c.2101.0002.3806.1788.3808.3994 0 .2209-.1705.4003-.3808.4004s-.3809-.1795-.3809-.4004c.0003-.2207.1706-.3994.3809-.3994m1.5234 0c.2103 0 .3806.1787.3809.3994 0 .221-.1705.4004-.3809.4004-.2103 0-.3808-.1795-.3808-.4004.0002-.2206.1706-.3993.3808-.3994"/></g></g><defs><clipPath id="a"><path fill="#fff" d="M0 0h16v12H0z"/></clipPath></defs></svg>