<svg width="16" height="12" viewBox="0 0 16 12" fill="none" xmlns="http://www.w3.org/2000/svg">
<g clip-path="url(#clip0_41818_3255)">
<rect width="16" height="12" rx="2" fill="white"/>
<mask id="mask0_41818_3255" style="mask-type:luminance" maskUnits="userSpaceOnUse" x="0" y="0" width="16" height="12">
<rect width="16" height="12" rx="2" fill="white"/>
</mask>
<g mask="url(#mask0_41818_3255)">
<path d="M16 12H0V11.2002H16V12ZM16 10.4004H0V9.59961H16V10.4004ZM16 8.7998H0V8H16V8.7998ZM16 7.2002H0V6.40039H16V7.2002ZM16 5.59961H7.61914V4.7998H16V5.59961ZM16 4H7.61914V3.2002H16V4ZM16 2.40039H7.61914V1.59961H16V2.40039ZM16 0.799805H7.61914V0H16V0.799805Z" fill="#E1244A"/>
<rect width="9.14286" height="6.4" fill="#0C3F8E"/>
<path d="M3.76831 0.977585C4.3089 0.977585 4.80471 1.16124 5.19604 1.46587C4.98864 1.39066 4.76445 1.3477 4.53003 1.3477C3.47842 1.34795 2.62597 2.17528 2.62573 3.19633C2.62573 4.21758 3.47827 5.0457 4.53003 5.04594C4.76532 5.04594 4.98995 5.00157 5.198 4.92583C4.80635 5.23143 4.30986 5.41606 3.76831 5.41606C2.50607 5.41592 1.48315 4.42192 1.48315 3.19633C1.48338 1.97093 2.50621 0.977731 3.76831 0.977585ZM6.32495 2.65044L7.24585 2.27446L6.66382 3.06157L7.53979 3.52641L6.54272 3.57524L6.71558 4.52934L6.05444 3.80376L5.39331 4.52934L5.56616 3.57524L4.56909 3.52641L5.44507 3.06157L4.86304 2.27446L5.78296 2.65044L6.05444 1.71684L6.32495 2.65044Z" fill="#FFD34F"/>
</g>
</g>
<defs>
<clipPath id="clip0_41818_3255">
<rect width="16" height="12" fill="white"/>
</clipPath>
</defs>
</svg>
