<svg xmlns="http://www.w3.org/2000/svg" width="16" height="12" fill="none" viewBox="0 0 16 12"><g clip-path="url(#a)"><mask id="b" width="16" height="12" x="0" y="0" maskUnits="userSpaceOnUse" style="mask-type:luminance"><rect width="16" height="12" fill="#fff" rx="2"/></mask><g mask="url(#b)"><path fill="#ee343c" d="M0 0h16v12H0z"/><path fill="#262626" fill-rule="evenodd" d="M7.1878 2.7473a.5576.5576 0 0 0-.7236-.0723c-.3422.2396-.3092.7564.0606.9506l.4464.2343a.4986.4986 0 0 1-.2318.9401h-.1126a.61.61 0 0 1-.284-.07l-1.0354-.5436a.531.531 0 0 0-.6316.104c-.2433.2555-.1746.6728.1377.8368l.3873.2033c.2343.123.2551.4503.0384.602-.2533.1774-.1726.5715.13.635l.2986.0628c.3205.0673.4167.4781.1595.6807l-.302.2378C5.3369 7.6972 5.4418 8 5.6816 8a.25.25 0 0 0 .0642-.0083l.6903-.1812c.2862-.0751.5162.2396.3576.4894-.1377.2168.018.5001.2748.5001h.3132a.324.324 0 0 1 .3091.2262c.0958.3016.5225.3016.6183 0A.324.324 0 0 1 8.6182 8.8h.3132c.2568 0 .4125-.2833.2749-.5-.1587-.2499.0713-.5646.3575-.4895l.6903.1812A.25.25 0 0 0 10.3183 8c.2398 0 .3447-.3028.1563-.4512l-.3019-.2378c-.2573-.2026-.1611-.6134.1594-.6807l.2987-.0627c.3025-.0636.3832-.4577.1299-.635-.2167-.1518-.1959-.4791.0384-.6021l.3873-.2033c.3123-.164.381-.5813.1377-.8368a.531.531 0 0 0-.6316-.104L9.6572 4.73a.61.61 0 0 1-.2841.07h-.1126a.4986.4986 0 0 1-.2318-.94l.4464-.2344c.3699-.1942.4028-.711.0606-.9506a.5576.5576 0 0 0-.7236.0723l-.3294.3458a.6667.6667 0 0 1-.9655 0z" clip-rule="evenodd"/></g></g><defs><clipPath id="a"><rect width="16" height="12" fill="#fff" rx="2"/></clipPath></defs></svg>