<svg xmlns="http://www.w3.org/2000/svg" width="16" height="12" fill="none" viewBox="0 0 16 12"><g clip-path="url(#a)"><rect width="16" height="12" fill="#fff" rx="2"/><mask id="b" width="16" height="12" x="0" y="0" maskUnits="userSpaceOnUse" style="mask-type:luminance"><rect width="16" height="12" fill="#fff" rx="2"/></mask><g mask="url(#b)"><path fill="#e92434" d="M0 0h16v12H0z"/><path fill="#fff" fill-rule="evenodd" d="m10.8691 6.461-.6999.891.0476-1.1539-1.0233-.4236 1.0599-.309.0675-1.1527.6073.963 1.065-.289-.6845.9041.5908.9743z" clip-rule="evenodd"/><path fill="#fff" d="M7.238 2.4004c1.1026 0 2.0837.5463 2.7108 1.3955a2.88 2.88 0 0 0-1.7587-.5957C6.6123 3.2004 5.3336 4.4537 5.3336 6s1.2787 2.7996 2.8565 2.7998c.664 0 1.2736-.2243 1.7588-.5967-.6272.8496-1.608 1.3965-2.711 1.3965-1.8935 0-3.4287-1.6114-3.4287-3.5996s1.5352-3.5995 3.4287-3.5996"/></g></g><defs><clipPath id="a"><path fill="#fff" d="M0 0h16v12H0z"/></clipPath></defs></svg>