<svg xmlns="http://www.w3.org/2000/svg" width="16" height="12" fill="none" viewBox="0 0 16 12"><g clip-path="url(#a)"><rect width="16" height="12" fill="#fff" rx="2"/><mask id="b" width="16" height="12" x="0" y="0" maskUnits="userSpaceOnUse" style="mask-type:luminance"><rect width="16" height="12" fill="#fff" rx="2"/></mask><g mask="url(#b)"><path fill="#19bfbf" d="M0 0h16v12H0z"/><path fill="#fff" d="M10.5192 1.4832a.334.334 0 0 1 .2968.1817l.252.4912a.34.34 0 0 1 .0361.1523v.8965a.335.335 0 0 0 .1006.2383l.1299.128a.334.334 0 0 1 .083.3456l-.2295.6729a.334.334 0 0 0 .1328.3867l.9258.6035.416.2031a.3338.3338 0 0 1 .1289.4873l-.4863.7149a.334.334 0 0 0-.0586.1875v.7724a.335.335 0 0 1-.2295.3174l-.7822.2549a.333.333 0 0 0-.1934.165l-.2939.5743a.34.34 0 0 1-.0635.0859l-.4902.4795a.334.334 0 0 1-.4659 0l-.4716-.462a.34.34 0 0 1-.083-.1308l-.3116-.913a.191.191 0 0 0-.1797-.129.19.19 0 0 0-.1835.2373L8.771 9.491a.334.334 0 0 1-.0898.3203l-.0108.0108a.334.334 0 0 1-.4658 0l-.0478-.0469a.335.335 0 0 1-.1006-.2383v-.5244a.335.335 0 0 0-.0362-.1513l-.252-.4922a.335.335 0 0 0-.2968-.1817H6.61a.335.335 0 0 0-.1465.0342l-.5684.2773a.334.334 0 0 0-.1689.1924l-.292.8555a.335.335 0 0 1-.169.1914l-.4912.2402a.334.334 0 0 1-.292 0l-.4287-.21a.335.335 0 0 1-.1884-.2988v-.9492c.0002-.1839.151-.333.335-.333h.4755a.3346.3346 0 0 0 .334-.333V7.498c0-.0365.0059-.073.0176-.1075l.2861-.8398a.333.333 0 0 1 .3154-.2256h.4463a.335.335 0 0 0 .1465-.0342l.623-.3046a.334.334 0 0 1 .1465-.0333h.4229a.263.263 0 0 0 .2617-.2626.263.263 0 0 1 .0791-.1875l.0117-.0108a.2994.2994 0 0 1 .4756.0781l.1026.2012a.335.335 0 0 0 .2968.1816h.7002a.336.336 0 0 0 .3164-.2265l.2266-.665a.334.334 0 0 1 .3154-.2266h.3369a.187.187 0 0 0 .1866-.1856.187.187 0 0 0-.1866-.1865h-.2421a.3335.3335 0 0 1-.333-.333v-.332a.334.334 0 0 1 .036-.1514l.2403-.4697a.3108.3108 0 0 0-.4941-.3633l-.4444.4336a.333.333 0 0 0-.0996.2383v.5498a.34.34 0 0 1-.0185.1074l-.2862.8398a.3345.3345 0 0 1-.3154.2256h-.0059a.336.336 0 0 1-.2333-.0947l-.2286-.2236a.186.186 0 0 1-.0556-.1319.1838.1838 0 0 0-.2647-.165l-.2861.1396a.334.334 0 0 1-.379-.0615l-.1122-.1103a.335.335 0 0 1-.1006-.2383v-.4639a.334.334 0 0 1 .1006-.2383l.6611-.6474L8.7624 1.91a.34.34 0 0 1 .1298-.0791l1.0186-.331a.34.34 0 0 1 .1035-.0167zM6.5328 8.9324c.21.0003.3807.1667.3809.3721-.0002.2054-.1708.3728-.3809.373-.2102 0-.3806-.1675-.3808-.373.0002-.2056.1706-.372.3808-.372m-.6845-5.4736a.2953.2953 0 0 1 .2949.295v.83c0 .0494.011.098.0322.1426l.1211.2558c.1053.2212-.0558.4766-.3008.4766h-.0869c-.245 0-.4061-.2554-.3008-.4766l.1211-.2558a.33.33 0 0 0 .0323-.1426v-.25a.33.33 0 0 0-.0323-.1426l-.1474-.3105c-.0932-.1957.0498-.4219.2666-.4219m-.8389 1.004c.2098.0004.3806.1668.3809.372-.0003.2052-.171.3726-.3809.373-.2103 0-.3806-.1675-.3809-.373.0003-.2055.1707-.372.3809-.372"/></g></g><defs><clipPath id="a"><path fill="#fff" d="M0 0h16v12H0z"/></clipPath></defs></svg>