<svg xmlns="http://www.w3.org/2000/svg" width="16" height="12" fill="none" viewBox="0 0 16 12"><g clip-path="url(#a)"><rect width="16" height="12" fill="#fff" stroke="#f5f5f5" rx="2"/><mask id="b" width="16" height="12" x="0" y="0" maskUnits="userSpaceOnUse" style="mask-type:luminance"><rect width="16" height="12" fill="#fff" stroke="#fff" rx="2"/></mask><g fill="#ff3131" mask="url(#b)"><path d="M11.4286 0H16v12h-4.5714z"/><path fill-rule="evenodd" d="M0 12h4.571V0H0zm9.344-6.611c-.171.179-.47.026-.424-.218L9.143 4l-.762.4L8 3.2l-.381 1.2-.762-.4.223 1.171c.046.244-.253.397-.424.218a.249.249 0 0 0-.36 0l-.201.211-.762-.4.381.8-.162.17a.333.333 0 0 0 0 .46l.924.97h1.143l.191 1.2h.381l.19-1.2h1.143l.924-.97a.333.333 0 0 0 0-.46L10.286 6l.381-.8-.762.4-.201-.211a.249.249 0 0 0-.36 0" clip-rule="evenodd"/></g></g><defs><clipPath id="a"><path fill="#fff" d="M0 0h16v12H0z"/></clipPath></defs></svg>