<svg xmlns="http://www.w3.org/2000/svg" width="16" height="12" fill="none" viewBox="0 0 16 12"><g clip-path="url(#a)"><rect width="16" height="12" fill="#fff" rx="2"/><mask id="b" width="16" height="12" x="0" y="0" maskUnits="userSpaceOnUse" style="mask-type:luminance"><rect width="16" height="12" fill="#fff" rx="2"/></mask><g mask="url(#b)"><path fill="#ffbf19" d="M0 0h16v12H0z"/><path fill="#a52531" fill-rule="evenodd" d="M6.0952.8h7.8095c.7364 0 1.3334.597 1.3334 1.3333v7.7334c0 .7363-.597 1.3333-1.3334 1.3333H6.0952z" clip-rule="evenodd"/><path fill="#03664f" d="M.762 2.1333C.762 1.397 1.359.8 2.0953.8h.9524v10.4h-.9524C1.3589 11.2.762 10.6031.762 9.8667z"/><rect width="2" height="10" x="3" y="1" fill="#ff6816" rx="1"/><path fill="#ffbf18" d="M7.2383 9.6003c.2102 0 .3807.1787.3808.3994 0 .2208-.1705.4003-.3808.4004s-.3809-.1795-.3809-.4004c.0002-.2208.1706-.3994.3809-.3994m6.8574 0c.2101.0002.3807.1788.3809.3994 0 .2207-.1707.4001-.3809.4004-.2104 0-.3818-.1795-.3818-.4004.0001-.2208.1715-.3994.3818-.3994m-6.8574-8c.2102 0 .3807.1787.3808.3994 0 .2208-.1705.4003-.3808.4004s-.3809-.1795-.3809-.4004c.0002-.2208.1706-.3994.3809-.3994m6.8574 0c.2101.0002.3807.1788.3809.3994 0 .2207-.1707.4001-.3809.4004-.2104 0-.3818-.1795-.3818-.4004.0001-.2208.1715-.3994.3818-.3994"/><path fill="#ffbf18" fill-rule="evenodd" d="M9.1428 7.5256A.3256.3256 0 0 0 8.8172 7.2a.3.3 0 0 1-.107-.019c-.223-.0838-1.0912-.4324-1.0912-.781 0-.158.0595-.3162.1315-.4496.1246-.231.185-.5063.1004-.7547C7.7252 4.8259 7.5724 4.2933 7.619 4a.6.6 0 0 1 .0226-.0928c.1527-.4633.7393-.1479.7393.34v.9701a.633.633 0 0 0 .3388.5606l.2456.1289a.2656.2656 0 0 0 .247-.4704L8.7618 5.2v-.4c.1962 0 .261-.263.0873-.3542L8.7619 4.4V4h.4857a.644.644 0 0 0 .4666-.2.644.644 0 0 1 .4667-.2h.0648a.667.667 0 0 1 .6019.38l.0869.1824a.667.667 0 0 1 .0335.4884l-.0257.0808c-.1365.4299.1844.8684.6354.8684h.8587a.315.315 0 0 0 .1464-.594l-.2728-.1432a.55.55 0 0 0-.2546-.0628H12a.5715.5715 0 0 1-.4138-.9655l.2233-.2345v.419a.381.381 0 0 0 .3809.381h.341a.667.667 0 0 1 .6019.38l.1507.3164a.62.62 0 0 1 .0595.2175c.0188.2313.0515.7619-.0102 1.086-.045.2363-.1582.4577-.2496.6074-.0787.129-.1314.275-.1314.4261v1.0717a.295.295 0 0 1-.2948.2949c-.2168 0-.3595-.226-.2663-.4217l.1432-.3006a.18.18 0 0 0 0-.1554l-.0167-.0351c-.0788-.1655-.3273-.1093-.3273.074a.17.17 0 0 1-.0167.0739l-.2709.5688a.344.344 0 0 1-.3105.196c-.2528 0-.4192-.2635-.3105-.4917l.0992-.2083a.49.49 0 0 0 .0475-.2105v-.0369A.6525.6525 0 0 0 10.776 7.2h-.2187a.6526.6526 0 0 0-.6526.6525.65.65 0 0 1-.0634.2806l-.2242.4708a.344.344 0 0 1-.3105.196c-.2528 0-.4192-.2635-.3105-.4917l.0991-.2083a.49.49 0 0 0 .0476-.2105z" clip-rule="evenodd"/></g></g><defs><clipPath id="a"><path fill="#fff" d="M0 0h16v12H0z"/></clipPath></defs></svg>