<svg xmlns="http://www.w3.org/2000/svg" width="16" height="12" fill="none" viewBox="0 0 16 12"><g clip-path="url(#a)"><rect width="16" height="12" fill="#fff" rx="2"/><mask id="b" width="16" height="12" x="0" y="0" maskUnits="userSpaceOnUse" style="mask-type:luminance"><rect width="16" height="12" fill="#fff" rx="2"/></mask><g fill-rule="evenodd" clip-rule="evenodd" mask="url(#b)"><path fill="#2d754d" d="M0 12h16V8.8H0z"/><path fill="#25b1eb" d="M0 5.6h16V0H0z"/><path fill="#fecb2f" d="M0 8.8h16V5.6H0zm12.19-5.085-.583.646.044-.87-.869.044.646-.584-.646-.584.869.044-.044-.87.583.646.583-.646-.044.87.869-.044-.646.584.646.584-.869-.044.044.87z"/></g></g><defs><clipPath id="a"><path fill="#fff" d="M0 0h16v12H0z"/></clipPath></defs></svg>