<svg xmlns="http://www.w3.org/2000/svg" width="16" height="12" fill="none" viewBox="0 0 16 12"><g clip-path="url(#a)"><rect width="16" height="12" fill="#fff" stroke="#f5f5f5" rx="2"/><mask id="b" width="16" height="12" x="0" y="0" maskUnits="userSpaceOnUse" style="mask-type:luminance"><rect width="16" height="12" fill="#fff" stroke="#fff" rx="2"/></mask><g fill-rule="evenodd" clip-rule="evenodd" mask="url(#b)"><path fill="#ec3938" d="M0 12h16V8H0z"/><path fill="#51b422" d="M0 4h16V0H0z"/><path fill="#159940" d="M7.7753 7.029a.102.102 0 0 0 .0268-.0683l.0064-1.1886A.171.171 0 0 0 7.6374 5.6c-.1505 0-.2277-.1802-.124-.2892l.25-.2625a.3265.3265 0 0 1 .473 0l.2496.262c.104.1092.0266.2897-.1242.2897a.1714.1714 0 0 0-.1714.1714v1.1882c0 .026.01.0509.0279.0697.0613.0643.0157.1707-.0732.1707h-.2944c-.0888 0-.1353-.1055-.0754-.171"/><path fill="#258de7" d="m0 0 5.3333 6L0 12z"/></g></g><defs><clipPath id="a"><path fill="#fff" d="M0 0h16v12H0z"/></clipPath></defs></svg>