<svg width="16" height="12" viewBox="0 0 16 12" fill="none" xmlns="http://www.w3.org/2000/svg">
<g clip-path="url(#clip0_41818_3919)">
<rect x="0.25" y="0.25" width="15.5" height="11.5" rx="1.75" fill="white" stroke="#F5F5F5" stroke-width="0.5"/>
<mask id="mask0_41818_3919" style="mask-type:luminance" maskUnits="userSpaceOnUse" x="0" y="0" width="16" height="12">
<rect x="0.25" y="0.25" width="15.5" height="11.5" rx="1.75" fill="white" stroke="white" stroke-width="0.5"/>
</mask>
<g mask="url(#mask0_41818_3919)">
<path fill-rule="evenodd" clip-rule="evenodd" d="M0 4H16V0H0V4Z" fill="#04AAC8"/>
<path fill-rule="evenodd" clip-rule="evenodd" d="M0 12H16V8H0V12Z" fill="#23C840"/>
<path d="M2.66663 0.800125C2.90204 0.800125 3.12055 0.875137 3.30237 1.00325C3.28109 1.00176 3.25955 1.00032 3.23792 1.00032C2.71199 1.0004 2.28577 1.44808 2.28577 2.00032C2.28593 2.55241 2.7121 3.00024 3.23792 3.00032C3.25991 3.00032 3.28172 2.99698 3.30334 2.99544C3.12128 3.1241 2.90259 3.19954 2.66663 3.19954C2.03555 3.19954 1.52422 2.66291 1.52405 2.00032C1.52405 1.33758 2.03544 0.800125 2.66663 0.800125ZM4.19006 2.39973C4.40046 2.39973 4.57092 2.57921 4.57092 2.80013C4.57086 3.02098 4.40042 3.19954 4.19006 3.19954C3.97988 3.19933 3.80927 3.02085 3.8092 2.80013C3.8092 2.57934 3.97984 2.39995 4.19006 2.39973ZM5.71448 2.39973C5.92476 2.39987 6.09534 2.57929 6.09534 2.80013C6.09527 3.0209 5.92472 3.19941 5.71448 3.19954C5.50412 3.19954 5.33369 3.02098 5.33362 2.80013C5.33362 2.57921 5.50408 2.39973 5.71448 2.39973ZM7.23792 2.39973C7.44831 2.39973 7.61877 2.57921 7.61877 2.80013C7.61871 3.02098 7.44827 3.19954 7.23792 3.19954C7.02763 3.19946 6.85712 3.02093 6.85706 2.80013C6.85706 2.57926 7.02759 2.39981 7.23792 2.39973ZM5.71448 0.800125C5.92462 0.800257 6.0951 0.978916 6.09534 1.19954C6.09534 1.42037 5.92476 1.5998 5.71448 1.59993C5.50408 1.59993 5.33362 1.42045 5.33362 1.19954C5.33385 0.978835 5.50423 0.800125 5.71448 0.800125ZM7.23792 0.800125C7.44816 0.800125 7.61854 0.978835 7.61877 1.19954C7.61877 1.42045 7.44831 1.59993 7.23792 1.59993C7.02759 1.59985 6.85706 1.4204 6.85706 1.19954C6.85729 0.978883 7.02773 0.800204 7.23792 0.800125Z" fill="white"/>
</g>
</g>
<defs>
<clipPath id="clip0_41818_3919">
<rect width="16" height="12" fill="white"/>
</clipPath>
</defs>
</svg>
