<svg width="16" height="12" viewBox="0 0 16 12" fill="none" xmlns="http://www.w3.org/2000/svg">
<g clip-path="url(#clip0_41812_2601)">
<mask id="mask0_41812_2601" style="mask-type:luminance" maskUnits="userSpaceOnUse" x="0" y="0" width="16" height="12">
<rect width="16" height="12" rx="2" fill="white"/>
</mask>
<g mask="url(#mask0_41812_2601)">
<rect width="16" height="12" fill="url(#paint0_linear_41812_2601)"/>
<path fill-rule="evenodd" clip-rule="evenodd" d="M0 12H16V6.40002H0V12Z" fill="#262626"/>
<path fill-rule="evenodd" clip-rule="evenodd" d="M0 6.4H16V0H0V6.4Z" fill="#DD2137"/>
<path d="M7.86206 3.42279C9.08138 3.76584 9.80493 5.08196 9.47827 6.36224C9.42631 6.56587 9.34766 6.75467 9.25269 6.92963L9.73511 7.26752C9.91002 7.3901 9.95724 7.63845 9.84058 7.8222C9.72381 8.00578 9.48722 8.05503 9.31226 7.93256L8.76929 7.55267C8.21521 8.05719 7.4402 8.27382 6.67847 8.05951C6.47547 8.00217 6.35549 7.78253 6.40991 7.56927C6.46447 7.35617 6.67269 7.23007 6.87573 7.28705C7.30926 7.40902 7.74813 7.31935 8.09741 7.08197L7.0271 6.33295C6.85213 6.21047 6.80417 5.96204 6.92065 5.77826C7.03728 5.59458 7.27395 5.54473 7.44897 5.66693L8.61792 6.48529C8.66941 6.38224 8.71206 6.27233 8.74194 6.15521C8.95976 5.30167 8.4777 4.42396 7.66479 4.19525C7.46176 4.13801 7.34097 3.91924 7.39526 3.70599C7.44971 3.49263 7.65886 3.36566 7.86206 3.42279ZM7.23804 4.40033C7.44834 4.40033 7.61875 4.57896 7.6189 4.79974C7.6189 5.02066 7.44843 5.20013 7.23804 5.20013C7.02764 5.20013 6.85718 5.02066 6.85718 4.79974C6.85732 4.57896 7.02773 4.40033 7.23804 4.40033Z" fill="#F8D84B"/>
</g>
</g>
<defs>
<linearGradient id="paint0_linear_41812_2601" x1="0" y1="0" x2="0" y2="12" gradientUnits="userSpaceOnUse">
<stop stop-color="#FF323E"/>
<stop offset="1" stop-color="#FD0D1B"/>
</linearGradient>
<clipPath id="clip0_41812_2601">
<rect width="16" height="12" fill="white"/>
</clipPath>
</defs>
</svg>
