<svg xmlns="http://www.w3.org/2000/svg" width="16" height="12" fill="none" viewBox="0 0 16 12"><g clip-path="url(#a)"><mask id="b" width="16" height="12" x="0" y="0" maskUnits="userSpaceOnUse" style="mask-type:luminance"><rect width="16" height="12" fill="#fff" rx="2"/></mask><g mask="url(#b)"><path fill="#0a17a7" d="M0 0h16v12H0z"/><path fill="#fff" d="m17.5847.1763-5.3984 3.8233h3.8135v4h-3.8145l5.3994 3.8242-.8515 1.3262L9.905 8.314v4.4864H6.0955V8.3131L-.7327 13.15l-.8525-1.3262 5.3994-3.8242H-.0002v-4h3.8134L-1.5852.1763l.8525-1.3261L6.0955 3.686V-.8002H9.905V3.685l6.8282-4.835z"/><path stroke="#db1f35" stroke-linecap="round" d="M10.667 3.799 17.905-1.2m-6.469 9.419 6.488 4.592M4.575 3.786l-6.768-4.789m7.502 9.166-7.501 5.223"/><path fill="#e6273e" fill-rule="evenodd" d="M0 7.2h6.8571V12H9.143V7.2H16V4.8H9.1429V0H6.857v4.8H0z" clip-rule="evenodd"/></g></g><defs><clipPath id="a"><path fill="#fff" d="M0 0h16v12H0z"/></clipPath></defs></svg>