<svg xmlns="http://www.w3.org/2000/svg" width="16" height="12" fill="none" viewBox="0 0 16 12"><g clip-path="url(#a)"><rect width="16" height="12" fill="#fff" stroke="#f5f5f5" rx="2"/><mask id="b" width="16" height="12" x="0" y="0" maskUnits="userSpaceOnUse" style="mask-type:luminance"><rect width="16" height="12" fill="#fff" stroke="#fff" rx="2"/></mask><g mask="url(#b)"><path fill="#ef264d" d="M0 7.2002h4.5713V12H2c-1.1046 0-2-.8954-2-2zM16 10c0 1.1046-.8954 2-2 2H6.8574V7.2002H16zM4.5713 0v4.7998H0V2C0 .8954.8954 0 2 0zM14 0c1.1046 0 2 .8954 2 2v2.7998H6.8574V0z"/></g></g><defs><clipPath id="a"><path fill="#fff" d="M0 0h16v12H0z"/></clipPath></defs></svg>