<svg width="16" height="12" viewBox="0 0 16 12" fill="none" xmlns="http://www.w3.org/2000/svg">
<g clip-path="url(#clip0_41812_2772)">
<mask id="mask0_41812_2772" style="mask-type:luminance" maskUnits="userSpaceOnUse" x="0" y="0" width="16" height="12">
<rect width="16" height="12" rx="2" fill="white"/>
</mask>
<g mask="url(#mask0_41812_2772)">
<path fill-rule="evenodd" clip-rule="evenodd" d="M0 8H16V0H0V8Z" fill="#E54252"/>
<path fill-rule="evenodd" clip-rule="evenodd" d="M0 12H16V8H0V12Z" fill="#5CBE6B"/>
<path d="M2.28613 1.79883L1.9043 2.40039L2.28613 3V4.19824L1.9043 4.7998L2.28613 5.40039V6.59863L1.9043 7.2002L2.28613 7.80078V8.99902L1.9043 9.59961L2.28613 10.2002V12H0V0H2.28613V1.79883Z" fill="white"/>
<path d="M0.380859 9.59961L-0.380859 10.7998L-1.14258 9.59961L-0.380859 8.40039L0.380859 9.59961ZM0.380859 7.2002L-0.380859 8.40039L-1.14258 7.2002L-0.380859 6L0.380859 7.2002ZM0.380859 4.7998L-0.380859 6L-1.14258 4.7998L-0.380859 3.59961L0.380859 4.7998ZM0.380859 2.40039L-0.380859 3.59961L-1.14258 2.40039L-0.380859 1.2002L0.380859 2.40039Z" fill="#E54252"/>
<path d="M1.90491 10.7998L1.14319 12L0.380493 10.7998L1.14319 9.59961L1.90491 10.7998ZM1.90491 8.40039L1.14319 9.59961L0.380493 8.40039L1.14319 7.2002L1.90491 8.40039ZM1.90491 6L1.14319 7.2002L0.380493 6L1.14319 4.7998L1.90491 6ZM1.90491 3.59961L1.14319 4.7998L0.380493 3.59961L1.14319 2.40039L1.90491 3.59961ZM1.90491 1.2002L1.14319 2.40039L0.380493 1.2002L1.14319 0L1.90491 1.2002Z" fill="#E54252"/>
</g>
</g>
<defs>
<clipPath id="clip0_41812_2772">
<rect width="16" height="12" fill="white"/>
</clipPath>
</defs>
</svg>
