<svg xmlns="http://www.w3.org/2000/svg" width="16" height="12" fill="none" viewBox="0 0 16 12"><g clip-path="url(#a)"><rect width="16" height="12" fill="#fff" stroke="#f5f5f5" rx="2"/><mask id="b" width="16" height="12" x="0" y="0" maskUnits="userSpaceOnUse" style="mask-type:luminance"><rect width="16" height="12" fill="#fff" stroke="#fff" rx="2"/></mask><g fill-rule="evenodd" clip-rule="evenodd" mask="url(#b)"><path fill="#f03340" d="M0 3.2h16V0H0zM0 12h16V8.8H0z"/><path fill="#1fc065" d="M7.3982 7.4319a.336.336 0 0 0 0-.4638l-.0413-.0433a.292.292 0 0 0-.2856-.081l-.185.0485c-.2645.0695-.435-.2728-.22-.442l.1985-.1563C6.9875 6.1973 6.9192 6 6.7629 6c-.172 0-.2288-.2305-.0765-.3104l.3414-.1792c.1522-.08.0954-.3104-.0765-.3104-.1563 0-.2246-.1973-.1019-.294l.8239-.6488a.528.528 0 0 1 .6533 0l.8239.6488c.1227.0967.0544.294-.1019.294-.172 0-.2287.2305-.0765.3104l.3414.1792c.1523.08.0954.3104-.0765.3104-.1563 0-.2246.1973-.1019.294l.1986.1563c.2148.1692.0444.5115-.22.442l-.1851-.0485a.292.292 0 0 0-.2856.081l-.0413.0433a.336.336 0 0 0 0 .4638c.204.214.0522.5681-.2434.5681h-.7167c-.2956 0-.4473-.354-.2435-.5681"/></g></g><defs><clipPath id="a"><path fill="#fff" d="M0 0h16v12H0z"/></clipPath></defs></svg>