<svg xmlns="http://www.w3.org/2000/svg" width="16" height="12" fill="none" viewBox="0 0 16 12"><g clip-path="url(#a)"><rect width="16" height="12" fill="#fff" stroke="#f5f5f5" rx="2"/><mask id="b" width="16" height="12" x="0" y="0" maskUnits="userSpaceOnUse" style="mask-type:luminance"><rect width="16" height="12" fill="#fff" stroke="#fff" rx="2"/></mask><g fill-rule="evenodd" clip-rule="evenodd" mask="url(#b)"><path fill="#199e56" d="M0 12h16V8H0z"/><path fill="#262626" d="M0 4h16V0H0z"/><path fill="#e6223a" d="m0 0 7.619 6L0 12z"/><path fill="#fff" d="m2.6667 6.6-.496.4812.0492-.7071-.6674-.107.557-.4006-.3364-.6147.6456.2076.248-.6594.2479.6594.6456-.2076-.3364.6147.557.4005-.6674.107.0491.7072z"/></g></g><defs><clipPath id="a"><path fill="#fff" d="M0 0h16v12H0z"/></clipPath></defs></svg>