<svg xmlns="http://www.w3.org/2000/svg" width="16" height="12" fill="none" viewBox="0 0 16 12"><g clip-path="url(#a)"><rect width="16" height="12" fill="#fff" stroke="#f5f5f5" rx="2"/><mask id="b" width="16" height="12" x="0" y="0" maskUnits="userSpaceOnUse" style="mask-type:luminance"><rect width="16" height="12" fill="#fff" stroke="#fff" rx="2"/></mask><g fill-rule="evenodd" clip-rule="evenodd" mask="url(#b)"><path fill="#262626" d="M0 12h16V8H0z"/><path fill="#e32139" d="M0 4h16V0H0z"/><path fill="#128a49" d="m5.333 6.694-.896.613.302-1.048-.855-.669 1.082-.035.367-1.027.367 1.027 1.082.035-.855.669.302 1.048zm5.334 0-.896.613.301-1.048-.855-.669 1.082-.035.367-1.027.367 1.027 1.082.035-.855.669.302 1.048z"/></g></g><defs><clipPath id="a"><path fill="#fff" d="M0 0h16v12H0z"/></clipPath></defs></svg>