<svg xmlns="http://www.w3.org/2000/svg" width="16" height="12" fill="none" viewBox="0 0 16 12"><g clip-path="url(#a)"><rect width="16" height="12" fill="#fff" rx="2"/><mask id="b" width="16" height="12" x="0" y="0" maskUnits="userSpaceOnUse" style="mask-type:luminance"><rect width="16" height="12" fill="#fff" rx="2"/></mask><g mask="url(#b)"><path fill="#30c6e0" d="M0 0h16v12H0z"/><path fill="#ffcd4b" d="m9.169 3.571 1.444-.85-.507 1.598 1.669-.139-1.149 1.22 1.564.601-1.564.599 1.149 1.22-1.669-.139.507 1.599-1.444-.851-.236 1.66L8 8.697l-.933 1.393-.235-1.66-1.444.851.507-1.599-1.67.139L5.374 6.6 3.81 6l1.564-.601-1.149-1.22 1.67.139-.507-1.598 1.444.85.235-1.66L8 3.304l.933-1.394zM8 3.332c-1.473 0-2.666 1.195-2.666 2.669S6.527 8.669 8 8.67c1.473 0 2.667-1.195 2.667-2.669S9.473 3.332 8 3.332m0 .381c1.262 0 2.286 1.025 2.286 2.288 0 1.264-1.024 2.288-2.286 2.288S5.714 7.264 5.714 6.001 6.738 3.712 8 3.712M1.324 10.4a.2.2 0 0 1 .2.2v.4a.2.2 0 0 1-.2.199H.962a.2.2 0 0 1-.2-.199v-.4a.2.2 0 0 1 .2-.2zm.762-.8a.2.2 0 0 1 .2.2v.399a.2.2 0 0 1-.2.2h-.362a.2.2 0 0 1-.2-.2V9.8a.2.2 0 0 1 .2-.2zm-.762-.8a.2.2 0 0 1 .2.2v.399a.2.2 0 0 1-.2.2H.962a.2.2 0 0 1-.2-.2V9a.2.2 0 0 1 .2-.2zm.762-.8c.11 0 .2.089.2.199V8.6a.2.2 0 0 1-.2.2h-.362a.2.2 0 0 1-.2-.2v-.4a.2.2 0 0 1 .2-.199zm-.762-.801c.11 0 .2.09.2.2v.4a.2.2 0 0 1-.2.2H.962a.2.2 0 0 1-.2-.2v-.4a.201.201 0 0 1 .2-.2zm.762-.8a.2.2 0 0 1 .2.2v.4a.2.2 0 0 1-.2.199h-.362c-.11 0-.2-.089-.2-.199V6.6a.2.2 0 0 1 .2-.2zM1.324 5.6a.2.2 0 0 1 .2.2v.399a.2.2 0 0 1-.2.2H.962a.2.2 0 0 1-.2-.2V5.8a.2.2 0 0 1 .2-.2zm.762-.8a.2.2 0 0 1 .2.2v.399a.2.2 0 0 1-.2.2h-.362a.2.2 0 0 1-.2-.2V5a.2.2 0 0 1 .2-.2zM1.324 4c.11 0 .2.089.2.199V4.6a.2.2 0 0 1-.2.2H.962a.2.2 0 0 1-.2-.2v-.4a.2.2 0 0 1 .2-.199zm.762-.801c.11 0 .2.09.2.2v.4a.2.2 0 0 1-.2.2h-.362a.201.201 0 0 1-.2-.2v-.4a.201.201 0 0 1 .2-.2zm-.762-.8a.2.2 0 0 1 .2.2v.4a.2.2 0 0 1-.2.199H.962c-.11 0-.2-.089-.2-.199V2.6a.2.2 0 0 1 .2-.2zm.761-.799a.2.2 0 0 1 .2.2v.399a.2.2 0 0 1-.2.2h-.361a.2.2 0 0 1-.2-.2V1.8a.2.2 0 0 1 .2-.2zM1.324.8a.2.2 0 0 1 .2.2v.399a.2.2 0 0 1-.2.2H.962a.2.2 0 0 1-.2-.2V1a.2.2 0 0 1 .2-.2z"/></g></g><defs><clipPath id="a"><path fill="#fff" d="M0 0h16v12H0z"/></clipPath></defs></svg>