<svg xmlns="http://www.w3.org/2000/svg" width="16" height="12" fill="none" viewBox="0 0 16 12"><g clip-path="url(#a)"><rect width="16" height="12" fill="#fff" stroke="#f5f5f5" rx="2"/><mask id="b" width="16" height="12" x="0" y="0" maskUnits="userSpaceOnUse" style="mask-type:luminance"><rect width="16" height="12" fill="#fff" stroke="#fff" rx="2"/></mask><g mask="url(#b)"><path fill="#e12237" fill-rule="evenodd" d="M0 6.4h16V0H0z" clip-rule="evenodd"/><path fill="#fff" d="M3.8092.8001c.541 0 1.0373.1985 1.4287.5283-.2077-.0815-.4322-.1289-.667-.1289-1.0516.0003-1.904.8958-1.9043 2 0 1.1045.8526 1.9998 1.9043 2 .235 0 .4592-.0472.667-.1289-.3915.3301-.8875.5293-1.4287.5293C2.547 5.5998 1.524 4.525 1.524 3.1996 1.5243 1.8744 2.5471.8002 3.8093.8m1.1436 3.2002c.21.0003.3807.1788.3808.3994 0 .2208-.1706.4002-.3808.4004-.2104 0-.3819-.1794-.3819-.4004.0002-.2207.1715-.3994.3819-.3994m1.5234 0c.2103 0 .3807.1787.3809.3994 0 .221-.1705.4004-.3809.4004s-.3809-.1794-.3809-.4004c.0002-.2207.1706-.3994.3809-.3994M4.1901 2.3997c.2104 0 .3808.1795.3808.4004s-.1705.3994-.3808.3994c-.2102-.0002-.3808-.1786-.3809-.3994s.1706-.4001.3809-.4004m3.0478 0c.2104 0 .3809.1795.3809.4004s-.1705.3994-.3809.3994c-.2103 0-.3808-.1786-.3808-.3994s.1705-.4003.3808-.4004M5.7145 1.1995c.2102.0002.3808.1796.3808.4004 0 .2209-.1705.4003-.3808.4004s-.3809-.1795-.3809-.4004.1705-.4004.3809-.4004"/></g></g><defs><clipPath id="a"><path fill="#fff" d="M0 0h16v12H0z"/></clipPath></defs></svg>