<svg width="16" height="12" viewBox="0 0 16 12" fill="none" xmlns="http://www.w3.org/2000/svg">
<g clip-path="url(#clip0_41818_3251)">
<rect x="0.25" y="0.25" width="15.5" height="11.5" rx="1.75" fill="white" stroke="#F5F5F5" stroke-width="0.5"/>
<mask id="mask0_41818_3251" style="mask-type:luminance" maskUnits="userSpaceOnUse" x="0" y="0" width="16" height="12">
<rect x="0.25" y="0.25" width="15.5" height="11.5" rx="1.75" fill="white" stroke="white" stroke-width="0.5"/>
</mask>
<g mask="url(#mask0_41818_3251)">
<rect x="10.6666" width="5.33333" height="12" fill="#E3283E"/>
<path fill-rule="evenodd" clip-rule="evenodd" d="M0 12H5.33333V0H0V12Z" fill="#128A60"/>
<path d="M6.4762 5.60001L6.82685 5.40754L6.0762 5.60001H6.4762ZM7.23636 6.98489L7.02824 7.32649L8.30819 8.1063L7.58701 6.79242L7.23636 6.98489ZM8.81992 6.94888L8.4653 6.76383L9.04292 7.28095L8.81992 6.94888ZM9.52382 5.60001H9.92382L9.1692 5.41495L9.52382 5.60001ZM6.4762 5.60001H6.0762C6.0762 6.33046 6.4541 6.97669 7.02824 7.32649L7.23636 6.98489L7.44447 6.6433C7.1096 6.43928 6.8762 6.05249 6.8762 5.60001H6.4762ZM7.23636 6.98489L7.58701 6.79242L6.82685 5.40754L6.4762 5.60001L6.12555 5.79248L6.88571 7.17736L7.23636 6.98489ZM8.81992 6.94888L9.04292 7.28095C9.57681 6.92242 9.92382 6.30002 9.92382 5.60001H9.52382H9.12382C9.12382 6.03343 8.9096 6.40683 8.59692 6.61681L8.81992 6.94888ZM9.52382 5.60001L9.1692 5.41495L8.4653 6.76383L8.81992 6.94888L9.17454 7.13394L9.87844 5.78506L9.52382 5.60001Z" fill="#8C9157"/>
<ellipse cx="7.99994" cy="5.2" rx="0.761905" ry="1.2" fill="#C59262"/>
</g>
</g>
<defs>
<clipPath id="clip0_41818_3251">
<rect width="16" height="12" fill="white"/>
</clipPath>
</defs>
</svg>
