<svg xmlns="http://www.w3.org/2000/svg" width="16" height="12" fill="none" viewBox="0 0 16 12"><g clip-path="url(#a)"><rect width="16" height="12" fill="#fff" stroke="#f5f5f5" rx="2"/><mask id="b" width="16" height="12" x="0" y="0" maskUnits="userSpaceOnUse" style="mask-type:luminance"><rect width="16" height="12" fill="#fff" stroke="#fff" rx="2"/></mask><g mask="url(#b)"><mask id="c" fill="#fff"><path fill-rule="evenodd" d="M0 0h1.3137c.1367 0 .2702.042.3823.1205l7.1514 5.006C9.4081 5.519 9.1304 6.4 8.446 6.4H4.5714l4.7723 4.3845C9.8135 11.2162 9.5081 12 8.8701 12H0z" clip-rule="evenodd"/></mask><path fill="#ee1b44" fill-rule="evenodd" stroke="#0543a8" stroke-linejoin="round" stroke-width="2" d="M0 0h1.3137c.1367 0 .2702.042.3823.1205l7.1514 5.006C9.4081 5.519 9.1304 6.4 8.446 6.4H4.5714l4.7723 4.3845C9.8135 11.2162 9.5081 12 8.8701 12H0z" clip-rule="evenodd" mask="url(#c)"/><path fill="#fff" d="m3.5862 8.2346.8691-.0469-.6465.6123.6465.6123-.8691-.0468.044.913-.583-.6787-.583.6787.0448-.913-.8691.0468.6455-.6123-.6455-.6123.8691.0469-.0449-.9121.583.6777.583-.6777zm-.1348-4.2588.6524-.0351-.4844.459.293.2783c.219-.0632.4217-.1471.6005-.252-.1777.6765-.7659 1.1738-1.4668 1.1738-.7008-.0001-1.2891-.4974-1.4667-1.1738.179.1051.382.1898.6015.253l.295-.2794-.4844-.459.6523.0352-.0332-.6846.4375.5088.4365-.5088z"/></g></g><defs><clipPath id="a"><path fill="#fff" d="M0 0h16v12H0z"/></clipPath></defs></svg>