<svg width="16" height="12" viewBox="0 0 16 12" fill="none" xmlns="http://www.w3.org/2000/svg">
<g clip-path="url(#clip0_41816_3240)">
<rect width="16" height="12" rx="2" fill="white"/>
<mask id="mask0_41816_3240" style="mask-type:luminance" maskUnits="userSpaceOnUse" x="0" y="0" width="16" height="12">
<rect width="16" height="12" rx="2" fill="white"/>
</mask>
<g mask="url(#mask0_41816_3240)">
<path fill-rule="evenodd" clip-rule="evenodd" d="M0 12H16V0H0V12Z" fill="#079D7B"/>
</g>
<g clip-path="url(#clip1_41816_3240)">
<path d="M10.032 8.83504C9.47719 9.31314 8.76997 9.59947 8.00073 9.59969C7.23127 9.59969 6.52347 9.31321 5.96851 8.83504H10.032ZM8.00073 3.48836C8.59521 3.48914 9.07781 4.34345 9.07788 5.39754C9.07788 5.56631 9.06298 5.72996 9.03979 5.88582C9.09929 5.86742 9.15978 5.84672 9.22144 5.83015C10.2372 5.55746 11.1441 5.64744 11.2468 6.03133C11.3493 6.41535 10.6084 6.9478 9.59253 7.22078C9.46344 7.25546 9.33581 7.28459 9.21167 7.30769H11.0476C10.9573 7.57979 10.8354 7.83655 10.6873 8.07234H5.31323C5.16501 7.83652 5.04323 7.57983 4.95288 7.30769H6.76929C6.65811 7.28601 6.54346 7.26045 6.42847 7.22957C5.41262 6.95655 4.67252 6.42412 4.77515 6.04012C4.87813 5.65628 5.78471 5.56609 6.80054 5.83894C6.85453 5.85347 6.90736 5.87186 6.95972 5.88777C6.93636 5.73137 6.92358 5.56696 6.92358 5.39754C6.92366 4.34297 7.40588 3.48836 8.00073 3.48836ZM7.99976 6.54402C6.94804 6.54404 6.09574 6.71473 6.09546 6.92586C6.09546 7.13703 6.94787 7.30865 7.99976 7.30867C9.05173 7.30867 9.90503 7.13704 9.90503 6.92586C9.90475 6.71472 9.05155 6.54402 7.99976 6.54402Z" fill="white"/>
<path d="M4.95227 3.87053C5.16265 3.87053 5.3331 4.04121 5.33313 4.25237C5.33313 4.46355 5.16266 4.63518 4.95227 4.63518C4.74192 4.63513 4.57141 4.46352 4.57141 4.25237C4.57144 4.04124 4.74194 3.87058 4.95227 3.87053ZM11.048 3.87053C11.2582 3.87074 11.4288 4.04134 11.4288 4.25237C11.4288 4.46342 11.2582 4.63496 11.048 4.63518C10.8376 4.63518 10.6671 4.46355 10.6671 4.25237C10.6671 4.04121 10.8376 3.87053 11.048 3.87053ZM6.09485 2.72404C6.30524 2.72404 6.47668 2.89567 6.47668 3.10686C6.47656 3.31793 6.30517 3.48869 6.09485 3.48869C5.88471 3.48848 5.71411 3.3178 5.71399 3.10686C5.71399 2.89581 5.88464 2.72426 6.09485 2.72404ZM9.90442 2.72404C10.1148 2.72404 10.2853 2.89567 10.2853 3.10686C10.2852 3.31793 10.1147 3.48869 9.90442 3.48869C9.69426 3.48851 9.52368 3.31782 9.52356 3.10686C9.52356 2.89579 9.69418 2.72423 9.90442 2.72404ZM8.00012 1.96037C8.21045 1.96045 8.38098 2.13205 8.38098 2.34319C8.38075 2.55412 8.21031 2.72495 8.00012 2.72502C7.78987 2.72502 7.61949 2.55417 7.61926 2.34319C7.61926 2.132 7.78973 1.96037 8.00012 1.96037Z" fill="#FCD117"/>
</g>
</g>
<defs>
<clipPath id="clip0_41816_3240">
<rect width="16" height="12" fill="white"/>
</clipPath>
<clipPath id="clip1_41816_3240">
<rect width="6.85714" height="8.4" fill="white" transform="translate(4.57141 1.60001)"/>
</clipPath>
</defs>
</svg>
