<svg xmlns="http://www.w3.org/2000/svg" width="16" height="12" fill="none" viewBox="0 0 16 12"><g clip-path="url(#a)"><rect width="16" height="12" fill="#fff" stroke="#f5f5f5" rx="2"/><mask id="b" width="16" height="12" x="0" y="0" maskUnits="userSpaceOnUse" style="mask-type:luminance"><rect width="16" height="12" fill="#fff" stroke="#fff" rx="2"/></mask><g mask="url(#b)"><path fill="#fa2222" d="M0 9.5996h16V12H0zm16-2.3994H0V4.7998h16zm0-4.7998H0V0h16z"/><path fill="#1d63f9" fill-rule="evenodd" d="m0 0 7.619 6L0 12z" clip-rule="evenodd"/><path fill="url(#c)" fill-rule="evenodd" d="m2.6667 6.7645-1.1196.8535.4272-1.3818L.8552 5.382l1.3836-.0004L2.6668 4l.4279 1.3815 1.3836.0005-1.1192.8542.4272 1.3818z" clip-rule="evenodd"/></g></g><defs><linearGradient id="c" x1="1" x2="1" y1="4" y2="8" gradientUnits="userSpaceOnUse"><stop stop-color="#fff"/><stop offset="1" stop-color="#f0f0f0"/></linearGradient><clipPath id="a"><path fill="#fff" d="M0 0h16v12H0z"/></clipPath></defs></svg>