<svg xmlns="http://www.w3.org/2000/svg" width="16" height="12" fill="none" viewBox="0 0 16 12"><g clip-path="url(#a)"><mask id="b" width="16" height="12" x="0" y="0" maskUnits="userSpaceOnUse" style="mask-type:luminance"><rect width="16" height="12" fill="#fff" rx="2"/></mask><g mask="url(#b)"><path fill="#f0371d" fill-rule="evenodd" d="M0 12h16V0H0z" clip-rule="evenodd"/><path fill="#fff" d="M8.8435 6.2858c.4-.135.9355.435 1.1953 1.2744.2595.8394.1453 1.632-.2539 1.7696-.4.1358-.9353-.4358-1.1953-1.2754-.2598-.8401-.146-1.6319.254-1.7686m-2.3838 1.042c.6806-.5188 1.4334-.6501 1.6807-.293.2464.3576-.105 1.0689-.7852 1.588-.6803.5188-1.433.6495-1.6806.293-.247-.3576.1046-1.0687.7851-1.588m.421.6094c-.0617-.089-.1807-.109-.2657-.045-.0849.065-.1037.1901-.042.2794.0618.0887.1807.1093.2656.0449.0845-.0649.1032-.1902.042-.2793m2.3905-.1152c-.0998.0341-.1542.147-.122.252.0327.1043.1396.1625.2392.1288.0991-.0344.1548-.1475.123-.252-.0323-.1044-.1405-.162-.2402-.1288M4.779 4.6833c.2478-.3567 1.0003-.226 1.6807.293.6802.519 1.0315 1.2302.7852 1.5878-.2473.3573-1 .226-1.6807-.293-.6808-.5193-1.0324-1.2303-.7851-1.5878m5.127-.1309c.8405.0004 1.5227.3586 1.5234.7998-.0006.4413-.6829.8004-1.5234.8008-.8411 0-1.5237-.3592-1.5244-.8008.0007-.4414.6833-.7997 1.5244-.7998m-3.9092.754c-.085-.0649-.2047-.0451-.2666.0439-.0617.0893-.043.2144.042.2793a.1857.1857 0 0 0 .2666-.044c.0613-.089.0423-.2143-.042-.2793m4.0996-.1055c-.105 0-.1901.089-.1904.1992.0003.1101.0855.2001.1904.2002.1044-.0008.1901-.0905.1905-.2002-.0003-.1097-.0861-.1985-.1905-.1992m-2.957-1.4453c.26-.84.7952-1.4103 1.1953-1.2745.4.137.514.9294.254 1.7696-.2601.84-.7953 1.4105-1.1954 1.2744-.4002-.1365-.514-.9291-.2539-1.7695m.8857-.1182c-.0999-.0341-.2075.0231-.2402.128-.0325.1049.0222.2176.122.2519.1001.0341.2078-.023.2403-.128s-.0222-.2177-.122-.252"/></g></g><defs><clipPath id="a"><path fill="#fff" d="M0 0h16v12H0z"/></clipPath></defs></svg>