<svg xmlns="http://www.w3.org/2000/svg" width="16" height="12" fill="none" viewBox="0 0 16 12"><g clip-path="url(#a)"><mask id="b" width="16" height="12" x="0" y="0" maskUnits="userSpaceOnUse" style="mask-type:luminance"><rect width="16" height="12" fill="#fff" rx="2"/></mask><g mask="url(#b)"><path fill="#4189dd" d="M0 0h16v12H0z"/><mask id="c" width="6" height="6" x="1" y="0" fill="#000" maskUnits="userSpaceOnUse"><path fill="#fff" d="M.5269-.0966h5.5172v5.7931H.5269z"/><path fill-rule="evenodd" d="M2.6568 2.3885 3.0486 1.6l.3919.7885.751.4115-.751.4115L3.0486 4l-.3918-.7885-.751-.4115z" clip-rule="evenodd"/></mask><path fill="#d21034" fill-rule="evenodd" d="M2.6568 2.3885 3.0486 1.6l.3919.7885.751.4115-.751.4115L3.0486 4l-.3918-.7885-.751-.4115z" clip-rule="evenodd"/><path stroke="#fff" d="M2.6568 2.3885 3.0486 1.6l.3919.7885.751.4115-.751.4115L3.0486 4l-.3918-.7885-.751-.4115z" clip-rule="evenodd" mask="url(#c)"/><path fill="#f9d616" d="M0 8.8h16v.8H0zm0-1.6h16V8H0z"/></g></g><defs><clipPath id="a"><path fill="#fff" d="M0 0h16v12H0z"/></clipPath></defs></svg>