<svg width="16" height="12" viewBox="0 0 16 12" fill="none" xmlns="http://www.w3.org/2000/svg">
<g clip-path="url(#clip0_41818_3829)">
<rect width="16" height="12" rx="2" fill="white"/>
<mask id="mask0_41818_3829" style="mask-type:luminance" maskUnits="userSpaceOnUse" x="0" y="0" width="16" height="12">
<rect width="16" height="12" rx="2" fill="white"/>
</mask>
<g mask="url(#mask0_41818_3829)">
<rect width="16" height="12" fill="#07319C"/>
<rect width="6.85714" height="5.6" fill="#042C90"/>
<mask id="mask1_41818_3829" style="mask-type:alpha" maskUnits="userSpaceOnUse" x="0" y="0" width="7" height="6">
<rect width="6.85714" height="5.6" fill="#042C90"/>
</mask>
<g mask="url(#mask1_41818_3829)">
<mask id="path-6-outside-1_41818_3829" maskUnits="userSpaceOnUse" x="-2.14685" y="-1.08125" width="10" height="8" fill="black">
<rect fill="white" x="-2.14685" y="-1.08125" width="10" height="8"/>
<path fill-rule="evenodd" clip-rule="evenodd" d="M2.64218 2.42888L-0.146851 -0.0812531H0.251583L3.04062 2.01052H3.83748L7.02495 -0.0812531V0.170435C7.02495 0.275354 6.97555 0.37415 6.89162 0.437102L4.23592 2.42888V3.26559L6.76238 5.53941C6.85472 5.62251 6.79593 5.77572 6.6717 5.77572C6.64237 5.77572 6.61383 5.7662 6.59037 5.74861L3.83748 3.68394H3.04062L-0.146851 5.77572V5.35736L2.64218 3.26559V2.42888Z"/>
</mask>
<path fill-rule="evenodd" clip-rule="evenodd" d="M2.64218 2.42888L-0.146851 -0.0812531H0.251583L3.04062 2.01052H3.83748L7.02495 -0.0812531V0.170435C7.02495 0.275354 6.97555 0.37415 6.89162 0.437102L4.23592 2.42888V3.26559L6.76238 5.53941C6.85472 5.62251 6.79593 5.77572 6.6717 5.77572C6.64237 5.77572 6.61383 5.7662 6.59037 5.74861L3.83748 3.68394H3.04062L-0.146851 5.77572V5.35736L2.64218 3.26559V2.42888Z" fill="#FF2E3B"/>
<path fill-rule="evenodd" clip-rule="evenodd" d="M2.64218 2.42888L-0.146851 -0.0812531H0.251583L3.04062 2.01052H3.83748L7.02495 -0.0812531V0.170435C7.02495 0.275354 6.97555 0.37415 6.89162 0.437102L4.23592 2.42888V3.26559L6.76238 5.53941C6.85472 5.62251 6.79593 5.77572 6.6717 5.77572C6.64237 5.77572 6.61383 5.7662 6.59037 5.74861L3.83748 3.68394H3.04062L-0.146851 5.77572V5.35736L2.64218 3.26559V2.42888Z" stroke="white" stroke-width="0.8" mask="url(#path-6-outside-1_41818_3829)"/>
<path fill-rule="evenodd" clip-rule="evenodd" d="M-1.04602 2.04548V3.65063H2.67512V5.8C2.67512 5.96569 2.80943 6.1 2.97512 6.1H3.90384C4.06952 6.1 4.20384 5.96569 4.20384 5.8V3.65063H7.05761C7.22329 3.65063 7.3576 3.51631 7.3576 3.35063V2.34548C7.3576 2.17979 7.22329 2.04548 7.05761 2.04548H4.20384V-1.00685H2.67512V2.04548H-1.04602Z" fill="white"/>
<path fill-rule="evenodd" clip-rule="evenodd" d="M-0.146851 2.42888H3.04062V2.01052V-0.0812531H3.83748V2.01052V2.42888H7.02495V3.26559H3.83748V3.68394V5.77572H3.04062V3.68394V3.26559H-0.146851V2.42888Z" fill="url(#paint0_linear_41818_3829)"/>
</g>
<mask id="path-9-inside-2_41818_3829" fill="white">
<path fill-rule="evenodd" clip-rule="evenodd" d="M9.90479 6C9.90479 5.34375 9.90479 4.56788 9.90479 3.99949C9.90479 3.55766 10.263 3.2 10.7048 3.2H12.9143C13.3561 3.2 13.7143 3.55766 13.7143 3.99949C13.7143 4.56788 13.7143 5.34375 13.7143 6C13.7143 8 11.8095 8.8 11.8095 8.8C11.8095 8.8 9.90479 8 9.90479 6Z"/>
</mask>
<path fill-rule="evenodd" clip-rule="evenodd" d="M9.90479 6C9.90479 5.34375 9.90479 4.56788 9.90479 3.99949C9.90479 3.55766 10.263 3.2 10.7048 3.2H12.9143C13.3561 3.2 13.7143 3.55766 13.7143 3.99949C13.7143 4.56788 13.7143 5.34375 13.7143 6C13.7143 8 11.8095 8.8 11.8095 8.8C11.8095 8.8 9.90479 8 9.90479 6Z" fill="#FFD033" stroke="white" mask="url(#path-9-inside-2_41818_3829)"/>
<ellipse cx="12.5714" cy="4.8" rx="0.380952" ry="0.8" fill="#BA5B1F"/>
<ellipse cx="0.383229" cy="0.795638" rx="0.383229" ry="0.795638" transform="matrix(0.934109 -0.356987 0.327519 0.944844 10.2858 4.20918)" fill="#FF9F3E"/>
<path d="M11.6827 5.00262C11.5049 5.40305 11.2062 5.65198 11.0155 5.55862C10.8248 5.46525 10.8144 5.06495 10.9922 4.66452C11.17 4.26409 11.4688 4.01516 11.6595 4.10852C11.8502 4.20189 11.8606 4.60218 11.6827 5.00262Z" fill="#FF937F"/>
<path fill-rule="evenodd" clip-rule="evenodd" d="M11.4286 6.4L11.8095 5.6L12.1905 6.4V7.2H11.4286V6.4Z" fill="#01A827"/>
</g>
</g>
<defs>
<linearGradient id="paint0_linear_41818_3829" x1="-0.146851" y1="-0.0812531" x2="-0.146851" y2="5.77572" gradientUnits="userSpaceOnUse">
<stop stop-color="#FF2E3B"/>
<stop offset="1" stop-color="#FC0D1B"/>
</linearGradient>
<clipPath id="clip0_41818_3829">
<rect width="16" height="12" fill="white"/>
</clipPath>
</defs>
</svg>
