<svg xmlns="http://www.w3.org/2000/svg" width="16" height="12" fill="none" viewBox="0 0 16 12"><g clip-path="url(#a)"><rect width="16" height="12" fill="#fff" stroke="#f5f5f5" rx="2"/><mask id="b" width="16" height="12" x="0" y="0" maskUnits="userSpaceOnUse" style="mask-type:luminance"><rect width="16" height="12" fill="#fff" stroke="#fff" rx="2"/></mask><g mask="url(#b)"><path fill="#ffcb49" fill-rule="evenodd" d="M0 3.2h16V0H0z" clip-rule="evenodd"/><path fill="#dc1d34" fill-rule="evenodd" d="M0 8.8h16V5.6H0z" clip-rule="evenodd"/><path fill="#4985d4" fill-rule="evenodd" d="M0 12h16V8.8H0z" clip-rule="evenodd"/><path fill="#4ba343" fill-rule="evenodd" d="m0 12 7.619-6L0 0z" clip-rule="evenodd"/><path fill="#fff" d="M3.0472 3.5996c.1974 0 .3887.0288.5713.0781C2.6332 3.9445 1.9047 4.8821 1.9047 6s.7287 2.0544 1.7138 2.3213c-.1827.0494-.3738.079-.5713.079C1.7851 8.4003.7621 7.3254.7621 6s1.023-2.4001 2.2851-2.4004m1.1436 3.6006c.2101.0002.3806.1788.3809.3994 0 .2208-.1706.4002-.3809.4004-.2104 0-.3809-.1795-.3809-.4004.0002-.2207.1706-.3994.3809-.3994m0-1.6006c.2103.0002.3809.1796.3809.4004s-.1706.4002-.3809.4004c-.2104 0-.3809-.1795-.3809-.4004 0-.221.1705-.4004.3809-.4004m0-1.5996c.2103.0002.3809.1796.3809.4004-.0003.2206-.1708.3992-.3809.3994-.2103 0-.3807-.1787-.3809-.3994 0-.221.1705-.4004.3809-.4004"/></g></g><defs><clipPath id="a"><path fill="#fff" d="M0 0h16v12H0z"/></clipPath></defs></svg>