<svg width="16" height="12" viewBox="0 0 16 12" fill="none" xmlns="http://www.w3.org/2000/svg">
<g clip-path="url(#clip0_41813_2121)">
<mask id="mask0_41813_2121" style="mask-type:luminance" maskUnits="userSpaceOnUse" x="0" y="0" width="16" height="12">
<rect width="16" height="12" rx="2" fill="white"/>
</mask>
<g mask="url(#mask0_41813_2121)">
<rect width="16" height="12" fill="#042C90"/>
<g clip-path="url(#clip1_41813_2121)">
<g clip-path="url(#clip2_41813_2121)">
<path fill-rule="evenodd" clip-rule="evenodd" d="M10.201 6.79855C10.201 6.14264 10.201 5.36718 10.201 4.79908C10.201 4.35748 10.559 4 11.0006 4H13.1983C13.6399 4 13.9979 4.35748 13.9979 4.79908C13.9979 5.36718 13.9979 6.14264 13.9979 6.79855C13.9979 8.79751 12.0995 9.59709 12.0995 9.59709C12.0995 9.59709 10.201 8.79751 10.201 6.79855Z" fill="#0072C4"/>
<path fill-rule="evenodd" clip-rule="evenodd" d="M11.071 6.3146C10.6613 6.72842 11.4643 6.67594 11.4643 6.67594L12.0361 6.49283C12.0361 6.49283 12.2933 6.52394 12.4668 6.57626C12.5818 6.61091 12.9017 6.75375 12.9017 6.75375C12.9017 6.75375 13.5774 6.61886 13.3398 6.3146C13.1022 6.01033 11.4807 5.90077 11.071 6.3146Z" fill="#005121"/>
<path fill-rule="evenodd" clip-rule="evenodd" d="M12.7913 5.91148C12.8077 5.90775 12.8461 5.90859 12.8604 5.92602C12.8829 5.95329 12.9289 5.94422 12.9514 5.9705C12.9738 5.99684 12.9998 6.02114 12.9998 6.0586C12.9998 6.09607 12.9954 6.18897 12.9962 6.20938C12.9974 6.24083 13.0028 6.24571 13.0351 6.24487C13.0741 6.24388 13.128 6.24083 13.1297 6.171C13.1308 6.12234 13.0824 6.09196 13.0683 5.91887C13.0895 5.90067 13.1084 5.88445 13.1013 5.86023C13.0942 5.83594 13.1415 5.82375 13.1368 5.78728C13.132 5.75088 13.184 5.72857 13.1627 5.68813C13.1415 5.64762 13.1887 5.64564 13.1698 5.6132C13.1509 5.58083 13.2005 5.55243 13.1792 5.52418C13.158 5.49577 13.2076 5.4695 13.1816 5.43508C13.1556 5.40066 13.1958 5.3804 13.1698 5.35405C13.1864 5.32778 13.1721 5.25285 13.1202 5.21036C13.0683 5.16779 12.9951 5.14555 12.9525 5.12933C12.8734 5.09918 12.7258 5.11311 12.6218 5.1253C12.5179 5.13741 12.3242 5.14959 12.2651 5.14152C12.2062 5.13345 12.0668 5.1253 11.957 5.1435C11.9194 5.14974 11.8766 5.13847 11.8542 5.11723C11.8363 5.10024 11.8259 5.10207 11.8094 5.10306C11.7929 5.10405 11.7834 5.09895 11.7751 5.07869C11.7605 5.04305 11.7279 5.06758 11.7125 5.02303C11.7022 4.99325 11.6487 5.01899 11.6322 4.99371C11.6156 4.96843 11.5956 4.96538 11.5507 4.96843C11.5484 4.9532 11.5236 4.94208 11.5011 4.94611C11.5047 4.92083 11.4799 4.90058 11.4386 4.90157C11.4433 4.87019 11.3854 4.8459 11.3558 4.86517C11.337 4.84186 11.2992 4.84689 11.2897 4.86517C11.2697 4.84186 11.2059 4.84895 11.1905 4.87423C11.1634 4.85907 11.1106 4.89631 11.115 4.95525C11.1161 4.97147 11.1172 4.9883 11.0901 4.99371C11.0394 5.00384 11.0099 5.06049 10.9661 5.06857C10.9225 5.07671 10.8788 5.09088 10.8705 5.11517C10.8622 5.13946 10.8776 5.16482 10.8611 5.17693C10.8446 5.18911 10.8716 5.20023 10.8799 5.20625C10.8882 5.21234 10.9011 5.22247 10.9035 5.23663C10.9069 5.25673 10.9401 5.26275 10.9744 5.24067C10.9886 5.2316 11.0134 5.25894 11.0535 5.23968C11.0937 5.22049 11.1507 5.23061 11.1409 5.26199C11.1362 5.27714 11.1468 5.29336 11.1599 5.30852C11.1728 5.32367 11.1923 5.36944 11.1811 5.39556C11.1646 5.43401 11.1976 5.45534 11.1893 5.48968C11.1811 5.52418 11.1941 5.55555 11.1764 5.60208C11.1586 5.64861 11.1583 5.70686 11.1846 5.72354C11.2212 5.74684 11.1991 5.79299 11.2307 5.81264C11.2566 5.82878 11.2413 5.8683 11.2897 5.88041C11.3382 5.89259 11.3098 5.92496 11.3605 5.93204C11.4114 5.93912 11.429 5.9756 11.4822 5.96745C11.5214 5.96151 11.542 5.97103 11.5648 5.98002C11.5695 6.01246 11.559 6.13148 11.5566 6.16186C11.5545 6.18874 11.5401 6.23162 11.5401 6.25804C11.5401 6.27419 11.5731 6.27822 11.611 6.27822C11.6487 6.27822 11.6653 6.26307 11.6558 6.22058C11.6464 6.17801 11.644 6.07437 11.6464 6.00956C11.6792 6.02533 11.7104 6.04741 11.709 6.07178C11.7066 6.11122 11.7072 6.18204 11.7006 6.21852C11.696 6.24487 11.703 6.28637 11.7054 6.31371C11.7078 6.32376 11.7715 6.32277 11.7976 6.31371C11.8235 6.30457 11.8235 6.28028 11.8211 6.16994C11.82 6.11534 11.762 6.05952 11.8353 6.03225C11.8708 6.01908 11.9203 5.9887 11.9393 5.96044C11.9581 5.93204 11.9995 5.94316 12.029 5.9574C12.0585 5.97156 12.1058 5.99319 12.1353 5.98367C12.1731 5.97156 12.2133 6.00187 12.2463 5.98367C12.2794 5.96547 12.3219 5.99684 12.349 5.97461C12.3762 5.9523 12.4235 5.97354 12.4435 5.9523C12.4636 5.93105 12.5462 5.96448 12.5758 5.93615C12.6053 5.90775 12.6455 5.94422 12.6727 5.92298C12.6798 5.91734 12.6882 5.91612 12.6975 5.91681C12.6964 5.96471 12.6874 6.04094 12.6856 6.0647C12.6835 6.09165 12.6691 6.13445 12.6691 6.1608C12.6691 6.17702 12.7022 6.18105 12.7399 6.18105C12.7778 6.18105 12.7943 6.1659 12.7849 6.12341C12.7754 6.08092 12.789 5.97636 12.7913 5.91148Z" fill="#A3A3A3"/>
<path fill-rule="evenodd" clip-rule="evenodd" d="M10.8804 5.17334C10.8962 5.16184 10.8816 5.13793 10.8895 5.11493C10.8974 5.09201 10.9392 5.07861 10.9811 5.07099C11.0229 5.0633 11.0512 5.00977 11.0998 5.00017C11.1258 4.99507 11.1247 4.97916 11.1236 4.96385C11.1195 4.90818 11.1699 4.873 11.196 4.8874C11.2106 4.86341 11.2718 4.85671 11.2909 4.87871C11.3 4.8615 11.3362 4.85671 11.3543 4.87871C11.3825 4.86059 11.438 4.88351 11.4334 4.91313C11.4731 4.91222 11.4968 4.93133 11.4934 4.95525C11.5149 4.95144 11.5386 4.96195 11.5409 4.97626C11.5373 4.99979 11.5911 5.00581 11.5662 5.02104C11.5444 5.03437 11.5237 5.02911 11.4989 5.01091C11.4741 4.99264 11.3914 5.00886 11.3796 5.01799C11.3678 5.02713 11.3548 5.03117 11.3453 5.02409C11.3359 5.017 11.3135 5.00581 11.3028 5.00688C11.2922 5.00787 11.2698 5.00787 11.2567 4.98662C11.2438 4.96537 11.2107 4.96233 11.2049 4.9704C11.199 4.97847 11.2178 5.00787 11.2367 5.01898C11.2556 5.03018 11.2462 5.05142 11.2686 5.06353C11.2833 5.07153 11.2698 5.09894 11.2615 5.11516C11.2533 5.13138 11.2214 5.12628 11.219 5.11417C11.2167 5.10206 11.2083 5.09392 11.1895 5.11212C11.1706 5.13039 11.1305 5.12529 11.121 5.12026C11.1116 5.11516 11.0855 5.1061 11.0679 5.11113C11.0501 5.11623 11.0761 5.1243 11.0785 5.13138C11.0808 5.13846 11.0501 5.14151 11.0324 5.14151C11.0147 5.14151 11.0088 5.15156 11.0194 5.15362C11.0301 5.15567 11.0713 5.15773 11.0879 5.14958C11.1045 5.14151 11.1552 5.14958 11.16 5.16481C11.1647 5.17997 11.1305 5.18606 11.1103 5.184C11.0807 5.18103 11.0371 5.19718 11.0159 5.2022C10.9947 5.20731 10.938 5.19413 10.9155 5.20022C10.8931 5.20624 10.871 5.1824 10.8804 5.17334Z" fill="#A3A3A3"/>
<path fill-rule="evenodd" clip-rule="evenodd" d="M11.2602 5.29737C11.239 5.30544 11.2461 5.32973 11.265 5.33986C11.2839 5.34999 11.3264 5.35402 11.3536 5.349C11.3807 5.3439 11.3866 5.35204 11.3689 5.36217C11.3512 5.37222 11.396 5.37428 11.3925 5.3905C11.389 5.40664 11.409 5.4036 11.4279 5.40261C11.4468 5.40162 11.4716 5.38943 11.4929 5.37832C11.5141 5.3672 11.5295 5.37527 11.5094 5.39454C11.4894 5.41373 11.4221 5.43809 11.3689 5.43505C11.3157 5.432 11.2874 5.44411 11.2992 5.46132C11.311 5.47853 11.3677 5.48158 11.3972 5.47244C11.4268 5.46338 11.4221 5.4796 11.3996 5.49064C11.3771 5.50183 11.3452 5.50282 11.3181 5.50183C11.2909 5.50084 11.2673 5.52414 11.3027 5.53724C11.3382 5.55042 11.3855 5.54234 11.4031 5.55346C11.4209 5.56458 11.4752 5.54737 11.4763 5.56664C11.4775 5.58583 11.461 5.59291 11.4291 5.59093C11.3972 5.58887 11.4066 5.60327 11.4303 5.61111C11.4516 5.61827 11.4894 5.61827 11.5094 5.61621C11.5295 5.61423 11.5236 5.63441 11.5035 5.64149C11.4834 5.64858 11.4185 5.6587 11.3866 5.65771C11.3547 5.65672 11.37 5.67698 11.4114 5.67698C11.5377 5.67698 11.5803 5.6172 11.6122 5.5757C11.6278 5.55537 11.6582 5.54432 11.6653 5.55651C11.6724 5.56862 11.6736 5.57166 11.6594 5.58179C11.6452 5.59192 11.6487 5.59801 11.6747 5.599C11.7007 5.59999 11.7385 5.59291 11.761 5.58689C11.7834 5.5808 11.8495 5.61911 11.7952 5.62025C11.6995 5.6223 11.5814 5.65672 11.5425 5.67089C11.5035 5.68505 11.4385 5.7117 11.3984 5.71033C11.3689 5.70934 11.357 5.72046 11.3689 5.73364C11.3807 5.74681 11.4185 5.74681 11.4397 5.74072C11.461 5.73463 11.4657 5.74072 11.4516 5.75283C11.4374 5.76501 11.402 5.77004 11.3771 5.77415C11.3524 5.77818 11.3401 5.79402 11.3594 5.80042C11.396 5.8126 11.363 5.82372 11.389 5.82981C11.4149 5.83591 11.3866 5.8551 11.4149 5.86119C11.4433 5.86728 11.4598 5.86423 11.481 5.85007C11.5024 5.83591 11.5141 5.82776 11.5366 5.82981C11.5591 5.83187 11.5744 5.82167 11.5874 5.80651C11.6004 5.79136 11.6441 5.76402 11.6582 5.77719C11.6724 5.79037 11.7019 5.766 11.7079 5.77917C11.7137 5.79235 11.7385 5.78428 11.7445 5.80248C11.751 5.82273 11.7787 5.82677 11.7976 5.81969C11.8164 5.8126 11.8318 5.79539 11.8318 5.77004C11.8318 5.74475 11.8389 5.73463 11.846 5.76196C11.853 5.7893 11.8791 5.79737 11.892 5.78428C11.905 5.7711 11.9097 5.72556 11.9003 5.70432C11.8909 5.683 11.8896 5.65566 11.8991 5.65063C11.9086 5.64561 11.931 5.69213 11.9405 5.71239C11.95 5.73265 11.9747 5.72655 11.9759 5.7063C11.9771 5.68604 11.9995 5.67591 12.0161 5.69114C12.0326 5.7063 12.0232 5.75694 12.0279 5.78123C12.0326 5.80552 12.0786 5.77514 12.0834 5.78321C12.0881 5.79136 12.1058 5.79334 12.1129 5.77613C12.12 5.75892 12.1365 5.74376 12.1459 5.75389C12.1555 5.76402 12.1696 5.78123 12.1754 5.80042C12.1814 5.81969 12.2026 5.82981 12.2156 5.80956C12.2286 5.7893 12.2381 5.74986 12.2334 5.72244C12.2286 5.69518 12.2369 5.67797 12.2486 5.69213C12.2605 5.7063 12.2593 5.74475 12.2605 5.77613C12.2617 5.8075 12.3006 5.80453 12.3006 5.75793C12.3006 5.73668 12.3124 5.73265 12.316 5.74475C12.3195 5.75694 12.3195 5.77719 12.3231 5.78626C12.3318 5.80872 12.3621 5.79638 12.3656 5.78123C12.3691 5.766 12.3633 5.71132 12.3561 5.68711C12.349 5.66274 12.3633 5.64561 12.3751 5.6587C12.3869 5.67188 12.3892 5.7063 12.3916 5.74475C12.3939 5.78321 12.4187 5.78527 12.4318 5.77415C12.4447 5.76295 12.4447 5.73059 12.4389 5.70729C12.4329 5.68406 12.4518 5.68406 12.4601 5.69823C12.4684 5.71239 12.4826 5.70325 12.4802 5.69213C12.4779 5.68102 12.4896 5.67089 12.5014 5.68604C12.5132 5.70127 12.5097 5.73569 12.5038 5.76295C12.4979 5.79037 12.5333 5.78725 12.5498 5.76402C12.5663 5.74072 12.5581 5.67698 12.544 5.65672C12.5297 5.63647 12.531 5.61012 12.5392 5.58689C12.5475 5.56359 12.5629 5.56252 12.564 5.57273C12.5652 5.58278 12.5723 5.59999 12.5853 5.61317C12.5982 5.62634 12.6054 5.6284 12.6077 5.60806C12.6101 5.58788 12.6219 5.59291 12.6266 5.60806C12.6314 5.62329 12.6396 5.6354 12.6514 5.6223C12.6632 5.60913 12.6786 5.61926 12.6691 5.63951C12.6596 5.65977 12.6596 5.67797 12.6667 5.69823C12.6738 5.71848 12.6986 5.71544 12.701 5.69213C12.7059 5.6437 12.7129 5.67591 12.7187 5.69716C12.7246 5.71848 12.7423 5.71742 12.7459 5.70531C12.7495 5.69312 12.753 5.69015 12.753 5.70325C12.753 5.71643 12.7589 5.72754 12.7742 5.72754C12.7896 5.72754 12.7861 5.70127 12.7931 5.68505C12.8002 5.66883 12.8132 5.69114 12.8309 5.72853C12.8486 5.766 12.8616 5.73059 12.903 5.81565C12.9199 5.8503 12.9443 5.82068 12.9431 5.80857C12.9419 5.79638 12.9454 5.78831 12.9655 5.78831C12.9856 5.78831 13.0021 5.78428 12.9951 5.7711C12.988 5.75793 12.9927 5.73364 12.9916 5.7063C12.9904 5.67896 12.9939 5.66381 12.9974 5.67896C13.001 5.69411 13.0128 5.71544 13.0316 5.72655C13.0505 5.73767 13.0635 5.70729 13.0481 5.6881C13.0329 5.66883 13.0116 5.62329 13.0128 5.58484C13.0137 5.55651 13.0269 5.56557 13.0269 5.58583C13.0269 5.60608 13.0387 5.64256 13.0565 5.65063C13.0742 5.6587 13.0813 5.62124 13.073 5.60205C13.0648 5.58278 13.06 5.55651 13.0777 5.55141C13.0954 5.54638 13.073 5.52513 13.0576 5.5099C13.0423 5.49475 13.0329 5.4796 13.06 5.48059C13.0871 5.48158 13.0648 5.46437 13.0517 5.45325C13.0387 5.44213 13.0163 5.41982 13.0517 5.42286C13.0871 5.42591 13.0754 5.40771 13.0612 5.39758C13.047 5.38745 13.0387 5.36819 13.0635 5.36925C13.0884 5.37024 13.1037 5.35806 13.1014 5.349C13.0923 5.31389 13.0329 5.27308 12.9963 5.2417C12.9597 5.21033 12.9006 5.17895 12.8687 5.17385C12.8368 5.16875 12.8356 5.18908 12.8439 5.20119C12.8522 5.2133 12.8687 5.22145 12.8711 5.20926C12.8734 5.19715 12.8982 5.21033 12.91 5.22647C12.9218 5.24269 12.962 5.26295 12.9868 5.28115C13.0116 5.29935 12.9537 5.29029 12.9254 5.26599C12.9092 5.25206 12.9111 5.26896 12.9325 5.28823C12.9537 5.3075 12.9265 5.31557 12.9041 5.29935C12.8817 5.2832 12.8238 5.23767 12.7872 5.20827C12.7506 5.17895 12.7447 5.18603 12.7435 5.20522C12.7423 5.22449 12.7553 5.23767 12.779 5.25381C12.8026 5.27003 12.8321 5.29531 12.8546 5.31252C12.8769 5.32973 12.8581 5.34085 12.8439 5.32867C12.8297 5.31656 12.7813 5.2832 12.753 5.2599C12.7246 5.2366 12.6986 5.22548 12.681 5.22853C12.6632 5.23157 12.6644 5.24878 12.6857 5.26698C12.7069 5.28518 12.7329 5.3196 12.7329 5.33986C12.7329 5.36012 12.714 5.37428 12.7045 5.33788C12.6951 5.3014 12.6502 5.25891 12.6172 5.22647C12.5841 5.19411 12.551 5.18801 12.5262 5.19007C12.5014 5.19205 12.5026 5.21634 12.5026 5.23561C12.5026 5.2548 12.486 5.24368 12.4849 5.22952C12.4837 5.21535 12.4648 5.20325 12.4541 5.20424C12.4436 5.20522 12.4471 5.23462 12.4436 5.24779C12.44 5.26089 12.4235 5.27308 12.4235 5.24269C12.4235 5.21231 12.3845 5.19715 12.368 5.19609C12.3514 5.1951 12.3361 5.20119 12.3443 5.21436C12.3526 5.22746 12.349 5.26295 12.3432 5.2832C12.3372 5.30338 12.3195 5.26797 12.316 5.23051C12.3124 5.19312 12.257 5.16677 12.218 5.17789C12.179 5.18908 12.2086 5.2133 12.2015 5.2366C12.1944 5.2599 12.1837 5.23866 12.1802 5.21436C12.1767 5.19007 12.1578 5.17484 12.1318 5.18093C12.1058 5.18702 12.0881 5.19913 12.0893 5.21535C12.0904 5.23157 12.0904 5.24574 12.0846 5.27201C12.0786 5.29836 12.068 5.28518 12.0692 5.26797C12.0704 5.25076 12.0645 5.22244 12.0585 5.20621C12.0527 5.19007 12.0432 5.20522 12.0456 5.22548C12.048 5.24574 12.042 5.29227 12.0326 5.32067C12.0232 5.349 12.009 5.34999 12.0161 5.31153C12.0232 5.27308 12.0054 5.21634 11.9877 5.19007C11.975 5.17126 11.9464 5.16479 11.9464 5.19106C11.9464 5.21741 11.9547 5.2366 11.9759 5.25587C11.9971 5.27506 11.9806 5.32265 11.9594 5.34801C11.9381 5.37329 11.9393 5.33681 11.9464 5.30948C11.9534 5.28214 11.9145 5.27308 11.8991 5.26797C11.8838 5.26295 11.9157 5.23561 11.9228 5.19913C11.9262 5.18116 11.9215 5.16981 11.9074 5.16875C11.8932 5.16776 11.8554 5.20218 11.8389 5.22746C11.8436 5.20119 11.8389 5.17789 11.8247 5.17789C11.8106 5.17789 11.7952 5.20325 11.7846 5.22145C11.774 5.23965 11.7633 5.22952 11.774 5.21033C11.7846 5.19106 11.8011 5.13943 11.7798 5.12831C11.7586 5.11719 11.7397 5.16273 11.7173 5.15458C11.7046 5.15002 11.722 5.12123 11.7291 5.10806C11.7361 5.09488 11.722 5.08475 11.6901 5.10905C11.6582 5.13341 11.6441 5.17286 11.6357 5.19715C11.6275 5.22145 11.5709 5.26089 11.5401 5.28214C11.5094 5.30338 11.4964 5.29531 11.5118 5.28617C11.5272 5.27711 11.5578 5.24878 11.5732 5.23767C11.5885 5.22647 11.5814 5.21992 11.5519 5.23911C11.5224 5.25838 11.4687 5.29333 11.4137 5.30544C11.3815 5.3126 11.3771 5.30651 11.409 5.29737C11.4409 5.28823 11.5141 5.24467 11.5319 5.22449C11.543 5.21177 11.5141 5.22244 11.5 5.22548C11.4858 5.22853 11.474 5.22449 11.5024 5.21436C11.5306 5.20424 11.6204 5.12428 11.6394 5.09488C11.6582 5.06556 11.6417 5.05437 11.6299 5.05544C11.618 5.05643 11.6015 5.06351 11.6051 5.0514C11.6086 5.03922 11.6004 5.023 11.585 5.0281C11.5696 5.03312 11.5709 5.06252 11.5649 5.07866C11.5591 5.09488 11.5259 5.1162 11.5047 5.1162C11.4834 5.1162 11.454 5.12024 11.4315 5.13539C11.409 5.15055 11.3984 5.13638 11.409 5.12428C11.4197 5.11209 11.4433 5.10905 11.4669 5.10806C11.4906 5.10707 11.5165 5.10402 11.5366 5.08475C11.5567 5.06556 11.5578 5.05033 11.5425 5.04934C11.5272 5.04835 11.5011 5.03114 11.4929 5.02406C11.4509 4.98804 11.3741 5.03823 11.3441 5.06754C11.3275 5.08376 11.2708 5.13037 11.2532 5.14248C11.2354 5.15458 11.2425 5.17179 11.272 5.14857C11.3016 5.12527 11.311 5.14149 11.2839 5.1587C11.2566 5.17591 11.2366 5.20119 11.2461 5.21033C11.2555 5.21939 11.2921 5.20827 11.3122 5.19715C11.3322 5.18603 11.3417 5.2133 11.2921 5.22244C11.2588 5.2286 11.2471 5.24033 11.2732 5.2417C11.2933 5.24269 11.324 5.23462 11.3524 5.22046C11.3807 5.20621 11.4031 5.21436 11.3795 5.22853C11.3559 5.24269 11.3039 5.26196 11.278 5.26196C11.2562 5.26196 11.2815 5.2893 11.2602 5.29737Z" fill="white"/>
<path fill-rule="evenodd" clip-rule="evenodd" d="M11.3973 5.07126C11.4259 5.04152 11.4508 5.0285 11.4769 5.04988C11.5005 5.06925 11.503 5.07769 11.4733 5.07126C11.4436 5.06483 11.4235 5.07126 11.4057 5.09046C11.3878 5.10975 11.3676 5.1022 11.3973 5.07126Z" fill="#A3A3A3"/>
<path fill-rule="evenodd" clip-rule="evenodd" d="M10.9296 5.14624C10.9508 5.12497 10.9851 5.12497 11.0004 5.10162C11.0158 5.07819 11.0323 5.08675 11.0134 5.10906C10.9946 5.13137 10.958 5.13568 10.9426 5.1516C10.9272 5.16751 10.919 5.15687 10.9296 5.14624Z" fill="#A3A3A3"/>
<path fill-rule="evenodd" clip-rule="evenodd" d="M11.0619 5.06524C11.0748 5.06347 11.0999 5.04812 11.1153 5.02996C11.1308 5.01179 11.164 5.00537 11.1841 5.02674C11.2042 5.04812 11.215 5.0556 11.2257 5.05994C11.2363 5.0642 11.2363 5.0781 11.2197 5.08228C11.2031 5.08662 11.1806 5.08983 11.1687 5.08445C11.1568 5.07914 11.139 5.07488 11.1248 5.0781C11.1105 5.08123 11.1046 5.07488 11.1165 5.0695C11.1283 5.0642 11.1425 5.04812 11.1497 5.04169C11.1568 5.03534 11.1758 5.04065 11.1651 5.04708C11.1544 5.05351 11.1592 5.06733 11.1699 5.07271C11.1806 5.0781 11.2019 5.0781 11.2114 5.06846C11.1972 5.05455 11.1734 5.03639 11.164 5.03108C11.1544 5.0257 11.1461 5.02353 11.1342 5.03639C11.1224 5.04925 11.0939 5.08019 11.0666 5.07914C11.0393 5.0781 11.0465 5.06733 11.0619 5.06524Z" fill="#A3A3A3"/>
<path fill-rule="evenodd" clip-rule="evenodd" d="M11.8082 5.25566C11.7977 5.27021 11.7882 5.28897 11.7871 5.30376C11.7859 5.31856 11.7994 5.32865 11.8011 5.31013C11.8029 5.2916 11.8046 5.28055 11.8193 5.26679C11.8341 5.25303 11.8199 5.23927 11.8082 5.25566Z" fill="#A3A3A3"/>
<path fill-rule="evenodd" clip-rule="evenodd" d="M11.6635 5.25517C11.6757 5.25024 11.6963 5.23879 11.7063 5.22821C11.7163 5.21772 11.7227 5.22455 11.7128 5.23616C11.7028 5.24777 11.6799 5.26153 11.6693 5.26471C11.6588 5.26789 11.6506 5.2605 11.6635 5.25517Z" fill="#A3A3A3"/>
<path fill-rule="evenodd" clip-rule="evenodd" d="M11.6829 5.31454C11.6658 5.33506 11.5986 5.38382 11.5784 5.39292C11.5582 5.40211 11.5654 5.41535 11.588 5.40823C11.5714 5.4214 11.5345 5.44283 11.5108 5.44888C11.4871 5.455 11.4822 5.47329 11.5179 5.46212C11.5535 5.45094 11.6033 5.4214 11.6164 5.40823C11.6295 5.39499 11.6129 5.38887 11.6331 5.37463C11.6532 5.36039 11.6906 5.33437 11.6959 5.32373C11.7042 5.3075 11.6948 5.30031 11.6829 5.31454Z" fill="#A3A3A3"/>
<path fill-rule="evenodd" clip-rule="evenodd" d="M11.6086 5.48009C11.6341 5.46769 11.6816 5.42383 11.6953 5.39865C11.7036 5.38342 11.7202 5.38541 11.7071 5.40883C11.6941 5.43225 11.6454 5.47397 11.6288 5.48514C11.6122 5.49632 11.5813 5.49326 11.6086 5.48009Z" fill="#A3A3A3"/>
<path fill-rule="evenodd" clip-rule="evenodd" d="M12.146 5.23965C12.1391 5.25389 12.1377 5.28725 12.1401 5.30339C12.1424 5.31961 12.1567 5.3318 12.1543 5.30751C12.152 5.28321 12.152 5.25892 12.1601 5.25184C12.1685 5.24468 12.1578 5.21536 12.146 5.23965Z" fill="#A3A3A3"/>
<path fill-rule="evenodd" clip-rule="evenodd" d="M12.2901 5.29945C12.3021 5.31054 12.3078 5.36259 12.3067 5.38188C12.3055 5.40125 12.3257 5.40125 12.3244 5.37377C12.3233 5.34629 12.3209 5.31169 12.3102 5.2934C12.2995 5.27503 12.2735 5.28421 12.2901 5.29945Z" fill="#A3A3A3"/>
<path fill-rule="evenodd" clip-rule="evenodd" d="M12.4164 5.33268C12.4237 5.34586 12.4329 5.37092 12.4329 5.38902C12.4329 5.4072 12.4481 5.3991 12.4493 5.37797C12.4504 5.35684 12.447 5.33874 12.4388 5.32465C12.4306 5.31056 12.4058 5.31352 12.4164 5.33268Z" fill="#A3A3A3"/>
<path fill-rule="evenodd" clip-rule="evenodd" d="M12.4942 5.31678C12.4878 5.30056 12.4778 5.28609 12.4706 5.28824C12.4637 5.29038 12.4683 5.30517 12.4778 5.321C12.4871 5.3369 12.5012 5.33476 12.4942 5.31678Z" fill="#A3A3A3"/>
<path fill-rule="evenodd" clip-rule="evenodd" d="M12.0011 5.43003C11.9975 5.47266 11.9749 5.5104 11.9477 5.52364C11.9204 5.53688 11.9251 5.55824 11.9583 5.53688C11.9916 5.51553 12.0165 5.47886 12.0237 5.44633C12.0307 5.41373 12.0035 5.40156 12.0011 5.43003Z" fill="#A3A3A3"/>
<path fill-rule="evenodd" clip-rule="evenodd" d="M11.9415 5.41073C11.9274 5.42481 11.9192 5.45503 11.9192 5.47813C11.9192 5.5013 11.9286 5.48419 11.9309 5.47109C11.9333 5.45798 11.9379 5.43988 11.9498 5.43382C11.9614 5.42777 11.9556 5.39664 11.9415 5.41073Z" fill="#A3A3A3"/>
<path fill-rule="evenodd" clip-rule="evenodd" d="M12.9645 5.44008C12.9769 5.46057 12.9952 5.49377 13.0011 5.51296C13.007 5.53222 12.9928 5.53725 12.9881 5.52004C12.9833 5.50283 12.9609 5.46437 12.9526 5.4512C12.9444 5.4381 12.9502 5.41678 12.9645 5.44008Z" fill="#A3A3A3"/>
<path d="M9.20044 7.19833C9.20044 7.19833 10.5605 7.6024 10.79 7.6024C10.8546 7.6024 11.7355 7.40036 11.9996 7.40036C12.0984 7.40036 13.0103 7.53876 13.2484 7.6024C13.4864 7.66603 14.7988 7.19833 14.7988 7.19833" stroke="white" stroke-width="0.399792" stroke-linecap="round" stroke-linejoin="round"/>
<path d="M9.20044 8.79751C9.20044 8.79751 10.5605 9.20158 10.79 9.20158C10.8546 9.20158 11.3797 8.87462 11.9996 8.87462C12.6195 8.87462 13.0103 9.13794 13.2484 9.20158C13.4864 9.26521 14.7988 8.79751 14.7988 8.79751L19.103 9.48592" stroke="white" stroke-width="0.799584" stroke-linecap="round" stroke-linejoin="round"/>
</g>
<path d="M9.20044 6.39877C9.20044 6.39877 10.5605 6.80283 10.79 6.80283C10.8546 6.80283 11.7355 6.6008 11.9996 6.6008C12.0984 6.6008 13.0103 6.7392 13.2484 6.80283C13.4864 6.86647 14.7988 6.39877 14.7988 6.39877" stroke="white" stroke-width="0.399792" stroke-linecap="round" stroke-linejoin="round"/>
<mask id="path-25-inside-1_41813_2121" fill="white">
<path fill-rule="evenodd" clip-rule="evenodd" d="M10.1 6.79854C10.1 6.14264 10.1 5.36718 10.1 4.79908C10.1 4.35748 10.458 4 10.8996 4H13.2983C13.7399 4 14.0979 4.35748 14.0979 4.79908C14.0979 5.36718 14.0979 6.14264 14.0979 6.79854C14.0979 8.79751 12.0989 9.59709 12.0989 9.59709C12.0989 9.59709 10.1 8.79751 10.1 6.79854Z"/>
</mask>
<path fill-rule="evenodd" clip-rule="evenodd" d="M10.1 6.79854C10.1 6.14264 10.1 5.36718 10.1 4.79908C10.1 4.35748 10.458 4 10.8996 4H13.2983C13.7399 4 14.0979 4.35748 14.0979 4.79908C14.0979 5.36718 14.0979 6.14264 14.0979 6.79854C14.0979 8.79751 12.0989 9.59709 12.0989 9.59709C12.0989 9.59709 10.1 8.79751 10.1 6.79854Z" stroke="white" stroke-width="0.799584" mask="url(#path-25-inside-1_41813_2121)"/>
</g>
<rect width="6.85714" height="5.6" fill="#042C90"/>
<mask id="mask1_41813_2121" style="mask-type:alpha" maskUnits="userSpaceOnUse" x="0" y="0" width="7" height="6">
<rect width="6.85714" height="5.6" fill="#042C90"/>
</mask>
<g mask="url(#mask1_41813_2121)">
<mask id="path-28-outside-2_41813_2121" maskUnits="userSpaceOnUse" x="-2.14685" y="-1.08127" width="10" height="8" fill="black">
<rect fill="white" x="-2.14685" y="-1.08127" width="10" height="8"/>
<path fill-rule="evenodd" clip-rule="evenodd" d="M2.64218 2.42886L-0.146851 -0.0812683H0.251583L3.04062 2.01051H3.83748L7.02495 -0.0812683V0.17042C7.02495 0.275339 6.97555 0.374135 6.89162 0.437087L4.23592 2.42886V3.26557L6.76238 5.53939C6.85472 5.6225 6.79593 5.7757 6.6717 5.7757C6.64237 5.7757 6.61383 5.76619 6.59037 5.74859L3.83748 3.68393H3.04062L-0.146851 5.7757V5.35735L2.64218 3.26557V2.42886Z"/>
</mask>
<path fill-rule="evenodd" clip-rule="evenodd" d="M2.64218 2.42886L-0.146851 -0.0812683H0.251583L3.04062 2.01051H3.83748L7.02495 -0.0812683V0.17042C7.02495 0.275339 6.97555 0.374135 6.89162 0.437087L4.23592 2.42886V3.26557L6.76238 5.53939C6.85472 5.6225 6.79593 5.7757 6.6717 5.7757C6.64237 5.7757 6.61383 5.76619 6.59037 5.74859L3.83748 3.68393H3.04062L-0.146851 5.7757V5.35735L2.64218 3.26557V2.42886Z" fill="#FF2E3B"/>
<path fill-rule="evenodd" clip-rule="evenodd" d="M2.64218 2.42886L-0.146851 -0.0812683H0.251583L3.04062 2.01051H3.83748L7.02495 -0.0812683V0.17042C7.02495 0.275339 6.97555 0.374135 6.89162 0.437087L4.23592 2.42886V3.26557L6.76238 5.53939C6.85472 5.6225 6.79593 5.7757 6.6717 5.7757C6.64237 5.7757 6.61383 5.76619 6.59037 5.74859L3.83748 3.68393H3.04062L-0.146851 5.7757V5.35735L2.64218 3.26557V2.42886Z" stroke="white" stroke-width="0.8" mask="url(#path-28-outside-2_41813_2121)"/>
<path fill-rule="evenodd" clip-rule="evenodd" d="M-1.04602 2.04546V3.65061H2.67512V5.79999C2.67512 5.96567 2.80943 6.09999 2.97512 6.09999H3.90384C4.06952 6.09999 4.20384 5.96567 4.20384 5.79999V3.65061H7.05761C7.22329 3.65061 7.3576 3.5163 7.3576 3.35061V2.34546C7.3576 2.17978 7.22329 2.04546 7.05761 2.04546H4.20384V-1.00687H2.67512V2.04546H-1.04602Z" fill="white"/>
<path fill-rule="evenodd" clip-rule="evenodd" d="M-0.146851 2.42886H3.04062V2.01051V-0.0812683H3.83748V2.01051V2.42886H7.02495V3.26557H3.83748V3.68393V5.7757H3.04062V3.68393V3.26557H-0.146851V2.42886Z" fill="url(#paint0_linear_41813_2121)"/>
</g>
</g>
</g>
<defs>
<linearGradient id="paint0_linear_41813_2121" x1="-0.146851" y1="-0.0812683" x2="-0.146851" y2="5.7757" gradientUnits="userSpaceOnUse">
<stop stop-color="#FF2E3B"/>
<stop offset="1" stop-color="#FC0D1B"/>
</linearGradient>
<clipPath id="clip0_41813_2121">
<rect width="16" height="12" fill="white"/>
</clipPath>
<clipPath id="clip1_41813_2121">
<rect width="4.19782" height="5.99688" fill="white" transform="translate(10 4)"/>
</clipPath>
<clipPath id="clip2_41813_2121">
<rect width="4.19782" height="5.99688" fill="white" transform="translate(10 4)"/>
</clipPath>
</defs>
</svg>
