<svg xmlns="http://www.w3.org/2000/svg" width="16" height="12" fill="none" viewBox="0 0 16 12"><g clip-path="url(#a)"><rect width="16" height="12" fill="#fff" stroke="#f5f5f5" rx="2"/><mask id="b" width="16" height="12" x="0" y="0" maskUnits="userSpaceOnUse" style="mask-type:luminance"><rect width="16" height="12" fill="#fff" stroke="#fff" rx="2"/></mask><g fill="#e8112d" mask="url(#b)"><path d="M6.0952 0h3.8095v12H6.0952z"/><path d="M0 4h16v4H0z"/></g><g fill="#f9dd16" clip-path="url(#c)"><path d="M7.6191 1.6h.7619v8.8h-.7619z"/><path fill-rule="evenodd" d="m8 9.6.762.8H7.2382z" clip-rule="evenodd"/><path d="M3.8096 5.6h8.381v.8h-8.381z"/><path fill-rule="evenodd" d="m8 2.4.762-.8H7.238zM4.572 6l-.762-.8v1.6zm6.857 0 .762-.8v1.6z" clip-rule="evenodd"/></g></g><defs><clipPath id="a"><path fill="#fff" d="M0 0h16v12H0z"/></clipPath><clipPath id="c"><path fill="#fff" d="M3.8096 1.6h8.381v8.8h-8.381z"/></clipPath></defs></svg>