<svg xmlns="http://www.w3.org/2000/svg" width="16" height="12" fill="none" viewBox="0 0 16 12"><g clip-path="url(#a)"><rect width="16" height="12" fill="#fff" rx="2"/><mask id="b" width="16" height="12" x="0" y="0" maskUnits="userSpaceOnUse" style="mask-type:luminance"><rect width="16" height="12" fill="#fff" rx="2"/></mask><g mask="url(#b)"><path fill="#108b4d" d="M0 0h16v12H0z"/><path fill="#ffc941" fill-rule="evenodd" d="M11.3221 4.8981c.0277.1748.0421.354.0421.5364 0 1.8836-1.535 3.4105-3.4286 3.4105S4.5071 7.318 4.5071 5.4345c0-.1825.0144-.3616.0421-.5364.2587 1.6287 1.6764 2.874 3.3865 2.874s3.1277-1.2453 3.3864-2.874M8 5.3703l-.9418.6678.3475-1.0973-.9295-.6846 1.1565-.0103L8 3.1549l.3673 1.091 1.1565.0103-.9295.6846.3474 1.0973z" clip-rule="evenodd"/></g></g><defs><clipPath id="a"><path fill="#fff" d="M0 0h16v12H0z"/></clipPath></defs></svg>