<svg xmlns="http://www.w3.org/2000/svg" width="16" height="12" fill="none" viewBox="0 0 16 12"><g clip-path="url(#a)"><rect width="16" height="12" fill="#fff" rx="2"/><mask id="b" width="16" height="12" x="0" y="0" maskUnits="userSpaceOnUse" style="mask-type:luminance"><rect width="16" height="12" fill="#fff" rx="2"/></mask><g mask="url(#b)"><path fill="#262626" d="M0 0h16v12H0z"/><path fill="#e8283f" fill-rule="evenodd" d="M0 0h16v12z" clip-rule="evenodd"/><path fill="#fff" fill-rule="evenodd" d="m3.81 10-.539.166.158-.566-.158-.566.539.166.539-.166-.158.566.158.566zm0-4.8-.539.166.158-.566-.158-.566.539.166.539-.166-.158.566.158.566zm-1.905 2-.539.166.158-.566-.158-.566.539.166.539-.166-.158.566.158.566zm3.428-.4-.539.166.158-.566-.158-.566.539.166.539-.166-.158.566.158.566z" clip-rule="evenodd"/><path fill="#ffd84e" fill-rule="evenodd" d="M10.7779 5.5593c-.0912-.0574-.1652-.1928-.1652-.301V4.521c0-.1089-.0746-.171-.1874-.1315l-.4333.1517c-.1035.0362-.262.0395-.3748 0l-.4333-.1517c-.1035-.0362-.115-.1112-.0223-.1696l1.0166-.6405c.0912-.0574.1403-.1823.1027-.3008l-.1444-.455c-.0346-.1086.0121-.1706.1249-.1311l.4333.1516c.1035.0362.2308-.0104.2865-.1078l.6099-1.0674c.0548-.0958.124-.0951.1616.0234l.1444.455c.0345.1086.0376.275 0 .3935l-.1444.455c-.0345.1086.0221.1968.1252.1968h.7021c.1037 0 .2312.076.2868.1734l.6099 1.0674c.0548.0957.0108.192-.0881.2127l-.9724.2042c-.1034.0217-.2049.1321-.2247.236l-.1944 1.0209c-.0207.1086-.1099.151-.2027.0926z" clip-rule="evenodd"/></g></g><defs><clipPath id="a"><path fill="#fff" d="M0 0h16v12H0z"/></clipPath></defs></svg>