<svg xmlns="http://www.w3.org/2000/svg" width="16" height="12" fill="none" viewBox="0 0 16 12"><g clip-path="url(#a)"><mask id="b" width="16" height="12" x="0" y="0" maskUnits="userSpaceOnUse" style="mask-type:luminance"><rect width="16" height="12" fill="#fff" rx="2"/></mask><g mask="url(#b)"><path fill="#05ab41" d="M0 0h16v12H0z"/><path fill="#fdd216" fill-rule="evenodd" d="M2.3354 6.5514c-.3893-.2645-.3893-.8383 0-1.1029l5.29-3.594a.667.667 0 0 1 .7493 0l5.2898 3.594c.3894.2646.3894.8384 0 1.103l-5.2898 3.5939a.6665.6665 0 0 1-.7494 0z" clip-rule="evenodd"/><circle cx="8" cy="6" r="3" fill="#053087"/></g><mask id="c" width="6" height="6" x="5" y="3" maskUnits="userSpaceOnUse" style="mask-type:luminance"><circle cx="8" cy="6" r="3" fill="#fff"/></mask><g mask="url(#c)"><path stroke="#fff" stroke-linecap="square" d="M5.0171 5.2682c.4187-.356 1.7698-.0188 3.031.3344 1.2611.3533 2.5765 1.0937 2.9114 1.528"/></g></g><defs><clipPath id="a"><path fill="#fff" d="M0 0h16v12H0z"/></clipPath></defs></svg>