<svg width="16" height="12" viewBox="0 0 16 12" fill="none" xmlns="http://www.w3.org/2000/svg">
<g clip-path="url(#clip0_41813_2477)">
<rect x="0.25" y="0.25" width="15.5" height="11.5" rx="1.75" fill="white" stroke="#F5F5F5" stroke-width="0.5"/>
<mask id="mask0_41813_2477" style="mask-type:luminance" maskUnits="userSpaceOnUse" x="0" y="0" width="16" height="12">
<rect x="0.25" y="0.25" width="15.5" height="11.5" rx="1.75" fill="white" stroke="white" stroke-width="0.5"/>
</mask>
<g mask="url(#mask0_41813_2477)">
<path fill-rule="evenodd" clip-rule="evenodd" d="M0 12H16V8H0V12Z" fill="#EC3938"/>
<path fill-rule="evenodd" clip-rule="evenodd" d="M0 4H16V0H0V4Z" fill="#51B422"/>
<path fill-rule="evenodd" clip-rule="evenodd" d="M7.77532 7.029C7.79239 7.01033 7.80192 6.98598 7.80206 6.96067L7.80853 5.77207C7.80905 5.67718 7.73227 5.59999 7.63738 5.59999C7.48691 5.59999 7.40967 5.41977 7.51345 5.31081L7.76349 5.04826C7.89217 4.91315 8.10771 4.91315 8.2364 5.04826L8.48598 5.31033C8.58993 5.41947 8.51257 5.59999 8.36185 5.59999C8.26717 5.59999 8.19042 5.67674 8.19042 5.77142V6.95957C8.19042 6.98552 8.2004 7.01047 8.21829 7.02926C8.27956 7.09359 8.23396 7.19999 8.14512 7.19999H7.85066C7.76189 7.19999 7.71542 7.09452 7.77532 7.029Z" fill="#159940"/>
<path fill-rule="evenodd" clip-rule="evenodd" d="M0 0L5.33333 6L0 12V0Z" fill="#258DE7"/>
</g>
</g>
<defs>
<clipPath id="clip0_41813_2477">
<rect width="16" height="12" fill="white"/>
</clipPath>
</defs>
</svg>
