<svg xmlns="http://www.w3.org/2000/svg" width="16" height="12" fill="none" viewBox="0 0 16 12"><g clip-path="url(#a)"><rect width="16" height="12" fill="#fff" stroke="#f5f5f5" rx="2"/><mask id="b" width="16" height="12" x="0" y="0" maskUnits="userSpaceOnUse" style="mask-type:luminance"><rect width="16" height="12" fill="#fff" stroke="#fff" rx="2"/></mask><g mask="url(#b)"><path fill="#e41d33" fill-rule="evenodd" d="M0 4h16V0H0z" clip-rule="evenodd"/><path fill="#262626" fill-rule="evenodd" d="M0 12h16V8H0z" clip-rule="evenodd"/><mask id="c" fill="#fff"><path fill-rule="evenodd" d="M6.0952 5.379a.579.579 0 0 1 .5791-.579.29.29 0 0 1 .2614.165l.3024.635s.4185-.8.7619-.8c.381 0 .7619.8.7619.8l.3023-.635a.29.29 0 0 1 .2614-.165.579.579 0 0 1 .5791.579v1.2448c0 .2427-.2732.385-.472.2458L8.7619 6.4h-.381v.419a.381.381 0 0 1-.7619 0V6.4h-.381l-.6708.4696c-.1988.1391-.472-.0031-.472-.2458z" clip-rule="evenodd"/></mask><path stroke="#c6a846" d="M6.0952 5.379a.579.579 0 0 1 .5791-.579.29.29 0 0 1 .2614.165l.3024.635s.4185-.8.7619-.8c.381 0 .7619.8.7619.8l.3023-.635a.29.29 0 0 1 .2614-.165.579.579 0 0 1 .5791.579v1.2448c0 .2427-.2732.385-.472.2458L8.7619 6.4h-.381v.419a.381.381 0 0 1-.7619 0V6.4h-.381l-.6708.4696c-.1988.1391-.472-.0031-.472-.2458z" clip-rule="evenodd" mask="url(#c)"/></g></g><defs><clipPath id="a"><path fill="#fff" d="M0 0h16v12H0z"/></clipPath></defs></svg>