<svg xmlns="http://www.w3.org/2000/svg" width="16" height="12" fill="none" viewBox="0 0 16 12"><g clip-path="url(#a)"><rect width="16" height="12" fill="#fff" rx="2"/><mask id="b" width="16" height="12" x="0" y="0" maskUnits="userSpaceOnUse" style="mask-type:luminance"><rect width="16" height="12" fill="#fff" rx="2"/></mask><g mask="url(#b)"><path fill="#063191" fill-rule="evenodd" d="M0 8h16V4H0z" clip-rule="evenodd"/><path fill="#e2213b" fill-rule="evenodd" d="M0 12h16V8H0z" clip-rule="evenodd"/><path fill="#fff" d="M5.7142 6.4004c.2104 0 .3808.1786.3809.3994 0 .221-.1705.4004-.3809.4004-.2103 0-.3808-.1795-.3808-.4004s.1705-.3994.3808-.3994m4.5713 0c.2104 0 .3808.1786.3809.3994 0 .221-.1705.4004-.3809.4004-.2103-.0001-.3808-.1796-.3808-.4004s.1706-.3993.3808-.3994M6.4759 5.2002c.2103 0 .3807.1787.381.3994 0 .221-.1706.4004-.381.4004-.2102-.0002-.3808-.1796-.3808-.4004.0002-.2206.1707-.3992.3808-.3994m3.0479 0c.2103 0 .3807.1787.3809.3994 0 .221-.1705.4004-.3809.4004s-.3809-.1795-.3809-.4004c.0003-.2207.1707-.3994.3809-.3994m-1.5234-.4004c.2102.0002.3808.1796.3808.4004s-.1707.3992-.3808.3994c-.2104 0-.3808-.1786-.3809-.3994 0-.221.1705-.4004.3809-.4004"/><path fill="#ffd044" fill-rule="evenodd" d="M0 4h16V0H0z" clip-rule="evenodd"/></g></g><defs><clipPath id="a"><path fill="#fff" d="M0 0h16v12H0z"/></clipPath></defs></svg>