<svg xmlns="http://www.w3.org/2000/svg" width="16" height="12" fill="none" viewBox="0 0 16 12"><g clip-path="url(#a)"><rect width="16" height="12" fill="#fff" rx="2"/><mask id="b" width="16" height="12" x="0" y="0" maskUnits="userSpaceOnUse" style="mask-type:luminance"><rect width="16" height="12" fill="#fff" rx="2"/></mask><g mask="url(#b)"><path fill="#e92434" d="M0 0h16v12H0z"/><path fill="#fff" d="M7.9996 2.4004c1.9882 0 3.6006 1.6114 3.6006 3.5996S9.9878 9.5996 7.9996 9.5996C6.0116 9.5994 4.4 7.9881 4.4 6s1.6117-3.5994 3.5996-3.5996m0 .7998C6.4535 3.2004 5.1998 4.4538 5.1998 6s1.2537 2.7996 2.7998 2.7998c.3686 0 .7196-.0737 1.042-.2031-.0138.0003-.028.003-.042.003C7.7848 8.5993 6.8004 7.4356 6.8004 6s.9844-2.5994 2.1992-2.5996c.014 0 .0282.0016.042.002a2.79 2.79 0 0 0-1.042-.2022m.7666 2.5068-1.1132.3086 1.0751.4238-.0507 1.1534.7353-.8907 1.0821.4044-.6211-.9747.7187-.9043-1.1182.2891-.6376-.9629z"/></g></g><defs><clipPath id="a"><path fill="#fff" d="M0 0h16v12H0z"/></clipPath></defs></svg>