<svg xmlns="http://www.w3.org/2000/svg" width="16" height="12" fill="none" viewBox="0 0 16 12"><g clip-path="url(#a)"><rect width="16" height="12" fill="#fff" rx="2"/><mask id="b" width="16" height="12" x="0" y="0" maskUnits="userSpaceOnUse" style="mask-type:luminance"><rect width="16" height="12" fill="#fff" rx="2"/></mask><g mask="url(#b)"><path fill="#0f3eb6" fill-rule="evenodd" d="M0 3.2h16V0H0zM0 12h16V8.8H0z" clip-rule="evenodd"/><path fill="#ed1a3c" fill-rule="evenodd" d="M0 8.8h16V3.2H0z" clip-rule="evenodd"/><path fill="#fff" d="M6.4762 8.0003H4.9528l.7617-1.6006h.7617zm2.667 0H6.857V6.3997h2.286zm1.9043 0H9.5241V6.3997h.7617zM6.0953 4.8001a.381.381 0 0 1 .3809.3809v.8193h-.7617V5.181a.381.381 0 0 1 .3808-.381m1.9043-.4004a.381.381 0 0 1 .3809.3809v.456h.7627v.7637H6.857v-.7637h.7617v-.456a.3814.3814 0 0 1 .3808-.3809M9.9048 4.8a.381.381 0 0 1 .3809.3809v.8193H9.524V5.181a.381.381 0 0 1 .3809-.381"/></g></g><defs><clipPath id="a"><path fill="#fff" d="M0 0h16v12H0z"/></clipPath></defs></svg>