<svg xmlns="http://www.w3.org/2000/svg" width="16" height="12" fill="none" viewBox="0 0 16 12"><g clip-path="url(#a)"><mask id="b" width="16" height="12" x="0" y="0" maskUnits="userSpaceOnUse" style="mask-type:luminance"><rect width="16" height="12" fill="#fff" rx="2"/></mask><g mask="url(#b)"><path fill="url(#c)" d="M0 0h16v12H0z"/><path fill="#262626" fill-rule="evenodd" d="M0 12h16V6.4H0z" clip-rule="evenodd"/><path fill="#dd2137" fill-rule="evenodd" d="M0 6.4h16V0H0z" clip-rule="evenodd"/><path fill="#f8d84b" d="M7.862 3.4228c1.2194.343 1.943 1.6592 1.6163 2.9394-.052.2037-.1306.3925-.2256.5674l.4824.338c.175.1225.2221.3708.1055.5546-.1168.1836-.3534.2328-.5283.1104l-.543-.38c-.554.5046-1.3291.7212-2.0908.507-.203-.0574-.323-.277-.2686-.4903.0546-.2131.2628-.3392.4658-.2823.4336.122.8724.0324 1.2217-.205l-1.0703-.749c-.175-.1225-.223-.371-.1064-.5547s.3533-.2336.5283-.1114l1.169.8184c.0514-.103.094-.213.124-.33.2178-.8536-.2643-1.7313-1.0772-1.96-.203-.0573-.3238-.276-.2695-.4893.0544-.2134.2636-.3403.4668-.2832m-.624.9775c.2103 0 .3807.1787.3809.3994 0 .221-.1705.4004-.3809.4004s-.3808-.1794-.3808-.4004c.0001-.2207.1705-.3994.3808-.3994"/></g></g><defs><linearGradient id="c" x1="0" x2="0" y1="0" y2="12" gradientUnits="userSpaceOnUse"><stop stop-color="#ff323e"/><stop offset="1" stop-color="#fd0d1b"/></linearGradient><clipPath id="a"><path fill="#fff" d="M0 0h16v12H0z"/></clipPath></defs></svg>