<svg width="16" height="12" viewBox="0 0 16 12" fill="none" xmlns="http://www.w3.org/2000/svg">
<g clip-path="url(#clip0_41816_2962)">
<rect width="16" height="12" rx="2" fill="white"/>
<mask id="mask0_41816_2962" style="mask-type:luminance" maskUnits="userSpaceOnUse" x="0" y="0" width="16" height="12">
<rect width="16" height="12" rx="2" fill="white"/>
</mask>
<g mask="url(#mask0_41816_2962)">
<rect width="16" height="12" fill="#F22A46"/>
<path d="M9.16895 3.63232L10.6133 2.8042L10.1064 4.36182L11.7754 4.22607L10.626 5.41553L12.1904 5.99951L10.626 6.58447L11.7754 7.77393L10.1064 7.63818L10.6133 9.1958L9.16895 8.36768L8.93262 9.98584L8 8.62744L7.06738 9.98584L6.83203 8.36768L5.3877 9.1958L5.89453 7.63818L4.22461 7.77393L5.37402 6.58447L3.80957 5.99951L5.37402 5.41553L4.22461 4.22607L5.89453 4.36182L5.3877 2.8042L6.83203 3.63232L7.06738 2.01416L8 3.37256L8.93262 2.01416L9.16895 3.63232ZM8 3.39893C6.52756 3.39908 5.33428 4.56313 5.33398 5.99951C5.33398 7.43614 6.52737 8.60092 8 8.60107C9.47259 8.60088 10.667 7.43612 10.667 5.99951C10.6667 4.56316 9.47241 3.39912 8 3.39893ZM8 4.14209C9.05196 4.1421 9.9043 4.97427 9.9043 6.00049C9.90406 7.02652 9.05181 7.8579 8 7.85791C6.94817 7.85791 6.09594 7.02652 6.0957 6.00049C6.0957 4.97426 6.94803 4.14209 8 4.14209Z" fill="#FFF04D"/>
</g>
</g>
<defs>
<clipPath id="clip0_41816_2962">
<rect width="16" height="12" fill="white"/>
</clipPath>
</defs>
</svg>
