<svg width="16" height="12" viewBox="0 0 16 12" fill="none" xmlns="http://www.w3.org/2000/svg">
<g clip-path="url(#clip0_41818_3247)">
<rect x="0.25" y="0.25" width="15.5" height="11.5" rx="1.75" fill="white" stroke="#F5F5F5" stroke-width="0.5"/>
<mask id="mask0_41818_3247" style="mask-type:luminance" maskUnits="userSpaceOnUse" x="0" y="0" width="16" height="12">
<rect x="0.25" y="0.25" width="15.5" height="11.5" rx="1.75" fill="white" stroke="white" stroke-width="0.5"/>
</mask>
<g mask="url(#mask0_41818_3247)">
<path fill-rule="evenodd" clip-rule="evenodd" d="M8.38098 12H16V0H8.38098V12Z" fill="#DE233C"/>
<mask id="path-4-outside-1_41818_3247" maskUnits="userSpaceOnUse" x="0.524048" y="0.600266" width="4" height="4" fill="black">
<rect fill="white" x="0.524048" y="0.600266" width="4" height="4"/>
<path d="M3.04749 2.40007H3.8092V3.19987H3.04749V3.99968H2.28577V3.19987H1.52405V2.40007H2.28577V1.60027H3.04749V2.40007Z"/>
</mask>
<path d="M3.04749 2.40007H3.8092V3.19987H3.04749V3.99968H2.28577V3.19987H1.52405V2.40007H2.28577V1.60027H3.04749V2.40007Z" fill="#CCCCCD"/>
<path d="M3.04749 2.40007H2.64749V2.80007H3.04749V2.40007ZM3.8092 2.40007H4.2092V2.00007H3.8092V2.40007ZM3.8092 3.19987V3.59987H4.2092V3.19987H3.8092ZM3.04749 3.19987V2.79987H2.64749V3.19987H3.04749ZM3.04749 3.99968V4.39968H3.44749V3.99968H3.04749ZM2.28577 3.99968H1.88577V4.39968H2.28577V3.99968ZM2.28577 3.19987H2.68577V2.79987H2.28577V3.19987ZM1.52405 3.19987H1.12405V3.59987H1.52405V3.19987ZM1.52405 2.40007V2.00007H1.12405V2.40007H1.52405ZM2.28577 2.40007V2.80007H2.68577V2.40007H2.28577ZM2.28577 1.60027V1.20027H1.88577V1.60027H2.28577ZM3.04749 1.60027H3.44749V1.20027H3.04749V1.60027ZM3.04749 2.40007V2.80007H3.8092V2.40007V2.00007H3.04749V2.40007ZM3.8092 2.40007H3.4092V3.19987H3.8092H4.2092V2.40007H3.8092ZM3.8092 3.19987V2.79987H3.04749V3.19987V3.59987H3.8092V3.19987ZM3.04749 3.19987H2.64749V3.99968H3.04749H3.44749V3.19987H3.04749ZM3.04749 3.99968V3.59968H2.28577V3.99968V4.39968H3.04749V3.99968ZM2.28577 3.99968H2.68577V3.19987H2.28577H1.88577V3.99968H2.28577ZM2.28577 3.19987V2.79987H1.52405V3.19987V3.59987H2.28577V3.19987ZM1.52405 3.19987H1.92405V2.40007H1.52405H1.12405V3.19987H1.52405ZM1.52405 2.40007V2.80007H2.28577V2.40007V2.00007H1.52405V2.40007ZM2.28577 2.40007H2.68577V1.60027H2.28577H1.88577V2.40007H2.28577ZM2.28577 1.60027V2.00027H3.04749V1.60027V1.20027H2.28577V1.60027ZM3.04749 1.60027H2.64749V2.40007H3.04749H3.44749V1.60027H3.04749Z" fill="#7B716A" fill-opacity="0.66" mask="url(#path-4-outside-1_41818_3247)"/>
<ellipse cx="2.66672" cy="2.79999" rx="0.380952" ry="0.4" fill="#7B716A"/>
</g>
</g>
<defs>
<clipPath id="clip0_41818_3247">
<rect width="16" height="12" fill="white"/>
</clipPath>
</defs>
</svg>
