<svg xmlns="http://www.w3.org/2000/svg" width="16" height="12" fill="none" viewBox="0 0 16 12"><g clip-path="url(#a)"><rect width="16" height="12" fill="#fff" rx="2"/><mask id="b" width="16" height="12" x="0" y="0" maskUnits="userSpaceOnUse" style="mask-type:luminance"><rect width="16" height="12" fill="#fff" rx="2"/></mask><g mask="url(#b)"><path fill="#07319c" d="M0 0h16v12H0z"/><path fill="#042c90" d="M0 0h6.8571v5.6H0z"/><mask id="c" width="7" height="6" x="0" y="0" maskUnits="userSpaceOnUse" style="mask-type:alpha"><path fill="#042c90" d="M0 0h6.8571v5.6H0z"/></mask><g mask="url(#c)"><mask id="d" width="10" height="8" x="-2" y="-1" fill="#000" maskUnits="userSpaceOnUse"><path fill="#fff" d="M-2.1469-1.0813h10v8h-10z"/><path fill-rule="evenodd" d="M2.6422 2.4289-.1468-.0813h.3984l2.789 2.0918h.7969L7.0249-.0813v.2517a.333.333 0 0 1-.1333.2667L4.236 2.4289v.8367l2.5265 2.2738c.0923.0831.0335.2363-.0907.2363a.136.136 0 0 1-.0813-.027l-2.753-2.0648h-.7968L-.1469 5.7757v-.4183l2.789-2.0918z" clip-rule="evenodd"/></mask><path fill="#ff2e3b" fill-rule="evenodd" d="M2.6422 2.4289-.1468-.0813h.3984l2.789 2.0918h.7969L7.0249-.0813v.2517a.333.333 0 0 1-.1333.2667L4.236 2.4289v.8367l2.5265 2.2738c.0923.0831.0335.2363-.0907.2363a.136.136 0 0 1-.0813-.027l-2.753-2.0648h-.7968L-.1469 5.7757v-.4183l2.789-2.0918z" clip-rule="evenodd"/><path stroke="#fff" d="M2.6422 2.4289-.1468-.0813h.3984l2.789 2.0918h.7969L7.0249-.0813v.2517a.333.333 0 0 1-.1333.2667L4.236 2.4289v.8367l2.5265 2.2738c.0923.0831.0335.2363-.0907.2363a.136.136 0 0 1-.0813-.027l-2.753-2.0648h-.7968L-.1469 5.7757v-.4183l2.789-2.0918z" clip-rule="evenodd" mask="url(#d)"/><path fill="#fff" fill-rule="evenodd" d="M-1.046 2.0455v1.6051h3.721V5.8a.3.3 0 0 0 .3.3h.9287a.3.3 0 0 0 .3-.3V3.6506h2.8538a.3.3 0 0 0 .3-.3V2.3455a.3.3 0 0 0-.3-.3H4.2038v-3.0523H2.6751v3.0523z" clip-rule="evenodd"/><path fill="url(#e)" fill-rule="evenodd" d="M-.1469 2.4289h3.1875V-.0813h.7969V2.429h3.1874v.8367H3.8376v2.5101h-.7969V3.2656H-.1469z" clip-rule="evenodd"/></g></g><g clip-path="url(#f)"><path fill="#008339" fill-rule="evenodd" d="M9.9048 6V4.533c0-.7363.5969-1.333 1.3333-1.333h1.1429c.7364 0 1.3333.5967 1.3333 1.333V6c0 2-1.9048 2.8-1.9048 2.8S9.9048 8 9.9048 6" clip-rule="evenodd"/><mask id="g" width="5" height="6" x="9" y="3" maskUnits="userSpaceOnUse" style="mask-type:luminance"><path fill="#fff" fill-rule="evenodd" d="M9.9048 6V4.533c0-.7363.5969-1.333 1.3333-1.333h1.1429c.7364 0 1.3333.5967 1.3333 1.333V6c0 2-1.9048 2.8-1.9048 2.8S9.9048 8 9.9048 6" clip-rule="evenodd"/></mask><g mask="url(#g)"><path fill="#ffd033" d="M11.0477 6.3995c.2104 0 .3809.1796.3809.4004 0 .221-.1705.4004-.3809.4004s-.3808-.1795-.3808-.4004.1705-.4004.3808-.4004m1.5235 0c.2103 0 .3808.1795.3808.4004 0 .221-.1704.4004-.3808.4004-.2103-.0002-.3809-.1796-.3809-.4004s.1706-.4002.3809-.4004m-1.5235-.7998c.2104 0 .3809.1795.3809.4004-.0001.2209-.1705.3994-.3809.3994-.2103 0-.3808-.1785-.3808-.3994s.1704-.4004.3808-.4004m1.5235 0c.2104 0 .3808.1795.3808.4004s-.1705.3994-.3808.3994c-.2102-.0001-.3808-.1786-.3809-.3994s.1706-.4002.3809-.4004M11.0477 4.8c.2104 0 .3809.1795.3809.4004-.0002.2208-.1706.3994-.3809.3994s-.3807-.1786-.3808-.3994c0-.2209.1704-.4004.3808-.4004m1.5235 0c.2104 0 .3808.1795.3808.4004-.0001.2208-.1705.3994-.3808.3994-.2102-.0002-.3807-.1787-.3809-.3994 0-.2208.1706-.4002.3809-.4004m-1.5235-.7998c.2103 0 .3807.1787.3809.3994 0 .221-.1705.4004-.3809.4004s-.3808-.1795-.3808-.4004c.0002-.2207.1706-.3994.3808-.3994m1.5235 0c.2102 0 .3806.1787.3808.3994 0 .221-.1704.4004-.3808.4004-.2103-.0002-.3809-.1796-.3809-.4004.0002-.2205.1708-.3992.3809-.3994"/></g></g><path fill="#ffd033" d="M9.5238 8c0 .763 1.0407 1.2 2.2857 1.2s2.2857-.437 2.2857-1.2c0-.221-.1705-.4-.3809-.4s-.381.179-.381.4c0 .0076-.0923.0993-.3184.1943-.3069.1289-.7393.2057-1.2054.2057s-.8985-.0768-1.2054-.2057c-.2261-.095-.3184-.1867-.3184-.1943 0-.221-.1705-.4-.381-.4-.2103 0-.3809.179-.3809.4"/></g><defs><clipPath id="a"><path fill="#fff" d="M0 0h16v12H0z"/></clipPath><clipPath id="f"><path fill="#fff" d="M9.9048 3.2h4v6h-4z"/></clipPath><linearGradient id="e" x1="0" x2="0" y1="0" y2="6" gradientUnits="userSpaceOnUse"><stop stop-color="#ff2e3b"/><stop offset="1" stop-color="#fc0d1b"/></linearGradient></defs></svg>