<svg width="16" height="12" viewBox="0 0 16 12" fill="none" xmlns="http://www.w3.org/2000/svg">
<g clip-path="url(#clip0_41807_2536)">
<mask id="mask0_41807_2536" style="mask-type:luminance" maskUnits="userSpaceOnUse" x="0" y="0" width="16" height="12">
<rect width="16" height="12" rx="2" fill="white"/>
</mask>
<g mask="url(#mask0_41807_2536)">
<rect width="16" height="12" fill="#0A17A7"/>
<path fill-rule="evenodd" clip-rule="evenodd" d="M3.42862 9.8L2.75687 10.1708L2.88516 9.38541L2.3417 8.82918L3.09275 8.71459L3.42862 8L3.7645 8.71459L4.51555 8.82918L3.97208 9.38541L4.10038 10.1708L3.42862 9.8Z" fill="white"/>
<path fill-rule="evenodd" clip-rule="evenodd" d="M11.4285 10.4L10.8898 10.5657L11.0476 10L10.8898 9.43433L11.4285 9.60001L11.9673 9.43433L11.8095 10L11.9673 10.5657L11.4285 10.4Z" fill="white"/>
<path fill-rule="evenodd" clip-rule="evenodd" d="M11.4285 2.79998L10.8898 2.96566L11.0476 2.39998L10.8898 1.83429L11.4285 1.99998L11.9673 1.83429L11.8095 2.39998L11.9673 2.96566L11.4285 2.79998Z" fill="white"/>
<path fill-rule="evenodd" clip-rule="evenodd" d="M13.7143 5.2L13.1755 5.36569L13.3333 4.8L13.1755 4.23431L13.7143 4.4L14.253 4.23431L14.0953 4.8L14.253 5.36569L13.7143 5.2Z" fill="white"/>
<path fill-rule="evenodd" clip-rule="evenodd" d="M9.14289 5.99999L8.60414 6.16567L8.76193 5.59999L8.60414 5.0343L9.14289 5.19999L9.68163 5.0343L9.52384 5.59999L9.68163 6.16567L9.14289 5.99999Z" fill="white"/>
<path fill-rule="evenodd" clip-rule="evenodd" d="M12.5714 7.00002L12.302 7.08287L12.3809 6.80002L12.302 6.51718L12.5714 6.60002L12.8408 6.51718L12.7619 6.80002L12.8408 7.08287L12.5714 7.00002Z" fill="white"/>
<mask id="mask1_41807_2536" style="mask-type:alpha" maskUnits="userSpaceOnUse" x="0" y="0" width="7" height="6">
<rect width="6.85714" height="5.6" fill="#042C90"/>
</mask>
<g mask="url(#mask1_41807_2536)">
<mask id="path-10-outside-1_41807_2536" maskUnits="userSpaceOnUse" x="-2.14685" y="-1.08124" width="10" height="8" fill="black">
<rect fill="white" x="-2.14685" y="-1.08124" width="10" height="8"/>
<path fill-rule="evenodd" clip-rule="evenodd" d="M2.64218 2.42889L-0.146851 -0.0812378H0.251583L3.04062 2.01054H3.83748L7.02495 -0.0812378V0.170451C7.02495 0.27537 6.97555 0.374166 6.89162 0.437117L4.23592 2.42889V3.2656L6.76238 5.53942C6.85472 5.62253 6.79593 5.77573 6.6717 5.77573C6.64237 5.77573 6.61383 5.76622 6.59037 5.74862L3.83748 3.68396H3.04062L-0.146851 5.77573V5.35738L2.64218 3.2656V2.42889Z"/>
</mask>
<path fill-rule="evenodd" clip-rule="evenodd" d="M2.64218 2.42889L-0.146851 -0.0812378H0.251583L3.04062 2.01054H3.83748L7.02495 -0.0812378V0.170451C7.02495 0.27537 6.97555 0.374166 6.89162 0.437117L4.23592 2.42889V3.2656L6.76238 5.53942C6.85472 5.62253 6.79593 5.77573 6.6717 5.77573C6.64237 5.77573 6.61383 5.76622 6.59037 5.74862L3.83748 3.68396H3.04062L-0.146851 5.77573V5.35738L2.64218 3.2656V2.42889Z" fill="#FF2E3B"/>
<path fill-rule="evenodd" clip-rule="evenodd" d="M2.64218 2.42889L-0.146851 -0.0812378H0.251583L3.04062 2.01054H3.83748L7.02495 -0.0812378V0.170451C7.02495 0.27537 6.97555 0.374166 6.89162 0.437117L4.23592 2.42889V3.2656L6.76238 5.53942C6.85472 5.62253 6.79593 5.77573 6.6717 5.77573C6.64237 5.77573 6.61383 5.76622 6.59037 5.74862L3.83748 3.68396H3.04062L-0.146851 5.77573V5.35738L2.64218 3.2656V2.42889Z" stroke="white" stroke-width="0.8" mask="url(#path-10-outside-1_41807_2536)"/>
<path fill-rule="evenodd" clip-rule="evenodd" d="M-1.04602 2.04549V3.65064H2.67512V5.80002C2.67512 5.9657 2.80943 6.10002 2.97512 6.10002H3.90384C4.06952 6.10002 4.20384 5.9657 4.20384 5.80002V3.65064H7.05761C7.22329 3.65064 7.3576 3.51633 7.3576 3.35064V2.34549C7.3576 2.17981 7.22329 2.04549 7.05761 2.04549H4.20384V-1.00684H2.67512V2.04549H-1.04602Z" fill="white"/>
<path fill-rule="evenodd" clip-rule="evenodd" d="M-0.146851 2.42889H3.04062V2.01054V-0.0812378H3.83748V2.01054V2.42889H7.02495V3.2656H3.83748V3.68396V5.77573H3.04062V3.68396V3.2656H-0.146851V2.42889Z" fill="url(#paint0_linear_41807_2536)"/>
</g>
</g>
</g>
<defs>
<linearGradient id="paint0_linear_41807_2536" x1="-0.146851" y1="-0.0812378" x2="-0.146851" y2="5.77573" gradientUnits="userSpaceOnUse">
<stop stop-color="#FF2E3B"/>
<stop offset="1" stop-color="#FC0D1B"/>
</linearGradient>
<clipPath id="clip0_41807_2536">
<rect width="16" height="12" fill="white"/>
</clipPath>
</defs>
</svg>
