<svg xmlns="http://www.w3.org/2000/svg" width="16" height="12" fill="none" viewBox="0 0 16 12"><g clip-path="url(#a)"><rect width="16" height="12" fill="#fff" stroke="#f5f5f5" rx="2"/><mask id="b" width="16" height="12" x="0" y="0" maskUnits="userSpaceOnUse" style="mask-type:luminance"><rect width="16" height="12" fill="#fff" stroke="#fff" rx="2"/></mask><g mask="url(#b)"><path fill="#38bb56" fill-rule="evenodd" d="M0 4h16V0H0z" clip-rule="evenodd"/><path fill="#de1b27" fill-rule="evenodd" d="M0 12h16V8H0z" clip-rule="evenodd"/><path fill="#fff" d="M1.3236 8.0003c.1103 0 .2.089.2002.1993v.4003a.2003.2003 0 0 1-.2002.2002H.9623A.2003.2003 0 0 1 .762 8.6v-.4003a.2.2 0 0 1 .2002-.1993zm1.5244 0a.1994.1994 0 0 1 .1992.1993v.4003c0 .1104-.0889.2-.1992.2002h-.3623A.2004.2004 0 0 1 2.2855 8.6v-.4003a.2.2 0 0 1 .2002-.1993zm1.5235 0c.1103 0 .2.089.2002.1993v.4003a.2003.2003 0 0 1-.2002.2002h-.3623A.2.2 0 0 1 3.8099 8.6v-.4003a.1994.1994 0 0 1 .1993-.1993zm1.5234 0c.1103 0 .2.089.2002.1993v.4003a.2003.2003 0 0 1-.2002.2002h-.3613A.2003.2003 0 0 1 5.3334 8.6v-.4003a.2.2 0 0 1 .2002-.1993zm1.5244 0a.2.2 0 0 1 .2002.1993v.4003a.2005.2005 0 0 1-.2002.2002H7.057A.2005.2005 0 0 1 6.8568 8.6v-.4003a.2.2 0 0 1 .2002-.1993zm1.5235 0c.1103 0 .1999.089.2001.1993v.4003a.2003.2003 0 0 1-.2001.2002h-.3614A.2003.2003 0 0 1 8.3812 8.6v-.4003a.2.2 0 0 1 .2002-.1993zm1.5244 0a.1995.1995 0 0 1 .1992.1993v.4003a.2.2 0 0 1-.1992.2002h-.3623A.2003.2003 0 0 1 9.9047 8.6v-.4003a.2.2 0 0 1 .2002-.1993zm1.5234 0c.1103 0 .2.089.2002.1993v.4003a.2004.2004 0 0 1-.2002.2002h-.3623a.2.2 0 0 1-.1992-.2002v-.4003a.199.199 0 0 1 .1992-.1993zm1.5234 0c.1103 0 .2.089.2002.1993v.4003a.2003.2003 0 0 1-.2002.2002h-.3613a.2004.2004 0 0 1-.2002-.2002v-.4003a.2.2 0 0 1 .2002-.1993zm1.5245 0a.1994.1994 0 0 1 .1992.1993v.4003c0 .1104-.0889.2-.1992.2002h-.3624A.2003.2003 0 0 1 14.476 8.6v-.4003a.2.2 0 0 1 .2001-.1993zM1.3236 3.1996c.1104 0 .2.0898.2002.2001v.4004a.2004.2004 0 0 1-.2002.2002H.9623a.2004.2004 0 0 1-.2002-.2002v-.4003a.2006.2006 0 0 1 .2002-.2003zm1.5244 0a.2.2 0 0 1 .1992.2001v.4004a.2.2 0 0 1-.1992.2002h-.3623a.2005.2005 0 0 1-.2002-.2002v-.4003a.2006.2006 0 0 1 .2002-.2003zm1.5235 0c.1103 0 .2.0898.2002.2001v.4004a.2005.2005 0 0 1-.2002.2002h-.3623a.2.2 0 0 1-.1993-.2002v-.4003a.2.2 0 0 1 .1993-.2003zm1.5234 0c.1104 0 .2.0898.2002.2001v.4004a.2004.2004 0 0 1-.2002.2002h-.3613a.2005.2005 0 0 1-.2002-.2002v-.4003a.2006.2006 0 0 1 .2002-.2003zm1.5244 0c.1103 0 .2.0899.2002.2001v.4004a.2005.2005 0 0 1-.2002.2002H7.057a.2006.2006 0 0 1-.2002-.2002v-.4003a.2007.2007 0 0 1 .2002-.2003zm1.5235 0c.1103 0 .2.0898.2001.2001v.4004a.2004.2004 0 0 1-.2001.2002h-.3614a.2004.2004 0 0 1-.2002-.2002v-.4003a.2006.2006 0 0 1 .2002-.2003zm1.5244 0c.1101.0002.199.09.1992.2001v.4004a.2.2 0 0 1-.1992.2002h-.3623a.2005.2005 0 0 1-.2002-.2002v-.4003a.2006.2006 0 0 1 .2002-.2003zm1.5234 0a.2006.2006 0 0 1 .2002.2001v.4004a.2005.2005 0 0 1-.2002.2002h-.3623a.2.2 0 0 1-.1992-.2002v-.4003a.2.2 0 0 1 .1992-.2003zm1.5234 0a.2005.2005 0 0 1 .2002.2001v.4004a.2004.2004 0 0 1-.2002.2002h-.3613a.2005.2005 0 0 1-.2002-.2002v-.4003a.2006.2006 0 0 1 .2002-.2003zm1.5245 0a.2.2 0 0 1 .1992.2001v.4004a.2.2 0 0 1-.1992.2002h-.3624a.2004.2004 0 0 1-.2001-.2002v-.4003a.2005.2005 0 0 1 .2001-.2003z"/><mask id="c" fill="#fff"><path fill-rule="evenodd" d="M7.2306 5.1127c-.2294.2195-.3734.5357-.3734.8873 0 .6627.5117 1.2 1.1428 1.2S9.143 6.6627 9.143 6c0-.345-.1386-.6559-.3605-.8748" clip-rule="evenodd"/></mask><path fill="#d80915" d="m7.2306 5.1127-.3456-.3613c-.3269.3126-.5278.759-.5278 1.2486h1c0-.2135.087-.3998.219-.526zM6.8572 6h-.5c0 .9156.7128 1.7 1.6428 1.7v-1c-.3323 0-.6428-.2902-.6428-.7zM8 7.2v.5c.93 0 1.6429-.7844 1.6429-1.7h-1c0 .4098-.3105.7-.6429.7zM9.143 6h.5c0-.4804-.1934-.919-.5094-1.2308l-.3511.356-.3512.356c.1279.126.2117.3093.2117.5188z" mask="url(#c)"/><rect width="1" height="2" x="8" y="6" fill="#d80915" rx="0"/></g></g><defs><clipPath id="a"><path fill="#fff" d="M0 0h16v12H0z"/></clipPath></defs></svg>