<svg xmlns="http://www.w3.org/2000/svg" width="16" height="12" fill="none" viewBox="0 0 16 12"><g clip-path="url(#a)"><rect width="16" height="12" fill="#fff" stroke="#f5f5f5" rx="2"/><mask id="b" width="16" height="12" x="0" y="0" maskUnits="userSpaceOnUse" style="mask-type:luminance"><rect width="16" height="12" fill="#fff" stroke="#fff" rx="2"/></mask><g mask="url(#b)"><path fill="#ff202d" fill-rule="evenodd" d="M0 4h16V0H0z" clip-rule="evenodd"/><path fill="#1895db" d="M6.857 3.1999v.7998h-.7617v-.7998l.3809-.3994zm1.5235 0v.7998h-.7617v-.7998l.3808-.3994zm1.5244 0v.7998h-.7617v-.7998l.3809-.3994z"/><path fill="#191f94" d="M7.6191 3.1999v.7998h-.7617v-.7998l.3809-.3994zm1.5235 0v.7998h-.7617v-.7998l.3808-.3994z"/><path fill="#2027ac" fill-rule="evenodd" d="M0 12h16V8H0z" clip-rule="evenodd"/><path fill="url(#c)" d="M7.6188 8.8005H6.857v-.8008h.7617zm1.5244 0h-.7627v-.8008h.7627zM6.857 7.9997h-.7618v-.7998h.7618zm1.5234 0h-.7617v-.7998h.7617zm1.5244 0h-.7617v-.7998h.7617zm-2.2861-.7998H6.857V6.4h.7617zm1.5244 0h-.7627V6.4h.7627zM6.857 6.4h-.7618v-.7998h.7618zm1.5234 0h-.7617v-.7998h.7617zm1.5244 0h-.7617v-.7998h.7617zm-2.2861-.7998H6.857v-.7998h.7617zm1.5244 0h-.7627v-.7998h.7627zM6.857 4.8005h-.7618l.3809-.8007h.3809zm1.5234 0h-.7617v-.8007h.7617zm1.5244 0h-.7617v-.8007h.3809z"/></g></g><defs><linearGradient id="c" x1="6" x2="6" y1="4" y2="9" gradientUnits="userSpaceOnUse"><stop stop-color="#ff212e"/><stop offset="1" stop-color="#fd0d1b"/></linearGradient><clipPath id="a"><path fill="#fff" d="M0 0h16v12H0z"/></clipPath></defs></svg>