<svg xmlns="http://www.w3.org/2000/svg" width="16" height="12" fill="none" viewBox="0 0 16 12"><g clip-path="url(#a)"><mask id="b" width="16" height="12" x="0" y="0" maskUnits="userSpaceOnUse" style="mask-type:luminance"><rect width="16" height="12" fill="#fff" rx="2"/></mask><g mask="url(#b)"><path fill="#e2243b" d="M0 0h16v12H0z"/></g><g clip-path="url(#c)"><mask id="d" width="16" height="12" x="0" y="0" maskUnits="userSpaceOnUse" style="mask-type:luminance"><path fill="#fff" fill-rule="evenodd" d="M0 0h16L8 12z" clip-rule="evenodd"/></mask><g mask="url(#d)"><path fill="#262626" d="M14 0c.6122 0 1.1595.2757 1.5264.709L8 12 .4727.709C.8395.2754 1.3876 0 2 0z"/><path fill="#ffcf3c" fill-rule="evenodd" d="M8 6.6 6.688 8.126l.0998-2.0532-1.9554.1049L6.2857 4.8 4.5714 3.2l2.2164.4-.3116-2.4L8 3.2l1.5238-2-.3116 2.4 2.2164-.4-1.7143 1.6 1.4533 1.3777-1.9554-.1049.0998 2.0532z" clip-rule="evenodd"/><path fill="#1984d8" fill-rule="evenodd" d="M0 8h16V4.8H0z" clip-rule="evenodd"/><path fill="#fff" fill-rule="evenodd" d="M0 12h16V8H0z" clip-rule="evenodd"/></g></g></g><defs><clipPath id="a"><path fill="#fff" d="M0 0h16v12H0z"/></clipPath><clipPath id="c"><path fill="#fff" d="M0 0h16v12H0z"/></clipPath></defs></svg>