<svg xmlns="http://www.w3.org/2000/svg" width="16" height="12" fill="none" viewBox="0 0 16 12"><g clip-path="url(#a)"><rect width="16" height="12" fill="#fff" stroke="#f5f5f5" rx="2"/><mask id="b" width="16" height="12" x="0" y="0" maskUnits="userSpaceOnUse" style="mask-type:luminance"><rect width="16" height="12" fill="#fff" stroke="#fff" rx="2"/></mask><g mask="url(#b)"><path fill="#d6182d" d="M6.0952 0h3.8095v12H6.0952z"/><path fill="#1425a2" d="M0 4h16v4H0z"/><path fill="#fff" fill-rule="evenodd" d="m6.476 7-.269.083.079-.283-.079-.283.27.083.269-.083-.079.283.079.283zm3.048 0-.269.083.079-.283-.079-.283.27.083.269-.083-.079.283.079.283zm-4.572-.8-.269.083L4.762 6l-.079-.283.27.083.269-.083L5.143 6l.079.283zm6.096 0-.269.083.078-.283-.079-.283.269.083.269-.083-.078.283.079.283zM8 5.4l-.269.083.079-.283-.079-.283L8 5l.269-.083-.079.283.079.283z" clip-rule="evenodd"/></g></g><defs><clipPath id="a"><path fill="#fff" d="M0 0h16v12H0z"/></clipPath></defs></svg>