<svg width="16" height="12" viewBox="0 0 16 12" fill="none" xmlns="http://www.w3.org/2000/svg">
<g clip-path="url(#clip0_41818_3685)">
<rect x="0.25" y="0.25" width="15.5" height="11.5" rx="1.75" fill="white" stroke="#F5F5F5" stroke-width="0.5"/>
<mask id="mask0_41818_3685" style="mask-type:luminance" maskUnits="userSpaceOnUse" x="0" y="0" width="16" height="12">
<rect x="0.25" y="0.25" width="15.5" height="11.5" rx="1.75" fill="white" stroke="white" stroke-width="0.5"/>
</mask>
<g mask="url(#mask0_41818_3685)">
<path fill-rule="evenodd" clip-rule="evenodd" d="M0 12H16V5.6H0V12Z" fill="#7CCCF5"/>
<path d="M6.4762 5.6L6.82685 5.40753L6.0762 5.6H6.4762ZM7.23636 6.98489L7.02824 7.32648L8.30819 8.10629L7.58701 6.79241L7.23636 6.98489ZM8.81992 6.94888L8.4653 6.76382L9.04292 7.28095L8.81992 6.94888ZM9.52382 5.6H9.92382L9.1692 5.41494L9.52382 5.6ZM6.4762 5.6H6.0762C6.0762 6.33046 6.4541 6.97669 7.02824 7.32648L7.23636 6.98489L7.44447 6.64329C7.1096 6.43927 6.8762 6.05248 6.8762 5.6H6.4762ZM7.23636 6.98489L7.58701 6.79241L6.82685 5.40753L6.4762 5.6L6.12555 5.79247L6.88571 7.17736L7.23636 6.98489ZM8.81992 6.94888L9.04292 7.28095C9.57681 6.92241 9.92382 6.30002 9.92382 5.6H9.52382H9.12382C9.12382 6.03342 8.9096 6.40682 8.59692 6.61681L8.81992 6.94888ZM9.52382 5.6L9.1692 5.41494L8.4653 6.76382L8.81992 6.94888L9.17454 7.13393L9.87844 5.78505L9.52382 5.6Z" fill="#445F42"/>
<ellipse cx="7.99994" cy="5.2" rx="0.761905" ry="1.2" fill="#D89F3D"/>
</g>
</g>
<defs>
<clipPath id="clip0_41818_3685">
<rect width="16" height="12" fill="white"/>
</clipPath>
</defs>
</svg>
