<svg width="16" height="12" viewBox="0 0 16 12" fill="none" xmlns="http://www.w3.org/2000/svg">
<g clip-path="url(#clip0_41818_3481)">
<rect x="0.25" y="0.25" width="15.5" height="11.5" rx="1.75" fill="white" stroke="#F5F5F5" stroke-width="0.5"/>
<mask id="mask0_41818_3481" style="mask-type:luminance" maskUnits="userSpaceOnUse" x="0" y="0" width="16" height="12">
<rect x="0.25" y="0.25" width="15.5" height="11.5" rx="1.75" fill="white" stroke="white" stroke-width="0.5"/>
</mask>
<g mask="url(#mask0_41818_3481)">
<path fill-rule="evenodd" clip-rule="evenodd" d="M0 4H16V0H0V4Z" fill="#E33F39"/>
<path fill-rule="evenodd" clip-rule="evenodd" d="M0 12H16V8H0V12Z" fill="#124BBA"/>
<path d="M7.99976 4.46699C8.83017 4.46699 9.47632 5.16887 9.47632 6.00019C9.47622 6.83143 8.83011 7.5334 7.99976 7.5334C7.16954 7.53324 6.52427 6.83134 6.52417 6.00019C6.52417 5.16896 7.16947 4.46715 7.99976 4.46699Z" stroke="#398153" stroke-width="0.666667"/>
<ellipse cx="7.99997" cy="6" rx="0.380952" ry="0.4" fill="#E5CF58"/>
</g>
</g>
<defs>
<clipPath id="clip0_41818_3481">
<rect width="16" height="12" fill="white"/>
</clipPath>
</defs>
</svg>
