<svg width="16" height="12" viewBox="0 0 16 12" fill="none" xmlns="http://www.w3.org/2000/svg">
<g clip-path="url(#clip0_41816_2829)">
<rect x="0.25" y="0.25" width="15.5" height="11.5" rx="1.75" fill="white" stroke="#F5F5F5" stroke-width="0.5"/>
<mask id="mask0_41816_2829" style="mask-type:luminance" maskUnits="userSpaceOnUse" x="0" y="0" width="16" height="12">
<rect x="0.25" y="0.25" width="15.5" height="11.5" rx="1.75" fill="white" stroke="white" stroke-width="0.5"/>
</mask>
<g mask="url(#mask0_41816_2829)">
<path fill-rule="evenodd" clip-rule="evenodd" d="M0 12H16V8H0V12Z" fill="#199E56"/>
<path fill-rule="evenodd" clip-rule="evenodd" d="M0 4H16V0H0V4Z" fill="#262626"/>
<path fill-rule="evenodd" clip-rule="evenodd" d="M0 0L7.61905 6L0 12V0Z" fill="#E6223A"/>
<path fill-rule="evenodd" clip-rule="evenodd" d="M2.66666 6.59999L2.17079 7.08115L2.2199 6.37408L1.55246 6.26701L2.10956 5.86648L1.77314 5.2518L2.41873 5.45941L2.66666 4.79999L2.91459 5.45941L3.56018 5.2518L3.22376 5.86648L3.78086 6.26701L3.11342 6.37408L3.16253 7.08115L2.66666 6.59999Z" fill="white"/>
</g>
</g>
<defs>
<clipPath id="clip0_41816_2829">
<rect width="16" height="12" fill="white"/>
</clipPath>
</defs>
</svg>
