<svg xmlns="http://www.w3.org/2000/svg" width="16" height="12" fill="none" viewBox="0 0 16 12"><g clip-path="url(#a)"><mask id="b" width="16" height="12" x="0" y="0" maskUnits="userSpaceOnUse" style="mask-type:luminance"><rect width="16" height="12" fill="#fff" rx="2"/></mask><g mask="url(#b)"><path fill="red" d="M0 0h16v12H0z"/><path fill="#fff" fill-rule="evenodd" d="M6.8571 7.2H4.9047a.3333.3333 0 0 1-.3333-.3333V5.1334A.3333.3333 0 0 1 4.9047 4.8h1.9524V2.7334A.3333.3333 0 0 1 7.1905 2.4h1.619a.3334.3334 0 0 1 .3333.3334V4.8h1.9524a.3334.3334 0 0 1 .3334.3334v1.7333a.3334.3334 0 0 1-.3334.3333H9.1428v2.0667a.3333.3333 0 0 1-.3333.3333h-1.619a.3333.3333 0 0 1-.3334-.3333z" clip-rule="evenodd"/></g></g><defs><clipPath id="a"><path fill="#fff" d="M0 0h16v12H0z"/></clipPath></defs></svg>