<svg width="16" height="12" viewBox="0 0 16 12" fill="none" xmlns="http://www.w3.org/2000/svg">
<g clip-path="url(#clip0_41813_1900)">
<rect x="0.25" y="0.25" width="15.5" height="11.5" rx="1.75" fill="white" stroke="#F5F5F5" stroke-width="0.5"/>
<mask id="mask0_41813_1900" style="mask-type:luminance" maskUnits="userSpaceOnUse" x="0" y="0" width="16" height="12">
<rect x="0.25" y="0.25" width="15.5" height="11.5" rx="1.75" fill="white" stroke="white" stroke-width="0.5"/>
</mask>
<g mask="url(#mask0_41813_1900)">
<path fill-rule="evenodd" clip-rule="evenodd" d="M0 2.4H16V0H0V2.4Z" fill="#0B389F"/>
<path fill-rule="evenodd" clip-rule="evenodd" d="M0 7.19999H16V4.79999H0V7.19999Z" fill="#0B389F"/>
<path fill-rule="evenodd" clip-rule="evenodd" d="M0 12H16V9.59998H0V12Z" fill="#0B389F"/>
<path fill-rule="evenodd" clip-rule="evenodd" d="M0 0L7.61905 6L0 12V0Z" fill="#E12A43"/>
<path fill-rule="evenodd" clip-rule="evenodd" d="M2.66663 6.61364L1.77096 7.29445L2.11084 6.18964L1.2174 5.5056L2.32313 5.5036L2.66663 4.40002L3.01013 5.5036L4.11586 5.5056L3.22242 6.18964L3.5623 7.29445L2.66663 6.61364Z" fill="white"/>
</g>
</g>
<defs>
<clipPath id="clip0_41813_1900">
<rect width="16" height="12" fill="white"/>
</clipPath>
</defs>
</svg>
