<svg width="16" height="12" viewBox="0 0 16 12" fill="none" xmlns="http://www.w3.org/2000/svg">
<g clip-path="url(#clip0_41813_2119)">
<rect width="16" height="12" rx="2" fill="white"/>
<mask id="mask0_41813_2119" style="mask-type:luminance" maskUnits="userSpaceOnUse" x="0" y="0" width="16" height="12">
<rect width="16" height="12" rx="2" fill="white"/>
</mask>
<g mask="url(#mask0_41813_2119)">
<rect width="16" height="12" fill="#95CEF5"/>
<path d="M8.36682 8.69281L9.44885 8.72699L8.59436 9.39301L8.89612 10.434L7.99963 9.82562L7.10413 10.434L7.40588 9.39301L6.55042 8.72699L7.63245 8.69281L7.99963 7.6723L8.36682 8.69281ZM5.31995 5.6391L6.40198 5.67426L5.54651 6.33929L5.84827 7.38129L4.95276 6.77191L4.05627 7.38129L4.35803 6.33929L3.50354 5.67426L4.58557 5.6391L4.95276 4.61957L5.31995 5.6391ZM11.4147 5.6391L12.4967 5.67426L11.6422 6.33929L11.943 7.38129L11.0475 6.77191L10.152 7.38129L10.4537 6.33929L9.59827 5.67426L10.6803 5.6391L11.0475 4.61957L11.4147 5.6391ZM8.36682 2.58636L9.44885 2.62054L8.59436 3.28558L8.89612 4.32758L7.99963 3.7182L7.10413 4.32758L7.40588 3.28558L6.55042 2.62054L7.63245 2.58636L7.99963 1.56586L8.36682 2.58636Z" fill="white"/>
</g>
</g>
<defs>
<clipPath id="clip0_41813_2119">
<rect width="16" height="12" fill="white"/>
</clipPath>
</defs>
</svg>
