<svg width="16" height="12" viewBox="0 0 16 12" fill="none" xmlns="http://www.w3.org/2000/svg">
<g clip-path="url(#clip0_41816_2961)">
<rect x="0.25" y="0.25" width="15.5" height="11.5" rx="1.75" fill="white" stroke="#F5F5F5" stroke-width="0.5"/>
<ellipse cx="8.00004" cy="6.00001" rx="2.66667" ry="2.665" fill="#E01B41"/>
<mask id="mask0_41816_2961" style="mask-type:luminance" maskUnits="userSpaceOnUse" x="5" y="3" width="6" height="6">
<ellipse cx="8.00004" cy="6.00001" rx="2.66667" ry="2.665" fill="white"/>
</mask>
<g mask="url(#mask0_41816_2961)">
<path fill-rule="evenodd" clip-rule="evenodd" d="M5.33338 6.32203C6.09528 7.05421 7.23814 7.49352 8.00004 6.32203C8.76195 5.15053 10.2858 5.15053 10.6667 6.32203C11.0477 7.49352 10.6667 8.66502 10.6667 8.66502H5.33338C5.33338 8.66502 4.57147 5.58984 5.33338 6.32203Z" fill="#0E4B9C"/>
</g>
<mask id="mask1_41816_2961" style="mask-type:luminance" maskUnits="userSpaceOnUse" x="0" y="0" width="16" height="12">
<rect x="0.25" y="0.25" width="15.5" height="11.5" rx="1.75" fill="white" stroke="white" stroke-width="0.5"/>
</mask>
<g mask="url(#mask1_41816_2961)">
<path opacity="0.75" d="M2.85425 7.73352C3.01166 7.63809 3.21183 7.69137 3.30054 7.85266L4.12183 9.3468C4.21045 9.50798 4.15491 9.7161 3.9978 9.81165L3.90796 9.86633C3.75053 9.96177 3.55037 9.90851 3.46167 9.74719L2.64038 8.25305C2.55176 8.09189 2.60732 7.88377 2.7644 7.78821L2.85425 7.73352ZM12.7 7.85266C12.7887 7.69157 12.9879 7.6382 13.1453 7.73352L13.2351 7.78821C13.3924 7.88368 13.4478 8.09178 13.3591 8.25305L12.5378 9.74719C12.4492 9.9084 12.2499 9.9616 12.0925 9.86633L12.0027 9.81165C11.8453 9.71621 11.789 9.50811 11.8777 9.3468L12.7 7.85266ZM3.84448 7.13391C4.00191 7.03848 4.20109 7.09174 4.28979 7.25305L5.11206 8.74719C5.20059 8.90848 5.14442 9.11664 4.98706 9.21204L4.89722 9.26672C4.73996 9.36182 4.54065 9.3085 4.4519 9.14758L3.63062 7.65247C3.542 7.49117 3.59725 7.28303 3.75464 7.18762L3.84448 7.13391ZM11.7097 7.25305C11.7984 7.09174 11.9986 7.03848 12.156 7.13391L12.2449 7.18762C12.4022 7.28299 12.4583 7.4912 12.3699 7.65247L11.5486 9.14758C11.4598 9.30878 11.2597 9.36212 11.1023 9.26672L11.0125 9.21204C10.8552 9.11655 10.7998 8.90844 10.8884 8.74719L11.7097 7.25305ZM4.4519 2.85266C4.54062 2.69156 4.73988 2.63829 4.89722 2.73352L4.98706 2.78821C5.14448 2.88364 5.20074 3.09174 5.11206 3.25305L4.28979 4.74719C4.20107 4.90839 4.00186 4.9617 3.84448 4.86633L3.75464 4.81165C3.59733 4.71617 3.54194 4.50807 3.63062 4.3468L4.4519 2.85266ZM11.1023 2.73352C11.2597 2.63809 11.4599 2.69134 11.5486 2.85266L12.3699 4.3468C12.4586 4.50812 12.4023 4.71621 12.2449 4.81165L12.156 4.86633C11.9986 4.96177 11.7984 4.90851 11.7097 4.74719L10.8884 3.25305C10.7998 3.09184 10.8553 2.88373 11.0125 2.78821L11.1023 2.73352ZM3.46167 2.25305C3.55037 2.09174 3.75053 2.03848 3.90796 2.13391L3.9978 2.18762C4.15507 2.28303 4.2103 2.49122 4.12183 2.65247L3.30054 4.14758C3.21177 4.30873 3.0116 4.36211 2.85425 4.26672L2.7644 4.21204C2.60725 4.11652 2.55179 3.90839 2.64038 3.74719L3.46167 2.25305ZM12.0925 2.13391C12.2499 2.03854 12.4492 2.09176 12.5378 2.25305L13.3591 3.74719C13.4478 3.9085 13.3925 4.11659 13.2351 4.21204L13.1453 4.26672C12.988 4.36192 12.7887 4.30848 12.7 4.14758L11.8777 2.65247C11.7893 2.49121 11.8454 2.28297 12.0027 2.18762L12.0925 2.13391Z" fill="#262626"/>
</g>
</g>
<defs>
<clipPath id="clip0_41816_2961">
<rect width="16" height="12" fill="white"/>
</clipPath>
</defs>
</svg>
