<svg xmlns="http://www.w3.org/2000/svg" width="16" height="12" fill="none" viewBox="0 0 16 12"><g clip-path="url(#a)"><mask id="b" width="16" height="12" x="0" y="0" maskUnits="userSpaceOnUse" style="mask-type:luminance"><rect width="16" height="12" fill="#fff" rx="2"/></mask><g mask="url(#b)"><path fill="#24aad5" fill-rule="evenodd" d="M0 4h16V0H0z" clip-rule="evenodd"/><path fill="#21bf75" fill-rule="evenodd" d="M0 12h16V8H0z" clip-rule="evenodd"/><path fill="#ed1845" fill-rule="evenodd" d="M0 8h16V4H0z" clip-rule="evenodd"/><path fill="#fff" d="M8 4.7998c.2354 0 .454.075.6357.2031A1 1 0 0 0 8.5713 5c-.526 0-.9522.4478-.9522 1s.4263 1 .9522 1c.0216 0 .0431-.0024.0644-.004-.1818.1283-.4001.2042-.6357.2042-.6312 0-1.1426-.5375-1.1426-1.2002S7.3688 4.7998 8 4.7998m.7617.7998c.2104 0 .3809.1795.3809.4004 0 .221-.1705.4004-.3809.4004C8.5514 6.4003 8.381 6.2209 8.381 6s.1705-.4003.3808-.4004"/></g></g><defs><clipPath id="a"><path fill="#fff" d="M0 0h16v12H0z"/></clipPath></defs></svg>