<svg xmlns="http://www.w3.org/2000/svg" width="16" height="12" fill="none" viewBox="0 0 16 12"><g clip-path="url(#a)"><rect width="16" height="12" fill="#fff" rx="2"/><mask id="b" width="16" height="12" x="0" y="0" maskUnits="userSpaceOnUse" style="mask-type:luminance"><rect width="16" height="12" fill="#fff" rx="2"/></mask><g mask="url(#b)"><path fill="url(#c)" d="M0 0h16v12H0z"/><path fill="url(#d)" fill-rule="evenodd" d="M0 0h16L0 12z" clip-rule="evenodd"/><path fill="#2c7442" fill-rule="evenodd" d="M16 0 0 12h16z" clip-rule="evenodd"/><path fill="#ffd646" d="M-1.585 11.8234 14.3076.5677l7.6155 11.855L6.0306 23.6784z"/><path fill="#fff" d="m1.994 3.7953.626.0957-.4531.4638.1074.6543-.5596-.3095-.5605.3095.1074-.6543-.4531-.4638.626-.0958.2802-.5956zm3.8096 0 .626.0957-.4532.4638.1075.6543-.5596-.3095-.5606.3095.1075-.6543-.4532-.4638.626-.0958.2803-.5956zM3.8993 2.595l.626.0957-.4532.4638.1065.6543-.5596-.3086-.5596.3086.1065-.6543-.4522-.4638.625-.0957.2803-.5948zM1.994 1.3958l.626.0948-.4531.4638.1074.6543-.5596-.3086-.5605.3086.1074-.6543-.4531-.4638.626-.0948.2802-.5957zm3.8096 0 .626.0948-.4532.4638.1075.6543-.5596-.3086-.5606.3086.1075-.6543-.4532-.4638.626-.0948.2803-.5957z"/></g></g><defs><linearGradient id="c" x1="0" x2="0" y1="0" y2="12" gradientUnits="userSpaceOnUse"><stop stop-color="#1dbe4f"/><stop offset="1" stop-color="#159b3f"/></linearGradient><linearGradient id="d" x1="0" x2="0" y1="0" y2="12" gradientUnits="userSpaceOnUse"><stop stop-color="#0660d4"/><stop offset="1" stop-color="#0051bb"/></linearGradient><clipPath id="a"><path fill="#fff" d="M0 0h16v12H0z"/></clipPath></defs></svg>