<svg xmlns="http://www.w3.org/2000/svg" width="16" height="12" fill="none" viewBox="0 0 16 12"><g clip-path="url(#a)"><mask id="b" width="16" height="12" x="0" y="0" maskUnits="userSpaceOnUse" style="mask-type:luminance"><rect width="16" height="12" fill="#fff" rx="2"/></mask><g mask="url(#b)"><path fill="#dc1f37" d="M0 0h16v12H0z"/><path fill="#042c90" d="M0 0h6.8571v5.6H0z"/><mask id="c" width="7" height="6" x="0" y="0" maskUnits="userSpaceOnUse" style="mask-type:alpha"><path fill="#042c90" d="M0 0h6.8571v5.6H0z"/></mask><g mask="url(#c)"><mask id="d" width="10" height="8" x="-2" y="-1" fill="#000" maskUnits="userSpaceOnUse"><path fill="#fff" d="M-2.1468-1.0812h10v8h-10z"/><path fill-rule="evenodd" d="M2.6422 2.4289-.1468-.0812h.3984l2.789 2.0917h.797L7.025-.0812v.2517a.333.333 0 0 1-.1333.2666L4.236 2.429v.8367l2.5264 2.2738c.0924.0831.0336.2363-.0906.2363a.136.136 0 0 1-.0814-.027L3.8375 3.684h-.7968L-.1468 5.7757v-.4183l2.789-2.0918z" clip-rule="evenodd"/></mask><path fill="#ff2e3b" fill-rule="evenodd" d="M2.6422 2.4289-.1468-.0812h.3984l2.789 2.0917h.797L7.025-.0812v.2517a.333.333 0 0 1-.1333.2666L4.236 2.429v.8367l2.5264 2.2738c.0924.0831.0336.2363-.0906.2363a.136.136 0 0 1-.0814-.027L3.8375 3.684h-.7968L-.1468 5.7757v-.4183l2.789-2.0918z" clip-rule="evenodd"/><path stroke="#fff" d="M2.6422 2.4289-.1468-.0812h.3984l2.789 2.0917h.797L7.025-.0812v.2517a.333.333 0 0 1-.1333.2666L4.236 2.429v.8367l2.5264 2.2738c.0924.0831.0336.2363-.0906.2363a.136.136 0 0 1-.0814-.027L3.8375 3.684h-.7968L-.1468 5.7757v-.4183l2.789-2.0918z" clip-rule="evenodd" mask="url(#d)"/><path fill="#fff" fill-rule="evenodd" d="M-1.046 2.0455v1.6051h3.7212V5.8a.3.3 0 0 0 .3.3h.9287a.3.3 0 0 0 .3-.3V3.6506h2.8538a.3.3 0 0 0 .3-.3V2.3455a.3.3 0 0 0-.3-.3H4.2039v-3.0523H2.6752v3.0523z" clip-rule="evenodd"/><path fill="url(#e)" fill-rule="evenodd" d="M-.1468 2.4289h3.1875V-.0812h.7968v2.5101H7.025v.8367H3.8375v2.5101h-.7968V3.2656H-.1468z" clip-rule="evenodd"/></g><path fill="#fff" fill-rule="evenodd" d="M9.9048 6V4h3.0476v2c0 1.2-1.5238 2-1.5238 2s-1.5238-.8-1.5238-2" clip-rule="evenodd"/></g><mask id="f" width="4" height="4" x="9" y="4" maskUnits="userSpaceOnUse" style="mask-type:luminance"><path fill="#fff" fill-rule="evenodd" d="M9.9048 6V4h3.0476v2c0 1.2-1.5238 2-1.5238 2s-1.5238-.8-1.5238-2" clip-rule="evenodd"/></mask><g mask="url(#f)"><circle cx="11" cy="6" r="1" fill="#65b5d2"/><path fill="url(#g)" d="M10.6672 5.6c.2102.0002.3808.1796.3808.4003-.0001.2206-.1707.3992-.3808.3994-.2103 0-.3817-.1786-.3819-.3994 0-.221.1715-.4004.3819-.4004m1.5234 0c.2104 0 .3809.1794.3809.4003-.0002.2207-.1706.3994-.3809.3994s-.3807-.1786-.3808-.3994c0-.221.1704-.4004.3808-.4004M11.4289 4.8c.2101.0002.3806.1788.3809.3994 0 .2208-.1706.4003-.3809.4004s-.3809-.1795-.3809-.4004c.0003-.2207.1706-.3994.3809-.3994"/><path fill="#2f8f22" d="M9.9048 7.2h3.0476V8H9.9048z"/></g></g><defs><linearGradient id="e" x1="0" x2="0" y1="0" y2="6" gradientUnits="userSpaceOnUse"><stop stop-color="#ff2e3b"/><stop offset="1" stop-color="#fc0d1b"/></linearGradient><linearGradient id="g" x1="10" x2="10" y1="5" y2="6" gradientUnits="userSpaceOnUse"><stop stop-color="#e20b0c"/><stop offset="1" stop-color="#d40001"/></linearGradient><clipPath id="a"><path fill="#fff" d="M0 0h16v12H0z"/></clipPath></defs></svg>