<svg xmlns="http://www.w3.org/2000/svg" width="16" height="12" fill="none" viewBox="0 0 16 12"><g clip-path="url(#a)"><rect width="16" height="12" fill="#fff" rx="2"/><mask id="b" width="16" height="12" x="0" y="0" maskUnits="userSpaceOnUse" style="mask-type:luminance"><rect width="16" height="12" fill="#fff" rx="2"/></mask><g fill-rule="evenodd" clip-rule="evenodd" mask="url(#b)"><path fill="#262626" d="M0 3.2h16V0H0z"/><path fill="#018301" d="M0 12h16V8.8H0z"/><path fill="#fff" d="M0 8.8h16V3.2H0z"/><path fill="#dc0808" d="M0 8h16V4H0z"/></g><g clip-path="url(#c)"><ellipse cx="8" cy="6" fill="#bc0000" rx="2" ry="4"/><mask id="d" width="4" height="8" x="6" y="2" maskUnits="userSpaceOnUse" style="mask-type:luminance"><ellipse cx="8" cy="6" fill="#fff" rx="2" ry="4"/></mask><g mask="url(#d)"><ellipse cx="5" cy="6" fill="#262626" rx="2" ry="4"/><ellipse cx="11" cy="6" fill="#262626" rx="2" ry="4"/><path fill="url(#e)" d="M8.0001 7.1996c.2103.0004.3809.7172.3809 1.6006 0 .8833-.1706 1.5992-.3809 1.5996-.2104 0-.3808-.716-.3808-1.5996 0-.8837.1704-1.6006.3808-1.6006m0-2.3994c.2103.0003.3809.5377.3809 1.2002S8.2104 7.1993 8 7.1996c-.2103 0-.3808-.5366-.3808-1.1992S7.7897 4.8002 8 4.8002M8 1.6c.2103.0004.3808.7164.3809 1.5996 0 .8834-.1706 1.6002-.3809 1.6006-.2104 0-.3808-.717-.3808-1.6006C7.6193 2.3161 7.7898 1.6 8 1.6"/></g></g></g><defs><clipPath id="a"><path fill="#fff" d="M0 0h16v12H0z"/></clipPath><clipPath id="c"><path fill="#fff" d="M6.0952 1.6h4V10h-4z"/></clipPath><linearGradient id="e" x1="8" x2="8" y1="2" y2="10" gradientUnits="userSpaceOnUse"><stop stop-color="#fff"/><stop offset="1" stop-color="#f0f0f0"/></linearGradient></defs></svg>