<svg width="16" height="12" viewBox="0 0 16 12" fill="none" xmlns="http://www.w3.org/2000/svg">
<g clip-path="url(#clip0_41818_3488)">
<rect x="0.25" y="0.25" width="15.5" height="11.5" rx="1.75" fill="white" stroke="#F5F5F5" stroke-width="0.5"/>
<mask id="mask0_41818_3488" style="mask-type:luminance" maskUnits="userSpaceOnUse" x="0" y="0" width="16" height="12">
<rect x="0.25" y="0.25" width="15.5" height="11.5" rx="1.75" fill="white" stroke="white" stroke-width="0.5"/>
</mask>
<g mask="url(#mask0_41818_3488)">
<path d="M0 9.59961H16V12H0V9.59961ZM16 7.2002H0V4.7998H16V7.2002ZM16 2.40039H0V0H16V2.40039Z" fill="#FA2222"/>
<path fill-rule="evenodd" clip-rule="evenodd" d="M0 0L7.61905 6L0 12V0Z" fill="#1D63F9"/>
<path fill-rule="evenodd" clip-rule="evenodd" d="M2.66672 6.76445L1.54713 7.61803L1.97431 6.23623L0.855189 5.38197L2.23879 5.38155L2.66672 4L3.09466 5.38155L4.47826 5.38197L3.35914 6.23623L3.78632 7.61803L2.66672 6.76445Z" fill="url(#paint0_linear_41818_3488)"/>
</g>
</g>
<defs>
<linearGradient id="paint0_linear_41818_3488" x1="0.761963" y1="4" x2="0.761963" y2="8" gradientUnits="userSpaceOnUse">
<stop stop-color="white"/>
<stop offset="1" stop-color="#F0F0F0"/>
</linearGradient>
<clipPath id="clip0_41818_3488">
<rect width="16" height="12" fill="white"/>
</clipPath>
</defs>
</svg>
