<svg width="16" height="12" viewBox="0 0 16 12" fill="none" xmlns="http://www.w3.org/2000/svg">
<g clip-path="url(#clip0_41813_1908)">
<mask id="mask0_41813_1908" style="mask-type:luminance" maskUnits="userSpaceOnUse" x="0" y="0" width="16" height="12">
<rect width="16" height="12" rx="2" fill="white"/>
</mask>
<g mask="url(#mask0_41813_1908)">
<rect width="16" height="12" fill="#F1361D"/>
<path d="M6.84021 6.68329L7.1488 7.17548L6.58728 7.18231L6.11853 7.50653L6.11169 6.91669L5.8031 6.4245L6.36462 6.41766L6.83435 6.09344L6.84021 6.68329ZM7.68494 4.80634L8.24353 4.74091L7.99451 5.26923L8.05603 5.85516L7.5531 5.59344L6.99451 5.65887L7.24353 5.13055L7.18201 4.54462L7.68494 4.80634ZM7.98669 3.09637L8.27869 3.60028L7.71716 3.58661L7.23767 3.89325L7.25134 3.30341L6.95935 2.7995L7.52087 2.81317L8.00037 2.50751L7.98669 3.09637ZM6.64294 1.24091L7.19666 1.33954L6.81873 1.77509L6.724 2.35614L6.30896 1.95966L5.75623 1.86005L6.13416 1.4245L6.22791 0.843445L6.64294 1.24091Z" fill="#FFDC42"/>
<path fill-rule="evenodd" clip-rule="evenodd" d="M3.80952 4.93598L2.46601 5.94162L2.96172 4.28922L1.63567 3.25833L3.28555 3.24274L3.80952 1.59998L4.33349 3.24274L5.98336 3.25833L4.65732 4.28922L5.15303 5.94162L3.80952 4.93598Z" fill="#FFDC42"/>
</g>
</g>
<defs>
<clipPath id="clip0_41813_1908">
<rect width="16" height="12" fill="white"/>
</clipPath>
</defs>
</svg>
