<svg xmlns="http://www.w3.org/2000/svg" width="16" height="12" fill="none" viewBox="0 0 16 12"><g clip-path="url(#a)"><rect width="16" height="12" fill="#fff" stroke="#f5f5f5" rx="2"/><mask id="b" width="16" height="12" x="0" y="0" maskUnits="userSpaceOnUse" style="mask-type:luminance"><rect width="16" height="12" fill="#fff" stroke="#fff" rx="2"/></mask><g fill-rule="evenodd" clip-rule="evenodd" mask="url(#b)"><path fill="#0c47b7" d="M0 8h16V4H0z"/><path fill="#e53b35" d="M0 12h16V8H0z"/></g><g clip-path="url(#c)"><mask id="d" width="9" height="11" x="1" y="1" fill="#000" maskUnits="userSpaceOnUse"><path fill="#fff" d="M.8964.9396h9v11h-9z"/><path fill-rule="evenodd" d="M3.0112 4.224c.0263-.7168.615-1.2845 1.3324-1.2845h2.3816c.7174 0 1.3062.5677 1.3325 1.2846l.1206 3.2926a1.333 1.333 0 0 1-.4405 1.0398l-.8654.779c-.7606.6845-1.9153.6845-2.6759 0l-.8654-.779a1.333 1.333 0 0 1-.4405-1.0398z" clip-rule="evenodd"/></mask><path fill="#f73744" fill-rule="evenodd" d="M3.0112 4.224c.0263-.7168.615-1.2845 1.3324-1.2845h2.3816c.7174 0 1.3062.5677 1.3325 1.2846l.1206 3.2926a1.333 1.333 0 0 1-.4405 1.0398l-.8654.779c-.7606.6845-1.9153.6845-2.6759 0l-.8654-.779a1.333 1.333 0 0 1-.4405-1.0398z" clip-rule="evenodd"/><path stroke="#fff" stroke-width="3" d="M3.0112 4.224c.0263-.7168.615-1.2845 1.3324-1.2845h2.3816c.7174 0 1.3062.5677 1.3325 1.2846l.1206 3.2926a1.333 1.333 0 0 1-.4405 1.0398l-.8654.779c-.7606.6845-1.9153.6845-2.6759 0l-.8654-.779a1.333 1.333 0 0 1-.4405-1.0398z" clip-rule="evenodd" mask="url(#d)"/><mask id="f" width="9" height="11" x="1" y="1" maskUnits="userSpaceOnUse" style="mask-type:luminance"><mask id="e" width="9" height="11" x="1" y="1" fill="#000" maskUnits="userSpaceOnUse"><path fill="#fff" d="M.8964.9396h9v11h-9z"/><path fill-rule="evenodd" d="M3.0112 4.224c.0263-.7168.615-1.2845 1.3324-1.2845h2.3816c.7174 0 1.3062.5677 1.3325 1.2846l.1206 3.2926a1.333 1.333 0 0 1-.4405 1.0398l-.8654.779c-.7606.6845-1.9153.6845-2.6759 0l-.8654-.779a1.333 1.333 0 0 1-.4405-1.0398z" clip-rule="evenodd"/></mask><path fill="#fff" fill-rule="evenodd" d="M3.0112 4.224c.0263-.7168.615-1.2845 1.3324-1.2845h2.3816c.7174 0 1.3062.5677 1.3325 1.2846l.1206 3.2926a1.333 1.333 0 0 1-.4405 1.0398l-.8654.779c-.7606.6845-1.9153.6845-2.6759 0l-.8654-.779a1.333 1.333 0 0 1-.4405-1.0398z" clip-rule="evenodd"/><path fill-rule="evenodd" stroke="#fff" stroke-width="3" d="M3.0112 4.224c.0263-.7168.615-1.2845 1.3324-1.2845h2.3816c.7174 0 1.3062.5677 1.3325 1.2846l.1206 3.2926a1.333 1.333 0 0 1-.4405 1.0398l-.8654.779c-.7606.6845-1.9153.6845-2.6759 0l-.8654-.779a1.333 1.333 0 0 1-.4405-1.0398z" clip-rule="evenodd" mask="url(#e)"/></mask><g mask="url(#f)"><path fill="#fff" fill-rule="evenodd" d="M5.1535 7.2729a.3333.3333 0 0 0-.3334-.3333H4.344a.3333.3333 0 0 1-.3334-.3334V6.473a.3333.3333 0 0 1 .3334-.3333h.476a.3333.3333 0 0 0 .3334-.3334V5.673a.3333.3333 0 0 0-.3334-.3333h-.095a.3333.3333 0 0 1-.3333-.3334V4.873a.3333.3333 0 0 1 .3333-.3333h.0952a.3333.3333 0 0 0 .3334-.3334V4.073a.3333.3333 0 0 1 .3333-.3333h.0953c.184 0 .3333.1492.3333.3333v.1333c0 .1841.1492.3334.3333.3334h.0953a.3333.3333 0 0 1 .3333.3333v.1333a.3333.3333 0 0 1-.3333.3334h-.0953a.3333.3333 0 0 0-.3333.3333v.1333c0 .1841.1492.3334.3333.3334h.4762a.3333.3333 0 0 1 .3333.3333v.1333a.3333.3333 0 0 1-.3333.3334h-.4762a.3333.3333 0 0 0-.3333.3333v.9333a.3333.3333 0 0 1-.3334.3334h-.0952a.3333.3333 0 0 1-.3333-.3334z" clip-rule="evenodd"/><path fill="#1251a1" d="M5.534 8.1394c.3027 0 .5617.1867.6846.4551.9281.1527 1.6016.6079 1.6016 1.1455-.0005.6625-1.024 1.1992-2.2861 1.1992-1.262-.0001-2.2847-.5367-2.2852-1.1992 0-.5375.6728-.9937 1.6006-1.1465.123-.268.3823-.454.6846-.454"/></g></g></g><defs><clipPath id="a"><path fill="#fff" d="M0 0h16v12H0z"/></clipPath><clipPath id="c"><path fill="#fff" d="M2.6666 2.4H8.381v7.2H2.6666z"/></clipPath></defs></svg>