<svg width="16" height="12" viewBox="0 0 16 12" fill="none" xmlns="http://www.w3.org/2000/svg">
<g clip-path="url(#clip0_41818_3998)">
<rect width="16" height="12" rx="2" fill="white"/>
<mask id="mask0_41818_3998" style="mask-type:luminance" maskUnits="userSpaceOnUse" x="0" y="0" width="16" height="12">
<rect width="16" height="12" rx="2" fill="white"/>
</mask>
<g mask="url(#mask0_41818_3998)">
<path fill-rule="evenodd" clip-rule="evenodd" d="M0 8H16V4H0V8Z" fill="#063191"/>
<path fill-rule="evenodd" clip-rule="evenodd" d="M0 12H16V8H0V12Z" fill="#E2213B"/>
<path d="M5.71423 6.40039C5.92457 6.40039 6.09499 6.57898 6.09509 6.7998C6.09509 7.02072 5.92463 7.2002 5.71423 7.2002C5.50388 7.20014 5.33337 7.02069 5.33337 6.7998C5.33347 6.57901 5.50394 6.40044 5.71423 6.40039ZM10.2855 6.40039C10.4959 6.40039 10.6663 6.57898 10.6664 6.7998C10.6664 7.02072 10.4959 7.2002 10.2855 7.2002C10.0752 7.20006 9.90466 7.02064 9.90466 6.7998C9.90476 6.57906 10.0753 6.40052 10.2855 6.40039ZM6.47595 5.2002C6.68622 5.2002 6.85661 5.37888 6.85681 5.59961C6.85681 5.82052 6.68635 6 6.47595 6C6.26569 5.99984 6.09509 5.82043 6.09509 5.59961C6.09529 5.37897 6.26581 5.20035 6.47595 5.2002ZM9.5238 5.2002C9.73407 5.2002 9.90446 5.37888 9.90466 5.59961C9.90466 5.82052 9.7342 6 9.5238 6C9.31343 5.99997 9.14294 5.82051 9.14294 5.59961C9.14315 5.37889 9.31356 5.20022 9.5238 5.2002ZM8.00037 4.7998C8.21061 4.79999 8.38123 4.9794 8.38123 5.2002C8.38113 5.42091 8.21055 5.59942 8.00037 5.59961C7.79003 5.59961 7.61961 5.42102 7.61951 5.2002C7.61951 4.97928 7.78997 4.7998 8.00037 4.7998Z" fill="white"/>
<path fill-rule="evenodd" clip-rule="evenodd" d="M0 4H16V0H0V4Z" fill="#FFD044"/>
</g>
</g>
<defs>
<clipPath id="clip0_41818_3998">
<rect width="16" height="12" fill="white"/>
</clipPath>
</defs>
</svg>
