<svg width="16" height="12" viewBox="0 0 16 12" fill="none" xmlns="http://www.w3.org/2000/svg">
<g clip-path="url(#clip0_41818_4377)">
<rect width="16" height="12" rx="2" fill="white"/>
<mask id="mask0_41818_4377" style="mask-type:luminance" maskUnits="userSpaceOnUse" x="0" y="0" width="16" height="12">
<rect width="16" height="12" rx="2" fill="white"/>
</mask>
<g mask="url(#mask0_41818_4377)">
<rect width="16" height="12" fill="#19BFBF"/>
<path d="M8 1.60025C10.4299 1.60028 12.4002 3.56978 12.4004 5.99966C12.4004 8.4297 10.4301 10.4 8 10.4001C5.56992 10.4001 3.59961 8.42972 3.59961 5.99966C3.59979 3.56976 5.57003 1.60025 8 1.60025ZM6.80957 6.40005C6.86796 7.74857 7.21885 8.94057 7.76758 9.59146C7.84445 9.59636 7.92189 9.60025 8 9.60025C8.07778 9.60025 8.15489 9.59632 8.23145 9.59146C8.7804 8.94068 9.13203 7.7489 9.19043 6.40005H6.80957ZM9.99121 6.40005C9.94731 7.51695 9.71824 8.55095 9.32812 9.34537C10.54 8.86361 11.4285 7.74399 11.5771 6.40005H9.99121ZM4.42285 6.40005C4.5715 7.74369 5.45946 8.86342 6.6709 9.34537C6.2809 8.551 6.05268 7.51677 6.00879 6.40005H4.42285ZM8 2.40005C7.92191 2.40005 7.84443 2.40297 7.76758 2.40787C7.21863 3.05873 6.86792 4.25134 6.80957 5.60025H9.19043C9.13206 4.25101 8.78062 3.05863 8.23145 2.40787C8.15491 2.40301 8.07776 2.40006 8 2.40005ZM9.32812 2.65396C9.71843 3.44853 9.94733 4.48299 9.99121 5.60025H11.5771C11.4287 4.25598 10.5403 3.13557 9.32812 2.65396ZM6.6709 2.65396C5.45911 3.13575 4.57131 4.25628 4.42285 5.60025H6.00879C6.05266 4.48316 6.28071 3.44848 6.6709 2.65396Z" fill="white"/>
</g>
</g>
<defs>
<clipPath id="clip0_41818_4377">
<rect width="16" height="12" fill="white"/>
</clipPath>
</defs>
</svg>
