<svg width="16" height="12" viewBox="0 0 16 12" fill="none" xmlns="http://www.w3.org/2000/svg">
<g clip-path="url(#clip0_41818_3323)">
<rect x="0.25" y="0.25" width="15.5" height="11.5" rx="1.75" fill="white" stroke="#F5F5F5" stroke-width="0.5"/>
<mask id="mask0_41818_3323" style="mask-type:luminance" maskUnits="userSpaceOnUse" x="0" y="0" width="16" height="12">
<rect x="0.25" y="0.25" width="15.5" height="11.5" rx="1.75" fill="white" stroke="white" stroke-width="0.5"/>
</mask>
<g mask="url(#mask0_41818_3323)">
<mask id="path-3-inside-1_41818_3323" fill="white">
<path fill-rule="evenodd" clip-rule="evenodd" d="M0 0H1.31366C1.45044 0 1.58391 0.0420731 1.69597 0.120512L8.84743 5.12654C9.40812 5.51901 9.13041 6.4 8.44601 6.4H4.57143L9.3437 10.7845C9.81353 11.2162 9.50813 12 8.87011 12H0V0Z"/>
</mask>
<path fill-rule="evenodd" clip-rule="evenodd" d="M0 0H1.31366C1.45044 0 1.58391 0.0420731 1.69597 0.120512L8.84743 5.12654C9.40812 5.51901 9.13041 6.4 8.44601 6.4H4.57143L9.3437 10.7845C9.81353 11.2162 9.50813 12 8.87011 12H0V0Z" fill="#EE1B44" stroke="#0543A8" stroke-width="1.6" stroke-linejoin="round" mask="url(#path-3-inside-1_41818_3323)"/>
<path d="M3.58618 8.2346L4.45532 8.18772L3.80884 8.80003L4.45532 9.41233L3.58618 9.36546L3.63013 10.2785L3.04712 9.59983L2.46411 10.2785L2.50903 9.36546L1.63989 9.41233L2.2854 8.80003L1.63989 8.18772L2.50903 8.2346L2.46411 7.32249L3.04712 8.00022L3.63013 7.32249L3.58618 8.2346ZM3.45142 3.97581L4.10376 3.94065L3.61938 4.39964L3.91235 4.67796C4.13142 4.6148 4.33413 4.53088 4.51294 4.426C4.33522 5.10246 3.74702 5.59983 3.04614 5.59983C2.34535 5.59969 1.757 5.10244 1.57935 4.426C1.75848 4.53112 1.96139 4.61576 2.18091 4.67893L2.47583 4.39964L1.99146 3.94065L2.6438 3.97581L2.6106 3.29124L3.0481 3.80003L3.48462 3.29124L3.45142 3.97581Z" fill="white"/>
</g>
</g>
<defs>
<clipPath id="clip0_41818_3323">
<rect width="16" height="12" fill="white"/>
</clipPath>
</defs>
</svg>
