<svg xmlns="http://www.w3.org/2000/svg" width="16" height="12" fill="none" viewBox="0 0 16 12"><g clip-path="url(#a)"><rect width="16" height="12" fill="#fff" rx="2"/><mask id="b" width="16" height="12" x="0" y="0" maskUnits="userSpaceOnUse" style="mask-type:luminance"><rect width="16" height="12" fill="#fff" rx="2"/></mask><g mask="url(#b)"><path fill="#f22a46" d="M0 0h16v12H0z"/><path fill="#fff04d" d="m9.169 3.6323 1.4443-.8281-.5069 1.5576 1.669-.1357-1.1494 1.1894 1.5644.584-1.5644.585 1.1494 1.1894-1.669-.1357.5069 1.5576-1.4443-.8281-.2364 1.6181L8 8.6274l-.9326 1.3584-.2354-1.6181-1.4443.8281.5068-1.5576-1.6699.1357L5.374 6.5845l-1.5644-.585 1.5644-.584-1.1494-1.1894 1.67.1357-.5069-1.5576 1.4443.8281.2354-1.6181L8 3.3726l.9326-1.3584zM8 3.399c-1.4724.0002-2.6657 1.1642-2.666 2.6006C5.334 7.4361 6.5274 8.601 8 8.6011c1.4726-.0002 2.667-1.165 2.667-2.6016C10.6667 4.5632 9.4724 3.3991 8 3.399m0 .7432c1.052 0 1.9043.8322 1.9043 1.8584C9.9041 7.0265 9.0518 7.8579 8 7.8579s-1.904-.8314-1.9043-1.8574C6.0957 4.9743 6.948 4.142 8 4.142"/></g></g><defs><clipPath id="a"><path fill="#fff" d="M0 0h16v12H0z"/></clipPath></defs></svg>