<svg xmlns="http://www.w3.org/2000/svg" width="16" height="12" fill="none" viewBox="0 0 16 12"><g clip-path="url(#a)"><rect width="16" height="12" fill="#fff" stroke="#f5f5f5" rx="2"/><mask id="b" width="16" height="12" x="0" y="0" maskUnits="userSpaceOnUse" style="mask-type:luminance"><rect width="16" height="12" fill="#fff" stroke="#fff" rx="2"/></mask><g mask="url(#b)"><path fill="#e7832c" fill-rule="evenodd" d="M11.4286 2c.2083-.1094.4267.1279.3006.3264l-.262.4128a.36.36 0 0 1-.0976.102l-1.0409.7287a.525.525 0 0 0-.0791.7921l.0361.038a.58.58 0 0 1 0 .8l-.1313.1379a.4795.4795 0 0 1-.57.0938.4795.4795 0 0 0-.6559.2184l-.0576.121a.608.608 0 0 1-.3483.3126l-.7966.2788a.67.67 0 0 1-.2202.0375h-.3139a.53.53 0 0 0-.4787.3022.53.53 0 0 1-.7251.2415l-.9385-.4927a.67.67 0 0 1-.1729-.1305l-.5286-.555a.57.57 0 0 1-.1576-.3941v-.3048A.2667.2667 0 0 1 4.4572 4.8c.073 0 .1427-.03.193-.0828l.489-.5134A.657.657 0 0 1 5.6149 4a.657.657 0 0 0 .6258-.458l.0532-.1674a.6667.6667 0 0 1 .7724-.4507l1.1607.2437a.67.67 0 0 0 .3063-.0076l1.2982-.3408a.67.67 0 0 0 .1406-.0545l.6947-.3647z" clip-rule="evenodd"/><path stroke="#445128" stroke-linecap="round" d="M9.143 8.8s1.143-.4 1.524-1.2m-3.81 1.2s-1.143-.4-1.524-1.2"/></g></g><defs><clipPath id="a"><path fill="#fff" d="M0 0h16v12H0z"/></clipPath></defs></svg>