<svg xmlns="http://www.w3.org/2000/svg" width="16" height="12" fill="none" viewBox="0 0 16 12"><g clip-path="url(#a)"><mask id="b" width="16" height="12" x="0" y="0" maskUnits="userSpaceOnUse" style="mask-type:luminance"><rect width="16" height="12" fill="#fff" rx="2"/></mask><g mask="url(#b)"><path fill="#108753" fill-rule="evenodd" d="M0 4.8h16V0H0zM0 12h16V7.2H0z" clip-rule="evenodd"/><path fill="#fff" d="M9.1426 0v4.7998H16v2.4004H9.1426V12H6.8574V7.2002H0V4.7998h6.8574V0z"/><path fill="#262626" d="M8.3809 0v5.5996H16v.8008H8.3809V12H7.619V6.4004H0v-.8008h7.6191V0z"/><path fill="#fcd449" d="M7.6191 0v4.7998H16v.7998H7.6191V12h-.7617V5.5996H0v-.7998h6.8574V0z"/><circle cx="8" cy="6" r="3" fill="url(#c)"/><circle cx="8" cy="6" r="2" stroke="#0e673f" stroke-dasharray="0.5 1.5" stroke-linecap="round"/></g></g><defs><linearGradient id="c" x1="5" x2="5" y1="3" y2="9" gradientUnits="userSpaceOnUse"><stop stop-color="#e02c42"/><stop offset="1" stop-color="#d22036"/></linearGradient><clipPath id="a"><path fill="#fff" d="M0 0h16v12H0z"/></clipPath></defs></svg>