<svg xmlns="http://www.w3.org/2000/svg" width="16" height="12" fill="none" viewBox="0 0 16 12"><g clip-path="url(#a)"><mask id="b" width="16" height="12" x="0" y="0" maskUnits="userSpaceOnUse" style="mask-type:luminance"><rect width="16" height="12" fill="#fff" rx="2"/></mask><g mask="url(#b)"><path fill="#0a17a7" d="M0 0h16v12H0z"/><path fill="#fff" fill-rule="evenodd" d="m3.429 9.8-.672.371.128-.785-.543-.556.751-.115L3.429 8l.336.715.751.115-.543.556.128.785zm8 .6-.539.166.158-.566-.158-.566.539.166.539-.166-.158.566.158.566zm0-7.6-.539.166.158-.566-.158-.566.539.166.539-.166-.158.566.158.566zm2.285 2.4-.539.166.158-.566-.158-.566.539.166.539-.166-.158.566.158.566zM9.143 6l-.539.166.158-.566-.158-.566.539.166.539-.166-.158.566.158.566zm3.428 1-.269.083.079-.283-.079-.283.269.083.269-.083-.079.283.079.283z" clip-rule="evenodd"/><mask id="c" width="7" height="6" x="0" y="0" maskUnits="userSpaceOnUse" style="mask-type:alpha"><path fill="#042c90" d="M0 0h6.8571v5.6H0z"/></mask><g mask="url(#c)"><mask id="d" width="10" height="8" x="-2" y="-1" fill="#000" maskUnits="userSpaceOnUse"><path fill="#fff" d="M-2.1469-1.0812h10v8h-10z"/><path fill-rule="evenodd" d="M2.6422 2.4289-.1468-.0812h.3984l2.789 2.0917h.7969L7.0249-.0812v.2517a.333.333 0 0 1-.1333.2666L4.236 2.429v.8367l2.5265 2.2738c.0923.0831.0335.2363-.0907.2363a.136.136 0 0 1-.0813-.027L3.8374 3.684h-.7968L-.1469 5.7757v-.4183l2.789-2.0918z" clip-rule="evenodd"/></mask><path fill="#ff2e3b" fill-rule="evenodd" d="M2.6422 2.4289-.1468-.0812h.3984l2.789 2.0917h.7969L7.0249-.0812v.2517a.333.333 0 0 1-.1333.2666L4.236 2.429v.8367l2.5265 2.2738c.0923.0831.0335.2363-.0907.2363a.136.136 0 0 1-.0813-.027L3.8374 3.684h-.7968L-.1469 5.7757v-.4183l2.789-2.0918z" clip-rule="evenodd"/><path stroke="#fff" d="M2.6422 2.4289-.1468-.0812h.3984l2.789 2.0917h.7969L7.0249-.0812v.2517a.333.333 0 0 1-.1333.2666L4.236 2.429v.8367l2.5265 2.2738c.0923.0831.0335.2363-.0907.2363a.136.136 0 0 1-.0813-.027L3.8374 3.684h-.7968L-.1469 5.7757v-.4183l2.789-2.0918z" clip-rule="evenodd" mask="url(#d)"/><path fill="#fff" fill-rule="evenodd" d="M-1.046 2.0455v1.6051h3.721V5.8a.3.3 0 0 0 .3.3h.9287a.3.3 0 0 0 .3-.3V3.6506h2.8538a.3.3 0 0 0 .3-.3V2.3455a.3.3 0 0 0-.3-.3H4.2038v-3.0523H2.6751v3.0523z" clip-rule="evenodd"/><path fill="url(#e)" fill-rule="evenodd" d="M-.1469 2.4289h3.1875V-.0812h.7969v2.5101h3.1874v.8367H3.8376v2.5101h-.7969V3.2656H-.1469z" clip-rule="evenodd"/></g></g></g><defs><linearGradient id="e" x1="0" x2="0" y1="0" y2="6" gradientUnits="userSpaceOnUse"><stop stop-color="#ff2e3b"/><stop offset="1" stop-color="#fc0d1b"/></linearGradient><clipPath id="a"><path fill="#fff" d="M0 0h16v12H0z"/></clipPath></defs></svg>