<svg xmlns="http://www.w3.org/2000/svg" width="16" height="12" fill="none" viewBox="0 0 16 12"><g clip-path="url(#a)"><rect width="16" height="12" fill="#fff" rx="2"/><mask id="b" width="16" height="12" x="0" y="0" maskUnits="userSpaceOnUse" style="mask-type:luminance"><rect width="16" height="12" fill="#fff" rx="2"/></mask><g mask="url(#b)"><path fill="#f32249" d="M0 0h16v12H0z"/><rect width="11" height="7" x="2" y="2" fill="#15a04f" rx="1"/><path fill="#fff" d="M8.7623 3.1995c.196 0 .3865.0243.5703.0665C8.135 3.541 7.238 4.6602 7.238 6.0003c.0002 1.34.8972 2.4584 2.0947 2.7334a2.55 2.55 0 0 1-.5703.0664c-1.4726 0-2.6668-1.2535-2.667-2.7998 0-1.5464 1.1943-2.8008 2.667-2.8008"/></g></g><defs><clipPath id="a"><path fill="#fff" d="M0 0h16v12H0z"/></clipPath></defs></svg>