<svg width="16" height="12" viewBox="0 0 16 12" fill="none" xmlns="http://www.w3.org/2000/svg">
<g clip-path="url(#clip0_41818_3335)">
<rect x="0.25" y="0.25" width="15.5" height="11.5" rx="1.75" fill="white" stroke="#F5F5F5" stroke-width="0.5"/>
<mask id="mask0_41818_3335" style="mask-type:luminance" maskUnits="userSpaceOnUse" x="0" y="0" width="16" height="12">
<rect x="0.25" y="0.25" width="15.5" height="11.5" rx="1.75" fill="white" stroke="white" stroke-width="0.5"/>
</mask>
<g mask="url(#mask0_41818_3335)">
<path fill-rule="evenodd" clip-rule="evenodd" d="M0 12H16V8.00002H0V12Z" fill="#138E16"/>
<path fill-rule="evenodd" clip-rule="evenodd" d="M0 12H5.33333V8H16V4H5.33333V0H0V12Z" fill="#ED2B35"/>
<path fill-rule="evenodd" clip-rule="evenodd" d="M2.66663 2.8948L2.00548 3.85072L2.34865 2.74329L1.18103 2.82788L2.27011 2.40286L1.47527 1.55241L2.49016 2.12985L2.66663 0.984772L2.8431 2.12985L3.85799 1.55241L3.06315 2.40286L4.15224 2.82788L2.98462 2.74329L3.32779 3.85072L2.66663 2.8948Z" fill="white"/>
</g>
</g>
<defs>
<clipPath id="clip0_41818_3335">
<rect width="16" height="12" fill="white"/>
</clipPath>
</defs>
</svg>
