<svg xmlns="http://www.w3.org/2000/svg" width="16" height="12" fill="none" viewBox="0 0 16 12"><g clip-path="url(#a)"><rect width="16" height="12" fill="#fff" rx="2"/><mask id="b" width="16" height="12" x="0" y="0" maskUnits="userSpaceOnUse" style="mask-type:luminance"><rect width="16" height="12" fill="#fff" rx="2"/></mask><g mask="url(#b)"><path fill="#d02f44" d="M16 12H0v-.7998h16zm0-1.5996H0v-.8008h16zm0-1.6006H0V8h16zm0-1.5996H0v-.7998h16zm0-1.6006H0v-.7998h16zM16 4H0v-.7998h16zm0-1.5996H0v-.8008h16zm0-1.6006H0V0h16z"/><path fill="#46467f" d="M0 0h6.8571v5.6H0z"/><path fill="url(#c)" d="M1.143 4.0295c.2103 0 .3808.173.3808.3857-.0002.2126-.1706.3848-.3809.3848-.2102 0-.3806-.1722-.3808-.3848 0-.2127.1705-.3857.3808-.3857m1.5234 0c.2104 0 .3808.173.3808.3857-.0002.2126-.1705.3848-.3808.3848-.2101-.0002-.3807-.1723-.3809-.3848 0-.2126.1706-.3855.3809-.3857m1.5244 0c.2103.0001.3809.173.3809.3857-.0002.2125-.1708.3846-.3809.3848-.2103 0-.3807-.1722-.3809-.3848 0-.2127.1705-.3857.3809-.3857m1.5234 0c.2104 0 .3809.173.3809.3857-.0002.2126-.1706.3848-.3809.3848-.2102 0-.3806-.1723-.3808-.3848 0-.2127.1705-.3857.3808-.3857M1.9047 3.259c.2104 0 .3808.173.3808.3857s-.1705.3848-.3808.3848-.3808-.1722-.3809-.3848c0-.2127.1705-.3857.3809-.3857m1.5234 0c.2104 0 .3818.173.3818.3857s-.1715.3848-.3818.3848c-.2101-.0003-.3808-.1723-.3809-.3848 0-.2126.1707-.3855.3809-.3857m1.5244 0c.2103 0 .3809.173.3809.3857-.0001.2126-.1706.3847-.3809.3848s-.3807-.1722-.3808-.3848c0-.2127.1704-.3857.3808-.3857M1.143 2.4894c.2104 0 .3809.172.3809.3848s-.1705.3847-.3809.3848c-.2103 0-.3808-.1721-.3808-.3848s.1705-.3848.3808-.3848m1.5235 0c.2104 0 .3808.172.3808.3848s-.1704.3848-.3808.3848c-.2102-.0002-.3808-.1722-.3809-.3848s.1706-.3846.3809-.3848m1.5244 0c.2103.0002.3809.1722.3809.3848s-.1707.3846-.3809.3848c-.2104 0-.3808-.1721-.3809-.3848s.1705-.3848.3809-.3848m1.5234 0c.2104 0 .3809.172.3809.3848s-.1705.3848-.3809.3848c-.2103 0-.3808-.1721-.3808-.3848s.1705-.3847.3808-.3848M1.9047 1.719c.2103 0 .3808.1721.3808.3848s-.1704.3857-.3808.3857-.3809-.173-.3809-.3857.1705-.3847.3809-.3848m1.5234 0c.2104 0 .3818.1721.3818.3848s-.1714.3857-.3818.3857c-.2102-.0002-.3809-.1731-.3809-.3857.0001-.2125.1707-.3845.3809-.3848m1.5244 0c.2103.0001.3808.1722.3809.3848 0 .2127-.1706.3856-.3809.3857s-.3808-.173-.3808-.3857.1705-.3848.3808-.3848M1.143.9484c.2103 0 .3808.1722.3809.3848 0 .2127-.1705.3857-.3809.3857s-.3808-.173-.3808-.3857c.0001-.2126.1705-.3848.3808-.3848m1.5235 0c.2103 0 .3807.1722.3808.3848 0 .2127-.1704.3857-.3808.3857-.2103-.0002-.3809-.1731-.3809-.3857.0002-.2125.1707-.3846.3809-.3848m1.5244 0c.2102.0002.3807.1723.3809.3848 0 .2126-.1706.3856-.3809.3857s-.3809-.173-.3809-.3857c.0002-.2126.1706-.3848.3809-.3848m1.5234 0c.2103 0 .3807.1722.3809.3848 0 .2127-.1705.3857-.3809.3857-.2103 0-.3808-.173-.3808-.3857.0001-.2126.1706-.3847.3808-.3848"/></g></g><defs><linearGradient id="c" x1="1" x2="1" y1="1" y2="5" gradientUnits="userSpaceOnUse"><stop stop-color="#fff"/><stop offset="1" stop-color="#f0f0f0"/></linearGradient><clipPath id="a"><path fill="#fff" d="M0 0h16v12H0z"/></clipPath></defs></svg>