<svg xmlns="http://www.w3.org/2000/svg" width="16" height="12" fill="none" viewBox="0 0 16 12"><g clip-path="url(#a)"><rect width="16" height="12" fill="#fff" stroke="#f5f5f5" rx="2"/><mask id="b" width="16" height="12" x="0" y="0" maskUnits="userSpaceOnUse" style="mask-type:luminance"><rect width="16" height="12" fill="#fff" stroke="#fff" rx="2"/></mask><g fill-rule="evenodd" clip-rule="evenodd" mask="url(#b)"><path fill="#0884e6" d="M0 4h16V0H0zm0 8h16V8H0z"/><path fill="#0e88e9" d="m8 6.4-.539.166L7.619 6l-.158-.566L8 5.6l.539-.166L8.381 6l.158.566zm3.048-.8-.539.166.158-.566-.158-.566.539.166.539-.166-.158.566.158.566zm0 1.6-.539.166.158-.566-.158-.566.539.166.539-.166-.158.566.158.566zm-6.096 0-.539.166.158-.566-.158-.566.539.166.539-.166-.158.566.158.566zm0-1.6-.539.166.158-.566-.158-.566.539.166.539-.166-.158.566.158.566z"/></g></g><defs><clipPath id="a"><path fill="#fff" d="M0 0h16v12H0z"/></clipPath></defs></svg>