<svg width="16" height="12" viewBox="0 0 16 12" fill="none" xmlns="http://www.w3.org/2000/svg">
<g clip-path="url(#clip0_41813_2786)">
<rect x="0.25" y="0.25" width="15.5" height="11.5" rx="1.75" fill="white" stroke="#F5F5F5" stroke-width="0.5"/>
<mask id="path-2-outside-1_41813_2786" maskUnits="userSpaceOnUse" x="5.09521" y="2.82376" width="6" height="5" fill="black">
<rect fill="white" x="5.09521" y="2.82376" width="6" height="5"/>
<path fill-rule="evenodd" clip-rule="evenodd" d="M6.09521 7.0881L7.99998 3.82376L9.90474 7.0881L6.09521 7.0881Z"/>
</mask>
<path fill-rule="evenodd" clip-rule="evenodd" d="M6.09521 7.0881L7.99998 3.82376L9.90474 7.0881L6.09521 7.0881Z" stroke="#093EC5" mask="url(#path-2-outside-1_41813_2786)"/>
<mask id="path-3-outside-2_41813_2786" maskUnits="userSpaceOnUse" x="5.09521" y="3.91187" width="6" height="6" fill="black">
<rect fill="white" x="5.09521" y="3.91187" width="6" height="6"/>
<path fill-rule="evenodd" clip-rule="evenodd" d="M6.09521 4.91187L7.99998 8.17621L9.90474 4.91187L6.09521 4.91187Z"/>
</mask>
<path fill-rule="evenodd" clip-rule="evenodd" d="M6.09521 4.91187L7.99998 8.17621L9.90474 4.91187L6.09521 4.91187Z" stroke="#093EC5" mask="url(#path-3-outside-2_41813_2786)"/>
<mask id="mask0_41813_2786" style="mask-type:luminance" maskUnits="userSpaceOnUse" x="0" y="0" width="16" height="12">
<rect x="0.25" y="0.25" width="15.5" height="11.5" rx="1.75" fill="white" stroke="white" stroke-width="0.5"/>
</mask>
<g mask="url(#mask0_41813_2786)">
<path fill-rule="evenodd" clip-rule="evenodd" d="M0 2.4H16V0H0V2.4Z" fill="#0E46D4"/>
<path fill-rule="evenodd" clip-rule="evenodd" d="M0 12H16V9.60001H0V12Z" fill="#0E46D4"/>
</g>
</g>
<defs>
<clipPath id="clip0_41813_2786">
<rect width="16" height="12" fill="white"/>
</clipPath>
</defs>
</svg>
