<svg xmlns="http://www.w3.org/2000/svg" width="16" height="12" fill="none" viewBox="0 0 16 12"><g clip-path="url(#a)"><rect width="16" height="12" fill="#fff" stroke="#f5f5f5" rx="2"/><mask id="b" width="16" height="12" x="0" y="0" maskUnits="userSpaceOnUse" style="mask-type:luminance"><rect width="16" height="12" fill="#fff" stroke="#fff" rx="2"/></mask><g mask="url(#b)"><path fill="#0a632f" d="M16 12H4.5713V0H16z"/><path fill="#fff" fill-rule="evenodd" d="M13.5258 6.6115c-.0734.7103-.378 1.3928-.9164 1.928-1.2833 1.2755-3.4091 1.2307-4.748-.1-1.339-1.3309-1.384-3.4437-.1007-4.7192.5384-.5351 1.2251-.8378 1.9398-.9107a3.17 3.17 0 0 0-.6328.4879c-1.1666 1.1595-1.2244 2.9822-.1289 4.071S11.8682 8.4 13.035 7.2404a3.16 3.16 0 0 0 .4909-.6289m-1.473-1.5026L11.871 6.187l-.5082-.9696-1.0879.1613.7707-.78-.4905-.9785.9845.4875.7848-.766-.1623 1.0812.9755.5051z" clip-rule="evenodd"/></g></g><defs><clipPath id="a"><path fill="#fff" d="M0 0h16v12H0z"/></clipPath></defs></svg>