<svg xmlns="http://www.w3.org/2000/svg" width="16" height="12" fill="none" viewBox="0 0 16 12"><g clip-path="url(#a)"><rect width="16" height="12" fill="#009f60" rx="2"/><mask id="b" width="16" height="12" x="0" y="0" maskUnits="userSpaceOnUse" style="mask-type:luminance"><rect width="16" height="12" fill="#fff" rx="2"/></mask><g mask="url(#b)"><path fill="#ea8b42" d="M13.7142 6.4h2.2857V12h-2.2857z"/><path fill="#1a1919" fill-rule="evenodd" d="M11.4286 12h2.4405V6.4h-2.4405z" clip-rule="evenodd"/><path fill="#db3c36" fill-rule="evenodd" d="M9.1428 12h2.2857V6.4H9.1428z" clip-rule="evenodd"/><path fill="#ea8b42" fill-rule="evenodd" d="M12.1133 2.093c-.0538.0016-.0933-.017-.1075-.0484.0878-.0515.1471-.04.2207.0256.0141-.0513 0-.1084-.0312-.1427s-.0566-.0342-.0989-.0372c-.0425-.0028-.085-.0142-.1133-.0142-.0414-.0913-.1453-.0527-.2451-.0152-.1623.0609-.308.1714-.3735.2817-.0299.0505-.0335.0704-.0519.099.0152-.002.0142-.002.0236-.0077-.0113.1256-.0264.2417-.0038.316-.0282.1085-.0056.177.0283.2112.034.0343.0481.0486.0538.0886.0056.0399.0226.077.0509.0998s.0453.0572.0481.0772.0904.106.1273.1284c.0141.0085.017.0257.034.0485-.0368.217.1104.434.0763.6481a.28.28 0 0 0 .0935-.0085c.0282.1826.0452.2712-.1133.3254s-.245.1077-.2008.1684c.0311.0429.0955.0056.1358-.0314.0311-.0285.0679-.0542.0962-.0628s.034 0 .0197.0371c-.0141.0372-.0904.117-.0933.157s.0311.0686.0849.0372c.0537-.0315.101-.1137.1131-.1627.0085-.0343.0227-.0572.0198 0-.0028.057-.0367.1598.0397.177.0764.017.0991-.0743.0736-.1571s-.034-.1285-.0227-.157c.0113-.0286.0227-.0456.0509-.0371s.0849-.0029.0821-.0485c-.0029-.0457-.0425-.0828-.0877-.0571-.0453.0257-.0793.0218-.0595-.0343.0142-.04.0397-.0885.0425-.1199.0311.0457.2065.0514.2773.0086.0169.0856.0622.1627-.0368.2427s-.1783.157-.1755.214c.003.0572.0255.0914.0764.0629.0509-.0286.0821-.0686.0934-.1056.0113-.0372.034-.0372.0227.0085s-.0311.1114-.0227.1513c.0085.04.0708.0429.0962.0057.0255-.037.0197-.0856.0141-.1342s.0029-.0998.0142-.1199c.0113-.02.0339-.0486.0566.0057.0227.0542.0339.097.0792.1114s.0792-.0058.0708-.06c-.0086-.0542-.068-.1142-.1273-.1599-.0594-.0456-.0397-.0685-.0369-.1113.0029-.0428-.0056-.1199-.0085-.1541.0538.04.1133.0342.1415.0342.0283 0 .0748-.0087.0283-.0514-.0934-.0856-.0623-.137-.1273-.1999-.0651-.0627-.1245-.1598-.1443-.2426s-.0634-.234-.15-.3112c-.0481-.0428-.0622-.1598-.0509-.294.0113-.1343.0142-.2827-.1075-.3512s-.1188-.1256-.0792-.1855.0905-.1186.1556-.1229c.0147-.0009.0485-.0037.0623-.0138-.0062-.0047-.0161-.0123-.034-.0119" clip-rule="evenodd"/><path fill="#ea8b42" fill-rule="evenodd" d="M11.322 2.401c-.003.058-.002.109.01.148-.028.109-.006.177.028.211s.048.049.054.089.023.077.051.1.045.057.048.077.09.106.127.129c.014.008.017.026.034.048-.015.09.001.18.023.27-.2.168-.397.089-.314-.083-.166.133-.453.13-.388 0-.26.091-.339.015-.306-.068-.219.088-.332.004-.302-.057-.181.05-.298.019-.317-.011s.026-.099.068-.133c-.083.03-.162.03-.238.019s-.057-.034-.041-.069c.015-.034.035-.088.095-.142-.144.029-.325.049-.453.006-.024-.008-.065-.017-.04-.043s.102-.088.195-.128c-.212.031-.614.054-.727-.074.11.023.252-.023.342-.06-.356-.04-.843-.285-.849-.525.102.166.277.223.453.274-.238-.14-.337-.308-.345-.42.136.131.342.28.546.314-.144-.077-.331-.303-.382-.46.105.094.374.246.557.294-.127-.1-.334-.337-.322-.468.048.049.167.14.41.283s.375.132.576.175c-.037-.049-.07-.115-.073-.132.06.009.116.031.286.137s.541.138.753.231c.156.069.377.026.439.069m1.283 1.466c.009-.007.009-.02-.014-.042-.093-.086-.062-.137-.127-.2s-.124-.16-.144-.243-.063-.234-.15-.311c-.048-.043-.062-.16-.051-.294.01-.115.013-.24-.062-.317.142-.04.272-.049.317-.003.235-.06.439-.078.638-.091.23-.015.664-.114.973-.324-.019.076-.124.19-.219.247.313-.076.69-.217 1.011-.457-.004.168-.14.293-.219.362.219-.122.539-.274.649-.464.048.195-.279.45-.456.591.181-.088.415-.168.505-.298-.002.158-.207.354-.404.468.2-.076.423-.156.551-.274.015.159-.598.524-.902.624.264-.065.607-.152.758-.244-.008.032-.069.078-.114.111-.184.137-.467.21-.641.243.023.095-.007.149-.113.156-.106.008-.361-.033-.489-.098-.019.011-.042.015-.067.018.125.094.167.163.142.203s-.115.033-.182.019c.054.151-.126.141-.276.056.059.077.068.143-.014.16s-.147.012-.226-.04c-.006.057-.06.095-.133.076.249.151.235.207.192.264-.042.057-.191.046-.27-.006-.034.117-.169.117-.27.024-.001.047-.097.139-.192.083" clip-rule="evenodd"/><path fill="#000" fill-rule="evenodd" d="M11.448 4.442c.004-.036.008-.078.038-.105s.049-.049.076-.023c.026.027.009.052-.026.063a.106.106 0 0 0-.066.065c-.006.021-.024.032-.021 0m.204.175c-.019-.06-.009-.137.011-.16s.047-.038.072-.015.034.055-.011.074c-.04.017-.043.059-.045.089-.002.031-.015.048-.026.011m.263-.153c-.015.024.004.124.053.148.035.018.051.013.03-.019a.072.072 0 0 1-.002-.08.046.046 0 0 0-.015-.063c-.024-.015-.055-.006-.066.013m.213-.089c-.031-.024-.06.005-.072.025-.023.04-.006.097.03.13.036.032.03-.011.019-.03s-.013-.057.011-.061a.034.034 0 0 0 .011-.063m.179.064c-.03-.009-.06.023-.057.061.003.028.006.065.034.084.019.013.032.021.023-.013s.006-.063.023-.072.01-.049-.023-.059m.25-.163c-.022.016-.021.052 0 .065s.051.032.045.065.011.044.026.008.017-.089 0-.114-.053-.036-.072-.023" clip-rule="evenodd"/><path fill="#000" d="M11.7361 1.8548c.154-.0578.2161-.062.2471.0146.0136 0 .0205.0013.0605.0078a.6.6 0 0 0 .0527.0069c.0049.0003.0053.0006.0098.001.0362.0024.052.0055.0703.0175a.13.13 0 0 1 .0235.0205c.0333.0368.0465.0963.0322.1485l-.0098.0029c-.0739-.0659-.1307-.0728-.2109-.0322.0132.0288.0509.0453.1015.044.0162-.0004.0264.0042.0381.0233-.0124.0091-.0358.0138-.0654.0157-.0541.0035-.1019.045-.1514.12-.0441.0671-.0283.1164.0772.1759.1053.0593.1276.163.1113.3574-.0119.1413.0053.2503.0488.289.0719.0643.118.1753.1514.3145.0191.0798.077.176.1426.2393a.18.18 0 0 1 .0351.0468.3.3 0 0 1 .0147.0352c.0207.055.0347.0792.0771.1182.0236.0215.0282.039.0137.0507-.0096.0077-.0267.0118-.0459.0118h-.0107c-.0455.0008-.0747-.0037-.1084-.0205q-.0075-.0041-.0147-.0088l.0059.0713a.6.6 0 0 1 .0009.0712c-.0004.0066-.0005.0126-.0019.0215-.0026.017-.0034.022-.0029.0293.0012.018.0123.0344.04.0557.0725.0558.121.114.1289.164.0086.056-.0262.0827-.0781.0665-.0319-.0101-.0485-.031-.0674-.0762l-.0166-.039c-.0091-.0217-.0171-.0285-.0244-.0264-.0063.0018-.0137.0094-.0205.0214-.0117.0208-.0187.0724-.0137.1162.0086.0742.0077.1062-.0146.1387-.0284.0415-.0975.0377-.1075-.0078-.0044-.021-.002-.049.0059-.086.0022-.0101.0045-.0211.0078-.0341l.0088-.0342c.0041-.0165.003-.026.002-.0273-.0018-.0004-.0083.0079-.0127.0224-.0128.0414-.0476.0819-.0967.1094-.0517.0286-.0815-.0012-.085-.0684-.0026-.0537.0568-.1222.1778-.2197.0232-.0188.0395-.0376.0488-.0576.0169-.0365.0137-.065-.0049-.1367a1 1 0 0 1-.0088-.0361c-.0726.0374-.2248.0353-.2695-.005a.33.33 0 0 1-.0225.0694 1 1 0 0 0-.0166.042c-.0084.0238-.0064.0366.002.04.0091.0036.0272-.0014.0488-.0136.0466-.0262.0932.0086.0967.0625.0027.0446-.0491.0669-.0899.0547-.0211-.0064-.0315.002-.0439.0332-.01.0253-.003.0675.0234.1533.0295.0957-.0042.1822-.081.165-.0471-.0105-.0593-.048-.0528-.1133.0008-.008.0014-.0156.003-.0273a.4.4 0 0 0 .0048-.043c.0004-.0065.0001-.012 0-.0166-.0019.0052-.005.0114-.0068.0186-.0145.0586-.0662.1377-.1162.167-.0535.0312-.098.0067-.0947-.043.0013-.0184.015-.0421.042-.08.0036-.0052.0031-.0057.0068-.0108.0341-.0471.04-.0555.0449-.0684.0124-.0322.0108-.036-.0117-.0293-.0255.0077-.0608.0314-.0937.0615-.0559.0513-.1156.0723-.1456.0313-.0237-.0326-.0132-.0651.0264-.0957.0349-.0269.0933-.054.1777-.083.1341-.0459.1448-.0902.1172-.3135-.034.0086-.0692.0122-.1015.002.0139-.0874.0033-.158-.0381-.3184-.0424-.164-.0539-.2378-.0371-.3252a.2.2 0 0 1-.0117-.0185c-.0016-.0027-.0065-.0125-.0079-.0147a.035.035 0 0 0-.0126-.0137c-.0402-.0244-.1264-.1108-.1299-.1328-.0031-.0218-.0218-.0537-.0459-.0732-.0284-.023-.0476-.0603-.0537-.1035-.0049-.0338-.0119-.0449-.0518-.085-.0418-.0422-.055-.1184-.0293-.2139-.0174-.0573-.0163-.113 0-.2851.0009-.01.0005-.0167.001-.0225-.0016.0005-.0036.0016-.0059.002-.0034.0005-.0037.0003-.0088.001l-.0058-.0098a.2.2 0 0 0 .0097-.0176c.0027-.0053.0033-.0053.0059-.0107.0013-.0028.0103-.0224.0137-.0293a.6.6 0 0 1 .0224-.041c.0666-.112.2142-.2232.377-.2842m.2412.0244c-.0324-.0714-.0893-.0683-.2373-.0127-.1604.0602-.3053.17-.3701.2793a.6.6 0 0 0-.0215.04c-.0034.0069-.0126.027-.0137.0293-.0026.0055-.0032.0055-.0058.0108l-.0039.0068c.0012-.0006.0032-.0011.0078-.004l.0097.006-.0029.0332c-.016.1697-.0177.2248-.001.2832-.0247.095-.012.1672.0264.206.0417.042.0503.0546.0557.0918.0057.0404.023.0749.0488.0957.0265.0215.0462.056.0498.081.0023.0167.0879.1015.125.124a.05.05 0 0 1 .0166.0186c.0016.0029.0065.0125.0078.0147.0036.0062.0075.0113.0127.0215-.0153.09-.0048.163.0371.3252.0418.1618.0528.2332.0332.3154.0252.0028.0584.0001.0986-.003.0362.234.0248.2835-.1171.3321-.0834.0286-.1414.0552-.1749.081-.0346.0268-.0415.052-.0224.0782.0235.032.0751.0144.126-.0322.0341-.0314.0709-.056.0986-.0645.0347-.0105.043.0051.0273.0459-.0055.0144-.0108.0228-.0459.0713l-.0078.0107c-.0253.0356-.0379.0583-.039.0733-.0026.039.0302.0572.0752.0312.0467-.0274.0965-.1036.1103-.1592.0047-.019.0107-.0338.0166-.038.0074-.005.0129.001.0147.0097a.13.13 0 0 1 .0009.0303.4.4 0 0 1-.0048.043c-.0016.0117-.0022.0196-.003.0273-.006.0597.0042.092.043.1006.0639.014.0934-.0615.0664-.1494-.0273-.0887-.0339-.132-.0225-.1612.0145-.0365.0288-.0495.0577-.041.0336.0102.0762-.0081.0742-.042-.0029-.0455-.0404-.0732-.0781-.0517-.0247.014-.046.0192-.0596.0137-.0164-.0068-.0191-.0264-.0088-.0557a1 1 0 0 1 .0166-.042c.0175-.0418.0239-.0598.0254-.0762l.0117-.0029c.0298.0421.2007.047.2686.0059l.0097.0048a1 1 0 0 0 .0098.041c.0193.0744.0215.1045.0029.1446a.18.18 0 0 1-.0517.0635c-.1169.0942-.1749.1603-.1729.208.003.0595.0245.0811.0664.0576.0466-.0261.0791-.0633.0908-.1016.0061-.0198.0159-.0328.0264-.0312.0117.0022.0138.0188.0078.043l-.0088.0341a1 1 0 0 0-.0078.0332q-.0116.0529-.0058.081c.0071.0337.0621.037.0849.004a.1.1 0 0 0 .0176-.0488l-.0039-.081c-.0054-.0464.0015-.1007.0146-.1241.0084-.0148.0169-.0253.0274-.0283.0152-.0044.0286.0078.04.0351l.0156.0381c.0176.0421.0323.0606.0596.0693.0436.0138.0706-.0062.0635-.0527-.0072-.046-.0548-.1022-.125-.1562-.0304-.0233-.0434-.0424-.0449-.0645-.0006-.0086.0002-.0137.0029-.0312.0013-.0086.0015-.0145.002-.0206a.6.6 0 0 0-.001-.0703 5 5 0 0 0-.0069-.083l.0098-.0058a.16.16 0 0 0 .0234.0146c.0316.0157.0598.0194.1036.0186h.0107c.0166 0 .0314-.0034.0381-.0088.0069-.0055.005-.0152-.0137-.0322-.0442-.0406-.0597-.0663-.081-.123-.0058-.0153-.009-.0241-.0137-.0333a.16.16 0 0 0-.0332-.043c-.0673-.0649-.1258-.1638-.1455-.246-.0329-.137-.079-.2457-.1485-.3077-.0475-.0423-.065-.1547-.0527-.2998.0159-.1896-.0052-.2887-.1045-.3447-.112-.063-.1297-.1206-.081-.1943.0514-.078.101-.1222.1601-.126.0267-.0017.049-.0058.0586-.003a.042.042 0 0 0-.0293-.0107c-.0554.0016-.0983-.0173-.1113-.0596.0844-.0495.1447-.043.2187.0196.0093-.0456-.0019-.0956-.0302-.127a.12.12 0 0 0-.0215-.0185c-.016-.0105-.0303-.0134-.0645-.0157-.0042-.0002-.0044-.0007-.0088-.001a.6.6 0 0 1-.0547-.0068c-.0391-.0064-.0461-.007-.0644-.0107m-.6572.3545c-.0031.0004-.0032.0013-.0078.002l.0058.0097c.0026-.004.0046-.0086.0069-.0127q-.0017.0005-.0049.001m.9004-.165.0097-.003-.0088-.0068c-.0006.0031-.0001.0066-.0009.0097"/><path fill="#000" d="M8.9353 1.6347c.0597.0602.1962.1568.4082.2813.1316.0772.2322.1133.3643.1377.0186.0034.037.006.0654.0107a3 3 0 0 1 .1309.0235c-.031-.0446-.0632-.1027-.0664-.1221l.0078-.0078c.0659.0095.1292.0398.288.1386.0766.0476.1706.0752.3975.128.0052.0012.0055.0017.0107.003.1832.0425.2651.0649.3438.0995.041.018.0893.0296.1465.0361.0385.0045.067.0063.1377.0088.0963.0034.1318.0077.1562.0245l.002.0048c-.0034.0646 0 .1118.0107.1504-.0246.095-.012.1664.0264.2051.0417.042.0503.0547.0557.0918.0056.0404.023.0749.0488.0957.0265.0214.0461.056.0498.081.0023.0167.0879.1015.125.124a.05.05 0 0 1 .0166.0186l.0078.0147c.0036.0063.0075.0122.0127.0225-.0131.0775-.005.1548.0205.2734-.0946.0792-.1973.1098-.2695.0869-.0667-.0212-.0905-.0824-.0606-.1592-.0775.0562-.1816.0903-.2695.0899-.0896-.0007-.1379-.0365-.1162-.0957-.2182.0739-.3381.0324-.3057-.0694-.1799.068-.3277.0227-.3017-.0576-.1531.0396-.2866.027-.3135-.0156-.017-.0275.011-.0838.0517-.125-.0686.0209-.138.0255-.2167.0137-.0365-.0056-.0548-.0148-.0596-.0293-.0036-.011-.002-.0149.0117-.045.0007-.0014.0002-.0021.001-.0039l.0127-.0273a.32.32 0 0 1 .0713-.1035c-.1779.0335-.3295.0403-.4375.0039-.0028-.001-.0129-.005-.0157-.0059-.0148-.0049-.0244-.0086-.0302-.0146-.0089-.0093-.0077-.0215.0039-.0332.0357-.036.1007-.0809.168-.1143-.3093.0418-.607.0265-.7003-.079l.0059-.0108c.0864.0178.1973-.006.3174-.0528-.3913-.052-.8258-.3047-.831-.5263l.0116-.003c.0799.1296.1873.189.4083.2569-.191-.1225-.303-.2731-.3125-.3995l.0107-.0048c.1519.147.3334.2587.5.2998-.1381-.0932-.2997-.2934-.3467-.4385L8.7 1.8086c.1066.0958.354.2293.5254.2822-.1557-.1312-.3102-.3411-.3007-.4522zm.002.0186c.004.1151.165.328.3193.4492l-.0049.0107c-.1649-.0435-.4193-.1795-.542-.2812-.0027-.007-.0056-.0137-.0078-.0205l-.0107.0068c.0054.005.0124.0086.0185.0137.0594.1545.2349.3628.3711.4355l-.0039.0118c-.1768-.0298-.3726-.1488-.5371-.3047a.3.3 0 0 1-.002-.0166l-.0107.0049c.004.0039.0086.0078.0127.0117.0182.1267.138.2795.3398.3984l-.0048.0117c-.2403-.0704-.3558-.1314-.4414-.2588-.0012-.0072-.0028-.0143-.003-.0214l-.0117.0029c.0041.0067.0104.0122.0147.0185.0327.2127.4611.4555.8398.498l.002.0118c-.121.0495-.234.0737-.3253.0615-.0048-.0042-.0106-.0071-.0146-.0117l-.0059.0108c.0066.0013.0137 0 .0206.001.1063.0925.4047.1053.707.0605l.003.0117c-.0762.0326-.1536.0868-.1935.127-.0071.0072-.0075.0118-.0038.0156.004.004.0124.0074.0253.0117.0028.001.0129.005.0157.0059.1091.0368.2664.0304.4502-.0059l.0048.0107-.0078.0069c-.042.0394-.054.0606-.086.1328-.0007.0017-.001.002-.0019.0039-.0114.025-.0127.029-.0107.0351.0028.0086.0178.0157.0498.0206.0856.0128.1603.0086.2344-.0186l.0058.0107c-.0455.0377-.081.1013-.0664.125.0236.0373.1572.0504.3096.0088l.0078.0088c-.0357.0725.1102.1214.294.0479l.0078.0088c-.0389.0964.0737.1382.2978.0595l.0078.0088c-.0273.0551.0149.0894.1026.0899.0906.0004.2002-.0366.2763-.0977l.0098.0078c-.0379.0781-.0171.14.0469.1602.0676.0213.1654-.008.2549-.0781-.028-.114-.0363-.1937-.0215-.2686a.2.2 0 0 1-.0117-.0176c-.0014-.0023-.0062-.0117-.0079-.0146a.04.04 0 0 0-.0126-.0147c-.0403-.0246-.1269-.1112-.1299-.1328-.0032-.0218-.0218-.0537-.0459-.0732-.0285-.023-.0476-.0602-.0537-.1035-.0049-.0339-.0118-.0447-.0518-.085-.0418-.0422-.056-.1183-.0303-.2139-.0109-.036-.0138-.0827-.0107-.1465.0009.0006.0021.0005.0029.001l-.0019-.0049c-.0001.0014-.001.0026-.001.004-.0218-.0133-.0573-.0184-.1465-.0215-.0712-.0026-.0995-.0033-.1387-.0078-.0584-.0068-.108-.0185-.1504-.0372-.0776-.0341-.1585-.0572-.3408-.0996-.0052-.0012-.0055-.0007-.0107-.002-.2287-.0531-.3231-.0812-.4014-.1298-.1487-.0925-.2122-.1238-.2724-.1348-.0014-.0037-.0035-.0064-.004-.0088l-.0068.0069.0107.002a.6.6 0 0 0 .0674.12l-.0058.0108a2.5 2.5 0 0 0-.1446-.0264c-.0284-.0046-.0467-.0082-.0654-.0117-.1335-.0247-.2352-.0607-.3681-.1387-.2016-.1183-.3352-.2119-.4004-.2734m-.0118-.0098c.0034.0034.008.0062.0118.0098-.0002-.0047-.0014-.0093-.001-.0137z"/><path fill="#000" d="M15.2103 1.7303c.0159.0649-.0071.1387-.0634.2207-.0496.072-.1229.1479-.2188.2314-.0431.0376-.0737.0615-.1387.1133l.0235-.0108c.0188-.0085.0846-.037.0869-.038.1979-.0892.2935-.147.3486-.2256l.0117.0029c-.0016.137-.1606.3143-.3652.4443.0035-.0013.0078-.0024.0117-.0039l.0586-.0224c.2169-.0837.3435-.1474.4317-.2286l.0097.005c.0117.1341-.4516.4474-.8066.5917.3404-.0855.5408-.148.6543-.2168l.0088.0069q-.006.0252-.0459.0605a1 1 0 0 1-.0362.0293c-.0094.0073-.0176.0122-.0341.0244-.1555.115-.3887.1956-.6377.2373.0243.1023-.013.1565-.1192.1641-.1199.0086-.3738-.0395-.4863-.0996-.0149.009-.0314.0131-.0557.0166.1147.0888.1598.1579.1319.2021-.0233.0366-.0921.04-.1807.0225.0215.0692-.0039.1097-.0674.1162-.053.0053-.1274-.015-.1982-.0518.0525.0775.0466.1344-.0303.1504-.0874.0182-.1511.0082-.2246-.038-.0092.052-.0537.0813-.1133.0751.2001.1241.2311.184.1748.2598-.0418.0565-.1846.0513-.2715-.001-.0366.1099-.1656.1178-.2705.0264-.0118.065-.1182.126-.1992.0781v-.0097c.0067-.0055.0039-.0153-.0146-.0323-.0442-.0404-.0588-.0663-.0801-.123a.3.3 0 0 0-.0147-.0332.17.17 0 0 0-.0332-.044c-.0672-.0649-.1258-.1639-.1455-.246-.0329-.1368-.079-.2458-.1484-.3077-.0473-.0424-.0649-.1542-.0528-.2988.0134-.1596.0016-.2494-.0605-.3125l.0029-.0098c.1538-.0434.2785-.0475.3174-.0039.2018-.0515.3744-.0733.6397-.0908.296-.0198.703-.1428.9697-.3232l.0097.0068c-.0168.068-.104.1673-.1933.2305.3577-.091.6983-.239.9756-.4463l.0097.0059c-.0029.1253-.0679.223-.1845.331.0581-.0317.155-.084.1914-.1045.2166-.1225.3487-.2228.4121-.333zm-.0107.0175c-.0677.1072-.197.207-.4063.3252-.0503.0285-.2115.1153-.2343.128l-.0069-.0098c.1328-.1149.2049-.216.2129-.3428.0044-.0032.0094-.0055.0137-.0088l-.0108-.0058c-.0001.0048-.0026.0098-.0029.0146-.285.2099-.6341.3593-1 .4483l.001.0039s-.1731.0625-.2344.084l-.0537.0185c-.1251.0427-.2194.071-.2793.081l-.0029-.0126.5566-.1797c-.0365.0132-.1719.0626-.2246.081l-.0537.0186c-.1245.0424-.2183.0702-.2773.08l.0029.0118.5664-.1826-.0029-.0078-.001-.004h-.001l-.001-.0029c.0886-.0536.1786-.155.2071-.2265.006-.004.0126-.0068.0185-.0108l-.0097-.0068c-.0015.0059-.0063.0111-.0088.0176-.2688.1753-.6664.295-.958.3144-.2644.0175-.4358.0393-.6426.0889-.0396-.04-.1572-.038-.3028.002-.002-.0024-.0036-.0056-.0058-.0079l-.0029.0108c.0028-.0008.0059-.0022.0087-.003.0509.0561.0661.1295.0616.2471l-.0108.003-.0019.0116c.0014.0008.0035.0013.0049.002v.001l.0009-.001.0059.003c-.0008.015-.0006.0312-.002.0478-.0118.141.0055.2492.0489.288.0719.0642.1179.1754.1513.3145.0191.0798.077.177.1426.2403a.17.17 0 0 1 .0352.0468c.005.0098.0096.0184.0156.0342.0207.0551.0347.0792.0771.1182.019.0173.0214.0307.0157.042-.0009-.0005-.0021-.0005-.003-.001l.001.0107c.0028-.0022.0006-.007.002-.0097.0763.0421.178-.0198.1797-.0782l.0107-.0048c.1019.094.2285.0862.2598-.0215l.0097-.004c.0811.0527.2235.059.2617.0079.0524-.0704.0217-.126-.1904-.2549l.0049-.0117c.0662.0173.1195-.0147.125-.0703l.0098-.005c.0731.0476.135.0573.2216.0392.0708-.015.0717-.0691.0098-.1495l.0088-.0097c.0743.0425.1549.066.21.0605.0581-.0058.0803-.0416.0566-.1084l.0068-.0078c.0866.0181.1556.015.1758-.0156.0238-.0374-.0219-.1052-.1396-.1944l.0029-.0117a.22.22 0 0 0 .0713-.0175c.1166.0587.3677.106.4853.0976.0984-.007.1301-.0537.1123-.1562.2523-.0491.4851-.1286.6387-.2422.0165-.0122.0238-.0182.0332-.0254a1 1 0 0 0 .0352-.0284.2.2 0 0 0 .0342-.039c.0057-.0032.0122-.0046.0175-.0078l-.0088-.0069c-.001.0046-.0051.0091-.0087.0147-.1292.0725-.3544.1423-.7422.2373l-.003-.0127c.344-.1132.8743-.4579.8946-.6045.0038-.0034.0089-.0053.0127-.0088l-.0098-.0039c.0004.0041-.0023.0082-.0029.0127-.089.0775-.213.141-.4219.2217-.0176.0068-.0361.0135-.0596.0225-.0293.011-.0459.0176-.0586.0224l-.0049-.0117c.2114-.123.3793-.3038.3965-.4424.0048-.0059.0114-.0105.0157-.0166l-.0118-.0039c0 .0067-.003.0135-.0039.0205-.0585.0723-.1535.1294-.3388.2129l-.087.039a3 3 0 0 0-.0673.0313l-.0059-.0107c.0927-.0736.1253-.0996.1758-.1436.0952-.083.1679-.1584.2168-.2295.0502-.0731.0709-.1389.0625-.1963m-3.5498 1.4366c-.0456.0504-.1665.1409-.2696.2021l.0059.0098v.001l-.0068-.0098.2217-.168a.24.24 0 0 0 .0488-.0351m-.2871-.0274c-.0387.0317-.0993.0734-.1631.1133l.167-.1016.001.001c-.0868.0701-.272.187-.3721.2256l-.0059-.0117.3731-.2276zm.292.0127.0019.0088-.0556.041c-.0542.0285-.1116.0283-.169.0069-.0011-.0004-.0019-.0016-.0029-.002-.0549.0539-.168.129-.2666.1709l-.0059-.0117.2608-.166c.0018-.0019.0051-.0022.0068-.004l.0068.0088h.002l-.0078-.0097-.0078.0049c-.0232-.0117-.0402-.0266-.0498-.0479.0018-.0015.0041-.0025.0058-.0039l-.0078-.0107-.0029.001c-.0066-.023-.0064-.05.0029-.082.0029-.0023.0068-.0037.0098-.006.0018-.0013.003-.0034.0048-.0048h.001v-.001l.0108-.0078zm-.5039.1309c-.0596.0352-.1177.0667-.1602.083l.0059.0107zm.0068.083.0059.0107.1308-.085c-.0443.0276-.0917.0552-.1367.0743m-.1553-.2149c-.1034.0574-.259.1385-.3154.1582l-.0049-.0117.001-.001.0039.0118zm.0196-.0234c-.0953.0541-.2608.1373-.3292.164l.3292-.166zm.29.1533.1172-.0742c-.0044-.0017-.0078-.0048-.0117-.0068a.74.74 0 0 1-.1055.081m-.5215-.2451c-.0451.0292-.0796.0492-.1152.0703l-.2217.1123a.5.5 0 0 1-.0674.0215l.0029.0107v.001l-.0039-.0117.4043-.205zm.0098.0088a3 3 0 0 1-.1524.0947 1.7 1.7 0 0 1-.1025.0547c-.0585.0284-.1108.0472-.1543.0566l.0625-.0322a1 1 0 0 0 .0859-.0361 1.7 1.7 0 0 0 .1016-.0537c.0121-.007.0228-.0158.0342-.0225l.124-.0625zm.0088.0928.1162-.0547c-.0252.0143-.1064.0639-.1358.08-.0757.0417-.1461.0713-.2197.087l-.0039-.0127.334-.1563h.0058c-.025.0148-.0668.0392-.0966.0567m-.2413.0996.004.0117.082-.039c-.0288.0104-.0567.021-.086.0273m.8135-.1914c-.0282.0796-.004.1292.0557.1513.0706.0263.1398.0185.2031-.039l.0098.0048-.002-.0097c-.0022.0021-.0056.0029-.0078.0049zm-.7275.164a.9.9 0 0 0 .1299-.0576c.0063-.0035.0151-.0087.0254-.0146zm.7119-.1533c-.0122.009-.0228.0192-.0342.0274a1 1 0 0 1-.1064.0673.8.8 0 0 1-.0811.0381h.002l-.0059.002a.15.15 0 0 1-.0576.0127l.0576-.0264a.8.8 0 0 0 .0791-.0371 1 1 0 0 0 .1045-.0674q.021-.015.044-.0322c.001-.0008.0018-.0021.0029-.003-.0023.0063-.0032.0127-.0049.0186m-.29-.0185c-.0473.0679-.0539.1033-.0264.1386.0163.0208.0398.0203.0859.002-.0171.0088-.0356.0164-.0537.0254-.0179-.0006-.0318-.0053-.0429-.0196a.076.076 0 0 1-.0166-.0566l.0019-.001v-.001h-.0019c.0022-.0217.0124-.0463.0322-.0771.0073-.003.0141-.0073.0215-.0107m.5898.1318h-.0019l-.0079-.0078h.001v-.001zm-.9023-.2256.0058.0107-.0068.003v.001c-.1829.1094-.3042.1706-.4385.205l-.0039-.0117.001-.001.0039.0118.083-.04c.1035-.0371.2104-.0917.3555-.1788m.6093.2041-.0058.003c-.0017-.0038-.0027-.0077-.0039-.0118l.0029-.001zm-.7705-.2539c-.1607.0868-.3617.1763-.4648.2031l.0029.0108v.001l-.0039-.0118.4639-.2031zm.0176.0049c-.1613.0882-.3676.179-.4756.208l.209-.0908c.0056-.0025.011-.0054.0166-.0078zm.5254.1963.0078.0097-.0088-.0097c.0181-.0182.0628-.054.1133-.0928l.0107-.003zm.0078.0097c.0199-.02.0729-.0643.1309-.1084l.0107-.001zm-.3545-.2275c-.0514.0923-.0177.1777.0879.1904.05.006.1116-.008.1787-.038-.0043.006-.0071.0128-.0107.0185a.41.41 0 0 1-.124.0322l-.001-.001h.0019-.0019v.001c-.0081.0006-.0158.0002-.0235 0 .0092-.0054.0162-.01.0196-.0117l-.0254.0117c-.005-.0002-.0099.0006-.0147 0a.152.152 0 0 1-.0849-.0361c.0011-.0008.0027-.0012.0039-.002h-.001l-.0039.001c-.003-.0027-.0062-.0049-.0088-.0078.0021-.0014.0047-.0025.0068-.004l-.0078.003a.113.113 0 0 1-.0273-.0762c.0025-.0014.0053-.0024.0078-.0039l-.0059-.0117h-.0009a.18.18 0 0 1 .0185-.0615q.0083-.0018.0166-.004m.583.167-.001.001-.0048-.002.0078-.0039zm-.0107-.0069.001-.0029.0058-.003q-.0034.0032-.0068.006m.1211-.078-.0528.042c-.0165.013-.0323.024-.0468.035l-.0118-.0048h-.0029c.0166-.0127.0346-.025.0537-.04.007-.0055.0211-.0178.0332-.0274l.0244-.0039-.0048-.0107c-.0018.0013-.0101.0071-.0196.0146l-.1699.0313.0205-.0157.1719-.0312zm-.2149.0273c-.0067.005-.013.0106-.0195.0156l-.1787.0332c.0134-.0063.0273-.012.041-.0195zm-.6738.0449.1592-.0742q.0001-.0068.001-.0137c-.0584.035-.1121.062-.1602.0879m.4619-.002.002-.002.0039-.0019.0049-.002c-.0038.0018-.0071.0043-.0108.006m.335-.2422c-.0885.1003-.1877.1778-.2803.2286l-.0439.0078c.0972-.046.2032-.1263.2998-.2324l.0205-.002-.0059-.0107c-.0042.0047-.0104.008-.0146.0127l-.2344.0322c.0083-.0054.0176-.0099.0264-.0156l.2265-.0313zm-1.3457.2041h.001zm1.2295.005-.0157.0029.0215-.0157.0166-.0029c-.0073.0055-.0152.0101-.0224.0156m-.7481-.2696.003-.001c-.0342.0535-.0165.145.0625.1553.0081.001.0169.0005.0253.001l-.0263.0117c-.0391-.005-.0624-.0283-.0762-.0566-.1082.048-.2998.1158-.4512.161l.4512-.161a.123.123 0 0 1 .002-.1124l.0127-.001zm.7539.2568-.0127.003a3.5 3.5 0 0 1 .1514-.1084zm.0254-.0039-.0088.001.1289-.0928zm-.3935-.038v.001l-.0049-.0108.001-.001zm.4121-.2422a3 3 0 0 0-.0674.044c-.0132.0087-.0589.0395-.0684.0458-.0101.0068-.0207.0123-.0302.0186l-.0264.0039-.0274.0166.0274-.005c-.0872.0563-.1494.0909-.2158.1163l.1162-.0674a.9.9 0 0 1-.1211.0566l.1641-.0976.0253-.003q.0124-.0073.0254-.0156l-.0244.003.2158-.127a3 3 0 0 0-.0673.044c-.013.0086-.0588.0394-.0684.0459-.0193.0128-.0385.023-.0557.0341l.0059-.001.1914-.1122zm-.9385.0166c-.1352.0876-.3141.1707-.4414.1894l.003.0108-.001.001-.003-.0118.4375-.1904zm.0176.0039c-.1363.0901-.3206.1746-.4531.1953l.0654-.0274c.0956-.0263.2065-.076.3047-.1328zm.2226.1709-.0068.0039h.001l-.0098.0039c.0028-.0016.006-.0024.0088-.004-.009-.0004-.0178.0001-.0264-.0009l.0244-.0117h.0049zm.1465-.0098a.6.6 0 0 1-.1523.0137l.0068-.003.001-.001-.0049-.0087a.6.6 0 0 0 .1563-.0156c-.0028.0047-.0045.0099-.0069.0146m-.1494.001h-.001l-.001-.002h.001zm.166-.005c.0005-.0008.0005-.002.001-.0028l.0303-.005a1 1 0 0 1-.0313.0079m.001-.0028-.0039.001.0049-.003zm.2441-.004.0703-.042h-.0039c-.024.0152-.0453.0301-.0664.042m.0411-.039-.2549.038a1 1 0 0 0 .0761-.0234l.2051-.0302zm-.2959.0351.0009-.001.0049-.0029.0322-.0048c-.0127.0034-.0254.006-.038.0088m.4345-.208c-.0725.0742-.1924.1429-.3174.1875l-.0791.0118c.1412-.038.2856-.1138.3731-.1963l.0205-.002-.001-.001c.0013-.0001.0026.0002.0039 0m-.2812.0284c-.0822.0438-.1737.0867-.2578.1133l.2451-.1124zm-.0362.0029c-.0738.0376-.1521.0754-.2255.0986h-.001l.2099-.0966zM9.392 2.5584l-.001.001h.003c-.0285.0308-.0197.0708.0185.1054.1446.1309.5033.1304.8476.0156l.0244.003.001.002c-.3544.1232-.7288.1264-.8808-.0108a.12.12 0 0 1-.0352-.0537.067.067 0 0 1 .0137-.0674c.0024.0021.006.0028.0088.0049m3.0185.1064c-.0015.01-.0055.0188-.0088.0274l-.0097.0029-.002.0117.0039.002c-.0437.0747-.1614.0773-.2695.0224v-.0039l.0137-.0029c.1143.0568.2349.0458.2568-.0518l.0107-.002-.0068-.0077c-.0162.1104-.153.123-.2744.0566.0001-.0026.0009-.0052.001-.0078l.2783-.0537zm-1.8261-.1982c-.1172.0284-.2434.0976-.2745.1543-.0288.0535-.0166.0755.0411.0918.1687.0474.3688.003.5224-.1045l.0108.0058.0019.002a.7.7 0 0 1-.2119.1025l-.1406.0137-.0039.003c-.0017.0024-.0025.0052-.0039.0078a.6.6 0 0 1-.1133-.005h.001l-.0059-.0116-.0176.0068c-.014-.0027-.0283-.004-.042-.0078-.0334-.0094-.0546-.0218-.0625-.04.0016-.0006.0034-.0005.0049-.001l-.001-.0108.001-.0127-.0068-.002a.13.13 0 0 1 .0156-.0439c.0147-.0269.0484-.0556.0918-.082.0089-.0016.0182-.0012.0264-.003v-.0117l-.001-.001a.7.7 0 0 1 .0801-.037.46.46 0 0 0 .0879-.0137m.3046.2432-.3505.0341v-.002a.66.66 0 0 0 .1357-.0234l.2519-.0253zm-.4765.0283c-.006-.001-.0117-.0029-.0176-.004.0038-.0024.008-.0043.0117-.0068zm2.2676-.0772c.0018.0007.004.0003.0058.001-.0476.073-.1974.0996-.292.0469l.002-.003.0146-.0039c.0896.0427.2228.0178.2696-.043zm-.5557.0586v.0078l-.0059.001h-.0009l.0019-.0107c.0015.0008.0034.001.0049.002m-1.1953-.0137-.0235.002c.0105-.0054.0211-.0102.0313-.0156l.0293-.003zm1.4707-.0088q-.0018.0046-.0039.0088l-.001.001.002-.0107c.0008.0005.002.0005.0029.001m-1.2002-.0175-.2578.0254c.0101-.0054.0205-.0102.0302-.0157l.0743-.0078a.74.74 0 0 0 .1543-.0029zm1.4961-.0362-.0069.002a.07.07 0 0 0 .0088-.0293l-.2871.086c-.0036-.0018-.0073-.003-.0107-.005l.0019-.0048.3008-.083a.09.09 0 0 1-.0068.0341M10.889 2.576c-.0128.0627.0947.104.2491.0976l-.0918.0078-.0469-.0058c-.0087.005-.0183.0086-.0274.0136h-.0058l.0332-.0136q-.0101-.0023-.0195-.005c-.0137.0079-.0286.0139-.043.0216l-.0108.001.0528-.0235c-.0458-.0118-.0774-.03-.0928-.0537.0014-.001.0035-.001.0049-.002l-.001-.0107-.0127-.0068a.06.06 0 0 1 0-.0215h.0049zm2.0821-.0166c-.0226.1245-.1494.1522-.2852.1025.0006-.0009.0005-.002.001-.003l.0166-.0048c.1199.0395.2255.0154.251-.086l.0127-.0039-.0088-.0068c-.0207.1135-.1366.1395-.2647.0938.0012-.0025.0011-.0053.002-.0079l.2666-.0908zm-2.6836.125-.003-.001c-.001-.003.0005-.0065 0-.0098h.002zm-.0274-.004-.039-.0058c.0219-.0008.0425.0007.0615-.001-.0074.0026-.0151.0044-.0225.0069m-.834-.1162c.0078.004.0152.01.0245.0137.1271.05.4546.0852.6914.086l.0791.0107c-.238.0091-.6316-.0284-.7754-.085a.23.23 0 0 1-.0518-.0302zm1.793.1123-.0185.002c.0044-.0042.0095-.0075.0136-.0117zm.0967-.0175a1 1 0 0 1-.0879.0175h-.0039l-.0059-.0107a1 1 0 0 0 .0674-.0127zm-1.0322.0117v.001l.0029.001v-.002l.0029.001v.002h-.0029v-.001h-.0029v-.001l-.0078-.002zm.0029 0h-.0029a.05.05 0 0 1 0-.0098h.0039zm-.0107-.001-.0538-.0078c.0074-.0003.0145.0004.0215 0zm-.0538-.0078a2 2 0 0 1-.08.002l-.7158-.0997c-.0119-.006-.0228-.0108-.0313-.0175zm-.4218-.124.4834.121v.002c-.0126.0012-.0261.0002-.0401.001l-.538-.1358q.0463.0067.0947.0118m2.8935.1132c-.0014.0032-.005.005-.0068.0079l-.0029.002v-.007c.001-.0014.003-.0023.0039-.0038.0018.0007.004.0003.0058.001m-1.373-.0048v.0127h-.003v-.0117c-.0106.0026-.0217.0036-.0322.0058l-.3965-.0771v-.001a1 1 0 0 0 .0537-.002zm1.3681-.001c-.0007.0014-.0001.0035-.0009.0049-.0012-.0004-.0028-.0006-.0039-.001v.0049l-.0039.0049v-.0098zm-2.1962.0117-.001.001-.002-.0117.001-.001zm.5263-.1035-.001.0117a1 1 0 0 1-.0752.0078l-.0556-.0107a.8.8 0 0 0 .0986-.0059l.0303.0088v-.0117c-.0101.0016-.0203.0017-.0303.003l-.3916-.1143c-.0003-.003-.0011-.0058-.001-.0088l-.0087.0058.0097.003a.1.1 0 0 0 .0029.0127l-.0019-.001v.0107h-.0029l-.0039-.001.0156.0069c.0226.0369.08.0668.1601.082l.0352.0176c-.0104-.0013-.0205-.0022-.0303-.004l-.0039-.0107h-.001l.0039.0108h.001l.001.001c-.0956.0516-.1617.0751-.2754.0898l.1172-.039a.7.7 0 0 1-.1152.0253l.2509-.083.002.001.0098-.0049-.0118.004c-.0863-.0191-.1459-.0543-.1621-.0997l.0049.003.001-.0108c-.0022.0007-.0047.0004-.0068.001v-.001l.0048-.001.0039.001.002.001.001-.001-.0137-.0068c-.0006-.0045-.0022-.009-.002-.0137l.0079-.0059zm-1.7451.082v.001l-.003-.0117.001-.001zm.003-.0127a.26.26 0 0 1 .0859-.0146zm.0947-.002h.002l-.001-.0126h-.001zm1.5127-.0068c-.0019-.003-.0047-.0055-.0059-.0087.0014-.001.0035-.001.0049-.002zm-.0518-.04.0449.0225c.0006.0029 0 .006.001.0088l-.0049.0029-.0742-.0381c.0108.0013.0218.003.0332.004m-.1787.0303.1152-.0371-.001-.001c-.0064-.0011-.0124-.0036-.0185-.0049a.8.8 0 0 1-.0957.043m.1465-.0469a.7.7 0 0 0 .084.0049l-.0069.0049c-.0007.0025.0005.0053 0 .0078-.0154-.0002-.0303 0-.0449-.001zm.0888.0176h-.0068l.0068-.004c-.0003.0013.0003.0028 0 .004m-1.495-.0156-.002-.001.0039-.001zm1.4062-.002c-.0125-.0015-.0246-.0027-.0362-.0049l-.1601-.082a.07.07 0 0 1-.0069-.0156zm-1.0987-.045c.2338.0337.5183.038.6827.0099l.0166.0038c-.0035.002-.0065.0048-.0098.0069-.1424.0252-.3765.0272-.5908.0049zm-.293-.0605-.0077-.002c-.0507.0176-.052.0603-.0059.0968h-.003l-.0048.002-.004.0048c-.0115-.01-.0176-.0218-.0234-.0322l.003-.0118L9.35 2.506c-.0063-.026.0066-.0496.039-.0635.0063.0031.0126.0067.0196.0097m1.0059.0782-.0136-.004.0136-.0078zm-1.539-.1456.0566.0157c.0947.0492.207.0805.3496.0986l.0772.0225v-.002l.001.002c-.211-.0188-.3642-.06-.4864-.1377l.0049-.0108h.001zm1.541.1329-.002.001c-.0094.002-.0198.002-.0302.0038l-.2881-.0732a.2.2 0 0 0 .0283-.0049zm-1.0557-.0078-.002.0097c-.0022-.0045-.0075-.0073-.0087-.0117.0036.0003.007.0016.0107.002m-.0107-.004v.002c-.2026-.019-.35-.0593-.4678-.1338zm1.2324-.0595c.0003.0024.0014.0044.002.0068-.0017.0004-.0032.0015-.0049.002q.0024-.0006.0049-.001c.0005.0022.0001.0046.0009.0068l-.4531-.2207c-.0003.0882.0558.176.1592.207.1023.0308.2022.03.2832.0088a.7.7 0 0 0-.0781.0245.57.57 0 0 1-.209-.0215.24.24 0 0 1-.0889-.0508h.002l-.002-.0107-.0156-.005a.218.218 0 0 1-.0606-.1298c.0011.0003.0019.0016.003.002l.0058-.0108-.0107-.0088c-.0001-.005-.0022-.0105-.002-.0156l.0098-.0049zm-.5762-.0196c.008.0028.0162.0041.0244.0059l.0655.0166a.22.22 0 0 1-.1455-.0371zm.1924-.0185a.19.19 0 0 1-.0742.0361l-.0293-.0078a.18.18 0 0 0 .0859-.0322l.0137.0049-.002-.0069zm-.8467-.1065c.04-.0176.1372-.0086.29.0206q0 .0065.001.0127c-.1509-.029-.2481-.0376-.2851-.0215-.0461.0204-.0512.0597-.002.0976.0151.0116.0355.0202.0586.0303l-.0127-.003h-.0039q-.0046.0018-.0088.004c-.0152-.0077-.03-.013-.041-.0215-.0294-.0227-.0424-.0474-.04-.0694l.003.001.0028.001.004-.0127-.004-.002a.07.07 0 0 1 .0381-.037m.296.0342.0077.002c.013.0527.0884.0808.2149.0537l.0254.0068c-.1507.0384-.242.0026-.253-.0635zm.2773.0576c.0077.0073.0167.0127.0254.0186l-.0547-.0137c.0085-.0021.0175-.0032.0263-.0058zm.2578-.001q.0033.0035.0068.0069c-.0026.002-.006.003-.0088.0049l-.294-.0938c-.0012-.0038-.0037-.0076-.0048-.0117l-.0078.0078.0127.004a.18.18 0 0 0 .0703.0907l-.0322-.0078-.001-.001h.003l.0009-.0116-.0205-.0088a.19.19 0 0 1-.0371-.0694l.0078-.0078zm.0097.0098-.0029-.0029.0029-.001zm-.2695-.0097h-.001l-.0253-.0069c.0024-.0006.0052-.0002.0078-.001zm0-.001c-.003-.0029-.005-.0067-.0078-.0098.0025-.0007.0053-.0002.0078-.001zm-.2646-.1104-.003.002.0059.002.001-.003a.2.2 0 0 0 .0322.004l.2129.0859q.0038.005.0078.0097l-.0107.003-.2432-.0997a.09.09 0 0 0-.0068.04l-.004-.0009c-.0027-.0005-.006-.0014-.0087-.002a.1.1 0 0 1 .0078-.042c.0028.0008.0058.0005.0088.001m-.463.0196c.0133.0038.0252.0063.0362.0097.0285.0088.0545.0176.082.0284v.001l.003.001-.004.0116c-.0012-.0005-.0026-.0005-.0038-.001h-.001l-.2324-.0722c.031.0092.1224.0347.1172.0332.013.0037.0242.0074.0351.0107.0282.0087.0539.0177.081.0284.0005-.0043.0033-.0077.005-.0118l-.2344-.0722zm.3868-.17.0059.006c.0005-.0013.0004-.0028.001-.004.0068.0018.0135.0043.0204.0059l.1485.1347-.004.0108a.35.35 0 0 1-.0595.002l-.0351-.0137-.0079.0029-.002.0049c-.033-.0084-.0566-.024-.0702-.0479-.0009-.0015-.0012-.0033-.002-.0049l.003-.0117-.0098-.0039a.122.122 0 0 1 .0068-.082zm.08.1514-.0038-.001.0048-.001zm-.0741-.1455c-.0117.027-.0133.0633.002.0899.0208.0365.0687.0526.1474.0449l.0117.0107.0039-.0107c-.0051.0007-.0107-.0005-.0156 0zm.541.1162-.0059.0108-.001-.001c-.0004-.0046-.0017-.009-.0019-.0137.003.001.006.0032.0088.004m-.0088-.0078v.004a.24.24 0 0 1-.041-.0186l.0429.0322c-.0659-.0196-.1734-.1051-.2138-.164l.0097-.0089zm.0019-.0088.0098.004c0-.0033-.0011-.0066-.001-.0098zm-.5517-.0244.001.002c-.1455-.0257-.2508-.0593-.3174-.1143l-.0059.0107.0488.0176c.0508.0295.116.0522.1973.0703l.08.0284c-.15-.0262-.2584-.0598-.328-.1172l.0058-.0108zm.0088.004-.003.0097c-.0017-.0039-.0036-.0077-.0048-.0118.0025.0005.0052.0015.0078.002m.1133-.0753-.004.0117-.002-.001.004-.0107c-.205-.0246-.403-.1369-.5684-.294l-.0068.0108.0498.0254c.1451.1271.3108.2194.4844.25l.0361.0185a.8.8 0 0 1-.0762-.0126l-.0195-.0176-.0098.001c-.0012.0022-.0018.0053-.0029.0078-.1674-.0454-.327-.1434-.4639-.2735l.0069-.0107zm.2177-.04.0498.038a.35.35 0 0 1-.041-.0468zm-.3213.0322-.0068-.002-.001-.001.0098-.001zm5.6104-.3848c.003-.0047.008-.0088.0107-.0136l-.0117-.001c.0012.0047.0003.0098.001.0146"/><path fill="#000" d="M12.6495 3.6218q.0191.0231.0371.044c.0448.0516.083.0913.1124.1142l-.0079.0098c-.0301-.0236-.069-.063-.1142-.1152-.0122-.014-.0242-.0294-.0371-.045a4.4 4.4 0 0 1-.128-.163c.0035-.0023.0076-.0032.0108-.006a4 4 0 0 0 .1269.1612m-.0957-.3447c.1138.1376.4257.427.5147.4775l-.0059.0108c-.0875-.0497-.3828-.3234-.5058-.4668a.2.2 0 0 0-.0049-.0215zm-.0625.1982c.0353.075.0554.1285.0528.1514-.0044.0353-.0175.051-.0528.043l.003-.0127c.026.006.0335-.0027.0371-.0313.0024-.0194-.0164-.0734-.0508-.1465.0039-.0004.007-.0028.0107-.0039m.2393-.2314c.0675.093.2963.2288.4121.251l-.0029.0127c-.1187-.023-.3491-.1603-.419-.2559.0031-.003.0074-.0043.0098-.0078m-.1797.0264c.0007.0021.0004.0045.001.0068l-.0078.0078c.0038.0046.0085.0088.0127.0137a.4.4 0 0 1 .0039.079.115.115 0 0 1-.0381.083l-.0029-.0038-.0098.0078.0019.002a.07.07 0 0 1-.0205.0087c-.0008-.0018-.001-.004-.0019-.0058l-.0108.0049.002.0048a.09.09 0 0 1-.044-.0039c-.0601-.0227-.1061-.0729-.1367-.1347l.0117-.0059c.0293.0592.0724.1075.129.129.0573.0216.1043-.022.1074-.086.0024-.0524-.0018-.0857-.0117-.1123l.0009-.001c.0048.0017.009.0044.0137.0059m.3272-.169c.0844.0893.3121.276.4013.3203l-.0049.0117c-.0901-.0446-.3178-.2314-.4043-.3222a.03.03 0 0 0 .0079-.0098m-.1739-.0088c.0052.0024.0106.0038.0156.0059.079.0686.2288.1809.3672.2773l-.0068.0098c-.1339-.0932-.278-.201-.3594-.2705-.0047-.0078-.0105-.0148-.0166-.0225l-.0068-.0029.0029-.003c.0016.0019.0025.0041.0039.006m-.5605.0928c.0405.0578.0575.0967.083.1738l-.0117.004c-.0251-.076-.0415-.1136-.0811-.17zm-.2647-.0264c.023.0692.0624.1408.0967.168l-.0078.0098c-.0367-.0292-.0779-.1026-.1016-.1739zm1.2168-.1386c.111.0964.3078.2248.4239.2802l-.0059.0118c-.1199-.0573-.3243-.1912-.4346-.2891l.003-.004q.0069.0007.0136.001m-.9804-.172c.0941.1239.2691.386.2978.4561l-.0117.004c-.0287-.0695-.2026-.3296-.2959-.4522zm.0781-.0995c.0193.1667.1632.404.2881.4785.1043.062.2089.0555.2402.0098.0355-.0518.0003-.15-.1162-.214-.103-.0564-.2373-.1735-.2998-.2607l.0107-.0078c.0615.0857.1936.2023.295.2578a.32.32 0 0 1 .0869.0713l-.002.0059h.001l-.0029.0049c.0074.0068.0171.0126.0263.0205.0293.0481.0344.0955.0117.1289h-.0019c-.0008-.0011-.0022-.0018-.0029-.003l-.0108.0069c.0009.0013.0029.0026.0039.004-.0321.0317-.0955.0419-.1699.0185-.0009-.003-.0009-.006-.0019-.0088l-.0118.0029c-.0201-.0074-.0419-.0141-.0625-.0264-.1282-.0765-.274-.3168-.2939-.4873zm1.0088.2666c.0345.0267.0952.0639.1806.1113l.0371.0205c.0446.0243.1785.096.1905.1026l-.0069.0107c-.014-.0076-.1452-.0784-.1894-.1025-.0127-.007-.0254-.013-.0371-.0196-.0919-.051-.1556-.0904-.1895-.1181l.002-.003zm.0654-.0283c.2304.1456.3773.223.5264.2578l-.003.0117c-.1516-.0353-.2998-.1131-.5332-.2608a.05.05 0 0 0 .0098-.0087m-1.2949.002c.0052.0567.0278.1279.0527.1718l-.0107.0059a.49.49 0 0 1-.0547-.1768zm1.4023-.0226.1299.0557c.0126.0054.0128.0063.0254.0117.1439.0615.2344.0965.2959.1123l-.0029.0118c-.0624-.0161-.1532-.0515-.2979-.1133l-.0254-.0108-.1299-.0556c-.0395-.017-.0703-.0305-.0966-.041-.0024-.0054-.0069-.01-.0108-.0157l.001-.001a4 4 0 0 1 .1113.046m-1.8408-.3622c-.0055.0697.0334.2052.0732.2529.0101.0783.0627.187.1368.2617l-.0088.0088c-.076-.0767-.1298-.188-.1387-.2656-.0408-.047-.081-.1858-.0752-.2588zm1.2813.3408c.0273.0312.0527.0706.0644.1084.0063.0202.0042.0358-.0019.0478l-.002-.002-.0088.0089.0029.0029a.053.053 0 0 1-.042.0127.34.34 0 0 1-.1084-.0254c-.0057-.005-.0116-.0092-.0166-.0137l-.0029.002-.0019-.003.0029-.0058a.33.33 0 0 0 .1279.0342c.0352.0028.0509-.0163.0391-.0547a.315.315 0 0 0-.0723-.1182l.002-.003c.006.0028.0116.0063.0176.0089m-.5606-.1856c.025.0745.2035.2985.2861.3506l-.0068.0107c-.085-.0536-.2651-.28-.291-.3574zm-.4863-.2236c-.0085.1066-.0024.2047.0166.2598a.4.4 0 0 1 .0146.0683l.0049.0313c.002.0124.003.0232.0049.0332.0091.0476.0217.082.04.1084l-.0107.0078c-.0197-.0281-.0316-.065-.041-.1143a1 1 0 0 1-.0059-.0332l-.0049-.0312c-.005-.0326-.0086-.0508-.0136-.0655-.0198-.057-.0263-.157-.0176-.2656zm1.4951.333c.0421.0063.0752.0112.1084.0107.2167.0452.4113.0996.4648.1456l-.0078.0087c-.0599-.0511-.313-.1165-.5654-.164zm-.793-.1465c.1348.1207.4008.257.5606.2813.0848.0128.1585.0102.2002-.0059.0422-.0163.0473-.0442.0088-.087a.4.4 0 0 0-.0645-.0536c.008.0015.016.0015.0234.003.0193.0146.0376.0273.0508.0419.0057.0063.0087.0136.0127.0195l-.0029.0108c.0043.0017.009.003.0137.0049.0087.0198.0055.036-.0059.0498l-.0049-.003-.0068.0108.0019.001c-.0062.0047-.0123.011-.0214.0146-.0097.0037-.0217.0026-.0342.0049l-.0069-.0049-.0058.0068a.47.47 0 0 1-.0938.003l-.0078-.0069-.0058.0059c-.017-.0014-.0347-.0012-.0528-.004-.0608-.0092-.1359-.036-.2138-.0702-.004-.0045-.0068-.0106-.0108-.0147l-.0068.0059c-.1245-.0566-.2536-.1322-.335-.2051zm1.5069.1621h-.002l-.001.0137c.002.0002.004-.0002.0059 0a.13.13 0 0 1-.0098.042c-.0018-.0004-.0041.0004-.0058 0l-.003.0127c.0012.0003.0028-.0003.0039 0-.0144.0303-.0372.056-.0634.0644l-.0039-.0117c.0478-.0153.0882-.0966.0595-.1494.004-.0019.0082-.0028.0117-.0049a.09.09 0 0 1 .0079.0332m-1.6104-.1474c.0573.065.2461.2098.3311.2441l-.0049.0117c-.087-.0352-.2777-.1818-.336-.248zm1.6035.203c.1221.0284.3969.0351.5293.006l.002.0126c-.1351.0297-.4134.0233-.5362-.0058.002-.0042.0033-.0084.0049-.0127m-1.3476-.2382c.1437.0815.3367.173.4707.2217l-.0039.0117c-.1348-.049-.3293-.1407-.4737-.2226zm-1.1407.1572a.3.3 0 0 0 .0254.0342c.0085.01.0161.0175.0293.0313l-.0088.0088c-.0132-.0139-.0207-.0213-.0293-.0313a.3.3 0 0 1-.0263-.0361c-.0057-.0092-.0109-.0173-.0137-.0254l.0117-.005a.12.12 0 0 0 .0117.0235m3.0186-.0117c-.1133.0543-.336.0676-.5205.0508.0001-.0047-.0025-.009-.0029-.0137.183.0172.4058.0044.5175-.0488zm-.5156-.1806c.0289.0196.0433.045.0468.0732l-.0058.002.0029.0117c.002-.0005.0039-.0015.0059-.002a.1.1 0 0 1-.0147.0508c-.0055.0008-.011.0031-.0166.0039l.001.0117c-.0088.0101-.0163.0227-.0293.0313-.0016.001-.0041.0009-.0059.002-.0005-.0012-.0003-.0029-.0009-.004l-.0108.0059v.0029c-.0846.0398-.2572.0293-.3652-.0176v-.002c.0083-.001.0163-.0035.0244-.0048.113.0423.2831.052.3516.0068.0727-.0482.0713-.1243.0068-.165.0025-.002.0063-.0029.0088-.0049zm.0234-.1993a.064.064 0 0 1 .041.0577c-.003.001-.0057.0027-.0088.0038l.0039.0118c.0014-.0005.0026-.0015.004-.002-.0005.0077 0 .016-.002.0244-.0075.0312-.0282.0636-.0479.087-.0047.001-.0098.0028-.0146.0038l.002.0108-.001.002c-.0018-.0013-.003-.0038-.0049-.005l-.0059.0108.001.001c-.1084.0864-.2147.1358-.3584.1582-.0061-.0023-.0128-.0024-.0185-.0049l-.0059.0098c-.009.0011-.018.0039-.0273.0048l-.001-.0029c.0055-.0042.0103-.0077.0136-.0127-.0047.0006-.0097.0025-.0146.003l.001.0097c-.0161.0124-.0403.0231-.0752.0293a.7.7 0 0 1-.1172.0117q-.0527-.0112-.1065-.0214l-.0019.0107c-.0193-.0029-.0407-.0044-.0645-.0088-.0062-.0048-.0117-.0109-.0185-.0156.1458.0275.1961.0314.3066.0117.0581-.0103.0856-.0291.0869-.0527.0011-.0215-.0194-.0495-.0566-.081-.0326-.0278-.0987-.059-.1758-.086.0084-.0015.0178-.0015.0274-.003.0685.0255.1268.0532.1572.0791.0029.0025.0051.0055.0078.0079l-.001.0127c.0042.0004.0085-.0004.0127 0 .0265.0265.0412.0497.0401.0712a.043.043 0 0 1-.0069.0206c.1636-.0193.2792-.07.3975-.166.023-.0189.0496-.0614.0586-.0987.0109-.0451-.0029-.0763-.0449-.087zm-.833.3897h-.0019v-.002zm-.3594-.1846c.1398.0482.2753.1096.3643.1719-.0015-.0003-.0034.0003-.0049 0l-.0019.0107c-.0877-.0614-.2225-.123-.3614-.1709zm-.9472.0361a.4.4 0 0 1 .0127.0635c.0025.0274-.0001.0511-.0088.0713l-.0117-.0049q.0115-.0271.0078-.0654a.4.4 0 0 0-.0118-.0615c-.0023-.0089-.0026-.009-.0048-.0176l.0117-.003c.0022.0086.0025.0086.0049.0176m-.1914-.0742c-.0146.0648-.0128.1403.0058.1963l-.0117.004c-.0194-.0585-.0209-.1362-.0059-.2032zm3.1748-.1357a.7.7 0 0 0-.0577.0263c-.0288.0149-.1826.1035-.2373.131-.1538.077-.3224.1304-.5517.163l-.001-.001c.0051-.0058.0119-.0095.0156-.0156.2196-.0326.3824-.0836.5313-.1582.0546-.0274.2105-.1168.2383-.1309a.7.7 0 0 1 .0576-.0263zm-2.9141.1094c.0212.0698.0343.155.0312.1933l-.0126-.001c.0029-.0364-.0105-.12-.0313-.1884zm.9189.0556a2.4 2.4 0 0 1 .2872.043 6 6 0 0 1 .1406.0312c.019.0044.1158.0276.1445.0342l-.0019.0117-.1456-.0332a6 6 0 0 0-.1406-.0312 2.4 2.4 0 0 0-.2851-.044zm2.1133-.334c-.2224.1831-.5534.326-.9355.422 0-.0042-.0024-.0078-.003-.0118.3805-.0955.71-.2382.9307-.42zm-1.2519.171a.28.28 0 0 1 .0595.0204l.003.0118c.0036-.001.007-.003.0107-.004q.037.0223.044.0538c.0065.03-.0081.0632-.0352.0888-.0472.0446-.1495.0694-.2549.0615-.0039-.0039-.0072-.0086-.0117-.0126l.0791.002c.0766-.0048.1442-.028.1787-.0606.0243-.023.0378-.052.0322-.0772-.0071-.0311-.042-.0561-.1084-.0713-.1423-.0325-.3551.001-.4912.0743q-.0097-.0026-.0195-.005c.1379-.0797.3637-.1162.5137-.082m-2.2783.0302c-.0098.0416-.0029.1425.0107.1973l-.0117.0029c-.0141-.0565-.022-.1592-.0117-.2031zm3.3105-.2041a5 5 0 0 0-.1572.085c-.0081.0045-.0084.0051-.0166.0097-.2553.1426-.3879.202-.5899.2451l-.0009-.002c.0045-.004.0081-.0092.0126-.0145.1926-.0427.3239-.1016.5723-.2403.0082-.0046.0085-.0042.0166-.0088a5 5 0 0 1 .1572-.085zm-1.5537.1123c.0172.0455-.0072.0924-.0498.1299l-.0127-.003-.0029.0128.0048.001c-.0536.0413-.1318.0673-.2041.0536l.002-.0127c.1314.025.2849-.0854.251-.1767zm.0078.1436q-.0015.0009-.0029.002l.0058.0107c.0051-.003.0113-.005.0166-.0078.0401.0106.0803.0229.1182.036l-.0029.001.0009.0118a1.6 1.6 0 0 0-.2041-.0567c.0041-.0031.007-.0074.0108-.0107q.0284.0062.0576.0137m.5039.0195c-.0814 0-.2387.0156-.3398.0312q-.013-.005-.0264-.0097c.0991-.017.2772-.0342.3662-.0342zm-2.085-.4844c-.024.0608-.0382.1918-.0312.2422.0016.0116.0016.0141-.0029.0576-.0079.0748-.0041.1313.0205.2041l-.0127.004c-.0252-.0747-.0285-.1328-.0205-.209.0044-.042.0053-.0447.0039-.0547-.0074-.0522.0063-.185.0312-.248zm.0879.0625c-.027.1121-.026.3253 0 .4131l-.0117.004c-.0268-.09-.0276-.3057 0-.42zm3.2139-.0937a2.2 2.2 0 0 1-.2646.1787c-.1841.1065-.3374.1716-.6123.2734.0002-.0048.0013-.0092.0009-.0137.2708-.1004.4226-.1652.6045-.2705a2.2 2.2 0 0 0 .2637-.1777zm-2.5508.3779c-.0511.0145-.0795.0295-.1338.0644l-.0068-.0107c.0554-.0356.0851-.0505.1377-.0654zM14.5616 2.2c-.0862.0849-.3119.1895-.5527.2676-.0049-.0021-.0098-.0053-.0156-.0068l-.0029.0127c-.0661.021-.133.04-.1983.0556-.0043-.0025-.0087-.0054-.0137-.0078l.2364-.0673c.2355-.0773.4545-.1806.5381-.2627zm-2.7734.0215c-.003.0946.0412.2173.1143.2989l-.0088.0078c-.0751-.084-.1212-.209-.1182-.3067zm-.2744.1807c-.005.0278-.0034.0733.0029.1182l-.0127.002c-.0065-.0462-.0072-.0928-.0019-.1221zm-.0674-.1016a.47.47 0 0 0-.0146.1485l-.0118.001c-.0034-.0474.0009-.1092.0137-.1534zm.5381-.418a.22.22 0 0 0-.0527.005h-.001l-.001-.0127c-.0093.0008-.0127.0055-.0146.0175-.0101.0025-.0255.006-.1065.0381-.0062-.0048-.0121-.0063-.0195-.003l.0039.0099c-.0942.0407-.2532.1542-.3525.2558-.0154.0157-.0277.0235-.0411.0274-.0033.0009-.0066.002-.0117.0029a.14.14 0 0 0-.0498.0166l-.0058-.0117a.16.16 0 0 1 .0537-.0176.1.1 0 0 0 .0107-.003c.0111-.0032.0213-.0092.0352-.0234.1041-.1064.2729-.2253.3672-.2627.0048-.002.0584-.024.0722-.0293a.4.4 0 0 1 .0576-.0175.24.24 0 0 1 .0557-.005zm.0234.168c-.0324.017-.0563.0415-.0761.0762l-.0108-.0059c.021-.0368.0463-.0639.0811-.082zm-.082-.1445c-.0008.0113-.0008.0154-.0019.0215-.0042.022-.0153.037-.0362.045-.0331.0122-.0536.005-.0722-.0167-.0017-.002-.0098-.0116-.0118-.0137-.0039-.0038-.0064-.0044-.0097-.0029l-.001-.002.0098-.0039c.0019-.0007.0039-.0021.0058-.0029.0013.001.0027.0017.0039.003l.0127.0146c.0154.0178.0308.023.0586.0127.0162-.0061.024-.0176.0274-.0352.001-.0055.0011-.0097.0019-.0205.0004-.0048.0014-.0091.002-.0127.0042-.001.0072-.0033.0146-.0049-.0019.001-.003.006-.0039.0186"/><path fill="#000" d="m11.9838 3.5118.0039.002c.07.1313.1014.2977.0771.3886l-.0127-.003v-.0029h.001l-.001-.002c.0222-.0917-.009-.2609-.082-.3896l.0019-.002c.0046.003.0078.0071.0118.0089m.0048.288c.0347.025.0566.0554.0635.0948v.002l-.0107.0019c-.0059-.0366-.0269-.0652-.0596-.0889-.0131-.0094-.0214-.0146-.0371-.0283-.0254.028-.0735.0617-.0996.0674l-.0029-.0127c.0231-.005.0691-.037.1005-.0644a.3.3 0 0 1 .0459.0283m.294-.1874c.001.0105.0038.0235.0049.04.0008.0117.0045.0757.0058.0947.0045.0656.0087.1098.0147.1377l-.0127.003c-.0062-.0288-.0102-.0735-.0147-.1397l-.0058-.0947a.8.8 0 0 0-.0059-.0576v-.001q.0076.0096.0137.0176m-.0996.0888c.0188.0458.0311.1167.0273.1602l-.0127-.001c.0036-.0413-.0082-.1103-.0263-.1543zm-.4824-.502c.0342.0018.0485.0056.0654.0235.0103.011.0198.0271.0303.0498.0365.0794.1434.2054.1923.2276.0853.0383.141.082.1592.1425.0338-.0763.0418-.1218.0166-.1767l.0108-.0069c.0073.0092.0148.019.0234.0293.1394.168.1304.1566.1387.1963.0099.0476.0489.1147.0879.1573l-.0088.0088c-.0404-.0441-.0813-.113-.0918-.1631-.0051-.0243-.0041-.0278-.042-.0752-.0007-.0073-.0003-.0135-.001-.0186l-.0127.001c-.0188-.0232-.044-.0552-.0801-.0987l-.0029-.0039c.0122.0468.0028.0915-.0264.1573-.003.0068-.0038.0069-.0068.0136l-.0117-.002c-.0109-.063-.0664-.1077-.1533-.1474-.0027-.0049-.0041-.0108-.0069-.0156l-.0088.0049c-.0553-.0356-.1516-.1498-.1865-.2256a.17.17 0 0 0-.0293-.0459c-.014-.0148-.0246-.018-.0556-.0195a.4.4 0 0 1-.0264-.002l.001-.0127a.4.4 0 0 0 .0254.002m.2148.3253c.0236.066.0478.1644.0498.2031l-.0127.001c-.002-.0373-.0255-.1352-.0488-.2002zm-.1416-.128c.0223.0675.0402.1488.042.1963h-.0127c-.0018-.0462-.0191-.126-.041-.1923z"/></g></g><defs><clipPath id="a"><path fill="#fff" d="M0 0h16v12H0z"/></clipPath></defs></svg>