<svg xmlns="http://www.w3.org/2000/svg" width="16" height="12" fill="none" viewBox="0 0 16 12"><g clip-path="url(#a)"><rect width="16" height="12" fill="#fff" rx="2"/><mask id="b" width="16" height="12" x="0" y="0" maskUnits="userSpaceOnUse" style="mask-type:luminance"><rect width="16" height="12" fill="#fff" rx="2"/></mask><g mask="url(#b)"><path fill="#369d0c" fill-rule="evenodd" d="M0 1.6h16V0H0zM0 12h16v-1.6H0zm0-7.2h16V3.2H0zm0 4h16V7.2H0z" clip-rule="evenodd"/><path fill="#262626" fill-rule="evenodd" d="M0 7.2h16V4.8H0z" clip-rule="evenodd"/><path fill="#ffd40e" fill-rule="evenodd" d="M0 3.2h16V1.6H0zm0 7.2h16V8.8H0z" clip-rule="evenodd"/><mask id="c" fill="#fff"><path fill-rule="evenodd" d="M-.9465 12V0h.7787L7.619 6l-7.7868 6z" clip-rule="evenodd"/></mask><path fill="#fff" fill-rule="evenodd" stroke="#262626" stroke-width="2" d="M-.9465 12V0h.7787L7.619 6l-7.7868 6z" clip-rule="evenodd" mask="url(#c)"/><path fill="url(#d)" fill-rule="evenodd" d="m2.2857 6.7805-1.1195.803.413-1.3194-1.105-.8232 1.3749-.0125.4366-1.3118.4367 1.3118 1.3749.0125-1.105.8232.413 1.3195z" clip-rule="evenodd"/></g></g><defs><linearGradient id="d" x1="0" x2="0" y1="4" y2="8" gradientUnits="userSpaceOnUse"><stop stop-color="#f12f1f"/><stop offset="1" stop-color="#de2010"/></linearGradient><clipPath id="a"><path fill="#fff" d="M0 0h16v12H0z"/></clipPath></defs></svg>