<svg xmlns="http://www.w3.org/2000/svg" width="16" height="12" fill="none" viewBox="0 0 16 12"><g clip-path="url(#a)"><rect width="16" height="12" fill="#fff" rx="2"/><mask id="b" width="16" height="12" x="0" y="0" maskUnits="userSpaceOnUse" style="mask-type:luminance"><rect width="16" height="12" fill="#fff" rx="2"/></mask><g mask="url(#b)"><path fill="#ffd44d" d="M0 0h16v12H0z"/><path fill="#159a74" d="M16 12H0V9.5996h16zm0-4.7998H6.8574V4.7998H16zm0-4.7998H6.8574V0H16z"/><path fill="#ed1f45" d="M0 0h6.8571v7.2H0z"/><path fill="#fff" fill-rule="evenodd" d="m3.4285 4.6314-1.3435.9401.4957-1.5447-1.326-.9637 1.6499-.0146.524-1.5358.524 1.5358 1.6498.0145-1.326.9638.4957 1.5447z" clip-rule="evenodd"/></g></g><defs><clipPath id="a"><path fill="#fff" d="M0 0h16v12H0z"/></clipPath></defs></svg>