<svg xmlns="http://www.w3.org/2000/svg" width="16" height="12" fill="none" viewBox="0 0 16 12"><g clip-path="url(#a)"><rect width="16" height="12" fill="#fff" stroke="#f5f5f5" rx="2"/><mask id="b" width="16" height="12" x="0" y="0" maskUnits="userSpaceOnUse" style="mask-type:luminance"><rect width="16" height="12" fill="#fff" stroke="#fff" rx="2"/></mask><g mask="url(#b)"><path fill="#e20f1b" d="M16 12H0V6.4004h9.1426V0H16z"/><path fill="url(#c)" d="M5 .8001a.333.333 0 0 1 .333.333v1.2666h1.1904c.1841 0 .334.15.334.334v.9326a.3344.3344 0 0 1-.334.334H5.333V5.267A.333.333 0 0 1 5 5.6h-.8574a.333.333 0 0 1-.333-.333V4.0003H2.619a.3336.3336 0 0 1-.333-.334v-.9326c0-.184.149-.334.333-.334h1.1905V1.1331a.333.333 0 0 1 .333-.333z"/></g></g><defs><linearGradient id="c" x1="2" x2="2" y1="1" y2="6" gradientUnits="userSpaceOnUse"><stop stop-color="#df101b"/><stop offset="1" stop-color="#c00711"/></linearGradient><clipPath id="a"><path fill="#fff" d="M0 0h16v12H0z"/></clipPath></defs></svg>