<svg width="16" height="12" viewBox="0 0 16 12" fill="none" xmlns="http://www.w3.org/2000/svg">
<g clip-path="url(#clip0_41818_4379)">
<rect width="16" height="12" rx="2" fill="white"/>
<mask id="mask0_41818_4379" style="mask-type:luminance" maskUnits="userSpaceOnUse" x="0" y="0" width="16" height="12">
<rect width="16" height="12" rx="2" fill="white"/>
</mask>
<g mask="url(#mask0_41818_4379)">
<rect width="16" height="12" fill="#19BFBF"/>
<path fill-rule="evenodd" clip-rule="evenodd" d="M5.71433 9.49994C5.71433 9.47209 5.71782 9.44435 5.72472 9.41737L6.09528 7.96812L6.45164 6.57442C6.46769 6.51166 6.4651 6.44559 6.4442 6.38428L6.13997 5.49191C6.11136 5.408 6.05051 5.33895 5.97086 5.30001L5.52031 5.07975C5.40592 5.02383 5.33337 4.90762 5.33337 4.78029V3.57877C5.33337 3.526 5.3459 3.47399 5.36993 3.427L5.71433 2.75355L6.00243 2.19017C6.05942 2.07873 6.17404 2.00861 6.29921 2.00861H8.04766C8.23175 2.00861 8.38099 2.15784 8.38099 2.34194V2.42021C8.38099 2.60431 8.53023 2.75355 8.71433 2.75355H8.80956C8.99366 2.75355 9.1429 2.90278 9.1429 3.08688V3.29041C9.1429 3.41774 9.21544 3.53395 9.32983 3.58987L10.4798 4.15204C10.5942 4.20796 10.6667 4.32417 10.6667 4.4515V4.90808C10.6667 4.96085 10.6542 5.01286 10.6302 5.05985L10.3262 5.65429C10.2997 5.70606 10.2601 5.75001 10.2114 5.78177L9.21725 6.42978C9.16853 6.46154 9.12897 6.50548 9.10249 6.55726L8.4214 7.88911C8.39492 7.94088 8.35536 7.98483 8.30664 8.01659L7.31249 8.6646C7.26377 8.69636 7.22421 8.7403 7.19773 8.79208L6.56908 10.0214C6.51209 10.1328 6.39747 10.2029 6.2723 10.2029H6.04766C5.86357 10.2029 5.71433 10.0537 5.71433 9.86961V9.49994Z" fill="white"/>
</g>
</g>
<defs>
<clipPath id="clip0_41818_4379">
<rect width="16" height="12" fill="white"/>
</clipPath>
</defs>
</svg>
