<svg xmlns="http://www.w3.org/2000/svg" width="16" height="12" fill="none" viewBox="0 0 16 12"><g clip-path="url(#a)"><path fill="#244aa5" d="M0 0h16v12H0z"/><path fill="#d0a650" d="M8.0878 3.857c.068.0794.1136.1587.1136.2552-.0571.0282-.136.0398-.1816.0908.2836-.0398.34.289.6577.1642.0115.0456.057.0853.1135.0681l.034-.0905c.1245-.034.0905.17.227.1302.0681.0568.0226.153.0681.2214 0 .0792.034.1472.068.2152.034-.0394.0565-.0962.136-.0792.0565.0622.102.119.1136.187-.023.1306-.057.2438.079.3118v.0398c.091.0397.295-.0398.295.119-.0115.0568.0565.0058.0796.0398.0565-.0228.136-.0112.204-.0112.0565.119-.068.204-.102.3117.0565.0565.034.1588.0225.2265l-.034.017c.0904.017.204-.0109.2835.0401l.1476.0565c.068-.0395.147-.0455.238-.0395.068.051-.023.136.034.1755.0796 0 .1476.0116.1585.0796l.0116.0225c.0564-.102.2155-.034.2835-.1075.1136 0 .136.1245.1925.1925.0231.176-.1925.2556-.1245.4311-.0455.085-.136.153-.204.2326.0225.0115.0109.0395.0109.0565-.068.04-.0109.159-.102.17-.0109.074-.1469.0455-.102.125.0911.1191-.0449.1926-.0449.3007-.0571.0625-.1707-.0571-.1707.0625-.068.017-.136-.0625-.1809.0055-.0231.0795.0449.1075.034.187.113-.0115.147.102.1925.17l.1135.1136c-.1135.0904-.2611-.0116-.3971.0394-.034-.017 0-.062-.034-.0789-.034-.0401-.102-.0401-.1585-.051.0109.051-.0911.068-.0455.13 0 .0169.0224.068-.0225.068-.0911.0285-.0795-.079-.1591-.0396-.102.0395-.0225.1926-.17.1755.0224.1367-.2265.2272-.0565.3462.0224.0225.011.068.011.102-.1021.091-.2831.057-.3966.023-.0911-.023-.034-.1366-.068-.1985-.034-.057-.136-.0965-.136-.176-.0681-.028-.1251-.0456-.1707-.1021-.1585.153-.3515.3006-.578.306-.102.051-.1591.2557-.3176.1706-.0623.102-.2496 0-.2609.147-.0737.0286-.0397.1251-.085.17-.017.1136 0 .2101.0963.2782.0398.085-.085.085-.034.1645.0115.028 0 .068-.017.0796-.034.017-.0452.034-.034.068-.0283 0-.0398.017-.0623.0394-.0285.0565-.119.0851-.1815.1245-.0623.017-.1078-.0279-.1473-.068-.0115.0626-.0625.0966-.1248.0966-.0908 0-.0737-.0796-.1418-.1136.0283-.102-.0625-.147-.034-.238.0738-.0565.1983-.0966.1643-.2156-.0793-.096-.051-.238-.1303-.3516-.051-.0449-.136-.1129-.1078-.221.0738-.085 0-.187-.0397-.2775-.017-.074-.0623-.142-.0623-.2271-.1247-.0735-.1305-.2666-.3063-.2836-.1248 0-.1473-.1585-.272-.1475-.0116-.0225-.0398-.0395-.0626-.062-.0905.062-.204-.017-.3173.011-.0738-.1245.0623-.2946-.1363-.3686v-.079c.0228.011.034-.0116.0398-.023.0112-.085-.1418-.096-.0793-.1926-.034-.0285-.0737-.04-.051-.0965-.0853-.1755-.3403-.1585-.3971-.3346.0455-.0394.0455-.0795.0626-.1135a.32.32 0 0 1-.0398-.215c.0398-.0116.0622-.0625.085-.1026-.051-.034-.1133-.085-.17-.068-.102-.017-.1758-.096-.2666-.1415-.0228-.0225-.0112-.0625-.0112-.0905.1247-.04-.017-.2159.136-.193.0398-.051.1248-.0681.187-.1079.0626-.0112.1136.0116.1758.0286.051.0677.1418.0394.1928.0962.051-.0115.1136-.0398.1758-.0115 0-.0963.0453-.153.1135-.221.0113-.0396.0735-.068.1245-.0905.0966.0224.2098.0224.2782-.0456.0452.0285.085-.0282.136-.0282.0622-.0116.1132.0054.1588.034.0054-.1136.204-.017.2438-.153.0452-.0908-.1248-.1248-.1136-.2044-.0282-.0908.0398-.136.0738-.1982.0397-.017.085-.0398.136-.0286.1306-.0452.0285-.3118.2383-.2152 0 .0282-.0115.0622.0055.068.0738 0 .0851-.0851.1363-.1136.0225-.0792-.0285-.1758.0395-.238.034-.0058.0625-.017.085-.0456 0-.0622-.034-.0962-.085-.136-.017.0283-.0622.0058-.0907.017 0-.068-.0396-.1132-.051-.1758-.034-.017-.051-.0452-.0396-.085.051-.051 0-.1758.119-.1475.0453-.0395.1249-.0113.1701-.0793.119-.068.2778-.068.3686-.1928.0397.0058.085-.034.1248 0 .0112.0738.119.0452.119.1134"/><path fill="#fff" d="m8.966 2.32-.157-.482-.155.482h-.507l.41.298L8.4 3.1l.408-.298.41.298-.157-.482.41-.298zm1.595.28-.157-.48-.155.48h-.507l.41.298-.157.482.408-.298.41.298-.157-.482.41-.298zm1.521.554-.155-.48-.157.48h-.507l.41.298-.157.482.41-.298.408.298-.157-.482.41-.298zM7.346 2.32l-.155-.482-.157.482h-.507l.41.298-.157.482.41-.298.408.298-.157-.482.41-.298zm-1.595.28-.155-.48-.157.48h-.507l.41.298-.157.482.41-.298.408.298-.157-.482.41-.298zm-1.521.554-.157-.48-.155.48h-.507l.41.298-.157.482.408-.298.41.298-.157-.482.41-.298z"/></g><defs><clipPath id="a"><rect width="16" height="12" fill="#fff" rx="1"/></clipPath></defs></svg>