<svg xmlns="http://www.w3.org/2000/svg" width="16" height="12" fill="none" viewBox="0 0 16 12"><g clip-path="url(#a)"><rect width="16" height="12" fill="#fff" rx="2"/><mask id="b" width="16" height="12" x="0" y="0" maskUnits="userSpaceOnUse" style="mask-type:luminance"><rect width="16" height="12" fill="#fff" rx="2"/></mask><g mask="url(#b)"><path fill="#19bfbf" d="M0 0h16v12H0z"/><path fill="#fff" fill-rule="evenodd" d="M4.601 3.671a.333.333 0 0 1 .096-.294l1.302-1.273a.333.333 0 0 1 .233-.095h.803a.333.333 0 0 1 .297.182l.195.382a.333.333 0 0 0 .297.182H8.94a.333.333 0 0 1 .297.182l.957 1.872a.334.334 0 0 0 .297.182h.263c.276 0 .433.317.264.536l-.713.93a.33.33 0 0 0-.032.051l-.331.647a.33.33 0 0 0-.037.152v.584a.33.33 0 0 1-.036.152l-.344.674-.381.745-.288.563a.333.333 0 0 1-.297.182h-.354a.333.333 0 0 1-.297-.181l-.251-.492a.33.33 0 0 1-.037-.152V7.364a.333.333 0 0 0-.1-.238l-.224-.219a.33.33 0 0 1-.082-.131l-.278-.816a.333.333 0 0 0-.315-.226H5.236a.333.333 0 0 1-.328-.277zm6.066 4.662c0-.184.149-.333.333-.333h.095a.333.333 0 0 1 .333.333v.391a.33.33 0 0 1-.032.143l-.285.599a.234.234 0 0 1-.444-.1z" clip-rule="evenodd"/></g></g><defs><clipPath id="a"><path fill="#fff" d="M0 0h16v12H0z"/></clipPath></defs></svg>