<svg width="16" height="12" viewBox="0 0 16 12" fill="none" xmlns="http://www.w3.org/2000/svg">
<g clip-path="url(#clip0_41818_3688)">
<rect x="0.25" y="0.25" width="15.5" height="11.5" rx="1.75" fill="white" stroke="#F5F5F5" stroke-width="0.5"/>
<mask id="mask0_41818_3688" style="mask-type:luminance" maskUnits="userSpaceOnUse" x="0" y="0" width="16" height="12">
<rect x="0.25" y="0.25" width="15.5" height="11.5" rx="1.75" fill="white" stroke="white" stroke-width="0.5"/>
</mask>
<g mask="url(#mask0_41818_3688)">
<path fill-rule="evenodd" clip-rule="evenodd" d="M0 6.4H16V0H0V6.4Z" fill="#E12237"/>
<path d="M3.8092 0.800133C4.35018 0.800133 4.84646 0.998607 5.23792 1.32845C5.03022 1.24686 4.80574 1.19955 4.57092 1.19955C3.51931 1.19981 2.66686 2.09535 2.66663 3.19955C2.66663 4.30395 3.51917 5.19928 4.57092 5.19955C4.80586 5.19955 5.03013 5.15232 5.23792 5.07064C4.84639 5.40071 4.35038 5.59994 3.8092 5.59994C2.54697 5.59978 1.52405 4.52493 1.52405 3.19955C1.52428 1.87437 2.54711 0.800291 3.8092 0.800133ZM4.95276 4.00033C5.16288 4.00057 5.33348 4.17909 5.33362 4.39974C5.33362 4.62051 5.16296 4.7999 4.95276 4.80013C4.74236 4.80013 4.57092 4.62066 4.57092 4.39974C4.57106 4.17895 4.74245 4.00033 4.95276 4.00033ZM6.4762 4.00033C6.68649 4.00035 6.85692 4.17896 6.85706 4.39974C6.85706 4.62064 6.68657 4.80011 6.4762 4.80013C6.2658 4.80013 6.09534 4.62066 6.09534 4.39974C6.09547 4.17895 6.26588 4.00033 6.4762 4.00033ZM4.19006 2.39974C4.40046 2.39974 4.57092 2.57922 4.57092 2.80013C4.57086 3.02099 4.40042 3.19955 4.19006 3.19955C3.97988 3.19934 3.80927 3.02086 3.8092 2.80013C3.8092 2.57935 3.97984 2.39995 4.19006 2.39974ZM7.23792 2.39974C7.44831 2.39974 7.61877 2.57922 7.61877 2.80013C7.61871 3.02099 7.44827 3.19955 7.23792 3.19955C7.02763 3.19947 6.85712 3.02094 6.85706 2.80013C6.85706 2.57927 7.02759 2.39982 7.23792 2.39974ZM5.71448 1.19955C5.92474 1.19968 6.0953 1.37913 6.09534 1.59994C6.09534 1.82077 5.92476 2.0002 5.71448 2.00033C5.50408 2.00033 5.33362 1.82085 5.33362 1.59994C5.33365 1.37905 5.5041 1.19955 5.71448 1.19955Z" fill="white"/>
</g>
</g>
<defs>
<clipPath id="clip0_41818_3688">
<rect width="16" height="12" fill="white"/>
</clipPath>
</defs>
</svg>
