<svg xmlns="http://www.w3.org/2000/svg" width="16" height="12" fill="none" viewBox="0 0 16 12"><g clip-path="url(#a)"><rect width="16" height="12" fill="#fff" stroke="#f5f5f5" rx="2"/><mask id="b" width="16" height="12" x="0" y="0" maskUnits="userSpaceOnUse" style="mask-type:luminance"><rect width="16" height="12" fill="#fff" stroke="#fff" rx="2"/></mask><g mask="url(#b)"><path fill="#1b57c4" fill-rule="evenodd" d="M0 4h16V0H0zm0 8h16V8H0z" clip-rule="evenodd"/><path fill="url(#c)" d="M8.9134 4.721c.3702.292.6104.7558.6104 1.2793-.0001.8834-.6821 1.5994-1.5234 1.5996-.8415 0-1.5243-.716-1.5245-1.5996 0-.523.2398-.9874.6094-1.2793l.5342 1.6787h.7617z"/><path fill="#f9c92e" fill-rule="evenodd" d="m8 4.4.381 2h-.762z" clip-rule="evenodd"/></g></g><defs><linearGradient id="c" x1="6" x2="6" y1="5" y2="8" gradientUnits="userSpaceOnUse"><stop stop-color="#3c7839"/><stop offset="1" stop-color="#31642e"/></linearGradient><clipPath id="a"><path fill="#fff" d="M0 0h16v12H0z"/></clipPath></defs></svg>