<svg xmlns="http://www.w3.org/2000/svg" width="16" height="12" fill="none" viewBox="0 0 16 12"><g clip-path="url(#a)"><rect width="16" height="12" fill="#fff" rx="2"/><mask id="b" width="16" height="12" x="0" y="0" maskUnits="userSpaceOnUse" style="mask-type:luminance"><rect width="16" height="12" fill="#fff" rx="2"/></mask><g mask="url(#b)"><path fill="#19bfbf" d="M0 0h16v12H0z"/><path fill="#fff" fill-rule="evenodd" d="M5.7143 9.5a.33.33 0 0 1 .0104-.0826l.3706-1.4493.3563-1.3937a.333.333 0 0 0-.0074-.1901L6.14 5.4919A.333.333 0 0 0 5.9709 5.3l-.4506-.2203a.333.333 0 0 1-.187-.2994V3.5788A.33.33 0 0 1 5.37 3.427l.3444-.6734.2881-.5634a.333.333 0 0 1 .2968-.1816h1.7485c.184 0 .3333.1492.3333.3333v.0783c0 .1841.1492.3334.3333.3334h.0953a.3333.3333 0 0 1 .3333.3333v.2035c0 .1273.0725.2435.187.2995l1.1499.5621a.333.333 0 0 1 .1869.2995v.4566a.334.334 0 0 1-.0365.1517l-.304.5945a.334.334 0 0 1-.1148.1275l-.9941.648a.333.333 0 0 0-.1148.1275L8.4214 7.889a.333.333 0 0 1-.1148.1275l-.9941.648a.333.333 0 0 0-.1148.1275l-.6286 1.2293a.333.333 0 0 1-.2968.1815h-.2246a.3333.3333 0 0 1-.3334-.3333z" clip-rule="evenodd"/></g></g><defs><clipPath id="a"><path fill="#fff" d="M0 0h16v12H0z"/></clipPath></defs></svg>