<svg width="16" height="12" viewBox="0 0 16 12" fill="none" xmlns="http://www.w3.org/2000/svg">
<g clip-path="url(#clip0_41807_2485)">
<mask id="mask0_41807_2485" style="mask-type:luminance" maskUnits="userSpaceOnUse" x="0" y="0" width="16" height="12">
<rect width="16" height="12" rx="2" fill="white"/>
</mask>
<g mask="url(#mask0_41807_2485)">
<rect width="16" height="12" fill="#EE343C"/>
<path fill-rule="evenodd" clip-rule="evenodd" d="M7.18782 2.74728C6.99766 2.54762 6.69012 2.51691 6.46424 2.67503C6.12205 2.91456 6.15498 3.43141 6.52481 3.62558L6.97121 3.85993C7.13528 3.94607 7.23805 4.1161 7.23805 4.30141C7.23805 4.57679 7.01481 4.80002 6.73943 4.80002H6.62684C6.52786 4.80002 6.43036 4.77599 6.34272 4.72998L5.3074 4.18643C5.09726 4.07611 4.83945 4.11856 4.67577 4.29042C4.43247 4.54588 4.50117 4.96316 4.81352 5.12715L5.20083 5.33049C5.43508 5.45346 5.45594 5.78083 5.2392 5.93255C4.9859 6.10986 5.06657 6.50401 5.36916 6.56756L5.66782 6.63028C5.98833 6.69758 6.08454 7.10841 5.82725 7.31103L5.52529 7.54882C5.33687 7.6972 5.4418 8.00002 5.68163 8.00002C5.70328 8.00002 5.72484 7.99724 5.74578 7.99174L6.43614 7.81052C6.72235 7.7354 6.95226 8.05014 6.79366 8.29994C6.65603 8.5167 6.81175 8.80002 7.06851 8.80002H7.38167C7.52299 8.80002 7.64805 8.89153 7.69081 9.02623C7.78656 9.32784 8.21335 9.32784 8.30909 9.02623C8.35186 8.89153 8.47691 8.80002 8.61824 8.80002H8.9314C9.18815 8.80002 9.34387 8.5167 9.20625 8.29994C9.04764 8.05014 9.27756 7.7354 9.56377 7.81052L10.2541 7.99174C10.2751 7.99724 10.2966 8.00002 10.3183 8.00002C10.5581 8.00002 10.663 7.6972 10.4746 7.54882L10.1727 7.31103C9.91537 7.10841 10.0116 6.69758 10.3321 6.63028L10.6308 6.56756C10.9333 6.50401 11.014 6.10986 10.7607 5.93255C10.544 5.78083 10.5648 5.45346 10.7991 5.33049L11.1864 5.12715C11.4987 4.96316 11.5674 4.54588 11.3241 4.29042C11.1605 4.11856 10.9026 4.07611 10.6925 4.18643L9.65718 4.72998C9.56955 4.77599 9.47205 4.80002 9.37307 4.80002H9.26048C8.9851 4.80002 8.76186 4.57679 8.76186 4.30141C8.76186 4.1161 8.86459 3.94609 9.02867 3.85995C9.16954 3.78599 9.32407 3.70486 9.47512 3.62556C9.84495 3.4314 9.87786 2.91456 9.53567 2.67503C9.30978 2.51691 9.00225 2.54762 8.81209 2.74728L8.48271 3.09313C8.21999 3.36899 7.77992 3.36899 7.51719 3.09313L7.18782 2.74728Z" fill="#262626"/>
</g>
</g>
<defs>
<clipPath id="clip0_41807_2485">
<rect width="16" height="12" rx="2" fill="white"/>
</clipPath>
</defs>
</svg>
