<svg xmlns="http://www.w3.org/2000/svg" width="16" height="12" fill="none" viewBox="0 0 16 12"><g clip-path="url(#a)"><mask id="b" width="16" height="12" x="0" y="0" maskUnits="userSpaceOnUse" style="mask-type:luminance"><rect width="16" height="12" fill="#fff" rx="2"/></mask><g mask="url(#b)"><path fill="#042c90" d="M0 0h16v12H0z"/><g clip-path="url(#c)"><g clip-path="url(#d)"><path fill="#0072c4" fill-rule="evenodd" d="M10.201 6.7986V4.799c0-.4416.358-.7991.7996-.7991h2.1977a.799.799 0 0 1 .7996.799v1.9995c0 1.999-1.8984 2.7986-1.8984 2.7986s-1.8985-.7996-1.8985-2.7985" clip-rule="evenodd"/><path fill="#005121" fill-rule="evenodd" d="M11.071 6.3146c-.4097.4138.3933.3613.3933.3613l.5718-.183s.2572.031.4307.0834c.115.0346.4349.1775.4349.1775s.6757-.135.4381-.4392c-.2376-.3043-1.8591-.4138-2.2688 0" clip-rule="evenodd"/><path fill="#a3a3a3" fill-rule="evenodd" d="M12.7913 5.9115c.0164-.0038.0548-.003.0691.0145.0225.0273.0685.0182.091.0445s.0484.0506.0484.0881-.0044.1304-.0036.1508c.0012.0314.0066.0363.0389.0355.039-.001.0929-.004.0946-.0739.0011-.0487-.0473-.079-.0614-.2521.0212-.0182.0401-.0344.033-.0587s.0402-.0364.0355-.073c-.0048-.0363.0472-.0586.0259-.099-.0212-.0406.026-.0426.0071-.075s.0307-.0608.0094-.089c-.0212-.0284.0284-.0547.0024-.0891s.0142-.0547-.0118-.081c.0166-.0263.0023-.1013-.0496-.1437-.0519-.0426-.1251-.0648-.1677-.081-.0791-.0302-.2267-.0163-.3307-.0041s-.2976.0243-.3567.0162c-.0589-.008-.1983-.0162-.3081.002-.0376.0062-.0804-.005-.1028-.0263-.0179-.017-.0283-.0151-.0448-.0141s-.026-.0042-.0343-.0244c-.0146-.0357-.0472-.0111-.0626-.0557-.0103-.0297-.0638-.004-.0803-.0293s-.0366-.0283-.0815-.0253c-.0023-.0152-.0271-.0263-.0496-.0223.0036-.0253-.0212-.0455-.0625-.0445.0047-.0314-.0532-.0557-.0828-.0364-.0188-.0233-.0566-.0183-.0661 0-.02-.0233-.0838-.0162-.0992.009-.0271-.0151-.0799.0221-.0755.081.0011.0163.0022.0331-.0249.0385-.0507.0101-.0802.0668-.124.0749-.0436.0081-.0873.0223-.0956.0466s.0071.0496-.0094.0617c-.0165.0122.0105.0233.0188.0293.0083.0061.0212.0163.0236.0304.0034.0201.0366.0261.0709.004.0142-.009.039.0183.0791-.001.0402-.0191.0972-.009.0874.0224-.0047.0151.0059.0314.019.0465.0129.0152.0324.061.0212.087-.0165.0385.0165.0598.0082.0942s.0048.0659-.0129.1124-.0181.1048.0082.1214c.0366.0233.0145.0695.0461.0891.0259.0162.0106.0557.059.0678.0485.0122.0201.0446.0708.0516.0509.0071.0685.0436.1217.0354.0392-.0059.0598.0036.0826.0126.0047.0325-.0058.1515-.0082.1819-.0021.0268-.0165.0697-.0165.0961 0 .0162.033.0202.0709.0202.0377 0 .0543-.0151.0448-.0576-.0094-.0426-.0118-.1462-.0094-.211.0328.0157.064.0378.0626.0622-.0024.0394-.0018.1102-.0084.1467-.0046.0264.0024.0679.0048.0952.0024.01.0661.009.0922 0 .0259-.0091.0259-.0334.0235-.1438-.0011-.0546-.0591-.1104.0142-.1376.0355-.0132.085-.0436.104-.0719.0188-.0284.0602-.0172.0897-.003s.0768.0358.1063.0263c.0378-.0121.078.0182.111 0s.0756.0131.1027-.009c.0272-.0224.0745-.0012.0945-.0224s.1027.0122.1323-.0162c.0295-.0283.0697.0081.0969-.0131a.034.034 0 0 1 .0248-.0062c-.0011.048-.0101.1241-.0119.1479-.0021.027-.0165.0697-.0165.0961 0 .0162.0331.0202.0708.0202.0379 0 .0544-.0151.045-.0576-.0095-.0425.0041-.147.0064-.212" clip-rule="evenodd"/><path fill="#a3a3a3" fill-rule="evenodd" d="M10.8804 5.1733c.0158-.0115.0012-.0354.0091-.0584s.0497-.0363.0916-.044c.0418-.0076.0701-.0611.1187-.0707.026-.0051.0249-.021.0238-.0364-.0041-.0556.0463-.0908.0724-.0764.0146-.024.0758-.0307.0949-.0087.0091-.0172.0453-.022.0634 0 .0282-.0181.0837.0048.0791.0344.0397-.0009.0634.0182.06.0422.0215-.0039.0452.0066.0475.021-.0036.0235.0502.0295.0253.0447-.0218.0134-.0425.0081-.0673-.01-.0248-.0184-.1075-.0021-.1193.007s-.0248.0132-.0343.006c-.0094-.007-.0318-.0182-.0425-.0171-.0106.001-.033.001-.0461-.0203-.0129-.0212-.046-.0243-.0518-.0162-.0059.008.0129.0375.0318.0486.0189.0112.0095.0324.0319.0445.0147.008.0012.0354-.0071.0517-.0082.0162-.0401.011-.0425-.001-.0023-.0121-.0107-.0203-.0295-.002-.0189.0182-.059.013-.0685.008-.0094-.005-.0355-.0141-.0531-.009-.0178.005.0082.0131.0106.0202s-.0284.0101-.0461.0101-.0236.01-.013.0121.0519.0041.0685-.004.0673 0 .0721.0152-.0295.0213-.0497.0192c-.0296-.003-.0732.0132-.0944.0182s-.0779-.008-.1004-.002c-.0224.006-.0445-.0178-.0351-.0269" clip-rule="evenodd"/><path fill="#fff" fill-rule="evenodd" d="M11.2602 5.2974c-.0212.008-.0141.0323.0048.0425.0189.01.0614.0141.0886.0091.0271-.0051.033.003.0153.0132-.0177.01.0271.012.0236.0283-.0035.0161.0165.0131.0354.0121s.0437-.0132.065-.0243.0366-.003.0165.0162-.0873.0436-.1405.0406-.0815.009-.0697.0262.0685.0203.098.0111c.0296-.009.0249.0072.0024.0182-.0225.0112-.0544.0122-.0815.0112s-.0508.0223-.0154.0354.0828.0051.1004.0163c.0178.011.0721-.0061.0732.0131s-.0153.0263-.0472.0243-.0225.0124.0012.0202c.0213.0072.0591.0072.0791.0051s.0142.0182-.0059.0253-.085.0172-.1169.0162-.0166.0193.0248.0193c.1263 0 .1689-.0598.2008-.1013.0156-.0203.046-.0314.0531-.0192s.0083.0152-.0059.0253-.0107.0162.0153.0172.0638-.006.0863-.0121c.0224-.0061.0885.0322.0342.0334-.0957.002-.2138.0364-.2527.0506-.039.0142-.104.0408-.1441.0394-.0295-.001-.0414.0102-.0295.0233.0118.0132.0496.0132.0708.0071s.026 0 .0119.0121c-.0142.0122-.0496.0172-.0745.0213-.0247.004-.037.02-.0177.0263.0366.0122.0036.0233.0296.0294.0259.0061-.0024.0253.0259.0314.0284.006.0449.003.0661-.0111.0214-.0142.0331-.0223.0556-.0203s.0378-.0081.0508-.0233c.013-.0151.0567-.0425.0708-.0293s.0437-.0112.0497.002c.0058.0131.0306.005.0366.0233.0065.0202.0342.0243.0531.0172a.052.052 0 0 0 .0342-.0497c0-.0252.0071-.0354.0142-.008.007.0273.0331.0354.046.0223s.0177-.0587.0083-.08-.0107-.0486-.0012-.0537c.0095-.005.0319.0415.0414.0618s.0342.0141.0354-.0061.0236-.0304.0402-.0152.0071.0658.0118.0901.0507-.006.0555.002c.0047.0082.0224.0101.0295-.007.0071-.0173.0236-.0324.033-.0223a.13.13 0 0 1 .0295.0465c.006.0193.0272.0294.0402.0092a.144.144 0 0 0 .0178-.0872c-.0048-.0272.0035-.0444.0152-.0303.0119.0142.0107.0526.0119.084s.0401.0284.0401-.0182c0-.0212.0118-.0253.0154-.0132.0035.0122.0035.0325.0071.0416.0087.0224.039.01.0425-.005.0035-.0153-.0023-.07-.0095-.0942-.0071-.0244.0072-.0415.019-.0284s.0141.0476.0165.086c.0023.0385.0271.0406.0402.0294.0129-.0111.0129-.0435.0071-.0668-.006-.0232.0129-.0232.0212-.009.0083.014.0225.005.0201-.0062-.0023-.011.0094-.0212.0212-.006s.0083.0496.0024.0769c-.0059.0274.0295.0243.046.001s.0083-.087-.0058-.1073c-.0143-.0202-.013-.0466-.0048-.0698.0083-.0233.0237-.0244.0248-.0142a.08.08 0 0 0 .0213.0405c.0129.0131.0201.0152.0224-.0051s.0142-.0152.0189 0c.0048.0152.013.0273.0248.0142s.0272-.003.0177.0172a.073.073 0 0 0-.0024.0587c.0071.0203.0319.0172.0343-.006.0049-.0485.0119-.0163.0177.005.0059.0213.0236.0202.0272.0081.0036-.0122.0071-.0152.0071-.002s.0059.0242.0212.0242.0119-.0262.0189-.0424c.0071-.0163.0201.006.0378.0434s.0307.002.0721.0871c.0169.0347.0413.005.0401-.007-.0012-.0122.0023-.0203.0224-.0203s.0366-.004.0296-.0172c-.0071-.0132-.0024-.0375-.0035-.0648s.0023-.0425.0058-.0273a.08.08 0 0 0 .0342.0475c.0189.0112.0319-.0192.0165-.0384-.0152-.0193-.0365-.0648-.0353-.1033.0009-.0283.0141-.0192.0141.001s.0118.0568.0296.0648c.0177.0081.0248-.0294.0165-.0485-.0082-.0193-.013-.0456.0047-.0507.0177-.005-.0047-.0263-.0201-.0415-.0153-.0152-.0247-.0303.0024-.0293s.0048-.0162-.0083-.0274c-.013-.011-.0354-.0334 0-.0303s.0237-.0152.0095-.0253-.0225-.0294.0023-.0283c.0249.001.0402-.0112.0379-.0203-.0091-.0351-.0685-.076-.1051-.1073s-.0957-.0627-.1276-.0678-.0331.0152-.0248.0273.0248.0202.0272.008c.0023-.012.0271.0011.0389.0173s.052.0365.0768.0547-.0331.009-.0614-.0152c-.0162-.014-.0143.003.0071.0222.0212.0193-.006.0274-.0284.0111a4 4 0 0 1-.1169-.091c-.0366-.0293-.0425-.0223-.0437-.003-.0012.0192.0118.0324.0355.0485s.0531.0415.0756.0587c.0223.0172.0035.0283-.0107.0162s-.0626-.0455-.0909-.0688c-.0284-.0233-.0544-.0344-.072-.0314-.0178.003-.0166.0203.0047.0385s.0472.0526.0472.0729c0 .0202-.0189.0344-.0284-.002-.0094-.0365-.0543-.079-.0873-.1114s-.0662-.0385-.091-.0364-.0236.0262-.0236.0455-.0166.008-.0177-.006c-.0012-.0142-.0201-.0263-.0308-.0254-.0105.001-.007.0304-.0105.0436-.0036.013-.0201.0253-.0201-.0051s-.039-.0456-.0555-.0466-.0319.005-.0237.0183c.0083.013.0047.0485-.0011.0688-.006.0202-.0237-.0152-.0272-.0527-.0036-.0374-.059-.0637-.098-.0526s-.0094.0354-.0165.0587-.0178.002-.0213-.0222-.0224-.0396-.0484-.0335-.0437.0182-.0425.0344a.18.18 0 0 1-.0047.0567c-.006.0264-.0166.0132-.0154-.004a.18.18 0 0 0-.0107-.0618c-.0058-.0161-.0153-.001-.0129.0193.0024.0202-.0036.0668-.013.0952-.0094.0283-.0236.0293-.0165-.0092.0071-.0384-.0107-.0952-.0284-.1214-.0127-.0188-.0413-.0253-.0413.001s.0083.0455.0295.0648.0047.0668-.0165.0921-.0201-.0112-.013-.0385c.007-.0274-.0319-.0364-.0473-.0415-.0153-.005.0166-.0324.0237-.0689.0034-.018-.0013-.0293-.0154-.0303s-.052.0334-.0685.0587c.0047-.0263 0-.0496-.0142-.0496-.0141 0-.0295.0253-.0401.0435-.0106.0183-.0213.0081-.0106-.011.0106-.0193.0271-.071.0058-.082-.0212-.0112-.0401.0343-.0625.0262-.0127-.0046.0047-.0334.0118-.0465s-.0071-.0234-.039.001c-.0319.0243-.046.0638-.0544.088-.0082.0244-.0648.0638-.0956.085-.0307.0213-.0437.0132-.0283.004.0154-.009.046-.0373.0614-.0484.0153-.0112.0082-.0178-.0213.0014-.0295.0193-.0832.0542-.1382.0663-.0322.0072-.0366.0011-.0047-.008s.1051-.0527.1229-.073c.0111-.0126-.0178-.002-.0319.001-.0142.0031-.026-.001.0024-.011.0282-.0102.118-.0901.137-.1195.0188-.0293.0023-.0405-.0095-.0395-.0119.001-.0284.0081-.0248-.004.0035-.0122-.0047-.0284-.0201-.0233-.0154.005-.0141.0344-.0201.0506-.0058.0162-.039.0375-.0602.0375-.0213 0-.0507.004-.0732.0192s-.0331.001-.0225-.0111c.0107-.0122.0343-.0152.0579-.0162s.0496-.004.0697-.0234c.0201-.0191.0212-.0344.0059-.0354s-.0414-.0182-.0496-.0252c-.042-.036-.1188.0141-.1488.0434a1.2 1.2 0 0 1-.0909.075c-.0178.012-.0107.0293.0188.006.0296-.0232.039-.007.0119.0102-.0273.0172-.0473.0425-.0378.0516.0094.009.046-.002.0661-.0132.02-.011.0295.0162-.0201.0253-.0333.0062-.045.018-.0189.0193.0201.001.0508-.007.0792-.0212.0283-.0143.0507-.0061.0271.008s-.0756.0335-.1015.0335c-.0218 0 .0035.0273-.0178.0354" clip-rule="evenodd"/><path fill="#a3a3a3" fill-rule="evenodd" d="M11.397 5.071c.029-.03.054-.043.08-.021.024.019.026.028-.004.021-.03-.006-.05 0-.068.019s-.038.012-.008-.019m-.467.075c.021-.021.056-.021.071-.045s.032-.015.013.008-.055.027-.071.043-.024.005-.013-.005m.132-.082c.013-.002.038-.017.053-.035s.049-.025.069-.003.031.029.042.033.011.018-.006.022-.039.008-.051.002a.076.076 0 0 0-.044-.006c-.014.003-.02-.003-.008-.009.012-.005.026-.021.033-.028.007-.006.026-.001.015.005s-.006.02.005.026.032.005.042-.004a.3.3 0 0 0-.047-.037c-.01-.005-.018-.008-.03.005s-.04.044-.068.043-.02-.012-.005-.014m.746.191c-.01.015-.02.033-.021.048s.012.025.014.006c.002-.018.004-.03.018-.043.015-.014.001-.027-.011-.011m-.144-.001a.14.14 0 0 0 .043-.027c.01-.01.016-.004.007.008a.12.12 0 0 1-.043.029c-.01.003-.019-.004-.006-.009m.018.059c-.017.021-.084.069-.104.078s-.013.023.01.015c-.017.013-.053.035-.077.041s-.029.024.007.013.085-.041.099-.054-.003-.019.017-.034.058-.04.063-.051c.008-.016-.001-.023-.013-.009m-.076.166c.026-.012.073-.056.087-.081.008-.015.025-.013.012.01s-.062.065-.078.076-.047.008-.02-.005m.536-.24c-.007.014-.008.048-.006.064s.017.028.014.004-.002-.049.006-.056-.002-.036-.014-.012m.144.06c.012.011.018.063.017.082s.019.019.018-.008-.003-.062-.014-.08-.037-.009-.02.006m.125.033c.007.013.017.038.017.056s.015.01.016-.011a.095.095 0 0 0-.01-.053c-.008-.014-.033-.011-.022.008m.077-.016c-.006-.016-.016-.031-.024-.029-.007.002-.002.017.007.033s.023.014.016-.004m-.492.113c-.004.043-.026.08-.053.094s-.023.035.011.013a.153.153 0 0 0 .065-.091c.007-.033-.02-.045-.023-.016m-.059-.019c-.014.014-.022.044-.022.067s.009.006.012-.007.007-.031.019-.037.006-.037-.008-.023m1.022.029c.012.021.031.054.037.073s-.008.024-.013.007-.027-.056-.035-.069-.002-.034.012-.011" clip-rule="evenodd"/><path d="M9.2004 7.1983s1.3601.4041 1.5896.4041c.0646 0 .9455-.202 1.2096-.202.0988 0 1.0107.1384 1.2488.202s1.5504-.404 1.5504-.404"/><path stroke="#fff" stroke-linecap="round" stroke-linejoin="round" d="M9.2004 8.7975s1.3601.404 1.5896.404c.0646 0 .5897-.3269 1.2096-.3269s1.0107.2633 1.2488.327c.238.0636 1.5504-.404 1.5504-.404l4.3042.6883"/></g><path d="M9.2004 6.3988s1.3601.404 1.5896.404c.0646 0 .9455-.202 1.2096-.202.0988 0 1.0107.1384 1.2488.202s1.5504-.404 1.5504-.404"/><mask id="e" fill="#fff"><path fill-rule="evenodd" d="M10.1 6.7985V4.7991c0-.4416.358-.7991.7996-.7991h2.3987a.799.799 0 0 1 .7996.799v1.9995c0 1.999-1.999 2.7986-1.999 2.7986S10.1 8.7975 10.1 6.7985" clip-rule="evenodd"/></mask><path stroke="#fff" d="M10.1 6.7985V4.7991c0-.4416.358-.7991.7996-.7991h2.3987a.799.799 0 0 1 .7996.799v1.9995c0 1.999-1.999 2.7986-1.999 2.7986S10.1 8.7975 10.1 6.7985Z" clip-rule="evenodd" mask="url(#e)"/></g><path fill="#042c90" d="M0 0h6.8571v5.6H0z"/><mask id="f" width="7" height="6" x="0" y="0" maskUnits="userSpaceOnUse" style="mask-type:alpha"><path fill="#042c90" d="M0 0h6.8571v5.6H0z"/></mask><g mask="url(#f)"><mask id="g" width="10" height="8" x="-2" y="-1" fill="#000" maskUnits="userSpaceOnUse"><path fill="#fff" d="M-2.1469-1.0813h10v8h-10z"/><path fill-rule="evenodd" d="M2.6422 2.4289-.1468-.0813h.3984l2.789 2.0918h.7969L7.0249-.0813v.2517a.333.333 0 0 1-.1333.2667L4.236 2.4289v.8367l2.5265 2.2738c.0923.0831.0335.2363-.0907.2363a.136.136 0 0 1-.0813-.0271l-2.753-2.0647h-.7968L-.1469 5.7757v-.4183l2.789-2.0918z" clip-rule="evenodd"/></mask><path fill="#ff2e3b" fill-rule="evenodd" d="M2.6422 2.4289-.1468-.0813h.3984l2.789 2.0918h.7969L7.0249-.0813v.2517a.333.333 0 0 1-.1333.2667L4.236 2.4289v.8367l2.5265 2.2738c.0923.0831.0335.2363-.0907.2363a.136.136 0 0 1-.0813-.0271l-2.753-2.0647h-.7968L-.1469 5.7757v-.4183l2.789-2.0918z" clip-rule="evenodd"/><path stroke="#fff" d="M2.6422 2.4289-.1468-.0813h.3984l2.789 2.0918h.7969L7.0249-.0813v.2517a.333.333 0 0 1-.1333.2667L4.236 2.4289v.8367l2.5265 2.2738c.0923.0831.0335.2363-.0907.2363a.136.136 0 0 1-.0813-.0271l-2.753-2.0647h-.7968L-.1469 5.7757v-.4183l2.789-2.0918z" clip-rule="evenodd" mask="url(#g)"/><path fill="#fff" fill-rule="evenodd" d="M-1.046 2.0455v1.6051h3.721V5.8a.3.3 0 0 0 .3.3h.9287a.3.3 0 0 0 .3-.3V3.6506h2.8538a.3.3 0 0 0 .3-.3V2.3455a.3.3 0 0 0-.3-.3H4.2038V-1.007H2.6751v3.0524z" clip-rule="evenodd"/><path fill="url(#h)" fill-rule="evenodd" d="M-.1469 2.4289h3.1875V-.0813h.7969V2.429h3.1874v.8367H3.8376v2.5101h-.7969V3.2656H-.1469z" clip-rule="evenodd"/></g></g></g><defs><clipPath id="a"><path fill="#fff" d="M0 0h16v12H0z"/></clipPath><clipPath id="c"><path fill="#fff" d="M10 4h4.1978v5.9969H10z"/></clipPath><clipPath id="d"><path fill="#fff" d="M10 4h4.1978v5.9969H10z"/></clipPath><linearGradient id="h" x1="0" x2="0" y1="0" y2="6" gradientUnits="userSpaceOnUse"><stop stop-color="#ff2e3b"/><stop offset="1" stop-color="#fc0d1b"/></linearGradient></defs></svg>