<svg xmlns="http://www.w3.org/2000/svg" width="16" height="12" fill="none" viewBox="0 0 16 12"><g clip-path="url(#a)"><rect width="16" height="12" fill="#fff" stroke="#f5f5f5" rx="2"/><circle cx="8" cy="6" r="3" fill="#e01b41"/><mask id="b" width="6" height="6" x="5" y="3" maskUnits="userSpaceOnUse" style="mask-type:luminance"><circle cx="8" cy="6" r="3" fill="#fff"/></mask><g mask="url(#b)"><path fill="#0e4b9c" fill-rule="evenodd" d="M5.3334 6.322c.7619.7322 1.9047 1.1715 2.6666 0 .762-1.1715 2.2858-1.1715 2.6667 0s0 2.343 0 2.343H5.3334s-.762-3.0752 0-2.343" clip-rule="evenodd"/></g><mask id="c" width="16" height="12" x="0" y="0" maskUnits="userSpaceOnUse" style="mask-type:luminance"><rect width="16" height="12" fill="#fff" stroke="#fff" rx="2"/></mask><g mask="url(#c)"><path fill="#262626" d="M2.8543 7.7335a.3175.3175 0 0 1 .4462.1192l.8213 1.4941c.0886.1612.0331.3693-.124.4649l-.0898.0546a.3174.3174 0 0 1-.4463-.1191L2.6404 8.253c-.0886-.1612-.033-.3693.124-.4649zm9.8457.1192a.3166.3166 0 0 1 .4453-.1192l.0898.0547c.1573.0955.2127.3036.124.4649l-.8213 1.494a.3165.3165 0 0 1-.4453.1192l-.0898-.0547c-.1574-.0954-.2137-.3035-.125-.4648zm-8.8555-.7188a.3163.3163 0 0 1 .4453.1192l.8223 1.494c.0885.1614.0323.3695-.125.465l-.0899.0546a.317.317 0 0 1-.4453-.1191l-.8213-1.4951c-.0886-.1613-.0333-.3695.124-.4649zm7.8652.1192a.3175.3175 0 0 1 .4463-.1192l.0889.0537c.1573.0954.2134.3036.125.4649l-.8213 1.495a.3176.3176 0 0 1-.4463.1192l-.0898-.0547c-.1573-.0954-.2127-.3036-.1241-.4648zM4.4519 2.8526a.3167.3167 0 0 1 .4453-.1192l.0899.0547c.1574.0954.2136.3035.125.4649l-.8223 1.494a.3165.3165 0 0 1-.4453.1192l-.0899-.0546c-.1573-.0955-.2127-.3036-.124-.4649zm6.6504-.1192a.3174.3174 0 0 1 .4463.1192l.8213 1.4941c.0887.1613.0324.3694-.125.4649l-.0889.0546a.3174.3174 0 0 1-.4463-.1191l-.8213-1.4942c-.0886-.1612-.0331-.3693.1241-.4648zM3.4617 2.253a.3174.3174 0 0 1 .4463-.1192l.0898.0537c.1573.0954.2125.3036.124.4649l-.8213 1.495a.3176.3176 0 0 1-.4462.1192l-.0899-.0547c-.1572-.0955-.2126-.3036-.124-.4648zm8.6308-.1192a.3164.3164 0 0 1 .4453.1191l.8213 1.4942c.0887.1613.0334.3694-.124.4648l-.0898.0547a.317.317 0 0 1-.4453-.1191l-.8223-1.4951c-.0884-.1613-.0323-.3695.125-.4649z"/></g></g><defs><clipPath id="a"><path fill="#fff" d="M0 0h16v12H0z"/></clipPath></defs></svg>