<svg xmlns="http://www.w3.org/2000/svg" width="16" height="12" fill="none" viewBox="0 0 16 12"><g clip-path="url(#a)"><rect width="16" height="12" fill="#fff" rx="2"/><mask id="b" width="16" height="12" x="0" y="0" maskUnits="userSpaceOnUse" style="mask-type:luminance"><rect width="16" height="12" fill="#fff" rx="2"/></mask><g mask="url(#b)"><path fill="#079d7b" fill-rule="evenodd" d="M0 12h16V0H0z" clip-rule="evenodd"/></g><g clip-path="url(#c)"><path fill="#fff" d="M10.032 8.835c-.5548.4781-1.262.7645-2.0313.7647-.7694 0-1.4772-.2865-2.0322-.7647zM8.0007 3.4884c.5945.0007 1.0771.855 1.0772 1.9091a3.3 3.3 0 0 1-.0381.4883c.0595-.0184.12-.039.1816-.0556 1.0158-.2727 1.9227-.1828 2.0254.2011.1025.384-.6384.9165-1.6543 1.1895a5 5 0 0 1-.3808.0869h1.8359a3.53 3.53 0 0 1-.3603.7646h-5.374a3.52 3.52 0 0 1-.3604-.7646h1.8164a5 5 0 0 1-.3408-.0781c-1.0159-.273-1.756-.8055-1.6533-1.1895.103-.3838 1.0095-.474 2.0253-.2012.054.0146.1069.033.1592.0489a3.3 3.3 0 0 1-.0361-.4903c0-1.0545.4823-1.9091 1.0771-1.9091m-.001 3.0556c-1.0517 0-1.904.1707-1.9042.3819 0 .2111.8524.3827 1.9043.3828S9.905 7.137 9.905 6.9259c-.0002-.2112-.8534-.3819-1.9052-.3819"/><path fill="#fcd117" d="M4.9523 3.8705a.381.381 0 0 1 .3808.3819c0 .2111-.1704.3828-.3808.3828s-.3809-.1717-.3809-.3828a.3813.3813 0 0 1 .3809-.3819m6.0957 0a.3814.3814 0 0 1 .3808.3819c0 .211-.1706.3826-.3808.3828-.2104 0-.3809-.1717-.3809-.3828a.381.381 0 0 1 .3809-.3819M6.0949 2.724a.383.383 0 0 1 .3818.3829.382.382 0 0 1-.3818.3818.3816.3816 0 0 1-.381-.3818c0-.211.1707-.3826.381-.3829m3.8095 0c.2104 0 .3809.1717.3809.3829a.3813.3813 0 0 1-.3809.3818.3816.3816 0 0 1-.3808-.3818c0-.2111.1706-.3827.3808-.3829m-1.9043-.7636c.2104 0 .3809.1717.3809.3828A.3816.3816 0 0 1 8 2.725a.3815.3815 0 0 1-.3808-.3818c0-.2112.1704-.3828.3808-.3828"/></g></g><defs><clipPath id="a"><path fill="#fff" d="M0 0h16v12H0z"/></clipPath><clipPath id="c"><path fill="#fff" d="M4.5714 1.6h6.8571V10h-6.857z"/></clipPath></defs></svg>