<svg xmlns="http://www.w3.org/2000/svg" width="16" height="12" fill="none" viewBox="0 0 16 12"><g clip-path="url(#a)"><rect width="16" height="12" fill="#fff" rx="2"/><mask id="b" width="16" height="12" x="0" y="0" maskUnits="userSpaceOnUse" style="mask-type:luminance"><rect width="16" height="12" fill="#fff" rx="2"/></mask><g mask="url(#b)"><path fill="#e81b26" d="M0 0h16v12H0z"/><circle cx="8" cy="6" r="2" fill="#ffe94f"/><path fill="#ffe94f" d="M5.8156 7.5601a2.72 2.72 0 0 0 .3935.4473l-5.1074 5.8779-1.5293-1.7383zm10.5732 4.5869-1.5293 1.7383-5.1094-5.877a2.72 2.72 0 0 0 .3946-.4472zm-7.2656.2461H6.838l.6758-3.7373c.1517.0275.3074.045.4668.045.159 0 .3144-.0176.4658-.045zM5.3429 5.5845a2.8 2.8 0 0 0-.0293.3867c0 .1308.012.259.0293.3848l-5.3623.7852V4.8013zm10.6377 1.5567-5.3633-.7852c.0174-.1259.0303-.254.0303-.3848 0-.1313-.0128-.2603-.0303-.3867l5.3633-.7832zm-9.7715-3.208a2.72 2.72 0 0 0-.3936.4472L-.4276-.2046l1.5293-1.7392zM16.3888-.2045l-6.2441 4.585a2.72 2.72 0 0 0-.3946-.4473l5.1094-5.877zm-7.9043 3.495a2.6 2.6 0 0 0-.504-.0488c-.1729 0-.342.0167-.5058.0489L6.838-.232h2.2852z"/></g></g><defs><clipPath id="a"><path fill="#fff" d="M0 0h16v12H0z"/></clipPath></defs></svg>