<svg xmlns="http://www.w3.org/2000/svg" width="16" height="12" fill="none" viewBox="0 0 16 12"><g clip-path="url(#a)"><mask id="b" width="16" height="12" x="0" y="0" maskUnits="userSpaceOnUse" style="mask-type:luminance"><rect width="16" height="12" fill="#fff" rx="2"/></mask><g mask="url(#b)"><path fill="#e42235" d="M0 0h16v12H0z"/></g><g clip-path="url(#c)"><path fill="#079b77" d="M1.5238 1.6h12.9524v8.8H1.5238z"/><mask id="d" width="14" height="10" x="1" y="1" maskUnits="userSpaceOnUse" style="mask-type:luminance"><path fill="#fff" d="M1.5238 1.6h12.9524v8.8H1.5238z"/></mask><g mask="url(#d)"><path fill="#ffd938" fill-rule="evenodd" d="M2.5103 6.079c.2157.3626.5254.6018.8139.6632.1588.0338-.132-.7309-.0052-.814.108-.071.6282.565.6738.4323.1048-.3052.043-.7375-.1902-1.1293-.3345-.562-.3476-.191-1.2518-.5937.0946.5758-.375.8795-.0405 1.4416" clip-rule="evenodd"/><path fill="#ffd93b" d="M14.476 10.3998H1.5238l6.4766-4.3994zM8.0004 6.0004 1.5238 1.6H14.476z"/><circle cx="8" cy="6" r="2" fill="url(#e)"/><path fill="#ffd938" fill-rule="evenodd" d="m8 6.617-.8957.6774.3368-1.1037-.8903-.6851 1.1038-.0048L8 4.4l.3454 1.1008 1.1038.0048-.8903.685.3368 1.1038z" clip-rule="evenodd"/></g></g></g><defs><clipPath id="a"><path fill="#fff" d="M0 0h16v12H0z"/></clipPath><clipPath id="c"><path fill="#fff" d="M1.5238 1.6h13.1429v9H1.5238z"/></clipPath><linearGradient id="e" x1="6" x2="6" y1="4" y2="8" gradientUnits="userSpaceOnUse"><stop stop-color="#e21c30"/><stop offset="1" stop-color="#ce1225"/></linearGradient></defs></svg>