<svg xmlns="http://www.w3.org/2000/svg" width="16" height="12" fill="none" viewBox="0 0 16 12"><g clip-path="url(#a)"><rect width="16" height="12" fill="#fff" rx="2"/><mask id="b" width="16" height="12" x="0" y="0" maskUnits="userSpaceOnUse" style="mask-type:luminance"><rect width="16" height="12" fill="#fff" rx="2"/></mask><g mask="url(#b)"><path fill="#128c4b" d="M0 0h16v12H0z"/><path fill="#fff" fill-rule="evenodd" d="M3.81 7.2h6.095v-.339c0-.391.416-.642.762-.46v.8h.991a.533.533 0 0 1 .533.533c0 .589-.477 1.067-1.067 1.067h-.552a.667.667 0 0 1-.667-.667V8H4.857a.667.667 0 0 1-.483-.207zm0-2.267c0-.086.033-.168.092-.23l.07-.074a.333.333 0 0 0 0-.46l-.07-.073a.333.333 0 0 1-.092-.23v-.333c0-.184.149-.333.333-.333h.281c.082 0 .148.066.148.147 0 .157.213.205.281.063l.053-.111a.175.175 0 0 1 .157-.099h.832a.2.2 0 1 1 0 .4h-.362a.2.2 0 1 0 0 .4h.229a.333.333 0 0 1 .333.333v.933a.333.333 0 0 1-.333.333h-.095a.333.333 0 0 1-.333-.333V4.99a.191.191 0 0 1 .19-.19.191.191 0 0 0 .19-.19V4.6a.2.2 0 0 0-.2-.2h-.228a.333.333 0 0 0-.333.333v.676a.191.191 0 1 1-.381 0V4.99a.191.191 0 0 0-.381 0v.419a.191.191 0 1 1-.381 0zm6.095 0c0-.086.033-.168.092-.23l.07-.074a.333.333 0 0 0 0-.46l-.07-.073a.333.333 0 0 1-.092-.23v-.333c0-.184.149-.333.333-.333h.281c.081 0 .147.066.147.147 0 .157.213.205.281.063L11 3.299a.175.175 0 0 1 .158-.1h.832a.2.2 0 1 1 0 .4h-.362a.2.2 0 1 0 0 .4h.229a.333.333 0 0 1 .333.333v.933a.333.333 0 0 1-.333.333h-.095a.333.333 0 0 1-.333-.333v-.276a.191.191 0 0 1 .191-.19.19.19 0 0 0 .19-.19V4.6a.2.2 0 0 0-.2-.2h-.228a.333.333 0 0 0-.333.333v.676a.19.19 0 1 1-.381 0V4.99a.191.191 0 0 0-.381 0v.419a.19.19 0 1 1-.381 0zm-.762-1.135c0 .112-.059.264-.137.346l-.106.111a.21.21 0 0 0 0 .289l.106.111c.076.08.138.23.138.346v.396c0 .112-.082.202-.192.202h-.377c-.106 0-.192-.086-.192-.202v-.395c0-.111-.035-.128-.088-.016l-.204.429c-.049.102-.178.186-.277.186h-.765c-.104 0-.189-.093-.189-.2 0-.11.082-.2.192-.2h.377c.106 0 .192-.093.192-.2 0-.11-.082-.2-.192-.2h-.377c-.106 0-.192-.086-.192-.196V3.396c0-.108.082-.196.192-.196h.377c.106 0 .192.086.192.202v.396c0 .112-.088.202-.19.202-.105 0-.19.093-.19.2 0 .111.082.2.192.2h.377c.104 0 .19-.094.19-.198v-.804c0-.109.088-.198.191-.198.105 0 .191.086.191.202v.396c0 .112.088.202.191.202.105 0 .19-.086.19-.202v-.396c0-.111.088-.202.191-.202.105 0 .191.086.191.202z" clip-rule="evenodd"/></g></g><defs><clipPath id="a"><path fill="#fff" d="M0 0h16v12H0z"/></clipPath></defs></svg>