<svg xmlns="http://www.w3.org/2000/svg" width="16" height="12" fill="none" viewBox="0 0 16 12"><g clip-path="url(#a)"><rect width="16" height="12" fill="#fff" rx="2"/><mask id="b" width="16" height="12" x="0" y="0" maskUnits="userSpaceOnUse" style="mask-type:luminance"><rect width="16" height="12" fill="#fff" rx="2"/></mask><g mask="url(#b)"><path fill="#19bfbf" d="M0 0h16v12H0z"/><path fill="#fff" fill-rule="evenodd" d="m8.381 8.713-.2882-.5633a.333.333 0 0 0-.2967-.1816h-.0412a.333.333 0 0 1-.233-.095L6.1955 6.5763a.333.333 0 0 1-.1003-.2383v-.4644a.333.333 0 0 0-.1003-.2384l-.5948-.5815a.333.333 0 0 1-.09-.1558L4.9979 3.676a.333.333 0 0 0-.2197-.2344l-.9686-.3157-.575-.281a.333.333 0 0 1-.1869-.2995v-.2036a.3333.3333 0 0 1 .3333-.3333h.2927a.333.333 0 0 1 .233.095l.1867.1825a.333.333 0 0 0 .233.095h.4902a.333.333 0 0 0 .233-.095l.1867-.1825a.333.333 0 0 1 .233-.095H6.78a.33.33 0 0 1 .1464.0339l.6234.3047a.33.33 0 0 0 .1463.0339h.6077a.33.33 0 0 0 .1464-.0339l.6234-.3047a.33.33 0 0 1 .1464-.0339h1.1133a.3334.3334 0 0 1 .3334.3333v.0783a.3334.3334 0 0 1-.3334.3334h-.0952a.3333.3333 0 0 0-.3333.3333v.576c0 .1273.0725.2435.1869.2994l.0952.0466c.2215.1083.4798-.053.4798-.2995v-.25A.3333.3333 0 0 1 11 3.126h.6233a.186.186 0 0 1 .1862.1863c0 .1028.0834.1862.1862.1862h.6233a.3334.3334 0 0 1 .3334.3333v.3564a.33.33 0 0 1-.0179.1075l-.3374.99a.33.33 0 0 1-.0825.1307l-1.0471 1.0238a.33.33 0 0 0-.0637.0865l-.3196.625a.33.33 0 0 0-.0366.1518v.4283a.2363.2363 0 0 1-.4468.1076l-.2222-.4347a.334.334 0 0 0-.2968-.1815h-.735a.333.333 0 0 0-.2968.1815l-.2105.4116a.333.333 0 0 0 0 .3036l.2105.4116a.333.333 0 0 0 .2968.1816h.422a.333.333 0 0 1 .2331.095l.5645.5518a.334.334 0 0 1 .1003.2384v.2713a.3334.3334 0 0 1-.3334.3333h-.2246a.333.333 0 0 1-.2968-.1815l-.1952-.3818a.333.333 0 0 0-.2968-.1816h-.354a.333.333 0 0 1-.2969-.1816z" clip-rule="evenodd"/></g></g><defs><clipPath id="a"><path fill="#fff" d="M0 0h16v12H0z"/></clipPath></defs></svg>