<svg xmlns="http://www.w3.org/2000/svg" width="16" height="12" fill="none" viewBox="0 0 16 12"><g clip-path="url(#a)"><rect width="16" height="12" fill="#fff" stroke="#f5f5f5" rx="2"/><mask id="b" width="16" height="12" x="0" y="0" maskUnits="userSpaceOnUse" style="mask-type:luminance"><rect width="16" height="12" fill="#fff" stroke="#fff" rx="2"/></mask><g mask="url(#b)"><path fill="#0c33b8" fill-rule="evenodd" d="M0 4h16V0H0z" clip-rule="evenodd"/><path fill="#1db158" fill-rule="evenodd" d="M0 12h16V8H0z" clip-rule="evenodd"/><path fill="#262626" fill-rule="evenodd" d="M7.619 5.9774c.1226-.3653.6393-.3653.762 0l.6085.9067c.089.1326.0683.3084-.0714.3857-.188.104-.4941.2211-.9181.2211s-.7301-.1172-.9181-.2211c-.1398-.0773-.1605-.253-.0715-.3857z" clip-rule="evenodd"/><path d="M7.9998 4.6641c.3116 0 .5625.2505.5625.5567s-.251.5566-.5625.5566-.5615-.2505-.5616-.5566c0-.3062.25-.5566.5616-.5567"/></g></g><defs><clipPath id="a"><path fill="#fff" d="M0 0h16v12H0z"/></clipPath></defs></svg>