<svg xmlns="http://www.w3.org/2000/svg" width="16" height="12" fill="none" viewBox="0 0 16 12"><g clip-path="url(#a)"><rect width="16" height="12" fill="#fff" rx="2"/><mask id="b" width="16" height="12" x="0" y="0" maskUnits="userSpaceOnUse" style="mask-type:luminance"><rect width="16" height="12" fill="#fff" rx="2"/></mask><g mask="url(#b)"><path fill="#e33b44" d="M0 0h16v12H0z"/><mask id="c" fill="#fff"><path fill-rule="evenodd" d="M8 7.3266 5.9848 8.752l.7435-2.342-1.989-1.461 2.4748-.0221L8 2.5985l.7859 2.3283 2.4748.022L9.2718 6.41l.7435 2.342z" clip-rule="evenodd"/></mask><path stroke="#0a6135" d="M8 7.3266 5.9848 8.752l.7435-2.342-1.989-1.461 2.4748-.0221L8 2.5985l.7859 2.3283 2.4748.022L9.2718 6.41l.7435 2.342z" clip-rule="evenodd" mask="url(#c)"/></g></g><defs><clipPath id="a"><path fill="#fff" d="M0 0h16v12H0z"/></clipPath></defs></svg>