<svg xmlns="http://www.w3.org/2000/svg" width="16" height="12" fill="none" viewBox="0 0 16 12"><g clip-path="url(#a)"><mask id="b" width="16" height="12" x="0" y="0" maskUnits="userSpaceOnUse" style="mask-type:luminance"><rect width="16" height="12" fill="#fff" rx="2"/></mask><g mask="url(#b)"><path fill="#0b36b2" d="M0 0h16v12H0z"/><path fill="#ffd045" fill-rule="evenodd" d="M12.9524 12V0h-8z" clip-rule="evenodd"/><path fill="#fff" fill-rule="evenodd" d="m9.905 11.2-.539.166.158-.566-.158-.566.539.166.539-.166-.158.566.158.566zM8.381 8.8l-.539.166L8 8.4l-.158-.566.539.166.539-.166-.158.566.158.566zM6.857 6.4l-.539.166L6.476 6l-.158-.566.539.166.539-.166L7.238 6l.158.566zM5.333 4l-.539.166.158-.566-.158-.566.539.166.539-.166-.158.566.158.566zM3.81 1.6l-.539.166.158-.566-.158-.566L3.81.8l.539-.166-.158.566.158.566z" clip-rule="evenodd"/></g></g><defs><clipPath id="a"><path fill="#fff" d="M0 0h16v12H0z"/></clipPath></defs></svg>