<svg xmlns="http://www.w3.org/2000/svg" width="16" height="12" fill="none" viewBox="0 0 16 12"><g clip-path="url(#a)"><rect width="16" height="12" fill="#fff" stroke="#f5f5f5" rx="2"/><mask id="b" width="16" height="12" x="0" y="0" maskUnits="userSpaceOnUse" style="mask-type:luminance"><rect width="16" height="12" fill="#fff" stroke="#fff" rx="2"/></mask><g fill-rule="evenodd" clip-rule="evenodd" mask="url(#b)"><path fill="#17508f" d="M0 8h16V4H0z"/><path fill="#e1444d" d="M0 4h16V0H0z"/></g><g clip-path="url(#c)"><path fill="#fff" fill-rule="evenodd" d="M3.4286 6c0-.3347.1469-1.0248.2582-1.5.0692-.2953.3345-.5.6379-.5h1.2566c.3029 0 .5678.204.6372.4987.1113.4725.2577 1.1591.2577 1.5013 0 .427-.2609 1.5168-.3509 1.8801a.55.55 0 0 1-.1063.2182c-.174.2137-.6203.7017-1.0666.7017-.4467 0-.8934-.4889-1.0671-.7023a.55.55 0 0 1-.1059-.2168C3.6894 7.52 3.4286 6.4375 3.4286 6" clip-rule="evenodd"/><mask id="d" width="4" height="5" x="3" y="4" maskUnits="userSpaceOnUse" style="mask-type:luminance"><path fill="#fff" fill-rule="evenodd" d="M3.4286 6c0-.3347.1469-1.0248.2582-1.5.0692-.2953.3345-.5.6379-.5h1.2566c.3029 0 .5678.204.6372.4987.1113.4725.2577 1.1591.2577 1.5013 0 .427-.2609 1.5168-.3509 1.8801a.55.55 0 0 1-.1063.2182c-.174.2137-.6203.7017-1.0666.7017-.4467 0-.8934-.4889-1.0671-.7023a.55.55 0 0 1-.1059-.2168C3.6894 7.52 3.4286 6.4375 3.4286 6" clip-rule="evenodd"/></mask><g stroke="#e1444d" stroke-linecap="square" mask="url(#d)"><path d="m6.476 4.4-3.048 4m.001-4 3.048 4"/></g></g></g><defs><clipPath id="a"><path fill="#fff" d="M0 0h16v12H0z"/></clipPath><clipPath id="c"><path fill="#fff" d="M3.0476 4h3.4286v4.8H3.0476z"/></clipPath></defs></svg>