<svg xmlns="http://www.w3.org/2000/svg" width="16" height="12" fill="none" viewBox="0 0 16 12"><g clip-path="url(#a)"><mask id="b" width="16" height="12" x="0" y="0" maskUnits="userSpaceOnUse" style="mask-type:luminance"><rect width="16" height="12" fill="#fff" rx="2"/></mask><g mask="url(#b)"><path fill="#e4233b" d="M0 0h16v12H0z"/><path fill="#34cd4e" fill-rule="evenodd" d="m0 0 6.857 6L0 12zm16 0L9.143 6 16 12z" clip-rule="evenodd"/><path fill="#fff" d="m17.5847.1763-7.04 4.9854c.079.2646.122.546.122.8379 0 .2914-.0433.5727-.122.8369l7.04 4.9873-.8515 1.3262-7.041-4.9873c-.4605.3977-1.0497.6377-1.6924.6377-.6431-.0001-1.2329-.2397-1.6934-.6377L-.7326 13.15l-.8526-1.3262 7.039-4.9873a2.93 2.93 0 0 1-.12-.837c0-.2917.0412-.5734.12-.8378L-1.5851.1763l.8525-1.3261 7.04 4.9853c.4604-.3973 1.05-.6357 1.6925-.6357.642 0 1.2311.2388 1.6914.6357l7.042-4.9853z"/><path fill="#df2239" d="m7.238 6.8004.1581.5654-.539-.166-.5391.166.1582-.5655-.1582-.5663.539.166.5391-.166zm2.286 0 .1573.5654-.5381-.166-.539.166.1581-.5655-.1582-.5663.539.166.5382-.166zm-1.1425-2 .1572.5654-.539-.166-.5381.166.1572-.5655-.1573-.5663.5381.166.5391-.166z"/></g></g><defs><clipPath id="a"><path fill="#fff" d="M0 0h16v12H0z"/></clipPath></defs></svg>