<svg xmlns="http://www.w3.org/2000/svg" width="16" height="12" fill="none" viewBox="0 0 16 12"><g clip-path="url(#a)"><rect width="16" height="12" fill="#d01129" rx="2"/><mask id="b" width="16" height="12" x="0" y="0" maskUnits="userSpaceOnUse" style="mask-type:luminance"><rect width="16" height="12" fill="#fff" rx="2"/></mask><g mask="url(#b)"><path fill="#fff101" fill-rule="evenodd" d="M7.935 6.5038c.4315 0 .7812-.3672.7812-.82 0-.453-.3497-.8201-.7811-.8201s-.781.3671-.781.82c0 .453.3496.8201.781.8201" clip-rule="evenodd"/><path fill="#fff" fill-rule="evenodd" d="M7.223 5.354c.2213-.074.5083.0122.6971.2024.2005-.0383.4014-.3026.4637-.5379-.0684-.7818-.5556-1.3742-.7037-1.7807-.0468-.1284-.264-.3304-.4899-.2364-.1857.0774-.2796.0172-.9033.3438-.3372.1766-.6211.358-.7707.3896s-.3075.0599-.4272-.0386c-.1646-.1354-.3493-.1728-.458-.2749-.1332-.125-.2187-.2194-.3088-.2576-.0901-.0383-.2426.0468-.1782.2493.1453.4575.4878.5316.635.9592.0693.2022.168.3541.3887.201.2206-.1533.5323-.3568 1.0639-.3782.357-.0145.7258-.1523.8953-.3784-.0017.1956.064.356.0467.6104a3.78 3.78 0 0 0 .0495.927" clip-rule="evenodd"/><path fill="#fff101" fill-rule="evenodd" d="M7.641 5.376c-.065-.385.053-.44-.089-.892-.085-.271-.14-.611-.141-.77l-.057.017c.001.158.056.498.141.77.137.436.031.502.083.855a.6.6 0 0 1 .063.02m-.336-.043a.87.87 0 0 0-.01-.144c.1-.025.272.072.267 0-.001-.023.001-.097.002-.136-.002.061-.241-.042-.282-.015-.044-.224.011-.454-.024-.595.08-.023.226.027.209-.038-.01-.034-.03-.117-.043-.169.013.055-.104.009-.143.041-.02-.121-.05-.352-.05-.457l-.104-.001c-.002.196.064.356.047.61a3.78 3.78 0 0 0 .05.927 1.2 1.2 0 0 1 .082-.021m-.264-1.79c-.156.236-.528.399-.872.435-.403.042-.673.183-.872.321-.017-.032-.048-.05-.075-.071-.291-.226-.171-.533-.061-.489-.042-.017-.066-.04-.088-.057-.038-.03-.15.085-.136.267.006.078.069.192.121.253-.094-.018-.139-.043-.194-.113a.234.234 0 0 1 .104-.034c-.011-.028-.026-.059-.03-.105-.046 0-.102.017-.15.051-.115-.121-.234-.217-.303-.36-.11-.228.002-.373.147-.22-.133-.125-.219-.219-.309-.258-.09-.038-.243.047-.178.249.145.458.488.532.635.959.069.202.172.36.389.201l.061-.044c.069-.042.178.028.166.181.056-.14.02-.183-.027-.267-.035.02-.032-.095-.054-.11.124-.081.274-.162.464-.22.007.068.025.141.085.131a2 2 0 0 1 .099-.02c-.06.011-.077-.069-.084-.137.09-.022.188-.038.296-.047a1.6 1.6 0 0 0 .373-.078c.018.066.055.176.117.154a1.4 1.4 0 0 0 .158-.063c-.086.043-.12-.08-.14-.145.157-.072.291-.17.371-.286z" clip-rule="evenodd"/><path fill="#fff101" fill-rule="evenodd" d="M7.7296 3.6624c.0758-.0618.141-.091.0755-.2218-.107-.214-.0405-.2148-.275-.3509-.2387-.1384-.2085-.1493-.5245-.0323-.0777.0287-.0604.0581-.0468.1764.0293.255.085.4604.1358.6702.1987-.0272.5042-.135.635-.2416" clip-rule="evenodd"/><path fill="#fff101" fill-rule="evenodd" d="M6.988 3.605c-.042-.125-.03-.108.121-.07.049-.165.118-.304.156-.438.043-.149.056-.176.119-.14.08.047.169.096.226.126.101.052.086.07.038.152s-.205.249-.302.423c.128.094.169.103.078.144-.102.046-.27.102-.341.115-.013-.082-.055-.193-.095-.312M5.489 4.782l-.01.129-.09-.086-.101.072.007-.128-.116-.037.099-.075-.044-.119.117.036.062-.111.047.118.121-.019-.059.113.089.087z" clip-rule="evenodd"/><path fill="#fff" fill-rule="evenodd" d="M8.0192 6.496c-.1718-.164-.2442-.4681-.1816-.735-.1319-.163-.4503-.2137-.6756-.1527-.6107.4533-.8557 1.1924-1.1169 1.5303-.0826.1069-.1406.4052.05.5636.1566.1302.154.2456.7352.6495.3142.2183.6058.3858.7067.506.101.1202.2031.2497.1818.4077-.0294.2174.032.4041.0022.5539-.0365.1836-.0716.3086-.0581.4097.0135.101.1599.1972.2948.0373.3046-.3608.1945-.7094.4737-1.057.132-.1641.208-.3299-.0286-.4539-.2368-.1239-.5605-.3057-.844-.7782-.1903-.3174-.4884-.584-.7597-.625.1622-.0962.2616-.2362.4802-.3477a3.4 3.4 0 0 0 .7399-.5084" clip-rule="evenodd"/><path fill="#fff101" fill-rule="evenodd" d="M7.8278 6.1051c-.2847.252-.39.1717-.6911.5263-.181.2133-.4343.433-.5642.5132l.0429.0432c.1299-.0804.3831-.3.5642-.5133.2913-.3429.3993-.279.6636-.5025a.7.7 0 0 1-.0155-.0669" clip-rule="evenodd"/><path fill="#fff101" fill-rule="evenodd" d="M7.961 6.432a.8.8 0 0 0-.114.081c-.071-.079-.077-.283-.134-.243-.018.013-.08.048-.114.066.052-.029.086.24.128.264-.163.152-.38.218-.478.32-.059-.061-.091-.219-.136-.17-.023.026-.082.086-.119.123.039-.039.06.09.105.11-.09.079-.265.222-.352.274l.051.096c.162-.096.262-.236.48-.348a3.4 3.4 0 0 0 .74-.508 1.3 1.3 0 0 1-.058-.064M6.618 7.566c.273.024.593.28.795.575.236.345.487.52.7.633-.018.032-.017.069-.021.104-.041.378-.354.423-.373.3.007.046 0 .08-.003.109-.005.05.145.093.288-.01.061-.044.124-.159.148-.236.032.094.034.148.004.233a.25.25 0 0 1-.08-.077c-.017.024-.035.053-.072.08a.28.28 0 0 0 .117.111c-.042.166-.062.322-.145.456-.133.215-.308.185-.255-.024-.037.184-.072.309-.058.41s.16.197.295.037c.305-.361.195-.709.474-1.057.132-.164.211-.336-.029-.454-.032-.015-.039-.02-.067-.033-.069-.042-.066-.176.066-.241-.143.019-.161.073-.206.158.034.022-.062.077-.064.104a1.83 1.83 0 0 1-.413-.312c.053-.04.104-.093.065-.142a2 2 0 0 1-.066-.08c.039.049-.018.104-.071.145a2.2 2.2 0 0 1-.187-.246 1.72 1.72 0 0 0-.251-.3c.045-.049.118-.138.069-.184a1.4 1.4 0 0 0-.131-.112c.079.057-.006.149-.049.2-.138-.107-.285-.18-.422-.194z" clip-rule="evenodd"/><path fill="#fff101" fill-rule="evenodd" d="M6.26 6.9326c-.089-.0381-.045-.0896-.1202.0354-.123.2043-.1468.1572-.1418.4385.0051.2862.058.2406.3126.4694.1957-.154.4292-.3868.5768-.538-.1218-.167-.4741-.3396-.6274-.4053" clip-rule="evenodd"/><path fill="#fff101" fill-rule="evenodd" d="M6.694 7.584c-.082.101-.074.082-.118-.075-.161.038-.285.081-.414.113-.145.036-.174.037-.175-.038a6 6 0 0 0-.009-.269c-.007-.117.015-.113.107-.11s.283.026.475.027c.014-.163.001-.205.08-.143.088.07.219.195.266.253-.061.053-.132.147-.21.242m1.718.775.111-.055-.026.125.11.056-.109.058.028.125-.111-.053-.077.1-.029-.124-.122-.001.074-.101-.076-.1.123-.003.027-.124z" clip-rule="evenodd"/><path fill="#fff" fill-rule="evenodd" d="M8.563 5.2012c-.0493.2382-.264.456-.5153.5327-.0686.2013.0488.5161.2117.6906.6792.3286 1.4114.1819 1.8207.2504.1295.0216.4046-.0748.44-.3272.029-.2075.1255-.2628.168-.9932.023-.395.0153-.7439.064-.8957.0488-.1519.1045-.3096.2455-.3691.194-.082.3173-.2312.4558-.279.1697-.0587.2903-.0892.3668-.152.0767-.0627.0828-.244-.1165-.2867-.45-.0966-.6824.1778-1.1087.0976-.2014-.0378-.3762-.0242-.36.2531s.028.6625-.22 1.1565c-.1666.3318-.2374.736-.1357 1.0033-.1604-.0994-.3256-.1198-.5268-.2627a3.37 3.37 0 0 0-.7894-.4186" clip-rule="evenodd"/><path fill="#fff101" fill-rule="evenodd" d="M8.3363 5.5707c.3503.1328.3366.2687.7797.3653.2664.058.5742.1784.7054.2563l.014-.0606c-.131-.0779-.439-.1982-.7053-.2563-.4285-.0934-.4298-.2236-.7463-.3522a.7.7 0 0 1-.0475.0475" clip-rule="evenodd"/><path fill="#fff101" fill-rule="evenodd" d="M8.539 5.287a.8.8 0 0 0 .124.063c-.029.104-.195.212-.133.243.02.01.08.049.111.07-.049-.033.155-.198.154-.249.207.072.37.237.503.275-.021.084-.135.192-.072.209.033.008.112.032.161.046-.051-.016.044-.099.038-.15.111.042.315.13.402.183l.053-.094c-.16-.099-.326-.12-.527-.263a3.37 3.37 0 0 0-.789-.418 1.4 1.4 0 0 1-.024.085m1.606.654c-.117-.26-.065-.679.077-1.01.167-.387.186-.703.171-.953.035.001.065-.019.096-.033.332-.151.526.111.434.189.035-.029.066-.04.091-.052.044-.02.005-.178-.152-.257-.067-.033-.193-.033-.269-.017.062-.076.105-.105.191-.12a.26.26 0 0 1-.023.112c.029.004.062.005.102.025a.297.297 0 0 0 .033-.162c.157-.045.296-.104.448-.096.244.014.307.188.108.244.17-.059.29-.089.367-.152s.083-.244-.116-.287c-.45-.097-.682.178-1.109.098-.201-.038-.382-.024-.36.253.003.037.003.046.006.078 0 .084-.112.148-.232.061.088.121.141.11.234.109.001-.042.095.018.118.006a2 2 0 0 1-.051.532c-.06-.028-.129-.048-.15.012a2 2 0 0 1-.033.1c.021-.06.095-.035.155-.007a2.3 2.3 0 0 1-.109.293 1.8 1.8 0 0 0-.122.379c-.063-.016-.173-.038-.186.029a1.5 1.5 0 0 0-.027.176c.008-.1.126-.069.19-.055-.019.179-.006.35.051.481z" clip-rule="evenodd"/><path fill="#fff101" fill-rule="evenodd" d="M9.678 6.4833c.0131.1.0046.1738.1453.1797.23.0096.2113.0394.4408-.1058.2335-.1478.2398-.1186.3013-.4643.0151-.085-.0178-.084-.1222-.1308-.2249-.101-.4214-.094-.62-.1527-.0768.1942-.1677.5018-.1451.674" clip-rule="evenodd"/><path fill="#fff101" fill-rule="evenodd" d="M10.124 5.863c.124.025.105.026-.002.145.111.127.197.217.288.319.102.114.117.139.056.178a6 6 0 0 0-.217.143c-.093.066-.101.043-.144-.042s-.107-.269-.202-.444c-.142.069-.169.102-.157-.001.013-.115.051-.296.076-.368.074.029.187.046.304.07m-.224-1.952-.101-.073.116-.039-.009-.128.103.07.089-.087.012.128.12.02-.088.088.06.111-.121-.016-.044.119-.063-.11-.116.037z" clip-rule="evenodd"/><path fill="#000" fill-rule="evenodd" d="M7.1598 5.6045c.242-.0656.5542-.0017.6814.1587-.0626.267.0113.5688.1804.7304l-.0006.007a3.4 3.4 0 0 1-.7407.5093c-.0764.039-.1417.0831-.2129.1403a3 3 0 0 0-.058.0478l-.0554.0465a1.6 1.6 0 0 1-.0714.0567c-.005.0037-.0104.0068-.0153.0102a1 1 0 0 1-.058.0395c.1115.0193.2292.0779.3435.1632-.0021-.002-.0038-.0046-.0064-.0064.01.0074.0194.0157.0294.0236.143.112.2793.266.3862.4443a2.4 2.4 0 0 0 .1581.232c-.0004-.0006-.0001-.002-.0006-.0025a2 2 0 0 0 .0663.0803c.0008.001.001.0027.0019.0038.1193.1373.2486.2435.4054.3417l.019-.0358H8.188l-.0039-.0076.074-.0956-.0759-.1.0039-.0084.1179.0013.0274-.1243.0083-.0019.0745.095.1084-.0536.0064.0058-.028.1198.1096.056v.009l-.1065.0523.0274.1243-.0063.0057-.1059-.0542-.077.0988c.0203.0112.0405.0233.0617.0345l.074.0452c.0535.0417.0797.09.0822.1447v.0083c0 .0052.0004.0106 0 .016-.0005.0067-.0032.0134-.0045.0203-.0015.0088-.003.0177-.0057.0268q-.0047.0153-.0115.0312c-.004.0102-.008.0207-.0133.0313a.5.5 0 0 1-.0173.0312q-.0099.0172-.0216.035a1 1 0 0 1-.0523.0714c-.1121.1397-.1567.253-.2218.5049-.071.2746-.1205.397-.2518.5526-.12.142-.2856.092-.3034-.0402-.0063-.0472-.0027-.1009.0102-.1753.0075-.043.0448-.2214.0478-.2364l.009-.0893c0-.0342-.0032-.0766-.0084-.1383a.17.17 0 0 0 .0122.0427c.0051.0702.0063.1113.0019.1498l-.0026-.0013-.007.0039a.09.09 0 0 0 .0038.037l-.0159.0783v.002c-.0117.0566-.0266.1257-.0312.1516v.0013c-.0129.0736-.0164.1267-.0102.1728.0167.1235.1715.17.2862.0344.13-.1541.1792-.275.2498-.5482.0655-.2533.111-.3675.2244-.5086.1445-.18.1704-.3051.0389-.4048l-.0663-.0414c-.0136-.0067-.0155-.0084-.037-.0191-.0106-.0054-.0188-.0093-.03-.0147-.0043-.0027-.0076-.0064-.0114-.0096a3 3 0 0 1-.1154-.0675.027.027 0 0 1-.0038.0159c-.005.0088-.014.0182-.0287.0325-.0019.0018-.002.0022-.0038.0038-.0253.0243-.0338.034-.0344.0415l-.007.0038c-.1524-.0856-.2864-.184-.4137-.3206.0653-.05.0916-.0916.0682-.1288-.0166-.019-.0341-.0377-.0504-.058.0024.0354-.029.0732-.0911.1167a2.2 2.2 0 0 1-.1874-.246 2.07 2.07 0 0 0-.2505-.3067c.0733-.0799.1054-.1425.0688-.1765a1.5 1.5 0 0 0-.0981-.0854l-.0013-.002-.0134-.0101.0147.012c.0083.0194.0083.0411-.0013.0657-.0087.0221-.0234.0454-.0446.072a.23.23 0 0 1-.0364.0364c-.143-.111-.2888-.1796-.4155-.1944l-.0479.0414c-.0035-.0004-.0072-.0016-.0108-.002l.0032.009.0076-.007c.2588.028.576.2653.7879.575.2046.299.4274.4883.7005.638-.0115.0201-.0152.0385-.0185.0803l-.002.0217c-.0185.1707-.0949.2899-.1975.3416-.0727.0366-.1452.0295-.1734-.0121a.35.35 0 0 1-.0025.0593c-.001.0077-.0011.0154-.002.023-.0019.0575.161.0687.2799-.0173.0545-.0395.119-.1462.1466-.2333h.0089c.0327.0963.0335.151-.0032.239-.0291-.0163-.0574-.0445-.0777-.0739.0015-.0022.0032-.0037.0038-.0045h-.0077c.001.0016.0027.003.0038.0045-.0044.0063-.011.017-.014.021a.3.3 0 0 1-.023.0274c-.0095.0102-.0201.0197-.0305.0217.0232.0431.0655.084.1173.1148-.0086.0339-.0105.0426-.0294.1255-.0378.1668-.0634.2468-.116.3315a.5.5 0 0 1-.0408.0548v.0013c-.0539.065-.113.099-.1612.093-.0419-.0052-.0657-.0389-.0695-.0918.0086-.0413.0153-.0759.0166-.0822l.0032-.0274.0019.0007v-.0109l.2052.1065c.012-.015.025-.0309.0364-.0491a.63.63 0 0 0 .0592-.125c-.1862.0153-.2714-.0087-.3027-.0822q-.0013-.0213-.0032-.0465c.014.1002.0861.135.292.1198l.0152.0064.0025-.007c-.0059.0002-.0121.0002-.0178.0006l-.292-.123-.0006-.0102.311.13c.0169-.0491.032-.1079.0498-.186-.1913.0574-.3243.043-.3659-.0326l-.0019-.037c.0157.0954.146.1222.3519.0631l.0166.0032c.0001-.0008.001-.0017.0012-.0025.0004-.002.0002-.004.0007-.0058l-.0185.0051-.3525-.0675c-.0002-.0035.0001-.0069 0-.0102l.3716.0714c.0173-.0764.0198-.0854.0306-.1129a.256.256 0 0 1-.1135-.1115c-.1076.0774-.2514.0786-.2862.0325a1 1 0 0 0-.0025.1205l-.0058-.0007-.0038.0032a1 1 0 0 1 .0045-.1466c0-.001-.0008-.0021-.0007-.0032l.0026-.021c.0177-.1306-.0355-.2302-.181-.4035-.045-.0536-.1272-.1176-.2722-.2154-.0088-.0059-.3301-.2183-.4334-.29a6 6 0 0 1-.1963-.1428.06.06 0 0 1-.0198-.0102v-.0051c-.0985-.0752-.1787-.1415-.2441-.2033a1.8 1.8 0 0 1-.1116-.1148c-.017-.019-.0677-.078-.0777-.0892a.8.8 0 0 0-.0644-.0657q-.0105-.0093-.0217-.0184c-.1652-.1376-.1622-.4262-.0503-.5712q.0163-.0209.0331-.0446c.07-.0998.3822-.6642.4838-.8203.1808-.2778.3716-.4958.6023-.6668m.5641 4.219c-.0235.0944.0009.155.0549.1618.0431.0053.0962-.0246.1466-.0828-.1012.0119-.1835-.0184-.2015-.079m.1964.07.0089.0045c.0015-.0017.0023-.004.0038-.0057zm.23-.8381a.65.65 0 0 1-.0707.1402c.0197.0295.049.0576.0714.0765.0279-.0793.0273-.1303-.0006-.2167M7.0363 7.7557c-.0745.1326-.1519.2533-.2212.3365-.065.078-.1205.1211-.1638.1237.0547.041.1137.0862.1804.1326.1033.0717.425.2844.4334.29.1458.0983.2289.1621.2747.2167.1138.1355.1715.2271.1836.3238.0104.0562.0894.0727.1708.0319.0996-.0501.1742-.166.1925-.3334l.002-.021v-.0013c.0034-.0431.0072-.0623.0216-.0771-.2725-.1434-.4969-.3332-.7024-.6336a1.65 1.65 0 0 0-.3716-.3888m.7642.5628c.0049.0356-.0245.0724-.0796.109a1.82 1.82 0 0 0 .4073.3092c.0032-.009.0116-.0197.0344-.0415l.0044-.0044c.0141-.0137.0224-.0223.0268-.03.0039-.0068.0037-.0111-.0006-.0185-.1511-.094-.277-.1951-.3927-.3238m.5348.3933.0083.002-.0026-.0097zm-.0331-.1166c-.0153.0447-.0065.0885.0255.1147l.005.0025-.0229-.1166zm.0063-.204-.1128.0019-.0057-.0076-.0038.0082.0095-.0006.0701.0988-.0682.093H8.188l.0038.0083.0057-.0083.021.0007c.0391-.0674.0807-.0953.1804-.109-.008.004-.0156.01-.0229.0147-.0777.0139-.113.039-.1466.095l.0656.0025a.203.203 0 0 1 .081-.0975c.008-.0015.0165-.004.0255-.0051l-.0026-.0096h.0013l.0026.0096c-.0505.0252-.083.064-.0982.1032l.0102.0007.0261.114.0765-.093.1033.0484-.0236-.1198.1014-.0542.0082.0051v-.009l-.0082.004-.1046-.0568.0236-.116.009-.0038-.0064-.0051-.0026.0089-.102.0516-.0057-.0013-.072-.0911zm-.0867.2071c-.004.0074-.0185.031-.0242.0351q.05.0313.104.0618c-.0175-.028-.0203-.0637-.0084-.1h-.0694zm.301.0714.0063-.0057-.0083-.0045zm-1.2284-1.023c.0115.04-.0222.0946-.0847.1568.0935.0885.1799.1925.2517.3015.0595.0902.1219.1716.1804.2441.0674-.0516.0961-.0929.0752-.1294a2.4 2.4 0 0 1-.1631-.239 1.72 1.72 0 0 0-.2595-.334m1.0377.6183.0058.007.0025-.009zm-1.7095-.0701.0121.0089c.0408.0107.0997-.0308.1727-.1186.0625-.075.131-.1813.199-.299zM7.833 5.765c-.1236-.1526-.432-.2156-.6692-.1517-.2282.1694-.4183.3866-.5986.6635-.1013.1557-.4131.7196-.4838.8203a1 1 0 0 1-.0337.0453c-.1089.141-.111.4228.0497.5565q.011.0093.0217.019a.8.8 0 0 1 .0643.0664c.0096.0107.0606.0699.0778.0892.0349.039.07.0755.1115.1147.065.0614.145.1268.2429.2015l.4124-.4411c-.1386-.101-.2827-.1661-.4111-.1772l-.0026-.009.0593-.0497c.1322.014.2796.0831.4175.1957a1 1 0 0 0 .0293-.035c.0206-.026.0351-.0486.0434-.0695.0135-.0347.0088-.0621-.0185-.0842-.1162-.0865-.2356-.1448-.348-.1619l-.0007-.0044c-.001.0004-.0016.0014-.0025.0019l-.0491-.102c.0752-.045.2351-.172.3467-.2702-.0134-.0088-.0257-.0242-.0414-.0542l-.0172-.0325c-.0144-.0248-.024-.0307-.0357-.0191.0027-.0028.0077-.0089.014-.0153q.0147.0025.03.0286c.0026.0045.0049.0102.0083.0166.0016.0031.0046.0082.0089.0166.0171.0329.0289.0493.0427.0554l.0013.0083c-.1122.099-.2763.2286-.3512.2677l.0446.0937c.0487-.0289.0923-.0618.1523-.1122l.0555-.0465c.0226-.019.0403-.0342.058-.0484a1.2 1.2 0 0 1 .2148-.1409 3.4 3.4 0 0 0 .7343-.5048c-.0078-.0077-.0143-.0167-.0217-.0249-.01-.0111-.021-.0226-.03-.0331l.0013-.0007-.0013-.0019h-.0025l.0025.0026a1.8 1.8 0 0 0-.1166.0784c-.0216-.024-.0377-.059-.0548-.111-.0045-.0136-.0205-.0645-.0242-.0758-.0085-.0255-.0155-.0417-.023-.051-.0078-.0096-.0156-.0114-.0255-.0044a2 2 0 0 1-.0994.058l-.0013-.0007c-.0132.0073-.0263.0167-.0414.0249l-.0268.0146c-.1364.0752-.2286.1494-.3633.308-.0165.0193-.0356.0375-.0536.0573q.0143 0 .0287.0191a.26.26 0 0 1 .0223.0376l.0236.0472c.0183.0368.0323.06.0415.0765.027-.028.0635-.0544.116-.0854.02-.0119.157-.0874.1988-.1129a1 1 0 0 0 .1606-.1192c-.0117-.0113-.024-.036-.0382-.081a3 3 0 0 1-.0147-.0484c-.0154-.0516-.0243-.0773-.0344-.0987-.0122-.026-.0227-.0354-.0325-.03.005-.0027.0098-.0062.0147-.009q.0137.0073.0268.0345c.0103.022.0188.048.0344.1.0105.0353.0108.0365.0146.0485.0154.0488.0275.0749.0383.081l.0006.0082c-.0467.0438-.1.0827-.165.1224-.042.0256-.1798.1017-.1996.1135a.9.9 0 0 0-.1204.0841c-.0168-.0174-.0315-.0416-.0504-.0797-.0024-.0047-.0184-.0382-.023-.0471a.26.26 0 0 0-.021-.0364c-.0132-.0175-.0237-.02-.035-.0076a2 2 0 0 1-.0682.0727c-.0008.0007-.0012.0005-.002.0012-.0042.0044-.0214.0212-.0344.0344h-.0019c-.1409.1392-.2939.2689-.3977.3302l-.0421-.051c.1427-.0883.3953-.3151.5628-.5124.1355-.1596.229-.234.3665-.3098l.0268-.0147c.1389-.0751.1967-.1126.297-.2014-.018-.1108-.0164-.2276.0102-.3378m-.8267 2.0212.03-.0306c-.0024-.0018-.0059-.0052-.0083-.007zm.8178-1.672c-.0981.0864-.1566.1247-.2938.199-.0107.0057-.019.0103-.0268.0146-.1365.0752-.2292.1492-.364.3079-.168.198-.4213.425-.564.506l.037.0428c.1426-.0883.3957-.3151.5634-.5125.1354-.1594.2285-.234.3658-.3098l.0268-.0146c.129-.07.1807-.1035.2684-.1734-.003-.012-.0052-.0242-.0077-.0363-.0018-.0082-.0037-.0164-.005-.0236m-.0918.1473a.03.03 0 0 1 .0153.0109c.0085.0105.016.0274.0249.0541l.0242.0759c.0168.0507.0325.0848.0465.107a.8.8 0 0 1 .111-.0796c-.0523-.0706-.0913-.1562-.1154-.2486a1.2 1.2 0 0 1-.1065.0803m.0918-.1472.0007-.0013-.0013-.0064c.0004.0023.0001.0051.0006.0077" clip-rule="evenodd"/><path fill="#000" d="m7.728 9.794-.005-.002.007-.004c0 .002-.002.004-.002.006m-.012-.203-.003-.014.001-.002zm.009-.007-.008-.003.006-.005c0 .003.002.006.002.008m-.006-.098c.002.025.003.052.005.082v.006l-.004-.002-.005.003v-.007c-.004-.045-.005-.084-.007-.118a.11.11 0 0 0 .011.035m-.012-.034-.003-.012.002-.002zm.009-.007-.008-.001.006-.005c0 .002.002.004.002.006"/><path fill="#000" fill-rule="evenodd" d="M11.127 3.414c.257-.071.384-.087.577-.046.177.038.219.214.119.296-.038.031-.087.055-.162.083-.036.013-.181.062-.206.07a.4.4 0 0 0-.072.034 1 1 0 0 0-.087.057c-.004.003-.016.011-.029.02a.16.16 0 0 0 .031-.034 1 1 0 0 1 .08-.052c.014-.008.029-.014.042-.02l.001.003.007.005a.094.094 0 0 0 .035-.026c-.005.002-.009.004-.011.005l-.021.009c.006-.003.01-.007.015-.01a.1.1 0 0 1-.021.013c-.001.001-.002.002-.004.003l-.017-.24a.5.5 0 0 0-.059-.008.6.6 0 0 0-.131.009c.103.158.126.247.085.312l-.008.006c-.004.003-.013.008-.024.016.066-.062.056-.145-.055-.318l-.002-.015-.006.001.008.013.045.326-.008.006-.047-.345a.5.5 0 0 0-.039.007c-.041.01-.061.015-.138.04.144.146.197.275.154.351-.009.006-.018.011-.027.017.068-.063.026-.194-.125-.35l-.005-.016c-.002.001-.005.001-.008.002q.007.007.013.014l.12.354-.008.006-.126-.373-.027.008c-.035.011-.06.018-.081.02a.274.274 0 0 1-.036.157c.118.059.191.19.17.245l.03-.015a1.3 1.3 0 0 0 .07-.043l.003.006.004.001a.96.96 0 0 1-.123.069c-.001 0-.001.002-.002.003-.003.001-.003.002-.006.003-.013.006-.023.011-.032.015a.28.28 0 0 0-.052.033c-.071.058-.117.155-.171.323-.027.084-.036.205-.046.501-.008.238-.011.282-.017.393a7 7 0 0 1-.019.249.07.07 0 0 1 .001.024l-.004.003c-.015.151-.033.271-.055.372a2 2 0 0 1-.036.137 6 6 0 0 0-.032.105.8.8 0 0 0-.022.104c-.031.219-.27.361-.446.331-.107-.018-.207-.022-.465-.022-.503-.001-.757-.022-1.067-.116a1.96 1.96 0 0 1-.292-.113c-.175-.187-.278-.503-.21-.699.252-.077.464-.295.513-.529l.006-.003c.291.107.551.249.79.419.099.071.159.099.333.17.034.014.062.027.087.038.011.005.021.01.031.015a1 1 0 0 1 .064.034c-.04-.112-.049-.249-.036-.397l-.003.013c.001-.013.004-.026.005-.039.021-.186.079-.387.173-.573a2.4 2.4 0 0 0 .113-.263c-.001.002-.002.003-.002.005a2 2 0 0 0 .033-.1c.001-.003.003-.007.004-.01.053-.175.075-.344.077-.534q-.005 0-.012.001c-.059.001-.081-.001-.11-.013-.036-.015-.07-.045-.109-.099l.006-.007c.102.074.214.037.223-.046a3 3 0 0 0-.004-.088v-.019c-.004-.08.009-.14.04-.182.001-.002.003-.003.005-.004a.16.16 0 0 1 .034-.032q.004-.003.008-.005.006-.004.012-.007c.006-.003.013-.005.019-.007a.2.2 0 0 1 .023-.008.3.3 0 0 1 .043-.007c.007-.001.013-.002.02-.002.046-.002.099.003.162.015.168.032.288.016.514-.047zM9.951 5.426c-.065-.007-.102.009-.108.059-.013.149-.002.287.04.397l-.002.002.003.002-.06.096c-.075-.046-.26-.129-.396-.181 0 .014-.005.031-.016.052-.003.005-.005.01-.009.016-.018.031-.022.038-.025.048-.004.013 0 .019.011.023-.006-.002-.011-.004-.02-.006 0 .001.001.002.002.003.185.059.368.133.47.197l-.021.064c-.144-.086-.457-.202-.704-.256-.209-.046-.312-.092-.459-.191-.12-.081-.16-.105-.25-.145a1.5 1.5 0 0 0-.071-.029c-.082.072-.178.129-.282.16-.064.189.038.501.209.685a2 2 0 0 0 .289.112c.309.094.562.114 1.064.115.258.001.359.004.466.022.171.029.405-.11.435-.323a.8.8 0 0 1 .022-.105c.006-.02.029-.096.032-.105a2 2 0 0 0 .036-.137c.023-.101.041-.221.056-.371l-.571-.154c-.014.177.005.341.06.463l-.006.006-.07-.029c-.055-.127-.071-.296-.047-.478l-.024-.005a.5.5 0 0 0-.05-.008m-1.564.101q-.008.009-.017.017c-.008.008-.017.018-.025.025l-.001-.001-.004.004.001.003c.002-.002.003-.004.005-.006.023.009.044.018.065.027.091.04.131.064.252.145.146.098.248.145.456.19.248.054.562.171.7.26l.016-.055c-.107-.063-.306-.144-.502-.203l-.009-.003-.004-.001-.002-.001a2.6 2.6 0 0 0-.186-.048c-.209-.046-.312-.092-.458-.191-.121-.082-.162-.106-.253-.146a.13.13 0 0 1-.031-.017m.156-.243-.001-.001-.001.002.001.003c0-.001 0-.003.001-.004.041.025.083.047.123.068a.2.2 0 0 1-.005.015c-.012.03-.033.06-.067.101l-.036.043a.4.4 0 0 0-.028.036c-.013.021-.014.033-.001.041.018.01.035.022.055.035.013.008.028.017.043.027s.031.02.049.032c.146.098.247.145.455.19.025.005.049.013.075.019-.005-.008-.006-.02 0-.035.006-.017.006-.017.043-.077a1 1 0 0 0 .021-.036c.011-.02.018-.038.026-.047-.035-.01-.074-.03-.124-.06-.029-.018-.139-.09-.14-.091-.09-.058-.161-.096-.235-.122-.003.02-.022.046-.08.112l-.004.005c-.032.037-.05.059-.062.078-.014.023-.017.037-.008.043q-.008-.005-.015-.01 0-.015.015-.039c.013-.02.03-.042.063-.08.002-.002.002-.002.005-.004.061-.07.08-.095.08-.112l.006-.005c.077.027.149.065.242.126.002.001.11.073.14.091.049.03.088.049.126.065a.25.25 0 0 1-.024.056 1 1 0 0 1-.021.036c-.036.059-.037.059-.043.075-.008.02-.005.031.011.035.018.004.047.013.095.027.002.001.002 0 .004.001.017.005.017.006.033.01q.006.002.01.003a.034.034 0 0 1 0-.02c.003-.012.007-.019.026-.05l.009-.016c.013-.023.019-.04.017-.053l.006-.005c.137.052.326.137.396.185l.055-.087c-.053-.033-.103-.056-.192-.092-.175-.071-.235-.1-.335-.171a3.6 3.6 0 0 0-.29-.184 3.26 3.26 0 0 0-.494-.233 1.5 1.5 0 0 1-.022.077m1.597.659.006-.006-.01-.004c.001.003.002.007.004.01m1.552-2.566c-.191-.041-.317-.025-.572.046l-.171.043c-.138.03-.238.033-.365.009-.252-.047-.368.01-.354.248l.003.041v.002c.001.012.002.021.003.034 0 .004-.001.008-.002.012.002.049.002.096.002.142a.027.027 0 0 1 .017-.004c.01.001.022.004.043.011.001 0 .002 0 .003.001.031.01.043.013.05.01l.007.005c.006.181-.009.353-.058.537-.075-.035-.122-.038-.141.004-.007.024-.013.048-.022.071.028-.019.075-.008.142.026a2.25 2.25 0 0 1-.11.294c-.054.119-.096.249-.127.381-.102-.027-.17-.025-.18.026a1.7 1.7 0 0 0-.021.125c0 .002-.001.004-.001.006.019-.027.055-.036.106-.031a.5.5 0 0 1 .052.009c.006.001.022.005.027.01-.02.186-.003.353.048.476l.058.023c-.106-.249-.068-.656.081-1.004.144-.336.189-.633.176-.956.022 0 .039-.005.073-.022l.002-.001c.009-.005.014-.007.019-.01.15-.068.287-.058.381.009.066.048.096.117.076.163q.002-.001.003-.002l.006-.003.061-.031c.051-.025-.021-.18-.153-.246-.06-.03-.18-.035-.266-.017l-.004-.008c.063-.078.108-.106.199-.117a.27.27 0 0 1-.022.107l-.006-.001.004.007c.001-.002.001-.004.002-.006l.005.001c.044.005.064.01.087.027.024-.043.036-.102.036-.164.025-.007.05-.015.085-.025.112-.035.132-.041.179-.052.068-.016.127-.022.186-.019a.5.5 0 0 1 .066.009h.002c.08.017.137.053.156.1.016.04.002.078-.038.108.049-.016.106-.035.127-.042.075-.027.123-.051.16-.082.094-.077.055-.241-.115-.278m-1.04 2.242.001-.006c-.005-.046-.069-.082-.184-.106-.094-.019-.217-.03-.349-.032zm.201-1.662c-.091-.065-.224-.075-.371-.008-.005.002-.01.005-.019.01q-.001 0-.002.001c-.035.017-.054.024-.073.018.018.319-.026.618-.171.955a1.76 1.76 0 0 0-.135.532c.147.001.285.013.389.034.099.02.162.05.185.089a7 7 0 0 0 .018-.233c.006-.111.008-.156.017-.393.011-.297.02-.418.047-.503.06-.187.11-.287.196-.344l-.022.017c.043-.037.017-.119-.058-.173M8.545 5.297a.71.71 0 0 1-.147.229 1.3 1.3 0 0 1 .12.057q-.003-.015.011-.038a.4.4 0 0 1 .029-.038l.036-.043c.034-.04.054-.069.065-.097.002-.005.004-.009.008-.008a.8.8 0 0 1-.122-.062m1.552.182c.013 0 .026.001.04.001l-.039-.01zm.188-.857c-.074-.035-.122-.041-.143-.006a2.4 2.4 0 0 1-.117.27c-.065.13-.114.267-.145.402l.005-.004c.03-.024.09-.019.166.005a1.8 1.8 0 0 1 .122-.38 3.3 3.3 0 0 0 .111-.286m-.017-.657c-.008 0-.012.002-.017.01-.002.184-.023.349-.071.518.027-.022.072-.012.13.019.042-.178.056-.348.051-.526-.009.001-.022 0-.05-.009zm-.027-.117c-.029.061-.117.084-.203.036-.006-.007-.013-.013-.019-.022l-.006.007c.008.006.017.01.026.015.031.038.057.062.086.074.027.011.049.013.106.011.007 0 .01.001.012.003a3 3 0 0 0-.001-.124m.551-.15c-.079.014-.122.04-.179.108a.58.58 0 0 1 .151-.006.42.42 0 0 0 .028-.102m.635-.111c.068.084.086.17.043.218.082-.027.118-.075.097-.125-.017-.042-.068-.076-.14-.092m-.006.008v-.008l-.007-.001c.003.003.005.007.007.01m-4.233-.6c.196-.081.432.065.496.239.03.081.073.172.142.3.009.017.15.274.193.357.217.414.337.752.369 1.127-.067.253-.275.504-.471.54-.189-.19-.475-.274-.693-.201l-.006-.004a3.77 3.77 0 0 1-.05-.929c.008-.117.001-.203-.022-.356-.009-.063-.011-.073-.014-.099v-.001a.9.9 0 0 1-.008-.098c-.001-.015-.003-.03-.003-.045-.072.092-.18.17-.308.231.004-.001.008-.001.012-.003-.015.008-.031.014-.048.021a1.3 1.3 0 0 1-.069.028l-.042.015h-.001a1.57 1.57 0 0 1-.433.08 2.2 2.2 0 0 0-.276.028h.007a2 2 0 0 0-.099.02h-.006c-.172.04-.324.104-.483.198l.017.029a.5.5 0 0 1 .017.033c.027.059.027.113-.009.203l-.009-.002c.01-.126-.072-.209-.144-.183q-.037.025-.076.051c-.071.052-.132.071-.185.063l-.005-.001a.156.156 0 0 1-.065-.027.2.2 0 0 1-.025-.024l-.004-.004a.32.32 0 0 1-.039-.051q-.038-.062-.071-.159a1 1 0 0 0-.048-.117c-.053-.108-.126-.198-.255-.334-.006-.007-.006-.008-.013-.015-.18-.19-.258-.301-.32-.494-.057-.18.067-.306.185-.256a.3.3 0 0 1 .024.012c.038.02.077.051.129.098.028.025.136.129.157.149.037.035.083.063.158.101l.026.013a.15.15 0 0 0-.04-.009.73.73 0 0 1-.121-.074l.001-.001.001-.008a.08.08 0 0 0-.034-.016l-.059-.056-.001-.001c-.037-.035-.079-.076-.094-.09-.051-.047-.09-.076-.127-.096a.3.3 0 0 0-.023-.011c-.11-.047-.226.071-.171.244.061.191.138.301.317.49l.013.014c.173.182.245.282.305.455.076.221.166.308.314.238l.067-.039.034-.025c.009-.007.017-.012.027-.02.005-.003.01-.005.015-.007q.057-.037.112-.07a.03.03 0 0 1-.011-.013c-.005-.01-.008-.022-.013-.045l-.001-.006c-.006-.03-.01-.043-.016-.047V4.33c.147-.096.295-.168.472-.216.009.084.03.128.071.126.024-.005.048-.012.072-.017-.029-.016-.044-.064-.049-.141a2 2 0 0 1 .297-.048c.125-.011.253-.037.378-.075.029.107.065.167.111.151.042-.014.081-.03.117-.046l.002-.001q.01-.004.02-.009c-.007.003-.014.007-.022.01-.034-.004-.061-.039-.083-.097a1 1 0 0 1-.011-.031c-.002-.007-.009-.029-.006-.034.163-.074.293-.173.368-.281l-.011-.064c.002-.003.005-.005.007-.008l-.008-.002.001.01c-.152.221-.507.391-.868.429-.349.037-.617.145-.876.318-.011-.02-.024-.032-.056-.056l-.018-.013c-.131-.102-.192-.231-.183-.351.006-.084.049-.146.097-.151a.3.3 0 0 1-.024-.015q-.001-.001-.003-.001l-.013-.01q-.003-.002-.007-.005c-.006-.005-.013-.009-.02-.014-.047-.027-.136.114-.124.264.005.069.061.182.119.25l-.004.008c-.096-.018-.141-.045-.196-.122a.24.24 0 0 1 .099-.034l.003.006.004-.007c-.002 0-.005.001-.007.001-.003-.006-.006-.015-.007-.018-.012-.03-.018-.054-.016-.079-.047 0-.102.018-.153.05l-.022-.023c-.02-.02-.087-.087-.096-.097-.093-.094-.146-.16-.185-.242-.052-.108-.058-.207-.022-.258.025-.034.063-.041.107-.02.028.027.054.051.063.059.006.006.014.01.021.016l-.002.001c.002.001.004.002.006.004v-.002l.004.003-.192.135a.5.5 0 0 0 .023.057.64.64 0 0 0 .073.116c.08-.175.143-.241.218-.234l.01.006c.004.002.014.006.026.012-.086-.032-.151.018-.239.208l.247-.204q.005.003.01.005l-.263.217c.028.035.061.072.103.114l.026.026c.049-.204.128-.318.212-.317.011.006.021.012.031.017-.087-.035-.176.07-.23.287l.232-.287.009.005-.245.302.063.063c.008.008.015.016.016.022a.24.24 0 0 1 .149-.047c-.01-.135.06-.266.115-.277a.8.8 0 0 0-.066-.046c-.01-.006-.02-.011-.031-.017l.004-.004-.001-.006c.011.006.022.012.032.018a.9.9 0 0 1 .086.06c.001.001.002.001.003.001l.016.012c.099.081.208.084.424.038.065-.014.156-.055.302-.133.032-.017.335-.185.437-.239q.016-.008.031-.017a7 7 0 0 1 .218-.11.06.06 0 0 1 .016-.011l.003.001c.21-.1.337-.139.529-.183a1 1 0 0 0 .06-.015.7.7 0 0 0 .078-.027m.487.243c-.062-.169-.293-.312-.484-.233a.7.7 0 0 1-.078.027 1 1 0 0 1-.061.015c-.191.044-.318.083-.526.182l.158.599c.153-.076.28-.175.353-.286l.009.003.011.078c-.078.113-.209.213-.371.282l.009.027a1 1 0 0 0 .011.031c.022.058.046.091.079.092l.031-.008c.129-.062.237-.141.307-.235l.003.001c0-.001.001-.002.001-.003l.109.006c-.001.091.023.299.048.45.014-.008.032-.011.063-.01.006 0 .006 0 .012.001.028.001.039 0 .049-.003.011-.003.015-.009.012-.02.001.004.003.011.005.02a.026.026 0 0 1-.014.01c-.011.003-.022.003-.051.003h-.012c-.033-.001-.052.002-.063.011l-.007-.003c-.026-.152-.05-.365-.045-.452l-.099-.006a1.1 1.1 0 0 0 .01.154c.003.026.005.035.015.098.023.154.03.24.022.358a3.76 3.76 0 0 0 .048.92c.005-.002.011-.002.016-.004a1 1 0 0 1 .057-.015v.002q.001 0 .003-.001l.002-.002c-.001 0-.003 0-.004.001a2 2 0 0 0-.006-.145c.027-.007.059-.005.101.002a1 1 0 0 1 .047.01c.059.013.069.015.086.015.022 0 .031-.006.03-.022a2 2 0 0 1 .001-.12l.001-.001c.001-.011 0-.023.001-.036l.001-.029c.008-.175-.006-.292-.071-.501-.008-.025-.014-.051-.022-.077q-.006.012-.025.016c-.016.003-.032.003-.077.001l-.029-.001c-.034-.001-.059 0-.075 0 .014.056.015.108.01.252-.005.141-.005.213.007.298a1 1 0 0 0 .006.039c.018-.007.05-.001.131.018l.005.001c.049.012.075.016.098.018.027.002.04-.003.041-.015l-.001.017c-.008.006-.022.009-.041.008-.023-.002-.049-.007-.099-.018l-.006-.001c-.085-.02-.115-.025-.129-.016l-.008-.003a1 1 0 0 1-.008-.046c-.012-.085-.012-.158-.007-.299.005-.143.004-.195-.006-.256.021-.006.047-.008.082-.006.008 0 .016.001.029.001.044.002.06.003.075 0 .018-.004.023-.011.019-.027a2 2 0 0 1-.024-.094c-.001-.003-.001-.003-.001-.006a3 3 0 0 1-.013-.05c.001-.001.001-.003.001-.004-.044-.197-.073-.4-.072-.524l.063-.013c.002.174.062.517.141.768.066.21.08.329.072.505l-.001.028c-.007.147-.005.227.017.358a.78.78 0 0 1 .274.178c.188-.036.394-.285.46-.532-.033-.372-.153-.708-.368-1.121-.043-.083-.184-.34-.193-.357-.069-.129-.112-.22-.142-.301m-.04 2.13q.003.001.006.003l.002-.001q-.004-.001-.008-.003zm-.276-1.638c.002.174.062.517.141.768.066.21.08.329.072.505l-.001.029c-.006.135-.005.207.008.317.01.003.019.006.029.01.009.003.02.006.028.009-.021-.128-.024-.208-.017-.353l.001-.029c.008-.175-.006-.292-.071-.501-.079-.252-.14-.596-.135-.766zM7.312 5.19a.9.9 0 0 1 .01.14c.084-.012.174-.004.263.02a1.3 1.3 0 0 1-.013-.136q-.01.009-.031.009c-.018 0-.027-.002-.088-.016a1 1 0 0 0-.047-.01.47.47 0 0 0-.093-.008M5.37 4.45a3 3 0 0 0-.102.063c.065-.003.127.067.13.17.026-.073.025-.119.002-.17-.004-.009-.01-.019-.017-.032a.14.14 0 0 1-.013-.031m.409-.331c-.168.051-.315.123-.46.217.006.008.01.02.016.047l.001.006a.2.2 0 0 0 .012.043c.004.008.008.01.017.01.153-.09.299-.154.463-.195-.031-.014-.046-.059-.049-.127m.509-.768q-.015.008-.031.016c-.101.053-.404.222-.437.24-.146.079-.238.121-.304.135-.168.036-.272.042-.358.005l-.02-.004c-.045 0-.088.06-.094.143-.008.116.05.241.179.342l.017.013c.034.025.048.038.053.058.254-.176.523-.284.874-.321.178-.019.355-.07.506-.143-.072-.134-.132-.266-.166-.37-.032-.1-.041-.173-.02-.213a8 8 0 0 0-.199.101m.26.615a1.6 1.6 0 0 1-.374.079 2.9 2.9 0 0 0-.292.042c.009.087.029.134.07.133a2.2 2.2 0 0 1 .279-.029c.14-.006.278-.03.404-.069-.038-.011-.066-.068-.086-.155m-1.584.096c-.034.003-.071.016-.097.027.051.065.093.09.178.108a.65.65 0 0 1-.08-.134M4.7 3.912l.007.007c.002-.007.003-.014.005-.02zm1.812-.667c-.033.029-.03.106.008.221.031.094.084.21.147.33l.011.043c.003-.001.006-.002.009-.004-.007-.013-.013-.027-.02-.039l-.147-.555q-.003.002-.007.004m-1.948.519q.003.003.005.006l.008-.016zm-.101-.185c.001.002.003.004.003.006l.005-.012zm.165-.15c-.065-.067-.128-.076-.16-.031-.026.037-.029.1-.006.175.04-.098.108-.157.166-.145" clip-rule="evenodd"/><path fill="#000" d="m5.39 4.708.009.003c.001-.01 0-.019-.001-.028-.003.008-.005.017-.008.026m5.756-.692-.004-.001q.006-.004.013-.009c-.003.003-.005.008-.009.01m.001-.007-.007-.002c.002-.001.003-.004.004-.005zm.101-.074.005.002c-.02.015-.041.031-.05.038-.016.012-.033.021-.048.031a.1.1 0 0 0 .021-.025c.007-.005.015-.009.022-.015.009-.007.03-.023.049-.037zm-.104.067-.001-.001q.003-.002.005-.004c-.002.002-.003.004-.004.005m.111-.064-.002-.001.013-.009c-.004.003-.007.008-.011.011m.002-.005-.007-.003.006-.006zm-.001-.009-.001-.002q.006-.004.011-.008c-.003.003-.006.007-.01.01m.174-.102-.008-.004.001-.001.006-.002zm-6.481-.216c-.002-.001-.005-.001-.007-.002l.006-.006zm.004-.009v.002l-.01-.005zm-.066-.034c.021.01.039.021.057.031a.1.1 0 0 0-.035-.008 1 1 0 0 1-.026-.014l-.052-.026.004-.003-.001-.006c.021.01.043.021.053.026m-.057-.019c-.003-.001-.006-.001-.009-.003l.008-.006zm.004-.009v.002l-.016-.008c.005.002.011.003.016.006m-.181-.092q-.002-.002-.004-.003l.004-.002z"/><path d="M7.7157 9.5914c.005.0617.0083.104.0082.1383l-.0089.0893c-.003.015-.0403.1934-.0478.2364-.013.0744-.0165.1281-.0102.1753.0178.1322.1833.1822.3034.0402.1313-.1556.1808-.278.2518-.5526.065-.252.1097-.3652.2218-.5049a1 1 0 0 0 .0523-.0714q.0119-.0178.0216-.035a.5.5 0 0 0 .0173-.0312c.0053-.0106.0092-.0211.0133-.0313.0044-.0107.0086-.0209.0115-.0312.0027-.0091.0042-.018.0057-.0268.0013-.007.004-.0136.0045-.0204.0004-.0053 0-.0107 0-.016V8.942c-.0025-.0548-.0287-.103-.0822-.1447l-.074-.0452c-.0212-.0112-.0414-.0233-.0618-.0345l.0771-.0988.1059.0542.0063-.0057-.0274-.1243.1065-.0523v-.009l-.1097-.056.028-.1198L8.5227 8.3l-.1084.0536-.0745-.095-.0083.002-.0274.1242-.118-.0013-.0038.0083.0759.1-.074.0957.0039.0076h.0242l-.0191.0358c-.1568-.0982-.2861-.2044-.4054-.3417-.0008-.0011-.001-.0027-.002-.0038a2 2 0 0 1-.0662-.0803c.0005.0006.0002.0019.0006.0025a2.4 2.4 0 0 1-.158-.232c-.107-.1782-.2432-.3324-.3863-.4443-.01-.0079-.0195-.0162-.0293-.0236.0025.0019.0042.0045.0063.0064-.1143-.0853-.232-.1439-.3435-.1632a1 1 0 0 0 .058-.0395c.005-.0034.0102-.0065.0153-.0102a1.6 1.6 0 0 0 .0714-.0567l.0554-.0465a3 3 0 0 1 .058-.0478c.0712-.0572.1365-.1013.213-.1403a3.4 3.4 0 0 0 .7406-.5093l.0006-.007c-.169-.1616-.243-.4634-.1804-.7304-.1272-.1604-.4394-.2243-.6814-.1588-.2307.171-.4215.389-.6023.6668-.1016.1561-.4137.7205-.4838.8203a1 1 0 0 1-.0331.0446c-.112.145-.115.4336.0503.5712q.011.009.0217.0184a.8.8 0 0 1 .0644.0657c.01.0113.0607.0702.0777.0892.035.0391.0699.0754.1116.1148.0654.0618.1456.128.244.2033v.005a.06.06 0 0 0 .0199.0103c.0587.0443.1235.0922.1963.1428.1033.0717.4246.2842.4334.29.145.0978.2271.1618.2722.2154.1455.1733.1987.2729.181.4035l-.0026.021c0 .001.0007.0022.0007.0032a1 1 0 0 0-.0045.1466m.009.155a.17.17 0 0 0 .012.0426m-.012-.0427c-.0007-.0046-.0021-.0092-.0026-.014l.0013-.002m.0012.016-.0012-.016m.0134.0587c.0051.0702.0063.1113.0019.1498m-.002-.1498c.0314.0735.1166.0976.3028.0823a.63.63 0 0 1-.0592.1249c-.0114.0182-.0243.034-.0364.049l-.2052-.1064m-.002-.1498c-.001-.0142-.0017-.0297-.0031-.0465.014.1002.0861.135.292.1198m-.287.0765-.0025-.0013-.007.0039a.09.09 0 0 0 .0038.037m.0058-.0396v.0109l-.002-.0007m-.0038.0293-.0159.0784v.002m.016-.0804c-.0236.0945.0008.1552.0548.162.0431.0052.0962-.0247.1466-.083-.1012.012-.1835-.0183-.2015-.079m-.016.0803c-.0117.0567-.0266.1258-.0312.1517v.0013c-.0129.0736-.0164.1267-.0102.1728.0167.1235.1715.17.2862.0344.13-.1541.1792-.275.2498-.5482.0655-.2533.111-.3675.2244-.5086.1445-.18.1704-.3051.0389-.4048l-.0663-.0414c-.0136-.0067-.0155-.0084-.037-.0191-.0106-.0054-.0188-.0093-.03-.0147-.0043-.0027-.0076-.0064-.0114-.0096a3 3 0 0 1-.1154-.0675.027.027 0 0 1-.0038.0159c-.005.0088-.014.0182-.0287.0325-.0019.0018-.002.0022-.0038.0038-.0253.0243-.0338.034-.0344.0415l-.007.0038c-.1524-.0856-.2864-.184-.4137-.3206.0653-.05.0916-.0916.0682-.1288-.0166-.019-.0341-.0377-.0504-.058.0024.0354-.029.0732-.0911.1167a2.2 2.2 0 0 1-.1874-.246 2.07 2.07 0 0 0-.2505-.3067c.0733-.0799.1054-.1425.0688-.1765a1.5 1.5 0 0 0-.0981-.0854m.5341 2.3615c.0038.053.0276.0866.0695.0918.0482.006.1073-.028.1612-.093v-.0013a.5.5 0 0 0 .0408-.0548c.0526-.0847.0782-.1647.116-.3315.0189-.083.0208-.0916.0294-.1255-.0518-.0308-.094-.0717-.1173-.1148.0104-.002.021-.0115.0306-.0216a.3.3 0 0 0 .023-.0275c.0029-.004.0095-.0147.014-.021m-.3672.6992c.0086-.0413.0153-.0759.0166-.0822l.0032-.0274m-.554-2.252c-.0002-.0006-.0009-.0012-.0012-.0018L7.1592 7.53l.0147.0122m0 0c.0084.0194.0084.0411-.0012.0657-.0087.0221-.0234.0454-.0446.072a.23.23 0 0 1-.0364.0364c-.143-.111-.2888-.1796-.4155-.1944l-.0479.0414m0 0c-.0035-.0004-.0072-.0016-.0108-.002l.0032.009zm0 0c.2588.028.576.2653.7879.575.2046.299.4274.4883.7005.638-.0115.0201-.0152.0385-.0185.0803l-.002.0217c-.0185.1707-.0949.2899-.1975.3416-.0727.0366-.1452.0294-.1734-.0121a.35.35 0 0 1-.0025.0593c-.001.0077-.0011.0154-.002.023-.0019.0575.161.0687.2799-.0173.0545-.0395.119-.1462.1466-.2333h.0089c.0327.0963.0335.151-.0032.239-.0291-.0163-.0574-.0445-.0777-.0739m0 0c.0015-.0022.0032-.0037.0038-.0045h-.0077c.001.0016.0027.003.0038.0045m-.3474.5896-.0051-.0025.007-.0039c-.0003.0022-.0016.0043-.002.0064m.2887-.0867.0153.0064.0025-.007c-.0059.0002-.0121.0002-.0178.0006m0 0-.292-.123m0 0-.0006-.0102m.0007.0102-.0083-.0032.0064-.005c.0002.0026.0015.0056.0019.0082m-.0007-.0102.311.13c.0169-.0491.032-.1079.0498-.186-.1913.0574-.3243.043-.3659-.0326m.0051.0886c-.0001-.002.0002-.0042 0-.0064-.0025-.03-.0035-.0574-.005-.0822m.005.0886-.0044-.002-.0051.0033m.0044-.0899-.0019-.037c.0157.0954.146.1222.3519.0631m-.35-.026a.11.11 0 0 1-.0114-.0351m.3614.0611.0166.0032c.0001-.0008.001-.0017.0012-.0025.0004-.002.0002-.004.0007-.0058zm0 0-.3525-.0675m0 0c-.0002-.0035.0001-.0069 0-.0102m0 .0102-.0077-.0013.0058-.0051c.0001.0022.0016.0043.0019.0064m0-.0102.3716.0714c.0173-.0764.0198-.0854.0306-.1129a.256.256 0 0 1-.1135-.1115c-.1076.0774-.2514.0786-.2862.0325a1 1 0 0 0-.0025.1205m0 0-.0058-.0007-.0038.0032m0 0-.0019.002c.0003.0041.002.0081.0026.012m-.0007-.014.0007.014m.007.125c-.0002-.0023.0002-.0047 0-.007-.0039-.0452-.0055-.0836-.007-.118m-.6712-1.6948c-.0745.1326-.1519.2533-.2212.3365-.065.078-.1205.1211-.1638.1237.0547.041.1137.0862.1804.1326.1033.0717.425.2844.4334.29.1458.0983.2289.1621.2747.2167.1138.1355.1715.2271.1836.3238.0104.0562.0894.0727.1708.0319.0996-.0501.1742-.166.1925-.3334l.002-.021v-.0013c.0034-.0431.0072-.0623.0216-.0771-.2725-.1434-.4969-.3332-.7024-.6336a1.65 1.65 0 0 0-.3716-.3888m0 0-.03.0306m.03-.0306c-.0024-.0018-.0059-.0052-.0083-.007m1.313.9555.0026.0095-.0083-.0019zm0 0L8.315 8.59l-.0103-.0006c.0152-.0392.0477-.078.0982-.1032l-.0026-.0096H8.399m-.058.2276.0765-.0931.1033.0484m-.325-.2664.1127-.002.0294-.1191m-.1422.1211L8.19 8.3855l-.0038.0082zm0 0 .0701.0988-.0682.093m0 0H8.188l.0038.0083zm0 0 .021.0007c.0391-.0674.0807-.0953.1804-.109m0 0c-.008.004-.0156.01-.0229.0147m.023-.0147.0025.0096c-.009.0012-.0175.0036-.0255.005m0 0c-.0777.014-.113.039-.1466.095l.0656.0026a.203.203 0 0 1 .081-.0975m.1447.1683-.0236-.1198.1014-.0542m-.0778.174.0083.0045-.0064.0057zm.0778-.174.0082.0051v-.009zm0 0-.1046-.0567.0236-.116m0 0 .009-.0038-.0064-.0051zm0 0-.102.0516-.0057-.0013-.072-.0911m0 0-.0058-.007.0083-.002zm-1.3316-.4857c-.0679.1176-.1364.2239-.1989.299-.073.0877-.1319.1292-.1727.1185l-.012-.009zm0 0 .0217-.0376m0 0-.4124.441c-.0978-.0746-.1779-.14-.2429-.2014a1.8 1.8 0 0 1-.1115-.1147c-.0172-.0193-.0682-.0785-.0778-.0892a.8.8 0 0 0-.0643-.0663q-.0105-.0098-.0217-.0191c-.1607-.1337-.1586-.4155-.0497-.5565a1 1 0 0 0 .0337-.0453c.0707-.1007.3825-.6646.4838-.8203.1803-.2769.3704-.4941.5986-.6635.2372-.064.5456-.0009.6692.1517-.0266.1102-.0283.227-.0102.3378-.1003.0888-.1581.1263-.297.2014l-.0268.0147c-.1375.0757-.231.1502-.3665.3098-.1675.1973-.42.424-.5628.5124l.042.051c.104-.0613.257-.191.3978-.3301h.002m.0165.8866c-.1386-.101-.2827-.1661-.4111-.1772l-.0026-.009.0593-.0497c.1322.014.2796.0831.4175.1957a1 1 0 0 0 .0293-.035c.0206-.026.0351-.0486.0434-.0695.0135-.0347.0088-.0621-.0185-.0842-.1162-.0865-.2356-.1448-.348-.1619l-.0007-.0044c-.001.0004-.0016.0014-.0025.0019l-.0491-.102c.0752-.045.2351-.172.3467-.2702-.0134-.0088-.0257-.0242-.0414-.0542l-.0172-.0325c-.0144-.0248-.024-.0307-.0357-.0191.0027-.0028.0077-.0089.014-.0153m0 0q.0147.0025.03.0286c.0026.0045.0049.0102.0083.0166.0016.0031.0046.0082.0089.0166.0171.0329.0289.0493.0427.0554l.0013.0083c-.1122.099-.2763.2286-.3512.2677l.0446.0937c.0487-.0289.0923-.0618.1523-.1122l.0555-.0465c.0226-.019.0403-.0342.058-.0484a1.2 1.2 0 0 1 .2148-.1409 3.4 3.4 0 0 0 .7343-.5048c-.0078-.0077-.0143-.0167-.0217-.0249-.01-.0111-.021-.0226-.03-.0331m-.9478.4238c.013-.0132.0301-.03.0344-.0344.0008-.0007.0012-.0005.002-.0012a2 2 0 0 0 .0682-.0727c.0113-.0124.0218-.0099.035.0076a.26.26 0 0 1 .021.0364c.0046.0089.0206.0424.023.0471.019.038.0336.0623.0504.0797a.9.9 0 0 1 .1204-.0841c.0198-.0118.1576-.088.1995-.1135.065-.0397.1184-.0786.1651-.1224l-.0006-.0082c-.0108-.0061-.023-.0322-.0383-.081a3 3 0 0 1-.0146-.0484c-.0156-.052-.0241-.078-.0344-.1001q-.013-.0273-.0268-.0344m.3435.1058.0013-.0007-.0013-.0019h-.0025zm0 0a1.8 1.8 0 0 0-.1166.0784c-.0216-.024-.0377-.059-.0548-.111-.0045-.0136-.0205-.0645-.0242-.0758-.0085-.0255-.0155-.0417-.023-.051-.0078-.0096-.0156-.0114-.0255-.0044a2 2 0 0 1-.0994.058m0 0-.0013-.0007c-.0132.0073-.0263.0167-.0414.0249l-.0268.0146c-.1364.0752-.2286.1494-.3633.308-.0165.0193-.0356.0375-.0536.0573q.0143 0 .0287.0191a.26.26 0 0 1 .0223.0376l.0236.0472c.0183.0368.0323.06.0415.0765.027-.028.0635-.0544.116-.0854.02-.0119.157-.0874.1988-.1129a1 1 0 0 0 .1606-.1192c-.0117-.0113-.024-.036-.0382-.081a3 3 0 0 1-.0147-.0484c-.0154-.0516-.0243-.0773-.0344-.0987-.0122-.026-.0227-.0354-.0325-.03.005-.0027.0098-.0062.0147-.009m.2084-.218c-.0981.0863-.1566.1246-.2938.1989-.0107.0057-.019.0103-.0268.0146-.1365.0752-.2292.1492-.364.3079-.168.198-.4213.425-.564.506l.037.0428c.1426-.0883.3957-.3151.5634-.5125.1354-.1594.2285-.234.3658-.3098l.0268-.0146c.129-.07.1807-.1035.2684-.1734-.003-.012-.0052-.0242-.0077-.0363-.0018-.0082-.0037-.0164-.005-.0236m0 0 .0007-.0013-.0013-.0064c.0004.0023.0001.0051.0006.0077m3.442-2.1863c.0132-.0097.025-.0173.0293-.0204a1 1 0 0 1 .0867-.0574.4.4 0 0 1 .072-.0338c.0244-.0084.1702-.057.2059-.07.0754-.0276.1246-.0519.1625-.083.1002-.0821.0588-.2577-.1185-.2957-.1927-.0413-.3201-.0254-.5769.0459l-.0178.0051c-.2263.0627-.3465.0787-.5144.0472-.0626-.0118-.1161-.0167-.1619-.0147-.007.0003-.0138.0013-.0204.002a.3.3 0 0 0-.0427.007q-.012.0032-.0229.0076c-.0064.0024-.0132.004-.0192.007q-.0062.0032-.0121.007l-.0083.0051a.16.16 0 0 0-.0337.0319c-.0013.0016-.0033.0027-.0045.0044-.0308.0415-.0435.1014-.0395.1817.0002.0062-.0004.0127 0 .0191q.0023.0449.0038.088c-.0089.0829-.1211.1198-.2231.0459l-.0064.007c.039.0538.0731.084.109.0988.0289.0117.051.0139.1097.0127.005 0 .0089-.0005.0121-.0006-.0025.1898-.0247.359-.0772.5341-.0014.003-.0032.0062-.0044.0096a2 2 0 0 1-.0325.1c.0005-.0015.0019-.003.0025-.0044a2.4 2.4 0 0 1-.1134.2626c-.0935.1862-.1519.3871-.1728.573-.0015.0132-.004.0262-.005.039.0003-.0048.0016-.0093.0025-.0135-.0138.1478-.0042.2852.0357.3971a1 1 0 0 0-.0644-.0344q-.015-.0073-.0312-.0146a2 2 0 0 0-.0874-.0383c-.174-.0705-.2334-.099-.3327-.1695a3.35 3.35 0 0 0-.7904-.4188l-.0063.0032c-.0488.2344-.261.4524-.5125.529-.0687.1958.0346.5118.2097.6992.0944.046.1914.083.292.1135.3098.094.5637.1148 1.067.116.2572.0007.3578.0045.4646.0223.1756.0293.4147-.1125.4456-.3314a.8.8 0 0 1 .0216-.104 6 6 0 0 1 .0319-.105 2 2 0 0 0 .0363-.1371c.0229-.1012.0405-.2216.0555-.3723l.0044-.0025a.07.07 0 0 0-.0012-.0236 7 7 0 0 0 .0191-.2492c.0065-.1114.0088-.1558.0172-.3933.0105-.296.0198-.4173.0465-.501.0542-.1687.1002-.265.1715-.3232a.28.28 0 0 1 .0516-.0331c.0084-.0041.0186-.0093.0319-.0153.0031-.0014.0035-.0019.0064-.0032.0008-.0004.0011-.0022.0019-.0026a.96.96 0 0 0 .123-.0688m.1243-.0873a.16.16 0 0 0 .0312-.0344m-.0312.0344-.0128.0095m.0128-.0095c-.0037.0032-.0067.0077-.0108.0108l-.002-.0013m.044-.044a1 1 0 0 1 .0803-.0522c.0143-.0082.0287-.0143.0421-.0204m-.1224.0727c.0413-.0649.0184-.1538-.0848-.3117a.6.6 0 0 1 .1314-.009.5.5 0 0 1 .0586.0077l.0172.2403m-.1224.0727q-.0038.0027-.0076.0057c-.0037.0026-.013.0082-.0236.016m.1536-.0944.0006.0032.0071.0045a.094.094 0 0 0 .035-.0262c-.005.0018-.0089.0036-.0115.0045l-.021.0089m-.0102.0051c.0013-.0006.0025-.002.0038-.0026m.0064-.0025c.0056-.0027.0101-.0067.0147-.0102a.1.1 0 0 1-.0211.0128m.0064-.0026-.0064.0025m.0064-.0025.0006.0076-.0076-.0038.0006-.0013m-.1574.097c.0664-.0623.0561-.145-.0555-.3181m.0555.318-.0108.0083m.0108-.0083c-.0034.0032-.0064.0072-.0102.0102m-.0453-.3282-.0019-.0147-.0063.0013zm0 0 .0447.3263m0 0q-.0042.0031-.0083.0064m.0083-.0064.0006.002m-.0089.0044-.0472-.3455c-.0127.0024-.0262.004-.0395.007-.0409.0095-.0607.0154-.1383.0396.1439.1462.1969.2753.1536.3505m.0714-.0516c-.0195.0143-.0397.0302-.0491.037-.0073.0052-.0153.0097-.0223.0146m.0714-.0516.0012.0057.0051.002m-.0777.044c-.0088.006-.0183.0108-.0268.0165m.0268-.0166a.1.1 0 0 1-.0211.0249m-.0057-.0083c.0683-.0627.0257-.1936-.1249-.35m.1249.35q-.0025.002-.0051.0038m.0051-.0038c-.0016.0015-.0027.0037-.0045.0051m-.1204-.355-.0051-.016c-.0025.0008-.0051.0011-.0077.002zm0 0 .1198.3537m0 0-.0083.0058m.0083-.0058.0006.0013m-.0089.0045-.1262-.373-.0268.0084c-.0349.0109-.0599.0184-.0815.0204a.274.274 0 0 1-.0357.1574c.1179.059.1909.1898.1702.2448l.0299-.0147a1.3 1.3 0 0 0 .0701-.0433m0 0 .0026.0063.0038.0013m0 0 .0038.0013c.0037-.0026.0058-.0073.0089-.0102m-.0127.009.0127-.009M9.3672 5.934c.0084.0025.0138.0046.0197.0064-.0112-.0036-.0144-.0104-.0108-.023.0031-.0106.007-.0178.0249-.0484.0037-.0064.0063-.0113.0089-.016.0117-.0214.0162-.038.0165-.0522.1364.0521.3216.135.3965.181l.06-.0962-.0026-.002.0025-.0019c-.0421-.1106-.0534-.2483-.0401-.397.0063-.0501.0434-.0657.1083-.0587a.5.5 0 0 1 .0504.0083l.0242.005c-.024.182-.0075.3508.0472.4781l.0701.0287.0064-.0064c-.0552-.1224-.0741-.2865-.06-.4634l.5712.1536c-.0152.1503-.0333.2703-.0561.371a2 2 0 0 1-.0357.137c-.0029.0094-.0262.0847-.0319.1052a.8.8 0 0 0-.0223.1046c-.0299.213-.2639.3517-.4347.3231-.1075-.018-.2083-.0216-.466-.0223-.5024-.0012-.7556-.0217-1.0644-.1154a2 2 0 0 1-.2888-.1121c-.1714-.184-.2732-.496-.209-.6846.104-.0309.2003-.0883.2823-.16q.0376.0144.0714.0293c.0902.0399.13.0642.2505.1454.1469.0988.2496.1455.459.1912.2465.0538.5595.17.7036.2556l.021-.0638c-.102-.0636-.2853-.1384-.4703-.197-.0005-.001-.0016-.002-.002-.0031m0 0q-.0044-.001-.0102-.0026c-.0161-.0047-.0165-.0052-.0332-.0102-.0017-.0004-.002 0-.0038-.0006a2 2 0 0 0-.095-.0268c-.0155-.0042-.0185-.0146-.0108-.035.006-.016.0063-.0158.0427-.0752a1 1 0 0 0 .021-.0364.25.25 0 0 0 .0236-.056.9.9 0 0 1-.1256-.065c-.0292-.018-.1378-.0895-.1395-.0906-.093-.0601-.165-.099-.2416-.1255l-.0058.005c.0004.0168-.0186.0419-.0796.1116-.002.0023-.0024.002-.0045.0045-.0332.0379-.0506.0596-.0631.0796q-.0147.0235-.0147.039m.74.2842a.034.034 0 0 1 0-.0198c.0035-.0118.007-.0187.0256-.0503l.0089-.016c.0127-.0232.0188-.0397.0172-.0529l.0064-.005c.1373.0522.326.1368.3958.1854l.0548-.0873c-.0534-.0331-.1028-.0563-.1918-.0924-.175-.071-.2351-.0997-.3353-.1708a3.6 3.6 0 0 0-.29-.1843 3.26 3.26 0 0 0-.494-.2326 1.5 1.5 0 0 1-.0217.0765m-.1989.2849c.008-.0074.0172-.0167.0255-.0249q.0087-.0084.0172-.0172a.13.13 0 0 0 .0306.0172c.0912.0401.1319.0644.253.146.1467.0987.2491.145.4584.1906.0593.013.1224.0295.1861.0484l.0025.0007.0039.0012.0089.0026c.1964.0594.3957.14.5023.2033l-.016.0548c-.138-.0892-.4523-.206-.6998-.26-.2082-.0454-.3099-.0917-.4558-.19-.1207-.0812-.161-.1052-.2517-.1453-.0207-.0091-.0424-.0187-.065-.0274m0 0-.0012-.0006-.0045.0038.0006.0032c.0019-.0017.003-.0045.0051-.0064m.1989-.285-.0013-.0006-.0006.002.0013.0031c.0004-.0013.0002-.003.0006-.0044m0 0c.041.0252.083.0472.123.0676a.2.2 0 0 1-.005.0153c-.012.03-.0327.06-.067.1007l-.0363.0428a.4.4 0 0 0-.028.0363c-.0133.0211-.0136.0332-.0007.0408.0175.01.0349.022.0554.035.0132.0084.028.0171.0427.0268m0 0c.0145.0096.031.0201.0485.0319.1458.0982.247.1445.455.19.0245.0053.0492.0126.0747.019-.0052-.0084-.0057-.02 0-.035.0064-.0171.0062-.0166.0433-.0771a1 1 0 0 0 .021-.0364c.011-.0202.0184-.0376.0255-.0471-.0355-.0103-.0742-.0296-.1236-.06-.0293-.018-.1391-.0904-.1402-.0911-.0904-.0585-.1606-.0961-.2346-.1224-.0033.0196-.0225.0455-.0803.1116l-.0045.005c-.0325.0373-.0497.0585-.0618.0778-.0145.0231-.0167.0373-.0077.0434zm1.5094.2836.0096.0039-.0058.0064c-.0014-.0033-.0024-.0069-.0038-.0103m0 0-.058-.0229c-.0511-.1228-.0678-.29-.0478-.4755-.0055-.0055-.0219-.009-.0274-.0102a.5.5 0 0 0-.0516-.009c-.0508-.0053-.0872.0036-.1058.0307.0002-.002.001-.0038.0012-.0058q.0075-.0591.021-.1249c.0099-.0503.0775-.0522.1798-.0255.0319-.1324.0738-.2622.1275-.3811a2.25 2.25 0 0 0 .1096-.2939c-.0661-.0343-.1134-.045-.1415-.0261.0082-.0238.0146-.0479.0217-.0714.0184-.0417.0658-.0387.1409-.0038.049-.1842.0636-.3558.058-.5367l-.007-.0045c-.0064.003-.0187.0001-.0498-.0102-.0012-.0004-.0018-.0002-.0032-.0006-.0209-.007-.0324-.0103-.0427-.0109a.027.027 0 0 0-.0165.0038 3 3 0 0 0-.0019-.1415c.0004-.004.0019-.0079.0019-.012-.0012-.0131-.0023-.0226-.0032-.0345V3.765c-.002-.0266-.0014-.0269-.0026-.0414-.0138-.2375.1021-.2954.3544-.248.1272.024.2272.0207.3653-.0089l.1708-.0427c.2554-.071.3815-.0869.5724-.0459.1694.0364.2084.201.1147.278-.037.0302-.0854.0543-.16.0815-.0207.0075-.078.0257-.1268.042.0399-.0296.0545-.0678.0382-.1077-.0192-.0466-.076-.0834-.1561-.1h-.002a.5.5 0 0 0-.0656-.009c-.0588-.0032-.1185.0035-.1861.0192-.0474.011-.0676.0168-.1791.0516a3 3 0 0 1-.0848.0255c.0004.0625-.0117.1217-.0357.1644-.0236-.0167-.0435-.0214-.0873-.0267l-.0045-.0007m-.6304 2.1373c-.1063-.2493-.0685-.6564.081-1.004.1443-.3356.189-.6331.1759-.956.0219.0003.039-.0055.0733-.0224l.0019-.0006c.0092-.0046.0138-.0072.0191-.0096.1501-.0684.2866-.0585.3806.009.0663.0477.0957.1168.0758.1631q.0015-.0013.0032-.0025c.0018-.0012.0039-.002.0057-.0032l.0606-.0306c.051-.0252-.0215-.1804-.153-.246-.0599-.0298-.1801-.035-.2658-.0166l-.0045-.0083c.0632-.078.1081-.106.1989-.1166.0011.0345-.0084.074-.0223.107m0 0-.0057-.0006.0038.007c.0009-.002.0011-.0044.0019-.0064m-.6374 1.6802c.1319.0029.255.0132.3487.0325.1153.024.1787.0596.1842.1059l-.0007.0057zm0 0c-.0131-.0003-.0263-.001-.0395-.0012l.0006-.009zM4.818 3.5316l-.026-.0126c-.0756-.0375-.1207-.0656-.158-.1007-.0211-.0198-.1298-.1239-.1575-.1492-.0516-.047-.0908-.0772-.1288-.0975a.3.3 0 0 0-.0242-.0115c-.118-.0501-.2421.0753-.1849.2556.0615.1932.1402.304.32.494.0066.007.0062.0077.0128.0147.1288.1361.2018.2256.255.334.0175.036.033.074.0477.1166q.0334.0975.0714.1593a.32.32 0 0 0 .039.051q.0021.0023.0044.0045c.0084.0086.0164.017.0255.0236a.156.156 0 0 0 .065.0274l.005.0006c.0537.008.115-.0114.1856-.063q.0385-.0266.0758-.051c.0715-.0263.1537.0567.144.1829l.009.0019c.036-.0907.0368-.1447.0095-.2033a.5.5 0 0 0-.0172-.0325l-.0165-.0294c.159-.0934.311-.1577.4831-.1976.0019-.0002.0038.0004.0058 0a2 2 0 0 1 .0988-.0204c-.0024.0004-.0048-.0002-.007 0a2.2 2.2 0 0 1 .276-.028 1.57 1.57 0 0 0 .4334-.0803h.0012c.0145-.0049.0284-.0103.0421-.0153a1.3 1.3 0 0 0 .0689-.0274c.0163-.007.0324-.0136.0478-.021-.0038.0018-.008.0019-.0115.0031.1283-.0615.2364-.1391.3085-.2313 0 .0147.0024.0295.0032.0446a.9.9 0 0 0 .0076.0981v.0013c.0034.0262.0046.0355.014.0988.023.1527.0297.2387.0217.3557a3.77 3.77 0 0 0 .0497.9287l.0058.0038c.2178-.073.5038.0103.6928.2008.1958-.0357.4042-.2872.471-.54-.0325-.3751-.1525-.7128-.369-1.1268-.0434-.083-.1842-.3403-.1931-.357-.0686-.1282-.1119-.219-.1415-.3002-.0638-.1741-.3-.3205-.496-.239a.7.7 0 0 1-.0777.0267 1 1 0 0 1-.0599.0153c-.1918.044-.3194.0834-.529.183l-.0032-.0013a.06.06 0 0 0-.016.0108 7 7 0 0 0-.218.1097l-.0312.0165c-.1013.0537-.4048.222-.4366.239-.1454.0784-.2366.1195-.3015.1333-.216.0456-.325.043-.4239-.0383l-.016-.012c-.0008-.0008-.0022-.0008-.0031-.0013a.9.9 0 0 0-.086-.06c-.0105-.0063-.0216-.0117-.0325-.0178m-.1352-.0695a.15.15 0 0 0-.0401-.0095m.0401.0095.016.0077m-.016-.0077c.0051.002.0107.0033.016.0057v.002m-.0561-.0172a.73.73 0 0 1-.1212-.074m.1212.074c-.0754-.0069-.1382.0584-.218.2339a.64.64 0 0 1-.0727-.116.5.5 0 0 1-.023-.0574l.1925-.1345m.1212.074c.0033.0017.0067.004.0102.0057.0038.0019.0136.0063.0255.0121-.0865-.0324-.151.0177-.239.2078m.0821-.2996.0013-.0006.0007-.0083a.08.08 0 0 0-.0338-.016m.0318.025L4.653 3.445m-.028-.0216-.0593-.0561-.0013-.0007m.0606.0568c-.0655-.067-.1278-.0759-.16-.0306-.026.0365-.0291.1003-.0064.1753.0404-.0977.1076-.1572.1664-.1447m-.0606-.0568c-.037-.0354-.0787-.0756-.0943-.0898-.051-.0466-.0897-.0764-.1269-.0963a.3.3 0 0 0-.0235-.0115c-.1103-.0467-.2262.0713-.1715.2435.0608.1913.138.3013.3168.4902l.0134.014c.1726.1824.2453.282.3047.4545.076.2214.1663.308.3142.2384l.067-.0395.0343-.025a1 1 0 0 0 .0268-.0197c.005-.003.0103-.005.0153-.007q.0567-.0374.1116-.0701a.03.03 0 0 1-.0115-.0127c-.0047-.0098-.0078-.0219-.0128-.0453l-.0012-.0057c-.0063-.0297-.0105-.0426-.016-.0466v-.0083c.1469-.0958.2954-.1685.4717-.216.0086.084.0295.1283.0714.1262.0237-.0055.0475-.012.072-.0166-.0293-.0164-.0444-.0642-.049-.1409a2 2 0 0 1 .297-.0478c.125-.0108.253-.0374.378-.0746.029.1065.0646.1672.1109.1511.042-.0141.0809-.03.1172-.0459m-2.2156-.6986c-.0439-.0209-.0825-.0145-.107.0198-.0366.0514-.0305.15.0216.2581.0395.0817.0924.1478.1855.2416.0095.0096.0763.0765.0963.0969q.0116.0118.0223.023c.0513-.0318.1063-.0501.1536-.0498-.0024.0251.0039.0491.016.079l.007.018m-.3953-.6866c.0278.0266.0538.0506.0631.0593.0064.006.0142.0103.021.016M6.78 4.065l.002-.0006q.01-.0044.0197-.009c-.0072.003-.0144.0065-.0217.0096m0 0c-.0344-.0045-.0607-.0388-.0828-.0975a1 1 0 0 1-.0108-.0312c-.0023-.007-.0093-.0288-.0064-.0338.163-.0745.2926-.1731.3684-.2811l-.0108-.0644m0 0c.002-.003.005-.0053.007-.0083l-.0083-.0019zm0 0c-.1525.2214-.5067.3911-.8682.429-.3489.0366-.6166.1447-.8764.318-.0108-.0202-.0237-.0323-.0561-.056l-.0179-.0134c-.1314-.1023-.1916-.2314-.1829-.3506.0063-.0842.0486-.1461.0969-.151a.3.3 0 0 1-.0242-.0154l-.0026-.0012-.0134-.0102-.007-.0051c-.0062-.0051-.0133-.0091-.0197-.014-.047-.027-.1358.1141-.1243.2638.0053.0694.0611.1815.1192.2499l-.0045.0083c-.096-.0184-.1415-.0449-.1957-.1224a.24.24 0 0 1 .0988-.0338m0 0 .0026.0057.0044-.007c-.0023.0002-.0046.001-.007.0013m-.311-.6113-.002.0013c.002.0013.0045.0023.0064.0038V3.445m-.0044-.0032.0044.0032m-.0044-.0032.0044-.0025v.0057m-.0784.3028.2467-.204m-.2467.204-.0076.016c-.0016-.002-.0036-.0038-.0051-.0058zm.2467-.204.0096.0051m-.0096-.005c.0027.001.0062.0012.009.0025l-.0013-.0083zm.0096.005-.2626.2167c.0278.0347.0609.0715.1026.1135l.0261.0261c.0486-.2043.128-.3182.2116-.3167m-.0777-.0396.0516.0255c.0091.0046.0177.0097.0261.014m-.0777-.0395.0044-.0032-.0013-.0063m.0746.049q.0163.0087.0313.0173c-.087-.0351-.1757.0696-.2301.2874m.1988-.3046a.1.1 0 0 1 .035.0076m-.2338.297.232-.2868m-.232.2868c-.0016.0064-.0029.0138-.0045.0204m.0045-.0204-.0115.0134.007.007m.2365-.3072.0089.005m-.009-.005c.002.0009.005.0009.007.002l-.0012-.0077zm.009.005-.2454.3022m.2454-.3021c.0103.0058.0208.0107.0306.0166.0237.0142.0449.031.0663.0465-.0553.0106-.1254.1412-.1154.2766-.0511-.0022-.1043.0156-.1485.0472-.0011-.0068-.0082-.0145-.016-.0223-.0116-.0119-.0394-.0395-.0624-.0625m.2454-.3021.0038-.0045-.0012-.0057m0 0v-.002c-.003-.0014-.0067-.0019-.0096-.0031m.0095.005-.0095-.005m1.7401.2333-.158-.5985c.2084-.0991.3355-.138.5264-.1817a1 1 0 0 0 .0606-.0153.7.7 0 0 0 .0784-.0268c.1905-.0792.4218.0639.4838.2333.0298.082.0733.1728.1421.3015.009.0167.1498.274.1931.357.2158.4128.3359.7494.3685 1.1211-.066.2477-.2726.4964-.4603.5323-.0776-.0794-.1735-.1388-.274-.1779-.0224-.1314-.024-.2111-.0173-.3582l.0013-.028c.0076-.1762-.0059-.2947-.072-.5048-.079-.2511-.1394-.5942-.1409-.7681l-.063.0127c-.0014.1244.0279.3273.072.524-.0007.0011-.0005.0028-.0013.0038m-.7394-.4264c.1533-.0757.2795-.1746.3531-.2862l.009.0025.0114.0784c-.0777.1134-.209.2128-.371.2818l.009.0274a1 1 0 0 0 .0108.0306c.0218.058.0464.0905.079.0924l.0306-.0076c.129-.0624.2366-.1412.3066-.2346l.0032.0013.0007-.0032.109.0063c-.0006.0905.0233.299.0484.45.0135-.0077.0323-.0107.0625-.0101.006 0 .0064.0004.012.0006.0277.0008.0388.0001.0485-.0026.0112-.003.0148-.0087.0121-.0204.001.0037.0025.0114.0045.0198m-.7394-.4264c-.0026.0013-.0063.0025-.009.0038m.009-.0038c-.0069-.013-.013-.0267-.0198-.0395m.7592.466a.026.026 0 0 1-.014.0101c-.011.003-.0222.0034-.051.0026-.0058-.0002-.0062 0-.0121 0-.0326-.0007-.0517.0017-.0631.0108l-.007-.0032c-.0256-.152-.0505-.365-.0453-.4525l-.0995-.0064a1.1 1.1 0 0 0 .0103.1542c.0033.0261.0052.0351.0146.0982.023.1535.0297.2403.0217.3582a3.76 3.76 0 0 0 .0484.9204c.0052-.0017.0107-.0023.016-.0038a1 1 0 0 1 .0573-.0147m.1237-1.074c.0047.0196.0116.046.0127.0504.0007.0026.0007.003.0013.0057a2 2 0 0 0 .0242.0943c.0041.0153-.0015.0232-.019.0268-.0151.003-.0312.0024-.0753 0l-.0287-.0013c-.0353-.0012-.0614.0004-.0822.0064.0104.0612.0118.1128.0064.2562-.0053.1409-.005.2135.007.299a1 1 0 0 0 .0076.0459l.0077.0032c.0133-.0087.044-.004.1287.0159l.0058.0013c.0494.0116.0757.0169.0988.0185.0188.0012.0323-.002.0408-.0077m-.2595.2594v.002l.0026-.0007.0019-.0019c-.0013.0003-.0031.0003-.0045.0006m0 0a2 2 0 0 0-.0057-.1447c.0266-.0067.0594-.0052.1007.002a1 1 0 0 1 .0472.0095c.0592.0133.0687.015.086.0153.0217.0004.031-.0057.03-.0217a2 2 0 0 1 .0012-.1198m0 0 .0013-.0013c.0005-.0114.0001-.0233.0007-.0357l.0012-.0286c.0075-.1749-.0057-.2923-.0714-.501-.0077-.0248-.0142-.0508-.0216-.0772q-.0064.012-.0255.016c-.016.0032-.0322.003-.0771.0006l-.0287-.0013c-.0342-.0011-.0589.0004-.0752 0 .014.0564.015.1082.0095.2524-.0053.1405-.005.213.007.2977a1 1 0 0 0 .0064.0389c.0178-.0069.05-.0011.1307.0178l.005.0013c.0491.0115.0752.0163.0976.0179.0272.0018.0404-.0032.0408-.0147zm.0759.299.0077.0025-.002.0013-.0057-.0026zm0 0c-.0085-.003-.0186-.006-.028-.009-.0096-.0031-.019-.0068-.0287-.0095-.0132-.1103-.0139-.182-.0077-.3168l.0013-.0287c.0076-.176-.006-.2948-.072-.5048-.079-.2512-.1394-.5943-.1409-.7681l.0536-.0121c-.0046.1704.0559.5143.135.7661.0658.209.079.3261.0715.501l-.0013.0287c-.0066.145-.0042.2248.0172.3532m-2.2366-.6865c.0002.009.0013.0184.0006.028l-.009-.0025c.0035-.0087.0056-.0175.0083-.0255m0 0c-.003-.1033-.0654-.1734-.13-.1702A3 3 0 0 1 5.37 4.45c.0003.0072.0098.0262.0127.0313.007.0126.0128.0224.0172.0318.0234.0504.0236.0964-.002.1696m1.2767-.8497a1.55 1.55 0 0 1-.5061.1434c-.3507.0368-.6196.1453-.874.3213-.005-.0205-.019-.0333-.0528-.058-.0086-.0063-.0126-.0092-.0172-.0128-.129-.1002-.1875-.226-.1791-.3416.006-.0834.0484-.1433.0937-.1434l.0197.0038c.0856.0367.1896.0304.3576-.0051.0661-.014.1579-.0557.304-.1345.0324-.0174.3357-.1862.4367-.2397l.0312-.016A8 8 0 0 1 6.488 3.25c-.0206.0402-.012.1133.0204.2129.034.1046.0942.2362.1664.3703m0 0-.0109-.0433m4.4905.2167c.0152-.0102.0322-.0195.0485-.0312.0096-.007.0306-.0231.0503-.0377m-.109.0657c-.0015.0013-.0027.0039-.0044.005l.007.002zm-1.1135-.1224c.0866.0479.1745.0246.2033-.0363.0013.0425.0011.0838.0007.1243-.002-.002-.0053-.0027-.0121-.0026-.0573.0011-.0787-.0005-.1058-.0114-.0288-.0118-.0553-.0357-.0861-.074m0 0c-.0057-.007-.0132-.0135-.0191-.0217l-.0064.007c.0082.006.0172.0101.0255.0147m1.2251.0446c-.002.0017-.0036.0042-.0057.0058l.007.0032zm-4.5919-.1357c-.0629-.1204-.116-.236-.1466-.3302-.0372-.1145-.0409-.191-.0076-.2205l.007-.0039zm4.785.012a.07.07 0 0 0 .0153-.0184M4.9436 3.596c-.0177-.0097-.036-.0202-.0567-.0306l-.053-.0261m3.0864 6.3542.0089.0045c.0015-.0017.0023-.004.0038-.0057zm.23-.8381a.65.65 0 0 1-.0707.1402c.0197.0295.049.0576.0714.0765.0279-.0793.0273-.1303-.0006-.2167m-.3499-.7369c.0049.0356-.0245.0724-.0796.109a1.82 1.82 0 0 0 .4073.3092c.0032-.009.0116-.0197.0344-.0415l.0044-.0044c.0141-.0137.0224-.0223.0268-.03.0039-.0068.0037-.0111-.0006-.0185-.1511-.094-.277-.1951-.3927-.3238m.5017.2767c-.0153.0447-.0065.0885.0255.1147l.005.0025-.0229-.1166zm-.0803.0031c-.004.0074-.0186.031-.0243.0351q.05.0313.104.0618c-.0175-.028-.0203-.0637-.0084-.1h-.0694zm-.9275-.9516c.0115.04-.0222.0946-.0847.1568.0935.0885.1799.1925.2517.3015.0595.0902.1219.1716.1804.2441.0674-.0516.0961-.0929.0752-.1294a2.4 2.4 0 0 1-.1631-.239 1.72 1.72 0 0 0-.2595-.334m.438-1.385a.03.03 0 0 1 .0152.0107c.0085.0106.016.0275.0249.0542l.0242.0759c.0168.0507.0325.0848.0465.107a.8.8 0 0 1 .111-.0796c-.0523-.0706-.0913-.1562-.1154-.2486a1.2 1.2 0 0 1-.1065.0803m3.1302-2.3037c-.0911-.0653-.2239-.0752-.371-.0083-.0051.0024-.0099.005-.0191.0096l-.0019.0007c-.0355.0174-.0536.0241-.0727.0184.0181.319-.0265.6179-.1714.9549a1.76 1.76 0 0 0-.1351.5316c.1467.0014.2854.013.3888.0344.0985.0204.1623.0497.1848.0886a7 7 0 0 0 .0179-.2327c.0064-.1113.0081-.1556.0165-.3933.0106-.2972.02-.4185.0472-.5035.06-.1868.1103-.287.1963-.3442l-.0223.0166c.0431-.037.0173-.1186-.058-.1728m-2.324 1.3348c-.032.083-.083.161-.1472.2294a1.3 1.3 0 0 1 .1198.0568q-.003-.0152.0109-.0376a.4.4 0 0 1 .0286-.0377l.0364-.0427c.0335-.0397.0535-.0688.065-.0975.002-.0048.0042-.0095.0083-.0083a.8.8 0 0 1-.1218-.0624m-1.239-.104a.9.9 0 0 1 .0095.1403c.0843-.0122.1743-.004.2626.0204a1.3 1.3 0 0 1-.0128-.1364q-.0099.0091-.0312.009c-.0183-.0005-.0275-.0025-.088-.016a1 1 0 0 0-.0471-.0096.47.47 0 0 0-.093-.0076m2.9785-.5704c-.0744-.0346-.1223-.0408-.1428-.0064a2.4 2.4 0 0 1-.1166.2703c-.0653.13-.114.2674-.1447.4015l.0045-.0044c.0299-.0242.0895-.019.1663.005a1.8 1.8 0 0 1 .1224-.3798 3.3 3.3 0 0 0 .1109-.2862m-.0172-.6572c-.0085-.0003-.0125.0015-.0166.0096-.002.1842-.0226.3489-.0707.5182.0271-.0216.0724-.0125.13.0191.0419-.1784.0563-.3479.051-.5265-.0091.0014-.0222-.0002-.0504-.0095zm-4.4816.1575c-.1679.051-.3147.1226-.4596.2167.0056.0075.0104.0202.016.0465l.0013.0057a.2.2 0 0 0 .012.0428c.004.0081.008.0103.0166.0102.153-.0903.2992-.1542.4628-.195-.031-.014-.0463-.0589-.049-.127m.7694-.153a1.6 1.6 0 0 1-.3742.079 2.9 2.9 0 0 0-.292.0415c.0089.087.029.1339.0696.1332a2.2 2.2 0 0 1 .2785-.0287c.1402-.0057.278-.03.4041-.0695-.0381-.0107-.0663-.0685-.086-.1555m-1.584.0956c-.0337.0032-.071.016-.0975.0268.0511.0647.0932.0899.1778.1077a.65.65 0 0 1-.0803-.1345m5.8202-.3672c-.0792.0143-.1217.0397-.1792.1084a.58.58 0 0 1 .1511-.0064.42.42 0 0 0 .0281-.102m.6348-.1109c.0677.084.0856.1701.0433.218.0821-.0268.1175-.0752.0969-.1255-.0171-.0416-.0677-.0757-.1402-.0924m-.0064.0077v-.0083l-.007-.0013c.0026.003.0046.0065.007.0096M4.4604 3.573c.0007.0023.0025.0042.0032.0064l.0051-.012z"/></g></g><defs><clipPath id="a"><path fill="#fff" d="M0 0h16v12H0z"/></clipPath></defs></svg>