<svg width="48" height="48" viewBox="0 0 48 48" fill="none" xmlns="http://www.w3.org/2000/svg">
<path fill-rule="evenodd" clip-rule="evenodd" d="M45 46V32H46V30H37V8H38V6H35V2H25V0H23V2H13V6H10V8H11V30H2V32H3V46H1V48H47V46H45ZM43 32V40H37V32H43ZM27 42V46H21V42H27ZM13 40V12H35V40H13ZM15 4H33V6H15V4ZM35 8V10H13V8H35ZM11 32V40H5V32H11ZM5 46V42H11V46H5ZM13 42H19V46H13V42ZM29 46V42H35V46H29ZM37 46V42H43V46H37ZM17 16H19V20H17V16ZM23 16H25V20H23V16ZM31 16V20H29V16H31ZM29 24H31V28H29V24ZM23 24H25V28H23V24ZM17 24H19V28H17V24ZM17 32H19V36H17V32ZM23 32H25V36H23V32ZM29 32H31V36H29V32Z"  fill="currentColor"/>
</svg>
