<svg width="48" height="48" viewBox="0 0 48 48" fill="none" xmlns="http://www.w3.org/2000/svg">
<path fill-rule="evenodd" clip-rule="evenodd" d="M45 8C45 6.89543 44.1046 6 43 6H33V3C33 1.34315 31.6569 0 30 0H19C17.3431 0 16 1.34315 16 3V6H6C4.89543 6 4 6.89543 4 8V14H7.06L9.06 48H39.94L41.94 14H45V8ZM18 3C18 2.44772 18.4477 2 19 2H30C30.5523 2 31 2.44772 31 3V6H18V3ZM38.06 46H10.94L9.06 14H39.94L38.06 46ZM43 12H6V8H43V12ZM18 40.5H16V19.5H18V40.5ZM26 40.5H24V19.5H26V40.5ZM33 40.5H31V19.5H33V40.5Z"  fill="currentColor"/>
</svg>
