<svg width="48" height="48" viewBox="0 0 48 48" fill="none" xmlns="http://www.w3.org/2000/svg">
<path fill-rule="evenodd" clip-rule="evenodd" d="M10 11C8.897 11 8 10.103 8 9C8 7.897 8.897 7 10 7C11.103 7 12 7.897 12 9C12 10.103 11.103 11 10 11ZM10 5C7.794 5 6 6.794 6 9C6 11.206 7.794 13 10 13C12.206 13 14 11.206 14 9C14 6.794 12.206 5 10 5ZM3 29.336V36H13V38H1V0H33V8H31V2H3V26.021L8.917 18.203L13.729 23.314L12.271 24.686L9.083 21.297L3 29.336ZM22 40H40V38H22V40ZM22 36H40V34H22V36ZM22 32H40V30H22V32ZM22 28H40V26H22V28ZM28 24H34V22H28V24ZM17 46V12H39V18H45V46H17ZM41 13.414L43.586 16H41V13.414ZM40.414 10H15V48H47V16.586L40.414 10Z"  fill="currentColor"/>
</svg>
