<svg width="48" height="48" viewBox="0 0 48 48" fill="none" xmlns="http://www.w3.org/2000/svg">
<path fill-rule="evenodd" clip-rule="evenodd" d="M20 13H18V26H15V32H18V36H20V32H23V26H20V13ZM21 30H17V28H21V30ZM30 36H32V23H35V17H32V13H30V17H27V23H30V36ZM29 19H33V21H29V19ZM24.5 0L6 10.35V28.77C6 41.59 23.43 47.64 24.18 47.89L24.5 48L24.82 47.89C25.56 47.64 43 41.65 43 28.77V10.35L24.5 0ZM41 28.77C41 39.32 26.82 45 24.5 45.88C22.18 45 8 39.29 8 28.77V11.52L24.5 2.29L41 11.52V28.77Z"  fill="currentColor"/>
</svg>
