<svg width="48" height="48" viewBox="0 0 48 48" fill="none" xmlns="http://www.w3.org/2000/svg">
<path fill-rule="evenodd" clip-rule="evenodd" d="M44 16V1H4V16H5V17H4V32H5V33H4V48H44V33H43V32H44V17H43V16H44ZM6 3H42V14H6V3ZM42 19V30H6V19H42ZM42 46H6V35H42V46ZM41 33H7V32H41V33ZM41 17H7V16H41V17ZM38 5H40V7H38V5ZM35 5H37V7H35V5ZM32 5H34V7H32V5ZM29 5H31V7H29V5ZM8 5H21V7H8V5ZM40 23H38V21H40V23ZM37 23H35V21H37V23ZM34 23H32V21H34V23ZM31 23H29V21H31V23ZM21 23H8V21H21V23ZM40 39H38V37H40V39ZM37 39H35V37H37V39ZM34 39H32V37H34V39ZM31 39H29V37H31V39ZM21 39H8V37H21V39Z"  fill="currentColor"/>
</svg>
