<svg
  width="48"
  height="48"
  viewBox="0 0 48 48"
  fill="currentColor"
>
  <g>
    <path
      fill-rule="evenodd"
      clip-rule="evenodd"
      d="M5 10.5595C5 9.71996 5.45178 8.95245 6.16699 8.57698L21.1677 0.702024C22.9507 -0.234008 25.0493 -0.234008 26.8324 0.702025L41.833 8.57698C42.5482 8.95245 43 9.71996 43 10.5595V23.8589C43 35.573 34.3201 44.1383 26.1019 47.5763C24.7515 48.1412 23.2485 48.1412 21.8981 47.5763C13.6799 44.1383 5 35.573 5 23.8589V10.5595ZM7 10.5595C7 10.4986 7.01645 10.4468 7.03886 10.4088C7.06112 10.371 7.08421 10.3543 7.09663 10.3478L22.0973 2.47284C22.6043 2.20664 23.1475 2.05284 23.6964 2.01144L18.0936 22.9213C18.0859 22.9498 18.0779 22.9781 18.0699 23.0063C18.0348 23.13 18 23.2526 18 23.3873C18 23.9396 18.4477 24.3873 19 24.3873H28.6965L23.0019 45.6399C22.9839 45.7069 22.9732 45.7742 22.9693 45.8408C22.8685 45.809 22.7686 45.7725 22.6699 45.7312C14.9362 42.4959 7 34.5183 7 23.8589V10.5595ZM25.0175 45.845C25.1228 45.8122 25.2271 45.7743 25.3301 45.7312C33.0638 42.4959 41 34.5183 41 23.8589V10.5595C41 10.4986 40.9835 10.4468 40.9611 10.4088C40.9389 10.371 40.9158 10.3543 40.9034 10.3478L25.9027 2.47284C25.827 2.43308 25.7505 2.39584 25.6732 2.3611L20.3072 22.3873H30C30.5523 22.3873 31 22.835 31 23.3873C31 23.5207 30.9669 23.6429 30.9335 23.7664C30.9303 23.7783 30.9271 23.7901 30.9239 23.802L25.0175 45.845Z"
    />
  </g>
</svg>
