<svg width="48" height="48" viewBox="0 0 48 48" fill="none" xmlns="http://www.w3.org/2000/svg">
<path fill-rule="evenodd" clip-rule="evenodd" d="M5 0V48H43V0H5ZM15 6V2H16V6H15ZM18 2H19V6H18V2ZM21 2H22V6H21V2ZM24 2H25V6H24V2ZM27 2H28V6H27V2ZM30 2H31V6H30V2ZM13 2V6H12V2H13ZM41 46H7V2H10V8H33V2H41V46ZM38 43V10H10V43H38ZM12 12H36V41H12V12ZM33 29H31V28H29V29H27V28H25V29H23V28H21V29H19V28H17V29H15V31H14V33H15V34H14V36H15V38H17V39H19V38H21V39H23V38H25V39H27V38H29V39H31V38H33V36H34V34H33V33H34V31H33V29ZM31 36H17V31H31V36ZM33 15H31V14H29V15H27V14H25V15H23V14H21V15H19V14H17V15H15V17H14V19H15V20H14V22H15V24H17V25H19V24H21V25H23V24H25V25H27V24H29V25H31V24H33V22H34V20H33V19H34V17H33V15ZM31 22H17V17H31V22ZM8 8H10V10H8V8ZM8 43H10V45H8V43ZM38 45V43H40V45H38ZM40 10H38V8H40V10Z"  fill="currentColor"/>
</svg>
