<svg width="16" height="16" viewBox="0 0 16 16" fill="none" xmlns="http://www.w3.org/2000/svg">
<path fill-rule="evenodd" clip-rule="evenodd" d="M12.9387 1C12.4977 1.00471 12.074 1.17208 11.7487 1.47L7.56874 5H2.93874C1.46399 5.03023 0.230018 6.12807 0.0283852 7.58929C-0.173248 9.0505 0.717287 10.4415 2.12874 10.87L3.12874 15H6.67874L5.67874 11H7.53874L11.6887 14.51C12.0272 14.8275 12.4747 15.003 12.9387 15C15.0087 15 15.9387 11.48 15.9387 8C15.9387 4.52 15.0087 1 12.9387 1ZM2.93874 7H3.93874V9H2.93874C2.38646 9 1.93874 8.55228 1.93874 8C1.93874 7.44772 2.38646 7 2.93874 7ZM5.93874 9V7H8.30874L10.1087 5.47C9.88206 7.14905 9.88206 8.85095 10.1087 10.53L8.30874 9H5.93874ZM12.9387 12.91C12.4472 12.0451 12.1535 11.082 12.0787 10.09C13.2092 8.92595 13.2092 7.07405 12.0787 5.91C12.1535 4.91799 12.4472 3.95488 12.9387 3.09C13.3087 3.56 13.9387 5.24 13.9387 8C13.9387 10.76 13.3087 12.44 12.9387 12.91Z" fill="currentColor"/>
</svg>
