<svg width="16" height="16" viewBox="0 0 16 16" fill="none" xmlns="http://www.w3.org/2000/svg">
<path fill-rule="evenodd" clip-rule="evenodd" d="M15.2 11.5659L13 8.63586V5.96586C12.9963 3.93762 11.7678 2.11253 9.89001 1.34586C9.6112 0.540305 8.85245 0 8.00001 0C7.14757 0 6.38882 0.540305 6.11001 1.34586C4.23225 2.11253 3.00367 3.93762 3.00001 5.96586V8.63586L0.800009 11.5659C0.459114 12.0204 0.40428 12.6285 0.658368 13.1367C0.912456 13.6449 1.43185 13.9659 2.00001 13.9659H5.18001C5.61063 15.1523 6.73782 15.9423 8.00001 15.9423C9.26219 15.9423 10.3894 15.1523 10.82 13.9659H14C14.5682 13.9659 15.0876 13.6449 15.3416 13.1367C15.5957 12.6285 15.5409 12.0204 15.2 11.5659ZM3.00001 11.9659L5.00001 9.29586V5.96586C5.00001 4.30901 6.34315 2.96586 8.00001 2.96586C9.65686 2.96586 11 4.30901 11 5.96586V9.29586L13 11.9659H3.00001Z" fill="currentColor"/>
</svg>
