<svg width="16" height="16" viewBox="0 0 16 16" fill="none" xmlns="http://www.w3.org/2000/svg">
<path fill-rule="evenodd" clip-rule="evenodd" d="M7.82929 4H16V5.99999H7.82929C7.41746 7.16518 6.30622 7.99999 5 7.99999C3.69378 7.99999 2.58254 7.16518 2.17071 5.99999H0V4H2.17071C2.58254 2.83481 3.69378 2 5 2C6.30622 2 7.41746 2.83481 7.82929 4ZM5 5.99999C5.55228 5.99999 6 5.55228 6 4.99999C6 4.44771 5.55228 4 5 4C4.44772 4 4 4.44771 4 4.99999C4 5.55228 4.44772 5.99999 5 5.99999ZM8.17071 9.99998C8.58254 8.83479 9.69378 7.99999 11 7.99999C12.3062 7.99999 13.4175 8.83479 13.8293 9.99998H16V12H13.8293C13.4175 13.1652 12.3062 14 11 14C9.69378 14 8.58254 13.1652 8.17071 12H0V9.99998H8.17071ZM11 12C11.5523 12 12 11.5523 12 11C12 10.4477 11.5523 9.99998 11 9.99998C10.4477 9.99998 10 10.4477 10 11C10 11.5523 10.4477 12 11 12Z" fill="currentColor"/>
</svg>
