<svg width="16" height="16" viewBox="0 0 16 16" fill="none" xmlns="http://www.w3.org/2000/svg">
<path fill-rule="evenodd" clip-rule="evenodd" d="M15.957 11.457L14.414 13L15.957 14.5429L14.543 15.9569L13 14.4139L11.457 15.9569L10.043 14.5429L11.586 13L10.043 11.457L11.457 10.043L13 11.586L14.543 10.043L15.957 11.457ZM9 2.45299C9.85 3.21799 10.589 4.89098 10.771 6.99997H9V2.45299ZM13.91 6.99997H12.779C12.687 5.73598 12.428 4.57098 12.033 3.56999C13.004 4.45498 13.682 5.64998 13.91 6.99997ZM7 6.99997H5.228C5.411 4.89098 6.15 3.21799 7 2.45299V6.99997ZM7 13.5469C6.15 12.782 5.411 11.109 5.228 8.99997H7V13.5469ZM3.221 6.99997H2.09C2.318 5.64998 2.996 4.45498 3.967 3.56999C3.572 4.57098 3.312 5.73598 3.221 6.99997ZM2.09 8.99997H3.221C3.312 10.264 3.572 11.429 3.967 12.43C2.996 11.545 2.318 10.35 2.09 8.99997ZM15.931 8.99997C15.972 8.67197 16 8.33997 16 7.99997C16 3.58899 12.411 0 8 0C3.589 0 0 3.58899 0 7.99997C0 12.411 3.589 15.9999 8 15.9999C8.34 15.9999 8.672 15.9719 9 15.9309V8.99997H15.931Z" fill="currentColor"/>
</svg>
