<svg width="16" height="16" viewBox="0 0 16 16" fill="none" xmlns="http://www.w3.org/2000/svg">
<path fill-rule="evenodd" clip-rule="evenodd" d="M11.5354 9.46447L10.1212 10.8787C9.57828 10.3358 8.82828 10 7.99985 10C7.17143 10 6.42143 10.3358 5.87853 10.8787L4.46432 9.46447C5.36914 8.55964 6.61914 8 7.99985 8C9.38057 8 10.6306 8.55964 11.5354 9.46447ZM13.6567 7.34315L12.2425 8.75736C11.1567 7.67157 9.65671 7 7.99985 7C6.343 7 4.843 7.67157 3.75721 8.75736L2.343 7.34315C3.79072 5.89543 5.79072 5 7.99985 5C10.209 5 12.209 5.89543 13.6567 7.34315ZM15.778 5.22183L14.3638 6.63604C12.7351 5.00736 10.4851 4 7.99985 4C5.51457 4 3.26457 5.00736 1.63589 6.63604L0.22168 5.22183C2.21229 3.23122 4.96229 2 7.99985 2C11.0374 2 13.7874 3.23122 15.778 5.22183ZM7.99985 14.5C7.17143 14.5 6.49985 13.8284 6.49985 13C6.49985 12.1716 7.17143 11.5 7.99985 11.5C8.82828 11.5 9.49985 12.1716 9.49985 13C9.49985 13.8284 8.82828 14.5 7.99985 14.5Z" fill="currentColor"/>
</svg>
