<svg width="16" height="16" viewBox="0 0 16 16" fill="none" xmlns="http://www.w3.org/2000/svg">
<path fill-rule="evenodd" clip-rule="evenodd" d="M8 0C3.58172 0 0 3.58171 0 7.99998C0 12.4183 3.58172 16 8 16C12.4183 16 16 12.4183 16 7.99998C16 3.58171 12.4183 0 8 0ZM13.91 8.99998C13.8493 9.33954 13.7624 9.67387 13.65 9.99998H9.65L10.92 7.44999L9.14 6.54999L7.38 9.99998H2.38C2.26761 9.67387 2.18068 9.33954 2.12 8.99998H3.5V6.99999H2.09C2.23398 6.11211 2.57574 5.26796 3.09 4.52999L4.09 5.52999L5.51 4.10999L4.51 3.10999C5.24797 2.59573 6.09212 2.25397 6.98 2.11V3.49999H8.98V2.09C9.86788 2.23397 10.712 2.57573 11.45 3.08999L10.45 4.08999L11.87 5.50999L12.87 4.50999C13.3843 5.24796 13.726 6.09211 13.87 6.97999H12.5V8.97998L13.91 8.99998ZM8 14C6.29686 13.9965 4.67543 13.2694 3.54 12H12.46C11.3246 13.2694 9.70314 13.9965 8 14Z" fill="currentColor"/>
</svg>
