<svg width="16" height="17" viewBox="0 0 16 17" fill="none" xmlns="http://www.w3.org/2000/svg">
<path fill-rule="evenodd" clip-rule="evenodd" d="M6.52594 14.2483L15.4289 5.34538C16.1904 4.58385 16.1904 3.34869 15.4289 2.58717L13.4117 0.57099C12.6504 -0.190359 11.4162 -0.190359 10.6547 0.571165L1.75075 9.47406L0.0560933 14.558C-0.220247 15.4214 0.589139 16.2308 1.44484 15.9417L6.52594 14.2483ZM4.37679 9.67659L9.34552 4.70843L11.2915 6.65437L6.32296 11.6229L5.73905 10.2598L4.37679 9.67659ZM3.22989 11.3612L2.52582 13.4733L4.63828 12.7693L4.2159 11.7833L3.22989 11.3612ZM12.0333 2.02097L10.7598 3.2943L12.7057 5.24016L13.9796 3.96628L12.0333 2.02097Z" fill="currentColor"/>
</svg>
