<svg width="16" height="16" viewBox="0 0 16 16" fill="none" xmlns="http://www.w3.org/2000/svg">
<path fill-rule="evenodd" clip-rule="evenodd" d="M9 6C9 5.447 9.447 5 10 5C10.553 5 11 5.447 11 6C11 6.553 10.553 7 10 7C9.447 7 9 6.553 9 6ZM5 6C5 5.447 5.447 5 6 5C6.553 5 7 5.447 7 6C7 6.553 6.553 7 6 7C5.447 7 5 6.553 5 6ZM11.5 11.994L9.5 12.006C9.497 11.529 8.881 11 8 11H7.992C7.496 11.002 7.029 11.174 6.745 11.461C6.633 11.575 6.498 11.76 6.5 11.994L4.5 12.006C4.495 11.288 4.788 10.595 5.324 10.054C5.984 9.388 6.954 9.004 7.984 9H7.999C9.921 9 11.49 10.341 11.5 11.994ZM8 14C4.691 14 2 11.309 2 8C2 4.691 4.691 2 8 2C11.309 2 14 4.691 14 8C14 11.309 11.309 14 8 14ZM8 0C3.589 0 0 3.589 0 8C0 12.411 3.589 16 8 16C12.411 16 16 12.411 16 8C16 3.589 12.411 0 8 0Z" fill="currentColor"/>
</svg>
