<svg width="16" height="16" viewBox="0 0 16 16" fill="none" xmlns="http://www.w3.org/2000/svg">
<path fill-rule="evenodd" clip-rule="evenodd" d="M9 4.99999C10.4723 5.00547 11.6645 6.19767 11.67 7.66999C11.6513 8.57431 11.2386 9.42537 10.54 9.99998C10.14 10.4 10 10.56 10 11H8C8.00421 10.081 8.41861 9.21183 9.13 8.62998C9.53 8.21999 9.67 8.06998 9.67 7.62999C9.67 7.25996 9.37003 6.95999 9 6.95999C8.62997 6.95999 8.33 7.25996 8.33 7.62999H6.33C6.35717 6.17331 7.54308 5.00517 9 4.99999ZM8 13H10V12H8V13ZM15 0V16H2V3.58999L5.59 0H15ZM13 2H7V4.99999H4V14H13V2Z" fill="currentColor"/>
</svg>
