<svg width="16" height="16" viewBox="0 0 16 16" fill="none" xmlns="http://www.w3.org/2000/svg">
<path d="M2.2002 1H8.3202C9.81353 1 10.9602 1.33333 11.7602 2C12.5735 2.66667 12.9802 3.55333 12.9802 4.66C12.9802 5.86 12.4869 6.7 11.5002 7.18V7.58C12.3002 7.80667 12.9135 8.2 13.3402 8.76C13.7802 9.32 14.0002 10.02 14.0002 10.86C14.0002 11.62 13.8269 12.3133 13.4802 12.94C13.1335 13.5667 12.5935 14.0667 11.8602 14.44C11.1402 14.8133 10.2269 15 9.1202 15H2.2002V1ZM8.2402 6.44C8.77353 6.44 9.1802 6.32667 9.4602 6.1C9.7402 5.86 9.8802 5.52667 9.8802 5.1C9.8802 4.67333 9.7402 4.35333 9.4602 4.14C9.1802 3.91333 8.77353 3.8 8.2402 3.8H5.2802V6.44H8.2402ZM9.0802 12.2C9.61353 12.2 10.0469 12.08 10.3802 11.84C10.7135 11.5867 10.8802 11.2133 10.8802 10.72C10.8802 10.2267 10.7135 9.86 10.3802 9.62C10.0469 9.36667 9.61353 9.24 9.0802 9.24H5.2802V12.2H9.0802Z" fill="currentColor"/>
</svg>
