<svg width="16" height="16" viewBox="0 0 16 16" fill="none" xmlns="http://www.w3.org/2000/svg">
<path d="M8.103 13.204C7.16233 13.204 6.30667 13.0227 5.536 12.66C4.77667 12.286 4.16467 11.7307 3.7 10.994C3.24667 10.246 3.02 9.328 3.02 8.24V1.1H5.672V8.24C5.672 9.07867 5.91567 9.69633 6.403 10.093C6.90167 10.4897 7.46833 10.688 8.103 10.688C8.73767 10.688 9.29867 10.4897 9.786 10.093C10.2847 9.69633 10.534 9.07867 10.534 8.24V1.1H13.186V8.24C13.186 9.328 12.9537 10.246 12.489 10.994C12.0357 11.7307 11.4237 12.286 10.653 12.66C9.89367 13.0227 9.04367 13.204 8.103 13.204Z" fill="currentColor"/>
<path d="M2 14.7H14.206V15.55H2V14.7Z" fill="currentColor"/>
</svg>
