<svg width="16" height="16" viewBox="0 0 16 16" fill="none" xmlns="http://www.w3.org/2000/svg">
<path fill-rule="evenodd" clip-rule="evenodd" d="M10 14H16V16H10V14ZM12 6C12 3.49381 10.3195 2 8 2C5.68053 2 4 3.49381 4 6C4 7.72319 5.30209 10.1326 8 13.1048C10.6979 10.1326 12 7.72319 12 6ZM8 16C4 12 2 8.66667 2 6C2 2 5 0 8 0C11 0 14 2 14 6C14 8.66667 12 12 8 16ZM8 8C6.89543 8 6 7.10457 6 6C6 4.89543 6.89543 4 8 4C9.10457 4 10 4.89543 10 6C10 7.10457 9.10457 8 8 8ZM0 14H6V16H0V14Z" fill="currentColor"/>
</svg>
