<svg width="16" height="16" viewBox="0 0 16 16" fill="none" xmlns="http://www.w3.org/2000/svg">
<path fill-rule="evenodd" clip-rule="evenodd" d="M6.96552 12.3214L8.37552 13.7314L7.37552 14.7314C6.28407 15.8229 4.69326 16.2491 3.20231 15.8496C1.71137 15.4501 0.54681 14.2856 0.147313 12.7946C-0.252184 11.3037 0.174074 9.71288 1.26552 8.62144L3.90552 6.00145C5.59493 4.31949 8.32611 4.31949 10.0155 6.00145L10.3455 6.34145L8.96552 7.70144L8.62552 7.37144C8.1935 6.93479 7.60477 6.68909 6.99052 6.68909C6.37627 6.68909 5.78754 6.93479 5.35552 7.37144L2.67552 10.0514C1.77254 10.9599 1.77701 12.4284 2.68552 13.3314C3.59403 14.2344 5.06254 14.2299 5.96552 13.3214L6.96552 12.3214ZM14.7455 1.26147C13.0561 -0.420488 10.3249 -0.420488 8.63552 1.26147L7.63552 2.26146L8.96552 3.68146L9.96552 2.68146C10.5586 2.0884 11.423 1.85679 12.2331 2.07386C13.0433 2.29093 13.676 2.92372 13.8931 3.73385C14.1102 4.54399 13.8786 5.40839 13.2855 6.00145L10.6055 8.68144C10.1735 9.11809 9.58477 9.36379 8.97052 9.36379C8.35627 9.36379 7.76754 9.11809 7.33552 8.68144L6.96552 8.30144L5.55552 9.71143L5.88552 10.0514C7.57493 11.7334 10.3061 11.7334 11.9955 10.0514L14.6755 7.37144C16.3658 5.69031 16.3792 2.95911 14.7055 1.26147H14.7455Z" fill="currentColor"/>
</svg>
