<svg width="16" height="16" viewBox="0 0 16 16" fill="none" xmlns="http://www.w3.org/2000/svg">
<path fill-rule="evenodd" clip-rule="evenodd" d="M7.99869 3.57143C11.41 3.57143 13.492 6.02251 14.3228 7.26517C14.4214 7.41273 14.4214 7.58725 14.3228 7.73481C13.492 8.97748 11.41 11.4286 7.99868 11.4286C4.58698 11.4286 2.50666 8.97682 1.67704 7.73451C1.57862 7.58712 1.57862 7.41289 1.67704 7.26551C2.50666 6.02319 4.58698 3.57143 7.99869 3.57143ZM15.6637 6.40385C14.7569 5.04749 12.2564 2 7.99869 2C3.74005 2 1.24127 5.04873 0.335628 6.40489C-0.111876 7.07501 -0.111877 7.92501 0.335629 8.59513C1.24127 9.95128 3.74005 13 7.99868 13C12.2564 13 14.7569 9.95249 15.6637 8.59613C16.1121 7.92551 16.1121 7.07447 15.6637 6.40385ZM6.39546 7.50002C6.39546 6.63214 7.11324 5.92858 7.99868 5.92858C8.88412 5.92858 9.6019 6.63214 9.6019 7.50002C9.6019 8.36789 8.88412 9.07145 7.99868 9.07145C7.11324 9.07145 6.39546 8.36789 6.39546 7.50002ZM7.99868 4.35715C6.22781 4.35715 4.79223 5.76426 4.79223 7.50002C4.79223 9.23577 6.22781 10.6429 7.99868 10.6429C9.76955 10.6429 11.2051 9.23577 11.2051 7.50002C11.2051 5.76426 9.76955 4.35715 7.99868 4.35715Z" fill="currentColor"/>
</svg>
