<svg width="16" height="16" viewBox="0 0 16 16" fill="none" xmlns="http://www.w3.org/2000/svg">
<path fill-rule="evenodd" clip-rule="evenodd" d="M6 6.99997H10V8.99997H6V6.99997ZM6 12H10V9.99996H6V12ZM16 13.9999H13V15.9999H3V13.9999H0V1.99999H3V0H13V1.99999H16V13.9999ZM5 1.99999V2.99999H11V1.99999H5ZM2 4.99998H3V3.99998H2V4.99998ZM2 7.99997H3V6.99997H2V7.99997ZM2 9.99996H3V8.99997H2V9.99996ZM3 12V11H2V12H3ZM11 13.9999V4.99998H5V13.9999H11ZM14 11H13V12H14V11ZM14 8.99997H13V9.99996H14V8.99997ZM14 6.99997H13V7.99997H14V6.99997ZM14 3.99998H13V4.99998H14V3.99998Z" fill="currentColor"/>
</svg>
