<svg width="16" height="16" viewBox="0 0 16 16" fill="none" xmlns="http://www.w3.org/2000/svg">
<path fill-rule="evenodd" clip-rule="evenodd" d="M6.68651 8.03709C6.68651 7.31009 7.27551 6.72209 8.00151 6.72209C8.72851 6.72209 9.31751 7.31009 9.31751 8.03709C9.31751 8.76409 8.72851 9.35109 8.00151 9.35109C7.27551 9.35109 6.68651 8.76409 6.68651 8.03709ZM9.11151 9.91709L10.4045 12.1591C8.96351 12.9851 7.13551 13.0431 5.59351 12.1531L6.88651 9.91409C7.21451 10.1091 7.59251 10.2281 8.00151 10.2281C8.40851 10.2281 8.78451 10.1101 9.11151 9.91709ZM5.81551 7.98209L3.17951 7.98109C3.17751 7.16009 3.38651 6.32709 3.82651 5.56409C4.26451 4.80609 4.87851 4.21109 5.58651 3.80309L6.93251 6.13509C6.28151 6.50309 5.83451 7.18709 5.81551 7.98209ZM12.8245 7.97109L10.1875 7.97209C10.1645 7.18009 9.71751 6.49909 9.06751 6.13309L10.4145 3.80009C11.9575 4.69109 12.8215 6.30809 12.8245 7.97109ZM7.99951 14.0001C4.69151 14.0001 1.99951 11.3081 1.99951 8.00009C1.99951 4.69109 4.69151 2.00009 7.99951 2.00009C11.3085 2.00009 13.9995 4.69109 13.9995 8.00009C13.9995 11.3081 11.3085 14.0001 7.99951 14.0001ZM7.99951 9.15527e-05C3.58851 9.15527e-05 -0.000488281 3.58909 -0.000488281 8.00009C-0.000488281 12.4111 3.58851 16.0001 7.99951 16.0001C12.4115 16.0001 15.9995 12.4111 15.9995 8.00009C15.9995 3.58909 12.4115 9.15527e-05 7.99951 9.15527e-05Z" fill="currentColor"/>
</svg>
