<svg width="16" height="16" viewBox="0 0 16 16" fill="none" xmlns="http://www.w3.org/2000/svg">
<path d="M4.944 5.464C5.384 4.008 6.84 2.992 8.488 3.232C9.88 3.44 10.976 4.616 11.168 6.008C11.3505 7.29883 10.6366 7.92168 9.94756 8.52283C9.82096 8.63328 9.6952 8.743 9.576 8.856C9.48 8.944 9.392 9.032 9.312 9.128C9.308 9.132 9.304 9.138 9.3 9.144C9.296 9.15 9.292 9.156 9.288 9.16C9.208 9.256 9.128 9.36 9.064 9.472C9.056 9.484 9.05 9.496 9.044 9.508C9.038 9.52 9.032 9.532 9.024 9.544C8.888 9.784 8.8 10.064 8.8 10.4H7.2C7.2 10 7.264 9.672 7.36 9.4C7.36351 9.38948 7.36548 9.38049 7.36726 9.37237C7.36954 9.36197 7.37151 9.35299 7.376 9.344C7.38 9.332 7.386 9.322 7.392 9.312C7.398 9.302 7.404 9.292 7.408 9.28C7.464 9.136 7.536 9 7.608 8.88C7.612 8.872 7.616 8.866 7.62 8.86C7.624 8.854 7.628 8.848 7.632 8.84C7.632 8.836 7.634 8.834 7.636 8.832C7.638 8.83 7.64 8.828 7.64 8.824C7.91247 8.41366 8.27788 8.13264 8.61961 7.86982C9.11067 7.49216 9.55283 7.15211 9.6 6.52C9.664 5.744 9.104 5 8.344 4.84C7.52 4.664 6.76 5.152 6.504 5.864C6.392 6.168 6.128 6.4 5.8 6.4H5.64C5.152 6.4 4.8 5.928 4.944 5.464Z" fill="currentColor"/>
<path d="M8 12.8C8.44183 12.8 8.8 12.4418 8.8 12C8.8 11.5582 8.44183 11.2 8 11.2C7.55817 11.2 7.2 11.5582 7.2 12C7.2 12.4418 7.55817 12.8 8 12.8Z" fill="currentColor"/>
<path fill-rule="evenodd" clip-rule="evenodd" d="M0 8C0 3.584 3.584 0 8 0C12.416 0 16 3.584 16 8C16 12.416 12.416 16 8 16C3.584 16 0 12.416 0 8ZM1.6 8C1.6 11.528 4.472 14.4 8 14.4C11.528 14.4 14.4 11.528 14.4 8C14.4 4.472 11.528 1.6 8 1.6C4.472 1.6 1.6 4.472 1.6 8Z" fill="currentColor"/>
</svg>
