<svg width="16" height="16" viewBox="0 0 16 16" fill="none" xmlns="http://www.w3.org/2000/svg">
<path fill-rule="evenodd" clip-rule="evenodd" d="M10.8844 8.66697C10.8844 9.19497 10.4534 9.62596 9.92535 9.62596C9.39635 9.62596 8.96635 9.19497 8.96635 8.66697C8.96635 8.13897 9.39635 7.70797 9.92535 7.70797C10.4534 7.70797 10.8844 8.13897 10.8844 8.66697ZM4.81135 9.62596C4.28235 9.62596 3.85235 9.19497 3.85235 8.66697C3.85235 8.13897 4.28235 7.70797 4.81135 7.70797C5.33935 7.70797 5.77035 8.13897 5.77035 8.66697C5.77035 9.19497 5.33935 9.62596 4.81135 9.62596ZM5.45035 11.225H9.28535C9.28535 12.283 8.42735 13.1419 7.36835 13.1419C6.30935 13.1419 5.45035 12.283 5.45035 11.225ZM12.7364 9.18097C12.6184 9.70196 12.3524 10.009 12.2114 10.079L11.8634 10.255L11.7254 10.619C10.9504 12.671 9.25135 13.9959 7.39435 13.9959C5.53735 13.9959 3.83635 12.671 3.06235 10.619L2.92435 10.255L2.57635 10.08C2.43735 10.009 2.17035 9.70196 2.05235 9.18196C1.95835 8.76397 2.01335 8.45497 2.07235 8.29497C2.92735 8.11697 3.69735 7.48197 3.87435 6.78597C4.02935 6.74597 4.51335 6.78497 4.75535 6.88197L5.62635 7.22797C6.75035 7.67597 8.26335 7.67597 9.38935 7.22797L10.2534 6.88397C10.3924 6.83797 10.7834 6.81797 11.0304 6.83497C11.0434 7.65597 11.8864 8.02897 12.6974 8.32097L12.7244 8.32897C12.7804 8.49597 12.8244 8.78597 12.7364 9.18097ZM2.85535 4.49798C3.06535 4.02298 3.75935 4.07798 3.77535 4.07898L4.65635 4.26698L4.83935 3.37299C4.84735 3.35499 5.85635 1.52699 12.9044 2.11499C12.6904 2.35799 12.4074 2.59699 12.0614 2.79799L10.6744 3.60599L12.0134 4.49898L12.1194 4.56198C12.1244 4.56298 12.5794 4.81898 12.6234 5.45698C12.6264 5.49998 12.6274 5.54298 12.6274 5.58598C12.4104 5.27098 12.0944 5.00398 11.6504 4.89998C11.4804 4.86098 11.1734 4.83198 10.8284 4.83198C10.3854 4.83198 9.87835 4.88098 9.52235 5.02198L8.65135 5.36798C7.99735 5.62798 7.01535 5.62798 6.36335 5.36798L5.49235 5.02198C4.91135 4.79298 3.92835 4.66498 3.25535 4.88498C3.03235 4.95698 2.83635 5.05098 2.66735 5.16598C2.70935 4.92198 2.77035 4.68998 2.85535 4.49798ZM15.4454 0.374998L14.4924 0.264998C6.63135 -0.644998 4.09235 0.991996 3.27535 2.10199C2.48135 2.19999 1.50935 2.60499 1.02935 3.68399C0.648352 4.53698 0.517352 5.86898 0.636352 6.85397C0.0713519 7.48397 -0.146648 8.51397 0.101352 9.62096C0.295352 10.478 0.738352 11.203 1.31735 11.642C2.44635 14.2979 4.79835 15.9959 7.39435 15.9959C9.98935 15.9959 12.3424 14.2979 13.4694 11.642C14.0514 11.203 14.4944 10.477 14.6874 9.61896C14.9074 8.63297 14.7514 7.71397 14.3164 7.07697C14.5034 6.60997 14.6654 5.99698 14.6194 5.32098C14.5754 4.68798 14.3634 4.16998 14.0924 3.76499C14.8424 3.05599 15.3124 2.18699 15.3744 1.33099L15.4454 0.374998Z" fill="currentColor"/>
</svg>
