<svg width="17" height="17" viewBox="0 0 17 17" fill="none" xmlns="http://www.w3.org/2000/svg">
<path fill-rule="evenodd" clip-rule="evenodd" d="M16.0028 14.5828L10.8928 9.47284C12.6978 6.92989 12.2538 3.4282 9.87142 1.41611C7.48902 -0.595978 3.96242 -0.447651 1.75739 1.75739C-0.44765 3.96242 -0.595978 7.48902 1.41611 9.87143C3.4282 12.2538 6.92989 12.6978 9.47284 10.8928L14.5828 16.0028L16.0028 14.5828ZM6.00284 10.0028C3.7937 10.0028 2.00284 8.21198 2.00284 6.00284C2.00284 3.7937 3.7937 2.00284 6.00284 2.00284C8.21198 2.00284 10.0028 3.7937 10.0028 6.00284C10.0028 8.21198 8.21198 10.0028 6.00284 10.0028Z" fill="currentColor"/>
</svg>
