<svg width="16" height="16" viewBox="0 0 16 16" fill="none" xmlns="http://www.w3.org/2000/svg">
<path d="M6 7.99998C6 6.89542 6.89543 5.99999 8 5.99999C9.10457 5.99999 10 6.89542 10 7.99998C10 9.10455 9.10457 9.99998 8 9.99998C6.89543 9.99998 6 9.10455 6 7.99998Z" fill="currentColor"/>
<path fill-rule="evenodd" clip-rule="evenodd" d="M16 6.80999L13.93 6.12999C13.8202 5.78626 13.6831 5.45186 13.52 5.12999L14.52 3.17999L12.85 1.51L10.9 2.51C10.5781 2.3469 10.2437 2.20979 9.9 2.1L9.19 0H6.81L6.13 2.07C5.78627 2.17979 5.45187 2.3169 5.13 2.48L3.18 1.48L1.51 3.14999L2.51 5.09999C2.3469 5.42186 2.2098 5.75626 2.1 6.09999L0 6.80999V9.18998L2.07 9.86998C2.1798 10.2137 2.3169 10.5481 2.48 10.87L1.48 12.82L3.15 14.49L5.1 13.49C5.42187 13.6531 5.75627 13.7902 6.1 13.9L6.81 16H9.19L9.87 13.93C10.2137 13.8202 10.5481 13.6831 10.87 13.52L12.82 14.52L14.49 12.85L13.49 10.9C13.6531 10.5781 13.7902 10.2437 13.9 9.89998L16 9.18998V6.80999ZM8 12C5.79086 12 4 10.2091 4 7.99998C4 5.79085 5.79086 3.99999 8 3.99999C10.2091 3.99999 12 5.79085 12 7.99998C12 10.2091 10.2091 12 8 12Z" fill="currentColor"/>
</svg>
