<svg width="16" height="16" viewBox="0 0 16 16" fill="none" xmlns="http://www.w3.org/2000/svg">
<path fill-rule="evenodd" clip-rule="evenodd" d="M10.99 9.43996V5.17807L7.99775 3.46252L5 5.19911V9.46996C5 10.2266 5.37793 10.7978 5.81816 11.2437C6.53256 11.9671 7.45106 12.4532 8.10263 12.7028C8.72346 12.4048 9.59581 11.8931 10.2713 11.1296C10.6578 10.6927 10.99 10.1453 10.99 9.43996ZM7 6.35186L8.00292 5.77087L8.99 6.3368V9.43996C8.99 9.51303 8.94341 9.61222 8.7734 9.80438C8.5697 10.0346 8.31575 10.2503 8.0291 10.4462C7.7344 10.2674 7.4594 10.0593 7.24125 9.83838C7.05004 9.64474 7 9.54664 7 9.46996V6.35186Z" fill="currentColor"/>
<path fill-rule="evenodd" clip-rule="evenodd" d="M13.99 9.43996V3.43999L7.99 0L2 3.46999V9.46996C2 13.7899 7.09 15.6799 7.67 15.8799L7.99 15.9999L8.31 15.8599C8.54 15.7799 13.99 13.8799 13.99 9.43996ZM4 4.62274L7.99517 2.30835L11.99 4.59871V9.43996C11.99 10.6659 11.3043 11.7371 10.0388 12.6831C9.54065 13.0554 8.99136 13.3766 8.43454 13.6418C8.25324 13.7281 8.0967 13.7972 7.96247 13.8526C7.29977 13.5821 6.53745 13.1751 5.83905 12.6363C4.64248 11.7133 4 10.6724 4 9.46996V4.62274Z" fill="currentColor"/>
</svg>
