<svg width="16" height="16" viewBox="0 0 16 16" fill="none" xmlns="http://www.w3.org/2000/svg">
<path d="M12.2071 6.20712L10.7929 4.7929L7 8.5858L5.20711 6.79291L3.79289 8.20712L7 11.4142L12.2071 6.20712Z" fill="currentColor"/>
<path fill-rule="evenodd" clip-rule="evenodd" d="M8 16C3.58172 16 0 12.4183 0 8.00002C0 3.58173 3.58172 0 8 0C12.4183 0 16 3.58173 16 8.00002C16 12.4183 12.4183 16 8 16ZM8 14C11.3137 14 14 11.3137 14 8.00002C14 4.6863 11.3137 2 8 2C4.68629 2 2 4.6863 2 8.00002C2 11.3137 4.68629 14 8 14Z" fill="currentColor"/>
</svg>
