<svg width="16" height="16" viewBox="0 0 16 16" fill="none" xmlns="http://www.w3.org/2000/svg">
<path fill-rule="evenodd" clip-rule="evenodd" d="M9 12.9C10.9591 12.5023 12.5023 10.9591 12.9 9H12V7H12.9C12.5023 5.04087 10.9591 3.4977 9 3.10002V4H7V3.10002C5.04087 3.4977 3.4977 5.04087 3.10002 7H4V9H3.10002C3.4977 10.9591 5.04087 12.5023 7 12.9V12H9V12.9ZM7 14.9291C3.93431 14.4906 1.5094 12.0657 1.07089 9H0V7H1.07089C1.5094 3.93431 3.93431 1.5094 7 1.07089V0H9V1.07089C12.0657 1.5094 14.4906 3.93431 14.9291 7H16V9H14.9291C14.4906 12.0657 12.0657 14.4906 9 14.9291V16H7V14.9291ZM8 9C7.44772 9 7 8.55229 7 8C7 7.44772 7.44772 7 8 7C8.55229 7 9 7.44772 9 8C9 8.55229 8.55229 9 8 9Z" fill="currentColor"/>
</svg>
