<svg width="16" height="16" viewBox="0 0 16 16" fill="none" xmlns="http://www.w3.org/2000/svg">
<path d="M11 4H12.4605C11.346 2.75373 9.73977 2 8.0005 2C4.69215 2 2.0005 4.69192 2.0005 8H0.0005C0.0005 3.58739 3.58754 0 8.0005 0C10.3483 0 12.5129 1.02794 14 2.72178V1H16V6H11V4Z" fill="currentColor"/>
<path d="M2 13.2777V15H0V10H5V12H3.53996C4.65466 13.2464 6.26047 14 7.9995 14C11.3075 14 13.9995 11.3074 13.9995 8H15.9995C15.9995 12.4119 12.4121 16 7.9995 16C5.65166 16 3.48733 14.972 2 13.2777Z" fill="currentColor"/>
</svg>
