<svg width="17" height="17" viewBox="0 0 17 17" fill="none" xmlns="http://www.w3.org/2000/svg">
<path fill-rule="evenodd" clip-rule="evenodd" d="M13.1536 10.0036L11.8036 9.63356C11.3348 9.43745 10.9492 9.08375 10.7136 8.63356C11.6073 7.33334 12.0595 5.78034 12.0036 4.20358C12.1056 3.09672 11.7244 1.99975 10.9578 1.19483C10.1912 0.389906 9.11408 -0.044408 8.00356 0.00359739C6.89303 -0.044408 5.81595 0.389906 5.04935 1.19483C4.28276 1.99975 3.90147 3.09672 4.00355 4.20358C3.94403 5.7916 4.40009 7.35623 5.30356 8.66356C5.06153 9.11617 4.66888 9.46991 4.19355 9.66356L2.85355 10.0036C1.10045 10.528 -0.0732186 12.1753 0.00355492 14.0035V16.0035H16.0036V14.0035C16.0803 12.1753 14.9067 10.528 13.1536 10.0036ZM8.00356 2.00359C8.91356 2.00359 10.0036 2.38359 10.0036 4.20358C10.0036 5.61358 9.58356 8.00357 8.00356 8.00357C6.42355 8.00357 6.00355 5.61358 6.00355 4.20358C6.00355 2.38359 7.09355 2.00359 8.00356 2.00359ZM2.00355 14.0035C1.96074 13.0991 2.53091 12.2787 3.39355 12.0036L4.73355 11.6336C5.6434 11.3307 6.41832 10.7186 6.92355 9.90356C7.27588 9.99447 7.64052 10.0282 8.00356 10.0036C8.37745 10.0024 8.74878 9.9416 9.10355 9.82356C9.59545 10.6445 10.3654 11.2618 11.2736 11.5636L12.6136 11.9336C13.5029 12.215 14.0797 13.0738 14.0036 14.0035H2.00355Z" fill="currentColor"/>
</svg>
