<svg width="24" height="24" viewBox="0 0 24 24" fill="none" xmlns="http://www.w3.org/2000/svg">
<path fill-rule="evenodd" clip-rule="evenodd" d="M8.00342 6.92777C8.00342 4.73155 9.7838 2.95117 11.98 2.95117C14.1762 2.95117 15.9566 4.73155 15.9566 6.92777C15.9566 9.12398 14.1762 10.9044 11.98 10.9044C9.7838 10.9044 8.00342 9.12398 8.00342 6.92777ZM11.98 4.95117C10.8884 4.95117 10.0034 5.83612 10.0034 6.92777C10.0034 8.01941 10.8884 8.90436 11.98 8.90436C13.0717 8.90436 13.9566 8.01941 13.9566 6.92777C13.9566 5.83612 13.0717 4.95117 11.98 4.95117Z" fill="black"/>
<path d="M4.15332 17.0078C4.15332 14.2464 6.3919 12.0078 9.15332 12.0078H14.8464C16.7579 12.0078 18.4188 13.0804 19.2602 14.6565C19.1318 14.7494 19.009 14.8536 18.8933 14.9693L17.7198 16.1428C17.3485 14.9076 16.2026 14.0078 14.8464 14.0078H9.15332C7.49647 14.0078 6.15332 15.351 6.15332 17.0078V18.049C6.15332 18.6013 6.60104 19.049 7.15332 19.049H11.6956C11.784 19.6694 12.0669 20.2673 12.5441 20.7446L12.8485 21.049H7.15332C5.49647 21.049 4.15332 19.7058 4.15332 18.049V17.0078Z" fill="black"/>
<path d="M21.7218 17.7977C22.1123 17.4072 22.1123 16.774 21.7218 16.3835C21.3312 15.9929 20.6981 15.9929 20.3075 16.3835L17.0737 19.6173L15.3725 17.9161C14.982 17.5256 14.3488 17.5256 13.9583 17.9161C13.5678 18.3067 13.5678 18.9398 13.9583 19.3303L16.3666 21.7386C16.5541 21.9262 16.8085 22.0315 17.0737 22.0315C17.3389 22.0315 17.5933 21.9262 17.7808 21.7386L21.7218 17.7977Z" fill="black"/>
</svg>
