<svg width="24" height="24" viewBox="0 0 24 24" fill="none" xmlns="http://www.w3.org/2000/svg">
<path d="M5 5C5 3.34315 6.34315 2 8 2H16C17.6569 2 19 3.34315 19 5V13.7371C18.4746 13.2844 17.7906 13.0107 17.0426 13.0107L17 13.0109V5C17 4.44772 16.5523 4 16 4H8C7.44772 4 7 4.44772 7 5V19C7 19.5523 7.44772 20 8 20H11.2096C11.5916 21.0941 12.5896 21.8993 13.788 22H8C6.34315 22 5 20.6569 5 19V5Z" fill="black"/>
<path d="M17.0426 15.0107C17.5949 15.0107 18.0426 15.4584 18.0426 16.0107V18.0107H20.0426C20.5949 18.0107 21.0426 18.4584 21.0426 19.0107C21.0426 19.5629 20.5949 20.0107 20.0426 20.0107H18.0426V22.0107C18.0426 22.5629 17.5949 23.0107 17.0426 23.0107C16.4903 23.0107 16.0426 22.5629 16.0426 22.0107V20.0107H14.0426C13.9928 20.0107 13.9439 20.007 13.8961 20C13.4133 19.9291 13.0426 19.5132 13.0426 19.0107C13.0426 18.4584 13.4903 18.0107 14.0426 18.0107H16.0426V16.0107C16.0426 15.4726 16.4675 15.0339 17 15.0115C17.0141 15.011 17.0283 15.0107 17.0426 15.0107Z" fill="black"/>
</svg>
