<svg width="24" height="24" viewBox="0 0 24 24" fill="none" xmlns="http://www.w3.org/2000/svg">
<path fill-rule="evenodd" clip-rule="evenodd" d="M12.0002 2C12.5524 2.00002 13.0002 2.44775 13.0002 3.00004V4.07096C16.3922 4.5564 18.9997 7.4737 18.9997 11V17.0043L20.0004 17.0046C20.5527 17.0048 21.0003 17.4526 21.0002 18.0049C21 18.5572 20.5521 19.0048 19.9999 19.0046L3.99986 19C3.44758 18.9998 2.99999 18.552 3.00015 17.9997C3.00031 17.4474 3.44816 16.9998 4.00044 17L4.99966 17.0003V11C4.99966 7.47336 7.60762 4.55584 11.0002 4.07082V2.99996C11.0002 2.44768 11.4479 1.99998 12.0002 2ZM16.9997 17.0038V11C16.9997 8.23858 14.7611 6 11.9997 6C9.23824 6 6.99966 8.23858 6.99966 11V17.0009L16.9997 17.0038Z" fill="black"/>
<path d="M6.57767 4.81621C7.02845 4.49712 7.1352 3.87302 6.81611 3.42224C6.49703 2.97146 5.87293 2.86471 5.42215 3.18379C4.33502 3.95332 3.56113 4.80303 3.01687 5.7696C2.47659 6.72911 2.18981 7.75579 2.01318 8.83908C1.92431 9.38417 2.29415 9.8981 2.83923 9.98697C3.38432 10.0758 3.89825 9.70601 3.98712 9.16092C4.14119 8.21594 4.37321 7.43708 4.75959 6.75089C5.14199 6.07177 5.70263 5.43561 6.57767 4.81621Z" fill="black"/>
<path d="M17.4217 4.81621C16.9709 4.49712 16.8641 3.87302 17.1832 3.42224C17.5023 2.97146 18.1264 2.86471 18.5772 3.18379C19.6642 3.95326 20.4383 4.8029 20.9828 5.7694C21.5234 6.7289 21.8105 7.7556 21.9871 8.83908C22.076 9.38417 21.7062 9.8981 21.1611 9.98697C20.616 10.0758 20.1021 9.70601 20.0132 9.16092C19.8591 8.21612 19.6269 7.43729 19.2403 6.75109C18.8577 6.0719 18.2968 5.43567 17.4217 4.81621Z" fill="black"/>
<path d="M12.0002 22.0029C10.8354 22.0029 9.87482 21.1283 9.73941 20H14.2609C14.1255 21.1283 13.165 22.0029 12.0002 22.0029Z" fill="black"/>
</svg>
