<svg width="24" height="24" viewBox="0 0 24 24" fill="none" xmlns="http://www.w3.org/2000/svg">
<path d="M9.3112 7.32951C9.70173 6.93899 10.3349 6.93899 10.7254 7.32951L12 8.6041L13.2746 7.32951C13.6651 6.93899 14.2983 6.93899 14.6888 7.32951C15.0793 7.72004 15.0793 8.3532 14.6888 8.74373L13.4142 10.0183L14.6888 11.2929C15.0793 11.6834 15.0793 12.3166 14.6888 12.7071C14.2983 13.0976 13.6651 13.0976 13.2746 12.7071L12 11.4325L10.7254 12.7071C10.3349 13.0976 9.70173 13.0976 9.31121 12.7071C8.92068 12.3166 8.92068 11.6834 9.31121 11.2929L10.5858 10.0183L9.3112 8.74373C8.92068 8.3532 8.92068 7.72004 9.3112 7.32951Z" fill="black"/>
<path fill-rule="evenodd" clip-rule="evenodd" d="M12.0265 21.2205C11.4041 22.0032 11.4039 22.003 11.4037 22.0029L11.4014 22.001L11.3961 21.9968L11.3781 21.9823C11.3628 21.9699 11.341 21.9522 11.3131 21.9294C11.2575 21.8837 11.1776 21.8173 11.0769 21.7317C10.8756 21.5606 10.5907 21.3121 10.2501 20.9975C9.57028 20.3697 8.66166 19.4724 7.7502 18.3964C5.97107 16.296 4 13.3061 4 10.2166C4 5.70405 7.56858 2 12.0265 2C16.4844 2 20.053 5.70405 20.053 10.2166C20.053 13.3061 18.0819 16.296 16.3028 18.3964C15.3913 19.4724 14.4827 20.3697 13.8029 20.9975C13.4623 21.3121 13.1774 21.5606 12.9761 21.7317C12.8754 21.8173 12.7955 21.8837 12.7398 21.9294C12.712 21.9522 12.6902 21.9699 12.6749 21.9823L12.6568 21.9968L12.6516 22.001L12.6499 22.0024C12.6496 22.0026 12.6488 22.0032 12.0265 21.2205ZM12.0265 4C8.72315 4 6 6.75794 6 10.2166C6 12.5444 7.54218 15.0564 9.27629 17.1037C10.1215 18.1014 10.9695 18.9394 11.6071 19.5283C11.7605 19.6699 11.9013 19.7968 12.0265 19.9077C12.1517 19.7968 12.2925 19.6699 12.4459 19.5283C13.0835 18.9394 13.9315 18.1014 14.7767 17.1037C16.5108 15.0564 18.053 12.5444 18.053 10.2166C18.053 6.75794 15.3298 4 12.0265 4Z" fill="black"/>
<path d="M12.0265 21.2205L12.6488 22.0032C12.2845 22.2929 11.768 22.2925 11.4037 22.0029L12.0265 21.2205Z" fill="black"/>
</svg>
