<svg width="24" height="24" viewBox="0 0 24 24" fill="none" xmlns="http://www.w3.org/2000/svg">
<path fill-rule="evenodd" clip-rule="evenodd" d="M7 2C5.34315 2 4 3.34315 4 5V15C4 16.6569 5.34315 18 7 18H21C22.6569 18 24 16.6569 24 15V5C24 3.34315 22.6569 2 21 2H7ZM6 5L6.00001 4.99615H22L22 5V15C22 15.5523 21.5523 16 21 16H7C6.44772 16 6 15.5523 6 15V5Z" fill="black"/>
<path d="M2 9C2 8.44772 1.55228 8 1 8C0.447715 8 0 8.44772 0 9V17C0 19.7614 2.23858 22 5 22H16C16.5523 22 17 21.5523 17 21C17 20.4477 16.5523 20 16 20H5C3.34315 20 2 18.6569 2 17V9Z" fill="black"/>
</svg>
