<svg width="24" height="24" viewBox="0 0 24 24" fill="none" xmlns="http://www.w3.org/2000/svg">
<path d="M9.49565 9.89061C9.88618 9.50009 10.5193 9.50009 10.9099 9.89061L12.2028 11.1835L13.4957 9.89061C13.8862 9.50009 14.5193 9.50009 14.9099 9.89061C15.3004 10.2811 15.3004 10.9143 14.9099 11.3048L13.617 12.5977L14.8732 13.854C15.2638 14.2445 15.2638 14.8777 14.8732 15.2682C14.4827 15.6587 13.8496 15.6587 13.459 15.2682L12.2028 14.0119L10.9099 15.3048C10.5193 15.6953 9.88618 15.6953 9.49565 15.3048C9.10513 14.9143 9.10513 14.2811 9.49565 13.8906L10.7885 12.5977L9.49565 11.3048C9.10513 10.9143 9.10513 10.2811 9.49565 9.89061Z" fill="black"/>
<path fill-rule="evenodd" clip-rule="evenodd" d="M2.01367 7C2.01367 5.34315 3.35682 4 5.01367 4H19.0137C20.6705 4 22.0137 5.34315 22.0137 7V17C22.0137 18.6569 20.6705 20 19.0137 20H5.01367C3.35682 20 2.01367 18.6569 2.01367 17V7ZM4.01368 6.99615L4.01367 7V17C4.01367 17.5523 4.46139 18 5.01367 18H19.0137C19.566 18 20.0137 17.5523 20.0137 17V7L20.0137 6.99615H4.01368Z" fill="black"/>
</svg>
