<svg width="24" height="24" viewBox="0 0 24 24" fill="none" xmlns="http://www.w3.org/2000/svg">
<path d="M22 18.4649C23.1956 17.7733 24 16.4806 24 15V10C24 8.51944 23.1956 7.22675 22 6.53513V18.4649Z" fill="black"/>
<path d="M2 6.53513C0.804397 7.22675 0 8.51944 0 10V15C0 16.4806 0.804397 17.7733 2 18.4649V6.53513Z" fill="black"/>
<path fill-rule="evenodd" clip-rule="evenodd" d="M4 8C4 5.79086 5.79086 4 8 4H16C18.2091 4 20 5.79086 20 8V16C20 18.2091 18.2091 20 16 20H8C5.79086 20 4 18.2091 4 16V8ZM8 6C6.89543 6 6 6.89543 6 8V16C6 17.1046 6.89543 18 8 18H16C17.1046 18 18 17.1046 18 16V8C18 6.89543 17.1046 6 16 6H8Z" fill="black"/>
</svg>
