<svg width="24" height="24" viewBox="0 0 24 24" fill="none" xmlns="http://www.w3.org/2000/svg">
<path fill-rule="evenodd" clip-rule="evenodd" d="M3 5.5C3 4.11929 4.11929 3 5.5 3H8.5C9.88071 3 11 4.11929 11 5.5V8.5C11 9.88071 9.88071 11 8.5 11H5.5C4.11929 11 3 9.88071 3 8.5V5.5Z" fill="black"/>
<path fill-rule="evenodd" clip-rule="evenodd" d="M15.5 3C14.1193 3 13 4.11929 13 5.5V8.5C13 9.88071 14.1193 11 15.5 11H18.5C19.8807 11 21 9.88071 21 8.5V5.5C21 4.11929 19.8807 3 18.5 3H15.5Z" fill="black"/>
<path fill-rule="evenodd" clip-rule="evenodd" d="M15.5 13C14.1193 13 13 14.1193 13 15.5V18.5C13 19.8807 14.1193 21 15.5 21H18.5C19.8807 21 21 19.8807 21 18.5V15.5C21 14.1193 19.8807 13 18.5 13H15.5Z" fill="black"/>
<path fill-rule="evenodd" clip-rule="evenodd" d="M5.5 13C4.11929 13 3 14.1193 3 15.5V18.5C3 19.8807 4.11929 21 5.5 21H8.5C9.88071 21 11 19.8807 11 18.5V15.5C11 14.1193 9.88071 13 8.5 13H5.5Z" fill="black"/>
</svg>
