<svg width="24" height="24" viewBox="0 0 24 24" fill="none" xmlns="http://www.w3.org/2000/svg">
<path d="M10 4C10 3.44772 10.4477 3 11 3H13C13.5523 3 14 3.44772 14 4V6C14 6.55228 13.5523 7 13 7H11C10.4477 7 10 6.55228 10 6V4Z" fill="black"/>
<path d="M10 11C10 10.4477 10.4477 10 11 10H13C13.5523 10 14 10.4477 14 11V13C14 13.5523 13.5523 14 13 14H11C10.4477 14 10 13.5523 10 13V11Z" fill="black"/>
<path d="M11 17C10.4477 17 10 17.4477 10 18V20C10 20.5523 10.4477 21 11 21H13C13.5523 21 14 20.5523 14 20V18C14 17.4477 13.5523 17 13 17H11Z" fill="black"/>
<path d="M3 11C3 10.4477 3.44772 10 4 10H6C6.55228 10 7 10.4477 7 11V13C7 13.5523 6.55228 14 6 14H4C3.44772 14 3 13.5523 3 13V11Z" fill="black"/>
<path d="M4 3C3.44772 3 3 3.44772 3 4V6C3 6.55228 3.44772 7 4 7H6C6.55228 7 7 6.55228 7 6V4C7 3.44772 6.55228 3 6 3H4Z" fill="black"/>
<path d="M3 18C3 17.4477 3.44772 17 4 17H6C6.55228 17 7 17.4477 7 18V20C7 20.5523 6.55228 21 6 21H4C3.44772 21 3 20.5523 3 20V18Z" fill="black"/>
<path d="M18 10C17.4477 10 17 10.4477 17 11V13C17 13.5523 17.4477 14 18 14H20C20.5523 14 21 13.5523 21 13V11C21 10.4477 20.5523 10 20 10H18Z" fill="black"/>
<path d="M17 4C17 3.44772 17.4477 3 18 3H20C20.5523 3 21 3.44772 21 4V6C21 6.55228 20.5523 7 20 7H18C17.4477 7 17 6.55228 17 6V4Z" fill="black"/>
<path d="M18 17C17.4477 17 17 17.4477 17 18V20C17 20.5523 17.4477 21 18 21H20C20.5523 21 21 20.5523 21 20V18C21 17.4477 20.5523 17 20 17H18Z" fill="black"/>
</svg>
