<svg width="24" height="24" viewBox="0 0 24 24" fill="none" xmlns="http://www.w3.org/2000/svg">
<path d="M5 2C3.34315 2 2 3.34315 2 5V7.5C2 8.05228 2.44772 8.5 3 8.5C3.55228 8.5 4 8.05228 4 7.5V5C4 4.44772 4.44772 4 5 4H7.5C8.05228 4 8.5 3.55228 8.5 3C8.5 2.44772 8.05228 2 7.5 2H5Z" fill="black"/>
<path d="M16.5 2C15.9477 2 15.5 2.44772 15.5 3C15.5 3.55228 15.9477 4 16.5 4H19C19.5523 4 20 4.44772 20 5V7.5C20 8.05228 20.4477 8.5 21 8.5C21.5523 8.5 22 8.05228 22 7.5V5C22 3.34315 20.6569 2 19 2H16.5Z" fill="black"/>
<path d="M4 16.5C4 15.9477 3.55228 15.5 3 15.5C2.44772 15.5 2 15.9477 2 16.5V19C2 20.6569 3.34315 22 5 22H7.5C8.05228 22 8.5 21.5523 8.5 21C8.5 20.4477 8.05228 20 7.5 20H5C4.44772 20 4 19.5523 4 19V16.5Z" fill="black"/>
<path d="M22 16.5C22 15.9477 21.5523 15.5 21 15.5C20.4477 15.5 20 15.9477 20 16.5V19C20 19.5523 19.5523 20 19 20H16.5C15.9477 20 15.5 20.4477 15.5 21C15.5 21.5523 15.9477 22 16.5 22H19C20.6569 22 22 20.6569 22 19V16.5Z" fill="black"/>
<path d="M11 2C10.4477 2 10 2.44772 10 3C10 3.55228 10.4477 4 11 4H13C13.5523 4 14 3.55228 14 3C14 2.44772 13.5523 2 13 2H11Z" fill="black"/>
<path d="M22 11C22 10.4477 21.5523 10 21 10C20.4477 10 20 10.4477 20 11V13C20 13.5523 20.4477 14 21 14C21.5523 14 22 13.5523 22 13V11Z" fill="black"/>
<path d="M14 21C14 21.5523 13.5523 22 13 22H11C10.4477 22 10 21.5523 10 21C10 20.4477 10.4477 20 11 20H13C13.5523 20 14 20.4477 14 21Z" fill="black"/>
<path d="M3 14C2.44771 14 2 13.5523 2 13V11C2 10.4477 2.44771 10 3 10C3.55229 10 4 10.4477 4 11V13C4 13.5523 3.55229 14 3 14Z" fill="black"/>
<path d="M7 7C6.44772 7 6 7.44772 6 8C6 8.55228 6.44772 9 7 9H11C11.5523 9 12 8.55228 12 8C12 7.44772 11.5523 7 11 7H7Z" fill="black"/>
<path d="M10 11C9.44772 11 9 11.4477 9 12C9 12.5523 9.44772 13 10 13H14C14.5523 13 15 12.5523 15 12C15 11.4477 14.5523 11 14 11H10Z" fill="black"/>
<path d="M13 15C12.4477 15 12 15.4477 12 16C12 16.5523 12.4477 17 13 17H17C17.5523 17 18 16.5523 18 16C18 15.4477 17.5523 15 17 15H13Z" fill="black"/>
</svg>
