<svg width="24" height="24" viewBox="0 0 24 24" fill="none" xmlns="http://www.w3.org/2000/svg">
<path fill-rule="evenodd" clip-rule="evenodd" d="M13.4937 2.29289C13.8843 1.90237 14.5174 1.90237 14.9079 2.29289L19.6142 6.99914C20.0047 7.38966 20.0047 8.02283 19.6142 8.41335L14.9079 13.1196C14.5174 13.5101 13.8843 13.5101 13.4937 13.1196C13.1032 12.7291 13.1032 12.0959 13.4937 11.7054L16.4929 8.70618H10.8756C7.63061 8.70618 5 11.3368 5 14.5818V21C5 21.5523 4.55228 22 4 22C3.44772 22 3 21.5523 3 21V14.5818C3 10.2322 6.52604 6.70618 10.8756 6.70618H16.4928L13.4937 3.70711C13.1032 3.31658 13.1032 2.68342 13.4937 2.29289Z" fill="black"/>
</svg>
