<svg width="24" height="24" viewBox="0 0 24 24" fill="none" xmlns="http://www.w3.org/2000/svg">
<path d="M11.3754 6.425C11.7659 6.03447 11.7659 5.4013 11.3754 5.01078C10.9849 4.62026 10.3517 4.62027 9.96119 5.01079L3.67912 11.293C3.2886 11.6835 3.2886 12.3166 3.67912 12.7072L9.9612 18.9892C10.3517 19.3798 10.9849 19.3798 11.3754 18.9892C11.7659 18.5987 11.7659 17.9656 11.3754 17.575L5.80044 12.0001L11.3754 6.425Z" fill="black"/>
<path d="M20.321 6.425C20.7115 6.03447 20.7115 5.4013 20.321 5.01078C19.9304 4.62026 19.2973 4.62027 18.9067 5.01079L12.6247 11.293C12.2342 11.6835 12.2342 12.3166 12.6247 12.7072L18.9068 18.9892C19.2973 19.3798 19.9304 19.3798 20.321 18.9892C20.7115 18.5987 20.7115 17.9656 20.321 17.575L14.746 12.0001L20.321 6.425Z" fill="black"/>
</svg>
