<svg width="24" height="24" viewBox="0 0 24 24" fill="none" xmlns="http://www.w3.org/2000/svg">
<path d="M15.3208 9.52606C15.7057 9.12999 16.3388 9.12093 16.7349 9.50583C17.131 9.89073 17.14 10.5238 16.7551 10.9199L12.7225 15.0695C12.5344 15.2631 12.276 15.3724 12.006 15.3726C11.7361 15.3728 11.4775 15.2638 11.2892 15.0705L7.24592 10.9208C6.8605 10.5253 6.86872 9.89217 7.26428 9.50675C7.65985 9.12133 8.29296 9.12955 8.67838 9.52511L12.0044 12.9387L15.3208 9.52606Z" fill="black"/>
<path fill-rule="evenodd" clip-rule="evenodd" d="M22.0001 12C22.0001 17.5229 17.5229 22.0001 12 22.0001C6.47717 22.0001 2 17.5229 2 12C2 6.47716 6.47717 2 12 2C17.5229 2 22.0001 6.47716 22.0001 12ZM20.0001 12C20.0001 16.4183 16.4183 20.0001 12 20.0001C7.58174 20.0001 4 16.4183 4 12C4 7.58174 7.58174 4 12 4C16.4183 4 20.0001 7.58174 20.0001 12Z" fill="black"/>
</svg>
