<svg width="24" height="24" viewBox="0 0 24 24" fill="none" xmlns="http://www.w3.org/2000/svg">
<path d="M3 4C3 3.44772 3.44772 3 4 3H9C9.55228 3 10 3.44772 10 4V9C10 9.55228 9.55228 10 9 10H4C3.44772 10 3 9.55228 3 9V4Z" fill="black"/>
<path d="M5 12V19C5 19.2487 5.0454 19.4868 5.12837 19.7065L5.12915 19.7086C5.13806 19.7321 5.14741 19.7554 5.15717 19.7785C5.46079 20.4963 6.17157 21 7 21L19 21C20.1046 21 21 20.1046 21 19V7C21 5.89543 20.1046 5 19 5H12V9C12 10.6569 10.6569 12 9 12H5Z" fill="black"/>
</svg>
