<svg width="24" height="24" viewBox="0 0 24 24" fill="none" xmlns="http://www.w3.org/2000/svg">
<path d="M12 15C13.6569 15 15 13.6569 15 12C15 10.3431 13.6569 9 12 9C10.3431 9 9 10.3431 9 12C9 13.6569 10.3431 15 12 15Z" fill="black"/>
<path fill-rule="evenodd" clip-rule="evenodd" d="M5 5C3.34315 5 2 6.34315 2 8V16C2 17.6569 3.34315 19 5 19H19C20.6569 19 22 17.6569 22 16V8C22 6.34315 20.6569 5 19 5H5ZM20 13V11C17.7909 11 16 9.20914 16 7H8C8 9.20914 6.20914 11 4 11V13C6.20914 13 8 14.7909 8 17H16C16 14.7909 17.7909 13 20 13ZM18 17C18 15.8954 18.8954 15 20 15V16C20 16.5523 19.5523 17 19 17H18ZM4 16V15C5.10457 15 6 15.8954 6 17H5C4.44772 17 4 16.5523 4 16ZM20 9V8C20 7.44772 19.5523 7 19 7H18C18 8.10457 18.8954 9 20 9ZM4 9C5.10457 9 6 8.10457 6 7H5C4.44772 7 4 7.44772 4 8V9Z" fill="black"/>
</svg>
