<svg width="24" height="24" viewBox="0 0 24 24" fill="none" xmlns="http://www.w3.org/2000/svg">
<path d="M12.0174 10C11.4538 10 11 10.459 11 11C11 11.5523 10.5523 12 10 12C9.44772 12 9 11.5523 9 11C9 9.33189 10.3719 8 12.0174 8C13.6439 8 15 9.31642 15 10.9654V11.1256C15 12.3608 14.1802 13.4414 13 13.7791L13 14C13 14.5523 12.5523 15 12 15C11.4477 15 11 14.5523 11 14L11 13.6872C11 12.8245 11.5872 12.0724 12.4241 11.8632C12.7626 11.7786 13 11.4745 13 11.1256V10.9654C13 10.4435 12.5619 10 12.0174 10Z" fill="black"/>
<path d="M12 18C12.5523 18 13 17.5523 13 17C13 16.4477 12.5523 16 12 16C11.4477 16 11 16.4477 11 17C11 17.5523 11.4477 18 12 18Z" fill="black"/>
<path fill-rule="evenodd" clip-rule="evenodd" d="M9 3.5V4L8.4 4C7.07452 4 6 5.07452 6 6.4V19.6C6 20.9255 7.07452 22 8.4 22H15.6C16.9255 22 18 20.9255 18 19.6V6.4C18 5.07452 16.9255 4 15.6 4L15 4V3.5C15 2.67157 14.3284 2 13.5 2H10.5C9.67157 2 9 2.67157 9 3.5ZM8.4 20C8.17909 20 8 19.8209 8 19.6L8 6.4C8 6.17909 8.17909 6 8.4 6L15.6 6C15.8209 6 16 6.17909 16 6.4V19.6C16 19.8209 15.8209 20 15.6 20H8.4Z" fill="black"/>
</svg>
