<svg width="24" height="24" viewBox="0 0 24 24" fill="none" xmlns="http://www.w3.org/2000/svg">
<path d="M8.26233 12.5675C8.26233 12.0152 8.71004 11.5675 9.26233 11.5675H10.9623V9.66235C10.9623 9.11007 11.41 8.66235 11.9623 8.66235C12.5146 8.66235 12.9623 9.11007 12.9623 9.66235V11.5675H14.8674C15.4197 11.5675 15.8674 12.0152 15.8674 12.5675C15.8674 13.1198 15.4197 13.5675 14.8674 13.5675H12.9623V15.2674C12.9623 15.8197 12.5146 16.2674 11.9623 16.2674C11.41 16.2674 10.9623 15.8197 10.9623 15.2674V13.5675H9.26233C8.71004 13.5675 8.26233 13.1198 8.26233 12.5675Z" fill="black"/>
<path fill-rule="evenodd" clip-rule="evenodd" d="M2.01367 7C2.01367 5.34315 3.35682 4 5.01367 4H19.0137C20.6705 4 22.0137 5.34315 22.0137 7V17C22.0137 18.6569 20.6705 20 19.0137 20H5.01367C3.35682 20 2.01367 18.6569 2.01367 17V7ZM4.01368 6.99615L4.01367 7V17C4.01367 17.5523 4.46139 18 5.01367 18H19.0137C19.566 18 20.0137 17.5523 20.0137 17V7L20.0137 6.99615H4.01368Z" fill="black"/>
</svg>
