<svg width="24" height="24" viewBox="0 0 24 24" fill="none" xmlns="http://www.w3.org/2000/svg">
<path fill-rule="evenodd" clip-rule="evenodd" d="M12 2C8.13401 2 5 5.13401 5 9C5 11.38 6.18818 13.4814 8 14.7452V16C8 17.1046 8.89543 18 10 18H14C15.1046 18 16 17.1046 16 16V14.7452C17.8118 13.4814 19 11.38 19 9C19 5.13401 15.866 2 12 2ZM7 9C7 6.23858 9.23858 4 12 4C14.7614 4 17 6.23858 17 9C17 10.8494 15.9964 12.4657 14.4993 13.3317C14.1903 13.5104 14 13.8403 14 14.1973V16H10V14.1973C10 13.8403 9.80972 13.5104 9.50073 13.3317C8.00361 12.4657 7 10.8494 7 9Z" fill="black"/>
<path d="M10 20C9.44772 20 9 20.4477 9 21C9 21.5523 9.44772 22 10 22H14C14.5523 22 15 21.5523 15 21C15 20.4477 14.5523 20 14 20H10Z" fill="black"/>
</svg>
