<svg width="24" height="24" viewBox="0 0 24 24" fill="none" xmlns="http://www.w3.org/2000/svg">
<path fill-rule="evenodd" clip-rule="evenodd" d="M8 10C8 7.79086 9.79086 6 12 6C14.2091 6 16 7.79086 16 10C16 12.2091 14.2091 14 12 14C9.79086 14 8 12.2091 8 10ZM12 8C10.8954 8 10 8.89543 10 10C10 11.1046 10.8954 12 12 12C13.1046 12 14 11.1046 14 10C14 8.89543 13.1046 8 12 8Z" fill="black"/>
<path fill-rule="evenodd" clip-rule="evenodd" d="M4 10C4 5.58172 7.58172 2 12 2C16.4183 2 20 5.58172 20 10C20 12.5162 18.8383 14.7611 17.022 16.2277L18.5894 18.5802C19.5635 20.0422 18.5154 22 16.7585 22H7.17517C5.44333 22 4.39053 20.0917 5.31418 18.6267L6.8783 16.1458C5.11929 14.6784 4 12.4699 4 10ZM12 4C8.68629 4 6 6.68629 6 10C6 13.3137 8.68629 16 12 16C15.3137 16 18 13.3137 18 10C18 6.68629 15.3137 4 12 4ZM8.56187 17.2256L7.00599 19.6933C6.92203 19.8265 7.01773 20 7.17517 20H16.7585C16.9183 20 17.0135 19.822 16.925 19.6891L15.3203 17.2806C14.3089 17.7426 13.1845 18 12 18C10.7693 18 9.60344 17.7221 8.56187 17.2256Z" fill="black"/>
</svg>
