<svg width="24" height="24" viewBox="0 0 24 24" fill="none" xmlns="http://www.w3.org/2000/svg">
<path fill-rule="evenodd" clip-rule="evenodd" d="M12 7C9.23858 7 7 9.23858 7 12C7 14.7614 9.23858 17 12 17C14.7614 17 17 14.7614 17 12C17 9.23858 14.7614 7 12 7ZM9 12C9 10.3431 10.3431 9 12 9C13.6569 9 15 10.3431 15 12C15 13.6569 13.6569 15 12 15C10.3431 15 9 13.6569 9 12Z" fill="black"/>
<path fill-rule="evenodd" clip-rule="evenodd" d="M9.23607 3C8.09975 3 7.06096 3.64201 6.55279 4.65836L6.38197 5H5C3.34315 5 2 6.34315 2 8V17C2 18.6569 3.34315 20 5 20H19C20.6569 20 22 18.6569 22 17V8C22 6.34315 20.6569 5 19 5H17.618L17.4472 4.65836C16.939 3.64201 15.9002 3 14.7639 3H9.23607ZM8.34164 5.55279C8.51103 5.214 8.8573 5 9.23607 5H14.7639C15.1427 5 15.489 5.214 15.6584 5.55279L15.8292 5.89443C16.168 6.572 16.8605 7 17.618 7H19C19.5523 7 20 7.44772 20 8V17C20 17.5523 19.5523 18 19 18H5C4.44772 18 4 17.5523 4 17V8C4 7.44772 4.44772 7 5 7H6.38197C7.13951 7 7.83204 6.572 8.17082 5.89443L8.34164 5.55279Z" fill="black"/>
</svg>
