<svg width="24" height="25" viewBox="0 0 24 25" fill="none" xmlns="http://www.w3.org/2000/svg">
<path d="M8.79533 9.64555C9.18586 9.25503 9.81902 9.25503 10.2095 9.64555L12 11.436L13.7905 9.64555C14.181 9.25503 14.8141 9.25503 15.2047 9.64555C15.5952 10.0361 15.5952 10.6692 15.2047 11.0598L13.4142 12.8502L15.2045 14.6405C15.595 15.031 15.595 15.6642 15.2045 16.0547C14.814 16.4452 14.1808 16.4452 13.7903 16.0547L12 14.2644L10.2097 16.0547C9.81921 16.4452 9.18604 16.4452 8.79552 16.0547C8.40499 15.6642 8.40499 15.031 8.79552 14.6405L10.5858 12.8502L8.79533 11.0598C8.40481 10.6692 8.40481 10.0361 8.79533 9.64555Z" fill="black"/>
<path fill-rule="evenodd" clip-rule="evenodd" d="M2 12.8501C2 7.32725 6.47715 2.8501 12 2.8501C17.5228 2.8501 22 7.32725 22 12.8501C22 18.3729 17.5228 22.8501 12 22.8501C6.47715 22.8501 2 18.3729 2 12.8501ZM12 4.8501C7.58172 4.8501 4 8.43182 4 12.8501C4 17.2684 7.58172 20.8501 12 20.8501C16.4183 20.8501 20 17.2684 20 12.8501C20 8.43182 16.4183 4.8501 12 4.8501Z" fill="black"/>
</svg>
