<svg width="24" height="24" viewBox="0 0 24 24" fill="none" xmlns="http://www.w3.org/2000/svg">
<path fill-rule="evenodd" clip-rule="evenodd" d="M12 2.8501C6.47715 2.8501 2 7.32725 2 12.8501C2 18.3729 6.47715 22.8501 12 22.8501C17.5228 22.8501 22 18.3729 22 12.8501C22 7.32725 17.5228 2.8501 12 2.8501ZM7.09436 6.53024C8.44904 5.47718 10.1513 4.8501 12 4.8501C16.4183 4.8501 20 8.43182 20 12.8501C20 14.6988 19.3729 16.4011 18.3199 17.7557L7.09436 6.53024ZM5.68014 7.94445L16.9056 19.17C15.551 20.223 13.8487 20.8501 12 20.8501C7.58172 20.8501 4 17.2684 4 12.8501C4 11.0014 4.62708 9.29914 5.68014 7.94445Z" fill="black"/>
</svg>
