<svg width="24" height="24" viewBox="0 0 24 24" fill="none" xmlns="http://www.w3.org/2000/svg">
<path d="M12 13.4949L13.096 16H10.904L12 13.4949Z" fill="black"/>
<path fill-rule="evenodd" clip-rule="evenodd" d="M7 7V8C5.34315 8 4 9.34315 4 11V19C4 20.6569 5.34315 22 7 22H17C18.6569 22 20 20.6569 20 19V11C20 9.34315 18.6569 8 17 8V7C17 4.23858 14.7614 2 12 2C9.23858 2 7 4.23858 7 7ZM15 8V7C15 5.34315 13.6569 4 12 4C10.3431 4 9 5.34315 9 7V8H15ZM12 10C12.3973 10 12.7569 10.2352 12.9162 10.5992L16.4162 18.5992C16.6375 19.1052 16.4068 19.6948 15.9008 19.9162C15.3948 20.1375 14.8052 19.9068 14.5839 19.4008L13.971 18H10.029L9.41617 19.4008C9.1948 19.9068 8.60517 20.1375 8.09919 19.9162C7.59321 19.6948 7.36249 19.1052 7.58385 18.5992L11.0839 10.5992C11.2431 10.2352 11.6027 10 12 10Z" fill="black"/>
</svg>
