<svg width="24" height="25" viewBox="0 0 24 25" fill="none" xmlns="http://www.w3.org/2000/svg">
<path fill-rule="evenodd" clip-rule="evenodd" d="M11.9999 2.8501C10.343 2.8501 8.99989 4.19324 8.99989 5.8501V10.8501H8.8065C7.51038 10.8501 6.38367 11.7396 6.08292 13.0004L4.61499 19.154C4.16522 21.0394 5.59476 22.8501 7.53311 22.8501H16.4667C18.405 22.8501 19.8346 21.0394 19.3848 19.154L17.9169 13.0004C17.6161 11.7396 16.4894 10.8501 15.1933 10.8501H14.9999V5.8501C14.9999 4.19324 13.6567 2.8501 11.9999 2.8501ZM10.9999 20.8501V19.8501C10.9999 19.2978 10.5522 18.8501 9.99989 18.8501C9.44761 18.8501 8.99989 19.2978 8.99989 19.8501V20.8501H7.53311C6.88699 20.8501 6.41048 20.2465 6.5604 19.6181L6.96358 17.9279H17.0362L17.4394 19.6181C17.5893 20.2465 17.1128 20.8501 16.4667 20.8501H10.9999ZM12.9999 10.8501V5.8501C12.9999 5.29781 12.5522 4.8501 11.9999 4.8501C11.4476 4.8501 10.9999 5.29781 10.9999 5.8501V10.8501H12.9999ZM8.02833 13.4645C8.11426 13.1043 8.43618 12.8501 8.8065 12.8501H15.1933C15.5636 12.8501 15.8855 13.1043 15.9715 13.4645L16.5591 15.9279H7.44068L8.02833 13.4645Z" fill="black"/>
</svg>
