<svg width="24" height="24" viewBox="0 0 24 24" fill="none" xmlns="http://www.w3.org/2000/svg">
<path d="M2 4C2 2.34315 3.34315 1 5 1H15C16.6569 1 18 2.34315 18 4V4.15003C17.5153 4.05165 17.0137 4 16.5 4C16.332 4 16.1653 4.00552 16 4.0164V4C16 3.44772 15.5523 3 15 3H5C4.44772 3 4 3.44772 4 4V18C4 18.5523 4.44772 19 5 19H10V21H5C3.34315 21 2 19.6569 2 18V4Z" fill="black"/>
<path fill-rule="evenodd" clip-rule="evenodd" d="M11 11.5C11 8.46243 13.4624 6 16.5 6C19.5376 6 22 8.46243 22 11.5C22 12.6774 21.63 13.7684 21 14.6631V22C21 22.3746 20.7907 22.7178 20.4576 22.8892C20.1245 23.0606 19.7236 23.0315 19.4188 22.8137L16.5 20.7289L13.5812 22.8137C13.2764 23.0315 12.8755 23.0606 12.5424 22.8892C12.2093 22.7178 12 22.3746 12 22V14.6631C11.37 13.7684 11 12.6774 11 11.5ZM16.5 8C14.567 8 13 9.567 13 11.5C13 13.433 14.567 15 16.5 15C18.433 15 20 13.433 20 11.5C20 9.567 18.433 8 16.5 8ZM16.5 17C17.4002 17 18.2499 16.7837 19 16.4003V20.0568L17.0812 18.6863C16.7335 18.4379 16.2665 18.4379 15.9188 18.6863L14 20.0568V16.4003C14.7501 16.7837 15.5998 17 16.5 17Z" fill="black"/>
</svg>
