<svg width="24" height="24" viewBox="0 0 24 24" fill="none" xmlns="http://www.w3.org/2000/svg">
<path d="M5.26363 2.86638C4.8731 2.47586 4.23994 2.47586 3.84941 2.86638C3.45889 3.2569 3.45889 3.89007 3.84941 4.28059L5.22595 5.65713C4.00314 6.30069 2.88312 7.11292 1.89709 8.06266C1.49932 8.4458 1.48745 9.07886 1.87059 9.47663C2.25373 9.8744 2.88678 9.88627 3.28455 9.50313C4.28476 8.53973 5.44365 7.7408 6.71826 7.14945L8.32481 8.75599C6.81971 9.3209 5.4794 10.2224 4.39635 11.3681C4.01696 11.7695 4.03475 12.4024 4.43609 12.7818C4.83743 13.1612 5.47035 13.1434 5.84974 12.7421C6.93584 11.5931 8.3386 10.7492 9.9185 10.3497L11.7568 12.188C9.84092 12.2601 8.14127 13.1791 7.02272 14.5779C6.67779 15.0092 6.74784 15.6385 7.17918 15.9834C7.61051 16.3283 8.23979 16.2583 8.58471 15.8269C9.38725 14.8233 10.6188 14.1834 12.0004 14.1834C12.9897 14.1834 13.9021 14.5115 14.6351 15.0662L17.8494 18.2806C18.2399 18.6711 18.8731 18.6711 19.2636 18.2806C19.6542 17.8901 19.6542 17.2569 19.2636 16.8664L5.26363 2.86638Z" fill="black"/>
<path d="M11.2124 6.01323L9.41664 4.21752C10.2552 4.06735 11.1186 3.98895 12.0002 3.98895C15.923 3.98895 19.4854 5.54111 22.1033 8.06266C22.5011 8.4458 22.513 9.07886 22.1298 9.47663C21.7467 9.8744 21.1136 9.88627 20.7159 9.50313C18.4557 7.3261 15.3851 5.98895 12.0002 5.98895C11.7356 5.98895 11.4729 5.99712 11.2124 6.01323Z" fill="black"/>
<path d="M16.7455 11.5463L13.3814 8.18232C15.821 8.50427 17.9962 9.6671 19.6042 11.3681C19.9836 11.7695 19.9658 12.4024 19.5645 12.7818C19.1631 13.1612 18.5302 13.1434 18.1508 12.7421C17.7277 12.2944 17.2565 11.8931 16.7455 11.5463Z" fill="black"/>
<path d="M12.0004 20.3795C13.1477 20.3795 14.0778 19.4494 14.0778 18.3021C14.0778 17.1548 13.1477 16.2247 12.0004 16.2247C10.8531 16.2247 9.92297 17.1548 9.92297 18.3021C9.92297 19.4494 10.8531 20.3795 12.0004 20.3795Z" fill="black"/>
</svg>
