<svg width="24" height="24" viewBox="0 0 24 24" fill="none" xmlns="http://www.w3.org/2000/svg">
<path fill-rule="evenodd" clip-rule="evenodd" d="M2.89998 1.4008C2.50945 1.01028 1.87629 1.01028 1.48576 1.4008C1.09524 1.79133 1.09524 2.42449 1.48576 2.81502L3.35157 4.68082C1.81309 6.24473 1.82095 8.7597 3.37515 10.3139L6.4289 13.3677C6.81942 13.7582 7.45259 13.7582 7.84311 13.3677L8.42391 12.7869L10.6303 14.9933C11.0209 15.3838 11.654 15.3838 12.0445 14.9933C12.4351 14.6027 12.4351 13.9696 12.0445 13.579L9.83853 11.373L11.5763 9.63526L13.7823 11.8413C14.1728 12.2318 14.806 12.2318 15.1965 11.8413C15.5871 11.4507 15.5871 10.8176 15.1965 10.427L12.9901 8.22064L13.5545 7.65629C13.945 7.26576 13.945 6.6326 13.5545 6.24207L10.5007 3.18832C8.93863 1.62622 6.40597 1.62622 4.84387 3.18832L4.76568 3.26651L2.89998 1.4008ZM4.78936 8.89968C4.00831 8.11863 4.00831 6.8523 4.78936 6.07126L6.25808 4.60253C7.03913 3.82149 8.30546 3.82149 9.08651 4.60253L11.4332 6.94918L7.13601 11.2463L4.78936 8.89968Z" fill="black"/>
<path fill-rule="evenodd" clip-rule="evenodd" d="M21.5858 20.2291C23.1479 18.667 23.1479 16.1343 21.5858 14.5722L18.9673 11.9537C18.5768 11.5632 17.9436 11.5632 17.5531 11.9537L11.8417 17.6651C11.4512 18.0556 11.4512 18.6888 11.8417 19.0793L14.4602 21.6978C16.0223 23.2599 18.555 23.2599 20.1171 21.6978L21.5858 20.2291ZM20.1716 15.9864C20.9526 16.7675 20.9526 18.0338 20.1716 18.8148L18.7028 20.2836C17.9218 21.0646 16.6555 21.0646 15.8744 20.2836L13.963 18.3722L18.2602 14.075L20.1716 15.9864Z" fill="black"/>
</svg>
