<svg width="24" height="24" viewBox="0 0 24 24" fill="none" xmlns="http://www.w3.org/2000/svg">
<path d="M5.84926 12.7421C7.39315 11.1089 9.57689 10.0919 11.9998 10.0919C14.4227 10.0919 16.6064 11.1089 18.1503 12.7421C18.5297 13.1434 19.1626 13.1612 19.564 12.7818C19.9653 12.4024 19.9831 11.7695 19.6037 11.3682C17.6978 9.352 14.9951 8.09192 11.9998 8.09192C9.00445 8.09192 6.30179 9.352 4.39587 11.3682C4.01647 11.7695 4.03426 12.4024 4.4356 12.7818C4.83694 13.1612 5.46986 13.1434 5.84926 12.7421Z" fill="black"/>
<path d="M12 14.1835C10.6183 14.1835 9.38676 14.8234 8.58422 15.827C8.2393 16.2584 7.61002 16.3284 7.17869 15.9835C6.74736 15.6386 6.67731 15.0093 7.02223 14.578C8.18798 13.1202 9.98491 12.1835 12 12.1835C14.015 12.1835 15.8119 13.1202 16.9777 14.578C17.3226 15.0093 17.2526 15.6386 16.8212 15.9835C16.3899 16.3284 15.7606 16.2584 15.4157 15.827C14.6131 14.8234 13.3816 14.1835 12 14.1835Z" fill="black"/>
<path d="M14.0773 18.3021C14.0773 19.4494 13.1472 20.3795 11.9999 20.3795C10.8526 20.3795 9.92249 19.4494 9.92249 18.3021C9.92249 17.1548 10.8526 16.2247 11.9999 16.2247C13.1472 16.2247 14.0773 17.1548 14.0773 18.3021Z" fill="black"/>
<path opacity="0.1" fill-rule="evenodd" clip-rule="evenodd" d="M11.9997 5.98901C8.61479 5.98901 5.54425 7.32617 3.28407 9.50319C2.88629 9.88633 2.25324 9.87446 1.8701 9.47669C1.48696 9.07892 1.49883 8.44586 1.8966 8.06272C4.51447 5.54117 8.07687 3.98901 11.9997 3.98901C15.9226 3.98901 19.485 5.54117 22.1028 8.06272C22.5006 8.44586 22.5125 9.07892 22.1293 9.47669C21.7462 9.87446 21.1131 9.88633 20.7154 9.50319C18.4552 7.32617 15.3846 5.98901 11.9997 5.98901Z" fill="black"/>
</svg>
