<svg width="24" height="24" viewBox="0 0 24 24" fill="none" xmlns="http://www.w3.org/2000/svg">
<path d="M10.7071 10.2929C10.3166 9.90237 9.68342 9.90237 9.29289 10.2929C8.90237 10.6834 8.90237 11.3166 9.29289 11.7071L10.5858 13L9.29289 14.2929C8.90237 14.6834 8.90237 15.3166 9.29289 15.7071C9.68342 16.0976 10.3166 16.0976 10.7071 15.7071L12 14.4142L13.2563 15.6705C13.6468 16.061 14.28 16.061 14.6705 15.6705C15.061 15.28 15.061 14.6468 14.6705 14.2563L13.4142 13L14.7071 11.7071C15.0976 11.3166 15.0976 10.6834 14.7071 10.2929C14.3166 9.90237 13.6834 9.90237 13.2929 10.2929L12 11.5858L10.7071 10.2929Z" fill="black"/>
<path fill-rule="evenodd" clip-rule="evenodd" d="M7 3C4.79086 3 3 4.79086 3 7V14C3 15.8638 4.27477 17.4299 6 17.874V18C6 19.6569 7.34315 21 9 21H15C16.6569 21 18 19.6569 18 18V17.874C19.7252 17.4299 21 15.8638 21 14V7C21 4.79086 19.2091 3 17 3H7ZM7 5C5.89543 5 5 5.89543 5 7V14C5 15.1046 5.89543 16 7 16H8V18C8 18.5523 8.44772 19 9 19H15C15.5523 19 16 18.5523 16 18V16H17C18.1046 16 19 15.1046 19 14V7C19 5.89543 18.1046 5 17 5V8C17 8.55228 16.5523 9 16 9C15.4477 9 15 8.55228 15 8V5H13V8C13 8.55228 12.5523 9 12 9C11.4477 9 11 8.55228 11 8V5H9V8C9 8.55228 8.55228 9 8 9C7.44772 9 7 8.55228 7 8V5Z" fill="black"/>
</svg>
