<svg width="24" height="24" viewBox="0 0 24 24" fill="none" xmlns="http://www.w3.org/2000/svg">
<path d="M3.70711 3.14299C3.31658 2.75247 2.68342 2.75247 2.29289 3.14299C1.90237 3.53352 1.90237 4.16668 2.29289 4.5572L7.58579 9.8501H5C4.44772 9.8501 4 10.2978 4 10.8501C4 11.4024 4.44772 11.8501 5 11.8501H9.99931L10.003 11.8501C10.2579 11.8493 10.5126 11.7517 10.7071 11.5572C10.803 11.4613 10.8753 11.3508 10.9241 11.2329C10.9727 11.1158 10.9996 10.9876 11 10.8531L11 10.8501V5.8501C11 5.29781 10.5523 4.8501 10 4.8501C9.44772 4.8501 9 5.29781 9 5.8501V8.43588L3.70711 3.14299Z" fill="black"/>
<path d="M3.70711 22.5572C3.31658 22.9477 2.68342 22.9477 2.29289 22.5572C1.90237 22.1667 1.90237 21.5335 2.29289 21.143L7.58579 15.8501H5C4.44772 15.8501 4 15.4024 4 14.8501C4 14.2978 4.44772 13.8501 5 13.8501H9.99931L10.003 13.8501C10.1375 13.8505 10.2657 13.8774 10.3828 13.926C10.5007 13.9748 10.6112 14.0471 10.7071 14.143C10.9016 14.3375 10.9992 14.5922 11 14.8471L11 14.8501V19.8501C11 20.4024 10.5523 20.8501 10 20.8501C9.44772 20.8501 9 20.4024 9 19.8501V17.2643L3.70711 22.5572Z" fill="black"/>
<path d="M21.7071 3.14299C21.3166 2.75247 20.6834 2.75247 20.2929 3.14299L15 8.43588V5.8501C15 5.29781 14.5523 4.8501 14 4.8501C13.4477 4.8501 13 5.29781 13 5.8501V10.8494L13 10.8531C13.0008 11.108 13.0984 11.3627 13.2929 11.5572C13.3888 11.6531 13.4993 11.7254 13.6172 11.7742C13.7343 11.8228 13.8625 11.8497 13.997 11.8501L14 11.8501H19C19.5523 11.8501 20 11.4024 20 10.8501C20 10.2978 19.5523 9.8501 19 9.8501H16.4142L21.7071 4.5572C22.0976 4.16668 22.0976 3.53352 21.7071 3.14299Z" fill="black"/>
<path d="M20.2929 22.5572C20.6834 22.9477 21.3166 22.9477 21.7071 22.5572C22.0976 22.1667 22.0976 21.5335 21.7071 21.143L16.4142 15.8501H19C19.5523 15.8501 20 15.4024 20 14.8501C20 14.2978 19.5523 13.8501 19 13.8501H14.0007C13.9997 13.8501 13.998 13.8501 13.997 13.8501C13.8625 13.8505 13.7343 13.8774 13.6172 13.926C13.4993 13.9748 13.3888 14.0471 13.2929 14.143C13.0984 14.3375 13.0008 14.5922 13 14.8471C13 14.8481 13 14.8491 13 14.8501V19.8501C13 20.4024 13.4477 20.8501 14 20.8501C14.5523 20.8501 15 20.4024 15 19.8501V17.2643L20.2929 22.5572Z" fill="black"/>
</svg>
