<svg width="24" height="24" viewBox="0 0 24 24" fill="none" xmlns="http://www.w3.org/2000/svg">
<path fill-rule="evenodd" clip-rule="evenodd" d="M2 12C2 6.47715 6.47715 2 12 2C17.5228 2 22 6.47715 22 12C22 12.3248 21.9845 12.646 21.9542 12.9629C21.435 12.1638 20.7449 11.486 19.9357 10.9812C19.5922 8.27812 17.8997 5.99605 15.5544 4.83099C15.6194 4.96122 15.682 5.09431 15.7422 5.2299C16.3275 6.54684 16.7341 8.19646 16.9069 10.0125C16.7723 10.0042 16.6367 10 16.5 10C15.9533 10 15.4225 10.0675 14.9152 10.1946C14.7592 8.56217 14.3981 7.1299 13.9146 6.04218C13.5866 5.30422 13.222 4.76892 12.8676 4.43166C12.5184 4.0993 12.2269 4 12 4C11.7731 4 11.4816 4.0993 11.1324 4.43166C10.778 4.76892 10.4134 5.30422 10.0854 6.04218C9.52392 7.30546 9.12736 9.03347 9.02567 11H13.0343C12.2256 11.5106 11.5374 12.1947 11.0218 13H9.02567C9.12736 14.9665 9.52392 16.6945 10.0854 17.9578C10.1424 18.0861 10.2005 18.2082 10.2595 18.3243C10.7001 19.834 11.6737 21.1165 12.9629 21.9542C12.646 21.9845 12.3248 22 12 22C6.47715 22 2 17.5228 2 12ZM7.02328 11C7.12643 8.79597 7.56798 6.78191 8.25776 5.2299C8.31802 5.09431 8.38064 4.96122 8.44561 4.83099C6.09485 5.99874 4.39999 8.2887 4.06189 11H7.02328ZM4.06189 13H7.02328C7.12643 15.204 7.56798 17.2181 8.25776 18.7701C8.31802 18.9057 8.38064 19.0388 8.44561 19.169C6.09485 18.0013 4.39999 15.7113 4.06189 13Z" fill="black"/>
<path fill-rule="evenodd" clip-rule="evenodd" d="M12 16.5C12 14.0147 14.0147 12 16.5 12C18.9853 12 21 14.0147 21 16.5C21 17.3805 20.7471 18.202 20.31 18.8957L22.7071 21.2929C23.0976 21.6834 23.0976 22.3166 22.7071 22.7071C22.3166 23.0976 21.6834 23.0976 21.2929 22.7071L18.8957 20.31C18.202 20.7471 17.3805 21 16.5 21C14.0147 21 12 18.9853 12 16.5ZM16.5 14C15.1193 14 14 15.1193 14 16.5C14 17.8807 15.1193 19 16.5 19C17.8807 19 19 17.8807 19 16.5C19 15.1193 17.8807 14 16.5 14Z" fill="black"/>
</svg>
