<svg width="24" height="24" viewBox="0 0 24 24" fill="none" xmlns="http://www.w3.org/2000/svg">
<path d="M10 10.0046C10.5523 10.0046 11 10.4524 11 11.0046V17.0046C11 17.5569 10.5523 18.0046 10 18.0046C9.44772 18.0046 9 17.5569 9 17.0046V11.0046C9 10.4524 9.44772 10.0046 10 10.0046Z" fill="black"/>
<path d="M15 11.0046C15 10.4524 14.5523 10.0046 14 10.0046C13.4477 10.0046 13 10.4524 13 11.0046V17.0046C13 17.5569 13.4477 18.0046 14 18.0046C14.5523 18.0046 15 17.5569 15 17.0046V11.0046Z" fill="black"/>
<path fill-rule="evenodd" clip-rule="evenodd" d="M9.99414 2.00464C8.33729 2.00464 6.99414 3.34779 6.99414 5.00464V5.99863H4C3.44772 5.99863 3 6.44634 3 6.99863C3 7.55091 3.44772 7.99863 4 7.99863H5.01917V19.0046C5.01917 20.6615 6.36231 22.0046 8.01917 22.0046H15.9807C17.6376 22.0046 18.9807 20.6615 18.9807 19.0046V7.99863H20C20.5523 7.99863 21 7.55091 21 6.99863C21 6.44634 20.5523 5.99863 20 5.99863L17.006 5.99863V5.00464C17.006 3.34778 15.6628 2.00464 14.006 2.00464H9.99414ZM15.006 5.99863V5.00464C15.006 4.45235 14.5583 4.00464 14.006 4.00464H9.99414C9.44186 4.00464 8.99414 4.45235 8.99414 5.00464V5.99863H15.006ZM7.01917 7.99863H16.9807V19.0046C16.9807 19.5569 16.533 20.0046 15.9807 20.0046H8.01917C7.46688 20.0046 7.01917 19.5569 7.01917 19.0046V7.99863Z" fill="black"/>
</svg>
