<svg width="24" height="24" viewBox="0 0 24 24" fill="none" xmlns="http://www.w3.org/2000/svg">
<path fill-rule="evenodd" clip-rule="evenodd" d="M9.31027 19.4813C9.01151 20.8381 10.6583 21.7546 11.6539 20.7856L17.6972 14.9044C17.8907 14.7162 17.9998 14.4577 17.9998 14.1878V6C17.9998 4.89543 17.1044 4 15.9998 4H7.47524C6.81592 4 6.20936 4.36047 5.8942 4.93959L1.92579 12.2317C1.20053 13.5644 2.16524 15.1878 3.68251 15.1878H10.2557L9.31027 19.4813ZM15.9998 13.7656L11.6941 17.9558L12.4764 14.4028C12.5416 14.1069 12.4691 13.7974 12.2793 13.5613C12.0894 13.3251 11.8028 13.1878 11.4998 13.1878H3.68251L7.5941 6L15.9998 6V13.7656Z" fill="black"/>
<path d="M19.9998 14C19.9998 14.5523 20.4475 15 20.9998 15C21.5521 15 21.9998 14.5523 21.9998 14V5C21.9998 4.44771 21.5521 4 20.9998 4C20.4475 4 19.9998 4.44771 19.9998 5V14Z" fill="black"/>
</svg>
