<svg width="24" height="24" viewBox="0 0 24 24" fill="none" xmlns="http://www.w3.org/2000/svg">
<path d="M16.7071 11.426L12.7071 15.426C12.3166 15.8166 11.6834 15.8166 11.2929 15.426L7.29289 11.426C6.90237 11.0355 6.90237 10.4024 7.29289 10.0118C7.68342 9.6213 8.31658 9.6213 8.70711 10.0118L11 12.3047V4.3501C11 3.79781 11.4477 3.3501 12 3.3501C12.5523 3.3501 13 3.79781 13 4.3501V12.3047L15.2929 10.0118C15.6834 9.6213 16.3166 9.6213 16.7071 10.0118C17.0976 10.4024 17.0976 11.0355 16.7071 11.426Z" fill="black"/>
<path d="M5 17.3501C5 16.7978 4.55228 16.3501 4 16.3501C3.44772 16.3501 3 16.7978 3 17.3501V19.3501C3 21.007 4.34315 22.3501 6 22.3501H18C19.6569 22.3501 21 21.007 21 19.3501V17.3501C21 16.7978 20.5523 16.3501 20 16.3501C19.4477 16.3501 19 16.7978 19 17.3501V19.3501C19 19.9024 18.5523 20.3501 18 20.3501H6C5.44772 20.3501 5 19.9024 5 19.3501V17.3501Z" fill="black"/>
</svg>
