<svg width="24" height="24" viewBox="0 0 24 24" fill="none" xmlns="http://www.w3.org/2000/svg">
<path d="M4.5 6C5.32843 6 6 5.32843 6 4.5C6 3.67157 5.32843 3 4.5 3C3.67157 3 3 3.67157 3 4.5C3 5.32843 3.67157 6 4.5 6Z" fill="black"/>
<path d="M4.5 16C5.32843 16 6 15.3284 6 14.5C6 13.6716 5.32843 13 4.5 13C3.67157 13 3 13.6716 3 14.5C3 15.3284 3.67157 16 4.5 16Z" fill="black"/>
<path d="M6 19.5C6 20.3284 5.32843 21 4.5 21C3.67157 21 3 20.3284 3 19.5C3 18.6716 3.67157 18 4.5 18C5.32843 18 6 18.6716 6 19.5Z" fill="black"/>
<path d="M4.5 11C5.32843 11 6 10.3284 6 9.5C6 8.67157 5.32843 8 4.5 8C3.67157 8 3 8.67157 3 9.5C3 10.3284 3.67157 11 4.5 11Z" fill="black"/>
<path d="M9.5 6C10.3284 6 11 5.32843 11 4.5C11 3.67157 10.3284 3 9.5 3C8.67157 3 8 3.67157 8 4.5C8 5.32843 8.67157 6 9.5 6Z" fill="black" fill-opacity="0.1"/>
<path d="M14.5 6C15.3284 6 16 5.32843 16 4.5C16 3.67157 15.3284 3 14.5 3C13.6716 3 13 3.67157 13 4.5C13 5.32843 13.6716 6 14.5 6Z" fill="black" fill-opacity="0.1"/>
<path d="M21 4.5C21 5.32843 20.3284 6 19.5 6C18.6716 6 18 5.32843 18 4.5C18 3.67157 18.6716 3 19.5 3C20.3284 3 21 3.67157 21 4.5Z" fill="black" fill-opacity="0.1"/>
<path d="M9.5 16C10.3284 16 11 15.3284 11 14.5C11 13.6716 10.3284 13 9.5 13C8.67157 13 8 13.6716 8 14.5C8 15.3284 8.67157 16 9.5 16Z" fill="black" fill-opacity="0.1"/>
<path d="M16 14.5C16 15.3284 15.3284 16 14.5 16C13.6716 16 13 15.3284 13 14.5C13 13.6716 13.6716 13 14.5 13C15.3284 13 16 13.6716 16 14.5Z" fill="black" fill-opacity="0.1"/>
<path d="M19.5 16C20.3284 16 21 15.3284 21 14.5C21 13.6716 20.3284 13 19.5 13C18.6716 13 18 13.6716 18 14.5C18 15.3284 18.6716 16 19.5 16Z" fill="black" fill-opacity="0.1"/>
<path d="M11 19.5C11 20.3284 10.3284 21 9.5 21C8.67157 21 8 20.3284 8 19.5C8 18.6716 8.67157 18 9.5 18C10.3284 18 11 18.6716 11 19.5Z" fill="black" fill-opacity="0.1"/>
<path d="M14.5 21C15.3284 21 16 20.3284 16 19.5C16 18.6716 15.3284 18 14.5 18C13.6716 18 13 18.6716 13 19.5C13 20.3284 13.6716 21 14.5 21Z" fill="black" fill-opacity="0.1"/>
<path d="M21 19.5C21 20.3284 20.3284 21 19.5 21C18.6716 21 18 20.3284 18 19.5C18 18.6716 18.6716 18 19.5 18C20.3284 18 21 18.6716 21 19.5Z" fill="black" fill-opacity="0.1"/>
<path d="M9.5 11C10.3284 11 11 10.3284 11 9.5C11 8.67157 10.3284 8 9.5 8C8.67157 8 8 8.67157 8 9.5C8 10.3284 8.67157 11 9.5 11Z" fill="black" fill-opacity="0.1"/>
<path d="M16 9.5C16 10.3284 15.3284 11 14.5 11C13.6716 11 13 10.3284 13 9.5C13 8.67157 13.6716 8 14.5 8C15.3284 8 16 8.67157 16 9.5Z" fill="black" fill-opacity="0.1"/>
<path d="M19.5 11C20.3284 11 21 10.3284 21 9.5C21 8.67157 20.3284 8 19.5 8C18.6716 8 18 8.67157 18 9.5C18 10.3284 18.6716 11 19.5 11Z" fill="black" fill-opacity="0.1"/>
</svg>
