<svg width="24" height="24" viewBox="0 0 24 24" fill="none" xmlns="http://www.w3.org/2000/svg">
<path fill-rule="evenodd" clip-rule="evenodd" d="M4 5C4 3.34315 5.34315 2 7 2H12.8265C13.2262 2 13.6093 2.15952 13.891 2.44317L19.5645 8.15778C19.8434 8.43877 20 8.81866 20 9.21461V11.7638C19.4317 11.2546 18.7158 11 18 11V9.98488H15.0093C13.3524 9.98488 12.0093 8.64173 12.0093 6.98487L12.0093 4H7C6.44772 4 6 4.44772 6 5V19C6 19.5523 6.44772 20 7 20H15C15 20.7158 15.2546 21.4317 15.7638 22H7C5.34315 22 4 20.6569 4 19V5ZM14.0093 5.40105L16.5745 7.98488H15.0093C14.457 7.98488 14.0093 7.53716 14.0093 6.98487L14.0093 5.40105Z" fill="black"/>
<path fill-rule="evenodd" clip-rule="evenodd" d="M18.7071 13.2929C18.3166 12.9024 17.6834 12.9024 17.2929 13.2929C16.9024 13.6834 16.9024 14.3166 17.2929 14.7071L18.5858 16H13C12.4477 16 12 16.4477 12 17C12 17.5523 12.4477 18 13 18H18.5858L17.2929 19.2929C16.9024 19.6834 16.9024 20.3166 17.2929 20.7071C17.6834 21.0976 18.3166 21.0976 18.7071 20.7071L21.7071 17.7071C21.7093 17.705 21.7114 17.7028 21.7135 17.7006C21.8907 17.5202 22 17.2729 22 17C22 16.7235 21.8878 16.4732 21.7064 16.2922M21.7064 16.2922L18.7071 13.2929L21.7064 16.2922Z" fill="black"/>
</svg>
