<svg width="24" height="24" viewBox="0 0 24 24" fill="none" xmlns="http://www.w3.org/2000/svg">
<path fill-rule="evenodd" clip-rule="evenodd" d="M7 2.00464C5.34 2.00464 4 3.34464 4 5.00464V19.0046C4 20.6646 5.34 22.0046 7 22.0046H12.828L12.33 21.1746C12.1094 20.807 11.9917 20.4057 11.9713 20.0046H7C6.45 20.0046 6 19.5546 6 19.0046V5.00464C6 4.45464 6.45 4.00464 7 4.00464H12.01V6.98464C12.01 8.64464 13.35 9.98464 15.01 9.98464H18V11.9946H19.22C19.4905 11.9946 19.753 12.0391 20 12.1215V9.21464C20 8.81464 19.84 8.43464 19.56 8.15464L13.89 2.44464C13.61 2.16464 13.23 2.00464 12.83 2.00464H7ZM16.57 7.98464L14 5.40464V6.98464C14 7.53464 14.45 7.98464 15 7.98464H16.57Z" fill="black"/>
<path fill-rule="evenodd" clip-rule="evenodd" d="M19.22 14.0146C19.46 14.0146 19.67 14.1946 19.71 14.4446L19.84 15.3646C20.11 15.4746 20.37 15.6146 20.6 15.7846L21.52 15.4246C21.75 15.3346 22 15.4246 22.13 15.6346L22.88 16.8846C23.01 17.1046 22.96 17.3946 22.75 17.5446L21.98 18.1146C22 18.2446 22 18.3846 22 18.5146C22 18.6446 22 18.7846 21.98 18.9146L22.75 19.4846C22.96 19.6346 23.01 19.9246 22.88 20.1446L22.13 21.3946C22 21.6046 21.75 21.6946 21.52 21.6046L20.6 21.2446C20.37 21.4146 20.11 21.5546 19.84 21.6646L19.71 22.5846C19.68 22.8346 19.47 23.0146 19.22 23.0146H17.71C17.47 23.0146 17.26 22.8346 17.22 22.5846L17.09 21.6646C16.82 21.5546 16.56 21.4146 16.33 21.2446L15.41 21.6046C15.18 21.6946 14.93 21.6046 14.8 21.3946L14.05 20.1446C13.92 19.9246 13.97 19.6346 14.18 19.4846L14.95 18.9146C14.93 18.7847 14.93 18.6447 14.93 18.5147C14.93 18.3847 14.93 18.2446 14.95 18.1146L14.18 17.5446C13.97 17.3946 13.92 17.1046 14.05 16.8846L14.8 15.6346C14.93 15.4246 15.18 15.3346 15.41 15.4246L16.33 15.7846C16.56 15.6146 16.82 15.4746 17.09 15.3646L17.22 14.4446C17.25 14.1946 17.46 14.0146 17.71 14.0146H19.22ZM19.56 18.5146C19.56 19.1246 19.07 19.6146 18.46 19.6146C17.85 19.6146 17.36 19.1246 17.36 18.5146C17.36 17.9046 17.85 17.4146 18.46 17.4146C19.07 17.4146 19.56 17.9046 19.56 18.5146Z" fill="black"/>
</svg>
