<svg width="24" height="24" viewBox="0 0 24 24" fill="none" xmlns="http://www.w3.org/2000/svg">
<path fill-rule="evenodd" clip-rule="evenodd" d="M7 2.00464C5.34315 2.00464 4 3.34778 4 5.00464V11.0046H6V5.00464C6 4.45235 6.44772 4.00464 7 4.00464H12.0093L12.0093 6.98952C12.0093 8.64638 13.3524 9.98953 15.0093 9.98953H18V11.0046H20V9.21925C20 8.8233 19.8434 8.44341 19.5645 8.16242L13.891 2.44781C13.6093 2.16416 13.2262 2.00464 12.8265 2.00464H7ZM16.5746 7.98953L14.0093 5.40569L14.0093 6.98953C14.0093 7.54181 14.457 7.98953 15.0093 7.98953H16.5746Z" fill="black"/>
<path fill-rule="evenodd" clip-rule="evenodd" d="M4 19.0046V15.0046H2C1.44772 15.0046 1 14.5569 1 14.0046C1 13.4524 1.44772 13.0046 2 13.0046H22C22.5523 13.0046 23 13.4524 23 14.0046C23 14.5569 22.5523 15.0046 22 15.0046H20V19.0046C20 20.6615 18.6569 22.0046 17 22.0046H7C5.34315 22.0046 4 20.6615 4 19.0046ZM18 15.0046H6V19.0046C6 19.5569 6.44772 20.0046 7 20.0046H17C17.5523 20.0046 18 19.5569 18 19.0046V15.0046Z" fill="black"/>
</svg>
