<svg width="24" height="24" viewBox="0 0 24 24" fill="none" xmlns="http://www.w3.org/2000/svg">
<path fill-rule="evenodd" clip-rule="evenodd" d="M7 2.00464C5.34315 2.00464 4 3.34778 4 5.00464V19.0046C4 20.6615 5.34315 22.0046 7 22.0046H12.8027C12.4513 21.3973 12.2034 20.7226 12.083 20.0046H7C6.44772 20.0046 6 19.5569 6 19.0046V5.00464C6 4.45235 6.44772 4.00464 7 4.00464H12.0093L12.0093 6.98949C12.0093 8.64635 13.3524 9.9895 15.0093 9.9895H18L18 13.0046C18.7013 13.0046 19.3744 13.1249 20 13.3461V9.21925C20 8.8233 19.8434 8.44341 19.5645 8.16242L13.891 2.44781C13.6093 2.16416 13.2262 2.00464 12.8265 2.00464H7ZM16.5745 7.9895L14.0093 5.40569L14.0093 6.9895C14.0093 7.54178 14.457 7.9895 15.0093 7.9895H16.5745Z" fill="black"/>
<path fill-rule="evenodd" clip-rule="evenodd" d="M22 19.0046C22 21.2138 20.2091 23.0046 18 23.0046C15.7909 23.0046 14 21.2138 14 19.0046C14 16.7955 15.7909 15.0046 18 15.0046C20.2091 15.0046 22 16.7955 22 19.0046ZM18 16.5046C18.2761 16.5046 18.5 16.7285 18.5 17.0046V18.7975L19.8536 20.1511C20.0488 20.3463 20.0488 20.6629 19.8536 20.8582C19.6583 21.0535 19.3417 21.0535 19.1464 20.8582L17.6464 19.3582C17.5527 19.2644 17.5 19.1372 17.5 19.0046V17.0046C17.5 16.7285 17.7239 16.5046 18 16.5046Z" fill="black"/>
</svg>
