<svg width="24" height="24" viewBox="0 0 24 24" fill="none" xmlns="http://www.w3.org/2000/svg">
<path fill-rule="evenodd" clip-rule="evenodd" d="M6 2.00464C4.34315 2.00464 3 3.34778 3 5.00464V19.0046C3 20.6615 4.34315 22.0046 6 22.0046H11.0108C11.0036 21.9322 11 21.8588 11 21.7845L11 20.2868C11 20.1921 11.0053 20.0979 11.0157 20.0046H6C5.44772 20.0046 5 19.5569 5 19.0046V5.00464C5 4.45235 5.44772 4.00464 6 4.00464H11.0093L11.0093 6.98949C11.0093 8.64635 12.3524 9.9895 14.0093 9.9895H17V13.2305L18.4788 11.7516C18.6384 11.5921 18.8138 11.4581 19 11.3497V9.21925C19 8.8233 18.8434 8.44341 18.5645 8.16242L12.891 2.44781C12.6093 2.16416 12.2262 2.00464 11.8265 2.00464H6ZM13.0093 6.9895L13.0093 5.40569L15.5745 7.9895H14.0093C13.457 7.9895 13.0093 7.54178 13.0093 6.9895Z" fill="black"/>
<path d="M8.5 13.0046C9.32843 13.0046 10 12.3331 10 11.5046C10 10.6762 9.32843 10.0046 8.5 10.0046C7.67157 10.0046 7 10.6762 7 11.5046C7 12.3331 7.67157 13.0046 8.5 13.0046Z" fill="black"/>
<path d="M10 16.5046C10 17.3331 9.32843 18.0046 8.5 18.0046C7.67157 18.0046 7 17.3331 7 16.5046C7 15.6762 7.67157 15.0046 8.5 15.0046C9.32843 15.0046 10 15.6762 10 16.5046Z" fill="black"/>
<path d="M21.8388 14.3333C22.0537 14.5482 22.0537 14.8967 21.8388 15.1116L20.8264 16.124L18.8807 14.1782L19.8931 13.1658C20.108 12.9509 20.4564 12.9509 20.6714 13.1658L21.8388 14.3333Z" fill="black"/>
<path d="M18.1736 14.8853L20.1193 16.8311L15.107 21.8434C15.0038 21.9467 14.8638 22.0046 14.7178 22.0046L13.2201 22.0046C13.0986 22.0046 13 21.9061 13 21.7845L13 20.2868C13 20.1409 13.058 20.0009 13.1612 19.8977L18.1736 14.8853Z" fill="black"/>
</svg>
