<svg width="24" height="24" viewBox="0 0 24 24" fill="none" xmlns="http://www.w3.org/2000/svg">
<path fill-rule="evenodd" clip-rule="evenodd" d="M6 22C3.79086 22 2 20.2091 2 18V6C2 3.79086 3.79086 2 6 2H18C20.2091 2 22 3.79086 22 6V10H10V20H14V22H6ZM18 4H6C4.89543 4 4 4.89543 4 6V8H20V6C20 4.89543 19.1046 4 18 4ZM4 10V18C4 19.1046 4.89543 20 6 20H8V10H4Z" fill="black"/>
<path fill-rule="evenodd" clip-rule="evenodd" d="M14.2434 11C13.385 11 12.6575 11.4504 12.2779 12.1132C11.8982 12.7763 11.8804 13.6417 12.3954 14.3585L15 18.3344V20.5C15 21.524 15.7972 23 17.5 23C19.2028 23 20 21.524 20 20.5V18.3005L22.6033 14.3603C23.1196 13.6431 23.1021 12.7769 22.7221 12.1132C22.3425 11.4503 21.615 11 20.7566 11H14.2434ZM14.0219 13.1947C13.9999 13.1649 14 13.1509 14 13.1495C13.9998 13.1445 14.0006 13.1295 14.0135 13.107C14.0377 13.0648 14.104 13 14.2434 13H20.7566C20.896 13 20.9623 13.0648 20.9865 13.107C20.9994 13.1295 21.0002 13.1444 21 13.1494C21 13.1508 21.0001 13.1649 20.9781 13.1947C20.9674 13.2091 20.9571 13.2237 20.9473 13.2387L18.1657 17.4487C18.0576 17.6123 18 17.804 18 18V20.5C18 20.5804 17.9593 20.7268 17.8615 20.8425C17.7846 20.9333 17.6806 21 17.5 21C17.3194 21 17.2154 20.9333 17.1385 20.8425C17.0407 20.7268 17 20.5804 17 20.5V18.036C17 17.8413 16.9432 17.6509 16.8365 17.488L14.0549 13.2419C14.0443 13.2259 14.0334 13.2101 14.0219 13.1947Z" fill="black"/>
</svg>
