<svg width="24" height="24" viewBox="0 0 24 24" fill="none" xmlns="http://www.w3.org/2000/svg">
<path d="M1 4C1.55228 4 2 4.44772 2 5V19C2 19.5523 1.55228 20 1 20C0.447715 20 0 19.5523 0 19V5C0 4.44772 0.447715 4 1 4Z" fill="black"/>
<path d="M15.7801 7.25257C16.1929 6.88565 16.8249 6.92283 17.1918 7.33562L20.7474 11.3356C21.0842 11.7145 21.0842 12.2855 20.7474 12.6643L17.1918 16.6643C16.8249 17.0771 16.1928 17.1143 15.7801 16.7474C15.3673 16.3805 15.3301 15.7484 15.697 15.3356L17.7731 13L6.22682 13L8.30295 15.3357C8.66987 15.7484 8.63268 16.3805 8.2199 16.7474C7.80712 17.1143 7.17505 17.0772 6.80813 16.6644L3.25259 12.6644C2.9158 12.2855 2.9158 11.7145 3.25259 11.3356L6.80812 7.33564C7.17504 6.92286 7.80711 6.88568 8.21989 7.25259C8.63268 7.61951 8.66986 8.25158 8.30294 8.66437L6.22685 11L17.7731 11L15.697 8.66434C15.3301 8.25155 15.3673 7.61948 15.7801 7.25257Z" fill="black"/>
<path d="M24 5C24 4.44772 23.5523 4 23 4C22.4477 4 22 4.44772 22 5V19C22 19.5523 22.4477 20 23 20C23.5523 20 24 19.5523 24 19V5Z" fill="black"/>
</svg>
