<svg width="24" height="24" viewBox="0 0 24 24" fill="none" xmlns="http://www.w3.org/2000/svg">
<path d="M12 1C12.5523 1 13 1.44772 13 2V3C13 3.55228 12.5523 4 12 4C11.4477 4 11 3.55228 11 3V2C11 1.44772 11.4477 1 12 1Z" fill="black"/>
<path d="M7.14665 2.56758C6.75613 2.95811 6.75613 3.59127 7.14665 3.9818L7.85376 4.6889C8.24428 5.07943 8.87745 5.07943 9.26797 4.6889C9.6585 4.29838 9.6585 3.66521 9.26797 3.27469L8.56087 2.56758C8.17034 2.17706 7.53718 2.17706 7.14665 2.56758Z" fill="black"/>
<path d="M16.8533 3.9818L16.1462 4.6889C15.7557 5.07943 15.1226 5.07943 14.732 4.6889C14.3415 4.29838 14.3415 3.66521 14.732 3.27469L15.4391 2.56758C15.8297 2.17706 16.4628 2.17706 16.8533 2.56758C17.2439 2.95811 17.2439 3.59127 16.8533 3.9818Z" fill="black"/>
<path d="M12 17C12.5523 17 13 16.5523 13 16C13 15.4477 12.5523 15 12 15C11.4477 15 11 15.4477 11 16C11 16.5523 11.4477 17 12 17Z" fill="black"/>
<path fill-rule="evenodd" clip-rule="evenodd" d="M8 6C6.89543 6 6 6.89543 6 8V11C6 11.1974 6.05844 11.3904 6.16795 11.5547L8 14.3028V21C8 22.1046 8.89543 23 10 23H14C15.1046 23 16 22.1046 16 21V14.3028L17.8321 11.5547C17.9416 11.3904 18 11.1974 18 11V8C18 6.89543 17.1046 6 16 6H8ZM16 8V10.6972L14.1679 13.4453C14.0584 13.6096 14 13.8026 14 14V21H10V14C10 13.8026 9.94156 13.6096 9.83205 13.4453L8 10.6972V8H16Z" fill="black"/>
</svg>
