<svg width="24" height="24" viewBox="0 0 24 24" fill="none" xmlns="http://www.w3.org/2000/svg">
<path d="M8.79289 14.5716L11.2929 17.0716C11.6834 17.4621 12.3166 17.4621 12.7071 17.0716L15.2071 14.5716C15.5976 14.1811 15.5976 13.5479 15.2071 13.1574C14.8166 12.7669 14.1834 12.7669 13.7929 13.1574L13 13.9503V9.8127C13 9.26042 12.5523 8.8127 12 8.8127C11.4477 8.8127 11 9.26042 11 9.8127V13.9503L10.2071 13.1574C9.81658 12.7669 9.18342 12.7669 8.79289 13.1574C8.40237 13.5479 8.40237 14.1811 8.79289 14.5716Z" fill="black"/>
<path fill-rule="evenodd" clip-rule="evenodd" d="M5.00116 3C3.31919 3 2 4.39218 2 6.05414V17.9459C2 19.6078 3.31919 21 5.00116 21H18.9988C20.6808 21 22 19.6078 22 17.9459V8.10041C22 6.43845 20.6808 5.04627 18.9988 5.04627H12.4346L11.3576 3.95929C10.7516 3.34757 9.93008 3 9.06885 3H5.00116ZM4 6.05414C4 5.44716 4.47271 5 5.00116 5H9.06885C9.38863 5 9.70088 5.12872 9.93691 5.36695L11.3073 6.7501C11.4951 6.93964 11.7509 7.04627 12.0177 7.04627H18.9988C19.5273 7.04627 20 7.49343 20 8.10041V17.9459C20 18.5528 19.5273 19 18.9988 19H5.00116C4.47271 19 4 18.5528 4 17.9459V6.05414Z" fill="black"/>
</svg>
