<svg width="24" height="24" viewBox="0 0 24 24" fill="none" xmlns="http://www.w3.org/2000/svg">
<path d="M3 6C3 4.34315 4.34315 3 6 3H18C19.6569 3 21 4.34315 21 6V8.39241C20.4905 7.54691 19.8074 6.81787 19 6.25469V6C19 5.44772 18.5523 5 18 5H6C5.44772 5 5 5.44772 5 6V14C5 14.5523 5.44772 15 6 15H8.67363C9.19873 16.1054 10.005 17.0513 11 17.7453V19C12.6667 19 14.3333 19 16 19C16.5523 19 17 19.4477 17 20C17 20.5523 16.5523 21 16 21H8C7.44772 21 7 20.5523 7 20C7 19.4477 7.44772 19 8 19H9V17H6C4.34315 17 3 15.6569 3 14V6Z" fill="black"/>
<path fill-rule="evenodd" clip-rule="evenodd" d="M10 12C10 9.23858 12.2386 7 15 7C17.7614 7 20 9.23858 20 12C20 13.0191 19.6951 13.967 19.1716 14.7574L21.7071 17.2929C22.0976 17.6834 22.0976 18.3166 21.7071 18.7071C21.3166 19.0976 20.6834 19.0976 20.2929 18.7071L17.7574 16.1716C16.967 16.6951 16.0191 17 15 17C12.2386 17 10 14.7614 10 12ZM15 9C13.3431 9 12 10.3431 12 12C12 13.6569 13.3431 15 15 15C16.6569 15 18 13.6569 18 12C18 10.3431 16.6569 9 15 9Z" fill="black"/>
</svg>
