<svg width="24" height="24" viewBox="0 0 24 24" fill="none" xmlns="http://www.w3.org/2000/svg">
<path d="M7.99561 8.36511C8.54789 8.36511 8.99561 8.81283 8.99561 9.36511V10.0065H9.63672C10.189 10.0065 10.6367 10.4542 10.6367 11.0065C10.6367 11.5588 10.189 12.0065 9.63672 12.0065H8.99561V12.648C8.99561 13.2003 8.54789 13.648 7.99561 13.648C7.44332 13.648 6.99561 13.2003 6.99561 12.648V12.0065H6.35379C5.80151 12.0065 5.35379 11.5588 5.35379 11.0065C5.35379 10.4542 5.80151 10.0065 6.35379 10.0065H6.99561V9.36511C6.99561 8.81283 7.44332 8.36511 7.99561 8.36511Z" fill="black"/>
<path d="M18.2112 9.00694C18.2112 9.5903 17.7383 10.0632 17.1549 10.0632C16.5715 10.0632 16.0986 9.5903 16.0986 9.00694C16.0986 8.42359 16.5715 7.95068 17.1549 7.95068C17.7383 7.95068 18.2112 8.42359 18.2112 9.00694Z" fill="black"/>
<path d="M15.0423 13.2159C15.6257 13.2159 16.0986 12.743 16.0986 12.1596C16.0986 11.5762 15.6257 11.1033 15.0423 11.1033C14.459 11.1033 13.9861 11.5762 13.9861 12.1596C13.9861 12.743 14.459 13.2159 15.0423 13.2159Z" fill="black"/>
<path fill-rule="evenodd" clip-rule="evenodd" d="M2 8.787C2 6.14055 4.15068 4 6.79772 4H17.2023C19.8493 4 22 6.14055 22 8.787V15.532C22 18.0023 19.9925 20 17.5222 20C15.7087 20 14.1476 18.9241 13.4439 17.3788C13.4041 17.2915 13.3511 17.2299 13.3092 17.1976C13.2896 17.1824 13.2775 17.1771 13.2723 17.1755H10.7277C10.7225 17.1771 10.7104 17.1824 10.6908 17.1976C10.6489 17.2299 10.5959 17.2915 10.5561 17.3788C9.85244 18.9241 8.29129 20 6.47781 20C4.00745 20 2 18.0023 2 15.532V8.787ZM6.79772 6C5.24992 6 4 7.25045 4 8.787V15.532C4 16.8924 5.10668 18 6.47781 18C7.48138 18 8.34614 17.406 8.73597 16.5499C9.03805 15.8866 9.72632 15.1755 10.7253 15.1755H13.2747C14.2737 15.1755 14.9619 15.8866 15.264 16.5499C15.6539 17.406 16.5186 18 17.5222 18C18.8933 18 20 16.8924 20 15.532V8.787C20 7.25045 18.7501 6 17.2023 6H6.79772Z" fill="black"/>
</svg>
