<svg width="24" height="24" viewBox="0 0 24 24" fill="none" xmlns="http://www.w3.org/2000/svg">
<path d="M11 10.5C11 11.3284 10.3284 12 9.5 12C8.67157 12 8 11.3284 8 10.5C8 9.67157 8.67157 9 9.5 9C10.3284 9 11 9.67157 11 10.5Z" fill="black"/>
<path d="M14.5 12C15.3284 12 16 11.3284 16 10.5C16 9.67157 15.3284 9 14.5 9C13.6716 9 13 9.67157 13 10.5C13 11.3284 13.6716 12 14.5 12Z" fill="black"/>
<path fill-rule="evenodd" clip-rule="evenodd" d="M4 10C4 5.58172 7.58172 2 12 2C16.4183 2 20 5.58172 20 10V21C20 21.5523 19.5523 22 19 22H10C6.68629 22 4 19.3137 4 16V10ZM12 4C8.68629 4 6 6.68629 6 10V16C6 18.2091 7.79086 20 10 20H18V10C18 6.68629 15.3137 4 12 4Z" fill="black"/>
</svg>
