<svg width="24" height="24" viewBox="0 0 24 24" fill="none" xmlns="http://www.w3.org/2000/svg">
<path d="M22.0001 12.2222C22.0001 11.4 21.932 10.8 21.7847 10.1777H12.2041V13.8888H17.8277C17.7143 14.8111 17.1021 16.2 15.7415 17.1333L15.7224 17.2575L18.7516 19.5572L18.9615 19.5778C20.8889 17.8333 22.0001 15.2666 22.0001 12.2222Z" fill="#4285F4"/>
<path d="M12.2043 22C14.9594 22 17.2723 21.1111 18.9617 19.5778L15.7418 17.1333C14.8801 17.7222 13.7236 18.1333 12.2043 18.1333C9.50594 18.1333 7.21569 16.3889 6.39928 13.9778L6.27961 13.9877L3.12981 16.3766L3.08862 16.4889C4.76662 19.7555 8.21336 22 12.2043 22Z" fill="#34A853"/>
<path d="M6.39907 13.9777C6.18366 13.3554 6.05899 12.6887 6.05899 11.9999C6.05899 11.3109 6.18366 10.6443 6.38774 10.0221L6.38203 9.88956L3.19276 7.46228L3.08842 7.51092C2.39683 8.8665 2 10.3888 2 11.9999C2 13.611 2.39683 15.1332 3.08842 16.4887L6.39907 13.9777Z" fill="#FBBC05"/>
<path d="M12.2043 5.86666C14.1204 5.86666 15.4129 6.67777 16.1499 7.35559L19.0297 4.60001C17.2611 2.9889 14.9594 2 12.2043 2C8.21336 2 4.76662 4.24444 3.08862 7.51109L6.38795 10.0222C7.21569 7.61113 9.50594 5.86666 12.2043 5.86666Z" fill="#EB4335"/>
<path d="M22 12.2222C22 11.4 21.9319 10.8 21.7846 10.1778H12.2041V13.8889H17.8276C17.7143 14.8111 17.102 16.2 15.7415 17.1333L15.7224 17.2575L18.7516 19.5573L18.9614 19.5778C20.8888 17.8333 22 15.2667 22 12.2222Z" fill="#4285F4"/>
<path d="M12.2043 22C14.9594 22 17.272 21.1111 18.9614 19.5778L15.7415 17.1333C14.8798 17.7222 13.7235 18.1333 12.2043 18.1333C9.50591 18.1333 7.21568 16.3889 6.39928 13.9778L6.27961 13.9877L3.12983 16.3766L3.08864 16.4888C4.76663 19.7555 8.21335 22 12.2043 22Z" fill="#34A853"/>
<path d="M6.39928 13.9778C6.18386 13.3556 6.05896 12.6889 6.05896 12C6.05896 11.3111 6.18363 10.6444 6.38771 10.0222L6.38201 9.88969L3.19276 7.46242L3.08841 7.51106C2.39683 8.86664 2 10.3889 2 12C2 13.6111 2.39706 15.1333 3.08864 16.4888L6.39928 13.9778Z" fill="#FBBC05"/>
<path d="M12.2043 5.86665C14.1204 5.86665 15.4129 6.67775 16.1499 7.35558L19.0297 4.6C17.261 2.98889 14.9594 2 12.2043 2C8.21334 2 4.7664 4.24442 3.08841 7.51106L6.38771 10.0222C7.21545 7.6111 9.50591 5.86665 12.2043 5.86665Z" fill="#EB4335"/>
</svg>
