<svg width="24" height="24" viewBox="0 0 24 24" fill="none" xmlns="http://www.w3.org/2000/svg">
<path d="M19 18C19 18.5523 18.5523 19 18 19H10.6667C10.1144 19 9.66667 19.4477 9.66667 20C9.66667 20.5523 10.1144 21 10.6667 21H18C19.6569 21 21 19.6569 21 18V6C21 4.34315 19.6569 3 18 3H6C4.34315 3 3 4.34314 3 6V13.3333C3 13.8856 3.44772 14.3333 4 14.3333C4.55228 14.3333 5 13.8856 5 13.3333V6C5 5.44771 5.44771 5 6 5H18C18.5523 5 19 5.44771 19 6V18Z" fill="black"/>
<path d="M5.29289 17.2929C4.90237 17.6834 4.90237 18.3166 5.29289 18.7071C5.68342 19.0976 6.31658 19.0976 6.70711 18.7071L14 11.4142V14.3333C14 14.8856 14.4477 15.3333 15 15.3333C15.5523 15.3333 16 14.8856 16 14.3333V9C16 8.44771 15.5523 8 15 8H9.66667C9.11438 8 8.66667 8.44771 8.66667 9C8.66667 9.55229 9.11438 10 9.66667 10H12.5858L5.29289 17.2929Z" fill="black"/>
</svg>
