<svg width="24" height="24" viewBox="0 0 24 24" fill="none" xmlns="http://www.w3.org/2000/svg">
<path fill-rule="evenodd" clip-rule="evenodd" d="M14.0141 9.17071V5C14.0141 3.34315 12.671 2 11.0141 2C9.35726 2 8.01412 3.34315 8.01412 5V12.8958L6.64904 11.784C5.51249 10.8584 3.85988 10.9427 2.82339 11.9791C1.70731 13.0952 1.7073 14.9048 2.82339 16.0209L7.63097 20.8284C8.38111 21.5786 9.39853 22 10.4594 22H16.8891C19.7196 22 22.0141 19.7055 22.0141 16.875V12C22.0141 10.3431 20.671 9 19.0141 9C18.2458 9 17.5449 9.28885 17.0141 9.7639C16.4834 9.28885 15.7825 9 15.0141 9C14.6635 9 14.3269 9.06015 14.0141 9.17071ZM11.0141 4C10.4618 4 10.0141 4.44772 10.0141 5V15C10.0141 15.386 9.79198 15.7375 9.44336 15.9032C9.09474 16.0689 8.6819 16.0191 8.38261 15.7754L5.38603 13.3348C5.04485 13.0569 4.54875 13.0822 4.23761 13.3934C3.90257 13.7284 3.90257 14.2716 4.23761 14.6066L9.04518 19.4142C9.42025 19.7893 9.92896 20 10.4594 20H16.8891C18.615 20 20.0141 18.6009 20.0141 16.875V12C20.0141 11.4477 19.5664 11 19.0141 11C18.4618 11 18.0141 11.4477 18.0141 12V13C18.0141 13.5523 17.5664 14 17.0141 14C16.4618 14 16.0141 13.5523 16.0141 13V12C16.0141 11.4477 15.5664 11 15.0141 11C14.4618 11 14.0141 11.4477 14.0141 12V13C14.0141 13.5523 13.5664 14 13.0141 14C12.4618 14 12.0141 13.5523 12.0141 13V5C12.0141 4.44772 11.5664 4 11.0141 4Z" fill="black"/>
</svg>
