<svg width="24" height="24" viewBox="0 0 24 24" fill="none" xmlns="http://www.w3.org/2000/svg">
<path d="M7 6C6.44772 6 6 6.51167 6 7.14286V12.8571C6 13.4883 6.44771 14 7 14H17C17.5523 14 18 13.4883 18 12.8571V7.14286C18 6.51167 17.5523 6 17 6H7Z" fill="black"/>
<path fill-rule="evenodd" clip-rule="evenodd" d="M5 2C3.34315 2 2 3.38647 2 5.09677V14.9032C2 16.6135 3.34315 18 5 18H10.875V20H7.5C6.94772 20 6.5 20.4477 6.5 21C6.5 21.5523 6.94772 22 7.5 22H16.5C17.0523 22 17.5 21.5523 17.5 21C17.5 20.4477 17.0523 20 16.5 20H13.125V18H19C20.6569 18 22 16.6135 22 14.9032V5.09677C22 3.38647 20.6569 2 19 2H5ZM4 5.09677C4 4.52667 4.44771 4.06452 5 4.06452H19C19.5523 4.06452 20 4.52667 20 5.09677V14.9032C20 15.4733 19.5523 15.9355 19 15.9355H5C4.44772 15.9355 4 15.4733 4 14.9032V5.09677Z" fill="black"/>
</svg>
