<svg width="24" height="24" viewBox="0 0 24 24" fill="none" xmlns="http://www.w3.org/2000/svg">
<path d="M5.07032 8H2.83215C4.37527 4.46819 7.89943 2 12.0001 2C16.1007 2 19.6249 4.46819 21.168 8H18.9298C18.143 6.63979 16.9671 5.53275 15.5545 4.83099C15.6194 4.96122 15.682 5.09431 15.7423 5.2299C16.1024 6.04022 16.3949 6.9765 16.6069 8H14.5584C14.3848 7.26765 14.1663 6.60826 13.9147 6.04218C13.5867 5.30422 13.2221 4.76892 12.8677 4.43166C12.5184 4.0993 12.227 4 12.0001 4C11.7732 4 11.4817 4.0993 11.1325 4.43166C10.7781 4.76892 10.4134 5.30422 10.0855 6.04218C9.83386 6.60826 9.61538 7.26765 9.4417 8H7.39324C7.60521 6.9765 7.89768 6.04022 8.25783 5.2299C8.31809 5.09431 8.3807 4.96122 8.44568 4.83099C7.03298 5.53275 5.85716 6.63979 5.07032 8Z" fill="black"/>
<path d="M18.9298 16H21.168C19.6249 19.5318 16.1007 22 12.0001 22C7.89943 22 4.37527 19.5318 2.83215 16H5.07032C5.85716 17.3602 7.03298 18.4672 8.44568 19.169C8.3807 19.0388 8.31809 18.9057 8.25783 18.7701C7.89768 17.9598 7.60521 17.0235 7.39324 16H9.4417C9.61538 16.7324 9.83386 17.3917 10.0855 17.9578C10.4134 18.6958 10.7781 19.2311 11.1325 19.5683C11.4817 19.9007 11.7732 20 12.0001 20C12.227 20 12.5184 19.9007 12.8677 19.5683C13.2221 19.2311 13.5867 18.6958 13.9147 17.9578C14.1663 17.3917 14.3848 16.7324 14.5584 16H16.6069C16.3949 17.0235 16.1024 17.9598 15.7423 18.7701C15.682 18.9057 15.6194 19.0388 15.5545 19.169C16.9671 18.4672 18.143 17.3602 18.9298 16Z" fill="black"/>
<path d="M2.45654 9.68738C2.45654 9.27317 2.12076 8.93738 1.70654 8.93738C1.29233 8.93738 0.956543 9.27317 0.956543 9.68738V14.2949C0.956543 14.7091 1.29233 15.0449 1.70654 15.0449C2.12076 15.0449 2.45654 14.7091 2.45654 14.2949V12.75L4.51135 12.75V14.3038C4.51135 14.718 4.84714 15.0538 5.26135 15.0538C5.67557 15.0538 6.01135 14.718 6.01135 14.3038V9.69629C6.01135 9.28208 5.67557 8.94629 5.26135 8.94629C4.84714 8.94629 4.51135 9.28208 4.51135 9.69629V11.25L2.45654 11.25V9.68738Z" fill="black"/>
<path d="M7.73267 8.94629C7.31845 8.94629 6.98267 9.28207 6.98267 9.69629C6.98267 10.1105 7.31845 10.4463 7.73267 10.4463H8.50854V14.3038C8.50854 14.718 8.84433 15.0538 9.25854 15.0538C9.67276 15.0538 10.0085 14.718 10.0085 14.3038V10.4463L10.7843 10.4463C11.1985 10.4463 11.5343 10.1105 11.5343 9.69629C11.5343 9.28208 11.1985 8.94629 10.7843 8.94629L7.73267 8.94629Z" fill="black"/>
<path d="M13.2404 8.93738C12.8261 8.93738 12.4904 9.27316 12.4904 9.68738C12.4904 10.1016 12.8261 10.4374 13.2404 10.4374H14.0162V14.2949C14.0162 14.7091 14.352 15.0449 14.7662 15.0449C15.1804 15.0449 15.5162 14.7091 15.5162 14.2949V10.4374L16.292 10.4374C16.7062 10.4374 17.042 10.1016 17.042 9.68738C17.042 9.27317 16.7062 8.93738 16.292 8.93738H13.2404Z" fill="black"/>
<path fill-rule="evenodd" clip-rule="evenodd" d="M18.7482 8.93738C18.7661 8.93738 18.7839 8.93801 18.8016 8.93925C18.8192 8.93801 18.837 8.93738 18.855 8.93738H21.2572C22.2237 8.93738 23.0072 9.72088 23.0072 10.6874V11.2657C23.0072 12.2322 22.2237 13.0157 21.2572 13.0157H19.4982V14.2949C19.4982 14.7091 19.1624 15.0449 18.7482 15.0449C18.334 15.0449 17.9982 14.7091 17.9982 14.2949V9.68738C17.9982 9.27317 18.334 8.93738 18.7482 8.93738ZM21.2572 11.5157H19.4982V10.4374H21.2572C21.3953 10.4374 21.5072 10.5493 21.5072 10.6874V11.2657C21.5072 11.4038 21.3953 11.5157 21.2572 11.5157Z" fill="black"/>
</svg>
