<svg width="24" height="24" viewBox="0 0 24 24" fill="none" xmlns="http://www.w3.org/2000/svg">
<path fill-rule="evenodd" clip-rule="evenodd" d="M11.9826 4C9.98963 4 8.37402 5.6156 8.37402 7.60855C8.37402 9.60149 9.98963 11.2171 11.9826 11.2171C13.9755 11.2171 15.5911 9.60149 15.5911 7.60855C15.5911 5.6156 13.9755 4 11.9826 4ZM10.374 7.60855C10.374 6.72017 11.0942 6 11.9826 6C12.8709 6 13.5911 6.72017 13.5911 7.60855C13.5911 8.49692 12.8709 9.2171 11.9826 9.2171C11.0942 9.2171 10.374 8.49692 10.374 7.60855Z" fill="black"/>
<path fill-rule="evenodd" clip-rule="evenodd" d="M6 1C4.34315 1 3 2.34315 3 4V16C3 17.6569 4.34315 19 6 19H18C19.6569 19 21 17.6569 21 16V4C21 2.34315 19.6569 1 18 1H6ZM5 4C5 3.44772 5.44772 3 6 3H18C18.5523 3 19 3.44772 19 4V16C19 16.5523 18.5523 17 18 17V16C18 13.7909 16.2091 12 14 12H10C7.79086 12 6 13.7909 6 16V17C5.44772 17 5 16.5523 5 16V4ZM16 16V17H8V16C8 14.8954 8.89543 14 10 14H14C15.1046 14 16 14.8954 16 16Z" fill="black"/>
<path d="M6 20C5.44772 20 5 20.4477 5 21C5 21.5523 5.44772 22 6 22H18C18.5523 22 19 21.5523 19 21C19 20.4477 18.5523 20 18 20H6Z" fill="black"/>
</svg>
