<svg width="24" height="24" viewBox="0 0 24 24" fill="none" xmlns="http://www.w3.org/2000/svg">
<path d="M10 3.71429C10 3.3198 10.2985 3 10.6667 3H13.3333C13.7015 3 14 3.3198 14 3.71429V5.85714C14 7.04061 13.1046 8 12 8C10.8954 8 10 7.04061 10 5.85714V3.71429Z" fill="black"/>
<path d="M6.75 13C6.75 12.8619 6.86193 12.75 7 12.75H10C10.1381 12.75 10.25 12.8619 10.25 13V16C10.25 16.1381 10.1381 16.25 10 16.25H7C6.86193 16.25 6.75 16.1381 6.75 16V13Z" fill="black"/>
<path fill-rule="evenodd" clip-rule="evenodd" d="M8.5 5H6C3.79086 5 2 6.79086 2 9V18C2 20.2091 3.79086 22 6 22H18C20.2091 22 22 20.2091 22 18V9C22 6.79086 20.2091 5 18 5H15.5V5.85714C15.5 7.76988 14.0288 9.5 12 9.5C9.97121 9.5 8.5 7.76988 8.5 5.85714V5ZM7 11.25C6.0335 11.25 5.25 12.0335 5.25 13V16C5.25 16.9665 6.0335 17.75 7 17.75H10C10.9665 17.75 11.75 16.9665 11.75 16V13C11.75 12.0335 10.9665 11.25 10 11.25H7ZM14 12.25C13.5858 12.25 13.25 12.5858 13.25 13C13.25 13.4142 13.5858 13.75 14 13.75H18C18.4142 13.75 18.75 13.4142 18.75 13C18.75 12.5858 18.4142 12.25 18 12.25H14ZM13.25 16C13.25 15.5858 13.5858 15.25 14 15.25H18C18.4142 15.25 18.75 15.5858 18.75 16C18.75 16.4142 18.4142 16.75 18 16.75H14C13.5858 16.75 13.25 16.4142 13.25 16Z" fill="black"/>
</svg>
