<svg width="24" height="24" viewBox="0 0 24 24" fill="none" xmlns="http://www.w3.org/2000/svg">
<path fill-rule="evenodd" clip-rule="evenodd" d="M7 2C5.34315 2 4 3.34315 4 5V19C4 20.6569 5.34315 22 7 22H12.7577L11.8793 21.1219C11.5598 20.8024 11.3196 20.4182 11.1717 20H7C6.44772 20 6 19.5523 6 19V5C6 4.44772 6.44772 4 7 4H12.0093L12.0093 6.98487C12.0093 8.64173 13.3524 9.98488 15.0093 9.98488H18V13.1708C18.4095 13.3152 18.7938 13.5512 19.1213 13.8787C19.8166 14.574 20 15.5 20 15.5V9.21461C20 8.81866 19.8434 8.43877 19.5645 8.15778L13.891 2.44317C13.6093 2.15952 13.2262 2 12.8265 2H7ZM16.5745 7.98488L14.0093 5.40105L14.0093 6.98487C14.0093 7.53716 14.457 7.98488 15.0093 7.98488H16.5745Z" fill="black"/>
<path d="M17.7071 16.7071C18.0976 16.3166 18.0976 15.6834 17.7071 15.2929C17.3166 14.9024 16.6834 14.9024 16.2929 15.2929L13.2929 18.2929C12.9024 18.6834 12.9024 19.3166 13.2929 19.7071L16.2929 22.7071C16.6834 23.0976 17.3166 23.0976 17.7071 22.7071C18.0976 22.3166 18.0976 21.6834 17.7071 21.2929L16.4142 20H21C21.5523 20 22 19.5523 22 19C22 18.4477 21.5523 18 21 18H16.4142L17.7071 16.7071Z" fill="black"/>
</svg>
