<svg width="24" height="24" viewBox="0 0 24 24" fill="none" xmlns="http://www.w3.org/2000/svg">
<path d="M2 6C2 4.34315 3.34315 3 5 3H7C7.55228 3 8 3.44772 8 4C8 4.55228 7.55228 5 7 5H5C4.44772 5 4 5.44772 4 6V7C4 7.55228 3.55228 8 3 8C2.44772 8 2 7.55228 2 7V6Z" fill="black"/>
<path d="M16 4C16 3.44772 16.4477 3 17 3H19C20.6569 3 22 4.34315 22 6V7C22 7.55228 21.5523 8 21 8C20.4477 8 20 7.55228 20 7V6C20 5.44772 19.5523 5 19 5H17C16.4477 5 16 4.55228 16 4Z" fill="black"/>
<path d="M3 16C3.55228 16 4 16.4477 4 17V18C4 18.5523 4.44772 19 5 19H7C7.55228 19 8 19.4477 8 20C8 20.5523 7.55228 21 7 21H5C3.34315 21 2 19.6569 2 18V17C2 16.4477 2.44772 16 3 16Z" fill="black"/>
<path d="M21 16C21.5523 16 22 16.4477 22 17V18C22 19.6569 20.6569 21 19 21H17C16.4477 21 16 20.5523 16 20C16 19.4477 16.4477 19 17 19H19C19.5523 19 20 18.5523 20 18V17C20 16.4477 20.4477 16 21 16Z" fill="black"/>
<path d="M10 4C10 3.44772 10.4477 3 11 3H13C13.5523 3 14 3.44772 14 4C14 4.55228 13.5523 5 13 5H11C10.4477 5 10 4.55228 10 4Z" fill="black"/>
<path d="M11 19C10.4477 19 10 19.4477 10 20C10 20.5523 10.4477 21 11 21H13C13.5523 21 14 20.5523 14 20C14 19.4477 13.5523 19 13 19H11Z" fill="black"/>
<path d="M21 14C20.4477 14 20 13.5523 20 13V11C20 10.4477 20.4477 10 21 10C21.5523 10 22 10.4477 22 11V13C22 13.5523 21.5523 14 21 14Z" fill="black"/>
<path d="M10.2071 8.79289C9.81658 8.40237 9.18342 8.40237 8.79289 8.79289C8.40237 9.18342 8.40237 9.81658 8.79289 10.2071L9.58579 11H3C2.44772 11 2 11.4477 2 12C2 12.5523 2.44772 13 3 13H9.58579L8.79289 13.7929C8.40237 14.1834 8.40237 14.8166 8.79289 15.2071C9.18342 15.5976 9.81658 15.5976 10.2071 15.2071L12.7071 12.7071C13.0976 12.3166 13.0976 11.6834 12.7071 11.2929L10.2071 8.79289Z" fill="black"/>
</svg>
