<svg width="24" height="24" viewBox="0 0 24 24" fill="none" xmlns="http://www.w3.org/2000/svg">
<path fill-rule="evenodd" clip-rule="evenodd" d="M9 2C7.89543 2 7 2.89543 7 4V6H4C2.89543 6 2 6.89543 2 8V20C2 21.1046 2.89543 22 4 22H20C21.1046 22 22 21.1046 22 20V8C22 6.89543 21.1046 6 20 6H17V4C17 2.89543 16.1046 2 15 2H9ZM15 6V4H9V6H15ZM4 8V13H20V8L4 8ZM15 16V15H9V16C9 16.5523 8.55228 17 8 17C7.44772 17 7 16.5523 7 16V15H4V20H20V15H17V16C17 16.5523 16.5523 17 16 17C15.4477 17 15 16.5523 15 16Z" fill="black"/>
</svg>
