<svg width="24" height="24" viewBox="0 0 24 24" fill="none" xmlns="http://www.w3.org/2000/svg">
<path d="M10.7071 2.29289C10.3166 1.90237 9.68342 1.90237 9.29289 2.29289C8.90237 2.68342 8.90237 3.31658 9.29289 3.70711L11.2929 5.70711C11.6834 6.09763 12.3166 6.09763 12.7071 5.70711L14.7071 3.70711C15.0976 3.31658 15.0976 2.68342 14.7071 2.29289C14.3166 1.90237 13.6834 1.90237 13.2929 2.29289L12 3.58579L10.7071 2.29289Z" fill="black"/>
<path d="M5 12.5C5 12.2239 5.22386 12 5.5 12H6.5C6.77614 12 7 12.2239 7 12.5V13.5C7 13.7761 6.77614 14 6.5 14H5.5C5.22386 14 5 13.7761 5 13.5V12.5Z" fill="black"/>
<path d="M5.5 16C5.22386 16 5 16.2239 5 16.5V17.5C5 17.7761 5.22386 18 5.5 18H6.5C6.77614 18 7 17.7761 7 17.5V16.5C7 16.2239 6.77614 16 6.5 16H5.5Z" fill="black"/>
<path d="M9 12.5C9 12.2239 9.22386 12 9.5 12H10.5C10.7761 12 11 12.2239 11 12.5V13.5C11 13.7761 10.7761 14 10.5 14H9.5C9.22386 14 9 13.7761 9 13.5V12.5Z" fill="black"/>
<path d="M9.5 16C9.22386 16 9 16.2239 9 16.5V17.5C9 17.7761 9.22386 18 9.5 18H14.5C14.7761 18 15 17.7761 15 17.5V16.5C15 16.2239 14.7761 16 14.5 16H9.5Z" fill="black"/>
<path d="M13 12.5C13 12.2239 13.2239 12 13.5 12H14.5C14.7761 12 15 12.2239 15 12.5V13.5C15 13.7761 14.7761 14 14.5 14H13.5C13.2239 14 13 13.7761 13 13.5V12.5Z" fill="black"/>
<path d="M17.5 12C17.2239 12 17 12.2239 17 12.5V13.5C17 13.7761 17.2239 14 17.5 14H18.5C18.7761 14 19 13.7761 19 13.5V12.5C19 12.2239 18.7761 12 18.5 12H17.5Z" fill="black"/>
<path d="M17 16.5C17 16.2239 17.2239 16 17.5 16H18.5C18.7761 16 19 16.2239 19 16.5V17.5C19 17.7761 18.7761 18 18.5 18H17.5C17.2239 18 17 17.7761 17 17.5V16.5Z" fill="black"/>
<path fill-rule="evenodd" clip-rule="evenodd" d="M5 8C2.79086 8 1 9.79086 1 12V18C1 20.2091 2.79086 22 5 22H19C21.2091 22 23 20.2091 23 18V12C23 9.79086 21.2091 8 19 8H5ZM21 12C21 10.8954 20.1046 10 19 10H5C3.89543 10 3 10.8954 3 12V18C3 19.1046 3.89543 20 5 20H19C20.1046 20 21 19.1046 21 18V12Z" fill="black"/>
</svg>
