<svg width="24" height="24" viewBox="0 0 24 24" fill="none" xmlns="http://www.w3.org/2000/svg">
<path d="M9.5 12C10.3284 12 11 11.3284 11 10.5C11 9.67157 10.3284 9 9.5 9C8.67157 9 8 9.67157 8 10.5C8 11.3284 8.67157 12 9.5 12Z" fill="black"/>
<path d="M16 10.5C16 11.3284 15.3284 12 14.5 12C13.6716 12 13 11.3284 13 10.5C13 9.67157 13.6716 9 14.5 9C15.3284 9 16 9.67157 16 10.5Z" fill="black"/>
<path d="M12 17C13.6569 17 15 15.6569 15 14H9C9 15.6569 10.3431 17 12 17Z" fill="black"/>
<path fill-rule="evenodd" clip-rule="evenodd" d="M12 21C15.6014 21 18.705 18.8859 20.1442 15.8339C21.7958 15.3418 23 13.8115 23 12C23 10.1885 21.7958 8.65824 20.1442 8.16606C18.705 5.1141 15.6014 3 12 3C8.39858 3 5.29497 5.1141 3.85576 8.16606C2.20419 8.65824 1 10.1885 1 12C1 13.8115 2.20419 15.3418 3.85576 15.8339C5.29496 18.8859 8.39857 21 12 21ZM12 19C15.1783 19 17.8619 16.8818 18.716 13.98C18.8088 13.9932 18.9036 14 19 14C20.1046 14 21 13.1046 21 12C21 10.8954 20.1046 10 19 10C18.9036 10 18.8088 10.0068 18.716 10.02C17.8619 7.11824 15.1783 5 12 5C8.82167 5 6.13808 7.11824 5.28396 10.02C5.1912 10.0068 5.0964 10 5 10C3.89543 10 3 10.8954 3 12C3 13.1046 3.89543 14 5 14C5.0964 14 5.1912 13.9932 5.28396 13.98C6.13808 16.8818 8.82167 19 12 19Z" fill="black"/>
</svg>
