<svg width="24" height="24" viewBox="0 0 24 24" fill="none" xmlns="http://www.w3.org/2000/svg">
<path fill-rule="evenodd" clip-rule="evenodd" d="M13.6641 2.76117C12.6564 2.08937 11.3436 2.08938 10.3359 2.76117L3.94137 7.0242C2.16017 8.21167 2.16017 10.829 3.94137 12.0165L10.3359 16.2795C11.3436 16.9513 12.6564 16.9513 13.6641 16.2795L20.0586 12.0165C21.8398 10.829 21.8398 8.21166 20.0586 7.0242L13.6641 2.76117ZM11.4453 4.42527C11.7812 4.20134 12.2188 4.20134 12.5547 4.42527L18.9492 8.6883C19.543 9.08412 19.543 9.95658 18.9492 10.3524L12.5547 14.6154C12.2188 14.8394 11.7812 14.8394 11.4453 14.6154L5.05077 10.3524C4.45703 9.95657 4.45704 9.08412 5.05077 8.6883L11.4453 4.42527Z" fill="black"/>
<path d="M4.22112 15.3551C3.76159 15.0487 3.14072 15.1729 2.83437 15.6324C2.52802 16.0919 2.65219 16.7128 3.11172 17.0192L8.57367 20.6605C10.6478 22.0432 13.3608 21.9995 15.3893 20.5506L20.3589 17.0009C20.8083 16.6798 20.9124 16.0553 20.5914 15.6059C20.2704 15.1565 19.6458 15.0524 19.1964 15.3734L14.2268 18.9231C12.8745 19.889 11.0658 19.9182 9.68307 18.9964L4.22112 15.3551Z" fill="black"/>
</svg>
