<svg width="24" height="24" viewBox="0 0 24 24" fill="none" xmlns="http://www.w3.org/2000/svg">
<path d="M8 7.00464C8 6.45235 8.44772 6.00464 9 6.00464H15C15.5523 6.00464 16 6.45235 16 7.00464C16 7.55692 15.5523 8.00464 15 8.00464H9C8.44772 8.00464 8 7.55692 8 7.00464Z" fill="black"/>
<path d="M8 10.0046C8 9.45235 8.44772 9.00464 9 9.00464H13C13.5523 9.00464 14 9.45235 14 10.0046C14 10.5569 13.5523 11.0046 13 11.0046H9C8.44772 11.0046 8 10.5569 8 10.0046Z" fill="black"/>
<path d="M8 14.0046C8 13.4524 8.44772 13.0046 9 13.0046H10C10.5523 13.0046 11 13.4524 11 14.0046C11 14.5569 10.5523 15.0046 10 15.0046H9C8.44772 15.0046 8 14.5569 8 14.0046Z" fill="black"/>
<path d="M15 19.0046C16.1046 19.0046 17 18.1092 17 17.0046C17 15.9001 16.1046 15.0046 15 15.0046C13.8954 15.0046 13 15.9001 13 17.0046C13 18.1092 13.8954 19.0046 15 19.0046Z" fill="black"/>
<path fill-rule="evenodd" clip-rule="evenodd" d="M4 5.00464C4 3.34778 5.34315 2.00464 7 2.00464H17C18.6569 2.00464 20 3.34778 20 5.00464V19.0046C20 20.6615 18.6569 22.0046 17 22.0046H7C5.34315 22.0046 4 20.6615 4 19.0046V5.00464ZM7 4.00464C6.44772 4.00464 6 4.45235 6 5.00464V19.0046C6 19.5569 6.44772 20.0046 7 20.0046H17C17.5523 20.0046 18 19.5569 18 19.0046V5.00464C18 4.45235 17.5523 4.00464 17 4.00464H7Z" fill="black"/>
</svg>
