<svg width="24" height="24" viewBox="0 0 24 24" fill="none" xmlns="http://www.w3.org/2000/svg">
<path d="M12 17C13.1046 17 14 16.1046 14 15C14 13.8954 13.1046 13 12 13C10.8954 13 10 13.8954 10 15C10 16.1046 10.8954 17 12 17Z" fill="black"/>
<path fill-rule="evenodd" clip-rule="evenodd" d="M7 7V8C5.34315 8 4 9.34315 4 11V19C4 20.6569 5.34315 22 7 22H17C18.6569 22 20 20.6569 20 19V11C20 9.34315 18.6569 8 17 8V7C17 4.23858 14.7614 2 12 2C9.23858 2 7 4.23858 7 7ZM15 8V7C15 5.34315 13.6569 4 12 4C10.3431 4 9 5.34315 9 7V8H15ZM17 10C17.5523 10 18 10.4477 18 11V19C18 19.5523 17.5523 20 17 20H7C6.44772 20 6 19.5523 6 19V11C6 10.4477 6.44772 10 7 10H17Z" fill="black"/>
</svg>
