<svg width="24" height="24" viewBox="0 0 24 24" fill="none" xmlns="http://www.w3.org/2000/svg">
<path fill-rule="evenodd" clip-rule="evenodd" d="M3.99343 5.70389C3.98796 5.63686 3.98511 5.56812 3.98511 5.49764C3.98511 4.13878 5.04628 3.42735 5.44708 3.19284C5.98759 2.87658 6.63663 2.66038 7.26383 2.50516C8.54919 2.18706 10.2197 2.01123 11.9913 2.01123C13.763 2.01123 15.4335 2.18706 16.7188 2.50516C17.346 2.66038 17.9951 2.87658 18.5356 3.19284C18.9364 3.42735 19.9976 4.13878 19.9976 5.49764C19.9976 5.6072 19.9907 5.71255 19.9778 5.81378L19.9958 11.8092C19.3725 11.5475 18.6992 11.3811 17.9943 11.3285L17.9846 8.07791C17.5797 8.2515 17.1443 8.38484 16.7188 8.49012C15.4335 8.80822 13.763 8.98405 11.9913 8.98405C10.2197 8.98405 8.54919 8.80822 7.26383 8.49012C6.8338 8.3837 6.39351 8.24861 5.98497 8.07226L5.98515 12.1201C6.02406 12.1957 6.21541 12.5096 7.0339 12.8506C7.79044 13.1658 8.95627 13.4406 10.6518 13.5363C10.6335 13.6703 10.624 13.8071 10.624 13.946V15.5378C8.72844 15.4379 7.30011 15.1281 6.26478 14.6968C6.16975 14.6572 6.0765 14.6159 5.98526 14.5728L5.98544 18.7479C5.99897 18.769 6.02627 18.8056 6.07786 18.8569C6.22282 19.0012 6.50387 19.2007 6.98508 19.401C7.94537 19.8007 9.55416 20.1421 11.9897 20.1421L12.0076 20.1421C12.021 20.8556 12.2876 21.5667 12.8119 22.1295C12.546 22.1378 12.272 22.1421 11.9897 22.1421C9.39378 22.1421 7.50046 21.7819 6.21648 21.2474C5.57557 20.9806 5.04895 20.6548 4.66677 20.2743C4.29255 19.9017 3.98545 19.3997 3.98545 18.8083L3.98486 5.70398L3.99343 5.70389ZM16.2721 6.54027C16.3056 6.53184 16.3388 6.52331 16.3715 6.51469C17.3799 6.2488 17.9976 5.89107 17.9976 5.49764C17.9976 5.10421 17.3799 4.74648 16.3715 4.48059C16.3388 4.47197 16.3056 4.46344 16.2721 4.45501C15.1826 4.18108 13.6671 4.01123 11.9913 4.01123C10.3155 4.01123 8.80002 4.18108 7.71054 4.45501C7.67702 4.46344 7.64389 4.47197 7.61118 4.48059C6.60276 4.74648 5.98511 5.10421 5.98511 5.49764C5.98511 5.89107 6.60276 6.24881 7.61118 6.51469C7.64389 6.52331 7.67702 6.53184 7.71054 6.54027C8.80002 6.8142 10.3155 6.98405 11.9913 6.98405C13.6671 6.98405 15.1826 6.8142 16.2721 6.54027Z" fill="black"/>
<path d="M13.624 12.946C14.1763 12.946 14.624 13.3938 14.624 13.946V14.3785C15.3985 13.7131 16.4061 13.3103 17.5085 13.3103C19.9545 13.3103 21.9374 15.2932 21.9374 17.7392C21.9374 20.1853 19.9545 22.1682 17.5085 22.1682C16.2342 22.1682 15.0844 21.6288 14.2777 20.7688C13.8999 20.3659 13.9201 19.7331 14.3229 19.3553C14.7257 18.9774 15.3586 18.9977 15.7364 19.4005C16.1809 19.8743 16.8096 20.1682 17.5085 20.1682C18.8499 20.1682 19.9374 19.0807 19.9374 17.7392C19.9374 16.3978 18.8499 15.3103 17.5085 15.3103C16.9073 15.3103 16.3565 15.5286 15.9317 15.8914H16.4284C16.9807 15.8914 17.4284 16.3391 17.4284 16.8914C17.4284 17.4437 16.9807 17.8914 16.4284 17.8914H13.624C13.0717 17.8914 12.624 17.4437 12.624 16.8914V13.946C12.624 13.3938 13.0717 12.946 13.624 12.946Z" fill="black"/>
</svg>
