<svg width="24" height="24" viewBox="0 0 24 24" fill="none" xmlns="http://www.w3.org/2000/svg">
<path fill-rule="evenodd" clip-rule="evenodd" d="M3 7.00464C3 6.45235 3.44772 6.00464 4 6.00464H20C20.5523 6.00464 21 6.45235 21 7.00464C21 7.55692 20.5523 8.00464 20 8.00464H4C3.44772 8.00464 3 7.55692 3 7.00464ZM3 12.0046C3 11.4524 3.44772 11.0046 4 11.0046H20C20.5523 11.0046 21 11.4524 21 12.0046C21 12.5569 20.5523 13.0046 20 13.0046H4C3.44772 13.0046 3 12.5569 3 12.0046ZM3 17.0046C3 16.4524 3.44772 16.0046 4 16.0046H20C20.5523 16.0046 21 16.4524 21 17.0046C21 17.5569 20.5523 18.0046 20 18.0046H4C3.44772 18.0046 3 17.5569 3 17.0046Z" fill="black"/>
</svg>
