<svg width="24" height="24" viewBox="0 0 24 24" fill="none" xmlns="http://www.w3.org/2000/svg">
<path d="M14 5.00464C14 6.10921 13.1046 7.00464 12 7.00464C10.8954 7.00464 10 6.10921 10 5.00464C10 3.90007 10.8954 3.00464 12 3.00464C13.1046 3.00464 14 3.90007 14 5.00464Z" fill="black"/>
<path d="M14 12.0046C14 13.1092 13.1046 14.0046 12 14.0046C10.8954 14.0046 10 13.1092 10 12.0046C10 10.9001 10.8954 10.0046 12 10.0046C13.1046 10.0046 14 10.9001 14 12.0046Z" fill="black"/>
<path d="M12 21.0046C13.1046 21.0046 14 20.1092 14 19.0046C14 17.9001 13.1046 17.0046 12 17.0046C10.8954 17.0046 10 17.9001 10 19.0046C10 20.1092 10.8954 21.0046 12 21.0046Z" fill="black"/>
</svg>
