<svg width="24" height="24" viewBox="0 0 24 24" fill="none" xmlns="http://www.w3.org/2000/svg">
<path fill-rule="evenodd" clip-rule="evenodd" d="M4.8125 4C3.2592 4 2 5.17446 2 6.62323V12.5725C2 12.5876 2.00014 12.6026 2.00041 12.6177L2.00016 16.9485C2.0001 17.9059 3.26186 18.3632 3.95494 17.6571L6.09224 15.4797C6.26982 15.2988 6.52072 15.1957 6.78372 15.1957H14.1875C15.7408 15.1957 17 14.0213 17 12.5725V6.62323C17 5.17446 15.7408 4 14.1875 4H4.8125ZM4.00041 12.6178C4.00041 12.6057 4.0003 12.5936 4.00008 12.5815L4 12.5725V6.62323C4 6.40798 4.23025 6 4.8125 6H14.1875C14.7697 6 15 6.40798 15 6.62323V12.5725C15 12.7877 14.7697 13.1957 14.1875 13.1957H6.78372C6.00631 13.1957 5.23405 13.4989 4.66492 14.0787L4.00028 14.7558L4.00041 12.6178Z" fill="black"/>
<path d="M19.1875 8H19V10H19.1875C19.7697 10 20 10.408 20 10.6232V16.5725L19.9999 16.5815C19.9997 16.5936 19.9995 16.6057 19.9995 16.6178L19.9997 18.7558L19.335 18.0787C18.7659 17.4989 17.9936 17.1957 17.2162 17.1957H7.08203L7.10913 17.2988C7.44683 18.3942 8.52929 19.1957 9.81245 19.1957H17.2162C17.4792 19.1957 17.7301 19.2988 17.9077 19.4797L20.045 21.6571C20.7381 22.3632 21.9998 21.9059 21.9998 20.9485L21.9995 16.6177C21.9998 16.6026 22 16.5876 22 16.5725V10.6232C22 9.17446 20.7408 8 19.1875 8Z" fill="black"/>
</svg>
