<svg width="24" height="24" viewBox="0 0 24 24" fill="none" xmlns="http://www.w3.org/2000/svg">
<path fill-rule="evenodd" clip-rule="evenodd" d="M5 10C5 8.89543 5.89543 8 7 8H13C14.1046 8 15 8.89543 15 10V14C15 15.1046 14.1046 16 13 16H7C5.89543 16 5 15.1046 5 14V10ZM13 10H7V14H13V10Z" fill="black"/>
<path d="M17 8C16.4477 8 16 8.44772 16 9C16 9.55228 16.4477 10 17 10H19C19.5523 10 20 9.55228 20 9C20 8.44772 19.5523 8 19 8H17Z" fill="black"/>
<path fill-rule="evenodd" clip-rule="evenodd" d="M1 7C1 5.34315 2.34315 4 4 4H20C21.6569 4 23 5.34315 23 7V17C23 18.6569 21.6569 20 20 20C20 20.5523 19.5523 21 19 21C18.4477 21 18 20.5523 18 20H6C6 20.5523 5.55228 21 5 21C4.44772 21 4 20.5523 4 20C2.34315 20 1 18.6569 1 17V7ZM20 18C20.5523 18 21 17.5523 21 17V7C21 6.44772 20.5523 6 20 6H4C3.44772 6 3 6.44772 3 7V17C3 17.5523 3.44772 18 4 18H20Z" fill="black"/>
</svg>
