<svg width="24" height="24" viewBox="0 0 24 24" fill="none" xmlns="http://www.w3.org/2000/svg">
<path d="M3 7C3 5.34315 4.34315 4 6 4H18C19.6569 4 21 5.34315 21 7V7.02746C20.8358 7.00932 20.669 7 20.5 7H19C19 6.44772 18.5523 6 18 6H6C5.44772 6 5 6.44772 5 7V14C5 14.5523 5.44772 15 6 15H12V17H6C4.34315 17 3 15.6569 3 14V7Z" fill="black"/>
<path d="M12 19.5V18H3C2.44772 18 2 18.4477 2 19C2 19.5523 2.44772 20 3 20H12.0275C12.0093 19.8358 12 19.669 12 19.5Z" fill="black"/>
<path fill-rule="evenodd" clip-rule="evenodd" d="M16.5 9C15.1193 9 14 10.1193 14 11.5V19.5C14 20.8807 15.1193 22 16.5 22H20.5C21.8807 22 23 20.8807 23 19.5V11.5C23 10.1193 21.8807 9 20.5 9H16.5ZM16 11.5C16 11.2239 16.2239 11 16.5 11H20.5C20.7761 11 21 11.2239 21 11.5V19.5C21 19.7761 20.7761 20 20.5 20H16.5C16.2239 20 16 19.7761 16 19.5V11.5Z" fill="black"/>
</svg>
