<svg width="24" height="24" viewBox="0 0 24 24" fill="none" xmlns="http://www.w3.org/2000/svg">
<path d="M9.5799 13.5924L12.1844 9.55334C12.3573 9.28517 12.7732 9.40764 12.7732 9.72672V12.4477C12.7732 12.6686 12.9523 12.8477 13.1732 12.8477H14.1507C14.404 12.8477 14.5569 13.1281 14.4196 13.341L11.8151 17.3801C11.6422 17.6482 11.2263 17.5258 11.2263 17.2067V14.4857C11.2263 14.2648 11.0472 14.0857 10.8263 14.0857H9.84878C9.59546 14.0857 9.44262 13.8053 9.5799 13.5924Z" fill="black"/>
<path fill-rule="evenodd" clip-rule="evenodd" d="M21.0048 12.9949C21.0048 13.574 20.9502 14.1404 20.8457 14.6891C21.5613 15.2353 22.023 16.0972 22.023 17.067C22.023 18.7181 20.6845 20.0567 19.0333 20.0567C18.6212 20.0567 18.2287 19.9733 17.8715 19.8225C16.2949 21.1796 14.2431 22 11.9997 22C9.75635 22 7.70457 21.1796 6.128 19.8226C5.77085 19.9733 5.37829 20.0567 4.96627 20.0567C3.3151 20.0567 1.97656 18.7181 1.97656 17.067C1.97656 16.0972 2.43823 15.2354 3.15377 14.6891C3.0493 14.1404 2.99463 13.574 2.99463 12.9949C2.99463 9.05355 5.52665 5.70363 9.05277 4.48301C9.29345 3.07316 10.5213 2 11.9997 2C13.4782 2 14.706 3.07316 14.9467 4.483C18.4728 5.70361 21.0048 9.05354 21.0048 12.9949ZM11.9997 4C11.4531 4 11.01 4.44311 11.01 4.9897C11.01 5.5363 11.4531 5.97941 11.9997 5.97941C12.5463 5.97941 12.9894 5.5363 12.9894 4.9897C12.9894 4.44311 12.5463 4 11.9997 4ZM4.99463 12.9949C4.99463 10.0409 6.82297 7.51405 9.40973 6.48413C9.92661 7.37799 10.8929 7.97941 11.9997 7.97941C13.1065 7.97941 14.0728 7.37798 14.5897 6.48412C17.1765 7.51403 19.0048 10.0409 19.0048 12.9949C19.0048 13.3637 18.9763 13.7259 18.9214 14.0793C17.3221 14.1382 16.0436 15.4532 16.0436 17.067C16.0436 17.5689 16.1673 18.0419 16.3858 18.4572C15.1853 19.4224 13.66 20 11.9997 20C10.3395 20 8.81419 19.4224 7.61372 18.4573C7.83228 18.0419 7.95597 17.5689 7.95597 17.067C7.95597 15.4532 6.67743 14.1381 5.07806 14.0793C5.02313 13.7259 4.99463 13.3637 4.99463 12.9949ZM3.97656 17.067C3.97656 16.5204 4.41967 16.0773 4.96627 16.0773C5.51286 16.0773 5.95597 16.5204 5.95597 17.067C5.95597 17.6136 5.51286 18.0567 4.96627 18.0567C4.41967 18.0567 3.97656 17.6136 3.97656 17.067ZM19.0333 16.0773C18.4867 16.0773 18.0436 16.5204 18.0436 17.067C18.0436 17.6136 18.4867 18.0567 19.0333 18.0567C19.5799 18.0567 20.023 17.6136 20.023 17.067C20.023 16.5204 19.5799 16.0773 19.0333 16.0773Z" fill="black"/>
</svg>
