<svg width="24" height="24" viewBox="0 0 24 24" fill="none" xmlns="http://www.w3.org/2000/svg">
<path d="M6 16C6.55228 16 7 15.5523 7 15C7 14.4477 6.55228 14 6 14C5.44772 14 5 14.4477 5 15C5 15.5523 5.44772 16 6 16Z" fill="black"/>
<path d="M7 18C7 18.5523 6.55228 19 6 19C5.44772 19 5 18.5523 5 18C5 17.4477 5.44772 17 6 17C6.55228 17 7 17.4477 7 18Z" fill="black"/>
<path d="M9 19C9.55228 19 10 18.5523 10 18C10 17.4477 9.55228 17 9 17C8.44772 17 8 17.4477 8 18C8 18.5523 8.44772 19 9 19Z" fill="black"/>
<path d="M10 15C10 15.5523 9.55228 16 9 16C8.44772 16 8 15.5523 8 15C8 14.4477 8.44772 14 9 14C9.55228 14 10 14.4477 10 15Z" fill="black"/>
<path d="M12 16C12.5523 16 13 15.5523 13 15C13 14.4477 12.5523 14 12 14C11.4477 14 11 14.4477 11 15C11 15.5523 11.4477 16 12 16Z" fill="black"/>
<path d="M13 18C13 18.5523 12.5523 19 12 19C11.4477 19 11 18.5523 11 18C11 17.4477 11.4477 17 12 17C12.5523 17 13 17.4477 13 18Z" fill="black"/>
<path d="M15 14C14.4477 14 14 14.4477 14 15C14 15.5523 14.4477 16 15 16H18C18.5523 16 19 15.5523 19 15C19 14.4477 18.5523 14 18 14H15Z" fill="black"/>
<path fill-rule="evenodd" clip-rule="evenodd" d="M16 2C16.5523 2 17 2.44772 17 3V11H19C20.6569 11 22 12.3431 22 14V19C22 20.6569 20.6569 22 19 22H5C3.34315 22 2 20.6569 2 19V14C2 12.3431 3.34315 11 5 11H15V3C15 2.44772 15.4477 2 16 2ZM5 13H19C19.5523 13 20 13.4477 20 14V19C20 19.5523 19.5523 20 19 20H5C4.44772 20 4 19.5523 4 19V14C4 13.4477 4.44772 13 5 13Z" fill="black"/>
</svg>
