<svg width="24" height="24" viewBox="0 0 24 24" fill="none" xmlns="http://www.w3.org/2000/svg">
<path d="M16.0886 2.02995C15.6981 1.63943 15.0649 1.63943 14.6744 2.02995C14.2838 2.42048 14.2838 3.05364 14.6744 3.44417L16.7498 5.51965L14.6744 7.59508C14.2839 7.9856 14.2839 8.61877 14.6744 9.00929C15.0649 9.39982 15.6981 9.39982 16.0886 9.00929L18.1641 6.93387L20.2395 9.00929C20.63 9.39982 21.2632 9.39982 21.6537 9.00929C22.0442 8.61877 22.0442 7.9856 21.6537 7.59508L19.5783 5.51965L21.6538 3.44417C22.0443 3.05364 22.0443 2.42048 21.6538 2.02995C21.2632 1.63943 20.6301 1.63943 20.2395 2.02995L18.1641 4.10544L16.0886 2.02995Z" fill="black"/>
<path fill-rule="evenodd" clip-rule="evenodd" d="M7 2.00467H12.4718C12.3056 2.6677 12.3688 3.37643 12.6615 4.00467H7V15.0047H15C15.5523 15.0047 16 15.4524 16 16.0047V18.5047C16 19.3331 16.6716 20.0047 17.5 20.0047C18.3284 20.0047 19 19.3331 19 18.5047V10.5851C19.5738 11.0754 20.2887 11.3143 21 11.3017V19.2047C21 20.7511 19.7464 22.0047 18.2 22.0047H5C3.34315 22.0047 2 20.6615 2 19.0047V16.0047C2 15.4524 2.44772 15.0047 3 15.0047H5V4.00467C5 2.9001 5.89543 2.00467 7 2.00467ZM14 17.0047V18.5047C14 19.0415 14.1208 19.55 14.3368 20.0047H5C4.44772 20.0047 4 19.557 4 19.0047V17.0047H14Z" fill="black"/>
</svg>
