<svg width="24" height="24" viewBox="0 0 24 24" fill="none" xmlns="http://www.w3.org/2000/svg">
<path fill-rule="evenodd" clip-rule="evenodd" d="M2.95711 1.70281C2.56658 1.31228 1.93342 1.31228 1.54289 1.70281C1.15237 2.09333 1.15237 2.72649 1.54289 3.11702L2.89906 4.47319C2.33711 5.16203 2.00012 6.04162 2.00012 6.99992V14.9999C2.00012 17.2091 3.79098 18.9999 6.00012 18.9999H8.58591L11.293 21.707C11.6835 22.0976 12.3167 22.0976 12.7072 21.707L15.4143 18.9999H17.4258L19.5429 21.117C19.9334 21.5075 20.5666 21.5075 20.9571 21.117C21.3476 20.7265 21.3476 20.0933 20.9571 19.7028L2.95711 1.70281ZM15.4258 16.9999L4.32805 5.90217C4.12074 6.2173 4.00012 6.59452 4.00012 6.99992V14.9999C4.00012 16.1045 4.89555 16.9999 6.00012 16.9999H9.00012C9.26534 16.9999 9.51969 17.1053 9.70723 17.2928L12.0001 19.5857L14.293 17.2928C14.4806 17.1053 14.7349 16.9999 15.0001 16.9999H15.4258Z" fill="black"/>
<path d="M20.0001 14.9999C20.0001 15.2895 19.9386 15.5647 19.8279 15.8132L21.2902 17.2755C21.7378 16.6295 22.0001 15.8454 22.0001 14.9999V6.99992C22.0001 4.79078 20.2093 2.99992 18.0001 2.99992H7.01463L9.01463 4.99992H18.0001C19.1047 4.99992 20.0001 5.89535 20.0001 6.99992V14.9999Z" fill="black"/>
</svg>
