<svg width="24" height="24" viewBox="0 0 24 24" fill="none" xmlns="http://www.w3.org/2000/svg">
<path d="M3.52734 6.33515C2.91369 7.21116 2.43779 8.18905 2.13081 9.23855C1.97576 9.76862 2.27978 10.324 2.80985 10.4791C3.33993 10.6341 3.89533 10.3301 4.05038 9.80003C4.26129 9.07895 4.57274 8.39924 4.96894 7.77675L16.1395 18.9473C14.9603 19.6048 13.597 19.9807 12.1432 19.9807C8.92782 19.9807 6.15378 18.142 4.8367 15.4807H6.27087C6.82316 15.4807 7.27087 15.033 7.27087 14.4807C7.27087 13.9284 6.82316 13.4807 6.27087 13.4807H2.26685C1.71456 13.4807 1.26685 13.9284 1.26685 14.4807V18.4807C1.26685 19.033 1.71456 19.4807 2.26685 19.4807C2.81913 19.4807 3.26685 19.033 3.26685 18.4807V16.7916C4.98941 19.8871 8.32126 21.9807 12.1432 21.9807C14.1505 21.9807 16.023 21.4032 17.5981 20.406L19.0961 21.9039C19.4866 22.2945 20.1198 22.2945 20.5103 21.9039C20.9009 21.5134 20.9009 20.8802 20.5103 20.4897L3.51033 3.48972C3.11981 3.09919 2.48664 3.09919 2.09612 3.48972C1.70559 3.88024 1.70559 4.51341 2.09612 4.90393L3.52734 6.33515Z" fill="black"/>
<path d="M19.0312 16.2231L20.4728 17.6647C21.0865 16.7888 21.5623 15.8109 21.8693 14.7614C22.0244 14.2313 21.7203 13.6759 21.1903 13.5209C20.6602 13.3659 20.1048 13.6699 19.9497 14.1999C19.7388 14.921 19.4274 15.6007 19.0312 16.2231Z" fill="black"/>
<path d="M6.40206 3.59397L7.86074 5.05265C9.03987 4.39513 10.4031 4.01929 11.8569 4.01929C15.0723 4.01929 17.8463 5.85795 19.1634 8.51929H17.7292C17.177 8.51929 16.7292 8.967 16.7292 9.51929C16.7292 10.0716 17.177 10.5193 17.7292 10.5193H21.7333C22.2856 10.5193 22.7333 10.0716 22.7333 9.51929V5.51929C22.7333 4.967 22.2856 4.51929 21.7333 4.51929C21.181 4.51929 20.7333 4.967 20.7333 5.51929V7.20836C19.0107 4.11289 15.6789 2.01929 11.8569 2.01929C9.84965 2.01929 7.9772 2.59678 6.40206 3.59397Z" fill="black"/>
</svg>
