<svg width="24" height="24" viewBox="0 0 24 24" fill="none" xmlns="http://www.w3.org/2000/svg">
<path d="M9 9.99536C8.44772 9.99536 8 10.4431 8 10.9954C8 11.5476 8.44772 11.9954 9 11.9954H15C15.5523 11.9954 16 11.5476 16 10.9954C16 10.4431 15.5523 9.99536 15 9.99536H9Z" fill="black"/>
<path d="M9 13.9954C8.44772 13.9954 8 14.4431 8 14.9954C8 15.5476 8.44772 15.9954 9 15.9954H12C12.5523 15.9954 13 15.5476 13 14.9954C13 14.4431 12.5523 13.9954 12 13.9954H9Z" fill="black"/>
<path fill-rule="evenodd" clip-rule="evenodd" d="M9 2.25C9 1.69772 8.55228 1.25 8 1.25C7.44772 1.25 7 1.69772 7 2.25V2.75C5.34315 2.75 4 4.09315 4 5.75V19.75C4 21.4069 5.34315 22.75 7 22.75H17C18.6569 22.75 20 21.4069 20 19.75V5.75C20 4.09315 18.6569 2.75 17 2.75V2.25C17 1.69772 16.5523 1.25 16 1.25C15.4477 1.25 15 1.69772 15 2.25V2.75H13V2.25C13 1.69772 12.5523 1.25 12 1.25C11.4477 1.25 11 1.69772 11 2.25V2.75H9V2.25ZM7 4.75C7 5.30228 7.44772 5.75 8 5.75C8.55228 5.75 9 5.30228 9 4.75H11C11 5.30228 11.4477 5.75 12 5.75C12.5523 5.75 13 5.30228 13 4.75H15C15 5.30228 15.4477 5.75 16 5.75C16.5523 5.75 17 5.30228 17 4.75C17.5523 4.75 18 5.19772 18 5.75V19.75C18 20.3023 17.5523 20.75 17 20.75H7C6.44772 20.75 6 20.3023 6 19.75V5.75C6 5.19772 6.44772 4.75 7 4.75Z" fill="black"/>
</svg>
