<svg width="24" height="24" viewBox="0 0 24 24" fill="none" xmlns="http://www.w3.org/2000/svg">
<path fill-rule="evenodd" clip-rule="evenodd" d="M22 7.11411C22 5.39185 20.5532 4.02319 18.8336 4.11873L4.83359 4.89651C3.24384 4.98483 2 6.29968 2 7.89189V16.1079C2 17.7001 3.24384 19.015 4.83359 19.1033L18.8336 19.8811C20.5532 19.9766 22 18.608 22 16.8857V7.11411ZM18.9445 6.11565C19.5177 6.0838 20 6.54002 20 7.11411V10.9999H12V6.50146L18.9445 6.11565ZM10 6.61257L4.94453 6.89343C4.41461 6.92287 4 7.36115 4 7.89189V10.9999H10V6.61257ZM4 12.9999H10V17.3873L4.94453 17.1064C4.41461 17.077 4 16.6387 4 16.1079V12.9999ZM12 17.4984L18.9445 17.8842C19.5177 17.916 20 17.4598 20 16.8857V12.9999H12V17.4984Z" fill="black"/>
</svg>
