<svg width="24" height="24" viewBox="0 0 24 24" fill="none" xmlns="http://www.w3.org/2000/svg">
<path d="M3.71197 2.29779L3.00013 2.99987L3.71197 2.29779Z" fill="black"/>
<path fill-rule="evenodd" clip-rule="evenodd" d="M3.71197 2.29779C3.32414 1.90458 2.69099 1.90021 2.29779 2.28803C1.90458 2.67586 1.90021 3.30901 2.28803 3.70221L2.81588 4.2369C3.1559 4.58116 3.64829 5.07941 4.2579 5.69553C4.6814 6.12355 5.16148 6.60848 5.68636 7.13818C5.36603 7.37069 5.06618 7.61159 4.78776 7.85512C3.94184 8.59507 3.27346 9.37617 2.80914 10.0589C2.57745 10.3997 2.38762 10.729 2.25165 11.0282C2.1304 11.2951 2 11.6479 2 12C2 12.348 2.12643 12.6981 2.246 12.9658C2.37959 13.265 2.56647 13.5945 2.79536 13.9358C3.25398 14.6195 3.91596 15.4018 4.75834 16.143C6.44019 17.6227 8.91554 19 12 19C13.6994 19 15.2158 18.5986 16.5178 17.993C17.9062 19.3702 19.2046 20.6492 20.3029 21.717C20.6989 22.102 21.332 22.0931 21.717 21.6971C22.102 21.3011 22.0931 20.668 21.6971 20.283C18.7038 17.3729 14.2093 12.8784 10.4591 9.10735C8.58481 7.22269 6.89793 5.52019 5.6796 4.28885C5.07046 3.67319 4.57847 3.17535 4.23881 2.83146L3.71197 2.29779ZM3.71197 2.29779C3.71197 2.29779 3.70973 2.29999 3.00013 2.99987L3.71197 2.29779ZM14.9827 16.4671C14.6526 16.1383 14.3198 15.8065 13.9857 15.4731C13.4006 15.8083 12.7227 16 12 16C9.79086 16 8 14.2091 8 12C8 11.2737 8.19355 10.5927 8.53189 10.0056C8.04252 9.51324 7.56825 9.03564 7.11438 8.57828C6.75206 8.82522 6.41484 9.08905 6.10453 9.36049C5.38507 9.98981 4.83038 10.6433 4.46296 11.1836C4.2788 11.4544 4.1506 11.6837 4.0725 11.8556C4.04223 11.9222 4.024 11.9704 4.01316 12.0019C4.02386 12.0338 4.04197 12.0827 4.0722 12.1504C4.14897 12.3223 4.27501 12.5514 4.45631 12.8217C4.81806 13.361 5.36553 14.0133 6.07945 14.6414C7.51019 15.9002 9.53484 17 12 17C13.0851 17 14.0836 16.7976 14.9827 16.4671ZM10.0541 11.5359C10.0187 11.6848 10 11.8402 10 12C10 13.1046 10.8954 14 12 14C12.1579 14 12.3116 13.9817 12.459 13.9471C11.647 13.1344 10.8391 12.3242 10.0541 11.5359ZM3.00013 2.99987C2.28816 3.70209 2.28803 3.70221 2.28803 3.70221L3.00013 2.99987Z" fill="black"/>
<path d="M9.48334 5.32012C10.0174 5.85876 10.5901 6.43605 11.1909 7.04093C11.4552 7.0141 11.725 7 12 7C14.4405 7 16.4682 8.05458 17.9031 9.28449C18.6195 9.89858 19.1695 10.5412 19.5327 11.0843C19.7146 11.3562 19.8409 11.5902 19.9183 11.7715C19.9741 11.9022 19.9919 11.9762 19.9975 12.0011C19.992 12.0268 19.9744 12.1019 19.9188 12.2343C19.8427 12.4157 19.7185 12.6495 19.5394 12.921C19.2674 13.3333 18.8883 13.8031 18.4096 14.274C18.89 14.7523 19.3643 15.2237 19.8283 15.6839C20.3968 15.1224 20.8606 14.5503 21.2089 14.0222C21.4401 13.6718 21.6287 13.3281 21.763 13.0083C21.8891 12.7079 22 12.3522 22 12C22 11.644 21.8857 11.2859 21.7576 10.9859C21.6209 10.6659 21.4292 10.3224 21.1952 9.97249C20.7266 9.27186 20.0536 8.49363 19.2046 7.76598C17.5088 6.3124 15.0365 5 12 5C11.1104 5 10.2698 5.11731 9.48334 5.32012Z" fill="black"/>
<path d="M12.3465 8.20378C13.5141 9.37781 14.7537 10.622 15.9978 11.8666C15.929 9.76786 14.2435 8.07813 12.1465 8.00263L12.3465 8.20378Z" fill="black"/>
</svg>
