<svg width="24" height="24" viewBox="0 0 24 24" fill="none" xmlns="http://www.w3.org/2000/svg">
<path d="M15.7295 13.6839C16.1073 13.281 16.0869 12.6482 15.6839 12.2705C15.281 11.8927 14.6482 11.9131 14.2705 12.3161L11.216 15.5741L9.69615 14.1003C9.29966 13.7158 8.66657 13.7256 8.2821 14.122C7.89763 14.5185 7.90737 15.1516 8.30385 15.5361L10.5539 17.7179C10.7464 17.9046 11.0057 18.0061 11.2738 17.9997C11.5419 17.9933 11.7961 17.8796 11.9795 17.6839L15.7295 13.6839Z" fill="black"/>
<path fill-rule="evenodd" clip-rule="evenodd" d="M7 7V8C5.34315 8 4 9.34315 4 11V19C4 20.6569 5.34315 22 7 22H17C18.6569 22 20 20.6569 20 19V11C20 9.34315 18.6569 8 17 8V7C17 4.23858 14.7614 2 12 2C9.23858 2 7 4.23858 7 7ZM15 8V7C15 5.34315 13.6569 4 12 4C10.3431 4 9 5.34315 9 7V8H15ZM17 10C17.5523 10 18 10.4477 18 11V19C18 19.5523 17.5523 20 17 20H7C6.44772 20 6 19.5523 6 19V11C6 10.4477 6.44772 10 7 10H17Z" fill="black"/>
</svg>
