<svg width="24" height="24" viewBox="0 0 24 24" fill="none" xmlns="http://www.w3.org/2000/svg">
<path fill-rule="evenodd" clip-rule="evenodd" d="M12 8C9.79086 8 8 9.79086 8 12C8 14.2091 9.79086 16 12 16C14.2091 16 16 14.2091 16 12C16 9.79086 14.2091 8 12 8ZM10 12C10 10.8954 10.8954 10 12 10C13.1046 10 14 10.8954 14 12C14 13.1046 13.1046 14 12 14C10.8954 14 10 13.1046 10 12Z" fill="black"/>
<path fill-rule="evenodd" clip-rule="evenodd" d="M12 5C8.94976 5 6.47515 6.37913 4.78776 7.85512C3.94184 8.59507 3.27346 9.37617 2.80914 10.0589C2.57745 10.3997 2.38762 10.729 2.25165 11.0282C2.1304 11.2951 2 11.6479 2 12C2 12.348 2.12643 12.6981 2.246 12.9658C2.37959 13.265 2.56647 13.5945 2.79536 13.9358C3.25398 14.6195 3.91596 15.4018 4.75834 16.143C6.44019 17.6227 8.91554 19 12 19C15.0707 19 17.5438 17.6894 19.2341 16.2321C20.0795 15.5033 20.7461 14.7238 21.2089 14.0222C21.4401 13.6718 21.6287 13.3281 21.763 13.0083C21.8891 12.7079 22 12.3522 22 12C22 11.644 21.8857 11.2859 21.7576 10.9859C21.6209 10.6659 21.4292 10.3224 21.1952 9.97249C20.7266 9.27186 20.0536 8.49363 19.2046 7.76598C17.5088 6.3124 15.0365 5 12 5ZM4.0722 12.1504C4.04197 12.0827 4.02386 12.0338 4.01316 12.0019C4.024 11.9704 4.04223 11.9222 4.0725 11.8556C4.1506 11.6837 4.2788 11.4544 4.46296 11.1836C4.83038 10.6433 5.38507 9.98981 6.10453 9.36049C7.5479 8.09794 9.57329 7 12 7C14.4405 7 16.4682 8.05458 17.9031 9.28449C18.6195 9.89858 19.1695 10.5412 19.5327 11.0843C19.7146 11.3562 19.8409 11.5902 19.9183 11.7715C19.9741 11.9022 19.9919 11.9762 19.9975 12.0011C19.992 12.0268 19.9744 12.1019 19.9188 12.2343C19.8427 12.4157 19.7185 12.6495 19.5394 12.921C19.1818 13.4631 18.639 14.1045 17.9281 14.7174C16.5058 15.9437 14.479 17 12 17C9.53484 17 7.51019 15.9002 6.07945 14.6414C5.36553 14.0133 4.81806 13.361 4.45631 12.8217C4.27501 12.5514 4.14897 12.3223 4.0722 12.1504Z" fill="black"/>
</svg>
