<svg width="24" height="24" viewBox="0 0 24 24" fill="none" xmlns="http://www.w3.org/2000/svg">
<path d="M12 6C12.5523 6 13 6.44772 13 7V10C13 10.5523 12.5523 11 12 11C11.4477 11 11 10.5523 11 10V7C11 6.44772 11.4477 6 12 6Z" fill="black"/>
<path d="M12 14C12.5523 14 13 13.5523 13 13C13 12.4477 12.5523 12 12 12C11.4477 12 11 12.4477 11 13C11 13.5523 11.4477 14 12 14Z" fill="black"/>
<path fill-rule="evenodd" clip-rule="evenodd" d="M6 3C4.34315 3 3 4.34315 3 6V14C3 15.6569 4.34315 17 6 17H9V19H8C7.44772 19 7 19.4477 7 20C7 20.5523 7.44772 21 8 21H16C16.5523 21 17 20.5523 17 20C17 19.4477 16.5523 19 16 19H15V17H18C19.6569 17 21 15.6569 21 14V6C21 4.34315 19.6569 3 18 3H6ZM13 17V19H11V17H13ZM18 15C18.5523 15 19 14.5523 19 14V6C19 5.44772 18.5523 5 18 5H6C5.44772 5 5 5.44772 5 6V14C5 14.5523 5.44772 15 6 15H18Z" fill="black"/>
</svg>
