<svg width="24" height="24" viewBox="0 0 24 24" fill="none" xmlns="http://www.w3.org/2000/svg">
<path d="M7.5 7C8.32843 7 9 6.32843 9 5.5C9 4.67157 8.32843 4 7.5 4C6.67157 4 6 4.67157 6 5.5C6 6.32843 6.67157 7 7.5 7Z" fill="black"/>
<path d="M16.5 7C17.3284 7 18 6.32843 18 5.5C18 4.67157 17.3284 4 16.5 4C15.6716 4 15 4.67157 15 5.5C15 6.32843 15.6716 7 16.5 7Z" fill="black"/>
<path fill-rule="evenodd" clip-rule="evenodd" d="M14 10C14 10.7074 13.6327 11.329 13.0785 11.6846C13.3882 13.0116 14.5787 14 16 14C17.6569 14 19 12.6569 19 11C19 10.4477 19.4477 10 20 10C20.5523 10 21 10.4477 21 11C21 13.7614 18.7614 16 16 16V17C16 19.2091 14.2091 21 12 21C9.79086 21 8 19.2091 8 17V16C5.23858 16 3 13.7614 3 11C3 10.4477 3.44772 10 4 10C4.55228 10 5 10.4477 5 11C5 12.6569 6.34315 14 8 14C9.42133 14 10.6118 13.0116 10.9215 11.6846C10.3673 11.329 10 10.7074 10 10C10 8.89543 10.8954 8 12 8C13.1046 8 14 8.89543 14 10ZM10 15.584V17C10 18.1046 10.8954 19 12 19C13.1046 19 14 18.1046 14 17V15.584C13.2037 15.2361 12.5156 14.6868 12 14.0005C11.4844 14.6868 10.7963 15.2361 10 15.584Z" fill="black"/>
</svg>
