<svg width="24" height="24" viewBox="0 0 24 24" fill="none" xmlns="http://www.w3.org/2000/svg">
<path fill-rule="evenodd" clip-rule="evenodd" d="M6 3.8501C6 3.29781 6.44772 2.8501 7 2.8501H17C17.5523 2.8501 18 3.29781 18 3.8501C18 4.40238 17.5523 4.8501 17 4.8501H16V9.8501C16 11.507 17.3431 12.8501 19 12.8501C19.5523 12.8501 20 13.2978 20 13.8501C20 14.4024 19.5523 14.8501 19 14.8501H13V21.8501C13 22.4024 12.5523 22.8501 12 22.8501C11.4477 22.8501 11 22.4024 11 21.8501V14.8501H5C4.44772 14.8501 4 14.4024 4 13.8501C4 13.2978 4.44772 12.8501 5 12.8501C6.65685 12.8501 8 11.507 8 9.8501V4.8501H7C6.44772 4.8501 6 4.40238 6 3.8501ZM14.9996 12.8501C14.3719 12.0144 14 10.9757 14 9.8501V4.8501H10V9.8501C10 10.9757 9.62806 12.0144 9.00037 12.8501H14.9996Z" fill="black"/>
</svg>
