<svg width="24" height="24" viewBox="0 0 24 24" fill="none" xmlns="http://www.w3.org/2000/svg">
<path d="M7.66675 12C7.66675 11.4477 8.11446 11 8.66675 11H11.0001V8.66665C11.0001 8.11436 11.4478 7.66665 12.0001 7.66665C12.5524 7.66665 13.0001 8.11436 13.0001 8.66665V11H15.3334C15.8857 11 16.3334 11.4477 16.3334 12C16.3334 12.5523 15.8857 13 15.3334 13H13.0001V15.3333C13.0001 15.8856 12.5524 16.3333 12.0001 16.3333C11.4478 16.3333 11.0001 15.8856 11.0001 15.3333V13H8.66675C8.11446 13 7.66675 12.5523 7.66675 12Z" fill="black"/>
<path fill-rule="evenodd" clip-rule="evenodd" d="M4.99756 2C3.3407 2 1.99756 3.34314 1.99756 5V19C1.99756 20.6568 3.3407 22 4.99756 22H19.0027C20.6595 22 22.0027 20.6568 22.0027 19V5C22.0027 3.34315 20.6595 2 19.0027 2H4.99756ZM19.0027 4H4.99756C4.44527 4 3.99756 4.44771 3.99756 5V19C3.99756 19.5523 4.44527 20 4.99756 20H19.0027C19.555 20 20.0027 19.5523 20.0027 19V5C20.0027 4.44771 19.555 4 19.0027 4Z" fill="black"/>
</svg>
