<svg width="24" height="24" viewBox="0 0 24 24" fill="none" xmlns="http://www.w3.org/2000/svg">
<path d="M12 12C13.1046 12 14 11.1046 14 10C14 8.89543 13.1046 8 12 8C10.8954 8 10 8.89543 10 10C10 11.1046 10.8954 12 12 12Z" fill="black"/>
<path fill-rule="evenodd" clip-rule="evenodd" d="M11.4037 22.0029C11.4037 22.0029 11.4041 22.0032 12.0265 21.2205L11.4037 22.0029C11.768 22.2925 12.2845 22.2929 12.6488 22.0032L12.0265 21.2205C12.6488 22.0032 12.6488 22.0032 12.6488 22.0032L12.6499 22.0024L12.6516 22.001L12.6568 21.9968L12.6749 21.9823C12.6902 21.9699 12.712 21.9522 12.7398 21.9294C12.7955 21.8837 12.8754 21.8173 12.9761 21.7317C13.1774 21.5606 13.4623 21.3121 13.8029 20.9975C14.4827 20.3697 15.3913 19.4724 16.3028 18.3964C18.0819 16.296 20.053 13.3061 20.053 10.2166C20.053 5.70405 16.4844 2 12.0265 2C7.56858 2 4 5.70405 4 10.2166C4 13.3061 5.97107 16.296 7.7502 18.3964C8.66166 19.4724 9.57028 20.3697 10.2501 20.9975C10.5907 21.3121 10.8756 21.5606 11.0769 21.7317C11.1776 21.8173 11.2575 21.8837 11.3131 21.9294C11.341 21.9522 11.3628 21.9699 11.3781 21.9823L11.3961 21.9968L11.4014 22.001L11.4037 22.0029ZM6 10.2166C6 6.75794 8.72315 4 12.0265 4C15.3298 4 18.053 6.75794 18.053 10.2166C18.053 12.5444 16.5108 15.0564 14.7767 17.1037C13.9315 18.1014 13.0835 18.9394 12.4459 19.5283C12.2925 19.6699 12.1517 19.7968 12.0265 19.9077C11.9013 19.7968 11.7605 19.6699 11.6071 19.5283C10.9695 18.9394 10.1215 18.1014 9.27629 17.1037C7.54218 15.0564 6 12.5444 6 10.2166Z" fill="black"/>
</svg>
