<svg width="24" height="24" viewBox="0 0 24 24" fill="none" xmlns="http://www.w3.org/2000/svg">
<path fill-rule="evenodd" clip-rule="evenodd" d="M4.56381 7.12062L2.2718 4.68537C1.89329 4.28319 1.91246 3.65032 2.31464 3.2718C2.71681 2.89329 3.34969 2.91246 3.7282 3.31464L19.7282 20.3146C20.1067 20.7168 20.0875 21.3497 19.6854 21.7282C19.2832 22.1067 18.6503 22.0875 18.2718 21.6854L15.747 19.0028C14.3366 20.5716 13.0366 21.6645 12.7068 21.9348C12.681 21.956 12.6609 21.9723 12.6467 21.9838L12.6299 21.9972L12.625 22.0012L12.6226 22.0031C12.2583 22.2927 11.7421 22.2929 11.3778 22.0032L11.3752 22.0012L11.3703 21.9972L11.3536 21.9838C11.3394 21.9723 11.3192 21.956 11.2934 21.9348C10.8973 21.6102 9.10123 20.0984 7.39543 18.0008C5.72118 15.9419 3.97363 13.1263 3.97363 10.2166C3.97363 9.12346 4.18305 8.07774 4.56381 7.12062ZM14.3711 17.5409C13.4505 18.5783 12.5665 19.4062 12.0001 19.9077C11.2944 19.2828 10.0956 18.1512 8.94714 16.7389C7.33066 14.7511 5.97363 12.3994 5.97363 10.2166C5.97363 9.72422 6.02883 9.246 6.13304 8.78793L14.3711 17.5409Z" fill="black"/>
<path d="M11.0851 8.22104L13.7202 11.0208C13.8979 10.722 14 10.3729 14 10C14 8.89543 13.1046 8 12 8C11.6703 8 11.3593 8.07976 11.0851 8.22104Z" fill="black"/>
<path d="M18.0266 10.2166C18.0266 11.5425 17.5259 12.9307 16.7705 14.2618L18.1972 15.7776C19.23 14.1028 20.0266 12.1812 20.0266 10.2166C20.0266 5.70405 16.458 2 12.0001 2C10.081 2 8.32665 2.68649 6.95092 3.82843L8.32593 5.28938C9.34621 4.47951 10.6227 4 12.0001 4C15.3035 4 18.0266 6.75794 18.0266 10.2166Z" fill="black"/>
</svg>
