<svg width="24" height="24" viewBox="0 0 24 24" fill="none" xmlns="http://www.w3.org/2000/svg">
<path d="M13 4C13 3.44772 12.5523 3 12 3C11.4477 3 11 3.44772 11 4V12C11 12.5523 11.4477 13 12 13C12.5523 13 13 12.5523 13 12V4Z" fill="black"/>
<path d="M6.7853 7.3301C7.1539 6.91882 7.1193 6.2866 6.70801 5.918C6.29673 5.5494 5.66451 5.58401 5.29591 5.99529C3.86901 7.58742 3 9.69342 3 12C3 16.9706 7.02944 21 12 21C16.9706 21 21 16.9706 21 12C21 9.69342 20.131 7.58742 18.7041 5.99529C18.3355 5.58401 17.7033 5.5494 17.292 5.918C16.8807 6.2866 16.8461 6.91882 17.2147 7.3301C18.3256 8.56962 19 10.2049 19 12C19 15.866 15.866 19 12 19C8.13401 19 5 15.866 5 12C5 10.2049 5.67442 8.56962 6.7853 7.3301Z" fill="black"/>
</svg>
