<svg width="24" height="24" viewBox="0 0 24 24" fill="none" xmlns="http://www.w3.org/2000/svg">
<path fill-rule="evenodd" clip-rule="evenodd" d="M8.50012 9.50002C8.50012 7.56702 10.0671 6.00002 12.0001 6.00002C13.9331 6.00002 15.5001 7.56702 15.5001 9.50002C15.5001 11.433 13.9331 13 12.0001 13C10.0671 13 8.50012 11.433 8.50012 9.50002ZM12.0001 8.00002C11.1717 8.00002 10.5001 8.67159 10.5001 9.50002C10.5001 10.3284 11.1717 11 12.0001 11C12.8285 11 13.5001 10.3284 13.5001 9.50002C13.5001 8.67159 12.8285 8.00002 12.0001 8.00002Z" fill="black"/>
<path fill-rule="evenodd" clip-rule="evenodd" d="M12.9215 2.3516C12.3438 2.05174 11.6564 2.05174 11.0787 2.3516L4.5183 5.75693C4.18695 5.92892 3.979 6.27116 3.979 6.64448V11.8567C3.979 12.8253 4.08585 13.8696 4.47426 14.8687C5.59329 17.7471 7.38704 19.5202 8.91097 20.5711C9.67049 21.0949 10.3623 21.4391 10.8709 21.6543C11.1255 21.7621 11.3352 21.8379 11.486 21.8881C11.5614 21.9131 11.6221 21.9318 11.6665 21.9449C11.6887 21.9514 11.7068 21.9565 11.7206 21.9603L11.7381 21.9651L11.7443 21.9668L11.7468 21.9674L11.7479 21.9677C11.7484 21.9678 11.7489 21.968 12.0001 21L11.7489 21.968C11.9263 22.014 12.113 22.0104 12.2886 21.9575L12.0001 21C12.2886 21.9575 12.2881 21.9576 12.2886 21.9575L12.2905 21.9569L12.2928 21.9562L12.2987 21.9544L12.3154 21.9492C12.3287 21.9449 12.3463 21.9393 12.3678 21.9321C12.411 21.9176 12.4704 21.8971 12.5442 21.8697C12.6919 21.815 12.8979 21.7331 13.1484 21.6189C13.6488 21.3908 14.3307 21.0322 15.0806 20.5022C16.5825 19.4407 18.3656 17.6846 19.4911 14.9175C19.9085 13.8914 20.0212 12.812 20.0212 11.8148V6.64448C20.0212 6.27116 19.8132 5.92892 19.4819 5.75693L12.9215 2.3516ZM11.6503 19.8125C11.7791 19.867 11.8909 19.9101 11.9821 19.9432C12.0746 19.9064 12.188 19.8587 12.3189 19.799C12.7249 19.614 13.2947 19.3154 13.9263 18.869C14.6204 18.3784 15.3866 17.7115 16.094 16.8208C15.5461 16.2385 14.7694 15.8764 13.9088 15.8764H10.0001C9.14498 15.8764 8.37265 16.2339 7.82532 16.8098C8.54822 17.7519 9.33675 18.4353 10.0464 18.9246C10.6768 19.3594 11.2457 19.6412 11.6503 19.8125ZM6.74945 15.0774C6.60369 14.7832 6.466 14.4723 6.33834 14.144C6.07339 13.4625 5.979 12.6911 5.979 11.8567V7.2521L12.0001 4.12671L18.0212 7.2521V11.8148C18.0212 12.6757 17.9212 13.4689 17.6385 14.1639C17.5028 14.4976 17.356 14.8136 17.2003 15.1128C16.3215 14.3436 15.17 13.8764 13.9088 13.8764H10.0001C8.75843 13.8764 7.62302 14.3293 6.74945 15.0774Z" fill="black"/>
</svg>
