<svg width="24" height="24" viewBox="0 0 24 24" fill="none" xmlns="http://www.w3.org/2000/svg">
<path d="M14 9C14 10.1046 13.1046 11 12 11C10.8954 11 10 10.1046 10 9C10 7.89543 10.8954 7 12 7C13.1046 7 14 7.89543 14 9Z" fill="black"/>
<path fill-rule="evenodd" clip-rule="evenodd" d="M8 2C6.34315 2 5 3.34315 5 5H4.85034C3.27614 5 2 6.27614 2 7.85034C2 8.85167 2.39778 9.81199 3.10582 10.52L5.75875 13.173C6.77154 15.1612 8.70644 16.601 11 16.9291V20H9C8.44772 20 8 20.4477 8 21C8 21.5523 8.44772 22 9 22H15C15.5523 22 16 21.5523 16 21C16 20.4477 15.5523 20 15 20H13V16.9291C15.2936 16.601 17.2285 15.1612 18.2413 13.173L20.8942 10.52C21.6022 9.81199 22 8.85167 22 7.85034C22 6.27614 20.7239 5 19.1497 5H19C19 3.34315 17.6569 2 16 2H8ZM17 5C17 4.44772 16.5523 4 16 4H8C7.44772 4 7 4.44772 7 5V10C7 12.7614 9.23858 15 12 15C14.7614 15 17 12.7614 17 10V5ZM19 7H19.1497C19.6193 7 20 7.38071 20 7.85034C20 8.32124 19.8129 8.77285 19.48 9.10582L19 9.58579V7ZM4.85034 7H5V9.58579L4.52004 9.10582C4.18706 8.77285 4 8.32124 4 7.85034C4 7.38071 4.38071 7 4.85034 7Z" fill="black"/>
</svg>
