<svg width="24" height="24" viewBox="0 0 24 24" fill="none" xmlns="http://www.w3.org/2000/svg">
<path d="M11.9999 7.7829C11.1115 7.7829 10.3914 8.50307 10.3914 9.39145C10.3914 10.2798 11.1115 11 11.9999 11C12.8883 11 13.6085 10.2798 13.6085 9.39145C13.6085 8.50307 12.8883 7.7829 11.9999 7.7829Z" fill="black"/>
<path fill-rule="evenodd" clip-rule="evenodd" d="M12 2C6.47715 2 2 6.47715 2 12C2 14.7974 3.14864 17.3265 5 19.1414V17.9368C5 15.7277 6.79086 13.9368 9 13.9368H15C17.2091 13.9368 19 15.7277 19 17.9368V19.1414C20.8514 17.3265 22 14.7974 22 12C22 6.47715 17.5228 2 12 2ZM8.39136 9.39145C8.39136 7.3985 10.007 5.7829 11.9999 5.7829C13.9929 5.7829 15.6085 7.3985 15.6085 9.39145C15.6085 11.3844 13.9929 13 11.9999 13C10.007 13 8.39136 11.3844 8.39136 9.39145Z" fill="black"/>
<path d="M17 20.6622V17.9368C17 16.8323 16.1046 15.9368 15 15.9368H9C7.89543 15.9368 7 16.8323 7 17.9368V20.6622C8.47087 21.513 10.1786 22 12 22C13.8214 22 15.5291 21.513 17 20.6622Z" fill="black"/>
</svg>
