<svg width="24" height="24" viewBox="0 0 24 24" fill="none" xmlns="http://www.w3.org/2000/svg">
<path fill-rule="evenodd" clip-rule="evenodd" d="M11.9826 6C9.98963 6 8.37402 7.6156 8.37402 9.60855C8.37402 11.6015 9.98963 13.2171 11.9826 13.2171C13.9755 13.2171 15.5911 11.6015 15.5911 9.60855C15.5911 7.6156 13.9755 6 11.9826 6ZM10.374 9.60855C10.374 8.72017 11.0942 8 11.9826 8C12.8709 8 13.5911 8.72017 13.5911 9.60855C13.5911 10.4969 12.8709 11.2171 11.9826 11.2171C11.0942 11.2171 10.374 10.4969 10.374 9.60855Z" fill="black"/>
<path fill-rule="evenodd" clip-rule="evenodd" d="M12 22C17.5228 22 22 17.5228 22 12C22 6.47715 17.5228 2 12 2C6.47715 2 2 6.47715 2 12C2 17.5228 6.47715 22 12 22ZM4 12C4 7.58172 7.58172 4 12 4C16.4183 4 20 7.58172 20 12C20 13.6208 19.518 15.129 18.6896 16.3891C18.0845 14.9485 16.6604 13.9368 15 13.9368H9C7.33959 13.9368 5.91547 14.9485 5.31044 16.3891C4.48198 15.129 4 13.6208 4 12ZM17 17.9368V18.2454C15.8756 19.1467 14.5025 19.7507 13 19.9381V15.9368H15C16.1046 15.9368 17 16.8322 17 17.9368ZM11 15.9368V19.9381C9.49752 19.7507 8.12443 19.1467 7 18.2454V17.9368C7 16.8322 7.89543 15.9368 9 15.9368H11Z" fill="black"/>
</svg>
