<svg width="24" height="24" viewBox="0 0 24 24" fill="none" xmlns="http://www.w3.org/2000/svg">
<path d="M8 7C8 6.44772 8.44772 6 9 6H15C15.5523 6 16 6.44772 16 7C16 7.55228 15.5523 8 15 8H9C8.44772 8 8 7.55228 8 7Z" fill="black"/>
<path d="M8 10C8 9.44772 8.44772 9 9 9H12C12.5523 9 13 9.44772 13 10C13 10.5523 12.5523 11 12 11H9C8.44772 11 8 10.5523 8 10Z" fill="black"/>
<path d="M8 13C8 12.4477 8.44772 12 9 12H14C14.5523 12 15 12.4477 15 13C15 13.5523 14.5523 14 14 14H9C8.44772 14 8 13.5523 8 13Z" fill="black"/>
<path d="M13 18C13 18.5523 12.5523 19 12 19C11.4477 19 11 18.5523 11 18C11 17.4477 11.4477 17 12 17C12.5523 17 13 17.4477 13 18Z" fill="black"/>
<path fill-rule="evenodd" clip-rule="evenodd" d="M7 2C5.34315 2 4 3.34315 4 5V19C4 20.6569 5.34315 22 7 22H17C18.6569 22 20 20.6569 20 19V5C20 3.34315 18.6569 2 17 2H7ZM6 5C6 4.44772 6.44772 4 7 4H17C17.5523 4 18 4.44772 18 5V19C18 19.5523 17.5523 20 17 20H7C6.44772 20 6 19.5523 6 19V5Z" fill="black"/>
</svg>
