<svg width="24" height="24" viewBox="0 0 24 24" fill="none" xmlns="http://www.w3.org/2000/svg">
<path d="M16.2266 4.26636C16.2266 3.71407 15.7788 3.26636 15.2266 3.26636C14.6743 3.26636 14.2266 3.71407 14.2266 4.26636V7.7843L11.1799 6.02533C10.7016 5.74919 10.09 5.91306 9.81391 6.39136C9.53776 6.86965 9.70164 7.48124 10.1799 7.75738L13.2266 9.51636L10.1799 11.2753C9.70163 11.5515 9.53776 12.1631 9.8139 12.6414C10.09 13.1196 10.7016 13.2835 11.1799 13.0074L14.2266 11.2484V14.7664C14.2266 15.3186 14.6743 15.7664 15.2266 15.7664C15.7788 15.7664 16.2266 15.3186 16.2266 14.7664V11.2484L19.2732 13.0074C19.7515 13.2835 20.3631 13.1196 20.6392 12.6414C20.9154 12.1631 20.7515 11.5515 20.2732 11.2753L17.2266 9.51636L20.2732 7.75738C20.7515 7.48124 20.9154 6.86965 20.6392 6.39136C20.3631 5.91306 19.7515 5.74919 19.2732 6.02533L16.2266 7.78431V4.26636Z" fill="black"/>
<path d="M4.96021 20.7336C5.91767 20.7336 6.69385 19.9575 6.69385 19C6.69385 18.0425 5.91767 17.2664 4.96021 17.2664C4.00274 17.2664 3.22656 18.0425 3.22656 19C3.22656 19.9575 4.00274 20.7336 4.96021 20.7336Z" fill="black"/>
</svg>
