<svg width="24" height="25" viewBox="0 0 24 25" fill="none" xmlns="http://www.w3.org/2000/svg">
<path d="M18.4643 7.8501C16.9766 6.0224 14.6904 4.8501 12.1229 4.8501C7.62391 4.8501 4 8.44456 4 12.8501C4 17.2556 7.62391 20.8501 12.1229 20.8501C15.9701 20.8501 19.1823 18.2184 20.0277 14.7002C20.1567 14.1632 20.6966 13.8325 21.2336 13.9615C21.7706 14.0906 22.1014 14.6305 21.9723 15.1675C20.9118 19.581 16.8984 22.8501 12.1229 22.8501C6.545 22.8501 2 18.3857 2 12.8501C2 7.31451 6.545 2.8501 12.1229 2.8501C15.3028 2.8501 18.1433 4.29942 20 6.56889V4.8501C20 4.29781 20.4477 3.8501 21 3.8501C21.5523 3.8501 22 4.29781 22 4.8501V8.8501C22 9.40238 21.5523 9.8501 21 9.8501H17C16.4477 9.8501 16 9.40238 16 8.8501C16 8.29781 16.4477 7.8501 17 7.8501H18.4643Z" fill="black"/>
</svg>
