<svg width="24" height="24" viewBox="0 0 24 24" fill="none" xmlns="http://www.w3.org/2000/svg">
<path d="M5.00116 5C4.47271 5 4 5.44716 4 6.05414V17.9459C4 18.5528 4.47271 19 5.00116 19H14.1937C13.681 19.5673 13.4234 20.2833 13.4211 21H5.00116C3.31919 21 2 19.6078 2 17.9459V6.05414C2 4.39218 3.31919 3 5.00116 3H9.06885C9.93008 3 10.7516 3.34757 11.3576 3.95929L12.4346 5.04627H18.9988C20.6808 5.04627 22 6.43845 22 8.10041V12.4447C21.2854 12.4414 20.5698 12.6919 20 13.1962V8.10041C20 7.49343 19.5273 7.04627 18.9988 7.04627H12.0177C11.7509 7.04627 11.4951 6.93964 11.3073 6.7501L9.93691 5.36695C9.70088 5.12872 9.38863 5 9.06885 5H5.00116Z" fill="black"/>
<path d="M17.1281 14.7376C16.7376 14.347 16.1044 14.347 15.7139 14.7376C15.3234 15.1281 15.3234 15.7613 15.7139 16.1518L17.7894 18.2273L15.714 20.3027C15.3235 20.6932 15.3235 21.3264 15.714 21.7169C16.1045 22.1074 16.7377 22.1074 17.1282 21.7169L19.2036 19.6415L21.279 21.7169C21.6696 22.1074 22.3027 22.1074 22.6933 21.7169C23.0838 21.3264 23.0838 20.6932 22.6933 20.3027L20.6178 18.2273L22.6933 16.1518C23.0838 15.7613 23.0838 15.1281 22.6933 14.7376C22.3028 14.347 21.6696 14.347 21.2791 14.7376L19.2036 16.8131L17.1281 14.7376Z" fill="black"/>
</svg>
