<svg width="24" height="24" viewBox="0 0 24 24" fill="none" xmlns="http://www.w3.org/2000/svg">
<path d="M9.52478 10.9761C9.52478 10.4239 9.07706 9.97614 8.52478 9.97614C7.9725 9.97614 7.52478 10.4239 7.52478 10.9761V17.9761C7.52478 18.5284 7.9725 18.9761 8.52478 18.9761C9.07706 18.9761 9.52478 18.5284 9.52478 17.9761V10.9761Z" fill="black"/>
<path d="M15.4752 11.9761C16.0275 11.9761 16.4752 12.4239 16.4752 12.9761V17.9761C16.4752 18.5284 16.0275 18.9761 15.4752 18.9761C14.9229 18.9761 14.4752 18.5284 14.4752 17.9761V12.9761C14.4752 12.4239 14.9229 11.9761 15.4752 11.9761Z" fill="black"/>
<path d="M13 14.9761C13 14.4239 12.5523 13.9761 12 13.9761C11.4477 13.9761 11 14.4239 11 14.9761V17.9761C11 18.5284 11.4477 18.9761 12 18.9761C12.5523 18.9761 13 18.5284 13 17.9761V14.9761Z" fill="black"/>
<path fill-rule="evenodd" clip-rule="evenodd" d="M4 5C4 3.34315 5.34315 2 7 2H12.8265C13.2262 2 13.6093 2.15952 13.891 2.44317L19.5645 8.15778C19.8434 8.43877 20 8.81866 20 9.21461V19C20 20.6569 18.6569 22 17 22H7C5.34315 22 4 20.6569 4 19V5ZM7 4C6.44772 4 6 4.44772 6 5V19C6 19.5523 6.44772 20 7 20H17C17.5523 20 18 19.5523 18 19V9.98489H15.0093C13.3524 9.98489 12.0093 8.64174 12.0093 6.98488L12.0093 4H7ZM14.0093 5.40105L16.5746 7.98489H15.0093C14.457 7.98489 14.0093 7.53717 14.0093 6.98489L14.0093 5.40105Z" fill="black"/>
</svg>
