<svg width="24" height="24" viewBox="0 0 24 24" fill="none" xmlns="http://www.w3.org/2000/svg">
<path d="M5.53573 7.8501C7.02344 6.0224 9.30961 4.8501 11.8771 4.8501C16.3761 4.8501 20 8.44456 20 12.8501C20 17.2556 16.3761 20.8501 11.8771 20.8501C8.02992 20.8501 4.81768 18.2184 3.97232 14.7002C3.84329 14.1632 3.30337 13.8325 2.76637 13.9615C2.22937 14.0906 1.89864 14.6305 2.02768 15.1675C3.08817 19.581 7.10161 22.8501 11.8771 22.8501C17.455 22.8501 22 18.3857 22 12.8501C22 7.31451 17.455 2.8501 11.8771 2.8501C8.69722 2.8501 5.85667 4.29942 4 6.56889V4.8501C4 4.29781 3.55228 3.8501 3 3.8501C2.44772 3.8501 2 4.29781 2 4.8501V8.8501C2 9.40238 2.44772 9.8501 3 9.8501H7C7.55228 9.8501 8 9.40238 8 8.8501C8 8.29781 7.55228 7.8501 7 7.8501H5.53573Z" fill="black"/>
</svg>
