<svg width="24" height="24" viewBox="0 0 24 24" fill="none" xmlns="http://www.w3.org/2000/svg">
<path d="M12.1229 4C14.6904 4 16.9766 5.1723 18.4643 7H17C16.4477 7 16 7.44772 16 8C16 8.55228 16.4477 9 17 9H21C21.5523 9 22 8.55228 22 8V4C22 3.44772 21.5523 3 21 3C20.4477 3 20 3.44772 20 4V5.71879C18.1433 3.44932 15.3028 2 12.1229 2C6.545 2 2 6.46441 2 12C2 17.5356 6.545 22 12.1229 22C16.8984 22 20.9118 18.7309 21.9723 14.3174C22.1014 13.7804 21.7706 13.2405 21.2336 13.1114C20.6966 12.9824 20.1567 13.3131 20.0277 13.8501C19.1823 17.3683 15.9701 20 12.1229 20C7.62391 20 4 16.4055 4 12C4 7.59446 7.62391 4 12.1229 4Z" fill="black"/>
<path d="M12 14.5C13.3807 14.5 14.5 13.3807 14.5 12C14.5 10.6193 13.3807 9.5 12 9.5C10.6193 9.5 9.5 10.6193 9.5 12C9.5 13.3807 10.6193 14.5 12 14.5Z" fill="black"/>
</svg>
