<svg width="24" height="24" viewBox="0 0 24 24" fill="none" xmlns="http://www.w3.org/2000/svg">
<path d="M5.71576 8.62107C6.68529 5.71909 9.24265 4 12 4C14.2603 4 16.3284 5.11825 17.5995 7.12214C19.5796 7.48863 21.2938 9.02113 21.828 11.1158C21.1513 10.9221 20.4232 10.9724 19.779 11.2589C19.3077 9.99516 18.1456 9.13923 16.9095 9.04635L16.3645 9.0054L16.1047 8.52457C15.2116 6.8719 13.6763 6 12 6C9.9623 6 8.03895 7.34926 7.47296 9.74702L7.30491 10.4589L6.57551 10.5144C5.76295 10.5762 5.13781 10.8967 4.71262 11.3749C4.28511 11.8557 4 12.564 4 13.5C4 14.804 5.25921 16 6.71992 16H11.9999C11.9995 16.6579 12.2144 17.3204 12.6574 17.8741L12.7581 18H6.71992C4.31464 18 2 16.062 2 13.5C2 12.1484 2.41871 10.9448 3.21804 10.0459C3.8681 9.31487 4.73057 8.83012 5.71576 8.62107Z" fill="black"/>
<path d="M21.7474 14.6644C22.1144 14.2516 22.0772 13.6195 21.6644 13.2526C21.2516 12.8857 20.6195 12.9229 20.2526 13.3356L17.0403 16.9495L15.7809 15.3753C15.4359 14.944 14.8066 14.8741 14.3753 15.2191C13.9441 15.5641 13.8742 16.1934 14.2192 16.6247L16.2192 19.1247C16.4033 19.3548 16.6795 19.492 16.9741 19.4997C17.2687 19.5073 17.5517 19.3846 17.7474 19.1644L21.7474 14.6644Z" fill="black"/>
</svg>
