<svg width="24" height="24" viewBox="0 0 24 24" fill="none" xmlns="http://www.w3.org/2000/svg">
<path fill-rule="evenodd" clip-rule="evenodd" d="M11.5487 2.11459C11.8325 1.97021 12.1681 1.96959 12.4524 2.11292L21.4322 6.64024C21.6571 6.75362 21.8207 6.94036 21.9085 7.15673C21.9724 7.28979 22.0071 7.43736 22.0071 7.58966V16.4813C22.0071 16.8598 21.7934 17.2058 21.455 17.3754L12.4544 21.8847C12.4068 21.909 12.3577 21.9292 12.3076 21.9454C12.1415 21.9991 11.9642 22.0083 11.7936 21.9723C11.7083 21.9543 11.625 21.9251 11.5458 21.8847L2.54523 17.3754C2.20684 17.2058 1.99316 16.8598 1.99316 16.4813V7.58966C1.99316 7.24556 2.17008 6.92562 2.46153 6.74269C2.50449 6.71572 2.54906 6.69229 2.59481 6.67241C2.6129 6.66174 2.63144 6.65156 2.65042 6.6419L11.5487 2.11459ZM12.0042 4.1268L18.7916 7.54873L15.8744 8.95697L12.0005 6.9826L8.12364 8.9559L5.24451 7.56605L12.0042 4.1268ZM13.0001 19.3743V12.5653L20.0071 9.18282V15.8638L13.0001 19.3743ZM11.0001 12.5653L3.99316 9.18282V15.8638L11.0001 19.3743V12.5653Z" fill="black"/>
</svg>
