<svg width="24" height="24" viewBox="0 0 24 24" fill="none" xmlns="http://www.w3.org/2000/svg">
<path fill-rule="evenodd" clip-rule="evenodd" d="M7 11C7 8.23858 9.23858 6 12 6C14.7614 6 17 8.23858 17 11V12C17 12.5523 16.5523 13 16 13H8C7.44772 13 7 12.5523 7 12V11ZM13 11V10C13 9.44772 12.5523 9 12 9C11.4477 9 11 9.44772 11 10V11H9C9 9.34315 10.3431 8 12 8C13.6569 8 15 9.34315 15 11H13Z" fill="black"/>
<path fill-rule="evenodd" clip-rule="evenodd" d="M3 7C3 4.79086 4.79086 3 7 3H17C19.2091 3 21 4.79086 21 7V17C21 19.2091 19.2091 21 17 21H7C4.79086 21 3 19.2091 3 17V7ZM7 5C5.89543 5 5 5.89543 5 7V17C5 18.1046 5.89543 19 7 19H17C18.1046 19 19 18.1046 19 17V7C19 5.89543 18.1046 5 17 5H7Z" fill="black"/>
</svg>
