<svg width="24" height="24" viewBox="0 0 24 24" fill="none" xmlns="http://www.w3.org/2000/svg">
<path d="M4.01172 12C4.01172 7.58835 7.5881 4.01196 11.9998 4.01196C16.4115 4.01196 19.9879 7.58835 19.9879 12C19.9879 13.8454 19.3631 15.5434 18.3121 16.8961L16.9139 15.4984C17.6171 14.512 18.0316 13.3038 18.0316 12.0001C18.0316 8.66879 15.331 5.96825 11.9998 5.96825C8.66848 5.96825 5.96794 8.66879 5.96794 12.0001C5.96794 13.0609 6.24266 14.0606 6.7256 14.9287C6.99408 15.4114 7.60298 15.585 8.08562 15.3165C8.56825 15.048 8.74186 14.4391 8.47338 13.9565C8.1516 13.3781 7.96794 12.712 7.96794 12.0001C7.96794 9.77335 9.77305 7.96825 11.9998 7.96825C14.2265 7.96825 16.0316 9.77335 16.0316 12.0001C16.0316 12.7509 15.827 13.453 15.4697 14.0548L13.8918 12.4774C13.9303 12.3246 13.9507 12.1647 13.9507 11.9999C13.9507 10.9225 13.0772 10.049 11.9998 10.049C10.9223 10.049 10.0488 10.9225 10.0488 11.9999C10.0488 13.0774 10.9223 13.9509 11.9998 13.9509C12.1647 13.9509 12.3248 13.9304 12.4778 13.8919L17.6525 19.0647C18.0431 19.4552 18.6763 19.4551 19.0667 19.0645C19.0902 19.041 19.1123 19.0166 19.1329 18.9915C20.8979 17.1909 21.9879 14.7218 21.9879 12C21.9879 6.48378 17.5161 2.01196 11.9998 2.01196C6.48353 2.01196 2.01172 6.48378 2.01172 12C2.01172 13.717 2.44576 15.3355 3.21092 16.7489C3.47384 17.2346 4.08071 17.4152 4.5664 17.1523C5.05208 16.8893 5.23266 16.2825 4.96973 15.7968C4.35893 14.6685 4.01172 13.3763 4.01172 12Z" fill="black"/>
<path d="M10.3696 15.7038C9.89129 15.4276 9.27969 15.5915 9.00354 16.0698C8.72739 16.5481 8.89126 17.1597 9.36954 17.4358C9.73499 17.6468 10.1271 17.8217 10.5419 17.9548C11.0678 18.1235 11.6309 17.8339 11.7996 17.308C11.9682 16.7821 11.6786 16.219 11.1527 16.0503C10.8746 15.9611 10.6129 15.8442 10.3696 15.7038Z" fill="black"/>
<path d="M5.28332 17.8559C5.67127 17.4628 6.30442 17.4586 6.69751 17.8466C6.93848 18.0844 7.1948 18.3073 7.4651 18.5135C7.9042 18.8484 7.98861 19.476 7.65364 19.9151C7.31866 20.3542 6.69115 20.4386 6.25205 20.1036C5.91401 19.8457 5.59366 19.5672 5.29265 19.2701C4.89956 18.8822 4.89538 18.249 5.28332 17.8559Z" fill="black"/>
<path d="M9.87137 19.7027L9.91287 19.7205L10.0187 19.7656C10.1047 19.802 10.2084 19.8456 10.2899 19.8789C10.8014 20.0871 11.0472 20.6707 10.8389 21.1822C10.6306 21.6937 10.0471 21.9394 9.5356 21.7312C9.44015 21.6923 9.32561 21.6441 9.23756 21.6067L9.12628 21.5593L9.08117 21.54C8.57382 21.3217 8.33941 20.7336 8.55763 20.2262C8.77584 19.7189 9.36402 19.4845 9.87137 19.7027Z" fill="black"/>
</svg>
