<svg width="24" height="24" viewBox="0 0 24 24" fill="none" xmlns="http://www.w3.org/2000/svg">
<path d="M6 3.8501C4.34315 3.8501 3 5.19324 3 6.8501V8.3501C3 8.90238 3.44772 9.3501 4 9.3501C4.55228 9.3501 5 8.90238 5 8.3501V6.8501C5 6.29781 5.44772 5.8501 6 5.8501H7.5C8.05228 5.8501 8.5 5.40238 8.5 4.8501C8.5 4.29781 8.05228 3.8501 7.5 3.8501H6Z" fill="black"/>
<path d="M16.5 3.8501C15.9477 3.8501 15.5 4.29781 15.5 4.8501C15.5 5.40238 15.9477 5.8501 16.5 5.8501H18C18.5523 5.8501 19 6.29781 19 6.8501V8.3501C19 8.90238 19.4477 9.3501 20 9.3501C20.5523 9.3501 21 8.90238 21 8.3501V6.8501C21 5.19324 19.6569 3.8501 18 3.8501H16.5Z" fill="black"/>
<path d="M5 17.3501C5 16.7978 4.55228 16.3501 4 16.3501C3.44772 16.3501 3 16.7978 3 17.3501V18.8501C3 20.507 4.34315 21.8501 6 21.8501H7.5C8.05228 21.8501 8.5 21.4024 8.5 20.8501C8.5 20.2978 8.05228 19.8501 7.5 19.8501H6C5.44772 19.8501 5 19.4024 5 18.8501V17.3501Z" fill="black"/>
<path d="M21 17.3501C21 16.7978 20.5523 16.3501 20 16.3501C19.4477 16.3501 19 16.7978 19 17.3501V18.8501C19 19.4024 18.5523 19.8501 18 19.8501H16.5C15.9477 19.8501 15.5 20.2978 15.5 20.8501C15.5 21.4024 15.9477 21.8501 16.5 21.8501H18C19.6569 21.8501 21 20.507 21 18.8501V17.3501Z" fill="black"/>
<path d="M4 11.8501C3.44772 11.8501 3 12.2978 3 12.8501C3 13.4024 3.44772 13.8501 4 13.8501H20C20.5523 13.8501 21 13.4024 21 12.8501C21 12.2978 20.5523 11.8501 20 11.8501H4Z" fill="black"/>
</svg>
