<svg width="24" height="24" viewBox="0 0 24 24" fill="none" xmlns="http://www.w3.org/2000/svg">
<path d="M8.5 11.0046C8.5 10.4524 8.94772 10.0046 9.5 10.0046H12.8293C13.3816 10.0046 13.8293 10.4524 13.8293 11.0046C13.8293 11.5569 13.3816 12.0046 12.8293 12.0046H9.5C8.94772 12.0046 8.5 11.5569 8.5 11.0046Z" fill="black"/>
<path d="M9.5 6.00464C8.94772 6.00464 8.5 6.45235 8.5 7.00464C8.5 7.55692 8.94772 8.00464 9.5 8.00464H16C16.5523 8.00464 17 7.55692 17 7.00464C17 6.45235 16.5523 6.00464 16 6.00464H9.5Z" fill="black"/>
<path fill-rule="evenodd" clip-rule="evenodd" d="M5 4.00464C5 2.90007 5.89543 2.00464 7 2.00464H19C20.1046 2.00464 21 2.90007 21 4.00464V19.2046C21 20.751 19.7464 22.0046 18.2 22.0046H5C3.34315 22.0046 2 20.6615 2 19.0046V16.0046C2 15.4524 2.44772 15.0046 3 15.0046H5V4.00464ZM19 18.5046C19 19.3331 18.3284 20.0046 17.5 20.0046C16.6716 20.0046 16 19.3331 16 18.5046V16.0046C16 15.4524 15.5523 15.0046 15 15.0046H7V4.00464L19 4.00464V18.5046ZM14 17.0046V18.5046C14 19.0414 14.1208 19.55 14.3368 20.0046H5C4.44772 20.0046 4 19.5569 4 19.0046V17.0046H14Z" fill="black"/>
</svg>
