<svg width="24" height="24" viewBox="0 0 24 24" fill="none" xmlns="http://www.w3.org/2000/svg">
<path d="M5 4.00464C5 2.90007 5.89543 2.00464 7 2.00464H19C20.1046 2.00464 21 2.90007 21 4.00464V16.0046C21 14.6984 20.1652 13.5872 19 13.1753V4.00464L7 4.00464V15.0046H15V16.0046C14.1115 16.0046 13.3132 16.3909 12.7639 17.0046H4V19.0046C4 19.5569 4.44772 20.0046 5 20.0046H12.1707C12.5825 21.1698 13.6938 22.0046 15 22.0046H5C3.34315 22.0046 2 20.6615 2 19.0046V16.0046C2 15.4524 2.44772 15.0046 3 15.0046H5V4.00464Z" fill="black"/>
<path d="M9.5 6.00464C8.94772 6.00464 8.5 6.45235 8.5 7.00464C8.5 7.55692 8.94772 8.00464 9.5 8.00464H16C16.5523 8.00464 17 7.55692 17 7.00464C17 6.45235 16.5523 6.00464 16 6.00464H9.5Z" fill="black"/>
<path d="M8.5 11.0046C8.5 10.4524 8.94772 10.0046 9.5 10.0046H12.8293C13.3816 10.0046 13.8293 10.4524 13.8293 11.0046C13.8293 11.5569 13.3816 12.0046 12.8293 12.0046H9.5C8.94772 12.0046 8.5 11.5569 8.5 11.0046Z" fill="black"/>
<path d="M18 15.0046C18.5523 15.0046 19 15.4524 19 16.0046V18.0046H21C21.5523 18.0046 22 18.4524 22 19.0046C22 19.5569 21.5523 20.0046 21 20.0046H19V22.0046C19 22.5569 18.5523 23.0046 18 23.0046C17.4477 23.0046 17 22.5569 17 22.0046V20.0046H15C14.4477 20.0046 14 19.5569 14 19.0046C14 18.4524 14.4477 18.0046 15 18.0046H17V16.0046C17 15.4524 17.4477 15.0046 18 15.0046Z" fill="black"/>
</svg>
