<svg width="24" height="24" viewBox="0 0 24 24" fill="none" xmlns="http://www.w3.org/2000/svg">
<path fill-rule="evenodd" clip-rule="evenodd" d="M4 5C4 3.34315 5.34315 2 7 2H14.7597C15.2154 2 15.6463 2.20713 15.931 2.56296L19.6713 7.23835C19.8841 7.50432 20 7.83478 20 8.17539V19C20 20.6569 18.6569 22 17 22H7C5.34315 22 4 20.6569 4 19V5ZM9 6C9.55228 6 10 6.44772 10 7V9C10 9.55228 9.55228 10 9 10C8.44772 10 8 9.55228 8 9V7C8 6.44772 8.44772 6 9 6ZM13 6C13.5523 6 14 6.44772 14 7V9C14 9.55228 13.5523 10 13 10C12.4477 10 12 9.55228 12 9V7C12 6.44772 12.4477 6 13 6Z" fill="black"/>
</svg>
