<svg width="24" height="24" viewBox="0 0 24 24" fill="none" xmlns="http://www.w3.org/2000/svg">
<path fill-rule="evenodd" clip-rule="evenodd" d="M14.5 5C11.4624 5 9 7.46243 9 10.5C9 13.5376 11.4624 16 14.5 16C15.5093 16 16.4551 15.7281 17.2682 15.2536L20.2474 18.6585C20.6111 19.0742 21.2429 19.1163 21.6585 18.7526C22.0741 18.3889 22.1163 17.7571 21.7526 17.3415L18.7843 13.9492C19.5448 13.0058 20 11.8061 20 10.5C20 7.46243 17.5376 5 14.5 5ZM11 10.5C11 8.567 12.567 7 14.5 7C16.433 7 18 8.567 18 10.5C18 12.433 16.433 14 14.5 14C12.567 14 11 12.433 11 10.5Z" fill="black"/>
<path d="M7.15003 9C7.29374 8.29202 7.53718 7.62025 7.86505 7H3C2.44772 7 2 7.44772 2 8C2 8.55228 2.44772 9 3 9H7.15003Z" fill="black"/>
<path d="M3 14H7.86505C7.53718 13.3797 7.29374 12.708 7.15003 12H3C2.44772 12 2 12.4477 2 13C2 13.5523 2.44772 14 3 14Z" fill="black"/>
<path d="M3 17C2.44772 17 2 17.4477 2 18C2 18.5523 2.44772 19 3 19H12C12.5523 19 13 18.5523 13 18C13 17.4477 12.5523 17 12 17H3Z" fill="black"/>
</svg>
