<svg width="24" height="24" viewBox="0 0 24 24" fill="none" xmlns="http://www.w3.org/2000/svg">
<path d="M5.70835 6.70586C6.09595 6.317 6.09764 5.68759 5.71086 5.29667C5.33411 4.91588 4.72714 4.90125 4.33274 5.25514C4.27255 5.30915 4.21776 5.3706 4.16432 5.43115C4.0938 5.51104 3.99944 5.62375 3.88942 5.76947C3.66948 6.06078 3.38616 6.48514 3.10605 7.04389C2.54407 8.16487 2 9.81737 2 12C2 14.1826 2.54407 15.8351 3.10605 16.9561C3.38616 17.5149 3.66948 17.9392 3.88942 18.2305C3.99944 18.3762 4.0938 18.489 4.16432 18.5688C4.23899 18.6535 4.2776 18.6949 4.32867 18.7412C4.72296 19.0988 5.33281 19.0854 5.71086 18.7033C6.09764 18.3124 6.09595 17.683 5.70834 17.2941L5.70377 17.2893C5.69686 17.282 5.68323 17.2674 5.66381 17.2454C5.62494 17.2014 5.56306 17.1281 5.48558 17.0254C5.33052 16.8201 5.11384 16.4984 4.89395 16.0598C4.45593 15.1861 4 13.8386 4 12C4 10.1614 4.45593 8.81394 4.89395 7.94021C5.11383 7.50161 5.33052 7.17994 5.48558 6.97457C5.56306 6.87194 5.62494 6.79864 5.66381 6.75461C5.68323 6.7326 5.69686 6.71795 5.70377 6.71065L5.70835 6.70586Z" fill="black"/>
<path d="M18.2916 6.70586C17.904 6.317 17.9024 5.68759 18.2891 5.29667C18.6664 4.9154 19.2744 4.90122 19.6688 5.2565C19.7284 5.3102 19.7827 5.37108 19.8357 5.43115C19.9062 5.51104 20.0006 5.62375 20.1106 5.76947C20.3305 6.06078 20.6138 6.48514 20.894 7.04389C21.4559 8.16487 22 9.81737 22 12C22 14.1826 21.4559 15.8351 20.894 16.9561C20.6138 17.5149 20.3305 17.9392 20.1106 18.2305C20.0006 18.3762 19.9062 18.489 19.8357 18.5688C19.7591 18.6556 19.7201 18.6974 19.6675 18.7447C19.2731 19.0988 18.666 19.0842 18.2891 18.7033C17.9024 18.3124 17.904 17.683 18.2917 17.2941L18.2962 17.2893C18.3031 17.282 18.3168 17.2674 18.3362 17.2454C18.3751 17.2014 18.4369 17.1281 18.5144 17.0254C18.6695 16.8201 18.8862 16.4984 19.106 16.0598C19.5441 15.1861 20 13.8386 20 12C20 10.1614 19.5441 8.81394 19.106 7.94021C18.8862 7.50161 18.6695 7.17994 18.5144 6.97457C18.4369 6.87194 18.3751 6.79864 18.3362 6.75461C18.3168 6.7326 18.3031 6.71795 18.2962 6.71065L18.2925 6.70666L18.2916 6.70586Z" fill="black"/>
<path d="M16.7955 8.38837C16.8384 8.43735 16.8934 8.5037 16.9562 8.5875C17.0818 8.75496 17.2397 8.99328 17.3944 9.30279C17.7056 9.92507 18 10.8272 18 12C18 13.1728 17.7056 14.0749 17.3944 14.6972C17.2397 15.0067 17.0818 15.245 16.9562 15.4125C16.8934 15.4963 16.8384 15.5627 16.7955 15.6116C16.7578 15.6547 16.7193 15.6971 16.6771 15.7358C16.2848 16.0967 15.6733 16.0876 15.2929 15.7071C14.9057 15.3199 14.9024 14.6943 15.2829 14.303L15.2904 14.2946C15.3022 14.2811 15.3253 14.2537 15.3562 14.2125C15.4182 14.13 15.5103 13.9933 15.6056 13.8028C15.7944 13.4251 16 12.8272 16 12C16 11.1728 15.7944 10.5749 15.6056 10.1972C15.5103 10.0067 15.4182 9.87004 15.3562 9.7875C15.3253 9.7463 15.3022 9.7189 15.2904 9.70538L15.2829 9.697C14.9024 9.30573 14.9057 8.68007 15.2929 8.29289C15.6742 7.91162 16.2867 7.90259 16.6789 8.2658C16.72 8.30379 16.7584 8.34593 16.7955 8.38837Z" fill="black"/>
<path d="M7.32497 8.26218C7.71735 7.90265 8.3271 7.91289 8.70711 8.29289C9.09428 8.68007 9.0976 9.30573 8.71707 9.697L8.70961 9.70538C8.69777 9.7189 8.67465 9.7463 8.64375 9.7875C8.58185 9.87004 8.48967 10.0067 8.39443 10.1972C8.20557 10.5749 8 11.1728 8 12C8 12.8272 8.20557 13.4251 8.39443 13.8028C8.48967 13.9933 8.58185 14.13 8.64375 14.2125C8.67465 14.2537 8.69777 14.2811 8.70961 14.2946L8.71707 14.303C9.0976 14.6943 9.09428 15.3199 8.70711 15.7071C8.32974 16.0845 7.72582 16.0972 7.33318 15.7453C7.28757 15.7044 7.24528 15.6583 7.20445 15.6116C7.1616 15.5627 7.1066 15.4963 7.04375 15.4125C6.91815 15.245 6.76033 15.0067 6.60557 14.6972C6.29443 14.0749 6 13.1728 6 12C6 10.8272 6.29443 9.92507 6.60557 9.30279C6.76033 8.99328 6.91815 8.75496 7.04375 8.5875C7.1066 8.5037 7.1616 8.43735 7.20446 8.38837C7.24282 8.34453 7.28243 8.30117 7.32497 8.26218Z" fill="black"/>
<path d="M12 14C13.1046 14 14 13.1046 14 12C14 10.8954 13.1046 10 12 10C10.8954 10 10 10.8954 10 12C10 13.1046 10.8954 14 12 14Z" fill="black"/>
</svg>
