<svg width="24" height="24" viewBox="0 0 24 24" fill="none" xmlns="http://www.w3.org/2000/svg">
<path d="M8.84338 11.5375L8.84175 11.5399C8.54565 12.0017 7.9319 12.1391 7.46691 11.8461C6.99964 11.5517 6.85952 10.9342 7.15394 10.4669L8 11C7.15394 10.4669 7.15368 10.4673 7.15394 10.4669L7.15503 10.4652L7.15623 10.4633L7.15902 10.4589L7.16609 10.448C7.17147 10.4398 7.17819 10.4296 7.18626 10.4177C7.20239 10.3938 7.22395 10.3627 7.25102 10.3256C7.30509 10.2513 7.38151 10.152 7.48093 10.0362C7.67914 9.80527 7.97271 9.50405 8.36727 9.20403C9.16196 8.59972 10.3693 8.00004 12 8.00004C13.6307 8.00004 14.838 8.59972 15.6327 9.20403C16.0273 9.50405 16.3209 9.80527 16.5191 10.0362C16.6185 10.152 16.6949 10.2513 16.749 10.3256C16.776 10.3627 16.7976 10.3938 16.8137 10.4177C16.8218 10.4296 16.8285 10.4398 16.8339 10.448L16.841 10.4589L16.8438 10.4633L16.845 10.4652L16.8455 10.4661C16.8458 10.4665 16.8461 10.4669 16.0231 10.9854L16.8455 10.4661C17.1399 10.9334 17.0004 11.5517 16.5331 11.8461C16.0681 12.1391 15.4543 12.0017 15.1583 11.5399L15.1566 11.5375C15.153 11.532 15.1448 11.5201 15.132 11.5026C15.1065 11.4675 15.063 11.4105 15.0015 11.3389C14.8778 11.1948 14.6851 10.996 14.4221 10.796C13.9018 10.4003 13.1091 10 12 10C10.8909 10 10.0982 10.4003 9.57786 10.796C9.31489 10.996 9.12218 11.1948 8.99849 11.3389C8.93696 11.4105 8.89353 11.4675 8.86798 11.5026C8.85523 11.5201 8.84705 11.532 8.84338 11.5375Z" fill="black"/>
<path fill-rule="evenodd" clip-rule="evenodd" d="M13.1633 13.5477C13.4613 14.0033 14.0707 14.1374 14.5331 13.8461C15.0004 13.5517 15.1405 12.9342 14.8461 12.4669L14.0076 12.9952C14.8461 12.4669 14.8463 12.4673 14.8461 12.4669L14.845 12.4653L14.8439 12.4635L14.8414 12.4597L14.8358 12.4509L14.8211 12.4289C14.81 12.4123 14.7958 12.392 14.7787 12.3685C14.7446 12.3216 14.6981 12.2614 14.6389 12.1924C14.5212 12.0553 14.3492 11.8791 14.119 11.704C13.6531 11.3497 12.9458 11 12 11C11.0542 11 10.3469 11.3497 9.88098 11.704C9.65081 11.8791 9.47881 12.0553 9.36107 12.1924C9.3019 12.2614 9.25544 12.3216 9.22127 12.3685C9.20416 12.392 9.19003 12.4123 9.17885 12.4289L9.16424 12.4509L9.15856 12.4597L9.15612 12.4635L9.155 12.4653L9.15446 12.4661C9.1542 12.4665 9.15394 12.4669 9.99982 12.9999L9.15446 12.4661C8.86004 12.9334 8.99964 13.5517 9.46691 13.8461C9.92926 14.1374 10.5387 14.0033 10.8367 13.5477L10.8382 13.5456C10.8439 13.5378 10.8573 13.5199 10.8786 13.4951C10.9219 13.4448 10.993 13.371 11.0916 13.296C11.2832 13.1503 11.5759 13 12 13C12.4241 13 12.7168 13.1503 12.9084 13.296C13.007 13.371 13.0781 13.4448 13.1214 13.4951C13.1427 13.5199 13.1561 13.5378 13.1618 13.5456L13.1633 13.5477ZM10.8441 13.5362L10.8395 13.5434L10.8424 13.5389L10.8441 13.5362ZM10.8389 13.5443L10.8367 13.5477L10.8354 13.5496L10.836 13.5487L10.8389 13.5443Z" fill="black"/>
<path d="M12 16C12.5523 16 13 15.5523 13 15C13 14.4477 12.5523 14 12 14C11.4477 14 11 14.4477 11 15C11 15.5523 11.4477 16 12 16Z" fill="black"/>
<path fill-rule="evenodd" clip-rule="evenodd" d="M12.9425 2.3516C12.3648 2.05174 11.6774 2.05174 11.0997 2.3516L4.53929 5.75693C4.20795 5.92892 4 6.27116 4 6.64448V11.8567C4 12.8253 4.10685 13.8696 4.49525 14.8687C5.61429 17.7471 7.40804 19.5202 8.93197 20.5711C9.69148 21.0949 10.3833 21.4391 10.8919 21.6543C11.1465 21.7621 11.3562 21.8379 11.507 21.8881C11.5824 21.9131 11.6431 21.9318 11.6875 21.9449C11.7097 21.9514 11.7278 21.9565 11.7416 21.9603L11.759 21.9651L11.7653 21.9668L11.7678 21.9674L11.7689 21.9677C11.7694 21.9678 11.7699 21.968 12.0211 21L11.7699 21.968C11.9473 22.014 12.134 22.0104 12.3096 21.9575L12.0211 21C12.3096 21.9575 12.3091 21.9576 12.3096 21.9575L12.3115 21.9569L12.3138 21.9562L12.3197 21.9544L12.3364 21.9492C12.3497 21.9449 12.3673 21.9393 12.3888 21.9321C12.432 21.9176 12.4914 21.8971 12.5652 21.8697C12.7129 21.815 12.9189 21.7331 13.1694 21.6189C13.6698 21.3908 14.3517 21.0322 15.1016 20.5022C16.6035 19.4407 18.3866 17.6846 19.5121 14.9175C19.9295 13.8914 20.0422 12.812 20.0422 11.8148V6.64448C20.0422 6.27116 19.8342 5.92892 19.5029 5.75693L12.9425 2.3516ZM11.6713 19.8125C11.8001 19.867 11.9119 19.9101 12.0031 19.9432C12.0956 19.9064 12.209 19.8587 12.3399 19.799C12.7459 19.614 13.3157 19.3154 13.9473 18.869C15.2084 17.9777 16.7076 16.5042 17.6595 14.1639C17.9422 13.4689 18.0422 12.6757 18.0422 11.8148V7.2521L12.0211 4.12671L6 7.2521V11.8567C6 12.6911 6.09439 13.4625 6.35934 14.144C7.30826 16.5848 8.81141 18.0585 10.0674 18.9246C10.6978 19.3594 11.2667 19.6412 11.6713 19.8125Z" fill="black"/>
</svg>
