<svg width="24" height="24" viewBox="0 0 24 24" fill="none" xmlns="http://www.w3.org/2000/svg">
<path d="M12 6.01976L7.6239 8.40656V11.4147C7.6239 12.2745 7.70542 13.1447 8.04032 13.9366C9.38526 17.1169 12 17.9171 12 17.9171C12 17.9171 14.5792 17.0147 15.9306 13.9685C16.29 13.1585 16.3761 12.2608 16.3761 11.3747V8.40656L12 6.01976Z" fill="black"/>
<path fill-rule="evenodd" clip-rule="evenodd" d="M12.9425 2.3516C12.3648 2.05174 11.6774 2.05174 11.0997 2.3516L4.53929 5.75693C4.20795 5.92892 4 6.27116 4 6.64448V11.8567C4 12.8253 4.10685 13.8696 4.49525 14.8687C5.61429 17.7471 7.40804 19.5202 8.93197 20.5711C9.69148 21.0949 10.3833 21.4391 10.8919 21.6543C11.1465 21.7621 11.3562 21.8379 11.507 21.8881C11.5824 21.9131 11.6431 21.9318 11.6875 21.9449C11.7097 21.9514 11.7278 21.9565 11.7416 21.9603L11.759 21.9651L11.7653 21.9668L11.7678 21.9674L11.7689 21.9677C11.7689 21.9677 11.7699 21.968 12.0211 21L11.7699 21.968C11.9473 22.014 12.134 22.0104 12.3096 21.9575L12.0211 21C12.3096 21.9575 12.3096 21.9575 12.3096 21.9575L12.3115 21.9569L12.3138 21.9562L12.3197 21.9544L12.3364 21.9492C12.3497 21.9449 12.3673 21.9393 12.3888 21.9321C12.432 21.9176 12.4914 21.8971 12.5652 21.8697C12.7129 21.815 12.9189 21.7331 13.1694 21.6189C13.6698 21.3908 14.3517 21.0322 15.1016 20.5022C16.6035 19.4407 18.3866 17.6846 19.5121 14.9175C19.9295 13.8914 20.0422 12.812 20.0422 11.8148V6.64448C20.0422 6.27116 19.8342 5.92892 19.5029 5.75693L12.9425 2.3516ZM11.6713 19.8125C11.8001 19.867 11.9119 19.9101 12.0031 19.9432C12.0956 19.9064 12.209 19.8587 12.3399 19.799C12.7459 19.614 13.3157 19.3154 13.9473 18.869C15.2084 17.9777 16.7076 16.5042 17.6595 14.1639C17.9422 13.4689 18.0422 12.6757 18.0422 11.8148V7.2521L12.0211 4.12671L6 7.2521V11.8567C6 12.6911 6.09439 13.4625 6.35934 14.144C7.30826 16.5848 8.81141 18.0585 10.0674 18.9246C10.6978 19.3594 11.2667 19.6412 11.6713 19.8125Z" fill="black"/>
</svg>
