<svg width="24" height="25" viewBox="0 0 24 25" fill="none" xmlns="http://www.w3.org/2000/svg">
<path d="M12 3.8501C11.4477 3.8501 11 4.29781 11 4.8501C11 5.40238 11.4477 5.8501 12 5.8501H18C18.5523 5.8501 19 6.29781 19 6.8501V18.8501C19 19.4024 18.5523 19.8501 18 19.8501H12C11.4477 19.8501 11 20.2978 11 20.8501C11 21.4024 11.4477 21.8501 12 21.8501H18C19.6569 21.8501 21 20.507 21 18.8501V6.8501C21 5.19324 19.6569 3.8501 18 3.8501H12Z" fill="black"/>
<path d="M10.6585 8.59752C10.2429 8.23384 9.61111 8.27596 9.24742 8.69159C8.88374 9.10723 8.92586 9.73899 9.3415 10.1027L11.3386 11.8501H4C3.44772 11.8501 3 12.2978 3 12.8501C3 13.4024 3.44772 13.8501 4 13.8501H11.3386L9.3415 15.5975C8.92586 15.9612 8.88374 16.593 9.24742 17.0086C9.61111 17.4242 10.2429 17.4664 10.6585 17.1027L14.6585 13.6027C14.8755 13.4128 15 13.1385 15 12.8501C15 12.5617 14.8755 12.2874 14.6585 12.0975L10.6585 8.59752Z" fill="black"/>
</svg>
