<svg width="24" height="24" viewBox="0 0 24 24" fill="none" xmlns="http://www.w3.org/2000/svg">
<path d="M22.0002 8.99997C22.0002 9.55225 21.5525 9.99997 21.0002 9.99997C20.4479 9.99997 20.0002 9.55225 20.0002 8.99997V5.4141L14.7072 10.7071C14.3166 11.0976 13.6835 11.0976 13.2929 10.7071C12.9024 10.3166 12.9024 9.68344 13.2929 9.29291L18.5858 4L15.0002 4.00001C14.4479 4.00001 14.0002 3.5523 14.0002 3.00001C14.0002 2.44773 14.4479 2.00001 15.0002 2.00001L21.0002 2C21.2264 2 21.4447 2.07666 21.6204 2.2156C21.6507 2.23954 21.6797 2.26533 21.7073 2.29289C21.7385 2.32415 21.7675 2.35727 21.7941 2.39199C21.8835 2.5084 21.9438 2.63996 21.975 2.77681C21.9916 2.84945 22.0002 2.92428 22.0002 3V8.99997Z" fill="black"/>
<path d="M9.29306 13.2929L4.00002 18.5859L4.00005 15C4.00005 14.4477 3.55234 14 3.00005 14C2.44777 14 2.00005 14.4477 2.00005 15L2 21C2 21.0886 2.01175 21.1759 2.03439 21.26C2.06522 21.375 2.11689 21.4855 2.1894 21.5856C2.22041 21.6286 2.25497 21.6692 2.29289 21.7071C2.32491 21.7391 2.35887 21.7688 2.39451 21.7959C2.54234 21.9087 2.71441 21.9747 2.89064 21.994C2.92678 21.998 2.96329 22 3 22L9.00009 22.0001C9.55238 22.0001 10.0001 21.5523 10.0001 21.0001C10.0001 20.4478 9.55239 20.0001 9.0001 20.0001L5.41435 20L10.7073 14.7071C11.0978 14.3166 11.0978 13.6834 10.7073 13.2929C10.3167 12.9024 9.68358 12.9024 9.29306 13.2929Z" fill="black"/>
</svg>
