<svg width="24" height="24" viewBox="0 0 24 24" fill="none" xmlns="http://www.w3.org/2000/svg">
<path d="M8 8C7.44772 8 7 8.44772 7 9C7 9.55228 7.44772 10 8 10H9C9.55228 10 10 9.55228 10 9C10 8.44772 9.55228 8 9 8H8Z" fill="black"/>
<path d="M8 16C7.44772 16 7 16.4477 7 17C7 17.5523 7.44772 18 8 18H9C9.55228 18 10 17.5523 10 17C10 16.4477 9.55228 16 9 16H8Z" fill="black"/>
<path fill-rule="evenodd" clip-rule="evenodd" d="M7 2C5.34315 2 4 3.34315 4 5V19C4 20.3062 4.83481 21.4175 6 21.8293V22C6 22.5523 6.44772 23 7 23C7.55228 23 8 22.5523 8 22H16C16 22.5523 16.4477 23 17 23C17.5523 23 18 22.5523 18 22V21.8293C19.1652 21.4175 20 20.3062 20 19V5C20 3.34315 18.6569 2 17 2H7ZM18 12V5C18 4.44772 17.5523 4 17 4H7C6.44772 4 6 4.44772 6 5V12H18ZM6 14H18V19C18 19.5523 17.5523 20 17 20H7C6.44772 20 6 19.5523 6 19V14Z" fill="black"/>
</svg>
