<svg width="24" height="24" viewBox="0 0 24 24" fill="none" xmlns="http://www.w3.org/2000/svg">
<path d="M7 9C7.55228 9 8 8.55229 8 8C8 7.44772 7.55228 7 7 7C6.44772 7 6 7.44772 6 8C6 8.55229 6.44772 9 7 9Z" fill="black"/>
<path d="M13 8C13 8.55229 12.5523 9 12 9C11.4477 9 11 8.55229 11 8C11 7.44772 11.4477 7 12 7C12.5523 7 13 7.44772 13 8Z" fill="black"/>
<path d="M17 9C17.5523 9 18 8.55229 18 8C18 7.44772 17.5523 7 17 7C16.4477 7 16 7.44772 16 8C16 8.55229 16.4477 9 17 9Z" fill="black"/>
<path fill-rule="evenodd" clip-rule="evenodd" d="M2 5C2 3.89543 2.89543 3 4 3H20C21.1046 3 22 3.89543 22 5V16C22 17.6569 20.6569 19 19 19H11C11 20.6569 9.65685 22 8 22H5C4.44772 22 4 21.5523 4 21V20.5H3C2.44772 20.5 2 20.0523 2 19.5C2 18.9477 2.44772 18.5 3 18.5H4V17.5H3C2.44772 17.5 2 17.0523 2 16.5C2 15.9477 2.44772 15.5 3 15.5H4V15C4 14.4477 4.44772 14 5 14H8C9.65685 14 11 15.3431 11 17H19C19.5523 17 20 16.5523 20 16V13H4C2.89543 13 2 12.1046 2 11V5ZM9 17C9 16.4477 8.55228 16 8 16H6V20H8C8.55228 20 9 19.5523 9 19V17ZM20 5V11H4V5H20Z" fill="black"/>
</svg>
