<svg width="24" height="24" viewBox="0 0 24 24" fill="none" xmlns="http://www.w3.org/2000/svg">
<path d="M9 5C8.44772 5 8 5.44772 8 6C8 6.55228 8.44772 7 9 7H15C15.5523 7 16 6.55228 16 6C16 5.44772 15.5523 5 15 5H9Z" fill="black"/>
<path d="M18 13L6 13C5.44772 13 5 12.5523 5 12C5 11.4477 5.44772 11 6 11L18 11C18.5523 11 19 11.4477 19 12C19 12.5523 18.5523 13 18 13Z" fill="black"/>
<path d="M2 18C2 17.4477 2.44772 17 3 17H21C21.5523 17 22 17.4477 22 18C22 18.5523 21.5523 19 21 19H3C2.44772 19 2 18.5523 2 18Z" fill="black"/>
</svg>
