<svg width="24" height="24" viewBox="0 0 24 24" fill="none" xmlns="http://www.w3.org/2000/svg">
<path d="M4 14C4 9.58172 7.58172 6 12 6C13.1085 6 14.1644 6.22547 15.1243 6.63306L16.3787 5.37868C16.4638 5.29359 16.5527 5.21467 16.6449 5.14194C15.257 4.41265 13.6767 4 12 4C6.47715 4 2 8.47715 2 14C2 15.8417 2.49881 17.57 3.36933 19.0538C3.73416 19.6756 4.39481 20 5.04953 20H18.9505C19.6052 20 20.2658 19.6756 20.6307 19.0538C21.5012 17.57 22 15.8417 22 14C22 12.3233 21.5873 10.743 20.8581 9.35507C20.7853 9.44729 20.7064 9.53623 20.6213 9.62132L19.3669 10.8757C19.7745 11.8356 20 12.8915 20 14C20 15.4591 19.6103 16.8241 18.9299 18H5.07007C4.38969 16.8241 4 15.4591 4 14Z" fill="black"/>
<path d="M19.2071 6.79289C19.5976 7.18342 19.5976 7.81658 19.2071 8.20711L13.9323 13.482C13.9764 13.6472 14 13.8208 14 14C14 15.1046 13.1046 16 12 16C10.8954 16 10 15.1046 10 14C10 12.8954 10.8954 12 12 12C12.1792 12 12.3528 12.0236 12.518 12.0677L17.7929 6.79289C18.1834 6.40237 18.8166 6.40237 19.2071 6.79289Z" fill="black"/>
</svg>
