<svg width="24" height="24" viewBox="0 0 24 24" fill="none" xmlns="http://www.w3.org/2000/svg">
<path fill-rule="evenodd" clip-rule="evenodd" d="M4 5C4 3.34315 5.34315 2 7 2H17C18.6569 2 20 3.34315 20 5V19C20 20.6569 18.6569 22 17 22H7C5.34315 22 4 20.6569 4 19V5ZM13 20H15V19H13V20ZM11 19V20H9V19H11ZM15 17C16.1046 17 17 17.8954 17 19V20C17.5523 20 18 19.5523 18 19V5C18 4.44772 17.5523 4 17 4H7C6.44772 4 6 4.44772 6 5V19C6 19.5523 6.44772 20 7 20V19C7 17.8954 7.89543 17 9 17H15Z" fill="black"/>
</svg>
