<svg width="24" height="24" viewBox="0 0 24 24" fill="none" xmlns="http://www.w3.org/2000/svg">
<path d="M10.8921 2.53799C11.302 1.55244 12.6982 1.55244 13.1081 2.53799L15.4661 8.20744L21.5868 8.69813C22.6508 8.78343 23.0822 10.1112 22.2716 10.8056L18.3282 14.1835L16.8995 12.7739L19.5097 10.538L14.6975 10.1522C14.3237 10.1223 13.9981 9.8857 13.8541 9.53946L12.0001 5.082L11.1685 7.08131L9.6394 5.54986L10.8921 2.53799Z" fill="black"/>
<path fill-rule="evenodd" clip-rule="evenodd" d="M4.90578 4.12581C4.36662 4.24552 4.02659 4.77963 4.1463 5.31879C4.22367 5.66725 4.48184 5.92848 4.72816 6.1777C4.77454 6.22464 4.82051 6.27115 4.86477 6.31774C5.16575 6.63455 5.59429 7.07447 6.11785 7.60583C6.34327 7.83462 6.58697 8.08103 6.84657 8.34274L2.41342 8.69815C1.34943 8.78345 0.918005 10.1113 1.72865 10.8057L6.39193 14.8003L4.96722 20.773C4.71956 21.8112 5.84906 22.6319 6.75998 22.0755L12.0001 18.8748L17.2402 22.0755C18.1512 22.6319 19.2807 21.8112 19.033 20.773L18.9452 20.3519L19.7877 21.1814C20.1814 21.5687 20.8146 21.5636 21.2019 21.1699C21.5893 20.7762 21.5841 20.1431 21.1905 19.7558C18.6418 17.248 14.8157 13.4709 11.6203 10.2898C10.0222 8.69894 8.58392 7.25909 7.54249 6.20213C7.02115 5.67301 6.60287 5.2435 6.31475 4.94022C6.28008 4.90372 6.24518 4.86637 6.20996 4.82867C5.84312 4.43605 5.44198 4.00672 4.90578 4.12581ZM4.49053 10.538L8.69865 10.2007C9.17997 10.6817 9.6863 11.1866 10.2092 11.7072C12.1301 13.6195 14.2781 15.7463 16.24 17.6838L16.6413 19.3661L12.5214 16.8497C12.2013 16.6542 11.7989 16.6542 11.4789 16.8497L7.35893 19.3661L8.47907 14.6702C8.56608 14.3054 8.44171 13.9227 8.15692 13.6787L4.49053 10.538Z" fill="black"/>
</svg>
