<svg width="24" height="24" viewBox="0 0 24 24" fill="none" xmlns="http://www.w3.org/2000/svg">
<path fill-rule="evenodd" clip-rule="evenodd" d="M2 5C2 3.89543 2.89543 3 4 3H20C21.1046 3 22 3.89543 22 5C22 6.10457 21.1046 7 20 7H4C2.89543 7 2 6.10457 2 5ZM4 4H20C20.5523 4 21 4.44772 21 5C21 5.55228 20.5523 6 20 6H4C3.44772 6 3 5.55228 3 5C3 4.44772 3.44772 4 4 4Z" fill="black"/>
<path d="M4 8C2.89543 8 2 8.89543 2 10C2 11.1046 2.89543 12 4 12H20C21.1046 12 22 11.1046 22 10C22 8.89543 21.1046 8 20 8H4Z" fill="black"/>
<path d="M2 15C2 13.8954 2.89543 13 4 13H20C21.1046 13 22 13.8954 22 15C22 16.1046 21.1046 17 20 17H4C2.89543 17 2 16.1046 2 15Z" fill="black"/>
<path d="M4 18C2.89543 18 2 18.8954 2 20C2 21.1046 2.89543 22 4 22H20C21.1046 22 22 21.1046 22 20C22 18.8954 21.1046 18 20 18H4Z" fill="black"/>
</svg>
