<svg width="24" height="24" viewBox="0 0 24 24" fill="none" xmlns="http://www.w3.org/2000/svg">
<path d="M8.25677 8.257C8.64729 7.86648 9.28046 7.86648 9.67098 8.25701L12 10.586L14.329 8.257C14.7196 7.86648 15.3527 7.86648 15.7432 8.25701C16.1338 8.64754 16.1338 9.2807 15.7432 9.67122L13.4142 12.0003L15.7427 14.3288C16.1332 14.7193 16.1332 15.3525 15.7427 15.743C15.3521 16.1335 14.719 16.1335 14.3284 15.743L11.9999 13.4145L9.67146 15.7429C9.28093 16.1334 8.64776 16.1334 8.25724 15.7429C7.86672 15.3524 7.86673 14.7192 8.25725 14.3287L10.5857 12.0002L8.25676 9.67121C7.86623 9.28069 7.86624 8.64752 8.25677 8.257Z" fill="black"/>
<path fill-rule="evenodd" clip-rule="evenodd" d="M12 22C17.5228 22 22 17.5228 22 12C22 6.47715 17.5228 2 12 2C6.47715 2 2 6.47715 2 12C2 17.5228 6.47715 22 12 22ZM12 20C16.4183 20 20 16.4183 20 12C20 7.58172 16.4183 4 12 4C7.58172 4 4 7.58172 4 12C4 16.4183 7.58172 20 12 20Z" fill="black"/>
</svg>
