<svg width="24" height="24" viewBox="0 0 24 24" fill="none" xmlns="http://www.w3.org/2000/svg">
<path fill-rule="evenodd" clip-rule="evenodd" d="M11.999 22.0854C11.999 22.0854 20 19.5244 20 14.1574V6.37545L11.999 2.08545L4 6.37445V14.1574C4 19.5184 11.978 22.0784 11.999 22.0854Z" fill="#DA8C03"/>
<path fill-rule="evenodd" clip-rule="evenodd" d="M11.999 22.0854V2.08545L4 6.37445V14.1574C4 19.5184 11.978 22.0784 11.999 22.0854Z" fill="#FFAA00"/>
<path fill-rule="evenodd" clip-rule="evenodd" d="M14 11.0854C14 9.98145 13.104 9.08545 12 9.08545C10.896 9.08545 10 9.98145 10 11.0854C10 11.8234 10.404 12.4614 11 12.8084V16.0854H13V12.8084C13.596 12.4614 14 11.8234 14 11.0854Z" fill="white"/>
</svg>
