<svg width="24" height="24" viewBox="0 0 24 24" fill="none" xmlns="http://www.w3.org/2000/svg">
<path d="M12 7C12.5523 7 13 7.44772 13 8V13C13 13.5523 12.5523 14 12 14C11.4477 14 11 13.5523 11 13V8C11 7.44772 11.4477 7 12 7Z" fill="black"/>
<path d="M12 17C12.5523 17 13 16.5523 13 16C13 15.4477 12.5523 15 12 15C11.4477 15 11 15.4477 11 16C11 16.5523 11.4477 17 12 17Z" fill="black"/>
<path fill-rule="evenodd" clip-rule="evenodd" d="M6 2.98291C4.34315 2.98291 3 4.32606 3 5.98291V18.0171C3 19.6739 4.34315 21.0171 6 21.0171H18C19.6569 21.0171 21 19.6739 21 18.0171V5.98291C21 4.32606 19.6569 2.98291 18 2.98291H6ZM18 4.98291H6C5.44772 4.98291 5 5.43063 5 5.98291V18.0171C5 18.5694 5.44772 19.0171 6 19.0171H18C18.5523 19.0171 19 18.5694 19 18.0171V5.98291C19 5.43063 18.5523 4.98291 18 4.98291Z" fill="black"/>
</svg>
