<svg width="24" height="24" viewBox="0 0 24 24" fill="none" xmlns="http://www.w3.org/2000/svg">
<path d="M4 3C2.89543 3 2 3.89543 2 5C2 6.10457 2.89543 7 4 7H9.17071C9.58254 5.83481 10.6938 5 12 5C13.3062 5 14.4175 5.83481 14.8293 7H20C21.1046 7 22 6.10457 22 5C22 3.89543 21.1046 3 20 3H4Z" fill="black"/>
<path d="M4 8H9V12H4C2.89543 12 2 11.1046 2 10C2 8.89543 2.89543 8 4 8Z" fill="black"/>
<path d="M4 13H9V16C9 16.3506 9.06015 16.6872 9.17071 17H4C2.89543 17 2 16.1046 2 15C2 13.8954 2.89543 13 4 13Z" fill="black"/>
<path d="M15 16C15 16.3506 14.9398 16.6872 14.8293 17H20C21.1046 17 22 16.1046 22 15C22 13.8954 21.1046 13 20 13H15V16Z" fill="black"/>
<path d="M12 19C11.1115 19 10.3132 18.6137 9.76389 18H4C2.89543 18 2 18.8954 2 20C2 21.1046 2.89543 22 4 22H20C21.1046 22 22 21.1046 22 20C22 18.8954 21.1046 18 20 18H14.2361C13.6868 18.6137 12.8885 19 12 19Z" fill="black"/>
<path d="M20 8H15V12H20C21.1046 12 22 11.1046 22 10C22 8.89543 21.1046 8 20 8Z" fill="black"/>
<path d="M12 7C12.5523 7 13 7.44772 13 8V13C13 13.5523 12.5523 14 12 14C11.4477 14 11 13.5523 11 13V8C11 7.44772 11.4477 7 12 7Z" fill="black"/>
<path d="M13 16C13 16.5523 12.5523 17 12 17C11.4477 17 11 16.5523 11 16C11 15.4477 11.4477 15 12 15C12.5523 15 13 15.4477 13 16Z" fill="black"/>
</svg>
