<svg width="24" height="24" viewBox="0 0 24 24" fill="none" xmlns="http://www.w3.org/2000/svg">
<path d="M12 1C12.5523 1 13 1.44772 13 2V4C13 4.55228 12.5523 5 12 5C11.4477 5 11 4.55228 11 4V2C11 1.44772 11.4477 1 12 1Z" fill="black"/>
<path fill-rule="evenodd" clip-rule="evenodd" d="M6 12C6 8.68629 8.68629 6 12 6C15.3137 6 18 8.68629 18 12C18 15.3137 15.3137 18 12 18C8.68629 18 6 15.3137 6 12ZM12 8C9.79086 8 8 9.79086 8 12C8 14.2091 9.79086 16 12 16C14.2091 16 16 14.2091 16 12C16 9.79086 14.2091 8 12 8Z" fill="black"/>
<path d="M13 20C13 19.4477 12.5523 19 12 19C11.4477 19 11 19.4477 11 20V22C11 22.5523 11.4477 23 12 23C12.5523 23 13 22.5523 13 22V20Z" fill="black"/>
<path d="M1 12C1 11.4477 1.44772 11 2 11H4C4.55228 11 5 11.4477 5 12C5 12.5523 4.55228 13 4 13H2C1.44772 13 1 12.5523 1 12Z" fill="black"/>
<path d="M20 11.25C19.4477 11.25 19 11.6977 19 12.25C19 12.8023 19.4477 13.25 20 13.25H22C22.5523 13.25 23 12.8023 23 12.25C23 11.6977 22.5523 11.25 22 11.25H20Z" fill="black"/>
<path d="M19.7782 4.22182C20.1687 4.61234 20.1687 5.24551 19.7782 5.63603L18.3639 7.05024C17.9734 7.44077 17.3402 7.44077 16.9497 7.05024C16.5592 6.65972 16.5592 6.02656 16.9497 5.63603L18.3639 4.22182C18.7545 3.83129 19.3876 3.83129 19.7782 4.22182Z" fill="black"/>
<path d="M7.05025 18.364C7.44077 17.9734 7.44077 17.3403 7.05025 16.9498C6.65972 16.5592 6.02656 16.5592 5.63603 16.9498L4.22182 18.364C3.8313 18.7545 3.8313 19.3877 4.22182 19.7782C4.61234 20.1687 5.24551 20.1687 5.63603 19.7782L7.05025 18.364Z" fill="black"/>
<path d="M4.22185 4.22182C4.61237 3.83129 5.24554 3.83129 5.63606 4.22182L7.05028 5.63603C7.4408 6.02656 7.4408 6.65972 7.05028 7.05024C6.65975 7.44077 6.02659 7.44077 5.63606 7.05024L4.22185 5.63603C3.83132 5.24551 3.83132 4.61234 4.22185 4.22182Z" fill="black"/>
<path d="M18.1872 17.1265C17.7967 16.736 17.1635 16.736 16.773 17.1265C16.3825 17.517 16.3825 18.1502 16.773 18.5407L18.1872 19.9549C18.5777 20.3455 19.2109 20.3455 19.6014 19.9549C19.9919 19.5644 19.9919 18.9312 19.6014 18.5407L18.1872 17.1265Z" fill="black"/>
</svg>
