<svg width="24" height="24" viewBox="0 0 24 24" fill="none" xmlns="http://www.w3.org/2000/svg">
<path d="M8.5 9.48877C8.5 8.93649 8.94771 8.48877 9.5 8.48877C10.0523 8.48877 10.5 8.93649 10.5 9.48877V14.5113C10.5 15.0635 10.0523 15.5113 9.5 15.5113C8.94771 15.5113 8.5 15.0635 8.5 14.5113V9.48877Z" fill="black"/>
<path d="M14.5 8.48877C13.9477 8.48877 13.5 8.93649 13.5 9.48877V14.5113C13.5 15.0635 13.9477 15.5113 14.5 15.5113C15.0523 15.5113 15.5 15.0635 15.5 14.5113V9.48877C15.5 8.93649 15.0523 8.48877 14.5 8.48877Z" fill="black"/>
<path fill-rule="evenodd" clip-rule="evenodd" d="M12 22C17.5228 22 22 17.5228 22 12C22 6.47715 17.5228 2 12 2C6.47715 2 2 6.47715 2 12C2 17.5228 6.47715 22 12 22ZM12 20C16.4183 20 20 16.4183 20 12C20 7.58172 16.4183 4 12 4C7.58172 4 4 7.58172 4 12C4 16.4183 7.58172 20 12 20Z" fill="black"/>
</svg>
