<svg width="24" height="24" viewBox="0 0 24 24" fill="none" xmlns="http://www.w3.org/2000/svg">
<path d="M6.58579 8.27218L10.5 12L6.58579 15.7278C6.21071 16.085 6 16.5695 6 17.0747V21.0476C6 21.5736 6.44772 22 7 22H17C17.5523 22 18 21.5736 18 21.0476V17.0747C18 16.5695 17.7893 16.085 17.4142 15.7278L13.5 12L17.4142 8.27218C17.7893 7.91497 18 7.43048 18 6.92531V2.95238C18 2.4264 17.5523 2 17 2H7C6.44772 2 6 2.4264 6 2.95238V6.92531C6 7.43048 6.21071 7.91496 6.58579 8.27218Z" fill="black"/>
</svg>
