<svg width="24" height="24" viewBox="0 0 24 24" fill="none" xmlns="http://www.w3.org/2000/svg">
<path d="M16.5 9.00006C17.3284 9.00006 18 8.32849 18 7.50006C18 6.67163 17.3284 6.00006 16.5 6.00006C15.6716 6.00006 15 6.67163 15 7.50006C15 8.32849 15.6716 9.00006 16.5 9.00006Z" fill="black"/>
<path fill-rule="evenodd" clip-rule="evenodd" d="M11.8136 2.57276C12.1883 2.20444 12.6927 1.99805 13.2181 1.99805H19.9964C21.103 1.99805 22 2.89508 22 4.00163V10.8401C22 11.3675 21.7921 11.8736 21.4213 12.2487L12.3679 21.4071C11.5868 22.1972 10.3119 22.2009 9.52629 21.4153L2.58684 14.4758C1.79963 13.6886 1.80512 12.4106 2.59907 11.6302L11.8136 2.57276ZM19.999 10.8426L10.9456 20.0011L4.00008 13.0575L13.2181 3.99805L19.9978 3.99807L19.9989 3.9991L20 4.00023L19.999 10.8426Z" fill="black"/>
</svg>
