<svg width="24" height="24" viewBox="0 0 24 24" fill="none" xmlns="http://www.w3.org/2000/svg">
<path d="M15.6839 10.2726C16.0869 10.6503 16.1073 11.2832 15.7295 11.6861L11.9795 15.6861C11.7961 15.8817 11.5419 15.9955 11.2738 16.0019C11.0057 16.0082 10.7464 15.9067 10.5539 15.72L8.30385 13.5382C7.90737 13.1537 7.89763 12.5207 8.2821 12.1242C8.66657 11.7277 9.29966 11.7179 9.69615 12.1024L11.216 13.5763L14.2705 10.3182C14.6482 9.91528 15.281 9.89487 15.6839 10.2726Z" fill="black"/>
<path fill-rule="evenodd" clip-rule="evenodd" d="M7 2.00464C5.34315 2.00464 4 3.34778 4 5.00464V19.0046C4 20.6615 5.34315 22.0046 7 22.0046H17C18.6569 22.0046 20 20.6615 20 19.0046V5.00464C20 3.34778 18.6569 2.00464 17 2.00464H7ZM8 4.00464H7C6.44772 4.00464 6 4.45235 6 5.00464V19.0046C6 19.5569 6.44772 20.0046 7 20.0046H17C17.5523 20.0046 18 19.5569 18 19.0046V5.00464C18 4.45235 17.5523 4.00464 17 4.00464H16V5.00464C16 6.10921 15.1046 7.00464 14 7.00464H10C8.89543 7.00464 8 6.10921 8 5.00464V4.00464ZM14 4.00464H10V5.00464H14V4.00464Z" fill="black"/>
</svg>
