<svg width="24" height="24" viewBox="0 0 24 24" fill="none" xmlns="http://www.w3.org/2000/svg">
<path d="M12 3C12.5523 3 13 2.55228 13 2C13 1.44772 12.5523 1 12 1C11.4477 1 11 1.44772 11 2C11 2.55228 11.4477 3 12 3Z" fill="black"/>
<path fill-rule="evenodd" clip-rule="evenodd" d="M5.68627 10.0812C5.71964 10.128 5.75653 10.1712 5.7964 10.2106L4.81068 17.6035C4.57089 19.402 5.97 21 7.78437 21H16.2156C18.03 21 19.4291 19.402 19.1893 17.6035L17.7755 7H19V13C19 13.5523 19.4477 14 20 14C20.5523 14 21 13.5523 21 13V7C21 5.89543 20.1046 5 19 5H16.9852C16.4326 4.3828 15.6307 4 14.749 4H9.25103C8.36922 4 7.56728 4.38284 7.01474 5.00011L7 5H4C3.62542 5 3.28224 5.20935 3.11084 5.54242C2.93943 5.87549 2.96855 6.27642 3.18627 6.58124L5.68627 10.0812ZM9.25103 6C8.74983 6 8.32605 6.37103 8.2598 6.86784L6.79314 17.8678C6.71321 18.4673 7.17958 19 7.78437 19H16.2156C16.8204 19 17.2868 18.4673 17.2069 17.8678L15.7402 6.86784C15.674 6.37103 15.2502 6 14.749 6H9.25103Z" fill="black"/>
<path d="M7 22C6.44772 22 6 22.4477 6 23C6 23.5523 6.44772 24 7 24H17C17.5523 24 18 23.5523 18 23C18 22.4477 17.5523 22 17 22H7Z" fill="black"/>
</svg>
