<svg width="24" height="24" viewBox="0 0 24 24" fill="none" xmlns="http://www.w3.org/2000/svg">
<path d="M7.84644 2.01343C7.84644 1.46114 8.29415 1.01343 8.84644 1.01343H15.1537C15.706 1.01343 16.1537 1.46114 16.1537 2.01343C16.1537 2.56571 15.706 3.01343 15.1537 3.01343H8.84644C8.29415 3.01343 7.84644 2.56571 7.84644 2.01343Z" fill="black"/>
<path d="M13 9.37189C13 8.8196 12.5523 8.37189 12 8.37189C11.4477 8.37189 11 8.8196 11 9.37189V13.5767C11 13.8419 11.1054 14.0963 11.2929 14.2838L13.3953 16.3862C13.7858 16.7768 14.419 16.7768 14.8095 16.3862C15.2 15.9957 15.2 15.3626 14.8095 14.972L13 13.1625V9.37189Z" fill="black"/>
<path fill-rule="evenodd" clip-rule="evenodd" d="M6.07407 6.26707C7.69183 4.95394 9.75402 4.16705 12 4.16705C14.246 4.16705 16.3082 4.95394 17.9259 6.26707L19.2074 4.98555C19.598 4.59503 20.2311 4.59503 20.6217 4.98555C21.0122 5.37607 21.0122 6.00924 20.6217 6.39976L19.3369 7.68452C20.6337 9.29716 21.4097 11.3463 21.4097 13.5767C21.4097 18.7735 17.1968 22.9864 12 22.9864C6.80318 22.9864 2.59033 18.7735 2.59033 13.5767C2.59033 11.3463 3.36634 9.29716 4.6631 7.68452L3.37834 6.39976C2.98782 6.00924 2.98782 5.37607 3.37834 4.98555C3.76887 4.59503 4.40203 4.59503 4.79256 4.98555L6.07407 6.26707ZM12 6.16705C7.90775 6.16705 4.59033 9.48447 4.59033 13.5767C4.59033 17.669 7.90775 20.9864 12 20.9864C16.0922 20.9864 19.4097 17.669 19.4097 13.5767C19.4097 9.48447 16.0922 6.16705 12 6.16705Z" fill="black"/>
</svg>
