<svg width="24" height="24" viewBox="0 0 24 24" fill="none" xmlns="http://www.w3.org/2000/svg">
<path d="M6.55301 2.10555C7.04698 1.85856 7.64766 2.05878 7.89465 2.55276L8.89465 4.55276C9.14164 5.04674 8.94141 5.64741 8.44743 5.8944C7.95345 6.14139 7.35278 5.94117 7.10579 5.44719L6.10579 3.44719C5.8588 2.95321 6.05903 2.35254 6.55301 2.10555Z" fill="black"/>
<path d="M19.5487 4.40036C17.442 2.29362 14.0263 2.29361 11.9195 4.40036L9.59078 6.72909C9.20025 7.11962 9.20025 7.75278 9.59078 8.14331C9.9813 8.53383 10.6145 8.53383 11.005 8.14331L13.3337 5.81458C14.6594 4.48888 16.8088 4.48888 18.1345 5.81458C19.4602 7.14028 19.4602 9.28966 18.1345 10.6154L15.8313 12.9185C15.4408 13.3091 15.4408 13.9422 15.8313 14.3328C16.2218 14.7233 16.855 14.7233 17.2455 14.3328L19.5487 12.0296C21.6555 9.92282 21.6555 6.50711 19.5487 4.40036Z" fill="black"/>
<path d="M8.08049 11.0678C8.47101 10.6773 8.47101 10.0441 8.08049 9.65359C7.68996 9.26307 7.0568 9.26307 6.66627 9.65359L4.34941 11.9705C2.24266 14.0772 2.24266 17.4929 4.34941 19.5997C6.45616 21.7064 9.87187 21.7064 11.9786 19.5997L14.2827 17.2956C14.6732 16.905 14.6732 16.2719 14.2827 15.8814C13.8922 15.4908 13.259 15.4908 12.8685 15.8814L10.5644 18.1854C9.2387 19.5111 7.08932 19.5111 5.76362 18.1854C4.43793 16.8598 4.43793 14.7104 5.76362 13.3847L8.08049 11.0678Z" fill="black"/>
<path d="M14.9804 10.3829C15.3709 9.99234 15.3709 9.35917 14.9804 8.96865C14.5899 8.57812 13.9567 8.57812 13.5662 8.96865L8.91762 13.6172C8.5271 14.0077 8.5271 14.6409 8.91762 15.0314C9.30815 15.4219 9.94131 15.4219 10.3318 15.0314L14.9804 10.3829Z" fill="black"/>
<path d="M16.1058 21.4472C16.3528 21.9412 16.9535 22.1414 17.4474 21.8944C17.9414 21.6474 18.1416 21.0467 17.8946 20.5528L16.8946 18.5528C16.6477 18.0588 16.047 17.8586 15.553 18.1055C15.059 18.3525 14.8588 18.9532 15.1058 19.4472L16.1058 21.4472Z" fill="black"/>
<path d="M2.10579 6.55276C2.35278 6.05878 2.95345 5.85856 3.44743 6.10555L5.44743 7.10555C5.94141 7.35254 6.14164 7.95321 5.89465 8.44719C5.64766 8.94117 5.04698 9.14139 4.55301 8.8944L2.55301 7.8944C2.05903 7.64741 1.8588 7.04674 2.10579 6.55276Z" fill="black"/>
<path d="M20.553 17.8944C21.047 18.1414 21.6477 17.9412 21.8946 17.4472C22.1416 16.9532 21.9414 16.3525 21.4474 16.1055L19.4474 15.1055C18.9535 14.8586 18.3528 15.0588 18.1058 15.5528C17.8588 16.0467 18.059 16.6474 18.553 16.8944L20.553 17.8944Z" fill="black"/>
</svg>
