<svg width="24" height="24" viewBox="0 0 24 24" fill="none" xmlns="http://www.w3.org/2000/svg">
<path d="M12 16C13.1046 16 14 15.1046 14 14C14 12.8954 13.1046 12 12 12C10.8954 12 10 12.8954 10 14C10 15.1046 10.8954 16 12 16Z" fill="black"/>
<path fill-rule="evenodd" clip-rule="evenodd" d="M7 6C7 3.23858 9.23858 1 12 1C13.7155 1 15.2288 1.86485 16.1278 3.17776C16.4398 3.63345 16.3234 4.25581 15.8677 4.56785C15.412 4.87989 14.7897 4.76344 14.4776 4.30775C13.9355 3.51604 13.0279 3 12 3C10.3431 3 9 4.34315 9 6V7H17C18.6569 7 20 8.34315 20 10V18C20 19.6569 18.6569 21 17 21H7C5.34315 21 4 19.6569 4 18V10C4 8.34315 5.34315 7 7 7V6ZM7 9H17C17.5523 9 18 9.44772 18 10V18C18 18.5523 17.5523 19 17 19H7C6.44772 19 6 18.5523 6 18V10C6 9.44772 6.44772 9 7 9Z" fill="black"/>
</svg>
