<svg width="24" height="24" viewBox="0 0 24 24" fill="none" xmlns="http://www.w3.org/2000/svg">
<path fill-rule="evenodd" clip-rule="evenodd" d="M7 2.00464C5.34315 2.00464 4 3.34778 4 5.00464V19.0046C4 20.6615 5.34315 22.0046 7 22.0046H11.9623C11.9351 21.9767 11.9083 21.9486 11.8816 21.9202C11.3722 21.377 11.1039 20.6945 11.0728 20.0046H7C6.44772 20.0046 6 19.5569 6 19.0046V5.00464C6 4.45235 6.44772 4.00464 7 4.00464H12.0093L12.0093 6.98949C12.0093 8.64635 13.3524 9.9895 15.0093 9.9895H18V11.2528C18.7201 11.4163 19.3942 11.7006 20 12.0832V9.21925C20 8.8233 19.8434 8.44341 19.5645 8.16242L13.891 2.44781C13.6093 2.16416 13.2262 2.00464 12.8265 2.00464H7ZM16.5745 7.9895L14.0093 5.40569L14.0093 6.9895C14.0093 7.54178 14.457 7.9895 15.0093 7.9895H16.5745Z" fill="black"/>
<path d="M12.6866 12.7291C13.2389 12.7291 13.6866 13.1768 13.6866 13.7291V14.1616C14.4611 13.4963 15.4687 13.0935 16.5711 13.0935C19.0171 13.0935 21 15.0764 21 17.5224C21 19.9685 19.0171 21.9514 16.5711 21.9514C15.2969 21.9514 14.1471 21.412 13.3403 20.5519C12.9625 20.1491 12.9827 19.5163 13.3856 19.1384C13.7884 18.7606 14.4212 18.7808 14.799 19.1837C15.2435 19.6575 15.8722 19.9514 16.5711 19.9514C17.9126 19.9514 19 18.8639 19 17.5224C19 16.181 17.9126 15.0935 16.5711 15.0935C15.97 15.0935 15.4192 15.3118 14.9944 15.6745H15.491C16.0433 15.6745 16.491 16.1222 16.491 16.6745C16.491 17.2268 16.0433 17.6745 15.491 17.6745H12.6866C12.1344 17.6745 11.6866 17.2268 11.6866 16.6745V13.7291C11.6866 13.1768 12.1344 12.7291 12.6866 12.7291Z" fill="black"/>
</svg>
