<svg width="24" height="24" viewBox="0 0 24 24" fill="none" xmlns="http://www.w3.org/2000/svg">
<path d="M19.1632 8.51929C17.8461 5.85795 15.0721 4.01929 11.8567 4.01929C8.14575 4.01929 5.02472 6.46816 4.05014 9.80003C3.89509 10.3301 3.33969 10.6341 2.80962 10.4791C2.27954 10.324 1.97553 9.76862 2.13057 9.23855C3.35227 5.06185 7.24936 2.01929 11.8567 2.01929C15.6787 2.01929 19.0106 4.11298 20.7332 7.20856V5.51929C20.7332 4.967 21.1809 4.51929 21.7332 4.51929C22.2854 4.51929 22.7332 4.967 22.7332 5.51929V9.51929C22.7332 10.0716 22.2854 10.5193 21.7332 10.5193H17.7291C17.1768 10.5193 16.7291 10.0716 16.7291 9.51929C16.7291 8.967 17.1768 8.51929 17.7291 8.51929H19.1632Z" fill="black"/>
<path d="M3.2666 16.7914V18.4807C3.2666 19.033 2.81889 19.4807 2.2666 19.4807C1.71432 19.4807 1.2666 19.033 1.2666 18.4807V14.4807C1.2666 13.9284 1.71432 13.4807 2.2666 13.4807H6.27063C6.82291 13.4807 7.27063 13.9284 7.27063 14.4807C7.27063 15.033 6.82291 15.4807 6.27063 15.4807H4.83657C6.15365 18.142 8.92769 19.9807 12.1431 19.9807C15.854 19.9807 18.975 17.5318 19.9496 14.1999C20.1047 13.6699 20.6601 13.3659 21.1901 13.5209C21.7202 13.6759 22.0242 14.2313 21.8692 14.7614C20.6475 18.9381 16.7504 21.9807 12.1431 21.9807C8.32104 21.9807 4.98914 19.887 3.2666 16.7914Z" fill="black"/>
</svg>
