<svg width="24" height="24" viewBox="0 0 24 24" fill="none" xmlns="http://www.w3.org/2000/svg">
<path d="M12 4.00244C9.24265 4.00244 6.68529 5.72153 5.71576 8.62351C4.73057 8.83257 3.8681 9.31731 3.21804 10.0483C2.41871 10.9473 2 12.1508 2 13.5024C2 15.7284 3.74731 17.4834 5.78324 17.9054C5.15124 17.2134 4.90172 16.2971 5.03466 15.4279C4.41051 14.9563 4 14.247 4 13.5024C4 12.5664 4.28511 11.8581 4.71262 11.3773C5.13781 10.8992 5.76295 10.5786 6.57551 10.5168L7.30491 10.4614L7.47296 9.74946C8.03895 7.3517 9.9623 6.00244 12 6.00244C13.6763 6.00244 15.2116 6.87434 16.1047 8.52701L16.3645 9.00784L16.9095 9.0488C18.5173 9.16961 20 10.5814 20 12.5024C20 13.5133 19.5714 14.4241 18.8861 15.0631C19.1334 15.9358 18.978 16.8987 18.4196 17.6582C20.5106 16.8793 22 14.8648 22 12.5024C22 9.71645 19.9942 7.56781 17.5995 7.12458C16.3284 5.1207 14.2603 4.00244 12 4.00244Z" fill="black"/>
<path d="M16.7071 15.1768L12.7071 11.1768C12.3166 10.7863 11.6834 10.7863 11.2929 11.1768L7.29289 15.1768C6.90237 15.5674 6.90237 16.2005 7.29289 16.591C7.68342 16.9816 8.31658 16.9816 8.70711 16.591L11 14.2981V20.9939C11 21.5462 11.4477 21.9939 12 21.9939C12.5523 21.9939 13 21.5462 13 20.9939V14.2981L15.2929 16.591C15.6834 16.9816 16.3166 16.9816 16.7071 16.591C17.0976 16.2005 17.0976 15.5674 16.7071 15.1768Z" fill="black"/>
</svg>
