<svg width="24" height="24" viewBox="0 0 24 24" fill="none" xmlns="http://www.w3.org/2000/svg">
<path d="M15.4 12.3464C15.6667 12.1925 15.6667 11.8076 15.4 11.6536L10.6 8.88231C10.3333 8.72835 10 8.9208 10 9.22872V14.7713C10 15.0792 10.3333 15.2717 10.6 15.1177L15.4 12.3464Z" fill="black"/>
<path fill-rule="evenodd" clip-rule="evenodd" d="M2 7C2 5.34315 3.34315 4 5 4H19C20.6569 4 22 5.34315 22 7V17C22 18.6569 20.6569 20 19 20H5C3.34315 20 2 18.6569 2 17V7ZM5 6H19C19.5523 6 20 6.44771 20 7V17C20 17.5523 19.5523 18 19 18H5C4.44772 18 4 17.5523 4 17V7C4 6.44772 4.44772 6 5 6Z" fill="black"/>
</svg>
