<svg width="24" height="24" viewBox="0 0 24 24" fill="none" xmlns="http://www.w3.org/2000/svg">
<path d="M6.72108 4.69285C6.34112 5.08843 5.7125 5.10423 5.31312 4.72677C4.91174 4.34741 4.89388 3.7145 5.27324 3.31312L5.99989 3.99989C5.27324 3.31311 5.27361 3.31272 5.27399 3.31232L5.27478 3.31148L5.27651 3.30966L5.28052 3.30548L5.29072 3.29497C5.2985 3.28702 5.30823 3.27721 5.31993 3.26567C5.34332 3.24258 5.3746 3.21256 5.41386 3.1766C5.49236 3.10471 5.60289 3.009 5.74619 2.89771C6.03275 2.67516 6.45106 2.38974 7.00668 2.10807C8.12217 1.54256 9.7762 1 12 1C14.2238 1 15.8778 1.54256 16.9933 2.10807C17.5489 2.38974 17.9673 2.67516 18.2538 2.89771C18.3971 3.009 18.5076 3.10471 18.5861 3.1766C18.6254 3.21256 18.6567 3.24258 18.6801 3.26567C18.6918 3.27721 18.7015 3.28702 18.7093 3.29497L18.7195 3.30548L18.7235 3.30966L18.7252 3.31148L18.726 3.31232C18.7264 3.31272 18.7268 3.31312 18 4L18.7268 3.31312C19.1061 3.7145 19.0883 4.34741 18.6869 4.72677C18.2875 5.10423 17.6589 5.08844 17.2789 4.69288L17.2755 4.68941C17.2692 4.6832 17.2558 4.67026 17.2354 4.65152C17.1944 4.61404 17.1252 4.5535 17.0271 4.47729C16.8308 4.32484 16.5197 4.11026 16.089 3.89193C15.2319 3.45744 13.8859 3 12 3C10.1141 3 8.76809 3.45744 7.91102 3.89193C7.48035 4.11026 7.16924 4.32484 6.97295 4.47729C6.87482 4.5535 6.80557 4.61404 6.76464 4.65152C6.74419 4.67026 6.73084 4.6832 6.72454 4.68941L6.72108 4.69285Z" fill="black"/>
<path d="M13 18C13 18.5523 12.5523 19 12 19C11.4477 19 11 18.5523 11 18C11 17.4477 11.4477 17 12 17C12.5523 17 13 17.4477 13 18Z" fill="black"/>
<path fill-rule="evenodd" clip-rule="evenodd" d="M12 9C10.3431 9 9 10.3431 9 12V13C7.34315 13 6 14.3431 6 16V20C6 21.6569 7.34315 23 9 23H15C16.6569 23 18 21.6569 18 20V16C18 14.3431 16.6569 13 15 13V12C15 10.3431 13.6569 9 12 9ZM13 13V12C13 11.4477 12.5523 11 12 11C11.4477 11 11 11.4477 11 12V13H13ZM9 15C8.44772 15 8 15.4477 8 16V20C8 20.5523 8.44772 21 9 21H15C15.5523 21 16 20.5523 16 20V16C16 15.4477 15.5523 15 15 15H9Z" fill="black"/>
<path d="M7.35676 8.26566C7.77666 8.61843 8.40159 8.56685 8.75816 8.15207C8.76048 8.14951 8.76678 8.14264 8.77709 8.13202C8.79911 8.10932 8.83921 8.06976 8.89767 8.01868C9.01476 7.91638 9.20399 7.76921 9.46798 7.61866C9.99083 7.32046 10.8216 7 12 7C13.1784 7 14.0092 7.32046 14.532 7.61866C14.796 7.76921 14.9852 7.91638 15.1023 8.01868C15.1608 8.06976 15.2009 8.10932 15.2229 8.13202C15.2332 8.14265 15.2395 8.14952 15.2418 8.15208C15.5984 8.56685 16.2233 8.61843 16.6432 8.26566C17.0661 7.91041 17.1209 7.27962 16.7657 6.85676L16 7.5C16.7657 6.85676 16.7653 6.85635 16.765 6.85594L16.7643 6.85509L16.7627 6.85327L16.7593 6.84923L16.7509 6.83952C16.7447 6.83232 16.7371 6.82371 16.7281 6.81378C16.7102 6.79392 16.6869 6.76876 16.6581 6.73907C16.6005 6.67974 16.5207 6.60211 16.4182 6.51257C16.2134 6.33362 15.9164 6.10579 15.5229 5.88134C14.7307 5.42954 13.5615 5 12 5C10.4385 5 9.26934 5.42954 8.47715 5.88134C8.08362 6.10579 7.78657 6.33362 7.58176 6.51257C7.47927 6.60211 7.39951 6.67974 7.34192 6.73907C7.31311 6.76876 7.28979 6.79392 7.2719 6.81378C7.26295 6.82371 7.25535 6.83232 7.2491 6.83952L7.24072 6.84923L7.23728 6.85327L7.23575 6.85509L7.23503 6.85594C7.23468 6.85635 7.23434 6.85676 8 7.5L7.23434 6.85676C6.87909 7.27962 6.9339 7.91041 7.35676 8.26566Z" fill="black"/>
</svg>
