<svg width="24" height="24" viewBox="0 0 24 24" fill="none" xmlns="http://www.w3.org/2000/svg">
<path fill-rule="evenodd" clip-rule="evenodd" d="M4 4.5C4 3.11929 5.11929 2 6.5 2H9.5C10.8807 2 12 3.11929 12 4.5V6.17071C13.1652 6.58254 14 7.69378 14 9C14.5523 9 15 9.44772 15 10C15 10.5523 14.5523 11 14 11V15C14 16.3062 13.1652 17.4175 12 17.8293V19.5C12 20.8807 10.8807 22 9.5 22H6.5C5.11929 22 4 20.8807 4 19.5V17.8293C2.83481 17.4175 2 16.3062 2 15V9C2 7.69378 2.83481 6.58254 4 6.17071V4.5ZM12 9V15C12 15.5523 11.5523 16 11 16H5C4.44772 16 4 15.5523 4 15V9C4 8.44772 4.44772 8 5 8H11C11.5523 8 12 8.44772 12 9ZM6 6H10V4.5C10 4.22386 9.77614 4 9.5 4H6.5C6.22386 4 6 4.22386 6 4.5V6ZM6 18V19.5C6 19.7761 6.22386 20 6.5 20H9.5C9.77614 20 10 19.7761 10 19.5V18H6Z" fill="black"/>
<path d="M18.4602 6.84177L18.4626 6.84339C18.468 6.84705 18.4799 6.85524 18.4974 6.86799C18.5325 6.89353 18.5895 6.93697 18.6612 6.9985C18.8053 7.12219 19.004 7.3149 19.204 7.57787C19.5997 8.09822 20 8.89092 20 10C20 11.1091 19.5997 11.9018 19.204 12.4221C19.004 12.6851 18.8053 12.8778 18.6612 13.0015C18.5895 13.0631 18.5325 13.1065 18.4974 13.132C18.4799 13.1448 18.468 13.153 18.4626 13.1566L18.4601 13.1583C17.9983 13.4544 17.861 14.0681 18.154 14.5331C18.4484 15.0004 19.0658 15.1405 19.5331 14.8461L19.0146 14.0231C19.5331 14.8461 19.5327 14.8463 19.5331 14.8461L19.5348 14.845L19.5367 14.8438L19.5411 14.841L19.552 14.8339L19.5675 14.8237L19.5824 14.8137C19.6063 14.7976 19.6373 14.7761 19.6745 14.749C19.7488 14.6949 19.848 14.6185 19.9639 14.5191C20.1948 14.3209 20.496 14.0273 20.796 13.6327C21.4003 12.8381 22 11.6308 22 10C22 8.36926 21.4003 7.16196 20.796 6.36727C20.496 5.97272 20.1948 5.67915 19.9639 5.48094C19.848 5.38152 19.7488 5.3051 19.6745 5.25103C19.6373 5.22396 19.6063 5.2024 19.5824 5.18627C19.5704 5.1782 19.5603 5.17148 19.552 5.1661L19.5411 5.15903L19.5367 5.15624L19.5348 5.15503L19.5339 5.15448C19.5335 5.15421 19.5331 5.15395 19 6.00001L19.5339 5.15448C19.0667 4.86006 18.4484 4.99965 18.154 5.46692C17.861 5.93191 17.9983 6.54567 18.4602 6.84177Z" fill="black"/>
<path fill-rule="evenodd" clip-rule="evenodd" d="M16.4504 8.83537L16.4523 8.83666C15.9968 8.53867 15.8626 7.92926 16.154 7.46692C16.4484 6.99965 17.0658 6.85953 17.5331 7.15395L17.0001 7.99983C17.5331 7.15395 17.5327 7.15369 17.5331 7.15395L17.5348 7.15501L17.5365 7.15613L17.5404 7.15857L17.5492 7.16425L17.5711 7.17886C17.5877 7.19004 17.608 7.20417 17.6315 7.22128C17.6784 7.25545 17.7387 7.3019 17.8076 7.36108C17.9448 7.47882 18.121 7.65082 18.296 7.88099C18.6503 8.34692 19 9.05422 19 10C19 10.9458 18.6503 11.6531 18.296 12.119C18.121 12.3492 17.9448 12.5212 17.8076 12.6389C17.7387 12.6981 17.6784 12.7446 17.6315 12.7787C17.608 12.7958 17.5877 12.81 17.5711 12.8212L17.5492 12.8358L17.5404 12.8414L17.5365 12.8439L17.5348 12.845L17.5339 12.8455C17.5335 12.8458 17.5331 12.8461 17.0048 12.0076L17.5339 12.8455C17.0667 13.14 16.4484 13.0004 16.154 12.5331C15.8626 12.0708 15.9968 11.4613 16.4523 11.1634L16.4545 11.1618C16.4622 11.1561 16.4801 11.1427 16.5049 11.1214C16.5553 11.0782 16.629 11.007 16.704 10.9084C16.8497 10.7168 17 10.4241 17 10C17 9.57588 16.8497 9.28318 16.704 9.09159C16.629 8.993 16.5553 8.92186 16.5049 8.87864C16.4801 8.85735 16.4622 8.84388 16.4545 8.83824L16.4523 8.83666L16.4557 8.83885L16.4513 8.83598L16.4504 8.83537ZM16.4638 8.84412L16.4566 8.83946L16.4611 8.84237L16.4638 8.84412Z" fill="black"/>
</svg>
