<svg width="24" height="24" viewBox="0 0 24 24" fill="none" xmlns="http://www.w3.org/2000/svg">
<path fill-rule="evenodd" clip-rule="evenodd" d="M2 12C2 6.47715 6.47715 2 12 2C17.5228 2 22 6.47715 22 12C22 17.5228 17.5228 22 12 22C6.47715 22 2 17.5228 2 12ZM11.1324 4.43166C11.4816 4.0993 11.7731 4 12 4C12.2269 4 12.5184 4.0993 12.8676 4.43166C13.222 4.76892 13.5866 5.30422 13.9146 6.04218C14.4761 7.30546 14.8726 9.03347 14.9743 11H9.02567C9.12736 9.03347 9.52392 7.30546 10.0854 6.04218C10.4134 5.30422 10.778 4.76892 11.1324 4.43166ZM7.02328 11C7.12643 8.79597 7.56798 6.78191 8.25776 5.2299C8.31802 5.09431 8.38064 4.96122 8.44561 4.83099C6.09485 5.99874 4.39999 8.2887 4.06189 11H7.02328ZM4.06189 13H7.02328C7.12643 15.204 7.56798 17.2181 8.25776 18.7701C8.31802 18.9057 8.38064 19.0388 8.44561 19.169C6.09485 18.0013 4.39999 15.7113 4.06189 13ZM19.9381 11C19.6 8.2887 17.9052 5.99874 15.5544 4.83099C15.6194 4.96122 15.682 5.09431 15.7422 5.2299C16.432 6.78191 16.8736 8.79597 16.9767 11H19.9381ZM16.9767 13H19.9381C19.6 15.7113 17.9052 18.0013 15.5544 19.169C15.6194 19.0388 15.682 18.9057 15.7422 18.7701C16.432 17.2181 16.8736 15.204 16.9767 13ZM14.9743 13C14.8726 14.9665 14.4761 16.6945 13.9146 17.9578C13.5866 18.6958 13.222 19.2311 12.8676 19.5683C12.5184 19.9007 12.2269 20 12 20C11.7731 20 11.4816 19.9007 11.1324 19.5683C10.778 19.2311 10.4134 18.6958 10.0854 17.9578C9.52392 16.6945 9.12736 14.9665 9.02567 13H14.9743Z" fill="black"/>
</svg>
