<svg width="24" height="24" viewBox="0 0 24 24" fill="none" xmlns="http://www.w3.org/2000/svg">
<path d="M2.04932 11.0001L7.01595 11.0001C7.10319 8.28822 7.54269 5.81701 8.23251 3.93354C8.42038 3.4206 8.63135 2.93868 8.86618 2.50098C5.18224 3.71562 2.44513 7.01349 2.04932 11.0001Z" fill="black"/>
<path d="M2.04932 13.0001C2.44513 16.9868 5.18224 20.2846 8.86618 21.4993C8.63135 21.0616 8.42038 20.5796 8.23251 20.0667C7.54269 18.1832 7.10319 15.712 7.01595 13.0001L2.04932 13.0001Z" fill="black"/>
<path d="M15.1337 21.4993C18.8176 20.2846 21.5547 16.9867 21.9506 13.0001H16.9839C16.8967 15.712 16.4572 18.1832 15.7674 20.0667C15.5795 20.5796 15.3685 21.0616 15.1337 21.4993Z" fill="black"/>
<path d="M21.9506 11.0001C21.5547 7.01349 18.8176 3.71562 15.1337 2.50098C15.3685 2.93868 15.5795 3.4206 15.7674 3.93354C16.4572 5.81701 16.8967 8.28822 16.9839 11.0001H21.9506Z" fill="black"/>
<path d="M10.1105 4.62136C9.51427 6.24935 9.10378 8.4788 9.01705 11.0001H14.9828C14.8961 8.4788 14.4856 6.24935 13.8894 4.62136C13.5509 3.69726 13.1717 3.0196 12.801 2.59148C12.4279 2.16064 12.154 2.07861 11.9999 2.07861C11.8458 2.07861 11.572 2.16064 11.1989 2.59148C10.8282 3.0196 10.449 3.69726 10.1105 4.62136Z" fill="black"/>
<path d="M13.8894 19.3789C14.4856 17.7509 14.8961 15.5214 14.9828 13.0001H9.01705C9.10378 15.5214 9.51427 17.7509 10.1105 19.3789C10.449 20.303 10.8282 20.9806 11.1989 21.4088C11.572 21.8396 11.8458 21.9216 11.9999 21.9216C12.154 21.9216 12.4279 21.8396 12.801 21.4088C13.1717 20.9806 13.5509 20.303 13.8894 19.3789Z" fill="black"/>
</svg>
