<svg width="24" height="24" viewBox="0 0 24 24" fill="none" xmlns="http://www.w3.org/2000/svg">
<path d="M17.0175 3C16.4539 3 16.0001 3.45897 16.0001 4C16.0001 4.55228 15.5524 5 15.0001 5C14.4478 5 14.0001 4.55228 14.0001 4C14.0001 2.33189 15.372 1 17.0175 1C18.644 1 20.0001 2.31642 20.0001 3.96544V4.12563C20.0001 5.36079 19.1803 6.44138 18.0001 6.77914V7.5C18.0001 8.05228 17.5524 8.5 17.0001 8.5C16.4478 8.5 16.0001 8.05228 16.0001 7.5V6.68718C16.0001 5.82445 16.5873 5.07243 17.4242 4.86319C17.7627 4.77858 18.0001 4.47449 18.0001 4.12563V3.96544C18.0001 3.44349 17.562 3 17.0175 3Z" fill="black"/>
<path d="M18.0001 10C18.0001 10.5523 17.5524 11 17.0001 11C16.4478 11 16.0001 10.5523 16.0001 10C16.0001 9.44771 16.4478 9 17.0001 9C17.5524 9 18.0001 9.44771 18.0001 10Z" fill="black"/>
<path fill-rule="evenodd" clip-rule="evenodd" d="M4.00211 3C3.48891 3 3.06291 3.38747 3.00806 3.89082C3.00573 3.91217 3.00407 3.93374 3.0031 3.95549C2.99349 4.1747 3.00235 4.39427 3.01429 4.6132C3.03587 5.00856 3.08818 5.56775 3.21008 6.24926C3.45378 7.61182 3.97684 9.4698 5.09325 11.4847C5.85457 12.8587 6.88982 14.3019 8.29507 15.7071C9.6301 17.0421 11.0337 18.0409 12.3857 18.7875C12.4766 18.8588 12.577 18.9122 12.6821 18.9476C14.5953 19.9586 16.3853 20.4704 17.7106 20.7301C18.3908 20.8634 18.9514 20.9308 19.3475 20.9649C19.5457 20.982 19.703 20.9907 19.8138 20.9953C19.8693 20.9975 19.9132 20.9987 19.9448 20.9993L19.9829 20.9999L19.9949 21L19.9991 21L20.0008 21H20.0021C20.0021 21 20.0021 21 20.0021 20V21C20.5544 21 21.0021 20.5523 21.0021 20L21.0022 16.7808C21.0022 15.8631 20.3776 15.0631 19.4872 14.8405L16.794 14.1672C16.1124 13.9968 15.3915 14.1965 14.8947 14.6933L12.8441 16.7439C11.8002 16.1172 10.7329 15.3165 9.70927 14.2929C8.6656 13.2492 7.85426 12.1885 7.22302 11.1653L9.29997 9.11182C9.80241 8.61504 10.0055 7.89002 9.83408 7.20454L9.16168 4.51493C8.9391 3.62459 8.13913 3 7.22139 3H4.00211ZM5.17884 5.89714C5.11814 5.55781 5.07782 5.25631 5.05113 5H7.22139L7.8938 7.68961L6.24485 9.31996C5.6544 8.00167 5.34272 6.81343 5.17884 5.89714ZM18.0952 18.7674C17.1747 18.5871 15.9966 18.2684 14.7101 17.7062L16.3089 16.1075L19.0022 16.7808L19.0021 18.9159C18.7413 18.882 18.4364 18.8343 18.0952 18.7674Z" fill="black"/>
</svg>
