<svg width="24" height="24" viewBox="0 0 24 24" fill="none" xmlns="http://www.w3.org/2000/svg">
<path fill-rule="evenodd" clip-rule="evenodd" d="M6 4C6 2.89543 6.89543 2 8 2H14C15.1046 2 16 2.89543 16 4V5.99994H18C19.1046 5.99994 20 6.89537 20 7.99994V8.27207C19.0865 7.98255 16.9695 7.99994 16.9695 7.99994H15.0112L15 8L14.9888 7.99994H7.01116L7 8L6.98884 7.99994H4V12H11.4585C11.1566 12.6242 10.9407 13.2967 10.8252 14H8V15C8 15.5523 7.55228 16 7 16C6.44772 16 6 15.5523 6 15V14H4V17.9999H11.2899C11.5777 18.7343 11.9483 19.4073 12.3337 19.9999H4C2.89543 19.9999 2 19.1045 2 17.9999V7.99994C2 6.89537 2.89543 5.99994 4 5.99994H6V4ZM14 4V5.99994H8V4H14Z" fill="black"/>
<path d="M19.0112 15.2468C19.0112 15.8643 18.5107 16.3648 17.8932 16.3648C17.2758 16.3648 16.7752 15.8643 16.7752 15.2468C16.7752 14.6294 17.2758 14.1288 17.8932 14.1288C18.5107 14.1288 19.0112 14.6294 19.0112 15.2468Z" fill="black"/>
<path fill-rule="evenodd" clip-rule="evenodd" d="M17.8641 21.669L18.4865 22.4517C18.1221 22.7414 17.6057 22.7411 17.2414 22.4514L17.2396 22.45L17.2359 22.447L17.224 22.4375C17.1617 22.3867 17.0999 22.3354 17.0387 22.2834C16.9164 22.1794 16.7445 22.0294 16.5394 21.84C16.1306 21.4624 15.5833 20.9221 15.0331 20.2726C13.9766 19.0253 12.7282 17.1672 12.7282 15.192C12.7282 12.319 15.0026 9.94415 17.8641 9.94415C20.7256 9.94415 23 12.319 23 15.192C23 17.1672 21.7516 19.0253 20.6951 20.2726C20.145 20.9221 19.5977 21.4624 19.1888 21.84C18.9837 22.0294 18.8118 22.1794 18.6895 22.2834C18.6244 22.3387 18.5587 22.3932 18.4924 22.447L18.4887 22.45L18.4874 22.451C18.4874 22.451 18.4865 22.4517 17.8641 21.669ZM17.8641 11.9442C16.1572 11.9442 14.7282 13.3729 14.7282 15.192C14.7282 16.4055 15.5477 17.7858 16.5592 18.9799C17.029 19.5345 17.5015 20.0041 17.8641 20.3409C18.2268 20.0041 18.6992 19.5345 19.169 18.9799C20.1805 17.7858 21 16.4055 21 15.192C21 13.3729 19.571 11.9442 17.8641 11.9442ZM17.2414 22.4514C17.2414 22.4514 17.2418 22.4517 17.8641 21.669L17.2414 22.4514Z" fill="black"/>
</svg>
