<svg width="24" height="24" viewBox="0 0 24 24" fill="none" xmlns="http://www.w3.org/2000/svg">
<path d="M9.70711 3.29289C9.31658 2.90237 8.68342 2.90237 8.29289 3.29289C7.90237 3.68342 7.90237 4.31658 8.29289 4.70711L9.58579 6H9C5.13401 6 2 9.13401 2 13C2 16.866 5.13401 20 9 20H12C12.5523 20 13 19.5523 13 19C13 18.4477 12.5523 18 12 18H9C6.23858 18 4 15.7614 4 13C4 10.2386 6.23858 8 9 8H9.58579L8.29289 9.29289C7.90237 9.68342 7.90237 10.3166 8.29289 10.7071C8.68342 11.0976 9.31658 11.0976 9.70711 10.7071L12.7071 7.70711C13.0976 7.31658 13.0976 6.68342 12.7071 6.29289L9.70711 3.29289Z" fill="black"/>
<path d="M15 8C14.4477 8 14 8.44772 14 9C14 9.55228 14.4477 10 15 10H20C20.5523 10 21 9.55228 21 9C21 8.44772 20.5523 8 20 8H15Z" fill="black"/>
<path d="M15 12C14.4477 12 14 12.4477 14 13C14 13.5523 14.4477 14 15 14H20C20.5523 14 21 13.5523 21 13C21 12.4477 20.5523 12 20 12H15Z" fill="black"/>
<path d="M15 16C14.4477 16 14 16.4477 14 17C14 17.5523 14.4477 18 15 18H20C20.5523 18 21 17.5523 21 17C21 16.4477 20.5523 16 20 16H15Z" fill="black"/>
</svg>
