<svg width="8" height="8" viewBox="0 0 8 8" fill="none" xmlns="http://www.w3.org/2000/svg">
<path d="M6.81906 2.2984C7.11195 2.0055 7.11195 1.53063 6.81906 1.23774C6.52616 0.944843 6.05129 0.944843 5.7584 1.23774L4.05672 2.93942L2.35504 1.23774C2.06214 0.944843 1.58727 0.944843 1.29438 1.23774C1.00148 1.53063 1.00148 2.0055 1.29438 2.2984L2.99606 4.00008L1.29438 5.70175C1.00149 5.99465 1.00149 6.46952 1.29438 6.76241C1.58727 7.05531 2.06215 7.05531 2.35504 6.76241L4.05672 5.06074L5.75839 6.76241C6.05129 7.05531 6.52616 7.05531 6.81905 6.76241C7.11195 6.46952 7.11195 5.99465 6.81905 5.70175L5.11738 4.00008L6.81906 2.2984Z" fill="black"/>
</svg>
