<svg width="12" height="12" viewBox="0 0 12 12" fill="none" xmlns="http://www.w3.org/2000/svg">
<path fill-rule="evenodd" clip-rule="evenodd" d="M6 11C8.76142 11 11 8.76142 11 6C11 3.23858 8.76142 1 6 1C3.23858 1 1 3.23858 1 6C1 8.76142 3.23858 11 6 11ZM3.46967 3.46967C3.76256 3.17678 4.23744 3.17678 4.53033 3.46967L6 4.93934L7.46967 3.46967C7.76256 3.17678 8.23744 3.17678 8.53033 3.46967C8.82322 3.76256 8.82322 4.23744 8.53033 4.53033L7.06066 6L8.53033 7.46967C8.82322 7.76256 8.82322 8.23744 8.53033 8.53033C8.23744 8.82322 7.76256 8.82322 7.46967 8.53033L6 7.06066L4.53033 8.53033C4.23744 8.82322 3.76256 8.82322 3.46967 8.53033C3.17678 8.23744 3.17678 7.76256 3.46967 7.46967L4.93934 6L3.46967 4.53033C3.17678 4.23744 3.17678 3.76256 3.46967 3.46967Z" fill="black"/>
</svg>
