<svg width="12" height="12" viewBox="0 0 12 12" fill="none" xmlns="http://www.w3.org/2000/svg">
<path d="M6.00017 7.45762C6.80523 7.45762 7.45786 6.80499 7.45786 5.99993C7.45786 5.19487 6.80523 4.54224 6.00017 4.54224C5.19511 4.54224 4.54248 5.19487 4.54248 5.99993C4.54248 6.80499 5.19511 7.45762 6.00017 7.45762Z" fill="black"/>
<path fill-rule="evenodd" clip-rule="evenodd" d="M0.716551 6.11471C0.69177 6.05976 0.678685 6.02255 0.671875 6.00103C0.67878 5.97975 0.691992 5.94301 0.716868 5.8888C0.769662 5.77375 0.855634 5.62171 0.978279 5.44312C1.22299 5.08681 1.59179 4.65666 2.06982 4.24263C3.02837 3.41239 4.37752 2.68677 5.99731 2.68677C7.6254 2.68677 8.97597 3.3834 9.92943 4.19264C10.4056 4.59681 10.7716 5.02003 11.0137 5.3785C11.1349 5.55801 11.2197 5.71332 11.2721 5.83471C11.3148 5.93386 11.3256 5.9867 11.3284 6.00006C11.3258 6.01363 11.3152 6.06797 11.2725 6.16869C11.221 6.29018 11.1376 6.44541 11.0183 6.62459C10.7799 6.98247 10.4187 7.40495 9.94609 7.80838C9.00073 8.61542 7.65069 9.31312 5.99731 9.31312C4.35225 9.31312 3.00355 8.58639 2.05315 7.75841C1.57874 7.3451 1.21469 6.91569 0.973727 6.55998C0.852975 6.38172 0.768449 6.2298 0.716551 6.11471ZM8.32253 5.99995C8.32253 7.28257 7.28276 8.32235 6.00013 8.32235C4.71751 8.32235 3.67773 7.28257 3.67773 5.99995C3.67773 4.71732 4.71751 3.67755 6.00013 3.67755C7.28276 3.67755 8.32253 4.71732 8.32253 5.99995Z" fill="black"/>
</svg>
