<svg width="12" height="12" viewBox="0 0 12 12" fill="none" xmlns="http://www.w3.org/2000/svg">
<path fill-rule="evenodd" clip-rule="evenodd" d="M11 4C11 5.65685 9.65685 7 8 7C7.44364 7 6.92266 6.84855 6.47602 6.58464L2.53033 10.5303C2.23744 10.8232 1.76256 10.8232 1.46967 10.5303C1.17678 10.2374 1.17678 9.76256 1.46967 9.46967L5.41536 5.52398C5.15145 5.07734 5 4.55636 5 4C5 2.34315 6.34315 1 8 1C9.65685 1 11 2.34315 11 4ZM6.71726 2.71716C6.87346 2.56095 7.12673 2.56095 7.28294 2.71716L8.0001 3.43432L8.71726 2.71716C8.87346 2.56095 9.12673 2.56095 9.28294 2.71716C9.43915 2.87337 9.43915 3.12664 9.28294 3.28285L8.56578 4.00001L9.28294 4.71716C9.43915 4.87337 9.43915 5.12664 9.28294 5.28285C9.12673 5.43906 8.87346 5.43906 8.71726 5.28285L8.0001 4.56569L7.28294 5.28285C7.12673 5.43906 6.87346 5.43906 6.71726 5.28285C6.56105 5.12664 6.56105 4.87337 6.71726 4.71716L7.43441 4.00001L6.71726 3.28285C6.56105 3.12664 6.56105 2.87337 6.71726 2.71716Z" fill="black"/>
</svg>
