<svg width="12" height="12" viewBox="0 0 12 12" fill="none" xmlns="http://www.w3.org/2000/svg">
<path d="M2.49199 0.0413818C1.1389 0.0413818 0.0419922 1.13828 0.0419922 2.49138V3.67308C0.0419922 4.03206 0.333007 4.32308 0.691992 4.32308C1.05098 4.32308 1.34199 4.03206 1.34199 3.67308V2.49138C1.34199 1.85625 1.85686 1.34138 2.49199 1.34138H3.66428C4.02327 1.34138 4.31428 1.05037 4.31428 0.691382C4.31428 0.332397 4.02327 0.0413818 3.66428 0.0413818H2.49199Z" fill="black"/>
<path d="M2.49199 11.9588C1.1389 11.9588 0.0419922 10.8619 0.0419922 9.50881V8.32712C0.0419922 7.96813 0.333007 7.67712 0.691992 7.67712C1.05098 7.67712 1.34199 7.96813 1.34199 8.32712V9.50881C1.34199 10.1439 1.85686 10.6588 2.49199 10.6588H3.66428C4.02327 10.6588 4.31428 10.9498 4.31428 11.3088C4.31428 11.6678 4.02327 11.9588 3.66428 11.9588H2.49199Z" fill="black"/>
<path d="M11.9567 2.49138C11.9567 1.13828 10.8598 0.0413818 9.50674 0.0413818H8.33445C7.97546 0.0413818 7.68445 0.332397 7.68445 0.691382C7.68445 1.05037 7.97546 1.34138 8.33445 1.34138H9.50674C10.1419 1.34138 10.6567 1.85625 10.6567 2.49138V3.67308C10.6567 4.03206 10.9478 4.32308 11.3067 4.32308C11.6657 4.32308 11.9567 4.03206 11.9567 3.67308V2.49138Z" fill="black"/>
<path d="M9.50674 11.9588C10.8598 11.9588 11.9567 10.8619 11.9567 9.50881V8.32712C11.9567 7.96813 11.6657 7.67712 11.3067 7.67712C10.9478 7.67712 10.6567 7.96813 10.6567 8.32712V9.50881C10.6567 10.1439 10.1419 10.6588 9.50674 10.6588H8.33445C7.97546 10.6588 7.68445 10.9498 7.68445 11.3088C7.68445 11.6678 7.97546 11.9588 8.33445 11.9588H9.50674Z" fill="black"/>
<path d="M6.86592 0.691382C6.86592 1.05037 6.5749 1.34138 6.21592 1.34138H5.78343C5.42444 1.34138 5.13343 1.05037 5.13343 0.691382C5.13343 0.332397 5.42444 0.0413818 5.78343 0.0413818H6.21592C6.5749 0.0413818 6.86592 0.332397 6.86592 0.691382Z" fill="black"/>
<path d="M6.21592 10.6588C6.5749 10.6588 6.86592 10.9498 6.86592 11.3088C6.86592 11.6678 6.5749 11.9588 6.21592 11.9588H5.78343C5.42444 11.9588 5.13343 11.6678 5.13343 11.3088C5.13343 10.9498 5.42444 10.6588 5.78343 10.6588H6.21592Z" fill="black"/>
<path d="M0.691992 6.8531C1.05098 6.8531 1.34199 6.56209 1.34199 6.2031V5.77155C1.34199 5.41257 1.05098 5.12155 0.691992 5.12155C0.333007 5.12155 0.0419922 5.41257 0.0419922 5.77155V6.2031C0.0419922 6.56209 0.333007 6.8531 0.691992 6.8531Z" fill="black"/>
<path d="M11.9567 6.2031C11.9567 6.56209 11.6657 6.8531 11.3067 6.8531C10.9478 6.8531 10.6567 6.56209 10.6567 6.2031V5.77155C10.6567 5.41257 10.9478 5.12155 11.3067 5.12155C11.6657 5.12155 11.9567 5.41257 11.9567 5.77155V6.2031Z" fill="black"/>
</svg>
