<svg width="12" height="12" viewBox="0 0 12 12" fill="none" xmlns="http://www.w3.org/2000/svg">
<g clip-path="url(#clip0_15956_2080)">
<path fill-rule="evenodd" clip-rule="evenodd" d="M5.20756 0.546157C5.49792 -0.151944 6.48685 -0.15194 6.77721 0.546157L8.00129 3.4892L11.1785 3.74392C11.9322 3.80434 12.2378 4.74487 11.6636 5.23674L9.24286 7.31036L9.98243 10.4108C10.1579 11.1463 9.3578 11.7275 8.71256 11.3334L5.99239 9.67196L3.27221 11.3334C2.62697 11.7275 1.82691 11.1463 2.00234 10.4108L2.74192 7.31036L0.321179 5.23674C-0.253029 4.74487 0.0525725 3.80434 0.806226 3.74392L3.98349 3.4892L5.20756 0.546157ZM5.99239 2.04436L5.03133 4.35501C4.93773 4.58006 4.72608 4.73383 4.48312 4.75331L1.98858 4.9533L3.88916 6.58134C4.07427 6.73991 4.15511 6.98872 4.09856 7.22581L3.5179 9.66005L5.65357 8.35559C5.86158 8.22854 6.12319 8.22854 6.3312 8.35559L8.46687 9.66005L7.88622 7.22581C7.82966 6.98872 7.9105 6.73991 8.09562 6.58134L9.99619 4.9533L7.50165 4.75331C7.25869 4.73383 7.04704 4.58006 6.95344 4.35501L5.99239 2.04436Z" fill="black"/>
</g>
<defs>
<clipPath id="clip0_15956_2080">
<rect width="12" height="12" fill="white"/>
</clipPath>
</defs>
</svg>
