<svg width="12" height="12" viewBox="0 0 12 12" fill="none" xmlns="http://www.w3.org/2000/svg">
<g clip-path="url(#clip0_14712_2079)">
<path d="M6.65 3.04614C6.65 2.68716 6.35898 2.39614 6 2.39614C5.64102 2.39614 5.35 2.68716 5.35 3.04614V6.02522C5.35 6.24988 5.46602 6.45862 5.65681 6.57723L8.06183 8.07241C8.3667 8.26195 8.76749 8.16845 8.95703 7.86358C9.14657 7.55871 9.05307 7.15791 8.7482 6.96838L6.65 5.66394V3.04614Z" fill="black"/>
<path fill-rule="evenodd" clip-rule="evenodd" d="M12 6C12 9.31371 9.31371 12 6 12C2.68629 12 0 9.31371 0 6C0 2.68629 2.68629 0 6 0C9.31371 0 12 2.68629 12 6ZM10.7 6C10.7 8.59574 8.59574 10.7 6 10.7C3.40426 10.7 1.3 8.59574 1.3 6C1.3 3.40426 3.40426 1.3 6 1.3C8.59574 1.3 10.7 3.40426 10.7 6Z" fill="black"/>
</g>
<defs>
<clipPath id="clip0_14712_2079">
<rect width="12" height="12" fill="white"/>
</clipPath>
</defs>
</svg>
