<svg width="12" height="12" viewBox="0 0 12 12" fill="none" xmlns="http://www.w3.org/2000/svg">
<path d="M4.96852 2.58568C5.29197 2.32692 5.34441 1.85495 5.08565 1.53151C4.82689 1.20806 4.35493 1.15562 4.03148 1.41438L1.53689 3.41005C1.52006 3.42328 1.50381 3.43721 1.48818 3.4518C1.34162 3.58869 1.25 3.78366 1.25 4.00003C1.25 4.19193 1.32207 4.367 1.44063 4.49964C1.45568 4.51649 1.47154 4.53272 1.48818 4.54825C1.50381 4.56285 1.52006 4.57678 1.53689 4.59001L4.03148 6.58568C4.35493 6.84444 4.82689 6.792 5.08565 6.46855C5.34441 6.1451 5.29197 5.67313 4.96852 5.41438L4.13809 4.75003H7C8.24264 4.75003 9.25 5.75739 9.25 7.00003C9.25 8.24267 8.24264 9.25003 7 9.25003H5C4.58579 9.25003 4.25 9.58581 4.25 10C4.25 10.4142 4.58579 10.75 5 10.75H7C9.07107 10.75 10.75 9.0711 10.75 7.00003C10.75 4.92896 9.07107 3.25003 7 3.25003H4.13809L4.96852 2.58568Z" fill="black"/>
</svg>
