<svg xmlns="http://www.w3.org/2000/svg" width="28" height="20" fill="none" viewBox="0 0 28 20"><g clip-path="url(#a)"><path fill="#fff" d="M0 2C0 .8954.8954 0 2 0h24c1.1046 0 2 .8954 2 2v16c0 1.1046-.8954 2-2 2H2c-1.1046 0-2-.8954-2-2z"/><mask id="b" width="28" height="20" x="0" y="0" maskUnits="userSpaceOnUse" style="mask-type:luminance"><rect width="28" height="20" fill="#fff" rx="2"/></mask><g mask="url(#b)"><path fill="#f5f5f5" d="M26 19.5v.5H2v-.5zm1.5-1.5V2c0-.8284-.6716-1.5-1.5-1.5H2C1.1716.5.5 1.1716.5 2v16c0 .8284.6716 1.5 1.5 1.5v.5c-1.1046 0-2-.8954-2-2V2C0 .8954.8954 0 2 0h24c1.1046 0 2 .8954 2 2v16c0 1.1046-.8954 2-2 2v-.5c.8284 0 1.5-.6716 1.5-1.5"/><path fill="#0c47b7" fill-rule="evenodd" d="M0 13.3333h28V6.6667H0z" clip-rule="evenodd"/><path fill="#e53b35" fill-rule="evenodd" d="M0 20h28v-6.6667H0z" clip-rule="evenodd"/></g><g clip-path="url(#c)"><mask id="d" width="13" height="16" x="3" y="2" fill="#000" maskUnits="userSpaceOnUse"><path fill="#fff" d="M3.3834 2h13v16h-13z"/><path fill-rule="evenodd" d="M5.6174 5.282C5.6449 4.5663 6.2333 4 6.9497 4h6.1006c.7164 0 1.3048.5662 1.3323 1.282l.2593 6.7406a1.334 1.334 0 0 1-.4646 1.0636l-2.8757 2.4648c-.749.642-1.8542.642-2.6032 0l-2.8757-2.4648a1.334 1.334 0 0 1-.4646-1.0636z" clip-rule="evenodd"/></mask><path fill="#f73744" fill-rule="evenodd" d="M5.6174 5.282C5.6449 4.5663 6.2333 4 6.9497 4h6.1006c.7164 0 1.3048.5662 1.3323 1.282l.2593 6.7406a1.334 1.334 0 0 1-.4646 1.0636l-2.8757 2.4648c-.749.642-1.8542.642-2.6032 0l-2.8757-2.4648a1.334 1.334 0 0 1-.4646-1.0636z" clip-rule="evenodd"/><path stroke="#fff" stroke-width="3" d="M5.6174 5.282C5.6449 4.5663 6.2333 4 6.9497 4h6.1006c.7164 0 1.3048.5662 1.3323 1.282l.2593 6.7406a1.334 1.334 0 0 1-.4646 1.0636l-2.8757 2.4648c-.749.642-1.8542.642-2.6032 0l-2.8757-2.4648a1.334 1.334 0 0 1-.4646-1.0636z" clip-rule="evenodd" mask="url(#d)"/><mask id="f" width="12" height="16" x="4" y="2" maskUnits="userSpaceOnUse" style="mask-type:luminance"><mask id="e" width="13" height="16" x="3" y="2" fill="#000" maskUnits="userSpaceOnUse"><path fill="#fff" d="M3.3834 2h13v16h-13z"/><path fill-rule="evenodd" d="M5.6174 5.282C5.6449 4.5663 6.2333 4 6.9497 4h6.1006c.7164 0 1.3048.5662 1.3323 1.282l.2593 6.7406a1.334 1.334 0 0 1-.4646 1.0636l-2.8757 2.4648c-.749.642-1.8542.642-2.6032 0l-2.8757-2.4648a1.334 1.334 0 0 1-.4646-1.0636z" clip-rule="evenodd"/></mask><path fill="#fff" fill-rule="evenodd" d="M5.6174 5.282C5.6449 4.5663 6.2333 4 6.9497 4h6.1006c.7164 0 1.3048.5662 1.3323 1.282l.2593 6.7406a1.334 1.334 0 0 1-.4646 1.0636l-2.8757 2.4648c-.749.642-1.8542.642-2.6032 0l-2.8757-2.4648a1.334 1.334 0 0 1-.4646-1.0636z" clip-rule="evenodd"/><path fill-rule="evenodd" stroke="#fff" stroke-width="3" d="M5.6174 5.282C5.6449 4.5663 6.2333 4 6.9497 4h6.1006c.7164 0 1.3048.5662 1.3323 1.282l.2593 6.7406a1.334 1.334 0 0 1-.4646 1.0636l-2.8757 2.4648c-.749.642-1.8542.642-2.6032 0l-2.8757-2.4648a1.334 1.334 0 0 1-.4646-1.0636z" clip-rule="evenodd" mask="url(#e)"/></mask><g fill-rule="evenodd" clip-rule="evenodd" mask="url(#f)"><path fill="#fff" d="M9.3333 11A.3333.3333 0 0 0 9 10.6667H7.6667a.3334.3334 0 0 1-.3334-.3334v-.6666a.3333.3333 0 0 1 .3334-.3334H9A.3333.3333 0 0 0 9.3333 9v-.6667A.3333.3333 0 0 0 9 8h-.6667A.3333.3333 0 0 1 8 7.6667V7c0-.184.1492-.3333.3333-.3333H9a.3333.3333 0 0 0 .3333-.3334v-.6666a.3333.3333 0 0 1 .3334-.3334h.6666a.3334.3334 0 0 1 .3334.3334v.6666c0 .1841.1492.3334.3333.3334h.6667A.3333.3333 0 0 1 12 7v.6667A.3333.3333 0 0 1 11.6667 8H11a.3333.3333 0 0 0-.3333.3333V9c0 .1841.1492.3333.3333.3333h1.3333a.3334.3334 0 0 1 .3334.3334v.6666a.3334.3334 0 0 1-.3334.3334H11a.3333.3333 0 0 0-.3333.3333v2a.3334.3334 0 0 1-.3334.3333h-.6666A.3333.3333 0 0 1 9.3333 13z"/><path fill="#1251a1" d="M8.7965 13.4254c.2146-.4487.6728-.7587 1.2035-.7587s.9889.31 1.2035.7587C12.8246 13.6808 14 14.4384 14 15.3333c0 1.1046-1.7909 2-4 2s-4-.8954-4-2c0-.8949 1.1754-1.6525 2.7965-1.9079"/></g></g></g><defs><clipPath id="a"><path fill="#fff" d="M0 0h28v20H0z"/></clipPath><clipPath id="c"><path fill="#fff" d="M4.6667 4h10v12h-10z"/></clipPath></defs></svg>