<svg xmlns="http://www.w3.org/2000/svg" width="28" height="20" fill="none" viewBox="0 0 28 20"><g clip-path="url(#a)"><rect width="28" height="20" fill="#fff" rx="2"/><mask id="b" width="28" height="20" x="0" y="0" maskUnits="userSpaceOnUse" style="mask-type:luminance"><rect width="28" height="20" fill="#fff" rx="2"/></mask><g mask="url(#b)"><path fill="#262626" d="M0 0h28v20H0z"/><path fill="#e8283f" fill-rule="evenodd" d="M0 0h28v20z" clip-rule="evenodd"/><path fill="#fff" fill-rule="evenodd" d="m6.667 16.667-.943.276L6 16l-.276-.943.943.276.943-.276-.277.943.276.943zm0-8-.943.276L6 8l-.276-.943.943.276.943-.276L7.333 8l.276.943zM3.333 12l-.943.276.276-.943-.276-.943.943.276.943-.276-.276.943.276.943zm6-.667-.943.276.276-.943-.276-.943.943.276.943-.276-.276.943.276.943z" clip-rule="evenodd"/><path fill="#ffd84e" fill-rule="evenodd" d="M18.8612 9.2656c-.1596-.0958-.289-.3214-.289-.5019V7.535c0-.1814-.1305-.285-.328-.2191l-.7582.2527c-.1811.0604-.4585.0659-.656 0l-.7582-.2527c-.1812-.0604-.2013-.1854-.039-.2828l1.779-1.0674c.1596-.0957.2455-.3039.1797-.5014l-.2528-.7582c-.0603-.1811.0212-.2845.2187-.2187l.7582.2528c.1812.0604.4041-.0174.5014-.1797l1.0674-1.779c.0958-.1596.2169-.1585.2828.039l.2527.7582c.0604.1812.0658.4585 0 .656l-.2527.7582c-.0604.1812.0386.328.2191.328h1.2287c.1814 0 .4045.1268.5019.289l1.0674 1.779c.0957.1597.0187.32-.1544.3546l-1.7015.3403c-.181.0362-.3587.2202-.3933.3933l-.3403 1.7015c-.0362.181-.1923.2517-.3546.1544z" clip-rule="evenodd"/></g></g><defs><clipPath id="a"><path fill="#fff" d="M0 0h28v20H0z"/></clipPath></defs></svg>