<svg xmlns="http://www.w3.org/2000/svg" width="28" height="20" fill="none" viewBox="0 0 28 20"><g clip-path="url(#a)"><rect width="28" height="20" fill="#fff" rx="2"/><mask id="b" width="28" height="20" x="0" y="0" maskUnits="userSpaceOnUse" style="mask-type:luminance"><rect width="28" height="20" fill="#fff" rx="2"/></mask><g mask="url(#b)"><path fill="#dc1f37" d="M0 0h28v20H0z"/><path fill="#042c90" d="M0 0h12v9.3333H0z"/><mask id="c" width="12" height="10" x="0" y="0" maskUnits="userSpaceOnUse" style="mask-type:alpha"><path fill="#042c90" d="M0 0h12v9.3333H0z"/></mask><g mask="url(#c)"><mask id="d" width="15" height="13" x="-2" y="-2" fill="#000" maskUnits="userSpaceOnUse"><path fill="#fff" d="M-2-2h15v13H-2z"/><path fill-rule="evenodd" d="M4.6667 4 0 0h.6667l4.6666 3.3333h1.3334L12 0v.4951a.333.333 0 0 1-.1396.2713L7.3334 4v1.3333l4.2141 3.6121c.1554.1333.0612.388-.1435.388a.22.22 0 0 1-.1282-.0411L6.6667 6H5.3333L0 9.3333v-.6666l4.6667-3.3334z" clip-rule="evenodd"/></mask><path fill="#db1e36" fill-rule="evenodd" d="M4.6667 4 0 0h.6667l4.6666 3.3333h1.3334L12 0v.4951a.333.333 0 0 1-.1396.2713L7.3334 4v1.3333l4.2141 3.6121c.1554.1333.0612.388-.1435.388a.22.22 0 0 1-.1282-.0411L6.6667 6H5.3333L0 9.3333v-.6666l4.6667-3.3334z" clip-rule="evenodd"/><path stroke="#fff" d="M4.6667 4 0 0h.6667l4.6666 3.3333h1.3334L12 0v.4951a.333.333 0 0 1-.1396.2713L7.3334 4v1.3333l4.2141 3.6121c.1554.1333.0612.388-.1435.388a.22.22 0 0 1-.1282-.0411L6.6667 6H5.3333L0 9.3333v-.6666l4.6667-3.3334z" clip-rule="evenodd" mask="url(#d)"/><path fill="#fff" fill-rule="evenodd" d="M0 3.3333V6h4.6667v3.3333c0 .3682.2984.6667.6666.6667h1.3334a.6667.6667 0 0 0 .6666-.6667V6H12a.6667.6667 0 0 0 .6667-.6667V4A.6667.6667 0 0 0 12 3.3333H7.3333V0H4.6667v3.3333z" clip-rule="evenodd"/><path fill="url(#e)" fill-rule="evenodd" d="M0 4h5.3333V0h1.3334v4H12v1.3333H6.6667v4H5.3333v-4H0z" clip-rule="evenodd"/></g></g><g clip-path="url(#f)"><path fill="#fff" fill-rule="evenodd" d="M17.3333 10V6.6667h5.3334V10c0 2-2.6667 3.3334-2.6667 3.3334S17.3333 12 17.3333 10" clip-rule="evenodd"/><mask id="g" width="6" height="8" x="17" y="6" maskUnits="userSpaceOnUse" style="mask-type:luminance"><path fill="#fff" fill-rule="evenodd" d="M17.3333 10V6.6667h5.3334V10c0 2-2.6667 3.3334-2.6667 3.3334S17.3333 12 17.3333 10" clip-rule="evenodd"/></mask><g mask="url(#g)"><circle cx="20" cy="11" r="1" fill="#65b5d2"/><path fill="url(#h)" fill-rule="evenodd" d="M20.6667 8.6667a.6667.6667 0 1 1-1.3334 0 .6667.6667 0 0 1 1.3334 0M19.3333 10A.6666.6666 0 1 1 18 10a.6667.6667 0 0 1 1.3333 0m2 .6667a.6667.6667 0 1 0 0-1.3334.6667.6667 0 0 0 0 1.3334" clip-rule="evenodd"/><path fill="#2f8f22" d="M17.3333 12h5.3333v1.3333h-5.3333z"/></g></g></g><defs><linearGradient id="e" x1="0" x2="0" y1="0" y2="9" gradientUnits="userSpaceOnUse"><stop stop-color="#db1e36"/><stop offset="1" stop-color="#d51931"/></linearGradient><linearGradient id="h" x1="18" x2="18" y1="8" y2="11" gradientUnits="userSpaceOnUse"><stop stop-color="#e20b0c"/><stop offset="1" stop-color="#d40001"/></linearGradient><clipPath id="a"><path fill="#fff" d="M0 0h28v20H0z"/></clipPath><clipPath id="f"><path fill="#fff" d="M17.3333 6.6667h6v7h-6z"/></clipPath></defs></svg>