<svg xmlns="http://www.w3.org/2000/svg" width="28" height="20" fill="none" viewBox="0 0 28 20"><g clip-path="url(#a)"><path fill="#244aa5" d="M0 0h28v20H0z"/><path fill="#d0a650" d="M14.1465 6.4283c.1134.1323.1893.2645.1893.4253-.0952.047-.2267.0663-.3026.1513.4726-.0663.5667.4818 1.096.2738.0192.076.0951.1422.1893.1135l.0566-.151c.2075-.0566.1508.2834.3785.2172.1134.0946.0375.255.1134.3689 0 .132.0567.2454.1133.3587.0568-.0658.0942-.1604.2267-.132.0942.1037.1701.1983.1892.3117-.0384.2176-.095.4063.1317.5196v.0663c.1518.0663.4918-.0663.4918.1984-.0193.0946.0941.0096.1326.0663.0941-.038.2267-.0187.34-.0187.0942.1983-.1133.34-.17.5196.0941.0942.0567.2647.0375.3775l-.0568.0284c.1508.0283.3401-.0183.4727.0668l.2459.0941c.1133-.0658.245-.0759.3967-.0658.1134.0851-.0384.2267.0567.2925.1326 0 .246.0193.2642.1326l.0192.0375c.0941-.1701.3593-.0568.4726-.1792.1893 0 .2267.2075.3208.3209.0385.2934-.3208.4261-.2074.7185-.0759.1417-.2267.2551-.3401.3876.0375.0192.0182.0658.0182.0941-.1133.0669-.0182.2652-.17.2835-.0182.1234-.2449.0759-.17.2084.1518.1984-.0749.3209-.0749.501-.0952.1042-.2844-.0952-.2844.1042-.1134.0283-.2267-.1042-.3016.0092-.0384.1325.0749.1791.0567.3117.1883-.0193.2449.17.3208.2833l.1893.1893c-.1893.1508-.4352-.0193-.6619.0657-.0567-.0283 0-.1032-.0567-.1315-.0567-.0668-.17-.0668-.2642-.0851.0183.0851-.1518.1134-.0759.2166 0 .0283.0375.1134-.0374.1134-.1518.0475-.1326-.1316-.2652-.0658-.17.0658-.0374.3208-.2833.2925.0374.2277-.3775.3785-.0942.5769.0374.0374.0182.1133.0182.17-.17.1518-.4717.0951-.6609.0384-.1518-.0384-.0566-.2277-.1133-.3309-.0567-.0951-.2267-.1609-.2267-.2935-.1134-.0466-.2085-.0758-.2844-.17-.2641.255-.5859.5009-.9635.51-.17.0851-.2651.4262-.5293.2844-.1037.1701-.4159 0-.4347.245-.1229.0475-.0662.2084-.1416.2833-.0284.1893 0 .3502.1604.4636.0662.1416-.1417.1416-.0567.2742.0192.0466 0 .1134-.0283.1326-.0567.0283-.0754.0567-.0567.1134-.0471 0-.0663.0283-.1038.0657-.0475.0942-.1983.1417-.3026.2075-.1037.0283-.1796-.0466-.2454-.1133-.0192.1042-.1042.1609-.208.1609-.1513 0-.1229-.1326-.2363-.1893.0471-.17-.1042-.2449-.0567-.3967.1229-.0941.3305-.1609.2738-.3593-.1321-.1599-.085-.3967-.2171-.5859-.085-.0749-.2267-.1883-.1796-.3684.1229-.1417 0-.3117-.0663-.4625-.0283-.1235-.1037-.2368-.1037-.3785-.208-.1225-.2176-.4443-.5106-.4727-.208 0-.2454-.2641-.4534-.2459-.0192-.0374-.0663-.0658-.1042-.1032-.1508.1032-.3401-.0284-.5289.0182-.1229-.2075.1038-.4909-.2271-.6144v-.1315c.0379.0182.0566-.0193.0662-.0385.0188-.1417-.2363-.1599-.132-.3208-.0567-.0476-.123-.0668-.085-.1609-.1422-.2925-.5673-.2642-.662-.5577.076-.0657.076-.1325.1043-.1892-.0663-.1134-.085-.2358-.0663-.3583.0663-.0192.1038-.1042.1417-.171-.085-.0567-.1888-.1417-.2834-.1134-.17-.0283-.293-.1599-.4443-.2358-.038-.0374-.0187-.1042-.0187-.1508.208-.0668-.0283-.3598.2267-.3218.0663-.085.208-.1134.3118-.1796.1042-.0187.1892.0192.293.0476.085.1128.2363.0657.3213.1603.085-.0192.1892-.0663.293-.0192 0-.1604.0754-.255.1892-.3684.0187-.0658.1225-.1133.2075-.1508.1609.0375.3497.0375.4635-.0759.0754.0475.1417-.047.2267-.047.1037-.0193.1888.009.2647.0566.0091-.1892.34-.0283.4063-.255.0754-.1513-.2079-.208-.1892-.3406-.0471-.1513.0663-.2267.1229-.3304.0663-.0284.1417-.0663.2267-.0476.2176-.0754.0476-.5197.3972-.3588 0 .0471-.0192.1038.0092.1134.1229 0 .1418-.1418.2272-.1892.0374-.1321-.0476-.293.0658-.3968.0566-.0096.1042-.0283.1417-.0759 0-.1037-.0567-.1604-.1417-.2267-.0284.0473-.1038.0096-.1512.0284 0-.1134-.0659-.1888-.0852-.293-.0566-.0284-.085-.0754-.0658-.1417.0851-.085 0-.293.1984-.2458.0754-.066.208-.0189.2834-.1322.1984-.1134.463-.1134.6143-.3213.0663.0095.1417-.0567.208 0 .0187.1229.1984.0753.1984.189"/><path fill="#fff" d="m15.61 3.866-.261-.803-.258.803h-.845l.684.497-.261.803.681-.497.684.497-.261-.803.684-.497zm2.658.468-.261-.8-.258.8h-.845l.684.497-.261.803.681-.497.684.497-.261-.803.684-.497zm2.535.922-.258-.8-.261.8h-.845l.684.497-.261.803.684-.497.681.497-.261-.803.684-.497zm-7.893-1.39-.258-.803-.261.803h-.845l.684.497-.261.803.684-.497.681.497-.261-.803.684-.497zm-2.658.468-.258-.8-.261.8h-.845l.684.497-.261.803.684-.497.681.497-.261-.803.684-.497zm-2.536.922-.261-.8-.258.8h-.845l.684.497-.261.803.681-.497.684.497-.261-.803.684-.497z"/></g><defs><clipPath id="a"><rect width="28" height="20" fill="#fff" rx="2"/></clipPath></defs></svg>