<svg xmlns="http://www.w3.org/2000/svg" width="28" height="20" fill="none" viewBox="0 0 28 20"><g clip-path="url(#a)"><rect width="28" height="20" fill="#fff" rx="2"/><mask id="b" width="28" height="20" x="0" y="0" maskUnits="userSpaceOnUse" style="mask-type:luminance"><rect width="28" height="20" fill="#fff" rx="2"/></mask><g mask="url(#b)"><path fill="#e1244a" fill-rule="evenodd" d="M28 0H13.3333v1.3333H28zm0 2.6667H13.3333V4H28zM13.3333 5.3333H28v1.3334H13.3333zM28 8H13.3333v1.3333H28zM0 10.6667h28V12H0zm28 2.6666H0v1.3334h28zM0 16h28v1.3333H0zm28 2.6667H0V20h28z" clip-rule="evenodd"/><path fill="#0c3f8e" d="M0 0h16v10.6667H0z"/><path fill="#ffd34f" fill-rule="evenodd" d="M8 2c.4097 0 .8022.074 1.1648.2092a3.983 3.983 0 0 0-2.4981-.8759c-2.2092 0-4 1.7909-4 4s1.7908 4 4 4a3.983 3.983 0 0 0 2.4981-.8758A3.33 3.33 0 0 1 8 8.6667c-1.841 0-3.3333-1.4924-3.3333-3.3334S6.159 2 8 2m1.5096 5.736 1.1571-1.3093 1.157 1.3092-.3022-1.7209 1.745-.0883-1.5339-.8367 1.0189-1.4193-1.6105.6776-.4743-1.6816-.4744 1.6816-1.6105-.6776L9.6008 5.09l-1.534.8367 1.745.0883z" clip-rule="evenodd"/></g></g><defs><clipPath id="a"><path fill="#fff" d="M0 0h28v20H0z"/></clipPath></defs></svg>