<svg xmlns="http://www.w3.org/2000/svg" width="28" height="20" fill="none" viewBox="0 0 28 20"><g clip-path="url(#a)"><path fill="#fff" d="M0 2C0 .8954.8954 0 2 0h24c1.1046 0 2 .8954 2 2v16c0 1.1046-.8954 2-2 2H2c-1.1046 0-2-.8954-2-2z"/><mask id="b" width="28" height="20" x="0" y="0" maskUnits="userSpaceOnUse" style="mask-type:luminance"><rect width="28" height="20" fill="#fff" rx="2"/></mask><g mask="url(#b)"><path fill="#f5f5f5" d="M26 19.5v.5H2v-.5zm1.5-1.5V2c0-.8284-.6716-1.5-1.5-1.5H2C1.1716.5.5 1.1716.5 2v16c0 .8284.6716 1.5 1.5 1.5v.5c-1.1046 0-2-.8954-2-2V2C0 .8954.8954 0 2 0h24c1.1046 0 2 .8954 2 2v16c0 1.1046-.8954 2-2 2v-.5c.8284 0 1.5-.6716 1.5-1.5"/><path fill="#dd1c34" d="M28 9.3333v10.667H0l13.333-10-.8896-.667z"/><path fill="#0d4bc3" fill-rule="evenodd" d="M28 9.3333H12.4444L0 0h28z" clip-rule="evenodd"/><path fill="#fdd64d" fill-rule="evenodd" d="M2.6667 3.3333a.6667.6667 0 1 1-1.3334 0 .6667.6667 0 0 1 1.3334 0m8 6.6667a.6667.6667 0 1 1-1.3334 0 .6667.6667 0 0 1 1.3334 0M2 17.3333A.6666.6666 0 1 0 2 16a.6667.6667 0 0 0 0 1.3333m2.532-6.0067-1.141 1.753.4328-2.0464a1.35 1.35 0 0 1-.1903-.1903l-2.0464.4327 1.753-1.141a1.35 1.35 0 0 1 0-.2692l-1.753-1.141 2.0464.4327a1.34 1.34 0 0 1 .1903-.1903L3.391 6.9204l1.141 1.753a1.35 1.35 0 0 1 .2691 0l1.141-1.753-.4327 2.0464a1.34 1.34 0 0 1 .1903.1903l2.0465-.4327-1.753 1.141a1.35 1.35 0 0 1 0 .2692l1.753 1.141-2.0465-.4327a1.34 1.34 0 0 1-.1903.1903l.4328 2.0464-1.141-1.753a1.33 1.33 0 0 1-.2692 0" clip-rule="evenodd"/></g></g><defs><clipPath id="a"><path fill="#fff" d="M0 0h28v20H0z"/></clipPath></defs></svg>