<svg xmlns="http://www.w3.org/2000/svg" width="28" height="20" fill="none" viewBox="0 0 28 20"><g clip-path="url(#a)"><path fill="#fff" d="M0 2C0 .8954.8954 0 2 0h24c1.1046 0 2 .8954 2 2v16c0 1.1046-.8954 2-2 2H2c-1.1046 0-2-.8954-2-2z"/><mask id="b" width="28" height="20" x="0" y="0" maskUnits="userSpaceOnUse" style="mask-type:luminance"><rect width="28" height="20" fill="#fff" rx="2"/></mask><g mask="url(#b)"><path fill="#f5f5f5" d="M26 19.5v.5H2v-.5zm1.5-1.5V2c0-.8284-.6716-1.5-1.5-1.5H2C1.1716.5.5 1.1716.5 2v16c0 .8284.6716 1.5 1.5 1.5v.5c-1.1046 0-2-.8954-2-2V2C0 .8954.8954 0 2 0h24c1.1046 0 2 .8954 2 2v16c0 1.1046-.8954 2-2 2v-.5c.8284 0 1.5-.6716 1.5-1.5"/><path fill="#17508f" fill-rule="evenodd" d="M0 13.3333h28V6.6667H0z" clip-rule="evenodd"/><path fill="#e1444d" fill-rule="evenodd" d="M0 6.6667h28V0H0z" clip-rule="evenodd"/></g><g clip-path="url(#c)"><path fill="#fff" fill-rule="evenodd" d="M6 10c0-.645.3437-2.0822.5375-2.8414.0743-.291.3375-.492.6378-.492h2.9839c.2998 0 .5626.2001.6372.4905.1939.7549.5369 2.1831.5369 2.8429 0 .745-.5003 2.7008-.6341 3.2105a.57.57 0 0 1-.112.2225c-.2555.3096-1.088 1.2337-1.9205 1.2337-.833 0-1.666-.9253-1.921-1.2343a.57.57 0 0 1-.1117-.2211C6.5003 12.7052 6 10.7635 6 10" clip-rule="evenodd"/><mask id="d" width="6" height="9" x="6" y="6" maskUnits="userSpaceOnUse" style="mask-type:luminance"><path fill="#fff" fill-rule="evenodd" d="M6 10c0-.645.3437-2.0822.5375-2.8414.0743-.291.3375-.492.6378-.492h2.9839c.2998 0 .5626.2001.6372.4905.1939.7549.5369 2.1831.5369 2.8429 0 .745-.5003 2.7008-.6341 3.2105a.57.57 0 0 1-.112.2225c-.2555.3096-1.088 1.2337-1.9205 1.2337-.833 0-1.666-.9253-1.921-1.2343a.57.57 0 0 1-.1117-.2211C6.5003 12.7052 6 10.7635 6 10" clip-rule="evenodd"/></mask><g stroke="#e1444d" stroke-linecap="square" mask="url(#d)"><path d="M11.333 7.333 6 14m0-6.667L11.333 14"/></g></g></g><defs><clipPath id="a"><path fill="#fff" d="M0 0h28v20H0z"/></clipPath><clipPath id="c"><path fill="#fff" d="M5.3333 6.6667h6v8h-6z"/></clipPath></defs></svg>