<svg xmlns="http://www.w3.org/2000/svg" width="28" height="20" fill="none" viewBox="0 0 28 20"><g clip-path="url(#a)"><rect width="28" height="20" fill="#fff" rx="2"/><mask id="b" width="28" height="20" x="0" y="0" maskUnits="userSpaceOnUse" style="mask-type:luminance"><rect width="28" height="20" fill="#fff" rx="2"/></mask><g fill-rule="evenodd" clip-rule="evenodd" mask="url(#b)"><path fill="#262626" d="M0 5.3333h28V0H0z"/><path fill="#018301" d="M0 20h28v-5.3333H0z"/><path fill="#fff" d="M0 14.6667h28V5.3333H0z"/><path fill="#dc0808" d="M0 13.3333h28V6.6667H0z"/></g><g clip-path="url(#c)"><ellipse cx="14" cy="10" fill="#bc0000" rx="3" ry="7"/><mask id="d" width="8" height="14" x="10" y="3" maskUnits="userSpaceOnUse" style="mask-type:luminance"><ellipse cx="14" cy="10" fill="#fff" rx="3" ry="7"/></mask><g mask="url(#d)"><ellipse cx="9" cy="10" fill="#262626" rx="3" ry="7"/><ellipse cx="19" cy="10" fill="#262626" rx="3" ry="7"/><path fill="url(#e)" fill-rule="evenodd" d="M14.6666 5.3333C14.6666 6.8061 14.3682 8 14 8s-.6667-1.194-.6667-2.6667.2985-2.6666.6667-2.6666.6666 1.1939.6666 2.6666M14 12c-.3682 0-.6667-.8954-.6667-2S13.6318 8 14 8s.6666.8954.6666 2-.2984 2-.6666 2m0 0c.3682 0 .6666 1.1939.6666 2.6667 0 1.4727-.2984 2.6666-.6666 2.6666s-.6667-1.1939-.6667-2.6666c0-1.4728.2985-2.6667.6667-2.6667" clip-rule="evenodd"/></g></g></g><defs><clipPath id="a"><path fill="#fff" d="M0 0h28v20H0z"/></clipPath><clipPath id="c"><path fill="#fff" d="M10.6667 2.6667h7v14h-7z"/></clipPath><linearGradient id="e" x1="13" x2="13" y1="3" y2="17" gradientUnits="userSpaceOnUse"><stop stop-color="#fff"/><stop offset="1" stop-color="#f0f0f0"/></linearGradient></defs></svg>