<svg xmlns="http://www.w3.org/2000/svg" width="28" height="20" fill="none" viewBox="0 0 28 20"><g clip-path="url(#a)"><mask id="b" width="28" height="20" x="0" y="0" maskUnits="userSpaceOnUse" style="mask-type:luminance"><path fill="#fff" d="M0 2C0 .8954.8954 0 2 0h24c1.1046 0 2 .8954 2 2v16c0 1.1046-.8954 2-2 2H2c-1.1046 0-2-.8954-2-2z"/></mask><g mask="url(#b)"><path fill="#ee343c" d="M0 0h28v20H0z"/><path fill="#262626" fill-rule="evenodd" d="M12.3865 4.3864a.667.667 0 0 0-.8413-.0833l-.5894.393c-.4259.284-.3861.922.0717 1.151l1.2706.6353a.667.667 0 0 1 .3686.5963v.2546A.6667.6667 0 0 1 12 8h-.5093a.666.666 0 0 1-.2981-.0704l-2.0962-1.048a.667.667 0 0 0-.7695.1248l-.3395.3395c-.3218.3218-.2338.8642.1732 1.0677l.944.472c.399.1995.4336.7556.0624 1.003-.4306.2871-.2992.9516.2083 1.0531l.562.1124c.5395.1079.6973.8033.2571 1.1334l-.5031.3773c-.3283.2462-.1541.7685.2561.7685a.43.43 0 0 0 .1036-.0127l1.2618-.3155c.4784-.1196.8533.4124.5797.8227-.239.3586.018.8388.449.8388h.5834a.567.567 0 0 1 .5376.3875c.1722.5165.9028.5165 1.075 0a.567.567 0 0 1 .5375-.3875h.5835c.431 0 .688-.4802.4489-.8388-.2735-.4103.1014-.9423.5798-.8227l1.2618.3155a.43.43 0 0 0 .1035.0127c.4103 0 .5844-.5223.2562-.7685l-.5031-.3773c-.4402-.3301-.2824-1.0255.2571-1.1334l.5619-.1124c.5076-.1015.639-.766.2084-1.053-.3712-.2475-.3366-.8036.0624-1.0031l.944-.472c.407-.2035.495-.7459.1732-1.0677l-.3395-.3395a.667.667 0 0 0-.7696-.1249l-2.0961 1.048A.666.666 0 0 1 16.5093 8H16a.6667.6667 0 0 1-.6667-.6667v-.2546a.667.667 0 0 1 .3685-.5963l1.2709-.6355c.4579-.2289.4974-.8669.0714-1.1508l-.5894-.393a.667.667 0 0 0-.8412.0833l-1.1421 1.1422a.6667.6667 0 0 1-.9428 0z" clip-rule="evenodd"/></g></g><defs><clipPath id="a"><path fill="#fff" d="M0 0h28v20H0z"/></clipPath></defs></svg>