<svg xmlns="http://www.w3.org/2000/svg" width="28" height="20" fill="none" viewBox="0 0 28 20"><g clip-path="url(#a)"><path fill="#fff" d="M0 2C0 .8954.8954 0 2 0h24c1.1046 0 2 .8954 2 2v16c0 1.1046-.8954 2-2 2H2c-1.1046 0-2-.8954-2-2z"/><mask id="b" width="28" height="20" x="0" y="0" maskUnits="userSpaceOnUse" style="mask-type:luminance"><rect width="28" height="20" fill="#fff" rx="2"/></mask><g mask="url(#b)"><path fill="#f5f5f5" d="M26 19.5v.5H2v-.5zm1.5-1.5V2c0-.8284-.6716-1.5-1.5-1.5H2C1.1716.5.5 1.1716.5 2v16c0 .8284.6716 1.5 1.5 1.5v.5c-1.1046 0-2-.8954-2-2V2C0 .8954.8954 0 2 0h24c1.1046 0 2 .8954 2 2v16c0 1.1046-.8954 2-2 2v-.5c.8284 0 1.5-.6716 1.5-1.5"/><path fill="#e34f4f" fill-rule="evenodd" d="M0 20h28v-6.667H0zm9.333-6.667h8V8h-8z" clip-rule="evenodd"/><path fill="#181a1a" fill-rule="evenodd" d="M10.667 13.333H12V12h-1.333zm4 0H16V12h-1.333zM9.333 8h1.333V6.667H9.333zm4 0h1.333V6.667h-1.333zM12 8h1.333V6.667H12zm4 0h1.333V6.667H16z" clip-rule="evenodd"/><path fill="#e34f4f" fill-rule="evenodd" d="M9.333 6.667h1.333V5.333H9.333zm4 0h1.333V5.333h-1.333zm-1.333 0h1.333V5.333H12zm4 0h1.333V5.333H16z" clip-rule="evenodd"/></g></g><defs><clipPath id="a"><path fill="#fff" d="M0 0h28v20H0z"/></clipPath></defs></svg>