<svg xmlns="http://www.w3.org/2000/svg" width="28" height="20" fill="none" viewBox="0 0 28 20"><g clip-path="url(#a)"><path fill="#fff" d="M0 2C0 .8954.8954 0 2 0h24c1.1046 0 2 .8954 2 2v16c0 1.1046-.8954 2-2 2H2c-1.1046 0-2-.8954-2-2z"/><mask id="b" width="28" height="20" x="0" y="0" maskUnits="userSpaceOnUse" style="mask-type:luminance"><rect width="28" height="20" fill="#fff" rx="2"/></mask><g mask="url(#b)"><path fill="#f5f5f5" d="M26 19.5v.5H2v-.5zm1.5-1.5V2c0-.8284-.6716-1.5-1.5-1.5H2C1.1716.5.5 1.1716.5 2v16c0 .8284.6716 1.5 1.5 1.5v.5c-1.1046 0-2-.8954-2-2V2C0 .8954.8954 0 2 0h24c1.1046 0 2 .8954 2 2v16c0 1.1046-.8954 2-2 2v-.5c.8284 0 1.5-.6716 1.5-1.5"/><path fill="#e3243b" d="m-6.3115-2.5828 1.5296-2.1844 40.4114 28.2964L34.1 25.7136z"/><path fill="#e3243b" d="m35.6295-2.5828-1.5296-2.1844-40.4114 28.2964 1.5295 2.1844z"/></g><g clip-path="url(#c)"><path fill="#faef32" fill-rule="evenodd" d="M15.7408 2.6667h-2.1482l.0873-.0512-.9868-.5699 1.2758.1425-.1794-.8548.8772.7123.8771-.7123-.1793.8548 1.2758-.1425-.9868.5699z" clip-rule="evenodd"/><path fill="#e3243b" fill-rule="evenodd" d="M12.6667 5.1667V3.9999c0-.7363.5969-1.3332 1.3333-1.3332h1.3333c.7364 0 1.3334.5968 1.3334 1.3332v1.1668c0 1.7857-2 2.5-2 2.5s-2-.7143-2-2.5" clip-rule="evenodd"/><mask id="d" width="5" height="6" x="12" y="2" maskUnits="userSpaceOnUse" style="mask-type:luminance"><path fill="#fff" fill-rule="evenodd" d="M12.6667 5.1667V3.9999c0-.7363.5969-1.3332 1.3333-1.3332h1.3333c.7364 0 1.3334.5968 1.3334 1.3332v1.1668c0 1.7857-2 2.5-2 2.5s-2-.7143-2-2.5" clip-rule="evenodd"/></mask><g fill="#faef32" mask="url(#d)"><rect width="1" height="1" x="14" y="7" rx="0"/><rect width="3" height="1" x="13" y="5" rx="0"/><rect width="3" height="1" x="13" y="4" rx="0"/></g></g></g><defs><clipPath id="a"><path fill="#fff" d="M0 0h28v20H0z"/></clipPath><clipPath id="c"><path fill="#fff" d="M12 1.3333h5.3333V8H12z"/></clipPath></defs></svg>