<svg xmlns="http://www.w3.org/2000/svg" width="28" height="20" fill="none" viewBox="0 0 28 20"><g clip-path="url(#a)"><rect width="28" height="20" fill="#fff" rx="2"/><mask id="b" width="28" height="20" x="0" y="0" maskUnits="userSpaceOnUse" style="mask-type:luminance"><rect width="28" height="20" fill="#fff" rx="2"/></mask><g fill-rule="evenodd" clip-rule="evenodd" mask="url(#b)"><path fill="#1461b6" d="M0 4h28V0H0zm0 16h28v-4H0z"/><path fill="#fff" d="M0 16h28V4H0z"/><path fill="#f53846" d="M0 14.6667h28V5.3333H0z"/><path fill="#fff" d="M10 13.3333c1.8409 0 3.3333-1.4924 3.3333-3.3333S11.8409 6.6667 10 6.6667 6.6667 8.159 6.6667 10 8.159 13.3333 10 13.3333m-1.9593-.6366L10 11.3376l1.9593 1.3591-.6872-2.2834 1.8981-1.4434-2.384-.052L10 6.6667l-.7862 2.2512-2.384.052 1.898 1.4434z"/></g></g><defs><clipPath id="a"><path fill="#fff" d="M0 0h28v20H0z"/></clipPath></defs></svg>