<svg xmlns="http://www.w3.org/2000/svg" width="28" height="20" fill="none" viewBox="0 0 28 20"><g clip-path="url(#a)"><rect width="28" height="20" fill="#fff" rx="2"/><mask id="b" width="28" height="20" x="0" y="0" maskUnits="userSpaceOnUse" style="mask-type:luminance"><rect width="28" height="20" fill="#fff" rx="2"/></mask><g mask="url(#b)"><path fill="#29c53f" fill-rule="evenodd" d="M28 0v10H0V0z" clip-rule="evenodd"/><path fill="#579ded" fill-rule="evenodd" d="M28 10v10.6667H0V10z" clip-rule="evenodd"/><path fill="#f42d56" fill-rule="evenodd" d="m0 20 28-10L0 0z" clip-rule="evenodd"/><path fill="#ffc63c" d="M12 10.0003c0-1.8408-1.4922-3.3338-3.333-3.334-1.841 0-3.334 1.493-3.334 3.334.0002 1.8408 1.4932 3.333 3.334 3.333v1.3331l-.2402-.0059c-2.3862-.1208-4.2998-2.0339-4.421-4.4199L4 10.0003c0-2.5773 2.0897-4.667 4.667-4.667l.2402.0059c2.4656.1252 4.4258 2.1645 4.4258 4.6611l-.0059.2403c-.1251 2.4654-2.1636 4.4256-4.6601 4.4258v-1.3331c1.8407-.0001 3.3328-1.4923 3.333-3.333"/><circle cx="8" cy="9" r="1" fill="#ffc63c"/><circle cx="9" cy="9" r="1" fill="#ffc63c"/><circle cx="9" cy="8" r="1" fill="#ffc63c"/><circle cx="8" cy="10" r="1" fill="#ffc63c"/><circle cx="9" cy="11" r="1" fill="#ffc63c"/><circle cx="8" cy="11" r="1" fill="#ffc63c"/><circle cx="9" cy="12" r="1" fill="#ffc63c"/></g></g><defs><clipPath id="a"><path fill="#fff" d="M0 0h28v20H0z"/></clipPath></defs></svg>