<svg width="28" height="20" viewBox="0 0 28 20" fill="none" xmlns="http://www.w3.org/2000/svg">
<g clip-path="url(#clip0_5138_1448)">
<path d="M0 2C0 0.895431 0.895431 0 2 0H26C27.1046 0 28 0.895431 28 2V18C28 19.1046 27.1046 20 26 20H2C0.895431 20 0 19.1046 0 18V2Z" fill="white"/>
<mask id="mask0_5138_1448" style="mask-type:luminance" maskUnits="userSpaceOnUse" x="0" y="0" width="28" height="20">
<rect width="28" height="20" rx="2" fill="white"/>
</mask>
<g mask="url(#mask0_5138_1448)">
<path d="M26 19.5V20H2V19.5H26ZM27.5 18V2C27.5 1.17157 26.8284 0.5 26 0.5H2C1.17157 0.5 0.5 1.17157 0.5 2V18C0.5 18.8284 1.17157 19.5 2 19.5V20C0.895431 20 0 19.1046 0 18V2C2.57702e-07 0.895431 0.895431 0 2 0H26C27.1046 0 28 0.895431 28 2V18C28 19.1046 27.1046 20 26 20V19.5C26.8284 19.5 27.5 18.8284 27.5 18Z" fill="#F5F5F5"/>
<path fill-rule="evenodd" clip-rule="evenodd" d="M14.6667 20H28V0H14.6667V20Z" fill="#DE233C"/>
<mask id="path-5-outside-1_5138_1448" maskUnits="userSpaceOnUse" x="1.66667" y="1.66667" width="6" height="6" fill="black">
<rect fill="white" x="1.66667" y="1.66667" width="6" height="6"/>
<path d="M5.33366 3.99967H6.66667V5.33366H5.33366V6.66667H3.99968V5.33366H2.66667V3.99967H3.99968V2.66667H5.33366V3.99967Z"/>
</mask>
<path d="M5.33366 3.99967H6.66667V5.33366H5.33366V6.66667H3.99968V5.33366H2.66667V3.99967H3.99968V2.66667H5.33366V3.99967Z" fill="#CCCCCD"/>
<path d="M5.33366 3.99967H4.66699V4.66634H5.33366V3.99967ZM6.66667 3.99967H7.33333V3.33301H6.66667V3.99967ZM6.66667 5.33366V6.00033H7.33333V5.33366H6.66667ZM5.33366 5.33366V4.66699H4.66699V5.33366H5.33366ZM5.33366 6.66667V7.33333H6.00033V6.66667H5.33366ZM3.99968 6.66667H3.33301V7.33333H3.99968V6.66667ZM3.99968 5.33366H4.66634V4.66699H3.99968V5.33366ZM2.66667 5.33366H2V6.00033H2.66667V5.33366ZM2.66667 3.99967V3.33301H2V3.99967H2.66667ZM3.99968 3.99967V4.66634H4.66634V3.99967H3.99968ZM3.99968 2.66667V2H3.33301V2.66667H3.99968ZM5.33366 2.66667H6.00033V2H5.33366V2.66667ZM5.33366 3.99967V4.66634H6.66667V3.99967V3.33301H5.33366V3.99967ZM6.66667 3.99967H6V5.33366H6.66667H7.33333V3.99967H6.66667ZM6.66667 5.33366V4.66699H5.33366V5.33366V6.00033H6.66667V5.33366ZM5.33366 5.33366H4.66699V6.66667H5.33366H6.00033V5.33366H5.33366ZM5.33366 6.66667V6H3.99968V6.66667V7.33333H5.33366V6.66667ZM3.99968 6.66667H4.66634V5.33366H3.99968H3.33301V6.66667H3.99968ZM3.99968 5.33366V4.66699H2.66667V5.33366V6.00033H3.99968V5.33366ZM2.66667 5.33366H3.33333V3.99967H2.66667H2V5.33366H2.66667ZM2.66667 3.99967V4.66634H3.99968V3.99967V3.33301H2.66667V3.99967ZM3.99968 3.99967H4.66634V2.66667H3.99968H3.33301V3.99967H3.99968ZM3.99968 2.66667V3.33333H5.33366V2.66667V2H3.99968V2.66667ZM5.33366 2.66667H4.66699V3.99967H5.33366H6.00033V2.66667H5.33366Z" fill="#7B716A" fill-opacity="0.66" mask="url(#path-5-outside-1_5138_1448)"/>
<circle cx="4.66667" cy="4.66667" r="0.666667" fill="#7B716A"/>
</g>
</g>
<defs>
<clipPath id="clip0_5138_1448">
<rect width="28" height="20" fill="white"/>
</clipPath>
</defs>
</svg>
