<svg xmlns="http://www.w3.org/2000/svg" width="28" height="20" fill="none" viewBox="0 0 28 20"><g clip-path="url(#a)"><rect width="28" height="20" fill="#fff" rx="2"/><mask id="b" width="28" height="20" x="0" y="0" maskUnits="userSpaceOnUse" style="mask-type:luminance"><rect width="28" height="20" fill="#fff" rx="2"/></mask><g fill-rule="evenodd" clip-rule="evenodd" mask="url(#b)"><path fill="#0c4799" d="M0 13.3333 28 0H0z"/><path fill="#ffd243" d="M4.6667 6 3.6462 7.1304l.0777-1.521-1.521.0778 1.1304-1.0205L2.203 3.6462l1.5209.0777-.0777-1.521 1.0205 1.1304L5.6872 2.203l-.0777 1.5209 1.5209-.0777L6 4.6667l1.1304 1.0205-1.521-.0777.0778 1.5209z"/><path fill="#1bac55" d="M0 20h28V6.6667z"/><path fill="#fff" d="M3.0824 22.6667 30.1707 5.74l-5.2531-8.4067L-2.1707 14.26z"/><path fill="#e52347" d="M-.6292 23.0719 32.162 2.5817l-3.5328-5.6536L-4.162 17.4183z"/></g></g><defs><clipPath id="a"><path fill="#fff" d="M0 0h28v20H0z"/></clipPath></defs></svg>