<svg xmlns="http://www.w3.org/2000/svg" width="28" height="20" fill="none" viewBox="0 0 28 20"><g clip-path="url(#a)"><path fill="#fff" d="M0 2C0 .8954.8954 0 2 0h24c1.1046 0 2 .8954 2 2v16c0 1.1046-.8954 2-2 2H2c-1.1046 0-2-.8954-2-2z"/><mask id="b" width="28" height="20" x="0" y="0" maskUnits="userSpaceOnUse" style="mask-type:luminance"><rect width="28" height="20" fill="#fff" rx="2"/></mask><g mask="url(#b)"><path fill="#f5f5f5" d="M26 19.5v.5H2v-.5zm1.5-1.5V2c0-.8284-.6716-1.5-1.5-1.5H2C1.1716.5.5 1.1716.5 2v16c0 .8284.6716 1.5 1.5 1.5v.5c-1.1046 0-2-.8954-2-2V2C0 .8954.8954 0 2 0h24c1.1046 0 2 .8954 2 2v16c0 1.1046-.8954 2-2 2v-.5c.8284 0 1.5-.6716 1.5-1.5"/><path fill="#f03340" fill-rule="evenodd" d="M0 5.333h28V0H0zM0 20h28v-5.333H0z" clip-rule="evenodd"/><path fill="#1fc065" fill-rule="evenodd" d="M12.9428 12.3905a.552.552 0 0 0 0-.781l-.0767-.0767a.498.498 0 0 0-.473-.1311l-.3793.0949c-.4437.1109-.719-.4677-.3532-.7421l.3427-.257c.2125-.1594.0998-.4975-.1658-.4975-.2917 0-.3845-.3932-.1236-.5236l.5722-.2861c.2609-.1305.1681-.5236-.1236-.5236-.2656 0-.3783-.3382-.1658-.4975L13.6 6.9667a.667.667 0 0 1 .8 0l1.6033 1.2025c.2125.1593.0998.4975-.1658.4975-.2917 0-.3845.3931-.1236.5236l.5722.286c.2609.1305.1681.5237-.1236.5237-.2656 0-.3783.3381-.1658.4975l.3427.257c.3658.2744.0905.853-.3532.7421l-.3793-.0949a.498.498 0 0 0-.473.1311l-.0767.0767a.552.552 0 0 0 0 .781c.3479.3479.1015.9428-.3905.9428h-1.3334c-.492 0-.7384-.5949-.3905-.9428" clip-rule="evenodd"/></g></g><defs><clipPath id="a"><path fill="#fff" d="M0 0h28v20H0z"/></clipPath></defs></svg>