<svg xmlns="http://www.w3.org/2000/svg" width="28" height="20" fill="none" viewBox="0 0 28 20"><g clip-path="url(#a)"><rect width="28" height="20" fill="#fff" rx="2"/><mask id="b" width="28" height="20" x="0" y="0" maskUnits="userSpaceOnUse" style="mask-type:luminance"><rect width="28" height="20" fill="#fff" rx="2"/></mask><g mask="url(#b)"><path fill="#19bfbf" d="M0 0h28v20H0z"/><path fill="#fff" fill-rule="evenodd" d="M21.3333 10c0 4.0501-3.2832 7.3334-7.3333 7.3334S6.6667 14.0501 6.6667 10c0-4.05 3.2832-7.3333 7.3333-7.3333S21.3333 5.9499 21.3333 10m-1.3699.6667c-.2476 2.2392-1.7273 4.107-3.7461 4.9103.6501-1.324 1.0299-3.0489 1.103-4.9103zm-3.9778 0c-.0973 2.249-.6845 4.2367-1.6001 5.3211a6.1 6.1 0 0 1-.771 0c-.9156-1.0844-1.5028-3.0721-1.6002-5.3211zm-5.3059 0c.0731 1.8614.4529 3.5863 1.103 4.9103-2.0189-.8033-3.4986-2.6711-3.746-4.9103zm1.3346-1.3334h3.9713c-.0973-2.249-.6845-4.2367-1.6001-5.321a6.1 6.1 0 0 0-.771 0c-.9156 1.0843-1.5028 3.072-1.6002 5.321m-.2316-4.9103c-.6501 1.324-1.0299 3.049-1.103 4.9103h-2.643c.2474-2.2391 1.7272-4.107 3.746-4.9103m8.1807 4.9103h-2.6431c-.0731-1.8613-.4529-3.5862-1.103-4.9103 2.0188.8034 3.4985 2.6712 3.7461 4.9103" clip-rule="evenodd"/></g></g><defs><clipPath id="a"><path fill="#fff" d="M0 0h28v20H0z"/></clipPath></defs></svg>