<svg xmlns="http://www.w3.org/2000/svg" width="28" height="20" fill="none" viewBox="0 0 28 20"><g clip-path="url(#a)"><rect width="28" height="20" fill="#fff" rx="2"/><mask id="b" width="28" height="20" x="0" y="0" maskUnits="userSpaceOnUse" style="mask-type:luminance"><rect width="28" height="20" fill="#fff" rx="2"/></mask><g mask="url(#b)"><path fill="#e42235" d="M0 0h28v20H0z"/></g><g clip-path="url(#c)"><path fill="#079b77" d="M2.6667 2.6667h22.6667v14.6667H2.6667z"/><mask id="d" width="24" height="16" x="2" y="2" maskUnits="userSpaceOnUse" style="mask-type:luminance"><path fill="#fff" d="M2.6667 2.6667h22.6667v14.6667H2.6667z"/></mask><g mask="url(#d)"><path fill="#ffd938" fill-rule="evenodd" d="M4.3932 10.1318c.3775.6041.9194 1.0029 1.4242 1.1052.278.0564-.2309-1.2181-.0091-1.3567.1892-.1182 1.0994.9417 1.1791.7205.1834-.5087.0752-1.2292-.3328-1.8821-.5853-.9368-.6082-.3185-2.1905-.9896.1654.9597-.6563 1.466-.071 2.4027" clip-rule="evenodd"/><path fill="#ffd93b" fill-rule="evenodd" d="m14 10 11.3333-7.3333H2.6667zm0 0L2.6667 17.3333h22.6666z" clip-rule="evenodd"/><circle cx="14" cy="10" r="3" fill="url(#e)"/><path fill="#ffd938" fill-rule="evenodd" d="m14 11.0284-1.5674 1.129.5893-1.8396-1.558-1.1419 1.9316-.008L14 7.3334l.6045 1.8347 1.9317.008-1.5581 1.1418.5893 1.8396z" clip-rule="evenodd"/></g></g></g><defs><clipPath id="a"><path fill="#fff" d="M0 0h28v20H0z"/></clipPath><clipPath id="c"><path fill="#fff" d="M2.6667 2.6667h23v15h-23z"/></clipPath><linearGradient id="e" x1="11" x2="11" y1="7" y2="13" gradientUnits="userSpaceOnUse"><stop stop-color="#e21c30"/><stop offset="1" stop-color="#ce1225"/></linearGradient></defs></svg>