<svg width="28" height="20" viewBox="0 0 28 20" fill="none" xmlns="http://www.w3.org/2000/svg">
<g clip-path="url(#clip0_5138_936)">
<path d="M0 2C0 0.895431 0.895431 0 2 0H26C27.1046 0 28 0.895431 28 2V18C28 19.1046 27.1046 20 26 20H2C0.895431 20 0 19.1046 0 18V2Z" fill="white"/>
<mask id="mask0_5138_936" style="mask-type:luminance" maskUnits="userSpaceOnUse" x="0" y="0" width="28" height="20">
<rect width="28" height="20" rx="2" fill="white"/>
</mask>
<g mask="url(#mask0_5138_936)">
<path d="M26 19.5V20H2V19.5H26ZM27.5 18V2C27.5 1.17157 26.8284 0.5 26 0.5H2C1.17157 0.5 0.5 1.17157 0.5 2V18C0.5 18.8284 1.17157 19.5 2 19.5V20C0.895431 20 0 19.1046 0 18V2C2.57702e-07 0.895431 0.895431 0 2 0H26C27.1046 0 28 0.895431 28 2V18C28 19.1046 27.1046 20 26 20V19.5C26.8284 19.5 27.5 18.8284 27.5 18Z" fill="#F5F5F5"/>
<path fill-rule="evenodd" clip-rule="evenodd" d="M0 20H28V13.3333H0V20Z" fill="#E34F4F"/>
<path fill-rule="evenodd" clip-rule="evenodd" d="M9.33333 13.3333H17.3333V8H9.33333V13.3333Z" fill="#E34F4F"/>
<path fill-rule="evenodd" clip-rule="evenodd" d="M10.6667 13.3333H12V12H10.6667V13.3333Z" fill="#181A1A"/>
<path fill-rule="evenodd" clip-rule="evenodd" d="M14.6667 13.3333H16V12H14.6667V13.3333Z" fill="#181A1A"/>
<path fill-rule="evenodd" clip-rule="evenodd" d="M9.33333 7.99999H10.6667V6.66666H9.33333V7.99999Z" fill="#181A1A"/>
<path fill-rule="evenodd" clip-rule="evenodd" d="M13.3333 7.99999H14.6667V6.66666H13.3333V7.99999Z" fill="#181A1A"/>
<path fill-rule="evenodd" clip-rule="evenodd" d="M12 7.99999H13.3333V6.66666H12V7.99999Z" fill="#181A1A"/>
<path fill-rule="evenodd" clip-rule="evenodd" d="M16 7.99999H17.3333V6.66666H16V7.99999Z" fill="#181A1A"/>
<path fill-rule="evenodd" clip-rule="evenodd" d="M9.33333 6.66668H10.6667V5.33334H9.33333V6.66668Z" fill="#E34F4F"/>
<path fill-rule="evenodd" clip-rule="evenodd" d="M13.3333 6.66668H14.6667V5.33334H13.3333V6.66668Z" fill="#E34F4F"/>
<path fill-rule="evenodd" clip-rule="evenodd" d="M12 6.66668H13.3333V5.33334H12V6.66668Z" fill="#E34F4F"/>
<path fill-rule="evenodd" clip-rule="evenodd" d="M16 6.66668H17.3333V5.33334H16V6.66668Z" fill="#E34F4F"/>
</g>
</g>
<defs>
<clipPath id="clip0_5138_936">
<rect width="28" height="20" fill="white"/>
</clipPath>
</defs>
</svg>
