<svg xmlns="http://www.w3.org/2000/svg" width="28" height="20" fill="none" viewBox="0 0 28 20"><g clip-path="url(#a)"><rect width="28" height="20" fill="#fff" rx="2"/><mask id="b" width="28" height="20" x="0" y="0" maskUnits="userSpaceOnUse" style="mask-type:luminance"><rect width="28" height="20" fill="#fff" rx="2"/></mask><g fill-rule="evenodd" clip-rule="evenodd" mask="url(#b)"><path fill="#0f3eb6" d="M0 5.333h28V0H0zM0 20h28v-5.333H0z"/><path fill="#ed1a3c" d="M0 14.6667h28V5.3333H0z"/><path fill="#fff" d="M12 8.7272h1.3333V8a.6667.6667 0 0 1 1.3334 0v.7272H16V10h-4zM17.3333 8a.6666.6666 0 0 0-.6666.6667V10H18V8.6667A.6667.6667 0 0 0 17.3333 8m-6 5.3333v-2.6666H10l-1.3333 2.6666zM16 10.6667h-4v2.6666h4zm.6667 0H18l1.3333 2.6666h-2.6666zm-6-2.6667A.6667.6667 0 0 0 10 8.6667V10h1.3333V8.6667A.6666.6666 0 0 0 10.6667 8"/></g></g><defs><clipPath id="a"><path fill="#fff" d="M0 0h28v20H0z"/></clipPath></defs></svg>