<svg xmlns="http://www.w3.org/2000/svg" width="28" height="20" fill="none" viewBox="0 0 28 20"><g clip-path="url(#a)"><rect width="28" height="20" fill="#fff" rx="2"/><mask id="b" width="28" height="20" x="0" y="0" maskUnits="userSpaceOnUse" style="mask-type:luminance"><rect width="28" height="20" fill="#fff" rx="2"/></mask><g fill-rule="evenodd" clip-rule="evenodd" mask="url(#b)"><path fill="#146bbc" d="M9.3333 20h9.3334V0H9.3333z"/><path fill="#e43642" d="M0 20h9.333V0H0zm18.667 0H28V0h-9.333z"/><path fill="url(#c)" d="m4.6667 10 .6666.6667H4zm0 2a.6667.6667 0 1 1 0-1.3334.6667.6667 0 0 1 0 1.3334m.6666 0H2.6667v4H4v-1.3333L4.6667 16l.6666-1.3333V16h1.3334v-4zm-.6666 1.3333L5.3333 12v2a.6667.6667 0 0 0-.6666-.6667M4 14v-2l.6667 1.3333A.6667.6667 0 0 0 4 14m.6667.6667H4V14c0 .3682.2985.6667.6667.6667m0 0h.6666V14a.6667.6667 0 0 1-.6666.6667"/></g></g><defs><linearGradient id="c" x1="3" x2="3" y1="10" y2="16" gradientUnits="userSpaceOnUse"><stop stop-color="#f8d246"/><stop offset="1" stop-color="#f9ce2f"/></linearGradient><clipPath id="a"><path fill="#fff" d="M0 0h28v20H0z"/></clipPath></defs></svg>