<svg xmlns="http://www.w3.org/2000/svg" width="28" height="20" fill="none" viewBox="0 0 28 20"><g clip-path="url(#a)"><path fill="#fff" d="M0 2C0 .8954.8954 0 2 0h24c1.1046 0 2 .8954 2 2v16c0 1.1046-.8954 2-2 2H2c-1.1046 0-2-.8954-2-2z"/><mask id="b" width="28" height="20" x="0" y="0" maskUnits="userSpaceOnUse" style="mask-type:luminance"><path fill="#fff" d="M0 2C0 .8954.8954 0 2 0h24c1.1046 0 2 .8954 2 2v16c0 1.1046-.8954 2-2 2H2c-1.1046 0-2-.8954-2-2z"/></mask><g mask="url(#b)"><path fill="#f5f5f5" d="M26 19.5v.5H2v-.5zm1.5-1.5V2c0-.8284-.6716-1.5-1.5-1.5H2C1.1716.5.5 1.1716.5 2v16c0 .8284.6716 1.5 1.5 1.5v.5c-1.1046 0-2-.8954-2-2V2C0 .8954.8954 0 2 0h24c1.1046 0 2 .8954 2 2v16c0 1.1046-.8954 2-2 2v-.5c.8284 0 1.5-.6716 1.5-1.5"/><path fill="#d6182d" d="M10.6667 0h6.6667v20h-6.6667z"/><path fill="#1425a2" d="M0 6.6667h28v6.6667H0z"/><path fill="#fff" fill-rule="evenodd" d="m11.333 11.667-.471.138.138-.471-.138-.471.471.138.471-.138-.138.472.138.471zm5.334 0-.471.138.138-.471-.138-.471.471.138.471-.138-.138.472.138.471zm-8-1.334-.471.138.138-.471-.138-.471.471.138.471-.138L9 10l.138.471zm10.666 0-.471.138L19 10l-.138-.471.471.138.471-.138-.138.471.138.471zM14 9l-.471.138.138-.471-.138-.471.471.138.471-.138-.138.471.138.471z" clip-rule="evenodd"/></g></g><defs><clipPath id="a"><path fill="#fff" d="M0 0h28v20H0z"/></clipPath></defs></svg>