<svg xmlns="http://www.w3.org/2000/svg" width="28" height="20" fill="none" viewBox="0 0 28 20"><g clip-path="url(#a)"><rect width="28" height="20" fill="#fff" rx="2"/><mask id="b" width="28" height="20" x="0" y="0" maskUnits="userSpaceOnUse" style="mask-type:luminance"><rect width="28" height="20" fill="#fff" rx="2"/></mask><g mask="url(#b)"><path fill="#1dc837" fill-rule="evenodd" d="M0 20h28V9.3333H0z" clip-rule="evenodd"/><path fill="#82c5f5" fill-rule="evenodd" d="M0 9.3333h28V0H0z" clip-rule="evenodd"/><path fill="#fff" fill-rule="evenodd" d="m0 0 13.3333 10L0 20z" clip-rule="evenodd"/><path fill="#f5f5f5" d="M1.084.8135C.7292 1.0878.5 1.5168.5 2v16c0 .483.2294.9112.584 1.1855l-.4102.3086C.2614 19.1278 0 18.5951 0 18V2C0 1.4047.261.8713.6738.5049z"/><path fill="#e21c21" fill-rule="evenodd" d="m4.6667 11.3-1.9593 1.3967.7229-2.295-1.9338-1.4318 2.406-.0216.7642-2.2816.7641 2.2816 2.406.0216-1.9337 1.4318.7229 2.295z" clip-rule="evenodd"/></g></g><defs><clipPath id="a"><path fill="#fff" d="M0 0h28v20H0z"/></clipPath></defs></svg>