<svg xmlns="http://www.w3.org/2000/svg" width="28" height="20" fill="none" viewBox="0 0 28 20"><g clip-path="url(#a)"><rect width="28" height="20" fill="#fff" rx="2"/><mask id="b" width="28" height="20" x="0" y="0" maskUnits="userSpaceOnUse" style="mask-type:luminance"><rect width="28" height="20" fill="#fff" rx="2"/></mask><g mask="url(#b)"><path fill="#e92434" d="M0 0h28v20H0z"/><path fill="#fff" fill-rule="evenodd" d="M14 16c3.3137 0 6-2.6863 6-6s-2.6863-6-6-6-6 2.6863-6 6 2.6863 6 6 6m0-1.3333a4.65 4.65 0 0 0 1.7374-.3342 3 3 0 0 1-.0707.0008C13.6416 14.3333 12 12.3932 12 10s1.6416-4.3333 3.6667-4.3333q.0354 0 .0707.0008A4.65 4.65 0 0 0 14 5.3333c-2.5773 0-4.6667 2.0894-4.6667 4.6667S11.4227 14.6667 14 14.6667m1.1294-2.0116 1.2248-1.485 1.8032.6736-1.0338-1.6237 1.1979-1.5068-1.8638.4814-1.0629-1.6049-.118 1.9213-1.8548.515 1.7908.706z" clip-rule="evenodd"/></g></g><defs><clipPath id="a"><path fill="#fff" d="M0 0h28v20H0z"/></clipPath></defs></svg>