<svg width="28" height="20" viewBox="0 0 28 20" fill="none" xmlns="http://www.w3.org/2000/svg">
<g clip-path="url(#clip0_5138_2288)">
<rect width="28" height="20" rx="2" fill="white"/>
<mask id="mask0_5138_2288" style="mask-type:luminance" maskUnits="userSpaceOnUse" x="0" y="0" width="28" height="20">
<rect width="28" height="20" rx="2" fill="white"/>
</mask>
<g mask="url(#mask0_5138_2288)">
<rect width="28" height="20" fill="#07319C"/>
<rect width="12" height="9.33333" fill="url(#paint0_linear_5138_2288)"/>
<mask id="mask1_5138_2288" style="mask-type:alpha" maskUnits="userSpaceOnUse" x="0" y="0" width="12" height="10">
<rect width="12" height="9.33333" fill="url(#paint1_linear_5138_2288)"/>
</mask>
<g mask="url(#mask1_5138_2288)">
<mask id="path-6-outside-1_5138_2288" maskUnits="userSpaceOnUse" x="-2" y="-2" width="15" height="13" fill="black">
<rect fill="white" x="-2" y="-2" width="15" height="13"/>
<path fill-rule="evenodd" clip-rule="evenodd" d="M4.66667 4L0 0H0.666667L5.33333 3.33333H6.66667L12 0V0.495127C12 0.602778 11.948 0.703801 11.8604 0.766372L7.33333 4V5.33333L11.5475 8.94545C11.7029 9.07867 11.6087 9.33333 11.404 9.33333C11.358 9.33333 11.3132 9.31897 11.2758 9.29226L6.66667 6H5.33333L0 9.33333V8.66667L4.66667 5.33333V4Z"/>
</mask>
<path fill-rule="evenodd" clip-rule="evenodd" d="M4.66667 4L0 0H0.666667L5.33333 3.33333H6.66667L12 0V0.495127C12 0.602778 11.948 0.703801 11.8604 0.766372L7.33333 4V5.33333L11.5475 8.94545C11.7029 9.07867 11.6087 9.33333 11.404 9.33333C11.358 9.33333 11.3132 9.31897 11.2758 9.29226L6.66667 6H5.33333L0 9.33333V8.66667L4.66667 5.33333V4Z" fill="#DB1E36"/>
<path fill-rule="evenodd" clip-rule="evenodd" d="M4.66667 4L0 0H0.666667L5.33333 3.33333H6.66667L12 0V0.495127C12 0.602778 11.948 0.703801 11.8604 0.766372L7.33333 4V5.33333L11.5475 8.94545C11.7029 9.07867 11.6087 9.33333 11.404 9.33333C11.358 9.33333 11.3132 9.31897 11.2758 9.29226L6.66667 6H5.33333L0 9.33333V8.66667L4.66667 5.33333V4Z" stroke="white" stroke-width="1.33333" mask="url(#path-6-outside-1_5138_2288)"/>
<path fill-rule="evenodd" clip-rule="evenodd" d="M0 3.33333V6H4.66667V9.33333C4.66667 9.70152 4.96514 10 5.33333 10H6.66667C7.03486 10 7.33333 9.70152 7.33333 9.33333V6H12C12.3682 6 12.6667 5.70152 12.6667 5.33333V4C12.6667 3.63181 12.3682 3.33333 12 3.33333H7.33333V0H4.66667V3.33333H0Z" fill="white"/>
<path fill-rule="evenodd" clip-rule="evenodd" d="M0 4H5.33333V3.33333V0H6.66667V3.33333V4H12V5.33333H6.66667V6V9.33333H5.33333V6V5.33333H0V4Z" fill="#DB1E36"/>
</g>
</g>
<g clip-path="url(#clip1_5138_2288)">
<g clip-path="url(#clip2_5138_2288)">
<path fill-rule="evenodd" clip-rule="evenodd" d="M17.3333 10C17.3333 8.90627 17.3333 7.61316 17.3333 6.66583C17.3333 5.92945 17.9303 5.33334 18.6667 5.33334H22.6667C23.403 5.33334 24 5.92945 24 6.66583C24 7.61316 24 8.90627 24 10C24 13.3333 20.6667 14.6667 20.6667 14.6667C20.6667 14.6667 17.3333 13.3333 17.3333 10Z" fill="#0072C4"/>
<mask id="mask2_5138_2288" style="mask-type:luminance" maskUnits="userSpaceOnUse" x="17" y="5" width="7" height="10">
<path fill-rule="evenodd" clip-rule="evenodd" d="M17.3333 10C17.3333 8.90627 17.3333 7.61316 17.3333 6.66583C17.3333 5.92945 17.9303 5.33334 18.6667 5.33334H22.6667C23.403 5.33334 24 5.92945 24 6.66583C24 7.61316 24 8.90627 24 10C24 13.3333 20.6667 14.6667 20.6667 14.6667C20.6667 14.6667 17.3333 13.3333 17.3333 10Z" fill="white"/>
</mask>
<g mask="url(#mask2_5138_2288)">
<path fill-rule="evenodd" clip-rule="evenodd" d="M18.8691 9.26772C18.1859 9.95778 19.5249 9.87026 19.5249 9.87026L20.4785 9.56493C20.4785 9.56493 20.9072 9.6168 21.1966 9.70404C21.3883 9.76183 21.9218 10 21.9218 10C21.9218 10 23.0485 9.77509 22.6523 9.26772C22.2562 8.76034 19.5523 8.57765 18.8691 9.26772Z" fill="#005121"/>
</g>
<g clip-path="url(#clip3_5138_2288)">
<g clip-path="url(#clip4_5138_2288)">
<path fill-rule="evenodd" clip-rule="evenodd" d="M21.7099 8.55089C21.7373 8.54466 21.8013 8.54606 21.8252 8.57514C21.8627 8.6206 21.9394 8.60549 21.9769 8.6493C22.0142 8.69323 22.0576 8.73374 22.0576 8.79622C22.0576 8.8587 22.0504 9.01362 22.0517 9.04765C22.0536 9.10009 22.0627 9.10822 22.1166 9.10682C22.1816 9.10517 22.2714 9.10009 22.2742 8.98365C22.2761 8.9025 22.1954 8.85184 22.1718 8.5632C22.2073 8.53285 22.2388 8.50581 22.227 8.46543C22.2151 8.42492 22.2939 8.4046 22.2861 8.34377C22.2781 8.28308 22.3647 8.24587 22.3293 8.17844C22.2939 8.11089 22.3726 8.10758 22.3412 8.05349C22.3096 7.99952 22.3923 7.95216 22.3569 7.90504C22.3215 7.85768 22.4041 7.81387 22.3609 7.75647C22.3175 7.69908 22.3844 7.6653 22.3412 7.62136C22.3687 7.57755 22.345 7.4526 22.2584 7.38174C22.1718 7.31076 22.0498 7.27368 21.9788 7.24663C21.8468 7.19635 21.6007 7.21958 21.4274 7.2399C21.2541 7.26009 20.9311 7.28041 20.8326 7.26695C20.7342 7.25349 20.5019 7.2399 20.3187 7.27025C20.256 7.28066 20.1847 7.26187 20.1474 7.22644C20.1175 7.19812 20.1001 7.20117 20.0726 7.20282C20.045 7.20447 20.0292 7.19596 20.0154 7.16219C19.9911 7.10276 19.9367 7.14365 19.9111 7.06936C19.8939 7.01971 19.8046 7.06263 19.7772 7.02047C19.7495 6.97831 19.7161 6.97323 19.6412 6.97831C19.6373 6.95292 19.596 6.93438 19.5585 6.94111C19.5644 6.89895 19.5231 6.86517 19.4542 6.86682C19.4621 6.8145 19.3656 6.774 19.3163 6.80612C19.2849 6.76727 19.2218 6.77565 19.2061 6.80612C19.1726 6.76727 19.0662 6.77908 19.0406 6.82123C18.9954 6.79596 18.9074 6.85806 18.9147 6.95635C18.9166 6.98339 18.9184 7.01146 18.8732 7.02047C18.7886 7.03736 18.7394 7.13184 18.6664 7.1453C18.5936 7.15889 18.5207 7.1825 18.507 7.22301C18.4932 7.26352 18.5188 7.30581 18.4913 7.326C18.4637 7.34631 18.5089 7.36485 18.5227 7.37489C18.5364 7.38504 18.5581 7.40193 18.5621 7.42555C18.5677 7.45908 18.623 7.46911 18.6803 7.43228C18.7038 7.41717 18.7452 7.46276 18.8121 7.43063C18.8791 7.39863 18.9742 7.41552 18.9579 7.46784C18.9501 7.49311 18.9677 7.52016 18.9895 7.54543C19.0111 7.5707 19.0435 7.64701 19.0249 7.69057C18.9973 7.75469 19.0524 7.79025 19.0387 7.84752C19.0249 7.90504 19.0465 7.95736 19.017 8.03495C18.9874 8.11254 18.987 8.20968 19.0308 8.23749C19.0918 8.27635 19.055 8.3533 19.1075 8.38606C19.1508 8.41298 19.1253 8.47889 19.2061 8.49908C19.2868 8.51939 19.2395 8.57336 19.3241 8.58517C19.4089 8.59698 19.4384 8.65781 19.527 8.64422C19.5923 8.63431 19.6267 8.65019 19.6647 8.66517C19.6726 8.71927 19.6551 8.91774 19.6511 8.96841C19.6475 9.01323 19.6235 9.08473 19.6235 9.12879C19.6235 9.15571 19.6787 9.16244 19.7418 9.16244C19.8046 9.16244 19.8323 9.13717 19.8164 9.06631C19.8007 8.99533 19.7969 8.8225 19.8009 8.71444C19.8555 8.74073 19.9075 8.77755 19.9052 8.81819C19.9012 8.88396 19.9022 9.00206 19.8913 9.06289C19.8835 9.10682 19.8953 9.17603 19.8993 9.22162C19.9033 9.23838 20.0095 9.23673 20.0529 9.22162C20.0961 9.20638 20.0961 9.16587 20.0921 8.98187C20.0902 8.89082 19.9936 8.79774 20.1158 8.75228C20.175 8.73031 20.2576 8.67965 20.2892 8.63254C20.3206 8.58517 20.3896 8.60371 20.4388 8.62746C20.488 8.65108 20.5668 8.68714 20.6161 8.67127C20.6791 8.65108 20.7461 8.70162 20.8012 8.67127C20.8563 8.64092 20.9273 8.69323 20.9724 8.65616C21.0178 8.61895 21.0966 8.65438 21.1301 8.61895C21.1635 8.58352 21.3013 8.63927 21.3507 8.59203C21.3998 8.54466 21.4668 8.60549 21.5121 8.57006C21.524 8.56066 21.5381 8.55863 21.5535 8.55977C21.5517 8.63965 21.5367 8.76676 21.5338 8.80638C21.5302 8.85133 21.5062 8.92269 21.5062 8.96663C21.5062 8.99368 21.5613 9.00041 21.6243 9.00041C21.6874 9.00041 21.715 8.97514 21.6993 8.90428C21.6834 8.83343 21.7061 8.65908 21.7099 8.55089Z" fill="#A3A3A3"/>
<path fill-rule="evenodd" clip-rule="evenodd" d="M18.5233 7.32002C18.5496 7.30085 18.5252 7.26098 18.5384 7.22263C18.5516 7.18441 18.6213 7.16206 18.6911 7.14936C18.7609 7.13653 18.808 7.04726 18.8892 7.03126C18.9324 7.02275 18.9307 6.99621 18.9287 6.97069C18.9219 6.87787 19.0061 6.8192 19.0495 6.8432C19.0739 6.8032 19.1759 6.79202 19.2079 6.82872C19.223 6.80002 19.2833 6.79202 19.3135 6.82872C19.3606 6.7985 19.453 6.83672 19.4455 6.88612C19.5116 6.8846 19.5511 6.91647 19.5455 6.95634C19.5813 6.94999 19.6209 6.96752 19.6247 6.99139C19.6187 7.03063 19.7083 7.04066 19.6668 7.06606C19.6305 7.08828 19.596 7.07952 19.5547 7.04917C19.5133 7.01869 19.3754 7.04574 19.3557 7.06098C19.336 7.07621 19.3144 7.08294 19.2985 7.07114C19.2828 7.05933 19.2455 7.04066 19.2277 7.04244C19.2099 7.04409 19.1726 7.04409 19.1508 7.00866C19.1292 6.97323 19.0741 6.96815 19.0643 6.98161C19.0545 6.99507 19.0859 7.04409 19.1175 7.06263C19.1489 7.08129 19.1332 7.11672 19.1707 7.13691C19.1951 7.15025 19.1726 7.19596 19.1588 7.22301C19.145 7.25006 19.0919 7.24155 19.0879 7.22136C19.084 7.20117 19.0701 7.18758 19.0387 7.21793C19.0071 7.24841 18.9403 7.2399 18.9244 7.23152C18.9087 7.22301 18.8653 7.2079 18.8359 7.21628C18.8062 7.22479 18.8496 7.23825 18.8536 7.25006C18.8575 7.26187 18.8062 7.26694 18.7767 7.26694C18.7473 7.26694 18.7373 7.28371 18.7551 7.28714C18.7729 7.29056 18.8416 7.29399 18.8693 7.28041C18.8969 7.26694 18.9815 7.28041 18.9895 7.3058C18.9973 7.33107 18.9403 7.34123 18.9067 7.3378C18.8572 7.33285 18.7846 7.35977 18.7492 7.36815C18.7138 7.37666 18.6193 7.35469 18.5818 7.36485C18.5444 7.37488 18.5076 7.33514 18.5233 7.32002Z" fill="#A3A3A3"/>
<path fill-rule="evenodd" clip-rule="evenodd" d="M19.1567 7.52687C19.1213 7.54033 19.1332 7.58083 19.1647 7.59772C19.1963 7.61461 19.2671 7.62134 19.3124 7.61296C19.3576 7.60445 19.3676 7.61804 19.3381 7.63493C19.3084 7.65169 19.3833 7.65512 19.3773 7.68217C19.3716 7.70909 19.4049 7.70401 19.4364 7.70236C19.468 7.70071 19.5093 7.68039 19.5447 7.66185C19.5801 7.64331 19.6058 7.65677 19.5723 7.6889C19.539 7.7209 19.4267 7.76153 19.3381 7.75645C19.2493 7.75137 19.2021 7.77156 19.2218 7.80026C19.2415 7.82896 19.336 7.83404 19.3852 7.8188C19.4345 7.80369 19.4267 7.83074 19.3892 7.84915C19.3517 7.86782 19.2985 7.86947 19.2533 7.86782C19.208 7.86617 19.1686 7.90502 19.2277 7.92687C19.2868 7.94883 19.3656 7.93537 19.3951 7.95391C19.4247 7.97245 19.5153 7.94375 19.5172 7.97588C19.5191 8.00788 19.4916 8.01969 19.4384 8.01639C19.3852 8.01296 19.4009 8.03696 19.4404 8.05004C19.4758 8.06198 19.539 8.06198 19.5723 8.05855C19.6058 8.05525 19.596 8.0889 19.5625 8.10071C19.529 8.11252 19.4207 8.12941 19.3676 8.12775C19.3144 8.1261 19.3398 8.15988 19.4089 8.15988C19.6196 8.15988 19.6905 8.0602 19.7437 7.99099C19.7698 7.95709 19.8204 7.93868 19.8323 7.95899C19.8441 7.97918 19.8461 7.98426 19.8225 8.00115C19.7988 8.01804 19.8046 8.0282 19.848 8.02985C19.8913 8.0315 19.9544 8.01969 19.9918 8.00966C20.0292 7.9995 20.1394 8.06337 20.0489 8.06528C19.8893 8.06871 19.6924 8.1261 19.6276 8.14972C19.5625 8.17334 19.4541 8.21779 19.3873 8.2155C19.3381 8.21385 19.3182 8.23239 19.3381 8.25436C19.3576 8.27633 19.4207 8.27633 19.4561 8.26617C19.4916 8.25601 19.4994 8.26617 19.4758 8.28636C19.4523 8.30668 19.3932 8.31506 19.3517 8.32191C19.3105 8.32864 19.2901 8.35506 19.3222 8.36572C19.3833 8.38604 19.3281 8.40458 19.3716 8.41474C19.4148 8.4249 19.3676 8.4569 19.4148 8.46706C19.4621 8.47722 19.4896 8.47214 19.525 8.44852C19.5606 8.4249 19.5801 8.41131 19.6176 8.41474C19.6551 8.41817 19.6807 8.40115 19.7024 8.37588C19.724 8.35061 19.7969 8.30502 19.8204 8.32699C19.8441 8.34896 19.8933 8.30833 19.9033 8.33029C19.913 8.35226 19.9544 8.3388 19.9643 8.36915C19.9751 8.40293 20.0213 8.40966 20.0529 8.39785C20.0843 8.38604 20.1099 8.35734 20.1099 8.31506C20.1099 8.2729 20.1218 8.25601 20.1336 8.3016C20.1453 8.34718 20.1887 8.36064 20.2104 8.3388C20.232 8.31683 20.2398 8.2409 20.2241 8.20547C20.2084 8.16991 20.2064 8.12433 20.2222 8.11595C20.2379 8.10756 20.2754 8.18515 20.2911 8.21893C20.307 8.25271 20.3481 8.24255 20.3502 8.20877C20.3521 8.17499 20.3896 8.1581 20.4172 8.1835C20.4447 8.20877 20.429 8.29322 20.4369 8.33372C20.4447 8.37423 20.5215 8.32356 20.5295 8.33702C20.5373 8.35061 20.5668 8.35391 20.5787 8.32522C20.5905 8.29652 20.6181 8.27125 20.6338 8.28814C20.6496 8.30502 20.6732 8.33372 20.683 8.36572C20.6929 8.39785 20.7283 8.41474 20.7499 8.38096C20.7716 8.34718 20.7874 8.28141 20.7796 8.23569C20.7716 8.19023 20.7855 8.16153 20.805 8.18515C20.8247 8.20877 20.8228 8.2729 20.8247 8.32522C20.8268 8.37753 20.8917 8.37258 20.8917 8.29487C20.8917 8.25944 20.9114 8.25271 20.9173 8.2729C20.9233 8.29322 20.9233 8.32699 20.9292 8.3421C20.9437 8.37956 20.9942 8.35899 21 8.33372C21.0059 8.30833 20.9961 8.21715 20.9843 8.17677C20.9724 8.13614 20.9961 8.10756 21.0158 8.12941C21.0356 8.15137 21.0394 8.20877 21.0434 8.2729C21.0473 8.33702 21.0886 8.34045 21.1104 8.32191C21.132 8.30325 21.132 8.24928 21.1222 8.21042C21.1123 8.17169 21.1438 8.17169 21.1576 8.19531C21.1714 8.21893 21.1951 8.20369 21.1911 8.18515C21.1873 8.16661 21.2068 8.14972 21.2265 8.17499C21.2462 8.20039 21.2403 8.25779 21.2305 8.30325C21.2206 8.34896 21.2797 8.34376 21.3073 8.30502C21.3348 8.26617 21.321 8.15988 21.2975 8.1261C21.2738 8.09233 21.2758 8.04839 21.2895 8.00966C21.3034 7.9708 21.329 7.96902 21.331 7.98604C21.3329 8.0028 21.3447 8.0315 21.3664 8.05347C21.388 8.07544 21.3998 8.07887 21.4037 8.04496C21.4077 8.01131 21.4274 8.01969 21.4353 8.04496C21.4433 8.07036 21.4569 8.09055 21.4766 8.06871C21.4963 8.04674 21.5219 8.06363 21.5062 8.09741C21.4904 8.13118 21.4904 8.16153 21.5022 8.19531C21.5141 8.22909 21.5554 8.22401 21.5594 8.18515C21.5676 8.10439 21.5791 8.1581 21.5889 8.19353C21.5987 8.22909 21.6283 8.22731 21.6342 8.20712C21.6401 8.1868 21.6461 8.18185 21.6461 8.20369C21.6461 8.22566 21.6558 8.2442 21.6815 8.2442C21.7071 8.2442 21.7012 8.20039 21.7129 8.17334C21.7247 8.14629 21.7464 8.1835 21.776 8.24585C21.8055 8.30833 21.8271 8.24928 21.8961 8.39112C21.9243 8.4489 21.965 8.3995 21.9631 8.37931C21.961 8.35899 21.967 8.34553 22.0004 8.34553C22.0339 8.34553 22.0615 8.3388 22.0498 8.31683C22.0379 8.29487 22.0458 8.25436 22.0438 8.20877C22.0419 8.16318 22.0477 8.13791 22.0536 8.16318C22.0596 8.18845 22.0793 8.22401 22.1107 8.24255C22.1422 8.26109 22.1638 8.21042 22.1382 8.17842C22.1127 8.14629 22.0773 8.07036 22.0793 8.00623C22.0807 7.95899 22.1028 7.9741 22.1028 8.00788C22.1028 8.04166 22.1225 8.10249 22.1521 8.11595C22.1816 8.12941 22.1935 8.06693 22.1797 8.03493C22.1659 8.0028 22.1581 7.95899 22.1876 7.95049C22.217 7.9421 22.1797 7.90668 22.1541 7.88128C22.1284 7.85601 22.1127 7.83074 22.1581 7.83239C22.2033 7.83404 22.1659 7.80534 22.1441 7.7868C22.1225 7.76826 22.0852 7.73106 22.1441 7.73614C22.2033 7.74122 22.1837 7.71087 22.16 7.69398C22.1363 7.67709 22.1225 7.64496 22.1638 7.64674C22.2053 7.64839 22.2308 7.62807 22.227 7.61296C22.2118 7.55442 22.1127 7.48636 22.0517 7.43404C21.9907 7.38172 21.8921 7.32941 21.839 7.3209C21.7858 7.31239 21.7838 7.34629 21.7976 7.36649C21.8114 7.38668 21.839 7.40026 21.843 7.37995C21.8468 7.35975 21.8881 7.38172 21.9078 7.40864C21.9276 7.43569 21.9945 7.46947 22.036 7.49982C22.0773 7.53017 21.9807 7.51506 21.9335 7.47455C21.9065 7.45131 21.9098 7.4795 21.9453 7.51163C21.9807 7.54375 21.9354 7.55722 21.8981 7.53017C21.8606 7.50325 21.7641 7.42731 21.7031 7.37829C21.6421 7.32941 21.6321 7.34122 21.6302 7.37322C21.6283 7.40534 21.6499 7.42731 21.6893 7.45423C21.7287 7.48128 21.7779 7.52344 21.8154 7.55214C21.8527 7.58083 21.8213 7.59937 21.7976 7.57906C21.7739 7.55887 21.6933 7.50325 21.6461 7.46439C21.5987 7.42553 21.5554 7.40699 21.5259 7.41207C21.4963 7.41715 21.4984 7.44585 21.5338 7.4762C21.5692 7.50655 21.6126 7.56395 21.6126 7.59772C21.6126 7.6315 21.581 7.65512 21.5652 7.59442C21.5495 7.5336 21.4747 7.46274 21.4196 7.40864C21.3644 7.35468 21.3092 7.34452 21.2678 7.34795C21.2265 7.35125 21.2284 7.39175 21.2284 7.42388C21.2284 7.45588 21.2009 7.43734 21.199 7.41372C21.197 7.3901 21.1655 7.36991 21.1477 7.37156C21.1301 7.37322 21.136 7.42223 21.1301 7.4442C21.1241 7.46604 21.0966 7.48636 21.0966 7.43569C21.0966 7.38502 21.0316 7.35975 21.004 7.35798C20.9764 7.35633 20.9508 7.36649 20.9646 7.38845C20.9784 7.41029 20.9724 7.46947 20.9627 7.50325C20.9527 7.5369 20.9233 7.47785 20.9173 7.41537C20.9114 7.35302 20.819 7.30909 20.7539 7.32763C20.6889 7.34629 20.7382 7.38668 20.7264 7.42553C20.7145 7.46439 20.6967 7.42896 20.6908 7.38845C20.685 7.34795 20.6535 7.32255 20.6102 7.33271C20.5668 7.34287 20.5373 7.36306 20.5393 7.3901C20.5412 7.41715 20.5412 7.44077 20.5314 7.48458C20.5215 7.52852 20.5038 7.50655 20.5058 7.47785C20.5078 7.44915 20.4979 7.40191 20.488 7.37487C20.4782 7.34795 20.4624 7.37322 20.4664 7.40699C20.4704 7.44077 20.4604 7.51836 20.4447 7.56572C20.429 7.61296 20.4053 7.61461 20.4172 7.55049C20.429 7.48636 20.3994 7.39175 20.3699 7.34795C20.3487 7.31658 20.301 7.30579 20.301 7.3496C20.301 7.39353 20.3148 7.42553 20.3502 7.45766C20.3856 7.48966 20.3581 7.56902 20.3227 7.61131C20.2871 7.65347 20.2892 7.59264 20.301 7.54706C20.3127 7.50147 20.2478 7.48636 20.2222 7.47785C20.1966 7.46947 20.2498 7.42388 20.2616 7.36306C20.2674 7.33309 20.2596 7.31417 20.236 7.31239C20.2123 7.31074 20.1493 7.36814 20.1218 7.41029C20.1296 7.36649 20.1218 7.32763 20.0981 7.32763C20.0745 7.32763 20.0489 7.36991 20.0313 7.40026C20.0135 7.43061 19.9957 7.41372 20.0135 7.38172C20.0313 7.3496 20.0587 7.2635 20.0233 7.24496C19.9878 7.22642 19.9563 7.30236 19.919 7.28877C19.8978 7.28115 19.9268 7.23315 19.9387 7.21118C19.9504 7.18922 19.9268 7.17233 19.8736 7.21283C19.8204 7.25347 19.7969 7.31925 19.783 7.35975C19.7693 7.40026 19.6748 7.46604 19.6236 7.50147C19.5723 7.5369 19.5507 7.52344 19.5763 7.5082C19.6019 7.49309 19.653 7.44585 19.6787 7.42731C19.7043 7.40864 19.6924 7.39772 19.6433 7.42972C19.5941 7.46185 19.5044 7.52014 19.4127 7.54033C19.359 7.55226 19.3517 7.5421 19.4049 7.52687C19.4581 7.51163 19.5801 7.43899 19.6098 7.40534C19.6283 7.38414 19.5801 7.40191 19.5566 7.40699C19.533 7.41207 19.5133 7.40534 19.5606 7.38845C19.6077 7.37156 19.7575 7.23823 19.789 7.18922C19.8204 7.14033 19.7929 7.12166 19.7732 7.12344C19.7535 7.12509 19.7259 7.1369 19.7318 7.11671C19.7378 7.09639 19.724 7.06934 19.6984 7.07785C19.6727 7.08623 19.6748 7.13525 19.6649 7.16217C19.6551 7.18922 19.5998 7.22477 19.5644 7.22477C19.529 7.22477 19.4798 7.2315 19.4424 7.25677C19.4049 7.28204 19.3873 7.25842 19.4049 7.23823C19.4227 7.21791 19.4621 7.21283 19.5015 7.21118C19.5409 7.20953 19.5841 7.20445 19.6176 7.17233C19.6511 7.14033 19.653 7.11493 19.6276 7.11328C19.6019 7.11163 19.5585 7.08293 19.5447 7.07112C19.4748 7.01106 19.3467 7.09474 19.2966 7.14363C19.269 7.17068 19.1745 7.24839 19.145 7.26858C19.1154 7.28877 19.1273 7.31747 19.1764 7.27874C19.2258 7.23988 19.2415 7.26693 19.1963 7.29563C19.1508 7.32433 19.1175 7.36649 19.1332 7.38172C19.1489 7.39683 19.2099 7.37829 19.2434 7.35975C19.2769 7.34122 19.2927 7.38668 19.2099 7.40191C19.1544 7.4122 19.135 7.43175 19.1785 7.43404C19.212 7.43569 19.2631 7.42223 19.3105 7.39861C19.3576 7.37487 19.3951 7.38845 19.3557 7.41207C19.3163 7.43569 19.2296 7.46782 19.1864 7.46782C19.1501 7.46782 19.1923 7.51341 19.1567 7.52687Z" fill="white"/>
<path fill-rule="evenodd" clip-rule="evenodd" d="M19.3852 7.14959C19.4326 7.10026 19.4739 7.07866 19.5172 7.11413C19.5564 7.14626 19.5606 7.16026 19.5113 7.14959C19.4621 7.13893 19.4286 7.14959 19.3991 7.18146C19.3695 7.21346 19.336 7.20093 19.3852 7.14959Z" fill="#A3A3A3"/>
<path fill-rule="evenodd" clip-rule="evenodd" d="M18.6055 7.2749C18.6409 7.23943 18.6979 7.23943 18.7236 7.2005C18.7492 7.16143 18.7767 7.1757 18.7452 7.2129C18.7138 7.2501 18.6527 7.2573 18.6271 7.28383C18.6015 7.31037 18.5877 7.29263 18.6055 7.2749Z" fill="#A3A3A3"/>
<path fill-rule="evenodd" clip-rule="evenodd" d="M18.8261 7.13935C18.8474 7.13642 18.889 7.11095 18.9147 7.08082C18.9403 7.05069 18.9954 7.04002 19.0287 7.07549C19.0622 7.11095 19.08 7.12335 19.0978 7.13055C19.1154 7.13762 19.1154 7.16069 19.0878 7.16762C19.0603 7.17482 19.023 7.18015 19.0033 7.17122C18.9835 7.16242 18.9539 7.15535 18.9304 7.16069C18.9067 7.16589 18.8969 7.15535 18.9166 7.14642C18.9363 7.13762 18.9598 7.11095 18.9717 7.10029C18.9835 7.08975 19.015 7.09855 18.9973 7.10922C18.9795 7.11989 18.9874 7.14282 19.0052 7.15175C19.023 7.16069 19.0584 7.16069 19.0741 7.14469C19.0505 7.12162 19.0111 7.09149 18.9954 7.08269C18.9795 7.07375 18.9658 7.07015 18.9461 7.09149C18.9264 7.11282 18.8791 7.16415 18.8339 7.16242C18.7886 7.16069 18.8004 7.14282 18.8261 7.13935Z" fill="#A3A3A3"/>
<path fill-rule="evenodd" clip-rule="evenodd" d="M20.0705 7.45739C20.053 7.48179 20.037 7.51325 20.0351 7.53805C20.0332 7.56285 20.0558 7.57979 20.0587 7.54872C20.0616 7.51765 20.0646 7.49912 20.0892 7.47605C20.1139 7.45299 20.0902 7.42992 20.0705 7.45739Z" fill="#A3A3A3"/>
<path fill-rule="evenodd" clip-rule="evenodd" d="M19.8293 7.4568C19.8498 7.44853 19.8844 7.42933 19.9012 7.4116C19.9179 7.394 19.9287 7.40546 19.912 7.42493C19.8952 7.4444 19.8569 7.46746 19.8391 7.4728C19.8215 7.47813 19.8077 7.46573 19.8293 7.4568Z" fill="#A3A3A3"/>
<path fill-rule="evenodd" clip-rule="evenodd" d="M19.8598 7.55544C19.8315 7.58947 19.72 7.67036 19.6865 7.68547C19.653 7.70071 19.6649 7.72268 19.7024 7.71087C19.6748 7.73271 19.6136 7.76827 19.5744 7.7783C19.535 7.78846 19.527 7.81881 19.5861 7.80027C19.6452 7.78173 19.7278 7.73271 19.7495 7.71087C19.7713 7.6889 19.7437 7.67874 19.7772 7.65513C19.8107 7.63151 19.8726 7.58833 19.8815 7.57068C19.8953 7.54376 19.8795 7.53182 19.8598 7.55544Z" fill="#A3A3A3"/>
<path fill-rule="evenodd" clip-rule="evenodd" d="M19.7378 7.83076C19.78 7.81019 19.8588 7.73742 19.8815 7.69565C19.8952 7.67038 19.9228 7.67368 19.9012 7.71253C19.8795 7.75139 19.7988 7.8206 19.7712 7.83914C19.7437 7.85768 19.6924 7.8526 19.7378 7.83076Z" fill="#A3A3A3"/>
<path fill-rule="evenodd" clip-rule="evenodd" d="M20.6338 7.43063C20.6222 7.45438 20.62 7.51 20.624 7.53692C20.6278 7.56397 20.6516 7.58428 20.6476 7.54377C20.6437 7.50327 20.6437 7.46276 20.6573 7.45095C20.6713 7.43901 20.6535 7.39012 20.6338 7.43063Z" fill="#A3A3A3"/>
<path fill-rule="evenodd" clip-rule="evenodd" d="M20.8741 7.53018C20.8941 7.5486 20.9036 7.63494 20.9016 7.66694C20.8997 7.69907 20.9332 7.69907 20.9311 7.65348C20.9292 7.6079 20.9252 7.5505 20.9076 7.52015C20.8898 7.48967 20.8465 7.50491 20.8741 7.53018Z" fill="#A3A3A3"/>
<path fill-rule="evenodd" clip-rule="evenodd" d="M21.0847 7.58591C21.0969 7.60801 21.1123 7.65004 21.1123 7.68039C21.1123 7.71087 21.1379 7.69728 21.1399 7.66185C21.1418 7.62642 21.136 7.59607 21.1222 7.57245C21.1084 7.54883 21.067 7.55379 21.0847 7.58591Z" fill="#A3A3A3"/>
<path fill-rule="evenodd" clip-rule="evenodd" d="M21.2148 7.55951C21.204 7.53231 21.1873 7.50805 21.1753 7.51165C21.1636 7.51525 21.1714 7.54005 21.1873 7.56658C21.2028 7.59325 21.2265 7.58965 21.2148 7.55951Z" fill="#A3A3A3"/>
<path fill-rule="evenodd" clip-rule="evenodd" d="M20.3915 7.74796C20.3856 7.81869 20.3481 7.88129 20.303 7.90326C20.2576 7.92523 20.2655 7.96065 20.3206 7.92523C20.3758 7.8898 20.4172 7.82897 20.429 7.775C20.4407 7.72091 20.3955 7.70072 20.3915 7.74796Z" fill="#A3A3A3"/>
<path fill-rule="evenodd" clip-rule="evenodd" d="M20.293 7.71594C20.2695 7.73956 20.2557 7.79023 20.2557 7.82896C20.2557 7.86782 20.2714 7.83912 20.2754 7.81715C20.2794 7.79518 20.2871 7.76483 20.307 7.75467C20.3265 7.74451 20.3167 7.69232 20.293 7.71594Z" fill="#A3A3A3"/>
<path fill-rule="evenodd" clip-rule="evenodd" d="M21.9985 7.76486C22.0193 7.79902 22.0498 7.85438 22.0596 7.88638C22.0695 7.91851 22.0458 7.92689 22.0379 7.89819C22.0299 7.8695 21.9926 7.80537 21.9788 7.7834C21.965 7.76156 21.9748 7.726 21.9985 7.76486Z" fill="#A3A3A3"/>
</g>
</g>
<path d="M16 9.33333C16 9.33333 18.2679 10.0071 18.6507 10.0071C18.7583 10.0071 20.2273 9.67023 20.6677 9.67023C20.8324 9.67023 22.353 9.90101 22.75 10.0071C23.1471 10.1132 25.3354 9.33333 25.3354 9.33333" stroke="white" stroke-width="0.666667" stroke-linecap="round" stroke-linejoin="round"/>
<path d="M16 10.6667C16 10.6667 18.2679 11.3405 18.6507 11.3405C18.7583 11.3405 20.2273 11.0036 20.6677 11.0036C20.8324 11.0036 22.353 11.2344 22.75 11.3405C23.1471 11.4466 25.3354 10.6667 25.3354 10.6667" stroke="white" stroke-width="0.666667" stroke-linecap="round" stroke-linejoin="round"/>
<path d="M16 13.3333C16 13.3333 18.2679 14.0071 18.6507 14.0071C18.7583 14.0071 19.634 13.4619 20.6677 13.4619C21.7014 13.4619 22.353 13.901 22.75 14.0071C23.1471 14.1132 25.3354 13.3333 25.3354 13.3333L32.5128 14.4813" stroke="white" stroke-width="1.33333" stroke-linecap="round" stroke-linejoin="round"/>
</g>
<mask id="path-32-inside-2_5138_2288" fill="white">
<path fill-rule="evenodd" clip-rule="evenodd" d="M17.3333 10C17.3333 8.90627 17.3333 7.61316 17.3333 6.66583C17.3333 5.92945 17.9303 5.33334 18.6667 5.33334H22.6667C23.403 5.33334 24 5.92945 24 6.66583C24 7.61316 24 8.90627 24 10C24 13.3333 20.6667 14.6667 20.6667 14.6667C20.6667 14.6667 17.3333 13.3333 17.3333 10Z"/>
</mask>
<path fill-rule="evenodd" clip-rule="evenodd" d="M17.3333 10C17.3333 8.90627 17.3333 7.61316 17.3333 6.66583C17.3333 5.92945 17.9303 5.33334 18.6667 5.33334H22.6667C23.403 5.33334 24 5.92945 24 6.66583C24 7.61316 24 8.90627 24 10C24 13.3333 20.6667 14.6667 20.6667 14.6667C20.6667 14.6667 17.3333 13.3333 17.3333 10Z" stroke="white" stroke-width="1.33333" mask="url(#path-32-inside-2_5138_2288)"/>
<mask id="mask3_5138_2288" style="mask-type:luminance" maskUnits="userSpaceOnUse" x="17" y="5" width="7" height="10">
<mask id="path-33-inside-3_5138_2288" fill="white">
<path fill-rule="evenodd" clip-rule="evenodd" d="M17.3333 10C17.3333 8.90627 17.3333 7.61316 17.3333 6.66583C17.3333 5.92945 17.9303 5.33334 18.6667 5.33334H22.6667C23.403 5.33334 24 5.92945 24 6.66583C24 7.61316 24 8.90627 24 10C24 13.3333 20.6667 14.6667 20.6667 14.6667C20.6667 14.6667 17.3333 13.3333 17.3333 10Z"/>
</mask>
<path fill-rule="evenodd" clip-rule="evenodd" d="M17.3333 10C17.3333 8.90627 17.3333 7.61316 17.3333 6.66583C17.3333 5.92945 17.9303 5.33334 18.6667 5.33334H22.6667C23.403 5.33334 24 5.92945 24 6.66583C24 7.61316 24 8.90627 24 10C24 13.3333 20.6667 14.6667 20.6667 14.6667C20.6667 14.6667 17.3333 13.3333 17.3333 10Z" fill="white" stroke="white" stroke-width="1.33333" mask="url(#path-33-inside-3_5138_2288)"/>
</mask>
<g mask="url(#mask3_5138_2288)">
</g>
</g>
</g>
<defs>
<linearGradient id="paint0_linear_5138_2288" x1="0" y1="0" x2="0" y2="9.33333" gradientUnits="userSpaceOnUse">
<stop stop-color="#042C90"/>
<stop offset="1" stop-color="#00247E"/>
</linearGradient>
<linearGradient id="paint1_linear_5138_2288" x1="0" y1="0" x2="0" y2="9.33333" gradientUnits="userSpaceOnUse">
<stop stop-color="#042C90"/>
<stop offset="1" stop-color="#00247E"/>
</linearGradient>
<clipPath id="clip0_5138_2288">
<rect width="28" height="20" fill="white"/>
</clipPath>
<clipPath id="clip1_5138_2288">
<rect width="7" height="10" fill="white" transform="translate(17.3333 5.33334)"/>
</clipPath>
<clipPath id="clip2_5138_2288">
<rect width="7" height="10" fill="white" transform="translate(17.3333 5.33334)"/>
</clipPath>
<clipPath id="clip3_5138_2288">
<rect width="5.33333" height="2.66667" fill="white" transform="translate(17.3333 6.66669)"/>
</clipPath>
<clipPath id="clip4_5138_2288">
<rect width="4" height="2.66667" fill="white" transform="translate(18.4 6.66669)"/>
</clipPath>
</defs>
</svg>
