<svg xmlns="http://www.w3.org/2000/svg" width="28" height="20" fill="none" viewBox="0 0 28 20"><g clip-path="url(#a)"><path fill="#fff" d="M0 2C0 .8954.8954 0 2 0h24c1.1046 0 2 .8954 2 2v16c0 1.1046-.8954 2-2 2H2c-1.1046 0-2-.8954-2-2z"/><mask id="b" width="28" height="20" x="0" y="0" maskUnits="userSpaceOnUse" style="mask-type:luminance"><rect width="28" height="20" fill="#fff" rx="2"/></mask><g mask="url(#b)"><path fill="#f5f5f5" d="M26 19.5v.5H2v-.5zm1.5-1.5V2c0-.8284-.6716-1.5-1.5-1.5H2C1.1716.5.5 1.1716.5 2v16c0 .8284.6716 1.5 1.5 1.5v.5c-1.1046 0-2-.8954-2-2V2C0 .8954.8954 0 2 0h24c1.1046 0 2 .8954 2 2v16c0 1.1046-.8954 2-2 2v-.5c.8284 0 1.5-.6716 1.5-1.5"/><path fill="#ff202d" fill-rule="evenodd" d="M0 6.6667h28V0H0z" clip-rule="evenodd"/><path fill="#1895db" fill-rule="evenodd" d="m10.6667 5.3333.6666-.6666.6667.6666v1.3334h-1.3333zm2.6666 0L14 4.6667l.6667.6666v1.3334h-1.3334zm3.3334-.6666L16 5.3333v1.3334h1.3333V5.3333z" clip-rule="evenodd"/><path fill="#191f94" fill-rule="evenodd" d="M12.6667 4.6667 12 5.3333v1.3334h1.3333V5.3333zm2.6666 0-.6666.6666v1.3334H16V5.3333z" clip-rule="evenodd"/><path fill="#2027ac" fill-rule="evenodd" d="M0 20h28v-6.6667H0z" clip-rule="evenodd"/><path fill="url(#c)" fill-rule="evenodd" d="M12 6.6667h-.6667L10.6667 8H12v1.3333h-1.3333v1.3334H12V12h-1.3333v1.3333H12v1.3334h1.3333v-1.3334h1.3334v1.3334H16v-1.3334h1.3333V12H16v-1.3333h1.3333V9.3333H16V8h1.3333l-.6666-1.3333H16V8h-1.3333V6.6667h-1.3334V8H12zm1.3333 2.6666V8h1.3334v1.3333zm0 1.3334V9.3333H12v1.3334zm1.3334 0h-1.3334V12H12v1.3333h1.3333V12h1.3334v1.3333H16V12h-1.3333zm0 0H16V9.3333h-1.3333z" clip-rule="evenodd"/></g></g><defs><linearGradient id="c" x1="11" x2="11" y1="7" y2="15" gradientUnits="userSpaceOnUse"><stop stop-color="#ff212e"/><stop offset="1" stop-color="#fd0d1b"/></linearGradient><clipPath id="a"><path fill="#fff" d="M0 0h28v20H0z"/></clipPath></defs></svg>