<svg xmlns="http://www.w3.org/2000/svg" width="28" height="20" fill="none" viewBox="0 0 28 20"><g clip-path="url(#a)"><rect width="28" height="20" fill="#fff" rx="2"/><mask id="b" width="28" height="20" x="0" y="0" maskUnits="userSpaceOnUse" style="mask-type:luminance"><rect width="28" height="20" fill="#fff" rx="2"/></mask><g mask="url(#b)"><path fill="#e6be53" d="M0 0h28v20H0z"/><path fill="#e01826" fill-rule="evenodd" d="M1.3333 17.6667c0 .5523.4478 1 1 1h23.3334c.5523 0 1-.4477 1-1V2.3333c0-.5522-.4477-1-1-1H2.3333c-.5522 0-1 .4478-1 1z" clip-rule="evenodd"/><path fill="#e6be53" fill-rule="evenodd" d="M13.0233 3.6589c-.4701.1567-.611.7534-.2605 1.1038l.3753.3754a.667.667 0 0 0 .4714.1952h.781a.667.667 0 0 0 .4714-.1952l.3754-.3754c.3504-.3504.2095-.947-.2606-1.1038l-.7659-.2553a.667.667 0 0 0-.4216 0zm1.4481 3.203a.6667.6667 0 0 1-.9428 0l-.1953-.1952-.9935-.9936a.667.667 0 0 0-.7696-.1249l-.0762.0382c-.407.2035-.4951.7459-.1733 1.0676l.0126.0127.9936.9935a.667.667 0 0 1 .1249.7696l-.4138.8276a.36.36 0 0 0-.038.1608c0 .2673-.2813.4411-.5204.3216l-.3229-.1614c-.2411-.1206-.2932-.4419-.1026-.6325a.395.395 0 0 0 0-.5585l-.3109-.3109a.67.67 0 0 1-.1249-.1733l-.5856-1.171a.67.67 0 0 1-.0504-.1365L9.673 5.3588c-.1361-.5446-.8432-.6874-1.18-.2383L7.4667 6.489a.667.667 0 0 0-.1334.4v2.287c0 .1036.0241.2056.0704.2982l.548 1.0958a.67.67 0 0 0 .1248.1733l1.1803 1.1803a.67.67 0 0 0 .1733.1249l1.1736.5868a.3.3 0 0 0 .1334.0315c.3146 0 .4147.4241.1333.5648l-.1545.0772a.34.34 0 0 0-.0881.0635l-.2945.2945a.4714.4714 0 0 1-.6666 0 .4714.4714 0 0 0-.6667 0l-.054.0541a.548.548 0 0 0-.1027.6324l.3058.6116a.667.667 0 0 0 .5963.3685h.7639a.67.67 0 0 0 .2981-.0703l.9938-.497a.666.666 0 0 0 .2982-.2981l.3022-.6045c.1304-.2608.478-.3172.6841-.111a.427.427 0 0 1 .0534.539l-.7693 1.1539a.6667.6667 0 0 0 .1849.9245l1.0755.717a.667.667 0 0 0 .7396 0l1.0755-.717a.6666.6666 0 0 0 .1849-.9245l-.7693-1.1539a.427.427 0 0 1 .0534-.539c.2061-.2062.5537-.1498.6841.111l.3022.6045a.666.666 0 0 0 .2982.2981l.9938.497a.67.67 0 0 0 .2981.0703h.7639a.667.667 0 0 0 .5963-.3685l.3058-.6116a.548.548 0 0 0-.1026-.6324L19 13.6667a.4714.4714 0 0 0-.6667 0 .4713.4713 0 0 1-.6666 0l-.2945-.2945a.34.34 0 0 0-.0881-.0635l-.1545-.0772c-.2814-.1407-.1813-.5648.1334-.5648a.3.3 0 0 0 .1333-.0315l1.1736-.5868a.67.67 0 0 0 .1733-.1249l1.1803-1.1803a.67.67 0 0 0 .1249-.1733l.5479-1.0958a.67.67 0 0 0 .0704-.2981V6.8889a.666.666 0 0 0-.1334-.4l-1.0262-1.3684c-.3369-.449-1.044-.3063-1.1801.2383l-.3092 1.2369a.67.67 0 0 1-.0505.1364l-.5856 1.1711a.67.67 0 0 1-.1249.1733l-.3109.311a.395.395 0 0 0 0 .5584c.1906.1906.1385.512-.1026.6325l-.3229.1614C16.2813 9.8593 16 9.6855 16 9.4182a.36.36 0 0 0-.038-.1608l-.4138-.8276a.667.667 0 0 1 .1249-.7696l.9936-.9935.0126-.0127c.3218-.3217.2337-.8641-.1733-1.0676l-.0762-.0382a.667.667 0 0 0-.7696.1249l-.9935.9936z" clip-rule="evenodd"/><circle cx="14" cy="11" r="1" fill="#215f90"/></g></g><defs><clipPath id="a"><path fill="#fff" d="M0 0h28v20H0z"/></clipPath></defs></svg>