<svg width="28" height="20" viewBox="0 0 28 20" fill="none" xmlns="http://www.w3.org/2000/svg">
<g clip-path="url(#clip0_5138_1029)">
<path d="M0 2C0 0.895431 0.895431 0 2 0H26C27.1046 0 28 0.895431 28 2V18C28 19.1046 27.1046 20 26 20H2C0.895431 20 0 19.1046 0 18V2Z" fill="white"/>
<mask id="mask0_5138_1029" style="mask-type:luminance" maskUnits="userSpaceOnUse" x="0" y="0" width="28" height="20">
<rect width="28" height="20" rx="2" fill="white"/>
</mask>
<g mask="url(#mask0_5138_1029)">
<path d="M26 19.5V20H2V19.5H26ZM27.5 18V2C27.5 1.17157 26.8284 0.5 26 0.5H2C1.17157 0.5 0.5 1.17157 0.5 2V18C0.5 18.8284 1.17157 19.5 2 19.5V20C0.895431 20 0 19.1046 0 18V2C2.57702e-07 0.895431 0.895431 0 2 0H26C27.1046 0 28 0.895431 28 2V18C28 19.1046 27.1046 20 26 20V19.5C26.8284 19.5 27.5 18.8284 27.5 18Z" fill="#F5F5F5"/>
<path fill-rule="evenodd" clip-rule="evenodd" d="M0 4H28V0H0V4Z" fill="#0E46D4"/>
<path fill-rule="evenodd" clip-rule="evenodd" d="M0 20H28V16H0V20Z" fill="#0E46D4"/>
<mask id="path-6-outside-1_5138_1029" maskUnits="userSpaceOnUse" x="6.16987" y="3.71132" width="13.2942" height="14.0263" fill="black">
<rect fill="white" x="6.16987" y="3.71132" width="13.2942" height="14.0263"/>
<path fill-rule="evenodd" clip-rule="evenodd" d="M10.6667 12L14 6L17.3333 12L10.6667 12Z"/>
</mask>
<path fill-rule="evenodd" clip-rule="evenodd" d="M10.6667 12L14 6L17.3333 12L10.6667 12Z" stroke="#093EC5" stroke-width="1.33333" mask="url(#path-6-outside-1_5138_1029)"/>
<mask id="path-7-outside-2_5138_1029" maskUnits="userSpaceOnUse" x="6.16987" y="2.2624" width="13.2942" height="14.0263" fill="black">
<rect fill="white" x="6.16987" y="2.2624" width="13.2942" height="14.0263"/>
<path fill-rule="evenodd" clip-rule="evenodd" d="M10.6667 8L14 14L17.3333 8L10.6667 8Z"/>
</mask>
<path fill-rule="evenodd" clip-rule="evenodd" d="M10.6667 8L14 14L17.3333 8L10.6667 8Z" stroke="#093EC5" stroke-width="1.33333" mask="url(#path-7-outside-2_5138_1029)"/>
</g>
</g>
<defs>
<clipPath id="clip0_5138_1029">
<rect width="28" height="20" fill="white"/>
</clipPath>
</defs>
</svg>
