<svg xmlns="http://www.w3.org/2000/svg" width="28" height="20" fill="none" viewBox="0 0 28 20"><g clip-path="url(#a)"><rect width="28" height="20" fill="#fff" rx="2"/><mask id="b" width="28" height="20" x="0" y="0" maskUnits="userSpaceOnUse" style="mask-type:luminance"><rect width="28" height="20" fill="#fff" rx="2"/></mask><g mask="url(#b)"><path fill="#19bfbf" d="M0 0h28v20H0z"/><path fill="#fff" fill-rule="evenodd" d="m17.0976 17.7643-1.042-1.042a.335.335 0 0 1-.0805-.1303l-.5658-1.6976a.3332.3332 0 0 0-.6392.1861l.5175 2.0698a.333.333 0 0 1-.0877.3165l-.2975.2975a.3333.3333 0 0 1-.4714 0l-.3334-.3333A.333.333 0 0 1 14 17.1953v-1.1166a.33.33 0 0 0-.0352-.1491l-.5393-1.0787a.333.333 0 0 0-.2982-.1842H11.412a.33.33 0 0 0-.149.0352l-1.1395.5697a.333.333 0 0 0-.1672.1927l-.5793 1.7381a.333.333 0 0 1-.1672.1927l-1.0607.5304a.334.334 0 0 1-.2982 0l-1-.5a.333.333 0 0 1-.1842-.2982V15A.3333.3333 0 0 1 7 14.6667h1.3333a.3334.3334 0 0 0 .3334-.3333v-.946a.33.33 0 0 1 .017-.1054l.5737-1.7207a.333.333 0 0 1 .3162-.2279h1.0144a.334.334 0 0 0 .1491-.0352l1.1925-.5963a.33.33 0 0 1 .1491-.0352H13a.3333.3333 0 0 0 .3333-.3333v-.1953a.334.334 0 0 1 .0977-.2357l.242-.242c.1609-.161.4321-.1169.5338.0866l.3677.7354a.333.333 0 0 0 .2982.1843h1.5537a.333.333 0 0 0 .3162-.2279l.5148-1.5442a.333.333 0 0 1 .3162-.228h.7597a.3334.3334 0 1 0 0-.6666h-.6666a.3334.3334 0 0 1-.3334-.3333v-.9213a.334.334 0 0 1 .0352-.149l.5241-1.0482a.333.333 0 0 0-.0625-.3847l-.2611-.2611a.3333.3333 0 0 0-.4714 0l-1 1A.333.333 0 0 0 16 6.138v1.1412a.33.33 0 0 1-.0171.1054l-.5736 1.7207a.333.333 0 0 1-.3162.228h-.2884a.334.334 0 0 1-.2357-.0977l-.4729-.473A.328.328 0 0 1 14 8.5309c0-.2439-.2566-.4025-.4747-.2934l-.6437.3218a.333.333 0 0 1-.3848-.0624l-.3992-.3992A.333.333 0 0 1 12 7.862V6.8048a.333.333 0 0 1 .0976-.2357l1.2357-1.2357 1.9444-1.9444a.33.33 0 0 1 .1303-.0805l1.874-.6247a.33.33 0 0 1 .1054-.0171h1.0733a.333.333 0 0 1 .2981.1843l.5393 1.0786a.33.33 0 0 1 .0352.1491V5.862c0 .0884.0352.1732.0977.2357l.4233.4234a.333.333 0 0 1 .0806.3411l-.5211 1.563a.3334.3334 0 0 0 .1314.3828L21.3333 10l.9956.4978a.3334.3334 0 0 1 .1283.4831l-1.0679 1.6018a.334.334 0 0 0-.056.1849v1.6588a.333.333 0 0 1-.2279.3163l-1.6411.547a.333.333 0 0 0-.1927.1671l-.5807 1.1615a.33.33 0 0 1-.0625.0866l-1.0594 1.0594a.3333.3333 0 0 1-.4714 0M12 16.6667a.6667.6667 0 1 1-1.3334 0 .6667.6667 0 0 1 1.3334 0M8.6667 9.3334a.6667.6667 0 1 0 0-1.3334.6667.6667 0 0 0 0 1.3333" clip-rule="evenodd"/><path fill="#fff" fill-rule="evenodd" d="M9.9648 8.737A.33.33 0 0 0 10 8.588v-.5093a.33.33 0 0 0-.0352-.149l-.3903-.7806c-.1108-.2216.0504-.4824.2982-.4824h.4606A.3334.3334 0 0 1 10.6667 7v1.588c0 .0518.012.1028.0352.149l.3902.7806c.1108.2217-.0503.4824-.2981.4824h-.9213c-.2478 0-.409-.2607-.2982-.4824z" clip-rule="evenodd"/></g></g><defs><clipPath id="a"><path fill="#fff" d="M0 0h28v20H0z"/></clipPath></defs></svg>