<svg xmlns="http://www.w3.org/2000/svg" width="28" height="20" fill="none" viewBox="0 0 28 20"><g clip-path="url(#a)"><rect width="28" height="20" fill="#fff" rx="2"/><mask id="b" width="28" height="20" x="0" y="0" maskUnits="userSpaceOnUse" style="mask-type:luminance"><rect width="28" height="20" fill="#fff" rx="2"/></mask><g mask="url(#b)"><path fill="#f1361d" d="M0 0h28v20H0z"/><path fill="#ffdc42" fill-rule="evenodd" d="m10.073 3.101.969.165.726.662.165-.968.662-.726-.968-.165-.726-.661-.165.968zm2.594 3.387.839-.511.982.023-.511-.839.023-.982-.839.511-.982-.023.511.839zm-1.138 5.483-.821.54-.012-.982-.54-.821.982-.012.821-.54.012.982.54.821zm.713-2.539.977-.108.881.436-.108-.976.436-.88-.976.108-.88-.436.108.976zM6.667 8.227 4.316 9.903l.868-2.754-2.32-1.718 2.887-.026.917-2.738.917 2.738 2.887.026-2.321 1.718.868 2.754z" clip-rule="evenodd"/></g></g><defs><clipPath id="a"><path fill="#fff" d="M0 0h28v20H0z"/></clipPath></defs></svg>