<svg xmlns="http://www.w3.org/2000/svg" width="28" height="20" fill="none" viewBox="0 0 28 20"><g clip-path="url(#a)"><rect width="28" height="20" fill="#fff" rx="2"/><mask id="b" width="28" height="20" x="0" y="0" maskUnits="userSpaceOnUse" style="mask-type:luminance"><rect width="28" height="20" fill="#fff" rx="2"/></mask><g mask="url(#b)"><path fill="url(#c)" d="M0 0h28v20H0z"/><path fill="#08379d" d="M13.3333 0H28v20H13.3333z"/><path fill="#08379d" fill-rule="evenodd" d="M0 20h9.3333V0H0z" clip-rule="evenodd"/><path fill="#ffcc50" fill-rule="evenodd" d="M9.3333 20h9.3334V0H9.3333z" clip-rule="evenodd"/><path fill="#262626" fill-rule="evenodd" d="M13.7456 6.4135c.1338-.1967.4246-.194.5547.0052l.6962 1.0657c.1448.2217-.0143.5156-.2791.5156h-.0157a.3333.3333 0 0 0-.3317.3665l.2666 2.6667a.3334.3334 0 0 0 .3317.3001h.228a.333.333 0 0 0 .2344-.0963l.4704-.4653a.333.333 0 0 0 .0989-.237V9.4714a.333.333 0 0 0-.0976-.2357l-.1877-.1877c-.1752-.1752-.1048-.4735.1303-.5519l.953-.3177c.2407-.0802.4791.127.4333.3765l-.4916 2.6728a.333.333 0 0 1-.0968.18l-1.2128 1.1659a.333.333 0 0 1-.231.0931H15a.3333.3333 0 0 0-.3333.3333v.6667a.3334.3334 0 0 1-.3334.3333h-.6666a.3334.3334 0 0 1-.3334-.3333V13A.3333.3333 0 0 0 13 12.6667h-.1953a.333.333 0 0 1-.2357-.0977l-1.1643-1.1643a.334.334 0 0 1-.0912-.1703l-.5342-2.6712c-.0502-.251.1895-.4625.4323-.3816l.9434.3145c.2351.0784.3055.3767.1303.552l-.1877.1876A.333.333 0 0 0 12 9.4714v1.0633c0 .089.0356.1744.0989.237l.4704.4653a.333.333 0 0 0 .2344.0963h.228a.333.333 0 0 0 .3316-.3001l.2667-2.6667A.334.334 0 0 0 13.2976 8c-.2676 0-.4273-.2995-.2768-.5208z" clip-rule="evenodd"/></g></g><defs><linearGradient id="c" x1="0" x2="0" y1="0" y2="20" gradientUnits="userSpaceOnUse"><stop stop-color="#1132c7"/><stop offset="1" stop-color="#0522a5"/></linearGradient><clipPath id="a"><path fill="#fff" d="M0 0h28v20H0z"/></clipPath></defs></svg>