<svg xmlns="http://www.w3.org/2000/svg" width="28" height="20" fill="none" viewBox="0 0 28 20"><g clip-path="url(#a)"><rect width="28" height="20" fill="#fff" rx="2"/><mask id="b" width="28" height="20" x="0" y="0" maskUnits="userSpaceOnUse" style="mask-type:luminance"><rect width="28" height="20" fill="#fff" rx="2"/></mask><g mask="url(#b)"><path fill="url(#c)" d="M0 0h28v20H0z"/><path fill="url(#d)" fill-rule="evenodd" d="M0 0h28L0 20z" clip-rule="evenodd"/><path fill="#2c7442" fill-rule="evenodd" d="M28 0 0 20h28z" clip-rule="evenodd"/><path fill="#ffd646" d="M-2.7736 19.7057 25.0384.9463l13.3272 19.7583-27.812 18.7594z"/><path fill="#fff" fill-rule="evenodd" d="m2.0204 4.3484.187-1.0909-.7925-.7725 1.0953-.1592L3 1.3333l.4898.9925 1.0953.1592-.7926.7725.1871 1.0909L3 3.8334zm6.6666 0 .1871-1.0909-.7925-.7725 1.0952-.1592.4899-.9925.4898.9925 1.0953.1592-.7926.7725.1871 1.0909-.9796-.515zm.1871 2.9091-.187 1.0909.9796-.515.9796.515-.1871-1.0909.7926-.7725-1.0953-.1592-.4898-.9925-.4899.9925-1.0952.1592zM3 7.8333l-.9796.515.187-1.0908-.7925-.7725 1.0953-.1592L3 5.3333l.4898.9925 1.0953.1592-.7926.7725.1871 1.0909zm2.3537-1.485.9796-.515.9797.515-.1871-1.0908.7925-.7725-1.0952-.1592-.4899-.9925-.4898.9925-1.0953.1592.7926.7725z" clip-rule="evenodd"/></g></g><defs><linearGradient id="c" x1="0" x2="0" y1="0" y2="20" gradientUnits="userSpaceOnUse"><stop stop-color="#1dbe4f"/><stop offset="1" stop-color="#159b3f"/></linearGradient><linearGradient id="d" x1="0" x2="0" y1="0" y2="20" gradientUnits="userSpaceOnUse"><stop stop-color="#0660d4"/><stop offset="1" stop-color="#0051bb"/></linearGradient><clipPath id="a"><path fill="#fff" d="M0 0h28v20H0z"/></clipPath></defs></svg>