<svg xmlns="http://www.w3.org/2000/svg" width="28" height="20" fill="none" viewBox="0 0 28 20"><g clip-path="url(#a)"><rect width="28" height="20" fill="#fff" rx="2"/><mask id="b" width="28" height="20" x="0" y="0" maskUnits="userSpaceOnUse" style="mask-type:luminance"><rect width="28" height="20" fill="#fff" rx="2"/></mask><g mask="url(#b)"><path fill="#0748ae" fill-rule="evenodd" d="M0 14.6667h28V9.3333H0z" clip-rule="evenodd"/><path fill="#de2035" fill-rule="evenodd" d="M0 20h28v-5.3333H0z" clip-rule="evenodd"/><path fill="#ffd935" fill-rule="evenodd" d="M0 9.3333h28V0H0z" clip-rule="evenodd"/><path fill="#ffd935" fill-rule="evenodd" d="M12.4 8c-.6477.4865-1.0667 1.261-1.0667 2.1335 0 1.4727 1.194 2.6667 2.6667 2.6667s2.6667-1.194 2.6667-2.6667c0-.8724-.419-1.647-1.0666-2.1335l-.9334 2.8002h-1.3334z" clip-rule="evenodd"/><path fill="#5fc0dc" fill-rule="evenodd" d="m14 7.3333.6667 3.3334h-1.3334z" clip-rule="evenodd"/><path fill="#3f2821" d="m15.4391 5.017 2 .667a.3335.3335 0 0 1 .21.4218.3326.3326 0 0 1-.4209.21l-1.8057-.6016-1.1865 1.1885a.335.335 0 0 1-.2363.0976.334.334 0 0 1-.2354-.0976l-1.1875-1.1885-1.8047.6016a.3333.3333 0 0 1-.4218-.21.3337.3337 0 0 1 .2109-.4219l2-.667.0918-.0166a.333.333 0 0 1 .249.0977l1.0977 1.0967 1.0976-1.0967a.335.335 0 0 1 .3418-.081"/></g></g><defs><clipPath id="a"><path fill="#fff" d="M0 0h28v20H0z"/></clipPath></defs></svg>