<svg xmlns="http://www.w3.org/2000/svg" width="28" height="20" fill="none" viewBox="0 0 28 20"><g clip-path="url(#a)"><rect width="28" height="20" fill="#fff" rx="2"/><mask id="b" width="28" height="20" x="0" y="0" maskUnits="userSpaceOnUse" style="mask-type:luminance"><rect width="28" height="20" fill="#fff" rx="2"/></mask><g mask="url(#b)"><path fill="#079d7b" fill-rule="evenodd" d="M0 20h28V0H0z" clip-rule="evenodd"/></g><g fill-rule="evenodd" clip-path="url(#c)" clip-rule="evenodd"><path fill="#fff" d="M15.885 8.6667c0 .2918-.0212.575-.061.8447a9 9 0 0 1 .3123-.0898c1.7782-.4764 3.3654-.3192 3.545.3512s-1.1163 1.6001-2.8945 2.0766a8.8 8.8 0 0 1-.6631.1506h3.2096a6.12 6.12 0 0 1-.6305 1.3333H9.2972A6.13 6.13 0 0 1 8.6667 12h3.1665a8.8 8.8 0 0 1-.583-.1353c-1.7782-.4765-3.0741-1.4062-2.8945-2.0766s1.7668-.8276 3.545-.3512a9 9 0 0 1 .276.0787 5.8 5.8 0 0 1-.0617-.849c0-1.8409.8439-3.3333 1.885-3.3333s1.885 1.4924 1.885 3.3334M14 16c1.3467 0 2.5835-.4995 3.5548-1.3333h-7.1096C11.4165 15.5005 12.6533 16 14 16m0-4c1.841 0 3.3333-.2985 3.3333-.6667S15.841 10.6667 14 10.6667s-3.3333.2984-3.3333.6666S12.1591 12 14 12"/><path fill="#fcd117" d="M14.6667 3.3333a.6667.6667 0 1 1-1.3334 0 .6667.6667 0 0 1 1.3334 0M9.3333 6.6667a.6667.6667 0 1 1-1.3333 0 .6667.6667 0 0 1 1.3333 0m10 .6666a.6667.6667 0 1 0 0-1.3333.6667.6667 0 0 0 0 1.3333M18 4.6667a.6667.6667 0 1 1-1.3334 0 .6667.6667 0 0 1 1.3334 0m-7.3333.6666a.6666.6666 0 0 0 .6666-.6666.6666.6666 0 1 0-1.3333 0c0 .3682.2985.6666.6667.6666"/></g></g><defs><clipPath id="a"><path fill="#fff" d="M0 0h28v20H0z"/></clipPath><clipPath id="c"><path fill="#fff" d="M8 2.6667h12v14H8z"/></clipPath></defs></svg>