<svg width="28" height="20" viewBox="0 0 28 20" fill="none" xmlns="http://www.w3.org/2000/svg">
<g clip-path="url(#clip0_5138_1178)">
<rect width="28" height="20" rx="2" fill="white"/>
<mask id="mask0_5138_1178" style="mask-type:luminance" maskUnits="userSpaceOnUse" x="0" y="0" width="28" height="20">
<rect width="28" height="20" rx="2" fill="white"/>
</mask>
<g mask="url(#mask0_5138_1178)">
<rect width="28" height="20" fill="#F22A46"/>
<circle cx="14" cy="10" r="3.33333" fill="#FFF04D"/>
<path fill-rule="evenodd" clip-rule="evenodd" d="M12.3682 17.1495L14 14.7136L15.6318 17.1495L16.0451 14.2468L18.5722 15.7334L17.6852 12.9389L20.6071 13.1818L18.5954 11.0489L21.3333 10L18.5954 8.95112L20.6071 6.81818L17.6852 7.06111L18.5722 4.26657L16.0451 5.75318L15.6318 2.85052L14 5.28638L12.3682 2.85052L11.9548 5.75318L9.42773 4.26657L10.3147 7.06111L7.39288 6.81818L9.40456 8.95112L6.66666 10L9.40456 11.0489L7.39288 13.1818L10.3147 12.9389L9.42773 15.7334L11.9548 14.2468L12.3682 17.1495ZM14 14.6667C16.5773 14.6667 18.6667 12.5773 18.6667 10C18.6667 7.42267 16.5773 5.33333 14 5.33333C11.4227 5.33333 9.33332 7.42267 9.33332 10C9.33332 12.5773 11.4227 14.6667 14 14.6667Z" fill="#FFF04D"/>
</g>
</g>
<defs>
<clipPath id="clip0_5138_1178">
<rect width="28" height="20" fill="white"/>
</clipPath>
</defs>
</svg>
