<svg xmlns="http://www.w3.org/2000/svg" width="28" height="20" fill="none" viewBox="0 0 28 20"><g clip-path="url(#a)"><path fill="#fff" d="M0 2C0 .8954.8954 0 2 0h24c1.1046 0 2 .8954 2 2v16c0 1.1046-.8954 2-2 2H2c-1.1046 0-2-.8954-2-2z"/><mask id="b" width="28" height="20" x="0" y="0" maskUnits="userSpaceOnUse" style="mask-type:luminance"><rect width="28" height="20" fill="#fff" rx="2"/></mask><g mask="url(#b)"><path fill="#f5f5f5" d="M26 19.5v.5H2v-.5zm1.5-1.5V2c0-.8284-.6716-1.5-1.5-1.5H2C1.1716.5.5 1.1716.5 2v16c0 .8284.6716 1.5 1.5 1.5v.5c-1.1046 0-2-.8954-2-2V2C0 .8954.8954 0 2 0h24c1.1046 0 2 .8954 2 2v16c0 1.1046-.8954 2-2 2v-.5c.8284 0 1.5-.6716 1.5-1.5"/><path fill="#e20f1b" fill-rule="evenodd" d="M28 0H16v10.6667H0V20h28z" clip-rule="evenodd"/><path fill="url(#c)" fill-rule="evenodd" d="M7 1.3333a.3333.3333 0 0 0-.3333.3334V4H4.3333A.3333.3333 0 0 0 4 4.3333v2c0 .1841.1492.3334.3333.3334h2.3334V9c0 .1841.1492.3333.3333.3333h2A.3333.3333 0 0 0 9.3333 9V6.6667h2.3334A.3333.3333 0 0 0 12 6.3333v-2A.3333.3333 0 0 0 11.6667 4H9.3333V1.6667A.3333.3333 0 0 0 9 1.3333z" clip-rule="evenodd"/></g></g><defs><linearGradient id="c" x1="4" x2="4" y1="1" y2="9" gradientUnits="userSpaceOnUse"><stop stop-color="#df101b"/><stop offset="1" stop-color="#c00711"/></linearGradient><clipPath id="a"><path fill="#fff" d="M0 0h28v20H0z"/></clipPath></defs></svg>