<svg xmlns="http://www.w3.org/2000/svg" width="28" height="20" fill="none" viewBox="0 0 28 20"><g clip-path="url(#a)"><rect width="28" height="20" fill="#fff" rx="2"/><mask id="b" width="28" height="20" x="0" y="0" maskUnits="userSpaceOnUse" style="mask-type:luminance"><rect width="28" height="20" fill="#fff" rx="2"/></mask><g mask="url(#b)"><path fill="#262626" fill-rule="evenodd" d="M0 2.667h28V0H0zm0 10.666h28v-2.667H0z" clip-rule="evenodd"/><path fill="#ed1623" fill-rule="evenodd" d="M0 10.6667h28v-4H0z" clip-rule="evenodd"/><path fill="#fee044" fill-rule="evenodd" d="M0 6.6667h28v-4H0z" clip-rule="evenodd"/><path fill="#ed1623" fill-rule="evenodd" d="M0 20h28v-2.6667H0z" clip-rule="evenodd"/><path fill="#fee044" fill-rule="evenodd" d="M0 17.3333h28v-4H0z" clip-rule="evenodd"/><circle cx="14" cy="10" r="5" fill="#fff"/><path fill="#262626" fill-rule="evenodd" d="M12.9024 7.569a.3333.3333 0 0 1 0-.4714l.4118-.4118a.4.4 0 0 0 .035-.0405c.035-.0461.1243-.1588.2286-.2536.1767-.1607.6801-.1776.8545-.0144.0474.0443.0906.0937.1268.1389.0719.09.0762.213.0247.3161l-.5486 1.0973a.33.33 0 0 0-.0352.149v.382c0 .1263.0713.2417.1843.2982l1.1007.5503a.34.34 0 0 1 .0866.0625l1.1252 1.1252a.333.333 0 0 1 .0624.3847l-.3524.7048c-.1017.2035-.3729.2476-.5338.0867l-.104-.104a.3335.3335 0 0 0-.4714 0l-.3333.3334a.333.333 0 0 0-.0976.2357v.3905c0 .0884.0351.1732.0976.2357.21.21.0613.569-.2357.569h-.3905c-.297 0-.4457-.359-.2357-.569A.333.333 0 0 0 14 12.5286v-.1953A.3333.3333 0 0 0 13.6667 12h-.1953a.333.333 0 0 0-.2357.0976l-.3333.3334a.3335.3335 0 0 1-.4714 0l-.1953-.1953a.3333.3333 0 0 1 0-.4714l.3333-.3333a.333.333 0 0 1 .2357-.0977h.3906c.2969 0 .4457-.359.2357-.569L12.2357 9.569a.3333.3333 0 0 1 0-.4714l.8619-.862a.3333.3333 0 0 0 0-.4713z" clip-rule="evenodd"/></g></g><defs><clipPath id="a"><path fill="#fff" d="M0 0h28v20H0z"/></clipPath></defs></svg>