<svg xmlns="http://www.w3.org/2000/svg" width="28" height="20" fill="none" viewBox="0 0 28 20"><g clip-path="url(#a)"><rect width="28" height="20" fill="#fff" rx="2"/><mask id="b" width="28" height="20" x="0" y="0" maskUnits="userSpaceOnUse" style="mask-type:luminance"><rect width="28" height="20" fill="#fff" rx="2"/></mask><g mask="url(#b)"><path fill="#ffd44d" d="M0 0h28v20H0z"/><path fill="#159a74" fill-rule="evenodd" d="M12 0h16v4H12zm0 8h16v4H12zm16 8H0v4h28z" clip-rule="evenodd"/><path fill="#ed1f45" d="M0 0h12v12H0z"/><path fill="#fff" fill-rule="evenodd" d="M6 7.56 3.6489 9.236l.8675-2.754-2.3206-1.718 2.8873-.026L6 2l.917 2.738 2.8872.026-2.3205 1.718.8674 2.754z" clip-rule="evenodd"/></g></g><defs><clipPath id="a"><path fill="#fff" d="M0 0h28v20H0z"/></clipPath></defs></svg>