<svg xmlns="http://www.w3.org/2000/svg" width="28" height="20" fill="none" viewBox="0 0 28 20"><g clip-path="url(#a)"><path fill="#fff" d="M0 2C0 .8954.8954 0 2 0h24c1.1046 0 2 .8954 2 2v16c0 1.1046-.8954 2-2 2H2c-1.1046 0-2-.8954-2-2z"/><mask id="b" width="28" height="20" x="0" y="0" maskUnits="userSpaceOnUse" style="mask-type:luminance"><rect width="28" height="20" fill="#fff" rx="2"/></mask><g mask="url(#b)"><path fill="#f5f5f5" d="M26 19.5v.5H2v-.5zm1.5-1.5V2c0-.8284-.6716-1.5-1.5-1.5H2C1.1716.5.5 1.1716.5 2v16c0 .8284.6716 1.5 1.5 1.5v.5c-1.1046 0-2-.8954-2-2V2C0 .8954.8954 0 2 0h24c1.1046 0 2 .8954 2 2v16c0 1.1046-.8954 2-2 2v-.5c.8284 0 1.5-.6716 1.5-1.5"/><path fill="#e12237" fill-rule="evenodd" d="M0 10.6667h28V0H0z" clip-rule="evenodd"/><path fill="#fff" fill-rule="evenodd" d="M8 2c.4097 0 .8022.074 1.1648.2092a3.983 3.983 0 0 0-2.4981-.8759c-2.2092 0-4 1.7909-4 4s1.7908 4 4 4a3.983 3.983 0 0 0 2.4981-.8758A3.33 3.33 0 0 1 8 8.6667c-1.841 0-3.3333-1.4924-3.3333-3.3334S6.159 2 8 2m-.6667 3.3333a.6667.6667 0 1 0 0-1.3333.6667.6667 0 0 0 0 1.3333m2 2a.6667.6667 0 1 1-1.3333 0 .6667.6667 0 0 1 1.3333 0m2 .6667a.6667.6667 0 1 0 0-1.3334.6667.6667 0 0 0 0 1.3334m2-3.3333a.6667.6667 0 1 1-1.3333 0 .6667.6667 0 0 1 1.3333 0M10 3.3333A.6667.6667 0 1 0 10 2a.6667.6667 0 0 0 0 1.3333" clip-rule="evenodd"/></g></g><defs><clipPath id="a"><path fill="#fff" d="M0 0h28v20H0z"/></clipPath></defs></svg>