<svg xmlns="http://www.w3.org/2000/svg" width="28" height="20" fill="none" viewBox="0 0 28 20"><g clip-path="url(#a)"><path fill="#fff" d="M0 2C0 .8954.8954 0 2 0h24c1.1046 0 2 .8954 2 2v16c0 1.1046-.8954 2-2 2H2c-1.1046 0-2-.8954-2-2z"/><mask id="b" width="28" height="20" x="0" y="0" maskUnits="userSpaceOnUse" style="mask-type:luminance"><rect width="28" height="20" fill="#fff" rx="2"/></mask><g mask="url(#b)"><path fill="#f5f5f5" d="M26 19.5v.5H2v-.5zm1.5-1.5V2c0-.8284-.6716-1.5-1.5-1.5H2C1.1716.5.5 1.1716.5 2v16c0 .8284.6716 1.5 1.5 1.5v.5c-1.1046 0-2-.8954-2-2V2C0 .8954.8954 0 2 0h24c1.1046 0 2 .8954 2 2v16c0 1.1046-.8954 2-2 2v-.5c.8284 0 1.5-.6716 1.5-1.5"/><path fill="#63aee3" d="M18.6667 0H28v20h-9.3333z"/><path fill="#63aee3" fill-rule="evenodd" d="M0 20h9.3333V0H0z" clip-rule="evenodd"/><path fill="#628a40" d="M10.6663 9.3333c0-.3681.2988-.667.667-.667s.667.2988.667.667c0 .7385.3998 1.3843.9981 1.7315a.667.667 0 0 1 .2422.9111.667.667 0 0 1-.9112.2422c-.9925-.5759-1.6631-1.6517-1.6631-2.8848m5.334 0c0-.368.298-.6668.666-.667.3682 0 .667.2988.667.667 0 1.1813-.6149 2.2185-1.539 2.8096a.6667.6667 0 0 1-.7188-1.123c.5573-.3565.9248-.9789.9248-1.6866"/><circle cx="14" cy="9" r="1" fill="#dcc26d"/></g></g><defs><clipPath id="a"><path fill="#fff" d="M0 0h28v20H0z"/></clipPath></defs></svg>