<svg xmlns="http://www.w3.org/2000/svg" width="28" height="20" fill="none" viewBox="0 0 28 20"><g clip-path="url(#a)"><path fill="#fff" d="M0 2C0 .8954.8954 0 2 0h24c1.1046 0 2 .8954 2 2v16c0 1.1046-.8954 2-2 2H2c-1.1046 0-2-.8954-2-2z"/><mask id="b" width="28" height="20" x="0" y="0" maskUnits="userSpaceOnUse" style="mask-type:luminance"><rect width="28" height="20" fill="#fff" rx="2"/></mask><g mask="url(#b)"><path fill="#f5f5f5" d="M26 19.5v.5H2v-.5zm1.5-1.5V2c0-.8284-.6716-1.5-1.5-1.5H2C1.1716.5.5 1.1716.5 2v16c0 .8284.6716 1.5 1.5 1.5v.5c-1.1046 0-2-.8954-2-2V2C0 .8954.8954 0 2 0h24c1.1046 0 2 .8954 2 2v16c0 1.1046-.8954 2-2 2v-.5c.8284 0 1.5-.6716 1.5-1.5"/><path fill="#0a632f" fill-rule="evenodd" d="M28 0H8v20h20z" clip-rule="evenodd"/></g><g clip-path="url(#c)"><path fill="#fff" fill-rule="evenodd" d="M23.6701 10.7505c-.1283 1.2507-.6614 2.4524-1.6036 3.3946-2.2459 2.2459-5.966 2.167-8.3091-.1761-2.3432-2.3432-2.4221-6.0633-.1762-8.3092.9422-.9422 2.1439-1.4752 3.3946-1.6036a5.55 5.55 0 0 0-1.1073.859c-2.0417 2.0418-2.1427 5.251-.2255 7.1681 1.9171 1.9172 5.1263 1.8162 7.168-.2255a5.55 5.55 0 0 0 .8591-1.1073m-2.5777-2.6458-.3182 1.8984-.8893-1.7072-1.9039.284 1.3488-1.3733-.8584-1.723 1.7229.8585 1.3734-1.3488-.284 1.9039 1.7071.8893z" clip-rule="evenodd"/></g></g><defs><clipPath id="a"><path fill="#fff" d="M0 0h28v20H0z"/></clipPath><clipPath id="c"><path fill="#fff" d="M9.279 9.7643 18.4714.5719l9.1924 9.1924-9.1924 9.1924z"/></clipPath></defs></svg>