<svg xmlns="http://www.w3.org/2000/svg" width="28" height="20" fill="none" viewBox="0 0 28 20"><g clip-path="url(#a)"><rect width="28" height="20" fill="#fff" rx="2"/><mask id="b" width="28" height="20" x="0" y="0" maskUnits="userSpaceOnUse" style="mask-type:luminance"><rect width="28" height="20" fill="#fff" rx="2"/></mask><g mask="url(#b)"><path fill="#19bfbf" d="M0 0h28v20H0z"/><path fill="#fff" fill-rule="evenodd" d="M13.4444 3.3334a.333.333 0 0 0-.2.0666l-2.5239 1.893a.33.33 0 0 1-.1191.0567l-2.5659.6414a.33.33 0 0 0-.0682.0253L5.4327 7.2837a.333.333 0 0 0-.149.149L4.0864 9.827a.333.333 0 0 0 .0208.334l1.17 1.755a.334.334 0 0 1 .056.1849v1.761c0 .0885.0351.1732.0977.2358l1.0658 1.0658a.333.333 0 0 0 .3847.0624l3.7148-1.8574a.334.334 0 0 1 .1491-.0351h2.4672c.078 0 .1535.0273.2134.0772l3.8146 3.1788a.333.333 0 0 0 .2134.0773h2.3676a.334.334 0 0 0 .2774-.1484l2.5117-3.7676a.334.334 0 0 0 .056-.1849v-2.4649a.333.333 0 0 0-.056-.1848L20 6l-1.9029-3.1716a.333.333 0 0 0-.2858-.1618h-.4186c-.2679 0-.4021.324-.2126.5134a.301.301 0 0 1 .0563.3471l-.4776.9552a.333.333 0 0 1-.2981.1843h-1.588a.333.333 0 0 1-.2982-.1843l-.4824-.9648a.333.333 0 0 0-.2981-.1843zm5.8889 14H18l.431.4309a.3333.3333 0 0 0 .4714 0z" clip-rule="evenodd"/></g></g><defs><clipPath id="a"><path fill="#fff" d="M0 0h28v20H0z"/></clipPath></defs></svg>