<svg xmlns="http://www.w3.org/2000/svg" width="28" height="20" fill="none" viewBox="0 0 28 20"><g clip-path="url(#a)"><path fill="#fff" d="M0 2C0 .8954.8954 0 2 0h24c1.1046 0 2 .8954 2 2v16c0 1.1046-.8954 2-2 2H2c-1.1046 0-2-.8954-2-2z"/><mask id="b" width="28" height="20" x="0" y="0" maskUnits="userSpaceOnUse" style="mask-type:luminance"><rect width="28" height="20" fill="#fff" rx="2"/></mask><g mask="url(#b)"><path fill="#f5f5f5" d="M26 19.5v.5H2v-.5zm1.5-1.5V2c0-.8284-.6716-1.5-1.5-1.5H2C1.1716.5.5 1.1716.5 2v16c0 .8284.6716 1.5 1.5 1.5v.5c-1.1046 0-2-.8954-2-2V2C0 .8954.8954 0 2 0h24c1.1046 0 2 .8954 2 2v16c0 1.1046-.8954 2-2 2v-.5c.8284 0 1.5-.6716 1.5-1.5"/><path fill="#e3283e" d="M18.6667 0H28v20h-9.3333z"/><path fill="#128a60" fill-rule="evenodd" d="M0 20h9.3333V0H0z" clip-rule="evenodd"/><path fill="#8c9157" d="M12 9.3333a.6667.6667 0 0 0-1.3333 0zm.329 2.8848a.6667.6667 0 1 0 .6692-1.1533zm2.7466-1.1983a.6668.6668 0 0 0 .7184 1.1233zm2.2577-1.6865a.6666.6666 0 1 0-1.3333 0zm-6.6666 0c0 1.2331.6698 2.3089 1.6623 2.8848l.6692-1.1533c-.5983-.3471-.9982-.993-.9982-1.7315zm5.1273 2.8098c.9243-.5911 1.5393-1.6284 1.5393-2.8098H16c0 .7077-.3671 1.3301-.9244 1.6865z"/><ellipse cx="14" cy="9" fill="#c59262" rx="1" ry="2"/></g></g><defs><clipPath id="a"><path fill="#fff" d="M0 0h28v20H0z"/></clipPath></defs></svg>