<svg xmlns="http://www.w3.org/2000/svg" width="28" height="20" fill="none" viewBox="0 0 28 20"><g clip-path="url(#a)"><path fill="#fff" d="M0 2C0 .8954.8954 0 2 0h24c1.1046 0 2 .8954 2 2v16c0 1.1046-.8954 2-2 2H2c-1.1046 0-2-.8954-2-2z"/><mask id="b" width="28" height="20" x="0" y="0" maskUnits="userSpaceOnUse" style="mask-type:luminance"><rect width="28" height="20" fill="#fff" rx="2"/></mask><g mask="url(#b)"><path fill="#f5f5f5" d="M26 19.5v.5H2v-.5zm1.5-1.5V2c0-.8284-.6716-1.5-1.5-1.5H2C1.1716.5.5 1.1716.5 2v16c0 .8284.6716 1.5 1.5 1.5v.5c-1.1046 0-2-.8954-2-2V2C0 .8954.8954 0 2 0h24c1.1046 0 2 .8954 2 2v16c0 1.1046-.8954 2-2 2v-.5c.8284 0 1.5-.6716 1.5-1.5"/><path fill="#38bb56" fill-rule="evenodd" d="M0 6.6667h28V0H0z" clip-rule="evenodd"/><path fill="#de1b27" fill-rule="evenodd" d="M0 20h28v-6.6667H0z" clip-rule="evenodd"/><path fill="#fff" fill-rule="evenodd" d="M1.6667 5.3333a.3333.3333 0 0 0-.3334.3334v.6666c0 .1841.1493.3334.3334.3334h.6666a.3333.3333 0 0 0 .3334-.3334v-.6666a.3333.3333 0 0 0-.3334-.3334zm2.6666 0A.3333.3333 0 0 0 4 5.6667v.6666c0 .1841.1493.3334.3333.3334H5a.3333.3333 0 0 0 .3333-.3334v-.6666A.3333.3333 0 0 0 5 5.3333zm2.3334.3334A.3334.3334 0 0 1 7 5.3333h.6667c.184 0 .3333.1493.3333.3334v.6666a.3333.3333 0 0 1-.3333.3334H7a.3333.3333 0 0 1-.3333-.3334zm3-.3334a.3333.3333 0 0 0-.3334.3334v.6666c0 .1841.1493.3334.3334.3334h.6666a.3334.3334 0 0 0 .3334-.3334v-.6666a.3334.3334 0 0 0-.3334-.3334zM12 5.6667a.3334.3334 0 0 1 .3333-.3334H13a.3333.3333 0 0 1 .3333.3334v.6666A.3333.3333 0 0 1 13 6.6667h-.6667A.3333.3333 0 0 1 12 6.3333zm3-.3334a.3333.3333 0 0 0-.3333.3334v.6666c0 .1841.1492.3334.3333.3334h.6667A.3333.3333 0 0 0 16 6.3333v-.6666a.3333.3333 0 0 0-.3333-.3334zm2.3333.3334a.3334.3334 0 0 1 .3334-.3334h.6666a.3334.3334 0 0 1 .3334.3334v.6666a.3334.3334 0 0 1-.3334.3334h-.6666a.3334.3334 0 0 1-.3334-.3334zm3-.3334A.3333.3333 0 0 0 20 5.6667v.6666c0 .1841.1492.3334.3333.3334H21a.3333.3333 0 0 0 .3333-.3334v-.6666A.3333.3333 0 0 0 21 5.3333zm2.3334.3334A.3334.3334 0 0 1 23 5.3333h.6667A.3333.3333 0 0 1 24 5.6667v.6666a.3333.3333 0 0 1-.3333.3334H23a.3333.3333 0 0 1-.3333-.3334zm3-.3334a.3334.3334 0 0 0-.3334.3334v.6666c0 .1841.1493.3334.3334.3334h.6666a.3334.3334 0 0 0 .3334-.3334v-.6666a.3334.3334 0 0 0-.3334-.3334zM1.3333 13.6667a.3334.3334 0 0 1 .3334-.3334h.6666a.3334.3334 0 0 1 .3334.3334v.6666a.3334.3334 0 0 1-.3334.3334h-.6666a.3334.3334 0 0 1-.3334-.3334zm3-.3334A.3334.3334 0 0 0 4 13.6667v.6666c0 .1841.1493.3334.3333.3334H5a.3334.3334 0 0 0 .3333-.3334v-.6666A.3334.3334 0 0 0 5 13.3333zm2.3334.3334A.3334.3334 0 0 1 7 13.3333h.6667c.184 0 .3333.1493.3333.3334v.6666a.3334.3334 0 0 1-.3333.3334H7a.3334.3334 0 0 1-.3333-.3334zm3-.3334a.3334.3334 0 0 0-.3334.3334v.6666c0 .1841.1493.3334.3334.3334h.6666a.3334.3334 0 0 0 .3334-.3334v-.6666a.3334.3334 0 0 0-.3334-.3334zM12 13.6667a.3334.3334 0 0 1 .3333-.3334H13a.3334.3334 0 0 1 .3333.3334v.6666a.3334.3334 0 0 1-.3333.3334h-.6667A.3334.3334 0 0 1 12 14.3333zm3-.3334a.3334.3334 0 0 0-.3333.3334v.6666c0 .1841.1492.3334.3333.3334h.6667A.3334.3334 0 0 0 16 14.3333v-.6666a.3334.3334 0 0 0-.3333-.3334zm2.3333.3334a.3334.3334 0 0 1 .3334-.3334h.6666a.3334.3334 0 0 1 .3334.3334v.6666a.3334.3334 0 0 1-.3334.3334h-.6666a.3334.3334 0 0 1-.3334-.3334zm3-.3334a.3334.3334 0 0 0-.3333.3334v.6666c0 .1841.1492.3334.3333.3334H21a.3334.3334 0 0 0 .3333-.3334v-.6666A.3334.3334 0 0 0 21 13.3333zm2.3334.3334A.3334.3334 0 0 1 23 13.3333h.6667a.3334.3334 0 0 1 .3333.3334v.6666a.3334.3334 0 0 1-.3333.3334H23a.3334.3334 0 0 1-.3333-.3334zm3-.3334a.3334.3334 0 0 0-.3334.3334v.6666c0 .1841.1493.3334.3334.3334h.6666a.3334.3334 0 0 0 .3334-.3334v-.6666a.3334.3334 0 0 0-.3334-.3334z" clip-rule="evenodd"/><mask id="c" fill="#fff"><path fill-rule="evenodd" d="M12.6535 8.5212A1.995 1.995 0 0 0 12 10c0 1.1046.8954 2 2 2s2-.8954 2-2a1.995 1.995 0 0 0-.6309-1.458" clip-rule="evenodd"/></mask><path fill="#d80915" d="m12.6535 8.5212-.449-.4929c-.5343.4868-.8712 1.1904-.8712 1.9717h1.3334c0-.3906.1671-.7413.4358-.986zM12 10h-.6667c0 1.4728 1.1939 2.6667 2.6667 2.6667v-1.3334c-.7364 0-1.3333-.5969-1.3333-1.3333zm2 2v.6667c1.4728 0 2.6667-1.1939 2.6667-2.6667h-1.3334c0 .7364-.5969 1.3333-1.3333 1.3333zm2-2h.6667c0-.7665-.3243-1.4583-.8412-1.9439l-.4564.486-.4565.4858a1.328 1.328 0 0 1 .4207.9721z" mask="url(#c)"/><rect width="1" height="3" x="13" y="9" fill="#d80915" rx="1"/></g></g><defs><clipPath id="a"><path fill="#fff" d="M0 0h28v20H0z"/></clipPath></defs></svg>