<svg xmlns="http://www.w3.org/2000/svg" width="28" height="20" fill="none" viewBox="0 0 28 20"><g clip-path="url(#a)"><rect width="28" height="20" fill="#fff" rx="2"/><mask id="b" width="28" height="20" x="0" y="0" maskUnits="userSpaceOnUse" style="mask-type:luminance"><rect width="28" height="20" fill="#fff" rx="2"/></mask><g mask="url(#b)"><path fill="#19bfbf" d="M0 0h28v20H0z"/><path fill="#fff" fill-rule="evenodd" d="M5.4824 8.3685a.3333.3333 0 0 0 .149.4473L7.702 9.8509a.3334.3334 0 0 1 .149.4473l-.3685.737a.3333.3333 0 0 1-.4472.1491l-.9648-.4824a.33.33 0 0 0-.149-.0352h-1.588A.3333.3333 0 0 0 4 11v.7598c0 .1434.0918.2708.228.3162l1.2603.4201c.2351.0784.3055.3767.1303.552l-.1876.1876a.333.333 0 0 0-.0977.2357v.4745a.33.33 0 0 0 .0171.1054l.606 1.8177a.334.334 0 0 0 .167.1928l.995.4974a.333.333 0 0 0 .3848-.0624l1.1635-1.1634.3396-.3397c.1609-.1609.1169-.4321-.0866-.5338l-.7354-.3677A.333.333 0 0 1 8 13.794v-.0337c0-.2169.2038-.376.4142-.3234l2 .5a.333.333 0 0 1 .2525.3234v.9721c0 .0658.0194.1302.0559.1849l1.1784 1.7676a.333.333 0 0 0 .2774.1485h.2626a.333.333 0 0 0 .3095-.2096l.9738-2.4346c.1068-.267.479-.2825.6077-.0253l.3105.6211a.33.33 0 0 0 .0624.0866l1.2569 1.2568a.33.33 0 0 0 .0866.0625l.8025.4013c.2217.1108.4824-.0504.4824-.2982v-.6559a.333.333 0 0 0-.0976-.2357l-.3333-.3333a.3333.3333 0 0 1 0-.4714l.3333-.3334a.333.333 0 0 1 .2357-.0976h1.1166a.33.33 0 0 0 .149-.0352l1.0787-.5393A.333.333 0 0 0 20 13.794v-.9892a.333.333 0 0 0-.0976-.2357l-.3334-.3334a.3335.3335 0 0 1 0-.4714l.7706-.7706c.1609-.1609.4321-.1169.5339.0866l.3774.7549a.298.298 0 0 0 .2667.1648c.2216 0 .3658-.2332.2667-.4315l-.3019-.6037a.3333.3333 0 0 1 .1491-.4472l.737-.3685a.3333.3333 0 0 0 .1491-.4472l-.4559-.9117a.333.333 0 0 0-.1927-.1672l-1.3573-.4524c-.2351-.0784-.3055-.3767-.1303-.552l.8543-.8543a.333.333 0 0 1 .2357-.0976h1.6559a.333.333 0 0 0 .2982-.1843l.3561-.7122c.105-.21-.0342-.4598-.268-.481l-6.1382-.558c-.2814-.0257-.4053-.368-.2055-.5678l.0658-.0658a.333.333 0 0 0 .0976-.2356V3A.3333.3333 0 0 0 17 2.6667h-2.8619a.333.333 0 0 0-.2357.0976l-1.8371 1.8371a.333.333 0 0 1-.1549.0877l-2.577.6443-2.5471.6367a.333.333 0 0 1-.23-.0252l-.5032-.2517c-.2656-.1328-.5592.1219-.4653.4036l.3685 1.1056a.333.333 0 0 1-.018.2545zM14 17.3334A.6667.6667 0 1 0 14 16a.6667.6667 0 0 0 0 1.3334M10.6667 10a.6667.6667 0 1 1-1.3334 0 .6667.6667 0 0 1 1.3334 0m12 2.6667v.6667l-.7643.7643c-.21.2099-.0613.569.2357.569h.3226a.333.333 0 0 0 .2981-.1843l.5745-1.149zm0 0 .3685-.1843c.2403-.1201.1548-.4824-.1139-.4824a.2546.2546 0 0 0-.2546.2547z" clip-rule="evenodd"/></g></g><defs><clipPath id="a"><path fill="#fff" d="M0 0h28v20H0z"/></clipPath></defs></svg>