<svg xmlns="http://www.w3.org/2000/svg" width="28" height="20" fill="none" viewBox="0 0 28 20"><g clip-path="url(#a)"><rect width="28" height="20" fill="#fff" rx="2"/><mask id="b" width="28" height="20" x="0" y="0" maskUnits="userSpaceOnUse" style="mask-type:luminance"><rect width="28" height="20" fill="#fff" rx="2"/></mask><g mask="url(#b)"><path fill="#4189dd" d="M0 0h28v20H0z"/><mask id="c" width="8" height="8" x="1" y="0" fill="#000" maskUnits="userSpaceOnUse"><path fill="#fff" d="M1.0924.424h8.4853v8.4853H1.0924z"/><path fill-rule="evenodd" d="m4.6493 3.981.6858-1.3143.6858 1.3142 1.3142.6858-1.3142.6858-.6858 1.3142-.6858-1.3142-1.3142-.6858z" clip-rule="evenodd"/></mask><path fill="#d21034" fill-rule="evenodd" d="m4.6493 3.981.6858-1.3143.6858 1.3142 1.3142.6858-1.3142.6858-.6858 1.3142-.6858-1.3142-1.3142-.6858z" clip-rule="evenodd"/><path stroke="#fff" d="m4.6493 3.981.6858-1.3143.6858 1.3142 1.3142.6858-1.3142.6858-.6858 1.3142-.6858-1.3142-1.3142-.6858z" clip-rule="evenodd" mask="url(#c)"/><path fill="#f9d616" d="M0 14.667h28V16H0zM0 12h28v1.333H0z"/></g></g><defs><clipPath id="a"><path fill="#fff" d="M0 0h28v20H0z"/></clipPath></defs></svg>