<svg width="28" height="20" viewBox="0 0 28 20" fill="none" xmlns="http://www.w3.org/2000/svg">
<g clip-path="url(#clip0_5138_2221)">
<path d="M0 2C0 0.895431 0.895431 0 2 0H26C27.1046 0 28 0.895431 28 2V18C28 19.1046 27.1046 20 26 20H2C0.895431 20 0 19.1046 0 18V2Z" fill="white"/>
<mask id="mask0_5138_2221" style="mask-type:luminance" maskUnits="userSpaceOnUse" x="0" y="0" width="28" height="20">
<rect width="28" height="20" rx="2" fill="white"/>
</mask>
<g mask="url(#mask0_5138_2221)">
<path d="M26 19.5V20H2V19.5H26ZM27.5 18V2C27.5 1.17157 26.8284 0.5 26 0.5H2C1.17157 0.5 0.5 1.17157 0.5 2V18C0.5 18.8284 1.17157 19.5 2 19.5V20C0.895431 20 0 19.1046 0 18V2C2.57702e-07 0.895431 0.895431 0 2 0H26C27.1046 0 28 0.895431 28 2V18C28 19.1046 27.1046 20 26 20V19.5C26.8284 19.5 27.5 18.8284 27.5 18Z" fill="#F5F5F5"/>
<path fill-rule="evenodd" clip-rule="evenodd" d="M0 5.33333H28V0H0V5.33333Z" fill="#D82332"/>
<path fill-rule="evenodd" clip-rule="evenodd" d="M0 20H28V14.6667H0V20Z" fill="#D82332"/>
</g>
<g clip-path="url(#clip1_5138_2221)">
<g clip-path="url(#clip2_5138_2221)">
<path fill-rule="evenodd" clip-rule="evenodd" d="M13.0675 10.7527L12.7831 11.018C13.0402 11.0901 13.3969 11.0061 13.5389 10.7527H13.0675Z" fill="#064A89"/>
<path fill-rule="evenodd" clip-rule="evenodd" d="M10.7725 10.9334C10.965 11.1259 11.2838 11.1034 11.4763 10.9816C11.6689 10.8596 11.8104 10.8519 11.9304 10.8647C11.9431 10.9733 11.9714 11.1125 12.0201 11.2502H10.8782C10.8498 11.1796 10.7945 11.0152 10.7725 10.9334Z" fill="#064A89"/>
<path fill-rule="evenodd" clip-rule="evenodd" d="M10.9841 11.4478C11.2083 11.3419 11.4374 11.4259 11.5365 11.5022C11.7196 11.6434 12.022 11.6051 12.1704 11.525C12.227 11.6174 12.2958 11.7082 12.3787 11.7776H11.1569C11.1073 11.6975 11 11.5006 10.9841 11.4478Z" fill="#064A89"/>
<path fill-rule="evenodd" clip-rule="evenodd" d="M16.2981 12.3249C16.3517 12.2704 16.4243 12.1806 16.4717 12.1165C16.3928 12.1068 16.3011 12.0497 16.2035 12.001C16.0235 11.9111 15.8515 11.9111 15.6984 12.017C15.4712 12.1741 15.1871 12.2126 14.9661 12.0555C14.7237 11.8831 14.4991 11.9208 14.3096 12.03C14.1202 12.1389 14.0003 12.1453 13.8867 12.1453C13.773 12.1453 13.6531 12.1389 13.4637 12.03C13.2743 11.9208 13.0496 11.8831 12.8072 12.0555C12.5862 12.2126 12.3021 12.1741 12.0749 12.017C11.9218 11.9111 11.7498 11.9111 11.5698 12.001C11.4722 12.0497 11.3805 12.1068 11.3016 12.1165C11.349 12.1806 11.4216 12.2704 11.4752 12.3249H16.2981Z" fill="#064A89"/>
<path fill-rule="evenodd" clip-rule="evenodd" d="M15.7067 12.8612C15.7571 12.8292 15.8961 12.7233 15.9655 12.6688C15.8897 12.6848 15.717 12.6286 15.6278 12.5822C15.3689 12.4474 15.1985 12.4603 15.006 12.5629C14.8134 12.6656 14.542 12.7201 14.3432 12.6111C14.1443 12.5021 14.0022 12.4731 13.8981 12.4731C13.794 12.4731 13.6519 12.5021 13.453 12.6111C13.2542 12.7201 12.9828 12.6656 12.7902 12.5629C12.5977 12.4603 12.4273 12.4474 12.1684 12.5822C12.0792 12.6286 11.9065 12.6848 11.8307 12.6688C11.9001 12.7233 12.039 12.8292 12.0895 12.8612H15.7067Z" fill="#064A89"/>
<path fill-rule="evenodd" clip-rule="evenodd" d="M14.5684 11.7951C14.5147 11.7662 14.452 11.699 14.3947 11.6128C14.3032 11.4748 14.158 11.3979 13.9402 11.3979C13.7224 11.3979 13.5773 11.4748 13.4857 11.6128C13.4285 11.699 13.3657 11.7662 13.3122 11.7951H14.5684Z" fill="#064A89"/>
<path fill-rule="evenodd" clip-rule="evenodd" d="M14.2104 11.2999C14.1883 11.2614 14.141 11.1395 14.1252 11.0753C14.0746 11.0914 13.9768 11.0977 13.92 11.0977C13.8632 11.0977 13.7654 11.0914 13.7148 11.0753C13.699 11.1395 13.6517 11.2614 13.6296 11.2999H14.2104Z" fill="#064A89"/>
<path fill-rule="evenodd" clip-rule="evenodd" d="M14.736 10.7527L15.0204 11.018C14.7633 11.0901 14.4066 11.0061 14.2646 10.7527H14.736Z" fill="#064A89"/>
<path fill-rule="evenodd" clip-rule="evenodd" d="M17.0995 10.9334C16.907 11.1259 16.5881 11.1034 16.3957 10.9816C16.2031 10.8596 16.0616 10.8519 15.9416 10.8647C15.9288 10.9733 15.9005 11.1125 15.8519 11.2502H16.9938C17.0221 11.1796 17.0774 11.0152 17.0995 10.9334Z" fill="#064A89"/>
<path fill-rule="evenodd" clip-rule="evenodd" d="M16.929 11.4478C16.7049 11.3419 16.4758 11.4259 16.3766 11.5022C16.1935 11.6434 15.8911 11.6051 15.7428 11.525C15.6861 11.6174 15.6174 11.7082 15.5344 11.7776H16.7562C16.8058 11.6975 16.9132 11.5006 16.929 11.4478Z" fill="#064A89"/>
<path fill-rule="evenodd" clip-rule="evenodd" d="M15.1588 13.0716C14.7761 13.2303 14.3572 13.3179 13.9183 13.3179C13.4789 13.3179 13.0603 13.2304 12.6772 13.0714C12.7593 13.0618 12.8679 13.0216 12.9556 12.972C13.0977 12.8918 13.3564 12.8758 13.4796 12.956C13.6026 13.0362 13.751 13.1163 13.9183 13.1163C14.0856 13.1163 14.234 13.0362 14.357 12.956C14.4801 12.8758 14.7389 12.8918 14.8811 12.972C14.9686 13.0216 15.0767 13.062 15.1588 13.0716Z" fill="#064A89"/>
<path fill-rule="evenodd" clip-rule="evenodd" d="M14.6252 6.72693C13.934 6.58263 13.3122 6.66596 13.3122 7.32671C13.3122 7.97456 13.3122 8.93671 13.3122 9.13564C13.3122 9.33445 13.3161 9.35962 13.5489 9.41467C14.0539 9.53413 14.1012 9.54617 14.6504 9.67435V7.81424C14.2212 7.76607 14.057 7.52134 14.057 7.23693C14.057 6.96112 14.2464 6.78144 14.6252 6.72693Z" fill="#514537"/>
<path fill-rule="evenodd" clip-rule="evenodd" d="M12.8539 11.8285C12.4688 11.8285 12.0648 11.4885 12.0648 10.8406C12.0648 10.1927 12.0648 9.37807 12.0648 9.23054C12.0648 9.08463 12.081 9.06409 12.0474 9.03011C12.0277 9.01011 12.0695 8.98043 12.0979 8.95151C12.1405 8.90817 12.1697 8.87215 12.1122 8.81355C12.0545 8.75506 12.0791 8.73979 12.1154 8.70301C12.1517 8.66602 12.1658 8.62925 12.1311 8.59387C12.0964 8.5586 12.0885 8.54742 12.1264 8.50893C12.1642 8.47043 12.1485 8.45441 12.1169 8.42226C12.0853 8.39022 12.0704 8.36699 12.1106 8.32613C12.1501 8.28602 12.1531 8.27957 12.199 8.27957C12.2448 8.27957 12.3441 8.27957 12.3884 8.27957C12.4326 8.27957 12.4333 8.29323 12.3962 8.33097C12.3481 8.37979 12.3339 8.39903 12.3884 8.45441C12.4428 8.50968 12.4404 8.52817 12.4057 8.56344C12.3536 8.61635 12.3307 8.65247 12.3836 8.70624C12.4365 8.75989 12.4412 8.78398 12.401 8.82484C12.3608 8.8657 12.3567 8.90183 12.401 8.94667C12.4349 8.98118 12.4373 9.00129 12.4373 9.06215C12.4373 9.42946 12.4373 10.4301 12.4373 10.7059C12.4373 10.9817 12.6329 11.1485 13.0054 11.1485C13.3779 11.1485 13.5041 10.9945 13.6114 10.8919C13.542 11.3858 13.34 11.8285 12.8539 11.8285Z" fill="#514537"/>
<path fill-rule="evenodd" clip-rule="evenodd" d="M13.9407 10.2549C13.9927 10.2709 14.0432 10.3478 14.0432 10.4313H14.1459C14.1459 10.3608 14.1158 10.2517 14.0614 10.1843C14.0606 10.1667 14.0582 10.1515 14.0543 10.1362C14.0922 10.0881 14.1474 10.0111 14.1459 9.93731C14.1448 9.89075 14.0906 9.89247 14.0843 9.92935C14.0791 9.95968 14.0591 10.0063 14.0212 10.0224C14.0212 9.96301 13.988 9.89247 13.9407 9.89247C13.8934 9.89247 13.8601 9.96301 13.8601 10.0224C13.8223 10.0063 13.8023 9.95968 13.7971 9.92935C13.7907 9.89247 13.7364 9.89075 13.7355 9.93731C13.7339 10.0111 13.7891 10.0881 13.827 10.1362C13.8231 10.1515 13.8208 10.1667 13.8199 10.1843C13.7655 10.2517 13.7355 10.3608 13.7355 10.4313H13.8381C13.8381 10.3478 13.8886 10.2709 13.9407 10.2549Z" fill="#514537"/>
<path fill-rule="evenodd" clip-rule="evenodd" d="M13.4116 10.2549C13.4636 10.2709 13.5142 10.3478 13.5142 10.4313H13.6168C13.6168 10.3608 13.5868 10.2517 13.5323 10.1843C13.5316 10.1667 13.5291 10.1515 13.5252 10.1362C13.5631 10.0881 13.6183 10.0111 13.6168 9.93731C13.6158 9.89075 13.5615 9.89247 13.5552 9.92935C13.55 9.95968 13.5299 10.0063 13.4921 10.0224C13.4921 9.96301 13.459 9.89247 13.4116 9.89247C13.3643 9.89247 13.3311 9.96301 13.3311 10.0224C13.2933 10.0063 13.2732 9.95968 13.268 9.92935C13.2616 9.89247 13.2074 9.89075 13.2064 9.93731C13.2048 10.0111 13.26 10.0881 13.2979 10.1362C13.294 10.1515 13.2917 10.1667 13.2908 10.1843C13.2364 10.2517 13.2064 10.3608 13.2064 10.4313H13.309C13.309 10.3478 13.3595 10.2709 13.4116 10.2549Z" fill="#514537"/>
<path fill-rule="evenodd" clip-rule="evenodd" d="M12.8825 10.2549C12.9345 10.2709 12.985 10.3478 12.985 10.4313H13.0877C13.0877 10.3608 13.0576 10.2517 13.0032 10.1843C13.0024 10.1667 13 10.1515 12.9961 10.1362C13.034 10.0881 13.0892 10.0111 13.0877 9.93731C13.0866 9.89075 13.0324 9.89247 13.0261 9.92935C13.0209 9.95968 13.0008 10.0063 12.9629 10.0224C12.9629 9.96301 12.9298 9.89247 12.8825 9.89247C12.8351 9.89247 12.8019 9.96301 12.8019 10.0224C12.7641 10.0063 12.7441 9.95968 12.7389 9.92935C12.7325 9.89247 12.6782 9.89075 12.6773 9.93731C12.6757 10.0111 12.7309 10.0881 12.7688 10.1362C12.7649 10.1515 12.7625 10.1667 12.7617 10.1843C12.7072 10.2517 12.6773 10.3608 12.6773 10.4313H12.7798C12.7798 10.3478 12.8304 10.2709 12.8825 10.2549Z" fill="#514537"/>
<path fill-rule="evenodd" clip-rule="evenodd" d="M14.4698 10.2549C14.4177 10.2709 14.3672 10.3478 14.3672 10.4313H14.2646C14.2646 10.3608 14.2945 10.2517 14.349 10.1843C14.3498 10.1667 14.3522 10.1515 14.3562 10.1362C14.3182 10.0881 14.263 10.0111 14.2646 9.93731C14.2656 9.89075 14.3198 9.89247 14.3262 9.92935C14.3314 9.95968 14.3515 10.0063 14.3892 10.0224C14.3892 9.96301 14.4225 9.89247 14.4698 9.89247C14.5172 9.89247 14.5503 9.96301 14.5503 10.0224C14.5881 10.0063 14.6082 9.95968 14.6134 9.92935C14.6197 9.89247 14.6739 9.89075 14.675 9.93731C14.6765 10.0111 14.6213 10.0881 14.5834 10.1362C14.5873 10.1515 14.5898 10.1667 14.5905 10.1843C14.645 10.2517 14.675 10.3608 14.675 10.4313H14.5723C14.5723 10.3478 14.5218 10.2709 14.4698 10.2549Z" fill="#514537"/>
<path fill-rule="evenodd" clip-rule="evenodd" d="M14.9989 10.2549C14.9468 10.2709 14.8963 10.3478 14.8963 10.4313H14.7937C14.7937 10.3608 14.8237 10.2517 14.8781 10.1843C14.879 10.1667 14.8813 10.1515 14.8852 10.1362C14.8473 10.0881 14.7921 10.0111 14.7937 9.93731C14.7946 9.89075 14.8489 9.89247 14.8553 9.92935C14.8605 9.95968 14.8805 10.0063 14.9183 10.0224C14.9183 9.96301 14.9516 9.89247 14.9989 9.89247C15.0463 9.89247 15.0794 9.96301 15.0794 10.0224C15.1173 10.0063 15.1373 9.95968 15.1425 9.92935C15.1488 9.89247 15.203 9.89075 15.2041 9.93731C15.2056 10.0111 15.1504 10.0881 15.1125 10.1362C15.1164 10.1515 15.1188 10.1667 15.1196 10.1843C15.1741 10.2517 15.2041 10.3608 15.2041 10.4313H15.1015C15.1015 10.3478 15.0509 10.2709 14.9989 10.2549Z" fill="#514537"/>
<path fill-rule="evenodd" clip-rule="evenodd" d="M12.5714 10.5376H15.349V10.671H12.5714V10.5376Z" fill="#514537"/>
<path fill-rule="evenodd" clip-rule="evenodd" d="M15.0221 11.8285C15.4072 11.8285 15.8112 11.4885 15.8112 10.8406C15.8112 10.1927 15.8112 9.37807 15.8112 9.23054C15.8112 9.08463 15.795 9.06409 15.8286 9.03011C15.8483 9.01011 15.8065 8.98043 15.7781 8.95151C15.7355 8.90817 15.7062 8.87215 15.7638 8.81355C15.8215 8.75506 15.7969 8.73979 15.7607 8.70301C15.7243 8.66602 15.7102 8.62925 15.7449 8.59387C15.7796 8.5586 15.7875 8.54742 15.7496 8.50893C15.7117 8.47043 15.7275 8.45441 15.7591 8.42226C15.7907 8.39022 15.8056 8.36699 15.7654 8.32613C15.7259 8.28602 15.7229 8.27957 15.677 8.27957C15.6312 8.27957 15.5319 8.27957 15.4876 8.27957C15.4435 8.27957 15.4426 8.29323 15.4798 8.33097C15.5279 8.37979 15.5421 8.39903 15.4876 8.45441C15.4332 8.50968 15.4356 8.52817 15.4703 8.56344C15.5224 8.61635 15.5452 8.65247 15.4924 8.70624C15.4395 8.75989 15.4347 8.78398 15.475 8.82484C15.5152 8.8657 15.5193 8.90183 15.475 8.94667C15.4411 8.98118 15.4387 9.00129 15.4387 9.06215C15.4387 9.42946 15.4387 10.4301 15.4387 10.7059C15.4387 10.9817 15.243 11.1485 14.8706 11.1485C14.4981 11.1485 14.372 10.9945 14.2646 10.8919C14.334 11.3858 14.536 11.8285 15.0221 11.8285Z" fill="#514537"/>
<path fill-rule="evenodd" clip-rule="evenodd" d="M12.5714 9.67431C12.5714 9.67431 12.5715 9.57968 12.5715 9.46237L13.1268 9.67441L12.5714 9.67431Z" fill="#EEA339"/>
<path fill-rule="evenodd" clip-rule="evenodd" d="M11.9091 9.77281L10.6667 9.60259C10.7028 9.33205 10.771 9.06829 10.8692 8.81721L11.9091 9.23668V9.77281Z" fill="#EEA339"/>
<path fill-rule="evenodd" clip-rule="evenodd" d="M14.4762 7.69592L14.697 6.7742C14.9555 6.83786 15.2067 6.93377 15.4448 7.06022L14.7325 8.4456L14.735 7.75001C14.6528 7.75044 14.5267 7.73764 14.4762 7.69592Z" fill="#EEA339"/>
<path fill-rule="evenodd" clip-rule="evenodd" d="M11.9384 9.86302L10.6728 9.78496C10.6565 10.0546 10.6727 10.3268 10.7214 10.5953C10.7214 10.5953 11.9384 10.603 11.9384 10.5953V9.86302Z" fill="#EEA339"/>
<path fill-rule="evenodd" clip-rule="evenodd" d="M11.9258 8.9956C11.8849 8.94108 11.9102 8.91205 11.9543 8.88313C11.9985 8.85431 11.9922 8.83184 11.9702 8.79022C11.948 8.7485 11.9259 8.70356 11.967 8.65872C12.008 8.61377 11.9922 8.59453 11.9606 8.56248C11.9291 8.53044 11.9259 8.49517 11.9543 8.46947C11.9828 8.44377 11.9764 8.42453 11.9576 8.39893C11.9385 8.37324 11.9014 8.32119 11.9346 8.28754L11.4183 7.84947C11.2477 8.05678 11.1017 8.2856 10.9841 8.53098L11.9258 8.9956Z" fill="#EEA339"/>
<path fill-rule="evenodd" clip-rule="evenodd" d="M13.1628 9.23441L12.5474 8.62806C12.6342 8.53989 12.6429 8.52548 12.5814 8.4629C12.5143 8.39473 12.5119 8.38763 12.6484 8.24882C12.6949 8.20161 12.6689 8.1686 12.6026 8.1686C12.5364 8.1686 12.2317 8.1686 12.197 8.1686C12.1623 8.1686 12.135 8.17043 12.1096 8.19624L11.619 7.71365C11.8062 7.51785 12.0153 7.34699 12.2412 7.2043L13.1628 8.71021V9.23441Z" fill="#EEA339"/>
<path fill-rule="evenodd" clip-rule="evenodd" d="M12.5228 9.32668C12.5228 9.17603 12.5229 9.02689 12.5229 9.00571C12.5229 8.96076 12.5197 8.94313 12.485 8.90786C12.4503 8.87259 12.4676 8.85571 12.4945 8.81721L13.0782 9.3113V9.60141L12.5228 9.32668Z" fill="#EEA339"/>
<path fill-rule="evenodd" clip-rule="evenodd" d="M13.0695 8.44635C13.0695 8.157 13.0695 7.88936 13.0695 7.73517C13.0695 7.27334 13.095 7.04237 13.1613 6.99592L13.1083 6.7742C12.8491 6.84506 12.5979 6.94097 12.3598 7.06743L13.0695 8.44635Z" fill="#EEA339"/>
<path fill-rule="evenodd" clip-rule="evenodd" d="M15.349 9.67431C15.349 9.67431 15.3489 9.57968 15.3489 9.46237L14.7937 9.67441L15.349 9.67431Z" fill="#EEA339"/>
<path fill-rule="evenodd" clip-rule="evenodd" d="M15.9577 9.77281L17.2001 9.60259C17.164 9.33205 17.0958 9.06829 16.9976 8.81721L15.9577 9.23668V9.77281Z" fill="#EEA339"/>
<path fill-rule="evenodd" clip-rule="evenodd" d="M15.9577 9.86302L17.2232 9.78496C17.2395 10.0546 17.2234 10.3268 17.1746 10.5953C17.1746 10.5953 15.9577 10.603 15.9577 10.5953V9.86302Z" fill="#EEA339"/>
<path fill-rule="evenodd" clip-rule="evenodd" d="M15.9177 8.9956C15.9587 8.94108 15.9333 8.91205 15.8892 8.88313C15.845 8.85431 15.8513 8.83184 15.8733 8.79022C15.8955 8.7485 15.9176 8.70356 15.8765 8.65872C15.8355 8.61377 15.8513 8.59453 15.8829 8.56248C15.9144 8.53044 15.9176 8.49517 15.8892 8.46947C15.8608 8.44377 15.8671 8.42453 15.8859 8.39893C15.905 8.37324 15.942 8.32119 15.9089 8.28754L16.4252 7.84947C16.5958 8.05678 16.7417 8.2856 16.8593 8.53098L15.9177 8.9956Z" fill="#EEA339"/>
<path fill-rule="evenodd" clip-rule="evenodd" d="M14.7937 9.23441L15.409 8.62806C15.3221 8.53989 15.3134 8.52548 15.375 8.4629C15.4421 8.39473 15.4446 8.38763 15.308 8.24882C15.2614 8.20161 15.2875 8.1686 15.3538 8.1686C15.42 8.1686 15.7247 8.1686 15.7594 8.1686C15.7941 8.1686 15.8214 8.17043 15.8468 8.19624L16.3374 7.71365C16.1502 7.51785 15.9411 7.34699 15.7152 7.2043L14.7937 8.71021V9.23441Z" fill="#EEA339"/>
<path fill-rule="evenodd" clip-rule="evenodd" d="M15.3491 9.32668C15.3491 9.17603 15.349 9.02689 15.349 9.00571C15.349 8.96076 15.3522 8.94313 15.3869 8.90786C15.4216 8.87259 15.4042 8.85571 15.3774 8.81721L14.7937 9.3113V9.60141L15.3491 9.32668Z" fill="#EEA339"/>
<path fill-rule="evenodd" clip-rule="evenodd" d="M12.1481 9.03226C12.1703 9.05473 12.1798 9.0771 12.1798 9.13161C12.1798 9.18613 12.1798 10.3792 12.1798 10.8475C12.1798 11.4184 12.5206 11.7359 12.871 11.7359C13.1929 11.7359 13.4044 11.4376 13.5149 11.0913C13.3729 11.2035 13.1645 11.2388 12.9656 11.2388C12.7352 11.2388 12.3629 11.0817 12.3629 10.7417C12.3629 10.4274 12.3629 9.26312 12.3629 9.0771C12.3629 9.03226 12.3186 9.03226 12.1481 9.03226Z" fill="#D82332"/>
<path fill-rule="evenodd" clip-rule="evenodd" d="M14.161 6.78405C13.7209 6.73878 13.3127 6.83179 13.3127 7.4419C13.3127 8.0834 13.3127 8.86587 13.3127 9.06286C13.3127 9.33351 13.2917 9.30136 13.5174 9.35824C13.927 9.46147 13.9734 9.47458 14.4701 9.58985V7.94061C14.046 7.8934 13.8622 7.61114 13.8622 7.29856C13.8622 7.04985 13.9704 6.81577 14.161 6.78405Z" fill="#D82332"/>
<path fill-rule="evenodd" clip-rule="evenodd" d="M15.7371 9.03226C15.715 9.05473 15.7055 9.0771 15.7055 9.13161C15.7055 9.18613 15.7055 10.3792 15.7055 10.8475C15.7055 11.4184 15.3647 11.7359 15.0143 11.7359C14.6924 11.7359 14.4808 11.4376 14.3704 11.0913C14.5125 11.2035 14.7207 11.2388 14.9197 11.2388C15.1501 11.2388 15.5224 11.0817 15.5224 10.7417C15.5224 10.4274 15.5224 9.26312 15.5224 9.0771C15.5224 9.03226 15.5667 9.03226 15.7371 9.03226Z" fill="#D82332"/>
</g>
<g clip-path="url(#clip3_5138_2221)">
<mask id="mask1_5138_2221" style="mask-type:luminance" maskUnits="userSpaceOnUse" x="10" y="6" width="8" height="8">
<circle cx="14" cy="10" r="3.33333" fill="white"/>
</mask>
<g mask="url(#mask1_5138_2221)">
<circle cx="14" cy="15.3333" r="3.33333" fill="#064A89"/>
</g>
</g>
</g>
</g>
<defs>
<clipPath id="clip0_5138_2221">
<rect width="28" height="20" fill="white"/>
</clipPath>
<clipPath id="clip1_5138_2221">
<rect width="6.66667" height="6.66667" fill="white" transform="translate(10.6667 6.66667)"/>
</clipPath>
<clipPath id="clip2_5138_2221">
<rect width="6.66667" height="6.66667" fill="white" transform="translate(10.6667 6.66667)"/>
</clipPath>
<clipPath id="clip3_5138_2221">
<rect width="6.66667" height="6.66667" fill="white" transform="translate(10.6667 6.66667)"/>
</clipPath>
</defs>
</svg>
