<svg xmlns="http://www.w3.org/2000/svg" width="28" height="20" fill="none" viewBox="0 0 28 20"><g clip-path="url(#a)"><rect width="28" height="20" fill="#fff" rx="2"/><mask id="b" width="28" height="20" x="0" y="0" maskUnits="userSpaceOnUse" style="mask-type:luminance"><rect width="28" height="20" fill="#fff" rx="2"/></mask><g mask="url(#b)"><path fill="#e81b26" d="M0 0h28v20H0z"/><circle cx="14" cy="10" r="3" fill="#ffe94f"/><path fill="#ffe94f" fill-rule="evenodd" d="M10.2081 7.2793a4.7 4.7 0 0 1 .6899-.7658L1.9617-3.5306-.715-.5581zm.6899 6.2072a4.7 4.7 0 0 1-.6899-.7658l-10.923 7.8374 2.6766 2.9725zm2.1866 1.0904L12 20h4l-1.0846-5.4231a4.7 4.7 0 0 1-.9154.0898 4.7 4.7 0 0 1-.9154-.0898m4.7073-1.8562a4.7 4.7 0 0 1-.6899.7658l8.9363 10.0441 2.6766-2.9725zM9.3797 10.66a4.7 4.7 0 0 1-.0464-.66c0-.224.0158-.4444.0464-.66L0 8v4zm3.7049-5.237L12 0h4l-1.0846 5.423A4.7 4.7 0 0 0 14 5.3334c-.3133 0-.6194.031-.9154.0898m5.5357 3.917c.0306.2156.0464.436.0464.66s-.0158.4444-.0464.66L28 12V8zm-.8284-2.0607a4.7 4.7 0 0 0-.6899-.7658l8.9363-10.0441 2.6766 2.9725z" clip-rule="evenodd"/></g></g><defs><clipPath id="a"><path fill="#fff" d="M0 0h28v20H0z"/></clipPath></defs></svg>