<svg xmlns="http://www.w3.org/2000/svg" width="28" height="20" fill="none" viewBox="0 0 28 20"><g clip-path="url(#a)"><rect width="28" height="20" fill="#fff" rx="2"/><mask id="b" width="28" height="20" x="0" y="0" maskUnits="userSpaceOnUse" style="mask-type:luminance"><rect width="28" height="20" fill="#fff" rx="2"/></mask><g mask="url(#b)"><path fill="#108753" fill-rule="evenodd" d="M0 8h28V0H0zm0 12h28v-8H0z" clip-rule="evenodd"/><path fill="#fff" fill-rule="evenodd" d="M16 20h-4v-8H0V8h12V0h4v8h12v4H16z" clip-rule="evenodd"/><path fill="#262626" fill-rule="evenodd" d="M14.6667 20h-1.3334v-9.3333H0V9.3333h13.3333V0h1.3334v9.3333H28v1.3334H14.6667z" clip-rule="evenodd"/><path fill="#fcd449" fill-rule="evenodd" d="M13.3333 20H12V9.3333H0V8h12V0h1.3333v8H28v1.3333H13.3333z" clip-rule="evenodd"/><circle cx="14" cy="10" r="5" fill="url(#c)"/><path fill="#0e673f" d="M14.2106 12.6588a.6664.6664 0 0 1 .7158.6123.6673.6673 0 0 1-.6133.7168 4 4 0 0 1-.3134.0118 4 4 0 0 1-.3135-.0118c-.3669-.0287-.6408-.3498-.6123-.7168a.666.666 0 0 1 .7158-.6123q.1037.008.21.0079c.0708 0 .1417-.0025.2109-.0079m-3.1787-1.0009c.2799-.2393.7012-.2057.9404.0742.0908.1061.1898.2051.2959.2959a.667.667 0 0 1 .0733.9404.667.667 0 0 1-.9395.0733 4.04 4.04 0 0 1-.4434-.4434.667.667 0 0 1 .0733-.9404m4.9961.0742c.2392-.2799.6606-.3135.9404-.0742a.6674.6674 0 0 1 .0733.9404 4 4 0 0 1-.4434.4434.6674.6674 0 0 1-.9404-.0733c-.2393-.2798-.2057-.7012.0742-.9404a2.7 2.7 0 0 0 .2959-.2959M9.9997 9.9997c0-.1053.0046-.21.0127-.3135a.6666.6666 0 0 1 1.3291.1035 2.8 2.8 0 0 0-.0079.21c0 .0708.0025.1417.0079.2109a.6666.6666 0 0 1-1.3291.1025 4 4 0 0 1-.0127-.3134m6.667 0a2.8 2.8 0 0 0-.0079-.21.666.666 0 0 1 .6123-.7158c.367-.0285.6881.2454.7168.6123a4 4 0 0 1 .0118.3135c0 .1052-.0037.21-.0118.3134a.6673.6673 0 0 1-.7168.6133.6664.6664 0 0 1-.6123-.7158 2.7 2.7 0 0 0 .0079-.211m-5.2647-3.041a.6664.6664 0 0 1 .9395.0732.667.667 0 0 1-.0733.9404 2.7 2.7 0 0 0-.2959.296.667.667 0 0 1-.9404.0732.6664.6664 0 0 1-.0733-.9395 4 4 0 0 1 .4434-.4434m4.2559.0732a.667.667 0 0 1 .9404-.0733c.159.136.3074.2844.4434.4434a.667.667 0 0 1-.0733.9395.667.667 0 0 1-.9404-.0733 2.7 2.7 0 0 0-.2959-.2959c-.2799-.2392-.3135-.6605-.0742-.9404m-1.3448-1.0195a.6666.6666 0 0 1-.1025 1.329 2.7 2.7 0 0 0-.2109-.0078q-.1063-.0001-.21.0079a.6665.6665 0 0 1-.7158-.6133.666.666 0 0 1 .6123-.7158 4 4 0 0 1 .3135-.0127c.1052 0 .21.0046.3134.0127"/><circle cx="14" cy="10" r="1" fill="#0e673f"/></g></g><defs><linearGradient id="c" x1="9" x2="9" y1="5" y2="15" gradientUnits="userSpaceOnUse"><stop stop-color="#e02c42"/><stop offset="1" stop-color="#d22036"/></linearGradient><clipPath id="a"><path fill="#fff" d="M0 0h28v20H0z"/></clipPath></defs></svg>