<svg xmlns="http://www.w3.org/2000/svg" width="28" height="20" fill="none" viewBox="0 0 28 20"><g clip-path="url(#a)"><rect width="28" height="20" fill="#fff" rx="2"/><mask id="b" width="28" height="20" x="0" y="0" maskUnits="userSpaceOnUse" style="mask-type:luminance"><rect width="28" height="20" fill="#fff" rx="2"/></mask><g mask="url(#b)"><path fill="#f32249" d="M0 0h28v20H0z"/><rect width="20" height="12" x="4" y="4" fill="#15a04f" rx="1"/><path fill="#fff" fill-rule="evenodd" d="M16.3333 5.4407C14.2366 5.8985 12.6667 7.766 12.6667 10s1.5699 4.1015 3.6666 4.5593a4.7 4.7 0 0 1-1 .1074c-2.5773 0-4.6666-2.0894-4.6666-4.6667s2.0893-4.6667 4.6666-4.6667c.3433 0 .6779.037 1 .1074" clip-rule="evenodd"/></g></g><defs><clipPath id="a"><path fill="#fff" d="M0 0h28v20H0z"/></clipPath></defs></svg>