<svg xmlns="http://www.w3.org/2000/svg" width="28" height="20" fill="none" viewBox="0 0 28 20"><g clip-path="url(#a)"><path fill="#fff" d="M0 2C0 .8954.8954 0 2 0h24c1.1046 0 2 .8954 2 2v16c0 1.1046-.8954 2-2 2H2c-1.1046 0-2-.8954-2-2z"/><mask id="b" width="28" height="20" x="0" y="0" maskUnits="userSpaceOnUse" style="mask-type:luminance"><rect width="28" height="20" fill="#fff" rx="2"/></mask><g mask="url(#b)"><path fill="#f5f5f5" d="M26 19.5v.5H2v-.5zm1.5-1.5V2c0-.8284-.6716-1.5-1.5-1.5H2C1.1716.5.5 1.1716.5 2v16c0 .8284.6716 1.5 1.5 1.5v.5c-1.1046 0-2-.8954-2-2V2C0 .8954.8954 0 2 0h24c1.1046 0 2 .8954 2 2v16c0 1.1046-.8954 2-2 2v-.5c.8284 0 1.5-.6716 1.5-1.5"/><path fill="#d82332" fill-rule="evenodd" d="M0 5.333h28V0H0zM0 20h28v-5.333H0z" clip-rule="evenodd"/></g><g clip-path="url(#c)"><g fill-rule="evenodd" clip-path="url(#d)" clip-rule="evenodd"><path fill="#064a89" d="m13.068 10.753-.284.265c.257.072.614-.012.756-.265zm-2.295.18c.193.193.511.17.704.048s.334-.13.454-.117c.013.109.041.248.09.386h-1.142a4 4 0 0 1-.106-.317m.211.515c.224-.106.453-.022.552.054.183.141.486.103.634.023.057.092.125.183.208.253h-1.222c-.05-.08-.157-.277-.173-.33m5.315.877c.054-.054.126-.144.174-.208-.079-.01-.171-.067-.268-.115-.18-.09-.352-.09-.505.016-.227.157-.511.196-.732.039-.242-.172-.467-.135-.656-.025-.189.109-.309.115-.423.115s-.234-.006-.423-.115-.414-.147-.656.026c-.221.157-.505.119-.732-.038-.153-.106-.325-.106-.505-.016-.098.049-.189.106-.268.116.047.064.12.154.174.208zm-.591.536c.05-.032.189-.138.259-.192-.076.016-.248-.04-.338-.087-.259-.135-.429-.122-.622-.019s-.464.157-.663.048-.341-.138-.445-.138-.246.029-.445.138-.47.055-.663-.048c-.192-.103-.363-.115-.622.019-.089.046-.262.103-.338.087.069.055.208.16.259.192zm-1.139-1.066c-.054-.029-.116-.096-.174-.182-.091-.138-.237-.215-.454-.215s-.363.077-.454.215c-.057.086-.12.153-.173.182zm-.358-.495c-.022-.038-.069-.16-.085-.225-.051.016-.148.022-.205.022s-.155-.006-.205-.022c-.016.064-.063.186-.085.225zm.526-.547.284.265c-.257.072-.614-.012-.756-.265zm2.364.18c-.192.193-.511.17-.704.048s-.334-.13-.454-.117a1.84 1.84 0 0 1-.09.386h1.142a4 4 0 0 0 .106-.317m-.171.515c-.224-.106-.453-.022-.552.054-.183.141-.485.103-.634.023-.057.092-.125.183-.208.253h1.222c.05-.08.157-.277.173-.33m-1.771 1.624a3.23 3.23 0 0 1-1.24.246 3.23 3.23 0 0 1-1.241-.246c.082-.01.191-.05.278-.099.142-.08.401-.096.524-.016s.271.16.439.16.316-.08.439-.16.382-.064.524.016c.088.05.196.09.278.1"/><path fill="#514537" d="M14.625 6.727c-.691-.144-1.313-.061-1.313.6v1.809c0 .199.004.224.237.279.505.119.552.132 1.102.26V7.814c-.429-.048-.593-.293-.593-.577 0-.276.189-.455.568-.51m-1.772 5.102c-.385 0-.789-.34-.789-.988v-1.61c0-.146.016-.166-.017-.2-.02-.02.022-.05.051-.079.043-.043.072-.079.014-.138-.058-.058-.033-.074.003-.11.036-.037.05-.074.016-.109-.035-.035-.043-.046-.005-.085s.022-.054-.009-.087-.046-.055-.006-.096c.04-.04.043-.046.088-.046h.189c.044 0 .045.014.008.051-.048.049-.062.068-.008.123s.052.074.017.109c-.052.053-.075.089-.022.143s.058.078.017.119-.044.077 0 .122c.034.035.036.055.036.116v1.644c0 .276.196.443.568.443s.499-.154.606-.257c-.069.494-.271.937-.757.937m1.087-1.576c.052.016.103.093.103.176h.103c0-.07-.03-.18-.084-.247a.23.23 0 0 0-.007-.048c.038-.048.093-.125.092-.199-.001-.046-.055-.045-.062-.008-.005.03-.025.077-.063.093 0-.059-.033-.13-.08-.13s-.081.071-.081.13c-.038-.016-.058-.063-.063-.093-.006-.037-.061-.039-.062.008-.002.074.054.151.092.199a.24.24 0 0 0-.007.048c-.054.067-.084.177-.084.247h.103c0-.083.051-.16.103-.176"/><path fill="#514537" d="M13.412 10.255c.052.016.103.093.103.176h.103c0-.07-.03-.18-.084-.247a.23.23 0 0 0-.007-.048c.038-.048.093-.125.092-.199-.001-.046-.055-.045-.062-.008-.005.03-.025.077-.063.093 0-.059-.033-.13-.08-.13s-.08.071-.08.13c-.038-.016-.058-.063-.063-.093-.006-.037-.061-.039-.062.008-.002.074.054.151.092.199a.24.24 0 0 0-.007.048c-.054.067-.084.177-.084.247h.103c0-.083.051-.16.103-.176m-.533 0c.052.016.103.093.103.176h.103c0-.07-.03-.18-.084-.247a.23.23 0 0 0-.007-.048c.038-.048.093-.125.092-.199-.001-.046-.055-.045-.062-.008-.005.03-.025.077-.063.093 0-.059-.033-.13-.08-.13s-.081.071-.081.13c-.038-.016-.058-.063-.063-.093-.006-.037-.061-.039-.062.008-.002.074.054.151.092.199a.23.23 0 0 0-.007.048c-.054.067-.084.177-.084.247h.103c0-.083.051-.16.103-.176m1.584 0c-.052.016-.103.093-.103.176h-.103c0-.07.03-.18.084-.247a.23.23 0 0 1 .007-.048c-.038-.048-.093-.125-.092-.199.001-.046.055-.045.062-.008.005.03.025.077.063.093 0-.059.033-.13.081-.13s.081.071.081.13c.038-.016.058-.063.063-.093.006-.037.061-.039.062.008.002.074-.054.151-.092.199a.23.23 0 0 1 .007.048c.055.067.085.177.085.247h-.103c0-.083-.05-.16-.102-.176m.529 0c-.052.016-.103.093-.103.176h-.103c0-.07.03-.18.084-.247a.24.24 0 0 1 .007-.048c-.038-.048-.093-.125-.091-.199.001-.046.055-.045.062-.008.005.03.025.077.063.093 0-.059.033-.13.081-.13s.081.071.081.13c.038-.016.058-.063.063-.093.006-.037.061-.039.062.008.002.074-.054.151-.092.199a.23.23 0 0 1 .007.048c.055.067.085.177.085.247h-.103c0-.083-.051-.16-.103-.176m-2.428.283h2.778v.133h-2.778z"/><path fill="#514537" d="M15.0221 11.8285c.3851 0 .7891-.34.7891-.9879v-1.61c0-.146-.0162-.1665.0174-.2005.0197-.02-.0221-.0497-.0505-.0786-.0426-.0433-.0719-.0793-.0143-.138.0577-.0584.0331-.0737-.0031-.1105-.0364-.037-.0505-.0737-.0158-.1091.0347-.0353.0426-.0465.0047-.085s-.0221-.0545.0095-.0866.0465-.0553.0063-.0962c-.0395-.04-.0425-.0465-.0884-.0465h-.1894c-.0441 0-.045.0136-.0078.0514.0481.0488.0623.068.0078.1234-.0544.0553-.052.0738-.0173.109.0521.053.0749.089.0221.1428-.0529.0537-.0577.0778-.0174.1186.0402.0409.0443.077 0 .1219-.0339.0345-.0363.0546-.0363.1155v1.6437c0 .2758-.1957.4426-.5681.4426s-.4986-.154-.606-.2566c.0694.4939.2714.9366.7575.9366"/><path fill="#eea339" d="M12.571 9.674v-.212l.555.212zm-.662.099-1.242-.17a3.4 3.4 0 0 1 .203-.785l1.04.42zm2.567-2.077.221-.922a3.25 3.25 0 0 1 .748.286l-.712 1.385.003-.696c-.082 0-.208-.012-.259-.054m-2.539 2.168-1.266-.078a3.4 3.4 0 0 0 .049.81s1.217.008 1.217 0zm-.012-.867c-.041-.054-.016-.083.029-.112.044-.029.038-.051.016-.093s-.044-.087-.003-.131.025-.064-.006-.096-.035-.067-.006-.093.022-.045.003-.071-.056-.078-.023-.111l-.516-.438a3.35 3.35 0 0 0-.434.682zm1.237.238-.615-.606c.087-.088.096-.103.034-.165-.067-.068-.069-.075.067-.214.047-.047.021-.08-.046-.08h-.406c-.035 0-.062.002-.087.028l-.491-.482a3.3 3.3 0 0 1 .622-.509l.922 1.506zm-.64.093v-.321c0-.045-.003-.063-.038-.098s-.017-.052.01-.091l.584.494v.29zm.547-.881v-.711c0-.462.026-.693.092-.739l-.053-.222c-.259.071-.51.167-.748.293zm2.279 1.228v-.212l-.555.212zm.609.099 1.242-.17a3.4 3.4 0 0 0-.202-.785l-1.04.42zm0 .09 1.266-.078a3.4 3.4 0 0 1-.049.81s-1.217.008-1.217 0zm-.04-.867c.041-.054.016-.083-.028-.112s-.038-.051-.016-.093.044-.087.003-.131-.025-.064.006-.096c.032-.032.035-.067.006-.093s-.022-.045-.003-.071.056-.078.023-.111l.516-.438c.171.207.317.436.434.682zm-1.124.238.615-.606c-.087-.088-.096-.103-.034-.165.067-.068.07-.075-.067-.214-.047-.047-.02-.08.046-.08h.406c.035 0 .062.002.087.028l.491-.482a3.3 3.3 0 0 0-.622-.509l-.921 1.506zm.555.093v-.321c0-.045.003-.063.038-.098s.017-.052-.009-.091l-.584.494v.29z"/><path fill="#d82332" d="M12.148 9.032c.022.022.032.045.032.099v1.716c0 .571.341.888.691.888.322 0 .533-.298.644-.645-.142.112-.35.148-.549.148-.23 0-.603-.157-.603-.497V9.077c0-.045-.044-.045-.215-.045m2.013-2.248c-.44-.045-.848.048-.848.658v1.621c0 .271-.021.239.205.295.41.103.456.116.953.232V7.941c-.424-.047-.608-.329-.608-.642 0-.249.108-.483.299-.515m1.575 2.248c-.022.022-.032.045-.032.099v1.716c0 .571-.341.888-.691.888-.322 0-.533-.298-.644-.645.142.112.35.148.549.148.23 0 .603-.157.603-.497V9.077c0-.045.044-.045.215-.045"/></g><g clip-path="url(#e)"><mask id="f" width="8" height="8" x="10" y="6" maskUnits="userSpaceOnUse" style="mask-type:luminance"><circle cx="14" cy="10" r="3" fill="#fff"/></mask><g mask="url(#f)"><circle cx="14" cy="15" r="3" fill="#064a89"/></g></g></g></g><defs><clipPath id="a"><path fill="#fff" d="M0 0h28v20H0z"/></clipPath><clipPath id="c"><path fill="#fff" d="M10.6667 6.6667h6.6667v6.6667h-6.6667z"/></clipPath><clipPath id="d"><path fill="#fff" d="M10.6667 6.6667h6.6667v6.6667h-6.6667z"/></clipPath><clipPath id="e"><path fill="#fff" d="M10.6667 6.6667h6.6667v6.6667h-6.6667z"/></clipPath></defs></svg>