<svg xmlns="http://www.w3.org/2000/svg" width="28" height="20" fill="none" viewBox="0 0 28 20"><g clip-path="url(#a)"><rect width="28" height="20" fill="#fff" rx="2"/><mask id="b" width="28" height="20" x="0" y="0" maskUnits="userSpaceOnUse" style="mask-type:luminance"><rect width="28" height="20" fill="#fff" rx="2"/></mask><g mask="url(#b)"><path fill="#128c4b" d="M0 0h28v20H0z"/><path fill="#fff" fill-rule="evenodd" d="M6.667 12h10.667v-.921c0-.496.522-.818.965-.596l.369.184V12h2a.667.667 0 0 1 .667.667v.667c0 .736-.597 1.333-1.333 1.333h-2a.667.667 0 0 1-.669-.667v-.667H8.276a.667.667 0 0 1-.471-.195zm0-3.862a.333.333 0 0 1 .098-.236l.333-.333a.333.333 0 0 0 0-.471l-.333-.333a.333.333 0 0 1-.098-.236v-.862A.333.333 0 0 1 7 5.333h.745c.141 0 .255.114.255.255 0 .269.362.354.482.114l.099-.199a.307.307 0 0 1 .275-.17h1.477a.333.333 0 1 1 0 .667h-.667a.333.333 0 0 0 0 .667h.667a.333.333 0 0 1 .334.333v2a.333.333 0 0 1-.333.333h-.667A.333.333 0 0 1 9.333 9v-.667A.333.333 0 0 1 9.667 8a.333.333 0 1 0 0-.667H9a.333.333 0 0 0-.333.333V9A.333.333 0 1 1 8 9v-.667a.333.333 0 1 0-.667 0V9a.333.333 0 1 1-.667 0zm10.666 0a.333.333 0 0 1 .098-.236l.333-.333a.333.333 0 0 0 0-.471l-.333-.333a.333.333 0 0 1-.098-.236v-.862a.333.333 0 0 1 .333-.333h.745c.141 0 .255.114.255.255 0 .269.362.354.482.114l.099-.199a.307.307 0 0 1 .275-.17H21A.333.333 0 1 1 21 6h-.667a.333.333 0 0 0 0 .667H21a.333.333 0 0 1 .333.333v2a.333.333 0 0 1-.333.333h-.667A.333.333 0 0 1 20 9v-.667A.333.333 0 0 1 20.333 8a.333.333 0 1 0 0-.667h-.667a.333.333 0 0 0-.333.333V9a.333.333 0 1 1-.667 0v-.667a.333.333 0 0 0-.667 0V9a.333.333 0 1 1-.667 0zM16 6.33c0 .186-.104.441-.241.577l-.185.185a.337.337 0 0 0 0 .481l.185.185c.133.133.241.383.241.577v.66c0 .186-.143.336-.336.336h-.66c-.186 0-.336-.143-.336-.336v-.66c0-.186-.062-.213-.155-.027l-.357.715c-.085.171-.311.309-.485.309h-1.339C12.148 9.333 12 9.179 12 9c0-.184.143-.333.337-.333h.66c.186 0 .336-.155.336-.333 0-.184-.143-.333-.336-.333h-.66C12.151 8 12 7.857 12 7.673V5.66c0-.181.143-.327.337-.327h.66c.186 0 .336.143.336.337v.66c0 .186-.155.337-.333.337-.184 0-.333.155-.333.333 0 .184.143.333.336.333h.66c.186 0 .337-.157.337-.33V5.664c0-.182.155-.33.333-.33.184 0 .333.143.333.337v.66c0 .186.155.337.333.337.184 0 .333-.143.333-.336v-.66c0-.186.155-.336.333-.336.184 0 .333.143.333.337z" clip-rule="evenodd"/></g></g><defs><clipPath id="a"><path fill="#fff" d="M0 0h28v20H0z"/></clipPath></defs></svg>