<svg xmlns="http://www.w3.org/2000/svg" width="28" height="20" fill="none" viewBox="0 0 28 20"><g clip-path="url(#a)"><rect width="28" height="20" fill="#fff" rx="2"/><mask id="b" width="28" height="20" x="0" y="0" maskUnits="userSpaceOnUse" style="mask-type:luminance"><rect width="28" height="20" fill="#fff" rx="2"/></mask><g mask="url(#b)"><path fill="#e4233b" d="M0 0h28v20H0z"/><path fill="#34cd4e" fill-rule="evenodd" d="m0 0 12 10L0 20zm28 0L16 10l12 10z" clip-rule="evenodd"/><path fill="#fff" d="M16.9621 6.3938A4.648 4.648 0 0 0 14 5.3332a4.648 4.648 0 0 0-2.9621 1.0604l-12.3204-8.31L-2.7736.2943 9.5458 8.604A4.67 4.67 0 0 0 9.3333 10c0 .4863.0744.9553.2125 1.3961l-12.3194 8.3096 1.4911 2.2108 12.3204-8.3102A4.648 4.648 0 0 0 14 14.6667a4.648 4.648 0 0 0 2.9621-1.0604l12.3204 8.3102 1.4912-2.2108-12.3195-8.3096A4.66 4.66 0 0 0 18.6667 10c0-.4863-.0744-.9553-.2125-1.3961L30.7737.2943l-1.4912-2.2107z"/><path fill="#df2239" fill-rule="evenodd" d="m14 8.6667-.9428.2761L13.3333 8l-.2761-.9428.9428.2761.9428-.2761L14.6667 8l.2761.9428zM12 12l-.9428.2761.2761-.9428-.2761-.9428.9428.2762.9428-.2762-.2761.9428.2761.9428zm3.0572.2761L16 12l.9428.2761-.2761-.9428.2761-.9428-.9428.2762-.9428-.2762.2761.9428z" clip-rule="evenodd"/></g></g><defs><clipPath id="a"><path fill="#fff" d="M0 0h28v20H0z"/></clipPath></defs></svg>