<svg xmlns="http://www.w3.org/2000/svg" width="28" height="20" fill="none" viewBox="0 0 28 20"><g clip-path="url(#a)"><rect width="28" height="20" fill="#fff" rx="2"/><mask id="b" width="28" height="20" x="0" y="0" maskUnits="userSpaceOnUse" style="mask-type:luminance"><rect width="28" height="20" fill="#fff" rx="2"/></mask><g mask="url(#b)"><path fill="#f22a46" d="M0 0h28v20H0z"/><circle cx="14" cy="10" r="3" fill="#fff04d"/><path fill="#fff04d" fill-rule="evenodd" d="M12.3682 17.1495 14 14.7136l1.6318 2.4359.4133-2.9027 2.5271 1.4866-.887-2.7945 2.9219.2429-2.0117-2.1329L21.3333 10l-2.7379-1.0489 2.0117-2.133-2.9219.243.887-2.7945-2.5271 1.4866-.4133-2.9027L14 5.2864l-1.6318-2.4359-.4134 2.9027-2.527-1.4866.8869 2.7945-2.9218-.243 2.0117 2.133L6.6666 10l2.738 1.0489-2.0117 2.1329 2.9218-.2429-.887 2.7945 2.5271-1.4866zM14 14.6667c2.5773 0 4.6667-2.0894 4.6667-4.6667S16.5773 5.3333 14 5.3333 9.3333 7.4227 9.3333 10 11.4227 14.6667 14 14.6667" clip-rule="evenodd"/></g></g><defs><clipPath id="a"><path fill="#fff" d="M0 0h28v20H0z"/></clipPath></defs></svg>