<svg width="28" height="20" viewBox="0 0 28 20" fill="none" xmlns="http://www.w3.org/2000/svg">
<g clip-path="url(#clip0_5138_1678)">
<rect width="28" height="20" rx="2" fill="white"/>
<mask id="mask0_5138_1678" style="mask-type:luminance" maskUnits="userSpaceOnUse" x="0" y="0" width="28" height="20">
<rect width="28" height="20" rx="2" fill="white"/>
</mask>
<g mask="url(#mask0_5138_1678)">
<path fill-rule="evenodd" clip-rule="evenodd" d="M0 20H28V14.6667H0V20Z" fill="#2D754D"/>
<path fill-rule="evenodd" clip-rule="evenodd" d="M0 9.33333H28V0H0V9.33333Z" fill="#25B1EB"/>
<path fill-rule="evenodd" clip-rule="evenodd" d="M0 14.6667H28V9.33333H0V14.6667Z" fill="#FECB2F"/>
<path fill-rule="evenodd" clip-rule="evenodd" d="M21.3333 6L20.3128 7.13035L20.3905 5.60948L18.8696 5.68716L20 4.66667L18.8696 3.64618L20.3905 3.72386L20.3128 2.20299L21.3333 3.33333L22.3538 2.20299L22.2761 3.72386L23.797 3.64618L22.6667 4.66667L23.797 5.68716L22.2761 5.60948L22.3538 7.13035L21.3333 6Z" fill="#FECB2F"/>
</g>
</g>
<defs>
<clipPath id="clip0_5138_1678">
<rect width="28" height="20" fill="white"/>
</clipPath>
</defs>
</svg>
