<svg xmlns="http://www.w3.org/2000/svg" width="28" height="20" fill="none" viewBox="0 0 28 20"><g clip-path="url(#a)"><rect width="28" height="20" fill="#d01129" rx="2"/><g fill-rule="evenodd" clip-path="url(#b)" clip-rule="evenodd"><path fill="#fff101" d="M13.8882 10.0409c.6609 0 1.1967-.5626 1.1967-1.2564 0-.694-.5358-1.2565-1.1967-1.2565s-1.1967.5625-1.1967 1.2565c0 .6938.5357 1.2564 1.1967 1.2564"/><path fill="#fff" d="M12.7973 8.2793c.3389-.1136.7786.0186 1.0679.31.3071-.0587.615-.4635.7105-.824-.1049-1.198-.8512-2.1055-1.0782-2.7282-.0718-.1969-.4045-.5063-.7505-.3622-.2845.1185-.4284.0263-1.384.5267-.5167.2706-.9516.5485-1.1807.597-.2293.0484-.4712.0915-.6546-.0593-.2522-.2074-.535-.2648-.7017-.4211-.2041-.1916-.335-.3362-.4731-.3948-.138-.0587-.3718.0717-.273.382.2226.701.7474.8145.9727 1.4696.1064.3098.2576.5425.5956.3078s.8156-.5465 1.63-.5793c.5469-.0222 1.1121-.2333 1.3717-.5797-.0025.2997.0981.5453.0716.9352a5.8 5.8 0 0 0 .0758 1.4203"/><path fill="#fff101" d="M13.438 8.3122c-.1004-.5897.0816-.6748-.1357-1.366-.1308-.4157-.2143-.9367-.2164-1.179l-.0874.0266c.0021.2424.0858.7635.2164 1.1792.2103.6684.0468.7699.1267 1.3092a1 1 0 0 1 .0964.03"/><path fill="#fff101" d="M12.924 8.248a1.3 1.3 0 0 0-.015-.221c.154-.039.417.11.41 0-.002-.035.001-.149.003-.209-.003.094-.369-.065-.432-.024-.068-.343.016-.696-.037-.912.122-.035.347.042.319-.059-.016-.051-.045-.18-.065-.26.019.084-.159.014-.219.062-.031-.186-.077-.539-.076-.7l-.16-.002c-.002.3.098.545.072.935s-.022.875.076 1.42a2 2 0 0 1 .126-.032m-.407-2.738c-.239.362-.808.611-1.335.667-.617.065-1.031.28-1.336.491-.026-.049-.073-.076-.115-.109-.446-.347-.263-.817-.094-.75-.064-.026-.101-.061-.136-.087-.059-.046-.229.13-.208.409.009.119.106.294.185.387-.144-.027-.213-.066-.298-.173a.36.36 0 0 1 .159-.053c-.017-.043-.04-.09-.046-.161-.07-.001-.156.025-.23.078-.177-.185-.359-.333-.465-.551-.169-.35.003-.571.226-.337-.204-.192-.335-.336-.473-.395s-.372.072-.273.382c.223.701.747.815.973 1.47.106.31.263.551.596.308.044-.032.056-.04.094-.068.105-.064.273.043.255.277.085-.214.031-.28-.042-.409-.054.03-.049-.146-.082-.169.19-.124.42-.248.711-.336.011.105.038.216.13.2a2.7 2.7 0 0 1 .152-.031c-.092.016-.118-.106-.128-.21a3.04 3.04 0 0 1 .454-.073 2.44 2.44 0 0 0 .572-.12c.028.101.084.27.179.237a2.1 2.1 0 0 0 .242-.097c-.132.066-.184-.122-.215-.222.241-.11.446-.26.569-.439z"/><path fill="#fff101" d="M13.5732 5.6876c.1162-.0947.2161-.1394.1158-.34-.1641-.3278-.0622-.3289-.4213-.5374-.3659-.2122-.3196-.2288-.8037-.0496-.1191.044-.0925.089-.0716.2703.0448.3907.1301.7054.208 1.0269.3043-.0418.7725-.2069.9728-.3702"/><path fill="#fff101" d="M12.438 5.599c-.064-.192-.047-.166.185-.107.076-.253.18-.466.239-.671.066-.229.086-.27.182-.214.123.072.259.147.347.193.154.079.131.107.058.233s-.314.381-.462.648c.196.145.258.158.119.22-.155.07-.414.156-.523.176-.02-.126-.084-.296-.145-.477m-2.297 1.803-.015.197-.138-.132-.155.111.01-.197-.178-.057.152-.115-.067-.183.179.055.095-.169.072.181.185-.029-.09.173.136.133z"/><path fill="#fff" d="M14.017 10.029c-.2632-.2515-.3741-.7173-.2782-1.1261-.202-.2498-.6899-.3275-1.035-.234-.9357.6944-1.3111 1.8268-1.7113 2.3446-.1265.1636-.2154.6208.0766.8634.24.1994.2359.3763 1.1264.995.4815.3346.9281.5911 1.0828.7753s.3111.3827.2784.6247c-.045.3331.049.6191.0035.8486-.056.2813-.1098.4728-.0891.6276s.245.3022.4517.0573c.4667-.5529.298-1.0869.7258-1.6193.2021-.2517.3186-.5056-.0439-.6956-.3627-.1898-.8587-.4684-1.293-1.1923-.2916-.4862-.7483-.8946-1.164-.9575.2485-.1474.4009-.3619.7357-.5327a5.23 5.23 0 0 0 1.1336-.779"/><path fill="#fff101" d="M13.7237 9.43c-.4361.3862-.5974.263-1.0588.8063-.2774.3268-.6654.6633-.8644.7863l.0657.0661c.199-.1231.587-.4596.8645-.7863.4462-.5254.6116-.4275 1.0166-.77a1.1 1.1 0 0 1-.0236-.1024"/><path fill="#fff101" d="M13.928 9.93a1.2 1.2 0 0 0-.174.124c-.109-.12-.117-.434-.205-.372-.028.019-.123.073-.174.101.08-.044.131.368.197.405-.249.233-.582.333-.733.49-.09-.094-.139-.336-.208-.261-.035.04-.125.131-.182.189.06-.059.091.138.161.168-.138.122-.406.34-.54.42l.079.146c.249-.147.401-.362.736-.533a5.23 5.23 0 0 0 1.134-.779 2 2 0 0 1-.089-.099m-2.06 1.738c.418.036.909.43 1.218.881.362.529.747.797 1.073.969-.028.049-.026.105-.032.159-.063.579-.542.647-.572.46.011.071 0 .122-.004.167-.008.077.222.143.441-.016.094-.068.19-.243.227-.362.049.145.052.227.006.357-.049-.028-.095-.075-.123-.118-.027.037-.054.082-.11.122.035.065.099.13.179.17-.064.254-.095.493-.222.698-.204.329-.472.283-.391-.036-.056.281-.11.473-.089.628s.245.302.452.057c.467-.553.298-1.087.726-1.619.202-.252.323-.515-.044-.696-.048-.024-.06-.03-.103-.051-.106-.064-.1-.269.101-.37-.219.03-.246.112-.316.242.051.034-.095.118-.098.159-.197-.111-.414-.258-.633-.479.081-.062.159-.143.1-.218a3 3 0 0 1-.102-.123c.059.076-.028.16-.109.222a3.3 3.3 0 0 1-.287-.376 2.64 2.64 0 0 0-.385-.46c.069-.075.181-.212.106-.281a2.2 2.2 0 0 0-.201-.172c.12.087-.009.228-.075.307-.211-.164-.437-.276-.646-.297z"/><path fill="#fff101" d="M11.3218 10.6977c-.1363-.0583-.0691-.1372-.1843.0543-.1884.313-.2248.2409-.2171.6718.0078.4386.0889.3686.4789.7192.2997-.236.6575-.5927.8837-.8243-.1866-.2558-.7265-.5203-.9612-.621"/><path fill="#fff101" d="M11.986 11.696c-.126.154-.113.126-.181-.114-.246.058-.436.124-.634.173-.222.055-.266.057-.268-.059a10 10 0 0 0-.014-.412c-.012-.18.023-.173.163-.169.141.004.433.04.727.042.022-.25.001-.314.122-.218.135.107.335.299.407.387-.094.081-.202.224-.321.371m2.635 1.186.17-.085-.04.192.169.086-.168.089.042.191-.171-.081-.117.153-.044-.19-.187-.001.114-.156-.116-.153.188-.004.042-.19z"/><path fill="#fff" d="M14.8503 8.0451c-.0758.365-.4047.6988-.7897.816-.1051.3086.0748.7909.3245 1.0582 1.0405.5035 2.1623.2786 2.7894.3836.1983.0331.6198-.1146.674-.5013.0445-.318.1924-.4026.2575-1.5217.0352-.6052.0234-1.1396.0981-1.3722s.1601-.4743.3761-.5656c.2972-.1256.486-.3542.6983-.4275.2599-.0898.4447-.1366.562-.2328.1174-.0961.1268-.3738-.1785-.4392-.6895-.148-1.0455.2724-1.6986.1496-.3086-.058-.5764-.037-.5517.3877.0247.4248.043 1.015-.337 1.7718-.2553.5084-.3637 1.1278-.2079 1.5372-.2458-.1523-.4988-.1836-.8071-.4025-.3084-.2191-.7105-.4578-1.2094-.6413"/><path fill="#fff101" d="M14.5028 8.6113c.5367.2034.5157.4116 1.1946.5596.4082.089.8797.2734 1.0808.3928l.0215-.0929c-.2009-.1194-.6726-.3037-1.0807-.3928-.6565-.143-.6585-.3424-1.1434-.5395a1 1 0 0 1-.0728.0728"/><path fill="#fff101" d="M14.813 8.176c.062.038.128.073.189.097-.045.159-.299.324-.204.373.03.016.122.076.171.108-.076-.05.238-.303.236-.381.317.11.566.363.771.422-.032.129-.208.295-.111.32.05.012.171.048.247.071-.079-.024.068-.152.058-.231.169.064.483.199.616.281l.081-.145c-.246-.152-.499-.184-.807-.402-.308-.219-.71-.458-1.209-.641a2 2 0 0 1-.037.131m2.461.999c-.179-.398-.1-1.041.118-1.548.255-.593.284-1.077.263-1.46.054.001.1-.029.148-.051.509-.232.805.17.665.29.053-.045.101-.061.14-.08.067-.031.007-.273-.233-.393-.103-.051-.296-.051-.412-.026.095-.117.161-.16.292-.184a.4.4 0 0 1-.036.171c.044.006.094.008.156.039.036-.064.057-.155.051-.248.241-.068.454-.16.687-.147.373.021.47.288.166.374.26-.09.445-.137.562-.233s.127-.374-.178-.439c-.689-.148-1.045.272-1.699.15-.309-.058-.586-.036-.552.388.005.056.005.07.009.119 0 .128-.172.226-.356.093.134.185.216.168.358.167.002-.064.145.028.18.009.007.234-.006.506-.078.815-.092-.043-.197-.073-.23.018a3 3 0 0 1-.05.154c.033-.092.146-.054.238-.011a3.4 3.4 0 0 1-.167.449 2.76 2.76 0 0 0-.187.58c-.097-.025-.265-.058-.285.045a2.3 2.3 0 0 0-.041.269c.012-.153.193-.106.291-.085-.03.274-.009.536.078.737z"/><path fill="#fff101" d="M16.5586 10.0094c.02.1532.007.2663.2225.2753.3524.0148.3238.0604.6754-.162.3578-.2264.3673-.1817.4615-.7115.0232-.1302-.0272-.1287-.1872-.2003-.3445-.1547-.6456-.1441-.9497-.234-.1178.2976-.257.7688-.2225 1.0325"/><path fill="#fff101" d="M17.241 9.058c.19.038.16.04-.004.222.171.195.301.333.441.488.156.174.18.213.086.273a9 9 0 0 0-.332.219c-.142.1-.154.066-.221-.064s-.165-.412-.31-.68c-.217.106-.259.156-.241-.001.02-.176.079-.454.116-.563.114.045.286.071.466.107m-.34-2.991-.155-.113.178-.06-.014-.196.157.108.136-.134.018.196.185.03-.135.135.093.171-.185-.025-.068.183-.097-.169-.178.057z"/><g fill="#000" clip-path="url(#c)"><path d="M13.8602 8.5949c-.2897-.2919-.7269-.4201-1.0607-.3084l-.0093-.0058c-.0877-.4873-.1075-.958-.076-1.4223.0123-.1796.0017-.311-.0335-.5454a6 6 0 0 1-.0217-.151 1.8 1.8 0 0 1-.0164-.2166c-.2562.325-.7984.5428-1.3641.5657-.6693.027-1.0872.2037-1.6263.578-.2995.2081-.4705.0843-.6064-.3115-.09-.2616-.1998-.4127-.463-.6908l-.0203-.0214c-.2756-.2913-.3955-.4613-.4896-.7575-.0879-.2764.102-.4684.2827-.3916a.5.5 0 0 1 .0372.0179c.0582.0311.1179.0771.197.1493.027.0247.1063.1004.1677.159v.0001c.0337.0322.062.0592.0734.0699a.6.6 0 0 0 .028.0246.12.12 0 0 0-.0429-.0181l-.0685-.0653c-.0614-.0586-.1404-.1341-.1673-.1587-.0782-.0714-.1371-.1168-.194-.1472a.4.4 0 0 0-.036-.0173c-.1691-.072-.3475.1084-.2635.3725.0932.2935.212.4619.4862.7516l.0202.0214c.2646.2796.3755.4321.4664.6965.1332.3877.2952.505.5847.304.5411-.3759.9614-.5536 1.6337-.5807.5716-.0231 1.1187-.2465 1.3663-.5767l.013.0048a1.7 1.7 0 0 0 .0162.236c.0052.04.0071.0536.0217.1507.0353.2355.046.3679.0336.5489-.0312.4603-.0119.927.0743 1.4099l-.0079.0026.0094.0058-.0015-.0084c.338-.109.7761.0211 1.0609.3124.2876-.055.6035-.4362.7045-.8158-.0499-.5698-.2339-1.085-.5647-1.7179-.0511-.0976-.1905-.3539-.2581-.4782l-.0371-.0683c-.1055-.1973-.1721-.3363-.2178-.4618-.0947-.2598-.4489-.4795-.741-.3578a1 1 0 0 1-.1207.0415 2 2 0 0 1-.0925.0231c-.3889.089-.6042.1654-1.1702.4618l-.0478.0252c-.1088.0576-.3709.2023-.5341.2923l-.0001.0001-.1348.0743c-.2242.1207-.3645.1843-.4658.2057-.335.0708-.5043.0678-.6605-.0607a1.3 1.3 0 0 0-.1596-.1118 2 2 0 0 0-.0457-.0266l.0046-.0057-.002-.0102q.0259.0145.0504.0292c.0584.0352.1116.0722.1613.1131.1516.1247.3177.1276.6486.0577.0995-.021.2391-.0842.462-.2044.0142-.0076.0654-.0359.1345-.074h.0001l.0001-.0001c.1631-.09.4255-.2349.5345-.2926l.0478-.0252c.5672-.297.7836-.3738 1.1736-.463a2 2 0 0 0 .0918-.023 1 1 0 0 0 .1191-.041c.3004-.125.6626.0995.76.3666.0454.1247.1117.2631.2169.4598l.0369.068c.0676.1242.2072.3808.2584.4787.3317.6345.5163 1.1515.5662 1.7265-.1026.3875-.4224.7734-.7225.8276M9.3049 5.5824l.0156.0086-.0003-.0017a.2.2 0 0 0-.0153-.0069m-.0527-.0109a.15.15 0 0 1 .0527.0109 3 3 0 0 0-.0863-.045l-.0801-.0393-.0004-.0032a.3.3 0 0 0-.0363-.0148l-.0282-.0137c-.0916-.0455-.1541-.0816-.2047-.1213v-.0008l-.01-.0072.01.008-.0003.0117-.0048.0034-.0123-.0098h.0001a.1.1 0 0 1 .0086.0062l.0003-.0125-.0089.0062-.001-.0006a.6.6 0 0 1-.0294-.0258L8.816 5.319c-.0936-.0192-.2005.0804-.2613.2406l.0108.0092.2983-.2086c.0465.036.1027.069.181.1087-.114-.0056-.2096.1008-.3319.3729l.0111.0092.4098-.3383c.0309.015.0637.031.0785.0385zm.047.025a2 2 0 0 0-.047-.025c-.1299-.0021-.2535.178-.3276.4986l.0126.0068.3807-.47-.0132-.0074.0005-.0005.0086.004-.0024-.0118-.0062.0078zm-.3528.4455c.083-.334.2198-.4972.3527-.4455l.0056.003zm0 0-.0076.0317-.0127-.0067zm.1726-.5366.0148.0073.0058-.0048-.0011-.0098-.0194-.0095-.0173-.0085a.21.21 0 0 0-.057-.0112l.0226.0113.0293.0143c-.1277-.042-.2251.039-.3571.3242l-.0246.0203.0111.0093.0135-.0296zm.002-.0016a.3.3 0 0 0-.0243-.0093l.0163.008.006.003zm0 0 .0111.005-.0015-.013zm-.5434.0382.274-.1916-.001-.0007c-.0876-.0568-.2041.0297-.273.1923m0 0-.0202.014.0108.0093z"/><path d="M13.4174 7.7605c-.0104.226-.0068.3477.0277.5503l-.0095.0086a2 2 0 0 0-.04-.014 1.4 1.4 0 0 1-.0612-.022c-.0263-.1777-.0285-.2884-.0189-.497l.002-.0433c.0115-.2681-.0088-.4477-.1095-.7677-.1214-.3863-.2144-.9136-.2115-1.189l.0967-.0194c.0023.2666.095.7921.216 1.1768.1012.322.1218.5034.1102.7733zm.023.5445-.0096.0085-.0021-.0128zm-.0973-.0303a1 1 0 0 1 .0856.026c-.0328-.1964-.036-.3186-.0258-.541l.0019-.0433c.0116-.268-.0088-.4477-.1095-.7678-.1214-.3861-.2144-.9132-.2074-1.1742l-.0821.0193c.0023.2663.0951.792.216 1.1769.1013.3219.1218.5033.1102.7732l-.0019.0433c-.0096.2077-.0074.3175.013.4876"/><path d="M11.7186 5.0106c-.0816.0367-.0809.167-.015.3698.0528.1622.1462.366.2586.5742l.0133-.0058-.247-.9332zm1.1972 3.015c.0106.065.0157.1428.015.222l-.0058.0073-.025.0056c-.0364.0081-.0777.0174-.1098.0202-.0877-.4873-.1075-.958-.076-1.4223.0123-.1796.0017-.311-.0335-.5454a6 6 0 0 1-.0217-.151c-.0115-.0895-.017-.1637-.009-.2458l.1673.0094c-.0008.1383.0358.4563.0742.6878.0207-.0115.0498-.0147.0956-.0138l.0187.0005c.0426.0012.059.0008.074-.0034.0172-.0048.0229-.0135.0188-.0314l.0142-.0037.026.1076.0021.0085c.0175.0723.029.1172.0369.1434.0092.0337-.0061.0534-.0412.0605-.0248.005-.0489.0048-.1183.001a1.5 1.5 0 0 0-.1254-.0024q-.02.0004-.0344.0002c.0216.0866.023.1654.0146.3873-.0081.2156-.007.3257.0114.4558q.0043.0302.0098.0593c.0273-.0104.076-.0019.1996.0272l.0083.002c.0756.0177.1151.0254.1496.0277.0416.0028.0616-.0047.0623-.0223l-.001.0286c-.0131.0083-.0342.0108-.0622.009-.0355-.0024-.0755-.0102-.1519-.0281l-.0083-.002c-.1306-.0307-.1774-.0378-.1979-.0245l-.0109-.005a1.4 1.4 0 0 1-.0118-.0696c-.0186-.1314-.0197-.2422-.0115-.4587.0083-.2201.0069-.2983-.009-.3921.032-.0092.0709-.0116.1251-.0097.0127.0004.0241.001.0444.002.0679.0038.0916.004.1147-.0007.0275-.0056.0366-.0172.0301-.041a3 3 0 0 1-.0371-.1442l-.0021-.0084-.0181-.0749q.0114-.013.0062-.0363l-.0141.0037.0079.0326a.046.046 0 0 1-.0231.0134c-.0169.0047-.0338.0051-.0781.0039l-.0186-.0005c-.0501-.001-.0786.0032-.0962.0171l-.0116-.0047c-.0392-.2331-.0771-.5601-.0691-.6941l-.1527-.0093a1.7 1.7 0 0 0 .0162.236c.0052.04.0071.0536.0217.1507.0353.2355.046.3679.0336.5489a6.15 6.15 0 0 0 .0666 1.4124 1.8 1.8 0 0 1 .121-.0307l-.0001.0062.0058-.0074-.0057.0012a3 3 0 0 0-.0094-.2217c.0409-.0103.0904-.0087.1539.0024.0213.0038.0426.0082.0725.0149.0917.0205.1053.0232.1323.0237.0334.0007.0469-.0089.0452-.0336-.0016-.0263-.0004-.0964.0023-.1809a.032.032 0 0 0 .0155-.0281l-.0145-.0006.0145.0006c-.0033.0963-.005.1795-.0032.208.0023.0355-.0192.0507-.0601.05-.0284-.0006-.0419-.0033-.1351-.0242a1.5 1.5 0 0 0-.0718-.0147.7.7 0 0 0-.1426-.0114m-1.199-2.997-.0023-.009.0099.005zm.2284.8629c-.0986-.1879-.1801-.3693-.2278-.516-.0612-.1883-.064-.3097-.0006-.347zm0 0q.0146.0277.0296.0556l-.0133.0058zm-.1841.257-.0004.0001.0049.0165a2.1 2.1 0 0 0 .2067-.0946l-.0055-.0162-.0003.0001h-.0001zm0 0a2.1 2.1 0 0 0 .2052-.094h.0001l.0055.0161-.2061.0944zm-1.1791.228-.0002.0001.0039.017.1535-.0475-.0034-.017h-.0003a2.5 2.5 0 0 0-.1534.0474zm0 0 .0039.017a2.5 2.5 0 0 1 .1531-.0474l-.0034-.017h-.0001z"/><path d="M11.183 6.167c.557-.058 1.105-.322 1.33-.663l.013.003.018.12c-.119.174-.32.326-.568.432l.013.042c.006.017.011.032.016.046.044.116.095.166.171.131a2 2 0 0 1-.057.026c-.053-.006-.094-.061-.128-.151a1 1 0 0 1-.016-.047c-.003-.01-.014-.044-.009-.052.25-.114.448-.265.564-.431l-.016-.096.01-.015-.013-.003.003.018c-.234.339-.777.597-1.33.655-.535.056-.945.222-1.343.487-.017-.031-.036-.05-.087-.086a1 1 0 0 1-.026-.02c-.202-.157-.294-.354-.28-.537.009-.128.073-.223.146-.232a.4.4 0 0 0 .043.021l.005-.014a.095.095 0 0 0-.048-.006.4.4 0 0 1-.039-.025 2 2 0 0 1-.056-.043c-.07-.055-.214.168-.196.402.008.106.094.278.183.383l-.007.013c-.147-.028-.217-.068-.3-.187a.364.364 0 0 1 .152-.053l.004.01.006-.01-.01.001-.011-.026a.4.4 0 0 1-.022-.07.18.18 0 0 1-.002-.05h-.007c-.071.001-.152.028-.229.076l-.034-.035c-.02-.021-.073-.074-.11-.11l-.037-.037c-.143-.144-.224-.245-.284-.37-.08-.166-.09-.317-.033-.395.037-.053.097-.063.164-.032l.024.022.037.036c-.088-.075-.168-.079-.212-.017-.052.073-.043.218.035.38.06.123.14.223.281.366l.037.037.111.111c.012.012.023.024.025.034.068-.048.149-.076.227-.073-.018-.244.135-.48.219-.414l.003.003c.01.008.041.032.052.04a.38.38 0 0 0 .079.044l-.005.014c-.08-.032-.163.067-.174.213-.013.177.077.37.275.524.007.006.013.01.026.02.052.038.073.058.081.089.39-.27.802-.436 1.339-.492m-1.845.131c-.052.005-.108.023-.149.04.079.1.143.139.273.167a1 1 0 0 1-.124-.206m-.543-1.02a.32.32 0 0 0-.071-.047 14 14 0 0 0-.144-.136c-.078-.071-.137-.117-.194-.147a.5.5 0 0 0-.036-.017c-.169-.072-.347.108-.263.373.093.294.212.462.486.752l.02.021c.265.28.376.432.466.697.062.179.127.297.21.358.099.072.22.059.374-.053l.052-.038h.001a3 3 0 0 0 .041-.03c.117-.071.261.048.267.24a1 1 0 0 1-.015.04l.014.004a.4.4 0 0 0 .001-.044c.039-.111.036-.182 0-.259a.7.7 0 0 0-.026-.049L9.98 6.95c-.006-.01-.024-.043-.02-.05-.019.01-.033.002-.044-.02-.007-.015-.012-.033-.02-.069l-.002-.009c-.01-.046-.016-.065-.024-.071v-.013c.225-.147.452-.258.723-.331.014.137.049.206.121.193q.051-.012.102-.022a.085.085 0 0 0 .053.006 2.7 2.7 0 0 0-.152.031c-.085.015-.124-.062-.129-.2-.256.078-.48.187-.702.33.009.012.014.032.023.073l.002.009c.007.035.012.052.018.066.007.015.014.019.034.016l.031.054a.7.7 0 0 1 .026.05c.042.09.041.172-.015.312l-.014-.004c.016-.207-.129-.339-.243-.27a3 3 0 0 1-.041.03h-.001l-.052.038c-.158.116-.287.13-.391.054-.086-.063-.153-.183-.216-.365-.09-.262-.2-.413-.463-.691l-.02-.021c-.276-.291-.395-.461-.49-.757-.088-.276.102-.468.283-.392a.5.5 0 0 1 .037.018c.058.031.118.077.197.149.027.025.106.1.168.159zm2.07 1.261.002.015zm0 0c-.071.013-.105-.061-.12-.204a4.4 4.4 0 0 1 .447-.064 2.45 2.45 0 0 0 .574-.12c.038.168.095.266.179.237a2.1 2.1 0 0 0 .243-.098l-.006-.014-.005.002.005-.002.006.014-.005.002a.115.115 0 0 1-.063.012 2.3 2.3 0 0 1-.18.069c-.071.025-.125-.068-.17-.232-.192.057-.388.098-.579.115a3.05 3.05 0 0 0-.455.073c.007.121.031.197.078.22a3 3 0 0 1 .051-.009m-2.073-1.27a.5.5 0 0 1 .036.035l-.01.011-.036-.035a.5.5 0 0 1 .036.034l.01-.011zm4.951 3.627c-.096.409.017.871.276 1.119v.012a5.2 5.2 0 0 1-1.135.78c-.117.06-.217.127-.326.215a4 4 0 0 0-.088.073l-.085.072c-.085.072-.149.12-.217.162.396.071.847.455 1.149.958.357.595.712.887 1.29 1.19.321.168.305.386.046.707-.172.214-.24.387-.34.774-.109.421-.184.608-.386.846-.184.218-.437.142-.464-.061-.01-.072-.004-.155.016-.269.009-.051.045-.227.064-.314l.01-.048a1 1 0 0 0 .006-.036.14.14 0 0 0 .007.046l-.008.041a18 18 0 0 0-.063.313c-.02.113-.025.193-.016.264.025.19.263.262.439.053.199-.236.274-.421.383-.84.1-.388.169-.563.343-.779.253-.315.269-.521-.042-.684-.58-.304-.937-.597-1.296-1.195-.305-.508-.763-.894-1.159-.954l-.003-.014c.075-.044.141-.094.233-.171.019-.016.088-.074.085-.072a4 4 0 0 1 .089-.073c.11-.088.211-.156.329-.216a5.2 5.2 0 0 0 1.126-.772l.006.006v-.011l-.006.006c-.259-.253-.371-.716-.273-1.121-.189-.234-.662-.331-1.025-.233-.35.26-.641.592-.917 1.017-.076.117-.23.385-.38.645-.156.271-.307.534-.362.612a2 2 0 0 1-.051.069c-.167.216-.171.648.075.853q.017.014.034.029c.033.03.064.061.099.101l.042.048.077.088c.054.06.107.115.171.175.165.156.387.333.703.552.161.112.666.446.664.444.224.151.35.249.42.333.226.269.308.425.28.631a1.44 1.44 0 0 0-.012.256l-.007-.001-.007.007a1.46 1.46 0 0 1 .012-.264c.027-.2-.054-.353-.277-.619-.069-.082-.195-.18-.417-.33.003.002-.503-.332-.664-.444-.316-.22-.54-.397-.705-.553a2.8 2.8 0 0 1-.171-.176 7 7 0 0 1-.077-.089l-.042-.048a1.3 1.3 0 0 0-.098-.1 1 1 0 0 0-.033-.029c-.253-.211-.249-.652-.078-.874a2 2 0 0 0 .051-.069c.055-.078.205-.339.36-.609.15-.261.305-.53.381-.647.277-.426.57-.76.923-1.022.371-.1.849-.003 1.044.243m-.207 5.648-.001-.018-.001.001a.2.2 0 0 0 .002.017m.018.054a.17.17 0 0 1-.017-.053c.002.053.007.112.013.182l.001.012-.002.002a.4.4 0 0 0 .006.04c.011.14.014.212.005.279l-.001.001a.2.2 0 0 0-.001.015l.002-.015.01-.005.006.003-.002.016q0-.005.001-.011l-.01.006.01.005v.003a1 1 0 0 1-.006.038l-.001.007c.031.095.167.142.329.117l.002-.014-.321-.167c.007-.057.006-.118-.001-.219.052.107.188.141.474.116l.002-.015-.484-.203-.001-.01a6 6 0 0 1-.01-.127m-.003-.055a3 3 0 0 0 .003.055c.063.119.274.141.575.048l-.001-.015-.578-.111.001.016h-.001l-.001-.01-.009.008.01.002zm.544.098c-.317.091-.52.049-.544-.098v-.007zm0 0 .03-.009.001.015zm-.529.111-.001-.017-.007-.003-.008.006.004.042a.24.24 0 0 0 .019.057l-.004-.06c.029.137.145.185.446.163l.029.012.002-.015-.031.003zm-.002-.001a.3.3 0 0 0 .005.027l-.002-.026zm0 0-.001-.013-.01.008zm.303.475-.295-.153v.003c-.001.107.128.169.295.15m0 0 .022.011.002-.014z"/><path d="M13.262 9.734c.214-.116.303-.173.457-.31l.012.005c.002.012.005.028.009.044.005.024.01.049.013.066-.138.117-.219.167-.418.275l-.041.022c-.209.115-.35.228-.557.472-.258.304-.646.652-.875.787l-.064-.078c.219-.135.606-.482.863-.785.208-.244.351-.359.561-.475zm.455-.302.012.004-.009.008zm.002.013c-.15.132-.24.19-.451.303l-.041.022c-.209.115-.351.229-.557.472-.258.304-.646.652-.865.776l.057.065c.219-.135.606-.482.863-.785.208-.244.35-.359.561-.475l.041-.022c.198-.107.278-.157.413-.265a1 1 0 0 1-.021-.091m-1.122 2.452.009-.012q.091.07.172.147l-.009.012zm0 0q.09.07.17.146l.01-.012-.171-.146zm.963 1.111.001.001.011-.012-.011.012zm-.121-.127.121.127a3.3 3.3 0 0 1-.121-.127m0 0v.001zm.012-.011-.011.011.012-.011zm.001 0 .121.128a3 3 0 0 1-.121-.127m0 0"/><path d="m11.8748 11.6733-.004-.0135.0175.0017zm.8509-.0421c.0121.0294.01.0631-.0047.1003-.0134.0339-.036.069-.0685.1098a.34.34 0 0 1-.0552.0556c-.2194-.1702-.443-.2751-.6374-.2977l-.0716.0623c.3964.0436.881.4085 1.2053.8825.3134.4582.6548.748 1.0733.9774-.0176.0309-.0229.0583-.028.1224l-.0001.0017-.0029.0322c-.0286.2617-.1453.4443-.3027.5235-.1099.0552-.2201.0453-.2645-.016a.4.4 0 0 0-.0046-.0494l-.0144.0024a.11.11 0 0 0 .019.047.6.6 0 0 1-.0051.0878c-.0019.0164-.0028.0237-.0035.0319-.01.0914.2452.1108.4298-.0229.0836-.0605.1821-.2243.2243-.3578l.0138-.0002c.0502.1478.0518.2315-.0046.3665-.0444-.0247-.0884-.0668-.1196-.1115l.0059-.0084h-.0005l-.0113-.0003.0057.0085.0002.0002-.0025.0033-.0194.0271a.4.4 0 0 1-.0348.0422.2.2 0 0 1-.0208.0195.064.064 0 0 1-.0259.0135l.0033.0059c.0363.064.0995.1243.1767.1702a6 6 0 0 0-.0451.1924c-.058.2558-.0975.3781-.1781.508-.0966.1557-.2164.2398-.3095.2282-.0621-.0078-.1006-.0562-.1082-.1329l.0177-.0856c-.0184.1188.0185.1941.0923.2033.0865.0108.2016-.07.2955-.2213.0794-.128.1185-.2491.1762-.5033.0289-.1275.0319-.1405.049-.1839-.0737-.0374-.1374-.097-.1738-.1697-.1927.1382-.4628.1174-.4508.0073l.0035-.032c.0064-.0546.0073-.0881.0006-.133l.0144-.0024c.0138.0883.1366.115.2628.0516.1527-.0768.2665-.2548.2945-.5114.001-.0089.0016-.0167.0028-.0318l.0002-.0017c.0053-.0664.0109-.0954.033-.1182-.4175-.2197-.7607-.511-1.0757-.9713-.3268-.4778-.8175-.8439-1.2121-.878l-.0041-.0135.0904-.0758c.2027.0212.4287.1272.6402.3a2 2 0 0 0 .0452-.0542c.0317-.0397.0536-.0737.0662-.1058.0216-.0546.0137-.0984-.031-.1326q.0244.0183.0492.0381m.8554 1.0664c.0049.0547-.0458.1137-.142.181a3.3 3.3 0 0 1-.2875-.3772c-.1095-.1662-.2413-.3239-.3842-.4698.1125-.1225.1621-.218.106-.2702a2.3 2.3 0 0 0-.1477-.1302.123.123 0 0 0-.0408-.0505c.0646.0481.1302.1044.1982.1693.0663.0617.0138.1626-.1056.2813.1434.1356.276.2943.386.4614.0913.1384.1868.2632.2766.3745.1107-.0847.1541-.1522.108-.211a2 2 0 0 0 .033.0414m-.0218-.0511-.0112.0097zm.6243.813c-.229-.1294-.4305-.2785-.6231-.4728.111-.0738.1552-.148.1004-.2176a3 3 0 0 1-.1016-.1226.096.096 0 0 1 .0218.0511q.0338.0415.0688.0815c.0467.0593.0068.1263-.0988.2069.1952.2094.4004.3605.634.4917l.0107-.0063c.0007-.0114.013-.0255.0521-.0631l.0067-.0064c.0227-.022.0353-.036.0431-.0495.011-.0193.0096-.0361-.0072-.0472.0047.0046.026-.0345.0352-.0515l.0025-.0045c.0547-.0994.1081-.1428.235-.1658-.1563.1016-.1825.2917-.065.3627.017.0084.0289.0142.0452.0224l.0005.0003.0577.0287c.1697.0836.2412.1876.2311.3135-.0084.1058-.0725.2243-.1897.3701-.1738.2163-.2428.3911-.3432.7795-.1082.4188-.1832.6036-.3825.8397-.1759.2084-.4136.1365-.439-.0532-.0094-.0706-.0039-.1512.0157-.264.0065-.0371.0276-.14.0455-.2267a.36.36 0 0 1 .0036-.0892l.0001-.0004.0099-.0479.0141.0036a.5.5 0 0 0-.01.0483l.0001-.0003.01-.0484-.0141-.0036a.5.5 0 0 0-.0101.0487c-.0181.0869-.0545.262-.0634.3132-.0199.1142-.0255.1963-.0158.2688.0271.2028.2802.2794.4643.0613.2012-.2384.2769-.425.3857-.8459.0998-.3864.1682-.5595.3402-.7736.119-.1481.1844-.2689.1932-.3787.0106-.1329-.0647-.2426-.2395-.3287a4 4 0 0 1-.0576-.0286l-.0005-.0003a3 3 0 0 0-.0449-.0221c-.114-.069-.0775-.2671.1011-.3562l-.004-.0145c-.1613.0218-.2239.0661-.2863.1796-.0053.0096-.0203.038-.0291.0546l-.0062.0118c.0116.0163.0123.0237.0049.0366-.0068.0118-.0188.0251-.0405.0461l-.0066.0064c-.0347.0334-.0494.0488-.0545.0625m.3796-.3761a.4.4 0 0 1 .0365-.0208l.004.0145a1 1 0 0 0-.0405.0063m-1.8783-1.5027-.0037-.0028-.0084.0125v-.0001l.0083-.0125zm1.4277 2.5849c.0301.0446.0736.0871.1074.1155.0427-.1212.0435-.1995.0011-.3313a1 1 0 0 1-.1085.2158"/><path d="m14.624 12.874-.115-.146-.013.003-.042.19-.181-.002-.005.012.117.153-.114.146.006.012.187.001.037.184.013.003.117-.153.162.083.01-.009-.042-.191.164-.08v-.014l-.169-.086.044-.183-.01-.008zm.158-.062-.157.078-.009-.002-.11-.139.004-.015-.013.003.009.012-.045.182-.173.004-.009-.012-.006.012h.014l.108.15-.105.144-.014-.001.006.012.009-.012.18.007.041.176-.009.012.013.003-.003-.014.117-.143.158.075.003.015.01-.009-.013-.006-.036-.184.155-.082.013.007v-.014l-.013.007-.16-.087zm0 0 .013-.007-.01-.009zm-.723-3.958c.386-.117.71-.451.785-.81l.01-.006c.446.164.844.381 1.211.642.152.108.243.152.51.26.127.052.202.086.279.132-.14-.396-.048-.997.216-1.523.312-.622.376-1.091.336-1.768-.022-.376.166-.47.56-.396.257.048.441.025.788-.072l.027-.007c.394-.109.588-.134.884-.07.272.058.335.327.182.453-.058.048-.133.085-.249.127-.036.013-.149.051-.23.078l-.084.029-.012.004a.14.14 0 0 0 .031-.027l.062-.021c.081-.027.194-.065.23-.078.115-.042.188-.078.245-.125.144-.118.084-.37-.175-.426-.293-.063-.486-.039-.877.07l-.027.008c-.349.097-.534.121-.794.072-.387-.073-.564.016-.543.38.04.68-.024 1.151-.338 1.776-.267.531-.356 1.141-.207 1.531l-.01.009c-.082-.051-.158-.086-.294-.141-.268-.109-.36-.152-.513-.261-.364-.259-.758-.474-1.2-.637l.002-.008-.01.006.008.003c-.079.362-.405.695-.788.809-.098.289.058.767.321 1.049.142.069.289.126.443.172.473.143.861.175 1.63.177.395.001.549.007.714.034.262.044.62-.168.666-.495a1.2 1.2 0 0 1 .034-.161c.01-.035.053-.175.049-.161a3 3 0 0 0 .055-.209c.054-.239.094-.547.119-.989.01-.171.013-.238.026-.602.016-.456.031-.641.073-.772.109-.34.196-.492.38-.57a1.34 1.34 0 0 0 .217-.118l.003.007.009.003a1.36 1.36 0 0 1-.223.121c-.179.076-.264.225-.372.561-.041.128-.056.313-.072.768-.013.364-.016.432-.026.603-.026.443-.065.752-.12.992a3 3 0 0 1-.056.211c.004-.014-.039.126-.048.161a1.2 1.2 0 0 0-.034.159c-.047.336-.413.553-.682.508-.164-.027-.318-.033-.712-.034-.771-.002-1.16-.033-1.634-.177a3 3 0 0 1-.447-.175c-.268-.287-.427-.771-.321-1.071m4.763-2.636-.015.01h.002a.2.2 0 0 0 .013-.01m.035-.042a.16.16 0 0 1-.035.042 3 3 0 0 0 .075-.052c.015-.011.047-.034.077-.057l.003.001a.3.3 0 0 0 .03-.026l.03-.022a1.5 1.5 0 0 1 .133-.088.7.7 0 0 1 .067-.035l.003.002a.17.17 0 0 0 .028-.014 1 1 0 0 0-.031.013l-.009-.005-.001-.007.016-.007v.002l-.011.005.012.007-.001-.011a.1.1 0 0 0 .014-.008l.018-.006.023-.008c.065-.077.031-.22-.083-.352l-.015.005.026.374a.7.7 0 0 0-.065.034 1.5 1.5 0 0 0-.119.078c.061-.101.022-.241-.142-.488l-.013.006.074.542-.076.056zm-.044.03a2 2 0 0 0 .044-.03c.067-.117-.02-.319-.247-.547l-.012.008.197.581.013-.008v.001l-.008.006.011.004-.003-.01zm-.191-.543c.234.242.3.448.191.543l-.005.004zm0 0-.022-.023.012-.008zm.356.425-.013.01.001.008.009.004.016-.012.017-.012a.23.23 0 0 0 .038-.046l-.015.011-.032.023c.098-.095.08-.224-.089-.487l-.004-.032-.013.005.018.027zm0 .003a.3.3 0 0 0 .02-.017l-.016.012-.004.003zm0 0-.01.008.011.005zm.242-.513.024.343.014-.006c.089-.057.071-.2-.038-.337m0 0-.002-.025-.015.005z"/><path d="M14.6097 8.6632a2 2 0 0 0-.1093-.0448l-.0023-.013a2 2 0 0 0 .0334-.031 1.4 1.4 0 0 1 .0468-.043 2 2 0 0 1 .0557.0235c.1409.062.2026.0993.3891.225.2237.1505.3783.221.6974.2907.3795.0828.8609.2617 1.0863.402l-.0322.0977c-.221-.1312-.7008-.3096-1.0787-.392-.321-.07-.4773-.1412-.7024-.2928-.1848-.1245-.2453-.1612-.3838-.2223m-.1021-.0461-.0023-.013.0116.0044zm.0735-.0736a.9.9 0 0 1-.0642.065q.0515.0198.0985.0406c.1394.0616.2005.0986.386.2235.2237.1507.3783.2212.6974.2908.3793.0826.8606.2616 1.0723.3985l.025-.0844c-.2205-.131-.7004-.3095-1.0785-.392-.321-.07-.4773-.1412-.7024-.2928-.1858-.1252-.2469-.1622-.3869-.2237l-.0029-.0013c-.017-.0075-.0341-.015-.0443-.0242"/><path d="M17.4917 7.1457a3 3 0 0 0 .0488-.1607l-.0162-.004v.0003h-.0001l-.0484.1598-.0001.0001v.0002zm-.016-.0045.016.0043.0487-.1603-.0161-.004-.0001.0002a3 3 0 0 1-.0484.1597zm-2.4755 1.1385a1.2 1.2 0 0 1-.1905-.0973l-.0032-.009.0081-.026c.0114-.0368.0244-.079.0381-.1095.4459.164.844.3814 1.2111.6421.1523.1082.2432.1516.5104.2599.1372.0556.2136.0912.2989.153l-.0914.1473c-.114-.07-.3956-.1963-.6045-.2763-.0008.0216-.0103.0464-.0279.0786-.004.0074-.0083.0148-.0141.0249-.0275.047-.0329.057-.0376.0735-.0058.0195-.0017.0297.0158.0351l-.004.0147h-.0002l.004-.0147-.0309-.0091a.054.054 0 0 1 .0013-.0305c.0054-.0183.0108-.0284.0391-.077l.0139-.0245c.0195-.0357.0281-.061.0257-.0812l.0097-.0081c.2106.08.5002.2096.6071.2841l.084-.1342c-.0819-.0507-.1576-.086-.2942-.1414-.2682-.1086-.3598-.1524-.5133-.2614a5.5 5.5 0 0 0-1.1983-.6458 2 2 0 0 1-.0351.1254l-.0051-.0031.0032.009.0019-.0059a2.7 2.7 0 0 0 .1875.1024.2.2 0 0 1-.0081.0237c-.0184.0461-.0501.0918-.1028.1541l-.0254.0297-.0303.0355a.5.5 0 0 0-.0423.0556c-.0216.0343-.0217.0533.001.0649.0226.0119.0827.05.1479.0926a.033.033 0 0 0 .0154.0282l.0077-.013h.0001l-.0078.013c-.0731-.0482-.1452-.0942-.1698-.1071-.0326-.0167-.0324-.046-.0067-.087a.5.5 0 0 1 .0436-.0573l.0305-.0358.0252-.0294c.0517-.0611.0827-.1058.1003-.1499l.0005-.0011c.0028-.0071.0054-.0137.0115-.0117m-.0274.4664-.0231-.0153c-.0003-.0156.0078-.0356.0227-.0594.0191-.0307.0458-.0637.0967-.1218l.0065-.0075c.094-.1073.1226-.1451.1219-.1707l.0096-.0075c.1175.0408.2273.0998.3698.192l.0051.0034h.0001c.0287.019.1687.1114.2086.136.0751.046.1335.075.1918.0995a.38.38 0 0 1-.0359.086 1 1 0 0 1-.0324.0554l-.0007.0011c-.044.0718-.0527.086-.0591.1013l-.0049.0125-.0002.0006c-.0119.0315-.0075.0473.0168.0536a3 3 0 0 1 .1453.0406l.0057.0017.0505.015.0147.0043q.005.0168.0269.0238l-.0456-.0134-.0505-.015-.0056-.0017a3 3 0 0 0-.1447-.0404c-.0345-.009-.0418-.035-.0271-.0741l.0004-.001.0052-.0133c.0066-.0156.0156-.0303.0596-.1022l.0011-.0017a1 1 0 0 0 .0319-.0547 1 1 0 0 0 .0164-.0317.3.3 0 0 1 .0232-.0412c-.0546-.0157-.1141-.0452-.1901-.0919a14 14 0 0 1-.2094-.1364h-.0001l-.0046-.003c-.1381-.0894-.245-.1473-.358-.1875-.005.0301-.036.0694-.125.171l-.0065.0074c-.0503.0575-.0767.0901-.0953.1198-.0222.0356-.0257.057-.0117.0664m3.1129-.0475c.0105-.0925-.0972-.157-.2975-.1985-.1602-.0331-.375-.05-.6028-.052l-.0019.015.8932.242zm-.0139-.0106.0085.0023-.009.0065zm-.8258-.2237c.2042.0042.3945.0209.5394.0508.1859.0385.2874.0966.2864.173zm0 0-.0607-.0009.0019-.015zm-.143-.0623q.0144-.1172.04-.2278l-.0164-.0028-.0401.2285zm-.0001.0003-.0165-.002a2.2 2.2 0 0 1 .0403-.2293l.0164.0028z"/></g></g></g><defs><clipPath id="a"><path fill="#fff" d="M0 0h28v20H0z"/></clipPath><clipPath id="b"><path fill="#fff" d="M8 2.6667h12v14.6667H8z"/></clipPath><clipPath id="c"><path fill="#fff" d="M8 4.6239h12v12H8z"/></clipPath></defs></svg>