<svg xmlns="http://www.w3.org/2000/svg" width="28" height="20" fill="none" viewBox="0 0 28 20"><g clip-path="url(#a)"><path fill="#fff" d="M0 2C0 .8954.8954 0 2 0h24c1.1046 0 2 .8954 2 2v16c0 1.1046-.8954 2-2 2H2c-1.1046 0-2-.8954-2-2z"/><mask id="b" width="28" height="20" x="0" y="0" maskUnits="userSpaceOnUse" style="mask-type:luminance"><rect width="28" height="20" fill="#fff" rx="2"/></mask><g mask="url(#b)"><path fill="#f5f5f5" d="M26 19.5v.5H2v-.5zm1.5-1.5V2c0-.8284-.6716-1.5-1.5-1.5H2C1.1716.5.5 1.1716.5 2v16c0 .8284.6716 1.5 1.5 1.5v.5c-1.1046 0-2-.8954-2-2V2C0 .8954.8954 0 2 0h24c1.1046 0 2 .8954 2 2v16c0 1.1046-.8954 2-2 2v-.5c.8284 0 1.5-.6716 1.5-1.5"/><path fill="#ec3938" fill-rule="evenodd" d="M0 20h28v-6.6667H0z" clip-rule="evenodd"/><path fill="#51b422" fill-rule="evenodd" d="M0 6.6667h28V0H0z" clip-rule="evenodd"/><path fill="#159940" fill-rule="evenodd" d="M13.6068 11.7151a.168.168 0 0 0 .0469-.1156l.0113-1.972a.2925.2925 0 0 0-.2924-.2942c-.2605 0-.391-.315-.2068-.4991l.5985-.5985a.3333.3333 0 0 1 .4714 0l.5976.5976c.1846.1845.0539.5-.2071.5a.293.293 0 0 0-.2929.293v1.9713c0 .0442.0176.0866.0489.1179.1049.105.0306.2845-.1179.2845h-.536c-.1484 0-.2242-.1779-.1215-.2849" clip-rule="evenodd"/><path fill="#258de7" fill-rule="evenodd" d="m0 0 9.3333 10L0 20z" clip-rule="evenodd"/></g></g><defs><clipPath id="a"><path fill="#fff" d="M0 0h28v20H0z"/></clipPath></defs></svg>