<svg xmlns="http://www.w3.org/2000/svg" width="28" height="20" fill="none" viewBox="0 0 28 20"><g clip-path="url(#a)"><rect width="28" height="20" fill="#fff" rx="2"/><mask id="b" width="28" height="20" x="0" y="0" maskUnits="userSpaceOnUse" style="mask-type:luminance"><rect width="28" height="20" fill="#fff" rx="2"/></mask><g mask="url(#b)"><path fill="#05ab41" d="M0 0h28v20H0z"/><path fill="#fdd216" fill-rule="evenodd" d="M3.5317 10.5597c-.406-.2627-.406-.8567 0-1.1194L13.6378 2.901a.667.667 0 0 1 .7244 0l10.1061 6.5393c.406.2627.406.8567 0 1.1194L14.3622 17.099a.667.667 0 0 1-.7244 0z" clip-rule="evenodd"/></g><g clip-path="url(#c)"><circle cx="14" cy="10" r="5" fill="#053087"/><mask id="d" width="10" height="10" x="9" y="5" maskUnits="userSpaceOnUse" style="mask-type:luminance"><circle cx="14" cy="10" r="5" fill="#fff"/></mask><g mask="url(#d)"><path stroke="#fff" stroke-linecap="square" d="M8.78 8.7802c.7326-.5933 3.097-.0312 5.3041.5575 2.207.5887 4.5089 1.8227 5.095 2.5465"/></g></g></g><defs><clipPath id="a"><path fill="#fff" d="M0 0h28v20H0z"/></clipPath><clipPath id="c"><path fill="#fff" d="M9.3333 5.3333h10v10h-10z"/></clipPath></defs></svg>