<svg xmlns="http://www.w3.org/2000/svg" width="28" height="20" fill="none" viewBox="0 0 28 20"><g clip-path="url(#a)"><rect width="28" height="20" fill="#fff" rx="2"/><mask id="b" width="28" height="20" x="0" y="0" maskUnits="userSpaceOnUse" style="mask-type:luminance"><rect width="28" height="20" fill="#fff" rx="2"/></mask><g mask="url(#b)"><path fill="#108b4d" d="M0 0h28v20H0z"/><path fill="#ffc941" fill-rule="evenodd" d="M19.8137 7.7333c.0485.3075.0738.6227.0738.9437 0 3.3138-2.6863 6.0001-6 6.0001-3.3138 0-6-2.6863-6-6 0-.3211.0252-.6363.0737-.9438.4527 2.8654 2.9336 5.0563 5.9263 5.0563 2.9926 0 5.4735-2.1909 5.9262-5.0563M14 8.5641 12.3519 9.739l.6081-1.9305-1.6267-1.2044 2.024-.0182L14 4.6667l.6428 1.9192 2.0239.0182L15.04 7.8085l.6081 1.9305z" clip-rule="evenodd"/></g></g><defs><clipPath id="a"><path fill="#fff" d="M0 0h28v20H0z"/></clipPath></defs></svg>