<svg xmlns="http://www.w3.org/2000/svg" width="28" height="20" fill="none" viewBox="0 0 28 20"><g clip-path="url(#a)"><path fill="#fff" d="M0 2C0 .8954.8954 0 2 0h24c1.1046 0 2 .8954 2 2v16c0 1.1046-.8954 2-2 2H2c-1.1046 0-2-.8954-2-2z"/><mask id="b" width="28" height="20" x="0" y="0" maskUnits="userSpaceOnUse" style="mask-type:luminance"><rect width="28" height="20" fill="#fff" rx="2"/></mask><g mask="url(#b)"><path fill="#f5f5f5" d="M26 19.5v.5H2v-.5zm1.5-1.5V2c0-.8284-.6716-1.5-1.5-1.5H2C1.1716.5.5 1.1716.5 2v16c0 .8284.6716 1.5 1.5 1.5v.5c-1.1046 0-2-.8954-2-2V2C0 .8954.8954 0 2 0h24c1.1046 0 2 .8954 2 2v16c0 1.1046-.8954 2-2 2v-.5c.8284 0 1.5-.6716 1.5-1.5"/><path fill="#083d96" fill-rule="evenodd" d="M0 5.3333h28V0H0z" clip-rule="evenodd"/><path fill="#37ae39" fill-rule="evenodd" d="M0 14.6667h28V9.3333H0z" clip-rule="evenodd"/><path fill="#ffd13f" fill-rule="evenodd" d="M0 20h28v-5.3333H0z" clip-rule="evenodd"/><path fill="#e42346" fill-rule="evenodd" d="M10.6667 20h6.6666V0h-6.6666z" clip-rule="evenodd"/><path fill="#ffd03b" fill-rule="evenodd" d="m4.6667 3.4467-1.1756.838.4337-1.377-1.1603-.859 1.4437-.013.4585-1.369.4584 1.369 1.4437.013-1.1603.859.4337 1.377z" clip-rule="evenodd"/></g></g><defs><clipPath id="a"><path fill="#fff" d="M0 0h28v20H0z"/></clipPath></defs></svg>