<svg xmlns="http://www.w3.org/2000/svg" width="28" height="20" fill="none" viewBox="0 0 28 20"><g clip-path="url(#a)"><path fill="#fff" d="M0 2C0 .8954.8954 0 2 0h24c1.1046 0 2 .8954 2 2v16c0 1.1046-.8954 2-2 2H2c-1.1046 0-2-.8954-2-2z"/><mask id="b" width="28" height="20" x="0" y="0" maskUnits="userSpaceOnUse" style="mask-type:luminance"><rect width="28" height="20" fill="#fff" rx="2"/></mask><g mask="url(#b)"><path fill="#f5f5f5" d="M26 19.5v.5H2v-.5zm1.5-1.5V2c0-.8284-.6716-1.5-1.5-1.5H2C1.1716.5.5 1.1716.5 2v16c0 .8284.6716 1.5 1.5 1.5v.5c-1.1046 0-2-.8954-2-2V2C0 .8954.8954 0 2 0h24c1.1046 0 2 .8954 2 2v16c0 1.1046-.8954 2-2 2v-.5c.8284 0 1.5-.6716 1.5-1.5"/><path fill="#ffcb49" fill-rule="evenodd" d="M0 5.3333h28V0H0z" clip-rule="evenodd"/><path fill="#dc1d34" fill-rule="evenodd" d="M0 14.6667h28V9.3333H0z" clip-rule="evenodd"/><path fill="#4985d4" fill-rule="evenodd" d="M0 20h28v-5.3333H0z" clip-rule="evenodd"/><path fill="#4ba343" fill-rule="evenodd" d="m0 20 13.3333-10L0 0z" clip-rule="evenodd"/><path fill="#fff" fill-rule="evenodd" d="M3.3333 10c0-1.8638 1.2748-3.43 3-3.874a4 4 0 0 0-1-.126c-2.2091 0-4 1.7909-4 4s1.7909 4 4 4c.3453 0 .6804-.0438 1-.126-1.7252-.4441-3-2.0102-3-3.874m4-2a.6667.6667 0 1 0 0-1.3333.6667.6667 0 0 0 0 1.3333M8 10a.6667.6667 0 1 1-1.3334 0A.6667.6667 0 0 1 8 10m-.6667 3.3333a.6666.6666 0 1 0 0-1.3333.6667.6667 0 0 0 0 1.3333" clip-rule="evenodd"/></g></g><defs><clipPath id="a"><path fill="#fff" d="M0 0h28v20H0z"/></clipPath></defs></svg>