<svg xmlns="http://www.w3.org/2000/svg" width="28" height="20" fill="none" viewBox="0 0 28 20"><g clip-path="url(#a)"><rect width="28" height="20" fill="#fff" rx="2"/><mask id="b" width="28" height="20" x="0" y="0" maskUnits="userSpaceOnUse" style="mask-type:luminance"><rect width="28" height="20" fill="#fff" rx="2"/></mask><g mask="url(#b)"><path fill="#094995" fill-rule="evenodd" d="M0 17.3334h28V2.6667H0z" clip-rule="evenodd"/><path fill="#d5182f" fill-rule="evenodd" d="M0 2.667h28V0H0zM0 20h28v-2.667H0z" clip-rule="evenodd"/><circle cx="14" cy="10" r="6" fill="#fff"/><path fill="#118014" d="M14.3281 13.3174a.6667.6667 0 0 1 .1289 1.3271 4.7 4.7 0 0 1-.457.0225 4.7 4.7 0 0 1-.457-.0225.6667.6667 0 0 1 .1289-1.3271c.1076.0105.2174.0156.3281.0156s.2205-.0051.3281-.0156m-3.8437-1.2949a.667.667 0 0 1 .9385.0918c.1387.1688.294.3241.4628.4628a.6669.6669 0 0 1-.8466 1.0303 4.7 4.7 0 0 1-.6465-.6465.667.667 0 0 1 .0918-.9384m6.0927.0918a.6669.6669 0 0 1 1.0303.8466 4.7 4.7 0 0 1-.6465.6465.6669.6669 0 0 1-.8466-1.0303 3.36 3.36 0 0 0 .4628-.4628M9.3331 10q.0002-.2312.0224-.457a.667.667 0 0 1 .7285-.5987.6666.6666 0 0 1 .5986.7276A3.4 3.4 0 0 0 10.667 10c0 .1107.0051.2205.0156.3281a.6667.6667 0 0 1-1.3271.1289A4.7 4.7 0 0 1 9.333 10m7.9999 0c0-.1107-.0051-.2205-.0156-.3281a.6666.6666 0 0 1 .5986-.7276.667.667 0 0 1 .7285.5987 4.7 4.7 0 0 1 .0225.457c0 .1539-.0078.3066-.0225.457a.6667.6667 0 0 1-1.3271-.1289A3.4 3.4 0 0 0 17.333 10m-6.2939-3.6074a.667.667 0 0 1 .9384.0918.667.667 0 0 1-.0918.9385 3.36 3.36 0 0 0-.4628.4628.667.667 0 0 1-.9385.0918.667.667 0 0 1-.0918-.9384 4.7 4.7 0 0 1 .6465-.6465m4.9834.0918a.667.667 0 0 1 .9384-.0918c.236.1939.4526.4105.6465.6465a.667.667 0 0 1-.0918.9384.667.667 0 0 1-.9385-.0918 3.36 3.36 0 0 0-.4628-.4628.667.667 0 0 1-.0918-.9385M14 5.333c.1539 0 .3066.0078.457.0225a.6668.6668 0 0 1-.1289 1.3271A3.4 3.4 0 0 0 14 6.667c-.1107 0-.2205.0051-.3281.0156a.6668.6668 0 0 1-.1289-1.3271A4.7 4.7 0 0 1 14 5.333"/></g></g><defs><clipPath id="a"><path fill="#fff" d="M0 0h28v20H0z"/></clipPath></defs></svg>