<svg xmlns="http://www.w3.org/2000/svg" width="28" height="20" fill="none" viewBox="0 0 28 20"><g clip-path="url(#a)"><path fill="#fff" d="M0 2C0 .8954.8954 0 2 0h24c1.1046 0 2 .8954 2 2v16c0 1.1046-.8954 2-2 2H2c-1.1046 0-2-.8954-2-2z"/><mask id="b" width="28" height="20" x="0" y="0" maskUnits="userSpaceOnUse" style="mask-type:luminance"><rect width="28" height="20" fill="#fff" rx="2"/></mask><g mask="url(#b)"><path fill="#f5f5f5" d="M26 19.5v.5H2v-.5zm1.5-1.5V2c0-.8284-.6716-1.5-1.5-1.5H2C1.1716.5.5 1.1716.5 2v16c0 .8284.6716 1.5 1.5 1.5v.5c-1.1046 0-2-.8954-2-2V2C0 .8954.8954 0 2 0h24c1.1046 0 2 .8954 2 2v16c0 1.1046-.8954 2-2 2v-.5c.8284 0 1.5-.6716 1.5-1.5"/><path fill="#ff3131" d="M20 0h8v20h-8z"/><path fill="#ff3131" fill-rule="evenodd" d="M0 20h8V0H0zM16.112 9.222c-.233.233-.627.022-.562-.301L16 6.667l-1.333.667-.667-2-.667 2L12 6.667l.451 2.254c.065.323-.329.534-.563.301l-.319-.319a.333.333 0 0 0-.471 0l-.431.431-1.333-.667L10 10l-.431.431a.333.333 0 0 0 0 .471l1.764 1.764h2l.333 2h.667l.333-2h2l1.764-1.764a.334.334 0 0 0 0-.471L18 10l.667-1.333-1.333.667-.431-.431a.333.333 0 0 0-.471 0z" clip-rule="evenodd"/></g></g><defs><clipPath id="a"><path fill="#fff" d="M0 0h28v20H0z"/></clipPath></defs></svg>