<svg xmlns="http://www.w3.org/2000/svg" width="28" height="20" fill="none" viewBox="0 0 28 20"><g clip-path="url(#a)"><rect width="28" height="20" fill="#fff" rx="2"/><mask id="b" width="28" height="20" x="0" y="0" maskUnits="userSpaceOnUse" style="mask-type:luminance"><rect width="28" height="20" fill="#fff" rx="2"/></mask><g mask="url(#b)"><path fill="#30c6e0" d="M0 0h28v20H0z"/><circle cx="14" cy="10" r="4" fill="#ffcd4b"/><path fill="#ffcd4b" fill-rule="evenodd" d="M12.368 17.15 14 14.714l1.632 2.436.413-2.903 2.527 1.487-.887-2.794 2.922.243-2.012-2.133L21.333 10l-2.738-1.049 2.012-2.133-2.922.243.887-2.794-2.527 1.487-.413-2.903L14 5.286 12.368 2.85l-.413 2.903-2.527-1.487.887 2.795-2.922-.243 2.012 2.133L6.667 10l2.738 1.049-2.012 2.133 2.922-.243-.887 2.795 2.527-1.487zM14 14.667c2.577 0 4.667-2.089 4.667-4.667S16.577 5.333 14 5.333 9.333 7.423 9.333 10s2.09 4.667 4.667 4.667m-12.667-13a.333.333 0 0 1 .333-.333h.667a.333.333 0 0 1 .333.333v.667a.333.333 0 0 1-.333.333h-.667a.333.333 0 0 1-.333-.333zm0 2.667A.333.333 0 0 1 1.667 4h.667a.333.333 0 0 1 .333.333V5a.333.333 0 0 1-.333.333h-.667A.333.333 0 0 1 1.333 5zm.333 2.333A.333.333 0 0 0 1.333 7v.667c0 .184.149.333.333.333h.667a.333.333 0 0 0 .333-.333V7a.333.333 0 0 0-.333-.333zm-.333 3a.333.333 0 0 1 .333-.333h.667a.333.333 0 0 1 .333.333v.667a.333.333 0 0 1-.333.333h-.667a.333.333 0 0 1-.333-.333zM1.667 12a.333.333 0 0 0-.333.333V13c0 .184.149.333.333.333h.667A.333.333 0 0 0 2.667 13v-.667A.333.333 0 0 0 2.333 12zm-.333 3a.333.333 0 0 1 .333-.333h.667a.333.333 0 0 1 .333.333v.667a.333.333 0 0 1-.334.333h-.667a.333.333 0 0 1-.333-.333zm.333 2.333a.333.333 0 0 0-.333.333v.667c0 .184.149.333.333.333h.667a.333.333 0 0 0 .333-.333v-.667a.333.333 0 0 0-.333-.333zm1-1A.333.333 0 0 1 3 16h.667c.184 0 .333.149.333.333V17a.333.333 0 0 1-.333.333H3A.333.333 0 0 1 2.667 17zm.333-3a.333.333 0 0 0-.333.333v.667c0 .184.149.333.333.333h.667A.333.333 0 0 0 4 14.333v-.667a.333.333 0 0 0-.333-.333zM2.667 11A.333.333 0 0 1 3 10.667h.667c.184 0 .333.149.333.333v.667a.333.333 0 0 1-.333.333H3a.333.333 0 0 1-.333-.333zM3 8a.333.333 0 0 0-.333.333V9c0 .184.149.333.333.333h.667A.333.333 0 0 0 4 9v-.667A.333.333 0 0 0 3.667 8zm-.333-2.333A.333.333 0 0 1 3 5.333h.667c.184 0 .333.149.333.333v.667a.333.333 0 0 1-.333.333H3a.333.333 0 0 1-.333-.333zm.333-3A.333.333 0 0 0 2.667 3v.667c0 .184.149.333.333.333h.667A.333.333 0 0 0 4 3.667V3a.333.333 0 0 0-.333-.333z" clip-rule="evenodd"/></g></g><defs><clipPath id="a"><path fill="#fff" d="M0 0h28v20H0z"/></clipPath></defs></svg>