<svg xmlns="http://www.w3.org/2000/svg" width="28" height="20" fill="none" viewBox="0 0 28 20"><g clip-path="url(#a)"><rect width="28" height="20" fill="#fff" rx="2"/><mask id="b" width="28" height="20" x="0" y="0" maskUnits="userSpaceOnUse" style="mask-type:luminance"><rect width="28" height="20" fill="#fff" rx="2"/></mask><g mask="url(#b)"><path fill="#19bfbf" d="M0 0h28v20H0z"/><path fill="#fff" fill-rule="evenodd" d="M8.028 5.503a.333.333 0 0 1 .093-.29l2.448-2.448a.333.333 0 0 1 .236-.098h1.656a.333.333 0 0 1 .298.184l.482.965a.333.333 0 0 0 .298.184h2.255a.333.333 0 0 1 .298.184l1.816 3.632a.333.333 0 0 0 .298.184h1.127c.275 0 .432.314.267.533l-1.582 2.109a.33.33 0 0 0-.031.051l-.618 1.236a.334.334 0 0 0-.035.149v1.176a.33.33 0 0 1-.035.149l-.631 1.263L16 16l-.574 1.149a.334.334 0 0 1-.298.184h-.921a.333.333 0 0 1-.298-.184l-.539-1.079a.334.334 0 0 1-.035-.149v-3.783a.333.333 0 0 0-.098-.236l-.513-.513a.33.33 0 0 1-.08-.13l-.566-1.697a.333.333 0 0 0-.316-.228H8.949a.333.333 0 0 1-.329-.278zm10.639 8.164c0-.184.149-.333.333-.333h.667a.333.333 0 0 1 .333.333v.921a.33.33 0 0 1-.035.149l-.539 1.079a.334.334 0 0 1-.298.184H19a.333.333 0 0 1-.333-.333z" clip-rule="evenodd"/></g></g><defs><clipPath id="a"><path fill="#fff" d="M0 0h28v20H0z"/></clipPath></defs></svg>