<svg xmlns="http://www.w3.org/2000/svg" width="28" height="20" fill="none" viewBox="0 0 28 20"><g clip-path="url(#a)"><rect width="28" height="20" fill="#009f60" rx="2"/><mask id="b" width="28" height="20" x="0" y="0" maskUnits="userSpaceOnUse" style="mask-type:luminance"><rect width="28" height="20" fill="#fff" rx="2"/></mask><g mask="url(#b)"><path fill="#ea8b42" d="M24 10.6667h4V20h-4z"/><path fill="#1a1919" fill-rule="evenodd" d="M20 20h4v-9.3333h-4z" clip-rule="evenodd"/><path fill="#db3c36" fill-rule="evenodd" d="M16 20h4v-9.3333h-4z" clip-rule="evenodd"/></g><g fill-rule="evenodd" clip-path="url(#c)" clip-rule="evenodd"><g clip-path="url(#d)"><path fill="#ea8b42" d="M21.0141 3.484c-.0919.0026-.1594-.0292-.1836-.0827.1499-.088.2512-.0683.3768.0437.0242-.0876 0-.1851-.0531-.2436s-.0967-.0585-.169-.0635c-.0726-.0048-.1451-.0243-.1934-.0243-.0708-.156-.2482-.09-.4186-.026-.2771.104-.526.2927-.6378.481-.051.0863-.0572.1202-.0886.169.0259-.0032.0242-.0032.0403-.013-.0194.2145-.0451.4127-.0065.5395-.0482.1853-.0096.3023.0483.3608.0581.0584.0821.0829.0919.1512.0096.0681.0386.1314.0869.1705.0484.039.0773.0975.0821.1318.0048.034.1543.181.2174.2193.0242.0145.029.0439.0581.0828-.0629.3706.1884.7411.1303 1.1067.0436.0048.1015 0 .1596-.0146.0482.312.0772.4631-.1934.5557-.2705.0927-.4184.184-.343.2877.0532.073.1632.0094.232-.0537.0531-.0487.1158-.0926.1642-.1072.0483-.0146.0581 0 .0338.0633-.0242.0635-.1545.2-.1595.2682-.0048.0683.0532.117.1451.0633.0917-.0537.1724-.194.1932-.2778.0144-.0585.0387-.0976.0337 0-.0048.0975-.0627.273.0677.3023s.1692-.1268.1257-.2683c-.0435-.1412-.0579-.2193-.0387-.268.0193-.0489.0387-.078.0869-.0635.0483.0146.145-.0048.1402-.0827-.005-.078-.0725-.1415-.1498-.0976s-.1353.0373-.1015-.0585c.0242-.0683.0677-.1512.0725-.2047.0531.078.3526.0877.4735.0146.029.1463.1063.2779-.0628.4145-.1692.1364-.3044.268-.2996.3656.005.0975.0435.1558.1304.1071.087-.0487.1401-.117.1595-.1803.0193-.0635.0581-.0635.0387.0147-.0194.0779-.0531.19-.0387.2584.0145.0681.1208.073.1642.0096.0435-.0633.0338-.1462.0242-.2292s.0049-.1704.0241-.2047c.0194-.034.058-.083.0967.0098.0388.0926.058.1657.1353.1901s.1352-.0098.1208-.1023c-.0145-.0926-.116-.1951-.2173-.273-.1015-.078-.0677-.117-.0629-.1902.0048-.0731-.0096-.2047-.0146-.2632.0919.0683.1934.0585.2415.0585.0484 0 .1277-.015.0484-.0878-.1595-.1462-.1063-.2341-.2174-.3413s-.2126-.273-.2463-.4143c-.034-.1414-.1084-.3998-.2562-.5314-.0821-.0731-.1062-.273-.0869-.5022s.0242-.4826-.1836-.5996c-.2077-.117-.2029-.2145-.1352-.3169.0675-.1023.1544-.2025.2657-.2097.025-.0015.0828-.0064.1063-.0236a.084.084 0 0 0-.058-.0203"/><path fill="#ea8b42" d="M19.663 4.011c-.005.099-.003.186.018.253-.048.185-.01.302.048.361.058.058.082.083.092.151s.039.131.087.171c.048.039.077.098.082.132s.154.181.217.219c.024.015.029.044.058.083-.026.154.001.308.039.462-.341.286-.678.151-.537-.141-.284.228-.773.221-.663 0-.445.156-.58.026-.522-.117-.373.15-.567.007-.515-.097-.309.085-.509.033-.541-.019s.045-.169.116-.227c-.142.052-.277.052-.406.033-.129-.02-.096-.059-.071-.117.026-.058.06-.151.163-.242-.246.049-.556.083-.773.01-.041-.014-.111-.029-.068-.073.044-.044.174-.151.334-.219-.362.054-1.048.093-1.242-.127.188.039.43-.039.585-.102-.609-.068-1.44-.488-1.449-.897.174.283.474.38.773.468-.406-.239-.575-.527-.589-.717.232.224.584.478.932.536-.246-.132-.565-.517-.652-.785.179.161.638.419.952.502-.217-.171-.57-.575-.551-.799.082.083.285.239.701.483s.641.226.984.299c-.063-.084-.119-.197-.124-.226.102.015.198.054.488.234.29.181.923.236 1.285.395.266.117.644.044.75.117m2.186 2.499c.016-.013.016-.035-.024-.071-.159-.146-.106-.234-.217-.341s-.213-.273-.246-.414c-.034-.141-.108-.4-.256-.531-.082-.073-.106-.273-.087-.502.017-.196.023-.41-.106-.541.242-.068.464-.083.541-.005.401-.102.749-.133 1.09-.156.393-.026 1.134-.195 1.662-.553-.032.13-.213.325-.374.423.535-.13 1.179-.371 1.727-.78-.006.286-.238.5-.374.618.374-.208.921-.468 1.108-.793.082.333-.476.769-.779 1.009.309-.149.709-.288.863-.509-.003.27-.354.605-.689.799.342-.13.722-.266.941-.468.026.272-1.021.896-1.54 1.066.451-.11 1.037-.26 1.295-.416-.013.055-.118.133-.194.189-.315.233-.798.358-1.094.416.039.163-.013.254-.193.267s-.617-.057-.836-.167c-.032.019-.071.026-.114.031.213.161.285.278.242.346s-.196.056-.311.032c.092.258-.215.241-.471.095.101.132.116.244-.024.273s-.251.02-.387-.068c-.01.098-.103.163-.227.13.425.259.401.353.329.45-.072.098-.326.078-.461-.01-.058.2-.289.201-.461.041-.001.08-.166.238-.329.142"/><path fill="#000" d="M19.877 7.495c.007-.062.013-.133.064-.179.052-.046.084-.084.129-.039.045.046.016.088-.045.107s-.103.075-.113.11c-.01.036-.042.055-.035 0m.351.3c-.032-.102-.016-.234.019-.273.036-.039.081-.065.122-.026.042.039.058.094-.019.127-.068.029-.074.101-.077.153s-.026.081-.045.019m.451-.263c-.025.042.006.211.09.253.059.03.087.023.052-.032s-.022-.107-.003-.136a.078.078 0 0 0-.026-.107c-.042-.026-.093-.01-.113.023m.364-.154c-.053-.04-.103.008-.122.042-.039.068-.01.166.052.221.061.055.052-.019.032-.052-.019-.032-.022-.097.019-.104.042-.006.071-.068.019-.107m.303.11c-.052-.015-.103.039-.097.104.005.049.01.111.058.143.032.022.055.036.039-.023s.01-.107.039-.124c.029-.016.016-.084-.039-.101m.428-.275c-.037.027-.035.088 0 .111s.087.055.077.11.019.075.045.013.029-.153 0-.195-.09-.062-.122-.039"/></g><g fill="#000" clip-path="url(#e)"><path d="M20.8403 3.3969c.0224.0495.0866.0788.1735.0764h.0001c.0276-.0006.0444.0068.0645.0397-.0212.0156-.0612.0225-.1119.0256-.0923.006-.173.077-.2575.205-.0761.115-.0495.1996.1316.3015.1799.1014.2168.2778.189.61-.0204.2412.009.427.0834.4932.123.1096.2023.299.2594.537.0326.1363.1312.3008.2433.409a.3.3 0 0 1 .0603.0803.5.5 0 0 1 .0252.0592c.0353.094.0592.135.1317.2016.0402.0369.048.0675.0232.0875-.0164.0132-.0459.019-.0788.019l-.0178.0002c-.078.0014-.1282-.005-.186-.0337a.3.3 0 0 1-.025-.014l.0049.0541c.0021.0242.0038.0456.0052.066q.0052.0769.0025.122a.4.4 0 0 1-.0045.037c-.0045.0287-.0054.0366-.0045.0492.0021.0307.0203.0583.0677.0947.1242.0955.2079.1942.2214.2799.015.0963-.0454.1425-.1346.1143-.0546-.0173-.0828-.053-.1152-.1305l-.0115-.0283-.0152-.0374c-.0158-.0378-.0302-.05-.0428-.0463-.0109.0031-.023.017-.0347.0376-.0199.0354-.0315.1233-.0229.1982l.0001.0008c.0147.1266.0122.1801-.0261.2357-.0484.071-.1668.0645-.1835-.0135-.0076-.0361-.0034-.0839.0102-.1473a2 2 0 0 1 .0137-.0577l.0149-.0582c.0075-.03.0054-.047.0036-.0473-.003-.0005-.0141.0136-.0217.0384-.0217.0709-.0802.1394-.1644.1865-.0888.0498-.1405-.0008-.1464-.116-.0045-.0918.0972-.208.3036-.3745.0401-.0324.0671-.0653.0831-.0998.0289-.0624.0247-.1103-.0071-.2327a1.4 1.4 0 0 1-.014-.0571c-.1221.0625-.3775.0572-.4587-.008-.0055.0256-.0175.057-.0415.1142l-.0001.0003c-.015.036-.0215.052-.0281.0707-.0144.0407-.0113.0623.003.0681.0156.0063.046-.0015.0831-.0225.0798-.0453.1599.014.1658.1062.0047.0763-.0844.1148-.154.0937-.0361-.0108-.0526.0035-.0739.0572-.017.0433-.0061.1143.039.2609.0504.1635-.0069.3113-.1382.2819-.0804-.018-.1014-.0818-.0901-.1933a1 1 0 0 1 .0058-.0477.7.7 0 0 0 .0082-.0724.3.3 0 0 0 .0003-.037.3.3 0 0 0-.0129.0402c-.0248.1001-.1129.2346-.1982.2845-.0917.0536-.1671.012-.1611-.0734.0022-.0314.0246-.0714.0707-.1362l.0128-.0178c.0585-.0808.0681-.095.0766-.1173.0212-.0552.0181-.0609-.0207-.0491-.0436.0132-.1038.0533-.1601.1048-.0955.0877-.1967.1224-.2478.052-.0405-.0556-.0238-.1105.0439-.1627.0595-.046.1598-.0918.3043-.1414.229-.0783.2465-.1537.1994-.535-.0581.0146-.1176.0199-.1728.0024.0237-.1491.0052-.269-.0656-.5428-.0724-.2802-.0914-.4064-.0626-.5558a.3.3 0 0 1-.0204-.0312l-.0139-.025a.06.06 0 0 0-.0208-.0238c-.0687-.0417-.2172-.19-.2225-.227-.0052-.0374-.0368-.0915-.0782-.125-.0486-.0392-.0804-.1033-.0908-.1773-.0083-.0578-.0205-.0763-.0889-.1452-.0714-.0721-.095-.2019-.051-.3652-.0297-.0979-.027-.1921.0008-.4863l.0035-.0373a.1.1 0 0 1-.0111.0026l-.0153.0021-.0104-.0165a.4.4 0 0 0 .0175-.0303l.0046-.0091.0046-.0094c-.0019.004.0172-.037.0238-.0502a1 1 0 0 1 .0379-.0696c.1136-.1913.365-.3813.6432-.4856.2637-.099.3696-.1062.4224.0253.0233 0 .0351.0016.1036.0128a1 1 0 0 0 .0905.0115l.0165.001c.0618.0042.0877.0098.119.0303a.2.2 0 0 1 .0407.0356c.057.0628.0801.1647.0556.2537l-.0175.0052c-.1264-.1126-.2229-.1254-.3599-.0561m.2252.116c-.0168-.013-.0293-.0186-.0511-.0181-.0947.0027-.1671-.0304-.1893-.1028.1446-.0848.249-.0745.3759.0333a.2.2 0 0 1-.004.0168l.0175-.0052q-.0068-.006-.0135-.0116c.0156-.0778-.0062-.1633-.0547-.2167a.2.2 0 0 0-.0366-.0321c-.0274-.018-.0504-.0228-.1087-.0268l-.0165-.001a1 1 0 0 1-.0925-.0118l-.0321-.0052c-.0398-.0065-.0524-.0085-.0779-.0136-.0552-.1218-.1524-.1153-.4051-.0204-.274.1028-.5215.2897-.6322.4765a1 1 0 0 0-.0372.0682c-.0065.013-.0255.0537-.0237.0499l-.0047.0096-.0048.0096-.0062.0115a.04.04 0 0 1-.0081.002l-.0145.002.0103.0165a.4.4 0 0 0 .0123-.0205l.0011-.0004a.1.1 0 0 0 .0124-.0072l.0162.0101-.0053.0574c-.0275.2905-.0302.3841-.0015.4839-.0422.1623-.0201.2843.0455.3505.0714.0718.0858.0937.0949.1573.0098.069.039.128.0831.1636.0455.0368.08.0958.086.1387.004.0284.1488.173.2122.2116.0115.0068.0194.0161.0283.0313l.0084.0151.0056.01.0048.0084a.5.5 0 0 1 .0161.029c-.0261.1536-.0074.2778.0643.555.0715.2768.0903.3985.0566.5392.0397.0044.0911.0005.1529-.0043l.0161-.0012c.0617.3994.0419.4845-.2005.5675-.1424.0488-.2409.0939-.2982.138-.0593.0458-.0723.0882-.0396.1331.0401.0552.129.0247.216-.0553.0585-.0535.1211-.0952.1684-.1095.0593-.018.0736.0078.0469.0774-.0095.025-.0187.0386-.0792.1223l-.0127.0176c-.0435.0612-.065.0995-.0669.1253-.0047.0674.0516.0984.129.0532.0799-.0467.1647-.1762.1882-.2711.0081-.033.0183-.058.0286-.0649.0126-.0084.0219.001.0249.016a.23.23 0 0 1 .0013.052c-.0008.018-.0021.0284-.0084.0743a1 1 0 0 0-.0057.0468c-.0103.102.0073.1553.0735.1702.1096.0245.1594-.104.1131-.2546-.0467-.1515-.0581-.2255-.0385-.2752.0249-.0627.0502-.0847.1-.0698.0574.0174.13-.014.1264-.0717-.0049-.0778-.0693-.1255-.1338-.089-.0423.024-.0784.0333-.1018.0238-.0281-.0114-.0328-.045-.0151-.0952a1.3 1.3 0 0 1 .0286-.0718l.0001-.0003c.0301-.072.0407-.1018.0432-.13l.0196-.005c.0494.0725.3428.0817.4591.0114l.016.0071c.004.02.0082.0377.0167.0703.0331.1272.0376.1786.0058.2472-.0175.0376-.0465.073-.089.1074-.2003.1615-.2997.2752-.2957.3567.0052.1016.0429.1385.1145.0983.0796-.0445.1344-.1087.1544-.174.0105-.0344.028-.0566.0462-.0532.02.0038.0235.0322.0132.0736l-.0149.0583a2 2 0 0 0-.0135.057c-.013.0606-.0171.1059-.0102.1382.0123.0575.1061.0626.1449.0058.0341-.0496.0365-.0997.0224-.221l-.0001-.0008c-.0091-.079.0031-.1713.0255-.2113.0145-.0254.0295-.0425.0475-.0477.0259-.0075.049.012.0684.0587l.0155.0379.0113.0278c.0302.0722.0548.1034.1018.1183.0747.0236.1195-.0106.1071-.0905-.0124-.0785-.0933-.1738-.2133-.2661-.0519-.0399-.0735-.0726-.0761-.1104-.001-.0148-.0001-.0234.0047-.054a.4.4 0 0 0 .0043-.035 1 1 0 0 0-.0025-.1192 3 3 0 0 0-.0051-.0655l-.007-.0769.0171-.0095a.27.27 0 0 0 .0409.025c.0538.027.1012.033.176.0316l.0182-.0003c.0283 0 .0539-.005.0654-.0142.0117-.0094.0076-.0256-.0242-.0548-.0755-.0692-.1009-.113-.1374-.2099a.5.5 0 0 0-.0242-.057.28.28 0 0 0-.056-.0746c-.115-.111-.2158-.279-.2493-.4196-.0562-.2338-.1341-.4201-.2529-.5259-.0811-.0722-.1114-.2634-.0904-.5111.0271-.3242-.0084-.4937-.1782-.5893-.1914-.1077-.2223-.2062-.139-.3322.0879-.1332.173-.208.274-.2145q.022-.0015.0408-.0034c.0271-.0025.0485-.0044.0596-.001"/><path d="M19.402 3.9598c.1651.0059.2252.0133.267.042l.0046.0094c-.0057.1103-.001.1897.0174.2556-.0422.1623-.02.2843.0455.3505.0714.0718.0858.0937.0949.1573.0098.069.039.128.0831.1636.0455.0368.08.0958.086.1387.004.0284.1488.173.2122.2116.0115.0069.0194.0161.0283.0313l.014.0252.0048.0083a.5.5 0 0 1 .0161.029c-.0226.1326-.0082.265.0354.468-.1616.1354-.3363.1872-.4597.1482-.1118-.0354-.1558-.1377-.1094-.2652-.1316.0929-.3063.1471-.4537.1463-.1518-.0008-.2375-.0615-.2034-.161-.3667.1231-.5707.0534-.5205-.1165-.3035.1132-.555.0347-.5153-.1002-.2605.0669-.4873.0433-.5325-.0296-.0281-.0456.0156-.1377.0821-.2076-.1151.0338-.2325.0376-.3645.0177-.0621-.0095-.0929-.0241-.1012-.049-.0063-.019-.0043-.0247.0193-.0765l.0029-.0067c0 .0002.0155-.0357.0208-.0474a.7.7 0 0 1 .029-.057.54.54 0 0 1 .0884-.1157c-.3014.0564-.5585.0641-.7421.0022l-.0275-.0088c-.0256-.0085-.0413-.016-.0514-.0264-.0151-.0158-.0128-.0355.007-.0555.0587-.059.1623-.135.2725-.1915-.5231.069-1.0236.0389-1.1811-.14l.0102-.0176c.1467.0303.3355-.0072.5394-.0862-.6678-.0892-1.4081-.5242-1.4172-.9024l.0199-.0059c.1354.22.3162.3248.6887.4398-.3224-.2086-.5085-.4676-.5248-.6821l.0182-.0086c.2633.255.5771.454.8652.5212-.2386-.1552-.5211-.5066-.6028-.7587l.0174-.0113c.182.1637.6043.395.897.4853-.2665-.2238-.5301-.5855-.5139-.7755l.0183-.0067c.1018.1028.3355.268.6983.4809.2247.1319.396.1924.6216.234.0319.006.0627.0112.1113.0192.1199.0196.1641.0272.2209.0389-.0526-.076-.1044-.1753-.1098-.208l.0121-.0124c.1127.0163.2205.0666.492.2355.1309.0815.2909.1294.679.2197l.0179.0041c.3133.073.4525.1113.587.1705.0702.031.1522.0503.25.0616.0662.0076.114.0102.2351.0144m.2499.0565.0003-.0062.0047.0094zm-4.0411.503c.156.0212.3497-.0239.5568-.1086l-.0028-.0207c-.6432-.0721-1.3724-.4816-1.4356-.8433.1461.2148.3471.3157.7551.4352l.0084-.0196c-.3443-.2026-.5491-.463-.5809-.6792.2808.2659.615.468.9167.5188l.0068-.02c-.232-.124-.5314-.4775-.6336-.741.21.1734.6442.4037.9254.478l.0093-.0189c-.2632-.2067-.5397-.5693-.5472-.766.1112.105.3402.2646.6848.4669.2271.1331.4007.1945.6286.2366a5 5 0 0 0 .1118.0192c.1377.0226.1752.0291.2468.0444l.0108-.017c-.0489-.0658-.102-.1622-.1177-.2061.1036.0183.2117.0707.4675.2298.1337.0833.2945.1314.6853.2223l.0179.0042c.3119.0726.4504.1107.5833.1692.0724.032.1564.0517.2561.0632.067.0077.1151.0103.2368.0146.1525.0054.2136.0124.2507.035-.0053.1094-.0003.1891.0185.251-.0441.1632-.0205.293.0509.3652.0684.0688.0807.0873.0889.1451.0105.074.0422.138.0908.1774.0414.0334.073.0876.0782.1249.0053.037.1538.1853.2225.227a.06.06 0 0 1 .0208.0238l.0139.025a.3.3 0 0 0 .0204.0312c-.0252.128-.0106.263.0372.4577-.1529.1202-.3203.17-.4359.1334-.1094-.0346-.1455-.1392-.0808-.2726l-.0163-.0132c-.1303.1046-.3174.1668-.4724.1659-.1498-.0008-.2214-.0586-.1748-.1527l-.0131-.0149c-.383.1345-.5752.0622-.5083-.1028l-.0139-.014c-.3141.1257-.5632.0411-.5018-.0828l-.0124-.0152c-.2609.0713-.4896.0492-.5293-.0147-.0251-.0406.0359-.1493.1138-.2135l-.0105-.0184c-.1267.0465-.2542.0541-.4007.032-.0547-.0083-.0793-.02-.0841-.0345-.0036-.011-.0015-.017.0185-.0608l.003-.0069c.0547-.1235.075-.159.1472-.2266l.0128-.0117-.0092-.0186c-.3137.062-.581.0728-.7674.01l-.0276-.009c-.0223-.0073-.0359-.0137-.0427-.0208-.0062-.0065-.0055-.0131.0067-.0254.0681-.0686.1999-.1615.3301-.2172l-.0058-.0206c-.5153.0764-1.026.0577-1.2083-.0996m0 0a.3.3 0 0 1-.0238-.0234l-.0102.0177a.5.5 0 0 0 .034.0058m1.5435-1.2413a.1.1 0 0 1-.0042-.015l-.0121.0123zm-1.5651-.544a.2.2 0 0 1 .0005-.024l-.0183.0066.0178.0173m-.3875.3068a1 1 0 0 1-.0135-.0378l-.0173.0113a1 1 0 0 0 .0308.0265m-.2899.2423a.4.4 0 0 1-.0032-.029l-.0181.0085zm-.1826.2636a.3.3 0 0 1-.0043-.0433l-.0199.006a1 1 0 0 0 .0242.0373"/><path d="m21.844 6.524-.001-.018c.012-.009.008-.026-.024-.055-.075-.069-.101-.113-.137-.21a.5.5 0 0 0-.024-.057.28.28 0 0 0-.056-.075c-.115-.111-.216-.279-.249-.419-.056-.234-.134-.42-.253-.526-.081-.072-.111-.263-.09-.511a3 3 0 0 0 .006-.087l.007.004v.001h.001l.013.007a3 3 0 0 1-.005.078c-.02.241.009.427.083.493.123.11.202.299.259.537.033.136.131.301.243.409a.3.3 0 0 1 .06.08.5.5 0 0 1 .025.059c.035.094.059.135.132.202.033.03.044.057.033.076l-.011-.006.001.018a.04.04 0 0 0 .01-.011c.13.065.299-.041.301-.139l.018-.008c.174.161.391.148.444-.036l.016-.006c.139.09.382.1.447.012.09-.12.037-.214-.325-.434l.008-.02c.113.03.204-.026.214-.121l.016-.008c.125.081.231.098.379.067.121-.025.124-.118.018-.256l.014-.016c.127.073.266.112.36.103.099-.01.137-.071.096-.185l.012-.014c.149.031.267.026.3-.027.041-.064-.038-.179-.239-.332l.005-.019c.053-.006.084-.013.121-.03.199.101.629.181.83.166.168-.012.222-.091.192-.266.431-.084.827-.22 1.09-.414a4 4 0 0 0 .057-.043 1 1 0 0 0 .06-.049.37.37 0 0 0 .059-.062 1 1 0 0 0 .03-.018l-.016-.012a.09.09 0 0 1-.014.029c-.221.124-.607.238-1.267.4l-.006-.021c.587-.193 1.494-.78 1.532-1.031l.019-.017-.018-.007a.1.1 0 0 1-.001.024c-.152.133-.366.239-.724.377l-.101.039-.1.038-.009-.019c.361-.21.652-.518.681-.755a.5.5 0 0 0 .022-.029l-.019-.006a.3.3 0 0 1-.002.036c-.1.124-.265.22-.583.363l-.01.004-.138.062a5 5 0 0 0-.115.054l-.011-.018c.159-.126.214-.171.301-.246.163-.142.287-.27.37-.392.085-.124.124-.235.11-.333a1 1 0 0 0 .015-.024l-.02-.003a.3.3 0 0 1 .005.027c-.115.183-.339.351-.696.553-.057.032-.199.109-.299.164l-.103.056-.012-.017c.228-.197.356-.37.369-.587l.018-.013-.017-.009-.001.022c-.488.36-1.086.616-1.712.769l-.006-.014-.002-.005c.153-.092.313-.265.36-.387l.026-.017-.016-.011a.3.3 0 0 1-.009.029c-.459.301-1.142.504-1.642.537-.452.03-.745.068-1.099.153-.067-.068-.266-.064-.514.003l-.012-.013-.005.018.017-.005c.086.096.112.223.104.423l-.02.004-.002.015c.011-.216-.016-.346-.11-.441l.005-.018c.263-.074.475-.08.541-.005.345-.088.639-.126 1.092-.156.505-.034 1.201-.242 1.657-.551l.016.012c-.029.116-.174.286-.326.394.61-.155 1.189-.41 1.662-.763l.017.009c-.005.213-.112.381-.308.564l.022-.012c.1-.054.241-.131.298-.163.37-.209.595-.381.703-.569l.02.003c.027.111-.012.237-.108.377-.085.123-.21.253-.374.396a6 6 0 0 1-.229.19l.032-.015.138-.062.01-.004c.339-.152.502-.25.596-.385l.02.006c-.003.229-.26.528-.598.749l.095-.036c.371-.143.586-.251.736-.389l.018.007c.022.228-.762.762-1.368 1.011.576-.145.914-.252 1.107-.369l.016.012c-.007.029-.034.062-.08.103a1.2 1.2 0 0 1-.061.05 4 4 0 0 1-.058.043c-.266.196-.664.333-1.09.404.042.175-.021.267-.203.28-.204.015-.639-.066-.831-.169-.025.015-.052.023-.093.029.195.151.271.269.223.345-.039.062-.155.069-.305.04.035.116-.012.185-.12.196-.089.009-.212-.023-.331-.083.085.129.072.225-.058.252-.148.031-.257.016-.381-.061-.016.083-.09.136-.184.131.331.207.381.31.286.438-.071.096-.315.089-.464 0-.063.184-.282.199-.459.047-.024.11-.206.21-.342.129m-.333-2.017a.23.23 0 0 0 .012-.045l-.013-.012-.473.094-.001.015-.012-.007-.003.02.001.001.013-.003v.009c.184.092.387.087.461-.04.161.088.415.045.497-.078.231.084.447.034.485-.178l-.014-.012-.453.155a.15.15 0 0 0 .009-.058zm-.005.012.005-.012-.021.006-.002.02.009.005.003-.005.021-.006c.152.073.38.031.461-.07l.012.004.005-.008.019-.006c.207.069.393.025.436-.15l.018-.006-.014-.012a.3.3 0 0 1-.004.018l-.436.15-.013-.004a.14.14 0 0 0 .007-.016l-.012.004a.12.12 0 0 0 .013-.051l-.492.148a.3.3 0 0 1-.014-.007m.489-.081.01.004-.006.011-.01.004v-.009zm0 0-.006-.002v.011a.1.1 0 0 1-.007.009h-.001v-.02l.018-.006zm-.488.081a.2.2 0 0 1-.007.014l-.004.001.002-.02zm-.455.047-.016.003.001-.011zm.447-.091c-.037.169-.251.19-.447.091zm0 0a.2.2 0 0 0 .003-.016l.013.013zm2.33-.655-.966.312.005.021c.102-.017.263-.065.477-.137q.044-.015.092-.032c.107-.037.41-.147.399-.143l-.007-.02zm0 0a63 63 0 0 1-.399.143q-.047.017-.091.032c-.213.073-.373.12-.474.137l.005.021.966-.312zm-2.814.743v.005zm-3.765-1.068c.068.1.248.245.36.281a.38.38 0 0 0 .098.217l-.51-.164-.014.013a.33.33 0 0 0 .058.118l-.351-.142a.64.64 0 0 0 .096-.006l.006-.019-.082-.074zm-.37.075.371-.075.015-.015.343.264v.009a.4.4 0 0 1-.059-.027l-.216-.166a.6.6 0 0 1-.066-.077l-.015.015.081.062c.062.062.144.126.216.166l.061.047v.004l.01.003.009-.019-.021-.016a.4.4 0 0 1 0-.025l.015-.009.773.377a.1.1 0 0 0 .003.015l-.014.004-.756-.369v-.016l-.015.009.015.007c-.001.151.097.3.273.353.157.047.31.053.44.028a1.2 1.2 0 0 0-.098.034.99.99 0 0 1-.347-.041.42.42 0 0 1-.153-.082l.005-.004-.003-.019-.037-.012a.4.4 0 0 0 .019.02l-.008.006-.508-.163a.4.4 0 0 1-.006-.019l-.014.013.019.006a.31.31 0 0 0 .116.154l-.049-.012.005-.001.001-.02-.04-.016a.3.3 0 0 0 .017.021l-.014.004-.419-.17.001-.003a.4.4 0 0 0 .063.006l-.066-.027-.014.005-.005.011a.3.3 0 0 1-.021-.006l.023-.015c.04.011.091.014.152.007l.018.016.006-.019-.023.003-.068-.062.019-.012-.139-.126.056-.011q.023.004.047.007zm-.004.001.004-.001.001-.003-.976-.504-.012.017c.234.222.505.391.79.469a.2.2 0 0 0-.016.064l-.13.027-.407-.145-.01.019c.077.063.181.11.315.147l-.599.122-.006.021.397.123c-.004.037.018.079.068.118a.4.4 0 0 0 .063.039c-.051.024-.07.064-.059.107l-.806-.228-.009.019c.208.132.467.203.825.235a.19.19 0 0 0 .045.054.118.118 0 0 0-.03.092.44.44 0 0 0-.161.03l.006.021.161-.026c.01.031.031.062.062.09.26.235.9.23 1.506.019.014.031.049.052.106.068a1 1 0 0 0 .07.016l-.746.323.006.021c.226-.033.545-.181.779-.336a1 1 0 0 0 .191.009.22.22 0 0 0-.012.173l-.789.28.007.021c.26-.077.599-.195.791-.28.024.048.068.085.133.093l-.791.347.007.02c.185-.048.552-.208.832-.363.08.004.169-.004.261-.023a.31.31 0 0 0-.031.104l-.756.355.007.02c.229-.059.436-.162.747-.349a.196.196 0 0 0 .048.131l-.691.349.007.02c.075-.016.165-.05.267-.099a3 3 0 0 0 .175-.093 5 5 0 0 0 .259-.16c.035.031.084.052.146.06a.4.4 0 0 0 .022.002l-.566.265.007.02c.126-.027.246-.076.375-.147a7 7 0 0 0 .142-.083c.041-.025.079-.047.095-.056.065-.004.137-.023.212-.054-.034.053-.052.096-.055.133l-.578.289.008.02c.102-.035.395-.185.57-.284a.14.14 0 0 0 .031.071c.018.023.039.036.067.038l-.397.185.009.02c.136-.055.322-.141.479-.222.042-.015.094-.041.16-.076.051-.028.112-.067.181-.116a4 4 0 0 0 .056-.041c-.015.054-.015.1-.004.139l-.635.386.009.019c.17-.065.485-.263.635-.383.016.035.044.063.082.082l-.441.281.01.019c.168-.071.363-.197.457-.289l.004.002c.098.037.197.038.289-.011l-.379.285.012.018c.185-.11.404-.272.476-.358l-.015-.015-.001.001-.003-.017-.447-.195a7 7 0 0 0 .078-.061l.091-.072-.008-.019-.293.054.205-.157-.012-.017a6 6 0 0 0-.257.187l-.264.049c.157-.087.323-.22.473-.39l-.01-.018-.386.055.052-.034.117-.078a5 5 0 0 1 .114-.074l-.011-.018-.37.219-.342.049c.21-.076.411-.193.534-.318a1.6 1.6 0 0 0 .161-.031l.003.001v-.001l.005-.001-.001-.021-.641-.123q.061-.005.126-.015l.001-.021-.736-.216-.014.01a.12.12 0 0 0 .001.022l.024.012.001.002-.003-.001h-.007l-.012.003v.002l-.012.003-.003-.001a1 1 0 0 0-.043.012.7.7 0 0 0 .046-.01l.015.008.003.008a1 1 0 0 0-.059.016.8.8 0 0 1-.104.013 1.2 1.2 0 0 0-.127.059l-.493-.125a.33.33 0 0 0 .12-.058l-.005-.005-.003-.016-.008.006.011.01.001.003-.02-.006a.315.315 0 0 1-.144.054l-.248-.063a.35.35 0 0 0 .081.043l-.09-.023a.35.35 0 0 1-.04-.032h-.001.001l-.002-.002.001-.02-.015.005a.3.3 0 0 0 .015.015v.001l-.029-.012-.011.003-.421-.107a.155.155 0 0 1 .013-.066l-.01-.004.002-.001.009.002.003-.006-.012.005-.012-.003a.18.18 0 0 0-.015.07 6 6 0 0 0-.095-.017l.089-.058c-.045-.016-.078-.042-.098-.077l-.004-.008h.001l.005-.021-.016-.006a.2.2 0 0 1-.007-.075l.022-.004c-.004.036.001.074.018.104.02.035.054.059.103.073l.083-.055-.147-.133.026-.005-.031-.028q.044.01.087.017l.024-.005.02.01zm-.062-.014a1.3 1.3 0 0 0 .063.009l-.002.005-.024.005zm-.107-.023q.053.014.107.023l-.848-.438a2 2 0 0 1-.059-.054l-.012.017.071.037c.222.197.474.346.738.414l-.015.002a.2.2 0 0 0-.007.014l.014.004.005.005a.18.18 0 0 0-.014.051l.057-.011-.043-.039.002-.003q.018.005.037.009zm-.003.021.005-.009-.016.003.005.005zm.004-.021-.001-.001h-.002zm-.033.158-.001-.003-.137-.049-.041.008-.299-.107a.5.5 0 0 1-.064-.045l-.01.018.074.026c.075.045.17.08.285.11l-.047.01a2.6 2.6 0 0 0 .25.055l-.001-.002.005-.019zm-.126-.025-.052-.019-.014.003a2 2 0 0 0 .067.016m0 0q.06.013.127.025a.2.2 0 0 0 .009.022v.001zm.123.21.026-.017c-.205-.035-.338-.044-.397-.018-.035.016-.059.038-.069.064a2 2 0 0 0-.137-.047 3 3 0 0 0-.061-.018 20 20 0 0 1-.199-.057l-.006.021c.054.016.212.061.199.057a2 2 0 0 1 .108.033l.09.033.024.029c.007.023.025.048.057.073l.008.006.041.05.024.012h.001l.002.001c-.084.03-.088.102-.011.164h-.002l-.009.003a.1.1 0 0 0-.008.009.3.3 0 0 0 .017.013c-.045.053-.03.119.035.178.247.224.861.224 1.449.027l.041.006.001.003.007-.003-.002-.021.001-.019-.012-.003q.0045-.0315.027-.075c.024-.044.077-.091.146-.134a1 1 0 0 0 .056-.011v-.021h-.001l-.004.002v-.002a1 1 0 0 1-.047.009l-.493-.125a.4.4 0 0 0 .051-.009l-.049-.013a.36.36 0 0 1-.092-.001l-.075-.019a.36.36 0 0 0 .075.019l.091.023a.38.38 0 0 1-.256-.065l-.082-.021a1 1 0 0 0 .041-.012l-.041-.01a1 1 0 0 1-.044.011l-.373-.094a.1.1 0 0 1-.003-.023l-.005-.001h-.001l-.016-.003a.15.15 0 0 0 .002.022 5 5 0 0 0-.123-.022m-.295.194a.44.44 0 0 1-.062-.036l-.065-.079c-.011-.038.011-.073.06-.095.052-.023.175-.016.362.016zm.01.005-.002-.001h-.006a.2.2 0 0 0-.022.009l.021-.013zm0 0c.121.057.309.101.521.131zm.688.172-.167-.042c.399.056.882.063 1.159.014l.023.006a1 1 0 0 0-.027.017c-.242.041-.631.041-.988.005m-.171-.021q.084.012.171.021l.815.204v.004a2 2 0 0 1-.057.004zm-.521-.13.003-.001h-.005.001zm0 0 .521.131c-.21-.03-.398-.073-.521-.13zm1.494.374-.044-.011-.025.001-1.436-.201a.3.3 0 0 0 .041.028l-.041-.006.004-.004-.009.003.005.001-.002.003a.4.4 0 0 0 .091.049c.25.098.942.168 1.346.149l.047.007.035-.012h.001a.08.08 0 0 0 .005.018h.004l-.002-.019h.004v-.002h-.004l.001-.019-.009.001a.1.1 0 0 0 0 .017zm.013.003-.013-.003-.069-.01a3 3 0 0 1-.132.003l-1.263-.177a.44.44 0 0 0 .056.026c.222.087.801.152 1.207.15l.131.018a2 2 0 0 0 .082-.005h.001l.006-.001v-.001h.001v-.002l-.008-.001zm.005.001h.002v-.001zm0 0-.005-.001v.003zm-1.089-.575.013.003c.023.09.155.142.373.094l.045.011c-.261.068-.422.003-.441-.111zm0 0h-.001zm1.286.326.024-.013v.019zm-1.865-.3a2 2 0 0 0-.09-.033l-.301-.111.397.123a.08.08 0 0 0-.005.021m0 0 .008.003.007-.021-.009-.003v-.001l.01.004-.007.021-.008-.002zm2.183.198-.001-.002.006-.001.002.001zm.269.162c-.139-.031-.237-.09-.269-.162a.7.7 0 0 1-.06.014c-.183.055-.365.161-.413.249-.049.092-.028.129.071.157.289.081.632.008.894-.176l.011.005a.1.1 0 0 0 .006.009 1.2 1.2 0 0 1-.352.17l-.247.024-.008.005a.2.2 0 0 0-.01.016l.023-.001-.003.002h.005c-.058.092-.027.248.108.265a.6.6 0 0 0 .037.004l-.04.018h.001l.008.001a5.5 5.5 0 0 1-.295.148l-.232.102c-.107.044-.202.078-.271.096l.007.02.265-.116c.073-.03.152-.064.232-.102l.331-.145h.004l.016-.009-.006-.012c.081.004.171-.006.264-.027a.4.4 0 0 0-.013.025l.027-.006c-.084.156-.025.301.154.322a.37.37 0 0 0 .065.002l-.046.022h.008l-.063.037-.095.056-.294.138a1.1 1.1 0 0 1-.12.033l.007.02.114-.053c.082-.027.163-.065.249-.112a2 2 0 0 0 .045-.026l.201-.094h.001l.005-.003L19 5.197c.071-.004.153-.027.239-.066a1 1 0 0 0-.022.033q.018-.007.036-.016c-.078.113-.089.172-.042.232.025.032.061.038.125.016l-.074.035h.008a6.2 6.2 0 0 1-.404.184l.009.02.468-.218.011-.004.024-.012-.008-.017a1.5 1.5 0 0 0 .134-.065c.051-.027.11-.066.179-.115a4 4 0 0 0 .075-.055l.005-.004a.4.4 0 0 0-.011.036l.019-.014.01-.008c-.048.135-.008.22.094.258.121.045.241.034.349-.064l.015.007-.003-.017-.012.011-.443-.194.02-.015-.022-.009-.003.001a7 7 0 0 0 .09-.069l.057-.045.043-.008-.008-.019-.034.027-.292.054.038-.029-.018.003a6 6 0 0 1 .222-.16l-.012-.017-.238.183-.018.003-.038.029-.293.054a1.3 1.3 0 0 0 .066-.034l-.073.014c.165-.079.347-.216.51-.396l.029-.004-.01-.018-.02.022-.403.058.043-.028-.044.006.326-.193-.011-.018a5 5 0 0 0-.114.074l-.117.079a7 7 0 0 1-.09.059l-.049.007-.048.029-.416.059a1.7 1.7 0 0 0 .123-.039l-.127.018c.237-.066.479-.193.626-.332l.035-.004.003-.003-.008-.016a1.6 1.6 0 0 0 .119-.021l.047.009.003-.001v-.02a2 2 0 0 1-.049.012l-.682-.133a1.4 1.4 0 0 0 .095-.004l-.092-.018a1.4 1.4 0 0 0 .166-.011l.047.014.001-.021a2 2 0 0 1-.049.007l-.675-.198a.1.1 0 0 1 0-.014l-.014.01.014.004a.1.1 0 0 0 .003.019l.002.001v.002h-.001l.001.002-.001.016-.007.002.022.011c.039.062.138.113.273.138l.062.031a1 1 0 0 1-.051-.008l-.008-.02zm.009.002-.009-.002-.435.143.005.022c.197-.025.309-.067.474-.156h-.002l-.007-.019zm-.118.057.15-.049-.001-.001a1 1 0 0 1-.031-.006c-.042.022-.08.041-.118.057m-.176.058a1 1 0 0 0 .176-.058zm0 0a1.5 1.5 0 0 1-.149.026l.005.022zm.438-.095a1 1 0 0 1-.059-.006l.129.066.006-.004a.1.1 0 0 0 .005.01l.005.003-.001-.018-.008.006a.1.1 0 0 1-.006-.02l.025.013.001.018-.011.008c.027.04.083.071.159.09l-.084.038-.427.042a1.14 1.14 0 0 1-.239.043l.002-.003-.005.003h.003l-.001.002.606-.059-.366.166.008.02c.147-.046.308-.118.451-.195l.345-.033a1.5 1.5 0 0 0 .089-.007l.001-.001.03-.003-.008-.018.008-.001-.001-.002-.164.016c-.249.005-.42-.065-.401-.168h.002-.002a.1.1 0 0 1 .002-.009l-.012.008.01.002h-.022a.1.1 0 0 1 .004-.016l.009-.005h.014l-.011-.002-.003.002a1.2 1.2 0 0 1-.135-.008l-.355-.18v.002a.13.13 0 0 0 .014.029l.273.138a1 1 0 0 0 .068.01zm0 0q.035.002.071.003a.1.1 0 0 0 0 .033zm.65.158a1.4 1.4 0 0 1-.157.012l-.138.013a.8.8 0 0 1-.074-.011l.003-.001-.01-.019-.028.013.004.001a3 3 0 0 1-.062.034l-.026.003-.061.028.036-.003c-.13.067-.271.128-.401.169l.008.02.423-.192.027-.003a3 3 0 0 0 .048-.026l.113-.011c.056.006.117.007.184.004l.09-.009a1 1 0 0 0 .021-.021m-.422.038.014-.001.039-.022.002-.001-.01-.019-.023.013a1 1 0 0 0 .031.007zm0 0-.04.004a3 3 0 0 1-.05.027l.03-.003zm-.288.346-.005.008a1.5 1.5 0 0 0 .071-.018zm0 0 .003-.004-.008.005zm.536-.076-.053.008-.282.167.009.019c.116-.044.225-.103.377-.201l-.049.007.048-.029-.007.001zm-.03.019.03-.019h.002zm0 0a3 3 0 0 1-.095.057zm-.095.057a1.5 1.5 0 0 1-.208.098l.009.019zm.063.279-.004.006.017-.008zm0 0 .003-.004-.007.004zm.325-.06-.018.003c-.085.066-.159.126-.19.157l.014.016.241-.184-.018.003.038-.029-.029.005zm0 0-.207.159.014.016c.034-.034.123-.106.221-.18zm.197.075.004-.011-.014.006zm-.005-.023-.013.01.002-.005zm-.406.25-.001-.002-.032.015.01-.003a6 6 0 0 1-.076.038c.02 0 .044-.004.072-.014l.034-.016zm0 0-.001-.002-.022.011zm-.104-.265-.025.012.003-.004.007-.004zm-.264.077.009.019-.005.003a.4.4 0 0 1-.043.001 1 1 0 0 1 .038-.022zm0 0h.001v-.001l-.002.001.001-.001zm-.154-.362a1.5 1.5 0 0 1-.08.02l.003-.005.008-.005zm-.346.047.006.013-.018.008a1 1 0 0 1-.035-.003l.034-.019zm0 0h.001l-.003-.007-.014.006h.003l.01-.006zm-.073-.746-.003-.002.007.001zm-.009-.006a.1.1 0 0 1-.003-.011l.014-.004-.001.02zm1.819 1.208.001-.001v-.001l-.094.07a.4.4 0 0 0 .088-.063c-.075.085-.287.242-.466.348l.012.018.474-.356zm0 0-.006.005.005-.006zm-.388.077.002.001.006-.006-.013-.017-.017.011.004.002c-.037.035-.089.076-.148.115l-.086.055a1.7 1.7 0 0 1-.209.108l.01.019.2-.127a2 2 0 0 0 .086-.055zm0 0 .006-.003-.013-.017-.012.012a.3.3 0 0 0 .02.009m-.106-.094.001.002.011-.009-.012-.017-.007.004v.001c-.06.049-.15.112-.247.174l-.15.091c-.089.051-.174.095-.237.119l.009.019.228-.138a4 4 0 0 0 .15-.091zm0 0a.2.2 0 0 1-.007-.019l.006-.005.012.018zm-.59-.018v.001l.016-.009-.01-.019-.006.003v.001c-.172.098-.475.253-.577.288l.008.02zm0 0a.13.13 0 0 1 0-.023l.006-.003.01.019zm-.378-.165.001.001.008-.005-.011-.019-.014.007.001.001a6 6 0 0 1-.18.113l-.396.2a.8.8 0 0 1-.114.034l.007.02.107-.054a1.6 1.6 0 0 0 .148-.064 3 3 0 0 0 .174-.093 4 4 0 0 0 .074-.043zm0 0a.2.2 0 0 1-.015-.015l.012-.008.011.019zm-.064-.149v.002l.014-.008-.01-.019-.003.001a8 8 0 0 1-.209.121l-.402.189a1.7 1.7 0 0 1-.143.044l.007.02.136-.064c.125-.044.252-.105.402-.189zm0 0 .013-.006-.01-.019-.002.001a.3.3 0 0 0-.001.024m-.41-.203v.001l.008-.003-.008-.02-.008.003v.001c-.191.084-.529.203-.788.279l.007.02zm0 0a.2.2 0 0 1-.008-.019l.007-.003.008.02zm-.187-.202h.001l.003-.002-.01-.019-.032.014.008.002a2.5 2.5 0 0 1-.102.062l-.548.237a1 1 0 0 1-.102.021l.006.021.096-.041c.17-.044.372-.134.548-.237zm0 0a1 1 0 0 1-.031-.005l.022-.014.01.019zm-1.783-.202.001.002.01-.002v-.022a.2.2 0 0 0-.015-.001v.003l-.159.026.006.021c.044-.018.113-.03.158-.028m0 0a.1.1 0 0 1-.004-.019l.012-.002.001.022zm-.02-.17.001.001.006.001.004-.021-.02-.006.001.004a4 4 0 0 1-.107-.012l-.624-.177a1.2 1.2 0 0 1-.072-.042l-.009.02.081.023c.167.09.368.145.624.177zm0 0a.12.12 0 0 1-.009-.021l.017.002-.004.021zm1.304-.444.006.005.009-.019a.3.3 0 0 1-.017-.005.4.4 0 0 0 .001.019m2.633 1.73c-.044.059-.156.191-.226.267l.016.014.227-.268zm0 0 .017.013c-.045.06-.156.192-.228.269l-.016-.014zm-.087-1.981c-.043.108-.066.336-.054.425.002.017.002.021-.005.093-.014.131-.008.23.035.358l.02-.007c-.042-.124-.047-.22-.034-.348.008-.075.008-.078.005-.098-.012-.085.011-.31.053-.414zm-.329.575c-.006-.081.003-.186.024-.262l.021.006c-.021.073-.029.176-.024.255zm.015.133c-.018.075-.005.25.019.346l.021-.005c-.023-.093-.036-.265-.019-.336zm.076.578a.22.22 0 0 1-.022-.045l.02-.007a.2.2 0 0 0 .02.04.5.5 0 0 0 .044.058c.015.017.027.03.049.054l-.015.016a1.2 1.2 0 0 1-.05-.055.5.5 0 0 1-.046-.061m.083-.449c-.01.125.059.362.128.442.015.133.107.323.237.454l.015-.015c-.127-.128-.216-.313-.234-.447-.068-.081-.135-.312-.126-.432zm-.029-.139c-.011-.079-.014-.158-.005-.208l.021.004c-.008.048-.006.125.005.201zm.334.128c-.046-.153-.047-.522 0-.717l.021.005c-.046.192-.045.556 0 .706zm-.058.058c-.026.115-.023.247.01.347l.02-.007c-.032-.096-.034-.224-.009-.335zm.389-.176c-.128-.143-.206-.357-.201-.524l.021.001c-.005.161.071.37.195.509zm-.235.012c-.015.185-.004.356.03.453.009.025.015.056.023.111l.008.054c.003.022.006.04.01.057.016.084.037.147.071.195l.018-.012c-.032-.045-.052-.104-.068-.186a2 2 0 0 1-.01-.056l-.008-.054c-.009-.057-.015-.088-.024-.115-.033-.094-.043-.261-.028-.444zm.173.302-.008-.03.021-.005.008.031a.7.7 0 0 1 .021.108c.004.047 0 .087-.015.122l-.02-.009c.013-.031.017-.068.013-.111a.65.65 0 0 0-.02-.105m.118-.171c.036.117.058.26.053.323l.021.002c.005-.065-.017-.211-.054-.331zm.151.948c-.044-.078-.084-.202-.093-.302l.021-.002c.009.097.048.218.091.293zm-.252-.007c.041.122.11.248.173.298l.013-.017c-.059-.046-.126-.169-.166-.287zm.594.341c-.043-.13-.071-.193-.139-.29l.018-.012c.069.099.098.164.142.295z"/><path d="M20.2642 5.3912a.7.7 0 0 0 .0447.0031c.0534.0027.0721.0081.0962.0336.0158.0168.0315.0421.0485.079.0593.129.2214.3262.3161.3876h-.0001c.1255.2208.1812.5122.1423.6687-.0112-.0689-.0502-.1218-.1103-.1652-.0234-.0168-.0383-.0254-.0788-.047-.0537.047-.132.101-.1715.1094l.0045.021c.0446-.0095.1264-.066.1699-.1137a.5.5 0 0 0 .0472.0363l.0162.0115c.056.0404.0916.0888.1017.1514l.021-.0034-.0014.0054.0207.0056c.0416-.1543-.0087-.438-.1273-.6622.1461.0673.2395.1431.2577.25l.0204.0026.0105-.0235c.0487-.1097.0672-.1851.0486-.263l.0019.0022.0171.0206c.0537.0648.0933.1124.1226.1484l-.002.0003c.0029.0205.0056.0517.0088.0992l.0039.061.0064.1006c.0077.113.0154.1882.0259.2373l.021-.0045c-.0102-.0477-.0179-.1224-.0255-.2343l-.0064-.1003-.0039-.0612a3 3 0 0 0-.0055-.0699c.0457.0573.0576.0774.0638.099.0019.0065.0032.0132.0048.021l.0018.0088c.0178.0855.0865.2028.1555.2781l.0158-.0145c-.0666-.0727-.1334-.1867-.1504-.268l-.0022-.0113a.3.3 0 0 0-.0052-.0226c-.0106-.0374-.0378-.0701-.21-.2775l-.0199-.024a4 4 0 0 1-.0403-.0493l-.0181.0112c.0426.093.0307.1702-.0257.2986-.0319-.1024-.1295-.1748-.274-.2398-.0835-.0374-.2657-.2539-.3281-.3895-.0179-.039-.0348-.0662-.0525-.085-.0288-.0305-.0522-.0373-.1106-.0402a.7.7 0 0 1-.0435-.003zm1.0411.6866a1 1 0 0 0-.0035-.031l-.0192.0028zm-.3935.4857V6.563zm-.108-.6512-.0114-.0052a.2.2 0 0 1-.0227-.0126l.0186-.0106a1 1 0 0 1 .0155.0284m-.3894-.1952c.0376.1135.0674.2497.0705.3286l.0214-.0008c-.0031-.0812-.0334-.2193-.0715-.3345zm.3249.5595c-.0034-.0637-.0433-.2304-.0831-.3414l.0202-.0073c.0404.1129.0808.2815.0843.3475zm.3743-.0388c.0311.0752.0508.194.0445.2647l.0214.0019c.0066-.0743-.0137-.1965-.0461-.2749z"/></g></g></g><defs><clipPath id="a"><path fill="#fff" d="M0 0h28v20H0z"/></clipPath><clipPath id="c"><path fill="#fff" d="M14.6667 2.6667h12V8h-12z"/></clipPath><clipPath id="d"><path fill="#fff" d="M14.6667 2.6667h12V8h-12z"/></clipPath><clipPath id="e"><path fill="#fff" d="M14.6667 2.6667h12V7.656h-12z"/></clipPath></defs></svg>