<svg xmlns="http://www.w3.org/2000/svg" width="28" height="20" fill="none" viewBox="0 0 28 20"><g clip-path="url(#a)"><rect width="28" height="20" fill="#fff" rx="2"/><mask id="b" width="28" height="20" x="0" y="0" maskUnits="userSpaceOnUse" style="mask-type:luminance"><rect width="28" height="20" fill="#fff" rx="2"/></mask><g fill-rule="evenodd" clip-rule="evenodd" mask="url(#b)"><path fill="#2d754d" d="M0 20h28v-5.3333H0z"/><path fill="#25b1eb" d="M0 9.3333h28V0H0z"/><path fill="#fecb2f" d="M0 14.667h28V9.333H0zM21.333 6l-1.02 1.13.078-1.521-1.521.078L20 4.667l-1.13-1.02 1.521.078-.078-1.521 1.021 1.13 1.021-1.13-.078 1.521 1.521-.078-1.13 1.021 1.13 1.021-1.521-.078.078 1.521z"/></g></g><defs><clipPath id="a"><path fill="#fff" d="M0 0h28v20H0z"/></clipPath></defs></svg>