<svg xmlns="http://www.w3.org/2000/svg" width="28" height="20" fill="none" viewBox="0 0 28 20"><g clip-path="url(#a)"><path fill="#fff" d="M0 2C0 .8954.8954 0 2 0h24c1.1046 0 2 .8954 2 2v16c0 1.1046-.8954 2-2 2H2c-1.1046 0-2-.8954-2-2z"/><mask id="b" width="28" height="20" x="0" y="0" maskUnits="userSpaceOnUse" style="mask-type:luminance"><rect width="28" height="20" fill="#fff" rx="2"/></mask><g mask="url(#b)"><path fill="#f5f5f5" d="M26 19.5v.5H2v-.5zm1.5-1.5V2c0-.8284-.6716-1.5-1.5-1.5H2C1.1716.5.5 1.1716.5 2v16c0 .8284.6716 1.5 1.5 1.5v.5c-1.1046 0-2-.8954-2-2V2C0 .8954.8954 0 2 0h24c1.1046 0 2 .8954 2 2v16c0 1.1046-.8954 2-2 2v-.5c.8284 0 1.5-.6716 1.5-1.5"/></g><g clip-path="url(#c)"><circle cx="14" cy="10" r="5" fill="#e01b41"/><mask id="d" width="10" height="10" x="9" y="5" maskUnits="userSpaceOnUse" style="mask-type:luminance"><circle cx="14" cy="10" r="5" fill="#fff"/></mask><g mask="url(#d)"><path fill="#0e4b9c" fill-rule="evenodd" d="M9.3334 10.6667c1.3333 1.25 3.3333 2 4.6666 0s4-2 4.6667 0 0 4 0 4H9.3334s-1.3334-5.25 0-4" clip-rule="evenodd"/></g></g><path fill="#262626" fill-rule="evenodd" d="M6.173 3.5566a.3333.3333 0 0 1 .4554-.122l.5774.3333c.1594.092.214.296.122.4554L5.661 7.11a.3333.3333 0 0 1-.4553.122l-.5774-.3333a.3334.3334 0 0 1-.122-.4553zm14.6212.2113a.3334.3334 0 0 0-.122.4554L22.3389 7.11a.3333.3333 0 0 0 .4553.122l.5774-.3333a.3334.3334 0 0 0 .122-.4553l-1.6667-2.8868a.3333.3333 0 0 0-.4553-.122zm-1.732 1a.333.333 0 0 0-.122.4554L20.6068 8.11a.3334.3334 0 0 0 .4554.122l.5773-.3333a.333.333 0 0 0 .122-.4553l-1.6666-2.8868a.3334.3334 0 0 0-.4554-.122zM4.5064 13.5567a.3333.3333 0 0 1 .122-.4553l.5774-.3334a.3333.3333 0 0 1 .4553.1221l1.6667 2.8867a.3333.3333 0 0 1-.122.4553l-.5774.3334a.3334.3334 0 0 1-.4553-.122zm1.854-1.4553a.3333.3333 0 0 0-.122.4553l1.6667 2.8868c.092.1594.296.214.4554.122l.5773-.3334a.3333.3333 0 0 0 .122-.4553L7.3932 11.89a.3334.3334 0 0 0-.4554-.1221zm14.2464-.2113a.3334.3334 0 0 1 .4554-.1221l.5773.3334a.333.333 0 0 1 .122.4553l-1.6666 2.8868a.3335.3335 0 0 1-.4554.122l-.5773-.3334a.333.333 0 0 1-.122-.4553zm2.1874.8779a.3333.3333 0 0 0-.4553.1221l-1.6667 2.8867a.3333.3333 0 0 0 .122.4553l.5774.3334a.3333.3333 0 0 0 .4553-.122l1.6667-2.8868a.3333.3333 0 0 0-.122-.4553zM8.3605 4.4346a.3333.3333 0 0 0-.4554.122L6.2385 7.4434a.3334.3334 0 0 0 .122.4553l.5773.3333a.3333.3333 0 0 0 .4554-.122l1.6666-2.8867a.3333.3333 0 0 0-.122-.4554z" clip-rule="evenodd"/></g><defs><clipPath id="a"><path fill="#fff" d="M0 0h28v20H0z"/></clipPath><clipPath id="c"><path fill="#fff" d="M9.3333 5.3333h10v10h-10z"/></clipPath></defs></svg>