<svg xmlns="http://www.w3.org/2000/svg" width="28" height="20" fill="none" viewBox="0 0 28 20"><g clip-path="url(#a)"><path fill="#fff" d="M0 2C0 .8954.8954 0 2 0h24c1.1046 0 2 .8954 2 2v16c0 1.1046-.8954 2-2 2H2c-1.1046 0-2-.8954-2-2z"/><mask id="b" width="28" height="20" x="0" y="0" maskUnits="userSpaceOnUse" style="mask-type:luminance"><rect width="28" height="20" fill="#fff" rx="2"/></mask><g mask="url(#b)"><path fill="#f5f5f5" d="M26 19.5v.5H2v-.5zm1.5-1.5V2c0-.8284-.6716-1.5-1.5-1.5H2C1.1716.5.5 1.1716.5 2v16c0 .8284.6716 1.5 1.5 1.5v.5c-1.1046 0-2-.8954-2-2V2C0 .8954.8954 0 2 0h24c1.1046 0 2 .8954 2 2v16c0 1.1046-.8954 2-2 2v-.5c.8284 0 1.5-.6716 1.5-1.5"/><path fill="#e1244a" fill-rule="evenodd" d="M28 0H13.3333v2.6667H28zm0 5.3333H13.3333V8H28zm-14.6667 5.3334H28v2.6666H13.3333zM28 16H0v2.6667h28z" clip-rule="evenodd"/><path fill="#0c3f8e" d="M0 0h13.3333v13.3333H0z"/><path fill="#fff" fill-rule="evenodd" d="m6.6667 8.2267-2.3512 1.676.8675-2.754-2.3206-1.7181 2.8873-.026.917-2.738.9169 2.738 2.8873.026-2.3206 1.7181.8675 2.754z" clip-rule="evenodd"/></g></g><defs><clipPath id="a"><path fill="#fff" d="M0 0h28v20H0z"/></clipPath></defs></svg>