<svg width="28" height="20" viewBox="0 0 28 20" fill="none" xmlns="http://www.w3.org/2000/svg">
<g clip-path="url(#clip0_5138_497)">
<rect width="28" height="20" rx="2" fill="white"/>
<mask id="mask0_5138_497" style="mask-type:luminance" maskUnits="userSpaceOnUse" x="0" y="0" width="28" height="20">
<rect width="28" height="20" rx="2" fill="white"/>
</mask>
<g mask="url(#mask0_5138_497)">
<rect width="28" height="20" fill="#05AB41"/>
<path fill-rule="evenodd" clip-rule="evenodd" d="M3.53168 10.5597C3.12568 10.297 3.12568 9.70301 3.53168 9.44031L13.6378 2.90103C13.8582 2.75843 14.1418 2.75843 14.3622 2.90103L24.4683 9.44031C24.8743 9.70301 24.8743 10.297 24.4683 10.5597L14.3622 17.099C14.1418 17.2416 13.8582 17.2416 13.6378 17.099L3.53168 10.5597Z" fill="#FDD216"/>
</g>
<g clip-path="url(#clip1_5138_497)">
<circle cx="14" cy="9.99998" r="4.66667" fill="#053087"/>
<mask id="mask1_5138_497" style="mask-type:luminance" maskUnits="userSpaceOnUse" x="9" y="5" width="10" height="10">
<circle cx="14" cy="9.99998" r="4.66667" fill="white"/>
</mask>
<g mask="url(#mask1_5138_497)">
<path d="M8.77994 8.78021C9.51264 8.18688 11.877 8.74895 14.0841 9.33769C16.2911 9.92643 18.593 11.1604 19.1791 11.8842" stroke="white" stroke-width="1.33333" stroke-linecap="square"/>
</g>
</g>
</g>
<defs>
<clipPath id="clip0_5138_497">
<rect width="28" height="20" fill="white"/>
</clipPath>
<clipPath id="clip1_5138_497">
<rect width="10" height="10" fill="white" transform="translate(9.33333 5.33331)"/>
</clipPath>
</defs>
</svg>
