<svg xmlns="http://www.w3.org/2000/svg" width="28" height="20" fill="none" viewBox="0 0 28 20"><g clip-path="url(#a)"><path fill="#fff" d="M0 2C0 .8954.8954 0 2 0h24c1.1046 0 2 .8954 2 2v16c0 1.1046-.8954 2-2 2H2c-1.1046 0-2-.8954-2-2z"/><mask id="b" width="28" height="20" x="0" y="0" maskUnits="userSpaceOnUse" style="mask-type:luminance"><path fill="#fff" d="M0 2C0 .8954.8954 0 2 0h24c1.1046 0 2 .8954 2 2v16c0 1.1046-.8954 2-2 2H2c-1.1046 0-2-.8954-2-2z"/></mask><g mask="url(#b)"><path fill="#1537d1" d="M0 0h28v20H0z"/><path fill="#ea3058" d="M13.3333 0H28v20H13.3333z"/><path fill="#ffcf3c" fill-rule="evenodd" d="M9.3333 20h9.3334V0H9.3333z" clip-rule="evenodd"/><path fill="#ffedb1" fill-rule="evenodd" d="M12.6667 8.6667H14v.6666h-1.3333z" clip-rule="evenodd"/><path fill="#d32e28" d="M15.2753 8c.3899 0 .6963.3331.6641.7217l-.1709 2.0556C15.7109 11.4684 15.1328 12 14.4394 12h-.8789c-.6935 0-1.2716-.5316-1.3291-1.2227l-.1709-2.0556c-.0322-.3886.2741-.7217.664-.7217zm-2.3799 2.7217a.6673.6673 0 0 0 .6651.6113h.8789a.6673.6673 0 0 0 .665-.6113l.1709-2.0547h-2.5508z"/><path fill="#d32e28" fill-rule="evenodd" d="M12.6667 9.3333h2.6666V10h-2.6666z" clip-rule="evenodd"/></g></g><defs><clipPath id="a"><path fill="#fff" d="M0 0h28v20H0z"/></clipPath></defs></svg>