<svg xmlns="http://www.w3.org/2000/svg" width="28" height="20" fill="none" viewBox="0 0 28 20"><g clip-path="url(#a)"><rect width="28" height="20" fill="#fff" rx="2"/><mask id="b" width="28" height="20" x="0" y="0" maskUnits="userSpaceOnUse" style="mask-type:luminance"><rect width="28" height="20" fill="#fff" rx="2"/></mask><g mask="url(#b)"><path fill="#07319c" d="M0 0h28v20H0z"/><path fill="url(#c)" d="M0 0h12v9.3333H0z"/><mask id="e" width="12" height="10" x="0" y="0" maskUnits="userSpaceOnUse" style="mask-type:alpha"><path fill="url(#d)" d="M0 0h12v9.3333H0z"/></mask><g mask="url(#e)"><mask id="f" width="15" height="13" x="-2" y="-2" fill="#000" maskUnits="userSpaceOnUse"><path fill="#fff" d="M-2-2h15v13H-2z"/><path fill-rule="evenodd" d="M4.6667 4 0 0h.6667l4.6666 3.3333h1.3334L12 0v.4951a.333.333 0 0 1-.1396.2713L7.3334 4v1.3333l4.2141 3.6121c.1554.1333.0612.388-.1435.388a.22.22 0 0 1-.1282-.0411L6.6667 6H5.3333L0 9.3333v-.6666l4.6667-3.3334z" clip-rule="evenodd"/></mask><path fill="#db1e36" fill-rule="evenodd" d="M4.6667 4 0 0h.6667l4.6666 3.3333h1.3334L12 0v.4951a.333.333 0 0 1-.1396.2713L7.3334 4v1.3333l4.2141 3.6121c.1554.1333.0612.388-.1435.388a.22.22 0 0 1-.1282-.0411L6.6667 6H5.3333L0 9.3333v-.6666l4.6667-3.3334z" clip-rule="evenodd"/><path stroke="#fff" d="M4.6667 4 0 0h.6667l4.6666 3.3333h1.3334L12 0v.4951a.333.333 0 0 1-.1396.2713L7.3334 4v1.3333l4.2141 3.6121c.1554.1333.0612.388-.1435.388a.22.22 0 0 1-.1282-.0411L6.6667 6H5.3333L0 9.3333v-.6666l4.6667-3.3334z" clip-rule="evenodd" mask="url(#f)"/><path fill="#fff" fill-rule="evenodd" d="M0 3.3333V6h4.6667v3.3333c0 .3682.2984.6667.6666.6667h1.3334a.6667.6667 0 0 0 .6666-.6667V6H12a.6667.6667 0 0 0 .6667-.6667V4A.6667.6667 0 0 0 12 3.3333H7.3333V0H4.6667v3.3333z" clip-rule="evenodd"/><path fill="#db1e36" fill-rule="evenodd" d="M0 4h5.3333V0h1.3334v4H12v1.3333H6.6667v4H5.3333v-4H0z" clip-rule="evenodd"/></g></g><g clip-path="url(#g)"><g clip-path="url(#h)"><path fill="#0072c4" fill-rule="evenodd" d="M17.3333 10V6.6658c0-.7363.597-1.3325 1.3334-1.3325h4c.7363 0 1.3333.5961 1.3333 1.3325V10c0 3.3333-3.3333 4.6667-3.3333 4.6667S17.3333 13.3333 17.3333 10" clip-rule="evenodd"/><mask id="i" width="7" height="10" x="17" y="5" maskUnits="userSpaceOnUse" style="mask-type:luminance"><path fill="#fff" fill-rule="evenodd" d="M17.3333 10V6.6658c0-.7363.597-1.3325 1.3334-1.3325h4c.7363 0 1.3333.5961 1.3333 1.3325V10c0 3.3333-3.3333 4.6667-3.3333 4.6667S17.3333 13.3333 17.3333 10" clip-rule="evenodd"/></mask><g mask="url(#i)"><path fill="#005121" fill-rule="evenodd" d="M18.8691 9.2677c-.6832.69.6558.6026.6558.6026l.9536-.3054s.4287.0519.7181.1391c.1917.0578.7252.296.7252.296s1.1267-.225.7305-.7323-3.1-.69-3.7832 0" clip-rule="evenodd"/></g><g clip-path="url(#j)"><g fill-rule="evenodd" clip-path="url(#k)" clip-rule="evenodd"><path fill="#a3a3a3" d="M21.7099 8.5509c.0274-.0062.0914-.0048.1153.0242.0375.0455.1142.0304.1517.0742.0373.044.0807.0844.0807.147 0 .0624-.0072.2173-.0059.2514.0019.0524.011.0605.0649.0591.065-.0016.1548-.0067.1576-.1231.0019-.0812-.0788-.1319-.1024-.4205.0355-.0304.067-.0574.0552-.0978-.0119-.0405.0669-.0608.0591-.1216-.008-.0607.0786-.098.0432-.1654-.0354-.0675.0433-.0708.0119-.125-.0316-.0539.0511-.1012.0157-.1484s.0472-.0911.004-.1485c-.0434-.0574.0235-.0912-.0197-.1351.0275-.0439.0038-.1688-.0828-.2397-.0866-.071-.2086-.108-.2796-.135-.132-.0503-.3781-.0271-.5514-.0068s-.4963.0405-.5948.027c-.0984-.0134-.3307-.027-.5139.0034-.0627.0104-.134-.0084-.1713-.0439-.0299-.0283-.0473-.0252-.0748-.0236s-.0434-.0068-.0572-.0406c-.0243-.0594-.0787-.0186-.1043-.0928-.0172-.0497-.1065-.0068-.1339-.049-.0277-.042-.0611-.0472-.136-.042-.0039-.0255-.0452-.044-.0827-.0373.0059-.0421-.0354-.076-.1043-.0743.0079-.0523-.0886-.0928-.1379-.0607-.0314-.0388-.0945-.0305-.1102 0-.0335-.0388-.1399-.027-.1655.0151-.0452-.0252-.1332.0369-.1259.1351.0019.027.0037.0552-.0415.0642-.0846.0169-.1338.1113-.2068.1248-.0728.0136-.1457.0372-.1594.0777-.0138.0405.0118.0828-.0157.103-.0276.0203.0176.0389.0314.0489s.0354.027.0394.0507c.0056.0335.0609.0435.1182.0067.0235-.0151.0649.0305.1318-.0017.067-.032.1621-.015.1458.0372-.0078.0253.0098.0524.0316.0776.0216.0253.054.1016.0354.1452-.0276.064.0275.0997.0138.157s.0078.1098-.0217.1874c-.0296.0775-.03.1747.0138.2025.061.0389.0242.1158.0767.1486.0433.0269.0178.0928.0986.113.0807.0203.0334.0743.118.086.0848.0119.1143.0727.2029.0591.0653-.0099.0997.006.1377.021.0079.054-.0096.2525-.0136.3032-.0036.0448-.0276.1163-.0276.1604 0 .027.0552.0336.1183.0336.0628 0 .0905-.0252.0746-.096-.0157-.071-.0195-.2439-.0155-.352.0546.0263.1066.0632.1043.1038-.004.0658-.003.1839-.0139.2447-.0078.044.004.1131.008.1587.004.0168.1102.0151.1536 0 .0432-.0152.0432-.0557.0392-.2397-.0019-.091-.0985-.1842.0237-.2296.0592-.022.1418-.0726.1734-.1198.0314-.0473.1004-.0288.1496-.005.0492.0236.128.0596.1773.0438.063-.0202.13.0303.1851 0s.1261.022.1712-.0151c.0454-.0373.1242-.0018.1577-.0373.0334-.0354.1712.0204.2206-.0269.0491-.0473.1161.0135.1614-.022.0119-.0093.026-.0114.0414-.0102-.0018.0799-.0168.207-.0197.2466-.0036.045-.0276.1163-.0276.1602 0 .027.0551.0338.1181.0338.0631 0 .0907-.0253.075-.0961-.0159-.0709.0068-.2452.0106-.3534"/><path fill="#a3a3a3" d="M18.5233 7.32c.0263-.0192.0019-.059.0151-.0974.0132-.0382.0829-.0605.1527-.0732.0698-.0129.1169-.1021.1981-.1181.0432-.0085.0415-.035.0395-.0606-.0068-.0928.0774-.1515.1208-.1275.0244-.04.1264-.0512.1584-.0145.0151-.0287.0754-.0367.1056 0 .0471-.0302.1395.008.132.0574.0661-.0015.1056.0304.1.0702.0358-.0063.0754.0112.0792.035-.006.0393.0836.0494.0421.0748-.0363.0222-.0708.0134-.1121-.017s-.1793-.0034-.199.0119c-.0197.0152-.0413.022-.0572.0101-.0157-.0118-.053-.0304-.0708-.0287s-.0551.0017-.0769-.0337c-.0216-.0355-.0767-.0406-.0865-.027-.0098.0134.0216.0624.0532.081.0314.0186.0157.054.0532.0742.0244.0133.0019.059-.0119.0861s-.0669.0186-.0709-.0016c-.0039-.0202-.0178-.0338-.0492-.0035-.0316.0305-.0984.022-.1143.0136-.0157-.0085-.0591-.0236-.0885-.0152-.0297.0085.0137.022.0177.0338.0039.0118-.0474.0168-.0769.0168s-.0394.0168-.0216.0202.0865.0069.1142-.0067c.0276-.0135.1122 0 .1202.0254.0078.0253-.0492.0354-.0828.032-.0495-.005-.1221.022-.1575.0304s-.1299-.0135-.1674-.0034c-.0374.01-.0742-.0297-.0585-.0448"/><path fill="#fff" d="M19.1567 7.5269c-.0354.0134-.0235.054.008.0708.0316.017.1024.0236.1477.0153.0452-.0086.0552.005.0257.022-.0297.0167.0452.0201.0392.0472-.0057.0269.0276.0218.0591.0202.0316-.0017.0729-.022.1083-.0405s.0611-.0051.0276.027c-.0333.032-.1456.0726-.2342.0675-.0888-.005-.136.0152-.1163.0439s.1142.0337.1634.0185c.0493-.0151.0415.012.004.0303-.0375.0187-.0907.0204-.1359.0187-.0453-.0016-.0847.0372-.0256.059.0591.022.1379.0086.1674.0271.0296.0186.1202-.0102.1221.022.0019.032-.0256.0438-.0788.0405-.0532-.0034-.0375.0206.002.0336.0354.012.0986.012.1319.0085.0335-.0033.0237.0304-.0098.0422s-.1418.0287-.1949.027c-.0532-.0016-.0278.0322.0413.0322.2107 0 .2816-.0997.3348-.169.0261-.0338.0767-.0522.0886-.032s.0138.0254-.0098.0423-.0179.027.0255.0286.1064-.0101.1438-.0201c.0374-.0102.1476.0537.0571.0556-.1596.0034-.3565.0608-.4213.0844-.0651.0236-.1735.068-.2403.0658-.0492-.0016-.0691.0169-.0492.0389.0195.022.0826.022.118.0118.0355-.0102.0433 0 .0197.0202s-.0826.0287-.1241.0355c-.0412.0067-.0616.0332-.0295.0438.0611.0203.0059.0389.0494.049.0432.0102-.004.0422.0432.0524.0473.0101.0748.005.1102-.0186.0356-.0236.0551-.0372.0926-.0338s.0631-.0136.0848-.0388.0945-.0709.118-.049c.0237.022.0729-.0186.0829.0034.0097.022.0511.0085.061.0389.0108.0337.057.0405.0886.0287a.086.086 0 0 0 .057-.0828c0-.0422.0119-.059.0237-.0135.0117.0456.0551.059.0768.0372.0216-.022.0294-.0979.0137-.1333-.0157-.0356-.0177-.0812-.0019-.0896.0157-.0083.0532.0693.0689.103.0159.0338.057.0236.0591-.0101.0019-.0338.0394-.0507.067-.0253.0275.0253.0118.1097.0197.1502s.0846-.0101.0926.0033c.0078.0136.0373.017.0492-.0118.0118-.0287.0394-.054.0551-.037.0158.0168.0394.0455.0492.0775s.0453.049.0669.0153.0375-.0996.0297-.1453c-.008-.0455.0059-.0742.0254-.0505.0197.0236.0178.0877.0197.14.0021.0523.067.0474.067-.0303 0-.0355.0197-.0422.0256-.022s.006.054.0119.0692c.0145.0375.065.0169.0708-.0084.0059-.0254-.0039-.1166-.0157-.157-.0119-.0406.0118-.0691.0315-.0473.0198.022.0236.0794.0276.1435.0039.0641.0452.0676.067.049.0216-.0186.0216-.0726.0118-.1115-.0099-.0387.0216-.0387.0354-.015.0138.0235.0375.0083.0335-.0102-.0038-.0186.0157-.0355.0354-.0102.0197.0254.0138.0828.004.1282-.0099.0458.0492.0406.0768.0018s.0137-.1451-.0098-.1789c-.0237-.0338-.0217-.0777-.008-.1164.0139-.0389.0395-.0407.0415-.0237.0019.0168.0137.0455.0354.0675s.0334.0254.0373-.0085c.004-.0337.0237-.0253.0316 0s.0216.0456.0413.0237.0453-.005.0296.0287c-.0158.0338-.0158.0641-.004.098.0119.0337.0532.0286.0572-.0102.0082-.0808.0197-.0271.0295.0083.0098.0356.0394.0338.0453.0136.0059-.0203.0119-.0252.0119-.0034 0 .022.0097.0405.0354.0405s.0197-.0438.0314-.0709c.0118-.027.0335.0102.0631.0726.0295.0624.0511.0034.1201.1452.0282.0578.0689.0084.067-.0118-.0021-.0203.0039-.0338.0373-.0338.0335 0 .0611-.0067.0494-.0287-.0119-.022-.004-.0624-.006-.108-.0019-.0456.0039-.0709.0098-.0456.006.0252.0257.0608.0571.0793.0315.0186.0531-.032.0275-.064-.0255-.0322-.0609-.1081-.0589-.1723.0014-.0472.0235-.0321.0235.0017s.0197.0946.0493.108c.0295.0135.0414-.049.0276-.081s-.0216-.076.0079-.0844c.0294-.0084-.0079-.0438-.0335-.0692s-.0414-.0506.004-.049c.0452.0017.0078-.027-.014-.0455-.0216-.0185-.0589-.0557 0-.0507.0592.0051.0396-.0252.0159-.0421-.0237-.017-.0375-.049.0038-.0473.0415.0017.067-.0186.0632-.0337-.0152-.0586-.1143-.1266-.1753-.179-.061-.0523-.1596-.1046-.2127-.1131s-.0552.0254-.0414.0456.0414.0338.0454.0134c.0038-.0202.0451.0018.0648.0287.0198.027.0867.0609.1282.0912.0413.0304-.0553.0153-.1025-.0252-.027-.0233-.0237.0049.0118.037.0354.0322-.0099.0456-.0472.0186a7 7 0 0 1-.195-.152c-.061-.0488-.071-.037-.0729-.005s.0197.0541.0591.081.0886.0692.1261.098c.0373.0286.0059.0472-.0178.0269s-.1043-.0758-.1515-.1147c-.0474-.0389-.0907-.0574-.1202-.0523-.0296.005-.0275.0338.0079.0641s.0788.0877.0788.1215-.0316.0574-.0474-.0033c-.0157-.0608-.0905-.1317-.1456-.1858s-.1104-.064-.1518-.0606c-.0413.0033-.0394.0438-.0394.0759s-.0275.0134-.0294-.0102c-.002-.0236-.0335-.0438-.0513-.0421-.0176.0016-.0117.0506-.0176.0726-.006.0218-.0335.0422-.0335-.0085s-.065-.076-.0926-.0777-.0532.0085-.0394.0305c.0138.0218.0078.081-.0019.1148-.01.0336-.0394-.0255-.0454-.088-.0059-.0623-.0983-.1062-.1634-.0877-.065.0187-.0157.059-.0275.098-.0119.0388-.0297.0034-.0356-.0372-.0058-.0404-.0373-.0659-.0806-.0557s-.0729.0304-.0709.0574a.29.29 0 0 1-.0079.0945c-.0099.044-.0276.022-.0256-.0068.002-.0286-.0079-.0759-.0178-.103-.0098-.0268-.0256-.0016-.0216.0322s-.006.1114-.0217.1587-.0394.049-.0275-.0152c.0118-.0641-.0178-.1588-.0473-.2026-.0212-.0313-.0689-.0421-.0689.0017 0 .044.0138.076.0492.108s.0079.1114-.0275.1537c-.0356.0422-.0335-.0187-.0217-.0642.0117-.0456-.0532-.0607-.0788-.0693-.0256-.0083.0276-.054.0394-.1147.0058-.03-.002-.049-.0256-.0507s-.0867.0557-.1142.0979c.0078-.0438 0-.0827-.0237-.0827s-.0492.0423-.0668.0727c-.0178.0303-.0356.0134-.0178-.0186s.0452-.1182.0098-.1367c-.0355-.0186-.067.0574-.1043.0438-.0212-.0076.0078-.0556.0197-.0776.0117-.022-.0119-.0389-.0651.0016-.0532.0407-.0767.1065-.0906.147-.0137.0405-.1082.1062-.1594.1417-.0513.0354-.0729.022-.0473.0067.0256-.0151.0767-.0624.1024-.0809.0256-.0187.0137-.0296-.0354.0024s-.1389.0904-.2306.1106c-.0537.012-.061.0018-.0078-.0134s.1752-.088.2049-.1216c.0185-.0212-.0297-.0034-.0532.0017-.0236.005-.0433-.0017.004-.0186.0471-.0168.1969-.1502.2284-.1992.0314-.0489.0039-.0675-.0158-.0658s-.0473.0135-.0414-.0067-.0078-.0474-.0334-.0389c-.0257.0084-.0236.0575-.0335.0844-.0098.027-.0651.0626-.1005.0626s-.0846.0067-.122.032-.0551.0016-.0375-.0186c.0178-.0203.0572-.0254.0966-.027s.0826-.0068.1161-.0389.0354-.0574.01-.059c-.0257-.0017-.0691-.0304-.0829-.0422-.0699-.06-.198.0236-.2481.0725a2 2 0 0 1-.1516.125c-.0296.0202-.0177.0489.0314.0101.0494-.0388.0651-.0118.0199.017-.0455.0286-.0788.0708-.0631.086s.0767-.0034.1102-.022.0493.027-.0335.0422c-.0555.0103-.0749.0298-.0314.0321.0335.0017.0846-.0118.132-.0354.0471-.0237.0846-.0102.0452.0135s-.1261.0557-.1693.0557c-.0363 0 .0059.0456-.0297.059"/><path fill="#a3a3a3" d="M19.385 7.15c.047-.049.089-.071.132-.035.039.032.043.046-.006.036-.049-.011-.083 0-.112.032-.03.032-.063.019-.014-.032m-.779.124c.035-.035.092-.035.118-.074s.053-.025.022.012-.092.044-.118.071-.039.009-.022-.009m.22-.136c.021-.003.063-.028.089-.059s.081-.041.114-.005c.034.035.051.048.069.055s.018.03-.01.037c-.027.007-.065.013-.084.004-.02-.009-.049-.016-.073-.01-.024.005-.033-.005-.014-.014.02-.009.043-.035.055-.046.012-.01.043-.002.026.009-.018.011-.01.034.008.042.018.009.053.009.069-.007a.5.5 0 0 0-.079-.062c-.016-.009-.03-.013-.049.009-.02.021-.067.073-.112.071s-.033-.02-.008-.023m1.244.317c-.017.024-.033.056-.035.081s.021.042.024.011.006-.05.031-.073.001-.046-.019-.019m-.243 0c.021-.008.055-.027.072-.045s.028-.006.011.013a.21.21 0 0 1-.073.048c-.018.005-.031-.007-.01-.016m.031.098c-.028.034-.14.115-.173.13s-.022.037.016.026c-.028.022-.089.057-.128.067s-.047.041.012.022.142-.068.163-.089c.022-.022-.006-.032.028-.056s.095-.067.104-.084c.014-.027-.002-.039-.022-.015m-.122.275c.042-.021.121-.093.144-.135.014-.025.041-.022.02.017-.022.039-.102.108-.13.127s-.079.014-.033-.008m.895-.401c-.012.024-.014.079-.01.106s.028.047.024.007-.004-.081.01-.093-.004-.061-.023-.02m.239.099c.02.018.03.105.028.137s.032.032.03-.013c-.002-.046-.006-.103-.023-.133-.018-.03-.061-.015-.033.01m.209.055c.012.022.028.064.028.094 0 .031.026.017.028-.018s-.004-.066-.018-.089-.055-.019-.037.014m.129-.027c-.011-.027-.027-.051-.039-.048-.012.004-.004.028.012.055s.039.023.028-.007m-.824.188c-.006.071-.043.133-.088.155s-.037.057.018.022.097-.096.108-.15-.033-.074-.037-.027m-.1-.032c-.023.024-.037.074-.037.113s.016.01.02-.012.012-.052.032-.062.01-.062-.014-.039m1.705.049c.021.034.051.09.061.122s-.014.041-.022.012-.045-.093-.059-.115-.004-.057.02-.018"/></g></g><path stroke="#fff" stroke-linecap="round" stroke-linejoin="round" d="M16 9.333s2.268.674 2.651.674c.108 0 1.577-.337 2.017-.337.165 0 1.685.231 2.082.337s2.585-.674 2.585-.674M16 10.667s2.268.674 2.651.674c.108 0 1.577-.337 2.017-.337.165 0 1.685.231 2.082.337s2.585-.674 2.585-.674M16 13.333s2.268.674 2.651.674c.108 0 .983-.545 2.017-.545s1.685.439 2.082.545 2.585-.674 2.585-.674l7.177 1.148"/></g><mask id="l" fill="#fff"><path fill-rule="evenodd" d="M17.3333 10V6.6658c0-.7363.597-1.3325 1.3334-1.3325h4c.7363 0 1.3333.5961 1.3333 1.3325V10c0 3.3333-3.3333 4.6667-3.3333 4.6667S17.3333 13.3333 17.3333 10" clip-rule="evenodd"/></mask><path stroke="#fff" d="M17.3333 10V6.6658c0-.7363.597-1.3325 1.3334-1.3325h4c.7363 0 1.3333.5961 1.3333 1.3325V10c0 3.3333-3.3333 4.6667-3.3333 4.6667S17.3333 13.3333 17.3333 10Z" clip-rule="evenodd" mask="url(#l)"/></g></g><defs><clipPath id="a"><path fill="#fff" d="M0 0h28v20H0z"/></clipPath><clipPath id="g"><path fill="#fff" d="M17.3333 5.3333h7v10h-7z"/></clipPath><clipPath id="h"><path fill="#fff" d="M17.3333 5.3333h7v10h-7z"/></clipPath><clipPath id="j"><path fill="#fff" d="M17.3333 6.6667h5.3333v2.6667h-5.3333z"/></clipPath><clipPath id="k"><path fill="#fff" d="M18.4 6.6667h4v2.6667h-4z"/></clipPath><linearGradient id="c" x1="0" x2="0" y1="0" y2="9" gradientUnits="userSpaceOnUse"><stop stop-color="#042c90"/><stop offset="1" stop-color="#00247e"/></linearGradient><linearGradient id="d" x1="0" x2="0" y1="0" y2="9" gradientUnits="userSpaceOnUse"><stop stop-color="#042c90"/><stop offset="1" stop-color="#00247e"/></linearGradient></defs></svg>