<svg xmlns="http://www.w3.org/2000/svg" width="28" height="20" fill="none" viewBox="0 0 28 20"><g clip-path="url(#a)"><rect width="28" height="20" fill="#fff" rx="2"/><mask id="b" width="28" height="20" x="0" y="0" maskUnits="userSpaceOnUse" style="mask-type:luminance"><rect width="28" height="20" fill="#fff" rx="2"/></mask><g mask="url(#b)"><path fill="#e31f37" d="M0 0h28v20H0z"/><path fill="#083b9a" fill-rule="evenodd" d="M-1.3333 10.6667h16v-12h-16z" clip-rule="evenodd"/><path fill="#fff" fill-rule="evenodd" d="m6.6667 2.6667-.9428.2761L6 2l-.2761-.9428.9428.2761.9428-.2761L7.3333 2l.2762.9428zm0 6.6666-.9428.2762L6 8.6667l-.2761-.9428L6.6667 8l.9428-.2761-.2762.9428.2762.9428zM3.0572 6.2761 4 6l.9428.2761-.2761-.9428.2761-.9428L4 4.6667l-.9428-.2762.2761.9428zM10 5.3333l-.9428.2762.2761-.9428-.2761-.9428L10 4l.9428-.2761-.2761.9428.2761.9428zm-1.6667 2a.3333.3333 0 1 0 0-.6666.3333.3333 0 0 0 0 .6666" clip-rule="evenodd"/></g></g><defs><clipPath id="a"><path fill="#fff" d="M0 0h28v20H0z"/></clipPath></defs></svg>