<svg xmlns="http://www.w3.org/2000/svg" width="28" height="20" fill="none" viewBox="0 0 28 20"><g clip-path="url(#a)"><rect width="28" height="20" fill="#fff" rx="2"/><mask id="b" width="28" height="20" x="0" y="0" maskUnits="userSpaceOnUse" style="mask-type:luminance"><rect width="28" height="20" fill="#fff" rx="2"/></mask><g fill-rule="evenodd" clip-rule="evenodd" mask="url(#b)"><path fill="#063191" d="M0 13.3333h28V6.6667H0z"/><path fill="#e2213b" d="M0 20h28v-6.6667H0z"/><path fill="#fff" d="M14.6667 8.6667a.6667.6667 0 1 1-1.3334 0 .6667.6667 0 0 1 1.3334 0M12 9.3333a.6667.6667 0 1 1-1.3334 0 .6667.6667 0 0 1 1.3334 0M16.6667 10a.6666.6666 0 0 0 .6666-.6667.6666.6666 0 1 0-1.3333 0c0 .3682.2985.6667.6667.6667m-6 1.3333a.6667.6667 0 1 1-1.3334 0 .6667.6667 0 0 1 1.3334 0M18 12a.6667.6667 0 1 0 0-1.3334A.6667.6667 0 0 0 18 12"/><path fill="#ffd044" d="M0 6.6667h28V0H0z"/></g></g><defs><clipPath id="a"><path fill="#fff" d="M0 0h28v20H0z"/></clipPath></defs></svg>