<svg xmlns="http://www.w3.org/2000/svg" width="28" height="20" fill="none" viewBox="0 0 28 20"><g clip-path="url(#a)"><rect width="28" height="20" fill="#fff" rx="2"/><mask id="b" width="28" height="20" x="0" y="0" maskUnits="userSpaceOnUse" style="mask-type:luminance"><rect width="28" height="20" fill="#fff" rx="2"/></mask><g mask="url(#b)"><path fill="#95cef5" d="M0 0h28v20H0z"/><path fill="#fff" fill-rule="evenodd" d="M12.4326 6.824 14 5.76l1.5674 1.064-.5276-1.8195 1.4964-1.1619-1.8935-.0605L14 2l-.6426 1.7821-1.8935.0605 1.4963 1.162zm0 10.6667L14 16.4267l1.5674 1.064-.5276-1.8195 1.4964-1.1619-1.8935-.0605L14 12.6667l-.6426 1.7821-1.8935.0605 1.4963 1.1619zm6.9007-6.3974-1.5674 1.0641.5276-1.8195-1.4963-1.162 1.8935-.0604.6426-1.7822.6427 1.7822 1.8935.0604-1.4963 1.162.5276 1.8195zm-12.234 1.0641 1.5674-1.0641 1.5674 1.0641-.5276-1.8195 1.4963-1.162-1.8935-.0604-.6426-1.7822-.6427 1.7822-1.8935.0604 1.4964 1.162z" clip-rule="evenodd"/></g></g><defs><clipPath id="a"><path fill="#fff" d="M0 0h28v20H0z"/></clipPath></defs></svg>