<svg xmlns="http://www.w3.org/2000/svg" width="28" height="20" fill="none" viewBox="0 0 28 20"><g clip-path="url(#a)"><path fill="#fff" d="M0 2C0 .8954.8954 0 2 0h24c1.1046 0 2 .8954 2 2v16c0 1.1046-.8954 2-2 2H2c-1.1046 0-2-.8954-2-2z"/><mask id="b" width="28" height="20" x="0" y="0" maskUnits="userSpaceOnUse" style="mask-type:luminance"><path fill="#fff" d="M0 2C0 .8954.8954 0 2 0h24c1.1046 0 2 .8954 2 2v16c0 1.1046-.8954 2-2 2H2c-1.1046 0-2-.8954-2-2z"/></mask><g mask="url(#b)"><path fill="#e2243b" d="M0 0h28v20H0z"/><path fill="#262626" fill-rule="evenodd" d="M0 0h28L14 20z" clip-rule="evenodd"/></g><mask id="c" width="28" height="20" x="0" y="0" maskUnits="userSpaceOnUse" style="mask-type:luminance"><path fill="#fff" fill-rule="evenodd" d="M0 0h28L14 20z" clip-rule="evenodd"/></mask><g fill-rule="evenodd" clip-rule="evenodd" mask="url(#c)"><path fill="#ffcf3c" d="m14 11-2.2961 2.5433.1748-3.422-3.422.1748L11 8 8 5.3333 11.8787 6l-.5454-4L14 5.3333 16.6667 2l-.5454 4L20 5.3333 17 8l2.5433 2.2961-3.422-.1748.1748 3.422z"/><path fill="#1984d8" d="M0 13.3333h28V8H0z"/><path fill="#fff" d="M0 20h28v-6.6667H0z"/></g></g><defs><clipPath id="a"><path fill="#fff" d="M0 0h28v20H0z"/></clipPath></defs></svg>