<svg xmlns="http://www.w3.org/2000/svg" width="28" height="20" fill="none" viewBox="0 0 28 20"><g clip-path="url(#a)"><rect width="28" height="20" fill="#fff" rx="2"/><mask id="b" width="28" height="20" x="0" y="0" maskUnits="userSpaceOnUse" style="mask-type:luminance"><rect width="28" height="20" fill="#fff" rx="2"/></mask><g mask="url(#b)"><path fill="#ffbf19" d="M0 0h28v20H0z"/><path fill="#a52531" fill-rule="evenodd" d="M10.6667 1.3333h14.6666c.7364 0 1.3334.597 1.3334 1.3334v14.6666c0 .7364-.597 1.3334-1.3334 1.3334H10.6667z" clip-rule="evenodd"/><path fill="#03664f" d="M1.3333 2.6667c0-.7364.597-1.3334 1.3334-1.3334h2.6666v17.3334H2.6667c-.7364 0-1.3334-.597-1.3334-1.3334z"/><rect width="4" height="17" x="5" y="1" fill="#ff6816" rx="1"/><path fill="#ffbf18" fill-rule="evenodd" d="M12.667 4a.667.667 0 0 0 .667-.667.667.667 0 1 0-1.333 0c0 .368.299.667.667.667m12 0a.667.667 0 1 1 0-1.333.667.667 0 0 1 0 1.333M24 16.667a.667.667 0 1 1 1.333 0 .667.667 0 0 1-1.333 0M12.667 16a.667.667 0 1 1 0 1.333.667.667 0 0 1 0-1.333M16 12.574a.574.574 0 0 0-.574-.574.54.54 0 0 1-.181-.031c-.386-.138-1.912-.72-1.912-1.303 0-.365.2-.73.381-.985.157-.222.216-.512.119-.767-.227-.598-.593-1.686-.5-2.248.05-.299.249-.561.479-.772.356-.326.855-.018.855.465v2.562c0 .253.143.483.369.596l.677.338a.447.447 0 0 0 .516-.084c.216-.216.157-.58-.116-.716l-.778-.389V8c.332 0 .438-.448.141-.596l-.141-.07v-.667h1.057a.667.667 0 0 0 .471-.195l.276-.276A.667.667 0 0 1 17.61 6h.645a.667.667 0 0 1 .596.369l.359.718a.667.667 0 0 1 .036.509l-.287.861c-.144.432.177.877.632.877h2.192a.524.524 0 0 0 .37-.153c.253-.253.183-.678-.136-.838l-.543-.272A.67.67 0 0 0 21.176 8h-.509A.667.667 0 0 1 20 7.333v-.39a.666.666 0 0 1 .195-.471L20.667 6v.667c0 .368.298.667.667.667h.921a.667.667 0 0 1 .596.369l.429.858a.63.63 0 0 1 .065.226c.031.336.104 1.304-.012 1.881-.093.468-.355.9-.522 1.139-.089.129-.145.28-.145.436v1.915a.509.509 0 0 1-.509.509c-.379 0-.625-.398-.455-.737l.228-.455a.315.315 0 0 0 0-.281l-.031-.063c-.141-.281-.565-.181-.565.133a.3.3 0 0 1-.031.133l-.47.941a.596.596 0 0 1-.533.33c-.443 0-.731-.466-.533-.863l.165-.33a.67.67 0 0 0 .068-.299v-.509a.667.667 0 0 0-.667-.667H18a.667.667 0 0 0-.667.667v.509a.67.67 0 0 1-.07.298l-.431.863a.596.596 0 0 1-.533.33c-.443 0-.731-.466-.533-.863l.165-.33a.67.67 0 0 0 .069-.298z" clip-rule="evenodd"/></g></g><defs><clipPath id="a"><path fill="#fff" d="M0 0h28v20H0z"/></clipPath></defs></svg>