<svg xmlns="http://www.w3.org/2000/svg" width="28" height="20" fill="none" viewBox="0 0 28 20"><g clip-path="url(#a)"><rect width="28" height="20" fill="#fff" rx="2"/><mask id="b" width="28" height="20" x="0" y="0" maskUnits="userSpaceOnUse" style="mask-type:luminance"><rect width="28" height="20" fill="#fff" rx="2"/></mask><g mask="url(#b)"><path fill="#043cae" d="M0 0h28v20H0z"/><path fill="#ffd429" fill-rule="evenodd" d="M13.0572 4.2761 14 4l.9428.2761-.2761-.9428.2761-.9428L14 2.6667l-.9428-.2762.2761.9428zm0 13.3334L14 17.3333l.9428.2762-.2761-.9429.2761-.9428L14 16l-.9428-.2762.2761.9428zm7.6095-6.9429-.9428.2762L20 10l-.2761-.9428.9428.2761.9428-.2761-.2762.9428.2762.9428zm-14.2762.2762.9428-.2762.9428.2762L8.0002 10l.276-.9428-.9428.2761-.9428-.2761.2762.9428zm13.383-3.6095-.9428.2761.2761-.9428-.2761-.9428.9428.2762.9428-.2762-.2761.9429.2761.9428zM7.2837 14.2761 8.2265 14l.9428.2761-.2761-.9428.2761-.9428-.9428.2761-.9428-.2761.2761.9428zm10.0496-9.383-.9428.2762.2762-.9428-.2762-.9428.9428.2761.9429-.2761L18 4.2265l.2762.9428zM9.7239 16.7163l.9428-.2762.9428.2762-.2762-.9428.2762-.9428-.9428.2761-.9428-.2761.2761.9428zM19.7735 14l-.9428.2761.2761-.9428-.2761-.9428.9428.2761.9428-.2761-.2761.9428.2761.9428zM7.2837 7.6095l.9428-.2762.9428.2761-.2761-.9428.2761-.9428L8.2265 6l-.9428-.2762.2761.9429zM17.3333 16.44l-.9428.2762.2762-.9428-.2762-.9428.9428.2761.9429-.2761-.2762.9428.2762.9428zM9.7239 5.1693l.9428-.2762.9428.2762-.2762-.9428.2762-.9428-.9428.2761-.9428-.2761.2761.9428z" clip-rule="evenodd"/></g></g><defs><clipPath id="a"><path fill="#fff" d="M0 0h28v20H0z"/></clipPath></defs></svg>