<svg xmlns="http://www.w3.org/2000/svg" width="28" height="20" fill="none" viewBox="0 0 28 20"><g clip-path="url(#a)"><rect width="28" height="20" fill="#fff" rx="2"/><mask id="b" width="28" height="20" x="0" y="0" maskUnits="userSpaceOnUse" style="mask-type:luminance"><rect width="28" height="20" fill="#fff" rx="2"/></mask><g mask="url(#b)"><path fill="#dd172c" fill-rule="evenodd" d="M0 5.333h28V0H0zM0 20h28v-5.333H0z" clip-rule="evenodd"/><path fill="#ffd133" fill-rule="evenodd" d="M0 14.6667h28V5.3333H0z" clip-rule="evenodd"/><path fill="#ffedb1" fill-rule="evenodd" d="M7.3333 9.3333h1.3334V10H7.3333z" clip-rule="evenodd"/><mask id="c" fill="#fff"><path fill-rule="evenodd" d="M5.7268 9.3887a.6667.6667 0 0 1 .6644-.722h1.8843c.39 0 .6967.3333.6643.722l-.1712 2.0553c-.0576.6911-.6353 1.2227-1.3288 1.2227h-.213c-.6934 0-1.271-.5316-1.3287-1.2226z" clip-rule="evenodd"/></mask><path stroke="#a41517" d="M5.7268 9.3887a.6667.6667 0 0 1 .6644-.722h1.8843c.39 0 .6967.3333.6643.722l-.1712 2.0553c-.0576.6911-.6353 1.2227-1.3288 1.2227h-.213c-.6934 0-1.271-.5316-1.3287-1.2226z" clip-rule="evenodd" mask="url(#c)"/><path fill="#a41517" fill-rule="evenodd" d="M6 10h2.6667v.6667H8L7.3333 12l-.6666-1.3333H6z" clip-rule="evenodd"/><rect width="1" height="5" x="4" y="8" fill="#a41517" rx="1"/><rect width="1" height="5" x="9" y="8" fill="#a41517" rx="1"/><path fill="#a41517" d="M6 7.7333c0-.589.4776-1.0666 1.0667-1.0666H7.6c.5891 0 1.0667.4775 1.0667 1.0666A.2667.2667 0 0 1 8.4 8H6.2667A.2667.2667 0 0 1 6 7.7333"/></g></g><defs><clipPath id="a"><path fill="#fff" d="M0 0h28v20H0z"/></clipPath></defs></svg>