<svg xmlns="http://www.w3.org/2000/svg" width="28" height="20" fill="none" viewBox="0 0 28 20"><g clip-path="url(#a)"><rect width="28" height="20" fill="#fff" rx="2"/><mask id="b" width="28" height="20" x="0" y="0" maskUnits="userSpaceOnUse" style="mask-type:luminance"><rect width="28" height="20" fill="#fff" rx="2"/></mask><g fill-rule="evenodd" clip-rule="evenodd" mask="url(#b)"><path fill="#2acb41" d="M0 20h28v-6.667H0zM0 6.667h28V0H0z"/><path fill="#fdd043" d="M0 13.3333h28V6.6667H0z"/><path fill="#e71e43" d="m0 0 10.6667 10L0 20z"/><path fill="#262626" d="M14.667 11.093 13.1 12.157l.528-1.819-1.496-1.162 1.894-.06.643-1.782.643 1.782 1.894.061-1.496 1.162.528 1.82zm6.666 0-1.567 1.064.528-1.819-1.496-1.162 1.894-.06.643-1.782.643 1.782 1.894.061-1.496 1.162.528 1.82z"/></g></g><defs><clipPath id="a"><path fill="#fff" d="M0 0h28v20H0z"/></clipPath></defs></svg>