<svg xmlns="http://www.w3.org/2000/svg" width="28" height="20" fill="none" viewBox="0 0 28 20"><g clip-path="url(#a)"><rect width="28" height="20" fill="#fff" rx="2"/><mask id="b" width="28" height="20" x="0" y="0" maskUnits="userSpaceOnUse" style="mask-type:luminance"><rect width="28" height="20" fill="#fff" rx="2"/></mask><g mask="url(#b)"><path fill="#d02f44" fill-rule="evenodd" d="M28 0H0v1.3333h28zm0 2.6667H0V4h28zM0 5.3333h28v1.3334H0zM28 8H0v1.3333h28zM0 10.6667h28V12H0zm28 2.6666H0v1.3334h28zM0 16h28v1.3333H0zm28 2.6667H0V20h28z" clip-rule="evenodd"/><path fill="#46467f" d="M0 0h12v9.3333H0z"/><path fill="url(#c)" fill-rule="evenodd" d="M2 2.6667a.6667.6667 0 1 0 0-1.3334.6667.6667 0 0 0 0 1.3334m2.6667 0a.6667.6667 0 1 0 0-1.3333.6667.6667 0 0 0 0 1.3333M8 2a.6667.6667 0 1 1-1.3333 0A.6667.6667 0 0 1 8 2m2 .6667a.6667.6667 0 1 0 0-1.3334.6667.6667 0 0 0 0 1.3334m-6 .6666a.6667.6667 0 1 1-1.3333 0 .6667.6667 0 0 1 1.3333 0M6 4a.6667.6667 0 1 0 0-1.3333A.6667.6667 0 0 0 6 4m3.3333-.6667a.6667.6667 0 1 1-1.3333 0 .6667.6667 0 0 1 1.3333 0m.6667 2A.6667.6667 0 1 0 10 4a.6667.6667 0 0 0 0 1.3333m-2-.6666a.6667.6667 0 1 1-1.3333 0 .6667.6667 0 0 1 1.3333 0m-3.3333.6666a.6667.6667 0 1 0 0-1.3333.6667.6667 0 0 0 0 1.3333m-2-.6666a.6667.6667 0 1 1-1.3333 0 .6667.6667 0 0 1 1.3333 0m.6666 2a.6667.6667 0 1 0 0-1.3334.6667.6667 0 0 0 0 1.3334M6.6667 6a.6667.6667 0 1 1-1.3334 0 .6667.6667 0 0 1 1.3334 0m2 .6667a.6667.6667 0 1 0 0-1.3333.6667.6667 0 0 0 0 1.3333m2 .6666a.6667.6667 0 1 1-1.3334 0 .6667.6667 0 0 1 1.3334 0M7.3333 8a.6667.6667 0 1 0 0-1.3333.6667.6667 0 0 0 0 1.3333m-2-.6667a.6667.6667 0 1 1-1.3333 0 .6667.6667 0 0 1 1.3333 0M2 8a.6667.6667 0 1 0 0-1.3333A.6667.6667 0 0 0 2 8" clip-rule="evenodd"/></g></g><defs><linearGradient id="c" x1="1" x2="1" y1="1" y2="8" gradientUnits="userSpaceOnUse"><stop stop-color="#fff"/><stop offset="1" stop-color="#f0f0f0"/></linearGradient><clipPath id="a"><path fill="#fff" d="M0 0h28v20H0z"/></clipPath></defs></svg>