<svg width="28" height="20" viewBox="0 0 28 20" fill="none" xmlns="http://www.w3.org/2000/svg">
<g clip-path="url(#clip0_5138_1524)">
<path d="M0 2C0 0.895431 0.895431 0 2 0H26C27.1046 0 28 0.895431 28 2V18C28 19.1046 27.1046 20 26 20H2C0.895431 20 0 19.1046 0 18V2Z" fill="white"/>
<mask id="mask0_5138_1524" style="mask-type:luminance" maskUnits="userSpaceOnUse" x="0" y="0" width="28" height="20">
<rect width="28" height="20" rx="2" fill="white"/>
</mask>
<g mask="url(#mask0_5138_1524)">
<path d="M26 19.5V20H2V19.5H26ZM27.5 18V2C27.5 1.17157 26.8284 0.5 26 0.5H2C1.17157 0.5 0.5 1.17157 0.5 2V18C0.5 18.8284 1.17157 19.5 2 19.5V20C0.895431 20 0 19.1046 0 18V2C2.57702e-07 0.895431 0.895431 0 2 0H26C27.1046 0 28 0.895431 28 2V18C28 19.1046 27.1046 20 26 20V19.5C26.8284 19.5 27.5 18.8284 27.5 18Z" fill="#F5F5F5"/>
<path fill-rule="evenodd" clip-rule="evenodd" d="M8 0H0V8H8V0ZM12 0V8H28V0H12ZM28 12H12V20H28V12ZM8 20V12H0V20H8Z" fill="#F14247"/>
<path fill-rule="evenodd" clip-rule="evenodd" d="M0 10.6667H9.33333V20H10.6667V10.6667H28V9.33333H10.6667V0H9.33333V9.33333H0V10.6667Z" fill="#0A3A85"/>
</g>
</g>
<defs>
<clipPath id="clip0_5138_1524">
<rect width="28" height="20" fill="white"/>
</clipPath>
</defs>
</svg>
