<svg xmlns="http://www.w3.org/2000/svg" width="28" height="20" fill="none" viewBox="0 0 28 20"><g clip-path="url(#a)"><rect width="28" height="20" fill="#fff" rx="2"/><mask id="b" width="28" height="20" x="0" y="0" maskUnits="userSpaceOnUse" style="mask-type:luminance"><rect width="28" height="20" fill="#fff" rx="2"/></mask><g fill-rule="evenodd" clip-rule="evenodd" mask="url(#b)"><path fill="#112ebc" d="M0 9.3333h28V0H0z"/><path fill="#e3264a" d="M0 20h28V9.3333H0z"/></g><g clip-path="url(#c)"><rect width="9" height="8" x="9" y="7" fill="url(#d)" rx="1"/><mask id="e" width="10" height="9" x="9" y="6" maskUnits="userSpaceOnUse" style="mask-type:luminance"><rect width="9" height="8" x="9" y="7" fill="#fff" rx="1"/></mask><g mask="url(#e)"><mask id="f" fill="#fff"><path fill-rule="evenodd" d="m9.3333 13.3333 2.1037-1.0518A2.67 2.67 0 0 1 12.6295 12h2.741c.414 0 .8223.0964 1.1926.2815l2.1036 1.0518v1.3334H9.3333z" clip-rule="evenodd"/></mask><path fill="#aabcae" fill-rule="evenodd" stroke="#366c14" d="m9.3333 13.3333 2.1037-1.0518A2.67 2.67 0 0 1 12.6295 12h2.741c.414 0 .8223.0964 1.1926.2815l2.1036 1.0518v1.3334H9.3333z" clip-rule="evenodd" mask="url(#f)"/><circle cx="14" cy="10" r="2" fill="#d4b872"/><mask id="g" fill="#fff"><path fill-rule="evenodd" d="M10.6667 11.3871c0-.559.6466-.8698 1.0831-.5206l1.8338 1.467a.6666.6666 0 0 0 .8329 0l1.8337-1.467c.4365-.3492 1.0832-.0384 1.0832.5206v1.2796a.6666.6666 0 0 1-.6667.6666h-5.3333a.6666.6666 0 0 1-.6667-.6666z" clip-rule="evenodd"/></mask><path fill="#c28321" fill-rule="evenodd" stroke="#0d3488" d="M10.6667 11.3871c0-.559.6466-.8698 1.0831-.5206l1.8338 1.467a.6666.6666 0 0 0 .8329 0l1.8337-1.467c.4365-.3492 1.0832-.0384 1.0832.5206v1.2796a.6666.6666 0 0 1-.6667.6666h-5.3333a.6666.6666 0 0 1-.6667-.6666z" clip-rule="evenodd" mask="url(#g)"/><path fill="#216c30" fill-rule="evenodd" d="M12.569 8.569c-.21-.21-.0612-.569.2357-.569h2.3906c.2969 0 .4457.359.2357.569l-1.1953 1.1953a.3333.3333 0 0 1-.4714 0z" clip-rule="evenodd"/></g></g></g><defs><clipPath id="a"><path fill="#fff" d="M0 0h28v20H0z"/></clipPath><clipPath id="c"><path fill="#fff" d="M9.3333 6.6667h10v8h-10z"/></clipPath><linearGradient id="d" x1="9" x2="9" y1="7" y2="15" gradientUnits="userSpaceOnUse"><stop stop-color="#fff"/><stop offset="1" stop-color="#f0f0f0"/></linearGradient></defs></svg>