<svg xmlns="http://www.w3.org/2000/svg" width="28" height="20" fill="none" viewBox="0 0 28 20"><g clip-path="url(#a)"><path fill="#fff" d="M0 2C0 .8954.8954 0 2 0h24c1.1046 0 2 .8954 2 2v16c0 1.1046-.8954 2-2 2H2c-1.1046 0-2-.8954-2-2z"/><mask id="b" width="28" height="20" x="0" y="0" maskUnits="userSpaceOnUse" style="mask-type:luminance"><path fill="#fff" d="M0 2C0 .8954.8954 0 2 0h24c1.1046 0 2 .8954 2 2v16c0 1.1046-.8954 2-2 2H2c-1.1046 0-2-.8954-2-2z"/></mask><g fill-rule="evenodd" clip-rule="evenodd" mask="url(#b)"><path fill="#24aad5" d="M0 6.6667h28V0H0z"/><path fill="#21bf75" d="M0 20h28v-6.6667H0z"/><path fill="#ed1845" d="M0 13.3334h28V6.6667H0z"/><path fill="#fff" d="M15 8.3333q.0561 0 .1114.0037A1.99 1.99 0 0 0 14 8c-1.1046 0-2 .8954-2 2s.8954 2 2 2a1.99 1.99 0 0 0 1.1114-.337 1.7 1.7 0 0 1-.1114.0037c-.9205 0-1.6667-.7462-1.6667-1.6667S14.0795 8.3333 15 8.3333m.3333 2.3334a.6667.6667 0 1 0 0-1.3334.6667.6667 0 0 0 0 1.3334"/></g></g><defs><clipPath id="a"><path fill="#fff" d="M0 0h28v20H0z"/></clipPath></defs></svg>