<svg width="28" height="20" viewBox="0 0 28 20" fill="none" xmlns="http://www.w3.org/2000/svg">
<g clip-path="url(#clip0_5138_2023)">
<rect width="28" height="20" rx="2" fill="white"/>
<mask id="mask0_5138_2023" style="mask-type:luminance" maskUnits="userSpaceOnUse" x="0" y="0" width="28" height="20">
<rect width="28" height="20" rx="2" fill="white"/>
</mask>
<g mask="url(#mask0_5138_2023)">
<path fill-rule="evenodd" clip-rule="evenodd" d="M28 0H0V1.33333H28V0ZM28 2.66667H0V4H28V2.66667ZM0 5.33333H28V6.66667H0V5.33333ZM28 8H0V9.33333H28V8ZM0 10.6667H28V12H0V10.6667ZM28 13.3333H0V14.6667H28V13.3333ZM0 16H28V17.3333H0V16ZM28 18.6667H0V20H28V18.6667Z" fill="#D02F44"/>
<rect width="12" height="9.33333" fill="#46467F"/>
<path fill-rule="evenodd" clip-rule="evenodd" d="M2.00001 2.66668C2.3682 2.66668 2.66668 2.3682 2.66668 2.00001C2.66668 1.63182 2.3682 1.33334 2.00001 1.33334C1.63182 1.33334 1.33334 1.63182 1.33334 2.00001C1.33334 2.3682 1.63182 2.66668 2.00001 2.66668ZM4.66668 2.66668C5.03487 2.66668 5.33334 2.3682 5.33334 2.00001C5.33334 1.63182 5.03487 1.33334 4.66668 1.33334C4.29849 1.33334 4.00001 1.63182 4.00001 2.00001C4.00001 2.3682 4.29849 2.66668 4.66668 2.66668ZM8.00001 2.00001C8.00001 2.3682 7.70153 2.66668 7.33334 2.66668C6.96515 2.66668 6.66668 2.3682 6.66668 2.00001C6.66668 1.63182 6.96515 1.33334 7.33334 1.33334C7.70153 1.33334 8.00001 1.63182 8.00001 2.00001ZM10 2.66668C10.3682 2.66668 10.6667 2.3682 10.6667 2.00001C10.6667 1.63182 10.3682 1.33334 10 1.33334C9.63182 1.33334 9.33334 1.63182 9.33334 2.00001C9.33334 2.3682 9.63182 2.66668 10 2.66668ZM4.00001 3.33334C4.00001 3.70153 3.70153 4.00001 3.33334 4.00001C2.96515 4.00001 2.66668 3.70153 2.66668 3.33334C2.66668 2.96515 2.96515 2.66668 3.33334 2.66668C3.70153 2.66668 4.00001 2.96515 4.00001 3.33334ZM6.00001 4.00001C6.3682 4.00001 6.66668 3.70153 6.66668 3.33334C6.66668 2.96515 6.3682 2.66668 6.00001 2.66668C5.63182 2.66668 5.33334 2.96515 5.33334 3.33334C5.33334 3.70153 5.63182 4.00001 6.00001 4.00001ZM9.33334 3.33334C9.33334 3.70153 9.03487 4.00001 8.66668 4.00001C8.29849 4.00001 8.00001 3.70153 8.00001 3.33334C8.00001 2.96515 8.29849 2.66668 8.66668 2.66668C9.03487 2.66668 9.33334 2.96515 9.33334 3.33334ZM10 5.33334C10.3682 5.33334 10.6667 5.03487 10.6667 4.66668C10.6667 4.29849 10.3682 4.00001 10 4.00001C9.63182 4.00001 9.33334 4.29849 9.33334 4.66668C9.33334 5.03487 9.63182 5.33334 10 5.33334ZM8.00001 4.66668C8.00001 5.03487 7.70153 5.33334 7.33334 5.33334C6.96515 5.33334 6.66668 5.03487 6.66668 4.66668C6.66668 4.29849 6.96515 4.00001 7.33334 4.00001C7.70153 4.00001 8.00001 4.29849 8.00001 4.66668ZM4.66668 5.33334C5.03487 5.33334 5.33334 5.03487 5.33334 4.66668C5.33334 4.29849 5.03487 4.00001 4.66668 4.00001C4.29849 4.00001 4.00001 4.29849 4.00001 4.66668C4.00001 5.03487 4.29849 5.33334 4.66668 5.33334ZM2.66668 4.66668C2.66668 5.03487 2.3682 5.33334 2.00001 5.33334C1.63182 5.33334 1.33334 5.03487 1.33334 4.66668C1.33334 4.29849 1.63182 4.00001 2.00001 4.00001C2.3682 4.00001 2.66668 4.29849 2.66668 4.66668ZM3.33334 6.66668C3.70153 6.66668 4.00001 6.3682 4.00001 6.00001C4.00001 5.63182 3.70153 5.33334 3.33334 5.33334C2.96515 5.33334 2.66668 5.63182 2.66668 6.00001C2.66668 6.3682 2.96515 6.66668 3.33334 6.66668ZM6.66668 6.00001C6.66668 6.3682 6.3682 6.66668 6.00001 6.66668C5.63182 6.66668 5.33334 6.3682 5.33334 6.00001C5.33334 5.63182 5.63182 5.33334 6.00001 5.33334C6.3682 5.33334 6.66668 5.63182 6.66668 6.00001ZM8.66668 6.66668C9.03487 6.66668 9.33334 6.3682 9.33334 6.00001C9.33334 5.63182 9.03487 5.33334 8.66668 5.33334C8.29849 5.33334 8.00001 5.63182 8.00001 6.00001C8.00001 6.3682 8.29849 6.66668 8.66668 6.66668ZM10.6667 7.33334C10.6667 7.70153 10.3682 8.00001 10 8.00001C9.63182 8.00001 9.33334 7.70153 9.33334 7.33334C9.33334 6.96515 9.63182 6.66668 10 6.66668C10.3682 6.66668 10.6667 6.96515 10.6667 7.33334ZM7.33334 8.00001C7.70153 8.00001 8.00001 7.70153 8.00001 7.33334C8.00001 6.96515 7.70153 6.66668 7.33334 6.66668C6.96515 6.66668 6.66668 6.96515 6.66668 7.33334C6.66668 7.70153 6.96515 8.00001 7.33334 8.00001ZM5.33334 7.33334C5.33334 7.70153 5.03487 8.00001 4.66668 8.00001C4.29849 8.00001 4.00001 7.70153 4.00001 7.33334C4.00001 6.96515 4.29849 6.66668 4.66668 6.66668C5.03487 6.66668 5.33334 6.96515 5.33334 7.33334ZM2.00001 8.00001C2.3682 8.00001 2.66668 7.70153 2.66668 7.33334C2.66668 6.96515 2.3682 6.66668 2.00001 6.66668C1.63182 6.66668 1.33334 6.96515 1.33334 7.33334C1.33334 7.70153 1.63182 8.00001 2.00001 8.00001Z" fill="url(#paint0_linear_5138_2023)"/>
</g>
</g>
<defs>
<linearGradient id="paint0_linear_5138_2023" x1="1.33334" y1="1.33334" x2="1.33334" y2="8.00001" gradientUnits="userSpaceOnUse">
<stop stop-color="white"/>
<stop offset="1" stop-color="#F0F0F0"/>
</linearGradient>
<clipPath id="clip0_5138_2023">
<rect width="28" height="20" fill="white"/>
</clipPath>
</defs>
</svg>
