<svg xmlns="http://www.w3.org/2000/svg" width="28" height="20" fill="none" viewBox="0 0 28 20"><g clip-path="url(#a)"><rect width="28" height="20" fill="#fff" rx="2"/><mask id="b" width="28" height="20" x="0" y="0" maskUnits="userSpaceOnUse" style="mask-type:luminance"><rect width="28" height="20" fill="#fff" rx="2"/></mask><g mask="url(#b)"><path fill="#20aa46" fill-rule="evenodd" d="M0 6.6667h28V0H0z" clip-rule="evenodd"/><path fill="#e92f3b" fill-rule="evenodd" d="M0 20h28v-6.6667H0z" clip-rule="evenodd"/><path fill="#fadf50" fill-rule="evenodd" d="M0 13.3333h28V6.6667H0z" clip-rule="evenodd"/><circle cx="14" cy="10" r="5" fill="#205cca"/><path fill="#ffdb3d" d="m14.7643 8.948 2.4063.0224-1.9346 1.4316.7236 2.2949-1.9599-1.3965-1.959 1.3965.7227-2.2949-1.9336-1.4316 2.4062-.0225.7637-2.2812zm-1.0468.663-.4756.0039-.416.003.7167.5312-.1435.4531-.125.3965.3389-.2412.3867-.2764.7246.5166-.2666-.8486.3818-.2832.333-.248-.414-.003-.4756-.004-.1514-.451-.1318-.3946z"/></g></g><defs><clipPath id="a"><path fill="#fff" d="M0 0h28v20H0z"/></clipPath></defs></svg>