<svg xmlns="http://www.w3.org/2000/svg" width="28" height="20" fill="none" viewBox="0 0 28 20"><g clip-path="url(#a)"><rect width="28" height="20" fill="#fff" rx="2"/><path fill="#fff" d="M0 2C0 .8954.8954 0 2 0h24c1.1046 0 2 .8954 2 2v16c0 1.1046-.8954 2-2 2H2c-1.1046 0-2-.8954-2-2z"/><path fill="#f5f5f5" d="M26 19.5v.5H2v-.5zm1.5-1.5V2c0-.8284-.6716-1.5-1.5-1.5H2C1.1716.5.5 1.1716.5 2v16c0 .8284.6716 1.5 1.5 1.5v.5c-1.1046 0-2-.8954-2-2V2C0 .8954.8954 0 2 0h24c1.1046 0 2 .8954 2 2v16c0 1.1046-.8954 2-2 2v-.5c.8284 0 1.5-.6716 1.5-1.5"/><path fill="red" d="M12.0964 0h3.8072v20h-3.8072z"/><path fill="red" d="M28 8.096v3.807H0V8.096zM6.646 3.297a8.2 8.2 0 0 0-.097.864 8.2 8.2 0 0 0 .865-.096l.603-.101a2.96 2.96 0 0 0 0 1.374l-.602-.101a8.2 8.2 0 0 0-.865-.097c.017.29.049.578.097.865l.102.604a2.964 2.964 0 0 0-1.375 0l.102-.603a8.2 8.2 0 0 0 .096-.865 8.2 8.2 0 0 0-.864.097l-.603.102a2.96 2.96 0 0 0 0-1.374l.604.101c.287.048.575.078.864.096a8.2 8.2 0 0 0-.096-.864l-.101-.602a2.96 2.96 0 0 0 1.375 0zm15.881 0a8.2 8.2 0 0 0-.097.864 8.2 8.2 0 0 0 .865-.096l.603-.101a2.96 2.96 0 0 0 0 1.374l-.602-.101a8.2 8.2 0 0 0-.865-.097 8.2 8.2 0 0 0 .097.865l.102.604a2.964 2.964 0 0 0-1.375 0l.102-.603a8.2 8.2 0 0 0 .096-.865 8.2 8.2 0 0 0-.864.097l-.602.102a2.96 2.96 0 0 0 0-1.374l.603.101c.287.048.575.078.864.096a8.2 8.2 0 0 0-.096-.864l-.102-.602a2.96 2.96 0 0 0 1.375 0zM6.646 13.994a8.2 8.2 0 0 0-.097.864 8.2 8.2 0 0 0 .865-.097l.603-.101a2.96 2.96 0 0 0 0 1.374l-.602-.101a8.2 8.2 0 0 0-.865-.097c.017.289.049.579.097.865l.102.603a2.96 2.96 0 0 0-1.375 0l.102-.602a8.2 8.2 0 0 0 .096-.865 8.2 8.2 0 0 0-.864.097l-.603.101a2.96 2.96 0 0 0 0-1.374l.604.101c.287.048.575.079.864.097a8.2 8.2 0 0 0-.096-.864l-.101-.603a2.96 2.96 0 0 0 1.375 0zm15.881 0a8.2 8.2 0 0 0-.097.864 8.2 8.2 0 0 0 .865-.097l.603-.101a2.96 2.96 0 0 0 0 1.374l-.602-.101a8.2 8.2 0 0 0-.865-.097c.017.289.049.579.097.865l.102.603a2.96 2.96 0 0 0-1.375 0l.102-.602a8.2 8.2 0 0 0 .096-.865 8.2 8.2 0 0 0-.864.097l-.602.101a2.96 2.96 0 0 0 0-1.374l.603.101c.287.048.575.079.864.097a8.2 8.2 0 0 0-.096-.864l-.102-.603a2.96 2.96 0 0 0 1.375 0z"/></g><defs><clipPath id="a"><rect width="28" height="20" fill="#fff" rx="2"/></clipPath></defs></svg>