<svg xmlns="http://www.w3.org/2000/svg" width="28" height="20" fill="none" viewBox="0 0 28 20"><g clip-path="url(#a)"><rect width="28" height="20" fill="#fff" rx="2"/><mask id="b" width="28" height="20" x="0" y="0" maskUnits="userSpaceOnUse" style="mask-type:luminance"><rect width="28" height="20" fill="#fff" rx="2"/></mask><g mask="url(#b)"><path fill="#19bfbf" d="M0 0h28v20H0z"/><path fill="#fff" fill-rule="evenodd" d="M10 16.0411a.33.33 0 0 1 .01-.0809l.6567-2.6268.6431-2.5725a.333.333 0 0 0-.0072-.1863l-.5923-1.777a.333.333 0 0 0-.1671-.1927l-1.0256-.5128a.333.333 0 0 1-.1843-.298V5.412c0-.0518.012-.1028.0352-.1491L10 4l.5745-1.149a.333.333 0 0 1 .2982-.1843h3.4606A.3334.3334 0 0 1 14.6667 3v.6667c0 .184.1492.3333.3333.3333h.6667A.3333.3333 0 0 1 16 4.3334v.794a.333.333 0 0 0 .1843.298l2.2981 1.1492a.333.333 0 0 1 .1843.2981v1.0486a.334.334 0 0 1-.0352.1491l-.5919 1.1838a.334.334 0 0 1-.1132.1283l-1.8527 1.2351a.334.334 0 0 0-.1133.1283l-1.2541 2.5083a.334.334 0 0 1-.1133.1283l-1.8527 1.2351a.334.334 0 0 0-.1132.1283l-1.2016 2.4032a.334.334 0 0 1-.2982.1843h-.794A.3334.3334 0 0 1 10 17z" clip-rule="evenodd"/></g></g><defs><clipPath id="a"><path fill="#fff" d="M0 0h28v20H0z"/></clipPath></defs></svg>