<svg xmlns="http://www.w3.org/2000/svg" width="28" height="20" fill="none" viewBox="0 0 28 20"><g clip-path="url(#a)"><rect width="28" height="20" fill="#fff" rx="2"/><mask id="b" width="28" height="20" x="0" y="0" maskUnits="userSpaceOnUse" style="mask-type:luminance"><rect width="28" height="20" fill="#fff" rx="2"/></mask><g mask="url(#b)"><path fill="#0a17a7" d="M0 0h28v20H0z"/><path fill="#fff" fill-rule="evenodd" d="m-1.2825-1.9164 11.9492 8.0598v-7.4767h6.6666v7.4767l11.9492-8.0598L30.7737.2943l-9.4474 6.3724H28v6.6666h-6.6737l9.4474 6.3724-1.4912 2.2108-11.9492-8.0598v7.4766h-6.6666v-7.4766l-11.9492 8.0598-1.4911-2.2108 9.4473-6.3724H0V6.6667h6.6737L-2.7736.2943z" clip-rule="evenodd"/><path stroke="#db1f35" stroke-linecap="round" d="M18.668 6.332 31.333-2m-11.32 15.698 11.354 7.653M8.006 6.311-3.837-1.671M9.29 13.605l-13.127 8.706"/><path fill="#e6273e" fill-rule="evenodd" d="M0 12h12v8h4v-8h12V8H16V0h-4v8H0z" clip-rule="evenodd"/></g></g><defs><clipPath id="a"><path fill="#fff" d="M0 0h28v20H0z"/></clipPath></defs></svg>