<svg xmlns="http://www.w3.org/2000/svg" width="28" height="20" fill="none" viewBox="0 0 28 20"><g clip-path="url(#a)"><path fill="#fff" d="M0 2C0 .8954.8954 0 2 0h24c1.1046 0 2 .8954 2 2v16c0 1.1046-.8954 2-2 2H2c-1.1046 0-2-.8954-2-2z"/><mask id="b" width="28" height="20" x="0" y="0" maskUnits="userSpaceOnUse" style="mask-type:luminance"><rect width="28" height="20" fill="#fff" rx="2"/></mask><g mask="url(#b)"><path fill="#f5f5f5" d="M26 19.5v.5H2v-.5zm1.5-1.5V2c0-.8284-.6716-1.5-1.5-1.5H2C1.1716.5.5 1.1716.5 2v16c0 .8284.6716 1.5 1.5 1.5v.5c-1.1046 0-2-.8954-2-2V2C0 .8954.8954 0 2 0h24c1.1046 0 2 .8954 2 2v16c0 1.1046-.8954 2-2 2v-.5c.8284 0 1.5-.6716 1.5-1.5"/><path fill="#e52448" fill-rule="evenodd" d="M28 9.3333H13.3333V0H28z" clip-rule="evenodd"/><path fill="#1367ae" fill-rule="evenodd" d="M13.333 20H0V9.333h13.333zM6.667 5.76 5.099 6.824l.528-1.819-1.496-1.162 1.894-.06L6.667 2l.643 1.782 1.894.061-1.496 1.162.528 1.819z" clip-rule="evenodd"/><path fill="#e52448" fill-rule="evenodd" d="m20.6667 15.76-1.5675 1.064.5276-1.8195-1.4963-1.1619 1.8935-.0605L20.6667 12l.6426 1.7821 1.8935.0605-1.4963 1.1619.5276 1.8195z" clip-rule="evenodd"/></g></g><defs><clipPath id="a"><path fill="#fff" d="M0 0h28v20H0z"/></clipPath></defs></svg>