<svg xmlns="http://www.w3.org/2000/svg" width="28" height="20" fill="none" viewBox="0 0 28 20"><g clip-path="url(#a)"><rect width="28" height="20" fill="#fff" rx="2"/><mask id="b" width="28" height="20" x="0" y="0" maskUnits="userSpaceOnUse" style="mask-type:luminance"><rect width="28" height="20" fill="#fff" rx="2"/></mask><g mask="url(#b)"><path fill="#30c375" fill-rule="evenodd" d="M0 20h28V0H0z" clip-rule="evenodd"/><path fill="#de414f" d="M4 0h4v20H4z"/></g><g clip-path="url(#c)"><ellipse cx="6" cy="3" fill="#fff" rx="2" ry="1"/><mask id="d" width="4" height="3" x="4" y="1" maskUnits="userSpaceOnUse" style="mask-type:luminance"><ellipse cx="6" cy="3" fill="#fff" rx="2" ry="1"/></mask><g mask="url(#d)"><circle cx="6" cy="3" r="1" fill="#dd404f"/><path fill="#fbaf29" d="M4 1.333h2v1.333H4zm2 1.334h2V4H6z"/></g></g><g clip-path="url(#e)"><ellipse cx="6" cy="17" fill="#fff" rx="2" ry="1"/><mask id="f" width="4" height="3" x="4" y="16" maskUnits="userSpaceOnUse" style="mask-type:luminance"><ellipse cx="6" cy="17" fill="#fff" rx="2" ry="1"/></mask><g mask="url(#f)"><circle cx="6" cy="17" r="1" fill="#dd404f"/><path fill="#fbaf29" d="M4 16h2v1.333H4zm2 1.333h2v1.333H6z"/></g></g><g clip-path="url(#g)"><ellipse cx="6" cy="11" fill="#28ae67" rx="2" ry="1"/><mask id="h" width="4" height="3" x="4" y="9" maskUnits="userSpaceOnUse" style="mask-type:luminance"><ellipse cx="6" cy="11" fill="#fff" rx="2" ry="1"/></mask><g mask="url(#h)"><circle cx="6" cy="11" r="1" fill="#dd404f"/></g></g><g clip-path="url(#i)"><ellipse cx="6" cy="14" fill="#28ae67" rx="2" ry="1"/></g><g clip-path="url(#j)"><ellipse cx="6" cy="7" fill="#fbaf29" rx="2" ry="1"/><mask id="k" width="4" height="3" x="4" y="5" maskUnits="userSpaceOnUse" style="mask-type:luminance"><ellipse cx="6" cy="7" fill="#fff" rx="2" ry="1"/></mask><g mask="url(#k)"><circle cx="6" cy="7" r="1" fill="#dd404f"/><path fill="#28ae67" d="M4 5.333h1.333V8H4zm2.667 0H8V8H6.667z"/></g></g><path fill="#fff" fill-rule="evenodd" d="M14.8226 4.2382a.6668.6668 0 1 0 1.0217.857.6668.6668 0 0 0-1.0217-.857m-1.7274 2.5844a.6666.6666 0 1 0-.857 1.0214.6666.6666 0 0 0 .857-1.0214m-1.3333-1.3333a.6667.6667 0 1 0-.857 1.0215.6667.6667 0 0 0 .857-1.0215m2.6666-2.6667a.6666.6666 0 1 0-.857 1.0214.6666.6666 0 0 0 .857-1.0214m-.6666 2a.6668.6668 0 1 0-.8571 1.0216.6668.6668 0 0 0 .8571-1.0216" clip-rule="evenodd"/><path fill="#fff" fill-rule="evenodd" d="M17.4761 9.4505c-1.5881 1.5881-4.1628 1.5881-5.7508 0a4.1 4.1 0 0 1-.4169-.4876c1.5901 1.1562 3.829 1.0173 5.2632-.417 1.4341-1.434 1.5731-3.673.4169-5.2631.1706.124.3337.263.4876.4169 1.588 1.588 1.588 4.1628 0 5.7508" clip-rule="evenodd"/></g><defs><clipPath id="a"><path fill="#fff" d="M0 0h28v20H0z"/></clipPath><clipPath id="c"><path fill="#fff" d="M4 1.3333h4V4H4z"/></clipPath><clipPath id="e"><path fill="#fff" d="M4 16h4v2.6667H4z"/></clipPath><clipPath id="g"><path fill="#fff" d="M4 9.3333h4V12H4z"/></clipPath><clipPath id="i"><path fill="#fff" d="M4 13.3333h4v1.3333H4z"/></clipPath><clipPath id="j"><path fill="#fff" d="M4 5.3333h4V8H4z"/></clipPath></defs></svg>