<svg xmlns="http://www.w3.org/2000/svg" width="28" height="20" fill="none" viewBox="0 0 28 20"><g clip-path="url(#a)"><rect width="28" height="20" fill="#fff" rx="2"/><mask id="b" width="28" height="20" x="0" y="0" maskUnits="userSpaceOnUse" style="mask-type:luminance"><rect width="28" height="20" fill="#fff" rx="2"/></mask><g mask="url(#b)"><path fill="#0c49ae" fill-rule="evenodd" d="M0 10.667h28V0H0zM0 20h28v-5.333H0z" clip-rule="evenodd"/><path fill="#fff" fill-rule="evenodd" d="M0 14.6667h28v-4H0z" clip-rule="evenodd"/><path fill="#cd232e" fill-rule="evenodd" d="M0 13.3333h28V12H0z" clip-rule="evenodd"/><path fill="#f7d035" d="M10.9948 15.984a.6667.6667 0 0 1 .1289 1.3272 4.7 4.7 0 0 1-.457.0224c-.154 0-.3066-.0078-.4571-.0224a.6667.6667 0 0 1 .1289-1.3272c.1077.0105.2174.0157.3282.0157s.2205-.0052.3281-.0157M7.151 14.6891a.667.667 0 0 1 .9385.0918c.1388.1689.294.3242.463.4629a.667.667 0 0 1 .0917.9385.667.667 0 0 1-.9385.0918 4.7 4.7 0 0 1-.6465-.6465.667.667 0 0 1 .0918-.9385m6.0928.0918a.667.667 0 0 1 .9385-.0918.667.667 0 0 1 .0918.9385 4.7 4.7 0 0 1-.6465.6465.667.667 0 0 1-.9385-.0918.667.667 0 0 1 .0918-.9385 3.35 3.35 0 0 0 .4629-.4629m-7.2441-2.1142c0-.154.0078-.3066.0224-.4571a.6667.6667 0 0 1 1.3272.1289 3.4 3.4 0 0 0-.0156.3282c0 .1107.0051.2205.0156.3281a.6666.6666 0 0 1-.5987.7275.667.667 0 0 1-.7285-.5986 4.7 4.7 0 0 1-.0224-.457m8 0c0-.1108-.0052-.2206-.0157-.3282a.6668.6668 0 0 1 1.3272-.1289c.0146.1505.0225.3031.0225.4571a4.7 4.7 0 0 1-.0225.457.6667.6667 0 0 1-1.3272-.1289 3.4 3.4 0 0 0 .0157-.3281m-6.294-3.6075a.667.667 0 0 1 .9385.0918.667.667 0 0 1-.0918.9385 3.36 3.36 0 0 0-.4629.4629.667.667 0 0 1-.9385.0918.667.667 0 0 1-.0918-.9385 4.7 4.7 0 0 1 .6465-.6465m4.9834.0918a.667.667 0 0 1 .9385-.0918c.236.194.4526.4105.6465.6465a.667.667 0 0 1-.0918.9385.667.667 0 0 1-.9385-.0918 3.36 3.36 0 0 0-.4629-.4629.667.667 0 0 1-.0918-.9385m-2.0224-1.1513c.1539 0 .3065.0078.457.0224a.667.667 0 0 1 .5986.7285.6666.6666 0 0 1-.7275.5987 3.4 3.4 0 0 0-.3281-.0156 3.4 3.4 0 0 0-.3282.0156.6667.6667 0 0 1-.1289-1.3272 4.7 4.7 0 0 1 .4571-.0224"/></g></g><defs><clipPath id="a"><path fill="#fff" d="M0 0h28v20H0z"/></clipPath></defs></svg>