<svg xmlns="http://www.w3.org/2000/svg" width="28" height="20" fill="none" viewBox="0 0 28 20"><g clip-path="url(#a)"><rect width="28" height="20" fill="#fff" rx="2"/><mask id="b" width="28" height="20" x="0" y="0" maskUnits="userSpaceOnUse" style="mask-type:luminance"><rect width="28" height="20" fill="#fff" rx="2"/></mask><g fill-rule="evenodd" clip-rule="evenodd" mask="url(#b)"><path fill="#1ec160" d="M0 13.3333 28 0H0z"/><path fill="#df2a40" d="M0 20h28V6.6667z"/><path fill="#ffd956" d="M.784 25.3334 33.575 4.8432 27.216-5.3334-5.5752 15.1568z"/><path fill="#262626" d="M-.6292 23.0719 32.162 2.5817l-3.5328-5.6536L-4.162 17.4183z"/><path fill="#fff" d="m20.309 7.797-.945 1.497-.613-1.661-1.716-.436 1.39-1.097-.115-1.767 1.473.983 1.645-.656-.48 1.705 1.132 1.362zM9.643 14.264l-.945 1.497-.613-1.661-1.716-.436 1.39-1.097-.116-1.767 1.473.983 1.645-.656-.48 1.705 1.132 1.362z"/></g></g><defs><clipPath id="a"><path fill="#fff" d="M0 0h28v20H0z"/></clipPath></defs></svg>