<svg xmlns="http://www.w3.org/2000/svg" width="28" height="20" fill="none" viewBox="0 0 28 20"><g clip-path="url(#a)"><rect width="28" height="20" fill="#fff" rx="2"/><mask id="b" width="28" height="20" x="0" y="0" maskUnits="userSpaceOnUse" style="mask-type:luminance"><rect width="28" height="20" fill="#fff" rx="2"/></mask><g mask="url(#b)"><path fill="#e92434" d="M0 0h28v20H0z"/><path fill="#fff" fill-rule="evenodd" d="m19.0209 10.7684-1.2249 1.4849.0835-1.9231-1.7908-.706 1.8548-.5149.118-1.9213 1.0629 1.6049 1.8637-.4815-1.1978 1.5068 1.0338 1.6238z" clip-rule="evenodd"/><path fill="#fff" fill-rule="evenodd" d="M17.4028 6.3159c-.8473-.6158-1.9125-.9826-3.0695-.9826-2.7614 0-5 2.0894-5 4.6667s2.2386 4.6667 5 4.6667c1.157 0 2.2222-.3668 3.0695-.9826C16.3049 15.0935 14.5916 16 12.6667 16c-3.3137 0-6-2.6863-6-6s2.6863-6 6-6c1.9249 0 3.6382.9065 4.7361 2.3159" clip-rule="evenodd"/></g></g><defs><clipPath id="a"><path fill="#fff" d="M0 0h28v20H0z"/></clipPath></defs></svg>