<svg xmlns="http://www.w3.org/2000/svg" width="28" height="20" fill="none" viewBox="0 0 28 20"><g clip-path="url(#a)"><rect width="28" height="20" fill="#fff" rx="2"/><mask id="b" width="28" height="20" x="0" y="0" maskUnits="userSpaceOnUse" style="mask-type:luminance"><rect width="28" height="20" fill="#fff" rx="2"/></mask><g mask="url(#b)"><path fill="url(#c)" d="M0 0h28v20H0z"/><path fill="url(#d)" d="M0 0h12v9.3333H0z"/><mask id="f" width="12" height="10" x="0" y="0" maskUnits="userSpaceOnUse" style="mask-type:alpha"><path fill="url(#e)" d="M0 0h12v9.3333H0z"/></mask><g mask="url(#f)"><mask id="g" width="15" height="13" x="-2" y="-2" fill="#000" maskUnits="userSpaceOnUse"><path fill="#fff" d="M-2-2h15v13H-2z"/><path fill-rule="evenodd" d="M4.6667 4 0 0h.6667l4.6666 3.3333h1.3334L12 0v.4951a.333.333 0 0 1-.1396.2713L7.3334 4v1.3333l4.2141 3.6121c.1554.1333.0612.388-.1435.388a.22.22 0 0 1-.1282-.0411L6.6667 6H5.3333L0 9.3333v-.6666l4.6667-3.3334z" clip-rule="evenodd"/></mask><path fill="#db1e36" fill-rule="evenodd" d="M4.6667 4 0 0h.6667l4.6666 3.3333h1.3334L12 0v.4951a.333.333 0 0 1-.1396.2713L7.3334 4v1.3333l4.2141 3.6121c.1554.1333.0612.388-.1435.388a.22.22 0 0 1-.1282-.0411L6.6667 6H5.3333L0 9.3333v-.6666l4.6667-3.3334z" clip-rule="evenodd"/><path stroke="#fff" d="M4.6667 4 0 0h.6667l4.6666 3.3333h1.3334L12 0v.4951a.333.333 0 0 1-.1396.2713L7.3334 4v1.3333l4.2141 3.6121c.1554.1333.0612.388-.1435.388a.22.22 0 0 1-.1282-.0411L6.6667 6H5.3333L0 9.3333v-.6666l4.6667-3.3334z" clip-rule="evenodd" mask="url(#g)"/><path fill="#fff" fill-rule="evenodd" d="M0 3.3333V6h4.6667v3.3333c0 .3682.2984.6667.6666.6667h1.3334a.6667.6667 0 0 0 .6666-.6667V6H12a.6667.6667 0 0 0 .6667-.6667V4A.6667.6667 0 0 0 12 3.3333H7.3333V0H4.6667v3.3333z" clip-rule="evenodd"/><path fill="#db1e36" fill-rule="evenodd" d="M0 4h5.3333V0h1.3334v4H12v1.3333H6.6667v4H5.3333v-4H0z" clip-rule="evenodd"/></g></g><g clip-path="url(#h)"><g clip-path="url(#i)"><path fill="#8fc5ff" fill-rule="evenodd" d="M17.3333 10V6.6658c0-.7363.597-1.3325 1.3334-1.3325h4c.7364 0 1.3333.5961 1.3333 1.3325V10c0 3.3333-3.3333 4.6667-3.3333 4.6667S17.3333 13.3333 17.3333 10" clip-rule="evenodd"/><mask id="j" width="7" height="10" x="17" y="5" maskUnits="userSpaceOnUse" style="mask-type:luminance"><path fill="#fff" fill-rule="evenodd" d="M17.3333 10V6.6658c0-.7363.597-1.3325 1.3334-1.3325h4c.7364 0 1.3333.5961 1.3333 1.3325V10c0 3.3333-3.3333 4.6667-3.3333 4.6667S17.3333 13.3333 17.3333 10" clip-rule="evenodd"/></mask><g mask="url(#j)"><path fill="#366cc9" fill-rule="evenodd" d="M20.0899 11.8836s.6673-.8641 1.0598-.8641.4646.5738 1.0682.5738.9218-.9145 1.5032-.9145 0 3.0001 0 3.0001l-.7878.8125-4.6113.5326z" clip-rule="evenodd"/><path fill="#cf6200" fill-rule="evenodd" d="M18.1262 10.5512 18.7147 10l.5783 1.4157L20.0693 10l.6676 4.0354-1.1103-.2259L16 12.1514z" clip-rule="evenodd"/><path fill="#ff0" d="M17.3333 5.3333H24v4h-6.6667z"/></g></g><mask id="k" fill="#fff"><path fill-rule="evenodd" d="M17.3333 10V6.6658c0-.7363.597-1.3325 1.3334-1.3325h4c.7364 0 1.3333.5961 1.3333 1.3325V10c0 3.3333-3.3333 4.6667-3.3333 4.6667S17.3333 13.3333 17.3333 10" clip-rule="evenodd"/></mask><path stroke="#fff" d="M17.3333 10V6.6658c0-.7363.597-1.3325 1.3334-1.3325h4c.7364 0 1.3333.5961 1.3333 1.3325V10c0 3.3333-3.3333 4.6667-3.3333 4.6667S17.3333 13.3333 17.3333 10Z" clip-rule="evenodd" mask="url(#k)"/></g></g><defs><linearGradient id="c" x1="0" x2="0" y1="0" y2="20" gradientUnits="userSpaceOnUse"><stop stop-color="#07319c"/><stop offset="1" stop-color="#00247e"/></linearGradient><linearGradient id="d" x1="0" x2="0" y1="0" y2="9" gradientUnits="userSpaceOnUse"><stop stop-color="#042c90"/><stop offset="1" stop-color="#00247e"/></linearGradient><linearGradient id="e" x1="0" x2="0" y1="0" y2="9" gradientUnits="userSpaceOnUse"><stop stop-color="#042c90"/><stop offset="1" stop-color="#00247e"/></linearGradient><clipPath id="a"><path fill="#fff" d="M0 0h28v20H0z"/></clipPath><clipPath id="h"><path fill="#fff" d="M17.3333 5.3333h7v10h-7z"/></clipPath><clipPath id="i"><path fill="#fff" d="M17.3333 5.3333h7v10h-7z"/></clipPath></defs></svg>