<svg xmlns="http://www.w3.org/2000/svg" width="28" height="20" fill="none" viewBox="0 0 28 20"><g clip-path="url(#a)"><path fill="#fff" d="M0 2C0 .8954.8954 0 2 0h24c1.1046 0 2 .8954 2 2v16c0 1.1046-.8954 2-2 2H2c-1.1046 0-2-.8954-2-2z"/><mask id="b" width="28" height="20" x="0" y="0" maskUnits="userSpaceOnUse" style="mask-type:luminance"><rect width="28" height="20" fill="#fff" rx="2"/></mask><g mask="url(#b)"><path fill="#f5f5f5" d="M26 19.5v.5H2v-.5zm1.5-1.5V2c0-.8284-.6716-1.5-1.5-1.5H2C1.1716.5.5 1.1716.5 2v16c0 .8284.6716 1.5 1.5 1.5v.5c-1.1046 0-2-.8954-2-2V2C0 .8954.8954 0 2 0h24c1.1046 0 2 .8954 2 2v16c0 1.1046-.8954 2-2 2v-.5c.8284 0 1.5-.6716 1.5-1.5"/><path fill="#de233c" fill-rule="evenodd" d="M14.6667 20H28V0H14.6667z" clip-rule="evenodd"/><mask id="c" width="6" height="6" x="2" y="2" fill="#000" maskUnits="userSpaceOnUse"><path fill="#fff" d="M1.6667 1.6667h6v6h-6z"/><path d="M5.3337 3.9997h1.333v1.334h-1.333v1.333h-1.334v-1.333h-1.333v-1.334h1.333v-1.333h1.334z"/></mask><path fill="#cccccd" d="M5.3337 3.9997h1.333v1.334h-1.333v1.333h-1.334v-1.333h-1.333v-1.334h1.333v-1.333h1.334z"/><path fill="#7b716a" d="M5.3337 3.9997H4.667v.6666h.6667zm1.333 0h.6666V3.333h-.6666zm0 1.334v.6666h.6666v-.6666zm-1.333 0V4.667H4.667v.6667zm0 1.333v.6666h.6666v-.6666zm-1.334 0H3.333v.6666h.6667zm0-1.333h.6666V4.667h-.6666zm-1.333 0H2v.6666h.6667zm0-1.334V3.333H2v.6667zm1.333 0v.6666h.6666v-.6666zm0-1.333V2H3.333v.6667zm1.334 0h.6666V2h-.6666zm0 1.333v.6666h1.333V3.333h-1.333zm1.333 0H6v1.334h1.3333v-1.334zm0 1.334V4.667h-1.333v1.3333h1.333zm-1.333 0H4.667v1.333h1.3333v-1.333zm0 1.333V6h-1.334v1.3333h1.334zm-1.334 0h.6666v-1.333H3.333v1.333zm0-1.333V4.667h-1.333v1.3333h1.333zm-1.333 0h.6666v-1.334H2v1.334zm0-1.334v.6666h1.333V3.333h-1.333zm1.333 0h.6666v-1.333H3.333v1.333zm0-1.333v.6666h1.334V2h-1.334zm1.334 0H4.667v1.333h1.3333v-1.333z" mask="url(#c)"/><circle cx="5" cy="5" r="1" fill="#7b716a"/></g></g><defs><clipPath id="a"><path fill="#fff" d="M0 0h28v20H0z"/></clipPath></defs></svg>