<svg xmlns="http://www.w3.org/2000/svg" width="28" height="20" fill="none" viewBox="0 0 28 20"><g clip-path="url(#a)"><path fill="#fff" d="M0 2C0 .8954.8954 0 2 0h24c1.1046 0 2 .8954 2 2v16c0 1.1046-.8954 2-2 2H2c-1.1046 0-2-.8954-2-2z"/><mask id="b" width="28" height="20" x="0" y="0" maskUnits="userSpaceOnUse" style="mask-type:luminance"><rect width="28" height="20" fill="#fff" rx="2"/></mask><g mask="url(#b)"><path fill="#f5f5f5" d="M26 19.5v.5H2v-.5zm1.5-1.5V2c0-.8284-.6716-1.5-1.5-1.5H2C1.1716.5.5 1.1716.5 2v16c0 .8284.6716 1.5 1.5 1.5v.5c-1.1046 0-2-.8954-2-2V2C0 .8954.8954 0 2 0h24c1.1046 0 2 .8954 2 2v16c0 1.1046-.8954 2-2 2v-.5c.8284 0 1.5-.6716 1.5-1.5"/><path fill="#0e4dc5" fill-rule="evenodd" d="M28 2.6667H13.3333v2.6666H28zM13.3333 8v2.6667H28V8zm0 5.3333H0V16h28v-2.6667zM0 20v-1.3333h28V20z" clip-rule="evenodd"/><path fill="#fed443" fill-rule="evenodd" d="m6.6667 9.3213-.8901 1.3286-.2255-1.5832-1.3784.8109.4838-1.5243-1.5937.1325L4.16 7.3224l-1.4934-.5722 1.4934-.572-1.0973-1.1635 1.5937.1325-.4838-1.5243 1.3784.8109.2255-1.5833.89 1.3287.8901-1.3287.2255 1.5833 1.3784-.8109-.4838 1.5243 1.5937-.1325-1.0972 1.1634 1.4934.5721-1.4934.5721 1.0972 1.1635-1.5937-.1325.4838 1.5243-1.3784-.811-.2255 1.5833zm2.5454-2.571c0 1.4058-1.1396 2.5454-2.5454 2.5454S4.1212 8.156 4.1212 6.7502s1.1396-2.5454 2.5455-2.5454c1.4058 0 2.5454 1.1396 2.5454 2.5454M6.6667 8.6666c1.1045 0 2-.8955 2-2s-.8955-2-2-2-2 .8954-2 2 .8954 2 2 2" clip-rule="evenodd"/></g></g><defs><clipPath id="a"><path fill="#fff" d="M0 0h28v20H0z"/></clipPath></defs></svg>