<svg xmlns="http://www.w3.org/2000/svg" width="28" height="20" fill="none" viewBox="0 0 28 20"><g clip-path="url(#a)"><rect width="28" height="20" fill="#fff" rx="2"/><mask id="b" width="28" height="20" x="0" y="0" maskUnits="userSpaceOnUse" style="mask-type:luminance"><rect width="28" height="20" fill="#fff" rx="2"/></mask><g mask="url(#b)"><path fill="#369d0c" fill-rule="evenodd" d="M0 2.667h28V0H0zM0 20h28v-2.667H0zM0 8h28V5.333H0zm0 6.667h28V12H0z" clip-rule="evenodd"/><path fill="#262626" fill-rule="evenodd" d="M0 12h28V8H0z" clip-rule="evenodd"/><path fill="#ffd40e" fill-rule="evenodd" d="M0 5.333h28V2.667H0zm0 12h28v-2.667H0z" clip-rule="evenodd"/><path fill="#fff" fill-rule="evenodd" d="M-1.3333 20V0H0l13.3333 10L0 20z" clip-rule="evenodd"/><path fill="#f5f5f5" d="M1.084.8135C.7292 1.0878.5 1.5168.5 2v16c0 .483.2294.9112.584 1.1855l-.4102.3086C.2614 19.1278 0 18.5951 0 18V2C0 1.4047.261.8713.6738.5049z"/><path fill="#262626" d="M13.3336 10h-.0009L-.0003 20h-1.333V0h1.333zm-13.334 8.333L11.111 10-.0003 1.666z"/><path fill="url(#c)" fill-rule="evenodd" d="m4 11.3-1.9593 1.3967.723-2.295L.8297 8.97l2.406-.0217L4 6.6667l.7641 2.2816 2.406.0217-1.9337 1.4317.7229 2.295z" clip-rule="evenodd"/></g></g><defs><linearGradient id="c" x1="1" x2="1" y1="7" y2="13" gradientUnits="userSpaceOnUse"><stop stop-color="#f12f1f"/><stop offset="1" stop-color="#de2010"/></linearGradient><clipPath id="a"><path fill="#fff" d="M0 0h28v20H0z"/></clipPath></defs></svg>