<svg xmlns="http://www.w3.org/2000/svg" width="28" height="20" fill="none" viewBox="0 0 28 20"><g clip-path="url(#a)"><path fill="#fff" d="M0 2C0 .8954.8954 0 2 0h24c1.1046 0 2 .8954 2 2v16c0 1.1046-.8954 2-2 2H2c-1.1046 0-2-.8954-2-2z"/><path fill="#f5f5f5" d="M26 19.5v.5H2v-.5zm1.5-1.5V2c0-.8284-.6716-1.5-1.5-1.5H2C1.1716.5.5 1.1716.5 2v16c0 .8284.6716 1.5 1.5 1.5v.5C.9644 20 .113 19.2128.0107 18.2041L0 18V2C0 .8954.8954 0 2 0h24l.2041.0107C27.2128.113 28 .9644 28 2v16l-.0107.2041c-.0955.9416-.8436 1.6897-1.7852 1.7852L26 20v-.5c.8284 0 1.5-.6716 1.5-1.5"/><mask id="b" width="28" height="20" x="0" y="0" maskUnits="userSpaceOnUse" style="mask-type:luminance"><rect width="28" height="20" fill="#fff" rx="2"/></mask><g mask="url(#b)"><path fill="#e33f39" fill-rule="evenodd" d="M0 6.6667h28V0H0z" clip-rule="evenodd"/><path fill="#124bba" fill-rule="evenodd" d="M0 20h28v-6.6667H0z" clip-rule="evenodd"/><path fill="#398153" d="M11.333 10c0-1.4728 1.1942-2.667 2.667-2.667V8c-1.1046 0-2 .8954-2 2s.8954 2 2 2 2-.8954 2-2-.8954-2-2-2v-.667c1.4728 0 2.667 1.1942 2.667 2.667S15.4728 12.667 14 12.667 11.333 11.4728 11.333 10"/><circle cx="14" cy="10" r="1" fill="#e5cf58"/></g></g><defs><clipPath id="a"><path fill="#fff" d="M0 0h28v20H0z"/></clipPath></defs></svg>