<svg xmlns="http://www.w3.org/2000/svg" width="28" height="20" fill="none" viewBox="0 0 28 20"><g clip-path="url(#a)"><path fill="#fff" d="M0 2C0 .8954.8954 0 2 0h24c1.1046 0 2 .8954 2 2v16c0 1.1046-.8954 2-2 2H2c-1.1046 0-2-.8954-2-2z"/><mask id="b" width="28" height="20" x="0" y="0" maskUnits="userSpaceOnUse" style="mask-type:luminance"><rect width="28" height="20" fill="#fff" rx="2"/></mask><g mask="url(#b)"><path fill="#f5f5f5" d="M26 19.5v.5H2v-.5zm1.5-1.5V2c0-.8284-.6716-1.5-1.5-1.5H2C1.1716.5.5 1.1716.5 2v16c0 .8284.6716 1.5 1.5 1.5v.5c-1.1046 0-2-.8954-2-2V2C0 .8954.8954 0 2 0h24c1.1046 0 2 .8954 2 2v16c0 1.1046-.8954 2-2 2v-.5c.8284 0 1.5-.6716 1.5-1.5"/><path fill="#e8112d" d="M10.6667 0h6.6667v20h-6.6667z"/><path fill="#e8112d" d="M0 6.6667h28v6.6667H0z"/></g><g fill="#f9dd16" clip-path="url(#c)"><path d="M13.3333 2.6667h1.3333v14.6667h-1.3333z"/><path fill-rule="evenodd" d="m14 16 1.3333 1.3333h-2.6666z" clip-rule="evenodd"/><path d="M6.6667 9.3333h14.6667v1.3333H6.6667z"/><path fill-rule="evenodd" d="m14 4 1.333-1.333h-2.667zm-6 6L6.667 8.667v2.667zm12 0 1.333-1.333v2.667z" clip-rule="evenodd"/></g></g><defs><clipPath id="a"><path fill="#fff" d="M0 0h28v20H0z"/></clipPath><clipPath id="c"><path fill="#fff" d="M6.6667 2.6667h14.6667v14.6667H6.6667z"/></clipPath></defs></svg>