<svg xmlns="http://www.w3.org/2000/svg" width="28" height="20" fill="none" viewBox="0 0 28 20"><g clip-path="url(#a)"><rect width="28" height="20" fill="#fff" rx="2"/><mask id="b" width="28" height="20" x="0" y="0" maskUnits="userSpaceOnUse" style="mask-type:luminance"><rect width="28" height="20" fill="#fff" rx="2"/></mask><g fill-rule="evenodd" clip-rule="evenodd" mask="url(#b)"><path fill="#486bca" d="M0 4h28V0H0zm0 16h28v-4H0z"/><path fill="#ffdf20" d="M0 16h28V4H0z"/><path fill="#cf1615" d="M0 14.6667h28V5.3333H0z"/></g><g clip-path="url(#c)"><ellipse cx="14" cy="10" fill="#fff" rx="6" ry="3"/><mask id="d" width="12" height="8" x="8" y="6" maskUnits="userSpaceOnUse" style="mask-type:luminance"><ellipse cx="14" cy="10" fill="#fff" rx="6" ry="3"/></mask><g mask="url(#d)"><path fill="#262626" fill-rule="evenodd" d="M14.6667 6.6667H8v6.6666h5.3333z" clip-rule="evenodd"/><circle cx="15" cy="10" r="1" fill="#1a1a1a"/><circle cx="13" cy="10" r="1" fill="#f6f6f6"/></g></g></g><defs><clipPath id="a"><path fill="#fff" d="M0 0h28v20H0z"/></clipPath><clipPath id="c"><path fill="#fff" d="M8 6.6667h12v7H8z"/></clipPath></defs></svg>