<svg xmlns="http://www.w3.org/2000/svg" width="28" height="20" fill="none" viewBox="0 0 28 20"><g clip-path="url(#a)"><path fill="#fff" d="M0 2C0 .8954.8954 0 2 0h24c1.1046 0 2 .8954 2 2v16c0 1.1046-.8954 2-2 2H2c-1.1046 0-2-.8954-2-2z"/><mask id="b" width="28" height="20" x="0" y="0" maskUnits="userSpaceOnUse" style="mask-type:luminance"><path fill="#fff" d="M0 2C0 .8954.8954 0 2 0h24c1.1046 0 2 .8954 2 2v16c0 1.1046-.8954 2-2 2H2c-1.1046 0-2-.8954-2-2z"/></mask><g mask="url(#b)"><path fill="url(#c)" d="M0 0h28v20H0z"/><path fill="#262626" fill-rule="evenodd" d="M0 20h28v-9.3333H0z" clip-rule="evenodd"/><path fill="#dd2137" fill-rule="evenodd" d="M0 10.6667h28V0H0z" clip-rule="evenodd"/><path fill="#f8d84b" fill-rule="evenodd" d="M16.1978 11.5528a4 4 0 0 0 .3894-.9489c.5717-2.1338-.6946-4.3272-2.8285-4.899a.6667.6667 0 0 0-.3451 1.288c1.4226.3811 2.2668 1.8434 1.8857 3.2659a2.68 2.68 0 0 1-.2153.5516l-2.0475-1.365a.6666.6666 0 1 0-.7396 1.1093l1.8772 1.2515c-.6114.3961-1.3817.5417-2.1408.3383a.6666.6666 0 1 0-.3451 1.2879c1.3331.3572 2.6895-.0031 3.6591-.844l.9496.633a.6668.6668 0 0 0 .7396-1.1094zM13.3333 8A.6666.6666 0 1 1 12 8a.6667.6667 0 0 1 1.3333 0" clip-rule="evenodd"/></g></g><defs><linearGradient id="c" x1="0" x2="0" y1="0" y2="20" gradientUnits="userSpaceOnUse"><stop stop-color="#ff323e"/><stop offset="1" stop-color="#fd0d1b"/></linearGradient><clipPath id="a"><path fill="#fff" d="M0 0h28v20H0z"/></clipPath></defs></svg>