<svg
  width="48"
  height="48"
  viewBox="0 0 48 48"
  fill="currentColor"
  xmlns="http://www.w3.org/2000/svg"
>
  <path
    d="M32 31C31.4477 31 31 31.4478 31 32V39C31 39.5522 31.4477 40 32 40C32.5523 40 33 39.5522 33 39V34.4392L39.5585 40.9978C39.949 41.3883 40.5822 41.3883 40.9727 40.9978C41.3632 40.6072 41.3632 39.9741 40.9727 39.5835L34.3892 33H39C39.5523 33 40 32.5522 40 32C40 31.4478 39.5523 31 39 31H32Z"
  />
  <path
    fill-rule="evenodd"
    clip-rule="evenodd"
    d="M36 7C36 5.3772 34.9513 4.19897 33.9311 3.44519C32.8718 2.66248 31.4667 2.04187 29.9103 1.55554C26.7736 0.575317 22.563 0 18 0C13.437 0 9.22644 0.575317 6.08972 1.55554C4.53333 2.04187 3.12823 2.66248 2.06891 3.44519C1.04871 4.19897 0 5.3772 0 7V31C0 32.6228 1.04871 33.801 2.06891 34.5548C3.12823 35.3375 4.53333 35.9581 6.08972 36.4445C9.22644 37.4247 13.437 38 18 38C20.1392 38 22.2009 37.8735 24.1109 37.6382C24.9098 43.4906 29.9283 48 36 48C42.6274 48 48 42.6274 48 36C48 29.3726 42.6274 24 36 24C29.4944 24 24.1979 29.1769 24.0054 35.6359C22.1511 35.8707 20.1239 36 18 36C9.16345 36 2 33.7615 2 31V26.5033L2.06891 26.5548C3.12823 27.3375 4.53333 27.9581 6.08972 28.4445C9.22644 29.4247 13.437 30 18 30C18.1097 30 18.2192 29.9996 18.3284 29.999C18.5532 29.9977 18.7771 29.9949 19 29.9907V30H21C21.5523 30 22 29.5522 22 29C22 28.4478 21.5523 28 21 28H19V27.9904C18.6693 27.9968 18.3359 28 18 28C9.16345 28 2 25.7615 2 23V18.5033L2.06891 18.5548C3.12823 19.3375 4.53333 19.9581 6.08972 20.4445C9.22644 21.4247 13.437 22 18 22C22.563 22 26.7736 21.4247 29.9103 20.4445C31.4667 19.9581 32.8718 19.3375 33.9311 18.5548L33.9717 18.5245L34 18.5033V21C34 21.5522 34.4477 22 35 22C35.5523 22 36 21.5522 36 21V7ZM2 15C2 17.7615 9.16345 20 18 20C26.8365 20 34 17.7615 34 15V10.5033L33.9311 10.5548C32.8718 11.3375 31.4667 11.9581 29.9103 12.4445C26.7736 13.4247 22.563 14 18 14C13.437 14 9.22644 13.4247 6.08972 12.4445C4.53333 11.9581 3.12823 11.3375 2.06891 10.5548L2 10.5033V15ZM2 7C2 9.76147 9.16345 12 18 12C26.8365 12 34 9.76147 34 7C34 4.23853 26.8365 2 18 2C9.16345 2 2 4.23853 2 7ZM46 36C46 41.5228 41.5228 46 36 46C30.4772 46 26 41.5228 26 36C26 30.4772 30.4772 26 36 26C41.5228 26 46 30.4772 46 36Z"
  />
</svg>
