<svg xmlns="http://www.w3.org/2000/svg" width="16" height="16" fill="none" viewBox="0 0 16 16"><path fill="#000" fill-rule="evenodd" d="M8.9955 1.9251c-.4426-.7667-1.5492-.7667-1.9918 0l-2.4648 4.269c-.4426.7668.1106 1.725.996 1.725h4.9294c.8853 0 1.4386-.9583.996-1.725zm-3.2009 4.694 2.205-3.819 2.2049 3.819zM1.002 11.8708c0-1.8145 1.482-3.2795 3.2898-3.2795s3.2899 1.465 3.2899 3.2795-1.482 3.2794-3.2899 3.2794-3.2899-1.4649-3.2899-3.2794m9.3427-3.1414c-.9113 0-1.65.7387-1.65 1.6499v2.9829c0 .9112.7387 1.65 1.65 1.65h3.0025c.9113 0 1.65-.7388 1.65-1.65v-2.9828c0-.9113-.7387-1.65-1.65-1.65zm-6.0529 1.162c-1.0966 0-1.9898.8895-1.9898 1.9794s.8933 1.9794 1.9898 1.9794 1.9899-.8895 1.9899-1.9794-.8933-1.9795-1.9899-1.9795m5.7029.4879a.35.35 0 0 1 .35-.3499h3.0025a.35.35 0 0 1 .35.35v2.9828a.35.35 0 0 1-.35.35h-3.0025a.35.35 0 0 1-.35-.35z"/></svg>