<svg width="16" height="16" viewBox="0 0 16 16" fill="none" xmlns="http://www.w3.org/2000/svg">
<path fill-rule="evenodd" clip-rule="evenodd" d="M8 1.34998C6.90463 1.34998 6.01666 2.23794 6.01666 3.33331C6.01666 4.42867 6.90463 5.31664 8 5.31664C9.09536 5.31664 9.98333 4.42867 9.98333 3.33331C9.98333 2.23794 9.09536 1.34998 8 1.34998ZM7.31666 3.33331C7.31666 2.95591 7.6226 2.64998 8 2.64998C8.37739 2.64998 8.68333 2.95591 8.68333 3.33331C8.68333 3.7107 8.37739 4.01664 8 4.01664C7.6226 4.01664 7.31666 3.7107 7.31666 3.33331Z" fill="black"/>
<path fill-rule="evenodd" clip-rule="evenodd" d="M3.33335 6.01666C2.97436 6.01666 2.68335 6.30768 2.68335 6.66666C2.68335 7.02565 2.97436 7.31666 3.33335 7.31666H5.38723C5.36287 7.42947 5.35004 7.54657 5.35004 7.66666V14C5.35004 14.359 5.64105 14.65 6.00004 14.65C6.35902 14.65 6.65004 14.359 6.65004 14V11.9461C6.76284 11.9705 6.87994 11.9833 7.00004 11.9833H9.00004C9.12013 11.9833 9.23723 11.9705 9.35004 11.9461V14C9.35004 14.359 9.64105 14.65 10 14.65C10.359 14.65 10.65 14.359 10.65 14V7.66666C10.65 7.54657 10.6372 7.42947 10.6128 7.31666H12.6667C13.0257 7.31666 13.3167 7.02565 13.3167 6.66666C13.3167 6.30768 13.0257 6.01666 12.6667 6.01666H3.33335ZM6.65004 10.3333V7.66666C6.65004 7.47336 6.80674 7.31666 7.00004 7.31666H9.00004C9.19334 7.31666 9.35004 7.47336 9.35004 7.66666V10.3333C9.35004 10.5266 9.19334 10.6833 9.00004 10.6833H7.00004C6.80674 10.6833 6.65004 10.5266 6.65004 10.3333Z" fill="black"/>
</svg>
