<svg xmlns="http://www.w3.org/2000/svg" width="16" height="16" fill="none" viewBox="0 0 16 16"><path fill="#000" fill-rule="evenodd" d="M6.0167 3.3334C6.0167 2.238 6.9047 1.35 8 1.35s1.9833.888 1.9833 1.9833S9.0953 5.3168 8 5.3168s-1.9833-.888-1.9833-1.9833M8 2.65a.6833.6833 0 1 0 0 1.3667A.6833.6833 0 0 0 8 2.65M2.6834 6.6667a.65.65 0 0 1 .65-.65h9.3333a.65.65 0 1 1 0 1.3h-2.0539c.0244.1128.0372.23.0372.35V14a.65.65 0 1 1-1.3 0v-2.0538a1.66 1.66 0 0 1-.35.0372H7a1.66 1.66 0 0 1-.35-.0372V14a.65.65 0 1 1-1.3 0V7.6667c0-.12.0129-.2372.0372-.35H3.3334a.65.65 0 0 1-.65-.65m3.9666 1v2.6667a.35.35 0 0 0 .35.35h2a.35.35 0 0 0 .35-.35V7.6667a.35.35 0 0 0-.35-.35H7a.35.35 0 0 0-.35.35"/></svg>