<svg xmlns="http://www.w3.org/2000/svg" width="16" height="16" fill="none" viewBox="0 0 16 16"><path fill="#000" fill-rule="evenodd" d="M14.6501 1.7406a.65.65 0 1 0-1.3 0 .65.65 0 0 0 1.3 0M7.9847 1.1c-1.6357 0-2.9614 1.326-2.9614 2.9614s1.3259 2.9613 2.9614 2.9613 2.9613-1.3258 2.9613-2.9613S9.6202 1.1 7.9847 1.1M6.3233 4.0614c0-.9176.7438-1.6614 1.6614-1.6614s1.6613.7438 1.6613 1.6614-.7438 1.6613-1.6614 1.6613-1.6613-.7438-1.6613-1.6613m8.3268 2.7019a.65.65 0 1 1-1.3 0v-2.976a.65.65 0 1 1 1.3 0zM2.0337 11.7826c0-2.0159 1.6342-3.65 3.65-3.65h4.6328c2.0158 0 3.65 1.6341 3.65 3.6499v1.0676c0 1.1321-.9178 2.05-2.05 2.05H4.0837c-1.1322 0-2.05-.9179-2.05-2.05zm3.65-2.35c-1.2979 0-2.35 1.0521-2.35 2.35v1.0675a.75.75 0 0 0 .75.75h7.8328a.75.75 0 0 0 .75-.75v-1.0676c0-1.2978-1.0522-2.35-2.35-2.35z"/></svg>