<svg width="16" height="16" viewBox="0 0 16 16" fill="none" xmlns="http://www.w3.org/2000/svg">
<path d="M14.0001 1.09058C14.3591 1.09058 14.6501 1.38159 14.6501 1.74058C14.6501 2.09956 14.3591 2.39058 14.0001 2.39058C13.6411 2.39058 13.3501 2.09956 13.3501 1.74058C13.3501 1.38159 13.6411 1.09058 14.0001 1.09058Z" fill="black"/>
<path fill-rule="evenodd" clip-rule="evenodd" d="M7.98466 1.10001C6.34915 1.10001 5.02332 2.42585 5.02332 4.06135C5.02332 5.69686 6.34915 7.02269 7.98466 7.02269C9.62016 7.02269 10.946 5.69686 10.946 4.06135C10.946 2.42585 9.62016 1.10001 7.98466 1.10001ZM6.32332 4.06135C6.32332 3.14382 7.06712 2.40001 7.98466 2.40001C8.90219 2.40001 9.646 3.14382 9.646 4.06135C9.646 4.97889 8.90219 5.72269 7.98466 5.72269C7.06712 5.72269 6.32332 4.97889 6.32332 4.06135Z" fill="black"/>
<path fill-rule="evenodd" clip-rule="evenodd" d="M5.68369 8.13254C3.66785 8.13254 2.03369 9.76671 2.03369 11.7825V12.85C2.03369 13.9822 2.9515 14.9 4.08369 14.9H11.9165C13.0486 14.9 13.9665 13.9822 13.9665 12.85V11.7825C13.9665 9.76671 12.3323 8.13254 10.3165 8.13254H5.68369ZM3.33369 11.7825C3.33369 10.4847 4.38582 9.43254 5.68369 9.43254H10.3165C11.6143 9.43254 12.6665 10.4847 12.6665 11.7825V12.85C12.6665 13.2643 12.3307 13.6 11.9165 13.6H4.08369C3.66948 13.6 3.33369 13.2643 3.33369 12.85V11.7825Z" fill="black"/>
<path d="M14.0001 7.41326C14.3591 7.41326 14.6501 7.12224 14.6501 6.76326V3.78737C14.6501 3.42839 14.3591 3.13737 14.0001 3.13737C13.6411 3.13737 13.3501 3.42839 13.3501 3.78737V6.76326C13.3501 7.12224 13.6411 7.41326 14.0001 7.41326Z" fill="black"/>
</svg>
