<svg xmlns="http://www.w3.org/2000/svg" width="16" height="16" fill="none" viewBox="0 0 16 16"><path fill="#000" fill-rule="evenodd" d="M5.0233 4.0613C5.0233 2.4258 6.349 1.1 7.9846 1.1s2.9613 1.3258 2.9613 2.9613-1.3258 2.9614-2.9613 2.9614-2.9614-1.3259-2.9614-2.9614M7.9846 2.4c-.9175 0-1.6614.7438-1.6614 1.6613s.7439 1.6614 1.6614 1.6614 1.6613-.7438 1.6613-1.6614S8.9021 2.4 7.9846 2.4m-5.951 9.3825c0-2.0159 1.6343-3.65 3.65-3.65h2.668a3.97 3.97 0 0 0-1.1483 1.3H5.6837c-1.2979 0-2.35 1.0521-2.35 2.35V12.85a.75.75 0 0 0 .75.75h3.3477a3.97 3.97 0 0 0 1.5358 1.3H4.0837c-1.1322 0-2.05-.9179-2.05-2.05zm12.0928 3.0104a.65.65 0 0 0 0-.9192l-1.1831-1.1832a2.64 2.64 0 0 0 .3734-1.3573c0-1.4635-1.1864-2.65-2.65-2.65a2.64 2.64 0 0 0-1.8464.7493c-.4956.4815-.8035 1.1552-.8035 1.9008 0 1.4635 1.1864 2.65 2.65 2.65.4961 0 .9603-.1363 1.3573-.3735l1.1831 1.1831a.65.65 0 0 0 .9192 0m-4.8096-3.4596c0-.7456.6044-1.35 1.35-1.35s1.35.6044 1.35 1.35-.6044 1.35-1.35 1.35-1.35-.6044-1.35-1.35"/></svg>