<svg width="16" height="16" viewBox="0 0 16 16" fill="none" xmlns="http://www.w3.org/2000/svg">
<path fill-rule="evenodd" clip-rule="evenodd" d="M7.98466 1.09998C6.34915 1.09998 5.02332 2.42581 5.02332 4.06132C5.02332 5.69682 6.34915 7.02266 7.98466 7.02266C9.62016 7.02266 10.946 5.69682 10.946 4.06132C10.946 2.42581 9.62016 1.09998 7.98466 1.09998ZM6.32332 4.06132C6.32332 3.14378 7.06712 2.39998 7.98466 2.39998C8.90219 2.39998 9.646 3.14378 9.646 4.06132C9.646 4.97885 8.90219 5.72266 7.98466 5.72266C7.06712 5.72266 6.32332 4.97885 6.32332 4.06132Z" fill="black"/>
<path fill-rule="evenodd" clip-rule="evenodd" d="M5.68369 8.13245C3.66785 8.13245 2.03369 9.76661 2.03369 11.7824V12.85C2.03369 13.9821 2.9515 14.9 4.08369 14.9H11.9165C13.0486 14.9 13.9665 13.9821 13.9665 12.85V11.7824C13.9665 9.76661 12.3323 8.13245 10.3165 8.13245H5.68369ZM3.33369 11.7824C3.33369 10.4846 4.38582 9.43245 5.68369 9.43245H10.3165C11.6143 9.43245 12.6665 10.4846 12.6665 11.7824V12.85C12.6665 13.2642 12.3307 13.6 11.9165 13.6H4.08369C3.66948 13.6 3.33369 13.2642 3.33369 12.85V11.7824Z" fill="black"/>
<path d="M14.0001 1.34998C14.3591 1.34998 14.6501 1.64099 14.6501 1.99998V4.97586C14.6501 5.33485 14.3591 5.62586 14.0001 5.62586C13.6411 5.62586 13.3501 5.33485 13.3501 4.97586V1.99998C13.3501 1.64099 13.6411 1.34998 14.0001 1.34998Z" fill="black"/>
<path d="M14.0001 7.67266C14.3591 7.67266 14.6501 7.38164 14.6501 7.02266C14.6501 6.66367 14.3591 6.37266 14.0001 6.37266C13.6411 6.37266 13.3501 6.66367 13.3501 7.02266C13.3501 7.38164 13.6411 7.67266 14.0001 7.67266Z" fill="black"/>
</svg>
