<svg xmlns="http://www.w3.org/2000/svg" width="16" height="16" fill="none" viewBox="0 0 16 16"><path fill="#000" fill-rule="evenodd" d="M7.9841 1.1001c-1.6355 0-2.9613 1.3258-2.9613 2.9613S6.3486 7.0228 7.984 7.0228s2.9613-1.3259 2.9613-2.9614S9.6195 1.1001 7.984 1.1001M6.3228 4.0614c0-.9175.7438-1.6613 1.6613-1.6613s1.6613.7438 1.6613 1.6613-.7438 1.6614-1.6613 1.6614-1.6613-.7438-1.6613-1.6614m-4.2896 7.7212c0-2.0158 1.6342-3.65 3.65-3.65h4.6328c1.3558 0 2.539.7393 3.1684 1.8367a1.94 1.94 0 0 0-.5247.3747l-.4921.4921c-.3641-.8265-1.1905-1.4035-2.1516-1.4035H5.6832c-1.2979 0-2.35 1.0521-2.35 2.35v1.0675a.75.75 0 0 0 .75.75h4.2696c.0923.1891.217.3663.374.5234l.7767.7766H4.0832c-1.1322 0-2.05-.9178-2.05-2.05zm12.765.3999a.65.65 0 0 0-.9192-.9192l-2.1677 2.1676-1.1459-1.1459a.6501.6501 0 0 0-.9193.9193l1.6056 1.6055a.65.65 0 0 0 .9192 0z"/></svg>