<svg xmlns="http://www.w3.org/2000/svg" width="16" height="16" fill="none" viewBox="0 0 16 16"><path fill="#000" fill-rule="evenodd" d="M3.6 1C2.164 1 1 2.164 1 3.6v8.7964c0 1.436 1.164 2.6 2.6 2.6h8.8c1.4359 0 2.6-1.164 2.6-2.6V3.6C15 2.164 13.8359 1 12.4 1zm8.8 1.3H3.6c-.718 0-1.3.582-1.3 1.3v8.7964c0 .718.582 1.3 1.3 1.3h8.8c.718 0 1.3-.582 1.3-1.3V3.6c0-.718-.582-1.3-1.3-1.3m-1.4273 3.907a.65.65 0 0 1 0 .9193l-2.9694 2.9694a.65.65 0 0 1-.9193 0L5.5404 8.552a.65.65 0 0 1 .9192-.9192l1.084 1.084 2.5098-2.5097a.65.65 0 0 1 .9193 0"/></svg>