<svg xmlns="http://www.w3.org/2000/svg" width="16" height="16" fill="none" viewBox="0 0 16 16"><path fill="#000" fill-rule="evenodd" d="M2.9031 1.2158c-1.077 0-1.95.873-1.95 1.95v1.4085c0 1.077.873 1.95 1.95 1.95h10.2c1.077 0 1.95-.873 1.95-1.95V3.1658c0-1.077-.873-1.95-1.95-1.95zm-.65 1.95a.65.65 0 0 1 .65-.65h10.2a.65.65 0 0 1 .65.65v1.4085a.65.65 0 0 1-.65.65h-10.2a.65.65 0 0 1-.65-.65zm2.9967.7039a.8025.8025 0 1 1-1.605 0 .8025.8025 0 0 1 1.605 0m2.4046 0a.8025.8025 0 1 1-1.605 0 .8025.8025 0 0 1 1.605 0M2.903 7.562c-1.077 0-1.95.873-1.95 1.95v1.4085c0 1.077.873 1.95 1.95 1.95h2.8777a1.95 1.95 0 0 1 .1485-.7401 1.95 1.95 0 0 1 .3535-.5599H2.9031a.65.65 0 0 1-.65-.65V9.5121a.65.65 0 0 1 .65-.65h5.5541c.267-.1374.5699-.215.8909-.215h1.6125a1.94 1.94 0 0 1 .5276-.9681 2 2 0 0 1 .1276-.1169zm11.5034 3.6851a.65.65 0 0 0 .4596-1.1097l-1.5394-1.5393a.65.65 0 1 0-.9192.9192l.4297.4298h-3.489a.65.65 0 0 0 0 1.3zm-9.1567-1.0313a.8024.8024 0 0 1-.8025.8025.8025.8025 0 1 1 .8025-.8025m2.481 2.0109a.65.65 0 0 0-.4596 1.1096l1.5394 1.5393a.65.65 0 1 0 .9192-.9192L9.3 13.5267h3.4892a.6501.6501 0 0 0 0-1.3z"/></svg>