<svg xmlns="http://www.w3.org/2000/svg" width="16" height="16" fill="none" viewBox="0 0 16 16"><path fill="#000" fill-rule="evenodd" d="M12.2068 13.7928a.65.65 0 1 0 .9193-.9192L3.7846 3.5321l-.0652-.0663-1.9267-1.9256a.65.65 0 0 0-.9192.9193l1.7388 1.7388a2.44 2.44 0 0 0-.596 1.6016v1.7333c0 1.353 1.097 2.45 2.45 2.45H5v3.6833c0 .5523.4477 1 1 1s1-.4477 1-1V9.9999l-.0002-.0167h1.3975zm1.1097-10.3633v1.9038h.0076c.7312 0 1.324.5927 1.324 1.324s-.5928 1.324-1.324 1.324h-.0076v3.3909l-1.3-1.3221V6.8668A1.3 1.3 0 0 1 12 6.6573q0-.107.0165-.2094V3.4295c0-.4253-.4619-.6896-.8286-.4743L8.6497 4.4458V6.626L7.1226 5.0729v-.423h-.4158l-1.2782-1.3h2.5202l2.5808-1.5156c1.2333-.7243 2.7869.165 2.7869 1.5953M7.0972 8.6832 3.5368 5.1228a1.145 1.145 0 0 0-.2204.677v1.7334c0 .6351.5149 1.15 1.15 1.15z"/></svg>