<svg xmlns="http://www.w3.org/2000/svg" width="16" height="16" fill="none" viewBox="0 0 16 16"><path fill="#000" d="M4.6125 8.847a.65.65 0 0 1 .65-.65h2.0938V6.0967a.65.65 0 0 1 1.3 0V8.197h2.1003a.65.65 0 1 1 0 1.3H8.6563v2.0939a.65.65 0 1 1-1.3 0v-2.094H5.2626a.65.65 0 0 1-.65-.65"/><path fill="#000" fill-rule="evenodd" d="M8 15.8501c3.866 0 7-3.134 7-7s-3.134-7-7-7-7 3.134-7 7 3.134 7 7 7m0-1.3c3.148 0 5.7-2.552 5.7-5.7s-2.552-5.7-5.7-5.7-5.7 2.552-5.7 5.7 2.552 5.7 5.7 5.7" clip-rule="evenodd"/></svg>