<svg xmlns="http://www.w3.org/2000/svg" width="16" height="16" fill="none" viewBox="0 0 16 16"><path fill="#000" fill-rule="evenodd" d="M5.0232 4.0613C5.0232 2.4258 6.349 1.1 7.9845 1.1s2.9614 1.3258 2.9614 2.9613S9.62 7.0227 7.9845 7.0227 5.0232 5.6968 5.0232 4.0613m5.2933 4.0712q.0384 0 .0765.0008a1.94 1.94 0 0 0-.3522 1.1182v.4478h-.4477c-1.077 0-1.95.873-1.95 1.95s.873 1.95 1.95 1.95h.4477v.4473c0 .3061.0705.5956.1961.8534H4.0837c-1.1322 0-2.05-.9178-2.05-2.05v-1.0675c0-2.0159 1.6342-3.65 3.65-3.65zm1.6743.469a.65.65 0 0 1 .65.65v1.7478h1.7475a.65.65 0 1 1 0 1.3h-1.7475v1.7473a.65.65 0 1 1-1.3 0v-1.7473H9.5931a.65.65 0 1 1 0-1.3h1.7477V9.2515a.65.65 0 0 1 .65-.65"/></svg>