<svg xmlns="http://www.w3.org/2000/svg" width="16" height="16" fill="none" viewBox="0 0 16 16"><path fill="#000" fill-rule="evenodd" d="M5.0228 4.0614c0-1.6355 1.3259-2.9613 2.9614-2.9613s2.9613 1.3258 2.9613 2.9613-1.3258 2.9614-2.9613 2.9614-2.9614-1.3259-2.9614-2.9614m2.9614-1.6613c-.9176 0-1.6614.7438-1.6614 1.6613s.7438 1.6614 1.6614 1.6614 1.6613-.7438 1.6613-1.6614-.7438-1.6613-1.6613-1.6613m-5.951 9.3825c0-2.0159 1.6342-3.65 3.65-3.65h4.6328q.0385 0 .0768.0008a1.94 1.94 0 0 0-.3523 1.1182v.181H5.6832c-1.2979 0-2.35 1.0521-2.35 2.35v1.0675a.75.75 0 0 0 .75.75h5.9573v.4467c0 .306.0705.5955.1961.8533H4.0832c-1.1322 0-2.05-.9178-2.05-2.05zm10.6071-2.531a.65.65 0 1 0-1.3 0v1.7478H9.5927a.65.65 0 1 0 0 1.3h1.7476v1.7474a.65.65 0 1 0 1.3 0v-1.7474h1.7476a.65.65 0 1 0 0-1.3h-1.7476z"/></svg>