<svg width="16" height="16" viewBox="0 0 16 16" fill="none" xmlns="http://www.w3.org/2000/svg">
<path d="M3.6582 3.15781C3.6582 1.9704 4.62079 1.00781 5.8082 1.00781H10.3934C11.5809 1.00781 12.5434 1.9704 12.5434 3.15781V8.60583C12.3441 8.52034 12.1244 8.473 11.8937 8.473C11.6628 8.473 11.443 8.52043 11.2434 8.60609V3.15781C11.2434 2.68837 10.8629 2.30781 10.3934 2.30781H5.8082C5.33876 2.30781 4.9582 2.68837 4.9582 3.15781V12.8425C4.9582 13.3119 5.33876 13.6925 5.8082 13.6925H10.2438C10.2456 14.1962 10.4731 14.6466 10.8304 14.9481C10.6893 14.9772 10.5432 14.9925 10.3934 14.9925H5.8082C4.62079 14.9925 3.6582 14.0299 3.6582 12.8425V3.15781Z" fill="black"/>
<path d="M11.8941 9.47302C12.2531 9.47302 12.5441 9.76404 12.5441 10.123V11.2547H13.7006C14.0595 11.2547 14.3506 11.5457 14.3506 11.9047C14.3506 12.2637 14.0595 12.5547 13.7006 12.5547H12.5441V13.6864C12.5441 14.0454 12.2531 14.3364 11.8941 14.3364C11.5352 14.3364 11.2441 14.0454 11.2441 13.6864V12.5547H10.0865C9.72754 12.5547 9.43652 12.2637 9.43652 11.9047C9.43652 11.5457 9.72754 11.2547 10.0865 11.2547H11.2441V10.123C11.2441 9.76404 11.5352 9.47302 11.8941 9.47302Z" fill="black"/>
</svg>
