<svg xmlns="http://www.w3.org/2000/svg" width="16" height="16" fill="none" viewBox="0 0 16 16"><path fill="#000" fill-rule="evenodd" d="M6.8952 4.2288c0-1.2947-1.052-2.3412-2.3458-2.3412S2.2036 2.934 2.2036 4.2288c0 1.2946 1.052 2.3412 2.3458 2.3412s2.3458-1.0466 2.3458-2.3413M10.16 1.9021c1.2939 0 2.3458 1.0465 2.3458 2.3412S11.4539 6.5845 10.16 6.5845 7.8144 5.538 7.8144 4.2434 8.8663 1.9022 10.16 1.9022M4.5494 3.1876c.5792 0 1.0458.4678 1.0458 1.0411 0 .5734-.4666 1.0412-1.0458 1.0412s-1.0458-.4678-1.0458-1.0411c0-.5734.4665-1.0412 1.0458-1.0412m6.6565 1.0558c0-.5734-.4665-1.0412-1.0458-1.0412S9.1144 3.67 9.1144 4.2434s.4665 1.0412 1.0457 1.0412 1.0458-.4678 1.0458-1.0412m-4.3553 8.5027c-.5305-.2744-.893-.8281-.893-1.4665v-1.0557c0-1.574 1.276-2.85 2.85-2.85h2.6726c.1861 0 .3681.0179.5443.052-.475.2589-.8304.7096-.9622 1.248l-2.2825.0002c-.8432.0149-1.5222.703-1.5222 1.5498v1.0557a.35.35 0 0 0 .35.35h1.2647c.092.5424.4082 1.0086.8497 1.3H7.6076q-.113 0-.2222-.0148h-.0017a1.64 1.64 0 0 1-.5088-.1564zm-4.9701-1.1313H4.677c.0538.4771.2215.9197.4752 1.3H1.8805c-.9113 0-1.65-.7387-1.65-1.65v-1.0406c0-1.574 1.276-2.85 2.85-2.85h2.7112a4.15 4.15 0 0 0-.8343 1.3h-1.877c-.856 0-1.55.694-1.55 1.55v1.0406a.35.35 0 0 0 .35.35m11.0768-3.1257a.65.65 0 0 1 .65.65v1.5119h1.5115a.65.65 0 1 1 0 1.3h-1.5115v1.5115a.65.65 0 0 1-1.3 0V11.951h-1.5118a.65.65 0 1 1 0-1.3h1.5118V9.1391a.65.65 0 0 1 .65-.65"/></svg>