<svg xmlns="http://www.w3.org/2000/svg" width="16" height="16" fill="none" viewBox="0 0 16 16"><path fill="#000" fill-rule="evenodd" d="M6.5606 1.4614a2.725 2.725 0 0 1 2.8792 0L12.819 3.564a2.725 2.725 0 0 1 1.2854 2.3137v6.3473c0 1.505-1.22 2.725-2.725 2.725H4.621c-1.505 0-2.725-1.22-2.725-2.725V5.8777A2.725 2.725 0 0 1 3.1814 3.564zM8.753 2.5652a1.425 1.425 0 0 0-1.5056 0L3.8682 4.6678a1.425 1.425 0 0 0-.6722 1.2099v6.3473c0 .787.638 1.425 1.425 1.425h6.7584c.787 0 1.425-.638 1.425-1.425V5.8777a1.425 1.425 0 0 0-.6722-1.21zM5.0105 6.241a.5.5 0 0 0-.5.5v.7434a.5.5 0 0 0 .5.5h.7436a.5.5 0 0 0 .5-.5V6.741a.5.5 0 0 0-.5-.5zm2.6179 0a.5.5 0 0 0-.5.5v.7434a.5.5 0 0 0 .5.5h.7436a.5.5 0 0 0 .5-.5V6.741a.5.5 0 0 0-.5-.5zm2.618 0a.5.5 0 0 0-.5.5v.7434a.5.5 0 0 0 .5.5h.7437a.5.5 0 0 0 .5-.5V6.741a.5.5 0 0 0-.5-.5zm-5.736 3.989a.5.5 0 0 1 .5-.5h.7437a.5.5 0 0 1 .5.5v.7434a.5.5 0 0 1-.5.5h-.7436a.5.5 0 0 1-.5-.5zm2.618 0a.5.5 0 0 1 .5-.5h.7436a.5.5 0 0 1 .5.5v.7434a.5.5 0 0 1-.5.5h-.7436a.5.5 0 0 1-.5-.5zm2.618 0a.5.5 0 0 1 .5-.5h.7437a.5.5 0 0 1 .5.5v.7434a.5.5 0 0 1-.5.5h-.7437a.5.5 0 0 1-.5-.5z"/></svg>