<svg width="16" height="16" viewBox="0 0 16 16" fill="none" xmlns="http://www.w3.org/2000/svg">
<path fill-rule="evenodd" clip-rule="evenodd" d="M7.9846 1.1001C6.34909 1.1001 5.02325 2.42594 5.02325 4.06144C5.02325 5.69694 6.34909 7.02278 7.9846 7.02278C9.6201 7.02278 10.9459 5.69694 10.9459 4.06144C10.9459 2.42594 9.6201 1.1001 7.9846 1.1001ZM6.32325 4.06144C6.32325 3.14391 7.06706 2.4001 7.9846 2.4001C8.90213 2.4001 9.64594 3.14391 9.64594 4.06144C9.64594 4.97897 8.90213 5.72278 7.9846 5.72278C7.06706 5.72278 6.32325 4.97897 6.32325 4.06144Z" fill="black"/>
<path d="M5.68369 8.13257C3.66785 8.13257 2.03369 9.76673 2.03369 11.7826V12.8501C2.03369 13.9823 2.9515 14.9001 4.08369 14.9001H8.6767C8.58712 14.8096 8.50698 14.7075 8.43872 14.5944L7.93575 13.7613C7.90189 13.7052 7.8745 13.6497 7.85285 13.6001H4.08369C3.66948 13.6001 3.33369 13.2643 3.33369 12.8501V11.7826C3.33369 10.4847 4.38582 9.43257 5.68369 9.43257H8.42238L8.43824 9.4063C9.06081 8.53061 10.3892 8.13328 10.3892 8.13328C10.365 8.13281 10.3408 8.13257 10.3165 8.13257H5.68369Z" fill="black"/>
<path fill-rule="evenodd" clip-rule="evenodd" d="M12.8328 9.28601C12.8092 9.12193 12.6686 9.00012 12.5029 9.00012H11.4969C11.3311 9.00012 11.1905 9.12201 11.167 9.28616L11.0792 9.89825C10.8979 9.97191 10.7279 10.0667 10.5727 10.1796L9.95742 9.93982C9.80634 9.88095 9.63483 9.93932 9.55103 10.0781L9.04806 10.9112C8.95925 11.0583 8.99681 11.2488 9.13481 11.3512L9.6469 11.7311C9.63611 11.8194 9.63057 11.9092 9.63057 12C9.63057 12.0911 9.63613 12.181 9.64696 12.2694L9.13517 12.6494C8.99727 12.7518 8.95976 12.9423 9.04854 13.0893L9.55151 13.9224C9.63534 14.0613 9.80694 14.1196 9.95803 14.0607L10.573 13.8207C10.7281 13.9335 10.898 14.0282 11.0792 14.1018L11.167 14.7141C11.1905 14.8782 11.3311 15.0001 11.4969 15.0001H12.5029C12.6686 15.0001 12.8092 14.8783 12.8328 14.7142L12.9209 14.1018C13.1021 14.0282 13.2719 13.9335 13.427 13.8207L14.0421 14.0607C14.1932 14.1197 14.3648 14.0613 14.4486 13.9225L14.9516 13.0894C15.0404 12.9423 15.0029 12.7519 14.865 12.6495L14.353 12.2693C14.3638 12.1809 14.3694 12.091 14.3694 12C14.3694 11.9092 14.3639 11.8195 14.3531 11.7312L14.8654 11.3512C15.0034 11.2488 15.0409 11.0583 14.9521 10.9112L14.4491 10.0781C14.3653 9.93928 14.1938 9.88091 14.0428 9.93977L13.4273 10.1796C13.2721 10.0668 13.1022 9.97196 12.9209 9.89829L12.8328 9.28601ZM12.0001 12.7334C12.4051 12.7334 12.7334 12.4051 12.7334 12.0001C12.7334 11.5951 12.4051 11.2668 12.0001 11.2668C11.5951 11.2668 11.2668 11.5951 11.2668 12.0001C11.2668 12.4051 11.5951 12.7334 12.0001 12.7334Z" fill="black"/>
</svg>
