<svg xmlns="http://www.w3.org/2000/svg" width="16" height="16" fill="none" viewBox="0 0 16 16"><path fill="#000" fill-rule="evenodd" d="M7.9846 1.1c-1.6355 0-2.9614 1.3258-2.9614 2.9613s1.3259 2.9614 2.9614 2.9614 2.9613-1.3259 2.9613-2.9614S9.6201 1.1 7.9846 1.1M6.3232 4.0613c0-.9175.7439-1.6613 1.6614-1.6613s1.6613.7438 1.6613 1.6613-.7438 1.6614-1.6613 1.6614-1.6614-.7438-1.6614-1.6614m-.6395 4.0712c-2.0158 0-3.65 1.6341-3.65 3.65V12.85c0 1.1321.9178 2.05 2.05 2.05h4.593a1.64 1.64 0 0 1-.238-.3057l-.503-.8331A1.4 1.4 0 0 1 7.853 13.6H4.0837a.75.75 0 0 1-.75-.75v-1.0675c0-1.2979 1.0521-2.35 2.35-2.35h2.7387l.0158-.0263c.6226-.8757 1.9511-1.273 1.9511-1.273a4 4 0 0 0-.0728-.0007zM12.5029 9a.3334.3334 0 0 1 .3299.2859l.0881.6123c.1813.0736.3513.1684.5064.2813l.6155-.2398a.333.333 0 0 1 .4064.1383l.5029.8331a.333.333 0 0 1-.0867.4399l-.5123.3801a2.2 2.2 0 0 1-.0001.5381l.512.3802a.333.333 0 0 1 .0866.4398l-.5029.8331a.3334.3334 0 0 1-.4066.1383l-.6151-.24a2.4 2.4 0 0 1-.5061.2811l-.0881.6124a.333.333 0 0 1-.3299.2859h-1.006a.333.333 0 0 1-.3299-.286l-.0878-.6123a2.4 2.4 0 0 1-.5062-.2811l-.615.24a.333.333 0 0 1-.4065-.1383l-.503-.8331a.3333.3333 0 0 1 .0867-.4399l.5118-.38a2.22 2.22 0 0 1 0-.5383l-.5122-.3799a.3334.3334 0 0 1-.0868-.44l.503-.8331a.333.333 0 0 1 .4064-.1383l.6153.2398a2.4 2.4 0 0 1 .5065-.2814l.0878-.612A.333.333 0 0 1 11.4969 9zm.2305 3a.7333.7333 0 1 1-1.4666 0 .7333.7333 0 0 1 1.4666 0"/></svg>