<svg xmlns="http://www.w3.org/2000/svg" width="16" height="16" fill="none" viewBox="0 0 16 16"><path fill="#000" fill-rule="evenodd" d="M13.2454 3.3829c0-1.4374-1.5676-2.3257-2.8007-1.587l-2.7878 1.67H3.7864c-1.353 0-2.45 1.0969-2.45 2.45v1.8278c0 1.3531 1.097 2.45 2.45 2.45h.8853v3.5409c0 .5523.4477 1 1 1s1-.4477 1-1v-3.5409h.9624l2.8196 1.6674c1.2333.7293 2.7917-.1597 2.7917-1.5924V8.1396q.0468.0033.0945.0033c.7312 0 1.324-.5928 1.324-1.324s-.5928-1.3241-1.324-1.3241q-.0477 0-.0945.0033zm-2.1326-.4718c.3666-.2196.8326.0444.8326.4718v6.8858c0 .426-.4633.6902-.83.4734L8.1708 9.0008V4.6734zM2.6364 5.9159c0-.6352.5149-1.15 1.15-1.15h3.0844v4.1278H3.7864c-.6351 0-1.15-.5149-1.15-1.15z"/></svg>