<svg width="16" height="16" viewBox="0 0 16 16" fill="none" xmlns="http://www.w3.org/2000/svg">
<path fill-rule="evenodd" clip-rule="evenodd" d="M1.99985 3.48052C1.99985 3.17673 2.13794 2.88942 2.37515 2.69965L3.87515 1.49965C4.24037 1.20747 4.75932 1.20747 5.12454 1.49965L6.62454 2.69965C6.86176 2.88942 6.99985 3.17673 6.99985 3.48052V5.99989C6.99985 6.55218 6.55213 6.99989 5.99985 6.99989H2.99985C2.44756 6.99989 1.99985 6.55218 1.99985 5.99989V3.48052ZM4.49985 2.6647L5.69985 3.6247V5.69989H3.29985V3.62471L4.49985 2.6647Z" fill="black"/>
<path fill-rule="evenodd" clip-rule="evenodd" d="M7.26062 11.3256C7.26062 12.8026 6.06332 13.9999 4.58637 13.9999C3.10942 13.9999 1.91211 12.8026 1.91211 11.3256C1.91211 9.84868 3.10942 8.65138 4.58637 8.65138C6.06332 8.65138 7.26062 9.84868 7.26062 11.3256ZM5.96062 11.3256C5.96062 12.0846 5.34535 12.6999 4.58637 12.6999C3.82739 12.6999 3.21211 12.0846 3.21211 11.3256C3.21211 10.5667 3.82739 9.95138 4.58637 9.95138C5.34535 9.95138 5.96062 10.5667 5.96062 11.3256Z" fill="black"/>
<path fill-rule="evenodd" clip-rule="evenodd" d="M8.99985 2.99989C8.99985 2.44761 9.44756 1.99989 9.99985 1.99989H12.9998C13.5521 1.99989 13.9998 2.44761 13.9998 2.99989V5.99989C13.9998 6.55218 13.5521 6.99989 12.9998 6.99989H12.1498V8.99989H12.9998C13.5521 8.99989 13.9998 9.44761 13.9998 9.99989V12.9999C13.9998 13.5522 13.5521 13.9999 12.9998 13.9999H9.99985C9.44756 13.9999 8.99985 13.5522 8.99985 12.9999V9.99989C8.99985 9.44761 9.44756 8.99989 9.99985 8.99989H10.8498V6.99989H9.99985C9.44756 6.99989 8.99985 6.55218 8.99985 5.99989V2.99989ZM10.2998 5.69989V3.29989H12.6998V5.69989H10.2998ZM10.2998 12.6999V10.2999H12.6998V12.6999H10.2998Z" fill="black"/>
</svg>
