<svg xmlns="http://www.w3.org/2000/svg" width="16" height="16" fill="none" viewBox="0 0 16 16"><path fill="#000" fill-rule="evenodd" d="M2 3.4806a1 1 0 0 1 .3753-.7808l1.5-1.2a1 1 0 0 1 1.2494 0l1.5 1.2A1 1 0 0 1 7 3.4806V6c0 .5523-.4478 1-1 1H3c-.5523 0-1-.4477-1-1zM10 2c-.5523 0-1 .4477-1 1v3c0 .5523.4477 1 1 1h.85v2H10c-.5523 0-1 .4477-1 1v3c0 .5523.4477 1 1 1h3c.5523 0 1-.4477 1-1v-3c0-.5523-.4477-1-1-1h-.85V7H13c.5523 0 1-.4477 1-1V3c0-.5523-.4477-1-1-1zm-5.5.6648 1.2.96V5.7H3.3V3.6248zm5.8.6352v2.4h2.4V3.3zm-3.0393 8.0258C7.2608 12.8027 6.0634 14 4.5866 14c-1.477 0-2.6743-1.1973-2.6743-2.6742 0-1.477 1.1973-2.6743 2.6743-2.6743s2.6742 1.1973 2.6742 2.6743m-1.3 0c0 .7589-.6152 1.3742-1.3742 1.3742s-1.3743-.6153-1.3743-1.3742.6153-1.3743 1.3743-1.3743 1.3743.6153 1.3743 1.3743M10.3 10.3v2.4h2.4v-2.4z"/></svg>