<svg xmlns="http://www.w3.org/2000/svg" width="16" height="16" fill="none" viewBox="0 0 16 16"><path fill="#000" fill-rule="evenodd" d="M13.1278 1.4706c-.0534-.1981-.3352-.198-.3887 0l-.2675.9932a.201.201 0 0 1-.1416.1416l-.9932.2675c-.1981.0535-.1981.3353 0 .3887l.9932.2666a.202.202 0 0 1 .1416.1426l.2675.9931c.0537.1978.3351.1979.3887 0l.2666-.9931a.203.203 0 0 1 .1426-.1426l.9932-.2666c.1978-.0536.1977-.335 0-.3887l-.9932-.2675a.202.202 0 0 1-.1426-.1416zm-3.833.872c-.3563-1.3228-2.2336-1.3228-2.5898 0l-.919 3.4141a.042.042 0 0 1-.0293.0293l-3.414.919c-1.323.3562-1.323 2.2335 0 2.5898l3.414.919a.042.042 0 0 1 .0293.0293l.919 3.414c.3562 1.3231 2.2336 1.3231 2.5898 0l.9189-3.414a.042.042 0 0 1 .0293-.0293l3.4141-.919c1.3231-.3562 1.3231-2.2336 0-2.5898l-3.4141-.919a.042.042 0 0 1-.0293-.0293zm-1.3252.3155.001-.001a.055.055 0 0 1 .0293-.0068.055.055 0 0 1 .0293.0068l.001.001s.0047.0074.0087.0225l.92 3.414c.1242.4614.4848.822.9463.9463l3.414.92a.1.1 0 0 1 .0225.0087l.001.001a.055.055 0 0 1 .0068.0293.056.056 0 0 1-.0068.0293l-.001.001s-.0073.0047-.0225.0087l-3.414.92a1.342 1.342 0 0 0-.9463.9463l-.92 3.414c-.004.0149-.0087.0225-.0087.0225l-.001.001a.055.055 0 0 1-.0293.0068.055.055 0 0 1-.0293-.0068l-.001-.001s-.0049-.008-.0088-.0225l-.9199-3.414a1.341 1.341 0 0 0-.9463-.9463l-3.414-.92a.1.1 0 0 1-.0225-.0087l-.001-.001a.055.055 0 0 1-.0068-.0293.055.055 0 0 1 .0068-.0293l.001-.001s.0073-.0047.0224-.0088l3.4141-.9199a1.341 1.341 0 0 0 .9463-.9463l.92-3.414c.004-.0151.0087-.0225.0087-.0225"/></svg>