<svg width="16" height="16" viewBox="0 0 16 16" fill="none" xmlns="http://www.w3.org/2000/svg">
<path fill-rule="evenodd" clip-rule="evenodd" d="M6.70508 2.34266C7.06137 1.01977 8.93861 1.01979 9.29493 2.34266L10.2139 5.75672C10.2177 5.77076 10.2291 5.7822 10.2432 5.78602L13.6572 6.70497C14.9803 7.06119 14.9803 8.93858 13.6572 9.29481L10.2432 10.2138C10.2292 10.2176 10.2177 10.229 10.2139 10.2431L9.29493 13.6571C8.9387 14.9802 7.06131 14.9802 6.70508 13.6571L5.78614 10.2431C5.78231 10.229 5.77087 10.2175 5.75684 10.2138L2.34278 9.29481C1.01988 8.9385 1.01983 7.06122 2.34278 6.70497L5.75684 5.78602C5.77092 5.78223 5.78235 5.7708 5.78614 5.75672L6.70508 2.34266ZM7.97071 2.65711L7.96973 2.65809C7.96973 2.65809 7.96502 2.66545 7.96094 2.68055L7.04102 6.09461C6.91677 6.55608 6.5562 6.91665 6.09473 7.0409L2.68067 7.96083C2.66554 7.9649 2.65821 7.96961 2.65821 7.96961L2.65723 7.97059C2.65591 7.97244 2.65043 7.98233 2.6504 7.99989C2.6504 8.01714 2.65576 8.02702 2.65723 8.02918L2.65821 8.03016C2.65821 8.03016 2.66559 8.03488 2.68067 8.03895L6.09473 8.95887C6.55615 9.08311 6.91674 9.44377 7.04102 9.90516L7.96094 13.3192C7.96485 13.3337 7.96973 13.3417 7.96973 13.3417L7.97071 13.3427C7.97256 13.344 7.98242 13.3495 8.00001 13.3495C8.01764 13.3495 8.02744 13.344 8.0293 13.3427L8.03028 13.3417C8.03028 13.3417 8.03505 13.3341 8.03907 13.3192L8.95899 9.90516C9.08326 9.44376 9.44388 9.08313 9.90528 8.95887L13.3193 8.03895C13.3345 8.03487 13.3418 8.03016 13.3418 8.03016L13.3428 8.02918C13.3442 8.02722 13.3496 8.0174 13.3496 7.99989C13.3496 7.98233 13.3441 7.97244 13.3428 7.97059L13.3418 7.96961C13.3418 7.96961 13.3339 7.96474 13.3193 7.96083L9.90528 7.0409C9.44388 6.91662 9.08323 6.55604 8.95899 6.09461L8.03907 2.68055C8.035 2.66549 8.03028 2.65809 8.03028 2.65809L8.0293 2.65711C8.02715 2.65565 8.01728 2.65028 8.00001 2.65028C7.98242 2.6503 7.97256 2.65579 7.97071 2.65711Z" fill="black"/>
<path d="M12.7393 1.47059C12.7927 1.27252 13.0745 1.27248 13.1279 1.47059L13.3945 2.46376C13.4132 2.53291 13.468 2.58674 13.5371 2.60536L14.5303 2.87293C14.7281 2.92655 14.7281 3.20804 14.5303 3.26161L13.5371 3.52821C13.468 3.54683 13.4132 3.60163 13.3945 3.67079L13.1279 4.66395C13.0744 4.86177 12.7929 4.86173 12.7393 4.66395L12.4717 3.67079C12.4531 3.60163 12.3992 3.54683 12.3301 3.52821L11.3369 3.26161C11.1388 3.20817 11.1388 2.92642 11.3369 2.87293L12.3301 2.60536C12.3992 2.58674 12.4531 2.53291 12.4717 2.46376L12.7393 1.47059Z" fill="black"/>
</svg>
