<svg width="16" height="16" viewBox="0 0 16 16" fill="none" xmlns="http://www.w3.org/2000/svg">
<path d="M12.0001 5.33328C12.3683 5.33328 12.6668 5.0348 12.6668 4.66661C12.6668 4.29842 12.3683 3.99995 12.0001 3.99995C11.6319 3.99995 11.3334 4.29842 11.3334 4.66661C11.3334 5.0348 11.6319 5.33328 12.0001 5.33328Z" fill="black"/>
<path fill-rule="evenodd" clip-rule="evenodd" d="M3.2001 2.0166C2.17837 2.0166 1.3501 2.84487 1.3501 3.8666V8.13327C1.3501 9.15499 2.17837 9.98327 3.2001 9.98327H12.8001C13.8218 9.98327 14.6501 9.155 14.6501 8.13327V3.8666C14.6501 2.84488 13.8218 2.0166 12.8001 2.0166H3.2001ZM10.6834 8.68327H5.31676V8.0666C5.31676 7.65239 5.65255 7.3166 6.06676 7.3166H9.93343C10.3476 7.3166 10.6834 7.65239 10.6834 8.0666V8.68327ZM11.9834 8.0666V8.68327H12.8001C13.1039 8.68327 13.3501 8.43703 13.3501 8.13327V3.8666C13.3501 3.56284 13.1039 3.3166 12.8001 3.3166H3.2001C2.89634 3.3166 2.6501 3.56284 2.6501 3.8666V8.13327C2.6501 8.43703 2.89634 8.68327 3.2001 8.68327H4.01676V8.0666C4.01676 6.93442 4.93458 6.0166 6.06676 6.0166H9.93343C11.0656 6.0166 11.9834 6.93442 11.9834 8.0666Z" fill="black"/>
<path d="M5.98343 11.3333C5.98343 10.9743 5.69241 10.6833 5.33343 10.6833C4.97444 10.6833 4.68343 10.9743 4.68343 11.3333V11.9333C4.68343 12.3475 4.34764 12.6833 3.93343 12.6833H2.66676C2.30778 12.6833 2.01676 12.9743 2.01676 13.3333C2.01676 13.6922 2.30778 13.9833 2.66676 13.9833H3.93343C5.06561 13.9833 5.98343 13.0654 5.98343 11.9333V11.3333Z" fill="black"/>
<path d="M11.3168 11.3333C11.3168 10.9743 11.0257 10.6833 10.6668 10.6833C10.3078 10.6833 10.0168 10.9743 10.0168 11.3333V11.9333C10.0168 13.0654 10.9346 13.9833 12.0668 13.9833H13.3334C13.6924 13.9833 13.9834 13.6922 13.9834 13.3333C13.9834 12.9743 13.6924 12.6833 13.3334 12.6833H12.0668C11.6525 12.6833 11.3168 12.3475 11.3168 11.9333V11.3333Z" fill="black"/>
<path d="M8.6501 11.9999C8.6501 11.6409 8.35908 11.3499 8.0001 11.3499C7.64111 11.3499 7.3501 11.6409 7.3501 11.9999V13.3333C7.3501 13.6922 7.64111 13.9833 8.0001 13.9833C8.35908 13.9833 8.6501 13.6922 8.6501 13.3333V11.9999Z" fill="black"/>
</svg>
