<svg width="16" height="16" viewBox="0 0 16 16" fill="none" xmlns="http://www.w3.org/2000/svg">
<path d="M6.70508 2.34266C7.06137 1.01977 8.93861 1.01979 9.29493 2.34266L10.2139 5.75672C10.2177 5.77076 10.2291 5.7822 10.2432 5.78602L13.6572 6.70497C14.9803 7.06119 14.9803 8.93858 13.6572 9.29481L10.2432 10.2138C10.2292 10.2176 10.2177 10.229 10.2139 10.2431L9.29493 13.6571C8.9387 14.9802 7.06131 14.9802 6.70508 13.6571L5.78614 10.2431C5.78231 10.229 5.77087 10.2175 5.75684 10.2138L2.34278 9.29481C1.01988 8.9385 1.01983 7.06122 2.34278 6.70497L5.75684 5.78602C5.77092 5.78223 5.78235 5.7708 5.78614 5.75672L6.70508 2.34266Z" fill="black"/>
<path d="M12.7393 1.47059C12.7927 1.27252 13.0745 1.27248 13.1279 1.47059L13.3945 2.46376C13.4132 2.53291 13.468 2.58674 13.5371 2.60536L14.5303 2.87293C14.7281 2.92655 14.7281 3.20804 14.5303 3.26161L13.5371 3.52821C13.468 3.54683 13.4132 3.60163 13.3945 3.67079L13.1279 4.66395C13.0744 4.86177 12.7929 4.86173 12.7393 4.66395L12.4717 3.67079C12.4531 3.60163 12.3992 3.54683 12.3301 3.52821L11.3369 3.26161C11.1388 3.20817 11.1388 2.92642 11.3369 2.87293L12.3301 2.60536C12.3992 2.58674 12.4531 2.53291 12.4717 2.46376L12.7393 1.47059Z" fill="black"/>
</svg>
