<svg xmlns="http://www.w3.org/2000/svg" width="16" height="16" fill="none" viewBox="0 0 16 16"><path fill="#000" fill-rule="evenodd" d="M13.1279 1.4706c-.0534-.1981-.3352-.198-.3886 0l-.2676.9932a.2.2 0 0 1-.1416.1416l-.9932.2675c-.1981.0535-.1981.3353 0 .3887l.9932.2666a.202.202 0 0 1 .1416.1426l.2676.9931c.0536.1978.3351.1979.3886 0l.2666-.9931a.203.203 0 0 1 .1426-.1426l.9932-.2666c.1978-.0536.1977-.335 0-.3887l-.9932-.2675a.202.202 0 0 1-.1426-.1416zm-3.833.872c-.3563-1.3228-2.2335-1.3228-2.5898 0l-.919 3.4141a.042.042 0 0 1-.0293.0293l-3.414.919c-1.323.3562-1.323 2.2335 0 2.5898l3.414.919a.042.042 0 0 1 .0293.0293l.919 3.414c.3562 1.3231 2.2336 1.3231 2.5898 0l.919-3.414a.042.042 0 0 1 .0293-.0293l3.414-.919c1.3231-.3562 1.3231-2.2336 0-2.5898l-3.414-.919a.042.042 0 0 1-.0293-.0293z"/></svg>