<svg width="16" height="16" viewBox="0 0 16 16" fill="none" xmlns="http://www.w3.org/2000/svg">
<path fill-rule="evenodd" clip-rule="evenodd" d="M7.99978 0.994385C8.35877 0.994401 8.64977 1.28543 8.64976 1.64441L8.64972 2.3418C11.0003 2.65913 12.8124 4.67339 12.8124 7.11089V11.5092H13.4784C13.8374 11.5092 14.1284 11.8002 14.1284 12.1592C14.1284 12.5181 13.8374 12.8092 13.4784 12.8092H2.52124C2.16226 12.8092 1.87124 12.5181 1.87124 12.1592C1.87124 11.8002 2.16226 11.5092 2.52124 11.5092H3.18716V7.11088C3.18716 4.67341 4.99923 2.65917 7.34973 2.34181L7.34976 1.64436C7.34977 1.28537 7.6408 0.994369 7.99978 0.994385ZM4.48716 7.11088C4.48716 5.17093 6.05981 3.59828 7.99976 3.59828C9.93972 3.59828 11.5124 5.17093 11.5124 7.11089V11.5091H4.48716V7.11088Z" fill="black"/>
<path d="M7.99969 15.0071C7.2007 15.0071 6.54588 14.3898 6.48608 13.6061H9.5133C9.4535 14.3898 8.79868 15.0071 7.99969 15.0071Z" fill="black"/>
<path d="M4.53224 2.21757C4.53224 2.67352 4.16262 3.04314 3.70667 3.04314C3.25072 3.04314 2.8811 2.67352 2.8811 2.21757C2.8811 1.76162 3.25072 1.392 3.70667 1.392C4.16262 1.392 4.53224 1.76162 4.53224 2.21757Z" fill="black"/>
<path d="M12.2931 3.04314C11.8371 3.04314 11.4675 2.67352 11.4675 2.21757C11.4675 1.76162 11.8371 1.392 12.2931 1.392C12.749 1.392 13.1187 1.76162 13.1187 2.21757C13.1187 2.67352 12.749 3.04314 12.2931 3.04314Z" fill="black"/>
<path d="M2.88063 5.5125C2.88063 5.96844 2.51101 6.33806 2.05506 6.33806C1.59911 6.33806 1.22949 5.96844 1.22949 5.5125C1.22949 5.05655 1.59911 4.68693 2.05506 4.68693C2.51101 4.68693 2.88063 5.05655 2.88063 5.5125Z" fill="black"/>
<path d="M13.9445 6.33806C13.4885 6.33806 13.1189 5.96844 13.1189 5.5125C13.1189 5.05655 13.4885 4.68693 13.9445 4.68693C14.4004 4.68693 14.77 5.05655 14.77 5.5125C14.77 5.96844 14.4004 6.33806 13.9445 6.33806Z" fill="black"/>
</svg>
