<svg width="16" height="16" viewBox="0 0 16 16" fill="none" xmlns="http://www.w3.org/2000/svg">
<path fill-rule="evenodd" clip-rule="evenodd" d="M7.99978 0.999023C8.35877 0.999039 8.64977 1.29007 8.64976 1.64905L8.64972 2.34643C11.0003 2.66376 12.8124 4.67802 12.8124 7.11552V11.5138H13.4784C13.8374 11.5138 14.1284 11.8048 14.1284 12.1638C14.1284 12.5228 13.8374 12.8138 13.4784 12.8138H2.52124C2.16226 12.8138 1.87124 12.5228 1.87124 12.1638C1.87124 11.8048 2.16226 11.5138 2.52124 11.5138H3.18716V7.11552C3.18716 4.67805 4.99923 2.66381 7.34973 2.34644L7.34976 1.64899C7.34977 1.29001 7.6408 0.999008 7.99978 0.999023ZM4.48716 7.11552C4.48716 5.17556 6.05981 3.60292 7.99976 3.60292C9.93972 3.60292 11.5124 5.17557 11.5124 7.11552V11.5138H4.48716V7.11552Z" fill="black"/>
<path d="M7.99969 15.0117C7.2007 15.0117 6.54588 14.3944 6.48608 13.6108H9.5133C9.4535 14.3944 8.79868 15.0117 7.99969 15.0117Z" fill="black"/>
<path d="M4.53224 2.22221C4.53224 2.67816 4.16262 3.04778 3.70667 3.04778C3.25072 3.04778 2.8811 2.67816 2.8811 2.22221C2.8811 1.76626 3.25072 1.39664 3.70667 1.39664C4.16262 1.39664 4.53224 1.76626 4.53224 2.22221Z" fill="black"/>
<path d="M12.2931 3.04778C11.8371 3.04778 11.4675 2.67816 11.4675 2.22221C11.4675 1.76626 11.8371 1.39664 12.2931 1.39664C12.749 1.39664 13.1187 1.76626 13.1187 2.22221C13.1187 2.67816 12.749 3.04778 12.2931 3.04778Z" fill="black"/>
<path d="M2.88063 5.51713C2.88063 5.97308 2.51101 6.3427 2.05506 6.3427C1.59911 6.3427 1.22949 5.97308 1.22949 5.51713C1.22949 5.06118 1.59911 4.69157 2.05506 4.69157C2.51101 4.69157 2.88063 5.06118 2.88063 5.51713Z" fill="black"/>
<path d="M13.9445 6.3427C13.4885 6.3427 13.1189 5.97308 13.1189 5.51713C13.1189 5.06118 13.4885 4.69157 13.9445 4.69157C14.4004 4.69157 14.77 5.06118 14.77 5.51713C14.77 5.97308 14.4004 6.3427 13.9445 6.3427Z" fill="black"/>
</svg>
