<svg width="16" height="16" viewBox="0 0 16 16" fill="none" xmlns="http://www.w3.org/2000/svg">
<path d="M7.99973 0.999023C8.35872 0.999039 8.64972 1.29007 8.6497 1.64905L8.64967 2.34641C11.0002 2.66375 12.8123 4.67801 12.8123 7.1155V10.5667L11.5123 9.26674V7.1155C11.5123 5.17554 9.93964 3.60289 7.99968 3.60289C7.37953 3.60289 6.79691 3.7636 6.2912 4.04565L5.34573 3.10017C5.93553 2.70956 6.6164 2.44541 7.34967 2.34641L7.3497 1.64899C7.34972 1.29001 7.64075 0.999008 7.99973 0.999023Z" fill="black"/>
<path fill-rule="evenodd" clip-rule="evenodd" d="M1.87109 12.1638C1.87109 11.8048 2.16211 11.5138 2.52109 11.5138H3.18707V7.11549C3.18707 6.36685 3.35801 5.65813 3.663 5.02624L2.30964 3.67288C2.0558 3.41904 2.0558 3.00749 2.30964 2.75365C2.56348 2.4998 2.97504 2.4998 3.22888 2.75365L13.7669 13.2916C14.0207 13.5455 14.0207 13.957 13.7669 14.2109C13.5131 14.4647 13.1015 14.4647 12.8477 14.2109L11.4505 12.8138H2.52109C2.16211 12.8138 1.87109 12.5228 1.87109 12.1638ZM4.66016 6.0234C4.54782 6.36714 4.48707 6.73422 4.48707 7.11549V11.5137H10.1505L4.66016 6.0234Z" fill="black"/>
<path d="M7.99969 15.0117C7.2007 15.0117 6.54588 14.3945 6.48608 13.6108H9.5133C9.4535 14.3945 8.79868 15.0117 7.99969 15.0117Z" fill="black"/>
</svg>
