<svg xmlns="http://www.w3.org/2000/svg" width="16" height="16" fill="none" viewBox="0 0 16 16"><path fill="#e62e04" d="M2.0938 1A1.0937 1.0937 0 0 0 1 2.0938v11.8124A1.0937 1.0937 0 0 0 2.0938 15h11.8124c.2901 0 .5683-.1152.7734-.3204A1.093 1.093 0 0 0 15 13.9062V2.0938A1.0935 1.0935 0 0 0 13.9062 1z"/><path fill="#b32100" d="M4.85 5.6926c.0536.2188.0234.455.0762.6775.1837-.1346.3062-.3566.281-.5878-.0037-.4139-.4692-.7383-.8588-.599-.245.07-.426.2899-.4672.5382-.049.2844.1218.5753.3758.7052-.0252-.245-.084-.503-.0181-.7428.1006-.2612.5182-.256.6111.0087m7.249.2966c.0892-.321-.105-.6934-.4235-.7962-.3063-.1203-.6854.0328-.8203.3312-.1505.2762-.0595.6693.2156.8312.0543-.2218.0143-.4594.0788-.6748.1028-.2575.5152-.25.609.011.0597.2331.0057.4781-.0168.7135.1868-.0578.3036-.237.3572-.4159"/><path fill="#fff" d="M11.1496 5.6806c-.0647.2176-.0247.4532-.0788.6748-.1601.9625-.804 1.8224-1.6766 2.2536a3.106 3.106 0 0 1-2.7996-.0035c-.8645-.43-1.5042-1.2832-1.6684-2.2354-.0525-.2227-.0228-.4566-.0762-.6775-.0927-.2625-.5105-.2701-.6111-.0087-.0657.2419-.0066.498.0181.7428.1838 1.19.9803 2.2588 2.0592 2.7893a3.793 3.793 0 0 0 3.2014.0757c1.1666-.5038 2.0387-1.6288 2.2253-2.8875.0226-.2354.0766-.4806.0166-.7136-.094-.261-.5069-.2673-.6099-.01"/><path fill="#f90" d="M2.0938 1A1.0937 1.0937 0 0 0 1 2.0938v2.078a1.0937 1.0937 0 0 1 1.0938-1.0937h11.8124A1.0937 1.0937 0 0 1 15 4.172V2.0938A1.0935 1.0935 0 0 0 13.9062 1z"/></svg>