<svg xmlns="http://www.w3.org/2000/svg" width="16" height="16" fill="none" viewBox="0 0 16 16"><path fill="#000" fill-rule="evenodd" d="M14.6504 3.333a.651.651 0 0 0-.5195-.6367L14 2.6826H2a.651.651 0 0 0-.6504.6504c0 .359.2914.6504.6504.6504h12l.1309-.0137a.6505.6505 0 0 0 .5195-.6367M9.4639 7.3633A.65.65 0 0 1 9.9834 8a.65.65 0 0 1-.5195.6367l-.1309.0137H2A.6507.6507 0 0 1 1.3496 8c0-.359.2914-.6504.6504-.6504h7.333zm2.667 4.667a.6506.6506 0 0 1 .5195.6367.651.651 0 0 1-.5195.6367L12 13.3174H2a.651.651 0 0 1-.6504-.6504c0-.359.2914-.6504.6504-.6504h10z"/></svg>