<svg xmlns="http://www.w3.org/2000/svg" width="16" height="16" fill="none" viewBox="0 0 16 16"><path fill="#000" fill-rule="evenodd" d="M14.6504 3.333A.651.651 0 0 0 14 2.6826H2l-.1308.0137a.651.651 0 0 0-.5196.6367c0 .3141.2233.5761.5196.6367L2 3.9834h12a.6507.6507 0 0 0 .6504-.6504M14 7.3496c.359 0 .6504.2914.6504.6504A.6507.6507 0 0 1 14 8.6504H6.667l-.1309-.0137A.65.65 0 0 1 6.0166 8a.65.65 0 0 1 .5195-.6367l.1309-.0137zm0 4.667c.359 0 .6504.2914.6504.6504a.651.651 0 0 1-.6504.6504H4l-.1309-.0137a.651.651 0 0 1-.5195-.6367.6506.6506 0 0 1 .5195-.6367l.131-.0137z"/></svg>