<svg xmlns="http://www.w3.org/2000/svg" width="16" height="16" fill="none" viewBox="0 0 16 16"><path fill="#000" fill-rule="evenodd" d="M14.3174 3.333a.6513.6513 0 0 0-.6504-.6504H2.334l-.1309.0137a.6505.6505 0 0 0-.5195.6367.65.65 0 0 0 .5195.6367l.1309.0137h11.333a.651.651 0 0 0 .6504-.6504M10.667 7.3496A.651.651 0 0 1 11.3174 8a.651.651 0 0 1-.6504.6504H5.334l-.1309-.0137A.65.65 0 0 1 4.6836 8a.65.65 0 0 1 .5195-.6367l.1309-.0137zM12 12.0166c.359 0 .6504.2914.6504.6504a.651.651 0 0 1-.6504.6504H4l-.1309-.0137a.651.651 0 0 1-.5195-.6367.6506.6506 0 0 1 .5195-.6367L4 12.0166z"/></svg>