<svg width="16" height="16" viewBox="0 0 16 16" fill="none" xmlns="http://www.w3.org/2000/svg">
<path d="M12 12.0166C12.359 12.0166 12.6504 12.308 12.6504 12.667C12.6502 13.0258 12.3589 13.3174 12 13.3174H4L3.86914 13.3037C3.57299 13.2432 3.34976 12.981 3.34961 12.667C3.34961 12.3529 3.57292 12.0909 3.86914 12.0303L4 12.0166H12Z" fill="black"/>
<path d="M10.667 7.34961C11.0258 7.34979 11.3174 7.64112 11.3174 8C11.3174 8.35888 11.0258 8.65021 10.667 8.65039H5.33398L5.20312 8.63672C4.90672 8.57627 4.68359 8.31426 4.68359 8C4.68359 7.68574 4.90672 7.42373 5.20312 7.36328L5.33398 7.34961H10.667Z" fill="black"/>
<path d="M13.667 2.68262C14.0257 2.68279 14.3172 2.97428 14.3174 3.33301C14.3174 3.69188 14.0258 3.98322 13.667 3.9834H2.33398L2.20312 3.96973C1.90672 3.90928 1.68359 3.64727 1.68359 3.33301C1.68375 3.01889 1.90682 2.75671 2.20312 2.69629L2.33398 2.68262H13.667Z" fill="black"/>
</svg>
