<svg width="16" height="16" viewBox="0 0 16 16" fill="none" xmlns="http://www.w3.org/2000/svg">
<path d="M12.1309 12.0303C12.4271 12.0909 12.6504 12.3529 12.6504 12.667C12.6502 12.981 12.427 13.2432 12.1309 13.3037L12 13.3174H2C1.64112 13.3174 1.34978 13.0258 1.34961 12.667C1.34961 12.308 1.64101 12.0166 2 12.0166H12L12.1309 12.0303Z" fill="black"/>
<path d="M9.46387 7.36328C9.76028 7.42373 9.9834 7.68574 9.9834 8C9.9834 8.31426 9.76028 8.57627 9.46387 8.63672L9.33301 8.65039H2C1.64101 8.65039 1.34961 8.35898 1.34961 8C1.34961 7.64102 1.64101 7.34961 2 7.34961H9.33301L9.46387 7.36328Z" fill="black"/>
<path d="M14.1309 2.69629C14.427 2.75683 14.6502 3.019 14.6504 3.33301C14.6504 3.64714 14.4271 3.90914 14.1309 3.96973L14 3.9834H2C1.64101 3.9834 1.34961 3.69199 1.34961 3.33301C1.34978 2.97417 1.64112 2.68262 2 2.68262H14L14.1309 2.69629Z" fill="black"/>
</svg>
