<svg xmlns="http://www.w3.org/2000/svg" width="16" height="16" fill="none" viewBox="0 0 16 16"><path fill="#000" fill-rule="evenodd" d="M12.7786 4.9442a.8711.8711 0 1 0 0-1.7423.871.871 0 0 0-.8711.8711c0 .4811.39.8712.8711.8712m2.1712-.8712c0 1.1991-.9721 2.1712-2.1712 2.1712q-.0972 0-.1925-.0084l-.6808 1.762c.5287.396.8708 1.0275.8708 1.7388 0 1.1991-.972 2.1712-2.1711 2.1712s-2.1712-.9721-2.1712-2.1712c0-.2092.0296-.4116.085-.6031L6.7466 7.9623a2.162 2.162 0 0 1-1.352.4722q-.081 0-.1603-.0058l-.6873 1.779c.514.3971.845 1.0195.845 1.7193 0 1.1991-.972 2.1711-2.1711 2.1711s-2.1712-.972-2.1712-2.1711.972-2.1712 2.1712-2.1712q.0533 0 .106.0025l.6991-1.8094c-.4897-.398-.8026-1.0053-.8026-1.6856 0-1.199.972-2.1711 2.1712-2.1711 1.199 0 2.1711.972 2.1711 2.1711 0 .2163-.0316.4251-.0905.6223l1.7621 1.1646a2.162 2.162 0 0 1 1.4409-.4835l.7066-1.8289c-.4753-.3983-.7774-.9962-.7774-1.6648 0-1.199.972-2.1711 2.1711-2.1711s2.1712.972 2.1712 2.1711M3.221 11.0558a.8711.8711 0 1 0 0 1.7423.8711.8711 0 0 0 0-1.7423m1.3025-4.7925a.8712.8712 0 1 1 1.7423 0 .8712.8712 0 0 1-1.7423 0m6.0815 4.3445c.4811 0 .8711-.39.8711-.8712a.8711.8711 0 1 0-1.7423 0c0 .4812.3901.8712.8712.8712"/></svg>