<svg xmlns="http://www.w3.org/2000/svg" width="16" height="16" fill="none" viewBox="0 0 16 16"><path fill="#000" d="M6.667 9c0 .552-.448 1-1 1s-1-.448-1-1 .448-1 1-1 1 .448 1 1m3.666 1c.552 0 1-.448 1-1s-.448-1-1-1-1 .448-1 1 .448 1 1 1"/><path fill="#000" fill-rule="evenodd" d="M1.5405 2.8737a.65.65 0 0 1 .9192 0l1.698 1.698C5.2429 3.8024 6.5688 3.35 8.0002 3.35s2.7573.4523 3.8423 1.2218l1.6981-1.698a.65.65 0 1 1 .9192.9192L12.827 5.4257c1.13 1.192 1.8232 2.8022 1.8232 4.5743v1.8788c0 .7941-.6438 1.4379-1.4379 1.4379H2.788c-.7941 0-1.4379-.6438-1.4379-1.4379V10c0-1.772.6932-3.3823 1.8232-4.5743L1.5404 3.793a.65.65 0 0 1 0-.9193M8 4.65c-2.9547 0-5.35 2.3953-5.35 5.35v1.8788c0 .0762.0617.1379.1379.1379h10.4242a.138.138 0 0 0 .1379-.1379V10c0-2.9547-2.3953-5.35-5.35-5.35" clip-rule="evenodd"/></svg>