<svg xmlns="http://www.w3.org/2000/svg" width="16" height="16" fill="none" viewBox="0 0 16 16"><path fill="#000" fill-rule="evenodd" d="M8.0001.95a4.313 4.313 0 0 0-2.4591.7648l-.5745-.5745a.65.65 0 1 0-.9192.9193l.5458.5458a4.315 4.315 0 0 0-.9262 2.6777v6.2692c0 1.093.7821 2.0034 1.8172 2.2021V14.4a.65.65 0 0 0 1.3 0v-.6054h2.4054V14.4a.65.65 0 0 0 1.3 0v-.6407c1.0483-.188 1.8438-1.1046 1.8438-2.207V5.2831a4.315 4.315 0 0 0-.9262-2.6777l.5458-.5458a.65.65 0 0 0-.9193-.9193l-.5744.5745A4.313 4.313 0 0 0 8.0002.95M4.967 5.283c0-1.675 1.358-3.033 3.0331-3.033s3.0332 1.358 3.0332 3.0331v.8112H4.9669zm0 2.1112v4.158c0 .5204.422.9423.9424.9423h4.1816c.5205 0 .9424-.4219.9424-.9423v-4.158z" clip-rule="evenodd"/><path fill="#000" d="M2.373 5.491a.65.65 0 0 1 .65.65v3.164a.65.65 0 0 1-1.3 0V6.141a.65.65 0 0 1 .65-.65m11.905.65a.65.65 0 1 0-1.3 0v3.164a.65.65 0 1 0 1.3 0z"/></svg>