<svg xmlns="http://www.w3.org/2000/svg" width="16" height="16" fill="none" viewBox="0 0 16 16"><path fill="#000" fill-rule="evenodd" d="M4.0121 1.9487c2.0964-1.0094 5.5327-1.645 9.1475.5517.3057.1867.4036.5863.2177.8926-.1863.3062-.587.4044-.8935.2188-2.9228-1.7761-5.69-1.4195-7.4893-.6807zm-1.8848-.0508a.651.651 0 0 0-.9199 0 .651.651 0 0 0 0 .92l2.4961 2.496c-.9.8727-1.3949 1.9477-1.6143 3.0303-.3178 1.5699-.0622 3.166.3438 4.2568.1255.336.4998.5079.836.3828.3358-.1253.5065-.4998.3818-.8359-.337-.9051-.5487-2.2537-.2871-3.546.1746-.8614.557-1.693 1.2597-2.368l.8965.8964c-.794.8013-1.1127 2.0352-.9384 3.2783.2218 1.5798 1.2297 3.256 3.161 4.4561a.65.65 0 0 0 .8946-.209.6503.6503 0 0 0-.209-.8945c-1.6367-1.017-2.3964-2.3718-2.5596-3.5332-.1324-.9451.1231-1.7165.5723-2.1768l1.1494 1.1485a.65.65 0 0 0-.1953.708c.4385 1.271 1.8685 3.5032 4.5371 3.7822.0492.0051.0974.0018.1445-.0039l1.087 1.0869a.65.65 0 0 0 .9189 0 .65.65 0 0 0 0-.9189zm3.8584 2.0244c1.9599-.731 3.64-.4431 4.9483.2569 1.4281.7645 2.3796 1.9968 2.8086 2.8115.7762 1.4756.0791 2.6729-.7344 3.0303l.001.0009c-.0028.0013-.0069.0017-.0098.003-.0053.0023-.0104.0065-.0156.0087l-.001-.0009c-.1901.0844-.4443.1499-.7295.1582L8.1537 6.0903a3.38 3.38 0 0 1 1.2314.2305c.9246.3614 1.6286 1.101 2.0332 1.955.2015.4247.4372.551.5957.5938.1909.0511.3726.0085.4454-.0254l.0244-.0108c.0528-.0221.1859-.1221.2549-.3193.0602-.1732.0869-.474-.1465-.918-.3376-.641-1.1225-1.6563-2.2715-2.2714-.8688-.4648-1.968-.713-3.3008-.3672z"/></svg>