<svg width="16" height="16" viewBox="0 0 16 16" fill="none" xmlns="http://www.w3.org/2000/svg">
<path d="M1.20742 1.89802C1.46126 1.64418 1.8735 1.64418 2.12734 1.89802L14.0824 13.8541C14.3358 14.108 14.3361 14.5193 14.0824 14.773C13.8287 15.0266 13.4173 15.0264 13.1635 14.773L12.0766 13.6861C12.0294 13.6918 11.9812 13.6951 11.932 13.69C9.26337 13.411 7.83336 11.1789 7.39492 9.90779C7.30509 9.64669 7.39125 9.36793 7.59023 9.19978L6.44081 8.05134C5.9916 8.51157 5.73611 9.283 5.86855 10.2281C6.03168 11.3895 6.79145 12.7443 8.42812 13.7613C8.73235 13.9509 8.8261 14.3512 8.6371 14.6558C8.44776 14.9603 8.04733 15.0536 7.74257 14.8648C5.81117 13.6647 4.80329 11.9885 4.58144 10.4088C4.4072 9.16568 4.72598 7.93175 5.51992 7.13044L4.62343 6.23396C3.92064 6.90896 3.53831 7.74064 3.36367 8.60212C3.10206 9.89431 3.31389 11.2429 3.65078 12.148C3.77545 12.4841 3.60477 12.8586 3.26894 12.984C2.93278 13.1091 2.55851 12.9371 2.433 12.6011C2.02699 11.5103 1.7714 9.91419 2.08925 8.34431C2.30863 7.26171 2.8034 6.18668 3.70351 5.31404L1.20742 2.81794C0.953612 2.56414 0.953683 2.15187 1.20742 1.89802Z" fill="black"/>
<path d="M5.98574 3.92244C7.94559 3.19142 9.62567 3.47931 10.934 4.17927C12.3621 4.9438 13.3136 6.17611 13.7426 6.9908C14.5188 8.46637 13.8217 9.66372 13.0082 10.0211L13.0092 10.022C13.0064 10.0233 13.0023 10.0238 12.9994 10.025C12.9941 10.0273 12.9891 10.0315 12.9838 10.0338L12.9828 10.0328C12.7928 10.1172 12.5385 10.1827 12.2533 10.191L8.15371 6.0904C8.58534 6.09081 8.99935 6.17022 9.38515 6.32087C10.3097 6.68234 11.0137 7.42201 11.4184 8.27595C11.6198 8.70062 11.8555 8.82684 12.0141 8.8697C12.2049 8.92086 12.3866 8.87822 12.4594 8.84431L12.4838 8.83357C12.5366 8.81142 12.6698 8.71142 12.7387 8.51423C12.7989 8.34101 12.8256 8.04015 12.5922 7.59626C12.2546 6.95524 11.4697 5.93991 10.3207 5.32478C9.45188 4.86004 8.35271 4.61185 7.01992 4.95759L5.98574 3.92244Z" fill="black"/>
<path d="M4.0121 1.9488C6.10846 0.939409 9.5448 0.303926 13.1596 2.50056C13.4653 2.68723 13.5632 3.0868 13.3773 3.39314C13.191 3.6993 12.7903 3.79747 12.4838 3.61189C9.56103 1.83581 6.79374 2.1924 4.99453 2.93122L4.0121 1.9488Z" fill="black"/>
</svg>
