<svg width="16" height="16" viewBox="0 0 16 16" fill="none" xmlns="http://www.w3.org/2000/svg">
<path d="M9.79285 6.12628C10.0467 5.87244 10.0467 5.46088 9.79285 5.20704C9.53901 4.9532 9.12745 4.9532 8.87361 5.20704L7.99991 6.08074L7.12622 5.20704C6.87238 4.9532 6.46082 4.9532 6.20698 5.20704C5.95314 5.46088 5.95314 5.87244 6.20698 6.12628L7.08068 6.99998L6.20694 7.87371C5.9531 8.12755 5.9531 8.53911 6.20694 8.79295C6.46078 9.04679 6.87234 9.04679 7.12618 8.79295L7.99991 7.91921L8.84923 8.76853C9.10307 9.02237 9.51463 9.02237 9.76847 8.76853C10.0223 8.51469 10.0223 8.10313 9.76847 7.84929L8.91915 6.99998L9.79285 6.12628Z" fill="black"/>
<path fill-rule="evenodd" clip-rule="evenodd" d="M5.98323 2.33335C5.98323 1.97436 5.69221 1.68335 5.33323 1.68335C4.97424 1.68335 4.68323 1.97436 4.68323 2.33335V2.35004H3.6666C2.75533 2.35004 2.0166 3.08877 2.0166 4.00004V10C2.0166 10.9113 2.75533 11.65 3.6666 11.65H4.68323V13.6667C4.68323 14.0257 4.97424 14.3167 5.33323 14.3167C5.69221 14.3167 5.98323 14.0257 5.98323 13.6667V11.65H10.0166V13.6667C10.0166 14.0257 10.3076 14.3167 10.6666 14.3167C11.0255 14.3167 11.3166 14.0257 11.3166 13.6667V11.65H12.3333C13.2445 11.65 13.9833 10.9113 13.9833 10V4.00004C13.9833 3.08877 13.2445 2.35004 12.3333 2.35004H11.3166V2.33335C11.3166 1.97436 11.0255 1.68335 10.6666 1.68335C10.3076 1.68335 10.0166 1.97436 10.0166 2.33335V2.35004H5.98323V2.33335ZM10.6718 10.35H12.3333C12.5266 10.35 12.6833 10.1933 12.6833 10V4.00004C12.6833 3.80674 12.5266 3.65004 12.3333 3.65004H3.6666C3.4733 3.65004 3.3166 3.80674 3.3166 4.00004V10C3.3166 10.1933 3.4733 10.35 3.6666 10.35H5.32795L5.33323 10.35L5.33851 10.35H10.6613L10.6666 10.35L10.6718 10.35Z" fill="black"/>
</svg>
