<svg xmlns="http://www.w3.org/2000/svg" width="16" height="16" fill="none" viewBox="0 0 16 16"><path fill="#000" fill-rule="evenodd" d="M1 4.3125c0-1.1046.8954-2 2-2h10c1.1046 0 2 .8954 2 2v7.375c0 1.1046-.8954 2-2 2H3c-1.1046 0-2-.8954-2-2zm1.3.1595v7.2155a.7.7 0 0 0 .7.7h10a.7.7 0 0 0 .7-.7V4.472zm10.0184 1.4338a.65.65 0 0 1 0 .9192L9.3645 9.779a.65.65 0 0 1-.9192 0L7.0563 8.39l-2.4556 2.4557a.65.65 0 1 1-.9193-.9192l2.9153-2.9153a.65.65 0 0 1 .9193 0L8.9049 8.4l2.4942-2.4943a.65.65 0 0 1 .9193 0"/></svg>