<svg xmlns="http://www.w3.org/2000/svg" width="16" height="16" fill="none" viewBox="0 0 16 16"><path fill="#000" fill-rule="evenodd" d="M3.5472 4.0123c0-.994.806-1.8 1.8-1.8h7.8441c.9941 0 1.8.806 1.8 1.8v5.6984c0 .9941-.8059 1.8-1.8 1.8h-7.844c-.9942 0-1.8-.8059-1.8-1.8zm1.3012-.0348a.5.5 0 0 0-.0012.0348v5.6984a.5.5 0 0 0 .5.5h7.8441a.5.5 0 0 0 .5-.5V4.0123a.5.5 0 0 0-.0012-.0348zM1.66 6.5063a.65.65 0 0 1 .65.65v3.0849c0 1.2979 1.0522 2.35 2.35 2.35h3.9542a.65.65 0 1 1 0 1.3H4.66c-2.0158 0-3.65-1.6341-3.65-3.65V7.1563a.65.65 0 0 1 .65-.65"/></svg>