<svg width="16" height="16" viewBox="0 0 16 16" fill="none" xmlns="http://www.w3.org/2000/svg">
<path fill-rule="evenodd" clip-rule="evenodd" d="M5.34746 2.2124C4.35335 2.2124 3.54746 3.01829 3.54746 4.0124V9.71072C3.54746 10.7048 4.35335 11.5107 5.34746 11.5107H13.1915C14.1857 11.5107 14.9915 10.7048 14.9915 9.71072V4.0124C14.9915 3.01829 14.1857 2.2124 13.1915 2.2124H5.34746ZM4.84746 4.0124C4.84746 4.00071 4.84786 3.98911 4.84865 3.97761H13.6904C13.6911 3.98911 13.6915 4.00071 13.6915 4.0124V9.71072C13.6915 9.98686 13.4677 10.2107 13.1915 10.2107H5.34746C5.07132 10.2107 4.84746 9.98686 4.84746 9.71072V4.0124Z" fill="black"/>
<path d="M2.31025 7.15637C2.31025 6.79739 2.01924 6.50637 1.66025 6.50637C1.30127 6.50637 1.01025 6.79739 1.01025 7.15637V10.2413C1.01025 12.2571 2.64442 13.8913 4.66025 13.8913H8.61444C8.97343 13.8913 9.26444 13.6003 9.26444 13.2413C9.26444 12.8823 8.97343 12.5913 8.61444 12.5913H4.66025C3.36238 12.5913 2.31025 11.5392 2.31025 10.2413V7.15637Z" fill="black"/>
</svg>
