<svg xmlns="http://www.w3.org/2000/svg" width="16" height="16" fill="none" viewBox="0 0 16 16"><path fill="#000" fill-rule="evenodd" d="M3 2.3125c-1.1046 0-2 .8954-2 2v7.375c0 1.1046.8954 2 2 2h10c1.1046 0 2-.8954 2-2v-7.375c0-1.1046-.8954-2-2-2zm-.7 9.375V4.472h11.4v7.2155a.7.7 0 0 1-.7.7H3a.7.7 0 0 1-.7-.7m4.4946-5.3786a.65.65 0 0 0-.9193.9193l1.2055 1.2054-1.2053 1.2053a.65.65 0 1 0 .9192.9192L8 9.3528l1.2053 1.2053a.65.65 0 0 0 .9192 0 .65.65 0 0 0 0-.9192L8.9192 8.4336l1.2055-1.2054a.65.65 0 0 0-.9193-.9193L8 7.5144z"/></svg>