<svg xmlns="http://www.w3.org/2000/svg" width="16" height="16" fill="none" viewBox="0 0 16 16"><path fill="#999" d="M8.5905 2.2177c.92-1.2125 2.1989-1.2184 2.1989-1.2184s.1902 1.14-.7237 2.2381c-.9759 1.1726-2.085.9807-2.085.9807s-.2083-.9222.6098-2.0004m-.4929 2.799c.4733 0 1.3517-.6506 2.495-.6506 1.968 0 2.7423 1.4004 2.7423 1.4004s-1.5143.7742-1.5143 2.6528c0 2.1192 1.8864 2.8495 1.8864 2.8495s-1.3187 3.7114-3.0997 3.7114c-.818 0-1.454-.5513-2.316-.5513-.8783 0-1.75.5719-2.3177.5719-1.6264 0-3.6811-3.5206-3.6811-6.3507 0-2.7843 1.7392-4.245 3.3704-4.245 1.0605 0 1.8834.6116 2.4348.6116"/></svg>