<svg xmlns="http://www.w3.org/2000/svg" width="16" height="16" fill="none" viewBox="0 0 16 16"><path fill="#000" fill-rule="evenodd" d="M13.7 4.472v.6418a3.235 3.235 0 0 1 1.3.7605V4.3125c0-1.1046-.8954-2-2-2H3c-1.1046 0-2 .8954-2 2v7.375c0 1.1046.8954 2 2 2h5.5442a2.94 2.94 0 0 1-.3084-1.3H3a.7.7 0 0 1-.7-.7V4.472zm-3.5113 9.2155c-.3931-.2986-.6483-.7694-.653-1.3v-1.8872c0-.7867.5505-1.4447 1.2873-1.61v-.6766c0-1.0704.8677-1.9381 1.9382-1.9381s1.9381.8677 1.9381 1.9381v.6736C15.4428 9.0476 16 9.709 16 10.5003v1.8724c0 .9113-.7388 1.65-1.65 1.65h-3.1642a1.643 1.643 0 0 1-.9971-.3352m3.2106-4.8372v-.6366a.6381.6381 0 1 0-1.2763 0v.6366zm1.2346 1.4453a.35.35 0 0 0-.284-.1453h-3.1641a.35.35 0 0 0-.35.35v1.8724a.35.35 0 0 0 .35.35H14.35a.35.35 0 0 0 .3499-.35v-1.8786a.35.35 0 0 0-.066-.1985"/></svg>