<svg xmlns="http://www.w3.org/2000/svg" width="16" height="16" fill="none" viewBox="0 0 16 16"><path fill="#000" fill-rule="evenodd" d="M1.0728 2.7c0-.9113.7387-1.65 1.65-1.65H5.641c.9113 0 1.65.7387 1.65 1.65v2.938c0 .9114-.7387 1.65-1.65 1.65H2.7228c-.9113 0-1.65-.7386-1.65-1.65zm9.3088-1.65c-.9112 0-1.65.7387-1.65 1.65v2.938c0 .9114.7387 1.65 1.65 1.65H13.3c.9113 0 1.65-.7386 1.65-1.65V2.7c0-.9113-.7387-1.65-1.65-1.65zM2.7001 8.712c-.9113 0-1.65.7386-1.65 1.6499V13.3c0 .9113.7387 1.65 1.65 1.65h2.9184c.9112 0 1.65-.7387 1.65-1.65v-2.9381c0-.9113-.7388-1.65-1.65-1.65zm7.6589 0c-.9113 0-1.65.7387-1.65 1.65v2.9381c0 .9112.7387 1.65 1.65 1.65h2.9184c.9112 0 1.65-.7388 1.65-1.65V10.362c0-.9113-.7388-1.65-1.65-1.65z"/></svg>