<svg xmlns="http://www.w3.org/2000/svg" width="16" height="16" fill="none" viewBox="0 0 16 16"><path fill="#000" fill-rule="evenodd" d="M2.6739 5.2136c0-1.5094 1.2236-2.733 2.733-2.733h5.1866c1.5094 0 2.733 1.2236 2.733 2.733v5.642c0 1.5094-1.2236 2.733-2.733 2.733H5.4069c-1.5094 0-2.733-1.2236-2.733-2.733zm2.733-1.2423c-.6861 0-1.2423.5562-1.2423 1.2423v5.642c0 .6861.5562 1.2423 1.2423 1.2423h5.1866c.6861 0 1.2422-.5562 1.2422-1.2423v-5.642c0-.686-.5561-1.2423-1.2422-1.2423zm-4.0225.034C.5522 4.5706 0 5.5648 0 6.6968v2.6757c0 1.132.5522 2.1261 1.3844 2.6914zm14.616 5.3672c0 1.1318-.552 2.1258-1.384 2.6912V4.0056c.832.5654 1.384 1.5594 1.384 2.6912z"/></svg>