<svg width="16" height="16" viewBox="0 0 16 16" fill="none" xmlns="http://www.w3.org/2000/svg">
<path d="M8.65022 5.28068C8.65022 4.92169 8.3592 4.63068 8.00022 4.63068C7.64123 4.63068 7.35022 4.92169 7.35022 5.28068V9.19544L6.33826 8.18348C6.08441 7.92964 5.67286 7.92964 5.41902 8.18349C5.16518 8.43733 5.16518 8.84888 5.41902 9.10272L7.489 11.1727C7.60795 11.3239 7.79289 11.4211 8.00022 11.4212L8.00283 11.4212C8.1705 11.4222 8.3385 11.3588 8.46643 11.2308L10.5946 9.1027C10.8484 8.84886 10.8484 8.4373 10.5946 8.18346C10.3407 7.92962 9.92919 7.92962 9.67534 8.18346L8.65022 9.20857L8.65022 5.28068Z" fill="black"/>
<path fill-rule="evenodd" clip-rule="evenodd" d="M2.55576 1.89844C1.64449 1.89844 0.905762 2.63717 0.905762 3.54844V4.28069C0.905762 4.89898 1.24584 5.43784 1.74915 5.72043V11.9514C1.74915 13.1389 2.71173 14.1014 3.89915 14.1014H12.1144C13.3018 14.1014 14.2644 13.1389 14.2644 11.9514V5.71302C14.7605 5.42849 15.0947 4.89362 15.0947 4.28069V3.54844C15.0947 2.63717 14.356 1.89844 13.4447 1.89844H2.55576ZM3.04915 11.9514V5.93069H6.34199V5.28068C6.34199 5.04998 6.3891 4.83029 6.47422 4.63069H2.55576C2.36246 4.63069 2.20576 4.47399 2.20576 4.28069V3.54844C2.20576 3.35514 2.36246 3.19844 2.55576 3.19844H13.4447C13.638 3.19844 13.7947 3.35514 13.7947 3.54844V4.28069C13.7947 4.47399 13.638 4.63069 13.4447 4.63069H9.52637C9.61149 4.83029 9.6586 5.04998 9.6586 5.28068V5.93069H12.9644V11.9514C12.9644 12.4209 12.5838 12.8014 12.1144 12.8014H3.89915C3.4297 12.8014 3.04915 12.4209 3.04915 11.9514Z" fill="black"/>
</svg>
