<svg xmlns="http://www.w3.org/2000/svg" width="16" height="16" fill="none" viewBox="0 0 16 16"><path fill="#000" fill-rule="evenodd" d="M.9053 3.5484c0-.9112.7387-1.65 1.65-1.65h10.8889c.9113 0 1.65.7388 1.65 1.65v.7323c0 .613-.3342 1.1478-.8303 1.4323v6.2384c0 1.1875-.9626 2.15-2.15 2.15H3.8987c-1.1874 0-2.15-.9625-2.15-2.15v-6.231C1.2454 5.4378.9053 4.899.9053 4.2807zm2.1434 2.3823v6.0207a.85.85 0 0 0 .85.85h8.2152a.85.85 0 0 0 .85-.85V5.9307H9.6581v-.65a1.65 1.65 0 0 0-.1322-.65h3.9183a.35.35 0 0 0 .35-.35v-.7323a.35.35 0 0 0-.35-.35H2.5552a.35.35 0 0 0-.35.35v.7323a.35.35 0 0 0 .35.35h3.9185a1.65 1.65 0 0 0-.1322.65v.65zm4.951-1.3a.65.65 0 0 1 .65.65v3.9279L9.675 8.1835a.65.65 0 0 1 .9192.9192L8.466 11.2308a.648.648 0 0 1-.4636.1904h-.0026a.65.65 0 0 1-.5112-.2485l-2.07-2.07a.65.65 0 0 1 .9193-.9192l1.012 1.012V5.2806a.65.65 0 0 1 .65-.65"/></svg>