<svg width="16" height="16" viewBox="0 0 16 16" fill="none" xmlns="http://www.w3.org/2000/svg">
<path d="M1.48542 3.92168C1.48542 2.56858 2.58233 1.47168 3.93542 1.47168H5.41961C5.7786 1.47168 6.06961 1.76269 6.06961 2.12168C6.06961 2.48066 5.7786 2.77168 5.41961 2.77168H3.93542C3.3003 2.77168 2.78542 3.28655 2.78542 3.92168V5.42343C2.78542 5.78241 2.49441 6.07343 2.13542 6.07343C1.77644 6.07343 1.48542 5.78241 1.48542 5.42343V3.92168Z" fill="black"/>
<path d="M1.48535 12.0787C1.48535 13.4318 2.58225 14.5287 3.93535 14.5287H5.41954C5.77852 14.5287 6.06954 14.2376 6.06954 13.8787C6.06954 13.5197 5.77852 13.2287 5.41954 13.2287H3.93535C3.30022 13.2287 2.78535 12.7138 2.78535 12.0787V10.5769C2.78535 10.2179 2.49434 9.9269 2.13535 9.9269C1.77637 9.9269 1.48535 10.2179 1.48535 10.5769V12.0787Z" fill="black"/>
<path d="M12.0645 1.47178C13.4176 1.47178 14.5145 2.56868 14.5145 3.92178V5.42353C14.5145 5.78251 14.2235 6.07353 13.8645 6.07353C13.5055 6.07353 13.2145 5.78251 13.2145 5.42353V3.92178C13.2145 3.28665 12.6996 2.77178 12.0645 2.77178H10.5803C10.2213 2.77178 9.93031 2.48076 9.93031 2.12178C9.93031 1.76279 10.2213 1.47178 10.5803 1.47178H12.0645Z" fill="black"/>
<path d="M14.5145 12.0787C14.5145 13.4318 13.4176 14.5287 12.0645 14.5287H10.5803C10.2213 14.5287 9.93031 14.2376 9.93031 13.8787C9.93031 13.5197 10.2213 13.2287 10.5803 13.2287H12.0645C12.6996 13.2287 13.2145 12.7138 13.2145 12.0787V10.5769C13.2145 10.2179 13.5055 9.9269 13.8645 9.9269C14.2235 9.9269 14.5145 10.2179 14.5145 10.5769V12.0787Z" fill="black"/>
<path d="M8.23891 2.77178C8.59789 2.77178 8.88891 2.48076 8.88891 2.12178C8.88891 1.76279 8.59789 1.47178 8.23891 1.47178L7.76104 1.47178C7.40205 1.47178 7.11104 1.76279 7.11104 2.12178C7.11104 2.48076 7.40205 2.77178 7.76104 2.77178H8.23891Z" fill="black"/>
<path d="M8.90449 13.8787C8.90449 13.5197 8.61347 13.2287 8.25449 13.2287H7.77662C7.41763 13.2287 7.12662 13.5197 7.12662 13.8787C7.12662 14.2376 7.41763 14.5287 7.77662 14.5287H8.25449C8.61347 14.5287 8.90449 14.2376 8.90449 13.8787Z" fill="black"/>
<path d="M2.78535 8.22534C2.78535 8.58432 2.49434 8.87534 2.13535 8.87534C1.77637 8.87534 1.48535 8.58432 1.48535 8.22534V7.74746C1.48535 7.38848 1.77637 7.09746 2.13535 7.09746C2.49434 7.09746 2.78535 7.38848 2.78535 7.74746V8.22534Z" fill="black"/>
<path d="M13.8645 8.87534C14.2235 8.87534 14.5145 8.58432 14.5145 8.22534V7.74746C14.5145 7.38848 14.2235 7.09746 13.8645 7.09746C13.5055 7.09746 13.2145 7.38848 13.2145 7.74746V8.22534C13.2145 8.58432 13.5055 8.87534 13.8645 8.87534Z" fill="black"/>
<path d="M4.29997 4.89037C3.94099 4.89037 3.64997 5.18139 3.64997 5.54037C3.64997 5.89936 3.94099 6.19037 4.29997 6.19037H8.62957C8.98856 6.19037 9.27957 5.89936 9.27957 5.54037C9.27957 5.18139 8.98856 4.89037 8.62957 4.89037H4.29997Z" fill="black"/>
<path d="M5.18708 7.98642C5.18708 7.62743 5.4781 7.33642 5.83708 7.33642H10.1667C10.5257 7.33642 10.8167 7.62743 10.8167 7.98642C10.8167 8.3454 10.5257 8.63642 10.1667 8.63642H5.83708C5.4781 8.63642 5.18708 8.3454 5.18708 7.98642Z" fill="black"/>
<path d="M7.3698 9.78222C7.01081 9.78222 6.7198 10.0732 6.7198 10.4322C6.7198 10.7912 7.01081 11.0822 7.3698 11.0822H11.6994C12.0584 11.0822 12.3494 10.7912 12.3494 10.4322C12.3494 10.0732 12.0584 9.78222 11.6994 9.78222H7.3698Z" fill="black"/>
</svg>
