<svg xmlns="http://www.w3.org/2000/svg" width="16" height="16" fill="none" viewBox="0 0 16 16"><path fill="#000" fill-rule="evenodd" d="M1.491 3.9272c0-1.3531 1.097-2.45 2.45-2.45h1.4818a.65.65 0 1 1 0 1.3H3.941c-.6351 0-1.15.5149-1.15 1.15v1.4992a.65.65 0 0 1-1.3 0zm10.5679-2.45c1.3531 0 2.45 1.0969 2.45 2.45v1.4992a.65.65 0 0 1-1.3 0V3.9272c0-.6351-.5149-1.15-1.15-1.15h-1.4817a.65.65 0 1 1 0-1.3zm-3.1701.65a.65.65 0 0 1-.65.65h-.4776a.65.65 0 0 1 0-1.3h.4775a.65.65 0 0 1 .65.65M4.2463 5.0324a.8.8 0 0 1 .8-.8h1.2134a.8.8 0 0 1 .8.8v1.2134a.8.8 0 0 1-.8.8H5.0463a.8.8 0 0 1-.8-.8zm4.6946 0a.8.8 0 0 1 .8-.8h1.2134a.8.8 0 0 1 .8.8v1.2134a.8.8 0 0 1-.8.8H9.7409a.8.8 0 0 1-.8-.8zM2.141 8.8747a.65.65 0 0 0 .65-.65v-.4775a.65.65 0 0 0-1.3 0v.4775c0 .359.291.65.65.65m12.3678-.65a.65.65 0 0 1-1.3 0v-.4775a.65.65 0 1 1 1.3 0zm-9.4626.7022a.8.8 0 0 0-.8.8v1.2134a.8.8 0 0 0 .8.8h1.2134a.8.8 0 0 0 .8-.8V9.7269a.8.8 0 0 0-.8-.8zm4.6946 0a.8.8 0 0 0-.8.8v1.2134a.8.8 0 0 0 .8.8h1.2134a.8.8 0 0 0 .8-.8V9.7269a.8.8 0 0 0-.8-.8zM1.491 12.0727c0 1.3531 1.0969 2.45 2.45 2.45h1.4817a.65.65 0 1 0 0-1.3H3.941c-.6351 0-1.15-.5149-1.15-1.15v-1.4992a.65.65 0 1 0-1.3 0zm13.0178 0c0 1.3531-1.0969 2.45-2.45 2.45h-1.4817a.65.65 0 1 1 0-1.3h1.4817c.6351 0 1.15-.5149 1.15-1.15v-1.4992a.65.65 0 1 1 1.3 0zm-6.2702 1.15a.65.65 0 1 1 0 1.3h-.4775a.65.65 0 1 1 0-1.3z"/></svg>