<svg width="16" height="16" viewBox="0 0 16 16" fill="none" xmlns="http://www.w3.org/2000/svg">
<path d="M3.94121 1.47717C2.58811 1.47717 1.49121 2.57408 1.49121 3.92717V5.42641C1.49121 5.78539 1.78223 6.07641 2.14121 6.07641C2.5002 6.07641 2.79121 5.78539 2.79121 5.42641V3.92717C2.79121 3.29205 3.30608 2.77717 3.94121 2.77717H5.4229C5.78188 2.77717 6.0729 2.48616 6.0729 2.12717C6.0729 1.76819 5.78188 1.47717 5.4229 1.47717H3.94121Z" fill="black"/>
<path d="M3.94121 14.5227C2.58811 14.5227 1.49121 13.4258 1.49121 12.0727V10.5734C1.49121 10.2144 1.78223 9.92342 2.14121 9.92342C2.5002 9.92342 2.79121 10.2144 2.79121 10.5734V12.0727C2.79121 12.7078 3.30608 13.2227 3.94121 13.2227H5.4229C5.78188 13.2227 6.0729 13.5137 6.0729 13.8727C6.0729 14.2316 5.78188 14.5227 5.4229 14.5227H3.94121Z" fill="black"/>
<path d="M14.509 3.92717C14.509 2.57408 13.4121 1.47717 12.059 1.47717H10.5773C10.2183 1.47717 9.9273 1.76819 9.9273 2.12717C9.9273 2.48616 10.2183 2.77717 10.5773 2.77717H12.059C12.6941 2.77717 13.209 3.29205 13.209 3.92717V5.42641C13.209 5.78539 13.5 6.07641 13.859 6.07641C14.218 6.07641 14.509 5.78539 14.509 5.42641V3.92717Z" fill="black"/>
<path d="M12.059 14.5227C13.4121 14.5227 14.509 13.4258 14.509 12.0727V10.5734C14.509 10.2144 14.218 9.92342 13.859 9.92342C13.5 9.92342 13.209 10.2144 13.209 10.5734V12.0727C13.209 12.7078 12.6941 13.2227 12.059 13.2227H10.5773C10.2183 13.2227 9.9273 13.5137 9.9273 13.8727C9.9273 14.2316 10.2183 14.5227 10.5773 14.5227H12.059Z" fill="black"/>
<path d="M8.88887 2.12717C8.88887 2.48616 8.59785 2.77717 8.23887 2.77717L7.76136 2.77717C7.40237 2.77717 7.11136 2.48616 7.11136 2.12717C7.11136 1.76819 7.40237 1.47717 7.76136 1.47717H8.23887C8.59785 1.47717 8.88887 1.76819 8.88887 2.12717Z" fill="black"/>
<path d="M8.23887 13.2227C8.59785 13.2227 8.88887 13.5137 8.88887 13.8727C8.88887 14.2316 8.59785 14.5227 8.23887 14.5227H7.76136C7.40237 14.5227 7.11136 14.2316 7.11136 13.8727C7.11136 13.5137 7.40237 13.2227 7.76136 13.2227H8.23887Z" fill="black"/>
<path d="M2.14121 8.87471C2.5002 8.87471 2.79121 8.58369 2.79121 8.22471V7.7472C2.79121 7.38821 2.5002 7.0972 2.14121 7.0972C1.78223 7.0972 1.49121 7.38821 1.49121 7.7472V8.22471C1.49121 8.58369 1.78223 8.87471 2.14121 8.87471Z" fill="black"/>
<path d="M14.509 8.22471C14.509 8.58369 14.218 8.87471 13.859 8.87471C13.5 8.87471 13.209 8.58369 13.209 8.22471V7.7472C13.209 7.38821 13.5 7.0972 13.859 7.0972C14.218 7.0972 14.509 7.38821 14.509 7.7472V8.22471Z" fill="black"/>
<path d="M4.24644 5.0324C4.24644 4.59057 4.60461 4.2324 5.04644 4.2324H6.25984C6.70166 4.2324 7.05984 4.59057 7.05984 5.0324V6.2458C7.05984 6.68763 6.70166 7.0458 6.25984 7.0458H5.04644C4.60461 7.0458 4.24644 6.68763 4.24644 6.2458V5.0324Z" fill="black"/>
<path d="M5.04644 8.92686C4.60461 8.92686 4.24644 9.28503 4.24644 9.72686V10.9403C4.24644 11.3821 4.60461 11.7403 5.04644 11.7403H6.25984C6.70166 11.7403 7.05984 11.3821 7.05984 10.9403V9.72686C7.05984 9.28503 6.70166 8.92686 6.25984 8.92686H5.04644Z" fill="black"/>
<path d="M8.94102 5.0324C8.94102 4.59057 9.29919 4.2324 9.74102 4.2324H10.9544C11.3962 4.2324 11.7544 4.59057 11.7544 5.0324V6.2458C11.7544 6.68763 11.3962 7.0458 10.9544 7.0458H9.74102C9.29919 7.0458 8.94102 6.68763 8.94102 6.2458V5.0324Z" fill="black"/>
<path d="M9.74102 8.92686C9.29919 8.92686 8.94102 9.28503 8.94102 9.72686V10.9403C8.94102 11.3821 9.29919 11.7403 9.74102 11.7403H10.9544C11.3962 11.7403 11.7544 11.3821 11.7544 10.9403V9.72686C11.7544 9.28503 11.3962 8.92686 10.9544 8.92686H9.74102Z" fill="black"/>
</svg>
