<svg xmlns="http://www.w3.org/2000/svg" width="16" height="16" fill="none" viewBox="0 0 16 16"><path fill="#000" fill-rule="evenodd" d="M3.9353 1.4716c-1.353 0-2.45 1.097-2.45 2.45v1.5018a.65.65 0 1 0 1.3 0V3.9216c0-.6351.5149-1.15 1.15-1.15h1.4842a.65.65 0 0 0 0-1.3zm10.5791 2.4501c0-1.353-1.0969-2.45-2.45-2.45h-1.4842a.65.65 0 1 0 0 1.3h1.4842c.6351 0 1.15.5149 1.15 1.15v1.5018a.65.65 0 1 0 1.3 0zm-6.2756-1.15a.65.65 0 0 0 0-1.3h-.4779a.65.65 0 0 0 0 1.3zm-3.939 2.1186a.65.65 0 1 0 0 1.3h4.3297a.65.65 0 0 0 0-1.3zm-1.5146 3.335a.65.65 0 0 1-1.3 0v-.4779a.65.65 0 0 1 1.3 0zm11.0792.65a.65.65 0 0 0 .65-.65v-.4779a.65.65 0 1 0-1.3 0v.4779c0 .359.291.65.65.65m-8.6774-.889a.65.65 0 0 1 .65-.65h4.3296a.65.65 0 0 1 0 1.3H5.837a.65.65 0 0 1-.65-.65m1.5327 2.4459a.65.65 0 0 1 .65-.65h4.3296a.65.65 0 0 1 0 1.3H7.3697a.65.65 0 0 1-.65-.65m-2.7845 4.0964c-1.353 0-2.45-1.0969-2.45-2.45v-1.5018a.65.65 0 0 1 1.3 0v1.5018c0 .6351.515 1.15 1.15 1.15h1.4842a.65.65 0 1 1 0 1.3zm8.1292 0c1.3531 0 2.45-1.0969 2.45-2.45v-1.5018a.65.65 0 0 0-1.3 0v1.5018c0 .6351-.5149 1.15-1.15 1.15h-1.4842a.65.65 0 1 0 0 1.3zm-3.16-.65a.65.65 0 0 0-.65-.65h-.478a.65.65 0 1 0 0 1.3h.478a.65.65 0 0 0 .65-.65"/></svg>