<svg xmlns="http://www.w3.org/2000/svg" width="16" height="16" fill="none" viewBox="0 0 16 16"><path fill="#000" fill-rule="evenodd" d="M7.0501 1.5863a.8.8 0 0 0-.8.8v1.9a.8.8 0 0 0 .8.8h1.9a.8.8 0 0 0 .8-.8v-1.9a.8.8 0 0 0-.8-.8zm-5.4637.8a.8.8 0 0 1 .8-.8h1.9a.8.8 0 0 1 .8.8v1.9a.8.8 0 0 1-.8.8h-1.9a.8.8 0 0 1-.8-.8zm9.3274 0a.8.8 0 0 1 .8-.8h1.9a.8.8 0 0 1 .8.8v1.9a.8.8 0 0 1-.8.8h-1.9a.8.8 0 0 1-.8-.8zM6.2501 7.05a.8.8 0 0 1 .8-.8h1.9a.8.8 0 0 1 .8.8v1.9a.8.8 0 0 1-.8.8h-1.9a.8.8 0 0 1-.8-.8zm-4.6637 0a.8.8 0 0 1 .8-.8h1.9a.8.8 0 0 1 .8.8v1.9a.8.8 0 0 1-.8.8h-1.9a.8.8 0 0 1-.8-.8zm10.1274-.8a.8.8 0 0 0-.8.8v1.9a.8.8 0 0 0 .8.8h1.9a.8.8 0 0 0 .8-.8v-1.9a.8.8 0 0 0-.8-.8zM1.5864 11.7137a.8.8 0 0 1 .8-.8h1.9a.8.8 0 0 1 .8.8v1.9a.8.8 0 0 1-.8.8h-1.9a.8.8 0 0 1-.8-.8zm5.4637-.8a.8.8 0 0 0-.8.8v1.9a.8.8 0 0 0 .8.8h1.9a.8.8 0 0 0 .8-.8v-1.9a.8.8 0 0 0-.8-.8zm3.8637.8a.8.8 0 0 1 .8-.8h1.9a.8.8 0 0 1 .8.8v1.9a.8.8 0 0 1-.8.8h-1.9a.8.8 0 0 1-.8-.8z"/></svg>