<svg width="16" height="16" viewBox="0 0 16 16" fill="none" xmlns="http://www.w3.org/2000/svg">
<path d="M8.64998 2.73313C8.64998 2.37414 8.35896 2.08313 7.99998 2.08313C7.64099 2.08313 7.34998 2.37414 7.34998 2.73313V11.6976L3.95825 8.30592C3.70441 8.05208 3.29285 8.05208 3.03901 8.30592C2.78517 8.55976 2.78517 8.97132 3.03901 9.22516L7.53691 13.7231C7.59291 13.7799 7.6593 13.8265 7.733 13.8597C7.81445 13.8965 7.90482 13.9169 7.99998 13.9169C8.09022 13.9169 8.17616 13.8985 8.25427 13.8653C8.32888 13.8336 8.39878 13.7874 8.45961 13.7265L12.961 9.22516C13.2148 8.97132 13.2148 8.55976 12.961 8.30592C12.7071 8.05208 12.2956 8.05208 12.0417 8.30592L8.64998 11.6977V2.73313Z" fill="black"/>
</svg>
