<svg width="16" height="16" viewBox="0 0 16 16" fill="none" xmlns="http://www.w3.org/2000/svg">
<path d="M6.45955 2.45972C6.7134 2.20588 6.7134 1.79432 6.45955 1.54048C6.20571 1.28664 5.79416 1.28664 5.54032 1.54048L2.20698 4.87381C1.95314 5.12765 1.95314 5.53921 2.20698 5.79305L5.54032 9.12638C5.79416 9.38022 6.20571 9.38022 6.45955 9.12638C6.7134 8.87254 6.7134 8.46099 6.45955 8.20714L4.23584 5.98343H7.99993C10.2183 5.98343 12.0166 7.78175 12.0166 10.0001V14.0001C12.0166 14.3591 12.3076 14.6501 12.6666 14.6501C13.0256 14.6501 13.3166 14.3591 13.3166 14.0001V10.0001C13.3166 7.06378 10.9362 4.68343 7.99993 4.68343H4.23584L6.45955 2.45972Z" fill="black"/>
</svg>
