<svg width="16" height="16" viewBox="0 0 16 16" fill="none" xmlns="http://www.w3.org/2000/svg">
<path d="M5.64034 9.69668C5.39016 9.95413 4.97864 9.96001 4.7212 9.70983C4.46375 9.45965 4.45786 9.04813 4.70805 8.79068L7.53035 5.88647C7.65263 5.76063 7.8206 5.68958 7.99607 5.68946C8.17153 5.68935 8.33959 5.76018 8.46204 5.88585L11.2918 8.79007C11.5423 9.04719 11.537 9.45871 11.2799 9.70923C11.0227 9.95975 10.6112 9.95441 10.3607 9.6973L7.99711 7.27151L5.64034 9.69668Z" fill="black"/>
<path fill-rule="evenodd" clip-rule="evenodd" d="M14.999 7.99998C14.999 4.13467 11.8655 1.00122 8.00023 1.00122C4.13492 1.00122 1.00146 4.13467 1.00146 7.99998C1.00146 11.8653 4.13492 14.9987 8.00023 14.9987C11.8655 14.9987 14.999 11.8653 14.999 7.99998ZM13.699 7.99998C13.699 4.85264 11.1476 2.30122 8.00023 2.30122C4.85289 2.30122 2.30146 4.85264 2.30146 7.99998C2.30146 11.1473 4.85289 13.6987 8.00023 13.6987C11.1476 13.6987 13.699 11.1473 13.699 7.99998Z" fill="black"/>
</svg>
