<svg width="16" height="16" viewBox="0 0 16 16" fill="none" xmlns="http://www.w3.org/2000/svg">
<path d="M7.35001 13.2669C7.35001 13.6259 7.64102 13.9169 8.00001 13.9169C8.35899 13.9169 8.65001 13.6259 8.65001 13.2669L8.65001 4.30239L12.0417 7.69412C12.2956 7.94796 12.7071 7.94796 12.961 7.69412C13.2148 7.44028 13.2148 7.02872 12.961 6.77488L8.46304 2.27695C8.40704 2.22012 8.34067 2.17355 8.26698 2.14031C8.18554 2.10358 8.09516 2.08313 8.00001 2.08313C7.91047 2.08313 7.82516 2.10123 7.74754 2.13398C7.67224 2.16568 7.6017 2.21219 7.54037 2.27352L3.03901 6.77488C2.78517 7.02872 2.78517 7.44028 3.03901 7.69412C3.29285 7.94796 3.70441 7.94796 3.95825 7.69412L7.35001 4.30236L7.35001 13.2669Z" fill="black"/>
</svg>
