<svg xmlns="http://www.w3.org/2000/svg" width="16" height="16" fill="none" viewBox="0 0 16 16"><path fill="#000" fill-rule="evenodd" d="M8.0002 1.0012c3.8653 0 6.9988 3.1335 6.9988 6.9988s-3.1335 6.9987-6.9988 6.9987S1.0015 11.8653 1.0015 8s3.1334-6.9988 6.9987-6.9988m0 1.3c3.1474 0 5.6988 2.5514 5.6988 5.6988 0 3.1473-2.5514 5.6987-5.6988 5.6987-3.1473 0-5.6987-2.5514-5.6987-5.6987 0-3.1474 2.5514-5.6988 5.6987-5.6988m-3.279 7.4086a.65.65 0 0 0 .9191-.0131l2.3568-2.4252 2.3636 2.4258a.65.65 0 0 0 .9311-.9072L8.462 5.8859a.65.65 0 0 0-.9317.0006L4.708 8.7907a.65.65 0 0 0 .0132.9191"/></svg>