<svg xmlns="http://www.w3.org/2000/svg" width="16" height="16" fill="none" viewBox="0 0 16 16"><path fill="#000" d="M9.3752 1.7633c1.1307-1.1307 2.9638-1.1307 4.0944 0s1.1306 2.9637 0 4.0943l-5.125 5.1251c-.694.6939-1.819.6939-2.513 0-.6938-.6939-.6938-1.819 0-2.5129l4.2425-4.2424a.65.65 0 1 1 .9192.9193L6.7509 9.389a.4768.4768 0 1 0 .6744.6743l4.2424-4.2423.0032-.0032.8795-.8795c.6229-.623.6229-1.633 0-2.2559s-1.633-.623-2.2559 0L4.2156 8.7613c-1.0463 1.0464-1.0463 2.7428 0 3.7892 1.0464 1.0463 2.7428 1.0463 3.7892 0l5.1961-5.1961a.65.65 0 0 1 .9193.9192L8.924 13.4697c-1.554 1.5541-4.0736 1.5541-5.6276 0s-1.554-4.0736 0-5.6276z"/></svg>