<svg xmlns="http://www.w3.org/2000/svg" width="16" height="16" fill="none" viewBox="0 0 16 16"><path fill="#000" fill-rule="evenodd" d="M2.7884 2.4884q-.1807-.4826-.1015-1.0625.022-.1611-.0268-.3035a.655.655 0 0 0-.2582-.34q-.1233-.0848-.283-.107L2.1167.675q-.161-.022-.3035.0267a.655.655 0 0 0-.34.2583q-.0847.1234-.107.283l-.0003.0022a3.3 3.3 0 0 0-.0282.5822q.0272.6714.3314 1.3316.2152.467.5343.847.3543.422.8365.7363.561.3657 1.5991.9448.1806.1006.339.1908a5 5 0 0 1 .0523-.1511l.0001-.0003a5.3 5.3 0 0 1 .1814-.438v-.0002a5.4 5.4 0 0 1 .34-.6178 47 47 0 0 0-.2633-.1479q-.9981-.5567-1.5204-.8972-.7327-.4777-.9797-1.1371M8.236 1.818a3.4 3.4 0 0 1-.1195.655 5 5 0 0 0-.1612.072l-.0001.0001q-.6426.3003-1.2052.7714L5 3.3333q-.1585 0-.2897-.066a.64.64 0 0 1-.2944-.2943q-.066-.1312-.066-.2897t.066-.2896a.64.64 0 0 1 .2944-.2944q.1312-.066.2897-.066l1.8905-.0167a2.1 2.1 0 0 0 .0564-.5032 2 2 0 0 0-.0051-.1245q-.0114-.1581.0449-.2937A.64.64 0 0 1 7.259.7804q.126-.0752.2841-.0867t.2937.045a.64.64 0 0 1 .3148.2723q.0743.1244.0864.28l.0003.0041a3.4 3.4 0 0 1-.0024.523m3.2489 8.6289q-.5303.2196-1.1516.2196t-1.1516-.2196-.9697-.659q-.4395-.4394-.659-.9697-.2197-.5303-.2197-1.1517 0-.6212.2197-1.1516.2195-.5304.659-.9697.4393-.4393.9696-.659t1.1517-.2197 1.1516.2197.9697.659.659.9697.2197 1.1516q0 .6214-.2197 1.1517-.2196.5304-.659.9697t-.9697.659m-2.881-1.431V6.3173q0-.2692.1904-.4597.1904-.1903.4596-.1903h1.2391a.64.64 0 0 1 .2685.058.64.64 0 0 1 .2206.1638l.9199 1.051a.65.65 0 0 1 .1194.1995.65.65 0 0 1 .0415.2287V9.016q0 .2692-.1904.4596t-.4596.1904h-2.159q-.2692 0-.4596-.1904a.65.65 0 0 1-.1427-.2098l-.0001-.0003a.65.65 0 0 1-.0476-.2495M2.3586 5.85q.4508.2922 1.1632.6994-.7671.6577-.8395 1.3845a1.5 1.5 0 0 0-.006.0827h1.8888q.1566.0008.2864.066c.2152.105.3604.3247.3604.584v.0032q-.0007.1567-.066.2865c-.105.2151-.3247.3603-.584.3603h-1.386q.03.0305.0616.0597.3369.3114 1.3414.8401.3608.1899.5474.2932 1.5183.8403 1.9942 1.26.5636.497.935 1.4228.3405.8488.2317 1.5577l-.0004.0022q-.0248.1593-.1115.2811a.655.655 0 0 1-.3443.2527q-.1403.0456-.2974.0228l-.0065-.001-.0032-.0005q-.1587-.025-.2801-.1114a.655.655 0 0 1-.2527-.3442q-.0458-.1413-.0225-.2996l.0007-.0043q.0373-.243-.051-.5646H5q-.1585 0-.2897-.066a.64.64 0 0 1-.2944-.2944q-.066-.131-.066-.2896 0-.1584.066-.2897a.64.64 0 0 1 .2944-.2943q.1312-.066.2897-.066h1.1329q-.4323-.332-1.6523-1.0071a30 30 0 0 0-.5228-.2799q-1.1597-.6105-1.6253-1.0408-.3765-.3481-.611-.7744-.286-.52-.3602-1.1564a2.64 2.64 0 0 1-.016-.411q.0348-.882.6652-1.7406a5 5 0 0 1 .3481-.423m8.4042 2.516h-.859V6.9673h.2942l.2657.3036.2991.3417zm-7.4105 4.1807q-.6045-.3182-1.056-.6059-.5684.5701-.8012 1.2544-.2425.7125-.121 1.5487c.0371.2566.2124.4533.4404.5262q.1378.046.293.0242l.003-.0005c.2567-.0372.4534-.2125.5263-.4405q.0462-.1383.024-.294l-.0002-.0021q-.0614-.4226.0407-.801v-.0001q.1696-.6288.79-1.1361zm5.3175-.864Q9.4358 12 10.3333 12t1.6635-.3173l.0004-.0002.0001-.0001a4.12 4.12 0 0 0 .9094-.5231l1.3003 1.3003q.112.112.2515.1582a.64.64 0 0 0 .4163 0q.1393-.0462.2515-.1582.112-.112.1581-.2515a.64.64 0 0 0 0-.4163q-.046-.1394-.1581-.2514l-1.3003-1.3003a4.12 4.12 0 0 0 .5233-.91q.3173-.7659.3173-1.6635 0-.8974-.3173-1.6635-.3172-.766-.9519-1.4006-.6345-.6344-1.4004-.9518h-.0002q-.766-.3174-1.6635-.3174t-1.6635.3173-1.4006.952q-.3513.3512-.6054.7428-.117.1802-.2133.369a4 4 0 0 0-.133.2884l-.0002.0003-.1774.5295Q6 7.0706 6 7.6666q0 .8976.3174 1.6635.3172.766.9519 1.4007.6346.6345 1.4006.9519"/></svg>