<svg xmlns="http://www.w3.org/2000/svg" width="16" height="16" fill="none" viewBox="0 0 16 16"><path fill="#000" fill-rule="evenodd" d="M12.7637.9824a.651.651 0 0 1 .6504.6504v.9404h.9404a.651.651 0 0 1 .6504.6504.6507.6507 0 0 1-.6504.6504h-.9404v.9405a.6507.6507 0 0 1-.6504.6503.651.651 0 0 1-.6504-.6503V3.874h-.9404a.651.651 0 0 1-.6504-.6504.651.651 0 0 1 .6504-.6504h.9404v-.9404a.651.651 0 0 1 .6504-.6504M10.2061 5.666c-.0002-2.5072-2.0329-4.5408-4.54-4.541-2.5074 0-4.541 2.0337-4.5411 4.541.0002 2.5073 2.0337 4.54 4.541 4.5401a4.53 4.53 0 0 0 1.4404-.2354l1.0215 1.0215v1.6758c0 .3588.2907.6501.6494.6504h1.0489l.2666 1.0634a.6495.6495 0 0 0 .6299.4922h3.5009a.6507.6507 0 0 0 .6504-.6504v-2.334a.65.65 0 0 0-.1904-.4589l-4.624-4.624a4.55 4.55 0 0 0 .1465-1.1407m-7.7803 0C2.426 3.8767 3.8767 2.4258 5.666 2.4258c1.7892.0002 3.24 1.451 3.2403 3.2402a3.24 3.24 0 0 1-.1934 1.1026l-.1406.3886 5.0019 5.002v1.415h-2.3437l-.2657-1.0635a.652.652 0 0 0-.5214-.4834l-.1094-.0097h-.9063v-1.2949a.65.65 0 0 0-.1904-.459L7.7266 8.752l-.3184-.3174-.4092.1855a3.23 3.23 0 0 1-1.333.2861c-1.7893 0-3.24-1.4509-3.2402-3.2402m2.461-1.5566a.7786.7786 0 0 1 .7782.7783.7785.7785 0 0 1-.7783.7783c-.4295-.0002-.7773-.3488-.7773-.7783s.3479-.7781.7773-.7783"/></svg>