<svg width="16" height="16" viewBox="0 0 16 16" fill="none" xmlns="http://www.w3.org/2000/svg">
<path d="M4.88672 4.10938C5.31638 4.10938 5.66497 4.45805 5.66504 4.8877C5.66504 5.3174 5.31642 5.66602 4.88672 5.66602C4.45722 5.66578 4.10938 5.31725 4.10938 4.8877C4.10944 4.4582 4.45726 4.10961 4.88672 4.10938Z" fill="black"/>
<path fill-rule="evenodd" clip-rule="evenodd" d="M5.66602 1.125C8.1732 1.12522 10.2059 3.15882 10.2061 5.66602C10.206 6.05934 10.1541 6.44164 10.0596 6.80664L14.6836 11.4307C14.8053 11.5524 14.8739 11.7175 14.874 11.8896V14.2236C14.874 14.5826 14.5826 14.874 14.2236 14.874H10.7227C10.4246 14.8739 10.1652 14.671 10.0928 14.3818L9.82617 13.3184H8.77734C8.4186 13.3181 8.12793 13.0268 8.12793 12.668V10.9922L7.10645 9.9707C6.65314 10.1224 6.16889 10.206 5.66602 10.2061C3.15871 10.206 1.12522 8.17328 1.125 5.66602C1.12519 3.15872 3.15869 1.12505 5.66602 1.125ZM5.66602 2.42578C3.87666 2.42584 2.42597 3.87669 2.42578 5.66602C2.426 7.45531 3.87668 8.9062 5.66602 8.90625C6.14244 8.90619 6.59332 8.80356 6.99902 8.62012L7.4082 8.43457L7.72656 8.75195L9.2373 10.2637C9.35897 10.3854 9.42758 10.5505 9.42773 10.7227V12.0176H10.334L10.4434 12.0273C10.6939 12.0701 10.9014 12.2576 10.9648 12.5107L11.2305 13.5742H13.5742V12.1592L8.57227 7.15723L8.71289 6.76855C8.83713 6.42529 8.9062 6.05427 8.90625 5.66602C8.90606 3.87679 7.45523 2.426 5.66602 2.42578Z" fill="black"/>
<path d="M12.7637 0.982422C13.1226 0.982422 13.414 1.27386 13.4141 1.63281V2.57324H14.3545C14.7134 2.57324 15.0047 2.86478 15.0049 3.22363C15.0049 3.58262 14.7135 3.87402 14.3545 3.87402H13.4141V4.81445C13.4141 5.17344 13.1227 5.46484 12.7637 5.46484C12.4049 5.46461 12.1133 5.17329 12.1133 4.81445V3.87402H11.1729C10.814 3.8739 10.5225 3.58254 10.5225 3.22363C10.5226 2.86485 10.8141 2.57336 11.1729 2.57324H12.1133V1.63281C12.1133 1.27401 12.4049 0.982658 12.7637 0.982422Z" fill="black"/>
</svg>
