<svg xmlns="http://www.w3.org/2000/svg" width="16" height="16" fill="none" viewBox="0 0 16 16"><path fill="#000" fill-rule="evenodd" d="M2.365 2.3669v1.4367c1.274-1.693 3.301-2.789 5.5847-2.789 3.8579 0 6.9853 3.1275 6.9853 6.9854s-3.1274 6.9853-6.9853 6.9853c-3.302 0-6.0675-2.2905-6.7972-5.3686a.65.65 0 1 1 1.265-.2998c.5938 2.5052 2.8462 4.3684 5.5322 4.3684 3.1399 0 5.6853-2.5454 5.6853-5.6853 0-3.14-2.5454-5.6853-5.6853-5.6853-1.9387 0-3.6517.9703-4.6784 2.4537h1.349a.65.65 0 0 1 0 1.3H1.715a.65.65 0 0 1-.65-.65V2.3668a.65.65 0 0 1 1.3 0m6.2336 3.0515a.65.65 0 0 0-1.3 0v2.6052a.65.65 0 0 0 .434.613l2.4617.8671a.65.65 0 0 0 .4319-1.2262l-2.0276-.7141z"/></svg>