<svg width="16" height="16" viewBox="0 0 16 16" fill="none" xmlns="http://www.w3.org/2000/svg">
<path d="M2.36494 3.80359V2.36686C2.36494 2.00787 2.07393 1.71686 1.71494 1.71686C1.35596 1.71686 1.06494 2.00787 1.06494 2.36686V5.41837C1.06494 5.77735 1.35596 6.06837 1.71494 6.06837H4.62038C4.97937 6.06837 5.27038 5.77735 5.27038 5.41837C5.27038 5.05938 4.97937 4.76837 4.62038 4.76837H3.27134C4.29796 3.28501 6.01097 2.31465 7.94968 2.31465C11.0896 2.31465 13.635 4.86006 13.635 7.99998C13.635 11.1399 11.0896 13.6853 7.94968 13.6853C5.26371 13.6853 3.01134 11.8221 2.41748 9.31687C2.33468 8.96757 1.98439 8.75152 1.63508 8.83432C1.28578 8.91713 1.06973 9.26742 1.15254 9.61672C1.88219 12.6948 4.64765 14.9853 7.94968 14.9853C11.8076 14.9853 14.935 11.8579 14.935 7.99998C14.935 4.14209 11.8076 1.01465 7.94968 1.01465C5.66597 1.01465 3.63908 2.11058 2.36494 3.80359Z" fill="black"/>
<path d="M7.94858 4.76837C8.30757 4.76837 8.59858 5.05939 8.59858 5.41837V7.56336L10.6262 8.27754C10.9648 8.3968 11.1426 8.76797 11.0234 9.10656C10.9041 9.44516 10.5329 9.62296 10.1943 9.5037L7.73264 8.63664C7.47256 8.54504 7.29858 8.2993 7.29858 8.02356V5.41837C7.29858 5.05939 7.5896 4.76837 7.94858 4.76837Z" fill="black"/>
</svg>
