<svg xmlns="http://www.w3.org/2000/svg" width="16" height="16" fill="none" viewBox="0 0 16 16"><path fill="#000" fill-rule="evenodd" d="M4.5569 3.885a1.65 1.65 0 0 1 1.2163-.535H13c.9112 0 1.65.7387 1.65 1.65v6c0 .9113-.7388 1.65-1.65 1.65H5.7732a1.65 1.65 0 0 1-1.2163-.5351L1.559 8.8446a1.25 1.25 0 0 1 0-1.6893zm1.2163.765a.35.35 0 0 0-.258.1135L2.5484 8l2.9668 3.2365a.35.35 0 0 0 .258.1135H13a.35.35 0 0 0 .35-.35V5a.35.35 0 0 0-.35-.35zm2.3554 1.557a.65.65 0 0 0-.9193.9193L8.0831 8l-.8737.8737a.65.65 0 0 0 .9192.9193l.8737-.8737.8493.8492a.65.65 0 1 0 .9192-.9192L9.9216 8l.8737-.8737a.65.65 0 0 0-.9192-.9193l-.8738.8738z"/></svg>