<svg xmlns="http://www.w3.org/2000/svg" width="16" height="16" fill="none" viewBox="0 0 16 16"><path fill="#000" fill-rule="evenodd" d="M7.9498 2.3147c-1.9387 0-3.6517.9703-4.6783 2.4537h1.3489a.65.65 0 0 1 0 1.3H1.7149a.65.65 0 0 1-.65-.65V2.3669a.65.65 0 1 1 1.3 0v1.4369C3.6391 2.1106 5.666 1.0147 7.9498 1.0147c3.8579 0 6.9853 3.1274 6.9853 6.9853s-3.1274 6.9853-6.9853 6.9853c-3.302 0-6.0675-2.2905-6.7971-5.3686a.65.65 0 1 1 1.2649-.2998c.5939 2.5052 2.8462 4.3684 5.5322 4.3684 3.1399 0 5.6853-2.5454 5.6853-5.6853 0-3.14-2.5454-5.6853-5.6853-5.6853M6.8296 5.8754a.65.65 0 1 0-.9192.9192l1.2054 1.2055-1.2053 1.2052a.65.65 0 0 0 .9192.9193L8.035 8.9193l1.2053 1.2053a.65.65 0 0 0 .9192-.9192L8.9542 8l1.2055-1.2055a.65.65 0 0 0-.9193-.9192L8.035 7.0808z"/></svg>