<svg xmlns="http://www.w3.org/2000/svg" width="16" height="16" fill="none" viewBox="0 0 16 16"><path fill="#000" fill-rule="evenodd" d="M3 12h1v2c0 .5523.4477 1 1 1h6c.5523 0 1-.4477 1-1v-2h1c1.1046 0 2-.8954 2-2V3c0-1.1046-.8954-2-2-2H3c-1.1046 0-2 .8954-2 2v7c0 1.1046.8954 2 2 2m10-9.7H3a.7.7 0 0 0-.7.7v7a.7.7 0 0 0 .7.7h1V9.15h-.344a.65.65 0 0 1 0-1.3h8.6879a.65.65 0 1 1 0 1.3H12v1.55h1a.7.7 0 0 0 .7-.7V3a.7.7 0 0 0-.7-.7M3 4c0-.5523.4477-1 1-1h8c.5523 0 1 .4477 1 1v2c0 .5523-.4477 1-1 1H4c-.5523 0-1-.4477-1-1zm1.3 1.7V4.3h7.4v1.4zm1 3.45v4.55h1.05V9.15zm2.35 0h3.05v4.55H7.65z"/></svg>