<svg xmlns="http://www.w3.org/2000/svg" width="16" height="16" fill="none" viewBox="0 0 16 16"><path fill="#000" fill-rule="evenodd" d="M8.3606.7925a.65.65 0 0 0-.7211 0l-6 4A.65.65 0 0 0 2 5.9833h12a.65.65 0 0 0 .3606-1.1908zM8 2.1145l3.8532 2.5689H4.1468zM4.6667 6.6834a.65.65 0 0 1 .65.65V12a.65.65 0 1 1-1.3 0V7.3334a.65.65 0 0 1 .65-.65m7.3167.65a.65.65 0 1 0-1.3 0V12a.65.65 0 1 0 1.3 0zm-3.3334 0a.65.65 0 0 0-1.3 0V12a.65.65 0 1 0 1.3 0zM2.6667 13.35a.65.65 0 1 0 0 1.3h10.6667a.65.65 0 0 0 0-1.3z"/></svg>