<svg width="16" height="16" viewBox="0 0 16 16" fill="none" xmlns="http://www.w3.org/2000/svg">
<path fill-rule="evenodd" clip-rule="evenodd" d="M8.3607 0.792517C8.14237 0.646961 7.85793 0.646961 7.63959 0.792517L1.63959 4.79252C1.40127 4.9514 1.29503 5.24757 1.37804 5.52171C1.46104 5.79585 1.71371 5.98335 2.00015 5.98335H14.0001C14.2866 5.98335 14.5393 5.79585 14.6223 5.52171C14.7053 5.24757 14.599 4.9514 14.3607 4.79252L8.3607 0.792517ZM8.00015 2.11455L11.8533 4.68335H4.14695L8.00015 2.11455Z" fill="black"/>
<path d="M8.00015 6.68335C8.35913 6.68335 8.65015 6.97436 8.65015 7.33335V12C8.65015 12.359 8.35913 12.65 8.00015 12.65C7.64116 12.65 7.35015 12.359 7.35015 12V7.33335C7.35015 6.97436 7.64116 6.68335 8.00015 6.68335Z" fill="black"/>
<path d="M2.01681 14C2.01681 13.6411 2.30783 13.35 2.66681 13.35H13.3335C13.6925 13.35 13.9835 13.6411 13.9835 14C13.9835 14.359 13.6925 14.65 13.3335 14.65H2.66681C2.30783 14.65 2.01681 14.359 2.01681 14Z" fill="black"/>
<path d="M11.9835 7.33335C11.9835 6.97436 11.6925 6.68335 11.3335 6.68335C10.9745 6.68335 10.6835 6.97436 10.6835 7.33335V12C10.6835 12.359 10.9745 12.65 11.3335 12.65C11.6925 12.65 11.9835 12.359 11.9835 12V7.33335Z" fill="black"/>
<path d="M4.66681 6.68335C5.0258 6.68335 5.31681 6.97436 5.31681 7.33335V12C5.31681 12.359 5.0258 12.65 4.66681 12.65C4.30783 12.65 4.01681 12.359 4.01681 12V7.33335C4.01681 6.97436 4.30783 6.68335 4.66681 6.68335Z" fill="black"/>
</svg>
