<svg xmlns="http://www.w3.org/2000/svg" width="16" height="16" fill="none" viewBox="0 0 16 16"><path fill="#000" fill-rule="evenodd" d="M3.5 2.761c-1.3807 0-2.5 1.1193-2.5 2.5v5.478c0 1.3807 1.1193 2.5 2.5 2.5h9c1.3807 0 2.5-1.1193 2.5-2.5V5.261c0-1.3807-1.1193-2.5-2.5-2.5zm.3565 1.3H3.5c-.6627 0-1.2.5373-1.2 1.2v.3506h.0125c.8527 0 1.544-.6912 1.544-1.544zm1.3 0v.0066c0 1.5707-1.2733 2.844-2.844 2.844H2.3v2.1768h.0128c1.5707 0 2.844 1.2733 2.844 2.844v.0066h5.6864v-.0066c0-1.5707 1.2733-2.844 2.844-2.844H13.7V6.9116h-.0131c-1.5707 0-2.844-1.2733-2.844-2.844V4.061zm6.9864 0v.0066c0 .8528.6913 1.544 1.544 1.544H13.7V5.261c0-.6627-.5373-1.2-1.2-1.2zM9.7381 8c0 .96-.7783 1.7384-1.7384 1.7384S6.2614 8.96 6.2614 8s.7783-1.7384 1.7383-1.7384S9.7381 7.04 9.7381 8M2.3 10.739v-.3506h.0128c.8527 0 1.544.6912 1.544 1.544v.0066H3.5c-.6627 0-1.2-.5373-1.2-1.2m10.2 1.2h-.3568v-.0066c0-.8528.6913-1.544 1.544-1.544H13.7v.3506c0 .6627-.5373 1.2-1.2 1.2"/></svg>