<svg xmlns="http://www.w3.org/2000/svg" width="16" height="16" fill="none" viewBox="0 0 16 16"><path fill="#000" fill-rule="evenodd" d="M3.8625 14.11c0 .7179.582 1.3 1.3 1.3h5.6751c.718 0 1.3-.5821 1.3-1.3V3.1566c0-.718-.582-1.3-1.3-1.3h-.7423c-.112-.7177-.7329-1.2668-1.482-1.2668H7.3867c-.749 0-1.37.5491-1.482 1.2668h-.7422c-.718 0-1.3.582-1.3 1.3zm6.9751 0H5.1625V3.1566h5.6751zM8.1233 6.0244 6.3869 8.717c-.0915.1419.0104.3288.1793.3288h.6517a.2667.2667 0 0 1 .2666.2667v1.814c0 .2127.2773.2943.3926.1156l1.7363-2.6927c.0915-.142-.0104-.329-.1792-.329h-.6517a.2667.2667 0 0 1-.2667-.2666V6.14c0-.2127-.2773-.2943-.3925-.1155"/></svg>