<svg width="16" height="16" viewBox="0 0 16 16" fill="none" xmlns="http://www.w3.org/2000/svg">
<path fill-rule="evenodd" clip-rule="evenodd" d="M7.39478 7.26008C7.6363 7.46806 7.84317 7.6746 8.00022 7.8419C8.15727 7.6746 8.36414 7.46806 8.60566 7.26008C9.12919 6.80924 9.96129 6.22192 10.8659 6.22192C12.1977 6.22192 13.2773 7.30154 13.2773 8.63333C13.2773 9.96511 12.1977 11.0447 10.8659 11.0447C10.4006 11.0447 9.96454 10.8875 9.59843 10.6944C9.22835 10.4993 8.89092 10.2467 8.6119 10.0073C8.36784 9.79787 8.1586 9.58989 8.00022 9.42211C7.84184 9.58989 7.6326 9.79787 7.38854 10.0073C7.10952 10.2467 6.77209 10.4993 6.40201 10.6944C6.0359 10.8875 5.59981 11.0447 5.13455 11.0447C3.80277 11.0447 2.72314 9.96511 2.72314 8.63333C2.72314 7.30154 3.80277 6.22192 5.13455 6.22192C6.03915 6.22192 6.87125 6.80924 7.39478 7.26008ZM5.13455 7.52192C4.52074 7.52192 4.02314 8.01951 4.02314 8.63333C4.02314 9.24714 4.52074 9.74474 5.13455 9.74474C5.31279 9.74474 5.53547 9.68175 5.79554 9.54458C6.05164 9.40951 6.30781 9.22167 6.54195 9.02075C6.69808 8.88677 6.83871 8.75192 6.95672 8.6317C6.84003 8.51216 6.70101 8.37823 6.54649 8.24516C6.0473 7.81529 5.53133 7.52192 5.13455 7.52192ZM10.8659 7.52192C11.4797 7.52192 11.9773 8.01951 11.9773 8.63333C11.9773 9.24714 11.4797 9.74474 10.8659 9.74474C10.6876 9.74474 10.465 9.68175 10.2049 9.54458C9.9488 9.40951 9.69263 9.22167 9.45849 9.02075C9.30236 8.88677 9.16173 8.75192 9.04372 8.6317C9.16041 8.51216 9.29943 8.37823 9.45395 8.24516C9.95314 7.81529 10.4691 7.52192 10.8659 7.52192Z" fill="black"/>
<path d="M10.866 12.3447L10.8378 12.3446V14.11H5.16267L5.16267 12.3446L5.13463 12.3447C4.6878 12.3447 4.25942 12.2658 3.86267 12.121L3.86267 14.11C3.86267 14.828 4.4447 15.41 5.16267 15.41H10.8378C11.5558 15.41 12.1378 14.828 12.1378 14.11L12.1378 12.1211C11.7411 12.2658 11.3128 12.3447 10.866 12.3447Z" fill="black"/>
<path d="M5.13463 4.92191C4.6878 4.92191 4.25942 5.00087 3.86267 5.1456L3.86267 3.15662C3.86267 2.43865 4.4447 1.85662 5.16267 1.85662H5.90494C6.01697 1.13896 6.63782 0.589844 7.38691 0.589844L8.61352 0.589844C9.36262 0.589844 9.98346 1.13896 10.0955 1.85662H10.8378C11.5558 1.85662 12.1378 2.43865 12.1378 3.15662L12.1378 5.14557C11.7411 5.00086 11.3128 4.92191 10.866 4.92191L10.8378 4.92202L10.8378 3.15662L5.16267 3.15662V4.92202L5.13463 4.92191Z" fill="black"/>
</svg>
