<svg width="16" height="16" viewBox="0 0 16 16" fill="none" xmlns="http://www.w3.org/2000/svg">
<path d="M6.38675 8.71712L8.12306 6.02442C8.23834 5.84564 8.51561 5.92728 8.51561 6.14001L8.51561 7.95398C8.51561 8.10126 8.635 8.22065 8.78228 8.22065H9.43397C9.60285 8.22065 9.70475 8.40759 9.61322 8.54953L7.87691 11.2422C7.76163 11.421 7.48436 11.3394 7.48436 11.1266V9.31267C7.48436 9.16539 7.36497 9.046 7.2177 9.046H6.56601C6.39713 9.046 6.29523 8.85906 6.38675 8.71712Z" fill="black"/>
<path fill-rule="evenodd" clip-rule="evenodd" d="M5.16231 15.41C4.44433 15.41 3.86231 14.828 3.86231 14.11L3.8623 3.15662C3.8623 2.43865 4.44433 1.85662 5.1623 1.85662H5.90457C6.0166 1.13896 6.63745 0.589844 7.38655 0.589844L8.61315 0.589844C9.36225 0.589844 9.9831 1.13896 10.0951 1.85662H10.8375C11.5554 1.85662 12.1375 2.43865 12.1375 3.15662L12.1375 14.11C12.1375 14.828 11.5554 15.41 10.8375 15.41L5.16231 15.41ZM5.16231 14.11L10.8375 14.11L10.8375 3.15662L5.1623 3.15662L5.16231 14.11Z" fill="black"/>
</svg>
