<svg width="16" height="16" viewBox="0 0 16 16" fill="none" xmlns="http://www.w3.org/2000/svg">
<path d="M6.38675 8.71725L8.12306 6.02454C8.23834 5.84576 8.51561 5.92741 8.51561 6.14013L8.51561 7.9541C8.51561 8.10138 8.635 8.22077 8.78228 8.22077H9.43397C9.60285 8.22077 9.70475 8.40772 9.61322 8.54965L7.87691 11.2424C7.76163 11.4211 7.48436 11.3395 7.48436 11.1268V9.31279C7.48436 9.16552 7.36497 9.04613 7.2177 9.04613H6.56601C6.39713 9.04613 6.29523 8.85918 6.38675 8.71725Z" fill="black"/>
<path fill-rule="evenodd" clip-rule="evenodd" d="M5.16231 15.4102C4.44433 15.4102 3.86231 14.8281 3.86231 14.1102L3.8623 3.15675C3.8623 2.43878 4.44433 1.85675 5.1623 1.85675H5.90457C6.0166 1.13908 6.63745 0.589966 7.38655 0.589966L8.61315 0.589966C9.36225 0.589966 9.9831 1.13908 10.0951 1.85675H10.8375C11.5554 1.85675 12.1375 2.43878 12.1375 3.15675L12.1375 14.1102C12.1375 14.8281 11.5554 15.4102 10.8375 15.4102H5.16231ZM5.16231 14.1102H10.8375L10.8375 3.15675L5.1623 3.15675L5.16231 14.1102Z" fill="black"/>
</svg>
