<svg width="16" height="16" viewBox="0 0 16 16" fill="none" xmlns="http://www.w3.org/2000/svg">
<path d="M8.72383 11.1679C8.72383 11.5678 8.39963 11.892 7.99971 11.892C7.59979 11.892 7.27559 11.5678 7.27559 11.1679C7.27559 10.768 7.59979 10.4438 7.99971 10.4438C8.39963 10.4438 8.72383 10.768 8.72383 11.1679Z" fill="black"/>
<path d="M7.20147 6.82316C7.20147 6.38962 7.56412 6.02492 8.01233 6.02492C8.44672 6.02492 8.79795 6.37841 8.79795 6.79813V7.01366C8.79795 7.24179 8.64268 7.44066 8.42136 7.49599C7.79154 7.65344 7.34971 8.21933 7.34971 8.86853V9.35759C7.34971 9.71657 7.64072 10.0076 7.99971 10.0076C8.35869 10.0076 8.64971 9.71657 8.64971 9.35759L8.64971 8.86853C8.64971 8.81586 8.68555 8.76995 8.73665 8.75717C9.5367 8.55716 10.0979 7.83832 10.0979 7.01366V6.79813C10.0979 5.64582 9.14998 4.72492 8.01233 4.72492C6.86086 4.72492 5.90147 5.65702 5.90147 6.82316C5.90147 7.18215 6.19248 7.47316 6.55147 7.47316C6.91045 7.47316 7.20147 7.18215 7.20147 6.82316Z" fill="black"/>
<path fill-rule="evenodd" clip-rule="evenodd" d="M3.86231 14.1102C3.86231 14.8281 4.44433 15.4102 5.16231 15.4102L10.8375 15.4102C11.5554 15.4102 12.1375 14.8281 12.1375 14.1102L12.1375 3.15675C12.1375 2.43878 11.5554 1.85675 10.8375 1.85675H10.095C9.98297 1.13908 9.36213 0.589966 8.61303 0.589966L7.38643 0.589966C6.63733 0.589966 6.01648 1.13908 5.90445 1.85675H5.1623C4.44433 1.85675 3.8623 2.43878 3.8623 3.15675L3.86231 14.1102ZM5.16231 14.1102L5.1623 3.15675L10.8375 3.15675L10.8375 14.1102L5.16231 14.1102Z" fill="black"/>
</svg>
