<svg width="16" height="16" viewBox="0 0 16 16" fill="none" xmlns="http://www.w3.org/2000/svg">
<path d="M7.02727 8.63345C7.02727 8.09622 7.46278 7.66072 8 7.66072C8.53723 7.66072 8.97273 8.09622 8.97273 8.63345C8.97273 8.99243 9.26375 9.28345 9.62273 9.28345C9.98172 9.28345 10.2727 8.99243 10.2727 8.63345C10.2727 7.37825 9.2552 6.36072 8 6.36072C6.74481 6.36072 5.72727 7.37825 5.72727 8.63345C5.72727 9.88864 6.74481 10.9062 8 10.9062C8.35899 10.9062 8.65 10.6152 8.65 10.2562C8.65 9.89719 8.35899 9.60618 8 9.60618C7.46278 9.60618 7.02727 9.17067 7.02727 8.63345Z" fill="black"/>
<path fill-rule="evenodd" clip-rule="evenodd" d="M5.16231 15.4102C4.44433 15.4102 3.86231 14.8281 3.86231 14.1102L3.8623 3.15675C3.8623 2.43878 4.44433 1.85675 5.1623 1.85675H5.90457C6.0166 1.13908 6.63745 0.589966 7.38655 0.589966L8.61315 0.589966C9.36225 0.589966 9.9831 1.13908 10.0951 1.85675H10.8375C11.5554 1.85675 12.1375 2.43878 12.1375 3.15675L12.1375 14.1102C12.1375 14.8281 11.5554 15.4102 10.8375 15.4102L5.16231 15.4102ZM5.16231 14.1102L10.8375 14.1102L10.8375 3.15675L5.1623 3.15675L5.16231 14.1102Z" fill="black"/>
</svg>
