<svg xmlns="http://www.w3.org/2000/svg" width="16" height="16" fill="none" viewBox="0 0 16 16"><path fill="#000" fill-rule="evenodd" d="M3.8624 14.1101c0 .718.582 1.3 1.3 1.3h5.6752c.718 0 1.3-.582 1.3-1.3V3.1567c0-.718-.582-1.3-1.3-1.3h-.7424C9.9832 1.139 9.3624.5899 8.6132.5899H7.3868c-.7491 0-1.37.5491-1.482 1.2668h-.7423c-.718 0-1.3.582-1.3 1.3zm6.9752 0H5.1624V3.1567h5.6752zM8.0001 7.6607c-.5372 0-.9727.4355-.9727.9727s.4355.9727.9727.9727a.65.65 0 1 1 0 1.3c-1.2552 0-2.2727-1.0175-2.2727-2.2727S6.7449 6.3607 8 6.3607s2.2727 1.0175 2.2727 2.2727a.65.65 0 1 1-1.3 0A.9726.9726 0 0 0 8 7.6607"/></svg>