<svg width="16" height="16" viewBox="0 0 16 16" fill="none" xmlns="http://www.w3.org/2000/svg">
<path fill-rule="evenodd" clip-rule="evenodd" d="M7.39478 7.2602C7.6363 7.46818 7.84317 7.67472 8.00022 7.84203C8.15727 7.67472 8.36414 7.46818 8.60566 7.2602C9.12919 6.80937 9.96129 6.22204 10.8659 6.22204C12.1977 6.22204 13.2773 7.30166 13.2773 8.63345C13.2773 9.96523 12.1977 11.0449 10.8659 11.0449C10.4006 11.0449 9.96454 10.8877 9.59843 10.6946C9.22835 10.4994 8.89092 10.2469 8.6119 10.0074C8.36784 9.798 8.1586 9.59001 8.00022 9.42223C7.84184 9.59001 7.6326 9.798 7.38854 10.0074C7.10952 10.2469 6.77209 10.4994 6.40201 10.6946C6.0359 10.8877 5.59981 11.0449 5.13455 11.0449C3.80277 11.0449 2.72314 9.96523 2.72314 8.63345C2.72314 7.30166 3.80277 6.22204 5.13455 6.22204C6.03915 6.22204 6.87125 6.80937 7.39478 7.2602ZM5.13455 7.52204C4.52074 7.52204 4.02314 8.01963 4.02314 8.63345C4.02314 9.24726 4.52074 9.74486 5.13455 9.74486C5.31279 9.74486 5.53547 9.68187 5.79554 9.5447C6.05164 9.40963 6.30781 9.2218 6.54195 9.02087C6.69808 8.88689 6.83871 8.75204 6.95672 8.63182C6.84003 8.51228 6.70101 8.37835 6.54649 8.24529C6.0473 7.81542 5.53133 7.52204 5.13455 7.52204ZM10.8659 7.52204C11.4797 7.52204 11.9773 8.01963 11.9773 8.63345C11.9773 9.24726 11.4797 9.74486 10.8659 9.74486C10.6876 9.74486 10.465 9.68187 10.2049 9.5447C9.9488 9.40963 9.69263 9.2218 9.45849 9.02087C9.30236 8.88689 9.16173 8.75204 9.04372 8.63182C9.16041 8.51228 9.29943 8.37835 9.45395 8.24529C9.95314 7.81542 10.4691 7.52204 10.8659 7.52204Z" fill="black"/>
<path d="M10.866 12.3448L10.8378 12.3447V14.1102L5.16267 14.1102L5.16267 12.3447L5.13463 12.3448C4.6878 12.3448 4.25942 12.2659 3.86267 12.1212L3.86267 14.1102C3.86267 14.8281 4.4447 15.4102 5.16267 15.4102L10.8378 15.4102C11.5558 15.4102 12.1378 14.8281 12.1378 14.1102L12.1378 12.1212C11.7411 12.2659 11.3128 12.3448 10.866 12.3448Z" fill="black"/>
<path d="M5.13463 4.92203C4.6878 4.92203 4.25942 5.00099 3.86267 5.14572L3.86267 3.15675C3.86267 2.43878 4.4447 1.85675 5.16267 1.85675H5.90494C6.01697 1.13908 6.63782 0.589966 7.38691 0.589966L8.61352 0.589966C9.36262 0.589966 9.98346 1.13908 10.0955 1.85675L10.8378 1.85675C11.5558 1.85675 12.1378 2.43878 12.1378 3.15675L12.1378 5.14569C11.7411 5.00098 11.3128 4.92203 10.866 4.92203L10.8378 4.92214L10.8378 3.15675L5.16267 3.15675L5.16267 4.92214L5.13463 4.92203Z" fill="black"/>
</svg>
