<svg xmlns="http://www.w3.org/2000/svg" width="16" height="16" fill="none" viewBox="0 0 16 16"><path fill="#000" fill-rule="evenodd" d="M1.9685 6.3322c-.5821-.524-.9493-1.2843-.9493-2.1307 0-1.5828 1.283-2.8658 2.8658-2.8658.8464 0 1.6067.3672 2.1307.9494A6.34 6.34 0 0 1 8 1.9688c.693 0 1.36.111 1.9843.3163.524-.5822 1.2843-.9494 2.1307-.9494 1.5828 0 2.8659 1.283 2.8659 2.8658 0 .8465-.3673 1.6067-.9495 2.1307a6.34 6.34 0 0 1 .3164 1.9843c0 3.5058-2.842 6.3478-6.3478 6.3478s-6.3478-2.842-6.3478-6.3478c0-.693.111-1.36.3163-1.9843m.3507-2.1307c0-.8648.701-1.5658 1.5658-1.5658.3082 0 .5958.089.8384.243A6.38 6.38 0 0 0 2.5622 5.04a1.56 1.56 0 0 1-.243-.8384m11.1186.8384a6.38 6.38 0 0 0-2.1612-2.1612 1.56 1.56 0 0 1 .8384-.243c.8648 0 1.5659.701 1.5659 1.5658 0 .3082-.089.5958-.2431.8384M8 3.2688c-2.7878 0-5.0478 2.26-5.0478 5.0477 0 2.7879 2.26 5.0478 5.0478 5.0478s5.0478-2.2599 5.0478-5.0478c0-2.7877-2.26-5.0477-5.0478-5.0477M6.1007 7.6835a.633.633 0 1 0 0-1.2662.633.633 0 0 0 0 1.2662m4.4317-.6331a.6331.6331 0 1 1-1.2662-.0001.6331.6331 0 0 1 1.2662 0M8 7.6666c-1.0582 0-1.9161.8579-1.9161 1.9161 0 1.0583.8579 1.9162 1.9161 1.9162 1.0583 0 1.9162-.8579 1.9162-1.9162S9.0583 7.6666 8 7.6666m-.616 1.9161a.6162.6162 0 1 1 1.2323 0 .6162.6162 0 0 1-1.2323 0"/></svg>