<svg width="16" height="16" viewBox="0 0 16 16" fill="none" xmlns="http://www.w3.org/2000/svg">
<path fill-rule="evenodd" clip-rule="evenodd" d="M8.00025 0.993652C8.35923 0.993668 8.65024 1.2847 8.65022 1.64368L8.65019 2.34107C11.0007 2.65843 12.8128 4.67267 12.8128 7.11015V11.5084H13.4787C13.8377 11.5084 14.1287 11.7994 14.1287 12.1584C14.1287 12.5174 13.8377 12.8084 13.4787 12.8084H2.52158C2.1626 12.8084 1.87158 12.5174 1.87158 12.1584C1.87158 11.7994 2.1626 11.5084 2.52158 11.5084H3.18756V7.11015C3.18756 4.67266 4.99966 2.6584 7.35019 2.34107L7.35022 1.64362C7.35024 1.28464 7.64126 0.993637 8.00025 0.993652ZM4.48756 7.11015C4.48756 5.17019 6.06021 3.59755 8.00017 3.59755C9.94013 3.59755 11.5128 5.17019 11.5128 7.11015V11.5084H4.48756V7.11015Z" fill="black"/>
<path d="M8.00015 15.0064C7.20117 15.0064 6.54635 14.3891 6.48655 13.6054H9.51376C9.45396 14.3891 8.79914 15.0064 8.00015 15.0064Z" fill="black"/>
</svg>
