<svg xmlns="http://www.w3.org/2000/svg" width="16" height="16" fill="none" viewBox="0 0 16 16"><path fill="#000" fill-rule="evenodd" d="M8.6502 1.6437a.65.65 0 1 0-1.3 0v.6974c-2.3505.3173-4.1626 2.3316-4.1626 4.769v4.3983h-.666a.65.65 0 1 0 0 1.3h10.9571a.65.65 0 1 0 0-1.3h-.6659V7.1102c0-2.4375-1.8121-4.4518-4.1626-4.7691zm-.65 1.9539c-1.94 0-3.5126 1.5726-3.5126 3.5126v4.3982h7.0252V7.1102c0-1.94-1.5727-3.5126-3.5126-3.5126M6.4865 13.6054c.0598.7837.7147 1.401 1.5137 1.401s1.4538-.6173 1.5136-1.401z"/></svg>