<svg xmlns="http://www.w3.org/2000/svg" width="16" height="16" fill="none" viewBox="0 0 16 16"><path fill="#000" fill-rule="evenodd" d="M9.9372 6.2687a2.972 2.972 0 0 0 .7129-1.9354c0-1.6476-1.3357-2.9833-2.9834-2.9833h-.3333c-1.8318 0-3.3167 1.485-3.3167 3.3167V14a.65.65 0 1 0 1.3 0v-2.0333a3.302 3.302 0 0 0 2.0167.6833h1.3333c1.8318 0 3.3167-1.4849 3.3167-3.3166 0-1.3817-.8449-2.5661-2.0462-3.0647M7.3334 2.65c-1.1138 0-2.0167.9029-2.0167 2.0167v4.6667c0 1.1137.903 2.0166 2.0167 2.0166h1.3333c1.1138 0 2.0167-.9029 2.0167-2.0166s-.9029-2.0167-2.0167-2.0167H7.3334a.65.65 0 0 1 0-1.3h.3333c.9297 0 1.6834-.7537 1.6834-1.6834S8.5964 2.65 7.6667 2.65z"/></svg>