<svg xmlns="http://www.w3.org/2000/svg" width="16" height="16" fill="none" viewBox="0 0 16 16"><path fill="#000" fill-rule="evenodd" d="m12.7317 3.8724-1.8133-1.8132c-.2573-.2574-.2573-.6619 0-.9193.2574-.2573.6619-.2573.9193 0l2.9226 2.9227q.1905.1904.1904.4596t-.1904.4596l-2.9226 2.9227c-.2574.2574-.6619.2574-.9193 0s-.2573-.6618 0-.9192l1.8129-1.8129h-5.838l-1.3-1.3zM1.1003 1.9922c.2573-.2574.6618-.2574.9192 0l11.9443 11.9443c.2574.2573.2574.6618 0 .9192s-.6619.2574-.9193 0l-2.7285-2.7286-7.0466.0006 1.812 1.812c.2574.2574.2574.6619 0 .9193-.2573.2574-.6618.2574-.9192 0l-2.9227-2.9227q-.1903-.1903-.1903-.4596t.1904-.4596l2.9226-2.9227c.2574-.2574.6619-.2574.9192 0 .2574.2574.2574.6619 0 .9192l-1.814 1.8141 5.7487-.0004-5.6549-5.6549H1.6266c-.364 0-.65-.286-.65-.65s.286-.65.65-.65h.4346l-.961-.961c-.2573-.2574-.2573-.6618 0-.9192m11.4475 8.8348 1.2999 1.2999.1775-.0001c.364 0 .6499-.286.6499-.65s-.286-.65-.65-.65z"/></svg>