<svg xmlns="http://www.w3.org/2000/svg" width="16" height="16" fill="none" viewBox="0 0 16 16"><path fill="#000" fill-rule="evenodd" d="M2.002 2.637A.6667.6667 0 0 1 2.668 2h2.1462c.6118 0 1.1451.4164 1.2935 1.01l.4482 1.793A1.333 1.333 0 0 1 6.2 6.0745l-1.3846 1.369c.4208.6822.9617 1.3893 1.6575 2.085a10.84 10.84 0 0 0 2.0898 1.634l.044-.044q.015.044.0324.0868.1446.359.442.6563l.138.138-.1382.1382q-.2744.2743-.4186.601a12 12 0 0 1-.2076-.1071.66.66 0 0 1-.1976-.1068 12.16 12.16 0 0 1-2.727-2.0536c-.9369-.9368-1.627-1.899-2.1346-2.8149-.7443-1.3432-1.093-2.5819-1.2554-3.4902-.0813-.4544-.1162-.8272-.1305-1.0907A6 6 0 0 1 2 2.7647a4 4 0 0 1 .0008-.088l.0007-.026.0003-.0084.0001-.003V2.638zl.666.0297-.5827-.026a4 4 0 0 0-.0833-.0037m6.8599 3.5582a.6666.6666 0 1 0 .9428.9428l2.8619-2.8619v1.0572a.6667.6667 0 0 0 1.3333 0V2.6667A.6667.6667 0 0 0 13.3333 2h-2.6667a.6667.6667 0 1 0 0 1.3333h1.0572zM3.3673 3.3333c.0178.1709.0447.3719.0852.5981.1092.6109.317 1.403.7107 2.2819l1.0992-1.087-.4482-1.793zm6.6446 7.5972 1.069 1.0691-1.0692 1.0692c-.2574.2574-.2574.6618 0 .9192s.6619.2574.9192 0l1.0693-1.0692 1.0687 1.0687c.2574.2574.6618.2574.9192 0s.2574-.6618 0-.9192l-1.0687-1.0687 1.0686-1.0686c.2573-.2574.2573-.6619 0-.9192-.2574-.2574-.6619-.2574-.9193 0l-1.0685 1.0685-1.0691-1.069c-.2574-.2574-.6619-.2574-.9192 0-.2574.2574-.2574.6618 0 .9192"/></svg>