<svg xmlns="http://www.w3.org/2000/svg" width="16" height="16" fill="none" viewBox="0 0 16 16"><path fill="#000" fill-rule="evenodd" d="M8 1C4.134 1 1 4.134 1 8s3.134 7 7 7 7-3.134 7-7-3.134-7-7-7m0 1.3q1.1805 0 2.1881.4174 1.0077.4173 1.8424 1.252a6.3 6.3 0 0 1 .4293.4744l-8.016 8.016a6.3 6.3 0 0 1-.4743-.4293q-.8348-.8347-1.2521-1.8424T2.3 8t.4174-2.1881q.4173-1.0077 1.252-1.8424.8349-.8348 1.8424-1.2521h.0001Q6.8196 2.3 8 2.3m1.6482 2.8595q.0434.105.0722.216L7.573 7.5228a1.6 1.6 0 0 1-.216-.0721q-.309-.1281-.565-.384-.2561-.256-.3841-.565t-.128-.6711.128-.6711.384-.565.565-.384.6711-.128.671.128.565.384.384.565m-1.6201.223a.45.45 0 0 0-.172.0328.45.45 0 0 0-.1448.0984.45.45 0 0 0-.0985.1448.45.45 0 0 0-.0328.172.45.45 0 0 0 .0328.172.45.45 0 0 0 .0984.145.45.45 0 0 0 .1449.0983.45.45 0 0 0 .172.0328.45.45 0 0 0 .172-.0328.45.45 0 0 0 .1448-.0984.45.45 0 0 0 .0985-.1448.45.45 0 0 0 .0328-.172.45.45 0 0 0-.0328-.172.45.45 0 0 0-.0984-.1449.45.45 0 0 0-.1448-.0984.45.45 0 0 0-.1721-.0328m2.5276 2.804 2.6185-2.6186a5 5 0 0 1 .1084.244Q13.7 6.8194 13.7 8t-.4174 2.1881v.0001q-.4174 1.0076-1.2521 1.8423t-1.8424 1.2521T8 13.7t-2.188-.4173l-.0002-.0001a5 5 0 0 1-.244-.1084l1.313-1.3129h3.1945q.279 0 .5172-.0986.2383-.0987.4356-.296.1973-.1974.296-.4356t.0987-.5173v-.6521q0-.4235-.1498-.785t-.4492-.661a2.2 2.2 0 0 0-.2681-.2293m-.9605.9605-1.4144 1.4143h1.8945a.05.05 0 0 0 .0182-.0034.05.05 0 0 0 .0153-.0105.05.05 0 0 0 .0105-.0153.05.05 0 0 0 .0035-.0183v-.6521a.74.74 0 0 0-.0546-.286.74.74 0 0 0-.1636-.2408.74.74 0 0 0-.2408-.1637.7.7 0 0 0-.0686-.0242M6.6784 7.8167h.6008l-2.6458 2.6458v-.6008q0-.4235.1498-.785t.4492-.661.661-.4493.785-.1497"/></svg>