<svg width="16" height="16" viewBox="0 0 16 16" fill="none" xmlns="http://www.w3.org/2000/svg">
<circle cx="7" cy="7" r="6.35" transform="matrix(-1 0 0 1 15 1.8501)" stroke="black" stroke-width="1.3"/>
<path d="M12.2769 4.57324L3.77958 13.0705" stroke="black" stroke-width="1.3" stroke-linecap="round" stroke-linejoin="round"/>
<path fill-rule="evenodd" clip-rule="evenodd" d="M1 8.8501C1 12.7161 4.13401 15.8501 8 15.8501C11.866 15.8501 15 12.7161 15 8.8501C15 4.9841 11.866 1.8501 8 1.8501C4.13401 1.8501 1 4.9841 1 8.8501ZM4.45525 13.3141C5.42833 14.0878 6.66018 14.5501 8 14.5501C11.148 14.5501 13.7 11.9981 13.7 8.8501C13.7 7.51028 13.2377 6.27843 12.464 5.30534L4.45525 13.3141ZM3.53601 12.3949L11.5448 4.3861C10.5717 3.61236 9.33982 3.1501 8 3.1501C4.85198 3.1501 2.3 5.70207 2.3 8.8501C2.3 10.1899 2.76227 11.4218 3.53601 12.3949Z" fill="black"/>
</svg>
