<svg xmlns="http://www.w3.org/2000/svg" width="16" height="16" fill="none" viewBox="0 0 16 16"><path fill="#000" fill-rule="evenodd" d="m10.9429 6 2.8619-2.862a.6666.6666 0 1 0-.9428-.9428l-2.8619 2.862V4a.6666.6666 0 1 0-1.3333 0v2.6666c0 .3682.2985.6667.6666.6667h2.6667a.6667.6667 0 1 0 0-1.3333zM2.0008 2.637A.6667.6667 0 0 1 2.6668 2H4.813c.6118 0 1.145.4164 1.2935 1.01l.4482 1.793a1.333 1.333 0 0 1-.356 1.2715L4.814 7.4435c.4209.6822.9618 1.3893 1.6575 2.085a10.84 10.84 0 0 0 2.0899 1.634l.045-.0449q.0152.0443.0327.0877.1446.359.442.6563l.138.138-.1383.1382q-.2745.2745-.4188.6015a12 12 0 0 1-.2086-.1076.66.66 0 0 1-.1976-.1068 12.16 12.16 0 0 1-2.727-2.0536c-.9369-.9368-1.627-1.899-2.1346-2.8149-.7443-1.3432-1.093-2.5819-1.2554-3.4902-.0813-.4544-.1162-.8272-.1306-1.0907a6 6 0 0 1-.0094-.3108q0-.0556.0008-.088l.0007-.026.0003-.0084v-.003l.0001-.0013zl.0822.0036a5 5 0 0 0-.0821-.0036m1.3653.6963c.0178.1709.0447.3719.0852.5981.1092.6109.317 1.403.7106 2.2819l1.0993-1.087-.4482-1.793zm7.6914 8.6663-1.0572-1.0572c-.264-.264-.264-.6789 0-.9428s.6788-.264.9428 0l1.0572 1.0572L13.0571 10c.264-.264.6788-.264.9428 0s.264.6788 0 .9428l-1.0568 1.0568 1.057 1.057c.264.264.264.6788 0 .9428s-.6788.264-.9428 0l-1.057-1.057-1.0574 1.0574c-.264.264-.6788.264-.9428 0s-.264-.6788 0-.9428z"/></svg>