<svg xmlns="http://www.w3.org/2000/svg" width="16" height="16" fill="none" viewBox="0 0 16 16"><path fill="#000" fill-rule="evenodd" d="M1 4.3125c0-1.1046.8954-2 2-2h10c1.1046 0 2 .8954 2 2v7.375c0 1.1046-.8954 2-2 2H3c-1.1046 0-2-.8954-2-2zm1.3.1595v7.2155a.7.7 0 0 0 .7.7h10a.7.7 0 0 0 .7-.7V4.472zm6.5417 1.3585a.333.333 0 0 0-.33-.2859h-1.006a.333.333 0 0 0-.3299.286l-.0877.6121a2.4 2.4 0 0 0-.5066.2814l-.6152-.2398a.333.333 0 0 0-.4064.1383l-.503.8331a.3333.3333 0 0 0 .0868.44l.512.38a2.2 2.2 0 0 0 .0001.5382l-.5118.38a.3333.3333 0 0 0-.0866.44l.503.833a.3334.3334 0 0 0 .4065.1383l.615-.24c.155.1128.325.2075.5062.2811l.0877.6123a.333.333 0 0 0 .33.286h1.006a.333.333 0 0 0 .3299-.2859l.088-.6124a2.4 2.4 0 0 0 .5062-.2811l.6151.24a.333.333 0 0 0 .4065-.1382l.503-.8331a.3334.3334 0 0 0-.0867-.44l-.5119-.3801a2.22 2.22 0 0 0 0-.538l.5123-.3801a.3333.3333 0 0 0 .0868-.44l-.503-.8331a.3334.3334 0 0 0-.4064-.1383l-.6154.2398a2.4 2.4 0 0 0-.5065-.2813zM8.0089 9.278a.7333.7333 0 1 0 0-1.4666.7333.7333 0 0 0 0 1.4666"/></svg>