<svg width="16" height="16" viewBox="0 0 16 16" fill="none" xmlns="http://www.w3.org/2000/svg">
<path fill-rule="evenodd" clip-rule="evenodd" d="M8.51171 5.54462C8.67748 5.54462 8.81806 5.66642 8.84165 5.8305L8.9297 6.44279C9.11105 6.51645 9.281 6.61125 9.43616 6.72409L10.0516 6.48427C10.2027 6.4254 10.3742 6.48377 10.458 6.62257L10.961 7.45567C11.0498 7.60277 11.0122 7.79328 10.8742 7.89566L10.3619 8.27572C10.3727 8.36398 10.3783 8.45369 10.3783 8.54454C10.3783 8.63553 10.3727 8.72539 10.3619 8.81378L10.8738 9.19396C11.0117 9.29637 11.0492 9.48681 10.9605 9.63386L10.4575 10.467C10.3737 10.6058 10.2021 10.6642 10.051 10.6052L9.43586 10.3652C9.28078 10.4779 9.11094 10.5727 8.92973 10.6463L8.84165 11.2587C8.81806 11.4228 8.67748 11.5446 8.51171 11.5446H7.50577C7.33995 11.5446 7.19934 11.4227 7.17581 11.2586L7.08806 10.6463C6.90681 10.5727 6.73695 10.478 6.58184 10.3652L5.96689 10.6052C5.81579 10.6641 5.64419 10.6058 5.56036 10.4669L5.05739 9.63381C4.96862 9.48676 5.00612 9.29633 5.14402 9.19392L5.65581 8.81387C5.64498 8.72545 5.63942 8.63556 5.63942 8.54454C5.63942 8.45366 5.64496 8.36391 5.65575 8.27563L5.14366 7.8957C5.00566 7.79332 4.9681 7.60282 5.05691 7.45572L5.55988 6.62262C5.64368 6.48382 5.8152 6.42545 5.96627 6.48431L6.58154 6.72406C6.73673 6.61121 6.90671 6.51641 7.08808 6.44274L7.17581 5.83066C7.19934 5.66651 7.33995 5.54462 7.50577 5.54462H8.51171ZM8.74225 8.54465C8.74225 8.94964 8.41394 9.27795 8.00894 9.27795C7.60395 9.27795 7.27563 8.94964 7.27563 8.54465C7.27563 8.13965 7.60395 7.81134 8.00894 7.81134C8.41394 7.81134 8.74225 8.13965 8.74225 8.54465Z" fill="black"/>
<path fill-rule="evenodd" clip-rule="evenodd" d="M3 2.3125C1.89543 2.3125 1 3.20793 1 4.3125V11.6875C1 12.7921 1.89543 13.6875 3 13.6875H13C14.1046 13.6875 15 12.7921 15 11.6875V4.3125C15 3.20793 14.1046 2.3125 13 2.3125H3ZM2.3 11.6875V4.472H13.7V11.6875C13.7 12.0741 13.3866 12.3875 13 12.3875H3C2.6134 12.3875 2.3 12.0741 2.3 11.6875Z" fill="black"/>
</svg>
