<svg width="16" height="16" viewBox="0 0 16 16" fill="none" xmlns="http://www.w3.org/2000/svg">
<path fill-rule="evenodd" clip-rule="evenodd" d="M8.0001 1.3501C5.43197 1.3501 3.3501 3.43197 3.3501 6.0001C3.3501 7.58419 4.14249 8.98256 5.3501 9.8215V10.6668C5.3501 11.3939 5.93959 11.9834 6.66676 11.9834H9.33343C10.0606 11.9834 10.6501 11.3939 10.6501 10.6668V9.8215C11.8577 8.98256 12.6501 7.58419 12.6501 6.0001C12.6501 3.43197 10.5682 1.3501 8.0001 1.3501ZM4.6501 6.0001C4.6501 4.14994 6.14994 2.6501 8.0001 2.6501C9.85025 2.6501 11.3501 4.14994 11.3501 6.0001C11.3501 7.23925 10.6776 8.32211 9.67463 8.90232C9.47378 9.01851 9.3501 9.23294 9.3501 9.46497V10.6668C9.3501 10.6703 9.34905 10.6731 9.34905 10.6731C9.34905 10.6731 9.3472 10.6766 9.34522 10.6785C9.34324 10.6805 9.33972 10.6824 9.33972 10.6824C9.33972 10.6824 9.33693 10.6834 9.33343 10.6834H6.66676C6.66326 10.6834 6.66048 10.6824 6.66048 10.6824C6.66048 10.6824 6.65696 10.6805 6.65498 10.6785C6.653 10.6766 6.65114 10.6731 6.65114 10.6731C6.65114 10.6731 6.6501 10.6703 6.6501 10.6668V9.46497C6.6501 9.23294 6.52641 9.01851 6.32557 8.90232C5.32256 8.32211 4.6501 7.23925 4.6501 6.0001Z" fill="black"/>
<path d="M6.66677 13.3501C6.30778 13.3501 6.01677 13.6411 6.01677 14.0001C6.01677 14.3591 6.30778 14.6501 6.66677 14.6501H9.33344C9.69242 14.6501 9.98344 14.3591 9.98344 14.0001C9.98344 13.6411 9.69242 13.3501 9.33344 13.3501H6.66677Z" fill="black"/>
</svg>
