<svg width="16" height="16" viewBox="0 0 16 16" fill="none" xmlns="http://www.w3.org/2000/svg">
<path fill-rule="evenodd" clip-rule="evenodd" d="M8.0001 1.3501C5.43197 1.3501 3.3501 3.43197 3.3501 6.0001C3.3501 7.58419 4.14249 8.98256 5.3501 9.8215V10.6668C5.3501 11.3939 5.93959 11.9834 6.66676 11.9834H9.33343C10.0606 11.9834 10.6501 11.3939 10.6501 10.6668V9.8215C11.8577 8.98256 12.6501 7.58419 12.6501 6.0001C12.6501 3.43197 10.5682 1.3501 8.0001 1.3501Z" fill="black"/>
<path d="M6.66677 13.3501C6.30778 13.3501 6.01677 13.6411 6.01677 14.0001C6.01677 14.3591 6.30778 14.6501 6.66677 14.6501H9.33344C9.69242 14.6501 9.98344 14.3591 9.98344 14.0001C9.98344 13.6411 9.69242 13.3501 9.33344 13.3501H6.66677Z" fill="black"/>
</svg>
