<svg xmlns="http://www.w3.org/2000/svg" width="16" height="16" fill="none" viewBox="0 0 16 16"><path fill="#000" fill-rule="evenodd" d="M3.35 6c0-2.5681 2.0819-4.65 4.65-4.65S12.65 3.4319 12.65 6c0 1.584-.7924 2.9824-2 3.8214v.8452c0 .7272-.5895 1.3167-1.3167 1.3167H6.6666c-.7271 0-1.3166-.5895-1.3166-1.3167v-.8452c-1.2076-.839-2-2.2373-2-3.8214M8 2.65C6.1498 2.65 4.65 4.1498 4.65 6c0 1.2391.6724 2.322 1.6755 2.9022a.65.65 0 0 1 .3245.5627v1.2017c0 .0035.001.0063.001.0063s.0019.0036.0039.0055c.002.002.0055.0039.0055.0039s.0027.001.0062.001h2.6667c.0035 0 .0063-.001.0063-.001s.0035-.0019.0055-.0039a.02.02 0 0 0 .0038-.0055s.001-.0028.001-.0063V9.4649a.65.65 0 0 1 .3246-.5627C10.6775 8.322 11.35 7.2392 11.35 6c0-1.8502-1.4999-3.35-3.35-3.35M6.0167 14a.65.65 0 0 1 .65-.65h2.6666a.65.65 0 1 1 0 1.3H6.6667a.65.65 0 0 1-.65-.65"/></svg>