<svg xmlns="http://www.w3.org/2000/svg" width="16" height="16" fill="none" viewBox="0 0 16 16"><path fill="#000" fill-rule="evenodd" d="M3.35 3.4c0-1.1322.9178-2.05 2.05-2.05h5.2c1.1322 0 2.05.9178 2.05 2.05v9.2c0 1.1322-.9178 2.05-2.05 2.05H5.4c-1.1322 0-2.05-.9178-2.05-2.05zm2.05-.75a.75.75 0 0 0-.75.75v9.2a.75.75 0 0 0 .75.75h5.2a.75.75 0 0 0 .75-.75V3.4a.75.75 0 0 0-.75-.75zM6.6667 4a.6667.6667 0 1 1-1.3334 0 .6667.6667 0 0 1 1.3334 0M8 4.6667a.6667.6667 0 1 0 0-1.3334.6667.6667 0 0 0 0 1.3334M10.6667 4a.6667.6667 0 1 1-1.3334 0 .6667.6667 0 0 1 1.3334 0M6 6.6667a.6667.6667 0 1 0 0-1.3334.6667.6667 0 0 0 0 1.3334M8.6667 6a.6667.6667 0 1 1-1.3334 0 .6667.6667 0 0 1 1.3334 0M10 6.6667a.6667.6667 0 1 0 0-1.3334.6667.6667 0 0 0 0 1.3334m-2 2a.6667.6667 0 1 0 0-1.3334.6667.6667 0 0 0 0 1.3334M10.6667 8a.6667.6667 0 1 1-1.3334 0 .6667.6667 0 0 1 1.3334 0M6.65 8a.65.65 0 0 0-1.3 0v1.3333a.65.65 0 1 0 1.3 0zm2.3293 1.0165a.65.65 0 0 1 .65.65v.6833h.6834a.6501.6501 0 0 1 0 1.3h-.6834v.6834a.65.65 0 1 1-1.3 0v-.6834H7.646a.65.65 0 1 1 0-1.3h.6833v-.6833a.65.65 0 0 1 .65-.65"/></svg>