<svg xmlns="http://www.w3.org/2000/svg" width="16" height="16" fill="none" viewBox="0 0 16 16"><path fill="#000" fill-rule="evenodd" d="M4.7192.991a.65.65 0 0 1 .65.65v.6293h5.2859V1.641a.65.65 0 0 1 1.3 0v.6292h.1962c1.3531 0 2.45 1.0969 2.45 2.45v7.8387c0 1.353-1.0969 2.45-2.45 2.45H3.8489c-1.353 0-2.45-1.097-2.45-2.45V4.7203c0-1.3531 1.097-2.45 2.45-2.45h.2202V1.641a.65.65 0 0 1 .65-.65M2.6988 4.7204c0-.6352.515-1.15 1.15-1.15h8.3024c.6351 0 1.15.5148 1.15 1.15v.8842H2.6989zm0 2.1842v5.6545c0 .6351.515 1.15 1.15 1.15h8.3024c.6351 0 1.15-.5149 1.15-1.15V6.9045zm1.6547 1.3692a.3.3 0 0 0-.3.3v.813a.3.3 0 0 0 .3.3h.813a.3.3 0 0 0 .3-.3v-.813a.3.3 0 0 0-.3-.3zm2.993.3a.3.3 0 0 1 .3-.3h.813a.3.3 0 0 1 .3.3v.813a.3.3 0 0 1-.3.3h-.813a.3.3 0 0 1-.3-.3zm3.2931 0a.3.3 0 0 1 .3-.3h.813a.3.3 0 0 1 .3.3v.813a.3.3 0 0 1-.3.3h-.813a.3.3 0 0 1-.3-.3zM4.0415 11.256a.3.3 0 0 1 .3-.3h.813a.3.3 0 0 1 .3.3v.813a.3.3 0 0 1-.3.3h-.813a.3.3 0 0 1-.3-.3zm3.5991-.2219a.3.3 0 0 0-.3.3v.813a.3.3 0 0 0 .3.3h.813a.3.3 0 0 0 .3-.3v-.813a.3.3 0 0 0-.3-.3z"/></svg>