<svg xmlns="http://www.w3.org/2000/svg" width="16" height="16" fill="none" viewBox="0 0 16 16"><path fill="#000" fill-rule="evenodd" d="M10.5434 1.321c-1.1874 0-2.15.9626-2.15 2.15v3.1667a.65.65 0 1 0 1.3 0V6.621h3.1834c1.1874 0 2.15-.9625 2.15-2.15v-1c0-1.1874-.9626-2.15-2.15-2.15zm-7.8755.6957a.65.65 0 0 0-.6493.621l.649.029-.649-.029v.001l-.0001.0013-.0001.003-.0003.0083-.0007.0258a4 4 0 0 0-.0008.0876c.0002.0739.0023.1783.0094.3099.0144.263.0492.635.1303 1.0887.1622.9069.5104 2.1437 1.2536 3.485.5069.9148 1.1961 1.8757 2.1318 2.8113a12.14 12.14 0 0 0 2.7246 2.0515.64.64 0 0 0 .1949.1053 12.3 12.3 0 0 0 2.2734.9239c.7476.2199 1.3874.3305 1.8443.3862.2286.0279.412.0421.5409.0493a5 5 0 0 0 .1946.0074l.013.0001.0044.0001h.0028a.65.65 0 0 0 .65-.65v-1.8859a1.65 1.65 0 0 0-1.2498-1.6008l-1.3599-.34a1.65 1.65 0 0 0-1.5669.434l-1.2428 1.2429a10.86 10.86 0 0 1-2.1043-1.6432c-.7005-.7006-1.2444-1.4127-1.6668-2.0993l1.259-1.2448a1.65 1.65 0 0 0 .4406-1.5735l-.3391-1.3563a1.65 1.65 0 0 0-1.6007-1.2498zm10.6667 11.9667c.0003-.0001 0-.0046 0-.65zM9.6934 3.471a.85.85 0 0 1 .85-.85h2.3334a.85.85 0 0 1 .85.85v1a.85.85 0 0 1-.85.85H9.6934zm-6.2574.4634a8.3 8.3 0 0 1-.0872-.6177h1.205a.35.35 0 0 1 .3396.2651l.3391 1.3563a.35.35 0 0 1-.0935.3338l-.9813.9702c-.4006-.889-.6113-1.6906-.7217-2.3077m7.6654 8.3587a11 11 0 0 1-1.3238-.4834l.9496-.9497a.35.35 0 0 1 .3324-.0921l1.3599.34a.35.35 0 0 1 .2651.3396v1.1821c-.3942-.0505-.9426-.1481-1.5832-.3365"/></svg>