<svg xmlns="http://www.w3.org/2000/svg" width="16" height="16" fill="none" viewBox="0 0 16 16"><path fill="#000" fill-rule="evenodd" d="M12.8739 2.207a.65.65 0 1 1 .9192.9192l-2.8904 2.8904h1.0974a.65.65 0 1 1 0 1.3H9.3335a.65.65 0 0 1-.65-.65V3.9999a.65.65 0 1 1 1.3 0v1.0975zm-10.8565.4307a.65.65 0 0 1 .6493-.6211h1.886a1.65 1.65 0 0 1 1.6007 1.2498l.339 1.3563a1.65 1.65 0 0 1-.4406 1.5735L4.7928 7.441c.4225.6866.9663 1.3987 1.667 2.0993a10.86 10.86 0 0 0 2.1042 1.6432l1.2428-1.2428a1.65 1.65 0 0 1 1.5669-.434l1.3599.34a1.65 1.65 0 0 1 1.2498 1.6007v1.8859a.65.65 0 0 1-.65.65v-.65c0 .65-.001.65-.0013.65h-.0016l-.0043-.0001-.013-.0001-.0431-.0009a5 5 0 0 1-.1516-.0065 8.4 8.4 0 0 1-.5409-.0493c-.4568-.0557-1.0966-.1663-1.8443-.3862a12.3 12.3 0 0 1-2.2733-.9239.64.64 0 0 1-.195-.1053 12.14 12.14 0 0 1-2.7245-2.0514c-.9357-.9357-1.625-1.8966-2.1318-2.8113-.7432-1.3414-1.0914-2.5782-1.2536-3.4851-.0811-.4536-.116-.8257-.1303-1.0887a6 6 0 0 1-.0094-.3099 4 4 0 0 1 .0008-.0876l.0007-.0258.0003-.0083v-.003l.0001-.0012zm1.3302.6789a8.3 8.3 0 0 0 .0872.6177c.1104.617.321 1.4187.7217 2.3077l.9813-.9702a.35.35 0 0 0 .0935-.3338l-.3391-1.3563a.35.35 0 0 0-.3395-.2651zm6.4288 8.493c.4674.2055.9139.3629 1.3238.4834.6405.1884 1.189.286 1.5832.3365v-1.1821a.35.35 0 0 0-.2651-.3396l-1.3599-.34a.35.35 0 0 0-.3324.0921zm-7.759-9.172.6493.029z"/></svg>