<svg xmlns="http://www.w3.org/2000/svg" width="16" height="16" fill="none" viewBox="0 0 16 16"><path fill="#000" fill-rule="evenodd" d="M2.0186 2.6377a.65.65 0 0 1 .6493-.6211h1.886a1.65 1.65 0 0 1 1.6007 1.2498l.339 1.3563a1.65 1.65 0 0 1-.4406 1.5735L4.794 7.4409c.4226.6867.9664 1.3988 1.667 2.0994a10.86 10.86 0 0 0 2.1042 1.6431L9.808 9.9406a1.65 1.65 0 0 1 1.5669-.434l1.3599.34a1.65 1.65 0 0 1 1.2498 1.6007v1.8859a.65.65 0 0 1-.65.65v-.65.65h-.0072l-.013-.0002-.0431-.0009a5 5 0 0 1-.1515-.0064 8.4 8.4 0 0 1-.5409-.0494c-.4569-.0557-1.0967-.1663-1.8443-.3862a12.3 12.3 0 0 1-2.2734-.9239.64.64 0 0 1-.195-.1053 12.14 12.14 0 0 1-2.7245-2.0514C4.606 9.5238 3.9167 8.563 3.41 7.6483 2.6666 6.3069 2.3185 5.07 2.1563 4.1632c-.0811-.4536-.1159-.8257-.1303-1.0887a6 6 0 0 1-.0094-.3099q0-.0556.0008-.0876l.0007-.0258.0003-.0083v-.003zl.6493.0289zm1.3302.6789a8.3 8.3 0 0 0 .0872.6177c.1104.617.321 1.4186.7218 2.3077l.9812-.9702a.35.35 0 0 0 .0935-.3338l-.339-1.3563a.35.35 0 0 0-.3396-.2651zm6.4288 8.4929c.4674.2055.914.3629 1.3238.4834.6406.1884 1.189.2861 1.5832.3365v-1.1821a.35.35 0 0 0-.2651-.3395l-1.3599-.34a.35.35 0 0 0-.3324.0921z"/></svg>