<svg width="16" height="16" viewBox="0 0 16 16" fill="none" xmlns="http://www.w3.org/2000/svg">
<path fill-rule="evenodd" clip-rule="evenodd" d="M2.66672 2.0166C2.31899 2.0166 2.03285 2.29028 2.01737 2.63767L2.66672 2.6666C2.01737 2.63767 2.01738 2.63743 2.01737 2.63767L2.01732 2.63867L2.01727 2.63987L2.01715 2.64286L2.01685 2.65117L2.01615 2.67704C2.01569 2.69834 2.01531 2.72768 2.01539 2.76463C2.01557 2.83852 2.01764 2.94295 2.02482 3.07449C2.03918 3.33746 2.07398 3.70957 2.15511 4.16318C2.31731 5.07008 2.66549 6.30693 3.40873 7.6483C3.91556 8.56301 4.60481 9.52389 5.54048 10.4596C6.43021 11.3493 7.365 12.0142 8.26504 12.511C8.32475 12.5581 8.39079 12.5932 8.45996 12.6163C9.27089 13.0449 10.0485 13.3388 10.7333 13.5402C11.481 13.7601 12.1208 13.8707 12.5776 13.9264C12.8063 13.9543 12.9896 13.9685 13.1185 13.9757C13.183 13.9794 13.2339 13.9812 13.2701 13.9822C13.2882 13.9827 13.3026 13.983 13.3132 13.9831L13.3262 13.9832L13.3305 13.9833L13.3321 13.9833C13.3324 13.9833 13.3334 13.9833 13.3334 13.3333V13.9833C13.6924 13.9833 13.9834 13.6923 13.9834 13.3333L13.9834 11.4474C13.9834 10.6903 13.4681 10.0303 12.7336 9.84664L11.3737 9.50666C10.8114 9.36609 10.2166 9.53084 9.80679 9.94067L8.56397 11.1835C7.86308 10.7638 7.14645 10.227 6.45971 9.54031C5.75914 8.83975 5.21533 8.12763 4.79286 7.44096L6.05182 6.1962C6.46633 5.78636 6.63384 5.18821 6.49246 4.6227L6.15339 3.26642C5.96976 2.53189 5.30979 2.0166 4.55266 2.0166H2.66672ZM3.4348 3.93429C3.3928 3.69949 3.3654 3.49177 3.3476 3.3166H4.55266C4.71326 3.3166 4.85325 3.4259 4.8922 3.58171L5.23127 4.93799C5.26126 5.05795 5.22573 5.18483 5.1378 5.27177L4.15653 6.24198C3.75587 5.35296 3.54517 4.55137 3.4348 3.93429ZM11.1002 12.293C10.6903 12.1725 10.2438 12.0151 9.77635 11.8096L10.726 10.8599C10.813 10.773 10.9391 10.738 11.0584 10.7678L12.4183 11.1078C12.5741 11.1468 12.6834 11.2868 12.6834 11.4474L12.6834 12.6295C12.2892 12.579 11.7407 12.4814 11.1002 12.293Z" fill="black"/>
<path d="M13.7931 3.12622C14.0469 2.87238 14.0469 2.46082 13.7931 2.20698C13.5393 1.95314 13.1277 1.95314 12.8739 2.20698L9.98347 5.09736V3.99994C9.98347 3.64095 9.69246 3.34994 9.33347 3.34994C8.97449 3.34994 8.68347 3.64095 8.68347 3.99994V6.6666C8.68347 7.02559 8.97449 7.3166 9.33347 7.3166H12.0001C12.3591 7.3166 12.6501 7.02559 12.6501 6.6666C12.6501 6.30762 12.3591 6.0166 12.0001 6.0166H10.9027L13.7931 3.12622Z" fill="black"/>
</svg>
