<svg xmlns="http://www.w3.org/2000/svg" width="16" height="16" fill="none" viewBox="0 0 16 16"><path fill="#000" fill-rule="evenodd" d="m9.5692 4.6833.2237-.2237c.2574-.2574.2574-.6619 0-.9193s-.6619-.2574-.9192 0L7.5404 4.8735v.0002c-.1835.1833-.2362.4414-.1582.6677q.046.1395.1581.2515l1.3333 1.3333c.2574.2574.6619.2574.9193 0s.2574-.6618 0-.9192l-.2237-.2237h2.764q.2106 0 .3903.0744.1798.0745.3286.2233.149.1489.2233.3287.0745.1797.0745.3902 0 .2106-.0745.3903-.0744.1797-.2233.3286-.1488.149-.3286.2233-.1797.0745-.3903.0745h-1c-.3639 0-.6499.286-.6499.65s.286.65.6499.65h1q.4798 0 .8894-.1696t.7488-.509.5088-.7488T14.6499 7t-.1697-.8893q-.1696-.4095-.5088-.7488t-.7488-.5089-.8894-.1696zM2.668 4a.6667.6667 0 0 0-.666.637c0-.0003.0043.0001.6646.0296l-.6646-.0297v.0023l-.0002.003-.0003.0084-.0007.0261A4 4 0 0 0 2 4.7647a6 6 0 0 0 .0095.3107c.0144.2636.0492.6364.1305 1.0907.1625.9084.5111 2.147 1.2554 3.4903.5076.9159 1.1977 1.8781 2.1346 2.8149a12.16 12.16 0 0 0 2.727 2.0536.66.66 0 0 0 .1976.1067 12.3 12.3 0 0 0 2.2753.9245c.7486.2202 1.3893.331 1.8469.3868.229.0279.4128.0421.542.0494a6 6 0 0 0 .1954.0074l.0131.0001.0044.0001h.0029a.6666.6666 0 0 0 .6666-.6667l.0001-2.1461a1.333 1.333 0 0 0-1.01-1.2935l-1.7954-.4489a1.333 1.333 0 0 0-1.2662.3507l-1.367 1.3671a10.85 10.85 0 0 1-2.09-1.634c-.6957-.6958-1.2366-1.4029-1.6574-2.085l1.3846-1.369a1.333 1.333 0 0 0 .356-1.2715l-.4482-1.7931a1.333 1.333 0 0 0-1.2935-1.01zm10.6666 11.9999c.0003-.0001 0-.0049 0-.6667zM3.4525 5.9314a8.3 8.3 0 0 1-.0852-.5981h1.4469l.4483 1.793-1.0994 1.087c-.3936-.879-.6014-1.671-.7106-2.282m7.6536 8.3456a11 11 0 0 1-1.2995-.4729l1.0659-1.0659 1.7955.4489-.0001 1.4234c-.392-.0511-.9323-.1484-1.5618-.3335"/></svg>