<svg width="16" height="16" viewBox="0 0 16 16" fill="none" xmlns="http://www.w3.org/2000/svg">
<path fill-rule="evenodd" clip-rule="evenodd" d="M5.45508 6.68709C5.45508 5.28254 6.59369 4.14392 7.99825 4.14392C9.4028 4.14392 10.5414 5.28254 10.5414 6.68709C10.5414 8.09164 9.4028 9.23026 7.99825 9.23026C6.59369 9.23026 5.45508 8.09164 5.45508 6.68709ZM7.99825 5.44392C7.31166 5.44392 6.75508 6.00051 6.75508 6.68709C6.75508 7.37367 7.31166 7.93026 7.99825 7.93026C8.68483 7.93026 9.24142 7.37367 9.24142 6.68709C9.24142 6.00051 8.68483 5.44392 7.99825 5.44392Z" fill="black"/>
<path fill-rule="evenodd" clip-rule="evenodd" d="M2.32324 6.68711C2.32324 3.55214 4.86464 1.01074 7.99961 1.01074C11.1346 1.01074 13.676 3.55214 13.676 6.68711C13.676 8.28676 13.0143 9.73186 11.9497 10.7636L12.5449 12.5566C12.9424 13.7541 12.0508 14.9895 10.7891 14.9895H5.21117C3.94941 14.9895 3.05786 13.7541 3.45538 12.5566L4.05032 10.7644C2.98526 9.73257 2.32324 8.28715 2.32324 6.68711ZM7.99961 2.31074C5.58261 2.31074 3.62324 4.27011 3.62324 6.68711C3.62324 9.10411 5.58261 11.0635 7.99961 11.0635C10.4166 11.0635 12.376 9.10411 12.376 6.68711C12.376 4.27011 10.4166 2.31074 7.99961 2.31074ZM5.14458 11.5943L4.68918 12.9662C4.571 13.3222 4.83605 13.6895 5.21117 13.6895H10.7891C11.1642 13.6895 11.4292 13.3222 11.3111 12.9662L10.8555 11.5938C10.0166 12.0831 9.04084 12.3635 7.99961 12.3635C6.95874 12.3635 5.9833 12.0833 5.14458 11.5943Z" fill="black"/>
</svg>
