<svg xmlns="http://www.w3.org/2000/svg" width="16" height="16" fill="none" viewBox="0 0 16 16"><path fill="#000" fill-rule="evenodd" d="M3.2667 1.35c-.6904 0-1.25.5596-1.25 1.25v1.4666c0 .4797.2701.8963.6666 1.1059v4.1608C2.6833 12.2696 5.0637 14.65 8 14.65s5.3167-2.3804 5.3167-5.3167V5.1725a1.25 1.25 0 0 0 .6666-1.1059V2.6c0-.6904-.5596-1.25-1.25-1.25zm9.4166 2.6666V2.65H3.3167v1.3666zm-8.7 1.3h8.0334v4.0167c0 2.2183-1.7984 4.0167-4.0167 4.0167s-4.0167-1.7984-4.0167-4.0167zM5.35 9.3333c0-1.4635 1.1864-2.65 2.65-2.65s2.65 1.1865 2.65 2.65c0 1.4636-1.1865 2.65-2.65 2.65-1.4636 0-2.65-1.1864-2.65-2.65M8 7.9833c-.7456 0-1.35.6044-1.35 1.35s.6044 1.35 1.35 1.35 1.35-.6044 1.35-1.35-.6044-1.35-1.35-1.35"/></svg>