<svg xmlns="http://www.w3.org/2000/svg" width="16" height="16" fill="none" viewBox="0 0 16 16"><path fill="#000" fill-rule="evenodd" d="M3.8123 3.7256c.2853-1.0442 1.2399-1.8121 2.3752-1.8121h3.6243c1.1354 0 2.09.7679 2.3753 1.812h.3429c1.3598 0 2.4621 1.1024 2.4621 2.4622v5.4364c0 1.3598-1.1023 2.4622-2.4621 2.4622H3.4693c-1.3598 0-2.4621-1.1024-2.4621-2.4622V6.1877c0-1.3598 1.1023-2.4621 2.4621-2.4621zm2.3752-.5122c-.5535 0-1.0181.3878-1.1341.907-.0952.4257-.4718.9052-1.078.9052h-.506c-.6419 0-1.1622.5203-1.1622 1.1621v5.4364c0 .6419.5203 1.1622 1.1621 1.1622H12.53c.6418 0 1.1621-.5203 1.1621-1.1622V6.1877c0-.6418-.5203-1.1621-1.1621-1.1621h-.5061c-.6062 0-.9828-.4795-1.0779-.9052-.1161-.5192-.5806-.907-1.1342-.907zM4.6957 8.3287c0-1.825 1.4794-3.3043 3.3043-3.3043s3.3043 1.4794 3.3043 3.3043S9.8249 11.6329 8 11.6329s-3.3043-1.4794-3.3043-3.3043M8 6.3243c-1.107 0-2.0043.8974-2.0043 2.0043S6.893 10.3329 8 10.3329s2.0043-.8974 2.0043-2.0043S9.1069 6.3243 8 6.3243"/></svg>