<svg width="16" height="16" viewBox="0 0 16 16" fill="none" xmlns="http://www.w3.org/2000/svg">
<path fill-rule="evenodd" clip-rule="evenodd" d="M2.89804 4.19611L1.56831 2.86639C1.31447 2.61254 1.31447 2.20099 1.56831 1.94715C1.82215 1.69331 2.23371 1.69331 2.48755 1.94715L14.4318 13.8914C14.6856 14.1452 14.6856 14.5568 14.4318 14.8106C14.178 15.0645 13.7664 15.0645 13.5126 14.8106L12.5135 13.8116C12.2485 14.4866 11.5942 14.9894 10.7892 14.9894H5.21129C3.94952 14.9894 3.05798 13.7541 3.4555 12.5566L4.05052 10.7642C2.9856 9.73234 2.32369 8.28702 2.32369 6.68711C2.32369 5.79351 2.53018 4.94814 2.89804 4.19611ZM10.4911 11.7891L11.1338 12.4319L11.3112 12.9662C11.4294 13.3222 11.1643 13.6894 10.7892 13.6894H5.21129C4.83617 13.6894 4.57112 13.3222 4.6893 12.9662L5.14475 11.5941C5.98353 12.0833 6.95907 12.3635 8.00006 12.3635C8.89366 12.3635 9.73902 12.157 10.4911 11.7891ZM9.50117 10.7992C9.03299 10.9702 8.52742 11.0635 8.00006 11.0635C5.58306 11.0635 3.62369 9.10411 3.62369 6.68711C3.62369 6.15975 3.71697 5.65418 3.88792 5.186L5.45686 6.75494C5.49223 8.1056 6.58065 9.19402 7.93131 9.22939L9.50117 10.7992Z" fill="black"/>
<path d="M6.79949 4.4441L7.81315 5.45776C7.87382 5.44865 7.93593 5.44393 7.99915 5.44393C8.68573 5.44393 9.24231 6.00052 9.24231 6.6871C9.24231 6.75032 9.2376 6.81243 9.22849 6.8731L10.2421 7.88676C10.4337 7.52939 10.5423 7.12093 10.5423 6.6871C10.5423 5.28255 9.4037 4.14393 7.99915 4.14393C7.56532 4.14393 7.15686 4.25256 6.79949 4.4441Z" fill="black"/>
<path d="M12.3764 6.68711C12.3764 7.62947 12.0786 8.50227 11.5719 9.21649L12.5013 10.1459C13.2382 9.18829 13.6764 7.98887 13.6764 6.68711C13.6764 3.55214 11.135 1.01074 8.00006 1.01074C6.6983 1.01074 5.49888 1.44894 4.54127 2.18588L5.47068 3.11529C6.1849 2.60859 7.0577 2.31074 8.00006 2.31074C10.4171 2.31074 12.3764 4.27011 12.3764 6.68711Z" fill="black"/>
</svg>
