<svg xmlns="http://www.w3.org/2000/svg" width="16" height="16" fill="none" viewBox="0 0 16 16"><path fill="#000" fill-rule="evenodd" d="M7.9996 1.0107c-3.135 0-5.6764 2.5414-5.6764 5.6764 0 1.6.662 3.0455 1.7271 4.0773l-.595 1.7922c-.3974 1.1975.4941 2.4329 1.7559 2.4329h5.5779c1.2617 0 2.1533-1.2354 1.7558-2.4329l-.5952-1.793c1.0646-1.0317 1.7263-2.4768 1.7263-4.0765 0-3.135-2.5414-5.6764-5.6764-5.6764M3.6232 6.6871c0-2.417 1.9594-4.3764 4.3764-4.3764s4.3764 1.9594 4.3764 4.3764-1.9594 4.3764-4.3764 4.3764-4.3764-1.9594-4.3764-4.3764m4.375-2.5432c-1.4045 0-2.5431 1.1386-2.5431 2.5432s1.1386 2.5432 2.5431 2.5432c1.4046 0 2.5432-1.1387 2.5432-2.5432S9.4028 4.1439 7.9982 4.1439M6.7551 6.6871c0-.6866.5566-1.2432 1.2431-1.2432s1.2432.5566 1.2432 1.2432-.5566 1.2432-1.2432 1.2432c-.6865 0-1.2431-.5566-1.2431-1.2432m-2.066 6.2791.4555-1.3719c.8387.489 1.8141.7692 2.855.7692 1.0412 0 2.017-.2804 2.8559-.7697l.4556 1.3724c.1181.356-.1469.7233-.522.7233h-5.578c-.375 0-.6401-.3673-.522-.7233"/></svg>