<svg xmlns="http://www.w3.org/2000/svg" width="16" height="16" fill="none" viewBox="0 0 16 16"><path fill="#000" fill-rule="evenodd" d="M12.3764 6.687a4.356 4.356 0 0 1-.8046 2.5294l.9294.9294a5.65 5.65 0 0 0 1.1752-3.4588c0-3.135-2.5414-5.6764-5.6764-5.6764a5.65 5.65 0 0 0-3.4588 1.1752l.9294.9294A4.357 4.357 0 0 1 8 2.3106c2.417 0 4.3764 1.9594 4.3764 4.3764M1.5682 2.8663 2.898 4.196c-.3679.752-.5744 1.5974-.5744 2.491 0 1.5999.662 3.0452 1.7268 4.077l-.595 1.7925c-.3975 1.1975.494 2.4328 1.7558 2.4328h5.5779c.805 0 1.4593-.5028 1.7243-1.1778l.9991.999a.65.65 0 0 0 .9192 0 .65.65 0 0 0 0-.9192L2.4875 1.947a.65.65 0 0 0-.9192.9193M6.7995 4.444l1.0137 1.0136a1.25 1.25 0 0 1 .186-.0138c.6866 0 1.2432.5566 1.2432 1.2432q-.0001.0949-.0139.186l1.0137 1.0136a2.53 2.53 0 0 0 .3001-1.1996c0-1.4046-1.1386-2.5432-2.5431-2.5432a2.53 2.53 0 0 0-1.1997.3002M8 11.0634c.5274 0 1.033-.0933 1.5011-.2643L7.9313 9.2293c-1.3507-.0354-2.4391-1.1238-2.4745-2.4745l-1.569-1.569a4.37 4.37 0 0 0-.2642 1.5012c0 2.417 1.9594 4.3764 4.3764 4.3764m3.1338 1.3684-.6428-.6428c-.752.3679-1.5974.5744-2.491.5744-1.041 0-2.0165-.2803-2.8553-.7694l-.4554 1.372c-.1183.3561.1468.7233.522.7233h5.5778c.3751 0 .6402-.3672.522-.7233z"/></svg>