<svg xmlns="http://www.w3.org/2000/svg" width="16" height="16" fill="none" viewBox="0 0 16 16"><path fill="#000" fill-rule="evenodd" d="M15 8c0 3.866-3.134 7-7 7s-7-3.134-7-7 3.134-7 7-7 7 3.134 7 7m-1.3 0c0 3.148-2.552 5.7-5.7 5.7S2.3 11.148 2.3 8 4.852 2.3 8 2.3s5.7 2.552 5.7 5.7M6.7947 5.8754a.65.65 0 0 0-.9192.9192l1.2054 1.2055-1.2053 1.2053a.65.65 0 0 0 .9192.9192l1.2053-1.2053 1.2053 1.2053a.6501.6501 0 0 0 .9193-.9192L8.9194 8l1.2054-1.2055a.65.65 0 0 0-.9193-.9192L8.0001 7.0808z"/></svg>