<svg xmlns="http://www.w3.org/2000/svg" width="16" height="16" fill="none" viewBox="0 0 16 16"><path fill="#000" d="M7.544 6.8965a.65.65 0 0 0-.975.563v2.781a.65.65 0 0 0 .975.5629l2.4086-1.3905a.65.65 0 0 0 0-1.1258z"/><path fill="#000" fill-rule="evenodd" d="M6.845 1.8a.65.65 0 0 0-.644.5618l-.2136 1.5587a5.32 5.32 0 0 0-1.2497.7226l-1.4585-.5943a.65.65 0 0 0-.8082.277L1.3166 6.3251a.65.65 0 0 0 .1645.8385l1.244.9651a5.4 5.4 0 0 0-.0485.721c0 .2447.0165.4857.0486.722l-1.2432.9655a.65.65 0 0 0-.1643.8383l1.1544 1.9995a.65.65 0 0 0 .8085.2768l1.4578-.5948a5.3 5.3 0 0 0 1.249.7221l.2137 1.5591a.65.65 0 0 0 .644.5617h2.3087a.65.65 0 0 0 .644-.5614l.2144-1.5595a5.32 5.32 0 0 0 1.2488-.722l1.4581.5949a.65.65 0 0 0 .8085-.2768l1.1544-1.9994a.65.65 0 0 0-.1643-.8384l-1.2436-.9657a5.4 5.4 0 0 0 .0486-.7218c0-.2442-.0165-.4849-.0485-.7209l1.2444-.9654a.65.65 0 0 0 .1645-.8385l-1.1544-1.9995a.65.65 0 0 0-.8082-.277l-1.4589.5945a5.32 5.32 0 0 0-1.2495-.7225l-.2144-1.5591a.65.65 0 0 0-.644-.5614zm.3215 3.0915.2455-1.7914h1.175l.2465 1.7916.3905.1246a4.02 4.02 0 0 1 1.4825.8573l.3032.276 1.6766-.6832.5875 1.0176-1.4292 1.1088.0868.4002a4.04 4.04 0 0 1 .0913.8569c0 .2949-.0316.5817-.0915.8574l-.0867.4001 1.4283 1.1092-.5875 1.0176-1.6758-.6837-.3033.2759a4.02 4.02 0 0 1-1.4822.857l-.3905.1246-.2464 1.792H7.412l-.2457-1.7918-.3908-.1247a4.02 4.02 0 0 1-1.4824-.857l-.3033-.276-1.6754.6836-.5876-1.0177 1.428-1.1088-.0868-.4001a4.04 4.04 0 0 1-.0915-.8576c0-.2948.0316-.5815.0913-.857l.0868-.4003L2.726 6.484l.5875-1.0176 1.6761.683.3032-.2759a4.02 4.02 0 0 1 1.4829-.8574z" clip-rule="evenodd"/></svg>