<svg xmlns="http://www.w3.org/2000/svg" width="16" height="16" fill="none" viewBox="0 0 16 16"><path fill="#000" d="M5.8755 5.8754a.65.65 0 0 1 .9192 0l1.2054 1.2054 1.2054-1.2054a.65.65 0 0 1 .9193.9192L8.9194 8.0001l1.2053 1.2053a.65.65 0 0 1-.9193.9192L8.0001 8.9193l-1.2053 1.2053a.65.65 0 0 1-.9192-.9192L7.0809 8 5.8755 6.7946a.65.65 0 0 1 0-.9192"/><path fill="#000" fill-rule="evenodd" d="M8 15c3.866 0 7-3.134 7-7s-3.134-7-7-7-7 3.134-7 7 3.134 7 7 7m0-1.3c3.148 0 5.7-2.552 5.7-5.7S11.148 2.3 8 2.3 2.3 4.852 2.3 8s2.552 5.7 5.7 5.7" clip-rule="evenodd"/></svg>