<svg xmlns="http://www.w3.org/2000/svg" width="16" height="16" fill="none" viewBox="0 0 16 16"><path fill="#000" fill-rule="evenodd" d="M7.3184 1.3496a.65.65 0 0 1 .9192.0068l2.6286 2.6673h.7461c.9113 0 1.65.7387 1.65 1.65v.7228h1.1379a.65.65 0 0 1 .65.65V9.512a.65.65 0 0 1-.65.65H5.8794a.65.65 0 0 1-.65-.65V7.7427h-.3897c-1.4301 0-2.5895 1.1594-2.5895 2.5896s1.1594 2.5895 2.5895 2.5895h4.5254a.65.65 0 1 1 0 1.3H4.8397c-2.1481 0-3.8895-1.7414-3.8895-3.8895 0-2.1482 1.7414-3.8896 3.8895-3.8896h.3897v-1.769a.65.65 0 0 1 .65-.65H9.041L7.3117 2.2688a.65.65 0 0 1 .0067-.9192m-.789 3.9741V8.862h7.2208V7.6965h-1.1379a.65.65 0 0 1-.65-.65V5.6737a.35.35 0 0 0-.35-.35z" clip-rule="evenodd"/></svg>