<svg width="16" height="16" viewBox="0 0 16 16" fill="none" xmlns="http://www.w3.org/2000/svg">
<path d="M5.87546 6.7255C6.1293 6.47166 6.54086 6.47166 6.7947 6.7255L8.00012 7.93092L9.20554 6.7255C9.45938 6.47166 9.87094 6.47166 10.1248 6.7255C10.3786 6.97934 10.3786 7.3909 10.1248 7.64474L8.91936 8.85016L10.1247 10.0555C10.3785 10.3093 10.3785 10.7209 10.1247 10.9747C9.87082 11.2285 9.45926 11.2285 9.20542 10.9747L8.00012 9.7694L6.79482 10.9747C6.54098 11.2285 6.12943 11.2285 5.87559 10.9747C5.62174 10.7209 5.62174 10.3093 5.87559 10.0555L7.08088 8.85016L5.87546 7.64474C5.62162 7.3909 5.62162 6.97934 5.87546 6.7255Z" fill="black"/>
<path fill-rule="evenodd" clip-rule="evenodd" d="M8 15.8501C11.866 15.8501 15 12.7161 15 8.8501C15 4.9841 11.866 1.8501 8 1.8501C4.13401 1.8501 1 4.9841 1 8.8501C1 12.7161 4.13401 15.8501 8 15.8501ZM8 14.5501C11.148 14.5501 13.7 11.9981 13.7 8.8501C13.7 5.70207 11.148 3.1501 8 3.1501C4.85198 3.1501 2.3 5.70207 2.3 8.8501C2.3 11.9981 4.85198 14.5501 8 14.5501Z" fill="black"/>
</svg>
