<svg xmlns="http://www.w3.org/2000/svg" width="16" height="16" fill="none" viewBox="0 0 16 16"><path fill="#000" fill-rule="evenodd" d="M4.9512 4.0498C4.9512 2.3654 6.3166 1 8.0009 1s3.0498 1.3654 3.0498 3.0498V5.372h.4743c1.4359 0 2.6 1.164 2.6 2.6V12.4c0 1.4359-1.1641 2.6-2.6 2.6h-7.05c-1.436 0-2.6-1.1641-2.6-2.6V7.972c0-1.4359 1.164-2.6 2.6-2.6h.4762zm4.7995 0V5.369H6.2512V4.0498c0-.9664.7834-1.7498 1.7497-1.7498s1.7498.7834 1.7498 1.7498M4.475 6.672h7.05c.718 0 1.3.582 1.3 1.3V12.4c0 .7179-.582 1.3-1.3 1.3h-7.05c-.718 0-1.3-.5821-1.3-1.3V7.972c0-.7179.582-1.3 1.3-1.3M8 7.35a.65.65 0 0 1 .5814.3593l2 4a.65.65 0 0 1-1.1628.5814l-.3203-.6407H6.9017l-.3203.6407a.65.65 0 0 1-1.1628-.5814l2-4A.65.65 0 0 1 8 7.35m.4483 3L8 9.4534l-.4483.8966z"/></svg>