<svg width="16" height="16" viewBox="0 0 16 16" fill="none" xmlns="http://www.w3.org/2000/svg">
<path d="M8.00003 9.25028L8.43995 10.3501H7.5601L8.00003 9.25028Z" fill="black"/>
<path fill-rule="evenodd" clip-rule="evenodd" d="M8.00119 1C6.31685 1 4.95142 2.36543 4.95142 4.04977V5.37207H4.475C3.03906 5.37207 1.875 6.53613 1.875 7.97207V12.4C1.875 13.8359 3.03906 15 4.475 15H11.525C12.9609 15 14.125 13.8359 14.125 12.4V7.97207C14.125 6.53613 12.9609 5.37207 11.525 5.37207H11.051V4.04977C11.051 2.36543 9.68554 1 8.00119 1ZM9.75097 5.36913V4.04977C9.75097 3.0834 8.96757 2.3 8.00119 2.3C7.03482 2.3 6.25142 3.0834 6.25142 4.04977V5.36913H9.75097ZM8.00003 6.8501C8.26581 6.8501 8.50483 7.01192 8.60354 7.25869L10.6035 12.2587C10.7369 12.592 10.5747 12.9703 10.2414 13.1036C9.90812 13.2369 9.52984 13.0748 9.39652 12.7415L8.95996 11.6501H7.0401L6.60354 12.7415C6.47021 13.0748 6.09193 13.2369 5.75862 13.1036C5.42531 12.9703 5.26319 12.592 5.39652 12.2587L7.39652 7.25869C7.49523 7.01192 7.73424 6.8501 8.00003 6.8501Z" fill="black"/>
</svg>
