<svg xmlns="http://www.w3.org/2000/svg" width="16" height="16" fill="none" viewBox="0 0 16 16"><path fill="#000" fill-rule="evenodd" d="M4.9514 4.0498C4.9514 2.3654 6.3168 1 8.0012 1s3.0498 1.3654 3.0498 3.0498V5.372h.474c1.4359 0 2.6 1.164 2.6 2.6V12.4c0 1.4359-1.1641 2.6-2.6 2.6h-7.05c-1.436 0-2.6-1.1641-2.6-2.6V7.972c0-1.4359 1.164-2.6 2.6-2.6h.4764zm4.7996 0V5.369H6.2514V4.0498c0-.9664.7834-1.7498 1.7498-1.7498s1.7498.7834 1.7498 1.7498M8.6035 7.2587a.65.65 0 0 0-1.207 0l-2 5a.65.65 0 1 0 1.207.4828l.4366-1.0914H8.96l.4365 1.0914a.65.65 0 0 0 1.207-.4828zM8.44 10.3501 8 9.2503 7.5601 10.35z"/></svg>