<svg width="16" height="16" viewBox="0 0 16 16" fill="none" xmlns="http://www.w3.org/2000/svg">
<path fill-rule="evenodd" clip-rule="evenodd" d="M4.68311 3.0001V4.01678H2.99961C2.08834 4.01678 1.34961 4.75551 1.34961 5.66678V8.68341H14.6496V5.66678C14.6496 4.75552 13.9109 4.01678 12.9996 4.01678H11.3164V3.0001C11.3164 2.08883 10.5777 1.3501 9.66644 1.3501H6.33311C5.42183 1.3501 4.68311 2.08883 4.68311 3.0001ZM6.33311 2.6501C6.13981 2.6501 5.98311 2.8068 5.98311 3.0001V4.01678H10.0164V3.0001C10.0164 2.8068 9.85974 2.6501 9.66644 2.6501H6.33311Z" fill="black"/>
<path d="M14.6496 9.98341H11.3164V10.6667C11.3164 11.0257 11.0253 11.3167 10.6664 11.3167C10.3074 11.3167 10.0164 11.0257 10.0164 10.6667V9.98341L5.98286 9.98341V10.6667C5.98286 11.0257 5.69185 11.3167 5.33286 11.3167C4.97388 11.3167 4.68286 11.0257 4.68286 10.6667V9.98341H1.34961V13.0001C1.34961 13.9114 2.08834 14.6501 2.99961 14.6501H12.9996C13.9109 14.6501 14.6496 13.9114 14.6496 13.0001V9.98341Z" fill="black"/>
</svg>
