<svg width="16" height="16" viewBox="0 0 16 16" fill="none" xmlns="http://www.w3.org/2000/svg">
<path fill-rule="evenodd" clip-rule="evenodd" d="M5.93695 3.75869C5.83824 3.51192 5.59923 3.3501 5.33344 3.3501C5.06765 3.3501 4.82864 3.51192 4.72993 3.75869L2.06326 10.4254C1.92994 10.7587 2.09206 11.137 2.42537 11.2703C2.75868 11.4036 3.13696 11.2415 3.27028 10.9082L3.90685 9.31675H6.76003L7.3966 10.9082C7.52992 11.2415 7.9082 11.4036 8.24151 11.2703C8.57482 11.137 8.73694 10.7587 8.60362 10.4254L5.93695 3.75869ZM6.24003 8.01675L5.33344 5.75028L4.42685 8.01675H6.24003Z" fill="black"/>
<path fill-rule="evenodd" clip-rule="evenodd" d="M11.3335 5.98344C10.9561 5.98344 10.6501 6.28938 10.6501 6.66677C10.6501 7.02576 10.3591 7.31677 10.0001 7.31677C9.64116 7.31677 9.35015 7.02576 9.35015 6.66677C9.35015 5.57141 10.2381 4.68344 11.3335 4.68344H12.0001C13.0955 4.68344 13.9835 5.57141 13.9835 6.66677V10.6668C13.9835 11.0258 13.6925 11.3168 13.3335 11.3168C13.3332 11.3168 13.3337 11.3168 13.3335 11.3168L11.1668 11.3168C10.1635 11.3168 9.35015 10.5034 9.35015 9.50011C9.35015 8.49679 10.1635 7.68344 11.1668 7.68344H12.6835V6.66677C12.6835 6.28938 12.3775 5.98344 12.0001 5.98344H11.3335ZM12.6835 8.98344H11.1668C10.8815 8.98344 10.6501 9.21476 10.6501 9.50011C10.6501 9.78545 10.8815 10.0168 11.1668 10.0168H12.6835V8.98344Z" fill="black"/>
</svg>
