<svg xmlns="http://www.w3.org/2000/svg" width="16" height="16" fill="none" viewBox="0 0 16 16"><path fill="#000" fill-rule="evenodd" d="M4.6831 4.0168V3c0-.9113.7387-1.65 1.65-1.65h3.3333c.9113 0 1.65.7387 1.65 1.65v1.0167h1.6832c.9113 0 1.65.7387 1.65 1.65v3.0166h-13.3V5.6668c0-.9113.7388-1.65 1.65-1.65zM5.9831 3a.35.35 0 0 1 .35-.35h3.3333a.35.35 0 0 1 .35.35v1.0167H5.9831zm5.3332 6.9833h3.3333V13c0 .9113-.7387 1.65-1.65 1.65h-10c-.9113 0-1.65-.7387-1.65-1.65V9.9834H4.683v.6833a.65.65 0 1 0 1.3 0v-.6833h4.0334v.6833a.65.65 0 0 0 1.3 0z"/></svg>