<svg width="16" height="16" viewBox="0 0 16 16" fill="none" xmlns="http://www.w3.org/2000/svg">
<path fill-rule="evenodd" clip-rule="evenodd" d="M12.3336 7.34961C13.4288 7.34965 14.3168 8.23782 14.317 9.33301V13.333C14.317 13.4226 14.2991 13.5082 14.2662 13.5859C14.2333 13.6638 14.1855 13.7341 14.1266 13.793C14.0383 13.8813 13.9245 13.9437 13.7975 13.9697L13.6666 13.9834H11.6666C10.5715 13.9832 9.6834 13.0951 9.68323 12C9.6834 10.9049 10.5715 10.0168 11.6666 10.0166H13.0172V9.33301C13.017 8.95579 12.7109 8.65043 12.3336 8.65039H11.6666C11.2895 8.65057 10.9842 8.95587 10.984 9.33301C10.984 9.69197 10.6926 9.98336 10.3336 9.9834C9.97463 9.9834 9.68323 9.69199 9.68323 9.33301C9.6834 8.2379 10.5715 7.34979 11.6666 7.34961H12.3336ZM11.6666 11.3174C11.2895 11.3176 10.9842 11.6229 10.984 12C10.9842 12.3771 11.2895 12.6834 11.6666 12.6836H13.0172V11.3174H11.6666Z" fill="black"/>
<path fill-rule="evenodd" clip-rule="evenodd" d="M5.18225 2.0166C5.47638 2.01683 5.73422 2.21484 5.81018 2.49902L8.65784 13.166C8.75022 13.5127 8.54455 13.8693 8.19788 13.9619C7.85116 14.0545 7.49473 13.8476 7.40198 13.501L6.64026 10.6504H3.72229L2.96155 13.501C2.86883 13.8476 2.51233 14.0544 2.16565 13.9619C1.81904 13.8692 1.61331 13.5127 1.70569 13.166L4.55334 2.49902L4.59045 2.39648C4.69474 2.16824 4.92477 2.0166 5.18225 2.0166ZM4.06995 9.34961H6.2926L5.18127 5.1875L4.06995 9.34961Z" fill="black"/>
</svg>
