<svg width="16" height="16" viewBox="0 0 16 16" fill="none" xmlns="http://www.w3.org/2000/svg">
<path d="M6.00011 5C6.00011 5.55228 5.5524 6 5.00011 6C4.44783 6 4.00011 5.55228 4.00011 5C4.00011 4.44772 4.44783 4 5.00011 4C5.5524 4 6.00011 4.44772 6.00011 5Z" fill="black"/>
<path d="M12.0001 5C12.0001 5.55228 11.5524 6 11.0001 6C10.4478 6 10.0001 5.55228 10.0001 5C10.0001 4.44772 10.4478 4 11.0001 4C11.5524 4 12.0001 4.44772 12.0001 5Z" fill="black"/>
<path d="M7.35011 8C7.35011 8.74558 6.7457 9.35 6.00011 9.35C5.25453 9.35 4.65011 8.74558 4.65011 8C4.65011 7.64102 4.3591 7.35 4.00011 7.35C3.64113 7.35 3.35011 7.64102 3.35011 8C3.35011 9.46355 4.53656 10.65 6.00011 10.65C6.79842 10.65 7.51427 10.297 8.00011 9.73859C8.48595 10.297 9.20181 10.65 10.0001 10.65C11.4637 10.65 12.6501 9.46355 12.6501 8C12.6501 7.64102 12.3591 7.35 12.0001 7.35C11.6411 7.35 11.3501 7.64102 11.3501 8C11.3501 8.74558 10.7457 9.35 10.0001 9.35C9.25453 9.35 8.65011 8.74558 8.65011 8V6.66667C8.65011 6.30768 8.3591 6.01667 8.00011 6.01667C7.64113 6.01667 7.35011 6.30768 7.35011 6.66667V8Z" fill="black"/>
<path d="M15.2057 7.28331C15.5462 7.16979 15.7303 6.80168 15.6168 6.46112C15.5032 6.12055 15.1351 5.9365 14.7946 6.05002L13.7946 6.38336C13.454 6.49688 13.2699 6.86498 13.3835 7.20555C13.497 7.54611 13.8651 7.73016 14.2057 7.61664L15.2057 7.28331Z" fill="black"/>
<path d="M15.6168 9.87222C15.7303 9.53165 15.5462 9.16354 15.2057 9.05002L14.2057 8.71669C13.8651 8.60317 13.497 8.78722 13.3835 9.12779C13.2699 9.46835 13.454 9.83646 13.7946 9.94998L14.7946 10.2833C15.1351 10.3968 15.5032 10.2128 15.6168 9.87222Z" fill="black"/>
<path d="M0.46123 7.28331C0.120667 7.16979 -0.0633873 6.80168 0.0501338 6.46112C0.163655 6.12055 0.531763 5.9365 0.872326 6.05002L1.87233 6.38336C2.21289 6.49688 2.39694 6.86498 2.28342 7.20555C2.1699 7.54611 1.80179 7.73016 1.46123 7.61664L0.46123 7.28331Z" fill="black"/>
<path d="M0.0501338 9.87222C-0.0633873 9.53165 0.120667 9.16354 0.46123 9.05002L1.46123 8.71669C1.80179 8.60317 2.1699 8.78722 2.28342 9.12779C2.39694 9.46835 2.21289 9.83646 1.87233 9.94998L0.872326 10.2833C0.531763 10.3968 0.163655 10.2128 0.0501338 9.87222Z" fill="black"/>
</svg>
