<svg xmlns="http://www.w3.org/2000/svg" width="16" height="16" fill="none" viewBox="0 0 16 16"><path fill="#000" fill-rule="evenodd" d="M5 6c.5523 0 1-.4477 1-1s-.4477-1-1-1-1 .4477-1 1 .4477 1 1 1m6 0c.5523 0 1-.4477 1-1s-.4477-1-1-1-1 .4477-1 1 .4477 1 1 1m4.6166.4611a.65.65 0 0 1-.4111.8222l-1 .3333a.65.65 0 0 1-.4111-1.2332l1-.3334a.65.65 0 0 1 .8222.4111m-15.5666 0a.65.65 0 0 0 .4111.8222l1 .3333a.65.65 0 1 0 .4111-1.2332l-1-.3334a.65.65 0 0 0-.8222.4111M7.35 8c0 .7456-.6044 1.35-1.35 1.35S4.65 8.7456 4.65 8a.65.65 0 0 0-1.3 0c0 1.4636 1.1864 2.65 2.65 2.65.7983 0 1.5142-.353 2-.9114.4858.5584 1.2017.9114 2 .9114 1.4635 0 2.65-1.1864 2.65-2.65a.65.65 0 1 0-1.3 0c0 .7456-.6044 1.35-1.35 1.35S8.65 8.7456 8.65 8V6.6667a.65.65 0 0 0-1.3 0zm7.8555 1.05a.65.65 0 1 1-.4111 1.2333l-1-.3333a.65.65 0 0 1 .4111-1.2333zm-14.7444 0a.65.65 0 0 0 .4111 1.2333l1-.3333a.65.65 0 0 0-.4111-1.2333z"/></svg>