<svg width="16" height="16" viewBox="0 0 16 16" fill="none" xmlns="http://www.w3.org/2000/svg">
<path d="M5.08234 1.14033C5.33618 1.39417 5.33618 1.80573 5.08234 2.05957L3.2694 3.87251H8.88513C9.24412 3.87251 9.53513 4.16353 9.53513 4.52251C9.53513 4.8815 9.24412 5.17251 8.88513 5.17251H3.26918L5.08234 6.98567C5.33618 7.23951 5.33618 7.65107 5.08234 7.90491C4.8285 8.15875 4.41694 8.15875 4.1631 7.90491L1.24043 4.98224C0.986589 4.7284 0.986589 4.31684 1.24043 4.063L4.1631 1.14033C4.41694 0.886491 4.8285 0.886491 5.08234 1.14033Z" fill="black"/>
<path d="M12.7308 10.8274L10.9176 9.01423C10.6638 8.76039 10.6638 8.34884 10.9176 8.09499C11.1715 7.84115 11.583 7.84115 11.8369 8.095L14.7595 11.0177C15.0134 11.2715 15.0134 11.6831 14.7595 11.9369L11.8369 14.8596C11.583 15.1134 11.1715 15.1134 10.9176 14.8596C10.6638 14.6057 10.6638 14.1942 10.9176 13.9403L12.7306 12.1274H7.11482C6.75583 12.1274 6.46482 11.8364 6.46482 11.4774C6.46482 11.1184 6.75583 10.8274 7.11482 10.8274L12.7308 10.8274Z" fill="black"/>
</svg>
