<svg width="16" height="16" viewBox="0 0 16 16" fill="none" xmlns="http://www.w3.org/2000/svg">
<g clip-path="url(#clip0_30665_12)">
<path d="M11.6559 6.08089L13.4691 4.26773L7.85313 4.26773C7.49414 4.26773 7.20312 3.97671 7.20312 3.61773C7.20312 3.25874 7.49414 2.96773 7.85313 2.96773H13.4689L11.6559 1.15479C11.4021 0.900945 11.4021 0.489387 11.6559 0.235546C11.9098 -0.018294 12.3213 -0.018294 12.5752 0.235546L15.4978 3.15822C15.7517 3.41206 15.7517 3.82362 15.4978 4.07746L12.5752 7.00013C12.3213 7.25397 11.9098 7.25397 11.6559 7.00013C11.4021 6.74629 11.4021 6.33473 11.6559 6.08089Z" fill="black"/>
<path d="M4.03229 14.8905C4.28613 15.1443 4.28613 15.5559 4.03229 15.8097C3.77845 16.0635 3.36689 16.0635 3.11305 15.8097L0.190381 12.887C-0.0634602 12.6332 -0.0634602 12.2216 0.190381 11.9678L3.11305 9.04512C3.36689 8.79128 3.77845 8.79128 4.03229 9.04512C4.28613 9.29896 4.28613 9.71052 4.03229 9.96436L2.21913 11.7775H7.83508C8.19407 11.7775 8.48508 12.0685 8.48508 12.4275C8.48508 12.7865 8.19407 13.0775 7.83508 13.0775H2.21935L4.03229 14.8905Z" fill="black"/>
</g>
<defs>
<clipPath id="clip0_30665_12">
<rect width="16" height="16" fill="white"/>
</clipPath>
</defs>
</svg>
