<svg xmlns="http://www.w3.org/2000/svg" width="16" height="16" fill="none" viewBox="0 0 16 16"><path fill="#000" fill-rule="evenodd" d="M1.838 5.5734q-.31.7913-.4114 1.6642c-.042.3616.209.6787.5706.7207.3615.042.6787-.209.7207-.5706q.0816-.7025.331-1.3394.2505-.6399.6705-1.2135.4117-.5625.9349-.9879.5721-.4652 1.2774-.7666 1.0188-.4353 2.0425-.4467t2.0519.4013q1.0284.4125 1.7602 1.1284l.0003.0003q.2218.2169.4162.4616c-.2603-.0042-.5039.1495-.6083.4087-.1359.3377.0226.7098.3603.8457l1.3817.5561q.1719.0692.3375.0566t.325-.1072.2499-.2337.1124-.3232l.173-1.4604c.0428-.3614-.2076-.6791-.569-.722-.2657-.0314-.5078.0956-.6344.3086a6.2 6.2 0 0 0-.6328-.7235q-.9096-.8896-2.1878-1.4025t-2.5506-.4988-2.5388.5553q-.8691.3713-1.5758.9434-.6577.5325-1.1747 1.2386-.5213.712-.8324 1.5064M8.6838 4.553v-.351c0-.364-.286-.65-.65-.65s-.65.286-.65.65v.3138a2.46 2.46 0 0 0-.5416.1695q-.3869.174-.6509.461a1.9 1.9 0 0 0-.1512.188 1.64 1.64 0 0 0-.167.3007q-.1342.3166-.1342.6902 0 .6545.3085 1.0909l.0078.011q.2247.3119.5218.5202.0175.0123.0353.0242l.0107.0072h.0001q.0814.054.1678.1001.395.2113 1.0292.4522.4743.176.7385.3113.2204.111.369.2803l.013.0151a.5.5 0 0 1 .0609.0886q.0626.1168.0626.276a.7.7 0 0 1-.0425.2472q-.0611.1646-.2158.3024a1 1 0 0 1-.0496.0409q-.2634.2008-.7024.2008-.311 0-.5617-.1166l-.0098-.0046a1.2 1.2 0 0 1-.1909-.1139.8.8 0 0 1-.0628-.0512q-.1604-.1454-.2445-.3866-.1014-.2904-.3047-.4162-.1551-.096-.3695-.0959-.1571 0-.2848.0613a.64.64 0 0 0-.1995.1523q-.1054.1179-.1383.2534-.0316.1304.004.2771.0918.3785.2952.6822l.0173.0255a2.13 2.13 0 0 0 .3573.3996l.0165.0141q.23.195.5165.3232l.0122.0055.0048.002q.022.0097.0443.019.207.0863.4284.1376v.3364c0 .364.286.65.65.65s.65-.286.65-.65v-.3251q.3134-.068.5862-.2089.4282-.2232.7025-.5686a2.1 2.1 0 0 0 .1239-.1748 1.92 1.92 0 0 0 .238-.5415v.0001a1 1 0 0 0 .0097-.0387l.0067-.0288a1.88 1.88 0 0 0 .0444-.409q0-.657-.3102-1.0934l-.0055-.0078q-.2179-.305-.5064-.5112a2.1 2.1 0 0 0-.2277-.1414q-.395-.2112-1.0258-.4508-.4849-.1876-.7448-.3207-.2279-.1167-.38-.2906a.5.5 0 0 1-.0588-.0843q-.0638-.1164-.0638-.277a.52.52 0 0 1 .0373-.2003q.0515-.125.1799-.2263.248-.1947.6826-.1946.3557 0 .6067.1523a1 1 0 0 1 .0804.0546.75.75 0 0 1 .139.135.74.74 0 0 1 .0987.167q.1296.3008.3544.4163.14.072.3168.072.1598 0 .288-.0637a.63.63 0 0 0 .2007-.1602q.1039-.123.1313-.2612.0265-.1341-.0191-.2826-.1256-.4087-.3796-.7084l-.0003-.0003a1.7 1.7 0 0 0-.0731-.0812 1.85 1.85 0 0 0-.2132-.1908 2.3 2.3 0 0 0-.2107-.144l-.0133-.008a2.32 2.32 0 0 0-.595-.2477m5.5066 5.8575q.3099-.792.411-1.6657c.0418-.3616-.2094-.6786-.571-.7204s-.6786.2094-.7204.571q-.0813.7032-.3307 1.3406-.2503.6402-.6703 1.2141-.4117.5627-.935.9884-.5722.4656-1.2781.7671-1.0188.4354-2.0425.4468t-2.052-.4013-1.76-1.1284a5 5 0 0 1-.4632-.5214c.2325-.0224.4418-.1707.5365-.4059.1359-.3377-.0227-.7098-.3603-.8457l-1.3817-.5561q-.1718-.0692-.3375-.0565-.1656.0126-.325.107-.1594.0946-.25.2338-.0905.1393-.1123.3232l-.173 1.4604c-.0428.3615.2075.6791.569.7219.2904.0344.5525-.1204.6666-.37q.325.4562.719.8416.9097.8897 2.1879 1.4026 1.278.5129 2.5504.4988h.0001q1.2723-.0142 2.5388-.5553.8697-.3716 1.5767-.9441.6579-.5327 1.1748-1.2393.5211-.7124.8321-1.5069z"/></svg>