<svg xmlns="http://www.w3.org/2000/svg" width="16" height="16" fill="none" viewBox="0 0 16 16"><path fill="#000" fill-rule="evenodd" d="M8.7137 3.1935c0 .0497.0367.0917.0857.0998 1.8944.3118 3.3899 1.8073 3.7016 3.7017a.102.102 0 0 0 .0998.0857h2.4956a.099.099 0 0 0 .0986-.1095c-.3592-3.3076-3.0374-5.9191-6.375-6.175a.099.099 0 0 0-.1063.099zm4.9738 5.1872C13.4916 11.3512 11.0201 13.7 8 13.7c-3.148 0-5.7-2.552-5.7-5.7 0-2.95 2.2411-5.3767 5.1137-5.6702V1.0242C3.8221 1.322 1 4.3315 1 8c0 3.866 3.134 7 7 7 3.7383 0 6.7921-2.9304 6.9898-6.6193z"/></svg>