<svg xmlns="http://www.w3.org/2000/svg" width="16" height="16" fill="none" viewBox="0 0 16 16"><path fill="#000" fill-rule="evenodd" d="M.9955 3.9936c0-1.1874.9626-2.15 2.15-2.15h9.7078c1.1874 0 2.15.9626 2.15 2.15v8.0126c0 1.1874-.9626 2.15-2.15 2.15H3.1455c-1.1874 0-2.15-.9626-2.15-2.15zm2.15-.85a.85.85 0 0 0-.85.85v8.0126a.85.85 0 0 0 .85.85h9.7078a.85.85 0 0 0 .85-.85V3.9936a.85.85 0 0 0-.85-.85zm5.2198 6.687H5.3144V8.7401L8.3653 4.499h1.4404v3.9311h.8802v1.4004h-.8802v1.6705H8.3653zm0-1.4005V6.6396h-.2a3.7 3.7 0 0 1-.4602.8803l-.6502.9102z"/></svg>