<svg xmlns="http://www.w3.org/2000/svg" width="16" height="16" fill="none" viewBox="0 0 16 16"><path fill="#000" fill-rule="evenodd" d="M2.024 1.4011a.65.65 0 0 1 .65.65v9.8979c0 .7456.6044 1.35 1.35 1.35h9.9521a.6501.6501 0 0 1 0 1.3h-9.952c-1.4636 0-2.65-1.1864-2.65-2.65V2.0511a.65.65 0 0 1 .65-.65m11.4157 1.402a.65.65 0 0 1 .2283.8904l-2.3402 3.954a.65.65 0 0 1-.5593.319h-3.395l-2.0119 3.5252a.65.65 0 0 1-1.129-.6443l2.1989-3.8531a.65.65 0 0 1 .5645-.3279h3.4019l2.1513-3.635a.65.65 0 0 1 .8905-.2284"/></svg>