<svg width="16" height="16" viewBox="0 0 16 16" fill="none" xmlns="http://www.w3.org/2000/svg">
<path d="M2.67402 2.05112C2.67402 1.69214 2.38301 1.40112 2.02402 1.40112C1.66504 1.40112 1.37402 1.69214 1.37402 2.05112V11.949C1.37402 13.4126 2.56047 14.599 4.02402 14.599H13.9761C14.335 14.599 14.6261 14.308 14.6261 13.949C14.6261 13.5901 14.335 13.2991 13.9761 13.2991H4.02402C3.27844 13.2991 2.67402 12.6946 2.67402 11.949V2.05112Z" fill="black"/>
<path d="M13.668 3.69346C13.8508 3.38453 13.7486 2.98587 13.4397 2.80303C13.1307 2.62019 12.7321 2.72241 12.5492 3.03134L10.3979 6.66643H6.99601C6.76262 6.66643 6.54714 6.79156 6.43147 6.99426L4.23255 10.8474C4.05462 11.1592 4.16314 11.5562 4.47492 11.7341C4.78671 11.912 5.1837 11.8035 5.36163 11.4918L7.37346 7.96643H10.7685C10.9982 7.96643 11.2109 7.84518 11.3279 7.64749L13.668 3.69346Z" fill="black"/>
</svg>
