<svg width="16" height="16" viewBox="0 0 16 16" fill="none" xmlns="http://www.w3.org/2000/svg">
<path d="M9.13782 6.78507C9.08259 6.78507 9.03864 6.7403 9.03864 6.68507V0.868289C9.03864 0.810651 9.08756 0.764896 9.14503 0.769342C12.3363 1.01621 14.897 3.51302 15.2427 6.67563C15.2491 6.73415 15.2044 6.78507 15.1455 6.78507H9.13782Z" fill="black"/>
<path d="M1 8.00015C1 4.22166 3.99374 1.1424 7.73865 1.00494V2.30604C4.71194 2.44263 2.3 4.93972 2.3 8.00015C2.3 11.1482 4.85198 13.7002 8 13.7002C11.1197 13.7002 13.654 11.194 13.6994 8.0851H14.9995C14.954 11.912 11.8376 15.0002 8 15.0002C4.13401 15.0002 1 11.8661 1 8.00015Z" fill="black"/>
</svg>
