<svg xmlns="http://www.w3.org/2000/svg" width="16" height="16" fill="none" viewBox="0 0 16 16"><path fill="#000" fill-rule="evenodd" d="M14.9122 10.17c0 .8008-.6492 1.45-1.45 1.45h-1.2037c-.8008 0-1.45-.6492-1.45-1.45V3.183c0-.801.6492-1.45 1.45-1.45h1.2037c.8008 0 1.45.649 1.45 1.45zm-9.8446 0c0 .8008-.6491 1.45-1.45 1.45H2.414c-.8008 0-1.45-.6492-1.45-1.45V4.1903c0-.8008.6492-1.45 1.45-1.45h1.2037c.8009 0 1.45.6492 1.45 1.45zm8.3946.15a.15.15 0 0 0 .15-.15V3.183a.15.15 0 0 0-.15-.15h-1.2037a.15.15 0 0 0-.15.15v6.987a.15.15 0 0 0 .15.15zm-9.8446 0a.15.15 0 0 0 .15-.15V4.1903a.15.15 0 0 0-.15-.15H2.414a.15.15 0 0 0-.15.15V10.17a.15.15 0 0 0 .15.15zm4.9223 1.3c.8008 0 1.45-.6492 1.45-1.45V6.8022c0-.8008-.6492-1.45-1.45-1.45H7.336c-.8008 0-1.45.6492-1.45 1.45V10.17c0 .8008.6492 1.45 1.45 1.45zm.15-1.45a.15.15 0 0 1-.15.15H7.336a.15.15 0 0 1-.15-.15V6.8022a.15.15 0 0 1 .15-.15H8.54a.15.15 0 0 1 .15.15zm5.6952 2.7765a.65.65 0 0 1 .651.649.65.65 0 0 1-.6489.651l-12.7723.0205a.65.65 0 1 1-.002-1.3z"/></svg>