<svg width="16" height="16" viewBox="0 0 16 16" fill="none" xmlns="http://www.w3.org/2000/svg">
<path d="M8.79939 3.29328C8.75036 3.28521 8.71368 3.24315 8.71368 3.19346V0.895175C8.71368 0.837537 8.76262 0.791786 8.82009 0.796192C12.1576 1.05209 14.8358 3.66364 15.195 6.97121C15.2014 7.02974 15.1552 7.08066 15.0964 7.08066H12.6008C12.5512 7.08066 12.5091 7.04399 12.501 6.99496C12.1893 5.10058 10.6938 3.60506 8.79939 3.29328Z" fill="black"/>
<path d="M8 13.7C11.0201 13.7 13.4916 11.3512 13.6875 8.38065H14.9898C14.7921 12.0696 11.7383 15 8 15C4.13401 15 1 11.866 1 7.99999C1 4.33145 3.82205 1.32203 7.4137 1.0242V2.32978C4.54112 2.6233 2.3 5.04992 2.3 7.99999C2.3 11.148 4.85198 13.7 8 13.7Z" fill="black"/>
</svg>
