<svg width="16" height="16" viewBox="0 0 16 16" fill="none" xmlns="http://www.w3.org/2000/svg">
<path fill-rule="evenodd" clip-rule="evenodd" d="M5.31455 9.83063H8.36541V11.5011H9.80582V9.83063H10.6861V8.43023H9.80582V4.49912H8.36541L5.31455 8.74032V9.83063ZM8.36541 6.63973V8.43023H7.05504L7.70523 7.51998C7.89861 7.24656 8.05199 6.95315 8.16536 6.63973H8.36541Z" fill="black"/>
<path fill-rule="evenodd" clip-rule="evenodd" d="M3.14561 1.84375C1.95819 1.84375 0.995605 2.80634 0.995605 3.99375V12.0063C0.995605 13.1937 1.9582 14.1563 3.14561 14.1563H12.8534C14.0409 14.1563 15.0034 13.1937 15.0034 12.0063V3.99375C15.0034 2.80634 14.0409 1.84375 12.8534 1.84375H3.14561ZM2.29561 3.99375C2.29561 3.52431 2.67616 3.14375 3.14561 3.14375H12.8534C13.3229 3.14375 13.7034 3.52431 13.7034 3.99375V12.0063C13.7034 12.4758 13.3229 12.8563 12.8534 12.8563H3.14561C2.67616 12.8563 2.29561 12.4758 2.29561 12.0063V3.99375Z" fill="black"/>
</svg>
