<svg xmlns="http://www.w3.org/2000/svg" width="16" height="16" fill="none" viewBox="0 0 16 16"><path fill="#000" fill-rule="evenodd" d="M3.35 5.5c0-1.1874.9626-2.15 2.15-2.15h5c1.1874 0 2.15.9626 2.15 2.15v5c0 1.1874-.9626 2.15-2.15 2.15h-5c-1.1874 0-2.15-.9626-2.15-2.15zm2.15-.85a.85.85 0 0 0-.85.85v5a.85.85 0 0 0 .85.85h5a.85.85 0 0 0 .85-.85v-5a.85.85 0 0 0-.85-.85zm5.3174 1.4108a.65.65 0 0 1 0 .9192L7.8581 9.9393a.65.65 0 0 1-.9062.0127L5.1956 8.2915a.65.65 0 0 1 .893-.9447l1.2972 1.2263 2.5124-2.5124a.65.65 0 0 1 .9192 0"/></svg>