<svg width="16" height="16" viewBox="0 0 16 16" fill="none" xmlns="http://www.w3.org/2000/svg">
<path d="M10.8175 6.97523C11.0714 6.72139 11.0714 6.30983 10.8175 6.05599C10.5637 5.80215 10.1521 5.80214 9.89829 6.05598L7.38588 8.56836L6.0888 7.34204C5.82795 7.09541 5.41655 7.10695 5.16993 7.36781C4.9233 7.62866 4.93484 8.04006 5.19569 8.28669L6.95203 9.94721C7.20773 10.189 7.60938 10.1833 7.8582 9.93451L10.8175 6.97523Z" fill="black"/>
<path fill-rule="evenodd" clip-rule="evenodd" d="M5.5001 3.34521C4.31269 3.34521 3.3501 4.3078 3.3501 5.49521V10.4952C3.3501 11.6826 4.31269 12.6452 5.5001 12.6452H10.5001C11.6875 12.6452 12.6501 11.6826 12.6501 10.4952V5.49521C12.6501 4.3078 11.6875 3.34521 10.5001 3.34521H5.5001ZM4.6501 5.49521C4.6501 5.02577 5.03066 4.64521 5.5001 4.64521H10.5001C10.9695 4.64521 11.3501 5.02577 11.3501 5.49521V10.4952C11.3501 10.9647 10.9695 11.3452 10.5001 11.3452H5.5001C5.03066 11.3452 4.6501 10.9647 4.6501 10.4952V5.49521Z" fill="black"/>
</svg>
