<svg xmlns="http://www.w3.org/2000/svg" width="16" height="16" fill="none" viewBox="0 0 16 16"><path fill="#000" fill-rule="evenodd" d="M15.0537 3.166c-.0001-1.0768-.8734-1.9511-1.9502-1.9512H2.9033C1.8266 1.215.9533 2.0893.9531 3.166v1.4092c.0005 1.0764.8737 1.949 1.9502 1.9492h4.8302c.193-.5035.5052-.948.9014-1.2998H2.9033a.65.65 0 0 1-.6494-.6494V3.166a.6494.6494 0 0 1 .6494-.6494h10.2002a.65.65 0 0 1 .6504.6494v.875h.6611c.2197 0 .4331.0267.6387.0733zM5.25 3.8701a.803.803 0 0 0-.8027-.8027c-.443.0002-.8018.3596-.8018.8027.0003.4428.359.8025.8018.8027.443 0 .8024-.3597.8027-.8027m2.4043 0c0-.443-.3587-.8025-.8018-.8027a.803.803 0 0 0-.8027.8027c.0003.443.3598.8027.8027.8027.4429-.0002.8015-.3599.8018-.8027m8.3437 3.0527c0-.8739-.709-1.5829-1.583-1.583h-1.1308a.6504.6504 0 0 0-.6367.5196l-.0137.1308v3.4483a.65.65 0 0 0 .6504.6494c.3588-.0001.6503-.2906.6504-.6494v-.9336h.4804c.874 0 1.583-.7081 1.583-1.582m-3.9306-.9326a.605.605 0 0 0-.4834-.5927l-.1221-.0127h-.3506c-1.2862 0-2.3298 1.0429-2.33 2.329 0 1.2865 1.0436 2.3301 2.33 2.3301h.3506l.1221-.0127a.6054.6054 0 0 0 .4834-.5927.605.605 0 0 0-.4834-.5928l-.1221-.0127h-.3506c-.6179 0-1.1181-.5012-1.1181-1.1191.0002-.6177.5004-1.1182 1.1181-1.1182h.3506l.1221-.0127a.605.605 0 0 0 .4834-.5928m2.3476 1.2149h-.4804v-.5645h.4804a.283.283 0 0 1 .2832.2822.283.283 0 0 1-.2832.2823m-6.9012.5097.0039.171a3.32 3.32 0 0 0 .2012.9775H2.9033a.6494.6494 0 0 0-.6494.6494v.7041H.9531v-.7041c.0001-1.0768.8735-1.95 1.9502-1.9502h4.6144a3.4 3.4 0 0 0-.004.1523m8.4842 4.2793a.651.651 0 0 0-.5175-.6386c-.3074-.064-.6098.1014-.7295.3789l-.0401.125-.208 1.0039-.1406-.416-.041-.0948a.651.651 0 0 0-.5752-.3486.651.651 0 0 0-.6162.4434l-.1426.4267-.2139-1.0156-.04-.125a.6504.6504 0 0 0-.7295-.377.6505.6505 0 0 0-.5029.7696l.7031 3.3545a.6504.6504 0 0 0 1.2529.0742l.2891-.8584.2861.8574a.651.651 0 0 0 .6553.4424.65.65 0 0 0 .5664-.4121l.0313-.1045.6992-3.3545zm-12.4931-.0019c-.0003-.3587-.2908-.6502-.6494-.6504a.651.651 0 0 0-.6504.6504v1.1787l-1.0068-1.5352a.651.651 0 0 0-.7296-.2666.652.652 0 0 0-.456.5176l-.0088.1055v3.3555c0 .3589.2915.6503.6504.6503a.6506.6506 0 0 0 .6504-.6503V14.169l1.0068 1.5352.0654.084a.65.65 0 0 0 .6641.1826.65.65 0 0 0 .4639-.623zm3.626-.0635a1.906 1.906 0 0 0-1.376-.5869c-1.0538.0001-1.909.8554-1.9092 1.9092v.8388c.0002 1.0538.8554 1.9082 1.9092 1.9082 1.0066-.0002 1.831-.7799 1.9033-1.7685l.0049-.2774a.651.651 0 0 0-.6504-.6503h-.791a.651.651 0 0 0-.6504.6503c.0001.3164.227.5788.5264.6368-.098.0673-.215.1093-.3428.1093a.6087.6087 0 0 1-.6084-.6084v-.8388a.609.609 0 0 1 .6084-.6084.606.606 0 0 1 .4385.1865l.0449.0518.0898.0966a.651.651 0 0 0 .8213.0245.65.65 0 0 0 .1895-.7989l-.0684-.1123zm4.0449.0635a.651.651 0 0 0-.5196-.6367l-.1308-.0137h-1.871a.651.651 0 0 0-.6505.6504v3.3555c0 .3589.2915.6503.6504.6503a.6507.6507 0 0 0 .6504-.6503v-.9424H9.83l.1309-.0137a.65.65 0 0 0 .5195-.6367.6506.6506 0 0 0-.5195-.6367l-.131-.0137h-.5253v-.4619h1.2207l.1308-.0137c.2962-.0606.5196-.3226.5196-.6367"/></svg>