<svg width="16" height="16" viewBox="0 0 16 16" fill="none" xmlns="http://www.w3.org/2000/svg">
<path d="M5.99005 5.38999C5.65868 5.38999 5.39005 5.65862 5.39005 5.98999V10.0101C5.39005 10.3415 5.65868 10.6101 5.99005 10.6101H10.0101C10.3415 10.6101 10.6101 10.3415 10.6101 10.0101V5.98999C10.6101 5.65862 10.3415 5.38999 10.0101 5.38999H5.99005Z" fill="black"/>
<path fill-rule="evenodd" clip-rule="evenodd" d="M5.5001 3.3501C4.31269 3.3501 3.3501 4.31269 3.3501 5.5001V10.5001C3.3501 11.6875 4.31269 12.6501 5.5001 12.6501H10.5001C11.6875 12.6501 12.6501 11.6875 12.6501 10.5001V5.5001C12.6501 4.31269 11.6875 3.3501 10.5001 3.3501H5.5001ZM4.6501 5.5001C4.6501 5.03066 5.03066 4.6501 5.5001 4.6501H10.5001C10.9695 4.6501 11.3501 5.03066 11.3501 5.5001V10.5001C11.3501 10.9695 10.9695 11.3501 10.5001 11.3501H5.5001C5.03066 11.3501 4.6501 10.9695 4.6501 10.5001V5.5001Z" fill="black"/>
</svg>
