<svg width="16" height="16" viewBox="0 0 16 16" fill="none" xmlns="http://www.w3.org/2000/svg">
<path fill-rule="evenodd" clip-rule="evenodd" d="M3.3501 5.49521C3.3501 4.3078 4.31269 3.34521 5.5001 3.34521H10.5001C11.6875 3.34521 12.6501 4.3078 12.6501 5.49521V10.4952C12.6501 11.6826 11.6875 12.6452 10.5001 12.6452H5.5001C4.31269 12.6452 3.3501 11.6826 3.3501 10.4952V5.49521ZM10.8175 6.97522C11.0714 6.72138 11.0714 6.30983 10.8175 6.05598C10.5637 5.80214 10.1522 5.80214 9.89831 6.05598L7.3859 8.56835L6.08882 7.34204C5.82796 7.09541 5.41657 7.10695 5.16994 7.3678C4.92332 7.62866 4.93485 8.04006 5.19571 8.28668L6.95205 9.9472C7.20775 10.189 7.6094 10.1833 7.85822 9.9345L10.8175 6.97522Z" fill="black"/>
</svg>
