<svg xmlns="http://www.w3.org/2000/svg" width="16" height="16" fill="none" viewBox="0 0 16 16"><path fill="#000" d="M10.8175 6.9801a.65.65 0 1 0-.9192-.9192L7.3859 8.5732 6.0888 7.347a.65.65 0 1 0-.8931.9447L6.952 9.952a.65.65 0 0 0 .9062-.0127z"/><path fill="#000" fill-rule="evenodd" d="M5.5001 3.3501c-1.1874 0-2.15.9626-2.15 2.15v5c0 1.1874.9626 2.15 2.15 2.15h5c1.1874 0 2.15-.9626 2.15-2.15v-5c0-1.1874-.9626-2.15-2.15-2.15zm-.85 2.15a.85.85 0 0 1 .85-.85h5a.85.85 0 0 1 .85.85v5a.85.85 0 0 1-.85.85h-5a.85.85 0 0 1-.85-.85z" clip-rule="evenodd"/></svg>