<svg width="16" height="16" viewBox="0 0 16 16" fill="none" xmlns="http://www.w3.org/2000/svg">
<path d="M6.14825 5.38511C5.81688 5.38511 5.54825 5.65374 5.54825 5.98511V10.0052C5.54825 10.3366 5.81688 10.6052 6.14825 10.6052H10.1683C10.4997 10.6052 10.7683 10.3366 10.7683 10.0052V5.98511C10.7683 5.65374 10.4997 5.38511 10.1683 5.38511H6.14825Z" fill="black"/>
<path fill-rule="evenodd" clip-rule="evenodd" d="M5.6583 3.34521C4.47089 3.34521 3.5083 4.3078 3.5083 5.49521V10.4952C3.5083 11.6826 4.47089 12.6452 5.6583 12.6452H10.6583C11.8457 12.6452 12.8083 11.6826 12.8083 10.4952V5.49521C12.8083 4.3078 11.8457 3.34521 10.6583 3.34521H5.6583ZM4.8083 5.49521C4.8083 5.02577 5.18886 4.64521 5.6583 4.64521H10.6583C11.1277 4.64521 11.5083 5.02577 11.5083 5.49521V10.4952C11.5083 10.9647 11.1277 11.3452 10.6583 11.3452H5.6583C5.18886 11.3452 4.8083 10.9647 4.8083 10.4952V5.49521Z" fill="black"/>
</svg>
