<svg width="16" height="16" viewBox="0 0 16 16" fill="none" xmlns="http://www.w3.org/2000/svg">
<path d="M8.0001 6.0001C8.55238 6.0001 9.0001 5.55238 9.0001 5.0001C9.0001 4.44781 8.55238 4.0001 8.0001 4.0001C7.44781 4.0001 7.0001 4.44781 7.0001 5.0001C7.0001 5.55238 7.44781 6.0001 8.0001 6.0001Z" fill="black"/>
<path fill-rule="evenodd" clip-rule="evenodd" d="M8.0001 1.3501C4.3274 1.3501 1.3501 4.3274 1.3501 8.0001C1.3501 11.6728 4.3274 14.6501 8.0001 14.6501C11.6728 14.6501 14.6501 11.6728 14.6501 8.0001C14.6501 4.3274 11.6728 1.3501 8.0001 1.3501ZM2.6501 8.0001C2.6501 5.04537 5.04537 2.6501 8.0001 2.6501C10.9548 2.6501 13.3501 5.04537 13.3501 8.0001C13.3501 10.9548 10.9548 13.3501 8.0001 13.3501C5.04537 13.3501 2.6501 10.9548 2.6501 8.0001Z" fill="black"/>
</svg>
