<svg xmlns="http://www.w3.org/2000/svg" width="16" height="16" fill="none" viewBox="0 0 16 16"><g clip-path="url(#a)"><path fill="#fff" d="M8.0004 11.6665c2.025 0 3.6669-1.6416 3.6669-3.667s-1.6416-3.667-3.667-3.667-3.6669 1.6417-3.6669 3.667c0 2.0254 1.6416 3.667 3.667 3.667"/><path fill="url(#b)" d="m4.8246 9.8336-3.175-5.4993A7.3317 7.3317 0 0 0 4.334 14.3516a7.33 7.33 0 0 0 3.667.9817l3.1749-5.4996a3.664 3.664 0 0 1-3.1755 1.8329 3.67 3.67 0 0 1-1.8335-.4902 3.664 3.664 0 0 1-1.3423-1.3427"/><path fill="url(#c)" d="m11.1759 9.8336-3.175 5.4996a7.327 7.327 0 0 0 3.6664-.9826 7.331 7.331 0 0 0 3.6661-6.351 7.33 7.33 0 0 0-.9834-3.6664l-6.3496-.0006-.0012.0012a3.6667 3.6667 0 0 1 3.1767 5.4998"/><path fill="#1a73e8" d="M8.0004 10.9032c1.6033 0 2.903-1.2997 2.903-2.903s-1.2997-2.903-2.903-2.903-2.903 1.2996-2.903 2.903 1.2996 2.903 2.903 2.903"/><path fill="url(#d)" d="m8.0004 4.3326 6.3496.0006a7.3317 7.3317 0 0 0-12.7004.0011l3.175 5.4993.0008.0006a3.665 3.665 0 0 1-.492-1.8335c0-.6438.1691-1.2764.4909-1.8338a3.663 3.663 0 0 1 1.3423-1.3423 3.663 3.663 0 0 1 1.8338-.492"/></g><defs><linearGradient id="b" x1="12" x2="4" y1="15" y2="0" gradientUnits="userSpaceOnUse"><stop stop-color="#1e8e3e"/><stop offset="1" stop-color="#34a853"/></linearGradient><linearGradient id="c" x1="-1" x2="5" y1="15" y2="-2" gradientUnits="userSpaceOnUse"><stop stop-color="#fcc934"/><stop offset="1" stop-color="#fbbc04"/></linearGradient><linearGradient id="d" x1="2" x2="14" y1="5" y2="5" gradientUnits="userSpaceOnUse"><stop stop-color="#d93025"/><stop offset="1" stop-color="#ea4335"/></linearGradient><clipPath id="a"><path fill="#fff" d="M0 0h16v16H0z"/></clipPath></defs></svg>