<svg xmlns="http://www.w3.org/2000/svg" width="16" height="16" fill="none" viewBox="0 0 16 16"><path fill="#000" fill-rule="evenodd" d="M7.9937.9983c-1.1016 0-1.9946.893-1.9946 1.9946v3.6085a2.45 2.45 0 0 0-2.3213 1.8731l-.9572 3.956c-.3122 1.29.6652 2.5321 1.9925 2.5321h6.47c1.3273 0 2.3047-1.2421 1.9925-2.5321l-.9572-3.956a2.45 2.45 0 0 0-2.2301-1.8692V2.993c0-1.1016-.893-1.9946-1.9946-1.9946M7.2991 2.993a.6946.6946 0 1 1 1.3892 0v3.3837H7.299zM4.9413 8.7803a1.15 1.15 0 0 1 1.1178-.8796h3.778a1.15 1.15 0 0 1 1.1178.8796l.1504.6216H4.7909zm-.465 1.9216H11.42l.4922 2.0343c.1142.472-.2434.9264-.729.9264h-3.695v-.7688a.65.65 0 0 0-1.3 0v.7688h-1.475c-.4856 0-.8432-.4544-.729-.9264z"/></svg>