<svg width="16" height="16" viewBox="0 0 16 16" fill="none" xmlns="http://www.w3.org/2000/svg">
<path d="M8.65 4.55362C8.65 4.19463 8.35898 3.90362 8 3.90362C7.64102 3.90362 7.35 4.19463 7.35 4.55362V8.02921C7.35 8.25387 7.46602 8.46261 7.65681 8.58122L10.4627 10.3256C10.7675 10.5151 11.1683 10.4216 11.3579 10.1168C11.5474 9.81189 11.4539 9.4111 11.149 9.22156L8.65 7.66793V4.55362Z" fill="black"/>
<path fill-rule="evenodd" clip-rule="evenodd" d="M15 8C15 11.866 11.866 15 8 15C4.13401 15 1 11.866 1 8C1 4.13401 4.13401 1 8 1C11.866 1 15 4.13401 15 8ZM13.7 8C13.7 11.148 11.148 13.7 8 13.7C4.85198 13.7 2.3 11.148 2.3 8C2.3 4.85198 4.85198 2.3 8 2.3C11.148 2.3 13.7 4.85198 13.7 8Z" fill="black"/>
</svg>
