<svg xmlns="http://www.w3.org/2000/svg" width="16" height="16" fill="none" viewBox="0 0 16 16"><path fill="#000" fill-rule="evenodd" d="M8 1.8482c-2.2253 0-4.081 1.5798-4.5076 3.6794C2.102 5.7891 1.05 7.0098 1.05 8.4762c0 1.6571 1.3433 3.0004 3.0004 3.0004h.545a2 2 0 0 1 .1707-.1948l.4762-.4762-.4761-.4762a2 2 0 0 1-.1377-.1528h-.5781c-.939 0-1.7004-.7613-1.7004-1.7004S3.1112 6.776 4.0503 6.776h.0111a.65.65 0 0 0 .6497-.5977c.1368-1.696 1.5573-3.03 3.2888-3.03s3.152 1.334 3.2888 3.03a.65.65 0 0 0 .6514.5977h.0095c.9391 0 1.7003.7612 1.7003 1.7003s-.7612 1.7004-1.7003 1.7004h-.5781a2 2 0 0 1-.1377.1528l-.4762.4762.4763.4762q.093.093.1707.1948h.545c1.657 0 3.0003-1.3433 3.0003-3.0004 0-1.4664-1.052-2.6871-2.4425-2.9486-.4265-2.0996-2.2822-3.6794-4.5075-3.6794m2.3146 7.562a.65.65 0 0 0-.9193-.9193L8 9.8863 6.6046 8.4909a.65.65 0 1 0-.9192.9193l1.3954 1.3953-1.3955 1.3955a.65.65 0 0 0 .9192.9193L8 11.7248l1.3955 1.3955a.65.65 0 0 0 .9192-.9193l-1.3955-1.3955z"/></svg>