<svg width="16" height="16" viewBox="0 0 16 16" fill="none" xmlns="http://www.w3.org/2000/svg">
<path fill-rule="evenodd" clip-rule="evenodd" d="M3.49231 5.5276C3.91881 3.42798 5.77453 1.84814 7.9998 1.84814C10.2251 1.84814 12.0808 3.42798 12.5073 5.5276C13.8978 5.78905 14.9498 7.00976 14.9498 8.47618C14.9498 10.1332 13.6065 11.4765 11.9495 11.4765H4.05015C2.3931 11.4765 1.0498 10.1332 1.0498 8.47618C1.0498 7.00976 2.10183 5.78904 3.49231 5.5276ZM7.9998 3.14814C6.26832 3.14814 4.84778 4.48225 4.71098 6.17813C4.68369 6.51643 4.40072 6.77678 4.06133 6.77587L4.05015 6.77584C3.11107 6.77584 2.3498 7.53711 2.3498 8.47618C2.3498 9.41526 3.11107 10.1765 4.05015 10.1765H11.9495C12.8885 10.1765 13.6498 9.41526 13.6498 8.47618C13.6498 7.53711 12.8885 6.77584 11.9495 6.77584L11.94 6.77586C11.6 6.77768 11.316 6.51709 11.2886 6.17814C11.1518 4.48225 9.73129 3.14814 7.9998 3.14814Z" fill="black"/>
</svg>
