<svg xmlns="http://www.w3.org/2000/svg" width="16" height="16" fill="none" viewBox="0 0 16 16"><path fill="#000" fill-rule="evenodd" d="M3.4924 6.4238C3.919 4.3242 5.7747 2.7443 8 2.7443s4.081 1.5799 4.5075 3.6795c1.3905.2614 2.4425 1.4821 2.4425 2.9486 0 1.657-1.3433 3.0003-3.0003 3.0003H4.0503c-1.657 0-3.0004-1.3433-3.0004-3.0003 0-1.4665 1.052-2.6872 2.4425-2.9486M8 4.0443c-1.7315 0-3.152 1.3341-3.2888 3.03a.65.65 0 0 1-.6497.5977h-.0111c-.9391 0-1.7004.7613-1.7004 1.7004s.7613 1.7003 1.7004 1.7003h7.8993c.9391 0 1.7003-.7613 1.7003-1.7003 0-.9391-.7612-1.7004-1.7003-1.7004h-.0095a.65.65 0 0 1-.6513-.5977c-.1368-1.6959-1.5574-3.03-3.2889-3.03"/></svg>