<svg xmlns="http://www.w3.org/2000/svg" width="16" height="16" fill="none" viewBox="0 0 16 16"><path fill="#000" fill-rule="evenodd" d="M7.9998.2836a.65.65 0 0 1 .65.65v.4477c1.6088.156 3.0499.8853 4.1163 1.981l.3694-.2946a.65.65 0 0 1 .8106 1.0164l-.3682.2937C14.256 5.4199 14.65 6.6639 14.65 8c0 .2825-.0176.5609-.0518.834l.4688.1071a.65.65 0 1 1-.2892 1.2674l-.4668-.1065c-.5004 1.5029-1.5226 2.7674-2.8517 3.5785l.1903.395a.6501.6501 0 0 1-1.1713.5641l-.1897-.3939A6.64 6.64 0 0 1 8 14.65a6.64 6.64 0 0 1-2.289-.4045l-.1898.3941a.65.65 0 0 1-1.1712-.5641l.1903-.3952c-1.329-.8112-2.351-2.0756-2.8513-3.5784l-.4672.1066a.65.65 0 0 1-.2893-1.2674l.4693-.1071A6.7 6.7 0 0 1 1.35 8c0-1.336.394-2.5799 1.072-3.622l-.3685-.2939a.65.65 0 1 1 .8105-1.0164l.3697.2949c1.0664-1.0958 2.5073-1.8251 4.116-1.9812V.9336a.65.65 0 0 1 .65-.65m-.65 5.5096V2.689c-1.1982.1452-2.2743.6864-3.0935 1.489l2.3442 1.8694a.66.66 0 0 1 .076.0712 2.29 2.29 0 0 1 .6733-.3255m1.3-.0002c.2409.0709.4654.18.6664.3206l2.4273-1.9357c-.8193-.8026-1.8954-1.3438-3.0937-1.4889zm1.4792 1.3351a2.29 2.29 0 0 1 .1663.7239l3.0275.691A5.4 5.4 0 0 0 13.35 8c0-1.0294-.2907-1.991-.7946-2.8069zm-.1197 1.992a2.31 2.31 0 0 1-.465.5843l.0077.0155 1.3397 2.782c.9814-.6317 1.7428-1.5754 2.144-2.691zM8.374 10.2696a2.32 2.32 0 0 1-.7484 0l-1.347 2.7974A5.34 5.34 0 0 0 8 13.35c.602 0 1.181-.0995 1.721-.2829l-1.3403-2.7832zM6.4552 9.704a2.31 2.31 0 0 1-.4645-.584l-3.0265.6908c.4012 1.1155 1.1625 2.0592 2.1437 2.6909zm-.7505-1.8521a2.29 2.29 0 0 1 .1693-.731.65.65 0 0 1-.084-.057L3.4444 5.1934C2.9407 6.0093 2.65 6.9707 2.65 8q.0001.275.0272.5429zM9 7.9999c0 .5524-.4477 1-1 1s-1-.4476-1-1c0-.5522.4477-1 1-1s1 .4478 1 1"/></svg>