<svg xmlns="http://www.w3.org/2000/svg" width="16" height="16" fill="none" viewBox="0 0 16 16"><path fill="#000" fill-rule="evenodd" d="M12.0166 1.9968v.6865H10.65V2a.65.65 0 0 0-.0476-.2494v-.0002h-.0001a.65.65 0 0 0-.1427-.21.65.65 0 0 0-.2101-.1428A.65.65 0 0 0 10 1.35H6a.65.65 0 0 0-.2494.0475h-.0002a.65.65 0 0 0-.21.1428.65.65 0 0 0-.1428.2101v.0002A.65.65 0 0 0 5.35 2v.6833H3.9833V2c0-.2594-.1452-.4792-.3603-.584a.6.6 0 0 0-.0402-.0184.65.65 0 0 0-.2495-.0476.65.65 0 0 0-.2495.0476h-.0002a.6.6 0 0 0-.04.0183.64.64 0 0 0-.2943.2944.6.6 0 0 0-.016.0343l-.0024.006A.65.65 0 0 0 2.6833 2v8.6669q0 .0083.0002.0164H2a.65.65 0 0 0-.2492.0475l-.0002.0001h-.0002v.0001a.65.65 0 0 0-.21.1427.65.65 0 0 0-.1427.2098l-.0001.0003a.65.65 0 0 0-.0476.2495V14q0 .1344.0475.2492v.0003l.0001.0001.0001.0002a.65.65 0 0 0 .1427.2098.65.65 0 0 0 .21.1427v.0001h.0002l.0002.0001A.65.65 0 0 0 2 14.65h.6833v.0168a.65.65 0 0 0 .0476.2492v.0002a.6.6 0 0 0 .0184.0401.64.64 0 0 0 .2944.2944.6.6 0 0 0 .0402.0184.64.64 0 0 0 .2462.0475h.0034a.64.64 0 0 0 .2494-.0476.6.6 0 0 0 .04-.0183.64.64 0 0 0 .2944-.2944.6.6 0 0 0 .0183-.04l.0001-.0001a.64.64 0 0 0 .0476-.2464V14.65h8.0333v.0168a.65.65 0 0 0 .0476.2493l.0026.0062a.6.6 0 0 0 .0158.034.638.638 0 0 0 .2944.2943.6.6 0 0 0 .0402.0184.64.64 0 0 0 .2462.0476h.0035a.65.65 0 0 0 .2491-.0475l.0038-.0016a.6.6 0 0 0 .0365-.0169.64.64 0 0 0 .2944-.2943.6.6 0 0 0 .0184-.0403l.0001-.0001a.65.65 0 0 0 .0474-.2461V14.65H14a.65.65 0 0 0 .2492-.0475l.0002-.0001h.0001l.0001-.0001h.0002a.65.65 0 0 0 .2098-.1427.65.65 0 0 0 .1427-.2098v-.0002l.0001-.0001v-.0001l.0001-.0002A.65.65 0 0 0 14.65 14v-2.6667a.65.65 0 0 0-.0475-.2492l-.0001-.0002v-.0001l-.0001-.0001a.65.65 0 0 0-.1427-.21.65.65 0 0 0-.2098-.1427h-.0002l-.0001-.0001h-.0001l-.0002-.0001A.65.65 0 0 0 14 10.6833h-.6835l.0001-.0135v-8.67a.65.65 0 0 0-.0476-.2494.6.6 0 0 0-.0183-.04.64.64 0 0 0-.2944-.2945.6.6 0 0 0-.04-.0183.64.64 0 0 0-.2465-.0476h-.0034a.65.65 0 0 0-.2492.0475l-.002.0009a.6.6 0 0 0-.0382.0175.64.64 0 0 0-.2944.2944.6.6 0 0 0-.0184.0402.65.65 0 0 0-.0476.2463m.0002 8.6865-.0002-.0164V3.9833H10.65V4a.65.65 0 0 1-.0476.2495.65.65 0 0 1-.1428.21.65.65 0 0 1-.2101.1429A.65.65 0 0 1 10 4.65h-.6836l.0002.0166v.0032a.65.65 0 0 1-.0475.2462.6.6 0 0 1-.0184.0403c-.105.2152-.3247.3604-.584.3604H8.65v2.0198a.645.645 0 0 1-.0512.2548 1 1 0 0 1-.0148.0317c-.1049.2151-.3247.3603-.584.3603h-.0032a.64.64 0 0 1-.246-.0475h-.0003l-.0036-.0016-.0007-.0003a.6.6 0 0 1-.0359-.0166c-.2151-.1049-.3603-.3246-.3603-.584V5.3166h-.02a.65.65 0 0 1-.2463-.0476h-.0001a.6.6 0 0 1-.04-.0183c-.2152-.105-.3604-.3247-.3604-.584v-.0033q0-.0068.0002-.0134H6a.65.65 0 0 1-.2494-.0476h-.0002a.65.65 0 0 1-.21-.1428.65.65 0 0 1-.1428-.2101A.65.65 0 0 1 5.35 4v-.0167H3.9833v6.6865l-.0002.0135H5.35v-1.35a.65.65 0 0 1 .0475-.2494v-.0001h.0001l.0001-.0003a.65.65 0 0 1 .1427-.2098.65.65 0 0 1 .21-.1427l.0002-.0001.0002-.0001A.65.65 0 0 1 6 8.6833h4a.65.65 0 0 1 .2492.0475h.0002l.0001.0001h.0001l.0002.0001a.65.65 0 0 1 .2098.1427.65.65 0 0 1 .1427.21h.0001v.0002l.0001.0002a.65.65 0 0 1 .0475.2492v1.35zM9.35 3.3293V3.35h-2.7v-.7h2.7zM12.6706 13.35h.6794v-1.3667H2.65V13.35zM9.35 9.9833v.7h-2.7v-.7z"/></svg>