<svg xmlns="http://www.w3.org/2000/svg" width="16" height="16" fill="none" viewBox="0 0 16 16"><path fill="#000" fill-rule="evenodd" d="M8.65 5a.65.65 0 1 0-1.3 0v3.3333a.65.65 0 1 0 1.3 0zm-3.5237-.4596a.65.65 0 0 1 0 .9192l-2.207 2.207 2.207 2.2071a.65.65 0 1 1-.9193.9192L1.5404 8.1263a.65.65 0 0 1 0-.9193L4.207 4.5404a.65.65 0 0 1 .9193 0m7.9544 3.1262-2.207-2.207a.65.65 0 0 1 .9192-.9192l2.6667 2.6666a.65.65 0 0 1 0 .9193l-2.6667 2.6666a.65.65 0 0 1-.9192-.9192zM8 11a.6667.6667 0 1 0 0-1.3334A.6667.6667 0 0 0 8 11"/></svg>