<svg xmlns="http://www.w3.org/2000/svg" width="16" height="16" fill="none" viewBox="0 0 16 16"><path d="M0 16h16V0H0z"/><path fill="#000" fill-rule="evenodd" d="M6.2679 5.3579a.65.65 0 1 1-.78 1.04l-2.8294-2.122a.65.65 0 0 1 0-1.04l2.8294-2.1222a.65.65 0 0 1 .78 1.04L4.1318 3.7558zm3.3342.91a.65.65 0 0 1 .13-.91l2.1361-1.602-2.1361-1.6022a.65.65 0 1 1 .78-1.04l2.8294 2.1221a.65.65 0 0 1 0 1.04L10.5121 6.398a.65.65 0 0 1-.91-.13M8 12.8942a.65.65 0 0 0 .4596-.1904l2.1221-2.1221a.65.65 0 0 0-.9192-.9192L8.65 10.6749V3.0485a.65.65 0 0 0-1.3 0v7.6264L6.3375 9.6625a.65.65 0 0 0-.9192.9192l2.122 2.1221A.65.65 0 0 0 8 12.8942m-4.3589 2.122c-1.077 0-1.95-.873-1.95-1.95V9.3c0-1.077.873-1.95 1.95-1.95h.5863a.65.65 0 1 1 0 1.3h-.5863a.65.65 0 0 0-.65.65v3.7662c0 .359.291.65.65.65h8.7178a.65.65 0 0 0 .65-.65V9.3a.65.65 0 0 0-.65-.65h-.5863a.65.65 0 1 1 0-1.3h.5863c1.0769 0 1.95.873 1.95 1.95v3.7662c0 1.077-.8731 1.95-1.95 1.95z"/></svg>