<svg width="16" height="16" viewBox="0 0 16 16" fill="none" xmlns="http://www.w3.org/2000/svg">
<path d="M9.60164 3.46165C9.68186 3.11174 9.46323 2.76305 9.11332 2.68284C8.76341 2.60262 8.41473 2.82125 8.33451 3.17116L6.18709 12.5384C6.10687 12.8883 6.3255 13.237 6.67541 13.3172C7.02532 13.3974 7.374 13.1788 7.45422 12.8289L9.60164 3.46165Z" fill="black"/>
<path d="M4.99622 4.76401C5.25006 5.01785 5.25007 5.42941 4.99622 5.68325L2.57021 8.10927L4.99622 10.5353C5.25006 10.7891 5.25006 11.2007 4.99622 11.4545C4.74238 11.7084 4.33083 11.7084 4.07698 11.4545L1.19136 8.56889C0.937517 8.31505 0.937516 7.90349 1.19136 7.64965L4.07698 4.76401C4.33082 4.51017 4.74238 4.51017 4.99622 4.76401Z" fill="black"/>
<path d="M11.003 4.76401C10.7492 5.01785 10.7492 5.42941 11.003 5.68325L13.429 8.10927L11.003 10.5353C10.7492 10.7891 10.7492 11.2007 11.003 11.4545C11.2568 11.7084 11.6684 11.7084 11.9222 11.4545L14.8079 8.56889C15.0617 8.31505 15.0617 7.90349 14.8079 7.64965L11.9222 4.76401C11.6684 4.51017 11.2568 4.51017 11.003 4.76401Z" fill="black"/>
</svg>
