<svg xmlns="http://www.w3.org/2000/svg" width="16" height="16" fill="none" viewBox="0 0 16 16"><path fill="#000" fill-rule="evenodd" d="M9.6016 3.4616a.65.65 0 1 0-1.267-.2904L6.187 12.5384a.65.65 0 1 0 1.2671.2905zm1.4014 2.2216a.65.65 0 0 1 .9192-.9192l2.8857 2.8857a.65.65 0 0 1 0 .9192l-2.8857 2.8856a.65.65 0 0 1-.9192-.9192l2.426-2.426zM4.9962 4.764a.65.65 0 0 1 0 .9192l-2.426 2.426 2.426 2.4261a.65.65 0 1 1-.9192.9192L1.1914 8.5689a.65.65 0 0 1 0-.9192L4.077 4.764a.65.65 0 0 1 .9192 0"/></svg>