<svg xmlns="http://www.w3.org/2000/svg" width="16" height="16" fill="none" viewBox="0 0 16 16"><path fill="#000" fill-rule="evenodd" d="M6.4544 1.0064c-.8008 0-1.45.6492-1.45 1.45v1.0952c0 .8008.6492 1.45 1.45 1.45h1.8954a.35.35 0 0 1 .35.35v5.4608a.35.35 0 0 1-.35.35h-.3445V8.1655c0-.8008-.6492-1.45-1.45-1.45H4.8c-.7466 0-1.3613.5642-1.4412 1.2894h-.6921a.65.65 0 0 0 0 1.3H3.35v1.8611c-.753.0525-1.3477.68-1.3477 1.4464v.939c0 .8009.6492 1.45 1.45 1.45h9.0999c.8008 0 1.45-.6491 1.45-1.45V2.4564c0-.8008-.6492-1.45-1.45-1.45zm-.15 1.45a.15.15 0 0 1 .15-.15h6.0978a.15.15 0 0 1 .15.15v11.095a.15.15 0 0 1-.15.15H3.4523a.15.15 0 0 1-.15-.15v-.939a.15.15 0 0 1 .15-.15h4.8975c.9113 0 1.65-.7387 1.65-1.65V5.3516c0-.9113-.7387-1.65-1.65-1.65H6.4544a.15.15 0 0 1-.15-.15zm5.6962 1.9158a.6347.6347 0 1 1-1.2694 0 .6347.6347 0 0 1 1.2694 0m-.6347 2.618a.6347.6347 0 1 0 0-1.2695.6347.6347 0 0 0 0 1.2695m-6.716 4.1722h2.0554V8.1655a.15.15 0 0 0-.15-.15H4.8a.15.15 0 0 0-.15.15z"/></svg>