<svg xmlns="http://www.w3.org/2000/svg" width="16" height="16" fill="none" viewBox="0 0 16 16"><path fill="#000" fill-rule="evenodd" d="M8.65 1.3334a.65.65 0 0 0-1.3 0v3.0974l-1.557-1.557a.65.65 0 0 0-.9193.9192l2.6667 2.6666a.65.65 0 0 0 .9192 0l2.6667-2.6666a.65.65 0 0 0-.9193-.9193L8.65 4.4307zM8.6667 8a.6667.6667 0 1 1-1.3334 0 .6667.6667 0 0 1 1.3334 0m2 .6667A.6666.6666 0 0 0 11.3333 8 .6666.6666 0 1 0 10 8c0 .3682.2985.6667.6667.6667M3.3333 8A.6667.6667 0 1 1 2 8a.6667.6667 0 0 1 1.3333 0M6 8a.6667.6667 0 1 1-1.3333 0A.6667.6667 0 0 1 6 8m8 0a.6667.6667 0 1 1-1.3334 0A.6667.6667 0 0 1 14 8m-5.35 6.6667v-3.0975l1.557 1.5571a.65.65 0 0 0 .9193-.9192L8.4596 9.5404a.65.65 0 0 0-.9192 0L4.8737 12.207a.65.65 0 1 0 .9193.9192l1.557-1.5571v3.0975a.65.65 0 1 0 1.3 0"/></svg>