<svg width="16" height="16" viewBox="0 0 16 16" fill="none" xmlns="http://www.w3.org/2000/svg">
<path fill-rule="evenodd" clip-rule="evenodd" d="M2.66243 3.80236C2.6588 3.75775 2.6569 3.712 2.6569 3.66509C2.6569 2.75918 3.36435 2.2849 3.63155 2.12856C3.99189 1.91772 4.42458 1.77358 4.84272 1.67011C5.69962 1.45804 6.8133 1.34082 7.99438 1.34082C9.17548 1.34082 10.2891 1.45804 11.1461 1.67011C11.5642 1.77358 11.9969 1.91772 12.3572 2.12856C12.6244 2.2849 13.3319 2.75918 13.3319 3.66509C13.3319 3.73812 13.3273 3.80835 13.3187 3.87583L13.3262 6.38473C12.9054 6.21511 12.4579 6.09761 11.9919 6.04023L11.9899 5.38526C11.72 5.50099 11.4297 5.58989 11.1461 5.66008C10.2891 5.87215 9.17548 5.98937 7.99438 5.98937C6.8133 5.98937 5.69962 5.87215 4.84272 5.66008C4.55603 5.58913 4.2625 5.49907 3.99015 5.38151L3.99027 8.07991C4.01606 8.13007 4.14337 8.33952 4.6895 8.56703C5.10655 8.74077 5.71017 8.89613 6.54573 8.98079C6.34667 9.38513 6.19733 9.81835 6.10568 10.2725C5.31298 10.1716 4.67626 10.0059 4.17676 9.79783C4.11338 9.77143 4.05119 9.74385 3.99034 9.71511L3.99046 12.4986C3.99947 12.5127 4.01767 12.5371 4.05207 12.5713C4.14871 12.6675 4.33607 12.8005 4.65688 12.934C5.05672 13.1004 5.62521 13.2517 6.39128 13.3418C6.59969 13.8541 6.88542 14.3267 7.23401 14.7451C5.88716 14.6855 4.86993 14.4669 4.14448 14.1649C3.71721 13.9871 3.36613 13.7699 3.11134 13.5162C2.86186 13.2678 2.65713 12.9332 2.65713 12.5389L2.65674 3.80239L2.66243 3.80236ZM10.8482 4.36018C10.8706 4.35456 10.8927 4.34888 10.9145 4.34313C11.5868 4.16587 11.9985 3.92738 11.9985 3.66509C11.9985 3.40281 11.5868 3.16432 10.9145 2.98706C10.8927 2.98131 10.8706 2.97563 10.8482 2.97001C10.1219 2.78739 9.11159 2.67415 7.99438 2.67415C6.87718 2.67415 5.86684 2.78739 5.14053 2.97001C5.11817 2.97563 5.09609 2.98131 5.07428 2.98706C4.402 3.16432 3.99023 3.4028 3.99023 3.66509C3.99023 3.92738 4.402 4.16587 5.07428 4.34313C5.09609 4.34888 5.11817 4.35456 5.14053 4.36018C5.86684 4.5428 6.87718 4.65603 7.99438 4.65603C9.11159 4.65603 10.1219 4.5428 10.8482 4.36018Z" fill="black"/>
<path d="M10.0306 10.1805V12.2279C10.0306 12.3466 10.1742 12.4061 10.2582 12.3221L10.8232 11.7572L11.8778 12.8118C11.9299 12.8639 12.0143 12.8639 12.0664 12.8118L12.7829 12.0953C12.835 12.0432 12.835 11.9588 12.7829 11.9067L11.7283 10.852L12.3056 10.2748C12.3895 10.1908 12.3301 10.0472 12.2113 10.0472H10.1639C10.0903 10.0472 10.0306 10.1069 10.0306 10.1805Z" fill="black"/>
<path fill-rule="evenodd" clip-rule="evenodd" d="M7.3335 11.3333C7.3335 9.12419 9.12436 7.33333 11.3335 7.33333C13.5426 7.33333 15.3335 9.12419 15.3335 11.3333C15.3335 13.5425 13.5426 15.3333 11.3335 15.3333C9.12436 15.3333 7.3335 13.5425 7.3335 11.3333ZM11.3335 8.66667C9.86074 8.66667 8.66683 9.86057 8.66683 11.3333C8.66683 12.8061 9.86074 14 11.3335 14C12.8063 14 14.0002 12.8061 14.0002 11.3333C14.0002 9.86057 12.8063 8.66667 11.3335 8.66667Z" fill="black"/>
</svg>
