<svg xmlns="http://www.w3.org/2000/svg" width="16" height="16" fill="none" viewBox="0 0 16 16"><path fill="#000" fill-rule="evenodd" d="M3.625.9954C2.1753.9954 1 2.1706 1 3.6204v5.9532q0 .0227.0004.0453L1 13.9526c0 .958 1.1776 1.4157 1.8245.7091l1.9948-2.1789a.875.875 0 0 1 .6454-.2842h6.9102c1.4497 0 2.625-1.1752 2.625-2.625V3.6204c0-1.4498-1.1753-2.625-2.625-2.625zM2.3002 13.3093l.0002-3.6904L2.3 9.5736V3.6204c0-.7318.5932-1.325 1.325-1.325h8.75c.7318 0 1.325.5932 1.325 1.325v5.9532c0 .7318-.5932 1.325-1.325 1.325H5.4648a2.175 2.175 0 0 0-1.6042.7063zm2.1913-8.128a.65.65 0 0 1 .65-.65h5.7169a.65.65 0 0 1 0 1.3h-5.717a.65.65 0 0 1-.65-.65m.65 1.9727a.65.65 0 0 0 0 1.3h2.8584a.65.65 0 0 0 0-1.3z"/></svg>