<svg xmlns="http://www.w3.org/2000/svg" width="16" height="16" fill="none" viewBox="0 0 16 16"><path fill="#000" fill-rule="evenodd" d="M3.4.6834c-1.1322 0-2.05.9178-2.05 2.05v9.1999c0 1.1322.9178 2.05 2.05 2.05h3.3v-1.3H3.4a.75.75 0 0 1-.75-.75v-9.2a.75.75 0 0 1 .75-.75h6.5333a.75.75 0 0 1 .7497.7267q.1572-.01.317-.01c.3366 0 .6655.0335.9833.0973v-.064c0-1.1321-.9178-2.05-2.05-2.05zM10.9999 4c-2.025 0-3.6666 1.6416-3.6666 3.6667 0 .785.2466 1.5122.6666 2.1087v4.8913a.6665.6665 0 0 0 1.0542.5424l1.9458-1.3898 1.9459 1.3898a.6664.6664 0 0 0 1.0541-.5424V9.7754a3.65 3.65 0 0 0 .6667-2.1087C14.6666 5.6417 13.025 4 10.9999 4M8.6666 7.6667c0-1.2887 1.0447-2.3334 2.3333-2.3334s2.3334 1.0447 2.3334 2.3334c0 1.2886-1.0447 2.3333-2.3334 2.3333-1.2886 0-2.3333-1.0447-2.3333-2.3333m4 3.2668a3.65 3.65 0 0 1-1.6667.3998 3.65 3.65 0 0 1-1.6666-.3998v2.4377l1.2791-.9137a.667.667 0 0 1 .775 0l1.2792.9137z"/></svg>