<svg xmlns="http://www.w3.org/2000/svg" width="16" height="16" fill="none" viewBox="0 0 16 16"><path fill="#000" fill-rule="evenodd" d="M5.35 2.666c0-.9113.7387-1.65 1.65-1.65h6c.9112 0 1.65.7387 1.65 1.65v4c0 .803-.5737 1.472-1.3335 1.6197v3.0463c0 .9113-.7388 1.65-1.65 1.65h-1.35v.7h.35a.65.65 0 1 1 0 1.3h-4a.65.65 0 1 1 0-1.3h.35v-.7h-1.35c-.9113 0-1.65-.7387-1.65-1.65v-1.016H3c-.9113 0-1.65-.7387-1.65-1.65v-4c0-.9113.7387-1.65 1.65-1.65h2.35zm2.9665 10.316v.7h.7v-.7zm3.35-1.3a.35.35 0 0 0 .35-.35v-4a.35.35 0 0 0-.35-.35h-6a.35.35 0 0 0-.35.35v4a.35.35 0 0 0 .35.35zM13.35 6.666a.35.35 0 0 1-.0904.2348c-.1896-.7022-.8311-1.2188-1.5931-1.2188H10.65V4.666c0-.9113-.7387-1.65-1.65-1.65H6.65v-.35a.35.35 0 0 1 .35-.35h6a.35.35 0 0 1 .35.35zm-4-.984V4.666a.35.35 0 0 0-.35-.35H3a.35.35 0 0 0-.35.35v4a.35.35 0 0 0 .35.35h1.0165V7.332c0-.9113.7387-1.65 1.65-1.65z"/></svg>