<svg width="16" height="16" viewBox="0 0 16 16" fill="none" xmlns="http://www.w3.org/2000/svg">
<path d="M1.3501 2.73335C1.3501 1.60116 2.26791 0.68335 3.4001 0.68335H9.93343C11.0656 0.68335 11.9834 1.60117 11.9834 2.73335V2.79734C11.6656 2.73351 11.3368 2.70001 11.0001 2.70001C10.8936 2.70001 10.7879 2.70337 10.6831 2.70997C10.6707 2.30657 10.3398 1.98335 9.93343 1.98335H3.4001C2.98588 1.98335 2.6501 2.31914 2.6501 2.73335V11.9333C2.6501 12.3476 2.98588 12.6833 3.4001 12.6833H6.70011V13.9833H3.4001C2.26791 13.9833 1.3501 13.0655 1.3501 11.9333V2.73335Z" fill="black"/>
<path fill-rule="evenodd" clip-rule="evenodd" d="M7.33337 7.66667C7.33337 5.64162 8.975 4 11 4C13.0251 4 14.6667 5.64162 14.6667 7.66667C14.6667 8.45161 14.4201 9.17894 14 9.77539V14.6667C14 14.9164 13.8605 15.1452 13.6384 15.2594C13.4164 15.3737 13.1491 15.3543 12.9459 15.2092L11 13.8193L9.0542 15.2092C8.85099 15.3543 8.5837 15.3737 8.36165 15.2594C8.13961 15.1452 8.00004 14.9164 8.00004 14.6667V9.77539C7.58002 9.17894 7.33337 8.45161 7.33337 7.66667ZM11 5.33333C9.71138 5.33333 8.66671 6.378 8.66671 7.66667C8.66671 8.95533 9.71138 10 11 10C12.2887 10 13.3334 8.95533 13.3334 7.66667C13.3334 6.378 12.2887 5.33333 11 5.33333ZM11 11.3333C11.6002 11.3333 12.1667 11.1891 12.6667 10.9335V13.3712L11.3875 12.4575C11.1557 12.2919 10.8443 12.2919 10.6125 12.4575L9.33337 13.3712V10.9335C9.83342 11.1891 10.3999 11.3333 11 11.3333Z" fill="black"/>
</svg>
