<svg width="16" height="16" viewBox="0 0 16 16" fill="none" xmlns="http://www.w3.org/2000/svg">
<path d="M6.94633 8.21309C6.69249 7.95925 6.28093 7.95925 6.02709 8.21309C5.77325 8.46693 5.77325 8.87849 6.02709 9.13233L7.08076 10.186L6.02709 11.2397C5.77325 11.4935 5.77325 11.9051 6.02709 12.1589C6.28093 12.4128 6.69249 12.4128 6.94633 12.1589L8 11.1052L9.05367 12.1589C9.30751 12.4128 9.71907 12.4128 9.97291 12.1589C10.2267 11.9051 10.2267 11.4935 9.97291 11.2397L8.91924 10.186L9.97291 9.13233C10.2267 8.87849 10.2267 8.46693 9.97291 8.21309C9.71907 7.95925 9.30751 7.95925 9.05367 8.21309L8 9.26676L6.94633 8.21309Z" fill="black"/>
<path fill-rule="evenodd" clip-rule="evenodd" d="M5.01791 3.99915C5.01791 2.35153 6.35357 1.01587 8.00119 1.01587C9.37461 1.01587 10.5297 1.9434 10.8774 3.20505C10.9728 3.55113 10.7696 3.90901 10.4235 4.00439C10.0774 4.09977 9.71956 3.89654 9.62418 3.55046C9.42786 2.83814 8.77468 2.31587 8.00119 2.31587C7.07154 2.31587 6.31791 3.0695 6.31791 3.99915V5.37206H11.525C12.9609 5.37206 14.125 6.53612 14.125 7.97206V12.3999C14.125 13.8359 12.9609 14.9999 11.525 14.9999H4.475C3.03906 14.9999 1.875 13.8359 1.875 12.3999V7.97206C1.875 6.53612 3.03906 5.37206 4.475 5.37206H5.01791V3.99915ZM11.525 6.67206H4.475C3.75703 6.67206 3.175 7.25409 3.175 7.97206V12.3999C3.175 13.1179 3.75703 13.6999 4.475 13.6999H11.525C12.243 13.6999 12.825 13.1179 12.825 12.3999V7.97206C12.825 7.25409 12.243 6.67206 11.525 6.67206Z" fill="black"/>
</svg>
