<svg width="16" height="16" viewBox="0 0 16 16" fill="none" xmlns="http://www.w3.org/2000/svg">
<path d="M2.0001 2.8501C1.64111 2.8501 1.3501 3.14111 1.3501 3.5001C1.3501 3.85908 1.64111 4.1501 2.0001 4.1501H3.0001C3.35908 4.1501 3.6501 3.85908 3.6501 3.5001C3.6501 3.14111 3.35908 2.8501 3.0001 2.8501H2.0001Z" fill="black"/>
<path d="M5.5001 2.8501C5.14111 2.8501 4.8501 3.14111 4.8501 3.5001C4.8501 3.85908 5.14111 4.1501 5.5001 4.1501H14.0001C14.3591 4.1501 14.6501 3.85908 14.6501 3.5001C14.6501 3.14111 14.3591 2.8501 14.0001 2.8501H5.5001Z" fill="black"/>
<path d="M8.5001 5.8501C8.14111 5.8501 7.8501 6.14111 7.8501 6.5001C7.8501 6.85908 8.14111 7.1501 8.5001 7.1501H14.0001C14.3591 7.1501 14.6501 6.85908 14.6501 6.5001C14.6501 6.14111 14.3591 5.8501 14.0001 5.8501H8.5001Z" fill="black"/>
<path d="M4.3501 6.5001C4.3501 6.14111 4.64111 5.8501 5.0001 5.8501H6.0001C6.35908 5.8501 6.6501 6.14111 6.6501 6.5001C6.6501 6.85908 6.35908 7.1501 6.0001 7.1501H5.0001C4.64111 7.1501 4.3501 6.85908 4.3501 6.5001Z" fill="black"/>
<path d="M1.3501 12.5001C1.3501 12.1411 1.64111 11.8501 2.0001 11.8501H3.0001C3.35908 11.8501 3.6501 12.1411 3.6501 12.5001C3.6501 12.8591 3.35908 13.1501 3.0001 13.1501H2.0001C1.64111 13.1501 1.3501 12.8591 1.3501 12.5001Z" fill="black"/>
<path d="M8.5001 8.8501C8.14111 8.8501 7.8501 9.14111 7.8501 9.5001C7.8501 9.85908 8.14111 10.1501 8.5001 10.1501H14.0001C14.3591 10.1501 14.6501 9.85908 14.6501 9.5001C14.6501 9.14111 14.3591 8.8501 14.0001 8.8501H8.5001Z" fill="black"/>
<path d="M4.3501 9.5001C4.3501 9.14111 4.64111 8.8501 5.0001 8.8501H6.0001C6.35908 8.8501 6.6501 9.14111 6.6501 9.5001C6.6501 9.85908 6.35908 10.1501 6.0001 10.1501H5.0001C4.64111 10.1501 4.3501 9.85908 4.3501 9.5001Z" fill="black"/>
<path d="M5.5001 11.8501C5.14111 11.8501 4.8501 12.1411 4.8501 12.5001C4.8501 12.8591 5.14111 13.1501 5.5001 13.1501H14.0001C14.3591 13.1501 14.6501 12.8591 14.6501 12.5001C14.6501 12.1411 14.3591 11.8501 14.0001 11.8501H5.5001Z" fill="black"/>
</svg>
