<svg width="16" height="16" viewBox="0 0 16 16" fill="none" xmlns="http://www.w3.org/2000/svg">
<path fill-rule="evenodd" clip-rule="evenodd" d="M15.0001 7.96268C14.9802 4.13552 11.889 1.03506 8.06537 1.00021C8.0438 0.999422 8.0221 0.999023 8.00028 0.999023C7.97847 0.999023 7.95678 0.999422 7.93522 1.00021C6.47813 1.01347 5.1274 1.47191 4.01245 2.24611L4.95013 3.18378C5.21309 3.0169 5.49064 2.87096 5.78045 2.74831C5.69629 2.91192 5.61756 3.08335 5.54417 3.26097C5.49437 3.38152 5.44655 3.5061 5.40079 3.63444L6.43752 4.67117C6.52831 4.33904 6.63183 4.03291 6.74567 3.75737C6.9638 3.22938 7.20706 2.84481 7.44393 2.6023C7.66231 2.37874 7.83996 2.30869 7.97141 2.29999L8.00024 2.29991L8.02916 2.29999C8.1606 2.30869 8.33826 2.37874 8.55663 2.6023C8.7935 2.84481 9.03676 3.22938 9.2549 3.75737C9.63327 4.6732 9.89757 5.92693 9.95999 7.34991H9.11626L11.209 9.44267C11.2328 9.1831 11.2503 8.91852 11.2611 8.64991H13.6636C13.5642 9.52546 13.2665 10.3408 12.8164 11.05L13.7541 11.9877C14.5332 10.8657 14.9925 9.50485 15.0001 8.03715C15.0008 8.02483 15.0012 8.01241 15.0012 7.99991C15.0012 7.98742 15.0008 7.975 15.0001 7.96268ZM13.6636 7.34991H11.2611C11.1981 5.78499 10.909 4.35657 10.4564 3.26097C10.383 3.08336 10.3043 2.91195 10.2201 2.74835C12.0749 3.53335 13.4277 5.27223 13.6636 7.34991Z" fill="black"/>
<path fill-rule="evenodd" clip-rule="evenodd" d="M2.24643 4.01213L1.10054 2.86624C0.846696 2.6124 0.846696 2.20084 1.10054 1.947C1.35438 1.69316 1.76593 1.69316 2.01978 1.947L13.964 13.8913C14.2179 14.1451 14.2179 14.5567 13.964 14.8105C13.7102 15.0643 13.2986 15.0643 13.0448 14.8105L11.988 13.7537C10.874 14.5273 9.5245 14.9856 8.06874 14.9996C8.04606 15.0005 8.02324 15.0009 8.00028 15.0009C7.97734 15.0009 7.95452 15.0005 7.93184 14.9996C4.09735 14.9629 1.00024 11.8431 1.00024 7.99991C1.00024 6.518 1.46074 5.14365 2.24643 4.01213ZM11.0503 12.8161L10.5998 12.3655C10.554 12.4938 10.5062 12.6184 10.4564 12.739C10.383 12.9165 10.3043 13.0879 10.2202 13.2514C10.5099 13.1288 10.7874 12.9829 11.0503 12.8161ZM9.56305 11.3288L6.88421 8.64991H6.04057C6.10298 10.0729 6.36728 11.3267 6.74567 12.2426C6.9638 12.7705 7.20706 13.1551 7.44393 13.3976C7.66146 13.6203 7.83859 13.6907 7.96988 13.6998L8.00024 13.6999L8.03069 13.6998C8.16198 13.6907 8.3391 13.6203 8.55663 13.3976C8.7935 13.1551 9.03676 12.7705 9.2549 12.2426C9.36874 11.967 9.47225 11.6609 9.56305 11.3288ZM4.79155 6.55726C4.76774 6.8168 4.75026 7.08134 4.73944 7.34991H2.3369C2.43629 6.47437 2.73403 5.659 3.18411 4.94981L4.79155 6.55726ZM4.73943 8.64991H2.3369C2.57275 10.7276 3.92562 12.4665 5.78039 13.2515C5.69625 13.0879 5.61754 12.9165 5.54417 12.739C5.09152 11.6433 4.80248 10.2149 4.73943 8.64991Z" fill="black"/>
</svg>
