<svg xmlns="http://www.w3.org/2000/svg" width="16" height="16" fill="none" viewBox="0 0 16 16"><path fill="#000" fill-rule="evenodd" d="M3.8876 8.4833C4.92 7.3913 6.38 6.7113 8.0001 6.7113s3.0802.68 4.1124 1.772a.65.65 0 0 0 .9447-.893c-1.2676-1.341-3.065-2.179-5.0571-2.179s-3.7896.838-5.0572 2.179a.65.65 0 1 0 .9447.893M5.71 10.541c.538-.6728 1.3638-1.102 2.2902-1.102s1.7521.4292 2.2902 1.102a.65.65 0 1 0 1.0153-.8118C10.5315 8.761 9.3383 8.139 8.0002 8.139s-2.5313.622-3.3055 1.59a.65.65 0 1 0 1.0153.8119m3.675 1.6605c0 .7649-.62 1.385-1.3849 1.385s-1.3849-.6201-1.3849-1.385.62-1.3849 1.385-1.3849c.7648 0 1.3849.6201 1.3849 1.3849"/></svg>