<svg width="16" height="16" viewBox="0 0 16 16" fill="none" xmlns="http://www.w3.org/2000/svg">
<path fill-rule="evenodd" clip-rule="evenodd" d="M13.7141 1.31147C13.968 1.05763 14.3795 1.05763 14.6333 1.31147C14.8872 1.56532 14.8872 1.97687 14.6333 2.23071L13.466 3.39803C14.3994 4.43849 14.3659 6.03944 13.3656 7.0397L11.513 8.89233C11.2591 9.14618 10.8476 9.14618 10.5937 8.89233L10.2404 8.53897L8.8608 9.91854C8.60696 10.1724 8.19541 10.1724 7.94157 9.91853C7.68773 9.66469 7.68773 9.25314 7.94157 8.9993L9.3209 7.61997L8.25039 6.54946L6.87106 7.92879C6.61722 8.18263 6.20566 8.18263 5.95182 7.92879C5.69798 7.67495 5.69798 7.26339 5.95182 7.00955L7.33139 5.62998L6.98836 5.28694C6.73452 5.0331 6.73452 4.62155 6.98836 4.36771L8.84099 2.51507C9.86283 1.49324 11.5115 1.48035 12.5492 2.4764L13.7141 1.31147ZM12.4464 6.12046C12.9736 5.59325 12.9736 4.73848 12.4464 4.21127L11.6694 3.43431C11.1422 2.9071 10.2874 2.9071 9.76023 3.43431L8.36722 4.82732L11.0534 7.51348L12.4464 6.12046Z" fill="black"/>
<path fill-rule="evenodd" clip-rule="evenodd" d="M1.99356 13.2987C0.958673 12.2638 0.958673 10.586 1.99356 9.55107L3.57143 7.9732C3.82527 7.71936 4.23682 7.71936 4.49067 7.9732L8.09606 11.5786C8.3499 11.8324 8.3499 12.244 8.09606 12.4978L6.51819 14.0757C5.4833 15.1106 3.80541 15.1106 2.77052 14.0757L1.99356 13.2987ZM2.9128 10.4703C2.38559 10.9975 2.38559 11.8523 2.9128 12.3795L3.68976 13.1565C4.21697 13.6837 5.07174 13.6837 5.59895 13.1565L6.7172 12.0382L4.03105 9.35206L2.9128 10.4703Z" fill="black"/>
</svg>
