<svg xmlns="http://www.w3.org/2000/svg" width="16" height="16" fill="none" viewBox="0 0 16 16"><path d="M0 16h16V0H0z"/><path fill="#000" fill-rule="evenodd" d="M14.6127 1.325a.65.65 0 0 0-.9192 0L12.5286 2.49c-1.0377-.9961-2.6864-.9832-3.7082.0386L6.9677 4.3813a.65.65 0 0 0 0 .9192l.343.343-1.3795 1.3796a.65.65 0 0 0 .9192.9192L8.2298 6.563l1.0705 1.0705L7.921 9.0128a.65.65 0 0 0 .9192.9193l1.3796-1.3796.3533.3534a.65.65 0 0 0 .9193 0l1.8526-1.8527c1.0003-1.0002 1.0337-2.6012.1004-3.6416l1.1673-1.1673a.65.65 0 0 0 0-.9193m-2.1869 2.8998c.5272.5272.5272 1.382 0 1.9092l-1.393 1.393-2.6862-2.686 1.393-1.393c.5272-.5273 1.382-.5273 1.9092 0zM1.9729 9.5646c-1.0348 1.0349-1.0348 2.7128 0 3.7477l.777.7769c1.0349 1.0349 2.7128 1.0349 3.7477 0l1.5778-1.5778a.65.65 0 0 0 0-.9193L4.4701 7.9867a.65.65 0 0 0-.9193 0zm.9193 2.8284c-.5272-.5272-.5272-1.3819 0-1.9091l1.1182-1.1183 2.6862 2.6862L5.5783 13.17c-.5272.5272-1.382.5272-1.9092 0z"/></svg>