<svg width="16" height="16" viewBox="0 0 16 16" fill="none" xmlns="http://www.w3.org/2000/svg">
<path d="M3.88749 8.48337C4.91977 7.39139 6.37992 6.71138 7.99996 6.71138C9.61999 6.71138 11.0801 7.39139 12.1124 8.48337C12.359 8.74424 12.7704 8.75581 13.0313 8.5092C13.2922 8.26259 13.3037 7.8512 13.0571 7.59032C11.7895 6.2494 9.99208 5.41138 7.99996 5.41138C6.00783 5.41138 4.21039 6.2494 2.94279 7.59032C2.69618 7.8512 2.70774 8.26259 2.96861 8.5092C3.22949 8.75581 3.64088 8.74424 3.88749 8.48337Z" fill="black"/>
<path d="M8.00007 9.43904C7.07368 9.43904 6.24795 9.86816 5.7099 10.541C5.4857 10.8214 5.07667 10.8669 4.7963 10.6427C4.51593 10.4185 4.4704 10.0095 4.6946 9.72911C5.46874 8.76103 6.66198 8.13904 8.00007 8.13904C9.33815 8.13904 10.5314 8.76103 11.3055 9.72911C11.5297 10.0095 11.4842 10.4185 11.2038 10.6427C10.9235 10.8669 10.5144 10.8214 10.2902 10.541C9.75219 9.86816 8.92646 9.43904 8.00007 9.43904Z" fill="black"/>
<path d="M9.38496 12.2015C9.38496 12.9664 8.7649 13.5864 8.00002 13.5864C7.23515 13.5864 6.61509 12.9664 6.61509 12.2015C6.61509 11.4366 7.23515 10.8166 8.00002 10.8166C8.7649 10.8166 9.38496 11.4366 9.38496 12.2015Z" fill="black"/>
<path opacity="0.2" fill-rule="evenodd" clip-rule="evenodd" d="M8.00007 3.97603C5.73897 3.97603 3.68785 4.86925 2.17808 6.32347C1.91952 6.57251 1.50804 6.5648 1.259 6.30625C1.00996 6.04769 1.01767 5.63621 1.27622 5.38717C3.01849 3.70901 5.38932 2.67603 8.00007 2.67603C10.6108 2.67603 12.9816 3.70901 14.7239 5.38717C14.9825 5.63621 14.9902 6.04769 14.7411 6.30625C14.4921 6.5648 14.0806 6.57251 13.8221 6.32347C12.3123 4.86925 10.2612 3.97603 8.00007 3.97603Z" fill="black"/>
</svg>
