<svg width="16" height="16" viewBox="0 0 16 16" fill="none" xmlns="http://www.w3.org/2000/svg">
<path fill-rule="evenodd" clip-rule="evenodd" d="M13.6935 1.3249C13.9473 1.07106 14.3589 1.07106 14.6127 1.3249C14.8666 1.57874 14.8666 1.9903 14.6127 2.24414L13.4454 3.41146C14.3787 4.45192 14.3453 6.05286 13.345 7.05313L11.4924 8.90576C11.2385 9.1596 10.827 9.1596 10.5731 8.90576L10.2198 8.55239L8.84019 9.93196C8.58635 10.1858 8.17479 10.1858 7.92095 9.93196C7.66711 9.67812 7.66711 9.26656 7.92095 9.01272L9.30028 7.63339L8.22977 6.56289L6.85044 7.94222C6.5966 8.19606 6.18504 8.19605 5.9312 7.94221C5.67736 7.68837 5.67736 7.27682 5.9312 7.02297L7.31078 5.64341L6.96774 5.30037C6.7139 5.04653 6.7139 4.63497 6.96774 4.38113L8.82038 2.5285C9.84221 1.50666 11.4909 1.49377 12.5286 2.48982L13.6935 1.3249ZM12.4258 6.13389C12.953 5.60668 12.953 4.75191 12.4258 4.2247L11.6488 3.44774C11.1216 2.92053 10.2668 2.92053 9.73962 3.44774L8.3466 4.84075L11.0328 7.5269L12.4258 6.13389Z" fill="black"/>
<path fill-rule="evenodd" clip-rule="evenodd" d="M1.97294 13.3122C0.938055 12.2773 0.938055 10.5994 1.97294 9.56449L3.55081 7.98663C3.80465 7.73279 4.21621 7.73279 4.47005 7.98663L8.07544 11.592C8.32928 11.8459 8.32928 12.2574 8.07544 12.5113L6.49757 14.0891C5.46268 15.124 3.7848 15.124 2.74991 14.0891L1.97294 13.3122ZM2.89218 10.4837C2.36498 11.0109 2.36498 11.8657 2.89218 12.3929L3.66915 13.1699C4.19635 13.6971 5.05113 13.6971 5.57833 13.1699L6.69658 12.0516L4.01043 9.36549L2.89218 10.4837Z" fill="black"/>
</svg>
