<svg width="16" height="16" viewBox="0 0 16 16" fill="none" xmlns="http://www.w3.org/2000/svg">
<path d="M6.00897 6.69115C6.26543 6.43996 6.67697 6.44424 6.92816 6.70071L7.99961 7.79468L9.07106 6.70068C9.32224 6.44421 9.73378 6.43993 9.99025 6.69111C10.2467 6.9423 10.251 7.35384 9.99981 7.6103L8.90943 8.72362L9.97571 9.81231C10.2269 10.0688 10.2226 10.4803 9.96615 10.7315C9.70968 10.9827 9.29815 10.9784 9.04696 10.7219L7.99961 9.65258L6.95229 10.7219C6.70111 10.9784 6.28957 10.9827 6.0331 10.7315C5.77663 10.4803 5.77235 10.0688 6.02353 9.81232L7.08979 8.72363L5.99941 7.61034C5.74822 7.35387 5.7525 6.94234 6.00897 6.69115Z" fill="black"/>
<path fill-rule="evenodd" clip-rule="evenodd" d="M4.31061 1.22656C2.66261 1.22656 1.34961 2.58682 1.34961 4.23615V9.45175C1.34961 10.8642 2.31228 12.0644 3.62396 12.3802V12.5505C3.62396 13.7654 4.59206 14.7735 5.81462 14.7735H10.1846C11.4072 14.7735 12.3753 13.7654 12.3753 12.5505V12.3802C13.6869 12.0644 14.6496 10.8642 14.6496 9.45175V4.23615C14.6496 2.58682 13.3366 1.22656 11.6886 1.22656H4.31061ZM2.64961 4.23615C2.64961 3.27915 3.40595 2.52656 4.31061 2.52656H4.35858L4.35858 4.92657C4.35858 5.28556 4.6496 5.57657 5.00858 5.57657C5.36757 5.57657 5.65858 5.28556 5.65858 4.92657V2.52656H7.34961L7.34961 4.92657C7.34961 5.28556 7.64062 5.57657 7.99961 5.57657C8.35859 5.57657 8.64961 5.28556 8.64961 4.92657V2.52656H10.3406V4.92657C10.3406 5.28556 10.6317 5.57657 10.9906 5.57657C11.3496 5.57657 11.6406 5.28556 11.6406 4.92657L11.6406 2.52656H11.6886C12.5933 2.52656 13.3496 3.27915 13.3496 4.23615V9.45175C13.3496 10.3994 12.6076 11.147 11.7149 11.1611L11.0753 11.1713V12.5505C11.0753 13.0731 10.6638 13.4735 10.1846 13.4735H5.81462C5.3354 13.4735 4.92396 13.0731 4.92396 12.5505V11.1713L4.28427 11.1611C3.3916 11.147 2.64961 10.3994 2.64961 9.45175V4.23615Z" fill="black"/>
</svg>
