<svg xmlns="http://www.w3.org/2000/svg" width="16" height="16" fill="none" viewBox="0 0 16 16"><path fill="#000" fill-rule="evenodd" d="M8.0654 1.0002c3.8236.0349 6.9148 3.1353 6.9348 6.9625a.8.8 0 0 1 0 .0744c-.0077 1.4677-.467 2.8286-1.2461 3.9506l-.9377-.9377a5.665 5.665 0 0 0 .8472-2.4h-2.4025a15.5 15.5 0 0 1-.0521.7927L9.1163 7.3499H9.96c-.0624-1.423-.3267-2.6767-.7051-3.5925-.2181-.528-.4614-.9126-.6983-1.1551-.2183-.2236-.396-.2936-.5274-.3023h-.0578c-.1314.0087-.309.0787-.5275.3023-.2368.2425-.4801.627-.6982 1.155-.1139.2756-.2174.5817-.3082.9139L5.4008 3.6344a8 8 0 0 1 .1434-.3734 6.8 6.8 0 0 1 .2363-.5127 5.7 5.7 0 0 0-.8304.4355l-.9376-.9377c1.1149-.7742 2.4656-1.2326 3.9227-1.2459a1.8 1.8 0 0 1 .1302 0m-6.9649 1.866 1.146 1.146C1.4606 5.1435 1.0001 6.518 1.0001 7.9998c0 3.8432 3.0972 6.963 6.9316 6.9997q.034.0013.0685.0013.0344 0 .0684-.0013c1.4558-.014 2.8053-.4723 3.9193-1.2459l1.0568 1.0568a.65.65 0 0 0 .9192-.9192L2.0198 1.947a.65.65 0 0 0-.9193.9192M11.2611 7.35h2.4025c-.2359-2.0777-1.5887-3.8166-3.4435-4.6016.0842.1636.1629.335.2363.5127.4526 1.0956.7417 2.524.8047 4.089m-6.5217 0a15.5 15.5 0 0 1 .0522-.7926L3.184 4.9498a5.665 5.665 0 0 0-.8472 2.4001zM2.337 8.65h2.4025c.063 1.565.3521 2.9934.8048 4.089.0733.1776.152.349.2362.5126-1.8548-.785-3.2076-2.5239-3.4435-4.6016m4.5473 0 2.6789 2.6788c-.0908.3322-.1944.6383-.3082.9139-.2181.5279-.4614.9125-.6983 1.155-.2175.2227-.3946.2931-.526.3022l-.0304.0001-.0303-.0001c-.1313-.0091-.3084-.0795-.526-.3022-.2368-.2425-.4801-.6271-.6982-1.155-.3784-.9159-.6427-2.1697-.7051-3.5927zm3.7156 3.7156.4506.4505a5.7 5.7 0 0 1-.8302.4354 6.8 6.8 0 0 0 .2362-.5125 8 8 0 0 0 .1434-.3734"/></svg>