<svg width="16" height="16" viewBox="0 0 16 16" fill="none" xmlns="http://www.w3.org/2000/svg">
<path d="M3.70178 2.35371C3.44794 2.09987 3.03638 2.09987 2.78254 2.35371C2.5287 2.60755 2.5287 3.01911 2.78254 3.27295L3.36417 3.85458C2.59991 4.27152 1.89803 4.78827 1.27622 5.3872C1.01767 5.63624 1.00996 6.04772 1.259 6.30628C1.50804 6.56483 1.91952 6.57254 2.17808 6.3235C2.80862 5.71616 3.53358 5.20667 4.32883 4.81923L5.41654 5.90694C4.472 6.2849 3.62969 6.86379 2.94291 7.59029C2.6963 7.85117 2.70786 8.26256 2.96873 8.50917C3.22961 8.75578 3.641 8.74421 3.88761 8.48334C4.57479 7.75641 5.45159 7.21205 6.43893 6.92933L7.66196 8.15235C6.46209 8.24735 5.403 8.84336 4.69472 9.72908C4.47052 10.0094 4.51605 10.4185 4.79642 10.6427C5.07679 10.8669 5.48582 10.8213 5.71002 10.541C6.24807 9.86813 7.0738 9.43901 8.00019 9.43901C8.43092 9.43901 8.83988 9.53178 9.20829 9.69868L11.2727 11.763C11.5265 12.0169 11.9381 12.0169 12.1919 11.763C12.4457 11.5092 12.4457 11.0976 12.1919 10.8438L11.4471 10.099C11.447 10.0988 11.4471 10.0992 11.4471 10.099L9.97726 8.62863C9.97688 8.62842 9.97649 8.62822 9.97611 8.62802L8.05974 6.71165C8.05956 6.71165 8.05992 6.71166 8.05974 6.71165L6.85398 5.50535C6.85382 5.50538 6.85413 5.50533 6.85398 5.50535L5.65575 4.30768C5.65561 4.30772 5.65589 4.30763 5.65575 4.30768L4.62762 3.279C4.62749 3.27905 4.62775 3.27895 4.62762 3.279L3.70178 2.35371Z" fill="black"/>
<path d="M7.2007 4.0136L6.05787 2.87077C6.68541 2.7431 7.33496 2.67606 8.00007 2.67606C10.6108 2.67606 12.9816 3.70904 14.7239 5.3872C14.9825 5.63624 14.9902 6.04772 14.7411 6.30628C14.4921 6.56483 14.0806 6.57254 13.8221 6.3235C12.3123 4.86928 10.2612 3.97606 8.00007 3.97606C7.73044 3.97606 7.46379 3.98876 7.2007 4.0136Z" fill="black"/>
<path d="M10.4592 7.27204L8.62627 5.43917C10.3671 5.59455 11.9239 6.39143 13.0572 7.59029C13.3039 7.85117 13.2923 8.26256 13.0314 8.50917C12.7705 8.75578 12.3591 8.74421 12.1125 8.48334C11.6419 7.98547 11.0823 7.57323 10.4592 7.27204Z" fill="black"/>
<path d="M8.00014 13.5864C8.76502 13.5864 9.38508 12.9663 9.38508 12.2015C9.38508 11.4366 8.76502 10.8165 8.00014 10.8165C7.23527 10.8165 6.61521 11.4366 6.61521 12.2015C6.61521 12.9663 7.23527 13.5864 8.00014 13.5864Z" fill="black"/>
</svg>
