<svg xmlns="http://www.w3.org/2000/svg" width="16" height="16" fill="none" viewBox="0 0 16 16"><path fill="#000" fill-rule="evenodd" d="M2.7826 2.3537a.65.65 0 0 1 .9192 0l.9258.9253 1.0282 1.0287L6.854 5.5054l1.2057 1.2062L9.9761 8.628l.0012.0006 1.4697 1.4704.7449.7448a.65.65 0 0 1-.9192.9193L9.2083 9.6987a2.92 2.92 0 0 0-1.2081-.2597c-.9264 0-1.7521.4291-2.2902 1.102a.65.65 0 1 1-1.0153-.812c.7083-.8856 1.7674-1.4816 2.9673-1.5766l-1.223-1.223c-.9874.2826-1.8642.827-2.5514 1.554a.65.65 0 0 1-.9447-.8931 6.97 6.97 0 0 1 2.4737-1.6834L4.3287 4.8192A8.41 8.41 0 0 0 2.178 6.3235a.65.65 0 0 1-.9019-.9363 9.72 9.72 0 0 1 2.088-1.5326l-.5816-.5817a.65.65 0 0 1 0-.9192m4.418 1.6599L6.058 2.8708A9.73 9.73 0 0 1 8 2.676c2.6107 0 4.9815 1.033 6.7238 2.7111a.65.65 0 0 1 .0172.919.65.65 0 0 1-.919.0173C12.3122 4.8692 10.2611 3.9759 8 3.9759q-.4046.0002-.7994.0376m1.4257 1.4256L10.459 7.272a5.67 5.67 0 0 1 1.6534 1.2112.65.65 0 0 0 .9447-.893c-1.1333-1.1989-2.6901-1.9957-4.431-2.1511m.7588 6.7623c0 .7648-.62 1.3849-1.385 1.3849-.7648 0-1.3849-.6201-1.3849-1.3849s.62-1.385 1.385-1.385c.7648 0 1.3849.6201 1.3849 1.385"/></svg>