<svg xmlns="http://www.w3.org/2000/svg" width="16" height="16" fill="none" viewBox="0 0 16 16"><path fill="#000" fill-rule="evenodd" d="M6.5522 1.6837a.65.65 0 0 0-1.3 0v2.1455h-.5603c-1.2427 0-2.25 1.0074-2.25 2.25V7.932c0 2.3472 1.9028 4.25 4.25 4.25H7.35v2.1345a.65.65 0 1 0 1.3 0V12.182h.6582c2.3472 0 4.25-1.9028 4.25-4.25V6.0792c0-1.2426-1.0074-2.25-2.25-2.25h-.5603V1.6837a.65.65 0 1 0-1.3 0v2.1455H6.5522zM3.7419 6.0792a.95.95 0 0 1 .95-.95h6.6164a.95.95 0 0 1 .95.95V7.932c0 1.6293-1.3208 2.95-2.95 2.95H6.6919c-1.6293 0-2.95-1.3207-2.95-2.95z"/></svg>