<svg xmlns="http://www.w3.org/2000/svg" width="16" height="16" fill="none" viewBox="0 0 16 16"><path fill="#000" fill-rule="evenodd" d="M8.65 1.6512a.65.65 0 0 0-1.3 0V4.348a.65.65 0 1 0 1.3 0zm-6.5482.3467a.65.65 0 0 1 1.1011-.6911L4.8977 4.007a.65.65 0 1 1-1.101.6911zm11.7966 0a.6501.6501 0 0 0-1.1011-.6911L11.1025 4.007a.65.65 0 0 0 1.1011.691zM13.4 5.6999H2.6C1.5507 5.7.7 6.5507.7 7.6v.8c0 1.0494.8507 1.9 1.9 1.9h10.8c1.0494 0 1.9-.8507 1.9-1.9v-.8c0-1.0494-.8506-1.9-1.9-1.9M2 7.6a.6.6 0 0 1 .6-.6h2.25v2H2.6a.6.6 0 0 1-.6-.6zM9.85 9V7h-3.7v2zm1.3-2v2h2.25a.6.6 0 0 0 .6-.6v-.8a.6.6 0 0 0-.6-.6zm2.5434 7.898a.65.65 0 0 0 .205-.8961l-1.6948-2.7004a.6501.6501 0 0 0-1.1011.6911l1.6948 2.7004a.65.65 0 0 0 .8961.205m-11.3866 0a.65.65 0 0 1-.205-.8961l1.6948-2.7004a.6501.6501 0 0 1 1.1011.6911L3.203 14.6929a.65.65 0 0 1-.896.205m5.6934.1005a.65.65 0 0 1-.65-.65v-2.6967a.65.65 0 1 1 1.3 0v2.6967a.65.65 0 0 1-.65.65"/></svg>