<svg width="16" height="16" viewBox="0 0 16 16" fill="none" xmlns="http://www.w3.org/2000/svg">
<path d="M8.0002 1.00122C8.35918 1.00122 8.6502 1.29224 8.6502 1.65122V4.34791C8.6502 4.70689 8.35918 4.99791 8.0002 4.99791C7.64121 4.99791 7.3502 4.70689 7.3502 4.34791V1.65122C7.3502 1.29224 7.64121 1.00122 8.0002 1.00122Z" fill="black"/>
<path fill-rule="evenodd" clip-rule="evenodd" d="M13.4002 5.69997H2.6002C1.55085 5.69997 0.700195 6.55063 0.700195 7.59997V8.39997C0.700195 9.44931 1.55085 10.3 2.6002 10.3H13.4002C14.4495 10.3 15.3002 9.44931 15.3002 8.39997V7.59997C15.3002 6.55063 14.4495 5.69997 13.4002 5.69997ZM2.0002 7.59997C2.0002 7.2686 2.26882 6.99997 2.6002 6.99997H4.8502V8.99997H2.6002C2.26882 8.99997 2.0002 8.73134 2.0002 8.39997V7.59997ZM9.8502 8.99997V6.99997H6.1502V8.99997H9.8502ZM11.1502 6.99997V8.99997H13.4002C13.7316 8.99997 14.0002 8.73134 14.0002 8.39997V7.59997C14.0002 7.2686 13.7316 6.99997 13.4002 6.99997H11.1502Z" fill="black"/>
<path d="M7.35035 14.3484C7.35035 14.7074 7.64137 14.9984 8.00035 14.9984C8.35934 14.9984 8.65035 14.7074 8.65035 14.3484V11.6517C8.65035 11.2927 8.35934 11.0017 8.00035 11.0017C7.64137 11.0017 7.35035 11.2927 7.35035 11.6517V14.3484Z" fill="black"/>
<path d="M2.30701 1.10177C2.00295 1.2926 1.91117 1.69379 2.102 1.99785L3.7968 4.6982C3.98764 5.00226 4.38883 5.09405 4.69289 4.90321C4.99695 4.71238 5.08873 4.31119 4.8979 4.00713L3.2031 1.30678C3.01226 1.00272 2.61107 0.910931 2.30701 1.10177Z" fill="black"/>
<path d="M13.8985 14.0018C14.0894 14.3058 13.9976 14.707 13.6935 14.8979C13.3895 15.0887 12.9883 14.9969 12.7975 14.6929L11.1026 11.9925C10.9118 11.6884 11.0036 11.2873 11.3077 11.0964C11.6117 10.9056 12.0129 10.9974 12.2037 11.3014L13.8985 14.0018Z" fill="black"/>
<path d="M13.6935 1.10177C13.9976 1.2926 14.0894 1.69379 13.8985 1.99785L12.2037 4.6982C12.0129 5.00226 11.6117 5.09405 11.3077 4.90321C11.0036 4.71238 10.9118 4.31119 11.1026 4.00713L12.7975 1.30678C12.9883 1.00272 13.3895 0.910931 13.6935 1.10177Z" fill="black"/>
<path d="M2.102 14.0018C1.91117 14.3058 2.00295 14.707 2.30701 14.8979C2.61107 15.0887 3.01226 14.9969 3.2031 14.6929L4.8979 11.9925C5.08873 11.6884 4.99695 11.2873 4.69289 11.0964C4.38883 10.9056 3.98764 10.9974 3.7968 11.3014L2.102 14.0018Z" fill="black"/>
</svg>
