<svg xmlns="http://www.w3.org/2000/svg" width="16" height="16" fill="none" viewBox="0 0 16 16"><path fill="#000" fill-rule="evenodd" d="M3.0237 1.4567c-.2522-.1662-.5955-.139-.8174.083s-.2491.5651-.083.8174l.083.1025L6.683 6.9352v.0713L4.3606 5.4586l-.1162-.0615a.651.651 0 0 0-.7852.2422.65.65 0 0 0 .0791.8174l.1016.084 2.1885 1.459-2.1885 1.459a.6505.6505 0 0 0-.1807.9013.6504.6504 0 0 0 .9014.1807L6.683 8.9918v5.0079a.6508.6508 0 0 0 1.002.5468l4.0224-2.5869 1.833 1.833a.6498.6498 0 1 0 .9189-.9189l-1.8144-1.8145.001-.0029-1.1612-1.1612-.0107-.0068-2.3008-2.3008.003-.001-.9405-.9404-.003.001-.249-.25v-.003L6.683 5.0935v.003L3.1262 1.5396zm3.998-.0274a.651.651 0 0 1 .6631.0235l4.667 3a.651.651 0 0 1 0 1.0937l-2.0556 1.3203-.9414-.9414 1.4423-.9257L7.9837 3.19v1.3642L6.6829 3.2536v-1.254l.0068-.0878a.65.65 0 0 1 .332-.4825m3.7442 9.5899-2.7822 1.7891V9.1901l2.6728 1.7187z"/></svg>