<svg width="16" height="16" viewBox="0 0 16 16" fill="none" xmlns="http://www.w3.org/2000/svg">
<path d="M5.46436 4.54512C5.21052 4.29128 4.79896 4.29128 4.54512 4.54511C4.29128 4.79895 4.29128 5.21051 4.54511 5.46435L7.08086 8.00013L4.5453 10.5357C4.29146 10.7896 4.29146 11.2011 4.5453 11.455C4.79914 11.7088 5.2107 11.7088 5.46454 11.455L8.0001 8.91937L10.5357 11.455C10.7895 11.7088 11.2011 11.7088 11.4549 11.455C11.7087 11.2011 11.7087 10.7896 11.4549 10.5357L8.91933 8.00013L11.4551 5.46435C11.7089 5.21051 11.7089 4.79895 11.4551 4.54511C11.2012 4.29128 10.7897 4.29128 10.5358 4.54512L8.0001 7.08088L5.46436 4.54512Z" fill="black"/>
</svg>
