<svg width="16" height="16" viewBox="0 0 16 16" fill="none" xmlns="http://www.w3.org/2000/svg">
<path d="M3.45947 2.54023C3.20563 2.28639 2.79407 2.28639 2.54023 2.54023C2.28639 2.79407 2.28639 3.20563 2.54023 3.45947L7.08074 7.99998L2.5403 12.5404C2.28646 12.7943 2.28646 13.2058 2.5403 13.4597C2.79414 13.7135 3.2057 13.7135 3.45954 13.4597L7.99998 8.91921L12.5404 13.4597C12.7943 13.7135 13.2058 13.7135 13.4597 13.4597C13.7135 13.2058 13.7135 12.7943 13.4597 12.5404L8.91921 7.99998L13.4597 3.45947C13.7136 3.20563 13.7136 2.79407 13.4597 2.54023C13.2059 2.28639 12.7943 2.28639 12.5405 2.54023L7.99998 7.08074L3.45947 2.54023Z" fill="black"/>
</svg>
