<svg xmlns="http://www.w3.org/2000/svg" width="16" height="16" fill="none" viewBox="0 0 16 16"><path fill="#000" fill-rule="evenodd" d="M3.7003 1.4436a.6674.6674 0 0 0-.8389.085.668.668 0 0 0-.085.8389l.085.1045 2.5752 2.5752L1.9483 6.843l-.1552.0947c-.6683.4844-.5937 1.5259.1367 1.9101l.167.0713 4.6592 1.6045 2.7627 4.0782c.5242.7732 1.678.6025 1.9921-.2247l.0508-.1728.5342-2.4981 1.4316 1.4317.1045.0849a.668.668 0 0 0 .8389-.0849.668.668 0 0 0 .085-.8389l-.085-.1045-10.666-10.666zm10.3242 1.2676c.1872-.875-.6581-1.5854-1.4639-1.3115l-.1601.0684-4.4756 2.3007.9902.9903 3.7168-1.9112-.9941 4.6348 1.123 1.123zm-6.625 6.624L2.9786 7.8128 6.427 6.0374l4.5468 4.5469-.6162 2.8779-2.624-3.8711-.0674-.083a.67.67 0 0 0-.2666-.1729"/></svg>