<svg width="16" height="16" viewBox="0 0 16 16" fill="none" xmlns="http://www.w3.org/2000/svg">
<path fill-rule="evenodd" clip-rule="evenodd" d="M2.20656 1.53957C2.42848 1.31764 2.7717 1.29044 3.02394 1.45656L3.12648 1.53957L6.68312 5.09621V5.09328L7.9839 6.39406V6.39699L8.23292 6.64699L8.23585 6.64601L9.17628 7.58644L9.17335 7.58742L11.4741 9.8882L11.4849 9.89503L12.646 11.0562L12.645 11.0591L14.4595 12.8735L13.8551 13.1393L13.5405 13.7925L11.7075 11.9595L7.68507 14.5464C7.48514 14.6748 7.2306 14.6837 7.02199 14.5698C6.81357 14.4558 6.68312 14.2371 6.68312 13.9995V8.99171L4.36085 10.5405C4.06218 10.7395 3.65857 10.6585 3.45949 10.3599C3.26067 10.0612 3.34158 9.65756 3.64015 9.45851L5.82863 7.99953L3.64015 6.54054L3.53859 6.45656C3.3258 6.24189 3.28542 5.90051 3.45949 5.63917C3.63378 5.37814 3.96473 5.28323 4.24464 5.39699L4.36085 5.45851L6.68312 7.00636V6.93507L2.20656 2.45949L2.12355 2.35695C1.95743 2.10471 1.98463 1.76149 2.20656 1.53957ZM7.9839 12.8081L10.7661 11.0191L10.6568 10.9087L7.9839 9.18996V12.8081Z" fill="black"/>
<path d="M14.4595 12.8735C14.7132 13.1274 14.7133 13.5387 14.4595 13.7925C14.2057 14.0463 13.7944 14.0462 13.5405 13.7925L13.8551 13.1393L14.4595 12.8735Z" fill="black"/>
<path d="M7.02199 1.42921C7.23051 1.31552 7.48521 1.32434 7.68507 1.45265L12.3521 4.45265C12.5378 4.57222 12.6498 4.77864 12.6499 4.99953C12.6499 5.22049 12.5378 5.42675 12.3521 5.5464L10.2964 6.86671L9.35499 5.92531L10.7974 4.99953L7.9839 3.18996V4.55421L6.68312 3.25343V1.99953L6.68996 1.91164C6.7177 1.70911 6.83962 1.52891 7.02199 1.42921Z" fill="black"/>
</svg>
