<svg width="16" height="16" viewBox="0 0 16 16" fill="none" xmlns="http://www.w3.org/2000/svg">
<path d="M5.46411 4.54512C5.21027 4.29128 4.79872 4.29128 4.54488 4.54511C4.29103 4.79895 4.29103 5.21051 4.54487 5.46435L7.08062 8.00013L4.54505 10.5357C4.29121 10.7896 4.29122 11.2011 4.54506 11.455C4.7989 11.7088 5.21046 11.7088 5.4643 11.455L7.99985 8.91937L10.5354 11.455C10.7892 11.7088 11.2008 11.7088 11.4546 11.455C11.7085 11.2011 11.7085 10.7896 11.4547 10.5357L8.91909 8.00013L11.4548 5.46435C11.7087 5.21051 11.7087 4.79895 11.4548 4.54511C11.201 4.29128 10.7894 4.29128 10.5356 4.54512L7.99985 7.08088L5.46411 4.54512Z" fill="black"/>
</svg>
