<svg width="16" height="16" viewBox="0 0 16 16" fill="none" xmlns="http://www.w3.org/2000/svg">
<g clip-path="url(#clip0_39577_52)">
<path fill-rule="evenodd" clip-rule="evenodd" d="M2.86149 1.5286C3.08938 1.30071 3.44157 1.27255 3.70035 1.44364L3.80485 1.5286L14.4709 12.1946L14.5558 12.2991C14.7268 12.5579 14.6987 12.9101 14.4709 13.138C14.243 13.3656 13.8907 13.3939 13.632 13.2229L13.5275 13.138L12.0959 11.7063L11.5617 14.2044L11.5109 14.3772C11.1968 15.2044 10.0429 15.3751 9.51871 14.6018L6.75602 10.5237L2.09684 8.91923L1.92985 8.84794C1.19946 8.46368 1.12482 7.42221 1.79313 6.93778L1.9484 6.84306L5.43668 5.04716L2.86149 2.47196L2.77653 2.36747C2.60549 2.10878 2.63382 1.75651 2.86149 1.5286ZM2.97868 7.81278L7.39957 9.33525C7.50151 9.37042 7.59277 9.43054 7.66618 9.5081L7.73356 9.5911L10.3576 13.4622L10.9738 10.5843L6.42692 6.03739L2.97868 7.81278Z" fill="black"/>
<path d="M12.5607 1.3997C13.3665 1.12576 14.2118 1.83624 14.0246 2.71122L12.7609 8.60575L11.6379 7.48271L12.632 2.84794L8.9152 4.75907L7.92496 3.76884L12.4005 1.46806L12.5607 1.3997Z" fill="black"/>
</g>
<defs>
<clipPath id="clip0_39577_52">
<rect width="15.9991" height="15.9991" fill="white"/>
</clipPath>
</defs>
</svg>
