<svg xmlns="http://www.w3.org/2000/svg" width="16" height="16" fill="none" viewBox="0 0 16 16"><path fill="#000" fill-rule="evenodd" d="M3.6492 2.6833c-.9016 0-1.6325.7309-1.6325 1.6325V6c0 3.3045 2.6789 5.9833 5.9834 5.9833 2.353 0 4.3888-1.3582 5.366-3.3335C14.8146 8.6323 15.9834 7.4526 15.9834 6c0-1.3448-1.0017-2.4556-2.2996-2.627-.2957-.4173-.7825-.6897-1.3329-.6897zM12.6834 6c0 2.5865-2.0968 4.6833-4.6833 4.6833S3.3167 8.5865 3.3167 6V4.3158a.3325.3325 0 0 1 .3325-.3325h8.7017a.3325.3325 0 0 1 .3325.3325zm2 0c0 .5613-.3425 1.0426-.83 1.2462.0852-.402.13-.8189.13-1.2462V4.8165c.4173.2297.7.6736.7 1.1835m-11.35 6.6833a.65.65 0 1 0 0 1.3h9.3333a.65.65 0 1 0 0-1.3z"/></svg>