<svg xmlns="http://www.w3.org/2000/svg" width="16" height="16" fill="none" viewBox="0 0 16 16"><path fill="#000" fill-rule="evenodd" d="M12.8865 1.8662a.65.65 0 0 1 .65.65V3.31c.8466.274 1.4588 1.0688 1.4588 2.0067s-.6122 1.7326-1.4588 2.0067v6.1607a.65.65 0 1 1-1.3 0V7.3233c-.8466-.274-1.4588-1.069-1.4588-2.0067 0-.9379.6122-1.7328 1.4588-2.0068v-.7936a.65.65 0 0 1 .65-.65m-9.7737 0a.65.65 0 0 1 .65.65V4.771c.8465.274 1.4587 1.069 1.4587 2.0067 0 .9379-.6122 1.7327-1.4587 2.0067v4.6996a.65.65 0 1 1-1.3 0V8.7845c-.8467-.274-1.4589-1.0689-1.4589-2.0068 0-.9378.6123-1.7327 1.4589-2.0067V2.5162a.65.65 0 0 1 .65-.65m4.8868 0a.65.65 0 0 1 .65.65v5.17c.8466.274 1.4588 1.0688 1.4588 2.0066s-.6122 1.7327-1.4588 2.0068v1.7844a.65.65 0 1 1-1.3 0v-1.7844c-.8466-.2741-1.4588-1.0689-1.4588-2.0068 0-.9378.6122-1.7327 1.4588-2.0067V2.5162a.65.65 0 0 1 .65-.65m4.0781 3.4504a.8088.8088 0 1 1 1.6176 0 .8088.8088 0 0 1-1.6176 0M2.3039 6.7777a.8088.8088 0 1 1 1.6176 0 .8088.8088 0 0 1-1.6176 0m4.887 2.9151a.8088.8088 0 1 1 1.6175 0 .8088.8088 0 0 1-1.6176 0"/></svg>