<svg xmlns="http://www.w3.org/2000/svg" width="16" height="16" fill="none" viewBox="0 0 16 16"><path fill="#000" fill-rule="evenodd" d="M.9976 3.6407c0-1.4635 1.1864-2.65 2.65-2.65h8.7044c1.4635 0 2.65 1.1865 2.65 2.65v5.6498c0 .2373-.0312.4672-.0897.686a2.66 2.66 0 0 0-.111-.6072 2.6 2.6 0 0 0-.187-.4515l-.0002-.0003q-.1865-.3524-.4815-.6473a2.76 2.76 0 0 0-.4306-.353V3.6407c0-.7456-.6045-1.35-1.35-1.35H3.6476c-.7456 0-1.35.6044-1.35 1.35v5.6498c0 .7456.6044 1.35 1.35 1.35h5.9439a2.6 2.6 0 0 0 .0963.3837 3.16 3.16 0 0 0-.6119.4802 3.2 3.2 0 0 0-.3665.4361h-1.82v1.7688h1.279v.2626q0 .3453.093.6632v.0001a2.3 2.3 0 0 0 .1464.3743H4.7306a.65.65 0 1 1 0-1.3h.8588v-1.769H3.6476c-1.4636 0-2.65-1.1864-2.65-2.65zm11.7687 5.2448q-.2446-.1013-.5311-.1013t-.5311.1013-.4471.304-.3039.447-.1013.5311q0 .2865.1013.5311.1013.2445.3039.4471t.4471.3039.5311.1013.5311-.1013.4471-.3039.3039-.4471.1013-.5311-.1013-.531-.3039-.4472-.4471-.3039m1.1276 3.143q-.3179-.1317-.6903-.1316h-1.9368q-.3724 0-.6904.1316-.3179.1317-.5812.3951t-.395.5813-.1318.6904v.2766q0 .215.076.3983.0759.1834.228.3354.1518.152.3353.2279.1833.076.3983.076h3.4584q.2149 0 .3983-.076t.3354-.2279.2279-.3354.076-.3983v-.2766q0-.3726-.1317-.6904-.1317-.318-.3951-.5813t-.5813-.3951"/></svg>