<svg xmlns="http://www.w3.org/2000/svg" width="16" height="16" fill="none" viewBox="0 0 16 16"><path fill="#000" fill-rule="evenodd" d="M3.4202 1.1511a.65.65 0 0 0-.1512.9068l3.1338 4.3873.8009-1.1154-2.8768-4.0275a.65.65 0 0 0-.9067-.1512m9.1596 0a.65.65 0 0 1 .1511.9068l-3.9321 5.505 1.3335 1.867c1.0146-.2312 2.2516.4222 2.9614 1.6424.8258 1.4194.6256 3.0683-.4471 3.6829s-2.6116-.0378-3.4373-1.4572c-.6397-1.0996-.6637-2.3369-.1433-3.1244L8 8.6812l-1.066 1.4924c.5204.7875.4964 2.0248-.1433 3.1244-.8257 1.4194-2.3647 2.0718-3.4374 1.4572s-1.2728-2.2635-.447-3.6829C3.616 9.8521 4.853 9.1987 5.8676 9.4298l1.3332-1.8673.1132-.1577 4.359-6.1025a.65.65 0 0 1 .9067-.1512M3.9996 13.6273c-.1025-.0588-.2478-.2111-.2912-.5683-.0436-.3589.037-.8438.3215-1.3329s.6692-.8038 1.0098-.9482.553-.0946.6576-.0347c.1026.0587.2479.2111.2912.5683.0436.3588-.037.8438-.3215 1.3329s-.6692.8038-1.0098.9482-.553.0946-.6576.0347m7.9705-1.9012c.2845.4891.365.974.3215 1.3329-.0434.3572-.1887.5095-.2913.5683-.1045.0599-.3169.1097-.6575-.0347s-.7253-.4592-1.0098-.9482-.3651-.9741-.3216-1.3329c.0434-.3572.1887-.5096.2913-.5683.1045-.0599.3169-.1097.6576.0347.3405.1444.7253.4592 1.0098.9482"/></svg>