<svg width="16" height="16" viewBox="0 0 16 16" fill="none" xmlns="http://www.w3.org/2000/svg">
<path d="M1.57808 2.4394C1.83192 2.18556 2.24347 2.18556 2.49731 2.4394L5.668 5.61009L5.66799 4.33207C5.66799 3.97309 5.959 3.68207 6.31798 3.68207C6.67697 3.68207 6.96799 3.97308 6.96799 4.33206L6.96801 7.17932C6.96801 7.35171 6.89953 7.51704 6.77763 7.63894C6.76696 7.64961 6.75596 7.65987 6.74465 7.66971C6.63799 7.76269 6.50822 7.81505 6.37554 7.82677C6.35649 7.82847 6.33729 7.82932 6.31801 7.82932H3.42362C3.06464 7.82932 2.77362 7.53831 2.77362 7.17932C2.77362 6.82034 3.06464 6.52932 3.42362 6.52932H4.74876L1.57808 3.35864C1.32424 3.1048 1.32424 2.69324 1.57808 2.4394Z" fill="black"/>
<path d="M6.31798 14.0182C6.67697 14.0182 6.96799 13.7272 6.96799 13.3682L6.96801 10.5209C6.96801 10.4949 6.96644 10.469 6.96337 10.4434C6.9461 10.2996 6.88111 10.1648 6.77763 10.0613C6.76696 10.0506 6.75596 10.0404 6.74465 10.0305C6.62673 9.92793 6.47531 9.87091 6.31801 9.87091H3.42362C3.06464 9.87091 2.77362 10.1619 2.77362 10.5209C2.77362 10.8799 3.06464 11.1709 3.42362 11.1709H4.74876L1.57808 14.3416C1.32424 14.5954 1.32424 15.007 1.57808 15.2608C1.83192 15.5147 2.24347 15.5147 2.49731 15.2608L5.668 12.0901L5.66799 13.3682C5.66799 13.7271 5.959 14.0182 6.31798 14.0182Z" fill="black"/>
<path d="M13.5024 2.4394C13.7563 2.18556 14.1678 2.18556 14.4217 2.4394C14.6755 2.69324 14.6755 3.1048 14.4217 3.35864L11.251 6.52932H12.5761C12.9351 6.52932 13.2261 6.82034 13.2261 7.17932C13.2261 7.53831 12.9351 7.82932 12.5761 7.82932H9.68174C9.66245 7.82932 9.64326 7.82847 9.6242 7.82677C9.49152 7.81505 9.36175 7.76269 9.2551 7.66971C9.24379 7.65987 9.23279 7.64961 9.22212 7.63894C9.10022 7.51704 9.03174 7.35171 9.03174 7.17932L9.03176 4.33206C9.03176 3.97308 9.32278 3.68207 9.68176 3.68207C10.0407 3.68207 10.3318 3.97309 10.3318 4.33207L10.3317 5.61009L13.5024 2.4394Z" fill="black"/>
<path d="M9.6817 14.0182C9.32272 14.0182 9.0317 13.7272 9.0317 13.3682L9.03168 10.5209C9.03168 10.495 9.03322 10.4693 9.03626 10.4439C9.05344 10.2999 9.11846 10.1649 9.22206 10.0613C9.23258 10.0508 9.24343 10.0406 9.25458 10.0309C9.37256 9.92808 9.52417 9.87091 9.68168 9.87091H12.5761C12.935 9.87091 13.2261 10.1619 13.2261 10.5209C13.2261 10.8799 12.935 11.1709 12.5761 11.1709H11.2509L14.4216 14.3416C14.6754 14.5954 14.6754 15.007 14.4216 15.2608C14.1678 15.5147 13.7562 15.5147 13.5024 15.2608L10.3317 12.0901L10.3317 13.3682C10.3317 13.7271 10.0407 14.0182 9.6817 14.0182Z" fill="black"/>
</svg>
