<svg width="16" height="16" viewBox="0 0 16 16" fill="none" xmlns="http://www.w3.org/2000/svg">
<path fill-rule="evenodd" clip-rule="evenodd" d="M4.69827 2.69761C4.69827 1.78634 5.437 1.04761 6.34827 1.04761H6.84826C7.20724 1.04761 7.49826 1.33862 7.49826 1.69761C7.49826 2.05659 7.20724 2.34761 6.84826 2.34761H6.34827C6.15497 2.34761 5.99827 2.50431 5.99827 2.69761V4.06008C5.99827 4.41906 5.70726 4.71008 5.34827 4.71008C5.31963 4.71008 5.29143 4.70822 5.26377 4.70463H4.33876C4.14547 4.70463 3.98876 4.86133 3.98876 5.05463V6.05067H9.65098C10.5622 6.05067 11.301 6.7894 11.301 7.70067V9.40463H11.3388C11.5321 9.40463 11.6888 9.24793 11.6888 9.05463V7.71801C11.6888 7.61614 11.7122 7.51975 11.754 7.43393C11.8551 7.20633 12.0831 7.04761 12.3483 7.04761H13.3483C13.5416 7.04761 13.6983 6.89091 13.6983 6.69761L13.6983 5.69761C13.6983 5.33863 13.9893 5.04761 14.3483 5.04761C14.7072 5.04761 14.9983 5.33862 14.9983 5.6976L14.9983 6.6976C14.9983 7.60887 14.2595 8.34761 13.3483 8.34761H12.9888V9.05463C12.9888 9.9659 12.25 10.7046 11.3388 10.7046H11.301V13.3312C11.301 14.2425 10.5622 14.9812 9.65098 14.9812H2.65098C1.73971 14.9812 1.00098 14.2425 1.00098 13.3312V7.70067C1.00098 6.7894 1.73971 6.05067 2.65098 6.05067H2.68876V5.05463C2.68876 4.14336 3.42749 3.40463 4.33876 3.40463H4.69827V2.69761ZM2.30098 7.70067C2.30098 7.50737 2.45768 7.35067 2.65098 7.35067H9.65098C9.84428 7.35067 10.001 7.50737 10.001 7.70067V11.5739L2.30098 11.5739V7.70067ZM2.30098 12.8739V13.3312C2.30098 13.5245 2.45768 13.6812 2.65098 13.6812H9.65098C9.84428 13.6812 10.001 13.5245 10.001 13.3312V12.8739L2.30098 12.8739Z" fill="black"/>
<path d="M12.1983 1.69761C12.1983 1.33862 12.4893 1.04761 12.8483 1.04761H13.3483C14.2595 1.04761 14.9983 1.78635 14.9983 2.69762L14.9983 3.19761C14.9983 3.5566 14.7072 3.84761 14.3483 3.84761C13.9893 3.8476 13.6983 3.55659 13.6983 3.1976L13.6983 2.69761C13.6983 2.50431 13.5416 2.34761 13.3483 2.34761H12.8483C12.4893 2.34761 12.1983 2.05659 12.1983 1.69761Z" fill="black"/>
<path d="M10.8388 3.40463C10.4798 3.40463 10.1888 3.69565 10.1888 4.05463C10.1888 4.41362 10.4798 4.70463 10.8388 4.70463H11.3388C11.5321 4.70463 11.6888 4.86133 11.6888 5.05464L11.6888 5.55463C11.6887 5.91361 11.9798 6.20463 12.3387 6.20463C12.6977 6.20464 12.9887 5.91362 12.9888 5.55464L12.9888 5.05465C12.9888 4.14337 12.25 3.40463 11.3388 3.40463H10.8388Z" fill="black"/>
<path d="M7.64202 3.40463C7.28303 3.40463 6.99202 3.69565 6.99202 4.05463C6.99202 4.41362 7.28303 4.70463 7.64202 4.70463H8.64202C9.00101 4.70463 9.29202 4.41362 9.29202 4.05463C9.29202 3.69565 9.00101 3.40463 8.64202 3.40463H7.64202Z" fill="black"/>
<path d="M8.69827 1.69761C8.69827 1.33862 8.98929 1.04761 9.34827 1.04761H10.3483C10.7073 1.04761 10.9983 1.33862 10.9983 1.69761C10.9983 2.05659 10.7073 2.34761 10.3483 2.34761H9.34827C8.98929 2.34761 8.69827 2.05659 8.69827 1.69761Z" fill="black"/>
</svg>
