<svg xmlns="http://www.w3.org/2000/svg" width="16" height="16" fill="none" viewBox="0 0 16 16"><path fill="#000" fill-rule="evenodd" d="M9.3482 1.0477a.65.65 0 0 0 0 1.3h1a.65.65 0 1 0 0-1.3zm3.5 0a.65.65 0 1 0 0 1.3h.5a.35.35 0 0 1 .35.35v.5a.65.65 0 1 0 1.3 0v-.5c0-.9113-.7387-1.65-1.65-1.65zm-6.5 0c-.9113 0-1.65.7387-1.65 1.65v.707h-.3595c-.9113 0-1.65.7387-1.65 1.65v.996h-.0378c-.9112 0-1.65.7388-1.65 1.65v5.6305c0 .9113.7388 1.65 1.65 1.65h7c.9113 0 1.65-.7387 1.65-1.65v-2.6265h.0378c.9113 0 1.65-.7387 1.65-1.65v-.707h.3595c.9113 0 1.65-.7388 1.65-1.65v-1a.65.65 0 1 0-1.3 0v1a.35.35 0 0 1-.35.35h-1a.65.65 0 0 0-.5943.3863.65.65 0 0 0-.0652.284v1.3367a.35.35 0 0 1-.35.35h-.0378v-1.704c0-.9112-.7387-1.65-1.65-1.65H3.9887v-.996a.35.35 0 0 1 .35-.35h.925a.65.65 0 0 0 .7345-.6446V2.6977a.35.35 0 0 1 .35-.35h.5a.65.65 0 0 0 0-1.3zm.6438 3.007a.65.65 0 0 1 .65-.65h1a.65.65 0 0 1 0 1.3h-1a.65.65 0 0 1-.65-.65m3.1967 0a.65.65 0 0 1 .65-.65h.5c.9113 0 1.65.7387 1.65 1.65v.5a.65.65 0 1 1-1.3 0v-.5a.35.35 0 0 0-.35-.35h-.5a.65.65 0 0 1-.65-.65m-7.5378 3.296a.35.35 0 0 0-.35.35v3.8733h7.7V7.7007a.35.35 0 0 0-.35-.35zm-.35 5.9805v-.4572h7.7v.4572a.35.35 0 0 1-.35.35h-7a.35.35 0 0 1-.35-.35"/></svg>