<svg xmlns="http://www.w3.org/2000/svg" width="16" height="16" fill="none" viewBox="0 0 16 16"><path fill="#000" fill-rule="evenodd" d="M8.065 1.0003c3.8236.0348 6.9149 3.1352 6.9349 6.9624a.7.7 0 0 1 0 .0747 7 7 0 0 1-.0328.6456 4.47 4.47 0 0 0-1.3103-1.3885c-.2535-2.0531-1.5987-3.768-3.4369-4.546.0841.1636.1629.335.2363.5126.3714.899.6327 2.0222.7493 3.261l-.0555-.0003c-.4281 0-.8422.0605-1.234.1733-.1042-1.1521-.3422-2.165-.6613-2.9376-.2182-.528-.4614-.9126-.6983-1.155-.2184-.2237-.3961-.2937-.5276-.3024h-.0575c-.1315.0087-.3092.0787-.5276.3023-.2369.2425-.4801.6271-.6983 1.155-.3783.916-.6426 2.1697-.705 3.5927h2.5234a4.47 4.47 0 0 0-1.2108 1.3H6.0403c.0624 1.423.3267 2.6767.7051 3.5926.1935.4683.4068.8238.6178 1.0674a4.47 4.47 0 0 0 1.7245 1.6059 7.04 7.04 0 0 1-1.019.0837 1.7 1.7 0 0 1-.1373 0C4.097 14.9629 1 11.8431 1 8c0-3.8443 3.099-6.9649 6.9352-6.9997a1.8 1.8 0 0 1 .1297 0M2.3366 7.3501h2.4025c.063-1.565.3521-2.9934.8047-4.089a6.8 6.8 0 0 1 .2363-.5127c-1.8548.785-3.2077 2.524-3.4435 4.6017m8.8133.4717c-1.7397 0-3.15 1.4103-3.15 3.15s1.4103 3.15 3.15 3.15a3.135 3.135 0 0 0 1.7201-.5107l1.3203 1.3203a.65.65 0 0 0 .9193-.9192l-1.3203-1.3203a3.136 3.136 0 0 0 .5106-1.7201c0-1.7397-1.4103-3.15-3.15-3.15M2.3367 8.65h2.4025c.063 1.5649.352 2.9934.8047 4.089a6.8 6.8 0 0 0 .2363.5125c-1.8548-.785-3.2077-2.5239-3.4435-4.6015M9.3 10.9718c0-1.0218.8283-1.85 1.85-1.85S13 9.95 13 10.9718s-.8282 1.85-1.85 1.85-1.85-.8283-1.85-1.85"/></svg>