<svg xmlns="http://www.w3.org/2000/svg" width="16" height="16" fill="none" viewBox="0 0 16 16"><path fill="#000" fill-rule="evenodd" d="M3.6734 1.9876a.65.65 0 1 0-.0243 1.2997C5.917 3.33 8.17 4.216 9.9002 5.946s2.6162 3.9832 2.6587 6.2512a.65.65 0 1 0 1.2998-.0244c-.0486-2.5907-1.0619-5.1686-3.0392-7.146S6.2641 2.036 3.6735 1.9876M3.304 6.232c1.6296-.0458 3.2716.5527 4.5145 1.7956s1.8415 2.885 1.7957 4.5146a.65.65 0 1 0 1.2994.0365c.0555-1.972-.6698-3.9643-2.1758-5.4703S5.2395 4.8771 3.2674 4.9325A.65.65 0 0 0 3.304 6.232m-.1832 2.953c.9359-.1042 1.906.2024 2.622.9185s1.0226 1.6861.9185 2.6219a.6501.6501 0 0 0 1.292.1439c.146-1.3116-.284-2.6779-1.2912-3.685C5.6549 8.177 4.2885 7.747 2.977 7.893a.65.65 0 0 0 .1437 1.292m-.569 4.1098c.5821.5821 1.5259.5821 2.108 0 .582-.5821.582-1.5258 0-2.1079s-1.5259-.5821-2.108 0c-.582.5821-.582 1.5258 0 2.1079"/></svg>