<svg xmlns="http://www.w3.org/2000/svg" width="16" height="16" fill="none" viewBox="0 0 16 16"><path fill="#000" fill-rule="evenodd" d="M5.2945 1.0438c-1.1321 0-2.05.9178-2.05 2.05v2.8687a3.95 3.95 0 0 1 1.3-.2607v-2.608a.75.75 0 0 1 .75-.75h3.2201v2.1434c0 1.1322.9178 2.05 2.05 2.05h1.8917v.7206a1.955 1.955 0 0 1 1.3-.1617v-.9953a1.15 1.15 0 0 0-.3089-.7843L9.8049 1.4096a1.15 1.15 0 0 0-.8411-.3658zm6.3016 4.1934L9.8146 3.3264v1.1608a.75.75 0 0 0 .75.75zm-8.3516 6.6856C2.4967 11.4505 2 10.6166 2 9.6666 2 8.194 3.1939 7 4.6667 7c1.4727 0 2.6666 1.1939 2.6666 2.6666 0 1.4728-1.1939 2.6667-2.6666 2.6667q-.0615 0-.1222-.0027a2.65 2.65 0 0 1-1.3-.4078m2.1393-.9733a.4.4 0 0 0 .5657-.5657l-.8829-.8829V8.3333a.4.4 0 1 0-.8 0v1.3333a.4.4 0 0 0 .1172.2829zm7.4899-2.4092a.65.65 0 0 1 .9193 0l1.3333 1.3334a.65.65 0 0 1 0 .9192l-1.3333 1.3334a.6501.6501 0 0 1-.9193-.9193l.2237-.2237H10a.65.65 0 1 1 0-1.3h3.0974l-.2237-.2237a.65.65 0 0 1 0-.9193m-.6193 4.7511a1.95 1.95 0 0 0 1.3163.3108c-.3464.7966-1.1404 1.3537-2.0644 1.3537H5.2945c-.9644 0-1.7734-.6661-1.9918-1.5633.6346.2324 1.3213.2633 1.9918.2633h6.2118a.948.948 0 0 0 .7481-.3645"/></svg>