<svg xmlns="http://www.w3.org/2000/svg" width="16" height="16" fill="none" viewBox="0 0 16 16"><path fill="#000" fill-rule="evenodd" d="M5.0233 4.0613C5.0233 2.4258 6.349 1.1 7.9846 1.1s2.9614 1.3258 2.9614 2.9613-1.3259 2.9614-2.9614 2.9614-2.9613-1.3259-2.9613-2.9614M7.9846 2.4c-.9175 0-1.6613.7438-1.6613 1.6613s.7438 1.6614 1.6613 1.6614S9.646 4.9789 9.646 4.0613 8.9022 2.4 7.9847 2.4m3.0517 5.1836a.65.65 0 0 0-.65.65v.4003H9.2117a.65.65 0 0 0 0 1.3h.0444v3.3189c0 .9113.7387 1.65 1.65 1.65h2.1136c.9113 0 1.65-.7387 1.65-1.65v-3.319h.0444a.65.65 0 1 0 0-1.3h-1.1746v-.4002a.65.65 0 0 0-.65-.65zm-3.3986.5489h-1.954c-2.0158 0-3.65 1.6341-3.65 3.65V12.85c0 1.1322.9178 2.05 2.05 2.05h4.3747a2.93 2.93 0 0 1-.482-1.3H4.0836a.75.75 0 0 1-.75-.75v-1.0675c0-1.2979 1.0521-2.35 2.35-2.35h1.5836a2 2 0 0 1-.0056-.1486c0-.4307.1396-.8288.376-1.1514m2.9184 1.8014h2.8136v3.3189a.35.35 0 0 1-.35.35H10.906a.35.35 0 0 1-.35-.35z"/></svg>