<svg width="16" height="16" viewBox="0 0 16 16" fill="none" xmlns="http://www.w3.org/2000/svg">
<path d="M6.60416 6.76892C6.96315 6.76892 7.25416 7.05994 7.25416 7.41892V11.3354C7.25416 11.6944 6.96315 11.9854 6.60416 11.9854C6.24518 11.9854 5.95416 11.6944 5.95416 11.3354L5.95416 7.41892C5.95416 7.05994 6.24518 6.76892 6.60416 6.76892Z" fill="black"/>
<path d="M10.046 7.41892C10.046 7.05994 9.75496 6.76892 9.39597 6.76892C9.03699 6.76892 8.74597 7.05994 8.74597 7.41892L8.74597 11.3354C8.74597 11.6944 9.03699 11.9854 9.39597 11.9854C9.75496 11.9854 10.046 11.6944 10.046 11.3354V7.41892Z" fill="black"/>
<path fill-rule="evenodd" clip-rule="evenodd" d="M6.88062 1.0415C5.63797 1.0415 4.63062 2.04886 4.63062 3.2915V3.85394H2.5543C2.19531 3.85394 1.9043 4.14496 1.9043 4.50394C1.9043 4.86293 2.19531 5.15394 2.5543 5.15394H3.28259V12.9665C3.28259 14.0987 4.20041 15.0165 5.33259 15.0165H10.6973C11.8295 15.0165 12.7473 14.0987 12.7473 12.9665V5.15394H13.4756C13.8346 5.15394 14.1256 4.86293 14.1256 4.50394C14.1256 4.14496 13.8346 3.85394 13.4756 3.85394L11.3993 3.85394V3.2915C11.3993 2.04886 10.392 1.0415 9.14935 1.0415H6.88062ZM5.93062 3.2915C5.93062 2.76683 6.35594 2.3415 6.88062 2.3415H9.14935C9.67402 2.3415 10.0993 2.76683 10.0993 3.2915V3.85393H5.93062V3.2915ZM4.58259 5.15394H11.4473V12.9665C11.4473 13.3807 11.1116 13.7165 10.6973 13.7165H5.33259C4.91838 13.7165 4.58259 13.3807 4.58259 12.9665V5.15394Z" fill="black"/>
</svg>
