<svg xmlns="http://www.w3.org/2000/svg" width="16" height="16" fill="none" viewBox="0 0 16 16"><path fill="#000" fill-rule="evenodd" d="M4.6305 3.2914c0-1.2427 1.0074-2.25 2.25-2.25h2.2687c1.2427 0 2.25 1.0073 2.25 2.25v.5624h2.0763a.65.65 0 1 1 0 1.3h-.7283v7.8126c0 1.1322-.9178 2.05-2.05 2.05H5.3325c-1.1322 0-2.05-.9178-2.05-2.05V5.1538h-.7283a.65.65 0 0 1 0-1.3h2.0763zm2.25-.95a.95.95 0 0 0-.95.95v.5624h4.1687v-.5624a.95.95 0 0 0-.95-.95zm4.5667 2.8124H4.5825v7.8126a.75.75 0 0 0 .75.75h5.3647a.75.75 0 0 0 .75-.75zM6.604 6.7688a.65.65 0 0 1 .65.65v3.9165a.65.65 0 1 1-1.3 0V7.4188a.65.65 0 0 1 .65-.65m3.4419.65a.65.65 0 0 0-1.3 0v3.9165a.65.65 0 1 0 1.3 0z"/></svg>