<svg xmlns="http://www.w3.org/2000/svg" width="16" height="16" fill="none" viewBox="0 0 16 16"><path fill="#000" fill-rule="evenodd" d="M.9976 3.6407c0-1.4635 1.1864-2.65 2.65-2.65h8.7044c1.4635 0 2.65 1.1865 2.65 2.65v5.6498c0 1.4636-1.1865 2.65-2.65 2.65h-1.9419v1.769h.8589a.65.65 0 1 1 0 1.3H4.7306a.65.65 0 1 1 0-1.3h.8588v-1.769H3.6476c-1.4636 0-2.65-1.1864-2.65-2.65zm2.65 6.9998c-.7456 0-1.35-.6044-1.35-1.35V3.6407c0-.7456.6044-1.35 1.35-1.35h8.7044c.7455 0 1.35.6044 1.35 1.35v5.6498c0 .7456-.6045 1.35-1.35 1.35zm3.2418 1.3v1.7688H9.11v-1.7688z"/></svg>