<svg width="16" height="16" viewBox="0 0 16 16" fill="none" xmlns="http://www.w3.org/2000/svg">
<path d="M12.5002 1C12.155 1 11.8752 1.27982 11.8752 1.625V1.73252C11.1849 1.73252 10.6252 2.29216 10.6252 2.98252V4.125C10.28 4.125 10.0002 4.40482 10.0002 4.75C10.0002 5.09518 10.28 5.375 10.6252 5.375H11.8752C11.8752 5.72018 12.155 6 12.5002 6C12.8454 6 13.1252 5.72018 13.1252 5.375H14.3752C14.7204 5.375 15.0002 5.09518 15.0002 4.75C15.0002 4.40482 14.7204 4.125 14.3752 4.125V2.98252C14.3752 2.29216 13.8156 1.73252 13.1252 1.73252V1.625C13.1252 1.27982 12.8454 1 12.5002 1Z" fill="black"/>
<path d="M9.85022 9C9.85022 8.64102 10.1412 8.35 10.5002 8.35C10.8592 8.35 11.1502 8.64102 11.1502 9L11.1502 11.7792L11.5406 11.3889C11.7944 11.135 12.206 11.135 12.4598 11.3889C12.7137 11.6427 12.7137 12.0543 12.4598 12.3081L10.9598 13.8081C10.706 14.0619 10.2944 14.0619 10.0406 13.8081L8.5406 12.3081C8.28676 12.0543 8.28676 11.6427 8.5406 11.3889C8.79444 11.135 9.206 11.135 9.45984 11.3889L9.85022 11.7793V9Z" fill="black"/>
<path d="M5.50022 14.0005C5.14123 14.0005 4.85022 13.7095 4.85022 13.3505V10.5692L4.45984 10.9596C4.206 11.2135 3.79444 11.2135 3.5406 10.9596C3.28676 10.7058 3.28676 10.2942 3.5406 10.0404L5.0406 8.54038C5.29444 8.28654 5.706 8.28654 5.95984 8.54038L7.45984 10.0404C7.71368 10.2942 7.71368 10.7058 7.45984 10.9596C7.206 11.2135 6.79444 11.2135 6.5406 10.9596L6.15022 10.5692V13.3505C6.15022 13.7095 5.8592 14.0005 5.50022 14.0005Z" fill="black"/>
<path d="M12.0736 7.25255C11.6848 7.16458 11.3406 6.95892 11.0805 6.675H10.6252C10.017 6.675 9.47474 6.39297 9.12197 5.95256H3.06182C2.70283 5.95256 2.41182 5.66154 2.41182 5.30256V3.99535C2.41182 3.63637 2.70283 3.34535 3.06182 3.34535H9.30893L9.32522 3.33026V2.98251C9.32522 2.65162 9.38824 2.33545 9.50294 2.04535H3.06182C1.98486 2.04535 1.11182 2.9184 1.11182 3.99535V5.30256C1.11182 6.37951 1.98486 7.25255 3.06182 7.25255H12.0736Z" fill="black"/>
<path d="M4.4854 5.39894C4.89961 5.39894 5.2354 5.06315 5.2354 4.64894C5.2354 4.23473 4.89961 3.89894 4.4854 3.89894C4.07118 3.89894 3.7354 4.23473 3.7354 4.64894C3.7354 5.06315 4.07118 5.39894 4.4854 5.39894Z" fill="black"/>
</svg>
