<svg xmlns="http://www.w3.org/2000/svg" width="16" height="16" fill="none" viewBox="0 0 16 16"><path fill="#000" fill-rule="evenodd" d="m10.1267 2.2794 1.6306 3.1184a2.05 2.05 0 0 0-.7476-.1405c-.2549 0-.499.0465-.7241.1315l-1.3109-2.507c-.4115-.7871-1.538-.7871-1.9496 0l-4.8193 9.217c-.383.7324.1483 1.6097.9748 1.6097h6.2116q.0114.0146.023.029a2.03 2.03 0 0 0-.4445 1.271H3.1806c-1.8032 0-2.9623-1.9141-2.1268-3.512l4.8193-9.217c.8979-1.7174 3.3557-1.7174 4.2536 0m.7739 4.2857a.75.75 0 0 0-.6409.7421v5.1417a.75.75 0 0 0 1.5 0V7.3073a.7503.7503 0 0 0-.8591-.7422m2.8934 5.5337-.7343-1.4045V7.8887l1.8864 3.6078c.7995 1.5291-.2275 3.3477-1.8975 3.5015a2.03 2.03 0 0 0-.4445-1.2605l.023-.029h.1921c.8265 0 1.3578-.8773.9748-1.6097m-3.2604 2.3445a.739.739 0 1 0 .9521 1.1303.739.739 0 0 0-.9521-1.1303"/></svg>