<svg xmlns="http://www.w3.org/2000/svg" width="16" height="16" fill="none" viewBox="0 0 16 16"><path fill="#000" fill-rule="evenodd" d="M3.6564 1.0068c-1.4636 0-2.65 1.1865-2.65 2.65v8.6867c0 1.4635 1.1864 2.65 2.65 2.65h2.9264l.011.0001.011-.0001h5.7382c1.4635 0 2.65-1.1865 2.65-2.65V3.6568c0-1.4635-1.1865-2.65-2.65-2.65zm8.6866 12.6867H7.2439v-2.9743h6.4491v1.6243c0 .7456-.6044 1.35-1.35 1.35m-6.3991 0v-2.9743H2.3064v1.6243c0 .7456.6044 1.35 1.35 1.35zM2.3064 3.6568c0-.7456.6044-1.35 1.35-1.35h2.2875v2.9743H2.3064zm4.9375 1.6243h6.4491V3.6568c0-.7456-.6044-1.35-1.35-1.35H7.2439zm-4.9375 1.3v2.838h6.66v-2.838zm11.3866 0h-3.4267v2.838h3.4267z"/></svg>