<svg xmlns="http://www.w3.org/2000/svg" width="16" height="16" fill="none" viewBox="0 0 16 16"><path fill="#000" fill-rule="evenodd" d="M5.332 2.0167c-1.0946 0-1.982.8873-1.982 1.9819v8.0028c0 1.0946.8874 1.9819 1.982 1.9819h5.3361c1.0946 0 1.9819-.8873 1.9819-1.9819v-.694a1.94 1.94 0 0 1-.9303-.448c-.033-.0175-.1454-.0733-.3697-.0759v1.2179a.682.682 0 0 1-.6819.6819H5.3319a.682.682 0 0 1-.6819-.6819V3.9986a.682.682 0 0 1 .682-.682h5.3361a.682.682 0 0 1 .6819.682v.6624a8.16 8.16 0 0 1 1.3.1046v-.767c0-1.0946-.8873-1.982-1.9819-1.982zm6.0017 5.2443c-1.853 0-2.8083.8598-2.875.9218a.65.65 0 1 1-.886-.9513c.218-.203 1.4747-1.2705 3.761-1.2705s3.5429 1.0675 3.7609 1.2705a.65.65 0 0 1-.886.9513c-.0666-.062-1.0219-.9218-2.8749-.9218M9.381 8.7822a2.7 2.7 0 0 1 .4119-.2524c.3573-.1786.8729-.3464 1.5408-.3464s1.1835.1678 1.5408.3464a2.7 2.7 0 0 1 .4118.2524c.1122.0841.1665.1317.222.201a.65.65 0 0 1-.9596.8731l-.0023-.002a.7.7 0 0 0-.0401-.0321 1.4 1.4 0 0 0-.2132-.1296c-.1983-.0992-.5161-.2092-.9594-.2092s-.7611.11-.9594.2092a1.4 1.4 0 0 0-.2133.1296 1 1 0 0 0-.0401.0321l-.0022.002a.65.65 0 0 1-.9596-.8732c.0554-.0691.1098-.1168.222-.2009"/></svg>