<svg width="16" height="16" viewBox="0 0 16 16" fill="none" xmlns="http://www.w3.org/2000/svg">
<path fill-rule="evenodd" clip-rule="evenodd" d="M3.3501 3.4001C3.3501 2.26791 4.26791 1.3501 5.4001 1.3501H10.6001C11.7323 1.3501 12.6501 2.26791 12.6501 3.4001V12.6001C12.6501 13.7323 11.7323 14.6501 10.6001 14.6501H5.4001C4.26791 14.6501 3.3501 13.7323 3.3501 12.6001V3.4001ZM6.68335 12.0001C6.68335 11.6411 6.97436 11.3501 7.33335 11.3501H8.66668C9.02567 11.3501 9.31668 11.6411 9.31668 12.0001C9.31668 12.3591 9.02567 12.6501 8.66668 12.6501H7.33335C6.97436 12.6501 6.68335 12.3591 6.68335 12.0001Z" fill="black"/>
</svg>
