<svg xmlns="http://www.w3.org/2000/svg" width="16" height="16" fill="none" viewBox="0 0 16 16"><path fill="#000" fill-rule="evenodd" d="M4.1912 2.436C2.364 2.436.8828 3.9173.8828 5.7444v4.7349c0 1.7035 1.381 3.0845 3.0845 3.0845.8731 0 1.6625-.3637 2.2228-.9461.2846-.2957.5525-.5613.8326-.7557.2754-.1911.5174-.281.748-.281h.1243c.2306 0 .4725.0899.7479.281.2801.1944.548.46.8326.7557.5604.5824 1.3497.9461 2.2228.9461 1.7036 0 3.0845-1.381 3.0845-3.0845V5.7444c0-1.8271-1.4812-3.3084-3.3084-3.3084zm7.7823 3.5686a.7041.7041 0 1 1-1.4083 0 .7042.7042 0 0 1 1.4083 0m-6.2996.204a.65.65 0 0 0-1.3 0v.4443h-.4444a.65.65 0 0 0 0 1.3h.4444v.4443a.65.65 0 0 0 1.3 0V7.953h.4443a.65.65 0 0 0 0-1.3h-.4443zm4.8912 1.8977a.7042.7042 0 1 1-1.4084 0 .7042.7042 0 0 1 1.4084 0"/></svg>