<svg xmlns="http://www.w3.org/2000/svg" width="16" height="16" fill="none" viewBox="0 0 16 16"><path fill="#000" fill-rule="evenodd" d="M7.539 4.6826a3.964 3.964 0 0 0-2.205-.666C3.1342 4.0166 1.3508 5.8002 1.3506 8c.0001 2.1998 1.7836 3.9834 3.9834 3.9834a3.965 3.965 0 0 0 2.205-.667h3.794c1.8316 0 3.3172-1.4848 3.3174-3.3164-.0002-1.8316-1.4858-3.3174-3.3174-3.3174zM2.6505 8C2.6506 6.5182 3.852 5.3174 5.334 5.3174 6.8156 5.3177 8.0164 6.5184 8.0166 8c-.0001 1.4816-1.201 2.6833-2.6826 2.6836-1.4819 0-2.6834-1.2018-2.6836-2.6836m6.667 0c0-.7359-.2008-1.425-.5488-2.0166h2.5644c1.1137 0 2.0164.903 2.0166 2.0166-.0002 1.1136-.9029 2.0166-2.0166 2.0166H8.7685A3.964 3.964 0 0 0 9.3174 8m-2.667 0a.6505.6505 0 0 0-.5195-.6367L6 7.3496H4.667A.6507.6507 0 0 0 4.0166 8c0 .359.2914.6504.6504.6504H6l.1309-.0137A.6505.6505 0 0 0 6.6504 8"/></svg>