<svg width="16" height="16" viewBox="0 0 16 16" fill="none" xmlns="http://www.w3.org/2000/svg">
<path fill-rule="evenodd" clip-rule="evenodd" d="M6.12275 12.4301C5.87089 13.4978 7.11462 14.2783 7.96653 13.5872L11.9866 10.326C12.1621 10.1836 12.2641 9.96962 12.2641 9.74357V3.22204C12.2641 2.25555 11.4806 1.47205 10.5141 1.47205H4.80164C4.20164 1.47205 3.65553 1.81833 3.39965 2.36103L1.16923 7.09168C0.621938 8.25247 1.46878 9.58799 2.75211 9.58799H6.79319L6.12275 12.4301Z" fill="black"/>
<path d="M13.3667 9.28609C13.3667 9.70031 13.7025 10.0361 14.1167 10.0361C14.5309 10.0361 14.8667 9.70031 14.8667 9.28609V2.24047C14.8667 1.82626 14.5309 1.49047 14.1167 1.49047C13.7025 1.49047 13.3667 1.82626 13.3667 2.24047V9.28609Z" fill="black"/>
</svg>
