<svg xmlns="http://www.w3.org/2000/svg" width="16" height="16" fill="none" viewBox="0 0 16 16"><path fill="#000" fill-rule="evenodd" d="M6.1894 12.7698c-.2519 1.0677.9919 1.8482 1.8438 1.1571l4.02-3.2612a.75.75 0 0 0 .2775-.5824V3.5618c0-.9665-.7835-1.75-1.75-1.75H4.8683a1.55 1.55 0 0 0-1.402.889L1.2359 7.4314c-.5473 1.1608.2995 2.4963 1.5829 2.4963h4.041zm4.6413-3.0438-2.9458 2.3897.6524-2.7658a.75.75 0 0 0-.73-.9222H2.8188c-.1834 0-.3043-.1908-.2262-.3566l2.2305-4.7307a.05.05 0 0 1 .0452-.0286h5.7124a.25.25 0 0 1 .25.25z" clip-rule="evenodd"/><path fill="#000" d="M13.4333 9.6258a.75.75 0 0 0 1.5 0V2.5802a.75.75 0 0 0-1.5 0z"/></svg>