<svg xmlns="http://www.w3.org/2000/svg" width="16" height="16" fill="none" viewBox="0 0 16 16"><path fill="#000" fill-rule="evenodd" d="M8.0332 13.9268c-.852.6911-2.0957-.0894-1.8438-1.1571l.6704-2.8421h-4.041c-1.2834 0-2.1302-1.3355-1.583-2.4963l2.2305-4.7307a1.55 1.55 0 0 1 1.402-.889h5.7124c.9665 0 1.75.7835 1.75 1.75v6.5216c0 .226-.1019.44-.2775.5824zm6.1501-3.5511a.75.75 0 0 1-.75-.75V2.58a.75.75 0 0 1 1.5 0v7.0456a.75.75 0 0 1-.75.75m-6.2984 1.7399 2.9458-2.3898v-6.164a.25.25 0 0 0-.25-.25H4.8683a.05.05 0 0 0-.0452.0286L2.5926 8.071c-.0781.1658.0428.3566.2262.3566h4.9885a.75.75 0 0 1 .73.9222z"/></svg>