<svg xmlns="http://www.w3.org/2000/svg" width="16" height="16" fill="none" viewBox="0 0 16 16"><path fill="#000" fill-rule="evenodd" d="M3.6152 3.2661c0-1.2426 1.0074-2.25 2.25-2.25h4.2692c1.2426 0 2.25 1.0074 2.25 2.25v9.4681c0 1.2426-1.0074 2.25-2.25 2.25H5.8652c-1.2426 0-2.25-1.0074-2.25-2.25zm2.25-.95a.95.95 0 0 0-.95.95v9.4681c0 .5246.4254.95.95.95h4.2692c.5246 0 .95-.4254.95-.95v-9.468a.95.95 0 0 0-.95-.95h-.8287v.7287a.5.5 0 0 1-.5.5H7.193a.5.5 0 0 1-.5-.5V2.316zm2.1344 3.3534v2h2c0 1.1046-.8954 2-2 2s-2-.8954-2-2 .8954-2 2-2m.7652 6.296a.765.765 0 1 1-1.5299 0 .765.765 0 0 1 1.53 0"/></svg>