<svg xmlns="http://www.w3.org/2000/svg" width="16" height="16" fill="none" viewBox="0 0 16 16"><path fill="#000" fill-rule="evenodd" d="M7.935 1.0002c-2.8939.0264-5.3682 1.8087-6.4091 4.333h1.435c.612-1.154 1.6088-2.0726 2.8193-2.5849a6.8 6.8 0 0 0-.2363.5127c-.2484.6013-.4476 1.3029-.5871 2.0722h1.3237c.1204-.5936.2789-1.1255.465-1.5758.218-.528.4613-.9126.6982-1.1551.2184-.2235.396-.2936.5274-.3023h.0579c.1314.0087.309.0788.5274.3023.2369.2425.4801.627.6983 1.155.186.4504.3444.9823.4649 1.576h1.3237c-.1396-.7694-.3387-1.471-.5872-2.0723a6.8 6.8 0 0 0-.2362-.5126c1.2105.5123 2.2072 1.4309 2.8191 2.5848h1.4351c-1.0408-2.5243-3.5151-4.3066-6.409-4.333a1.8 1.8 0 0 0-.1302 0m4.315 4.9997C11.5596 6 11 6.5596 11 7.25s.5596 1.25 1.25 1.25h1a.25.25 0 1 1 0 .5H11.5a.5.5 0 0 0 0 1h1.75c.6904 0 1.25-.5596 1.25-1.25s-.5596-1.25-1.25-1.25h-1a.25.25 0 1 1 0-.5H14a.5.5 0 0 0 0-1zM1.5 6.5A.5.5 0 0 1 2 6h1.5C4.3284 6 5 6.6715 5 7.5v1c0 .8285-.6716 1.5-1.5 1.5H2a.5.5 0 0 1-.5-.5zm5.6699-.2844a.5.5 0 0 0-.8841.3201v3a.5.5 0 0 0 1 0v-1.619l1.6159 1.939a.5.5 0 0 0 .884-.32v-3a.5.5 0 1 0-1 0v1.619zM2.5 6.9999v2h1a.5.5 0 0 0 .5-.5v-1a.5.5 0 0 0-.5-.5zm5.4317 7.9997c-2.8925-.0277-5.3654-1.8096-6.4059-4.333H2.961c.6119 1.1539 1.6086 2.0726 2.8191 2.5849a6.8 6.8 0 0 1-.2362-.5126c-.2484-.6013-.4476-1.3029-.5871-2.0723h1.3237c.1204.5936.2789 1.1256.465 1.576.218.5279.4613.9125.6982 1.155.2175.2227.3947.2931.526.3022L8 13.6999l.0304-.0001c.1313-.0091.3084-.0795.526-.3022.2369-.2425.4801-.6271.6983-1.155.186-.4504.3445-.9824.465-1.576h1.3236c-.1395.7694-.3387 1.471-.5872 2.0723a6.7 6.7 0 0 1-.2362.5125c1.2105-.5123 2.2072-1.4309 2.8191-2.5848h1.4352c-1.0405 2.5234-3.5134 4.3053-6.4058 4.333a1.7 1.7 0 0 1-.1367 0"/></svg>