<svg xmlns="http://www.w3.org/2000/svg" width="16" height="16" fill="none" viewBox="0 0 16 16"><path fill="#000" fill-rule="evenodd" d="M3.2446 3.0938c0-1.1322.9178-2.05 2.05-2.05H8.964a1.15 1.15 0 0 1 .841.3658l3.6426 3.907a1.15 1.15 0 0 1 .3089.7842v.4364h-3.1917c-1.1322 0-2.05-.9178-2.05-2.05V2.3438h-3.22a.75.75 0 0 0-.75.75v2.5166h-1.3zm6.57.2326 1.7816 1.9108h-1.0315a.75.75 0 0 1-.75-.75zm-3.2324 4.884a.35.35 0 0 1 .35.35v1.6465a.35.35 0 0 1-.35.35H2.5304a.65.65 0 1 0 0 1.3h4.0518c.9112 0 1.65-.7387 1.65-1.65V8.5604c0-.9112-.7388-1.65-1.65-1.65H2.5304a.65.65 0 0 0 0 1.3zm6.8187 2.8484a.647.647 0 0 1-.3355.1785.65.65 0 0 1-.2744-.0056.65.65 0 0 1-.3094-1.0921l.1059-.1059h-2.685a.65.65 0 0 1 0-1.3h2.685l-.1059-.1059a.65.65 0 0 1 .9193-.9192l1.2154 1.2155a.65.65 0 0 1 0 .9192zm-8.1063 2.5971a.75.75 0 0 1-.707-.499H3.26c.1237 1.0138.9875 1.799 2.0347 1.799h6.2118c1.2426 0 2.25-1.0074 2.25-2.25v-.6717a1.654 1.654 0 0 1-1.3.1425v.5292a.95.95 0 0 1-.95.95z"/></svg>