<svg width="16" height="16" viewBox="0 0 16 16" fill="none" xmlns="http://www.w3.org/2000/svg">
<path d="M4.99977 5.33325C5.55206 5.33325 5.99977 4.88554 5.99977 4.33325C5.99977 3.78097 5.55206 3.33325 4.99977 3.33325C4.44749 3.33325 3.99977 3.78097 3.99977 4.33325C3.99977 4.88554 4.44749 5.33325 4.99977 5.33325Z" fill="black"/>
<path d="M10.9998 5.33325C11.5521 5.33325 11.9998 4.88554 11.9998 4.33325C11.9998 3.78097 11.5521 3.33325 10.9998 3.33325C10.4475 3.33325 9.99977 3.78097 9.99977 4.33325C9.99977 4.88554 10.4475 5.33325 10.9998 5.33325Z" fill="black"/>
<path fill-rule="evenodd" clip-rule="evenodd" d="M3.33311 6.68325C3.69209 6.68325 3.98311 6.97427 3.98311 7.33325C3.98311 7.98844 4.63915 8.68325 5.66644 8.68325C6.69373 8.68325 7.34977 7.98844 7.34977 7.33325L7.34977 7.31659H7.33311C6.97412 7.31659 6.68311 7.02557 6.68311 6.66659C6.68311 6.3076 6.97412 6.01659 7.33311 6.01659H8.66644C9.02542 6.01659 9.31644 6.3076 9.31644 6.66659C9.31644 7.02557 9.02542 7.31659 8.66644 7.31659H8.64977V7.33493C8.65089 7.98963 9.30669 8.68325 10.3331 8.68325C11.3604 8.68325 12.0164 7.98844 12.0164 7.33325C12.0164 6.97427 12.3075 6.68325 12.6664 6.68325C13.0254 6.68325 13.3164 6.97427 13.3164 7.33325C13.3164 8.54848 12.4399 9.48367 11.3164 9.83363V10.6666C11.3164 12.4983 9.83152 13.9833 7.99977 13.9833C6.16803 13.9833 4.68311 12.4983 4.68311 10.6666V9.83363C3.55966 9.48367 2.68311 8.54848 2.68311 7.33325C2.68311 6.97427 2.97412 6.68325 3.33311 6.68325ZM8.64977 9.52028C9.05466 9.7643 9.52484 9.92063 10.0164 9.96801V10.6666C10.0164 11.7804 9.11355 12.6833 7.99977 12.6833C6.886 12.6833 5.98311 11.7804 5.98311 10.6666V9.96801C6.47471 9.92063 6.94489 9.7643 7.34977 9.52028V10.6666C7.34977 11.0256 7.64079 11.3166 7.99977 11.3166C8.35876 11.3166 8.64977 11.0256 8.64977 10.6666V9.52028Z" fill="black"/>
</svg>
