<svg xmlns="http://www.w3.org/2000/svg" width="16" height="16" fill="none" viewBox="0 0 16 16"><path fill="#000" fill-rule="evenodd" d="M5 5.3334c.5523 0 1-.4478 1-1s-.4477-1-1-1-1 .4477-1 1 .4477 1 1 1m6 0c.5523 0 1-.4478 1-1s-.4477-1-1-1-1 .4477-1 1 .4477 1 1 1m-7.0166 2a.65.65 0 0 0-1.3 0c0 1.2152.8765 2.1504 2 2.5004v.8329c0 1.8318 1.4849 3.3167 3.3166 3.3167s3.3167-1.4849 3.3167-3.3167v-.833c1.1234-.35 2-1.2851 2-2.5003a.65.65 0 1 0-1.3 0c0 .6552-.6561 1.35-1.6834 1.35-1.0264 0-1.6822-.6937-1.6833-1.3484v-.0183h.0167a.65.65 0 0 0 0-1.3H7.3333a.65.65 0 1 0 0 1.3H7.35v.0167c0 .6552-.656 1.35-1.6833 1.35s-1.6833-.6948-1.6833-1.35m6.0333 2.6347c-.4916-.0473-.9618-.2037-1.3667-.4477v1.1463a.65.65 0 1 1-1.3 0V9.5204c-.4049.244-.875.4003-1.3666.4477v.6986c0 1.1138.9029 2.0167 2.0166 2.0167s2.0167-.9029 2.0167-2.0167z"/></svg>