<svg xmlns="http://www.w3.org/2000/svg" width="16" height="16" fill="none" viewBox="0 0 16 16"><path fill="#000" fill-rule="evenodd" d="M3.0306 1.0002a.65.65 0 0 1 .65.65V6.457L2.4838 7.6537a5.26 5.26 0 0 1-.1033-1.0397V1.6502a.65.65 0 0 1 .65-.65M8.749 5.0195 4.6123 9.1562c.7216.8512 1.7987 1.3915 3.002 1.3915h3.7851l-2.028-2.028a.65.65 0 0 1 .9193-.9192l3.1375 3.1375a.65.65 0 0 1 0 .9193l-3.1375 3.1375a.65.65 0 0 1-.9192-.9193l2.0278-2.0278h-3.785c-1.5622 0-2.9646-.6845-3.9236-1.7699l-1.5794 1.5794a.65.65 0 0 1-.9192-.9192l6.6377-6.6377a.65.65 0 0 1 .9192.9192"/></svg>