<svg width="16" height="16" viewBox="0 0 16 16" fill="none" xmlns="http://www.w3.org/2000/svg">
<path d="M3.68079 1.65024C3.68079 1.29126 3.38977 1.00024 3.03079 1.00024C2.6718 1.00024 2.38079 1.29126 2.38079 1.65024V6.61397C2.38079 6.96998 2.41633 7.31769 2.48407 7.65375L3.68079 6.45703L3.68079 1.65024Z" fill="black"/>
<path d="M4.61255 9.15623L8.74925 5.01953C9.00309 4.76569 9.00309 4.35413 8.74925 4.10029C8.4954 3.84645 8.08385 3.84645 7.83001 4.10029L1.19233 10.738C0.938493 10.9918 0.938493 11.4034 1.19233 11.6572C1.44617 11.911 1.85773 11.911 2.11157 11.6572L3.69096 10.0778C4.64992 11.1632 6.0523 11.8477 7.61454 11.8477L11.3995 11.8477L9.37171 13.8755C9.11787 14.1294 9.11786 14.5409 9.37171 14.7948C9.62555 15.0486 10.0371 15.0486 10.2909 14.7948L13.4284 11.6573C13.6823 11.4034 13.6823 10.9919 13.4284 10.738L10.2909 7.60054C10.0371 7.3467 9.62555 7.3467 9.37171 7.60054C9.11787 7.85438 9.11787 8.26593 9.37171 8.51978L11.3996 10.5477L7.61454 10.5477C6.41123 10.5477 5.33412 10.0074 4.61255 9.15623Z" fill="black"/>
</svg>
