<svg xmlns="http://www.w3.org/2000/svg" width="16" height="16" fill="none" viewBox="0 0 16 16"><path fill="#000" fill-rule="evenodd" d="M2.6834 3.6c0-1.2427 1.0073-2.25 2.25-2.25h6.1333c1.2426 0 2.25 1.0073 2.25 2.25v8.8c0 1.2426-1.0074 2.25-2.25 2.25H4.9333c-1.2426 0-2.25-1.0074-2.25-2.25zm9.3333 0v5.75H3.9834V3.6a.95.95 0 0 1 .95-.95h6.1333a.95.95 0 0 1 .95.95m-3.35.4a.6667.6667 0 1 1-1.3334 0 .6667.6667 0 0 1 1.3334 0M6 5.3333A.6667.6667 0 1 0 6 4a.6667.6667 0 0 0 0 1.3333m4 0A.6667.6667 0 1 0 10 4a.6667.6667 0 0 0 0 1.3334M8.6667 6a.6667.6667 0 1 1-1.3334 0 .6667.6667 0 0 1 1.3334 0m-2 1.3333a.6667.6667 0 1 1-1.3334 0 .6667.6667 0 0 1 1.3334 0m4 0a.6667.6667 0 1 1-1.3334 0 .6667.6667 0 0 1 1.3334 0M8 8.6667a.6667.6667 0 1 0 0-1.3334.6667.6667 0 0 0 0 1.3334m4.0167 1.9833H3.9834v1.75a.95.95 0 0 0 .95.95h6.1333a.95.95 0 0 0 .95-.95zm-4.6833.7a.65.65 0 1 0 0 1.3h1.3333a.65.65 0 1 0 0-1.3z"/></svg>