<svg xmlns="http://www.w3.org/2000/svg" width="16" height="16" fill="none" viewBox="0 0 16 16"><path fill="#000" fill-rule="evenodd" d="M8 4.5892c1.8837 0 3.4108 1.527 3.4108 3.4108 0 1.8837-1.527 3.4108-3.4108 3.4108-1.8837 0-3.4108-1.527-3.4108-3.4108 0-1.8837 1.527-3.4108 3.4108-3.4108m0 5.5216q.4372 0 .8103-.1546t.6822-.4637.4637-.6822T10.1108 8t-.1546-.8103-.4637-.6822-.6822-.4637T8 5.8892t-.8103.1546q-.3731.1545-.6822.4637-.3091.309-.4637.6822-.1546.3731-.1546.8103 0 .4371.1546.8103.1545.3731.4637.6822.309.3092.6822.4637T8 10.1108"/></svg>