<svg xmlns="http://www.w3.org/2000/svg" width="16" height="16" fill="none" viewBox="0 0 16 16"><path fill="#000" fill-rule="evenodd" d="M5.0565 1.8533a.65.65 0 1 0-.78-1.04l-2.6667 2a.65.65 0 0 0 0 1.04l2.6667 2a.65.65 0 0 0 .78-1.04l-1.1066-.83h4.7167c2.5865 0 4.6833 2.0968 4.6833 4.6833S11.2531 13.35 8.6666 13.35h-2a.65.65 0 1 0 0 1.3h2c3.3045 0 5.9833-2.6788 5.9833-5.9833s-2.6788-5.9833-5.9833-5.9833H3.9498zM3.7928 9.793l-.2238.2238h5.0975c.7456 0 1.35-.6044 1.35-1.35s-.6044-1.35-1.35-1.35H7.3332a.65.65 0 1 1 0-1.3h1.3333c1.4636 0 2.65 1.1864 2.65 2.65s-1.1864 2.65-2.65 2.65H3.5692l.2236.2236a.65.65 0 1 1-.9192.9192l-1.3334-1.3333a.65.65 0 0 1 0-.9192l1.3334-1.3334a.65.65 0 0 1 .9192.9193"/></svg>