<svg width="16" height="16" viewBox="0 0 16 16" fill="none" xmlns="http://www.w3.org/2000/svg">
<path d="M5.18676 0.943144C5.40216 1.23033 5.34395 1.63775 5.05676 1.85314L3.9501 2.68314H8.66685C11.9713 2.68314 14.6502 5.36197 14.6502 8.66648C14.6502 11.971 11.9713 14.6498 8.66684 14.6498H6.66685C6.30786 14.6498 6.01685 14.3588 6.01685 13.9998C6.01685 13.6408 6.30786 13.3498 6.66685 13.3498H8.66684C11.2534 13.3498 13.3502 11.253 13.3502 8.66648C13.3502 6.07994 11.2534 3.98314 8.66685 3.98314H3.9501L5.05676 4.81314C5.34395 5.02853 5.40216 5.43596 5.18676 5.72314C4.97137 6.01033 4.56395 6.06853 4.27676 5.85314L1.6101 3.85314C1.44642 3.73039 1.3501 3.53774 1.3501 3.33314C1.3501 3.12855 1.44642 2.9359 1.6101 2.81314L4.27676 0.813144C4.56395 0.597753 4.97137 0.655956 5.18676 0.943144Z" fill="black"/>
<path d="M3.56925 10.0166L3.79305 9.79284C4.04689 9.539 4.04689 9.12745 3.79305 8.87361C3.53921 8.61976 3.12765 8.61976 2.87381 8.87361L1.54048 10.2069C1.28664 10.4608 1.28664 10.8723 1.54048 11.1262L2.87381 12.4595C3.12765 12.7134 3.53921 12.7134 3.79305 12.4595C4.04689 12.2057 4.04689 11.7941 3.79305 11.5403L3.56942 11.3166H8.66676C10.1303 11.3166 11.3168 10.1302 11.3168 8.66664C11.3168 7.20308 10.1303 6.01664 8.66677 6.01664H7.33343C6.97445 6.01664 6.68343 6.30765 6.68343 6.66664C6.68343 7.02562 6.97445 7.31664 7.33343 7.31664H8.66677C9.41235 7.31664 10.0168 7.92105 10.0168 8.66664C10.0168 9.41222 9.41235 10.0166 8.66676 10.0166H3.56925Z" fill="black"/>
</svg>
