<svg width="16" height="16" viewBox="0 0 16 16" fill="none" xmlns="http://www.w3.org/2000/svg">
<path d="M8.45951 10.5556C8.20567 10.8095 7.79412 10.8095 7.54028 10.5556L4.87361 7.88896C4.61977 7.63512 4.61977 7.22356 4.87361 6.96972C5.12745 6.71588 5.53901 6.71588 5.79285 6.96972L7.34989 8.52677V3.18345C7.34989 2.82446 7.64091 2.53345 7.99989 2.53345C8.35888 2.53345 8.64989 2.82446 8.64989 3.18345V8.52677L10.2069 6.96972C10.4608 6.71588 10.8723 6.71588 11.1262 6.96972C11.38 7.22356 11.38 7.63512 11.1262 7.88896L8.45951 10.5556Z" fill="black"/>
<path d="M3.3166 11.8502C3.3166 11.4912 3.02559 11.2002 2.6666 11.2002C2.30762 11.2002 2.0166 11.4912 2.0166 11.8502V12.9168C2.0166 14.1595 3.02396 15.1668 4.2666 15.1668H11.7333C12.9759 15.1668 13.9833 14.1595 13.9833 12.9168V11.8502C13.9833 11.4912 13.6923 11.2002 13.3333 11.2002C12.9743 11.2002 12.6833 11.4912 12.6833 11.8502V12.9168C12.6833 13.4415 12.2579 13.8668 11.7333 13.8668H4.2666C3.74193 13.8668 3.3166 13.4415 3.3166 12.9168V11.8502Z" fill="black"/>
</svg>
