<svg xmlns="http://www.w3.org/2000/svg" width="16" height="16" fill="none" viewBox="0 0 16 16"><path fill="#000" fill-rule="evenodd" d="M3.4924 5.5276C3.919 3.428 5.7747 1.8481 8 1.8481s4.081 1.5799 4.5075 3.6795C13.898 5.789 14.95 7.0098 14.95 8.4762c0 1.5279-1.1421 2.7891-2.6192 2.9763a1.955 1.955 0 0 0-.1684-1.2892c.8387-.1046 1.4876-.8201 1.4876-1.6871 0-.9391-.7612-1.7004-1.7003-1.7004h-.0095a.65.65 0 0 1-.6514-.5977C11.152 4.4822 9.7315 3.1481 8 3.1481s-3.152 1.3341-3.2888 3.03a.65.65 0 0 1-.6497.5978h-.0111c-.939 0-1.7004.7612-1.7004 1.7003 0 .8465.6186 1.5485 1.4283 1.6787a1.955 1.955 0 0 0-.1746 1.2886C2.1585 11.2278 1.05 9.9815 1.05 8.4762c0-1.4664 1.052-2.6872 2.4425-2.9486m1.4423 5.8163a.65.65 0 0 1 1.0379-.7569l1.3458 1.3458V6.146a.65.65 0 0 1 1.3 0v5.7863l1.3453-1.3453a.65.65 0 0 1 .9192.9193l-2.445 2.4449a.65.65 0 0 1-.4212.1988.649.649 0 0 1-.5082-.1886l-2.4551-2.4551a.65.65 0 0 1-.1187-.1624"/></svg>