<svg xmlns="http://www.w3.org/2000/svg" width="16" height="16" fill="none" viewBox="0 0 16 16"><path fill="#000" fill-rule="evenodd" d="M8.6494 2.3336A.65.65 0 0 0 8 1.6832a.651.651 0 0 0-.6504.6504v5.126L5.793 5.9029l-.1026-.084a.651.651 0 0 0-.8174.084.6506.6506 0 0 0 0 .919L7.54 9.489l.1016.083a.651.651 0 0 0 .8174-.083l2.667-2.667.083-.1016a.65.65 0 0 0-.083-.8174.651.651 0 0 0-.8174-.084l-.1016.084-1.5576 1.5577zm5.334 8.3467a.6504.6504 0 0 0-.6494-.6504.6507.6507 0 0 0-.6504.6504v1.0664c0 .5246-.4257.95-.9502.9502H4.2666c-.5245-.0002-.9492-.4257-.9492-.9502v-1.0664a.651.651 0 0 0-.6504-.6504.6507.6507 0 0 0-.6504.6504v1.0664c0 1.2425 1.0075 2.2498 2.25 2.25h7.4668c1.2425-.0002 2.25-1.0075 2.25-2.25z"/></svg>