<svg width="16" height="16" viewBox="0 0 16 16" fill="none" xmlns="http://www.w3.org/2000/svg">
<path d="M4.74138 8.48149L7.52867 11.2688C7.64687 11.3911 7.81268 11.4672 7.99626 11.4672C8.0795 11.4672 8.15909 11.4516 8.23224 11.4231C8.31375 11.3914 8.39016 11.3426 8.45596 11.2768L11.2513 8.48148C11.5051 8.22764 11.5051 7.81609 11.2513 7.56225C10.9975 7.3084 10.5859 7.3084 10.3321 7.56225L8.64618 9.24813L8.64593 1.81721C8.64591 1.45823 8.35489 1.16722 7.9959 1.16724C7.63692 1.16725 7.34591 1.45827 7.34593 1.81726L7.34618 9.24781L5.66062 7.56225C5.40678 7.30841 4.99522 7.30841 4.74138 7.56225C4.48754 7.81609 4.48754 8.22764 4.74138 8.48149Z" fill="black"/>
<path d="M11.0536 3.55465C10.6946 3.55465 10.4036 3.84566 10.4036 4.20465C10.4036 4.56363 10.6946 4.85465 11.0536 4.85465L12.7512 4.85466C13.2758 4.85467 13.7012 5.28 13.7012 5.80466V12.7516C13.7012 13.2762 13.2758 13.7016 12.7512 13.7016H3.25195C2.72728 13.7016 2.30195 13.2762 2.30195 12.7516V5.80468C2.30195 5.28001 2.72728 4.85468 3.25195 4.85468H4.88255C5.24154 4.85468 5.53255 4.56366 5.53255 4.20468C5.53255 3.84569 5.24154 3.55468 4.88255 3.55468H3.25195C2.00931 3.55468 1.00195 4.56204 1.00195 5.80468V12.7516C1.00195 13.9942 2.00931 15.0016 3.25195 15.0016H12.7512C13.9938 15.0016 15.0012 13.9942 15.0012 12.7516V5.80466C15.0012 4.56203 13.9938 3.55468 12.7512 3.55466L11.0536 3.55465Z" fill="black"/>
</svg>
