<svg xmlns="http://www.w3.org/2000/svg" width="16" height="16" fill="none" viewBox="0 0 16 16"><path fill="#000" fill-rule="evenodd" d="M7.5257 11.1825 4.7384 8.3968a.6494.6494 0 0 1 0-.9187.6503.6503 0 0 1 .9193 0l1.6855 1.6846-.0002-7.4264c0-.3587.291-.6496.65-.6496s.65.2908.65.6496l.0002 7.4267 1.6859-1.6849a.6503.6503 0 0 1 .9193 0 .6495.6495 0 0 1 0 .9187L8.453 11.1906a.648.648 0 0 1-.4597.1903.648.648 0 0 1-.4676-.1984m2.875-7.0601c0-.3588.291-.6496.65-.6496h1.6976c1.2426 0 2.2499 1.0068 2.2499 2.2487v6.943c0 1.2419-1.0073 2.2487-2.25 2.2487H3.249c-1.2426 0-2.25-1.0068-2.25-2.2487v-6.943c0-1.242 1.0074-2.2487 2.25-2.2487h1.6306c.359 0 .65.2908.65.6496a.65.65 0 0 1-.65.6497H3.249c-.5247 0-.95.425-.95.9494v6.943c0 .5244.4253.9495.95.9495h9.4992c.5247 0 .95-.4251.95-.9495v-6.943c0-.5244-.4253-.9495-.95-.9495h-1.6975a.65.65 0 0 1-.65-.6496"/></svg>