<svg width="16" height="16" viewBox="0 0 16 16" fill="none" xmlns="http://www.w3.org/2000/svg">
<path d="M7.9998 1.84814C5.77453 1.84814 3.91881 3.42798 3.49231 5.5276C2.10183 5.78904 1.0498 7.00976 1.0498 8.47618C1.0498 9.98142 2.15826 11.2278 3.60344 11.4435C3.51406 11.0115 3.57227 10.555 3.77809 10.1549C2.96834 10.0247 2.3498 9.32265 2.3498 8.47618C2.3498 7.53711 3.11107 6.77584 4.05015 6.77584L4.06133 6.77587C4.40072 6.77678 4.68369 6.51643 4.71098 6.17813C4.84778 4.48225 6.26832 3.14814 7.9998 3.14814C9.73129 3.14814 11.1518 4.48225 11.2886 6.17814C11.316 6.51709 11.6 6.77768 11.94 6.77586L11.9495 6.77584C12.8885 6.77584 13.6498 7.53711 13.6498 8.47618C13.6498 9.34321 13.0009 10.0587 12.1622 10.1633C12.3659 10.5643 12.4221 11.0209 12.3306 11.4525C13.8077 11.2653 14.9498 10.0041 14.9498 8.47618C14.9498 7.00976 13.8978 5.78904 12.5073 5.5276C12.0808 3.42798 10.2251 1.84814 7.9998 1.84814Z" fill="black"/>
<path d="M5.05322 10.587C4.84838 10.7918 4.80884 11.0994 4.9346 11.3439C4.96468 11.4024 5.00426 11.4572 5.05327 11.5063L7.50841 13.9614C7.64768 14.1007 7.83442 14.1635 8.01654 14.15C8.1818 14.1379 8.3299 14.0639 8.43782 13.9512L10.8828 11.5063C11.1366 11.2524 11.1366 10.8409 10.8828 10.587C10.6289 10.3332 10.2174 10.3332 9.96355 10.587L8.61828 11.9323L8.61828 6.14599C8.61828 5.78701 8.32727 5.49599 7.96828 5.49599C7.6093 5.49599 7.31828 5.78701 7.31828 6.14599V11.9328L5.97251 10.587C5.71867 10.3332 5.30706 10.3331 5.05322 10.587Z" fill="black"/>
</svg>
