<svg xmlns="http://www.w3.org/2000/svg" width="16" height="16" fill="none" viewBox="0 0 16 16"><path fill="#000" fill-rule="evenodd" d="M7.0417 3.2088c0 .7938-.6436 1.4373-1.4374 1.4373S4.167 4.0026 4.167 3.2088s.6435-1.4373 1.4373-1.4373 1.4373.6435 1.4373 1.4373m4.7911 0c0 .7938-.6435 1.4373-1.4373 1.4373S8.958 4.0026 8.958 3.2088s.6435-1.4373 1.4374-1.4373c.7938 0 1.4373.6435 1.4373 1.4373m0 4.7912c0 .7938-.6435 1.4373-1.4373 1.4373S8.9581 8.7938 8.9581 8s.6435-1.4374 1.4374-1.4374c.7938 0 1.4373.6435 1.4373 1.4374M7.0416 8c0 .7938-.6435 1.4373-1.4373 1.4373S4.167 8.7938 4.167 8s.6435-1.4374 1.4373-1.4374S7.0416 7.2061 7.0416 8m3.3539 6.2284c.7938 0 1.4373-.6436 1.4373-1.4374s-.6435-1.4373-1.4373-1.4373-1.4374.6435-1.4374 1.4373.6435 1.4374 1.4374 1.4374m-4.7912 0c.7938 0 1.4373-.6436 1.4373-1.4374s-.6435-1.4373-1.4373-1.4373-1.4373.6435-1.4373 1.4373.6435 1.4374 1.4373 1.4374"/></svg>