<svg xmlns="http://www.w3.org/2000/svg" width="16" height="16" fill="none" viewBox="0 0 16 16"><path fill="#000" fill-rule="evenodd" d="M12.6734 1.7257c-.5662-.5662-1.4843-.5662-2.0506 0L2.13 10.2186a1.65 1.65 0 0 0-.4453.8146l-.643 2.9447c-.1322.6052.4065 1.1439 1.0117 1.0118l2.9447-.6431a1.65 1.65 0 0 0 .8146-.4453l8.4929-8.4928c.5662-.5663.5662-1.4844 0-2.0506zm-1.1313.9193a.15.15 0 0 1 .2121 0l1.6321 1.6321a.15.15 0 0 1 0 .2121l-.7222.7222-1.8442-1.8442zM9.9006 4.2864l-6.8514 6.8514a.35.35 0 0 0-.0944.1728l-.4934 2.2593 2.2593-.4934a.35.35 0 0 0 .1728-.0944l6.8514-6.8514z"/></svg>