<svg width="16" height="16" viewBox="0 0 16 16" fill="none" xmlns="http://www.w3.org/2000/svg">
<path d="M12.6737 1.72572C12.1074 1.15946 11.1893 1.15946 10.6231 1.72572L9.90095 2.44784L13.5692 6.11605C13.574 6.12092 13.5788 6.12584 13.5835 6.13082L14.3058 5.40847C14.8721 4.84221 14.8721 3.92412 14.3058 3.35786L12.6737 1.72572Z" fill="black"/>
<path d="M12.6647 7.04961C12.6597 7.04493 12.6548 7.04015 12.6499 7.03529L8.98171 3.36708L2.13023 10.2186C1.90688 10.4419 1.75234 10.7247 1.68495 11.0332L1.04187 13.9779C0.90971 14.5831 1.44848 15.1218 2.05366 14.9897L4.9983 14.3466C5.30688 14.2792 5.58964 14.1247 5.81298 13.9013L12.6647 7.04961Z" fill="black"/>
</svg>
