<svg width="16" height="16" viewBox="0 0 16 16" fill="none" xmlns="http://www.w3.org/2000/svg">
<path d="M8.64994 2.08091C8.64994 1.72192 8.35893 1.43091 7.99994 1.43091C7.64096 1.43091 7.34994 1.72192 7.34994 2.08091V8.08091C7.34994 8.43989 7.64096 8.73091 7.99994 8.73091C8.35893 8.73091 8.64994 8.43989 8.64994 8.08091V2.08091Z" fill="black"/>
<path d="M7.04536 12.8737L3.20712 9.0355C2.67992 8.5083 2.67992 7.65352 3.20712 7.12631L5.12624 5.2072C5.38008 4.95336 5.38008 4.5418 5.12624 4.28796C4.8724 4.03412 4.46084 4.03412 4.207 4.28796L2.28789 6.20708C1.253 7.24196 1.253 8.91985 2.28789 9.95474L6.12612 13.793C7.16101 14.8279 8.8389 14.8279 9.87378 13.793L13.712 9.95474C14.7469 8.91985 14.7469 7.24196 13.712 6.20708L11.7929 4.28796C11.5391 4.03412 11.1275 4.03412 10.8737 4.28796C10.6198 4.5418 10.6198 4.95336 10.8737 5.2072L12.7928 7.12631C13.32 7.65352 13.32 8.50829 12.7928 9.0355L8.95455 12.8737C8.42734 13.4009 7.57256 13.4009 7.04536 12.8737Z" fill="black"/>
</svg>
