<svg xmlns="http://www.w3.org/2000/svg" width="16" height="16" fill="none" viewBox="0 0 16 16"><path d="M16 0H0v16h16z"/><path fill="#000" fill-rule="evenodd" d="M8 1.431a.65.65 0 0 1 .65.65v6a.65.65 0 1 1-1.3 0v-6a.65.65 0 0 1 .65-.65M3.207 9.0354l3.8383 3.8382c.5272.5272 1.382.5272 1.9091 0l3.8383-3.8382c.5272-.5272.5272-1.382 0-1.9092l-1.9191-1.919a.65.65 0 1 1 .9192-.9192l1.9191 1.919c1.0349 1.0349 1.0349 2.7128 0 3.7477L9.8738 13.793c-1.0349 1.0349-2.7128 1.0349-3.7477 0L2.288 9.9548c-1.0349-1.035-1.0349-2.7128 0-3.7477L4.207 4.288a.65.65 0 0 1 .9192.9192l-1.919 1.9191c-.5273.5272-.5273 1.382 0 1.9092"/></svg>