<svg xmlns="http://www.w3.org/2000/svg" width="16" height="16" fill="none" viewBox="0 0 16 16"><path fill="#000" fill-rule="evenodd" d="M15 8c0 3.866-3.134 7-7 7s-7-3.134-7-7 3.134-7 7-7 7 3.134 7 7m-1.3 0c0 3.148-2.552 5.7-5.7 5.7S2.3 11.148 2.3 8 4.852 2.3 8 2.3s5.7 2.552 5.7 5.7m-7.7015-.9257a.9478.9478 0 1 0 0-1.8955.9478.9478 0 0 0 0 1.8955m4.9507-.9478a.9478.9478 0 1 1-1.8954 0 .9478.9478 0 0 1 1.8954 0m-4.9113 4.954a.65.65 0 0 1-.8906-.9471c.2202-.207 1.237-1.0804 2.841-1.1093a4 4 0 0 1 .1593 0c1.5358.0295 2.5121.9165 2.7185 1.1208a.65.65 0 0 1-.9144.9241c-.1146-.1134-.787-.7251-1.829-.7452a3 3 0 0 0-.1109.0001c-1.1365.0205-1.8562.6459-1.9739.7566"/></svg>