<svg xmlns="http://www.w3.org/2000/svg" width="16" height="16" fill="none" viewBox="0 0 16 16"><path fill="#000" fill-rule="evenodd" d="M15 8c0 3.866-3.134 7-7 7s-7-3.134-7-7 3.134-7 7-7 7 3.134 7 7m-1.3 0c0 3.148-2.552 5.7-5.7 5.7S2.3 11.148 2.3 8 4.852 2.3 8 2.3s5.7 2.552 5.7 5.7m-7.7015-.9257a.9478.9478 0 1 0 0-1.8955.9478.9478 0 0 0 0 1.8955m4.9507-.9478a.9478.9478 0 1 1-1.8954 0 .9478.9478 0 0 1 1.8954 0M6.0389 9.2301a.65.65 0 1 0-.8893.9483c.2233.2094 1.23 1.0701 2.816 1.1067a4 4 0 0 0 .2037 0c1.5186-.0373 2.4852-.9115 2.6947-1.1182a.65.65 0 0 0-.9132-.9253c-.1173.1158-.783.7186-1.8134.744a3 3 0 0 1-.1417-.0001c-1.1236-.026-1.8363-.6423-1.9568-.7554"/></svg>