<svg xmlns="http://www.w3.org/2000/svg" width="16" height="16" fill="none" viewBox="0 0 16 16"><path fill="#000" fill-rule="evenodd" d="M15.3247 10.0083c-.0002-2.1998-1.7836-3.9834-3.9834-3.9834a3.964 3.964 0 0 0-2.205.666h-3.794c-1.8316 0-3.3172 1.4858-3.3174 3.3174.0002 1.8316 1.4857 3.3164 3.3174 3.3164h3.794a3.965 3.965 0 0 0 2.205.667c2.1998 0 3.9832-1.7836 3.9834-3.9834m-6.666 0c.0002-1.4816 1.201-2.6823 2.6826-2.6826 1.4819 0 2.6834 1.2008 2.6836 2.6826-.0002 1.4818-1.2017 2.6836-2.6836 2.6836-1.4815-.0004-2.6824-1.202-2.6826-2.6836m-5.333 0c.0002-1.1136.903-2.0166 2.0166-2.0166h2.5644a3.965 3.965 0 0 0-.5488 2.0166c0 .736.2007 1.425.5488 2.0166H5.3423c-1.1137 0-2.0164-.903-2.0166-2.0166m8.6396-1.0518a.6496.6496 0 0 1 .916-.0703.65.65 0 0 1 .0704.916l-1.3389 1.5625a.6507.6507 0 0 1-.9531.0372l-.8936-.8936.46-.459.4599-.46.3965.3965zm-1.2793.6329-.9199.9189a.65.65 0 0 1 0-.919.651.651 0 0 1 .9199 0"/></svg>