<svg xmlns="http://www.w3.org/2000/svg" width="16" height="16" fill="none" viewBox="0 0 16 16"><path fill="#000" fill-rule="evenodd" d="M5.35 3.5c0-.9113.7388-1.65 1.65-1.65h2c.9113 0 1.65.7387 1.65 1.65v2c0 .4063-.1468.7783-.3903 1.0658L11.9018 9.85h.5352c.6903 0 1.25.5596 1.25 1.25v1.8c0 .6903-.5597 1.25-1.25 1.25h-1.8c-.6904 0-1.25-.5597-1.25-1.25v-1.8c0-.6285.4638-1.1487 1.0679-1.2369l-1.358-2.716A1.7 1.7 0 0 1 9 7.15H7q-.0488 0-.0968-.0028l-1.358 2.716c.604.088 1.068.6083 1.068 1.2368v1.8c0 .6903-.5597 1.25-1.25 1.25h-1.8c-.6905 0-1.25-.5597-1.25-1.25v-1.8c0-.6904.5595-1.25 1.25-1.25h.5351l1.6421-3.2842A1.644 1.644 0 0 1 5.35 5.5zm-.864 7.65h-.873v1.7h1.7v-1.7h-.8272m7.0129.0001-.012-.0001h-.7999v1.7h1.7v-1.7h-.8729zM7 3.15a.35.35 0 0 0-.35.35v2a.35.35 0 0 0 .35.35h2a.35.35 0 0 0 .35-.35v-2A.35.35 0 0 0 9 3.15z"/></svg>