<svg width="16" height="16" viewBox="0 0 16 16" fill="none" xmlns="http://www.w3.org/2000/svg">
<path d="M12.1549 4.71704C12.4087 4.4632 12.4087 4.05164 12.1549 3.7978C11.901 3.54396 11.4895 3.54396 11.2356 3.7978L8.31036 6.72309L6.94467 5.35741C6.82277 5.23551 6.65744 5.16703 6.48505 5.16703C6.31265 5.16703 6.14732 5.23551 6.02543 5.35741L3.84272 7.54014C3.58888 7.79398 3.58888 8.20554 3.84273 8.45938C4.09657 8.71322 4.50813 8.71322 4.76197 8.45937L6.48505 6.73627L7.85074 8.10195C8.10458 8.35579 8.51613 8.35579 8.76997 8.10195L12.1549 4.71704Z" fill="black"/>
<path fill-rule="evenodd" clip-rule="evenodd" d="M3.70859 1.05225C2.24504 1.05225 1.05859 2.23869 1.05859 3.70225V9.25835C1.05859 10.7219 2.24504 11.9083 3.70859 11.9083H5.60645V13.6475H4.7623C4.40332 13.6475 4.1123 13.9385 4.1123 14.2975C4.1123 14.6564 4.40332 14.9475 4.7623 14.9475H11.2372C11.5962 14.9475 11.8872 14.6564 11.8872 14.2975C11.8872 13.9385 11.5962 13.6475 11.2372 13.6475H10.393V11.9083H12.2896C13.7532 11.9083 14.9396 10.7219 14.9396 9.25835V3.70225C14.9396 2.23869 13.7532 1.05225 12.2896 1.05225H3.70859ZM12.2896 10.6083C13.0352 10.6083 13.6396 10.0039 13.6396 9.25835V3.70225C13.6396 2.95666 13.0352 2.35225 12.2896 2.35225H3.70859C2.96301 2.35225 2.35859 2.95666 2.35859 3.70225V9.25835C2.35859 10.0039 2.96301 10.6083 3.70859 10.6083H12.2896ZM6.90645 13.6473V11.9083H9.09297V13.6473H6.90645Z" fill="black"/>
</svg>
