<svg xmlns="http://www.w3.org/2000/svg" width="16" height="16" fill="none" viewBox="0 0 16 16"><path fill="#000" fill-rule="evenodd" d="M5.2945 1.0438c-1.1322 0-2.05.9178-2.05 2.05v9.8121c0 1.1321.9178 2.05 2.05 2.05h6.2118c1.2426 0 2.25-1.0074 2.25-2.25V12.3H13.8c.8284 0 1.5-.6716 1.5-1.5v-.6c0-.8285-.6716-1.5-1.5-1.5h-.0437V6.1008a1.15 1.15 0 0 0-.3089-.7843L9.8049 1.4096a1.15 1.15 0 0 0-.8412-.3658zM12.4563 8.7V6.5372h-1.8917c-1.1322 0-2.05-.9178-2.05-2.05V2.3438h-3.22a.75.75 0 0 0-.75.75v9.8121a.75.75 0 0 0 .75.75h6.2117c.5246 0 .95-.4254.95-.95V12.3H7.2c-.8285 0-1.5-.6716-1.5-1.5v-.6c0-.8285.6715-1.5 1.5-1.5zm-.8602-3.4628L9.8146 3.3264v1.1608a.75.75 0 0 0 .75.75zM5.85 7a.65.65 0 0 1 .65-.65h1a.65.65 0 1 1 0 1.3h-1A.65.65 0 0 1 5.85 7M14 10.8a.2.2 0 0 1-.2.2H7.2a.2.2 0 0 1-.2-.2v-.6a.2.2 0 0 1 .2-.2h6.6a.2.2 0 0 1 .2.2z"/></svg>