<svg xmlns="http://www.w3.org/2000/svg" width="16" height="16" fill="none" viewBox="0 0 16 16"><path fill="#000" d="m11.859 9.353 2.915 4.019h-2.053l-2.495-3.489V8.867l2.429-3.224h2.031zM6.721 12.04v1.317a2.1 2.1 0 0 1-.249.015H4.993c-.564 0-1.102-.245-1.438-.644l-1.169-1.416c-.188-.232-.296-.502-.296-.785v-.09c-.363-.27-.591-.695-.591-1.184s.229-.927.592-1.184v-.013a.05.05 0 0 0-.008-.006l-.007-.004c-.007-.004-.012-.007-.012-.015-.403-.682-.847-1.931-.538-2.884.252-.799.882-1.008 1.426-1.188l.002-.001c.126-.042.248-.082.359-.128a1.6 1.6 0 0 0 .203-.099c.057-.034.118-.071.184-.112.589-.364 1.532-.947 2.693-.634.119.034.229.075.33.122v2.399c-.893.381-1.793 1.208-1.997 2.012l-.04.039a.1.1 0 0 0-.015.003.1.1 0 0 1-.02.003.03.03 0 0 1-.01-.001.02.02 0 0 1-.008-.004c-.215-.09-.82-.373-.995-1.069 0 0-.417.348-.551 1.03v.026c-.013.155-.027.309-.04.451v.039c0 .044-.003.09-.006.138a2.3 2.3 0 0 0-.007.158l-.04.734c0 .007-.007.01-.014.01s-.013-.003-.013-.01l-.178-.431c-.202.09-.336.322-.336.605 0 .348.215.631.484.631h.036l.022-.001a.24.24 0 0 0 .05-.011v.425c.753-.206 1.062.348 1.344.914l.014-.013c.161-.309.524-.515.928-.515h.939c.16 0 .314.033.451.091v.777l-.075-.147c-.067-.129-.215-.206-.376-.206h-.941c-.161 0-.309.077-.376.206l-.215.425c.108.155.229.27.39.309v-.245c0-.129.121-.232.269-.232h.82c.148 0 .269.103.269.232v.27a.45.45 0 0 0 .099-.028.5.5 0 0 0 .06-.029.6.6 0 0 0 .053-.034zm2.643 1.332H7.708V2.773h1.656z"/><path fill="#000" d="M4.044 8.63c0-.363.272-.63.607-.63s.607.291.607.63c0 .363-.272.63-.607.63s-.607-.291-.607-.63m2.203 1.129c-.274 0-.49-.195-.49-.412.137.087.294.152.49.152s.353-.065.49-.152c0 .239-.215.412-.49.412"/></svg>