<svg xmlns="http://www.w3.org/2000/svg" width="16" height="16" fill="none" viewBox="0 0 16 16"><path fill="#000" fill-rule="evenodd" d="M4.6666 1.35c-1.0953 0-1.9833.888-1.9833 1.9833V6.05h1.3V3.3333c0-.3774.306-.6833.6833-.6833h6.5931a2 2 0 0 1 .0281-.0289c.4282-.4282 1.0061-.6156 1.5652-.5622-.3638-.4334-.9096-.709-1.5197-.709zm7.5404 2.1904a.65.65 0 0 1 .9193 0l1.3333 1.3333a.65.65 0 0 1 0 .9192l-1.3333 1.3334a.65.65 0 0 1-.9193-.9193l.2238-.2237H9.3333a.65.65 0 1 1 0-1.3h3.0975l-.2238-.2237a.65.65 0 0 1 0-.9192M5.5404 6.207a.65.65 0 0 1 .9192 0l1.3333 1.3334a.65.65 0 0 1 0 .9192L6.4596 9.793a.65.65 0 1 1-.9192-.9192L5.764 8.65H2a.65.65 0 0 1 0-1.3h3.764l-.2236-.2237a.65.65 0 0 1 0-.9193m6.6666 2.6667a.65.65 0 0 1 .9193 0l1.3333 1.3333a.65.65 0 0 1 0 .9193l-1.3333 1.3333a.65.65 0 1 1-.9193-.9192l.2238-.2237H9.3333a.65.65 0 1 1 0-1.3h3.0975l-.2238-.2237a.65.65 0 0 1 0-.9193m.646 5.0674c-.5592.0534-1.137-.134-1.5652-.5623a1 1 0 0 1-.0281-.0288h-6.593a.6834.6834 0 0 1-.6834-.6834V9.95h-1.3v2.7166c0 1.0954.888 1.9834 1.9833 1.9834h6.6667c.6101 0 1.1559-.2755 1.5197-.7089m-7.5197-1.2744a.6667.6667 0 1 0 0-1.3334.6667.6667 0 0 0 0 1.3334"/></svg>