<svg width="16" height="16" viewBox="0 0 16 16" fill="none" xmlns="http://www.w3.org/2000/svg">
<path d="M3.6666 2.0166C2.75533 2.0166 2.0166 2.75533 2.0166 3.6666V5.33327C2.0166 5.69225 2.30762 5.98327 2.6666 5.98327C3.02559 5.98327 3.3166 5.69225 3.3166 5.33327V3.6666C3.3166 3.4733 3.4733 3.3166 3.6666 3.3166H5.33327C5.69225 3.3166 5.98327 3.02559 5.98327 2.6666C5.98327 2.30762 5.69225 2.0166 5.33327 2.0166H3.6666Z" fill="black"/>
<path d="M10.6666 2.0166C10.3076 2.0166 10.0166 2.30762 10.0166 2.6666C10.0166 3.02559 10.3076 3.3166 10.6666 3.3166H12.3333C12.5266 3.3166 12.6833 3.4733 12.6833 3.6666V5.33327C12.6833 5.69225 12.9743 5.98327 13.3333 5.98327C13.6923 5.98327 13.9833 5.69225 13.9833 5.33327V3.6666C13.9833 2.75533 13.2445 2.0166 12.3333 2.0166H10.6666Z" fill="black"/>
<path d="M3.3166 10.6666C3.3166 10.3076 3.02559 10.0166 2.6666 10.0166C2.30762 10.0166 2.0166 10.3076 2.0166 10.6666V12.3333C2.0166 13.2445 2.75533 13.9833 3.6666 13.9833H5.33327C5.69225 13.9833 5.98327 13.6923 5.98327 13.3333C5.98327 12.9743 5.69225 12.6833 5.33327 12.6833H3.6666C3.4733 12.6833 3.3166 12.5266 3.3166 12.3333V10.6666Z" fill="black"/>
<path d="M13.9833 10.6666C13.9833 10.3076 13.6923 10.0166 13.3333 10.0166C12.9743 10.0166 12.6833 10.3076 12.6833 10.6666V12.3333C12.6833 12.5266 12.5266 12.6833 12.3333 12.6833H10.6666C10.3076 12.6833 10.0166 12.9743 10.0166 13.3333C10.0166 13.6923 10.3076 13.9833 10.6666 13.9833H12.3333C13.2445 13.9833 13.9833 13.2445 13.9833 12.3333V10.6666Z" fill="black"/>
<path d="M9.8911 6.01845C10.0712 5.70788 9.96535 5.31016 9.65479 5.1301C9.34422 4.95005 8.9465 5.05585 8.76644 5.36641L7.99041 6.70493L7.21276 5.36361C7.03271 5.05305 6.63498 4.94725 6.32441 5.1273C6.01385 5.30736 5.90805 5.70508 6.08811 6.01565L6.86213 7.3507L5.32508 7.35349C4.9661 7.35414 4.67561 7.64568 4.67626 8.00466C4.67691 8.36365 4.96845 8.65413 5.32743 8.65348L6.86232 8.65071L6.08429 9.99268C5.90423 10.3032 6.01003 10.701 6.3206 10.881C6.63116 11.0611 7.02889 10.9553 7.20894 10.6447L7.99041 9.29681L8.77026 10.6419C8.95032 10.9525 9.34804 11.0583 9.65861 10.8782C9.96917 10.6982 10.075 10.3004 9.89492 9.98988L9.11614 8.64663L10.675 8.64381C11.034 8.64316 11.3245 8.35161 11.3238 7.99263C11.3232 7.63365 11.0316 7.34316 10.6726 7.34381L9.12107 7.34662L9.8911 6.01845Z" fill="black"/>
</svg>
