<svg xmlns="http://www.w3.org/2000/svg" width="16" height="16" fill="none" viewBox="0 0 16 16"><path fill="#000" fill-rule="evenodd" d="M2.0166 3.6666c0-.9113.7387-1.65 1.65-1.65h1.6667a.65.65 0 1 1 0 1.3H3.6666a.35.35 0 0 0-.35.35v1.6667a.65.65 0 1 1-1.3 0zm8-1a.65.65 0 0 1 .65-.65h1.6667c.9112 0 1.65.7387 1.65 1.65v1.6667a.65.65 0 1 1-1.3 0V3.6666a.35.35 0 0 0-.35-.35h-1.6667a.65.65 0 0 1-.65-.65m-.3618 2.4635a.65.65 0 0 1 .2363.8883l-.77 1.3282 1.5515-.0028a.65.65 0 1 1 .0024 1.3l-1.5589.0028L9.895 9.99a.65.65 0 0 1-.2363.8883.65.65 0 0 1-.8883-.2363l-.7799-1.345-.7815 1.3478a.65.65 0 0 1-1.1247-.652l.7781-1.342-1.5349.0028a.65.65 0 1 1-.0023-1.3l1.537-.0028-.774-1.335a.65.65 0 1 1 1.1247-.652l.7776 1.3412.776-1.3385a.65.65 0 0 1 .8884-.2363m-6.9882 4.8865a.65.65 0 0 1 .65.65v1.6667a.35.35 0 0 0 .35.35h1.6667a.65.65 0 1 1 0 1.3H3.6666c-.9113 0-1.65-.7388-1.65-1.65v-1.6667a.65.65 0 0 1 .65-.65m10.6667 0a.65.65 0 0 1 .65.65v1.6667c0 .9112-.7388 1.65-1.65 1.65h-1.6667a.65.65 0 1 1 0-1.3h1.6667a.35.35 0 0 0 .35-.35v-1.6667a.65.65 0 0 1 .65-.65"/></svg>