<svg xmlns="http://www.w3.org/2000/svg" width="8" height="16" fill="none" viewBox="0 0 8 16"><path fill="#000" fill-rule="evenodd" d="M6 3v5c0 1.12-.88 2-2 2s-2-.88-2-2V3c0-1.12.88-2 2-2s2 .88 2 2m0 10c0-1.1046-.8954-2-2-2s-2 .8954-2 2 .8954 2 2 2 2-.8954 2-2"/><path fill="#000" fill-rule="evenodd" d="M6 8c0 1.12-.88 2-2 2s-2-.88-2-2V3c0-1.12.88-2 2-2s2 .88 2 2zM5 8V3q0-.2473-.0968-.4478-.07-.1448-.1903-.265a.97.97 0 0 0-.265-.1904Q4.2472 2 4 2t-.4478.0968a.97.97 0 0 0-.265.1903.97.97 0 0 0-.1904.265Q3 2.7528 3 3v5q0 .2473.0968.4478a.97.97 0 0 0 .1903.265.97.97 0 0 0 .265.1904Q3.7528 9 4 9t.4478-.0968a.97.97 0 0 0 .265-.1903.97.97 0 0 0 .1904-.265Q5 8.2472 5 8m-1 7c-1.1046 0-2-.8954-2-2s.8954-2 2-2 2 .8954 2 2-.8954 2-2 2m0-3q-.2072 0-.384.0733-.1767.0732-.3231.2196t-.2196.323v.0001Q3 12.7928 3 13t.0733.384v.0001q.0732.1767.2196.323t.323.2196Q3.793 14 4 14t.384-.0733q.1767-.0732.3231-.2196t.2196-.3231Q5 13.2071 5 13t-.0733-.384v-.0001q-.0732-.1767-.2196-.323t-.323-.2196H4.384Q4.2072 12 4 12"/></svg>