<svg width="16" height="16" viewBox="0 0 16 16" fill="none" xmlns="http://www.w3.org/2000/svg">
<path fill-rule="evenodd" clip-rule="evenodd" d="M4.33343 1.3501C5.37098 1.3501 6.28483 1.87975 6.81933 2.68343H10.0001C11.4637 2.68343 12.6501 3.86987 12.6501 5.33343V5.76419L12.8738 5.54048C13.1277 5.28664 13.5392 5.28664 13.7931 5.54048C14.0469 5.79432 14.0469 6.20587 13.7931 6.45972L12.4597 7.79305C12.3378 7.91495 12.1725 7.98343 12.0001 7.98343C11.8277 7.98343 11.6624 7.91495 11.5405 7.79305L10.2071 6.45972C9.9533 6.20587 9.9533 5.79432 10.2071 5.54048C10.461 5.28664 10.8725 5.28664 11.1264 5.54048L11.3501 5.76419V5.33343C11.3501 4.58785 10.7457 3.98343 10.0001 3.98343H7.29645C7.30987 4.09823 7.31676 4.21503 7.31676 4.33343C7.31676 5.98108 5.98108 7.31676 4.33343 7.31676C2.68578 7.31676 1.3501 5.98108 1.3501 4.33343C1.3501 2.68578 2.68578 1.3501 4.33343 1.3501ZM6.01676 4.33343C6.01676 3.40375 5.26311 2.6501 4.33343 2.6501C3.40375 2.6501 2.6501 3.40375 2.6501 4.33343C2.6501 5.26311 3.40375 6.01676 4.33343 6.01676C5.26311 6.01676 6.01676 5.26311 6.01676 4.33343Z" fill="black"/>
<path fill-rule="evenodd" clip-rule="evenodd" d="M11.6668 8.68343C13.3144 8.68343 14.6501 10.0191 14.6501 11.6668C14.6501 13.3144 13.3144 14.6501 11.6668 14.6501C10.6292 14.6501 9.71537 14.1204 9.18086 13.3168H6.0001C4.53655 13.3168 3.3501 12.1303 3.3501 10.6668V10.236L3.12639 10.4597C2.87255 10.7136 2.46099 10.7136 2.20715 10.4597C1.95331 10.2059 1.95331 9.79432 2.20715 9.54047L3.54048 8.20714C3.66238 8.08524 3.82771 8.01676 4.0001 8.01676C4.17249 8.01676 4.33782 8.08524 4.45972 8.20714L5.79306 9.54047C6.0469 9.79432 6.0469 10.2059 5.79306 10.4597C5.53922 10.7136 5.12766 10.7136 4.87382 10.4597L4.6501 10.236V10.6668C4.6501 11.4123 5.25452 12.0168 6.0001 12.0168L8.70375 12.0168C8.69033 11.902 8.68343 11.7852 8.68343 11.6668C8.68343 10.0191 10.0191 8.68343 11.6668 8.68343ZM13.3501 11.6668C13.3501 10.7371 12.5964 9.98343 11.6668 9.98343C10.7371 9.98343 9.98343 10.7371 9.98343 11.6668C9.98343 12.5964 10.7371 13.3501 11.6668 13.3501C12.5964 13.3501 13.3501 12.5964 13.3501 11.6668Z" fill="black"/>
</svg>
