<svg xmlns="http://www.w3.org/2000/svg" width="16" height="16" fill="none" viewBox="0 0 16 16"><path d="M16 0H0v16h16z"/><path fill="#000" fill-rule="evenodd" d="M6.8193 2.6833C6.2848 1.8796 5.371 1.35 4.3334 1.35c-1.6476 0-2.9833 1.3357-2.9833 2.9833 0 1.6477 1.3357 2.9833 2.9833 2.9833 1.6477 0 2.9834-1.3356 2.9834-2.9833q-.0002-.1777-.0203-.35H10c.7456 0 1.35.6044 1.35 1.35v.4308l-.2237-.2237a.65.65 0 0 0-.9193.9192l1.3334 1.3333a.65.65 0 0 0 .9192 0l1.3334-1.3333a.65.65 0 0 0-.9193-.9192l-.2237.2237v-.4308c0-1.4635-1.1864-2.65-2.65-2.65zM4.3334 2.65c.9297 0 1.6834.7536 1.6834 1.6833S5.263 6.0166 4.3334 6.0166 2.6501 5.263 2.6501 4.3333 3.4038 2.65 4.3334 2.65m10.3167 9.0167c0-1.6477-1.3357-2.9834-2.9833-2.9834-1.6477 0-2.9834 1.3357-2.9834 2.9834q.0002.1776.0203.3499H6.0001c-.7456 0-1.35-.6044-1.35-1.35v-.4307l.2237.2237a.65.65 0 0 0 .9193-.9192L4.4597 8.207a.65.65 0 0 0-.9192 0L2.2072 9.5404a.65.65 0 0 0 .9192.9192l.2237-.2237v.4307c0 1.4636 1.1865 2.65 2.65 2.65h3.1808c.5345.8037 1.4483 1.3334 2.4859 1.3334 1.6476 0 2.9833-1.3357 2.9833-2.9833m-2.9833-1.6834c.9296 0 1.6833.7537 1.6833 1.6834s-.7537 1.6833-1.6833 1.6833-1.6834-.7537-1.6834-1.6833.7537-1.6834 1.6834-1.6834"/></svg>