<svg xmlns="http://www.w3.org/2000/svg" width="16" height="16" fill="none" viewBox="0 0 16 16"><path fill="#000" fill-rule="evenodd" d="M8.4596 1.5404a.65.65 0 0 0-.9192 0l-4 4a.65.65 0 0 0 .9192.9192L7.35 3.5692v7.7641a.65.65 0 1 0 1.3 0v-7.764l2.8904 2.8903a.65.65 0 1 0 .9192-.9192zM3.3333 14a.6666.6666 0 0 1-.6666.6666.6666.6666 0 1 1 0-1.3333.6667.6667 0 0 1 .6666.6667M6 14a.6666.6666 0 0 1-.6667.6666.6666.6666 0 1 1 0-1.3333A.6667.6667 0 0 1 6 14m8 0a.6666.6666 0 1 1-1.3333 0A.6666.6666 0 0 1 14 14m-6 .6666a.6667.6667 0 1 0 0-1.3332.6667.6667 0 0 0 0 1.3332M11.3333 14A.6666.6666 0 1 1 10 14a.6666.6666 0 0 1 1.3333 0"/></svg>