<svg width="16" height="16" viewBox="0 0 16 16" fill="none" xmlns="http://www.w3.org/2000/svg">
<path d="M8.45962 1.54048C8.20578 1.28664 7.79422 1.28664 7.54038 1.54048L3.54038 5.54048C3.28654 5.79432 3.28654 6.20588 3.54038 6.45972C3.79422 6.71356 4.20578 6.71356 4.45962 6.45972L7.35 3.56934V11.3334C7.35 11.6924 7.64102 11.9834 8 11.9834C8.35899 11.9834 8.65 11.6924 8.65 11.3334V3.56934L11.5404 6.45972C11.7942 6.71356 12.2058 6.71356 12.4596 6.45972C12.7135 6.20588 12.7135 5.79432 12.4596 5.54048L8.45962 1.54048Z" fill="black"/>
<path d="M2.66667 14.6668C3.03486 14.6668 3.33333 14.3683 3.33333 14.0001C3.33333 13.6319 3.03486 13.3334 2.66667 13.3334C2.29848 13.3334 2 13.6319 2 14.0001C2 14.3683 2.29848 14.6668 2.66667 14.6668Z" fill="black"/>
<path d="M5.33333 14.6668C5.70152 14.6668 6 14.3683 6 14.0001C6 13.6319 5.70152 13.3334 5.33333 13.3334C4.96514 13.3334 4.66667 13.6319 4.66667 14.0001C4.66667 14.3683 4.96514 14.6668 5.33333 14.6668Z" fill="black"/>
<path d="M8.66667 14.0001C8.66667 14.3683 8.36819 14.6668 8 14.6668C7.63181 14.6668 7.33333 14.3683 7.33333 14.0001C7.33333 13.6319 7.63181 13.3334 8 13.3334C8.36819 13.3334 8.66667 13.6319 8.66667 14.0001Z" fill="black"/>
<path d="M10.6667 14.6668C11.0349 14.6668 11.3333 14.3683 11.3333 14.0001C11.3333 13.6319 11.0349 13.3334 10.6667 13.3334C10.2985 13.3334 10 13.6319 10 14.0001C10 14.3683 10.2985 14.6668 10.6667 14.6668Z" fill="black"/>
<path d="M14 14.0001C14 14.3683 13.7015 14.6668 13.3333 14.6668C12.9651 14.6668 12.6667 14.3683 12.6667 14.0001C12.6667 13.6319 12.9651 13.3334 13.3333 13.3334C13.7015 13.3334 14 13.6319 14 14.0001Z" fill="black"/>
</svg>
