<svg width="16" height="16" viewBox="0 0 16 16" fill="none" xmlns="http://www.w3.org/2000/svg">
<path d="M8.65 6.00002C8.65 6.359 8.35899 6.65002 8 6.65002C7.64102 6.65002 7.35 6.359 7.35 6.00002V2.90259L5.79295 4.45964C5.53911 4.71348 5.12755 4.71348 4.87371 4.45964C4.61987 4.20579 4.61987 3.79424 4.87371 3.5404L7.54038 0.87373C7.79422 0.619889 8.20578 0.619889 8.45962 0.87373L11.1263 3.5404C11.3801 3.79424 11.3801 4.20579 11.1263 4.45964C10.8724 4.71348 10.4609 4.71348 10.207 4.45964L8.65 2.90259V6.00002Z" fill="black"/>
<path d="M3.33333 8.00001C3.33333 8.3682 3.03486 8.66668 2.66667 8.66668C2.29848 8.66668 2 8.3682 2 8.00001C2 7.63182 2.29848 7.33335 2.66667 7.33335C3.03486 7.33335 3.33333 7.63182 3.33333 8.00001Z" fill="black"/>
<path d="M6 8.00001C6 8.3682 5.70152 8.66668 5.33333 8.66668C4.96514 8.66668 4.66667 8.3682 4.66667 8.00001C4.66667 7.63182 4.96514 7.33335 5.33333 7.33335C5.70152 7.33335 6 7.63182 6 8.00001Z" fill="black"/>
<path d="M8 8.66668C8.36819 8.66668 8.66667 8.3682 8.66667 8.00001C8.66667 7.63182 8.36819 7.33335 8 7.33335C7.63181 7.33335 7.33333 7.63182 7.33333 8.00001C7.33333 8.3682 7.63181 8.66668 8 8.66668Z" fill="black"/>
<path d="M11.3333 8.00001C11.3333 8.3682 11.0349 8.66668 10.6667 8.66668C10.2985 8.66668 10 8.3682 10 8.00001C10 7.63182 10.2985 7.33335 10.6667 7.33335C11.0349 7.33335 11.3333 7.63182 11.3333 8.00001Z" fill="black"/>
<path d="M13.3333 8.66668C13.7015 8.66668 14 8.3682 14 8.00001C14 7.63182 13.7015 7.33335 13.3333 7.33335C12.9651 7.33335 12.6667 7.63182 12.6667 8.00001C12.6667 8.3682 12.9651 8.66668 13.3333 8.66668Z" fill="black"/>
<path d="M7.35 13.0974V10C7.35 9.64103 7.64102 9.35002 8 9.35002C8.35899 9.35002 8.65 9.64103 8.65 10V13.0974L10.207 11.5404C10.4609 11.2866 10.8724 11.2866 11.1263 11.5404C11.3801 11.7942 11.3801 12.2058 11.1263 12.4596L8.45962 15.1263C8.20578 15.3801 7.79422 15.3801 7.54038 15.1263L4.87371 12.4596C4.61987 12.2058 4.61987 11.7942 4.87371 11.5404C5.12755 11.2866 5.53911 11.2866 5.79295 11.5404L7.35 13.0974Z" fill="black"/>
</svg>
