<svg xmlns="http://www.w3.org/2000/svg" width="16" height="16" fill="none" viewBox="0 0 16 16"><path fill="#000" fill-rule="evenodd" d="M3.3333 2A.6667.6667 0 1 1 2 2a.6667.6667 0 0 1 1.3333 0m2.6668 0a.6667.6667 0 1 1-1.3334 0 .6667.6667 0 0 1 1.3334 0m8 0a.6667.6667 0 1 1-1.3334-.0001.6667.6667 0 0 1 1.3334 0m-6.0002.6666a.6667.6667 0 1 0 0-1.3334.6667.6667 0 0 0 0 1.3334m3.3334-.6667A.6666.6666 0 1 1 10 2a.6667.6667 0 0 1 1.3333 0M8.65 4.6668a.65.65 0 0 0-1.3 0v7.7641L4.4596 9.5405a.65.65 0 1 0-.9192.9192l4 4a.65.65 0 0 0 .9192 0l4-4a.65.65 0 0 0 0-.9192.65.65 0 0 0-.9192 0L8.65 12.4309z"/></svg>