<svg width="16" height="16" viewBox="0 0 16 16" fill="none" xmlns="http://www.w3.org/2000/svg">
<path d="M2.66667 2.66659C3.03486 2.66659 3.33333 2.36811 3.33333 1.99992C3.33333 1.63173 3.03486 1.33325 2.66667 1.33325C2.29848 1.33325 2 1.63173 2 1.99992C2 2.36811 2.29848 2.66659 2.66667 2.66659Z" fill="black"/>
<path d="M5.33341 2.66659C5.7016 2.66659 6.00008 2.36811 6.00008 1.99992C6.00008 1.63173 5.7016 1.33325 5.33341 1.33325C4.96522 1.33325 4.66675 1.63173 4.66675 1.99992C4.66675 2.36811 4.96522 2.66659 5.33341 2.66659Z" fill="black"/>
<path d="M8.66659 1.99992C8.66659 2.36811 8.36811 2.66659 7.99992 2.66659C7.63173 2.66659 7.33325 2.36811 7.33325 1.99992C7.33325 1.63173 7.63173 1.33325 7.99992 1.33325C8.36811 1.33325 8.66659 1.63173 8.66659 1.99992Z" fill="black"/>
<path d="M10.6667 2.66659C11.0349 2.66659 11.3333 2.36811 11.3333 1.99992C11.3333 1.63173 11.0349 1.33325 10.6667 1.33325C10.2985 1.33325 10 1.63173 10 1.99992C10 2.36811 10.2985 2.66659 10.6667 2.66659Z" fill="black"/>
<path d="M14.0001 1.99992C14.0001 2.36811 13.7016 2.66659 13.3334 2.66659C12.9652 2.66659 12.6667 2.36811 12.6667 1.99992C12.6667 1.63173 12.9652 1.33325 13.3334 1.33325C13.7016 1.33325 14.0001 1.63173 14.0001 1.99992Z" fill="black"/>
<path d="M8.65 4.66675C8.65 4.30776 8.35899 4.01675 8 4.01675C7.64102 4.01675 7.35 4.30776 7.35 4.66675V12.4308L4.45962 9.54046C4.20578 9.28662 3.79422 9.28662 3.54038 9.54046C3.28654 9.7943 3.28654 10.2059 3.54038 10.4597L7.54038 14.4597C7.79422 14.7135 8.20578 14.7135 8.45962 14.4597L12.4596 10.4597C12.7135 10.2059 12.7135 9.7943 12.4596 9.54046C12.2058 9.28662 11.7942 9.28662 11.5404 9.54046L8.65 12.4308V4.66675Z" fill="black"/>
</svg>
