<svg width="16" height="16" viewBox="0 0 16 16" fill="none" xmlns="http://www.w3.org/2000/svg">
<path fill-rule="evenodd" clip-rule="evenodd" d="M4.95186 1.09033C3.81967 1.09033 2.90186 2.00815 2.90186 3.14033V12.9524C2.90186 14.0846 3.81967 15.0024 4.95186 15.0024H10.1902C9.8794 14.6272 9.73074 14.1628 9.74427 13.7024H4.95186C4.53764 13.7024 4.20186 13.3666 4.20186 12.9524V3.14033C4.20186 2.72612 4.53764 2.39033 4.95186 2.39033H8.17188L8.17188 4.5337C8.17188 5.66589 9.08969 6.58371 10.2219 6.58371H12.1136C12.5743 6.98301 12.7991 7.14868 13.0723 7.4219L13.4136 7.76324V6.14727C13.4136 5.85619 13.3032 5.57595 13.1047 5.36305L9.46221 1.45612C9.24469 1.22281 8.94005 1.09033 8.62107 1.09033H4.95186ZM11.2534 5.28371L9.47188 3.37286L9.47188 4.53371C9.47188 4.94792 9.80766 5.28371 10.2219 5.28371H11.2534Z" fill="black"/>
<path d="M11.2338 8.34114C11.4876 8.0873 11.8992 8.0873 12.153 8.34114L14.6286 10.8167C14.6462 10.834 14.6629 10.8523 14.6784 10.8716C14.7061 10.9056 14.7297 10.9418 14.7494 10.9795C14.7965 11.0695 14.8231 11.1718 14.8231 11.2804C14.8231 11.4629 14.7479 11.6278 14.6268 11.7459L12.153 14.2196C11.8992 14.4735 11.4876 14.4735 11.2338 14.2196C10.98 13.9658 10.98 13.5542 11.2338 13.3004L12.6038 11.9304H7.87866C7.51968 11.9304 7.22866 11.6394 7.22866 11.2804C7.22866 10.9214 7.51968 10.6304 7.87866 10.6304H12.6038L11.2338 9.26038C10.98 9.00654 10.98 8.59498 11.2338 8.34114Z" fill="black"/>
</svg>
