<svg xmlns="http://www.w3.org/2000/svg" width="16" height="16" fill="none" viewBox="0 0 16 16"><path fill="#000" fill-rule="evenodd" d="M2.9019 3.1403c0-1.1321.9178-2.05 2.05-2.05H8.621a1.15 1.15 0 0 1 .8411.3658l3.6426 3.907a1.15 1.15 0 0 1 .3088.7842v1.616l-.3413-.3414c-.2732-.2732-.498-.4389-.9587-.8382h-1.8917c-1.1322 0-2.05-.9178-2.05-2.05V2.3903h-3.22a.75.75 0 0 0-.75.75v9.8121a.75.75 0 0 0 .75.75h4.7924a1.945 1.945 0 0 0 .446 1.3H4.9519c-1.1322 0-2.05-.9178-2.05-2.05zm6.57.2326 1.7815 1.9108h-1.0315a.75.75 0 0 1-.75-.75zM12.153 8.341a.65.65 0 1 0-.9192.9193l1.37 1.37H7.8787a.65.65 0 1 0 0 1.3h4.7251l-1.37 1.37a.65.65 0 0 0 .9192.9192l2.4738-2.4737a.648.648 0 0 0 .1963-.4655.646.646 0 0 0-.1447-.4088.6.6 0 0 0-.0498-.0549z"/></svg>