<svg width="16" height="16" viewBox="0 0 16 16" fill="none" xmlns="http://www.w3.org/2000/svg">
<path d="M2.0166 3.6666C2.0166 2.75533 2.75533 2.0166 3.6666 2.0166H5.33327C5.69225 2.0166 5.98327 2.30762 5.98327 2.6666C5.98327 3.02559 5.69225 3.3166 5.33327 3.3166H3.6666C3.4733 3.3166 3.3166 3.4733 3.3166 3.6666V5.33327C3.3166 5.69225 3.02559 5.98327 2.6666 5.98327C2.30762 5.98327 2.0166 5.69225 2.0166 5.33327V3.6666Z" fill="black"/>
<path d="M10.0166 2.6666C10.0166 2.30762 10.3076 2.0166 10.6666 2.0166H12.3333C13.2445 2.0166 13.9833 2.75533 13.9833 3.6666V5.33327C13.9833 5.69225 13.6923 5.98327 13.3333 5.98327C12.9743 5.98327 12.6833 5.69225 12.6833 5.33327V3.6666C12.6833 3.4733 12.5266 3.3166 12.3333 3.3166H10.6666C10.3076 3.3166 10.0166 3.02559 10.0166 2.6666Z" fill="black"/>
<path d="M2.6666 10.0166C3.02559 10.0166 3.3166 10.3076 3.3166 10.6666V12.3333C3.3166 12.5266 3.4733 12.6833 3.6666 12.6833H5.33327C5.69225 12.6833 5.98327 12.9743 5.98327 13.3333C5.98327 13.6923 5.69225 13.9833 5.33327 13.9833H3.6666C2.75533 13.9833 2.0166 13.2445 2.0166 12.3333V10.6666C2.0166 10.3076 2.30762 10.0166 2.6666 10.0166Z" fill="black"/>
<path d="M13.3333 10.0166C13.6923 10.0166 13.9833 10.3076 13.9833 10.6666V12.3333C13.9833 13.2445 13.2445 13.9833 12.3333 13.9833H10.6666C10.3076 13.9833 10.0166 13.6923 10.0166 13.3333C10.0166 12.9743 10.3076 12.6833 10.6666 12.6833H12.3333C12.5266 12.6833 12.6833 12.5266 12.6833 12.3333V10.6666C12.6833 10.3076 12.9743 10.0166 13.3333 10.0166Z" fill="black"/>
<path d="M5.6937 5.05017C6.05269 5.05017 6.3437 5.34119 6.3437 5.70017V6.41611C6.3437 6.7751 6.05269 7.06611 5.6937 7.06611C5.33472 7.06611 5.0437 6.7751 5.0437 6.41611V5.70017C5.0437 5.34119 5.33472 5.05017 5.6937 5.05017Z" fill="black"/>
<path d="M11.3248 5.70017C11.3248 5.34119 11.0338 5.05017 10.6748 5.05017C10.3158 5.05017 10.0248 5.34119 10.0248 5.70017V6.41611C10.0248 6.7751 10.3158 7.06611 10.6748 7.06611C11.0338 7.06611 11.3248 6.7751 11.3248 6.41611V5.70017Z" fill="black"/>
<path d="M8.32238 5.08588C8.68137 5.08588 8.97238 5.37689 8.97238 5.73588V7.98256C8.97238 8.56246 8.50228 9.03256 7.92238 9.03256H7.36362C7.00464 9.03256 6.71362 8.74155 6.71362 8.38256C6.71362 8.02358 7.00464 7.73256 7.36362 7.73256H7.67238V5.73588C7.67238 5.37689 7.9634 5.08588 8.32238 5.08588Z" fill="black"/>
<path d="M6.37708 9.86907C6.08796 9.65862 5.6828 9.72126 5.47082 10.0097C5.2679 10.2859 5.31534 10.6691 5.5717 10.8883C5.64764 10.9532 5.73679 11.0057 5.82385 11.0578C5.94925 11.1329 6.12754 11.2303 6.34848 11.3261C6.78652 11.5162 7.41576 11.7105 8.14408 11.6926C8.85985 11.6751 9.42215 11.4829 9.81064 11.2894C10.0045 11.1929 10.1553 11.0959 10.2615 11.0196C10.3385 10.9643 10.4166 10.9067 10.4815 10.837C10.7114 10.59 10.7148 10.2035 10.4815 9.95229C10.2389 9.6911 9.83166 9.67428 9.56841 9.91324C9.54732 9.93103 9.52537 9.94774 9.50296 9.96384C9.44639 10.0045 9.35508 10.064 9.23103 10.1258C8.98378 10.2489 8.60756 10.3809 8.11223 10.393C7.62945 10.4048 7.19191 10.275 6.86595 10.1336C6.70489 10.0637 6.57688 9.99346 6.49147 9.94234C6.4277 9.90418 6.38868 9.87723 6.37908 9.87048L6.37708 9.86907Z" fill="black"/>
</svg>
