<svg xmlns="http://www.w3.org/2000/svg" width="16" height="16" fill="none" viewBox="0 0 16 16"><path fill="#0866ff" d="M15 8c0-3.866-3.134-7-7-7S1 4.134 1 8c0 3.2827 2.2602 6.0374 5.309 6.7939v-4.6547H4.8658V8H6.309v-.9218c0-2.3825 1.0783-3.4868 3.4174-3.4868.4435 0 1.2087.087 1.5218.1739v1.939c-.1652-.0174-.4522-.026-.8087-.026-1.1477 0-1.5912.4348-1.5912 1.5651V8h2.2865l-.3929 2.1392H8.8484v4.8096C12.3145 14.5302 15 11.579 15 8"/><path fill="#fff" d="M10.742 10.1392 11.1349 8H8.8484v-.7566c0-1.1303.4435-1.5652 1.5912-1.5652.3565 0 .6435.0087.8087.026v-1.939c-.3131-.0867-1.0783-.1738-1.5218-.1738-2.3391 0-3.4174 1.1043-3.4174 3.4868V8H4.8657v2.1392H6.309v4.6547A7 7 0 0 0 7.9997 15c.287 0 .5701-.0176.8481-.0512v-4.8096z"/></svg>