<svg width="16" height="16" viewBox="0 0 16 16" fill="none" xmlns="http://www.w3.org/2000/svg">
<path d="M1 2.75C1 1.7835 1.7835 1 2.75 1H13.25C14.2165 1 15 1.7835 15 2.75V13.25C15 14.2165 14.2165 15 13.25 15H2.75C1.7835 15 1 14.2165 1 13.25V2.75Z" fill="#494DB0"/>
<path d="M11.3047 3.44598C11.4014 3.44598 11.4797 3.52433 11.4797 3.62098V5.40522C11.4797 5.50187 11.4014 5.58022 11.3047 5.58022H10.0455C9.6589 5.58022 9.3455 5.89362 9.3455 6.28021V7.8339H11.2021C11.3067 7.8339 11.3879 7.92499 11.376 8.02887L11.171 9.8131C11.1609 9.90145 11.0861 9.96813 10.9972 9.96813H9.3455V15H7.21126V9.96813H5.6337C5.53705 9.96813 5.4587 9.88978 5.4587 9.79313V8.00889C5.4587 7.91224 5.53705 7.8339 5.6337 7.8339H7.21126V6.07097C7.21126 4.62123 8.38652 3.44598 9.83626 3.44598H11.3047Z" fill="white"/>
</svg>
