<svg width="16" height="16" viewBox="0 0 16 16" fill="none" xmlns="http://www.w3.org/2000/svg">
<path d="M6.10088 8.22118C6.35472 7.96734 6.76628 7.96734 7.02012 8.22118L7.99993 9.20099L8.97974 8.22119C9.23358 7.96735 9.64513 7.96735 9.89897 8.22119C10.1528 8.47503 10.1528 8.88659 9.89897 9.14043L8.91917 10.1202L9.89897 11.1C10.1528 11.3539 10.1528 11.7654 9.89897 12.0193C9.64513 12.2731 9.23357 12.2731 8.97973 12.0193L7.99993 11.0395L7.02012 12.0193C6.76628 12.2731 6.35472 12.2731 6.10088 12.0193C5.84704 11.7654 5.84704 11.3539 6.10088 11.1L7.08069 10.1202L6.10088 9.14042C5.84704 8.88658 5.84704 8.47502 6.10088 8.22118Z" fill="black"/>
<path fill-rule="evenodd" clip-rule="evenodd" d="M2.74414 3.09395C2.74414 1.96176 3.66196 1.04395 4.79414 1.04395H8.46336C8.78233 1.04395 9.08698 1.17643 9.30449 1.40973L12.947 5.31667C13.1455 5.52956 13.2559 5.80981 13.2559 6.10088V12.706C13.2559 13.9486 12.2485 14.956 11.0059 14.956H4.79414C3.66196 14.956 2.74414 14.0382 2.74414 12.906V3.09395ZM4.79414 2.34395C4.37993 2.34395 4.04414 2.67973 4.04414 3.09395V12.906C4.04414 13.3202 4.37993 13.656 4.79414 13.656H11.0059C11.5306 13.656 11.9559 13.2307 11.9559 12.706V6.53735H10.0642C8.93198 6.53735 8.01416 5.61953 8.01416 4.48735L8.01417 2.34395H4.79414ZM9.31416 3.32647L11.0957 5.23735H10.0642C9.64995 5.23735 9.31416 4.90157 9.31416 4.48735L9.31416 3.32647Z" fill="black"/>
</svg>
