<svg xmlns="http://www.w3.org/2000/svg" width="16" height="16" fill="none" viewBox="0 0 16 16"><path fill="#000" fill-rule="evenodd" d="M2.7441 3.094c0-1.1322.9179-2.05 2.05-2.05h3.6693a1.15 1.15 0 0 1 .8411.3657l3.6425 3.907a1.15 1.15 0 0 1 .3089.7842v2.5019a3.96 3.96 0 0 0-1.3-.2444v-1.821h-1.8917c-1.1322 0-2.05-.9179-2.05-2.05V2.344h-3.22a.75.75 0 0 0-.75.75v9.812a.75.75 0 0 0 .75.75h3.3482c.1723.4835.4357.9237.7696 1.3H4.794c-1.1321 0-2.05-.9178-2.05-2.05zm6.57.2325 1.7816 1.9109h-1.0315a.75.75 0 0 1-.75-.75zM11.88 14.991c1.4728 0 2.6667-1.1939 2.6667-2.6666 0-1.4728-1.1939-2.6667-2.6667-2.6667-1.4727 0-2.6666 1.1939-2.6666 2.6667 0 1.4727 1.1939 2.6666 2.6666 2.6666m.4-4a.4.4 0 0 0-.8 0v1.3333a.4.4 0 0 0 .1171.2829l1 1a.4.4 0 0 0 .5657-.5657l-.8828-.8829z"/></svg>