<svg xmlns="http://www.w3.org/2000/svg" width="16" height="16" fill="none" viewBox="0 0 16 16"><path fill="#000" fill-rule="evenodd" d="M4.7941 1.044c-1.1321 0-2.05.9178-2.05 2.05v9.812c0 1.1322.9179 2.05 2.05 2.05h3.4355a1.63 1.63 0 0 1-.2966-.362l-.503-.8331a1.6 1.6 0 0 1-.0583-.1049H4.7941a.75.75 0 0 1-.75-.75V3.094a.75.75 0 0 1 .75-.75h3.22v2.1434c0 1.1321.9179 2.05 2.0501 2.05h1.8917v1.1624h.0413a1.632 1.632 0 0 1 1.2587.5923V6.1009a1.15 1.15 0 0 0-.3089-.7842l-3.6425-3.907a1.15 1.15 0 0 0-.8411-.3657zm6.3016 4.1934-1.7815-1.911v1.161a.75.75 0 0 0 .75.75zm1.2315 4.0483a.333.333 0 0 0-.3299-.286h-1.0059a.333.333 0 0 0-.33.2861l-.0877.6121a2.4 2.4 0 0 0-.5066.2813l-.6152-.2397a.333.333 0 0 0-.4064.1383l-.503.8331a.3334.3334 0 0 0 .0868.44l.512.3799a2.22 2.22 0 0 0 .0001.5382l-.5118.3801a.3334.3334 0 0 0-.0866.4399l.503.8331a.333.333 0 0 0 .4065.1382l.6149-.2399c.1551.1127.325.2075.5063.2811l.0877.6122a.333.333 0 0 0 .33.2861h1.0059a.333.333 0 0 0 .3299-.2859l.0881-.6125a2.4 2.4 0 0 0 .5062-.281l.6151.24a.333.333 0 0 0 .4065-.1383l.503-.8331a.3335.3335 0 0 0-.0867-.4399l-.5119-.3802a2.22 2.22 0 0 0 0-.538l.5123-.3801a.3334.3334 0 0 0 .0868-.44l-.503-.8331a.333.333 0 0 0-.4064-.1382l-.6154.2398a2.4 2.4 0 0 0-.5065-.2813zm-.8327 3.4474a.7333.7333 0 1 0 0-1.4666.7333.7333 0 0 0 0 1.4666"/></svg>