<svg width="16" height="16" viewBox="0 0 16 16" fill="none" xmlns="http://www.w3.org/2000/svg">
<path d="M5.02804 8.63517C5.02804 8.27618 5.31905 7.98517 5.67804 7.98517H10.322C10.681 7.98517 10.972 8.27618 10.972 8.63517C10.972 8.99415 10.681 9.28517 10.322 9.28517H5.67804C5.31905 9.28517 5.02804 8.99415 5.02804 8.63517Z" fill="black"/>
<path d="M5.67806 10.7708C5.31907 10.7708 5.02806 11.0618 5.02806 11.4208C5.02806 11.7798 5.31907 12.0708 5.67806 12.0708H8.00004C8.35902 12.0708 8.65004 11.7798 8.65004 11.4208C8.65004 11.0618 8.35902 10.7708 8.00004 10.7708H5.67806Z" fill="black"/>
<path fill-rule="evenodd" clip-rule="evenodd" d="M4.79414 1.04395C3.66196 1.04395 2.74414 1.96176 2.74414 3.09395V12.906C2.74414 14.0382 3.66196 14.956 4.79414 14.956H11.0059C12.2485 14.956 13.2559 13.9486 13.2559 12.706V6.10088C13.2559 5.80981 13.1455 5.52956 12.947 5.31667L9.30449 1.40973C9.08698 1.17643 8.78233 1.04395 8.46336 1.04395H4.79414ZM4.04414 3.09395C4.04414 2.67973 4.37993 2.34395 4.79414 2.34395H8.01417L8.01416 4.48735C8.01416 5.61953 8.93198 6.53735 10.0642 6.53735H11.9559V12.706C11.9559 13.2307 11.5306 13.656 11.0059 13.656H4.79414C4.37993 13.656 4.04414 13.3202 4.04414 12.906V3.09395ZM11.0957 5.23735L9.31416 3.32647L9.31416 4.48735C9.31416 4.90157 9.64995 5.23735 10.0642 5.23735H11.0957Z" fill="black"/>
</svg>
