<svg width="16" height="16" viewBox="0 0 16 16" fill="none" xmlns="http://www.w3.org/2000/svg">
<path d="M6.3038 9.34303C6.8281 9.34303 7.25313 8.918 7.25313 8.3937C7.25313 7.8694 6.8281 7.44437 6.3038 7.44437C5.7795 7.44437 5.35447 7.8694 5.35447 8.3937C5.35447 8.918 5.7795 9.34303 6.3038 9.34303Z" fill="black"/>
<path d="M10.6455 8.3937C10.6455 8.918 10.2204 9.34303 9.69613 9.34303C9.17183 9.34303 8.7468 8.918 8.7468 8.3937C8.7468 7.8694 9.17183 7.44437 9.69613 7.44437C10.2204 7.44437 10.6455 7.8694 10.6455 8.3937Z" fill="black"/>
<path fill-rule="evenodd" clip-rule="evenodd" d="M8.98317 11.8494C8.97388 11.8383 8.95754 11.8193 8.93469 11.795C8.8884 11.7459 8.81894 11.6789 8.73085 11.6125C8.54884 11.4752 8.3302 11.3715 8.093 11.3715C7.75737 11.3715 7.48215 11.4954 7.28038 11.6319C7.18022 11.6997 7.10351 11.7671 7.05375 11.8154C7.02911 11.8394 7.01179 11.858 7.00222 11.8686L6.99413 11.8778C6.76833 12.1532 6.36227 12.1958 6.08416 11.9721C5.81092 11.7523 5.76225 11.3568 5.96984 11.0778C5.97477 11.0712 5.97984 11.0647 5.98506 11.0582C5.9915 11.0504 5.99793 11.0427 6.00448 11.035C6.16143 10.85 6.35162 10.6907 6.55198 10.5551C6.90021 10.3196 7.4257 10.0715 8.093 10.0715C8.71314 10.0715 9.20221 10.3397 9.51357 10.5745C9.67218 10.6941 9.79582 10.8132 9.88095 10.9036C9.92383 10.9491 9.95779 10.9883 9.98236 11.0178C9.99468 11.0326 10.0047 11.045 10.0124 11.0548C10.2344 11.3423 10.195 11.7631 9.89842 11.9856C9.60165 12.2082 9.20877 12.126 8.98317 11.8494Z" fill="black"/>
<path fill-rule="evenodd" clip-rule="evenodd" d="M2.74414 3.09395C2.74414 1.96176 3.66196 1.04395 4.79414 1.04395H8.46336C8.78233 1.04395 9.08698 1.17643 9.30449 1.40973L12.947 5.31667C13.1455 5.52956 13.2559 5.80981 13.2559 6.10088V12.706C13.2559 13.9486 12.2485 14.956 11.0059 14.956H4.79414C3.66196 14.956 2.74414 14.0382 2.74414 12.906V3.09395ZM4.79414 2.34395C4.37993 2.34395 4.04414 2.67973 4.04414 3.09395V12.906C4.04414 13.3202 4.37993 13.656 4.79414 13.656H11.0059C11.5306 13.656 11.9559 13.2307 11.9559 12.706V6.53735H10.0642C8.93198 6.53735 8.01416 5.61953 8.01416 4.48735L8.01417 2.34395H4.79414ZM9.31416 3.32647L11.0957 5.23735H10.0642C9.64995 5.23735 9.31416 4.90157 9.31416 4.48735L9.31416 3.32647Z" fill="black"/>
</svg>
