<svg width="16" height="16" viewBox="0 0 16 16" fill="none" xmlns="http://www.w3.org/2000/svg">
<path fill-rule="evenodd" clip-rule="evenodd" d="M4.79414 1.04395C3.66196 1.04395 2.74414 1.96176 2.74414 3.09395V12.906C2.74414 14.0382 3.66196 14.956 4.79414 14.956H7.65379C7.65017 14.9142 7.64831 14.8719 7.64832 14.8292L7.64833 13.8307C7.64834 13.7721 7.65143 13.7138 7.65752 13.656H4.79414C4.37993 13.656 4.04414 13.3202 4.04414 12.906V3.09395C4.04414 2.67973 4.37993 2.34395 4.79414 2.34395H8.01417L8.01416 4.48735C8.01416 5.61953 8.93198 6.53735 10.0642 6.53735H11.9559V8.83274L12.6244 8.16419C12.8087 7.97998 13.0252 7.8479 13.2559 7.76795V6.10088C13.2559 5.80981 13.1455 5.52956 12.947 5.31667L9.30449 1.40973C9.08698 1.17643 8.78233 1.04395 8.46336 1.04395H4.79414ZM11.0957 5.23735L9.31416 3.32647L9.31416 4.48735C9.31416 4.90157 9.64995 5.23735 10.0642 5.23735H11.0957Z" fill="black"/>
<path d="M14.8409 9.86171C14.9842 10.005 14.9842 10.2373 14.8409 10.3806L14.166 11.0555L12.8688 9.75834L13.5437 9.08341C13.687 8.94013 13.9193 8.94013 14.0626 9.08341L14.8409 9.86171Z" fill="black"/>
<path d="M12.3974 10.2297L13.6946 11.5269L10.353 14.8685C10.2842 14.9373 10.1909 14.976 10.0936 14.976L9.09512 14.9759C9.01407 14.9759 8.94836 14.9102 8.94836 14.8292L8.94838 13.8308C8.94838 13.7335 8.98704 13.6401 9.05584 13.5713L12.3974 10.2297Z" fill="black"/>
</svg>
