<svg width="16" height="16" viewBox="0 0 16 16" fill="none" xmlns="http://www.w3.org/2000/svg">
<path fill-rule="evenodd" clip-rule="evenodd" d="M5.29414 1.04858C4.16196 1.04858 3.24414 1.9664 3.24414 3.09858V12.9106C3.24414 14.0428 4.16196 14.9606 5.29414 14.9606H11.5059C12.7485 14.9606 13.7559 13.9533 13.7559 12.7106V6.10552C13.7559 5.81445 13.6455 5.5342 13.447 5.3213L9.80449 1.41437C9.58698 1.18107 9.28233 1.04858 8.96336 1.04858H5.29414ZM4.54414 3.09858C4.54414 2.68437 4.87993 2.34858 5.29414 2.34858H8.5142L8.51419 4.49199C8.51419 5.62417 9.43201 6.54199 10.5642 6.54199H12.4559V12.7106C12.4559 13.2353 12.0306 13.6606 11.5059 13.6606H5.29414C4.87993 13.6606 4.54414 13.3248 4.54414 12.9106V3.09858ZM11.5957 5.24199L9.8142 3.33115L9.81419 4.49199C9.81419 4.9062 10.15 5.24199 10.5642 5.24199H11.5957Z" fill="black"/>
</svg>
