<svg xmlns="http://www.w3.org/2000/svg" width="16" height="16" fill="none" viewBox="0 0 16 16"><path fill="#000" fill-rule="evenodd" d="M13.2559 11.0806V6.1009a1.15 1.15 0 0 0-.3089-.7842l-3.6425-3.907a1.15 1.15 0 0 0-.8411-.3657H4.794c-1.1321 0-2.05.9178-2.05 2.05v9.812c0 1.1322.9179 2.05 2.05 2.05h6.2118c1.2426 0 2.25-1.0074 2.25-2.25zM4.7941 2.3439a.75.75 0 0 0-.75.75v6.5267l1.9226.7449 3.0342-2.04a.65.65 0 0 1 .7309.0038l2.2241 1.529v-3.321h-1.8917c-1.1322 0-2.05-.9178-2.05-2.05V2.344zm4.52.9826 1.7816 1.9109h-1.0315a.75.75 0 0 1-.75-.75zM7.3025 7.2523c0 .5427-.44.9827-.9827.9827s-.9827-.44-.9827-.9827.44-.9827.9827-.9827.9827.44.9827.9827m4.6535 4.1837L9.3595 9.651l-2.9489 1.9825a.65.65 0 0 1-.5975.0667l-1.769-.6855v1.8913a.75.75 0 0 0 .75.75h6.2118a.95.95 0 0 0 .95-.95z"/></svg>