<svg width="16" height="16" viewBox="0 0 16 16" fill="none" xmlns="http://www.w3.org/2000/svg">
<path fill-rule="evenodd" clip-rule="evenodd" d="M2.90137 3.14497C2.90137 2.01279 3.81918 1.09497 4.95137 1.09497H8.62058C8.93956 1.09497 9.2442 1.22745 9.46172 1.46076L13.1043 5.36769C13.3028 5.58059 13.4131 5.86083 13.4131 6.15191V9.31992C13.0385 9.00652 12.5743 8.85518 12.1131 8.86591V6.58835H10.2214C9.0892 6.58835 8.17139 5.67053 8.17139 4.53834L8.17139 2.39497H4.95137C4.53715 2.39497 4.20137 2.73076 4.20137 3.14497V12.957C4.20137 13.3712 4.53715 13.707 4.95137 13.707H5.29614V14.3962C5.29614 14.6067 5.32166 14.8113 5.36977 15.007H4.95137C3.81918 15.007 2.90137 14.0892 2.90137 12.957V3.14497ZM9.47139 3.3775L11.2529 5.28835H10.2214C9.80718 5.28835 9.47139 4.95256 9.47139 4.53835L9.47139 3.3775Z" fill="black"/>
<path d="M12.6237 11.287C12.8803 11.0304 12.8803 10.6144 12.6237 10.3578C12.3671 10.1012 11.9511 10.1012 11.6946 10.3578L10.6546 11.3977V8.13057C10.6546 7.77158 10.3636 7.48057 10.0046 7.48057C9.64566 7.48057 9.35464 7.77158 9.35464 8.13057V11.4077L8.30473 10.3578C8.04815 10.1012 7.63215 10.1012 7.37557 10.3578C7.11899 10.6144 7.11899 11.0304 7.37557 11.287L9.53507 13.4465C9.79165 13.7031 10.2076 13.7031 10.4642 13.4465L12.6237 11.287Z" fill="black"/>
<path d="M13.4132 13.6501C13.4132 13.2911 13.1222 13.0001 12.7632 13.0001C12.4043 13.0001 12.1132 13.2911 12.1132 13.6501V14.3462H7.89634V13.7838C7.89634 13.4248 7.60532 13.1338 7.24634 13.1338C6.88735 13.1338 6.59634 13.4248 6.59634 13.7838V14.3962C6.59634 15.0865 7.15598 15.6462 7.84634 15.6462H12.1632C12.8536 15.6462 13.4132 15.0865 13.4132 14.3962V13.6501Z" fill="black"/>
</svg>
