<svg width="16" height="16" viewBox="0 0 16 16" fill="none" xmlns="http://www.w3.org/2000/svg">
<path d="M6.31972 8.23502C6.86246 8.23502 7.30243 7.79504 7.30243 7.25231C7.30243 6.70957 6.86246 6.2696 6.31972 6.2696C5.77699 6.2696 5.33701 6.70957 5.33701 7.25231C5.33701 7.79504 5.77699 8.23502 6.31972 8.23502Z" fill="black"/>
<path fill-rule="evenodd" clip-rule="evenodd" d="M13.2559 6.10088V11.0806C13.2561 11.09 13.2561 11.0994 13.2559 11.1088V12.706C13.2559 13.9486 12.2485 14.956 11.0059 14.956H4.79414C3.66196 14.956 2.74414 14.0382 2.74414 12.906V3.09395C2.74414 1.96176 3.66196 1.04395 4.79414 1.04395H8.46336C8.78233 1.04395 9.08698 1.17643 9.30449 1.40973L12.947 5.31667C13.1455 5.52956 13.2559 5.80981 13.2559 6.10088ZM4.04414 3.09395C4.04414 2.67973 4.37993 2.34395 4.79414 2.34395H8.01417L8.01416 4.48735C8.01416 5.61953 8.93198 6.53735 10.0642 6.53735H11.9559V9.85839L9.73178 8.32931C9.512 8.17821 9.22221 8.1767 9.00087 8.32552L5.96667 10.3655L4.04414 9.62053V3.09395ZM9.35946 9.65093L11.9559 11.436V12.706C11.9559 13.2307 11.5306 13.656 11.0059 13.656H4.79414C4.37993 13.656 4.04414 13.3202 4.04414 12.906V11.0147L5.8131 11.7002C6.0112 11.777 6.23432 11.7521 6.41063 11.6335L9.35946 9.65093ZM11.0957 5.23735L9.31416 3.32647L9.31416 4.48735C9.31416 4.90157 9.64995 5.23735 10.0642 5.23735H11.0957Z" fill="black"/>
</svg>
