<svg width="16" height="16" viewBox="0 0 16 16" fill="none" xmlns="http://www.w3.org/2000/svg">
<path fill-rule="evenodd" clip-rule="evenodd" d="M2.74414 3.09395C2.74414 1.96176 3.66196 1.04395 4.79414 1.04395H8.46336C8.78233 1.04395 9.08698 1.17643 9.30449 1.40973L12.947 5.31667C13.1455 5.52956 13.2559 5.80981 13.2559 6.10088V8.29209C12.9544 7.92793 12.4994 7.6998 11.9972 7.6998H11.9559V6.53735H10.0642C8.93198 6.53735 8.01416 5.61953 8.01416 4.48735L8.01417 2.34395H4.79414C4.37993 2.34395 4.04414 2.67973 4.04414 3.09395V12.906C4.04414 13.3202 4.37993 13.656 4.79414 13.656H7.37174C7.38975 13.6914 7.40916 13.7264 7.42999 13.7609L7.93296 14.594C8.01579 14.7312 8.11611 14.8523 8.22956 14.956H4.79414C3.66196 14.956 2.74414 14.0382 2.74414 12.906V3.09395ZM9.31416 3.32647L11.0957 5.23735H10.0642C9.64995 5.23735 9.31416 4.90157 9.31416 4.48735L9.31416 3.32647Z" fill="black"/>
<path fill-rule="evenodd" clip-rule="evenodd" d="M11.9973 8.99979C12.1631 8.99979 12.3037 9.12159 12.3272 9.28567L12.4153 9.89796C12.5966 9.97162 12.7666 10.0664 12.9218 10.1793L13.5372 9.93944C13.6883 9.88057 13.8598 9.93894 13.9436 10.0777L14.4466 10.9108C14.5354 11.0579 14.4978 11.2484 14.3598 11.3508L13.8475 11.7309C13.8583 11.8191 13.8638 11.9089 13.8638 11.9997C13.8638 12.0907 13.8583 12.1806 13.8475 12.269L14.3594 12.6491C14.4973 12.7515 14.5348 12.942 14.4461 13.089L13.9431 13.9221C13.8593 14.061 13.6877 14.1193 13.5366 14.0604L12.9215 13.8204C12.7664 13.9331 12.5965 14.0278 12.4153 14.1014L12.3272 14.7139C12.3037 14.878 12.1631 14.9998 11.9973 14.9998H10.9914C10.8255 14.9998 10.6849 14.8779 10.6614 14.7137L10.5737 14.1015C10.3924 14.0279 10.2225 13.9331 10.0674 13.8204L9.45248 14.0603C9.30138 14.1193 9.12979 14.0609 9.04596 13.9221L8.54299 13.089C8.45421 12.9419 8.49171 12.7515 8.62962 12.6491L9.1414 12.269C9.13058 12.1806 9.12502 12.0907 9.12502 11.9997C9.12502 11.9088 9.13056 11.8191 9.14135 11.7308L8.62926 11.3509C8.49126 11.2485 8.4537 11.058 8.54251 10.9109L9.04548 10.0778C9.12927 9.93899 9.30079 9.88062 9.45186 9.93948L10.0671 10.1792C10.2223 10.0664 10.3923 9.97158 10.5737 9.89791L10.6614 9.28583C10.6849 9.12168 10.8255 8.99979 10.9914 8.99979H11.9973ZM12.2278 11.9998C12.2278 12.4048 11.8995 12.7331 11.4945 12.7331C11.0895 12.7331 10.7612 12.4048 10.7612 11.9998C10.7612 11.5948 11.0895 11.2665 11.4945 11.2665C11.8995 11.2665 12.2278 11.5948 12.2278 11.9998Z" fill="black"/>
</svg>
