<svg xmlns="http://www.w3.org/2000/svg" width="16" height="16" fill="none" viewBox="0 0 16 16"><path fill="#000" fill-rule="evenodd" d="M4.9517 1.0949c-1.1321 0-2.05.9178-2.05 2.05v9.812c0 1.1322.9179 2.05 2.05 2.05h2.8058l-1.3-1.3H4.9517a.75.75 0 0 1-.75-.75v-9.812a.75.75 0 0 1 .75-.75h3.22v2.1433c0 1.1322.9179 2.05 2.0501 2.05h1.8917v3.7776a1.95 1.95 0 0 1 1.3.4539v-4.668a1.15 1.15 0 0 0-.3089-.7841l-3.6425-3.907a1.15 1.15 0 0 0-.8411-.3657zm6.3016 4.1933L9.4718 3.3774v1.1608a.75.75 0 0 0 .75.75zM10.65 9a.65.65 0 0 0-1.3 0v3.9125L8.3 11.8626a.65.65 0 0 0-.9191.9193l2.1567 2.1567a.65.65 0 0 0 .4624.1932.647.647 0 0 0 .4619-.1927l2.1572-2.1572a.65.65 0 0 0-.9192-.9193L10.65 12.9125z"/></svg>