<svg width="16" height="16" viewBox="0 0 16 16" fill="none" xmlns="http://www.w3.org/2000/svg">
<path fill-rule="evenodd" clip-rule="evenodd" d="M2.74414 3.09395C2.74414 1.96176 3.66196 1.04395 4.79414 1.04395H8.46336C8.78233 1.04395 9.08698 1.17643 9.30449 1.40973L12.947 5.31667C13.1455 5.52956 13.2559 5.80981 13.2559 6.10088V12.706C13.2559 13.9486 12.2485 14.956 11.0059 14.956H9.46091C9.77183 14.6112 9.96244 14.1558 9.96659 13.656H11.0059C11.5306 13.656 11.9559 13.2307 11.9559 12.706V6.53735H10.0642C8.93198 6.53735 8.01416 5.61953 8.01416 4.48735L8.01417 2.34395H4.79414C4.37993 2.34395 4.04414 2.67973 4.04414 3.09395V12.906C4.04414 13.3202 4.37993 13.656 4.79414 13.656H6.03339C6.03754 14.1558 6.22815 14.6112 6.53907 14.956H4.79414C3.66196 14.956 2.74414 14.0382 2.74414 12.906V3.09395ZM9.31416 3.32647L11.0957 5.23735H10.0642C9.64995 5.23735 9.31416 4.90157 9.31416 4.48735L9.31416 3.32647Z" fill="black"/>
<path d="M8.66671 13.6394C8.66671 14.0076 8.36823 14.3061 8.00004 14.3061C7.63185 14.3061 7.33337 14.0076 7.33337 13.6394C7.33337 13.2712 7.63185 12.9727 8.00004 12.9727C8.36823 12.9727 8.66671 13.2712 8.66671 13.6394Z" fill="black"/>
<path d="M7.31672 9.63934C7.31672 9.26926 7.62693 8.95601 8.01168 8.95601C8.3837 8.95601 8.68339 9.25894 8.68339 9.6163V9.72309C8.68339 9.96331 8.5199 10.1727 8.28685 10.231C7.73629 10.3686 7.35006 10.8633 7.35006 11.4308V11.9727C7.35006 12.3317 7.64107 12.6227 8.00006 12.6227C8.35904 12.6227 8.65006 12.3317 8.65006 11.9727V11.4795C9.43623 11.2603 9.98339 10.5433 9.98339 9.72309V9.6163C9.98339 8.52634 9.08696 7.65601 8.01168 7.65601C6.92367 7.65601 6.01672 8.53666 6.01672 9.63934C6.01672 9.99832 6.30774 10.2893 6.66672 10.2893C7.02571 10.2893 7.31672 9.99832 7.31672 9.63934Z" fill="black"/>
</svg>
