<svg width="16" height="16" viewBox="0 0 16 16" fill="none" xmlns="http://www.w3.org/2000/svg">
<path fill-rule="evenodd" clip-rule="evenodd" d="M2.35596 3.15352C2.35596 2.02133 3.27377 1.10352 4.40596 1.10352H8.07517C8.39415 1.10352 8.69879 1.236 8.91631 1.4693L12.5589 5.37624C12.7573 5.58913 12.8677 5.86938 12.8677 6.16045V7.9638C12.7806 8.02263 12.6979 8.09058 12.6208 8.16767L11.5677 9.22075V6.59692H9.67598C8.54379 6.59692 7.62598 5.6791 7.62598 4.54692L7.62598 2.40352H4.40596C3.99174 2.40352 3.65596 2.7393 3.65596 3.15352V12.9656C3.65596 13.3798 3.99174 13.7156 4.40596 13.7156H7.6489C7.64609 13.7549 7.64467 13.7945 7.64467 13.8342L7.64465 14.8327C7.64465 14.8946 7.64855 14.9557 7.6561 15.0156H4.40596C3.27377 15.0156 2.35596 14.0977 2.35596 12.9656V3.15352ZM8.92598 3.38604L10.7075 5.29692H9.67598C9.26177 5.29692 8.92598 4.96114 8.92598 4.54692L8.92598 3.38604Z" fill="black"/>
<path d="M6.94468 7.97947C6.94468 8.53175 6.49696 8.97947 5.94468 8.97947C5.39239 8.97947 4.94468 8.53175 4.94468 7.97947C4.94468 7.42718 5.39239 6.97947 5.94468 6.97947C6.49696 6.97947 6.94468 7.42718 6.94468 7.97947Z" fill="black"/>
<path d="M6.94468 11.3128C6.94468 11.8651 6.49696 12.3128 5.94468 12.3128C5.39239 12.3128 4.94468 11.8651 4.94468 11.3128C4.94468 10.7605 5.39239 10.3128 5.94468 10.3128C6.49696 10.3128 6.94468 10.7605 6.94468 11.3128Z" fill="black"/>
<path d="M14.8372 9.86525C14.9805 10.0085 14.9805 10.2408 14.8372 10.3841L14.1623 11.059L12.8652 9.76188L13.5401 9.08695C13.6834 8.94367 13.9157 8.94367 14.0589 9.08695L14.8372 9.86525Z" fill="black"/>
<path d="M12.3938 10.2333L13.6909 11.5304L10.3493 14.872C10.2805 14.9408 10.1872 14.9795 10.0899 14.9795L9.09146 14.9795C9.01041 14.9795 8.9447 14.9138 8.9447 14.8327L8.94472 13.8343C8.94472 13.737 8.98338 13.6437 9.05218 13.5749L12.3938 10.2333Z" fill="black"/>
</svg>
