<svg xmlns="http://www.w3.org/2000/svg" width="16" height="16" fill="none" viewBox="0 0 16 16"><path fill="#000" fill-rule="evenodd" d="M4.7941 1.044c-1.1321 0-2.05.9178-2.05 2.05v9.812c0 1.1322.9179 2.05 2.05 2.05h6.2118c1.2426 0 2.25-1.0074 2.25-2.25V6.1009a1.15 1.15 0 0 0-.3089-.7842l-3.6425-3.907a1.15 1.15 0 0 0-.8411-.3657zm-.75 2.05a.75.75 0 0 1 .75-.75h3.22v2.1434c0 1.1321.9179 2.05 2.0501 2.05h1.8917v6.1686a.95.95 0 0 1-.95.95H4.7941a.75.75 0 0 1-.75-.75zm7.0516 2.1434-1.7815-1.911v1.161a.75.75 0 0 0 .75.75zM7.2531 8.3937a.9493.9493 0 1 1-1.8986 0 .9493.9493 0 0 1 1.8986 0m2.443.9493c.5243 0 .9494-.425.9494-.9493s-.4251-.9493-.9494-.9493a.9493.9493 0 0 0 0 1.8986m-.713 2.5064a1.2 1.2 0 0 0-.0484-.0544 1.65 1.65 0 0 0-.2038-.1825c-.182-.1373-.4007-.241-.6379-.241-.3356 0-.6109.1239-.8126.2604a1.7 1.7 0 0 0-.2266.1835 1 1 0 0 0-.0516.0532l-.008.0092a.65.65 0 1 1-.9897-.8428c.157-.185.3471-.3443.5475-.4799.3482-.2355.8737-.4836 1.541-.4836.6201 0 1.1092.2682 1.4206.503.1586.1196.2822.2387.3674.3291a2.5 2.5 0 0 1 .1314.1512c.222.2875.1826.7083-.114.9308-.2968.2225-.6896.1404-.9152-.1362"/></svg>