<svg xmlns="http://www.w3.org/2000/svg" width="16" height="16" fill="none" viewBox="0 0 16 16"><path fill="#000" fill-rule="evenodd" d="M4.7941 1.044c-1.1321 0-2.05.9178-2.05 2.05v9.812c0 1.1322.9179 2.05 2.05 2.05h1.745a1.96 1.96 0 0 1-.5057-1.3H4.7941a.75.75 0 0 1-.75-.75V3.094a.75.75 0 0 1 .75-.75h3.22v2.1434c0 1.1321.9179 2.05 2.0501 2.05h1.8917v6.1686a.95.95 0 0 1-.95.95H9.9666a1.96 1.96 0 0 1-.5057 1.3h1.545c1.2426 0 2.25-1.0074 2.25-2.25V6.1009a1.15 1.15 0 0 0-.3089-.7842l-3.6425-3.907a1.15 1.15 0 0 0-.8411-.3657zm6.3016 4.1934-1.7815-1.911v1.161a.75.75 0 0 0 .75.75zm-3.779 4.402c0-.3701.3102-.6834.695-.6834.372 0 .6717.303.6717.6603v.1068a.5236.5236 0 0 1-.3965.5079 1.237 1.237 0 0 0-.9368 1.1998v.5419a.65.65 0 1 0 1.3 0v-.4932a1.8235 1.8235 0 0 0 1.3333-1.7564v-.1068c0-1.09-.8964-1.9603-1.9717-1.9603-1.088 0-1.995.8807-1.995 1.9834a.65.65 0 0 0 1.3 0m1.35 4A.6666.6666 0 0 1 8 14.306a.6666.6666 0 1 1 0-1.3333.6667.6667 0 0 1 .6667.6667"/></svg>