<svg xmlns="http://www.w3.org/2000/svg" width="16" height="16" fill="none" viewBox="0 0 16 16"><path fill="#000" fill-rule="evenodd" d="M4.7944 2.344a.75.75 0 0 0-.75.75v4.915h-1.3V3.094c0-1.1322.9178-2.05 2.05-2.05h3.6692a1.15 1.15 0 0 1 .8411.3657l3.6426 3.907c.1984.2129.3088.4931.3088.7842V8.009h-1.3V6.5373h-1.8917c-1.1322 0-2.05-.9178-2.05-2.05V2.344zm4.52.9825 1.7815 1.9109h-1.0315a.75.75 0 0 1-.75-.75zm-7.2962 7.27h.7262v2.3095c0 1.1322.9178 2.05 2.05 2.05h6.2117c1.2427 0 2.25-1.0074 2.25-2.25v-2.1095h.7264a.65.65 0 1 0 0-1.3H2.0182a.65.65 0 0 0 0 1.3m2.0262 2.3095v-2.3095h7.9117v2.1095a.95.95 0 0 1-.95.95H4.7944a.75.75 0 0 1-.75-.75"/></svg>