<svg xmlns="http://www.w3.org/2000/svg" width="16" height="16" fill="none" viewBox="0 0 16 16"><path fill="#000" fill-rule="evenodd" d="M4.9516 1.0949c-1.1322 0-2.05.9178-2.05 2.05v9.812c0 1.1322.9178 2.05 2.05 2.05H5.37a2.56 2.56 0 0 1-.0736-.6108v-.6892h-.3448a.75.75 0 0 1-.75-.75v-9.812a.75.75 0 0 1 .75-.75h3.22v2.1433c0 1.1322.9178 2.05 2.05 2.05h1.8918v2.2776a1.95 1.95 0 0 1 1.3.454v-3.168a1.15 1.15 0 0 0-.3089-.7842L9.462 1.4606a1.15 1.15 0 0 0-.8412-.3657zm6.3016 4.1933L9.4716 3.3774v1.1608a.75.75 0 0 0 .75.75zm1.3708 5.9986a.657.657 0 0 0-.9292-.9291l-1.0399 1.0399V8.1304a.65.65 0 1 0-1.3 0v3.2772l-1.05-1.0499a.657.657 0 1 0-.929.9291l2.1594 2.1595a.657.657 0 0 0 .9292 0zm.7895 2.3632a.65.65 0 1 0-1.3 0v.6961h-4.217v-.5624a.65.65 0 1 0-1.3 0v.6124c0 .6903.5597 1.25 1.25 1.25h4.317c.6903 0 1.25-.5597 1.25-1.25z"/></svg>