<svg width="16" height="16" viewBox="0 0 16 16" fill="none" xmlns="http://www.w3.org/2000/svg">
<path d="M6.31972 8.23965C6.86246 8.23965 7.30243 7.79968 7.30243 7.25695C7.30243 6.71421 6.86246 6.27424 6.31972 6.27424C5.77699 6.27424 5.33701 6.71421 5.33701 7.25695C5.33701 7.79968 5.77699 8.23965 6.31972 8.23965Z" fill="black"/>
<path fill-rule="evenodd" clip-rule="evenodd" d="M13.2559 6.10552V11.0853C13.2561 11.0946 13.2561 11.104 13.2559 11.1134V12.7106C13.2559 13.9533 12.2485 14.9606 11.0059 14.9606H4.79414C3.66196 14.9606 2.74414 14.0428 2.74414 12.9106V3.09858C2.74414 1.9664 3.66196 1.04858 4.79414 1.04858H8.46336C8.78233 1.04858 9.08698 1.18107 9.30449 1.41437L12.947 5.3213C13.1455 5.5342 13.2559 5.81445 13.2559 6.10552ZM4.04414 3.09858C4.04414 2.68437 4.37993 2.34858 4.79414 2.34858H8.01417L8.01416 4.49199C8.01416 5.62417 8.93198 6.54199 10.0642 6.54199H11.9559V9.86303L9.73178 8.33395C9.512 8.18284 9.22221 8.18134 9.00087 8.33016L5.96667 10.3702L4.04414 9.62517V3.09858ZM9.35946 9.65557L11.9559 11.4406V12.7106C11.9559 13.2353 11.5306 13.6606 11.0059 13.6606H4.79414C4.37993 13.6606 4.04414 13.3248 4.04414 12.9106V11.0194L5.8131 11.7048C6.0112 11.7816 6.23432 11.7567 6.41063 11.6382L9.35946 9.65557ZM11.0957 5.24199L9.31416 3.33111L9.31416 4.49199C9.31416 4.9062 9.64995 5.24199 10.0642 5.24199H11.0957Z" fill="black"/>
</svg>
