<svg xmlns="http://www.w3.org/2000/svg" width="16" height="16" fill="none" viewBox="0 0 16 16"><path fill="#000" fill-rule="evenodd" d="M4.406 1.1036c-1.1322 0-2.05.9179-2.05 2.05v9.8121c0 1.1322.9178 2.05 2.05 2.05h3.25a1.5 1.5 0 0 1-.0114-.1829v-.9985q0-.0596.0042-.1186h-3.243a.75.75 0 0 1-.75-.75v-9.812a.75.75 0 0 1 .75-.75h3.22V4.547c0 1.1322.9179 2.05 2.05 2.05h1.8918v2.624l1.0531-1.0531a1.7 1.7 0 0 1 .2469-.2039V6.1606c0-.2911-.1104-.5713-.3088-.7842l-3.6426-3.907a1.15 1.15 0 0 0-.8411-.3658zm6.3015 4.1934L8.926 3.3862V4.547a.75.75 0 0 0 .75.75zM5.9447 8.9796c.5523 0 1-.4477 1-1s-.4477-1-1-1-1 .4477-1 1 .4477 1 1 1m8.8925 1.4046a.367.367 0 0 0 0-.5188l-.7783-.7783a.367.367 0 0 0-.5188 0l-.6749.6749 1.2971 1.2972zm-1.1463 1.1464-1.2971-1.2972-3.3416 3.3416a.367.367 0 0 0-.1075.2594v.9985c0 .081.0657.1467.1468.1467h.9984a.367.367 0 0 0 .2595-.1074zm-7.7462.7823c.5523 0 1-.4477 1-1s-.4477-1-1-1-1 .4477-1 1 .4477 1 1 1"/></svg>