<svg xmlns="http://www.w3.org/2000/svg" width="16" height="16" fill="none" viewBox="0 0 16 16"><path fill="#000" fill-rule="evenodd" d="M2.7441 3.094c0-1.1322.9179-2.05 2.05-2.05h3.6693a1.15 1.15 0 0 1 .8411.3657l3.6425 3.907a1.15 1.15 0 0 1 .3089.7842v1.667a1.66 1.66 0 0 0-.6315.3963l-.6685.6685V6.5373h-1.8917c-1.1322 0-2.05-.9178-2.05-2.05V2.344h-3.22a.75.75 0 0 0-.75.75v9.8121a.75.75 0 0 0 .75.75h2.8633a1.7 1.7 0 0 0-.0092.1747v.9985q0 .064.0055.1268H4.7941c-1.1321 0-2.05-.9178-2.05-2.05zm6.57.2325 1.7816 1.9109h-1.0315a.75.75 0 0 1-.75-.75zm5.5268 6.5352a.367.367 0 0 1 0 .5189l-.6749.6749-1.2972-1.2972.6749-.6749a.367.367 0 0 1 .5189 0zm-2.4435.368 1.2972 1.2972-3.3416 3.3416a.367.367 0 0 1-.2594.1074h-.9985a.1467.1467 0 0 1-.1467-.1467v-.9984a.367.367 0 0 1 .1074-.2595z"/></svg>