<svg xmlns="http://www.w3.org/2000/svg" width="16" height="16" fill="none" viewBox="0 0 16 16"><path fill="#000" fill-rule="evenodd" d="M2.7441 3.094c0-1.1322.9179-2.05 2.05-2.05h3.6693a1.15 1.15 0 0 1 .8411.3657l3.6425 3.907a1.15 1.15 0 0 1 .3089.7842v6.6051c0 1.2426-1.0074 2.25-2.25 2.25H4.7941c-1.1321 0-2.05-.9178-2.05-2.05zm2.05-.75a.75.75 0 0 0-.75.75v9.812a.75.75 0 0 0 .75.75h6.2118a.95.95 0 0 0 .95-.95V6.5374h-1.8917c-1.1322 0-2.05-.9179-2.05-2.05V2.344zm4.52.9825 1.7816 1.9109h-1.0315a.75.75 0 0 1-.75-.75zm-4.286 5.3087a.65.65 0 0 1 .65-.65h4.6439a.65.65 0 1 1 0 1.3H5.678a.65.65 0 0 1-.65-.65m.65 2.1356a.65.65 0 1 0 0 1.3H8a.65.65 0 1 0 0-1.3z"/></svg>