<svg width="16" height="16" viewBox="0 0 16 16" fill="none" xmlns="http://www.w3.org/2000/svg">
<path fill-rule="evenodd" clip-rule="evenodd" d="M4.79414 1.04395C3.66196 1.04395 2.74414 1.96176 2.74414 3.09395V12.906C2.74414 14.0382 3.66196 14.956 4.79414 14.956H8.91197C8.57808 14.5797 8.31466 14.1395 8.14239 13.656H4.79414C4.37993 13.656 4.04414 13.3202 4.04414 12.906V3.09395C4.04414 2.67973 4.37993 2.34395 4.79414 2.34395H8.01417L8.01416 4.48735C8.01416 5.61953 8.93198 6.53735 10.0642 6.53735H11.9559V8.35838C12.4122 8.36694 12.8497 8.45257 13.2559 8.60279V6.10088C13.2559 5.80981 13.1455 5.52956 12.947 5.31667L9.30449 1.40973C9.08698 1.17643 8.78233 1.04395 8.46336 1.04395H4.79414ZM11.0957 5.23735L9.31416 3.32647L9.31416 4.48735C9.31416 4.90157 9.64995 5.23735 10.0642 5.23735H11.0957Z" fill="black"/>
<path fill-rule="evenodd" clip-rule="evenodd" d="M14.5467 12.3244C14.5467 13.7971 13.3528 14.991 11.88 14.991C10.4073 14.991 9.21338 13.7971 9.21338 12.3244C9.21338 10.8516 10.4073 9.65771 11.88 9.65771C13.3528 9.65771 14.5467 10.8516 14.5467 12.3244ZM11.88 10.591C12.1009 10.591 12.28 10.7701 12.28 10.991V12.1587L13.1628 13.0415C13.319 13.1977 13.319 13.451 13.1628 13.6072C13.0066 13.7634 12.7533 13.7634 12.5971 13.6072L11.5971 12.6072C11.5221 12.5322 11.48 12.4304 11.48 12.3243V10.991C11.48 10.7701 11.6591 10.591 11.88 10.591Z" fill="black"/>
</svg>
