<svg width="16" height="16" viewBox="0 0 16 16" fill="none" xmlns="http://www.w3.org/2000/svg">
<path d="M6.10088 8.22582C6.35472 7.97198 6.76628 7.97198 7.02012 8.22582L7.99993 9.20563L8.97974 8.22583C9.23358 7.97199 9.64513 7.97199 9.89897 8.22583C10.1528 8.47967 10.1528 8.89123 9.89897 9.14507L8.91917 10.1249L9.89897 11.1047C10.1528 11.3585 10.1528 11.7701 9.89897 12.0239C9.64513 12.2778 9.23357 12.2778 8.97973 12.0239L7.99993 11.0441L7.02012 12.0239C6.76628 12.2778 6.35472 12.2778 6.10088 12.0239C5.84704 11.7701 5.84704 11.3585 6.10088 11.1047L7.08069 10.1249L6.10088 9.14506C5.84704 8.89122 5.84704 8.47966 6.10088 8.22582Z" fill="black"/>
<path fill-rule="evenodd" clip-rule="evenodd" d="M2.74414 3.09858C2.74414 1.9664 3.66196 1.04858 4.79414 1.04858H8.46336C8.78233 1.04858 9.08698 1.18107 9.30449 1.41437L12.947 5.3213C13.1455 5.5342 13.2559 5.81445 13.2559 6.10552V12.7106C13.2559 13.9533 12.2485 14.9606 11.0059 14.9606H4.79414C3.66196 14.9606 2.74414 14.0428 2.74414 12.9106V3.09858ZM4.79414 2.34858C4.37993 2.34858 4.04414 2.68437 4.04414 3.09858V12.9106C4.04414 13.3248 4.37993 13.6606 4.79414 13.6606H11.0059C11.5306 13.6606 11.9559 13.2353 11.9559 12.7106V6.54199H10.0642C8.93198 6.54199 8.01416 5.62417 8.01416 4.49199L8.01417 2.34858H4.79414ZM9.31416 3.33111L11.0957 5.24199H10.0642C9.64995 5.24199 9.31416 4.9062 9.31416 4.49199L9.31416 3.33111Z" fill="black"/>
</svg>
