<svg width="16" height="16" viewBox="0 0 16 16" fill="none" xmlns="http://www.w3.org/2000/svg">
<path fill-rule="evenodd" clip-rule="evenodd" d="M4.79414 1.04858C3.66196 1.04858 2.74414 1.9664 2.74414 3.09858V12.9106C2.74414 14.0428 3.66196 14.9606 4.79414 14.9606H8.91197C8.57808 14.5843 8.31466 14.1441 8.14239 13.6606H4.79414C4.37993 13.6606 4.04414 13.3248 4.04414 12.9106V3.09858C4.04414 2.68437 4.37993 2.34858 4.79414 2.34858H8.01417L8.01416 4.49199C8.01416 5.62417 8.93198 6.54199 10.0642 6.54199H11.9559V8.36302C12.4122 8.37158 12.8497 8.45721 13.2559 8.60743V6.10552C13.2559 5.81445 13.1455 5.5342 12.947 5.3213L9.30449 1.41437C9.08698 1.18107 8.78233 1.04858 8.46336 1.04858H4.79414ZM11.0957 5.24199L9.31416 3.33111L9.31416 4.49199C9.31416 4.9062 9.64995 5.24199 10.0642 5.24199H11.0957Z" fill="black"/>
<path fill-rule="evenodd" clip-rule="evenodd" d="M14.5467 12.329C14.5467 13.8018 13.3528 14.9957 11.88 14.9957C10.4073 14.9957 9.21338 13.8018 9.21338 12.329C9.21338 10.8563 10.4073 9.66235 11.88 9.66235C13.3528 9.66235 14.5467 10.8563 14.5467 12.329ZM11.88 10.5956C12.1009 10.5956 12.28 10.7747 12.28 10.9956V12.1633L13.1628 13.0461C13.319 13.2023 13.319 13.4556 13.1628 13.6118C13.0066 13.768 12.7533 13.768 12.5971 13.6118L11.5971 12.6118C11.5221 12.5368 11.48 12.4351 11.48 12.329V10.9956C11.48 10.7747 11.6591 10.5956 11.88 10.5956Z" fill="black"/>
</svg>
