<svg width="16" height="16" viewBox="0 0 16 16" fill="none" xmlns="http://www.w3.org/2000/svg">
<path d="M2.48915 4.32194C1.54078 2.93338 2.53515 1.05005 4.21667 1.05005H11.7833C13.4648 1.05005 14.4592 2.93338 13.5108 4.32193L10.0993 9.31685V9.9526H10.0697C9.58442 9.9526 9.14057 10.1298 8.79932 10.4231V9.11606C8.79932 8.98525 8.83879 8.85748 8.91257 8.74946L12.4373 3.58873C12.7964 3.06305 12.4199 2.35005 11.7833 2.35005H4.21667C3.58007 2.35005 3.20362 3.06305 3.56266 3.58874L7.08744 8.7495C7.16121 8.85752 7.20068 8.98529 7.20068 9.1161V12.8507C7.20068 13.2922 7.55855 13.65 8 13.65C8.28738 13.65 8.53933 13.4984 8.6802 13.2708C8.98599 13.5813 9.39509 13.7898 9.85179 13.8406C9.49808 14.5009 8.80149 14.95 8 14.95C6.84058 14.95 5.90068 14.0102 5.90068 12.8507V9.31689L2.48915 4.32194Z" fill="black"/>
<path d="M10.0696 11.2526C9.71059 11.2526 9.41957 11.5436 9.41957 11.9026C9.41957 12.2616 9.71059 12.5526 10.0696 12.5526H13.8215C14.1805 12.5526 14.4715 12.2616 14.4715 11.9026C14.4715 11.5436 14.1805 11.2526 13.8215 11.2526H10.0696Z" fill="black"/>
</svg>
