<svg xmlns="http://www.w3.org/2000/svg" width="16" height="16" fill="none" viewBox="0 0 16 16"><path fill="#000" d="M8.054 1.05H4.217c-1.6816 0-2.676 1.8833-1.7276 3.2718l3.4115 4.995v3.5338c0 1.1595.94 2.0994 2.0993 2.0994 1.1595 0 2.0994-.9399 2.0994-2.0994V9.3168l1.6788-2.4582a4.97 4.97 0 0 1-1.242-.4864L8.9128 8.7494a.65.65 0 0 0-.1132.3666v3.7346a.7994.7994 0 1 1-1.5987 0V9.116a.65.65 0 0 0-.1132-.3666L3.5629 3.5886c-.359-.5256.0174-1.2386.654-1.2386h3.759A5 5 0 0 1 7.964 2c0-.3248.031-.6425.0901-.95"/></svg>