<svg xmlns="http://www.w3.org/2000/svg" width="16" height="16" fill="none" viewBox="0 0 16 16"><path fill="#000" fill-rule="evenodd" d="M1.4658 4.4658c0-1.6568 1.3432-3 3-3h7.0684c1.6568 0 3 1.3432 3 3V6.818H6.4073v6.4162h3.8676v1.3h-5.809c-1.657 0-3-1.3432-3-3zm3-1.7h7.0684c.9389 0 1.7.7611 1.7 1.7V5.518H2.7658V4.4658c0-.9389.7611-1.7 1.7-1.7m-1.7 4.0522h2.3415v6.4162h-.6415c-.9389 0-1.7-.7611-1.7-1.7zm6.9306 3.3649c-.6102-.9177.0076-2.2163 1.1614-2.2163h3.9407c1.1538 0 1.7716 1.2986 1.1614 2.2163l-1.727 2.5971v1.8015c0 .7706-.6126 1.4252-1.4048 1.4252s-1.4048-.6546-1.4048-1.4252v-1.8014zm1.0753-.858c-.0236.046-.0218.0946.0072.1382l1.8357 2.7607a.65.65 0 0 1 .1087.3599v1.9978c0 .0857.0632.1252.1048.1252s.1048-.0395.1048-.1252v-1.9979c0-.128.0379-.2532.1088-.3599l1.8357-2.7606c.029-.0436.0308-.0922.0071-.1382a.12.12 0 0 0-.0396-.046.08.08 0 0 0-.0464-.0123h-3.9407a.08.08 0 0 0-.0465.0123.12.12 0 0 0-.0396.046"/></svg>