<svg xmlns="http://www.w3.org/2000/svg" width="16" height="16" fill="none" viewBox="0 0 16 16"><path fill="#000" fill-rule="evenodd" d="M2.4892 4.322c-.9484-1.3886.046-3.272 1.7275-3.272h7.5666c1.6815 0 2.6759 1.8834 1.7275 3.272l-3.4115 4.9949v3.5338c0 1.1594-.9399 2.0993-2.0993 2.0993s-2.0993-.9398-2.0993-2.0993V9.3169zM4.2166 2.35c-.6366 0-1.013.713-.654 1.2387l3.5247 5.1608a.65.65 0 0 1 .1133.3666v3.7346c0 .4415.3579.7993.7993.7993a.7993.7993 0 0 0 .7993-.7993V9.1161a.65.65 0 0 1 .1133-.3666l3.5247-5.1608c.3591-.5256-.0174-1.2386-.654-1.2386z"/></svg>