<svg xmlns="http://www.w3.org/2000/svg" width="16" height="16" fill="none" viewBox="0 0 16 16"><path fill="#000" fill-rule="evenodd" d="m9.2598 8.2405 3.1771-4.6518c.359-.5256-.0174-1.2386-.654-1.2386H4.2163c-.2427 0-.4475.1035-.5883.2609l-.9207-.9204c.3698-.3881.8933-.6406 1.509-.6406h7.5666c1.6815 0 2.6759 1.8834 1.7275 3.272l-3.3151 4.8536zM.8535 3.494l3.3749 3.375 1.6719 2.4478v3.5338c0 1.1594.9399 2.0993 2.0993 2.0993s2.0993-.9399 2.0993-2.0993v-.1112l2.0676 2.0677a.6501.6501 0 0 0 .9193-.9193L1.7728 2.5749a.65.65 0 0 0-.9193.9192m7.9454 9.3566v-1.4112L7.2003 9.8409v3.0098c0 .4415.3578.7993.7993.7993a.7993.7993 0 0 0 .7993-.7993"/></svg>