<svg xmlns="http://www.w3.org/2000/svg" width="16" height="16" fill="none" viewBox="0 0 16 16"><path d="M0 1h15v14H0z"/><path fill="#000" d="M14.9639 2.5c0 1.3807-1.1193 2.5-2.5 2.5s-2.5-1.1193-2.5-2.5 1.1193-2.5 2.5-2.5 2.5 1.1192 2.5 2.5"/><path fill="#000" d="M8.8294 1h-4.77C2.378 1 1.3836 2.8832 2.332 4.2717l3.4116 4.995v3.5338c0 1.1594.9399 2.0993 2.0993 2.0993S9.942 13.96 9.942 12.8006V9.2667l2.0702-3.031a3.78 3.78 0 0 1-1.3252-.3647L8.7553 8.6994a.65.65 0 0 0-.1132.3666v3.7346a.7993.7993 0 0 1-.7993.7993.7993.7993 0 0 1-.7993-.7993V9.066a.65.65 0 0 0-.1133-.3666L3.4054 3.5386c-.359-.5257.0174-1.2387.654-1.2387H8.546A3.78 3.78 0 0 1 8.8294 1"/></svg>