<svg xmlns="http://www.w3.org/2000/svg" width="16" height="16" fill="none" viewBox="0 0 16 16"><path fill="#000" fill-rule="evenodd" d="M4.2167 1.05c-1.6816 0-2.676 1.8834-1.7276 3.272l3.4116 4.9949v3.5338c0 1.1594.9399 2.0993 2.0993 2.0993.7966 0 1.4896-.4437 1.8453-1.0974h-.2847c-.4108 0-.792-.1271-1.1064-.3441A.795.795 0 0 1 8 13.65a.7993.7993 0 0 1-.7993-.7993V9.1161a.65.65 0 0 0-.1133-.3666L3.5627 3.5887c-.359-.5256.0174-1.2386.654-1.2386h7.5666c.6366 0 1.0131.713.654 1.2386L8.9126 8.7495a.65.65 0 0 0-.1133.3666v.9907a1.94 1.94 0 0 1 .7613-.1542h.5387V9.317l3.4115-4.995c.9484-1.3885-.046-3.2719-1.7275-3.2719zm5.344 10.2025a.65.65 0 0 0 0 1.3h1.7475v1.7474a.65.65 0 0 0 1.3001 0v-1.7474h1.7475a.65.65 0 1 0 0-1.3h-1.7475V9.5048a.65.65 0 0 0-1.3001 0v1.7477z"/></svg>