<svg width="16" height="16" viewBox="0 0 16 16" fill="none" xmlns="http://www.w3.org/2000/svg">
<path d="M9.02273 1.05005H4.2528C2.57129 1.05005 1.57691 2.93338 2.52528 4.32194L5.93682 9.31689V12.8507C5.93682 14.0102 6.87671 14.95 8.03614 14.95C9.19556 14.95 10.1355 14.0101 10.1355 12.8507V9.31685L12.2057 6.28577C11.734 6.24511 11.287 6.1183 10.8804 5.92115L8.9487 8.74946C8.87493 8.85748 8.83546 8.98525 8.83546 9.11606V12.8507C8.83546 13.2922 8.47759 13.65 8.03614 13.65C7.59468 13.65 7.23682 13.2922 7.23682 12.8507V9.1161C7.23682 8.98529 7.19735 8.85752 7.12357 8.7495L3.59879 3.58874C3.23975 3.06305 3.61621 2.35005 4.2528 2.35005H8.73923C8.75703 1.89116 8.85621 1.45315 9.02273 1.05005Z" fill="black"/>
<path d="M15.0361 2.5C15.0361 3.88071 13.9168 5 12.5361 5C11.1554 5 10.0361 3.88071 10.0361 2.5C10.0361 1.11929 11.1554 0 12.5361 0C13.9168 0 15.0361 1.11929 15.0361 2.5Z" fill="black"/>
</svg>
