<svg width="16" height="16" viewBox="0 0 16 16" fill="none" xmlns="http://www.w3.org/2000/svg">
<path fill-rule="evenodd" clip-rule="evenodd" d="M4.46582 1.46582C2.80897 1.46582 1.46582 2.80897 1.46582 4.46582V11.5342C1.46582 13.191 2.80897 14.5342 4.46582 14.5342H10.2749V13.2342H6.40732V6.81797H14.5342V4.46582C14.5342 2.80897 13.191 1.46582 11.5342 1.46582H4.46582ZM11.5342 2.76582H4.46582C3.52694 2.76582 2.76582 3.52694 2.76582 4.46582V5.51797H13.2342V4.46582C13.2342 3.52694 12.4731 2.76582 11.5342 2.76582ZM5.10732 6.81797H2.76582V11.5342C2.76582 12.4731 3.52694 13.2342 4.46582 13.2342H5.10732V6.81797Z" fill="black"/>
<path fill-rule="evenodd" clip-rule="evenodd" d="M10.8578 7.96655C9.70396 7.96655 9.08616 9.26525 9.69635 10.1829L11.4233 12.7801V14.5815C11.4233 15.3521 12.036 16.0067 12.8281 16.0067C13.6203 16.0067 14.2329 15.3521 14.2329 14.5815V12.78L15.9599 10.1829C16.5701 9.26525 15.9523 7.96655 14.7985 7.96655H10.8578ZM10.7789 9.46308C10.7499 9.41945 10.7481 9.37093 10.7717 9.32493C10.7835 9.30206 10.7986 9.28709 10.8113 9.27886C10.8218 9.27207 10.8352 9.26655 10.8578 9.26655H14.7985C14.8211 9.26655 14.8345 9.27207 14.8449 9.27886C14.8577 9.28709 14.8728 9.30206 14.8845 9.32493C14.9082 9.37093 14.9064 9.41945 14.8774 9.46307L13.0417 12.2237C12.9708 12.3304 12.9329 12.4556 12.9329 12.5836V14.5815C12.9329 14.6672 12.8697 14.7067 12.8281 14.7067C12.7865 14.7067 12.7233 14.6672 12.7233 14.5815V12.5837C12.7233 12.4556 12.6855 12.3304 12.6146 12.2238L10.7789 9.46308Z" fill="black"/>
</svg>
