<svg width="16" height="16" viewBox="0 0 16 16" fill="none" xmlns="http://www.w3.org/2000/svg">
<path fill-rule="evenodd" clip-rule="evenodd" d="M4.22839 6.86905L0.853466 3.49413C0.599626 3.24028 0.599626 2.82873 0.853466 2.57489C1.10731 2.32105 1.51886 2.32105 1.77271 2.57489L13.0858 13.888C13.3396 14.1418 13.3396 14.5534 13.0858 14.8072C12.8319 15.061 12.4204 15.061 12.1665 14.8072L10.0989 12.7396V12.8507C10.0989 14.0101 9.159 14.95 7.99958 14.95C6.84015 14.95 5.90026 14.0102 5.90026 12.8507V9.31689L4.22839 6.86905ZM8.7989 11.4396V12.8507C8.7989 13.2922 8.44103 13.65 7.99958 13.65C7.55812 13.65 7.20026 13.2922 7.20026 12.8507V9.84091L8.7989 11.4396Z" fill="black"/>
<path d="M12.4369 3.58873L9.25979 8.24046L10.1953 9.17564L13.5104 4.32193C14.4588 2.93338 13.4644 1.05005 11.7829 1.05005H4.21624C3.60064 1.05005 3.07713 1.30247 2.70733 1.69062L3.62802 2.61094C3.76876 2.45363 3.9736 2.35005 4.21624 2.35005H11.7829C12.4195 2.35005 12.7959 3.06305 12.4369 3.58873Z" fill="black"/>
</svg>
