<svg width="16" height="16" viewBox="0 0 16 16" fill="none" xmlns="http://www.w3.org/2000/svg">
<path d="M8.31543 0.767578C8.41122 0.82112 8.49295 0.898066 8.55176 0.993164C8.61404 1.0936 8.65032 1.21095 8.65039 1.33301V8C8.65017 8.35878 8.35882 8.64938 8 8.64941C7.64118 8.64938 7.34983 8.35878 7.34961 8V5.79199L5.77148 6.7041C5.76647 6.70711 5.76367 6.71288 5.76367 6.71875V9.28223C5.76381 9.28802 5.76646 9.29397 5.77148 9.29688L7.99219 10.5781C7.99722 10.5808 8.00381 10.5809 8.00879 10.5781L10.2285 9.29688C10.2335 9.29397 10.2362 9.28801 10.2363 9.28223V7.99805C10.6176 8.29062 11.0798 8.41942 11.5371 8.40332V9.28223C11.5369 9.75223 11.2858 10.1867 10.8789 10.4219L8.6582 11.7041C8.25094 11.9391 7.74905 11.9391 7.3418 11.7041L5.12207 10.4219C4.71482 10.1868 4.46305 9.75245 4.46289 9.28223V6.71875C4.46289 6.2484 4.71477 5.81334 5.12207 5.57812L7.34961 4.29199V2.45801L3.21777 4.84473C3.00676 4.96679 2.8771 5.19274 2.87695 5.43652V10.5635C2.87708 10.8073 3.00668 11.0332 3.21777 11.1553L7.6582 13.7188C7.8696 13.8408 8.13041 13.8408 8.3418 13.7188L12.7822 11.1553C12.9934 11.0332 13.1239 10.8074 13.124 10.5635V8.27246C13.4116 8.34445 13.704 8.36345 13.9697 8.33105C14.1187 8.31288 14.2715 8.27573 14.4238 8.22363V10.5635C14.4237 11.2718 14.0451 11.927 13.4316 12.2812L8.99219 14.8447C8.37872 15.1989 7.62234 15.1987 7.00879 14.8447L2.56836 12.2812C1.95492 11.927 1.57629 11.2719 1.57617 10.5635V5.43652C1.57632 4.7281 1.95483 4.07297 2.56836 3.71875L7.6748 0.770508C7.77354 0.713569 7.88469 0.682629 8 0.682617C8.11312 0.682736 8.22044 0.714767 8.31543 0.767578Z" fill="black"/>
<path d="M11.79 4.2002C12.3716 4.11965 12.8155 4.70967 12.5771 5.24609L12.4287 5.5791C12.348 5.76054 12.2934 5.95279 12.2656 6.14941L12.2207 6.46484C12.1174 7.19332 11.135 7.35097 10.8086 6.69141L10.6494 6.37109C10.5318 6.13353 10.3714 5.91906 10.1758 5.74023L9.91113 5.49902C9.36793 5.00253 9.79196 4.10246 10.5205 4.20508L10.8359 4.25C11.0327 4.27782 11.2328 4.27731 11.4297 4.25L11.79 4.2002Z" fill="black"/>
<path d="M13.6348 5.58594C14.1234 5.52635 14.5592 5.80337 14.6084 6.20508C14.6574 6.60694 14.3012 6.98134 13.8125 7.04102C13.3237 7.10062 12.8879 6.82281 12.8389 6.4209C12.7901 6.01914 13.1462 5.64556 13.6348 5.58594Z" fill="black"/>
<path d="M13.7607 3.79883C14.2302 3.5905 14.7384 3.70994 14.8965 4.06543C15.0545 4.42116 14.8026 4.87922 14.333 5.08789C13.8635 5.29648 13.3545 5.17684 13.1963 4.82129C13.0382 4.46553 13.2911 4.00748 13.7607 3.79883Z" fill="black"/>
<path d="M12.4297 2.55762C12.7603 2.1643 13.2694 2.04855 13.5674 2.29883C13.8654 2.5493 13.8395 3.07142 13.5088 3.46484C13.1781 3.85819 12.6681 3.97409 12.3701 3.72363C12.0721 3.47316 12.099 2.95104 12.4297 2.55762Z" fill="black"/>
<path d="M10.4082 2.51562C10.601 2.06253 11.0591 1.82391 11.4316 1.98242C11.804 2.14104 11.9496 2.63685 11.7568 3.08984C11.564 3.54266 11.1059 3.78148 10.7334 3.62305C10.3608 3.46454 10.2155 2.96871 10.4082 2.51562Z" fill="black"/>
</svg>
