<svg xmlns="http://www.w3.org/2000/svg" width="16" height="16" fill="none" viewBox="0 0 16 16"><path fill="#000" fill-rule="evenodd" d="M8.5518.9932a.65.65 0 0 0-.2364-.2256C8.2204.7148 8.1131.6827 8 .6826a.65.65 0 0 0-.3252.088L2.5683 3.7187a1.985 1.985 0 0 0-.9921 1.7177v5.127a1.985 1.985 0 0 0 .9922 1.7178l4.4404 2.5634c.6135.354 1.37.3542 1.9834 0l4.4394-2.5634a1.985 1.985 0 0 0 .9922-1.7178V8.2236c-.1523.0521-.3051.0893-.4541.1075-.2657.0324-.5581.0133-.8457-.0586v2.291a.685.685 0 0 1-.3418.5918l-4.4404 2.5635a.684.684 0 0 1-.6836 0l-4.4404-2.5635a.684.684 0 0 1-.3409-.5918v-5.127a.684.684 0 0 1 .3409-.5918L7.3496 2.458v1.834L5.1221 5.5781a1.318 1.318 0 0 0-.6592 1.1407v2.5634c.0001.4703.252.9046.6592 1.1397l2.2197 1.2822c.4073.235.9091.235 1.3164 0l2.2207-1.2822a1.317 1.317 0 0 0 .6582-1.1397v-.8789c-.4572.0161-.9195-.1127-1.3008-.4052v1.2841a.017.017 0 0 1-.0078.0147L8.0088 10.578a.018.018 0 0 1-.0166 0L5.7715 9.2969a.017.017 0 0 1-.0078-.0147V6.7188a.017.017 0 0 1 .0078-.0147l1.5781-.9121V8A.65.65 0 0 0 8 8.6494.65.65 0 0 0 8.6504 8V1.333a.647.647 0 0 0-.0986-.3398m1.8564 1.5224c.1928-.453.6509-.6917 1.0234-.5332.3724.1586.518.6545.3252 1.1074s-.6509.6917-1.0234.5332-.5179-.6543-.3252-1.1074m2.0215.042c.3306-.3933.8397-.509 1.1377-.2588.298.2505.2721.7726-.0586 1.166s-.8407.5093-1.1387.2588-.2711-.7726.0596-1.166m1.3311 1.2412c.4694-.2083.9776-.0889 1.1357.2666.158.3558-.0939.8138-.5635 1.0225-.4695.2086-.9785.089-1.1367-.2666-.158-.3558.0948-.8138.5645-1.0225m-1.9708.4014c.5816-.0805 1.0255.5095.7872 1.0459l-.1485.333a2.14 2.14 0 0 0-.1631.5703l-.0449.3154c-.1033.7285-1.0856.8862-1.4121.2266l-.1592-.3203a2.14 2.14 0 0 0-.4736-.6309l-.2647-.2412c-.5432-.4965-.1191-1.3965.6094-1.294l.3154.045c.1968.0278.3969.0273.5938 0zm1.8448 1.3857c.4886-.0595.9244.2175.9736.6192.049.4018-.3072.7762-.7959.836-.4888.0595-.9246-.2183-.9736-.6202-.0488-.4018.3073-.7753.7959-.835"/></svg>