<svg width="16" height="16" viewBox="0 0 16 16" fill="none" xmlns="http://www.w3.org/2000/svg">
<g clip-path="url(#clip0_21654_2233)">
<path d="M14.8034 5.50784C14.4844 4.74022 13.8373 3.9114 13.3305 3.64941C13.6919 4.34919 13.9427 5.10071 14.0741 5.87725L14.0754 5.88957C13.2453 3.82085 11.8381 2.98541 10.6882 1.16865C10.63 1.07677 10.5719 0.984702 10.5152 0.887517C10.4828 0.832011 10.4569 0.781998 10.4343 0.735963C10.3866 0.64362 10.3499 0.546028 10.3248 0.445168C10.3249 0.440514 10.3232 0.43601 10.3201 0.432516C10.317 0.429022 10.3128 0.426782 10.3081 0.426224C10.3036 0.424983 10.2988 0.424983 10.2943 0.426224C10.2934 0.426224 10.2919 0.427929 10.2907 0.428308C10.2896 0.428687 10.2871 0.430392 10.2854 0.43115L10.2883 0.426224C8.44403 1.50605 7.81792 3.50467 7.76109 4.50493C7.02434 4.55544 6.31991 4.82684 5.73973 5.28373C5.67922 5.23248 5.61598 5.18454 5.55029 5.14013C5.38301 4.55455 5.37588 3.93481 5.52964 3.34554C4.85236 3.67362 4.25056 4.13872 3.76233 4.71142H3.75892C3.46793 4.34258 3.48839 3.12635 3.50507 2.87231C3.41898 2.90691 3.33681 2.95053 3.25993 3.00246C3.00305 3.18579 2.76291 3.39151 2.54232 3.6172C2.29094 3.87206 2.06136 4.14752 1.85597 4.44071V4.44184V4.44052C1.38397 5.10956 1.04917 5.86545 0.870862 6.66458L0.861011 6.71307C0.847182 6.77767 0.797358 7.10124 0.788833 7.17153C0.788833 7.17702 0.787697 7.18213 0.787128 7.18763C0.72286 7.52168 0.683034 7.85998 0.667969 8.19982V8.23771C0.671214 10.075 1.36315 11.8444 2.60717 13.1965C3.8512 14.5486 5.55692 15.3851 7.38762 15.5411C9.21831 15.697 11.0409 15.1609 12.4957 14.0387C13.9505 12.9165 14.9317 11.2896 15.2456 9.47932C15.2579 9.3846 15.268 9.29082 15.2789 9.19515C15.4302 7.94519 15.2665 6.67725 14.8027 5.5067L14.8034 5.50784ZM6.34103 11.2555C6.37531 11.272 6.40752 11.2898 6.44276 11.3055L6.44787 11.3088C6.41226 11.2917 6.37664 11.274 6.34103 11.2555ZM14.0756 5.89165V5.88464L14.0769 5.89241L14.0756 5.89165Z" fill="url(#paint0_linear_21654_2233)"/>
<path d="M14.8029 5.50785C14.4839 4.74023 13.8367 3.91141 13.33 3.64941C13.6913 4.3492 13.9422 5.10072 14.0735 5.87726V5.88427L14.0749 5.89204C14.6409 7.5116 14.559 9.28725 13.8464 10.8479C13.0049 12.6534 10.9688 14.5041 7.78044 14.4132C4.33637 14.3156 1.3015 11.7591 0.735061 8.41163C0.631815 7.88365 0.735061 7.61597 0.786968 7.18688C0.716164 7.52018 0.676651 7.85937 0.668945 8.20002V8.23791C0.67219 10.0752 1.36412 11.8446 2.60815 13.1967C3.85218 14.5488 5.5579 15.3853 7.38859 15.5413C9.21929 15.6972 11.0419 15.1611 12.4967 14.0389C13.9515 12.9167 14.9327 11.2898 15.2466 9.47952C15.2589 9.3848 15.2689 9.29102 15.2799 9.19535C15.4312 7.94539 15.2674 6.67745 14.8037 5.5069L14.8029 5.50785Z" fill="url(#paint1_radial_21654_2233)"/>
<path d="M14.8029 5.50785C14.4839 4.74023 13.8367 3.91141 13.33 3.64941C13.6913 4.3492 13.9422 5.10072 14.0735 5.87726V5.88427L14.0749 5.89204C14.6409 7.5116 14.559 9.28725 13.8464 10.8479C13.0049 12.6534 10.9688 14.5041 7.78044 14.4132C4.33637 14.3156 1.3015 11.7591 0.735061 8.41163C0.631815 7.88365 0.735061 7.61597 0.786968 7.18688C0.716164 7.52018 0.676651 7.85937 0.668945 8.20002V8.23791C0.67219 10.0752 1.36412 11.8446 2.60815 13.1967C3.85218 14.5488 5.5579 15.3853 7.38859 15.5413C9.21929 15.6972 11.0419 15.1611 12.4967 14.0389C13.9515 12.9167 14.9327 11.2898 15.2466 9.47952C15.2589 9.3848 15.2689 9.29102 15.2799 9.19535C15.4312 7.94539 15.2674 6.67745 14.8037 5.5069L14.8029 5.50785Z" fill="url(#paint2_radial_21654_2233)"/>
<path d="M11.2345 6.37001C11.2504 6.38119 11.2652 6.39236 11.2802 6.40354C11.0958 6.0765 10.8662 5.77708 10.5982 5.51411C8.3154 3.23132 10.0001 0.56586 10.2841 0.429461L10.2869 0.425293C8.44271 1.50512 7.8166 3.50374 7.75977 4.504C7.84539 4.49813 7.93026 4.49093 8.01779 4.49093C8.67209 4.49219 9.3144 4.66669 9.8794 4.99667C10.4444 5.32666 10.912 5.80036 11.2345 6.36963V6.37001Z" fill="url(#paint3_radial_21654_2233)"/>
<path d="M8.02069 6.82674C8.00857 7.00937 7.36333 7.63926 7.1377 7.63926C5.05004 7.63926 4.71094 8.90228 4.71094 8.90228C4.80339 9.96581 5.54449 10.8422 6.44036 11.3044C6.48128 11.3256 6.52277 11.3448 6.56426 11.3635C6.63612 11.3953 6.70798 11.4248 6.77984 11.4518C7.08731 11.5606 7.40933 11.6227 7.7352 11.6361C11.3952 11.8078 12.1038 7.26 9.46273 5.93958C10.0857 5.85852 10.7166 6.0117 11.2331 6.36943C10.9105 5.80016 10.443 5.32645 9.87795 4.99647C9.31295 4.66648 8.67064 4.49199 8.01634 4.49072C7.92919 4.49072 7.84394 4.49792 7.75832 4.50379C7.02156 4.55431 6.31714 4.82571 5.73696 5.28259C5.84892 5.37732 5.97528 5.50386 6.24145 5.76624C6.73968 6.25709 8.01747 6.76555 8.02031 6.82523L8.02069 6.82674Z" fill="url(#paint4_radial_21654_2233)"/>
<path d="M8.02069 6.82674C8.00857 7.00937 7.36333 7.63926 7.1377 7.63926C5.05004 7.63926 4.71094 8.90228 4.71094 8.90228C4.80339 9.96581 5.54449 10.8422 6.44036 11.3044C6.48128 11.3256 6.52277 11.3448 6.56426 11.3635C6.63612 11.3953 6.70798 11.4248 6.77984 11.4518C7.08731 11.5606 7.40933 11.6227 7.7352 11.6361C11.3952 11.8078 12.1038 7.26 9.46273 5.93958C10.0857 5.85852 10.7166 6.0117 11.2331 6.36943C10.9105 5.80016 10.443 5.32645 9.87795 4.99647C9.31295 4.66648 8.67064 4.49199 8.01634 4.49072C7.92919 4.49072 7.84394 4.49792 7.75832 4.50379C7.02156 4.55431 6.31714 4.82571 5.73696 5.28259C5.84892 5.37732 5.97528 5.50386 6.24145 5.76624C6.73968 6.25709 8.01747 6.76555 8.02031 6.82523L8.02069 6.82674Z" fill="url(#paint5_radial_21654_2233)"/>
<path d="M5.3952 5.04019C5.45468 5.07808 5.50375 5.11104 5.54675 5.14078C5.37947 4.5552 5.37234 3.93547 5.5261 3.34619C4.84882 3.67427 4.24702 4.13938 3.75879 4.71207C3.79459 4.71113 4.85964 4.69199 5.3952 5.04019Z" fill="url(#paint6_radial_21654_2233)"/>
<path d="M0.73421 8.41234C1.30083 11.7598 4.33552 14.3173 7.77959 14.4139C10.9679 14.5041 13.0044 12.6532 13.8456 10.8486C14.5582 9.28796 14.64 7.5123 14.074 5.89275V5.88574C14.074 5.88024 14.0729 5.87702 14.074 5.87873L14.0753 5.89104C14.3358 7.59167 13.4708 9.2385 12.1184 10.3543L12.1142 10.3638C9.47908 12.5102 6.9576 11.6584 6.448 11.311C6.41238 11.294 6.37677 11.2762 6.34115 11.2578C4.80496 10.5235 4.17014 9.12464 4.30653 7.92357C3.94188 7.92895 3.58348 7.82847 3.27478 7.63429C2.96608 7.44011 2.72031 7.16057 2.56726 6.82954C2.97055 6.5825 3.43037 6.44284 3.90293 6.42387C4.37549 6.4049 4.84503 6.50725 5.26682 6.72118C6.13623 7.11581 7.12551 7.1547 8.02322 6.82954C8.02037 6.76987 6.74258 6.26121 6.24435 5.77055C5.97818 5.50818 5.85182 5.38182 5.73986 5.28691C5.67935 5.23566 5.61611 5.18772 5.55042 5.14331C5.50684 5.11357 5.45778 5.08136 5.39886 5.04271C4.86331 4.69452 3.79826 4.71365 3.76302 4.7146H3.75961C3.46863 4.34575 3.48909 3.12953 3.50576 2.87549C3.41968 2.91008 3.3375 2.95371 3.26062 3.00564C3.00374 3.18897 2.7636 3.39468 2.54301 3.62038C2.29074 3.87452 2.0602 4.14935 1.85382 4.44199V4.44313V4.4418C1.38183 5.11084 1.04702 5.86674 0.868715 6.66586C0.865115 6.68083 0.604252 7.82127 0.732884 8.41271L0.73421 8.41234Z" fill="url(#paint7_radial_21654_2233)"/>
<path d="M10.598 5.5137C10.8661 5.77697 11.0957 6.07672 11.28 6.40409C11.3204 6.43459 11.3581 6.4649 11.3901 6.49426C13.0547 8.02875 12.1825 10.1979 12.1176 10.3513C13.4698 9.2372 14.334 7.58924 14.0745 5.88804C13.244 3.81743 11.8353 2.98199 10.6873 1.16523C10.6291 1.07335 10.5709 0.981284 10.5143 0.884099C10.4819 0.828593 10.456 0.77858 10.4334 0.732545C10.3857 0.640202 10.349 0.542611 10.3239 0.44175C10.3239 0.437096 10.3223 0.432592 10.3192 0.429098C10.3161 0.425604 10.3119 0.423364 10.3072 0.422806C10.3027 0.421565 10.2979 0.421565 10.2934 0.422806C10.2925 0.422806 10.291 0.424511 10.2898 0.42489C10.2887 0.425269 10.2862 0.426974 10.2845 0.427732C10.0005 0.562425 8.3162 3.22959 10.599 5.51048L10.598 5.5137Z" fill="url(#paint8_radial_21654_2233)"/>
<path d="M11.3898 6.49516C11.3578 6.46579 11.3201 6.43548 11.2798 6.40498C11.2648 6.39381 11.25 6.38263 11.2341 6.37145C10.7177 6.01373 10.0868 5.86054 9.46378 5.94161C12.1046 7.26202 11.3961 11.8087 7.73625 11.6382C7.41038 11.6248 7.08835 11.5626 6.78089 11.4538C6.70903 11.4269 6.63716 11.3975 6.5653 11.3655C6.52381 11.3466 6.48233 11.3277 6.44141 11.3064L6.44652 11.3097C6.95688 11.658 9.47761 12.5092 12.1128 10.3624L12.1169 10.353C12.1827 10.1995 13.0549 8.0304 11.3895 6.49591L11.3898 6.49516Z" fill="url(#paint9_radial_21654_2233)"/>
<path d="M4.71163 8.90092C4.71163 8.90092 5.05054 7.6379 7.13839 7.6379C7.36402 7.6379 8.00983 7.008 8.02138 6.82538C7.12368 7.15054 6.1344 7.11165 5.26499 6.71702C4.8432 6.5031 4.37366 6.40074 3.9011 6.41971C3.42854 6.43868 2.96872 6.57834 2.56543 6.82538C2.71848 7.15641 2.96425 7.43595 3.27295 7.63013C3.58165 7.82431 3.94005 7.9248 4.3047 7.91941C4.16868 9.11991 4.80332 10.5186 6.33932 11.2536C6.37361 11.2701 6.40582 11.2879 6.44105 11.3036C5.54442 10.8404 4.80408 9.96445 4.71163 8.90149V8.90092Z" fill="url(#paint10_radial_21654_2233)"/>
<path d="M14.8031 5.50784C14.484 4.74022 13.8369 3.9114 13.3301 3.64941C13.6915 4.34919 13.9423 5.10071 14.0737 5.87725L14.075 5.88957C13.2449 3.82085 11.8377 2.98541 10.6878 1.16865C10.6296 1.07677 10.5715 0.984702 10.5148 0.887517C10.4824 0.832011 10.4565 0.781998 10.4339 0.735963C10.3863 0.64362 10.3495 0.546028 10.3244 0.445168C10.3245 0.440514 10.3228 0.43601 10.3197 0.432516C10.3166 0.429022 10.3124 0.426782 10.3078 0.426224C10.3032 0.424983 10.2985 0.424983 10.2939 0.426224C10.293 0.426224 10.2915 0.427929 10.2903 0.428308C10.2892 0.428687 10.2867 0.430392 10.285 0.43115L10.2879 0.426224C8.44365 1.50605 7.81754 3.50467 7.76071 4.50493C7.84634 4.49906 7.93121 4.49186 8.01873 4.49186C8.67304 4.49312 9.31534 4.66762 9.88034 4.9976C10.4453 5.32759 10.9129 5.80129 11.2355 6.37056C10.719 6.01284 10.0881 5.85965 9.46513 5.94072C12.106 7.26113 11.3974 11.8078 7.7376 11.6373C7.41173 11.6239 7.0897 11.5617 6.78224 11.4529C6.71037 11.426 6.63851 11.3966 6.56665 11.3647C6.52516 11.3457 6.48368 11.3268 6.44276 11.3055L6.44787 11.3088C6.41226 11.2917 6.37664 11.274 6.34102 11.2555C6.37531 11.272 6.40752 11.2898 6.44276 11.3055C5.54612 10.8422 4.80578 9.96619 4.71333 8.90341C4.71333 8.90341 5.05224 7.6404 7.14009 7.6404C7.36572 7.6404 8.01153 7.0105 8.02309 6.82788C8.02025 6.7682 6.74245 6.25955 6.24422 5.76889C5.97805 5.50651 5.85169 5.38016 5.73973 5.28524C5.67922 5.23399 5.61598 5.18606 5.55029 5.14165C5.38301 4.55606 5.37588 3.93633 5.52964 3.34705C4.85236 3.67513 4.25056 4.14024 3.76233 4.71294H3.75892C3.46793 4.34409 3.48839 3.12787 3.50507 2.87383C3.41898 2.90842 3.33681 2.95205 3.25993 3.00397C3.00305 3.1873 2.76291 3.39302 2.54232 3.61872C2.29094 3.87357 2.06136 4.14904 1.85597 4.44222V4.44336V4.44203C1.38397 5.11107 1.04917 5.86697 0.870862 6.66609L0.861011 6.71459C0.847182 6.77919 0.785234 7.10731 0.77633 7.17778C0.719668 7.51648 0.683482 7.85828 0.667969 8.20134V8.23923C0.671214 10.0765 1.36315 11.8459 2.60717 13.198C3.8512 14.5501 5.55692 15.3867 7.38762 15.5426C9.21831 15.6985 11.0409 15.1624 12.4957 14.0402C13.9505 12.918 14.9317 11.2911 15.2456 9.48083C15.2579 9.38611 15.268 9.29234 15.2789 9.19667C15.4302 7.94671 15.2665 6.67877 14.8027 5.50822L14.8031 5.50784ZM14.0747 5.88502L14.076 5.89279L14.0747 5.88502Z" fill="url(#paint11_linear_21654_2233)"/>
</g>
<defs>
<linearGradient id="paint0_linear_21654_2233" x1="13.8316" y1="2.77151" x2="1.64228" y2="14.5321" gradientUnits="userSpaceOnUse">
<stop offset="0.048" stop-color="#FFF44F"/>
<stop offset="0.111" stop-color="#FFE847"/>
<stop offset="0.225" stop-color="#FFC830"/>
<stop offset="0.368" stop-color="#FF980E"/>
<stop offset="0.401" stop-color="#FF8B16"/>
<stop offset="0.462" stop-color="#FF672A"/>
<stop offset="0.534" stop-color="#FF3647"/>
<stop offset="0.705" stop-color="#E31587"/>
</linearGradient>
<radialGradient id="paint1_radial_21654_2233" cx="0" cy="0" r="1" gradientUnits="userSpaceOnUse" gradientTransform="translate(13.3593 2.13008) scale(15.307 15.307)">
<stop offset="0.129" stop-color="#FFBD4F"/>
<stop offset="0.186" stop-color="#FFAC31"/>
<stop offset="0.247" stop-color="#FF9D17"/>
<stop offset="0.283" stop-color="#FF980E"/>
<stop offset="0.403" stop-color="#FF563B"/>
<stop offset="0.467" stop-color="#FF3750"/>
<stop offset="0.71" stop-color="#F5156C"/>
<stop offset="0.782" stop-color="#EB0878"/>
<stop offset="0.86" stop-color="#E50080"/>
</radialGradient>
<radialGradient id="paint2_radial_21654_2233" cx="0" cy="0" r="1" gradientUnits="userSpaceOnUse" gradientTransform="translate(7.67606 8.3817) scale(15.307 15.307)">
<stop offset="0.3" stop-color="#960E18"/>
<stop offset="0.351" stop-color="#B11927" stop-opacity="0.74"/>
<stop offset="0.435" stop-color="#DB293D" stop-opacity="0.343"/>
<stop offset="0.497" stop-color="#F5334B" stop-opacity="0.094"/>
<stop offset="0.53" stop-color="#FF3750" stop-opacity="0"/>
</radialGradient>
<radialGradient id="paint3_radial_21654_2233" cx="0" cy="0" r="1" gradientUnits="userSpaceOnUse" gradientTransform="translate(9.57122 -1.27969) scale(11.0881 11.0881)">
<stop offset="0.132" stop-color="#FFF44F"/>
<stop offset="0.252" stop-color="#FFDC3E"/>
<stop offset="0.506" stop-color="#FF9D12"/>
<stop offset="0.526" stop-color="#FF980E"/>
</radialGradient>
<radialGradient id="paint4_radial_21654_2233" cx="0" cy="0" r="1" gradientUnits="userSpaceOnUse" gradientTransform="translate(5.97092 12.3604) scale(7.28787)">
<stop offset="0.353" stop-color="#3A8EE6"/>
<stop offset="0.472" stop-color="#5C79F0"/>
<stop offset="0.669" stop-color="#9059FF"/>
<stop offset="1" stop-color="#C139E6"/>
</radialGradient>
<radialGradient id="paint5_radial_21654_2233" cx="0" cy="0" r="1" gradientUnits="userSpaceOnUse" gradientTransform="translate(8.41625 7.06809) rotate(-13.5916) scale(3.86465 4.52454)">
<stop offset="0.206" stop-color="#9059FF" stop-opacity="0"/>
<stop offset="0.278" stop-color="#8C4FF3" stop-opacity="0.064"/>
<stop offset="0.747" stop-color="#7716A8" stop-opacity="0.45"/>
<stop offset="0.975" stop-color="#6E008B" stop-opacity="0.6"/>
</radialGradient>
<radialGradient id="paint6_radial_21654_2233" cx="0" cy="0" r="1" gradientUnits="userSpaceOnUse" gradientTransform="translate(7.48665 1.56202) scale(5.24378)">
<stop stop-color="#FFE226"/>
<stop offset="0.121" stop-color="#FFDB27"/>
<stop offset="0.295" stop-color="#FFC82A"/>
<stop offset="0.502" stop-color="#FFA930"/>
<stop offset="0.732" stop-color="#FF7E37"/>
<stop offset="0.792" stop-color="#FF7139"/>
</radialGradient>
<radialGradient id="paint7_radial_21654_2233" cx="0" cy="0" r="1" gradientUnits="userSpaceOnUse" gradientTransform="translate(11.6548 -1.84789) scale(22.3732)">
<stop offset="0.113" stop-color="#FFF44F"/>
<stop offset="0.456" stop-color="#FF980E"/>
<stop offset="0.622" stop-color="#FF5634"/>
<stop offset="0.716" stop-color="#FF3647"/>
<stop offset="0.904" stop-color="#E31587"/>
</radialGradient>
<radialGradient id="paint8_radial_21654_2233" cx="0" cy="0" r="1" gradientUnits="userSpaceOnUse" gradientTransform="translate(9.79556 -0.607574) rotate(83.976) scale(16.3954 10.7602)">
<stop stop-color="#FFF44F"/>
<stop offset="0.06" stop-color="#FFE847"/>
<stop offset="0.168" stop-color="#FFC830"/>
<stop offset="0.304" stop-color="#FF980E"/>
<stop offset="0.356" stop-color="#FF8B16"/>
<stop offset="0.455" stop-color="#FF672A"/>
<stop offset="0.57" stop-color="#FF3647"/>
<stop offset="0.737" stop-color="#E31587"/>
</radialGradient>
<radialGradient id="paint9_radial_21654_2233" cx="0" cy="0" r="1" gradientUnits="userSpaceOnUse" gradientTransform="translate(7.48732 3.45649) scale(13.9657 13.9657)">
<stop offset="0.137" stop-color="#FFF44F"/>
<stop offset="0.48" stop-color="#FF980E"/>
<stop offset="0.592" stop-color="#FF5634"/>
<stop offset="0.655" stop-color="#FF3647"/>
<stop offset="0.904" stop-color="#E31587"/>
</radialGradient>
<radialGradient id="paint10_radial_21654_2233" cx="0" cy="0" r="1" gradientUnits="userSpaceOnUse" gradientTransform="translate(11.0864 4.2141) scale(15.2861 15.2861)">
<stop offset="0.094" stop-color="#FFF44F"/>
<stop offset="0.231" stop-color="#FFE141"/>
<stop offset="0.509" stop-color="#FFAF1E"/>
<stop offset="0.626" stop-color="#FF980E"/>
</radialGradient>
<linearGradient id="paint11_linear_21654_2233" x1="13.6835" y1="2.70899" x2="3.31335" y2="13.081" gradientUnits="userSpaceOnUse">
<stop offset="0.167" stop-color="#FFF44F" stop-opacity="0.8"/>
<stop offset="0.266" stop-color="#FFF44F" stop-opacity="0.634"/>
<stop offset="0.489" stop-color="#FFF44F" stop-opacity="0.217"/>
<stop offset="0.6" stop-color="#FFF44F" stop-opacity="0"/>
</linearGradient>
<clipPath id="clip0_21654_2233">
<rect width="16" height="16" fill="white"/>
</clipPath>
</defs>
</svg>
