<svg xmlns="http://www.w3.org/2000/svg" width="16" height="16" fill="none" viewBox="0 0 16 16"><g clip-path="url(#a)"><path fill="url(#b)" d="M14.8034 5.5078c-.319-.7676-.9661-1.5964-1.4729-1.8584a7.63 7.63 0 0 1 .7436 2.2279l.0013.0123c-.8301-2.0687-2.2373-2.9042-3.3872-4.721a9 9 0 0 1-.173-.281 2.3 2.3 0 0 1-.0809-.1516 1.34 1.34 0 0 1-.1095-.2908.019.019 0 0 0-.0167-.019.026.026 0 0 0-.0138 0c-.0009 0-.0024.0017-.0036.0021-.0011.0004-.0036.002-.0053.0028l.0029-.0049C8.444 1.5061 7.8179 3.5047 7.7611 4.505a3.673 3.673 0 0 0-2.0214.7788 2.2 2.2 0 0 0-.1894-.1436 3.404 3.404 0 0 1-.0207-1.7946 5.44 5.44 0 0 0-1.7673 1.366H3.759c-.291-.369-.2705-1.5851-.2538-1.8392a1.3 1.3 0 0 0-.2452.1302 5.35 5.35 0 0 0-.7176.6147 6.4 6.4 0 0 0-.6863.8235v.0011-.0013a6.2 6.2 0 0 0-.9851 2.224l-.0099.0486c-.0138.0646-.0636.3881-.0722.4584 0 .0055-.0011.0106-.0017.0161A7 7 0 0 0 .668 8.1998v.038a7.343 7.343 0 0 0 6.7196 7.3033 7.343 7.343 0 0 0 7.858-6.0618c.0123-.0947.0224-.1885.0333-.2842a7.55 7.55 0 0 0-.4762-3.6884zM6.341 11.2555c.0343.0165.0665.0343.1018.05l.005.0033a4 4 0 0 1-.1068-.0533m7.7346-5.3638v-.007l.0013.0077z"/><path fill="url(#c)" d="M14.8029 5.5079c-.319-.7677-.9662-1.5965-1.4729-1.8585a7.63 7.63 0 0 1 .7435 2.2279v.007l.0014.0077a6.65 6.65 0 0 1-.2285 4.9559c-.8415 1.8055-2.8776 3.6562-6.066 3.5653-3.444-.0976-6.4789-2.6541-7.0453-6.0016-.1033-.528 0-.7956.0519-1.2247A5.47 5.47 0 0 0 .669 8.2v.038a7.343 7.343 0 0 0 11.8277 5.8009 7.343 7.343 0 0 0 2.7499-4.5594c.0123-.0947.0223-.1885.0333-.2842a7.55 7.55 0 0 0-.4762-3.6884z"/><path fill="url(#d)" d="M14.8029 5.5079c-.319-.7677-.9662-1.5965-1.4729-1.8585a7.63 7.63 0 0 1 .7435 2.2279v.007l.0014.0077a6.65 6.65 0 0 1-.2285 4.9559c-.8415 1.8055-2.8776 3.6562-6.066 3.5653-3.444-.0976-6.4789-2.6541-7.0453-6.0016-.1033-.528 0-.7956.0519-1.2247A5.47 5.47 0 0 0 .669 8.2v.038a7.343 7.343 0 0 0 11.8277 5.8009 7.343 7.343 0 0 0 2.7499-4.5594c.0123-.0947.0223-.1885.0333-.2842a7.55 7.55 0 0 0-.4762-3.6884z"/><path fill="url(#e)" d="M11.2345 6.37c.0159.0112.0307.0224.0457.0335a4 4 0 0 0-.682-.8894C8.3154 3.2313 10.0001.566 10.2841.4295l.0028-.0042C8.4427 1.505 7.8166 3.5037 7.7598 4.504c.0856-.0059.1705-.013.258-.013a3.706 3.706 0 0 1 3.2167 1.8786z"/><path fill="url(#f)" d="M8.0207 6.8267c-.0121.1827-.6574.8126-.883.8126-2.0877 0-2.4268 1.263-2.4268 1.263.0925 1.0635.8336 1.9399 1.7295 2.4021.0409.0212.0824.0404.1239.0591q.1077.0478.2155.0883c.3075.1088.6295.1709.9554.1843 3.66.1717 4.3686-4.3761 1.7275-5.6965a2.535 2.535 0 0 1 1.7704.4298 3.705 3.705 0 0 0-3.2168-1.8787c-.0871 0-.1724.0072-.258.013a3.673 3.673 0 0 0-2.0213.7789c.112.0947.2383.2213.5045.4836.4982.4909 1.776.9993 1.7788 1.059z"/><path fill="url(#g)" d="M8.0207 6.8267c-.0121.1827-.6574.8126-.883.8126-2.0877 0-2.4268 1.263-2.4268 1.263.0925 1.0635.8336 1.9399 1.7295 2.4021.0409.0212.0824.0404.1239.0591q.1077.0478.2155.0883c.3075.1088.6295.1709.9554.1843 3.66.1717 4.3686-4.3761 1.7275-5.6965a2.535 2.535 0 0 1 1.7704.4298 3.705 3.705 0 0 0-3.2168-1.8787c-.0871 0-.1724.0072-.258.013a3.673 3.673 0 0 0-2.0213.7789c.112.0947.2383.2213.5045.4836.4982.4909 1.776.9993 1.7788 1.059z"/><path fill="url(#h)" d="M5.3952 5.0402a5 5 0 0 1 .1516.1006 3.404 3.404 0 0 1-.0207-1.7946A5.44 5.44 0 0 0 3.7588 4.712c.0358-.001 1.1008-.0201 1.6364.328"/><path fill="url(#i)" d="M.7342 8.4123c.5666 3.3475 3.6013 5.905 7.0454 6.0016 3.1883.0902 5.2248-1.7607 6.066-3.5653a6.65 6.65 0 0 0 .2284-4.9558v-.007c0-.0056-.0011-.0088 0-.007l.0013.0122c.2605 1.7007-.6045 3.3475-1.9569 4.4633l-.0042.0095c-2.6351 2.1464-5.1566 1.2946-5.6662.9472a4 4 0 0 1-.1069-.0532c-1.5361-.7343-2.171-2.1332-2.0346-3.3342a1.886 1.886 0 0 1-1.7392-1.094 2.77 2.77 0 0 1 2.6995-.1084 3.656 3.656 0 0 0 2.7564.1083c-.0028-.0596-1.2806-.5683-1.7788-1.059-.2662-.2623-.3926-.3887-.5045-.4836a2.2 2.2 0 0 0-.1895-.1436 10 10 0 0 0-.1515-.1006c-.5356-.3482-1.6006-.329-1.6359-.3281h-.0034c-.291-.3689-.2705-1.585-.2538-1.8391a1.3 1.3 0 0 0-.2452.1301 5.35 5.35 0 0 0-.7176.6148 6.4 6.4 0 0 0-.6892.8216v.0011-.0013a6.2 6.2 0 0 0-.985 2.224c-.0037.015-.2645 1.1555-.136 1.747z"/><path fill="url(#j)" d="M10.598 5.5137a4 4 0 0 1 .682.8904 1.5 1.5 0 0 1 .1101.0902c1.6646 1.5345.7924 3.7036.7275 3.857 1.3522-1.1141 2.2164-2.762 1.9569-4.4633-.8305-2.0706-2.2392-2.906-3.3872-4.7228a9 9 0 0 1-.173-.2811 2.3 2.3 0 0 1-.0809-.1516 1.34 1.34 0 0 1-.1095-.2908.019.019 0 0 0-.0167-.0189.026.026 0 0 0-.0138 0c-.0009 0-.0024.0017-.0036.002-.0011.0005-.0036.0022-.0053.003-.284.1346-1.9683 2.8018.3145 5.0827z"/><path fill="url(#k)" d="M11.3898 6.4952a1.5 1.5 0 0 0-.11-.0902c-.015-.0112-.0298-.0224-.0457-.0335a2.535 2.535 0 0 0-1.7703-.4299c2.6408 1.3204 1.9323 5.8671-1.7276 5.6966a3.27 3.27 0 0 1-.9553-.1844 4 4 0 0 1-.2156-.0883 2.6 2.6 0 0 1-.1239-.0591l.0051.0033c.5104.3483 3.0311 1.1995 5.6663-.9473l.0041-.0094c.0658-.1535.938-2.3226-.7274-3.857z"/><path fill="url(#l)" d="M4.7116 8.901s.339-1.2631 2.4268-1.2631c.2256 0 .8714-.6299.883-.8125A3.656 3.656 0 0 1 5.265 6.717a2.77 2.77 0 0 0-2.6996.1084 1.886 1.886 0 0 0 1.7393 1.094c-.136 1.2005.4986 2.5992 2.0346 3.3342.0343.0165.0665.0343.1018.05-.8967-.4632-1.637-1.3391-1.7295-2.4021z"/><path fill="url(#m)" d="M14.8031 5.5078c-.3191-.7676-.9662-1.5964-1.473-1.8584a7.63 7.63 0 0 1 .7436 2.2279l.0013.0123c-.8301-2.0687-2.2373-2.9042-3.3872-4.721a9 9 0 0 1-.173-.281 2.3 2.3 0 0 1-.0809-.1516 1.34 1.34 0 0 1-.1095-.2908.019.019 0 0 0-.0166-.019.026.026 0 0 0-.0139 0c-.0009 0-.0024.0017-.0036.0021-.0011.0004-.0036.002-.0053.0028l.0029-.0049C8.4436 1.5061 7.8175 3.5047 7.7607 4.505c.0856-.0058.1705-.013.258-.013a3.706 3.706 0 0 1 3.2168 1.8787 2.535 2.535 0 0 0-1.7704-.4299c2.6409 1.3204 1.9323 5.8671-1.7275 5.6966a3.27 3.27 0 0 1-.9554-.1844 4 4 0 0 1-.2155-.0882c-.0415-.019-.083-.0379-.124-.0592l.0052.0033a4 4 0 0 1-.1069-.0533c.0343.0165.0665.0343.1018.05-.8967-.4633-1.637-1.3393-1.7295-2.402 0 0 .339-1.2631 2.4268-1.2631.2256 0 .8714-.6299.883-.8125-.0028-.0597-1.2806-.5683-1.7789-1.059-.2662-.2624-.3925-.3887-.5045-.4837a2.2 2.2 0 0 0-.1894-.1435 3.404 3.404 0 0 1-.0207-1.7947 5.44 5.44 0 0 0-1.7673 1.366H3.759c-.291-.369-.2705-1.5851-.2538-1.8392a1.3 1.3 0 0 0-.2452.1302 5.35 5.35 0 0 0-.7176.6147 6.4 6.4 0 0 0-.6863.8235v.0012-.0014a6.2 6.2 0 0 0-.9851 2.224l-.0099.0486c-.0138.0646-.0758.3927-.0847.4632A8.5 8.5 0 0 0 .668 8.2013v.038a7.343 7.343 0 0 0 6.7196 7.3033 7.343 7.343 0 0 0 7.858-6.0618c.0123-.0947.0224-.1885.0333-.2841a7.55 7.55 0 0 0-.4762-3.6885zm-.7284.3772.0013.0078z"/></g><defs><radialGradient id="c" cx="0" cy="0" r="1" gradientTransform="translate(13.36 2.13)scale(15.307)" gradientUnits="userSpaceOnUse"><stop offset="0" stop-color="#ffbd4f"/><stop offset="0" stop-color="#ffac31"/><stop offset="0" stop-color="#ff9d17"/><stop offset="0" stop-color="#ff980e"/><stop offset="0" stop-color="#ff563b"/><stop offset="0" stop-color="#ff3750"/><stop offset="1" stop-color="#f5156c"/><stop offset="1" stop-color="#eb0878"/><stop offset="1" stop-color="#e50080"/></radialGradient><radialGradient id="d" cx="0" cy="0" r="1" gradientTransform="translate(7.676 8.382)scale(15.307)" gradientUnits="userSpaceOnUse"><stop offset="0" stop-color="#960e18"/><stop offset="0" stop-color="#b11927"/><stop offset="0" stop-color="#db293d" stop-opacity="0"/><stop offset="0" stop-color="#f5334b" stop-opacity="0"/><stop offset="1" stop-color="#ff3750" stop-opacity="0"/></radialGradient><radialGradient id="e" cx="0" cy="0" r="1" gradientTransform="translate(9.571 -1.28)scale(11.0881)" gradientUnits="userSpaceOnUse"><stop offset="0" stop-color="#fff44f"/><stop offset="0" stop-color="#ffdc3e"/><stop offset="1" stop-color="#ff9d12"/><stop offset="1" stop-color="#ff980e"/></radialGradient><radialGradient id="f" cx="0" cy="0" r="1" gradientTransform="translate(5.97 12.36)scale(7.28787)" gradientUnits="userSpaceOnUse"><stop offset="0" stop-color="#3a8ee6"/><stop offset="0" stop-color="#5c79f0"/><stop offset="1" stop-color="#9059ff"/><stop offset="1" stop-color="#c139e6"/></radialGradient><radialGradient id="g" cx="0" cy="0" r="1" gradientTransform="matrix(3.75642 -.90819 1.06277 4.39795 8.416 7.068)" gradientUnits="userSpaceOnUse"><stop offset="0" stop-color="#9059ff" stop-opacity="0"/><stop offset="0" stop-color="#8c4ff3" stop-opacity="0"/><stop offset="1" stop-color="#7716a8" stop-opacity="0"/><stop offset="1" stop-color="#6e008b"/></radialGradient><radialGradient id="h" cx="0" cy="0" r="1" gradientTransform="translate(7.487 1.562)scale(5.24378)" gradientUnits="userSpaceOnUse"><stop stop-color="#ffe226"/><stop offset="0" stop-color="#ffdb27"/><stop offset="0" stop-color="#ffc82a"/><stop offset="1" stop-color="#ffa930"/><stop offset="1" stop-color="#ff7e37"/><stop offset="1" stop-color="#ff7139"/></radialGradient><radialGradient id="i" cx="0" cy="0" r="1" gradientTransform="translate(11.655 -1.848)scale(22.3732)" gradientUnits="userSpaceOnUse"><stop offset="0" stop-color="#fff44f"/><stop offset="0" stop-color="#ff980e"/><stop offset="1" stop-color="#ff5634"/><stop offset="1" stop-color="#ff3647"/><stop offset="1" stop-color="#e31587"/></radialGradient><radialGradient id="j" cx="0" cy="0" r="1" gradientTransform="matrix(1.72062 16.3049 -10.7006 1.13069 9.796 -.608)" gradientUnits="userSpaceOnUse"><stop stop-color="#fff44f"/><stop offset="0" stop-color="#ffe847"/><stop offset="0" stop-color="#ffc830"/><stop offset="0" stop-color="#ff980e"/><stop offset="0" stop-color="#ff8b16"/><stop offset="0" stop-color="#ff672a"/><stop offset="1" stop-color="#ff3647"/><stop offset="1" stop-color="#e31587"/></radialGradient><radialGradient id="k" cx="0" cy="0" r="1" gradientTransform="translate(7.487 3.456)scale(13.9657)" gradientUnits="userSpaceOnUse"><stop offset="0" stop-color="#fff44f"/><stop offset="0" stop-color="#ff980e"/><stop offset="1" stop-color="#ff5634"/><stop offset="1" stop-color="#ff3647"/><stop offset="1" stop-color="#e31587"/></radialGradient><radialGradient id="l" cx="0" cy="0" r="1" gradientTransform="translate(11.086 4.214)scale(15.2861)" gradientUnits="userSpaceOnUse"><stop offset="0" stop-color="#fff44f"/><stop offset="0" stop-color="#ffe141"/><stop offset="1" stop-color="#ffaf1e"/><stop offset="1" stop-color="#ff980e"/></radialGradient><linearGradient id="b" x1="14" x2="2" y1="3" y2="15" gradientUnits="userSpaceOnUse"><stop offset="0" stop-color="#fff44f"/><stop offset="0" stop-color="#ffe847"/><stop offset="0" stop-color="#ffc830"/><stop offset="0" stop-color="#ff980e"/><stop offset="0" stop-color="#ff8b16"/><stop offset="0" stop-color="#ff672a"/><stop offset="1" stop-color="#ff3647"/><stop offset="1" stop-color="#e31587"/></linearGradient><linearGradient id="m" x1="14" x2="3" y1="3" y2="13" gradientUnits="userSpaceOnUse"><stop offset="0" stop-color="#fff44f"/><stop offset="0" stop-color="#fff44f"/><stop offset="0" stop-color="#fff44f" stop-opacity="0"/><stop offset="1" stop-color="#fff44f" stop-opacity="0"/></linearGradient><clipPath id="a"><path fill="#fff" d="M0 0h16v16H0z"/></clipPath></defs></svg>