<svg width="16" height="16" viewBox="0 0 16 16" fill="none" xmlns="http://www.w3.org/2000/svg">
<path d="M1.0001 2.3501C1.35908 2.3501 1.6501 2.64111 1.6501 3.0001V13.0001C1.6501 13.3591 1.35908 13.6501 1.0001 13.6501C0.641113 13.6501 0.350098 13.3591 0.350098 13.0001V3.0001C0.350098 2.64111 0.641113 2.3501 1.0001 2.3501Z" fill="black"/>
<path d="M5.45971 5.54048C5.71355 5.79432 5.71355 6.20588 5.45971 6.45972L4.56934 7.35009L11.4309 7.35009L10.5405 6.45972C10.2866 6.20588 10.2866 5.79432 10.5405 5.54048C10.7943 5.28664 11.2059 5.28664 11.4597 5.54048L13.4597 7.54048C13.7136 7.79432 13.7136 8.20588 13.4597 8.45972L11.4597 10.4597C11.2059 10.7136 10.7943 10.7136 10.5405 10.4597C10.2866 10.2059 10.2866 9.79432 10.5405 9.54048L11.4309 8.65009L4.56933 8.65009L5.45972 9.54048C5.71356 9.79432 5.71356 10.2059 5.45972 10.4597C5.20588 10.7136 4.79432 10.7136 4.54048 10.4597L2.54048 8.45972C2.28664 8.20587 2.28664 7.79432 2.54048 7.54048L4.54047 5.54048C4.79431 5.28664 5.20587 5.28664 5.45971 5.54048Z" fill="black"/>
<path d="M15.6501 3.0001C15.6501 2.64111 15.3591 2.3501 15.0001 2.3501C14.6411 2.3501 14.3501 2.64111 14.3501 3.0001V13.0001C14.3501 13.3591 14.6411 13.6501 15.0001 13.6501C15.3591 13.6501 15.6501 13.3591 15.6501 13.0001V3.0001Z" fill="black"/>
</svg>
