<svg xmlns="http://www.w3.org/2000/svg" width="16" height="16" fill="none" viewBox="0 0 16 16"><path fill="#000" fill-rule="evenodd" d="M5.6667 1.35c-.9113 0-1.65.7387-1.65 1.65v3.1454c-.7788.2906-1.3334 1.0412-1.3334 1.9213V12.6c0 1.1322.9178 2.05 2.05 2.05h6.5334c1.1321 0 2.05-.9178 2.05-2.05V8.0667c0-.8801-.5546-1.6307-1.3334-1.9213V3c0-.9112-.7387-1.65-1.65-1.65zm5.0166 4.6667V3a.35.35 0 0 0-.35-.35H5.6667a.35.35 0 0 0-.35.35v3.0167zM7.3167 4a.65.65 0 0 0-1.3 0v.6667a.65.65 0 1 0 1.3 0zm2.6666 0a.65.65 0 0 0-1.3 0v.6667a.65.65 0 1 0 1.3 0zM4.7294 7.3167h6.5412a.75.75 0 0 1 .7461.75V12.6a.75.75 0 0 1-.75.75H4.7333a.75.75 0 0 1-.75-.75V8.0667a.75.75 0 0 1 .7461-.75"/></svg>