<svg width="16" height="16" viewBox="0 0 16 16" fill="none" xmlns="http://www.w3.org/2000/svg">
<path d="M7.31644 3.99998C7.31644 3.64099 7.02542 3.34998 6.66644 3.34998C6.30745 3.34998 6.01644 3.64099 6.01644 3.99998V4.66664C6.01644 5.02563 6.30745 5.31664 6.66644 5.31664C7.02542 5.31664 7.31644 5.02563 7.31644 4.66664V3.99998Z" fill="black"/>
<path d="M9.98311 3.99998C9.98311 3.64099 9.69209 3.34998 9.33311 3.34998C8.97412 3.34998 8.68311 3.64099 8.68311 3.99998V4.66664C8.68311 5.02563 8.97412 5.31664 9.33311 5.31664C9.69209 5.31664 9.98311 5.02563 9.98311 4.66664V3.99998Z" fill="black"/>
<path fill-rule="evenodd" clip-rule="evenodd" d="M4.01644 2.99997C4.01644 2.0887 4.75517 1.34998 5.66644 1.34998H10.3331C11.2444 1.34998 11.9831 2.08871 11.9831 2.99998V6.14539C12.7619 6.43601 13.3164 7.18656 13.3164 8.06663V12.6C13.3164 13.7321 12.3986 14.65 11.2664 14.65H4.7331C3.60092 14.65 2.68311 13.7321 2.68311 12.6V8.06663C2.68311 7.18656 3.23768 6.43601 4.01644 6.14539V2.99997ZM11.2704 7.31664H4.72919C4.31678 7.31875 3.98311 7.65373 3.98311 8.06663V12.6C3.98311 13.0142 4.31889 13.35 4.7331 13.35H11.2664C11.6807 13.35 12.0164 13.0142 12.0164 12.6V8.06663C12.0164 7.65372 11.6828 7.31875 11.2704 7.31664ZM10.6831 2.99998V6.01663H5.31644V2.99997C5.31644 2.80668 5.47314 2.64998 5.66644 2.64998H10.3331C10.5264 2.64998 10.6831 2.80668 10.6831 2.99998Z" fill="black"/>
</svg>
