<svg xmlns="http://www.w3.org/2000/svg" width="16" height="16" fill="none" viewBox="0 0 16 16"><path fill="#000" fill-rule="evenodd" d="M13.1788 10.4613q.5424-1.1834.5424-2.984V4.1321a.65.65 0 0 0-.0237-.1753.65.65 0 0 0-.0708-.1622.64.64 0 0 0-.2561-.2394l-4.61-2.393Q8.3805.965 8.0004.965t-.7602.1973l-4.61 2.393a.64.64 0 0 0-.256.2393.65.65 0 0 0-.071.1622.65.65 0 0 0-.0236.1753v.6833h1.3V4.527l4.2595-2.211q.0806-.042.1613-.0419.0806 0 .1612.0419l4.2596 2.211v2.9502q0 1.517-.4242 2.4424-.487 1.0625-1.2263 1.9028-.624.7092-1.4278 1.2603-.7561.5184-1.3549.7365-.5914-.1933-1.3369-.6892l-.9272.9272-.0078.0078q.0961.068.1945.1338 1.0526.7035 1.9265.9303a.64.64 0 0 0 .1759.0207.65.65 0 0 0 .175-.0275q.8543-.2574 1.89-.9674.9522-.6527 1.6881-1.4945.851-.9733 1.4127-2.1992m-9.424-2.7946H2c-.3733 0-.6666-.2933-.6666-.6667s.2933-.6666.6666-.6666h1.755c-.1502-.2557-.1145-.5833.107-.8048.264-.264.6788-.264.9428 0l1 1q.0976.0977.1464.2155A.66.66 0 0 1 6 7a.66.66 0 0 1-.0488.2559.66.66 0 0 1-.1464.2154l-1 1c-.264.264-.6789.264-.9429 0-.2214-.2214-.257-.549-.107-.8047m4 2.3333H6c-.3733 0-.6667-.2933-.6667-.6666 0-.3734.2934-.6667.6667-.6667h1.755c-.1502-.2557-.1145-.5833.107-.8048.264-.264.6788-.264.9428 0l1 1q.0976.0977.1464.2155a.66.66 0 0 1 .0488.256.66.66 0 0 1-.0488.2559.66.66 0 0 1-.1464.2155l-1 1c-.264.264-.6789.264-.9429 0-.2214-.2215-.257-.5491-.107-.8048M2 12.3334h1.755c-.1502.2556-.1145.5832.107.8047.264.264.6788.264.9428 0l1-1a.66.66 0 0 0 .1464-.2155A.66.66 0 0 0 6 11.6667a.66.66 0 0 0-.0488-.2559.66.66 0 0 0-.1464-.2155l-1-1c-.264-.264-.6789-.264-.9429 0-.2214.2214-.257.5491-.107.8047H2c-.3733 0-.6666.2934-.6666.6667s.2933.6667.6666.6667"/></svg>