<svg xmlns="http://www.w3.org/2000/svg" width="16" height="16" fill="none" viewBox="0 0 16 16"><path fill="#000" fill-rule="evenodd" d="M8.6501 1.3332a.65.65 0 0 0-1.3 0v3.3334a.65.65 0 1 0 1.3 0zm-3.3167.6835a.65.65 0 0 1 .65.65v2a.65.65 0 0 1-1.3 0v-2a.65.65 0 0 1 .65-.65m5.3334 0a.65.65 0 0 1 .65.65v2a.65.65 0 1 1-1.3 0v-2a.65.65 0 0 1 .65-.65m-6.5 4c-1.1874 0-2.15.9626-2.15 2.15v4.6849c0 1.1874.9626 2.15 2.15 2.15h7.6668c1.1874 0 2.15-.9626 2.15-2.15V8.1667c0-1.1874-.9626-2.15-2.15-2.15zm2.9821 4.0004L3.8845 7.3648a.85.85 0 0 1 .2824-.048h7.6667c.099 0 .194.0168.2823.048L8.8515 10.017a1.35 1.35 0 0 1-1.7026 0m2.5224 1.0089 3.0123-2.4475v4.2731a.85.85 0 0 1-.85.85H4.1669a.85.85 0 0 1-.85-.85v-4.273L6.329 11.026c.9736.7911 2.3686.7911 3.3422 0"/></svg>