<svg xmlns="http://www.w3.org/2000/svg" width="16" height="16" fill="none" viewBox="0 0 16 16"><path fill="#000" d="M8.0001.6834a.65.65 0 0 1 .65.65v3.3333a.65.65 0 0 1-1.3 0V1.3334a.65.65 0 0 1 .65-.65"/><path fill="#000" fill-rule="evenodd" d="M2.0168 8.1669c0-1.1875.9626-2.15 2.15-2.15h7.6668c1.1874 0 2.15.9625 2.15 2.15v4.6848c0 1.1875-.9626 2.15-2.15 2.15H4.1669c-1.1875 0-2.15-.9625-2.15-2.15zm1.8677-.802 3.2644 2.6523a1.35 1.35 0 0 0 1.7026 0l3.2644-2.6523a.85.85 0 0 0-.2823-.048H4.1669a.85.85 0 0 0-.2824.048m8.7991 1.2138-3.0123 2.4475c-.9736.791-2.3686.791-3.3422 0L3.3168 8.5787v4.273a.85.85 0 0 0 .85.85h7.6668a.85.85 0 0 0 .85-.85z" clip-rule="evenodd"/><path fill="#000" d="M11.317 2.667a.65.65 0 1 0-1.3 0v2a.65.65 0 0 0 1.3 0zm-5.984-.65a.65.65 0 0 1 .65.65v2a.65.65 0 0 1-1.3 0v-2a.65.65 0 0 1 .65-.65"/></svg>