<svg xmlns="http://www.w3.org/2000/svg" width="16" height="16" fill="none" viewBox="0 0 16 16"><path fill="#000" fill-rule="evenodd" d="M2.35 3.9452a.751.751 0 0 1 .7509-.7508h2.8473c.243 0 .476.0954.6492.2657l.9593.9432a.65.65 0 0 0 .4557.1866h4.8868a.751.751 0 0 1 .7508.7508v.5156a3.25 3.25 0 0 1 1.3.9917V5.3407c0-1.1327-.9181-2.0508-2.0508-2.0508H8.2785l-.7696-.7568a2.226 2.226 0 0 0-1.5606-.6387H3.1009c-1.1327 0-2.0508.9182-2.0508 2.0508v8.1095c0 1.1327.9181 2.0508 2.0508 2.0508h4.987a2.94 2.94 0 0 1-.2128-1.102v-.198H3.1009a.751.751 0 0 1-.7509-.7508zm10.0505 2.9612c-1.0704 0-1.9382.8677-1.9382 1.9381v.6766c-.7367.1652-1.2872.8233-1.2872 1.6099v1.8725c0 .9112.7387 1.65 1.65 1.65h3.1642c.9113 0 1.65-.7388 1.65-1.65V11.131c0-.7914-.5572-1.4526-1.3006-1.6129v-.6736c0-1.0704-.8678-1.9382-1.9382-1.9382m.6382 2.5747v-.6366a.6382.6382 0 0 0-1.2764 0v.6365zm-2.5636 1.6499a.35.35 0 0 1 .35-.35h3.1642a.35.35 0 0 1 .35.35v1.8725a.35.35 0 0 1-.35.35h-3.1642a.35.35 0 0 1-.35-.35z"/></svg>