<svg xmlns="http://www.w3.org/2000/svg" width="16" height="16" fill="none" viewBox="0 0 16 16"><path fill="#000" fill-rule="evenodd" d="M1.05 3.9452c0-1.1326.9182-2.0508 2.0509-2.0508h2.8473c.5839 0 1.1444.2294 1.5607.6387l.7696.7567h4.6207c1.1327 0 2.0508.9182 2.0508 2.0509v6.714c0 1.1327-.9181 2.0508-2.0508 2.0508H3.1009c-1.1327 0-2.0509-.9181-2.0509-2.0508zm2.0509-.7508a.751.751 0 0 0-.7509.7508v8.1095c0 .4147.3362.7508.7509.7508h9.7983a.7507.7507 0 0 0 .7508-.7508v-6.714a.751.751 0 0 0-.7508-.7508H8.0124a.65.65 0 0 1-.4557-.1866l-.9593-.9432a.926.926 0 0 0-.6492-.2657zM8 11.708a.65.65 0 0 0 .4797-.2114l1.4822-1.621a.65.65 0 1 0-.9595-.8773l-.3524.3855V6.353a.65.65 0 1 0-1.3 0v3.0308l-.3525-.3855a.65.65 0 1 0-.9595.8772l1.4822 1.6211A.65.65 0 0 0 8 11.708"/></svg>