<svg width="16" height="16" viewBox="0 0 16 16" fill="none" xmlns="http://www.w3.org/2000/svg">
<path d="M2.69043 1.69995H8.19843C9.54243 1.69995 10.5744 1.99995 11.2944 2.59995C12.0264 3.19995 12.3924 3.99795 12.3924 4.99395C12.3924 6.07395 11.9484 6.82995 11.0604 7.26195V7.62195C11.7804 7.82595 12.3324 8.17995 12.7164 8.68395C13.1124 9.18795 13.3104 9.81795 13.3104 10.574C13.3104 11.258 13.1544 11.882 12.8424 12.446C12.5304 13.01 12.0444 13.46 11.3844 13.796C10.7364 14.132 9.91443 14.3 8.91843 14.3H2.69043V1.69995ZM8.12643 6.59595C8.60643 6.59595 8.97243 6.49395 9.22443 6.28995C9.47643 6.07395 9.60243 5.77395 9.60243 5.38995C9.60243 5.00595 9.47643 4.71795 9.22443 4.52595C8.97243 4.32195 8.60643 4.21995 8.12643 4.21995H5.46243V6.59595H8.12643ZM8.88243 11.78C9.36243 11.78 9.75243 11.672 10.0524 11.456C10.3524 11.228 10.5024 10.892 10.5024 10.448C10.5024 10.004 10.3524 9.67395 10.0524 9.45795C9.75243 9.22995 9.36243 9.11595 8.88243 9.11595H5.46243V11.78H8.88243Z" fill="black"/>
</svg>
