<svg xmlns="http://www.w3.org/2000/svg" width="16" height="16" fill="none" viewBox="0 0 16 16"><path fill="#000" fill-rule="evenodd" d="M15 8c0-3.866-3.134-7-7-7S1 4.134 1 8s3.134 7 7 7 7-3.134 7-7M2.2998 8C2.2998 4.852 4.852 2.2998 8 2.2998S13.7002 4.852 13.7002 8 11.148 13.7002 8 13.7002 2.2998 11.148 2.2998 8m2.4629-2.8057a.6515.6515 0 0 1 .92 0l2.329 2.3301a.65.65 0 0 1 .1904.459.652.652 0 0 1-.1904.46l-2.329 2.3291a.651.651 0 0 1-.92 0 .6503.6503 0 0 1 0-.919l1.8701-1.8701-1.8701-1.8691a.651.651 0 0 1 0-.92m3.8818 0a.6513.6513 0 0 1 .92 0l2.3291 2.3301a.65.65 0 0 1 .1904.459.652.652 0 0 1-.1904.46l-2.3291 2.3291a.651.651 0 0 1-.92 0 .6506.6506 0 0 1 0-.919l1.8701-1.8701-1.87-1.8691a.651.651 0 0 1 0-.92"/></svg>