<svg xmlns="http://www.w3.org/2000/svg" width="16" height="16" fill="none" viewBox="0 0 16 16"><path fill="#000" fill-rule="evenodd" d="M3.65.9906C2.1864.9906 1 2.177 1 3.6406v5.6498c0 1.4636 1.1864 2.65 2.65 2.65h1.942v1.7689h-.8588a.65.65 0 1 0 0 1.3h6.5385a.65.65 0 0 0 0-1.3h-.859v-1.01a4.8 4.8 0 0 1-1.3-.1967v1.2066H6.892v-2.4688a.6.6 0 0 0-.6-.6H3.65c-.7456 0-1.35-.6044-1.35-1.35V3.6406c0-.7456.6044-1.35 1.35-1.35h8.7044c.7456 0 1.35.6044 1.35 1.35v.7045a4.806 4.806 0 0 1 1.3 1.9513V3.6406c0-1.4636-1.1864-2.65-2.65-2.65zm6.8286 3.409c-1.933 0-3.5001 1.567-3.5001 3.5s1.567 3.5001 3.5001 3.5001a3.484 3.484 0 0 0 1.9725-.6083l1.843 1.843a.65.65 0 0 0 .9192-.9193l-1.843-1.843a3.484 3.484 0 0 0 .6084-1.9725c0-1.933-1.5671-3.5-3.5001-3.5m-2.2001 3.5c0-1.215.985-2.2 2.2001-2.2s2.2001.985 2.2001 2.2-.985 2.2001-2.2001 2.2001-2.2001-.985-2.2001-2.2"/></svg>