<svg xmlns="http://www.w3.org/2000/svg" width="16" height="16" fill="none" viewBox="0 0 16 16"><path fill="#000" fill-rule="evenodd" d="M4.3582 2.436c-1.8272 0-3.3084 1.4813-3.3084 3.3084v4.7349c0 1.7035 1.381 3.0845 3.0845 3.0845.8731 0 1.6625-.3637 2.2228-.9461.2846-.2957.5525-.5613.8326-.7557.2754-.1911.5174-.281.748-.281h.1243c.2305 0 .4725.0899.7479.281.2801.1944.548.46.8326.7557.5603.5824 1.3497.9461 2.2228.9461 1.7035 0 3.0845-1.381 3.0845-3.0845V5.7444c0-1.8271-1.4812-3.3084-3.3084-3.3084zM2.3498 5.7444c0-1.1092.8992-2.0084 2.0084-2.0084h7.2832c1.1092 0 2.0084.8992 2.0084 2.0084v4.7349c0 .9856-.7989 1.7845-1.7845 1.7845a1.777 1.777 0 0 1-1.286-.5474c-.2827-.2937-.6302-.6462-1.0282-.9224-.4028-.2795-.9017-.513-1.4891-.513h-.1244c-.5874 0-1.0863.2335-1.4891.513-.398.2762-.7455.6287-1.0282.9224a1.778 1.778 0 0 1-1.286.5474c-.9856 0-1.7845-.7989-1.7845-1.7845zm9.0866.9643a.704.704 0 0 0 .7041-.7042.7041.7041 0 1 0-1.4083 0c0 .389.3152.7042.7042.7042M5.191 5.5586a.65.65 0 0 1 .65.65v.4443h.4443a.65.65 0 1 1 0 1.3H5.841v.4443a.65.65 0 0 1-1.3 0V7.953h-.4443a.65.65 0 1 1 0-1.3h.4443v-.4443a.65.65 0 0 1 .65-.65m5.5412 2.5477a.7042.7042 0 1 1-1.4084 0 .7042.7042 0 0 1 1.4084 0"/></svg>