<svg xmlns="http://www.w3.org/2000/svg" width="16" height="16" fill="none" viewBox="0 0 16 16"><path fill="#000" fill-rule="evenodd" d="M4.3281 4.7626c0-1.7 1.3781-3.078 3.078-3.078 1.7 0 3.0781 1.378 3.0781 3.078v2.5873h2.6463l-.8239-.824a.65.65 0 1 1 .9192-.9192l1.9314 1.9315a.647.647 0 0 1 .1828.3603.65.65 0 0 1 .0078.1014.648.648 0 0 1-.2245.4914l-1.8975 1.8975a.65.65 0 0 1-.9192-.9193l.8196-.8196h-2.642v2.5874c0 1.7-1.3781 3.078-3.078 3.078-1.7 0-3.078-1.378-3.078-3.078v-.3495a.65.65 0 1 1 1.3 0v.3495c0 .982.796 1.778 1.778 1.778s1.778-.796 1.778-1.778V4.7626c0-.982-.796-1.778-1.778-1.778s-1.778.796-1.778 1.778V5.02a.65.65 0 1 1-1.3 0zm3.5542 2.5873v1.3h-6.58a.65.65 0 1 1 0-1.3z"/></svg>