<svg xmlns="http://www.w3.org/2000/svg" width="16" height="16" fill="none" viewBox="0 0 16 16"><path fill="#000" fill-rule="evenodd" d="M6.2085 1.5525a.65.65 0 0 1 .644-.5618h2.2941a.65.65 0 0 1 .644.5615l.2127 1.5468c.2425.0992.4759.2159.6987.3484a.65.65 0 0 1 .2268.8903l-1.2834 2.163a.65.65 0 0 1-.8913.227 1.47 1.47 0 0 0-.7543-.2065c-.8167 0-1.4787.662-1.4787 1.4787s.662 1.4787 1.4787 1.4787S9.4784 8.8166 9.4785 8a.65.65 0 0 1 .65-.65h2.5146a.65.65 0 0 1 .65.65c0 .2423-.0163.481-.048.7152l1.2338.9581a.65.65 0 0 1 .1643.8384l-1.147 1.9868a.65.65 0 0 1-.8085.2768l-1.4467-.5902a5.3 5.3 0 0 1-1.2377.7156l-.2128 1.5472a.65.65 0 0 1-.6439.5614h-2.294a.65.65 0 0 1-.644-.5617l-.212-1.5468a5.3 5.3 0 0 1-1.238-.7157l-1.4463.5901a.65.65 0 0 1-.8085-.2768l-1.147-1.9868a.65.65 0 0 1 .1642-.8384l1.2335-.9578a5.3 5.3 0 0 1-.048-.7156c0-.242.0162-.4806.0478-.7146l-1.2341-.9575a.65.65 0 0 1-.1645-.8386l1.147-1.9867a.65.65 0 0 1 .8082-.277l1.447.5897a5.3 5.3 0 0 1 1.2387-.7162zm1.211.7382-.2439 1.7791-.3907.1247a3.99 3.99 0 0 0-1.472.851l-.3031.276-1.6646-.6783-.5802 1.005 1.419 1.1006-.0868.4002a4 4 0 0 0-.0907.8507c0 .2929.0314.5776.0908.8514l.0869.4-1.4181 1.1012.5802 1.0049 1.6638-.6788.3033.276a3.99 3.99 0 0 0 1.4715.8507l.3908.1246.244 1.7795H8.58l.2447-1.7797.3905-.1246a3.99 3.99 0 0 0 1.4712-.8506l.3033-.276 1.6642.679.5802-1.0049-1.4184-1.1014.0867-.4001a4 4 0 0 0 .0382-.201H10.702c-.2927 1.221-1.3915 2.1286-2.7022 2.1286-1.5347 0-2.7787-1.244-2.7787-2.7787 0-1.5346 1.244-2.7787 2.7787-2.7787.285 0 .5605.0431.82.1232l.6324-1.0657a4 4 0 0 0-.2371-.084L8.8246 4.07l-.2447-1.7793z"/></svg>