<svg xmlns="http://www.w3.org/2000/svg" width="16" height="16" fill="none" viewBox="0 0 16 16"><path fill="#000" fill-rule="evenodd" d="M4.35 4.15v1.5173c0 2.0159 1.6342 3.65 3.65 3.65s3.65-1.6341 3.65-3.65V4.15H12c.7456 0 1.35.6044 1.35 1.35v4.1966H10c-.9113 0-1.65.7387-1.65 1.65v3c0 .9113.7387 1.65 1.65 1.65h4c.9113 0 1.65-.7387 1.65-1.65v-3c0-.6805-.4119-1.2647-1-1.517V5.5c0-1.4636-1.1864-2.65-2.65-2.65h-.4419C11.187 1.2276 9.7348.0173 8.0001.0173c-1.735 0-3.187 1.2103-3.5582 2.8327H4c-1.4636 0-2.65 1.1864-2.65 2.65v4.3295c-.588.2523-1 .8365-1 1.517v3c0 .9113.7388 1.65 1.65 1.65h4c.9113 0 1.65-.7387 1.65-1.65v-3c0-.9113-.7387-1.65-1.65-1.65H2.65V5.5c0-.7457.6044-1.35 1.35-1.35zM8 1.3172c-1.2979 0-2.35 1.0522-2.35 2.35s1.0521 2.35 2.35 2.35 2.35-1.0521 2.35-2.35-1.0521-2.35-2.35-2.35m0 6.7c.9599 0 1.7853-.5755 2.1502-1.4002A3.634 3.634 0 0 1 8 7.3173a3.634 3.634 0 0 1-2.15-.7002c.3647.8247 1.19 1.4002 2.15 1.4002m-6.35 3.3292a.35.35 0 0 1 .35-.35h4a.35.35 0 0 1 .35.35v3a.35.35 0 0 1-.35.35H2a.35.35 0 0 1-.35-.35zm8.35-.35a.35.35 0 0 0-.35.35v3a.35.35 0 0 0 .35.35h4a.35.35 0 0 0 .35-.35v-3a.35.35 0 0 0-.35-.35zm-7.15 2.35a.65.65 0 0 1 .65-.65h1a.65.65 0 1 1 0 1.3h-1a.65.65 0 0 1-.65-.65m8.65-.65a.65.65 0 1 0 0 1.3h1a.65.65 0 1 0 0-1.3z"/></svg>