<svg width="16" height="16" viewBox="0 0 16 16" fill="none" xmlns="http://www.w3.org/2000/svg">
<path d="M7.33359 7.0001C7.33359 7.55238 6.88588 8.0001 6.33359 8.0001C5.78131 8.0001 5.33359 7.55238 5.33359 7.0001C5.33359 6.44781 5.78131 6.0001 6.33359 6.0001C6.88588 6.0001 7.33359 6.44781 7.33359 7.0001Z" fill="black"/>
<path d="M9.66697 8.0001C10.2193 8.0001 10.667 7.55238 10.667 7.0001C10.667 6.44781 10.2193 6.0001 9.66697 6.0001C9.11468 6.0001 8.66697 6.44781 8.66697 7.0001C8.66697 7.55238 9.11468 8.0001 9.66697 8.0001Z" fill="black"/>
<path fill-rule="evenodd" clip-rule="evenodd" d="M2.68359 6.66676C2.68359 3.73045 5.06395 1.3501 8.00026 1.3501C10.9366 1.3501 13.3169 3.73045 13.3169 6.66676V14.0001C13.3169 14.3591 13.0259 14.6501 12.6669 14.6501H6.76216C4.50963 14.6501 2.68359 12.8241 2.68359 10.5715V6.66676ZM8.00026 2.6501C5.78192 2.6501 3.98359 4.44842 3.98359 6.66676V10.5715C3.98359 12.1061 5.2276 13.3501 6.76216 13.3501H12.0169V6.66676C12.0169 4.44842 10.2186 2.6501 8.00026 2.6501Z" fill="black"/>
</svg>
