<svg xmlns="http://www.w3.org/2000/svg" width="16" height="16" fill="none" viewBox="0 0 16 16"><path fill="#000" fill-rule="evenodd" d="M8 1.35c-2.9363 0-5.3166 2.3803-5.3166 5.3166v3.9048c0 2.2525 1.826 4.0786 4.0785 4.0786h5.9048a.65.65 0 0 0 .65-.65V6.6666C13.3167 3.7303 10.9363 1.35 8 1.35M3.9834 6.6666C3.9834 4.4483 5.7817 2.65 8 2.65s4.0167 1.7983 4.0167 4.0166V13.35H6.7619c-1.5345 0-2.7785-1.244-2.7785-2.7786zM7.3334 7c0 .5523-.4478 1-1 1s-1-.4477-1-1 .4477-1 1-1 1 .4477 1 1m2.3333 1c.5523 0 1-.4477 1-1s-.4477-1-1-1-1 .4477-1 1 .4477 1 1 1"/></svg>