<svg xmlns="http://www.w3.org/2000/svg" width="16" height="16" fill="none" viewBox="0 0 16 16"><path fill="#e75a4d" d="M13.8512 2.75c.6308 0 1.1469.535 1.1469 1.189v.3446l-1.5934 1.1799L7.98 9.3373 2.5552 5.4242V13.25H2.147C1.5161 13.25 1 12.715 1 12.0611V3.9393c0-.654.5161-1.189 1.147-1.189L7.98 7.2335z"/><path fill="url(#a)" d="M2.147 2.7503 7.98 7.2335 13.8512 2.75z"/><path fill="#e7e4d7" d="M2.5552 5.4242V13.25h10.8499l-.0004-7.7865L7.98 9.3373z"/><path fill="#b8b7ae" d="M2.5552 13.25 7.98 9.3373l-.0246-.018-5.4002 3.8447z"/><path fill="#b7b6ad" d="m13.4047 5.4635.0039 7.7865L7.98 9.3373z"/><path fill="#b2392f" d="m14.9981 4.2836.002 7.7785c-.0274.8645-.3883 1.1734-1.5915 1.1879l-.0039-7.7865z"/><path fill="url(#b)" d="M2.147 2.7503 7.98 7.2335 13.8512 2.75z"/><path fill="url(#c)" d="M2.147 2.7503 7.98 7.2335 13.8512 2.75z"/><path fill="url(#d)" d="M2.147 2.7503 7.98 7.2335 13.8512 2.75z"/><path fill="url(#e)" d="M2.147 2.7503 7.98 7.2335 13.8512 2.75z"/><path fill="url(#f)" d="M2.147 2.7503 7.98 7.2335 13.8512 2.75z"/><path fill="url(#g)" d="M2.147 2.7503 7.98 7.2335 13.8512 2.75z"/><path fill="url(#h)" d="M2.147 2.7503 7.98 7.2335 13.8512 2.75z"/><path fill="#f7f5ed" d="M2.147 2.7503 7.98 7.2335 13.8512 2.75z"/><defs><linearGradient id="a" x1="4" x2="12" y1="8" y2="8" gradientUnits="userSpaceOnUse"><stop stop-color="#f8f6ef"/><stop offset="1" stop-color="#e7e4d6"/></linearGradient><linearGradient id="b" x1="4" x2="12" y1="8" y2="8" gradientUnits="userSpaceOnUse"><stop stop-color="#f8f6ef"/><stop offset="1" stop-color="#e7e4d6"/></linearGradient><linearGradient id="c" x1="4" x2="12" y1="8" y2="8" gradientUnits="userSpaceOnUse"><stop stop-color="#f8f6ef"/><stop offset="1" stop-color="#e7e4d6"/></linearGradient><linearGradient id="d" x1="4" x2="12" y1="8" y2="8" gradientUnits="userSpaceOnUse"><stop stop-color="#f8f6ef"/><stop offset="1" stop-color="#e7e4d6"/></linearGradient><linearGradient id="e" x1="4" x2="12" y1="8" y2="8" gradientUnits="userSpaceOnUse"><stop stop-color="#f8f6ef"/><stop offset="1" stop-color="#e7e4d6"/></linearGradient><linearGradient id="f" x1="4" x2="12" y1="8" y2="8" gradientUnits="userSpaceOnUse"><stop stop-color="#f8f6ef"/><stop offset="1" stop-color="#e7e4d6"/></linearGradient><linearGradient id="g" x1="4" x2="12" y1="8" y2="8" gradientUnits="userSpaceOnUse"><stop stop-color="#f8f6ef"/><stop offset="1" stop-color="#e7e4d6"/></linearGradient><linearGradient id="h" x1="4" x2="12" y1="8" y2="8" gradientUnits="userSpaceOnUse"><stop stop-color="#f8f6ef"/><stop offset="1" stop-color="#e7e4d6"/></linearGradient></defs></svg>