<svg xmlns="http://www.w3.org/2000/svg" width="16" height="16" fill="none" viewBox="0 0 16 16"><path fill="#4285f4" d="M15 8.1556c0-.5756-.0477-.9956-.1508-1.4311H8.1429v2.5977h3.9364c-.0793.6456-.5079 1.6178-1.4603 2.2711l-.0133.087 2.1204 1.6098.1469.0144C14.2222 12.0833 15 10.2867 15 8.1555"/><path fill="#34a853" d="M8.143 15c1.9286 0 3.5474-.6222 4.73-1.6955l-2.254-1.7112c-.6031.4122-1.4125.7-2.476.7-1.8889 0-3.492-1.2211-4.0635-2.9089l-.0838.007-2.2048 1.6722-.0289.0786C2.9367 13.4288 5.3493 15 8.143 15"/><path fill="#fbbc05" d="M4.0795 9.3844C3.9287 8.949 3.8413 8.4822 3.8413 8s.0872-.949.2301-1.3845l-.004-.0927L1.835 4.8237l-.073.034C1.2778 5.8067 1 6.8722 1 8s.278 2.1933.762 3.1422z"/><path fill="#eb4335" d="M8.143 3.7067c1.3413 0 2.246.5677 2.7619 1.0422L12.9208 2.82C11.6827 1.6922 10.0716 1 8.143 1 5.3493 1 2.9365 2.571 1.762 4.8577l2.3095 1.7578c.5794-1.6877 2.1827-2.9088 4.0716-2.9088"/></svg>