<svg width="16" height="16" viewBox="0 0 16 16" fill="none" xmlns="http://www.w3.org/2000/svg">
<path d="M15 8.15556C15 7.58001 14.9523 7.16001 14.8492 6.72446H8.14286V9.3222H12.0793C12 9.96778 11.5714 10.94 10.619 11.5933L10.6057 11.6803L12.7261 13.2901L12.873 13.3045C14.2222 12.0833 15 10.2867 15 8.15556Z" fill="#4285F4"/>
<path d="M8.14302 15C10.0716 15 11.6904 14.3778 12.873 13.3045L10.619 11.5933C10.0159 12.0055 9.20649 12.2933 8.14302 12.2933C6.25414 12.2933 4.65098 11.0722 4.07949 9.38444L3.99573 9.39141L1.79088 11.0636L1.76205 11.1422C2.93664 13.4288 5.34934 15 8.14302 15Z" fill="#34A853"/>
<path d="M4.07949 9.38444C3.9287 8.94889 3.84128 8.48219 3.84128 7.99999C3.84128 7.51774 3.92854 7.05109 4.0714 6.61554L4.06741 6.52278L1.83493 4.82369L1.76189 4.85774C1.27778 5.80664 1 6.87222 1 7.99999C1 9.12777 1.27794 10.1933 1.76205 11.1422L4.07949 9.38444Z" fill="#FBBC05"/>
<path d="M8.14302 3.70665C9.48427 3.70665 10.389 4.27442 10.9049 4.7489L12.9208 2.82C11.6827 1.69223 10.0716 1 8.14302 1C5.34934 1 2.93648 2.57109 1.76189 4.85774L4.0714 6.61554C4.65082 4.92777 6.25414 3.70665 8.14302 3.70665Z" fill="#EB4335"/>
</svg>
