<svg width="16" height="16" viewBox="0 0 16 16" fill="none" xmlns="http://www.w3.org/2000/svg">
<path fill-rule="evenodd" clip-rule="evenodd" d="M14 4.33333C14 5.622 12.9554 6.66667 11.6667 6.66667C11.2586 6.66667 10.875 6.56192 10.5413 6.37784L6.37786 10.5413C6.56192 10.875 6.66667 11.2586 6.66667 11.6666C6.66667 12.9553 5.622 14 4.33333 14C3.04467 14 2 12.9553 2 11.6666C2 10.378 3.04467 9.33331 4.33333 9.33331C4.74136 9.33331 5.12492 9.43804 5.45861 9.62209L9.62213 5.45857C9.4381 5.12489 9.33337 4.74134 9.33337 4.33333C9.33337 3.04467 10.378 2 11.6667 2C12.9554 2 14 3.04467 14 4.33333ZM4.33333 12.7C4.90403 12.7 5.36667 12.2373 5.36667 11.6666C5.36667 11.096 4.90403 10.6333 4.33333 10.6333C3.76264 10.6333 3.3 11.096 3.3 11.6666C3.3 12.2373 3.76264 12.7 4.33333 12.7Z" fill="black"/>
</svg>
