<svg xmlns="http://www.w3.org/2000/svg" width="16" height="16" fill="none" viewBox="0 0 16 16"><path fill="#000" fill-rule="evenodd" d="M14 4.3333c0 1.2887-1.0446 2.3334-2.3333 2.3334a2.32 2.32 0 0 1-1.1254-.2889l-4.1634 4.1635a2.32 2.32 0 0 1 .2888 1.1253C6.6667 12.9553 5.622 14 4.3333 14 3.0447 14 2 12.9553 2 11.6666c0-1.2886 1.0447-2.3333 2.3333-2.3333.408 0 .7916.1047 1.1253.2888l4.1635-4.1635a2.32 2.32 0 0 1-.2887-1.1253C9.3334 3.0447 10.378 2 11.6667 2S14 3.0447 14 4.3333M4.3333 12.7c.5707 0 1.0334-.4627 1.0334-1.0334 0-.5706-.4627-1.0333-1.0334-1.0333S3.3 11.096 3.3 11.6666 3.7626 12.7 4.3333 12.7"/></svg>