<svg xmlns="http://www.w3.org/2000/svg" width="16" height="16" fill="none" viewBox="0 0 16 16"><path fill="#000" fill-rule="evenodd" d="M2.745 1.279c-.801 0-1.45.6492-1.45 1.45v3.0254c0 .8008.649 1.45 1.45 1.45h1.47c.8009 0 1.45-.6492 1.45-1.45V2.729c0-.8008-.6491-1.45-1.45-1.45zm4.5204 1.45c0-.8008.6492-1.45 1.45-1.45h4.5417c.8008 0 1.45.6492 1.45 1.45v3.0254c0 .8008-.6492 1.45-1.45 1.45H8.7154c-.8009 0-1.45-.6492-1.45-1.45zm-4.6705 0a.15.15 0 0 1 .15-.15h1.4702a.15.15 0 0 1 .15.15v3.0254a.15.15 0 0 1-.15.15H2.7449a.15.15 0 0 1-.15-.15zm6.1205-.15a.15.15 0 0 0-.15.15v3.0254a.15.15 0 0 0 .15.15h4.5417a.15.15 0 0 0 .15-.15V2.729a.15.15 0 0 0-.15-.15zm4.5398 6.2165c.8009 0 1.45.6491 1.45 1.45v3.0253c0 .8009-.6491 1.45-1.45 1.45h-1.4701c-.8008 0-1.45-.6491-1.45-1.45v-3.0253c0-.8009.6492-1.45 1.45-1.45zm-5.9705 0c.8008 0 1.45.6491 1.45 1.45v3.0253c0 .8009-.6492 1.45-1.45 1.45H2.743c-.8008 0-1.45-.6491-1.45-1.45v-3.0253c0-.8009.6492-1.45 1.45-1.45zm6.1205 1.45a.15.15 0 0 0-.15-.15h-1.4701a.15.15 0 0 0-.15.15v3.0253a.15.15 0 0 0 .15.15h1.4701a.15.15 0 0 0 .15-.15zm-5.9705 0a.15.15 0 0 0-.15-.15H2.743a.15.15 0 0 0-.15.15v3.0253a.15.15 0 0 0 .15.15h4.5417a.15.15 0 0 0 .15-.15z"/></svg>