<svg xmlns="http://www.w3.org/2000/svg" width="16" height="16" fill="none" viewBox="0 0 16 16"><path fill="#000" fill-rule="evenodd" d="M3 1c-.5523 0-1 .4477-1 1v2c0 .5523.4477 1 1 1h2c.5523 0 1-.4477 1-1v-.35h2.3518a.35.35 0 0 1 .35.35v3.35H6V7c0-.5523-.4477-1-1-1H3c-.5523 0-1 .4477-1 1v2c0 .5523.4477 1 1 1h2c.5523 0 1-.4477 1-1v-.35h2.7018V12a.35.35 0 0 1-.35.35H6V12c0-.5523-.4477-1-1-1H3c-.5523 0-1 .4477-1 1v2c0 .5523.4477 1 1 1h2c.5523 0 1-.4477 1-1v-.35h2.3518c.9113 0 1.65-.7387 1.65-1.65V8.65h2.429l-.3904.3904a.65.65 0 0 0 0 .9192.65.65 0 0 0 .9192 0l1.5-1.5a.65.65 0 0 0 0-.9192l-1.5-1.5a.65.65 0 1 0-.9192.9192l.3904.3904h-2.429V4c0-.9113-.7387-1.65-1.65-1.65H6V2c0-.5523-.4477-1-1-1zm.3 1.3v1.4h1.4V2.3zm0 5v1.4h1.4V7.3zm0 6.4v-1.4h1.4v1.4z"/></svg>