<svg width="16" height="16" viewBox="0 0 16 16" fill="none" xmlns="http://www.w3.org/2000/svg">
<path d="M3.35059 2.43184C2.82592 2.43184 2.40059 2.85717 2.40059 3.38184V12.6183C2.40059 13.143 2.82592 13.5683 3.35059 13.5683H12.6498C13.1745 13.5683 13.5998 13.143 13.5998 12.6183V7.48065C13.5998 7.12167 13.8908 6.83065 14.2498 6.83065C14.6088 6.83065 14.8998 7.12167 14.8998 7.48065V12.6183C14.8998 13.8609 13.8924 14.8683 12.6498 14.8683H3.35059C2.10795 14.8683 1.10059 13.8609 1.10059 12.6183V3.38184C1.10059 2.1392 2.10795 1.13184 3.35059 1.13184H9.01759C9.37658 1.13184 9.66759 1.42285 9.66759 1.78184C9.66759 2.14082 9.37658 2.43184 9.01759 2.43184H3.35059Z" fill="black"/>
<path d="M12.8414 3.34346C13.0952 3.5973 13.0952 4.00885 12.8414 4.2627L7.34458 9.75952H10.4689C10.8279 9.75952 11.1189 10.0505 11.1189 10.4095C11.1189 10.7685 10.8279 11.0595 10.4689 11.0595H5.77537C5.6774 11.0595 5.58449 11.0378 5.50118 10.999C5.44799 10.9743 5.39746 10.942 5.35122 10.9021C5.32777 10.8819 5.30578 10.86 5.28543 10.8367C5.24068 10.7855 5.20532 10.7289 5.17933 10.6693C5.14462 10.5897 5.12537 10.5019 5.12537 10.4095V6.00217C5.12537 5.64319 5.41638 5.35217 5.77537 5.35217C6.13435 5.35217 6.42537 5.64319 6.42537 6.00217V8.84026L11.9222 3.34346C12.176 3.08962 12.5876 3.08962 12.8414 3.34346Z" fill="black"/>
</svg>
