<svg xmlns="http://www.w3.org/2000/svg" width="16" height="16" fill="none" viewBox="0 0 16 16"><path fill="#000" fill-rule="evenodd" d="M13.5998 12.6183a.95.95 0 0 1-.95.95h-5.667a.65.65 0 1 0 0 1.3h5.667c1.2426 0 2.25-1.0074 2.25-2.25V3.3818c0-1.2426-1.0074-2.25-2.25-2.25H3.3506c-1.2426 0-2.25 1.0074-2.25 2.25v5.1377a.65.65 0 0 0 1.3 0V3.3818a.95.95 0 0 1 .95-.95h9.2992a.95.95 0 0 1 .95.95zm-10.4407-.8809a.65.65 0 0 0 .9193.9193L9.575 7.1599v2.838a.65.65 0 1 0 1.3 0V5.5888a.648.648 0 0 0-.2258-.4906.648.648 0 0 0-.4242-.1575H5.5316a.65.65 0 0 0 0 1.3h3.1243z"/></svg>