<svg width="16" height="16" viewBox="0 0 16 16" fill="none" xmlns="http://www.w3.org/2000/svg">
<path d="M7.65039 2.0166C8.00928 2.01671 8.30078 2.30807 8.30078 2.66699V13.334C8.30042 13.6926 8.00906 13.9833 7.65039 13.9834C7.29163 13.9834 7.00036 13.6927 7 13.334V8.65039H3.31738V13.334C3.31703 13.6926 3.02561 13.9832 2.66699 13.9834C2.30822 13.9834 2.01695 13.6927 2.0166 13.334V2.66699C2.0166 2.30801 2.30801 2.0166 2.66699 2.0166C3.02583 2.01678 3.31738 2.30812 3.31738 2.66699V7.34961H7V2.66699C7 2.30801 7.29141 2.0166 7.65039 2.0166Z" fill="black"/>
<path d="M12.1934 7.54199C12.379 7.35543 12.6591 7.29907 12.9023 7.39941C13.1456 7.49983 13.3047 7.7368 13.3047 8V13.333C13.3047 13.692 13.0133 13.9834 12.6543 13.9834C12.2955 13.9832 12.0049 13.6919 12.0049 13.333V9.57422L11.126 10.458C10.8729 10.7124 10.4616 10.7138 10.207 10.4609C9.95262 10.2078 9.95119 9.79652 10.2041 9.54199L12.1934 7.54199Z" fill="black"/>
</svg>
