<svg xmlns="http://www.w3.org/2000/svg" width="16" height="16" fill="none" viewBox="0 0 16 16"><path fill="#000" fill-rule="evenodd" d="M8.3008 2.667a.651.651 0 0 0-.6504-.6504A.6507.6507 0 0 0 7 2.667v4.6826H3.3174V2.667a.651.651 0 0 0-.6504-.6504.6507.6507 0 0 0-.6504.6504v10.667a.6504.6504 0 0 0 1.3008 0V8.6504H7v4.6836a.6504.6504 0 0 0 1.3008 0zm4.6015 4.7324a.65.65 0 0 0-.7089.1426l-1.9893 2a.65.65 0 0 0 .0029.9189.65.65 0 0 0 .919-.0029l.8789-.8838v3.7588c0 .3589.2906.6502.6494.6504a.6507.6507 0 0 0 .6504-.6504V8a.65.65 0 0 0-.4024-.6006"/></svg>