<svg width="16" height="16" viewBox="0 0 16 16" fill="none" xmlns="http://www.w3.org/2000/svg">
<path d="M7.65039 2.0166C8.00928 2.01671 8.30078 2.30807 8.30078 2.66699V13.334C8.30042 13.6926 8.00906 13.9833 7.65039 13.9834C7.29163 13.9834 7.00036 13.6927 7 13.334V8.65039H3.31738V13.334C3.31703 13.6926 3.02561 13.9832 2.66699 13.9834C2.30822 13.9834 2.01695 13.6927 2.0166 13.334V2.66699C2.0166 2.30801 2.30801 2.0166 2.66699 2.0166C3.02583 2.01678 3.31738 2.30812 3.31738 2.66699V7.34961H7V2.66699C7 2.30801 7.29141 2.0166 7.65039 2.0166Z" fill="black"/>
<path d="M12.123 7.34961C12.7099 7.34965 13.3314 7.54458 13.7852 8.01465C14.2512 8.49761 14.4605 9.18844 14.3672 10.0117C14.2556 10.9937 13.5091 11.6139 12.8779 12.0371C12.5533 12.2547 12.193 12.4614 11.8945 12.6416C11.8719 12.6553 11.8502 12.6702 11.8281 12.6836H13.7959C14.1548 12.6836 14.4461 12.9742 14.4463 13.333C14.4463 13.692 14.1549 13.9834 13.7959 13.9834H10.4629C10.2875 13.9833 10.1194 13.9119 9.99707 13.7861C9.87487 13.6603 9.80854 13.4898 9.81348 13.3145V13.2998C9.81378 13.2929 9.81482 13.2839 9.81543 13.2734C9.81666 13.2522 9.81803 13.2233 9.82129 13.1895C9.82773 13.1227 9.83999 13.0285 9.8623 12.9248C9.88403 12.8239 9.91996 12.6939 9.98145 12.5645C10.0334 12.4552 10.1244 12.3086 10.2754 12.1875L10.2734 12.1865C10.5611 11.9378 10.9038 11.7209 11.2227 11.5283C11.5577 11.326 11.8638 11.1518 12.1543 10.957C12.7535 10.5553 13.0343 10.2244 13.0752 9.86523C13.1339 9.34716 12.9949 9.0676 12.8496 8.91699C12.6921 8.75404 12.4383 8.65043 12.123 8.65039C11.8976 8.65051 11.6779 8.76167 11.5098 8.96484C11.3376 9.17296 11.26 9.43061 11.2822 9.64258C11.3196 9.99931 11.0608 10.3187 10.7041 10.3564C10.3472 10.3938 10.0268 10.1352 9.98926 9.77832C9.92606 9.1772 10.1408 8.57929 10.5078 8.13574C10.8789 7.6873 11.4461 7.34973 12.123 7.34961Z" fill="black"/>
</svg>
