<svg xmlns="http://www.w3.org/2000/svg" width="16" height="16" fill="none" viewBox="0 0 16 16"><path fill="#000" fill-rule="evenodd" d="M8.3008 2.667a.651.651 0 0 0-.6504-.6504A.6507.6507 0 0 0 7 2.667v4.6826H3.3174V2.667a.651.651 0 0 0-.6504-.6504.6507.6507 0 0 0-.6504.6504v10.667a.6504.6504 0 0 0 1.3008 0V8.6504H7v4.6836a.6504.6504 0 0 0 1.3008 0zm6.0019 5.0508a.651.651 0 0 0-.5869-.3701h-3.333a.651.651 0 0 0-.6504.6503c0 .3589.2916.6493.6504.6495h1.916c-.3627.399-.725.7678-.959.9365a.651.651 0 0 0-.2529.6767.651.651 0 0 0 .5293.4922c.5789.0932.9422.235 1.1445.4053.1542.1298.2682.3175.2286.7246-.0317.3231-.3415.7979-1.0616.7979-.3333-.0001-.5292-.1268-.6601-.2745-.1484-.1676-.2237-.379-.2442-.5009a.6507.6507 0 0 0-.749-.5332.651.651 0 0 0-.5332.749c.0533.3173.2154.7653.5527 1.1465.3554.4011.896.7137 1.6338.7138 1.4229 0 2.2624-1.0175 2.3555-1.9726.0749-.7702-.1579-1.4021-.6846-1.8457-.177-.1491-.3783-.2686-.5937-.3652.1606-.1698.3171-.3403.456-.4971a30 30 0 0 0 .6993-.8194l.0449-.0546.0117-.0147.0029-.0039.001-.001a.651.651 0 0 0 .082-.6894"/></svg>