<svg xmlns="http://www.w3.org/2000/svg" width="16" height="16" fill="none" viewBox="0 0 16 16"><path fill="#000" fill-rule="evenodd" d="M13.65 5.6667v3.9999c0 3.1204-2.5296 5.65-5.65 5.65s-5.65-2.5296-5.65-5.65V7c0-.9113.7387-1.65 1.65-1.65.12 0 .2372.0128.35.0372V3.6667c0-.9112.7387-1.65 1.65-1.65.1281 0 .2529.0146.3727.0423C6.5033 1.2782 7.182.6832 8 .6832s1.4967.595 1.6273 1.3758A1.66 1.66 0 0 1 10 2.0167c.9112 0 1.65.7388 1.65 1.65v.3872a1.66 1.66 0 0 1 .35-.0372c.9112 0 1.65.7387 1.65 1.65M6 3.3167a.35.35 0 0 1 .35.35v3.6665a.65.65 0 1 0 1.3.0002V2.3332a.35.35 0 1 1 .7 0v5a.65.65 0 1 0 1.3.0002V3.6667a.35.35 0 1 1 .7 0v4.3334a.65.65 0 1 0 1.3 0V5.6667a.3507.3507 0 0 1 .35-.35.35.35 0 0 1 .35.35v3.9999c0 2.4024-1.9476 4.35-4.35 4.35-2.4025 0-4.35-1.9476-4.35-4.35V7a.35.35 0 0 1 .7-.0004v2.333a.65.65 0 0 0 .65.6506l.003.0001c.0257.0012.1232.0173.2785.1023.1524.0835.3252.2146.4875.3932.3224.3546.581.8698.581 1.5211a.65.65 0 1 0 1.3 0c0-1.0153-.4081-1.8335-.919-2.3956-.2544-.2798-.54-.5028-.825-.6589a2.5 2.5 0 0 0-.256-.1223V3.6667a.35.35 0 0 1 .35-.35"/></svg>