<svg width="16" height="16" viewBox="0 0 16 16" fill="none" xmlns="http://www.w3.org/2000/svg">
<path fill-rule="evenodd" clip-rule="evenodd" d="M11.3428 6.53167C10.9906 6.21166 10.5228 6.01663 10.0095 6.01663C9.76928 6.01663 9.53907 6.05932 9.32601 6.13753V3.33331C9.32601 2.23794 8.43804 1.34998 7.34268 1.34998C6.24732 1.34998 5.35935 2.23794 5.35935 3.33331V8.63227L4.4221 7.86893C3.67103 7.25722 2.57893 7.31291 1.89398 7.99786C1.15643 8.73541 1.15643 9.93121 1.89398 10.6688L4.80614 13.5809C5.49065 14.2654 6.41904 14.65 7.38708 14.65H8.8111L8.81484 14.65H11.2595C13.1372 14.65 14.6595 13.1277 14.6595 11.25V7.99997C14.6595 6.9046 13.7715 6.01663 12.6761 6.01663C12.1628 6.01663 11.695 6.21166 11.3428 6.53167ZM7.34268 2.64998C6.96529 2.64998 6.65935 2.95591 6.65935 3.33331V9.99998C6.65935 10.2509 6.51496 10.4794 6.28835 10.587C6.06175 10.6947 5.7934 10.6624 5.59887 10.504L3.60114 8.87692C3.36706 8.68627 3.02669 8.70362 2.81322 8.9171C2.58335 9.14697 2.58335 9.51965 2.81322 9.74952L5.72538 12.6617C6.16609 13.1024 6.76382 13.35 7.38708 13.35H8.66313L8.66706 13.35H11.2595C12.4193 13.35 13.3595 12.4098 13.3595 11.25V7.99997C13.3595 7.62257 13.0535 7.31663 12.6761 7.31663C12.2987 7.31663 11.9928 7.62257 11.9928 7.99997V8.66663C11.9928 9.02562 11.7018 9.31663 11.3428 9.31663C10.9838 9.31663 10.6928 9.02562 10.6928 8.66663V7.99997C10.6928 7.62257 10.3869 7.31663 10.0095 7.31663C9.63206 7.31663 9.32612 7.62257 9.32612 7.99997V8.66663C9.32612 9.0053 9.06711 9.28348 8.73637 9.31388C8.7165 9.31571 8.69636 9.31664 8.67601 9.31664C8.31703 9.31664 8.02601 9.02563 8.02601 8.66664V3.33331C8.02601 2.95591 7.72007 2.64998 7.34268 2.64998Z" fill="black"/>
</svg>
