<svg xmlns="http://www.w3.org/2000/svg" width="16" height="16" fill="none" viewBox="0 0 16 16"><path fill="#000" fill-rule="evenodd" d="M13.6501 5.6669v3.9998c0 3.1204-2.5296 5.65-5.65 5.65s-5.65-2.5296-5.65-5.65V7c0-.9113.7387-1.65 1.65-1.65.12 0 .2372.0128.35.0372V3.6669c0-.9113.7387-1.65 1.65-1.65.1282 0 .253.0146.3727.0422C6.5034 1.2784 7.1823.6834 8 .6834s1.4967.595 1.6273 1.3757A1.66 1.66 0 0 1 10 2.0168c.9113 0 1.65.7388 1.65 1.65v.3872a1.66 1.66 0 0 1 .35-.0372c.9113 0 1.65.7388 1.65 1.65M6 3.3168a.35.35 0 0 1 .35.35v3.6665a.65.65 0 1 0 1.3.0002V2.3332a.35.35 0 1 1 .7 0v5a.65.65 0 1 0 1.3.0002V3.667a.35.35 0 1 1 .7 0v4.3333a.65.65 0 1 0 1.3 0V5.6668a.3507.3507 0 0 1 .35-.35.35.35 0 0 1 .35.35v3.9999c0 2.4024-1.9476 4.35-4.35 4.35s-4.35-1.9476-4.35-4.35V7a.35.35 0 0 1 .7-.0004v2.333a.65.65 0 0 0 .65.6506l.003.0001c.0257.0012.1232.0173.2785.1024.1524.0834.3252.2146.4875.3931.3224.3546.581.8698.581 1.5211a.65.65 0 1 0 1.3 0c0-1.0153-.408-1.8335-.919-2.3955-.2544-.2798-.54-.5028-.825-.659a2.5 2.5 0 0 0-.256-.1223V3.667a.35.35 0 0 1 .35-.35" clip-rule="evenodd"/></svg>