<svg width="16" height="16" viewBox="0 0 16 16" fill="none" xmlns="http://www.w3.org/2000/svg">
<path fill-rule="evenodd" clip-rule="evenodd" d="M8 15C11.866 15 15 11.866 15 8C15 4.13401 11.866 1 8 1C4.13401 1 1 4.13401 1 8C1 11.866 4.13401 15 8 15ZM8 13.8333C10.7857 13.8333 13.1153 11.8807 13.6948 9.26947L7.83843 6.97337L7.84168 6.97058C7.863 6.95211 7.88151 6.93042 8.27136 6.47368L8.27202 6.47291C8.68175 5.99288 9.50101 5.03305 11.1606 3.09625C10.2499 2.50806 9.1648 2.16667 8 2.16667C4.77834 2.16667 2.16667 4.77834 2.16667 8C2.16667 10.0764 3.25155 11.8994 4.88542 12.9332L5.33559 8.208H4.98008V7.56403H5.20638V6.24092H4.98008V5.83545L6.22836 4.63572V4.5504C6.22836 4.48889 6.2782 4.43905 6.33972 4.43905C6.40121 4.43905 6.45106 4.48889 6.45106 4.5504V4.63569L7.69936 5.83545V6.24092H7.47303V7.56403H7.69936V8.208H7.33966L7.85282 13.8315C7.90173 13.8327 7.9508 13.8333 8 13.8333ZM12.9766 4.88155L7.84075 6.97382L13.7597 6.849C13.6188 6.13852 13.3493 5.4743 12.9766 4.88155ZM5.88596 7.01297V7.57254H6.715V7.01297C6.715 6.78403 6.5294 6.59845 6.3005 6.59845C6.07157 6.59845 5.88596 6.78403 5.88596 7.01297Z" fill="black"/>
</svg>
