<svg xmlns="http://www.w3.org/2000/svg" width="16" height="16" fill="none" viewBox="0 0 16 16"><path fill="#000" fill-rule="evenodd" d="M8 15c3.866 0 7-3.134 7-7s-3.134-7-7-7-7 3.134-7 7 3.134 7 7 7m0-1.1667c2.7857 0 5.1153-1.9526 5.6948-4.5638L7.8384 6.9734l.0033-.0028c.0213-.0185.0398-.0402.4297-.497l.0006-.0007c.4097-.48 1.229-1.4398 2.8886-3.3766C10.2499 2.508 9.1648 2.1666 8 2.1666 4.7783 2.1667 2.1667 4.7783 2.1667 8c0 2.0764 1.0848 3.8994 2.7187 4.9332l.4502-4.7252H4.98v-.644h.2263V6.241H4.98v-.4055l1.2483-1.1998v-.0853a.1113.1113 0 1 1 .2227 0v.0853l1.2483 1.1997v.4055H7.473V7.564h.2264v.644h-.3597l.5131 5.6235q.0735.0018.1472.0018m4.9766-8.9517L7.8408 6.9737l5.9189-.1248a5.82 5.82 0 0 0-.7831-1.9675M5.886 7.013v.5595h.829V7.013a.4145.4145 0 1 0-.829 0" clip-rule="evenodd"/></svg>