<svg width="16" height="16" viewBox="0 0 16 16" fill="none" xmlns="http://www.w3.org/2000/svg">
<path d="M5.9826 12.3673C5.9826 12.7816 5.64682 13.1173 5.2326 13.1173C4.81839 13.1173 4.4826 12.7816 4.4826 12.3673C4.4826 11.9531 4.81839 11.6173 5.2326 11.6173C5.64682 11.6173 5.9826 11.9531 5.9826 12.3673Z" fill="black"/>
<path d="M7.85956 13.1173C8.27377 13.1173 8.60956 12.7816 8.60956 12.3673C8.60956 11.9531 8.27377 11.6173 7.85956 11.6173C7.44534 11.6173 7.10956 11.9531 7.10956 12.3673C7.10956 12.7816 7.44534 13.1173 7.85956 13.1173Z" fill="black"/>
<path fill-rule="evenodd" clip-rule="evenodd" d="M4.7636 0.998291H8.62192C8.59184 1.05037 8.56344 1.10388 8.5368 1.15878C8.3484 1.5471 8.27846 1.94189 8.26821 2.29829H4.7636C4.12847 2.29829 3.6136 2.81316 3.6136 3.44829V10.0188C3.95649 9.83622 4.3479 9.73275 4.76348 9.73275H11.27C11.6857 9.73275 12.0772 9.83627 12.4201 10.0189V6.72622C12.5986 6.68249 12.7724 6.60616 12.9321 6.49558C12.9935 6.4531 13.3175 6.22636 13.7201 5.887V12.5519C13.7201 13.905 12.6232 15.0019 11.2701 15.0019H4.7636C3.4105 15.0019 2.3136 13.905 2.3136 12.5519L2.31348 12.1827L2.3136 12.158V3.44829C2.3136 2.0952 3.4105 0.998291 4.7636 0.998291ZM3.6136 12.1658V12.5519C3.6136 13.187 4.12847 13.7019 4.7636 13.7019H11.2701C11.9053 13.7019 12.4201 13.187 12.4201 12.5519L12.42 12.1827C12.42 11.5476 11.9051 11.0328 11.27 11.0328H4.76348C4.134 11.0328 3.62265 11.5385 3.6136 12.1658Z" fill="black"/>
<path d="M11.8961 5.4243C11.9302 5.44793 11.968 5.46184 12.0065 5.46663C12.0689 5.47815 12.1358 5.46575 12.1921 5.42674C12.2552 5.38305 12.7949 5.00526 13.335 4.48685C13.6049 4.22772 13.8805 3.92819 14.0972 3.61288C14.3116 3.30084 14.4826 2.9531 14.5151 2.6003C14.5431 2.29733 14.515 1.99352 14.3854 1.72625C14.2527 1.45279 14.024 1.23947 13.6938 1.10737C13.1027 0.870911 12.6324 1.08018 12.3237 1.34799C12.2126 1.44431 12.12 1.54963 12.0459 1.64735C11.9735 1.55198 11.8837 1.44941 11.7762 1.35504C11.4677 1.08413 10.9946 0.8687 10.398 1.10737C10.0678 1.23947 9.83912 1.45279 9.70644 1.72625C9.57677 1.99352 9.54873 2.29733 9.57668 2.60031C9.60897 2.95032 9.77745 3.29527 9.98933 3.60519C10.2034 3.9183 10.4759 4.21598 10.7437 4.4742C11.2794 4.99078 11.8186 5.37043 11.8961 5.4243Z" fill="black"/>
</svg>
