<svg xmlns="http://www.w3.org/2000/svg" width="16" height="16" fill="none" viewBox="0 0 16 16"><path fill="#000" fill-rule="evenodd" d="M11.2549 1h-6.51c-1.35 0-2.45 1.1-2.45 2.45v9.1c0 1.35 1.1 2.45 2.45 2.45h6.51c1.0177 0 1.8934-.6252 2.2628-1.5113a2.43 2.43 0 0 0 .1872-.9387v-9.1c0-1.35-1.1-2.45-2.45-2.45m0 8.73c.4152 0 .8068.104 1.15.2874V3.45c0-.63-.52-1.15-1.15-1.15h-6.51c-.63 0-1.15.52-1.15 1.15v6.5674a2.434 2.434 0 0 1 1.15-.2874zm-7.66 2.82v-.37c0-.63.52-1.15 1.15-1.15h6.51c.63 0 1.15.52 1.15 1.15v.37h-.01q-.0002.1184-.0236.2303c-.1081.5216-.5751.9197-1.1264.9197h-6.5c-.4849 0-.9047-.3081-1.0723-.7373a1.13 1.13 0 0 1-.0777-.4127m1.6102.57a.75.75 0 1 0 0-1.5.75.75 0 0 0 0 1.5m3.3799-.75a.75.75 0 1 1-1.5 0 .75.75 0 0 1 1.5 0"/></svg>