<svg xmlns="http://www.w3.org/2000/svg" width="16" height="16" fill="none" viewBox="0 0 16 16"><path fill="#000" fill-rule="evenodd" d="M8.622.9983H4.7635c-1.3531 0-2.45 1.0969-2.45 2.45v8.7097l-.0001.0248.0001.3691c0 1.3531 1.0969 2.45 2.45 2.45H11.27c1.3531 0 2.45-1.0969 2.45-2.45V5.887c-.4026.3394-.7266.566-.788.6086a1.54 1.54 0 0 1-.512.2306v3.2927a2.44 2.44 0 0 0-1.1501-.2862H4.7635c-.4156 0-.807.1035-1.1499.2861V3.4483c0-.6351.5149-1.15 1.15-1.15h3.5046c.0103-.3564.0802-.7512.2686-1.1395q.04-.0824.0851-.1605m3.2741 4.426a.25.25 0 0 0 .1104.0423.246.246 0 0 0 .1856-.0399c.0631-.0437.6028-.4214 1.1429-.9399.2699-.259.5455-.5586.7622-.874.2144-.312.3854-.6597.4179-1.0125.028-.303-.0001-.6068-.1297-.874-.1327-.2735-.3614-.4868-.6916-.619-.5911-.2364-1.0614-.0271-1.3701.2407a2 2 0 0 0-.2778.2994 2 2 0 0 0-.2697-.2924c-.3085-.2709-.7816-.4863-1.3782-.2476-.3302.132-.5589.3454-.6916.6189-.1296.2672-.1577.571-.1297.874.0323.35.2008.695.4126 1.0049.2141.313.4866.6108.7544.869.5357.5166 1.0749.8962 1.1524.95m-8.2825 7.1276v-.3861c.009-.6273.5204-1.133 1.1499-1.133H11.27c.6352 0 1.15.5148 1.15 1.15l.0001.3691c0 .6351-.5148 1.15-1.15 1.15H4.7636c-.6351 0-1.15-.5149-1.15-1.15m1.619.5655a.75.75 0 1 0 0-1.5.75.75 0 0 0 0 1.5m3.377-.75a.75.75 0 1 1-1.5 0 .75.75 0 0 1 1.5 0"/></svg>