<svg xmlns="http://www.w3.org/2000/svg" width="16" height="16" fill="none" viewBox="0 0 16 16"><path fill="#000" fill-rule="evenodd" d="M4.0667 2.0167c-1.1322 0-2.05.9178-2.05 2.05v1.2666a.65.65 0 1 0 1.3 0V4.0667a.75.75 0 0 1 .75-.75h7.8666a.75.75 0 0 1 .75.75v1.2666a.65.65 0 1 0 1.3 0V4.0667c0-1.1322-.9178-2.05-2.05-2.05zm5.2666 2.6666a.65.65 0 0 1 .5814.3593L11.0684 7.35H14a.65.65 0 1 1 0 1.3h-3.3334a.65.65 0 0 1-.5813-.3593l-.752-1.504-2.0853 4.1706a.6501.6501 0 0 1-1.1627 0L4.9316 8.65H2a.65.65 0 0 1 0-1.3h3.3333a.65.65 0 0 1 .5814.3593l.752 1.5039 2.0852-4.1706a.65.65 0 0 1 .5814-.3593m-6.0166 5.9834a.65.65 0 1 0-1.3 0v1.2666c0 1.1322.9178 2.05 2.05 2.05h7.8666c1.1322 0 2.05-.9178 2.05-2.05v-1.2666a.65.65 0 1 0-1.3 0v1.2666a.75.75 0 0 1-.75.75H4.0667a.75.75 0 0 1-.75-.75z"/></svg>