<svg width="16" height="16" viewBox="0 0 16 16" fill="none" xmlns="http://www.w3.org/2000/svg">
<path d="M4.06678 2.0166C2.9346 2.0166 2.01678 2.93442 2.01678 4.0666V5.33327C2.01678 5.69225 2.3078 5.98327 2.66678 5.98327C3.02577 5.98327 3.31678 5.69225 3.31678 5.33327V4.0666C3.31678 3.65239 3.65257 3.3166 4.06678 3.3166H11.9335C12.3477 3.3166 12.6835 3.65239 12.6835 4.0666V5.33327C12.6835 5.69225 12.9745 5.98327 13.3335 5.98327C13.6924 5.98327 13.9835 5.69225 13.9835 5.33327V4.0666C13.9835 2.93442 13.0656 2.0166 11.9335 2.0166H4.06678Z" fill="black"/>
<path d="M3.31678 10.6666C3.31678 10.3076 3.02577 10.0166 2.66678 10.0166C2.3078 10.0166 2.01678 10.3076 2.01678 10.6666V11.9333C2.01678 13.0655 2.9346 13.9833 4.06679 13.9833H11.9335C13.0656 13.9833 13.9835 13.0655 13.9835 11.9333V10.6666C13.9835 10.3076 13.6924 10.0166 13.3335 10.0166C12.9745 10.0166 12.6835 10.3076 12.6835 10.6666V11.9333C12.6835 12.3475 12.3477 12.6833 11.9335 12.6833H4.06679C3.65257 12.6833 3.31678 12.3475 3.31678 11.9333V10.6666Z" fill="black"/>
<path d="M9.91481 5.04257C9.8047 4.82236 9.57963 4.68326 9.33343 4.68326C9.08723 4.68326 8.86216 4.82236 8.75205 5.04257L6.66676 9.21315L5.91481 7.70924C5.8047 7.48903 5.57963 7.34993 5.33343 7.34993H2.0001C1.64111 7.34993 1.3501 7.64094 1.3501 7.99992C1.3501 8.35891 1.64111 8.64992 2.0001 8.64992H4.93171L6.08539 10.9573C6.19549 11.1775 6.42056 11.3166 6.66676 11.3166C6.91297 11.3166 7.13804 11.1775 7.24814 10.9573L9.33343 6.7867L10.0854 8.29061C10.1955 8.51082 10.4206 8.64992 10.6668 8.64992H14.0001C14.3591 8.64992 14.6501 8.35891 14.6501 7.99992C14.6501 7.64094 14.3591 7.34993 14.0001 7.34993H11.0685L9.91481 5.04257Z" fill="black"/>
</svg>
