<svg xmlns="http://www.w3.org/2000/svg" width="16" height="16" fill="none" viewBox="0 0 16 16"><path fill="#000" fill-rule="evenodd" d="M7.8738 2.9958c-.2644-.2578-.6252-.547-1.0814-.7752-.9362-.4682-2.2232-.6507-3.7762.1052a.7.7 0 0 0-.0513.0279c-.7344.443-1.265.9673-1.6001 1.6347-.3306.6584-.441 1.3969-.441 2.2158 0 1.0077.4383 1.986 1.0224 2.8529.5892.8746 1.3678 1.6962 2.1417 2.4041 1.5486 1.4166 3.1533 2.445 3.4074 2.605a.647.647 0 0 0 .4206.0958.647.647 0 0 0 .3438-.1004c.2766-.1746 1.8796-1.2056 3.421-2.6195.7703-.7067 1.5437-1.5255 2.1287-2.3969.58-.8638 1.0144-1.8378 1.0144-2.841 0-.8181-.1081-1.5482-.4387-2.203-.3341-.662-.8629-1.1831-1.5924-1.6413a.6.6 0 0 0-.0613-.034c-1.5617-.7602-2.8539-.5713-3.7908-.098-.4492.227-.805.5128-1.0668.7679"/></svg>