<svg xmlns="http://www.w3.org/2000/svg" width="16" height="16" fill="none" viewBox="0 0 16 16"><path fill="#000" fill-rule="evenodd" d="M7.9998 2.9958c-.2644-.2578-.6252-.547-1.0814-.7752-.9362-.4682-2.2232-.6507-3.7762.1052a.7.7 0 0 0-.0513.0279c-.7344.443-1.265.9673-1.6001 1.6347-.3306.6584-.441 1.3969-.441 2.2158 0 1.0077.4383 1.986 1.0224 2.8529.5892.8746 1.3677 1.6962 2.1417 2.4041 1.5486 1.4166 3.1533 2.445 3.4074 2.605a.647.647 0 0 0 .4206.0958.647.647 0 0 0 .3438-.1004c.2766-.1746 1.8796-1.2056 3.421-2.6195.7703-.7067 1.5437-1.5255 2.1287-2.3969.58-.8638 1.0144-1.8378 1.0144-2.841 0-.8181-.1082-1.5482-.4387-2.203-.3341-.662-.863-1.1831-1.5924-1.6413a.7.7 0 0 0-.0613-.034c-1.5617-.7602-2.8539-.5713-3.7908-.098-.4493.227-.8051.5128-1.0668.7679m-1.6629.3875c-.5872-.2936-1.4402-.4569-2.5995.0987-.5611.343-.8872.6962-1.0849 1.0898-.205.4084-.3027.9215-.3027 1.6324 0 .6398.2849 1.3611.8005 2.1265.5105.7577 1.2083 1.5011 1.941 2.1713 1.1497 1.0517 2.3394 1.8819 2.9085 2.2601.5725-.3804 1.7725-1.218 2.9281-2.278.729-.6687 1.4218-1.4093 1.9282-2.1635.5115-.7618.7937-1.4796.7937-2.1164 0-.7118-.0959-1.2145-.2992-1.6171-.1962-.3888-.5229-.744-1.0936-1.1076-1.1626-.5554-2.0171-.3878-2.6042-.0912-.6272.3169-1.0035.8123-1.0906.937a.65.65 0 0 1-.6213.272.649.649 0 0 1-.5061-.2757c-.0932-.1326-.4718-.6252-1.0979-.9383"/></svg>