<svg xmlns="http://www.w3.org/2000/svg" width="16" height="16" fill="none" viewBox="0 0 16 16"><path fill="#000" fill-rule="evenodd" d="M2.5828 11.7149q.1755.0602.4065.1122.1258.0285.4234.058l.003.0003q.7975.0792 2.5555.5806 1.6381.4672 2.1307.4672.469 0 1.9162-.4334 1.8675-.5592 2.7553-.5717.4338-.05.7107-.152a.66.66 0 0 1-.1808-.2253q-.0677-.1345-.0678-.2971V9.0402q0-.8329-.2405-1.5893-.2289-.7199-.6757-1.3705-.4591-.6686-1.0667-1.1498a5 5 0 0 0-.3726-.2684v3.6435a.66.66 0 0 1-.0488.2525l-.0002.0006a.7.7 0 0 1-.0186.0406.655.655 0 0 1-.3022.302.6.6 0 0 1-.0379.0176l-.0029.0012a.66.66 0 0 1-.2559.0489H10.21a.66.66 0 0 1-.2527-.0489.6.6 0 0 1-.0409-.0187.655.655 0 0 1-.3021-.3021.6.6 0 0 1-.0188-.041.66.66 0 0 1-.0488-.2558V3.0669H6.4533v5.2388a.66.66 0 0 1-.0488.2525l-.0002.0006a.6.6 0 0 1-.0187.0408c-.1076.2206-.333.3695-.599.3695h-.0032a.66.66 0 0 1-.2524-.0488h-.0002l-.0074-.0031a.6.6 0 0 1-.0338-.0158c-.2207-.1076-.3696-.333-.3696-.599V4.6622a5 5 0 0 0-.3726.2684q-.6075.4811-1.0667 1.1498-.4468.6506-.6757 1.3704-.2405.7564-.2405 1.5894v2.2165q-.0007.1608-.0677.294a.66.66 0 0 1-.114.1642M1.431 10.5902a.7.7 0 0 0-.0678-.0034h-.0035a.66.66 0 0 0-.2556.0488.6.6 0 0 0-.041.0187.656.656 0 0 0-.3023.3024.6.6 0 0 0-.0188.041.66.66 0 0 0-.0487.2525v.0033q0 .3964.1555.7174v.0002q.4027.8307 1.8469 1.1567.2058.0464.585.0841l.0032.0003q.6785.0674 2.3215.536 1.8174.5184 2.4964.5184.6645 0 2.2988-.4895 1.7228-.516 2.4126-.5159l.0249-.0005.0122-.0006.0056-.0003a1 1 0 0 0 .0297-.0026q1.6482-.1801 2.1743-1.0438.2466-.4049.2466-.9599v-.0002a.66.66 0 0 0-.0487-.2556.7.7 0 0 0-.0188-.0411.655.655 0 0 0-.3021-.3022.7.7 0 0 0-.0412-.0188.66.66 0 0 0-.2526-.0488h-.0035a.7.7 0 0 0-.0708.0034v-1.55q0-1.0398-.2991-1.985-.2875-.9085-.8513-1.7296-.5727-.834-1.3301-1.4355a6.44 6.44 0 0 0-1.2084-.7565v-.7334q0-.276-.1953-.4714t-.4714-.1953H5.7867q-.2762 0-.4714.1953-.1953.1953-.1953.4714v.7334a6.44 6.44 0 0 0-1.2086.7566q-.7572.6015-1.3299 1.4354-.5637.8211-.8513 1.7296-.299.945-.299 1.985z"/></svg>