<svg xmlns="http://www.w3.org/2000/svg" width="16" height="16" fill="none" viewBox="0 0 16 16"><path fill="#000" fill-rule="evenodd" d="M1.4155 1.9356a.65.65 0 0 1 .9192 0L13.8093 13.41a.6501.6501 0 0 1-.9193.9193l-2.047-2.0471c-.8375.3415-1.7903.5595-2.843.5595-2.157 0-3.8902-.9537-5.0703-1.9818-.591-.5148-1.055-1.058-1.3763-1.5322-.1603-.2367-.2907-.4646-.3837-.6707C1.0861 8.4716 1 8.2339 1 8c0-.2367.0888-.4762.1736-.661.0946-.2062.227-.4339.3894-.6702.3252-.4736.7939-1.016 1.3873-1.53.131-.1135.2686-.226.4127-.3365L1.4155 2.8548a.65.65 0 0 1 0-.9192m9.6548 6.0342c0 .28-.0375.5511-.1077.8088l2.1246 2.1246c.5825-.5007 1.0422-1.0344 1.3622-1.5147.1618-.243.2934-.4805.3868-.7008C14.9242 8.4802 15 8.2378 15 8c0-.2404-.0781-.4843-.1675-.6915-.0951-.2204-.2288-.4579-.3926-.7004-.328-.4857-.7998-1.026-1.3952-1.5313C11.8551 4.0671 10.1238 3.1581 8 3.1581c-.823 0-1.5866.1423-2.282.3759l1.4733 1.4733a3.07 3.07 0 0 1 .8088-.1076c1.6956 0 3.0702 1.3745 3.0702 3.0701M8.2789 9.7182l1.0298 1.0298A3.06 3.06 0 0 1 8 11.04c-1.6956 0-3.0702-1.3746-3.0702-3.0702 0-.468.1048-.9116.292-1.3085L6.2519 7.691a1.8 1.8 0 0 0-.0219.2787c0 .9777.7926 1.7702 1.7702 1.7702q.1425-.0001.2788-.0218"/></svg>