<svg xmlns="http://www.w3.org/2000/svg" width="16" height="16" fill="none" viewBox="0 0 16 16"><path fill="#000" fill-rule="evenodd" d="M5.8579 9.407c-1.5516-.6733-2.6377-2.2187-2.6377-4.0193 0-2.4188 1.9609-4.3796 4.3797-4.3796s4.3797 1.9608 4.3797 4.3796a4.362 4.362 0 0 1-.9815 2.763l.3408.1304c1.2018.46 1.8995 1.7169 1.6542 2.9802l-.6224 3.2046a.65.65 0 0 1-.6381.5261H6.5079a.65.65 0 0 1-.4615-.1923l-3.1826-3.2091a.65.65 0 0 1 .0385-.9512l.7426-.6365a.65.65 0 0 1 .5208-.149l1.6922.2574zM4.5202 5.3878c0-1.7008 1.3788-3.0796 3.0797-3.0796s3.0797 1.3788 3.0797 3.0796c0 .894-.3804 1.699-.99 2.2622l-.3835-.1468V4.9667c0-.9522-.7719-1.7242-1.7241-1.7242s-1.7241.772-1.7241 1.7242v2.9612c-.8082-.5554-1.3377-1.4864-1.3377-2.5402m2.6377-.421a.4241.4241 0 0 1 .8482 0v2.9837a.65.65 0 0 0 .4177.607l2.4504.9378a1.35 1.35 0 0 1 .8427 1.5182l-.5202 2.6786h-4.418L4.296 11.1886l2.114.3217a.65.65 0 0 0 .7479-.6426z"/></svg>