<svg xmlns="http://www.w3.org/2000/svg" width="16" height="16" fill="none" viewBox="0 0 16 16"><path fill="#000" fill-rule="evenodd" d="M3 1c-1.1046 0-2 .8954-2 2v10c0 1.1046.8954 2 2 2h10c1.1046 0 2-.8954 2-2V3c0-1.1046-.8954-2-2-2zm10 1.3H3a.7.7 0 0 0-.7.7v10a.7.7 0 0 0 .7.7h10a.7.7 0 0 0 .7-.7V3a.7.7 0 0 0-.7-.7M6 9c1.6569 0 3-1.3431 3-3S7.6569 3 6 3 3 4.3431 3 6s1.3431 3 3 3m0-1.3c.9389 0 1.7-.7611 1.7-1.7S6.9389 4.3 6 4.3 4.3 5.0611 4.3 6 5.0611 7.7 6 7.7m7 2.8c0 1.3807-1.1193 2.5-2.5 2.5S8 11.8807 8 10.5 9.1193 8 10.5 8 13 9.1193 13 10.5m-1.3 0c0 .6627-.5373 1.2-1.2 1.2s-1.2-.5373-1.2-1.2.5373-1.2 1.2-1.2 1.2.5373 1.2 1.2M4 12.6667a.6667.6667 0 1 0 0-1.3334.6667.6667 0 0 0 0 1.3334M6.6667 12a.6667.6667 0 1 1-1.3334 0 .6667.6667 0 0 1 1.3334 0"/></svg>