<svg width="16" height="16" viewBox="0 0 16 16" fill="none" xmlns="http://www.w3.org/2000/svg">
<path d="M7.58161 1.71988C7.80583 1.56066 8.10598 1.55978 8.33114 1.71766L15.0584 6.43516C15.3524 6.64127 15.4235 7.04662 15.2174 7.34054C15.0113 7.63446 14.606 7.70565 14.312 7.49954L13.7162 7.08169V12.3504C13.7162 13.4826 12.7984 14.4004 11.6662 14.4004H10.8411V10.0238C10.8411 9.3334 10.2815 8.77376 9.59113 8.77376H6.40859C5.71823 8.77376 5.15859 9.3334 5.15859 10.0238V14.4004H4.33336C3.20118 14.4004 2.28336 13.4826 2.28336 12.3504V7.07648L1.69069 7.49733C1.39799 7.70517 0.992221 7.63637 0.78438 7.34368C0.57654 7.05098 0.645331 6.64521 0.93803 6.43737L7.58161 1.71988Z" fill="black"/>
<path d="M6.45859 14.4004H9.54113V10.0738H6.45859V14.4004Z" fill="black"/>
</svg>
