<svg width="16" height="16" viewBox="0 0 16 16" fill="none" xmlns="http://www.w3.org/2000/svg">
<path d="M7.9995 7.70649C6.65484 7.70649 5.97955 8.5978 5.8863 8.73148C5.68093 9.02591 5.27576 9.09811 4.98132 8.89274C4.68689 8.68737 4.61469 8.28219 4.82006 7.98776C5.00313 7.72529 6.01845 6.40649 7.9995 6.40649C9.98055 6.40649 10.9959 7.72529 11.1789 7.98776C11.3843 8.28219 11.3121 8.68737 11.0177 8.89274C10.7232 9.09811 10.3181 9.02591 10.1127 8.73148C10.0194 8.5978 9.34416 7.70649 7.9995 7.70649Z" fill="black"/>
<path fill-rule="evenodd" clip-rule="evenodd" d="M7.21069 10.4124C7.01706 10.7087 6.6208 10.796 6.32018 10.6066C6.0286 10.4229 5.933 10.0456 6.09513 9.74704C6.13264 9.67797 6.17307 9.62267 6.25338 9.52911C6.33125 9.4384 6.44508 9.32177 6.59743 9.20592C6.90577 8.97146 7.37384 8.73999 8.00002 8.73999C8.6262 8.73999 9.09427 8.97146 9.40261 9.20592C9.55496 9.32177 9.66879 9.4384 9.74666 9.52911C9.81629 9.61023 9.88462 9.69699 9.9271 9.79194C10.0571 10.0825 9.957 10.432 9.67986 10.6066C9.37924 10.796 8.98298 10.7087 8.78934 10.4124L8.78801 10.4105C8.78401 10.4051 8.77476 10.3928 8.76024 10.3759C8.73081 10.3416 8.68254 10.2915 8.61572 10.2407C8.48571 10.1419 8.28712 10.04 8.00002 10.04C7.71292 10.04 7.51433 10.1419 7.38432 10.2407C7.3175 10.2915 7.26923 10.3416 7.2398 10.3759C7.22528 10.3928 7.21636 10.4043 7.21236 10.4098L7.21069 10.4124ZM7.21236 10.4098L7.21536 10.4052L7.21423 10.4069L7.21236 10.4098Z" fill="black"/>
<path fill-rule="evenodd" clip-rule="evenodd" d="M8.33216 1.87684C8.10701 1.71896 7.80686 1.71984 7.58264 1.87905L1.12333 6.4657C0.830634 6.67354 0.761843 7.0793 0.969683 7.372C1.17752 7.6647 1.58329 7.73349 1.87599 7.52565L2.42388 7.1366V12.1907C2.42388 13.3229 3.3417 14.2407 4.47388 14.2407H11.5256C12.6578 14.2407 13.5756 13.3229 13.5756 12.1907V7.1416L14.1265 7.52786C14.4204 7.73397 14.8257 7.66279 15.0318 7.36887C15.238 7.07495 15.1668 6.6696 14.8729 6.46349L8.33216 1.87684ZM12.2756 6.22998L7.96131 3.20457L3.72388 6.2135V12.1907C3.72388 12.6049 4.05967 12.9407 4.47388 12.9407H11.5256C11.9399 12.9407 12.2756 12.6049 12.2756 12.1907V6.22998Z" fill="black"/>
</svg>
