<svg xmlns="http://www.w3.org/2000/svg" width="16" height="16" fill="none" viewBox="0 0 16 16"><path fill="#000" fill-rule="evenodd" d="M7.5826 1.879a.65.65 0 0 1 .7496-.0022l6.5406 4.5867a.65.65 0 0 1 .159.9054.65.65 0 0 1-.9053.159l-.5509-.3863v5.0491c0 1.1322-.9178 2.05-2.05 2.05H4.4739c-1.1322 0-2.05-.9178-2.05-2.05v-5.054l-.548.389a.65.65 0 0 1-.7526-1.06zm.3787 1.3256L12.2756 6.23v5.9607a.75.75 0 0 1-.75.75H4.4739a.75.75 0 0 1-.75-.75V6.2135zm.0382 4.5019c-1.3447 0-2.02.8913-2.1132 1.025a.65.65 0 1 1-1.0662-.7438c.183-.2624 1.1983-1.5812 3.1794-1.5812s2.9964 1.3188 3.1794 1.5812a.65.65 0 1 1-1.0662.7438c-.0933-.1337-.7685-1.025-2.1132-1.025m-.7888 2.7059A.65.65 0 0 1 6.095 9.747c.0375-.069.078-.1243.1583-.2179a2.25 2.25 0 0 1 .344-.3232C6.9058 8.9715 7.3738 8.74 8 8.74s1.0943.2316 1.4026.466a2.25 2.25 0 0 1 .344.3232c.0697.0811.138.1679.1805.2628a.6502.6502 0 0 1-1.1377.6205l-.0014-.0018a.6.6 0 0 0-.0278-.0347.95.95 0 0 0-.1445-.1352c-.13-.0988-.3286-.2007-.6157-.2007-.287 0-.4857.1019-.6157.2007a.95.95 0 0 0-.1445.1352.6.6 0 0 0-.0274.0339z"/></svg>