<svg xmlns="http://www.w3.org/2000/svg" width="16" height="16" fill="none" viewBox="0 0 16 16"><path fill="#000" fill-rule="evenodd" d="M7.5866.9126a.65.65 0 0 1 .8257 0l4.263 3.5051a.65.65 0 0 1 .2371.502V9.014c0 .9112-.7387 1.65-1.65 1.65H8.6501v.859a1.606 1.606 0 0 1 .8128.8126h4.9123a.65.65 0 1 1 0 1.3H9.463c-.2492.5598-.8103.95-1.4625.95-.6523 0-1.2133-.3902-1.4625-.95H1.6241a.65.65 0 1 1 0-1.3h4.914a1.606 1.606 0 0 1 .812-.8122v-.8594H4.7364c-.9112 0-1.65-.7388-1.65-1.65V4.9198a.65.65 0 0 1 .2372-.5021zm1.0635 8.4513V7.434a.65.65 0 0 0-1.3 0v1.93H4.7364a.35.35 0 0 1-.35-.35V5.227l3.613-2.9707 3.613 2.9706v3.787a.35.35 0 0 1-.35.35z"/></svg>