<svg xmlns="http://www.w3.org/2000/svg" width="16" height="16" fill="none" viewBox="0 0 16 16"><path fill="#000" fill-rule="evenodd" d="M8.3314 1.7175a.65.65 0 0 0-.7495.0022L.9383 6.4373a.65.65 0 1 0 .7526 1.06l.5927-.4209v5.274c0 1.1322.9178 2.05 2.05 2.05h7.3328c1.1322 0 2.05-.9178 2.05-2.05V7.0816l.5959.4178a.65.65 0 0 0 .7464-1.0644zm1.21 11.3828H6.459v-1.753h3.0825zm0-3.053H6.459v-1.753h3.0825zm1.3.6397V8.2444c0-.6904-.5596-1.25-1.25-1.25H6.409c-.6904 0-1.25.5596-1.25 1.25v4.8559h-.8253a.75.75 0 0 1-.75-.75v-6.197l4.377-3.108L12.4163 6.17v6.1803a.75.75 0 0 1-.75.75h-.825v-2.3926l.0001-.0104z"/></svg>