<svg xmlns="http://www.w3.org/2000/svg" width="16" height="16" fill="none" viewBox="0 0 16 16"><path fill="#000" fill-rule="evenodd" d="M10.6666 1.35a.65.65 0 0 1 .65.65v2.1256C12.0928 4.3947 12.65 5.1323 12.65 6s-.5572 1.6053-1.3334 1.8744v2.7922c0 2.2-1.7834 3.9834-3.9833 3.9834-2.2 0-3.9833-1.7834-3.9833-3.9834V8a.65.65 0 0 1 1.1096-.4596l2 2a.65.65 0 1 1-.9192.9192L4.65 9.5692v1.0974c0 1.482 1.2013 2.6834 2.6833 2.6834s2.6833-1.2014 2.6833-2.6834V7.8744C9.2406 7.6053 8.6833 6.8677 8.6833 6s.5572-1.6053 1.3333-1.8744V2a.65.65 0 0 1 .65-.65M9.9833 6a.6834.6834 0 1 1 1.3668 0 .6834.6834 0 0 1-1.3668 0"/></svg>