<svg xmlns="http://www.w3.org/2000/svg" width="16" height="16" fill="none" viewBox="0 0 16 16"><path fill="#000" fill-rule="evenodd" d="M.998 3.6406c0-1.4636 1.1865-2.65 2.65-2.65h8.7044c1.4636 0 2.65 1.1864 2.65 2.65v5.6498c0 1.4636-1.1864 2.65-2.65 2.65H9.0001v1.769h2.2696a.65.65 0 1 1 0 1.3H4.7313a.65.65 0 0 1 0-1.3h2.2688v-1.769h-3.352c-1.4636 0-2.65-1.1864-2.65-2.65zm2.65-1.35c-.7455 0-1.35.6044-1.35 1.35v5.6498c0 .7456.6045 1.35 1.35 1.35h8.7044c.7456 0 1.35-.6044 1.35-1.35V3.6406c0-.7456-.6044-1.35-1.35-1.35zm-.0478 1.9249a.6.6 0 0 1 .6-.6h7.6a.6.6 0 0 1 .6.6v4.5a.6.6 0 0 1-.6.6h-7.6a.6.6 0 0 1-.6-.6z"/></svg>