<svg xmlns="http://www.w3.org/2000/svg" width="16" height="16" fill="none" viewBox="0 0 16 16"><path fill="#000" fill-rule="evenodd" d="M3.648.9906c-1.4636 0-2.65 1.1864-2.65 2.65v5.6498c0 1.4636 1.1864 2.65 2.65 2.65H7v1.769H4.7312a.65.65 0 1 0 0 1.2999h6.5384a.65.65 0 1 0 0-1.2999H9v-1.769h3.3523c1.4636 0 2.65-1.1864 2.65-2.65V3.6406c0-1.4636-1.1864-2.65-2.65-2.65zm-1.35 2.65c0-.7456.6043-1.35 1.35-1.35h8.7043c.7456 0 1.35.6044 1.35 1.35v5.6498c0 .7456-.6044 1.35-1.35 1.35H3.6479c-.7456 0-1.35-.6044-1.35-1.35z"/></svg>