<svg xmlns="http://www.w3.org/2000/svg" width="16" height="16" fill="none" viewBox="0 0 16 16"><path fill="#000" fill-rule="evenodd" d="M14.4742 5.3334c-1.0408-2.5244-3.5152-4.3067-6.409-4.333a1.8 1.8 0 0 0-.1301 0c-2.8939.0263-5.3683 1.8086-6.4092 4.333h1.4352c.612-1.154 1.6087-2.0727 2.8192-2.585a6.8 6.8 0 0 0-.2363.5127c-.2484.6013-.4476 1.3029-.5871 2.0723h1.3237c.1204-.5936.2789-1.1256.465-1.576.218-.5279.4613-.9125.6982-1.155.2184-.2235.396-.2936.5275-.3023h.0578c.1314.0087.309.0788.5274.3023.2369.2425.4801.6271.6982 1.155.186.4504.3445.9824.465 1.576h1.3237c-.1396-.7694-.3387-1.471-.5872-2.0723a6.8 6.8 0 0 0-.2362-.5126c1.2105.5123 2.2072 1.431 2.8191 2.5849zm-13.3365.6248a.5.5 0 0 1 .5.5V7.5h1.3699V6.4642a.5.5 0 0 1 1 0v3.0716a.5.5 0 0 1-1 0V8.5H1.6377v1.03a.5.5 0 0 1-1 0V6.4582a.5.5 0 0 1 .5-.5m7.1892.5a.5.5 0 0 1 .5-.5h2.0344a.5.5 0 1 1 0 1h-.5171V9.53a.5.5 0 0 1-1 0V6.9583h-.5173a.5.5 0 0 1-.5-.5m4.2075-.4987a.5.5 0 0 0-.5356.4987V9.53a.5.5 0 1 0 1 0v-.8528h.9799c.7508 0 1.3595-.6086 1.3595-1.3594s-.6087-1.3595-1.3595-1.3595H12.57a.5.5 0 0 0-.0356.0013m-7.8793.5047a.5.5 0 0 1 .5-.5h2.0344a.5.5 0 0 1 0 1h-.5171v2.5716a.5.5 0 0 1-1 0V6.9642H5.155a.5.5 0 0 1-.5-.5m8.3437 1.213h.9799a.3594.3594 0 1 0 0-.719h-.9799zm.0403 2.9895h1.4351c-1.0404 2.5234-3.5132 4.3053-6.4056 4.333q-.034.0013-.0685.0013-.0344 0-.0684-.0013c-2.8924-.0277-5.3652-1.8096-6.4058-4.333H2.961c.6119 1.154 1.6086 2.0726 2.8191 2.5849a6.8 6.8 0 0 1-.2362-.5125c-.2484-.6014-.4476-1.303-.5871-2.0724h1.3237c.1204.5937.2789 1.1257.465 1.576.218.528.4613.9125.6982 1.155.2175.2227.3946.2931.526.3023h.0607c.1313-.0092.3085-.0796.526-.3023.2369-.2425.4801-.627.6982-1.155.186-.4503.3446-.9823.465-1.576h1.3237c-.1396.7694-.3387 1.471-.5872 2.0724a6.8 6.8 0 0 1-.2362.5125 5.722 5.722 0 0 0 2.8191-2.5849"/></svg>