<svg width="16" height="16" viewBox="0 0 16 16" fill="none" xmlns="http://www.w3.org/2000/svg">
<path d="M14.4742 5.33325C13.4333 2.80891 10.959 1.02659 8.06522 1.00021C8.04364 0.999422 8.02195 0.999023 8.00013 0.999023C7.97832 0.999023 7.95663 0.999422 7.93506 1.00021C5.04121 1.02654 2.56684 2.80888 1.52594 5.33325H2.96105C3.57301 4.17928 4.56976 3.26063 5.7803 2.74831C5.69614 2.91192 5.6174 3.08335 5.54402 3.26097C5.29559 3.86229 5.09644 4.56387 4.95688 5.33325H6.28057C6.40102 4.73964 6.55948 4.20766 6.74551 3.75737C6.96365 3.22938 7.20691 2.84481 7.44378 2.6023C7.66216 2.37874 7.83981 2.30869 7.97126 2.29999L8.00009 2.29991L8.02901 2.29999C8.16045 2.30869 8.33811 2.37874 8.55648 2.6023C8.79335 2.84481 9.03661 3.22938 9.25474 3.75737C9.44078 4.20766 9.59924 4.73964 9.71969 5.33325H11.0434C10.9038 4.56387 10.7047 3.86229 10.4562 3.26097C10.3829 3.08336 10.3041 2.91195 10.22 2.74835C11.4305 3.26067 12.4272 4.17931 13.0391 5.33325H14.4742Z" fill="black"/>
<path d="M13.0391 10.6666H14.4742C13.4337 13.1899 10.961 14.9719 8.06859 14.9996C8.0459 15.0005 8.02308 15.0009 8.00013 15.0009C7.97718 15.0009 7.95437 15.0005 7.93169 14.9996C5.03929 14.9719 2.56645 13.19 1.52594 10.6666H2.96106C3.573 11.8205 4.56973 12.7392 5.78024 13.2515C5.6961 13.0879 5.61739 12.9165 5.54402 12.739C5.29558 12.1376 5.09642 11.436 4.95687 10.6666H6.28055C6.401 11.2602 6.55947 11.7922 6.74551 12.2426C6.96365 12.7705 7.20691 13.1551 7.44378 13.3976C7.66131 13.6203 7.83844 13.6907 7.96973 13.6998L8.00009 13.6999L8.03053 13.6998C8.16183 13.6907 8.33895 13.6203 8.55648 13.3976C8.79335 13.1551 9.03661 12.7705 9.25474 12.2426C9.44079 11.7922 9.59925 11.2602 9.7197 10.6666H11.0434C10.9038 11.436 10.7047 12.1376 10.4562 12.739C10.3829 12.9165 10.3042 13.0879 10.22 13.2514C11.4305 12.7391 12.4272 11.8205 13.0391 10.6666Z" fill="black"/>
<path d="M1.6377 6.45813C1.6377 6.18199 1.41384 5.95813 1.1377 5.95813C0.861553 5.95813 0.637695 6.18199 0.637695 6.45813V9.52979C0.637695 9.80593 0.861553 10.0298 1.1377 10.0298C1.41384 10.0298 1.6377 9.80593 1.6377 9.52979V8.49988L3.00757 8.49988V9.53571C3.00757 9.81185 3.23143 10.0357 3.50757 10.0357C3.78371 10.0357 4.00757 9.81185 4.00757 9.53571V6.46405C4.00757 6.18791 3.78371 5.96405 3.50757 5.96405C3.23143 5.96405 3.00757 6.18791 3.00757 6.46405V7.49988L1.6377 7.49988V6.45813Z" fill="black"/>
<path d="M5.15509 5.96405C4.87895 5.96405 4.65509 6.18791 4.65509 6.46405C4.65509 6.74019 4.87895 6.96405 5.15509 6.96405L5.67236 6.96405V9.53571C5.67236 9.81185 5.89622 10.0357 6.17236 10.0357C6.44851 10.0357 6.67236 9.81185 6.67236 9.53571V6.96405L7.18951 6.96405C7.46565 6.96405 7.68951 6.74019 7.68951 6.46405C7.68951 6.18791 7.46565 5.96405 7.18951 5.96405L5.15509 5.96405Z" fill="black"/>
<path d="M8.8269 5.95813C8.55076 5.95813 8.3269 6.18199 8.3269 6.45813C8.3269 6.73427 8.55076 6.95813 8.8269 6.95813L9.34418 6.95813V9.52979C9.34418 9.80593 9.56804 10.0298 9.84418 10.0298C10.1203 10.0298 10.3442 9.80593 10.3442 9.52979V6.95813L10.8613 6.95813C11.1375 6.95813 11.3613 6.73427 11.3613 6.45813C11.3613 6.18199 11.1375 5.95813 10.8613 5.95813H8.8269Z" fill="black"/>
<path fill-rule="evenodd" clip-rule="evenodd" d="M12.4988 5.95813C12.5108 5.95813 12.5226 5.95855 12.5344 5.95938C12.5462 5.95855 12.558 5.95813 12.57 5.95813H13.9787C14.7295 5.95813 15.3382 6.56678 15.3382 7.31758C15.3382 8.06839 14.7295 8.67703 13.9787 8.67703H12.9988V9.52979C12.9988 9.80593 12.7749 10.0298 12.4988 10.0298C12.2226 10.0298 11.9988 9.80593 11.9988 9.52979V6.45813C11.9988 6.18199 12.2226 5.95813 12.4988 5.95813ZM13.9787 7.67703H12.9988V6.95813H13.9787C14.1773 6.95813 14.3382 7.11906 14.3382 7.31758C14.3382 7.5161 14.1773 7.67703 13.9787 7.67703Z" fill="black"/>
</svg>
