<svg width="16" height="16" viewBox="0 0 16 16" fill="none" xmlns="http://www.w3.org/2000/svg">
<path fill-rule="evenodd" clip-rule="evenodd" d="M7.98831 2.95801C6.66888 2.95801 5.59927 4.02761 5.59927 5.34704C5.59927 6.66647 6.66888 7.73607 7.98831 7.73607C9.30773 7.73607 10.3773 6.66647 10.3773 5.34704C10.3773 4.02761 9.30773 2.95801 7.98831 2.95801ZM6.89927 5.34704C6.89927 4.74558 7.38685 4.25801 7.98831 4.25801C8.58976 4.25801 9.07734 4.74558 9.07734 5.34704C9.07734 5.9485 8.58976 6.43607 7.98831 6.43607C7.38685 6.43607 6.89927 5.9485 6.89927 5.34704Z" fill="black"/>
<path fill-rule="evenodd" clip-rule="evenodd" d="M4.0666 0.958008C2.93442 0.958008 2.0166 1.87583 2.0166 3.00801V10.8747C2.0166 12.0069 2.93442 12.9247 4.0666 12.9247H11.9333C13.0655 12.9247 13.9833 12.0069 13.9833 10.8747V3.00801C13.9833 1.87582 13.0655 0.958008 11.9333 0.958008H4.0666ZM3.3166 3.00801C3.3166 2.59379 3.65239 2.25801 4.0666 2.25801H11.9333C12.3475 2.25801 12.6833 2.59379 12.6833 3.00801V10.8747C12.6833 11.2721 12.3742 11.5973 11.9833 11.623V11.1413C11.9833 9.56731 10.7073 8.29132 9.13327 8.29132H6.8666C5.29259 8.29132 4.0166 9.56731 4.0166 11.1413V11.623C3.6257 11.5973 3.3166 11.2721 3.3166 10.8747V3.00801ZM10.6833 11.1413V11.6247H5.3166V11.1413C5.3166 10.2853 6.01056 9.59132 6.8666 9.59132H9.13327C9.98931 9.59132 10.6833 10.2853 10.6833 11.1413Z" fill="black"/>
<path d="M3.9883 13.8264C3.62932 13.8264 3.3383 14.1174 3.3383 14.4764C3.3383 14.8353 3.62932 15.1264 3.9883 15.1264H11.9883C12.3473 15.1264 12.6383 14.8353 12.6383 14.4764C12.6383 14.1174 12.3473 13.8264 11.9883 13.8264H3.9883Z" fill="black"/>
</svg>
