<svg xmlns="http://www.w3.org/2000/svg" width="16" height="16" fill="none" viewBox="0 0 16 16"><path fill="#000" fill-rule="evenodd" d="M6.6667 2.4762c0-.263.199-.4762.4445-.4762H8.889c.2454 0 .4444.2132.4444.4762v1.4286c0 .789-.597 1.4285-1.3333 1.4285-.7364 0-1.3334-.6396-1.3334-1.4285zM3.5 3h1.8667v.9048c0 1.421 1.096 2.7285 2.6333 2.7285s2.6334-1.3075 2.6334-2.7285V3H12.5C13.8807 3 15 4.1193 15 5.5v7c0 1.3807-1.1193 2.5-2.5 2.5h-9C2.1193 15 1 13.8807 1 12.5v-7C1 4.1193 2.1193 3 3.5 3m-.4775 5.5c0-.6352.5148-1.15 1.15-1.15h2.3333c.6351 0 1.15.5148 1.15 1.15v2.3333c0 .6351-.5149 1.15-1.15 1.15H4.1725c-.6352 0-1.15-.5149-1.15-1.15zM8.6836 8a.65.65 0 0 1 .65-.65h3.012a.65.65 0 0 1 0 1.3h-3.012a.65.65 0 0 1-.65-.65m-4.3611 2.6833V8.65h2.0333v2.0333zm5.0111-.9753a.65.65 0 1 0 0 1.3h3.012a.65.65 0 0 0 0-1.3z"/></svg>