<svg xmlns="http://www.w3.org/2000/svg" width="16" height="16" fill="none" viewBox="0 0 16 16"><path fill="#000" fill-rule="evenodd" d="M12 2.0166c1.4635 0 2.6504 1.1868 2.6504 2.6504v6.667c-.0003 1.4633-1.187 2.6494-2.6504 2.6494H4c-1.4634 0-2.65-1.1861-2.6504-2.6494V4.667c0-1.4636 1.1869-2.6504 2.6504-2.6504zM4 3.3174c-.7456 0-1.3496.604-1.3496 1.3496v6.667c.0003.7453.6042 1.3496 1.3496 1.3496h8c.7454 0 1.3493-.6043 1.3496-1.3496V4.667c0-.7456-.604-1.3496-1.3496-1.3496zM7.333 6c0-.7363-.5967-1.333-1.333-1.333S4.667 5.2637 4.667 6c0 .7364.5967 1.333 1.333 1.333.7364 0 1.333-.5966 1.333-1.333m4.1309-1.3037a.651.651 0 0 1 .5195.6367.6505.6505 0 0 1-.5195.6367l-.1309.0137h-2a.651.651 0 0 1-.6504-.6504.651.651 0 0 1 .6504-.6504h2zm.5195 2.6367a.651.651 0 0 0-.6504-.6504h-2a.651.651 0 0 0-.6504.6504c0 .359.2915.6503.6504.6504h2l.1309-.0137a.6505.6505 0 0 0 .5195-.6367m-5.3379.6836c1.107.0002 2.0047.898 2.0049 2.0049-.0001.7152-.5807 1.2959-1.296 1.2959H4.6456c-.7152 0-1.2958-.5807-1.2959-1.2959.0002-1.107.898-2.0047 2.0049-2.0049zm-1.291 1.3008a.704.704 0 0 0-.7041.6992h2.6992a.704.704 0 0 0-.704-.6992z"/></svg>