<svg xmlns="http://www.w3.org/2000/svg" width="16" height="16" fill="none" viewBox="0 0 16 16"><path fill="#000" fill-rule="evenodd" d="M2.0166 3.008c0-1.1322.9178-2.05 2.05-2.05h7.8667c1.1322 0 2.05.9178 2.05 2.05v7.8666c0 1.1322-.9178 2.05-2.05 2.05H4.0666c-1.1322 0-2.05-.9178-2.05-2.05zm2.05-.75a.75.75 0 0 0-.75.75v7.8666c0 .3974.3091.7226.7.7484v-.4817c0-1.574 1.276-2.85 2.85-2.85h2.2667c1.574 0 2.85 1.276 2.85 2.85v.4817a.75.75 0 0 0 .7-.7484V3.008a.75.75 0 0 0-.75-.75zm3.9217.7c-1.3194 0-2.389 1.0695-2.389 2.389s1.0696 2.389 2.389 2.389 2.389-1.0696 2.389-2.389c0-1.3195-1.0696-2.389-2.389-2.389m-1.089 2.389c0-.6015.4875-1.089 1.089-1.089s1.089.4875 1.089 1.089-.4875 1.089-1.089 1.089-1.089-.4876-1.089-1.089m3.784 6.2776v-.4833c0-.8561-.694-1.55-1.55-1.55H6.8666c-.856 0-1.55.6939-1.55 1.55v.4833zm-6.695 2.2017a.65.65 0 1 0 0 1.3h8a.65.65 0 1 0 0-1.3z"/></svg>