<svg width="16" height="16" viewBox="0 0 16 16" fill="none" xmlns="http://www.w3.org/2000/svg">
<path fill-rule="evenodd" clip-rule="evenodd" d="M3.3501 7.93329C3.3501 7.24293 3.90974 6.68329 4.6001 6.68329H7.4001C8.09045 6.68329 8.6501 7.24293 8.6501 7.93329V10.7333C8.6501 11.4236 8.09045 11.9833 7.4001 11.9833H4.6001C3.90974 11.9833 3.3501 11.4236 3.3501 10.7333V7.93329ZM4.6501 7.98329V10.6833H7.3501V7.98329H4.6501Z" fill="black"/>
<path d="M9.3501 7.99998C9.3501 7.64099 9.64111 7.34998 10.0001 7.34998H12.0001C12.3591 7.34998 12.6501 7.64099 12.6501 7.99998C12.6501 8.35896 12.3591 8.64998 12.0001 8.64998H10.0001C9.64111 8.64998 9.3501 8.35896 9.3501 7.99998Z" fill="black"/>
<path d="M9.3501 9.99998C9.3501 9.64099 9.64111 9.34998 10.0001 9.34998H12.0001C12.3591 9.34998 12.6501 9.64099 12.6501 9.99998C12.6501 10.359 12.3591 10.65 12.0001 10.65H10.0001C9.64111 10.65 9.3501 10.359 9.3501 9.99998Z" fill="black"/>
<path fill-rule="evenodd" clip-rule="evenodd" d="M6.66678 1.34998C6.3078 1.34998 6.01678 1.64099 6.01678 1.99998V3.34998H4.0001C2.53654 3.34998 1.3501 4.53642 1.3501 5.99998V12C1.3501 13.4635 2.53654 14.65 4.0001 14.65H12.0001C13.4637 14.65 14.6501 13.4635 14.6501 12V5.99998C14.6501 4.53642 13.4637 3.34998 12.0001 3.34998H9.98345V1.99998C9.98345 1.64099 9.69244 1.34998 9.33345 1.34998H6.66678ZM9.87449 4.64998C9.60538 5.4261 8.86782 5.98331 8.00012 5.98331C7.13242 5.98331 6.39486 5.4261 6.12575 4.64998H4.0001C3.25451 4.64998 2.6501 5.25439 2.6501 5.99998V12C2.6501 12.7456 3.25451 13.35 4.0001 13.35H12.0001C12.7457 13.35 13.3501 12.7456 13.3501 12V5.99998C13.3501 5.25439 12.7457 4.64998 12.0001 4.64998H9.87449ZM7.31678 3.99998V2.64998H8.68345V3.99998C8.68345 4.37737 8.37751 4.68331 8.00012 4.68331C7.62272 4.68331 7.31678 4.37737 7.31678 3.99998Z" fill="black"/>
</svg>
