<svg xmlns="http://www.w3.org/2000/svg" width="16" height="16" fill="none" viewBox="0 0 16 16"><path fill="#000" fill-rule="evenodd" d="M6.0168 2a.65.65 0 0 1 .65-.65h2.6667a.65.65 0 0 1 .65.65v1.35H12c1.4636 0 2.65 1.1864 2.65 2.65v6c0 1.4635-1.1864 2.65-2.65 2.65H4c-1.4636 0-2.65-1.1865-2.65-2.65V6c0-1.4636 1.1864-2.65 2.65-2.65h2.0167zm1.3.65V4a.6833.6833 0 1 0 1.3667 0V2.65zM8 5.9833c.8677 0 1.6053-.5572 1.8744-1.3333H12c.7456 0 1.35.6044 1.35 1.35v6c0 .7456-.6044 1.35-1.35 1.35H4c-.7456 0-1.35-.6044-1.35-1.35V6c0-.7456.6044-1.35 1.35-1.35h2.1257C6.3948 5.426 7.1324 5.9833 8 5.9833m-4.65 1.95c0-.6904.5596-1.25 1.25-1.25h2.8c.6904 0 1.25.5596 1.25 1.25v2.8c0 .6904-.5596 1.25-1.25 1.25H4.6c-.6904 0-1.25-.5596-1.25-1.25zM10 7.35a.65.65 0 0 0 0 1.3h2a.65.65 0 1 0 0-1.3zm-5.35.6333v2.7h2.7v-2.7zM10 9.35a.65.65 0 0 0 0 1.3h2a.65.65 0 1 0 0-1.3z"/></svg>