<svg xmlns="http://www.w3.org/2000/svg" width="16" height="16" fill="none" viewBox="0 0 16 16"><path fill="#000" fill-rule="evenodd" d="M4.2466 1.4373c-1.795 0-3.25 1.455-3.25 3.25v6.6254c0 1.7949 1.455 3.25 3.25 3.25h7.5061c1.7949 0 3.25-1.4551 3.25-3.25V4.6873c0-1.795-1.4551-3.25-3.25-3.25zm-1.95 3.25c0-1.077.873-1.95 1.95-1.95h3.7431v10.5254H4.2466c-1.077 0-1.95-.873-1.95-1.95zm6.9931 8.5754h2.463c1.0769 0 1.95-.873 1.95-1.95V4.6873c0-1.077-.8731-1.95-1.95-1.95h-2.463zm-3.498-8.03a.65.65 0 0 0-1.3 0v1.456h-.4965a.65.65 0 1 0 0 1.3h.4965v2.8395a.65.65 0 0 0 1.3 0V7.9887h.4974a.65.65 0 1 0 0-1.3h-.4974zm4.8266-.65a.65.65 0 1 0 0 1.3h1.8933a.65.65 0 1 0 0-1.3zm0 2.568a.65.65 0 1 0 0 1.3h1.8933a.65.65 0 1 0 0-1.3zm.75 4.7181a.75.75 0 1 0 0-1.5.75.75 0 0 0 0 1.5"/></svg>