<svg xmlns="http://www.w3.org/2000/svg" width="16" height="16" fill="none" viewBox="0 0 16 16"><path fill="#000" fill-rule="evenodd" d="M5.6667 1.3333c-1.6569 0-3 1.343-3 3v4.6666c0 1.6569 1.3431 3 3 3H13c1.6568 0 3-1.3431 3-3V4.3332c0-1.6568-1.3432-3-3-3zM13 2.6333H5.6667c-.939 0-1.7.761-1.7 1.7v3.9989l1.2152-.7556A1.65 1.65 0 0 1 6.791 7.502l.967.4835a.35.35 0 0 0 .3573-.0263l2.2983-1.6089a1.65 1.65 0 0 1 1.8321-.0403L14.7 7.872V4.3332c0-.9388-.7611-1.7-1.7-1.7M7 5.9999c.5523 0 1-.4477 1-1s-.4477-1-1-1-1 .4477-1 1 .4477 1 1 1M1.3167 6a.65.65 0 1 0-1.3 0v4c0 2.5682 2.0818 4.65 4.65 4.65h6a.65.65 0 0 0 0-1.3h-6c-1.8502 0-3.35-1.4998-3.35-3.35zm13.3395 3.385-.0051-.0033-3.1033-1.9748a.35.35 0 0 0-.3887.0085L8.8608 9.0242a1.65 1.65 0 0 1-1.6841.124l-.967-.4834a.35.35 0 0 0-.3414.0158l-1.7258 1.073c.2778.5608.856.9463 1.5242.9463H13c.8065 0 1.4818-.5616 1.6562-1.315"/></svg>