<svg width="16" height="16" viewBox="0 0 16 16" fill="none" xmlns="http://www.w3.org/2000/svg">
<path d="M6.99995 6.31194C7.55223 6.31194 7.99995 5.86422 7.99995 5.31194C7.99995 4.75965 7.55223 4.31194 6.99995 4.31194C6.44766 4.31194 5.99995 4.75965 5.99995 5.31194C5.99995 5.86422 6.44766 6.31194 6.99995 6.31194Z" fill="black"/>
<path fill-rule="evenodd" clip-rule="evenodd" d="M2.6666 4.64527C2.6666 2.98841 4.00975 1.64526 5.6666 1.64526H12.9999C14.6568 1.64526 15.9999 2.98841 15.9999 4.64526V9.31193C15.9999 10.9688 14.6568 12.3119 12.9999 12.3119H5.6666C4.00975 12.3119 2.6666 10.9688 2.6666 9.31193V4.64527ZM5.6666 2.94526H12.9999C13.9388 2.94526 14.6999 3.70638 14.6999 4.64526V8.18386L12.2456 6.62204C11.6829 6.26395 10.96 6.27986 10.4136 6.66234L8.11521 8.27121C8.00998 8.34487 7.87286 8.35497 7.75797 8.29753L6.79097 7.81402C6.27807 7.55757 5.6688 7.58581 5.18182 7.88861L3.9666 8.6442V4.64527C3.9666 3.70638 4.72772 2.94526 5.6666 2.94526ZM14.651 9.69365L14.6562 9.69687C14.4817 10.4503 13.8064 11.0119 12.9999 11.0119H5.6666C4.9984 11.0119 4.42025 10.6264 4.14242 10.0657L5.86826 8.9926C5.97155 8.92837 6.10079 8.92238 6.20959 8.97678L7.1766 9.46028C7.71821 9.73108 8.36464 9.68346 8.86071 9.33621L11.1591 7.72734C11.275 7.64621 11.4283 7.64284 11.5477 7.71879L14.651 9.69365Z" fill="black"/>
<path d="M1.3166 6.31194C1.3166 5.95295 1.02559 5.66194 0.666602 5.66194C0.307616 5.66194 0.0166016 5.95295 0.0166016 6.31194V10.3119C0.0166016 12.8801 2.09848 14.9619 4.6666 14.9619H10.6666C11.0256 14.9619 11.3166 14.6709 11.3166 14.3119C11.3166 13.953 11.0256 13.6619 10.6666 13.6619H4.6666C2.81645 13.6619 1.3166 12.1621 1.3166 10.3119V6.31194Z" fill="black"/>
</svg>
