<svg xmlns="http://www.w3.org/2000/svg" width="16" height="16" fill="none" viewBox="0 0 16 16"><path fill="#000" fill-rule="evenodd" d="M3.9834 3.3365a.6833.6833 0 0 1 .6833-.6833h3.3335L8 2.6667v2c0 1.1046.8955 2 2 2h3.3167v-.523a.983.983 0 0 0-.2878-.695L9.2241 1.6414a.983.983 0 0 0-.6956-.2882H4.6667c-1.0954 0-1.9833.888-1.9833 1.9833v9.3302c0 1.0954.888 1.9833 1.9833 1.9833h.925a2 2 0 0 1-.2331-1.3h-.692a.6833.6833 0 0 1-.6832-.6833zm7.0924 1.9969L9.3334 3.5898v1.077c0 .3681.2984.6666.6666.6666zm-.0483 2.2157a.6667.6667 0 0 1 .942-.04l1.8148 1.6666a.6666.6666 0 0 1 0 .982l-1.8148 1.6667a.6667.6667 0 0 1-.9019-.982l.5542-.509H7.3334a.6667.6667 0 0 1 0-1.3333h4.2884l-.5542-.509a.6667.6667 0 0 1-.0401-.942m-1.3883 4a.6667.6667 0 0 0-.942-.0401l-1.8148 1.6667a.667.667 0 0 0 0 .982l1.8148 1.6667a.6667.6667 0 0 0 .9019-.982l-.5542-.509h4.2884a.6667.6667 0 0 0 0-1.3334H9.0449l.5542-.5089a.6667.6667 0 0 0 .04-.942"/></svg>