<svg width="16" height="16" viewBox="0 0 16 16" fill="none" xmlns="http://www.w3.org/2000/svg">
<path fill-rule="evenodd" clip-rule="evenodd" d="M4.66644 2.65303C4.28904 2.65303 3.98311 2.95897 3.98311 3.33636V12.6666C3.98311 13.044 4.28904 13.3499 4.66644 13.3499H5.35832C5.34164 13.454 5.3331 13.5598 5.3331 13.6666C5.3331 14.0147 5.42382 14.3529 5.59153 14.6499H4.66644C3.57107 14.6499 2.68311 13.762 2.68311 12.6666V3.33636C2.68311 2.24099 3.57108 1.35303 4.66644 1.35303H8.5283C8.78921 1.35303 9.03942 1.45672 9.22385 1.64127L13.0287 5.44855C13.2129 5.63294 13.3164 5.88296 13.3164 6.14365V6.6666C13.3164 6.6666 12.9479 6.6666 9.99977 6.6666C8.8952 6.6666 7.99977 5.77117 7.99977 4.6666V2.6666L7.99991 2.65303H4.66644ZM9.33311 3.58967L11.0756 5.33327H9.99977C9.63158 5.33327 9.33311 5.03479 9.33311 4.6666V3.58967Z" fill="black"/>
<path d="M11.0273 7.549C11.2763 7.27782 11.698 7.25987 11.9692 7.50891L13.784 9.17558C13.9215 9.30184 13.9998 9.47994 13.9998 9.6666C13.9998 9.85326 13.9215 10.0314 13.784 10.1576L11.9692 11.8243C11.698 12.0733 11.2763 12.0554 11.0273 11.7842C10.7782 11.513 10.7962 11.0913 11.0674 10.8422L11.6216 10.3333H7.33311C6.96492 10.3333 6.66644 10.0348 6.66644 9.6666C6.66644 9.29841 6.96492 8.99993 7.33311 8.99993H11.6216L11.0674 8.49095C10.7962 8.24191 10.7782 7.82018 11.0273 7.549Z" fill="black"/>
<path d="M9.63894 11.549C9.38989 11.2778 8.96816 11.2599 8.69698 11.5089L6.88217 13.1756C6.74469 13.3018 6.66644 13.4799 6.66644 13.6666C6.66644 13.8533 6.74469 14.0314 6.88217 14.1576L8.69698 15.8243C8.96816 16.0733 9.38989 16.0554 9.63894 15.7842C9.88798 15.513 9.87004 15.0913 9.59885 14.8422L9.04463 14.3333H13.3331C13.7013 14.3333 13.9998 14.0348 13.9998 13.6666C13.9998 13.2984 13.7013 12.9999 13.3331 12.9999H9.04463L9.59885 12.491C9.87004 12.2419 9.88798 11.8202 9.63894 11.549Z" fill="black"/>
</svg>
