<svg xmlns="http://www.w3.org/2000/svg" width="16" height="16" fill="none" viewBox="0 0 16 16"><path fill="#000" d="M2 12.65a.65.65 0 1 1 0-1.3h2.0983L5.7733 8l-1.675-3.35H2a.65.65 0 0 1 0-1.3h2.5a.65.65 0 0 1 .5813.3593L6.5 6.5465l1.4186-2.8372A.65.65 0 0 1 8.5 3.35h3.4307l-.8903-.8904a.65.65 0 1 1 .9192-.9192l2 2a.65.65 0 0 1 0 .9192l-2 2a.65.65 0 0 1-.9192 0 .65.65 0 0 1 0-.9192l.8903-.8904h-3.029L7.2267 8l1.675 3.35h3.029l-.8903-.8904a.65.65 0 0 1 0-.9192.65.65 0 0 1 .9192 0l2 2a.65.65 0 0 1 0 .9192l-2 2a.65.65 0 0 1-.9192-.9192l.8903-.8904H8.5a.65.65 0 0 1-.5814-.3593L6.5 9.4534l-1.4187 2.8373A.65.65 0 0 1 4.5 12.65z"/></svg>