<svg width="16" height="16" viewBox="0 0 16 16" fill="none" xmlns="http://www.w3.org/2000/svg">
<path fill-rule="evenodd" clip-rule="evenodd" d="M11.2398 6.0001V4.23918C11.2398 2.44686 9.78679 0.993896 7.99447 0.993896C6.20215 0.993896 4.74918 2.44686 4.74918 4.23918V6.0001L4.6 6.0001C3.16406 6.0001 2 7.16416 2 8.6001V12.4001C2 13.836 3.16406 15.0001 4.6 15.0001H11.4C12.8359 15.0001 14 13.836 14 12.4001V8.6001C14 7.16416 12.8359 6.0001 11.4 6.0001L11.2398 6.0001ZM6.04918 4.23918C6.04918 3.16483 6.92012 2.2939 7.99447 2.2939C9.06882 2.2939 9.93976 3.16483 9.93976 4.23918V6.0001H6.04918V4.23918Z" fill="black"/>
</svg>
