<svg xmlns="http://www.w3.org/2000/svg" width="16" height="16" fill="none" viewBox="0 0 16 16"><path fill="#000" fill-rule="evenodd" d="M3.4 2.0166c-1.1322 0-2.05.9178-2.05 2.05v.6a.65.65 0 0 0 1.3 0v-.6a.75.75 0 0 1 .75-.75h1.2667a.65.65 0 1 0 0-1.3zm3.9334 0a.65.65 0 1 0 0 1.3h1.3333a.65.65 0 1 0 0-1.3zm3.9999 0a.65.65 0 1 0 0 1.3H12.6a.75.75 0 0 1 .75.75v.6a.65.65 0 1 0 1.3 0v-.6c0-1.1322-.9178-2.05-2.05-2.05zm-5.4596 3.857a.65.65 0 0 1 .9193 0l1.6666 1.6667a.65.65 0 0 1 0 .9192L6.793 10.1262a.65.65 0 1 1-.9192-.9192l.557-.557H2a.65.65 0 0 1 0-1.3h4.4308l-.557-.5571a.65.65 0 0 1 0-.9193m7.4763 2.793a.65.65 0 1 0 1.3 0V7.3333a.65.65 0 1 0-1.3 0zm-10.7 2.6667a.65.65 0 1 0-1.3 0v.6c0 1.1322.9178 2.05 2.05 2.05h1.2667a.65.65 0 1 0 0-1.3H3.4a.75.75 0 0 1-.75-.75zm12 0a.65.65 0 1 0-1.3 0v.6a.75.75 0 0 1-.75.75h-1.2667a.65.65 0 1 0 0 1.3H12.6c1.1322 0 2.05-.9178 2.05-2.05zm-7.9666 2a.65.65 0 0 1 .65-.65h1.3333a.65.65 0 1 1 0 1.3H7.3334a.65.65 0 0 1-.65-.65"/></svg>