<svg xmlns="http://www.w3.org/2000/svg" width="16" height="16" fill="none" viewBox="0 0 16 16"><path fill="#000" d="M5.3333 2C3.4927 2 2 3.4927 2 5.3333v5.3334C2 12.5073 3.4927 14 5.3333 14h5.3334C12.5073 14 14 12.5073 14 10.6667V5.3333C14 3.4927 12.5073 2 10.6667 2zM12 3.3333A.667.667 0 0 1 12.6667 4 .667.667 0 0 1 12 4.6667.667.667 0 0 1 11.3333 4 .667.667 0 0 1 12 3.3333M8 4.6667c1.8407 0 3.3333 1.4926 3.3333 3.3333S9.8407 11.3333 8 11.3333 4.6667 9.8407 4.6667 8 6.1593 4.6667 8 4.6667M8 6a2 2 0 1 0 0 4 2 2 0 0 0 0-4"/></svg>