<svg xmlns="http://www.w3.org/2000/svg" width="16" height="16" fill="none" viewBox="0 0 16 16"><path fill="url(#a)" d="M8.0024 1c-2.9225 0-3.7772.003-3.9433.0168-.5998.0499-.973.1443-1.3796.3468-.3133.1556-.5604.336-.8043.589-.4441.4611-.7133 1.0285-.8108 1.703-.0473.3273-.0611.3941-.064 2.0665-.001.5575 0 1.2912 0 2.2752 0 2.9209.0033 3.775.0173 3.9409.0485.5837.14.951.3338 1.3527.3704.769 1.0778 1.3463 1.9112 1.5617.2886.0743.6073.1153 1.0164.1346.1734.0076 1.9403.013 3.7083.013s3.536-.0022 3.705-.0108c.4738-.0223.7489-.0592 1.0531-.1379a2.93 2.93 0 0 0 1.9112-1.5649c.19-.392.2864-.7733.33-1.3266.0095-.1206.0135-2.0438.0135-3.9645 0-1.921-.0043-3.8407-.0138-3.9613-.0442-.5622-.1405-.9402-.3367-1.3398-.161-.3271-.3397-.5714-.5992-.8211-.4631-.4425-1.0295-.7117-1.7044-.8091-.327-.0473-.3921-.0613-2.0654-.0642z"/><path fill="url(#b)" d="M8.0024 1c-2.9225 0-3.7772.003-3.9433.0168-.5998.0499-.973.1443-1.3796.3468-.3133.1556-.5604.336-.8043.589-.4441.4611-.7133 1.0285-.8108 1.703-.0473.3273-.0611.3941-.064 2.0665-.001.5575 0 1.2912 0 2.2752 0 2.9209.0033 3.775.0173 3.9409.0485.5837.14.951.3338 1.3527.3704.769 1.0778 1.3463 1.9112 1.5617.2886.0743.6073.1153 1.0164.1346.1734.0076 1.9403.013 3.7083.013s3.536-.0022 3.705-.0108c.4738-.0223.7489-.0592 1.0531-.1379a2.93 2.93 0 0 0 1.9112-1.5649c.19-.392.2864-.7733.33-1.3266.0095-.1206.0135-2.0438.0135-3.9645 0-1.921-.0043-3.8407-.0138-3.9613-.0442-.5622-.1405-.9402-.3367-1.3398-.161-.3271-.3397-.5714-.5992-.8211-.4631-.4425-1.0295-.7117-1.7044-.8091-.327-.0473-.3921-.0613-2.0654-.0642z"/><path fill="#fff" d="M8.0006 2.5554c-1.4786 0-1.6642.0064-2.245.0329-.5796.0265-.9752.1183-1.3214.253-.358.139-.6618.325-.9645.6277-.3028.3027-.4888.6064-.6284.9644-.135.3463-.2268.742-.2529 1.3214-.026.5808-.0328.7664-.0328 2.245s.0066 1.6637.033 2.2445c.0266.5796.1183.9752.2529 1.3214.1391.3581.3252.6618.6279.9645.3025.3028.6063.4893.9641.6284.3464.1346.7422.2264 1.3217.2529.5808.0264.7662.0329 2.2447.0329 1.4788 0 1.6638-.0065 2.2446-.0329.5796-.0265.9757-.1183 1.3221-.2529.358-.1391.6613-.3256.9638-.6284.3029-.3027.4889-.6064.6284-.9644.1338-.3463.2257-.742.2529-1.3214.0261-.5808.0329-.7659.0329-2.2445s-.0068-1.6642-.0329-2.245c-.0272-.5796-.1191-.9752-.2529-1.3214-.1395-.358-.3255-.6619-.6284-.9645-.3029-.3028-.6057-.4888-.9641-.6278-.3471-.1346-.743-.2264-1.3226-.253-.5808-.0264-.7657-.0328-2.2448-.0328zm-.4884.9811c.145-.0002.3067 0 .4884 0 1.4537 0 1.626.0052 2.2001.0313.5308.0243.8189.113 1.0109.1875.254.0987.4352.2167.6256.4072.1906.1906.3086.372.4075.6261.0745.1917.1633.4798.1875 1.0107.0261.574.0317.7463.0317 2.1993s-.0056 1.6254-.0317 2.1994c-.0243.5308-.113.8189-.1875 1.0106-.0987.2541-.2169.435-.4075.6255s-.3714.3085-.6256.4072c-.1917.0748-.4801.1633-1.0109.1876-.574.0261-.7464.0317-2.2.0317-1.4539 0-1.6262-.0056-2.2001-.0317-.5309-.0245-.819-.1132-1.011-.1877-.254-.0987-.4356-.2167-.6261-.4073s-.3086-.3715-.4075-.6257c-.0745-.1917-.1633-.4798-.1875-1.0107-.026-.574-.0313-.7463-.0313-2.2002s.0052-1.6254.0313-2.1994c.0243-.5308.113-.819.1875-1.0109.0987-.254.2169-.4355.4075-.626s.372-.3086.626-.4075c.192-.0749.4802-.1633 1.011-.1877.5023-.0227.697-.0295 1.7117-.0306zm3.3947.904a.6533.6533 0 1 0 .6533.6532.6533.6533 0 0 0-.6533-.6532m-2.9063.7634c-1.544 0-2.796 1.2519-2.796 2.796s1.252 2.7954 2.796 2.7954c1.5441 0 2.7956-1.2513 2.7956-2.7954s-1.2515-2.796-2.7956-2.796m0 .9811c1.0023 0 1.8149.8125 1.8149 1.8149 0 1.0022-.8126 1.8148-1.8149 1.8148S6.1858 9.0021 6.1858 8c0-1.0024.8125-1.8149 1.8148-1.8149"/><defs><radialGradient id="a" cx="0" cy="0" r="1" gradientTransform="matrix(0 -13.8752 12.905 0 4.719 16.078)" gradientUnits="userSpaceOnUse"><stop stop-color="#fd5"/><stop offset="0" stop-color="#fd5"/><stop offset="1" stop-color="#ff543e"/><stop offset="1" stop-color="#c837ab"/></radialGradient><radialGradient id="b" cx="0" cy="0" r="1" gradientTransform="matrix(1.21737 6.08163 -25.0682 5.02074 -1.345 2.009)" gradientUnits="userSpaceOnUse"><stop stop-color="#3771c8"/><stop offset="0" stop-color="#3771c8"/><stop offset="1" stop-color="#60f" stop-opacity="0"/></radialGradient></defs></svg>