<svg xmlns="http://www.w3.org/2000/svg" width="16" height="16" fill="none" viewBox="0 0 16 16"><path fill="#000" fill-rule="evenodd" d="m7.8367 15.129-.0023-.0006-.004-.0011-.0116-.0031-.0359-.0103a4 4 0 0 1-.121-.0378 6 6 0 0 1-.4152-.156c-.3445-.1436-.8148-.373-1.3356-.7211-1.0438-.6976-2.2912-1.8732-3.1245-3.7801-.4136-.9464-.5068-1.9627-.5068-2.8998V4.132a.65.65 0 0 1 .3505-.577l4.6101-2.3929a1.65 1.65 0 0 1 1.5203 0l4.6101 2.393a.65.65 0 0 1 .3505.5769v3.3452c0 .9649-.0984 2.0158-.543 2.9855-.8378 1.8272-2.0742 2.9889-3.1006 3.6925-.5128.3515-.975.59-1.3128.7418a6.3 6.3 0 0 1-.4067.1671 4 4 0 0 1-.1526.0527l-.011.0035-.0038.0011-.0015.0005c-.0003.0001-.0012.0003-.1725-.5682l.1713.5686a.653.653 0 0 1-.3514.0066m.0026-12.813a.35.35 0 0 1 .3225 0l4.2595 2.211v2.9503c0 .8931-.0949 1.7244-.4247 2.4437-.7189 1.5679-1.776 2.5603-2.6539 3.162-.4392.3011-.8319.503-1.1109.6284a5 5 0 0 1-.243.1025 5 5 0 0 1-.2419-.0937c-.2794-.1165-.6732-.3078-1.1134-.602-.878-.5868-1.9399-1.5819-2.6557-3.2199-.3085-.7058-.398-1.5132-.398-2.3792V4.527zm-.514 4.0809c-.1483.114-.2099.2425-.2099.3774 0 .1489.0334.2368.068.2927.0358.0577.0963.1188.205.177.1458.0781.2909.106.5478.106a.7.7 0 0 1 .0458.0016c.328.009.676.0618 1.0433.2585.2715.1454.519.3522.6962.6383.1782.2878.2628.6194.2628.9773 0 .6113-.3114 1.0958-.7173 1.4079-.2172.1671-.4676.2912-.7312.3694v.3303a.65.65 0 1 1-1.3 0v-.3178c-.548-.1561-.9961-.5167-1.3157-1.0093a.65.65 0 0 1 1.0907-.7075c.2256.348.5103.5026.8527.5026.2281 0 .4544-.0777.611-.1981.1483-.1141.2098-.2425.2098-.3775 0-.1488-.0333-.2367-.068-.2926-.0357-.0577-.0962-.1189-.2049-.177-.1459-.0782-.291-.106-.5479-.106a.7.7 0 0 1-.0457-.0017c-.328-.009-.676-.0617-1.0433-.2585-.2715-.1454-.519-.3522-.6961-.6382-.1784-.2878-.263-.6195-.263-.9774 0-.6113.3115-1.0957.7173-1.4079.2095-.1611.45-.2823.7031-.3608v-.339a.65.65 0 1 1 1.3 0v.3101c.5608.1517 1.0189.5162 1.3439 1.0171a.65.65 0 0 1-1.0907.7075c-.2257-.3479-.5103-.5026-.8528-.5026-.228 0-.4543.0778-.6109.1982"/></svg>