<svg xmlns="http://www.w3.org/2000/svg" width="16" height="16" fill="none" viewBox="0 0 16 16"><path d="M0 16h16V0H0z"/><path fill="#000" fill-rule="evenodd" d="M6.9584 3.2227c0-1.2887-1.0448-2.3334-2.3335-2.3334S2.2915 1.934 2.2915 3.2227s1.0447 2.3334 2.3334 2.3334a2.325 2.325 0 0 0 1.6018-.6366l2.762 1.6982c.16-.4104.3925-.7846.6817-1.1068L6.8866 3.7992a2.34 2.34 0 0 0 .0718-.5765M4.6249 2.1893c.5708 0 1.0335.4627 1.0335 1.0334s-.4627 1.0334-1.0335 1.0334c-.5707 0-1.0334-.4626-1.0334-1.0334 0-.5707.4627-1.0334 1.0334-1.0334M14.7086 7.937c0-1.2888-1.0447-2.3335-2.3334-2.3335s-2.3335 1.0447-2.3335 2.3335c0 .238.0357.4678.1019.6841l-2.8137 1.7301a3.63 3.63 0 0 1 .6816 1.1069l2.8452-1.7493a2.324 2.324 0 0 0 1.5185.5616c1.2887 0 2.3334-1.0447 2.3334-2.3334m-9.5 2.5803V6.8095a3.66 3.66 0 0 1-.5837.0466 3.65 3.65 0 0 1-.7163-.0706v3.7703c-.9383.3023-1.6171 1.1826-1.6171 2.2214 0 1.2888 1.0447 2.3335 2.3334 2.3335s2.3335-1.0447 2.3335-2.3335c0-1.0871-.7435-2.0006-1.7498-2.2598m7.1666-3.6138c.5707 0 1.0334.4627 1.0334 1.0335 0 .5707-.4627 1.0334-1.0334 1.0334s-1.0335-.4627-1.0335-1.0334.4627-1.0335 1.0335-1.0335m-6.7168 5.8736c0-.5707-.4627-1.0334-1.0335-1.0334-.5707 0-1.0334.4627-1.0334 1.0334s.4627 1.0335 1.0334 1.0335 1.0335-.4627 1.0335-1.0335"/></svg>