<svg width="16" height="16" viewBox="0 0 16 16" fill="none" xmlns="http://www.w3.org/2000/svg">
<path fill-rule="evenodd" clip-rule="evenodd" d="M6.89977 3.22284C6.89977 1.93412 5.85506 0.889404 4.56634 0.889404C3.27762 0.889404 2.23291 1.93412 2.23291 3.22284C2.23291 4.51155 3.27762 5.55627 4.56634 5.55627C5.18652 5.55627 5.75019 5.31432 6.16812 4.91967L8.9301 6.61787C9.09012 6.20741 9.32262 5.83321 9.61186 5.51098L6.82801 3.79934C6.87487 3.61495 6.89977 3.4218 6.89977 3.22284ZM4.56634 2.1894C5.13709 2.1894 5.59977 2.65209 5.59977 3.22284C5.59977 3.79358 5.13709 4.25627 4.56634 4.25627C3.99559 4.25627 3.53291 3.79358 3.53291 3.22284C3.53291 2.65209 3.99559 2.1894 4.56634 2.1894Z" fill="black"/>
<path fill-rule="evenodd" clip-rule="evenodd" d="M14.65 7.93719C14.65 6.64847 13.6053 5.60376 12.3166 5.60376C11.0279 5.60376 9.98315 6.64847 9.98315 7.93719C9.98315 8.17525 10.0188 8.40499 10.0851 8.62135L7.27129 10.3514C7.5605 10.6736 7.79296 11.0479 7.95295 11.4583L10.7981 9.709C11.2062 10.0591 11.7367 10.2706 12.3166 10.2706C13.6053 10.2706 14.65 9.22591 14.65 7.93719ZM12.3166 6.90376C12.8873 6.90376 13.35 7.36644 13.35 7.93719C13.35 8.50794 12.8873 8.97062 12.3166 8.97062C11.7458 8.97062 11.2832 8.50794 11.2832 7.93719C11.2832 7.36644 11.7458 6.90376 12.3166 6.90376Z" fill="black"/>
<path fill-rule="evenodd" clip-rule="evenodd" d="M5.15002 6.80963V10.5175C6.15628 10.7767 6.89977 11.6902 6.89977 12.7774C6.89977 14.0661 5.85506 15.1108 4.56634 15.1108C3.27762 15.1108 2.23291 14.0661 2.23291 12.7774C2.23291 11.7385 2.91175 10.8583 3.85002 10.5559V6.78567C4.0816 6.83198 4.32114 6.85627 4.56634 6.85627C4.76503 6.85627 4.95999 6.84032 5.15002 6.80963ZM4.56634 11.7439C5.13709 11.7439 5.59977 12.2066 5.59977 12.7774C5.59977 13.3481 5.13709 13.8108 4.56634 13.8108C3.99559 13.8108 3.53291 13.3481 3.53291 12.7774C3.53291 12.2066 3.99559 11.7439 4.56634 11.7439Z" fill="black"/>
</svg>
