<svg xmlns="http://www.w3.org/2000/svg" width="16" height="16" fill="none" viewBox="0 0 16 16"><path fill="#000" fill-rule="evenodd" d="M5.6485 2.666a.65.65 0 0 0-.5186-.6367l-.1309-.0137h-1c-1.0952 0-1.9834.8882-1.9834 1.9834v1a.65.65 0 0 0 .6504.6495.65.65 0 0 0 .6504-.6495v-1a.6823.6823 0 0 1 .6826-.6826h1l.1309-.0137a.65.65 0 0 0 .5186-.6367m8.332 1.333c0-1.0952-.8882-1.9834-1.9834-1.9834h-1a.65.65 0 0 0-.6494.6504.65.65 0 0 0 .6494.6504h1a.6823.6823 0 0 1 .6826.6826v1a.65.65 0 0 0 .6504.6495.65.65 0 0 0 .6504-.6495zm-3.5401 2.418c.3084 0 .625.0835.878.2676.2556.1862.4399.4717.4863.8584a.135.135 0 0 1-.0322.1045.135.135 0 0 1-.0997.0439h-.7207a.134.134 0 0 1-.1289-.0996c-.0446-.1733-.223-.2441-.3906-.2441-.1492.0001-.2645.058-.3447.1591-.0826.1048-.1376.2684-.1377.4912 0 .2233.0549.3876.1377.4922.0802.1012.1955.159.3447.1592.1712 0 .358-.0732.4063-.288l.0166-.042a.135.135 0 0 1 .1132-.0625h.7198a.1336.1336 0 0 1 .1328.1474c-.044.404-.2314.7022-.4912.8965-.257.1919-.5788.2783-.8897.2783-.4356-.0002-.8119-.161-1.0781-.4443-.2657-.283-.415-.68-.415-1.1368 0-.4565.1496-.8528.415-1.1357.2662-.2834.6424-.4451 1.0781-.4453m-2.3164.4473c-.265-.2838-.6388-.4472-1.0713-.4473-.4309 0-.8038.1634-1.0683.4473-.2638.2831-.413.6788-.4131 1.1337 0 .455.1493.8516.413 1.1348.2645.2836.6378.4463 1.0684.4463.4324-.0001.8064-.1626 1.0713-.4463.2644-.2832.414-.6799.414-1.1348 0-.4546-.1499-.8506-.414-1.1337m-2.9629-.2657a.1345.1345 0 0 0-.1338-.1338h-.7197a.134.134 0 0 0-.1338.1338v2.7999a.134.134 0 0 0 .1338.1327h.7197a.134.134 0 0 0 .1338-.1327zm1.5498.9102c.08-.1025.1936-.1611.3418-.1611.1505 0 .2656.0588.3457.161.0827.106.1367.2702.1368.4893-.0001.2196-.0539.3844-.1368.4903-.08.1022-.1952.161-.3457.1611-.148 0-.2619-.0589-.3418-.1611-.0825-.106-.1366-.2708-.1367-.4903 0-.2194.0542-.3832.1367-.4892m7.2696 3.4883a.65.65 0 0 0-.6504-.6494.65.65 0 0 0-.6504.6494v1a.6823.6823 0 0 1-.6826.6826h-1a.65.65 0 0 0-.6494.6504.65.65 0 0 0 .6494.6504h1c1.0952 0 1.9834-.8882 1.9834-1.9834zm-10.6641 0a.65.65 0 0 0-.6504-.6494.65.65 0 0 0-.6504.6494v1c0 1.0952.8882 1.9834 1.9834 1.9834h1l.1309-.0137a.65.65 0 0 0 .5186-.6367.65.65 0 0 0-.5186-.6367l-.1309-.0137h-1a.6823.6823 0 0 1-.6826-.6826z"/></svg>