<svg xmlns="http://www.w3.org/2000/svg" width="16" height="16" fill="none" viewBox="0 0 16 16"><path fill="#000" d="M2.666 10.348a.65.65 0 0 1 .65.649v1c0 .377.305.683.683.683h1l.131.014a.65.65 0 0 1 .519.637.65.65 0 0 1-.518.637L5 13.982H4c-1.095 0-1.983-.888-1.983-1.983v-1a.65.65 0 0 1 .65-.649m10.663-.002a.65.65 0 0 1 .65.649v1c0 1.095-.888 1.983-1.983 1.983h-1a.65.65 0 0 1-.649-.65.65.65 0 0 1 .649-.65h1a.682.682 0 0 0 .683-.683v-1a.65.65 0 0 1 .65-.649"/><path fill="#000" fill-rule="evenodd" d="M7.053 6.417c.433 0 .806.164 1.071.447.264.283.414.679.414 1.134s-.15.852-.414 1.135c-.265.284-.639.446-1.071.446-.431 0-.804-.163-1.068-.446s-.413-.68-.413-1.135.149-.851.413-1.134c.265-.284.638-.447 1.068-.447m0 .931c-.148 0-.262.059-.342.161-.082.106-.137.27-.137.489 0 .22.054.384.137.49.08.102.194.161.342.161.151 0 .266-.059.346-.161.083-.106.137-.271.137-.49s-.054-.383-.137-.489c-.08-.102-.195-.161-.346-.161m3.387-.931c.308 0 .625.084.878.268.256.186.44.472.486.858a.135.135 0 0 1-.032.105.135.135 0 0 1-.1.044h-.721a.134.134 0 0 1-.129-.1c-.045-.173-.223-.244-.391-.244-.149 0-.264.058-.345.159-.082.105-.138.268-.138.491s.055.388.138.492c.08.101.196.159.345.159.171 0 .358-.073.406-.288l.017-.042a.135.135 0 0 1 .113-.063h.72a.134.134 0 0 1 .133.148c-.044.404-.231.702-.491.897-.257.192-.579.278-.89.278-.436 0-.812-.161-1.078-.444s-.415-.68-.415-1.137c0-.456.15-.853.415-1.136.266-.283.642-.445 1.078-.445" clip-rule="evenodd"/><path fill="#000" d="M5.027 6.465a.135.135 0 0 1 .134.134v2.8a.134.134 0 0 1-.134.133h-.72a.134.134 0 0 1-.134-.133v-2.8a.134.134 0 0 1 .134-.134zm.103-4.436a.65.65 0 0 1 .519.637c0 .314-.222.576-.518.637L5 3.317H4A.682.682 0 0 0 3.317 4v1a.65.65 0 0 1-.65.649.65.65 0 0 1-.65-.649V4c0-1.095.888-1.983 1.983-1.983h1zm6.867-.013c1.095 0 1.983.888 1.983 1.983v1a.65.65 0 0 1-.65.649.65.65 0 0 1-.65-.649v-1a.682.682 0 0 0-.683-.683h-1a.65.65 0 0 1-.649-.65.65.65 0 0 1 .649-.65z"/></svg>