<svg xmlns="http://www.w3.org/2000/svg" width="16" height="16" fill="none" viewBox="0 0 16 16"><path fill="#000" d="M8.0334 3.3814c-.3605.0449-.6266.0238-.6266.0238s-.1038-1.3103.6403-2.0544c.744-.7442 2.0544-.6403 2.0544-.6403s.1039 1.3103-.6402 2.0545c-.388.388-.93.5454-1.3598.6072z"/><path fill="#000" fill-rule="evenodd" d="M13.3035 6.6088c-.0927.056-1.0997.664-1.0885 1.905.0139 1.494 1.2885 2.0086 1.3504 2.0336l.0022.0009a.6655.6655 0 0 1 .364.815c-.0321.1054-.3191 1.0493-.9856 2.0233-.2999.4383-.6098.8724-.963 1.2026-.4432.4144-.9538.677-1.5691.6884-.4581.0084-.7929-.0938-1.1123-.2252-.0544-.0223-.1078-.0463-.162-.0706-.2404-.1079-.4938-.2216-.889-.2216-.4135 0-.6787.1158-.9307.2258a7 7 0 0 1-.128.0549c-.31.1289-.6284.2358-1.0505.2524h-.001c-.4979.0188-.9542-.1601-1.3664-.4752-.4768-.3645-.8957-.9291-1.2638-1.4606-1.2391-1.7915-2.1272-5.0698-.8556-7.2777.6892-1.1963 1.9253-1.9467 3.262-1.9668.509-.0095 1.0064.1489 1.4516.3225a6 6 0 0 1 .2198.092c.1858.0805.3503.1517.4912.1517.136 0 .3078-.0751.5091-.1633.0988-.0432.2046-.0895.317-.1316.5166-.1938 1.1097-.3577 1.7145-.3012.5334.0252 1.9638.2291 2.8877 1.5815a.6657.6657 0 0 1-.204.9442M10.884 8.5261c.0151 1.6234.9636 2.5214 1.5944 2.9403-.131.3139-.336.7376-.6308 1.1686l-.0108.0157c-.2398.3505-.4804.7023-.7627.9663-.1967.1837-.4118.3248-.6848.3298-.318.0058-.533-.0932-.752-.1941a4.4 4.4 0 0 0-.2026-.0891c-.3202-.1281-.6798-.2344-1.1841-.2344-.6124 0-1.0156.1483-1.3912.3071q-.049.0209-.0973.0421c-.2002.0875-.3984.174-.6724.1848-.2542.0095-.4634-.1482-.6644-.3365-.306-.2868-.5733-.6695-.8206-1.0267-.6142-.8879-1.1408-2.2159-1.2374-3.53-.0605-.8222.0463-1.6412.4406-2.3259.4516-.7838 1.254-1.2876 2.13-1.3003h.003c.361-.007.708.134 1.0197.2607q.0698.0286.137.0552c.3717.1468.709.2506.9816.2506.2661 0 .6325-.121 1.0521-.2864l.0805-.0319c.3816-.1516.83-.3299 1.2953-.2827a1 1 0 0 0 .0394.0028c.2613.0109.8965.0847 1.4464.5439-.5.4817-1.12 1.3296-1.1089 2.5701" clip-rule="evenodd"/></svg>