<svg xmlns="http://www.w3.org/2000/svg" width="16" height="16" fill="none" viewBox="0 0 16 16"><path fill="#000" fill-rule="evenodd" d="M14.7629 8.6042q-.2376-.4229-.5952-.711a4.02 4.02 0 0 0-.7769-.4912 20 20 0 0 1-.7768-.3963c-.2386-.1286-.4375-.2662-.596-.4172-.1571-.151-.2371-.3387-.2371-.5645 0-.2415.0858-.4336.258-.5772.1715-.142.4187-.2146.7415-.2146.3431 0 .6623.0434.9585.1301.2954.0868.5181.1832.6659.2886l.4331-1.2994c-.235-.151-.5348-.2654-.898-.344-.3632-.08-.7494-.1196-1.1595-.1196q-.5348.0002-.9692.1361c-.289.0905-.5391.2303-.7516.4187-.2119.1877-.3741.4224-.4886.7058-.1146.2819-.1723.6146-.1723.9989 0 .4448.08.8104.2371 1.0968.1586.2856.3575.5249.596.717.2385.1914.4972.3537.7768.486.2789.1316.5384.2587.7769.3835.2385.125.4367.261.5952.412.1578.151.2371.3462.2371.5877q-.0002.4744-.3279.7065c-.219.154-.5332.2318-.944.2318a2.8 2.8 0 0 1-.5095-.0464 4.2 4.2 0 0 1-.4684-.1121c-.1485-.0456-.2811-.0935-.3992-.1473-.1175-.0523-.2134-.1009-.2869-.1473l-.4439 1.3226c.1816.1055.4641.2101.8468.3156.3841.1061.828.1585 1.3324.1585.3827 0 .7351-.0494 1.0543-.1473q.479-.147.8172-.4509.3372-.306.5239-.7633.1872-.4565.1874-1.0901-.0002-.6314-.2371-1.0565m-6.695-.6041c0-.3835-.0295-.7417-.0857-1.0729-.0577-.332-.147-.6213-.2681-.8695-.1204-.249-.2775-.4434-.4728-.5825-.1945-.1383-.4323-.2086-.7148-.2086q-.735.0002-1.1372.661C5.1198 6.3679 4.985 7.0596 4.985 8c0 .3993.031.7671.0908 1.1013q.0909.5034.2768.8643c.1246.2415.2846.4299.4785.5652.1953.1361.4266.2034.6954.2034.49 0 .869-.2146 1.1386-.6437.268-.43.4028-1.1268.4028-2.0905m1.2676-1.6837c.121.5054.1816 1.0661.1816 1.6837 0 1.3181-.2601 2.3335-.7804 3.0452-.5196.7111-1.2568 1.067-2.2102 1.067-.5102 0-.9534-.098-1.3296-.2931q-.5634-.2939-.931-.8367c-.2458-.3618-.4274-.7947-.5485-1.2994-.121-.504-.1816-1.0647-.1816-1.683 0-1.3174.2587-2.3327.7754-3.0445.5167-.711 1.2554-1.0677 2.2153-1.0677.503 0 .9433.098 1.3195.2939s.6875.4747.9368.8366c.2479.3611.4324.7948.5527 1.298M1.7033 3.8879c-.2198 0-.392.071-.5167.2146C1.062 4.2453 1 4.4188 1 4.6207c0 .2026.062.3715.1866.5076.1247.1353.297.2034.5167.2034s.3971-.068.534-.2034c.1355-.136.204-.305.204-.5076 0-.202-.0685-.3754-.204-.5182-.1369-.1435-.3142-.2146-.534-.2146m-.6842 8.2244h1.4413V6.0577H1.019z" clip-rule="evenodd"/></svg>