<svg xmlns="http://www.w3.org/2000/svg" width="16" height="16" fill="none" viewBox="0 0 16 16"><path fill="#000" d="M11.2873 7.9546q.1519.1224.2529.302.1006.1807.1007.449 0 .2692-.0796.4631-.0794.1944-.2226.3244-.1438.1291-.3472.1915c-.1357.0417-.2854.0626-.448.0626q-.3214.0002-.5661-.0673-.244-.067-.3598-.134l.1886-.562a1 1 0 0 0 .1219.0625 1.4 1.4 0 0 0 .1696.0626q.0942.0286.199.0477.1053.0196.2165.0197.2616-.0001.4011-.0985.1393-.0986.1393-.3002c0-.1026-.0336-.1855-.1007-.2497-.0674-.0642-.1516-.122-.2529-.175a9 9 0 0 0-.3301-.163 1.66 1.66 0 0 1-.3301-.2065q-.152-.1226-.2532-.3047c-.0667-.1216-.1007-.277-.1007-.466q0-.2448.0732-.4244c.0487-.1204.1175-.2202.2076-.2999q.1353-.1202.3193-.1779.1846-.0577.4119-.0578.2612-.0001.4926.0508.2316.05.3815.1461l-.184.5522c-.0628-.0448-.1574-.0858-.2829-.1227q-.1887-.0552-.4072-.0552c-.1372 0-.2422.0308-.3151.0911q-.1097.0914-.1096.2453c0 .096.0339.1757.1007.2398.0674.0642.1519.1227.2532.1773q.152.082.3301.1684a1.7 1.7 0 0 1 .3301.2087"/><path fill="#000" fill-rule="evenodd" d="M8.6446 8q0-.3935-.0771-.7154c-.0512-.2138-.1296-.398-.2349-.5515-.106-.1537-.2382-.2722-.398-.3555q-.24-.1248-.5607-.1248c-.4078 0-.7217.1515-.9412.4536-.2195.3024-.3295.7339-.3295 1.2936q0 .394.0772.7151c.0514.2144.1286.3984.233.5521q.1562.2307.3956.3555.2397.1245.565.1245c.405 0 .7183-.1512.939-.4533Q8.6446 8.8402 8.6446 8m-.6522-.4559c.024.1408.0365.293.0365.456q-.0002.6141-.1712.8881-.1716.2736-.4838.2736-.1712.0002-.2954-.0865-.1237-.0862-.2034-.2401-.079-.1534-.1175-.3673Q6.7192 8.2547 6.719 8c0-.3996.0572-.6935.1718-.8806q.1709-.2807.4831-.2808.1799.0002.3038.0886.1243.0887.2008.2475.0772.158.114.3694" clip-rule="evenodd"/><path fill="#000" d="M4.438 6.344q.08-.091.22-.091c.093 0 .169.03.227.091s.087.134.087.22q0 .129-.087.216-.087.086-.227.086t-.219-.086q-.079-.087-.079-.216c0-.086.026-.159.079-.22m.541 3.403h-.612V7.175h.612z"/><path fill="#000" fill-rule="evenodd" d="M4.6666 2.0166c-1.4635 0-2.65 1.1865-2.65 2.65v6.6667c0 1.4635 1.1865 2.65 2.65 2.65h6.6667c1.4635 0 2.65-1.1865 2.65-2.65V4.6666c0-1.4635-1.1865-2.65-2.65-2.65zm-1.35 2.65c0-.7456.6044-1.35 1.35-1.35h6.6667c.7456 0 1.35.6044 1.35 1.35v6.6667c0 .7456-.6044 1.35-1.35 1.35H4.6666c-.7456 0-1.35-.6044-1.35-1.35z" clip-rule="evenodd"/></svg>