<svg width="16" height="16" viewBox="0 0 16 16" fill="none" xmlns="http://www.w3.org/2000/svg">
<path d="M7.70713 11.4244C7.34814 11.4244 7.05713 11.7155 7.05713 12.0744C7.05713 12.4334 7.34814 12.7244 7.70713 12.7244H8.29288C8.65187 12.7244 8.94288 12.4334 8.94288 12.0744C8.94288 11.7155 8.65187 11.4244 8.29288 11.4244H7.70713Z" fill="black"/>
<path fill-rule="evenodd" clip-rule="evenodd" d="M5.03135 1.10449C3.56779 1.10449 2.38135 2.29094 2.38135 3.75449V12.2457C2.38135 13.7093 3.56779 14.8957 5.03135 14.8957H10.9689C12.4325 14.8957 13.6189 13.7093 13.6189 12.2457V3.75449C13.6189 2.29094 12.4325 1.10449 10.9689 1.10449H5.03135ZM3.68135 3.75449C3.68135 3.00891 4.28576 2.40449 5.03135 2.40449H10.9689C11.7145 2.40449 12.3189 3.00891 12.3189 3.75449V12.2457C12.3189 12.9913 11.7145 13.5957 10.9689 13.5957H5.03135C4.28576 13.5957 3.68135 12.9913 3.68135 12.2457V3.75449Z" fill="black"/>
</svg>
