<svg width="16" height="16" viewBox="0 0 16 16" fill="none" xmlns="http://www.w3.org/2000/svg">
<path d="M3.4001 1.34998C2.26791 1.34998 1.3501 2.26779 1.3501 3.39997V12.6C1.3501 13.7322 2.26791 14.65 3.4001 14.65H7.88766C7.631 14.2703 7.46043 13.8276 7.40397 13.35H3.4001C2.98588 13.35 2.6501 13.0142 2.6501 12.6V3.39997C2.6501 2.98576 2.98588 2.64998 3.4001 2.64998H9.26676C9.68098 2.64998 10.0168 2.98576 10.0168 3.39998V4.73344C10.1208 4.72234 10.2264 4.71664 10.3334 4.71664H11.3168V3.39998C11.3168 2.26779 10.3989 1.34998 9.26676 1.34998H3.4001Z" fill="black"/>
<path d="M6.33344 12.6666C6.70163 12.6666 7.0001 12.3682 7.0001 12C7.0001 11.6318 6.70163 11.3333 6.33344 11.3333C5.96525 11.3333 5.66677 11.6318 5.66677 12C5.66677 12.3682 5.96525 12.6666 6.33344 12.6666Z" fill="black"/>
<path fill-rule="evenodd" clip-rule="evenodd" d="M8.68343 7.66665C8.68343 6.75538 9.42216 6.01665 10.3334 6.01665H13.0001C13.9114 6.01665 14.6501 6.75538 14.6501 7.66665V13C14.6501 13.9112 13.9114 14.65 13.0001 14.65H10.3334C9.42215 14.65 8.68343 13.9113 8.68343 13V7.66665ZM10.3334 7.31665C10.1401 7.31665 9.98343 7.47335 9.98343 7.66665V13C9.98343 13.1933 10.1401 13.35 10.3334 13.35H13.0001C13.1934 13.35 13.3501 13.1933 13.3501 13V7.66665C13.3501 7.47335 13.1934 7.31665 13.0001 7.31665H12.6668V7.49997C12.6668 7.77612 12.4429 7.99997 12.1668 7.99997H11.1668C10.8906 7.99997 10.6668 7.77612 10.6668 7.49997V7.31665H10.3334Z" fill="black"/>
</svg>
