<svg xmlns="http://www.w3.org/2000/svg" width="16" height="16" fill="none" viewBox="0 0 16 16"><path fill="#000" fill-rule="evenodd" d="M3.4 1.35c-1.1322 0-2.05.9178-2.05 2.05v9.2c0 1.1322.9178 2.05 2.05 2.05h4.4875a2.93 2.93 0 0 1-.4836-1.3h-4.004a.75.75 0 0 1-.75-.75V3.4a.75.75 0 0 1 .75-.75h5.8667a.75.75 0 0 1 .75.75v1.3335a3 3 0 0 1 .3167-.0168h.9833V3.4c0-1.1322-.9178-2.05-2.05-2.05zm6.9333 4.6667c-.9113 0-1.65.7387-1.65 1.65V13c0 .9113.7387 1.65 1.65 1.65H13c.9112 0 1.65-.7387 1.65-1.65V7.6667c0-.9113-.7388-1.65-1.65-1.65zm-.35 1.65a.35.35 0 0 1 .35-.35h.3333V7.5a.5.5 0 0 0 .5.5h1a.5.5 0 0 0 .5-.5v-.1833H13a.35.35 0 0 1 .35.35V13a.35.35 0 0 1-.35.35h-2.6667a.35.35 0 0 1-.35-.35zm-3.65 5a.6667.6667 0 1 0 0-1.3334.6667.6667 0 0 0 0 1.3334"/></svg>