<svg xmlns="http://www.w3.org/2000/svg" width="16" height="16" fill="none" viewBox="0 0 16 16"><path fill="#000" fill-rule="evenodd" d="M5.8657 1.0159c-1.2426 0-2.25 1.0073-2.25 2.25v9.468c0 1.2426 1.0074 2.25 2.25 2.25h4.2691c1.2427 0 2.25-1.0074 2.25-2.25v-9.468c0-1.2427-1.0073-2.25-2.25-2.25zm-.95 2.25a.95.95 0 0 1 .95-.95h.8278v.7287a.5.5 0 0 0 .5.5h1.6127a.5.5 0 0 0 .5-.5V2.316h.8286a.95.95 0 0 1 .95.95v9.468a.95.95 0 0 1-.95.95h-4.269a.95.95 0 0 1-.95-.95zm2.7338 8.216a.65.65 0 1 0 0 1.3h.7012a.65.65 0 1 0 0-1.3z"/></svg>