<svg xmlns="http://www.w3.org/2000/svg" width="16" height="16" fill="none" viewBox="0 0 16 16"><path fill="#000" fill-rule="evenodd" d="M2.3001 1.6485V13.698H5.63v-2.1806a5.4 5.4 0 0 0 .4384.1809l.0005.0001q.4181.1515.8611.2341v1.7655h.5167v-1.6932q.2878.0272.5855.0272.3647 0 .7145-.0408v1.7068h.5166v-1.7911a5.5 5.5 0 0 0 .7323-.2085 5.3 5.3 0 0 0 .44-.1815q.0642-.03.1277-.0615v2.2426H12.35c.364 0 .65.286.65.65s-.286.65-.65.65H1.6501a.65.65 0 0 1-.2495-.0476.65.65 0 0 1-.2101-.1428q-.1904-.1904-.1904-.4596V1.6485c0-.364.286-.65.65-.65s.65.286.65.65m8.8674 1.4789q-.655-.6591-1.4471-.9857-.778-.3207-1.6883-.3207t-1.6882.3208q-.7921.3265-1.4471.9856-.6424.6465-.9666 1.4254-.33.7932-.3301 1.7237t.33 1.7237h.0001q.3242.779.9666 1.4254.655.659 1.447.9857.778.3207 1.6883.3207t1.6883-.3207v-.0001q.4936-.2034.9338-.536l3.2301 3.2501c.2566.2582.661.2594.9192.0028s.2594-.661.0028-.9192l-3.2298-3.2498q.3464-.4514.5576-.9589.3301-.7932.3301-1.7237t-.3301-1.7237q-.3241-.779-.9666-1.4254m-.6043 3.1167v1.8975a3 3 0 0 0 .3654-.6385q.2356-.5641.2356-1.2266T10.9286 5.05q-.2296-.5498-.6832-1.0061-.4644-.4673-1.026-.698-.5474-.2248-1.1873-.2248t-1.1873.2249q-.5615.2306-1.026.6979-.4535.4563-.6831 1.0061-.2355.5642-.2356 1.2266 0 .6624.2356 1.2265.179.4287.4942.8006V5.2169c0-.364.286-.65.65-.65s.65.286.65.65v4.0236a2.96 2.96 0 0 0 .5167.141v-2.442c0-.364.286-.65.65-.65s.65.286.65.65v2.4162a2.9 2.9 0 0 0 .5166-.167V6.2442c0-.364.286-.65.65-.65s.65.286.65.65"/></svg>