<svg xmlns="http://www.w3.org/2000/svg" width="16" height="16" fill="none" viewBox="0 0 16 16"><path fill="#000" d="M7.3184 1.3496a.65.65 0 0 1 .9192.0068l2.6286 2.6673h.7461c.9113 0 1.65.7387 1.65 1.65v.7228h1.1379a.65.65 0 0 1 .65.65V9.512a.65.65 0 0 1-.65.65h-2.1655l-1.3-1.3h2.8155V7.6965h-1.1379a.65.65 0 0 1-.65-.65V5.6737a.35.35 0 0 0-.35-.35h-4.216l-1.3-1.3h2.9448L7.3117 2.2688a.65.65 0 0 1 .0067-.9192"/><path fill="#000" fill-rule="evenodd" d="m8.6867 10.162 4.0339 4.0339a.65.65 0 0 0 .9192-.9192L2.4643 2.1012a.65.65 0 1 0-.9192.9192l3.4223 3.4223h-.1277c-2.1481 0-3.8895 1.7414-3.8895 3.8896 0 2.1481 1.7414 3.8895 3.8895 3.8895h4.5254a.65.65 0 1 0 0-1.3H4.8397c-1.4301 0-2.5895-1.1594-2.5895-2.5895s1.1594-2.5896 2.5895-2.5896h.3897V9.512c0 .359.291.65.65.65zm-1.3-1.3-.8573-.8573v.8573z" clip-rule="evenodd"/></svg>