<svg width="16" height="16" viewBox="0 0 16 16" fill="none" xmlns="http://www.w3.org/2000/svg">
<path fill-rule="evenodd" clip-rule="evenodd" d="M10.7681 3.78213C10.7681 4.58294 11.4173 5.23213 12.2181 5.23213H13.5478C14.3486 5.23213 14.9978 4.58294 14.9978 3.78213V2.45244C14.9978 1.65163 14.3486 1.00244 13.5478 1.00244H12.2181C11.4173 1.00244 10.7681 1.65163 10.7681 2.45244V3.78213ZM12.2181 3.93213C12.1352 3.93213 12.0681 3.86497 12.0681 3.78213V2.45244C12.0681 2.3696 12.1352 2.30244 12.2181 2.30244H13.5478C13.6306 2.30244 13.6978 2.3696 13.6978 2.45244V3.78213C13.6978 3.86497 13.6306 3.93213 13.5478 3.93213H12.2181Z" fill="black"/>
<path fill-rule="evenodd" clip-rule="evenodd" d="M10.7681 8.66494C10.7681 9.46575 11.4173 10.1149 12.2181 10.1149H13.5478C14.3486 10.1149 14.9978 9.46575 14.9978 8.66494V7.33525C14.9978 6.53444 14.3486 5.88525 13.5478 5.88525H12.2181C11.4173 5.88525 10.7681 6.53444 10.7681 7.33525V8.66494ZM12.2181 8.81494C12.1352 8.81494 12.0681 8.74778 12.0681 8.66494V7.33525C12.0681 7.25241 12.1352 7.18525 12.2181 7.18525H13.5478C13.6306 7.18525 13.6978 7.25241 13.6978 7.33525V8.66494C13.6978 8.74778 13.6306 8.81494 13.5478 8.81494H12.2181Z" fill="black"/>
<path fill-rule="evenodd" clip-rule="evenodd" d="M12.2181 14.9978C11.4173 14.9978 10.7681 14.3486 10.7681 13.5478V12.2181C10.7681 11.4173 11.4173 10.7681 12.2181 10.7681H13.5478C14.3486 10.7681 14.9978 11.4173 14.9978 12.2181V13.5478C14.9978 14.3486 14.3486 14.9978 13.5478 14.9978H12.2181ZM12.0681 13.5478C12.0681 13.6306 12.1352 13.6978 12.2181 13.6978H13.5478C13.6306 13.6978 13.6978 13.6306 13.6978 13.5478V12.2181C13.6978 12.1352 13.6306 12.0681 13.5478 12.0681H12.2181C12.1352 12.0681 12.0681 12.1352 12.0681 12.2181V13.5478Z" fill="black"/>
<path fill-rule="evenodd" clip-rule="evenodd" d="M5.88525 8.66494C5.88525 9.46575 6.53444 10.1149 7.33525 10.1149H8.66494C9.46575 10.1149 10.1149 9.46575 10.1149 8.66494V7.33525C10.1149 6.53444 9.46575 5.88525 8.66494 5.88525H7.33525C6.53444 5.88525 5.88525 6.53444 5.88525 7.33525V8.66494ZM7.33525 8.81494C7.25241 8.81494 7.18525 8.74778 7.18525 8.66494V7.33525C7.18525 7.25241 7.25241 7.18525 7.33525 7.18525H8.66494C8.74778 7.18525 8.81494 7.25241 8.81494 7.33525V8.66494C8.81494 8.74778 8.74778 8.81494 8.66494 8.81494H7.33525Z" fill="black"/>
<path fill-rule="evenodd" clip-rule="evenodd" d="M7.33525 14.9978C6.53444 14.9978 5.88525 14.3486 5.88525 13.5478V12.2181C5.88525 11.4173 6.53444 10.7681 7.33525 10.7681H8.66494C9.46575 10.7681 10.1149 11.4173 10.1149 12.2181V13.5478C10.1149 14.3486 9.46575 14.9978 8.66494 14.9978H7.33525ZM7.18525 13.5478C7.18525 13.6306 7.25241 13.6978 7.33525 13.6978H8.66494C8.74778 13.6978 8.81494 13.6306 8.81494 13.5478V12.2181C8.81494 12.1352 8.74778 12.0681 8.66494 12.0681H7.33525C7.25241 12.0681 7.18525 12.1352 7.18525 12.2181V13.5478Z" fill="black"/>
<path fill-rule="evenodd" clip-rule="evenodd" d="M1.00244 8.66494C1.00244 9.46575 1.65163 10.1149 2.45244 10.1149H3.78213C4.58294 10.1149 5.23213 9.46575 5.23213 8.66494V7.33525C5.23213 6.53444 4.58294 5.88525 3.78213 5.88525H2.45244C1.65163 5.88525 1.00244 6.53444 1.00244 7.33525V8.66494ZM2.45244 8.81494C2.3696 8.81494 2.30244 8.74778 2.30244 8.66494V7.33525C2.30244 7.25241 2.3696 7.18525 2.45244 7.18525H3.78213C3.86497 7.18525 3.93213 7.25241 3.93213 7.33525V8.66494C3.93213 8.74778 3.86497 8.81494 3.78213 8.81494H2.45244Z" fill="black"/>
<path fill-rule="evenodd" clip-rule="evenodd" d="M2.45244 14.9978C1.65163 14.9978 1.00244 14.3486 1.00244 13.5478V12.2181C1.00244 11.4173 1.65163 10.7681 2.45244 10.7681H3.78213C4.58294 10.7681 5.23213 11.4173 5.23213 12.2181V13.5478C5.23213 14.3486 4.58294 14.9978 3.78213 14.9978H2.45244ZM2.30244 13.5478C2.30244 13.6306 2.3696 13.6978 2.45244 13.6978H3.78213C3.86497 13.6978 3.93213 13.6306 3.93213 13.5478V12.2181C3.93213 12.1352 3.86497 12.0681 3.78213 12.0681H2.45244C2.3696 12.0681 2.30244 12.1352 2.30244 12.2181V13.5478Z" fill="black"/>
</svg>
