<svg xmlns="http://www.w3.org/2000/svg" width="16" height="16" fill="none" viewBox="0 0 16 16"><path fill="#000" fill-rule="evenodd" d="M12.2179 5.232c-.8008 0-1.45-.6492-1.45-1.45V2.4523c0-.8008.6492-1.45 1.45-1.45h1.3297c.8008 0 1.45.6492 1.45 1.45V3.782c0 .8008-.6492 1.45-1.45 1.45zm-.15-1.45a.15.15 0 0 0 .15.15h1.3297a.15.15 0 0 0 .15-.15V2.4523a.15.15 0 0 0-.15-.15h-1.3297a.15.15 0 0 0-.15.15zm.15 6.3328c-.8008 0-1.45-.6492-1.45-1.45V7.3351c0-.8008.6492-1.45 1.45-1.45h1.3297c.8008 0 1.45.6492 1.45 1.45v1.3297c0 .8008-.6492 1.45-1.45 1.45zm-9.7656 0c-.8008 0-1.45-.6492-1.45-1.45V7.3351c0-.8008.6492-1.45 1.45-1.45H3.782c.8008 0 1.45.6492 1.45 1.45v1.3297c0 .8008-.6492 1.45-1.45 1.45zm4.8828 0c-.8008 0-1.45-.6492-1.45-1.45V7.3351c0-.8008.6492-1.45 1.45-1.45h1.3297c.8008 0 1.45.6492 1.45 1.45v1.3297c0 .8008-.6492 1.45-1.45 1.45zm4.7328-1.45a.15.15 0 0 0 .15.15h1.3297a.15.15 0 0 0 .15-.15V7.3351a.15.15 0 0 0-.15-.15h-1.3297a.15.15 0 0 0-.15.15zm-9.7656 0a.15.15 0 0 0 .15.15H3.782a.15.15 0 0 0 .15-.15V7.3351a.15.15 0 0 0-.15-.15H2.4523a.15.15 0 0 0-.15.15zm4.8828 0a.15.15 0 0 0 .15.15h1.3297a.15.15 0 0 0 .15-.15V7.3351a.15.15 0 0 0-.15-.15H7.3351a.15.15 0 0 0-.15.15zm-4.7328 6.3328c-.8008 0-1.45-.6492-1.45-1.45v-1.3297c0-.8008.6492-1.45 1.45-1.45H3.782c.8008 0 1.45.6492 1.45 1.45v1.3297c0 .8008-.6492 1.45-1.45 1.45zm3.4328-1.45c0 .8008.6492 1.45 1.45 1.45h1.3297c.8008 0 1.45-.6492 1.45-1.45v-1.3297c0-.8008-.6492-1.45-1.45-1.45H7.3351c-.8008 0-1.45.6492-1.45 1.45zm4.8828 0c0 .8008.6492 1.45 1.45 1.45h1.3297c.8008 0 1.45-.6492 1.45-1.45v-1.3297c0-.8008-.6492-1.45-1.45-1.45h-1.3297c-.8008 0-1.45.6492-1.45 1.45zm-8.4656 0a.15.15 0 0 0 .15.15H3.782a.15.15 0 0 0 .15-.15v-1.3297a.15.15 0 0 0-.15-.15H2.4523a.15.15 0 0 0-.15.15zm5.0328.15a.15.15 0 0 1-.15-.15v-1.3297a.15.15 0 0 1 .15-.15h1.3297a.15.15 0 0 1 .15.15v1.3297a.15.15 0 0 1-.15.15zm4.8828 0a.15.15 0 0 1-.15-.15v-1.3297a.15.15 0 0 1 .15-.15h1.3297a.15.15 0 0 1 .15.15v1.3297a.15.15 0 0 1-.15.15z"/></svg>