<svg xmlns="http://www.w3.org/2000/svg" width="16" height="16" fill="none" viewBox="0 0 16 16"><path fill="#000" fill-rule="evenodd" d="M4.6833 4.0167V3c0-.9113.7387-1.65 1.65-1.65h3.3333c.9113 0 1.65.7387 1.65 1.65v1.0167H13c.9112 0 1.65.7387 1.65 1.65V13c0 .9113-.7388 1.65-1.65 1.65H3c-.9113 0-1.65-.7388-1.65-1.65V5.6667c0-.9113.7387-1.65 1.65-1.65zM5.9833 3a.35.35 0 0 1 .35-.35h3.3333a.35.35 0 0 1 .35.35v1.0167H5.9833zM13.35 5.6666v3.0167H2.65V5.6667a.35.35 0 0 1 .35-.35h10a.35.35 0 0 1 .35.35m-3.3333 5v-.6833H5.9833v.6833a.65.65 0 1 1-1.3 0v-.6833H2.65V13a.35.35 0 0 0 .35.35h10a.35.35 0 0 0 .35-.35V9.9833h-2.0333v.6833a.65.65 0 0 1-1.3 0"/></svg>