<svg width="16" height="16" viewBox="0 0 16 16" fill="none" xmlns="http://www.w3.org/2000/svg">
<path d="M2.07349 10.5986C2.07349 9.67446 2.82696 8.92532 3.75641 8.92532H7.09509C8.02454 8.92532 8.77801 9.67446 8.77801 10.5986V11.9434C8.77801 12.1744 8.58964 12.3617 8.35728 12.3617H2.49422C2.26185 12.3617 2.07349 12.1745 2.07349 11.9434V10.5986Z" fill="black"/>
<path d="M7.04737 6.41508C7.04737 7.30549 6.32138 8.02731 5.42582 8.02731C4.53027 8.02731 3.80428 7.30549 3.80428 6.41508C3.80428 5.52467 4.53027 4.80285 5.42582 4.80285C6.32138 4.80285 7.04737 5.52467 7.04737 6.41508Z" fill="black"/>
<path d="M12.1768 5.46196C12.1768 6.4378 11.3811 7.22886 10.3997 7.22886C9.41819 7.22886 8.62255 6.4378 8.62255 5.46196C8.62255 4.48613 9.41819 3.69507 10.3997 3.69507C11.3811 3.69507 12.1768 4.48613 12.1768 5.46196Z" fill="black"/>
<path d="M7.78903 8.33008C7.65849 8.38151 7.70545 8.54267 7.84586 8.54267C8.77531 8.54267 9.52878 9.29181 9.52878 10.2159V11.9791H6.72577L13.6528 11.9791C13.8851 11.9791 14.0735 11.7918 14.0735 11.5608V9.88626C14.0735 8.96215 13.32 8.21301 12.3906 8.21301H8.40869C8.18987 8.21301 7.9808 8.25453 7.78903 8.33008Z" fill="black"/>
</svg>
