<svg xmlns="http://www.w3.org/2000/svg" width="16" height="16" fill="none" viewBox="0 0 16 16"><path fill="#000" d="M4.9098 8c0-1.833 1.483-3.2243 3.1924-3.2243 1.0907 0 2.0892.5664 2.6691 1.4525.0586.0895.1566.1471.2636.1471h2.5438c.1994 0 .3432-.1912.2756-.3787C13.0219 3.6904 10.7922 2 8.1022 2 4.6783 2 2 4.7386 2 8s2.6783 6 6.1022 6c2.7239 0 4.976-1.7333 5.7829-4.0843.0642-.1868-.0795-.3747-.277-.3747h-2.5203c-.1102 0-.2106.061-.2683.155-.5718.9295-1.5958 1.5283-2.7173 1.5283-1.7094 0-3.1924-1.3913-3.1924-3.2243"/></svg>