<svg xmlns="http://www.w3.org/2000/svg" width="16" height="16" fill="none" viewBox="0 0 16 16"><path fill="#000" fill-rule="evenodd" d="M12.1768 5.462c0 .9758-.7957 1.7669-1.7771 1.7669-.9815 0-1.7771-.7911-1.7771-1.767s.7956-1.7668 1.7771-1.7668 1.7771.791 1.7771 1.7669m-5.1294.953c0 .8905-.726 1.6123-1.6216 1.6123s-1.6215-.7218-1.6215-1.6122.726-1.6122 1.6215-1.6122 1.6216.7218 1.6216 1.6122M7.789 8.33c-.1305.0515-.0835.2127.0569.2127.9294 0 1.6829.7491 1.6829 1.6732v1.7632h4.124c.2323 0 .4207-.1873.4207-.4183V9.8863c0-.9242-.7535-1.6733-1.6829-1.6733h-3.982c-.2187 0-.4278.0415-.6196.117m-5.7155 2.2686c0-.9241.7535-1.6733 1.683-1.6733H7.095c.9294 0 1.683.7492 1.683 1.6733v1.3448a.4.4 0 0 1-.0016.0357c-.0182.2143-.199.3826-.4192.3826h-5.863c-.2325 0-.4208-.1873-.4208-.4183z"/></svg>