<svg width="16" height="16" viewBox="0 0 16 16" fill="none" xmlns="http://www.w3.org/2000/svg">
<path d="M4.88752 5.6658C5.31722 5.6658 5.66556 5.31746 5.66556 4.88776C5.66556 4.45806 5.31722 4.10972 4.88752 4.10972C4.45781 4.10972 4.10947 4.45806 4.10947 4.88776C4.10947 5.31746 4.45781 5.6658 4.88752 5.6658Z" fill="black"/>
<path fill-rule="evenodd" clip-rule="evenodd" d="M5.6657 1.12573C3.15821 1.12573 1.12549 3.15845 1.12549 5.66595C1.12549 8.17343 3.15821 10.2062 5.6657 10.2062C6.16895 10.2062 6.65402 10.124 7.10763 9.97221L8.12787 10.9925V12.6683C8.12787 13.0273 8.41889 13.3183 8.77787 13.3183H9.82645L10.0924 14.3821C10.1647 14.6714 10.4247 14.8744 10.723 14.8744H14.2242C14.5832 14.8744 14.8742 14.5834 14.8742 14.2244V11.8903C14.8742 11.7179 14.8057 11.5526 14.6838 11.4307L10.0609 6.80783C10.1556 6.44246 10.2059 6.0597 10.2059 5.66595C10.2059 3.15845 8.17319 1.12573 5.6657 1.12573ZM2.42549 5.66595C2.42549 3.87642 3.87618 2.42573 5.6657 2.42573C7.45522 2.42573 8.90591 3.87642 8.90591 5.66595C8.90591 6.05455 8.83779 6.4258 8.71338 6.76934L8.57264 7.15799L13.5742 12.1595V13.5744H11.2305L10.9645 12.5107C10.8922 12.2213 10.6322 12.0183 10.334 12.0183H9.42787V10.7232C9.42787 10.5508 9.35939 10.3855 9.23749 10.2636L7.40876 8.43487L6.99917 8.6201C6.5933 8.80365 6.14235 8.90616 5.6657 8.90616C3.87618 8.90616 2.42549 7.45546 2.42549 5.66595Z" fill="black"/>
</svg>
