<svg xmlns="http://www.w3.org/2000/svg" width="16" height="16" fill="none" viewBox="0 0 16 16"><path fill="#000" fill-rule="evenodd" d="M1.1255 5.6658c0-2.5075 2.0327-4.5402 4.5402-4.5402s4.5402 2.0327 4.5402 4.5402c0 .3938-.0503.7766-.145 1.142l4.6229 4.6227a.65.65 0 0 1 .1904.4597v2.3341a.65.65 0 0 1-.65.65H10.723a.65.65 0 0 1-.6306-.4924l-.266-1.0637H8.778a.65.65 0 0 1-.65-.65v-1.6759L7.1076 9.9721a4.54 4.54 0 0 1-1.4419.2339c-2.5075 0-4.5402-2.0327-4.5402-4.5402m4.5402-3.2402c-1.7895 0-3.2402 1.4507-3.2402 3.2402S3.8762 8.906 5.6657 8.906a3.23 3.23 0 0 0 1.3335-.286l.4096-.1852 1.8287 1.8287a.65.65 0 0 1 .1904.4596v1.2951h.906a.65.65 0 0 1 .6306.4924l.266 1.0637h2.3437v-1.4149L8.5727 7.1579l.1407-.3887a3.23 3.23 0 0 0 .1925-1.1034c0-1.7895-1.4507-3.2402-3.2402-3.2402m-.0002 2.462a.778.778 0 1 1-1.556 0 .778.778 0 0 1 1.556 0"/></svg>