<svg xmlns="http://www.w3.org/2000/svg" width="16" height="16" fill="none" viewBox="0 0 16 16"><path fill="#000" fill-rule="evenodd" d="M6.1953 1.5286a.6667.6667 0 0 1 .9428 0l.862.862.8619-.862a.6667.6667 0 0 1 .9428.9428L8.4714 3.8047a.6667.6667 0 0 1-.9428 0L6.1953 2.4714a.6667.6667 0 0 1 0-.9428M.6667 8c0-1.4728 1.1939-2.6667 2.6666-2.6667h9.3334c1.4727 0 2.6666 1.194 2.6666 2.6667v4c0 1.4727-1.1939 2.6667-2.6666 2.6667H3.3333C1.8606 14.6667.6667 13.4727.6667 12zm12-1.3334C13.4031 6.6667 14 7.2637 14 8v4c0 .7364-.5969 1.3333-1.3333 1.3333H3.3333C2.597 13.3333 2 12.7364 2 12V8c0-.7364.597-1.3334 1.3333-1.3334zM6.3334 8A.3333.3333 0 0 0 6 8.3333V9c0 .184.1493.3333.3334.3333H7A.3333.3333 0 0 0 7.3334 9v-.6667A.3333.3333 0 0 0 7 8zM9 8a.3333.3333 0 0 0-.3333.3333V9c0 .184.1492.3333.3333.3333h.6667A.3333.3333 0 0 0 10 9v-.6667A.3333.3333 0 0 0 9.6667 8zm2.3333.3333A.3334.3334 0 0 1 11.6667 8h.6666a.3334.3334 0 0 1 .3334.3333V9a.3334.3334 0 0 1-.3334.3333h-.6666A.3334.3334 0 0 1 11.3333 9zm-8 0A.3333.3333 0 0 1 3.6667 8h.6667a.3333.3333 0 0 1 .3333.3333V9a.3333.3333 0 0 1-.3333.3333h-.6667A.3333.3333 0 0 1 3.3333 9zM6 11a.3333.3333 0 0 1 .3334-.3333h3.3333A.3333.3333 0 0 1 10 11v.6667A.3333.3333 0 0 1 9.6667 12H6.3334A.3334.3334 0 0 1 6 11.6667zm-2.3333-.3333A.3333.3333 0 0 0 3.3333 11v.6667c0 .184.1493.3333.3334.3333h.6667a.3334.3334 0 0 0 .3333-.3333V11a.3333.3333 0 0 0-.3333-.3333zm8 0a.3334.3334 0 0 0-.3334.3333v.6667c0 .184.1493.3333.3334.3333h.6666a.3334.3334 0 0 0 .3334-.3333V11a.3334.3334 0 0 0-.3334-.3333z"/></svg>