<svg width="16" height="16" viewBox="0 0 16 16" fill="none" xmlns="http://www.w3.org/2000/svg">
<path d="M7.13791 1.52851C6.87756 1.26816 6.45545 1.26816 6.1951 1.52851C5.93475 1.78886 5.93475 2.21097 6.1951 2.47132L7.52843 3.80466C7.78878 4.06501 8.21089 4.06501 8.47124 3.80466L9.80457 2.47132C10.0649 2.21097 10.0649 1.78886 9.80457 1.52851C9.54423 1.26816 9.12212 1.26816 8.86177 1.52851L7.99984 2.39044L7.13791 1.52851Z" fill="black"/>
<path d="M3.33317 8.33325C3.33317 8.14916 3.48241 7.99992 3.6665 7.99992H4.33317C4.51727 7.99992 4.6665 8.14916 4.6665 8.33325V8.99992C4.6665 9.18401 4.51727 9.33325 4.33317 9.33325H3.6665C3.48241 9.33325 3.33317 9.18401 3.33317 8.99992V8.33325Z" fill="black"/>
<path d="M3.6665 10.6666C3.48241 10.6666 3.33317 10.8158 3.33317 10.9999V11.6666C3.33317 11.8507 3.48241 11.9999 3.6665 11.9999H4.33317C4.51727 11.9999 4.6665 11.8507 4.6665 11.6666V10.9999C4.6665 10.8158 4.51727 10.6666 4.33317 10.6666H3.6665Z" fill="black"/>
<path d="M5.99984 8.33325C5.99984 8.14916 6.14908 7.99992 6.33317 7.99992H6.99984C7.18393 7.99992 7.33317 8.14916 7.33317 8.33325V8.99992C7.33317 9.18401 7.18393 9.33325 6.99984 9.33325H6.33317C6.14908 9.33325 5.99984 9.18401 5.99984 8.99992V8.33325Z" fill="black"/>
<path d="M6.33317 10.6666C6.14908 10.6666 5.99984 10.8158 5.99984 10.9999V11.6666C5.99984 11.8507 6.14908 11.9999 6.33317 11.9999H9.6665C9.8506 11.9999 9.99984 11.8507 9.99984 11.6666V10.9999C9.99984 10.8158 9.8506 10.6666 9.6665 10.6666H6.33317Z" fill="black"/>
<path d="M8.6665 8.33325C8.6665 8.14916 8.81574 7.99992 8.99984 7.99992H9.6665C9.8506 7.99992 9.99984 8.14916 9.99984 8.33325V8.99992C9.99984 9.18401 9.8506 9.33325 9.6665 9.33325H8.99984C8.81574 9.33325 8.6665 9.18401 8.6665 8.99992V8.33325Z" fill="black"/>
<path d="M11.6665 7.99992C11.4824 7.99992 11.3332 8.14916 11.3332 8.33325V8.99992C11.3332 9.18401 11.4824 9.33325 11.6665 9.33325H12.3332C12.5173 9.33325 12.6665 9.18401 12.6665 8.99992V8.33325C12.6665 8.14916 12.5173 7.99992 12.3332 7.99992H11.6665Z" fill="black"/>
<path d="M11.3332 10.9999C11.3332 10.8158 11.4824 10.6666 11.6665 10.6666H12.3332C12.5173 10.6666 12.6665 10.8158 12.6665 10.9999V11.6666C12.6665 11.8507 12.5173 11.9999 12.3332 11.9999H11.6665C11.4824 11.9999 11.3332 11.8507 11.3332 11.6666V10.9999Z" fill="black"/>
<path fill-rule="evenodd" clip-rule="evenodd" d="M3.33317 5.33325C1.86041 5.33325 0.666504 6.52716 0.666504 7.99992V11.9999C0.666504 13.4727 1.86041 14.6666 3.33317 14.6666H12.6665C14.1393 14.6666 15.3332 13.4727 15.3332 11.9999V7.99992C15.3332 6.52716 14.1393 5.33325 12.6665 5.33325H3.33317ZM13.9998 7.99992C13.9998 7.26354 13.4029 6.66658 12.6665 6.66658H3.33317C2.59679 6.66658 1.99984 7.26354 1.99984 7.99992V11.9999C1.99984 12.7363 2.59679 13.3333 3.33317 13.3333H12.6665C13.4029 13.3333 13.9998 12.7363 13.9998 11.9999V7.99992Z" fill="black"/>
</svg>
