<svg xmlns="http://www.w3.org/2000/svg" width="16" height="16" fill="none" viewBox="0 0 16 16"><path fill="#000" fill-rule="evenodd" d="M3.5 3.625c-1.3807 0-2.5 1.1193-2.5 2.5v3.75c0 1.3807 1.1193 2.5 2.5 2.5h9c1.3807 0 2.5-1.1193 2.5-2.5v-3.75c0-1.3807-1.1193-2.5-2.5-2.5zm9 1.3h-9c-.6627 0-1.2.5373-1.2 1.2v3.75c0 .6627.5373 1.2 1.2 1.2h9c.6627 0 1.2-.5373 1.2-1.2v-3.75c0-.6627-.5373-1.2-1.2-1.2M3.5906 6.4446a.3.3 0 0 1 .3-.3h.625a.3.3 0 0 1 .3.3v.625a.3.3 0 0 1-.3.3h-.625a.3.3 0 0 1-.3-.3zm2.531 0a.3.3 0 0 1 .3-.3h.625a.3.3 0 0 1 .3.3v.625a.3.3 0 0 1-.3.3h-.625a.3.3 0 0 1-.3-.3zm2.5314 0a.3.3 0 0 1 .3-.3h.625a.3.3 0 0 1 .3.3v.625a.3.3 0 0 1-.3.3h-.625a.3.3 0 0 1-.3-.3zm2.8314-.3a.3.3 0 0 0-.3.3v.625a.3.3 0 0 0 .3.3h.625a.3.3 0 0 0 .3-.3v-.625a.3.3 0 0 0-.3-.3zM3.8906 8.6304a.3.3 0 0 0-.3.3v.625a.3.3 0 0 0 .3.3h.625a.3.3 0 0 0 .3-.3v-.625a.3.3 0 0 0-.3-.3zm2.531 0a.3.3 0 0 0-.3.3v.625a.3.3 0 0 0 .3.3H9.578a.3.3 0 0 0 .3-.3v-.625a.3.3 0 0 0-.3-.3zm4.7628.3a.3.3 0 0 1 .3-.3h.625a.3.3 0 0 1 .3.3v.625a.3.3 0 0 1-.3.3h-.625a.3.3 0 0 1-.3-.3z"/></svg>