<svg width="16" height="16" viewBox="0 0 16 16" fill="none" xmlns="http://www.w3.org/2000/svg">
<path d="M6.41848 8.00005C6.94256 8.00005 7.36741 7.5752 7.36741 7.05113C7.36741 6.52705 6.94256 6.1022 6.41848 6.1022C5.8944 6.1022 5.46956 6.52705 5.46956 7.05113C5.46956 7.5752 5.8944 8.00005 6.41848 8.00005Z" fill="black"/>
<path d="M10.5304 7.05113C10.5304 7.5752 10.1055 8.00005 9.58145 8.00005C9.05737 8.00005 8.63252 7.5752 8.63252 7.05113C8.63252 6.52705 9.05737 6.1022 9.58145 6.1022C10.1055 6.1022 10.5304 6.52705 10.5304 7.05113Z" fill="black"/>
<path d="M7.99998 11.1631C9.04813 11.1631 9.89783 10.3134 9.89783 9.26529H6.10212C6.10212 10.3134 6.95182 11.1631 7.99998 11.1631Z" fill="black"/>
<path fill-rule="evenodd" clip-rule="evenodd" d="M7.9999 13.7284C10.2866 13.7284 12.258 12.3892 13.1769 10.4543C14.2284 10.1339 14.9935 9.15634 14.9935 8.00005C14.9935 6.84375 14.2284 5.86615 13.1769 5.54579C12.258 3.61085 10.2866 2.27173 7.9999 2.27173C5.71316 2.27173 3.74181 3.61085 2.82291 5.54579C1.77139 5.86615 1.00635 6.84375 1.00635 8.00005C1.00635 9.15634 1.77139 10.1339 2.82291 10.4543C3.74181 12.3892 5.71316 13.7284 7.9999 13.7284ZM7.9999 12.4284C10.0106 12.4284 11.7083 11.0883 12.2486 9.25263C12.3073 9.26097 12.3672 9.26528 12.4282 9.26528C13.127 9.26528 13.6935 8.69882 13.6935 8.00005C13.6935 7.30128 13.127 6.73481 12.4282 6.73481C12.3672 6.73481 12.3073 6.73913 12.2486 6.74747C11.7083 4.91176 10.0106 3.57173 7.9999 3.57173C5.98924 3.57173 4.29155 4.91176 3.75122 6.74747C3.69254 6.73913 3.63256 6.73481 3.57158 6.73481C2.87281 6.73481 2.30635 7.30128 2.30635 8.00005C2.30635 8.69882 2.87281 9.26528 3.57158 9.26528C3.63256 9.26528 3.69254 9.26097 3.75122 9.25263C4.29155 11.0883 5.98924 12.4284 7.9999 12.4284Z" fill="black"/>
</svg>
