<svg xmlns="http://www.w3.org/2000/svg" width="16" height="16" fill="none" viewBox="0 0 16 16"><defs><linearGradient id="a" x1="11" x2="2" y1="-1" y2="8" gradientUnits="userSpaceOnUse"><stop offset="0" stop-color="var(--icon--ai--violet, rgb(195,61,170))"/><stop offset="1" stop-color="var(--icon--ai--marina, rgb(66,105,231))"/></linearGradient><linearGradient id="b" x1="1" x2="7" y1="8" y2="8" gradientUnits="userSpaceOnUse"><stop offset="0" stop-color="var(--icon--ai--green, rgb(41,204,177))"/><stop offset="1" stop-color="var(--icon--ai--green_0, rgb(41,204,177))" stop-opacity="0"/></linearGradient></defs><path fill="url(#a)" fill-rule="evenodd" d="M9.6529 1.476a.651.651 0 0 1 .8437.0654.65.65 0 0 1 .0635.8437L9.7857 3.439c-.5595.761-.9808 1.5654-.9854 2.5732-.001.2304.0213.45.0616.6611.027.1416.0614.2796.1044.414.1733.5415.4688 1.0299.8194 1.507l.4131.5624c.3163-.3324.615-.6606.8925-.9814.6172-.7135 1.1309-1.3887 1.5157-1.9766.0222-.034.046-.0662.0673-.0996a10 10 0 0 0 .2217-.3643 7 7 0 0 0 .1768-.3242c.1033-.2027.1777-.378.2236-.5234.0012-.0038.0008-.008.002-.0117-.0033.001-.0065.0028-.0098.0039-.291.0918-.702.296-1.2119.622-.5389.3446-1.155.8042-1.8106 1.3555-.1112-.279-.1662-.5506-.165-.8388.0013-.2847.0564-.5523.1621-.8243.3905-.2984.7636-.5635 1.1133-.787.5509-.3522 1.0722-.6251 1.5205-.7667.2233-.0704.4637-.1198.6982-.1113.2391.0088.5229.0807.7471.3047l.0772.0869a1 1 0 0 1 .1074.17c.007.0138.0132.0279.0195.042q.0115.0252.0215.0507c.0046.012.0085.0241.0127.0361.0058.0166.0107.0332.0156.0498a1.2 1.2 0 0 1 .0323.1367 1.35 1.35 0 0 1 .0195.1749c.0063.1757-.0201.3548-.0635.5273a3 3 0 0 1-.0488.1709c-.0708.2241-.1739.4666-.3037.7217-.1297.2552-.2859.5234-.4619.7988-.0806.126-.168.254-.2588.3857a16 16 0 0 1-.2539.3584 19 19 0 0 1-.2081.2793c-.0459.0606-.092.1222-.1396.1836-.6378.8242-1.4253 1.7193-2.3164 2.6104-.8872.8872-1.7783 1.6721-2.5996 2.3086a20 20 0 0 1-.3906.2949 17 17 0 0 1-.377.2705l-.044.0303c-.139.0961-.2736.1887-.4062.2734-.482.3081-.942.5544-1.3496.7061a3.6 3.6 0 0 1-.1719.0595 3 3 0 0 1-.1699.0479c-.1727.0433-.3521.0698-.5283.0635-.1494-.0055-.316-.0358-.4746-.1123a1 1 0 0 1-.2715-.1924c-.2242-.2242-.2968-.508-.3057-.7471-.0085-.2346.041-.4749.1114-.6982.1415-.4484.4144-.9696.7666-1.5205.2242-.3509.4903-.7253.79-1.1172.275-.118.5396-.1766.8398-.1787.294-.002.5577.0536.834.1699-.5571.6614-1.0219 1.283-1.3691 1.8262-.326.5099-.5303.9209-.622 1.2119l-.003.0097c.0034-.001.0072-.0008.0107-.0019a2.7 2.7 0 0 0 .2403-.0908c.2621-.1115.5891-.2868.9716-.5313.6158-.3936 1.3327-.9382 2.0938-1.5976a28 28 0 0 0 .9844-.8965l-.624-.4405c-.6171-.4352-1.2268-.8004-1.9776-.9189a3.4 3.4 0 0 0-.5479-.04c-1.0154.007-1.7478.4346-2.4912.959l-1.1328.7997a.6504.6504 0 0 1-.833-.0703.6504.6504 0 0 1-.0752-.832l.8067-1.1611c.5228-.7521.9051-1.473.9052-2.4844 0-1.0117-.3899-1.7433-.9052-2.4844l-.8067-1.1601a.6506.6506 0 0 1 .0791-.836.651.651 0 0 1 .838-.0595l1.0644.7773c.7563.5529 1.5622.9511 2.5547.9512.9924 0 1.808-.3861 2.581-.9512zm4.2392 8.1865a.6507.6507 0 0 0-.9053.162c-.3074.4419-.8951 1.098-1.5488 1.7511-.6504.6497-1.3256 1.2558-1.79 1.6025a.651.651 0 0 0-.1319.9102.65.65 0 0 0 .9092.1318c.5357-.3999 1.2611-1.0548 1.9317-1.7246.6672-.6666 1.3217-1.3891 1.6972-1.9287a.65.65 0 0 0-.1621-.9043"/><path fill="url(#b)" fill-rule="evenodd" d="M9.6529 1.476a.651.651 0 0 1 .8437.0654.65.65 0 0 1 .0635.8437L9.7857 3.439c-.5595.761-.9808 1.5654-.9854 2.5732-.001.2304.0213.45.0616.6611.027.1416.0614.2796.1044.414.1733.5415.4688 1.0299.8194 1.507l.4131.5624c.3163-.3324.615-.6606.8925-.9814.6172-.7135 1.1309-1.3887 1.5157-1.9766.0222-.034.046-.0662.0673-.0996a10 10 0 0 0 .2217-.3643 7 7 0 0 0 .1768-.3242c.1033-.2027.1777-.378.2236-.5234.0012-.0038.0008-.008.002-.0117-.0033.001-.0065.0028-.0098.0039-.291.0918-.702.296-1.2119.622-.5389.3446-1.155.8042-1.8106 1.3555-.1112-.279-.1662-.5506-.165-.8388.0013-.2847.0564-.5523.1621-.8243.3905-.2984.7636-.5635 1.1133-.787.5509-.3522 1.0722-.6251 1.5205-.7667.2233-.0704.4637-.1198.6982-.1113.2391.0088.5229.0807.7471.3047l.0772.0869a1 1 0 0 1 .1074.17c.007.0138.0132.0279.0195.042q.0115.0252.0215.0507c.0046.012.0085.0241.0127.0361.0058.0166.0107.0332.0156.0498a1.2 1.2 0 0 1 .0323.1367 1.35 1.35 0 0 1 .0195.1749c.0063.1757-.0201.3548-.0635.5273a3 3 0 0 1-.0488.1709c-.0708.2241-.1739.4666-.3037.7217-.1297.2552-.2859.5234-.4619.7988-.0806.126-.168.254-.2588.3857a16 16 0 0 1-.2539.3584 19 19 0 0 1-.2081.2793c-.0459.0606-.092.1222-.1396.1836-.6378.8242-1.4253 1.7193-2.3164 2.6104-.8872.8872-1.7783 1.6721-2.5996 2.3086a20 20 0 0 1-.3906.2949 17 17 0 0 1-.377.2705l-.044.0303c-.139.0961-.2736.1887-.4062.2734-.482.3081-.942.5544-1.3496.7061a3.6 3.6 0 0 1-.1719.0595 3 3 0 0 1-.1699.0479c-.1727.0433-.3521.0698-.5283.0635-.1494-.0055-.316-.0358-.4746-.1123a1 1 0 0 1-.2715-.1924c-.2242-.2242-.2968-.508-.3057-.7471-.0085-.2346.041-.4749.1114-.6982.1415-.4484.4144-.9696.7666-1.5205.2242-.3509.4903-.7253.79-1.1172.275-.118.5396-.1766.8398-.1787.294-.002.5577.0536.834.1699-.5571.6614-1.0219 1.283-1.3691 1.8262-.326.5099-.5303.9209-.622 1.2119l-.003.0097c.0034-.001.0072-.0008.0107-.0019a2.7 2.7 0 0 0 .2403-.0908c.2621-.1115.5891-.2868.9716-.5313.6158-.3936 1.3327-.9382 2.0938-1.5976a28 28 0 0 0 .9844-.8965l-.624-.4405c-.6171-.4352-1.2268-.8004-1.9776-.9189a3.4 3.4 0 0 0-.5479-.04c-1.0154.007-1.7478.4346-2.4912.959l-1.1328.7997a.6504.6504 0 0 1-.833-.0703.6504.6504 0 0 1-.0752-.832l.8067-1.1611c.5228-.7521.9051-1.473.9052-2.4844 0-1.0117-.3899-1.7433-.9052-2.4844l-.8067-1.1601a.6506.6506 0 0 1 .0791-.836.651.651 0 0 1 .838-.0595l1.0644.7773c.7563.5529 1.5622.9511 2.5547.9512.9924 0 1.808-.3861 2.581-.9512zm4.2392 8.1865a.6507.6507 0 0 0-.9053.162c-.3074.4419-.8951 1.098-1.5488 1.7511-.6504.6497-1.3256 1.2558-1.79 1.6025a.651.651 0 0 0-.1319.9102.65.65 0 0 0 .9092.1318c.5357-.3999 1.2611-1.0548 1.9317-1.7246.6672-.6666 1.3217-1.3891 1.6972-1.9287a.65.65 0 0 0-.1621-.9043"/></svg>