<svg xmlns="http://www.w3.org/2000/svg" width="16" height="16" fill="none" viewBox="0 0 16 16"><path fill="#000" fill-rule="evenodd" d="M10.4966 1.5414a.651.651 0 0 0-.8437-.0655l-1.0645.7774c-.773.5651-1.5886.9512-2.581.9512-.9925 0-1.7984-.3983-2.5547-.9512L2.3882 1.476a.651.651 0 0 0-.8379.0595.6506.6506 0 0 0-.079.836l.8066 1.1601c.5153.7411.9052 1.4727.9052 2.4844 0 1.0115-.3824 1.7323-.9052 2.4844l-.8067 1.1611a.65.65 0 0 0 .0752.832.65.65 0 0 0 .833.0703l1.1328-.7998c.7434-.5243 1.4758-.952 2.4913-.959a3.4 3.4 0 0 1 .5478.04c.7508.1186 1.3605.4838 1.9775.919l.624.4405a28 28 0 0 1-.9843.8965c-.761.6594-1.478 1.204-2.0938 1.5976-.3825.2445-.7095.4198-.9716.5313a2.8 2.8 0 0 1-.2403.0908c-.0035.0011-.0073.0009-.0107.0019l.003-.0097c.0917-.291.296-.702.622-1.2119.3472-.5432.812-1.1648 1.3691-1.8262-.2763-.1162-.54-.1719-.834-.1699-.3002.0021-.5647.0607-.8398.1787-.2997.3918-.5658.7663-.79 1.1172-.3522.5509-.6251 1.0721-.7666 1.5205-.0705.2233-.1199.4636-.1114.6982.0089.2391.0815.5229.3057.7471a1 1 0 0 0 .2715.1924c.1587.0765.3252.1068.4746.1123.1761.0063.3556-.0202.5283-.0635a3 3 0 0 0 .17-.0479 3.6 3.6 0 0 0 .1718-.0595c.4077-.1517.8677-.398 1.3496-.7061.1326-.0847.2672-.1773.4063-.2734q.022-.015.0439-.0303.1852-.129.377-.2705a19 19 0 0 0 .3906-.2949c.8213-.6365 1.7124-1.4214 2.5996-2.3086.8911-.8911 1.6786-1.7862 2.3164-2.6104.0476-.0614.0937-.123.1397-.1836.0712-.0943.1409-.1871.208-.2793a17 17 0 0 0 .2539-.3584c.0908-.1318.1782-.2597.2588-.3857.176-.2754.3322-.5436.4619-.7988.1298-.2551.2329-.4976.3037-.7217a3 3 0 0 0 .0488-.171c.0434-.1725.0698-.3515.0635-.5273a1.35 1.35 0 0 0-.0195-.1748 1.2 1.2 0 0 0-.0323-.1367c-.0049-.0166-.0098-.0332-.0156-.0498-.0042-.012-.0081-.0241-.0127-.0361a1 1 0 0 0-.0215-.0508c-.0063-.014-.0125-.028-.0195-.042a1 1 0 0 0-.1074-.17l-.0772-.0868c-.2242-.224-.508-.296-.7471-.3047-.2345-.0085-.4749.0409-.6982.1113-.4483.1416-.9696.4145-1.5205.7666-.3497.2236-.7228.4886-1.1133.7871-.1057.272-.1608.5396-.1621.8243-.0012.2882.0538.5599.165.8388.6556-.5513 1.2717-1.011 1.8106-1.3554.5099-.326.9209-.5303 1.2119-.6221.0033-.001.0065-.0029.0098-.004-.0012.0037-.0008.008-.002.0118-.0459.1455-.1203.3207-.2236.5234a7 7 0 0 1-.1768.3243 10 10 0 0 1-.2216.3642c-.0214.0334-.0452.0657-.0674.0996-.3848.5879-.8985 1.2631-1.5157 1.9766-.2775.3208-.5762.649-.8925.9814l-.4131-.5625c-.3506-.477-.6461-.9654-.8194-1.5068a3.5 3.5 0 0 1-.1044-.414 3.44 3.44 0 0 1-.0616-.6612c.0046-1.0078.4259-1.8122.9854-2.5733l.7744-1.0537a.65.65 0 0 0-.0635-.8437m3.3955 8.121a.6506.6506 0 0 0-.9052.1622c-.3075.4418-.8952 1.0979-1.5489 1.751-.6504.6497-1.3256 1.2558-1.79 1.6025a.651.651 0 0 0-.1319.9102.65.65 0 0 0 .9092.1318c.5357-.3999 1.2611-1.0548 1.9317-1.7246.6672-.6666 1.3217-1.3892 1.6972-1.9287a.65.65 0 0 0-.1621-.9043"/></svg>