<svg width="16" height="16" viewBox="0 0 16 16" fill="none" xmlns="http://www.w3.org/2000/svg">
<path d="M8.05856 5.45039C7.32437 5.45039 6.7292 6.04557 6.7292 6.77975C6.7292 7.51394 7.32437 8.10911 8.05856 8.10911C8.79274 8.10911 9.38792 7.51394 9.38792 6.77975C9.38792 6.04557 8.79274 5.45039 8.05856 5.45039Z" fill="black"/>
<path fill-rule="evenodd" clip-rule="evenodd" d="M7.17521 1.22106C7.68572 0.926314 8.3147 0.926314 8.82521 1.22106L13.4596 3.89672C13.9701 4.19147 14.2846 4.73618 14.2846 5.32567V10.677C14.2846 11.2665 13.9701 11.8112 13.4596 12.1059L8.82521 14.7816C8.3147 15.0763 7.68572 15.0764 7.17521 14.7816L2.54082 12.1059C2.03031 11.8112 1.71582 11.2665 1.71582 10.677V5.32567C1.71582 4.73618 2.03031 4.19147 2.54082 3.89672L7.17521 1.22106ZM5.4292 6.77975C5.4292 5.32759 6.6064 4.15039 8.05856 4.15039C9.51071 4.15039 10.6879 5.32759 10.6879 6.77975C10.6879 8.02851 9.8174 9.07394 8.6501 9.3423V11.844C8.6501 12.203 8.35908 12.494 8.0001 12.494C7.64111 12.494 7.3501 12.203 7.3501 11.844V9.31256C6.24207 9.00328 5.4292 7.98644 5.4292 6.77975Z" fill="black"/>
</svg>
