<svg xmlns="http://www.w3.org/2000/svg" width="16" height="16" fill="none" viewBox="0 0 16 16"><path fill="#000" fill-rule="evenodd" d="M8.8252 1.221a1.65 1.65 0 0 0-1.65 0L2.5408 3.8968a1.65 1.65 0 0 0-.825 1.429v5.3513c0 .5895.3145 1.1342.825 1.4289l4.6344 2.6757a1.65 1.65 0 0 0 1.65 0l4.6344-2.6757a1.65 1.65 0 0 0 .825-1.4289V5.3257a1.65 1.65 0 0 0-.825-1.429zm-.7666 2.9294c-1.4522 0-2.6294 1.1772-2.6294 2.6294 0 1.2066.8129 2.2235 1.9209 2.5328v2.5314a.65.65 0 1 0 1.3 0V9.3423c1.1673-.2684 2.0378-1.3138 2.0378-2.5625 0-1.4522-1.1772-2.6294-2.6293-2.6294M6.7292 6.7798c0-.7342.5952-1.3294 1.3294-1.3294s1.3293.5952 1.3293 1.3294S8.7927 8.109 8.0586 8.109s-1.3294-.595-1.3294-1.3292"/></svg>