<svg width="16" height="16" viewBox="0 0 16 16" fill="none" xmlns="http://www.w3.org/2000/svg">
<g clip-path="url(#clip0_38639_314)">
<path d="M4.4478 4.67218C4.89101 4.67218 5.25031 4.31289 5.25031 3.86968C5.25031 3.42647 4.89101 3.06718 4.4478 3.06718C4.00459 3.06718 3.6453 3.42647 3.6453 3.86968C3.6453 4.31289 4.00459 4.67218 4.4478 4.67218Z" fill="black"/>
<path d="M7.65491 3.86968C7.65491 4.31289 7.29562 4.67218 6.85241 4.67218C6.4092 4.67218 6.0499 4.31289 6.0499 3.86968C6.0499 3.42647 6.4092 3.06718 6.85241 3.06718C7.29562 3.06718 7.65491 3.42647 7.65491 3.86968Z" fill="black"/>
<path fill-rule="evenodd" clip-rule="evenodd" d="M2.90367 1.21582C1.82672 1.21582 0.953674 2.08887 0.953674 3.16582V4.57434C0.953674 5.6513 1.82672 6.52434 2.90368 6.52434H13.1037C14.1806 6.52434 15.0537 5.6513 15.0537 4.57434V3.16582C15.0537 2.08886 14.1806 1.21582 13.1037 1.21582H2.90367ZM2.25367 3.16582C2.25367 2.80684 2.54469 2.51582 2.90367 2.51582H13.1037C13.4627 2.51582 13.7537 2.80684 13.7537 3.16582V4.57434C13.7537 4.93333 13.4627 5.22434 13.1037 5.22434H2.90368C2.54469 5.22434 2.25367 4.93333 2.25367 4.57434V3.16582Z" fill="black"/>
<path d="M0.953674 9.5121C0.953674 8.43515 1.82672 7.5621 2.90367 7.5621H13.1037C14.1806 7.5621 15.0537 8.43515 15.0537 9.5121V10.2164H13.7537V9.5121C13.7537 9.15312 13.4627 8.8621 13.1037 8.8621H2.90367C2.54469 8.8621 2.25367 9.15312 2.25367 9.5121V10.2164H0.953674V9.5121Z" fill="black"/>
<path d="M8.28122 11.0349C8.53144 10.9515 8.80696 11.0375 8.96522 11.2485L9.8891 12.4804L10.813 11.2485C10.9712 11.0375 11.2468 10.9515 11.497 11.0349C11.7472 11.1183 11.916 11.3524 11.916 11.6162V15.3872C11.916 15.7256 11.6416 15.9999 11.3032 15.9999C10.9648 15.9999 10.6904 15.7256 10.6904 15.3872V13.4545L10.3793 13.8694C10.2636 14.0237 10.082 14.1145 9.8891 14.1145C9.69623 14.1145 9.5146 14.0237 9.39888 13.8694L9.08777 13.4545V15.3872C9.08777 15.7256 8.81342 15.9999 8.475 15.9999C8.13657 15.9999 7.86222 15.7256 7.86222 15.3872V11.6162C7.86222 11.3524 8.03099 11.1183 8.28122 11.0349Z" fill="black"/>
<path d="M3.18624 11.126C3.45698 11.329 3.51185 11.7131 3.30879 11.9839L2.17044 13.5017L3.30879 15.0195C3.51185 15.2902 3.45698 15.6743 3.18624 15.8774C2.91549 16.0804 2.5314 16.0256 2.32834 15.7548L1.54587 14.7115V15.3872C1.54587 15.7256 1.27152 15.9999 0.933092 15.9999C0.594663 15.9999 0.320312 15.7256 0.320312 15.3872V11.6162C0.320312 11.2778 0.594663 11.0034 0.933092 11.0034C1.27152 11.0034 1.54587 11.2778 1.54587 11.6162V12.2918L2.32834 11.2485C2.5314 10.9778 2.91549 10.9229 3.18624 11.126Z" fill="black"/>
<path d="M4.70404 11.0034C5.04247 11.0034 5.31682 11.2778 5.31682 11.6162V14.4444C5.31682 14.6267 5.46455 14.7744 5.64678 14.7744C5.82901 14.7744 5.97674 14.6267 5.97674 14.4444V11.6162C5.97674 11.2778 6.25109 11.0034 6.58952 11.0034C6.92795 11.0034 7.2023 11.2778 7.2023 11.6162V14.4444C7.2023 15.3035 6.50587 15.9999 5.64678 15.9999C4.78769 15.9999 4.09126 15.3035 4.09126 14.4444V11.6162C4.09126 11.2778 4.36562 11.0034 4.70404 11.0034Z" fill="black"/>
<path d="M14.7259 11.4676C14.6577 11.1948 14.4126 11.0034 14.1314 11.0034C13.8502 11.0034 13.6051 11.1948 13.5369 11.4676L12.5942 15.2385C12.5121 15.5669 12.7117 15.8996 13.0401 15.9816C13.3684 16.0637 13.7011 15.8641 13.7832 15.5358L13.9028 15.0572H14.36L14.4797 15.5358C14.5618 15.8641 14.8945 16.0637 15.2228 15.9816C15.5511 15.8996 15.7507 15.5669 15.6686 15.2385L14.7259 11.4676Z" fill="black"/>
</g>
<defs>
<clipPath id="clip0_38639_314">
<rect width="16" height="16" fill="white"/>
</clipPath>
</defs>
</svg>
