<svg xmlns="http://www.w3.org/2000/svg" width="16" height="16" fill="none" viewBox="0 0 16 16"><path fill="#000" fill-rule="evenodd" d="M3.7863 2.0116c-1.5111 0-2.7361 1.225-2.7361 2.7361v5.5147c0 1.5112 1.225 2.7362 2.7361 2.7362h1.903l1.7234 1.7493a.824.824 0 0 0 1.1737 0l1.7234-1.7493h1.9042c1.5112 0 2.7362-1.225 2.7362-2.7362V4.7477c0-1.511-1.225-2.7361-2.7362-2.7361zM2.3502 4.7477c0-.7931.643-1.4361 1.4361-1.4361h8.4277c.7932 0 1.4362.643 1.4362 1.4361v5.5147c0 .7932-.643 1.4362-1.4362 1.4362h-2.1762a.65.65 0 0 0-.463.1938l-1.5752 1.5988-1.5752-1.5988a.65.65 0 0 0-.463-.1938h-2.175c-.7932 0-1.4362-.643-1.4362-1.4362zm6.2474.1201a.65.65 0 0 0-1.1949 0l-2.0322 4.742a.65.65 0 1 0 1.1949.512l.4118-.9608h2.046l.4118.9608a.65.65 0 0 0 1.1949-.512zM8.0002 6.774l.4658 1.087h-.9317z"/></svg>