<svg width="16" height="16" viewBox="0 0 16 16" fill="none" xmlns="http://www.w3.org/2000/svg">
<path fill-rule="evenodd" clip-rule="evenodd" d="M8.0003 4.474C8.26032 4.474 8.49532 4.62896 8.59774 4.86795L10.63 9.60985C10.7714 9.93981 10.6185 10.3219 10.2886 10.4633C9.95863 10.6048 9.57651 10.4519 9.4351 10.1219L9.0233 9.16108H6.9773L6.5655 10.1219C6.42409 10.4519 6.04197 10.6048 5.71201 10.4633C5.38205 10.3219 5.2292 9.93981 5.37061 9.60985L7.40285 4.86795C7.50528 4.62896 7.74028 4.474 8.0003 4.474ZM7.53444 7.86108H8.46616L8.0003 6.77408L7.53444 7.86108Z" fill="black"/>
<path fill-rule="evenodd" clip-rule="evenodd" d="M1.05029 4.74786C1.05029 3.23673 2.27531 2.01172 3.78644 2.01172H12.2141C13.7253 2.01172 14.9503 3.23673 14.9503 4.74786V10.2625C14.9503 11.7737 13.7253 12.9987 12.2141 12.9987H10.3099L8.58656 14.748C8.26386 15.0755 7.7355 15.0755 7.41281 14.748L5.68942 12.9987H3.78644C2.27531 12.9987 1.05029 11.7737 1.05029 10.2625V4.74786ZM3.78644 3.31172C2.99328 3.31172 2.35029 3.9547 2.35029 4.74786V10.2625C2.35029 11.0557 2.99328 11.6987 3.78644 11.6987H5.9615C6.13557 11.6987 6.30237 11.7685 6.42453 11.8925L7.99968 13.4913L9.57483 11.8925C9.697 11.7685 9.8638 11.6987 10.0379 11.6987H12.2141C13.0073 11.6987 13.6503 11.0557 13.6503 10.2625V4.74786C13.6503 3.9547 13.0073 3.31172 12.2141 3.31172H3.78644Z" fill="black"/>
</svg>
