<svg width="16" height="16" viewBox="0 0 16 16" fill="none" xmlns="http://www.w3.org/2000/svg">
<path fill-rule="evenodd" clip-rule="evenodd" d="M3.88799 2.77417C2.53489 2.77417 1.43799 3.87107 1.43799 5.22417V9.08271C1.43799 10.4358 2.53489 11.5327 3.88799 11.5327H12.112C13.4651 11.5327 14.562 10.4358 14.562 9.08271V5.22417C14.562 3.87107 13.4651 2.77417 12.112 2.77417H3.88799ZM2.73799 5.22417C2.73799 4.58904 3.25286 4.07417 3.88799 4.07417H12.112C12.7471 4.07417 13.262 4.58904 13.262 5.22417V9.08271C13.262 9.71784 12.7471 10.2327 12.112 10.2327H3.88799C3.25286 10.2327 2.73799 9.71784 2.73799 9.08271V5.22417Z" fill="black"/>
<path d="M1.66221 12.4055C1.30322 12.4055 1.01221 12.6965 1.01221 13.0555C1.01221 13.4145 1.30322 13.7055 1.66221 13.7055H14.3378C14.6968 13.7055 14.9878 13.4145 14.9878 13.0555C14.9878 12.6965 14.6968 12.4055 14.3378 12.4055H1.66221Z" fill="black"/>
</svg>
