<svg xmlns="http://www.w3.org/2000/svg" width="16" height="16" fill="none" viewBox="0 0 16 16"><path fill="#000" fill-rule="evenodd" d="M1.438 5.2242c0-1.3531 1.0969-2.45 2.45-2.45h8.224c1.3531 0 2.45 1.0969 2.45 2.45v3.8585c0 1.3531-1.0969 2.45-2.45 2.45H3.888c-1.3531 0-2.45-1.0969-2.45-2.45zm2.45-1.15c-.6351 0-1.15.5149-1.15 1.15v3.8585c0 .6351.5149 1.15 1.15 1.15h8.224c.6351 0 1.15-.5148 1.15-1.15V5.2242c0-.6351-.5149-1.15-1.15-1.15zm-2.8758 8.9813a.65.65 0 0 1 .65-.65h12.6756a.65.65 0 1 1 0 1.3H1.6622a.65.65 0 0 1-.65-.65"/></svg>