<svg xmlns="http://www.w3.org/2000/svg" width="16" height="16" fill="none" viewBox="0 0 16 16"><path fill="#000" fill-rule="evenodd" d="M6.9738 2.435a1.85 1.85 0 0 1 2.0524 0l3.8367 2.5578c1.0984.7322 1.0984 2.3463 0 3.0786L9.0262 10.629a1.85 1.85 0 0 1-2.0524 0L3.1371 8.0714c-1.0984-.7323-1.0984-2.3464 0-3.0787zm1.3313 1.0816a.55.55 0 0 0-.6102 0L3.8582 6.0745c-.3265.2177-.3265.6976 0 .9153L7.695 9.5474a.55.55 0 0 0 .6102 0l3.8366-2.5577c.3266-.2177.3266-.6976 0-.9153zm-5.846 6.6549a.65.65 0 0 1 .9014-.1803l2.7029 1.8019a3.35 3.35 0 0 0 3.8054-.0614l2.4201-1.7286a.65.65 0 0 1 .7556 1.0579l-2.4201 1.7286a4.65 4.65 0 0 1-5.2821.0852l-2.7029-1.8019a.65.65 0 0 1-.1802-.9014"/></svg>