<svg xmlns="http://www.w3.org/2000/svg" width="16" height="16" fill="none" viewBox="0 0 16 16"><path fill="#000" fill-rule="evenodd" d="M2.729 14.707c-.8008 0-1.45-.6492-1.45-1.45V2.743c0-.8008.6492-1.45 1.45-1.45h3.0254c.8008 0 1.45.6492 1.45 1.45v10.514c0 .8008-.6492 1.45-1.45 1.45zm7.5165-13.4123c-.8008 0-1.45.6492-1.45 1.45v3.03c0 .8008.6492 1.45 1.45 1.45h3.0254c.8008 0 1.45-.6492 1.45-1.45v-3.03c0-.8008-.6492-1.45-1.45-1.45zM2.5791 13.257a.15.15 0 0 0 .15.15h3.0253a.15.15 0 0 0 .15-.15V2.743a.15.15 0 0 0-.15-.15H2.729a.15.15 0 0 0-.15.15zm7.5164-10.5123a.15.15 0 0 1 .15-.15h3.0254a.15.15 0 0 1 .15.15v3.03a.15.15 0 0 1-.15.15h-3.0254a.15.15 0 0 1-.15-.15zm.15 6.0323c-.8008 0-1.45.6492-1.45 1.45v3.03c0 .8008.6492 1.45 1.45 1.45h3.0254c.8008 0 1.45-.6492 1.45-1.45v-3.03c0-.8008-.6492-1.45-1.45-1.45zm-.15 1.45a.15.15 0 0 1 .15-.15h3.0254a.15.15 0 0 1 .15.15v3.03a.15.15 0 0 1-.15.15h-3.0254a.15.15 0 0 1-.15-.15z"/></svg>