<svg width="16" height="16" viewBox="0 0 16 16" fill="none" xmlns="http://www.w3.org/2000/svg">
<path fill-rule="evenodd" clip-rule="evenodd" d="M2.7293 14.7066C1.92848 14.7066 1.2793 14.0574 1.2793 13.2566L1.2793 2.74248C1.2793 1.94167 1.92848 1.29248 2.7293 1.29248L5.75466 1.29248C6.55547 1.29248 7.20466 1.94167 7.20466 2.74248L7.20466 13.2566C7.20466 14.0574 6.55547 14.7066 5.75466 14.7066H2.7293ZM2.5793 13.2566C2.5793 13.3394 2.64645 13.4066 2.7293 13.4066H5.75466C5.8375 13.4066 5.90466 13.3394 5.90466 13.2566L5.90466 2.74248C5.90466 2.65964 5.8375 2.59248 5.75466 2.59248L2.7293 2.59248C2.64645 2.59248 2.5793 2.65964 2.5793 2.74248L2.5793 13.2566Z" fill="black"/>
<path fill-rule="evenodd" clip-rule="evenodd" d="M10.2457 1.29424C9.44493 1.29424 8.79575 1.94343 8.79575 2.74424V5.77424C8.79575 6.57505 9.44493 7.22424 10.2457 7.22424L13.2711 7.22424C14.0719 7.22424 14.7211 6.57505 14.7211 5.77424V2.74424C14.7211 1.94343 14.0719 1.29424 13.2711 1.29424L10.2457 1.29424ZM10.0957 2.74424C10.0957 2.6614 10.1629 2.59424 10.2457 2.59424L13.2711 2.59424C13.354 2.59424 13.4211 2.6614 13.4211 2.74424V5.77424C13.4211 5.85708 13.354 5.92424 13.2711 5.92424L10.2457 5.92424C10.1629 5.92424 10.0957 5.85708 10.0957 5.77424V2.74424Z" fill="black"/>
<path fill-rule="evenodd" clip-rule="evenodd" d="M8.79575 10.2266C8.79575 9.42574 9.44493 8.77655 10.2457 8.77655L13.2711 8.77655C14.0719 8.77655 14.7211 9.42574 14.7211 10.2266V13.2566C14.7211 14.0574 14.0719 14.7066 13.2711 14.7066H10.2457C9.44493 14.7066 8.79575 14.0574 8.79575 13.2566V10.2266ZM10.2457 10.0766C10.1629 10.0766 10.0957 10.1437 10.0957 10.2266V13.2566C10.0957 13.3394 10.1629 13.4066 10.2457 13.4066H13.2711C13.354 13.4066 13.4211 13.3394 13.4211 13.2566V10.2266C13.4211 10.1437 13.354 10.0766 13.2711 10.0766H10.2457Z" fill="black"/>
</svg>
