<svg xmlns="http://www.w3.org/2000/svg" width="16" height="16" fill="none" viewBox="0 0 16 16"><path fill="#000" fill-rule="evenodd" d="M12.375.9954C13.8247.9954 15 2.1706 15 3.6204v5.9532q0 .0227-.0004.0452l.0002 4.3338c.0001.958-1.1775 1.4157-1.8244.7091l-1.9948-2.1789a.875.875 0 0 0-.6454-.2842H3.625C2.1753 12.1986 1 11.0234 1 9.5736V3.6204C1 2.1706 2.1753.9954 3.625.9954zm1.325 2.625v5.9532l-.0003.0343.0001 3.7015-1.5604-1.7044q-.3233-.3533-.7243-.5298t-.8799-.1766H3.625q-.2745 0-.5086-.097-.2343-.097-.4283-.291-.1941-.1941-.291-.4283-.0972-.2342-.0971-.5087V3.6204q0-.2744.097-.5087.097-.2342.291-.4283.1941-.194.4284-.291.2342-.097.5086-.097h8.75q.2745 0 .5086.097.2343.097.4283.291.194.1941.2911.4283.097.2343.097.5087M7.4812 6.5116l.026-.0256q.2703-.2674.3595-.5855.089-.3182-.0032-.6871a1.33 1.33 0 0 0-.174-.4049 1.33 1.33 0 0 0-.2994-.3234 1.33 1.33 0 0 0-.3863-.212 1.33 1.33 0 0 0-.435-.0706h-.3624q-.2609 0-.4493.1802t-.2.4409q-.0402.8998.5215 1.9137.3134.5656.7893 1.0416.402.4022.8754.6857.0627.0375.1267.0731a.65.65 0 0 0 .1041.056q.3891.2025.823.33.5663.1668.9968.1669h.0001q.2692 0 .4596-.1904t.1904-.4596v-.3612q0-.23-.0707-.4356a1.33 1.33 0 0 0-.2123-.3868 1.33 1.33 0 0 0-.3238-.2997 1.33 1.33 0 0 0-.4054-.1743q-.367-.0918-.6843-.004-.3174.088-.5848.3555l-.0279.0279a3.3 3.3 0 0 1-.3476-.3027 3.5 3.5 0 0 1-.306-.348"/></svg>