<svg xmlns="http://www.w3.org/2000/svg" width="16" height="16" fill="none" viewBox="0 0 16 16"><path fill="#000" d="M5.35 4.667a.65.65 0 0 1 .65-.65h4a.65.65 0 1 1 0 1.3H6a.65.65 0 0 1-.65-.65m0 2a.65.65 0 0 1 .65-.65h2.667a.65.65 0 0 1 0 1.3H6a.65.65 0 0 1-.65-.65m0 2.666a.65.65 0 0 1 .65-.65h.667a.65.65 0 0 1 0 1.3H6a.65.65 0 0 1-.65-.65m5.983 2c0 .736-.597 1.333-1.333 1.333s-1.333-.597-1.333-1.333S9.264 10 10 10s1.333.597 1.333 1.333"/><path fill="#000" fill-rule="evenodd" d="M2.3125 3.6c0-1.436 1.164-2.6 2.6-2.6h6.175c1.4359 0 2.6 1.164 2.6 2.6v8.8c0 1.4359-1.1641 2.6-2.6 2.6h-6.175c-1.436 0-2.6-1.1641-2.6-2.6zm2.6-1.3h6.175c.718 0 1.3.582 1.3 1.3v8.8c0 .718-.582 1.3-1.3 1.3h-6.175c-.718 0-1.3-.582-1.3-1.3V3.6c0-.718.582-1.3 1.3-1.3" clip-rule="evenodd"/></svg>