<svg xmlns="http://www.w3.org/2000/svg" width="16" height="16" fill="none" viewBox="0 0 16 16"><path fill="#000" fill-rule="evenodd" d="M4.9125 1c-1.436 0-2.6 1.164-2.6 2.6v8.8c0 1.4359 1.164 2.6 2.6 2.6h6.175c1.4359 0 2.6-1.1641 2.6-2.6V3.6c0-1.436-1.1641-2.6-2.6-2.6zm6.175 1.3h-6.175c-.718 0-1.3.582-1.3 1.3v8.8c0 .718.582 1.3 1.3 1.3h6.175c.718 0 1.3-.582 1.3-1.3V3.6c0-.718-.582-1.3-1.3-1.3M6 4.0167a.65.65 0 0 0 0 1.3h4a.65.65 0 1 0 0-1.3zm0 2a.65.65 0 0 0 0 1.3h2.6667a.65.65 0 1 0 0-1.3zm0 2.6666a.65.65 0 1 0 0 1.3h.6667a.65.65 0 1 0 0-1.3zm4 3.9834c.7364 0 1.3334-.597 1.3334-1.3334S10.7364 10 10 10s-1.3333.597-1.3333 1.3333c0 .7364.597 1.3334 1.3333 1.3334"/></svg>