<svg width="16" height="16" viewBox="0 0 16 16" fill="none" xmlns="http://www.w3.org/2000/svg">
<path fill-rule="evenodd" clip-rule="evenodd" d="M10.3631 1.65679C10.3879 1.37437 10.2268 1.10847 9.96495 0.999712C9.70313 0.890959 9.40103 0.964441 9.21841 1.1813L3.18602 8.34473C3.02317 8.53811 2.98723 8.80838 3.09387 9.0376C3.20051 9.26683 3.43039 9.41342 3.68321 9.41342H6.06961L5.63717 14.3432C5.61239 14.6256 5.77352 14.8915 6.03534 15.0003C6.29715 15.109 6.59926 15.0355 6.78187 14.8187L12.8143 7.65524C12.9771 7.46186 13.0131 7.19159 12.9064 6.96237C12.7998 6.73314 12.5699 6.58655 12.3171 6.58655H9.93068L10.3631 1.65679Z" fill="black"/>
</svg>
