<svg width="16" height="16" viewBox="0 0 16 16" fill="none" xmlns="http://www.w3.org/2000/svg">
<g clip-path="url(#clip0_15422_2104)">
<path d="M8.00008 0.949951C8.35906 0.949951 8.65008 1.24097 8.65008 1.59995V2.76888C8.65008 3.12786 8.35906 3.41888 8.00008 3.41888C7.64109 3.41888 7.35008 3.12786 7.35008 2.76888V1.59995C7.35008 1.24097 7.64109 0.949951 8.00008 0.949951Z" fill="black"/>
<path d="M3.55557 4.47446C3.80941 4.7283 4.22096 4.7283 4.4748 4.47446C4.72864 4.22062 4.72864 3.80906 4.4748 3.55522L3.58437 2.66479C3.33053 2.41095 2.91898 2.41095 2.66513 2.66479C2.41129 2.91863 2.41129 3.33019 2.66513 3.58403L3.55557 4.47446Z" fill="black"/>
<path d="M2.76908 8.64973C3.12807 8.64973 3.41908 8.35872 3.41908 7.99973C3.41908 7.64075 3.12807 7.34973 2.76908 7.34973H1.6002C1.24121 7.34973 0.950195 7.64075 0.950195 7.99973C0.950195 8.35872 1.24121 8.64973 1.6002 8.64973H2.76908Z" fill="black"/>
<path d="M4.4748 11.5251C4.72864 11.779 4.72864 12.1905 4.4748 12.4444L3.58437 13.3348C3.33053 13.5886 2.91898 13.5886 2.66513 13.3348C2.41129 13.081 2.41129 12.6694 2.66513 12.4156L3.55557 11.5251C3.80941 11.2713 4.22096 11.2713 4.4748 11.5251Z" fill="black"/>
<path d="M8.00008 12.5811C8.35906 12.5811 8.65008 12.8721 8.65008 13.2311V14.4C8.65008 14.759 8.35906 15.05 8.00008 15.05C7.64109 15.05 7.35008 14.759 7.35008 14.4V13.2311C7.35008 12.8721 7.64109 12.5811 8.00008 12.5811Z" fill="black"/>
<path fill-rule="evenodd" clip-rule="evenodd" d="M8.00024 4.05222C8.0391 4.05222 8.07716 4.05563 8.11415 4.06216C9.22889 4.09407 10.2275 4.58972 10.9238 5.36296C11.5519 6.06012 11.9343 6.98312 11.9343 7.99542C11.9343 8.99075 11.5646 9.89975 10.9552 10.5926C10.2342 11.4128 9.17727 11.9303 7.99946 11.9303C6.97865 11.9303 6.04864 11.5415 5.34946 10.9039C4.55992 10.1844 4.06445 9.14779 4.06445 7.99542C4.06445 6.82514 4.57545 5.77421 5.38649 5.05358C6.05518 4.45904 6.92801 4.0891 7.88664 4.06211C7.92353 4.05561 7.96149 4.05222 8.00024 4.05222ZM6.24847 6.02674C6.55882 5.75067 6.93487 5.54687 7.35024 5.44175V10.5491C6.92434 10.4413 6.53977 10.2298 6.22499 9.94297C5.69683 9.46125 5.36543 8.76748 5.36543 7.99631L5.36445 7.99542L5.36543 7.99456C5.36543 7.21202 5.70667 6.50918 6.24847 6.02674ZM8.65024 5.4422V10.5486C9.17291 10.416 9.63324 10.1271 9.97858 9.73453C10.3863 9.27071 10.6335 8.66238 10.6335 7.99631L10.6343 7.99542L10.6335 7.99456C10.6335 7.31712 10.3778 6.69941 9.95756 6.23271C9.61466 5.8522 9.16238 5.57218 8.65024 5.4422Z" fill="black"/>
</g>
<defs>
<clipPath id="clip0_15422_2104">
<rect width="16" height="16" fill="white"/>
</clipPath>
</defs>
</svg>
