<svg width="16" height="16" viewBox="0 0 16 16" fill="none" xmlns="http://www.w3.org/2000/svg">
<path fill-rule="evenodd" clip-rule="evenodd" d="M9.90896 2.63903C10.1608 1.57134 8.91709 0.790815 8.06518 1.48191L4.04514 4.74309C3.86959 4.88549 3.76764 5.09948 3.76764 5.32553V11.8471C3.76764 12.8136 4.55114 13.5971 5.51764 13.5971H11.2301C11.8301 13.5971 12.3762 13.2508 12.6321 12.7081L14.8625 7.97742C15.4098 6.81664 14.5629 5.48111 13.2796 5.48111H9.23852L9.90896 2.63903Z" fill="black"/>
<path d="M2.66504 5.78301C2.66504 5.3688 2.32925 5.03301 1.91504 5.03301C1.50083 5.03301 1.16504 5.3688 1.16504 5.78301V12.8286C1.16504 13.2428 1.50083 13.5786 1.91504 13.5786C2.32925 13.5786 2.66504 13.2428 2.66504 12.8286V5.78301Z" fill="black"/>
</svg>
