<svg width="16" height="16" viewBox="0 0 16 16" fill="none" xmlns="http://www.w3.org/2000/svg">
<path fill-rule="evenodd" clip-rule="evenodd" d="M9.86501 2.63903C10.1169 1.57134 8.87314 0.790815 8.02123 1.48191L4.00119 4.74309C3.82565 4.88549 3.72369 5.09948 3.72369 5.32553V11.8471C3.72369 12.8136 4.5072 13.5971 5.47369 13.5971H11.1861C11.7861 13.5971 12.3322 13.2508 12.5881 12.7081L14.8185 7.97742C15.3658 6.81664 14.519 5.48111 13.2357 5.48111H9.19457L9.86501 2.63903ZM5.22369 5.68286L8.16955 3.2931L7.5171 6.05892C7.46448 6.28199 7.51675 6.51689 7.659 6.6966C7.80125 6.87631 8.01787 6.98111 8.24707 6.98111H13.2357C13.419 6.98111 13.54 7.1719 13.4618 7.33773L11.2314 12.0684C11.2231 12.0859 11.2055 12.0971 11.1861 12.0971H5.47369C5.33562 12.0971 5.22369 11.9851 5.22369 11.8471V5.68286Z" fill="black"/>
<path d="M2.62109 5.78301C2.62109 5.3688 2.28531 5.03301 1.87109 5.03301C1.45688 5.03301 1.12109 5.3688 1.12109 5.78301V12.8286C1.12109 13.2428 1.45688 13.5786 1.87109 13.5786C2.28531 13.5786 2.62109 13.2428 2.62109 12.8286V5.78301Z" fill="black"/>
</svg>
