<svg xmlns="http://www.w3.org/2000/svg" width="16" height="16" fill="none" viewBox="0 0 16 16"><path fill="#000" fill-rule="evenodd" d="M8.0212 1.4819c.852-.691 2.0957.0894 1.8438 1.1571l-.6704 2.8421h4.0411c1.2833 0 2.1301 1.3355 1.5828 2.4963l-2.2304 4.7307a1.55 1.55 0 0 1-1.402.889H5.4737c-.9665 0-1.75-.7835-1.75-1.75V5.3255a.75.75 0 0 1 .2775-.5824zm.1483 1.8112L5.2237 5.6829v6.1642c0 .138.112.25.25.25h5.7124a.05.05 0 0 0 .0453-.0287l2.2304-4.7307c.0782-.1658-.0428-.3566-.2261-.3566H8.2471a.75.75 0 0 1-.73-.9222zm-6.2984 1.74a.75.75 0 0 1 .75.75v7.0455a.75.75 0 0 1-1.5 0V5.783a.75.75 0 0 1 .75-.75"/></svg>