<svg width="16" height="16" viewBox="0 0 16 16" fill="none" xmlns="http://www.w3.org/2000/svg">
<path d="M14.3159 2.56817C14.6297 2.39384 14.7428 1.99811 14.5684 1.6843C14.3941 1.37049 13.9984 1.25743 13.6845 1.43177L1.68455 8.09844C1.37074 8.27277 1.25768 8.6685 1.43201 8.98231C1.60635 9.29612 2.00207 9.40918 2.31588 9.23484L14.3159 2.56817Z" fill="black"/>
<path d="M14.3159 7.90143C14.6297 7.72709 14.7428 7.33137 14.5684 7.01756C14.3941 6.70375 13.9984 6.59068 13.6845 6.76502L1.68455 13.4317C1.37074 13.606 1.25768 14.0017 1.43201 14.3156C1.60635 14.6294 2.00207 14.7424 2.31588 14.5681L14.3159 7.90143Z" fill="black"/>
</svg>
