<svg width="16" height="16" viewBox="0 0 16 16" fill="none" xmlns="http://www.w3.org/2000/svg">
<path d="M12.6499 2.6666C12.6499 2.30762 12.3589 2.0166 11.9999 2.0166C11.6409 2.0166 11.3499 2.30762 11.3499 2.6666V10.0166H4.23584L5.79289 8.45955C6.04673 8.20571 6.04673 7.79416 5.79289 7.54032C5.53905 7.28647 5.12749 7.28647 4.87365 7.54032L2.20698 10.207C1.95314 10.4608 1.95314 10.8724 2.20698 11.1262L4.87365 13.7929C5.12749 14.0467 5.53905 14.0467 5.79289 13.7929C6.04673 13.539 6.04673 13.1275 5.79289 12.8736L4.23584 11.3166H11.9999C12.3589 11.3166 12.6499 11.0256 12.6499 10.6666V2.6666Z" fill="black"/>
</svg>
