<svg xmlns="http://www.w3.org/2000/svg" width="16" height="16" fill="none" viewBox="0 0 16 16"><path fill="#000" d="M12.9145 2h-9.829C2.486 2 2 2.486 2 3.0855v9.829C2 13.514 2.486 14 3.0855 14h9.829C13.514 14 14 13.514 14 12.9145v-9.829C14 2.486 13.514 2 12.9145 2M5.7133 12.3616a.316.316 0 0 1-.3159.3159H4.0527a.316.316 0 0 1-.3159-.3159V6.7247a.316.316 0 0 1 .316-.3159h1.3446a.316.316 0 0 1 .316.3159zm-.9882-6.4842c-.7056 0-1.2775-.5719-1.2775-1.2774s.572-1.2775 1.2775-1.2775 1.2774.572 1.2774 1.2775-.5719 1.2774-1.2774 1.2774m8.0155 6.5096c0 .1604-.13.2905-.2904.2905h-1.443a.2905.2905 0 0 1-.2904-.2905V9.743c0-.3944.1157-1.7284-1.0308-1.7284-.8893 0-1.0697.913-1.1059 1.3228v3.0496c0 .1604-.13.2905-.2904.2905H6.894a.2905.2905 0 0 1-.2905-.2905V6.6993c0-.1604.13-.2905.2905-.2905h1.3956c.1604 0 .2904.13.2904.2905v.4917c.3298-.4948.8198-.8768 1.8632-.8768 2.3106 0 2.2973 2.1586 2.2973 3.3447z"/></svg>