<svg xmlns="http://www.w3.org/2000/svg" width="16" height="16" fill="none" viewBox="0 0 16 16"><path fill="#000" fill-rule="evenodd" d="M9.3333 3.3166a.65.65 0 0 1 0-1.3h4a.65.65 0 0 1 .65.65v4a.65.65 0 1 1-1.3 0V4.2358l-4.557 4.557a.65.65 0 0 1-.9193-.9192l4.557-4.557zm-5.0667 0a.95.95 0 0 0-.95.95v7.4667a.95.95 0 0 0 .95.95h7.4667c.5246 0 .95-.4254.95-.95v-2.4a.65.65 0 1 1 1.3 0v2.4c0 1.2426-1.0074 2.25-2.25 2.25H4.2666c-1.2426 0-2.25-1.0074-2.25-2.25V4.2666c0-1.2426 1.0074-2.25 2.25-2.25h2.4a.65.65 0 0 1 0 1.3z"/></svg>