<svg xmlns="http://www.w3.org/2000/svg" width="16" height="16" fill="none" viewBox="0 0 16 16"><path fill="#000" fill-rule="evenodd" d="M13.5771 2.4231c-1.528-1.528-4.0054-1.528-5.5335 0l-1.7289 1.729a.65.65 0 0 0 .9193.9192l1.7289-1.729c1.0203-1.0203 2.6746-1.0203 3.695 0s1.0203 2.6747 0 3.695l-1.71 1.71a.65.65 0 1 0 .9192.9192l1.71-1.71c1.528-1.528 1.528-4.0054 0-5.5334M10.1855 6.734a.65.65 0 1 0-.9192-.9192L5.815 9.266a.65.65 0 1 0 .9193.9192zm-5.1228-.4107a.65.65 0 0 1 0 .9192L3.3426 8.9626c-1.0203 1.0204-1.0203 2.6747 0 3.695 1.0203 1.0204 2.6746 1.0204 3.695 0l1.7106-1.7106a.65.65 0 1 1 .9192.9192l-1.7106 1.7107c-1.528 1.528-4.0054 1.528-5.5334 0s-1.528-4.0055 0-5.5335l1.72-1.7201a.65.65 0 0 1 .9193 0"/></svg>