<svg xmlns="http://www.w3.org/2000/svg" width="16" height="16" fill="none" viewBox="0 0 16 16"><path fill="#0077b7" d="M13.7336 1H2.2664C1.567 1 1 1.567 1 2.2664v11.4671C1 14.433 1.567 15 2.2664 15h11.4671C14.433 15 15 14.433 15 13.7335V2.2665C15 1.567 14.433 1 13.7336 1M5.3322 13.0885a.3685.3685 0 0 1-.3685.3686H3.3948a.3685.3685 0 0 1-.3685-.3686V6.5122c0-.2036.165-.3686.3685-.3686h1.5689c.2035 0 .3685.165.3685.3685zm-1.153-7.5648c-.823 0-1.4903-.6673-1.4903-1.4904S3.356 2.543 4.1792 2.543s1.4904.6673 1.4904 1.4904-.6672 1.4904-1.4904 1.4904m9.3515 7.5945a.339.339 0 0 1-.3388.3389h-1.6835a.339.339 0 0 1-.3388-.3389v-3.0847c0-.4602.1349-2.0165-1.2026-2.0165-1.0375 0-1.248 1.0653-1.2902 1.5433v3.5579a.339.339 0 0 1-.3389.3389H6.7098a.339.339 0 0 1-.3389-.3389V6.4825a.339.339 0 0 1 .3389-.3389h1.6281a.339.339 0 0 1 .3389.3389v.5737c.3847-.5773.9564-1.023 2.1737-1.023 2.6957 0 2.6802 2.5184 2.6802 3.9022z"/></svg>