<svg xmlns="http://www.w3.org/2000/svg" width="16" height="16" fill="none" viewBox="0 0 16 16"><path fill="#000" fill-rule="evenodd" d="M13.6075 12.2408c-.4106-.1681-.5862-.3912-.5692-.7242.0175-.3886-.203-.6732-.3077-.7857.0633-.2416.2481-1.0775.0002-1.8035-.2664-.7771-1.0798-1.964-1.9191-3.1307-.3435-.4791-.3598-1-.3786-1.603v-.0006c-.018-.575-.0384-1.2268-.359-1.9514C9.7253 1.4526 9.0255 1 8.154 1c-.5185 0-1.0507.162-1.4602.4445-.8387.5788-.7278 1.8407-.6545 2.6757.0101.1143.0196.2223.025.3146.0489.8177.0045 1.2488-.0536 1.3798-.0375.0853-.2215.3277-.4167.5847l-.0027.0036c-.2024.2665-.4317.5685-.6196.8499-.2246.339-.406.8572-.5812 1.3584l-.0001.0002c-.1283.3667-.2495.7131-.3674.9201a1.253 1.253 0 0 0-.1215.9412c-.0847.0588-.207.1746-.3102.3928-.1248.2663-.3779.4093-.9043.5105-.242.0495-.4087.1512-.496.3024-.1268.2199-.0577.4962.0053.685.0932.2777.0352.4534-.0704.7724l-.0013.0038c-.024.0727-.0511.1547-.0786.2451-.044.1451-.0281.277.0471.3921.1988.3039.779.4111 1.3761.4816.3566.0423.7468.1849 1.1243.3229l.0005.0002c.3697.1351.7519.2748 1.0993.3172.0529.0066.1052.01.1557.01.5248 0 .762-.3483.8371-.4914.1885-.0384.8387-.1616 1.5089-.1782.669-.0191 1.3164.113 1.4998.1541.0576.1104.2096.3624.4519.4923.1331.0728.3184.1145.5082.1145h.0001c.2027 0 .5883-.0479.8935-.369.3044-.3226 1.065-.7344 1.6204-1.0351.124-.0671.2399-.1299.3416-.1866.312-.173.4822-.4201.467-.678-.0126-.2143-.1544-.4022-.37-.4905m-6.9069-.0621c-.0388-.2735-.3907-.5449-.7983-.859l-.0003-.0002c-.3332-.2569-.7107-.548-.8148-.7945-.215-.5087-.0455-1.4031.25-1.8637.146-.2305.2653-.58.3807-.918l.0001-.0005c.1246-.3652.2535-.7428.3975-.9081.2282-.258.4391-.7602.4765-1.156.2136.204.545.463.8513.463A.5.5 0 0 0 7.58 6.123c.2092-.0604.517-.2382.8147-.4101l.0009-.0006c.2569-.1484.5737-.3315.693-.3481.2043.2935 1.392 2.9218 1.5134 3.766.096.6678-.0054 1.2199-.0564 1.4362a1.1 1.1 0 0 0-.1414-.0102c-.3308 0-.4184.1806-.4412.2884-.0587.2802-.0649 1.1759-.0655 1.3772-.1196.152-.7246.8677-1.593.9964-.3538.0514-.6842.0775-.982.0775-.2544 0-.4168-.0197-.4842-.0299l-.4365-.4994c.1721-.085.3442-.2643.2988-.5878m2.0606-7.2734c-.0043.0195-.0136.0281-.1161.0815a3 3 0 0 0-.197.1096l-.0549.0333c-.2172.1316-.7228.4381-.8602.4561-.0935.0126-.1513-.0236-.2814-.112a4 4 0 0 0-.0938-.0625c-.2344-.1538-.3852-.3233-.4022-.3895.0764-.059.2658-.207.3628-.2945.1969-.183.395-.306.493-.306a.1.1 0 0 1 .0148.0012c.115.0203.3982.1333.6056.216l.0013.0006c.096.0383.1788.0713.2371.0923.1837.063.2794.1437.291.174m1.6501 8.5548c.1036-.4673.2229-1.1031.2036-1.4779a10 10 0 0 0-.0193-.2674c-.0136-.1675-.0339-.4166-.013-.4904a.1.1 0 0 1 .0138-.005c.0009.2143.0475.6416.3893.7907.1018.0444.2182.0669.3459.0669.3424 0 .7223-.1679.8779-.3236.0916-.0916.1687-.2037.2227-.2924.0118.0345.019.0797.0152.1379-.0203.316.1333.7353.4256.8898l.0425.0224c.1041.0546.3806.1998.3851.2686 0 0-.0024.0081-.0178.0225-.0692.0632-.3127.1876-.5483.3079l-.0005.0003c-.4182.2135-.8922.4555-1.1051.6794-.2998.3155-.6388.5274-.8435.5274a.22.22 0 0 1-.0671-.0095c-.2223-.0693-.4053-.3901-.307-.8476m-7.579-1.1922c-.0226-.1061-.0405-.1898-.0213-.271.014-.0601.3108-.1246.4376-.1521l.0005-.0001c.178-.0386.3622-.0786.4826-.1517.163-.0987.2513-.2808.3291-.4415l.0003-.0005c.0563-.116.1144-.2358.1836-.2752a.04.04 0 0 1 .0212-.005c.1298 0 .402.2728.559.517.0398.0615.1135.1849.1988.3277l.0011.0019c.255.4266.6035 1.0097.7856 1.2053.1644.1762.4305.5148.365.8052-.0479.2253-.303.4086-.3632.4491a.37.37 0 0 1-.0807.0075c-.3491 0-1.0402-.2905-1.4115-.4465l-.055-.0231c-.2072-.0869-.5456-.1417-.8728-.1947h-.0003l-.0013-.0002c-.2603-.0422-.6159-.0998-.675-.1518-.0478-.0538.0077-.2284.0567-.3825v-.0002c.0354-.1108.0718-.2254.0918-.3453.0283-.1912-.005-.3468-.0316-.4718zm6.227-8.3577c.0012.1523-.025.282-.0829.4144-.0329.0755-.0708.139-.1163.1938a1 1 0 0 0-.048-.0212 4 4 0 0 0-.154-.0621 3 3 0 0 0-.0907-.0323l-.0271-.0093c.0084-.0102.0195-.021.0312-.0325.0253-.0247.054-.0526.0672-.085.0296-.0718.044-.1419.0468-.2254l.0005-.0047a.03.03 0 0 0 .0006-.0054.62.62 0 0 0-.0323-.2184c-.0245-.0736-.0555-.1264-.1006-.1704s-.0901-.0638-.1442-.0657H8.402c-.0507.0001-.0948.0176-.1404.0557-.048.04-.0834.0912-.113.1625-.0294.0712-.0439.1418-.0468.2258q-.0005.0047-.0004.0095a.67.67 0 0 0 .009.1296c-.1038-.0518-.2367-.0896-.3286-.1115a1.1 1.1 0 0 1-.0092-.1235v-.0116c-.0016-.152.0233-.2822.0817-.4144.0585-.1324.1307-.2276.2325-.305.102-.0773.202-.1128.3206-.114h.0056c.116 0 .2151.034.317.108.1034.0751.178.169.2381.3003.059.1281.0873.2533.0901.4017 0 .0039 0 .0072.0011.0112M7.262 4.076a1 1 0 0 1 .0447-.014 1.04 1.04 0 0 0 .0013-.1575v-.001c-.0072-.1314-.0333-.2426-.0823-.3539s-.1075-.1902-.1847-.252c-.0713-.057-.1401-.0826-.2172-.0827l-.0197.0004c-.0852.0044-.1558.0394-.226.109-.0701.0696-.1185.154-.1546.271-.036.1167-.049.2297-.0417.361v.0011c.0078.1314.034.2427.083.3537.0412.0942.0885.1653.149.2222q.0416-.0309.0717-.0527a2 2 0 0 0 .0625-.048l.0325-.0253a.3.3 0 0 1-.0182-.0144c-.0367-.0316-.0651-.0729-.0895-.1307a.59.59 0 0 1-.0446-.1863.58.58 0 0 1 .0123-.1902c.0145-.0613.0345-.1075.065-.1447.0307-.0373.063-.0563.102-.0597a.1.1 0 0 1 .0107-.0003c.0346-.0004.0661.0129.0993.0416.0366.0317.0646.073.0896.1313a.6.6 0 0 1 .044.178c0 .0027 0 .005.0004.0077a.58.58 0 0 1-.0022.1388c.0638-.0422.1297-.0737.2127-.1024" clip-rule="evenodd"/></svg>