<svg width="16" height="16" viewBox="0 0 16 16" fill="none" xmlns="http://www.w3.org/2000/svg">
<path d="M5.19885 4.52932C4.83987 4.52932 4.54885 4.82034 4.54885 5.17932C4.54885 5.53831 4.83987 5.82932 5.19885 5.82932H9.95605C10.315 5.82932 10.606 5.53831 10.606 5.17932C10.606 4.82034 10.315 4.52932 9.95605 4.52932H5.19885Z" fill="black"/>
<path d="M4.54885 7.79578C4.54885 7.43679 4.83987 7.14578 5.19885 7.14578H7.57745C7.93644 7.14578 8.22745 7.43679 8.22745 7.79578C8.22745 8.15476 7.93644 8.44578 7.57745 8.44578H5.19885C4.83987 8.44578 4.54885 8.15476 4.54885 7.79578Z" fill="black"/>
<path d="M5.19885 9.76223C4.83987 9.76223 4.54885 10.0532 4.54885 10.4122C4.54885 10.7712 4.83987 11.0622 5.19885 11.0622H8.63461C8.99359 11.0622 9.28461 10.7712 9.28461 10.4122C9.28461 10.0532 8.99359 9.76223 8.63461 9.76223H5.19885Z" fill="black"/>
<path fill-rule="evenodd" clip-rule="evenodd" d="M2.3125 3.6C2.3125 2.16406 3.47656 1 4.9125 1H11.0875C12.5234 1 13.6875 2.16406 13.6875 3.6V12.4C13.6875 13.8359 12.5234 15 11.0875 15H4.9125C3.47656 15 2.3125 13.8359 2.3125 12.4V3.6ZM4.9125 2.3H11.0875C11.8055 2.3 12.3875 2.88203 12.3875 3.6V12.4C12.3875 13.118 11.8055 13.7 11.0875 13.7H4.9125C4.19453 13.7 3.6125 13.118 3.6125 12.4V3.6C3.6125 2.88203 4.19453 2.3 4.9125 2.3Z" fill="black"/>
</svg>
