<svg xmlns="http://www.w3.org/2000/svg" width="16" height="16" fill="none" viewBox="0 0 16 16"><path fill="#000" fill-rule="evenodd" d="M8.369 14.8352a.651.651 0 0 1-.7378 0c-.303-.2088-.5795-.4671-.8546-.7104-.4897-.433-1.1442-1.0519-1.8007-1.794-1.2811-1.4482-2.7005-3.5094-2.7005-5.6402C2.2754 3.5652 4.8487 1.05 8 1.05s5.7247 2.515 5.7247 5.6405c0 2.1308-1.4194 4.192-2.7005 5.6402-.6565.7421-1.311 1.361-1.8007 1.794a19 19 0 0 1-.5951.506c-.0854.0696-.1695.1423-.2594.2044M9.3815 6.632c0 .7502-.6184 1.3583-1.3813 1.3583S6.619 7.3822 6.619 6.632s.6184-1.3583 1.3812-1.3583 1.3813.6081 1.3813 1.3583"/></svg>