<svg xmlns="http://www.w3.org/2000/svg" width="16" height="16" fill="none" viewBox="0 0 16 16"><path fill="#000" fill-rule="evenodd" d="M4.9514 4.0498C4.9514 2.3654 6.3168 1 8.0012 1s3.0498 1.3654 3.0498 3.0498V5.372h.474c1.4359 0 2.6 1.1641 2.6 2.6V12.4c0 1.436-1.1641 2.6-2.6 2.6h-7.05c-1.436 0-2.6-1.164-2.6-2.6V7.9721c0-1.4359 1.164-2.6 2.6-2.6h.4764zm4.7996 0V5.369H6.2514V4.0498c0-.9664.7834-1.7498 1.7498-1.7498s1.7498.7834 1.7498 1.7498M4.475 6.672h7.05c.718 0 1.3.582 1.3 1.3V12.4c0 .718-.582 1.3-1.3 1.3h-7.05c-.718 0-1.3-.582-1.3-1.3V7.9721c0-.718.582-1.3 1.3-1.3m5.0262 3.5139c0 .8285-.6716 1.5-1.5 1.5s-1.5-.6715-1.5-1.5.6716-1.5 1.5-1.5 1.5.6716 1.5 1.5"/></svg>