<svg xmlns="http://www.w3.org/2000/svg" width="16" height="16" fill="none" viewBox="0 0 16 16"><path fill="#000" fill-rule="evenodd" d="M5.0228 4.0614c0-1.6355 1.3258-2.9613 2.9613-2.9613s2.9613 1.3258 2.9613 2.9613-1.3258 2.9614-2.9613 2.9614-2.9613-1.3259-2.9613-2.9614M7.984 2.4001c-.9175 0-1.6613.7438-1.6613 1.6613s.7438 1.6614 1.6613 1.6614 1.6614-.7438 1.6614-1.6614-.7439-1.6613-1.6614-1.6613M5.6832 9.4326H6.931v-.6471q0-.3485.1063-.6529h-1.354c-2.0158 0-3.65 1.6342-3.65 3.65v1.0675c0 1.1322.9178 2.05 2.05 2.05h2.955q-.1071-.3054-.1071-.6552v-.6448h-2.848a.75.75 0 0 1-.75-.75v-1.0675c0-1.2979 1.0521-2.35 2.35-2.35m5.5371 5.4623H8.8811q-.2692 0-.4597-.1904-.1903-.1904-.1903-.4596V8.7855q0-.2692.1903-.4596.1905-.1905.4597-.1904h2.3393c.364 0 .6499.286.6499.65s-.2859.65-.6499.65H9.5311v4.1594h1.6892c.364 0 .65.286.65.65s-.286.65-.65.65m1.4907-4.09c-.2574-.2574-.2574-.6618 0-.9192s.6618-.2574.9192 0l1.1699 1.1699q.1904.1903.1904.4596t-.1904.4596l-1.1699 1.1699c-.2574.2574-.6619.2574-.9192 0-.2574-.2574-.2574-.6619 0-.9193l.0602-.0602h-1.5504c-.364 0-.65-.286-.65-.65s.286-.65.65-.65h1.5504z"/></svg>