<svg width="16" height="16" viewBox="0 0 16 16" fill="none" xmlns="http://www.w3.org/2000/svg">
<path d="M10.8736 5.79297C10.6198 5.53913 10.6198 5.12757 10.8736 4.87373L11.764 3.98335H4.6666C3.92102 3.98335 3.3166 4.58777 3.3166 5.33335V8.66668C3.3166 9.02567 3.02559 9.31668 2.6666 9.31668C2.30762 9.31668 2.0166 9.02567 2.0166 8.66668V5.33335C2.0166 3.8698 3.20305 2.68335 4.6666 2.68335H11.764L10.8736 1.79297C10.6198 1.53913 10.6198 1.12757 10.8736 0.87373C11.1275 0.61989 11.539 0.619889 11.7929 0.87373L13.7929 2.87373C14.0467 3.12757 14.0467 3.53913 13.7929 3.79297L11.7929 5.79297C11.539 6.04681 11.1275 6.04681 10.8736 5.79297Z" fill="black"/>
<path d="M12.6833 10.6667C12.6833 11.4123 12.0789 12.0167 11.3333 12.0167H4.23584L5.12622 11.1263C5.38006 10.8725 5.38006 10.4609 5.12622 10.2071C4.87238 9.95322 4.46082 9.95322 4.20698 10.2071L2.20698 12.2071C1.95314 12.4609 1.95314 12.8725 2.20698 13.1263L4.20698 15.1263C4.46082 15.3801 4.87238 15.3801 5.12622 15.1263C5.38006 14.8725 5.38006 14.4609 5.12622 14.2071L4.23584 13.3167H11.3333C12.7968 13.3167 13.9833 12.1302 13.9833 10.6667V7.33335C13.9833 6.97436 13.6923 6.68335 13.3333 6.68335C12.9743 6.68335 12.6833 6.97436 12.6833 7.33335V10.6667Z" fill="black"/>
</svg>
