<svg xmlns="http://www.w3.org/2000/svg" width="16" height="16" fill="none" viewBox="0 0 16 16"><path fill="#000" fill-rule="evenodd" d="m11.7641 3.9834-.8904.8903a.65.65 0 0 0 .9192.9193l2-2a.65.65 0 0 0 0-.9193l-2-2a.65.65 0 1 0-.9192.9193l.8904.8904H4.6667c-1.4636 0-2.65 1.1864-2.65 2.65v3.3333a.65.65 0 0 0 1.3 0V5.3334c0-.7456.6044-1.35 1.35-1.35zm-.4308 8.0333c.7456 0 1.35-.6044 1.35-1.35V7.3334a.65.65 0 1 1 1.3 0v3.3333c0 1.4635-1.1864 2.65-2.65 2.65H4.2359l.8904.8904a.65.65 0 1 1-.9193.9192l-2-2a.65.65 0 0 1 0-.9192l2-2a.65.65 0 1 1 .9193.9192l-.8904.8904z"/></svg>