<svg xmlns="http://www.w3.org/2000/svg" width="16" height="16" fill="none" viewBox="0 0 16 16"><path fill="#000" fill-rule="evenodd" d="M9.8923 4.5981v.7054h.7417V2.3901c0-.2147-.0375-.3987-.1126-.5724-.0752-.1738-.1784-.317-.3193-.4396-.1408-.1227-.3005-.2146-.4976-.276C9.5073 1.041 9.3007 1 9.0565 1c-.2159 0-.4225.0307-.6103.1022a1.385 1.385 0 0 0-.4882.276 1.37 1.37 0 0 0-.3287.4191c-.0845.1636-.122.3373-.1314.5213h.7324c.0188-.092.047-.1737.0939-.2453.047-.0716.1033-.1431.169-.1942s.1502-.092.2441-.1227c.094-.0306.1878-.0409.2911-.0409.263 0 .46.0614.6103.1943.1409.1226.216.3168.216.5622v.327l-1.0516.0614c-.4883.0307-.8545.1533-1.108.368s-.385.5009-.385.879c0 .1943.0282.368.0939.5214a1.27 1.27 0 0 0 .2723.3986c.1127.1125.2535.1943.4131.2556q.2395.092.5352.092c.1315 0 .263-.0204.385-.0511s.2441-.0818.3474-.1533c.1033-.0614.1972-.1432.2911-.2351.094-.1227.169-.225.2254-.3374zm-.3193-.2044c-.0939.0818-.1972.1533-.3193.2044s-.2629.0716-.4037.0716c-.2254 0-.4038-.0511-.5352-.1636s-.1972-.2555-.1972-.4395.0657-.3373.2066-.4396c.1314-.1022.338-.1635.6103-.184l.9484-.0715v.3271c0 .1431-.0282.2658-.0752.3884-.075.1227-.1408.225-.2347.3067" clip-rule="evenodd"/><path fill="#000" d="M12.54 2.114c.094-.123.197-.225.329-.296s.272-.102.432-.102c.131 0 .254.021.357.061s.197.092.282.164c.075.072.141.153.188.256s.085.204.103.317h.742c-.019-.204-.066-.399-.15-.583s-.197-.337-.338-.48c-.141-.133-.319-.245-.516-.327Q13.671 1 13.291 1c-.272 0-.526.051-.751.153a1.56 1.56 0 0 0-.573.44c-.16.194-.282.419-.366.685s-.131.562-.131.9.047.644.131.91c.085.266.216.501.376.685s.357.327.582.429.479.153.751.153c.235 0 .451-.041.648-.102s.366-.174.517-.296c.141-.133.263-.286.357-.47s.15-.388.169-.603h-.742c-.047.256-.15.44-.31.572s-.366.194-.62.194c-.16 0-.3-.031-.432-.102-.131-.061-.244-.163-.329-.286-.094-.123-.16-.276-.216-.46a2.48 2.48 0 0 1-.075-.613c0-.225.028-.419.075-.603.028-.194.094-.347.188-.47M6.493 5.303V2.41c0-.215-.028-.409-.094-.572-.066-.164-.141-.317-.253-.44s-.244-.215-.404-.286-.329-.102-.526-.102q-.211 0-.394.061c-.122.041-.244.092-.347.164s-.197.164-.282.256-.15.215-.197.348h-.019c-.075-.266-.216-.47-.404-.613s-.423-.215-.695-.215c-.122 0-.244.02-.366.051-.113.031-.216.082-.319.153-.094.072-.178.143-.253.245-.075.092-.131.204-.178.317h-.019v-.715H1v4.251h.732V2.706c0-.101.038-.203.073-.295.011-.029.021-.057.03-.083a.96.96 0 0 1 .169-.307c.075-.082.16-.153.263-.204s.216-.071.329-.071q.169 0 .31.061c.094.041.169.092.235.164s.113.153.15.256a.96.96 0 0 1 .056.327v2.76h.77V2.676c0-.133.019-.266.066-.378.038-.112.094-.215.169-.296s.16-.143.254-.194c.103-.041.207-.071.329-.071.244 0 .432.082.563.225q.197.23.197.644v2.688z"/><path fill="#000" fill-rule="evenodd" d="M4.5 7.125c-2.1497 0-3.5 1.5186-3.5 3.9375S2.3503 15 4.5 15 8 13.4814 8 11.0625C7.994 8.6435 6.6498 7.125 4.5 7.125m0 6.9026c-1.4746 0-2.3985-1.1464-2.3985-2.9651 0-1.8247.9239-2.9711 2.3985-2.9711 1.4687 0 2.3985 1.1464 2.3985 2.9711-.006 1.8187-.9298 2.9651-2.3985 2.9651" clip-rule="evenodd"/><path fill="#000" d="m12.6403 10.597-.8714-.2043c-1.0621-.2523-1.501-.5826-1.501-1.1353 0-.7028.6933-1.1893 1.6982-1.1893s1.6855.4805 1.7618 1.2614h1.1385C14.8219 8.032 13.658 7.125 11.9916 7.125c-1.7046 0-2.9067.901-2.9067 2.1925 0 1.0512.6742 1.6939 2.1689 2.0423l1.0367.2403c1.0622.2523 1.5201.6247 1.5201 1.2374 0 .7088-.7569 1.2254-1.8063 1.2254-1.094 0-1.8954-.5166-1.9844-1.3035H8.875C8.9577 14.129 10.1598 15 11.9216 15 13.8106 15 15 14.117 15 12.6994c-.0191-1.1053-.6996-1.724-2.3597-2.1024"/></svg>