<svg xmlns="http://www.w3.org/2000/svg" width="16" height="16" fill="none" viewBox="0 0 16 16"><path fill="#000" d="M10.667 6a.667.667 0 1 0 0-1.333.667.667 0 0 0 0 1.333M6 5.333a.667.667 0 1 1-1.333 0 .667.667 0 0 1 1.333 0"/><path fill="#000" fill-rule="evenodd" d="M11.3333 2.0167H4.6666c-1.4635 0-2.65 1.1865-2.65 2.65v6.6667c0 1.4635 1.1865 2.65 2.65 2.65h6.6667c1.4635 0 2.65-1.1865 2.65-2.65V4.6667c0-1.4635-1.1865-2.65-2.65-2.65m0 10.6667H8.6005c-.016-.469.0152-.9454.076-1.4081.5434-.0653 1.0291-.1979 1.4062-.3269a7.2 7.2 0 0 0 .638-.2523 5 5 0 0 0 .2325-.1124l.0152-.008.0049-.0026.0018-.001.0011-.0005c.0001-.0001.0002-.0002-.3096-.5716l.3096.5716.5716-.3101-.6197-1.1427-.5701.3091-.0011.0006-.0053.0028-.0316.0161a4 4 0 0 1-.1366.065 5.9 5.9 0 0 1-.5216.206 5.9 5.9 0 0 1-.7235.1982q.0316-.126.0642-.2476a14.6 14.6 0 0 1 .4037-1.2658 11 11 0 0 1 .1384-.3555 7 7 0 0 1 .038-.0908l.0092-.0215.002-.0045L10 7.0167H8.126l.74-3.7h2.4672c.7456 0 1.35.6044 1.35 1.35v6.6667c0 .7456-.6044 1.35-1.35 1.35m-3.749-2.6873c.0515-.2335.1068-.4561.163-.665.1034-.384.2117-.7276.3099-1.0144H6.5404l1-5H4.6666c-.7456 0-1.35.6044-1.35 1.35v6.6667c0 .7456.6044 1.35 1.35 1.35h2.6333c-.0136-.4748.0134-.9477.0662-1.4031-.5607-.0633-1.062-.1995-1.449-.3319a7.2 7.2 0 0 1-.638-.2523 5 5 0 0 1-.2325-.1124l-.0152-.008-.005-.0026-.0017-.001-.001-.0005c-.0002-.0001-.0004-.0002.3095-.5716l-.3096.5716-.5716-.3101.6197-1.1427.5704.3093.006.0032.0317.0161c.0296.0149.0758.0373.1366.065.1219.0552.301.1305.5216.206.3454.1182.7787.2322 1.2462.2777" clip-rule="evenodd"/></svg>