<svg xmlns="http://www.w3.org/2000/svg" width="16" height="16" fill="none" viewBox="0 0 16 16"><path fill="#000" fill-rule="evenodd" d="M1.0341 5.0148a.65.65 0 0 1 0-.9193L4.096 1.0336a.65.65 0 0 1 .9192 0l2.9861 2.9861 2.2789-2.2789c.6444-.6443 1.6891-.6443 2.3335 0l1.6476 1.6477c.6444.6444.6444 1.689 0 2.3334l-2.2789 2.279 2.984 2.9839a.65.65 0 0 1 0 .9193l-3.0618 3.0619a.65.65 0 0 1-.9193 0l-2.984-2.984-2.44 2.44a.65.65 0 0 1-.4596.1904h-3.062a.65.65 0 0 1-.65-.65v-3.0619a.65.65 0 0 1 .1905-.4596l2.44-2.44zm3.9054 2.0668L7.082 4.939l-.8431-.8432-.7667.7667a.65.65 0 0 1-.9192-.9192l.7666-.7667-.764-.7641L2.413 4.5551zm3.981 3.9811 2.5245 2.5244 2.1426-2.1426-.7896-.7896-.8153.8154a.65.65 0 0 1-.9193-.9192l.8154-.8154-.8156-.8156zm2.7739-8.4026a.35.35 0 0 0-.4949 0l-1.0102 1.0101 2.1426 2.1427 1.0102-1.0102a.35.35 0 0 0 0-.495zm-9.0046 8.5097L9.27 4.5895l2.1426 2.1426-6.5803 6.5803H2.6898z"/></svg>