<svg xmlns="http://www.w3.org/2000/svg" width="16" height="16" fill="none" viewBox="0 0 16 16"><path fill="#000" fill-rule="evenodd" d="M12.6 2.3125c.453 0 .8768.1255 1.2383.3437l-.5187.4635L8.6782 7.283a.95.95 0 0 1-1.2627.0054L2.684 3.116l-.525-.458A2.39 2.39 0 0 1 3.4 2.3125zM1 4.7125c0-.3987.0972-.7747.2693-1.1056l.5563.4853 4.73 4.1712c.8559.7547 2.1412.7493 2.9906-.0126l4.6406-4.1626.5422-.4846A2.39 2.39 0 0 1 15 4.7125v6.575c0 1.3255-1.0745 2.4-2.4 2.4H3.4c-1.3255 0-2.4-1.0745-2.4-2.4z"/></svg>