<svg width="16" height="16" viewBox="0 0 16 16" fill="none" xmlns="http://www.w3.org/2000/svg">
<path d="M13.8383 2.65619C13.4768 2.43803 13.053 2.3125 12.6 2.3125H3.4C2.94581 2.3125 2.52109 2.43866 2.15897 2.65786L2.68413 3.11601L7.41548 7.28838C7.77683 7.60704 8.31951 7.60475 8.67816 7.28304L13.3196 3.11967L13.8383 2.65619Z" fill="black"/>
<path d="M1.26928 3.60687C1.09723 3.93776 1 4.31377 1 4.7125V11.2875C1 12.613 2.07452 13.6875 3.4 13.6875H12.6C13.9255 13.6875 15 12.613 15 11.2875V4.7125C15 4.31247 14.9021 3.9353 14.729 3.60363L14.1868 4.08821L9.54621 8.25077C8.69678 9.01271 7.41148 9.01814 6.55564 8.26341L1.82559 4.0922L1.26928 3.60687Z" fill="black"/>
</svg>
