<svg xmlns="http://www.w3.org/2000/svg" width="16" height="16" fill="none" viewBox="0 0 16 16"><path fill="#000" fill-rule="evenodd" d="M13.5638 3.4727v4.5169a.7.7 0 0 1 .006.0885q0 .0172-.0005.034a4.34 4.34 0 0 0-1.3055-.4781V5.0297c-.2908.1288-.6091.2274-.9232.3049-.895.2208-2.0632.3439-3.3058.3439s-2.4109-.123-3.3059-.344c-.3111-.0767-.6266-.1742-.9152-.3013l.0002 3.0253c.01.0175.0318.049.0762.0937.1066.1072.3077.2502.6456.3924.4882.2053 1.212.3879 2.2177.4731a2 2 0 0 0-.0134.23v1.0732c-1.1557-.09-2.0494-.3009-2.7083-.578a5 5 0 0 1-.2178-.098l.0002 3.0094c.007.0147.0276.0499.0803.1039.1046.1071.303.2506.6387.3937.6273.2671 1.6523.4973 3.1856.5261a1.943 1.943 0 0 0 .5254 1.2374q.0303.0322.0612.0639-.1281.0017-.2598.0017c-1.8212 0-3.1362-.2559-4.0218-.6331-.4424-.1884-.8013-.4172-1.0593-.6814-.2538-.2599-.4503-.599-.4503-.9884l-.0002-4.5058a1.2 1.2 0 0 1-.0039-.0942.7.7 0 0 1 .0039-.0713l-.0002-4.4602a1.6 1.6 0 0 1-.0137-.213c0-.896.7018-1.3687.9777-1.5297.368-.2146.8138-.3634 1.2512-.4714.895-.2208 2.0632-.3439 3.3059-.3439s2.4108.1231 3.3058.344c.4375.1079.8833.2567 1.2512.4713.276.161.9778.6336.9778 1.5297q0 .0713-.0058.139m-2.339.5481.0179-.005c.6399-.1831 1.0269-.4215 1.0269-.6822s-.387-.4992-1.0269-.6822l-.0179-.005c-.7763-.2193-1.9176-.3577-3.19-.3577s-2.4137.1384-3.19.3576l-.018.0051c-.6399.183-1.0268.4214-1.0268.6822 0 .2607.387.499 1.0269.6821l.0179.0051c.7763.2192 1.9176.3577 3.19.3577s2.4137-.1385 3.19-.3577m3.2781 7.9049c0-.868-.3601-1.6519-.9391-2.2103a3.06 3.06 0 0 0-2.1316-.8604c-.2814 0-.5539.0378-.8127.1087a3.05 3.05 0 0 0-.6909.284 3.08 3.08 0 0 0-.5886.4302v-.4301a.648.648 0 0 0-.1904-.4597l-.0112-.011a.65.65 0 0 0-1.0985.4705v2.0794c0 .1802.0734.3433.1919.461a.648.648 0 0 0 .4582.1891h1.9798a.65.65 0 1 0-.0001-1.3001h-.493a1.766 1.766 0 0 1 1.2556-.522l.0257.0002c.2351.0033.4591.0525.6635.1389.3688.156.6738.4335.8648.7822.0713.1302.1267.2703.1636.4178.0346.1381.053.2827.053.4315 0 .9779-.7928 1.7707-1.7707 1.7707a1.76 1.76 0 0 1-.8834-.2356 1.78 1.78 0 0 1-.4083-.324.648.648 0 0 0-.4533-.205.648.648 0 0 0-.4655.1756.649.649 0 0 0-.1823.646.645.645 0 0 0 .1529.2728c.2697.2875.5947.5233.958.6905a3.06 3.06 0 0 0 1.282.2797c1.6958 0 3.0706-1.3748 3.0706-3.0706"/></svg>