<svg width="16" height="16" viewBox="0 0 16 16" fill="none" xmlns="http://www.w3.org/2000/svg">
<path fill-rule="evenodd" clip-rule="evenodd" d="M13.5282 8.00458V3.48765C13.5319 3.44248 13.5339 3.39612 13.5339 3.34858C13.5339 2.45254 12.8322 1.97995 12.5562 1.81896C12.1883 1.60433 11.7424 1.4555 11.305 1.34756C10.41 1.12673 9.2418 1.00366 7.99913 1.00366C6.75647 1.00366 5.58827 1.12673 4.69326 1.34756C4.25584 1.4555 3.80998 1.60433 3.44208 1.81896C3.16611 1.97995 2.46436 2.45254 2.46436 3.34858C2.46436 3.42244 2.46912 3.49343 2.47803 3.56161L2.47823 8.02183C2.47568 8.04524 2.47437 8.06903 2.47437 8.09312C2.47437 8.12488 2.47568 8.15629 2.47824 8.18732L2.47844 12.6931C2.47844 13.0826 2.67495 13.4217 2.92876 13.6815C3.18676 13.9457 3.54562 14.1745 3.98805 14.3629C4.87369 14.7401 6.1887 14.9961 8.00981 14.9961C8.0976 14.9961 8.18421 14.9955 8.26964 14.9943C8.24904 14.9732 8.22865 14.9519 8.20848 14.9304C7.87922 14.5794 7.70499 14.1388 7.68308 13.693C6.14973 13.6643 5.12474 13.4341 4.49747 13.1669C4.16169 13.0239 3.96338 12.8803 3.85877 12.7732C3.80603 12.7192 3.78554 12.6841 3.77844 12.6693L3.7783 9.65985C3.84847 9.69366 3.92108 9.72634 3.99604 9.75787C4.65498 10.0351 5.54866 10.2459 6.70435 10.3359V9.26274C6.70435 9.18492 6.7089 9.10817 6.71777 9.03273C5.71201 8.94747 4.98824 8.76491 4.5001 8.55957C4.16215 8.41741 3.96104 8.27441 3.8545 8.16722C3.81004 8.12248 3.7883 8.09096 3.77823 8.0735L3.7781 5.04822C4.06669 5.17534 4.38211 5.27281 4.69326 5.34959C5.58827 5.57043 6.75647 5.69349 7.99913 5.69349C9.2418 5.69349 10.41 5.57043 11.305 5.34959C11.619 5.2721 11.9374 5.17354 12.2282 5.04469V7.64899C12.6939 7.73869 13.1332 7.90232 13.5336 8.12717C13.534 8.11587 13.5341 8.10452 13.5341 8.09312C13.5341 8.06309 13.5321 8.03353 13.5282 8.00458ZM11.2071 4.03074L11.1891 4.03584C10.4128 4.25503 9.27152 4.39349 7.99913 4.39349C6.72675 4.39349 5.58543 4.25503 4.80916 4.03584L4.79121 4.03074C4.1513 3.84769 3.76436 3.60928 3.76436 3.34858C3.76436 3.08787 4.1513 2.84946 4.79121 2.66642L4.80916 2.66131C5.58543 2.44212 6.72675 2.30366 7.99913 2.30366C9.27152 2.30366 10.4128 2.44213 11.1891 2.66132L11.2071 2.66642C11.847 2.84946 12.2339 3.08787 12.2339 3.34858C12.2339 3.60928 11.847 3.84769 11.2071 4.03074Z" fill="black"/>
<path d="M13.5282 9.73036C14.1071 10.2888 14.4673 11.0727 14.4673 11.9407C14.4673 13.6366 13.0925 15.0113 11.3966 15.0113C10.9392 15.0113 10.5048 14.9111 10.1147 14.7316C9.75137 14.5645 9.42637 14.3286 9.15665 14.0411C9.12891 14.0115 9.10447 13.98 9.08332 13.9471C9.04727 13.8909 9.02077 13.8306 9.00374 13.7683C8.99473 13.7353 8.98837 13.7018 8.98465 13.6681C8.98465 13.6681 8.98466 13.6681 8.98465 13.6681C8.96301 13.4717 9.03085 13.2679 9.18605 13.1223C9.31696 12.9995 9.48525 12.9414 9.65152 12.9467C9.73987 12.9496 9.82765 12.9703 9.90895 13.0088C9.98064 13.0427 10.0473 13.0904 10.1048 13.1517C10.2241 13.2788 10.3616 13.3882 10.5131 13.4757C10.5131 13.4757 10.5131 13.4757 10.5131 13.4757C10.7732 13.6258 11.0748 13.7113 11.3966 13.7113C12.3745 13.7113 13.1672 12.9185 13.1672 11.9406C13.1672 11.7918 13.1489 11.6472 13.1143 11.5091C13.0774 11.3616 13.0219 11.2215 12.9506 11.0913C12.7596 10.7426 12.4546 10.4652 12.0858 10.3092C11.8814 10.2227 11.6574 10.1736 11.4223 10.1702L11.3966 10.17C10.9064 10.17 10.4622 10.3692 10.1411 10.692H10.6341C10.8037 10.692 10.9582 10.757 11.074 10.8635C11.0883 10.8767 11.1021 10.8905 11.1152 10.9049C11.2202 11.0204 11.2842 11.1738 11.2842 11.3421C11.2842 11.7011 10.9931 11.9921 10.6342 11.9921H8.65439C8.47558 11.9921 8.31363 11.9199 8.19611 11.803C8.07764 11.6853 8.0043 11.5222 8.0043 11.342V9.2627C8.0043 8.90371 8.29531 8.6127 8.6543 8.6127C8.82818 8.6127 8.98612 8.68097 9.10276 8.79218L9.11392 8.80308C9.2316 8.92071 9.30439 9.08325 9.30439 9.26279V9.69289C9.48217 9.52731 9.67967 9.3828 9.89299 9.26274C10.1084 9.14149 10.3401 9.04546 10.5838 8.97871C10.8426 8.90784 11.1151 8.86998 11.3966 8.86998C12.2245 8.86998 12.9759 9.19765 13.5282 9.73036Z" fill="black"/>
</svg>
