<svg xmlns="http://www.w3.org/2000/svg" width="16" height="16" fill="none" viewBox="0 0 16 16"><path fill="#000" fill-rule="evenodd" d="M14.3521 1.1272a.65.65 0 0 1 .65.65v3.1622a.65.65 0 1 1-1.3 0V1.7772a.65.65 0 0 1 .65-.65m-1.95 1.1853H3.4c-1.3255 0-2.4 1.0745-2.4 2.4v6.575c0 1.3255 1.0745 2.4 2.4 2.4h9.2c1.3255 0 2.4-1.0745 2.4-2.4V8.9641a1.95 1.95 0 0 1-.6479.1102 1.95 1.95 0 0 1-.6521-.1117v2.3249c0 .6075-.4925 1.1-1.1 1.1H3.4c-.6075 0-1.1-.4925-1.1-1.1v-6.575q.0001-.0961.016-.1878l4.2397 3.7388c.8558.7547 2.1411.7493 2.9905-.0127l2.9669-2.6613a1.95 1.95 0 0 1-.111-.6501v-.9967l-3.724 3.3404a.95.95 0 0 1-1.2626.0053l-4.158-3.6667A1.1 1.1 0 0 1 3.4 3.6125h9.0021zm2.6 4.8118a.65.65 0 1 1-1.3 0 .65.65 0 0 1 1.3 0"/></svg>