<svg width="16" height="16" viewBox="0 0 16 16" fill="none" xmlns="http://www.w3.org/2000/svg">
<path fill-rule="evenodd" clip-rule="evenodd" d="M13.5282 8.85468V4.33775C13.5319 4.29257 13.5339 4.24622 13.5339 4.19867C13.5339 3.30264 12.8322 2.83005 12.5562 2.66905C12.1883 2.45443 11.7424 2.30559 11.305 2.19766C10.41 1.97682 9.2418 1.85376 7.99913 1.85376C6.75647 1.85376 5.58827 1.97682 4.69326 2.19766C4.25584 2.30559 3.80998 2.45443 3.44208 2.66905C3.16611 2.83005 2.46436 3.30264 2.46436 4.19867C2.46436 4.27254 2.46912 4.34353 2.47803 4.4117L2.47823 8.87193C2.47568 8.89534 2.47437 8.91912 2.47437 8.94321C2.47437 8.97498 2.47568 9.00638 2.47824 9.03742L2.47844 13.5432C2.47844 13.9326 2.67495 14.2718 2.92876 14.5316C3.18676 14.7958 3.54562 15.0246 3.98805 15.213C4.87369 15.5902 6.1887 15.8462 8.00981 15.8462C8.0976 15.8462 8.18421 15.8456 8.26964 15.8444C8.24904 15.8233 8.22865 15.802 8.20848 15.7805C7.87922 15.4295 7.70499 14.9889 7.68308 14.5431C6.14973 14.5144 5.12474 14.2842 4.49747 14.017C4.16169 13.874 3.96338 13.7304 3.85877 13.6233C3.80603 13.5693 3.78554 13.5342 3.77844 13.5194L3.7783 10.51C3.84847 10.5438 3.92108 10.5764 3.99604 10.608C4.65498 10.8852 5.54866 11.096 6.70435 11.186V10.1128C6.70435 10.035 6.7089 9.95827 6.71777 9.88283C5.71201 9.79757 4.98824 9.61501 4.5001 9.40967C4.16215 9.26751 3.96104 9.12451 3.8545 9.01732C3.81004 8.97258 3.7883 8.94106 3.77823 8.9236L3.7781 5.89831C4.06669 6.02544 4.38211 6.12291 4.69326 6.19969C5.58827 6.42052 6.75647 6.54359 7.99913 6.54359C9.2418 6.54359 10.41 6.42052 11.305 6.19969C11.619 6.1222 11.9374 6.02364 12.2282 5.89479V8.49909C12.6939 8.58879 13.1332 8.75242 13.5336 8.97727C13.534 8.96597 13.5341 8.95461 13.5341 8.94321C13.5341 8.91318 13.5321 8.88363 13.5282 8.85468ZM11.2071 4.88083L11.1891 4.88593C10.4128 5.10512 9.27152 5.24359 7.99913 5.24359C6.72675 5.24359 5.58543 5.10513 4.80916 4.88594L4.79121 4.88083C4.1513 4.69779 3.76436 4.45938 3.76436 4.19867C3.76436 3.93797 4.1513 3.69956 4.79121 3.51651L4.80916 3.51141C5.58543 3.29222 6.72675 3.15376 7.99913 3.15376C9.27152 3.15376 10.4128 3.29222 11.1891 3.51141L11.2071 3.51651C11.847 3.69956 12.2339 3.93797 12.2339 4.19867C12.2339 4.45938 11.847 4.69779 11.2071 4.88083Z" fill="black"/>
<path d="M13.5282 10.5805C14.1071 11.1389 14.4673 11.9228 14.4673 12.7908C14.4673 14.4867 13.0925 15.8614 11.3966 15.8614C10.9392 15.8614 10.5048 15.7612 10.1147 15.5817C9.75137 15.4146 9.42637 15.1787 9.15665 14.8912C9.12891 14.8616 9.10447 14.8301 9.08332 14.7972C9.04727 14.741 9.02077 14.6807 9.00374 14.6184C8.99473 14.5854 8.98837 14.5519 8.98465 14.5182C8.98465 14.5182 8.98466 14.5182 8.98465 14.5182C8.96301 14.3218 9.03085 14.118 9.18605 13.9724C9.31696 13.8496 9.48525 13.7915 9.65152 13.7968C9.73987 13.7997 9.82765 13.8204 9.90895 13.8588C9.98064 13.8928 10.0473 13.9405 10.1048 14.0018C10.2241 14.1289 10.3616 14.2383 10.5131 14.3258C10.5131 14.3258 10.5131 14.3258 10.5131 14.3258C10.7732 14.4759 11.0748 14.5614 11.3966 14.5614C12.3745 14.5614 13.1672 13.7686 13.1672 12.7907C13.1672 12.6419 13.1489 12.4973 13.1143 12.3592C13.0774 12.2117 13.0219 12.0716 12.9506 11.9414C12.7596 11.5927 12.4546 11.3153 12.0858 11.1593C11.8814 11.0728 11.6574 11.0236 11.4223 11.0203L11.3966 11.0201C10.9064 11.0201 10.4622 11.2193 10.1411 11.5421H10.6341C10.8037 11.5421 10.9582 11.6071 11.074 11.7136C11.0883 11.7268 11.1021 11.7406 11.1152 11.755C11.2202 11.8705 11.2842 12.0239 11.2842 12.1922C11.2842 12.5512 10.9931 12.8422 10.6342 12.8422H8.65439C8.47558 12.8422 8.31363 12.77 8.19611 12.6531C8.07764 12.5354 8.0043 12.3723 8.0043 12.1921V10.1128C8.0043 9.75381 8.29531 9.46279 8.6543 9.46279C8.82818 9.46279 8.98612 9.53107 9.10276 9.64228L9.11392 9.65317C9.2316 9.77081 9.30439 9.93335 9.30439 10.1129V10.543C9.48217 10.3774 9.67967 10.2329 9.89299 10.1128C10.1084 9.99159 10.3401 9.89556 10.5838 9.82881C10.8426 9.75794 11.1151 9.72008 11.3966 9.72008C12.2245 9.72008 12.9759 10.0477 13.5282 10.5805Z" fill="black"/>
</svg>
