<svg xmlns="http://www.w3.org/2000/svg" width="16" height="16" fill="none" viewBox="0 0 16 16"><path fill="#000" fill-rule="evenodd" d="M1.784 2.938a.65.65 0 0 0-.2239.2333A2.39 2.39 0 0 0 1 4.7126v6.575c0 1.3255 1.0745 2.4 2.4 2.4h9.2c1.3255 0 2.4-1.0745 2.4-2.4v-6.575a2.39 2.39 0 0 0-.5436-1.5212.65.65 0 0 0-.0932-.1345.65.65 0 0 0-.1583-.1288A2.39 2.39 0 0 0 12.6 2.3125H3.4c-.6224 0-1.1896.237-1.616.6256m1.616.6745h9.2q.0804 0 .1577.0112L8.6782 7.2831a.95.95 0 0 1-1.2627.0053l-4.158-3.6668a1.1 1.1 0 0 1 .1425-.009m10.2861.9248q.0138.0857.0139.1752v6.575c0 .6075-.4925 1.1-1.1 1.1H3.4c-.6075 0-1.1-.4925-1.1-1.1v-6.575q.0001-.0961.016-.1878l4.2397 3.7388c.8558.7547 2.141.7493 2.9905-.0127z"/></svg>