<svg xmlns="http://www.w3.org/2000/svg" width="16" height="16" fill="none" viewBox="0 0 16 16"><path fill="#000" fill-rule="evenodd" d="M6 2a.67.67 0 0 1 .2257.0392l3.7535 1.2511 3.1065-1.2426a.6668.6668 0 0 1 .9143.619v9a.667.667 0 0 1-.3685.5963l-3.3214 1.6607a.666.666 0 0 1-.341.0756.66.66 0 0 1-.2392-.0563l-3.7047-1.5436-3.0604 1.5302A.6665.6665 0 0 1 2 13.3333V4c0-.2726.166-.5177.419-.619l3.3193-1.3276A.665.665 0 0 1 6 2m4.6667 10.2546 2-1V3.6514l-2 .8zm-1.3334-7.774v7.8527l-2.6666-1.1111V3.5916zm-6-.0292 2-.8v7.6032l-2 1z"/></svg>