<svg width="16" height="16" viewBox="0 0 16 16" fill="none" xmlns="http://www.w3.org/2000/svg">
<path d="M9.48029 7.29724C9.49041 8.07199 10.1216 8.69692 10.8988 8.69692C11.6759 8.69692 12.3071 8.07199 12.3172 7.29724H9.48029Z" fill="black"/>
<path d="M3.6665 7.30334C3.67663 8.0781 4.30782 8.70303 5.08497 8.70303C5.86213 8.70303 6.49332 8.0781 6.50344 7.30334H3.6665Z" fill="black"/>
<path fill-rule="evenodd" clip-rule="evenodd" d="M13.3249 4.73089C12.5765 4.43038 11.7257 4.4456 11.0092 4.52181C9.89206 4.64065 8.73082 4.93926 7.99613 5.21687C7.26102 4.94011 6.10411 4.64321 4.99094 4.5248C4.27447 4.44859 3.42372 4.43337 2.67531 4.73388C1.8734 5.05589 1.25942 5.71182 1.01666 6.79665C0.810793 7.71669 0.887675 8.82397 1.38559 9.74698C1.90143 10.7032 2.85088 11.4201 4.26088 11.5096C4.9713 11.5547 5.5353 11.4754 6.00289 11.3026C6.47401 11.1285 6.80632 10.8745 7.06628 10.6336C7.16906 10.5383 7.26571 10.4399 7.3475 10.3566L7.39641 10.3069C7.49361 10.2085 7.56953 10.1347 7.64357 10.0742C7.7656 9.97461 7.86944 9.92125 8.01087 9.90374C8.14148 9.92387 8.24087 9.97675 8.35661 10.0713C8.43065 10.1317 8.50657 10.2055 8.60377 10.3039L8.65268 10.3536C8.73447 10.4369 8.83112 10.5353 8.93391 10.6306C9.19386 10.8716 9.52617 11.1255 9.9973 11.2996C10.4649 11.4724 11.0289 11.5517 11.7393 11.5066C13.1493 11.4171 14.0988 10.7002 14.6146 9.74399C15.1125 8.82098 15.1894 7.7137 14.9835 6.79366C14.7408 5.70883 14.1268 5.05289 13.3249 4.73089ZM7.90382 8.60775C7.95468 8.5995 8.00735 8.59722 8.06101 8.60158C8.54531 8.64097 8.89784 8.83488 9.17881 9.06429C9.31102 9.17224 9.42873 9.28917 9.5288 9.39052L9.58722 9.44984C9.66806 9.53208 9.73927 9.60451 9.81767 9.67718C9.99932 9.84557 10.1882 9.98424 10.4478 10.0802C10.711 10.1774 11.0874 10.2454 11.6569 10.2092C12.6089 10.1488 13.1625 9.69764 13.4705 9.12679C13.7963 8.5227 13.864 7.74381 13.7149 7.07755C13.5622 6.395 13.2304 6.09384 12.8405 5.93727C12.3971 5.75922 11.8099 5.74397 11.1467 5.81452C10.009 5.93554 8.83187 6.26521 8.26562 6.5093C8.2156 6.53086 8.16436 6.54565 8.11293 6.55408C7.98972 6.57755 7.85842 6.56568 7.73456 6.51229C7.16831 6.2682 5.99119 5.93853 4.85343 5.81751C4.19024 5.74696 3.60313 5.76222 3.15972 5.94026C2.76982 6.09683 2.43802 6.39799 2.28529 7.08054C2.1362 7.7468 2.20386 8.52569 2.52973 9.12978C2.83767 9.70063 3.39125 10.1518 4.34326 10.2122C4.9128 10.2484 5.28915 10.1804 5.55234 10.0832C5.81198 9.98723 6.00086 9.84856 6.18252 9.68017C6.26091 9.6075 6.33212 9.53507 6.41297 9.45284L6.47138 9.39351C6.57145 9.29216 6.68916 9.17523 6.82137 9.06728C7.09546 8.84349 7.43765 8.65348 7.90382 8.60775Z" fill="black"/>
</svg>
