<svg xmlns="http://www.w3.org/2000/svg" width="16" height="16" fill="none" viewBox="0 0 16 16"><path fill="#000" fill-rule="evenodd" d="M1.0313 4.4913c0-1.9286 1.5634-3.492 3.492-3.492s3.492 1.5634 3.492 3.492-1.5634 3.492-3.492 3.492-3.492-1.5634-3.492-3.492m3.492-2.192c-1.2106 0-2.192.9813-2.192 2.192 0 1.2106.9814 2.192 2.192 2.192s2.192-.9814 2.192-2.192-.9814-2.192-2.192-2.192m4.8382 2.0002h3.686a.65.65 0 0 1 .65.65v1.102a.65.65 0 0 1-.65.65h-4.215A4.864 4.864 0 0 1 7.35 8.423v2.5099a1.606 1.606 0 0 0-.8124.8125H1.6953a.65.65 0 1 0 0 1.3h4.8423c.2491.5597.8102.95 1.4624.95.6523 0 1.2133-.3903 1.4625-.95h4.8422a.65.65 0 1 0 0-1.3H9.4625a1.607 1.607 0 0 0-.8125-.8125V8.0016h4.3975c1.0769 0 1.95-.873 1.95-1.95V4.9495c0-1.077-.8731-1.95-1.95-1.95H9.1311a4.83 4.83 0 0 1 .2304 1.3m-3.6641-.068c.2.1154.2.404 0 .5196l-1.536.8868c-.2.1155-.45-.0289-.45-.2598V3.6044c0-.231.25-.3752.45-.2598z"/></svg>