<svg xmlns="http://www.w3.org/2000/svg" width="16" height="16" fill="none" viewBox="0 0 16 16"><path fill="#000" fill-rule="evenodd" d="M3.2 2.6833c-1.0217 0-1.85.8283-1.85 1.85v4.9334c0 1.0217.8283 1.85 1.85 1.85h9.6c1.0217 0 1.85-.8283 1.85-1.85V4.5333c0-1.0217-.8283-1.85-1.85-1.85zm-.55 1.85a.55.55 0 0 1 .55-.55h9.6a.55.55 0 0 1 .55.55v4.9334a.55.55 0 0 1-.55.55H3.2a.55.55 0 0 1-.55-.55zM9.4746 7.433c.3333-.1925.3333-.6736 0-.866l-2.071-1.1957c-.3334-.1925-.75.048-.75.433v2.3914c0 .3849.4166.6255.75.433zm-4.7913 5.2336a.65.65 0 0 1 .65-.65h5.3334a.65.65 0 0 1 0 1.3H5.3334a.65.65 0 0 1-.65-.65"/></svg>