<svg width="16" height="16" viewBox="0 0 16 16" fill="none" xmlns="http://www.w3.org/2000/svg">
<path d="M7.6666 6.6666C7.11432 6.6666 6.6666 7.11432 6.6666 7.6666V8.33327C6.6666 8.88555 7.11432 9.33327 7.6666 9.33327H8.33327C8.88555 9.33327 9.33327 8.88555 9.33327 8.33327V7.6666C9.33327 7.11432 8.88555 6.6666 8.33327 6.6666H7.6666Z" fill="black"/>
<path fill-rule="evenodd" clip-rule="evenodd" d="M6.6666 2.0166C7.02559 2.0166 7.3166 2.30762 7.3166 2.6666V3.34995H8.68327V2.6666C8.68327 2.30762 8.97428 2.0166 9.33327 2.0166C9.69225 2.0166 9.98327 2.30762 9.98327 2.6666V3.34995H10.5999C11.7321 3.34995 12.6499 4.26776 12.6499 5.39995V6.0166H13.3333C13.6923 6.0166 13.9833 6.30762 13.9833 6.6666C13.9833 7.02559 13.6923 7.3166 13.3333 7.3166H12.6499V8.68327H13.3333C13.6923 8.68327 13.9833 8.97428 13.9833 9.33327C13.9833 9.69225 13.6923 9.98327 13.3333 9.98327H12.6499V10.5999C12.6499 11.7321 11.7321 12.6499 10.5999 12.6499H9.98327V13.3333C9.98327 13.6923 9.69225 13.9833 9.33327 13.9833C8.97428 13.9833 8.68327 13.6923 8.68327 13.3333V12.6499H7.3166V13.3333C7.3166 13.6923 7.02559 13.9833 6.6666 13.9833C6.30762 13.9833 6.0166 13.6923 6.0166 13.3333V12.6499H5.39991C4.26773 12.6499 3.34991 11.7321 3.34991 10.5999V9.98327H2.6666C2.30762 9.98327 2.0166 9.69225 2.0166 9.33327C2.0166 8.97428 2.30762 8.68327 2.6666 8.68327H3.34991V7.3166H2.6666C2.30762 7.3166 2.0166 7.02559 2.0166 6.6666C2.0166 6.30762 2.30762 6.0166 2.6666 6.0166H3.34991V5.39995C3.34991 4.26776 4.26773 3.34995 5.39991 3.34995H6.0166V2.6666C6.0166 2.30762 6.30762 2.0166 6.6666 2.0166ZM10.5999 11.3499H9.33683L9.33327 11.3499L9.32971 11.3499H6.67016L6.6666 11.3499L6.66304 11.3499H5.39991C4.9857 11.3499 4.64991 11.0142 4.64991 10.5999V9.33846L4.64994 9.33327L4.64991 9.32808V6.67179L4.64994 6.6666L4.64991 6.66141V5.39995C4.64991 4.98573 4.9857 4.64995 5.39991 4.64995H10.5999C11.0141 4.64995 11.3499 4.98573 11.3499 5.39995V10.5999C11.3499 11.0142 11.0141 11.3499 10.5999 11.3499Z" fill="black"/>
</svg>
