<svg xmlns="http://www.w3.org/2000/svg" width="16" height="16" fill="none" viewBox="0 0 16 16"><path fill="#000" fill-rule="evenodd" d="M7.3166 2.6667a.65.65 0 0 0-1.3 0V3.35h-.6167c-1.1322 0-2.05.9178-2.05 2.05v.6167h-.6833a.65.65 0 0 0 0 1.3h.6833v1.3666h-.6833a.65.65 0 0 0 0 1.3h.6833V10.6c0 1.1322.9178 2.05 2.05 2.05h.6167v.6833a.65.65 0 1 0 1.3 0V12.65h1.3667v.6833a.65.65 0 1 0 1.3 0V12.65h.6166c1.1322 0 2.05-.9178 2.05-2.05v-.6167h.6834a.65.65 0 1 0 0-1.3h-.6834V7.3167h.6834a.65.65 0 1 0 0-1.3h-.6834V5.4c0-1.1322-.9178-2.05-2.05-2.05h-.6166v-.6833a.65.65 0 0 0-1.3 0V3.35H7.3166zm-.6501 5c0-.5523.4477-1 1-1h.6667c.5523 0 1 .4477 1 1v.6666c0 .5523-.4477 1-1 1h-.6667c-.5523 0-1-.4477-1-1z"/></svg>