<svg width="16" height="16" viewBox="0 0 16 16" fill="none" xmlns="http://www.w3.org/2000/svg">
<path fill-rule="evenodd" clip-rule="evenodd" d="M12.001 6.68359C12.3599 6.68359 12.6513 6.97504 12.6514 7.33398V8.01758H12.668C13.3952 8.0176 13.9844 8.60776 13.9844 9.33496V12.002C13.984 12.7288 13.3949 13.3183 12.668 13.3184H12.6514V14.001C12.6513 14.3599 12.3599 14.6504 12.001 14.6504C11.6422 14.6502 11.3507 14.3598 11.3506 14.001V13.3184H10.6514V14.001C10.6513 14.3599 10.3599 14.6504 10.001 14.6504C9.64206 14.6504 9.35065 14.3599 9.35059 14.001V13.3184H8.65137V14.001C8.6513 14.3599 8.35986 14.6503 8.00098 14.6504C7.64203 14.6504 7.35065 14.3599 7.35059 14.001V13.3184H6.65137V14.001C6.6513 14.3598 6.35976 14.6502 6.00098 14.6504C5.64203 14.6504 5.35065 14.3599 5.35059 14.001V13.3184H4.65039V14.001C4.65033 14.3599 4.35895 14.6504 4 14.6504C3.64125 14.6502 3.34967 14.3598 3.34961 14.001V13.3184H3.33398C2.607 13.3184 2.01698 12.7288 2.0166 12.002V9.33496C2.0166 8.60775 2.60677 8.01758 3.33398 8.01758H3.34961V7.33398C3.34966 6.97518 3.64124 6.68383 4 6.68359C4.35895 6.68359 4.65034 6.97504 4.65039 7.33398V8.01758H5.35059V7.33398C5.35064 6.97504 5.64202 6.68359 6.00098 6.68359C6.35977 6.68378 6.65132 6.97516 6.65137 7.33398V8.01758H7.35059V7.33398C7.35064 6.97504 7.64202 6.68359 8.00098 6.68359C8.35987 6.68367 8.65132 6.97509 8.65137 7.33398V8.01758H9.35059V7.33398C9.35064 6.97506 9.64205 6.68363 10.001 6.68359C10.3599 6.68359 10.6513 6.97504 10.6514 7.33398V8.01758H11.3506V7.33398C11.3506 6.97513 11.6421 6.68374 12.001 6.68359ZM3.32715 9.31934C3.32715 9.31934 3.32406 9.32145 3.32227 9.32324C3.32051 9.32501 3.31836 9.32812 3.31836 9.32812C3.31836 9.32812 3.31738 9.33178 3.31738 9.33496V12.002C3.31745 12.005 3.31836 12.0078 3.31836 12.0078C3.31836 12.0078 3.32042 12.0118 3.32227 12.0137C3.32401 12.0153 3.32715 12.0176 3.32715 12.0176C3.32715 12.0176 3.33065 12.0186 3.33398 12.0186H3.99023C3.99349 12.0185 3.99673 12.0176 4 12.0176C4.00312 12.0176 4.00665 12.0185 4.00977 12.0186H5.99121C5.99435 12.0185 5.99783 12.0176 6.00098 12.0176C6.00424 12.0176 6.00749 12.0185 6.01074 12.0186H7.99121C7.99442 12.0185 7.99776 12.0176 8.00098 12.0176C8.00424 12.0176 8.00749 12.0185 8.01074 12.0186H9.99121C9.99446 12.0185 9.99771 12.0176 10.001 12.0176C10.0042 12.0176 10.0075 12.0185 10.0107 12.0186H11.9912C11.9945 12.0185 11.9977 12.0176 12.001 12.0176C12.0041 12.0176 12.0076 12.0185 12.0107 12.0186H12.668C12.6714 12.0186 12.6748 12.0176 12.6748 12.0176C12.6748 12.0176 12.678 12.0154 12.6797 12.0137C12.6815 12.0118 12.6836 12.0078 12.6836 12.0078C12.6836 12.0078 12.6845 12.0049 12.6846 12.002V9.33496C12.6846 9.3318 12.6836 9.32812 12.6836 9.32812C12.6836 9.32812 12.6814 9.32499 12.6797 9.32324C12.678 9.32154 12.6748 9.31934 12.6748 9.31934C12.6748 9.31934 12.6715 9.31836 12.668 9.31836H3.33398C3.33047 9.31836 3.32715 9.31934 3.32715 9.31934Z" fill="black"/>
<path d="M12.668 4C13.4042 4.00014 14.0018 4.59773 14.002 5.33398V6.28809C13.4368 5.71542 12.739 5.33422 12.002 5.33398H4.00098C3.95702 5.33398 3.9124 5.3351 3.86914 5.33789C3.17495 5.38294 2.52907 5.75724 2 6.29688V5.33398C2.00013 4.59764 2.59761 4 3.33398 4H12.668Z" fill="black"/>
<path d="M12.668 1.40723C13.395 1.40737 13.9842 1.99759 13.9844 2.72461V3.05469C13.5971 2.83053 13.1477 2.70027 12.668 2.7002H3.33301C2.85307 2.70036 2.40401 2.83123 2.0166 3.05566V2.72461C2.01673 1.99758 2.60695 1.40734 3.33398 1.40723H12.668Z" fill="black"/>
</svg>
