<svg width="16" height="16" viewBox="0 0 16 16" fill="none" xmlns="http://www.w3.org/2000/svg">
<path d="M1.1001 3.00034C1.1001 2.64136 1.39111 2.35034 1.7501 2.35034H14.2501C14.6091 2.35034 14.9001 2.64136 14.9001 3.00034C14.9001 3.35933 14.6091 3.65034 14.2501 3.65034H1.7501C1.39111 3.65034 1.1001 3.35933 1.1001 3.00034Z" fill="black"/>
<path d="M1.1001 8.00449C1.1001 7.64551 1.39111 7.35449 1.7501 7.35449H14.2501C14.6091 7.35449 14.9001 7.64551 14.9001 8.00449C14.9001 8.36348 14.6091 8.65449 14.2501 8.65449H1.7501C1.39111 8.65449 1.1001 8.36348 1.1001 8.00449Z" fill="black"/>
<path d="M1.7501 12.3589C1.39111 12.3589 1.1001 12.6499 1.1001 13.0089C1.1001 13.3679 1.39111 13.6589 1.7501 13.6589H14.2501C14.6091 13.6589 14.9001 13.3679 14.9001 13.0089C14.9001 12.6499 14.6091 12.3589 14.2501 12.3589H1.7501Z" fill="black"/>
</svg>
