<svg width="16" height="16" viewBox="0 0 16 16" fill="none" xmlns="http://www.w3.org/2000/svg">
<path d="M9.74999 2.75C9.74999 3.71649 8.96649 4.49999 8 4.49999C7.0335 4.49999 6.25 3.71649 6.25 2.75C6.25 1.7835 7.0335 1 8 1C8.96649 1 9.74999 1.7835 9.74999 2.75Z" fill="black"/>
<path d="M9.74999 7.99997C9.74999 8.96646 8.96649 9.74996 8 9.74996C7.0335 9.74996 6.25 8.96646 6.25 7.99997C6.25 7.03347 7.0335 6.24997 8 6.24997C8.96649 6.24997 9.74999 7.03347 9.74999 7.99997Z" fill="black"/>
<path d="M8 15C8.96649 15 9.74999 14.2165 9.74999 13.25C9.74999 12.2835 8.96649 11.5 8 11.5C7.0335 11.5 6.25 12.2835 6.25 13.25C6.25 14.2165 7.0335 15 8 15Z" fill="black"/>
</svg>
