<svg xmlns="http://www.w3.org/2000/svg" width="16" height="16" fill="none" viewBox="0 0 16 16"><path fill="#000" fill-rule="evenodd" d="M1 3.6204C1 2.1706 2.1753.9954 3.625.9954h8.75C13.8247.9954 15 2.1706 15 3.6204v5.9532c0 1.4498-1.1753 2.625-2.625 2.625H5.4648a.875.875 0 0 0-.6454.2842l-1.9948 2.1789c-.6469.7066-1.8245.2489-1.8245-.7091l.0003-4.3337L1 9.5736zm1.3 5.9532.0004.0453-.0002 3.6904 1.5604-1.7044a2.175 2.175 0 0 1 1.6042-.7063h6.9102c.7318 0 1.325-.5932 1.325-1.325V3.6204c0-.7318-.5932-1.325-1.325-1.325h-8.75c-.7318 0-1.325.5932-1.325 1.325zM6 6.8377a.6667.6667 0 1 1-1.3334 0 .6667.6667 0 0 1 1.3334 0m2 .6667a.6667.6667 0 1 0 0-1.3333.6667.6667 0 0 0 0 1.3333m2.6667 0a.6666.6666 0 0 0 .6666-.6667.6666.6666 0 1 0-1.3333 0c0 .3682.2985.6667.6667.6667"/></svg>