<svg xmlns="http://www.w3.org/2000/svg" width="16" height="16" fill="none" viewBox="0 0 16 16"><path fill="#000" fill-rule="evenodd" d="M1 3.6203C1 2.1706 2.1753.9953 3.625.9953h8.75C13.8247.9953 15 2.1706 15 3.6203v5.9533c0 1.4497-1.1753 2.625-2.625 2.625H5.4648a.875.875 0 0 0-.6454.2841l-1.9948 2.179c-.6469.7065-1.8245.2488-1.8244-.7091L1 7.6558zm4.3332 3.884a.6667.6667 0 1 0 0-1.3333.6667.6667 0 0 0 0 1.3333m3.3334-.6666a.6667.6667 0 1 1-1.3333 0 .6667.6667 0 0 1 1.3333 0m2.6666 0a.6667.6667 0 1 1-1.3334 0 .6667.6667 0 0 1 1.3334 0"/></svg>