<svg xmlns="http://www.w3.org/2000/svg" width="16" height="16" fill="none" viewBox="0 0 16 16"><path fill="#000" fill-rule="evenodd" d="M1 5c0-1.1046.8954-2 2-2h10c1.1046 0 2 .8954 2 2v6c0 .9968-.7292 1.8233-1.6833 1.9751v.3582a.65.65 0 0 1-1.3 0V13H3.9833v.3333a.65.65 0 1 1-1.3 0v-.3582C1.7293 12.8233 1 11.9968 1 11zm2-.7h10a.7.7 0 0 1 .7.7v6a.7.7 0 0 1-.7.7H3a.7.7 0 0 1-.7-.7V5a.7.7 0 0 1 .7-.7m.35 2.5c0-.8008.6492-1.45 1.45-1.45h3.4c.8008 0 1.45.6492 1.45 1.45v2.4c0 .8008-.6492 1.45-1.45 1.45H4.8c-.8008 0-1.45-.6492-1.45-1.45zM11 5.35a.65.65 0 1 0 0 1.3h1.5a.65.65 0 1 0 0-1.3zm-6.2 1.3a.15.15 0 0 0-.15.15v2.4a.15.15 0 0 0 .15.15h3.4a.15.15 0 0 0 .15-.15V6.8a.15.15 0 0 0-.15-.15z"/></svg>