<svg width="16" height="16" viewBox="0 0 16 16" fill="none" xmlns="http://www.w3.org/2000/svg">
<path fill-rule="evenodd" clip-rule="evenodd" d="M5.34978 4.0001C5.34978 2.53655 6.53622 1.3501 7.99978 1.3501C9.46333 1.3501 10.6498 2.53654 10.6498 4.0001V7.33343C10.6498 8.79698 9.46333 9.98343 7.99978 9.98343C6.53622 9.98343 5.34978 8.79699 5.34978 7.33343V4.0001ZM7.99978 2.6501C7.25419 2.6501 6.64978 3.25451 6.64978 4.0001V7.33343C6.64978 8.07902 7.25419 8.68343 7.99978 8.68343C8.74536 8.68343 9.34978 8.07901 9.34978 7.33343V4.0001C9.34978 3.25451 8.74536 2.6501 7.99978 2.6501Z" fill="black"/>
<path d="M3.33311 6.68343C3.69209 6.68343 3.98311 6.97444 3.98311 7.33343C3.98311 9.55177 5.78143 11.3501 7.99977 11.3501C10.2181 11.3501 12.0164 9.55177 12.0164 7.33343C12.0164 6.97444 12.3075 6.68343 12.6664 6.68343C13.0254 6.68343 13.3164 6.97444 13.3164 7.33343C13.3164 10.0497 11.2795 12.2902 8.64978 12.6108V14.0001C8.64978 14.3591 8.35876 14.6501 7.99978 14.6501C7.64079 14.6501 7.34978 14.3591 7.34978 14.0001V12.6108C4.72007 12.2902 2.68311 10.0497 2.68311 7.33343C2.68311 6.97444 2.97412 6.68343 3.33311 6.68343Z" fill="black"/>
</svg>
