<svg width="16" height="16" viewBox="0 0 16 16" fill="none" xmlns="http://www.w3.org/2000/svg">
<path d="M5.35006 6.64814V7.33343C5.35006 8.79699 6.53651 9.98343 8.00006 9.98343C8.21136 9.98343 8.41689 9.9587 8.6139 9.91198L9.68336 10.9814C9.17179 11.2179 8.60207 11.3499 8.00154 11.3501H8.00006C5.78172 11.3501 3.98339 9.55177 3.98339 7.33343C3.98339 6.97445 3.69238 6.68343 3.33339 6.68343C2.97441 6.68343 2.68339 6.97445 2.68339 7.33343C2.68339 10.0497 4.72035 12.2902 7.35006 12.6108V14.0001C7.35006 14.3591 7.64108 14.6501 8.00006 14.6501C8.35905 14.6501 8.65006 14.3591 8.65006 14.0001V12.6108C9.37009 12.523 10.0457 12.2913 10.6472 11.9453L13.5126 14.8106C13.7664 15.0645 14.178 15.0645 14.4318 14.8106C14.6856 14.5568 14.6856 14.1452 14.4318 13.8914L2.48755 1.94715C2.23371 1.69331 1.82215 1.69331 1.56831 1.94715C1.31447 2.20099 1.31447 2.61255 1.56831 2.86639L5.35006 6.64814Z" fill="black"/>
<path d="M9.35006 4.0001V7.02165L10.5111 8.18265C10.6012 7.91606 10.6501 7.63045 10.6501 7.33343V4.0001C10.6501 2.53654 9.46361 1.3501 8.00006 1.3501C6.83081 1.3501 5.83844 2.10735 5.4866 3.15818L6.65006 4.32165V4.0001C6.65006 3.25451 7.25448 2.6501 8.00006 2.6501C8.74564 2.6501 9.35006 3.25451 9.35006 4.0001Z" fill="black"/>
<path d="M11.5475 9.21908L12.4979 10.1695C13.0166 9.34873 13.3167 8.37613 13.3167 7.33343C13.3167 6.97445 13.0257 6.68343 12.6667 6.68343C12.3077 6.68343 12.0167 6.97445 12.0167 7.33343C12.0167 8.01495 11.847 8.65682 11.5475 9.21908Z" fill="black"/>
</svg>
