<svg width="16" height="16" viewBox="0 0 16 16" fill="none" xmlns="http://www.w3.org/2000/svg">
<path fill-rule="evenodd" clip-rule="evenodd" d="M5.34978 4.31211C5.34978 2.84856 6.53622 1.66211 7.99978 1.66211C9.46333 1.66211 10.6498 2.84855 10.6498 4.31211V7.64544C10.6498 9.10899 9.46333 10.2954 7.99978 10.2954C6.53622 10.2954 5.34978 9.109 5.34978 7.64544V4.31211ZM7.99978 2.96211C7.25419 2.96211 6.64978 3.56653 6.64978 4.31211V7.64544C6.64978 8.39103 7.25419 8.99544 7.99978 8.99544C8.74536 8.99544 9.34978 8.39103 9.34978 7.64544V4.31211C9.34978 3.56652 8.74536 2.96211 7.99978 2.96211Z" fill="black"/>
<path d="M3.33311 6.99544C3.69209 6.99544 3.98311 7.28645 3.98311 7.64544C3.98311 9.86378 5.78143 11.6621 7.99977 11.6621C10.2181 11.6621 12.0164 9.86378 12.0164 7.64544C12.0164 7.28645 12.3075 6.99544 12.6664 6.99544C13.0254 6.99544 13.3164 7.28645 13.3164 7.64544C13.3164 10.3617 11.2795 12.6022 8.64978 12.9228V14.3121C8.64978 14.6711 8.35876 14.9621 7.99978 14.9621C7.64079 14.9621 7.34978 14.6711 7.34978 14.3121V12.9228C4.72007 12.6022 2.68311 10.3617 2.68311 7.64544C2.68311 7.28645 2.97412 6.99544 3.33311 6.99544Z" fill="black"/>
</svg>
