<svg xmlns="http://www.w3.org/2000/svg" width="16" height="16" fill="none" viewBox="0 0 16 16"><path fill="#000" fill-rule="evenodd" d="M9.35 4.0001v3.0215l1.1611 1.161a2.65 2.65 0 0 0 .139-.8492V4.0001c0-1.4636-1.1865-2.65-2.65-2.65-1.1693 0-2.1617.7573-2.5135 1.808L6.65 4.3217v-.3215c0-.7456.6044-1.35 1.35-1.35s1.35.6044 1.35 1.35m-4 3.3333v-.6853L1.5684 2.8664a.65.65 0 1 1 .9193-.9192l11.9442 11.9442a.65.65 0 0 1-.9192.9193l-2.8654-2.8654a5.28 5.28 0 0 1-1.9971.6655v1.3893a.65.65 0 1 1-1.3 0v-1.3893c-2.6298-.3206-4.6667-2.5611-4.6667-5.2774a.65.65 0 1 1 1.3 0c0 2.2184 1.7983 4.0167 4.0167 4.0167h.0014a4 4 0 0 0 1.6819-.3687L8.6139 9.912a2.66 2.66 0 0 1-.6138.0714c-1.4636 0-2.65-1.1864-2.65-2.65m6.1975 1.8857.9504.9504c.5187-.8208.8188-1.7934.8188-2.836a.65.65 0 1 0-1.3 0 4 4 0 0 1-.4692 1.8856"/></svg>