<svg xmlns="http://www.w3.org/2000/svg" width="16" height="16" fill="none" viewBox="0 0 16 16"><g clip-path="url(#a)"><path fill="url(#b)" d="M13.9045 11.583a5.4 5.4 0 0 1-.6039.2698 5.84 5.84 0 0 1-2.0567.3701c-2.711 0-5.0726-1.8648-5.0726-4.2579a1.804 1.804 0 0 1 .9413-1.5646c-2.4521.1031-3.0823 2.6583-3.0823 4.1554 0 4.2327 3.901 4.6618 4.7414 4.6618.4532 0 1.1367-.1318 1.5469-.2613l.0751-.0252a7.353 7.353 0 0 0 3.8156-3.025.229.229 0 0 0-.0268-.28.229.229 0 0 0-.278-.0431"/><path fill="url(#c)" d="M6.7233 14.4977a4.54 4.54 0 0 1-1.3028-1.2227A4.6243 4.6243 0 0 1 7.1123 6.4c.1788-.0842.4841-.2366.8903-.2291a1.853 1.853 0 0 1 1.4719.7448c.2313.3089.3589.6831.3643 1.069 0-.012 1.4014-4.5604-4.5833-4.5604-2.5151 0-4.5833 2.3868-4.5833 4.4808a7.46 7.46 0 0 0 .6938 3.2083 7.3335 7.3335 0 0 0 8.9592 3.8449 4.329 4.329 0 0 1-3.5967-.4584z"/><path fill="url(#d)" d="M9.3933 9.195c-.0465.0601-.1891.1432-.1891.3242 0 .1495.0974.2934.2704.4142.8239.5729 2.377.4973 2.381.4973a3.41 3.41 0 0 0 1.7343-.4784 3.516 3.516 0 0 0 1.7434-3.0295c.0149-1.284-.4584-2.1376-.6497-2.5157C13.4696 2.0323 10.849.6665 7.9994.6665A7.3333 7.3333 0 0 0 .666 7.8967c.0275-2.0934 2.1084-3.7841 4.5833-3.7841.2006 0 1.3441.0195 2.4063.577.9361.4915 1.4266 1.085 1.7675 1.6734.354.6113.417 1.3836.417 1.6913 0 .3076-.157.7637-.4468 1.1406"/><path fill="url(#e)" d="M9.3933 9.195c-.0465.0601-.1891.1432-.1891.3242 0 .1495.0974.2934.2704.4142.8239.5729 2.377.4973 2.381.4973a3.41 3.41 0 0 0 1.7343-.4784 3.516 3.516 0 0 0 1.7434-3.0295c.0149-1.284-.4584-2.1376-.6497-2.5157C13.4696 2.0323 10.849.6665 7.9994.6665A7.3333 7.3333 0 0 0 .666 7.8967c.0275-2.0934 2.1084-3.7841 4.5833-3.7841.2006 0 1.3441.0195 2.4063.577.9361.4915 1.4266 1.085 1.7675 1.6734.354.6113.417 1.3836.417 1.6913 0 .3076-.157.7637-.4468 1.1406"/></g><defs><radialGradient id="d" cx="0" cy="0" r="1" gradientTransform="matrix(-.4639 11.5976 24.7028 .9278 2.148 3.38)" gradientUnits="userSpaceOnUse"><stop stop-color="#35c1f1"/><stop offset="0" stop-color="#34c1ed"/><stop offset="0" stop-color="#2fc2df"/><stop offset="0" stop-color="#2bc3d2"/><stop offset="1" stop-color="#36c752"/></radialGradient><radialGradient id="e" cx="0" cy="0" r="1" gradientTransform="matrix(1.5615 5.3537 4.34988 -1.28266 14.42 5.101)" gradientUnits="userSpaceOnUse"><stop stop-color="#66eb6e"/><stop offset="1" stop-color="#66eb6e" stop-opacity="0"/></radialGradient><linearGradient id="b" x1="4" x2="14" y1="11" y2="11" gradientUnits="userSpaceOnUse"><stop stop-color="#0c59a4"/><stop offset="1" stop-color="#114a8b"/></linearGradient><linearGradient id="c" x1="9" x2="3" y1="6" y2="13" gradientUnits="userSpaceOnUse"><stop stop-color="#1b9de2"/><stop offset="0" stop-color="#1595df"/><stop offset="1" stop-color="#0680d7"/><stop offset="1" stop-color="#0078d4"/></linearGradient><clipPath id="a"><path fill="#fff" d="M0 0h16v16H0z"/></clipPath></defs></svg>