<svg width="16" height="16" viewBox="0 0 16 16" fill="none" xmlns="http://www.w3.org/2000/svg">
<path d="M5.35006 6.96015V7.64544C5.35006 9.109 6.53651 10.2954 8.00006 10.2954C8.21136 10.2954 8.41689 10.2707 8.6139 10.224L9.68336 11.2934C9.17179 11.5299 8.60207 11.6619 8.00154 11.6621H8.00006C5.78172 11.6621 3.98339 9.86379 3.98339 7.64544C3.98339 7.28646 3.69238 6.99544 3.33339 6.99544C2.97441 6.99544 2.68339 7.28646 2.68339 7.64544C2.68339 10.3617 4.72035 12.6022 7.35006 12.9228V14.3121C7.35006 14.6711 7.64108 14.9621 8.00006 14.9621C8.35905 14.9621 8.65006 14.6711 8.65006 14.3121V12.9228C9.37009 12.835 10.0457 12.6033 10.6472 12.2573L13.5126 15.1227C13.7664 15.3765 14.178 15.3765 14.4318 15.1227C14.6856 14.8688 14.6856 14.4573 14.4318 14.2034L2.48755 2.25916C2.23371 2.00532 1.82215 2.00532 1.56831 2.25916C1.31447 2.513 1.31447 2.92456 1.56831 3.1784L5.35006 6.96015Z" fill="black"/>
<path d="M9.35006 4.31211V7.33366L10.5111 8.49466C10.6012 8.22807 10.6501 7.94246 10.6501 7.64544V4.31211C10.6501 2.84856 9.46361 1.66211 8.00006 1.66211C6.83081 1.66211 5.83844 2.41936 5.4866 3.4702L6.65006 4.63366V4.31211C6.65006 3.56653 7.25448 2.96211 8.00006 2.96211C8.74564 2.96211 9.35006 3.56653 9.35006 4.31211Z" fill="black"/>
<path d="M11.5475 9.5311L12.4979 10.4815C13.0166 9.66074 13.3167 8.68814 13.3167 7.64544C13.3167 7.28646 13.0257 6.99544 12.6667 6.99544C12.3077 6.99544 12.0167 7.28646 12.0167 7.64544C12.0167 8.32696 11.847 8.96883 11.5475 9.5311Z" fill="black"/>
</svg>
