<svg xmlns="http://www.w3.org/2000/svg" width="16" height="16" fill="none" viewBox="0 0 16 16"><path fill="#000" fill-rule="evenodd" d="M12.3338 2.0166c.911.0002 1.6503.7393 1.6503 1.6504v2c-.0001.911-.7394 1.6501-1.6503 1.6504h-2c-.9112 0-1.6502-.7393-1.6504-1.6504v-2c0-.9113.739-1.6504 1.6504-1.6504zm-8.7725.2266c.3793-.0876.7809.2482.8965.749.1153.5005-.0985.9768-.4775 1.0644-.3794.0876-.781-.2472-.8965-.748-.1155-.5006.0983-.9778.4775-1.0654m1.3145.749c.1155-.5007.5172-.8364.8964-.749.3793.0875.593.5647.4776 1.0654-.1156.5008-.5172.8356-.8965.748-.3789-.0878-.5928-.564-.4775-1.0644m5.458.3252a.3494.3494 0 0 0-.3497.3496v2a.3496.3496 0 0 0 .3497.3496h2a.35.35 0 0 0 .3496-.3496v-2a.3497.3497 0 0 0-.3496-.3496zm-8.3096.4433c.3506-.2024.8348-.0211 1.081.4053s.1612.9363-.1894 1.1387-.8348.021-1.081-.4053-.1611-.9362.1894-1.1387m4.204.4053c.2463-.4264.7305-.6077 1.0812-.4053.3503.2026.4346.7124.1884 1.1387-.2462.426-.7295.6075-1.08.4053-.3507-.2024-.4356-.7123-.1895-1.1387m-.9071.6416c-.2853-.5133-1.0234-.5134-1.3086 0l-.1768.3174a2.15 2.15 0 0 1-.3574.4746l-.2246.2246c-.5205.5205-.0565 1.4013.667 1.2656l.3525-.0664a2.14 2.14 0 0 1 .7881 0l.3516.0664c.7234.1357 1.1884-.7451.668-1.2656l-.2256-.2246a2.15 2.15 0 0 1-.3575-.4746zm7.0127 3.875c.9109.0003 1.6502.7394 1.6503 1.6504v2c0 .9111-.7393 1.6502-1.6503 1.6504h-2c-.9113 0-1.6504-.7391-1.6504-1.6504v-2c.0001-.9111.7392-1.6504 1.6504-1.6504zM7.3172 10.333c-.0002-.911-.7393-1.6503-1.6504-1.6504h-2c-.9112 0-1.6502.7393-1.6504 1.6504v2c0 .9113.7391 1.6504 1.6504 1.6504h2c.9112-.0001 1.6504-.7392 1.6504-1.6504zm3.0166-.3496a.3497.3497 0 0 0-.3497.3496v2c0 .1933.1564.3496.3497.3496h2a.3496.3496 0 0 0 .3496-.3496v-2a.35.35 0 0 0-.3496-.3496zm-7.0166.3496a.3496.3496 0 0 1 .3496-.3496h2a.3497.3497 0 0 1 .3496.3496v2a.3494.3494 0 0 1-.3496.3496h-2a.3493.3493 0 0 1-.3496-.3496z"/></svg>