<svg width="16" height="16" viewBox="0 0 16 16" fill="none" xmlns="http://www.w3.org/2000/svg">
<path d="M5.91188 7.35C5.5529 7.35013 5.26198 7.64124 5.26211 8.00023C5.26224 8.35921 5.55335 8.65013 5.91234 8.65L10.0869 8.64853C10.4458 8.6484 10.7368 8.35728 10.7366 7.9983C10.7365 7.63931 10.4454 7.3484 10.0864 7.34853L5.91188 7.35Z" fill="black"/>
<path fill-rule="evenodd" clip-rule="evenodd" d="M1.5 4.10171C1.5 2.66577 2.66406 1.50171 4.1 1.50171H11.9C13.3359 1.50171 14.5 2.66577 14.5 4.10171V11.8984C14.5 13.3343 13.3359 14.4984 11.9 14.4984H4.1C2.66406 14.4984 1.5 13.3343 1.5 11.8984V4.10171ZM4.1 2.80171H11.9C12.618 2.80171 13.2 3.38374 13.2 4.10171V11.8984C13.2 12.6163 12.618 13.1984 11.9 13.1984H4.1C3.38203 13.1984 2.8 12.6163 2.8 11.8984V4.10171C2.8 3.38374 3.38203 2.80171 4.1 2.80171Z" fill="black"/>
</svg>
