<svg xmlns="http://www.w3.org/2000/svg" width="16" height="16" fill="none" viewBox="0 0 16 16"><path fill="#000" fill-rule="evenodd" d="M4.1 1.5017c-1.436 0-2.6 1.164-2.6 2.6v7.7967c0 1.4359 1.164 2.6 2.6 2.6h7.8c1.4359 0 2.6-1.1641 2.6-2.6V4.1017c0-1.436-1.1641-2.6-2.6-2.6zm7.8 1.3H4.1c-.718 0-1.3.582-1.3 1.3v7.7967c0 .7179.582 1.3 1.3 1.3h7.8c.718 0 1.3-.5821 1.3-1.3V4.1017c0-.718-.582-1.3-1.3-1.3M5.2621 8.0002a.65.65 0 0 1 .6498-.6502l4.1745-.0015a.65.65 0 0 1 .6502.6498.65.65 0 0 1-.6497.6502L5.9123 8.65a.65.65 0 0 1-.6502-.6498"/></svg>