<svg xmlns="http://www.w3.org/2000/svg" width="16" height="16" fill="none" viewBox="0 0 16 16"><path fill="#000" fill-rule="evenodd" d="m10.5581 11.4915.0107-1.879q-1.237-.2932-2.5686-.2932-1.3164 0-2.5558.3085v1.8698q0 .3728-.1598.655t-.4795.4741l-1.5198.9119a1.31 1.31 0 0 1-.4038.161 1.31 1.31 0 0 1-.4345.0167 1.31 1.31 0 0 1-.4173-.1216 1.31 1.31 0 0 1-.3528-.2542L.213 11.8767q-.1904-.1903-.1904-.4596t.1904-.4596q.753-.753 2.0947-1.485 1.0782-.588 2.2159-.9381a.65.65 0 0 1 .1608-.0482 12 12 0 0 1 .431-.1168q1.3985-.35 2.8847-.35 1.7713 0 3.4007.4674 1.652.474 3.0234 1.375.1197.0786.2374.1606.7473.5205 1.1456.956a.65.65 0 0 1 .1306.2095.65.65 0 0 1 .0396.2437q-.0058.2607-.1902.4451l-1.4638 1.4639a1.31 1.31 0 0 1-.3528.2541 1.31 1.31 0 0 1-.4174.1216 1.31 1.31 0 0 1-.4344-.0167 1.31 1.31 0 0 1-.4039-.161l-1.5177-.9106q-.3217-.193-.4815-.4772t-.1577-.6593m1.3.0073.0084-1.4886q1.0671.4055 1.9833 1.0314l.0001.0001q.0345.0236.0687.0474.2637.1836.4697.3481l-.9841.9841a.016.016 0 0 1-.0097.0052.016.016 0 0 1-.0106-.0027l-1.5177-.9106a.016.016 0 0 1-.0061-.006.016.016 0 0 1-.002-.0084M12.6666 1.35h-2c-.364 0-.65.286-.65.65s.286.65.65.65h.4308L8 5.7474l-2.207-2.207c-.2574-.2575-.6619-.2575-.9193 0-.2574.2573-.2574.6618 0 .9192l2.6667 2.6666q.1903.1905.4596.1904t.4596-.1904l3.557-3.557V4c0 .364.286.65.65.65s.65-.286.65-.65V2q0-.2693-.1904-.4596t-.4596-.1904M4.1444 11.4976v-1.453a10.9 10.9 0 0 0-1.2141.5693q-.7736.422-1.3069.8347l.9727.9727a.016.016 0 0 0 .0097.0052.016.016 0 0 0 .0107-.0027l1.5198-.9119a.016.016 0 0 0 .006-.006.016.016 0 0 0 .002-.0083"/></svg>