<svg width="16" height="16" viewBox="0 0 16 16" fill="none" xmlns="http://www.w3.org/2000/svg">
<path d="M6.6501 10.4979C7.05781 10.2698 7.33344 9.8338 7.33344 9.33343C7.33344 8.83306 7.05781 8.39706 6.6501 8.16899V4.66678C6.6501 4.3078 6.35908 4.01678 6.0001 4.01678C5.64111 4.01678 5.3501 4.3078 5.3501 4.66678V8.169C4.94239 8.39707 4.66677 8.83306 4.66677 9.33343C4.66677 9.8338 4.94239 10.2698 5.3501 10.4979V11.3335C5.3501 11.6924 5.64111 11.9835 6.0001 11.9835C6.35908 11.9835 6.6501 11.6924 6.6501 11.3335V10.4979Z" fill="black"/>
<path d="M9.3501 5.50231C8.94239 5.73038 8.66677 6.16638 8.66677 6.66674C8.66677 7.16711 8.94239 7.60311 9.3501 7.83118V11.3335C9.3501 11.6924 9.64111 11.9835 10.0001 11.9835C10.3591 11.9835 10.6501 11.6924 10.6501 11.3335V7.83119C11.0578 7.60311 11.3334 7.16712 11.3334 6.66674C11.3334 6.16637 11.0578 5.73038 10.6501 5.5023V4.66678C10.6501 4.3078 10.3591 4.01678 10.0001 4.01678C9.64111 4.01678 9.3501 4.3078 9.3501 4.66678V5.50231Z" fill="black"/>
<path fill-rule="evenodd" clip-rule="evenodd" d="M3.33343 1.3501C2.23807 1.3501 1.3501 2.23807 1.3501 3.33343V12.6668C1.3501 13.7621 2.23807 14.6501 3.33343 14.6501H12.6668C13.7621 14.6501 14.6501 13.7621 14.6501 12.6668V3.33343C14.6501 2.23807 13.7621 1.3501 12.6668 1.3501H3.33343ZM2.6501 3.33343C2.6501 2.95604 2.95604 2.6501 3.33343 2.6501H12.6668C13.0442 2.6501 13.3501 2.95604 13.3501 3.33343V12.6668C13.3501 13.0442 13.0442 13.3501 12.6668 13.3501H3.33343C2.95604 13.3501 2.6501 13.0442 2.6501 12.6668V3.33343Z" fill="black"/>
</svg>
