<svg xmlns="http://www.w3.org/2000/svg" width="16" height="16" fill="none" viewBox="0 0 16 16"><path fill="#000" fill-rule="evenodd" d="M1.35 3.3333c0-1.0954.888-1.9833 1.9833-1.9833h9.3333c1.0954 0 1.9834.888 1.9834 1.9833v9.3333c0 1.0954-.888 1.9834-1.9834 1.9834H3.3333c-1.0954 0-1.9833-.888-1.9833-1.9834zM3.3333 2.65a.6833.6833 0 0 0-.6833.6833v9.3333c0 .3774.306.6834.6833.6834h9.3333a.6834.6834 0 0 0 .6834-.6834V3.3333a.6834.6834 0 0 0-.6834-.6833zM6.65 10.4978a1.333 1.333 0 0 0 .6833-1.1645A1.333 1.333 0 0 0 6.65 8.169V4.6667a.65.65 0 0 0-1.3 0v3.5022a1.333 1.333 0 0 0-.6833 1.1644c0 .5004.2756.9364.6833 1.1644v.8356a.65.65 0 1 0 1.3 0zm2.7-4.9956a1.333 1.333 0 0 0-.6833 1.1644c0 .5004.2756.9364.6833 1.1645v3.5022a.65.65 0 1 0 1.3 0V7.8311a1.333 1.333 0 0 0 .6833-1.1645 1.333 1.333 0 0 0-.6833-1.1644v-.8355a.65.65 0 1 0-1.3 0z"/></svg>