<svg width="16" height="16" viewBox="0 0 16 16" fill="none" xmlns="http://www.w3.org/2000/svg">
<path d="M7.70173 1.85799C7.79687 1.63802 7.76324 1.38353 7.61422 1.19582C7.4652 1.00811 7.22497 0.917632 6.98914 0.960402C3.67523 1.56142 1.16211 4.46059 1.16211 7.94807C1.16211 11.8703 4.34174 15.05 8.26401 15.05C11.1866 15.05 13.6953 13.2848 14.7851 10.765C14.8803 10.545 14.8466 10.2905 14.6976 10.1028C14.5486 9.91511 14.3084 9.82463 14.0726 9.8674C13.7347 9.92868 13.3862 9.96076 13.0297 9.96076C9.82538 9.96076 7.22779 7.36316 7.22779 4.15887C7.22779 3.34012 7.39699 2.56259 7.70173 1.85799Z" fill="black"/>
</svg>
