<svg xmlns="http://www.w3.org/2000/svg" width="16" height="16" fill="none" viewBox="0 0 16 16"><path fill="#000" fill-rule="evenodd" d="M6.3334 2.0167c-.9113 0-1.65.7388-1.65 1.65v6c0 .9113.7387 1.65 1.65 1.65h6c.9112 0 1.65-.7387 1.65-1.65v-6c0-.9112-.7388-1.65-1.65-1.65zm-.35 1.65a.35.35 0 0 1 .35-.35h6a.35.35 0 0 1 .35.35v6a.35.35 0 0 1-.35.35h-6a.35.35 0 0 1-.35-.35zM2.6667 6.0001a.6667.6667 0 1 0 0-1.3334.6667.6667 0 0 0 0 1.3334m.6666 2A.6667.6667 0 1 1 2 8a.6667.6667 0 0 1 1.3333 0m0 2.6666a.6667.6667 0 1 1-1.3333 0 .6667.6667 0 0 1 1.3333 0M2.6667 14a.6667.6667 0 1 0 0-1.3334.6667.6667 0 0 0 0 1.3334M6 13.3334a.6667.6667 0 1 1-1.3334 0 .6667.6667 0 0 1 1.3334 0m2 .6667a.6667.6667 0 1 0 0-1.3334.6667.6667 0 0 0 0 1.3334m3.3333-.6667a.6666.6666 0 1 1-1.3333 0 .6667.6667 0 0 1 1.3333 0"/></svg>