<svg xmlns="http://www.w3.org/2000/svg" width="16" height="16" fill="none" viewBox="0 0 16 16"><path fill="#000" fill-rule="evenodd" d="M2.3502 3.9454a.751.751 0 0 1 .7508-.7509h2.8474c.2429 0 .476.0955.6492.2657l.9593.9433a.65.65 0 0 0 .4557.1865h4.8868a.751.751 0 0 1 .7508.7508v6.7141a.751.751 0 0 1-.7508.7508H3.101a.751.751 0 0 1-.7508-.7508V9.9501h-1.3v2.1048c0 1.1326.9182 2.0508 2.0508 2.0508h9.7984c1.1327 0 2.0508-.9182 2.0508-2.0508V5.3408c0-1.1326-.9181-2.0508-2.0508-2.0508H8.2786l-.7695-.7568a2.226 2.226 0 0 0-1.5607-.6387H3.101c-1.1326 0-2.0508.9182-2.0508 2.0508v2.1048h1.3zm1.4008 6.3904 1.6857-1.6857H.7408a.65.65 0 0 1 0-1.3h4.6959L3.751 5.6644a.65.65 0 0 1 .9192-.9193l2.7953 2.7954a.65.65 0 0 1 0 .9192l-2.7953 2.7954a.65.65 0 0 1-.9192-.9193"/></svg>