<svg width="16" height="16" viewBox="0 0 16 16" fill="none" xmlns="http://www.w3.org/2000/svg">
<path fill-rule="evenodd" clip-rule="evenodd" d="M6.33337 2.0166C5.4221 2.0166 4.68337 2.75533 4.68337 3.6666V9.6666C4.68337 10.5779 5.4221 11.3166 6.33337 11.3166H12.3334C13.2446 11.3166 13.9834 10.5779 13.9834 9.6666V3.6666C13.9834 2.75533 13.2446 2.0166 12.3334 2.0166H6.33337ZM5.98337 3.6666C5.98337 3.4733 6.14007 3.3166 6.33337 3.3166H12.3334C12.5267 3.3166 12.6834 3.4733 12.6834 3.6666V9.6666C12.6834 9.8599 12.5267 10.0166 12.3334 10.0166H6.33337C6.14007 10.0166 5.98337 9.8599 5.98337 9.6666V3.6666Z" fill="black"/>
<path d="M2.66667 5.99994C3.03486 5.99994 3.33333 5.70146 3.33333 5.33327C3.33333 4.96508 3.03486 4.6666 2.66667 4.6666C2.29848 4.6666 2 4.96508 2 5.33327C2 5.70146 2.29848 5.99994 2.66667 5.99994Z" fill="black"/>
<path d="M3.33333 7.99996C3.33333 8.36814 3.03486 8.66662 2.66667 8.66662C2.29848 8.66662 2 8.36814 2 7.99996C2 7.63177 2.29848 7.33329 2.66667 7.33329C3.03486 7.33329 3.33333 7.63177 3.33333 7.99996Z" fill="black"/>
<path d="M2.66667 11.3332C3.03486 11.3332 3.33333 11.0348 3.33333 10.6666C3.33333 10.2984 3.03486 9.99991 2.66667 9.99991C2.29848 9.99991 2 10.2984 2 10.6666C2 11.0348 2.29848 11.3332 2.66667 11.3332Z" fill="black"/>
<path d="M3.33333 13.3333C3.33333 13.7015 3.03486 13.9999 2.66667 13.9999C2.29848 13.9999 2 13.7015 2 13.3333C2 12.9651 2.29848 12.6666 2.66667 12.6666C3.03486 12.6666 3.33333 12.9651 3.33333 13.3333Z" fill="black"/>
<path d="M5.33329 13.9999C5.70148 13.9999 5.99996 13.7015 5.99996 13.3333C5.99996 12.9651 5.70148 12.6666 5.33329 12.6666C4.9651 12.6666 4.66663 12.9651 4.66663 13.3333C4.66663 13.7015 4.9651 13.9999 5.33329 13.9999Z" fill="black"/>
<path d="M8.66671 13.3333C8.66671 13.7015 8.36823 13.9999 8.00004 13.9999C7.63185 13.9999 7.33337 13.7015 7.33337 13.3333C7.33337 12.9651 7.63185 12.6666 8.00004 12.6666C8.36823 12.6666 8.66671 12.9651 8.66671 13.3333Z" fill="black"/>
<path d="M10.6667 13.9999C11.0349 13.9999 11.3333 13.7015 11.3333 13.3333C11.3333 12.9651 11.0349 12.6666 10.6667 12.6666C10.2985 12.6666 10 12.9651 10 13.3333C10 13.7015 10.2985 13.9999 10.6667 13.9999Z" fill="black"/>
</svg>
