<svg width="16" height="16" viewBox="0 0 16 16" fill="none" xmlns="http://www.w3.org/2000/svg">
<path d="M3.10104 3.69453C2.68638 3.69453 2.35023 4.03068 2.35023 4.44534V6.55011H1.05023V4.44534C1.05023 3.31271 1.96841 2.39453 3.10104 2.39453H5.94843C6.53227 2.39453 7.09274 2.62392 7.50905 3.03326L8.27865 3.78998H12.8994C14.0321 3.78998 14.9502 4.70816 14.9502 5.84079V12.5549C14.9502 13.6875 14.0321 14.6057 12.8994 14.6057H3.10104C1.96841 14.6057 1.05023 13.6875 1.05023 12.5549V10.4501H2.35023V12.5549C2.35023 12.9695 2.68638 13.3057 3.10104 13.3057H12.8994C13.3141 13.3057 13.6502 12.9695 13.6502 12.5549V5.84079C13.6502 5.42613 13.3141 5.08998 12.8994 5.08998H8.01262C7.84213 5.08998 7.67846 5.02299 7.55689 4.90346L6.5976 3.96022C6.42443 3.78995 6.19129 3.69453 5.94843 3.69453H3.10104Z" fill="black"/>
<path d="M5.43668 9.15008L3.75095 10.8358C3.49711 11.0896 3.49711 11.5012 3.75095 11.755C4.00479 12.0089 4.41635 12.0089 4.67019 11.755L7.46553 8.95971C7.71937 8.70587 7.71937 8.29431 7.46553 8.04047L4.67019 5.24513C4.41635 4.99129 4.00479 4.99129 3.75095 5.24513C3.49711 5.49897 3.49711 5.91053 3.75095 6.16437L5.43667 7.85009H0.74082C0.381835 7.85009 0.0908203 8.1411 0.0908203 8.50008C0.0908203 8.85907 0.381835 9.15009 0.74082 9.15009L5.43668 9.15008Z" fill="black"/>
</svg>
