<svg width="16" height="16" viewBox="0 0 16 16" fill="none" xmlns="http://www.w3.org/2000/svg">
<path d="M3.10104 3.19453C2.68638 3.19453 2.35023 3.53068 2.35023 3.94534V6.05011H1.05023V3.94534C1.05023 2.81271 1.96841 1.89453 3.10104 1.89453H5.94843C6.53227 1.89453 7.09274 2.12392 7.50905 2.53326L8.27865 3.28998H12.8994C14.0321 3.28998 14.9502 4.20816 14.9502 5.34079V12.0549C14.9502 13.1875 14.0321 14.1057 12.8994 14.1057H3.10104C1.96841 14.1057 1.05023 13.1875 1.05023 12.0549V9.95011H2.35023V12.0549C2.35023 12.4695 2.68638 12.8057 3.10104 12.8057H12.8994C13.3141 12.8057 13.6502 12.4695 13.6502 12.0549V5.34079C13.6502 4.92613 13.3141 4.58998 12.8994 4.58998H8.01262C7.84213 4.58998 7.67846 4.52299 7.55689 4.40346L6.5976 3.46022C6.42443 3.28995 6.19129 3.19453 5.94843 3.19453H3.10104Z" fill="black"/>
<path d="M5.43668 8.65008L3.75095 10.3358C3.49711 10.5896 3.49711 11.0012 3.75095 11.255C4.00479 11.5089 4.41635 11.5089 4.67019 11.255L7.46553 8.45971C7.71937 8.20587 7.71937 7.79431 7.46553 7.54047L4.67019 4.74513C4.41635 4.49129 4.00479 4.49129 3.75095 4.74513C3.49711 4.99897 3.49711 5.41053 3.75095 5.66437L5.43667 7.35009H0.74082C0.381835 7.35009 0.0908203 7.6411 0.0908203 8.00008C0.0908203 8.35907 0.381835 8.65009 0.74082 8.65009L5.43668 8.65008Z" fill="black"/>
</svg>
