<svg xmlns="http://www.w3.org/2000/svg" width="16" height="16" fill="none" viewBox="0 0 16 16"><path fill="#000" fill-rule="evenodd" d="M4.318 1.9072c-1.4636 0-2.65 1.1865-2.65 2.65v4.504c0 1.4636 1.1864 2.65 2.65 2.65h3.884v-1.3H4.318c-.7456 0-1.35-.6044-1.35-1.35v-4.504c0-.7455.6044-1.35 1.35-1.35h7.101c.7155 0 1.301.5566 1.3471 1.2605h.6917c.2106 0 .4153.0254.6112.0732-.0088-1.456-1.1918-2.6337-2.65-2.6337zm4.9066 5.2312c0-.9113.7387-1.65 1.65-1.65h2.4793c.9112 0 1.65.7387 1.65 1.65v5.153c0 .9113-.7388 1.65-1.65 1.65h-2.4793c-.9113 0-1.65-.7387-1.65-1.65zm1.65-.35a.35.35 0 0 0-.35.35v5.153a.35.35 0 0 0 .35.35h2.4793a.35.35 0 0 0 .35-.35v-5.153a.35.35 0 0 0-.35-.35zm-9.4922 5.853h6.8312c.0459.4854.227.9314.5053 1.3H1.3824a.65.65 0 0 1 0-1.3"/></svg>