<svg width="16" height="16" viewBox="0 0 16 16" fill="none" xmlns="http://www.w3.org/2000/svg">
<path d="M3.1334 2.7834C2.9401 2.7834 2.7834 2.9401 2.7834 3.1334V4.06039C2.7834 4.41937 2.49238 4.71039 2.1334 4.71039C1.77441 4.71039 1.4834 4.41937 1.4834 4.06039V3.1334C1.4834 2.22213 2.22213 1.4834 3.1334 1.4834H4.06039C4.41937 1.4834 4.71039 1.77441 4.71039 2.1334C4.71039 2.49238 4.41937 2.7834 4.06039 2.7834H3.1334Z" fill="black"/>
<path d="M6.42311 2.1334C6.42311 1.77441 6.71412 1.4834 7.07311 1.4834H8.92709C9.28607 1.4834 9.57709 1.77441 9.57709 2.1334C9.57709 2.49238 9.28607 2.7834 8.92709 2.7834H7.07311C6.71412 2.7834 6.42311 2.49238 6.42311 2.1334Z" fill="black"/>
<path d="M11.2898 2.1334C11.2898 1.77441 11.5808 1.4834 11.9398 1.4834H12.8668C13.7781 1.4834 14.5168 2.22213 14.5168 3.1334V4.06039C14.5168 4.41937 14.2258 4.71039 13.8668 4.71039C13.5078 4.71039 13.2168 4.41937 13.2168 4.06039V3.1334C13.2168 2.9401 13.0601 2.7834 12.8668 2.7834H11.9398C11.5808 2.7834 11.2898 2.49238 11.2898 2.1334Z" fill="black"/>
<path d="M2.1334 6.42311C2.49238 6.42311 2.7834 6.71412 2.7834 7.07311V8.92709C2.7834 9.28607 2.49238 9.57709 2.1334 9.57709C1.77441 9.57709 1.4834 9.28607 1.4834 8.92709V7.07311C1.4834 6.71412 1.77441 6.42311 2.1334 6.42311Z" fill="black"/>
<path d="M13.8668 6.42311C14.2258 6.42311 14.5168 6.71412 14.5168 7.07311V8.92709C14.5168 9.28607 14.2258 9.57709 13.8668 9.57709C13.5078 9.57709 13.2168 9.28607 13.2168 8.92709V7.07311C13.2168 6.71412 13.5078 6.42311 13.8668 6.42311Z" fill="black"/>
<path d="M2.1334 11.2898C2.49238 11.2898 2.7834 11.5808 2.7834 11.9398V12.8668C2.7834 13.0601 2.9401 13.2168 3.1334 13.2168H4.06039C4.41937 13.2168 4.71039 13.5078 4.71039 13.8668C4.71039 14.2258 4.41937 14.5168 4.06039 14.5168H3.1334C2.22213 14.5168 1.4834 13.7781 1.4834 12.8668V11.9398C1.4834 11.5808 1.77441 11.2898 2.1334 11.2898Z" fill="black"/>
<path d="M13.8668 11.2898C14.2258 11.2898 14.5168 11.5808 14.5168 11.9398V12.8668C14.5168 13.7781 13.7781 14.5168 12.8668 14.5168H11.9398C11.5808 14.5168 11.2898 14.2258 11.2898 13.8668C11.2898 13.5078 11.5808 13.2168 11.9398 13.2168H12.8668C13.0601 13.2168 13.2168 13.0601 13.2168 12.8668V11.9398C13.2168 11.5808 13.5078 11.2898 13.8668 11.2898Z" fill="black"/>
<path d="M6.42311 13.8668C6.42311 13.5078 6.71412 13.2168 7.07311 13.2168H8.92709C9.28607 13.2168 9.57709 13.5078 9.57709 13.8668C9.57709 14.2258 9.28607 14.5168 8.92709 14.5168H7.07311C6.71412 14.5168 6.42311 14.2258 6.42311 13.8668Z" fill="black"/>
<path d="M5.39453 6.5333C5.39453 6.17432 5.68555 5.8833 6.04453 5.8833H9.95566C10.3146 5.8833 10.6057 6.17432 10.6057 6.5333C10.6057 6.89229 10.3146 7.1833 9.95566 7.1833H6.04453C5.68555 7.1833 5.39453 6.89229 5.39453 6.5333Z" fill="black"/>
<path d="M6.04453 8.81689C5.68555 8.81689 5.39453 9.10791 5.39453 9.46689C5.39453 9.82588 5.68555 10.1169 6.04453 10.1169H9.95566C10.3146 10.1169 10.6057 9.82588 10.6057 9.46689C10.6057 9.10791 10.3146 8.81689 9.95566 8.81689H6.04453Z" fill="black"/>
</svg>
