<svg xmlns="http://www.w3.org/2000/svg" width="16" height="16" fill="none" viewBox="0 0 16 16"><path fill="#000" fill-rule="evenodd" d="M3.65 4.892C4.4355 4.6222 5 3.877 5 3c0-1.1046-.8954-2-2-2s-2 .8954-2 2c0 .877.5645 1.6222 1.35 1.892V8a.65.65 0 0 0 .3593.5814l1.6407.8203V11H4c-1.1046 0-2 .8954-2 2s.8954 2 2 2h8c1.1046 0 2-.8954 2-2s-.8954-2-2-2h-.35V9.4017l1.6407-.8203A.65.65 0 0 0 13.65 8V4.892C14.4355 4.6222 15 3.877 15 3c0-1.1046-.8954-2-2-2s-2 .8954-2 2c0 .877.5645 1.6222 1.35 1.892v2.7063l-1.6407.8203A.65.65 0 0 0 10.35 9v2h-1.7V7.892C9.4355 7.6222 10 6.877 10 6c0-1.1046-.8954-2-2-2s-2 .8954-2 2c0 .877.5645 1.6222 1.35 1.892V11h-1.7V9a.65.65 0 0 0-.3593-.5814L3.65 7.5983zM3.7 3a.7.7 0 1 1-1.4 0 .7.7 0 0 1 1.4 0m10 0a.7.7 0 1 1-1.4 0 .7.7 0 0 1 1.4 0M8 6.7a.7.7 0 1 0 0-1.4.7.7 0 0 0 0 1.4M3.3 13a.7.7 0 0 1 .7-.7h8a.7.7 0 1 1 0 1.4H4a.7.7 0 0 1-.7-.7"/></svg>