<svg xmlns="http://www.w3.org/2000/svg" width="16" height="16" fill="none" viewBox="0 0 16 16"><path fill="#000" d="M13.7125 1H2.2875C1.5765 1 1 1.5764 1 2.2875v11.425C1 14.4236 1.5764 15 2.2875 15h11.425C14.4236 15 15 14.4236 15 13.7125V2.2875C15 1.5765 14.4236 1 13.7125 1"/><path fill="#b1060f" fill-rule="evenodd" d="m8.751 3.258-.004 2.099-.004 2.099-.173-.487v-.001l-.223 4.672c.219.62.337.95.338.952.002.002.127.009.278.017.458.023 1.025.071 1.455.125.1.012.185.019.191.014.005-.005.008-2.141.006-4.748l-.003-4.74H8.751m-3.367-.008v4.745c0 2.61.003 4.747.006 4.751.003.003.165-.012.359-.034s.463-.049.597-.06c.206-.017.819-.057.89-.057.021 0 .022-.107.025-2.01l.003-2.01.148.42.053.148.223-4.671-.077-.217c-.182-.515-.337-.952-.344-.971l-.012-.034z" clip-rule="evenodd"/><path fill="url(#a)" fill-rule="evenodd" d="M5.384 3.252v2.6634l1.8763 4.9771.0006-.3061.0032-2.0096.1484.42c.8263 2.3381 1.2703 3.5917 1.2729 3.5943.0017.0018.1267.0093.2778.0168.4577.0227 1.0249.0714 1.4551.1248.0997.0124.1854.0188.1906.0141.0035-.0031.0058-1.0509.0065-2.529l-1.8675-5.369-.001.508-.0036 2.0988-.1727-.4872c-.1687-.476-.2814-.7944-.9592-2.7108-.1822-.5153-.3369-.9524-.3437-.9713l-.0123-.0344H5.384" clip-rule="evenodd"/><path fill="#e50914" fill-rule="evenodd" d="m5.384 3.252 1.88 5.3273v-.0025l.1485.42c.8263 2.3381 1.2702 3.5917 1.2728 3.5943.0017.0018.1268.0093.2778.0168.4577.0227 1.025.0714 1.4552.1248.0991.0123.1844.0187.1904.0142L8.7432 7.4546v.001l-.1726-.4872c-.1688-.476-.2814-.7944-.9592-2.7108l-.3437-.9713-.0123-.0344z" clip-rule="evenodd"/><path fill="#b1060f" fill-rule="evenodd" d="m8.751 3.258-.004 2.099-.004 2.099-.173-.487v-.001l-.223 4.672c.219.62.337.95.338.952.002.002.127.009.278.017.458.023 1.025.071 1.455.125.1.012.185.019.191.014.005-.005.008-2.141.006-4.748l-.003-4.74H8.751m-3.367-.008v4.745c0 2.61.003 4.747.006 4.751.003.003.165-.012.359-.034s.463-.049.597-.06c.206-.017.819-.057.89-.057.021 0 .022-.107.025-2.01l.003-2.01.148.42.053.148.223-4.671-.077-.217c-.182-.515-.337-.952-.344-.971l-.012-.034z" clip-rule="evenodd"/><path fill="url(#b)" fill-rule="evenodd" d="M5.384 3.252v2.6634l1.8763 4.9771.0006-.3061.0032-2.0096.1484.42c.8263 2.3381 1.2703 3.5917 1.2729 3.5943.0017.0018.1267.0093.2778.0168.4577.0227 1.0249.0714 1.4551.1248.0997.0124.1854.0188.1906.0141.0035-.0031.0058-1.0509.0065-2.529l-1.8675-5.369-.001.508-.0036 2.0988-.1727-.4872c-.1687-.476-.2814-.7944-.9592-2.7108-.1822-.5153-.3369-.9524-.3437-.9713l-.0123-.0344H5.384" clip-rule="evenodd"/><path fill="#e50914" fill-rule="evenodd" d="m5.384 3.252 1.88 5.3273v-.0025l.1485.42c.8263 2.3381 1.2702 3.5917 1.2728 3.5943.0017.0018.1268.0093.2778.0168.4577.0227 1.025.0714 1.4552.1248.0991.0123.1844.0187.1904.0142L8.7432 7.4546v.001l-.1726-.4872c-.1688-.476-.2814-.7944-.9592-2.7108l-.3437-.9713-.0123-.0344z" clip-rule="evenodd"/><defs><radialGradient id="a" cx="0" cy="0" r="1" gradientTransform="rotate(-19.098 27.57 -19.546)scale(1.18571 43.4314)" gradientUnits="userSpaceOnUse"><stop/><stop offset="1" stop-opacity="0"/></radialGradient><radialGradient id="b" cx="0" cy="0" r="1" gradientTransform="rotate(-19.098 27.57 -19.546)scale(1.18571 43.4314)" gradientUnits="userSpaceOnUse"><stop/><stop offset="1" stop-opacity="0"/></radialGradient></defs></svg>