<svg xmlns="http://www.w3.org/2000/svg" width="16" height="16" fill="none" viewBox="0 0 16 16"><path fill="#000" fill-rule="evenodd" d="M10.1591 1.594a.65.65 0 0 1 .9136-.1016l3.3333 2.6667a.65.65 0 0 1 0 1.0151L11.0727 7.841a.65.65 0 1 1-.8121-1.0151l1.8864-1.5091H2a.65.65 0 0 1 0-1.3h10.147l-1.8864-1.5091a.65.65 0 0 1-.1015-.9136M6.4596 9.793a.65.65 0 0 0-.9192-.9193L4 10.4141 2.4596 8.8737a.65.65 0 1 0-.9192.9193l1.5403 1.5403-1.5403 1.5404a.65.65 0 0 0 .9192.9193L4 12.2526l1.5404 1.5404a.65.65 0 0 0 .9192-.9193l-1.5404-1.5404zm.8904 1.5403a.65.65 0 0 1 .65-.65h1.3333a.65.65 0 0 1 0 1.3H8a.65.65 0 0 1-.65-.65m5.3166-.65a.6501.6501 0 0 0 0 1.3H14a.65.65 0 1 0 0-1.3z"/></svg>