<svg xmlns="http://www.w3.org/2000/svg" width="16" height="16" fill="none" viewBox="0 0 16 16"><path fill="#000" fill-rule="evenodd" d="M10.0188 2.7758C9.8664 1.798 9.0208 1.05 8.0004 1.05c-1.0203 0-1.866.748-2.0183 1.7256-2.4634.8396-4.2353 3.1732-4.2353 5.9208 0 .413.04.8166.1165 1.2072-.503.3721-.8291.9696-.8291 1.6433 0 1.1282.9146 2.0428 2.0428 2.0428.2925 0 .5706-.0615.8222-.1722 1.098.9546 2.532 1.5325 4.1012 1.5325s3.0033-.5779 4.1013-1.5325c.2515.1107.5296.1722.8221.1722 1.1282 0 2.0428-.9146 2.0428-2.0428 0-.6737-.3261-1.2712-.829-1.6433a6.3 6.3 0 0 0 .1164-1.2072c0-2.7475-1.7718-5.0812-4.2352-5.9207m-2.7612.317a.7428.7428 0 1 1 1.4856 0 .7428.7428 0 0 1-1.4856 0m-1.048.9837c-1.8507.7178-3.1628 2.5157-3.1628 4.62 0 .2751.0225.545.0656.808 1.1119.0189 2.0074.9261 2.0074 2.0425 0 .3575-.0919.6936-.2533.9859a4.933 4.933 0 0 0 3.134 1.1172 4.933 4.933 0 0 0 3.1338-1.1172 2.034 2.034 0 0 1-.2533-.9859c0-1.1164.8956-2.0236 2.0075-2.0425a5 5 0 0 0 .0655-.808c0-2.1043-1.3121-3.9021-3.1627-4.62-.3476.6313-1.0192 1.0591-1.7909 1.0591s-1.4433-.4278-1.7908-1.0591m5.9714 7.4705a.7428.7428 0 1 1 1.4856 0 .7428.7428 0 0 1-1.4856 0m-9.8468 0a.743.743 0 0 1 .7428-.7428.7428.7428 0 1 1-.7428.7428"/></svg>