<svg width="16" height="16" viewBox="0 0 16 16" fill="none" xmlns="http://www.w3.org/2000/svg">
<path d="M10.1592 1.59407C10.3835 1.31375 10.7925 1.2683 11.0728 1.49256L14.4062 4.15922C14.5603 4.28258 14.6501 4.46933 14.6501 4.66679C14.6501 4.86425 14.5603 5.051 14.4062 5.17435L11.0728 7.84102C10.7925 8.06528 10.3835 8.01983 10.1592 7.73951C9.93494 7.45919 9.98039 7.05015 10.2607 6.82589L12.1471 5.31679H2.0001C1.64111 5.31679 1.3501 5.02577 1.3501 4.66679C1.3501 4.3078 1.64111 4.01679 2.0001 4.01679H12.1471L10.2607 2.50769C9.98039 2.28343 9.93494 1.87439 10.1592 1.59407Z" fill="black"/>
<path d="M12.0168 11.3335C12.0168 10.9745 12.3078 10.6835 12.6668 10.6835H14.0001C14.3591 10.6835 14.6501 10.9745 14.6501 11.3335C14.6501 11.6924 14.3591 11.9835 14.0001 11.9835H12.6668C12.3078 11.9835 12.0168 11.6924 12.0168 11.3335Z" fill="black"/>
<path d="M8.0001 10.6835C7.64111 10.6835 7.3501 10.9745 7.3501 11.3335C7.3501 11.6924 7.64111 11.9835 8.0001 11.9835H9.33343C9.69242 11.9835 9.98343 11.6924 9.98343 11.3335C9.98343 10.9745 9.69242 10.6835 9.33343 10.6835H8.0001Z" fill="black"/>
<path d="M6.45972 8.87384C6.71356 9.12768 6.71356 9.53924 6.45972 9.79308L4.91934 11.3335L6.45972 12.8738C6.71356 13.1277 6.71356 13.5392 6.45972 13.7931C6.20588 14.0469 5.79432 14.0469 5.54048 13.7931L4.0001 12.2527L2.45972 13.7931C2.20588 14.0469 1.79432 14.0469 1.54048 13.7931C1.28664 13.5392 1.28664 13.1277 1.54048 12.8738L3.08086 11.3335L1.54048 9.79308C1.28664 9.53924 1.28664 9.12768 1.54048 8.87384C1.79432 8.62 2.20588 8.62 2.45972 8.87384L4.0001 10.4142L5.54048 8.87384C5.79432 8.62 6.20588 8.62 6.45972 8.87384Z" fill="black"/>
</svg>
