<svg xmlns="http://www.w3.org/2000/svg" width="16" height="16" fill="none" viewBox="0 0 16 16"><path fill="#000" fill-rule="evenodd" d="M11.2872 1.888a.65.65 0 0 1 .65.65v4.5704h1.4248c.9113 0 1.65.7387 1.65 1.65v3.7036c0 .9113-.7387 1.65-1.65 1.65H2.6378c-.9113 0-1.65-.7387-1.65-1.65V8.7584c0-.9113.7387-1.65 1.65-1.65h7.9994V2.5379a.65.65 0 0 1 .65-.65M2.2878 8.7583a.35.35 0 0 1 .35-.35H13.362a.35.35 0 0 1 .35.35v3.7036a.35.35 0 0 1-.35.35H2.6378a.35.35 0 0 1-.35-.35zm2.0443 2.6018a.75.75 0 1 0 0-1.5.75.75 0 0 0 0 1.5m3.4786-.75a.75.75 0 1 1-1.5 0 .75.75 0 0 1 1.5 0m2.0404 0a.65.65 0 0 1 .65-.65h1.2138a.65.65 0 1 1 0 1.3h-1.2138a.65.65 0 0 1-.65-.65"/></svg>