<svg xmlns="http://www.w3.org/2000/svg" width="16" height="16" fill="none" viewBox="0 0 16 16"><path fill="#000" fill-rule="evenodd" d="M14.1372 9.9036a6.3 6.3 0 0 0 .1164-1.2072c0-2.7476-1.7719-5.0812-4.2352-5.9207C9.866 1.798 9.0204 1.05 8 1.05c-1.0203 0-1.866.748-2.0183 1.7257-2.4634.8394-4.2353 3.1732-4.2353 5.9207 0 .413.04.8166.1164 1.2072-.503.3721-.829.9696-.829 1.6433 0 1.1282.9146 2.0428 2.0428 2.0428.2925 0 .5706-.0615.8222-.1722C4.9968 14.3721 6.4308 14.95 8 14.95c1.5691 0 3.0033-.5779 4.1012-1.5325.2516.1107.5297.1722.8222.1722 1.1282 0 2.0428-.9146 2.0428-2.0428 0-.6737-.3261-1.2712-.829-1.6433m-6.88-6.8108a.7428.7428 0 1 1 1.4856 0 .7428.7428 0 0 1-1.4856 0m-1.048.9836c-1.8507.7179-3.1628 2.5157-3.1628 4.62 0 .2751.0224.545.0656.808 1.1118.0189 2.0073.9261 2.0073 2.0425 0 .3575-.0918.6936-.2532.9859A4.933 4.933 0 0 0 8 13.65a4.933 4.933 0 0 0 3.1339-1.1172 2.034 2.034 0 0 1-.2533-.9859c0-1.1164.8956-2.0236 2.0074-2.0425a5 5 0 0 0 .0656-.808c0-2.1043-1.3121-3.9021-3.1627-4.62C9.4433 4.7078 8.7716 5.1356 8 5.1356s-1.4433-.4278-1.7908-1.0592m1.914 2.1546L6.3867 8.9237c-.0915.142.0104.329.1792.329h.6517a.2667.2667 0 0 1 .2667.2666v1.8139c0 .2128.2773.2944.3926.1156l1.7363-2.6927c.0915-.1419-.0104-.3288-.1793-.3288h-.6517a.2667.2667 0 0 1-.2666-.2667v-1.814c0-.2127-.2773-.2943-.3926-.1156m-5.0467 4.5731a.7428.7428 0 1 0 0 1.4856.7428.7428 0 0 0 0-1.4856m9.1041.7428a.7428.7428 0 1 1 1.4856 0 .7428.7428 0 0 1-1.4856 0"/></svg>