<svg xmlns="http://www.w3.org/2000/svg" width="16" height="16" fill="none" viewBox="0 0 16 16"><path fill="url(#a)" d="M1.7272 5.2614v5.475c0 .5329.2846 1.023.7438 1.2883l4.7968 2.7499a1.47 1.47 0 0 0 1.4652 0l4.7968-2.7499c.4592-.263.7438-.7554.7438-1.2883v-5.475c0-.5329-.2846-1.023-.7438-1.2861L8.733 1.2254a1.47 1.47 0 0 0-1.4652 0L2.471 3.9753c-.4592.263-.7438.7554-.7438 1.286"/><path fill="#000" d="M8.0003 1.6774c.1355 0 .271.0452.4065.113l4.8322 2.7548c.2484.1354.4065.4064.4065.7v5.5096c0 .2936-.1581.5646-.4065.7l-4.8322 2.7549c-.1355.0677-.271.1129-.4065.1129s-.271-.0452-.4064-.1129l-4.8323-2.7549c-.2484-.1354-.4064-.4064-.4064-.7V5.2452c0-.2936.158-.5645.4064-.7L7.594 1.7903c.1355-.0677.271-.1129.4064-.1129m0-.6774c-.2484 0-.5193.0677-.7451.2032L2.4229 3.9581c-.4516.271-.7452.7677-.7452 1.287v5.5097c0 .542.2936 1.0162.7452 1.2871l4.8323 2.7549Q7.5938 15 8.0003 15t.7452-.2032l4.8322-2.7549c.4742-.2709.7452-.7677.7452-1.2871V5.2452c0-.542-.2936-1.0162-.7452-1.2871L8.7455 1.2032C8.5197 1.0677 8.2487 1 8.0003 1"/><path fill="#000" d="M6.1935 10.7097h1.0162V4.6129H6.1935zm4.3129-4.5161H9.2419L7.729 8.2032V8.7l1.513 2.0097h1.2644l-1.7838-2.258z"/><defs><linearGradient id="a" x1="-2" x2="11" y1="11" y2="-2" gradientUnits="userSpaceOnUse"><stop stop-color="#3de8ca"/><stop offset="1" stop-color="#4dff88"/></linearGradient></defs></svg>