<svg xmlns="http://www.w3.org/2000/svg" width="16" height="16" fill="none" viewBox="0 0 16 16"><path fill="#000" fill-rule="evenodd" d="M11.5799 9.8139a2.938 2.938 0 0 0 .6782-1.882V6.0791a.95.95 0 0 0-.95-.95h-4.413l-1.643-1.643V1.6835a.65.65 0 0 1 1.3 0V3.829h2.8958V1.6836a.65.65 0 0 1 1.3 0V3.829h.5602c1.2427 0 2.25 1.0074 2.25 2.25v1.853a4.234 4.234 0 0 1-1.0561 2.804zM1.1003 2.8663l1.8224 1.8224a2.24 2.24 0 0 0-.481 1.3904V7.932c0 2.3472 1.9029 4.25 4.25 4.25H7.35v2.1345a.65.65 0 1 0 1.3 0V12.182h.6581a4.26 4.26 0 0 0 .9915-.1163l2.745 2.745a.65.65 0 0 0 .9192-.9193L2.0195 1.9471a.65.65 0 0 0-.9192.9192m5.5915 8.0156h2.424l-5.258-5.2581a.946.946 0 0 0-.116.4553V7.932c0 1.6292 1.3207 2.95 2.95 2.95"/></svg>