<svg width="16" height="16" viewBox="0 0 16 16" fill="none" xmlns="http://www.w3.org/2000/svg">
<path fill-rule="evenodd" clip-rule="evenodd" d="M2.92292 4.68881L1.10054 2.86642C0.846696 2.61258 0.846696 2.20103 1.10054 1.94719C1.35438 1.69334 1.76593 1.69334 2.01978 1.94719L13.964 13.8914C14.2179 14.1453 14.2179 14.5568 13.964 14.8107C13.7102 15.0645 13.2986 15.0645 13.0448 14.8107L10.2999 12.0658C9.98177 12.1418 9.64977 12.182 9.30838 12.182H8.65022V14.3165C8.65022 14.6755 8.3592 14.9665 8.00022 14.9665C7.64123 14.9665 7.35022 14.6755 7.35022 14.3165V12.182H6.69201C4.3448 12.182 2.44202 10.2792 2.44202 7.93203V6.07922C2.44202 5.55439 2.62171 5.07154 2.92292 4.68881ZM9.11615 10.882H6.69201C5.06277 10.882 3.74202 9.56127 3.74202 7.93203V6.07922C3.74202 5.91426 3.78406 5.75911 3.85803 5.62392L9.11615 10.882Z" fill="black"/>
<path d="M12.2584 7.93203C12.2584 8.6474 12.0037 9.30329 11.5802 9.81402L12.5022 10.736C13.1597 9.98773 13.5584 9.00644 13.5584 7.93203V6.07922C13.5584 4.83658 12.551 3.82922 11.3084 3.82922H10.7481V1.68369C10.7481 1.32471 10.4571 1.03369 10.0981 1.03369C9.73913 1.03369 9.44812 1.32471 9.44812 1.68369V3.82922H6.55232V1.68369C6.55232 1.32471 6.2613 1.03369 5.90232 1.03369C5.54333 1.03369 5.25232 1.32471 5.25232 1.68369V3.48616L6.89539 5.12922H11.3084C11.833 5.12922 12.2584 5.55455 12.2584 6.07922V7.93203Z" fill="black"/>
</svg>
