<svg xmlns="http://www.w3.org/2000/svg" width="16" height="16" fill="none" viewBox="0 0 16 16"><path fill="#000" fill-rule="evenodd" d="M13.8063 2.1143a.6501.6501 0 0 0-.9192-.9193l-1.3954 1.3955-1.3954-1.3955a.65.65 0 0 0-.9193.9193l1.3954 1.3954L9.177 4.9051a.65.65 0 1 0 .9193.9193l1.3954-1.3954 1.3954 1.3954a.65.65 0 1 0 .9192-.9193l-1.3954-1.3954zm-.012 5.1487v5.4353c0 .9333-.6118 1.7236-1.4563 1.9919a2.44 2.44 0 0 1-.9937.2099H3.452c-1.3531 0-2.45-1.0969-2.45-2.45v-1.247a.65.65 0 0 1 .65-.65h1.5093v-8.803a.65.65 0 0 1 .65-.65h3.9555a1.957 1.957 0 0 0 .0674 1.3h-3.373v8.153h5.804a.65.65 0 0 1 .65.65v1.4952a.7896.7896 0 0 0 .9635.7703 1.15 1.15 0 0 0 .6156-1.0185v-5.331a1.956 1.956 0 0 0 1.3.1439m-4.179 5.4353v-.8452H2.302v.597c0 .6351.5148 1.15 1.15 1.15h6.3673a2.08 2.08 0 0 1-.204-.9018"/></svg>