<svg xmlns="http://www.w3.org/2000/svg" width="16" height="16" fill="none" viewBox="0 0 16 16"><path fill="#000" fill-rule="evenodd" d="M8.0003.984C5.3188.984 3.145 3.1578 3.145 5.8393c0 1.3686.5663 2.605 1.4774 3.4876v5.039a.65.65 0 0 0 .9737.5637l2.4502-1.407 2.37 1.4027a.6501.6501 0 0 0 .9811-.5594V9.3081c.8998-.8813 1.4581-2.1099 1.4581-3.4688 0-2.6815-2.1738-4.8553-4.8552-4.8553m1.807 3.2087a.65.65 0 0 0-.9192 0l-.888.888-.888-.888a.65.65 0 0 0-.9193.9192l.888.888-.888.8881a.65.65 0 0 0 .9193.9192L8 6.9193l.888.888a.65.65 0 0 0 .9193-.9192L8.9194 6l.888-.888a.65.65 0 0 0 0-.9193"/></svg>