<svg xmlns="http://www.w3.org/2000/svg" width="16" height="16" fill="none" viewBox="0 0 16 16"><path fill="#000" fill-rule="evenodd" d="M1.0644 1.4252a.65.65 0 0 1 .9192 0L13.939 13.3805a.65.65 0 1 1-.9192.9193l-1.3113-1.3114h-1.3988l-1.7234 1.7493a.8237.8237 0 0 1-1.1738 0L5.689 12.9884H3.786c-1.511 0-2.736-1.225-2.736-2.7361V4.7376c0-.672.2421-1.2873.644-1.7635l-.6296-.6296a.65.65 0 0 1 0-.9193m12.3572 9.6045a1.43 1.43 0 0 0 .2283-.7774V4.7376c0-.7932-.643-1.4361-1.4361-1.4361H5.6934l-1.3-1.3h7.8204c1.5111 0 2.7361 1.225 2.7361 2.7361v5.5147a2.725 2.725 0 0 1-.5981 1.7076zm-10.802-7.13 7.7888 7.7887h-.3709a.65.65 0 0 0-.463.1939l-1.5752 1.5988-1.5751-1.5988a.65.65 0 0 0-.463-.1939H3.786c-.7932 0-1.4362-.643-1.4362-1.4361V4.7376c0-.3127.1-.6021.2697-.838"/></svg>