<svg xmlns="http://www.w3.org/2000/svg" width="16" height="16" fill="none" viewBox="0 0 16 16"><path fill="#000" fill-rule="evenodd" d="M13.5918 3.789C12.3142 2.0953 10.2851 1 8 1 4.134 1 1 4.134 1 8s3.134 7 7 7c2.3914 0 4.501-1.2004 5.7637-3.0303a1.95 1.95 0 0 1-1.9053.2246c-1.0153.9345-2.3699 1.5059-3.8584 1.5059-3.148 0-5.7002-2.5522-5.7002-5.7002S4.852 2.2998 8 2.2998c1.4428 0 2.7595.537 3.7637 1.4209a1.951 1.951 0 0 1 1.8281.0684m-.5176 1.2256a.651.651 0 0 0-.9199 0 .651.651 0 0 0 0 .92l1.415 1.415H6.667A.6507.6507 0 0 0 6.0166 8c0 .359.2914.6504.6504.6504h6.7754l-1.2881 1.288a.6503.6503 0 0 0 0 .919.651.651 0 0 0 .9199 0l2.4619-2.461a.651.651 0 0 0 0-.9198z"/></svg>