<svg width="16" height="16" viewBox="0 0 16 16" fill="none" xmlns="http://www.w3.org/2000/svg">
<path d="M8 1C10.2851 1 12.3142 2.09519 13.5918 3.78906C13.0305 3.46305 12.3427 3.43987 11.7637 3.7207C10.7595 2.83686 9.44278 2.2998 8 2.2998C4.85198 2.2998 2.2998 4.85198 2.2998 8C2.2998 11.148 4.85198 13.7002 8 13.7002C9.48854 13.7002 10.8431 13.1288 11.8584 12.1943C12.4791 12.4549 13.2047 12.3792 13.7637 11.9697C12.501 13.7996 10.3914 15 8 15C4.13401 15 1 11.866 1 8C1 4.13401 4.13401 1 8 1Z" fill="black"/>
<path d="M12.1543 5.01465C12.4081 4.76081 12.8204 4.76081 13.0742 5.01465L15.5361 7.47656C15.7898 7.73042 15.7899 8.14271 15.5361 8.39648L13.0742 10.8574C12.8204 11.1111 12.4081 11.1111 12.1543 10.8574C11.9009 10.6036 11.9008 10.1922 12.1543 9.93848L13.4424 8.65039H6.66699C6.30801 8.65039 6.01661 8.35898 6.0166 8C6.0166 7.64102 6.30801 7.34961 6.66699 7.34961H13.5693L12.1543 5.93457C11.9005 5.68079 11.9006 5.2685 12.1543 5.01465Z" fill="black"/>
</svg>
