<svg xmlns="http://www.w3.org/2000/svg" width="16" height="16" fill="none" viewBox="0 0 16 16"><path fill="#000" fill-rule="evenodd" d="m4.0057 2.2457.9377.9377c.882-.5595 1.928-.8834 3.0493-.8834 1.965 0 3.6987.9942 4.724 2.5092h-1.2264a.65.65 0 1 0 0 1.3h2.8219a.65.65 0 0 0 .65-.65v-2.822a.65.65 0 1 0-1.3 0v1.2564C12.3907 2.141 10.3254 1 7.9927 1c-1.4818 0-2.8558.4603-3.987 1.2457m-2.823 4.1286a6.97 6.97 0 0 1 1.062-2.3702L.9082 2.6675a.65.65 0 0 1 .9192-.9192l12.3062 12.3061a.6501.6501 0 0 1-.9193.9193l-1.2255-1.2256C10.8558 14.5373 9.4785 15 7.9928 15c-2.3235 0-4.3816-1.132-5.6544-2.8728v1.1953a.65.65 0 1 1-1.3 0v-2.8219a.65.65 0 0 1 .65-.65h2.822a.65.65 0 1 1 0 1.3H3.2416C4.2634 12.6881 6.0104 13.7 7.9927 13.7c1.1254 0 2.1748-.3262 3.0587-.8893L3.1819 4.9412a5.67 5.67 0 0 0-.7915 2.0019.65.65 0 1 1-1.2778-.2395 7 7 0 0 1 .07-.3293m11.6268 4.6752.9375.9374a6.97 6.97 0 0 0 1.1485-2.8184.65.65 0 1 0-1.282-.2156 5.665 5.665 0 0 1-.804 2.0966"/></svg>