<svg width="16" height="16" viewBox="0 0 16 16" fill="none" xmlns="http://www.w3.org/2000/svg">
<path d="M5.32458 7.03266C5.32458 6.67368 5.6156 6.38266 5.97459 6.38266H10.0255C10.3845 6.38266 10.6755 6.67367 10.6755 7.03266C10.6755 7.39164 10.3845 7.68266 10.0255 7.68266L5.97459 7.68266C5.6156 7.68266 5.32459 7.39164 5.32458 7.03266Z" fill="black"/>
<path d="M6.03257 9.00583C5.67358 9.00583 5.38257 9.29684 5.38257 9.65583C5.38257 10.0148 5.67358 10.3058 6.03257 10.3058H7.9573C8.31628 10.3058 8.6073 10.0148 8.6073 9.65583C8.6073 9.29684 8.31628 9.00583 7.9573 9.00583L6.03257 9.00583Z" fill="black"/>
<path fill-rule="evenodd" clip-rule="evenodd" d="M5.36045 0.910156C5.71943 0.910156 6.01045 1.20117 6.01045 1.56016V1.6884H7.3501V1.57847C7.3501 1.21948 7.64111 0.928467 8.0001 0.928467C8.35908 0.928467 8.6501 1.21948 8.6501 1.57847V1.6884H9.9895V1.56016C9.9895 1.20117 10.2805 0.910156 10.6395 0.910156C10.9985 0.910156 11.2895 1.20117 11.2895 1.56016V1.73789C12.4066 1.96579 13.2472 2.95394 13.2472 4.1384V12.5501C13.2472 13.9032 12.1503 15.0001 10.7972 15.0001H5.20293C3.84984 15.0001 2.75293 13.9032 2.75293 12.5501V4.1384C2.75293 2.95399 3.59339 1.96587 4.71045 1.73791V1.56016C4.71045 1.20117 5.00146 0.910156 5.36045 0.910156ZM9.9895 2.9884V3.09835C9.9895 3.45733 10.2805 3.74834 10.6395 3.74834C10.9983 3.74834 11.2892 3.45759 11.2895 3.09882C11.6783 3.28329 11.9472 3.67945 11.9472 4.1384V12.5501C11.9472 13.1852 11.4323 13.7001 10.7972 13.7001H5.20293C4.5678 13.7001 4.05293 13.1852 4.05293 12.5501V4.1384C4.05293 3.6795 4.32172 3.28338 4.71045 3.09889C4.71074 3.45762 5.00165 3.74834 5.36045 3.74834C5.71943 3.74834 6.01045 3.45733 6.01045 3.09835V2.9884H7.3501V3.11666C7.3501 3.47564 7.64111 3.76666 8.0001 3.76666C8.35908 3.76666 8.6501 3.47564 8.6501 3.11666V2.9884H9.9895Z" fill="black"/>
</svg>
