<svg xmlns="http://www.w3.org/2000/svg" width="16" height="16" fill="none" viewBox="0 0 16 16"><path fill="#000" stroke="#000" d="M1.65 4.3125c0-.7456.6044-1.35 1.35-1.35h10c.7456 0 1.35.6044 1.35 1.35v7.375c0 .7456-.6044 1.35-1.35 1.35H3c-.7456 0-1.35-.6044-1.35-1.35zm5.6043 1.1033c-.5077-.5077-1.3308-.5077-1.8385 0s-.5077 1.3308 0 1.8385l.7458.7458-.7457.7457c-.5076.5077-.5076 1.3308 0 1.8385s1.3308.5076 1.8385 0l.7457-.7457.7457.7457c.5077.5076 1.3308.5076 1.8385 0s.5076-1.3308 0-1.8385L9.8386 8l.7458-.7458c.5077-.5077.5077-1.3308 0-1.8385s-1.3308-.5077-1.8385 0l-.7458.7458z"/></svg>