<svg xmlns="http://www.w3.org/2000/svg" width="16" height="16" fill="none" viewBox="0 0 16 16"><path fill="#000" fill-rule="evenodd" d="M11.2398 6V4.239c0-1.7923-1.453-3.2452-3.2453-3.2452-1.7924 0-3.2453 1.453-3.2453 3.2453V6H4.6C3.164 6 2 7.164 2 8.6v3.8C2 13.8359 3.164 15 4.6 15h6.8c1.4359 0 2.6-1.1641 2.6-2.6V8.6C14 7.164 12.8359 6 11.4 6zM6.0492 4.239c0-1.0743.871-1.9452 1.9453-1.9452s1.9453.871 1.9453 1.9453V6H6.0492zM3.3 8.6c0-.718.582-1.3 1.3-1.3h6.8c.718 0 1.3.582 1.3 1.3v3.8c0 .7179-.582 1.3-1.3 1.3H4.6c-.718 0-1.3-.5821-1.3-1.3z"/></svg>