<svg xmlns="http://www.w3.org/2000/svg" width="16" height="16" fill="none" viewBox="0 0 16 16"><path fill="#000" fill-rule="evenodd" d="M3.786 3.3117c-.7932 0-1.4362.643-1.4362 1.4362v5.5146c0 .7932.643 1.4362 1.4362 1.4362h2.175a.65.65 0 0 1 .463.1938l1.5752 1.5988 1.5751-1.5988a.65.65 0 0 1 .4631-.1938h2.1763c.7931 0 1.4361-.643 1.4361-1.4362V4.7479c0-.7932-.643-1.4362-1.4361-1.4362zM1.0498 4.748c0-1.5112 1.225-2.7362 2.7362-2.7362h8.4277c1.5111 0 2.7361 1.225 2.7361 2.7362v5.5146c0 1.5112-1.225 2.7362-2.7361 2.7362h-1.9042L8.5861 14.748a.824.824 0 0 1-1.1738 0L5.689 12.9987H3.786c-1.511 0-2.7361-1.225-2.7361-2.7362z"/></svg>