<svg xmlns="http://www.w3.org/2000/svg" width="16" height="16" fill="none" viewBox="0 0 16 16"><path fill="#000" fill-rule="evenodd" d="M8.6506 1.6436a.65.65 0 1 0-1.3 0v.6973C5 2.6584 3.1879 4.6725 3.1879 7.11v4.3983h-.666a.65.65 0 1 0 0 1.3h10.9572a.65.65 0 1 0 0-1.3h-.666v-2.205l-1.3-.0002v2.2052H4.4879V7.11c0-1.9168 1.5354-3.475 3.4435-3.512.1373-.3621.4329-.9208.7192-1.2936zm4.3452.6423A.333.333 0 0 0 12.6659 2H11.66a.333.333 0 0 0-.33.286l-.0877.6121a2.4 2.4 0 0 0-.5066.2814l-.6152-.2398a.333.333 0 0 0-.4064.1383l-.503.8331a.3333.3333 0 0 0 .0868.44l.512.38a2.2 2.2 0 0 0 .0001.5382l-.5118.38a.3333.3333 0 0 0-.0866.44l.503.833a.333.333 0 0 0 .4065.1383l.6149-.24c.1551.1128.325.2075.5063.2811l.0877.6123a.333.333 0 0 0 .33.286h1.0059a.333.333 0 0 0 .3299-.2859l.0881-.6124a2.4 2.4 0 0 0 .5062-.2811l.6151.24a.333.333 0 0 0 .4065-.1383l.503-.833a.3334.3334 0 0 0-.0867-.44l-.5119-.3801a2.22 2.22 0 0 0 0-.538l.5123-.3802a.3333.3333 0 0 0 .0868-.44l-.503-.833a.3334.3334 0 0 0-.4064-.1383l-.6154.2398a2.4 2.4 0 0 0-.5065-.2813zM12.8964 5a.7333.7333 0 1 1-1.4666 0 .7333.7333 0 0 1 1.4666 0m-3.3823 8.6053H6.487c.0598.7837.7146 1.401 1.5136 1.401s1.4538-.6173 1.5136-1.401"/></svg>