<svg xmlns="http://www.w3.org/2000/svg" width="16" height="16" fill="none" viewBox="0 0 16 16"><path fill="#000" fill-rule="evenodd" d="M5.8226.0157c-1.1322 0-2.05.9179-2.05 2.05v9.8121c0 1.1322.9178 2.05 2.05 2.05h6.2117c1.2427 0 2.25-1.0074 2.25-2.25V5.0727a1.15 1.15 0 0 0-.3088-.7842L10.3329.3815a1.15 1.15 0 0 0-.8411-.3658zm-.75 2.05a.75.75 0 0 1 .75-.75h3.22v2.1435c0 1.1322.9178 2.05 2.05 2.05h1.8917v6.1686a.95.95 0 0 1-.95.95H5.8226a.75.75 0 0 1-.75-.75zm7.0516 2.1435-1.7816-1.911v1.161a.75.75 0 0 0 .75.75zm-9.1085.4474a.65.65 0 0 0-1.3 0v7.6776c0 2.0158 1.6342 3.65 3.65 3.65h4.9585a.65.65 0 1 0 0-1.3H5.3657c-1.2979 0-2.35-1.0521-2.35-2.35zm4.1137 2.425a.65.65 0 0 1 .9192 0l.9799.9797.9798-.9798a.65.65 0 1 1 .9192.9192l-.9798.9799.9798.9798a.65.65 0 0 1-.9193.9192l-.9797-.9798-.9798.9798a.65.65 0 0 1-.9193-.9192l.9798-.9798-.9798-.9799a.65.65 0 0 1 0-.9192"/></svg>