<svg width="16" height="16" viewBox="0 0 16 16" fill="none" xmlns="http://www.w3.org/2000/svg">
<path d="M7.12951 7.08163C7.38335 6.82779 7.79491 6.82779 8.04875 7.08163L9.02858 8.06147L10.0084 7.08163C10.2623 6.82779 10.6738 6.82779 10.9277 7.08163C11.1815 7.33548 11.1815 7.74703 10.9277 8.00087L9.94782 8.98071L10.9276 9.96049C11.1814 10.2143 11.1814 10.6259 10.9276 10.8797C10.6738 11.1336 10.2622 11.1336 10.0084 10.8797L9.02858 9.89995L8.0488 10.8797C7.79496 11.1336 7.3834 11.1336 7.12956 10.8797C6.87572 10.6259 6.87572 10.2143 7.12956 9.96049L8.10934 8.98071L7.12951 8.00087C6.87567 7.74703 6.87567 7.33548 7.12951 7.08163Z" fill="black"/>
<path fill-rule="evenodd" clip-rule="evenodd" d="M3.77271 2.06587C3.77271 0.933686 4.69052 0.0158691 5.82271 0.0158691H9.49192C9.8109 0.0158691 10.1155 0.148351 10.3331 0.381655L13.9756 4.28859C14.1741 4.50149 14.2845 4.78173 14.2845 5.0728V11.6779C14.2845 12.9205 13.2771 13.9279 12.0345 13.9279H5.8227C4.69052 13.9279 3.77271 13.0101 3.77271 11.8779V2.06587ZM5.82271 1.31587C5.40849 1.31587 5.07271 1.65166 5.07271 2.06587V11.8779C5.07271 12.2921 5.40849 12.6279 5.8227 12.6279H12.0345C12.5591 12.6279 12.9845 12.2026 12.9845 11.6779V5.50934H11.0927C9.96054 5.50934 9.04273 4.59152 9.04273 3.45933L9.04273 1.31587H5.82271ZM10.3427 2.2984L12.1244 4.20934H11.0927C10.6785 4.20934 10.3427 3.87355 10.3427 3.45934L10.3427 2.2984Z" fill="black"/>
<path d="M3.01582 4.65673C3.01582 4.29775 2.72481 4.00673 2.36582 4.00673C2.00684 4.00673 1.71582 4.29775 1.71582 4.65673V12.3343C1.71582 14.3502 3.34998 15.9843 5.36582 15.9843H10.3243C10.6833 15.9843 10.9743 15.6933 10.9743 15.3343C10.9743 14.9753 10.6833 14.6843 10.3243 14.6843L5.36582 14.6843C4.06795 14.6843 3.01582 13.6322 3.01582 12.3343V4.65673Z" fill="black"/>
</svg>
