<svg xmlns="http://www.w3.org/2000/svg" width="16" height="16" fill="none" viewBox="0 0 16 16"><path fill="#000" fill-rule="evenodd" d="M8 1.3334c3.6818 0 6.6666 2.9848 6.6666 6.6667s-2.9848 6.6666-6.6667 6.6666-6.6666-2.9848-6.6666-6.6666c0-3.682 2.9847-6.6667 6.6666-6.6667m0 1.3q-1.1115 0-2.0603.393-.9486.393-1.7346 1.1788-.786.786-1.1789 1.7347T2.6332 8t.393 2.0601 1.179 1.7346q.7858.786 1.7345 1.1789T8 13.3667q1.1115 0 2.0602-.393t1.7346-1.1789 1.1789-1.7346.393-2.0601-.393-2.0602-1.1789-1.7347-1.7346-1.1789T8 2.6333m.0284 2.0444q.6905 0 1.226.2802.3285.17.5695.4232.1535.1612.2712.3562.0683.1123.1212.2316.182.41.1819.9008 0 .4763-.2051.9867-.205.5082-.6995 1.2441L8.001 11.3223H6.6658l1.447-2.1282v-.0935q-.0662.0091-.2234.0091-.663 0-1.1826-.2688-.3103-.1627-.5401-.4024a2.03 2.03 0 0 1-.3614-.5209q-.2036-.4236-.2036-.9452 0-.542.2055-.9898a2.2 2.2 0 0 1 .102-.1951 2.14 2.14 0 0 1 .2805-.376q.2446-.2617.5786-.4398.5515-.294 1.2601-.294m-.0273 3.4339q.3915 0 .6776-.1737a1.13 1.13 0 0 0 .202-.1567 1.1 1.1 0 0 0 .1864-.2379q.1553-.2677.1553-.6257 0-.3964-.1802-.6772a1.07 1.07 0 0 0-.157-.191 1.1 1.1 0 0 0-.1685-.1355q-.295-.1926-.7156-.1926-.4242 0-.7216.1942a1.1 1.1 0 0 0-.1671.134 1.06 1.06 0 0 0-.1525.1855q-.1825.2824-.1825.6826 0 .3615.1575.6311.0737.1263.182.2325.093.0899.2008.1553.2885.175.6834.175"/></svg>