<svg xmlns="http://www.w3.org/2000/svg" width="16" height="16" fill="none" viewBox="0 0 16 16"><path fill="#000" fill-rule="evenodd" d="M2.665 2.0658a.434.434 0 0 0-.4716.0937l-.6993.6993a.434.434 0 0 0 0 .6123c.1566.1566.4023.1665.5723.0332v1.0576c0 .239.1937.4331.4326.4336a.434.434 0 0 0 .4336-.4336V2.4662a.434.434 0 0 0-.2676-.4004M15.1172 3.514a.6514.6514 0 0 0-.6504-.6504H5.1143a.651.651 0 0 0-.6504.6504c0 .359.2914.6504.6504.6504h9.3525a.651.651 0 0 0 .6504-.6504M2.3662 6.518c.6494 0 1.1524.5693 1.0732 1.2138a.888.888 0 0 1-.3369.5928l-.375.29h.3721a.433.433 0 0 1 .4326.4326.433.433 0 0 1-.4326.4336H1.7022a.434.434 0 0 1-.4336-.4336V8.975a.667.667 0 0 1 .2587-.5264l1.045-.8096a.02.02 0 0 0 .0078-.0127.2158.2158 0 0 0-.2139-.2412h-.041a.1896.1896 0 0 0-.1895.1895.434.434 0 0 1-.4335.4336.434.434 0 0 1-.4336-.4336c.0002-.5832.4734-1.0567 1.0566-1.0567zm12.7461 1.4824a.651.651 0 0 0-.6504-.6504H5.1094a.6507.6507 0 0 0-.6504.6504.651.651 0 0 0 .6504.6503h9.3525a.651.651 0 0 0 .6504-.6503M3.0996 11.0043a.434.434 0 0 1 .4004.2675.435.435 0 0 1-.0937.4727l-.3497.3486c.2853.1798.4756.4963.4756.8584-.0002.5605-.4542 1.0154-1.0146 1.0156h-.3887a.96.96 0 0 1-.7793-.4003.4336.4336 0 0 1 .705-.5049.093.093 0 0 0 .0743.039h.3887a.1496.1496 0 0 0 .1484-.1494.1484.1484 0 0 0-.1484-.1484H2.168a.435.435 0 0 1-.4004-.2676.434.434 0 0 1 .0937-.4726l.1914-.1915h-.3506a.434.434 0 0 1-.4335-.4335.434.434 0 0 1 .4336-.4336zm12.0127 1.4814a.651.651 0 0 0-.6504-.6504H5.1094a.6507.6507 0 0 0-.6504.6504.651.651 0 0 0 .6504.6504h9.3525a.651.651 0 0 0 .6504-.6504"/></svg>