<svg xmlns="http://www.w3.org/2000/svg" width="16" height="16" fill="none" viewBox="0 0 16 16"><path fill="#000" fill-rule="evenodd" d="M8 1.3334c3.6818 0 6.6666 2.9848 6.6666 6.6667s-2.9848 6.6666-6.6667 6.6666-6.6666-2.9848-6.6666-6.6666c0-3.682 2.9847-6.6667 6.6666-6.6667m0 1.3q-1.1115 0-2.0603.393-.9486.393-1.7346 1.1788-.786.786-1.1789 1.7347T2.6332 8t.393 2.0601 1.179 1.7346q.7858.786 1.7345 1.1789T8 13.3667q1.1115 0 2.0602-.393t1.7346-1.1789 1.1789-1.7346.393-2.0601-.393-2.0602-1.1789-1.7347-1.7346-1.1789T8 2.6333m1.359 6.1311h.9616V9.774H9.359v1.4925H8.2675V9.774H5.2324v-.8978l3.0351-4.1426H9.359zm-2.8574 0h1.7659V6.274h-.114q-.0728.1572-.2096.3828a7 7 0 0 1-.237.3714z"/></svg>