<svg xmlns="http://www.w3.org/2000/svg" width="16" height="16" fill="none" viewBox="0 0 16 16"><path fill="#000" fill-rule="evenodd" d="M1.35 6A.65.65 0 0 1 2 5.35h1.3333a.65.65 0 0 1 .65.65v4a.65.65 0 1 1-1.3 0V6.65H2A.65.65 0 0 1 1.35 6m4 0A.65.65 0 0 1 6 5.35h2.6667a.65.65 0 0 1 .65.65v2a.65.65 0 0 1-.65.65H6.65v.7h2.0167a.65.65 0 1 1 0 1.3H6a.65.65 0 0 1-.65-.65V8A.65.65 0 0 1 6 7.35h2.0167v-.7H6A.65.65 0 0 1 5.35 6m5.3333 0a.65.65 0 0 1 .65-.65H14a.65.65 0 0 1 .65.65v4a.65.65 0 0 1-.65.65h-2.6667a.65.65 0 0 1 0-1.3H13.35v-.7h-1.0167a.65.65 0 0 1 0-1.3H13.35v-.7h-2.0167a.65.65 0 0 1-.65-.65"/></svg>