<svg xmlns="http://www.w3.org/2000/svg" width="16" height="16" fill="none" viewBox="0 0 16 16"><path fill="#000" fill-rule="evenodd" d="M8 1.3334c3.6818 0 6.6666 2.9848 6.6666 6.6667s-2.9848 6.6666-6.6667 6.6666-6.6666-2.9848-6.6666-6.6666c0-3.682 2.9847-6.6667 6.6666-6.6667m0 1.3q-1.1115 0-2.0603.393-.9486.393-1.7346 1.1788-.786.786-1.1789 1.7347T2.6332 8t.393 2.0601 1.179 1.7346q.7858.786 1.7345 1.1789T8 13.3667q1.1115 0 2.0602-.393t1.7346-1.1789 1.1789-1.7346.393-2.0601-.393-2.0602-1.1789-1.7347-1.7346-1.1789T8 2.6333m0 8.7447q-.6997 0-1.2465-.2506-.4757-.22-.767-.5867a1.75 1.75 0 0 1-.2594-.4454q-.1266-.3178-.1266-.686 0-.2107.0439-.4119a1.96 1.96 0 0 1 .2067-.5406 1.7 1.7 0 0 1 .0961-.1513q.2453-.3445.6627-.5665v-.1116q-.4365-.2762-.6149-.6695-.1233-.2718-.1233-.5997 0-.3274.1135-.609a1.54 1.54 0 0 1 .1576-.2934 1.7 1.7 0 0 1 .1111-.145q.2515-.2932.6386-.4702.4808-.2187 1.1074-.2187.6243 0 1.1052.2187.394.1793.6473.478.0557.0657.1046.1372.0957.1399.1576.2934.1136.2816.1136.609 0 .3279-.1234.5997-.1785.3933-.615.6695v.1116q.4116.2197.6557.5597a1.7 1.7 0 0 1 .1009.1581q.1489.2643.2102.5475a1.9 1.9 0 0 1 .0427.405q0 .3635-.1243.6778a1.74 1.74 0 0 1-.181.3407 1.8 1.8 0 0 1-.083.1129q-.2912.3666-.767.5867-.5445.2506-1.244.2506m0-4.106q.42 0 .689-.2018a1 1 0 0 0 .0332-.0262q.132-.1102.201-.2513.0747-.1535.0748-.3434 0-.1913-.077-.344-.0686-.1362-.1988-.2416a1 1 0 0 0-.0263-.0207Q8.4255 5.6382 8 5.6382q-.4314 0-.703.2084l-.0216.0172q-.1271.1038-.1951.2376-.0783.154-.0783.348 0 .1925.0762.3475.0682.1386.1972.2472a1 1 0 0 0 .0286.0227q.27.2052.696.2052m0 3.0601q.5301 0 .8602-.257a1 1 0 0 0 .0261-.021q.1454-.1215.2276-.2766.1074-.2024.1074-.4616t-.1074-.4617q-.0822-.155-.2276-.2766a1 1 0 0 0-.0328-.0264Q8.5248 8.2973 8 8.2974q-.5235 0-.8539.2525a1 1 0 0 0-.0348.0278q-.1452.1216-.2276.2766-.1073.2024-.1073.4617t.1073.4616q.0824.1551.2276.2766a1 1 0 0 0 .028.0224q.332.2556.8607.2556"/></svg>