<svg xmlns="http://www.w3.org/2000/svg" width="16" height="16" fill="none" viewBox="0 0 16 16"><path fill="#000" fill-rule="evenodd" d="M8 1.3333c-3.6819 0-6.6667 2.9847-6.6667 6.6666S4.318 14.6666 8 14.6666s6.6665-2.9848 6.6665-6.6667c0-3.682-2.9846-6.6666-6.6665-6.6666M5.743 11.322v-.9251l2.2284-2.3037q.5903-.6175.7862-.9297.196-.3122.196-.5833 0-.2824-.1299-.4789a.74.74 0 0 0-.1416-.1582q-.2606-.222-.7107-.222-.4244 0-.71.199a1 1 0 0 0-.0646.0494.87.87 0 0 0-.1367.1404q-.1713.2215-.1983.5545H5.6951q.0223-.4786.2212-.8665a2 2 0 0 1 .1-.1725 1.95 1.95 0 0 1 .2657-.3272q.2263-.2239.5273-.3723.5014-.2484 1.1438-.2484.654 0 1.144.228.393.1826.6424.4844.0614.0743.114.1558.0404.0619.0745.1272l.0022.0038q.19.3645.1899.8283 0 .242-.06.468a1.8 1.8 0 0 1-.0767.2247q-.1344.3258-.4375.7132-.3031.3875-.8726.9752L7.4771 10.119v.1207h2.8276v1.0824z"/></svg>