<svg xmlns="http://www.w3.org/2000/svg" width="16" height="16" fill="none" viewBox="0 0 16 16"><path fill="#000" fill-rule="evenodd" d="M8 1.3334c3.6818 0 6.6666 2.9848 6.6666 6.6667s-2.9848 6.6666-6.6667 6.6666-6.6666-2.9848-6.6666-6.6666c0-3.682 2.9847-6.6667 6.6666-6.6667m0 1.3q-1.1115 0-2.0602.393T4.205 4.2051 3.0262 5.94q-.393.9486-.393 2.0602 0 1.1114.393 2.0601.393.9488 1.179 1.7346.7858.786 1.7345 1.1789T8 13.3667q1.1115 0 2.0602-.393t1.7346-1.1789 1.1789-1.7346.393-2.0601-.393-2.0602-1.1789-1.7347-1.7346-1.1789T8 2.6333m.5365 4.5258q.3727.0281.6936.172a2 2 0 0 1 .2339.1242q.1795.11.3267.2534.1943.1894.3318.437.027.048.051.0975.1928.3966.1928.887 0 .2287-.044.4486a2.32 2.32 0 0 1-.2181.6155 1.9 1.9 0 0 1-.1348.2215q-.2498.3539-.6604.5942-.531.3122-1.3057.3122-.7268 0-1.2555-.2803-.4182-.2226-.681-.5646a1.9 1.9 0 0 1-.1256-.185 2.2 2.2 0 0 1-.2086-.4641 2.22 2.22 0 0 1-.099-.559h1.1666q.0254.344.2007.5732a.91.91 0 0 0 .1821.1787q.0891.0657.1866.1144.2817.1408.6337.1408.3676 0 .6436-.1591a1.13 1.13 0 0 0 .2064-.153 1.03 1.03 0 0 0 .1868-.2296q.1504-.2529.1504-.5953 0-.3036-.1322-.5298a.95.95 0 0 0-.2187-.254q-.351-.2895-1.0413-.2895h-.793v-.8978L8.582 5.742H5.8956V4.6778h4.1722v.9707L8.5365 7.0567z"/></svg>