<svg xmlns="http://www.w3.org/2000/svg" width="16" height="16" fill="none" viewBox="0 0 16 16"><path fill="#000" fill-rule="evenodd" d="M8 1.3334c3.6818 0 6.6666 2.9848 6.6666 6.6667s-2.9848 6.6666-6.6667 6.6666-6.6666-2.9848-6.6666-6.6666c0-3.682 2.9847-6.6667 6.6666-6.6667m0 1.3q-1.1115 0-2.0603.393-.9486.393-1.7346 1.1788-.786.786-1.1789 1.7347T2.6332 8t.393 2.0601 1.179 1.7346q.7858.786 1.7345 1.1789T8 13.3667q1.1115 0 2.0602-.393t1.7346-1.1789 1.1789-1.7346.393-2.0601-.393-2.0602-1.1789-1.7347-1.7346-1.1789T8 2.6333m.3315 4.0792q.5093 0 .9206.2006.071.0346.139.0751.1565.0926.2899.2113.2605.2319.4324.5635.262.499.262 1.1416 0 .5991-.2238 1.0979a2.4 2.4 0 0 1-.0656.1348 2.16 2.16 0 0 1-.3297.4685 2.18 2.18 0 0 1-.502.3997q-.54.3167-1.2669.3167-.72 0-1.2487-.2757-.4344-.2275-.7042-.5807a2.04 2.04 0 0 1-.349-.72 2 2 0 0 1-.061-.4288H6.791q.043.291.1965.5019.082.1125.1954.2022.0795.0617.1667.1085.2739.1467.6263.1467.3418 0 .6059-.1433a1.15 1.15 0 0 0 .2714-.2053q.0645-.0654.117-.1392.2293-.3228.2293-.8087 0-.4767-.2265-.789a1.1 1.1 0 0 0-.097-.1157 1.06 1.06 0 0 0-.2264-.1814q-.262-.1558-.6167-.1558-.3585 0-.639.1478a1 1 0 0 0-.0378.0208q-.2728.1565-.3964.3914a1 1 0 0 0-.0183.037H5.85l.196-3.6572h3.8714V5.751H7.0896l-.073 1.324h.1117q.2142-.1847.5355-.2735a2.52 2.52 0 0 1 .6676-.0889"/></svg>