<svg xmlns="http://www.w3.org/2000/svg" width="16" height="16" fill="none" viewBox="0 0 16 16"><path fill="#000" fill-rule="evenodd" d="M8 1.3333c-3.6819 0-6.6667 2.9847-6.6667 6.6666S4.318 14.6666 8 14.6666s6.6665-2.9848 6.6665-6.6667c0-3.682-2.9846-6.6666-6.6665-6.6666M8 11.378q-.6995 0-1.2463-.2508-.4759-.2198-.7671-.5867a1.76 1.76 0 0 1-.2593-.4454q-.1267-.3177-.1267-.6859 0-.2107.044-.4119a1.96 1.96 0 0 1 .2067-.5406 1.7 1.7 0 0 1 .096-.1513q.2453-.3445.6628-.5665v-.1117q-.4365-.276-.615-.6694-.1234-.2718-.1233-.5998 0-.3273.1136-.609.0618-.1534.1574-.2933a1.7 1.7 0 0 1 .1111-.1449q.2515-.2933.6387-.4703Q7.3734 4.6218 8 4.6218q.6244 0 1.1052.2188.3941.1794.6472.478.0557.0657.1048.1372.0956.1399.1574.2934.1136.2816.1136.609 0 .3278-.1233.5997-.1785.3933-.615.6694v.1117q.4116.2197.6558.5597.0545.076.1008.158.149.2644.2102.5476.0428.1978.0427.405 0 .3635-.1243.6777a1.75 1.75 0 0 1-.1811.3409 1.8 1.8 0 0 1-.0828.1127q-.2915.3668-.767.5867-.5447.2507-1.2442.2508m0-4.1062q.4201 0 .689-.2017a1 1 0 0 0 .0334-.0261q.132-.1103.201-.2515.0746-.1534.0746-.3433 0-.1914-.0769-.344-.0687-.1362-.1987-.2416l-.0264-.0208Q8.4255 5.6381 8 5.6381q-.4315 0-.7029.2085l-.0217.017q-.127.104-.195.2377-.0785.154-.0785.348 0 .1925.0762.3475.0682.1386.1973.2473a1 1 0 0 0 .0286.0225q.27.2053.696.2052m0 3.0603q.5301 0 .8604-.2571.0131-.0103.026-.021.1454-.1215.2276-.2766.1073-.2025.1074-.4617t-.1074-.4615q-.0823-.1552-.2275-.2768a1 1 0 0 0-.033-.0264Q8.525 8.2974 8 8.2973q-.5234 0-.8538.2526a1 1 0 0 0-.0349.0277q-.1454.1215-.2275.2767-.1073.2024-.1074.4616t.1074.4617q.0821.155.2275.2766.0139.0114.0281.0223.3317.2558.8606.2558"/></svg>