<svg xmlns="http://www.w3.org/2000/svg" width="16" height="16" fill="none" viewBox="0 0 16 16"><path fill="#000" fill-rule="evenodd" d="M8 1.3333c-3.6819 0-6.6667 2.9847-6.6667 6.6666S4.318 14.6666 8 14.6666s6.6665-2.9848 6.6665-6.6667c0-3.682-2.9846-6.6666-6.6665-6.6666m.5366 5.8258q.3725.0281.6936.1718.1205.054.2337.1244.1797.11.3269.2533.1941.1894.3318.4371.0268.048.051.0975.1926.3966.1926.887 0 .2287-.0439.4485a2.33 2.33 0 0 1-.2181.6155 1.95 1.95 0 0 1-.1347.2214q-.25.354-.6604.5944-.531.3121-1.3057.3121-.7268 0-1.2556-.2802-.4183-.2227-.681-.5647a1.9 1.9 0 0 1-.1256-.185 2.2 2.2 0 0 1-.2085-.464 2.2 2.2 0 0 1-.0992-.5592h1.1668q.0252.3441.2007.5734a.9.9 0 0 0 .1821.1786q.089.0657.1865.1144.2816.1409.6338.1408.3676 0 .6436-.159a1.15 1.15 0 0 0 .2063-.153 1.02 1.02 0 0 0 .1867-.2297q.1505-.2529.1504-.5953 0-.3035-.132-.5297a.95.95 0 0 0-.2188-.2542q-.3508-.2893-1.0413-.2894h-.793v-.8977L8.582 5.7417H5.8955v-1.064h4.1724v.9706L8.5366 7.0565z"/></svg>