<svg xmlns="http://www.w3.org/2000/svg" width="16" height="16" fill="none" viewBox="0 0 16 16"><path fill="#000" fill-rule="evenodd" d="M8 1.3334c3.6818 0 6.6666 2.9848 6.6666 6.6667s-2.9848 6.6666-6.6667 6.6666-6.6666-2.9848-6.6666-6.6666c0-3.682 2.9847-6.6667 6.6666-6.6667m0 1.3q-1.1115 0-2.0603.393-.9486.393-1.7346 1.1788-.786.786-1.1789 1.7347T2.6332 8t.393 2.0601 1.179 1.7346q.7858.786 1.7345 1.1789T8 13.3667q1.1115 0 2.0602-.393t1.7346-1.1789 1.1789-1.7346.393-2.0601-.393-2.0602-1.1789-1.7347-1.7346-1.1789T8 2.6333m-2.257 8.6889v-.9251l2.2284-2.3037q.5902-.6175.7862-.9297t.196-.5834q0-.2823-.13-.4788a.74.74 0 0 0-.1414-.1581q-.2609-.222-.7108-.222-.4243 0-.7098.199a1 1 0 0 0-.065.0493.88.88 0 0 0-.1364.1404q-.1714.2214-.1985.5546H5.6951q.0222-.4786.2212-.8667a1.9 1.9 0 0 1 .1-.1724q.1167-.18.2656-.3272.2264-.2239.5274-.3723.5013-.2484 1.144-.2484.6539 0 1.1438.2278.393.183.6424.4845a1.65 1.65 0 0 1 .1906.2869q.19.3645.1901.8283 0 .242-.0603.468a1.8 1.8 0 0 1-.0764.2247q-.1345.3259-.4375.7132t-.8727.9752L7.477 10.1192v.1208h2.8278v1.0823z"/></svg>