<svg xmlns="http://www.w3.org/2000/svg" width="16" height="16" fill="none" viewBox="0 0 16 16"><path fill="#000" fill-rule="evenodd" d="M8 1.3333c-3.6819 0-6.6667 2.9847-6.6667 6.6666S4.318 14.6666 8 14.6666s6.6665-2.9848 6.6665-6.6667c0-3.682-2.9846-6.6666-6.6665-6.6666m.3315 5.3791q.5094 0 .9207.2007.071.0345.139.075.1566.0926.29.2112.2603.232.4323.5636.262.499.262 1.1416 0 .5992-.2239 1.0979a2.5 2.5 0 0 1-.0654.1348 2.17 2.17 0 0 1-.3299.4685 2.18 2.18 0 0 1-.502.3997q-.5399.3167-1.2668.3167-.7201 0-1.2487-.2757-.4345-.2274-.7041-.5807a1.9 1.9 0 0 1-.1072-.1553 2.04 2.04 0 0 1-.242-.5647 2 2 0 0 1-.061-.4288h1.1668q.0429.291.1965.502.0817.1125.1953.2021.0793.0617.1668.1085.2739.1468.6262.1467.3418 0 .606-.1433a1.15 1.15 0 0 0 .2712-.2053q.0645-.0654.117-.1392.2294-.3229.2294-.8087.0001-.4767-.2266-.789a1.1 1.1 0 0 0-.0969-.1156 1.06 1.06 0 0 0-.2265-.1814q-.262-.156-.6167-.156-.3585 0-.639.148-.019.0101-.0378.0208c-.1816.1042-.314.2347-.3962.3914l-.0081.0153-.0103.0216H5.8502l.196-3.6572h3.8714v1.0732h-2.828l-.0728 1.324h.1116q.2142-.1846.5354-.2735a2.53 2.53 0 0 1 .6677-.0889"/></svg>