<svg xmlns="http://www.w3.org/2000/svg" width="16" height="16" fill="none" viewBox="0 0 16 16"><path fill="#000" fill-rule="evenodd" d="M5.3159 3.2818c.7955-.4399 1.7104-.6903 2.6839-.6903 3.0675 0 5.5542 2.4867 5.5542 5.5543 0 .9734-.2504 1.8883-.6903 2.6838l.9493.9493c.6597-1.0533 1.041-2.2987 1.041-3.6331 0-3.7855-3.0687-6.8543-6.8542-6.8543-1.3345 0-2.5799.3814-3.6332 1.041zm7.5368 11.1512-.7765-.7764C10.9369 14.5008 9.5267 15 7.9998 15c-3.7855 0-6.8543-3.0687-6.8543-6.8542 0-1.527.4993-2.9372 1.3435-4.0765l-.7349-.7349a.65.65 0 0 1 .9193-.9192l11.0985 11.0986a.65.65 0 0 1-.9192.9192"/></svg>