<svg width="16" height="16" viewBox="0 0 16 16" fill="none" xmlns="http://www.w3.org/2000/svg">
<path d="M7.99976 2.5915C7.02635 2.5915 6.11143 2.84191 5.31589 3.28182L4.36661 2.33254C5.4199 1.67286 6.6653 1.2915 7.99976 1.2915C11.7853 1.2915 14.854 4.36026 14.854 8.14576C14.854 9.48023 14.4727 10.7256 13.813 11.7789L12.8637 10.8296C13.3036 10.0341 13.554 9.11917 13.554 8.14576C13.554 5.07823 11.0673 2.5915 7.99976 2.5915Z" fill="black"/>
<path fill-rule="evenodd" clip-rule="evenodd" d="M12.0762 13.6566L12.8527 14.433C13.1065 14.6869 13.5181 14.6869 13.7719 14.433C14.0257 14.1792 14.0257 13.7676 13.7719 13.5138L2.67334 2.41521C2.4195 2.16137 2.00794 2.16137 1.7541 2.41521C1.50026 2.66905 1.50026 3.08061 1.7541 3.33445L2.48894 4.06929C1.64477 5.20861 1.14551 6.61888 1.14551 8.14576C1.14551 11.9313 4.21426 15 7.99976 15C9.52664 15 10.9369 14.5008 12.0762 13.6566Z" fill="black"/>
</svg>
