<svg width="16" height="16" viewBox="0 0 16 16" fill="none" xmlns="http://www.w3.org/2000/svg">
<path d="M10.0864 14.9792C10.4454 14.9792 10.7364 14.6882 10.7364 14.3292C10.7364 13.9703 10.4454 13.6792 10.0864 13.6792L5.1976 13.6792C3.62359 13.6792 2.3476 12.4033 2.3476 10.8292L2.3476 5.82943C2.3476 5.47045 2.05659 5.17943 1.6976 5.17943C1.33862 5.17943 1.0476 5.47045 1.0476 5.82943L1.0476 10.8292C1.0476 13.1212 2.90562 14.9792 5.1976 14.9792L10.0864 14.9792Z" fill="black"/>
<path fill-rule="evenodd" clip-rule="evenodd" d="M14.918 9.87544C14.918 11.2009 13.8435 12.2754 12.518 12.2754L6.13327 12.2754C4.80778 12.2754 3.73326 11.2009 3.73326 9.87544L3.73326 3.49074C3.73327 2.16526 4.80778 1.09074 6.13326 1.09074L12.518 1.09074C13.8435 1.09074 14.918 2.16526 14.918 3.49074L14.918 9.87544ZM12.518 10.9754L6.13327 10.9754C5.52575 10.9754 5.03326 10.483 5.03326 9.87544L5.03327 3.49074C5.03327 2.88323 5.52575 2.39074 6.13326 2.39074L12.518 2.39074C13.1255 2.39074 13.618 2.88323 13.618 3.49074L13.618 9.87544C13.618 10.483 13.1255 10.9754 12.518 10.9754Z" fill="black"/>
</svg>
