<svg xmlns="http://www.w3.org/2000/svg" width="16" height="16" fill="none" viewBox="0 0 16 16"><path fill="#000" fill-rule="evenodd" d="M2 3c0-1.1046.8954-2 2-2h8c1.1046 0 2 .8954 2 2v10c0 1.1046-.8954 2-2 2H4c-1.1046 0-2-.8954-2-2zm2-.7h8a.7.7 0 0 1 .7.7v10a.7.7 0 0 1-.7.7H4a.7.7 0 0 1-.7-.7V3a.7.7 0 0 1 .7-.7m3.3167 4.3833v-1.35a.6833.6833 0 1 1 1.3666 0 .65.65 0 0 0 1.3 0C9.9833 4.238 9.0953 3.35 8 3.35s-1.9833.888-1.9833 1.9833v1.3804c-.7598.1477-1.3334.8167-1.3334 1.6196v2c0 .9113.7388 1.65 1.65 1.65h3.3334c.9112 0 1.65-.7387 1.65-1.65v-2c0-.9112-.7388-1.65-1.65-1.65zm-.9834 1.3a.35.35 0 0 0-.35.35v2a.35.35 0 0 0 .35.35h3.3334a.35.35 0 0 0 .35-.35v-2a.35.35 0 0 0-.35-.35zm1.65 1.9834a.65.65 0 1 0 0-1.3.65.65 0 0 0 0 1.3"/></svg>