<svg width="16" height="16" viewBox="0 0 16 16" fill="none" xmlns="http://www.w3.org/2000/svg">
<path d="M10.1038 14.9443C10.4627 14.9443 10.7538 14.6533 10.7538 14.2943C10.7538 13.9354 10.4627 13.6443 10.1038 13.6443L5.21493 13.6443C3.64092 13.6443 2.36493 12.3683 2.36493 10.7943L2.36493 5.79452C2.36493 5.43554 2.07392 5.14452 1.71493 5.14452C1.35595 5.14452 1.06493 5.43554 1.06493 5.79452L1.06493 10.7943C1.06493 13.0863 2.92295 14.9443 5.21493 14.9443L10.1038 14.9443Z" fill="black"/>
<path fill-rule="evenodd" clip-rule="evenodd" d="M14.9353 9.84053C14.9353 11.166 13.8608 12.2405 12.5353 12.2405L6.1506 12.2405C4.82512 12.2405 3.7506 11.166 3.7506 9.84053L3.7506 3.45583C3.7506 2.13035 4.82512 1.05583 6.1506 1.05583L12.5353 1.05583C13.8608 1.05583 14.9353 2.13034 14.9353 3.45583L14.9353 9.84053Z" fill="black"/>
</svg>
