<svg xmlns="http://www.w3.org/2000/svg" width="16" height="16" fill="none" viewBox="0 0 16 16"><path fill="url(#a)" d="M7.9998.0003C3.8578.0003.5 3.3581.5 7.5002c0 4.0221 3.1665 7.3048 7.1426 7.491A7.6 7.6 0 0 0 8 15c1.9202 0 3.6713-.722 4.9982-1.9086-.8791.583-1.9069.9185-3.0054.9185-1.786 0-3.3855-.886-4.4613-2.2833-.8293-.9789-1.3664-2.426-1.403-4.05v-.3531c.0365-1.624.5736-3.0713 1.4028-4.05C6.6072 1.8764 8.2066.9904 9.9925.9904c1.0987 0 2.1267.3355 3.0059.9189C11.6781.728 9.9375.0075 8.028.0004 8.0185.0004 8.0092 0 7.9997 0z"/><path fill="url(#b)" d="M5.5313 3.274c.6882-.8124 1.577-1.3024 2.5481-1.3024 2.1835 0 3.9531 2.4754 3.9531 5.529s-1.7698 5.5289-3.953 5.5289c-.9712 0-1.86-.4897-2.548-1.3023 1.0757 1.3973 2.6751 2.2833 4.4613 2.2833 1.0985 0 2.1263-.3355 3.0054-.9185 1.5351-1.3733 2.5017-3.3694 2.5017-5.5914 0-2.2217-.9664-4.2177-2.5012-5.5909-.8793-.5833-1.9073-.9188-3.0059-.9188-1.786 0-3.3858.886-4.4616 2.2832"/><defs><linearGradient id="a" x1="7" x2="7" y1="0" y2="15" gradientUnits="userSpaceOnUse"><stop stop-color="#ff1b2d"/><stop offset="0" stop-color="#ff1b2d"/><stop offset="1" stop-color="#ff1b2d"/><stop offset="1" stop-color="#a70014"/></linearGradient><linearGradient id="b" x1="11" x2="11" y1="1" y2="14" gradientUnits="userSpaceOnUse"><stop stop-color="#9c0000"/><stop offset="1" stop-color="#ff4b4b"/><stop offset="1" stop-color="#ff4b4b"/></linearGradient></defs></svg>