<svg xmlns="http://www.w3.org/2000/svg" width="16" height="16" fill="none" viewBox="0 0 16 16"><path fill="#000" fill-rule="evenodd" d="M2.6834 2a.65.65 0 0 1 .65-.65h9.3333a.65.65 0 0 1 .65.65v12a.65.65 0 0 1-.65.65H9.3333a.65.65 0 0 1-.65-.65v-2.0167H7.3168V14a.65.65 0 0 1-.65.65H3.3334a.65.65 0 0 1-.65-.65zm1.3.65v10.7h2.0333v-2.0167a.65.65 0 0 1 .65-.65h2.6666a.65.65 0 0 1 .65.65V13.35h2.0334V2.65zM6.65 4.6666a.65.65 0 1 0-1.3 0v.6667a.65.65 0 0 0 1.3 0zm2 0a.65.65 0 1 0-1.3 0v.6667a.65.65 0 0 0 1.3 0zm1.35-.65a.65.65 0 0 1 .65.65v.6667a.65.65 0 1 1-1.3 0v-.6667a.65.65 0 0 1 .65-.65M6 6.6833a.65.65 0 0 1 .65.65V8a.65.65 0 1 1-1.3 0v-.6667a.65.65 0 0 1 .65-.65m2 0a.65.65 0 0 1 .65.65V8a.65.65 0 1 1-1.3 0v-.6667a.65.65 0 0 1 .65-.65m2.65.65a.65.65 0 1 0-1.3 0V8a.65.65 0 0 0 1.3 0z"/></svg>