<svg xmlns="http://www.w3.org/2000/svg" width="16" height="16" fill="none" viewBox="0 0 16 16"><path fill="#000" fill-rule="evenodd" d="M3 1c-.5523 0-1 .4477-1 1v12c0 .5523.4477 1 1 1h2.5c.5523 0 1-.4477 1-1v-2h3v2c0 .5523.4477 1 1 1H13c.5523 0 1-.4477 1-1V2c0-.5523-.4477-1-1-1zm3.3059 3.6784a.65.65 0 0 0-1.3 0v.6666a.65.65 0 0 0 1.3 0zm1.6937-.65a.65.65 0 0 1 .65.65v.6666a.65.65 0 0 1-1.3 0v-.6666a.65.65 0 0 1 .65-.65m2.9938.65a.65.65 0 0 0-1.3 0v.6666a.65.65 0 0 0 1.3 0zM5.6559 6.695a.65.65 0 0 1 .65.65v.6667a.65.65 0 0 1-1.3 0V7.345a.65.65 0 0 1 .65-.65m4.6875 0a.65.65 0 0 1 .65.65v.6667a.65.65 0 0 1-1.3 0V7.345a.65.65 0 0 1 .65-.65m-2.3438 0a.65.65 0 0 1 .65.65v.6667a.65.65 0 0 1-1.3 0V7.345a.65.65 0 0 1 .65-.65"/></svg>