<svg width="16" height="16" viewBox="0 0 16 16" fill="none" xmlns="http://www.w3.org/2000/svg">
<path d="M8.00028 4.01676C8.35927 4.01676 8.65028 4.30778 8.65028 4.66676V5.33343C8.65028 5.69241 8.35927 5.98343 8.00028 5.98343C7.6413 5.98343 7.35028 5.69241 7.35028 5.33343V4.66676C7.35028 4.30778 7.6413 4.01676 8.00028 4.01676Z" fill="black"/>
<path d="M10.6503 4.66676C10.6503 4.30778 10.3593 4.01676 10.0003 4.01676C9.6413 4.01676 9.35028 4.30778 9.35028 4.66676V5.33343C9.35028 5.69241 9.6413 5.98343 10.0003 5.98343C10.3593 5.98343 10.6503 5.69241 10.6503 5.33343V4.66676Z" fill="black"/>
<path d="M6.00022 4.01676C6.3592 4.01676 6.65022 4.30778 6.65022 4.66676V5.33343C6.65022 5.69241 6.3592 5.98343 6.00022 5.98343C5.64123 5.98343 5.35022 5.69241 5.35022 5.33343V4.66676C5.35022 4.30778 5.64123 4.01676 6.00022 4.01676Z" fill="black"/>
<path d="M6.65022 7.33343C6.65022 6.97445 6.3592 6.68343 6.00022 6.68343C5.64123 6.68343 5.35022 6.97445 5.35022 7.33343V8.0001C5.35022 8.35909 5.64123 8.6501 6.00022 8.6501C6.3592 8.6501 6.65022 8.35909 6.65022 8.0001V7.33343Z" fill="black"/>
<path d="M10.0003 6.68343C10.3593 6.68343 10.6503 6.97445 10.6503 7.33343V8.0001C10.6503 8.35909 10.3593 8.6501 10.0003 8.6501C9.6413 8.6501 9.35028 8.35909 9.35028 8.0001V7.33343C9.35028 6.97445 9.6413 6.68343 10.0003 6.68343Z" fill="black"/>
<path d="M8.65028 7.33343C8.65028 6.97445 8.35927 6.68343 8.00028 6.68343C7.6413 6.68343 7.35028 6.97445 7.35028 7.33343V8.0001C7.35028 8.35909 7.6413 8.6501 8.00028 8.6501C8.35927 8.6501 8.65028 8.35909 8.65028 8.0001V7.33343Z" fill="black"/>
<path fill-rule="evenodd" clip-rule="evenodd" d="M2.68359 2.0001C2.68359 1.64111 2.97461 1.3501 3.33359 1.3501H12.6669C13.0259 1.3501 13.3169 1.64111 13.3169 2.0001V14.0001C13.3169 14.3591 13.0259 14.6501 12.6669 14.6501H9.33359C8.97461 14.6501 8.68359 14.3591 8.68359 14.0001V11.9834H7.31693V14.0001C7.31693 14.3591 7.02591 14.6501 6.66693 14.6501H3.33359C2.97461 14.6501 2.68359 14.3591 2.68359 14.0001V2.0001ZM3.98359 2.6501V13.3501H6.01693V11.3334C6.01693 10.9744 6.30794 10.6834 6.66693 10.6834H9.33359C9.69258 10.6834 9.98359 10.9744 9.98359 11.3334V13.3501H12.0169V2.6501H3.98359Z" fill="black"/>
</svg>
