<svg xmlns="http://www.w3.org/2000/svg" width="16" height="16" fill="none" viewBox="0 0 16 16"><path fill="#000" fill-rule="evenodd" d="M14.6501 4.8133c0-1.177-.9887-2.1122-2.1637-2.0469l-9.2.5111C2.2 3.338 1.35 4.2364 1.35 5.3244v5.3512c0 1.088.85 1.9865 1.9363 2.0468l9.2.5112c1.175.0652 2.1637-.87 2.1637-2.0469zm-2.0916-.7489a.75.75 0 0 1 .7916.7489v2.5366H7.9834V4.3186zm-5.875.3264-3.325.1847a.75.75 0 0 0-.7084.7489v2.0255h4.0333zM2.65 8.6499h4.0333v2.9593l-3.3249-.1848a.75.75 0 0 1-.7084-.7488zm5.3333 3.0315 4.5751.2542a.75.75 0 0 0 .7916-.7489V8.6499H7.9834z" clip-rule="evenodd"/></svg>