<svg width="16" height="16" viewBox="0 0 16 16" fill="none" xmlns="http://www.w3.org/2000/svg">
<path d="M6.18198 6.5488C6.18198 7.05382 5.77487 7.46322 5.27268 7.46322C4.77049 7.46322 4.36338 7.05382 4.36338 6.5488C4.36338 6.04378 4.77049 5.63438 5.27268 5.63438C5.77487 5.63438 6.18198 6.04378 6.18198 6.5488Z" fill="black"/>
<path d="M8.00059 7.46322C8.50278 7.46322 8.90989 7.05382 8.90989 6.5488C8.90989 6.04378 8.50278 5.63438 8.00059 5.63438C7.49839 5.63438 7.09128 6.04378 7.09128 6.5488C7.09128 7.05382 7.49839 7.46322 8.00059 7.46322Z" fill="black"/>
<path d="M10.7285 7.46322C11.2307 7.46322 11.6378 7.05382 11.6378 6.5488C11.6378 6.04378 11.2307 5.63438 10.7285 5.63438C10.2263 5.63438 9.81919 6.04378 9.81919 6.5488C9.81919 7.05382 10.2263 7.46322 10.7285 7.46322Z" fill="black"/>
<path fill-rule="evenodd" clip-rule="evenodd" d="M1.0415 4.36675C1.0415 3.01365 2.13841 1.91675 3.4915 1.91675H12.5085C13.8616 1.91675 14.9585 3.01365 14.9585 4.36675V8.73054C14.9585 10.0836 13.8616 11.1805 12.5085 11.1805H3.4915C2.13841 11.1805 1.0415 10.0836 1.0415 8.73054V4.36675ZM3.4915 3.21675C2.85638 3.21675 2.3415 3.73162 2.3415 4.36675V8.73054C2.3415 9.36567 2.85638 9.88054 3.4915 9.88054H12.5085C13.1436 9.88054 13.6585 9.36567 13.6585 8.73054V4.36675C13.6585 3.73162 13.1436 3.21675 12.5085 3.21675H3.4915Z" fill="black"/>
<path d="M4.04209 12.7832C3.6831 12.7832 3.39209 13.0742 3.39209 13.4332C3.39209 13.7922 3.6831 14.0832 4.04209 14.0832H11.9738C12.3328 14.0832 12.6238 13.7922 12.6238 13.4332C12.6238 13.0742 12.3328 12.7832 11.9738 12.7832H4.04209Z" fill="black"/>
</svg>
