<svg xmlns="http://www.w3.org/2000/svg" width="16" height="16" fill="none" viewBox="0 0 16 16"><path fill="#000" fill-rule="evenodd" d="M11.5098 2.998h-7.004c-.8284 0-1.5.6716-1.5 1.5v7.0039c0 .8285.6716 1.5 1.5 1.5h7.004c.8284 0 1.5-.6715 1.5-1.5v-1.256c.227.0755.4698.1164.7222.1164.2731 0 .535-.0479.7778-.1356v1.2752c0 1.6569-1.3432 3-3 3h-7.004c-1.6568 0-3-1.3431-3-3V4.4981c0-1.657 1.3432-3 3-3h7.004c1.6568 0 3 1.343 3 3v1.4244a2.28 2.28 0 0 0-.7778-.1356c-.2524 0-.4952.0408-.7222.1163V4.4981c0-.8285-.6716-1.5-1.5-1.5M7.1503 9.0624c.5455 0 .9877-.4422.9877-.9877s-.4422-.9877-.9877-.9877-.9877.4422-.9877.9877.4422.9877.9877.9877m4.2787-.9877c0 .5455-.4422.9877-.9877.9877s-.9877-.4422-.9877-.9877.4422-.9877.9877-.9877.9877.4422.9877.9877m3.2905 0c0 .5455-.4422.9877-.9877.9877s-.9877-.4422-.9877-.9877.4422-.9877.9877-.9877.9877.4422.9877.9877"/></svg>