<svg width="16" height="16" viewBox="0 0 16 16" fill="none" xmlns="http://www.w3.org/2000/svg">
<path d="M4.50586 2.99805H11.5098C12.3382 2.99805 13.0098 3.66962 13.0098 4.49805V5.90322C13.2368 5.82774 13.4796 5.78687 13.732 5.78687C14.0051 5.78687 14.267 5.83471 14.5098 5.92246V4.49805C14.5098 2.84119 13.1666 1.49805 11.5098 1.49805H4.50586C2.84901 1.49805 1.50586 2.84119 1.50586 4.49805V11.502C1.50586 13.1588 2.849 14.502 4.50586 14.502H11.5098C13.1666 14.502 14.5098 13.1588 14.5098 11.502V10.2267C14.267 10.3144 14.0051 10.3623 13.732 10.3623C13.4796 10.3623 13.2368 10.3214 13.0098 10.2459V11.502C13.0098 12.3304 12.3382 13.002 11.5098 13.002H4.50586C3.67743 13.002 3.00586 12.3304 3.00586 11.502V4.49805C3.00586 3.66962 3.67743 2.99805 4.50586 2.99805Z" fill="black"/>
<path d="M10.4413 9.06231C10.9868 9.06231 11.429 8.6201 11.429 8.07461C11.429 7.52912 10.9868 7.08691 10.4413 7.08691C9.89582 7.08691 9.45361 7.52912 9.45361 8.07461C9.45361 8.6201 9.89582 9.06231 10.4413 9.06231Z" fill="black"/>
<path d="M13.7318 9.06231C14.2773 9.06231 14.7195 8.6201 14.7195 8.07461C14.7195 7.52912 14.2773 7.08691 13.7318 7.08691C13.1863 7.08691 12.7441 7.52912 12.7441 8.07461C12.7441 8.6201 13.1863 9.06231 13.7318 9.06231Z" fill="black"/>
<path d="M7.15029 9.06231C7.69579 9.06231 8.13799 8.6201 8.13799 8.07461C8.13799 7.52912 7.69579 7.08691 7.15029 7.08691C6.6048 7.08691 6.1626 7.52912 6.1626 8.07461C6.1626 8.6201 6.6048 9.06231 7.15029 9.06231Z" fill="black"/>
</svg>
