<svg xmlns="http://www.w3.org/2000/svg" width="16" height="16" fill="none" viewBox="0 0 16 16"><path fill="#000" fill-rule="evenodd" d="M3.4915 1.9168c-1.3531 0-2.45 1.0969-2.45 2.45v4.3637c0 1.3531 1.0969 2.45 2.45 2.45h9.017c1.3531 0 2.45-1.0969 2.45-2.45V4.3668c0-1.3531-1.0969-2.45-2.45-2.45zm-1.15 2.45c0-.6352.5149-1.15 1.15-1.15h9.017c.6351 0 1.15.5148 1.15 1.15v4.3637c0 .6352-.5149 1.15-1.15 1.15h-9.017c-.6351 0-1.15-.5148-1.15-1.15zm2.9312 3.0964c.5022 0 .9093-.4094.9093-.9144s-.4071-.9144-.9093-.9144-.9093.4094-.9093.9144.407.9144.9093.9144m3.6372-.9144c0 .505-.4071.9144-.9093.9144s-.9093-.4094-.9093-.9144.407-.9144.9093-.9144.9093.4094.9093.9144m2.7279 0c0 .505-.4071.9144-.9093.9144s-.9093-.4094-.9093-.9144.4071-.9144.9093-.9144.9093.4094.9093.9144m-8.2457 6.8844a.65.65 0 0 1 .65-.65h7.9317a.65.65 0 1 1 0 1.3H4.0421a.65.65 0 0 1-.65-.65"/></svg>