<svg width="16" height="16" viewBox="0 0 16 16" fill="none" xmlns="http://www.w3.org/2000/svg">
<path d="M4.95186 2.39497C4.53764 2.39497 4.20186 2.73076 4.20186 3.14497V12.957C4.20186 13.3712 4.53764 13.707 4.95186 13.707H8.0501V14.357C8.0501 14.5849 8.0892 14.8037 8.16107 15.007H4.95186C3.81967 15.007 2.90186 14.0892 2.90186 12.957V3.14497C2.90186 2.01279 3.81967 1.09497 4.95186 1.09497H11.3636C12.4958 1.09497 13.4136 2.01279 13.4136 3.14497V9.52105L12.1136 8.22105V3.14497C12.1136 2.73076 11.7778 2.39497 11.3636 2.39497H4.95186Z" fill="black"/>
<path d="M10.0001 15.007C10.3591 15.007 10.6501 14.716 10.6501 14.357V10.4444L11.7 11.4943C11.9538 11.7481 12.3654 11.7481 12.6192 11.4943C12.873 11.2405 12.873 10.8289 12.6192 10.5751L10.4635 8.41933C10.449 8.40465 10.4339 8.39065 10.4181 8.37739C10.3746 8.34076 10.3274 8.31074 10.2779 8.28733C10.1936 8.24746 10.0995 8.22516 10.0001 8.22516C9.90352 8.22516 9.81188 8.24621 9.72949 8.28399C9.67265 8.30999 9.61879 8.34463 9.56988 8.38789C9.55879 8.39769 9.54804 8.40786 9.53764 8.41838L7.38096 10.5751C7.12712 10.8289 7.12712 11.2405 7.38096 11.4943C7.6348 11.7481 8.04636 11.7481 8.3002 11.4943L9.35009 10.4444L9.35009 14.357C9.35009 14.716 9.6411 15.007 10.0001 15.007Z" fill="black"/>
</svg>
