<svg width="16" height="16" viewBox="0 0 16 16" fill="none" xmlns="http://www.w3.org/2000/svg">
<path d="M4.20186 3.14497C4.20186 2.73076 4.53764 2.39497 4.95186 2.39497H11.3636C11.7778 2.39497 12.1136 2.73076 12.1136 3.14497V10.2343C12.5486 10.2243 12.9864 10.3585 13.3495 10.6369C13.3712 10.6535 13.3926 10.6706 13.4136 10.6882V3.14497C13.4136 2.01279 12.4958 1.09497 11.3636 1.09497H4.95186C3.81967 1.09497 2.90186 2.01279 2.90186 3.14497V12.957C2.90186 14.0892 3.81967 15.007 4.95186 15.007H7.88925L6.58925 13.707H4.95186C4.53764 13.707 4.20186 13.3712 4.20186 12.957V3.14497Z" fill="black"/>
<path d="M10.0001 8.21844C10.359 8.21844 10.6501 8.50946 10.6501 8.86844V12.781L11.6999 11.7311C11.9538 11.4773 12.3653 11.4773 12.6192 11.7311C12.873 11.985 12.873 12.3965 12.6192 12.6504L10.4597 14.8099C10.2058 15.0637 9.79427 15.0637 9.54043 14.8099L7.38093 12.6504C7.12709 12.3965 7.12709 11.985 7.38093 11.7311C7.63477 11.4773 8.04633 11.4773 8.30017 11.7311L9.35006 12.781L9.35006 8.86844C9.35006 8.50946 9.64108 8.21844 10.0001 8.21844Z" fill="black"/>
</svg>
