<svg width="16" height="16" viewBox="0 0 16 16" fill="none" xmlns="http://www.w3.org/2000/svg">
<path d="M4.95186 2.90205C4.53764 2.90205 4.20186 3.23784 4.20186 3.65205V13.4641C4.20186 13.8783 4.53764 14.2141 4.95186 14.2141H8.37371C8.25532 14.642 8.28575 15.1024 8.46472 15.5141H4.95186C3.81967 15.5141 2.90186 14.5963 2.90186 13.4641V3.65205C2.90186 2.51987 3.81967 1.60205 4.95186 1.60205H11.3636C12.4958 1.60205 13.4136 2.51987 13.4136 3.65205V10.82L12.1136 9.51998V3.65205C12.1136 3.23784 11.7778 2.90205 11.3636 2.90205H4.95186Z" fill="black"/>
<path d="M9.86063 15.2544C10.1154 15.4477 10.4801 15.4282 10.7126 15.1957L12.8393 13.069C12.8421 13.0662 12.8449 13.0633 12.8477 13.0605C12.8509 13.0573 12.854 13.0541 12.857 13.0508C12.9835 12.9323 13.0625 12.7637 13.0625 12.5766C13.0625 12.3896 12.9836 12.2211 12.8572 12.1026C12.8514 12.0964 12.8454 12.0902 12.8393 12.0841L10.7126 9.95746C10.4789 9.72375 10.1115 9.70522 9.85658 9.90187C9.81424 9.93453 9.77453 9.97387 9.74143 10.016C9.54091 10.2711 9.55823 10.6416 9.79338 10.8767L10.8433 11.9266H6.9307C6.57172 11.9266 6.2807 12.2176 6.2807 12.5766C6.2807 12.9356 6.57172 13.2266 6.9307 13.2266H10.8432L9.79338 14.2765C9.56154 14.5083 9.54144 14.8717 9.7331 15.1264C9.76895 15.174 9.81312 15.2183 9.86063 15.2544Z" fill="black"/>
</svg>
