<svg width="16" height="16" viewBox="0 0 16 16" fill="none" xmlns="http://www.w3.org/2000/svg">
<path d="M4.20186 3.65205C4.20186 3.23784 4.53764 2.90205 4.95186 2.90205H11.3636C11.7778 2.90205 12.1136 3.23784 12.1136 3.65205V10.7414C12.5486 10.7314 12.9864 10.8656 13.3495 11.144C13.3712 11.1606 13.3926 11.1777 13.4136 11.1953V3.65205C13.4136 2.51987 12.4958 1.60205 11.3636 1.60205H4.95186C3.81967 1.60205 2.90186 2.51987 2.90186 3.65205V13.4641C2.90186 14.5963 3.81967 15.5141 4.95186 15.5141H7.88925L6.58925 14.2141H4.95186C4.53764 14.2141 4.20186 13.8783 4.20186 13.4641V3.65205Z" fill="black"/>
<path d="M10.0001 8.72552C10.359 8.72552 10.6501 9.01654 10.6501 9.37552V13.2881L11.6999 12.2382C11.9538 11.9844 12.3653 11.9844 12.6192 12.2382C12.873 12.492 12.873 12.9036 12.6192 13.1574L10.4597 15.3169C10.2058 15.5708 9.79427 15.5708 9.54043 15.3169L7.38093 13.1574C7.12709 12.9036 7.12709 12.492 7.38093 12.2382C7.63477 11.9844 8.04633 11.9844 8.30017 12.2382L9.35006 13.2881L9.35006 9.37552C9.35006 9.01654 9.64108 8.72552 10.0001 8.72552Z" fill="black"/>
</svg>
