<svg width="16" height="16" viewBox="0 0 16 16" fill="none" xmlns="http://www.w3.org/2000/svg">
<path d="M4.95186 2.90205C4.53764 2.90205 4.20186 3.23784 4.20186 3.65205V13.4641C4.20186 13.8783 4.53764 14.2141 4.95186 14.2141H6.45761L7.75761 15.5141H4.95186C3.81967 15.5141 2.90186 14.5963 2.90186 13.4641V3.65205C2.90186 2.51987 3.81967 1.60205 4.95186 1.60205H11.3636C12.4958 1.60205 13.4136 2.51987 13.4136 3.65205V10.6568C13.3019 10.6369 13.1869 10.6265 13.0695 10.6265H12.1136V3.65205C12.1136 3.23784 11.7778 2.90205 11.3636 2.90205H4.95186Z" fill="black"/>
<path d="M10.2118 15.2007C9.95521 15.4572 9.53921 15.4572 9.28263 15.2007L7.12313 13.0412C6.86655 12.7846 6.86655 12.3686 7.12313 12.112L9.28263 9.95251C9.53921 9.69593 9.95521 9.69593 10.2118 9.95251C10.4684 10.2091 10.4684 10.6251 10.2118 10.8817L9.16689 11.9266H13.0695C13.4285 11.9266 13.7195 12.2176 13.7195 12.5766C13.7195 12.9355 13.4285 13.2266 13.0695 13.2266H9.16685L10.2118 14.2715C10.4684 14.5281 10.4684 14.9441 10.2118 15.2007Z" fill="black"/>
</svg>
