<svg xmlns="http://www.w3.org/2000/svg" width="16" height="16" fill="none" viewBox="0 0 16 16"><path fill="#000" fill-rule="evenodd" d="M4.2019 3.1449a.75.75 0 0 1 .75-.75h6.4117a.75.75 0 0 1 .75.75v5.8679l1.3 1.3v-7.168c0-1.1321-.9178-2.05-2.05-2.05H4.9519c-1.1322 0-2.05.9179-2.05 2.05v9.8121c0 1.1322.9178 2.05 2.05 2.05h3.5128a1.957 1.957 0 0 1-.091-1.3H4.952a.75.75 0 0 1-.75-.75zm6.5107 11.5436a.6501.6501 0 0 1-.9192-.9193l1.0498-1.0498H6.9307a.65.65 0 1 1 0-1.3h3.9126l-1.05-1.0499a.6501.6501 0 0 1 .9193-.9192l2.1267 2.1266q.0091.0091.018.0184a.648.648 0 0 1 .2052.4741c0 .187-.079.3556-.2055.4742l-.0093.0097-.0084.0085z"/></svg>