<svg xmlns="http://www.w3.org/2000/svg" width="16" height="16" fill="none" viewBox="0 0 16 16"><path fill="#000" fill-rule="evenodd" d="M4.2019 3.1449a.75.75 0 0 1 .75-.75h6.4117a.75.75 0 0 1 .75.75v6.9744h.9559c.1174 0 .2324.0104.3441.0303V3.1449c0-1.1322-.9178-2.05-2.05-2.05H4.9519c-1.1322 0-2.05.9178-2.05 2.05v9.812c0 1.1322.9178 2.05 2.05 2.05h2.8057l-1.3-1.3H4.952a.75.75 0 0 1-.75-.75zm5.0807 11.5486a.657.657 0 1 0 .9292-.9292l-1.045-1.0449h3.9027a.65.65 0 0 0 0-1.3H9.1669l1.0449-1.0449a.657.657 0 1 0-.9292-.9292l-2.1595 2.1595a.657.657 0 0 0 0 .9292z"/></svg>