<svg xmlns="http://www.w3.org/2000/svg" width="16" height="16" fill="none" viewBox="0 0 16 16"><path fill="#000" fill-rule="evenodd" d="M4.9519 2.3949a.75.75 0 0 0-.75.75v9.812a.75.75 0 0 0 .75.75h1.6374l1.3 1.3H4.9519c-1.1322 0-2.05-.9178-2.05-2.05v-9.812c0-1.1322.9178-2.05 2.05-2.05h6.4117c1.1322 0 2.05.9178 2.05 2.05v7.5432a1.954 1.954 0 0 0-1.3-.4539V3.1449a.75.75 0 0 0-.75-.75zM10.65 8.8683a.65.65 0 1 0-1.3 0v3.9126L8.3 11.731a.65.65 0 0 0-.9192.9192l2.1595 2.1595a.65.65 0 0 0 .9193 0l2.1595-2.1595a.65.65 0 0 0-.9193-.9192L10.65 12.7809z"/></svg>