<svg width="16" height="16" viewBox="0 0 16 16" fill="none" xmlns="http://www.w3.org/2000/svg">
<path d="M4.95186 2.39497C4.53764 2.39497 4.20186 2.73076 4.20186 3.14497V12.957C4.20186 13.3712 4.53764 13.707 4.95186 13.707H6.45761L7.75761 15.007H4.95186C3.81967 15.007 2.90186 14.0892 2.90186 12.957V3.14497C2.90186 2.01279 3.81967 1.09497 4.95186 1.09497H11.3636C12.4958 1.09497 13.4136 2.01279 13.4136 3.14497V10.1497C13.3019 10.1298 13.1869 10.1195 13.0695 10.1195H12.1136V3.14497C12.1136 2.73076 11.7778 2.39497 11.3636 2.39497H4.95186Z" fill="black"/>
<path d="M10.2118 14.6936C9.95521 14.9502 9.53921 14.9502 9.28263 14.6936L7.12313 12.5341C6.86655 12.2775 6.86655 11.8615 7.12313 11.6049L9.28263 9.44543C9.53921 9.18885 9.95521 9.18885 10.2118 9.44543C10.4684 9.70201 10.4684 10.118 10.2118 10.3746L9.16689 11.4195H13.0695C13.4285 11.4195 13.7195 11.7105 13.7195 12.0695C13.7195 12.4285 13.4285 12.7195 13.0695 12.7195H9.16685L10.2118 13.7644C10.4684 14.021 10.4684 14.437 10.2118 14.6936Z" fill="black"/>
</svg>
