<svg xmlns="http://www.w3.org/2000/svg" width="16" height="16" fill="none" viewBox="0 0 16 16"><path fill="#000" fill-rule="evenodd" d="M5.319 2.6834c-1.3187 0-2.3878 1.069-2.3878 2.3878s1.0691 2.3879 2.3879 2.3879c1.3187 0 2.3878-1.0691 2.3878-2.3879S6.638 2.6833 5.3191 2.6833M4.2313 5.0711c0-.6008.487-1.0878 1.0879-1.0878.6008 0 1.0878.487 1.0878 1.0878S5.92 6.159 5.3191 6.159s-1.0879-.487-1.0879-1.0878m7.1023-.3879c-1.0954 0-1.9833.888-1.9833 1.9834S10.238 8.65 11.3335 8.65s1.9833-.888 1.9833-1.9833-.8879-1.9833-1.9833-1.9833m-.6833 1.9834a.6833.6833 0 1 1 1.3666 0 .6833.6833 0 0 1-1.3666 0m-2.5834 6.65c.1549 0 .3032-.0282.4401-.0797.4732-.1781.8099-.6349.8099-1.1703v-1.4c0-.3809-.0804-.743-.225-1.0704-.4113-.9304-1.3424-1.5796-2.425-1.5796H4c-1.4636 0-2.65 1.1864-2.65 2.65v1.4c0 .6903.5596 1.25 1.25 1.25zM4 9.3167c-.7456 0-1.35.6044-1.35 1.35v1.35h5.3667v-1.35c0-.7456-.6044-1.35-1.35-1.35zm9.8 4h-3.5102a2.54 2.54 0 0 0 .3269-1.25v-.05H13.35V11.4a.75.75 0 0 0-.75-.75h-1.9834a3.94 3.94 0 0 0-.2247-1.3H12.6c1.1322 0 2.05.9178 2.05 2.05v1.0667a.85.85 0 0 1-.85.85"/></svg>