<svg width="16" height="16" viewBox="0 0 16 16" fill="none" xmlns="http://www.w3.org/2000/svg">
<path fill-rule="evenodd" clip-rule="evenodd" d="M2.33472 1.9355C2.08088 1.68166 1.66932 1.68166 1.41548 1.9355C1.16164 2.18934 1.16164 2.6009 1.41548 2.85474L3.363 4.80226C3.21887 4.91273 3.08125 5.02526 2.95033 5.13865C2.35688 5.65266 1.8882 6.19512 1.56296 6.66869C1.40066 6.90502 1.26818 7.13276 1.17358 7.33891C1.08876 7.52375 1 7.76326 1 7.9999C1 8.2338 1.08608 8.47156 1.16972 8.65701C1.26266 8.86312 1.39309 9.09099 1.55341 9.32767C1.87464 9.80187 2.33879 10.3451 2.92969 10.8599C4.10981 11.888 5.84302 12.8417 8 12.8417C9.05273 12.8417 10.0055 12.6237 10.8429 12.2822L12.89 14.3293C13.1439 14.5831 13.5554 14.5831 13.8093 14.3293C14.0631 14.0755 14.0631 13.6639 13.8093 13.4101L2.33472 1.9355ZM9.82689 11.2661L9.05376 10.493C8.72947 10.6286 8.37349 10.7035 8.00001 10.7035C6.4902 10.7035 5.26626 9.47956 5.26626 7.96976C5.26626 7.59628 5.34115 7.24029 5.47674 6.916L4.29154 5.7308C4.11903 5.85694 3.95552 5.98785 3.80145 6.1213C3.29044 6.56391 2.89618 7.02375 2.63458 7.40465C2.50347 7.59556 2.41157 7.75809 2.35513 7.88108C2.32853 7.93903 2.31441 7.97831 2.30703 8.00106C2.31431 8.02406 2.3283 8.06385 2.35479 8.12259C2.41027 8.24562 2.50063 8.40802 2.62971 8.59858C2.8873 8.97885 3.27648 9.43789 3.78364 9.87972C4.79963 10.7649 6.24141 11.5417 8 11.5417C8.65539 11.5417 9.2662 11.4392 9.82689 11.2661ZM7.9638 9.40306C7.20073 9.38414 6.58562 8.76904 6.56671 8.00597L7.9638 9.40306Z" fill="black"/>
<path d="M7.47108 5.28714L10.6826 8.49868C10.7162 8.32755 10.7338 8.15071 10.7338 7.96976C10.7338 6.45995 9.50982 5.23601 8.00001 5.23601C7.81905 5.23601 7.64221 5.25359 7.47108 5.28714Z" fill="black"/>
<path d="M12.2213 9.93315C12.2026 9.94909 12.1838 9.965 12.1648 9.98087L13.0872 10.9032C13.6697 10.4025 14.1294 9.86873 14.4494 9.38839C14.6112 9.14549 14.7428 8.90794 14.8362 8.68764C14.9242 8.48009 15 8.23773 15 7.9999C15 7.75956 14.9219 7.51562 14.8325 7.3084C14.7374 7.08799 14.6037 6.85053 14.4399 6.60798C14.1119 6.1223 13.6401 5.58205 13.0447 5.07672C11.8551 4.06702 10.1238 3.15806 8 3.15806C7.17687 3.15806 6.41333 3.3003 5.7179 3.53395L6.77359 4.58964C7.16351 4.50524 7.57296 4.45806 8 4.45806C9.74046 4.45806 11.1842 5.20277 12.2035 6.06786C12.7126 6.49992 13.1038 6.95236 13.3626 7.33557C13.4922 7.52746 13.5828 7.6935 13.6388 7.82326C13.6845 7.92925 13.6961 7.98573 13.699 8.00003C13.6963 8.01421 13.6851 8.07216 13.6393 8.18029C13.5842 8.31016 13.4951 8.4761 13.3675 8.66766C13.1126 9.05023 12.7265 9.50187 12.2213 9.93315Z" fill="black"/>
</svg>
