<svg width="16" height="16" viewBox="0 0 16 16" fill="none" xmlns="http://www.w3.org/2000/svg">
<path d="M1.68355 6.2726C1.44465 6.41111 1.36327 6.71705 1.50177 6.95594L1.81519 7.49653L1.19343 7.49765C0.91729 7.49815 0.693838 7.72242 0.694337 7.99856C0.694837 8.2747 0.9191 8.49815 1.19524 8.49765L1.81517 8.49653L1.49957 9.0409C1.36106 9.2798 1.44245 9.58574 1.68134 9.72425C1.92024 9.86275 2.22618 9.78137 2.36468 9.54247L2.68302 8.9934L3.00046 9.54093C3.13896 9.77982 3.44491 9.86121 3.6838 9.7227C3.9227 9.5842 4.00408 9.27826 3.86558 9.03936L3.54904 8.49339L4.18325 8.49224C4.45939 8.49174 4.68284 8.26748 4.68234 7.99134C4.68184 7.7152 4.45758 7.49175 4.18144 7.49225L3.55268 7.49338L3.86337 6.95749C4.00187 6.71859 3.92049 6.41265 3.6816 6.27414C3.4427 6.13564 3.13676 6.21702 2.99825 6.45592L2.68302 6.99964L2.36689 6.45438C2.22839 6.21548 1.92245 6.1341 1.68355 6.2726Z" fill="black"/>
<path d="M12.1248 6.95749C11.9863 6.71859 12.0677 6.41265 12.3066 6.27414C12.5455 6.13564 12.8514 6.21702 12.9899 6.45592L13.3061 7.00118L13.6213 6.45746C13.7598 6.21856 14.0657 6.13718 14.3046 6.27568C14.5435 6.41419 14.6249 6.72013 14.4864 6.95903L14.1757 7.49493L14.8045 7.49379C15.0806 7.49329 15.3049 7.71674 15.3054 7.99288C15.3059 8.26902 15.0824 8.49329 14.8063 8.49379L14.1721 8.49493L14.4886 9.0409C14.6271 9.2798 14.5457 9.58574 14.3069 9.72425C14.068 9.86275 13.762 9.78137 13.6235 9.54247L13.3061 8.99494L12.9877 9.54401C12.8492 9.78291 12.5433 9.86429 12.3044 9.72579C12.0655 9.58728 11.9841 9.28134 12.1226 9.04245L12.4382 8.49807L11.8183 8.49919C11.5421 8.49969 11.3179 8.27624 11.3174 8.0001C11.3169 7.72396 11.5403 7.4997 11.8165 7.4992L12.4382 7.49807L12.1248 6.95749Z" fill="black"/>
<path d="M6.99507 6.27568C6.75618 6.41419 6.67479 6.72013 6.8133 6.95903L7.12671 7.49961L6.50495 7.50074C6.22881 7.50124 6.00536 7.7255 6.00586 8.00164C6.00636 8.27778 6.23062 8.50124 6.50676 8.50074L7.1267 8.49961L6.81109 9.04399C6.67258 9.28288 6.75397 9.58883 6.99286 9.72733C7.23176 9.86583 7.5377 9.78445 7.67621 9.54555L7.99454 8.99648L8.31198 9.54401C8.45049 9.78291 8.75643 9.86429 8.99533 9.72579C9.23422 9.58728 9.31561 9.28134 9.1771 9.04245L8.86057 8.49648L9.49477 8.49533C9.77091 8.49483 9.99437 8.27057 9.99387 7.99442C9.99337 7.71828 9.7691 7.49483 9.49296 7.49533L8.8642 7.49647L9.17489 6.96057C9.3134 6.72167 9.23201 6.41573 8.99312 6.27723C8.75422 6.13872 8.44828 6.22011 8.30978 6.459L7.99454 7.00273L7.67842 6.45746C7.53991 6.21856 7.23397 6.13718 6.99507 6.27568Z" fill="black"/>
</svg>
