<svg xmlns="http://www.w3.org/2000/svg" width="16" height="16" fill="none" viewBox="0 0 16 16"><path fill="#000" fill-rule="evenodd" d="M1.6836 6.2726a.5.5 0 0 0-.1818.6833l.3134.5406-.6218.0012a.5.5 0 1 0 .0018 1l.62-.0012-.3156.5444a.5.5 0 0 0 .865.5016l.3184-.5491.3175.5475a.5.5 0 0 0 .865-.5015l-.3165-.546.6343-.0012a.5.5 0 1 0-.0019-1l-.6287.0012.3107-.536a.5.5 0 0 0-.8651-.5015l-.3153.5437-.3161-.5452a.5.5 0 0 0-.6833-.1818m10.4412.6849a.5.5 0 0 1 .8651-.5016l.3162.5453.3152-.5437a.5.5 0 1 1 .8651.5015l-.3107.536.6288-.0012a.5.5 0 0 1 .0018 1l-.6342.0011.3165.546a.5.5 0 1 1-.8651.5016l-.3174-.5476-.3184.5491a.5.5 0 1 1-.8651-.5016l.3156-.5443-.6199.0011a.5.5 0 0 1-.0018-1l.6217-.0011zm-5.3115.0015a.5.5 0 0 1 .8651-.5015l.3161.5452.3153-.5437a.5.5 0 1 1 .8651.5016l-.3107.5359.6288-.0012a.5.5 0 1 1 .0018 1l-.6342.0012.3165.546a.5.5 0 0 1-.8651.5015l-.3175-.5475-.3183.549a.5.5 0 0 1-.8651-.5015l.3156-.5444-.62.0011a.5.5 0 0 1-.0017-1l.6217-.001z"/></svg>