<svg xmlns="http://www.w3.org/2000/svg" width="16" height="16" fill="none" viewBox="0 0 16 16"><path fill="#000" fill-rule="evenodd" d="M1.4155 1.9355a.65.65 0 0 1 .9192 0l11.4746 11.4746a.65.65 0 0 1-.9193.9192l-2.0471-2.0471c-.8374.3415-1.7902.5595-2.8429.5595-2.157 0-3.8902-.9537-5.0703-1.9818-.591-.5148-1.055-1.058-1.3763-1.5322-.1603-.2367-.2907-.4646-.3837-.6707C1.0861 8.4716 1 8.2338 1 8c0-.2366.0888-.4761.1736-.661.0946-.2061.227-.4339.3894-.6702.3252-.4736.7939-1.016 1.3873-1.53.131-.1134.2686-.226.4127-.3364L1.4155 2.8547a.65.65 0 0 1 0-.9192m10.8058 7.9976-.0565.0478.9224.9223c.5825-.5007 1.0422-1.0345 1.3622-1.5148.1618-.2429.2934-.4805.3868-.7008C14.9242 8.4801 15 8.2377 15 8c0-.2403-.0781-.4843-.1675-.6915-.0951-.2204-.2288-.4579-.3926-.7004-.328-.4857-.7998-1.026-1.3952-1.5313C11.8551 4.067 10.1238 3.1581 8 3.1581c-.8231 0-1.5867.1422-2.2821.3759l1.0557 1.0556A5.8 5.8 0 0 1 8 4.4581c1.7405 0 3.1842.7447 4.2035 1.6098.5091.432.9003.8845 1.1591 1.2677.1296.1919.2202.3579.2762.4877.0457.106.0573.1624.0602.1767-.0027.0142-.0139.0722-.0597.1803-.0551.1299-.1442.2958-.2718.4874-.2549.3825-.641.8342-1.1462 1.2654m-4.7502-4.646 3.2115 3.2116a2.74 2.74 0 0 0 .0512-.529C10.7338 6.46 9.5098 5.236 8 5.236a2.75 2.75 0 0 0-.529.0511m1.5827 5.2059.7731.7732A6.17 6.17 0 0 1 8 11.5417c-1.7586 0-3.2004-.7768-4.2164-1.662-.5071-.4418-.8963-.9008-1.1539-1.2811-.129-.1906-.2194-.353-.275-.476a1.1 1.1 0 0 1-.0477-.1215 1.1 1.1 0 0 1 .0481-.12c.0565-.123.1484-.2855.2795-.4764.2616-.381.6558-.8408 1.1668-1.2834a7.6 7.6 0 0 1 .4901-.3905L5.4767 6.916a2.73 2.73 0 0 0-.2104 1.0538c0 1.5098 1.2239 2.7337 2.7337 2.7337.3735 0 .7295-.0749 1.0538-.2105M6.5667 8.006c.019.763.634 1.3781 1.3971 1.397z"/></svg>