<svg width="16" height="16" viewBox="0 0 16 16" fill="none" xmlns="http://www.w3.org/2000/svg">
<path fill-rule="evenodd" clip-rule="evenodd" d="M7.99998 5.23615C6.49018 5.23615 5.26624 6.46009 5.26624 7.9699C5.26624 9.47971 6.49018 10.7036 7.99998 10.7036C9.50979 10.7036 10.7337 9.47971 10.7337 7.9699C10.7337 6.46009 9.50979 5.23615 7.99998 5.23615ZM6.56624 7.9699C6.56624 7.17806 7.20815 6.53615 7.99998 6.53615C8.79182 6.53615 9.43373 7.17806 9.43373 7.9699C9.43373 8.76174 8.79182 9.40365 7.99998 9.40365C7.20815 9.40365 6.56624 8.76174 6.56624 7.9699Z" fill="black"/>
<path fill-rule="evenodd" clip-rule="evenodd" d="M8 3.1582C5.86729 3.1582 4.13456 4.11309 2.95033 5.13879C2.35688 5.65281 1.8882 6.19526 1.56296 6.66883C1.40066 6.90516 1.26818 7.13291 1.17358 7.33905C1.08876 7.52389 1 7.7634 1 8.00004C1 8.23394 1.08608 8.4717 1.16972 8.65715C1.26266 8.86326 1.39309 9.09114 1.55341 9.32781C1.87464 9.80202 2.33879 10.3453 2.92969 10.8601C4.10981 11.8882 5.84302 12.8419 8 12.8419C10.1481 12.8419 11.8799 11.9341 13.0654 10.922C13.6582 10.4159 14.1254 9.87484 14.4494 9.38853C14.6112 9.14564 14.7428 8.90808 14.8362 8.68778C14.9242 8.48024 15 8.23788 15 8.00004C15 7.7597 14.9219 7.51576 14.8325 7.30854C14.7374 7.08813 14.6037 6.85067 14.4399 6.60812C14.1119 6.12244 13.6401 5.5822 13.0447 5.07686C11.8551 4.06716 10.1238 3.1582 8 3.1582ZM2.35479 8.12273C2.3283 8.06399 2.31431 8.02421 2.30703 8.0012C2.31441 7.97845 2.32853 7.93918 2.35513 7.88123C2.41157 7.75823 2.50347 7.5957 2.63458 7.40479C2.89618 7.02389 3.29044 6.56405 3.80145 6.12144C4.82615 5.2339 6.26842 4.4582 8 4.4582C9.74046 4.4582 11.1842 5.20291 12.2035 6.068C12.7126 6.50006 13.1038 6.9525 13.3626 7.33571C13.4922 7.52761 13.5828 7.69364 13.6388 7.8234C13.6845 7.92939 13.6961 7.98588 13.699 8.00017C13.6963 8.01436 13.6851 8.07231 13.6393 8.18044C13.5842 8.31031 13.4951 8.47625 13.3675 8.6678C13.1126 9.05038 12.7265 9.50202 12.2213 9.93329C11.2107 10.796 9.76749 11.5419 8 11.5419C6.24141 11.5419 4.79963 10.765 3.78363 9.87986C3.27648 9.43803 2.8873 8.97899 2.62971 8.59872C2.50063 8.40816 2.41027 8.24576 2.35479 8.12273Z" fill="black"/>
</svg>
