<svg xmlns="http://www.w3.org/2000/svg" width="16" height="16" fill="none" viewBox="0 0 16 16"><path fill="#000" fill-rule="evenodd" d="M2.9503 5.1388C4.1346 4.113 5.8673 3.1582 8 3.1582c2.1238 0 3.8551.909 5.0447 1.9187.5954.5053 1.0672 1.0455 1.3952 1.5312.1638.2426.2975.48.3926.7004.0894.2073.1675.4512.1675.6915 0 .2379-.0758.4802-.1638.6878-.0934.2203-.225.4578-.3868.7007-.324.4863-.7912 1.0274-1.384 1.5335-1.1855 1.0121-2.9173 1.9199-5.0654 1.9199-2.157 0-3.8902-.9537-5.0703-1.9818-.591-.5148-1.055-1.058-1.3763-1.5323-.1603-.2367-.2907-.4645-.3837-.6707C1.0861 8.4717 1 8.234 1 8.0001c0-.2367.0888-.4762.1736-.661.0946-.2062.227-.434.3894-.6703.3252-.4735.7939-1.016 1.3873-1.53M2.307 8.0012c.0073.023.0213.0628.0478.1215.0555.123.1458.2855.275.476.2575.3803.6467.8393 1.1538 1.2812 1.016.8851 2.4578 1.662 4.2164 1.662 1.7675 0 3.2107-.7459 4.2213-1.6086.5052-.4313.8913-.883 1.1462-1.2655.1276-.1916.2167-.3575.2718-.4874.0458-.1081.057-.166.0597-.1802-.0029-.0143-.0145-.0708-.0602-.1768-.056-.1298-.1466-.2958-.2762-.4877-.2588-.3832-.65-.8356-1.1591-1.2677C11.1842 5.203 9.7405 4.4582 8 4.4582c-1.7316 0-3.1738.7757-4.1986 1.6632-.511.4427-.9052.9025-1.1668 1.2834-.1311.1909-.223.3534-.2795.4764a1.1 1.1 0 0 0-.048.12m2.9592-.0313c0-1.5098 1.224-2.7338 2.7338-2.7338s2.7337 1.224 2.7337 2.7338S9.5098 10.7036 8 10.7036 5.2662 9.4797 5.2662 7.9699M8 6.5361c-.7919 0-1.4338.642-1.4338 1.4338S7.2082 9.4036 8 9.4036 9.4337 8.7617 9.4337 7.97 8.7918 6.5361 8 6.5361"/></svg>