<svg xmlns="http://www.w3.org/2000/svg" width="16" height="16" fill="none" viewBox="0 0 16 16"><path fill="#000" fill-rule="evenodd" d="M5.9136 1.0206a.65.65 0 0 0 0 1.3h4.8888c1.574 0 2.85 1.276 2.85 2.85v4.9998a.65.65 0 1 0 1.3 0V5.1706c0-2.292-1.858-4.15-4.15-4.15zM3.482 3.7244c-1.3254 0-2.4 1.0745-2.4 2.4v6.3847c0 1.3255 1.0746 2.4 2.4 2.4h6.3847c1.3255 0 2.4-1.0745 2.4-2.4V6.1244c0-1.3254-1.0745-2.4-2.4-2.4zm6.3847 1.3H3.482c-.6075 0-1.1.4925-1.1 1.1v6.3847c0 .6075.4925 1.1 1.1 1.1h6.3847c.6076 0 1.1-.4925 1.1-1.1V6.1244c0-.6075-.4924-1.1-1.1-1.1M6.6744 6.6668a.65.65 0 0 1 .65.65v1.35h1.35a.65.65 0 1 1 0 1.3h-1.35v1.35a.65.65 0 1 1-1.3 0v-1.35h-1.35a.65.65 0 0 1 0-1.3h1.35v-1.35a.65.65 0 0 1 .65-.65"/></svg>