<svg xmlns="http://www.w3.org/2000/svg" width="16" height="16" fill="none" viewBox="0 0 16 16"><path fill="#000" d="M5.914 1.021a.65.65 0 0 0 0 1.3h4.889c1.574 0 2.85 1.276 2.85 2.85v5a.65.65 0 0 0 1.3 0v-5c0-2.292-1.858-4.15-4.15-4.15zm.76 5.646a.65.65 0 0 1 .65.65v1.35h1.35a.65.65 0 0 1 0 1.3h-1.35v1.35a.65.65 0 1 1-1.3 0v-1.35h-1.35a.65.65 0 0 1 0-1.3h1.35v-1.35a.65.65 0 0 1 .65-.65"/><path fill="#000" fill-rule="evenodd" d="M1.082 6.1246c0-1.3255 1.0746-2.4 2.4-2.4h6.3847c1.3255 0 2.4 1.0745 2.4 2.4v6.3847c0 1.3254-1.0745 2.4-2.4 2.4H3.482c-1.3254 0-2.4-1.0746-2.4-2.4zm2.4-1.1h6.3847c.6075 0 1.1.4924 1.1 1.1v6.3847c0 .6075-.4925 1.1-1.1 1.1H3.482c-.6075 0-1.1-.4925-1.1-1.1V6.1246c0-.6076.4925-1.1 1.1-1.1" clip-rule="evenodd"/></svg>