<svg width="16" height="16" viewBox="0 0 16 16" fill="none" xmlns="http://www.w3.org/2000/svg">
<path fill-rule="evenodd" clip-rule="evenodd" d="M3.13711 0.949951C2.11538 0.949951 1.28711 1.77823 1.28711 2.79995V12C1.28711 13.0217 2.11538 13.85 3.13711 13.85H4.95422C4.91022 13.6402 4.88708 13.4228 4.88708 13.2V12.55H3.13711C2.83335 12.55 2.58711 12.3037 2.58711 12V2.79995C2.58711 2.49619 2.83335 2.24995 3.13711 2.24995H3.81213V3.29783C3.81213 3.93295 4.32701 4.44783 4.96213 4.44783H7.61204C8.24716 4.44783 8.76204 3.93295 8.76204 3.29783V2.24995H9.43712C9.74088 2.24995 9.98712 2.49619 9.98712 2.79995V4.7749H11.2871V2.79995C11.2871 1.77822 10.4588 0.949951 9.43712 0.949951H3.13711ZM7.46204 2.24995H5.11213V3.14783H7.46204V2.24995Z" fill="black"/>
<path fill-rule="evenodd" clip-rule="evenodd" d="M6.18713 7.92489C6.18713 6.90316 7.01541 6.07489 8.03713 6.07489H11.8621C12.8839 6.07489 13.7121 6.90316 13.7121 7.92489V13.2C13.7121 14.2217 12.8839 15.05 11.8621 15.05H8.03713C7.01541 15.05 6.18713 14.2217 6.18713 13.2V7.92489ZM8.03713 7.37489C7.73338 7.37489 7.48713 7.62113 7.48713 7.92489V13.2C7.48713 13.5037 7.73338 13.75 8.03713 13.75H11.8621C12.1659 13.75 12.4121 13.5037 12.4121 13.2V8.99857H11.0127C10.4604 8.99857 10.0127 8.55086 10.0127 7.99857V7.37489H8.03713Z" fill="black"/>
</svg>
