<svg xmlns="http://www.w3.org/2000/svg" width="16" height="16" fill="none" viewBox="0 0 16 16"><path fill="#000" fill-rule="evenodd" d="M1.2871 2.8c0-1.0218.8283-1.85 1.85-1.85h6.3c1.0217 0 1.85.8282 1.85 1.85v1.975h-1.3V2.8a.55.55 0 0 0-.55-.55h-.675v1.0478c0 .6351-.515 1.15-1.15 1.15h-2.65c-.635 0-1.15-.5148-1.15-1.15V2.25h-.675a.55.55 0 0 0-.55.55V12a.55.55 0 0 0 .55.55h1.75v.65c0 .2228.0231.4402.0671.65h-1.817c-1.0218 0-1.85-.8283-1.85-1.85zm3.825-.55h2.35v.8978h-2.35zm2.925 3.8249c-1.0217 0-1.85.8283-1.85 1.85V13.2c0 1.0217.8283 1.85 1.85 1.85h3.825c1.0218 0 1.85-.8283 1.85-1.85V7.9249c0-1.0217-.8283-1.85-1.85-1.85zm-.55 1.85a.55.55 0 0 1 .55-.55h1.9756v.6237c0 .5523.4477 1 1 1h1.3994V13.2a.55.55 0 0 1-.55.55h-3.825a.55.55 0 0 1-.55-.55z"/></svg>