<svg xmlns="http://www.w3.org/2000/svg" width="16" height="16" fill="none" viewBox="0 0 16 16"><path fill="#000" fill-rule="evenodd" d="M2 4c0-1.1046.8954-2 2-2h1.333c1.1046 0 2 .8954 2 2v8c0 1.1046-.8954 2-2 2H4c-1.1046 0-2-.8954-2-2zm6.667 0c0-1.1046.8954-2 1.9999-2H12c1.1046 0 2 .8954 2 2v8c0 1.1046-.8954 2-2 2h-1.3331c-1.1045 0-2-.8954-2-2zM4 3.2683A.7317.7317 0 0 0 3.2683 4v8c0 .4041.3276.7317.7317.7317h1.333A.7317.7317 0 0 0 6.0649 12V4a.7317.7317 0 0 0-.7317-.7317zm6.6669 0A.7317.7317 0 0 0 9.9352 4v8c0 .4041.3276.7317.7317.7317H12A.7317.7317 0 0 0 12.7317 12V4A.7317.7317 0 0 0 12 3.2683z"/></svg>