<svg width="16" height="16" viewBox="0 0 16 16" fill="none" xmlns="http://www.w3.org/2000/svg">
<path fill-rule="evenodd" clip-rule="evenodd" d="M4 2.31201C2.89543 2.31201 2 3.20744 2 4.31201V12.312C2 13.4166 2.89543 14.312 4 14.312H5.33306C6.43763 14.312 7.33306 13.4166 7.33306 12.312V4.31201C7.33306 3.20744 6.43763 2.31201 5.33306 2.31201H4ZM3.26829 4.31201C3.26829 3.9079 3.59589 3.5803 4 3.5803H5.33306C5.73717 3.5803 6.06476 3.9079 6.06476 4.31201V12.312C6.06476 12.7161 5.73717 13.0437 5.33306 13.0437H4C3.59589 13.0437 3.26829 12.7161 3.26829 12.312V4.31201Z" fill="black"/>
<path fill-rule="evenodd" clip-rule="evenodd" d="M10.6669 2.31201C9.56238 2.31201 8.66694 3.20744 8.66694 4.31201V12.312C8.66694 13.4166 9.56238 14.312 10.6669 14.312H12C13.1046 14.312 14 13.4166 14 12.312V4.31201C14 3.20744 13.1046 2.31201 12 2.31201H10.6669ZM9.93524 4.31201C9.93524 3.9079 10.2628 3.5803 10.6669 3.5803H12C12.4041 3.5803 12.7317 3.9079 12.7317 4.31201V12.312C12.7317 12.7161 12.4041 13.0437 12 13.0437H10.6669C10.2628 13.0437 9.93524 12.7161 9.93524 12.312V4.31201Z" fill="black"/>
</svg>
