<svg xmlns="http://www.w3.org/2000/svg" width="16" height="16" fill="none" viewBox="0 0 16 16"><path fill="#000" fill-rule="evenodd" d="M10 3.3333C10 1.8605 11.1939.6666 12.6666.6666c1.4728 0 2.6667 1.194 2.6667 2.6667S14.1394 6 12.6666 6C11.1939 6 10 4.806 10 3.3333M5 1.35h4.22a3.7 3.7 0 0 0-.2297.4606 3.75 3.75 0 0 0-.2369.8394H5q-.175 0-.2625.0875T4.65 3v7.0167l.0162-.0001a.64.64 0 0 1 .2871.0683l1.0501.5237 1.0813-.5264a.64.64 0 0 1 .2898-.0656.64.64 0 0 1 .2886.0702l1.0215.5177.9732-.4932A.655.655 0 0 1 10 10.0166c.364 0 .65.286.65.65v1.6667q0 .2106.0744.3903t.2234.3286q.1488.1489.3286.2233a.99.99 0 0 0 .3256.0727q.1991-.0105.3727-.0824h.0001q.2032-.0843.3717-.2527t.2526-.3717q.0843-.2034.0842-.4414V7.3q.693-.0026 1.3-.2123v5.2456q0 .4798-.1696.8893t-.5089.7488-.7488.5089-.8894.1697q-.033 0-.0658-.0008a3 3 0 0 1-.0675.0008H4q-.549 0-1.0173-.1941t-.8566-.5821q-.388-.3881-.582-.8566Q1.35 12.5487 1.35 12v-1.3334q0-.2692.1904-.4596a.65.65 0 0 1 .21-.1428A.65.65 0 0 1 2 10.0166a.64.64 0 0 1 .153.0183.65.65 0 0 1 .1445.0538l1.0054.5176.047-.023V3q0-.3418.1209-.6334.1208-.2917.3624-.5334.2417-.2416.5334-.3624Q4.6582 1.3499 5 1.35m8.0166.65c0-.196-.154-.35-.35-.35s-.35.154-.35.35v1.3333a.35.35 0 0 0 .0267.134.34.34 0 0 0 .0759.1135l1 1a.3465.3465 0 0 0 .4949 0 .3466.3466 0 0 0 0-.495l-.8975-.8975zM6.3333 4.0166h2.4202q.0712.4394.237.8394.0982.2373.2296.4606H6.3334c-.364 0-.65-.286-.65-.65s.286-.65.65-.65m0 2.6667H8.553c.364 0 .65.286.65.65s-.286.65-.65.65H6.3333c-.364 0-.65-.286-.65-.65s.286-.65.65-.65m3.244 6.6667H4q-.2796 0-.5183-.0989t-.4363-.2966-.2966-.4363T2.65 12v-.2677l.3473.1789a.65.65 0 0 0 .1409.0531v.0001a.65.65 0 0 0 .1494.0188.64.64 0 0 0 .2919-.0656l1.0804-.5263 1.05.5236a.645.645 0 0 0 .287.0683.64.64 0 0 0 .2876-.0655l1.079-.5253 1.0273.5206a.64.64 0 0 0 .2938.0702.65.65 0 0 0 .1511-.0175.65.65 0 0 0 .1428-.0527l.3715-.1882v.6085q0 .4798.1696.8893.0267.0645.0577.1274"/></svg>