<svg xmlns="http://www.w3.org/2000/svg" width="16" height="16" fill="none" viewBox="0 0 16 16"><path fill="#000" fill-rule="evenodd" d="M10.2468 2.7574a.749.749 0 1 0 0-1.4978.749.749 0 0 0 0 1.4978m-6.7405-.099a.848.848 0 0 0-.8479.848v8.9873c0 .4683.3796.8479.8479.8479a.65.65 0 1 1 0 1.3c-1.1863 0-2.1479-.9617-2.1479-2.1479V3.5063c0-1.1862.9616-2.1478 2.1479-2.1478H8a.65.65 0 1 1 0 1.3zm8.3373-.65a.65.65 0 0 1 .65-.65c1.1863 0 2.1479.9617 2.1479 2.148v8.9873c0 1.1862-.9616 2.1479-2.1479 2.1479H8a.65.65 0 1 1 0-1.3h4.4936a.848.848 0 0 0 .8479-.8479V3.5063a.848.848 0 0 0-.8479-.8478.65.65 0 0 1-.65-.65M5.8521 5.0044a.65.65 0 0 1 .65-.65h1.8723c1.3931 0 2.5224 1.1293 2.5224 2.5223S9.7675 9.399 8.3744 9.399H7.1521v1.5968a.65.65 0 1 1-1.3 0zm1.3 3.0947V5.6543h1.2223c.6751 0 1.2224.5472 1.2224 1.2223S9.0495 8.099 8.3744 8.099zm-.65 5.8926a.749.749 0 1 1-1.4979 0 .749.749 0 0 1 1.4979 0"/></svg>