<svg xmlns="http://www.w3.org/2000/svg" width="16" height="16" fill="none" viewBox="0 0 16 16"><path fill="#000" d="M10.1636 6.6324a1.81 1.81 0 0 1 1.3245-.576c1.0074 0 1.8212.8222 1.8108 1.8295l-.0022.2129c-.0095.9134-.7042 1.6736-1.6131 1.7651l-.1392.014a1.48 1.48 0 0 1-1.1511-.3836.65.65 0 1 0-.8802.9567 2.78 2.78 0 0 0 2.1615.7204l.1393-.014c1.5679-.1579 2.7664-1.4694 2.7827-3.0452l.0022-.2129c.0178-1.7305-1.3801-3.143-3.1107-3.143a3.11 3.11 0 0 0-2.2753.9895L7.182 7.9239l-.012.0133-1.3337 1.4306a1.81 1.81 0 0 1-1.3245.576c-1.0075 0-1.8212-.8223-1.8108-1.8296l.0022-.2128c.0094-.9135.7041-1.6737 1.613-1.7652l.1393-.014a1.48 1.48 0 0 1 1.151.3836.65.65 0 0 0 .8802-.9567 2.78 2.78 0 0 0-2.1614-.7204l-.1393.014c-1.568.1579-2.7665 1.4695-2.7827 3.0452l-.0022.2129c-.0179 1.7305 1.38 3.1429 3.1107 3.1429a3.11 3.11 0 0 0 2.2753-.9894l2.0306-2.178.012-.0133z"/></svg>