<svg xmlns="http://www.w3.org/2000/svg" width="16" height="16" fill="none" viewBox="0 0 16 16"><path fill="#000" fill-rule="evenodd" d="M5 4.6667c.5523 0 1-.4477 1-1s-.4477-1-1-1-1 .4477-1 1 .4477 1 1 1m6 0c.5523 0 1-.4477 1-1s-.4477-1-1-1-1 .4477-1 1 .4477 1 1 1M8.704 7.7992a1.333 1.333 0 0 0 .6293-1.1325c0-.7364-.597-1.3333-1.3334-1.3333s-1.3333.597-1.3333 1.3333c0 .478.2514.8971.6293 1.1325C7.0856 8.6884 6.2867 9.35 5.3333 9.35c-1.1138 0-2.0167-.9029-2.0167-2.0166a.65.65 0 1 0-1.3 0c0 1.8317 1.485 3.3166 3.3167 3.3166H5.35v.6833c0 1.4636 1.1864 2.65 2.65 2.65s2.65-1.1864 2.65-2.65V10.65h.0166c1.8318 0 3.3167-1.4849 3.3167-3.3166a.65.65 0 1 0-1.3 0c0 1.1137-.9029 2.0166-2.0167 2.0166-.9534 0-1.7523-.6616-1.9626-1.5508M6.65 11.3333v-.9549A3.33 3.33 0 0 0 8 9.3058a3.33 3.33 0 0 0 1.35 1.0726v.9549c0 .7456-.6044 1.35-1.35 1.35s-1.35-.6044-1.35-1.35"/></svg>