<svg xmlns="http://www.w3.org/2000/svg" width="16" height="16" fill="none" viewBox="0 0 16 16"><path fill="#000" fill-rule="evenodd" d="M5.3931 2.4212c.5923-.1368 1.1562.0683 1.5752.418.4186.3494.7273.8653.8633 1.454s.0844 1.1879-.1387 1.6856c-.2233.498-.64.9297-1.2324 1.0664s-1.1561-.069-1.5752-.419c-.4185-.3494-.7273-.8645-.8633-1.453-.1359-.5888-.0844-1.188.1387-1.6856.2233-.498.64-.9296 1.2324-1.0664m3.6368.418c.419-.3498.9829-.5547 1.5751-.418.5924.1367 1.0091.5684 1.2325 1.0664.223.4977.2745 1.0968.1386 1.6855s-.4447 1.1037-.8632 1.4532c-.4191.3499-.9827.5557-1.5753.4189-.5922-.1368-1.009-.5684-1.2324-1.0664-.223-.4977-.2746-1.0968-.1386-1.6855s.4446-1.1046.8632-1.4541m1.2832.8486c-.1098-.0253-.2689-.0019-.4503.1494-.1817.1518-.3515.4108-.4296.749-.078.338-.0382.6444.0586.8604.0965.2153.2282.3065.3379.332.1097.0253.2689.0018.4502-.1494.1817-.1518.3515-.4108.4296-.749.078-.338.0391-.6444-.0576-.8604-.0966-.2153-.2291-.3066-.3388-.332m-4.628 0c-.1097.0255-.2414.1168-.3379.332-.0968.216-.1365.5223-.0586.8604.0781.3382.248.5972.4297.749.1813.1513.3404.1747.4502.1494.1098-.0254.2423-.1165.3389-.332.0967-.216.1355-.5224.0576-.8604-.0781-.3382-.248-.5973-.4297-.749-.1813-.1512-.3404-.1747-.4502-.1494m-.6748 3.5088c-.573-.9923-1.8306-1.599-2.8887-.9883-1.058.611-1.1607 2.0038-.5878 2.996s1.8307 1.5992 2.8886.9884c1.0579-.611 1.1608-2.0038.588-2.9961m8.8682-.9883c-1.058-.6107-2.3157-.004-2.8887.9883s-.47 2.3851.5879 2.9961c1.058.6108 2.3156.0038 2.8887-.9883.5729-.9923.4699-2.3851-.5879-2.9961M12.1158 7.847c.3384-.5862.8717-.652 1.1123-.5137.2403.1387.451.634.1123 1.2207-.3386.5864-.8719.6512-1.1123.5127-.2402-.1389-.4508-.6333-.1123-1.2197M2.772 7.3333c.2406-.1383.774-.0725 1.1123.5137.3386.5865.128 1.0809-.1123 1.2197-.2403.1387-.7736.0737-1.1123-.5127-.3387-.5867-.128-1.082.1123-1.2207M6.2515 8.346a1.9632 1.9632 0 0 1 3.4961 0l.3164.5986c.1456.275.3267.5263.5371.7471l.4043.4238c.6805.714.7086 1.677.3487 2.3936-.3618.7195-1.1593 1.2664-2.1417 1.0732l-.6308-.124a3.01 3.01 0 0 0-1.163 0l-.632.124c-.9823.1933-1.7797-.3536-2.1415-1.0732-.36-.7165-.3319-1.6796.3486-2.3936l.4043-.4238a3.37 3.37 0 0 0 .5371-.747zm2.3477.6084c-.2675-.5044-.9317-.5043-1.1993 0l-.3163.5986a4.67 4.67 0 0 1-.7452 1.0352l-.4033.4238c-.2527.2651-.275.6204-.128.9131.1457.2896.4136.4437.7286.3818l.6318-.124a4.31 4.31 0 0 1 1.664 0l.632.124c.315.0619.5828-.0922.7285-.3818.1469-.2926.1247-.648-.128-.9131l-.4033-.4238a4.67 4.67 0 0 1-.7451-1.0352z"/></svg>