<svg width="16" height="16" viewBox="0 0 16 16" fill="none" xmlns="http://www.w3.org/2000/svg">
<path fill-rule="evenodd" clip-rule="evenodd" d="M4.12939 1.46659C4.34584 1.48482 4.55579 1.55882 4.75635 1.68787C4.98363 1.82823 5.20187 2.04998 5.41162 2.349L6.75342 4.28357C6.96148 4.58589 7.06877 4.90788 7.07275 5.24939C7.07675 5.58947 6.93406 5.90372 6.64893 6.18885L6.14502 6.70057L6.14404 6.70154C6.07132 6.77254 6.03685 6.83831 6.02881 6.89783C6.02273 6.95207 6.03728 7.01369 6.07764 7.0824L6.22607 7.30408C6.28112 7.38104 6.34177 7.46116 6.40771 7.54432C6.54387 7.70732 6.69095 7.87766 6.8501 8.05408C7.0134 8.23084 7.18118 8.40567 7.354 8.5785C7.51715 8.74164 7.69735 8.91467 7.89697 9.0951L8.46631 9.58436C8.65052 9.73403 8.80398 9.84644 8.92139 9.92029C8.98084 9.95813 9.03292 9.97591 9.08057 9.97596C9.08319 9.97596 9.08669 9.97549 9.09229 9.97498C9.09652 9.9746 9.10279 9.97414 9.10889 9.974C9.16739 9.96528 9.2317 9.92927 9.30225 9.85877L9.81494 9.34705C10.096 9.06988 10.4039 8.92917 10.7378 8.92908H10.7544C11.0938 8.93311 11.417 9.0395 11.7192 9.24744L13.6538 10.5892C13.9532 10.7953 14.1776 11.0145 14.3237 11.2455C14.4679 11.4725 14.5415 11.7113 14.5415 11.9584C14.5415 12.1712 14.488 12.3848 14.3921 12.6058C14.3186 12.7763 14.2238 12.9354 14.1138 13.0834L13.9985 13.2279C13.9135 13.3246 13.822 13.4221 13.7358 13.516C13.4206 13.8584 13.0732 14.1086 12.6958 14.267C12.6867 14.2706 12.6766 14.2739 12.6675 14.2777C12.6585 14.2815 12.6491 14.2864 12.6392 14.2904C12.2283 14.4547 11.722 14.5199 11.1499 14.5199C10.5118 14.5199 9.84877 14.4092 9.13623 14.1498C8.42852 13.8926 7.71681 13.5329 6.979 13.0346C6.33345 12.6019 5.67053 12.0573 5.03564 11.4525L4.76611 11.1898C4.14009 10.5655 3.60477 9.95098 3.14697 9.31287L2.95557 9.03748C2.46105 8.29378 2.09934 7.55931 1.84033 6.84803C1.58693 6.13617 1.4585 5.45934 1.4585 4.82068C1.45851 4.23966 1.54355 3.74346 1.71338 3.32947C1.88536 2.91514 2.16132 2.53796 2.54248 2.19764C2.6021 2.14763 2.65785 2.09486 2.71924 2.04139C3.13726 1.67174 3.54946 1.47426 3.9529 1.45758C4.01291 1.4551 4.0697 1.46156 4.12939 1.46659ZM4.0083 2.78748C3.99426 2.78763 3.95111 2.79765 3.87939 2.83631C3.84415 2.85532 3.80307 2.88111 3.75635 2.91443L3.6001 3.03943C3.54002 3.0923 3.47809 3.15053 3.41455 3.2035C3.18749 3.40804 3.03432 3.61715 2.94287 3.83924C2.84169 4.0848 2.78761 4.41571 2.7876 4.82068C2.7876 5.30209 2.88858 5.83454 3.09131 6.40076C3.32501 7.04247 3.65079 7.6848 4.06104 8.30018L4.22607 8.5365C4.62328 9.09063 5.10866 9.65442 5.70361 10.2494C6.37396 10.9159 7.07109 11.4977 7.71533 11.9291C8.34234 12.3528 8.95367 12.6691 9.58936 12.9008C10.1282 13.0956 10.6393 13.1908 11.1479 13.1908C11.4986 13.1908 11.858 13.1702 12.1802 13.0414L12.3276 12.9691C12.4739 12.8856 12.6165 12.7688 12.7573 12.6166L12.8979 12.4672C12.9445 12.4167 12.99 12.3649 13.0317 12.3109C13.1123 12.2067 13.1758 12.0958 13.2056 11.973C13.1854 11.9231 13.1394 11.8722 13.0806 11.8236C13.0186 11.7725 12.9499 11.7284 12.8979 11.6928L10.9585 10.348L10.8462 10.2875C10.8207 10.2779 10.7982 10.274 10.7788 10.2709C10.7701 10.2784 10.7601 10.2887 10.7476 10.3002L10.2407 10.807C9.89289 11.1566 9.52442 11.2694 9.2749 11.3012C9.20983 11.309 9.14166 11.3129 9.07666 11.3129C8.77401 11.3128 8.4721 11.2203 8.20264 11.0492C8.03722 10.9441 7.84925 10.8038 7.62354 10.6224L6.99463 10.0834C6.78059 9.88862 6.58142 9.69848 6.40576 9.52283C6.31175 9.42882 6.2202 9.33182 6.12939 9.23572C6.03859 9.13963 5.94786 9.04443 5.85498 8.95154L5.854 8.94959L5.37744 8.40369C5.29624 8.30894 5.21984 8.20905 5.14697 8.10682L4.93896 7.79432C4.74814 7.47628 4.65247 7.10594 4.70068 6.73279C4.73241 6.48324 4.84511 6.11487 5.19482 5.76502L5.69287 5.25818C5.70671 5.24433 5.7175 5.23123 5.72607 5.22107C5.71871 5.17706 5.69969 5.11948 5.646 5.04139L4.30908 3.11561L4.12939 2.9076C4.10586 2.88221 4.08613 2.86187 4.0708 2.84705C4.05005 2.827 4.02873 2.80791 4.0083 2.78748ZM9.97803 13.0668C9.99841 13.0724 10.0192 13.0761 10.0396 13.0814C9.95303 13.0588 9.86551 13.0352 9.77783 13.0072L9.97803 13.0668ZM4.36963 8.7992C4.40773 8.8494 4.44723 8.89918 4.48682 8.94959C4.3843 8.81896 4.28657 8.68929 4.19385 8.55994L4.36963 8.7992ZM3.24756 6.89783C3.26383 6.93513 3.28146 6.97191 3.29834 7.00916C3.24507 6.89161 3.19317 6.77454 3.146 6.65662L3.24756 6.89783ZM6.02783 6.78357C6.02489 6.78871 6.02263 6.79409 6.02002 6.7992C6.03173 6.77604 6.04624 6.75241 6.06494 6.72889L6.02783 6.78357Z" fill="black"/>
<path fill-rule="evenodd" clip-rule="evenodd" d="M13.2603 3.46424C13.551 3.15117 14.0409 3.13266 14.354 3.42322C14.667 3.71393 14.6856 4.20386 14.395 4.51697L11.9058 7.19764C11.5852 7.54282 11.0418 7.55295 10.7085 7.2201L9.19385 5.70545C8.8917 5.4033 8.89172 4.91288 9.19385 4.61072C9.49595 4.30902 9.98554 4.30894 10.2876 4.61072L11.2759 5.59998L13.2603 3.46424Z" fill="black"/>
</svg>
