<svg width="16" height="16" viewBox="0 0 16 16" fill="none" xmlns="http://www.w3.org/2000/svg">
<path d="M8.00007 4.66539C8.35905 4.66539 8.65007 4.95641 8.65007 5.31539V7.78807C8.65007 8.14705 8.35905 8.43807 8.00007 8.43807C7.64108 8.43807 7.35007 8.14705 7.35007 7.78807V5.31539C7.35007 4.95641 7.64108 4.66539 8.00007 4.66539Z" fill="black"/>
<path d="M8.00007 10.6848C8.38667 10.6848 8.70007 10.3714 8.70007 9.9848C8.70007 9.5982 8.38667 9.2848 8.00007 9.2848C7.61347 9.2848 7.30007 9.5982 7.30007 9.9848C7.30007 10.3714 7.61347 10.6848 8.00007 10.6848Z" fill="black"/>
<path fill-rule="evenodd" clip-rule="evenodd" d="M3.3501 3.4001C3.3501 2.26791 4.26791 1.3501 5.4001 1.3501H10.6001C11.7323 1.3501 12.6501 2.26791 12.6501 3.4001V12.6001C12.6501 13.7323 11.7323 14.6501 10.6001 14.6501H5.4001C4.26791 14.6501 3.3501 13.7323 3.3501 12.6001V3.4001ZM5.4001 2.6501C4.98588 2.6501 4.6501 2.98588 4.6501 3.4001V12.6001C4.6501 13.0143 4.98588 13.3501 5.4001 13.3501H10.6001C11.0143 13.3501 11.3501 13.0143 11.3501 12.6001V3.4001C11.3501 2.98588 11.0143 2.6501 10.6001 2.6501H5.4001Z" fill="black"/>
</svg>
