<svg xmlns="http://www.w3.org/2000/svg" width="16" height="16" fill="none" viewBox="0 0 16 16"><path fill="#000" fill-rule="evenodd" d="M2.0186 2.6377a.65.65 0 0 1 .6493-.6211h1.886a1.65 1.65 0 0 1 1.6007 1.2498l.339 1.3563a1.65 1.65 0 0 1-.4406 1.5735L4.794 7.441c.4225.6866.9664 1.3987 1.667 2.0993a10.86 10.86 0 0 0 2.1042 1.6432L9.808 9.9407a1.65 1.65 0 0 1 1.5669-.434l1.3599.34a1.65 1.65 0 0 1 1.2498 1.6007v1.8859a.65.65 0 0 1-.65.65c.0003-.0001 0-.0046 0-.65v.65h-.0028l-.0044-.0001-.013-.0001-.0187-.0003-.0244-.0006a5 5 0 0 1-.1515-.0065 8.3 8.3 0 0 1-.5409-.0493c-.4569-.0557-1.0967-.1663-1.8443-.3862a12.3 12.3 0 0 1-2.2734-.9239.64.64 0 0 1-.195-.1053 12.14 12.14 0 0 1-2.7245-2.0514c-.9357-.9357-1.625-1.8966-2.1318-2.8113-.7432-1.3414-1.0914-2.5782-1.2536-3.4851-.0811-.4536-.1159-.8257-.1303-1.0887a6 6 0 0 1-.0094-.3099 4 4 0 0 1 .0008-.0876l.0007-.0258.0003-.0083.0001-.003zm0 0 .5497.0245-.4729-.0212a4 4 0 0 0-.0768-.0033m8.9698 5.3242.0015.0004a.653.653 0 0 0 .3516-.0068l.0014-.0004.0019-.0006.0047-.0014.012-.0039a2.3 2.3 0 0 0 .1418-.0524 3.2 3.2 0 0 0 .3409-.164 3.64 3.64 0 0 0 .9543-.7646c.8038-.9047.8254-2.1584.8254-3.0536v-.3032a.65.65 0 0 0-.3505-.5769l-1.3596-.7057a1.65 1.65 0 0 0-1.5203 0l-1.3596.7057a.65.65 0 0 0-.3506.577v.345c0 .8662.0142 2.0804.7733 2.9762.3399.4011.7097.6543.9973.808.144.0771.2691.13.3621.1649a2.2 2.2 0 0 0 .1521.0507l.013.0037.0051.0013zm.3531-.0064c-.0002 0-.0004.0001-.1879-.6222zM3.3488 3.3166a8.3 8.3 0 0 0 .0872.6177c.1104.617.321 1.4187.7217 2.3077l.9813-.9702a.35.35 0 0 0 .0935-.3338l-.339-1.3563a.35.35 0 0 0-.3396-.2651zm7.6436.166a.35.35 0 0 1 .3225 0l1.0088.5237c-.0044.9184-.0805 1.6296-.497 2.0985a2.34 2.34 0 0 1-.612.4906 2 2 0 0 1-.0713.0377 2 2 0 0 1-.0764-.0387 2.13 2.13 0 0 1-.6186-.5021c-.3994-.4713-.4629-1.1735-.465-2.086zm-1.2148 8.327c.4674.2055.914.3629 1.3238.4834.6406.1884 1.189.286 1.5832.3365v-1.1821a.35.35 0 0 0-.2651-.3396l-1.3599-.34a.35.35 0 0 0-.3324.0921z"/></svg>