<svg xmlns="http://www.w3.org/2000/svg" width="16" height="16" fill="none" viewBox="0 0 16 16"><path fill="#000" fill-rule="evenodd" d="M2.0224 2.5901a.65.65 0 0 1 .6455-.5734h1.886a1.65 1.65 0 0 1 1.6007 1.2498l.339 1.3562a1.65 1.65 0 0 1-.4406 1.5736L4.794 7.441c.4225.6867.9663 1.3988 1.667 2.0993a10.86 10.86 0 0 0 2.1042 1.6432L9.808 9.9407a1.65 1.65 0 0 1 1.5669-.434l1.3599.34a1.65 1.65 0 0 1 1.2498 1.6007v1.8859a.65.65 0 0 1-.5988.648c-.2664.0208-.5434-.0228-.807-.0549-.4568-.0557-1.0966-.1663-1.8443-.3862a12.3 12.3 0 0 1-2.554-1.077 12.14 12.14 0 0 1-2.6388-2.0036c-.9357-.9357-1.625-1.8966-2.1318-2.8113-.7432-1.3413-1.0914-2.5782-1.2536-3.485-.0811-.4537-.116-.8258-.1303-1.0887-.0088-.1613-.0225-.324-.0036-.4845"/></svg>