<svg xmlns="http://www.w3.org/2000/svg" width="16" height="16" fill="none" viewBox="0 0 16 16"><path fill="#000" fill-rule="evenodd" d="M5.4 1.35c-1.1321 0-2.05.9178-2.05 2.05v9.2c0 1.1322.9179 2.05 2.05 2.05h5.2c1.1322 0 2.05-.9178 2.05-2.05V3.4c0-1.1322-.9178-2.05-2.05-2.05zM4.65 3.4a.75.75 0 0 1 .75-.75h5.2a.75.75 0 0 1 .75.75v9.2a.75.75 0 0 1-.75.75H5.4a.75.75 0 0 1-.75-.75zM8 4.6653a.65.65 0 0 1 .65.65V7.788a.65.65 0 0 1-1.3 0V5.3153a.65.65 0 0 1 .65-.65m0 6.0194a.7.7 0 1 0 0-1.4.7.7 0 0 0 0 1.4"/></svg>