<svg width="16" height="16" viewBox="0 0 16 16" fill="none" xmlns="http://www.w3.org/2000/svg">
<path d="M5.6669 7.64536C6.21918 7.64536 6.6669 7.19765 6.6669 6.64536C6.6669 6.09308 6.21918 5.64536 5.6669 5.64536C5.11461 5.64536 4.6669 6.09308 4.6669 6.64536C4.6669 7.19765 5.11461 7.64536 5.6669 7.64536Z" fill="black"/>
<path fill-rule="evenodd" clip-rule="evenodd" d="M1.35024 5.64536C1.35024 4.1818 2.53669 2.99536 4.00024 2.99536H12.0002C13.4638 2.99536 14.6502 4.18181 14.6502 5.64536V10.9787C14.6502 12.4423 13.4638 13.6287 12.0002 13.6287H4.00024C2.5421 13.6287 1.35903 12.451 1.35029 10.9949C1.35005 10.9851 1.35004 10.9754 1.35024 10.9656V5.64536ZM4.00024 12.3287C3.38489 12.3287 2.86569 11.917 2.70309 11.354L4.51038 10.4504C4.60892 10.4011 4.7249 10.4011 4.82343 10.4504L5.84349 10.9604C6.3851 11.2312 7.03153 11.1836 7.5276 10.8363L9.82598 9.22744C9.94188 9.14631 10.0952 9.14294 10.2146 9.21889L13.3179 11.1937L13.3318 11.2023C13.2252 11.8415 12.6696 12.3287 12.0002 12.3287H4.00024ZM13.3502 5.64536V9.6734L10.9125 8.12213C10.3498 7.76405 9.62689 7.77995 9.08048 8.16244L6.7821 9.77131C6.67687 9.84496 6.53975 9.85507 6.42486 9.79762L5.40481 9.2876C4.94029 9.05534 4.39352 9.05534 3.929 9.2876L2.65024 9.92698V5.64536C2.65024 4.89978 3.25465 4.29536 4.00024 4.29536H12.0002C12.7458 4.29536 13.3502 4.89978 13.3502 5.64536Z" fill="black"/>
</svg>
