<svg width="16" height="16" viewBox="0 0 16 16" fill="none" xmlns="http://www.w3.org/2000/svg">
<path d="M1 3.48551C1 2.1128 2.113 1 3.48595 1H5.21023C5.57448 1 5.86976 1.29523 5.86976 1.65942C5.86976 2.02361 5.57448 2.31884 5.21023 2.31884H3.48595C2.8415 2.31884 2.31907 2.84118 2.31907 3.48551V5.22071C2.31907 5.5849 2.02379 5.88013 1.65954 5.88013C1.29528 5.88013 1 5.5849 1 5.22071V3.48551Z" fill="black"/>
<path d="M1 12.5145C1 13.8872 2.113 15 3.48595 15H5.21023C5.57448 15 5.86976 14.7048 5.86976 14.3406C5.86976 13.9764 5.57448 13.6812 5.21023 13.6812H3.48595C2.8415 13.6812 2.31907 13.1588 2.31907 12.5145V10.7793C2.31907 10.4151 2.02379 10.1199 1.65954 10.1199C1.29528 10.1199 1 10.4151 1 10.7793V12.5145Z" fill="black"/>
<path d="M12.5141 1C13.887 1 15 2.1128 15 3.48551V5.22071C15 5.5849 14.7047 5.88013 14.3405 5.88013C13.9762 5.88013 13.6809 5.5849 13.6809 5.22071V3.48551C13.6809 2.84118 13.1585 2.31884 12.5141 2.31884H10.7898C10.4255 2.31884 10.1302 2.02361 10.1302 1.65942C10.1302 1.29523 10.4255 1 10.7898 1H12.5141Z" fill="black"/>
<path d="M15 12.5145C15 13.8872 13.887 15 12.5141 15H10.7898C10.4255 15 10.1302 14.7048 10.1302 14.3406C10.1302 13.9764 10.4255 13.6812 10.7898 13.6812H12.5141C13.1585 13.6812 13.6809 13.1588 13.6809 12.5145V10.7793C13.6809 10.4151 13.9762 10.1199 14.3405 10.1199C14.7047 10.1199 15 10.4151 15 10.7793V12.5145Z" fill="black"/>
<path d="M8.25838 2.31884C8.62263 2.31884 8.91791 2.02361 8.91791 1.65942C8.91791 1.29523 8.62263 1 8.25838 1H7.74173C7.37747 1 7.08219 1.29523 7.08219 1.65942C7.08219 2.02361 7.37747 2.31884 7.74173 2.31884H8.25838Z" fill="black"/>
<path d="M8.91791 14.3406C8.91791 13.9764 8.62263 13.6812 8.25838 13.6812H7.74173C7.37747 13.6812 7.08219 13.9764 7.08219 14.3406C7.08219 14.7048 7.37747 15 7.74173 15H8.25838C8.62263 15 8.91791 14.7048 8.91791 14.3406Z" fill="black"/>
<path d="M2.31907 8.24273C2.31907 8.60691 2.02379 8.90215 1.65954 8.90215C1.29528 8.90215 1 8.60691 1 8.24273V7.72729C1 7.3631 1.29528 7.06787 1.65954 7.06787C2.02379 7.06787 2.31907 7.3631 2.31907 7.72729V8.24273Z" fill="black"/>
<path d="M14.3405 8.90215C14.7047 8.90215 15 8.60691 15 8.24273V7.72729C15 7.3631 14.7047 7.06787 14.3405 7.06787C13.9762 7.06787 13.6809 7.3631 13.6809 7.72729V8.24273C13.6809 8.60691 13.9762 8.90215 14.3405 8.90215Z" fill="black"/>
<path fill-rule="evenodd" clip-rule="evenodd" d="M4.95673 5.97101C4.95673 5.41073 5.41101 4.95652 5.9714 4.95652H10.0301C10.5905 4.95652 11.0448 5.41073 11.0448 5.97101V10.029C11.0448 10.5893 10.5905 11.0435 10.0301 11.0435H5.9714C5.41101 11.0435 4.95673 10.5893 4.95673 10.029V5.97101ZM6.2758 9.72464V6.27536H9.72569V9.72464H6.2758Z" fill="black"/>
</svg>
