<svg xmlns="http://www.w3.org/2000/svg" width="16" height="16" fill="none" viewBox="0 0 16 16"><path fill="#000" fill-rule="evenodd" d="m8 1.6667.39-.52a.65.65 0 0 0-.39-.13.65.65 0 0 0-.39.13l-.001.0007-.0012.001-.0027.002-.0069.0052-.0193.0152a2 2 0 0 0-.0592.0492 3.4 3.4 0 0 0-.1877.1745 4.36 4.36 0 0 0-.5395.6616c-.357.5354-.7105 1.3125-.7678 2.324a4.6 4.6 0 0 0-1.7555-.7574 4.36 4.36 0 0 0-.8494-.0863 3.3 3.3 0 0 0-.256.0093 2 2 0 0 0-.0768.0071l-.0243.003-.0086.001-.0034.0005-.0014.0002s-.0013.0002.0906.6437l-.0919-.6435a.65.65 0 0 0-.5515.5515l-.0002.0013-.0002.0015-.0005.0033-.001.0086-.003.0244a2 2 0 0 0-.0071.0767 3.4 3.4 0 0 0-.0093.256c0 .2123.0177.5062.0863.8494.1379.6893.4826 1.5797 1.2974 2.3945a5.2 5.2 0 0 0 .544.4729.999.999 0 0 0-.403.8022v4c0 1.1046.8955 2 2 2h4C11.1046 15 12 14.1046 12 13V9a.999.999 0 0 0-.4029-.8022 5.2 5.2 0 0 0 .544-.473c.8147-.8147 1.1594-1.7051 1.2973-2.3944a4.36 4.36 0 0 0 .0863-.8493c0-.1064-.0044-.193-.0093-.2561a2 2 0 0 0-.0071-.0767l-.0029-.0244-.0011-.0086-.0005-.0033-.0002-.0015s-.0002-.0013-.6436.0907l.6434-.092a.651.651 0 0 0-.5521-.5516l-.0021-.0003-.0034-.0005-.0085-.001-.0244-.003a2 2 0 0 0-.0767-.0071 3.4 3.4 0 0 0-.2561-.0093c-.2123 0-.5062.0177-.8494.0863a4.6 4.6 0 0 0-1.7555.7574c-.0573-1.0115-.4108-1.7886-.7677-2.324a4.36 4.36 0 0 0-.5396-.6616 3.4 3.4 0 0 0-.1876-.1745 2 2 0 0 0-.0593-.0492l-.0193-.0152-.0068-.0052-.0027-.002-.0012-.001S8.39 1.1467 8 1.6667m0 .9348a3.2 3.2 0 0 0-.1259.1757c-.2767.4151-.5575 1.0418-.5575 1.8895 0 .914.3264 1.6761.642 2.1976.0164.0273.0301.036.034.0383A.02.02 0 0 0 8 6.9052s.0026 0 .0073-.0026c.0039-.0022.0176-.011.0341-.0382.3155-.5216.6419-1.2838.6419-2.1977 0-.8477-.2808-1.4744-.5575-1.8895A3.2 3.2 0 0 0 8 2.6015M3.801 4.8622q.1007.013.2132.0353c.4892.0978 1.1309.3424 1.7303.9418.6462.6462.9544 1.416 1.1 2.0079.0077.0308.0042.0468.003.0511-.0014.0051-.0033.007-.0033.007s-.002.002-.007.0034c-.0044.0012-.0203.0047-.0512-.003-.5919-.1456-1.3616-.4538-2.0079-1.1-.5994-.5995-.844-1.2411-.9418-1.7303a3.2 3.2 0 0 1-.0353-.2132m8.1847.0353a3.2 3.2 0 0 1 .2132-.0353 3.2 3.2 0 0 1-.0353.2132c-.0978.4892-.3424 1.1308-.9418 1.7302-.6463.6463-1.416.9545-2.0079 1.1002-.0309.0076-.0468.004-.0511.0029a.02.02 0 0 1-.007-.0034s-.002-.0019-.0034-.007c-.0012-.0043-.0047-.0203.003-.0511.1456-.5919.4538-1.3617 1.1-2.008.5995-.5993 1.2411-.844 1.7303-.9417M5.3 9.3V13a.7.7 0 0 0 .7.7h4a.7.7 0 0 0 .7-.7V9.3z"/></svg>