<svg width="16" height="16" viewBox="0 0 16 16" fill="none" xmlns="http://www.w3.org/2000/svg">
<path fill-rule="evenodd" clip-rule="evenodd" d="M7.49175 5.79435C6.8362 5.41586 6.01675 5.88897 6.01675 6.64594L6.01675 10.11C6.01675 10.867 6.8362 11.3401 7.49175 10.9616L10.4918 9.22958C11.1473 8.8511 11.1473 7.90489 10.4918 7.5264L7.49175 5.79435ZM9.36675 8.37799L7.31675 9.56156V7.19442L9.36675 8.37799Z" fill="black"/>
<path fill-rule="evenodd" clip-rule="evenodd" d="M8.0001 1.66211C4.3274 1.66211 1.3501 4.63942 1.3501 8.31211C1.3501 11.9848 4.3274 14.9621 8.0001 14.9621C11.6728 14.9621 14.6501 11.9848 14.6501 8.31211C14.6501 4.63942 11.6728 1.66211 8.0001 1.66211ZM2.6501 8.31211C2.6501 5.35739 5.04537 2.96211 8.0001 2.96211C10.9548 2.96211 13.3501 5.35739 13.3501 8.31211C13.3501 11.2668 10.9548 13.6621 8.0001 13.6621C5.04537 13.6621 2.6501 11.2668 2.6501 8.31211Z" fill="black"/>
</svg>
