<svg xmlns="http://www.w3.org/2000/svg" width="16" height="16" fill="none" viewBox="0 0 16 16"><path fill="#000" fill-rule="evenodd" d="M1.35 8c0-3.6727 2.9773-6.65 6.65-6.65S14.65 4.3273 14.65 8 11.6727 14.65 8 14.65 1.35 11.6727 1.35 8M8 2.65C5.0453 2.65 2.65 5.0453 2.65 8S5.0453 13.35 8 13.35s5.35-2.3953 5.35-5.35S10.9547 2.65 8 2.65M6.0166 6.3338c0-.757.8195-1.23 1.475-.8516l3 1.732c.6556.3786.6556 1.3248 0 1.7033l-3 1.732c-.6555.3785-1.475-.0946-1.475-.8516zm1.3 2.9156 2.05-1.1835-2.05-1.1836z"/></svg>