<svg xmlns="http://www.w3.org/2000/svg" width="16" height="16" fill="none" viewBox="0 0 16 16"><path fill="#000" fill-rule="evenodd" d="M8.015 1.833h3.1759a1 1 0 0 1 .0301 0h1.1136c1.4636 0 2.65 1.1864 2.65 2.65v7.0342c0 1.4636-1.1864 2.65-2.65 2.65H3.6654c-1.4636 0-2.65-1.1864-2.65-2.65V4.4829c0-1.4635 1.1864-2.65 2.65-2.65h4.3194a1 1 0 0 1 .0302 0m-.6847 1.3h-3.665c-.7455 0-1.35.6044-1.35 1.35v7.0342c0 .7456.6045 1.35 1.35 1.35h3.683a1632 1632 0 0 1-.0252-6.3003c-.0019-1.1066-.0015-2.1102.0026-2.8472.0012-.22.0027-.4172.0046-.5868m1.318 9.7342a1632 1632 0 0 1-.0252-6.3025c-.0019-1.1057-.0015-2.1056.0025-2.8379.0013-.2257.0029-.4251.0048-.5939h1.906c-.0019.1696-.0035.3667-.0047.5868-.004.737-.0044 1.7406-.0026 2.8472.0035 2.0935.0151 4.5605.0252 6.3003zm3.1808-6.3025c.0035 2.0942.0151 4.5634.0252 6.3025h.4803c.7456 0 1.35-.6044 1.35-1.35V4.4829c0-.7455-.6044-1.35-1.35-1.35h-.4981c-.002.1688-.0036.3682-.0048.594-.004.7322-.0044 1.732-.0026 2.8378M3.0876 5.187a.65.65 0 0 1 .65-.65h2.0285a.65.65 0 0 1 0 1.3H3.7376a.65.65 0 0 1-.65-.65m0 2.632a.65.65 0 0 1 .65-.65h2.0285a.65.65 0 0 1 0 1.3H3.7376a.65.65 0 0 1-.65-.65m2.4137 2.9405a.75.75 0 0 1-.75.75.75.75 0 1 1 .75-.75"/></svg>