<svg width="16" height="16" viewBox="0 0 16 16" fill="none" xmlns="http://www.w3.org/2000/svg">
<path d="M8.65059 2.99985C8.65059 2.64087 8.35957 2.34985 8.00059 2.34985C7.6416 2.34985 7.35059 2.64087 7.35059 2.99985V7.3501H3.00059C2.6416 7.3501 2.35059 7.64111 2.35059 8.0001C2.35059 8.35908 2.6416 8.6501 3.00059 8.6501H7.35059V13.0001C7.35059 13.3591 7.6416 13.6501 8.00059 13.6501C8.35957 13.6501 8.65059 13.3591 8.65059 13.0001V8.6501H13.0008C13.3598 8.6501 13.6508 8.35908 13.6508 8.0001C13.6508 7.64111 13.3598 7.3501 13.0008 7.3501H8.65059V2.99985Z" fill="black"/>
</svg>
