<svg width="16" height="16" viewBox="0 0 16 16" fill="none" xmlns="http://www.w3.org/2000/svg">
<path d="M5.2626 8.00023C5.26247 7.64124 5.55338 7.35013 5.91237 7.35L7.35 7.34949V5.91191C7.35 5.55292 7.64101 5.26191 8 5.26191C8.35898 5.26191 8.65 5.55292 8.65 5.91191V7.34903L10.0869 7.34853C10.4459 7.3484 10.737 7.63931 10.7371 7.9983C10.7372 8.35728 10.4463 8.6484 10.0873 8.64853L8.65 8.64903V10.0864C8.65 10.4454 8.35898 10.7364 8 10.7364C7.64102 10.7364 7.35 10.4454 7.35 10.0864V8.64949L5.91283 8.65C5.55384 8.65013 5.26272 8.35921 5.2626 8.00023Z" fill="black"/>
<path fill-rule="evenodd" clip-rule="evenodd" d="M4.1 1.50171C2.66406 1.50171 1.5 2.66577 1.5 4.10171V11.8984C1.5 13.3343 2.66406 14.4984 4.1 14.4984H11.9C13.3359 14.4984 14.5 13.3343 14.5 11.8984V4.10171C14.5 2.66577 13.3359 1.50171 11.9 1.50171H4.1ZM11.9 2.80171H4.1C3.38203 2.80171 2.8 3.38374 2.8 4.10171V11.8984C2.8 12.6163 3.38203 13.1984 4.1 13.1984H11.9C12.618 13.1984 13.2 12.6163 13.2 11.8984V4.10171C13.2 3.38374 12.618 2.80171 11.9 2.80171Z" fill="black"/>
</svg>
