<svg xmlns="http://www.w3.org/2000/svg" width="16" height="16" fill="none" viewBox="0 0 16 16"><path fill="#000" fill-rule="evenodd" d="M8.2055 1.3833a.65.65 0 0 0-.411 0L1.8086 3.3786a.65.65 0 0 0-.2961.1913.648.648 0 0 0-.1626.43V11.5a.65.65 0 0 0 .3925.5968l6 2.5882a.65.65 0 0 0 .515 0l5.9999-2.5882A.65.65 0 0 0 14.65 11.5V4a.647.647 0 0 0-.1627-.4301.65.65 0 0 0-.296-.1913zM13.35 4.9018 8.6396 6.4719a.65.65 0 0 1 .0104.1163V13.1l4.7-2.0274zM7.3604 6.4719 2.65 4.9018v6.1707l4.7 2.0274V6.5882a.65.65 0 0 1 .0104-.1163M8 5.315 4.0555 4 8 2.6852 11.9445 4z"/></svg>