<svg xmlns="http://www.w3.org/2000/svg" width="16" height="16" fill="none" viewBox="0 0 16 16"><path fill="#000" fill-rule="evenodd" d="M11.3428 6.5317c-.3522-.32-.82-.515-1.3333-.515a1.98 1.98 0 0 0-.6835.1209V3.3333c0-1.0953-.888-1.9833-1.9833-1.9833s-1.9833.888-1.9833 1.9833v5.299L4.422 7.869c-.751-.6117-1.8432-.556-2.5281.1289-.7376.7375-.7376 1.9333 0 2.6709l2.9121 2.9121A3.65 3.65 0 0 0 7.387 14.65h3.8724c1.8777 0 3.4-1.5222 3.4-3.4V8c0-1.0954-.888-1.9833-1.9834-1.9833-.5133 0-.9811.195-1.3333.515m-4-3.8817a.6833.6833 0 0 0-.6833.6833V10a.65.65 0 0 1-1.0605.504L3.601 8.877a.5886.5886 0 0 0-.7879.8725l2.9122 2.9122a2.35 2.35 0 0 0 1.6617.6883h3.8724c1.1598 0 2.1-.9402 2.1-2.1V8a.6834.6834 0 0 0-1.3667 0v.6667a.65.65 0 1 1-1.3 0V8A.6833.6833 0 1 0 9.326 8v.6667a.65.65 0 0 1-1.3 0V3.3333a.6833.6833 0 0 0-.6834-.6833"/></svg>