<svg xmlns="http://www.w3.org/2000/svg" width="16" height="16" fill="none" viewBox="0 0 16 16"><path fill="#000" fill-rule="evenodd" d="M8 14.3c-.3936.5172-.394.517-.394.517zm.3938.5172a.6504.6504 0 0 1-.7877-.0002l-.0016-.0012-.0037-.0028-.0128-.0099-.0465-.0363c-.04-.0314-.0974-.077-.1698-.136a19 19 0 0 1-.5951-.506c-.4897-.433-1.1442-1.0519-1.8007-1.794-1.2811-1.4482-2.7005-3.5094-2.7005-5.6402C2.2754 3.5652 4.8487 1.05 8 1.05s5.7247 2.515 5.7247 5.6405c0 2.1308-1.4194 4.192-2.7005 5.6402-.6565.7421-1.311 1.361-1.8007 1.794a19 19 0 0 1-.5951.506c-.0724.059-.1299.1046-.1698.136l-.0465.0363-.0128.0099-.0037.0028zM8.0001 2.3501c-2.454 0-4.4247 1.9535-4.4247 4.3405 0 1.6154 1.118 3.3588 2.3742 4.7788.6121.692 1.2263 1.2731 1.6882 1.6815.1356.12.2577.2247.3623.3126.1046-.0879.2267-.1926.3623-.3126.4619-.4084 1.076-.9895 1.6882-1.6815 1.2562-1.42 2.3742-3.1634 2.3742-4.7788 0-2.387-1.9707-4.3405-4.4247-4.3405M9.3813 6.632c0 .7502-.6183 1.3583-1.3812 1.3583S6.619 7.3822 6.619 6.632 7.2373 5.2737 8 5.2737s1.3812.6081 1.3812 1.3583"/></svg>