<svg xmlns="http://www.w3.org/2000/svg" width="16" height="16" fill="none" viewBox="0 0 16 16"><path fill="#000" fill-rule="evenodd" d="M12.4252 6.6905c0 1.0396-.4631 2.1323-1.128 3.1577l.9378.9378c.828-1.2172 1.4902-2.6402 1.4902-4.0955 0-3.1254-2.5734-5.6406-5.7247-5.6406-1.527 0-2.9182.5905-3.9468 1.5548l.9198.9198c.7899-.7276 1.8532-1.1746 3.027-1.1746 2.454 0 4.4247 1.9536 4.4247 4.3406M9.224 14.1247c.3898-.3447.884-.8072 1.4006-1.3558l2.0387 2.0386a.65.65 0 0 0 .9192-.9192L2.1408 2.4466a.65.65 0 0 0-.9192.9192l1.3969 1.397a5.56 5.56 0 0 0-.3427 1.9277c0 2.1307 1.4194 4.192 2.7005 5.6402.6565.7421 1.311 1.361 1.8007 1.794.2452.2169.4503.3882.595.506.0725.059.13.1046.1699.136l.0464.0362.0129.0099.0037.0029.0016.0012a.6514.6514 0 0 0 .7884-.0003l.0012-.0009.0037-.0029.0128-.0099.0465-.0362c.04-.0314.0974-.077.1698-.136.1448-.1178.3498-.2891.595-.506m-1.2235.1752c.3937.5172.3944.5167.3944.5167zM9.009 7.56 7.0737 5.6247a1.39 1.39 0 0 1 .9268-.3511c.7628 0 1.3812.608 1.3812 1.3583 0 .3589-.1415.6853-.3727.9281m-5.4332-.8695c0-.301.0313-.5952.091-.8794l6.0381 6.0381a20.2 20.2 0 0 1-1.7044 1.6142 19 19 0 0 1-.3624-.3126c-.4618-.4084-1.076-.9895-1.6881-1.6815-1.2563-1.42-2.3742-3.1635-2.3742-4.7788"/></svg>