<svg width="16" height="16" viewBox="0 0 16 16" fill="none" xmlns="http://www.w3.org/2000/svg">
<path d="M8.65144 1.76206C8.65144 1.40308 8.36043 1.11206 8.00144 1.11206C7.64246 1.11206 7.35144 1.40308 7.35144 1.76206V7.99992C7.35144 8.3589 7.64246 8.64992 8.00144 8.64992C8.36043 8.64992 8.65144 8.3589 8.65144 7.99992V1.76206Z" fill="black"/>
<path d="M4.68031 4.23187C4.94952 3.99439 4.97524 3.58363 4.73776 3.31442C4.50028 3.04522 4.08952 3.0195 3.82032 3.25698C2.50803 4.4146 1.67871 6.11084 1.67871 7.99997C1.67871 11.4919 4.50949 14.3227 8.00144 14.3227C11.4934 14.3227 14.3242 11.4919 14.3242 7.99997C14.3242 6.11084 13.4949 4.4146 12.1826 3.25698C11.9134 3.0195 11.5026 3.04522 11.2651 3.31442C11.0276 3.58363 11.0534 3.99439 11.3226 4.23187C12.367 5.15318 13.0242 6.49943 13.0242 7.99997C13.0242 10.7739 10.7754 13.0227 8.00144 13.0227C5.22746 13.0227 2.97871 10.7739 2.97871 7.99997C2.97871 6.49943 3.63591 5.15318 4.68031 4.23187Z" fill="black"/>
</svg>
