<svg xmlns="http://www.w3.org/2000/svg" width="16" height="16" fill="none" viewBox="0 0 16 16"><path fill="#000" fill-rule="evenodd" d="M8.0015 1.112a.65.65 0 0 1 .65.65V8a.65.65 0 0 1-1.3 0V1.762a.65.65 0 0 1 .65-.65M4.7378 3.3145a.65.65 0 0 1-.0575.9175C3.6359 5.1533 2.9787 6.4995 2.9787 8c0 2.774 2.2488 5.0228 5.0228 5.0228 2.7739 0 5.0227-2.2488 5.0227-5.0227 0-1.5006-.6572-2.8468-1.7016-3.7681a.65.65 0 0 1 .86-.975C13.4949 4.4147 14.3242 6.111 14.3242 8c0 3.492-2.8308 6.3228-6.3227 6.3228S1.6787 11.4919 1.6787 8c0-1.8892.8293-3.5854 2.1416-4.743a.65.65 0 0 1 .9175.0574"/></svg>