<svg xmlns="http://www.w3.org/2000/svg" width="16" height="16" fill="none" viewBox="0 0 16 16"><path fill="#000" fill-rule="evenodd" d="m7.6049 14.8157.0015.0012a.6515.6515 0 0 0 .7885-.0003l.0012-.0009.0037-.0029.0128-.0099.0465-.0362c.04-.0314.0973-.077.1698-.136.1447-.1178.3498-.2891.595-.506.4897-.433 1.1442-1.0519 1.8008-1.794 1.2811-1.4482 2.7005-3.5095 2.7005-5.6402 0-3.1254-2.5734-5.6406-5.7247-5.6406S2.2758 3.5651 2.2758 6.6905c0 2.1307 1.4193 4.192 2.7005 5.6402.6565.7421 1.311 1.361 1.8007 1.794.2452.2169.4503.3882.595.506.0725.059.13.1046.1698.136l.0465.0362.0129.0099zM3.5758 6.6905c0-2.387 1.9707-4.3406 4.4247-4.3406s4.4247 1.9536 4.4247 4.3406c0 1.6153-1.118 3.3588-2.3742 4.7788-.6122.692-1.2263 1.2731-1.6882 1.6815-.1356.12-.2578.2247-.3623.3126a19 19 0 0 1-.3624-.3126c-.4618-.4084-1.076-.9895-1.6881-1.6815-1.2563-1.42-2.3742-3.1635-2.3742-4.7788M8 3.85a.65.65 0 0 1 .65.65v1a.65.65 0 1 1-1.3 0v-1A.65.65 0 0 1 8 3.85m-1.5 3.8a.65.65 0 1 0 0-1.3h-1a.65.65 0 0 0 0 1.3zM11.15 7a.65.65 0 0 1-.65.65h-1a.65.65 0 1 1 0-1.3h1a.65.65 0 0 1 .65.65M8 7.85a.65.65 0 0 1 .65.65v1a.65.65 0 1 1-1.3 0v-1A.65.65 0 0 1 8 7.85"/></svg>