<svg width="16" height="16" viewBox="0 0 16 16" fill="none" xmlns="http://www.w3.org/2000/svg">
<path d="M8.0001 3.8501C8.35908 3.8501 8.6501 4.14111 8.6501 4.5001V5.5001C8.6501 5.85908 8.35908 6.1501 8.0001 6.1501C7.64111 6.1501 7.3501 5.85908 7.3501 5.5001V4.5001C7.3501 4.14111 7.64111 3.8501 8.0001 3.8501Z" fill="black"/>
<path d="M8.6501 8.5001C8.6501 8.14111 8.35908 7.8501 8.0001 7.8501C7.64111 7.8501 7.3501 8.14111 7.3501 8.5001V9.5001C7.3501 9.85908 7.64111 10.1501 8.0001 10.1501C8.35908 10.1501 8.6501 9.85908 8.6501 9.5001V8.5001Z" fill="black"/>
<path d="M7.1501 7.0001C7.1501 7.35908 6.85908 7.6501 6.5001 7.6501H5.5001C5.14111 7.6501 4.8501 7.35908 4.8501 7.0001C4.8501 6.64111 5.14111 6.3501 5.5001 6.3501H6.5001C6.85908 6.3501 7.1501 6.64111 7.1501 7.0001Z" fill="black"/>
<path d="M10.5001 7.6501C10.8591 7.6501 11.1501 7.35908 11.1501 7.0001C11.1501 6.64111 10.8591 6.3501 10.5001 6.3501H9.5001C9.14111 6.3501 8.8501 6.64111 8.8501 7.0001C8.8501 7.35908 9.14111 7.6501 9.5001 7.6501H10.5001Z" fill="black"/>
<path fill-rule="evenodd" clip-rule="evenodd" d="M8.00059 14.3C7.60686 14.8172 7.60672 14.8171 7.60657 14.817L7.60499 14.8158L7.60127 14.813L7.58844 14.8031L7.54196 14.7668C7.50203 14.7354 7.44461 14.6898 7.37219 14.6308C7.22741 14.513 7.02235 14.3417 6.77707 14.1248C6.28743 13.6918 5.63292 13.0729 4.97639 12.3308C3.69525 10.8826 2.27588 8.82138 2.27588 6.69057C2.27588 3.56519 4.84921 1.05005 8.00059 1.05005C11.152 1.05005 13.7253 3.56519 13.7253 6.69057C13.7253 8.82138 12.3059 10.8826 11.0248 12.3308C10.3683 13.0729 9.71374 13.6918 9.2241 14.1248C8.97882 14.3417 8.77377 14.513 8.62898 14.6308C8.55656 14.6898 8.49914 14.7354 8.45922 14.7668L8.41273 14.8031L8.3999 14.813L8.39618 14.8158L8.39501 14.8167C8.39486 14.8168 8.39431 14.8172 8.00059 14.3ZM8.00059 2.35005C5.54659 2.35005 3.57588 4.30357 3.57588 6.69057C3.57588 8.30596 4.69386 10.0494 5.95007 11.4695C6.56222 12.1614 7.17639 12.7425 7.63825 13.151C7.7739 13.2709 7.896 13.3756 8.00058 13.4635C8.10517 13.3756 8.22728 13.2709 8.36292 13.151C8.82478 12.7425 9.43895 12.1614 10.0511 11.4695C11.3073 10.0494 12.4253 8.30596 12.4253 6.69057C12.4253 4.30357 10.4546 2.35005 8.00059 2.35005Z" fill="black"/>
<path d="M8.00059 14.3L8.39501 14.8167C8.1624 14.9938 7.83918 14.9941 7.60657 14.817L8.00059 14.3Z" fill="black"/>
</svg>
