<svg xmlns="http://www.w3.org/2000/svg" width="16" height="16" fill="none" viewBox="0 0 16 16"><path fill="#000" fill-rule="evenodd" d="M1.1045 10.7505v1.085c0 1.3531 1.0969 2.45 2.45 2.45h8.8951c1.3531 0 2.45-1.0969 2.45-2.45V3.6498c0-.6328-.7353-.9812-1.225-.5805l-3.1103 2.5451-1.9985-3.4297c-.2887-.4954-1.0039-.4969-1.2945-.0026L5.2616 5.5997 2.3438 3.0883c-.4863-.4185-1.2393-.073-1.2393.5684v6.9336a.66.66 0 0 0 0 .1602m4.944-3.9242 1.867-3.1753 1.85 3.175c.2323.3986.766.495 1.123.2028l2.711-2.2183v5.2099H2.4045V4.8558l2.5082 2.1587c.3544.3051.8987.215 1.1357-.1882m-3.644 4.4941h11.1951v.5151c0 .6352-.5149 1.15-1.15 1.15h-8.895c-.6351 0-1.15-.5148-1.15-1.15z"/></svg>