<svg xmlns="http://www.w3.org/2000/svg" width="16" height="16" fill="none" viewBox="0 0 16 16"><path fill="#000" d="m13.2737 11.2166-.3016.5223.9517.9517.7591-1.3148a.65.65 0 0 0-.1642-.8384l-1.2436-.9657a5.38 5.38 0 0 0 .0001-1.4427l1.2444-.9654a.65.65 0 0 0 .1645-.8385l-1.1544-1.9995a.65.65 0 0 0-.8082-.277l-1.4589.5945a5.32 5.32 0 0 0-1.2495-.7225l-.2144-1.5591a.65.65 0 0 0-.644-.5614H6.846a.65.65 0 0 0-.644.5617l-.2136 1.5587a5.3 5.3 0 0 0-.5643.2704l.9695.9695a4 4 0 0 1 .383-.1442l.3908-.1247.2456-1.7914h1.175l.2464 1.7916.3906.1246a4.02 4.02 0 0 1 1.4825.8573l.3032.276 1.6765-.6832.5876 1.0176-1.4292 1.1088.0868.4002a4.04 4.04 0 0 1 .0913.8569c0 .2949-.0317.5817-.0915.8574l-.0868.4001z"/><path fill="#000" fill-rule="evenodd" d="m2.2865 4.647-.9428-.9429a.65.65 0 0 1 .9192-.9192l11.4417 11.4417a.65.65 0 0 1-.9192.9192l-1.8526-1.8526a5.3 5.3 0 0 1-.9196.4859l-.2145 1.5595a.65.65 0 0 1-.644.5614H6.846a.65.65 0 0 1-.644-.5617l-.2137-1.5591a5.3 5.3 0 0 1-1.249-.7221l-1.4577.5948a.65.65 0 0 1-.8085-.2768l-1.1544-1.9995a.65.65 0 0 1 .1643-.8383l1.2432-.9655a5.4 5.4 0 0 1-.0486-.722c0-.2442.0164-.485.0485-.721l-1.244-.965a.65.65 0 0 1-.1645-.8386zm.9517.9516-.5113.8855 1.4288 1.1085-.0868.4002a4.04 4.04 0 0 0-.0913.857c0 .295.0316.582.0914.8577l.0868.4001-1.4279 1.1088.5875 1.0177 1.6754-.6836.3033.276a4.02 4.02 0 0 0 1.4825.857l.3908.1247L7.413 14.6h1.175l.2465-1.792.3905-.1246a4 4 0 0 0 .7632-.3348l-1.8737-1.8737-.5692.3287a.65.65 0 0 1-.975-.5629v-1.31z" clip-rule="evenodd"/></svg>