<svg width="16" height="16" viewBox="0 0 16 16" fill="none" xmlns="http://www.w3.org/2000/svg">
<path d="M6.98672 6.64069C6.98672 6.2817 7.27773 5.99069 7.63672 5.99069H10.3637C10.7227 5.99069 11.0137 6.2817 11.0137 6.64069C11.0137 6.99967 10.7227 7.29069 10.3637 7.29069H7.63672C7.27773 7.29069 6.98672 6.99967 6.98672 6.64069Z" fill="black"/>
<path d="M7.64764 8.69045C7.28866 8.69045 6.99764 8.98147 6.99764 9.34045C6.99764 9.69944 7.28866 9.99045 7.64764 9.99045H10.3746C10.7336 9.99045 11.0246 9.69944 11.0246 9.34045C11.0246 8.98147 10.7336 8.69045 10.3746 8.69045H7.64764Z" fill="black"/>
<path fill-rule="evenodd" clip-rule="evenodd" d="M6.39075 2.41138C4.87196 2.41138 3.64075 3.64259 3.64075 5.16138V10.8385C3.64075 12.3573 4.87197 13.5885 6.39075 13.5885H11.6096C13.1284 13.5885 14.3596 12.3573 14.3596 10.8385V5.16138C14.3596 3.64259 13.1284 2.41138 11.6096 2.41138H6.39075ZM5.14075 5.16138C5.14075 4.47102 5.70039 3.91138 6.39075 3.91138H11.6096C12.3 3.91138 12.8596 4.47102 12.8596 5.16138V10.8385C12.8596 11.5289 12.3 12.0885 11.6096 12.0885H6.39075C5.70039 12.0885 5.14075 11.5289 5.14075 10.8385V5.16138Z" fill="black"/>
<path d="M17.0502 9.34615C17.0502 10.485 16.4947 11.4852 15.6576 12.0541V3.94584C16.4947 4.51473 17.0502 5.51491 17.0502 6.65376V9.34615Z" fill="black"/>
<path d="M2.3432 3.94556C1.50583 4.51441 0.950195 5.51472 0.950195 6.65376V9.34615C0.950195 10.4852 1.50583 11.4855 2.3432 12.0543V3.94556Z" fill="black"/>
</svg>
