<svg width="16" height="16" viewBox="0 0 16 16" fill="none" xmlns="http://www.w3.org/2000/svg">
<path d="M5.99903 6.54066C5.99903 6.15525 6.28823 5.84281 6.64499 5.84281H9.35502C9.71178 5.84281 10.001 6.15525 10.001 6.54066C10.001 6.92608 9.71178 7.23852 9.35502 7.23852H6.64499C6.28823 7.23852 5.99903 6.92608 5.99903 6.54066Z" fill="black"/>
<path d="M6.65584 8.74133C6.29909 8.74133 6.00988 9.05377 6.00988 9.43918C6.00988 9.8246 6.29909 10.137 6.65584 10.137H9.36588C9.72264 10.137 10.0118 9.8246 10.0118 9.43918C10.0118 9.05377 9.72264 8.74133 9.36588 8.74133H6.65584Z" fill="black"/>
<path fill-rule="evenodd" clip-rule="evenodd" d="M5.40676 2C3.89741 2 2.67384 3.32186 2.67384 4.95245V11.0475C2.67384 12.6781 3.89741 14 5.40676 14H10.5932C12.1026 14 13.3261 12.6781 13.3261 11.0476V4.95245C13.3261 3.32186 12.1026 2 10.5932 2H5.40676ZM4.16452 4.95245C4.16452 4.21127 4.72069 3.61043 5.40676 3.61043H10.5932C11.2793 3.61043 11.8355 4.21127 11.8355 4.95245V11.0476C11.8355 11.7887 11.2793 12.3896 10.5932 12.3896H5.40676C4.72069 12.3896 4.16452 11.7887 4.16452 11.0475V4.95245Z" fill="black"/>
<path d="M16 9.4453C16 10.668 15.448 11.7418 14.6161 12.3526V3.64743C15.448 4.2582 16 5.33201 16 6.5547V9.4453Z" fill="black"/>
<path d="M1.38435 3.64713C0.552186 4.25785 0 5.33181 0 6.5547V9.4453C0 10.6682 0.552186 11.7421 1.38435 12.3529V3.64713Z" fill="black"/>
</svg>
