<svg width="16" height="16" viewBox="0 0 16 16" fill="none" xmlns="http://www.w3.org/2000/svg">
<path fill-rule="evenodd" clip-rule="evenodd" d="M14.9999 8.3328C14.98 4.50564 11.8887 1.40518 8.06513 1.37033C8.04355 1.36954 8.02185 1.36914 8.00004 1.36914C7.97823 1.36914 7.95654 1.36954 7.93497 1.37033C4.09893 1.40524 1 4.52574 1 8.37003C1 12.2132 4.09711 15.333 7.9316 15.3697C7.95428 15.3706 7.97709 15.371 8.00004 15.371C8.02299 15.371 8.04581 15.3706 8.0685 15.3697C8.17484 15.3687 8.28061 15.3653 8.38577 15.3596C8.29652 15.2946 8.21188 15.2288 8.13197 15.1629C7.77299 14.8668 7.47598 14.5429 7.25266 14.2308C7.14209 14.0763 7.03072 13.8983 6.93826 13.7042C6.87601 13.5735 6.7 13.1929 6.7 12.7035C6.7 12.6405 6.70291 12.5794 6.70812 12.5204C6.34972 11.6134 6.10067 10.3958 6.04032 9.02003C8.60049 9.02003 11.1137 9.02003 13.6633 9.02003C13.641 9.21715 13.6085 9.41122 13.5666 9.60172C13.9257 9.78144 14.2407 9.99112 14.5071 10.2052C14.5763 10.2608 14.6435 10.3177 14.7085 10.3755C14.8948 9.75153 14.9963 9.091 14.9999 8.40727C15.0006 8.39494 15.001 8.38253 15.001 8.37003C15.001 8.35753 15.0006 8.34512 14.9999 8.3328ZM6.04033 7.72003H9.95975C9.89732 6.29704 9.63303 5.04332 9.25465 4.12749C9.03652 3.5995 8.79326 3.21492 8.55639 2.97242C8.33801 2.74886 8.16036 2.67881 8.02891 2.6701L8 2.67003L7.97117 2.6701C7.83972 2.67881 7.66206 2.74886 7.44369 2.97242C7.20682 3.21492 6.96356 3.5995 6.74542 4.12749C6.36705 5.04332 6.10275 6.29704 6.04033 7.72003ZM13.6633 7.72003H11.2609C11.1978 6.15511 10.9088 4.72668 10.4561 3.63109C10.3828 3.45348 10.304 3.28207 10.2199 3.11847C12.0746 3.90346 13.4275 5.64235 13.6633 7.72003ZM4.73919 7.72003H2.33666C2.57251 5.64231 3.92541 3.9034 5.78021 3.11843C5.69605 3.28204 5.61731 3.45347 5.54393 3.63109C5.09129 4.72668 4.80225 6.15511 4.73919 7.72003ZM4.73919 9.02003H2.33666C2.57251 11.0977 3.92538 12.8366 5.78015 13.6216C5.69601 13.458 5.61729 13.2866 5.54393 13.1091C5.09128 12.0135 4.80224 10.585 4.73919 9.02003Z" fill="black"/>
<path fill-rule="evenodd" clip-rule="evenodd" d="M8.1769 9.94184C7.94038 10.2119 7.96755 10.6225 8.23759 10.8591L8.82253 11.3714C8.61483 11.5588 8.44414 11.7517 8.31548 11.929C8.23704 12.0372 8.16763 12.1486 8.11477 12.2577C8.07323 12.3434 8 12.5099 8 12.7035C8 12.894 8.07076 13.0587 8.11193 13.1452C8.16387 13.2542 8.23227 13.3658 8.30992 13.4743C8.46596 13.6924 8.68508 13.9339 8.95917 14.16C9.50668 14.6116 10.3184 15.0368 11.3333 15.0368C11.8439 15.0368 12.304 14.933 12.7055 14.7725L13.5655 15.5257C13.8356 15.7623 14.2462 15.7351 14.4828 15.4651C14.7193 15.195 14.6921 14.7844 14.4221 14.5478L13.8584 14.0541C14.0631 13.8698 14.2319 13.6776 14.3598 13.4959C14.4391 13.3832 14.5088 13.2657 14.5613 13.1484C14.6075 13.0452 14.6667 12.8852 14.6667 12.7035C14.6667 12.519 14.6055 12.3573 14.5587 12.2545C14.5052 12.1372 14.4344 12.0198 14.3543 11.9075C14.1935 11.6822 13.9695 11.4409 13.6928 11.2186C13.1398 10.7741 12.3302 10.3701 11.3333 10.3701C10.8249 10.3701 10.3662 10.4791 9.9661 10.6449L9.09414 9.88116C8.82409 9.64463 8.41343 9.6718 8.1769 9.94184ZM9.81419 12.2767L9.83592 12.259L11.4799 13.6989C11.4317 13.7019 11.3829 13.7035 11.3333 13.7035C10.704 13.7035 10.1823 13.4405 9.80758 13.1314C9.62416 12.9801 9.48671 12.8262 9.39938 12.7056C9.48839 12.5842 9.62834 12.4291 9.81419 12.2767ZM12.8642 13.1502L12.8444 13.166L11.1808 11.7088C11.2309 11.7053 11.2818 11.7035 11.3333 11.7035C11.9593 11.7035 12.483 11.9569 12.8576 12.2579C13.0448 12.4083 13.1831 12.5617 13.2688 12.6818C13.271 12.6849 13.2731 12.6879 13.2752 12.6908C13.2787 12.6958 13.282 12.7007 13.2853 12.7054C13.2803 12.7128 13.275 12.7206 13.2693 12.7286C13.1853 12.8481 13.0493 13.0006 12.8642 13.1502Z" fill="black"/>
</svg>
