<svg xmlns="http://www.w3.org/2000/svg" width="16" height="16" fill="none" viewBox="0 0 16 16"><path fill="#000" fill-rule="evenodd" d="M8 14.5c-.1629.6279-.1635.6291-.1638.629zm.1876.6224c-.0003 0-.0013-.0044-.1875-.6224zm0 0 .0012-.0004.0015-.0005.0038-.0011.011-.0035a4 4 0 0 0 .1526-.0527 6.3 6.3 0 0 0 .4067-.1671c.3378-.1518.8-.3903 1.3128-.7418 1.0265-.7036 2.2628-1.8653 3.1006-3.6925.4446-.9697.5431-2.0206.5431-2.9855V4.132a.65.65 0 0 0-.3506-.577l-4.61-2.3929a1.65 1.65 0 0 0-1.5204 0l-4.61 2.393a.65.65 0 0 0-.3506.5769v3.387c0 .937.0932 1.9534.5068 2.8998.8333 1.9069 2.0807 3.0825 3.1245 3.7801.5208.3481.9911.5775 1.3356.7211.1724.0719.3139.1225.4152.156a4 4 0 0 0 .157.0481l.0114.0031.004.0011.0024.0006a.653.653 0 0 0 .3514-.0066M8.1613 2.316a.35.35 0 0 0-.3225 0L3.5793 4.527v2.992c0 .866.0895 1.6735.398 2.3793q.123.281.2585.5373c.6206-.6014 1.467-.9723 2.4006-.9723h2.7275c.9247 0 1.7639.3639 2.3829.9553a8 8 0 0 0 .2493-.4976c.3298-.7193.4248-1.5506.4248-2.4437V4.527zm2.0238 4.0797c0 1.2068-.9783 2.1851-2.185 2.1851-1.2069 0-2.1852-.9783-2.1852-2.185 0-1.2069.9783-2.1852 2.1851-2.1852s2.1851.9783 2.1851 2.1851m-1.3 0a.8851.8851 0 1 1-1.7702 0 .8851.8851 0 0 1 1.7702 0M6.633 13.1182a7.17 7.17 0 0 1-1.67-1.555c.3945-.4885.998-.7999 1.6734-.7999h2.7275c.6601 0 1.2516.2975 1.6464.7671a7.68 7.68 0 0 1-1.668 1.5526c-.4393.3011-.832.503-1.111.6284a5 5 0 0 1-.243.1025 5 5 0 0 1-.2419-.0937c-.2794-.1165-.6732-.3078-1.1134-.602"/></svg>