<svg xmlns="http://www.w3.org/2000/svg" width="16" height="16" fill="none" viewBox="0 0 16 16"><path fill="#000" fill-rule="evenodd" d="M3.352 3.35c.0495-1.1129.9673-2 2.0924-2h5.1111c1.1251 0 2.043.8871 2.0924 2h.1185c1.0403 0 1.8836.8433 1.8836 1.8836a2.5 2.5 0 0 1-.7324 1.768L12.1472 8.772c-.6746 1.3261-1.9665 2.2854-3.4972 2.4995V13.35H10a.65.65 0 1 1 0 1.3H6a.65.65 0 1 1 0-1.3h1.35v-2.0784c-1.5308-.2141-2.8226-1.1734-3.4972-2.4995L2.0823 7.0016a2.5 2.5 0 0 1-.7323-1.768c0-1.0403.8433-1.8836 1.8835-1.8836zm7.2035-.7a.7945.7945 0 0 1 .7945.7944v3.2223c0 1.8501-1.4999 3.35-3.35 3.35s-3.35-1.4999-3.35-3.35V3.4445a.7944.7944 0 0 1 .7944-.7945zm-7.2055 2h-.1165a.5836.5836 0 0 0-.5835.5836c0 .3183.1264.6236.3516.8487l.3484.3485zm9.4164 0H12.65v1.7808l.3484-.3484a1.2 1.2 0 0 0 .3516-.8488.5836.5836 0 0 0-.5836-.5836M8 7.3334c.7363 0 1.3333-.597 1.3333-1.3334S8.7363 4.6667 8 4.6667c-.7364 0-1.3334.597-1.3334 1.3333 0 .7364.597 1.3334 1.3334 1.3334"/></svg>