<svg width="16" height="16" viewBox="0 0 16 16" fill="none" xmlns="http://www.w3.org/2000/svg">
<g clip-path="url(#clip0_33261_262)">
<path d="M5.06445 0.996338C3.9875 0.996338 3.11445 1.86938 3.11445 2.94634V2.99994H4.41445V2.94634C4.41445 2.58735 4.70547 2.29634 5.06445 2.29634H13.0538C13.4128 2.29634 13.7038 2.58735 13.7038 2.94634V5.99398C13.7038 6.35297 13.4128 6.64398 13.0538 6.64398H5.06445C4.70745 6.64398 4.41768 6.35618 4.41448 5.99994H3.11446C3.11767 7.07415 3.98948 7.94398 5.06445 7.94398H13.0538C14.1307 7.94398 15.0038 7.07094 15.0038 5.99398V2.94634C15.0038 1.86938 14.1307 0.996338 13.0538 0.996338H5.06445Z" fill="black"/>
<path d="M13.0538 10.7678C13.4128 10.7678 13.7038 11.0588 13.7038 11.4178V13.0535C13.7038 13.4125 13.4128 13.7035 13.0538 13.7035H5.06445C4.70547 13.7035 4.41445 13.4125 4.41445 13.0535V12.8857H5.17636C5.53534 12.8857 5.82636 12.5947 5.82636 12.2357C5.82636 11.8767 5.53534 11.5857 5.17636 11.5857H2.97992C2.60252 11.5857 2.29658 11.2797 2.29658 10.9023V5.80349C2.29658 5.4261 2.60252 5.12016 2.97992 5.12016H8.05853C8.04269 5.30463 8.10535 5.49457 8.24652 5.63574C8.50036 5.88958 8.91191 5.88958 9.16576 5.63574L9.87171 4.92978C10.1256 4.67594 10.1256 4.26438 9.87171 4.01054L9.16576 3.30459C8.91191 3.05074 8.50036 3.05074 8.24652 3.30458C8.10535 3.44575 8.04269 3.63569 8.05853 3.82016H2.97992C1.88455 3.82016 0.996582 4.70813 0.996582 5.80349V10.9023C0.996582 11.9977 1.88455 12.8857 2.97992 12.8857H3.11445V13.0535C3.11445 14.1305 3.9875 15.0035 5.06445 15.0035H13.0538C14.1307 15.0035 15.0038 14.1305 15.0038 13.0535V11.4178C15.0038 10.3408 14.1307 9.4678 13.0538 9.4678H5.06445C4.21479 9.4678 3.50541 10.0096 3.23818 10.7678H13.0538Z" fill="black"/>
<path d="M12.9419 12.2357C12.9419 12.6256 12.6258 12.9416 12.2359 12.9416C11.846 12.9416 11.53 12.6256 11.53 12.2357C11.53 11.8458 11.846 11.5297 12.2359 11.5297C12.6258 11.5297 12.9419 11.8458 12.9419 12.2357Z" fill="black"/>
<path d="M10.118 12.9416C10.5079 12.9416 10.824 12.6256 10.824 12.2357C10.824 11.8458 10.5079 11.5297 10.118 11.5297C9.72816 11.5297 9.41209 11.8458 9.41209 12.2357C9.41209 12.6256 9.72816 12.9416 10.118 12.9416Z" fill="black"/>
</g>
<defs>
<clipPath id="clip0_33261_262">
<rect width="16" height="16" fill="white"/>
</clipPath>
</defs>
</svg>
