<svg xmlns="http://www.w3.org/2000/svg" width="16" height="16" fill="none" viewBox="0 0 16 16"><path fill="#000" fill-rule="evenodd" d="M5.0643.9964c-1.077 0-1.95.873-1.95 1.95V3h1.3v-.0536a.65.65 0 0 1 .65-.65h7.9893a.65.65 0 0 1 .65.65V5.994a.65.65 0 0 1-.65.65H5.0643a.65.65 0 0 1-.65-.644h-1.3c.0032 1.0742.875 1.944 1.95 1.944h7.9893c1.077 0 1.95-.873 1.95-1.95V2.9464c0-1.077-.873-1.95-1.95-1.95zm8.6393 10.4215a.65.65 0 0 0-.65-.65H3.238c.2672-.7583.9766-1.3 1.8263-1.3h7.9893c1.077 0 1.95.873 1.95 1.95v1.6357c0 1.077-.873 1.95-1.95 1.95H5.0643c-1.077 0-1.95-.873-1.95-1.95v-.1679h-.1346c-1.0953 0-1.9833-.8879-1.9833-1.9833V5.8036c0-1.0954.888-1.9834 1.9833-1.9834h5.0787a.65.65 0 0 1 1.1072-.5156l.706.706a.65.65 0 0 1 0 .9192l-.706.706a.65.65 0 0 1-1.1072-.5156H2.9797a.6833.6833 0 0 0-.6833.6834v5.0988c0 .3774.306.6833.6833.6833h2.1965a.65.65 0 1 1 0 1.3h-.762v.1679c0 .359.291.65.65.65h7.9894a.65.65 0 0 0 .65-.65zm-2.8798.8178a.706.706 0 1 1-1.4119.0001.706.706 0 0 1 1.4119-.0001m1.4119.706a.706.706 0 1 0 0-1.412.706.706 0 0 0 0 1.412"/></svg>