<svg xmlns="http://www.w3.org/2000/svg" width="16" height="16" fill="none" viewBox="0 0 16 16"><path fill="#000" fill-rule="evenodd" d="M8.6787 1.4795a3.97 3.97 0 0 1 3.0986 1.4902l.0918.1153a1.97 1.97 0 0 1 .4326 1.2304v1.3457l-1.5185-1.8965A2.698 2.698 0 0 0 8.6787 2.752H4.999a2.684 2.684 0 0 0-1.2968.334v-.4668c.0001-.5548.3496-1.0638.8925-1.1191a4 4 0 0 1 .4043-.0205zm1.0176 3.039a1.305 1.305 0 0 0-1.0176-.4892H4.999c-.7193.0002-1.3024.5834-1.3027 1.3027v7.9991c0 .7196.5832 1.3035 1.3027 1.3037h5.999c.7198 0 1.3037-.584 1.3037-1.3037V8.2324a1.306 1.306 0 0 0-.2861-.8144zm1.332 8.8428H4.9688V5.3018h3.7236l.0098.0117 2.3193 2.9004.0068.0078zM6.9833 7.332a.6514.6514 0 0 0-.6503-.6504.651.651 0 0 0-.6504.6504v.667a.65.65 0 0 0 .6504.6494c.3587-.0002.6502-.2907.6504-.6494zm1.9991 0a.651.651 0 0 0-.6504-.6504.6513.6513 0 0 0-.6504.6504v.667c.0002.3587.2917.6493.6504.6494a.65.65 0 0 0 .6504-.6494z"/></svg>