<svg width="16" height="16" viewBox="0 0 16 16" fill="none" xmlns="http://www.w3.org/2000/svg">
<path d="M3.99998 1.01672C3.64099 1.01672 3.34998 1.30774 3.34998 1.66672C3.34998 2.02571 3.64099 2.31672 3.99998 2.31672H12C12.359 2.31672 12.65 2.02571 12.65 1.66672C12.65 1.30774 12.359 1.01672 12 1.01672H3.99998Z" fill="black"/>
<path fill-rule="evenodd" clip-rule="evenodd" d="M5.59924 7.40576C5.59924 6.08633 6.66885 5.01672 7.98828 5.01672C9.3077 5.01672 10.3773 6.08633 10.3773 7.40576C10.3773 8.72518 9.3077 9.79479 7.98828 9.79479C6.66885 9.79479 5.59924 8.72518 5.59924 7.40576ZM7.98828 6.31672C7.38682 6.31672 6.89924 6.8043 6.89924 7.40576C6.89924 8.00721 7.38682 8.49479 7.98828 8.49479C8.58973 8.49479 9.07731 8.00721 9.07731 7.40576C9.07731 6.8043 8.58973 6.31672 7.98828 6.31672Z" fill="black"/>
<path fill-rule="evenodd" clip-rule="evenodd" d="M4.0666 3.01672C2.93442 3.01672 2.0166 3.93454 2.0166 5.06672V12.9334C2.0166 14.0656 2.93442 14.9834 4.0666 14.9834H11.9333C13.0655 14.9834 13.9833 14.0656 13.9833 12.9334V5.06672C13.9833 3.93454 13.0655 3.01672 11.9333 3.01672H4.0666ZM3.3166 5.06672C3.3166 4.65251 3.65239 4.31672 4.0666 4.31672H11.9333C12.3475 4.31672 12.6833 4.65251 12.6833 5.06672V12.9334C12.6833 13.3308 12.3742 13.656 11.9833 13.6818V13.2C11.9833 11.626 10.7073 10.35 9.13327 10.35H6.8666C5.29259 10.35 4.0166 11.626 4.0166 13.2V13.6818C3.6257 13.656 3.3166 13.3308 3.3166 12.9334V5.06672ZM5.3166 13.6834H10.6833V13.2C10.6833 12.344 9.98931 11.65 9.13327 11.65H6.8666C6.01056 11.65 5.3166 12.344 5.3166 13.2V13.6834Z" fill="black"/>
</svg>
