<svg xmlns="http://www.w3.org/2000/svg" width="16" height="16" fill="none" viewBox="0 0 16 16"><path fill="#000" fill-rule="evenodd" d="M4 1.0167a.65.65 0 1 0 0 1.3h8a.65.65 0 1 0 0-1.3zm-1.9834 4.05c0-1.1322.9178-2.05 2.05-2.05h7.8667c1.1322 0 2.05.9178 2.05 2.05v7.8667c0 1.1322-.9178 2.05-2.05 2.05H4.0666c-1.1322 0-2.05-.9178-2.05-2.05zm2.05-.75a.75.75 0 0 0-.75.75v7.8667a.75.75 0 0 0 .7.7483V13.2c0-1.574 1.276-2.85 2.85-2.85h2.2667c1.574 0 2.85 1.276 2.85 2.85v.4817a.75.75 0 0 0 .7-.7483V5.0667a.75.75 0 0 0-.75-.75zm1.5326 3.089c0-1.3194 1.0696-2.389 2.389-2.389 1.3195 0 2.3891 1.0696 2.3891 2.389s-1.0696 2.389-2.389 2.389c-1.3195 0-2.389-1.0696-2.389-2.389m2.389-1.089c-.6014 0-1.089.4876-1.089 1.089 0 .6015.4876 1.089 1.089 1.089.6015 0 1.0891-.4875 1.0891-1.089s-.4876-1.089-1.089-1.089m2.6951 7.3667H5.3166V13.2c0-.856.694-1.55 1.55-1.55h2.2667c.856 0 1.55.694 1.55 1.55z"/></svg>