<svg xmlns="http://www.w3.org/2000/svg" width="16" height="16" fill="none" viewBox="0 0 16 16"><path fill="#000" fill-rule="evenodd" d="M15 8c0 3.866-3.134 7-7 7s-7-3.134-7-7 3.134-7 7-7 7 3.134 7 7m-1.3 0c0 1.1732-.3545 2.2637-.9622 3.1701-.3323-1.5582-1.7167-2.7268-3.374-2.7268H6.6362c-1.6573 0-3.0417 1.1687-3.374 2.7268C2.6545 10.2637 2.3 9.1733 2.3 8c0-3.148 2.552-5.7 5.7-5.7s5.7 2.552 5.7 5.7m-3.5149-2.6243c0 1.2068-.9783 2.1851-2.1851 2.1851s-2.1851-.9783-2.1851-2.185c0-1.2069.9783-2.1852 2.185-2.1852 1.2069 0 2.1852.9783 2.1852 2.1851m-1.3 0a.8851.8851 0 1 1-1.7702 0 .8851.8851 0 0 1 1.7702 0m2.6287 6.5176v.5952A5.676 5.676 0 0 1 8 13.7a5.676 5.676 0 0 1-3.5138-1.2115v-.5952c0-1.1874.9626-2.15 2.15-2.15h2.7276c1.1874 0 2.15.9626 2.15 2.15"/></svg>