<svg width="16" height="16" viewBox="0 0 16 16" fill="none" xmlns="http://www.w3.org/2000/svg">
<path fill-rule="evenodd" clip-rule="evenodd" d="M10.1852 5.37572C10.1852 6.58252 9.20685 7.56083 8.00005 7.56083C6.79325 7.56083 5.81494 6.58252 5.81494 5.37572C5.81494 4.16892 6.79325 3.19061 8.00005 3.19061C9.20685 3.19061 10.1852 4.16892 10.1852 5.37572ZM8.88516 5.37572C8.88516 5.86455 8.48888 6.26083 8.00005 6.26083C7.51122 6.26083 7.11494 5.86455 7.11494 5.37572C7.11494 4.88689 7.51122 4.49061 8.00005 4.49061C8.48888 4.49061 8.88516 4.88689 8.88516 5.37572Z" fill="black"/>
<path fill-rule="evenodd" clip-rule="evenodd" d="M15 8C15 11.866 11.866 15 8 15C4.13401 15 1 11.866 1 8C1 4.13401 4.13401 1 8 1C11.866 1 15 4.13401 15 8ZM13.7 8C13.7 9.17328 13.3455 10.2638 12.7378 11.1702C12.4055 9.61198 11.0211 8.44332 9.36371 8.44332H6.63618C4.97888 8.44332 3.59451 9.61192 3.26212 11.1701C2.65446 10.2637 2.3 9.17322 2.3 8C2.3 4.85198 4.85198 2.3 8 2.3C11.148 2.3 13.7 4.85198 13.7 8ZM11.5137 11.8933V12.4885C10.7061 13.1216 9.72323 13.5415 8.65 13.6633V9.74332H9.36371C10.5511 9.74332 11.5137 10.7059 11.5137 11.8933ZM7.35 9.74332V13.6633C6.27672 13.5415 5.29385 13.1216 4.48618 12.4884V11.8933C4.48618 10.7059 5.44877 9.74332 6.63618 9.74332H7.35Z" fill="black"/>
</svg>
