<svg xmlns="http://www.w3.org/2000/svg" width="16" height="16" fill="none" viewBox="0 0 16 16"><path fill="#000" fill-rule="evenodd" d="M8 15c3.866 0 7-3.134 7-7s-3.134-7-7-7-7 3.134-7 7 3.134 7 7 7m4.7378-3.8298c.6077-.9064.9622-1.997.9622-3.1702 0-3.148-2.552-5.7-5.7-5.7S2.3 4.852 2.3 8c0 1.1732.3545 2.2637.9621 3.1701.3324-1.5582 1.7168-2.7268 3.374-2.7268h2.7276c1.6574 0 3.0418 1.1687 3.3741 2.7269M8.0001 7.5608c1.2068 0 2.1851-.9783 2.1851-2.185 0-1.2069-.9783-2.1852-2.1851-2.1852-1.2069 0-2.1852.9783-2.1852 2.1851s.9783 2.1851 2.1852 2.1851m0-1.3a.8851.8851 0 1 0 0-1.7702.8851.8851 0 0 0 0 1.7702M7.35 13.6633v-3.92h-.7138c-1.1874 0-2.15.9626-2.15 2.15v.5951A5.67 5.67 0 0 0 7.35 13.6633m4.1637-1.1748v-.5952c0-1.1874-.9626-2.15-2.15-2.15H8.65v3.92a5.67 5.67 0 0 0 2.8637-1.1748"/></svg>