<svg xmlns="http://www.w3.org/2000/svg" width="16" height="16" fill="none" viewBox="0 0 16 16"><path fill="#000" fill-rule="evenodd" d="M15 8c0 2.0012-.8398 3.8063-2.1862 5.0821v-.928c0-1.9054-1.5446-3.45-3.45-3.45H6.6363c-1.9054 0-3.45 1.5446-3.45 3.45v.9281C1.8398 11.8064 1 10.0013 1 8c0-3.866 3.134-7 7-7s7 3.134 7 7m-4.8147-2.6243c0 1.2068-.9783 2.1851-2.1852 2.1851s-2.185-.9783-2.185-2.185c0-1.2069.9782-2.1852 2.185-2.1852s2.1852.9783 2.1852 2.1851m-2.1852.8851a.8851.8851 0 1 0 0-1.7702.8851.8851 0 0 0 0 1.7702m3.5137 7.7947v-1.9014c0-1.1874-.9626-2.15-2.15-2.15H6.6363c-1.1874 0-2.15.9626-2.15 2.15v1.9015C5.519 14.6561 6.7193 15 8 15s2.4811-.3439 3.5138-.9445"/></svg>