<svg xmlns="http://www.w3.org/2000/svg" width="16" height="16" fill="none" viewBox="0 0 16 16"><path fill="#000" fill-rule="evenodd" d="M3.4 4.6834h.2216c.5095-1.1768 1.6811-2 3.045-2 1.364 0 2.5356.8232 3.045 2H12.6c1.1322 0 2.05.9178 2.05 2.05v3.2c0 1.1321-.9178 2.0499-2.05 2.0499h-.6167v.6834a.65.65 0 1 1-1.3 0v-.6834H5.3166v.6834a.65.65 0 1 1-1.3 0v-.6834H3.4c-1.1322 0-2.05-.9178-2.05-2.05v-3.2c0-1.1321.9178-2.05 2.05-2.05m3.2666-.7C5.553 3.9834 4.65 4.8863 4.65 6s.9029 2.0167 2.0166 2.0167S8.6833 7.1137 8.6833 6s-.9029-2.0166-2.0167-2.0166M3.35 6v-.015a.75.75 0 0 0-.7.7483v3.2a.75.75 0 0 0 .75.75h9.2a.75.75 0 0 0 .75-.75v-3.2a.75.75 0 0 0-.75-.75H9.9833V6c0 1.8318-1.4849 3.3167-3.3167 3.3167S3.35 7.8317 3.35 6M12 8a.6667.6667 0 1 0 0-1.3333A.6667.6667 0 0 0 12 8"/></svg>