<svg width="16" height="16" viewBox="0 0 16 16" fill="none" xmlns="http://www.w3.org/2000/svg">
<path d="M12.6668 7.33335C12.6668 7.70154 12.3683 8.00002 12.0001 8.00002C11.6319 8.00002 11.3334 7.70154 11.3334 7.33335C11.3334 6.96516 11.6319 6.66669 12.0001 6.66669C12.3683 6.66669 12.6668 6.96516 12.6668 7.33335Z" fill="black"/>
<path fill-rule="evenodd" clip-rule="evenodd" d="M3.62172 4.68335H3.4001C2.26791 4.68335 1.3501 5.60117 1.3501 6.73335V9.93335C1.3501 11.0655 2.26791 11.9833 3.4001 11.9833H4.01675V12.6667C4.01675 13.0257 4.30777 13.3167 4.66675 13.3167C5.02574 13.3167 5.31675 13.0257 5.31675 12.6667V11.9833H10.6834V12.6667C10.6834 13.0257 10.9744 13.3167 11.3334 13.3167C11.6924 13.3167 11.9834 13.0257 11.9834 12.6667V11.9833H12.6001C13.7323 11.9833 14.6501 11.0655 14.6501 9.93335V6.73335C14.6501 5.60117 13.7323 4.68335 12.6001 4.68335H9.7118C9.2023 3.50663 8.03068 2.68335 6.66676 2.68335C5.30285 2.68335 4.13123 3.50663 3.62172 4.68335ZM4.6501 6.00002C4.6501 4.88624 5.55299 3.98335 6.66676 3.98335C7.78054 3.98335 8.68343 4.88624 8.68343 6.00002C8.68343 7.11379 7.78054 8.01668 6.66676 8.01668C5.55299 8.01668 4.6501 7.11379 4.6501 6.00002ZM3.35013 5.98499C3.35011 5.98999 3.3501 5.995 3.3501 6.00002C3.3501 7.83176 4.83502 9.31668 6.66676 9.31668C8.49851 9.31668 9.98343 7.83176 9.98343 6.00002C9.98343 5.99446 9.98342 5.9889 9.98339 5.98335H12.6001C13.0143 5.98335 13.3501 6.31914 13.3501 6.73335V9.93335C13.3501 10.3476 13.0143 10.6833 12.6001 10.6833H3.4001C2.98588 10.6833 2.6501 10.3476 2.6501 9.93335V6.73335C2.6501 6.33593 2.95921 6.0107 3.35013 5.98499Z" fill="black"/>
</svg>
