<svg xmlns="http://www.w3.org/2000/svg" width="16" height="16" fill="none" viewBox="0 0 16 16"><path fill="#000" fill-rule="evenodd" d="M10.0772 14.1551c-.5128.3516-.975.5901-1.3128.7419q-.0548.0248-.1118.0517c-.2052.0959-.4302.2011-.6525.2011-.2174-.0001-.4516-.1005-.6578-.189q-.0493-.0211-.0961-.0408c-.3445-.1436-.8148-.373-1.3356-.7211-1.0438-.6976-2.2912-1.8732-3.1245-3.7801-.4136-.9464-.5068-1.9628-.5068-2.8998V4.132a.65.65 0 0 1 .3505-.577L7.24 1.1622a1.65 1.65 0 0 1 1.5203 0l4.6101 2.393a.65.65 0 0 1 .3506.5769v3.3452c0 .9648-.0985 2.0158-.5431 2.9855-.8378 1.8272-2.0742 2.9889-3.1006 3.6924m.4817-7.7824a.65.65 0 0 1 0 .9193l-2.335 2.335a.65.65 0 0 1-.9192 0L5.878 8.2a.65.65 0 1 1 .9192-.9192l.9673.9672 1.8753-1.8753a.65.65 0 0 1 .9192 0" clip-rule="evenodd"/></svg>