<svg width="16" height="16" viewBox="0 0 16 16" fill="none" xmlns="http://www.w3.org/2000/svg">
<path fill-rule="evenodd" clip-rule="evenodd" d="M12.5029 1C12.6687 1 12.8092 1.12181 12.8328 1.28588L12.9209 1.89817C13.1022 1.97184 13.2722 2.06663 13.4273 2.17947L14.0428 1.93965C14.1939 1.88078 14.3654 1.93916 14.4492 2.07796L14.9521 2.91106C15.041 3.05816 15.0034 3.24866 14.8654 3.35104L14.3531 3.73111C14.3639 3.81936 14.3694 3.90907 14.3694 3.99992C14.3694 4.09092 14.3639 4.18077 14.3531 4.26917L14.865 4.64935C15.0029 4.75176 15.0404 4.94219 14.9516 5.08924L14.4487 5.92234C14.3649 6.06119 14.1933 6.11955 14.0422 6.0606L13.427 5.8206C13.272 5.93333 13.1021 6.02805 12.9209 6.10166L12.8328 6.71412C12.8092 6.87819 12.6687 7 12.5029 7H11.497C11.3311 7 11.1905 6.87811 11.167 6.71396L11.0792 6.10171C10.898 6.02809 10.7281 5.93336 10.573 5.82061L9.95807 6.06055C9.80697 6.1195 9.63537 6.06114 9.55154 5.9223L9.04857 5.0892C8.9598 4.94215 8.9973 4.75171 9.1352 4.6493L9.64699 4.26925C9.63616 4.18083 9.6306 4.09095 9.6306 3.99992C9.6306 3.90904 9.63614 3.8193 9.64693 3.73101L9.13484 3.35109C8.99684 3.24871 8.95928 3.0582 9.04809 2.9111L9.55106 2.078C9.63486 1.9392 9.80638 1.88083 9.95745 1.9397L10.5727 2.17945C10.7279 2.0666 10.8979 1.97179 11.0793 1.89813L11.167 1.28604C11.1905 1.12189 11.3311 1 11.497 1H12.5029ZM12.7334 4C12.7334 4.40499 12.4051 4.73331 12.0001 4.73331C11.5951 4.73331 11.2668 4.40499 11.2668 4C11.2668 3.59501 11.5951 3.26669 12.0001 3.26669C12.4051 3.26669 12.7334 3.59501 12.7334 4Z" fill="black"/>
<path d="M8.43866 6.59419L8.05128 5.95254H3.0617C2.70272 5.95254 2.4117 5.66152 2.4117 5.30254V3.99533C2.4117 3.63635 2.70272 3.34533 3.0617 3.34533H7.72128C7.66102 2.97484 7.72774 2.58285 7.93521 2.2392L8.05226 2.04533H3.0617C1.98475 2.04533 1.1117 2.91838 1.1117 3.99533V5.30254C1.1117 6.37949 1.98475 7.25254 3.0617 7.25254H7.3501V9.87336C6.98898 10.0341 6.69841 10.3247 6.53766 10.6858H1.69541C1.33643 10.6858 1.04541 10.9768 1.04541 11.3358C1.04541 11.6948 1.33643 11.9858 1.69541 11.9858H6.53766C6.78681 12.5455 7.34789 12.9358 8.00012 12.9358C8.65234 12.9358 9.21342 12.5455 9.46258 11.9858H14.3048C14.6638 11.9858 14.9548 11.6948 14.9548 11.3358C14.9548 10.9768 14.6638 10.6858 14.3048 10.6858H9.46257C9.30182 10.3247 9.01123 10.0341 8.6501 9.87335V7.25254H9.19641C8.88978 7.12192 8.62158 6.89716 8.43866 6.59419Z" fill="black"/>
<path d="M5.2353 4.64893C5.2353 5.06314 4.89951 5.39893 4.4853 5.39893C4.07108 5.39893 3.7353 5.06314 3.7353 4.64893C3.7353 4.23471 4.07108 3.89893 4.4853 3.89893C4.89951 3.89893 5.2353 4.23471 5.2353 4.64893Z" fill="black"/>
</svg>
