<svg xmlns="http://www.w3.org/2000/svg" width="16" height="16" fill="none" viewBox="0 0 16 16"><path fill="#000" fill-rule="evenodd" d="M4.776 3.2905c0-.366.0644-.7051.1943-1.0175.1289-.3123.3232-.5977.582-.8564s.544-.4528.8565-.5822.6513-.194 1.0175-.194c.3653 0 .7051.0646 1.0167.194.3125.1294.5976.3234.8564.5821q.3882.3881.583.8566.1934.4685.1934 1.0172v.0167h.8105q.3824 0 .7149.1282c.2217.0855.4277.2137.6162.3846.1885.171.3369.3624.4444.5746.1064.2122.1728.445.1982.6985l.2295 2.2921a3.3 3.3 0 0 0-.0986-.1619 3.2 3.2 0 0 0-.126-.1758 3 3 0 0 0-.127-.1526 2.92 2.92 0 0 0-.5381-.4704 2.94 2.94 0 0 0-.542-.2923l-.0908-.9096a.68.68 0 0 0-.0693-.2407c-.0362-.0731-.0879-.1391-.1524-.198a.68.68 0 0 0-.2129-.1325.68.68 0 0 0-.2461-.0442h-.8105v.6834c0 .364-.2861.65-.6494.65-.3643 0-.6504-.286-.6504-.65V4.607H6.0757v.6834c0 .364-.2861.65-.6494.65-.3642 0-.6504-.286-.6504-.65V4.607h-.8096a.68.68 0 0 0-.246.0442.67.67 0 0 0-.212.1325.68.68 0 0 0-.1533.198.68.68 0 0 0-.0684.2407l-.7334 7.3333a.69.69 0 0 0 .0284.2825.68.68 0 0 0 .1455.244c.0673.075.1435.1312.2275.1686l.0117.0051a.69.69 0 0 0 .2666.0511H6.07a2.9 2.9 0 0 0-.0303.3041v.0001a3.2 3.2 0 0 0-.002.2159c.002.066.0069.1319.0127.1975v.0003c.0206.1961.0596.3901.1202.5821H3.2329c-.293 0-.5625-.0543-.8076-.1631-.003-.0011-.0049-.0022-.0078-.0033-.2422-.1087-.46-.2707-.6543-.486q-.2961-.3262-.421-.7083l-.0009-.0026c-.084-.254-.1103-.5264-.081-.8173l.7324-7.3333q.0381-.3802.1992-.6985c.1065-.2123.2549-.4038.4434-.5747.1894-.171.3945-.2992.6162-.3847q.3326-.1282.7148-.1282h.8096zm4 .0165H6.0757v-.0166c0-.1863.0332-.359.0987-.518.0664-.1592.165-.3048.2969-.4366q.1977-.1977.4365-.2966t.5185-.0988q.2786 0 .5176.0988.2388.099.4366.2966c.1318.1318.2304.2772.2968.4363.0655.1591.0987.3318.0987.5182zm3.5625 5.7812h.7901c.1943 0 .3769.031.5498.0926.1562.056.3037.1374.4414.2443q.1904.1474.3252.335.145.201.2256.4484c.0527.1648.08.3299.081.495.001.154-.0215.3081-.0664.4623a1.62 1.62 0 0 1-.2129.4569c-.1035.1513-.2334.2841-.3916.3985l-.6377.464.2432.7507q.0908.2775.082.5519v.0001c-.0049.1659-.0371.3309-.0957.4951a1.6 1.6 0 0 1-.2178.413 1.61 1.61 0 0 1-.3574.3525 1.6 1.6 0 0 1-.4453.2306 1.61 1.61 0 0 1-.46.0798 1.6 1.6 0 0 1-.501-.0619q-.2634-.077-.499-.2485l-.6387-.4639-.6387.4639c-.1572.1144-.3242.1972-.5.2485a1.6 1.6 0 0 1-.501.0619 1.61 1.61 0 0 1-.4599-.0798 1.63 1.63 0 0 1-.4453-.2306 1.63 1.63 0 0 1-.3575-.3525 1.64 1.64 0 0 1-.2177-.413c-.0586-.1642-.0908-.3292-.0957-.4951q-.0088-.2745.082-.552l.2441-.7507-.6386-.464c-.1573-.1144-.2881-.2472-.3907-.3985a1.6 1.6 0 0 1-.2138-.4569 1.61 1.61 0 0 1-.0664-.4623 1.62 1.62 0 0 1 .082-.495 1.59 1.59 0 0 1 .2246-.4485 1.61 1.61 0 0 1 .3252-.335 1.6 1.6 0 0 1 .4414-.244c.1729-.0619.3555-.0927.5508-.0927l.789-.0001.2442-.7507q.0894-.2775.2578-.4948a1.61 1.61 0 0 1 .3682-.3442 1.6 1.6 0 0 1 .4199-.206 1.62 1.62 0 0 1 .4961-.0753c.1729 0 .3379.0251.4961.0753q.2198.0703.419.206c.1435.0982.2666.213.3682.3442.1123.1449.1982.3098.2587.4948zm-.7109 1.3a.322.322 0 0 1-.3057-.2221l-.0859-.264-.377-1.1629c-.0967-.296-.5156-.296-.6113 0l-.293.9014-.085.2614-.086.2641a.322.322 0 0 1-.3056.2221h-1.5c-.3115 0-.4414.3983-.1895.5813l.7667.5571.2226.1616.2246.1632a.322.322 0 0 1 .1172.3592l-.086.2641-.0849.2615-.293.9014c-.0966.296.2422.5421.4942.3592l.7666-.557.2227-.1616.2246-.1632a.321.321 0 0 1 .3779 0l.2246.1632.2227.1616.7666.557c.2519.1829.5908-.0632.4941-.3592l-.2929-.9014-.085-.2615-.085-.2641a.3215.3215 0 0 1 .1163-.3592l.4472-.3248.7666-.5571c.252-.183.1221-.5813-.1884-.5813z"/></svg>