<svg width="16" height="16" viewBox="0 0 16 16" fill="none" xmlns="http://www.w3.org/2000/svg">
<path d="M8.0001 2.3501C7.76617 2.3501 7.53514 2.35441 7.30765 2.36281C6.94891 2.37607 6.66884 2.67763 6.68209 3.03637C6.69535 3.39511 6.99691 3.67518 7.35565 3.66193C7.56709 3.65411 7.78212 3.6501 8.0001 3.6501C8.21807 3.6501 8.43311 3.65411 8.64455 3.66193C9.00329 3.67518 9.30485 3.39511 9.3181 3.03637C9.33136 2.67763 9.05129 2.37607 8.69255 2.36281C8.46506 2.35441 8.23402 2.3501 8.0001 2.3501Z" fill="black"/>
<path d="M5.44344 3.84863C5.79762 3.79007 6.03726 3.45548 5.9787 3.1013C5.92014 2.74712 5.58555 2.50748 5.23137 2.56604C4.73569 2.648 4.27159 2.752 3.85043 2.87578C3.50601 2.97701 3.30886 3.33827 3.41009 3.68269C3.51131 4.02711 3.87258 4.22426 4.21699 4.12303C4.58058 4.01617 4.99238 3.92321 5.44344 3.84863Z" fill="black"/>
<path d="M10.7688 2.56604C10.4146 2.50748 10.0801 2.74712 10.0215 3.1013C9.96294 3.45548 10.2026 3.79007 10.5568 3.84863C11.0078 3.92321 11.4196 4.01617 11.7832 4.12303C12.1276 4.22426 12.4889 4.02711 12.5901 3.68269C12.6913 3.33827 12.4942 2.97701 12.1498 2.87578C11.7286 2.752 11.2645 2.648 10.7688 2.56604Z" fill="black"/>
<path d="M14.2059 3.96229C13.9611 3.69976 13.5498 3.68543 13.2873 3.93027C13.0247 4.17512 13.0104 4.58642 13.2552 4.84895C13.3049 4.90223 13.329 4.94217 13.3401 4.9664C13.3501 4.98825 13.3501 4.99802 13.3501 5.00002C13.3501 4.99996 13.3501 5.00007 13.3501 5.00002C13.3501 5.00235 13.3499 5.01249 13.3401 5.03379C13.329 5.05802 13.3049 5.09797 13.2552 5.15124C13.0104 5.41377 13.0247 5.82508 13.2873 6.06992C13.4447 6.21675 13.6556 6.27037 13.8521 6.23317C13.8996 6.24424 13.9492 6.2501 14.0001 6.2501C14.3591 6.2501 14.6501 5.95908 14.6501 5.6001V5.0001C14.6501 4.58142 14.4564 4.23087 14.2059 3.96229Z" fill="black"/>
<path d="M2.74495 4.84895C2.9898 4.58642 2.97546 4.17512 2.71293 3.93027C2.4504 3.68543 2.0391 3.69976 1.79425 3.96229C1.54376 4.23087 1.3501 4.58142 1.3501 5.0001V5.6001C1.3501 5.95908 1.64111 6.2501 2.0001 6.2501C2.05102 6.2501 2.10058 6.24424 2.14813 6.23317C2.34458 6.27037 2.5555 6.21675 2.71293 6.06992C2.97546 5.82508 2.9898 5.41377 2.74495 5.15124C2.69526 5.09797 2.6712 5.05802 2.6601 5.03379C2.65035 5.01252 2.6501 5.0027 2.6501 5.00035C2.6501 5.00029 2.6501 5.0004 2.6501 5.00035C2.6501 4.99835 2.65009 4.98825 2.6601 4.9664C2.6712 4.94217 2.69526 4.90223 2.74495 4.84895Z" fill="black"/>
<path d="M4.21699 5.87716C3.87258 5.77594 3.51131 5.97309 3.41009 6.31751C3.30886 6.66193 3.50601 7.02319 3.85043 7.12441C4.27159 7.24819 4.73569 7.3522 5.23137 7.43416C5.58555 7.49272 5.92014 7.25307 5.9787 6.8989C6.03726 6.54472 5.79762 6.21013 5.44344 6.15157C4.99238 6.07699 4.58058 5.98402 4.21699 5.87716Z" fill="black"/>
<path d="M12.1498 7.12441C12.4942 7.02319 12.6913 6.66193 12.5901 6.31751C12.4889 5.97309 12.1276 5.77594 11.7832 5.87716C11.4196 5.98402 11.0078 6.07699 10.5568 6.15157C10.2026 6.21013 9.96293 6.54472 10.0215 6.8989C10.0801 7.25307 10.4146 7.49272 10.7688 7.43416C11.2645 7.3522 11.7286 7.24819 12.1498 7.12441Z" fill="black"/>
<path d="M7.35565 6.33827C6.99691 6.32501 6.69535 6.60509 6.68209 6.96383C6.66884 7.32257 6.94891 7.62413 7.30765 7.63738C7.53514 7.64579 7.76617 7.6501 8.0001 7.6501C8.23402 7.6501 8.46506 7.64579 8.69255 7.63738C9.05129 7.62413 9.33136 7.32257 9.3181 6.96383C9.30485 6.60509 9.00329 6.32501 8.64455 6.33827C8.43311 6.34608 8.21807 6.3501 8.0001 6.3501C7.78212 6.3501 7.56709 6.34608 7.35565 6.33827Z" fill="black"/>
<path d="M14.6501 7.4001C14.6501 7.04111 14.3591 6.7501 14.0001 6.7501C13.6411 6.7501 13.3501 7.04111 13.3501 7.4001V8.6001C13.3501 8.95908 13.6411 9.2501 14.0001 9.2501C14.3591 9.2501 14.6501 8.95908 14.6501 8.6001V7.4001Z" fill="black"/>
<path d="M2.6501 7.4001C2.6501 7.04111 2.35908 6.7501 2.0001 6.7501C1.64111 6.7501 1.3501 7.04111 1.3501 7.4001V8.6001C1.3501 8.95908 1.64111 9.2501 2.0001 9.2501C2.35908 9.2501 2.6501 8.95908 2.6501 8.6001V7.4001Z" fill="black"/>
<path d="M2.6501 10.4001C2.6501 10.0411 2.35908 9.7501 2.0001 9.7501C1.64111 9.7501 1.3501 10.0411 1.3501 10.4001V11.0001C1.3501 11.4188 1.54376 11.7693 1.79425 12.0379C2.0391 12.3004 2.4504 12.3148 2.71293 12.0699C2.97546 11.8251 2.9898 11.4138 2.74495 11.1512C2.69526 11.098 2.6712 11.058 2.6601 11.0338C2.65009 11.0119 2.6501 11.0022 2.6501 11.0002V10.4001Z" fill="black"/>
<path d="M14.6501 10.4001C14.6501 10.0411 14.3591 9.7501 14.0001 9.7501C13.6411 9.7501 13.3501 10.0411 13.3501 10.4001V11.0001C13.3501 11.0021 13.3501 11.0119 13.3401 11.0338C13.329 11.058 13.3049 11.098 13.2552 11.1512C13.0104 11.4138 13.0247 11.8251 13.2873 12.0699C13.5498 12.3148 13.9611 12.3004 14.2059 12.0379C14.4564 11.7693 14.6501 11.4188 14.6501 11.0001V10.4001Z" fill="black"/>
<path d="M4.21699 11.8772C3.87258 11.7759 3.51131 11.9731 3.41009 12.3175C3.30886 12.6619 3.50601 13.0232 3.85043 13.1244C4.27159 13.2482 4.73569 13.3522 5.23137 13.4342C5.58555 13.4927 5.92014 13.2531 5.9787 12.8989C6.03726 12.5447 5.79762 12.2101 5.44344 12.1516C4.99238 12.077 4.58058 11.984 4.21699 11.8772Z" fill="black"/>
<path d="M12.1498 13.1244C12.4942 13.0232 12.6913 12.6619 12.5901 12.3175C12.4889 11.9731 12.1276 11.7759 11.7832 11.8772C11.4196 11.984 11.0078 12.077 10.5568 12.1516C10.2026 12.2101 9.96293 12.5447 10.0215 12.8989C10.0801 13.2531 10.4146 13.4927 10.7688 13.4342C11.2645 13.3522 11.7286 13.2482 12.1498 13.1244Z" fill="black"/>
<path d="M7.35565 12.3383C6.99691 12.325 6.69535 12.6051 6.68209 12.9638C6.66884 13.3226 6.94891 13.6241 7.30765 13.6374C7.53514 13.6458 7.76617 13.6501 8.0001 13.6501C8.23402 13.6501 8.46506 13.6458 8.69255 13.6374C9.05129 13.6241 9.33136 13.3226 9.3181 12.9638C9.30485 12.6051 9.00329 12.325 8.64455 12.3383C8.43311 12.3461 8.21807 12.3501 8.0001 12.3501C7.78212 12.3501 7.56709 12.3461 7.35565 12.3383Z" fill="black"/>
</svg>
