<svg xmlns="http://www.w3.org/2000/svg" width="16" height="16" fill="none" viewBox="0 0 16 16"><path fill="#000" fill-rule="evenodd" d="M8 2.35q-.3511 0-.6925.0127a.65.65 0 0 0 .048 1.2991 17.5 17.5 0 0 1 1.289 0 .65.65 0 1 0 .048-1.2991A19 19 0 0 0 8 2.35M5.4433 3.8485a.65.65 0 1 0-.212-1.2826c-.4957.082-.9598.186-1.381.3098a.65.65 0 0 0 .3666 1.2472c.3636-.1068.7754-.1998 1.2264-.2744m5.3254-1.2826a.65.65 0 0 0-.2121 1.2826c.4511.0746.8629.1676 1.2265.2744a.65.65 0 1 0 .3665-1.2472c-.4211-.1238-.8852-.2278-1.3809-.3098M2.7128 3.9302a.65.65 0 0 1 .032.9186c-.0497.0533-.0737.0933-.0848.1175-.01.0218-.01.0319-.01.034 0 .0023.0002.0121.01.0334.011.0242.0351.0641.0848.1174a.65.65 0 0 1-.5968 1.082.65.65 0 0 1-.798-.633V5c0-.4187.1936-.7692.4441-1.0378a.65.65 0 0 1 .9187-.032m11.493.032a.65.65 0 1 0-.9507.8866c.0497.0533.0738.0933.0849.1175.01.0218.01.0316.01.0336 0 .0023-.0003.0125-.01.0338-.0111.0242-.0352.0641-.0849.1174a.65.65 0 0 0 .5969 1.082.65.65 0 0 0 .798-.633V5c0-.4187-.1937-.7692-.4442-1.0378M4.2168 5.877a.65.65 0 0 0-.3665 1.2473c.4212.1238.8853.2278 1.381.3097a.65.65 0 1 0 .212-1.2825c-.451-.0746-.8628-.1676-1.2264-.2745m7.9328 1.2473a.65.65 0 1 0-.3665-1.2473c-.3636.1069-.7754.1999-1.2265.2745a.65.65 0 0 0 .2121 1.2825c.4957-.082.9598-.186 1.3809-.3097m-4.794-.7861a.65.65 0 1 0-.048 1.299 18.7 18.7 0 0 0 1.3848 0 .65.65 0 1 0-.048-1.299 17.5 17.5 0 0 1-1.2889 0M2.65 7.4a.65.65 0 0 0-1.3 0v1.2a.65.65 0 0 0 1.3 0zm12 0a.65.65 0 1 0-1.3 0v1.2a.65.65 0 1 0 1.3 0zm-12 3a.65.65 0 1 0-1.3 0v.6c0 .4187.1936.7692.4441 1.0378a.65.65 0 1 0 .9507-.8867c-.0497-.0532-.0737-.0932-.0848-.1174-.01-.0218-.01-.0316-.01-.0336zm12 0a.65.65 0 1 0-1.3 0v.6c0 .002 0 .0119-.01.0337-.0111.0242-.0352.0641-.0849.1174a.65.65 0 0 0 .9507.8867c.2505-.2686.4442-.6191.4442-1.0378zM4.2169 11.877a.65.65 0 0 0-.3666 1.2473c.4212.1238.8853.2278 1.381.3097a.65.65 0 1 0 .212-1.2825c-.451-.0746-.8628-.1676-1.2264-.2745m7.9327 1.2473a.65.65 0 1 0-.3665-1.2473c-.3636.1069-.7754.1999-1.2265.2745a.65.65 0 1 0 .2121 1.2825c.4957-.0819.9598-.1859 1.3809-.3097m-4.794-.7861a.65.65 0 1 0-.048 1.2991 18.8 18.8 0 0 0 1.3848 0 .65.65 0 0 0-.048-1.2991 17.5 17.5 0 0 1-1.2889 0"/></svg>