<svg xmlns="http://www.w3.org/2000/svg" width="16" height="16" fill="none" viewBox="0 0 16 16"><path fill="#000" fill-rule="evenodd" d="M1.4906 3.1406c0-.9113.7387-1.65 1.65-1.65h2.4032c.9113 0 1.65.7387 1.65 1.65v2.4032c0 .9113-.7387 1.65-1.65 1.65H3.1406c-.9113 0-1.65-.7387-1.65-1.65zm7.3384 0c0-.9113.7387-1.65 1.65-1.65h2.4032c.9113 0 1.65.7387 1.65 1.65v2.4032c0 .9113-.7387 1.65-1.65 1.65H10.479c-.9113 0-1.65-.7387-1.65-1.65zm-5.6884-.35a.35.35 0 0 0-.35.35v2.4032a.35.35 0 0 0 .35.35h2.4032a.35.35 0 0 0 .35-.35V3.1406a.35.35 0 0 0-.35-.35zm7.3384 0a.35.35 0 0 0-.35.35v2.4032a.35.35 0 0 0 .35.35h2.4032a.35.35 0 0 0 .35-.35V3.1406a.35.35 0 0 0-.35-.35zm-6.5706.8175a.3.3 0 0 0-.3.3v.8678a.3.3 0 0 0 .3.3h.8677a.3.3 0 0 0 .3-.3V3.908a.3.3 0 0 0-.3-.3zM8.745 9.0456a.3.3 0 0 1 .3-.3h.8677a.3.3 0 0 1 .3.3v.8677a.3.3 0 0 1-.3.3H9.045a.3.3 0 0 1-.3-.3zm2.9355 0a.3.3 0 0 1 .3-.3h.8678a.3.3 0 0 1 .3.3v.8677a.3.3 0 0 1-.3.3h-.8678a.3.3 0 0 1-.3-.3zm-8.54-.2161c-.9113 0-1.65.7387-1.65 1.65v2.4032c0 .9112.7387 1.65 1.65 1.65h2.4032c.9113 0 1.65-.7388 1.65-1.65v-2.4032c0-.9113-.7387-1.65-1.65-1.65zm-.35 1.65a.35.35 0 0 1 .35-.35h2.4032a.35.35 0 0 1 .35.35v2.4032a.35.35 0 0 1-.35.35H3.1406a.35.35 0 0 1-.35-.35zm7.7223-.2661a.3.3 0 0 0-.3.3v.8677a.3.3 0 0 0 .3.3h.8677a.3.3 0 0 0 .3-.3v-.8677a.3.3 0 0 0-.3-.3zm2.9355 0a.3.3 0 0 0-.3.3v.8677a.3.3 0 0 0 .3.3h.8677a.3.3 0 0 0 .3-.3v-.8677a.3.3 0 0 0-.3-.3zM8.745 11.9811a.3.3 0 0 1 .3-.3h.8677a.3.3 0 0 1 .3.3v.8678a.3.3 0 0 1-.3.3H9.045a.3.3 0 0 1-.3-.3zm2.9355 0a.3.3 0 0 1 .3-.3h.8678a.3.3 0 0 1 .3.3v.8678a.3.3 0 0 1-.3.3h-.8678a.3.3 0 0 1-.3-.3zm1.4678 1.4678a.3.3 0 0 1 .3-.3h.8677a.3.3 0 0 1 .3.3v.8677a.3.3 0 0 1-.3.3h-.8677a.3.3 0 0 1-.3-.3zm-2.6355-.3a.3.3 0 0 0-.3.3v.8677a.3.3 0 0 0 .3.3h.8677a.3.3 0 0 0 .3-.3v-.8677a.3.3 0 0 0-.3-.3z"/></svg>