<svg xmlns="http://www.w3.org/2000/svg" width="16" height="16" fill="none" viewBox="0 0 16 16"><path fill="#000" d="M10.199 8.109c-.106 0-.192-.085-.206-.19-.072-.577-.391-1.075-.846-1.393-.09-.063-.123-.183-.069-.278l1.04-1.801c.054-.094.175-.126.266-.068 1.253.799 1.976 2.137 2.041 3.533.005.109-.083.197-.192.197zm-6.625-.188c-.005.108.084.196.192.196l2.034.001c.107 0 .193-.085.206-.191.07-.579.388-1.08.845-1.399.09-.063.123-.183.069-.277L5.88 4.449c-.054-.094-.175-.126-.266-.068a4.406 4.406 0 0 0-1.449 1.516c-.369.64-.561 1.334-.59 2.024m3.217.248c0-.668.541-1.208 1.208-1.208.668 0 1.209.54 1.209 1.208S8.668 9.376 8 9.376c-.667 0-1.208-.539-1.208-1.207m3.317 3.615c.054.094.022.215-.075.265-1.24.64-2.757.68-4.074-.005-.096-.05-.128-.171-.074-.265l.99-1.714c.055-.095.176-.126.275-.078.258.123.544.195.849.195.303 0 .588-.071.844-.193.099-.047.22-.016.274.079z"/><path fill="#000" fill-rule="evenodd" d="M15 8c0 3.866-3.134 7-7 7s-7-3.134-7-7 3.134-7 7-7 7 3.134 7 7m-1.3 0c0 3.148-2.552 5.7-5.7 5.7S2.3 11.148 2.3 8 4.852 2.3 8 2.3s5.7 2.552 5.7 5.7" clip-rule="evenodd"/></svg>