<svg width="16" height="16" viewBox="0 0 16 16" fill="none" xmlns="http://www.w3.org/2000/svg">
<path d="M1.89925 4.44694C2.41423 4.44694 2.83171 4.02947 2.83171 3.51449C2.83171 2.99951 2.41423 2.58203 1.89925 2.58203C1.38427 2.58203 0.966797 2.99951 0.966797 3.51449C0.966797 4.02947 1.38427 4.44694 1.89925 4.44694Z" fill="black"/>
<path d="M5.11386 2.86451C4.75488 2.86451 4.46386 3.15552 4.46386 3.51451C4.46386 3.87349 4.75488 4.16451 5.11386 4.16451H14.4668C14.8258 4.16451 15.1168 3.87349 15.1168 3.51451C15.1168 3.15552 14.8258 2.86451 14.4668 2.86451H5.11386Z" fill="black"/>
<path d="M5.10916 7.34996C4.75018 7.34996 4.45916 7.64097 4.45916 7.99996C4.45916 8.35894 4.75018 8.64996 5.10916 8.64996H14.4621C14.8211 8.64996 15.1121 8.35894 15.1121 7.99996C15.1121 7.64097 14.8211 7.34996 14.4621 7.34996H5.10916Z" fill="black"/>
<path d="M4.45916 12.4854C4.45916 12.1264 4.75018 11.8354 5.10916 11.8354H14.4621C14.8211 11.8354 15.1121 12.1264 15.1121 12.4854C15.1121 12.8444 14.8211 13.1354 14.4621 13.1354H5.10916C4.75018 13.1354 4.45916 12.8444 4.45916 12.4854Z" fill="black"/>
<path d="M2.83171 7.98294C2.83171 8.49792 2.41423 8.9154 1.89925 8.9154C1.38427 8.9154 0.966797 8.49792 0.966797 7.98294C0.966797 7.46796 1.38427 7.05049 1.89925 7.05049C2.41423 7.05049 2.83171 7.46796 2.83171 7.98294Z" fill="black"/>
<path d="M1.89925 13.4179C2.41423 13.4179 2.83171 13.0004 2.83171 12.4854C2.83171 11.9705 2.41423 11.553 1.89925 11.553C1.38427 11.553 0.966797 11.9705 0.966797 12.4854C0.966797 13.0004 1.38427 13.4179 1.89925 13.4179Z" fill="black"/>
</svg>
