<svg xmlns="http://www.w3.org/2000/svg" width="16" height="16" fill="none" viewBox="0 0 16 16"><path fill="#000" fill-rule="evenodd" d="M2.8317 3.5145a.9325.9325 0 1 1-1.865 0 .9325.9325 0 0 1 1.865 0m1.6322 0a.65.65 0 0 1 .65-.65h9.3529a.65.65 0 1 1 0 1.3h-9.353a.65.65 0 0 1-.65-.65M1.8993 8.9154a.9324.9324 0 1 0 0-1.865.9325.9325 0 0 0 0 1.865m3.2099-1.5655a.65.65 0 0 0 0 1.3h9.3529a.65.65 0 1 0 0-1.3zm-2.2775 5.1356a.9325.9325 0 1 1-1.865-.0001.9325.9325 0 0 1 1.865.0001m1.6275-.0001a.65.65 0 0 1 .65-.65h9.3529a.65.65 0 1 1 0 1.3h-9.353a.65.65 0 0 1-.65-.65"/></svg>