<svg xmlns="http://www.w3.org/2000/svg" width="16" height="16" fill="none" viewBox="0 0 16 16"><path fill="#000" fill-rule="evenodd" d="M3.3329 8c0-2.5776 2.0895-4.6671 4.667-4.6671 2.5776 0 4.6672 2.0895 4.6672 4.667 0 2.5776-2.0896 4.6672-4.6671 4.6672-2.5776 0-4.6671-2.0896-4.6671-4.6671m4.667-3.3671c-1.8595 0-3.367 1.5075-3.367 3.367 0 1.8597 1.5075 3.3672 3.367 3.3672 1.8597 0 3.3672-1.5075 3.3672-3.3671S9.8596 4.6329 8 4.6329m2.6754 3.367c0 1.4776-1.1978 2.6754-2.6753 2.6754S5.3247 9.4775 5.3247 8 6.5225 5.3247 8 5.3247 10.6753 6.5225 10.6753 8"/></svg>