<svg width="16" height="16" viewBox="0 0 16 16" fill="none" xmlns="http://www.w3.org/2000/svg">
<path d="M8.1583 10.6708C9.63582 10.6708 10.8336 9.47298 10.8336 7.99546C10.8336 6.51794 9.63582 5.32017 8.1583 5.32017C6.68078 5.32017 5.48301 6.51794 5.48301 7.99546C5.48301 9.47298 6.68078 10.6708 8.1583 10.6708Z" fill="black"/>
<path fill-rule="evenodd" clip-rule="evenodd" d="M8.1583 3.32837C5.58074 3.32837 3.49121 5.4179 3.49121 7.99546C3.49121 10.573 5.58074 12.6625 8.1583 12.6625C10.7359 12.6625 12.8254 10.573 12.8254 7.99546C12.8254 5.4179 10.7359 3.32837 8.1583 3.32837ZM4.79121 7.99546C4.79121 6.13587 6.29871 4.62837 8.1583 4.62837C10.0179 4.62837 11.5254 6.13587 11.5254 7.99546C11.5254 9.85505 10.0179 11.3625 8.1583 11.3625C6.29871 11.3625 4.79121 9.85505 4.79121 7.99546Z" fill="black"/>
</svg>
