<svg width="16" height="16" viewBox="0 0 16 16" fill="none" xmlns="http://www.w3.org/2000/svg">
<path d="M8 10.312C9.10457 10.312 10 9.41658 10 8.31201C10 7.20744 9.10457 6.31201 8 6.31201C6.89543 6.31201 6 7.20744 6 8.31201C6 9.41658 6.89543 10.312 8 10.312Z" fill="black"/>
<path fill-rule="evenodd" clip-rule="evenodd" d="M15 8.31201C15 12.178 11.866 15.312 8 15.312C4.13401 15.312 1 12.178 1 8.31201C1 4.44602 4.13401 1.31201 8 1.31201C11.866 1.31201 15 4.44602 15 8.31201ZM13.7 8.31201C13.7 11.46 11.148 14.012 8 14.012C4.85198 14.012 2.3 11.46 2.3 8.31201C2.3 5.16399 4.85198 2.61201 8 2.61201C11.148 2.61201 13.7 5.16399 13.7 8.31201Z" fill="black"/>
</svg>
