<svg xmlns="http://www.w3.org/2000/svg" width="16" height="16" fill="none" viewBox="0 0 16 16"><path fill="#000" fill-rule="evenodd" d="M10.7317 2.4789q.4872 0 .9029.1724.413.1712.7552.5127.345.344.5169.7597.1708.4128.1708.8964t-.1708.8964q-.1719.4156-.5169.7597-.3423.3414-.7552.5126-.4157.1725-.9029.1725t-.9029-.1725q-.413-.1713-.7552-.5126-.345-.344-.517-.7597-.1707-.413-.1707-.8964 0-.4836.1708-.8964.1719-.4157.5169-.7597.3423-.3414.7552-.5127.4157-.1725.9029-.1724m-5.6121.0149q.4872 0 .9029.1724.4129.1712.7552.5127.345.344.5169.7597.1708.4128.1708.8964t-.1708.8964q-.172.4156-.517.7597-.3422.3413-.7551.5126-.4157.1724-.903.1724-.4871 0-.9028-.1724-.413-.1713-.7552-.5126-.345-.3441-.517-.7598-.1707-.4128-.1707-.8963t.1707-.8964q.172-.4157.517-.7597.3423-.3414.7551-.5127.4158-.1725.903-.1724M.9502 10.8155c0-1.574 1.276-2.85 2.85-2.85h2.6725c1.574 0 2.85 1.276 2.85 2.85v1.0557c0 .9112-.7387 1.65-1.65 1.65H2.6002c-.9113 0-1.65-.7388-1.65-1.65zm9.1842 2.6906h3.2658q.3417 0 .6334-.1208.2918-.1209.5333-.3625.2417-.2416.3625-.5333t.1208-.6334v-1.0406q0-.5902-.2087-1.0941t-.626-.9212q-.4174-.4174-.9212-.626h-.0001q-.5037-.2088-1.094-.2088H9.4897q.5463.5739.8292 1.257.3039.7336.3038 1.5931v1.0557q0 .6109-.216 1.1324a2.77 2.77 0 0 1-.2723.5025"/></svg>