<svg xmlns="http://www.w3.org/2000/svg" width="16" height="16" fill="none" viewBox="0 0 16 16"><path fill="#000" fill-rule="evenodd" d="M10.4626 2.1942a.65.65 0 0 1 .65.65v2.3742l2.0562-1.1871a.65.65 0 0 1 .65 1.1258l-2.0562 1.1871 2.0561 1.187a.65.65 0 0 1-.65 1.126L11.1126 7.47v2.3741a.65.65 0 1 1-1.3 0v-2.374l-2.056 1.187a.65.65 0 1 1-.65-1.1258l2.056-1.187-2.056-1.1872a.65.65 0 1 1 .65-1.1258l2.056 1.187v-2.374a.65.65 0 0 1 .65-.65M4.7742 12.6666c0 .6383-.5175 1.1558-1.1558 1.1558s-1.1557-.5175-1.1557-1.1558.5174-1.1557 1.1557-1.1557 1.1558.5174 1.1558 1.1557"/></svg>