<svg width="16" height="16" viewBox="0 0 16 16" fill="none" xmlns="http://www.w3.org/2000/svg">
<path fill-rule="evenodd" clip-rule="evenodd" d="M15.9833 8.33343C15.9833 6.68578 14.6476 5.3501 12.9999 5.3501C11.6968 5.3501 10.5889 6.18558 10.1825 7.3501H5.81741C5.41102 6.18558 4.30305 5.3501 2.99994 5.3501C1.35229 5.3501 0.0166016 6.68578 0.0166016 8.33343C0.0166016 9.98108 1.35229 11.3168 2.99994 11.3168C4.54062 11.3168 5.80853 10.1489 5.96666 8.6501H10.0332C10.1913 10.1489 11.4592 11.3168 12.9999 11.3168C14.6476 11.3168 15.9833 9.98108 15.9833 8.33343ZM12.9999 6.6501C13.9296 6.6501 14.6833 7.40375 14.6833 8.33343C14.6833 9.26311 13.9296 10.0168 12.9999 10.0168C12.0703 10.0168 11.3166 9.26311 11.3166 8.33343C11.3166 7.40375 12.0703 6.6501 12.9999 6.6501ZM2.99994 6.6501C3.92961 6.6501 4.68327 7.40375 4.68327 8.33343C4.68327 9.26311 3.92961 10.0168 2.99994 10.0168C2.07026 10.0168 1.3166 9.26311 1.3166 8.33343C1.3166 7.40375 2.07026 6.6501 2.99994 6.6501Z" fill="black"/>
</svg>
