<svg width="16" height="16" viewBox="0 0 16 16" fill="none" xmlns="http://www.w3.org/2000/svg">
<path fill-rule="evenodd" clip-rule="evenodd" d="M15.9833 9.18353C15.9833 7.53588 14.6476 6.2002 12.9999 6.2002C11.6968 6.2002 10.5889 7.03568 10.1825 8.2002H5.81741C5.41102 7.03568 4.30305 6.2002 2.99994 6.2002C1.35229 6.2002 0.0166016 7.53588 0.0166016 9.18353C0.0166016 10.8312 1.35229 12.1669 2.99994 12.1669C4.54062 12.1669 5.80853 10.999 5.96666 9.5002H10.0332C10.1913 10.999 11.4592 12.1669 12.9999 12.1669C14.6476 12.1669 15.9833 10.8312 15.9833 9.18353ZM12.9999 7.5002C13.9296 7.5002 14.6833 8.25385 14.6833 9.18353C14.6833 10.1132 13.9296 10.8669 12.9999 10.8669C12.0703 10.8669 11.3166 10.1132 11.3166 9.18353C11.3166 8.25385 12.0703 7.5002 12.9999 7.5002ZM2.99994 7.5002C3.92961 7.5002 4.68327 8.25385 4.68327 9.18353C4.68327 10.1132 3.92961 10.8669 2.99994 10.8669C2.07026 10.8669 1.3166 10.1132 1.3166 9.18353C1.3166 8.25385 2.07026 7.5002 2.99994 7.5002Z" fill="black"/>
</svg>
