<svg xmlns="http://www.w3.org/2000/svg" width="16" height="16" fill="none" viewBox="0 0 16 16"><path d="M15.9999 0h-16v16h16z"/><path fill="#000" fill-rule="evenodd" d="M15.9834 8c0-1.6477-1.3357-2.9834-2.9833-2.9834-1.3032 0-2.4111.8355-2.8175 2h-4.365c-.4065-1.1645-1.5144-2-2.8175-2-1.6477 0-2.9834 1.3357-2.9834 2.9833 0 1.6477 1.3357 2.9834 2.9834 2.9834 1.5406 0 2.8086-1.168 2.9667-2.6667h4.0665c.1582 1.4988 1.4261 2.6667 2.9668 2.6667 1.6476 0 2.9833-1.3357 2.9833-2.9834m-2.9833-1.6834c.9296 0 1.6833.7537 1.6833 1.6833s-.7537 1.6834-1.6833 1.6834-1.6834-.7537-1.6834-1.6834.7537-1.6833 1.6834-1.6833m-10 0c.9296 0 1.6833.7537 1.6833 1.6833S3.9297 9.6833 3 9.6833s-1.6834-.7537-1.6834-1.6834S2.0703 6.3166 3 6.3166"/></svg>