<svg width="16" height="16" viewBox="0 0 16 16" fill="none" xmlns="http://www.w3.org/2000/svg">
<path d="M12.5344 4.61722C11.5136 3.24117 9.87748 2.35054 8.0342 2.35054C4.94172 2.35054 2.43476 4.85749 2.43476 7.94997C2.43476 11.0425 4.94172 13.5494 8.0342 13.5494C10.025 13.5494 11.7738 12.5109 12.7675 10.943C12.9597 10.6398 13.3613 10.5498 13.6645 10.742C13.9677 10.9342 14.0577 11.3358 13.8655 11.639C12.6434 13.5671 10.4888 14.8494 8.0342 14.8494C4.22375 14.8494 1.13477 11.7604 1.13477 7.94997C1.13477 4.13952 4.22375 1.05054 8.0342 1.05054C10.2176 1.05054 12.1632 2.06474 13.427 3.64627V2.30204C13.427 1.94305 13.718 1.65204 14.077 1.65204C14.436 1.65204 14.727 1.94305 14.727 2.30204V5.26722C14.727 5.62621 14.436 5.91722 14.077 5.91722H11.2538C10.8948 5.91722 10.6038 5.62621 10.6038 5.26722C10.6038 4.90824 10.8948 4.61722 11.2538 4.61722H12.5344Z" fill="black"/>
</svg>
