<svg xmlns="http://www.w3.org/2000/svg" width="16" height="16" fill="none" viewBox="0 0 16 16"><path fill="#000" fill-rule="evenodd" d="M3.648.9907c-1.4635 0-2.65 1.1865-2.65 2.65v5.6498c0 1.4636 1.1865 2.65 2.65 2.65H5.59v1.769h-.859a.65.65 0 1 0 0 1.3h6.5385a.65.65 0 1 0 0-1.3h-.859v-1.769h1.9419c1.4636 0 2.65-1.1864 2.65-2.65V3.6407c0-1.4635-1.1864-2.65-2.65-2.65zm-1.35 8.2998c0 .7456.6045 1.35 1.35 1.35h8.7044c.7456 0 1.35-.6044 1.35-1.35V3.6407c0-.7456-.6044-1.35-1.35-1.35H3.6481c-.7456 0-1.35.6044-1.35 1.35zM8 5.52c-1.8773 0-2.8452 1.215-3.023 1.4635a.65.65 0 0 1-1.0572-.7566C4.1936 5.8444 5.5011 4.22 8 4.22s3.8063 1.6245 4.0801 2.007a.65.65 0 1 1-1.0571.7566C10.8452 6.7351 9.8772 5.52 8 5.52M6.7583 8.804c.0838-.1134.4817-.5887 1.242-.5887s1.158.4753 1.2419.5887a.65.65 0 1 0 1.0455-.7725c-.1872-.2534-.9235-1.1162-2.2875-1.1162S5.9 7.778 5.7127 8.0315a.65.65 0 0 0 1.0456.7725m.1315 4.9053v-1.7688h2.2207v1.7688z"/></svg>