<svg xmlns="http://www.w3.org/2000/svg" width="16" height="16" fill="none" viewBox="0 0 16 16"><path fill="#000" fill-rule="evenodd" d="M1.021 3.7013c0-.9942.8059-1.8 1.8-1.8h7.8848c.9941 0 1.8.8058 1.8 1.8v1.066h.6732c.9941 0 1.8.806 1.8 1.8v5.7315c0 .9941-.8059 1.8-1.8 1.8H5.2941c-.994 0-1.8-.8059-1.8-1.8v-1.0661H2.821c-.9941 0-1.8-.8059-1.8-1.8zm2.4731 6.2314V6.5673c0-.994.806-1.8 1.8-1.8h5.9117v-1.066a.5.5 0 0 0-.0008-.0285H2.3218a1 1 0 0 0-.0008.0284v5.7315a.5.5 0 0 0 .5.5zm1.3-3.3654q0-.0143.0008-.0284h8.8833a1 1 0 0 1 .0008.0284v5.7315a.5.5 0 0 1-.5.5H5.2941a.5.5 0 0 1-.5-.5z"/></svg>