<svg xmlns="http://www.w3.org/2000/svg" width="16" height="16" fill="none" viewBox="0 0 16 16"><path fill="#000" fill-rule="evenodd" d="M2.3498 3.9454a.751.751 0 0 1 .7508-.7509H5.948c.2429 0 .476.0955.6492.2657l.9593.9433a.65.65 0 0 0 .4557.1865h4.8868a.751.751 0 0 1 .7508.7508V9.148a1.67 1.67 0 0 1 .7117-.158h.01c.1997 0 .3953.035.5783.1022V5.3408c0-1.1326-.9182-2.0508-2.0508-2.0508H8.2782l-.7696-.7568a2.226 2.226 0 0 0-1.5606-.6387H3.1006c-1.1326 0-2.0508.9182-2.0508 2.0508v8.1096c0 1.1326.9182 2.0508 2.0508 2.0508h5.92a1.64 1.64 0 0 1 .4609-.9156l.3844-.3844H3.1006a.751.751 0 0 1-.7508-.7508zm12.4713 7.1542a.65.65 0 0 0-.9192-.9192l-1.3955 1.3954-1.3954-1.3954a.65.65 0 0 0-.9192 0 .65.65 0 0 0 0 .9192l1.3954 1.3954-1.3954 1.3955a.65.65 0 1 0 .9192.9192l1.3954-1.3954 1.3955 1.3954a.65.65 0 0 0 .9192-.9192l-1.3954-1.3955z"/></svg>