<svg xmlns="http://www.w3.org/2000/svg" width="16" height="16" fill="none" viewBox="0 0 16 16"><path fill="#000" fill-rule="evenodd" d="M13.793 3.1262 8.4596 8.4596a.65.65 0 0 1-.9192-.9193l5.3333-5.3333a.65.65 0 0 1 .9193.9192m-9.1264.1904c-.7455 0-1.35.6044-1.35 1.35v6.6667c0 .7456.6044 1.35 1.35 1.35h6.6667c.7456 0 1.35-.6044 1.35-1.35V7.9999a.65.65 0 1 1 1.3 0v3.3334c0 1.4635-1.1864 2.65-2.65 2.65H4.6666c-1.4635 0-2.65-1.1865-2.65-2.65V4.6666c0-1.4636 1.1865-2.65 2.65-2.65H8a.65.65 0 0 1 0 1.3z"/></svg>