<svg xmlns="http://www.w3.org/2000/svg" width="16" height="16" fill="none" viewBox="0 0 16 16"><path fill="#000" d="M3.417 11.855C2.533 10.802 2 9.439 2 7.952c0-2.968 2.121-5.437 4.918-5.95V5.98c0 1.303-.38 2.578-1.093 3.665l-.078.12a6.1 6.1 0 0 1-2.33 2.091M9.074 2v3.979c0 1.303.38 2.578 1.093 3.665l.079.12a6.1 6.1 0 0 0 2.336 2.094c.885-1.054 1.419-2.417 1.419-3.906 0-2.971-2.125-5.441-4.926-5.952m1.755 11.286-.489-.384A7.14 7.14 0 0 1 7.99 9.571c-.436 1.316-1.247 2.473-2.333 3.326l-.493.387A5.94 5.94 0 0 0 8 14a5.936 5.936 0 0 0 2.831-.714"/></svg>