<svg width="16" height="16" viewBox="0 0 16 16" fill="none" xmlns="http://www.w3.org/2000/svg">
<path fill-rule="evenodd" clip-rule="evenodd" d="M6.34828 1.99292C5.43701 1.99292 4.69828 2.73165 4.69828 3.64292V4.34995H4.33876C3.42749 4.34995 2.68876 5.08868 2.68876 5.99995V6.99599H2.65098C1.73971 6.99599 1.00098 7.73472 1.00098 8.64599V12.646C1.00098 13.5573 1.73971 14.296 2.65098 14.296H9.65098C10.5622 14.296 11.301 13.5573 11.301 12.646V11.6499H11.3388C12.25 11.6499 12.9888 10.9112 12.9888 9.99994V9.29292H13.3483C14.2595 9.29292 14.9983 8.55418 14.9983 7.64291L14.9983 6.64292C14.9983 6.28393 14.7072 5.99292 14.3483 5.99292C13.9893 5.99292 13.6983 6.28394 13.6983 6.64292L13.6983 7.64292C13.6983 7.83622 13.5416 7.99292 13.3483 7.99292H12.3483C12.0832 7.99292 11.8552 8.15156 11.7541 8.37906C11.7122 8.46493 11.6888 8.56138 11.6888 8.66332V9.99994C11.6888 10.1932 11.5321 10.3499 11.3388 10.3499H11.301V8.64599C11.301 7.73472 10.5622 6.99599 9.65098 6.99599H3.98876V5.99995C3.98876 5.80665 4.14547 5.64995 4.33876 5.64995H5.26377C5.29143 5.65354 5.31964 5.65539 5.34828 5.65539C5.70726 5.65539 5.99828 5.36437 5.99828 5.00539V3.64292C5.99828 3.44962 6.15498 3.29292 6.34828 3.29292H6.84827C7.20725 3.29292 7.49827 3.0019 7.49827 2.64292C7.49827 2.28393 7.20725 1.99292 6.84827 1.99292H6.34828ZM2.65098 8.29599C2.45768 8.29599 2.30098 8.45269 2.30098 8.64599V12.646C2.30098 12.8393 2.45768 12.996 2.65098 12.996H9.65098C9.84428 12.996 10.001 12.8393 10.001 12.646V8.64599C10.001 8.45269 9.84428 8.29599 9.65098 8.29599H2.65098Z" fill="black"/>
<path d="M12.8483 1.99292C12.4893 1.99292 12.1983 2.28393 12.1983 2.64292C12.1983 3.0019 12.4893 3.29292 12.8483 3.29292H13.3483C13.5416 3.29292 13.6983 3.44962 13.6983 3.64292L13.6983 4.14291C13.6983 4.5019 13.9893 4.79292 14.3483 4.79292C14.7072 4.79292 14.9983 4.50191 14.9983 4.14293L14.9983 3.64293C14.9983 2.73166 14.2595 1.99292 13.3483 1.99292H12.8483Z" fill="black"/>
<path d="M10.1888 4.99995C10.1888 4.64096 10.4798 4.34995 10.8388 4.34995H11.3388C12.25 4.34995 12.9888 5.08868 12.9888 5.99996L12.9888 6.49995C12.9887 6.85894 12.6977 7.14995 12.3387 7.14995C11.9798 7.14994 11.6887 6.85892 11.6888 6.49994L11.6888 5.99995C11.6888 5.80665 11.5321 5.64995 11.3388 5.64995H10.8388C10.4798 5.64995 10.1888 5.35893 10.1888 4.99995Z" fill="black"/>
<path d="M6.99203 4.99995C6.99203 4.64096 7.28304 4.34995 7.64203 4.34995H8.64203C9.00101 4.34995 9.29203 4.64096 9.29203 4.99995C9.29203 5.35893 9.00101 5.64995 8.64203 5.64995H7.64203C7.28304 5.64995 6.99203 5.35893 6.99203 4.99995Z" fill="black"/>
<path d="M9.34828 1.99292C8.9893 1.99292 8.69828 2.28393 8.69828 2.64292C8.69828 3.0019 8.9893 3.29292 9.34828 3.29292H10.3483C10.7073 3.29292 10.9983 3.0019 10.9983 2.64292C10.9983 2.28393 10.7073 1.99292 10.3483 1.99292H9.34828Z" fill="black"/>
</svg>
