<svg xmlns="http://www.w3.org/2000/svg" width="16" height="16" fill="none" viewBox="0 0 16 16"><path fill="#000" fill-rule="evenodd" d="m13.3379 3.2476-1.1856-.0001-.3662-1.1272q-.0893-.2776-.2578-.4948a1.6 1.6 0 0 0-.3691-.3442 1.62 1.62 0 0 0-.419-.206A1.62 1.62 0 0 0 10.2441 1c-.1728 0-.3388.0251-.496.0753a1.62 1.62 0 0 0-.419.206 1.62 1.62 0 0 0-.3682.3442c-.1123.1449-.1982.3098-.2588.4947L8.336 3.2475H7.1514c-.1953 0-.378.031-.5508.0927a1.6 1.6 0 0 0-.4414.2441 1.61 1.61 0 0 0-.3252.335 1.59 1.59 0 0 0-.2246.4485 1.62 1.62 0 0 0-.082.495 1.61 1.61 0 0 0 .0663.4623q.0543.1874.1465.3492H7.713l-.751-.5455c-.252-.183-.122-.5812.1895-.5812l.9472-.0001h.9483a.321.321 0 0 0 .3056-.222l.586-1.8035c.0967-.296.5156-.296.6113 0l.5859 1.8034a.322.322 0 0 0 .3057.222h.6738l.2744.0001h.9483c.3115 0 .4404.3983.1885.5813l-1.5332 1.1146a.3205.3205 0 0 0-.1172.3593l.5859 1.8034c.0547.17-.0332.3234-.166.3888.0029.0592.0039.119.0039.1794v1.1475a1.6 1.6 0 0 0 .3643-.0741 1.63 1.63 0 0 0 .4453-.2306 1.63 1.63 0 0 0 .3564-.3525 1.6 1.6 0 0 0 .2188-.413c.0586-.1642.0908-.3293.0957-.4951q.0087-.2745-.0821-.552l-.3662-1.1273.959-.6967c.1572-.1144.2871-.2472.3906-.3985a1.59 1.59 0 0 0 .2139-.4569 1.65 1.65 0 0 0 .0664-.4623 1.62 1.62 0 0 0-.082-.495 1.64 1.64 0 0 0-.2246-.4485 1.62 1.62 0 0 0-.3262-.335 1.6 1.6 0 0 0-.4414-.2442c-.1719-.0617-.3555-.0925-.5498-.0925M3 6.9743h6c1.1045 0 2 .8954 2 2v4c0 1.1046-.8955 2-2 2H3c-1.1045 0-2-.8954-2-2v-4c0-1.1045.8955-2 2-2m6 1.3H3c-.0967 0-.1865.0171-.2685.0513q-.1243.0512-.2266.1537a.69.69 0 0 0-.1533.2263.7.7 0 0 0-.0518.2687v.0167h7.4004v-.0167a.7.7 0 0 0-.0518-.2687.69.69 0 0 0-.1533-.2263c-.0683-.0683-.1435-.1196-.2266-.1537-.082-.0342-.1718-.0513-.2685-.0513m-6.7002 4.7V10.291h7.4004v2.6833a.7.7 0 0 1-.0518.2687.69.69 0 0 1-.1533.2263c-.0683.0683-.1435.1196-.2266.1538A.69.69 0 0 1 9 13.6743H3c-.0967 0-.1865-.017-.2685-.0512q-.1243-.0513-.2266-.1538a.69.69 0 0 1-.1533-.2263.7.7 0 0 1-.0518-.2687m4.0332-1.3166H3.667c-.3643 0-.6504.2859-.6504.6499s.2861.6501.6504.6501h2.666c.3643 0 .6504-.286.6504-.6501 0-.364-.2861-.6499-.6504-.6499"/></svg>