<svg xmlns="http://www.w3.org/2000/svg" width="16" height="16" fill="none" viewBox="0 0 16 16"><path fill="#000" d="M5.743 4.46a.65.65 0 0 0-1.3 0v4.064a.65.65 0 0 0 1.3 0zM8 5.991a.65.65 0 0 1 .65.65v1.883a.65.65 0 0 1-1.3 0V6.641a.65.65 0 0 1 .65-.65m3.558-1.531a.65.65 0 1 0-1.3 0v4.064a.65.65 0 1 0 1.3 0z"/><path fill="#000" fill-rule="evenodd" d="M3.7574 1.1001c-1.4635 0-2.65 1.1864-2.65 2.65v5.4838c0 1.4636 1.1865 2.65 2.65 2.65h1.8629v1.7162h-.833a.65.65 0 1 0 0 1.3h6.4261a.65.65 0 0 0 0-1.3h-.8329v-1.7162h1.8628c1.4636 0 2.65-1.1864 2.65-2.65V3.7501c0-1.4636-1.1864-2.65-2.65-2.65zm5.323 12.5h-2.16v-1.7162h2.1602zm-6.673-9.85c0-.7456.6044-1.35 1.35-1.35h8.4859c.7456 0 1.35.6044 1.35 1.35v5.4838c0 .7456-.6044 1.35-1.35 1.35H3.7574c-.7456 0-1.35-.6044-1.35-1.35z" clip-rule="evenodd"/></svg>