<svg xmlns="http://www.w3.org/2000/svg" width="16" height="16" fill="none" viewBox="0 0 16 16"><path fill="#000" fill-rule="evenodd" d="M1.1074 3.7501c0-1.4636 1.1865-2.65 2.65-2.65h8.4859c1.4636 0 2.65 1.1864 2.65 2.65v5.4838c0 1.4636-1.1864 2.65-2.65 2.65h-1.8628v1.7162h.8329a.65.65 0 0 1 0 1.3h-6.426a.65.65 0 1 1 0-1.3h.8329v-1.7162H3.7574c-1.4635 0-2.65-1.1864-2.65-2.65zm2.65-1.35c-.7456 0-1.35.6044-1.35 1.35v5.4838c0 .7456.6044 1.35 1.35 1.35h8.4859c.7456 0 1.35-.6044 1.35-1.35V3.7501c0-.7456-.6044-1.35-1.35-1.35zm1.3359 1.4102a.65.65 0 0 1 .65.65v4.0635a.65.65 0 0 1-1.3 0V4.4603a.65.65 0 0 1 .65-.65m6.4642.65a.65.65 0 1 0-1.3 0v4.0635a.65.65 0 1 0 1.3 0zM8.6504 6.6405a.65.65 0 0 0-1.3 0v1.8833a.65.65 0 0 0 1.3 0zM6.9203 13.6h2.1602v-1.7162H6.9203z"/></svg>