<svg xmlns="http://www.w3.org/2000/svg" width="16" height="16" fill="none" viewBox="0 0 16 16"><path fill="#000" fill-rule="evenodd" d="M4.7941 1.044c-1.1321 0-2.05.9178-2.05 2.05v9.812c0 1.1322.9179 2.05 2.05 2.05h6.2118c1.2426 0 2.25-1.0074 2.25-2.25V6.1009a1.15 1.15 0 0 0-.3089-.7842l-3.6425-3.907a1.15 1.15 0 0 0-.8411-.3657zm-.75 2.05a.75.75 0 0 1 .75-.75h3.22v2.1434c0 1.1321.9179 2.05 2.0501 2.05h1.8917v6.1686a.95.95 0 0 1-.95.95H4.7941a.75.75 0 0 1-.75-.75zm7.0516 2.1434-1.7815-1.911v1.161a.75.75 0 0 0 .75.75zM5.6746 7.1735a.65.65 0 0 1 .65.65v4.0635a.65.65 0 1 1-1.3 0V7.8235a.65.65 0 0 1 .65-.65m5.3009.65a.65.65 0 0 0-1.3 0v4.0635a.65.65 0 1 0 1.3 0zM8.65 10.0037a.65.65 0 1 0-1.3 0v1.8833a.65.65 0 1 0 1.3 0z"/></svg>