<svg xmlns="http://www.w3.org/2000/svg" width="16" height="16" fill="none" viewBox="0 0 16 16"><path fill="#000" fill-rule="evenodd" d="M13.8247 6.6212 12.0255 4.822c.1485-.021.3002-.032.4546-.032 1.7728 0 3.21 1.4372 3.21 3.21s-1.4372 3.21-3.21 3.21a3.2 3.2 0 0 1-.4546-.0319l1.7992-1.7992c.7615-.7615.7615-1.9962 0-2.7577M.3101 8c0-1.7728 1.4371-3.21 3.21-3.21 1.5501 0 2.8436 1.0988 3.1441 2.56h4.2571l-.8104-.8103a.65.65 0 0 1 .9193-.9193l1.92 1.92a.65.65 0 0 1 .0117.9072l-.0117.012-1.92 1.9201a.6504.6504 0 0 1-.9193 0 .65.65 0 0 1 0-.9193l.8104-.8104h-4.257c-.3006 1.4613-1.5941 2.56-3.1442 2.56C1.7472 11.21.31 9.7729.31 8m3.21-1.91c-1.0549 0-1.91.8552-1.91 1.91s.8551 1.91 1.91 1.91S5.43 9.055 5.43 8s-.8552-1.91-1.91-1.91"/></svg>