<svg width="16" height="16" viewBox="0 0 16 16" fill="none" xmlns="http://www.w3.org/2000/svg">
<path fill-rule="evenodd" clip-rule="evenodd" d="M3.52006 5.64014C1.74722 5.64014 0.310059 7.0773 0.310059 8.85014C0.310059 10.623 1.74722 12.0601 3.52006 12.0601C5.0702 12.0601 6.36371 10.9613 6.66421 9.50014H10.9213L10.1109 10.3105C9.85708 10.5644 9.85708 10.9759 10.1109 11.2298C10.1426 11.2615 10.1768 11.2892 10.2129 11.313C10.4652 11.4796 10.808 11.4519 11.0302 11.2298L12.9502 9.30976L12.9619 9.29774C13.2039 9.04309 13.2 8.64039 12.9502 8.39052L11.0302 6.47052C10.7763 6.21668 10.3648 6.21668 10.1109 6.47052C9.85708 6.72436 9.85708 7.13591 10.1109 7.38976L10.9213 8.20014H6.66421C6.36371 6.73893 5.0702 5.64014 3.52006 5.64014ZM1.61006 8.85014C1.61006 7.79527 2.46519 6.94014 3.52006 6.94014C4.57492 6.94014 5.43006 7.79527 5.43006 8.85014C5.43006 9.905 4.57492 10.7601 3.52006 10.7601C2.46519 10.7601 1.61006 9.905 1.61006 8.85014Z" fill="black"/>
<path d="M12.0255 5.67208L13.8247 7.47128C14.5862 8.2328 14.5862 9.46747 13.8247 10.229L12.0255 12.0282C12.174 12.0492 12.3257 12.0601 12.4801 12.0601C14.2529 12.0601 15.6901 10.623 15.6901 8.85014C15.6901 7.0773 14.2529 5.64014 12.4801 5.64014C12.3257 5.64014 12.174 5.65103 12.0255 5.67208Z" fill="black"/>
</svg>
