<svg width="16" height="16" viewBox="0 0 16 16" fill="none" xmlns="http://www.w3.org/2000/svg">
<path d="M14.2396 4.38965C14.4935 4.13581 14.4935 3.72425 14.2396 3.47041C13.9858 3.21657 13.5742 3.21657 13.3204 3.47041L3.43843 13.3524C3.18459 13.6062 3.18459 14.0178 3.43843 14.2716C3.69227 14.5254 4.10383 14.5254 4.35767 14.2716L14.2396 4.38965Z" fill="black"/>
<path d="M14.2397 10.4808C14.4935 10.2269 14.4935 9.81536 14.2397 9.56152C13.9859 9.30768 13.5743 9.30768 13.3205 9.56152L9.52961 13.3524C9.27577 13.6062 9.27577 14.0178 9.52961 14.2716C9.78345 14.5254 10.195 14.5254 10.4489 14.2716L14.2397 10.4808Z" fill="black"/>
</svg>
