<svg xmlns="http://www.w3.org/2000/svg" width="16" height="16" fill="none" viewBox="0 0 16 16"><path fill="#000" fill-rule="evenodd" d="M8.2376 1.3564a.65.65 0 1 0-.926.9124l1.7295 1.755H6.0964l1.3 1.3h4.2159a.35.35 0 0 1 .35.35v1.3727c0 .359.291.65.65.65h1.1379V8.862h-2.8155l1.3 1.3h2.1655a.65.65 0 0 0 .65-.65V7.0465a.65.65 0 0 0-.65-.65h-1.1379v-.7228c0-.9113-.7387-1.65-1.65-1.65h-.7461zm4.483 12.8395-4.034-4.0339H5.8795a.65.65 0 0 1-.65-.65V7.7427h-.3897c-1.4301 0-2.5895 1.1594-2.5895 2.5896s1.1594 2.5895 2.5895 2.5895h4.5254a.65.65 0 1 1 0 1.3H4.8397c-2.1481 0-3.8895-1.7414-3.8895-3.8895 0-2.1482 1.7414-3.8896 3.8895-3.8896h.1277L1.5451 3.0204a.65.65 0 0 1 .9192-.9193l11.1755 11.1756a.65.65 0 0 1-.9192.9192M6.5294 8.0047l.8573.8573h-.8573z"/></svg>