<svg width="16" height="16" viewBox="0 0 16 16" fill="none" xmlns="http://www.w3.org/2000/svg">
<path d="M9.41202 6.56445C9.66586 6.31061 10.0781 6.31061 10.3319 6.56445C10.5854 6.81832 10.5857 7.23066 10.3319 7.48438L8.18253 9.63281C7.92878 9.88612 7.51732 9.88615 7.26359 9.63281L5.83097 8.2002L5.74796 8.09863C5.58132 7.84647 5.60917 7.50344 5.83097 7.28125C6.05297 7.05925 6.39609 7.03095 6.64835 7.19727L6.75089 7.28125L7.72257 8.25391L9.41202 6.56445Z" fill="black"/>
<path fill-rule="evenodd" clip-rule="evenodd" d="M9.27335 0.961914C9.54391 1.01227 9.75894 1.23045 9.79777 1.51172L10.0116 3.07227C10.4622 3.25636 10.8812 3.50027 11.2597 3.79395L12.7206 3.19922L12.8349 3.16406C13.1047 3.10831 13.3871 3.23039 13.5292 3.47656L14.6835 5.47559C14.8254 5.72168 14.7894 6.02672 14.6064 6.23242L14.5185 6.31445L13.2724 7.28027C13.3043 7.51584 13.3231 7.75623 13.3232 8C13.3231 8.24396 13.3043 8.48496 13.2724 8.7207L14.5175 9.6875C14.7739 9.88669 14.8448 10.2452 14.6825 10.5264L13.5282 12.5254C13.3657 12.8063 13.0202 12.9252 12.7196 12.8027L11.2587 12.2061C10.8805 12.4994 10.4617 12.7428 10.0116 12.9268L9.79777 14.4893C9.75325 14.8106 9.47869 15.0507 9.15421 15.0508H6.84562C6.5616 15.0507 6.31518 14.8667 6.22843 14.6055L6.20109 14.4893L5.98722 12.9268C5.53708 12.7427 5.1183 12.4995 4.74015 12.2061L3.28116 12.8027C2.98054 12.9252 2.63502 12.8064 2.47257 12.5254L1.31827 10.5264C1.15597 10.2452 1.22612 9.88674 1.48234 9.6875L2.72648 8.7207C2.69455 8.485 2.6767 8.24392 2.67667 8C2.67669 7.75629 2.6946 7.51579 2.72648 7.28027L1.48136 6.31445C1.22481 6.11542 1.15519 5.75687 1.3173 5.47559L2.47159 3.47656L2.53995 3.37891C2.71881 3.16934 3.01597 3.09208 3.27921 3.19922L4.73917 3.79395C5.11749 3.50031 5.53684 3.2564 5.98722 3.07227L6.20109 1.5127L6.22843 1.39551C6.31512 1.13417 6.56153 0.949302 6.84562 0.949219H9.15421L9.27335 0.961914ZM7.16691 4.04199L6.77628 4.16699C6.22036 4.34435 5.71546 4.63982 5.29288 5.02441L4.99015 5.2998L4.61027 5.14551L3.31339 4.61719L2.7255 5.63379L3.83097 6.49219L4.15519 6.74316L4.06827 7.14355C4.00865 7.41882 3.97651 7.7056 3.97648 8C3.97651 8.29482 4.00847 8.58277 4.06827 8.8584L4.15519 9.25781L2.72745 10.3662L3.31437 11.3838L4.61027 10.8555L4.99015 10.7012L5.29386 10.9766C5.6636 11.3129 6.09561 11.5812 6.57023 11.7617L6.77628 11.834L7.16691 11.959L7.41202 13.751H8.58683L8.8339 11.959L9.22452 11.834C9.77999 11.6567 10.2836 11.3608 10.706 10.9766L11.0097 10.7012L11.3896 10.8555L12.6855 11.3838L13.2724 10.3672L11.8446 9.25781L11.9316 8.85742C11.9913 8.58198 12.0233 8.29461 12.0234 8C12.0233 7.70558 11.9912 7.41884 11.9316 7.14355L11.8446 6.74316L12.1689 6.49219L13.2734 5.63379L12.6864 4.61621L11.3896 5.14551L11.0097 5.2998L10.7069 5.02441C10.2845 4.63989 9.78031 4.34437 9.22452 4.16699L8.8339 4.04199L8.77823 3.63574L8.58683 2.25098H7.41202L7.16691 4.04199Z" fill="black"/>
</svg>
