<svg xmlns="http://www.w3.org/2000/svg" width="16" height="16" fill="none" viewBox="0 0 16 16"><path fill="#000" fill-rule="evenodd" d="M14.8871 9.2588A7.04 7.04 0 0 0 15 8c0-3.866-3.134-7-7-7S1 4.134 1 8s3.134 7 7 7c.2955 0 .5867-.0183.8725-.0538a1.96 1.96 0 0 1-.0531-.4542c0-.3187.0764-.6195.212-.8851A5.73 5.73 0 0 1 8 13.7c-3.148 0-5.7-2.552-5.7-5.7S4.852 2.3 8 2.3s5.7 2.552 5.7 5.7q-.0001.2689-.0244.5315c.4469.1716.856.4194 1.2115.7273M9.8457 7.3772c.6787-.6683 1.7254-.7388 2.4817-.2113-.244-1.115-.9153-2.1325-1.9429-2.7874-.0915-.0583-.212-.0258-.2663.0682L9.0784 6.2476c-.0546.0946-.0208.215.0688.2776.3053.2133.5492.5075.6985.852m-6.0793.74c-.1083 0-.1966-.0878-.192-.196.029-.6901.2212-1.384.5904-2.0243A4.406 4.406 0 0 1 5.6137 4.381c.0914-.0583.2118-.0257.266.0682l1.0391 1.8004c.0546.0946.021.2148-.0685.2774-.4563.3198-.775.8202-.8447 1.3995-.0127.106-.099.1914-.2056.1913zM8 9.3756h.0057a1.95 1.95 0 0 1 .3824-.5409l.812-.812A1.208 1.208 0 0 0 8 6.9606c-.667 0-1.208.5401-1.208 1.208S7.333 9.3755 8 9.3755m3.6734-.1491a.65.65 0 0 0-.9193-.9192L9.3073 9.754a.65.65 0 0 0 0 .9192l1.4467 1.4467a.65.65 0 1 0 .9193-.9192l-.3358-.3358h.9882c.7686.0591 1.3743.7022 1.3743 1.4863 0 .8152-.6544 1.4776-1.4663 1.4906l-1.4643.0002a.65.65 0 1 0 0 1.3c.0049 0 1.4665-.0001 1.485-.0004C13.775 15.1174 15 13.8774 15 12.3512c0-1.4806-1.1527-2.6915-2.61-2.785-.2394-.0153-.4818-.0109-.7233-.0064-.1106.002-.221.004-.3308.0041zm-3.2853 2.366a1.945 1.945 0 0 1-.5707-1.42 1.98 1.98 0 0 1-.6661-.186c-.099-.0471-.2203-.0163-.275.0785l-.99 1.7142c-.0542.094-.0221.2147.0742.2648 1.0266.5343 2.1746.6273 3.2185.3393z"/></svg>