<svg xmlns="http://www.w3.org/2000/svg" width="16" height="16" fill="none" viewBox="0 0 16 16"><path fill="#000" fill-rule="evenodd" d="M6.201 1.5117A.65.65 0 0 1 6.845.95h2.3088a.65.65 0 0 1 .644.5614l.2144 1.559a5.32 5.32 0 0 1 1.2494.7226l1.4589-.5944a.65.65 0 0 1 .8082.277l1.1544 1.9994a.65.65 0 0 1-.1645.8385l-1.2444.9654c.032.236.0485.4767.0485.7209a5.4 5.4 0 0 1-.0486.7218l1.2436.9657a.65.65 0 0 1 .1643.8384l-1.1544 1.9994a.65.65 0 0 1-.8085.2768l-1.4581-.5949a5.32 5.32 0 0 1-1.2488.722l-.2145 1.5595a.65.65 0 0 1-.644.5615H6.845a.65.65 0 0 1-.644-.5618l-.2136-1.559a5.32 5.32 0 0 1-1.249-.7221l-1.4578.5947a.65.65 0 0 1-.8085-.2768l-1.1544-1.9994a.65.65 0 0 1 .1643-.8384l1.2432-.9655a5.4 5.4 0 0 1-.0486-.722c0-.2442.0165-.485.0485-.721l-1.244-.965a.65.65 0 0 1-.1645-.8386L2.471 3.4756a.65.65 0 0 1 .8082-.277l1.4585.5944a5.32 5.32 0 0 1 1.2497-.7227zm1.211.7383-.2455 1.7915-.3908.1246a4.02 4.02 0 0 0-1.483.8574l-.303.276-1.6762-.683L2.726 5.634l1.4287 1.1084-.0868.4002a4.04 4.04 0 0 0-.0913.857c0 .295.0316.582.0915.8577l.0868.4001-1.428 1.1089.5875 1.0176 1.6754-.6836.3034.276a4.02 4.02 0 0 0 1.4825.857l.3907.1247.2456 1.7919h1.175l.2465-1.7921.3905-.1246a4.02 4.02 0 0 0 1.4822-.857l.3033-.2759 1.6758.6837.5875-1.0176-1.4283-1.1092.0868-.4a4.04 4.04 0 0 0 .0914-.8575c0-.2947-.0316-.5813-.0913-.8569l-.0868-.4002 1.4292-1.1088-.5875-1.0176-1.6766.6832-.3031-.276a4.02 4.02 0 0 0-1.4826-.8573l-.3905-.1246L8.587 2.25zm-.518 3.7964a.65.65 0 0 1 .65 0L9.9527 7.437a.65.65 0 0 1 0 1.1258L7.544 9.9533a.6502.6502 0 0 1-.975-.5629v-2.781a.65.65 0 0 1 .325-.563"/></svg>