<svg xmlns="http://www.w3.org/2000/svg" width="16" height="16" fill="none" viewBox="0 0 16 16"><path fill="#000" fill-rule="evenodd" d="M12.4801 5.6401c1.7728 0 3.21 1.4372 3.21 3.21s-1.4372 3.21-3.21 3.21c-1.5502 0-2.8437-1.0988-3.1442-2.56H5.079l.8103.8104a.65.65 0 0 1-.9192.9193l-1.92-1.92-.0117-.012a.65.65 0 0 1 .0117-.9073l1.92-1.92a.65.65 0 0 1 .9192.9193L5.0788 8.2H9.336c.3005-1.4612 1.594-2.56 3.1442-2.56m1.91 3.21c0-1.0548-.8552-1.91-1.91-1.91s-1.91.8552-1.91 1.91.8551 1.91 1.91 1.91 1.91-.8551 1.91-1.91" clip-rule="evenodd"/><path fill="#000" d="M3.9747 5.672 2.1755 7.4714c-.7616.7615-.7616 1.9962 0 2.7577l1.7992 1.7992a3.25 3.25 0 0 1-.4546.0319c-1.7729 0-3.21-1.4371-3.21-3.21s1.4371-3.21 3.21-3.21c.1543 0 .306.011.4546.032"/></svg>