<svg xmlns="http://www.w3.org/2000/svg" width="16" height="16" fill="none" viewBox="0 0 16 16"><path fill="#000" fill-rule="evenodd" d="M4.5049 1.5049c-1.6569 0-3 1.3431-3 3v6.9902c0 1.6569 1.3431 3 3 3h6.9902c1.6569 0 3-1.3431 3-3V4.5049c0-1.6569-1.3431-3-3-3zm6.9902 1.3H4.5049c-.9389 0-1.7.7611-1.7 1.7v6.9902c0 .9389.7611 1.7 1.7 1.7h6.9902c.9389 0 1.7-.7611 1.7-1.7V4.5049c0-.9389-.7611-1.7-1.7-1.7M4.9769 8.9866c.5449 0 .9866-.4417.9866-.9866s-.4417-.9867-.9866-.9867-.9867.4417-.9867.9867.4418.9866.9867.9866M9.089 8c0 .5449-.4417.9866-.9866.9866S7.1157 8.545 7.1157 8s.4418-.9867.9867-.9867.9866.4417.9866.9867m2.1379.9866c.5449 0 .9867-.4417.9867-.9866s-.4418-.9867-.9867-.9867-.9867.4417-.9867.9867.4418.9866.9867.9866"/><path d="M4.5049 2.8049c-.9389 0-1.7.7611-1.7 1.7v6.9902c0 .9389.7611 1.7 1.7 1.7h6.9902c.9389 0 1.7-.7611 1.7-1.7V4.5049c0-.9389-.7611-1.7-1.7-1.7zm-3 1.7v6.9902c0 1.6569 1.3431 3 3 3h6.9902c1.6569 0 3-1.3431 3-3V4.5049c0-1.6569-1.3431-3-3-3H4.5049c-1.6569 0-3 1.3431-3 3m6.5975 4.4817c-.545 0-.9867-.4417-.9867-.9866s.4418-.9867.9867-.9867.9866.4417.9866.9867-.4417.9866-.9866.9866M12.2136 8c0-.545-.4418-.9867-.9867-.9867s-.9867.4417-.9867.9867.4418.9866.9867.9866.9867-.4417.9867-.9866m-7.2367.9866c-.545 0-.9867-.4417-.9867-.9866s.4418-.9867.9867-.9867c.545 0 .9867.4417.9867.9867s-.4418.9866-.9867.9866"/></svg>