<svg xmlns="http://www.w3.org/2000/svg" width="16" height="16" fill="none" viewBox="0 0 16 16"><path fill="#000" fill-rule="evenodd" d="M2.1755 6.6212 3.9747 4.822A3.2 3.2 0 0 0 3.52 4.79C1.7472 4.79.31 6.2272.31 8s1.4371 3.21 3.21 3.21q.2316-.0001.4546-.0319L2.1755 9.3789c-.7616-.7615-.7616-1.9962 0-2.7577M15.69 8c0-1.7728-1.4372-3.21-3.21-3.21-1.5502 0-2.8437 1.0988-3.1442 2.56H5.079l.8103-.8103a.65.65 0 1 0-.9192-.9193l-1.92 1.92a.65.65 0 0 0-.0117.9072l.0117.012 1.92 1.9201a.6503.6503 0 0 0 .9192 0 .65.65 0 0 0 0-.9193L5.0788 8.65H9.336c.3005 1.4613 1.594 2.56 3.1442 2.56 1.7728 0 3.21-1.4371 3.21-3.21m-3.21-1.91c1.0548 0 1.91.8552 1.91 1.91s-.8552 1.91-1.91 1.91-1.91-.8551-1.91-1.91.8551-1.91 1.91-1.91"/></svg>