<svg width="16" height="16" viewBox="0 0 16 16" fill="none" xmlns="http://www.w3.org/2000/svg">
<path d="M8.10238 8.98662C8.6473 8.98662 9.08904 8.54488 9.08904 7.99996C9.08904 7.45505 8.6473 7.01331 8.10238 7.01331C7.55747 7.01331 7.11572 7.45505 7.11572 7.99996C7.11572 8.54488 7.55747 8.98662 8.10238 8.98662Z" fill="black"/>
<path d="M12.2136 7.99996C12.2136 8.54488 11.7718 8.98662 11.2269 8.98662C10.682 8.98662 10.2402 8.54488 10.2402 7.99996C10.2402 7.45505 10.682 7.01331 11.2269 7.01331C11.7718 7.01331 12.2136 7.45505 12.2136 7.99996Z" fill="black"/>
<path d="M4.97689 8.98662C5.52181 8.98662 5.96355 8.54488 5.96355 7.99996C5.96355 7.45505 5.52181 7.01331 4.97689 7.01331C4.43198 7.01331 3.99023 7.45505 3.99023 7.99996C3.99023 8.54488 4.43198 8.98662 4.97689 8.98662Z" fill="black"/>
<path fill-rule="evenodd" clip-rule="evenodd" d="M1.50488 4.50488C1.50488 2.84803 2.84803 1.50488 4.50488 1.50488H11.4951C13.152 1.50488 14.4951 2.84803 14.4951 4.50488V11.4951C14.4951 13.152 13.152 14.4951 11.4951 14.4951H4.50488C2.84803 14.4951 1.50488 13.152 1.50488 11.4951V4.50488ZM4.50488 2.80488H11.4951C12.434 2.80488 13.1951 3.566 13.1951 4.50488V11.4951C13.1951 12.434 12.434 13.1951 11.4951 13.1951H4.50488C3.566 13.1951 2.80488 12.434 2.80488 11.4951V4.50488C2.80488 3.566 3.566 2.80488 4.50488 2.80488Z" fill="black"/>
</svg>
