<svg width="16" height="16" viewBox="0 0 16 16" fill="none" xmlns="http://www.w3.org/2000/svg">
<path fill-rule="evenodd" clip-rule="evenodd" d="M12.4801 4.79004C14.2529 4.79004 15.6901 6.22721 15.6901 8.00004C15.6901 9.77287 14.2529 11.21 12.4801 11.21C10.9299 11.21 9.63641 10.1112 9.33591 8.65004H5.07883L5.88921 9.46042C6.14305 9.71426 6.14305 10.1258 5.88921 10.3797C5.85748 10.4114 5.82328 10.4392 5.78724 10.4629C5.53494 10.6295 5.19208 10.6018 4.96997 10.3797L3.04997 8.45966L3.03826 8.44764C2.79619 8.19299 2.80009 7.79029 3.04997 7.54042L4.96997 5.62042C5.22381 5.36658 5.63537 5.36658 5.88921 5.62042C6.14305 5.87426 6.14305 6.28582 5.88921 6.53966L5.07883 7.35004H9.33591C9.63642 5.88883 10.9299 4.79004 12.4801 4.79004ZM14.3901 8.00004C14.3901 6.94518 13.5349 6.09004 12.4801 6.09004C11.4252 6.09004 10.5701 6.94518 10.5701 8.00004C10.5701 9.0549 11.4252 9.91004 12.4801 9.91004C13.5349 9.91004 14.3901 9.0549 14.3901 8.00004Z" fill="black"/>
<path d="M3.97466 4.82198L2.17546 6.62118C1.41393 7.3827 1.41393 8.61737 2.17546 9.3789L3.97466 11.1781C3.82615 11.1991 3.67438 11.21 3.52006 11.21C1.74722 11.21 0.310059 9.77287 0.310059 8.00004C0.310059 6.22721 1.74722 4.79004 3.52006 4.79004C3.67438 4.79004 3.82615 4.80093 3.97466 4.82198Z" fill="black"/>
</svg>
