<svg xmlns="http://www.w3.org/2000/svg" width="16" height="16" fill="none" viewBox="0 0 16 16"><path fill="#000" fill-rule="evenodd" d="M9.2194 1.3267a1.15 1.15 0 0 0-.756-.2832H4.7947c-1.1322 0-2.0508.9186-2.0508 2.0507v9.8116l.0107.2099c.105 1.0337.9787 1.8399 2.04 1.8399h3.6641a2.93 2.93 0 0 1-.4805-1.2998H4.7946a.75.75 0 0 1-.746-.6729l-.004-.0771V3.0942a.75.75 0 0 1 .75-.75h3.2198v2.1436c.0003 1.132.9187 2.0498 2.0508 2.0498h3.1894a6 6 0 0 0 .0019-.3003q-.0008-.0683-.0009-.1362a1.15 1.15 0 0 0-.2383-.7012l-.0703-.083-3.6426-3.9072zm.8457 3.9111c-.414 0-.7497-.336-.75-.75V3.3267l1.7812 1.9111zm3.4746 3.0518a.6507.6507 0 0 0-.6504-.6504h-1.8535a.65.65 0 0 0-.6494.6504v.3994H9.2116a.65.65 0 0 0-.6495.6504.65.65 0 0 0 .6495.6503h.0449v3.3184c0 .9112.7382 1.6503 1.6494 1.6504h2.1133c.9112 0 1.6504-.7391 1.6504-1.6504V9.9897h.0449a.65.65 0 0 0 .6494-.6503.65.65 0 0 0-.6494-.6504h-1.1748zm-2.9834 5.0185V9.9897h2.8135v3.3184a.351.351 0 0 1-.3506.3506h-2.1133a.3504.3504 0 0 1-.3496-.3506"/></svg>