<svg width="16" height="16" viewBox="0 0 16 16" fill="none" xmlns="http://www.w3.org/2000/svg">
<path d="M13.2737 10.3665L12.9721 10.8888L13.9238 11.8405L14.6829 10.5257C14.8453 10.2444 14.7752 9.88646 14.5187 9.68727L13.2751 8.72155C13.3071 8.48527 13.3237 8.2443 13.3237 7.99976C13.3237 7.75556 13.3072 7.51492 13.2752 7.27895L14.5196 6.31353C14.7763 6.11439 14.8465 5.75631 14.6841 5.47496L13.5297 3.47552C13.3673 3.19427 13.0223 3.07603 12.7215 3.19858L11.2626 3.79304C10.8839 3.49898 10.4641 3.25477 10.0131 3.07048L9.79871 1.51139C9.75446 1.18966 9.47953 0.949951 9.15477 0.949951H6.84601C6.52114 0.949951 6.24615 1.18982 6.20203 1.51168L5.9884 3.07036C5.79426 3.14968 5.60591 3.2401 5.42412 3.34082L6.39361 4.31031C6.51818 4.25597 6.646 4.20777 6.77668 4.16609L7.16745 4.04145L7.413 2.24995H8.58804L8.83444 4.04162L9.22496 4.16622C9.78087 4.34359 10.285 4.63896 10.7075 5.02355L11.0107 5.29947L12.6872 4.61632L13.2748 5.63394L11.8456 6.74268L11.9324 7.14291C11.9921 7.41845 12.0237 7.70505 12.0237 7.99976C12.0237 8.2947 11.992 8.58151 11.9322 8.85724L11.8454 9.25733L13.2737 10.3665Z" fill="black"/>
<path fill-rule="evenodd" clip-rule="evenodd" d="M2.28653 3.79683L1.3437 2.854C1.08986 2.60016 1.08986 2.18861 1.3437 1.93477C1.59754 1.68092 2.0091 1.68092 2.26294 1.93477L13.7046 13.3765C13.9585 13.6303 13.9585 14.0419 13.7046 14.2957C13.4508 14.5495 13.0392 14.5495 12.7854 14.2957L10.9328 12.4431C10.6447 12.6335 10.337 12.7967 10.0132 12.929L9.79871 14.4885C9.75446 14.8102 9.47953 15.05 9.15477 15.05H6.84601C6.52114 15.05 6.24615 14.8101 6.20203 14.4882L5.98834 12.9291C5.53756 12.745 5.11795 12.5009 4.73933 12.2071L3.28155 12.8018C2.98075 12.9246 2.63552 12.8063 2.47308 12.525L1.31871 10.5255C1.15632 10.2443 1.22645 9.88635 1.48296 9.68716L2.72618 8.72176C2.6941 8.48541 2.67756 8.24437 2.67756 7.99976C2.67756 7.75548 2.69405 7.51477 2.72606 7.27872L1.48208 6.31364C1.2254 6.1145 1.15516 5.75642 1.3176 5.47507L2.28653 3.79683ZM3.2382 4.7485L2.72692 5.63405L4.15567 6.74248L4.0689 7.14273C4.00915 7.41833 3.97756 7.70499 3.97756 7.99976C3.97756 8.29476 4.0092 8.58162 4.06903 8.85741L4.15584 9.25751L2.7279 10.3663L3.31542 11.384L4.99083 10.7004L5.29414 10.9764C5.71671 11.3609 6.22077 11.6561 6.77663 11.8334L7.16739 11.9581L7.413 13.75H8.58804L8.8345 11.9579L9.225 11.8333C9.4925 11.7479 9.74799 11.6353 9.98818 11.4985L8.11453 9.62484L7.54531 9.95348C7.3442 10.0696 7.09642 10.0696 6.89531 9.95348C6.6942 9.83737 6.57031 9.62278 6.57031 9.39056V8.08062L3.2382 4.7485Z" fill="black"/>
</svg>
