<svg width="16" height="16" viewBox="0 0 16 16" fill="none" xmlns="http://www.w3.org/2000/svg">
<path fill-rule="evenodd" clip-rule="evenodd" d="M12.8892 7.63916C13.2481 7.63916 13.5396 7.93057 13.5396 8.28955V8.68896H14.7144C15.0731 8.6892 15.3638 8.98051 15.3638 9.33936C15.3638 9.69819 15.0731 9.98951 14.7144 9.98975H14.6694V13.3081C14.6694 14.2194 13.9303 14.9585 13.019 14.9585H10.9058C9.99458 14.9584 9.25635 14.2193 9.25635 13.3081V9.98975H9.21143C8.8525 9.98969 8.56202 9.6983 8.56201 9.33936C8.56201 8.98041 8.85249 8.68903 9.21143 8.68896H10.3862V8.28955C10.3862 7.93073 10.6769 7.63942 11.0356 7.63916H12.8892ZM10.5562 9.98975V13.3081C10.5562 13.5013 10.7126 13.6586 10.9058 13.6587H13.019C13.2123 13.6587 13.3696 13.5014 13.3696 13.3081V9.98975H10.5562Z" fill="black"/>
<path fill-rule="evenodd" clip-rule="evenodd" d="M8.46338 1.04346C8.74247 1.04349 9.01087 1.145 9.21924 1.32666L9.3042 1.40967L12.9468 5.31689L13.0171 5.3999C13.1711 5.60011 13.2554 5.84648 13.2554 6.10107C13.2554 6.24633 13.2602 6.39244 13.2544 6.5376H10.0649C8.93294 6.5376 8.01445 5.61973 8.01416 4.48779V2.34424H4.79443C4.38022 2.34424 4.04443 2.68002 4.04443 3.09424V12.9058L4.04834 12.9829C4.08692 13.3609 4.40624 13.6558 4.79443 13.6558H7.97803C8.03411 14.1331 8.20242 14.5759 8.4585 14.9556H4.79443C3.73308 14.9556 2.85947 14.1493 2.75439 13.1157L2.74365 12.9058V3.09424C2.74365 1.96205 3.66225 1.04346 4.79443 1.04346H8.46338ZM9.31494 4.48779C9.31523 4.90176 9.65091 5.23779 10.0649 5.23779H11.0962L9.31494 3.32666V4.48779Z" fill="black"/>
</svg>
