<svg xmlns="http://www.w3.org/2000/svg" width="16" height="16" fill="none" viewBox="0 0 16 16"><path fill="#000" fill-rule="evenodd" d="M15 8c0 3.866-3.134 7-7 7s-7-3.134-7-7 3.134-7 7-7 7 3.134 7 7m-1.3 0c0 3.148-2.552 5.7-5.7 5.7S2.3 11.148 2.3 8 4.852 2.3 8 2.3s5.7 2.552 5.7 5.7m-3.7066-.0815c.0131.1055.0991.1903.2055.1903l2.0346-.0008c.1086 0 .197-.0883.192-.1968-.0646-1.396-.7878-2.734-2.041-3.5327-.0915-.0583-.212-.0258-.2663.0682L9.0784 6.2476c-.0546.0946-.0208.215.0688.2776.4555.3182.7741.8164.8462 1.3933m-6.419.0027c-.0046.1082.0837.196.192.196L5.8 8.1179c.1067 0 .1929-.0853.2056-.1913.0697-.5793.3884-1.0797.8447-1.3995.0895-.0626.1231-.1828.0685-.2774L5.8797 4.4493c-.0542-.094-.1746-.1265-.266-.0682a4.406 4.406 0 0 0-1.4489 1.5158c-.3692.6402-.5613 1.3342-.5904 2.0243m4.4255-.9606c-.6669 0-1.208.5401-1.208 1.208S7.333 9.3755 8 9.3755c.6678 0 1.2089-.5392 1.2089-1.207S8.6679 6.9605 8 6.9605m2.109 4.8237c.0543.0942.0219.215-.0747.2648-1.2403.6395-2.757.6802-4.0738-.0051-.0963-.0501-.1284-.1708-.0742-.2648l.99-1.7142c.0547-.0948.176-.1256.275-.0785.258.1227.544.1947.8487.1947.3031 0 .5875-.0713.8444-.1927.0988-.0467.2198-.0158.2744.0789z"/></svg>