<svg xmlns="http://www.w3.org/2000/svg" width="16" height="16" fill="none" viewBox="0 0 16 16"><path fill="#000" d="M3.3965 4.6172c1.0208-1.376 2.6569-2.2667 4.5002-2.2667 3.0924 0 5.5994 2.507 5.5994 5.5995s-2.507 5.5994-5.5994 5.5994c-1.9909 0-3.7396-1.0385-4.7334-2.6064a.65.65 0 0 0-1.098.696c1.2221 1.9281 3.3768 3.2104 5.8314 3.2104 3.8104 0 6.8994-3.089 6.8994-6.8994 0-3.8105-3.089-6.8995-6.8994-6.8995-2.1834 0-4.1291 1.0142-5.3928 2.5958V2.302a.65.65 0 0 0-1.3 0v2.9652c0 .359.291.65.65.65h2.8232a.65.65 0 1 0 0-1.3z"/></svg>