<svg xmlns="http://www.w3.org/2000/svg" width="16" height="16" fill="none" viewBox="0 0 16 16"><path fill="#000" fill-rule="evenodd" d="M11.6733 9.2265a.65.65 0 0 0-.9193-.9192L9.3073 9.754a.65.65 0 0 0 0 .9192l1.4467 1.4467a.65.65 0 1 0 .9193-.9192l-.3358-.3358h.9882c.7686.0591 1.3743.7022 1.3743 1.4863 0 .8152-.6544 1.4776-1.4663 1.4906l-1.4643.0002a.65.65 0 1 0 0 1.3c.0049 0 1.4665-.0001 1.485-.0004C13.775 15.1174 15 13.8774 15 12.3512c0-1.4806-1.1527-2.6915-2.61-2.785-.3491-.0223-.7045-.0026-1.0542-.0023z" clip-rule="evenodd"/><path fill="#000" d="M14.8871 9.2588A7.04 7.04 0 0 0 15 8c0-3.866-3.134-7-7-7S1 4.134 1 8s3.134 7 7 7c.2955 0 .5867-.0183.8725-.0539a1.96 1.96 0 0 1-.0531-.4541c0-.3187.0764-.6195.212-.8851A5.73 5.73 0 0 1 8 13.7c-3.148 0-5.7-2.552-5.7-5.7S4.852 2.3 8 2.3s5.7 2.552 5.7 5.7q-.0001.2689-.0244.5315c.4469.1716.856.4194 1.2115.7273"/><path fill="#000" d="M7.817 10.173a1.945 1.945 0 0 0 .571 1.42l.791.791c-1.044.288-2.192.195-3.218-.339-.096-.05-.128-.171-.074-.265l.99-1.714c.055-.095.176-.126.275-.078.206.098.429.164.666.186m.188-.798H8c-.667 0-1.208-.539-1.208-1.207S7.333 6.961 8 6.961c.619 0 1.128.463 1.2 1.062l-.812.812a1.95 1.95 0 0 0-.382.541m4.321-2.21c-.756-.527-1.803-.457-2.482.211a2.02 2.02 0 0 0-.698-.852c-.09-.063-.123-.183-.069-.278l1.04-1.801c.054-.094.175-.126.266-.068 1.028.655 1.699 1.672 1.943 2.787m-8.753.756c-.005.108.084.196.192.196l2.034.001c.107 0 .193-.085.206-.191.07-.579.388-1.08.845-1.399.09-.063.123-.183.069-.277L5.88 4.449c-.054-.094-.175-.126-.266-.068a4.406 4.406 0 0 0-1.449 1.516c-.369.64-.561 1.334-.59 2.024"/></svg>