<svg width="16" height="16" viewBox="0 0 16 16" fill="none" xmlns="http://www.w3.org/2000/svg">
<path d="M2.48119 11.5488L3.75365 11.6865L3.864 11.709C4.11346 11.781 4.30081 11.9974 4.32982 12.2627L4.46752 13.5361C4.50176 13.8535 4.30087 14.1493 3.99291 14.2334L2.05346 14.7617C1.82845 14.823 1.58751 14.7587 1.4226 14.5938C1.25797 14.4289 1.1935 14.1887 1.25463 13.9639L1.78393 12.0244C1.86799 11.7162 2.16363 11.5144 2.48119 11.5488Z" fill="black"/>
<path fill-rule="evenodd" clip-rule="evenodd" d="M13.6531 1.22559C14.2236 1.23711 14.6758 1.68827 14.6872 2.25879L14.6824 2.38281L14.6111 3.00391C14.414 4.43365 13.9869 5.72845 13.2253 6.94043C12.7091 7.76191 12.0469 8.53135 11.2195 9.27344V13.1348C11.2194 13.4445 10.9997 13.7116 10.696 13.7725L7.39818 14.4316C7.20729 14.4698 7.00869 14.4203 6.85814 14.2969C6.70771 14.1734 6.62084 13.9886 6.62084 13.7939L6.61986 12.2822C6.45897 12.3674 6.334 12.4348 6.24096 12.4814C6.17668 12.5137 6.12778 12.5366 6.09447 12.5527C6.07796 12.5607 6.06448 12.567 6.05541 12.5713C6.05111 12.5733 6.04727 12.575 6.04467 12.5762C6.04356 12.5767 6.04256 12.5776 6.04174 12.5781H6.03979L6.03881 12.5791C5.7915 12.6935 5.49909 12.6409 5.30639 12.4482L3.49779 10.6396C3.30643 10.4482 3.25317 10.1576 3.36498 9.91113L3.36596 9.90918C3.36643 9.90838 3.36736 9.90741 3.36791 9.90625C3.36918 9.90347 3.37056 9.89939 3.37279 9.89453C3.37738 9.88461 3.38461 9.87005 3.3933 9.85156C3.41069 9.81458 3.43608 9.76009 3.47045 9.68945C3.5177 9.59234 3.58253 9.46425 3.66381 9.30469H2.13158C1.93696 9.30469 1.75211 9.21782 1.62865 9.06738C1.50523 8.91683 1.45576 8.71824 1.49389 8.52734L2.15307 5.22949C2.21388 4.92578 2.48101 4.7061 2.79076 4.70605H6.64232C8.57457 2.59755 10.8287 1.47503 13.529 1.22949L13.6531 1.22559ZM9.91869 10.3213C9.7185 10.467 9.51131 10.6123 9.29662 10.7568C9.28764 10.7629 9.27854 10.7688 9.26928 10.7744C8.75478 11.0833 8.30621 11.3445 7.92162 11.5645V13.002L9.91869 12.6025V10.3213ZM2.92357 8.00391H4.35814C4.5765 7.61053 4.83341 7.15781 5.13354 6.64844C5.13974 6.63791 5.14726 6.62734 5.15404 6.61719C5.2942 6.40747 5.43597 6.20384 5.57982 6.00684H3.32299L2.92357 8.00391ZM11.3992 4.52734C10.9068 4.03502 10.1083 4.03508 9.61596 4.52734C9.12389 5.01972 9.1237 5.81829 9.61596 6.31055C10.1082 6.80261 10.9069 6.80255 11.3992 6.31055C11.8914 5.81825 11.8913 5.01968 11.3992 4.52734Z" fill="black"/>
</svg>
