<svg xmlns="http://www.w3.org/2000/svg" width="16" height="16" fill="none" viewBox="0 0 16 16"><path fill="#000" fill-rule="evenodd" d="M14.6873 2.2588c-.0115-.5705-.4637-1.0217-1.0342-1.0332l-.124.0039c-2.7004.2455-4.9545 1.368-6.8868 3.4766H2.7908a.6515.6515 0 0 0-.6377.5234l-.6592 3.2979a.651.651 0 0 0 .1347.54.65.65 0 0 0 .503.2373h1.5322a26 26 0 0 0-.1934.3848c-.0343.0706-.0597.125-.0771.162-.0087.0186-.016.0331-.0205.043l-.0049.0117c-.0005.0012-.0015.0022-.002.003l-.001.002a.651.651 0 0 0 .1329.7284l1.8086 1.8086a.65.65 0 0 0 .7324.1309l.001-.001h.002q.0011-.001.0029-.0019l.0107-.0049c.009-.0043.0226-.0106.039-.0186.0334-.0161.0823-.039.1465-.0713.0931-.0466.218-.114.379-.1992l.001 1.5117c0 .1947.0868.3795.2373.503a.651.651 0 0 0 .54.1347l3.2978-.6591a.6516.6516 0 0 0 .5235-.6377V9.2735c.8274-.7422 1.4896-1.5116 2.0058-2.333.7616-1.212 1.1887-2.5068 1.3858-3.9366l.0713-.621zM9.6159 4.5274c.4924-.4923 1.2909-.4924 1.7833 0 .4921.4923.4922 1.2908 0 1.7832-.4923.492-1.291.492-1.7833 0-.4922-.4923-.492-1.2909 0-1.7832M4.3583 8.0039H2.9236l.3994-1.997h2.2568a18 18 0 0 0-.4258.6103c-.0068.0101-.0143.0207-.0205.0313-.3.5093-.557.962-.7753 1.3554m4.9384 2.7529a21 21 0 0 0 .622-.4355v2.2812l-1.997.3994v-1.4375a73 73 0 0 0 1.3477-.79 1 1 0 0 0 .0273-.0176m-5.543.9297-1.2724-.1377a.6505.6505 0 0 0-.6973.4756l-.5293 1.9395a.65.65 0 0 0 .168.6298.651.651 0 0 0 .6309.168l1.9394-.5283a.65.65 0 0 0 .4746-.6973l-.1377-1.2734a.65.65 0 0 0-.4658-.5537z"/></svg>