<svg width="16" height="16" viewBox="0 0 16 16" fill="none" xmlns="http://www.w3.org/2000/svg">
<path d="M8.0342 2.35054C9.87748 2.35054 11.5136 3.24117 12.5344 4.61722H11.2538C10.8948 4.61722 10.6038 4.90824 10.6038 5.26722C10.6038 5.62621 10.8948 5.91722 11.2538 5.91722H14.077C14.436 5.91722 14.727 5.62621 14.727 5.26722V2.30204C14.727 1.94305 14.436 1.65204 14.077 1.65204C13.718 1.65204 13.427 1.94305 13.427 2.30204V3.64627C12.1632 2.06474 10.2176 1.05054 8.0342 1.05054C4.22375 1.05054 1.13477 4.13952 1.13477 7.94997C1.13477 11.7604 4.22375 14.8494 8.0342 14.8494C10.4888 14.8494 12.6434 13.5671 13.8655 11.639C14.0577 11.3358 13.9677 10.9342 13.6645 10.742C13.3613 10.5498 12.9597 10.6398 12.7675 10.943C11.7738 12.5109 10.025 13.5494 8.0342 13.5494C4.94172 13.5494 2.43476 11.0425 2.43476 7.94997C2.43476 4.85749 4.94172 2.35054 8.0342 2.35054Z" fill="black"/>
<path d="M8.0001 9.74994C8.9666 9.74994 9.7501 8.96644 9.7501 7.99995C9.7501 7.03345 8.9666 6.24995 8.0001 6.24995C7.0336 6.24995 6.2501 7.03345 6.2501 7.99995C6.2501 8.96644 7.0336 9.74994 8.0001 9.74994Z" fill="black"/>
</svg>
