<svg width="16" height="16" viewBox="0 0 16 16" fill="none" xmlns="http://www.w3.org/2000/svg">
<path d="M7.89691 2.40055C6.05363 2.40055 4.4175 3.29118 3.39672 4.66723H4.67735C5.03633 4.66723 5.32735 4.95825 5.32735 5.31723C5.32735 5.67622 5.03633 5.96723 4.67735 5.96723H1.8541C1.49512 5.96723 1.2041 5.67622 1.2041 5.31723V2.35205C1.2041 1.99306 1.49512 1.70205 1.8541 1.70205C2.21309 1.70205 2.5041 1.99306 2.5041 2.35205V3.69627C3.76788 2.11475 5.71355 1.10055 7.89691 1.10055C11.7074 1.10055 14.7963 4.18953 14.7963 7.99998C14.7963 11.8104 11.7074 14.8994 7.89691 14.8994C5.44231 14.8994 3.28766 13.6171 2.06556 11.689C1.87338 11.3858 1.96339 10.9842 2.2666 10.792C2.56981 10.5998 2.97141 10.6898 3.16359 10.993C4.15735 12.5609 5.90608 13.5994 7.89691 13.5994C10.9894 13.5994 13.4963 11.0925 13.4963 7.99998C13.4963 4.9075 10.9894 2.40055 7.89691 2.40055Z" fill="black"/>
<path d="M7.93101 9.79995C8.8975 9.79995 9.68101 9.01645 9.68101 8.04995C9.68101 7.08346 8.8975 6.29995 7.93101 6.29995C6.96451 6.29995 6.18101 7.08346 6.18101 8.04995C6.18101 9.01645 6.96451 9.79995 7.93101 9.79995Z" fill="black"/>
</svg>
