<svg xmlns="http://www.w3.org/2000/svg" width="16" height="16" fill="none" viewBox="0 0 16 16"><path fill="#000" fill-rule="evenodd" d="M4.9396 5.5798a.65.65 0 0 0-.9193-.9192L1.1406 7.5403a.65.65 0 0 0 0 .9193l2.8797 2.8797a.65.65 0 1 0 .9192-.9192L2.5196 8zm6.1212 0a.65.65 0 1 1 .9192-.9192l2.8797 2.8797a.65.65 0 0 1 0 .9193L11.98 11.3393a.65.65 0 0 1-.9192 0 .65.65 0 0 1 0-.9192L13.4809 8zM6.9853 8a.9514.9514 0 0 1-.9514.9513A.9514.9514 0 0 1 5.0825 8c0-.5255.426-.9514.9514-.9514s.9514.426.9514.9513m2.9813.9513A.9513.9513 0 0 0 10.9179 8a.9514.9514 0 1 0-1.9027 0c0 .5254.426.9513.9513.9513"/></svg>