<svg xmlns="http://www.w3.org/2000/svg" width="16" height="16" fill="none" viewBox="0 0 16 16"><path fill="#000" fill-rule="evenodd" d="m5.0815 4.3956.0023-.003a1.9 1.9 0 0 1 .1423-.1567c.1115-.1117.2861-.2666.5258-.4231.4756-.3107 1.2137-.633 2.2475-.633s1.772.3223 2.2475.633c.2397.1565.4143.3114.5258.423.0557.0558.0952.1003.1189.1282a1 1 0 0 1 .0234.0286l.0024.003a.65.65 0 0 0 1.0454-.7727 2 2 0 0 0-.0794-.0993 3.5 3.5 0 0 0-.191-.2066c-.1653-.1653-.4088-.3798-.7344-.5926-.6552-.428-1.6367-.8445-2.9586-.8445s-2.3034.4165-2.9585.8445c-.3257.2128-.5692.4273-.7345.5926-.1025.1027-.2105.2127-.2904.3348a.65.65 0 0 0 1.0655.7438m.982 2.1725a.65.65 0 0 0 .9016-.1305l.0018-.0021a.6.6 0 0 1 .0338-.0363 1.13 1.13 0 0 1 .18-.1444c.1653-.108.4316-.2275.819-.2275.3876 0 .6538.1195.8192.2275.0845.0552.1444.1088.18.1444a.6.6 0 0 1 .0338.0363l.0017.002a.65.65 0 0 0 1.0636-.7459c-.1381-.2137-.3582-.388-.5681-.5251-.3449-.2254-.8546-.4392-1.5301-.4392s-1.1852.2138-1.5301.4392c-.2071.1353-.4286.3116-.5663.5223a.65.65 0 0 0 .16.8793m-5.0576 3.667c0-1.2426 1.0073-2.25 2.25-2.25h9.4875c1.2426 0 2.25 1.0073 2.25 2.25v2.4599c0 1.2426-1.0074 2.25-2.25 2.25H3.2559c-1.2427 0-2.25-1.0074-2.25-2.25zm2.25-.95a.95.95 0 0 0-.95.95v2.4599a.95.95 0 0 0 .95.95h9.4875c.5246 0 .95-.4254.95-.95v-2.4599a.95.95 0 0 0-.95-.95zm1.2447 2.9299a.75.75 0 1 0 0-1.5.75.75 0 0 0 0 1.5m3.499-.75a.75.75 0 0 1-.75.75.75.75 0 1 1 .75-.75"/></svg>