<svg xmlns="http://www.w3.org/2000/svg" width="16" height="16" fill="none" viewBox="0 0 16 16"><path fill="#000" fill-rule="evenodd" d="M14.6729 4.666c-.0002-1.104-.896-1.9997-2-2H3.3428l-.2051.0108c-1.0081.1025-1.7958.954-1.7959 1.9892v6.6641c0 1.0352.7877 1.8867 1.7959 1.9892l.205.0108h9.3302c1.035-.0003 1.8867-.7869 1.9892-1.7949l.0108-.2051zM3.3428 12.0303a.7006.7006 0 0 1-.7002-.7002v-6.667H13.373v6.667c0 .3862-.3141.6999-.7002.7002zm3.8886-6.3535c-.6406-.261-1.373.2073-1.373.9287v3.4629c.0002.7693.8336 1.2506 1.5.8662l2.999-1.7315c.6665-.3848.6665-1.3475 0-1.7324l-2.999-1.7314zm1.959 2.6601-1.998 1.1543V7.1816z"/></svg>