<svg xmlns="http://www.w3.org/2000/svg" width="16" height="16" fill="none" viewBox="0 0 16 16"><path fill="#000" fill-rule="evenodd" d="M3.4924 5.5276C3.919 3.428 5.7747 1.8482 8 1.8482s4.081 1.5798 4.5075 3.6794c1.3905.2615 2.4425 1.4822 2.4425 2.9486 0 1.6571-1.3433 3.0004-3.0003 3.0004h-1.0392l.5848-.5848a1.94 1.94 0 0 0 .4552-.7152c.9387-.0005 1.6995-.7616 1.6995-1.7004 0-.939-.7612-1.7003-1.7003-1.7003h-.0095a.65.65 0 0 1-.6514-.5977c-.1368-1.696-1.5573-3.03-3.2888-3.03s-3.152 1.334-3.2888 3.03a.65.65 0 0 1-.6497.5977h-.0111c-.939 0-1.7004.7612-1.7004 1.7003 0 .9111.7166 1.6548 1.617 1.6984a1.954 1.954 0 0 0 .2085 1.302h-.1251c-1.657 0-3.0004-1.3433-3.0004-3.0004 0-1.4664 1.052-2.6871 2.4425-2.9486m7.0836 4.445a.65.65 0 0 0-.9193-.9193L7.489 11.221l-1.1459-1.1459a.65.65 0 1 0-.9192.9192l1.6055 1.6055a.65.65 0 0 0 .9193 0z"/></svg>