<svg width="16" height="16" viewBox="0 0 16 16" fill="none" xmlns="http://www.w3.org/2000/svg">
<path d="M7.9998 1.84814C5.77453 1.84814 3.91881 3.42798 3.49231 5.5276C2.10183 5.78904 1.0498 7.00976 1.0498 8.47618C1.0498 10.1332 2.3931 11.4765 4.05015 11.4765H4.17532C3.95411 11.0758 3.88457 10.6138 3.96671 10.1745C3.06639 10.131 2.3498 9.38728 2.3498 8.47618C2.3498 7.53711 3.11107 6.77584 4.05015 6.77584L4.06133 6.77587C4.40072 6.77678 4.68369 6.51643 4.71098 6.17813C4.84778 4.48225 6.26832 3.14814 7.9998 3.14814C9.73129 3.14814 11.1518 4.48225 11.2886 6.17814C11.316 6.51709 11.6 6.77768 11.94 6.77586L11.9495 6.77584C12.8885 6.77584 13.6498 7.53711 13.6498 8.47618C13.6498 9.41499 12.889 10.1761 11.9503 10.1765C11.856 10.4376 11.7043 10.6825 11.495 10.8918L10.9103 11.4765H11.9495C13.6065 11.4765 14.9498 10.1332 14.9498 8.47618C14.9498 7.00976 13.8978 5.78905 12.5073 5.5276C12.0808 3.42798 10.2251 1.84814 7.9998 1.84814Z" fill="black"/>
<path d="M10.5758 9.05327C10.8297 9.30711 10.8297 9.71866 10.5758 9.9725L7.94855 12.5998C7.82665 12.7217 7.66132 12.7902 7.48893 12.7902C7.31654 12.7902 7.15121 12.7217 7.02931 12.5998L5.42378 10.9943C5.16994 10.7404 5.16994 10.3289 5.42378 10.075C5.67762 9.8212 6.08918 9.8212 6.34302 10.075L7.48893 11.2209L9.65661 9.05327C9.91045 8.79942 10.322 8.79942 10.5758 9.05327Z" fill="black"/>
</svg>
