<svg width="16" height="16" viewBox="0 0 16 16" fill="none" xmlns="http://www.w3.org/2000/svg">
<path d="M9.22631 5.53009C9.22631 6.20729 8.67733 6.75626 8.00014 6.75626C7.32294 6.75626 6.77397 6.20729 6.77397 5.53009C6.77397 4.8529 7.32294 4.30392 8.00014 4.30392C8.67733 4.30392 9.22631 4.8529 9.22631 5.53009Z" fill="black"/>
<path fill-rule="evenodd" clip-rule="evenodd" d="M8.00022 12.0001C8.39811 12.5141 8.39825 12.514 8.3984 12.5139L8.39981 12.5128L8.40298 12.5103L8.41369 12.5019L8.45188 12.4716C8.48455 12.4455 8.53132 12.4077 8.5902 12.359C8.70788 12.2616 8.87423 12.1203 9.07305 11.9415C9.4698 11.5847 10.0004 11.0746 10.5329 10.4625C11.5674 9.27344 12.7347 7.55892 12.7347 5.77211C12.7347 3.15731 10.615 1.0376 8.00022 1.0376C5.38543 1.0376 3.26571 3.15731 3.26571 5.77211C3.26571 7.55892 4.43309 9.27344 5.46757 10.4625C6.00009 11.0746 6.53065 11.5847 6.9274 11.9415C7.12622 12.1203 7.29257 12.2616 7.41025 12.359C7.46912 12.4077 7.5159 12.4455 7.54857 12.4716L7.58676 12.5019L7.59747 12.5103L7.60168 12.5136C7.60182 12.5137 7.60233 12.5141 8.00022 12.0001ZM8.00022 2.3376C9.89705 2.3376 11.4347 3.87528 11.4347 5.77211C11.4347 7.0514 10.5599 8.45088 9.55209 9.60927C9.06347 10.1709 8.5729 10.6429 8.20381 10.9748C8.13067 11.0406 8.06248 11.1007 8.00023 11.1548C7.93797 11.1007 7.86978 11.0406 7.79664 10.9748C7.42755 10.6429 6.93698 10.1709 6.44836 9.60927C5.44059 8.45088 4.56571 7.0514 4.56571 5.77211C4.56571 3.87528 6.1034 2.3376 8.00022 2.3376Z" fill="black"/>
<path d="M8.00022 12.0001L7.60168 12.5136C7.83594 12.6949 8.16413 12.6952 8.3984 12.5139L8.00022 12.0001Z" fill="black"/>
<path d="M12.1435 11.6607C11.9617 11.3512 11.5634 11.2476 11.2539 11.4294C10.9443 11.6112 10.8408 12.0095 11.0226 12.3191L11.5534 13.2229C11.6904 13.4562 11.5221 13.7501 11.2516 13.7501H4.75016C4.47947 13.7501 4.31124 13.456 4.44848 13.2227L4.97977 12.3195C5.16179 12.0101 5.0585 11.6117 4.74908 11.4297C4.43966 11.2476 4.04127 11.3509 3.85926 11.6604L3.32797 12.5636C2.68094 13.6635 3.47403 15.0501 4.75016 15.0501H11.2516C12.5272 15.0501 13.3203 13.6645 12.6743 12.5645L12.1435 11.6607Z" fill="black"/>
</svg>
