<svg xmlns="http://www.w3.org/2000/svg" width="16" height="16" fill="none" viewBox="0 0 16 16"><path fill="#000" fill-rule="evenodd" d="M.95 5.2937c0-1.6845 1.3655-3.05 3.05-3.05h8c1.6844 0 3.05 1.3655 3.05 3.05v4.9084c0 1.6178-1.2596 2.9414-2.8516 3.0436v.7513a.65.65 0 1 1-1.3 0v-.7449H5.1015v.7449a.65.65 0 1 1-1.3 0v-.7512C2.2095 13.1435.95 11.8199.95 10.2021zM4 3.5437c-.9665 0-1.75.7834-1.75 1.75v4.9084c0 .9665.7835 1.75 1.75 1.75h8c.9665 0 1.75-.7835 1.75-1.75V5.2937c0-.9666-.7835-1.75-1.75-1.75zm4.6598 4.2041c0-1.1663.9455-2.1119 2.1119-2.1119s2.1119.9455 2.1119 2.112c0 1.1663-.9455 2.1119-2.1119 2.1119s-2.112-.9456-2.112-2.112m2.1119-.8119a.812.812 0 1 0 0 1.6238.812.812 0 0 0 0-1.6238"/></svg>