<svg xmlns="http://www.w3.org/2000/svg" width="16" height="16" fill="none" viewBox="0 0 16 16"><path fill="#000" fill-rule="evenodd" d="m8.3998 12.5128-.0014.0011a.6514.6514 0 0 1-.7967-.0003l-.0042-.0033-.0107-.0084-.0382-.0303a10 10 0 0 1-.1383-.1126 16 16 0 0 1-.4829-.4175c-.3968-.3568-.9273-.8669-1.4598-1.479-1.0345-1.189-2.2019-2.9036-2.2019-4.6904 0-2.6148 2.1197-4.7345 4.7345-4.7345s4.7345 2.1197 4.7345 4.7345c0 1.7868-1.1673 3.5013-2.2018 4.6904-.5325.6121-1.0631 1.1222-1.4598 1.479a16 16 0 0 1-.4829.4175 11 11 0 0 1-.1383.1126l-.0382.0303-.0107.0084zm3.0349-6.7407c0-1.8968-1.5376-3.4345-3.4345-3.4345S4.5657 3.8753 4.5657 5.7721c0 1.2793.8749 2.6788 1.8827 3.8372.4886.5616.9792 1.0336 1.3482 1.3655.0732.0658.1414.1259.2036.18a16 16 0 0 0 .2036-.18c.3691-.3319.8597-.8039 1.3483-1.3655 1.0078-1.1584 1.8826-2.5579 1.8826-3.8372m-3.4346.9842c.6772 0 1.2262-.549 1.2262-1.2262s-.549-1.2262-1.2262-1.2262-1.2261.549-1.2261 1.2262S7.323 6.7563 8 6.7563m4.1434 4.9044a.65.65 0 1 0-1.1209.6584l.5308.9038c.137.2333-.0313.5272-.3018.5272H4.7502c-.2707 0-.439-.2941-.3017-.5274l.5313-.9032a.65.65 0 1 0-1.1205-.6591l-.5313.9032c-.647 1.0999.146 2.4865 1.4222 2.4865h6.5014c1.2756 0 2.0687-1.3856 1.4227-2.4855z"/></svg>