<svg xmlns="http://www.w3.org/2000/svg" width="16" height="16" fill="none" viewBox="0 0 16 16"><path fill="#000" fill-rule="evenodd" d="M.95 5.2937c0-1.6845 1.3655-3.05 3.05-3.05h8c1.6844 0 3.05 1.3655 3.05 3.05v4.9084c0 1.2323-.7308 2.2939-1.7827 2.7751a3.03 3.03 0 0 1-1.0689.2685v.7513a.65.65 0 1 1-1.3 0v-.7449H5.1015v.7449a.65.65 0 1 1-1.3 0v-.7512C2.2095 13.1435.95 11.8199.95 10.2021zM4 3.5437h1.0916a3.036 3.036 0 0 0-.5517 1.75v4.9084c0 .6511.204 1.2546.5517 1.75H4c-.9665 0-1.75-.7835-1.75-1.75V5.2937c0-.9666.7835-1.75 1.75-1.75m1.84 6.6584c0 .9665.7834 1.75 1.75 1.75H12c.2718 0 .5291-.062.7587-.1726.5865-.2826.9913-.8827.9913-1.5774V5.2937c0-.732-.4494-1.359-1.0872-1.6202A1.74 1.74 0 0 0 12 3.5436H7.59c-.9666 0-1.75.7835-1.75 1.75zm2.8198-2.4543c0-1.1663.9455-2.1119 2.1119-2.1119s2.1119.9455 2.1119 2.112c0 1.1663-.9455 2.1119-2.1119 2.1119s-2.112-.9456-2.112-2.112m2.1119-.8119a.812.812 0 1 0 0 1.6238.812.812 0 0 0 0-1.6238"/></svg>