<svg xmlns="http://www.w3.org/2000/svg" width="16" height="16" fill="none" viewBox="0 0 16 16"><path fill="#000" d="M10.853 7.604a.886.886 0 1 1-1.771 0 .886.886 0 0 1 1.771 0M8 12.32c-1.126 0-2.038-.912-2.038-2.038h4.077c0 1.126-.913 2.038-2.038 2.038"/><path fill="#000" fill-rule="evenodd" d="M8.0071 1.0442c-2.6616 0-4.8826 1.8826-5.4054 4.389-.9062.3357-1.5519 1.2071-1.5519 2.2302 0 .9849.5983 1.829 1.4512 2.1903.2143 2.8536 2.5976 5.1023 5.5061 5.1023 2.9402 0 5.3436-2.2979 5.5124-5.1958.8417-.366 1.4303-1.2045 1.4303-2.1813 0-1.0246-.6476-1.8971-1.556-2.2317-.5552-2.4634-2.7556-4.303-5.3867-4.303M6.0921 5.694c-.8386.2723-1.6707.2477-2.2457.1512.3417-1.988 2.075-3.5011 4.1607-3.5011.3214 0 .6345.036.9353.104C8.3256 4.485 7.1678 5.3448 6.0921 5.694m.4825 1.2094c.94-.3216 1.8565-.924 2.5843-1.9352q.0225.048.0466.0955c.2703.5302.7038.9915 1.3267 1.2756.6173.2815 1.3735.368 2.2624.2369a.66.66 0 0 0 .1053-.0245c.4348.1385.7499.5465.7499 1.0271 0 .5292-.3821.9705-.8856 1.0608l-.5353.096v.6985c0 2.3316-1.8902 4.2218-4.2218 4.2218s-4.2218-1.8902-4.2218-4.2218v-.6163l-.5409-.0921c-.5079-.0866-.8946-.53-.8946-1.0624 0-.3137.1342-.5964.3484-.7935a1 1 0 0 0 .0327.0147c.4763.1975 1.4294.4033 2.521.3001a.8856.8856 0 1 0 1.3226-.2812M12.047 5.336c-.3062-1.0073-.9791-1.8552-1.8633-2.3882-.0917.5122-.0464 1.0817.1799 1.5255.1496.2934.3767.532.708.6832.2397.1093.5578.1834.9754.1795" clip-rule="evenodd"/></svg>