<svg xmlns="http://www.w3.org/2000/svg" width="16" height="16" fill="none" viewBox="0 0 16 16"><path d="M2 1h13v14H2z"/><path fill="#000" fill-rule="evenodd" d="M7.8387 2.3162a.35.35 0 0 1 .3225 0l4.2596 2.211v.6743A2 2 0 0 1 12.5 5.2h1q.1118 0 .2208.0105V4.1322a.65.65 0 0 0-.3506-.5769l-4.61-2.393a1.65 1.65 0 0 0-1.5204 0l-4.61 2.393a.65.65 0 0 0-.3506.577v1.0783A2.3 2.3 0 0 1 2.5 5.2h1q.0397 0 .0792.0014v-.6743zM2.5 6.5002c-.5523 0-1 .4476-1 1v1c0 .5522.4477 1 1 1h1c.5523 0 1-.4478 1-1v-1c0-.5524-.4477-1-1-1zm5 0c-.5523 0-1 .4476-1 1v1c0 .5522.4477 1 1 1h1c.5523 0 1-.4478 1-1v-1c0-.5524-.4477-1-1-1zM3.5 10.8h-.5374c.8264 1.6844 1.9754 2.7491 2.948 3.3991.5207.348.991.5774 1.3355.721.1724.0719.3139.1225.4152.156a4 4 0 0 0 .157.0481l.0114.0031.004.0011.0024.0006A.65.65 0 0 0 8 15.15c.004 0 .1887-.0279.1887-.0279l.0015-.0004.0038-.0012.011-.0035.0197-.0063.015-.005a4 4 0 0 0 .1179-.0414c.099-.0364.2376-.091.4067-.167.3378-.1519.8-.3904 1.3128-.7419.9618-.6593 2.108-1.7208 2.9378-3.3553H12.5a2.29 2.29 0 0 1-.8722-.1711 7.665 7.665 0 0 1-2.2857 2.4541c-.4392.3011-.8319.5031-1.1109.6285a5.4 5.4 0 0 1-.243.1024 5 5 0 0 1-.2419-.0937c-.2794-.1165-.6732-.3078-1.1134-.602-.737-.4925-1.6034-1.2726-2.286-2.4791a2.3 2.3 0 0 1-.8469.1609"/></svg>