<svg xmlns="http://www.w3.org/2000/svg" width="16" height="16" fill="none" viewBox="0 0 16 16"><path fill="#000" fill-rule="evenodd" d="M8.4443 6.6773a.434.434 0 0 1 .4336.4336.434.434 0 0 1-.4336.4336h-.0107v.0107l.0049.083c.0508.4107.4753.8174 1.1172.8174.6848 0 1.122-.4636 1.122-.9004a.434.434 0 0 1 .4336-.4336.4343.4343 0 0 1 .4336.4336c0 .8096-.5847 1.4304-1.333 1.664v.5587c-.0001 1.2209-.991 2.2107-2.2119 2.2109-1.2209-.0002-2.2108-.99-2.211-2.211v-.5585c-.7486-.2335-1.334-.8542-1.334-1.664a.4343.4343 0 0 1 .4337-.4337.434.434 0 0 1 .4336.4336c0 .4368.4373.9003 1.122.9004.6418 0 1.0664-.4067 1.1172-.8174l.005-.083v-.0107h-.0108a.434.434 0 0 1-.4336-.4336.434.434 0 0 1 .4336-.4336zm-.0107 3.1006A.434.434 0 0 1 8 10.2115a.434.434 0 0 1-.4336-.4336v-.7657a2.174 2.174 0 0 1-.9101.2989v.4668c0 .7422.6015 1.3445 1.3437 1.3447.7422-.0002 1.3446-.6025 1.3447-1.3447V9.311a2.174 2.174 0 0 1-.9111-.2988z" clip-rule="evenodd"/><path fill="#000" d="M6 4.889c.368 0 .667.298.667.666A.667.667 0 0 1 6 6.222a.667.667 0 0 1-.667-.667A.667.667 0 0 1 6 4.889m4 0c.368 0 .667.298.667.666a.667.667 0 0 1-.667.667.667.667 0 0 1-.667-.667.667.667 0 0 1 .667-.666"/><path fill="#000" fill-rule="evenodd" d="M6.833 1.269a2.667 2.667 0 0 1 2.4902.0821L13.13 3.527l.1523.0937a2.667 2.667 0 0 1 1.1914 2.2217v4.3155a2.666 2.666 0 0 1-1.1914 2.2216l-.1523.0938-3.8067 2.1758a2.667 2.667 0 0 1-2.4902.082l-.1562-.082-3.8077-2.1758a2.668 2.668 0 0 1-1.3437-2.3154V5.8423c0-.9568.513-1.8406 1.3437-2.3154L6.6768 1.351zM8.6777 2.48a1.367 1.367 0 0 0-1.1943-.079l-.1611.079-3.8076 2.1758a1.367 1.367 0 0 0-.6885 1.1865v4.3155c0 .4904.2626.9431.6885 1.1865l3.8076 2.1758.1611.0791a1.367 1.367 0 0 0 1.1943-.0791l3.8077-2.1758.1523-.1006a1.367 1.367 0 0 0 .5361-1.0859V5.8423a1.367 1.367 0 0 0-.5361-1.086l-.1523-.1005z" clip-rule="evenodd"/></svg>