<svg xmlns="http://www.w3.org/2000/svg" width="16" height="16" fill="none" viewBox="0 0 16 16"><path fill="#000" fill-rule="evenodd" d="M7.7545 1.1304a.654.654 0 0 1 .5916-.0011l6.3262 3.1936a.653.653 0 0 1 .3128.341.66.66 0 0 1 .0647.2842v6.2723a.656.656 0 0 1-.3614.5861l-6.3411 3.181a.655.655 0 0 1-.5949 0l-6.3412-3.181a.656.656 0 0 1-.3614-.5861V4.9481a.656.656 0 0 1 .3969-.6026.7.7 0 0 1 .039-.0215zm.2982 1.319 4.8943 2.4708-2.2422 1.0837L8.05 4.6491l-2.6568 1.354-2.2148-1.0705zm.6518 10.8925V8.4267l5.036-2.4342v4.8231zM7.3951 8.4267l-5.036-2.4342v4.8231l5.036 2.5263z"/></svg>