<svg width="16" height="16" viewBox="0 0 16 16" fill="none" xmlns="http://www.w3.org/2000/svg">
<path fill-rule="evenodd" clip-rule="evenodd" d="M11.5368 1.96631H2.7501C1.83883 1.96631 1.1001 2.70504 1.1001 3.61631V14.084C1.1001 14.9953 1.83883 15.734 2.7501 15.734H13.2501C14.1614 15.734 14.9001 14.9953 14.9001 14.084V5.40017C14.9001 5.23066 14.8339 5.06787 14.7156 4.94648L12.0022 2.16262C11.8799 2.0371 11.712 1.96631 11.5368 1.96631ZM2.7501 3.26631C2.5568 3.26631 2.4001 3.42301 2.4001 3.61631V14.084C2.4001 14.2773 2.5568 14.434 2.7501 14.434H4.09583V9.72983C4.09583 9.14993 4.56593 8.67983 5.14583 8.67983H10.8063C11.3862 8.67983 11.8563 9.14993 11.8563 9.72983V14.434H13.2501C13.4434 14.434 13.6001 14.2773 13.6001 14.084V5.66453L11.2626 3.26631H11.1169V5.15475C11.1169 5.73465 10.6468 6.20475 10.0669 6.20475H5.14582C4.56593 6.20475 4.09583 5.73464 4.09583 5.15475V3.26631H2.7501ZM5.39583 3.26631H9.81686V4.90475H5.39583V3.26631ZM5.39583 9.97983V14.434H10.5563V9.97983H5.39583Z" fill="black"/>
</svg>
