<svg width="16" height="16" viewBox="0 0 16 16" fill="none" xmlns="http://www.w3.org/2000/svg">
<path fill-rule="evenodd" clip-rule="evenodd" d="M11.5363 1.11621H2.74961C1.83834 1.11621 1.09961 1.85494 1.09961 2.76621V13.2339C1.09961 14.1452 1.83834 14.8839 2.74961 14.8839H10.0761C10.0279 14.7143 10.0021 14.5352 10.0021 14.3501V13.9027H9.55443C9.15979 13.9027 8.79254 13.7855 8.48559 13.5839H5.39534V9.12973H10.0486C10.1712 8.57869 10.5269 8.11548 11.0069 7.84896C10.9418 7.83634 10.8746 7.82973 10.8058 7.82973H5.14534C4.56544 7.82973 4.09534 8.29983 4.09534 8.87973V13.5839H2.74961C2.55631 13.5839 2.39961 13.4272 2.39961 13.2339V2.76621C2.39961 2.57291 2.55631 2.41621 2.74961 2.41621H4.09534V4.30465C4.09534 4.88455 4.56544 5.35465 5.14534 5.35465H10.0664C10.6463 5.35465 11.1164 4.88455 11.1164 4.30465V2.41621H11.2621L13.5996 4.81444V8.51124C13.7912 8.81301 13.9021 9.17102 13.9021 9.55493V10.0027H14.3496C14.5406 10.0027 14.7252 10.0302 14.8996 10.0813V4.55007C14.8996 4.38057 14.8334 4.21777 14.7151 4.09638L12.0017 1.31252C11.8794 1.187 11.7115 1.11621 11.5363 1.11621ZM5.39534 2.41621H9.81637V4.05465H5.39534V2.41621Z" fill="black"/>
<path d="M11.9522 8.90494C12.3112 8.90494 12.6022 9.19595 12.6022 9.55494V11.3027H14.3496C14.7086 11.3027 14.9996 11.5937 14.9996 11.9527C14.9996 12.3117 14.7086 12.6027 14.3496 12.6027H12.6022V14.3501C12.6022 14.7091 12.3112 15.0001 11.9522 15.0001C11.5932 15.0001 11.3022 14.7091 11.3022 14.3501V12.6027H9.55448C9.19549 12.6027 8.90448 12.3117 8.90448 11.9527C8.90448 11.5937 9.19549 11.3027 9.55448 11.3027H11.3022V9.55494C11.3022 9.19595 11.5932 8.90494 11.9522 8.90494Z" fill="black"/>
</svg>
