<svg width="16" height="16" viewBox="0 0 16 16" fill="none" xmlns="http://www.w3.org/2000/svg">
<path fill-rule="evenodd" clip-rule="evenodd" d="M11.5363 1.96631H2.74961C1.83834 1.96631 1.09961 2.70504 1.09961 3.61631V14.084C1.09961 14.9953 1.83834 15.734 2.74961 15.734H10.0761C10.0279 15.5644 10.0021 15.3853 10.0021 15.2002V14.7528H9.55443C9.15979 14.7528 8.79254 14.6356 8.48559 14.434H5.39534V9.97982H10.0486C10.1712 9.42879 10.5269 8.96558 11.0069 8.69905C10.9418 8.68643 10.8746 8.67982 10.8058 8.67982H5.14534C4.56544 8.67982 4.09534 9.14992 4.09534 9.72982V14.434H2.74961C2.55631 14.434 2.39961 14.2773 2.39961 14.084V3.61631C2.39961 3.42301 2.55631 3.26631 2.74961 3.26631H4.09534V5.15475C4.09534 5.73464 4.56544 6.20475 5.14534 6.20475H10.0664C10.6463 6.20475 11.1164 5.73465 11.1164 5.15475V3.26631H11.2621L13.5996 5.66453V9.36133C13.7912 9.66311 13.9021 10.0211 13.9021 10.405V10.8528H14.3496C14.5406 10.8528 14.7252 10.8803 14.8996 10.9314V5.40017C14.8996 5.23066 14.8334 5.06787 14.7151 4.94648L12.0017 2.16262C11.8794 2.0371 11.7115 1.96631 11.5363 1.96631ZM5.39534 3.26631H9.81637V4.90475H5.39534V3.26631Z" fill="black"/>
<path d="M11.9522 9.75504C12.3112 9.75504 12.6022 10.0461 12.6022 10.405V12.1528H14.3496C14.7086 12.1528 14.9996 12.4438 14.9996 12.8028C14.9996 13.1618 14.7086 13.4528 14.3496 13.4528H12.6022V15.2002C12.6022 15.5592 12.3112 15.8502 11.9522 15.8502C11.5932 15.8502 11.3022 15.5592 11.3022 15.2002V13.4528H9.55448C9.19549 13.4528 8.90448 13.1618 8.90448 12.8028C8.90448 12.4438 9.19549 12.1528 9.55448 12.1528H11.3022V10.405C11.3022 10.0461 11.5932 9.75504 11.9522 9.75504Z" fill="black"/>
</svg>
