<svg xmlns="http://www.w3.org/2000/svg" width="16" height="16" fill="none" viewBox="0 0 16 16"><path fill="#000" fill-rule="evenodd" d="M2.7501 1.1h8.7867a.65.65 0 0 1 .4654.1963l2.7134 2.7839a.65.65 0 0 1 .1845.4536v5.5313a1.95 1.95 0 0 0-.55-.0786h-.4475v-.4478c0-.384-.1109-.742-.3025-1.0437V4.7982L11.2626 2.4h-.1457v1.8884c0 .58-.4701 1.05-1.05 1.05h-4.921c-.58 0-1.05-.47-1.05-1.05V2.4H2.75a.35.35 0 0 0-.35.35v10.4677a.35.35 0 0 0 .35.35h1.3457V8.8635c0-.5799.4701-1.05 1.05-1.05h5.6605q.1033.0001.2011.0192c-.48.2665-.8357.7298-.9583 1.2808H5.3958v4.4542h3.0903c.307.2015.6742.3188 1.0688.3188h.4477v.4474c0 .1851.0258.3642.074.5338H2.7501c-.9113 0-1.65-.7387-1.65-1.65V2.75c0-.9113.7387-1.65 1.65-1.65m7.0668 1.3h-4.421v1.6384h4.421zm2.7858 7.1387a.65.65 0 1 0-1.3 0v1.7478H9.555a.65.65 0 1 0 0 1.3h1.7477v1.7474a.65.65 0 1 0 1.3 0v-1.7474h1.7474a.65.65 0 1 0 0-1.3h-1.7474z"/></svg>