<svg xmlns="http://www.w3.org/2000/svg" width="16" height="16" fill="none" viewBox="0 0 16 16"><path fill="#000" fill-rule="evenodd" d="M11.5365 1.116H2.7499c-.9113 0-1.65.7388-1.65 1.65v10.4678c0 .9113.7387 1.65 1.65 1.65h10.5c.9112 0 1.65-.7387 1.65-1.65V4.55a.65.65 0 0 0-.1846-.4537L12.002 1.3124a.65.65 0 0 0-.4655-.1963m-8.7866 1.3a.35.35 0 0 0-.35.35v10.4678a.35.35 0 0 0 .35.35h1.3457V8.8796c0-.5799.47-1.05 1.05-1.05h5.6605c.5799 0 1.05.4701 1.05 1.05v4.7042h1.3938a.35.35 0 0 0 .35-.35V4.8143l-2.3375-2.3982h-.1458v1.8884c0 .58-.4701 1.05-1.05 1.05h-4.921c-.58 0-1.05-.47-1.05-1.05V2.4161zm2.6457 0h4.421v1.6385h-4.421zm0 6.7136v4.4542h5.1605V9.1296z"/></svg>