<svg xmlns="http://www.w3.org/2000/svg" width="16" height="16" fill="none" viewBox="0 0 16 16"><path fill="#000" fill-rule="evenodd" d="M4.1406 1.4904c-1.4636 0-2.65 1.1864-2.65 2.65v7.719c0 1.4636 1.1864 2.65 2.65 2.65h7.7191c1.4635 0 2.65-1.1864 2.65-2.65v-7.719c0-1.4636-1.1865-2.65-2.65-2.65zm-1.35 2.65c0-.7456.6044-1.35 1.35-1.35h7.7191c.7456 0 1.35.6044 1.35 1.35v7.719c0 .7456-.6044 1.35-1.35 1.35H4.1406c-.7456 0-1.35-.6044-1.35-1.35zm5.2095-.4527c-1.9771 0-3.5798 1.6028-3.5798 3.5798V8c0 .359.291.65.65.65h5.8595a.65.65 0 0 0 .65-.65v-.7325c0-1.977-1.6027-3.5798-3.5797-3.5798M5.7203 7.2675c0-1.259 1.0207-2.2798 2.2798-2.2798s2.2797 1.0207 2.2797 2.2798V7.35H8.65v-.815a.65.65 0 1 0-1.3 0v.815H5.7203z"/></svg>