<svg width="16" height="16" viewBox="0 0 16 16" fill="none" xmlns="http://www.w3.org/2000/svg">
<path d="M4.0666 2.0166C2.93442 2.0166 2.0166 2.93442 2.0166 4.0666V4.99994C2.0166 5.35892 2.30762 5.64994 2.6666 5.64994C3.02559 5.64994 3.3166 5.35892 3.3166 4.99994V4.0666C3.3166 3.65239 3.65239 3.3166 4.0666 3.3166H4.99994C5.35892 3.3166 5.64994 3.02559 5.64994 2.6666C5.64994 2.30762 5.35892 2.0166 4.99994 2.0166H4.0666Z" fill="black"/>
<path d="M10.9999 2.0166C10.641 2.0166 10.3499 2.30762 10.3499 2.6666C10.3499 3.02559 10.641 3.3166 10.9999 3.3166H11.9333C12.3475 3.3166 12.6833 3.65239 12.6833 4.0666V4.99994C12.6833 5.35892 12.9743 5.64994 13.3333 5.64994C13.6923 5.64994 13.9833 5.35892 13.9833 4.99994V4.0666C13.9833 2.93442 13.0655 2.0166 11.9333 2.0166H10.9999Z" fill="black"/>
<path d="M3.3166 10.9999C3.3166 10.641 3.02559 10.3499 2.6666 10.3499C2.30762 10.3499 2.0166 10.641 2.0166 10.9999V11.9333C2.0166 13.0655 2.93442 13.9833 4.0666 13.9833H4.99994C5.35892 13.9833 5.64994 13.6923 5.64994 13.3333C5.64994 12.9743 5.35892 12.6833 4.99994 12.6833H4.0666C3.65239 12.6833 3.3166 12.3475 3.3166 11.9333V10.9999Z" fill="black"/>
<path d="M13.9833 10.9999C13.9833 10.641 13.6923 10.3499 13.3333 10.3499C12.9743 10.3499 12.6833 10.641 12.6833 10.9999V11.9333C12.6833 12.3475 12.3475 12.6833 11.9333 12.6833H10.9999C10.641 12.6833 10.3499 12.9743 10.3499 13.3333C10.3499 13.6923 10.641 13.9833 10.9999 13.9833H11.9333C13.0655 13.9833 13.9833 13.0655 13.9833 11.9333V10.9999Z" fill="black"/>
<path d="M2.6666 7.34991C2.30762 7.34991 2.0166 7.64093 2.0166 7.99991C2.0166 8.3589 2.30762 8.64991 2.6666 8.64991H13.3333C13.6923 8.64991 13.9833 8.3589 13.9833 7.99991C13.9833 7.64093 13.6923 7.34991 13.3333 7.34991H2.6666Z" fill="black"/>
</svg>
