<svg width="16" height="16" viewBox="0 0 16 16" fill="none" xmlns="http://www.w3.org/2000/svg">
<path d="M4.0666 2.8667C2.93442 2.8667 2.0166 3.78452 2.0166 4.9167V5.85003C2.0166 6.20902 2.30762 6.50003 2.6666 6.50003C3.02559 6.50003 3.3166 6.20902 3.3166 5.85003V4.9167C3.3166 4.50249 3.65239 4.1667 4.0666 4.1667H4.99994C5.35892 4.1667 5.64994 3.87568 5.64994 3.5167C5.64994 3.15771 5.35892 2.8667 4.99994 2.8667H4.0666Z" fill="black"/>
<path d="M10.9999 2.8667C10.641 2.8667 10.3499 3.15771 10.3499 3.5167C10.3499 3.87568 10.641 4.1667 10.9999 4.1667H11.9333C12.3475 4.1667 12.6833 4.50249 12.6833 4.9167V5.85003C12.6833 6.20902 12.9743 6.50003 13.3333 6.50003C13.6923 6.50003 13.9833 6.20902 13.9833 5.85003V4.9167C13.9833 3.78452 13.0655 2.8667 11.9333 2.8667H10.9999Z" fill="black"/>
<path d="M3.3166 11.85C3.3166 11.491 3.02559 11.2 2.6666 11.2C2.30762 11.2 2.0166 11.491 2.0166 11.85V12.7834C2.0166 13.9156 2.93442 14.8334 4.0666 14.8334H4.99994C5.35892 14.8334 5.64994 14.5424 5.64994 14.1834C5.64994 13.8244 5.35892 13.5334 4.99994 13.5334H4.0666C3.65239 13.5334 3.3166 13.1976 3.3166 12.7834V11.85Z" fill="black"/>
<path d="M13.9833 11.85C13.9833 11.491 13.6923 11.2 13.3333 11.2C12.9743 11.2 12.6833 11.491 12.6833 11.85V12.7834C12.6833 13.1976 12.3475 13.5334 11.9333 13.5334H10.9999C10.641 13.5334 10.3499 13.8244 10.3499 14.1834C10.3499 14.5424 10.641 14.8334 10.9999 14.8334H11.9333C13.0655 14.8334 13.9833 13.9156 13.9833 12.7834V11.85Z" fill="black"/>
<path d="M2.6666 8.20001C2.30762 8.20001 2.0166 8.49103 2.0166 8.85001C2.0166 9.209 2.30762 9.50001 2.6666 9.50001H13.3333C13.6923 9.50001 13.9833 9.209 13.9833 8.85001C13.9833 8.49103 13.6923 8.20001 13.3333 8.20001H2.6666Z" fill="black"/>
</svg>
