<svg xmlns="http://www.w3.org/2000/svg" width="16" height="16" fill="none" viewBox="0 0 16 16"><path fill="#000" fill-rule="evenodd" d="M8 2.658C5.0496 2.658 2.658 5.0495 2.658 8c0 .9203.2321 1.7845.6406 2.5391a.65.65 0 1 1-1.1432.6188c-.5089-.9398-.7975-2.0161-.7975-3.158 0-3.6683 2.9738-6.642 6.642-6.642 3.6684 0 6.6421 2.9738 6.6421 6.642 0 1.8103-.725 3.4524-1.899 4.6498a.65.65 0 0 1-.9628.0482L8.3374 9.2563a1.3 1.3 0 0 1-.3375.0442c-.7183 0-1.3006-.5823-1.3006-1.3006S7.2816 6.6993 8 6.6993s1.3006.5823 1.3006 1.3006c0 .1166-.0153.2295-.044.337l1.0601 1.0598A2.69 2.69 0 0 0 10.7045 8c0-1.4937-1.2109-2.7046-2.7045-2.7046-1.4937 0-2.7046 1.211-2.7046 2.7046 0 .4775.1232.9243.339 1.3124a.65.65 0 0 1-1.136.632A3.99 3.99 0 0 1 3.9954 8c0-2.2117 1.7929-4.0046 4.0046-4.0046 2.2116 0 4.0045 1.793 4.0045 4.0046 0 .8706-.2784 1.677-.7503 2.334l.9555.9551A5.317 5.317 0 0 0 13.342 8c0-2.9504-2.3917-5.342-5.342-5.342m-1.9831 8.0634a.65.65 0 0 1 .888-.2378c.1631.0942.3387.1726.5253.2324a.65.65 0 0 1-.397 1.2379 4 4 0 0 1-.7784-.3445.65.65 0 0 1-.238-.888m-1.5635 1.1881a.65.65 0 0 0-.9132.9253 6.7 6.7 0 0 0 .638.5543.65.65 0 0 0 .7885-1.0336 5.3 5.3 0 0 1-.5133-.446m1.267 1.5812a.65.65 0 0 1 .854-.3403l.0277.0118.0706.0301c.0574.0244.1266.0534.181.0757a.65.65 0 1 1-.4903 1.2039 15 15 0 0 1-.1984-.0829l-.0742-.0315-.0294-.0126c-.3298-.1419-.4828-.5245-.341-.8542"/></svg>