<svg xmlns="http://www.w3.org/2000/svg" width="16" height="16" fill="none" viewBox="0 0 16 16"><path fill="#000" fill-rule="evenodd" d="M10.9999 2.0166a.65.65 0 1 0 0 1.3h.9334a.75.75 0 0 1 .75.75v.9333a.65.65 0 1 0 1.3 0v-.9333c0-1.1322-.9178-2.05-2.05-2.05zm-8.9833 2.05c0-1.1322.9178-2.05 2.05-2.05h.9333a.65.65 0 0 1 0 1.3h-.9333a.75.75 0 0 0-.75.75v.9333a.65.65 0 0 1-1.3 0zm0 3.9333a.65.65 0 0 1 .65-.65h10.6667a.65.65 0 1 1 0 1.3H2.6666a.65.65 0 0 1-.65-.65m1.3 3a.65.65 0 1 0-1.3 0v.9334c0 1.1322.9178 2.05 2.05 2.05h.9333a.65.65 0 1 0 0-1.3h-.9333a.75.75 0 0 1-.75-.75zm10.6667 0a.65.65 0 1 0-1.3 0v.9334a.75.75 0 0 1-.75.75h-.9334a.65.65 0 1 0 0 1.3h.9334c1.1322 0 2.05-.9178 2.05-2.05z"/></svg>