<svg width="16" height="16" viewBox="0 0 16 16" fill="none" xmlns="http://www.w3.org/2000/svg">
<path d="M11.5405 1.54048C11.7944 1.28664 12.2059 1.28664 12.4598 1.54048L14.4598 3.54048C14.7136 3.79432 14.7136 4.20588 14.4598 4.45972L12.4598 6.45972C12.2059 6.71356 11.7944 6.71356 11.5405 6.45972C11.2867 6.20588 11.2867 5.79432 11.5405 5.54048L12.4309 4.6501H11.4417C10.8606 4.6501 10.3447 5.02193 10.161 5.57319L9.73932 6.8381C9.37861 7.92021 8.36595 8.6501 7.22531 8.6501H6.66682C6.30784 8.6501 6.01682 8.35908 6.01682 8.0001C6.01682 7.64111 6.30784 7.3501 6.66682 7.3501H7.22531C7.80639 7.3501 8.32227 6.97827 8.50603 6.42701L8.92767 5.16209C9.28837 4.07999 10.301 3.3501 11.4417 3.3501H12.4309L11.5405 2.45972C11.2867 2.20588 11.2867 1.79432 11.5405 1.54048Z" fill="black"/>
<path d="M11.5405 14.4597C11.7944 14.7136 12.2059 14.7136 12.4598 14.4597L14.4598 12.4597C14.7136 12.2059 14.7136 11.7943 14.4598 11.5405L12.4598 9.54048C12.2059 9.28664 11.7944 9.28664 11.5405 9.54048C11.2867 9.79432 11.2867 10.2059 11.5405 10.4597L12.4309 11.3501H11.2362C10.7249 11.3501 10.2574 11.0612 10.0288 10.6038L9.58154 9.70941C9.42099 9.38832 9.03056 9.25818 8.70947 9.41872C8.38839 9.57926 8.25824 9.9697 8.41878 10.2908L8.866 11.1852C9.31489 12.083 10.2325 12.6501 11.2362 12.6501H12.4309L11.5405 13.5405C11.2867 13.7943 11.2867 14.2059 11.5405 14.4597Z" fill="black"/>
<path fill-rule="evenodd" clip-rule="evenodd" d="M1.3335 8.0001C1.3335 6.89553 2.22893 6.0001 3.3335 6.0001C4.43807 6.0001 5.3335 6.89553 5.3335 8.0001C5.3335 9.10467 4.43807 10.0001 3.3335 10.0001C2.22893 10.0001 1.3335 9.10467 1.3335 8.0001ZM3.3335 8.7001C2.9469 8.7001 2.6335 8.3867 2.6335 8.0001C2.6335 7.6135 2.9469 7.3001 3.3335 7.3001C3.7201 7.3001 4.0335 7.6135 4.0335 8.0001C4.0335 8.3867 3.7201 8.7001 3.3335 8.7001Z" fill="black"/>
</svg>
