<svg xmlns="http://www.w3.org/2000/svg" width="16" height="16" fill="none" viewBox="0 0 16 16"><path fill="#000" fill-rule="evenodd" d="M12.4596 1.5404a.65.65 0 1 0-.9192.9192l.8904.8904h-.9893a2.65 2.65 0 0 0-2.514 1.812L8.506 6.4269a1.35 1.35 0 0 1-1.2807.923h-.5585a.65.65 0 0 0 0 1.3h.5585a2.65 2.65 0 0 0 2.514-1.812l.4216-1.2648a1.35 1.35 0 0 1 1.2807-.9231h.9893l-.8904.8904a.65.65 0 1 0 .9192.9192l2-2a.65.65 0 0 0 0-.9192zM1.3333 8c0-1.1046.8955-2 2-2s2 .8954 2 2-.8954 2-2 2-2-.8954-2-2m2 .7a.7.7 0 1 1 0-1.4.7.7 0 0 1 0 1.4m8.2071 5.7596a.65.65 0 0 0 .9192 0l2-2a.65.65 0 0 0 0-.9192l-2-2a.65.65 0 0 0-.9192 0 .65.65 0 0 0 0 .9192l.8904.8904h-1.1947a1.35 1.35 0 0 1-1.2075-.7463l-.4472-.8944a.65.65 0 1 0-1.1628.5814l.4472.8944a2.65 2.65 0 0 0 2.3703 1.4649h1.1947l-.8904.8904a.65.65 0 0 0 0 .9192"/></svg>