<svg width="16" height="16" viewBox="0 0 16 16" fill="none" xmlns="http://www.w3.org/2000/svg">
<path fill-rule="evenodd" clip-rule="evenodd" d="M3.50629 2.65845C3.03801 2.65845 2.6584 3.03807 2.6584 3.50634V12.4937C2.6584 12.962 3.03801 13.3416 3.50629 13.3416C3.86527 13.3416 4.15629 13.6326 4.15629 13.9916C4.15629 14.3506 3.86527 14.6416 3.50629 14.6416C2.32004 14.6416 1.3584 13.6799 1.3584 12.4937V3.50634C1.3584 2.3201 2.32004 1.35845 3.50629 1.35845H7.99996C8.35894 1.35845 8.64996 1.64947 8.64996 2.00845C8.64996 2.36744 8.35894 2.65845 7.99996 2.65845H3.50629ZM11.8436 2.00845C11.8436 1.64947 12.1346 1.35845 12.4936 1.35845C13.6799 1.35845 14.6415 2.3201 14.6415 3.50634V12.4937C14.6415 13.6799 13.6799 14.6416 12.4936 14.6416H7.99996C7.64097 14.6416 7.34996 14.3506 7.34996 13.9916C7.34996 13.6326 7.64097 13.3416 7.99996 13.3416H12.4936C12.9619 13.3416 13.3415 12.962 13.3415 12.4937V3.50634C13.3415 3.03807 12.9619 2.65845 12.4936 2.65845C12.1346 2.65845 11.8436 2.36744 11.8436 2.00845Z" fill="black"/>
<path d="M10.9958 2.00847C10.9958 2.4221 10.6604 2.75741 10.2468 2.75741C9.83318 2.75741 9.49787 2.4221 9.49787 2.00847C9.49787 1.59484 9.83318 1.25952 10.2468 1.25952C10.6604 1.25952 10.9958 1.59484 10.9958 2.00847Z" fill="black"/>
<path d="M6.50209 13.9916C6.50209 14.4052 6.16678 14.7405 5.75315 14.7405C5.33952 14.7405 5.0042 14.4052 5.0042 13.9916C5.0042 13.578 5.33952 13.2426 5.75315 13.2426C6.16678 13.2426 6.50209 13.578 6.50209 13.9916Z" fill="black"/>
<path fill-rule="evenodd" clip-rule="evenodd" d="M4.85633 6.50845C4.85633 6.14947 5.14735 5.85845 5.50633 5.85845H10.4936C10.8526 5.85845 11.1436 6.14947 11.1436 6.50845C11.1436 6.86744 10.8526 7.15845 10.4936 7.15845H5.50633C5.14735 7.15845 4.85633 6.86744 4.85633 6.50845Z" fill="black"/>
<path fill-rule="evenodd" clip-rule="evenodd" d="M4.8563 9.49161C4.8563 9.13262 5.14732 8.84161 5.5063 8.84161H10.4936C10.8526 8.84161 11.1436 9.13262 11.1436 9.49161C11.1436 9.85059 10.8526 10.1416 10.4936 10.1416H5.5063C5.14732 10.1416 4.8563 9.85059 4.8563 9.49161Z" fill="black"/>
</svg>
