<svg xmlns="http://www.w3.org/2000/svg" width="16" height="16" fill="none" viewBox="0 0 16 16"><path fill="#000" fill-rule="evenodd" d="M10.2468 2.7574a.749.749 0 1 0 0-1.498.749.749 0 0 0 0 1.498m-7.5884.749a.848.848 0 0 1 .8479-.848H8a.65.65 0 0 0 0-1.3H3.5063c-1.1863 0-2.1479.9617-2.1479 2.148v8.9873c0 1.1862.9616 2.1479 2.1479 2.1479a.65.65 0 1 0 0-1.3.848.848 0 0 1-.8479-.8479zm9.8352-2.148a.65.65 0 1 0 0 1.3.848.848 0 0 1 .8479.848v8.9873a.848.848 0 0 1-.8479.8479H8a.65.65 0 1 0 0 1.3h4.4936c1.1863 0 2.1479-.9617 2.1479-2.1479V3.5063c0-1.1862-.9616-2.1478-2.1479-2.1478m-6.9873 4.5a.65.65 0 1 0 0 1.3h4.9873a.65.65 0 1 0 0-1.3zm0 2.9832a.65.65 0 0 0 0 1.3h4.9873a.65.65 0 1 0 0-1.3zm.2468 5.8989a.749.749 0 1 0 0-1.4979.749.749 0 0 0 0 1.4979"/></svg>