<svg xmlns="http://www.w3.org/2000/svg" width="16" height="16" fill="none" viewBox="0 0 16 16"><path fill="#000" fill-rule="evenodd" d="M2.0166 4.0666c0-1.1322.9178-2.05 2.05-2.05h1.2667a.65.65 0 1 1 0 1.3H4.0666a.75.75 0 0 0-.75.75v1.2667a.65.65 0 1 1-1.3 0zm8-1.4a.65.65 0 0 1 .65-.65h1.2667c1.1322 0 2.05.9178 2.05 2.05v1.2667a.65.65 0 1 1-1.3 0V4.0666a.75.75 0 0 0-.75-.75h-1.2667a.65.65 0 0 1-.65-.65m-2.0167 3.35c-1.0953 0-1.9833.888-1.9833 1.9833s.888 1.9834 1.9833 1.9834 1.9834-.888 1.9834-1.9834c0-1.0953-.888-1.9833-1.9834-1.9833m-.6833 1.9833a.6833.6833 0 1 1 1.3667 0 .6833.6833 0 0 1-1.3667 0m-4 2.6667a.65.65 0 1 0-1.3 0v1.2667c0 1.1322.9178 2.05 2.05 2.05h1.2667a.65.65 0 1 0 0-1.3H4.0666a.75.75 0 0 1-.75-.75zm10.6667 0a.65.65 0 1 0-1.3 0v1.2667a.75.75 0 0 1-.75.75h-1.2667a.65.65 0 1 0 0 1.3h1.2667c1.1322 0 2.05-.9178 2.05-2.05z"/></svg>