<svg xmlns="http://www.w3.org/2000/svg" width="16" height="16" fill="none" viewBox="0 0 16 16"><path fill="#000" fill-rule="evenodd" d="M3.1378 1.7501a.65.65 0 0 1 .65-.65h9.3331a.65.65 0 0 1 .65.65v7.126a1.955 1.955 0 0 0-1.3-1.1827V2.4001h-8.033v8.153h3.7743a1.944 1.944 0 0 0-.6074 1.3H2.2785v.597c0 .6351.5149 1.15 1.15 1.15h5.0513a1.94 1.94 0 0 0 1.0715.3205h.4477v.4474c0 .1845.0256.3629.0735.5321h-6.644c-1.353 0-2.45-1.0969-2.45-2.45v-1.247a.65.65 0 0 1 .65-.65h1.5093zm2.3445 2.7467a.65.65 0 0 1 .65-.65h4.644a.65.65 0 1 1 0 1.3h-4.644a.65.65 0 0 1-.65-.65m0 2.7856a.65.65 0 0 1 .65-.65h2.322a.65.65 0 1 1 0 1.3h-2.322a.65.65 0 0 1-.65-.65m6.4667 1.6404a.65.65 0 0 1 .65.65v1.7478h1.7475a.65.65 0 1 1 0 1.3H12.599v1.7474a.65.65 0 1 1-1.3 0v-1.7474H9.5513a.65.65 0 1 1 0-1.3h1.7477V9.5728a.65.65 0 0 1 .65-.65"/></svg>