<svg width="16" height="16" viewBox="0 0 16 16" fill="none" xmlns="http://www.w3.org/2000/svg">
<path d="M5.48234 7.28245C5.48234 6.92346 5.77336 6.63245 6.13234 6.63245H8.45432C8.81331 6.63245 9.10432 6.92346 9.10432 7.28245C9.10432 7.64143 8.81331 7.93245 8.45432 7.93245H6.13234C5.77336 7.93245 5.48234 7.64143 5.48234 7.28245Z" fill="black"/>
<path d="M6.13232 3.8468C5.77334 3.8468 5.48232 4.13782 5.48232 4.4968C5.48232 4.85579 5.77334 5.1468 6.13232 5.1468H10.7763C11.1353 5.1468 11.4263 4.85579 11.4263 4.4968C11.4263 4.13782 11.1353 3.8468 10.7763 3.8468H6.13232Z" fill="black"/>
<path fill-rule="evenodd" clip-rule="evenodd" d="M3.13783 1.7501C3.13783 1.39111 3.42884 1.1001 3.78783 1.1001H13.1208C13.4798 1.1001 13.7708 1.39111 13.7708 1.7501V12.4501L13.7708 12.4612V12.6983C13.7708 13.6315 13.1591 14.4219 12.3147 14.6901C12.011 14.8251 11.6747 14.9001 11.3208 14.9001L3.42852 14.9001C2.07542 14.9001 0.978516 13.8032 0.978516 12.4501V11.2031C0.978516 10.8441 1.26953 10.5531 1.62852 10.5531H3.13783V1.7501ZM12.4708 12.4579C12.4679 12.8968 12.2191 13.2773 11.8553 13.4686C11.7993 13.4812 11.7411 13.4879 11.6813 13.4879C11.2453 13.4879 10.8918 13.1344 10.8918 12.6983V11.2031C10.8918 10.8441 10.6008 10.5531 10.2418 10.5531H4.43783V2.4001H12.4708V11.1972L12.4708 11.2031V12.4579ZM9.59178 11.8531H2.27852V12.4501C2.27852 13.0852 2.79339 13.6001 3.42852 13.6001L9.79584 13.6001C9.66503 13.3271 9.59178 13.0213 9.59178 12.6983V11.8531Z" fill="black"/>
</svg>
