<svg width="16" height="16" viewBox="0 0 16 16" fill="none" xmlns="http://www.w3.org/2000/svg">
<path d="M3.78783 1.1001C3.42884 1.1001 3.13783 1.39111 3.13783 1.7501V10.5531H1.62852C1.26953 10.5531 0.978516 10.8441 0.978516 11.2031V12.4501C0.978516 13.8032 2.07542 14.9001 3.42852 14.9001L10.0725 14.9001C10.0246 14.7309 9.999 14.5524 9.999 14.368V13.9206H9.55129C9.15551 13.9206 8.78726 13.8027 8.47977 13.6001L3.42852 13.6001C2.79339 13.6001 2.27852 13.0852 2.27852 12.4501V11.8531H7.60478C7.63518 11.3417 7.86262 10.8835 8.21223 10.5531H4.43783V2.4001H12.4708V7.69342C13.0688 7.8591 13.5514 8.30253 13.7708 8.87608V1.7501C13.7708 1.39111 13.4798 1.1001 13.1208 1.1001H3.78783Z" fill="black"/>
<path d="M6.13232 3.8468C5.77334 3.8468 5.48232 4.13782 5.48232 4.4968C5.48232 4.85579 5.77334 5.1468 6.13232 5.1468H10.7763C11.1353 5.1468 11.4263 4.85579 11.4263 4.4968C11.4263 4.13782 11.1353 3.8468 10.7763 3.8468H6.13232Z" fill="black"/>
<path d="M6.13234 6.63245C5.77336 6.63245 5.48234 6.92346 5.48234 7.28245C5.48234 7.64143 5.77336 7.93245 6.13234 7.93245H8.45432C8.81331 7.93245 9.10432 7.64143 9.10432 7.28245C9.10432 6.92346 8.81331 6.63245 8.45432 6.63245H6.13234Z" fill="black"/>
<path d="M11.949 8.92281C12.308 8.92281 12.599 9.21382 12.599 9.57281V11.3206H14.3465C14.7055 11.3206 14.9965 11.6116 14.9965 11.9706C14.9965 12.3296 14.7055 12.6206 14.3465 12.6206H12.599V14.368C12.599 14.7269 12.308 15.018 11.949 15.018C11.59 15.018 11.299 14.7269 11.299 14.368V12.6206H9.55131C9.19232 12.6206 8.90131 12.3296 8.90131 11.9706C8.90131 11.6116 9.19232 11.3206 9.55131 11.3206H11.299V9.57281C11.299 9.21382 11.59 8.92281 11.949 8.92281Z" fill="black"/>
</svg>
