<svg xmlns="http://www.w3.org/2000/svg" width="16" height="16" fill="none" viewBox="0 0 16 16"><path fill="#000" fill-rule="evenodd" d="M2.6834 3.4c0-1.1322.9178-2.05 2.05-2.05h5.0263c.3494 0 .6798.1588.898.4316l2.407 3.0087c.1631.204.252.4573.252.7184V12.6c0 1.1322-.9178 2.05-2.05 2.05H4.7333c-1.1321 0-2.05-.9178-2.05-2.05zM6 4.0166a.65.65 0 0 1 .65.65v1.3333a.65.65 0 0 1-1.3 0V4.6666a.65.65 0 0 1 .65-.65m2.6667 0a.65.65 0 0 1 .65.65v1.3333a.65.65 0 0 1-1.3 0V4.6666a.65.65 0 0 1 .65-.65"/></svg>