<svg width="16" height="16" viewBox="0 0 16 16" fill="none" xmlns="http://www.w3.org/2000/svg">
<path fill-rule="evenodd" clip-rule="evenodd" d="M2.68335 3.4001C2.68335 2.26791 3.60117 1.3501 4.73335 1.3501H9.7597C10.1091 1.3501 10.4395 1.5089 10.6577 1.7817L13.0647 4.79042C13.2278 4.99433 13.3167 5.24769 13.3167 5.50882V12.6001C13.3167 13.7323 12.3989 14.6501 11.2667 14.6501H4.73335C3.60116 14.6501 2.68335 13.7323 2.68335 12.6001V3.4001ZM6.0001 4.01672C6.35908 4.01672 6.6501 4.30774 6.6501 4.66672V6.00006C6.6501 6.35904 6.35908 6.65006 6.0001 6.65006C5.64111 6.65006 5.3501 6.35904 5.3501 6.00006V4.66672C5.3501 4.30774 5.64111 4.01672 6.0001 4.01672ZM8.66676 4.01672C9.02575 4.01672 9.31676 4.30774 9.31676 4.66672V6.00006C9.31676 6.35904 9.02575 6.65006 8.66676 6.65006C8.30778 6.65006 8.01676 6.35904 8.01676 6.00006V4.66672C8.01676 4.30774 8.30778 4.01672 8.66676 4.01672Z" fill="black"/>
</svg>
