<svg width="16" height="16" viewBox="0 0 16 16" fill="none" xmlns="http://www.w3.org/2000/svg">
<path d="M6.43088 9.68465C8.23921 9.68465 9.70516 8.21871 9.70516 6.41037C9.70516 4.60203 8.23921 3.13608 6.43088 3.13608C4.62254 3.13608 3.15659 4.60203 3.15659 6.41037C3.15659 8.21871 4.62254 9.68465 6.43088 9.68465Z" fill="black"/>
<path fill-rule="evenodd" clip-rule="evenodd" d="M6.42072 11.7873C7.65817 11.7873 8.79679 11.3669 9.70411 10.6609L13.8394 14.8219C14.0924 15.0765 14.504 15.0778 14.7586 14.8247C15.0132 14.5717 15.0145 14.1601 14.7614 13.9055L10.6268 9.74519C11.3559 8.82291 11.7912 7.65571 11.7912 6.38752C11.7912 3.40913 9.39052 0.987793 6.42072 0.987793C3.45093 0.987793 1.05029 3.40913 1.05029 6.38752C1.05029 9.36592 3.45093 11.7873 6.42072 11.7873ZM6.42072 2.28779C4.17647 2.28779 2.35029 4.11951 2.35029 6.38752C2.35029 8.65554 4.17647 10.4873 6.42072 10.4873C7.50549 10.4873 8.49257 10.0593 9.22298 9.36101C9.23842 9.34168 9.25513 9.32303 9.2731 9.30517C9.29139 9.287 9.31048 9.27014 9.33027 9.25459C10.0481 8.51592 10.4912 7.50465 10.4912 6.38752C10.4912 4.11951 8.66498 2.28779 6.42072 2.28779Z" fill="black"/>
</svg>
