<svg width="16" height="16" viewBox="0 0 16 16" fill="none" xmlns="http://www.w3.org/2000/svg">
<path d="M1.74219 2.00781C1.32797 2.00781 0.992188 2.3436 0.992188 2.75781C0.992188 3.17203 1.32797 3.50781 1.74219 3.50781H6.17027C6.695 2.99657 7.33438 2.60242 8.04619 2.36759C7.91448 2.15184 7.67685 2.00781 7.40557 2.00781H1.74219Z" fill="black"/>
<path d="M1.74219 5.50537H4.92943C4.77711 5.97784 4.69482 6.48176 4.69482 7.0049L1.74219 7.00537C1.32797 7.00537 0.992188 6.66958 0.992188 6.25537C0.992188 5.84116 1.32797 5.50537 1.74219 5.50537Z" fill="black"/>
<path d="M1.74219 9.00317H5.12119C5.37508 9.56842 5.73336 10.0766 6.17149 10.5032H1.74219C1.32797 10.5032 0.992188 10.1674 0.992188 9.75317C0.992188 9.33896 1.32797 9.00317 1.74219 9.00317Z" fill="black"/>
<path d="M1.74219 12.5007C1.32797 12.5007 0.992188 12.8365 0.992188 13.2507C0.992188 13.6649 1.32797 14.0007 1.74219 14.0007H10.2474C10.6616 14.0007 10.9974 13.6649 10.9974 13.2507C10.9974 12.8365 10.6616 12.5007 10.2474 12.5007H1.74219Z" fill="black"/>
<path fill-rule="evenodd" clip-rule="evenodd" d="M6.00098 7.00492C6.00098 5.02956 7.60232 3.42822 9.57767 3.42822C11.553 3.42822 13.1544 5.02956 13.1544 7.00492C13.1544 7.74364 12.9304 8.43005 12.5467 8.99997L14.8384 11.2917C15.1313 11.5846 15.1313 12.0594 14.8384 12.3523C14.5455 12.6452 14.0707 12.6452 13.7778 12.3523L11.4675 10.0421C10.9192 10.3841 10.2715 10.5816 9.57767 10.5816C7.60232 10.5816 6.00098 8.98027 6.00098 7.00492ZM9.57767 4.72822C8.32029 4.72822 7.30098 5.74753 7.30098 7.00492C7.30098 8.2623 8.32029 9.28162 9.57767 9.28162C10.8351 9.28162 11.8544 8.2623 11.8544 7.00492C11.8544 5.74753 10.8351 4.72822 9.57767 4.72822Z" fill="black"/>
</svg>
