<svg xmlns="http://www.w3.org/2000/svg" width="16" height="16" fill="none" viewBox="0 0 16 16"><path fill="#000" fill-rule="evenodd" d="M9.7035 10.6603c-.9073.7059-2.0459 1.1262-3.2833 1.1262-2.9698 0-5.3704-2.4213-5.3704-5.3997S3.4504.987 6.4202.987s5.3705 2.4213 5.3705 5.3997c0 1.2682-.4353 2.4355-1.1645 3.3578l4.1346 4.1602a.65.65 0 0 1-.9221.9164zM2.3498 6.3868c0-2.268 1.8262-4.0997 4.0704-4.0997s4.0705 1.8317 4.0705 4.0997c0 1.117-.443 2.1283-1.1608 2.867a.66.66 0 0 0-.1077.1068c-.7304.6981-1.7174 1.1259-2.802 1.1259-2.2442 0-4.0704-1.8317-4.0704-4.0997"/></svg>