<svg xmlns="http://www.w3.org/2000/svg" width="16" height="16" fill="none" viewBox="0 0 16 16"><path fill="#000" fill-rule="evenodd" d="M9.7041 10.6601c-.9073.7059-2.046 1.1263-3.2834 1.1263-2.9698 0-5.3704-2.4213-5.3704-5.3997S3.4509.9869 6.4207.9869s5.3705 2.4214 5.3705 5.3998c0 1.2682-.4353 2.4354-1.1644 3.3576l4.1346 4.1603a.65.65 0 0 1-.922.9164zM2.3503 6.3867c0-2.268 1.8262-4.0998 4.0704-4.0998s4.0705 1.8318 4.0705 4.0998a4.1 4.1 0 0 1-1.161 2.867.65.65 0 0 0-.1072.1065c-.7304.6983-1.7175 1.1262-2.8023 1.1262-2.2442 0-4.0704-1.8317-4.0704-4.0997m7.3549.0228c0 1.8084-1.466 3.2743-3.2743 3.2743s-3.2743-1.466-3.2743-3.2743 1.466-3.2743 3.2743-3.2743S9.705 4.6012 9.705 6.4095"/></svg>