<svg width="16" height="16" viewBox="0 0 16 16" fill="none" xmlns="http://www.w3.org/2000/svg">
<path d="M6.43088 9.68392C8.23921 9.68392 9.70516 8.21797 9.70516 6.40964C9.70516 4.6013 8.23921 3.13535 6.43088 3.13535C4.62254 3.13535 3.15659 4.6013 3.15659 6.40964C3.15659 8.21797 4.62254 9.68392 6.43088 9.68392Z" fill="black"/>
<path fill-rule="evenodd" clip-rule="evenodd" d="M6.42072 11.7865C7.65817 11.7865 8.79679 11.3661 9.70411 10.6602L13.8394 14.8211C14.0924 15.0758 14.504 15.077 14.7586 14.824C15.0132 14.5709 15.0145 14.1594 14.7614 13.9047L10.6268 9.74446C11.3559 8.82218 11.7912 7.65498 11.7912 6.38679C11.7912 3.4084 9.39052 0.987061 6.42072 0.987061C3.45093 0.987061 1.05029 3.4084 1.05029 6.38679C1.05029 9.36518 3.45093 11.7865 6.42072 11.7865ZM6.42072 2.28706C4.17647 2.28706 2.35029 4.11877 2.35029 6.38679C2.35029 8.65481 4.17647 10.4865 6.42072 10.4865C7.50549 10.4865 8.49257 10.0586 9.22298 9.36028C9.23842 9.34095 9.25513 9.3223 9.2731 9.30444C9.29139 9.28627 9.31048 9.2694 9.33027 9.25385C10.0481 8.51518 10.4912 7.50391 10.4912 6.38679C10.4912 4.11877 8.66498 2.28706 6.42072 2.28706Z" fill="black"/>
</svg>
