<svg xmlns="http://www.w3.org/2000/svg" width="16" height="16" fill="none" viewBox="0 0 16 16"><path fill="#000" fill-rule="evenodd" d="M1.35 7.6666C1.35 4.178 4.178 1.35 7.6666 1.35s6.3167 2.828 6.3167 6.3166c0 1.5102-.53 2.8966-1.414 3.9834l1.8903 1.8904a.65.65 0 0 1-.9192.9192L11.65 12.5693c-1.0868.884-2.4732 1.414-3.9834 1.414-3.4886 0-6.3166-2.8281-6.3166-6.3167M7.6666 2.65C4.896 2.65 2.65 4.896 2.65 7.6666s2.246 5.0167 5.0166 5.0167 5.0167-2.246 5.0167-5.0167c0-2.7706-2.246-5.0166-5.0167-5.0166m-.6868 4.407c.3793-.0875.593-.5645.4775-1.0652-.1156-.5008-.5168-.8357-.8962-.7482s-.593.5645-.4774 1.0653.5168.8357.8961.7481m1.3736 0c-.3793-.0875-.5931-.5645-.4775-1.0652.1156-.5008.5168-.8357.8962-.7482s.593.5645.4774 1.0653-.5168.8357-.8961.7481m-2.438 1.2477c.3507-.2025.4354-.7122.1892-1.1387s-.73-.608-1.0807-.4055-.4353.7122-.1891 1.1387.73.608 1.0806.4055m3.5019 0c-.3507-.2025-.4354-.7122-.1892-1.1387s.73-.608 1.0807-.4055.4353.7122.1891 1.1387-.73.608-1.0806.4055m-2.4051-.497c.2852-.5134 1.0236-.5134 1.3088 0l.1766.3178a2.14 2.14 0 0 0 .3573.4737l.2253.2253c.5205.5205.0561 1.4009-.6673 1.2652l-.3521-.066a2.14 2.14 0 0 0-.7884 0l-.352.066c-.7235.1357-1.1879-.7447-.6674-1.2652l.2253-.2253c.1405-.1405.2608-.3.3573-.4737z"/></svg>