<svg width="16" height="16" viewBox="0 0 16 16" fill="none" xmlns="http://www.w3.org/2000/svg">
<path d="M4.85 9C4.85 8.64102 5.14102 8.35 5.5 8.35H10.5C10.859 8.35 11.15 8.64102 11.15 9C11.15 9.35898 10.859 9.65 10.5 9.65H5.5C5.14102 9.65 4.85 9.35898 4.85 9Z" fill="black"/>
<path d="M7 10.35C6.64102 10.35 6.35 10.641 6.35 11C6.35 11.359 6.64102 11.65 7 11.65H9C9.35898 11.65 9.65 11.359 9.65 11C9.65 10.641 9.35898 10.35 9 10.35H7Z" fill="black"/>
<path fill-rule="evenodd" clip-rule="evenodd" d="M4.95139 4.04977C4.95139 2.36543 6.31682 1 8.00116 1C9.68551 1 11.0509 2.36543 11.0509 4.04977V5.37212H11.525C12.9609 5.37212 14.125 6.53618 14.125 7.97212V12.4C14.125 13.8359 12.9609 15 11.525 15H4.475C3.03906 15 1.875 13.8359 1.875 12.4V7.97212C1.875 6.53618 3.03906 5.37212 4.475 5.37212H4.95139V4.04977ZM9.75094 4.04977V5.36913H6.25139V4.04977C6.25139 3.0834 7.03479 2.3 8.00116 2.3C8.96754 2.3 9.75094 3.0834 9.75094 4.04977ZM4.475 6.67212H11.525C12.243 6.67212 12.825 7.25415 12.825 7.97212V12.4C12.825 13.118 12.243 13.7 11.525 13.7H4.475C3.75703 13.7 3.175 13.118 3.175 12.4V7.97212C3.175 7.25415 3.75703 6.67212 4.475 6.67212Z" fill="black"/>
</svg>
