<svg xmlns="http://www.w3.org/2000/svg" width="16" height="16" fill="none" viewBox="0 0 16 16"><path fill="#000" fill-rule="evenodd" d="M8.0012 1C6.3168 1 4.9514 2.3654 4.9514 4.0498V5.372H4.475c-1.436 0-2.6 1.164-2.6 2.6V12.4c0 1.4359 1.164 2.6 2.6 2.6h7.05c1.4359 0 2.6-1.1641 2.6-2.6V7.9721c0-1.436-1.1641-2.6-2.6-2.6h-.4741V4.0498C11.0509 2.3654 9.6855 1 8.0012 1m1.7497 4.3691V4.0498c0-.9664-.7834-1.7498-1.7497-1.7498s-1.7498.7834-1.7498 1.7498V5.369zm1.7741 1.303h-7.05c-.718 0-1.3.582-1.3 1.3V12.4c0 .718.582 1.3 1.3 1.3h7.05c.718 0 1.3-.582 1.3-1.3V7.9721c0-.718-.582-1.3-1.3-1.3M4.85 9a.65.65 0 0 1 .65-.65h5a.65.65 0 1 1 0 1.3h-5A.65.65 0 0 1 4.85 9M7 10.35a.65.65 0 1 0 0 1.3h2a.65.65 0 1 0 0-1.3z"/></svg>