<svg xmlns="http://www.w3.org/2000/svg" width="16" height="16" fill="none" viewBox="0 0 16 16"><path fill="#000" fill-rule="evenodd" d="M8 14.5001c-.1629.6279-.1635.6291-.1638.629zm.1876.6224c-.0003 0-.0013-.0044-.1875-.6224zm0 0 .0012-.0004.0015-.0004.0038-.0012.011-.0035a4 4 0 0 0 .1526-.0527c.099-.0364.2376-.091.4067-.167.3378-.1519.8-.3904 1.3128-.7419 1.0265-.7036 2.2628-1.8653 3.1006-3.6925.4446-.9697.5431-2.0206.5431-2.9855V4.1322a.65.65 0 0 0-.3506-.5769l-4.61-2.393a1.65 1.65 0 0 0-1.5204 0l-4.61 2.393a.65.65 0 0 0-.3506.577v3.387c0 .937.0932 1.9534.5068 2.8997.8333 1.9069 2.0807 3.0825 3.1245 3.7802.5208.348.9911.5774 1.3356.721.1724.0719.3139.1225.4152.156a4 4 0 0 0 .157.0481l.0114.0031.004.0011.0024.0006a.653.653 0 0 0 .3514-.0066M8.1613 2.3162a.35.35 0 0 0-.3225 0l-4.2595 2.211v2.992c0 .866.0895 1.6734.398 2.3793.7158 1.6379 1.7777 2.633 2.6557 3.2198.4402.2942.834.4855 1.1134.602.0951.0397.1766.0705.2419.0937a5.4 5.4 0 0 0 .243-.1024c.279-.1254.6717-.3274 1.111-.6285.8778-.6017 1.9349-1.5941 2.6538-3.162.3298-.7193.4248-1.5505.4248-2.4437V4.5272zM10.559 6.373a.65.65 0 0 1 0 .9192l-2.335 2.335a.65.65 0 0 1-.9192 0L5.878 8.2002a.65.65 0 0 1 .9192-.9192l.9673.9673L9.6398 6.373a.65.65 0 0 1 .9192 0"/></svg>