<svg xmlns="http://www.w3.org/2000/svg" width="16" height="16" fill="none" viewBox="0 0 16 16"><path fill="#000" fill-rule="evenodd" d="M3 3c-1.1045 0-2 .8954-2 2v2c0 1.1046.8955 2 2 2h3.35v2c0 .7456-.6044 1.35-1.35 1.35H1.5a.65.65 0 1 0 0 1.3H5c1.4636 0 2.65-1.1864 2.65-2.65V9H11c1.1046 0 2-.8954 2-2V5c0-1.1046-.8954-2-2-2zm11.5.85a.65.65 0 0 1 .65.65v3a.65.65 0 1 1-1.3 0v-3a.65.65 0 0 1 .65-.65M11 4.3H3a.7.7 0 0 0-.7.7v2a.7.7 0 0 0 .7.7h8a.7.7 0 0 0 .7-.7V5a.7.7 0 0 0-.7-.7M4.0201 6.6667a.6667.6667 0 1 0 0-1.3334.6667.6667 0 0 0 0 1.3334"/></svg>