<svg width="16" height="16" viewBox="0 0 16 16" fill="none" xmlns="http://www.w3.org/2000/svg">
<path fill-rule="evenodd" clip-rule="evenodd" d="M0.666504 3.21493C0.666504 3.00921 0.761486 2.815 0.923877 2.6887L2.25721 1.65166C2.49795 1.46442 2.83506 1.46442 3.0758 1.65166L4.40913 2.6887C4.57152 2.815 4.6665 3.00921 4.6665 3.21493V5.33332C4.6665 5.70151 4.36803 5.99999 3.99984 5.99999H1.33317C0.964981 5.99999 0.666504 5.70151 0.666504 5.33332V3.21493ZM2.6665 2.98024L3.3665 3.52469V4.69999H1.9665V3.52469L2.6665 2.98024Z" fill="black"/>
<path fill-rule="evenodd" clip-rule="evenodd" d="M15.3335 3.91025C15.3335 5.06445 14.3979 6.00011 13.2437 6.00011C12.0895 6.00011 11.1538 5.06445 11.1538 3.91025C11.1538 2.75605 12.0895 1.82038 13.2437 1.82038C14.3979 1.82038 15.3335 2.75605 15.3335 3.91025ZM14.0335 3.91025C14.0335 4.34648 13.6799 4.70011 13.2437 4.70011C12.8074 4.70011 12.4538 4.34648 12.4538 3.91025C12.4538 3.47402 12.8074 3.12038 13.2437 3.12038C13.6799 3.12038 14.0335 3.47402 14.0335 3.91025Z" fill="black"/>
<path fill-rule="evenodd" clip-rule="evenodd" d="M10.6665 14.6669C11.8207 14.6669 12.7564 13.7312 12.7564 12.577C12.7564 11.6497 12.1525 10.8635 11.3165 10.5902V8.65007H14.6668C15.0258 8.65007 15.3168 8.35906 15.3168 8.00007C15.3168 7.64108 15.0258 7.35007 14.6668 7.35007L1.3335 7.35007C0.974511 7.35007 0.683496 7.64109 0.683496 8.00007C0.683496 8.35906 0.974511 8.65007 1.3335 8.65007H4.6835V10.6667L4.66683 10.6668C3.93045 10.6668 3.3335 11.2638 3.3335 12.0002V13.3335C3.3335 14.0699 3.93045 14.6668 4.66683 14.6668H6.00016C6.73654 14.6668 7.3335 14.0699 7.3335 13.3335V12.0002C7.3335 11.2638 6.73654 10.6668 6.00016 10.6668H5.9835V8.65007L10.0165 8.65007V10.5902C9.18056 10.8635 8.57666 11.6497 8.57666 12.577C8.57666 13.7312 9.51232 14.6669 10.6665 14.6669ZM10.6665 13.3669C11.1028 13.3669 11.4564 13.0132 11.4564 12.577C11.4564 12.1408 11.1028 11.7871 10.6665 11.7871C10.2303 11.7871 9.87666 12.1408 9.87666 12.577C9.87666 13.0132 10.2303 13.3669 10.6665 13.3669ZM4.66683 11.9668C4.65983 11.9668 4.65643 11.968 4.65425 11.9689C4.65121 11.9702 4.64722 11.9726 4.64326 11.9766C4.6393 11.9805 4.63687 11.9845 4.63558 11.9876C4.63466 11.9898 4.6335 11.9932 4.6335 12.0002V13.3335C4.6335 13.3405 4.63466 13.3439 4.63558 13.3461C4.63687 13.3491 4.6393 13.3531 4.64326 13.3571C4.64722 13.361 4.65121 13.3634 4.65425 13.3647C4.65643 13.3657 4.65983 13.3668 4.66683 13.3668H6.00016C6.00716 13.3668 6.01056 13.3657 6.01274 13.3647C6.01579 13.3634 6.01977 13.361 6.02373 13.3571C6.02769 13.3531 6.03012 13.3491 6.03141 13.3461C6.03233 13.3439 6.0335 13.3405 6.0335 13.3335V12.0002C6.0335 11.9932 6.03233 11.9898 6.03141 11.9876C6.03012 11.9845 6.02769 11.9805 6.02373 11.9766C6.01977 11.9726 6.01579 11.9702 6.01274 11.9689C6.01056 11.968 6.00716 11.9668 6.00016 11.9668H4.66683Z" fill="black"/>
<path fill-rule="evenodd" clip-rule="evenodd" d="M6 3.3334C6 2.59702 6.59695 2.00007 7.33333 2.00007H8.66667C9.40305 2.00007 10 2.59702 10 3.3334V4.66674C10 5.40312 9.40305 6.00007 8.66667 6.00007H7.33333C6.59695 6.00007 6 5.40312 6 4.66674V3.3334ZM7.33333 3.30007H8.66667C8.67367 3.30007 8.67706 3.30123 8.67924 3.30216C8.68229 3.30345 8.68628 3.30587 8.69024 3.30983C8.6942 3.31379 8.69663 3.31778 8.69791 3.32083C8.69884 3.32301 8.7 3.3264 8.7 3.3334V4.66674C8.7 4.67374 8.69884 4.67713 8.69791 4.67931C8.69663 4.68236 8.6942 4.68635 8.69024 4.69031C8.68628 4.69427 8.68229 4.6967 8.67924 4.69799C8.67706 4.69891 8.67367 4.70007 8.66667 4.70007H7.33333C7.32633 4.70007 7.32294 4.69891 7.32076 4.69799C7.31771 4.6967 7.31372 4.69427 7.30976 4.69031C7.3058 4.68635 7.30337 4.68236 7.30209 4.67931C7.30116 4.67713 7.3 4.67374 7.3 4.66674V3.3334C7.3 3.3264 7.30116 3.32301 7.30209 3.32083C7.30337 3.31778 7.3058 3.31379 7.30976 3.30983C7.31372 3.30587 7.31771 3.30345 7.32076 3.30216C7.32294 3.30123 7.32633 3.30007 7.33333 3.30007Z" fill="black"/>
</svg>
