<svg width="16" height="16" viewBox="0 0 16 16" fill="none" xmlns="http://www.w3.org/2000/svg">
<path d="M5.05219 1.85254C3.92 1.85254 3.00218 2.77035 3.00218 3.90254V6.90018H4.30219V3.90254C4.30219 3.48833 4.63797 3.15254 5.05219 3.15254H10.9531C11.3673 3.15254 11.7031 3.48833 11.7031 3.90254V13.8018C11.7031 14.216 11.3673 14.5518 10.9531 14.5518H5.05219C4.63797 14.5518 4.30219 14.216 4.30219 13.8018V10.8002H3.00218V13.8018C3.00218 14.9339 3.92 15.8518 5.05219 15.8518H10.9531C12.0853 15.8518 13.0031 14.9339 13.0031 13.8018V3.90254C13.0031 2.77036 12.0853 1.85254 10.9531 1.85254H5.05219Z" fill="black"/>
<path d="M9.02515 9.099C8.99343 9.17567 8.94641 9.2475 8.88409 9.30982L6.89179 11.3021C6.63795 11.556 6.22639 11.556 5.97255 11.3021C5.71871 11.0483 5.71871 10.6367 5.97255 10.3829L6.85526 9.50017L1.67148 9.50017C1.3125 9.50017 1.02148 9.20916 1.02148 8.85017C1.02148 8.49119 1.3125 8.20017 1.67148 8.20017H6.8552L5.97255 7.31752C5.71871 7.06368 5.71871 6.65212 5.97255 6.39828C6.22639 6.14444 6.63795 6.14444 6.89179 6.39828L8.87991 8.38641C8.89569 8.4019 8.91067 8.41819 8.92481 8.43521C8.96116 8.47894 8.99089 8.52631 9.014 8.576C9.05281 8.65931 9.07448 8.75221 9.07448 8.85017C9.07448 8.93831 9.05694 9.02235 9.02515 9.099Z" fill="black"/>
<path d="M7.2468 12.5483C6.88781 12.5483 6.5968 12.8393 6.5968 13.1983C6.5968 13.5573 6.88781 13.8483 7.2468 13.8483H8.75851C9.11749 13.8483 9.40851 13.5573 9.40851 13.1983C9.40851 12.8393 9.11749 12.5483 8.75851 12.5483H7.2468Z" fill="black"/>
</svg>
