<svg xmlns="http://www.w3.org/2000/svg" width="16" height="16" fill="none" viewBox="0 0 16 16"><path fill="#000" fill-rule="evenodd" d="m3.7917 4.3497-.0057.0044a1 1 0 0 0-.0373.0306 2.7 2.7 0 0 0-.1594.1478c-.1375.1374-.327.351-.518.6435-.3797.5812-.771 1.48-.771 2.7339s.3913 2.1527.771 2.7339c.191.2925.3805.5061.518.6435.0686.0686.124.1178.1594.1478a1 1 0 0 0 .0373.0306l.0057.0044a.65.65 0 0 1-.7722 1.0458 2 2 0 0 0 .048-.0652l.3335-.455-.3815.5202-.0012-.0008-.0013-.001-.003-.0023-.0081-.0061-.0236-.0182a3 3 0 0 1-.074-.0605 4 4 0 0 1-.2378-.22c-.1913-.1911-.4403-.4737-.6875-.8522-.497-.7608-.9826-1.903-.9826-3.4449s.4855-2.6842.9826-3.445c.2472-.3784.4962-.661.6875-.852a4 4 0 0 1 .2378-.2201 3 3 0 0 1 .074-.0606l.0236-.0181.008-.0061.0031-.0023.0013-.001c.0003-.0002.0012-.0008.3854.5231l-.3842-.524a.65.65 0 0 1 .7722 1.0459m8.4222 7.296-.0056.0044a.6501.6501 0 0 0 .7722 1.0458l-.3842-.5238c.3842.5238.385.5232.3853.523l.0013-.001.0031-.0023.0081-.0061.0235-.0182a3 3 0 0 0 .074-.0605 4 4 0 0 0 .2379-.22c.1912-.1911.4402-.4737.6875-.8522.497-.7608.9826-1.903.9826-3.445s-.4856-2.684-.9826-3.4448c-.2473-.3785-.4963-.6611-.6875-.8522a4 4 0 0 0-.2379-.22 3 3 0 0 0-.074-.0606l-.0235-.0181-.0081-.0061-.0031-.0023-.0013-.001-.0011-.0008a.65.65 0 0 0-.7722 1.0458l.0056.0043a2 2 0 0 1 .0373.0307c.0355.03.0908.0792.1595.1478.1375.1374.3269.351.518.6435.3797.5812.7709 1.48.7709 2.7339s-.3912 2.1527-.7709 2.7339c-.1911.2925-.3805.5061-.518.6435a2.7 2.7 0 0 1-.1595.1478 1 1 0 0 1-.0373.0306m.7666-8.1618-.3818.5206.3337-.4553c.0472-.0644.0479-.0654.0481-.0653m-7.6072 5.743c-.0781-.0669-.5256-.484-.5256-1.317 0-.8332.4475-1.2503.5256-1.3171a.65.65 0 0 0-.8452-.9878c-.2382.2038-.9804.9501-.9804 2.3048s.7422 2.101.9804 2.3048a.65.65 0 1 0 .8452-.9878m5.2529-2.4544c.0767.0654.5261.4825.5261 1.3174s-.4494 1.2519-.5261 1.3173a.65.65 0 0 0 .8441.9888c.2367-.2021.982-.9487.982-2.3061 0-1.3575-.7453-2.104-.982-2.3061a.65.65 0 1 0-.8441.9887M7.9996 9.7263c.9535 0 1.7264-.7729 1.7264-1.7263 0-.9535-.773-1.7264-1.7264-1.7264S6.2733 7.0466 6.2733 8s.7729 1.7263 1.7263 1.7263"/></svg>