<svg xmlns="http://www.w3.org/2000/svg" width="16" height="16" fill="none" viewBox="0 0 16 16"><path fill="#000" fill-rule="evenodd" d="M13.5292 8.0065V3.4818c.0034-.043.0052-.088.0052-.1331 0-.896-.7018-1.3686-.9777-1.5296-.3679-.2146-.8138-.3635-1.2512-.4714-.895-.2208-2.0632-.344-3.3059-.344s-2.4108.1231-3.3059.344c-.4374.108-.8832.2568-1.2511.4714-.276.161-.9778.6336-.9778 1.5296q.0002.1132.0143.2175l.0002 4.4535a.7.7 0 0 0-.0041.0735q0 .0492.0041.0972l.0002 4.5029c0 .3895.1965.7286.4503.9884.258.2642.6169.493 1.0593.6814.8857.3772 2.2007.6332 4.0218.6332 1.8195 0 3.1307-.2504 4.0128-.6219.4407-.1856.7988-.4118 1.0564-.6746.2543-.2594.4491-.5975.4491-.986V8.2076a1.1 1.1 0 0 0 .0058-.1144.7.7 0 0 0-.0058-.0867m-2.3217-3.9756-.0179.005c-.7763.2193-1.9176.3577-3.19.3577s-2.4137-.1384-3.19-.3576l-.018-.0051c-.6398-.183-1.0268-.4215-1.0268-.6822s.387-.4991 1.0269-.6822l.018-.005c.7762-.2193 1.9175-.3577 3.19-.3577 1.2723 0 2.4136.1385 3.1899.3576l.0179.0051c.64.183 1.0269.4215 1.0269.6822s-.3869.4991-1.0269.6822m.098 1.3188c-.895.2208-2.0632.344-3.3059.344s-2.4108-.1231-3.3059-.344c-.3109-.0767-.626-.1741-.9145-.3011l.0001 3.0254c.0102.0176.032.049.076.0933.1066.1072.3077.2502.6456.3924.6747.2838 1.7995.524 3.4968.524 1.6971 0 2.8262-.2402 3.5051-.5244.3402-.1425.5435-.286.6514-.3937.0421-.042.064-.0723.075-.0903V5.0445c-.2909.129-.6095.2277-.9237.3052m.9237 4.308a5 5 0 0 1-.2243.1007c-.8897.3725-2.2043.6254-4.0072.6254-1.8028 0-3.1143-.2529-4.0008-.6258a5 5 0 0 1-.2175-.098l.0001 3.0095c.0071.0148.0276.0499.0803.1039.1047.1071.303.2507.6387.3937.6709.2857 1.7965.5292 3.5124.5292 1.7174 0 2.8405-.2388 3.5083-.52.3342-.1408.53-.2819.6326-.3865.0504-.0514.0703-.085.0774-.0995z"/></svg>