<svg width="16" height="16" viewBox="0 0 16 16" fill="none" xmlns="http://www.w3.org/2000/svg">
<path d="M6.15161 1.90939C6.19686 1.57927 6.4789 1.33325 6.8121 1.33325H8.97656C9.30965 1.33325 9.59163 1.5791 9.63701 1.90909L9.83354 3.33813C10.2393 3.50705 10.6179 3.72724 10.9616 3.99045L12.2988 3.44557C12.6072 3.31988 12.9611 3.44116 13.1277 3.72962L14.2099 5.6041C14.3765 5.89266 14.3045 6.25992 14.0412 6.46417L12.9006 7.34908C12.928 7.56233 12.9422 7.77952 12.9422 7.99974C12.9422 8.22029 12.8756 8.88495 12.7278 9.11488L11.6063 8.14023C11.608 8.09364 11.6089 8.0468 11.6089 7.99974C11.6089 7.72755 11.5797 7.46294 11.5246 7.20858L11.4356 6.79809L12.7644 5.76715L12.2636 4.89967L10.7046 5.5349L10.3937 5.25191C10.0035 4.89678 9.53811 4.62411 9.02495 4.46038L8.62442 4.33258L8.3953 2.66659H7.39363L7.1653 4.33243L6.76451 4.46025C6.25122 4.62396 5.7857 4.89667 5.39542 5.25187L5.08448 5.53485L3.5259 4.89977L3.02506 5.76725L4.35355 6.7979L4.26455 7.20841C4.20939 7.46282 4.18022 7.72749 4.18022 7.99974C4.18022 8.27219 4.20944 8.53705 4.26467 8.79163L4.3537 9.202L3.02597 10.233L3.5268 11.1005L5.08469 10.4649L5.39577 10.7479C5.78597 11.103 6.25135 11.3756 6.76447 11.5392L7.16525 11.667L7.39363 13.3333H8.3953L8.55267 12.189L9.73583 13.3722L9.63701 14.0907C9.59163 14.4207 9.30965 14.6666 8.97656 14.6666H6.8121C6.4789 14.6666 6.19686 14.4206 6.15161 14.0904L5.95575 12.6614C5.55023 12.4926 5.17171 12.2726 4.82821 12.0096L3.49206 12.5547C3.18354 12.6806 2.82947 12.5594 2.66287 12.2708L1.58064 10.3963C1.41409 10.1078 1.48602 9.74072 1.7491 9.53643L2.88865 8.65153C2.86108 8.43792 2.84688 8.22035 2.84688 7.99974C2.84688 7.77945 2.86104 7.56218 2.88853 7.34887L1.7483 6.46427C1.48503 6.26002 1.41299 5.89276 1.5796 5.6042L2.66183 3.72972C2.82837 3.44126 3.18227 3.31998 3.49074 3.44567L4.82758 3.9904C5.17125 3.72716 5.55001 3.50694 5.9558 3.33802L6.15161 1.90939Z" fill="black"/>
<path d="M5.55131 6.98984C5.14358 7.93594 5.32614 9.07553 6.09898 9.84837C6.81095 10.5603 7.83418 10.7714 8.73065 10.4814L12.2146 13.9654C12.475 14.2257 12.8971 14.2257 13.1574 13.9654L13.8802 13.2426C14.1405 12.9822 14.1405 12.5601 13.8802 12.2998L10.3962 8.81584C10.6862 7.91936 10.4752 6.8961 9.76324 6.18412C8.9904 5.41128 7.8508 5.22872 6.90469 5.63645C6.78287 5.68895 6.76078 5.84658 6.85458 5.94038L8.6435 7.7293L7.64416 8.72864L5.85524 6.93972C5.76144 6.84592 5.60381 6.86801 5.55131 6.98984Z" fill="black"/>
</svg>
