<svg xmlns="http://www.w3.org/2000/svg" width="16" height="16" fill="none" viewBox="0 0 16 16"><path fill="#000" fill-rule="evenodd" d="M1.35 3.3333c0-1.0954.888-1.9833 1.9833-1.9833h6c1.0954 0 1.9833.888 1.9833 1.9833v1.3333c0 .5134-.195.9812-.515 1.3334.32.3522.515.82.515 1.3333v1.3333c0 .5134-.195.9812-.515 1.3334.32.3522.515.82.515 1.3333v1.3333c0 1.0954-.8879 1.9834-1.9833 1.9834h-6c-1.0954 0-1.9833-.888-1.9833-1.9834v-1.3333c0-.5133.195-.9811.515-1.3333-.32-.3522-.515-.82-.515-1.3334V7.3333c0-.5133.195-.9811.515-1.3333-.32-.3522-.515-.82-.515-1.3334zM3.3333 2.65a.6833.6833 0 0 0-.6833.6833v1.3333c0 .3774.306.6834.6833.6834h6a.6833.6833 0 0 0 .6833-.6834V3.3333a.6833.6833 0 0 0-.6833-.6833zM4 4.6667a.6667.6667 0 1 0 0-1.3334.6667.6667 0 0 0 0 1.3334m8.6666-.0167H12v-1.3h.6666c1.0954 0 1.9834.888 1.9834 1.9833v1.3333c0 .5134-.1951.9812-.5151 1.3334.32.3522.5151.82.5151 1.3333v1.3333c0 1.0954-.888 1.9834-1.9834 1.9834H12v-1.3h.6666a.6834.6834 0 0 0 .6834-.6834V9.3333a.6834.6834 0 0 0-.6834-.6833H12v-1.3h.6666a.6834.6834 0 0 0 .6834-.6834V5.3333a.6834.6834 0 0 0-.6834-.6833m-9.3333 4.7h6a.6833.6833 0 0 0 .6833-.6834V7.3333a.6833.6833 0 0 0-.6833-.6833h-6a.6833.6833 0 0 0-.6833.6833v1.3333c0 .3774.306.6834.6833.6834M4.6667 8a.6667.6667 0 1 1-1.3334 0 .6667.6667 0 0 1 1.3334 0m-1.3344 2.65a.6833.6833 0 0 0-.6823.6833v1.3333c0 .3774.306.6834.6833.6834h6a.6834.6834 0 0 0 .6833-.6834v-1.3333a.6833.6833 0 0 0-.6833-.6833z"/></svg>