<svg xmlns="http://www.w3.org/2000/svg" width="16" height="16" fill="none" viewBox="0 0 16 16"><path fill="#000" fill-rule="evenodd" d="M5.35 3.5c0-.9113.7387-1.65 1.65-1.65h2c.9113 0 1.65.7387 1.65 1.65v.35h.85c1.4635 0 2.65 1.1864 2.65 2.65v3.35h.25c.6903 0 1.25.5596 1.25 1.25v1.8c0 .6903-.5597 1.25-1.25 1.25h-1.8c-.6904 0-1.25-.5597-1.25-1.25v-1.8c0-.6904.5596-1.25 1.25-1.25h.25V6.5c0-.7456-.6044-1.35-1.35-1.35h-.85v.35c0 .9112-.7387 1.65-1.65 1.65h-.35v2.7h.25c.6903 0 1.25.5596 1.25 1.25v1.8c0 .6903-.5597 1.25-1.25 1.25H7.1c-.6904 0-1.25-.5597-1.25-1.25v-1.8c0-.6904.5596-1.25 1.25-1.25h.25v-2.7H7c-.9113 0-1.65-.7388-1.65-1.65v-.35H4.5c-.7456 0-1.35.6044-1.35 1.35v3.35h.25c.6903 0 1.25.5596 1.25 1.25v1.8c0 .6903-.5597 1.25-1.25 1.25H1.6c-.6904 0-1.25-.5597-1.25-1.25v-1.8c0-.6904.5596-1.25 1.25-1.25h.25V6.5c0-1.4636 1.1864-2.65 2.65-2.65h.85zM7 3.15a.35.35 0 0 0-.35.35v2a.35.35 0 0 0 .35.35h2a.35.35 0 0 0 .35-.35v-2A.35.35 0 0 0 9 3.15zm.15 8v1.7h1.7v-1.7zm-5.5 1.7v-1.7h1.7v1.7zm11-1.7v1.7h1.7v-1.7z"/></svg>