<svg xmlns="http://www.w3.org/2000/svg" width="16" height="16" fill="none" viewBox="0 0 16 16"><path fill="#000" fill-rule="evenodd" d="M6.812 1.3334a.667.667 0 0 0-.6604.5761l-.1958 1.4286a5.04 5.04 0 0 0-1.1282.6524l-1.3369-.5447a.6666.6666 0 0 0-.8289.284L1.5796 5.6044a.667.667 0 0 0 .1687.86l1.1402.8847A5.1 5.1 0 0 0 2.8469 8c0 .2206.0142.4382.0417.6517l-1.1395.885a.6666.6666 0 0 0-.1685.8598l1.0823 1.8745a.667.667 0 0 0 .8291.284l1.3362-.5452a5.04 5.04 0 0 0 1.1276.6519l.1958 1.429a.6666.6666 0 0 0 .6605.5761h2.1644a.6666.6666 0 0 0 .6605-.5758l.0988-.7186-1.1831-1.1832-.1574 1.1443H7.3936l-.2283-1.6662-.4008-.1279a3.71 3.71 0 0 1-1.3687-.7912l-.3111-.2831-1.5579.6356-.5008-.8674 1.3277-1.031-.089-.4104a3.73 3.73 0 0 1-.0845-.792c0-.2722.0292-.5369.0843-.7913l.089-.4105L3.025 5.7674l.5009-.8675 1.5586.635.311-.283a3.71 3.71 0 0 1 1.369-.7915l.4008-.1278.2283-1.6659h1.0017l.2291 1.666.4006.1278a3.71 3.71 0 0 1 1.3687.7915l.3109.283 1.559-.6352.5009.8675-1.3289 1.031.089.4104a3.73 3.73 0 0 1 .0817.9316l1.1215.9747c.1478-.23.2144-.8946.2144-1.1151a5.1 5.1 0 0 0-.0416-.6507l1.1406-.885a.6666.6666 0 0 0 .1687-.86l-1.0822-1.8745a.667.667 0 0 0-.8289-.284l-1.3372.5449a5.04 5.04 0 0 0-1.128-.6524l-.1966-1.429a.667.667 0 0 0-.6605-.5758zm-.713 8.515c-.7729-.7728-.9554-1.9123-.5477-2.8584.0525-.1219.2101-.144.304-.0502l1.7889 1.789.9993-.9994-1.789-1.789c-.0937-.0937-.0716-.2513.0502-.3038.946-.4078 2.0857-.2252 2.8585.5476.712.712.923 1.7353.633 2.6318l3.484 3.4839a.6667.6667 0 0 1 0 .9428l-.7228.7228a.6667.6667 0 0 1-.9428 0l-3.484-3.484c-.8964.29-1.9197.079-2.6316-.633"/></svg>