<svg xmlns="http://www.w3.org/2000/svg" width="16" height="16" fill="none" viewBox="0 0 16 16"><path fill="#000" fill-rule="evenodd" d="M7.9996 5.2075c-1.5421 0-2.7923 1.2502-2.7923 2.7923s1.2502 2.7924 2.7923 2.7924S10.792 9.542 10.792 7.9998c0-1.5421-1.2502-2.7923-2.7924-2.7923M6.5073 7.9998c0-.8241.6681-1.4923 1.4923-1.4923s1.4923.6681 1.4923 1.4923-.668 1.4924-1.4923 1.4924-1.4923-.6682-1.4923-1.4924" clip-rule="evenodd"/><path fill="#000" fill-rule="evenodd" d="M6.845.95a.65.65 0 0 0-.644.5617l-.2136 1.5587a5.32 5.32 0 0 0-1.2497.7226l-1.4585-.5943a.65.65 0 0 0-.8082.277L1.3166 5.475a.65.65 0 0 0 .1645.8385l1.244.9651a5.4 5.4 0 0 0-.0485.721c0 .2447.0165.4857.0486.722l-1.2432.9655a.65.65 0 0 0-.1643.8383l1.1544 1.9995a.65.65 0 0 0 .8085.2768l1.4578-.5947a5.32 5.32 0 0 0 1.249.722l.2137 1.5591a.65.65 0 0 0 .644.5618h2.3087a.65.65 0 0 0 .644-.5615l.2144-1.5595a5.32 5.32 0 0 0 1.2488-.722l1.4581.5949a.65.65 0 0 0 .8085-.2768l1.1544-1.9994a.65.65 0 0 0-.1643-.8384l-1.2436-.9657a5.4 5.4 0 0 0 .0486-.7218c0-.2442-.0165-.4849-.0485-.7208l1.2444-.9655a.65.65 0 0 0 .1645-.8385l-1.1544-1.9995a.65.65 0 0 0-.8082-.277l-1.4589.5945a5.32 5.32 0 0 0-1.2495-.7225l-.2144-1.5591A.65.65 0 0 0 9.1537.95zm.567 1.3h1.175l.2465 1.7916.3905.1246a4.02 4.02 0 0 1 1.4825.8574l.3032.2759 1.6766-.6832.5875 1.0176-1.4292 1.1088.0868.4002a4.04 4.04 0 0 1 .0913.8569c0 .2949-.0316.5817-.0915.8574l-.0867.4001 1.4283 1.1092-.5875 1.0176-1.6758-.6837-.3033.2759a4.02 4.02 0 0 1-1.4822.857l-.3905.1246-.2464 1.7921H7.412l-.2457-1.7919-.3908-.1247a4.02 4.02 0 0 1-1.4824-.857l-.3033-.276-1.6754.6836-.5876-1.0177 1.428-1.1088-.0868-.4a4.04 4.04 0 0 1-.0915-.8577c0-.2948.0316-.5815.0913-.857l.0868-.4003L2.726 5.634l.5875-1.0177 1.6761.683.3032-.2759a4.02 4.02 0 0 1 1.4829-.8574l.3908-.1246z" clip-rule="evenodd"/></svg>