<svg width="16" height="16" viewBox="0 0 16 16" fill="none" xmlns="http://www.w3.org/2000/svg">
<path d="M7.00002 2.0166C5.97071 2.0166 5.01429 2.32867 4.2202 2.86335C4.45743 3.18633 4.59756 3.58506 4.59756 4.01653V4.20244L4.60922 4.19787C5.25263 3.64838 6.08758 3.3166 7.00002 3.3166C9.03427 3.3166 10.6834 4.96569 10.6834 6.99994C10.6834 9.03418 9.03427 10.6833 7.00002 10.6833C5.65802 10.6833 4.48365 9.96557 3.83978 8.89307C3.51015 9.1481 3.09658 9.29986 2.64756 9.29986C2.62406 9.29986 2.60066 9.29944 2.57736 9.29862C3.40822 10.8939 5.0769 11.9833 7.00002 11.9833C8.1418 11.9833 9.19389 11.5993 10.0342 10.9534L12.8737 13.7929C13.1276 14.0467 13.5391 14.0467 13.793 13.7929C14.0468 13.5391 14.0468 13.1275 13.793 12.8737L10.9534 10.0342C11.5994 9.19384 11.9834 8.14173 11.9834 6.99994C11.9834 4.24772 9.75224 2.0166 7.00002 2.0166Z" fill="black"/>
<path d="M3.29756 4.01652C3.29756 3.65753 3.00654 3.36652 2.64756 3.36652C2.28857 3.36652 1.99756 3.65753 1.99756 4.01652V7.34985C1.99756 7.70883 2.28857 7.99985 2.64756 7.99985C3.00654 7.99985 3.29756 7.70883 3.29756 7.34985V4.01652Z" fill="black"/>
<path d="M8.63089 5.34985C8.63089 4.99086 8.33988 4.69985 7.98089 4.69985C7.62191 4.69985 7.33089 4.99086 7.33089 5.34985V7.34985C7.33089 7.70883 7.62191 7.99985 7.98089 7.99985C8.33988 7.99985 8.63089 7.70883 8.63089 7.34985V5.34985Z" fill="black"/>
<path d="M5.96423 6.01652C5.96423 5.65753 5.67321 5.36652 5.31423 5.36652C4.95524 5.36652 4.66423 5.65753 4.66423 6.01652V7.34985C4.66423 7.70883 4.95524 7.99985 5.31423 7.99985C5.67321 7.99985 5.96423 7.70883 5.96423 7.34985V6.01652Z" fill="black"/>
</svg>
