<svg width="16" height="16" viewBox="0 0 16 16" fill="none" xmlns="http://www.w3.org/2000/svg">
<path d="M7.00002 2.8667C5.97071 2.8667 5.01429 3.17877 4.2202 3.71345C4.45743 4.03643 4.59756 4.43516 4.59756 4.86663V5.05254L4.60922 5.04797C5.25263 4.49847 6.08758 4.1667 7.00002 4.1667C9.03427 4.1667 10.6834 5.81578 10.6834 7.85003C10.6834 9.88428 9.03427 11.5334 7.00002 11.5334C5.65802 11.5334 4.48365 10.8157 3.83978 9.74316C3.51015 9.9982 3.09658 10.15 2.64756 10.15C2.62406 10.15 2.60066 10.1495 2.57736 10.1487C3.40822 11.744 5.0769 12.8334 7.00002 12.8334C8.1418 12.8334 9.19389 12.4494 10.0342 11.8035L12.8737 14.643C13.1276 14.8968 13.5391 14.8968 13.793 14.643C14.0468 14.3892 14.0468 13.9776 13.793 13.7238L10.9534 10.8843C11.5994 10.0439 11.9834 8.99183 11.9834 7.85003C11.9834 5.09781 9.75224 2.8667 7.00002 2.8667Z" fill="black"/>
<path d="M3.29756 4.86661C3.29756 4.50763 3.00654 4.21661 2.64756 4.21661C2.28857 4.21661 1.99756 4.50763 1.99756 4.86661V8.19995C1.99756 8.55893 2.28857 8.84995 2.64756 8.84995C3.00654 8.84995 3.29756 8.55893 3.29756 8.19995V4.86661Z" fill="black"/>
<path d="M8.63089 6.19995C8.63089 5.84096 8.33988 5.54995 7.98089 5.54995C7.62191 5.54995 7.33089 5.84096 7.33089 6.19995V8.19995C7.33089 8.55893 7.62191 8.84995 7.98089 8.84995C8.33988 8.84995 8.63089 8.55893 8.63089 8.19995V6.19995Z" fill="black"/>
<path d="M5.96423 6.86661C5.96423 6.50763 5.67321 6.21661 5.31423 6.21661C4.95524 6.21661 4.66423 6.50763 4.66423 6.86661V8.19995C4.66423 8.55893 4.95524 8.84995 5.31423 8.84995C5.67321 8.84995 5.96423 8.55893 5.96423 8.19995V6.86661Z" fill="black"/>
</svg>
