<svg xmlns="http://www.w3.org/2000/svg" width="16" height="16" fill="none" viewBox="0 0 16 16"><path fill="#000" fill-rule="evenodd" d="M6.2012 1.5117A.65.65 0 0 1 6.845.95h2.309a.65.65 0 0 1 .644.5614l.2144 1.5591a5.32 5.32 0 0 1 1.2495.7225l1.4587-.5945a.65.65 0 0 1 .8084.277l1.1543 1.9995a.65.65 0 0 1-.1645.8385l-1.2444.9654a5.38 5.38 0 0 1 0 1.4427l1.2436.9657a.65.65 0 0 1 .1641.8383l-1.1543 1.9995a.65.65 0 0 1-.8084.2768l-1.4582-.5949a5.32 5.32 0 0 1-1.2488.722l-.2144 1.5595a.65.65 0 0 1-.644.5614H6.845a.65.65 0 0 1-.6438-.5617l-.2139-1.5591a5.32 5.32 0 0 1-1.249-.7221l-1.4578.5948a.65.65 0 0 1-.8083-.2768l-1.1546-1.9994a.65.65 0 0 1 .1643-.8385l1.2432-.9654a5.38 5.38 0 0 1 0-1.443l-1.2439-.965a.65.65 0 0 1-.1645-.8386L2.471 3.4756a.65.65 0 0 1 .8083-.277l1.4585.5944a5.32 5.32 0 0 1 1.2495-.7226zm1.7986 4.9959c-.8242 0-1.4924.6681-1.4924 1.4923s.6682 1.4923 1.4924 1.4923c.824 0 1.4922-.6681 1.4922-1.4923s-.6682-1.4923-1.4922-1.4923"/></svg>