<svg xmlns="http://www.w3.org/2000/svg" width="16" height="16" fill="none" viewBox="0 0 16 16"><path fill="#000" fill-rule="evenodd" d="M14.95 4.3731a.65.65 0 0 1-.65.65H8.7645c-.2944 1.2683-1.4314 2.2133-2.7892 2.2133s-2.4948-.945-2.7891-2.2133H1.7a.65.65 0 1 1 0-1.3h1.486C3.4806 2.455 4.6177 1.51 5.9754 1.51s2.4948.945 2.7892 2.2132H14.3a.65.65 0 0 1 .65.65M5.9753 2.81c.8634 0 1.5633.6999 1.5633 1.5633s-.7 1.5632-1.5633 1.5632-1.5632-.6999-1.5632-1.5632S5.112 2.81 5.9753 2.81m-4.9252 8.8169a.65.65 0 0 1 .65-.65h5.5355C7.53 9.7086 8.667 8.7635 10.0248 8.7635c1.3577 0 2.4948.9451 2.7891 2.2133H14.3a.65.65 0 1 1 0 1.3h-1.4861c-.2944 1.2682-1.4314 2.2133-2.7891 2.2133S7.53 13.545 7.2356 12.2768H1.7001a.65.65 0 0 1-.65-.65m8.9747 1.5633c-.8634 0-1.5633-.6999-1.5633-1.5633s.6999-1.5633 1.5633-1.5633 1.5632.6999 1.5632 1.5633-.6999 1.5633-1.5632 1.5633"/></svg>