<svg xmlns="http://www.w3.org/2000/svg" width="16" height="16" fill="none" viewBox="0 0 16 16"><path fill="#000" fill-rule="evenodd" d="M4.373 1.05a.65.65 0 0 1 .65.65v5.5356c1.2682.2944 2.2133 1.4314 2.2133 2.7892 0 1.3577-.945 2.4948-2.2133 2.7891V14.3a.65.65 0 1 1-1.3 0v-1.4861c-1.2682-.2944-2.2132-1.4314-2.2132-2.7891S2.4548 7.53 3.723 7.2356V1.7001a.65.65 0 0 1 .65-.65m7.2537 13.9a.65.65 0 0 1-.65-.65V8.7645c-1.2682-.2944-2.2133-1.4314-2.2133-2.7892s.9451-2.4948 2.2133-2.7891V1.7a.65.65 0 1 1 1.3 0v1.486c1.2682.2944 2.2133 1.4315 2.2133 2.7892s-.9451 2.4948-2.2133 2.7892V14.3a.65.65 0 0 1-.65.65M13.19 5.9753c0 .8634-.6999 1.5633-1.5633 1.5633s-1.5633-.7-1.5633-1.5633.6999-1.5632 1.5633-1.5632S13.19 5.112 13.19 5.9753M2.8098 10.0248c0-.8634.6999-1.5633 1.5632-1.5633s1.5633.6999 1.5633 1.5633-.6999 1.5632-1.5633 1.5632-1.5632-.6999-1.5632-1.5632"/></svg>