<svg xmlns="http://www.w3.org/2000/svg" width="16" height="16" fill="none" viewBox="0 0 16 16"><path fill="#000" fill-rule="evenodd" d="M4.2202 2.8634c.794-.5347 1.7505-.8468 2.7798-.8468 2.7522 0 4.9834 2.2311 4.9834 4.9833a4.962 4.962 0 0 1-1.0299 3.0343l2.8395 2.8395a.65.65 0 0 1-.9193.9192l-2.8395-2.8395A4.96 4.96 0 0 1 7 11.9833c-1.9231 0-3.5918-1.0894-4.4226-2.6847q.035.0013.0702.0013c.449 0 .8626-.1518 1.1922-.4068C4.4836 9.9656 5.658 10.6833 7 10.6833c2.0343 0 3.6834-1.6491 3.6834-3.6834 0-2.0342-1.6491-3.6833-3.6834-3.6833a3.67 3.67 0 0 0-2.3908.8813l-.0116.0045v-.1859c0-.4314-.1402-.8302-.3774-1.1531m-1.5726.5031a.65.65 0 0 1 .65.65v3.3333a.65.65 0 1 1-1.3 0V4.0165a.65.65 0 0 1 .65-.65m5.3333 1.3333a.65.65 0 0 1 .65.65v2a.65.65 0 1 1-1.3 0v-2a.65.65 0 0 1 .65-.65M5.9642 6.0165a.65.65 0 1 0-1.3 0v1.3333a.65.65 0 1 0 1.3 0z"/></svg>