<svg xmlns="http://www.w3.org/2000/svg" width="16" height="16" fill="none" viewBox="0 0 16 16"><path fill="#000" fill-rule="evenodd" d="M11.6638.8893c-1.2888 0-2.3335 1.0447-2.3335 2.3334 0 .199.025.392.0717.5764l-3.92 2.4102a2.325 2.325 0 0 0-1.5685-.6057c-1.2887 0-2.3334 1.0447-2.3334 2.3335s1.0447 2.3334 2.3334 2.3334A2.324 2.324 0 0 0 5.432 9.709l3.9817 2.4481a2.34 2.34 0 0 0-.0833.6201c0 1.2888 1.0447 2.3335 2.3335 2.3335s2.3334-1.0447 2.3334-2.3335-1.0447-2.3334-2.3334-2.3334a2.325 2.325 0 0 0-1.5689.6061l-3.95-2.4285a2.33 2.33 0 0 0 .102-.6843c0-.215-.029-.4231-.0834-.6207l3.8984-2.397a2.325 2.325 0 0 0 1.6019.6367c1.2887 0 2.3334-1.0447 2.3334-2.3334S12.9525.8893 11.6638.8893"/></svg>