<svg xmlns="http://www.w3.org/2000/svg" width="16" height="16" fill="none" viewBox="0 0 16 16"><path fill="#000" fill-rule="evenodd" d="M11.3567.8894c-1.2887 0-2.3334 1.0447-2.3334 2.3334 0 .199.0248.392.0717.5764L5.1749 6.2095a2.325 2.325 0 0 0-1.5685-.6057c-1.2887 0-2.3334 1.0447-2.3334 2.3334s1.0447 2.3334 2.3334 2.3334a2.325 2.325 0 0 0 1.5184-.5615l3.9818 2.4482a2.34 2.34 0 0 0-.0833.6201c0 1.2887 1.0447 2.3334 2.3334 2.3334s2.3334-1.0447 2.3334-2.3334-1.0447-2.3335-2.3334-2.3335a2.325 2.325 0 0 0-1.5689.6062L5.8379 8.6215a2.33 2.33 0 0 0 .102-.6843c0-.215-.029-.423-.0835-.6207l3.8984-2.397a2.325 2.325 0 0 0 1.6019.6368c1.2887 0 2.3334-1.0448 2.3334-2.3335S12.6454.8894 11.3567.8894m-1.0334 2.3334c0-.5707.4626-1.0334 1.0334-1.0334.5707 0 1.0334.4627 1.0334 1.0334s-.4627 1.0335-1.0334 1.0335-1.0334-.4627-1.0334-1.0335m1.0334 8.5211c-.5708 0-1.0334.4627-1.0334 1.0335 0 .5707.4626 1.0334 1.0334 1.0334.5707 0 1.0334-.4627 1.0334-1.0334s-.4627-1.0335-1.0334-1.0335M2.573 7.9372c0-.5708.4627-1.0334 1.0334-1.0334S4.64 7.3664 4.64 7.9372c0 .5707-.4627 1.0334-1.0335 1.0334-.5707 0-1.0334-.4627-1.0334-1.0334"/></svg>