<svg xmlns="http://www.w3.org/2000/svg" width="16" height="16" fill="none" viewBox="0 0 16 16"><path fill="#000" fill-rule="evenodd" d="M7.0926 1.3516a2 2 0 0 1 1.8428 0l4.22 2.1905a1 1 0 0 1 .5393.8876v2.98c0 .9801-.0952 2.1002-.5888 3.1399-.8174 1.7221-2.0011 2.8189-2.9795 3.4833-.4887.332-.9291.5581-1.2532.7032a6.2 6.2 0 0 1-.3941.1613c-.2138.0784-.3034.1025-.4651.1025-.1487 0-.2938-.0408-.435-.0873a5.8 5.8 0 0 1-.4049-.1514c-.3323-.138-.7827-.3565-1.2812-.6865-1.0004-.6622-2.1973-1.7757-3.0105-3.574-.4586-1.0141-.5491-2.0968-.5491-3.0491v-3.022a1 1 0 0 1 .5393-.8875zm2.7003 4.8555a.65.65 0 0 0-.9193 0L8 7.0808l-.8737-.8737a.65.65 0 0 0-.9192.9192L7.0807 8l-.8737.8737a.65.65 0 1 0 .9192.9193L8 8.9192l.8737.8738a.65.65 0 0 0 .9193-.9193L8.9192 8l.8737-.8737a.65.65 0 0 0 0-.9192"/></svg>