<svg xmlns="http://www.w3.org/2000/svg" width="16" height="16" fill="none" viewBox="0 0 16 16"><path fill="#000" fill-rule="evenodd" d="M8.0006 14.5c-.163.6279-.1636.6291-.164.629zm.1875.6224c-.0003 0-.0014-.0044-.1875-.6224zm0 0 .0012-.0004.0015-.0005.0038-.0011.011-.0035a4 4 0 0 0 .1526-.0527 6.3 6.3 0 0 0 .4067-.1671c.3378-.1518.8-.3903 1.3128-.7418 1.0264-.7036 2.2628-1.8653 3.1006-3.6925.4446-.9697.543-2.0206.543-2.9855V4.132a.65.65 0 0 0-.3505-.577l-4.61-2.3929a1.65 1.65 0 0 0-1.5204 0l-4.61 2.393a.65.65 0 0 0-.3506.5769v3.387c0 .937.0932 1.9534.5068 2.8998.8333 1.9069 2.0807 3.0825 3.1245 3.7801.5208.3481.9911.5775 1.3356.7211.1724.0719.3139.1225.4152.156a4 4 0 0 0 .157.0481l.0114.0031.004.0011.0024.0006a.653.653 0 0 0 .3514-.0066M8.1618 2.316a.35.35 0 0 0-.3225 0L3.5798 4.527v2.992c0 .866.0895 1.6735.398 2.3793.7158 1.638 1.7777 2.6331 2.6557 3.2199.4402.2942.834.4855 1.1134.602.095.0396.1766.0705.2419.0937a5 5 0 0 0 .243-.1025c.279-.1254.6717-.3273 1.111-.6284.8778-.6017 1.9349-1.5941 2.6538-3.162.3298-.7193.4247-1.5506.4247-2.4437V4.527zM5.852 5.852a.65.65 0 0 1 .9192 0l1.2289 1.2288L9.2289 5.852a.65.65 0 0 1 .9193.9192L8.9193 8l1.2289 1.2288a.6501.6501 0 0 1-.9193.9193L8.0001 8.9192l-1.2288 1.2289a.65.65 0 0 1-.9193-.9193L7.081 8 5.852 6.771a.65.65 0 0 1 0-.9192"/></svg>