<svg xmlns="http://www.w3.org/2000/svg" width="16" height="16" fill="none" viewBox="0 0 16 16"><path fill="#000" fill-rule="evenodd" d="M8.9354 1.3516a2 2 0 0 0-1.8428 0l-4.22 2.1905a1 1 0 0 0-.5393.8876v3.0219c0 .9523.0905 2.035.549 3.0491.8133 1.7983 2.0102 2.9118 3.0106 3.574.4985.33.9489.5485 1.2812.6865.1665.069.3042.1183.4049.1514.1411.0465.2864.0873.435.0873.1772 0 .2147-.0106.465-.1025a6.2 6.2 0 0 0 .3942-.1613c.3241-.1451.7645-.3712 1.2532-.7032.9784-.6644 2.1621-1.7612 2.9795-3.4833.4936-1.0397.5888-2.1598.5888-3.1398V4.4297a1 1 0 0 0-.5393-.8876zm-.9355 3.3318a.65.65 0 0 1 .65.65V8a.65.65 0 0 1-1.3 0V5.3334a.65.65 0 0 1 .65-.65m0 5.9734a.65.65 0 1 0 0-1.3.65.65 0 0 0 0 1.3"/></svg>