<svg xmlns="http://www.w3.org/2000/svg" width="16" height="16" fill="none" viewBox="0 0 16 16"><path fill="#000" fill-rule="evenodd" d="M8.1613 2.3162a.35.35 0 0 0-.3225 0l-4.2595 2.211v2.992c0 .866.0895 1.6734.398 2.3793.7158 1.638 1.7777 2.633 2.6557 3.2198.4402.2942.834.4855 1.1134.602a5 5 0 0 0 .2419.0937 5.4 5.4 0 0 0 .243-.1024c.279-.1254.6717-.3274 1.111-.6285.8778-.6017 1.9349-1.594 2.6538-3.162.3298-.7193.4248-1.5505.4248-2.4437V4.5272zM8.0001 14.5c-.1633.6292-.1636.6291-.164.629l-.0006-.0002-.0016-.0004-.004-.0011-.0116-.0031-.0359-.0102a4 4 0 0 1-.121-.0379 5.8 5.8 0 0 1-.4152-.156c-.3445-.1436-.8148-.373-1.3356-.721-1.0438-.6977-2.2912-1.8733-3.1245-3.7802-.4136-.9463-.5068-1.9627-.5068-2.8998v-3.387a.65.65 0 0 1 .3505-.5769L7.24 1.1623a1.65 1.65 0 0 1 1.5203 0l4.6101 2.393a.65.65 0 0 1 .3506.577v3.3451c0 .9649-.0985 2.0158-.5431 2.9855-.8378 1.8272-2.0742 2.9889-3.1006 3.6925-.5128.3515-.975.59-1.3128.7419a6.3 6.3 0 0 1-.4067.167 4 4 0 0 1-.1526.0528l-.011.0034-.0038.0012-.0015.0004-.0006.0002c-.0003.0001-.0006.0002-.1881-.6222m0 0 .1875.6224a.65.65 0 0 1-.3508.0068z"/></svg>