<svg xmlns="http://www.w3.org/2000/svg" width="16" height="16" fill="none" viewBox="0 0 16 16"><path fill="#000" fill-rule="evenodd" d="M7.8384 2.3162a.35.35 0 0 1 .3224 0l4.2596 2.211v2.9502c0 .8932-.095 1.7244-.4248 2.4437a8 8 0 0 1-.0595.1268l.9662.9663a9.3 9.3 0 0 0 .275-.5513c.4446-.9697.5431-2.0206.5431-2.9855V4.1322a.65.65 0 0 0-.3506-.5769l-4.61-2.393a1.65 1.65 0 0 0-1.5204 0L4.482 2.5938l.9642.9642zM1.54 3.2846l.7467.7467a.65.65 0 0 0-.0079.101v3.387c0 .937.0932 1.9534.5068 2.8997.8333 1.9069 2.0807 3.0825 3.1245 3.7802.5208.348.9911.5774 1.3356.721.1724.0719.3139.1225.4152.156a4 4 0 0 0 .157.0481l.0114.0031.004.0011.0017.0004s.0013.0004.1646-.6288l-.1633.6292a.65.65 0 0 0 .3508-.0068l.0012-.0004.0015-.0004.0038-.0012.011-.0035.011-.0035.0237-.0078a4 4 0 0 0 .118-.0414 6.4 6.4 0 0 0 .4066-.167c.3378-.1519.8-.3904 1.3128-.7419a9 9 0 0 0 1.2751-1.0589l1.2993 1.2992a.65.65 0 0 0 .9192-.9192L2.4593 2.3654a.65.65 0 0 0-.9193.9192m7.8018 9.7985a7.7 7.7 0 0 0 1.0908-.9059L3.5788 5.3235v2.1957c0 .866.0895 1.6734.398 2.3793.7158 1.6379 1.7777 2.633 2.6557 3.2198.4402.2942.834.4855 1.1134.602.0951.0397.1767.0705.242.0937a5.4 5.4 0 0 0 .243-.1024c.279-.1254.6716-.3274 1.1109-.6285"/></svg>