<svg xmlns="http://www.w3.org/2000/svg" width="16" height="16" fill="none" viewBox="0 0 16 16"><path fill="#000" fill-rule="evenodd" d="M8 14.5001c-.1632.6292-.1638.629-.1638.629zm.1876.6224a.653.653 0 0 1-.3514.0066l-.0023-.0006-.004-.0011-.0115-.0031-.036-.0102a4 4 0 0 1-.121-.0379 6 6 0 0 1-.4152-.156c-.3445-.1436-.8148-.373-1.3356-.721-1.0438-.6977-2.2912-1.8733-3.1245-3.7802-.4136-.9463-.5068-1.9627-.5068-2.8998v-3.387a.65.65 0 0 1 .3505-.5769L7.24 1.1623a1.65 1.65 0 0 1 1.5203 0l4.6101 2.393a.65.65 0 0 1 .3506.577v3.3451c0 .9649-.0985 2.0158-.5431 2.9855-.8378 1.8272-2.0741 2.9889-3.1006 3.6925-.5128.3515-.975.59-1.3128.7419a6.3 6.3 0 0 1-.4067.167 4 4 0 0 1-.1526.0527l-.011.0035-.0038.0012-.0015.0004zM8.1613 2.3162a.35.35 0 0 0-.3225 0l-4.2595 2.211v2.992c0 .866.0895 1.6734.398 2.3793.7158 1.6379 1.7777 2.633 2.6557 3.2198.4402.2942.834.4855 1.1134.602.0951.0397.1766.0705.2419.0937a5.4 5.4 0 0 0 .243-.1024c.279-.1254.6717-.3274 1.111-.6285.8778-.6017 1.9349-1.5941 2.6538-3.162.3298-.7193.4248-1.5505.4248-2.4437V4.5272zM8.0776 3.657a.168.168 0 0 0-.155 0L4.6638 5.3485v2.3733c0 .5767.0618 1.1132.2588 1.5852.5343 1.2804 1.3475 2.0566 2.0229 2.5137.3387.2293.6429.3782.859.4688a4 4 0 0 0 .1863.0726 4 4 0 0 0 .188-.0796c.2162-.0977.52-.2552.8586-.4902.6764-.4694 1.4867-1.2444 2.0231-2.4713.2104-.4812.2756-1.0324.2756-1.6273V5.3485z"/></svg>