<svg width="16" height="16" viewBox="0 0 16 16" fill="none" xmlns="http://www.w3.org/2000/svg">
<path d="M6.77124 5.85202C6.5174 5.59818 6.10584 5.59818 5.852 5.85202C5.59816 6.10586 5.59816 6.51742 5.852 6.77126L7.08086 8.00011L5.852 9.22896C5.59816 9.48281 5.59816 9.89436 5.852 10.1482C6.10584 10.402 6.5174 10.402 6.77124 10.1482L8.00009 8.91935L9.22895 10.1482C9.48279 10.402 9.89435 10.402 10.1482 10.1482C10.402 9.89436 10.402 9.48281 10.1482 9.22896L8.91933 8.00011L10.1482 6.77126C10.402 6.51742 10.402 6.10586 10.1482 5.85202C9.89435 5.59818 9.48279 5.59818 9.22895 5.85202L8.00009 7.08087L6.77124 5.85202Z" fill="black"/>
<path fill-rule="evenodd" clip-rule="evenodd" d="M7.83667 15.1291C7.83699 15.1292 7.83729 15.1293 8.00057 14.5001L7.83667 15.1291C7.95201 15.159 8.07398 15.1569 8.18807 15.1225L8.00057 14.5001C8.18807 15.1225 8.18778 15.1226 8.18807 15.1225L8.18929 15.1221L8.19079 15.1217L8.19462 15.1205L8.20557 15.1171C8.21432 15.1143 8.22594 15.1105 8.2403 15.1058C8.26901 15.0962 8.30868 15.0825 8.35819 15.0643C8.45717 15.0279 8.59574 14.9733 8.76486 14.8973C9.10271 14.7454 9.56488 14.5069 10.0777 14.1554C11.1041 13.4518 12.3405 12.2901 13.1783 10.4629C13.6229 9.49323 13.7213 8.44228 13.7213 7.4774V4.13223C13.7213 3.88957 13.5862 3.66711 13.3708 3.55532L8.76073 1.16234C8.28414 0.91496 7.71699 0.914961 7.2404 1.16234L2.63033 3.55532C2.41495 3.66711 2.27979 3.88957 2.27979 4.13223V7.5192C2.27979 8.45628 2.37299 9.47266 2.78656 10.419C3.61988 12.3259 4.86725 13.5015 5.91112 14.1992C6.43189 14.5472 6.90221 14.7766 7.24665 14.9202C7.41906 14.9921 7.56057 15.0428 7.6619 15.0762C7.7126 15.0929 7.75331 15.1054 7.78291 15.1141C7.79771 15.1184 7.80973 15.1218 7.81884 15.1243L7.83031 15.1274L7.83436 15.1285L7.83667 15.1291ZM7.83932 2.31616C7.94041 2.26369 8.06072 2.26369 8.16181 2.31616L12.4213 4.52718V7.4774C12.4213 8.37056 12.3264 9.20182 11.9966 9.92109C11.2777 11.4891 10.2206 12.4814 9.34274 13.0831C8.90346 13.3842 8.5108 13.5862 8.23184 13.7116C8.13627 13.7545 8.05433 13.7884 7.98879 13.814C7.92353 13.7908 7.84199 13.76 7.74692 13.7203C7.46747 13.6038 7.07366 13.4125 6.63347 13.1183C5.75544 12.5315 4.6936 11.5365 3.97778 9.89845C3.66932 9.19261 3.57979 8.38521 3.57979 7.5192V4.52718L7.83932 2.31616Z" fill="black"/>
</svg>
