<svg xmlns="http://www.w3.org/2000/svg" width="16" height="16" fill="none" viewBox="0 0 16 16"><path fill="#000" fill-rule="evenodd" d="M7.2409 1.1626a1.65 1.65 0 0 1 1.5203 0l4.6101 2.393a.65.65 0 0 1 .3505.5769v3.3451c0 .965-.0983 2.0157-.5429 2.9854-1.5664 3.4163-4.5173 4.5024-4.9347 4.6419l-.003.001H8.241c-.0267.009-.1255.0425-.2501.041-.1173-.0015-.217-.0354-.217-.0354-.4528-.1343-3.4327-1.136-4.9868-4.6918-.4136-.9464-.507-1.9631-.507-2.9003v-3.387a.65.65 0 0 1 .3506-.5768zm.9214 1.1538a.35.35 0 0 0-.3225 0l-4.2595 2.211v2.992c0 .866.0896 1.6738.3981 2.3796 1.1963 2.7371 3.37 3.6878 4.0108 3.9154.6398-.2503 2.8026-1.2643 4.008-3.8932.3297-.7193.4246-1.5504.4246-2.4436V4.5275zM8.001 6.7526c-1.2675 0-2.0682.6788-2.1996.7993a.65.65 0 1 1-.879-.9578c.239-.2194 1.3422-1.1415 3.0786-1.1415s2.8396.9221 3.0786 1.1415a.65.65 0 0 1-.879.9578c-.1313-.1205-.932-.7993-2.1996-.7993m-.0188 1.9986c-.5183 0-.8598.2956-.9353.3691a.65.65 0 0 1-.9071-.9312c.1761-.1716.8284-.738 1.8424-.738s1.6662.5664 1.8424.738a.65.65 0 0 1-.9072.9312c-.0754-.0735-.4169-.3691-.9352-.3691m.7277 1.4646a.7275.7275 0 1 1-1.455 0 .7275.7275 0 0 1 1.455 0"/></svg>