<svg xmlns="http://www.w3.org/2000/svg" width="16" height="16" fill="none" viewBox="0 0 16 16"><path fill="#000" fill-rule="evenodd" d="M7.4229 1.0812a1.65 1.65 0 0 1 1.3378.081l4.6104 2.3936a.65.65 0 0 1 .3506.5762v3.3457c0 .9648-.0994 2.0158-.544 2.9854-.8378 1.827-2.0742 2.9888-3.1006 3.6923-.5127.3514-.9747.5904-1.3125.7422a6.3 6.3 0 0 1-.4062.167 4 4 0 0 1-.1182.041c-.0543.0181-.1096.0335-.1659.0401a.65.65 0 0 1-.1495 0c-.0778-.0151-.1325-.0264-.2627-.0694a5.8 5.8 0 0 1-.416-.1562c-.3444-.1436-.8145-.3729-1.335-.7207-1.0438-.6977-2.2916-1.8734-3.125-3.7803-.4134-.9461-.5068-1.9625-.5068-2.8994V4.132a.65.65 0 0 1 .3506-.5762l4.6103-2.3935zm.495 1.2051-.079.0303-4.2588 2.21v2.9931c0 .8658.089 1.6732.3974 2.379.7159 1.6379 1.7783 2.6328 2.6563 3.2196.44.2941.8339.4851 1.1133.6016.0943.0393.1762.0677.2412.0908.0653-.0256.1482-.0559.2432-.0986.2789-.1254.672-.3278 1.1113-.6289.8778-.6017 1.9344-1.5943 2.6533-3.1621.3297-.7192.4248-1.5503.4248-2.4434V4.5265l-2.4092-1.25-.9424 2.333 1.8516 1.7393a.651.651 0 0 1 .1895.6152l-.0284.0938-.8662 2.2314-.0596.1172a.6516.6516 0 0 1-.7822.2539c-.3344-.13-.5-.5072-.37-.8418l.707-1.8232L7.8554 6.253a.65.65 0 0 1-.1573-.7168L8.8525 2.674l-.6904-.3574a.352.352 0 0 0-.2441-.0303"/></svg>