<svg xmlns="http://www.w3.org/2000/svg" width="16" height="16" fill="none" viewBox="0 0 16 16"><path fill="#000" fill-rule="evenodd" d="M4.0166 2.6c0-.6904.5597-1.25 1.25-1.25h5.4667c.6904 0 1.25.5596 1.25 1.25v2.0833H13.4c.6903 0 1.25.5597 1.25 1.25v4.8c0 .6904-.5597 1.25-1.25 1.25h-.75V14a.65.65 0 1 1-1.3 0V9.9833H9.9833V14a.65.65 0 1 1-1.3 0V9.9833H7.3166V14a.65.65 0 1 1-1.3 0V9.9833H4.65V14a.65.65 0 1 1-1.3 0v-2.0167H2.6c-.6904 0-1.25-.5596-1.25-1.25v-4.8c0-.6903.5596-1.25 1.25-1.25h1.4166zM3.35 10.6833v-.95c0-.5799.47-1.05 1.05-1.05h7.2c.5799 0 1.05.4701 1.05 1.05v.95h.7v-4.7H2.65v4.7zM10.6833 2.65v2.0333H5.3166V2.65z"/></svg>