<svg xmlns="http://www.w3.org/2000/svg" width="16" height="16" fill="none" viewBox="0 0 16 16"><path fill="#000" fill-rule="evenodd" d="M9.044 3.977c0-1.782 1.4445-3.2265 3.2264-3.2265s3.2265 1.4445 3.2265 3.2265a3.215 3.215 0 0 1-.8588 2.1918v2.961a.65.65 0 0 1-.9561.5735l-1.3902-.7424-1.4399.7461a.65.65 0 0 1-.949-.5771v-2.961a3.215 3.215 0 0 1-.859-2.192M2.9035 5.2242h5.0148a4.51 4.51 0 0 0 .6101 1.3h-5.625c-1.0769 0-1.95-.873-1.95-1.95V3.1658c0-1.077.8731-1.95 1.95-1.95h5.78a4.52 4.52 0 0 0-.6984 1.3H2.9035a.65.65 0 0 0-.65.65v1.4085c0 .359.291.65.65.65m9.3669-3.1738c-1.0639 0-1.9264.8625-1.9264 1.9265s.8625 1.9264 1.9264 1.9264c1.064 0 1.9265-.8625 1.9265-1.9265s-.8625-1.9264-1.9265-1.9264m-7.0203 1.819a.8025.8025 0 1 1-1.605 0 .8025.8025 0 0 1 1.605 0m1.6022.8026a.8025.8025 0 1 0 0-1.605.8025.8025 0 0 0 0 1.605m5.4181 2.5313c.3742 0 .7335-.0637 1.0677-.1808v1.0233l-.7356-.3927a.65.65 0 0 0-.6051-.0038l-.7946.4116V7.0226a3.22 3.22 0 0 0 1.0676.1808m-3.6675.3586H2.9035c-1.077 0-1.95.873-1.95 1.95v.426h1.3v-.426a.65.65 0 0 1 .65-.65h5.6994zm2.8886 3.4713a.651.651 0 0 1 .727.2271l.8655 1.1539.8654-1.1539a.6513.6513 0 0 1 1.1725.3908v3.6974a.6514.6514 0 0 1-1.3028 0v-1.7433l-.214.2855a.6514.6514 0 0 1-1.0422 0l-.2141-.2855v1.7433a.6513.6513 0 1 1-1.3027 0v-3.6974a.651.651 0 0 1 .4454-.6179m-9.0376 1.2693a.273.273 0 1 0 0 .546h.9244c.8702 0 1.5757.7054 1.5757 1.5757C4.954 15.2945 4.2485 16 3.3783 16H1.769a.6514.6514 0 1 1 0-1.3027h1.6093a.273.273 0 1 0 0-.546h-.9244c-.8702 0-1.5757-.7055-1.5757-1.5757s.7055-1.5757 1.5757-1.5757h1.5523a.6513.6513 0 1 1 0 1.3027zm4.3488-.6514a.6513.6513 0 0 0-1.3028 0v3.6974a.6514.6514 0 1 0 1.3028 0zm.546 0A.6513.6513 0 0 1 8 10.9999h1.8488a.6513.6513 0 1 1 0 1.3027H8.6514v.546h.7352a.6513.6513 0 1 1 0 1.3027h-.7352v.546h1.1974a.6513.6513 0 1 1 0 1.3027H8a.6514.6514 0 0 1-.6513-.6514z"/></svg>