<svg width="16" height="16" viewBox="0 0 16 16" fill="none" xmlns="http://www.w3.org/2000/svg">
<g clip-path="url(#clip0_38639_311)">
<path d="M5.25027 3.86966C5.25027 4.31287 4.89098 4.67217 4.44777 4.67217C4.00456 4.67217 3.64526 4.31287 3.64526 3.86966C3.64526 3.42645 4.00456 3.06716 4.44777 3.06716C4.89098 3.06716 5.25027 3.42645 5.25027 3.86966Z" fill="black"/>
<path d="M6.85237 4.67217C7.29558 4.67217 7.65487 4.31287 7.65487 3.86966C7.65487 3.42645 7.29558 3.06716 6.85237 3.06716C6.40916 3.06716 6.04987 3.42645 6.04987 3.86966C6.04987 4.31287 6.40916 4.67217 6.85237 4.67217Z" fill="black"/>
<path fill-rule="evenodd" clip-rule="evenodd" d="M0.953638 3.16582C0.953638 2.08887 1.82668 1.21582 2.90364 1.21582H13.1036C14.1806 1.21582 15.0536 2.08886 15.0536 3.16582V4.57434C15.0536 5.6513 14.1806 6.52434 13.1036 6.52434H2.90364C1.82669 6.52434 0.953638 5.6513 0.953638 4.57434V3.16582ZM2.90364 2.51582C2.54465 2.51582 2.25364 2.80684 2.25364 3.16582V4.57434C2.25364 4.93333 2.54465 5.22434 2.90364 5.22434H13.1036C13.4626 5.22434 13.7536 4.93333 13.7536 4.57434V3.16582C13.7536 2.80684 13.4626 2.51582 13.1036 2.51582H2.90364Z" fill="black"/>
<path d="M2.90361 7.56209C1.82666 7.56209 0.953613 8.43514 0.953613 9.51209V10.9999C1.26971 10.5285 1.72175 10.1558 2.25361 9.93811V9.51209C2.25361 9.15311 2.54463 8.86209 2.90361 8.86209H13.1036C13.4626 8.86209 13.7536 9.15311 13.7536 9.51209V10.3856H15.0536V9.51209C15.0536 8.43514 14.1806 7.56209 13.1036 7.56209H2.90361Z" fill="black"/>
<path d="M13.0968 11.2605C12.9285 11.0362 12.6357 10.9447 12.3697 11.0334C12.1037 11.122 11.9243 11.3709 11.9243 11.6513V15.3487C11.9243 15.7085 12.2159 16.0001 12.5757 16.0001C12.9354 16.0001 13.227 15.7085 13.227 15.3487V13.6054L13.4411 13.8908C13.5641 14.0549 13.7572 14.1514 13.9622 14.1514C14.1672 14.1514 14.3603 14.0549 14.4833 13.8908L14.6974 13.6054V15.3487C14.6974 15.7085 14.989 16.0001 15.3487 16.0001C15.7085 16.0001 16.0001 15.7085 16.0001 15.3487V11.6513C16.0001 11.3709 15.8207 11.122 15.5547 11.0334C15.2887 10.9447 14.9959 11.0362 14.8276 11.2605L13.9622 12.4144L13.0968 11.2605Z" fill="black"/>
<path d="M3.33213 12.3027C3.18136 12.3027 3.05914 12.4249 3.05914 12.5757C3.05914 12.7264 3.18136 12.8487 3.33213 12.8487H4.25649C5.12673 12.8487 5.83221 13.5541 5.83221 14.4244C5.83221 15.2946 5.12674 16.0001 4.25649 16.0001H2.64723C2.28749 16.0001 1.99587 15.7085 1.99587 15.3487C1.99587 14.989 2.28749 14.6974 2.64723 14.6974H4.25649C4.40725 14.6974 4.52947 14.5751 4.52947 14.4244C4.52947 14.2736 4.40725 14.1514 4.25649 14.1514H3.33213C2.46188 14.1514 1.75641 13.4459 1.75641 12.5757C1.75641 11.7054 2.46188 10.9999 3.33213 10.9999H4.88448C5.24422 10.9999 5.53585 11.2916 5.53585 11.6513C5.53585 12.0111 5.24422 12.3027 4.88448 12.3027H3.33213Z" fill="black"/>
<path d="M8.87827 10.9999C8.51853 10.9999 8.2269 11.2916 8.2269 11.6513V15.3487C8.2269 15.7085 8.51853 16.0001 8.87827 16.0001H10.727C11.0867 16.0001 11.3783 15.7085 11.3783 15.3487C11.3783 14.989 11.0867 14.6974 10.727 14.6974H9.52964V14.1514H10.2648C10.6245 14.1514 10.9162 13.8598 10.9162 13.5C10.9162 13.1403 10.6245 12.8487 10.2648 12.8487H9.52964V12.3027H10.727C11.0867 12.3027 11.3783 12.0111 11.3783 11.6513C11.3783 11.2916 11.0867 10.9999 10.727 10.9999H8.87827Z" fill="black"/>
<path d="M7.02954 10.9999C7.38928 10.9999 7.68091 11.2916 7.68091 11.6513V15.3487C7.68091 15.7085 7.38928 16.0001 7.02954 16.0001C6.6698 16.0001 6.37817 15.7085 6.37817 15.3487V11.6513C6.37817 11.2916 6.6698 10.9999 7.02954 10.9999Z" fill="black"/>
</g>
<defs>
<clipPath id="clip0_38639_311">
<rect width="16" height="16" fill="white"/>
</clipPath>
</defs>
</svg>
