<svg width="16" height="16" viewBox="0 0 16 16" fill="none" xmlns="http://www.w3.org/2000/svg">
<path d="M7.89963 1.11279C7.54065 1.11279 7.24963 1.40381 7.24963 1.76279C7.24963 2.12178 7.54065 2.41279 7.89963 2.41279H13.2187C13.412 2.41279 13.5687 2.56949 13.5687 2.76279V13.1695C13.5687 13.3628 13.412 13.5195 13.2187 13.5195H7.89963C7.54065 13.5195 7.24963 13.8105 7.24963 14.1695C7.24963 14.5284 7.54065 14.8195 7.89963 14.8195H13.2187C14.13 14.8195 14.8687 14.0807 14.8687 13.1695V2.76279C14.8687 1.85152 14.13 1.11279 13.2187 1.11279H7.89963Z" fill="black"/>
<path d="M5.99501 11.2549C6.24885 11.5087 6.66041 11.5087 6.91425 11.2549L9.70542 8.46372C9.72024 8.44916 9.73437 8.4339 9.74775 8.41798C9.78836 8.36974 9.82084 8.31698 9.8452 8.26151C9.88667 8.16709 9.90459 8.06482 9.89896 7.96362C9.89543 7.89956 9.88263 7.83798 9.86187 7.7802C9.83049 7.69263 9.77973 7.61045 9.70959 7.54031L6.91425 4.74497C6.66041 4.49113 6.24885 4.49113 5.99501 4.74497C5.74117 4.99881 5.74117 5.41037 5.99501 5.66421L7.68077 7.34996L1.77647 7.34991C1.41749 7.34991 1.12647 7.64092 1.12646 7.99991C1.12646 8.35889 1.41747 8.64991 1.77646 8.64991L7.6807 8.64996L5.99501 10.3356C5.74117 10.5895 5.74117 11.001 5.99501 11.2549Z" fill="black"/>
</svg>
