<svg xmlns="http://www.w3.org/2000/svg" width="16" height="16" fill="none" viewBox="0 0 16 16"><path fill="#000" fill-rule="evenodd" d="M7.252 1.7966a.65.65 0 0 1 .65-.65h5.3192c.9112 0 1.65.7388 1.65 1.65v10.4067c0 .9112-.7388 1.65-1.65 1.65H7.9021a.65.65 0 1 1 0-1.3h5.3191a.35.35 0 0 0 .35-.35V2.7966a.35.35 0 0 0-.35-.35H7.9021a.65.65 0 0 1-.65-.65m-.3353 9.4921a.65.65 0 0 1-.9192-.9192l1.6857-1.6857H1.7789a.65.65 0 1 1 0-1.3h5.9043L5.9974 5.698a.65.65 0 0 1 .9193-.9192L9.712 7.574a.648.648 0 0 1 .1894.4233.647.647 0 0 1-.1935.5001z"/></svg>