<svg width="16" height="16" viewBox="0 0 16 16" fill="none" xmlns="http://www.w3.org/2000/svg">
<path d="M8.098 1.14673C8.45698 1.14673 8.748 1.43774 8.748 1.79673C8.748 2.15571 8.45698 2.44673 8.098 2.44673H2.77891C2.58561 2.44673 2.42891 2.60343 2.42891 2.79673V13.2034C2.42891 13.3967 2.58561 13.5534 2.77891 13.5534H8.098C8.45698 13.5534 8.748 13.8444 8.748 14.2034C8.748 14.5624 8.45698 14.8534 8.098 14.8534H2.77891C1.86764 14.8534 1.12891 14.1147 1.12891 13.2034V2.79673C1.12891 1.88546 1.86764 1.14673 2.77891 1.14673H8.098Z" fill="black"/>
<path d="M10.9662 11.2888C11.2201 11.5427 11.6316 11.5427 11.8855 11.2888L14.6737 8.50053C14.7026 8.47255 14.7288 8.44192 14.7521 8.40902C14.7688 8.38553 14.7837 8.36117 14.7968 8.33614C14.8429 8.24852 14.8675 8.1526 14.8708 8.05609C14.8716 8.0336 14.8712 8.01109 14.8696 7.98864C14.8591 7.83767 14.7962 7.68965 14.6808 7.57424L11.8855 4.7789C11.6316 4.52506 11.2201 4.52506 10.9662 4.7789C10.7124 5.03274 10.7124 5.44429 10.9662 5.69814L12.652 7.38396L6.74767 7.38391C6.38869 7.38391 6.09767 7.67492 6.09767 8.0339C6.09767 8.39289 6.38868 8.68391 6.74766 8.68391L12.6518 8.68396L10.9662 10.3696C10.7124 10.6234 10.7124 11.035 10.9662 11.2888Z" fill="black"/>
</svg>
