<svg xmlns="http://www.w3.org/2000/svg" width="16" height="16" fill="none" viewBox="0 0 16 16"><path fill="#000" fill-rule="evenodd" d="M8.748 1.7966a.65.65 0 0 0-.65-.65H2.779c-.9113 0-1.65.7388-1.65 1.65v10.4067c0 .9112.7387 1.65 1.65 1.65h5.319a.65.65 0 1 0 0-1.3H2.779a.35.35 0 0 1-.35-.35V2.7966a.35.35 0 0 1 .35-.35h5.319a.65.65 0 0 0 .65-.65m3.1374 9.4921a.65.65 0 0 1-.9192-.9193l1.6856-1.6856H6.7477a.65.65 0 0 1 0-1.3h5.9043L10.9662 5.698a.65.65 0 0 1 .9193-.9192l2.7953 2.7953a.648.648 0 0 1 .19.4819.65.65 0 0 1-.1971.4444z"/></svg>