<svg xmlns="http://www.w3.org/2000/svg" width="16" height="16" fill="none" viewBox="0 0 16 16"><path fill="#000" fill-rule="evenodd" d="M11.2666 1.35c1.1322 0 2.05.9178 2.05 2.05v9.2c0 1.1322-.9178 2.05-2.05 2.05H4.7333c-1.1322 0-2.05-.9178-2.05-2.05V5.5405a1.15 1.15 0 0 1 .3368-.8132l3.0405-3.0405a1.15 1.15 0 0 1 .8131-.3368zm.75 2.05a.75.75 0 0 0-.75-.75H6.9359L3.9833 5.6026V12.6a.75.75 0 0 0 .75.75h6.5333a.75.75 0 0 0 .75-.75zM5.3333 7.35a.65.65 0 0 1 .65.65v1.3333a.65.65 0 0 1-1.3 0V8a.65.65 0 0 1 .65-.65M8 7.35a.65.65 0 0 1 .65.65v.6667a.65.65 0 1 1-1.3 0V8A.65.65 0 0 1 8 7.35m2.6666 0a.65.65 0 0 1 .65.65v1.3333a.65.65 0 1 1-1.3 0V8a.65.65 0 0 1 .65-.65M8 10.0167a.65.65 0 0 1 .65.65V12a.65.65 0 1 1-1.3 0v-1.3333a.65.65 0 0 1 .65-.65m-2.6667.6666a.65.65 0 0 1 .65.65V12a.65.65 0 1 1-1.3 0v-.6667a.65.65 0 0 1 .65-.65m5.3333 0a.65.65 0 0 1 .65.65V12a.65.65 0 1 1-1.3 0v-.6667a.65.65 0 0 1 .65-.65"/></svg>