<svg xmlns="http://www.w3.org/2000/svg" width="16" height="16" fill="none" viewBox="0 0 16 16"><path fill="#000" fill-rule="evenodd" d="M12.0536 14.4999q-.3624.15-.787.1501H4.7333q-.4245 0-.787-.1501-.3624-.1501-.6626-.4504t-.4503-.6626q-.15-.3623-.1501-.7869V5.5404q0-.2382.0842-.4415.0841-.2032.2526-.3717l3.0405-3.0404q.1683-.1684.3717-.2526t.4414-.0842h4.3929q.4246 0 .787.15.3623.1503.6626.4504t.4503.6626.1501.787v9.2q0 .4246-.1501.7869t-.4503.6626-.6626.4504M4.7333 13.35h6.5333q.1554 0 .2879-.055.1326-.0548.2425-.1647a.75.75 0 0 0 .1647-.2424.75.75 0 0 0 .0549-.2879V3.4q0-.1554-.0549-.288a.75.75 0 0 0-.1647-.2423q-.11-.11-.2425-.1648-.1325-.055-.2879-.055H6.9359L3.9833 5.6026V12.6q0 .1553.0549.2879a.74.74 0 0 0 .1648.2424q.1098.1099.2424.1647.1326.055.2879.055m4.2246-1.9567H7.786V6.0317H7.67l-1.3303.7456v-1.212l1.6404-.9587h.9777z"/></svg>