<svg xmlns="http://www.w3.org/2000/svg" width="16" height="16" fill="none" viewBox="0 0 16 16"><path fill="#000" fill-rule="evenodd" d="M12.0537 14.4999q-.3624.15-.7871.1501H4.7334q-.4247 0-.7871-.1501t-.6626-.4503q-.3-.3003-.4502-.6626l-.0005-.0013q-.1497-.362-.1497-.7857V5.5404q0-.2376.0838-.4405l.0005-.001q.0842-.2032.2527-.3717l3.0403-3.0404q.1685-.1684.3718-.2526t.4414-.0842h4.3928q.4247 0 .7871.15v.0001q.3623.15.6626.4503t.4502.6626q.1502.3624.1502.787v9.2q0 .4238-.1497.7857l-.0005.0013q-.15.3623-.4502.6626t-.6626.4503m-6.2265-3.0486v-.9611L8.142 8.097q.6132-.6415.8166-.9658.2036-.3243.2036-.606 0-.2932-.1347-.4974a.77.77 0 0 0-.1375-.156l-.0095-.0083q-.2709-.2308-.7385-.2308-.4406 0-.7373.2068a1 1 0 0 0-.0674.0513.9.9 0 0 0-.1418.1458q-.178.2301-.2063.5762h-1.212q.0231-.4972.2298-.9003a2 2 0 0 1 .104-.1792 2.04 2.04 0 0 1 .2759-.3398q.235-.2326.5478-.387.5208-.258 1.1885-.258.6793 0 1.1882.2368.4083.19.6675.5033.0638.0772.1184.1619.0431.0663.0796.136.1975.3788.1975.8606 0 .2514-.0627.4862a1.8 1.8 0 0 1-.0794.2334q-.1397.3384-.4546.7409-.3147.4024-.9065 1.0132l-1.2429 1.2806v.1255h2.9378v1.1244z"/></svg>