<svg xmlns="http://www.w3.org/2000/svg" width="16" height="16" fill="none" viewBox="0 0 16 16"><path fill="#000" fill-rule="evenodd" d="M12.0537 14.4999q-.3624.15-.7871.1501H4.7334q-.4247 0-.7871-.1501t-.6626-.4503q-.3-.3003-.4502-.6626l-.0005-.0013q-.1497-.362-.1497-.7857V5.5404q0-.2376.0838-.4405l.0005-.001q.0842-.2032.2527-.3717l3.0403-3.0404q.1685-.1684.3718-.2526t.4414-.0842h4.3928q.4247 0 .7871.15v.0001q.3623.15.6626.4503t.4502.6626q.1502.3624.1502.787v9.2q0 .4238-.1497.7857l-.0005.0013q-.15.3623-.4502.6626t-.6626.4503m-3.0349-3.1065H7.8469V6.0317h-.116l-1.3303.7457v-1.212l1.6404-.9587h.9778z"/></svg>