<svg xmlns="http://www.w3.org/2000/svg" width="16" height="16" fill="none" viewBox="0 0 16 16"><path fill="#000" fill-rule="evenodd" d="M12.0536 14.4999q-.3624.15-.787.1501H4.7333q-.4245 0-.787-.1501-.3624-.1501-.6626-.4504t-.4503-.6626q-.15-.3623-.1501-.7869V5.5404q0-.2382.0842-.4415.0842-.2032.2526-.3717l3.0405-3.0404q.1683-.1684.3717-.2526t.4414-.0842h4.3929q.4246 0 .787.15.3623.1503.6626.4504t.4503.6626.1501.787v9.2q0 .4246-.1501.7869t-.4503.6626-.6626.4504M4.7333 13.35h6.5333q.1554 0 .2879-.055.1326-.0548.2425-.1647a.75.75 0 0 0 .1647-.2424.75.75 0 0 0 .0549-.2879V3.4q0-.1554-.0549-.288a.75.75 0 0 0-.1647-.2423q-.11-.11-.2425-.1648-.1325-.055-.2879-.055H6.9359L3.9833 5.6026V12.6q0 .1553.0549.2879a.75.75 0 0 0 .1648.2424q.1098.1099.2424.1647.1326.055.2879.055m1.0938-1.8987v-.961l2.3152-2.3932q.6131-.6416.8166-.9659t.2036-.606q0-.2932-.1349-.4974a.77.77 0 0 0-.147-.1643q-.2709-.2307-.7383-.2307-.4409 0-.7375.2068a1 1 0 0 0-.0674.0512.9.9 0 0 0-.1418.1459q-.178.23-.2062.576h-1.212q.0231-.4971.2299-.9002a2 2 0 0 1 .104-.1791 2.03 2.03 0 0 1 .2758-.34q.2351-.2326.5479-.3868.5208-.258 1.1883-.258.6794 0 1.1883.2367.4084.19.6674.5033a1.72 1.72 0 0 1 .198.298q.1975.3787.1975.8605 0 .2515-.0626.4862a1.8 1.8 0 0 1-.0794.2334q-.1397.3385-.4545.741t-.9067 1.0131l-1.2427 1.2806v.1255h2.9377v1.1244z"/></svg>