<svg xmlns="http://www.w3.org/2000/svg" width="16" height="16" fill="none" viewBox="0 0 16 16"><path fill="#000" fill-rule="evenodd" d="M13.5452 8.4753h.4536q.4916 0 .7374-.2459.246-.2458.2459-.7375V3.7994a.64.64 0 0 0-.0468-.2422.64.64 0 0 0-.1337-.2073l-1.0203-1.0657-1.0203-1.0658a.64.64 0 0 0-.2142-.1482.64.64 0 0 0-.2553-.0523H9.8764q-.4917 0-.7375.2459-.2459.2458-.2458.7375v.7319q.1473.0468.2922.1006a6.4 6.4 0 0 1 .4349.18l.0012.0006q.2925.1341.5717.2976v-.994h1.4373a1 1 0 0 0-.0008.034v1.3684q0 .2692.1904.4596.1903.1905.4597.1904h1.3683a1 1 0 0 0 .0341-.0009v2.8058h-.394q.1913.6265.2571 1.3M4.7054 14.266q.9675.4007 2.101.4007 1.1337 0 2.1011-.4007.8963-.3713 1.65-1.0863l1.9467 1.9466c.1834.1834.4414.2361.6678.1582q.1384-.0457.2499-.1567l.0015-.0015c.1834-.1834.2361-.4414.1582-.6677q-.0462-.1395-.1582-.2515l-2.0217-2.0217a5.14 5.14 0 0 0 .4772-.8908q.4007-.9675.4008-2.101t-.4008-2.1011-1.2023-1.769q-.8016-.8016-1.769-1.2024-.9675-.4007-2.1011-.4007-1.1335 0-2.101.4007T2.9363 5.3234 1.734 7.0924q-.4008.9677-.4008 2.1011 0 1.1336.4008 2.1011t1.2023 1.7691 1.769 1.2023m3.6769-1.2682q-.7256.3006-1.5758.3006-.8501 0-1.5758-.3006-.7256-.3005-1.3268-.9017-.6012-.601-.9017-1.3268-.3006-.7256-.3006-1.5758 0-.8501.3006-1.5757t.9017-1.3268 1.3268-.9018q.7256-.3005 1.5758-.3005.85 0 1.5758.3005.7256.3006 1.3268.9018.601.601.9017 1.3268.3006.7256.3006 1.5757t-.3006 1.5758-.9017 1.3268-1.3268.9017M5.4294 11.896q-.4916 0-.7374-.2459-.246-.2458-.2459-.7375V7.4744q0-.4916.2459-.7375.2458-.2458.7374-.2458h1.6299q.1371 0 .2625.0554a.64.64 0 0 1 .2178.1567l.7288.7993.7288.7993a.64.64 0 0 1 .1257.203.65.65 0 0 1 .0328.115l.0001.0004a.65.65 0 0 1 .011.1195v2.1729q0 .4917-.2458.7375t-.7375.2459zm1.07-4.1049a1 1 0 0 0-.0008.0341v.6842q0 .2692.1903.4596.1905.1905.4596.1904h.6842a1 1 0 0 0 .0342-.0008v1.4374H5.746V7.7911z"/></svg>