<svg xmlns="http://www.w3.org/2000/svg" width="16" height="16" fill="none" viewBox="0 0 16 16"><path fill="#000" fill-rule="evenodd" d="M14.0231 6.5799a.65.65 0 0 0 .65-.65V1.9902a.648.648 0 0 0-.1903-.473.647.647 0 0 0-.4597-.1905h-3.9532a.65.65 0 1 0 0 1.3h2.3842L8.9417 6.139a.65.65 0 0 0 .9193.9193l3.5121-3.5121v2.3837c0 .359.291.65.65.65m-6.9655 2.362a.65.65 0 0 1 0 .9192l-3.5123 3.5124h2.3842a.65.65 0 1 1 0 1.3H1.9763a.648.648 0 0 1-.4597-.1906.648.648 0 0 1-.1903-.4729v-3.9398a.65.65 0 0 1 1.3 0v2.3838l3.512-3.5121a.65.65 0 0 1 .9193 0"/></svg>