<svg xmlns="http://www.w3.org/2000/svg" width="16" height="16" fill="none" viewBox="0 0 16 16"><path fill="#000" fill-rule="evenodd" d="M2.6834 3.4c0-1.1322.9178-2.05 2.05-2.05h6.5333c1.1322 0 2.05.9178 2.05 2.05v9.2c0 .8801-.5546 1.6306-1.3334 1.9212v.1455a.65.65 0 1 1-1.3 0V14.65H5.3167v.0167a.65.65 0 1 1-1.3 0v-.1455c-.7788-.2906-1.3334-1.0411-1.3334-1.9212zm9.3333 0v4.6167H3.9834V3.4a.75.75 0 0 1 .75-.75h6.5333a.75.75 0 0 1 .75.75M5.3334 5.35a.65.65 0 0 0 0 1.3H6a.65.65 0 1 0 0-1.3zm6.6833 3.9667H3.9834V12.6a.75.75 0 0 0 .75.75h6.5333a.75.75 0 0 0 .75-.75zm-6.6833 1.3666a.65.65 0 1 0 0 1.3H6a.65.65 0 1 0 0-1.3z"/></svg>