<svg width="16" height="16" viewBox="0 0 16 16" fill="none" xmlns="http://www.w3.org/2000/svg">
<path d="M5.71485 7.09573C5.79664 7.0169 6.13608 6.72883 6.6478 6.72883C7.15952 6.72883 7.49895 7.0169 7.58075 7.09573C7.83922 7.34485 8.25071 7.33726 8.49983 7.07879C8.74895 6.82031 8.74137 6.40883 8.48289 6.15971C8.29821 5.98171 7.64956 5.42883 6.6478 5.42883C5.64604 5.42883 4.99739 5.98171 4.81271 6.15971C4.55423 6.40883 4.54665 6.82031 4.79576 7.07879C5.04488 7.33726 5.45637 7.34485 5.71485 7.09573Z" fill="black"/>
<path d="M4.46769 5.52901C4.60063 5.40714 5.40091 4.73013 6.66687 4.73013C7.93283 4.73013 8.73311 5.40714 8.86605 5.52901C9.13067 5.77159 9.54184 5.75372 9.78442 5.4891C10.027 5.22448 10.0091 4.81331 9.74451 4.57073C9.50373 4.35 8.40115 3.43013 6.66687 3.43013C4.93259 3.43013 3.83 4.35 3.58922 4.57073C3.3246 4.81331 3.30673 5.22448 3.54931 5.4891C3.7919 5.75372 4.20307 5.77159 4.46769 5.52901Z" fill="black"/>
<path fill-rule="evenodd" clip-rule="evenodd" d="M3.4001 1.34998C2.26791 1.34998 1.3501 2.26779 1.3501 3.39997V12.6C1.3501 13.7322 2.26791 14.65 3.4001 14.65H9.93343C11.0656 14.65 11.9834 13.7322 11.9834 12.6V11.9833H12.6667C13.7621 11.9833 14.6501 11.0953 14.6501 9.99998C14.6501 8.90461 13.7621 8.01664 12.6667 8.01664H11.9834V3.39998C11.9834 2.26779 11.0656 1.34998 9.93343 1.34998H3.4001ZM6.00008 11.9833H10.6834V12.6C10.6834 13.0142 10.3476 13.35 9.93343 13.35H3.4001C2.98588 13.35 2.6501 13.0142 2.6501 12.6V3.39997C2.6501 2.98576 2.98588 2.64998 3.4001 2.64998H9.93343C10.3476 2.64998 10.6834 2.98576 10.6834 3.39998V8.01664H6.00008C4.90472 8.01664 4.01675 8.90461 4.01675 9.99998C4.01675 11.0953 4.90471 11.9833 6.00008 11.9833ZM6.00008 9.31665C5.62269 9.31665 5.31675 9.62258 5.31675 9.99998C5.31675 10.3774 5.62269 10.6833 6.00008 10.6833H12.6667C13.0441 10.6833 13.3501 10.3774 13.3501 9.99998C13.3501 9.62258 13.0441 9.31665 12.6667 9.31665H6.00008Z" fill="black"/>
</svg>
