<svg width="16" height="16" viewBox="0 0 16 16" fill="none" xmlns="http://www.w3.org/2000/svg">
<path d="M8.00024 10.6666C8.73662 10.6666 9.33357 10.0697 9.33357 9.33331C9.33357 8.59693 8.73662 7.99998 8.00024 7.99998C7.26386 7.99998 6.66691 8.59693 6.66691 9.33331C6.66691 10.0697 7.26386 10.6666 8.00024 10.6666Z" fill="black"/>
<path fill-rule="evenodd" clip-rule="evenodd" d="M4.68359 9.33331C4.68359 7.50157 6.16852 6.01664 8.00026 6.01664C9.83201 6.01664 11.3169 7.50157 11.3169 9.33331C11.3169 11.1651 9.83201 12.65 8.00026 12.65C6.16852 12.65 4.68359 11.1651 4.68359 9.33331ZM8.00026 7.31664C6.88649 7.31664 5.98359 8.21954 5.98359 9.33331C5.98359 10.4471 6.88649 11.35 8.00026 11.35C9.11403 11.35 10.0169 10.4471 10.0169 9.33331C10.0169 8.21954 9.11403 7.31664 8.00026 7.31664Z" fill="black"/>
<path fill-rule="evenodd" clip-rule="evenodd" d="M4.53359 1.34998C3.51187 1.34998 2.68359 2.17825 2.68359 3.19998V12.8C2.68359 13.8217 3.51186 14.65 4.53359 14.65H11.4669C12.4887 14.65 13.3169 13.8217 13.3169 12.8V3.19998C13.3169 2.17825 12.4887 1.34998 11.4669 1.34998H4.53359ZM12.0169 4.01664V3.19998C12.0169 2.89622 11.7707 2.64998 11.4669 2.64998H4.53359C4.22984 2.64998 3.98359 2.89622 3.98359 3.19998V4.01664H12.0169ZM3.98359 5.31664H12.0169V12.8C12.0169 13.1037 11.7707 13.35 11.4669 13.35H4.53359C4.22984 13.35 3.98359 13.1037 3.98359 12.8V5.31664Z" fill="black"/>
</svg>
