<svg xmlns="http://www.w3.org/2000/svg" width="16" height="16" fill="none" viewBox="0 0 16 16"><path fill="#000" fill-rule="evenodd" d="M6 .6834a.65.65 0 0 1 .65.65v1.35h2.7v-1.35a.65.65 0 0 1 1.3 0v1.35h.8166c1.0217 0 1.85.8282 1.85 1.85v3c0 2.4576-1.9923 4.4499-4.45 4.4499H8.65V14a.65.65 0 1 1-1.3 0v-2.0167h-.2167c-2.4577 0-4.45-1.9923-4.45-4.45v-3c0-1.0217.8283-1.85 1.85-1.85H5.35v-1.35a.65.65 0 0 1 .65-.65m0 3.3H4.5333a.55.55 0 0 0-.55.55v3c0 1.7396 1.4103 3.1499 3.15 3.1499h1.7333c1.7397 0 3.15-1.4102 3.15-3.15v-3a.55.55 0 0 0-.55-.55zm-.1955 3.5033c.1452-.132.9421-.7955 2.1954-.7955s2.0503.6635 2.1955.7954a.65.65 0 0 0 .8744-.962c-.2546-.2314-1.3525-1.1335-3.0699-1.1335s-2.8152.9021-3.0698 1.1336a.65.65 0 1 0 .8744.962m2.1764 1.2032c-.5182 0-.8596.2954-.9352.369a.65.65 0 1 1-.907-.9313c.1763-.1717.8285-.7377 1.8422-.7377s1.6658.566 1.8422.7377a.65.65 0 1 1-.907.9313c-.0756-.0736-.417-.369-.9352-.369"/></svg>