<svg xmlns="http://www.w3.org/2000/svg" width="16" height="16" fill="none" viewBox="0 0 16 16"><path fill="#000" fill-rule="evenodd" d="M2.6834 3.2c0-1.0217.8282-1.85 1.85-1.85h6.9333c1.0217 0 1.85.8283 1.85 1.85v9.6c0 1.0217-.8283 1.85-1.85 1.85H4.5334c-1.0218 0-1.85-.8283-1.85-1.85zm9.3333 0v.8167H3.9834V3.2a.55.55 0 0 1 .55-.55h6.9333a.55.55 0 0 1 .55.55m0 2.1167H3.9834V12.8a.55.55 0 0 0 .55.55h6.9333a.55.55 0 0 0 .55-.55zM4.6834 9.3333c0-1.8317 1.4849-3.3166 3.3166-3.3166s3.3167 1.485 3.3167 3.3166c0 1.8318-1.485 3.3167-3.3167 3.3167s-3.3166-1.4849-3.3166-3.3167M8 7.3167c-1.1137 0-2.0167.9029-2.0167 2.0166S6.8864 11.35 8 11.35s2.0167-.9029 2.0167-2.0167c0-1.1137-.903-2.0166-2.0167-2.0166m0 3.35c.7364 0 1.3333-.597 1.3333-1.3334S8.7363 8 8 8c-.7364 0-1.3333.597-1.3333 1.3333 0 .7364.597 1.3334 1.3333 1.3334"/></svg>