<svg width="16" height="16" viewBox="0 0 16 16" fill="none" xmlns="http://www.w3.org/2000/svg">
<path d="M1.75409 7.49515L2.01646 7.27213V11.1999C2.01646 12.553 3.11337 13.6499 4.46646 13.6499H7.46675C7.18645 13.2634 6.97445 12.8242 6.84849 12.3499H4.46646C3.83134 12.3499 3.31646 11.835 3.31646 11.1999V6.16713L7.12546 2.92949C7.62959 2.50098 8.36998 2.50098 8.87411 2.92949L12.6831 6.16715V7.93614C13.2068 8.24767 13.6522 8.67681 13.9831 9.18715V7.27215L14.2455 7.49515C14.519 7.72765 14.9292 7.69439 15.1617 7.42086C15.3942 7.14734 15.3609 6.73713 15.0874 6.50463L9.71605 1.93897C8.72647 1.09782 7.2731 1.09782 6.28352 1.93897L0.912147 6.50463C0.638622 6.73713 0.605362 7.14734 0.837858 7.42086C1.07035 7.69439 1.48057 7.72765 1.75409 7.49515Z" fill="black"/>
<path d="M11.2496 7.42599C11.0593 7.39783 10.8646 7.38324 10.6664 7.38324C10.4108 7.38324 10.1608 7.40753 9.91863 7.45393C9.61881 7.1439 8.99164 6.65986 7.99979 6.65986C6.7276 6.65986 6.05536 7.4562 5.90432 7.66024C5.69074 7.94878 5.28369 8.00954 4.99516 7.79596C4.70662 7.58237 4.64586 7.17532 4.85945 6.88679C5.1143 6.5425 6.12496 5.35986 7.99979 5.35986C9.87461 5.35986 10.8853 6.5425 11.1401 6.88679C11.2592 7.0477 11.293 7.24547 11.2496 7.42599Z" fill="black"/>
<path d="M7.72763 8.69387C8.124 8.25283 8.61822 7.9015 9.17612 7.67405C8.88221 7.5009 8.49178 7.35986 7.99979 7.35986C6.9871 7.35986 6.40472 7.95737 6.20871 8.2026C5.98458 8.48302 6.03022 8.89204 6.31064 9.11617C6.59106 9.3403 7.00008 9.29467 7.22421 9.01425C7.28287 8.94085 7.44575 8.76749 7.72763 8.69387Z" fill="black"/>
<path fill-rule="evenodd" clip-rule="evenodd" d="M8.01645 11.3333C8.01645 9.86973 9.20289 8.68329 10.6664 8.68329C12.13 8.68329 13.3164 9.86973 13.3164 11.3333C13.3164 11.8294 13.1801 12.2936 12.9429 12.6906L14.1261 13.8737C14.3799 14.1275 14.3799 14.5391 14.1261 14.7929C13.8722 15.0468 13.4607 15.0468 13.2068 14.7929L12.0237 13.6098C11.6267 13.847 11.1625 13.9833 10.6664 13.9833C9.20289 13.9833 8.01645 12.7968 8.01645 11.3333ZM10.6664 9.98329C9.92087 9.98329 9.31645 10.5877 9.31645 11.3333C9.31645 12.0789 9.92087 12.6833 10.6664 12.6833C11.412 12.6833 12.0164 12.0789 12.0164 11.3333C12.0164 10.5877 11.412 9.98329 10.6664 9.98329Z" fill="black"/>
</svg>
