<svg xmlns="http://www.w3.org/2000/svg" width="16" height="16" fill="none" viewBox="0 0 16 16"><path fill="#000" fill-rule="evenodd" d="M6.1262 2.1253c1.0349-1.0349 2.7128-1.0349 3.7477 0l4.0008 4.0008c1.0349 1.035 1.0349 2.7128 0 3.7477l-4.0008 4.0008c-1.035 1.0349-2.7128 1.0349-3.7477 0L2.1253 9.8738c-1.0348-1.0349-1.0348-2.7128 0-3.7477zm2.8284.9192c-.5272-.5272-1.382-.5272-1.9092 0L3.0446 7.0454c-.5272.5272-.5272 1.382 0 1.9092l4.0008 4.0008c.5272.5272 1.382.5272 1.9092 0l4.0009-4.0008c.5272-.5272.5272-1.382 0-1.9092zM9 5c0 .5523-.4477 1-1 1s-1-.4477-1-1 .4477-1 1-1 1 .4477 1 1"/></svg>