<svg width="16" height="16" viewBox="0 0 16 16" fill="none" xmlns="http://www.w3.org/2000/svg">
<path d="M5.78942 3.50212L5.78749 3.50406L5.78861 3.503L5.78674 3.50481C5.53391 3.75686 5.12464 3.75789 4.87057 3.50633C4.62503 3.26323 4.61392 2.87284 4.83865 2.61644C5.09502 2.35687 5.40308 2.14761 5.72203 1.9732C6.25281 1.68295 7.0276 1.39258 8.00017 1.39258C8.97274 1.39258 9.74753 1.68295 10.2783 1.9732C10.5853 2.14107 10.9437 2.35437 11.1725 2.62904C11.386 2.88549 11.3713 3.26718 11.1298 3.50633C10.8856 3.74806 10.4981 3.75656 10.2439 3.53319C10.0608 3.37232 9.86952 3.23133 9.65459 3.1138C9.26933 2.90313 8.70798 2.69258 8.00017 2.69258C7.29236 2.69258 6.73101 2.90313 6.34575 3.1138C6.00907 3.29791 5.81121 3.4814 5.78861 3.503L5.78942 3.50212Z" fill="black"/>
<path d="M8.03624 4.6924C8.00008 4.69095 7.96186 4.69095 7.9257 4.6924C7.41634 4.71282 7.08908 5.01654 7.04003 5.06606C6.78738 5.32109 6.37583 5.32303 6.1208 5.07038C5.86577 4.81774 5.86383 4.40618 6.11648 4.15115C6.25742 4.00888 6.88024 3.43327 7.87363 3.39345C7.94448 3.39061 8.01746 3.39061 8.08832 3.39345C9.0817 3.43327 9.70452 4.00888 9.84546 4.15115C10.0981 4.40618 10.0962 4.81774 9.84114 5.07038C9.58611 5.32303 9.17456 5.32109 8.92191 5.06606C8.87286 5.01654 8.5456 4.71282 8.03624 4.6924Z" fill="black"/>
<path d="M8.85834 6.35394C8.85834 6.82788 8.47413 7.21209 8.00018 7.21209C7.52624 7.21209 7.14203 6.82788 7.14203 6.35394C7.14203 5.87999 7.52624 5.49578 8.00018 5.49578C8.47413 5.49578 8.85834 5.87999 8.85834 6.35394Z" fill="black"/>
<path fill-rule="evenodd" clip-rule="evenodd" d="M13.3501 8.66656C13.3501 7.11523 12.6898 5.71812 11.635 4.74093C11.7812 4.6578 11.9191 4.55421 12.0444 4.43014C12.2435 4.233 12.3912 4.00368 12.4875 3.75878C13.8165 4.97466 14.6501 6.72327 14.6501 8.66656C14.6501 12.3393 11.6728 15.3166 8.0001 15.3166C4.3274 15.3166 1.3501 12.3393 1.3501 8.66656C1.3501 6.72322 2.18369 4.97457 3.51282 3.75868C3.60907 4.00364 3.75679 4.23299 3.95592 4.43014C4.08119 4.55418 4.21905 4.65774 4.36532 4.74086C3.31041 5.71806 2.6501 7.1152 2.6501 8.66656C2.6501 10.1599 3.26193 11.5103 4.24858 12.4808L4.33976 12.1631C4.59198 11.2841 5.39583 10.6785 6.31024 10.6785H9.58412C10.4568 10.6785 11.2338 11.2309 11.5204 12.0552L11.6894 12.5411C12.7125 11.5666 13.3501 10.191 13.3501 8.66656ZM5.36001 13.3208C6.13898 13.7637 7.04 14.0166 8.0001 14.0166C8.94099 14.0166 9.82516 13.7737 10.5933 13.3472L10.2925 12.4822C10.1876 12.1806 9.90338 11.9785 9.58412 11.9785H6.31024C5.9757 11.9785 5.68161 12.2001 5.58934 12.5216L5.36001 13.3208Z" fill="black"/>
</svg>
