<svg xmlns="http://www.w3.org/2000/svg" width="16" height="16" fill="none" viewBox="0 0 16 16"><path fill="#000" fill-rule="evenodd" d="M4.1362 3.4955c.144-.111 1.572-1.1627 3.8637-1.1627s3.7197 1.0517 3.8637 1.1627a.65.65 0 0 0 .7937-1.0296c-.2629-.2027-1.9665-1.433-4.6574-1.433s-4.3945 1.2303-4.6574 1.433a.65.65 0 1 0 .7937 1.0296M8 5.1465c-1.042 0-1.6978.4638-1.78.5256a.65.65 0 0 1-.7802-1.04C5.6443 4.4789 6.5706 3.8466 8 3.8466s2.3557.6323 2.5602.7857A.6501.6501 0 0 1 9.78 5.672c-.0823-.0618-.738-.5256-1.78-.5256m-.5085 1.8482a.65.65 0 0 1 .967.013l.0008.001.0018.002.0061.0072.0226.026a20 20 0 0 1 .3713.448c.2378.2955.5561.7068.8758 1.1674.3182.4583.6465.9781.8977 1.4892.2424.493.4523 1.0547.4523 1.5748 0 1.7992-1.4078 3.2619-3.1178 3.2619-1.7282 0-3.0561-1.4666-3.0561-3.2619 0-.5597.1955-1.1396.4375-1.6553.2468-.5261.5697-1.0429.8825-1.491.3143-.4502.627-.8437.8608-1.124a16 16 0 0 1 .2845-.3322c.0347-.0393.0622-.07.0815-.0914l.0225-.0247.0063-.007zm.4682 1.452a15.3 15.3 0 0 0-.6607.8743c-.2887.4136-.5673.8638-.7716 1.2992-.2092.4458-.3144.8222-.3144 1.1031 0 1.1661.8315 1.9619 1.756 1.9619.943 0 1.8179-.8305 1.8179-1.9619 0-.2125-.0986-.553-.319-1.0014-.2115-.4302-.5-.8908-.7989-1.3213a19.4 19.4 0 0 0-.7093-.954"/></svg>