<svg xmlns="http://www.w3.org/2000/svg" width="16" height="16" fill="none" viewBox="0 0 16 16"><path fill="#000" fill-rule="evenodd" d="M7 1.35c-.9113 0-1.65.7387-1.65 1.65v1.047c-.7598.1477-1.3333.8167-1.3333 1.6197v4.6666c0 .803.5735 1.472 1.3333 1.6197V13c0 .9113.7387 1.65 1.65 1.65h2c.9113 0 1.65-.7387 1.65-1.65v-1.047c.7598-.1477 1.3333-.8167 1.3333-1.6197V7.3167H12a.65.65 0 1 0 0-1.3h-.0167v-.35c0-.803-.5735-1.472-1.3333-1.6197V3c0-.9113-.7387-1.65-1.65-1.65zm2.35 2.6667h-2.7V3A.35.35 0 0 1 7 2.65h2a.35.35 0 0 1 .35.35zM6.65 13v-1.0167h2.7V13a.35.35 0 0 1-.35.35H7a.35.35 0 0 1-.35-.35m-.9833-7.6833a.35.35 0 0 0-.35.35v4.6666a.35.35 0 0 0 .35.35h4.6666a.35.35 0 0 0 .35-.35V5.6667a.35.35 0 0 0-.35-.35z"/></svg>