<svg xmlns="http://www.w3.org/2000/svg" width="16" height="16" fill="none" viewBox="0 0 16 16"><path fill="#000" fill-rule="evenodd" d="M3.6213 2.1261A2.65 2.65 0 0 1 5.495 1.35H6a.651.651 0 0 1 .5795.3557l.0004.0009.0006.0011.0008.0014q.0035.0069.0142.0257a2 2 0 0 0 .0702.113 2.4 2.4 0 0 0 .2938.3592c.2625.2625.607.4763 1.0404.4763s.778-.2138 1.0404-.4763a2.4 2.4 0 0 0 .2938-.3592 2 2 0 0 0 .0847-.139l.0016-.0031A.65.65 0 0 1 10 1.35h.5049a2.65 2.65 0 0 1 1.8738.7761l2.7476 2.7476a.65.65 0 0 1 0 .9192l-2 2a.65.65 0 0 1-.9192 0l-.2238-.2237v6.7816a.65.65 0 0 1-.65.65H4.6667a.65.65 0 0 1-.65-.65V7.5692l-.2237.2237a.65.65 0 0 1-.9193 0l-2-2a.65.65 0 0 1 0-.9192zm6.7389.5239a3.7 3.7 0 0 1-.4006.4763c-.4041.4041-1.0597.857-1.9596.857s-1.5554-.4529-1.9596-.857a3.7 3.7 0 0 1-.4005-.4763H5.495a1.35 1.35 0 0 0-.9546.3954l-2.288 2.288 1.081 1.0806.8738-.8737A.65.65 0 0 1 5.3167 6v7.7008h5.3666V6a.65.65 0 0 1 1.1097-.4596l.8737.8737 1.0807-1.0808-2.2879-2.288a1.35 1.35 0 0 0-.9546-.3953zM6.0167 7.3333C6.0167 6.238 6.9047 5.35 8 5.35s1.9833.888 1.9833 1.9833S9.0953 9.3166 8 9.3166s-1.9833-.888-1.9833-1.9833M8 6.65a.6833.6833 0 1 0 0 1.3666A.6833.6833 0 0 0 8 6.65"/></svg>