<svg xmlns="http://www.w3.org/2000/svg" width="16" height="16" fill="none" viewBox="0 0 16 16"><path fill="#000" fill-rule="evenodd" d="M8.6375 1.6248a.6375.6375 0 1 1-1.275 0 .6375.6375 0 0 1 1.275 0m4.4627 1.9125a.6376.6376 0 1 1-1.2751 0 .6376.6376 0 0 1 1.2751 0m-9.5629.6376a.6375.6375 0 1 0 0-1.2751.6375.6375 0 0 0 0 1.275M12 13.0909v-5.091c0-2.209-1.7909-4-4-4S4 5.791 4 8v5.091a.909.909 0 0 0 .909.909h6.1819A.909.909 0 0 0 12 13.0909M10.7 12.7V8c0-1.4912-1.2088-2.7-2.7-2.7S5.3 6.5088 5.3 8v4.7zM2.2623 7.3625a.6375.6375 0 1 1-1.275 0 .6375.6375 0 0 1 1.275 0M14.3752 8a.6375.6375 0 1 0 0-1.275.6375.6375 0 0 0 0 1.275M7.65 8.5a.65.65 0 0 0-1.3 0v3a.65.65 0 1 0 1.3 0z"/></svg>