<svg xmlns="http://www.w3.org/2000/svg" width="16" height="16" fill="none" viewBox="0 0 16 16"><path fill="#000" fill-rule="evenodd" d="m2.0167 7.2722-.2624.223a.65.65 0 1 1-.842-.9905L6.2839 1.939c.9895-.8411 2.443-.8411 3.4325 0l5.3714 4.5657a.65.65 0 0 1-.842.9905l-.2623-.223v1.915a3.97 3.97 0 0 0-1.3-1.251v-1.769l-3.809-3.2377a1.35 1.35 0 0 0-1.7487 0l-3.809 3.2377v5.0327c0 .6352.5149 1.15 1.15 1.15h2.382c.126.4743.338.9136.6183 1.3H4.4667c-1.353 0-2.45-1.0969-2.45-2.45zm8.65.1111a4 4 0 0 1 .5831.0427.649.649 0 0 0-.1094-.5392C10.8855 6.5427 9.8749 5.36 8 5.36S5.1146 6.5426 4.8597 6.887a.65.65 0 0 0 1.0449.7734C6.0556 7.4563 6.7278 6.66 8 6.66c.9919 0 1.619.484 1.9189.794a3.97 3.97 0 0 1 .7478-.0706m-1.4903.2908A3.96 3.96 0 0 0 7.7279 8.694c-.282.0737-.4448.247-.5034.3204a.65.65 0 1 1-1.0156-.8116A2.28 2.28 0 0 1 8 7.3599c.492 0 .8825.141 1.1764.3142m-1.1597 3.6592c0-1.4635 1.1864-2.65 2.65-2.65s2.65 1.1865 2.65 2.65c0 .4961-.1363.9603-.3735 1.3573l1.1831 1.1831a.65.65 0 0 1-.9192.9193l-1.1832-1.1831a2.64 2.64 0 0 1-1.3572.3734c-1.4636 0-2.65-1.1864-2.65-2.65m2.65-1.35c-.7456 0-1.35.6045-1.35 1.35s.6044 1.35 1.35 1.35 1.35-.6044 1.35-1.35-.6044-1.35-1.35-1.35"/></svg>