<svg xmlns="http://www.w3.org/2000/svg" width="16" height="16" fill="none" viewBox="0 0 16 16"><path fill="#000" fill-rule="evenodd" d="M1.35 3.4c0-1.1322.9178-2.05 2.05-2.05h6.5333c1.1322 0 2.05.9178 2.05 2.05v4.6167h.6833c1.0954 0 1.9834.888 1.9834 1.9833s-.888 1.9833-1.9834 1.9833h-.6833V12.6c0 1.1322-.9178 2.05-2.05 2.05H3.4c-1.1322 0-2.05-.9178-2.05-2.05zm9.3333 8.5833H6c-1.0954 0-1.9834-.8879-1.9834-1.9833 0-1.0953.888-1.9833 1.9834-1.9833h4.6833V3.4a.75.75 0 0 0-.75-.75H3.4a.75.75 0 0 0-.75.75v9.2a.75.75 0 0 0 .75.75h6.5333a.75.75 0 0 0 .75-.75zM4.4676 5.5291c.1329-.122.9332-.799 2.1991-.799s2.0663.677 2.1992.799a.65.65 0 0 0 .8785-.9583C9.5036 4.35 8.401 3.4302 6.6667 3.4302c-1.7342 0-2.8368.9198-3.0776 1.1406a.65.65 0 0 0 .8785.9582m1.2471 1.5667c.0818-.0789.4213-.367.933-.367s.8511.2881.933.367a.65.65 0 0 0 .902-.936c-.1846-.178-.8333-.731-1.835-.731s-1.6504.553-1.8351.731a.65.65 0 0 0 .9021.936M5.3167 10A.6833.6833 0 0 1 6 9.3167h6.6666a.6834.6834 0 1 1 0 1.3666H6A.6833.6833 0 0 1 5.3166 10"/></svg>