<svg xmlns="http://www.w3.org/2000/svg" width="16" height="16" fill="none" viewBox="0 0 16 16"><path fill="#000" fill-rule="evenodd" d="M3.4648 3.309a.65.65 0 0 1 .0915-.9146c.229.28.3054.3731.3056.373.0002-.0002-.3048-.3737-.3048-.3737l.001-.0009.0025-.002.0066-.0053.02-.0157a3 3 0 0 1 .067-.0503 4.7 4.7 0 0 1 .239-.163c.205-.1312.5014-.3021.8813-.4718.7598-.3394 1.8582-.6758 3.2255-.6758s2.4657.3364 3.2255.6758c.3799.1696.6763.3406.8814.4719.1026.0657.1826.1217.239.163a3 3 0 0 1 .0668.0502l.0201.0157.0066.0053.0024.002.0011.0009.0008.0007a.65.65 0 0 1-.821 1.0078l-.0064-.005a2 2 0 0 0-.0378-.0283 3.5 3.5 0 0 0-.1728-.1176c-.1576-.101-.397-.2397-.7103-.3796-.6267-.28-1.5444-.5628-2.6954-.5628s-2.0687.2829-2.6954.5628c-.3134.14-.5528.2787-.7103.3796a3.4 3.4 0 0 0-.1728.1176 2 2 0 0 0-.0378.0284l-.0064.005a.65.65 0 0 1-.9125-.0933m2.0586 1.13a.65.65 0 0 0 .8189 1.0096l.0122-.0092c.0136-.01.038-.0271.0724-.0492a2.5 2.5 0 0 1 .322-.1719c.2885-.1288.7144-.2606 1.2511-.2606s.9626.1318 1.2511.2606c.1443.0645.253.1277.322.172.0345.022.0588.0392.0724.0491l.0123.0091a.65.65 0 0 0 .9103-.095.65.65 0 0 0-.0914-.9146l-.0009-.0007-.0009-.0007-.002-.0017-.005-.004-.0136-.0107a2 2 0 0 0-.0414-.031 2.7 2.7 0 0 0-.1385-.0945 3.8 3.8 0 0 0-.4931-.2643C9.3597 3.843 8.753 3.6577 8 3.6577s-1.3596.1853-1.7812.3736a3.76 3.76 0 0 0-.4931.2643 2.7 2.7 0 0 0-.1386.0944 2 2 0 0 0-.0413.0312l-.0136.0106-.005.004-.002.0017-.001.0007s.305.3736.3048.3738c-.0001 0-.0766-.0932-.3056-.373M3 9c0-1.1045.8954-2 2-2h6c1.1046 0 2 .8955 2 2v3c0 1.1046-.8954 2-2 2H5c-1.1046 0-2-.8954-2-2zm2-.7h6a.7.7 0 0 1 .7.7v3a.7.7 0 0 1-.7.7H5a.7.7 0 0 1-.7-.7V9a.7.7 0 0 1 .7-.7M8 12c.5523 0 1-.4477 1-1s-.4477-1-1-1-1 .4477-1 1 .4477 1 1 1"/></svg>