<svg width="16" height="16" viewBox="0 0 16 16" fill="none" xmlns="http://www.w3.org/2000/svg">
<path d="M8.00007 2.26235C8.35217 2.26235 8.63759 1.97692 8.63759 1.62483C8.63759 1.27273 8.35217 0.987305 8.00007 0.987305C7.64798 0.987305 7.36255 1.27273 7.36255 1.62483C7.36255 1.97692 7.64798 2.26235 8.00007 2.26235Z" fill="black"/>
<path d="M12.4627 4.17492C12.8148 4.17492 13.1002 3.88949 13.1002 3.53739C13.1002 3.1853 12.8148 2.89987 12.4627 2.89987C12.1106 2.89987 11.8252 3.1853 11.8252 3.53739C11.8252 3.88949 12.1106 4.17492 12.4627 4.17492Z" fill="black"/>
<path d="M7.00006 7.85005C7.35905 7.85005 7.65006 8.14106 7.65006 8.50005V11.5C7.65006 11.859 7.35905 12.15 7.00006 12.15C6.64108 12.15 6.35006 11.859 6.35006 11.5V8.50005C6.35006 8.14106 6.64108 7.85005 7.00006 7.85005Z" fill="black"/>
<path fill-rule="evenodd" clip-rule="evenodd" d="M12.0001 13.091V8.00005C12.0001 5.79091 10.2092 4.00005 8.00006 4.00005C5.79092 4.00005 4.00006 5.79091 4.00006 8.00005V13.091C4.00006 13.593 4.40707 14 4.90915 14H11.091C11.593 14 12.0001 13.593 12.0001 13.091ZM10.7001 12.7V8.00005C10.7001 6.50888 9.49123 5.30005 8.00006 5.30005C6.50889 5.30005 5.30006 6.50888 5.30006 8.00005V12.7H10.7001Z" fill="black"/>
<path d="M1.62483 8.00005C1.97692 8.00005 2.26235 7.71462 2.26235 7.36253C2.26235 7.01043 1.97692 6.72501 1.62483 6.72501C1.27273 6.72501 0.987305 7.01043 0.987305 7.36253C0.987305 7.71462 1.27273 8.00005 1.62483 8.00005Z" fill="black"/>
<path d="M15.0128 7.36253C15.0128 7.71462 14.7274 8.00005 14.3753 8.00005C14.0232 8.00005 13.7378 7.71462 13.7378 7.36253C13.7378 7.01043 14.0232 6.72501 14.3753 6.72501C14.7274 6.72501 15.0128 7.01043 15.0128 7.36253Z" fill="black"/>
<path d="M4.17492 3.53739C4.17492 3.88949 3.88949 4.17492 3.53739 4.17492C3.1853 4.17492 2.89987 3.88949 2.89987 3.53739C2.89987 3.1853 3.1853 2.89987 3.53739 2.89987C3.88949 2.89987 4.17492 3.1853 4.17492 3.53739Z" fill="black"/>
</svg>
