<svg xmlns="http://www.w3.org/2000/svg" width="16" height="16" fill="none" viewBox="0 0 16 16"><path fill="#000" fill-rule="evenodd" d="M3.4 1.35c-1.1322 0-2.05.9178-2.05 2.05v.5333c0 .9342.6249 1.7224 1.4794 1.9696l.9507 2.3765a1.65 1.65 0 0 0 1.532 1.0372h5.3125a1.65 1.65 0 0 0 1.532-1.0372l.943-2.3574c.8907-.223 1.5504-1.0288 1.5504-1.9887V3.4c0-1.1322-.9178-2.05-2.05-2.05zm5.903 3.3333H3.4a.75.75 0 0 1-.75-.75V3.4a.75.75 0 0 1 .75-.75h9.2a.75.75 0 0 1 .75.75v.5333a.75.75 0 0 1-.75.75zm-3.318 1.3H4.2617l.7254 1.8133a.35.35 0 0 0 .325.22h.673zm1.3 0h1.3667v2.0333H7.285zm4.3899 0H9.9517v2.0333h.6729a.35.35 0 0 0 .325-.22zm-4.4415 3.913a.5.5 0 0 1 .5.5001v.1977h2.7808c.7435 0 1.3462.6027 1.3462 1.3462 0 .7434-.6027 1.3461-1.3462 1.3461H5.4148a.3388.3388 0 0 0 0 .6775h4.0899a.5.5 0 0 1 0 1H5.4148c-.7393 0-1.3387-.5993-1.3387-1.3387s.5994-1.3388 1.3387-1.3388h5.0994a.3462.3462 0 1 0 0-.6923H7.2334a.5.5 0 0 1-.5-.5v-.6977a.5.5 0 0 1 .5-.5"/></svg>