<svg width="16" height="16" viewBox="0 0 16 16" fill="none" xmlns="http://www.w3.org/2000/svg">
<path d="M4.66774 5.66954C5.03593 5.66954 5.33441 5.37106 5.33441 5.00287C5.33441 4.63468 5.03593 4.3362 4.66774 4.3362C4.29955 4.3362 4.00107 4.63468 4.00107 5.00287C4.00107 5.37106 4.29955 5.66954 4.66774 5.66954Z" fill="black"/>
<path d="M8.66775 5.00287C8.66775 5.37106 8.36927 5.66954 8.00108 5.66954C7.63289 5.66954 7.33442 5.37106 7.33442 5.00287C7.33442 4.63468 7.63289 4.3362 8.00108 4.3362C8.36927 4.3362 8.66775 4.63468 8.66775 5.00287Z" fill="black"/>
<path d="M11.3344 5.66954C11.7026 5.66954 12.0011 5.37106 12.0011 5.00287C12.0011 4.63468 11.7026 4.3362 11.3344 4.3362C10.9662 4.3362 10.6678 4.63468 10.6678 5.00287C10.6678 5.37106 10.9662 5.66954 11.3344 5.66954Z" fill="black"/>
<path fill-rule="evenodd" clip-rule="evenodd" d="M1.00244 3.65195C1.00244 2.74068 1.74117 2.00195 2.65244 2.00195H13.3497C14.261 2.00195 14.9997 2.74068 14.9997 3.65195V6.3538C14.9997 6.38425 14.9989 6.41451 14.9973 6.44455C14.9987 6.46112 14.9995 6.47786 14.9996 6.49475L15.0227 9.32773C15.0347 10.7997 13.8448 11.9993 12.3728 11.9993H8.00042C7.76982 13.1403 6.7615 13.9993 5.55254 13.9993H3.62972C3.27074 13.9993 2.97972 13.7083 2.97972 13.3493V13.1519H1.65244C1.29346 13.1519 1.00244 12.8609 1.00244 12.5019C1.00244 12.1429 1.29346 11.8519 1.65244 11.8519H2.97972V11.1519H1.65244C1.29346 11.1519 1.00244 10.8609 1.00244 10.5019C1.00244 10.1429 1.29346 9.85193 1.65244 9.85193H2.97972V9.65452C2.97972 9.29553 3.27074 9.00452 3.62972 9.00452H5.55254C6.65107 9.00452 7.58393 9.71378 7.9182 10.6993H12.3728C13.1227 10.6993 13.7289 10.0882 13.7227 9.33833L13.7115 7.96401C13.5951 7.99005 13.474 8.0038 13.3497 8.0038H2.65244C1.74117 8.0038 1.00244 7.26507 1.00244 6.3538V3.65195ZM4.27972 12.6993V10.3045H5.55254C6.21385 10.3045 6.74995 10.8406 6.74995 11.5019C6.74995 12.1632 6.21385 12.6993 5.55254 12.6993H4.27972ZM2.65244 3.30195C2.45914 3.30195 2.30244 3.45865 2.30244 3.65195V6.3538C2.30244 6.5471 2.45914 6.7038 2.65244 6.7038H13.3497C13.543 6.7038 13.6997 6.5471 13.6997 6.3538V3.65195C13.6997 3.45865 13.543 3.30195 13.3497 3.30195H2.65244Z" fill="black"/>
</svg>
