<svg width="16" height="16" viewBox="0 0 16 16" fill="none" xmlns="http://www.w3.org/2000/svg">
<path d="M2.64609 3.3501C2.28711 3.3501 1.99609 3.64111 1.99609 4.0001C1.99609 4.35908 2.28711 4.6501 2.64609 4.6501L7.99884 4.6501C8.35782 4.6501 8.64884 4.35908 8.64884 4.0001C8.64884 3.64111 8.35782 3.3501 7.99884 3.3501H2.64609Z" fill="black"/>
<path d="M1.99609 8.0001C1.99609 7.64111 2.28711 7.3501 2.64609 7.3501L10.6644 7.3501C11.0234 7.3501 11.3144 7.64111 11.3144 8.0001C11.3144 8.35908 11.0234 8.6501 10.6644 8.6501L2.64609 8.6501C2.28711 8.6501 1.99609 8.35908 1.99609 8.0001Z" fill="black"/>
<path d="M1.99609 12.0001C1.99609 11.6411 2.28711 11.3501 2.64609 11.3501L13.3516 11.3501C13.7106 11.3501 14.0016 11.6411 14.0016 12.0001C14.0016 12.3591 13.7106 12.6501 13.3516 12.6501L2.64609 12.6501C2.28711 12.6501 1.99609 12.3591 1.99609 12.0001Z" fill="black"/>
</svg>
