<svg width="16" height="16" viewBox="0 0 16 16" fill="none" xmlns="http://www.w3.org/2000/svg">
<path d="M6.00425 3.3501C5.64526 3.3501 5.35425 3.64111 5.35425 4.0001C5.35425 4.35908 5.64526 4.6501 6.00425 4.6501L9.99679 4.6501C10.3558 4.6501 10.6468 4.35908 10.6468 4.0001C10.6468 3.64111 10.3558 3.3501 9.99679 3.3501H6.00425Z" fill="black"/>
<path d="M2.72363 8.0001C2.72363 7.64111 3.01465 7.3501 3.37363 7.3501L12.627 7.3501C12.9859 7.3501 13.277 7.64111 13.277 8.0001C13.277 8.35908 12.9859 8.6501 12.627 8.6501L3.37363 8.6501C3.01465 8.6501 2.72363 8.35908 2.72363 8.0001Z" fill="black"/>
<path d="M0.950195 12.0001C0.950195 11.6411 1.24121 11.3501 1.6002 11.3501H14.4002C14.7592 11.3501 15.0502 11.6411 15.0502 12.0001C15.0502 12.3591 14.7592 12.6501 14.4002 12.6501H1.6002C1.24121 12.6501 0.950195 12.3591 0.950195 12.0001Z" fill="black"/>
</svg>
