<svg width="16" height="16" viewBox="0 0 16 16" fill="none" xmlns="http://www.w3.org/2000/svg">
<path d="M12.3607 2.79259C12.062 2.59346 11.6584 2.67417 11.4593 2.97286C11.2601 3.27156 11.3408 3.67512 11.6395 3.87425C12.4205 4.39487 13.3501 5.83371 13.3501 8.00009C13.3501 10.1665 12.4205 11.6053 11.6395 12.1259C11.3408 12.325 11.2601 12.7286 11.4593 13.0273C11.6584 13.326 12.062 13.4067 12.3607 13.2076C13.5797 12.3949 14.6501 10.5004 14.6501 8.00009C14.6501 5.4998 13.5797 3.6053 12.3607 2.79259Z" fill="black"/>
<path fill-rule="evenodd" clip-rule="evenodd" d="M3.69358 5.35009L7.02901 3.18824C7.72759 2.73545 8.6501 3.23685 8.6501 4.06935V11.9308C8.6501 12.7633 7.72759 13.2647 7.02901 12.8119L3.69359 10.6501H2.0001C1.64111 10.6501 1.3501 10.3591 1.3501 10.0001V6.00009C1.3501 5.64111 1.64111 5.35009 2.0001 5.35009H3.69358ZM4.6501 6.27931L7.3501 4.52931V11.4709L4.6501 9.72087V6.27931ZM3.3501 6.65009H2.6501V9.35009H3.3501V6.65009Z" fill="black"/>
<path d="M10.2071 5.54047C10.461 5.28663 10.8725 5.28663 11.1264 5.54047C11.6032 6.01728 11.9834 6.86082 11.9834 8.00009C11.9834 9.13936 11.6032 9.9829 11.1264 10.4597C10.8725 10.7136 10.461 10.7136 10.2071 10.4597C9.95331 10.2059 9.95331 9.79431 10.2071 9.54047C10.397 9.35062 10.6834 8.86082 10.6834 8.00009C10.6834 7.13936 10.397 6.64956 10.2071 6.45971C9.95331 6.20587 9.95331 5.79431 10.2071 5.54047Z" fill="black"/>
</svg>
