<svg xmlns="http://www.w3.org/2000/svg" width="16" height="16" fill="none" viewBox="0 0 16 16"><path fill="#000" fill-rule="evenodd" d="M1.991 1.9912a.65.65 0 0 1 .9193 0L14.009 13.0897a.6501.6501 0 0 1-.9193.9193L8.65 9.5693v2.3615c0 .8325-.9225 1.3339-1.6211.8811l-3.3354-2.1618H2a.65.65 0 0 1-.65-.65v-4A.65.65 0 0 1 2 5.35h1.6935l.4473-.29-2.1497-2.1497a.65.65 0 0 1 0-.9192m10.9878 8.2306.9936.9936c.4142-.884.6776-1.9752.6776-3.2153 0-2.5003-1.0704-4.3948-2.2895-5.2075a.65.65 0 0 0-.7211 1.0816c.781.5206 1.7106 1.9595 1.7106 4.1259 0 .8589-.1461 1.6034-.3712 2.2217M8.65 5.893l-1.3-1.3-.9786-.9786.6575-.4262c.6986-.4528 1.621.0486 1.621.8811zm3.2029 3.2029-1.1703-1.1703c-.0159-.8146-.2913-1.2816-.4756-1.466a.65.65 0 0 1 .9193-.9192c.4768.4769.857 1.3204.857 2.4597 0 .4034-.0477.7697-.1304 1.0958M5.0808 6 7.35 8.2693v3.2015l-2.7-1.75V6.2793zM3.35 6.65h-.7v2.7h.7z"/></svg>