<svg width="16" height="16" viewBox="0 0 16 16" fill="none" xmlns="http://www.w3.org/2000/svg">
<path fill-rule="evenodd" clip-rule="evenodd" d="M2.91044 1.99116C2.6566 1.73732 2.24504 1.73732 1.9912 1.99116C1.73736 2.245 1.73736 2.65656 1.9912 2.9104L4.14092 5.06012L3.69358 5.35007H2.0001C1.64111 5.35007 1.3501 5.64108 1.3501 6.00007V10.0001C1.3501 10.3591 1.64111 10.6501 2.0001 10.6501H3.69359L7.02901 12.8119C7.72759 13.2647 8.6501 12.7633 8.6501 11.9308V9.5693C10.1724 11.0916 11.6236 12.5428 13.0898 14.009C13.3436 14.2628 13.7552 14.2628 14.009 14.009C14.2628 13.7551 14.2628 13.3436 14.009 13.0897L2.91044 1.99116ZM7.3501 8.2693L5.08087 6.00008L4.6501 6.27928V9.72084L7.3501 11.4708V8.2693ZM2.6501 6.65007H3.3501V9.35007H2.6501V6.65007Z" fill="black"/>
<path d="M7.3501 4.59297L8.6501 5.89297V4.06932C8.6501 3.23683 7.72759 2.73543 7.02901 3.18821L6.3715 3.61437L7.3501 4.59297Z" fill="black"/>
<path d="M10.6827 7.92558L11.853 9.09588C11.9358 8.76979 11.9834 8.40346 11.9834 8.00007C11.9834 6.8608 11.6032 6.01726 11.1264 5.54045C10.8725 5.28661 10.461 5.28661 10.2071 5.54045C9.95331 5.79429 9.95331 6.20584 10.2071 6.45969C10.3915 6.64399 10.6668 7.11097 10.6827 7.92558Z" fill="black"/>
<path d="M12.9789 10.2218L13.9725 11.2154C14.3867 10.3314 14.6501 9.24025 14.6501 8.00006C14.6501 5.49977 13.5797 3.60528 12.3607 2.79256C12.062 2.59343 11.6584 2.67415 11.4593 2.97284C11.2601 3.27153 11.3408 3.6751 11.6395 3.87423C12.4205 4.39485 13.3501 5.83368 13.3501 8.00006C13.3501 8.85896 13.204 9.6035 12.9789 10.2218Z" fill="black"/>
</svg>
