<svg width="16" height="16" viewBox="0 0 16 16" fill="none" xmlns="http://www.w3.org/2000/svg">
<path fill-rule="evenodd" clip-rule="evenodd" d="M2.91044 1.98628C2.6566 1.73244 2.24504 1.73244 1.9912 1.98628C1.73736 2.24012 1.73736 2.65168 1.9912 2.90552L4.14092 5.05524L3.69358 5.34518H2.0001C1.64111 5.34518 1.3501 5.6362 1.3501 5.99518V9.99518C1.3501 10.3542 1.64111 10.6452 2.0001 10.6452H3.69359L7.02901 12.807C7.72759 13.2598 8.6501 12.7584 8.6501 11.9259V9.56442C10.1724 11.0867 11.6236 12.5379 13.0898 14.0041C13.3436 14.2579 13.7552 14.2579 14.009 14.0041C14.2628 13.7502 14.2628 13.3387 14.009 13.0848L2.91044 1.98628ZM7.3501 8.26442L5.08087 5.99519L4.6501 6.2744V9.71596L7.3501 11.466V8.26442ZM2.6501 6.64518H3.3501V9.34518H2.6501V6.64518Z" fill="black"/>
<path d="M7.3501 4.58809L8.6501 5.88809V4.06444C8.6501 3.23195 7.72759 2.73054 7.02901 3.18333L6.3715 3.60949L7.3501 4.58809Z" fill="black"/>
<path d="M10.6827 7.9207L11.853 9.091C11.9358 8.7649 11.9834 8.39858 11.9834 7.99518C11.9834 6.85592 11.6032 6.01238 11.1264 5.53556C10.8725 5.28172 10.461 5.28172 10.2071 5.53556C9.95331 5.7894 9.95331 6.20096 10.2071 6.4548C10.3915 6.63911 10.6668 7.10609 10.6827 7.9207Z" fill="black"/>
<path d="M12.9789 10.2169L13.9725 11.2105C14.3867 10.3265 14.6501 9.23537 14.6501 7.99518C14.6501 5.49489 13.5797 3.60039 12.3607 2.78768C12.062 2.58855 11.6584 2.66926 11.4593 2.96796C11.2601 3.26665 11.3408 3.67022 11.6395 3.86934C12.4205 4.38996 13.3501 5.8288 13.3501 7.99518C13.3501 8.85408 13.204 9.59862 12.9789 10.2169Z" fill="black"/>
</svg>
