<svg width="16" height="16" viewBox="0 0 16 16" fill="none" xmlns="http://www.w3.org/2000/svg">
<path d="M13.2024 2.7877C12.9038 2.58857 12.5002 2.66929 12.3011 2.96798C12.1019 3.26667 12.1826 3.67024 12.4813 3.86937C13.2623 4.38999 14.1919 5.82882 14.1919 7.9952C14.1919 10.1616 13.2623 11.6004 12.4813 12.121C12.1826 12.3202 12.1019 12.7237 12.3011 13.0224C12.5002 13.3211 12.9038 13.4018 13.2024 13.2027C14.4215 12.39 15.4919 10.4955 15.4919 7.9952C15.4919 5.49491 14.4215 3.60042 13.2024 2.7877Z" fill="black"/>
<path fill-rule="evenodd" clip-rule="evenodd" d="M4.53538 5.34521L7.8708 3.18336C8.56939 2.73057 9.49189 3.23197 9.49189 4.06447V11.9259C9.49189 12.7584 8.56939 13.2598 7.8708 12.807L4.53539 10.6452H2.84189C2.48291 10.6452 2.19189 10.3542 2.19189 9.99521V5.99521C2.19189 5.63622 2.48291 5.34521 2.84189 5.34521H4.53538ZM5.49189 6.27442L8.19189 4.52442V11.466L5.49189 9.71598V6.27442ZM4.19189 6.64521H3.49189V9.34521H4.19189V6.64521Z" fill="black"/>
<path d="M11.0489 5.53559C11.3028 5.28175 11.7143 5.28175 11.9682 5.53559C12.445 6.0124 12.8252 6.85594 12.8252 7.99521C12.8252 9.13447 12.445 9.97802 11.9682 10.4548C11.7143 10.7087 11.3028 10.7087 11.0489 10.4548C10.7951 10.201 10.7951 9.78943 11.0489 9.53559C11.2388 9.34573 11.5252 8.85594 11.5252 7.99521C11.5252 7.13447 11.2388 6.64468 11.0489 6.45483C10.7951 6.20099 10.7951 5.78943 11.0489 5.53559Z" fill="black"/>
</svg>
