<svg xmlns="http://www.w3.org/2000/svg" width="16" height="16" fill="none" viewBox="0 0 16 16"><path fill="#000" fill-rule="evenodd" d="M12.3605 2.7925a.65.65 0 1 0-.7211 1.0816C12.4204 4.3948 13.35 5.8336 13.35 8s-.9296 3.6052-1.7106 4.1258a.65.65 0 0 0 .7211 1.0817C13.5796 12.3947 14.65 10.5002 14.65 8c0-2.5003-1.0704-4.3948-2.2895-5.2075m-5.3316.3956L3.6935 5.35H2a.65.65 0 0 0-.65.65v4a.65.65 0 0 0 .65.65h1.6935l3.3354 2.1618c.6986.4528 1.621-.0486 1.621-.8811V4.0692c0-.8325-.9224-1.3339-1.621-.881m.321 1.341-2.7 1.75v3.4417l2.7 1.7499zm2.8571 1.0113a.65.65 0 0 1 .9193 0c.4768.4768.857 1.3203.857 2.4596s-.3802 1.9828-.857 2.4596a.6501.6501 0 0 1-.9193-.9192c.1899-.19.4763-.6797.4763-1.5404s-.2864-1.3506-.4763-1.5404a.65.65 0 0 1 0-.9192M2.65 6.65h.7v2.7h-.7z"/></svg>