<svg width="16" height="16" viewBox="0 0 16 16" fill="none" xmlns="http://www.w3.org/2000/svg">
<path d="M8.00039 5.09541C4.86294 5.09541 2.31953 7.63882 2.31953 10.7763C2.31953 11.7787 2.57861 12.7187 3.03296 13.5349C3.06561 13.5935 3.14732 13.6549 3.2759 13.6549H12.7249C12.8535 13.6549 12.9352 13.5935 12.9678 13.5349C13.4222 12.7187 13.6812 11.7787 13.6812 10.7763C13.6812 10.0108 13.5302 9.28216 13.2569 8.61744C13.2241 8.53772 13.1895 8.4589 13.1533 8.38103L13.8212 7.71307C13.9273 7.60702 14.0186 7.49179 14.0951 7.36994C14.2308 7.6124 14.3526 7.86381 14.4592 8.12306C14.7959 8.9419 14.9812 9.83825 14.9812 10.7763C14.9812 12.0056 14.6629 13.1626 14.1037 14.1672C13.8125 14.6903 13.2621 14.9549 12.7249 14.9549H3.2759C2.73865 14.9549 2.18829 14.6903 1.89709 14.1672C1.33787 13.1626 1.01953 12.0056 1.01953 10.7763C1.01953 6.92085 4.14497 3.79541 8.00039 3.79541C8.92522 3.79541 9.80957 3.9756 10.6191 4.30338C10.8905 4.41329 11.1534 4.53976 11.4066 4.68153C11.2848 4.75804 11.1696 4.84931 11.0635 4.95536L10.3955 5.62334C10.3086 5.58285 10.2204 5.54449 10.1312 5.50835C9.47403 5.24226 8.75516 5.09541 8.00039 5.09541Z" fill="black"/>
<path d="M12.902 5.87458C13.1559 6.12842 13.1559 6.53998 12.902 6.79382L9.35714 10.3387C9.40157 10.4766 9.42557 10.6236 9.42557 10.7763C9.42557 11.5634 8.78746 12.2015 8.00032 12.2015C7.21318 12.2015 6.57507 11.5634 6.57507 10.7763C6.57507 9.98915 7.21318 9.35104 8.00032 9.35104C8.15298 9.35104 8.30003 9.37504 8.43791 9.41948L11.9828 5.87459C12.2366 5.62074 12.6482 5.62074 12.902 5.87458Z" fill="black"/>
</svg>
