<svg xmlns="http://www.w3.org/2000/svg" width="16" height="16" fill="none" viewBox="0 0 16 16"><path fill="#000" fill-rule="evenodd" d="M2.3195 10.7763c0-3.1375 2.5434-5.6809 5.6809-5.6809a5.66 5.66 0 0 1 2.3951.528l.668-.668a1.96 1.96 0 0 1 .3431-.2739 7 7 0 0 0-.7875-.3781 6.96 6.96 0 0 0-2.6187-.508c-3.8554 0-6.9809 3.1255-6.9809 6.9809 0 1.2293.3184 2.3863.8776 3.3909.2912.5231.8415.7877 1.3788.7877h9.449c.5372 0 1.0876-.2646 1.3788-.7877.5592-1.0046.8776-2.1616.8776-3.3909 0-.938-.1854-1.8344-.5221-2.6532a7 7 0 0 0-.3641-.7532 1.95 1.95 0 0 1-.2739.3432l-.6679.668q.0543.1167.1036.2363a5.66 5.66 0 0 1 .4244 2.1589c0 1.0024-.2591 1.9423-.7135 2.7586-.0326.0586-.1143.12-.2429.12h-9.449c-.1286 0-.2103-.0614-.243-.12-.4543-.8163-.7134-1.7562-.7134-2.7586M12.902 6.7938a.65.65 0 1 0-.9192-.9192L8.4379 9.4195a1.43 1.43 0 0 0-.4376-.0684c-.7871 0-1.4252.638-1.4252 1.4252s.638 1.4252 1.4252 1.4252 1.4253-.6381 1.4253-1.4252c0-.1527-.024-.2997-.0684-.4376z"/></svg>