<svg xmlns="http://www.w3.org/2000/svg" width="16" height="16" fill="none" viewBox="0 0 16 16"><path fill="#000" fill-rule="evenodd" d="M1.3792 7.1998C1.7018 3.196 5.3088 1.35 8.1753 1.35c1.4735 0 3.0733.5272 4.3149 1.5173 1.2536.9998 2.1597 2.49 2.1597 4.3847 0 1.8566-.7306 3.2055-1.8223 4.0759-1.0699.853-2.4365 1.2083-3.6815 1.2083-1.0964 0-2.291-.3461-3.226-1.0603-.9517-.7269-1.6307-1.8368-1.6307-3.297 0-1.4268.5696-2.4597 1.3659-3.1249.7751-.6475 1.7356-.9235 2.52-.9235 1.8671 0 3.5623 1.2576 3.5623 3.1215 0 .6255-.2403 1.2352-.6254 1.693-.3859.4586-.9603.8107-1.6425.8107-1.3097 0-2.268-.8136-2.268-1.8858a.65.65 0 1 1 1.3 0c0 .1636.1695.5858.968.5858.2142 0 .4488-.1113.6478-.3477.1997-.2375.3201-.5546.3201-.856 0-.9445-.8935-1.8215-2.2623-1.8215-.5099 0-1.1674.1874-1.6866.6212-.498.416-.8993 1.0824-.8993 2.1272 0 1.0113.4536 1.755 1.1198 2.2639.683.5216 1.5918.7934 2.4369.7934 1.0201 0 2.0804-.2945 2.8711-.9248.769-.6131 1.3327-1.5812 1.3327-3.0594 0-1.4398-.6764-2.5757-1.6703-3.3683C10.6737 3.0815 9.3612 2.65 8.1753 2.65c-2.4522 0-5.251 1.5596-5.5003 4.6542-.1492 1.8528.3736 3.4526 1.3814 4.6208 1.0075 1.1681 2.5389 1.9501 4.4901 2.0934a.65.65 0 0 1-.0952 1.2965c-2.2554-.1656-4.1217-1.0827-5.3793-2.5407-1.2574-1.4578-1.867-3.4108-1.6928-5.5744"/></svg>