<svg xmlns="http://www.w3.org/2000/svg" width="16" height="16" fill="none" viewBox="0 0 16 16"><path fill="#000" fill-rule="evenodd" d="M2.6833 3.6c0-1.2427 1.0074-2.25 2.25-2.25h6.1334c1.2426 0 2.25 1.0073 2.25 2.25v8.8c0 1.2426-1.0074 2.25-2.25 2.25H4.9333c-1.2426 0-2.25-1.0074-2.25-2.25zM8.65 13.35h1.3667v-.55a.15.15 0 0 0-.15-.15H8.65zm-1.3-.7v.7H5.9833v-.55a.15.15 0 0 1 .15-.15zm2.5167-1.3c.8008 0 1.45.6492 1.45 1.45v.5167c.4033-.1097.7-.4786.7-.9167V3.6a.95.95 0 0 0-.95-.95H4.9333a.95.95 0 0 0-.95.95v8.8c0 .4381.2966.807.7.9167V12.8c0-.8008.6492-1.45 1.45-1.45z"/></svg>