<svg xmlns="http://www.w3.org/2000/svg" width="16" height="16" fill="none" viewBox="0 0 16 16"><path fill="#000" fill-rule="evenodd" d="M3.0532 1.6148a.65.65 0 1 0-1.3-.002L1.7329 14.385a.65.65 0 0 0 1.3.002zm2.7765-.5271c-.8008 0-1.45.6491-1.45 1.45v1.2037c0 .8008.6492 1.45 1.45 1.45h6.9871c.8008 0 1.45-.6492 1.45-1.45V2.5377c0-.8009-.6492-1.45-1.45-1.45zm-.15 1.45a.15.15 0 0 1 .15-.15H7.35v1.5037H5.8297a.15.15 0 0 1-.15-.15zM8.65 3.8914h4.1668a.15.15 0 0 0 .15-.15V2.5377a.15.15 0 0 0-.15-.15H8.65zM4.3797 7.46c0-.8008.6492-1.45 1.45-1.45h3.3679c.8008 0 1.4499.6492 1.4499 1.45v1.2038c0 .8008-.6491 1.45-1.45 1.45H5.8298c-.8008 0-1.45-.6492-1.45-1.45zm1.45-.15a.15.15 0 0 0-.15.15v1.2038a.15.15 0 0 0 .15.15h3.3679a.15.15 0 0 0 .15-.15V7.46a.15.15 0 0 0-.15-.15zm0 3.6222c-.8008 0-1.45.6492-1.45 1.45v1.2038c0 .8008.6492 1.45 1.45 1.45h5.9797c.8008 0 1.45-.6492 1.45-1.45v-1.2038c0-.8008-.6492-1.45-1.45-1.45zm-.15 1.45a.15.15 0 0 1 .15-.15h3.668v1.5038h-3.668a.15.15 0 0 1-.15-.15zm5.118 1.3538v-1.5038h1.0117a.15.15 0 0 1 .15.15v1.2038a.15.15 0 0 1-.15.15z"/></svg>