<svg xmlns="http://www.w3.org/2000/svg" width="16" height="16" fill="none" viewBox="0 0 16 16"><path fill="#000" fill-rule="evenodd" d="M14.9123 10.17c0 .8008-.6491 1.45-1.45 1.45h-1.2037c-.8008 0-1.45-.6492-1.45-1.45V3.1829c0-.8009.6492-1.45 1.45-1.45h1.2037c.8009 0 1.45.6491 1.45 1.45zm-9.8445 0c0 .8008-.6492 1.45-1.45 1.45H2.414c-.8008 0-1.45-.6492-1.45-1.45V4.1903c0-.8009.6492-1.45 1.45-1.45h1.2037c.8009 0 1.45.6491 1.45 1.45zm7.0408-2.6723V3.183a.15.15 0 0 1 .15-.15h1.2037a.15.15 0 0 1 .15.15v4.3148zM3.7678 4.1903V5.35H2.264V4.1903a.15.15 0 0 1 .15-.15h1.2037a.15.15 0 0 1 .15.15M8.54 11.62c.8008 0 1.45-.6492 1.45-1.45V6.8022c0-.8009-.6492-1.45-1.45-1.45H7.3362c-.8008 0-1.45.6491-1.45 1.45V10.17c0 .8008.6492 1.45 1.45 1.45zm-4.9222-1.3a.15.15 0 0 0 .15-.15V6.65H2.264v3.52a.15.15 0 0 0 .15.15zm5.0722-.15a.15.15 0 0 1-.15.15H7.3362a.15.15 0 0 1-.15-.15V6.8022a.15.15 0 0 1 .15-.15H8.54a.15.15 0 0 1 .15.15zm4.7723.15a.15.15 0 0 0 .15-.15V8.7977h-1.5037V10.17a.15.15 0 0 0 .15.15zm.9229 2.6265a.65.65 0 0 1 .0021 1.3L1.615 14.267a.65.65 0 0 1-.002-1.3z"/></svg>