<svg xmlns="http://www.w3.org/2000/svg" width="16" height="16" fill="none" viewBox="0 0 16 16"><path fill="#000" fill-rule="evenodd" d="M8.7848 1.8465c-.2904-.6981-1.2793-.6981-1.5696 0l-.7823 1.8807c.3024.3046.6363.6396.9934.9968L8 3.3447l1.2514 3.0086a.65.65 0 0 0 .5482.3983l3.2481.2604-1.7829 1.5272c.3119.3087.6221.6155.9275.9173l2.5228-2.161c.5742-.492.2686-1.4325-.4851-1.4929l-3.9308-.3151zm3.2339 9.2657a2022 2022 0 0 1-1.6555-1.6362l-.0007.003A1296 1296 0 0 1 7.735 6.8718a803 803 0 0 1-.8497-.8472l.001-.0024c-.3515-.351-.6852-.685-.994-.995l-.001.0021a246 246 0 0 1-.875-.8828c-.3475-.3527-.6265-.6392-.8186-.8415a10 10 0 0 1-.213-.2293l-.0234-.0267a.6503.6503 0 0 0-1.181.4933.67.67 0 0 0 .0618.1675.7.7 0 0 0 .0381.064 1 1 0 0 0 .0483.066c.0254.032.0552.0665.0844.0994.06.0676.1426.1563.2423.2612.2005.2111.4861.5043.8352.8585.1575.16.3285.3328.511.5167l-2.8314.227c-.7537.0604-1.0593 1.001-.485 1.4928L4.2797 9.861l-.915 3.8358c-.1754.7354.6246 1.3167 1.2699.9226L8 12.5637l3.3653 2.0556c.6453.3941 1.4453-.1872 1.2699-.9226l-.0459-.1922.6141.6046a.65.65 0 0 0 .9193-.0074.65.65 0 0 0-.0075-.9193 1756 1756 0 0 1-2.0953-2.0652zM6.8178 7.7931a1469 1469 0 0 0 4.0239 3.9877l.2779 1.1651-2.7808-1.6985a.65.65 0 0 0-.6776 0l-2.7808 1.6985.756-3.1696a.65.65 0 0 0-.2094-.6445L2.9523 7.012l2.853-.2287c.3225.3223.662.6607 1.0126 1.0098"/></svg>