<svg xmlns="http://www.w3.org/2000/svg" width="16" height="16" fill="none" viewBox="0 0 16 16"><path fill="#000" fill-rule="evenodd" d="M8 15c3.866 0 7-3.134 7-7s-3.134-7-7-7-7 3.134-7 7 3.134 7 7 7M4.6083 6.0915l1.2553-1.5681a.27.27 0 0 1 .2104-.1026h3.852a.27.27 0 0 1 .2104.1026l1.2554 1.568c.1486.1858.0218.4677-.2105.4677H4.8187c-.2323 0-.3591-.282-.2104-.4676m-.0548 1.6341c-.1327-.1883-.0035-.4537.2209-.4537h6.4512c.2244 0 .3536.2654.2209.4537l-3.2256 4.5787a.2677.2677 0 0 1-.4418 0z"/></svg>