<svg xmlns="http://www.w3.org/2000/svg" width="16" height="16" fill="none" viewBox="0 0 16 16"><path fill="#000" fill-rule="evenodd" d="M8 15c3.866 0 7-3.134 7-7s-3.134-7-7-7-7 3.134-7 7 3.134 7 7 7m2.8731-8.4366c0 1.0635-.5778 1.992-1.4366 2.4888v.7436a.359.359 0 0 1-.3591.3591h-2.155a.359.359 0 0 1-.359-.3591v-.7436c-.8589-.4968-1.4367-1.4253-1.4367-2.4888 0-1.5868 1.2864-2.8732 2.8732-2.8732s2.8732 1.2864 2.8732 2.8732m-3.9506 4.3098a.359.359 0 0 0-.3592.3592v.7183c0 .1983.1608.3591.3592.3591h2.1549a.359.359 0 0 0 .3591-.3591v-.7183a.359.359 0 0 0-.3591-.3592z"/></svg>