<svg xmlns="http://www.w3.org/2000/svg" width="16" height="16" fill="none" viewBox="0 0 16 16"><path fill="#000" fill-rule="evenodd" d="M8 15c3.866 0 7-3.134 7-7s-3.134-7-7-7-7 3.134-7 7 3.134 7 7 7m0-1.3c3.148 0 5.7-2.552 5.7-5.7S11.148 2.3 8 2.3 2.3 4.852 2.3 8s2.552 5.7 5.7 5.7m-.8994-7.3477a.854.854 0 0 1 .8538-.8538h.0458a.8996.8996 0 0 1 .8995.8996v.0592c0 .3753-.219.716-.5603.872l-.2141.0978a1.497 1.497 0 0 0-.8751 1.362.75.75 0 0 0 1.5.0017l.2126-.0972a2.459 2.459 0 0 0 1.4369-2.2363V6.398c0-1.3252-1.0743-2.3996-2.3995-2.3996h-.0458c-1.3 0-2.3538 1.0539-2.3538 2.3538a.75.75 0 0 0 1.5 0M8 11.825a.75.75 0 1 0 0-1.5.75.75 0 0 0 0 1.5"/></svg>