<svg width="16" height="16" viewBox="0 0 16 16" fill="none" xmlns="http://www.w3.org/2000/svg">
<path fill-rule="evenodd" clip-rule="evenodd" d="M7.99931 15.3827C7.99931 15.3827 13.5 13.4906 13.5 9.52431V3.77345L7.99931 0.60376L2.5 3.77345V9.52431C2.5 13.485 7.98487 15.3771 7.99931 15.3827Z" fill="#DA8C03"/>
<path fill-rule="evenodd" clip-rule="evenodd" d="M7.99931 15.3827V0.60376L2.5 3.77345V9.52431C2.5 13.485 7.98487 15.3771 7.99931 15.3827Z" fill="#FFAA00"/>
<path fill-rule="evenodd" clip-rule="evenodd" d="M9.5 6.83022C9.5 6.00222 8.828 5.33022 8 5.33022C7.172 5.33022 6.5 6.00222 6.5 6.83022C6.5 7.38372 6.803 7.86222 7.25 8.12247V10.5802H8.75V8.12247C9.197 7.86222 9.5 7.38372 9.5 6.83022Z" fill="white"/>
</svg>
