<svg width="16" height="16" viewBox="0 0 16 16" fill="none" xmlns="http://www.w3.org/2000/svg">
<path d="M8 3.84058C8.41421 3.84058 8.75 4.17636 8.75 4.59058V8.59058C8.75 9.00479 8.41421 9.34058 8 9.34058C7.58579 9.34058 7.25 9.00479 7.25 8.59058V4.59058C7.25 4.17636 7.58579 3.84058 8 3.84058Z" fill="black"/>
<path d="M8.8002 11.1015C8.8002 11.5433 8.44202 11.9015 8.0002 11.9015C7.55837 11.9015 7.2002 11.5433 7.2002 11.1015C7.2002 10.6597 7.55837 10.3015 8.0002 10.3015C8.44202 10.3015 8.8002 10.6597 8.8002 11.1015Z" fill="black"/>
<path fill-rule="evenodd" clip-rule="evenodd" d="M15 8C15 11.866 11.866 15 8 15C4.13401 15 1 11.866 1 8C1 4.13401 4.13401 1 8 1C11.866 1 15 4.13401 15 8ZM13.7 8C13.7 11.148 11.148 13.7 8 13.7C4.85198 13.7 2.3 11.148 2.3 8C2.3 4.85198 4.85198 2.3 8 2.3C11.148 2.3 13.7 4.85198 13.7 8Z" fill="black"/>
</svg>
