<svg xmlns="http://www.w3.org/2000/svg" width="16" height="16" fill="none" viewBox="0 0 16 16"><path fill="#000" d="M8 4.443a.75.75 0 0 1 .75.75v2.91a.75.75 0 1 1-1.5 0v-2.91a.75.75 0 0 1 .75-.75m0 7.125a.85.85 0 1 0 0-1.7.85.85 0 0 0 0 1.7"/><path fill="#000" fill-rule="evenodd" d="M4.4 1.7h7.2c1.4911 0 2.7 1.2088 2.7 2.7v7.2c0 1.4911-1.2089 2.7-2.7 2.7H4.4c-1.4912 0-2.7-1.2089-2.7-2.7V4.4c0-1.4912 1.2088-2.7 2.7-2.7m0 1.3C3.6267 3 3 3.6267 3 4.4v7.2c0 .7731.6267 1.4 1.4 1.4h7.2c.7731 0 1.4-.6269 1.4-1.4V4.4c0-.7733-.6269-1.4-1.4-1.4z" clip-rule="evenodd"/></svg>