<svg xmlns="http://www.w3.org/2000/svg" width="16" height="16" fill="none" viewBox="0 0 16 16"><path fill="#000" fill-rule="evenodd" d="M8 15c3.866 0 7-3.134 7-7s-3.134-7-7-7-7 3.134-7 7 3.134 7 7 7m4.4192-3.3997A5.676 5.676 0 0 0 13.7 8c0-3.148-2.552-5.7-5.7-5.7S2.3 4.852 2.3 8s2.552 5.7 5.7 5.7a5.675 5.675 0 0 0 3.4885-1.1919l-1.5163-1.5162A3.567 3.567 0 0 1 8 11.583c-1.9788 0-3.583-1.6042-3.583-3.583S6.0212 4.417 8 4.417 11.583 6.0212 11.583 8a3.567 3.567 0 0 1-.6731 2.0911zM8 10.283c1.2609 0 2.283-1.0221 2.283-2.283S9.2609 5.717 8 5.717 5.717 6.739 5.717 8 6.739 10.283 8 10.283"/></svg>