<svg width="16" height="16" viewBox="0 0 16 16" fill="none" xmlns="http://www.w3.org/2000/svg">
<path d="M11.4848 6.67634C11.7777 6.38344 11.7777 5.90857 11.4848 5.61568C11.1919 5.32278 10.717 5.32278 10.4241 5.61567L7.23187 8.80788L5.56115 7.22831C5.26017 6.94375 4.78548 6.95706 4.50091 7.25805C4.21634 7.55903 4.22965 8.03372 4.53064 8.31829L6.73128 10.3989C7.02631 10.6778 7.48975 10.6713 7.77686 10.3842L11.4848 6.67634Z" fill="black"/>
<path fill-rule="evenodd" clip-rule="evenodd" d="M15 8C15 11.866 11.866 15 8 15C4.13401 15 1 11.866 1 8C1 4.13401 4.13401 1 8 1C11.866 1 15 4.13401 15 8ZM13.7 8C13.7 11.148 11.148 13.7 8 13.7C4.85198 13.7 2.3 11.148 2.3 8C2.3 4.85198 4.85198 2.3 8 2.3C11.148 2.3 13.7 4.85198 13.7 8Z" fill="black"/>
</svg>
