<svg xmlns="http://www.w3.org/2000/svg" width="16" height="16" fill="none" viewBox="0 0 16 16"><path fill="#000" fill-rule="evenodd" d="M8.0003.95a.65.65 0 0 1 .65.65v1.1688a.65.65 0 1 1-1.3 0V1.6a.65.65 0 0 1 .65-.65M3.5558 4.4744a.65.65 0 1 0 .9193-.9192l-.8905-.8904a.65.65 0 0 0-.9192.9192zm9.7794-.8902a.65.65 0 0 0-.9193-.9192l-.8904.8905a.65.65 0 0 0 .9192.9192zm-5.3365.4772c-2.1727 0-3.934 1.7613-3.934 3.934s1.7613 3.9341 3.934 3.9341 3.934-1.7614 3.934-3.934c0-2.1728-1.7613-3.9341-3.934-3.9341m-2.634 3.934c0-1.4547 1.1793-2.634 2.634-2.634s2.634 1.1793 2.634 2.634c0 1.4548-1.1792 2.6341-2.634 2.6341s-2.634-1.1793-2.634-2.634m-1.9456.0043a.65.65 0 0 1-.65.65H1.6002a.65.65 0 0 1 0-1.3h1.1689a.65.65 0 0 1 .65.65m10.9811.6503a.65.65 0 1 0 0-1.3h-1.1689a.65.65 0 1 0 0 1.3zM4.4748 11.525a.65.65 0 0 1 0 .9192l-.8904.8904a.65.65 0 1 1-.9192-.9192l.8904-.8904a.65.65 0 0 1 .9192 0m7.9411 1.8098a.65.65 0 1 0 .9193-.9192l-.8905-.8904a.65.65 0 0 0-.9192.9192zm-4.4156-.7539a.65.65 0 0 1 .65.65v1.1689a.65.65 0 1 1-1.3 0V13.231a.65.65 0 0 1 .65-.65"/></svg>