<svg xmlns="http://www.w3.org/2000/svg" width="16" height="16" fill="none" viewBox="0 0 16 16"><path fill="#000" fill-rule="evenodd" d="M5.824 3.0181c.9448-1.749 3.4543-1.749 4.3991 0l4.3314 8.0181c.8998 1.6656-.3064 3.6882-2.1996 3.6882H3.6922c-1.8932 0-3.0994-2.0226-2.1996-3.6882zm3.2554.6179 4.3313 8.018c.4319.7996-.1471 1.7704-1.0558 1.7704H3.6922c-.9087 0-1.4877-.9708-1.0558-1.7704l4.3314-8.018c.4535-.8396 1.658-.8396 2.1116 0M8 5.0012a.75.75 0 0 1 .75.75l-.0004 3.4922a.75.75 0 0 1-1.5-.0001L7.25 5.751a.75.75 0 0 1 .7501-.7499m0 7.7044a.85.85 0 1 0 0-1.7.85.85 0 0 0 0 1.7"/></svg>