<svg xmlns="http://www.w3.org/2000/svg" width="16" height="16" fill="none" viewBox="0 0 16 16"><path fill="#da8c03" fill-rule="evenodd" d="M7.9993 15.3827S13.5 13.4906 13.5 9.5243V3.7735L7.9993.6038 2.5 3.7735v5.7508c0 3.9607 5.4849 5.8528 5.4993 5.8584"/><path fill="#da8c03" fill-rule="evenodd" d="M7.9993 15.3827V.6037L2.5 3.7736v5.7508c0 3.9607 5.4849 5.8528 5.4993 5.8584"/><path fill="#fa0" fill-rule="evenodd" d="M7.9993 15.3827V.6037L2.5 3.7736v5.7508c0 3.9607 5.4849 5.8528 5.4993 5.8584"/><path fill="#da8c03" fill-rule="evenodd" d="M9.5 6.8302c0-.828-.672-1.5-1.5-1.5s-1.5.672-1.5 1.5c0 .5535.303 1.032.75 1.2923v2.4577h1.5V8.1225c.447-.2603.75-.7388.75-1.2923"/><path fill="#fff" fill-rule="evenodd" d="M9.5 6.8302c0-.828-.672-1.5-1.5-1.5s-1.5.672-1.5 1.5c0 .5535.303 1.032.75 1.2923v2.4577h1.5V8.1225c.447-.2603.75-.7388.75-1.2923"/></svg>