<svg xmlns="http://www.w3.org/2000/svg" width="16" height="16" fill="none" viewBox="0 0 16 16"><path fill="#000" fill-rule="evenodd" d="M15 8c0 3.866-3.134 7-7 7s-7-3.134-7-7 3.134-7 7-7 7 3.134 7 7M4.3501 7c0-2.0159 1.6342-3.65 3.65-3.65s3.65 1.6341 3.65 3.65v4.6648a.65.65 0 0 1-.65.65h-6a.65.65 0 0 1-.65-.65zm3.65-2.35c-1.2979 0-2.35 1.0521-2.35 2.35v4.0148h4.7V7c0-1.2979-1.0521-2.35-2.35-2.35M6.9555 8.3a.65.65 0 1 0 0-1.3.65.65 0 0 0 0 1.3m2.7391-.65a.65.65 0 1 1-1.3 0 .65.65 0 0 1 1.3 0"/></svg>