<svg xmlns="http://www.w3.org/2000/svg" width="16" height="16" fill="none" viewBox="0 0 16 16"><path fill="#000" d="M4.899 5.854v4.065c.334-.056.783-.107 1.319-.107s.957.079 1.282.189v-4.05c-.183-.12-.576-.314-1.283-.317-.589-.002-1.049.122-1.318.219m6.203.001v4.065c-.334-.056-.783-.107-1.319-.107s-.956.079-1.282.189v-4.05c.183-.12.576-.314 1.283-.317.589-.002 1.049.122 1.318.219"/><path fill="#000" fill-rule="evenodd" d="M8 15c3.866 0 7-3.134 7-7s-3.134-7-7-7-7 3.134-7 7 3.134 7 7 7m-.3465-3.7744a.5.5 0 0 0 .731-.0398.4.4 0 0 1 .0299-.0272c.0335-.028.0957-.0735.1945-.123.201-.1006.5687-.2241 1.1734-.2241.5211 0 .9453.0546 1.2358.1082.1439.0265.287.0573.4272.0996a.5.5 0 0 0 .6563-.4749V5.5261a.5.5 0 0 0-.217-.4122c-.055-.0305-.1514-.0814-.2089-.1068a3.9 3.9 0 0 0-.4183-.1555c-.3555-.1107-.8614-.219-1.4768-.217-.7209.0023-1.2436.1664-1.5985.3474a3.4 3.4 0 0 0-.1816.0987 3.4 3.4 0 0 0-.1816-.0987c-.355-.181-.8776-.345-1.5986-.3475-.6153-.002-1.1212.1064-1.4767.217a3.9 3.9 0 0 0-.4183.1556c-.0575.0254-.1539.0763-.2089.1068a.5.5 0 0 0-.217.4122v5.0183a.4998.4998 0 0 0 .6563.4749c.1401-.0423.2833-.0731.4272-.0996.2905-.0536.7147-.1082 1.2358-.1082.6047 0 .9724.1235 1.1734.2241.0988.0495.161.095.1945.123a.4.4 0 0 1 .0298.0272.5.5 0 0 0 .0371.0398" clip-rule="evenodd"/></svg>