<svg width="16" height="16" viewBox="0 0 16 16" fill="none" xmlns="http://www.w3.org/2000/svg">
<path d="M8.0001 5.00121C8.41431 5.00124 8.75007 5.33706 8.75003 5.75127L8.74973 9.2434C8.7497 9.65761 8.41388 9.99337 7.99967 9.99333C7.58545 9.9933 7.2497 9.65748 7.24973 9.24327L7.25003 5.75114C7.25007 5.33693 7.58588 5.00117 8.0001 5.00121Z" fill="black"/>
<path d="M8.00018 12.7056C8.46962 12.7056 8.85018 12.325 8.85018 11.8556C8.85018 11.3862 8.46962 11.0056 8.00018 11.0056C7.53074 11.0056 7.15018 11.3862 7.15018 11.8556C7.15018 12.325 7.53074 12.7056 8.00018 12.7056Z" fill="black"/>
<path fill-rule="evenodd" clip-rule="evenodd" d="M10.2231 3.01809C9.27831 1.26903 6.76881 1.26904 5.82398 3.01809L1.49264 11.0362C0.592845 12.7018 1.79905 14.7244 3.69222 14.7244H12.3549C14.2481 14.7244 15.4543 12.7018 14.5545 11.0362L10.2231 3.01809ZM13.4107 11.654L9.07936 3.63596C8.62584 2.79641 7.42128 2.79641 6.96776 3.63596L2.63642 11.654C2.20452 12.4536 2.7835 13.4244 3.69222 13.4244H12.3549C13.2636 13.4244 13.8426 12.4536 13.4107 11.654Z" fill="black"/>
</svg>
