<svg xmlns="http://www.w3.org/2000/svg" width="16" height="16" fill="none" viewBox="0 0 16 16"><path fill="#000" fill-rule="evenodd" d="M1 2.5C1 1.6716 1.6716 1 2.5 1h11c.8284 0 1.5.6716 1.5 1.5S14.3284 4 13.5 4h-11C1.6716 4 1 3.3284 1 2.5M2.5 2h11a.5.5 0 0 1 0 1h-11a.5.5 0 0 1 0-1M1 6.5C1 5.6716 1.6716 5 2.5 5h11c.8284 0 1.5.6716 1.5 1.5S14.3284 8 13.5 8h-11C1.6716 8 1 7.3284 1 6.5M2.5 6h11a.5.5 0 0 1 0 1h-11a.5.5 0 0 1 0-1M1 10.5C1 9.6716 1.6716 9 2.5 9h11c.8284 0 1.5.6716 1.5 1.5s-.6716 1.5-1.5 1.5h-11c-.8284 0-1.5-.6716-1.5-1.5M2.5 13c-.8284 0-1.5.6716-1.5 1.5S1.6716 16 2.5 16h11c.8284 0 1.5-.6716 1.5-1.5s-.6716-1.5-1.5-1.5z"/></svg>