<svg xmlns="http://www.w3.org/2000/svg" width="16" height="16" fill="none" viewBox="0 0 16 16"><path fill="#000" fill-rule="evenodd" d="M1 2.5C1 1.6716 1.6716 1 2.5 1h11c.8284 0 1.5.6716 1.5 1.5S14.3284 4 13.5 4h-3.428c-.372-.7694-1.16-1.3-2.0718-1.3S6.3004 3.2306 5.9284 4H2.5C1.6716 4 1 3.3284 1 2.5M9.0002 9a.998.998 0 0 1-.3799.7845A.996.996 0 0 1 8 10c-.5523 0-1-.4477-1-1V5c0-.5523.4477-1 1-1s1.0002.4477 1.0002 1zm-3.3-4H2.5C1.6716 5 1 5.6716 1 6.5S1.6716 8 2.5 8h3.2002zM13.5 8h-3.1998V5H13.5c.8284 0 1.5.6716 1.5 1.5S14.3284 8 13.5 8M5.7002 9H2.5C1.6716 9 1 9.6716 1 10.5S1.6716 12 2.5 12h3.2002zm4.6 0v3H13.5c.8284 0 1.5-.6716 1.5-1.5S14.3284 9 13.5 9zM7 12c0-.4691.323-.8627.7587-.9707A1 1 0 0 1 8.0002 11a.996.996 0 0 1 .6201.2154A.998.998 0 0 1 9 12c0 .5523-.4477 1-1 1s-1-.4477-1-1m-1.0716 1c.372.7693 1.16 1.3 2.0718 1.3S9.7 13.7693 10.072 13H13.5c.8284 0 1.5.6716 1.5 1.5s-.6716 1.5-1.5 1.5h-11c-.8284 0-1.5-.6716-1.5-1.5S1.6716 13 2.5 13z"/></svg>