<svg xmlns="http://www.w3.org/2000/svg" width="16" height="16" fill="none" viewBox="0 0 16 16"><path fill="#000" fill-rule="evenodd" d="M6.3482 1.993c-.9113 0-1.65.7387-1.65 1.65v.707h-.3596c-.9112 0-1.65.7387-1.65 1.65v.996H2.651c-.9113 0-1.65.7388-1.65 1.65v4c0 .9113.7387 1.65 1.65 1.65h7c.9112 0 1.65-.7387 1.65-1.65v-.996h.0377c.9113 0 1.65-.7387 1.65-1.65v-.707h.3595c.9113 0 1.6501-.7388 1.65-1.65v-1a.65.65 0 1 0-1.3 0v1a.35.35 0 0 1-.35.35h-1a.65.65 0 0 0-.5943.3863.65.65 0 0 0-.0652.284V10a.35.35 0 0 1-.35.35h-.0377V8.646c0-.9112-.7388-1.65-1.65-1.65H3.9886V6a.35.35 0 0 1 .35-.35h.925a.65.65 0 0 0 .7345-.6446V3.643a.35.35 0 0 1 .35-.35h.5a.65.65 0 0 0 0-1.3zm2.35.65a.65.65 0 0 1 .65-.65h1a.65.65 0 0 1 0 1.3h-1a.65.65 0 0 1-.65-.65m4.1499-.65a.65.65 0 0 0 0 1.3h.5a.35.35 0 0 1 .35.35v.5a.65.65 0 0 0 1.3 0v-.5c.0001-.9113-.7387-1.65-1.65-1.65zM7.6419 4.35a.65.65 0 0 0 0 1.3h1a.65.65 0 1 0 0-1.3zm2.5467.65a.65.65 0 0 1 .65-.65h.5c.9113 0 1.65.7387 1.65 1.65v.5a.65.65 0 1 1-1.3 0V6a.35.35 0 0 0-.35-.35h-.5a.65.65 0 0 1-.65-.65M2.6509 8.296a.35.35 0 0 0-.35.35v4a.35.35 0 0 0 .35.35h7a.35.35 0 0 0 .35-.35v-4a.35.35 0 0 0-.35-.35zm3.5 3.85c1.3154 0 2.3817-.6715 2.3817-1.5s-1.0663-1.5-2.3818-1.5c-1.3154 0-2.3817.6716-2.3817 1.5s1.0663 1.5 2.3818 1.5m1.3785-1.5c-.0128-.0302-.0606-.1095-.2273-.2144-.248-.1562-.6524-.2856-1.1513-.2856s-.9032.1294-1.1512.2856c-.1667.1049-.2145.1842-.2273.2144.0128.0303.0606.1095.2273.2145.248.1562.6524.2855 1.1513.2855s.9032-.1293 1.1512-.2855c.1667-.105.2145-.1842.2273-.2145"/></svg>