<svg width="16" height="16" viewBox="0 0 16 16" fill="none" xmlns="http://www.w3.org/2000/svg">
<path fill-rule="evenodd" clip-rule="evenodd" d="M8.53274 10.646C8.53274 11.4744 7.46639 12.146 6.15098 12.146C4.83556 12.146 3.76921 11.4744 3.76921 10.646C3.76921 9.81756 4.83556 9.14599 6.15098 9.14599C7.46639 9.14599 8.53274 9.81756 8.53274 10.646ZM7.53384 10.6326C7.53386 10.6326 7.53391 10.6322 7.53384 10.6326V10.6326ZM7.30223 10.4315C7.46893 10.5365 7.51674 10.6157 7.52951 10.646C7.51674 10.6762 7.46893 10.7555 7.30223 10.8605C7.05421 11.0167 6.64983 11.146 6.15098 11.146C5.65212 11.146 5.24774 11.0167 4.99972 10.8605C4.83302 10.7555 4.78522 10.6762 4.77244 10.646C4.78522 10.6157 4.83302 10.5365 4.99972 10.4315C5.24774 10.2753 5.65212 10.146 6.15098 10.146C6.64983 10.146 7.05421 10.2753 7.30223 10.4315Z" fill="black"/>
<path fill-rule="evenodd" clip-rule="evenodd" d="M4.69827 3.64292C4.69827 2.73165 5.437 1.99292 6.34827 1.99292H6.84826C7.20724 1.99292 7.49826 2.28393 7.49826 2.64292C7.49826 3.0019 7.20724 3.29292 6.84826 3.29292H6.34827C6.15497 3.29292 5.99827 3.44962 5.99827 3.64292V5.00539C5.99827 5.36437 5.70726 5.65539 5.34827 5.65539C5.31963 5.65539 5.29143 5.65354 5.26377 5.64995H4.33876C4.14547 5.64995 3.98876 5.80665 3.98876 5.99995V6.99599H9.65098C10.5622 6.99599 11.301 7.73472 11.301 8.64599V10.3499H11.3388C11.5321 10.3499 11.6888 10.1932 11.6888 9.99994V8.66332C11.6888 8.56146 11.7122 8.46506 11.754 8.37924C11.8551 8.15164 12.0831 7.99292 12.3483 7.99292H13.3483C13.5416 7.99292 13.6983 7.83622 13.6983 7.64292L13.6983 6.64292C13.6983 6.28394 13.9893 5.99292 14.3483 5.99292C14.7072 5.99292 14.9983 6.28393 14.9983 6.64292L14.9983 7.64291C14.9983 8.55418 14.2595 9.29292 13.3483 9.29292H12.9888V9.99994C12.9888 10.9112 12.25 11.6499 11.3388 11.6499H11.301V12.646C11.301 13.5573 10.5622 14.296 9.65098 14.296H2.65098C1.73971 14.296 1.00098 13.5573 1.00098 12.646V8.64599C1.00098 7.73472 1.73971 6.99599 2.65098 6.99599H2.68876V5.99995C2.68876 5.08868 3.42749 4.34995 4.33876 4.34995H4.69827V3.64292ZM2.30098 8.64599C2.30098 8.45269 2.45768 8.29599 2.65098 8.29599H9.65098C9.84428 8.29599 10.001 8.45269 10.001 8.64599V12.646C10.001 12.8393 9.84428 12.996 9.65098 12.996H2.65098C2.45768 12.996 2.30098 12.8393 2.30098 12.646V8.64599Z" fill="black"/>
<path d="M12.1983 2.64292C12.1983 2.28393 12.4893 1.99292 12.8483 1.99292H13.3483C14.2595 1.99292 14.9983 2.73166 14.9983 3.64293L14.9983 4.14293C14.9983 4.50191 14.7072 4.79292 14.3483 4.79292C13.9893 4.79292 13.6983 4.5019 13.6983 4.14291L13.6983 3.64292C13.6983 3.44962 13.5416 3.29292 13.3483 3.29292H12.8483C12.4893 3.29292 12.1983 3.0019 12.1983 2.64292Z" fill="black"/>
<path d="M10.8388 4.34995C10.4798 4.34995 10.1888 4.64096 10.1888 4.99995C10.1888 5.35893 10.4798 5.64995 10.8388 5.64995H11.3388C11.5321 5.64995 11.6888 5.80665 11.6888 5.99995L11.6888 6.49994C11.6887 6.85892 11.9798 7.14994 12.3387 7.14995C12.6977 7.14995 12.9887 6.85894 12.9888 6.49995L12.9888 5.99996C12.9888 5.08868 12.25 4.34995 11.3388 4.34995H10.8388Z" fill="black"/>
<path d="M7.64202 4.34995C7.28303 4.34995 6.99202 4.64096 6.99202 4.99995C6.99202 5.35893 7.28303 5.64995 7.64202 5.64995H8.64202C9.00101 5.64995 9.29202 5.35893 9.29202 4.99995C9.29202 4.64096 9.00101 4.34995 8.64202 4.34995H7.64202Z" fill="black"/>
<path d="M8.69827 2.64292C8.69827 2.28393 8.98929 1.99292 9.34827 1.99292H10.3483C10.7073 1.99292 10.9983 2.28393 10.9983 2.64292C10.9983 3.0019 10.7073 3.29292 10.3483 3.29292H9.34827C8.98929 3.29292 8.69827 3.0019 8.69827 2.64292Z" fill="black"/>
</svg>
