<svg width="16" height="16" viewBox="0 0 16 16" fill="none" xmlns="http://www.w3.org/2000/svg">
<path fill-rule="evenodd" clip-rule="evenodd" d="M4 2C2.89543 2 2 2.89543 2 4V12C2 13.1046 2.89543 14 4 14H12C13.1046 14 14 13.1046 14 12V4C14 2.89543 13.1046 2 12 2H4ZM6.16667 5.47199C5.79848 5.47198 5.5 5.77046 5.5 6.13865V9.80532C5.5 10.1735 5.79848 10.472 6.16667 10.472L9.83333 10.472C10.2015 10.472 10.5 10.1735 10.5 9.80532V6.13865C10.5 5.77046 10.2015 5.47199 9.83333 5.47199L6.16667 5.47199Z" fill="black"/>
</svg>
