<svg xmlns="http://www.w3.org/2000/svg" width="16" height="16" fill="none" viewBox="0 0 16 16"><path fill="#000" fill-rule="evenodd" d="M8 15c3.866 0 7-3.134 7-7s-3.134-7-7-7-7 3.134-7 7 3.134 7 7 7m-.0438-9.5059a.8556.8556 0 0 0-.8556.8556.75.75 0 0 1-1.5 0c0-1.301 1.0546-2.3556 2.3556-2.3556h.044c1.3252 0 2.3995 1.0744 2.3995 2.3996v.0614a2.461 2.461 0 0 1-1.4373 2.238l-.2122.097a.75.75 0 0 1-1.5-.0009c0-.5864.342-1.1189.8752-1.3628l.213-.0974a.961.961 0 0 0 .5613-.874v-.0613a.8996.8996 0 0 0-.8995-.8996zM8.75 11.075a.75.75 0 1 1-1.5 0 .75.75 0 0 1 1.5 0"/></svg>