<svg width="16" height="16" viewBox="0 0 16 16" fill="none" xmlns="http://www.w3.org/2000/svg">
<path d="M7.99994 4.4433C8.41416 4.4433 8.74994 4.77909 8.74994 5.1933V8.10334C8.74994 8.51755 8.41416 8.85334 7.99994 8.85334C7.58573 8.85334 7.24994 8.51755 7.24994 8.10334V5.1933C7.24994 4.77909 7.58573 4.4433 7.99994 4.4433Z" fill="black"/>
<path d="M7.99985 11.5681C8.46929 11.5681 8.84984 11.1875 8.84984 10.7181C8.84984 10.2487 8.46929 9.86811 7.99985 9.86811C7.5304 9.86811 7.14985 10.2487 7.14985 10.7181C7.14985 11.1875 7.5304 11.5681 7.99985 11.5681Z" fill="black"/>
<path fill-rule="evenodd" clip-rule="evenodd" d="M1.41416 6.58573C0.633108 7.36678 0.633106 8.63311 1.41415 9.41415L6.58573 14.5857C7.36678 15.3668 8.63311 15.3668 9.41416 14.5857L14.5857 9.41416C15.3668 8.63311 15.3668 7.36678 14.5857 6.58573L9.41416 1.41416C8.63311 0.633108 7.36678 0.633106 6.58573 1.41415L1.41416 6.58573ZM7.50497 2.33339L2.3334 7.50497C2.06003 7.77834 2.06003 8.22155 2.33339 8.49492L7.50497 13.6665C7.77834 13.9399 8.22155 13.9399 8.49492 13.6665L13.6665 8.49492C13.9399 8.22155 13.9399 7.77833 13.6665 7.50497L8.49492 2.3334C8.22155 2.06003 7.77833 2.06003 7.50497 2.33339Z" fill="black"/>
</svg>
