<svg width="16" height="16" viewBox="0 0 16 16" fill="none" xmlns="http://www.w3.org/2000/svg">
<path fill-rule="evenodd" clip-rule="evenodd" d="M1.8501 4.81211C1.8501 3.34855 3.03654 2.16211 4.5001 2.16211H11.5001C12.9637 2.16211 14.1501 3.34855 14.1501 4.81211V11.8121C14.1501 13.2757 12.9637 14.4621 11.5001 14.4621H4.5001C3.03654 14.4621 1.8501 13.2757 1.8501 11.8121V4.81211ZM4.5001 3.46211C3.75451 3.46211 3.1501 4.06653 3.1501 4.81211V11.8121C3.1501 12.5577 3.75451 13.1621 4.5001 13.1621H11.5001C12.2457 13.1621 12.8501 12.5577 12.8501 11.8121V4.81211C12.8501 4.06653 12.2457 3.46211 11.5001 3.46211H4.5001Z" fill="black"/>
</svg>
