<svg width="16" height="16" viewBox="0 0 16 16" fill="none" xmlns="http://www.w3.org/2000/svg">
<path d="M10.9991 5.00521C11.2527 5.25924 11.2524 5.67079 10.9984 5.92445L9.22938 7.69091C9.25561 7.79291 9.26955 7.89984 9.26955 8.01002C9.26955 8.71573 8.69746 9.28782 7.99175 9.28782C7.28604 9.28782 6.71395 8.71573 6.71395 8.01002C6.71395 7.30431 7.28604 6.73222 7.99175 6.73222C8.10152 6.73222 8.20806 6.74606 8.30972 6.7721L10.0798 5.00455C10.3338 4.75089 10.7454 4.75119 10.9991 5.00521Z" fill="black"/>
<path fill-rule="evenodd" clip-rule="evenodd" d="M8.65 0.652197C8.65 0.293212 8.35898 0.00219727 8 0.00219727C7.64102 0.00219727 7.35 0.293212 7.35 0.652197V1.02971C3.78874 1.35762 1 4.3531 1 7.99993C1 11.8659 4.13401 14.9999 8 14.9999C11.866 14.9999 15 11.8659 15 7.99993C15 6.29813 14.3927 4.73817 13.383 3.52494C13.4101 3.50518 13.4361 3.48308 13.4605 3.45861L14.0603 2.85884L14.0678 2.85119L14.3754 3.15873C14.6292 3.41257 15.0408 3.41256 15.2946 3.15872C15.5485 2.90488 15.5485 2.49332 15.2946 2.23948L13.7604 0.705316C13.5066 0.451476 13.095 0.451478 12.8412 0.705319C12.5874 0.959161 12.5874 1.37072 12.8412 1.62456L13.1487 1.93208L13.1411 1.9396L12.5413 2.53937C12.5168 2.56384 12.4947 2.58977 12.475 2.61689C11.418 1.73724 10.0978 1.16302 8.65 1.02971V0.652197ZM13.7 7.99993C13.7 11.148 11.148 13.6999 8 13.6999C4.85198 13.6999 2.3 11.148 2.3 7.99993C2.3 4.85191 4.85198 2.29993 8 2.29993C11.148 2.29993 13.7 4.85191 13.7 7.99993Z" fill="black"/>
</svg>
