<svg xmlns="http://www.w3.org/2000/svg" width="16" height="16" fill="none" viewBox="0 0 16 16"><path fill="#000" fill-rule="evenodd" d="M8 .0023a.65.65 0 0 1 .65.65v.3775c1.4478.1333 2.768.7076 3.825 1.5872a.65.65 0 0 1 .0663-.0775l.5998-.5998.0076-.0075-.3075-.3075a.65.65 0 0 1 .9192-.9193l1.5342 1.5342a.65.65 0 1 1-.9192.9192l-.3076-.3075-.0075.0077-.5998.5997a.65.65 0 0 1-.0775.0664C14.3927 4.7383 15 6.2983 15 8c0 3.8659-3.134 7-7 7s-7-3.1341-7-7c0-3.6469 2.7887-6.6424 6.35-6.9703V.6523a.65.65 0 0 1 .65-.65m0 13.6978c3.148 0 5.7-2.552 5.7-5.7S11.148 2.3 8 2.3 2.3 4.852 2.3 8s2.552 5.7 5.7 5.7m2.9984-7.7755a.65.65 0 0 0-.9186-.92l-1.77 1.7676a1.28 1.28 0 0 0-.318-.0399c-.7058 0-1.2778.5721-1.2778 1.2778s.572 1.278 1.2778 1.278c.7057 0 1.2778-.572 1.2778-1.2778 0-.1101-.014-.217-.0402-.319z"/></svg>