<svg width="16" height="16" viewBox="0 0 16 16" fill="none" xmlns="http://www.w3.org/2000/svg">
<path d="M5.23545 4.64878C5.23545 5.06299 4.89966 5.39878 4.48545 5.39878C4.07124 5.39878 3.73545 5.06299 3.73545 4.64878C3.73545 4.23457 4.07124 3.89878 4.48545 3.89878C4.89966 3.89878 5.23545 4.23457 5.23545 4.64878Z" fill="black"/>
<path fill-rule="evenodd" clip-rule="evenodd" d="M1.11182 3.99517C1.11182 2.91821 1.98486 2.04517 3.06182 2.04517H12.9383C14.0152 2.04517 14.8883 2.91821 14.8883 3.99517V5.30237C14.8883 6.37932 14.0152 7.25237 12.9383 7.25237H8.6501V9.87306C9.0114 10.0338 9.30213 10.3244 9.46293 10.6857H14.3048C14.6638 10.6857 14.9548 10.9767 14.9548 11.3357C14.9548 11.6947 14.6638 11.9857 14.3048 11.9857H9.46296C9.21381 12.5454 8.65272 12.9357 8.00049 12.9357C7.34825 12.9357 6.78717 12.5454 6.53802 11.9857H1.69541C1.33643 11.9857 1.04541 11.6947 1.04541 11.3357C1.04541 10.9767 1.33643 10.6857 1.69541 10.6857H6.53804C6.69873 10.3247 6.98916 10.0342 7.3501 9.87341V7.25237H3.06182C1.98486 7.25237 1.11182 6.37932 1.11182 5.30237V3.99517ZM3.06182 3.34517C2.70283 3.34517 2.41182 3.63618 2.41182 3.99517V5.30237C2.41182 5.66135 2.70283 5.95237 3.06182 5.95237H12.9383C13.2973 5.95237 13.5883 5.66135 13.5883 5.30237V3.99517C13.5883 3.63618 13.2973 3.34517 12.9383 3.34517H3.06182Z" fill="black"/>
</svg>
