<svg xmlns="http://www.w3.org/2000/svg" width="16" height="16" fill="none" viewBox="0 0 16 16"><path fill="#000" fill-rule="evenodd" d="M3.0618 2.0452c-1.077 0-1.95.873-1.95 1.95v1.3072c0 1.077.873 1.95 1.95 1.95h4.2883v2.621a1.606 1.606 0 0 0-.812.8123H1.6954a.65.65 0 1 0 0 1.3H6.538c.2492.5597.8102.95 1.4625.95s1.2133-.3903 1.4624-.95h4.8419a.65.65 0 0 0 0-1.3H9.4629a1.606 1.606 0 0 0-.8128-.8126V7.2524h4.2882c1.077 0 1.95-.873 1.95-1.95V3.9952c0-1.077-.873-1.95-1.95-1.95zm-.65 1.95a.65.65 0 0 1 .65-.65h9.8765a.65.65 0 0 1 .65.65v1.3072a.65.65 0 0 1-.65.65H3.0618a.65.65 0 0 1-.65-.65zm2.0737 1.4036a.75.75 0 1 0 0-1.5.75.75 0 0 0 0 1.5"/></svg>