<svg xmlns="http://www.w3.org/2000/svg" width="16" height="16" fill="none" viewBox="0 0 16 16"><path fill="#000" fill-rule="evenodd" d="M5.667 1.3501c-.9112 0-1.65.7387-1.65 1.65v3.1454c-.7788.2906-1.3334 1.0412-1.3334 1.9213v4.5334c0 1.1322.9178 2.05 2.05 2.05h6.5333c1.1322 0 2.05-.9178 2.05-2.05V8.0668c0-.88-.5545-1.6305-1.3331-1.9211V3c0-.9113-.7388-1.65-1.65-1.65zm-.35 1.65a.35.35 0 0 1 .35-.35h4.6668a.35.35 0 0 1 .35.35v3.0167H5.3171zm1.35.3499a.65.65 0 0 1 .65.65v.6667a.65.65 0 1 1-1.3 0V4a.65.65 0 0 1 .65-.65m2.6667 0a.65.65 0 0 1 .65.65v.6667a.65.65 0 1 1-1.3 0V4a.65.65 0 0 1 .65-.65M3.9836 8.0668a.75.75 0 0 1 .75-.75h6.5333a.75.75 0 0 1 .75.75v4.5334a.75.75 0 0 1-.75.75H4.7336a.75.75 0 0 1-.75-.75zm1.8035 2.4365.0007-.0007.002-.0019-.0008.0008.0202-.0187a2 2 0 0 1 .1025-.0857 3.15 3.15 0 0 1 .4344-.2848 3.434 3.434 0 0 1 1.6544-.4212 3.434 3.434 0 0 1 1.6544.4212c.2803.1533.4645.3062.5314.3656q.0202.0182.0259.0237l.0016.0016a.65.65 0 0 0 .9449-.892c-.0783-.0879-.1729-.1629-.265-.2354a4.44 4.44 0 0 0-.615-.404 4.734 4.734 0 0 0-2.2782-.5807 4.734 4.734 0 0 0-2.2782.5806 4.45 4.45 0 0 0-.615.4041 3.3 3.3 0 0 0-.1683.1412 2 2 0 0 0-.0719.0678l-.0008.0008a.6501.6501 0 0 0 .9208.9177m1.2565 1.5581c.0673-.0664.4112-.3715.9377-.3715s.8703.3051.9377.3715a.65.65 0 1 0 .913-.9253c-.1653-.1632-.8218-.7462-1.8508-.7462s-1.6854.583-1.8508.7462a.65.65 0 1 0 .9132.9253"/></svg>