<svg width="16" height="16" viewBox="0 0 16 16" fill="none" xmlns="http://www.w3.org/2000/svg">
<path d="M6.66699 3.35C7.02598 3.35 7.31699 3.64102 7.31699 4V4.66667C7.31699 5.02565 7.02598 5.31667 6.66699 5.31667C6.30801 5.31667 6.01699 5.02565 6.01699 4.66667V4C6.01699 3.64102 6.30801 3.35 6.66699 3.35Z" fill="black"/>
<path d="M9.33366 3.35C9.69264 3.35 9.98366 3.64102 9.98366 4V4.66667C9.98366 5.02565 9.69264 5.31667 9.33366 5.31667C8.97467 5.31667 8.68366 5.02565 8.68366 4.66667V4C8.68366 3.64102 8.97467 3.35 9.33366 3.35Z" fill="black"/>
<path d="M7.98126 11.6899C7.45483 11.6899 7.11088 11.995 7.04358 12.0614C6.78806 12.3136 6.37652 12.3108 6.12436 12.0553C5.87221 11.7998 5.87493 11.3883 6.13044 11.1361C6.2958 10.9729 6.95234 10.3899 7.98126 10.3899C9.01019 10.3899 9.66673 10.9729 9.83208 11.1361C10.0876 11.3883 10.0903 11.7998 9.83817 12.0553C9.58601 12.3108 9.17446 12.3136 8.91895 12.0614C8.85164 11.995 8.5077 11.6899 7.98126 11.6899Z" fill="black"/>
<path fill-rule="evenodd" clip-rule="evenodd" d="M5.78708 10.5033L5.78895 10.5015C5.79217 10.4985 5.79895 10.4921 5.80922 10.4828C5.82978 10.4643 5.86414 10.4345 5.91165 10.3971C6.00697 10.322 6.15341 10.2177 6.34608 10.1123C6.73134 9.90166 7.29269 9.69111 8.0005 9.69111C8.70831 9.69111 9.26967 9.90166 9.65493 10.1123C9.93524 10.2656 10.1194 10.4185 10.1863 10.4779C10.1997 10.4899 10.2084 10.498 10.2122 10.5016L10.2138 10.5032C10.2227 10.5121 10.2317 10.5206 10.2409 10.5288C10.4951 10.7552 10.8849 10.7477 11.1301 10.5049C11.3769 10.2606 11.3869 9.86748 11.1586 9.61115C11.0804 9.52331 10.9858 9.44829 10.8937 9.37579C10.7506 9.26302 10.544 9.11684 10.2786 8.97173C9.74786 8.68149 8.97307 8.39111 8.0005 8.39111C7.02794 8.39111 6.25315 8.68149 5.72236 8.97173C5.45701 9.11684 5.25045 9.26302 5.10727 9.37579C5.03554 9.43229 4.97928 9.48075 4.93903 9.51701C4.91457 9.53905 4.89039 9.56153 4.86712 9.58483L4.86632 9.58564C4.85806 9.59398 4.85008 9.60248 4.84236 9.61115C4.61415 9.86748 4.62414 10.2606 4.8709 10.5049C5.12498 10.7564 5.53425 10.7554 5.78708 10.5033ZM5.78783 10.5026C5.78848 10.5019 5.78912 10.5013 5.78976 10.5007L5.78895 10.5015L5.78783 10.5026Z" fill="black"/>
<path fill-rule="evenodd" clip-rule="evenodd" d="M4.01709 3.0001C4.01709 2.08883 4.75582 1.3501 5.66709 1.3501H10.3338C11.245 1.3501 11.9838 2.08883 11.9838 3.0001V6.14566C12.7624 6.43633 13.3169 7.18683 13.3169 8.06685V12.6002C13.3169 13.7324 12.3991 14.6502 11.2669 14.6502H4.73359C3.60141 14.6502 2.68359 13.7324 2.68359 12.6002V8.06685C2.68359 7.18671 3.23825 6.43612 4.01709 6.14554V3.0001ZM5.66709 2.6501C5.47379 2.6501 5.31709 2.8068 5.31709 3.0001V6.01676H10.6838V3.0001C10.6838 2.8068 10.5271 2.6501 10.3338 2.6501H5.66709ZM4.73359 7.31685C4.31938 7.31685 3.98359 7.65263 3.98359 8.06685V12.6002C3.98359 13.0144 4.31938 13.3502 4.73359 13.3502H11.2669C11.6811 13.3502 12.0169 13.0144 12.0169 12.6002V8.06685C12.0169 7.65263 11.6811 7.31685 11.2669 7.31685H4.73359Z" fill="black"/>
</svg>
