<svg xmlns="http://www.w3.org/2000/svg" width="16" height="16" fill="none" viewBox="0 0 16 16"><path fill="#000" fill-rule="evenodd" d="M4.9052 2.6c0-.9113.7387-1.65 1.65-1.65h2.8903c.9112 0 1.65.7387 1.65 1.65v1.9662c0 .9113-.7388 1.65-1.65 1.65h-.7952V7.223h3.0701a.65.65 0 0 1 .65.65v1.9106h.988c.9113 0 1.65.7388 1.65 1.65v1.9663c0 .9113-.7387 1.65-1.65 1.65h-2.8903c-.9112 0-1.65-.7387-1.65-1.65v-1.9663c0-.9112.7387-1.65 1.65-1.65h.6023V8.523h-6.14v1.2606h.6021c.9113 0 1.65.7388 1.65 1.65v1.9663c0 .9113-.7387 1.65-1.65 1.65H2.6422c-.9113 0-1.65-.7387-1.65-1.65v-1.9663c0-.9112.7387-1.65 1.65-1.65h.9881V7.873a.65.65 0 0 1 .65-.65h3.07V6.2162h-.7951c-.9113 0-1.65-.7387-1.65-1.65zm1.65-.35a.35.35 0 0 0-.35.35v1.9662a.35.35 0 0 0 .35.35h2.8903a.35.35 0 0 0 .35-.35V2.6a.35.35 0 0 0-.35-.35zm-3.913 8.8336a.35.35 0 0 0-.35.35v1.9663a.35.35 0 0 0 .35.35h2.8903a.35.35 0 0 0 .35-.35v-1.9663a.35.35 0 0 0-.35-.35zm7.4759.35a.35.35 0 0 1 .35-.35h2.8903a.35.35 0 0 1 .35.35v1.9663a.35.35 0 0 1-.35.35h-2.8903a.35.35 0 0 1-.35-.35z"/></svg>