<svg xmlns="http://www.w3.org/2000/svg" width="16" height="16" fill="none" viewBox="0 0 16 16"><path fill="#000" fill-rule="evenodd" d="M1.35 3.3333c0-1.0954.888-1.9833 1.9833-1.9833s1.9834.888 1.9834 1.9833-.888 1.9833-1.9833 1.9833S1.35 4.4286 1.35 3.3333M3.3333 2.65a.6833.6833 0 1 0 0 1.3667.6833.6833 0 0 0 0-1.3667m3.793 12.4763a.65.65 0 0 1-.9192-.9193l.8903-.8904h-2.764c-1.6477 0-2.9834-1.3356-2.9834-2.9833S2.6857 7.35 4.3334 7.35h7.3333c.9296 0 1.6833-.7537 1.6833-1.6834s-.7537-1.6833-1.6833-1.6833H7.3334a.65.65 0 1 1 0-1.3h4.3333c1.6476 0 2.9833 1.3357 2.9833 2.9833 0 1.6477-1.3357 2.9834-2.9833 2.9834H4.3334c-.9297 0-1.6834.7536-1.6834 1.6833s.7537 1.6833 1.6834 1.6833h2.764l-.8904-.8903a.65.65 0 0 1 .9193-.9193l2 2a.65.65 0 0 1 0 .9193zm3.557-2.4597c0-1.0953.888-1.9833 1.9834-1.9833 1.0953 0 1.9833.888 1.9833 1.9833s-.888 1.9834-1.9833 1.9834-1.9834-.888-1.9834-1.9834"/></svg>