<svg width="16" height="16" viewBox="0 0 16 16" fill="none" xmlns="http://www.w3.org/2000/svg">
<path fill-rule="evenodd" clip-rule="evenodd" d="M6.63298 2.30835C5.83217 2.30835 5.18298 2.95754 5.18298 3.75835V4.52168C3.97666 4.56301 3.01141 5.55395 3.01141 6.77034V8.93044H2.29961C1.4988 8.93044 0.849609 9.57962 0.849609 10.3804V12.453C0.849609 13.2538 1.4988 13.903 2.29961 13.903H5.03294C5.83376 13.903 6.48294 13.2538 6.48294 12.453V10.3804C6.48294 9.57962 5.83376 8.93044 5.03294 8.93044H4.31141V6.77034C4.31141 6.27208 4.695 5.86341 5.18298 5.82353V5.83087C5.18298 6.63168 5.83217 7.28087 6.63298 7.28087H9.36632C10.1671 7.28087 10.8163 6.63168 10.8163 5.83087V5.82457C11.2986 5.87004 11.676 6.27612 11.676 6.77034V8.93044H10.9662C10.1654 8.93044 9.51624 9.57962 9.51624 10.3804V12.453C9.51624 13.2538 10.1654 13.903 10.9662 13.903H13.6996C14.5004 13.903 15.1496 13.2538 15.1496 12.453V10.3804C15.1496 9.57962 14.5004 8.93044 13.6996 8.93044H12.976V6.77034C12.976 5.55793 12.0171 4.5695 10.8163 4.52212V3.75835C10.8163 2.95754 10.1671 2.30835 9.36632 2.30835H6.63298ZM6.48298 3.75835C6.48298 3.67551 6.55014 3.60835 6.63298 3.60835H9.36632C9.44916 3.60835 9.51632 3.67551 9.51632 3.75835V5.83087C9.51632 5.91371 9.44916 5.98087 9.36632 5.98087H6.63298C6.55014 5.98087 6.48298 5.91371 6.48298 5.83087V3.75835ZM2.14961 10.3804C2.14961 10.2976 2.21677 10.2304 2.29961 10.2304H5.03294C5.11579 10.2304 5.18294 10.2976 5.18294 10.3804V12.453C5.18294 12.5358 5.11578 12.603 5.03294 12.603H2.29961C2.21677 12.603 2.14961 12.5358 2.14961 12.453V10.3804ZM10.9662 10.2304C10.8834 10.2304 10.8162 10.2976 10.8162 10.3804V12.453C10.8162 12.5358 10.8834 12.603 10.9662 12.603H13.6996C13.7824 12.603 13.8496 12.5358 13.8496 12.453V10.3804C13.8496 10.2976 13.7824 10.2304 13.6996 10.2304H10.9662Z" fill="black"/>
</svg>
