<svg xmlns="http://www.w3.org/2000/svg" width="16" height="16" fill="none" viewBox="0 0 16 16"><path fill="#000" fill-rule="evenodd" d="M6.633 2.2026c-.8008 0-1.45.6492-1.45 1.45v.7634c-1.2063.0413-2.1716 1.0322-2.1716 2.2486v2.1601h-.7118c-.8008 0-1.45.6492-1.45 1.45v2.0725c0 .8009.6492 1.45 1.45 1.45H5.033c.8009 0 1.45-.6491 1.45-1.45v-2.0725c0-.8008-.6491-1.45-1.45-1.45h-.7215v-2.16c0-.4983.3836-.907.8716-.9469v.0074c0 .8008.6492 1.45 1.45 1.45h2.7333c.8008 0 1.45-.6492 1.45-1.45v-.0063c.4823.0454.8597.4515.8597.9457v2.1601h-.7098c-.8008 0-1.45.6492-1.45 1.45v2.0725c0 .8009.6492 1.45 1.45 1.45h2.7334c.8008 0 1.45-.6491 1.45-1.45v-2.0725c0-.8008-.6492-1.45-1.45-1.45h-.7236v-2.16c0-1.2125-.9589-2.201-2.1597-2.2483v-.7638c0-.8008-.6492-1.45-1.45-1.45zm-.15 1.45a.15.15 0 0 1 .15-.15h2.7333a.15.15 0 0 1 .15.15v2.0726a.15.15 0 0 1-.15.15H6.633a.15.15 0 0 1-.15-.15zm-4.3334 6.6221a.15.15 0 0 1 .15-.15H5.033a.15.15 0 0 1 .15.15v2.0725a.15.15 0 0 1-.15.15H2.2996a.15.15 0 0 1-.15-.15zm8.8166-.15a.15.15 0 0 0-.15.15v2.0725a.15.15 0 0 0 .15.15h2.7334a.15.15 0 0 0 .15-.15v-2.0725a.15.15 0 0 0-.15-.15z"/></svg>