<svg xmlns="http://www.w3.org/2000/svg" width="16" height="16" fill="none" viewBox="0 0 16 16"><path fill="#000" fill-rule="evenodd" d="M8.0001 1.35c-3.6727 0-6.65 2.9773-6.65 6.65s2.9773 6.65 6.65 6.65 6.65-2.9773 6.65-6.65-2.9773-6.65-6.65-6.65M4.7045 3.7852A5.327 5.327 0 0 1 8.0001 2.65a5.327 5.327 0 0 1 3.2955 1.1352L9.3574 5.7235A2.64 2.64 0 0 0 8 5.35a2.64 2.64 0 0 0-1.3573.3735zm1.019 2.8575L3.7854 4.7045A5.327 5.327 0 0 0 2.6501 8c0 1.243.424 2.3872 1.1352 3.2955l1.9383-1.9383A2.64 2.64 0 0 1 5.35 8c0-.496.1363-.9603.3735-1.3573m.9193 3.6338-1.9383 1.9383A5.327 5.327 0 0 0 8.0001 13.35a5.327 5.327 0 0 0 3.2955-1.1352l-1.9382-1.9383A2.64 2.64 0 0 1 8 10.65a2.64 2.64 0 0 1-1.3573-.3735m3.6338-.9192 1.9383 1.9382A5.327 5.327 0 0 0 13.3501 8a5.327 5.327 0 0 0-1.1352-3.2956l-1.9383 1.9383c.2372.397.3735.8612.3735 1.3573s-.1363.9603-.3735 1.3573M6.6501 8c0-.7456.6044-1.35 1.35-1.35s1.35.6044 1.35 1.35-.6044 1.35-1.35 1.35-1.35-.6044-1.35-1.35"/></svg>