<svg xmlns="http://www.w3.org/2000/svg" width="16" height="16" fill="none" viewBox="0 0 16 16"><path fill="#000" fill-rule="evenodd" d="M8.0004 1.05c-3.108 0-5.6274 2.5195-5.6274 5.6274v3.7085c0 1.0483.85 1.8982 1.8983 1.8982s1.8982-.8499 1.8982-1.8982V8.8836c0-1.0483-.8498-1.8982-1.8982-1.8982-.209 0-.4102.0338-.5983.0962v-.4042c0-2.39 1.9375-4.3273 4.3274-4.3273s4.3273 1.9374 4.3273 4.3273v.4042a1.9 1.9 0 0 0-.5982-.0962c-1.0484 0-1.8983.8499-1.8983 1.8982v1.5023c0 1.0483.8499 1.8982 1.8983 1.8982.209 0 .4102-.0338.5983-.0962V12.3c0 .7456-.6045 1.35-1.35 1.35H8.6896a.65.65 0 0 0 0 1.3h2.2882c1.4635 0 2.65-1.1864 2.65-2.65V9.8916l-.0001-.0077V6.6774c0-3.108-2.5194-5.6273-5.6273-5.6273M3.673 8.8837v1.5023a.5982.5982 0 0 0 1.1965 0V8.8836a.5982.5982 0 0 0-1.1965 0m8.0565-.5982a.5983.5983 0 0 0-.5983.5982v1.5023a.5983.5983 0 0 0 1.1965 0V8.8836a.598.598 0 0 0-.5982-.5982"/></svg>