<svg width="16" height="16" viewBox="0 0 16 16" fill="none" xmlns="http://www.w3.org/2000/svg">
<path d="M1.02393 4.10357C1.02393 3.02661 1.89697 2.15356 2.97393 2.15356H13.0505C14.1274 2.15356 15.0005 3.02661 15.0005 4.10356V5.47343C15.0005 5.70989 14.9584 5.93652 14.8813 6.14624C14.5255 5.89573 14.1204 5.71205 13.6856 5.61241C13.6954 5.56763 13.7005 5.52113 13.7005 5.47343V4.10356C13.7005 3.74458 13.4095 3.45356 13.0505 3.45356H2.97393C2.61494 3.45356 2.32393 3.74458 2.32393 4.10357V5.47343C2.32393 5.83242 2.61494 6.12343 2.97393 6.12343H11.0035C10.5241 6.45103 10.1308 6.89778 9.86969 7.42343H2.97393C1.89697 7.42343 1.02393 6.55039 1.02393 5.47343V4.10357Z" fill="black"/>
<path d="M2.97393 8.43872H9.55366C9.53086 8.5974 9.51904 8.75984 9.51904 8.92534C9.51904 9.21565 9.58248 9.49115 9.69626 9.73872H2.97393C2.61494 9.73872 2.32393 10.0297 2.32393 10.3887V11.7586C2.32393 12.1176 2.61494 12.4086 2.97393 12.4086H11.0851C10.962 12.67 10.8932 12.962 10.8932 13.2701C10.8932 13.4206 10.9096 13.5674 10.9408 13.7086H2.97393C1.89697 13.7086 1.02393 12.8355 1.02393 11.7586V10.3887C1.02393 9.31177 1.89697 8.43872 2.97393 8.43872Z" fill="black"/>
<path d="M4.09258 4.12583C3.92689 4.12583 3.79258 4.26014 3.79258 4.42583V5.15117C3.79258 5.31685 3.92689 5.45117 4.09258 5.45117H4.81792C4.9836 5.45117 5.11792 5.31685 5.11792 5.15117V4.42583C5.11792 4.26014 4.9836 4.12583 4.81792 4.12583H4.09258Z" fill="black"/>
<path d="M6.44736 4.42583C6.44736 4.26014 6.58168 4.12583 6.74736 4.12583H7.4727C7.63839 4.12583 7.7727 4.26014 7.7727 4.42583V5.15117C7.7727 5.31685 7.63839 5.45117 7.4727 5.45117H6.74736C6.58168 5.45117 6.44736 5.31685 6.44736 5.15117V4.42583Z" fill="black"/>
<path d="M3.79258 10.7107C3.79258 10.5451 3.92689 10.4107 4.09258 10.4107H4.81792C4.9836 10.4107 5.11792 10.5451 5.11792 10.7107V11.4361C5.11792 11.6018 4.9836 11.7361 4.81792 11.7361H4.09258C3.92689 11.7361 3.79258 11.6018 3.79258 11.4361V10.7107Z" fill="black"/>
<path d="M6.44736 10.7107C6.44736 10.5451 6.58168 10.4107 6.74736 10.4107H7.4727C7.63839 10.4107 7.7727 10.5451 7.7727 10.7107V11.4361C7.7727 11.6018 7.63839 11.7361 7.4727 11.7361H6.74736C6.58168 11.7361 6.44736 11.6018 6.44736 11.4361V10.7107Z" fill="black"/>
<path d="M12.9302 8.1269C12.482 8.1269 12.1193 8.4916 12.1193 8.92515C12.1193 9.28413 11.8283 9.57515 11.4693 9.57515C11.1104 9.57515 10.8193 9.28413 10.8193 8.92515C10.8193 7.75901 11.7787 6.8269 12.9302 6.8269C14.0678 6.8269 15.0158 7.7478 15.0158 8.90012V9.11564C15.0158 9.94031 14.4546 10.6591 13.6545 10.8592C13.6034 10.8719 13.5676 10.9178 13.5676 10.9705V11.4596C13.5676 11.8186 13.2766 12.1096 12.9176 12.1096C12.5586 12.1096 12.2676 11.8186 12.2676 11.4596V10.9705C12.2676 10.3213 12.7094 9.75543 13.3392 9.59797C13.5606 9.54264 13.7158 9.34378 13.7158 9.11564V8.90012C13.7158 8.4804 13.3646 8.1269 12.9302 8.1269Z" fill="black"/>
<path d="M13.6417 13.2699C13.6417 13.6698 13.3175 13.994 12.9176 13.994C12.5177 13.994 12.1935 13.6698 12.1935 13.2699C12.1935 12.87 12.5177 12.5458 12.9176 12.5458C13.3175 12.5458 13.6417 12.87 13.6417 13.2699Z" fill="black"/>
</svg>
