<svg xmlns="http://www.w3.org/2000/svg" width="16" height="16" fill="none" viewBox="0 0 16 16"><path fill="#000" fill-rule="evenodd" d="M1.0236 4.104c0-1.077.873-1.95 1.95-1.95H13.05c1.077 0 1.95.873 1.95 1.95v1.3698c0 .2365-.042.4632-.1191.6729a3.4 3.4 0 0 0-1.1957-.5339.66.66 0 0 0 .0148-.139V4.104a.65.65 0 0 0-.65-.65H2.9736a.65.65 0 0 0-.65.65v1.3698c0 .359.291.65.65.65h8.0295a3.42 3.42 0 0 0-1.1337 1.3H2.9736c-1.077 0-1.95-.873-1.95-1.95zm5.7234.0222a.3.3 0 0 0-.3.3v.7254a.3.3 0 0 0 .3.3h.7254a.3.3 0 0 0 .3-.3v-.7254a.3.3 0 0 0-.3-.3zm-2.6547 0a.3.3 0 0 0-.3.3v.7254a.3.3 0 0 0 .3.3h.7253a.3.3 0 0 0 .3-.3v-.7254a.3.3 0 0 0-.3-.3zm8.0267 4.7994c0-.4336.3626-.7983.8109-.7983.4344 0 .7856.3535.7856.7733v.2155a.497.497 0 0 1-.3766.4823 1.415 1.415 0 0 0-1.0716 1.3726v.489a.6499.6499 0 1 0 1.2999 0v-.489a.115.115 0 0 1 .087-.1114c.8-.2 1.3613-.9189 1.3613-1.7435v-.2155c0-1.1524-.948-2.0733-2.0856-2.0733-1.1515 0-2.1109.9321-2.1109 2.0983a.65.65 0 1 0 1.3 0m-2.5657-.4864H2.9736c-1.077 0-1.95.873-1.95 1.95v1.3698c0 1.077.873 1.95 1.95 1.95h7.9668a2.04 2.04 0 0 1-.0476-.4385c0-.3081.0688-.6001.192-.8615H2.9736a.65.65 0 0 1-.65-.65v-1.3698a.65.65 0 0 1 .65-.65h6.7223a1.94 1.94 0 0 1-.1772-.8134q.0002-.2484.0346-.4867m-5.461 1.972a.3.3 0 0 0-.3.3v.7253a.3.3 0 0 0 .3.3h.7253a.3.3 0 0 0 .3-.3v-.7253a.3.3 0 0 0-.3-.3zm2.6547 0a.3.3 0 0 0-.3.3v.7253a.3.3 0 0 0 .3.3h.7254a.3.3 0 0 0 .3-.3v-.7253a.3.3 0 0 0-.3-.3zm6.8944 2.8591a.7241.7241 0 1 1-1.4483 0 .7241.7241 0 0 1 1.4483 0"/><path d="M1.0236 4.104v1.3699c0 1.077.873 1.95 1.95 1.95h6.8958a3.42 3.42 0 0 1 1.1337-1.3H2.9736a.65.65 0 0 1-.65-.65v-1.37a.65.65 0 0 1 .65-.65h10.0766a.65.65 0 0 1 .65.65v1.37a.66.66 0 0 1-.0149.139 3.4 3.4 0 0 1 1.1957.5338 1.95 1.95 0 0 0 .1192-.6728v-1.37c0-1.0769-.8731-1.95-1.95-1.95H2.9736c-1.077 0-1.95.8731-1.95 1.95m1.95 4.3351c-1.077 0-1.95.873-1.95 1.95v1.3699c0 1.077.873 1.95 1.95 1.95h7.9669a2.03 2.03 0 0 1-.0477-.4385c0-.3081.0689-.6001.192-.8615H2.9736a.65.65 0 0 1-.65-.65V10.389a.65.65 0 0 1 .65-.65h6.7223a1.94 1.94 0 0 1-.1772-.8133q.0002-.2484.0346-.4867zm1.1186-4.3128h.7254a.3.3 0 0 1 .3.3v.7253a.3.3 0 0 1-.3.3h-.7254a.3.3 0 0 1-.3-.3v-.7253a.3.3 0 0 1 .3-.3m2.3548.3v.7253a.3.3 0 0 0 .3.3h.7254a.3.3 0 0 0 .3-.3v-.7253a.3.3 0 0 0-.3-.3H6.747a.3.3 0 0 0-.3.3m-2.6548 6.2849v.7253a.3.3 0 0 0 .3.3h.7254a.3.3 0 0 0 .3-.3v-.7253a.3.3 0 0 0-.3-.3h-.7254a.3.3 0 0 0-.3.3m2.6548 0v.7253a.3.3 0 0 0 .3.3h.7254a.3.3 0 0 0 .3-.3v-.7253a.3.3 0 0 0-.3-.3H6.747a.3.3 0 0 0-.3.3m6.483-2.5838c.4344 0 .7856.3535.7856.7733v.2155a.497.497 0 0 1-.3766.4823 1.415 1.415 0 0 0-1.0717 1.3725v.4891a.65.65 0 0 0 1.3 0v-.4891a.115.115 0 0 1 .087-.1113c.8-.2 1.3613-.9189 1.3613-1.7435v-.2155c0-1.1524-.948-2.0733-2.0856-2.0733-1.1515 0-2.1109.9321-2.1109 2.0983a.65.65 0 1 0 1.3 0c0-.4336.3627-.7983.8109-.7983m.7115 5.143a.7241.7241 0 1 0-1.4483 0 .7241.7241 0 0 0 1.4483 0"/></svg>