<svg xmlns="http://www.w3.org/2000/svg" width="16" height="16" fill="none" viewBox="0 0 16 16"><path fill="#000" fill-rule="evenodd" d="M3.0506 2.2943c-1.077 0-1.95.873-1.95 1.95v1.3143c0 1.077.873 1.95 1.95 1.95h9.899c1.077 0 1.95-.873 1.95-1.95V4.2443c0-1.077-.873-1.95-1.95-1.95zm-.65 1.95a.65.65 0 0 1 .65-.65h9.899a.65.65 0 0 1 .65.65v1.3143a.65.65 0 0 1-.65.65h-9.899a.65.65 0 0 1-.65-.65zm1.7398.0037a.3.3 0 0 0-.3.3v.7068a.3.3 0 0 0 .3.3h.7068a.3.3 0 0 0 .3-.3V4.548a.3.3 0 0 0-.3-.3zm2.6172 0a.3.3 0 0 0-.3.3v.7068a.3.3 0 0 0 .3.3h.7068a.3.3 0 0 0 .3-.3V4.548a.3.3 0 0 0-.3-.3zm-3.707 4.2435c-1.077 0-1.95.873-1.95 1.95v1.3142c0 1.077.873 1.95 1.95 1.95h9.899c1.077 0 1.95-.873 1.95-1.95v-1.3142c0-1.077-.873-1.95-1.95-1.95zm-.65 1.95a.65.65 0 0 1 .65-.65h9.899a.65.65 0 0 1 .65.65v1.3142a.65.65 0 0 1-.65.65h-9.899a.65.65 0 0 1-.65-.65zm1.4398.3036a.3.3 0 0 1 .3-.3h.7068a.3.3 0 0 1 .3.3v.7067a.3.3 0 0 1-.3.3h-.7068a.3.3 0 0 1-.3-.3zm2.6172 0a.3.3 0 0 1 .3-.3h.7068a.3.3 0 0 1 .3.3v.7067a.3.3 0 0 1-.3.3h-.7068a.3.3 0 0 1-.3-.3z"/></svg>