<svg width="16" height="16" viewBox="0 0 16 16" fill="none" xmlns="http://www.w3.org/2000/svg">
<path d="M3.84043 4.54814C3.84043 4.38246 3.97474 4.24814 4.14043 4.24814H4.84721C5.01289 4.24814 5.14721 4.38246 5.14721 4.54814V5.25492C5.14721 5.42061 5.01289 5.55492 4.84721 5.55492H4.14043C3.97474 5.55492 3.84043 5.42061 3.84043 5.25492V4.54814Z" fill="black"/>
<path d="M6.45762 4.54814C6.45762 4.38246 6.59193 4.24814 6.75762 4.24814H7.46439C7.63008 4.24814 7.76439 4.38246 7.76439 4.54814V5.25492C7.76439 5.42061 7.63008 5.55492 7.46439 5.55492H6.75762C6.59193 5.55492 6.45762 5.42061 6.45762 5.25492V4.54814Z" fill="black"/>
<path fill-rule="evenodd" clip-rule="evenodd" d="M3.05059 2.29443C1.97363 2.29443 1.10059 3.16748 1.10059 4.24443V5.5587C1.10059 6.63566 1.97363 7.5087 3.05059 7.5087H12.9496C14.0266 7.5087 14.8996 6.63566 14.8996 5.5587V4.24443C14.8996 3.16748 14.0266 2.29443 12.9496 2.29443H3.05059ZM2.40059 4.24443C2.40059 3.88545 2.6916 3.59443 3.05059 3.59443H12.9496C13.3086 3.59443 13.5996 3.88545 13.5996 4.24443V5.5587C13.5996 5.91769 13.3086 6.2087 12.9496 6.2087H3.05059C2.6916 6.2087 2.40059 5.91768 2.40059 5.5587V4.24443Z" fill="black"/>
<path d="M4.14043 10.4452C3.97474 10.4452 3.84043 10.5795 3.84043 10.7452V11.4519C3.84043 11.6176 3.97474 11.7519 4.14043 11.7519H4.84721C5.01289 11.7519 5.14721 11.6176 5.14721 11.4519V10.7452C5.14721 10.5795 5.01289 10.4452 4.84721 10.4452H4.14043Z" fill="black"/>
<path d="M6.75762 10.4452C6.59193 10.4452 6.45762 10.5795 6.45762 10.7452V11.4519C6.45762 11.6176 6.59193 11.7519 6.75762 11.7519H7.46439C7.63008 11.7519 7.76439 11.6176 7.76439 11.4519V10.7452C7.76439 10.5795 7.63008 10.4452 7.46439 10.4452H6.75762Z" fill="black"/>
<path fill-rule="evenodd" clip-rule="evenodd" d="M3.05059 8.49158C1.97363 8.49158 1.10059 9.36462 1.10059 10.4416V11.7558C1.10059 12.8328 1.97363 13.7058 3.05059 13.7058H12.9496C14.0266 13.7058 14.8996 12.8328 14.8996 11.7558V10.4416C14.8996 9.36462 14.0266 8.49158 12.9496 8.49158H3.05059ZM2.40059 10.4416C2.40059 10.0826 2.6916 9.79158 3.05059 9.79158H12.9496C13.3086 9.79158 13.5996 10.0826 13.5996 10.4416V11.7558C13.5996 12.1148 13.3086 12.4058 12.9496 12.4058H3.05059C2.6916 12.4058 2.40059 12.1148 2.40059 11.7558V10.4416Z" fill="black"/>
</svg>
