<svg xmlns="http://www.w3.org/2000/svg" width="16" height="16" fill="none" viewBox="0 0 16 16"><path fill="#000" fill-rule="evenodd" d="M11.5404 1.5404a.65.65 0 0 1 .9192 0l2 2a.65.65 0 0 1 0 .9192l-2 2a.65.65 0 1 1-.9192-.9192l.8904-.8904H9.4415a1.35 1.35 0 0 0-1.2807.923l-.4216 1.265a2.65 2.65 0 0 1-2.514 1.812H2a.65.65 0 1 1 0-1.3h3.2252a1.35 1.35 0 0 0 1.2807-.9231l.4216-1.265a2.65 2.65 0 0 1 2.514-1.812h2.9893l-.8904-.8903a.65.65 0 0 1 0-.9192m0 12.9192a.65.65 0 0 0 .9192 0l2-2a.65.65 0 0 0 0-.9192l-2-2a.65.65 0 0 0-.9192 0 .65.65 0 0 0 0 .9192l.8904.8904H9.2361a1.35 1.35 0 0 1-1.2075-.7463l-.4472-.8944a.65.65 0 1 0-1.1628.5814l.4473.8944A2.65 2.65 0 0 0 9.236 12.65h3.1947l-.8904.8904a.65.65 0 0 0 0 .9192"/></svg>