<svg width="16" height="16" viewBox="0 0 16 16" fill="none" xmlns="http://www.w3.org/2000/svg">
<path d="M4.44774 4.67217C4.89095 4.67217 5.25025 4.31287 5.25025 3.86966C5.25025 3.42645 4.89095 3.06716 4.44774 3.06716C4.00453 3.06716 3.64524 3.42645 3.64524 3.86966C3.64524 4.31287 4.00453 4.67217 4.44774 4.67217Z" fill="black"/>
<path d="M7.65485 3.86966C7.65485 4.31287 7.29555 4.67217 6.85234 4.67217C6.40913 4.67217 6.04984 4.31287 6.04984 3.86966C6.04984 3.42645 6.40913 3.06716 6.85234 3.06716C7.29555 3.06716 7.65485 3.42645 7.65485 3.86966Z" fill="black"/>
<path fill-rule="evenodd" clip-rule="evenodd" d="M0.953613 3.16582C0.953613 2.08887 1.82666 1.21582 2.90361 1.21582H13.1036C14.1806 1.21582 15.0536 2.08886 15.0536 3.16582V4.57434C15.0536 5.6513 14.1806 6.52434 13.1036 6.52434H2.90361C1.82666 6.52434 0.953613 5.6513 0.953613 4.57434V3.16582ZM2.90361 2.51582C2.54463 2.51582 2.25361 2.80684 2.25361 3.16582V4.57434C2.25361 4.93333 2.54463 5.22434 2.90361 5.22434H13.1036C13.4626 5.22434 13.7536 4.93333 13.7536 4.57434V3.16582C13.7536 2.80684 13.4626 2.51582 13.1036 2.51582H2.90361Z" fill="black"/>
<path d="M0.953613 9.51209C0.953613 8.43513 1.82666 7.56209 2.90361 7.56209H13.1036C14.1806 7.56209 15.0536 8.43513 15.0536 9.51209V10.2163H13.7536V9.51209C13.7536 9.1531 13.4626 8.86209 13.1036 8.86209H2.90361C2.54463 8.86209 2.25361 9.1531 2.25361 9.51209V10.9206C2.25361 11.2796 2.54463 11.5706 2.90361 11.5706H3.12161V12.8706H2.90361C1.82666 12.8706 0.953613 11.9976 0.953613 10.9206V9.51209Z" fill="black"/>
<path d="M5.30586 11.6524C5.30586 11.2935 5.01484 11.0024 4.65586 11.0024C4.29687 11.0024 4.00586 11.2935 4.00586 11.6524V15.3468C4.00586 15.7058 4.29687 15.9968 4.65586 15.9968H6.50306C6.86204 15.9968 7.15306 15.7058 7.15306 15.3468C7.15306 14.9879 6.86204 14.6968 6.50306 14.6968H5.30586V11.6524Z" fill="black"/>
<path fill-rule="evenodd" clip-rule="evenodd" d="M7.30811 13.0378C7.30811 11.9137 8.21938 11.0024 9.3435 11.0024C10.4676 11.0024 11.3789 11.9137 11.3789 13.0378V13.9614C11.3789 15.0856 10.4676 15.9968 9.3435 15.9968C8.21938 15.9968 7.30811 15.0856 7.30811 13.9614V13.0378ZM9.3435 12.3024C8.93736 12.3024 8.60811 12.6317 8.60811 13.0378V13.9614C8.60811 14.3676 8.93736 14.6968 9.3435 14.6968C9.74965 14.6968 10.0789 14.3676 10.0789 13.9614V13.0378C10.0789 12.6317 9.74965 12.3024 9.3435 12.3024Z" fill="black"/>
<path d="M13.9615 11.0024C12.8374 11.0024 11.9261 11.9137 11.9261 13.0378V13.9614C11.9261 15.0856 12.8374 15.9968 13.9615 15.9968C15.0353 15.9968 15.9144 15.1658 15.9915 14.1113C15.9962 14.0474 15.9969 13.8309 15.9969 13.8099C15.9969 13.4509 15.7059 13.1599 15.3469 13.1599H14.4757C14.1167 13.1599 13.8257 13.4509 13.8257 13.8099C13.8257 14.1689 14.1167 14.4599 14.4757 14.4599H14.5023C14.3678 14.6055 14.1753 14.6968 13.9615 14.6968C13.5554 14.6968 13.2261 14.3676 13.2261 13.9614V13.0378C13.2261 12.6317 13.5554 12.3024 13.9615 12.3024C14.1992 12.3024 14.4105 12.4145 14.546 12.5914C14.7643 12.8764 15.1723 12.9304 15.4573 12.7121C15.7423 12.4938 15.7963 12.0858 15.578 11.8008C15.2071 11.3166 14.6209 11.0024 13.9615 11.0024Z" fill="black"/>
</svg>
