<svg xmlns="http://www.w3.org/2000/svg" width="16" height="16" fill="none" viewBox="0 0 16 16"><path fill="#000" fill-rule="evenodd" d="M8.8524 1.0024c-.3676 0-.7205.1444-.9826.4021L1.423 7.7414c-.5554.546-.5593 1.44-.0085 1.9908l4.855 4.8551c.5497.5496 1.4416.547 1.988-.0058l6.3341-6.4075a1.402 1.402 0 0 0 .4048-.9854V2.4042c0-.7742-.6276-1.4018-1.4017-1.4018zM7.3331 13.6676l6.3339-6.4075a.1.1 0 0 0 .0294-.0715V2.4042a.1017.1017 0 0 0-.1017-.1018H8.8524a.102.102 0 0 0-.0713.0292L2.3343 8.6685a.102.102 0 0 0-.0006.1445l4.855 4.855a.102.102 0 0 0 .1444-.0004m5.036-9.1669a.8662.8662 0 1 1-1.7324 0 .8662.8662 0 0 1 1.7324 0"/></svg>