<svg xmlns="http://www.w3.org/2000/svg" width="16" height="16" fill="none" viewBox="0 0 16 16"><path fill="#000" fill-rule="evenodd" d="m7.333 13.6676.6088-.6158c.252.3676.6268.6445 1.0652.7717l-.7494.758c-.5465.5528-1.4384.5554-1.988.0058l-4.8551-4.855c-.5508-.5508-.547-1.445.0085-1.991l6.4468-6.3368c.2621-.2577.615-.402.9826-.402h4.7423c.7741 0 1.4017.6275 1.4017 1.4017v4.7844c0 .369-.1454.723-.4048.9854l-.7825.7916a1.955 1.955 0 0 0-.794-1.046l.6519-.6595a.1.1 0 0 0 .0294-.0715V2.4042a.1017.1017 0 0 0-.1017-.1018H8.8524a.102.102 0 0 0-.0713.0292L2.3343 8.6685a.102.102 0 0 0-.0006.1445l4.855 4.855a.102.102 0 0 0 .1444-.0004m5.0361-9.1669a.8662.8662 0 1 1-1.7324 0 .8662.8662 0 0 1 1.7324 0m-.4203 4.402a.65.65 0 0 1 .65.65v1.7477h1.7476a.65.65 0 1 1 0 1.3h-1.7476v1.7474a.65.65 0 1 1-1.3 0v-1.7474H9.5512a.65.65 0 1 1 0-1.3h1.7476V9.5527a.65.65 0 0 1 .65-.65"/></svg>