<svg xmlns="http://www.w3.org/2000/svg" width="16" height="16" fill="none" viewBox="0 0 16 16"><path fill="#000" fill-rule="evenodd" d="M7.9632.6844a.65.65 0 0 1 .65.65v.9479c2.6682.2829 4.7916 2.3907 5.0986 5.0516h.9681a.65.65 0 1 1 0 1.3h-.9645c-.2934 2.676-2.4232 4.7997-5.1022 5.0837v.9127a.65.65 0 1 1-1.3 0v-.9209c-2.6443-.3147-4.7379-2.424-5.0287-5.0755H1.34a.65.65 0 0 1 0-1.3h.9482c.3042-2.6365 2.3915-4.73 5.0251-5.0433v-.9561a.65.65 0 0 1 .65-.65m.65 11.7237v-.903a.65.65 0 1 0-1.3 0v.8922c-1.9253-.2982-3.4428-1.8307-3.7184-3.7634h.8703a.65.65 0 0 0 0-1.3h-.8656c.2878-1.9175 1.7991-3.4347 3.7137-3.7312v.857a.65.65 0 1 0 1.3 0V3.592c1.9494.2687 3.4958 1.8 3.7873 3.742h-.8458a.65.65 0 1 0 0 1.3h.8505c-.2792 1.9572-1.8318 3.504-3.792 3.7742m.3825-4.4242c0 .5606-.4545 1.0151-1.0151 1.0151-.5607 0-1.0152-.4545-1.0152-1.0151 0-.5607.4545-1.0152 1.0152-1.0152.5606 0 1.0151.4545 1.0151 1.0152"/></svg>