<svg width="16" height="16" viewBox="0 0 16 16" fill="none" xmlns="http://www.w3.org/2000/svg">
<path d="M7.98057 8.99912C8.54121 8.99912 8.9957 8.54463 8.9957 7.98398C8.9957 7.42334 8.54121 6.96885 7.98057 6.96885C7.41992 6.96885 6.96543 7.42334 6.96543 7.98398C6.96543 8.54463 7.41992 8.99912 7.98057 8.99912Z" fill="black"/>
<path fill-rule="evenodd" clip-rule="evenodd" d="M8.61323 1.33457C8.61323 0.975585 8.32222 0.68457 7.96323 0.68457C7.60425 0.68457 7.31323 0.975585 7.31323 1.33457V2.29068C4.67965 2.60412 2.59228 4.69756 2.28814 7.33398H1.33994C0.980956 7.33398 0.689941 7.625 0.689941 7.98398C0.689941 8.34297 0.980956 8.63398 1.33994 8.63398H2.28452C2.57529 11.2856 4.66893 13.3948 7.31323 13.7095V14.6304C7.31323 14.9894 7.60425 15.2804 7.96323 15.2804C8.32222 15.2804 8.61323 14.9894 8.61323 14.6304V13.7178C11.2922 13.4338 13.422 11.3101 13.7154 8.63398H14.6799C15.0389 8.63398 15.3299 8.34297 15.3299 7.98398C15.3299 7.625 15.0389 7.33398 14.6799 7.33398H13.7118C13.4048 4.67308 11.2814 2.5653 8.61323 2.28242V1.33457ZM8.61323 11.5053V12.4082C10.5734 12.138 12.126 10.5912 12.4052 8.63398H11.5547C11.1957 8.63398 10.9047 8.34297 10.9047 7.98398C10.9047 7.625 11.1957 7.33398 11.5547 7.33398H12.4005C12.109 5.392 10.5626 3.8607 8.61323 3.59201V4.45974C8.61323 4.81873 8.32222 5.10975 7.96323 5.10975C7.60425 5.10975 7.31323 4.81873 7.31323 4.45974V3.60276C5.3986 3.89935 3.88732 5.41647 3.5995 7.33398H4.46512C4.8241 7.33398 5.11512 7.625 5.11512 7.98398C5.11512 8.34297 4.8241 8.63398 4.46512 8.63398H3.59478C3.87041 10.5667 5.38789 12.0992 7.31323 12.3974V11.5053C7.31323 11.1463 7.60425 10.8553 7.96323 10.8553C8.32222 10.8553 8.61323 11.1463 8.61323 11.5053Z" fill="black"/>
</svg>
