<svg width="16" height="16" viewBox="0 0 16 16" fill="none" xmlns="http://www.w3.org/2000/svg">
<path d="M10.576 7.5115C10.8298 7.25766 10.8298 6.8461 10.576 6.59226C10.3222 6.33842 9.9106 6.33842 9.65676 6.59226L7.48908 8.75994L6.34316 7.61403C6.08932 7.36019 5.67777 7.36019 5.42393 7.61403C5.17008 7.86787 5.17008 8.27943 5.42393 8.53327L7.02946 10.1388C7.15135 10.2607 7.31668 10.3292 7.48908 10.3292C7.66147 10.3292 7.8268 10.2607 7.94869 10.1388L10.576 7.5115Z" fill="black"/>
<path fill-rule="evenodd" clip-rule="evenodd" d="M11.4875 1H4.5125C3.29747 1 2.3125 1.98497 2.3125 3.2V12.8C2.3125 14.015 3.29747 15 4.5125 15H11.4875C12.7025 15 13.6875 14.015 13.6875 12.8V3.2C13.6875 1.98497 12.7025 1 11.4875 1ZM11.4875 2.3H10.2295V2.85061C10.2295 3.4029 9.78178 3.85061 9.22949 3.85061H6.77051C6.21822 3.85061 5.77051 3.4029 5.77051 2.85061V2.3H4.5125C4.01544 2.3 3.6125 2.70294 3.6125 3.2V12.8C3.6125 13.2971 4.01544 13.7 4.5125 13.7H11.4875C11.9846 13.7 12.3875 13.2971 12.3875 12.8V3.2C12.3875 2.70294 11.9846 2.3 11.4875 2.3Z" fill="black"/>
</svg>
