<svg xmlns="http://www.w3.org/2000/svg" width="16" height="16" fill="none" viewBox="0 0 16 16"><path fill="#000" fill-rule="evenodd" d="M4.5125 1h6.975c1.215 0 2.2.985 2.2 2.2v9.6c0 1.215-.985 2.2-2.2 2.2h-6.975c-1.215 0-2.2-.985-2.2-2.2V3.2c0-1.215.985-2.2 2.2-2.2m5.717 1.3h1.258a.9.9 0 0 1 .9.9v9.6a.9.9 0 0 1-.9.9h-6.975a.9.9 0 0 1-.9-.9V3.2a.9.9 0 0 1 .9-.9h1.258v.5506c0 .5523.4477 1 1 1h2.459c.5523 0 1-.4477 1-1zm.3465 4.2923a.65.65 0 0 1 0 .9192l-2.6273 2.6273a.65.65 0 0 1-.9192 0L5.4239 8.5333a.65.65 0 0 1 .9193-.9193L7.489 8.76l2.1677-2.1677a.65.65 0 0 1 .9192 0"/></svg>