<svg xmlns="http://www.w3.org/2000/svg" width="16" height="16" fill="none" viewBox="0 0 16 16"><path fill="#000" fill-rule="evenodd" d="M8 2.3381a.6667.6667 0 1 0 0-1.3333.6667.6667 0 0 0 0 1.3333M4.969 3.554H3.2497a.65.65 0 0 0-.5338 1.0209l1.6846 2.4244-.5559 3.7038C3.6632 11.9124 4.5997 13 5.8226 13h4.3548c1.2228 0 2.1594-1.0876 1.9779-2.2969l-.8779-5.8491h1.0598a.35.35 0 0 1 .35.35v3.1475a.65.65 0 1 0 1.3 0V5.204c0-.9113-.7387-1.65-1.65-1.65H11.031a1 1 0 0 0-.8921-.548H5.8611c-.3855 0-.7258.2196-.8922.548m1.1788.752-.0006.0032-.3343 2.039-.6826 4.5479c-.0635.4232.2643.8039.6923.8039h4.3548c.428 0 .7558-.3807.6923-.8039l-.9892-6.59zm-1.4832 9.3906a.65.65 0 1 0 0 1.3h6.6842a.65.65 0 1 0 0-1.3z"/></svg>