<svg width="16" height="16" viewBox="0 0 16 16" fill="none" xmlns="http://www.w3.org/2000/svg">
<path fill-rule="evenodd" clip-rule="evenodd" d="M8.0001 2.32642C6.87243 2.32642 5.92416 3.09454 5.64996 4.13611H5.5012C5.14221 4.13611 4.8512 4.42712 4.8512 4.78611C4.8512 5.14509 5.14221 5.43611 5.5012 5.43611H5.66639C5.96042 6.44739 6.89395 7.18647 8.0001 7.18647C9.08122 7.18647 9.99744 6.48047 10.3129 5.50435H10.4336C10.7926 5.50435 11.0836 5.21333 11.0836 4.85435C11.0836 4.49536 10.7926 4.20435 10.4336 4.20435H10.3671C10.1171 3.12826 9.15226 2.32642 8.0001 2.32642ZM6.87007 4.75645C6.87007 4.13235 7.376 3.62642 8.0001 3.62642C8.6242 3.62642 9.13013 4.13235 9.13013 4.75645C9.13013 5.38054 8.6242 5.88647 8.0001 5.88647C7.376 5.88647 6.87007 5.38054 6.87007 4.75645Z" fill="black"/>
<path fill-rule="evenodd" clip-rule="evenodd" d="M6.44004 8.10144C4.97648 8.10144 3.79004 9.28789 3.79004 10.7514V11.6235C3.79004 12.7557 4.70786 13.6735 5.84004 13.6735H10.1602C11.2923 13.6735 12.2102 12.7557 12.2102 11.6235V10.7514C12.2102 9.28789 11.0237 8.10144 9.56016 8.10144H6.44004ZM5.09004 10.7514C5.09004 10.0059 5.69445 9.40144 6.44004 9.40144H9.56016C10.3057 9.40144 10.9102 10.0059 10.9102 10.7514V11.6235C10.9102 12.0377 10.5744 12.3735 10.1602 12.3735H5.84004C5.42583 12.3735 5.09004 12.0377 5.09004 11.6235V10.7514Z" fill="black"/>
</svg>
