<svg xmlns="http://www.w3.org/2000/svg" width="16" height="16" fill="none" viewBox="0 0 16 16"><path fill="#000" fill-rule="evenodd" d="M5.65 4.1361C5.9242 3.0945 6.8724 2.3264 8 2.3264c1.1522 0 2.117.8019 2.367 1.878h.0665a.65.65 0 1 1 0 1.3h-.1207c-.3155.976-1.2317 1.682-2.3128 1.682-1.1062 0-2.0397-.739-2.3337-1.7503h-.1652a.65.65 0 0 1 0-1.3zm-1.86 6.6153c0-1.4635 1.1865-2.65 2.65-2.65h3.1202c1.4635 0 2.65 1.1865 2.65 2.65v.8721c0 1.1322-.9179 2.05-2.05 2.05H5.84c-1.1321 0-2.05-.9178-2.05-2.05z"/></svg>