<svg xmlns="http://www.w3.org/2000/svg" width="16" height="16" fill="none" viewBox="0 0 16 16"><path fill="#000" fill-rule="evenodd" d="M5.65 4.1362C5.9242 3.0946 6.8724 2.3264 8 2.3264c1.1522 0 2.117.8018 2.367 1.8779h.0665a.65.65 0 1 1 0 1.3h-.1207C9.9973 6.4803 9.0811 7.1864 8 7.1864c-1.1062 0-2.0397-.739-2.3337-1.7503h-.1652a.65.65 0 0 1 0-1.3zM8 3.6265c-.6241 0-1.13.5059-1.13 1.13s.5059 1.13 1.13 1.13 1.13-.506 1.13-1.13c0-.6241-.5059-1.13-1.13-1.13m-4.21 7.125c0-1.4636 1.1864-2.65 2.65-2.65h3.12c1.4636 0 2.6501 1.1864 2.6501 2.65v.872c0 1.1322-.9179 2.05-2.05 2.05H5.84c-1.1321 0-2.05-.9178-2.05-2.05zm2.65-1.35c-.7456 0-1.35.6044-1.35 1.35v.872a.75.75 0 0 0 .75.75h4.3201a.75.75 0 0 0 .75-.75v-.872c0-.7456-.6045-1.35-1.35-1.35z"/></svg>