<svg xmlns="http://www.w3.org/2000/svg" width="16" height="16" fill="none" viewBox="0 0 16 16"><path fill="#000" fill-rule="evenodd" d="M2.212 7.227q5.404-2.3545 7.2072-3.1045c3.4321-1.4275 4.1452-1.6755 4.6101-1.6837.1022-.0018.3308.0235.4789.1437.125.1014.1594.2385.1758.3347s.037.3153.0207.4865c-.186 1.9542-.9907 6.6964-1.4002 8.8852-.1732.9261-.5143 1.2366-.8445 1.267-.7177.066-1.2627-.4743-1.9578-.93-1.0877-.713-1.7022-1.1568-2.758-1.8526-1.2202-.804-.4292-1.246.2662-1.9682.182-.189 3.3441-3.0652 3.4053-3.3262.0076-.0326.0147-.1542-.0575-.2185-.0723-.0642-.1789-.0422-.2559-.0248q-.1636.0372-5.213 3.4456-.7397.508-1.3401.495c-.4413-.0095-1.2901-.2495-1.9211-.4546-.774-.2516-1.3891-.3846-1.3355-.8119q.0418-.3337.9194-.6827" clip-rule="evenodd"/></svg>