<svg xmlns="http://www.w3.org/2000/svg" width="16" height="16" fill="none" viewBox="0 0 16 16"><path fill="#000" fill-rule="evenodd" d="M10 1.3333q.4142 0 .7678.1465t.6464.4393.4394.6465Q12 2.9192 12 3.3333V8q0 .4142-.1464.7677t-.4394.6465a2 2 0 0 1-.0809.077v3.8421q0 .2761-.0976.5119-.0976.2357-.2929.4309t-.431.2929-.5118.0976H6q-.2761 0-.5118-.0976t-.431-.2929-.2929-.4309q-.0976-.2358-.0976-.5119v-3.842a2 2 0 0 1-.081-.0771q-.2928-.293-.4393-.6465Q4 8.4142 4 8V3.3333q0-.4142.1464-.7677t.4394-.6465q.2928-.293.6464-.4393.3536-.1465.7678-.1465zM6.6667 2.6667H6a.66.66 0 0 0-.256.0488.66.66 0 0 0-.2154.1464.66.66 0 0 0-.1465.2155.66.66 0 0 0-.0488.256V8q0 .138.0488.2559a.66.66 0 0 0 .1465.2155.66.66 0 0 0 .2155.1464A.66.66 0 0 0 6 8.6666h4a.66.66 0 0 0 .2559-.0488.66.66 0 0 0 .2155-.1464.66.66 0 0 0 .1465-.2155.66.66 0 0 0 .0488-.256V3.3334a.66.66 0 0 0-.0488-.256.66.66 0 0 0-.1465-.2154.66.66 0 0 0-.2155-.1464A.66.66 0 0 0 10 2.6667h-.6667a.6667.6667 0 0 1-.6666.6666H7.3333a.6667.6667 0 0 1-.6666-.6666m1.3333 4A.6667.6667 0 1 1 8 8a.6667.6667 0 0 1 0-1.3334m-2 6.6666V10h4v3.3333zm.9918-2.6667a.2.2 0 0 1 .2.2v.2667a.2.2 0 0 1-.2.2h-.2667a.2.2 0 0 1-.2-.2v-.2667a.2.2 0 0 1 .2-.2zm1.1415 0a.2.2 0 0 1 .2.2v.2667a.2.2 0 0 1-.2.2h-.2666a.2.2 0 0 1-.2-.2v-.2667a.2.2 0 0 1 .2-.2zm1.1416 0a.2.2 0 0 1 .2.2v.2667a.2.2 0 0 1-.2.2h-.2667a.2.2 0 0 1-.2-.2v-.2667a.2.2 0 0 1 .2-.2zM6.9918 12a.2.2 0 0 1 .2.2v.2667a.2.2 0 0 1-.2.1999h-.2667a.2.2 0 0 1-.2-.1999V12.2a.2.2 0 0 1 .2-.2zm1.1415 0a.2.2 0 0 1 .2.2v.2667a.2.2 0 0 1-.2.1999h-.2666a.2.2 0 0 1-.2-.1999V12.2a.2.2 0 0 1 .2-.2zm1.1416 0a.2.2 0 0 1 .2.2v.2667a.2.2 0 0 1-.2.1999h-.2667a.2.2 0 0 1-.2-.1999V12.2a.2.2 0 0 1 .2-.2z"/></svg>