<svg xmlns="http://www.w3.org/2000/svg" width="16" height="16" fill="none" viewBox="0 0 16 16"><path fill="#000" fill-rule="evenodd" d="M3.3424 2.6666c-1.1046 0-2 .8955-2 2v6.6667c0 1.1046.8954 2 2 2h9.3333c1.1046 0 2-.8954 2-2V4.6666c0-1.1045-.8954-2-2-2zm-.7 2v-.0025h10.7333v6.6692a.7.7 0 0 1-.7.7H3.3424a.7.7 0 0 1-.7-.7zm2.484 1.5404a.65.65 0 0 0-.9193.9192l1.207 1.207-1.207 1.2072a.65.65 0 0 0 .9192.9192L6.793 8.7929a.65.65 0 0 0 0-.9192zM8.0166 10a.65.65 0 0 1 .65-.65h2.6667a.65.65 0 0 1 0 1.2999H8.6667a.65.65 0 0 1-.65-.65"/></svg>