<svg width="16" height="16" viewBox="0 0 16 16" fill="none" xmlns="http://www.w3.org/2000/svg">
<path d="M0.950195 2.95029C0.950195 2.59131 1.24121 2.30029 1.6002 2.30029H9.78104C10.1313 2.30029 10.4169 2.57737 10.4305 2.9243C10.4309 2.93246 10.4311 2.94113 10.4311 2.95032V4.41604C10.4311 4.77502 10.1401 5.06604 9.7811 5.06604C9.42212 5.06604 9.1311 4.77502 9.1311 4.41604V3.60029H6.34053V12.3997H7.66424C8.02322 12.3997 8.31424 12.6907 8.31424 13.0497C8.31424 13.4087 8.02322 13.6997 7.66424 13.6997H3.70542C3.34643 13.6997 3.05542 13.4087 3.05542 13.0497C3.05542 12.6907 3.34643 12.3997 3.70542 12.3997H5.04053V3.60029H2.2502V4.41601C2.2502 4.77499 1.95918 5.06601 1.6002 5.06601C1.24121 5.06601 0.950195 4.77499 0.950195 4.41601V2.95029Z" fill="black"/>
<path d="M9.48657 8.22666C9.48657 7.86768 9.77759 7.57666 10.1366 7.57666H14.4002C14.7592 7.57666 15.0502 7.86768 15.0502 8.22666C15.0502 8.58565 14.7592 8.87666 14.4002 8.87666H12.9184V13.0497C12.9184 13.4087 12.6274 13.6997 12.2684 13.6997C11.9094 13.6997 11.6184 13.4087 11.6184 13.0497V8.87666H10.1366C9.77759 8.87666 9.48657 8.58565 9.48657 8.22666Z" fill="black"/>
</svg>
