<svg width="16" height="16" viewBox="0 0 16 16" fill="none" xmlns="http://www.w3.org/2000/svg">
<path d="M6.10093 4.66166C6.35477 4.40782 6.76633 4.40782 7.02017 4.66166L8 5.64149L8.97983 4.66166C9.23368 4.40782 9.64523 4.40782 9.89907 4.66166C10.1529 4.9155 10.1529 5.32706 9.89907 5.5809L8.91924 6.56073L9.89902 7.54051C10.1529 7.79435 10.1529 8.20591 9.89902 8.45975C9.64518 8.71359 9.23362 8.71359 8.97978 8.45975L8 7.47997L7.02022 8.45975C6.76638 8.71359 6.35482 8.71359 6.10098 8.45975C5.84714 8.20591 5.84714 7.79435 6.10098 7.54051L7.08076 6.56073L6.10093 5.5809C5.84709 5.32706 5.84709 4.9155 6.10093 4.66166Z" fill="black"/>
<path fill-rule="evenodd" clip-rule="evenodd" d="M1 3.62036C1 2.17061 2.17525 0.995361 3.625 0.995361H12.375C13.8247 0.995361 15 2.17061 15 3.62036V9.57364C15 11.0234 13.8247 12.1986 12.375 12.1986H5.4648C5.21934 12.1986 4.98517 12.3017 4.81942 12.4828L2.82461 14.6617C2.17773 15.3683 1.00009 14.9106 1.00015 13.9526L1.00038 9.61885C1.00013 9.60381 1 9.58874 1 9.57364V3.62036ZM2.30038 9.61892L2.30018 13.3093L3.86056 11.6049C4.27257 11.1549 4.85466 10.8986 5.4648 10.8986H12.375C13.1068 10.8986 13.7 10.3054 13.7 9.57364V3.62036C13.7 2.88858 13.1068 2.29536 12.375 2.29536H3.625C2.89322 2.29536 2.3 2.88858 2.3 3.62036V9.57364L2.30038 9.61892Z" fill="black"/>
</svg>
