<svg xmlns="http://www.w3.org/2000/svg" width="16" height="16" fill="none" viewBox="0 0 16 16"><path fill="#000" fill-rule="evenodd" d="M8 1.35C6.5364 1.35 5.35 2.5364 5.35 4v3.6927c-.8172.7287-1.3333 1.7911-1.3333 2.9739C4.0167 12.8666 5.8 14.65 8 14.65s3.9833-1.7834 3.9833-3.9834c0-1.1828-.5161-2.2452-1.3333-2.974V4c0-1.4636-1.1865-2.65-2.65-2.65M6.65 4c0-.7456.6044-1.35 1.35-1.35S9.35 3.2544 9.35 4v4.3244l.2596.195c.6532.4907 1.0737 1.2698 1.0737 2.1472 0 1.482-1.2013 2.6834-2.6833 2.6834s-2.6833-1.2014-2.6833-2.6834c0-.8774.4204-1.6565 1.0737-2.1471l.2596-.195zm2 1.3333a.65.65 0 0 0-1.3 0v3.4413C6.5645 9.0444 6 9.7896 6 10.6667c0 1.1045.8954 2 2 2s2-.8955 2-2c0-.877-.5645-1.6223-1.35-1.892z"/></svg>