<svg xmlns="http://www.w3.org/2000/svg" width="16" height="16" fill="none" viewBox="0 0 16 16"><path fill="#000" fill-rule="evenodd" d="M8 15c3.866 0 7-3.134 7-7s-3.134-7-7-7-7 3.134-7 7 3.134 7 7 7m0-1.3c3.148 0 5.7-2.552 5.7-5.7S11.148 2.3 8 2.3 2.3 4.852 2.3 8s2.552 5.7 5.7 5.7m.1846-9.6133-2.6045 4.039c-.1372.213.0156.4934.269.4934h.9775a.4.4 0 0 1 .4.4v2.721c0 .319.4159.4415.5888.1733l2.6044-4.039c.1373-.213-.0155-.4933-.2688-.4933h-.9776a.4.4 0 0 1-.4-.4V4.26c0-.3191-.4159-.4416-.5888-.1734"/></svg>