<svg xmlns="http://www.w3.org/2000/svg" width="16" height="16" fill="none" viewBox="0 0 16 16"><path fill="#000" fill-rule="evenodd" d="M10.1204 2.3233c-.9281-1.6075-3.2484-1.6075-4.1765 0l-4.582 7.9364c-.9282 1.6076.232 3.617 2.0882 3.617h4.0333a4.7 4.7 0 0 1-1.2119-1.3H3.4501c-.8555 0-1.3902-.9261-.9625-1.667l4.5821-7.9364c.4278-.7408 1.4971-.7408 1.9249 0l1.4116 2.445a4.66 4.66 0 0 1 1.7311.3984zm.1188 4.192c-1.9766 0-3.579 1.6024-3.579 3.579s1.6024 3.5791 3.579 3.5791a3.563 3.563 0 0 0 2.1327-.7046l1.7024 1.7023a.65.65 0 1 0 .9193-.9192l-1.7351-1.735a3.56 3.56 0 0 0 .5598-1.9226c0-1.9766-1.6024-3.579-3.5791-3.579m-2.279 3.579c0-1.2587 1.0203-2.279 2.279-2.279s2.2791 1.0203 2.2791 2.279-1.0204 2.2791-2.2791 2.2791-2.279-1.0204-2.279-2.2791"/></svg>