<svg xmlns="http://www.w3.org/2000/svg" width="16" height="16" fill="none" viewBox="0 0 16 16"><path fill="#000" fill-rule="evenodd" d="M2.8 1.2188c-.9941 0-1.8.8058-1.8 1.8v.327c0 .9942.8059 1.8 1.8 1.8h.8525v7.6306c0 .359.291.65.65.65H6.309c.198.7789.904 1.3551 1.7445 1.3551H13.2c.9941 0 1.8-.8059 1.8-1.8v-.3272c0-.9941-.8059-1.8-1.8-1.8H8.0535c-.8104 0-1.4957.5356-1.7213 1.2721H4.9525V8.65H6.32c.2122.7578.908 1.3136 1.7335 1.3136H13.2c.9941 0 1.8-.8059 1.8-1.8v-.3272c0-.994-.8059-1.8-1.8-1.8H8.0535c-.8255 0-1.5212.5558-1.7334 1.3136H4.9525V5.1459h2.994c.9941 0 1.8-.8059 1.8-1.8v-.3272c0-.994-.8059-1.8-1.8-1.8zm5.1465 1.3H2.8a.5.5 0 0 0-.5.5v.327a.5.5 0 0 0 .5.5h5.1465a.5.5 0 0 0 .5-.5v-.327a.5.5 0 0 0-.5-.5M13.2 7.3365H8.0535a.5.5 0 0 0-.5.5v.3271a.5.5 0 0 0 .5.5H13.2a.5.5 0 0 0 .5-.5v-.3272a.5.5 0 0 0-.5-.5m-5.1465 4.8178H13.2a.5.5 0 0 1 .5.5v.3272a.5.5 0 0 1-.5.5H8.0535a.5.5 0 0 1-.5-.5v-.3272a.5.5 0 0 1 .5-.5"/></svg>