<svg xmlns="http://www.w3.org/2000/svg" width="16" height="16" fill="none" viewBox="0 0 16 16"><path fill="#000" d="M10.9991 5.8553a.65.65 0 0 1-.0007.9192L9.2294 8.541c.0262.102.0402.209.0402.3191 0 .7057-.5721 1.2778-1.2779 1.2778S6.714 9.5659 6.714 8.8601c0-.7057.5721-1.2778 1.2779-1.2778.1097 0 .2163.0139.318.0399l1.77-1.7675a.65.65 0 0 1 .9193.0006"/><path fill="#000" fill-rule="evenodd" d="M8.65 1.5023a.65.65 0 0 0-1.3 0v.3775C3.7887 2.2078 1 5.2032 1 8.85c0 3.866 3.134 7 7 7s7-3.134 7-7c0-1.7018-.6073-3.2617-1.617-4.475a.65.65 0 0 0 .0775-.0663l.5998-.5998.0075-.0076.3076.3075a.65.65 0 1 0 .9192-.9192l-1.5342-1.5342a.65.65 0 1 0-.9192.9193l.3075.3075-.0076.0075-.5998.5998a.65.65 0 0 0-.0663.0775c-1.057-.8797-2.3772-1.4539-3.825-1.5872zM13.7 8.85c0 3.148-2.552 5.7-5.7 5.7s-5.7-2.552-5.7-5.7 2.552-5.7 5.7-5.7 5.7 2.552 5.7 5.7" clip-rule="evenodd"/></svg>