<svg xmlns="http://www.w3.org/2000/svg" width="16" height="16" fill="none" viewBox="0 0 16 16"><path d="M16 0H0v16h16z"/><path fill="#000" d="M8.6074 2.9977c-1.2487-1.2487-3.1223-1.4905-4.613-.7268-.2474.1267-.2836.45-.0985.635l2.4906 2.4906-.99.99L2.906 3.8959c-.185-.1851-.5083-.1489-.635.0984-.7637 1.4908-.522 3.3644.7268 4.6131 1.0434 1.0434 2.523 1.3836 3.8506 1.0221l4.2513 4.2514c.3775.3775.9896.3775 1.3671 0l1.4142-1.4142c.3775-.3775.3775-.9896 0-1.3671L9.6295 6.8483c.3615-1.3275.0213-2.8072-1.022-3.8506"/></svg>