<svg width="16" height="16" viewBox="0 0 16 16" fill="none" xmlns="http://www.w3.org/2000/svg">
<path d="M8.60741 2.9977C7.35867 1.74896 5.48514 1.50722 3.99435 2.27089C3.74704 2.39758 3.71077 2.72082 3.89589 2.90594L6.38649 5.39654L5.39654 6.38649L2.90594 3.89589C2.72082 3.71077 2.39758 3.74704 2.27089 3.99435C1.50722 5.48514 1.74896 7.35867 2.9977 8.60742C4.04107 9.65079 5.52077 9.99102 6.84827 9.62955L11.0996 13.8809C11.4771 14.2584 12.0892 14.2584 12.4667 13.8809L13.8809 12.4667C14.2584 12.0892 14.2584 11.4771 13.8809 11.0996L9.62955 6.84827C9.99101 5.52077 9.65079 4.04107 8.60741 2.9977Z" fill="black"/>
</svg>
