<svg xmlns="http://www.w3.org/2000/svg" width="16" height="16" fill="none" viewBox="0 0 16 16"><path d="M16 0H0v16h16z"/><path fill="#000" fill-rule="evenodd" d="M3.2266 2.3756a.65.65 0 0 0 .1842.549l2.3366 2.3366-.495.495-2.3366-2.3367a.65.65 0 0 0-1.027.1425c-.9186 1.6432-.6806 3.7597.7173 5.1575 1.0835 1.0836 2.5992 1.4699 3.99 1.1617l4.5833 4.5832a.65.65 0 0 0 .9192 0l2.357-2.357a.65.65 0 0 0 0-.9193L9.8724 6.605c.3082-1.3908-.078-2.9065-1.1616-3.99C7.3129 1.217 5.1964.979 3.5532 1.8977a.65.65 0 0 0-.3266.478m1.8124.3387c.9631-.201 2.0054.0727 2.7525.8198.8283.8282 1.0751 2.019.737 3.0645a.65.65 0 0 0 .1588.6597l4.3895 4.3894-1.4378 1.4378L7.2495 8.696a.65.65 0 0 0-.6596-.1588c-1.0455.3381-2.2363.0913-3.0646-.737-.7471-.7471-1.0208-1.7894-.8198-2.7526L4.7928 7.135a.65.65 0 0 0 .9192 0l1.4142-1.4142a.65.65 0 0 0 0-.9193z"/></svg>