<svg width="16" height="16" viewBox="0 0 16 16" fill="none" xmlns="http://www.w3.org/2000/svg">
<path fill-rule="evenodd" clip-rule="evenodd" d="M3.22655 2.37563C3.19857 2.57736 3.26676 2.78054 3.41077 2.92455L5.74737 5.26115L5.25239 5.75612L2.91579 3.41952C2.77178 3.27551 2.5686 3.20733 2.36688 3.23531C2.16515 3.26328 1.98819 3.3842 1.88881 3.56196C0.970191 5.20516 1.20823 7.32167 2.60607 8.71951C3.68962 9.80306 5.20531 10.1894 6.59617 9.88119L11.1794 14.4644C11.4332 14.7182 11.8448 14.7182 12.0986 14.4644L14.4556 12.1073C14.7095 11.8535 14.7095 11.4419 14.4556 11.1881L9.87243 6.60493C10.1806 5.21407 9.79431 3.69838 8.71075 2.61482C7.31292 1.21699 5.19641 0.978945 3.55321 1.89757C3.37544 1.99695 3.25453 2.1739 3.22655 2.37563ZM5.03896 2.71426C6.00212 2.51324 7.04443 2.78698 7.79152 3.53406C8.6198 4.36234 8.86665 5.55316 8.52849 6.59863C8.45336 6.8309 8.51471 7.08568 8.68732 7.25829L13.0768 11.6477L11.639 13.0855L7.24954 8.69608C7.07692 8.52346 6.82214 8.46211 6.58988 8.53724C5.54441 8.87541 4.35359 8.62855 3.5253 7.80027C2.77822 7.05319 2.50449 6.01087 2.7055 5.04771L4.79277 7.13498C4.91467 7.25688 5.08 7.32536 5.25239 7.32536C5.42478 7.32536 5.59011 7.25688 5.71201 7.13498L7.12623 5.72077C7.38007 5.46693 7.38007 5.05537 7.12623 4.80153L5.03896 2.71426Z" fill="black"/>
</svg>
