<svg width="16" height="16" viewBox="0 0 16 16" fill="none" xmlns="http://www.w3.org/2000/svg">
<path d="M14.6499 3.0001C14.6499 2.64111 14.3589 2.3501 13.9999 2.3501C13.641 2.3501 13.3499 2.64111 13.3499 3.0001L13.3499 13.0001C13.3499 13.3591 13.641 13.6501 13.9999 13.6501C14.3589 13.6501 14.6499 13.3591 14.6499 13.0001V3.0001Z" fill="black"/>
<path d="M1.99985 8.6501C1.64087 8.6501 1.34985 8.35908 1.34985 8.0001C1.34985 7.64111 1.64087 7.3501 1.99985 7.3501L9.76395 7.3501L6.87357 4.45972C6.61973 4.20588 6.61973 3.79432 6.87357 3.54048C7.12741 3.28664 7.53897 3.28664 7.79281 3.54048L11.7928 7.54048C12.0466 7.79432 12.0466 8.20588 11.7928 8.45972L7.79281 12.4597C7.53896 12.7136 7.12741 12.7136 6.87357 12.4597C6.61973 12.2059 6.61973 11.7943 6.87357 11.5405L9.76395 8.6501L1.99985 8.6501Z" fill="black"/>
</svg>
