<svg width="16" height="16" viewBox="0 0 16 16" fill="none" xmlns="http://www.w3.org/2000/svg">
<path d="M8.6501 2.0001C8.6501 1.64111 8.35908 1.3501 8.0001 1.3501C7.64111 1.3501 7.3501 1.64111 7.3501 2.0001V9.76419L4.45972 6.87381C4.20588 6.61997 3.79432 6.61997 3.54048 6.87381C3.28664 7.12765 3.28664 7.53921 3.54048 7.79305L7.54048 11.793C7.79432 12.0469 8.20588 12.0469 8.45972 11.793L12.4597 7.79305C12.7136 7.53921 12.7136 7.12765 12.4597 6.87381C12.2059 6.61997 11.7943 6.61997 11.5405 6.87381L8.6501 9.76419V2.0001Z" fill="black"/>
<path d="M3.0001 14.6502C2.64111 14.6502 2.3501 14.3592 2.3501 14.0002C2.3501 13.6412 2.64111 13.3502 3.0001 13.3502H13.0001C13.3591 13.3502 13.6501 13.6412 13.6501 14.0002C13.6501 14.3592 13.3591 14.6502 13.0001 14.6502H3.0001Z" fill="black"/>
</svg>
