<svg width="16" height="16" viewBox="0 0 16 16" fill="none" xmlns="http://www.w3.org/2000/svg">
<path d="M3.0001 1.3501C2.64111 1.3501 2.3501 1.64111 2.3501 2.0001C2.3501 2.35908 2.64111 2.6501 3.0001 2.6501H13.0001C13.3591 2.6501 13.6501 2.35908 13.6501 2.0001C13.6501 1.64111 13.3591 1.3501 13.0001 1.3501H3.0001Z" fill="black"/>
<path d="M8.6501 6.23609V14.0002C8.6501 14.3592 8.35908 14.6502 8.0001 14.6502C7.64111 14.6502 7.3501 14.3592 7.3501 14.0002V6.23609L4.45972 9.12648C4.20588 9.38032 3.79432 9.38032 3.54048 9.12648C3.28664 8.87263 3.28664 8.46108 3.54048 8.20724L7.54048 4.20724C7.79432 3.9534 8.20588 3.9534 8.45972 4.20724L12.4597 8.20724C12.7136 8.46108 12.7136 8.87263 12.4597 9.12648C12.2059 9.38032 11.7943 9.38032 11.5405 9.12648L8.6501 6.23609Z" fill="black"/>
</svg>
