<svg width="16" height="16" viewBox="0 0 16 16" fill="none" xmlns="http://www.w3.org/2000/svg">
<path d="M1.34985 3.0001C1.34985 2.64111 1.64087 2.3501 1.99985 2.3501C2.35884 2.3501 2.64985 2.64111 2.64985 3.0001L2.64985 13.0001C2.64985 13.3591 2.35884 13.6501 1.99985 13.6501C1.64087 13.6501 1.34985 13.3591 1.34985 13.0001V3.0001Z" fill="black"/>
<path d="M13.9999 8.6501C14.3589 8.6501 14.6499 8.35908 14.6499 8.0001C14.6499 7.64111 14.3589 7.3501 13.9999 7.3501L6.23585 7.3501L9.12623 4.45972C9.38007 4.20588 9.38007 3.79432 9.12623 3.54048C8.87239 3.28664 8.46083 3.28664 8.20699 3.54048L4.20699 7.54048C3.95315 7.79432 3.95315 8.20588 4.20699 8.45972L8.20699 12.4597C8.46083 12.7136 8.87239 12.7136 9.12623 12.4597C9.38007 12.2059 9.38007 11.7943 9.12623 11.5405L6.23585 8.6501L13.9999 8.6501Z" fill="black"/>
</svg>
