<svg xmlns="http://www.w3.org/2000/svg" width="16" height="16" fill="none" viewBox="0 0 16 16"><path fill="#000" fill-rule="evenodd" d="M12.4839 3.6102c-4.0066-2.4347-7.72-.8606-9.0498.2101a.65.65 0 1 1-.8153-1.0125c1.628-1.311 5.939-3.1046 10.5402-.3085a.65.65 0 0 1-.6751 1.111M5.8377 5.3974c1.8774-.9122 3.3695-.6685 4.4831-.0725 1.1497.6153 1.9334 1.6303 2.2708 2.2714.2341.4447.2076.7446.1472.9179-.069.1978-.2025.297-.2551.3189l-.0249.011c-.0728.034-.2535.0769-.4446.0254-.1587-.0427-.3946-.168-.5964-.5941-.4048-.8544-1.1081-1.5933-2.0333-1.9547-.9422-.368-2.049-.3184-3.1826.2965-1.2873.6983-1.8391 2.2377-1.6212 3.7912.2216 1.5801 1.2292 3.2562 3.1612 4.4565a.65.65 0 0 0 .686-1.1043c-1.6372-1.0172-2.3969-2.3712-2.5598-3.5328-.1667-1.1883.2796-2.1022.9537-2.468.8278-.449 1.5354-.4448 2.0897-.2282.5713.2231 1.0465.6988 1.3314 1.3003.3499.7386.8741 1.1424 1.4334 1.293.5199.1399 1.0089.0446 1.32-.0971.819-.3505 1.5265-1.5534.7457-3.037-.4288-.8148-1.3789-2.0474-2.8078-2.812-1.465-.7841-3.3964-1.0528-5.6647.0493-1.9351.9403-2.8573 2.52-3.1806 4.116-.3181 1.5704-.0627 3.1661.3435 4.2571a.65.65 0 0 0 1.2183-.4536c-.337-.9052-.5495-2.2528-.2877-3.5454.2566-1.2668.962-2.4699 2.4747-3.2048m2.7857 4.0863a.65.65 0 1 0-1.229.4236c.438 1.271 1.868 3.5028 4.5373 3.7819a.65.65 0 0 0 .1352-1.293c-1.9512-.204-3.0852-1.8733-3.4435-2.9125"/></svg>