<svg width="16" height="16" viewBox="0 0 16 16" fill="none" xmlns="http://www.w3.org/2000/svg">
<path fill-rule="evenodd" clip-rule="evenodd" d="M10.6833 2.5001C10.6833 1.86497 11.1982 1.3501 11.8333 1.3501H13.5C14.1351 1.3501 14.65 1.86497 14.65 2.5001V4.16676C14.65 4.80189 14.1351 5.31676 13.5 5.31676H11.8333C11.7611 5.31676 11.6905 5.31011 11.622 5.29738L9.78493 7.1344C9.91204 7.39599 9.98334 7.68972 9.98334 8.0001C9.98334 9.09546 9.09537 9.98343 8.00001 9.98343C6.90464 9.98343 6.01667 9.09546 6.01667 8.0001C6.01667 6.90473 6.90464 6.01676 8.00001 6.01676C8.31038 6.01676 8.6041 6.08806 8.86569 6.21516L10.7027 4.37814C10.69 4.30962 10.6833 4.23897 10.6833 4.16676V2.5001ZM11.9833 2.6501V4.01676H13.35V2.6501H11.9833ZM7.31667 8.0001C7.31667 7.6227 7.62261 7.31676 8.00001 7.31676C8.3774 7.31676 8.68334 7.6227 8.68334 8.0001C8.68334 8.37749 8.3774 8.68343 8.00001 8.68343C7.62261 8.68343 7.31667 8.37749 7.31667 8.0001Z" fill="black"/>
<path d="M3.98333 8.00009C3.98333 5.78174 5.78165 3.98342 7.99999 3.98342C8.35898 3.98342 8.64999 3.6924 8.64999 3.33342C8.64999 2.97443 8.35898 2.68342 7.99999 2.68342C5.06368 2.68342 2.68333 5.06377 2.68333 8.00009C2.68333 9.23399 3.10366 10.3697 3.80896 11.2719L2.9966 12.0842C2.84117 12.0297 2.67405 12.0001 2.5 12.0001C1.67157 12.0001 1 12.6717 1 13.5001C1 14.3285 1.67157 15.0001 2.5 15.0001C3.32843 15.0001 4 14.3285 4 13.5001C4 13.326 3.97036 13.1589 3.91584 13.0035L4.7282 12.1911C5.63037 12.8964 6.76609 13.3168 7.99999 13.3168C9.2339 13.3168 10.3696 12.8964 11.2718 12.1911L12.0842 13.0035C12.0296 13.1589 12 13.326 12 13.5001C12 14.3285 12.6716 15.0001 13.5 15.0001C14.3284 15.0001 15 14.3285 15 13.5001C15 12.6717 14.3284 12.0001 13.5 12.0001C13.326 12.0001 13.1588 12.0297 13.0034 12.0842L12.191 11.2719C12.8963 10.3697 13.3167 9.23398 13.3167 8.00009C13.3167 7.6411 13.0256 7.35009 12.6667 7.35009C12.3077 7.35009 12.0167 7.6411 12.0167 8.00009C12.0167 10.2184 10.2183 12.0168 7.99999 12.0168C5.78165 12.0168 3.98333 10.2184 3.98333 8.00009Z" fill="black"/>
</svg>
