<svg width="16" height="16" viewBox="0 0 16 16" fill="none" xmlns="http://www.w3.org/2000/svg">
<path d="M7.70325 1.74858C7.88968 1.65282 8.11084 1.65282 8.29726 1.74858L14.708 5.04168C14.7559 5.06506 14.8005 5.09416 14.8409 5.12808C14.8612 5.14506 14.8803 5.16319 14.8982 5.18235C15.0068 5.29853 15.0733 5.45459 15.0733 5.6262V8.88897C15.0733 9.24795 14.7823 9.53897 14.4233 9.53897C14.0643 9.53897 13.7733 9.24795 13.7733 8.88897V6.69079L8.00026 9.65513L1.28024 6.20435C1.06351 6.09302 0.927246 5.86983 0.927246 5.62617C0.927246 5.38252 1.06351 5.15933 1.28024 5.04799L7.70325 1.74858Z" fill="black"/>
<path d="M3.23572 8.66914V11.7064C3.23572 11.9567 3.37951 12.1848 3.60539 12.2928L7.71998 14.2597C7.89726 14.3444 8.10336 14.3444 8.28064 14.2597L12.3952 12.2928C12.6211 12.1848 12.7649 11.9567 12.7649 11.7064V8.66909L8.29726 10.9641C8.11084 11.0598 7.88968 11.0598 7.70325 10.9641L3.23572 8.66914Z" fill="black"/>
</svg>
