<svg xmlns="http://www.w3.org/2000/svg" width="16" height="16" fill="none" viewBox="0 0 16 16"><path fill="#000" fill-rule="evenodd" d="M7.7028 1.7486a.65.65 0 0 1 .594 0l6.4107 3.293a.651.651 0 0 1 .3653.5846V8.889a.65.65 0 1 1-1.3 0V6.6908l-1.0084.518v4.4976a.65.65 0 0 1-.3697.5864l-4.1145 1.9669a.65.65 0 0 1-.5607 0l-4.1146-1.9669a.65.65 0 0 1-.3697-.5864V7.2088L1.2798 6.2044a.65.65 0 0 1 0-1.1563zm.594 7.7552 3.1676-1.6272v3.42l-3.4646 1.6562-3.4646-1.6562v-3.42l3.1676 1.6272a.65.65 0 0 0 .594 0M2.9993 5.6262l5.0005 2.5686 5.0004-2.5686-5.0004-2.5687z"/></svg>