<svg xmlns="http://www.w3.org/2000/svg" width="16" height="16" fill="none" viewBox="0 0 16 16"><path fill="#000" fill-rule="evenodd" d="M1.0508 4.7169c0-1.4636 1.1864-2.65 2.65-2.65h8.6c1.4635 0 2.65 1.1864 2.65 2.65V9.417c0 1.4636-1.1865 2.65-2.65 2.65h-2.0221l1.4507 1.4507a.65.65 0 0 1-.9192.9193l-2.37-2.37h-.8789l-2.3699 2.37a.65.65 0 0 1-.9192-.9193l1.4507-1.4507H3.7008c-1.4636 0-2.65-1.1864-2.65-2.65zm2.65-1.35c-.7456 0-1.35.6044-1.35 1.35V9.417c0 .7456.6044 1.35 1.35 1.35h8.6c.7456 0 1.35-.6044 1.35-1.35v-4.7c0-.7456-.6044-1.35-1.35-1.35z"/></svg>