<svg xmlns="http://www.w3.org/2000/svg" width="16" height="16" fill="none" viewBox="0 0 16 16"><path fill="#000" d="M14 4.438a5.09 5.09 0 0 1-1.4141.371c.5086-.2915.8986-.753 1.0823-1.3035a5.07 5.07 0 0 1-1.5637.572c-.449-.458-1.0887-.7442-1.7967-.7442-1.3596 0-2.4617 1.0553-2.4617 2.3562 0 .1846.0221.3648.0637.5366C5.8638 6.1282 4.05 5.19 2.8354 3.764a2.274 2.274 0 0 0-.3328 1.1852c0 .8172.4343 1.5386 1.0947 1.9609a2.54 2.54 0 0 1-1.115-.2947v.0296c0 1.1419.8483 2.0943 1.9748 2.3103a2.57 2.57 0 0 1-.6489.0826c-.1583 0-.3129-.015-.4629-.042.3134.936 1.2226 1.6176 2.2998 1.6366-.8423.6321-1.9038 1.0089-3.0576 1.0089-.1984 0-.3946-.011-.5875-.0331 1.0896.6683 2.3833 1.0584 3.7739 1.0584 4.5284 0 7.004-3.5904 7.004-6.7042q0-.153-.0069-.3048A4.9 4.9 0 0 0 14 4.438"/></svg>