<svg xmlns="http://www.w3.org/2000/svg" width="16" height="16" fill="none" viewBox="0 0 16 16"><path fill="#000" fill-rule="evenodd" d="M3.35 3.4c0-1.1322.9178-2.05 2.05-2.05h5.2c1.1322 0 2.05.9178 2.05 2.05v9.2c0 1.1322-.9178 2.05-2.05 2.05H5.4c-1.1322 0-2.05-.9178-2.05-2.05zm2.05-.75a.75.75 0 0 0-.75.75v9.2a.75.75 0 0 0 .75.75h5.2a.75.75 0 0 0 .75-.75V3.4a.75.75 0 0 0-.75-.75zm3.5933 2.0934a.5.5 0 0 1 .1817.6834l-.3107.5359.6288-.0012a.5.5 0 0 1 .0018 1l-.6342.0012.3165.546a.5.5 0 0 1-.865.5015l-.3175-.5475-.3184.549a.5.5 0 1 1-.865-.5015l.3155-.5444-.6199.0011a.5.5 0 1 1-.0018-1l.6218-.0011-.3135-.5406a.5.5 0 1 1 .8652-.5015l.316.5452.3153-.5437a.5.5 0 0 1 .6834-.1818M8.6666 12A.6666.6666 0 0 1 8 12.6666a.6666.6666 0 1 1 0-1.3333.6667.6667 0 0 1 .6666.6667"/></svg>