<svg xmlns="http://www.w3.org/2000/svg" width="16" height="16" fill="none" viewBox="0 0 16 16"><path fill="#000" fill-rule="evenodd" d="M4.1328 1.4826c-1.4635 0-2.65 1.1864-2.65 2.65v7.7346c0 1.4636 1.1865 2.65 2.65 2.65h7.7346c1.4636 0 2.65-1.1864 2.65-2.65V4.1326c0-1.4636-1.1864-2.65-2.65-2.65zm-1.35 2.65c0-.7456.6044-1.35 1.35-1.35h7.7346c.7456 0 1.35.6044 1.35 1.35v7.7346c0 .7456-.6044 1.35-1.35 1.35H4.1328c-.7456 0-1.35-.6044-1.35-1.35zm4.419 2.3887c0-.4336.3626-.7983.8108-.7983.4344 0 .7857.3535.7857.7732v.2155a.497.497 0 0 1-.3766.4824A1.415 1.415 0 0 0 7.35 8.5666v.489a.65.65 0 0 0 1.3 0v-.489a.115.115 0 0 1 .087-.1113c.8-.2 1.3613-.9189 1.3613-1.7436v-.2155c0-1.1523-.948-2.0732-2.0857-2.0732-1.1514 0-2.1108.9321-2.1108 2.0983a.65.65 0 0 0 1.3 0M8.724 10.866a.7241.7241 0 1 1-1.4482 0 .7241.7241 0 0 1 1.4482 0"/></svg>