<svg width="16" height="16" viewBox="0 0 16 16" fill="none" xmlns="http://www.w3.org/2000/svg">
<path d="M8.72422 10.8659C8.72422 11.2659 8.40002 11.5901 8.0001 11.5901C7.60018 11.5901 7.27598 11.2659 7.27598 10.8659C7.27598 10.466 7.60018 10.1418 8.0001 10.1418C8.40002 10.1418 8.72422 10.466 8.72422 10.8659Z" fill="black"/>
<path d="M7.20186 6.52122C7.20186 6.08767 7.56451 5.72297 8.01272 5.72297C8.44711 5.72297 8.79834 6.07647 8.79834 6.49619V6.71171C8.79834 6.93985 8.64307 7.13871 8.42175 7.19404C7.79193 7.35149 7.3501 7.91739 7.3501 8.56658V9.05564C7.3501 9.41463 7.64111 9.70564 8.0001 9.70564C8.35908 9.70564 8.6501 9.41463 8.6501 9.05564V8.56658C8.6501 8.51391 8.68594 8.468 8.73704 8.45523C9.53709 8.25522 10.0983 7.53638 10.0983 6.71171V6.49619C10.0983 5.34387 9.15037 4.42297 8.01272 4.42297C6.86125 4.42297 5.90186 5.35508 5.90186 6.52122C5.90186 6.8802 6.19287 7.17122 6.55186 7.17122C6.91084 7.17122 7.20186 6.8802 7.20186 6.52122Z" fill="black"/>
<path fill-rule="evenodd" clip-rule="evenodd" d="M1.48291 4.13254C1.48291 2.66899 2.66936 1.48254 4.13291 1.48254H11.8675C13.3311 1.48254 14.5175 2.66899 14.5175 4.13254V11.8672C14.5175 13.3307 13.3311 14.5172 11.8675 14.5172H4.13291C2.66936 14.5172 1.48291 13.3307 1.48291 11.8672V4.13254ZM4.13291 2.78254C3.38733 2.78254 2.78291 3.38696 2.78291 4.13254V11.8672C2.78291 12.6127 3.38733 13.2172 4.13291 13.2172H11.8675C12.6131 13.2172 13.2175 12.6127 13.2175 11.8672V4.13254C13.2175 3.38696 12.6131 2.78254 11.8675 2.78254H4.13291Z" fill="black"/>
</svg>
