<svg xmlns="http://www.w3.org/2000/svg" width="16" height="16" fill="none" viewBox="0 0 16 16"><path fill="#000" fill-rule="evenodd" d="m8.4234 6.6564 3.1213-3.1214A5.676 5.676 0 0 0 8 2.299c-1.122 0-2.1681.3242-3.0501.8839l-.9377-.9377C5.1437 1.4595 6.518.999 8 .999c3.866 0 7 3.134 7 7 0 1.482-.4605 2.8563-1.2462 3.9878l-.9377-.9377c.5598-.882.8839-1.9282.8839-3.05a5.676 5.676 0 0 0-1.236-3.5448L9.3426 7.5756zm-7.3231-3.791 1.1459 1.1458C1.4605 5.1427 1 6.5171 1 7.999c0 3.866 3.134 7 7 7 1.4819 0 2.8563-.4605 3.9878-1.2462l1.0568 1.0568a.65.65 0 0 0 .9192-.9192L2.0195 1.9461a.65.65 0 0 0-.9192.9192m2.4357 8.6784 3.1214-3.1214-3.4735-3.4735c-.5598.882-.884 1.9282-.884 3.0501a5.676 5.676 0 0 0 1.236 3.5448m4.0406-2.2022L11.05 12.815c-.882.5598-1.9282.8839-3.0501.8839a5.676 5.676 0 0 1-3.5448-1.236z"/></svg>