<svg width="16" height="16" viewBox="0 0 16 16" fill="none" xmlns="http://www.w3.org/2000/svg">
<path fill-rule="evenodd" clip-rule="evenodd" d="M3.3501 5.4957C3.3501 4.30829 4.31269 3.3457 5.5001 3.3457H10.5001C11.6875 3.3457 12.6501 4.30829 12.6501 5.4957V10.4957C12.6501 11.6831 11.6875 12.6457 10.5001 12.6457H5.5001C4.31269 12.6457 3.3501 11.6831 3.3501 10.4957V5.4957ZM5.5001 4.6457C5.03066 4.6457 4.6501 5.02626 4.6501 5.4957V10.4957C4.6501 10.9651 5.03066 11.3457 5.5001 11.3457H10.5001C10.9695 11.3457 11.3501 10.9651 11.3501 10.4957V5.4957C11.3501 5.02626 10.9695 4.6457 10.5001 4.6457H5.5001Z" fill="black"/>
</svg>
