<svg xmlns="http://www.w3.org/2000/svg" width="16" height="16" fill="none" viewBox="0 0 16 16"><path fill="#000" fill-rule="evenodd" d="M3.7726 2.0658c0-1.1322.9178-2.05 2.05-2.05h3.6692c.319 0 .6236.1324.8411.3657l3.6426 3.907c.1985.2129.3088.4931.3088.7842v6.6051c0 1.2426-1.0073 2.25-2.25 2.25H5.8226c-1.1322 0-2.05-.9178-2.05-2.05zm2.05-.75a.75.75 0 0 0-.75.75v9.812a.75.75 0 0 0 .75.75h6.2117a.95.95 0 0 0 .95-.95V5.5092h-1.8917c-1.1322 0-2.05-.9178-2.05-2.05V1.3158zm4.52.9825 1.7816 1.911h-1.0316a.75.75 0 0 1-.75-.75zM2.3657 4.0066a.65.65 0 0 1 .65.65v7.6776c0 1.2979 1.0521 2.35 2.35 2.35h4.9585a.65.65 0 1 1 0 1.3H5.3657c-2.0158 0-3.65-1.6342-3.65-3.65V4.6566a.65.65 0 0 1 .65-.65m9.1096 4.1126a.65.65 0 1 0-.965-.871L8.5861 9.3797l-1.028-1.202a.65.65 0 1 0-.988.8448L8.079 10.787a.6503.6503 0 0 0 .9764.0131z"/></svg>