<svg width="16" height="16" viewBox="0 0 16 16" fill="none" xmlns="http://www.w3.org/2000/svg">
<path d="M11.4754 8.11932C11.716 7.85285 11.695 7.44183 11.4285 7.20128C11.162 6.96074 10.751 6.98176 10.5104 7.24824L8.58624 9.37988L7.55821 8.17782C7.32489 7.905 6.91458 7.87298 6.64176 8.1063C6.36894 8.33962 6.33692 8.74993 6.57024 9.02275L8.07907 10.787C8.20059 10.9291 8.37741 11.012 8.56435 11.0145C8.7513 11.017 8.93027 10.9389 9.05555 10.8001L11.4754 8.11932Z" fill="black"/>
<path fill-rule="evenodd" clip-rule="evenodd" d="M5.82271 0.0158691C4.69052 0.0158691 3.77271 0.933686 3.77271 2.06587V11.8779C3.77271 13.0101 4.69052 13.9279 5.8227 13.9279H12.0345C13.2771 13.9279 14.2845 12.9205 14.2845 11.6779V5.0728C14.2845 4.78173 14.1741 4.50149 13.9756 4.28859L10.3331 0.381655C10.1155 0.148351 9.8109 0.0158691 9.49192 0.0158691H5.82271ZM5.07271 2.06587C5.07271 1.65166 5.40849 1.31587 5.82271 1.31587H9.04273L9.04273 3.45933C9.04273 4.59152 9.96054 5.50934 11.0927 5.50934H12.9845V11.6779C12.9845 12.2026 12.5591 12.6279 12.0345 12.6279H5.8227C5.40849 12.6279 5.07271 12.2921 5.07271 11.8779V2.06587ZM12.1244 4.20934L10.3427 2.2984L10.3427 3.45934C10.3427 3.87355 10.6785 4.20934 11.0927 4.20934H12.1244Z" fill="black"/>
<path d="M2.36582 4.00673C2.72481 4.00673 3.01582 4.29775 3.01582 4.65673V12.3343C3.01582 13.6322 4.06795 14.6843 5.36582 14.6843L10.3243 14.6843C10.6833 14.6843 10.9743 14.9753 10.9743 15.3343C10.9743 15.6933 10.6833 15.9843 10.3243 15.9843H5.36582C3.34998 15.9843 1.71582 14.3502 1.71582 12.3343V4.65673C1.71582 4.29775 2.00684 4.00673 2.36582 4.00673Z" fill="black"/>
</svg>
