<svg xmlns="http://www.w3.org/2000/svg" width="16" height="16" fill="none" viewBox="0 0 16 16"><path fill="#000" fill-rule="evenodd" d="M4.3333 1.35c-.9112 0-1.65.7387-1.65 1.65v10c0 .9113.7387 1.65 1.65 1.65h7.3334c.9112 0 1.65-.7387 1.65-1.65V3c0-.9112-.7388-1.65-1.65-1.65zM3.9833 3a.35.35 0 0 1 .35-.35h7.3334a.35.35 0 0 1 .35.35v10a.35.35 0 0 1-.35.35H4.3333a.35.35 0 0 1-.35-.35zM7.024 6.6548c0-.4335.3627-.7982.8109-.7982.4344 0 .7856.3535.7856.7732v.2155a.497.497 0 0 1-.3766.4823 1.415 1.415 0 0 0-1.0716 1.3726v.489a.65.65 0 1 0 1.3 0v-.489a.115.115 0 0 1 .087-.1114 1.797 1.797 0 0 0 1.3612-1.7435v-.2155c0-1.1523-.948-2.0732-2.0856-2.0732-1.1515 0-2.1109.932-2.1109 2.0982a.65.65 0 1 0 1.3 0m1.5224 4.3447a.7241.7241 0 1 1-1.4482 0 .7241.7241 0 0 1 1.4482 0"/></svg>