<svg xmlns="http://www.w3.org/2000/svg" width="16" height="16" fill="none" viewBox="0 0 16 16"><path fill="#000" d="M7.015 4.466c-.595 0-1.079.484-1.079 1.064a.65.65 0 0 1-1.3 0c0-1.313 1.081-2.364 2.379-2.364 1.282 0 2.349 1.038 2.349 2.334v.255c0 .921-.627 1.724-1.521 1.948a.255.255 0 0 0-.193.248v.174a.65.65 0 0 1-1.3 0v-.174a1.555 1.555 0 0 1 1.178-1.509.708.708 0 0 0 .536-.686v-.255c0-.564-.47-1.034-1.049-1.034M7 10.785a.709.709 0 1 0 0-1.418.709.709 0 0 0 0 1.418"/><path fill="#000" fill-rule="evenodd" d="M.3501 7.0001c0-3.6727 2.9773-6.65 6.65-6.65s6.65 2.9773 6.65 6.65-2.9773 6.65-6.65 6.65-6.65-2.9773-6.65-6.65m6.65-5.35c-2.9547 0-5.35 2.3953-5.35 5.35s2.3953 5.35 5.35 5.35 5.35-2.3953 5.35-5.35-2.3953-5.35-5.35-5.35" clip-rule="evenodd"/></svg>