<svg width="16" height="16" viewBox="0 0 16 16" fill="none" xmlns="http://www.w3.org/2000/svg">
<path d="M8.54618 10.9995C8.54618 11.3994 8.22198 11.7236 7.82206 11.7236C7.42214 11.7236 7.09794 11.3994 7.09794 10.9995C7.09794 10.5996 7.42214 10.2754 7.82206 10.2754C8.22198 10.2754 8.54618 10.5996 8.54618 10.9995Z" fill="black"/>
<path d="M7.02382 6.65478C7.02382 6.22123 7.38647 5.85653 7.83468 5.85653C8.26907 5.85653 8.6203 6.21003 8.6203 6.62975V6.84527C8.6203 7.07341 8.46503 7.27227 8.24371 7.3276C7.61389 7.48505 7.17206 8.05095 7.17206 8.70014V9.1892C7.17206 9.54819 7.46307 9.8392 7.82206 9.8392C8.18104 9.8392 8.47206 9.54819 8.47206 9.1892V8.70014C8.47206 8.64747 8.50791 8.60156 8.559 8.58879C9.35905 8.38878 9.9203 7.66994 9.9203 6.84527V6.62975C9.9203 5.47743 8.97233 4.55653 7.83468 4.55653C6.68321 4.55653 5.72382 5.48864 5.72382 6.65478C5.72382 7.01376 6.01483 7.30478 6.37382 7.30478C6.7328 7.30478 7.02382 7.01376 7.02382 6.65478Z" fill="black"/>
<path fill-rule="evenodd" clip-rule="evenodd" d="M2.68311 2.99998C2.68311 2.08871 3.42184 1.34998 4.33311 1.34998H11.6664C12.5777 1.34998 13.3164 2.08871 13.3164 2.99998V13C13.3164 13.9112 12.5777 14.65 11.6664 14.65H4.3331C3.42183 14.65 2.68311 13.9112 2.68311 13V2.99998ZM4.33311 2.64998C4.13981 2.64998 3.98311 2.80668 3.98311 2.99998V13C3.98311 13.1933 4.13981 13.35 4.3331 13.35H11.6664C11.8597 13.35 12.0164 13.1933 12.0164 13V2.99998C12.0164 2.80667 11.8597 2.64998 11.6664 2.64998H4.33311Z" fill="black"/>
</svg>
