<svg xmlns="http://www.w3.org/2000/svg" width="16" height="16" fill="none" viewBox="0 0 16 16"><path fill="#000" fill-rule="evenodd" d="M8.0126 3.7c-.4482 0-.8109.3647-.8109.7983a.65.65 0 0 1-1.3 0c0-1.1662.9594-2.0983 2.1109-2.0983 1.1376 0 2.0856.921 2.0856 2.0732v.2156a1.797 1.797 0 0 1-1.3613 1.7435.115.115 0 0 0-.087.1113v.489a.65.65 0 1 1-1.3 0v-.489c0-.6492.4419-1.215 1.0717-1.3725a.497.497 0 0 0 .3766-.4823v-.2156c0-.4197-.3512-.7732-.7856-.7732m.7115 5.143a.7241.7241 0 1 1-1.4482 0 .7241.7241 0 0 1 1.4482 0m.7383 3.1149h4.8803a.65.65 0 1 1 0 1.3H9.4623c-.2492.5597-.8102.9499-1.4624.9499s-1.2133-.3902-1.4624-.9499H1.6572a.65.65 0 1 1 0-1.3h4.8802c.2491-.5598.8102-.9501 1.4625-.9501s1.2133.3903 1.4625.9501"/></svg>