<svg width="16" height="16" viewBox="0 0 16 16" fill="none" xmlns="http://www.w3.org/2000/svg">
<path d="M7.20186 4.49839C7.20186 4.06485 7.56451 3.70015 8.01272 3.70015C8.44711 3.70015 8.79834 4.05364 8.79834 4.47336V4.68888C8.79834 4.91702 8.64307 5.11588 8.42175 5.17121C7.79193 5.32867 7.3501 5.89456 7.3501 6.54376V7.03281C7.3501 7.3918 7.64111 7.68281 8.0001 7.68281C8.35908 7.68281 8.6501 7.3918 8.6501 7.03281V6.54376C8.6501 6.49109 8.68594 6.44517 8.73704 6.4324C9.53709 6.23239 10.0983 5.51355 10.0983 4.68888V4.47336C10.0983 3.32104 9.15037 2.40015 8.01272 2.40015C6.86125 2.40015 5.90186 3.33225 5.90186 4.49839C5.90186 4.85737 6.19287 5.14839 6.55186 5.14839C6.91084 5.14839 7.20186 4.85737 7.20186 4.49839Z" fill="black"/>
<path d="M8.72422 8.84312C8.72422 9.24304 8.40002 9.56724 8.0001 9.56724C7.60018 9.56724 7.27598 9.24304 7.27598 8.84312C7.27598 8.44319 7.60018 8.11899 8.0001 8.11899C8.40002 8.11899 8.72422 8.44319 8.72422 8.84312Z" fill="black"/>
<path d="M9.4625 11.958H14.3429C14.7019 11.958 14.9929 12.249 14.9929 12.608C14.9929 12.967 14.7019 13.258 14.3429 13.258H9.46241C9.21324 13.8177 8.65219 14.2079 8 14.2079C7.34781 14.2079 6.78676 13.8177 6.53759 13.258H1.65732C1.29834 13.258 1.00732 12.967 1.00732 12.608C1.00732 12.249 1.29834 11.958 1.65732 11.958H6.5375C6.78663 11.3982 7.34774 11.0079 8 11.0079C8.65226 11.0079 9.21337 11.3982 9.4625 11.958Z" fill="black"/>
</svg>
