<svg xmlns="http://www.w3.org/2000/svg" width="16" height="16" fill="none" viewBox="0 0 16 16"><path fill="#000" fill-rule="evenodd" d="M12.6248 1.016c-1.6476 0-2.9833 1.3356-2.9833 2.9833v1.373H4.475c-1.436 0-2.6 1.164-2.6 2.6v4.4279c0 1.4359 1.164 2.6 2.6 2.6h7.05c1.4359 0 2.6-1.1641 2.6-2.6v-4.428c0-1.4359-1.1641-2.6-2.6-2.6h-.5835v-1.373c0-.9296.7536-1.6832 1.6833-1.6832.7735 0 1.4267.5223 1.623 1.2346a.65.65 0 1 0 1.2532-.3454c-.3477-1.2617-1.5028-2.1892-2.8762-2.1892M4.475 6.6723h7.05c.718 0 1.3.582 1.3 1.3v4.4279c0 .7179-.582 1.3-1.3 1.3h-7.05c-.718 0-1.3-.5821-1.3-1.3v-4.428c0-.7179.582-1.3 1.3-1.3"/></svg>