<svg xmlns="http://www.w3.org/2000/svg" width="16" height="16" fill="none" viewBox="0 0 16 16"><path fill="#000" fill-rule="evenodd" d="M5.018 3.9992c0-1.6477 1.3356-2.9833 2.9833-2.9833 1.3734 0 2.5285.9275 2.8762 2.1891a.65.65 0 1 1-1.2533.3455c-.1963-.7124-.8495-1.2346-1.623-1.2346-.9296 0-1.6832.7536-1.6832 1.6833V5.372h5.207c1.4359 0 2.6 1.1641 2.6 2.6V12.4c0 1.436-1.1641 2.6-2.6 2.6h-7.05c-1.436 0-2.6-1.164-2.6-2.6V7.9721c0-1.436 1.164-2.6 2.6-2.6h.543zm6.507 2.6728h-7.05c-.718 0-1.3.582-1.3 1.3V12.4c0 .718.582 1.3 1.3 1.3h7.05c.718 0 1.3-.582 1.3-1.3V7.9721c0-.718-.582-1.3-1.3-1.3"/></svg>