<svg xmlns="http://www.w3.org/2000/svg" width="16" height="16" fill="none" viewBox="0 0 16 16"><path fill="#000" fill-rule="evenodd" d="M8.0012 1.0159c-1.6476 0-2.9832 1.3356-2.9832 2.9833V5.372h-.543c-1.436 0-2.6 1.1641-2.6 2.6V12.4c0 1.436 1.164 2.6 2.6 2.6h7.05c1.4359 0 2.6-1.164 2.6-2.6V7.9721c0-1.436-1.1641-2.6-2.6-2.6H6.318V3.999c0-.9296.7536-1.6832 1.6832-1.6832.7735 0 1.4267.5223 1.623 1.2346a.65.65 0 0 0 1.2533-.3455C10.5298 1.9435 9.3747 1.016 8.0012 1.016M4.475 6.672h7.05c.718 0 1.3.582 1.3 1.3V12.4c0 .718-.582 1.3-1.3 1.3h-7.05c-.718 0-1.3-.582-1.3-1.3V7.9721c0-.718.582-1.3 1.3-1.3M9.5 10.186c0 .8284-.6716 1.5-1.5 1.5s-1.5-.6716-1.5-1.5.6716-1.5 1.5-1.5 1.5.6716 1.5 1.5"/></svg>