<svg width="16" height="16" viewBox="0 0 16 16" fill="none" xmlns="http://www.w3.org/2000/svg">
<path fill-rule="evenodd" clip-rule="evenodd" d="M4.85421 5.36206L2.46577 2.97363C2.21193 2.71979 2.21193 2.30824 2.46577 2.0544C2.71961 1.80055 3.13117 1.80055 3.38501 2.05439L12.292 10.9613C12.5458 11.2152 12.5458 11.6267 12.292 11.8806C12.0382 12.1344 11.6266 12.1344 11.3728 11.8806L9.69233 10.2001H8.65059V15.2497C8.65059 15.6087 8.35957 15.8997 8.00059 15.8997C7.6416 15.8997 7.35059 15.6087 7.35059 15.2497V10.2001H3.39793L3.36875 10.2003C3.00976 10.2003 2.71875 9.90928 2.71875 9.5503C2.71875 9.22491 2.95784 8.95537 3.26991 8.90776C3.30245 8.90275 3.33579 8.90015 3.36973 8.90015H3.39006C4.20063 8.88875 4.85421 8.22812 4.85421 7.41484V5.36206ZM8.39232 8.90015H5.72558C5.99709 8.47024 6.15421 7.96089 6.15421 7.41484V6.66205L8.39232 8.90015Z" fill="black"/>
<path d="M9.84648 3.0998V6.68819L11.1465 7.98819V3.0998H11.7298C12.0888 3.0998 12.3798 2.80879 12.3798 2.4498C12.3798 2.09082 12.0888 1.7998 11.7298 1.7998H4.95806L6.25807 3.0998H9.84648Z" fill="black"/>
</svg>
