<svg width="16" height="16" viewBox="0 0 16 16" fill="none" xmlns="http://www.w3.org/2000/svg">
<path fill-rule="evenodd" clip-rule="evenodd" d="M4.85421 4.51196L2.46577 2.12354C2.21193 1.8697 2.21193 1.45814 2.46577 1.2043C2.71961 0.950457 3.13117 0.950455 3.38501 1.2043L12.292 10.1112C12.5458 10.3651 12.5458 10.7766 12.292 11.0305C12.0382 11.2843 11.6266 11.2843 11.3728 11.0305L9.69233 9.35005H8.65059V14.3996C8.65059 14.7586 8.35957 15.0496 8.00059 15.0496C7.6416 15.0496 7.35059 14.7586 7.35059 14.3996V9.35005H3.39793L3.36875 9.3502C3.00976 9.3502 2.71875 9.05918 2.71875 8.7002C2.71875 8.37482 2.95784 8.10527 3.26991 8.05766C3.30245 8.05265 3.33579 8.05005 3.36973 8.05005H3.39006C4.20063 8.03865 4.85421 7.37802 4.85421 6.56474V4.51196ZM8.39232 8.05005H5.72558C5.99709 7.62014 6.15421 7.11079 6.15421 6.56474V5.81195L8.39232 8.05005Z" fill="black"/>
<path d="M9.84648 2.24971V5.8381L11.1465 7.13809V2.24971H11.7298C12.0888 2.24971 12.3798 1.95869 12.3798 1.59971C12.3798 1.24072 12.0888 0.949707 11.7298 0.949707H4.95806L6.25807 2.24971H9.84648Z" fill="black"/>
</svg>
