<svg xmlns="http://www.w3.org/2000/svg" width="16" height="16" fill="none" viewBox="0 0 16 16"><path fill="#000" fill-rule="evenodd" d="M2.447 6.6752C3.044 4.1658 5.3012 2.3 7.9926 2.3c1.965 0 3.6986.9942 4.724 2.5092h-1.2264a.65.65 0 0 0 0 1.3h2.8219a.65.65 0 0 0 .65-.65v-2.822a.65.65 0 1 0-1.3 0v1.2565C12.3905 2.1412 10.3252 1 7.9924 1c-3.307 0-6.0768 2.2926-6.81 5.3743a7 7 0 0 0-.07.3293.65.65 0 0 0 1.2777.2395q.0255-.1352.057-.2679m12.4482 2.4933a.65.65 0 0 0-1.282-.2156 5.6 5.6 0 0 1-.0529.2736C12.9995 11.7852 10.7188 13.7 7.9925 13.7c-1.9824 0-3.7294-1.0119-4.751-2.5494H4.51a.65.65 0 1 0 0-1.3H1.688a.65.65 0 0 0-.65.65v2.8219a.65.65 0 1 0 1.3 0v-1.1953C3.611 13.868 5.669 15 7.9926 15c3.3499 0 6.1489-2.3526 6.8377-5.4952a7 7 0 0 0 .065-.3363"/></svg>