<svg xmlns="http://www.w3.org/2000/svg" width="16" height="16" fill="none" viewBox="0 0 16 16"><path fill="#000" fill-rule="evenodd" d="M4.7941 1.044c-1.1321 0-2.05.9178-2.05 2.05v9.812c0 1.1322.9179 2.05 2.05 2.05h3.7403a1.944 1.944 0 0 1-.4412-1.3h-3.299a.75.75 0 0 1-.75-.75V3.094a.75.75 0 0 1 .75-.75h3.22v2.1434c0 1.1321.9178 2.05 2.05 2.05h1.8917v1.158a4.36 4.36 0 0 1 1.3.2431V6.101a1.15 1.15 0 0 0-.3089-.7842l-3.6425-3.907a1.15 1.15 0 0 0-.8411-.3657zm6.3016 4.1934-1.7815-1.911v1.161a.75.75 0 0 0 .75.75zm-1.265 9.1755c.2769.2333.5961.4187.9441.5431a3.07 3.07 0 0 0 1.0333.1783c1.6958 0 3.0706-1.3748 3.0706-3.0707S13.5039 8.993 11.8081 8.993a3.06 3.06 0 0 0-2.0922.8231v-.4303a.65.65 0 1 0-1.3 0v2.0793a.65.65 0 0 0 .65.65h1.9797a.65.65 0 0 0 0-1.3h-.4932a1.765 1.765 0 0 1 1.2557-.5221q.0747 0 .1478.0061a1.76 1.76 0 0 1 .8995.3367c.1545.1135.2899.2515.4005.4083a1.76 1.76 0 0 1 .3228 1.0195c0 .9779-.7927 1.7707-1.7706 1.7707a1.764 1.764 0 0 1-1.2918-.5596.65.65 0 0 0-.9946.8341zm0 0a3.1 3.1 0 0 1-.2626-.2488z"/></svg>