<svg width="16" height="16" viewBox="0 0 16 16" fill="none" xmlns="http://www.w3.org/2000/svg">
<path fill-rule="evenodd" clip-rule="evenodd" d="M2.74414 3.09395C2.74414 1.96176 3.66196 1.04395 4.79414 1.04395H8.46336C8.78233 1.04395 9.08698 1.17643 9.30449 1.40973L12.947 5.31667C13.1455 5.52956 13.2559 5.80981 13.2559 6.10088V7.9385C12.847 7.79498 12.4102 7.71055 11.9559 7.69545V6.53735H10.0642C8.93198 6.53735 8.01416 5.61953 8.01416 4.48735L8.01417 2.34395H4.79414C4.37993 2.34395 4.04414 2.67973 4.04414 3.09395V12.906C4.04414 13.3202 4.37993 13.656 4.79414 13.656H8.09325C8.07833 14.1148 8.22439 14.5788 8.53438 14.956H4.79414C3.66196 14.956 2.74414 14.0382 2.74414 12.906V3.09395ZM9.31416 3.32647L11.0957 5.23735H10.0642C9.64995 5.23735 9.31416 4.90157 9.31416 4.48735L9.31416 3.32647Z" fill="black"/>
<path d="M9.83063 14.4129C10.1076 14.6462 10.4268 14.8316 10.7748 14.956C11.0977 15.0714 11.4457 15.1343 11.8081 15.1343C13.5039 15.1343 14.8787 13.7595 14.8787 12.0636C14.8787 10.3678 13.5039 8.99298 11.8081 8.99298C10.9992 8.99298 10.2639 9.30577 9.71589 9.81615V9.38578C9.71589 9.02679 9.42488 8.73578 9.06589 8.73578C8.70691 8.73578 8.41589 9.02679 8.41589 9.38578V11.4651C8.41589 11.824 8.70691 12.1151 9.06589 12.1151H11.0456C11.4046 12.1151 11.6956 11.824 11.6956 11.4651C11.6956 11.1061 11.4046 10.8151 11.0456 10.8151H10.5524C10.8735 10.4922 11.3178 10.293 11.8081 10.293C11.8579 10.293 11.9072 10.295 11.9559 10.2991C12.262 10.3244 12.546 10.4275 12.788 10.5887C12.8109 10.6039 12.8333 10.6196 12.8554 10.6358C13.0099 10.7493 13.1453 10.8873 13.2559 11.0441C13.4593 11.3323 13.5787 11.684 13.5787 12.0636C13.5787 13.0416 12.786 13.8343 11.8081 13.8343C11.2986 13.8343 10.8402 13.62 10.5163 13.2747C10.2707 13.0128 9.85935 12.9997 9.59752 13.2453C9.47338 13.3617 9.40515 13.5154 9.39388 13.6728C9.383 13.8248 9.42529 13.9802 9.52172 14.1088" fill="black"/>
<path d="M9.56814 14.1641C9.65063 14.252 9.73829 14.3351 9.83063 14.4129L9.56814 14.1641Z" fill="black"/>
</svg>
