<svg width="16" height="16" viewBox="0 0 16 16" fill="none" xmlns="http://www.w3.org/2000/svg">
<path d="M11.2554 4.01136C11.5092 4.2652 11.5092 4.67675 11.2554 4.93059C11.0015 5.18443 10.59 5.18443 10.3361 4.93059L8.65034 3.2448V10.9698C8.65034 11.3287 8.35933 11.6198 8.00034 11.6198C7.64136 11.6198 7.35034 11.3287 7.35034 10.9698V3.24494L5.66469 4.93059C5.41085 5.18443 4.99929 5.18443 4.74545 4.93059C4.49161 4.67675 4.49161 4.26519 4.74545 4.01135L7.54079 1.21602C7.79463 0.962174 8.20619 0.962175 8.46003 1.21602L11.2554 4.01136Z" fill="black"/>
<path d="M3.27051 7.60108C2.74584 7.60108 2.32051 8.02641 2.32051 8.55108V12.7495C2.32051 13.2742 2.74584 13.6995 3.27051 13.6995H12.7717C13.2964 13.6995 13.7217 13.2742 13.7217 12.7495V8.55108C13.7217 8.02641 13.2964 7.60108 12.7717 7.60108H11.0427C10.6837 7.60108 10.3927 7.31006 10.3927 6.95108C10.3927 6.59209 10.6837 6.30108 11.0427 6.30108H12.7717C14.0143 6.30108 15.0217 7.30844 15.0217 8.55108V12.7495C15.0217 13.9921 14.0143 14.9995 12.7717 14.9995H3.27051C2.02787 14.9995 1.02051 13.9921 1.02051 12.7495V8.55108C1.02051 7.30844 2.02787 6.30108 3.27051 6.30108H5.03534C5.39433 6.30108 5.68534 6.59209 5.68534 6.95108C5.68534 7.31006 5.39433 7.60108 5.03534 7.60108H3.27051Z" fill="black"/>
</svg>
