<svg xmlns="http://www.w3.org/2000/svg" width="16" height="16" fill="none" viewBox="0 0 16 16"><path fill="#000" fill-rule="evenodd" d="M3.4923 5.5276c.4265-2.0996 2.2822-3.6795 4.5075-3.6795s4.081 1.5799 4.5075 3.6795c1.3905.2614 2.4425 1.4822 2.4425 2.9486 0 1.657-1.3433 3.0003-3.0003 3.0003h-.4458c.3186-.1486.8047-.7812.8284-1.3432.7548-.1736 1.3177-.8496 1.3177-1.6571 0-.9391-.7613-1.7004-1.7003-1.7004H11.94a.65.65 0 0 1-.6514-.5977c-.1368-1.6959-1.5573-3.03-3.2888-3.03s-3.152 1.3341-3.2888 3.03a.65.65 0 0 1-.6497.5978h-.0112c-.939 0-1.7003.7612-1.7003 1.7003 0 .8075.563 1.4836 1.3178 1.6571.1369.8159.6681 1.187.926 1.3432H4.05c-1.657 0-3.0003-1.3433-3.0003-3.0003 0-1.4664 1.052-2.6872 2.4425-2.9486m7.4223 3.6166a.65.65 0 0 1-.9193.9192L8.6498 8.7179V13.5a.65.65 0 1 1-1.3 0V8.718l-1.3455 1.3454a.65.65 0 1 1-.9192-.9192L7.5402 6.689a.65.65 0 0 1 .9192 0z"/></svg>