<svg width="16" height="16" viewBox="0 0 16 16" fill="none" xmlns="http://www.w3.org/2000/svg">
<path d="M13.334 10.35C13.6927 10.3504 13.9834 10.6416 13.9834 11.0004V12.0668C13.9832 13.3092 12.9758 14.3166 11.7334 14.3168H4.2666C3.02427 14.3166 2.01681 13.3092 2.0166 12.0668V11.0004C2.0166 10.6414 2.30801 10.35 2.66699 10.35C3.02583 10.3502 3.31738 10.6415 3.31738 11.0004V12.0668C3.3176 12.5912 3.74224 13.0168 4.2666 13.017H11.7334C12.2578 13.0168 12.6834 12.5912 12.6836 12.0668V11.0004C12.6836 10.6414 12.975 10.35 13.334 10.35Z" fill="black"/>
<path d="M7.6416 2.10979C7.89373 1.94314 8.23678 1.97108 8.45898 2.1928L11.126 4.85979L11.209 4.96135C11.3758 5.21363 11.3481 5.5565 11.126 5.77874C10.9039 6.00069 10.5608 6.02919 10.3086 5.86272L10.207 5.77874L8.64941 4.22112V9.34807C8.64941 9.70695 8.35884 9.99829 8 9.99846C7.64117 9.99829 7.34961 9.70695 7.34961 9.34807V4.2221L5.79297 5.77874L5.69043 5.86272C5.43818 6.0289 5.095 6.00069 4.87305 5.77874C4.61982 5.52495 4.61968 5.11348 4.87305 4.85979L7.54004 2.1928L7.6416 2.10979Z" fill="black"/>
</svg>
