<svg xmlns="http://www.w3.org/2000/svg" width="16" height="16" fill="none" viewBox="0 0 16 16"><path fill="#000" d="M11.2554 4.8614a.65.65 0 0 1-.9193.9193L8.6503 4.0949v7.725a.65.65 0 0 1-1.3 0V4.095L5.6647 5.7807a.65.65 0 0 1-.9192-.9193l2.7953-2.7953a.65.65 0 0 1 .9192 0z"/><path fill="#000" d="M3.2705 8.4512a.95.95 0 0 0-.95.95v4.1984a.95.95 0 0 0 .95.95h9.5012a.95.95 0 0 0 .95-.95V9.4012a.95.95 0 0 0-.95-.95h-1.729a.65.65 0 1 1 0-1.3h1.729c1.2426 0 2.25 1.0073 2.25 2.25v4.1984c0 1.2426-1.0074 2.25-2.25 2.25H3.2705c-1.2426 0-2.25-1.0074-2.25-2.25V9.4012c0-1.2427 1.0074-2.25 2.25-2.25h1.7648a.65.65 0 1 1 0 1.3z"/></svg>