<svg width="16" height="16" viewBox="0 0 16 16" fill="none" xmlns="http://www.w3.org/2000/svg">
<path d="M6.40885 5.36657C6.64629 5.63581 6.6205 6.04656 6.35125 6.284C5.83137 6.74246 5.50508 7.41128 5.50508 8.15703C5.50508 9.5357 6.62313 10.6537 8.00275 10.6537C9.38238 10.6537 10.5004 9.5357 10.5004 8.15703C10.5004 7.41128 10.1741 6.74246 9.65425 6.284C9.385 6.04656 9.35922 5.63581 9.59666 5.36657C9.8341 5.09732 10.2448 5.07153 10.5141 5.30897C11.3019 6.0037 11.8004 7.02254 11.8004 8.15703C11.8004 10.2541 10.1 11.9537 8.00275 11.9537C5.90555 11.9537 4.20508 10.2541 4.20508 8.15703C4.20508 7.02254 4.70362 6.0037 5.49141 5.30897C5.76066 5.07153 6.17141 5.09732 6.40885 5.36657Z" fill="black"/>
<path d="M8.65254 4.69712C8.65254 4.33813 8.36152 4.04712 8.00254 4.04712C7.64355 4.04712 7.35254 4.33813 7.35254 4.69712V8.157C7.35254 8.51598 7.64355 8.807 8.00254 8.807C8.36152 8.807 8.65254 8.51598 8.65254 8.157V4.69712Z" fill="black"/>
<path fill-rule="evenodd" clip-rule="evenodd" d="M1.4917 3.94146C1.4917 2.58836 2.5886 1.49146 3.9417 1.49146H12.0634C13.4165 1.49146 14.5134 2.58836 14.5134 3.94145V12.0594C14.5134 13.4124 13.4165 14.5093 12.0634 14.5093H3.9417C2.5886 14.5093 1.4917 13.4124 1.4917 12.0594V3.94146ZM3.9417 2.79146C3.30657 2.79146 2.7917 3.30633 2.7917 3.94146V12.0594C2.7917 12.6945 3.30657 13.2094 3.9417 13.2094H12.0634C12.6985 13.2094 13.2134 12.6945 13.2134 12.0594V3.94145C13.2134 3.30633 12.6985 2.79146 12.0634 2.79146H3.9417Z" fill="black"/>
</svg>
