<svg xmlns="http://www.w3.org/2000/svg" width="16" height="16" fill="none" viewBox="0 0 16 16"><path fill="#000" fill-rule="evenodd" d="M3.9416 1.4915c-1.3531 0-2.45 1.0969-2.45 2.45v8.1179c0 1.3531 1.0969 2.45 2.45 2.45h8.1217c1.3531 0 2.45-1.0969 2.45-2.45v-8.118c0-1.353-1.0969-2.45-2.45-2.45zm-1.15 2.45c0-.6351.5149-1.15 1.15-1.15h8.1217c.6351 0 1.15.5149 1.15 1.15v8.1179c0 .6351-.5149 1.15-1.15 1.15H3.9416c-.6351 0-1.15-.5149-1.15-1.15zm5.8608.7556a.65.65 0 0 0-1.3 0v3.46a.65.65 0 0 0 1.3 0zm-2.2437.6695a.65.65 0 0 1-.0576.9174c-.5199.4585-.8461 1.1273-.8461 1.873 0 1.3787 1.118 2.4967 2.4976 2.4967 1.3797 0 2.4977-1.118 2.4977-2.4966 0-.7458-.3263-1.4146-.8462-1.873a.65.65 0 1 1 .8599-.975c.7878.6946 1.2863 1.7135 1.2863 2.848 0 2.097-1.7005 3.7966-3.7977 3.7966S4.205 10.2541 4.205 8.1571c0-1.1345.4985-2.1534 1.2863-2.848a.65.65 0 0 1 .9174.0575"/></svg>