<svg width="16" height="16" viewBox="0 0 16 16" fill="none" xmlns="http://www.w3.org/2000/svg">
<path d="M8.0001 4.0166C8.35908 4.0166 8.6501 4.30762 8.6501 4.6666V7.33327C8.6501 7.69225 8.35908 7.98327 8.0001 7.98327C7.64111 7.98327 7.3501 7.69225 7.3501 7.33327V4.6666C7.3501 4.30762 7.64111 4.0166 8.0001 4.0166Z" fill="black"/>
<path d="M6.44569 6.6194C6.67069 6.33967 6.62632 5.93051 6.34659 5.70552C6.06686 5.48053 5.6577 5.52489 5.43271 5.80462C4.96394 6.38743 4.68359 7.13265 4.68359 7.94137C4.68359 9.79206 6.15528 11.3166 8.00026 11.3166C9.84524 11.3166 11.3169 9.79206 11.3169 7.94137C11.3169 7.13265 11.0366 6.38743 10.5678 5.80462C10.3428 5.52489 9.93366 5.48053 9.65393 5.70552C9.3742 5.93051 9.32983 6.33967 9.55483 6.6194C9.8429 6.97754 10.0169 7.43697 10.0169 7.94137C10.0169 9.10085 9.1008 10.0166 8.00026 10.0166C6.89972 10.0166 5.98359 9.10085 5.98359 7.94137C5.98359 7.43697 6.15763 6.97754 6.44569 6.6194Z" fill="black"/>
<path fill-rule="evenodd" clip-rule="evenodd" d="M2.68359 2.99998C2.68359 2.08871 3.42232 1.34998 4.33359 1.34998H11.6669C12.5782 1.34998 13.3169 2.08871 13.3169 2.99998V13C13.3169 13.9112 12.5782 14.65 11.6669 14.65H4.33359C3.42232 14.65 2.68359 13.9112 2.68359 13V2.99998ZM4.33359 2.64998C4.14029 2.64998 3.98359 2.80668 3.98359 2.99998V13C3.98359 13.1933 4.14029 13.35 4.33359 13.35H11.6669C11.8602 13.35 12.0169 13.1933 12.0169 13V2.99998C12.0169 2.80667 11.8602 2.64998 11.6669 2.64998H4.33359Z" fill="black"/>
</svg>
