<svg xmlns="http://www.w3.org/2000/svg" width="16" height="16" fill="none" viewBox="0 0 16 16"><path fill="#000" fill-rule="evenodd" d="M4.3335 1.35c-.9113 0-1.65.7387-1.65 1.65v10c0 .9113.7387 1.65 1.65 1.65h7.3333c.9113 0 1.65-.7387 1.65-1.65V3c0-.9112-.7387-1.65-1.65-1.65zM3.9835 3a.35.35 0 0 1 .35-.35h7.3333a.35.35 0 0 1 .35.35v10a.35.35 0 0 1-.35.35H4.3335a.35.35 0 0 1-.35-.35zM8 4.0166a.65.65 0 0 1 .65.65v2.6667a.65.65 0 0 1-1.3 0V4.6666a.65.65 0 0 1 .65-.65M6.4456 6.6194a.65.65 0 0 0-1.013-.8148c-.4688.5829-.7491 1.328-.7491 2.1368 0 1.8507 1.4717 3.3752 3.3167 3.3752s3.3166-1.5245 3.3166-3.3752c0-.8087-.2803-1.554-.7491-2.1367a.65.65 0 1 0-1.013.8147c.2881.3582.4621.8176.4621 1.322 0 1.1595-.9161 2.0752-2.0166 2.0752-1.1006 0-2.0167-.9157-2.0167-2.0752 0-.5044.174-.9638.4621-1.322"/></svg>