<svg xmlns="http://www.w3.org/2000/svg" width="16" height="16" fill="none" viewBox="0 0 16 16"><path fill="#000" d="M8.3213.9697c-.16-.2156-.4826-.2156-.6426 0L6.3952 2.7002c-.1958.264-.0073.6383.3213.6383H7.35v5.3448H5.6667a.35.35 0 0 1-.35-.35v-.9978c.4943-.241.835-.7485.835-1.3355 0-.8201-.665-1.485-1.485-1.485-.8202 0-1.485.6649-1.485 1.485 0 .587.3406 1.0945.835 1.3356v.9977c0 .9113.7387 1.65 1.65 1.65H7.35v1.9401c-.645.258-1.1007.8888-1.1007 1.626 0 .9668.7838 1.7506 1.7506 1.7506.9669 0 1.7507-.7838 1.7507-1.7506 0-.7371-.4556-1.3679-1.1006-1.626v-1.94h1.6834c.9112 0 1.65-.7388 1.65-1.65V7.282c.397-.1324.6833-.5072.6833-.9488v-.6667c0-.5522-.4477-1-1-1H11c-.5523 0-1 .4478-1 1v.6667c0 .4416.2863.8164.6834.9488v1.0512a.35.35 0 0 1-.35.35H8.65V3.3385h.6335c.3287 0 .517-.3743.3213-.6383z"/></svg>