<svg xmlns="http://www.w3.org/2000/svg" width="16" height="16" fill="none" viewBox="0 0 16 16"><path fill="#000" fill-rule="evenodd" d="M7.9843 1.1016c-1.6355 0-2.9614 1.3258-2.9614 2.9613s1.3259 2.9613 2.9614 2.9613 2.9613-1.3258 2.9613-2.9613-1.3258-2.9613-2.9613-2.9613M6.3229 4.0629c0-.9175.7439-1.6613 1.6614-1.6613s1.6613.7438 1.6613 1.6613-.7438 1.6613-1.6613 1.6613-1.6614-.7438-1.6614-1.6613" clip-rule="evenodd"/><path fill="#000" d="M5.6832 8.1348c-2.0158 0-3.65 1.6341-3.65 3.65v1.0675c0 1.1322.9178 2.05 2.05 2.05h5.0293a5.66 5.66 0 0 1-.5144-.65 4.54 4.54 0 0 1-.3663-.65H4.0832a.75.75 0 0 1-.75-.75v-1.0675c0-1.2979 1.0521-2.35 2.35-2.35h2.0395a1.95 1.95 0 0 1 .7984-1.3z"/><path fill="#000" fill-rule="evenodd" d="M12.7634 8.166a1.65 1.65 0 0 0-1.5204 0l-1.69.8773q-.037.019-.0747.0375c-.0654.0323-.1313.0648-.1913.1054a.65.65 0 0 0-.286.5386v.8428c0 .8943.0422 2.0267.6725 2.9553.4412.6499.969 1.056 1.3887 1.2999.2099.122.3944.2045.5306.2575.1462.057.2791.0848.4104.0841.1379-.0007.274-.0327.4218-.0951.1723-.0728.4255-.1958.7134-.3903a4.51 4.51 0 0 0 1.1467-1.1168c.6731-.943.7203-2.1145.7203-3.0364v-.801a.65.65 0 0 0-.3505-.577zm-.9214 1.1538a.35.35 0 0 1 .3225 0l1.5409.7999v.4061c0 .9361-.0721 1.7119-.4784 2.2812a3.215 3.215 0 0 1-.9616.8873 3 3 0 0 1-.273.145 2.7 2.7 0 0 1-.2769-.1404c-.2884-.1677-.6566-.4498-.9664-.9062-.3824-.5632-.4481-1.3164-.4481-2.2251v-.4479z" clip-rule="evenodd"/></svg>