<svg width="16" height="16" viewBox="0 0 16 16" fill="none" xmlns="http://www.w3.org/2000/svg">
<g clip-path="url(#clip0_39878_130)">
<path d="M2.85547 11.3428C3.21429 11.343 3.50488 11.6343 3.50488 11.9932V15.3486L3.49609 15.4551C3.45593 15.6968 3.28162 15.8998 3.04102 15.9717C2.80031 16.0434 2.54299 15.9694 2.37695 15.7891L2.31152 15.7051L1.30469 14.1699V15.3486C1.3044 15.7074 1.0131 15.999 0.654297 15.999C0.295543 15.999 0.00419622 15.7073 0.00390625 15.3486V11.9932L0.0126953 11.8877C0.0524158 11.6455 0.227826 11.4422 0.46875 11.3701C0.743932 11.2882 1.04075 11.3966 1.19824 11.6367L2.20508 13.1719V11.9932C2.20508 11.6342 2.49654 11.3428 2.85547 11.3428Z" fill="black"/>
<path d="M5.75488 11.3428C6.29589 11.3429 6.78434 11.5691 7.13086 11.9297L7.27051 12.0918L7.33887 12.2041C7.47049 12.476 7.39854 12.812 7.14941 13.0029C6.9002 13.1936 6.55626 13.1765 6.32812 12.9785L6.23828 12.8818L6.19336 12.8301C6.08208 12.7141 5.92684 12.6437 5.75488 12.6436C5.41893 12.6436 5.14648 12.916 5.14648 13.252V14.0908C5.14696 14.4264 5.41922 14.6992 5.75488 14.6992C5.88245 14.6991 5.99982 14.6571 6.09766 14.5898C5.79828 14.532 5.57168 14.2693 5.57129 13.9531C5.57129 13.5942 5.86275 13.3028 6.22168 13.3027H7.0127C7.37168 13.3027 7.66309 13.5941 7.66309 13.9531L7.6582 14.2305C7.58567 15.2188 6.76131 15.9988 5.75488 15.999C4.70125 15.999 3.84617 15.1444 3.8457 14.0908V13.252C3.8457 12.198 4.70096 11.3428 5.75488 11.3428Z" fill="black"/>
<path d="M10.6562 11.3564C10.9525 11.417 11.1758 11.679 11.1758 11.9932C11.1755 12.3071 10.9524 12.5694 10.6562 12.6299L10.5254 12.6436H9.30469V13.1045H9.83008L9.96094 13.1182C10.2573 13.1786 10.4803 13.4407 10.4805 13.7549C10.4804 14.0691 10.2573 14.3312 9.96094 14.3916L9.83008 14.4053H9.30469V15.3486C9.3044 15.7074 9.0131 15.999 8.6543 15.999C8.29551 15.999 8.0042 15.7074 8.00391 15.3486V11.9932C8.00391 11.6342 8.29533 11.3428 8.6543 11.3428H10.5254L10.6562 11.3564Z" fill="black"/>
<path d="M15.4805 11.3564C15.7879 11.4206 15.9993 11.6927 15.998 11.9951L15.9844 12.126L15.2852 15.4805L15.2539 15.585C15.1627 15.8177 14.9435 15.9818 14.6875 15.9971C14.3946 16.0144 14.1257 15.8327 14.0322 15.5547L13.7461 14.6973L13.457 15.5557C13.3634 15.8332 13.0952 16.0142 12.8027 15.9971C12.5101 15.9799 12.2645 15.7682 12.2041 15.4814L11.501 12.127C11.4273 11.7756 11.6526 11.4312 12.0039 11.3574C12.3113 11.293 12.6133 11.4569 12.7334 11.7344L12.7734 11.8594L12.9873 12.875L13.1299 12.4482C13.2189 12.1835 13.4668 12.0048 13.7461 12.0049C13.9905 12.005 14.2105 12.142 14.3213 12.3535L14.3623 12.4482L14.5029 12.8643L14.7109 11.8604L14.751 11.7354C14.8706 11.4576 15.1729 11.2924 15.4805 11.3564Z" fill="black"/>
<path d="M7.00684 8.33594L7.01074 8.49316C7.01712 8.61851 7.03365 8.7414 7.05469 8.8623H2.90332C2.54452 8.86241 2.25406 9.15293 2.25391 9.51172V10.2158H0.953125V9.51172C0.953276 8.43496 1.82655 7.56163 2.90332 7.56152H7.00684V8.33594Z" fill="black"/>
<path d="M11.1689 5.4375C11.5279 5.4375 11.8193 5.72891 11.8193 6.08789V8.33594C11.8191 9.30549 11.033 10.0916 10.0635 10.0918C9.09396 10.0916 8.3069 9.30545 8.30664 8.33594V6.08789C8.30664 5.72905 8.59825 5.43774 8.95703 5.4375C9.31602 5.4375 9.60742 5.72891 9.60742 6.08789V8.33594C9.60768 8.58748 9.81193 8.79176 10.0635 8.79199C10.3151 8.79182 10.5193 8.58752 10.5195 8.33594V6.08789C10.5195 5.72916 10.8103 5.43791 11.1689 5.4375Z" fill="black"/>
<path d="M15.1562 5.45703C15.5037 5.45703 15.7858 5.73854 15.7861 6.08594C15.7861 6.43364 15.504 6.71582 15.1562 6.71582H13.7754C13.6691 6.71604 13.5821 6.80287 13.582 6.90918C13.5822 7.01544 13.6691 7.10134 13.7754 7.10156H14.5977C15.3994 7.10162 16.0497 7.75194 16.0498 8.55371C16.0498 9.35561 15.3995 10.0058 14.5977 10.0059H13.166C12.8185 10.0056 12.5361 9.72354 12.5361 9.37598C12.5364 9.02864 12.8187 8.74729 13.166 8.74707H14.5977C14.7041 8.74701 14.79 8.66021 14.79 8.55371C14.7899 8.44734 14.704 8.36139 14.5977 8.36133H13.7754C12.9737 8.36111 12.3234 7.71084 12.3232 6.90918C12.3233 6.10747 12.9737 5.45725 13.7754 5.45703H15.1562Z" fill="black"/>
<path d="M13.1035 1.21484C14.1804 1.21484 15.0536 2.08915 15.0537 3.16602V4.15723H13.7539V3.16602C13.7538 2.80712 13.4624 2.5166 13.1035 2.5166H2.90332C2.54449 2.51671 2.25401 2.80719 2.25391 3.16602V4.5752C2.25442 4.93368 2.54474 5.2245 2.90332 5.22461H7.20996C7.081 5.48496 7.00684 5.77748 7.00684 6.08789V6.52441H2.90332C1.82677 6.52431 0.953639 5.65165 0.953125 4.5752V3.16602C0.953231 2.08922 1.82652 1.21495 2.90332 1.21484H13.1035Z" fill="black"/>
<path d="M4.44727 3.06738C4.89033 3.06738 5.24977 3.42613 5.25 3.86914C5.25 4.31235 4.89048 4.67188 4.44727 4.67188C4.00424 4.67165 3.64551 4.31221 3.64551 3.86914C3.64574 3.42627 4.00439 3.0676 4.44727 3.06738Z" fill="black"/>
<path d="M6.85254 3.06738C7.29547 3.06754 7.65406 3.42622 7.6543 3.86914C7.6543 4.31226 7.29562 4.67172 6.85254 4.67188C6.40933 4.67188 6.0498 4.31235 6.0498 3.86914C6.05004 3.42613 6.40947 3.06738 6.85254 3.06738Z" fill="black"/>
</g>
<defs>
<clipPath id="clip0_39878_130">
<rect width="16" height="16" fill="white"/>
</clipPath>
</defs>
</svg>
