<svg xmlns="http://www.w3.org/2000/svg" width="16" height="16" fill="none" viewBox="0 0 16 16"><g clip-path="url(#a)"><path fill="#fff" d="M13.6776 1.5084C13.2933 1.1538 11.7403.0264 8.281.0111c0 0-4.0793-.246-6.068 1.578C1.106 2.6965.7168 4.3166.6756 6.3252c-.041 2.0085-.0942 5.7727 3.5342 6.7934h.0035L4.211 14.676s-.0232.6305.392.7591c.5021.156.7969-.3233 1.2763-.8399.2632-.2835.6266-.7001.9005-1.0185 2.4815.2089 4.39-.2685 4.6068-.3391.501-.1624 3.3363-.5256 3.7974-4.2896.476-3.8795-.2302-6.3334-1.5064-7.4395"/><path fill="#7360f2" d="M12.8708 2.292c-.3249-.2952-1.7273-1.1764-4.6534-1.1892 0 0-3.4651-.2276-5.1472 1.2959-.9361.9243-1.2515 2.2989-1.2861 3.9763s-.2137 4.8819 2.8545 5.7343c0 0-.012 2.3789-.0135 2.588 0 .1462.0232.2462.1068.2669.06.0146.1501-.0165.2267-.0928.4906-.4927 2.0613-2.3876 2.0613-2.3876 2.1074.1376 3.7841-.2785 3.9644-.3374.4252-.1367 2.7248-.3342 3.114-3.4778.4021-3.2404-.1479-5.4523-1.2275-6.3766"/><path fill="#fff" d="M7.8963 2.6702a.2934.2934 0 1 0-.004.5869c1.018.007 1.8537.3413 2.5275.9981.664.6474 1.0142 1.5428 1.0232 2.7227a.2934.2934 0 1 0 .5869-.0045c-.0099-1.3008-.4009-2.359-1.2005-3.1384-.7898-.77-1.7743-1.1568-2.933-1.1648"/><path fill="#fff" d="M7.9466 3.9571a.2935.2935 0 0 1 .314-.2713c.8408.0616 1.5275.3501 2.0296.8981.4952.5412.7291 1.2141.7121 1.9962a.2934.2934 0 1 1-.5867-.0127c.014-.6474-.1756-1.1689-.5582-1.587-.3798-.4146-.9138-.6561-1.6396-.7092a.2935.2935 0 0 1-.2712-.3141"/><path fill="#fff" d="M8.243 5.013a.294.294 0 0 1 .308-.278c.42.022.783.15 1.044.42.26.269.382.639.403 1.067a.293.293 0 1 1-.586.029c-.017-.339-.109-.554-.239-.688-.128-.133-.331-.225-.653-.242a.294.294 0 0 1-.278-.308m.333 3.845s.275.023.423-.159l.289-.363c.139-.18.475-.295.804-.112a8.5 8.5 0 0 1 .717.458c.218.161.667.534.667.534.213.18.262.444.117.723l-.001.006a3.01 3.01 0 0 1-.601.74c-.003.001-.003.003-.005.004q-.31.259-.61.295a.4.4 0 0 1-.089.006.81.81 0 0 1-.259-.04l-.006-.009c-.308-.087-.822-.304-1.677-.776a10 10 0 0 1-1.409-.931 7.4 7.4 0 0 1-.634-.562l-.064-.064-.021-.021a7.4 7.4 0 0 1-.562-.634 10 10 0 0 1-.931-1.409c-.472-.856-.689-1.369-.776-1.677l-.009-.006a.81.81 0 0 1-.04-.259.4.4 0 0 1 .005-.089q.037-.299.296-.61c.001-.003.003-.003.004-.005a3 3 0 0 1 .74-.601l.006-.001c.279-.145.543-.096.722.116 0 0 .374.449.534.667q.247.348.458.718c.183.329.069.666-.112.804l-.363.289c-.183.148-.159.423-.159.423s.538 2.036 2.548 2.549"/></g><defs><clipPath id="a"><path fill="#fff" d="M0 0h16v16H0z"/></clipPath></defs></svg>