<svg width="16" height="16" viewBox="0 0 16 16" fill="none" xmlns="http://www.w3.org/2000/svg">
<g clip-path="url(#clip0_29788_2492)">
<path d="M13.6776 1.50867C13.2933 1.15406 11.7403 0.0266612 8.28102 0.0113445C8.28102 0.0113445 4.20167 -0.234651 2.21305 1.58943C1.10607 2.69664 0.716659 4.31673 0.675583 6.32531C0.634506 8.33388 0.581362 12.0981 4.20979 13.1187H4.21328L4.21096 14.6762C4.21096 14.6762 4.18775 15.3067 4.60292 15.4353C5.10513 15.5912 5.39986 15.112 5.87932 14.5954C6.14248 14.3118 6.50591 13.8952 6.77975 13.5768C9.26129 13.7857 11.1698 13.3083 11.3866 13.2378C11.8876 13.0753 14.7229 12.7121 15.184 8.94817C15.66 5.06864 14.9538 2.61472 13.6776 1.50867Z" fill="white"/>
<path d="M12.8708 2.29219C12.5459 1.99699 11.1435 1.11582 8.21735 1.10306C8.21735 1.10306 4.75229 0.875395 3.07024 2.39894C2.13406 3.32328 1.81868 4.69784 1.7841 6.37525C1.74952 8.05266 1.57036 11.2571 4.63858 12.1095C4.63858 12.1095 4.62651 14.4885 4.62512 14.6976C4.62512 14.8438 4.64832 14.9438 4.73187 14.9644C4.79198 14.9791 4.88202 14.948 4.9586 14.8716C5.4492 14.3789 7.01986 12.4841 7.01986 12.4841C9.1273 12.6217 10.804 12.2056 10.9843 12.1466C11.4095 12.0099 13.7091 11.8124 14.0983 8.66881C14.5004 5.4284 13.9504 3.21653 12.8708 2.29219Z" fill="#7360F2"/>
<path d="M7.89633 2.67042C7.73426 2.66929 7.60197 2.79976 7.60084 2.96182C7.59971 3.12389 7.73018 3.25619 7.89224 3.25731C8.91026 3.26441 9.74603 3.59867 10.4198 4.25545C11.0838 4.90281 11.434 5.79827 11.443 6.97815C11.4442 7.14021 11.5766 7.27059 11.7387 7.26936C11.9008 7.26813 12.0311 7.13575 12.0299 6.97368C12.02 5.67288 11.629 4.6146 10.8294 3.83519C10.0396 3.0652 9.05514 2.67849 7.89633 2.67042Z" fill="white"/>
<path d="M7.94659 3.95734C7.95842 3.7957 8.09904 3.67426 8.26068 3.68609C9.10139 3.74762 9.78812 4.03617 10.2902 4.58419C10.7854 5.12531 11.0193 5.79828 11.0023 6.58036C10.9988 6.74239 10.8646 6.8709 10.7026 6.8674C10.5406 6.86389 10.4121 6.72969 10.4156 6.56766C10.4296 5.92024 10.24 5.39875 9.8574 4.98065C9.47758 4.56604 8.94361 4.32455 8.21784 4.27143C8.0562 4.2596 7.93476 4.11898 7.94659 3.95734Z" fill="white"/>
<path d="M8.24283 5.01328C8.25128 4.85143 8.38933 4.72707 8.55118 4.73551C8.97137 4.75743 9.33378 4.88552 9.59516 5.15578C9.85517 5.42461 9.97691 5.79463 9.99816 6.22288C10.0062 6.38476 9.88148 6.52249 9.7196 6.53052C9.55773 6.53855 9.42 6.41383 9.41197 6.25196C9.39515 5.91299 9.30301 5.69792 9.17329 5.5638C9.04495 5.4311 8.8418 5.33838 8.5206 5.32162C8.35875 5.31318 8.23439 5.17513 8.24283 5.01328Z" fill="white"/>
<path d="M8.57475 8.85771C8.57475 8.85771 8.84975 8.88092 8.99781 8.69851L9.28651 8.33532C9.42575 8.15523 9.76179 8.04035 10.0909 8.22369C10.3375 8.36433 10.5769 8.51723 10.8082 8.6818C11.0266 8.84239 11.4752 9.21556 11.4752 9.21556C11.6882 9.39542 11.7374 9.65951 11.5924 9.938L11.5912 9.9438C11.4315 10.2207 11.2286 10.4705 10.9904 10.6836C10.9876 10.685 10.9876 10.6864 10.985 10.6878C10.778 10.8608 10.5747 10.9591 10.3749 10.9828C10.3455 10.9879 10.3156 10.9898 10.2858 10.9884C10.1977 10.9892 10.1101 10.9757 10.0264 10.9484L10.0199 10.9389C9.71213 10.8521 9.19832 10.6349 8.34268 10.1629C7.84753 9.89294 7.37613 9.58154 6.93354 9.23204C6.7117 9.05696 6.50009 8.86929 6.29975 8.66996L6.2357 8.60591C6.22851 8.59895 6.22154 8.59175 6.21435 8.58456C6.01502 8.38422 5.82735 8.17261 5.65227 7.95077C5.30282 7.50823 4.99143 7.03691 4.72144 6.54187C4.2494 5.68599 4.03218 5.17265 3.94539 4.86446L3.93587 4.85796C3.90867 4.7742 3.89526 4.68657 3.89619 4.5985C3.89457 4.56869 3.89636 4.53879 3.90153 4.50939C3.92644 4.30996 4.02491 4.10644 4.19695 3.89881C4.19835 3.89626 4.19974 3.89626 4.20113 3.89347C4.41424 3.65521 4.66399 3.45246 4.94097 3.29287L4.94678 3.29148C5.22526 3.14643 5.48936 3.19563 5.66898 3.40751C5.66898 3.40751 6.04285 3.85611 6.20275 4.07449C6.36734 4.30603 6.52023 4.54568 6.66085 4.79252C6.84419 5.12136 6.72932 5.4581 6.54923 5.59687L6.18604 5.88557C6.0027 6.03363 6.02684 6.30864 6.02684 6.30864C6.02684 6.30864 6.56478 8.3446 8.57475 8.85771Z" fill="white"/>
</g>
<defs>
<clipPath id="clip0_29788_2492">
<rect width="16" height="16" fill="white"/>
</clipPath>
</defs>
</svg>
