<svg xmlns="http://www.w3.org/2000/svg" width="16" height="16" fill="none" viewBox="0 0 16 16"><path fill="#000" fill-rule="evenodd" d="M11.7217 4.763C10.8776 3.4285 9.5031 2.683 8 2.683c-1.835 0-3.5368 1.1467-4.1777 3.082-.6567.1378-1.2316.4571-1.664.9434-.5299.5958-.8087 1.3943-.8087 2.292.0002 1.2846.8807 2.3282 2 2.7617v.9053c.0004 1.0949.8884 1.9832 1.9834 1.9834h5.334c1.095-.0002 1.983-.8885 1.9834-1.9834v-1.0831c1.1857-.6026 2-1.8298 2-3.251 0-1.8522-1.3363-3.2796-2.9287-3.5702M4.9658 6.4946C5.345 4.8885 6.6338 3.9838 8 3.9838c1.1238 0 2.1527.5843 2.751 1.6914l.1689.3125.3545.0263c1.0803.0813 2.0752 1.0298 2.0752 2.3194 0 .8011-.4024 1.5053-1.0146 1.9287-.353-.5484-.9677-.912-1.668-.9121H5.333c-.772.0001-1.4399.4418-1.7676 1.0859-.5393-.3031-.9149-.851-.915-1.4355 0-.6273.1906-1.1038.4785-1.4278.2866-.3223.7083-.5386 1.254-.58l.4735-.0352zm-.3154 4.8389a.6826.6826 0 0 1 .6826-.6826h5.334a.6826.6826 0 0 1 .6826.6826v1.334a.683.683 0 0 1-.6826.6826H5.333a.683.683 0 0 1-.6826-.6826zm1.333 0c.359 0 .6504.2914.6504.6504a.6503.6503 0 0 1-.6504.6494.6503.6503 0 0 1-.6504-.6494c0-.359.2914-.6504.6504-.6504m2 0c.359 0 .6504.2914.6504.6504a.6503.6503 0 0 1-.6504.6494.6503.6503 0 0 1-.6504-.6494c0-.359.2914-.6504.6504-.6504"/></svg>