<svg xmlns="http://www.w3.org/2000/svg" width="16" height="16" fill="none" viewBox="0 0 16 16"><path fill="#000" fill-rule="evenodd" d="M3.2456 3.2752c0-1.2427 1.0074-2.25 2.25-2.25h5.0939c1.2427 0 2.25 1.0073 2.25 2.25v2.4753c0 1.2427-1.0073 2.25-2.25 2.25H5.4956c-1.2426 0-2.25-1.0074-2.25-2.25zm2.25-.95a.95.95 0 0 0-.95.95v2.4753a.95.95 0 0 0 .95.95h5.0939a.95.95 0 0 0 .95-.95V3.2752a.95.95 0 0 0-.95-.95zm1.4313 6.576a.65.65 0 0 0 0 1.3h2.1456a.65.65 0 1 0 0-1.3zm-3.2296 1.8874a.65.65 0 0 1 0 .9193l-1.0787 1.0788 1.0787 1.0787a.65.65 0 0 1-.9192.9193l-1.5384-1.5384a.65.65 0 0 1 0-.9193l1.5384-1.5384a.65.65 0 0 1 .9192 0m8.6056.9193a.65.65 0 0 1 .9192-.9193l1.5384 1.5384a.65.65 0 0 1 0 .9193l-1.5384 1.5384a.65.65 0 0 1-.9192-.9193l1.0787-1.0787zm-6.8614 1.8288a.75.75 0 1 0 0-1.5.75.75 0 0 0 0 1.5m3.3516-.75a.75.75 0 1 1-1.5 0 .75.75 0 0 1 1.5 0m2.6015 0a.75.75 0 1 1-1.5 0 .75.75 0 0 1 1.5 0"/></svg>