<svg width="16" height="16" viewBox="0 0 16 16" fill="none" xmlns="http://www.w3.org/2000/svg">
<path d="M3.65973 2.99951C3.91357 2.74566 3.91356 2.33411 3.65972 2.08027C3.40588 1.82643 2.99432 1.82643 2.74048 2.08028L1.18989 3.6309C0.936051 3.88474 0.936053 4.29629 1.18989 4.55013L2.74049 6.10073C2.99433 6.35457 3.40588 6.35457 3.65973 6.10073C3.91357 5.84689 3.91357 5.43533 3.65973 5.18149L2.56875 4.09051L3.65973 2.99951Z" fill="black"/>
<path d="M12.3405 2.99951C12.0866 2.74566 12.0866 2.33411 12.3405 2.08027C12.5943 1.82643 13.0059 1.82643 13.2597 2.08028L14.8103 3.6309C15.0641 3.88474 15.0641 4.29629 14.8103 4.55013L13.2597 6.10073C13.0059 6.35457 12.5943 6.35457 12.3405 6.10073C12.0866 5.84689 12.0866 5.43533 12.3405 5.18149L13.4314 4.09051L12.3405 2.99951Z" fill="black"/>
<path d="M4.49131 11.8502C4.90552 11.8502 5.24131 11.5144 5.24131 11.1002C5.24131 10.686 4.90552 10.3502 4.49131 10.3502C4.0771 10.3502 3.74131 10.686 3.74131 11.1002C3.74131 11.5144 4.0771 11.8502 4.49131 11.8502Z" fill="black"/>
<path d="M8.0001 11.1002C8.0001 11.5144 7.66431 11.8502 7.2501 11.8502C6.83588 11.8502 6.5001 11.5144 6.5001 11.1002C6.5001 10.686 6.83588 10.3502 7.2501 10.3502C7.66431 10.3502 8.0001 10.686 8.0001 11.1002Z" fill="black"/>
<path fill-rule="evenodd" clip-rule="evenodd" d="M0.983887 10.0602C0.983887 8.70713 2.08079 7.61023 3.43389 7.61023H12.5664C13.9195 7.61023 15.0164 8.70713 15.0164 10.0602V12.1402C15.0164 13.4933 13.9195 14.5902 12.5664 14.5902H3.43389C2.08079 14.5902 0.983887 13.4933 0.983887 12.1402V10.0602ZM3.43389 8.91023C2.79876 8.91023 2.28389 9.4251 2.28389 10.0602V12.1402C2.28389 12.7753 2.79876 13.2902 3.43389 13.2902H12.5664C13.2016 13.2902 13.7164 12.7753 13.7164 12.1402V10.0602C13.7164 9.4251 13.2016 8.91023 12.5664 8.91023H3.43389Z" fill="black"/>
<path d="M8.00107 4.84043C8.41529 4.84043 8.75107 4.50464 8.75107 4.09043C8.75107 3.67622 8.41529 3.34043 8.00107 3.34043C7.58686 3.34043 7.25107 3.67622 7.25107 4.09043C7.25107 4.50464 7.58686 4.84043 8.00107 4.84043Z" fill="black"/>
<path d="M6.12803 4.09043C6.12803 4.50464 5.79224 4.84043 5.37803 4.84043C4.96381 4.84043 4.62803 4.50464 4.62803 4.09043C4.62803 3.67622 4.96381 3.34043 5.37803 3.34043C5.79224 3.34043 6.12803 3.67622 6.12803 4.09043Z" fill="black"/>
<path d="M10.6222 4.84043C11.0364 4.84043 11.3722 4.50464 11.3722 4.09043C11.3722 3.67622 11.0364 3.34043 10.6222 3.34043C10.208 3.34043 9.87217 3.67622 9.87217 4.09043C9.87217 4.50464 10.208 4.84043 10.6222 4.84043Z" fill="black"/>
</svg>
