<svg width="16" height="16" viewBox="0 0 16 16" fill="none" xmlns="http://www.w3.org/2000/svg">
<path d="M5.9834 11.3333C6.34235 11.3333 6.63379 11.6247 6.63379 11.9836C6.63355 12.3424 6.3422 12.633 5.9834 12.6331C5.62456 12.6331 5.33325 12.3424 5.33301 11.9836C5.33301 11.6247 5.62441 11.3333 5.9834 11.3333Z" fill="black"/>
<path d="M7.9834 11.3333C8.34235 11.3333 8.63379 11.6247 8.63379 11.9836C8.63355 12.3424 8.3422 12.633 7.9834 12.6331C7.62456 12.6331 7.33325 12.3424 7.33301 11.9836C7.33301 11.6247 7.62441 11.3333 7.9834 11.3333Z" fill="black"/>
<path fill-rule="evenodd" clip-rule="evenodd" d="M8 2.68286C9.50313 2.68286 10.8776 3.42827 11.7217 4.76294C13.3141 5.05357 14.6504 6.481 14.6504 8.33325C14.6504 9.75436 13.8361 10.9816 12.6504 11.5842V12.6672C12.6501 13.7622 11.762 14.6505 10.667 14.6506H5.33301C4.238 14.6505 3.34994 13.7622 3.34961 12.6672V11.762C2.2303 11.3285 1.34976 10.2849 1.34961 9.00024C1.34961 8.10263 1.62841 7.30405 2.1582 6.70825C2.59069 6.22197 3.16558 5.90267 3.82227 5.76489C4.46324 3.82956 6.16507 2.68286 8 2.68286ZM5.33301 10.6506C4.95587 10.6508 4.65057 10.9561 4.65039 11.3333V12.6672C4.65072 13.0442 4.95597 13.3497 5.33301 13.3499H10.667C11.044 13.3497 11.3493 13.0442 11.3496 12.6672V11.3333C11.3494 10.9561 11.0441 10.6508 10.667 10.6506H5.33301ZM8 3.98364C6.63383 3.98364 5.34493 4.88833 4.96582 6.49438L4.85645 6.95728L4.38281 6.99243C3.83721 7.03391 3.4155 7.25021 3.12891 7.57251C2.84101 7.8965 2.65039 8.37301 2.65039 9.00024C2.65053 9.58482 3.02606 10.1327 3.56543 10.4358C3.89314 9.7917 4.56102 9.34998 5.33301 9.34985H10.667C11.3674 9.34997 11.982 9.71362 12.335 10.262C12.9472 9.83855 13.3496 9.13439 13.3496 8.33325C13.3496 7.04367 12.3547 6.09515 11.2744 6.01392L10.9199 5.98755L10.751 5.67505C10.1527 4.56803 9.12378 3.98364 8 3.98364Z" fill="black"/>
</svg>
