<svg xmlns="http://www.w3.org/2000/svg" width="16" height="16" fill="none" viewBox="0 0 16 16"><path fill="#2787f5" fill-rule="evenodd" d="M1.9824 1.9824C1 2.9648 1 4.546 1 7.7084v.5833c0 3.1623 0 4.7435.9824 5.7259S4.546 15 7.7084 15h.5833c3.1623 0 4.7435 0 5.7259-.9824S15 11.454 15 8.2916v-.5833c0-3.1623 0-4.7435-.9824-5.726C13.0352 1 11.454 1 8.2916 1h-.5833c-3.1623 0-4.7435 0-5.726.9824M3.7708 5.375H4.792c.2609 0 .3591.1142.457.397.4993 1.4543 1.3414 2.7253 1.6874 2.7253.13 0 .1894-.0598.1894-.3893V6.6046c-.0233-.428-.1728-.613-.2836-.75-.0685-.0847-.122-.151-.122-.2449 0-.1142.0975-.2347.2597-.2347h1.6046c.2163 0 .2916.1156.2916.3753v2.0224c0 .2162.094.292.159.292.1297 0 .238-.0758.476-.3136.7355-.822 1.2547-2.0874 1.2547-2.0874.0418-.0973.1061-.1887.2155-.2417.061-.0295.1359-.047.2287-.047h1.0212c.3087 0 .3737.159.3087.3753-.1297.5947-1.3739 2.3468-1.3739 2.3468-.0602.0966-.1004.166-.0978.2424.002.0607.0309.1256.0978.2118.0534.0746.1671.186.2973.3135.1338.1311.2852.2794.406.422.4386.4932.7692.9094.8612 1.1962.0841.2878-.0617.4337-.3535.4337h-1.021c-.2736 0-.4113-.1531-.7088-.4841-.1262-.1403-.281-.3125-.487-.5185-.6059-.584-.8655-.6598-1.017-.6598-.2055 0-.267.0582-.267.3499v.9154c0 .2512-.0802.3971-.7294.3971-1.0816 0-2.2705-.6566-3.1142-1.868-1.2656-1.7736-1.6118-3.1146-1.6118-3.385 0-.1514.0584-.2887.35-.2887" clip-rule="evenodd"/></svg>