<svg xmlns="http://www.w3.org/2000/svg" width="16" height="16" fill="none" viewBox="0 0 16 16"><path fill="#000" fill-rule="evenodd" d="M3.8074 4.4105C4.4548 2.4755 6.1607 1.3292 8 1.3292c1.5078 0 2.8874.7457 3.7356 2.0818 1.5976.2966 2.9352 1.7303 2.9352 3.589 0 1.4273-.8145 2.6643-2.0041 3.2715V8.6271a2.322 2.322 0 0 0 .6625-1.627c0-1.2785-.9868-2.218-2.0565-2.2984l-.3656-.0274-.1742-.3226C10.1382 3.2512 9.116 2.6708 8 2.6708c-1.3565 0-2.637.8982-3.014 2.4949l-.1127.4775-.4893.0372c-.5407.0411-.9565.2544-1.2391.5723-.2843.3197-.474.7908-.474 1.414 0 .4846.2617.9471.6625 1.2607v1.5237c-1.123-.4387-2.0042-1.4926-2.0042-2.7844 0-.902.2794-1.7053.8131-2.3055.4335-.4875 1.0084-.8109 1.665-.9507M8.6708 6.486a1.333 1.333 0 0 0 .6626-1.1525C9.3334 4.597 8.7364 4 8 4s-1.3333.597-1.3333 1.3334c0 .4918.2663.9214.6625 1.1525V14a.6708.6708 0 1 0 1.3416 0zM6.0042 8a.6708.6708 0 1 0-1.3416 0v3.9959h-.8434a1.333 1.333 0 0 0-1.1525-.6625c-.7364 0-1.3333.5969-1.3333 1.3333S1.9304 14 2.6667 14c.4918 0 .9214-.2662 1.1525-.6625h.8434c.7409 0 1.3416-.6007 1.3416-1.3416zm4.6625-.6708A.671.671 0 0 1 11.3375 8v3.9959h.8433a1.333 1.333 0 0 1 1.1526-.6625c.7363 0 1.3333.5969 1.3333 1.3333S14.0697 14 13.3334 14a1.333 1.333 0 0 1-1.1526-.6625h-.8433c-.741 0-1.3416-.6007-1.3416-1.3416V8a.671.671 0 0 1 .6708-.6708"/></svg>