<svg xmlns="http://www.w3.org/2000/svg" width="16" height="16" fill="none" viewBox="0 0 16 16"><path fill="#000" fill-rule="evenodd" d="M8 2.6834a.65.65 0 0 1 .65.65v9.3333a.65.65 0 1 1-1.3 0V3.3333a.65.65 0 0 1 .65-.65m-2.6667 2a.65.65 0 0 1 .65.65V10a.65.65 0 1 1-1.3 0V5.3334a.65.65 0 0 1 .65-.65m5.3333 0a.65.65 0 0 1 .65.65V10a.65.65 0 1 1-1.3 0V5.3334a.65.65 0 0 1 .65-.65m-8 2a.65.65 0 0 1 .65.65v1.3333a.65.65 0 1 1-1.3 0V7.3333a.65.65 0 0 1 .65-.65m10.6667 0a.65.65 0 0 1 .65.65v1.3333a.65.65 0 1 1-1.3 0V7.3333a.65.65 0 0 1 .65-.65"/></svg>