<svg xmlns="http://www.w3.org/2000/svg" width="16" height="16" fill="none" viewBox="0 0 16 16"><path fill="#000" fill-rule="evenodd" d="M1.35 5c0-.5607.3414-.9914.7192-1.289.385-.3035.9018-.5483 1.4826-.7419C4.72 2.5797 6.2927 2.35 8 2.35s3.2799.2297 4.4482.6191c.5807.1936 1.0976.4384 1.4826.7419.3777.2976.7192.7283.7192 1.289v6c0 .5606-.3415.9913-.7192 1.289-.385.3034-.9019.5483-1.4826.7418-1.1683.3895-2.741.6192-4.4482.6192-1.7073 0-3.28-.2297-4.4482-.6192-.5808-.1935-1.0976-.4384-1.4826-.7418-.3778-.2977-.7192-.7284-.7192-1.289zm1.3 0c0-.001-.0008-.0197.0258-.063.0296-.0482.0888-.119.198-.205.2222-.1751.584-.3613 1.089-.5296C4.9663 3.868 6.3936 3.65 8 3.65s3.0338.218 4.0371.5524c.505.1684.8668.3545 1.089.5296.1092.086.1684.1568.198.205.0266.0433.0259.062.0259.063v.001c-.0002.0044-.0022.0234-.0259.062-.0296.0482-.0888.1189-.198.205-.2222.175-.584.3612-1.089.5296C11.0338 6.132 9.6064 6.35 8 6.35c-1.6065 0-3.0338-.218-4.0371-.5524-.505-.1684-.8669-.3545-1.089-.5297-.1093-.086-.1685-.1567-.198-.205-.0237-.0385-.0258-.0575-.026-.062zm10.7 1.657c-.2728.1415-.5773.2657-.9018.3738C11.2799 7.4203 9.7072 7.65 8 7.65c-1.7073 0-3.28-.2297-4.4482-.6192-.3245-.1081-.629-.2323-.9018-.3738V11c0 .0009-.0008.0197.0258.063.0296.0482.0888.1189.198.2049.2222.1752.584.3613 1.089.5296C4.9663 12.132 6.3936 12.35 8 12.35s3.0338-.218 4.0371-.5525c.505-.1683.8668-.3544 1.089-.5296.1092-.086.1684-.1567.198-.2049.0266-.0433.0259-.062.0259-.063z"/></svg>