<svg xmlns="http://www.w3.org/2000/svg" width="16" height="16" fill="none" viewBox="0 0 16 16"><path fill="#000" fill-rule="evenodd" d="M4.4802 3.106c.124-.1184 1.239-1.1226 3.52-1.1226S11.396 2.9875 11.52 3.106a.65.65 0 0 0 .8977-.9404C12.1228 1.8841 10.702.6834 8.0001.6834c-2.7018 0-4.1226 1.2007-4.4176 1.4822a.65.65 0 0 0 .8977.9404M5.834 5.4156C5.9187 5.3266 6.6039 4.65 8 4.65c1.3963 0 2.0815.6765 2.1661.7655a.65.65 0 1 0 .9423-.8956c-.2414-.254-1.245-1.17-3.1084-1.17s-2.867.916-3.1084 1.17a.65.65 0 0 0 .9424.8956m2.1658.601c-1.0953 0-1.9833.888-1.9833 1.9833v.6835h-.35c-.9113 0-1.65.7387-1.65 1.6499v3.3334c0 .9112.7387 1.65 1.65 1.65h4.6667c.9112 0 1.65-.7388 1.65-1.65v-3.3334c0-.9112-.7388-1.65-1.65-1.65h-.35V8c0-1.0953-.888-1.9833-1.9834-1.9833M7.3166 8a.6833.6833 0 0 1 1.3667 0v.6834H7.3166zm-2 2.3334a.35.35 0 0 1 .35-.35h4.6667a.35.35 0 0 1 .35.35v3.3334a.35.35 0 0 1-.35.35H5.6666a.35.35 0 0 1-.35-.35zM8.6668 12a.6667.6667 0 1 1-1.3333 0 .6667.6667 0 0 1 1.3333 0"/></svg>