<svg xmlns="http://www.w3.org/2000/svg" width="16" height="16" fill="none" viewBox="0 0 16 16"><path fill="#000" fill-rule="evenodd" d="M8 1.35C4.3273 1.35 1.35 4.3273 1.35 8S4.3273 14.65 8 14.65s6.65-2.9773 6.65-6.65S11.6727 1.35 8 1.35M2.65 8c0-2.9547 2.3953-5.35 5.35-5.35S13.35 5.0453 13.35 8 10.9547 13.35 8 13.35 2.65 10.9547 2.65 8m6.8096-1.8737A.65.65 0 0 0 8.65 5.1188V4a.65.65 0 0 0-1.3 0v1.1188a.65.65 0 0 0-.8096 1.0075l1 1a.65.65 0 0 0 .9192 0zm-3.3333.414a.65.65 0 0 0-1.0075.8097H4a.65.65 0 0 0 0 1.3h1.1188a.65.65 0 0 0 1.0075.8096l1-1a.65.65 0 0 0 0-.9192zm3.7474 2.9193a.65.65 0 0 0 1.0075-.8096H12a.65.65 0 1 0 0-1.3h-1.1188a.65.65 0 0 0-1.0075-.8096l-1 1a.65.65 0 0 0 0 .9192zm-.414 1.3333a.65.65 0 0 0 0-.9192l-1-1a.65.65 0 0 0-.9193 0l-1 1a.65.65 0 0 0 .8096 1.0075V12a.65.65 0 1 0 1.3 0v-1.1188a.65.65 0 0 0 .8096-.0883"/></svg>