<svg xmlns="http://www.w3.org/2000/svg" width="16" height="16" fill="none" viewBox="0 0 16 16"><path fill="#000" fill-rule="evenodd" d="M8.4423 1.5237 8 2l-.4423-.4763a.65.65 0 0 1 .8846 0M8 2.9084c-.079.0795-.1668.1688-.2616.267-.428.4433-.997 1.0632-1.5642 1.7723-.569.7112-1.1255 1.4989-1.537 2.2778-.417.7894-.654 1.5119-.654 2.1078C3.9833 11.6231 5.8736 13.35 8 13.35s4.0166-1.7269 4.0166-4.0167c0-.5959-.2368-1.3184-.6539-2.1078-.4115-.779-.968-1.5666-1.537-2.2778-.5672-.709-1.1362-1.329-1.5642-1.7723A26 26 0 0 0 8 2.9084m-.4423-1.3847c0-.0002 0 0 .4423.4763.4422-.4763.4421-.4764.4422-.4763l.0015.0013.0032.003.0114.0106.0418.0395c.036.0343.0881.0842.154.1484.1318.1284.3187.314.5426.546.447.463 1.0447 1.1138 1.6442 1.863.5976.7472 1.2078 1.6054 1.6713 2.4827.4579.8669.8044 1.811.8044 2.7151 0 3.0436-2.5087 5.3167-5.3166 5.3167s-5.3167-2.2731-5.3167-5.3167c0-.904.3465-1.8482.8044-2.715.4635-.8774 1.0737-1.7356 1.6714-2.4827.5994-.7493 1.197-1.4001 1.644-1.8631.224-.232.411-.4176.5427-.546a17 17 0 0 1 .154-.1484l.0418-.0395.0114-.0106z"/></svg>