<svg xmlns="http://www.w3.org/2000/svg" width="16" height="16" fill="none" viewBox="0 0 16 16"><path fill="#000" fill-rule="evenodd" d="M4.3333 1.35c-.9113 0-1.65.7387-1.65 1.65v1.047c-.7598.1477-1.3333.8167-1.3333 1.6197v4.6666c0 .803.5735 1.472 1.3333 1.6197V13c0 .9113.7387 1.65 1.65 1.65h2c.9113 0 1.65-.7387 1.65-1.65v-1.047c.7598-.1477 1.3333-.8167 1.3333-1.6197V7.3167h.0167a.65.65 0 1 0 0-1.3h-.0167v-.35c0-.803-.5735-1.472-1.3333-1.6197V3c0-.9112-.7387-1.65-1.65-1.65zm2.35 2.6667h-2.7V3a.35.35 0 0 1 .35-.35h2a.35.35 0 0 1 .35.35zm6.6667 2.65c0-1.3112-.8468-1.9855-1.0154-2.1064a.65.65 0 1 1 .7573-1.0567c.303.2172 1.5581 1.231 1.5581 3.163 0 1.9322-1.2551 2.946-1.5581 3.1632a.65.65 0 0 1-.7573-1.0567c.1686-.1209 1.0154-.7952 1.0154-2.1064m-2 0c0-.4655-.2763-.7152-.3611-.7809a.65.65 0 0 1 .796-1.0278 2.278 2.278 0 0 1 .8651 1.8087 2.278 2.278 0 0 1-.8651 1.8087.65.65 0 0 1-.796-1.0279c.0848-.0656.3611-.3153.3611-.7808m-3.3334-1a.35.35 0 0 0-.35-.35H3a.35.35 0 0 0-.35.35v4.6666a.35.35 0 0 0 .35.35h4.6666a.35.35 0 0 0 .35-.35zM3.9833 13v-1.0167h2.7V13a.35.35 0 0 1-.35.35h-2a.35.35 0 0 1-.35-.35"/></svg>