<svg xmlns="http://www.w3.org/2000/svg" width="16" height="16" fill="none" viewBox="0 0 16 16"><path fill="#000" fill-rule="evenodd" d="M14.9999 7.9627C14.98 4.1355 11.8887 1.035 8.0651 1.0002a1.8 1.8 0 0 0-.1301 0C4.099 1.0352 1 4.1556 1 8c0 3.8432 3.0971 6.963 6.9316 6.9997a1.7 1.7 0 0 0 .1369 0c3.8221-.0367 6.9115-3.1364 6.9314-6.9624a.7.7 0 0 0 0-.0745M6.0403 7.35c.0625-1.423.3267-2.6767.7051-3.5925.2182-.528.4614-.9126.6983-1.1551.2184-.2236.396-.2936.5275-.3023h.0578c.1314.0087.309.0787.5274.3023.2369.2425.4801.627.6982 1.155.3784.9159.6427 2.1696.7051 3.5926zm3.9194 1.3c-.0624 1.423-.3267 2.6768-.705 3.5927-.2182.5279-.4614.9125-.6983 1.155-.2175.2227-.3947.2931-.526.3022H8l-.0304-.0001c-.1312-.0091-.3084-.0795-.526-.3022-.2368-.2425-.48-.6271-.6982-1.155-.3784-.9159-.6427-2.1697-.705-3.5927zm1.3012 0h2.4024c-.2358 2.0777-1.5886 3.8165-3.4434 4.6015a6.7 6.7 0 0 0 .2362-.5124c.4527-1.0957.7417-2.5241.8048-4.089m2.4024-1.3h-2.4024c-.0631-1.565-.3521-2.9933-.8048-4.089a6.8 6.8 0 0 0-.2362-.5126c1.8547.785 3.2076 2.524 3.4434 4.6016m-8.9241 0H2.3367c.2358-2.0777 1.5887-3.8166 3.4435-4.6016a6.8 6.8 0 0 0-.2363.5127c-.4526 1.0956-.7416 2.524-.8047 4.089m0 1.3c.063 1.565.352 2.9934.8047 4.0891a6.8 6.8 0 0 0 .2363.5125c-1.8548-.785-3.2077-2.5239-3.4435-4.6016z"/></svg>