<svg xmlns="http://www.w3.org/2000/svg" width="16" height="16" fill="none" viewBox="0 0 16 16"><path fill="#000" fill-rule="evenodd" d="M8.0651 1.0002C11.8887 1.0351 14.98 4.1355 15 7.9627a.7.7 0 0 1 0 .0744 7 7 0 0 1-.0395.7115l-1.0706-.5558a2.95 2.95 0 0 0-2.7182 0l-1.2207.6336q.005-.0878.0089-.1765H6.0403c.0624 1.423.3267 2.6768.7051 3.5927.2182.5279.4614.9125.6983 1.155.2175.2227.3946.2931.526.3022L8 13.6999l.0304-.0001c.1313-.0091.3085-.0795.526-.3022.1247-.1277.2512-.2947.3749-.5014.1436.6365.4063 1.2882.886 1.8655a7 7 0 0 1-1.7488.2379 1.7 1.7 0 0 1-.1369 0C4.0971 14.9629 1 11.8431 1 7.9999c0-3.8443 3.099-6.9648 6.935-6.9997a1.8 1.8 0 0 1 .1301 0m1.8946 6.3497H6.0403c.0625-1.423.3267-2.6767.7051-3.5925.2182-.528.4614-.9126.6983-1.1551.2184-.2236.396-.2936.5275-.3023h.0578c.1314.0087.309.0787.5274.3023.2369.2425.4801.627.6983 1.155.3783.9159.6426 2.1696.705 3.5926m-7.623 0h2.4025c.063-1.565.352-2.9933.8047-4.089a6.8 6.8 0 0 1 .2363-.5126c-1.8548.785-3.2077 2.5239-3.4435 4.6016m8.9242 0h2.4024c-.2358-2.0777-1.5887-3.8166-3.4434-4.6016.0841.1636.1629.335.2362.5127.4527 1.0956.7417 2.524.8048 4.089m-8.9242 1.3h2.4025c.063 1.565.352 2.9934.8047 4.089.0734.1776.1521.349.2362.5126-1.8547-.785-3.2076-2.5239-3.4434-4.6016m10.3819 6.3234a.653.653 0 0 1-.3516.0068l-.0015-.0004-.0022-.0006-.0051-.0013-.013-.0037-.0179-.0052-.0193-.0059a2 2 0 0 1-.115-.0396 3 3 0 0 1-.362-.1648 3.43 3.43 0 0 1-.9973-.8081c-.7591-.8958-.7733-2.11-.7733-2.9763v-.345a.65.65 0 0 1 .3506-.5769l1.3595-.7057a1.65 1.65 0 0 1 1.5204 0l1.3595.7057a.65.65 0 0 1 .3506.5769v.3032c0 .8952-.0216 2.1489-.8254 3.0536a3.64 3.64 0 0 1-.9543.7646 3.2 3.2 0 0 1-.3409.164 2.4 2.4 0 0 1-.1074.0408q-.0206.0071-.0344.0116l-.012.0038-.0047.0015zm-.3491-4.4729a.35.35 0 0 1 .3225 0l1.0088.5237c-.0045.9184-.0805 1.6296-.497 2.0984a2.34 2.34 0 0 1-.6833.5284 2 2 0 0 1-.0765-.0387 2.14 2.14 0 0 1-.6185-.5021c-.3994-.4713-.4629-1.1735-.465-2.0859zm.1612 3.8506.1879.6223s-.0004.0001-.1879-.6223"/></svg>