<svg xmlns="http://www.w3.org/2000/svg" width="16" height="16" fill="none" viewBox="0 0 16 16"><path fill="#000" fill-rule="evenodd" d="M6.7243 2.821c-.3979 1.1569-.6696 2.741-.7233 4.529h3.9283c-.0538-1.788-.3255-3.372-.7234-4.5288-.224-.651-.476-1.1313-.7237-1.436-.252-.3097-.4305-.3595-.517-.3595s-.2652.0498-.5171.3596c-.2478.3046-.4997.7848-.7237 1.4359M4.7003 7.35H.9947c.2656-2.8837 2.2802-5.2609 4.9734-6.061-.1772.333-.3346.707-.473 1.1093-.4526 1.3157-.7407 3.0484-.7946 4.9517m5.262-6.061c2.6929.8004 4.7073 3.1775 4.9728 6.061h-3.7054c-.0539-1.9033-.342-3.636-.7947-4.9517-.1383-.4022-.2957-.7762-.4728-1.1092m-.7565 11.896c.3984-1.1581.6702-2.7445.7235-4.535H6.0009c.0533 1.7905.3251 3.3769.7235 4.535.224.651.476 1.1313.7237 1.4359.252.3098.4305.3595.517.3595s.2652-.0497.5171-.3595c.2477-.3046.4997-.7849.7237-1.4359M5.964 14.7098c-2.6913-.8013-4.704-3.1776-4.9695-6.06h3.7056c.0535 1.9058.3417 3.6408.7948 4.958.1374.3993.2935.7708.469 1.102m8.971-6.06c-.2654 2.8822-2.278 5.2584-4.969 6.0598.1755-.3311.3316-.7026.4689-1.1018.4532-1.3172.7414-3.0522.7949-4.958z"/></svg>