<svg width="16" height="16" viewBox="0 0 16 16" fill="none" xmlns="http://www.w3.org/2000/svg">
<path d="M0.994629 7.3499H4.70039C4.75433 5.44663 5.04241 3.71392 5.49504 2.39819C5.63341 1.99596 5.79081 1.62189 5.96794 1.28886C3.27475 2.08903 1.26015 4.4662 0.994629 7.3499Z" fill="black"/>
<path d="M0.99463 8.6499C1.26003 11.5322 3.27281 13.9085 5.96405 14.7098C5.78851 14.3786 5.63239 14.0071 5.49504 13.6078C5.04192 12.2906 4.75371 10.5556 4.70021 8.6499L0.99463 8.6499Z" fill="black"/>
<path d="M9.96612 14.7096C12.6571 13.9082 14.6697 11.532 14.9351 8.6499L11.2299 8.6499C11.1764 10.5556 10.8882 12.2906 10.4351 13.6078C10.2977 14.007 10.1416 14.3785 9.96612 14.7096Z" fill="black"/>
<path d="M14.9351 7.3499C14.6696 4.46637 12.6552 2.0893 9.96223 1.28899C10.1393 1.62199 10.2967 1.99602 10.4351 2.39819C10.8877 3.71392 11.1758 5.44663 11.2297 7.3499H14.9351Z" fill="black"/>
<path d="M6.72433 2.82108C6.3264 3.97782 6.05466 5.56197 6.00094 7.3499L9.92916 7.3499C9.87543 5.56197 9.60369 3.97782 9.20576 2.82108C8.9818 2.17005 8.72985 1.68976 8.48211 1.38517C8.23016 1.07539 8.05159 1.02563 7.96505 1.02563C7.8785 1.02563 7.69994 1.07539 7.44799 1.38517C7.20025 1.68976 6.94829 2.17005 6.72433 2.82108Z" fill="black"/>
<path d="M9.20576 13.1849C9.60415 12.0268 9.87605 10.4404 9.92934 8.6499H6.00075C6.05404 10.4404 6.32595 12.0268 6.72433 13.1849C6.94829 13.8359 7.20025 14.3162 7.44799 14.6208C7.69994 14.9306 7.8785 14.9803 7.96505 14.9803C8.05159 14.9803 8.23016 14.9306 8.48211 14.6208C8.72985 14.3162 8.9818 13.8359 9.20576 13.1849Z" fill="black"/>
</svg>
