<svg xmlns="http://www.w3.org/2000/svg" width="16" height="16" fill="none" viewBox="0 0 16 16"><path fill="#000" fill-rule="evenodd" d="M5.899 2.285c.9338-1.6176 3.2686-1.6176 4.2024 0l4.6211 8.0038c.9339 1.6175-.2335 3.6395-2.1013 3.6395h-9.242c-1.8678 0-3.0352-2.022-2.1013-3.6395zm3.0766.65c-.4335-.751-1.5173-.751-1.9508 0l-4.621 8.0038c-.4336.7509.1083 1.6895.9754 1.6895h9.242c.8671 0 1.409-.9386.9754-1.6895zm-.9755 8.0297c1.912 0 3.1009-1.615 3.1009-2.047 0-.4319-1.2139-2.0469-3.1009-2.0469s-3.1008 1.6901-3.1008 2.047c0 .3568 1.1888 2.0469 3.1008 2.0469m.0001-1.1976a.8643.8643 0 1 0 0-1.7287.8643.8643 0 0 0 0 1.7287"/></svg>