<svg width="16" height="16" viewBox="0 0 16 16" fill="none" xmlns="http://www.w3.org/2000/svg">
<path fill-rule="evenodd" clip-rule="evenodd" d="M11.101 8.91775C11.101 9.34967 9.91218 10.9647 8.00013 10.9647C6.08808 10.9647 4.89929 9.27455 4.89929 8.91775C4.89929 8.56095 6.11312 6.87079 8.00013 6.87079C9.88714 6.87079 11.101 8.48583 11.101 8.91775ZM8.86456 8.90274C8.86456 9.38011 8.47758 9.76709 8.00021 9.76709C7.52285 9.76709 7.13586 9.38011 7.13586 8.90274C7.13586 8.42537 7.52285 8.03839 8.00021 8.03839C8.47758 8.03839 8.86456 8.42537 8.86456 8.90274Z" fill="black"/>
<path fill-rule="evenodd" clip-rule="evenodd" d="M10.1014 2.28494C9.16755 0.667391 6.83282 0.667389 5.89893 2.28494L1.2779 10.2888C0.344013 11.9063 1.51138 13.9283 3.37916 13.9283H12.6212C14.489 13.9283 15.6564 11.9063 14.7225 10.2888L10.1014 2.28494ZM7.02477 2.93494C7.45829 2.18406 8.54209 2.18406 8.97561 2.93494L13.5966 10.9388C14.0302 11.6897 13.4883 12.6283 12.6212 12.6283H3.37916C2.51212 12.6283 1.97022 11.6897 2.40374 10.9388L7.02477 2.93494Z" fill="black"/>
</svg>
