<svg xmlns="http://www.w3.org/2000/svg" width="16" height="16" fill="none" viewBox="0 0 16 16"><path fill="#2dc100" d="M15 12.9c0 1.1599-.9402 2.1-2.1 2.1H3.1C1.9402 15 1 14.0599 1 12.9V3.1C1 1.9402 1.9402 1 3.1 1h9.8c1.1598 0 2.1.9402 2.1 2.1z"/><path fill="#fff" fill-rule="evenodd" d="M8.3409 7.2453c1.6024-1.0495 3.9521-.6995 5.082.7569.986 1.2712.8707 2.9594-.333 4.0273-.3483.309-.4735.5633-.25.9707.0411.0752.0454.1707.0694.2656-.3578-.1593-.6858-.399-1.0352-.4355-.348-.0364-.714.1648-1.0781.2021-1.1093.1135-2.1034-.1954-2.9229-.9531-1.5585-1.4415-1.3354-3.6527.4678-4.834m.499 1.2354c-.236-.0011-.4339.201-.4258.4355.0078.2242.1967.406.4229.4063.2276 0 .4152-.1785.4238-.4034.009-.238-.1825-.4373-.4209-.4384m2.6221.001c-.2209-.0015-.409.179-.418.4023-.0095.2387.1768.435.4131.4355.2283.0006.4085-.1722.417-.3994.0089-.2393-.1769-.4368-.4121-.4385" clip-rule="evenodd"/><path fill="#fff" fill-rule="evenodd" d="M4.7423 2.9943c1.803-.5889 3.8294.012 4.9257 1.4434.3958.517.639 1.097.7032 1.7832-1.13.059-2.1125.402-2.9102 1.1758-.806.7818-1.1748 1.74-1.0742 2.9277-.4415-.0547-.8436-.1153-1.248-.1494-.1398-.0118-.3055.0055-.4239.0723-.3928.2216-.7695.472-1.2158.7509.0819-.3702.1348-.6949.2285-1.0068.069-.2293.0374-.3575-.1738-.5068-1.3564-.9577-1.9279-2.3907-1.5-3.8662.3959-1.365 1.3676-2.1925 2.6885-2.624m3.1416 2.2451c-.2787.0052-.5145.243-.5098.5137.005.2809.2368.5006.5234.497.2872-.0036.5046-.225.502-.5116-.0024-.2815-.232-.5041-.5156-.499m-3.2149.001c-.2843-.0082-.518.2091-.5263.4893-.0082.2838.2088.5112.495.5185.284.0072.5218-.2107.5323-.4873.0102-.2697-.2233-.5124-.501-.5205" clip-rule="evenodd"/></svg>