<svg xmlns="http://www.w3.org/2000/svg" width="16" height="16" fill="none" viewBox="0 0 16 16"><path fill="#000" d="M13.3345 3.9978c-.7258-.7258-1.7797-.9251-2.6863-.5955a.458.458 0 0 1-.3131-.8609c1.2286-.4467 2.6604-.178 3.6471.8087s1.2554 2.4185.8086 3.647a.458.458 0 1 1-.8609-.313c.3297-.9066.1303-1.9605-.5954-2.6863"/><path fill="#000" d="M12.0515 5.2794a.794.794 0 0 0-.8338-.1848.458.458 0 1 1-.3131-.861c.604-.2196 1.3088-.0879 1.7947.398s.6176 1.1906.3979 1.7947a.458.458 0 0 1-.8609-.3131.794.794 0 0 0-.1848-.8338"/><path fill="#000" fill-rule="evenodd" d="M6.8997 12.0736c1.1795-.3865 1.8713-1.5069 1.5451-2.5026-.3262-.9956-1.5469-1.4894-2.7264-1.103S3.847 9.975 4.1732 10.9707s1.547 1.4895 2.7265 1.103m-1.0652-.7776c.4288-.1405.6803-.5478.5617-.9098s-.5624-.5415-.9912-.401-.6803.5479-.5617.9098.5623.5415.9912.401m1.2254-1.5103c.0454.1384-.0508.2941-.2147.3478-.164.0538-.3337-.0149-.379-.1533s.0507-.2941.2147-.3479c.164-.0537.3337.015.379.1534" clip-rule="evenodd"/><path fill="#000" fill-rule="evenodd" d="M7.5123 4.0437C5.7257 2.793.8743 7.2603 1.0025 10.1179c.0732 1.632 1.6596 3.022 3.5968 3.3709.5011.1049 1.0708.1718 1.6889.1786 1.074.0118 2.2986-.1577 3.5701-.6273 2.6187-.8464 3.438-2.5051 3.3416-3.5756-.1311-1.4561-1.2987-1.7827-1.9844-1.9118.1855-.2743.6156-.9781 0-1.7182s-2.1689-.6037-3.4849.1936c.5323-.8664.3208-1.607-.2183-1.9844m3.3493 5.5005c.155 1.5406-1.6227 2.981-3.9708 3.2174-2.3481.2363-4.3773-.821-4.5324-2.3615-.155-1.5405 1.6227-2.981 3.9708-3.2173 2.3481-.2364 4.3773.8209 4.5324 2.3614" clip-rule="evenodd"/></svg>