<svg xmlns="http://www.w3.org/2000/svg" width="16" height="16" fill="none" viewBox="0 0 16 16"><path fill="#fff" d="M1.7514 10.228c0 1.7063 2.2214 3.0899 4.9622 3.0899s4.9622-1.3838 4.9622-3.0899c0-1.706-2.2216-3.0897-4.9622-3.0897S1.7514 8.5217 1.7514 10.228"/><path fill="#e6162d" d="M6.8292 13.0664c-2.4256.2393-4.5194-.8568-4.6772-2.4495-.1574-1.5923 1.682-3.0773 4.1071-3.3171 2.4258-.24 4.5198.8564 4.6772 2.4484.1572 1.5928-1.6814 3.0782-4.1071 3.3182m4.8517-5.2866c-.2063-.0615-.3478-.1038-.2398-.3748.234-.5888.2581-1.0965.0044-1.4588-.4755-.6794-1.777-.643-3.2687-.0182 0-.001-.4684.205-.3488-.1665.2296-.7378.1949-1.3556-.1623-1.7124-.809-.8098-2.9613.0306-4.807 1.8756C1.4765 7.307.674 8.772.674 10.0386c0 2.4231 3.1072 3.8961 6.147 3.8961 3.9848 0 6.6356-2.3153 6.6356-4.1532 0-1.1107-.9353-1.741-1.7758-2.0017"/><path fill="#f93" d="M14.3267 3.3458c-.9623-1.0669-2.3818-1.4735-3.692-1.195a.5612.5612 0 0 0-.3452.8668.56.56 0 0 0 .3603.2335.56.56 0 0 0 .2189-.0031c.9321-.198 1.9407.092 2.6253.8494.3244.3595.5484.7981.6496 1.2717a2.76 2.76 0 0 1-.0735 1.426.56.56 0 0 0-.0254.2178.56.56 0 0 0 .1956.3824.56.56 0 0 0 .1914.1065.561.561 0 0 0 .7062-.3604l.0002-.0024c.4107-1.2745.1512-2.7275-.8114-3.7932"/><path fill="#f93" d="M12.8487 4.6793c-.4683-.5196-1.1598-.717-1.7982-.5811a.483.483 0 0 0-.3143.2063.482.482 0 0 0-.071.3692.483.483 0 0 0 .3949.3759.48.48 0 0 0 .1916-.0075.926.926 0 0 1 .4778.0246.926.926 0 0 1 .4019.2594.923.923 0 0 1 .1923.9042.4835.4835 0 0 0 .3111.6083.483.483 0 0 0 .608-.3114c.2007-.6209.0752-1.3285-.3941-1.8479"/><path fill="#000" d="M6.963 10.1818c-.085.1453-.2725.2151-.4194.1545-.1445-.0596-.19-.2217-.1077-.3643.0846-.1418.265-.211.409-.154.1464.0537.199.2179.118.3638m-.773.9923c-.2345.3742-.737.5383-1.1155.3654-.373-.1696-.483-.6047-.248-.9696.2316-.3633.7171-.5254 1.0927-.368.38.1621.5015.594.2708.9722m.8816-2.6493c-1.1543-.3004-2.459.275-2.9603 1.2921-.5107 1.0372-.0168 2.1887 1.149 2.5653 1.2081.3894 2.632-.2073 3.127-1.3272.4884-1.0945-.1212-2.2214-1.3157-2.5302"/></svg>