<svg xmlns="http://www.w3.org/2000/svg" width="16" height="16" fill="none" viewBox="0 0 16 16"><path fill="#000" fill-rule="evenodd" d="M11.3449 1.9834c-.3847 0-.6949.3132-.6949.6833a.65.65 0 1 1-1.3 0c0-1.1027.9069-1.9833 1.9949-1.9833 1.0753 0 1.9717.8703 1.9717 1.9603v.1067a1.8234 1.8234 0 0 1-1.3333 1.7564V5a.65.65 0 1 1-1.3 0v-.5419c0-.5675.3862-1.0621.9368-1.1998a.5234.5234 0 0 0 .3965-.5079v-.1067c0-.3574-.2996-.6603-.6717-.6603m-7.996 1.3333c.0177.1751.0451.3828.0871.6176.1104.6171.321 1.4187.7217 2.3078l.9813-.9703a.35.35 0 0 0 .0935-.3338l-.339-1.3562a.35.35 0 0 0-.3396-.2651zm8.651 3.35a.6666.6666 0 1 1-1.3333 0 .6667.6667 0 0 1 1.3333 0m-2.2223 5.1429c.8677.3815 1.6626.5969 2.2825.7184.2361.0462.4462.0787.6245.1016v-1.1822a.35.35 0 0 0-.2651-.3395l-1.3599-.34a.35.35 0 0 0-.3324.0921zm-7.759-9.1719a.65.65 0 0 1 .6493-.621h1.886a1.65 1.65 0 0 1 1.6007 1.2498l.339 1.3562a1.65 1.65 0 0 1-.4406 1.5736L4.794 7.441c.4225.6867.9664 1.3988 1.667 2.0994a10.86 10.86 0 0 0 2.1042 1.6431L9.808 9.9407a1.65 1.65 0 0 1 1.5669-.434l1.3599.34a1.65 1.65 0 0 1 1.2498 1.6008v1.8858a.65.65 0 0 1-.65.65v-.65.65h-.0047l-.0079-.0001-.0253-.0003a4 4 0 0 1-.0869-.0027 7 7 0 0 1-.3102-.0202c-.2635-.0227-.6366-.0676-1.0895-.1563-.8825-.1729-2.0747-.5139-3.349-1.1873a.65.65 0 0 1-.1948-.1053 12.15 12.15 0 0 1-2.7246-2.0515c-.9357-.9357-1.625-1.8965-2.1318-2.8112C2.6667 6.307 2.3185 5.07 2.1563 4.1632c-.0811-.4536-.1159-.8257-.1303-1.0886a6 6 0 0 1-.0094-.31 4 4 0 0 1 .0008-.0875l.0007-.0259.0003-.0083.0001-.003zl.6492.029-.5619-.0252a5 5 0 0 0-.0872-.0038"/></svg>