<svg width="16" height="16" viewBox="0 0 16 16" fill="none" xmlns="http://www.w3.org/2000/svg">
<path d="M11.7501 1.66211C12.1091 1.66211 12.4001 1.95312 12.4001 2.31211V3.91211H14.0001C14.3591 3.91211 14.6501 4.20313 14.6501 4.56211C14.6501 4.9211 14.3591 5.21211 14.0001 5.21211L12.4001 5.21211V6.81211C12.4001 7.17109 12.1091 7.46211 11.7501 7.46211C11.3911 7.46211 11.1001 7.17109 11.1001 6.81211V5.21211L9.5001 5.21211C9.14111 5.21211 8.8501 4.9211 8.8501 4.56211C8.8501 4.20313 9.14111 3.91211 9.5001 3.91211H11.1001V2.31211C11.1001 1.95312 11.3911 1.66211 11.7501 1.66211Z" fill="black"/>
<path fill-rule="evenodd" clip-rule="evenodd" d="M7.1501 3.31211C7.1501 2.40084 6.41137 1.66211 5.5001 1.66211L3.0001 1.66211C2.08883 1.66211 1.3501 2.40084 1.3501 3.31211V13.3121C1.3501 14.2234 2.08883 14.9621 3.0001 14.9621H5.5001C6.41137 14.9621 7.1501 14.2234 7.1501 13.3121L7.1501 3.31211ZM5.5001 2.96211C5.6934 2.96211 5.8501 3.11881 5.8501 3.31211L5.8501 13.3121C5.8501 13.5054 5.6934 13.6621 5.5001 13.6621H3.0001C2.8068 13.6621 2.6501 13.5054 2.6501 13.3121L2.6501 3.31211C2.6501 3.11881 2.8068 2.96211 3.0001 2.96211L5.5001 2.96211Z" fill="black"/>
<path fill-rule="evenodd" clip-rule="evenodd" d="M14.6501 10.8121C14.6501 9.90084 13.9114 9.16211 13.0001 9.16211H10.5001C9.58881 9.16211 8.85008 9.90083 8.85008 10.8121V13.3121C8.85008 14.2234 9.58881 14.9621 10.5001 14.9621H13.0001C13.9114 14.9621 14.6501 14.2234 14.6501 13.3121V10.8121ZM13.0001 10.4621C13.1934 10.4621 13.3501 10.6188 13.3501 10.8121L13.3501 13.3121C13.3501 13.5054 13.1934 13.6621 13.0001 13.6621H10.5001C10.3068 13.6621 10.1501 13.5054 10.1501 13.3121V10.8121C10.1501 10.6188 10.3068 10.4621 10.5001 10.4621H13.0001Z" fill="black"/>
</svg>
