<svg xmlns="http://www.w3.org/2000/svg" width="16" height="16" fill="none" viewBox="0 0 16 16"><path fill="#000" fill-rule="evenodd" d="M1.9834 2a.65.65 0 0 0-1.3 0v6a.65.65 0 0 0 1.3 0v-.6834h.7V12c0 1.4635 1.1864 2.65 2.65 2.65h5.3333c1.4635 0 2.65-1.1865 2.65-2.65V7.3166h.7V8a.65.65 0 1 0 1.3 0V2a.65.65 0 1 0-1.3 0v4.0166h-.7v-.6833c0-1.4635-1.1865-2.65-2.65-2.65H5.3334c-1.4636 0-2.65 1.1865-2.65 2.65v.6833h-.7zm10.0333 4.665V5.3334c0-.7456-.6044-1.35-1.35-1.35H5.3334c-.7456 0-1.35.6044-1.35 1.35V12c0 .7456.6044 1.35 1.35 1.35h5.3333c.7456 0 1.35-.6044 1.35-1.35zm-4.0166.6794c-1.2733 0-2.0755.685-2.2011.8007a.65.65 0 1 1-.8809-.9561c.2326-.2143 1.3379-1.1446 3.082-1.1446s2.8494.9303 3.082 1.1446a.65.65 0 0 1-.8809.956c-.1256-.1157-.9278-.8006-2.2011-.8006m-.0192 1.9987c-.5195 0-.8613.297-.9356.3695a.65.65 0 1 1-.908-.9303c.1746-.1705.8275-.7392 1.8436-.7392s1.669.5687 1.8436.7392a.65.65 0 0 1-.908.9303c-.0743-.0725-.4161-.3695-.9356-.3695m.6825 1.4878a.6826.6826 0 0 1-1.3652 0 .6827.6827 0 1 1 1.3652 0"/></svg>