<svg width="16" height="16" viewBox="0 0 16 16" fill="none" xmlns="http://www.w3.org/2000/svg">
<path d="M7.04502 9.71271C7.11932 9.6402 7.46116 9.34322 7.98064 9.34322C8.50012 9.34322 8.84197 9.6402 8.91627 9.71271C9.17318 9.96345 9.5847 9.95845 9.83544 9.70154C10.0862 9.44463 10.0812 9.03311 9.82427 8.78237C9.64962 8.61192 8.99675 8.04322 7.98064 8.04322C6.96454 8.04322 6.31166 8.61192 6.13702 8.78237C5.88011 9.03311 5.87511 9.44463 6.12584 9.70154C6.37658 9.95845 6.78811 9.96345 7.04502 9.71271Z" fill="black"/>
<path d="M7.99985 7.34452C6.72652 7.34452 5.92433 8.02946 5.7987 8.1452C5.53468 8.38843 5.12347 8.37157 4.88023 8.10755C4.637 7.84352 4.65386 7.43231 4.91788 7.18908C5.15045 6.97483 6.25571 6.04452 7.99985 6.04452C9.74399 6.04452 10.8493 6.97483 11.0818 7.18908C11.3458 7.43231 11.3627 7.84352 11.1195 8.10755C10.8762 8.37157 10.465 8.38843 10.201 8.1452C10.0754 8.02946 9.27317 7.34452 7.99985 7.34452Z" fill="black"/>
<path d="M7.98057 11.5136C8.35757 11.5136 8.66318 11.208 8.66318 10.831C8.66318 10.454 8.35757 10.1484 7.98057 10.1484C7.60357 10.1484 7.29795 10.454 7.29795 10.831C7.29795 11.208 7.60357 11.5136 7.98057 11.5136Z" fill="black"/>
<path fill-rule="evenodd" clip-rule="evenodd" d="M1.33311 1.3501C1.69209 1.3501 1.98311 1.64111 1.98311 2.0001V6.01676H2.68311V5.33343C2.68311 3.86987 3.86955 2.68343 5.33311 2.68343H10.6664C12.13 2.68343 13.3164 3.86987 13.3164 5.33343V6.01676H14.0164V2.0001C14.0164 1.64111 14.3075 1.3501 14.6664 1.3501C15.0254 1.3501 15.3164 1.64111 15.3164 2.0001V8.0001C15.3164 8.35908 15.0254 8.6501 14.6664 8.6501C14.3075 8.6501 14.0164 8.35908 14.0164 8.0001V7.31676H13.3164V12.0001C13.3164 13.4636 12.13 14.6501 10.6664 14.6501H5.3331C3.86955 14.6501 2.68311 13.4636 2.68311 12.0001V7.31676H1.98311V8.0001C1.98311 8.35908 1.69209 8.6501 1.33311 8.6501C0.97412 8.6501 0.683105 8.35908 0.683105 8.0001V2.0001C0.683105 1.64111 0.97412 1.3501 1.33311 1.3501ZM12.0164 5.33343V6.66517L12.0164 6.66676L12.0164 6.66836V12.0001C12.0164 12.7457 11.412 13.3501 10.6664 13.3501H5.3331C4.58752 13.3501 3.98311 12.7457 3.98311 12.0001V5.33343C3.98311 4.58784 4.58752 3.98343 5.33311 3.98343H10.6664C11.412 3.98343 12.0164 4.58784 12.0164 5.33343Z" fill="black"/>
</svg>
