<svg width="16" height="16" viewBox="0 0 16 16" fill="none" xmlns="http://www.w3.org/2000/svg">
<path d="M13.998 9.00635C14.5513 9.00635 14.9998 8.55787 14.9998 8.00464C14.9998 7.45141 14.5513 7.00293 13.998 7.00293C13.4448 7.00293 12.9963 7.45141 12.9963 8.00464C12.9963 8.55787 13.4448 9.00635 13.998 9.00635Z" fill="black"/>
<path d="M13.998 12.0063C14.5513 12.0063 14.9998 11.5579 14.9998 11.0046C14.9998 10.4514 14.5513 10.0029 13.998 10.0029C13.4448 10.0029 12.9963 10.4514 12.9963 11.0046C12.9963 11.5579 13.4448 12.0063 13.998 12.0063Z" fill="black"/>
<path d="M12.0015 11.0046C12.0015 11.5579 11.553 12.0063 10.9998 12.0063C10.4465 12.0063 9.99805 11.5579 9.99805 11.0046C9.99805 10.4514 10.4465 10.0029 10.9998 10.0029C11.553 10.0029 12.0015 10.4514 12.0015 11.0046Z" fill="black"/>
<path d="M13.998 15.0046C14.5513 15.0046 14.9998 14.5562 14.9998 14.0029C14.9998 13.4497 14.5513 13.0012 13.998 13.0012C13.4448 13.0012 12.9963 13.4497 12.9963 14.0029C12.9963 14.5562 13.4448 15.0046 13.998 15.0046Z" fill="black"/>
<path d="M12.0015 14.0029C12.0015 14.5562 11.553 15.0046 10.9998 15.0046C10.4465 15.0046 9.99805 14.5562 9.99805 14.0029C9.99805 13.4497 10.4465 13.0012 10.9998 13.0012C11.553 13.0012 12.0015 13.4497 12.0015 14.0029Z" fill="black"/>
<path d="M7.99976 15.0046C8.55298 15.0046 9.00146 14.5562 9.00146 14.0029C9.00146 13.4497 8.55298 13.0012 7.99976 13.0012C7.44653 13.0012 6.99805 13.4497 6.99805 14.0029C6.99805 14.5562 7.44653 15.0046 7.99976 15.0046Z" fill="black"/>
</svg>
