<svg width="16" height="16" viewBox="0 0 16 16" fill="none" xmlns="http://www.w3.org/2000/svg">
<path d="M13.998 9.00171C14.5513 9.00171 14.9998 8.55323 14.9998 8C14.9998 7.44677 14.5513 6.99829 13.998 6.99829C13.4448 6.99829 12.9963 7.44677 12.9963 8C12.9963 8.55323 13.4448 9.00171 13.998 9.00171Z" fill="black"/>
<path d="M13.998 12.0017C14.5513 12.0017 14.9998 11.5532 14.9998 11C14.9998 10.4468 14.5513 9.99829 13.998 9.99829C13.4448 9.99829 12.9963 10.4468 12.9963 11C12.9963 11.5532 13.4448 12.0017 13.998 12.0017Z" fill="black"/>
<path d="M12.0015 11C12.0015 11.5532 11.553 12.0017 10.9998 12.0017C10.4465 12.0017 9.99805 11.5532 9.99805 11C9.99805 10.4468 10.4465 9.99829 10.9998 9.99829C11.553 9.99829 12.0015 10.4468 12.0015 11Z" fill="black"/>
<path d="M13.998 15C14.5513 15 14.9998 14.5515 14.9998 13.9983C14.9998 13.4451 14.5513 12.9966 13.998 12.9966C13.4448 12.9966 12.9963 13.4451 12.9963 13.9983C12.9963 14.5515 13.4448 15 13.998 15Z" fill="black"/>
<path d="M12.0015 13.9983C12.0015 14.5515 11.553 15 10.9998 15C10.4465 15 9.99805 14.5515 9.99805 13.9983C9.99805 13.4451 10.4465 12.9966 10.9998 12.9966C11.553 12.9966 12.0015 13.4451 12.0015 13.9983Z" fill="black"/>
<path d="M7.99976 15C8.55298 15 9.00146 14.5515 9.00146 13.9983C9.00146 13.4451 8.55298 12.9966 7.99976 12.9966C7.44653 12.9966 6.99805 13.4451 6.99805 13.9983C6.99805 14.5515 7.44653 15 7.99976 15Z" fill="black"/>
</svg>
