<svg xmlns="http://www.w3.org/2000/svg" width="16" height="16" fill="none" viewBox="0 0 16 16"><path fill="#000" fill-rule="evenodd" d="M4.6666 2.0166c-1.4635 0-2.65 1.1865-2.65 2.65v6.6667c0 1.4635 1.1865 2.65 2.65 2.65h6.6667c1.4635 0 2.65-1.1865 2.65-2.65V4.6666c0-1.4635-1.1865-2.65-2.65-2.65zm2.6833 1.3H4.6666c-.7456 0-1.35.6044-1.35 1.35v2.6833h4.0333zM3.3166 8.6499v2.6834c0 .7456.6044 1.35 1.35 1.35h2.6833V8.6499zm5.3333 4.0334h2.6834c.7456 0 1.35-.6044 1.35-1.35V8.6499H8.6499zm4.0334-5.3334H8.6499V3.3166h2.6834c.7456 0 1.35.6044 1.35 1.35z" clip-rule="evenodd"/></svg>