<svg xmlns="http://www.w3.org/2000/svg" width="16" height="16" fill="none" viewBox="0 0 16 16"><path fill="#000" fill-rule="evenodd" d="M13.1106 1.131c.0644-.174.3107-.174.3751 0l.3381.9139a.2.2 0 0 0 .1182.1181l.9138.3382c.1741.0644.1741.3107 0 .375l-.9138.3382a.2.2 0 0 0-.1182.1182l-.3381.9138c-.0644.174-.3107.174-.3751 0l-.3382-.9138a.2.2 0 0 0-.1181-.1182l-.9138-.3381c-.1741-.0644-.1741-.3107 0-.3752l.9138-.338a.2.2 0 0 0 .1181-.1182zm-7.4905.2406c-.0644-.1741-.3107-.1741-.3751 0l-.3381.9138a.2.2 0 0 1-.1182.1182l-.9138.338c-.1741.0645-.1741.3108 0 .3752l.9138.3382a.2.2 0 0 1 .1181.1181l.3382.9138c.0644.1741.3107.1741.3751 0l.3381-.9138a.2.2 0 0 1 .1182-.1181l.9138-.3382c.1741-.0644.1741-.3107 0-.3751l-.9138-.3381a.2.2 0 0 1-.1181-.1182zm3.122 3.0867a.65.65 0 0 1 .9192 0l1.9386 1.9387a.65.65 0 0 1 0 .9192l-7.5204 7.5204a.65.65 0 0 1-.9192 0L1.2216 12.898a.65.65 0 0 1 0-.9193zm.4596 1.3789-.8698.8698 1.0194 1.0194.8698-.8698zm-6.6012 6.6011 4.8121-4.812 1.0195 1.0193-4.8122 4.8122zM13.2618 9.149c-.0645-.1741-.3107-.1741-.3751 0l-.3382.9137a.2.2 0 0 1-.1182.1182l-.9137.3381c-.1741.0645-.1741.3107 0 .3752l.9137.3381a.2.2 0 0 1 .1182.1182l.3382.9138c.0644.1741.3106.1741.3751 0l.3381-.9138a.2.2 0 0 1 .1182-.1182l.9138-.3381c.1741-.0645.1741-.3107 0-.3752l-.9138-.3381a.2.2 0 0 1-.1182-.1182z"/></svg>