<svg xmlns="http://www.w3.org/2000/svg" width="16" height="16" fill="none" viewBox="0 0 16 16"><path fill="#000" fill-rule="evenodd" d="M3.648.9906c-1.4636 0-2.65 1.1864-2.65 2.65v5.6498c0 1.4636 1.1864 2.65 2.65 2.65h1.9419v1.7689h-.8588a.65.65 0 1 0 0 1.3h6.5385a.65.65 0 1 0 0-1.3h-.859v-1.7689h1.9417c1.4636 0 2.65-1.1864 2.65-2.65V3.6406c0-1.4636-1.1864-2.65-2.65-2.65zm-1.35 8.2998c0 .7456.6043 1.35 1.35 1.35h8.7043c.7456 0 1.35-.6044 1.35-1.35V3.6406c0-.7456-.6044-1.35-1.35-1.35H3.6479c-.7456 0-1.35.6044-1.35 1.35zm5.847-6.2115a.65.65 0 0 1-.1802.9014L5.75 5.4568l2.2148 1.4765a.65.65 0 1 1-.7211 1.0817l-3.026-2.0173a.65.65 0 0 1 0-1.0817l3.026-2.0173a.65.65 0 0 1 .9014.1802m-.1098 2.9188a.65.65 0 1 1 .721-1.0817l3.0261 2.0173a.65.65 0 0 1 0 1.0817l-3.026 2.0173a.65.65 0 1 1-.7211-1.0816L10.25 7.4742zM6.89 13.7092v-1.7688h2.2207v1.7688z"/></svg>