<svg width="16" height="16" viewBox="0 0 16 16" fill="none" xmlns="http://www.w3.org/2000/svg">
<path fill-rule="evenodd" clip-rule="evenodd" d="M4.01678 3.0001V4.01672H3.0001C2.08883 4.01672 1.3501 4.75545 1.3501 5.66672V11.6667C1.3501 12.578 2.08883 13.3167 3.0001 13.3167H8.27139C8.0195 12.9307 7.77711 12.4933 7.58699 12.0167H3.0001C2.8068 12.0167 2.6501 11.86 2.6501 11.6667V9.31677H4.01678V10.0001C4.01678 10.3591 4.3078 10.6501 4.66678 10.6501C5.02577 10.6501 5.31678 10.3591 5.31678 10.0001V9.31677H7.27037C7.34785 8.85981 7.48964 8.42276 7.68662 8.01677H2.6501V5.66672C2.6501 5.47342 2.8068 5.31672 3.0001 5.31672H4.65945L4.66678 5.31676L4.67412 5.31672H11.6668C12.2122 5.31672 12.7932 5.3967 13.3134 5.56094C13.2589 4.69896 12.5425 4.01672 11.6668 4.01672H10.6501V3.0001C10.6501 2.08883 9.91139 1.3501 9.00012 1.3501H5.66678C4.75551 1.3501 4.01678 2.08883 4.01678 3.0001ZM5.66678 2.6501C5.47349 2.6501 5.31678 2.8068 5.31678 3.0001V4.01672H9.35012V3.0001C9.35012 2.8068 9.19342 2.6501 9.00012 2.6501H5.66678Z" fill="black"/>
<path d="M11.9289 10.91C12.3406 10.91 12.6743 10.5763 12.6743 10.1646C12.6743 9.75301 12.3406 9.41931 11.9289 9.41931C11.5173 9.41931 11.1836 9.75301 11.1836 10.1646C11.1836 10.5763 11.5173 10.91 11.9289 10.91Z" fill="black"/>
<path fill-rule="evenodd" clip-rule="evenodd" d="M12.3146 14.9544L12.3155 14.9537L12.3179 14.9518L12.3258 14.9454L12.3529 14.9234C12.3758 14.9046 12.4083 14.8776 12.449 14.843C12.5304 14.7738 12.6448 14.6739 12.7814 14.5478C13.0536 14.2964 13.4179 13.9367 13.7841 13.5044C14.4881 12.6733 15.3168 11.4385 15.3168 10.1281C15.3168 8.22156 13.8076 6.64619 11.9095 6.64619C10.0115 6.64619 8.50226 8.22156 8.50226 10.1281C8.50226 11.4385 9.33097 12.6733 10.0349 13.5044C10.4011 13.9367 10.7655 14.2964 11.0377 14.5478C11.1742 14.6739 11.2887 14.7738 11.37 14.843C11.4107 14.8776 11.4432 14.9046 11.4662 14.9234L11.4933 14.9454L11.5011 14.9518L11.5036 14.9537L11.5047 14.9547C11.7416 15.1429 12.0778 15.1427 12.3146 14.9544ZM11.9095 7.94619C10.762 7.94619 9.80226 8.90659 9.80226 10.1281C9.80226 10.9434 10.3522 11.8676 11.0269 12.6641C11.3455 13.0403 11.666 13.3579 11.9095 13.5834C12.1531 13.3579 12.4735 13.0403 12.7922 12.6641C13.4669 11.8676 14.0168 10.9434 14.0168 10.1281C14.0168 8.90659 13.0571 7.94619 11.9095 7.94619ZM11.5047 14.9547C11.5047 14.9547 11.505 14.9549 11.9095 14.4461L11.5047 14.9547ZM11.9095 14.4461L12.3146 14.9544C12.3146 14.9544 12.314 14.9549 11.9095 14.4461Z" fill="black"/>
</svg>
