<svg xmlns="http://www.w3.org/2000/svg" width="16" height="16" fill="none" viewBox="0 0 16 16"><path fill="#000" fill-rule="evenodd" d="M4.0168 4.0166V3c0-.9113.7388-1.65 1.65-1.65h3.3334c.9113 0 1.65.7387 1.65 1.65v1.0166h1.0166c.8809 0 1.6007.6904 1.6475 1.5597a4.67 4.67 0 0 0-1.3853-.208c-1.875 0-3.4538 1.0931-4.2224 2.6484H1.3501V5.6666c0-.9113.7387-1.65 1.65-1.65zM5.3168 3a.35.35 0 0 1 .35-.35h3.3334a.35.35 0 0 1 .35.35v1.0166H5.3168zm6.0617 11.8944a11 11 0 0 1-.3328-.2956c-.2726-.2517-.6375-.6119-1.0042-1.0449-.7043-.8315-1.5366-2.0703-1.5366-3.3871 0-1.9153 1.5163-3.4985 3.4239-3.4985s3.424 1.5832 3.424 3.4985c0 1.3168-.8323 2.5556-1.5366 3.3871-.3668.433-.7317.7932-1.0042 1.0449a11 11 0 0 1-.3329.2956l-.0067.0058c-.0621.0532-.3442.2951-.5436.2951-.1085 0-.2223-.0221-.5503-.3009M5.3168 9.3167h1.963a4.87 4.87 0 0 0-.0747.8501c0 1.2082.494 2.2997 1.0408 3.1498H3.0001c-.9113 0-1.65-.7387-1.65-1.65v-2.35h2.6667V10a.65.65 0 1 0 1.3 0zm7.3575.8478a.7454.7454 0 1 1-1.4907 0 .7454.7454 0 0 1 1.4907 0"/></svg>