<svg xmlns="http://www.w3.org/2000/svg" width="16" height="16" fill="none" viewBox="0 0 16 16"><path fill="#000" fill-rule="evenodd" d="M4.0168 4.0167V3.0001c0-.9113.7387-1.65 1.65-1.65H9c.9113 0 1.65.7387 1.65 1.65v1.0166h1.0167c.8757 0 1.5921.6823 1.6466 1.5442-.5202-.1642-1.1012-.2442-1.6466-.2442H3.0001a.35.35 0 0 0-.35.35v2.35h5.0365a4.83 4.83 0 0 0-.4162 1.3H5.3168v.6834a.65.65 0 1 1-1.3 0v-.6833H2.65v2.3499a.35.35 0 0 0 .35.35h4.587c.1901.4766.4325.914.6844 1.3H3c-.9113 0-1.65-.7387-1.65-1.65v-6c0-.9112.7387-1.65 1.65-1.65zm1.3-1.0166a.35.35 0 0 1 .35-.35H9a.35.35 0 0 1 .35.35v1.0166H5.3168zm6.9978 11.9543.0009-.0007.0024-.0019.0079-.0064.0271-.022a7 7 0 0 0 .0961-.0804c.0814-.0692.1958-.1691.3324-.2952.2722-.2514.6365-.6111 1.0027-1.0434.704-.8311 1.5327-2.0659 1.5327-3.3763 0-1.9065-1.5092-3.4819-3.4073-3.4819-1.898 0-3.4072 1.5754-3.4072 3.4819 0 1.3104.8287 2.5452 1.5326 3.3763.3662.4323.7306.792 1.0028 1.0434.1365.1261.251.226.3323.2952.0407.0346.0732.0616.0962.0804l.0271.022.0078.0064.0025.0019.0011.001a.651.651 0 0 0 .8099-.0003m-.4051-.5083.4051.5083s-.0006.0005-.4051-.5083m0 0-.4048.5086s.0003.0002.4048-.5086m0-6.4999c-1.1475 0-2.1072.9604-2.1072 2.1819 0 .8153.5499 1.7395 1.2246 2.536.3186.3762.6391.6938.8826.9193.2436-.2255.564-.5431.8827-.9193.6747-.7965 1.2246-1.7207 1.2246-2.536 0-1.2215-.9597-2.1819-2.1073-2.1819m.0194 2.9638a.7453.7453 0 1 0 .0001-1.4907.7453.7453 0 0 0-.0001 1.4907"/></svg>