<svg xmlns="http://www.w3.org/2000/svg" width="16" height="16" fill="none" viewBox="0 0 16 16"><path fill="#000" fill-rule="evenodd" d="M5.5404 2.2071a.65.65 0 0 1 .9192 0l2 2a.65.65 0 0 1 0 .9192l-2 2a.65.65 0 0 1-.9192-.9192l.8904-.8904H6c-1.8502 0-3.35 1.4999-3.35 3.35s1.4998 3.35 3.35 3.35h2a.65.65 0 1 1 0 1.3H6c-2.5681 0-4.65-2.0819-4.65-4.65s2.0819-4.65 4.65-4.65h.4308l-.8904-.8904a.65.65 0 0 1 0-.9192M9.35 6a.65.65 0 0 1 .65-.65h3.3333a.65.65 0 1 1 0 1.3H10A.65.65 0 0 1 9.35 6m0 2.6666a.65.65 0 0 1 .65-.65h3.3333a.65.65 0 1 1 0 1.3H10a.65.65 0 0 1-.65-.65m.65 2.0167a.65.65 0 0 0 0 1.3h3.3333a.65.65 0 1 0 0-1.3z"/></svg>