<svg xmlns="http://www.w3.org/2000/svg" width="16" height="16" fill="none" viewBox="0 0 16 16"><g fill-rule="evenodd" clip-path="url(#a)" clip-rule="evenodd"><path fill="url(#b)" d="M15.3334 7.9998c0 4.0501-3.2833 7.3334-7.3333 7.3334S.6667 12.0499.6667 7.9998c0-4.05 3.2833-7.3333 7.3334-7.3333 4.05 0 7.3333 3.2833 7.3333 7.3333"/><path fill="#fff" d="M14.9782 7.9998c0 3.8539-3.1242 6.9782-6.9781 6.9782S1.022 11.8537 1.022 7.9998 4.1462 1.0218 8 1.0218c3.854 0 6.9782 3.1241 6.9782 6.978"/><path fill="#ec1c24" d="M12.7209 4.9749 8.7964 8.8134v4.7724c0 .086-.3724.1547-.7963.1604-.4068-.0057-.7964-.0744-.7964-.1604V8.8134L3.2792 4.975c-.063-.063.1375-.361.447-.6703.3093-.3094.613-.51.6702-.447l3.598 3.512 3.5979-3.512c.063-.063.3609.1376.6703.447s.5156.6073.4583.6703"/></g><defs><linearGradient id="b" x1="8" x2="8" y1="1" y2="15" gradientUnits="userSpaceOnUse"><stop offset="0" stop-color="#f5f5f6"/><stop offset="1" stop-color="#ededee"/></linearGradient><clipPath id="a"><path fill="#fff" d="M0 0h16v16H0z"/></clipPath></defs></svg>