<svg width="16" height="16" viewBox="0 0 16 16" fill="none" xmlns="http://www.w3.org/2000/svg">
<circle cx="8" cy="8" r="7" fill="#FC3F1D"/>
<path d="M8.30291 8.72898C8.72919 9.66267 8.87125 9.98744 8.87125 11.1089V12.5957H7.34891V10.0889L4.47681 3.84229H6.06509L8.30291 8.72898ZM10.1805 3.84229L8.31816 8.07439H9.86586L11.7333 3.84229H10.1805Z" fill="white"/>
<path d="M15 8C15 11.866 11.866 15 8 15C4.13401 15 1 11.866 1 8C1 4.13401 4.13401 1 8 1C11.866 1 15 4.13401 15 8Z" fill="#FC3F1D"/>
<path d="M8.30297 8.72887C8.72924 9.66256 8.8713 9.98733 8.8713 11.1088V12.5956H7.34897V10.0888L4.47686 3.84217H6.06515L8.30297 8.72887ZM10.1805 3.84217L8.31821 8.07428H9.86591L11.7333 3.84217H10.1805Z" fill="white"/>
</svg>
