<svg xmlns="http://www.w3.org/2000/svg" width="16" height="16" fill="none" viewBox="0 0 16 16"><path fill="#000" d="M2.666 10.351a.65.65 0 0 1 .651.649v1c0 .377.306.683.683.684h1a.65.65 0 0 1 .65.65.65.65 0 0 1-.65.649H4c-1.096 0-1.984-.888-1.984-1.983v-1c0-.359.292-.649.65-.649m10.667 0a.65.65 0 0 1 .649.649v1c0 1.095-.888 1.983-1.983 1.983h-1a.65.65 0 0 1-.649-.649.65.65 0 0 1 .649-.65h1a.684.684 0 0 0 .684-.684v-1c0-.359.292-.649.65-.649M2.972 6.472a.135.135 0 0 1 .083.073l.372.828.002.003c.008.02.017.047.028.077.011-.03.021-.057.029-.077l.001-.002.364-.828.021-.033a.135.135 0 0 1 .102-.047h.78c.046 0 .089.025.113.065a.133.133 0 0 1 .005.13l-.93 1.815v.925a.133.133 0 0 1-.133.134h-.721a.134.134 0 0 1-.133-.134v-.915l-.944-1.825a.135.135 0 0 1 .004-.131.135.135 0 0 1 .114-.064h.805z"/><path fill="#000" fill-rule="evenodd" d="M9.514 6.466c.327 0 .611.101.814.293.203.193.313.466.313.785 0 .432-.229.758-.6.914l.593.867a.134.134 0 0 1-.109.209h-.86a.134.134 0 0 1-.112-.061l-.499-.78v.708a.134.134 0 0 1-.133.134H8.2a.134.134 0 0 1-.134-.134V6.6a.135.135 0 0 1 .134-.134zm-.463 1.285h.395c.112 0 .199-.082.199-.207 0-.066-.023-.112-.054-.142-.032-.03-.082-.052-.145-.052h-.394zM6.759 6.473a.134.134 0 0 1 .085.082l1.008 2.8a.134.134 0 0 1-.016.122.134.134 0 0 1-.109.057h-.756a.134.134 0 0 1-.127-.093l-.126-.392h-.875l-.13.393a.133.133 0 0 1-.126.092h-.736a.134.134 0 0 1-.109-.057.135.135 0 0 1-.016-.122l1.012-2.8.02-.036a.135.135 0 0 1 .106-.053h.856zM6.065 8.13h.444l-.187-.609h-.069zm6.832-1.657a.134.134 0 0 1 .085.082l1.008 2.8a.135.135 0 0 1-.016.122.135.135 0 0 1-.109.057h-.756a.134.134 0 0 1-.127-.093l-.126-.392h-.875l-.13.393a.134.134 0 0 1-.126.092h-.736a.134.134 0 0 1-.109-.057.134.134 0 0 1-.016-.122l1.012-2.8.02-.036a.135.135 0 0 1 .106-.053h.856zm-.694 1.657h.444l-.187-.609h-.07z" clip-rule="evenodd"/><path fill="#000" d="M5.13 2.03a.65.65 0 0 1 .52.637.651.651 0 0 1-.519.637L5 3.318H4A.683.683 0 0 0 3.317 4v1a.651.651 0 0 1-.65.65.651.651 0 0 1-.651-.65V4c0-1.095.889-1.983 1.983-1.983h1zm6.869-.013c1.095 0 1.983.888 1.983 1.983v1c0 .359-.291.65-.649.65a.651.651 0 0 1-.65-.65V4a.683.683 0 0 0-.684-.683h-1a.65.65 0 0 1 0-1.301z"/></svg>