<svg xmlns="http://www.w3.org/2000/svg" width="16" height="16" fill="none" viewBox="0 0 16 16"><path fill="#000" fill-rule="evenodd" d="M5.65 2.667a.65.65 0 0 0-.5196-.6367l-.1309-.0137h-1C2.9045 2.0169 2.0163 2.905 2.0161 4v1a.651.651 0 0 0 .6504.6504A.651.651 0 0 0 3.317 5V4a.683.683 0 0 1 .6826-.6826h1l.1309-.0137A.6505.6505 0 0 0 5.65 2.667M13.9828 4c-.0001-1.0952-.8881-1.9834-1.9834-1.9834h-1a.6504.6504 0 0 0 0 1.3008h1A.683.683 0 0 1 12.6831 4v1a.6513.6513 0 0 0 .6504.6504c.3588-.0002.6493-.2917.6494-.6504zM12.897 6.4727a.134.134 0 0 1 .085.082l1.0078 2.7998a.135.135 0 0 1-.0156.122.135.135 0 0 1-.1094.0567h-.7559a.134.134 0 0 1-.1269-.0928l-.126-.3916h-.875l-.1299.3926a.134.134 0 0 1-.126.0918h-.7363a.134.134 0 0 1-.1094-.0566.134.134 0 0 1-.0156-.1221l1.0117-2.7998.0196-.0361a.135.135 0 0 1 .1054-.0528h.8565zm-9.8418.0722a.135.135 0 0 0-.083-.0732l-.038-.0059h-.8048a.135.135 0 0 0-.1142.0645.135.135 0 0 0-.004.1308l.9454 1.8243v.915a.134.134 0 0 0 .1328.1338H3.81a.1333.1333 0 0 0 .1328-.1338v-.9248l.9297-1.8154a.133.133 0 0 0-.0049-.13.134.134 0 0 0-.1133-.0644h-.7802a.135.135 0 0 0-.1016.0469l-.0205.0332-.3643.8281-.001.002c-.0083.0199-.0178.047-.0292.0771-.0114-.0299-.02-.0573-.0284-.0771l-.002-.003zm3.789.0098a.134.134 0 0 0-.0849-.082l-.04-.0069h-.8565a.135.135 0 0 0-.1054.0528l-.0196.036-1.0117 2.7999a.135.135 0 0 0 .0156.122.134.134 0 0 0 .1094.0567h.7363a.133.133 0 0 0 .126-.0918l.1299-.3926h.875l.126.3916a.134.134 0 0 0 .127.0928h.7558a.134.134 0 0 0 .1094-.0566.134.134 0 0 0 .0156-.1221zm3.4835.204c-.2024-.1917-.4863-.2928-.8135-.2929H8.1978a.1345.1345 0 0 0-.1338.1338v2.8008c0 .0736.0601.1338.1338.1338h.7207a.134.134 0 0 0 .1328-.1338v-.708l.499.7803a.134.134 0 0 0 .1123.0615h.8604a.1338.1338 0 0 0 .1094-.209l-.5928-.8672c.3717-.1563.6006-.4818.6006-.914-.0001-.3193-.1095-.5927-.3125-.7852m-.8819.9923h-.3945v-.4004h.3945c.0639 0 .1137.0215.1455.0517.0308.0295.0537.0756.0538.1416 0 .1247-.0872.207-.1993.207m2.7569.3789h.4443l-.1875-.6094h-.0693zm-5.6934 0H6.065l.1875-.6094h.0693zm-3.8428 2.2207A.65.65 0 0 1 3.317 11v1a.684.684 0 0 0 .6826.6836h1c.359 0 .6504.2914.6504.6504a.6504.6504 0 0 1-.6504.6494h-1C2.9045 13.9831 2.0163 13.095 2.0161 12v-1c.0002-.3587.2917-.6492.6504-.6494m10.667 0a.6495.6495 0 0 1 .6494.6494v1c-.0001 1.0952-.8881 1.9834-1.9834 1.9834h-1a.65.65 0 0 1-.6494-.6494.6504.6504 0 0 1 .6494-.6504h1A.684.684 0 0 0 12.6831 12v-1c.0002-.3587.2917-.6492.6504-.6494"/></svg>