<svg width="8" height="8" viewBox="0 0 8 8" fill="none" xmlns="http://www.w3.org/2000/svg">
<path d="M6.76242 2.2984C7.05531 2.0055 7.05531 1.53063 6.76242 1.23774C6.46952 0.944843 5.99465 0.944843 5.70176 1.23774L4.00008 2.93942L2.2984 1.23774C2.0055 0.944843 1.53063 0.944843 1.23774 1.23774C0.944843 1.53063 0.944843 2.0055 1.23774 2.2984L2.93942 4.00008L1.23774 5.70175C0.944847 5.99465 0.944847 6.46952 1.23774 6.76241C1.53063 7.05531 2.00551 7.05531 2.2984 6.76241L4.00008 5.06074L5.70175 6.76241C5.99465 7.05531 6.46952 7.05531 6.76241 6.76241C7.05531 6.46952 7.05531 5.99465 6.76241 5.70175L5.06074 4.00008L6.76242 2.2984Z" fill="black"/>
</svg>
