<svg width="8" height="8" viewBox="0 0 8 8" fill="none" xmlns="http://www.w3.org/2000/svg">
<path d="M1.39283 4.82057C1.84601 4.82057 2.21339 4.45319 2.21339 4.00001C2.21339 3.54682 1.84601 3.17944 1.39283 3.17944C0.939645 3.17944 0.572266 3.54682 0.572266 4.00001C0.572266 4.45319 0.939645 4.82057 1.39283 4.82057Z" fill="black"/>
<path d="M4.82057 4.00001C4.82057 4.45319 4.45319 4.82057 4.00001 4.82057C3.54682 4.82057 3.17944 4.45319 3.17944 4.00001C3.17944 3.54682 3.54682 3.17944 4.00001 3.17944C4.45319 3.17944 4.82057 3.54682 4.82057 4.00001Z" fill="black"/>
<path d="M7.42775 4.00001C7.42775 4.45319 7.06037 4.82057 6.60719 4.82057C6.154 4.82057 5.78662 4.45319 5.78662 4.00001C5.78662 3.54682 6.154 3.17944 6.60719 3.17944C7.06037 3.17944 7.42775 3.54682 7.42775 4.00001Z" fill="black"/>
</svg>
