<svg width="8" height="8" viewBox="0 0 8 8" fill="none" xmlns="http://www.w3.org/2000/svg">
<path d="M1.39283 4.90187C1.84601 4.90187 2.21339 4.53449 2.21339 4.08131C2.21339 3.62812 1.84601 3.26074 1.39283 3.26074C0.939645 3.26074 0.572266 3.62812 0.572266 4.08131C0.572266 4.53449 0.939645 4.90187 1.39283 4.90187Z" fill="black"/>
<path d="M4.82057 4.08131C4.82057 4.53449 4.45319 4.90187 4.00001 4.90187C3.54682 4.90187 3.17944 4.53449 3.17944 4.08131C3.17944 3.62812 3.54682 3.26074 4.00001 3.26074C4.45319 3.26074 4.82057 3.62812 4.82057 4.08131Z" fill="black"/>
<path d="M7.42775 4.08131C7.42775 4.53449 7.06037 4.90187 6.60719 4.90187C6.154 4.90187 5.78662 4.53449 5.78662 4.08131C5.78662 3.62812 6.154 3.26074 6.60719 3.26074C7.06037 3.26074 7.42775 3.62812 7.42775 4.08131Z" fill="black"/>
</svg>
