<svg width="8" height="8" viewBox="0 0 8 8" fill="none" xmlns="http://www.w3.org/2000/svg">
<g clip-path="url(#clip0_24274_2410)">
<path d="M4.74949 1.31152C4.74949 0.89731 4.4137 0.561523 3.99949 0.561523C3.58528 0.561523 3.24949 0.89731 3.24949 1.31152V3.25H1.30713C0.892915 3.25 0.557129 3.58579 0.557129 4C0.557129 4.41421 0.892915 4.75 1.30713 4.75H3.24949V6.68848C3.24949 7.10269 3.58528 7.43848 3.99949 7.43848C4.4137 7.43848 4.74949 7.10269 4.74949 6.68848V4.75H6.69285C7.10706 4.75 7.44285 4.41421 7.44285 4C7.44285 3.58579 7.10706 3.25 6.69285 3.25H4.74949V1.31152Z" fill="black"/>
</g>
<defs>
<clipPath id="clip0_24274_2410">
<rect width="8" height="8" fill="white"/>
</clipPath>
</defs>
</svg>
