<svg width="8" height="8" viewBox="0 0 8 8" fill="none" xmlns="http://www.w3.org/2000/svg">
<path fill-rule="evenodd" clip-rule="evenodd" d="M4.81475 5.75338C4.35073 6.04769 3.80081 6.21819 3.21041 6.21819C1.54413 6.21819 0.200195 4.86011 0.200195 3.19332C0.200195 1.52653 1.54413 0.168457 3.21041 0.168457C4.87669 0.168457 6.22063 1.52653 6.22063 3.19332C6.22063 3.79892 6.04321 4.36377 5.73738 4.83754L7.61141 6.7232C7.86446 6.97782 7.86319 7.38938 7.60856 7.64243C7.35394 7.89549 6.94238 7.89421 6.68933 7.63959L4.81475 5.75338ZM1.5002 3.19332C1.5002 2.23691 2.26967 1.46846 3.21041 1.46846C4.15115 1.46846 4.92063 2.23691 4.92063 3.19332C4.92063 3.65839 4.73868 4.07901 4.44358 4.38845C4.43128 4.39897 4.41929 4.41003 4.40763 4.42163C4.3963 4.43288 4.38548 4.44445 4.37516 4.4563C4.06925 4.7432 3.65933 4.91819 3.21041 4.91819C2.26967 4.91819 1.5002 4.14973 1.5002 3.19332Z" fill="black"/>
</svg>
