<svg xmlns="http://www.w3.org/2000/svg" width="8" height="8" fill="none" viewBox="0 0 8 8"><path fill="#000" fill-rule="evenodd" d="M4.8145 5.7534a2.985 2.985 0 0 1-1.6043.4649C1.5439 6.2183.2 4.8602.2 3.1933.2 1.5267 1.5439.1686 3.2102.1686s3.0102 1.358 3.0102 3.0249a3.02 3.02 0 0 1-.4833 1.6442l1.874 1.8857a.65.65 0 1 1-.922.9163zM1.5 3.1934c0-.9564.7694-1.7249 1.7102-1.7249s1.7102.7685 1.7102 1.7249c0 .465-.182.8857-.477 1.1951a.66.66 0 0 0-.0685.0679 1.698 1.698 0 0 1-1.1647.4618c-.9408 0-1.7102-.7684-1.7102-1.7248"/></svg>