<svg width="108" height="32" viewBox="0 0 108 32" fill="none" xmlns="http://www.w3.org/2000/svg">
<path d="M0 8C0 3.58172 3.58172 0 8 0H100C104.418 0 108 3.58172 108 8V24C108 28.4183 104.418 32 100 32H8C3.58172 32 0 28.4183 0 24V8Z" fill="#4269E7"/>
<path d="M13 11.4855C13 10.1128 14.113 9 15.4859 9H17.2102C17.5745 9 17.8698 9.29523 17.8698 9.65942C17.8698 10.0236 17.5745 10.3188 17.2102 10.3188H15.4859C14.8415 10.3188 14.3191 10.8412 14.3191 11.4855V13.2207C14.3191 13.5849 14.0238 13.8801 13.6595 13.8801C13.2953 13.8801 13 13.5849 13 13.2207V11.4855Z" fill="white"/>
<path d="M13 20.5145C13 21.8872 14.113 23 15.4859 23H17.2102C17.5745 23 17.8698 22.7048 17.8698 22.3406C17.8698 21.9764 17.5745 21.6812 17.2102 21.6812H15.4859C14.8415 21.6812 14.3191 21.1588 14.3191 20.5145V18.7793C14.3191 18.4151 14.0238 18.1199 13.6595 18.1199C13.2953 18.1199 13 18.4151 13 18.7793V20.5145Z" fill="white"/>
<path d="M24.5141 9C25.887 9 27 10.1128 27 11.4855V13.2207C27 13.5849 26.7047 13.8801 26.3405 13.8801C25.9762 13.8801 25.6809 13.5849 25.6809 13.2207V11.4855C25.6809 10.8412 25.1585 10.3188 24.5141 10.3188H22.7898C22.4255 10.3188 22.1302 10.0236 22.1302 9.65942C22.1302 9.29523 22.4255 9 22.7898 9H24.5141Z" fill="white"/>
<path d="M27 20.5145C27 21.8872 25.887 23 24.5141 23H22.7898C22.4255 23 22.1302 22.7048 22.1302 22.3406C22.1302 21.9764 22.4255 21.6812 22.7898 21.6812H24.5141C25.1585 21.6812 25.6809 21.1588 25.6809 20.5145V18.7793C25.6809 18.4151 25.9762 18.1199 26.3405 18.1199C26.7047 18.1199 27 18.4151 27 18.7793V20.5145Z" fill="white"/>
<path d="M20.2584 10.3188C20.6226 10.3188 20.9179 10.0236 20.9179 9.65942C20.9179 9.29523 20.6226 9 20.2584 9H19.7417C19.3775 9 19.0822 9.29523 19.0822 9.65942C19.0822 10.0236 19.3775 10.3188 19.7417 10.3188H20.2584Z" fill="white"/>
<path d="M20.9179 22.3406C20.9179 21.9764 20.6226 21.6812 20.2584 21.6812H19.7417C19.3775 21.6812 19.0822 21.9764 19.0822 22.3406C19.0822 22.7048 19.3775 23 19.7417 23H20.2584C20.6226 23 20.9179 22.7048 20.9179 22.3406Z" fill="white"/>
<path d="M14.3191 16.2427C14.3191 16.6069 14.0238 16.9021 13.6595 16.9021C13.2953 16.9021 13 16.6069 13 16.2427V15.7273C13 15.3631 13.2953 15.0679 13.6595 15.0679C14.0238 15.0679 14.3191 15.3631 14.3191 15.7273V16.2427Z" fill="white"/>
<path d="M26.3405 16.9021C26.7047 16.9021 27 16.6069 27 16.2427V15.7273C27 15.3631 26.7047 15.0679 26.3405 15.0679C25.9762 15.0679 25.6809 15.3631 25.6809 15.7273V16.2427C25.6809 16.6069 25.9762 16.9021 26.3405 16.9021Z" fill="white"/>
<path fill-rule="evenodd" clip-rule="evenodd" d="M16.9567 13.971C16.9567 13.4107 17.411 12.9565 17.9714 12.9565H22.0301C22.5905 12.9565 23.0448 13.4107 23.0448 13.971V18.029C23.0448 18.5893 22.5905 19.0435 22.0301 19.0435H17.9714C17.411 19.0435 16.9567 18.5893 16.9567 18.029V13.971ZM18.2758 17.7246V14.2754H21.7257V17.7246H18.2758Z" fill="white"/>
<path d="M38.7281 15.624V15.778C39.8201 16.086 40.5481 16.912 40.5481 18.214C40.5481 19.992 39.3021 21 37.3281 21H33.1701V11.2H36.6841C38.6301 11.2 39.8341 12.152 39.8341 13.776C39.8341 14.49 39.4841 15.246 38.7281 15.624ZM36.6701 12.516H34.6401V15.372H36.6701C37.7621 15.372 38.3501 14.742 38.3501 13.944C38.3501 13.132 37.7621 12.516 36.6701 12.516ZM34.6401 19.684H37.3281C38.4901 19.684 39.0781 19.054 39.0781 18.144C39.0781 17.234 38.4901 16.59 37.3281 16.59H34.6401V19.684ZM44.6263 21.168C43.0443 21.168 42.0643 20.188 42.0643 18.578V13.678H43.4643V18.326C43.4643 19.334 44.0383 19.922 45.0043 19.922C46.0963 19.922 46.7543 19.18 46.7543 18.004V13.678H48.1543V21H46.8523V20.23H46.6983C46.3203 20.776 45.6063 21.168 44.6263 21.168ZM54.1103 13.678V14.91H52.0243V18.662C52.0243 19.376 52.3323 19.726 53.1023 19.726H54.0543V21H52.7803C51.4643 21 50.6243 20.314 50.6243 18.844V14.91H49.1963V13.678H50.6243V11.858H52.0243V13.678H54.1103ZM59.7568 13.678V14.91H57.6708V18.662C57.6708 19.376 57.9788 19.726 58.7488 19.726H59.7008V21H58.4268C57.1108 21 56.2708 20.314 56.2708 18.844V14.91H54.8428V13.678H56.2708V11.858H57.6708V13.678H59.7568ZM64.0271 21.168C61.9831 21.168 60.5831 19.782 60.5831 17.346C60.5831 14.896 61.9831 13.51 64.0271 13.51C66.0711 13.51 67.4571 14.896 67.4571 17.346C67.4571 19.782 66.0711 21.168 64.0271 21.168ZM64.0271 19.922C65.2311 19.922 66.0291 19.054 66.0291 17.346C66.0291 15.624 65.2311 14.77 64.0271 14.77C62.8091 14.77 62.0251 15.624 62.0251 17.346C62.0251 19.054 62.8091 19.922 64.0271 19.922ZM70.3859 21H68.9859V13.678H70.3019V14.462H70.4559C70.8339 13.916 71.5339 13.51 72.5279 13.51C74.1099 13.51 75.0759 14.504 75.0759 16.1V21H73.6759V16.366C73.6759 15.344 73.1019 14.77 72.1499 14.77C71.0579 14.77 70.3859 15.498 70.3859 16.674V21Z" fill="white"/>
<path d="M81 11.4855C81 10.1128 82.113 9 83.4859 9H85.2102C85.5745 9 85.8698 9.29523 85.8698 9.65942C85.8698 10.0236 85.5745 10.3188 85.2102 10.3188H83.4859C82.8415 10.3188 82.3191 10.8412 82.3191 11.4855V13.2207C82.3191 13.5849 82.0238 13.8801 81.6595 13.8801C81.2953 13.8801 81 13.5849 81 13.2207V11.4855Z" fill="white"/>
<path d="M81 20.5145C81 21.8872 82.113 23 83.4859 23H85.2102C85.5745 23 85.8698 22.7048 85.8698 22.3406C85.8698 21.9764 85.5745 21.6812 85.2102 21.6812H83.4859C82.8415 21.6812 82.3191 21.1588 82.3191 20.5145V18.7793C82.3191 18.4151 82.0238 18.1199 81.6595 18.1199C81.2953 18.1199 81 18.4151 81 18.7793V20.5145Z" fill="white"/>
<path d="M92.5141 9C93.887 9 95 10.1128 95 11.4855V13.2207C95 13.5849 94.7047 13.8801 94.3405 13.8801C93.9762 13.8801 93.6809 13.5849 93.6809 13.2207V11.4855C93.6809 10.8412 93.1585 10.3188 92.5141 10.3188H90.7898C90.4255 10.3188 90.1302 10.0236 90.1302 9.65942C90.1302 9.29523 90.4255 9 90.7898 9H92.5141Z" fill="white"/>
<path d="M95 20.5145C95 21.8872 93.887 23 92.5141 23H90.7898C90.4255 23 90.1302 22.7048 90.1302 22.3406C90.1302 21.9764 90.4255 21.6812 90.7898 21.6812H92.5141C93.1585 21.6812 93.6809 21.1588 93.6809 20.5145V18.7793C93.6809 18.4151 93.9762 18.1199 94.3405 18.1199C94.7047 18.1199 95 18.4151 95 18.7793V20.5145Z" fill="white"/>
<path d="M88.2584 10.3188C88.6226 10.3188 88.9179 10.0236 88.9179 9.65942C88.9179 9.29523 88.6226 9 88.2584 9H87.7417C87.3775 9 87.0822 9.29523 87.0822 9.65942C87.0822 10.0236 87.3775 10.3188 87.7417 10.3188H88.2584Z" fill="white"/>
<path d="M88.9179 22.3406C88.9179 21.9764 88.6226 21.6812 88.2584 21.6812H87.7417C87.3775 21.6812 87.0822 21.9764 87.0822 22.3406C87.0822 22.7048 87.3775 23 87.7417 23H88.2584C88.6226 23 88.9179 22.7048 88.9179 22.3406Z" fill="white"/>
<path d="M82.3191 16.2427C82.3191 16.6069 82.0238 16.9021 81.6595 16.9021C81.2953 16.9021 81 16.6069 81 16.2427V15.7273C81 15.3631 81.2953 15.0679 81.6595 15.0679C82.0238 15.0679 82.3191 15.3631 82.3191 15.7273V16.2427Z" fill="white"/>
<path d="M94.3405 16.9021C94.7047 16.9021 95 16.6069 95 16.2427V15.7273C95 15.3631 94.7047 15.0679 94.3405 15.0679C93.9762 15.0679 93.6809 15.3631 93.6809 15.7273V16.2427C93.6809 16.6069 93.9762 16.9021 94.3405 16.9021Z" fill="white"/>
<path fill-rule="evenodd" clip-rule="evenodd" d="M84.9567 13.971C84.9567 13.4107 85.411 12.9565 85.9714 12.9565H90.0301C90.5905 12.9565 91.0448 13.4107 91.0448 13.971V18.029C91.0448 18.5893 90.5905 19.0435 90.0301 19.0435H85.9714C85.411 19.0435 84.9567 18.5893 84.9567 18.029V13.971ZM86.2758 17.7246V14.2754H89.7257V17.7246H86.2758Z" fill="white"/>
</svg>
