<svg width="104" height="32" viewBox="0 0 104 32" fill="none" xmlns="http://www.w3.org/2000/svg">
<path d="M0 8C0 3.58172 3.58172 0 8 0H96C100.418 0 104 3.58172 104 8V24C104 28.4183 100.418 32 96 32H8C3.58172 32 0 28.4183 0 24V8Z" fill="#EA152A"/>
<path d="M18.3156 14.588V10.92H19.7156V21H18.3996V20.062H18.2456C17.7976 20.776 17.0556 21.168 16.0756 21.168C14.1856 21.168 12.9396 19.796 12.9396 17.346C12.9396 14.882 14.1996 13.51 16.1316 13.51C17.1536 13.51 17.8536 13.944 18.3156 14.588ZM16.3416 19.922C17.5596 19.922 18.3156 19.054 18.3156 17.346C18.3156 15.624 17.5596 14.77 16.3416 14.77C15.1376 14.77 14.3816 15.624 14.3816 17.346C14.3816 19.054 15.1376 19.922 16.3416 19.922ZM24.4428 13.51C26.2068 13.51 27.2568 14.42 27.2568 15.946V21H25.9548V20.342H25.8008C25.2688 20.86 24.5408 21.168 23.6868 21.168C22.1328 21.168 21.2368 20.23 21.2368 18.872C21.2368 17.444 22.2308 16.576 23.9248 16.576H25.8568V15.974C25.8568 15.19 25.3388 14.742 24.4288 14.742C23.5468 14.742 23.0148 15.134 22.9168 15.764H21.5308C21.6708 14.42 22.7488 13.51 24.4428 13.51ZM23.9108 19.978C24.6108 19.978 25.3248 19.698 25.8568 19.11V17.682H24.0508C23.1548 17.682 22.6508 18.074 22.6508 18.816C22.6508 19.544 23.0988 19.978 23.9108 19.978ZM30.4806 21H29.0806V13.678H30.3966V14.462H30.5506C30.9286 13.916 31.6286 13.51 32.6226 13.51C34.2046 13.51 35.1706 14.504 35.1706 16.1V21H33.7706V16.366C33.7706 15.344 33.1966 14.77 32.2446 14.77C31.1526 14.77 30.4806 15.498 30.4806 16.674V21ZM41.0146 13.678H43.8706V14.854H42.4986C42.6806 15.19 42.7786 15.596 42.7786 16.044C42.7786 17.598 41.5886 18.564 39.8666 18.564C39.4046 18.564 38.9846 18.494 38.6066 18.368L38.5086 18.48C38.2846 18.774 38.2146 18.914 38.2146 19.04C38.2146 19.222 38.3406 19.446 38.6766 19.446H41.0286C42.5126 19.446 43.3946 20.23 43.3946 21.532C43.3946 22.918 42.3726 23.772 40.4826 23.772H39.2226C37.4306 23.772 36.5766 23.03 36.5766 21.854C36.5766 21.224 36.8706 20.706 37.4726 20.328V20.188C37.0526 20.006 36.8566 19.628 36.8566 19.222C36.8566 18.718 37.1506 18.354 37.4306 18.032L37.6406 17.794C37.1926 17.36 36.9406 16.772 36.9406 16.044C36.9406 14.49 38.1306 13.51 39.8666 13.51C40.2866 13.51 40.6786 13.566 41.0146 13.678ZM39.8666 17.388C40.7906 17.388 41.3926 16.898 41.3926 16.044C41.3926 15.176 40.7906 14.686 39.8666 14.686C38.9426 14.686 38.3266 15.176 38.3266 16.044C38.3266 16.898 38.9426 17.388 39.8666 17.388ZM41.9946 21.546C41.9946 20.958 41.5886 20.636 40.8606 20.636H38.4806C38.1446 20.902 37.9766 21.252 37.9766 21.602C37.9766 22.232 38.4526 22.582 39.3766 22.582H40.5666C41.4766 22.582 41.9946 22.204 41.9946 21.546ZM51.393 16.94V17.78H46.059C46.185 19.264 46.913 19.95 48.131 19.95C48.999 19.95 49.671 19.6 49.867 18.942H51.253C50.987 20.286 49.755 21.168 48.103 21.168C46.017 21.168 44.631 19.796 44.631 17.346C44.631 14.882 46.045 13.51 48.103 13.51C50.049 13.51 51.393 14.868 51.393 16.94ZM48.103 14.728C47.011 14.728 46.269 15.358 46.087 16.674H50.035C49.993 15.414 49.237 14.728 48.103 14.728ZM54.3243 21H52.9243V13.678H54.2403V14.476H54.3943C54.6603 13.958 55.2063 13.58 56.0883 13.58H56.9423V14.91H56.0603C54.8703 14.91 54.3243 15.652 54.3243 16.87V21ZM64.5743 11.2V12.516H59.7583V15.456H64.2943V16.758H59.7583V21H58.2883V11.2H64.5743ZM67.5877 12.362H66.0617V10.934H67.5877V12.362ZM67.5177 21H66.1177V13.678H67.5177V21ZM70.8826 21H69.4826V10.92H70.8826V21ZM74.3143 21H72.9143V10.92H74.3143V21ZM82.6879 16.94V17.78H77.3539C77.4799 19.264 78.2079 19.95 79.4259 19.95C80.2939 19.95 80.9659 19.6 81.1619 18.942H82.5479C82.2819 20.286 81.0499 21.168 79.3979 21.168C77.3119 21.168 75.9259 19.796 75.9259 17.346C75.9259 14.882 77.3399 13.51 79.3979 13.51C81.3439 13.51 82.6879 14.868 82.6879 16.94ZM79.3979 14.728C78.3059 14.728 77.5639 15.358 77.3819 16.674H81.3299C81.2879 15.414 80.5319 14.728 79.3979 14.728ZM89.2453 14.588V10.92H90.6453V21H89.3293V20.062H89.1753C88.7273 20.776 87.9853 21.168 87.0053 21.168C85.1153 21.168 83.8693 19.796 83.8693 17.346C83.8693 14.882 85.1292 13.51 87.0613 13.51C88.0833 13.51 88.7833 13.944 89.2453 14.588ZM87.2713 19.922C88.4893 19.922 89.2453 19.054 89.2453 17.346C89.2453 15.624 88.4893 14.77 87.2713 14.77C86.0673 14.77 85.3113 15.624 85.3113 17.346C85.3113 19.054 86.0673 19.922 87.2713 19.922Z" fill="white"/>
</svg>
