<svg width="124" height="32" viewBox="0 0 124 32" fill="none" xmlns="http://www.w3.org/2000/svg">
<path d="M8 0.5H116C120.142 0.5 123.5 3.85786 123.5 8V24C123.5 28.1421 120.142 31.5 116 31.5H8C3.85786 31.5 0.5 28.1421 0.5 24V8C0.5 3.85786 3.85786 0.5 8 0.5Z" fill="white"/>
<path d="M8 0.5H116C120.142 0.5 123.5 3.85786 123.5 8V24C123.5 28.1421 120.142 31.5 116 31.5H8C3.85786 31.5 0.5 28.1421 0.5 24V8C0.5 3.85786 3.85786 0.5 8 0.5Z" stroke="#EA152A"/>
<path d="M18.3078 14.588V10.92H19.7078V21H18.3918V20.062H18.2378C17.7898 20.776 17.0478 21.168 16.0678 21.168C14.1778 21.168 12.9318 19.796 12.9318 17.346C12.9318 14.882 14.1917 13.51 16.1238 13.51C17.1458 13.51 17.8458 13.944 18.3078 14.588ZM16.3338 19.922C17.5518 19.922 18.3078 19.054 18.3078 17.346C18.3078 15.624 17.5518 14.77 16.3338 14.77C15.1298 14.77 14.3738 15.624 14.3738 17.346C14.3738 19.054 15.1298 19.922 16.3338 19.922ZM24.4349 13.51C26.1989 13.51 27.2489 14.42 27.2489 15.946V21H25.9469V20.342H25.7929C25.2609 20.86 24.5329 21.168 23.6789 21.168C22.1249 21.168 21.2289 20.23 21.2289 18.872C21.2289 17.444 22.2229 16.576 23.9169 16.576H25.8489V15.974C25.8489 15.19 25.3309 14.742 24.4209 14.742C23.5389 14.742 23.0069 15.134 22.9089 15.764H21.5229C21.6629 14.42 22.7409 13.51 24.4349 13.51ZM23.9029 19.978C24.6029 19.978 25.3169 19.698 25.8489 19.11V17.682H24.0429C23.1469 17.682 22.6429 18.074 22.6429 18.816C22.6429 19.544 23.0909 19.978 23.9029 19.978ZM30.4728 21H29.0728V13.678H30.3888V14.462H30.5428C30.9208 13.916 31.6208 13.51 32.6148 13.51C34.1968 13.51 35.1628 14.504 35.1628 16.1V21H33.7628V16.366C33.7628 15.344 33.1888 14.77 32.2368 14.77C31.1448 14.77 30.4728 15.498 30.4728 16.674V21ZM41.0068 13.678H43.8628V14.854H42.4908C42.6728 15.19 42.7708 15.596 42.7708 16.044C42.7708 17.598 41.5808 18.564 39.8588 18.564C39.3968 18.564 38.9768 18.494 38.5988 18.368L38.5008 18.48C38.2768 18.774 38.2068 18.914 38.2068 19.04C38.2068 19.222 38.3328 19.446 38.6688 19.446H41.0208C42.5048 19.446 43.3868 20.23 43.3868 21.532C43.3868 22.918 42.3648 23.772 40.4748 23.772H39.2148C37.4228 23.772 36.5688 23.03 36.5688 21.854C36.5688 21.224 36.8628 20.706 37.4648 20.328V20.188C37.0448 20.006 36.8488 19.628 36.8488 19.222C36.8488 18.718 37.1428 18.354 37.4228 18.032L37.6328 17.794C37.1848 17.36 36.9328 16.772 36.9328 16.044C36.9328 14.49 38.1228 13.51 39.8588 13.51C40.2788 13.51 40.6708 13.566 41.0068 13.678ZM39.8588 17.388C40.7828 17.388 41.3848 16.898 41.3848 16.044C41.3848 15.176 40.7828 14.686 39.8588 14.686C38.9348 14.686 38.3188 15.176 38.3188 16.044C38.3188 16.898 38.9348 17.388 39.8588 17.388ZM41.9868 21.546C41.9868 20.958 41.5808 20.636 40.8528 20.636H38.4728C38.1368 20.902 37.9688 21.252 37.9688 21.602C37.9688 22.232 38.4448 22.582 39.3688 22.582H40.5588C41.4688 22.582 41.9868 22.204 41.9868 21.546ZM51.3852 16.94V17.78H46.0512C46.1772 19.264 46.9052 19.95 48.1232 19.95C48.9912 19.95 49.6632 19.6 49.8592 18.942H51.2452C50.9792 20.286 49.7472 21.168 48.0952 21.168C46.0092 21.168 44.6232 19.796 44.6232 17.346C44.6232 14.882 46.0372 13.51 48.0952 13.51C50.0412 13.51 51.3852 14.868 51.3852 16.94ZM48.0952 14.728C47.0032 14.728 46.2612 15.358 46.0792 16.674H50.0272C49.9852 15.414 49.2292 14.728 48.0952 14.728ZM54.3165 21H52.9165V13.678H54.2325V14.476H54.3865C54.6525 13.958 55.1985 13.58 56.0805 13.58H56.9345V14.91H56.0525C54.8625 14.91 54.3165 15.652 54.3165 16.87V21ZM62.2705 21.168C59.6245 21.168 57.8045 19.124 57.8045 16.1C57.8045 13.076 59.6245 11.032 62.2705 11.032C64.9305 11.032 66.7365 13.076 66.7365 16.1C66.7365 19.124 64.9305 21.168 62.2705 21.168ZM62.2705 19.824C64.0765 19.824 65.2385 18.368 65.2385 16.1C65.2385 13.832 64.0765 12.376 62.2705 12.376C60.4785 12.376 59.3165 13.832 59.3165 16.1C59.3165 18.368 60.4785 19.824 62.2705 19.824ZM70.8441 21.168C69.2621 21.168 68.2821 20.188 68.2821 18.578V13.678H69.6821V18.326C69.6821 19.334 70.2561 19.922 71.2221 19.922C72.3141 19.922 72.9721 19.18 72.9721 18.004V13.678H74.3721V21H73.0701V20.23H72.9161C72.5381 20.776 71.8241 21.168 70.8441 21.168ZM80.3281 13.678V14.91H78.2421V18.662C78.2421 19.376 78.5501 19.726 79.3201 19.726H80.2721V21H78.9981C77.6821 21 76.8421 20.314 76.8421 18.844V14.91H75.4141V13.678H76.8421V11.858H78.2421V13.678H80.3281ZM83.1111 21H81.7111V10.92H83.1111V21ZM86.5428 12.362H85.0168V10.934H86.5428V12.362ZM86.4728 21H85.0728V13.678H86.4728V21ZM89.7677 21H88.3677V13.678H89.6837V14.462H89.8377C90.2157 13.916 90.9157 13.51 91.9097 13.51C93.4917 13.51 94.4577 14.504 94.4577 16.1V21H93.0577V16.366C93.0577 15.344 92.4837 14.77 91.5317 14.77C90.4397 14.77 89.7677 15.498 89.7677 16.674V21ZM102.696 16.94V17.78H97.3617C97.4877 19.264 98.2157 19.95 99.4337 19.95C100.302 19.95 100.974 19.6 101.17 18.942H102.556C102.29 20.286 101.058 21.168 99.4057 21.168C97.3197 21.168 95.9337 19.796 95.9337 17.346C95.9337 14.882 97.3477 13.51 99.4057 13.51C101.352 13.51 102.696 14.868 102.696 16.94ZM99.4057 14.728C98.3137 14.728 97.5717 15.358 97.3897 16.674H101.338C101.296 15.414 100.54 14.728 99.4057 14.728ZM109.253 14.588V10.92H110.653V21H109.337V20.062H109.183C108.735 20.776 107.993 21.168 107.013 21.168C105.123 21.168 103.877 19.796 103.877 17.346C103.877 14.882 105.137 13.51 107.069 13.51C108.091 13.51 108.791 13.944 109.253 14.588ZM107.279 19.922C108.497 19.922 109.253 19.054 109.253 17.346C109.253 15.624 108.497 14.77 107.279 14.77C106.075 14.77 105.319 15.624 105.319 17.346C105.319 19.054 106.075 19.922 107.279 19.922Z" fill="#EA152A"/>
</svg>
