<svg width="80" height="32" viewBox="0 0 80 32" fill="none" xmlns="http://www.w3.org/2000/svg">
<path d="M0 8C0 3.58172 3.58172 0 8 0H72C76.4183 0 80 3.58172 80 8V24C80 28.4183 76.4183 32 72 32H8C3.58172 32 0 28.4183 0 24V8Z" fill="#4269E7"/>
<path d="M20.2219 13.51C22.0979 13.51 23.3439 14.882 23.3439 17.346C23.3439 19.796 22.0839 21.168 20.1659 21.168C19.1439 21.168 18.4299 20.734 17.9679 20.104V23.66H16.5679V13.678H17.8839V14.616H18.0379C18.4999 13.902 19.2419 13.51 20.2219 13.51ZM19.9419 19.922C21.1599 19.922 21.9159 19.054 21.9159 17.346C21.9159 15.624 21.1599 14.77 19.9419 14.77C18.7239 14.77 17.9679 15.624 17.9679 17.346C17.9679 19.054 18.7239 19.922 19.9419 19.922ZM26.2667 21H24.8667V13.678H26.1827V14.476H26.3367C26.6027 13.958 27.1487 13.58 28.0307 13.58H28.8847V14.91H28.0027C26.8127 14.91 26.2667 15.652 26.2667 16.87V21ZM31.5047 12.362H29.9787V10.934H31.5047V12.362ZM31.4347 21H30.0347V13.678H31.4347V21ZM34.7296 21H33.3296V13.678H34.6456V14.462H34.7996C35.1496 13.916 35.8216 13.51 36.7176 13.51C37.5856 13.51 38.3276 13.832 38.7336 14.532H38.9016C39.3076 13.986 39.9796 13.51 41.0436 13.51C42.6256 13.51 43.5496 14.49 43.5496 16.142V21H42.1496V16.324C42.1496 15.33 41.6456 14.77 40.7496 14.77C39.7276 14.77 39.1396 15.442 39.1396 16.646V21H37.7396V16.324C37.7396 15.33 37.2356 14.77 36.3396 14.77C35.3176 14.77 34.7296 15.442 34.7296 16.646V21ZM48.1605 13.51C49.9245 13.51 50.9745 14.42 50.9745 15.946V21H49.6725V20.342H49.5185C48.9865 20.86 48.2585 21.168 47.4045 21.168C45.8505 21.168 44.9545 20.23 44.9545 18.872C44.9545 17.444 45.9485 16.576 47.6425 16.576H49.5745V15.974C49.5745 15.19 49.0565 14.742 48.1465 14.742C47.2645 14.742 46.7325 15.134 46.6345 15.764H45.2485C45.3885 14.42 46.4665 13.51 48.1605 13.51ZM47.6285 19.978C48.3285 19.978 49.0425 19.698 49.5745 19.11V17.682H47.7685C46.8725 17.682 46.3685 18.074 46.3685 18.816C46.3685 19.544 46.8165 19.978 47.6285 19.978ZM54.1984 21H52.7984V13.678H54.1144V14.476H54.2684C54.5344 13.958 55.0804 13.58 55.9624 13.58H56.8164V14.91H55.9344C54.7444 14.91 54.1984 15.652 54.1984 16.87V21ZM61.2003 17.78L62.8523 13.678H64.3083L60.1083 23.66H58.6383L60.0803 20.342L57.0843 13.678H58.6103L60.3463 17.78C60.4583 18.032 60.6123 18.396 60.7103 18.662H60.8643C60.9623 18.396 61.0883 18.032 61.2003 17.78Z" fill="white"/>
</svg>
