<svg width="539" height="48" viewBox="0 0 539 48" fill="none" xmlns="http://www.w3.org/2000/svg">
<g clip-path="url(#clip0_242_3671)">
<path d="M39 12.5H95C96.933 12.5 98.5 14.067 98.5 16V32C98.5 33.933 96.933 35.5 95 35.5H39C37.067 35.5 35.5 33.933 35.5 32V16C35.5 14.067 37.067 12.5 39 12.5Z" fill="white"/>
<path d="M39 12.5H95C96.933 12.5 98.5 14.067 98.5 16V32C98.5 33.933 96.933 35.5 95 35.5H39C37.067 35.5 35.5 33.933 35.5 32V16C35.5 14.067 37.067 12.5 39 12.5Z" stroke="#B8BDC7"/>
<path d="M55.7243 28.144C54.2483 28.144 53.3243 27.364 53.2283 26.212H54.4283C54.5123 26.764 54.9683 27.1 55.7483 27.1C56.5763 27.1 56.9963 26.8 56.9963 26.236C56.9963 25.744 56.6723 25.432 55.9043 25.36L55.4363 25.324C53.9363 25.192 53.3603 24.424 53.3603 23.452C53.3603 22.324 54.2843 21.58 55.6763 21.58C57.1283 21.58 57.9683 22.288 58.0403 23.356H56.8523C56.7683 22.912 56.3723 22.636 55.6403 22.636C54.9443 22.636 54.5723 22.912 54.5723 23.428C54.5723 23.908 54.8963 24.184 55.6643 24.256L56.0963 24.304C57.6563 24.448 58.2083 25.156 58.2083 26.128C58.2083 27.352 57.2363 28.144 55.7243 28.144ZM60.6134 28H59.4134V21.724H60.5414V22.396H60.6734C60.9734 21.928 61.5494 21.58 62.3174 21.58C63.0614 21.58 63.6974 21.856 64.0454 22.456H64.1894C64.5374 21.988 65.1134 21.58 66.0254 21.58C67.3814 21.58 68.1734 22.42 68.1734 23.836V28H66.9734V23.992C66.9734 23.14 66.5414 22.66 65.7734 22.66C64.8974 22.66 64.3934 23.236 64.3934 24.268V28H63.1934V23.992C63.1934 23.14 62.7614 22.66 61.9934 22.66C61.1174 22.66 60.6134 23.236 60.6134 24.268V28ZM72.1256 21.58C73.6376 21.58 74.5376 22.36 74.5376 23.668V28H73.4216V27.436H73.2896C72.8336 27.88 72.2096 28.144 71.4776 28.144C70.1456 28.144 69.3776 27.34 69.3776 26.176C69.3776 24.952 70.2296 24.208 71.6816 24.208H73.3376V23.692C73.3376 23.02 72.8936 22.636 72.1136 22.636C71.3576 22.636 70.9016 22.972 70.8176 23.512H69.6296C69.7496 22.36 70.6736 21.58 72.1256 21.58ZM71.6696 27.124C72.2696 27.124 72.8816 26.884 73.3376 26.38V25.156H71.7896C71.0216 25.156 70.5896 25.492 70.5896 26.128C70.5896 26.752 70.9736 27.124 71.6696 27.124ZM77.3609 28H76.1609V19.36H77.3609V28ZM80.3023 28H79.1023V19.36H80.3023V28Z" fill="#1D1E20"/>
<path d="M35 12H99" stroke="#F42500" stroke-dasharray="1 1"/>
<path d="M35 36H99" stroke="#F42500" stroke-dasharray="1 1"/>
<path d="M28 12V36" stroke="#F42500"/>
<path d="M25 12H31" stroke="#F42500"/>
<path d="M25 36H31" stroke="#F42500"/>
<rect x="1" y="14" width="20" height="20" rx="3.5" fill="#F42500"/>
<path d="M4.82879 28V27.125L7.53582 24.3203C7.82488 24.0156 8.06316 23.7487 8.25066 23.5195C8.44077 23.2878 8.5827 23.0677 8.67645 22.8594C8.7702 22.651 8.81707 22.4297 8.81707 22.1953C8.81707 21.9297 8.75457 21.7005 8.62957 21.5078C8.50457 21.3125 8.334 21.1628 8.11785 21.0586C7.90171 20.9518 7.65822 20.8984 7.38738 20.8984C7.10092 20.8984 6.85092 20.957 6.63738 21.0742C6.42384 21.1914 6.25978 21.3568 6.1452 21.5703C6.03061 21.7839 5.97332 22.0339 5.97332 22.3203H4.82098C4.82098 21.8333 4.93296 21.4076 5.15691 21.043C5.38087 20.6784 5.68816 20.3958 6.07879 20.1953C6.46941 19.9922 6.91342 19.8906 7.41082 19.8906C7.91342 19.8906 8.35613 19.9909 8.73895 20.1914C9.12436 20.3893 9.42514 20.6602 9.64129 21.0039C9.85743 21.3451 9.96551 21.7305 9.96551 22.1602C9.96551 22.457 9.90952 22.7474 9.79754 23.0312C9.68816 23.3151 9.49676 23.6315 9.22332 23.9805C8.94988 24.3268 8.56967 24.7474 8.0827 25.2422L6.49285 26.9062V26.9648H10.0944V28H4.82879ZM11.345 26.4375V25.4609L14.8021 20H15.5716V21.4375H15.0833L12.6107 25.3516V25.4141H17.3489V26.4375H11.345ZM15.138 28V26.1406L15.1458 25.6953V20H16.2904V28H15.138Z" fill="white"/>
<path d="M158 8.5H222C226.142 8.5 229.5 11.8579 229.5 16V32C229.5 36.1421 226.142 39.5 222 39.5H158C153.858 39.5 150.5 36.1421 150.5 32V16C150.5 11.8579 153.858 8.5 158 8.5Z" fill="white"/>
<path d="M158 8.5H222C226.142 8.5 229.5 11.8579 229.5 16V32C229.5 36.1421 226.142 39.5 222 39.5H158C153.858 39.5 150.5 36.1421 150.5 32V16C150.5 11.8579 153.858 8.5 158 8.5Z" stroke="#B8BDC7"/>
<path d="M166.532 29H165.132V21.678H166.448V22.462H166.602C166.952 21.916 167.624 21.51 168.52 21.51C169.388 21.51 170.13 21.832 170.536 22.532H170.704C171.11 21.986 171.782 21.51 172.846 21.51C174.428 21.51 175.352 22.49 175.352 24.142V29H173.952V24.324C173.952 23.33 173.448 22.77 172.552 22.77C171.53 22.77 170.942 23.442 170.942 24.646V29H169.542V24.324C169.542 23.33 169.038 22.77 168.142 22.77C167.12 22.77 166.532 23.442 166.532 24.646V29ZM183.589 24.94V25.78H178.255C178.381 27.264 179.109 27.95 180.327 27.95C181.195 27.95 181.867 27.6 182.063 26.942H183.449C183.183 28.286 181.951 29.168 180.299 29.168C178.213 29.168 176.827 27.796 176.827 25.346C176.827 22.882 178.241 21.51 180.299 21.51C182.245 21.51 183.589 22.868 183.589 24.94ZM180.299 22.728C179.207 22.728 178.465 23.358 178.283 24.674H182.231C182.189 23.414 181.433 22.728 180.299 22.728ZM190.147 22.588V18.92H191.547V29H190.231V28.062H190.077C189.629 28.776 188.887 29.168 187.907 29.168C186.017 29.168 184.771 27.796 184.771 25.346C184.771 22.882 186.031 21.51 187.963 21.51C188.985 21.51 189.685 21.944 190.147 22.588ZM188.173 27.922C189.391 27.922 190.147 27.054 190.147 25.346C190.147 23.624 189.391 22.77 188.173 22.77C186.969 22.77 186.213 23.624 186.213 25.346C186.213 27.054 186.969 27.922 188.173 27.922ZM194.958 20.362H193.432V18.934H194.958V20.362ZM194.888 29H193.488V21.678H194.888V29ZM199.275 29.168C197.693 29.168 196.713 28.188 196.713 26.578V21.678H198.113V26.326C198.113 27.334 198.687 27.922 199.653 27.922C200.745 27.922 201.403 27.18 201.403 26.004V21.678H202.803V29H201.501V28.23H201.347C200.969 28.776 200.255 29.168 199.275 29.168ZM206.099 29H204.699V21.678H206.015V22.462H206.169C206.519 21.916 207.191 21.51 208.087 21.51C208.955 21.51 209.697 21.832 210.103 22.532H210.271C210.677 21.986 211.349 21.51 212.413 21.51C213.995 21.51 214.919 22.49 214.919 24.142V29H213.519V24.324C213.519 23.33 213.015 22.77 212.119 22.77C211.097 22.77 210.509 23.442 210.509 24.646V29H209.109V24.324C209.109 23.33 208.605 22.77 207.709 22.77C206.687 22.77 206.099 23.442 206.099 24.646V29Z" fill="#1D1E20"/>
<path d="M150 8H230" stroke="#F42500" stroke-dasharray="1 1"/>
<path d="M150 40H230" stroke="#F42500" stroke-dasharray="1 1"/>
<path d="M143 8V40" stroke="#F42500"/>
<path d="M140 8H146" stroke="#F42500"/>
<path d="M140 40H146" stroke="#F42500"/>
<rect x="116" y="14" width="20" height="20" rx="3.5" fill="#F42500"/>
<path d="M122.582 28.1094C122.045 28.1094 121.566 28.0169 121.144 27.832C120.725 27.6471 120.393 27.3906 120.148 27.0625C119.906 26.7318 119.776 26.349 119.758 25.9141H120.984C121 26.151 121.079 26.3568 121.222 26.5312C121.368 26.7031 121.558 26.8359 121.793 26.9297C122.027 27.0234 122.287 27.0703 122.574 27.0703C122.889 27.0703 123.168 27.0156 123.41 26.9062C123.655 26.7969 123.846 26.6445 123.984 26.4492C124.122 26.2513 124.191 26.0234 124.191 25.7656C124.191 25.4974 124.122 25.2617 123.984 25.0586C123.849 24.8529 123.649 24.6914 123.386 24.5742C123.126 24.457 122.811 24.3984 122.441 24.3984H121.765V23.4141H122.441C122.738 23.4141 122.998 23.3607 123.222 23.2539C123.449 23.1471 123.626 22.9987 123.754 22.8086C123.881 22.6159 123.945 22.3906 123.945 22.1328C123.945 21.8854 123.889 21.6706 123.777 21.4883C123.668 21.3034 123.511 21.1589 123.308 21.0547C123.108 20.9505 122.871 20.8984 122.597 20.8984C122.337 20.8984 122.093 20.9466 121.867 21.043C121.643 21.1367 121.461 21.2721 121.32 21.4492C121.179 21.6237 121.104 21.8333 121.093 22.0781H119.925C119.938 21.6458 120.066 21.2656 120.308 20.9375C120.553 20.6094 120.876 20.3529 121.277 20.168C121.678 19.9831 122.123 19.8906 122.613 19.8906C123.126 19.8906 123.569 19.9909 123.941 20.1914C124.316 20.3893 124.605 20.6536 124.808 20.9844C125.014 21.3151 125.116 21.6771 125.113 22.0703C125.116 22.5182 124.991 22.8984 124.738 23.2109C124.488 23.5234 124.155 23.7331 123.738 23.8398V23.9023C124.269 23.9831 124.681 24.194 124.972 24.5352C125.267 24.8763 125.412 25.2995 125.41 25.8047C125.412 26.2448 125.29 26.6393 125.043 26.9883C124.798 27.3372 124.463 27.612 124.039 27.8125C123.614 28.0104 123.129 28.1094 122.582 28.1094ZM126.996 28V27.125L129.703 24.3203C129.993 24.0156 130.231 23.7487 130.418 23.5195C130.608 23.2878 130.75 23.0677 130.844 22.8594C130.938 22.651 130.985 22.4297 130.985 22.1953C130.985 21.9297 130.922 21.7005 130.797 21.5078C130.672 21.3125 130.502 21.1628 130.285 21.0586C130.069 20.9518 129.826 20.8984 129.555 20.8984C129.269 20.8984 129.019 20.957 128.805 21.0742C128.591 21.1914 128.427 21.3568 128.313 21.5703C128.198 21.7839 128.141 22.0339 128.141 22.3203H126.989C126.989 21.8333 127.101 21.4076 127.325 21.043C127.548 20.6784 127.856 20.3958 128.246 20.1953C128.637 19.9922 129.081 19.8906 129.578 19.8906C130.081 19.8906 130.524 19.9909 130.907 20.1914C131.292 20.3893 131.593 20.6602 131.809 21.0039C132.025 21.3451 132.133 21.7305 132.133 22.1602C132.133 22.457 132.077 22.7474 131.965 23.0312C131.856 23.3151 131.664 23.6315 131.391 23.9805C131.118 24.3268 130.737 24.7474 130.25 25.2422L128.66 26.9062V26.9648H132.262V28H126.996Z" fill="white"/>
<path d="M289 4.5H353C357.142 4.5 360.5 7.85786 360.5 12V36C360.5 40.1421 357.142 43.5 353 43.5H289C284.858 43.5 281.5 40.1421 281.5 36V12C281.5 7.85786 284.858 4.5 289 4.5Z" fill="white"/>
<path d="M289 4.5H353C357.142 4.5 360.5 7.85786 360.5 12V36C360.5 40.1421 357.142 43.5 353 43.5H289C284.858 43.5 281.5 40.1421 281.5 36V12C281.5 7.85786 284.858 4.5 289 4.5Z" stroke="#B8BDC7"/>
<path d="M307.501 29H306.101V18.92H307.501V29ZM312.248 21.51C314.012 21.51 315.062 22.42 315.062 23.946V29H313.76V28.342H313.606C313.074 28.86 312.346 29.168 311.492 29.168C309.938 29.168 309.042 28.23 309.042 26.872C309.042 25.444 310.036 24.576 311.73 24.576H313.662V23.974C313.662 23.19 313.144 22.742 312.234 22.742C311.352 22.742 310.82 23.134 310.722 23.764H309.336C309.476 22.42 310.554 21.51 312.248 21.51ZM311.716 27.978C312.416 27.978 313.13 27.698 313.662 27.11V25.682H311.856C310.96 25.682 310.456 26.074 310.456 26.816C310.456 27.544 310.904 27.978 311.716 27.978ZM318.286 29H316.886V21.678H318.202V22.476H318.356C318.622 21.958 319.168 21.58 320.05 21.58H320.904V22.91H320.022C318.832 22.91 318.286 23.652 318.286 24.87V29ZM325.935 21.678H328.791V22.854H327.419C327.601 23.19 327.699 23.596 327.699 24.044C327.699 25.598 326.509 26.564 324.787 26.564C324.325 26.564 323.905 26.494 323.527 26.368L323.429 26.48C323.205 26.774 323.135 26.914 323.135 27.04C323.135 27.222 323.261 27.446 323.597 27.446H325.949C327.433 27.446 328.315 28.23 328.315 29.532C328.315 30.918 327.293 31.772 325.403 31.772H324.143C322.351 31.772 321.497 31.03 321.497 29.854C321.497 29.224 321.791 28.706 322.393 28.328V28.188C321.973 28.006 321.777 27.628 321.777 27.222C321.777 26.718 322.071 26.354 322.351 26.032L322.561 25.794C322.113 25.36 321.861 24.772 321.861 24.044C321.861 22.49 323.051 21.51 324.787 21.51C325.207 21.51 325.599 21.566 325.935 21.678ZM324.787 25.388C325.711 25.388 326.313 24.898 326.313 24.044C326.313 23.176 325.711 22.686 324.787 22.686C323.863 22.686 323.247 23.176 323.247 24.044C323.247 24.898 323.863 25.388 324.787 25.388ZM326.915 29.546C326.915 28.958 326.509 28.636 325.781 28.636H323.401C323.065 28.902 322.897 29.252 322.897 29.602C322.897 30.232 323.373 30.582 324.297 30.582H325.487C326.397 30.582 326.915 30.204 326.915 29.546ZM336.314 24.94V25.78H330.98C331.106 27.264 331.834 27.95 333.052 27.95C333.92 27.95 334.592 27.6 334.788 26.942H336.174C335.908 28.286 334.676 29.168 333.024 29.168C330.938 29.168 329.552 27.796 329.552 25.346C329.552 22.882 330.966 21.51 333.024 21.51C334.97 21.51 336.314 22.868 336.314 24.94ZM333.024 22.728C331.932 22.728 331.19 23.358 331.008 24.674H334.956C334.914 23.414 334.158 22.728 333.024 22.728Z" fill="#1D1E20"/>
<path d="M281 4H361" stroke="#F42500" stroke-dasharray="1 1"/>
<path d="M281 44H361" stroke="#F42500" stroke-dasharray="1 1"/>
<path d="M274 4V44" stroke="#F42500"/>
<path d="M271 4H277" stroke="#F42500"/>
<path d="M271 44H277" stroke="#F42500"/>
<rect x="246" y="14" width="21" height="20" rx="3.5" fill="#F42500"/>
<path d="M249.898 26.4375V25.4609L253.355 20H254.124V21.4375H253.636L251.163 25.3516V25.4141H255.902V26.4375H249.898ZM253.691 28V26.1406L253.698 25.6953V20H254.843V28H253.691ZM260.158 28.1328C259.541 28.1302 259.013 27.9674 258.576 27.6445C258.138 27.3216 257.804 26.8516 257.572 26.2344C257.34 25.6172 257.224 24.8737 257.224 24.0039C257.224 23.1367 257.34 22.3958 257.572 21.7812C257.806 21.1667 258.142 20.6979 258.58 20.375C259.02 20.0521 259.546 19.8906 260.158 19.8906C260.77 19.8906 261.295 20.0534 261.732 20.3789C262.17 20.7018 262.504 21.1706 262.736 21.7852C262.971 22.3971 263.088 23.1367 263.088 24.0039C263.088 24.8763 262.972 25.6211 262.74 26.2383C262.508 26.8529 262.174 27.3229 261.736 27.6484C261.299 27.9714 260.773 28.1328 260.158 28.1328ZM260.158 27.0898C260.7 27.0898 261.123 26.8255 261.428 26.2969C261.735 25.7682 261.888 25.0039 261.888 24.0039C261.888 23.3398 261.818 22.7786 261.678 22.3203C261.54 21.8594 261.34 21.5104 261.08 21.2734C260.822 21.0339 260.515 20.9141 260.158 20.9141C259.619 20.9141 259.196 21.1797 258.888 21.7109C258.581 22.2422 258.426 23.0065 258.424 24.0039C258.424 24.6706 258.493 25.2344 258.631 25.6953C258.771 26.1536 258.971 26.5013 259.228 26.7383C259.486 26.9727 259.796 27.0898 260.158 27.0898Z" fill="white"/>
<path d="M420 0.5H531C535.142 0.5 538.5 3.85786 538.5 8V40C538.5 44.1421 535.142 47.5 531 47.5H420C415.858 47.5 412.5 44.1421 412.5 40V8C412.5 3.85786 415.858 0.5 420 0.5Z" fill="white"/>
<path d="M420 0.5H531C535.142 0.5 538.5 3.85786 538.5 8V40C538.5 44.1421 535.142 47.5 531 47.5H420C415.858 47.5 412.5 44.1421 412.5 40V8C412.5 3.85786 415.858 0.5 420 0.5Z" stroke="#B8BDC7"/>
<path d="M444.4 24.36V25.32H438.304C438.448 27.016 439.28 27.8 440.672 27.8C441.664 27.8 442.432 27.4 442.656 26.648H444.24C443.936 28.184 442.528 29.192 440.64 29.192C438.256 29.192 436.672 27.624 436.672 24.824C436.672 22.008 438.288 20.44 440.64 20.44C442.864 20.44 444.4 21.992 444.4 24.36ZM440.64 21.832C439.392 21.832 438.544 22.552 438.336 24.056H442.848C442.8 22.616 441.936 21.832 440.64 21.832ZM446.854 29H445.03L447.798 24.728L445.142 20.632H447.014L448.358 22.792C448.534 23.064 448.694 23.368 448.774 23.56H448.95C449.046 23.368 449.19 23.064 449.366 22.792L450.726 20.632H452.55L449.878 24.728L452.662 29H450.774L449.318 26.68C449.142 26.408 448.998 26.104 448.902 25.912H448.726C448.63 26.104 448.47 26.408 448.31 26.68L446.854 29ZM458.321 20.632V22.04H455.937V26.328C455.937 27.144 456.289 27.544 457.169 27.544H458.257V29H456.801C455.297 29 454.337 28.216 454.337 26.536V22.04H452.705V20.632H454.337V18.552H455.937V20.632H458.321ZM461.422 29H459.822V20.632H461.326V21.544H461.502C461.806 20.952 462.43 20.52 463.438 20.52H464.414V22.04H463.406C462.046 22.04 461.422 22.888 461.422 24.28V29ZM468.756 20.44C470.772 20.44 471.972 21.48 471.972 23.224V29H470.484V28.248H470.308C469.7 28.84 468.868 29.192 467.892 29.192C466.116 29.192 465.092 28.12 465.092 26.568C465.092 24.936 466.228 23.944 468.164 23.944H470.372V23.256C470.372 22.36 469.78 21.848 468.74 21.848C467.732 21.848 467.124 22.296 467.012 23.016H465.428C465.588 21.48 466.82 20.44 468.756 20.44ZM468.148 27.832C468.948 27.832 469.764 27.512 470.372 26.84V25.208H468.308C467.284 25.208 466.708 25.656 466.708 26.504C466.708 27.336 467.22 27.832 468.148 27.832ZM481.464 29H474.28V17.8H475.96V27.496H481.464V29ZM485.865 20.44C487.881 20.44 489.081 21.48 489.081 23.224V29H487.593V28.248H487.417C486.809 28.84 485.977 29.192 485.001 29.192C483.225 29.192 482.201 28.12 482.201 26.568C482.201 24.936 483.337 23.944 485.273 23.944H487.481V23.256C487.481 22.36 486.889 21.848 485.849 21.848C484.841 21.848 484.233 22.296 484.121 23.016H482.537C482.697 21.48 483.929 20.44 485.865 20.44ZM485.257 27.832C486.057 27.832 486.873 27.512 487.481 26.84V25.208H485.417C484.393 25.208 483.817 25.656 483.817 26.504C483.817 27.336 484.329 27.832 485.257 27.832ZM492.766 29H491.166V20.632H492.67V21.544H492.846C493.15 20.952 493.774 20.52 494.782 20.52H495.758V22.04H494.75C493.39 22.04 492.766 22.888 492.766 24.28V29ZM501.508 20.632H504.772V21.976H503.204C503.412 22.36 503.524 22.824 503.524 23.336C503.524 25.112 502.164 26.216 500.196 26.216C499.668 26.216 499.188 26.136 498.756 25.992L498.644 26.12C498.388 26.456 498.308 26.616 498.308 26.76C498.308 26.968 498.452 27.224 498.836 27.224H501.524C503.22 27.224 504.228 28.12 504.228 29.608C504.228 31.192 503.06 32.168 500.9 32.168H499.46C497.412 32.168 496.436 31.32 496.436 29.976C496.436 29.256 496.772 28.664 497.46 28.232V28.072C496.98 27.864 496.756 27.432 496.756 26.968C496.756 26.392 497.092 25.976 497.412 25.608L497.652 25.336C497.14 24.84 496.852 24.168 496.852 23.336C496.852 21.56 498.212 20.44 500.196 20.44C500.676 20.44 501.124 20.504 501.508 20.632ZM500.196 24.872C501.252 24.872 501.94 24.312 501.94 23.336C501.94 22.344 501.252 21.784 500.196 21.784C499.14 21.784 498.436 22.344 498.436 23.336C498.436 24.312 499.14 24.872 500.196 24.872ZM502.628 29.624C502.628 28.952 502.164 28.584 501.332 28.584H498.612C498.228 28.888 498.036 29.288 498.036 29.688C498.036 30.408 498.58 30.808 499.636 30.808H500.996C502.036 30.808 502.628 30.376 502.628 29.624ZM513.369 24.36V25.32H507.273C507.417 27.016 508.249 27.8 509.641 27.8C510.633 27.8 511.401 27.4 511.625 26.648H513.209C512.905 28.184 511.497 29.192 509.609 29.192C507.225 29.192 505.641 27.624 505.641 24.824C505.641 22.008 507.257 20.44 509.609 20.44C511.833 20.44 513.369 21.992 513.369 24.36ZM509.609 21.832C508.361 21.832 507.513 22.552 507.305 24.056H511.817C511.769 22.616 510.905 21.832 509.609 21.832Z" fill="#1D1E20"/>
<path d="M412 0H539" stroke="#F42500" stroke-dasharray="1 1"/>
<path d="M412 48H539" stroke="#F42500" stroke-dasharray="1 1"/>
<path d="M405 0V48" stroke="#F42500"/>
<path d="M402 0H408" stroke="#F42500"/>
<path d="M402 48H408" stroke="#F42500"/>
<rect x="377" y="14" width="21" height="20" rx="3.5" fill="#F42500"/>
<path d="M380.898 26.4375V25.4609L384.355 20H385.124V21.4375H384.636L382.163 25.3516V25.4141H386.902V26.4375H380.898ZM384.691 28V26.1406L384.698 25.6953V20H385.843V28H384.691ZM391.158 28.1328C390.541 28.1302 390.013 27.9674 389.576 27.6445C389.138 27.3216 388.804 26.8516 388.572 26.2344C388.34 25.6172 388.224 24.8737 388.224 24.0039C388.224 23.1367 388.34 22.3958 388.572 21.7812C388.806 21.1667 389.142 20.6979 389.58 20.375C390.02 20.0521 390.546 19.8906 391.158 19.8906C391.77 19.8906 392.295 20.0534 392.732 20.3789C393.17 20.7018 393.504 21.1706 393.736 21.7852C393.971 22.3971 394.088 23.1367 394.088 24.0039C394.088 24.8763 393.972 25.6211 393.74 26.2383C393.508 26.8529 393.174 27.3229 392.736 27.6484C392.299 27.9714 391.773 28.1328 391.158 28.1328ZM391.158 27.0898C391.7 27.0898 392.123 26.8255 392.428 26.2969C392.735 25.7682 392.888 25.0039 392.888 24.0039C392.888 23.3398 392.818 22.7786 392.678 22.3203C392.54 21.8594 392.34 21.5104 392.08 21.2734C391.822 21.0339 391.515 20.9141 391.158 20.9141C390.619 20.9141 390.196 21.1797 389.888 21.7109C389.581 22.2422 389.426 23.0065 389.424 24.0039C389.424 24.6706 389.493 25.2344 389.631 25.6953C389.771 26.1536 389.971 26.5013 390.228 26.7383C390.486 26.9727 390.796 27.0898 391.158 27.0898Z" fill="white"/>
</g>
<defs>
<clipPath id="clip0_242_3671">
<rect width="539" height="48" fill="white"/>
</clipPath>
</defs>
</svg>
