<svg viewBox="0 0 464 36" xmlns="http://www.w3.org/2000/svg" xmlns:xlink="http://www.w3.org/1999/xlink" width="464.000000" height="36.000000" fill="none" customFrame="#000000">
	<defs>
		<clipPath id="clipPath_0">
			<rect width="80.000000" height="32.000000" x="0.000000" y="2.000000" rx="8.000000" fill="rgb(255,255,255)" />
		</clipPath>
		<clipPath id="clipPath_1">
			<rect width="16.000000" height="16.000000" x="12.000000" y="10.000000" fill="rgb(255,255,255)" />
		</clipPath>
		<clipPath id="clipPath_2">
			<rect width="16.000000" height="16.000000" x="80.000000" y="10.000000" fill="rgb(255,255,255)" />
		</clipPath>
		<clipPath id="clipPath_3">
			<rect width="80.000000" height="32.000000" x="96.000000" y="2.000000" rx="8.000000" fill="rgb(255,255,255)" />
		</clipPath>
		<clipPath id="clipPath_4">
			<rect width="16.000000" height="16.000000" x="108.000000" y="10.000000" fill="rgb(255,255,255)" />
		</clipPath>
		<clipPath id="clipPath_5">
			<rect width="16.000000" height="16.000000" x="176.000000" y="10.000000" fill="rgb(255,255,255)" />
		</clipPath>
		<clipPath id="clipPath_6">
			<rect width="80.000000" height="32.000000" x="192.000000" y="2.000000" rx="8.000000" fill="rgb(255,255,255)" />
		</clipPath>
		<clipPath id="clipPath_7">
			<rect width="16.000000" height="16.000000" x="204.000000" y="10.000000" fill="rgb(255,255,255)" />
		</clipPath>
		<clipPath id="clipPath_8">
			<rect width="16.000000" height="16.000000" x="272.000000" y="10.000000" fill="rgb(255,255,255)" />
		</clipPath>
		<g id="pixso_custom_effect_0">
			<effect x="0.000000" y="0.000000" visibility="visible" fill="rgb(148,180,253)" fill-opacity="1" effectType="dropShadow" stdDeviation="0" radius="2" />
		</g>
		<filter id="filter_0" width="84.000000" height="36.000000" x="286.000000" y="0.000000" filterUnits="userSpaceOnUse" customEffect="url(#pixso_custom_effect_0)" color-interpolation-filters="sRGB">
			<feFlood flood-opacity="0" result="BackgroundImageFix" />
			<feColorMatrix result="hardAlpha" in="SourceAlpha" type="matrix" values="0 0 0 0 0 0 0 0 0 0 0 0 0 0 0 0 0 0 127 0 " />
			<feOffset dx="-0.000000" dy="-0.000000" in="hardAlpha" />
			<feMorphology radius="2" operator="dilate" />
			<feOffset dx="0.000000" dy="0.000000" />
			<feComposite k2="-1" k3="1" in2="hardAlpha" operator="out" />
			<feColorMatrix type="matrix" values="0 0 0 0 0.580392 0 0 0 0 0.705882 0 0 0 0 0.992157 0 0 0 1 0 " />
			<feBlend result="effect_dropShadow_1" in2="BackgroundImageFix" mode="normal" />
			<feBlend result="shape" in="SourceGraphic" in2="effect_dropShadow_1" mode="normal" />
		</filter>
		<clipPath id="clipPath_9">
			<rect width="80.000000" height="32.000000" x="288.000000" y="2.000000" rx="8.000000" fill="rgb(255,255,255)" />
		</clipPath>
		<clipPath id="clipPath_10">
			<rect width="16.000000" height="16.000008" x="300.000000" y="10.000000" fill="rgb(255,255,255)" />
		</clipPath>
		<clipPath id="clipPath_11">
			<rect width="16.000000" height="16.000008" x="348.000000" y="10.000000" fill="rgb(255,255,255)" />
		</clipPath>
		<clipPath id="clipPath_12">
			<rect width="80.000000" height="32.000000" x="384.000000" y="2.000000" rx="8.000000" fill="rgb(255,255,255)" />
		</clipPath>
		<clipPath id="clipPath_13">
			<rect width="16.000000" height="16.000000" x="396.000000" y="10.000000" fill="rgb(255,255,255)" />
		</clipPath>
		<clipPath id="clipPath_14">
			<rect width="16.000000" height="16.000000" x="464.000000" y="10.000000" fill="rgb(255,255,255)" />
		</clipPath>
	</defs>
	<rect id="🔄 children" width="464.000000" height="32.000000" x="0.000000" y="2.000000" />
	<g id="🔄 children" customFrame="url(#clipPath_0)">
		<rect id="🔄 children" width="80.000000" height="32.000000" x="0.000000" y="2.000000" rx="8.000000" fill="rgb(255,255,255)" />
		<rect id="🔄 children" width="79.000000" height="31.000000" x="0.500000" y="2.500000" rx="7.500000" stroke="rgb(183.6,189.21,198.9)" stroke-width="1" />
		<g id="16 / Placeholder" opacity="0" customFrame="url(#clipPath_1)">
			<rect id="16 / Placeholder" width="16.000000" height="16.000000" x="12.000000" y="10.000000" opacity="0" />
			<path id="color" d="M15.4859 11C14.113 11 13 12.1128 13 13.4855L13 15.2207C13 15.5849 13.2953 15.8801 13.6595 15.8801C14.0238 15.8801 14.3191 15.5849 14.3191 15.2207L14.3191 13.4855C14.3191 12.8412 14.8415 12.3188 15.4859 12.3188L17.2102 12.3188C17.5745 12.3188 17.8698 12.0236 17.8698 11.6594C17.8698 11.2952 17.5745 11 17.2102 11L15.4859 11ZM20.2584 12.3188C20.6226 12.3188 20.9179 12.0236 20.9179 11.6594C20.9179 11.2952 20.6226 11 20.2584 11L19.7417 11C19.3775 11 19.0822 11.2952 19.0822 11.6594C19.0822 12.0236 19.3775 12.3188 19.7417 12.3188L20.2584 12.3188ZM27 13.4855C27 12.1128 25.887 11 24.5141 11L22.7898 11C22.4255 11 22.1302 11.2952 22.1302 11.6594C22.1302 12.0236 22.4255 12.3188 22.7898 12.3188L24.5141 12.3188C25.1585 12.3188 25.6809 12.8412 25.6809 13.4855L25.6809 15.2207C25.6809 15.5849 25.9762 15.8801 26.3405 15.8801C26.7047 15.8801 27 15.5849 27 15.2207L27 13.4855ZM17.9714 14.9565C17.411 14.9565 16.9567 15.4107 16.9567 15.971L16.9567 20.029C16.9567 20.5893 17.411 21.0435 17.9714 21.0435L22.0301 21.0435C22.5905 21.0435 23.0448 20.5893 23.0448 20.029L23.0448 15.971C23.0448 15.4107 22.5905 14.9565 22.0301 14.9565L17.9714 14.9565ZM18.2758 19.7246L18.2758 16.2754L21.7257 16.2754L21.7257 19.7246L18.2758 19.7246ZM14.3191 18.2427L14.3191 17.7273C14.3191 17.3631 14.0238 17.0679 13.6595 17.0679C13.2953 17.0679 13 17.3631 13 17.7273L13 18.2427C13 18.6069 13.2953 18.9021 13.6595 18.9021C14.0238 18.9021 14.3191 18.6069 14.3191 18.2427ZM26.3405 18.9021C26.7047 18.9021 27 18.6069 27 18.2427L27 17.7273C27 17.3631 26.7047 17.0679 26.3405 17.0679C25.9762 17.0679 25.6809 17.3631 25.6809 17.7273L25.6809 18.2427C25.6809 18.6069 25.9762 18.9021 26.3405 18.9021ZM13 22.5145C13 23.8872 14.113 25 15.4859 25L17.2102 25C17.5745 25 17.8698 24.7048 17.8698 24.3406C17.8698 23.9764 17.5745 23.6812 17.2102 23.6812L15.4859 23.6812C14.8415 23.6812 14.3191 23.1588 14.3191 22.5145L14.3191 20.7793C14.3191 20.4151 14.0238 20.1199 13.6595 20.1199C13.2953 20.1199 13 20.4151 13 20.7793L13 22.5145ZM24.5141 25C25.887 25 27 23.8872 27 22.5145L27 20.7793C27 20.4151 26.7047 20.1199 26.3405 20.1199C25.9762 20.1199 25.6809 20.4151 25.6809 20.7793L25.6809 22.5145C25.6809 23.1588 25.1585 23.6812 24.5141 23.6812L22.7898 23.6812C22.4255 23.6812 22.1302 23.9764 22.1302 24.3406C22.1302 24.7048 22.4255 25 22.7898 25L24.5141 25ZM20.9179 24.3406C20.9179 23.9764 20.6226 23.6812 20.2584 23.6812L19.7417 23.6812C19.3775 23.6812 19.0822 23.9764 19.0822 24.3406C19.0822 24.7048 19.3775 25 19.7417 25L20.2584 25C20.6226 25 20.9179 24.7048 20.9179 24.3406Z" fill="rgb(28.67,30.012,32.33)" fill-rule="evenodd" />
		</g>
		<path id="Text" d="M21.6537 18.728L21.6537 19.568L16.3197 19.568C16.4457 21.052 17.1737 21.738 18.3917 21.738C19.2597 21.738 19.9317 21.388 20.1277 20.73L21.5137 20.73C21.2477 22.074 20.0157 22.956 18.3637 22.956C16.2777 22.956 14.8917 21.584 14.8917 19.134C14.8917 16.67 16.3057 15.298 18.3637 15.298C20.3097 15.298 21.6537 16.656 21.6537 18.728ZM18.3637 16.516C17.2717 16.516 16.5297 17.146 16.3477 18.462L20.2957 18.462C20.2537 17.202 19.4977 16.516 18.3637 16.516ZM24.5851 22.788L23.1851 22.788L23.1851 15.466L24.5011 15.466L24.5011 16.25L24.6551 16.25C25.0331 15.704 25.7331 15.298 26.7271 15.298C28.3091 15.298 29.2751 16.292 29.2751 17.888L29.2751 22.788L27.8751 22.788L27.8751 18.154C27.8751 17.132 27.3011 16.558 26.3491 16.558C25.2571 16.558 24.5851 17.286 24.5851 18.462L24.5851 22.788ZM33.8871 15.298C35.6511 15.298 36.7011 16.208 36.7011 17.734L36.7011 22.788L35.3991 22.788L35.3991 22.13L35.2451 22.13C34.7131 22.648 33.9851 22.956 33.1311 22.956C31.5771 22.956 30.6811 22.018 30.6811 20.66C30.6811 19.232 31.6751 18.364 33.3691 18.364L35.3011 18.364L35.3011 17.762C35.3011 16.978 34.7831 16.53 33.8731 16.53C32.9911 16.53 32.4591 16.922 32.3611 17.552L30.9751 17.552C31.1151 16.208 32.1931 15.298 33.8871 15.298ZM33.3551 21.766C34.0551 21.766 34.7691 21.486 35.3011 20.898L35.3011 19.47L33.4951 19.47C32.5991 19.47 32.0951 19.862 32.0951 20.604C32.0951 21.332 32.5431 21.766 33.3551 21.766ZM42.1929 15.298C44.1109 15.298 45.3709 16.67 45.3709 19.134C45.3709 21.584 44.1249 22.956 42.2489 22.956C41.2689 22.956 40.5269 22.564 40.0649 21.85L39.9109 21.85L39.9109 22.788L38.5949 22.788L38.5949 12.708L39.9949 12.708L39.9949 16.376C40.4569 15.732 41.1709 15.298 42.1929 15.298ZM41.9689 21.71C43.1869 21.71 43.9429 20.842 43.9429 19.134C43.9429 17.412 43.1869 16.558 41.9689 16.558C40.7509 16.558 39.9949 17.412 39.9949 19.134C39.9949 20.842 40.7509 21.71 41.9689 21.71ZM48.3621 22.788L46.9621 22.788L46.9621 12.708L48.3621 12.708L48.3621 22.788ZM56.7357 18.728L56.7357 19.568L51.4017 19.568C51.5277 21.052 52.2557 21.738 53.4737 21.738C54.3417 21.738 55.0137 21.388 55.2097 20.73L56.5957 20.73C56.3297 22.074 55.0977 22.956 53.4457 22.956C51.3597 22.956 49.9737 21.584 49.9737 19.134C49.9737 16.67 51.3877 15.298 53.4457 15.298C55.3917 15.298 56.7357 16.656 56.7357 18.728ZM53.4457 16.516C52.3537 16.516 51.6117 17.146 51.4297 18.462L55.3777 18.462C55.3357 17.202 54.5797 16.516 53.4457 16.516ZM63.2931 16.376L63.2931 12.708L64.6931 12.708L64.6931 22.788L63.3771 22.788L63.3771 21.85L63.2231 21.85C62.7751 22.564 62.0331 22.956 61.0531 22.956C59.1631 22.956 57.9171 21.584 57.9171 19.134C57.9171 16.67 59.1771 15.298 61.1091 15.298C62.1311 15.298 62.8311 15.732 63.2931 16.376ZM61.3191 21.71C62.5371 21.71 63.2931 20.842 63.2931 19.134C63.2931 17.412 62.5371 16.558 61.3191 16.558C60.1151 16.558 59.3591 17.412 59.3591 19.134C59.3591 20.842 60.1151 21.71 61.3191 21.71Z" fill="rgb(28.67,30.012,32.33)" fill-rule="nonzero" />
		<g id="16 / Placeholder" opacity="0" customFrame="url(#clipPath_2)">
			<rect id="16 / Placeholder" width="16.000000" height="16.000000" x="80.000000" y="10.000000" opacity="0" />
			<path id="color" d="M83.4859 11C82.113 11 81 12.1128 81 13.4855L81 15.2207C81 15.5849 81.2953 15.8801 81.6595 15.8801C82.0238 15.8801 82.3191 15.5849 82.3191 15.2207L82.3191 13.4855C82.3191 12.8412 82.8415 12.3188 83.4859 12.3188L85.2102 12.3188C85.5745 12.3188 85.8698 12.0236 85.8698 11.6594C85.8698 11.2952 85.5745 11 85.2102 11L83.4859 11ZM88.2584 12.3188C88.6226 12.3188 88.9179 12.0236 88.9179 11.6594C88.9179 11.2952 88.6226 11 88.2584 11L87.7417 11C87.3775 11 87.0822 11.2952 87.0822 11.6594C87.0822 12.0236 87.3775 12.3188 87.7417 12.3188L88.2584 12.3188ZM95 13.4855C95 12.1128 93.887 11 92.5141 11L90.7898 11C90.4255 11 90.1302 11.2952 90.1302 11.6594C90.1302 12.0236 90.4255 12.3188 90.7898 12.3188L92.5141 12.3188C93.1585 12.3188 93.6809 12.8412 93.6809 13.4855L93.6809 15.2207C93.6809 15.5849 93.9762 15.8801 94.3405 15.8801C94.7047 15.8801 95 15.5849 95 15.2207L95 13.4855ZM85.9714 14.9565C85.411 14.9565 84.9567 15.4107 84.9567 15.971L84.9567 20.029C84.9567 20.5893 85.411 21.0435 85.9714 21.0435L90.0301 21.0435C90.5905 21.0435 91.0448 20.5893 91.0448 20.029L91.0448 15.971C91.0448 15.4107 90.5905 14.9565 90.0301 14.9565L85.9714 14.9565ZM86.2758 19.7246L86.2758 16.2754L89.7257 16.2754L89.7257 19.7246L86.2758 19.7246ZM82.3191 18.2427L82.3191 17.7273C82.3191 17.3631 82.0238 17.0679 81.6595 17.0679C81.2953 17.0679 81 17.3631 81 17.7273L81 18.2427C81 18.6069 81.2953 18.9021 81.6595 18.9021C82.0238 18.9021 82.3191 18.6069 82.3191 18.2427ZM94.3405 18.9021C94.7047 18.9021 95 18.6069 95 18.2427L95 17.7273C95 17.3631 94.7047 17.0679 94.3405 17.0679C93.9762 17.0679 93.6809 17.3631 93.6809 17.7273L93.6809 18.2427C93.6809 18.6069 93.9762 18.9021 94.3405 18.9021ZM81 22.5145C81 23.8872 82.113 25 83.4859 25L85.2102 25C85.5745 25 85.8698 24.7048 85.8698 24.3406C85.8698 23.9764 85.5745 23.6812 85.2102 23.6812L83.4859 23.6812C82.8415 23.6812 82.3191 23.1588 82.3191 22.5145L82.3191 20.7793C82.3191 20.4151 82.0238 20.1199 81.6595 20.1199C81.2953 20.1199 81 20.4151 81 20.7793L81 22.5145ZM92.5141 25C93.887 25 95 23.8872 95 22.5145L95 20.7793C95 20.4151 94.7047 20.1199 94.3405 20.1199C93.9762 20.1199 93.6809 20.4151 93.6809 20.7793L93.6809 22.5145C93.6809 23.1588 93.1585 23.6812 92.5141 23.6812L90.7898 23.6812C90.4255 23.6812 90.1302 23.9764 90.1302 24.3406C90.1302 24.7048 90.4255 25 90.7898 25L92.5141 25ZM88.9179 24.3406C88.9179 23.9764 88.6226 23.6812 88.2584 23.6812L87.7417 23.6812C87.3775 23.6812 87.0822 23.9764 87.0822 24.3406C87.0822 24.7048 87.3775 25 87.7417 25L88.2584 25C88.6226 25 88.9179 24.7048 88.9179 24.3406Z" fill="rgb(28.67,30.012,32.33)" fill-rule="evenodd" />
		</g>
	</g>
	<g id="🔄 children" customFrame="url(#clipPath_3)">
		<rect id="🔄 children" width="80.000000" height="32.000000" x="96.000000" y="2.000000" rx="8.000000" fill="rgb(243.168,244.365,246.432)" />
		<rect id="🔄 children" width="79.000000" height="31.000000" x="96.500000" y="2.500000" rx="7.500000" stroke="rgb(183.6,189.21,198.9)" stroke-width="1" />
		<g id="16 / Placeholder" opacity="0" customFrame="url(#clipPath_4)">
			<rect id="16 / Placeholder" width="16.000000" height="16.000000" x="108.000000" y="10.000000" opacity="0" />
			<path id="color" d="M111.486 11C110.113 11 109 12.1128 109 13.4855L109 15.2207C109 15.5849 109.295 15.8801 109.66 15.8801C110.024 15.8801 110.319 15.5849 110.319 15.2207L110.319 13.4855C110.319 12.8412 110.841 12.3188 111.486 12.3188L113.21 12.3188C113.574 12.3188 113.87 12.0236 113.87 11.6594C113.87 11.2952 113.574 11 113.21 11L111.486 11ZM116.258 12.3188C116.623 12.3188 116.918 12.0236 116.918 11.6594C116.918 11.2952 116.623 11 116.258 11L115.742 11C115.377 11 115.082 11.2952 115.082 11.6594C115.082 12.0236 115.377 12.3188 115.742 12.3188L116.258 12.3188ZM123 13.4855C123 12.1128 121.887 11 120.514 11L118.79 11C118.426 11 118.13 11.2952 118.13 11.6594C118.13 12.0236 118.426 12.3188 118.79 12.3188L120.514 12.3188C121.159 12.3188 121.681 12.8412 121.681 13.4855L121.681 15.2207C121.681 15.5849 121.976 15.8801 122.34 15.8801C122.705 15.8801 123 15.5849 123 15.2207L123 13.4855ZM113.971 14.9565C113.411 14.9565 112.957 15.4107 112.957 15.971L112.957 20.029C112.957 20.5893 113.411 21.0435 113.971 21.0435L118.03 21.0435C118.59 21.0435 119.045 20.5893 119.045 20.029L119.045 15.971C119.045 15.4107 118.59 14.9565 118.03 14.9565L113.971 14.9565ZM114.276 19.7246L114.276 16.2754L117.726 16.2754L117.726 19.7246L114.276 19.7246ZM110.319 18.2427L110.319 17.7273C110.319 17.3631 110.024 17.0679 109.66 17.0679C109.295 17.0679 109 17.3631 109 17.7273L109 18.2427C109 18.6069 109.295 18.9021 109.66 18.9021C110.024 18.9021 110.319 18.6069 110.319 18.2427ZM122.34 18.9021C122.705 18.9021 123 18.6069 123 18.2427L123 17.7273C123 17.3631 122.705 17.0679 122.34 17.0679C121.976 17.0679 121.681 17.3631 121.681 17.7273L121.681 18.2427C121.681 18.6069 121.976 18.9021 122.34 18.9021ZM109 22.5145C109 23.8872 110.113 25 111.486 25L113.21 25C113.574 25 113.87 24.7048 113.87 24.3406C113.87 23.9764 113.574 23.6812 113.21 23.6812L111.486 23.6812C110.841 23.6812 110.319 23.1588 110.319 22.5145L110.319 20.7793C110.319 20.4151 110.024 20.1199 109.66 20.1199C109.295 20.1199 109 20.4151 109 20.7793L109 22.5145ZM120.514 25C121.887 25 123 23.8872 123 22.5145L123 20.7793C123 20.4151 122.705 20.1199 122.34 20.1199C121.976 20.1199 121.681 20.4151 121.681 20.7793L121.681 22.5145C121.681 23.1588 121.159 23.6812 120.514 23.6812L118.79 23.6812C118.426 23.6812 118.13 23.9764 118.13 24.3406C118.13 24.7048 118.426 25 118.79 25L120.514 25ZM116.918 24.3406C116.918 23.9764 116.623 23.6812 116.258 23.6812L115.742 23.6812C115.377 23.6812 115.082 23.9764 115.082 24.3406C115.082 24.7048 115.377 25 115.742 25L116.258 25C116.623 25 116.918 24.7048 116.918 24.3406Z" fill="rgb(28.67,30.012,32.33)" fill-rule="evenodd" />
		</g>
		<path id="Text" d="M120.361 22.788L118.961 22.788L118.961 12.708L120.361 12.708L120.361 16.166L120.515 16.166C120.879 15.662 121.551 15.298 122.489 15.298C124.085 15.298 125.051 16.292 125.051 17.888L125.051 22.788L123.651 22.788L123.651 18.154C123.651 17.132 123.077 16.558 122.125 16.558C121.033 16.558 120.361 17.286 120.361 18.462L120.361 22.788ZM129.969 22.956C127.925 22.956 126.525 21.57 126.525 19.134C126.525 16.684 127.925 15.298 129.969 15.298C132.014 15.298 133.4 16.684 133.4 19.134C133.4 21.57 132.014 22.956 129.969 22.956ZM129.969 21.71C131.173 21.71 131.971 20.842 131.971 19.134C131.971 17.412 131.173 16.558 129.969 16.558C128.751 16.558 127.967 17.412 127.967 19.134C127.967 20.842 128.751 21.71 129.969 21.71ZM138.376 22.788L136.542 22.788L133.91 15.466L135.394 15.466L137.06 20.38C137.186 20.73 137.298 21.08 137.396 21.43L137.55 21.43C137.662 21.08 137.774 20.73 137.9 20.38L139.58 15.466L141.022 15.466L138.376 22.788ZM148.286 18.728L148.286 19.568L142.952 19.568C143.078 21.052 143.806 21.738 145.024 21.738C145.892 21.738 146.564 21.388 146.76 20.73L148.146 20.73C147.88 22.074 146.648 22.956 144.996 22.956C142.91 22.956 141.524 21.584 141.524 19.134C141.524 16.67 142.938 15.298 144.996 15.298C146.942 15.298 148.286 16.656 148.286 18.728ZM144.996 16.516C143.904 16.516 143.162 17.146 142.98 18.462L146.928 18.462C146.886 17.202 146.13 16.516 144.996 16.516ZM151.217 22.788L149.817 22.788L149.817 15.466L151.133 15.466L151.133 16.264L151.287 16.264C151.553 15.746 152.099 15.368 152.981 15.368L153.835 15.368L153.835 16.698L152.953 16.698C151.763 16.698 151.217 17.44 151.217 18.658L151.217 22.788Z" fill="rgb(28.67,30.012,32.33)" fill-rule="nonzero" />
		<g id="16 / Placeholder" opacity="0" customFrame="url(#clipPath_5)">
			<rect id="16 / Placeholder" width="16.000000" height="16.000000" x="176.000000" y="10.000000" opacity="0" />
			<path id="color" d="M179.486 11C178.113 11 177 12.1128 177 13.4855L177 15.2207C177 15.5849 177.295 15.8801 177.66 15.8801C178.024 15.8801 178.319 15.5849 178.319 15.2207L178.319 13.4855C178.319 12.8412 178.842 12.3188 179.486 12.3188L181.21 12.3188C181.574 12.3188 181.87 12.0236 181.87 11.6594C181.87 11.2952 181.574 11 181.21 11L179.486 11ZM184.258 12.3188C184.623 12.3188 184.918 12.0236 184.918 11.6594C184.918 11.2952 184.623 11 184.258 11L183.742 11C183.377 11 183.082 11.2952 183.082 11.6594C183.082 12.0236 183.377 12.3188 183.742 12.3188L184.258 12.3188ZM191 13.4855C191 12.1128 189.887 11 188.514 11L186.79 11C186.426 11 186.13 11.2952 186.13 11.6594C186.13 12.0236 186.426 12.3188 186.79 12.3188L188.514 12.3188C189.158 12.3188 189.681 12.8412 189.681 13.4855L189.681 15.2207C189.681 15.5849 189.976 15.8801 190.34 15.8801C190.705 15.8801 191 15.5849 191 15.2207L191 13.4855ZM181.971 14.9565C181.411 14.9565 180.957 15.4107 180.957 15.971L180.957 20.029C180.957 20.5893 181.411 21.0435 181.971 21.0435L186.03 21.0435C186.59 21.0435 187.045 20.5893 187.045 20.029L187.045 15.971C187.045 15.4107 186.59 14.9565 186.03 14.9565L181.971 14.9565ZM182.276 19.7246L182.276 16.2754L185.726 16.2754L185.726 19.7246L182.276 19.7246ZM178.319 18.2427L178.319 17.7273C178.319 17.3631 178.024 17.0679 177.66 17.0679C177.295 17.0679 177 17.3631 177 17.7273L177 18.2427C177 18.6069 177.295 18.9021 177.66 18.9021C178.024 18.9021 178.319 18.6069 178.319 18.2427ZM190.34 18.9021C190.705 18.9021 191 18.6069 191 18.2427L191 17.7273C191 17.3631 190.705 17.0679 190.34 17.0679C189.976 17.0679 189.681 17.3631 189.681 17.7273L189.681 18.2427C189.681 18.6069 189.976 18.9021 190.34 18.9021ZM177 22.5145C177 23.8872 178.113 25 179.486 25L181.21 25C181.574 25 181.87 24.7048 181.87 24.3406C181.87 23.9764 181.574 23.6812 181.21 23.6812L179.486 23.6812C178.842 23.6812 178.319 23.1588 178.319 22.5145L178.319 20.7793C178.319 20.4151 178.024 20.1199 177.66 20.1199C177.295 20.1199 177 20.4151 177 20.7793L177 22.5145ZM188.514 25C189.887 25 191 23.8872 191 22.5145L191 20.7793C191 20.4151 190.705 20.1199 190.34 20.1199C189.976 20.1199 189.681 20.4151 189.681 20.7793L189.681 22.5145C189.681 23.1588 189.158 23.6812 188.514 23.6812L186.79 23.6812C186.426 23.6812 186.13 23.9764 186.13 24.3406C186.13 24.7048 186.426 25 186.79 25L188.514 25ZM184.918 24.3406C184.918 23.9764 184.623 23.6812 184.258 23.6812L183.742 23.6812C183.377 23.6812 183.082 23.9764 183.082 24.3406C183.082 24.7048 183.377 25 183.742 25L184.258 25C184.623 25 184.918 24.7048 184.918 24.3406Z" fill="rgb(28.67,30.012,32.33)" fill-rule="evenodd" />
		</g>
	</g>
	<g id="🔄 children" customFrame="url(#clipPath_6)">
		<rect id="🔄 children" width="80.000000" height="32.000000" x="192.000000" y="2.000000" rx="8.000000" fill="rgb(237.405,239.088,241.995)" />
		<rect id="🔄 children" width="79.000000" height="31.000000" x="192.500000" y="2.500000" rx="7.500000" stroke="rgb(183.6,189.21,198.9)" stroke-width="1" />
		<g id="16 / Placeholder" opacity="0" customFrame="url(#clipPath_7)">
			<rect id="16 / Placeholder" width="16.000000" height="16.000000" x="204.000000" y="10.000000" opacity="0" />
			<path id="color" d="M207.486 11C206.113 11 205 12.1128 205 13.4855L205 15.2207C205 15.5849 205.295 15.8801 205.66 15.8801C206.024 15.8801 206.319 15.5849 206.319 15.2207L206.319 13.4855C206.319 12.8412 206.842 12.3188 207.486 12.3188L209.21 12.3188C209.574 12.3188 209.87 12.0236 209.87 11.6594C209.87 11.2952 209.574 11 209.21 11L207.486 11ZM212.258 12.3188C212.623 12.3188 212.918 12.0236 212.918 11.6594C212.918 11.2952 212.623 11 212.258 11L211.742 11C211.377 11 211.082 11.2952 211.082 11.6594C211.082 12.0236 211.377 12.3188 211.742 12.3188L212.258 12.3188ZM219 13.4855C219 12.1128 217.887 11 216.514 11L214.79 11C214.426 11 214.13 11.2952 214.13 11.6594C214.13 12.0236 214.426 12.3188 214.79 12.3188L216.514 12.3188C217.158 12.3188 217.681 12.8412 217.681 13.4855L217.681 15.2207C217.681 15.5849 217.976 15.8801 218.34 15.8801C218.705 15.8801 219 15.5849 219 15.2207L219 13.4855ZM209.971 14.9565C209.411 14.9565 208.957 15.4107 208.957 15.971L208.957 20.029C208.957 20.5893 209.411 21.0435 209.971 21.0435L214.03 21.0435C214.59 21.0435 215.045 20.5893 215.045 20.029L215.045 15.971C215.045 15.4107 214.59 14.9565 214.03 14.9565L209.971 14.9565ZM210.276 19.7246L210.276 16.2754L213.726 16.2754L213.726 19.7246L210.276 19.7246ZM206.319 18.2427L206.319 17.7273C206.319 17.3631 206.024 17.0679 205.66 17.0679C205.295 17.0679 205 17.3631 205 17.7273L205 18.2427C205 18.6069 205.295 18.9021 205.66 18.9021C206.024 18.9021 206.319 18.6069 206.319 18.2427ZM218.34 18.9021C218.705 18.9021 219 18.6069 219 18.2427L219 17.7273C219 17.3631 218.705 17.0679 218.34 17.0679C217.976 17.0679 217.681 17.3631 217.681 17.7273L217.681 18.2427C217.681 18.6069 217.976 18.9021 218.34 18.9021ZM205 22.5145C205 23.8872 206.113 25 207.486 25L209.21 25C209.574 25 209.87 24.7048 209.87 24.3406C209.87 23.9764 209.574 23.6812 209.21 23.6812L207.486 23.6812C206.842 23.6812 206.319 23.1588 206.319 22.5145L206.319 20.7793C206.319 20.4151 206.024 20.1199 205.66 20.1199C205.295 20.1199 205 20.4151 205 20.7793L205 22.5145ZM216.514 25C217.887 25 219 23.8872 219 22.5145L219 20.7793C219 20.4151 218.705 20.1199 218.34 20.1199C217.976 20.1199 217.681 20.4151 217.681 20.7793L217.681 22.5145C217.681 23.1588 217.158 23.6812 216.514 23.6812L214.79 23.6812C214.426 23.6812 214.13 23.9764 214.13 24.3406C214.13 24.7048 214.426 25 214.79 25L216.514 25ZM212.918 24.3406C212.918 23.9764 212.623 23.6812 212.258 23.6812L211.742 23.6812C211.377 23.6812 211.082 23.9764 211.082 24.3406C211.082 24.7048 211.377 25 211.742 25L212.258 25C212.623 25 212.918 24.7048 212.918 24.3406Z" fill="rgb(28.67,30.012,32.33)" fill-rule="evenodd" />
		</g>
		<path id="Text" d="M216.385 15.298C218.149 15.298 219.199 16.208 219.199 17.734L219.199 22.788L217.897 22.788L217.897 22.13L217.743 22.13C217.211 22.648 216.483 22.956 215.629 22.956C214.075 22.956 213.179 22.018 213.179 20.66C213.179 19.232 214.173 18.364 215.867 18.364L217.799 18.364L217.799 17.762C217.799 16.978 217.281 16.53 216.371 16.53C215.489 16.53 214.957 16.922 214.859 17.552L213.473 17.552C213.613 16.208 214.691 15.298 216.385 15.298ZM215.853 21.766C216.553 21.766 217.267 21.486 217.799 20.898L217.799 19.47L215.993 19.47C215.097 19.47 214.593 19.862 214.593 20.604C214.593 21.332 215.041 21.766 215.853 21.766ZM224.089 22.956C222.031 22.956 220.673 21.584 220.673 19.134C220.673 16.67 222.031 15.298 224.089 15.298C225.769 15.298 226.945 16.306 227.169 17.776L225.797 17.776C225.615 16.992 224.957 16.558 224.103 16.558C222.899 16.558 222.115 17.356 222.115 19.134C222.115 20.898 222.885 21.71 224.089 21.71C224.971 21.71 225.643 21.248 225.811 20.478L227.183 20.478C226.959 21.934 225.783 22.956 224.089 22.956ZM232.644 15.466L232.644 16.698L230.558 16.698L230.558 20.45C230.558 21.164 230.866 21.514 231.636 21.514L232.588 21.514L232.588 22.788L231.314 22.788C229.998 22.788 229.158 22.102 229.158 20.632L229.158 16.698L227.73 16.698L227.73 15.466L229.158 15.466L229.158 13.646L230.558 13.646L230.558 15.466L232.644 15.466ZM235.427 14.15L233.901 14.15L233.901 12.722L235.427 12.722L235.427 14.15ZM235.357 22.788L233.957 22.788L233.957 15.466L235.357 15.466L235.357 22.788ZM240.835 22.788L239.001 22.788L236.369 15.466L237.853 15.466L239.519 20.38C239.645 20.73 239.757 21.08 239.855 21.43L240.009 21.43C240.121 21.08 240.233 20.73 240.359 20.38L242.039 15.466L243.481 15.466L240.835 22.788ZM250.746 18.728L250.746 19.568L245.411 19.568C245.538 21.052 246.266 21.738 247.484 21.738C248.352 21.738 249.023 21.388 249.22 20.73L250.605 20.73C250.34 22.074 249.108 22.956 247.456 22.956C245.37 22.956 243.984 21.584 243.984 19.134C243.984 16.67 245.398 15.298 247.456 15.298C249.402 15.298 250.746 16.656 250.746 18.728ZM247.456 16.516C246.364 16.516 245.622 17.146 245.44 18.462L249.388 18.462C249.346 17.202 248.59 16.516 247.456 16.516Z" fill="rgb(28.67,30.012,32.33)" fill-rule="nonzero" />
		<g id="16 / Placeholder" opacity="0" customFrame="url(#clipPath_8)">
			<rect id="16 / Placeholder" width="16.000000" height="16.000000" x="272.000000" y="10.000000" opacity="0" />
			<path id="color" d="M275.486 11C274.113 11 273 12.1128 273 13.4855L273 15.2207C273 15.5849 273.295 15.8801 273.66 15.8801C274.024 15.8801 274.319 15.5849 274.319 15.2207L274.319 13.4855C274.319 12.8412 274.841 12.3188 275.486 12.3188L277.21 12.3188C277.574 12.3188 277.87 12.0236 277.87 11.6594C277.87 11.2952 277.574 11 277.21 11L275.486 11ZM280.258 12.3188C280.623 12.3188 280.918 12.0236 280.918 11.6594C280.918 11.2952 280.623 11 280.258 11L279.742 11C279.377 11 279.082 11.2952 279.082 11.6594C279.082 12.0236 279.377 12.3188 279.742 12.3188L280.258 12.3188ZM287 13.4855C287 12.1128 285.887 11 284.514 11L282.79 11C282.426 11 282.13 11.2952 282.13 11.6594C282.13 12.0236 282.426 12.3188 282.79 12.3188L284.514 12.3188C285.159 12.3188 285.681 12.8412 285.681 13.4855L285.681 15.2207C285.681 15.5849 285.976 15.8801 286.34 15.8801C286.705 15.8801 287 15.5849 287 15.2207L287 13.4855ZM277.971 14.9565C277.411 14.9565 276.957 15.4107 276.957 15.971L276.957 20.029C276.957 20.5893 277.411 21.0435 277.971 21.0435L282.03 21.0435C282.59 21.0435 283.045 20.5893 283.045 20.029L283.045 15.971C283.045 15.4107 282.59 14.9565 282.03 14.9565L277.971 14.9565ZM278.276 19.7246L278.276 16.2754L281.726 16.2754L281.726 19.7246L278.276 19.7246ZM274.319 18.2427L274.319 17.7273C274.319 17.3631 274.024 17.0679 273.66 17.0679C273.295 17.0679 273 17.3631 273 17.7273L273 18.2427C273 18.6069 273.295 18.9021 273.66 18.9021C274.024 18.9021 274.319 18.6069 274.319 18.2427ZM286.34 18.9021C286.705 18.9021 287 18.6069 287 18.2427L287 17.7273C287 17.3631 286.705 17.0679 286.34 17.0679C285.976 17.0679 285.681 17.3631 285.681 17.7273L285.681 18.2427C285.681 18.6069 285.976 18.9021 286.34 18.9021ZM273 22.5145C273 23.8872 274.113 25 275.486 25L277.21 25C277.574 25 277.87 24.7048 277.87 24.3406C277.87 23.9764 277.574 23.6812 277.21 23.6812L275.486 23.6812C274.841 23.6812 274.319 23.1588 274.319 22.5145L274.319 20.7793C274.319 20.4151 274.024 20.1199 273.66 20.1199C273.295 20.1199 273 20.4151 273 20.7793L273 22.5145ZM284.514 25C285.887 25 287 23.8872 287 22.5145L287 20.7793C287 20.4151 286.705 20.1199 286.34 20.1199C285.976 20.1199 285.681 20.4151 285.681 20.7793L285.681 22.5145C285.681 23.1588 285.159 23.6812 284.514 23.6812L282.79 23.6812C282.426 23.6812 282.13 23.9764 282.13 24.3406C282.13 24.7048 282.426 25 282.79 25L284.514 25ZM280.918 24.3406C280.918 23.9764 280.623 23.6812 280.258 23.6812L279.742 23.6812C279.377 23.6812 279.082 23.9764 279.082 24.3406C279.082 24.7048 279.377 25 279.742 25L280.258 25C280.623 25 280.918 24.7048 280.918 24.3406Z" fill="rgb(28.67,30.012,32.33)" fill-rule="evenodd" />
		</g>
	</g>
	<g filter="url(#filter_0)">
		<g id="🔄 children" clip-path="url(#clipPath_9)" customFrame="url(#clipPath_9)">
			<rect id="🔄 children" width="80.000000" height="32.000000" x="288.000000" y="2.000000" rx="8.000000" fill="rgb(255,255,255)" />
			<rect id="🔄 children" width="79.000000" height="31.000000" x="288.500000" y="2.500000" rx="7.500000" stroke="rgb(183.6,189.21,198.9)" stroke-width="1" />
			<g id="16 / Placeholder" opacity="0" customFrame="url(#clipPath_10)">
				<rect id="16 / Placeholder" width="16.000000" height="16.000008" x="300.000000" y="10.000000" opacity="0" />
				<path id="color" d="M303.486 11C302.113 11 301 12.1128 301 13.4855L301 15.2207C301 15.5849 301.295 15.8801 301.66 15.8801C302.024 15.8801 302.319 15.5849 302.319 15.2207L302.319 13.4855C302.319 12.8412 302.841 12.3188 303.486 12.3188L305.21 12.3188C305.574 12.3188 305.87 12.0236 305.87 11.6594C305.87 11.2952 305.574 11 305.21 11L303.486 11ZM308.258 12.3188C308.623 12.3188 308.918 12.0236 308.918 11.6594C308.918 11.2952 308.623 11 308.258 11L307.742 11C307.377 11 307.082 11.2952 307.082 11.6594C307.082 12.0236 307.377 12.3188 307.742 12.3188L308.258 12.3188ZM315 13.4855C315 12.1128 313.887 11 312.514 11L310.79 11C310.426 11 310.13 11.2952 310.13 11.6594C310.13 12.0236 310.426 12.3188 310.79 12.3188L312.514 12.3188C313.159 12.3188 313.681 12.8412 313.681 13.4855L313.681 15.2207C313.681 15.5849 313.976 15.8801 314.34 15.8801C314.705 15.8801 315 15.5849 315 15.2207L315 13.4855ZM305.971 14.9565C305.411 14.9565 304.957 15.4107 304.957 15.971L304.957 20.029C304.957 20.5893 305.411 21.0435 305.971 21.0435L310.03 21.0435C310.59 21.0435 311.045 20.5893 311.045 20.029L311.045 15.971C311.045 15.4107 310.59 14.9565 310.03 14.9565L305.971 14.9565ZM306.276 19.7246L306.276 16.2754L309.726 16.2754L309.726 19.7246L306.276 19.7246ZM302.319 18.2427L302.319 17.7273C302.319 17.3631 302.024 17.0679 301.66 17.0679C301.295 17.0679 301 17.3631 301 17.7273L301 18.2427C301 18.6069 301.295 18.9021 301.66 18.9021C302.024 18.9021 302.319 18.6069 302.319 18.2427ZM314.34 18.9021C314.705 18.9021 315 18.6069 315 18.2427L315 17.7273C315 17.3631 314.705 17.0679 314.34 17.0679C313.976 17.0679 313.681 17.3631 313.681 17.7273L313.681 18.2427C313.681 18.6069 313.976 18.9021 314.34 18.9021ZM301 22.5145C301 23.8872 302.113 25 303.486 25L305.21 25C305.574 25 305.87 24.7048 305.87 24.3406C305.87 23.9764 305.574 23.6812 305.21 23.6812L303.486 23.6812C302.841 23.6812 302.319 23.1588 302.319 22.5145L302.319 20.7793C302.319 20.4151 302.024 20.1199 301.66 20.1199C301.295 20.1199 301 20.4151 301 20.7793L301 22.5145ZM312.514 25C313.887 25 315 23.8872 315 22.5145L315 20.7793C315 20.4151 314.705 20.1199 314.34 20.1199C313.976 20.1199 313.681 20.4151 313.681 20.7793L313.681 22.5145C313.681 23.1588 313.159 23.6812 312.514 23.6812L310.79 23.6812C310.426 23.6812 310.13 23.9764 310.13 24.3406C310.13 24.7048 310.426 25 310.79 25L312.514 25ZM308.918 24.3406C308.918 23.9764 308.623 23.6812 308.258 23.6812L307.742 23.6812C307.377 23.6812 307.082 23.9764 307.082 24.3406C307.082 24.7048 307.377 25 307.742 25L308.258 25C308.623 25 308.918 24.7048 308.918 24.3406Z" fill="rgb(28.67,30.012,32.33)" fill-rule="evenodd" />
			</g>
			<path id="Text" d="M315.432 13.898L314.354 13.898C313.57 13.898 313.262 14.248 313.262 14.962L313.262 15.466L315.404 15.466L315.404 16.698L313.262 16.698L313.262 22.788L311.862 22.788L311.862 16.698L310.42 16.698L310.42 15.466L311.862 15.466L311.862 14.822C311.862 13.352 312.716 12.666 314.018 12.666L315.432 12.666L315.432 13.898ZM319.413 22.956C317.369 22.956 315.969 21.57 315.969 19.134C315.969 16.684 317.369 15.298 319.413 15.298C321.457 15.298 322.843 16.684 322.843 19.134C322.843 21.57 321.457 22.956 319.413 22.956ZM319.413 21.71C320.617 21.71 321.415 20.842 321.415 19.134C321.415 17.412 320.617 16.558 319.413 16.558C318.195 16.558 317.411 17.412 317.411 19.134C317.411 20.842 318.195 21.71 319.413 21.71ZM327.438 22.956C325.38 22.956 324.022 21.584 324.022 19.134C324.022 16.67 325.38 15.298 327.438 15.298C329.118 15.298 330.294 16.306 330.518 17.776L329.146 17.776C328.964 16.992 328.306 16.558 327.452 16.558C326.248 16.558 325.464 17.356 325.464 19.134C325.464 20.898 326.234 21.71 327.438 21.71C328.32 21.71 328.992 21.248 329.16 20.478L330.532 20.478C330.308 21.934 329.132 22.956 327.438 22.956ZM334.424 22.956C332.842 22.956 331.862 21.976 331.862 20.366L331.862 15.466L333.262 15.466L333.262 20.114C333.262 21.122 333.836 21.71 334.802 21.71C335.894 21.71 336.552 20.968 336.552 19.792L336.552 15.466L337.952 15.466L337.952 22.788L336.65 22.788L336.65 22.018L336.496 22.018C336.118 22.564 335.404 22.956 334.424 22.956ZM342.298 22.956C340.576 22.956 339.498 22.046 339.386 20.702L340.786 20.702C340.884 21.346 341.416 21.738 342.326 21.738C343.292 21.738 343.782 21.388 343.782 20.73C343.782 20.156 343.404 19.792 342.508 19.708L341.962 19.666C340.212 19.512 339.54 18.616 339.54 17.482C339.54 16.166 340.618 15.298 342.242 15.298C343.936 15.298 344.916 16.124 345 17.37L343.614 17.37C343.516 16.852 343.054 16.53 342.2 16.53C341.388 16.53 340.954 16.852 340.954 17.454C340.954 18.014 341.332 18.336 342.228 18.42L342.732 18.476C344.552 18.644 345.196 19.47 345.196 20.604C345.196 22.032 344.062 22.956 342.298 22.956Z" fill="rgb(28.67,30.012,32.33)" fill-rule="nonzero" />
			<g id="16 / Placeholder" opacity="0" customFrame="url(#clipPath_11)">
				<rect id="16 / Placeholder" width="16.000000" height="16.000008" x="348.000000" y="10.000000" opacity="0" />
				<path id="color" d="M351.486 11C350.113 11 349 12.1128 349 13.4855L349 15.2207C349 15.5849 349.295 15.8801 349.66 15.8801C350.024 15.8801 350.319 15.5849 350.319 15.2207L350.319 13.4855C350.319 12.8412 350.841 12.3188 351.486 12.3188L353.21 12.3188C353.574 12.3188 353.87 12.0236 353.87 11.6594C353.87 11.2952 353.574 11 353.21 11L351.486 11ZM356.258 12.3188C356.623 12.3188 356.918 12.0236 356.918 11.6594C356.918 11.2952 356.623 11 356.258 11L355.742 11C355.377 11 355.082 11.2952 355.082 11.6594C355.082 12.0236 355.377 12.3188 355.742 12.3188L356.258 12.3188ZM363 13.4855C363 12.1128 361.887 11 360.514 11L358.79 11C358.426 11 358.13 11.2952 358.13 11.6594C358.13 12.0236 358.426 12.3188 358.79 12.3188L360.514 12.3188C361.159 12.3188 361.681 12.8412 361.681 13.4855L361.681 15.2207C361.681 15.5849 361.976 15.8801 362.34 15.8801C362.705 15.8801 363 15.5849 363 15.2207L363 13.4855ZM353.971 14.9565C353.411 14.9565 352.957 15.4107 352.957 15.971L352.957 20.029C352.957 20.5893 353.411 21.0435 353.971 21.0435L358.03 21.0435C358.59 21.0435 359.045 20.5893 359.045 20.029L359.045 15.971C359.045 15.4107 358.59 14.9565 358.03 14.9565L353.971 14.9565ZM354.276 19.7246L354.276 16.2754L357.726 16.2754L357.726 19.7246L354.276 19.7246ZM350.319 18.2427L350.319 17.7273C350.319 17.3631 350.024 17.0679 349.66 17.0679C349.295 17.0679 349 17.3631 349 17.7273L349 18.2427C349 18.6069 349.295 18.9021 349.66 18.9021C350.024 18.9021 350.319 18.6069 350.319 18.2427ZM362.34 18.9021C362.705 18.9021 363 18.6069 363 18.2427L363 17.7273C363 17.3631 362.705 17.0679 362.34 17.0679C361.976 17.0679 361.681 17.3631 361.681 17.7273L361.681 18.2427C361.681 18.6069 361.976 18.9021 362.34 18.9021ZM349 22.5145C349 23.8872 350.113 25 351.486 25L353.21 25C353.574 25 353.87 24.7048 353.87 24.3406C353.87 23.9764 353.574 23.6812 353.21 23.6812L351.486 23.6812C350.841 23.6812 350.319 23.1588 350.319 22.5145L350.319 20.7793C350.319 20.4151 350.024 20.1199 349.66 20.1199C349.295 20.1199 349 20.4151 349 20.7793L349 22.5145ZM360.514 25C361.887 25 363 23.8872 363 22.5145L363 20.7793C363 20.4151 362.705 20.1199 362.34 20.1199C361.976 20.1199 361.681 20.4151 361.681 20.7793L361.681 22.5145C361.681 23.1588 361.159 23.6812 360.514 23.6812L358.79 23.6812C358.426 23.6812 358.13 23.9764 358.13 24.3406C358.13 24.7048 358.426 25 358.79 25L360.514 25ZM356.918 24.3406C356.918 23.9764 356.623 23.6812 356.258 23.6812L355.742 23.6812C355.377 23.6812 355.082 23.9764 355.082 24.3406C355.082 24.7048 355.377 25 355.742 25L356.258 25C356.623 25 356.918 24.7048 356.918 24.3406Z" fill="rgb(28.67,30.012,32.33)" fill-rule="evenodd" />
			</g>
		</g>
		<rect id="🔄 children" width="79.000000" height="31.000000" x="288.500000" y="2.500000" rx="7.500000" stroke="rgb(183.6,189.21,198.9)" stroke-width="1" data-pixso-skip-parse="true" />
	</g>
	<g id="🔄 children" customFrame="url(#clipPath_12)">
		<rect id="🔄 children" width="80.000000" height="32.000000" x="384.000000" y="2.000000" rx="8.000000" fill="rgb(6.5025,29.784,69.9975)" fill-opacity="0.0500000007" />
		<rect id="🔄 children" width="79.000000" height="31.000000" x="384.500000" y="2.500000" rx="7.500000" stroke="rgb(6.5025,29.784,69.9975)" stroke-opacity="0.0500000007" stroke-width="1" />
		<g id="16 / Placeholder" opacity="0" customFrame="url(#clipPath_13)">
			<rect id="16 / Placeholder" width="16.000000" height="16.000000" x="396.000000" y="10.000000" opacity="0" />
			<path id="color" d="M399.486 11C398.113 11 397 12.1128 397 13.4855L397 15.2207C397 15.5849 397.295 15.8801 397.66 15.8801C398.024 15.8801 398.319 15.5849 398.319 15.2207L398.319 13.4855C398.319 12.8412 398.841 12.3188 399.486 12.3188L401.21 12.3188C401.574 12.3188 401.87 12.0236 401.87 11.6594C401.87 11.2952 401.574 11 401.21 11L399.486 11ZM404.258 12.3188C404.623 12.3188 404.918 12.0236 404.918 11.6594C404.918 11.2952 404.623 11 404.258 11L403.742 11C403.377 11 403.082 11.2952 403.082 11.6594C403.082 12.0236 403.377 12.3188 403.742 12.3188L404.258 12.3188ZM411 13.4855C411 12.1128 409.887 11 408.514 11L406.79 11C406.426 11 406.13 11.2952 406.13 11.6594C406.13 12.0236 406.426 12.3188 406.79 12.3188L408.514 12.3188C409.159 12.3188 409.681 12.8412 409.681 13.4855L409.681 15.2207C409.681 15.5849 409.976 15.8801 410.34 15.8801C410.705 15.8801 411 15.5849 411 15.2207L411 13.4855ZM401.971 14.9565C401.411 14.9565 400.957 15.4107 400.957 15.971L400.957 20.029C400.957 20.5893 401.411 21.0435 401.971 21.0435L406.03 21.0435C406.59 21.0435 407.045 20.5893 407.045 20.029L407.045 15.971C407.045 15.4107 406.59 14.9565 406.03 14.9565L401.971 14.9565ZM402.276 19.7246L402.276 16.2754L405.726 16.2754L405.726 19.7246L402.276 19.7246ZM398.319 18.2427L398.319 17.7273C398.319 17.3631 398.024 17.0679 397.66 17.0679C397.295 17.0679 397 17.3631 397 17.7273L397 18.2427C397 18.6069 397.295 18.9021 397.66 18.9021C398.024 18.9021 398.319 18.6069 398.319 18.2427ZM410.34 18.9021C410.705 18.9021 411 18.6069 411 18.2427L411 17.7273C411 17.3631 410.705 17.0679 410.34 17.0679C409.976 17.0679 409.681 17.3631 409.681 17.7273L409.681 18.2427C409.681 18.6069 409.976 18.9021 410.34 18.9021ZM397 22.5145C397 23.8872 398.113 25 399.486 25L401.21 25C401.574 25 401.87 24.7048 401.87 24.3406C401.87 23.9764 401.574 23.6812 401.21 23.6812L399.486 23.6812C398.841 23.6812 398.319 23.1588 398.319 22.5145L398.319 20.7793C398.319 20.4151 398.024 20.1199 397.66 20.1199C397.295 20.1199 397 20.4151 397 20.7793L397 22.5145ZM408.514 25C409.887 25 411 23.8872 411 22.5145L411 20.7793C411 20.4151 410.705 20.1199 410.34 20.1199C409.976 20.1199 409.681 20.4151 409.681 20.7793L409.681 22.5145C409.681 23.1588 409.159 23.6812 408.514 23.6812L406.79 23.6812C406.426 23.6812 406.13 23.9764 406.13 24.3406C406.13 24.7048 406.426 25 406.79 25L408.514 25ZM404.918 24.3406C404.918 23.9764 404.623 23.6812 404.258 23.6812L403.742 23.6812C403.377 23.6812 403.082 23.9764 403.082 24.3406C403.082 24.7048 403.377 25 403.742 25L404.258 25C404.623 25 404.918 24.7048 404.918 24.3406Z" fill="rgb(143.82,150.552,162.18)" fill-rule="evenodd" />
		</g>
		<path id="Text" d="M402.993 12.9204L404.391 12.9204L404.391 23L403.075 23L403.075 22.0635L402.922 22.0635C402.698 22.4258 402.402 22.7004 402.033 22.8872C401.666 23.0741 401.24 23.1675 400.755 23.1675C399.793 23.1675 399.03 22.8314 398.465 22.1592C397.899 21.487 397.617 20.5493 397.617 19.3462C397.617 18.1317 397.904 17.1895 398.478 16.5195C399.052 15.8473 399.829 15.5112 400.809 15.5112C401.753 15.5112 402.481 15.8701 402.993 16.5879L402.993 12.9204ZM401.018 21.9233C401.635 21.9233 402.118 21.7046 402.467 21.2671C402.818 20.8273 402.993 20.187 402.993 19.3462C402.993 18.4963 402.82 17.8548 402.474 17.4219C402.13 16.9867 401.644 16.769 401.018 16.769C400.403 16.769 399.922 16.9889 399.575 17.4287C399.231 17.8662 399.059 18.5054 399.059 19.3462C399.059 20.187 399.231 20.8273 399.575 21.2671C399.922 21.7046 400.403 21.9233 401.018 21.9233ZM407.739 23L406.338 23L406.338 15.6787L407.739 15.6787L407.739 23ZM407.807 14.3628L406.283 14.3628L406.283 12.9341L407.807 12.9341L407.807 14.3628ZM412.078 23.1675C411.228 23.1675 410.545 22.9624 410.027 22.5522C409.51 22.1421 409.223 21.5964 409.166 20.915L410.567 20.915C410.613 21.2409 410.769 21.495 411.036 21.6772C411.302 21.8595 411.659 21.9507 412.106 21.9507C412.591 21.9507 412.954 21.8641 413.196 21.6909C413.44 21.5177 413.562 21.2682 413.562 20.9424C413.562 20.3454 413.138 20.0047 412.29 19.9204L411.743 19.8794C410.912 19.8042 410.3 19.5729 409.908 19.1855C409.516 18.7982 409.32 18.3014 409.32 17.6953C409.32 17.0413 409.567 16.5138 410.062 16.1128C410.556 15.7118 411.21 15.5112 412.024 15.5112C412.853 15.5112 413.508 15.6981 413.989 16.0718C414.47 16.4432 414.734 16.9468 414.782 17.5825L413.394 17.5825C413.349 17.3205 413.206 17.1154 412.967 16.9673C412.73 16.8169 412.402 16.7417 411.983 16.7417C411.579 16.7417 411.27 16.8215 411.056 16.981C410.842 17.1382 410.735 17.366 410.735 17.6646C410.735 17.9448 410.837 18.167 411.043 18.3311C411.248 18.4951 411.57 18.5954 412.01 18.6318L412.512 18.6865C414.155 18.8369 414.977 19.5467 414.977 20.8159C414.977 21.5337 414.712 22.1056 414.184 22.5317C413.657 22.9556 412.955 23.1675 412.078 23.1675ZM419.165 15.5112C420.042 15.5112 420.73 15.7254 421.229 16.1538C421.728 16.5822 421.978 17.1792 421.978 17.9448L421.978 23L420.675 23L420.675 22.3403L420.522 22.3403C420.25 22.6024 419.935 22.8063 419.575 22.9521C419.217 23.0957 418.827 23.1675 418.406 23.1675C417.64 23.1675 417.041 22.9578 416.608 22.5386C416.175 22.1193 415.959 21.5633 415.959 20.8706C415.959 20.1528 416.195 19.5911 416.669 19.1855C417.146 18.7799 417.804 18.5771 418.645 18.5771L420.576 18.5771L420.576 17.9756C420.576 17.5837 420.452 17.2806 420.204 17.0664C419.958 16.8499 419.605 16.7417 419.147 16.7417C418.71 16.7417 418.36 16.8328 418.098 17.0151C417.838 17.1974 417.685 17.4469 417.637 17.7637L416.252 17.7637C416.325 17.0824 416.618 16.5366 417.131 16.1265C417.646 15.7163 418.324 15.5112 419.165 15.5112ZM418.631 21.978C418.996 21.978 419.346 21.9062 419.681 21.7627C420.018 21.6169 420.316 21.3993 420.576 21.1099L420.576 19.6812L418.772 19.6812C418.323 19.6812 417.976 19.7769 417.732 19.9683C417.491 20.1597 417.37 20.4422 417.37 20.8159C417.37 21.1805 417.48 21.4653 417.698 21.6704C417.919 21.8755 418.23 21.978 418.631 21.978ZM427.466 15.5112C428.437 15.5112 429.208 15.8473 429.78 16.5195C430.355 17.1895 430.642 18.1317 430.642 19.3462C430.642 20.5493 430.359 21.487 429.794 22.1592C429.231 22.8314 428.474 23.1675 427.521 23.1675C426.541 23.1675 425.813 22.7995 425.337 22.0635L425.183 22.0635L425.183 23L423.867 23L423.867 12.9204L425.269 12.9204L425.269 16.5879C425.781 15.8701 426.514 15.5112 427.466 15.5112ZM427.241 21.9233C427.856 21.9233 428.339 21.7046 428.69 21.2671C429.041 20.8273 429.216 20.187 429.216 19.3462C429.216 18.4963 429.043 17.8548 428.697 17.4219C428.351 16.9867 427.865 16.769 427.241 16.769C426.616 16.769 426.131 16.9867 425.785 17.4219C425.441 17.8548 425.269 18.4963 425.269 19.3462C425.269 20.187 425.443 20.8273 425.792 21.2671C426.143 21.7046 426.626 21.9233 427.241 21.9233ZM433.641 23L432.239 23L432.239 12.9204L433.641 12.9204L433.641 23ZM442.01 19.7803L436.678 19.7803C436.798 21.2272 437.489 21.9507 438.749 21.9507C439.189 21.9507 439.565 21.8641 439.877 21.6909C440.189 21.5177 440.392 21.2682 440.485 20.9424L441.87 20.9424C441.74 21.6146 441.388 22.1535 440.813 22.5591C440.239 22.9647 439.542 23.1675 438.722 23.1675C437.657 23.1675 436.812 22.8314 436.185 22.1592C435.561 21.487 435.249 20.5493 435.249 19.3462C435.249 18.5441 435.394 17.8537 435.683 17.2749C435.972 16.6961 436.378 16.2575 436.9 15.959C437.424 15.6605 438.031 15.5112 438.722 15.5112C439.364 15.5112 439.935 15.6536 440.434 15.9385C440.935 16.221 441.323 16.6221 441.596 17.1416C441.872 17.6589 442.01 18.2581 442.01 18.9395L442.01 19.7803ZM438.722 16.728C438.161 16.728 437.708 16.8921 437.361 17.2202C437.017 17.5461 436.798 18.0303 436.705 18.6729L440.653 18.6729C440.634 18.0576 440.452 17.5802 440.106 17.2407C439.762 16.8989 439.3 16.728 438.722 16.728ZM448.563 12.9204L449.961 12.9204L449.961 23L448.645 23L448.645 22.0635L448.492 22.0635C448.268 22.4258 447.972 22.7004 447.603 22.8872C447.236 23.0741 446.81 23.1675 446.325 23.1675C445.363 23.1675 444.6 22.8314 444.035 22.1592C443.469 21.487 443.187 20.5493 443.187 19.3462C443.187 18.1317 443.474 17.1895 444.048 16.5195C444.622 15.8473 445.399 15.5112 446.379 15.5112C447.323 15.5112 448.051 15.8701 448.563 16.5879L448.563 12.9204ZM446.588 21.9233C447.205 21.9233 447.688 21.7046 448.037 21.2671C448.388 20.8273 448.563 20.187 448.563 19.3462C448.563 18.4963 448.39 17.8548 448.044 17.4219C447.7 16.9867 447.214 16.769 446.588 16.769C445.973 16.769 445.492 16.9889 445.145 17.4287C444.801 17.8662 444.629 18.5054 444.629 19.3462C444.629 20.187 444.801 20.8273 445.145 21.2671C445.492 21.7046 445.973 21.9233 446.588 21.9233Z" fill="rgb(143.82,150.552,162.18)" fill-rule="nonzero" />
		<g id="16 / Placeholder" opacity="0" customFrame="url(#clipPath_14)">
			<rect id="16 / Placeholder" width="16.000000" height="16.000000" x="464.000000" y="10.000000" opacity="0" />
			<path id="color" d="M467.486 11C466.113 11 465 12.1128 465 13.4855L465 15.2207C465 15.5849 465.295 15.8801 465.66 15.8801C466.024 15.8801 466.319 15.5849 466.319 15.2207L466.319 13.4855C466.319 12.8412 466.841 12.3188 467.486 12.3188L469.21 12.3188C469.574 12.3188 469.87 12.0236 469.87 11.6594C469.87 11.2952 469.574 11 469.21 11L467.486 11ZM472.258 12.3188C472.623 12.3188 472.918 12.0236 472.918 11.6594C472.918 11.2952 472.623 11 472.258 11L471.742 11C471.377 11 471.082 11.2952 471.082 11.6594C471.082 12.0236 471.377 12.3188 471.742 12.3188L472.258 12.3188ZM479 13.4855C479 12.1128 477.887 11 476.514 11L474.79 11C474.426 11 474.13 11.2952 474.13 11.6594C474.13 12.0236 474.426 12.3188 474.79 12.3188L476.514 12.3188C477.159 12.3188 477.681 12.8412 477.681 13.4855L477.681 15.2207C477.681 15.5849 477.976 15.8801 478.34 15.8801C478.705 15.8801 479 15.5849 479 15.2207L479 13.4855ZM469.971 14.9565C469.411 14.9565 468.957 15.4107 468.957 15.971L468.957 20.029C468.957 20.5893 469.411 21.0435 469.971 21.0435L474.03 21.0435C474.59 21.0435 475.045 20.5893 475.045 20.029L475.045 15.971C475.045 15.4107 474.59 14.9565 474.03 14.9565L469.971 14.9565ZM470.276 19.7246L470.276 16.2754L473.726 16.2754L473.726 19.7246L470.276 19.7246ZM466.319 18.2427L466.319 17.7273C466.319 17.3631 466.024 17.0679 465.66 17.0679C465.295 17.0679 465 17.3631 465 17.7273L465 18.2427C465 18.6069 465.295 18.9021 465.66 18.9021C466.024 18.9021 466.319 18.6069 466.319 18.2427ZM478.34 18.9021C478.705 18.9021 479 18.6069 479 18.2427L479 17.7273C479 17.3631 478.705 17.0679 478.34 17.0679C477.976 17.0679 477.681 17.3631 477.681 17.7273L477.681 18.2427C477.681 18.6069 477.976 18.9021 478.34 18.9021ZM465 22.5145C465 23.8872 466.113 25 467.486 25L469.21 25C469.574 25 469.87 24.7048 469.87 24.3406C469.87 23.9764 469.574 23.6812 469.21 23.6812L467.486 23.6812C466.841 23.6812 466.319 23.1588 466.319 22.5145L466.319 20.7793C466.319 20.4151 466.024 20.1199 465.66 20.1199C465.295 20.1199 465 20.4151 465 20.7793L465 22.5145ZM476.514 25C477.887 25 479 23.8872 479 22.5145L479 20.7793C479 20.4151 478.705 20.1199 478.34 20.1199C477.976 20.1199 477.681 20.4151 477.681 20.7793L477.681 22.5145C477.681 23.1588 477.159 23.6812 476.514 23.6812L474.79 23.6812C474.426 23.6812 474.13 23.9764 474.13 24.3406C474.13 24.7048 474.426 25 474.79 25L476.514 25ZM472.918 24.3406C472.918 23.9764 472.623 23.6812 472.258 23.6812L471.742 23.6812C471.377 23.6812 471.082 23.9764 471.082 24.3406C471.082 24.7048 471.377 25 471.742 25L472.258 25C472.623 25 472.918 24.7048 472.918 24.3406Z" fill="rgb(143.82,150.552,162.18)" fill-rule="evenodd" />
		</g>
	</g>
</svg>
