<svg width="80" height="32" viewBox="0 0 80 32" fill="none" xmlns="http://www.w3.org/2000/svg">
<path d="M0 8C0 3.58172 3.58172 0 8 0H72C76.4183 0 80 3.58172 80 8V24C80 28.4183 76.4183 32 72 32H8C3.58172 32 0 28.4183 0 24V8Z" fill="black" fill-opacity="0.01"/>
<path d="M21.3867 13.678V14.91H19.3007V18.662C19.3007 19.376 19.6087 19.726 20.3787 19.726H21.3307V21H20.0567C18.7407 21 17.9007 20.314 17.9007 18.844V14.91H16.4727V13.678H17.9007V11.858H19.3007V13.678H21.3867ZM28.975 16.94V17.78H23.641C23.767 19.264 24.495 19.95 25.713 19.95C26.581 19.95 27.253 19.6 27.449 18.942H28.835C28.569 20.286 27.337 21.168 25.685 21.168C23.599 21.168 22.213 19.796 22.213 17.346C22.213 14.882 23.627 13.51 25.685 13.51C27.631 13.51 28.975 14.868 28.975 16.94ZM25.685 14.728C24.593 14.728 23.851 15.358 23.669 16.674H27.617C27.575 15.414 26.819 14.728 25.685 14.728ZM31.9064 21H30.5064V13.678H31.8224V14.476H31.9764C32.2424 13.958 32.7884 13.58 33.6704 13.58H34.5244V14.91H33.6424C32.4524 14.91 31.9064 15.652 31.9064 16.87V21ZM40.0078 13.678V14.91H37.9218V18.662C37.9218 19.376 38.2298 19.726 38.9998 19.726H39.9518V21H38.6778C37.3618 21 36.5218 20.314 36.5218 18.844V14.91H35.0938V13.678H36.5218V11.858H37.9218V13.678H40.0078ZM42.7908 12.362H41.2648V10.934H42.7908V12.362ZM42.7208 21H41.3208V13.678H42.7208V21ZM47.4017 13.51C49.1657 13.51 50.2157 14.42 50.2157 15.946V21H48.9137V20.342H48.7597C48.2277 20.86 47.4997 21.168 46.6457 21.168C45.0917 21.168 44.1957 20.23 44.1957 18.872C44.1957 17.444 45.1897 16.576 46.8837 16.576H48.8157V15.974C48.8157 15.19 48.2977 14.742 47.3877 14.742C46.5057 14.742 45.9737 15.134 45.8757 15.764H44.4897C44.6297 14.42 45.7077 13.51 47.4017 13.51ZM46.8697 19.978C47.5697 19.978 48.2837 19.698 48.8157 19.11V17.682H47.0097C46.1137 17.682 45.6097 18.074 45.6097 18.816C45.6097 19.544 46.0577 19.978 46.8697 19.978ZM53.4396 21H52.0396V13.678H53.3556V14.476H53.5096C53.7756 13.958 54.3216 13.58 55.2036 13.58H56.0576V14.91H55.1756C53.9856 14.91 53.4396 15.652 53.4396 16.87V21ZM60.4415 17.78L62.0935 13.678H63.5495L59.3495 23.66H57.8795L59.3215 20.342L56.3255 13.678H57.8515L59.5875 17.78C59.6995 18.032 59.8535 18.396 59.9515 18.662H60.1055C60.2035 18.396 60.3295 18.032 60.4415 17.78Z" fill="#1D1E20"/>
</svg>
