<svg width="48" height="48" viewBox="0 0 48 48" fill="none" xmlns="http://www.w3.org/2000/svg">
<path fill-rule="evenodd" clip-rule="evenodd" d="M28 34H46V2H40V0H34V2H14V0H8V2H2V34H20V42H18V41H16V42H14V48H34V42H32V41H30V42H28V34ZM36 2H38V4H36V2ZM10 2H12V4H10V2ZM4 32V4H8V6H14V4H34V6H40V4H44V32H4ZM22 34H26V42H22V34ZM32 44V46H16V44H32ZM24 19.41L18.71 24.71L17.29 23.29L22.59 18L17.29 12.71L18.71 11.29L24 16.59L29.29 11.29L30.71 12.71L25.41 18L30.71 23.29L29.29 24.71L24 19.41Z"  fill="currentColor"/>
</svg>
