<svg width="48" height="48" viewBox="0 0 48 48" fill="none" xmlns="http://www.w3.org/2000/svg">
<path fill-rule="evenodd" clip-rule="evenodd" d="M27.1057 17.9069C26.5535 17.9069 26.1057 18.3546 26.1057 18.9069V29.3643C26.1057 29.9166 26.5535 30.3643 27.1057 30.3643H35.9286C36.4809 30.3643 36.9286 29.9166 36.9286 29.3643V22.6814C36.9286 22.4578 36.8537 22.2407 36.7158 22.0647L33.7585 18.2901C33.5689 18.0482 33.2787 17.9069 32.9713 17.9069H27.1057ZM31.8223 22.1058V19.9069H28.1057V28.3643H34.9286V23.1058H32.8223C32.27 23.1058 31.8223 22.6581 31.8223 22.1058Z" fill="currentColor"/>
<path fill-rule="evenodd" clip-rule="evenodd" d="M7.23835 0.0410083C7.78555 0.115789 8.16852 0.620004 8.09373 1.1672C7.96041 2.14278 8.01872 3.18118 8.26608 4.2121H21.3559C21.9082 4.2121 22.3559 4.65981 22.3559 5.2121C22.3559 5.76438 21.9082 6.2121 21.3559 6.2121H8.99656C9.72642 7.67488 10.8646 9.02082 12.4029 10.0237C14.2188 11.2075 15.9967 12.2014 17.6711 13.1353L17.7513 13.1801C19.0993 13.9319 20.3936 14.6537 21.5556 15.3975C23.9748 12.8061 27.4212 11.186 31.2459 11.186C38.5658 11.186 44.4997 17.1199 44.4997 24.4398C44.4997 28.2076 42.9275 31.6082 40.4032 34.0214L47.559 41.1771C47.9495 41.5676 47.9495 42.2008 47.559 42.5913C47.1684 42.9818 46.5353 42.9818 46.1447 42.5913L38.85 35.2966C36.6975 36.807 34.0752 37.6936 31.2459 37.6936C24.3605 37.6936 18.7014 32.4431 18.0539 25.7274L11.0746 25.7275C10.5223 25.7275 10.0746 25.2797 10.0746 24.7275C10.0746 24.1752 10.5223 23.7275 11.0746 23.7275L18.0109 23.7274C18.1433 21.2277 18.9684 18.9116 20.2977 16.9677C19.2348 16.2975 18.0379 15.63 16.7254 14.8979L16.6968 14.882C15.0271 13.9507 13.1921 12.9257 11.3107 11.6991C7.40725 9.1543 5.58847 4.72834 6.11215 0.896396C6.18694 0.349197 6.69115 -0.0337729 7.23835 0.0410083ZM19.9921 24.4398C19.9921 18.2245 25.0306 13.186 31.2459 13.186C37.4612 13.186 42.4997 18.2245 42.4997 24.4398C42.4997 30.6551 37.4612 35.6936 31.2459 35.6936C25.0306 35.6936 19.9921 30.6551 19.9921 24.4398Z" fill="currentColor"/>
<path d="M26.2309 0.0566032C26.7818 0.0167822 27.2606 0.431051 27.3004 0.981898C27.5123 3.91246 26.4113 6.51666 25.0255 8.51121C23.6456 10.4974 21.9199 11.9722 20.7084 12.6602C20.2282 12.9329 19.6178 12.7647 19.345 12.2844C19.0723 11.8042 19.2405 11.1938 19.7208 10.9211C20.65 10.3933 22.1588 9.1321 23.3831 7.37006C24.6015 5.61638 25.4743 3.46013 25.3056 1.1261C25.2658 0.575255 25.6801 0.0964242 26.2309 0.0566032Z" fill="currentColor"/>
<path fill-rule="evenodd" clip-rule="evenodd" d="M13.2304 16.6782C13.6908 16.3732 13.8168 15.7527 13.5118 15.2923C13.2068 14.8319 12.5863 14.7059 12.1259 15.0109C10.9947 15.7603 9.37674 17.0974 8.09627 18.8411C6.8181 20.5818 5.80556 22.8285 6.09952 25.3455C6.45277 28.3702 7.86744 30.3279 9.78159 31.8334C11.131 32.8947 12.7894 33.7674 14.4498 34.6413C15.0381 34.9508 15.6271 35.2609 16.2023 35.5791C19.5319 37.4219 21.3335 38.4868 22.4994 39.5151C23.3673 40.2805 23.8915 41.0339 24.4192 42.1788H12.2533C11.701 42.1788 11.2533 42.6265 11.2533 43.1788C11.2533 43.7311 11.701 44.1788 12.2533 44.1788H25.1809C25.3554 44.823 25.4308 45.3899 25.4591 45.8342C25.4801 46.1653 25.4749 46.4267 25.4653 46.599C25.4605 46.685 25.4547 46.7485 25.4506 46.787L25.4492 46.7996L25.4461 46.8256L25.4459 46.8269L25.4455 46.8296C25.3648 47.3735 25.7388 47.8811 26.283 47.9646C26.8289 48.0484 27.3394 47.6738 27.4231 47.1279L26.4347 46.9762C27.4231 47.1279 27.4231 47.1282 27.4231 47.1279L27.4234 47.1264L27.4236 47.1248L27.4242 47.1211L27.4255 47.1117L27.4292 47.0847C27.432 47.0632 27.4355 47.0346 27.4392 46.9994C27.4468 46.929 27.4555 46.8316 27.4622 46.71C27.4757 46.4668 27.4816 46.1256 27.455 45.7073C27.4019 44.8714 27.2185 43.7217 26.7018 42.4337C25.9468 40.5515 25.2533 39.277 23.8223 38.0151C22.4596 36.8133 20.4454 35.6416 17.1707 33.8293C16.497 33.4564 15.8487 33.1151 15.2279 32.7883C13.629 31.9466 12.2129 31.2011 11.018 30.2613C9.44566 29.0247 8.36707 27.52 8.08602 25.1135C7.87255 23.2857 8.59554 21.5403 9.70833 20.0249C10.8188 18.5126 12.2473 17.3296 13.2304 16.6782Z" fill="currentColor"/>
<path d="M13.7082 36.2818C13.9871 36.7584 13.8269 37.371 13.3502 37.6499C8.29754 40.6069 7.80362 45.0635 8.06102 46.8379C8.1403 47.3845 7.7615 47.8918 7.21493 47.9711C6.66837 48.0504 6.16102 47.6716 6.08173 47.125C5.73063 44.7046 6.45498 39.3679 12.34 35.9238C12.8167 35.6448 13.4292 35.8051 13.7082 36.2818Z" fill="currentColor"/>
</svg>
