<svg
  width="48"
  height="48"
  viewBox="0 0 48 48"
  fill="currentColor"
  xmlns="http://www.w3.org/2000/svg"
>
  <path
    d="M1 0C0.447715 0 0 0.447715 0 1C0 1.55228 0.447715 2 1 2C25.8528 2 46 22.1472 46 47C46 47.5523 46.4477 48 47 48C47.5523 48 48 47.5523 48 47C48 21.0426 26.9574 0 1 0Z"
  />
  <path
    d="M0 12C0 11.4477 0.447715 11 1 11C20.8823 11 37 27.1177 37 47C37 47.5523 36.5523 48 36 48C35.4477 48 35 47.5523 35 47C35 28.2223 19.7777 13 1 13C0.447715 13 0 12.5523 0 12Z"
  />
  <path
    d="M1 22C0.447715 22 0 22.4477 0 23C0 23.5523 0.447715 24 1 24C13.7026 24 24 34.2975 24 47C24 47.5523 24.4477 48 25 48C25.5523 48 26 47.5523 26 47C26 33.1929 14.8071 22 1 22Z"
  />
  <path
    fill-rule="evenodd"
    clip-rule="evenodd"
    d="M7 48C10.866 48 14 44.866 14 41C14 37.134 10.866 34 7 34C3.13401 34 0 37.134 0 41C0 44.866 3.13401 48 7 48ZM12 41C12 43.7614 9.76142 46 7 46C4.23858 46 2 43.7614 2 41C2 38.2386 4.23858 36 7 36C9.76142 36 12 38.2386 12 41Z"
  />
</svg>
