<svg width="48" height="48" viewBox="0 0 48 48" fill="none" xmlns="http://www.w3.org/2000/svg">
<path fill-rule="evenodd" clip-rule="evenodd" d="M45 22H39V6.59L32.41 0H9V22H3C1.34315 22 0 23.3431 0 25V37C0 38.6569 1.34315 40 3 40H7V38H3C2.44772 38 2 37.5523 2 37V30H46V37C46 37.5523 45.5523 38 45 38H41V40H45C46.6569 40 48 38.6569 48 37V25C48 23.3431 46.6569 22 45 22ZM33 3.41L35.59 6H33V3.41ZM11 2H31V8H37V22H11V2ZM2 28V25C2 24.4477 2.44772 24 3 24H45C45.5523 24 46 24.4477 46 25V28H2ZM41 35H39V48H37V35H35V48H33V35H31V48H29V35H27V48H25V35H23V48H21V35H19V48H17V35H15V48H13V35H11V48H9V35H7V33H41V35ZM27 8H21V6H27V8ZM15 11H33V13H15V11ZM15 14H33V16H15V14ZM15 17H33V19H15V17ZM4 25H6V27H4V25ZM7 25H9V27H7V25Z"  fill="currentColor"/>
</svg>
