<svg width="48" height="48" viewBox="0 0 48 48" fill="none" xmlns="http://www.w3.org/2000/svg">
<path d="M13.9999 21C13.4477 21 12.9999 21.4477 12.9999 22C12.9999 22.5523 13.4477 23 13.9999 23H27.9999C28.5522 23 28.9999 22.5523 28.9999 22C28.9999 21.4477 28.5522 21 27.9999 21H13.9999Z" fill="currentColor"/>
<path d="M12.9999 28C12.9999 27.4477 13.4477 27 13.9999 27H22.9999C23.5522 27 23.9999 27.4477 23.9999 28C23.9999 28.5523 23.5522 29 22.9999 29H13.9999C13.4477 29 12.9999 28.5523 12.9999 28Z" fill="currentColor"/>
<path fill-rule="evenodd" clip-rule="evenodd" d="M5.94043 7.0061C5.94043 4.24121 8.17902 2 10.9404 2H27.4099C28.6864 2 29.9145 2.48877 30.8426 3.36621L38.4325 10.541C39.4329 11.4868 40 12.8035 40 14.1812L39.9404 40C39.9404 42.7649 37.7018 45.0061 34.9404 45.0061H10.9404C8.17902 45.0061 5.94043 42.7649 5.94043 40V7.0061ZM34.9404 43.0037H10.9404C9.28357 43.0037 7.94043 41.6589 7.94043 40V7.0061C7.94043 5.34717 9.28357 4.00244 10.9404 4.00244H27V10.9526C27 13.1646 28.7908 14.9575 31 14.9575H38L37.9404 40C37.9404 41.6589 36.5973 43.0037 34.9404 43.0037ZM29 10.9526V4.45898C29.1669 4.56348 29.3243 4.68481 29.4695 4.82202L37.0595 11.9971C37.3497 12.2715 37.5791 12.5977 37.7387 12.9551H31C29.8954 12.9551 29 12.0586 29 10.9526Z" fill="currentColor"/>
</svg>
