<svg width="48" height="48" viewBox="0 0 48 48" fill="none" xmlns="http://www.w3.org/2000/svg">
<path fill-rule="evenodd" clip-rule="evenodd" d="M48 8.99569V17.9957H39V15.9957H44.48C40.8189 6.65787 31.3056 0.978336 21.3487 2.18616C11.3918 3.39398 3.51229 11.1834 2.19 21.1257L0.19 20.8657C1.59931 10.171 9.97067 1.73063 20.6534 0.233515C31.3361 -1.2636 41.7051 4.55045 46 14.4457V8.99569H48ZM24 45.9957C14.9353 46.0126 6.79521 40.4481 3.52 31.9957H9V29.9957H0V38.9957H2V33.5457C6.30522 43.4215 16.6637 49.2183 27.3327 47.7224C38.0017 46.2266 46.3667 37.8046 47.79 27.1257L45.79 26.8657C44.3301 37.7929 35.0243 45.9628 24 45.9957Z"  fill="currentColor"/>
</svg>
