<svg
  width="48"
  height="48"
  viewBox="0 0 48 48"
  fill="currentColor"
  xmlns="http://www.w3.org/2000/svg"
>
  <path
    fill-rule="evenodd"
    clip-rule="evenodd"
    d="M47.431 35.515L29.404 17.494C29.553 16.6 29.619 15.692 29.6 14.785C29.595 6.619 22.971 0 14.8 0C6.626 0 0 6.624 0 14.794C0 22.964 6.626 29.588 14.799 29.589C16.072 29.591 17.339 29.427 18.568 29.102L20.436 30.91C20.798 31.257 21.279 31.45 21.779 31.447H23.92V35.045C23.92 36.105 24.78 36.965 25.84 36.965H29.44V40.563C29.44 41.623 30.3 42.482 31.36 42.482H34.96V46.081C34.96 47.14 35.821 48 36.88 48H46.08C47.14 48 48 47.139 48 46.081V36.884C48.003 36.369 47.803 35.879 47.431 35.515ZM46 36.912V46H36.96V40.482H31.44V34.965H25.92V29.447H21.801L19.119 26.852L18.554 27.026C17.338 27.401 16.073 27.591 14.801 27.589C7.73099 27.589 2 21.86 2 14.794C2 7.728 7.731 2 14.8 2C21.869 2 27.6 7.728 27.6 14.794C27.621 15.749 27.535 16.703 27.345 17.628L27.236 18.156L46 36.912ZM27.707 23.707C27.317 24.098 27.317 24.731 27.707 25.121L39.021 36.435C39.411 36.826 40.045 36.826 40.435 36.435C40.826 36.045 40.826 35.411 40.435 35.021L29.121 23.707C28.731 23.317 28.098 23.317 27.707 23.707ZM23.107 16.021C23.497 15.631 23.497 14.998 23.107 14.607C22.716 14.216 22.083 14.216 21.692 14.607L14.621 21.678C14.231 22.069 14.231 22.702 14.621 23.092C15.012 23.483 15.645 23.483 16.035 23.092L23.107 16.021ZM20.192 11.707C20.583 12.098 20.583 12.731 20.192 13.121L13.121 20.193C12.731 20.583 12.098 20.583 11.707 20.193C11.317 19.802 11.317 19.169 11.707 18.778L18.778 11.707C19.169 11.317 19.802 11.317 20.192 11.707ZM11 15C13.209 15 15 13.209 15 11C15 8.791 13.209 7 11 7C8.79099 7 6.99999 8.791 6.99999 11C6.99999 13.209 8.79099 15 11 15ZM13 11C13 12.105 12.105 13 11 13C9.89499 13 8.99999 12.105 8.99999 11C8.99999 9.895 9.89499 9 11 9C12.105 9 13 9.895 13 11Z"
  />
</svg>
