<svg
  width="48"
  height="48"
  viewBox="0 0 48 48"
  fill="currentColor"
  xmlns="http://www.w3.org/2000/svg"
>
  <path
    d="M35 7C35 6.44772 35.4477 6 36 6C36.5523 6 37 6.44772 37 7V13C37 13.5523 36.5523 14 36 14C35.4477 14 35 13.5523 35 13V7Z"
  />
  <path
    d="M35 16C35 15.4477 35.4477 15 36 15C36.5523 15 37 15.4477 37 16C37 16.5523 36.5523 17 36 17C35.4477 17 35 16.5523 35 16Z"
  />
  <path
    fill-rule="evenodd"
    clip-rule="evenodd"
    d="M40.1235 1H32.057C31.0138 1 30.0507 1.57702 29.5333 2.51195L25.3827 10.0119C24.8724 10.9341 24.8724 12.0659 25.3827 12.9881L29.5333 20.4881C30.0507 21.423 31.0138 22 32.057 22H40.1235C41.1863 22 42.1644 21.4012 42.674 20.4385L46.6441 12.9385C47.1186 12.042 47.1186 10.958 46.6441 10.0615L42.674 2.56151C42.1644 1.59881 41.1863 1 40.1235 1ZM31.2157 3.50398C31.3882 3.19234 31.7092 3 32.057 3H40.1235C40.4778 3 40.8038 3.1996 40.9737 3.5205L44.9438 11.0205C45.102 11.3193 45.102 11.6807 44.9438 11.9795L40.9737 19.4795C40.8038 19.8004 40.4778 20 40.1235 20H32.057C31.7092 20 31.3882 19.8077 31.2157 19.496L27.0652 11.996C26.8951 11.6886 26.8951 11.3114 27.0652 11.004L31.2157 3.50398Z"
  />
  <path
    d="M12 6C11.4477 6 11 6.44772 11 7V13C11 13.5523 11.4477 14 12 14C12.5523 14 13 13.5523 13 13V7C13 6.44772 12.5523 6 12 6Z"
  />
  <path
    d="M12 15C11.4477 15 11 15.4477 11 16C11 16.5523 11.4477 17 12 17C12.5523 17 13 16.5523 13 16C13 15.4477 12.5523 15 12 15Z"
  />
  <path
    fill-rule="evenodd"
    clip-rule="evenodd"
    d="M22.4956 15.811L15.4985 3.18664C13.9755 0.438773 10.0244 0.438757 8.50139 3.18663L1.50425 15.811C0.0265741 18.4771 1.95463 21.7501 5.00281 21.7501H18.9971C22.0453 21.7501 23.9733 18.4771 22.4956 15.811ZM10.2507 4.15618C11.0122 2.78225 12.9877 2.78225 13.7492 4.15619L20.7464 16.7806C21.4852 18.1136 20.5212 19.7501 18.9971 19.7501H5.00281C3.47872 19.7501 2.51469 18.1136 3.25353 16.7806L10.2507 4.15618Z"
  />
  <path
    d="M11 31C11 30.4477 11.4477 30 12 30C12.5523 30 13 30.4477 13 31V37C13 37.5523 12.5523 38 12 38C11.4477 38 11 37.5523 11 37V31Z"
  />
  <path
    d="M11 40C11 39.4477 11.4477 39 12 39C12.5523 39 13 39.4477 13 40C13 40.5523 12.5523 41 12 41C11.4477 41 11 40.5523 11 40Z"
  />
  <path
    fill-rule="evenodd"
    clip-rule="evenodd"
    d="M12 47C18.0751 47 23 42.0751 23 36C23 29.9249 18.0751 25 12 25C5.92487 25 1 29.9249 1 36C1 42.0751 5.92487 47 12 47ZM21 36C21 40.9706 16.9706 45 12 45C7.02944 45 3 40.9706 3 36C3 31.0294 7.02944 27 12 27C16.9706 27 21 31.0294 21 36Z"
  />
  <path
    d="M36 30C35.4477 30 35 30.4477 35 31V37C35 37.5523 35.4477 38 36 38C36.5523 38 37 37.5523 37 37V31C37 30.4477 36.5523 30 36 30Z"
  />
  <path
    d="M36 39C35.4477 39 35 39.4477 35 40C35 40.5523 35.4477 41 36 41C36.5523 41 37 40.5523 37 40C37 39.4477 36.5523 39 36 39Z"
  />
  <path
    fill-rule="evenodd"
    clip-rule="evenodd"
    d="M43 25C45.2091 25 47 26.7909 47 29V43C47 45.2091 45.2091 47 43 47H29C26.7909 47 25 45.2091 25 43V29C25 26.7909 26.7909 25 29 25H43ZM29 27C27.8954 27 27 27.8954 27 29V43C27 44.1046 27.8954 45 29 45H43C44.1046 45 45 44.1046 45 43V29C45 27.8954 44.1046 27 43 27H29Z"
  />
</svg>
