<svg width="48" height="48" viewBox="0 0 48 48" fill="none" xmlns="http://www.w3.org/2000/svg">
<path fill-rule="evenodd" clip-rule="evenodd" d="M15.2142 15.6225C14.6619 15.6225 14.2142 16.0702 14.2142 16.6225V34.6833C14.2142 35.2356 14.6619 35.6833 15.2142 35.6833H30.452C31.0043 35.6833 31.452 35.2356 31.452 34.6833V23.6252C31.452 23.3928 31.3711 23.1677 31.2231 22.9886L25.442 15.9859C25.2521 15.7558 24.9693 15.6225 24.6709 15.6225H15.2142ZM23.7121 17.6225H16.2142V33.6833H29.452V24.6073H24.7121C24.1598 24.6073 23.7121 24.1595 23.7121 23.6073V17.6225ZM28.3149 22.6073L25.7121 19.4546V22.6073H28.3149Z" fill="currentColor" />
<path fill-rule="evenodd" clip-rule="evenodd" d="M25.9999 0C25.4477 0 24.9999 0.447715 24.9999 1V5C24.9999 5.55228 25.4477 6 25.9999 6C26.5522 6 26.9999 5.55228 26.9999 5V2H35.9999V9C35.9999 9.55228 36.4477 10 36.9999 10H42.9999V23H40.9999L40.9801 23.0002C40.3924 19.2344 38.6479 15.6143 35.7465 12.7129C28.47 5.43632 16.6723 5.43632 9.39575 12.7129C2.11918 19.9895 2.11918 31.7871 9.39575 39.0637C16.3074 45.9753 27.2981 46.3219 34.6188 40.1035L42.1203 47.605C42.5109 47.9955 43.144 47.9955 43.5345 47.605C43.9251 47.2145 43.9251 46.5813 43.5345 46.1908L36.0729 38.7292C39.7127 34.9056 41.4161 29.9155 41.1829 25H43.9999C44.5522 25 44.9999 24.5523 44.9999 24V9C44.9999 8.98648 44.9997 8.97298 44.9991 8.95951C44.9906 8.74638 44.9155 8.55042 44.7939 8.39191L38.7999 0.4C38.6111 0.148194 38.3147 0 37.9999 0H25.9999ZM37.9999 8V2.66667L41.9999 8H37.9999ZM34.3323 14.1271C27.8368 7.63158 17.3055 7.63158 10.81 14.1271C4.31445 20.6226 4.31445 31.1539 10.81 37.6495C17.3055 44.145 27.8368 44.145 34.3323 37.6495C40.8279 31.1539 40.8279 20.6226 34.3323 14.1271Z" fill="currentColor" />
<path d="M3.87621 39.5182C3.6101 39.0342 3.00206 38.8576 2.51811 39.1237C2.03416 39.3898 1.85757 39.9979 2.12368 40.4818C3.7767 43.488 6.31907 45.9354 9.39754 47.4702C9.89181 47.7167 10.4922 47.5158 10.7387 47.0215C10.9851 46.5272 10.7842 45.9268 10.2899 45.6804C7.57642 44.3275 5.3337 42.1688 3.87621 39.5182Z" fill="currentColor" />
</svg>
