<svg width="48" height="48" viewBox="0 0 48 48" fill="none" xmlns="http://www.w3.org/2000/svg">
<path fill-rule="evenodd" clip-rule="evenodd" d="M44.69 22H41V24H43.31L45.56 30H31V36H17V30H2.44L4.69 24H7V22H3.31L0 30.82V48H48V30.82L44.69 22ZM2 46V32H15V38H33V32H46V46H2ZM11 2H31V8H37V28H39V6.59L32.41 0H9V28H11V2ZM33 3.41L35.59 6H33V3.41ZM20.47 8L15 13.47V20.53L20.47 26H27.53L33 20.53V13.47L27.53 8H20.47ZM31 19.71L26.7 24H21.3L17 19.71V14.29L21.3 10H26.7L31 14.29V19.71ZM23 12H25V18H23V12ZM23 20H25V22H23V20Z"  fill="currentColor"/>
</svg>
