<svg width="16" height="16" viewBox="0 0 16 16" fill="none" xmlns="http://www.w3.org/2000/svg">
<path fill-rule="evenodd" clip-rule="evenodd" d="M13.1261 13.7928C12.8722 14.0466 12.4607 14.0466 12.2068 13.7928L8.39721 9.98319H6.99975L6.99989 9.99986V13.6665C6.99989 14.2188 6.55217 14.6665 5.99989 14.6665C5.4476 14.6665 4.99989 14.2188 4.99989 13.6665V9.99986L5.00002 9.98319H4.46639C3.11329 9.98319 2.01639 8.88629 2.01639 7.53319V5.79986C2.01639 5.18758 2.24099 4.62775 2.6123 4.19828L0.873487 2.45947C0.619645 2.20563 0.619645 1.79407 0.873487 1.54023C1.12733 1.28639 1.53888 1.28639 1.79272 1.54023L3.71942 3.46581L3.78463 3.53214L13.1261 12.8736C13.3799 13.1274 13.3799 13.539 13.1261 13.7928ZM3.53676 5.12275L7.09721 8.68319H4.46639C3.83126 8.68319 3.31639 8.16832 3.31639 7.53319V5.79986C3.31639 5.54673 3.39818 5.3127 3.53676 5.12275Z" fill="black"/>
<path d="M13.3165 5.33327V3.42946C13.3165 1.99924 11.7629 1.10994 10.5296 1.83421L7.9488 3.34986H5.42854L6.70675 4.64986H7.12259V5.07278L8.64972 6.62595V4.44582L11.188 2.9552C11.5546 2.73988 12.0165 3.00426 12.0165 3.42946V6.44788C12.0056 6.5161 12 6.58605 12 6.65732C12 6.72859 12.0056 6.79855 12.0165 6.86677V10.0501L13.3165 11.3722V7.98137C13.319 7.98139 13.3215 7.98139 13.3241 7.98139C14.0553 7.98139 14.6481 7.38859 14.6481 6.65732C14.6481 5.92606 14.0553 5.33325 13.3241 5.33325C13.3215 5.33325 13.319 5.33326 13.3165 5.33327Z" fill="black"/>
</svg>
