<svg width="16" height="16" viewBox="0 0 16 16" fill="none" xmlns="http://www.w3.org/2000/svg">
<path d="M5.87544 4.55986C6.12928 4.30602 6.54084 4.30602 6.79468 4.55986L8.0001 5.76528L9.20552 4.55986C9.45936 4.30602 9.87092 4.30602 10.1248 4.55986C10.3786 4.8137 10.3786 5.22526 10.1248 5.4791L8.91934 6.68452L10.1246 7.88981C10.3785 8.14365 10.3785 8.55521 10.1246 8.80905C9.87079 9.06289 9.45924 9.06289 9.2054 8.80905L8.0001 7.60375L6.7948 8.80905C6.54096 9.06289 6.1294 9.06289 5.87556 8.80905C5.62172 8.55521 5.62172 8.14365 5.87556 7.88981L7.08086 6.68452L5.87544 5.4791C5.6216 5.22526 5.6216 4.8137 5.87544 4.55986Z" fill="black"/>
<path fill-rule="evenodd" clip-rule="evenodd" d="M8.0001 14.3C7.60637 14.8172 7.60624 14.8171 7.60608 14.817L7.6045 14.8158L7.60079 14.813L7.58795 14.8031L7.54147 14.7668C7.50154 14.7354 7.44412 14.6898 7.3717 14.6308C7.22692 14.513 7.02186 14.3417 6.77658 14.1248C6.28694 13.6918 5.63243 13.0729 4.97591 12.3308C3.69476 10.8826 2.27539 8.82138 2.27539 6.69057C2.27539 3.56519 4.84872 1.05005 8.0001 1.05005C11.1515 1.05005 13.7248 3.56519 13.7248 6.69057C13.7248 8.82138 12.3054 10.8826 11.0243 12.3308C10.3678 13.0729 9.71325 13.6918 9.22361 14.1248C8.97834 14.3417 8.77328 14.513 8.6285 14.6308C8.55608 14.6898 8.49865 14.7354 8.45873 14.7668L8.41224 14.8031L8.39941 14.813L8.3957 14.8158L8.39453 14.8167C8.39437 14.8168 8.39382 14.8172 8.0001 14.3ZM8.0001 2.35005C5.54611 2.35005 3.57539 4.30357 3.57539 6.69057C3.57539 8.30596 4.69337 10.0494 5.94958 11.4695C6.56173 12.1614 7.1759 12.7425 7.63777 13.151C7.77341 13.2709 7.89551 13.3756 8.0001 13.4635C8.10468 13.3756 8.22679 13.2709 8.36243 13.151C8.8243 12.7425 9.43846 12.1614 10.0506 11.4695C11.3068 10.0494 12.4248 8.30596 12.4248 6.69057C12.4248 4.30357 10.4541 2.35005 8.0001 2.35005Z" fill="black"/>
<path d="M8.0001 14.3L8.39453 14.8167C8.16191 14.9938 7.83869 14.9941 7.60608 14.817L8.0001 14.3Z" fill="black"/>
</svg>
