<svg width="16" height="17" viewBox="0 0 16 17" fill="none" xmlns="http://www.w3.org/2000/svg">
<path d="M12.3184 7.32504C12.5722 7.0712 12.5722 6.65964 12.3184 6.4058C12.0645 6.15196 11.653 6.15196 11.3991 6.4058L8.90491 8.90001L7.51598 7.51108C7.39408 7.38918 7.22875 7.3207 7.05636 7.3207C6.88396 7.3207 6.71863 7.38919 6.59674 7.51109L3.68149 10.4264C3.42765 10.6802 3.42766 11.0918 3.6815 11.3456C3.93534 11.5995 4.3469 11.5995 4.60074 11.3456L7.05636 8.88995L8.44529 10.2789C8.69913 10.5327 9.11068 10.5327 9.36452 10.2789L12.3184 7.32504Z" fill="black"/>
<path fill-rule="evenodd" clip-rule="evenodd" d="M3 2.8125C1.89543 2.8125 1 3.70793 1 4.8125V12.1875C1 13.2921 1.89543 14.1875 3 14.1875H13C14.1046 14.1875 15 13.2921 15 12.1875V4.8125C15 3.70793 14.1046 2.8125 13 2.8125H3ZM2.3 12.1875V4.972H13.7V12.1875C13.7 12.5741 13.3866 12.8875 13 12.8875H3C2.6134 12.8875 2.3 12.5741 2.3 12.1875Z" fill="black"/>
</svg>
