<svg width="16" height="16" viewBox="0 0 16 16" fill="none" xmlns="http://www.w3.org/2000/svg">
<path d="M5.87534 6.30894C6.12918 6.05509 6.54074 6.05509 6.79458 6.30894L8 7.51435L9.20542 6.30894C9.45926 6.05509 9.87082 6.05509 10.1247 6.30894C10.3785 6.56278 10.3785 6.97433 10.1247 7.22817L8.91924 8.43359L10.1245 9.63889C10.3784 9.89273 10.3784 10.3043 10.1245 10.5581C9.8707 10.812 9.45914 10.812 9.2053 10.5581L8 9.35283L6.7947 10.5581C6.54086 10.812 6.1293 10.812 5.87546 10.5581C5.62162 10.3043 5.62162 9.89273 5.87546 9.63889L7.08076 8.43359L5.87534 7.22817C5.6215 6.97433 5.6215 6.56278 5.87534 6.30894Z" fill="black"/>
<path fill-rule="evenodd" clip-rule="evenodd" d="M1 4.3125C1 3.20793 1.89543 2.3125 3 2.3125H13C14.1046 2.3125 15 3.20793 15 4.3125V11.6875C15 12.7921 14.1046 13.6875 13 13.6875H3C1.89543 13.6875 1 12.7921 1 11.6875V4.3125ZM2.3 4.472V11.6875C2.3 12.0741 2.6134 12.3875 3 12.3875H13C13.3866 12.3875 13.7 12.0741 13.7 11.6875V4.472H2.3Z" fill="black"/>
</svg>
