<svg width="16" height="16" viewBox="0 0 16 16" fill="none" xmlns="http://www.w3.org/2000/svg">
<path d="M8.59045 2.21783C9.51041 1.0053 10.7894 0.99939 10.7894 0.99939C10.7894 0.99939 10.9796 2.13938 10.0657 3.23755C9.08983 4.41015 7.98064 4.21828 7.98064 4.21828C7.98064 4.21828 7.77237 3.29606 8.59045 2.21783ZM8.09765 5.01683C8.57092 5.01683 9.44929 4.36627 10.5926 4.36627C12.5606 4.36627 13.3349 5.76665 13.3349 5.76665C13.3349 5.76665 11.8206 6.54085 11.8206 8.41941C11.8206 10.5386 13.707 11.2689 13.707 11.2689C13.707 11.2689 12.3883 14.9803 10.6073 14.9803C9.78923 14.9803 9.15324 14.4291 8.29132 14.4291C7.41295 14.4291 6.54129 15.0009 5.97358 15.0009C4.34718 15.0009 2.29248 11.4803 2.29248 8.65025C2.29248 5.8659 4.03165 4.40528 5.66292 4.40528C6.72339 4.40528 7.54633 5.01683 8.09765 5.01683Z" fill="#999999"/>
</svg>
