<svg width="16" height="16" viewBox="0 0 16 16" fill="none" xmlns="http://www.w3.org/2000/svg">
<path fill-rule="evenodd" clip-rule="evenodd" d="M1.07275 2.70005C1.07275 1.78878 1.81148 1.05005 2.72275 1.05005H5.64115C6.55242 1.05005 7.29115 1.78878 7.29115 2.70005V5.63815C7.29115 6.54943 6.55241 7.28815 5.64115 7.28815H2.72275C1.81148 7.28815 1.07275 6.54942 1.07275 5.63815V2.70005Z" fill="black"/>
<path fill-rule="evenodd" clip-rule="evenodd" d="M10.3816 1.05005C9.47036 1.05005 8.73163 1.78878 8.73163 2.70005V5.63815C8.73163 6.54942 9.47036 7.28815 10.3816 7.28815H13.3C14.2113 7.28815 14.95 6.54943 14.95 5.63815V2.70005C14.95 1.78878 14.2113 1.05005 13.3 1.05005H10.3816Z" fill="black"/>
<path fill-rule="evenodd" clip-rule="evenodd" d="M10.359 8.71204C9.44771 8.71204 8.70898 9.45076 8.70898 10.362V13.3001C8.70898 14.2114 9.44771 14.9501 10.359 14.9501H13.2774C14.1886 14.9501 14.9274 14.2114 14.9274 13.3001V10.362C14.9274 9.45077 14.1886 8.71204 13.2774 8.71204H10.359Z" fill="black"/>
<path fill-rule="evenodd" clip-rule="evenodd" d="M2.70005 8.71197C1.78878 8.71197 1.05005 9.4507 1.05005 10.362V13.3001C1.05005 14.2113 1.78878 14.9501 2.70005 14.9501H5.61844C6.52971 14.9501 7.26844 14.2114 7.26844 13.3001V10.362C7.26844 9.45071 6.52971 8.71197 5.61844 8.71197H2.70005Z" fill="black"/>
</svg>
