<svg width="16" height="16" viewBox="0 0 16 16" fill="none" xmlns="http://www.w3.org/2000/svg">
<path fill-rule="evenodd" clip-rule="evenodd" d="M1.07251 2.70005C1.07251 1.78878 1.81124 1.05005 2.72251 1.05005H5.6409C6.55217 1.05005 7.2909 1.78878 7.2909 2.70005V5.63815C7.2909 6.54943 6.55217 7.28815 5.6409 7.28815H2.72251C1.81124 7.28815 1.07251 6.54942 1.07251 5.63815V2.70005ZM2.72251 2.35005C2.52921 2.35005 2.37251 2.50675 2.37251 2.70005V5.63815C2.37251 5.83145 2.52921 5.98815 2.72251 5.98815H5.6409C5.8342 5.98815 5.9909 5.83145 5.9909 5.63815V2.70005C5.9909 2.50675 5.8342 2.35005 5.6409 2.35005H2.72251Z" fill="black"/>
<path fill-rule="evenodd" clip-rule="evenodd" d="M10.3814 1.05005C9.47011 1.05005 8.73138 1.78878 8.73138 2.70005V5.63815C8.73138 6.54942 9.47011 7.28815 10.3814 7.28815H13.2998C14.211 7.28815 14.9498 6.54943 14.9498 5.63815V2.70005C14.9498 1.78878 14.211 1.05005 13.2998 1.05005H10.3814ZM10.0314 2.70005C10.0314 2.50675 10.1881 2.35005 10.3814 2.35005H13.2998C13.4931 2.35005 13.6498 2.50675 13.6498 2.70005V5.63815C13.6498 5.83145 13.4931 5.98815 13.2998 5.98815H10.3814C10.1881 5.98815 10.0314 5.83145 10.0314 5.63815V2.70005Z" fill="black"/>
<path fill-rule="evenodd" clip-rule="evenodd" d="M10.3587 8.71204C9.44747 8.71204 8.70874 9.45076 8.70874 10.362V13.3001C8.70874 14.2114 9.44747 14.9501 10.3587 14.9501H13.2771C14.1884 14.9501 14.9271 14.2114 14.9271 13.3001V10.362C14.9271 9.45077 14.1884 8.71204 13.2771 8.71204H10.3587ZM10.0087 10.362C10.0087 10.1687 10.1654 10.012 10.3587 10.012H13.2771C13.4704 10.012 13.6271 10.1687 13.6271 10.362V13.3001C13.6271 13.4934 13.4704 13.6501 13.2771 13.6501H10.3587C10.1654 13.6501 10.0087 13.4934 10.0087 13.3001V10.362Z" fill="black"/>
<path fill-rule="evenodd" clip-rule="evenodd" d="M2.6998 8.71197C1.78854 8.71197 1.0498 9.4507 1.0498 10.362V13.3001C1.0498 14.2113 1.78853 14.9501 2.6998 14.9501H5.6182C6.52947 14.9501 7.2682 14.2114 7.2682 13.3001V10.362C7.2682 9.45071 6.52947 8.71197 5.6182 8.71197H2.6998ZM2.3498 10.362C2.3498 10.1687 2.5065 10.012 2.6998 10.012H5.6182C5.8115 10.012 5.9682 10.1687 5.9682 10.362V13.3001C5.9682 13.4934 5.8115 13.6501 5.6182 13.6501H2.6998C2.5065 13.6501 2.3498 13.4934 2.3498 13.3001V10.362Z" fill="black"/>
</svg>
