<svg width="16" height="16" viewBox="0 0 16 16" fill="none" xmlns="http://www.w3.org/2000/svg">
<path d="M3 2.3125C1.89543 2.3125 1 3.20793 1 4.3125V11.6875C1 12.7921 1.89543 13.6875 3 13.6875H6.04688V12.3875H3C2.6134 12.3875 2.3 12.0741 2.3 11.6875V4.472H13.7V11.6875C13.7 12.0741 13.3866 12.3875 13 12.3875H9.95251V13.6875H13C14.1046 13.6875 15 12.7921 15 11.6875V4.3125C15 3.20793 14.1046 2.3125 13 2.3125H3Z" fill="black"/>
<path d="M8.45959 6.67604C8.20575 6.4222 7.7942 6.4222 7.54036 6.67604L5.04036 9.17604C4.78651 9.42988 4.78651 9.84143 5.04036 10.0953C5.2942 10.3491 5.70575 10.3491 5.95959 10.0953L7.34998 8.7049L7.34997 13.6875C7.34997 14.0464 7.64099 14.3375 7.99997 14.3375C8.35896 14.3375 8.64997 14.0464 8.64997 13.6875L8.64997 8.7049L10.0404 10.0953C10.2942 10.3491 10.7058 10.3491 10.9596 10.0953C11.2134 9.84144 11.2134 9.42988 10.9596 9.17604L8.45959 6.67604Z" fill="black"/>
</svg>
