<svg width="16" height="16" viewBox="0 0 16 16" fill="none" xmlns="http://www.w3.org/2000/svg">
<path d="M3.55132 1.08643C2.19822 1.08643 1.10132 2.18333 1.10132 3.53642V5.25448C1.10132 5.61347 1.39233 5.90448 1.75132 5.90448C2.1103 5.90448 2.40132 5.61347 2.40132 5.25448V3.53642C2.40132 2.9013 2.91619 2.38643 3.55132 2.38643H5.25066C5.60965 2.38643 5.90066 2.09541 5.90066 1.73643C5.90066 1.37744 5.60965 1.08643 5.25066 1.08643H3.55132Z" fill="black"/>
<path d="M3.55132 14.9136C2.19822 14.9136 1.10132 13.8167 1.10132 12.4636V10.7456C1.10132 10.3866 1.39233 10.0956 1.75132 10.0956C2.1103 10.0956 2.40132 10.3866 2.40132 10.7456V12.4636C2.40132 13.0988 2.91619 13.6136 3.55132 13.6136H5.25066C5.60965 13.6136 5.90066 13.9047 5.90066 14.2636C5.90066 14.6226 5.60965 14.9136 5.25066 14.9136H3.55132Z" fill="black"/>
<path d="M14.8989 3.53642C14.8989 2.18333 13.802 1.08643 12.4489 1.08643H10.7495C10.3905 1.08643 10.0995 1.37744 10.0995 1.73643C10.0995 2.09541 10.3905 2.38643 10.7495 2.38643H12.4489C13.084 2.38643 13.5989 2.9013 13.5989 3.53642V5.25448C13.5989 5.61347 13.8899 5.90448 14.2489 5.90448C14.6079 5.90448 14.8989 5.61347 14.8989 5.25448V3.53642Z" fill="black"/>
<path d="M12.4489 14.9136C13.802 14.9136 14.8989 13.8167 14.8989 12.4636V10.7456C14.8989 10.3866 14.6079 10.0956 14.2489 10.0956C13.8899 10.0956 13.5989 10.3866 13.5989 10.7456V12.4636C13.5989 13.0988 13.084 13.6136 12.4489 13.6136H10.7495C10.3905 13.6136 10.0995 13.9047 10.0995 14.2636C10.0995 14.6226 10.3905 14.9136 10.7495 14.9136H12.4489Z" fill="black"/>
<path d="M8.90474 1.73643C8.90474 2.09541 8.61372 2.38643 8.25474 2.38643L7.74556 2.38643C7.38657 2.38643 7.09556 2.09541 7.09556 1.73643C7.09556 1.37744 7.38657 1.08643 7.74556 1.08643H8.25474C8.61372 1.08643 8.90474 1.37744 8.90474 1.73643Z" fill="black"/>
<path d="M8.25474 13.6136C8.61372 13.6136 8.90474 13.9047 8.90474 14.2636C8.90474 14.6226 8.61372 14.9136 8.25474 14.9136H7.74556C7.38657 14.9136 7.09556 14.6226 7.09556 14.2636C7.09556 13.9047 7.38657 13.6136 7.74556 13.6136H8.25474Z" fill="black"/>
<path d="M1.75132 8.88978C2.1103 8.88978 2.40132 8.59877 2.40132 8.23978V7.7306C2.40132 7.37162 2.1103 7.0806 1.75132 7.0806C1.39233 7.0806 1.10132 7.37162 1.10132 7.7306V8.23978C1.10132 8.59877 1.39233 8.88978 1.75132 8.88978Z" fill="black"/>
<path d="M14.8989 8.23978C14.8989 8.59877 14.6079 8.88978 14.2489 8.88978C13.8899 8.88978 13.5989 8.59877 13.5989 8.23978V7.7306C13.5989 7.37162 13.8899 7.0806 14.2489 7.0806C14.6079 7.0806 14.8989 7.37162 14.8989 7.7306V8.23978Z" fill="black"/>
<path d="M3.99668 4.78179C3.99668 4.33996 4.35485 3.98179 4.79668 3.98179H6.19668C6.63851 3.98179 6.99668 4.33996 6.99668 4.78179V6.18179C6.99668 6.62362 6.63851 6.98179 6.19668 6.98179H4.79668C4.35485 6.98179 3.99668 6.62361 3.99668 6.18179V4.78179Z" fill="black"/>
<path d="M4.79668 8.98862C4.35485 8.98862 3.99668 9.3468 3.99668 9.78862V11.1886C3.99668 11.6305 4.35485 11.9886 4.79668 11.9886H6.19668C6.63851 11.9886 6.99668 11.6305 6.99668 11.1886V9.78862C6.99668 9.3468 6.63851 8.98862 6.19668 8.98862H4.79668Z" fill="black"/>
<path d="M9.00352 4.78179C9.00352 4.33996 9.36169 3.98179 9.80352 3.98179H11.2035C11.6453 3.98179 12.0035 4.33996 12.0035 4.78179V6.18179C12.0035 6.62362 11.6453 6.98179 11.2035 6.98179H9.80352C9.36169 6.98179 9.00352 6.62361 9.00352 6.18179V4.78179Z" fill="black"/>
<path d="M9.80352 8.98862C9.36169 8.98862 9.00352 9.3468 9.00352 9.78862V11.1886C9.00352 11.6305 9.36169 11.9886 9.80352 11.9886H11.2035C11.6453 11.9886 12.0035 11.6305 12.0035 11.1886V9.78862C12.0035 9.3468 11.6453 8.98862 11.2035 8.98862H9.80352Z" fill="black"/>
</svg>
