<svg width="16" height="16" viewBox="0 0 16 16" fill="none" xmlns="http://www.w3.org/2000/svg">
<path d="M8.25443 2.38643C8.61342 2.38643 8.90443 2.09541 8.90443 1.73643C8.90443 1.37744 8.61342 1.08643 8.25443 1.08643H7.74525C7.38627 1.08643 7.09525 1.37744 7.09525 1.73643C7.09525 2.09541 7.38627 2.38643 7.74525 2.38643H8.25443Z" fill="black"/>
<path d="M1.10107 3.53643C1.10107 2.18333 2.19798 1.08643 3.55107 1.08643H5.25042C5.6094 1.08643 5.90042 1.37745 5.90042 1.73643C5.90042 2.09542 5.6094 2.38643 5.25042 2.38643H3.55107C2.91595 2.38643 2.40107 2.90131 2.40107 3.53643V5.25449C2.40107 5.61347 2.11006 5.90449 1.75107 5.90449C1.39209 5.90449 1.10107 5.61347 1.10107 5.25449V3.53643Z" fill="black"/>
<path d="M1.10107 12.4636C1.10107 13.8167 2.19798 14.9136 3.55107 14.9136H5.25042C5.6094 14.9136 5.90042 14.6226 5.90042 14.2636C5.90042 13.9046 5.6094 13.6136 5.25042 13.6136H3.55107C2.91595 13.6136 2.40107 13.0988 2.40107 12.4636V10.7456C2.40107 10.3866 2.11006 10.0956 1.75107 10.0956C1.39209 10.0956 1.10107 10.3866 1.10107 10.7456V12.4636Z" fill="black"/>
<path d="M12.4486 1.08643C13.8017 1.08643 14.8986 2.18333 14.8986 3.53643V5.25449C14.8986 5.61347 14.6076 5.90449 14.2486 5.90449C13.8896 5.90449 13.5986 5.61347 13.5986 5.25449V3.53643C13.5986 2.90131 13.0838 2.38643 12.4486 2.38643H10.7493C10.3903 2.38643 10.0993 2.09542 10.0993 1.73643C10.0993 1.37745 10.3903 1.08643 10.7493 1.08643H12.4486Z" fill="black"/>
<path d="M14.8986 12.4636C14.8986 13.8167 13.8017 14.9136 12.4486 14.9136H10.7493C10.3903 14.9136 10.0993 14.6226 10.0993 14.2636C10.0993 13.9046 10.3903 13.6136 10.7493 13.6136H12.4486C13.0838 13.6136 13.5986 13.0988 13.5986 12.4636V10.7456C13.5986 10.3866 13.8896 10.0956 14.2486 10.0956C14.6076 10.0956 14.8986 10.3866 14.8986 10.7456V12.4636Z" fill="black"/>
<path d="M8.92128 14.2636C8.92128 13.9046 8.63026 13.6136 8.27128 13.6136H7.7621C7.40311 13.6136 7.1121 13.9046 7.1121 14.2636C7.1121 14.6226 7.40311 14.9136 7.7621 14.9136H8.27128C8.63026 14.9136 8.92128 14.6226 8.92128 14.2636Z" fill="black"/>
<path d="M2.40107 8.23979C2.40107 8.59878 2.11006 8.88979 1.75107 8.88979C1.39209 8.88979 1.10107 8.59878 1.10107 8.23979V7.73061C1.10107 7.37163 1.39209 7.08061 1.75107 7.08061C2.11006 7.08061 2.40107 7.37163 2.40107 7.73061V8.23979Z" fill="black"/>
<path d="M14.2486 8.88979C14.6076 8.88979 14.8986 8.59878 14.8986 8.23979V7.73061C14.8986 7.37163 14.6076 7.08061 14.2486 7.08061C13.8896 7.08061 13.5986 7.37163 13.5986 7.73061V8.23979C13.5986 8.59878 13.8896 8.88979 14.2486 8.88979Z" fill="black"/>
<path d="M4.05796 4.72913C3.69897 4.72913 3.40796 5.02014 3.40796 5.37913C3.40796 5.73811 3.69897 6.02913 4.05796 6.02913H8.6712C9.03019 6.02913 9.3212 5.73811 9.3212 5.37913C9.3212 5.02014 9.03019 4.72913 8.6712 4.72913H4.05796Z" fill="black"/>
<path d="M5.04541 7.98521C5.04541 7.62622 5.33643 7.33521 5.69541 7.33521H10.3087C10.6676 7.33521 10.9587 7.62622 10.9587 7.98521C10.9587 8.34419 10.6676 8.63521 10.3087 8.63521H5.69541C5.33643 8.63521 5.04541 8.34419 5.04541 7.98521Z" fill="black"/>
<path d="M7.32847 9.94128C6.96948 9.94128 6.67847 10.2323 6.67847 10.5913C6.67847 10.9503 6.96948 11.2413 7.32847 11.2413H11.9417C12.3007 11.2413 12.5917 10.9503 12.5917 10.5913C12.5917 10.2323 12.3007 9.94128 11.9417 9.94128H7.32847Z" fill="black"/>
</svg>
