<svg width="16" height="16" viewBox="0 0 16 16" fill="none" xmlns="http://www.w3.org/2000/svg">
<path d="M9.37202 2.11694C9.11818 1.8631 9.11818 1.45155 9.37202 1.1977C9.62586 0.943864 10.0374 0.943864 10.2913 1.1977L13.4288 4.3352C13.6826 4.58904 13.6826 5.0006 13.4288 5.25444L10.2913 8.39194C10.0374 8.64578 9.62586 8.64578 9.37202 8.39194C9.11818 8.1381 9.11818 7.72654 9.37202 7.4727L11.3999 5.44478H7.61484C5.44229 5.44478 3.68109 7.20597 3.68109 9.37852V14.3422C3.68109 14.7012 3.39007 14.9922 3.03109 14.9922C2.6721 14.9922 2.38109 14.701 2.38109 14.342V9.37852C2.38109 6.488 4.72432 4.14478 7.61484 4.14478H11.3999L9.37202 2.11694Z" fill="black"/>
</svg>
