<svg width="16" height="16" viewBox="0 0 16 16" fill="none" xmlns="http://www.w3.org/2000/svg">
<path d="M8.30574 3.95825C8.0519 3.70441 8.0519 3.29285 8.30574 3.03901C8.55958 2.78517 8.97113 2.78517 9.22498 3.03901L13.7201 7.53409C13.8414 7.65218 13.9168 7.81727 13.9168 7.99998C13.9168 8.11987 13.8843 8.23218 13.8277 8.3286C13.8167 8.34734 13.8047 8.36566 13.7917 8.38346C13.7705 8.41243 13.7469 8.43958 13.7213 8.46464L9.22498 12.961C8.97114 13.2148 8.55958 13.2148 8.30574 12.961C8.0519 12.7071 8.0519 12.2956 8.30574 12.0417L11.6975 8.64998L2.73301 8.64998C2.37402 8.64998 2.08301 8.35896 2.08301 7.99998C2.08301 7.64099 2.37402 7.34998 2.73301 7.34998L11.6975 7.34998L8.30574 3.95825Z" fill="black"/>
</svg>
