<svg width="16" height="16" viewBox="0 0 16 16" fill="none" xmlns="http://www.w3.org/2000/svg">
<path d="M6.62798 2.11694C6.88182 1.8631 6.88182 1.45155 6.62798 1.1977C6.37414 0.943864 5.96258 0.943864 5.70874 1.1977L2.57124 4.3352C2.3174 4.58904 2.3174 5.0006 2.57124 5.25444L5.70874 8.39194C5.96258 8.64578 6.37414 8.64578 6.62798 8.39194C6.88182 8.1381 6.88182 7.72654 6.62798 7.4727L4.60005 5.44478H8.38516C10.5577 5.44478 12.3189 7.20597 12.3189 9.37852V14.3422C12.3189 14.7012 12.6099 14.9922 12.9689 14.9922C13.3279 14.9922 13.6189 14.701 13.6189 14.342V9.37852C13.6189 6.488 11.2757 4.14478 8.38516 4.14478H4.60014L6.62798 2.11694Z" fill="black"/>
</svg>
