<svg width="16" height="16" viewBox="0 0 16 16" fill="none" xmlns="http://www.w3.org/2000/svg">
<path d="M5.6401 6.30332C5.38991 6.04587 4.9784 6.03999 4.72095 6.29017C4.46351 6.54035 4.45762 6.95187 4.7078 7.20932L7.5301 10.1135C7.65239 10.2394 7.82036 10.3104 7.99582 10.3105C8.17129 10.3107 8.33935 10.2398 8.4618 10.1141L11.2916 7.20993C11.5421 6.95281 11.5367 6.54129 11.2796 6.29077C11.0225 6.04025 10.611 6.04559 10.3605 6.3027L7.99687 8.72849L5.6401 6.30332Z" fill="black"/>
<path fill-rule="evenodd" clip-rule="evenodd" d="M14.9987 8.00002C14.9987 11.8653 11.8653 14.9988 7.99998 14.9988C4.13467 14.9988 1.00122 11.8653 1.00122 8.00002C1.00122 4.1347 4.13467 1.00125 7.99998 1.00125C11.8653 1.00125 14.9987 4.1347 14.9987 8.00002ZM13.6987 8.00002C13.6987 11.1474 11.1473 13.6988 7.99998 13.6988C4.85264 13.6988 2.30122 11.1474 2.30122 8.00002C2.30122 4.85267 4.85264 2.30125 7.99998 2.30125C11.1473 2.30125 13.6987 4.85267 13.6987 8.00002Z" fill="black"/>
</svg>
