<svg width="16" height="16" viewBox="0 0 16 16" fill="none" xmlns="http://www.w3.org/2000/svg">
<path d="M7.51725 2.0498C7.77109 1.79596 7.77109 1.38441 7.51725 1.13057C7.26341 0.876725 6.85185 0.876725 6.59801 1.13057L3.52857 4.20001C3.27473 4.45385 3.27473 4.86541 3.52857 5.11925L6.59801 8.18869C6.85185 8.44253 7.26341 8.44253 7.51725 8.18869C7.77109 7.93485 7.77109 7.52329 7.51725 7.26945L5.55744 5.30964H9.22616C11.3438 5.30964 13.0605 7.02633 13.0605 9.14397C13.0605 11.2616 11.3438 12.9783 9.22616 12.9783H2.70493C2.34595 12.9783 2.05493 13.2693 2.05493 13.6283C2.05493 13.9873 2.34595 14.2783 2.70493 14.2783H9.22616C12.0618 14.2783 14.3605 11.9796 14.3605 9.14397C14.3605 6.30836 12.0618 4.00964 9.22616 4.00964H5.55741L7.51725 2.0498Z" fill="black"/>
</svg>
