<svg width="16" height="16" viewBox="0 0 16 16" fill="none" xmlns="http://www.w3.org/2000/svg">
<path d="M11.6646 5.41576C11.9414 5.64429 11.9806 6.05398 11.7521 6.33082C11.5235 6.60767 11.1139 6.64684 10.837 6.4183L7.99635 4.07338L5.16383 6.41777C4.88728 6.64666 4.47754 6.60802 4.24865 6.33147C4.01976 6.05492 4.05839 5.64518 4.33494 5.41629L7.58136 2.72934C7.82157 2.53053 8.16913 2.5303 8.4096 2.7288L11.6646 5.41576Z" fill="black"/>
<path d="M11.6646 10.5843C11.9414 10.3558 11.9806 9.9461 11.7521 9.66925C11.5235 9.39241 11.1139 9.35324 10.837 9.58177L7.99635 11.9267L5.16383 9.58231C4.88728 9.35342 4.47754 9.39205 4.24865 9.6686C4.01976 9.94515 4.05839 10.3549 4.33494 10.5838L7.58136 13.2707C7.82157 13.4696 8.16913 13.4698 8.4096 13.2713L11.6646 10.5843Z" fill="black"/>
</svg>
