<svg width="16" height="16" viewBox="0 0 16 16" fill="none" xmlns="http://www.w3.org/2000/svg">
<path d="M2.36494 4.65369V3.21696C2.36494 2.85797 2.07393 2.56696 1.71494 2.56696C1.35596 2.56696 1.06494 2.85797 1.06494 3.21696V6.26846C1.06494 6.62745 1.35596 6.91846 1.71494 6.91846H4.62038C4.97937 6.91846 5.27038 6.62745 5.27038 6.26846C5.27038 5.90948 4.97937 5.61846 4.62038 5.61846H3.27134C4.29796 4.1351 6.01097 3.16475 7.94968 3.16475C11.0896 3.16475 13.635 5.71016 13.635 8.85008C13.635 11.99 11.0896 14.5354 7.94968 14.5354C5.26371 14.5354 3.01134 12.6722 2.41748 10.167C2.33468 9.81766 1.98439 9.60162 1.63508 9.68442C1.28578 9.76722 1.06973 10.1175 1.15254 10.4668C1.88219 13.5449 4.64765 15.8354 7.94968 15.8354C11.8076 15.8354 14.935 12.708 14.935 8.85008C14.935 4.99219 11.8076 1.86475 7.94968 1.86475C5.66597 1.86475 3.63908 2.96068 2.36494 4.65369Z" fill="black"/>
<path d="M7.94858 5.61847C8.30757 5.61847 8.59858 5.90948 8.59858 6.26847V8.41346L10.6262 9.12764C10.9648 9.2469 11.1426 9.61806 11.0234 9.95666C10.9041 10.2953 10.5329 10.4731 10.1943 10.3538L7.73264 9.48674C7.47256 9.39513 7.29858 9.1494 7.29858 8.87366V6.26847C7.29858 5.90948 7.5896 5.61847 7.94858 5.61847Z" fill="black"/>
</svg>
