<svg width="16" height="16" viewBox="0 0 16 16" fill="none" xmlns="http://www.w3.org/2000/svg">
<path d="M7.20923 6.20717C7.46307 5.95332 7.87463 5.95332 8.12847 6.20717L9.00222 7.08092L9.87598 6.20717C10.1298 5.95332 10.5414 5.95332 10.7952 6.20717C11.0491 6.46101 11.0491 6.87256 10.7952 7.1264L9.92146 8.00016L10.7707 8.84942C11.0246 9.10326 11.0246 9.51481 10.7707 9.76865C10.5169 10.0225 10.1053 10.0225 9.85148 9.76865L9.00222 8.9194L8.12855 9.79307C7.87471 10.0469 7.46315 10.0469 7.20931 9.79307C6.95547 9.53923 6.95547 9.12767 7.20931 8.87383L8.08298 8.00016L7.20923 7.1264C6.95539 6.87256 6.95539 6.46101 7.20923 6.20717Z" fill="black"/>
<path fill-rule="evenodd" clip-rule="evenodd" d="M5.7731 3.3501C5.31059 3.3501 4.86932 3.54421 4.55679 3.88515L1.55903 7.15544C1.12095 7.63334 1.12095 8.36685 1.55903 8.84475L4.55679 12.115C4.86932 12.456 5.31059 12.6501 5.7731 12.6501H12.9999C13.9111 12.6501 14.6499 11.9114 14.6499 11.0001V5.0001C14.6499 4.08883 13.9111 3.3501 12.9999 3.3501H5.7731ZM5.51509 4.76359C5.58139 4.69127 5.67499 4.6501 5.7731 4.6501H12.9999C13.1932 4.6501 13.3499 4.8068 13.3499 5.0001V11.0001C13.3499 11.1934 13.1932 11.3501 12.9999 11.3501H5.7731C5.67499 11.3501 5.58139 11.3089 5.51509 11.2366L2.5483 8.0001L5.51509 4.76359Z" fill="black"/>
</svg>
