<svg width="16" height="17" viewBox="0 0 16 17" fill="none" xmlns="http://www.w3.org/2000/svg">
<path d="M3.23655 5.61847C4.26316 4.13511 5.97617 3.16475 7.91489 3.16475C11.0548 3.16475 13.6002 5.71016 13.6002 8.85008C13.6002 11.99 11.0548 14.5354 7.91489 14.5354C5.22892 14.5354 2.97655 12.6722 2.38269 10.167C2.29989 9.81766 1.9496 9.60162 1.60029 9.68442C1.25099 9.76722 1.03494 10.1175 1.11775 10.4668C1.8474 13.5449 4.61286 15.8354 7.91489 15.8354C11.7728 15.8354 14.9002 12.708 14.9002 8.85008C14.9002 4.99219 11.7728 1.86475 7.91489 1.86475C5.6311 1.86475 3.60416 2.96074 2.33003 4.65385V3.21696C2.33003 2.85797 2.03901 2.56696 1.68003 2.56696C1.32104 2.56696 1.03003 2.85797 1.03003 3.21696V6.26847C1.03003 6.62745 1.32104 6.91847 1.68003 6.91847H4.58547C4.94446 6.91847 5.23547 6.62745 5.23547 6.26847C5.23547 5.90948 4.94446 5.61847 4.58547 5.61847H3.23655Z" fill="black"/>
<path d="M5.87544 6.72548C6.12928 6.47164 6.54084 6.47164 6.79468 6.72548L8.0001 7.9309L9.20552 6.72548C9.45936 6.47164 9.87092 6.47164 10.1248 6.72548C10.3786 6.97932 10.3786 7.39088 10.1248 7.64472L8.91934 8.85014L10.1246 10.0554C10.3785 10.3093 10.3785 10.7208 10.1246 10.9747C9.87079 11.2285 9.45924 11.2285 9.2054 10.9747L8.0001 9.76938L6.7948 10.9747C6.54096 11.2285 6.1294 11.2285 5.87556 10.9747C5.62172 10.7208 5.62172 10.3093 5.87556 10.0554L7.08086 8.85014L5.87544 7.64472C5.6216 7.39088 5.6216 6.97932 5.87544 6.72548Z" fill="black"/>
</svg>
