<svg width="16" height="16" viewBox="0 0 16 16" fill="none" xmlns="http://www.w3.org/2000/svg">
<path d="M7.99973 9.73836C8.95981 9.73836 9.73811 8.96006 9.73811 7.99998C9.73811 7.0399 8.95981 6.2616 7.99973 6.2616C7.03965 6.2616 6.26135 7.0399 6.26135 7.99998C6.26135 8.96006 7.03965 9.73836 7.99973 9.73836Z" fill="black"/>
<path fill-rule="evenodd" clip-rule="evenodd" d="M1 5.26099C1 3.88027 2.11929 2.76099 3.5 2.76099H12.5C13.8807 2.76099 15 3.88027 15 5.26099V10.739C15 12.1197 13.8807 13.239 12.5 13.239H3.5C2.11929 13.239 1 12.1197 1 10.739V5.26099ZM3.5 4.06099H3.85651L3.85653 4.06762C3.85653 4.92036 3.16524 5.61164 2.3125 5.61164L2.3 5.61159V5.26099C2.3 4.59824 2.83726 4.06099 3.5 4.06099ZM5.15653 4.06762L5.15652 4.06099H10.8429L10.8429 4.06761C10.8429 5.63832 12.1162 6.91163 13.6869 6.91163L13.7 6.9116V9.08839C13.6957 9.08837 13.6915 9.08836 13.6872 9.08836C12.1165 9.08836 10.8432 10.3617 10.8432 11.9324C10.8432 11.9346 10.8432 11.9368 10.8432 11.939H5.15682L5.15682 11.9324C5.15682 10.3617 3.88351 9.08836 2.3128 9.08836L2.3 9.08839V6.91162L2.3125 6.91164C3.88321 6.91164 5.15653 5.63833 5.15653 4.06762ZM12.1432 11.939H12.5C13.1627 11.939 13.7 11.4017 13.7 10.739V10.3884C13.6957 10.3884 13.6915 10.3884 13.6872 10.3884C12.8345 10.3884 12.1432 11.0796 12.1432 11.9324C12.1432 11.9346 12.1432 11.9368 12.1432 11.939ZM12.1429 4.06761L12.1429 4.06099H12.5C13.1627 4.06099 13.7 4.59824 13.7 5.26099V5.61158L13.6869 5.61163C12.8342 5.61163 12.1429 4.92035 12.1429 4.06761ZM2.3 10.3884V10.739C2.3 11.4017 2.83726 11.939 3.5 11.939H3.85681L3.85682 11.9324C3.85682 11.0796 3.16554 10.3884 2.3128 10.3884L2.3 10.3884Z" fill="black"/>
</svg>
