<svg width="16" height="16" viewBox="0 0 16 16" fill="none" xmlns="http://www.w3.org/2000/svg">
<path fill-rule="evenodd" clip-rule="evenodd" d="M4 3C3.44772 3 3 3.44772 3 4V6C3 6.55228 3.44772 7 4 7H12C12.5523 7 13 6.55228 13 6V4C13 3.44772 12.5523 3 12 3H4ZM4.3 4.3V5.7H11.7V4.3H4.3Z" fill="black"/>
<path fill-rule="evenodd" clip-rule="evenodd" d="M4 12H3C1.89543 12 1 11.1046 1 10V3C1 1.89543 1.89543 1 3 1H13C14.1046 1 15 1.89543 15 3V10C15 11.1046 14.1046 12 13 12H12V14C12 14.5523 11.5523 15 11 15H5C4.44772 15 4 14.5523 4 14V12ZM3 2.3H13C13.3866 2.3 13.7 2.6134 13.7 3V10C13.7 10.3866 13.3866 10.7 13 10.7H12V9.15H12.3439C12.7029 9.15 12.9939 8.85898 12.9939 8.5C12.9939 8.14101 12.7029 7.85 12.3439 7.85H3.65602C3.29703 7.85 3.00602 8.14101 3.00602 8.5C3.00602 8.85898 3.29703 9.15 3.65602 9.15H4V10.7H3C2.6134 10.7 2.3 10.3866 2.3 10V3C2.3 2.6134 2.6134 2.3 3 2.3ZM5.3 13.7V9.15H6.35V13.7H5.3ZM10.7 9.15L7.65 9.15V13.7H10.7V9.15Z" fill="black"/>
</svg>
