<svg width="16" height="16" viewBox="0 0 16 16" fill="none" xmlns="http://www.w3.org/2000/svg">
<path fill-rule="evenodd" clip-rule="evenodd" d="M5.1623 15.4102C4.44433 15.4102 3.8623 14.8281 3.8623 14.1102L3.8623 3.15675C3.8623 2.43878 4.44433 1.85675 5.1623 1.85675L5.90463 1.85675C6.01666 1.13908 6.63751 0.589971 7.38661 0.589971L8.61321 0.589971C9.36231 0.589971 9.98316 1.13908 10.0952 1.85675L10.8375 1.85675C11.5554 1.85675 12.1375 2.43878 12.1375 3.15675L12.1375 14.1102C12.1375 14.8281 11.5554 15.4102 10.8375 15.4102L5.1623 15.4102ZM5.1623 14.1102L10.8375 14.1102L10.8375 3.15675L5.1623 3.15675L5.1623 14.1102Z" fill="black"/>
</svg>
