<svg width="16" height="16" viewBox="0 0 16 16" fill="none" xmlns="http://www.w3.org/2000/svg">
<path d="M2.62574 6.3882C2.62574 6.11205 2.8496 5.8882 3.12574 5.8882H3.77352C4.04966 5.8882 4.27352 6.11205 4.27352 6.3882V9.61177C4.27352 9.88791 4.04966 10.1118 3.77352 10.1118H3.12574C2.8496 10.1118 2.62574 9.88791 2.62574 9.61177V6.3882Z" fill="black"/>
<path fill-rule="evenodd" clip-rule="evenodd" d="M0.589844 5.16243C0.589844 4.44446 1.17187 3.86243 1.88984 3.86243H12.8432C13.5612 3.86243 14.1432 4.44446 14.1432 5.16243V5.90475C14.8609 6.01679 15.41 6.63763 15.41 7.38673V8.61333C15.41 9.36243 14.8609 9.98328 14.1432 10.0953V10.8376C14.1432 11.5556 13.5612 12.1376 12.8432 12.1376H1.88984C1.17187 12.1376 0.589844 11.5556 0.589844 10.8376V5.16243ZM1.88984 5.16243V10.8376H12.8432V5.16243H1.88984Z" fill="black"/>
</svg>
