<svg width="16" height="16" viewBox="0 0 16 16" fill="none" xmlns="http://www.w3.org/2000/svg">
<path d="M8.6552 6.47782C8.18074 5.96056 7.34279 6.09835 6.99207 6.72719C6.81721 7.04071 6.4213 7.15311 6.10778 6.97825C5.79426 6.80339 5.68185 6.40748 5.85671 6.09396C6.55976 4.83344 8.43377 4.31323 9.61321 5.59907C10.0246 6.0476 10.2273 6.53827 10.2252 7.04601C10.2233 7.53548 10.0312 7.95798 9.81427 8.28836C9.59707 8.61912 9.32661 8.90006 9.10726 9.11293C9.03465 9.18339 8.95979 9.25377 8.89544 9.31426C8.86499 9.34289 8.83677 9.36941 8.81239 9.39257C8.72452 9.47602 8.68048 9.52135 8.66056 9.54547C8.63752 9.57336 8.60444 9.62777 8.58123 9.69997C8.55847 9.77077 8.5522 9.83678 8.55836 9.88922C8.60031 10.2457 8.34529 10.5688 7.98876 10.6107C7.63224 10.6527 7.30921 10.3976 7.26727 10.0411C7.20644 9.52409 7.40134 9.02863 7.65827 8.71757C7.73507 8.62459 7.83395 8.52896 7.91716 8.44993C7.95098 8.41781 7.98381 8.38696 8.01668 8.35608C8.07626 8.3001 8.136 8.24396 8.20192 8.17999C8.40122 7.9866 8.5898 7.78467 8.72761 7.57479C8.86568 7.36454 8.92463 7.18864 8.92523 7.04079C8.92575 6.9112 8.88249 6.72561 8.6552 6.47782Z" fill="black"/>
<path d="M7.90676 12.3708C8.27881 12.3708 8.58041 12.0692 8.58041 11.6971C8.58041 11.3251 8.27881 11.0235 7.90676 11.0235C7.53471 11.0235 7.23311 11.3251 7.23311 11.6971C7.23311 12.0691 7.53471 12.3708 7.90676 12.3708Z" fill="black"/>
<path fill-rule="evenodd" clip-rule="evenodd" d="M3.86231 14.11C3.86231 14.828 4.44433 15.41 5.16231 15.41H10.8375C11.5554 15.41 12.1375 14.828 12.1375 14.11L12.1375 3.15662C12.1375 2.43865 11.5554 1.85662 10.8375 1.85662H10.0951C9.9831 1.13896 9.36225 0.589844 8.61315 0.589844L7.38655 0.589844C6.63745 0.589844 6.0166 1.13896 5.90457 1.85662H5.1623C4.44433 1.85662 3.8623 2.43865 3.8623 3.15662L3.86231 14.11ZM5.16231 14.11L5.1623 3.15662L10.8375 3.15662L10.8375 14.11H5.16231Z" fill="black"/>
</svg>
