<svg width="16" height="16" viewBox="0 0 16 16" fill="none" xmlns="http://www.w3.org/2000/svg">
<path fill-rule="evenodd" clip-rule="evenodd" d="M7.99991 7.66656C6.94164 7.66656 6.08374 8.52446 6.08374 9.58274C6.08374 10.641 6.94164 11.4989 7.99991 11.4989C9.05819 11.4989 9.91608 10.641 9.91608 9.58274C9.91608 8.52446 9.05819 7.66656 7.99991 7.66656ZM7.38374 9.58274C7.38374 9.24243 7.65961 8.96657 7.99991 8.96657C8.34021 8.96657 8.61608 9.24243 8.61608 9.58274C8.61608 9.92304 8.34021 10.1989 7.99991 10.1989C7.65961 10.1989 7.38374 9.92304 7.38374 9.58274Z" fill="black"/>
<path d="M6.73368 7.05039C6.73368 7.40003 6.45023 7.68348 6.10059 7.68348C5.75095 7.68348 5.4675 7.40003 5.4675 7.05039C5.4675 6.70075 5.75095 6.4173 6.10059 6.4173C6.45023 6.4173 6.73368 6.70075 6.73368 7.05039Z" fill="black"/>
<path d="M9.89917 7.68348C10.2488 7.68348 10.5323 7.40003 10.5323 7.05039C10.5323 6.70075 10.2488 6.4173 9.89917 6.4173C9.54953 6.4173 9.26609 6.70075 9.26609 7.05039C9.26609 7.40003 9.54953 7.68348 9.89917 7.68348Z" fill="black"/>
<path fill-rule="evenodd" clip-rule="evenodd" d="M1.01904 4.20149C1.01904 5.04793 1.38627 5.80819 1.96843 6.3322C1.76315 6.9565 1.6521 7.62356 1.6521 8.31656C1.6521 11.8223 4.4941 14.6643 7.99987 14.6643C11.5057 14.6643 14.3476 11.8223 14.3476 8.31656C14.3476 7.62356 14.2366 6.95651 14.0313 6.33221C14.6135 5.8082 14.9807 5.04795 14.9807 4.20149C14.9807 2.61876 13.6977 1.33569 12.1149 1.33569C11.2685 1.33569 10.5082 1.70293 9.98421 2.2851C9.35992 2.07983 8.69287 1.96878 7.99987 1.96878C7.30689 1.96878 6.63985 2.07983 6.01556 2.28509C5.49155 1.70292 4.73129 1.33569 3.88484 1.33569C2.30211 1.33569 1.01904 2.61876 1.01904 4.20149ZM3.88484 2.63569C3.02008 2.63569 2.31904 3.33673 2.31904 4.20149C2.31904 4.50969 2.40797 4.79731 2.56206 5.03991C3.0959 4.15587 3.83922 3.41255 4.72327 2.87872C4.48067 2.72462 4.19305 2.63569 3.88484 2.63569ZM11.2765 2.87873C12.1605 3.41256 12.9039 4.15589 13.4377 5.03993C13.5918 4.79732 13.6807 4.5097 13.6807 4.20149C13.6807 3.33673 12.9797 2.63569 12.1149 2.63569C11.8067 2.63569 11.5191 2.72463 11.2765 2.87873ZM2.9521 8.31656C2.9521 5.52875 5.21207 3.26878 7.99987 3.26878C10.7877 3.26878 13.0476 5.52875 13.0476 8.31656C13.0476 11.1044 10.7877 13.3643 7.99987 13.3643C5.21207 13.3643 2.9521 11.1044 2.9521 8.31656Z" fill="black"/>
</svg>
