<svg width="16" height="16" viewBox="0 0 16 16" fill="none" xmlns="http://www.w3.org/2000/svg">
<path d="M3.83789 7.11475C3.83789 4.81581 5.70155 2.95215 8.0005 2.95215V2.95215C10.2994 2.95215 12.1631 4.81581 12.1631 7.11476V12.163H3.83789V7.11475Z" stroke="black" stroke-width="1.3"/>
<path d="M2.52197 12.1631L13.4791 12.1631" stroke="black" stroke-width="1.3" stroke-linecap="round"/>
<path d="M8.00049 1.64819L8.00043 2.86568" stroke="black" stroke-width="1.3" stroke-linecap="round"/>
<path fill-rule="evenodd" clip-rule="evenodd" d="M9.51403 13.61H6.48682C6.54661 14.3937 7.20143 15.011 8.00042 15.011C8.79941 15.011 9.45423 14.3937 9.51403 13.61ZM9.31516 12.7335H6.68568C6.94822 12.28 7.43869 11.9749 8.00042 11.9749C8.56216 11.9749 9.05263 12.28 9.31516 12.7335Z" fill="black"/>
<path fill-rule="evenodd" clip-rule="evenodd" d="M8.00025 0.998291C8.35923 0.998307 8.65024 1.28933 8.65022 1.64832L8.65019 2.34571C11.0007 2.66307 12.8128 4.67731 12.8128 7.11479V11.5131H13.4787C13.8377 11.5131 14.1287 11.8041 14.1287 12.1631C14.1287 12.522 13.8377 12.8131 13.4787 12.8131H2.52158C2.1626 12.8131 1.87158 12.522 1.87158 12.1631C1.87158 11.8041 2.1626 11.5131 2.52158 11.5131H3.18756V7.11479C3.18756 4.6773 4.99966 2.66304 7.35019 2.3457L7.35022 1.64826C7.35024 1.28928 7.64126 0.998275 8.00025 0.998291ZM4.48756 7.11479C4.48756 5.17483 6.06021 3.60219 8.00017 3.60219C9.94013 3.60219 11.5128 5.17483 11.5128 7.11479V11.513H4.48756V7.11479Z" fill="black"/>
<path d="M8.00015 15.011C7.20117 15.011 6.54635 14.3937 6.48655 13.6101H9.51376C9.45396 14.3937 8.79914 15.011 8.00015 15.011Z" fill="black"/>
</svg>
