<svg width="16" height="16" viewBox="0 0 16 16" fill="none" xmlns="http://www.w3.org/2000/svg">
<path d="M5.35854 8.48779C5.35854 8.12881 5.64956 7.83779 6.00854 7.83779H7.35V6.4964C7.35 6.13741 7.64101 5.8464 8 5.8464C8.35898 5.8464 8.65 6.13741 8.65 6.4964V7.83779H9.99127C10.3503 7.83779 10.6413 8.12881 10.6413 8.48779C10.6413 8.84678 10.3503 9.13779 9.99127 9.13779H8.65V10.4791C8.65 10.8381 8.35898 11.1291 8 11.1291C7.64102 11.1291 7.35 10.8381 7.35 10.4791V9.13779H6.00854C5.64956 9.13779 5.35854 8.84678 5.35854 8.48779Z" fill="black"/>
<path fill-rule="evenodd" clip-rule="evenodd" d="M1 4.3125C1 3.20793 1.89543 2.3125 3 2.3125H13C14.1046 2.3125 15 3.20793 15 4.3125V11.6875C15 12.7921 14.1046 13.6875 13 13.6875H3C1.89543 13.6875 1 12.7921 1 11.6875V4.3125ZM2.3 4.472V11.6875C2.3 12.0741 2.6134 12.3875 3 12.3875H13C13.3866 12.3875 13.7 12.0741 13.7 11.6875V4.472H2.3Z" fill="black"/>
</svg>
