<svg width="16" height="16" viewBox="0 0 16 16" fill="none" xmlns="http://www.w3.org/2000/svg">
<path d="M4.35363 8.27372C4.18794 8.27372 4.05363 8.40803 4.05363 8.57372V9.3867C4.05363 9.55238 4.18794 9.6867 4.35363 9.6867H5.1666C5.33229 9.6867 5.4666 9.55238 5.4666 9.3867V8.57372C5.4666 8.40803 5.33229 8.27372 5.1666 8.27372H4.35363Z" fill="black"/>
<path d="M4.04148 11.256C4.04148 11.0903 4.17579 10.956 4.34148 10.956H5.15446C5.32014 10.956 5.45446 11.0903 5.45446 11.256V12.069C5.45446 12.2347 5.32014 12.369 5.15446 12.369H4.34148C4.17579 12.369 4.04148 12.2347 4.04148 12.069V11.256Z" fill="black"/>
<path d="M7.64659 8.27372C7.48091 8.27372 7.34659 8.40803 7.34659 8.57372V9.3867C7.34659 9.55238 7.48091 9.6867 7.64659 9.6867H8.45957C8.62526 9.6867 8.75957 9.55238 8.75957 9.3867V8.57372C8.75957 8.40803 8.62526 8.27372 8.45957 8.27372H7.64659Z" fill="black"/>
<path d="M7.34061 11.3341C7.34061 11.1684 7.47493 11.0341 7.64061 11.0341H8.45359C8.61928 11.0341 8.75359 11.1684 8.75359 11.3341V12.1471C8.75359 12.3128 8.61928 12.4471 8.45359 12.4471H7.64061C7.47493 12.4471 7.34061 12.3128 7.34061 12.1471V11.3341Z" fill="black"/>
<path d="M10.9397 8.27372C10.7741 8.27372 10.6397 8.40803 10.6397 8.57372V9.3867C10.6397 9.55238 10.7741 9.6867 10.9397 9.6867H11.7527C11.9184 9.6867 12.0527 9.55238 12.0527 9.3867V8.57372C12.0527 8.40803 11.9184 8.27372 11.7527 8.27372H10.9397Z" fill="black"/>
<path fill-rule="evenodd" clip-rule="evenodd" d="M5.36915 1.64109C5.36915 1.2821 5.07814 0.991089 4.71915 0.991089C4.36017 0.991089 4.06915 1.2821 4.06915 1.64109V2.27026H3.84893C2.49583 2.27026 1.39893 3.36717 1.39893 4.72026V12.559C1.39893 13.9121 2.49583 15.009 3.84893 15.009H12.1513C13.5044 15.009 14.6013 13.9121 14.6013 12.559V4.72026C14.6013 3.36717 13.5044 2.27026 12.1513 2.27026H11.9552V1.64109C11.9552 1.2821 11.6641 0.991089 11.3052 0.991089C10.9462 0.991089 10.6552 1.2821 10.6552 1.64109V2.27026H5.36915V1.64109ZM3.84893 3.57026C3.2138 3.57026 2.69893 4.08514 2.69893 4.72026V5.60449H13.3013V4.72026C13.3013 4.08514 12.7864 3.57026 12.1513 3.57026H3.84893ZM2.69893 12.559V6.90449H13.3013V12.559C13.3013 13.1941 12.7864 13.709 12.1513 13.709H3.84893C3.2138 13.709 2.69893 13.1941 2.69893 12.559Z" fill="black"/>
</svg>
