<svg width="16" height="16" viewBox="0 0 16 16" fill="none" xmlns="http://www.w3.org/2000/svg">
<path fill-rule="evenodd" clip-rule="evenodd" d="M8.39343 3.47105C8.39343 2.28363 9.35602 1.32104 10.5434 1.32104H12.8768C14.0642 1.32104 15.0268 2.28363 15.0268 3.47105V4.47105C15.0268 5.65846 14.0642 6.62105 12.8768 6.62105H9.69343V6.63771C9.69343 6.9967 9.40242 7.28771 9.04343 7.28771C8.68445 7.28771 8.39343 6.9967 8.39343 6.63771V3.47105ZM10.5434 2.62104C10.074 2.62104 9.69343 3.0016 9.69343 3.47105V5.32104H12.8768C13.3462 5.32104 13.7268 4.94049 13.7268 4.47105V3.47105C13.7268 3.0016 13.3462 2.62104 12.8768 2.62104H10.5434Z" fill="black"/>
<path fill-rule="evenodd" clip-rule="evenodd" d="M2.01859 2.63776C2.03407 2.29037 2.32021 2.01669 2.66795 2.01669H4.55388C5.31101 2.01669 5.97098 2.53198 6.15461 3.26651L6.49368 4.62279C6.63506 5.1883 6.46755 5.78645 6.05304 6.1963L4.79408 7.44106C5.21655 8.12773 5.76036 8.83984 6.46094 9.5404C7.14767 10.2271 7.8643 10.7639 8.56519 11.1836L9.80801 9.94076C10.2178 9.53094 10.8126 9.36619 11.3749 9.50676L12.7348 9.84673C13.4694 10.0304 13.9847 10.6904 13.9846 11.4475L13.9846 13.3334C13.9846 13.6924 13.6936 13.9834 13.3346 13.9834V13.3334C13.3346 13.9834 13.3349 13.9834 13.3346 13.9834L13.3334 13.9834L13.3318 13.9834L13.3274 13.9833L13.3144 13.9832C13.3038 13.9831 13.2894 13.9828 13.2713 13.9823C13.2351 13.9813 13.1842 13.9794 13.1198 13.9758C12.9909 13.9686 12.8075 13.9544 12.5789 13.9265C12.122 13.8708 11.4822 13.7602 10.7346 13.5403C10.0497 13.3389 9.27211 13.045 8.46118 12.6164C8.39201 12.5933 8.32597 12.5582 8.26626 12.5111C7.36623 12.0143 6.43143 11.3494 5.5417 10.4596C4.60603 9.52398 3.91678 8.5631 3.40995 7.64839C2.66671 6.30702 2.31854 5.07017 2.15633 4.16327C2.0752 3.70966 2.0404 3.33755 2.02604 3.07458C2.01886 2.94304 2.01679 2.83861 2.01661 2.76472C2.01653 2.72777 2.01691 2.69843 2.01738 2.67713L2.01808 2.65127L2.01837 2.64295L2.01849 2.63996L2.01855 2.63876L2.01859 2.63776C2.0186 2.63752 2.01859 2.63776 2.66795 2.66669L2.01859 2.63776ZM3.34882 3.31669C3.36663 3.49186 3.39403 3.69958 3.43602 3.93438C3.54639 4.55146 3.75709 5.35305 4.15775 6.24207L5.13903 5.27186C5.22695 5.18492 5.26248 5.05804 5.23249 4.93808L4.89343 3.58181C4.85447 3.426 4.71448 3.31669 4.55388 3.31669H3.34882ZM9.77757 11.8097C10.245 12.0152 10.6916 12.1726 11.1014 12.2931C11.742 12.4815 12.2904 12.5791 12.6846 12.6296L12.6846 11.4475C12.6846 11.2869 12.5753 11.1469 12.4195 11.1079L11.0596 10.7679C10.9404 10.7381 10.8142 10.7731 10.7272 10.86L9.77757 11.8097Z" fill="black"/>
</svg>
