<svg width="16" height="16" viewBox="0 0 16 16" fill="none" xmlns="http://www.w3.org/2000/svg">
<path fill-rule="evenodd" clip-rule="evenodd" d="M2.66795 2.0166C2.32021 2.0166 2.03407 2.29028 2.01859 2.63767L2.66795 2.6666C2.01859 2.63767 2.0186 2.63743 2.01859 2.63767L2.01855 2.63867L2.01849 2.63987L2.01837 2.64286L2.01808 2.65117L2.01738 2.67704C2.01691 2.69834 2.01653 2.72768 2.01661 2.76463C2.01679 2.83852 2.01886 2.94295 2.02604 3.07449C2.0404 3.33746 2.0752 3.70957 2.15633 4.16318C2.31854 5.07008 2.66671 6.30693 3.40995 7.6483C3.91678 8.56301 4.60603 9.52389 5.5417 10.4596C6.43143 11.3493 7.36623 12.0142 8.26626 12.511C8.32597 12.5581 8.39201 12.5932 8.46118 12.6163C9.27211 13.0449 10.0497 13.3388 10.7346 13.5402C11.4822 13.7601 12.122 13.8707 12.5789 13.9264C12.8075 13.9543 12.9909 13.9685 13.1198 13.9757C13.1842 13.9794 13.2351 13.9812 13.2713 13.9822C13.2894 13.9827 13.3038 13.983 13.3144 13.9831L13.3274 13.9832L13.3318 13.9833L13.3334 13.9833C13.3337 13.9833 13.3346 13.9833 13.3346 13.3333V13.9833C13.6936 13.9833 13.9846 13.6923 13.9846 13.3333L13.9846 11.4474C13.9847 10.6903 13.4694 10.0303 12.7348 9.84664L11.3749 9.50666C10.8126 9.36609 10.2178 9.53084 9.80801 9.94067L8.56519 11.1835C7.8643 10.7638 7.14767 10.227 6.46094 9.54031C5.76036 8.83975 5.21655 8.12763 4.79408 7.44096L6.05304 6.1962C6.46755 5.78636 6.63506 5.18821 6.49368 4.6227L6.15461 3.26642C5.97098 2.53189 5.31101 2.0166 4.55388 2.0166H2.66795ZM3.43602 3.93429C3.39403 3.69949 3.36663 3.49177 3.34882 3.3166H4.55388C4.71448 3.3166 4.85447 3.4259 4.89343 3.58171L5.23249 4.93799C5.26248 5.05795 5.22695 5.18483 5.13903 5.27177L4.15775 6.24198C3.75709 5.35296 3.54639 4.55137 3.43602 3.93429ZM11.1014 12.293C10.6916 12.1725 10.245 12.0151 9.77757 11.8096L10.7272 10.8599C10.8142 10.773 10.9404 10.738 11.0596 10.7678L12.4195 11.1078C12.5753 11.1468 12.6846 11.2868 12.6846 11.4474L12.6846 12.6295C12.2904 12.579 11.742 12.4814 11.1014 12.293Z" fill="black"/>
<path d="M8.87361 6.20698C8.61977 6.46082 8.61977 6.87238 8.87361 7.12622C9.12745 7.38006 9.53901 7.38006 9.79285 7.12622L12.6832 4.23584V5.33327C12.6832 5.69225 12.9742 5.98327 13.3332 5.98327C13.6922 5.98327 13.9832 5.69225 13.9832 5.33327V2.6666C13.9832 2.30762 13.6922 2.0166 13.3332 2.0166H10.6666C10.3076 2.0166 10.0166 2.30762 10.0166 2.6666C10.0166 3.02559 10.3076 3.3166 10.6666 3.3166H11.764L8.87361 6.20698Z" fill="black"/>
</svg>
