<svg width="16" height="16" viewBox="0 0 16 16" fill="none" xmlns="http://www.w3.org/2000/svg">
<path fill-rule="evenodd" clip-rule="evenodd" d="M8.0001 5.02441C6.17519 5.02441 4.6958 6.5038 4.6958 8.32871C4.6958 10.1536 6.17519 11.633 8.0001 11.633C9.82501 11.633 11.3044 10.1536 11.3044 8.32871C11.3044 6.5038 9.82501 5.02441 8.0001 5.02441ZM5.9958 8.32871C5.9958 7.22177 6.89316 6.32441 8.0001 6.32441C9.10704 6.32441 10.0044 7.22177 10.0044 8.32871C10.0044 9.43565 9.10704 10.333 8.0001 10.333C6.89316 10.333 5.9958 9.43565 5.9958 8.32871Z" fill="black"/>
<path fill-rule="evenodd" clip-rule="evenodd" d="M6.18766 1.91357C5.05229 1.91357 4.0977 2.68147 3.8124 3.72571L3.46946 3.72571C2.10966 3.72571 1.00732 4.82804 1.00732 6.18784V11.6242C1.00732 12.984 2.10966 14.0864 3.46946 14.0864H12.5301C13.8899 14.0864 14.9923 12.984 14.9923 11.6242V6.18784C14.9923 4.82804 13.8899 3.72571 12.5301 3.72571H12.1872C11.9019 2.68147 10.9473 1.91357 9.81193 1.91357H6.18766ZM5.05348 4.12054C5.16952 3.60127 5.63408 3.21357 6.18766 3.21357H9.81193C10.3655 3.21357 10.8301 3.60127 10.9461 4.12054C11.0412 4.54626 11.4179 5.02571 12.0241 5.02571H12.5301C13.172 5.02571 13.6923 5.54601 13.6923 6.18784V11.6242C13.6923 12.2661 13.172 12.7864 12.5301 12.7864H3.46946C2.82763 12.7864 2.30732 12.2661 2.30732 11.6242V6.18784C2.30732 5.54601 2.82763 5.02571 3.46946 5.02571H3.97552C4.58173 5.02571 4.95835 4.54626 5.05348 4.12054Z" fill="black"/>
</svg>
