<svg width="16" height="17" viewBox="0 0 16 17" fill="none" xmlns="http://www.w3.org/2000/svg">
<path fill-rule="evenodd" clip-rule="evenodd" d="M15 8.8501C15 12.7161 11.866 15.8501 8 15.8501C4.13401 15.8501 1 12.7161 1 8.8501C1 4.9841 4.13401 1.8501 8 1.8501C11.866 1.8501 15 4.9841 15 8.8501ZM11.3226 13.2334C10.3996 13.9342 9.24835 14.3501 8 14.3501C4.96243 14.3501 2.5 11.8877 2.5 8.8501C2.5 7.60174 2.9159 6.45053 3.6167 5.52745L11.3226 13.2334ZM12.3833 12.1727L4.67736 4.46679C5.60043 3.766 6.75165 3.3501 8 3.3501C11.0376 3.3501 13.5 5.81253 13.5 8.8501C13.5 10.0985 13.0841 11.2497 12.3833 12.1727Z" fill="black"/>
</svg>
