<svg width="16" height="16" viewBox="0 0 16 16" fill="none" xmlns="http://www.w3.org/2000/svg">
<path d="M8.00003 9.45853L8.43995 10.5583H7.5601L8.00003 9.45853Z" fill="black"/>
<path fill-rule="evenodd" clip-rule="evenodd" d="M8.00119 1.20825C6.31685 1.20825 4.95142 2.57368 4.95142 4.25803V5.58032H4.475C3.03906 5.58032 1.875 6.74438 1.875 8.18032V12.6082C1.875 14.0441 3.03906 15.2082 4.475 15.2082H11.525C12.9609 15.2082 14.125 14.0441 14.125 12.6082V8.18032C14.125 6.74438 12.9609 5.58032 11.525 5.58032H11.051V4.25803C11.051 2.57368 9.68554 1.20825 8.00119 1.20825ZM9.75097 5.57738V4.25803C9.75097 3.29165 8.96757 2.50825 8.00119 2.50825C7.03482 2.50825 6.25142 3.29165 6.25142 4.25803V5.57738H9.75097ZM8.00003 7.05835C8.26581 7.05835 8.50483 7.22017 8.60354 7.46695L10.6035 12.4669C10.7369 12.8003 10.5747 13.1785 10.2414 13.3119C9.90812 13.4452 9.52984 13.2831 9.39652 12.9498L8.95996 11.8583H7.0401L6.60354 12.9498C6.47021 13.2831 6.09193 13.4452 5.75862 13.3119C5.42531 13.1785 5.26319 12.8003 5.39652 12.4669L7.39652 7.46695C7.49523 7.22017 7.73424 7.05835 8.00003 7.05835Z" fill="black"/>
</svg>
