<svg width="16" height="16" viewBox="0 0 16 16" fill="none" xmlns="http://www.w3.org/2000/svg">
<path d="M4.34442 8.74087C3.98544 8.74087 3.69442 9.03188 3.69442 9.39087C3.69442 9.74985 3.98544 10.0409 4.34442 10.0409L8.00014 10.0409C8.35912 10.0409 8.65014 9.74985 8.65014 9.39087C8.65014 9.03188 8.35912 8.74087 8.00013 8.74087H4.34442Z" fill="black"/>
<path fill-rule="evenodd" clip-rule="evenodd" d="M3 2.33862C1.89543 2.33862 1 3.23405 1 4.33862V11.6616C1 12.7662 1.89543 13.6616 3 13.6616H13C14.1046 13.6616 15 12.7662 15 11.6616V4.33862C15 3.23405 14.1046 2.33862 13 2.33862H3ZM13 3.63862H3C2.6134 3.63862 2.3 3.95202 2.3 4.33862V5.26742H13.7V4.33862C13.7 3.95202 13.3866 3.63862 13 3.63862ZM2.3 11.6616V6.56742H13.7V11.6616C13.7 12.0482 13.3866 12.3616 13 12.3616H3C2.6134 12.3616 2.3 12.0482 2.3 11.6616Z" fill="black"/>
</svg>
