<svg width="16" height="16" viewBox="0 0 16 16" fill="none" xmlns="http://www.w3.org/2000/svg">
<path fill-rule="evenodd" clip-rule="evenodd" d="M5.31427 9.83053H8.36513V11.501H9.80554V9.83053H10.6858V8.43014H9.80554V4.49902H8.36513L5.31427 8.74022V9.83053ZM8.36513 6.63963V8.43014H7.05476L7.70495 7.51988C7.89833 7.24647 8.05171 6.95305 8.16508 6.63963H8.36513Z" fill="black"/>
<path fill-rule="evenodd" clip-rule="evenodd" d="M1 3.43384C1 2.60541 1.67157 1.93384 2.5 1.93384H13.5C14.3284 1.93384 15 2.60541 15 3.43384V12.5662C15 13.3946 14.3284 14.0662 13.5 14.0662H2.5C1.67157 14.0662 1 13.3946 1 12.5662V3.43384ZM2.5 3.23384H13.5C13.6105 3.23384 13.7 3.32338 13.7 3.43384V12.5662C13.7 12.6767 13.6105 12.7662 13.5 12.7662H2.5C2.38954 12.7662 2.3 12.6767 2.3 12.5662V3.43384C2.3 3.32338 2.38954 3.23384 2.5 3.23384Z" fill="black"/>
</svg>
