<svg width="16" height="16" viewBox="0 0 16 16" fill="none" xmlns="http://www.w3.org/2000/svg">
<g clip-path="url(#clip0_21654_2218)">
<path d="M8.00036 11.6666C10.0254 11.6666 11.6673 10.025 11.6673 7.99966C11.6673 5.97434 10.0257 4.33271 8.00036 4.33271C5.97504 4.33271 4.33341 5.97434 4.33341 7.99966C4.33341 10.025 5.97504 11.6666 8.00036 11.6666Z" fill="white"/>
<path d="M4.82455 9.83374L1.64959 4.33447C1.00579 5.44925 0.666748 6.71381 0.666748 8.00113C0.666748 9.28846 1.0055 10.553 1.64931 11.6678C2.29311 12.7826 3.21892 13.7081 4.33399 14.3516C5.44905 14.9951 6.71362 15.3336 8.00094 15.3333L11.1759 9.83374C10.8544 10.3914 10.3915 10.8538 9.83413 11.1758C9.27674 11.4978 8.64416 11.6666 8.00036 11.6666C7.35655 11.6666 6.72456 11.4981 6.16689 11.1764C5.60921 10.8546 5.14631 10.3914 4.82455 9.83374Z" fill="url(#paint0_linear_21654_2218)"/>
<path d="M11.1759 9.83374L8.00094 15.3333C9.28826 15.3336 10.5526 14.9946 11.6673 14.3508C12.7821 13.7072 13.7079 12.7814 14.3514 11.6667C14.9949 10.5519 15.3337 9.28702 15.3334 7.9997C15.3331 6.71238 14.9941 5.44781 14.35 4.33332L8.00036 4.33271L7.99922 4.3339C8.64303 4.33361 9.2756 4.5027 9.83299 4.82446C10.3907 5.14622 10.8536 5.60912 11.1756 6.16651C11.4977 6.7239 11.6673 7.35586 11.6673 7.99966C11.6676 8.64318 11.4979 9.27607 11.1759 9.83374Z" fill="url(#paint1_linear_21654_2218)"/>
<path d="M8.00037 10.9033C9.60369 10.9033 10.9034 9.60359 10.9034 8.00027C10.9034 6.39695 9.60369 5.09725 8.00037 5.09725C6.39705 5.09725 5.09735 6.39695 5.09735 8.00027C5.09735 9.60359 6.39705 10.9033 8.00037 10.9033Z" fill="#1A73E8"/>
<path d="M8.00036 4.33271L14.35 4.33332C13.7065 3.21826 12.7812 2.2927 11.6665 1.64918C10.5517 1.00538 9.28711 0.666626 7.99979 0.666626C6.71247 0.666626 5.4479 1.00567 4.33312 1.64947C3.21835 2.29328 2.29282 3.21969 1.64959 4.33447L4.82455 9.83374L4.82541 9.83429C4.50337 9.27691 4.33341 8.64462 4.33341 8.00082C4.33341 7.35701 4.5025 6.72444 4.82426 6.16705C5.14602 5.60938 5.60892 5.14647 6.1666 4.82471C6.72399 4.50267 7.35655 4.33242 8.00036 4.33271Z" fill="url(#paint2_linear_21654_2218)"/>
</g>
<defs>
<linearGradient id="paint0_linear_21654_2218" x1="12.0094" y1="14.7225" x2="3.7382" y2="-0.271121" gradientUnits="userSpaceOnUse">
<stop stop-color="#1E8E3E"/>
<stop offset="1" stop-color="#34A853"/>
</linearGradient>
<linearGradient id="paint1_linear_21654_2218" x1="-1.47037" y1="15.3593" x2="5.08582" y2="-1.67173" gradientUnits="userSpaceOnUse">
<stop stop-color="#FCC934"/>
<stop offset="1" stop-color="#FBBC04"/>
</linearGradient>
<linearGradient id="paint2_linear_21654_2218" x1="1.64962" y1="5.25045" x2="14.3505" y2="5.25045" gradientUnits="userSpaceOnUse">
<stop stop-color="#D93025"/>
<stop offset="1" stop-color="#EA4335"/>
</linearGradient>
<clipPath id="clip0_21654_2218">
<rect width="16" height="16" fill="white"/>
</clipPath>
</defs>
</svg>
