<svg width="16" height="16" viewBox="0 0 16 16" fill="none" xmlns="http://www.w3.org/2000/svg">
<path d="M3.49231 5.5276C3.91881 3.42798 5.77453 1.84814 7.9998 1.84814C10.2251 1.84814 12.0808 3.42798 12.5073 5.5276C13.8978 5.78905 14.9498 7.00976 14.9498 8.47618C14.9498 10.1332 13.6065 11.4765 11.9495 11.4765H11.4045C11.3526 11.4088 11.2957 11.3437 11.2338 11.2818L10.7575 10.8055L11.2336 10.3294C11.2827 10.2803 11.3286 10.2293 11.3714 10.1765H11.9495C12.8885 10.1765 13.6498 9.41526 13.6498 8.47618C13.6498 7.53711 12.8885 6.77584 11.9495 6.77584L11.94 6.77586C11.6 6.77768 11.316 6.51709 11.2886 6.17814C11.1518 4.48225 9.73129 3.14814 7.9998 3.14814C6.26832 3.14814 4.84778 4.48225 4.71098 6.17813C4.68369 6.51643 4.40072 6.77678 4.06133 6.77587L4.05015 6.77584C3.11107 6.77584 2.3498 7.53711 2.3498 8.47618C2.3498 9.41526 3.11107 10.1765 4.05015 10.1765H4.62823C4.67098 10.2293 4.71689 10.2803 4.76597 10.3294L5.24209 10.8055L4.76584 11.2818C4.70388 11.3437 4.64696 11.4088 4.59509 11.4765H4.05015C2.3931 11.4765 1.0498 10.1332 1.0498 8.47618C1.0498 7.00976 2.10183 5.78904 3.49231 5.5276Z" fill="black"/>
<path d="M10.3145 8.4909C10.5683 8.74474 10.5683 9.1563 10.3145 9.41014L8.91909 10.8055L10.3146 12.201C10.5684 12.4548 10.5684 12.8664 10.3146 13.1202C10.0607 13.3741 9.64918 13.3741 9.39534 13.1202L7.99985 11.7247L6.60437 13.1202C6.35053 13.3741 5.93897 13.3741 5.68513 13.1202C5.43129 12.8664 5.43129 12.4548 5.68513 12.201L7.08061 10.8055L5.68525 9.41014C5.43141 9.1563 5.43141 8.74474 5.68525 8.4909C5.93909 8.23706 6.35065 8.23706 6.60449 8.4909L7.99985 9.88626L9.39521 8.4909C9.64905 8.23706 10.0606 8.23706 10.3145 8.4909Z" fill="black"/>
</svg>
