<svg width="16" height="16" viewBox="0 0 16 16" fill="none" xmlns="http://www.w3.org/2000/svg">
<path d="M4.49148 5.18134C4.49148 4.82235 4.78249 4.53134 5.14148 4.53134H10.8584C11.2173 4.53134 11.5084 4.82235 11.5084 5.18134C11.5084 5.54032 11.2173 5.83134 10.8584 5.83134H5.14148C4.78249 5.83134 4.49148 5.54032 4.49148 5.18134Z" fill="black"/>
<path d="M5.14148 7.15402C4.78249 7.15402 4.49148 7.44503 4.49148 7.80402C4.49148 8.163 4.78249 8.45402 5.14148 8.45402H7.99992C8.3589 8.45402 8.64992 8.163 8.64992 7.80402C8.64992 7.44503 8.3589 7.15402 7.99992 7.15402H5.14148Z" fill="black"/>
<path fill-rule="evenodd" clip-rule="evenodd" d="M1 3.62036C1 2.17061 2.17525 0.995361 3.625 0.995361H12.375C13.8247 0.995361 15 2.17061 15 3.62036V9.57364C15 11.0234 13.8247 12.1986 12.375 12.1986H5.4648C5.21934 12.1986 4.98517 12.3017 4.81942 12.4828L2.82461 14.6617C2.17773 15.3683 1.00009 14.9106 1.00015 13.9526L1.00038 9.61885C1.00013 9.60381 1 9.58874 1 9.57364V3.62036ZM2.30038 9.61892L2.30018 13.3093L3.86056 11.6049C4.27257 11.1549 4.85466 10.8986 5.4648 10.8986H12.375C13.1068 10.8986 13.7 10.3054 13.7 9.57364V3.62036C13.7 2.88858 13.1068 2.29536 12.375 2.29536H3.625C2.89322 2.29536 2.3 2.88858 2.3 3.62036V9.57364L2.30038 9.61892Z" fill="black"/>
</svg>
