<svg width="16" height="16" viewBox="0 0 16 16" fill="none" xmlns="http://www.w3.org/2000/svg">
<path d="M9.3851 12.2015C9.3851 12.9663 8.76505 13.5864 8.00017 13.5864C7.23529 13.5864 6.61523 12.9663 6.61523 12.2015C6.61523 11.4366 7.23529 10.8165 8.00017 10.8165C8.76505 10.8165 9.3851 11.4366 9.3851 12.2015Z" fill="black"/>
<g opacity="0.1">
<path d="M2.17808 6.32347C3.68785 4.86925 5.73897 3.97603 8.00007 3.97603C10.2612 3.97603 12.3123 4.86925 13.8221 6.32347C14.0806 6.57251 14.4921 6.5648 14.7411 6.30625C14.9902 6.04769 14.9825 5.63621 14.7239 5.38717C12.9816 3.70901 10.6108 2.67603 8.00007 2.67603C5.38932 2.67603 3.01849 3.70901 1.27622 5.38717C1.01767 5.63621 1.00996 6.04769 1.259 6.30625C1.50804 6.5648 1.91952 6.57251 2.17808 6.32347Z" fill="black"/>
<path d="M8.00008 6.71132C6.38004 6.71132 4.91989 7.39132 3.88761 8.48331C3.641 8.74418 3.22961 8.75575 2.96873 8.50914C2.70786 8.26253 2.6963 7.85113 2.94291 7.59026C4.21051 6.24934 6.00795 5.41132 8.00008 5.41132C9.9922 5.41132 11.7896 6.24934 13.0572 7.59026C13.3039 7.85113 13.2923 8.26253 13.0314 8.50914C12.7705 8.75575 12.3591 8.74418 12.1125 8.48331C11.0803 7.39132 9.62011 6.71132 8.00008 6.71132Z" fill="black"/>
<path d="M8.00019 9.43898C7.0738 9.43898 6.24807 9.8681 5.71002 10.5409C5.48582 10.8213 5.07679 10.8668 4.79642 10.6426C4.51605 10.4184 4.47052 10.0094 4.69472 9.72905C5.46886 8.76096 6.66211 8.13898 8.00019 8.13898C9.33827 8.13898 10.5315 8.76096 11.3057 9.72905C11.5299 10.0094 11.4843 10.4184 11.204 10.6426C10.9236 10.8668 10.5146 10.8213 10.2904 10.5409C9.75231 9.8681 8.92658 9.43898 8.00019 9.43898Z" fill="black"/>
</g>
</svg>
