<svg width="16" height="16" viewBox="0 0 16 16" fill="none" xmlns="http://www.w3.org/2000/svg">
<path fill-rule="evenodd" clip-rule="evenodd" d="M2.28589 1.31147C2.03205 1.05763 1.62049 1.05763 1.36665 1.31147C1.11281 1.56532 1.11281 1.97687 1.36665 2.23071L2.53397 3.39803C1.60065 4.43849 1.63411 6.03944 2.63438 7.0397L4.48701 8.89233C4.74085 9.14618 5.15241 9.14618 5.40625 8.89233L5.75962 8.53897L7.1392 9.91854C7.39304 10.1724 7.80459 10.1724 8.05843 9.91853C8.31227 9.66469 8.31227 9.25314 8.05843 8.9993L6.6791 7.61997L7.74961 6.54946L9.12894 7.92879C9.38278 8.18263 9.79434 8.18263 10.0482 7.92879C10.302 7.67495 10.302 7.26339 10.0482 7.00955L8.66861 5.62998L9.01164 5.28694C9.26548 5.0331 9.26548 4.62155 9.01164 4.36771L7.15901 2.51507C6.13717 1.49324 4.48846 1.48035 3.45081 2.4764L2.28589 1.31147ZM3.55361 6.12046C3.02641 5.59325 3.02641 4.73848 3.55362 4.21127L4.33058 3.43431C4.85779 2.9071 5.71256 2.9071 6.23977 3.43431L7.63278 4.82732L4.94663 7.51348L3.55361 6.12046Z" fill="black"/>
<path fill-rule="evenodd" clip-rule="evenodd" d="M14.0064 13.2987C15.0413 12.2638 15.0413 10.586 14.0064 9.55107L12.4286 7.9732C12.1747 7.71936 11.7632 7.71936 11.5093 7.9732L7.90394 11.5786C7.6501 11.8324 7.6501 12.244 7.90394 12.4978L9.48181 14.0757C10.5167 15.1106 12.1946 15.1106 13.2295 14.0757L14.0064 13.2987ZM13.0872 10.4703C13.6144 10.9975 13.6144 11.8523 13.0872 12.3795L12.3102 13.1565C11.783 13.6837 10.9283 13.6837 10.401 13.1565L9.2828 12.0382L11.969 9.35206L13.0872 10.4703Z" fill="black"/>
</svg>
