<svg width="16" height="16" viewBox="0 0 16 16" fill="none" xmlns="http://www.w3.org/2000/svg">
<path d="M5.70992 10.5409C6.24797 9.86803 7.0737 9.43892 8.00009 9.43892C8.92648 9.43892 9.75221 9.86803 10.2903 10.5409C10.5145 10.8212 10.9235 10.8668 11.2039 10.6426C11.4842 10.4184 11.5298 10.0094 11.3056 9.72899C10.5314 8.7609 9.33817 8.13892 8.00009 8.13892C6.66201 8.13892 5.46876 8.7609 4.69462 9.72899C4.47042 10.0094 4.51596 10.4184 4.79632 10.6426C5.07669 10.8668 5.48572 10.8212 5.70992 10.5409Z" fill="black"/>
<path d="M8.00005 13.5863C8.76492 13.5863 9.38498 12.9663 9.38498 12.2014C9.38498 11.4365 8.76492 10.8164 8.00005 10.8164C7.23517 10.8164 6.61511 11.4365 6.61511 12.2014C6.61511 12.9663 7.23517 13.5863 8.00005 13.5863Z" fill="black"/>
<g opacity="0.1">
<path d="M2.17808 6.32347C3.68785 4.86925 5.73897 3.97603 8.00007 3.97603C10.2612 3.97603 12.3123 4.86925 13.8221 6.32347C14.0806 6.57251 14.4921 6.5648 14.7411 6.30625C14.9902 6.04769 14.9825 5.63621 14.7239 5.38717C12.9816 3.70901 10.6108 2.67603 8.00007 2.67603C5.38932 2.67603 3.01849 3.70901 1.27622 5.38717C1.01767 5.63621 1.00996 6.04769 1.259 6.30625C1.50804 6.5648 1.91952 6.57251 2.17808 6.32347Z" fill="black"/>
<path d="M3.88761 8.48331C4.91989 7.39132 6.38004 6.71132 8.00008 6.71132C9.62011 6.71132 11.0803 7.39132 12.1125 8.48331C12.3591 8.74418 12.7705 8.75575 13.0314 8.50914C13.2923 8.26253 13.3039 7.85113 13.0572 7.59026C11.7896 6.24934 9.9922 5.41132 8.00008 5.41132C6.00795 5.41132 4.21051 6.24934 2.94291 7.59026C2.6963 7.85113 2.70786 8.26253 2.96873 8.50914C3.22961 8.75575 3.641 8.74418 3.88761 8.48331Z" fill="black"/>
</g>
</svg>
