<svg width="16" height="16" viewBox="0 0 16 16" fill="none" xmlns="http://www.w3.org/2000/svg">
<path d="M5.91309 1.02075C5.5541 1.02075 5.26309 1.31177 5.26309 1.67075C5.26309 2.02974 5.5541 2.32075 5.91309 2.32075H10.8019C12.3759 2.32075 13.6519 3.59674 13.6519 5.17075L13.6519 10.1706C13.6519 10.5295 13.9429 10.8206 14.3019 10.8206C14.6609 10.8206 14.9519 10.5295 14.9519 10.1706L14.9519 5.17075C14.9519 2.87877 13.0939 1.02075 10.8019 1.02075L5.91309 1.02075Z" fill="black"/>
<path fill-rule="evenodd" clip-rule="evenodd" d="M1.08154 6.12456C1.08154 4.79907 2.15606 3.72455 3.48154 3.72455L9.86624 3.72455C11.1917 3.72455 12.2662 4.79907 12.2662 6.12455L12.2662 12.5093C12.2662 13.8347 11.1917 14.9093 9.86625 14.9093L3.48155 14.9093C2.15606 14.9093 1.08154 13.8347 1.08154 12.5093L1.08154 6.12456Z" fill="black"/>
</svg>
