<svg width="16" height="16" viewBox="0 0 16 16" fill="none" xmlns="http://www.w3.org/2000/svg">
<path d="M4.14185 3.22261C3.88801 2.96877 3.47645 2.96877 3.22261 3.22261C2.96877 3.47645 2.96877 3.88801 3.22261 4.14185L7.0808 8.00004L3.22264 11.8582C2.9688 12.112 2.9688 12.5236 3.22264 12.7774C3.47648 13.0313 3.88804 13.0313 4.14188 12.7774L8.00004 8.91928L11.8582 12.7774C12.112 13.0313 12.5236 13.0313 12.7774 12.7774C13.0313 12.5236 13.0313 12.112 12.7774 11.8582L8.91928 8.00004L12.7775 4.14185C13.0313 3.88801 13.0313 3.47645 12.7775 3.22261C12.5236 2.96877 12.1121 2.96877 11.8582 3.22261L8.00004 7.0808L4.14185 3.22261Z" fill="black"/>
</svg>
