<svg width="16" height="16" viewBox="0 0 16 16" fill="none" xmlns="http://www.w3.org/2000/svg">
<path fill-rule="evenodd" clip-rule="evenodd" d="M2.0166 4.31581C2.0166 3.41423 2.74748 2.68335 3.64906 2.68335H12.3508C12.9012 2.68335 13.3879 2.95571 13.6836 3.37299C14.9816 3.54444 15.9833 4.65526 15.9833 6.00004C15.9833 7.45267 14.8145 8.63231 13.366 8.64984C12.3887 10.6251 10.353 11.9833 7.99994 11.9833C4.69543 11.9833 2.0166 9.30452 2.0166 6.00002V4.31581ZM13.8533 7.24624C14.3407 7.0426 14.6833 6.56132 14.6833 6.00004C14.6833 5.49009 14.4005 5.04619 13.9833 4.81653V6.00002C13.9833 6.42737 13.9385 6.84426 13.8533 7.24624ZM7.99994 10.6833C10.5865 10.6833 12.6833 8.58655 12.6833 6.00002V4.31581C12.6833 4.1322 12.5344 3.98335 12.3508 3.98335H3.64906C3.46545 3.98335 3.3166 4.1322 3.3166 4.31581V6.00002C3.3166 8.58655 5.4134 10.6833 7.99994 10.6833Z" fill="black"/>
<path d="M2.68327 13.3333C2.68327 12.9744 2.97429 12.6833 3.33327 12.6833L12.6666 12.6834C13.0256 12.6834 13.3166 12.9744 13.3166 13.3334C13.3166 13.6923 13.0256 13.9834 12.6666 13.9834L3.33327 13.9833C2.97429 13.9833 2.68327 13.6923 2.68327 13.3333Z" fill="black"/>
</svg>
