<svg width="16" height="16" viewBox="0 0 16 16" fill="none" xmlns="http://www.w3.org/2000/svg">
<path fill-rule="evenodd" clip-rule="evenodd" d="M12.7311 2.05788C12.9398 1.76577 12.8721 1.35981 12.58 1.15115C12.2879 0.942497 11.8819 1.01016 11.6733 1.30227L7.3143 7.40482L7.20108 7.5625L5.86788 9.42982C4.85321 9.19871 3.61626 9.85209 2.90641 11.0723C2.08067 12.4917 2.28084 14.1406 3.35351 14.7552C4.42618 15.3698 5.96514 14.7174 6.79088 13.298C7.43057 12.1984 7.45457 10.9611 6.93419 10.1736L8.00017 8.68122L9.06615 10.1736C8.54577 10.9611 8.56976 12.1984 9.20945 13.298C10.0352 14.7174 11.5742 15.3698 12.6468 14.7552C13.7195 14.1406 13.9197 12.4917 13.0939 11.0723C12.3841 9.85209 11.1471 9.19871 10.1325 9.42982L8.79895 7.56292L12.7311 2.05788ZM3.70858 13.0589C3.75195 13.4161 3.89724 13.5685 3.99981 13.6272C4.10435 13.6871 4.31672 13.7369 4.6574 13.5925C4.99796 13.4481 5.3827 13.1333 5.6672 12.6443C5.95175 12.1552 6.03227 11.6703 5.98871 11.3114C5.94534 10.9542 5.80005 10.8018 5.69748 10.7431C5.59294 10.6832 5.38057 10.6334 5.03989 10.7778C4.69932 10.9222 4.31459 11.237 4.03009 11.726C3.74553 12.2151 3.66502 12.7 3.70858 13.0589ZM12.2918 13.0589C12.3353 12.7 12.2548 12.2151 11.9702 11.726C11.6857 11.237 11.301 10.9222 10.9604 10.7778C10.6198 10.6334 10.4074 10.6832 10.3029 10.7431C10.2003 10.8018 10.055 10.9542 10.0116 11.3114C9.96807 11.6703 10.0486 12.1552 10.3331 12.6443C10.6176 13.1333 11.0024 13.4481 11.3429 13.5925C11.6836 13.7369 11.896 13.6871 12.0005 13.6272C12.1031 13.5685 12.2484 13.4161 12.2918 13.0589Z" fill="black"/>
<path d="M3.26921 2.05788C3.06056 1.76577 3.12822 1.35981 3.42033 1.15115C3.71245 0.942497 4.11841 1.01016 4.32707 1.30227L7.20386 5.32979L6.40297 6.44515L3.26921 2.05788Z" fill="black"/>
</svg>
