<svg width="16" height="16" viewBox="0 0 16 16" fill="none" xmlns="http://www.w3.org/2000/svg">
<path d="M13.794 12.9782L13.0597 11.5737V8.7681L14.9461 12.3759C15.7456 13.9049 14.7186 15.7236 13.0486 15.8774C13.0462 15.4009 12.8803 14.9629 12.6041 14.6169C12.6119 14.6073 12.6195 14.5977 12.6271 14.5879H12.8192C13.6457 14.5879 14.177 13.7106 13.794 12.9782Z" fill="black"/>
<path d="M10.9006 7.44452C10.5381 7.49732 10.2597 7.80947 10.2597 8.18665V13.3283C10.2597 13.7425 10.5955 14.0783 11.0097 14.0783C11.4239 14.0783 11.7597 13.7425 11.7597 13.3283L11.7597 8.18665C11.7597 7.82421 11.5026 7.52182 11.1608 7.45188C11.112 7.44189 11.0614 7.43665 11.0097 7.43665C10.9726 7.43665 10.9362 7.43933 10.9006 7.44452Z" fill="black"/>
<path d="M10.1267 3.1588L11.7573 6.27724C11.5256 6.18648 11.2735 6.13665 11.0097 6.13665C10.7548 6.13665 10.5107 6.18317 10.2856 6.2682L8.97471 3.76116C8.56317 2.97408 7.43667 2.97408 7.02512 3.76116L2.2058 12.9782C1.82286 13.7106 2.35414 14.5879 3.18059 14.5879H9.39219C9.3998 14.5977 9.40749 14.6073 9.41526 14.6169C9.13706 14.9655 8.97075 15.4073 8.97075 15.8879H3.18059C1.37741 15.8879 0.218267 13.9738 1.05378 12.3759L5.8731 3.1588C6.77101 1.44153 9.22882 1.44153 10.1267 3.1588Z" fill="black"/>
<path d="M10.5337 15.3227C10.3729 15.4583 10.2708 15.6612 10.2707 15.8879C10.2707 15.8879 10.2707 15.8879 10.2707 15.8879C10.2707 16.296 10.6016 16.6268 11.0097 16.6268C11.4178 16.6268 11.7486 16.296 11.7486 15.8879C11.7486 15.8879 11.7486 15.8879 11.7486 15.8879C11.7486 15.6612 11.6465 15.4583 11.4857 15.3227C11.3571 15.2143 11.191 15.149 11.0097 15.149C10.8283 15.149 10.6622 15.2143 10.5337 15.3227Z" fill="black"/>
</svg>
