<svg width="16" height="16" viewBox="0 0 16 16" fill="none" xmlns="http://www.w3.org/2000/svg">
<path d="M8.76481 11.9655C8.76481 12.3879 8.42235 12.7304 7.99989 12.7304C7.57743 12.7304 7.23496 12.3879 7.23496 11.9655C7.23496 11.543 7.57743 11.2005 7.99989 11.2005C8.42235 11.2005 8.76481 11.543 8.76481 11.9655Z" fill="black"/>
<path d="M7.99961 5.66953V7.66953H9.99961C9.99961 8.7741 9.10418 9.66953 7.99961 9.66953C6.89504 9.66953 5.99961 8.7741 5.99961 7.66953C5.99961 6.56496 6.89504 5.66953 7.99961 5.66953Z" fill="black"/>
<path fill-rule="evenodd" clip-rule="evenodd" d="M5.86523 1.01611C4.62259 1.01611 3.61523 2.02347 3.61523 3.26611V12.7341C3.61523 13.9768 4.6226 14.9841 5.86524 14.9841H10.1344C11.377 14.9841 12.3844 13.9768 12.3844 12.7341V3.26611C12.3844 2.02347 11.377 1.01611 10.1344 1.01611H5.86523ZM4.91523 3.26611C4.91523 2.74144 5.34056 2.31611 5.86523 2.31611H6.69297V3.04487C6.69297 3.32101 6.91683 3.54487 7.19297 3.54487H8.80573C9.08187 3.54487 9.30573 3.32101 9.30573 3.04487V2.31611H10.1344C10.659 2.31611 11.0844 2.74144 11.0844 3.26611V12.7341C11.0844 13.2588 10.659 13.6842 10.1344 13.6842H5.86524C5.34056 13.6842 4.91523 13.2588 4.91523 12.7341V3.26611Z" fill="black"/>
</svg>
