<svg width="16" height="16" viewBox="0 0 16 16" fill="none" xmlns="http://www.w3.org/2000/svg">
<path d="M3.68054 1.65024C3.68054 1.29126 3.38953 1.00024 3.03054 1.00024C2.67156 1.00024 2.38054 1.29126 2.38054 1.65024V6.61397C2.38054 6.96998 2.41609 7.31769 2.48383 7.65375L3.68054 6.45703L3.68054 1.65024Z" fill="black"/>
<path d="M4.6123 9.15623L8.749 5.01953C9.00284 4.76569 9.00284 4.35413 8.749 4.10029C8.49516 3.84645 8.0836 3.84645 7.82976 4.10029L1.19209 10.738C0.938249 10.9918 0.938249 11.4034 1.19209 11.6572C1.44593 11.911 1.85749 11.911 2.11133 11.6572L3.69071 10.0778C4.64968 11.1632 6.05205 11.8477 7.61429 11.8477L11.3993 11.8477L9.37146 13.8755C9.11762 14.1294 9.11762 14.5409 9.37146 14.7948C9.6253 15.0486 10.0369 15.0486 10.2907 14.7948L13.4282 11.6573C13.682 11.4034 13.682 10.9919 13.4282 10.738L10.2907 7.60054C10.0369 7.3467 9.6253 7.3467 9.37146 7.60054C9.11762 7.85438 9.11762 8.26593 9.37146 8.51978L11.3994 10.5477L7.61429 10.5477C6.41099 10.5477 5.33388 10.0074 4.6123 9.15623Z" fill="black"/>
</svg>
