<svg width="16" height="16" viewBox="0 0 16 16" fill="none" xmlns="http://www.w3.org/2000/svg">
<path d="M3.49231 5.5276C3.91881 3.42798 5.77453 1.84814 7.9998 1.84814C10.2251 1.84814 12.0808 3.42798 12.5073 5.5276C13.8978 5.78905 14.9498 7.00976 14.9498 8.47618C14.9498 9.99256 13.8249 11.2462 12.364 11.4481C12.2951 11.162 12.1217 10.8498 11.8339 10.5207C11.3235 10.0103 10.6007 9.842 9.95017 10.0157V6.99889C9.95017 5.92193 9.07712 5.04889 8.00017 5.04889C6.92321 5.04889 6.05017 5.92193 6.05017 6.99889V10.0158C5.39949 9.84189 4.67637 10.0102 4.16587 10.5207C3.90035 10.7862 3.72741 11.1092 3.64705 11.4497C2.18062 11.2528 1.0498 9.99653 1.0498 8.47618C1.0498 7.00976 2.10183 5.78904 3.49231 5.5276Z" fill="black"/>
<path d="M8.47135 14.8027C8.35913 14.9206 8.20309 14.9964 8.02934 15.004C7.8534 15.0119 7.67488 14.9486 7.54054 14.8143L5.0854 12.3592C4.83156 12.1053 4.83156 11.6938 5.0854 11.4399C5.33924 11.1861 5.7508 11.1861 6.00464 11.4399L7.35046 12.7857V6.99891C7.35046 6.63992 7.64148 6.34891 8.00046 6.34891C8.35945 6.34891 8.65046 6.63992 8.65046 6.99891V12.7851L9.99568 11.4399C10.2495 11.1861 10.6611 11.1861 10.9149 11.4399C11.1688 11.6938 11.1688 12.1053 10.9149 12.3592L8.47135 14.8027Z" fill="black"/>
</svg>
