<svg width="16" height="17" viewBox="0 0 16 17" fill="none" xmlns="http://www.w3.org/2000/svg">
<path d="M4.74138 9.33158L7.52867 12.1189C7.64687 12.2412 7.81268 12.3173 7.99626 12.3173C8.0795 12.3173 8.15909 12.3017 8.23224 12.2732C8.31375 12.2415 8.39016 12.1927 8.45596 12.1269L11.2513 9.33158C11.5051 9.07774 11.5051 8.66618 11.2513 8.41234C10.9975 8.1585 10.5859 8.1585 10.3321 8.41234L8.64618 10.0982L8.64593 2.66731C8.64591 2.30833 8.35489 2.01732 7.9959 2.01733C7.63692 2.01735 7.34591 2.30837 7.34593 2.66736L7.34618 10.0979L5.66062 8.41234C5.40678 8.1585 4.99522 8.1585 4.74138 8.41234C4.48754 8.66619 4.48754 9.07774 4.74138 9.33158Z" fill="black"/>
<path d="M11.0536 4.40475C10.6946 4.40475 10.4036 4.69576 10.4036 5.05474C10.4036 5.41373 10.6946 5.70475 11.0536 5.70475L12.7512 5.70476C13.2758 5.70477 13.7012 6.1301 13.7012 6.65476V13.6017C13.7012 14.1263 13.2758 14.5517 12.7512 14.5517H3.25195C2.72728 14.5517 2.30195 14.1263 2.30195 13.6017V6.65478C2.30195 6.13011 2.72728 5.70478 3.25195 5.70478H4.88255C5.24154 5.70478 5.53255 5.41376 5.53255 5.05478C5.53255 4.69579 5.24154 4.40478 4.88255 4.40478H3.25195C2.00931 4.40478 1.00195 5.41214 1.00195 6.65478V13.6017C1.00195 14.8443 2.00931 15.8517 3.25195 15.8517H12.7512C13.9938 15.8517 15.0012 14.8443 15.0012 13.6017V6.65476C15.0012 5.41213 13.9938 4.40477 12.7512 4.40476L11.0536 4.40475Z" fill="black"/>
</svg>
