<svg width="16" height="16" viewBox="0 0 16 16" fill="none" xmlns="http://www.w3.org/2000/svg">
<path d="M5.60432 4.64615C6.39814 4.64615 7.04166 4.00263 7.04166 3.20882C7.04166 2.415 6.39814 1.77148 5.60432 1.77148C4.81051 1.77148 4.16699 2.415 4.16699 3.20882C4.16699 4.00263 4.81051 4.64615 5.60432 4.64615Z" fill="black"/>
<path d="M5.60432 9.43729C6.39814 9.43729 7.04166 8.79377 7.04166 7.99995C7.04166 7.20614 6.39814 6.56262 5.60432 6.56262C4.81051 6.56262 4.16699 7.20614 4.16699 7.99995C4.16699 8.79377 4.81051 9.43729 5.60432 9.43729Z" fill="black"/>
<path d="M7.04166 12.791C7.04166 13.5848 6.39814 14.2284 5.60432 14.2284C4.81051 14.2284 4.16699 13.5848 4.16699 12.791C4.16699 11.9972 4.81051 11.3537 5.60432 11.3537C6.39814 11.3537 7.04166 11.9972 7.04166 12.791Z" fill="black"/>
<path d="M10.3955 4.64615C11.1893 4.64615 11.8328 4.00263 11.8328 3.20882C11.8328 2.415 11.1893 1.77148 10.3955 1.77148C9.60165 1.77148 8.95813 2.415 8.95813 3.20882C8.95813 4.00263 9.60165 4.64615 10.3955 4.64615Z" fill="black"/>
<path d="M11.8328 7.99995C11.8328 8.79377 11.1893 9.43729 10.3955 9.43729C9.60165 9.43729 8.95813 8.79377 8.95813 7.99995C8.95813 7.20614 9.60165 6.56262 10.3955 6.56262C11.1893 6.56262 11.8328 7.20614 11.8328 7.99995Z" fill="black"/>
<path d="M10.3955 14.2284C11.1893 14.2284 11.8328 13.5848 11.8328 12.791C11.8328 11.9972 11.1893 11.3537 10.3955 11.3537C9.60165 11.3537 8.95813 11.9972 8.95813 12.791C8.95813 13.5848 9.60165 14.2284 10.3955 14.2284Z" fill="black"/>
</svg>
