<svg width="16" height="16" viewBox="0 0 16 16" fill="none" xmlns="http://www.w3.org/2000/svg">
<path d="M2.0001 1.3501C1.64111 1.3501 1.3501 1.64111 1.3501 2.0001C1.3501 2.35908 1.64111 2.6501 2.0001 2.6501H14.0001C14.3591 2.6501 14.6501 2.35908 14.6501 2.0001C14.6501 1.64111 14.3591 1.3501 14.0001 1.3501H2.0001Z" fill="black"/>
<path d="M2.0001 9.3501C1.64111 9.3501 1.3501 9.64111 1.3501 10.0001C1.3501 10.3591 1.64111 10.6501 2.0001 10.6501H14.0001C14.3591 10.6501 14.6501 10.3591 14.6501 10.0001C14.6501 9.64111 14.3591 9.3501 14.0001 9.3501H2.0001Z" fill="black"/>
<path d="M2.0001 5.3501C1.64111 5.3501 1.3501 5.64111 1.3501 6.0001C1.3501 6.35908 1.64111 6.6501 2.0001 6.6501H14.0001C14.3591 6.6501 14.6501 6.35908 14.6501 6.0001C14.6501 5.64111 14.3591 5.3501 14.0001 5.3501H2.0001Z" fill="black" fill-opacity="0.1"/>
<path d="M2.0001 13.3501C1.64111 13.3501 1.3501 13.6411 1.3501 14.0001C1.3501 14.3591 1.64111 14.6501 2.0001 14.6501H14.0001C14.3591 14.6501 14.6501 14.3591 14.6501 14.0001C14.6501 13.6411 14.3591 13.3501 14.0001 13.3501H2.0001Z" fill="black" fill-opacity="0.1"/>
</svg>
