<svg width="16" height="16" viewBox="0 0 16 16" fill="none" xmlns="http://www.w3.org/2000/svg">
<path fill-rule="evenodd" clip-rule="evenodd" d="M4.95137 1.09961C3.81918 1.09961 2.90137 2.01743 2.90137 3.14961V12.9616C2.90137 14.0938 3.81918 15.0116 4.95137 15.0116H10.9127C10.5682 14.6515 10.4175 14.1742 10.4607 13.7116H4.95137C4.53715 13.7116 4.20137 13.3759 4.20137 12.9616V3.14961C4.20137 2.7354 4.53715 2.39961 4.95137 2.39961H8.17139L8.17139 4.54298C8.17138 5.67517 9.0892 6.59299 10.2214 6.59299H12.1131V7.89066C12.5363 7.89132 12.9593 8.0531 13.2822 8.37598L13.4131 8.50691V6.15654C13.4131 5.86547 13.3028 5.58523 13.1043 5.37233L9.46172 1.4654C9.2442 1.23209 8.93956 1.09961 8.62058 1.09961H4.95137ZM11.2529 5.29299L9.47139 3.38214L9.47139 4.54298C9.47139 4.9572 9.80717 5.29299 10.2214 5.29299H11.2529Z" fill="black"/>
<path d="M11.6508 9.08806C11.9047 8.83421 12.3162 8.83421 12.5701 9.08806L14.7258 11.2438C14.7414 11.2592 14.7563 11.2753 14.7703 11.2922C14.8019 11.3302 14.8284 11.3708 14.85 11.4134C14.8948 11.5016 14.92 11.6015 14.92 11.7072C14.92 11.8232 14.8896 11.9321 14.8363 12.0264C14.8246 12.0473 14.8115 12.0677 14.7972 12.0874C14.7753 12.1178 14.7508 12.1462 14.7241 12.1723L12.5701 14.3263C12.3162 14.5801 11.9047 14.5801 11.6508 14.3263C11.397 14.0724 11.397 13.6609 11.6508 13.4071L12.7007 12.3572H8.78818C8.4292 12.3572 8.13818 12.0662 8.13818 11.7072C8.13818 11.3482 8.4292 11.0572 8.78818 11.0572H12.7007L11.6508 10.0073C11.397 9.75345 11.397 9.3419 11.6508 9.08806Z" fill="black"/>
</svg>
