<svg width="16" height="16" viewBox="0 0 16 16" fill="none" xmlns="http://www.w3.org/2000/svg">
<g clip-path="url(#clip0_7068_380)">
<path d="M6.00697 9.92515C6.00697 9.56616 5.71596 9.27515 5.35697 9.27515C4.99799 9.27515 4.70697 9.56616 4.70697 9.92515V11.7769C4.70697 12.1359 4.99799 12.4269 5.35697 12.4269C5.71596 12.4269 6.00697 12.1359 6.00697 11.7769V9.92515Z" fill="black"/>
<path d="M7.99631 9.27515C8.3553 9.27515 8.64631 9.56616 8.64631 9.92515V11.7769C8.64631 12.1359 8.3553 12.4269 7.99631 12.4269C7.63733 12.4269 7.34631 12.1359 7.34631 11.7769V9.92515C7.34631 9.56616 7.63733 9.27515 7.99631 9.27515Z" fill="black"/>
<path d="M11.2857 9.92515C11.2857 9.56616 10.9946 9.27515 10.6357 9.27515C10.2767 9.27515 9.98566 9.56616 9.98566 9.92515V11.7769C9.98566 12.1359 10.2767 12.4269 10.6357 12.4269C10.9946 12.4269 11.2857 12.1359 11.2857 11.7769V9.92515Z" fill="black"/>
<path fill-rule="evenodd" clip-rule="evenodd" d="M11.2644 1.53134C11.2995 1.20077 11.5783 0.949951 11.9108 0.949951H13.7874C14.1198 0.949951 14.3986 1.20077 14.4337 1.53133L15.0391 7.23345C15.0415 7.25624 15.0427 7.27915 15.0427 7.30207V8.59194L15.0428 8.60207V13.1C15.0428 14.1769 14.1697 15.0499 13.0928 15.0499H2.90801C1.83105 15.0499 0.958008 14.1769 0.958008 13.0999V7.30207C0.958008 7.25603 0.962795 7.21111 0.971897 7.16777C1.02405 6.7684 1.22111 6.39904 1.52969 6.1326L4.78766 3.3196C4.98012 3.15342 5.2518 3.11473 5.48299 3.22056C5.71419 3.32639 5.86245 3.55731 5.86245 3.81158L5.86246 5.49886L8.37192 3.3207C8.56417 3.15383 8.83614 3.11455 9.06776 3.22021C9.29937 3.32587 9.44799 3.55701 9.44799 3.81158V6.65207H10.7208L11.2644 1.53134ZM13.7427 8.59612C13.7395 8.23987 13.4498 7.95207 13.0928 7.95207H8.80283C8.49997 7.95207 8.24549 7.74494 8.17332 7.46461C8.15682 7.40737 8.14799 7.34688 8.14799 7.28432L8.14799 5.23647L5.63853 7.41462C5.44628 7.5815 5.1743 7.62078 4.94269 7.51512C4.71107 7.40946 4.56246 7.17832 4.56246 6.92375L4.56246 5.23157L2.37927 7.11658C2.30227 7.18306 2.25801 7.27976 2.25801 7.38149V13.0999C2.25801 13.4589 2.54902 13.7499 2.90801 13.7499H13.0928C13.4517 13.7499 13.7428 13.4589 13.7428 13.1L13.7427 8.59612ZM13.2027 2.24995L13.6796 6.74192C13.4944 6.68355 13.2973 6.65207 13.0928 6.65207H12.0281L12.4954 2.24995H13.2027Z" fill="black"/>
</g>
<defs>
<clipPath id="clip0_7068_380">
<rect width="16" height="16" fill="white"/>
</clipPath>
</defs>
</svg>
