<svg width="16" height="16" viewBox="0 0 16 16" fill="none" xmlns="http://www.w3.org/2000/svg">
<path fill-rule="evenodd" clip-rule="evenodd" d="M2.35596 3.1584C2.35596 2.02622 3.27377 1.1084 4.40596 1.1084H8.07517C8.39415 1.1084 8.69879 1.24088 8.91631 1.47418L12.5589 5.38112C12.7573 5.59402 12.8677 5.87426 12.8677 6.16533V7.96868C12.7806 8.02751 12.6979 8.09547 12.6208 8.17255L11.5677 9.22563V6.60181H9.67598C8.54379 6.60181 7.62598 5.68399 7.62598 4.5518L7.62598 2.4084H4.40596C3.99174 2.4084 3.65596 2.74418 3.65596 3.1584V12.9704C3.65596 13.3847 3.99174 13.7204 4.40596 13.7204H7.6489C7.64609 13.7598 7.64467 13.7994 7.64467 13.8391L7.64465 14.8375C7.64465 14.8995 7.64855 14.9605 7.6561 15.0204H4.40596C3.27377 15.0204 2.35596 14.1026 2.35596 12.9704V3.1584ZM8.92598 3.39093L10.7075 5.30181H9.67598C9.26177 5.30181 8.92598 4.96602 8.92598 4.5518L8.92598 3.39093Z" fill="black"/>
<path d="M6.94468 7.98435C6.94468 8.53664 6.49696 8.98435 5.94468 8.98435C5.39239 8.98435 4.94468 8.53664 4.94468 7.98435C4.94468 7.43207 5.39239 6.98435 5.94468 6.98435C6.49696 6.98435 6.94468 7.43207 6.94468 7.98435Z" fill="black"/>
<path d="M6.94468 11.3177C6.94468 11.8699 6.49696 12.3177 5.94468 12.3177C5.39239 12.3177 4.94468 11.8699 4.94468 11.3177C4.94468 10.7654 5.39239 10.3177 5.94468 10.3177C6.49696 10.3177 6.94468 10.7654 6.94468 11.3177Z" fill="black"/>
<path d="M14.8372 9.87013C14.9805 10.0134 14.9805 10.2457 14.8372 10.389L14.1623 11.0639L12.8652 9.76676L13.5401 9.09184C13.6834 8.94855 13.9157 8.94855 14.0589 9.09184L14.8372 9.87013Z" fill="black"/>
<path d="M12.3938 10.2382L13.6909 11.5353L10.3493 14.8769C10.2805 14.9457 10.1872 14.9844 10.0899 14.9844L9.09146 14.9844C9.01041 14.9844 8.9447 14.9187 8.9447 14.8376L8.94472 13.8392C8.94472 13.7419 8.98338 13.6486 9.05218 13.5798L12.3938 10.2382Z" fill="black"/>
</svg>
