<svg width="16" height="16" viewBox="0 0 16 16" fill="none" xmlns="http://www.w3.org/2000/svg">
<path d="M6.7066 6.96179C6.34762 6.96179 6.0566 7.25281 6.0566 7.61179C6.0566 7.97078 6.34762 8.26179 6.7066 8.26179H11.3506C11.7096 8.26179 12.0006 7.97078 12.0006 7.61179C12.0006 7.25281 11.7096 6.96179 11.3506 6.96179H6.7066Z" fill="black"/>
<path d="M6.05662 10.3974C6.05662 10.0385 6.34764 9.74744 6.70662 9.74744H9.0286C9.38759 9.74744 9.6786 10.0385 9.6786 10.3974C9.6786 10.7564 9.38759 11.0474 9.0286 11.0474H6.70662C6.34764 11.0474 6.05662 10.7564 6.05662 10.3974Z" fill="black"/>
<path fill-rule="evenodd" clip-rule="evenodd" d="M3.77271 2.07051C3.77271 0.938324 4.69052 0.0205078 5.82271 0.0205078H9.49192C9.8109 0.0205078 10.1155 0.15299 10.3331 0.386294L13.9756 4.29323C14.1741 4.50613 14.2845 4.78637 14.2845 5.07744V11.6825C14.2845 12.9252 13.2771 13.9325 12.0345 13.9325H5.8227C4.69052 13.9325 3.77271 13.0147 3.77271 11.8825V2.07051ZM5.82271 1.32051C5.40849 1.32051 5.07271 1.65629 5.07271 2.07051V11.8825C5.07271 12.2968 5.40849 12.6325 5.8227 12.6325H12.0345C12.5591 12.6325 12.9845 12.2072 12.9845 11.6825V5.51398H11.0927C9.96054 5.51398 9.04273 4.59616 9.04273 3.46397L9.04273 1.32051H5.82271ZM10.3427 2.30304L12.1244 4.21398H11.0927C10.6785 4.21398 10.3427 3.87819 10.3427 3.46397L10.3427 2.30304Z" fill="black"/>
<path d="M3.01582 9.36997C3.01582 9.01099 2.72481 8.71997 2.36582 8.71997C2.00684 8.71997 1.71582 9.01099 1.71582 9.36997V12.339C1.71582 14.3548 3.34998 15.989 5.36582 15.989H7.69147C8.05045 15.989 8.34147 15.6979 8.34147 15.339C8.34147 14.98 8.05045 14.689 7.69147 14.689H5.36582C4.06795 14.689 3.01582 13.6368 3.01582 12.339V9.36997Z" fill="black"/>
</svg>
