<svg width="16" height="16" viewBox="0 0 16 16" fill="none" xmlns="http://www.w3.org/2000/svg">
<path fill-rule="evenodd" clip-rule="evenodd" d="M4.04436 3.09858C4.04436 2.68437 4.38015 2.34858 4.79436 2.34858H8.01439L8.01438 4.49199C8.01438 5.62417 8.9322 6.54199 10.0644 6.54199H11.9561V8.01367H13.2561V6.10552C13.2561 5.81445 13.1457 5.5342 12.9473 5.3213L9.30471 1.41437C9.0872 1.18107 8.78255 1.04858 8.46358 1.04858H4.79436C3.66218 1.04858 2.74436 1.9664 2.74436 3.09858V8.01367H4.04436V3.09858ZM11.0959 5.24199L9.31438 3.33111L9.31438 4.49199C9.31438 4.9062 9.65017 5.24199 10.0644 5.24199H11.0959Z" fill="black"/>
<path fill-rule="evenodd" clip-rule="evenodd" d="M2.74436 10.6011H2.01816C1.65918 10.6011 1.36816 10.3101 1.36816 9.95114C1.36816 9.59216 1.65918 9.30114 2.01816 9.30114H13.9825C14.3415 9.30114 14.6325 9.59216 14.6325 9.95114C14.6325 10.3101 14.3415 10.6011 13.9825 10.6011H13.2561V12.7106C13.2561 13.9533 12.2488 14.9606 11.0061 14.9606H4.79436C3.66218 14.9606 2.74436 14.0428 2.74436 12.9106V10.6011ZM4.04436 10.6011V12.9106C4.04436 13.3248 4.38015 13.6606 4.79436 13.6606H11.0061C11.5308 13.6606 11.9561 13.2353 11.9561 12.7106V10.6011H4.04436Z" fill="black"/>
</svg>
