<svg width="16" height="16" viewBox="0 0 16 16" fill="none" xmlns="http://www.w3.org/2000/svg">
<path fill-rule="evenodd" clip-rule="evenodd" d="M2.90186 3.14497C2.90186 2.01279 3.81967 1.09497 4.95186 1.09497H8.62107C8.94005 1.09497 9.24469 1.22745 9.46221 1.46076L13.1047 5.36769C13.3032 5.58059 13.4136 5.86083 13.4136 6.15191V10.8198C13.039 10.5064 12.5748 10.3551 12.1136 10.3659V6.58835H10.2219C9.08969 6.58835 8.17188 5.67053 8.17188 4.53834L8.17188 2.39497H4.95186C4.53764 2.39497 4.20186 2.73076 4.20186 3.14497V12.957C4.20186 13.3712 4.53764 13.707 4.95186 13.707H6.45758L7.75758 15.007H4.95186C3.81967 15.007 2.90186 14.0892 2.90186 12.957V3.14497ZM9.47188 3.3775L11.2534 5.28835H10.2219C9.80766 5.28835 9.47188 4.95256 9.47188 4.53835L9.47188 3.3775Z" fill="black"/>
<path d="M10.0001 8.3501C10.3591 8.3501 10.6501 8.64111 10.6501 9.0001V12.9127L11.7 11.8628C11.9538 11.6089 12.3654 11.6089 12.6192 11.8628C12.8731 12.1166 12.8731 12.5282 12.6192 12.782L10.462 14.9392C10.4542 14.9472 10.4461 14.9549 10.4378 14.9624C10.3846 15.011 10.3253 15.0491 10.2625 15.0768C10.1823 15.1122 10.0935 15.1319 10.0001 15.1319C9.90565 15.1319 9.8159 15.1118 9.73492 15.0755C9.67514 15.0488 9.61857 15.0127 9.56747 14.967C9.55726 14.9579 9.54735 14.9485 9.53773 14.9388L7.38099 12.782C7.12714 12.5282 7.12714 12.1166 7.38099 11.8628C7.63483 11.6089 8.04638 11.6089 8.30022 11.8628L9.3501 12.9127V9.0001C9.3501 8.64111 9.64112 8.3501 10.0001 8.3501Z" fill="black"/>
</svg>
