<svg width="16" height="16" viewBox="0 0 16 16" fill="none" xmlns="http://www.w3.org/2000/svg">
<path fill-rule="evenodd" clip-rule="evenodd" d="M2.74414 3.09858C2.74414 1.9664 3.66196 1.04858 4.79414 1.04858H8.46336C8.78233 1.04858 9.08698 1.18107 9.30449 1.41437L12.947 5.3213C13.1455 5.5342 13.2559 5.81445 13.2559 6.10552V8.29673C12.9544 7.93257 12.4994 7.70444 11.9972 7.70444H11.9559V6.54199H10.0642C8.93198 6.54199 8.01416 5.62417 8.01416 4.49199L8.01417 2.34858H4.79414C4.37993 2.34858 4.04414 2.68437 4.04414 3.09858V12.9106C4.04414 13.3248 4.37993 13.6606 4.79414 13.6606H7.37174C7.38975 13.696 7.40916 13.731 7.42999 13.7655L7.93296 14.5986C8.01579 14.7358 8.11611 14.857 8.22956 14.9606H4.79414C3.66196 14.9606 2.74414 14.0428 2.74414 12.9106V3.09858ZM9.31416 3.33111L11.0957 5.24199H10.0642C9.64995 5.24199 9.31416 4.9062 9.31416 4.49199L9.31416 3.33111Z" fill="black"/>
<path fill-rule="evenodd" clip-rule="evenodd" d="M11.9973 9.00443C12.1631 9.00443 12.3037 9.12623 12.3272 9.29031L12.4153 9.9026C12.5966 9.97626 12.7666 10.0711 12.9218 10.1839L13.5372 9.94408C13.6883 9.88521 13.8598 9.94358 13.9436 10.0824L14.4466 10.9155C14.5354 11.0626 14.4978 11.2531 14.3598 11.3555L13.8475 11.7355C13.8583 11.8238 13.8638 11.9135 13.8638 12.0043C13.8638 12.0953 13.8583 12.1852 13.8475 12.2736L14.3594 12.6538C14.4973 12.7562 14.5348 12.9466 14.4461 13.0937L13.9431 13.9268C13.8593 14.0656 13.6877 14.124 13.5366 14.065L12.9215 13.825C12.7664 13.9378 12.5965 14.0325 12.4153 14.1061L12.3272 14.7185C12.3037 14.8826 12.1631 15.0044 11.9973 15.0044H10.9914C10.8255 15.0044 10.6849 14.8825 10.6614 14.7184L10.5737 14.1061C10.3924 14.0325 10.2225 13.9378 10.0674 13.825L9.45248 14.065C9.30138 14.1239 9.12979 14.0656 9.04596 13.9267L8.54299 13.0936C8.45421 12.9466 8.49171 12.7561 8.62962 12.6537L9.1414 12.2737C9.13058 12.1853 9.12502 12.0954 9.12502 12.0043C9.12502 11.9135 9.13056 11.8237 9.14135 11.7354L8.62926 11.3555C8.49126 11.2531 8.4537 11.0626 8.54251 10.9155L9.04548 10.0824C9.12927 9.94363 9.30079 9.88525 9.45186 9.94412L10.0671 10.1839C10.2223 10.071 10.3923 9.97622 10.5737 9.90255L10.6614 9.29047C10.6849 9.12632 10.8255 9.00443 10.9914 9.00443H11.9973ZM12.2278 12.0044C12.2278 12.4094 11.8995 12.7377 11.4945 12.7377C11.0895 12.7377 10.7612 12.4094 10.7612 12.0044C10.7612 11.5994 11.0895 11.2711 11.4945 11.2711C11.8995 11.2711 12.2278 11.5994 12.2278 12.0044Z" fill="black"/>
</svg>
