<svg width="16" height="16" viewBox="0 0 16 16" fill="none" xmlns="http://www.w3.org/2000/svg">
<path d="M6.3038 9.34767C6.8281 9.34767 7.25313 8.92264 7.25313 8.39834C7.25313 7.87404 6.8281 7.44901 6.3038 7.44901C5.7795 7.44901 5.35447 7.87404 5.35447 8.39834C5.35447 8.92264 5.7795 9.34767 6.3038 9.34767Z" fill="black"/>
<path d="M10.6455 8.39834C10.6455 8.92264 10.2204 9.34767 9.69613 9.34767C9.17183 9.34767 8.7468 8.92264 8.7468 8.39834C8.7468 7.87404 9.17183 7.44901 9.69613 7.44901C10.2204 7.44901 10.6455 7.87404 10.6455 8.39834Z" fill="black"/>
<path fill-rule="evenodd" clip-rule="evenodd" d="M8.98317 11.8541C8.97388 11.8429 8.95754 11.8239 8.93469 11.7996C8.8884 11.7505 8.81894 11.6836 8.73085 11.6171C8.54884 11.4799 8.3302 11.3761 8.093 11.3761C7.75737 11.3761 7.48215 11.5 7.28038 11.6365C7.18022 11.7043 7.10351 11.7717 7.05375 11.8201C7.02911 11.844 7.01179 11.8626 7.00222 11.8732L6.99413 11.8824C6.76833 12.1578 6.36227 12.2004 6.08416 11.9767C5.81092 11.7569 5.76225 11.3614 5.96984 11.0825C5.97477 11.0759 5.97984 11.0693 5.98506 11.0628C5.9915 11.0551 5.99793 11.0474 6.00448 11.0396C6.16143 10.8547 6.35162 10.6953 6.55198 10.5598C6.90021 10.3242 7.4257 10.0761 8.093 10.0761C8.71314 10.0761 9.20221 10.3444 9.51357 10.5792C9.67218 10.6988 9.79582 10.8179 9.88095 10.9082C9.92383 10.9538 9.95779 10.9929 9.98236 11.0224C9.99468 11.0372 10.0047 11.0497 10.0124 11.0594C10.2344 11.347 10.195 11.7677 9.89842 11.9902C9.60165 12.2128 9.20877 12.1307 8.98317 11.8541Z" fill="black"/>
<path fill-rule="evenodd" clip-rule="evenodd" d="M2.74414 3.09858C2.74414 1.9664 3.66196 1.04858 4.79414 1.04858H8.46336C8.78233 1.04858 9.08698 1.18107 9.30449 1.41437L12.947 5.3213C13.1455 5.5342 13.2559 5.81445 13.2559 6.10552V12.7106C13.2559 13.9533 12.2485 14.9606 11.0059 14.9606H4.79414C3.66196 14.9606 2.74414 14.0428 2.74414 12.9106V3.09858ZM4.79414 2.34858C4.37993 2.34858 4.04414 2.68437 4.04414 3.09858V12.9106C4.04414 13.3248 4.37993 13.6606 4.79414 13.6606H11.0059C11.5306 13.6606 11.9559 13.2353 11.9559 12.7106V6.54199H10.0642C8.93198 6.54199 8.01416 5.62417 8.01416 4.49199L8.01417 2.34858H4.79414ZM9.31416 3.33111L11.0957 5.24199H10.0642C9.64995 5.24199 9.31416 4.9062 9.31416 4.49199L9.31416 3.33111Z" fill="black"/>
</svg>
