<svg width="16" height="16" viewBox="0 0 16 16" fill="none" xmlns="http://www.w3.org/2000/svg">
<path fill-rule="evenodd" clip-rule="evenodd" d="M4.79414 1.04858C3.66196 1.04858 2.74414 1.9664 2.74414 3.09858V12.9106C2.74414 14.0428 3.66196 14.9606 4.79414 14.9606H7.65379C7.65017 14.9188 7.64831 14.8765 7.64832 14.8338L7.64833 13.8354C7.64834 13.7767 7.65143 13.7184 7.65752 13.6606H4.79414C4.37993 13.6606 4.04414 13.3248 4.04414 12.9106V3.09858C4.04414 2.68437 4.37993 2.34858 4.79414 2.34858H8.01417L8.01416 4.49199C8.01416 5.62417 8.93198 6.54199 10.0642 6.54199H11.9559V8.83738L12.6244 8.16883C12.8087 7.98462 13.0252 7.85254 13.2559 7.77258V6.10552C13.2559 5.81445 13.1455 5.5342 12.947 5.3213L9.30449 1.41437C9.08698 1.18107 8.78233 1.04858 8.46336 1.04858H4.79414ZM11.0957 5.24199L9.31416 3.33111L9.31416 4.49199C9.31416 4.9062 9.64995 5.24199 10.0642 5.24199H11.0957Z" fill="black"/>
<path d="M14.8409 9.86635C14.9842 10.0096 14.9842 10.2419 14.8409 10.3852L14.166 11.0601L12.8688 9.76298L13.5437 9.08805C13.687 8.94477 13.9193 8.94477 14.0626 9.08805L14.8409 9.86635Z" fill="black"/>
<path d="M12.3974 10.2344L13.6946 11.5315L10.353 14.8731C10.2842 14.9419 10.1909 14.9806 10.0936 14.9806L9.09512 14.9806C9.01407 14.9806 8.94836 14.9149 8.94836 14.8338L8.94838 13.8354C8.94838 13.7381 8.98704 13.6448 9.05584 13.576L12.3974 10.2344Z" fill="black"/>
</svg>
