<svg width="16" height="16" viewBox="0 0 16 16" fill="none" xmlns="http://www.w3.org/2000/svg">
<path d="M5.74719 10.1736C5.74719 9.81464 6.03821 9.52362 6.39719 9.52362H7.34998V8.57087C7.34998 8.21188 7.64099 7.92087 7.99998 7.92087C8.35896 7.92087 8.64998 8.21188 8.64998 8.57087V9.52362H9.6027C9.96168 9.52362 10.2527 9.81464 10.2527 10.1736C10.2527 10.5326 9.96168 10.8236 9.6027 10.8236H8.64998V11.7764C8.64998 12.1354 8.35896 12.4264 7.99998 12.4264C7.64099 12.4264 7.34998 12.1354 7.34998 11.7764V10.8236H6.39719C6.03821 10.8236 5.74719 10.5326 5.74719 10.1736Z" fill="black"/>
<path fill-rule="evenodd" clip-rule="evenodd" d="M4.79414 1.04858C3.66196 1.04858 2.74414 1.9664 2.74414 3.09858V12.9106C2.74414 14.0428 3.66196 14.9606 4.79414 14.9606H11.0059C12.2485 14.9606 13.2559 13.9533 13.2559 12.7106V6.10552C13.2559 5.81445 13.1455 5.5342 12.947 5.3213L9.30449 1.41437C9.08698 1.18107 8.78233 1.04858 8.46336 1.04858H4.79414ZM4.04414 3.09858C4.04414 2.68437 4.37993 2.34858 4.79414 2.34858H8.01417L8.01416 4.49199C8.01416 5.62417 8.93198 6.54199 10.0642 6.54199H11.9559V12.7106C11.9559 13.2353 11.5306 13.6606 11.0059 13.6606H4.79414C4.37993 13.6606 4.04414 13.3248 4.04414 12.9106V3.09858ZM11.0957 5.24199L9.31416 3.33111L9.31416 4.49199C9.31416 4.9062 9.64995 5.24199 10.0642 5.24199H11.0957Z" fill="black"/>
</svg>
