<svg width="16" height="16" viewBox="0 0 16 16" fill="none" xmlns="http://www.w3.org/2000/svg">
<path d="M10.3999 8.42538C10.6663 8.66592 10.6874 9.07694 10.4468 9.34341L8.02694 12.0242C7.90167 12.163 7.72269 12.2411 7.53574 12.2386C7.3488 12.2361 7.17198 12.1532 7.05046 12.0111L5.54164 10.2468C5.30831 9.97402 5.34033 9.56371 5.61315 9.33039C5.88597 9.09707 6.29628 9.12909 6.52961 9.40191L7.55763 10.604L9.48184 8.47233C9.72238 8.20585 10.1334 8.18483 10.3999 8.42538Z" fill="black"/>
<path fill-rule="evenodd" clip-rule="evenodd" d="M2.74414 3.09858C2.74414 1.9664 3.66196 1.04858 4.79414 1.04858H8.46336C8.78233 1.04858 9.08698 1.18107 9.30449 1.41437L12.947 5.3213C13.1455 5.5342 13.2559 5.81445 13.2559 6.10552V12.7106C13.2559 13.9533 12.2485 14.9606 11.0059 14.9606H4.79414C3.66196 14.9606 2.74414 14.0428 2.74414 12.9106V3.09858ZM4.79414 2.34858C4.37993 2.34858 4.04414 2.68437 4.04414 3.09858V12.9106C4.04414 13.3248 4.37993 13.6606 4.79414 13.6606H11.0059C11.5306 13.6606 11.9559 13.2353 11.9559 12.7106V6.54199H10.0642C8.93198 6.54199 8.01416 5.62417 8.01416 4.49199L8.01417 2.34858H4.79414ZM9.31416 3.33111L9.31416 4.49199C9.31416 4.9062 9.64995 5.24199 10.0642 5.24199H11.0957L9.31416 3.33111Z" fill="black"/>
</svg>
