<svg width="17" height="16" viewBox="0 0 17 16" fill="none" xmlns="http://www.w3.org/2000/svg">
<path d="M2.50722 4.32194C1.55884 2.93338 2.55322 1.05005 4.23474 1.05005H11.8014C13.4829 1.05005 14.4773 2.93338 13.5289 4.32193L10.1174 9.31685V9.9526H10.0877C9.60249 9.9526 9.15864 10.1298 8.81739 10.4231V9.11606C8.81739 8.98525 8.85686 8.85748 8.93064 8.74946L12.4554 3.58873C12.8144 3.06305 12.438 2.35005 11.8014 2.35005H4.23474C3.59814 2.35005 3.22168 3.06305 3.58073 3.58874L7.1055 8.7495C7.17928 8.85752 7.21875 8.98529 7.21875 9.1161V12.8507C7.21875 13.2922 7.57662 13.65 8.01807 13.65C8.30544 13.65 8.55739 13.4984 8.69826 13.2708C9.00406 13.5813 9.41315 13.7898 9.86985 13.8406C9.51615 14.5009 8.81956 14.95 8.01807 14.95C6.85865 14.95 5.91875 14.0102 5.91875 12.8507V9.31689L2.50722 4.32194Z" fill="black"/>
<path d="M10.0876 11.2526C9.72865 11.2526 9.43764 11.5436 9.43764 11.9026C9.43764 12.2616 9.72865 12.5526 10.0876 12.5526H13.8396C14.1986 12.5526 14.4896 12.2616 14.4896 11.9026C14.4896 11.5436 14.1986 11.2526 13.8396 11.2526H10.0876Z" fill="black"/>
</svg>
