<svg width="17" height="16" viewBox="0 0 17 16" fill="none" xmlns="http://www.w3.org/2000/svg">
<path d="M2.48915 4.32194C1.54078 2.93338 2.53515 1.05005 4.21667 1.05005H11.7833C13.4648 1.05005 14.4592 2.93338 13.5108 4.32193L10.0993 9.31685V9.9526H9.56064C9.29052 9.9526 9.03323 10.0075 8.79932 10.1068V9.11606C8.79932 8.98525 8.83879 8.85748 8.91257 8.74946L12.4373 3.58873C12.7964 3.06305 12.4199 2.35005 11.7833 2.35005H4.21667C3.58007 2.35005 3.20362 3.06305 3.56266 3.58874L7.08744 8.7495C7.16121 8.85752 7.20068 8.98529 7.20068 9.1161V12.8507C7.20068 13.2922 7.55855 13.65 8 13.65C8.16872 13.65 8.32524 13.5978 8.45423 13.5085C8.76858 13.7255 9.14977 13.8526 9.56064 13.8526H9.84529C9.48959 14.5063 8.79662 14.95 8 14.95C6.84058 14.95 5.90068 14.0102 5.90068 12.8507V9.31689L2.48915 4.32194Z" fill="black"/>
<path d="M8.91066 11.9026C8.91066 11.5436 9.20167 11.2526 9.56066 11.2526H11.3082V9.5048C11.3082 9.14581 11.5993 8.8548 11.9582 8.8548C12.3172 8.8548 12.6082 9.14581 12.6082 9.5048V11.2526H14.3558C14.7148 11.2526 15.0058 11.5436 15.0058 11.9026C15.0058 12.2615 14.7148 12.5526 14.3558 12.5526H12.6082V14.3C12.6082 14.6589 12.3172 14.95 11.9582 14.95C11.5993 14.95 11.3082 14.6589 11.3082 14.3V12.5526H9.56066C9.20167 12.5526 8.91066 12.2615 8.91066 11.9026Z" fill="black"/>
</svg>
