<svg width="16" height="16" viewBox="0 0 16 16" fill="none" xmlns="http://www.w3.org/2000/svg">
<path fill-rule="evenodd" clip-rule="evenodd" d="M4 1C2.34315 1 1 2.34315 1 4V12C1 13.6569 2.34315 15 4 15H10.189C10.1679 14.8632 10.157 14.7233 10.157 14.5815V13.7H6.24784V6.68739C9.14266 6.68739 15 6.69065 15 6.69065V4C15 2.34315 13.6569 1 12 1H4ZM12 2.3H4C3.06112 2.3 2.3 3.06112 2.3 4V5.38739H13.7V4C13.7 3.06112 12.9389 2.3 12 2.3ZM4.94784 6.68739H2.3V12C2.3 12.9389 3.06112 13.7 4 13.7H4.94784V6.68739Z" fill="black"/>
<path fill-rule="evenodd" clip-rule="evenodd" d="M10.6469 7.98361C9.54796 7.98361 8.89807 9.24789 9.51789 10.18L11.2462 12.7792V14.5815C11.2462 15.3593 11.8601 15.9898 12.6173 15.9898C13.3745 15.9898 13.9884 15.3593 13.9884 14.5815V12.7792L15.7167 10.18C16.3365 9.24789 15.6866 7.98361 14.5877 7.98361H10.6469ZM10.5357 9.46602C10.4746 9.37416 10.5386 9.24957 10.6469 9.24957H14.5877C14.696 9.24957 14.76 9.37416 14.6989 9.46602L12.8632 12.2267C12.7933 12.3319 12.7559 12.4563 12.7559 12.5837V14.5815C12.7559 14.6601 12.6938 14.7238 12.6173 14.7238C12.5408 14.7238 12.4788 14.6601 12.4788 14.5815V12.5837C12.4788 12.4563 12.4413 12.3319 12.3714 12.2267L10.5357 9.46602Z" fill="black"/>
</svg>
