<svg width="16" height="16" viewBox="0 0 16 16" fill="none" xmlns="http://www.w3.org/2000/svg">
<path d="M3.10062 3.19453C2.68595 3.19453 2.3498 3.53068 2.3498 3.94534V12.0549C2.3498 12.4695 2.68595 12.8057 3.10062 12.8057H7.87482V13.0036C7.87482 13.3932 7.95035 13.7652 8.08756 14.1057H3.10062C1.96798 14.1057 1.0498 13.1875 1.0498 12.0549V3.94534C1.0498 2.81271 1.96798 1.89453 3.10062 1.89453H5.948C6.53185 1.89453 7.09231 2.12392 7.50862 2.53326L8.27822 3.28998H12.899C14.0316 3.28998 14.9498 4.20816 14.9498 5.34079V6.8481C14.6107 6.41563 14.1639 6.07161 13.6498 5.85638V5.34079C13.6498 4.92613 13.3137 4.58998 12.899 4.58998H8.01219C7.8417 4.58998 7.67803 4.52299 7.55647 4.40346L6.59717 3.46022C6.424 3.28995 6.19086 3.19453 5.948 3.19453H3.10062Z" fill="black"/>
<path fill-rule="evenodd" clip-rule="evenodd" d="M10.4621 8.84462C10.4621 7.77421 11.3298 6.90646 12.4003 6.90646C13.4707 6.90646 14.3384 7.77421 14.3384 8.84462V9.51823C15.0819 9.6785 15.6391 10.3398 15.6391 11.1312V13.0036C15.6391 13.9149 14.9003 14.6536 13.9891 14.6536H10.8249C9.9136 14.6536 9.17487 13.9149 9.17487 13.0036V11.1312C9.17487 10.3445 9.72534 9.68647 10.4621 9.52118V8.84462ZM13.0384 8.84462V9.48117H11.7621V8.84462C11.7621 8.49218 12.0478 8.20646 12.4003 8.20646C12.7527 8.20646 13.0384 8.49218 13.0384 8.84462ZM10.8249 10.7812C10.6316 10.7812 10.4749 10.9379 10.4749 11.1312V13.0036C10.4749 13.1969 10.6316 13.3536 10.8249 13.3536H13.9891C14.1824 13.3536 14.3391 13.1969 14.3391 13.0036V11.1312C14.3391 10.9379 14.1824 10.7812 13.9891 10.7812H10.8249Z" fill="black"/>
</svg>
