<svg width="16" height="16" viewBox="0 0 16 16" fill="none" xmlns="http://www.w3.org/2000/svg">
<path d="M5.34155 8.676C5.34155 8.31702 5.63257 8.026 5.99155 8.026H7.34979V6.66776C7.34979 6.30878 7.64081 6.01776 7.99979 6.01776C8.35878 6.01776 8.64979 6.30878 8.64979 6.66776V8.026H10.008C10.367 8.026 10.658 8.31702 10.658 8.676C10.658 9.03499 10.367 9.326 10.008 9.326H8.64979V10.6842C8.64979 11.0432 8.35878 11.3342 7.99979 11.3342C7.64081 11.3342 7.34979 11.0432 7.34979 10.6842V9.326H5.99155C5.63257 9.326 5.34155 9.03499 5.34155 8.676Z" fill="black"/>
<path fill-rule="evenodd" clip-rule="evenodd" d="M1.0498 3.9451C1.0498 2.81247 1.96798 1.89429 3.10062 1.89429H5.948C6.53185 1.89429 7.09231 2.12367 7.50862 2.53301L8.27822 3.28973H12.899C14.0316 3.28973 14.9498 4.20791 14.9498 5.34054V12.0546C14.9498 13.1872 14.0316 14.1054 12.899 14.1054H3.10062C1.96798 14.1054 1.0498 13.1872 1.0498 12.0546V3.9451ZM3.10062 3.19429C2.68595 3.19429 2.3498 3.53044 2.3498 3.9451V12.0546C2.3498 12.4693 2.68595 12.8054 3.10062 12.8054H12.899C13.3137 12.8054 13.6498 12.4693 13.6498 12.0546V5.34054C13.6498 4.92588 13.3137 4.58973 12.899 4.58973H8.01219C7.8417 4.58973 7.67804 4.52275 7.55647 4.40321L6.59717 3.45998C6.424 3.28971 6.19086 3.19429 5.948 3.19429H3.10062Z" fill="black"/>
</svg>
