<svg width="16" height="16" viewBox="0 0 16 16" fill="none" xmlns="http://www.w3.org/2000/svg">
<path d="M8.00036 12.2543C7.18012 12.2543 6.43401 12.0962 5.762 11.78C5.09989 11.4538 4.56624 10.9696 4.16106 10.3272C3.76577 9.67501 3.56812 8.87454 3.56812 7.92583V1.69995H5.88059V7.92583C5.88059 8.65713 6.09306 9.19572 6.518 9.5416C6.95283 9.88748 7.44695 10.0604 8.00036 10.0604C8.55377 10.0604 9.04295 9.88748 9.46789 9.5416C9.90271 9.19572 10.1201 8.65713 10.1201 7.92583V1.69995H12.4326V7.92583C12.4326 8.87454 12.23 9.67501 11.8248 10.3272C11.4295 10.9696 10.8959 11.4538 10.2239 11.78C9.56177 12.0962 8.82059 12.2543 8.00036 12.2543Z" fill="black"/>
<path d="M2.67871 13.5588H13.322V14.3H2.67871V13.5588Z" fill="black"/>
</svg>
