<svg width="16" height="16" viewBox="0 0 16 16" fill="none" xmlns="http://www.w3.org/2000/svg">
<path d="M5.19102 5.55859C5.55 5.55859 5.84102 5.84961 5.84102 6.20859V6.65286H6.28533C6.64432 6.65286 6.93533 6.94388 6.93533 7.30286C6.93533 7.66185 6.64432 7.95286 6.28533 7.95286H5.84102V8.39721C5.84102 8.7562 5.55 9.04721 5.19102 9.04721C4.83203 9.04721 4.54102 8.7562 4.54102 8.39721V7.95286H4.09671C3.73773 7.95286 3.44671 7.66185 3.44671 7.30286C3.44671 6.94388 3.73773 6.65286 4.09671 6.65286H4.54102V6.20859C4.54102 5.84961 4.83203 5.55859 5.19102 5.55859Z" fill="black"/>
<path d="M12.1405 6.00456C12.1405 6.39347 11.8253 6.70874 11.4364 6.70874C11.0475 6.70874 10.7322 6.39347 10.7322 6.00456C10.7322 5.61566 11.0475 5.30039 11.4364 5.30039C11.8253 5.30039 12.1405 5.61566 12.1405 6.00456Z" fill="black"/>
<path d="M10.028 8.81048C10.4169 8.81048 10.7322 8.49521 10.7322 8.10631C10.7322 7.71741 10.4169 7.40214 10.028 7.40214C9.63911 7.40214 9.32384 7.71741 9.32384 8.10631C9.32384 8.49521 9.63911 8.81048 10.028 8.81048Z" fill="black"/>
<path fill-rule="evenodd" clip-rule="evenodd" d="M1.0498 5.74444C1.0498 3.91726 2.53103 2.43604 4.35821 2.43604H11.6414C13.4686 2.43604 14.9498 3.91726 14.9498 5.74444V10.4793C14.9498 12.1828 13.5688 13.5638 11.8653 13.5638C10.9922 13.5638 10.2028 13.2001 9.64248 12.6177C9.35794 12.322 9.09001 12.0564 8.80988 11.862C8.53451 11.6709 8.29255 11.581 8.06199 11.581H7.93762C7.70706 11.581 7.4651 11.6709 7.18973 11.862C6.9096 12.0564 6.64167 12.322 6.35713 12.6177C5.79677 13.2001 5.00743 13.5638 4.13427 13.5638C2.43077 13.5638 1.0498 12.1828 1.0498 10.4793V5.74444ZM4.35821 3.73604C3.249 3.73604 2.3498 4.63523 2.3498 5.74444V10.4793C2.3498 11.4648 3.14874 12.2638 4.13427 12.2638C4.63957 12.2638 5.09491 12.0546 5.42035 11.7164C5.70298 11.4226 6.05048 11.0702 6.44851 10.794C6.85129 10.5145 7.35018 10.281 7.93762 10.281H8.06199C8.64943 10.281 9.14832 10.5145 9.5511 10.794C9.94913 11.0702 10.2966 11.4226 10.5793 11.7164C10.9047 12.0546 11.36 12.2638 11.8653 12.2638C12.8509 12.2638 13.6498 11.4648 13.6498 10.4793V5.74444C13.6498 4.63523 12.7506 3.73604 11.6414 3.73604H4.35821Z" fill="black"/>
</svg>
