<svg width="16" height="16" viewBox="0 0 16 16" fill="none" xmlns="http://www.w3.org/2000/svg">
<path d="M12.6498 13.5683C13.1745 13.5683 13.5998 13.143 13.5998 12.6183L13.5998 3.38184C13.5998 2.85717 13.1745 2.43184 12.6498 2.43184L3.35059 2.43184C2.82592 2.43184 2.40059 2.85717 2.40059 3.38184L2.40059 8.51948C2.40059 8.87846 2.10957 9.16948 1.75059 9.16948C1.3916 9.16948 1.10059 8.87846 1.10059 8.51948V3.38184C1.10059 2.1392 2.10795 1.13184 3.35059 1.13184H12.6498C13.8924 1.13184 14.8998 2.1392 14.8998 3.38184V12.6183C14.8998 13.8609 13.8924 14.8683 12.6498 14.8683H6.98278C6.6238 14.8683 6.33278 14.5773 6.33278 14.2183C6.33278 13.8593 6.6238 13.5683 6.98278 13.5683H12.6498Z" fill="black"/>
<path d="M3.1591 12.6567C2.90526 12.4028 2.90526 11.9913 3.1591 11.7374L8.65592 6.24061L5.53155 6.24061C5.17257 6.24061 4.88155 5.9496 4.88155 5.59061C4.88155 5.23163 5.17257 4.94061 5.53155 4.94061L10.2251 4.94061C10.3231 4.94061 10.416 4.96229 10.4993 5.0011C10.5525 5.02583 10.603 5.05815 10.6493 5.09805C10.6727 5.11826 10.6947 5.14012 10.7151 5.16344C10.7598 5.21466 10.7952 5.27122 10.8212 5.33088C10.8556 5.40987 10.8749 5.49705 10.8751 5.58868C10.8751 5.58932 10.8751 5.58997 10.8751 5.59061L10.8751 9.99796C10.8751 10.3569 10.5841 10.648 10.2251 10.648C9.86615 10.648 9.57513 10.3569 9.57513 9.99796V7.15988L4.07834 12.6567C3.8245 12.9105 3.41294 12.9105 3.1591 12.6567Z" fill="black"/>
</svg>
