<svg width="16" height="16" viewBox="0 0 16 16" fill="none" xmlns="http://www.w3.org/2000/svg">
<path fill-rule="evenodd" clip-rule="evenodd" d="M2.33472 1.9355C2.08088 1.68166 1.66932 1.68166 1.41548 1.9355C1.16164 2.18934 1.16164 2.6009 1.41548 2.85474L3.36301 4.80227C3.21888 4.91274 3.08126 5.02527 2.95033 5.13867C2.35688 5.65268 1.8882 6.19514 1.56296 6.66871C1.40066 6.90504 1.26818 7.13278 1.17358 7.33893C1.08876 7.52377 1 7.76328 1 7.99992C1 8.23382 1.08608 8.47158 1.16972 8.65703C1.26266 8.86314 1.39309 9.09101 1.55341 9.32769C1.87464 9.8019 2.33879 10.3451 2.92969 10.8599C4.10981 11.8881 5.84302 12.8418 8 12.8418C9.05274 12.8418 10.0055 12.6237 10.843 12.2822L12.89 14.3293C13.1439 14.5831 13.5554 14.5831 13.8093 14.3293C14.0631 14.0755 14.0631 13.6639 13.8093 13.4101L2.33472 1.9355ZM9.30866 10.7479L8.27886 9.71812C8.18806 9.73249 8.09495 9.73995 8.00011 9.73995C7.02247 9.73995 6.22993 8.94741 6.22993 7.96977C6.22993 7.87493 6.23739 7.78182 6.25176 7.69101L5.22196 6.66122C5.03466 7.05817 4.92993 7.50174 4.92993 7.96977C4.92993 9.66538 6.3045 11.0399 8.00011 11.0399C8.46814 11.0399 8.91171 10.9352 9.30866 10.7479Z" fill="black"/>
<path d="M10.9626 8.77856C11.0328 8.52088 11.0703 8.2497 11.0703 7.96977C11.0703 6.27416 9.69572 4.8996 8.00011 4.8996C7.72018 4.8996 7.449 4.93706 7.19132 5.00725L5.71801 3.53394C6.41341 3.30031 7.17692 3.15808 8 3.15808C10.1238 3.15808 11.8551 4.06704 13.0447 5.07674C13.6401 5.58207 14.1119 6.12232 14.4399 6.608C14.6037 6.85055 14.7374 7.08801 14.8325 7.30842C14.9219 7.51564 15 7.75958 15 7.99992C15 8.23775 14.9242 8.48011 14.8362 8.68766C14.7428 8.90796 14.6112 9.14551 14.4494 9.38841C14.1294 9.86873 13.6697 10.4024 13.0872 10.9032L10.9626 8.77856Z" fill="black"/>
</svg>
