<svg width="16" height="16" viewBox="0 0 16 16" fill="none" xmlns="http://www.w3.org/2000/svg">
<path fill-rule="evenodd" clip-rule="evenodd" d="M8 15C11.866 15 15 11.866 15 8C15 4.13401 11.866 1 8 1C4.13401 1 1 4.13401 1 8C1 11.866 4.13401 15 8 15ZM8.0001 3.90363C8.35908 3.90363 8.6501 4.19464 8.6501 4.55363V7.66794L11.1491 9.22157C11.454 9.4111 11.5475 9.8119 11.358 10.1168C11.1684 10.4216 10.7676 10.5151 10.4628 10.3256L7.65691 8.58123C7.46611 8.46261 7.3501 8.25388 7.3501 8.02921V4.55363C7.3501 4.19464 7.64111 3.90363 8.0001 3.90363Z" fill="black"/>
</svg>
