<svg width="16" height="16" viewBox="0 0 16 16" fill="none" xmlns="http://www.w3.org/2000/svg">
<path d="M6.66675 2.47619C6.66675 2.2132 6.86573 2 7.11119 2H8.88897C9.13443 2 9.33342 2.2132 9.33342 2.47619V3.90476C9.33342 4.69374 8.73646 5.33333 8.00008 5.33333C7.2637 5.33333 6.66675 4.69374 6.66675 3.90476V2.47619Z" fill="black"/>
<path d="M4.32246 10.6833V8.64998H6.35579V10.6833H4.32246Z" fill="black"/>
<path fill-rule="evenodd" clip-rule="evenodd" d="M5.3667 3H3.5C2.11929 3 1 4.11929 1 5.5V12.5C1 13.8807 2.11929 15 3.5 15H12.5C13.8807 15 15 13.8807 15 12.5V5.5C15 4.11929 13.8807 3 12.5 3H10.6334V3.90477C10.6334 5.32579 9.5374 6.63335 8.00003 6.63335C6.46266 6.63335 5.3667 5.32579 5.3667 3.90477V3ZM4.17246 7.34998C3.53733 7.34998 3.02246 7.86485 3.02246 8.49998V10.8333C3.02246 11.4684 3.53733 11.9833 4.17246 11.9833H6.50579C7.14092 11.9833 7.65579 11.4684 7.65579 10.8333V8.49998C7.65579 7.86485 7.14092 7.34998 6.50579 7.34998H4.17246ZM9.33359 7.34998C8.97461 7.34998 8.68359 7.64099 8.68359 7.99998C8.68359 8.35896 8.97461 8.64998 9.33359 8.64998H12.3456C12.7045 8.64998 12.9956 8.35896 12.9956 7.99998C12.9956 7.64099 12.7045 7.34998 12.3456 7.34998H9.33359ZM8.68359 10.358C8.68359 9.99902 8.97461 9.70801 9.33359 9.70801H12.3456C12.7045 9.70801 12.9956 9.99902 12.9956 10.358C12.9956 10.717 12.7045 11.008 12.3456 11.008H9.33359C8.97461 11.008 8.68359 10.717 8.68359 10.358Z" fill="black"/>
</svg>
