<svg width="16" height="16" viewBox="0 0 16 16" fill="none" xmlns="http://www.w3.org/2000/svg">
<path d="M1.3501 4.0666C1.3501 2.93442 2.26791 2.0166 3.4001 2.0166H4.66676C5.02575 2.0166 5.31676 2.30762 5.31676 2.6666C5.31676 3.02559 5.02575 3.3166 4.66676 3.3166H3.4001C2.98588 3.3166 2.6501 3.65239 2.6501 4.0666V4.6666C2.6501 5.02559 2.35908 5.3166 2.0001 5.3166C1.64111 5.3166 1.3501 5.02559 1.3501 4.6666V4.0666Z" fill="black"/>
<path d="M10.6834 2.6666C10.6834 2.30762 10.9744 2.0166 11.3334 2.0166H12.6001C13.7323 2.0166 14.6501 2.93442 14.6501 4.0666V4.6666C14.6501 5.02559 14.3591 5.3166 14.0001 5.3166C13.6411 5.3166 13.3501 5.02559 13.3501 4.6666V4.0666C13.3501 3.65239 13.0143 3.3166 12.6001 3.3166H11.3334C10.9744 3.3166 10.6834 3.02559 10.6834 2.6666Z" fill="black"/>
<path d="M2.0001 10.6833C2.35908 10.6833 2.6501 10.9743 2.6501 11.3333V11.9333C2.6501 12.3475 2.98588 12.6833 3.4001 12.6833H4.66676C5.02575 12.6833 5.31676 12.9743 5.31676 13.3333C5.31676 13.6923 5.02575 13.9833 4.66676 13.9833H3.4001C2.26791 13.9833 1.3501 13.0655 1.3501 11.9333V11.3333C1.3501 10.9743 1.64111 10.6833 2.0001 10.6833Z" fill="black"/>
<path d="M14.0001 10.6833C14.3591 10.6833 14.6501 10.9743 14.6501 11.3333V11.9333C14.6501 13.0655 13.7323 13.9833 12.6001 13.9833H11.3334C10.9744 13.9833 10.6834 13.6923 10.6834 13.3333C10.6834 12.9743 10.9744 12.6833 11.3334 12.6833H12.6001C13.0143 12.6833 13.3501 12.3475 13.3501 11.9333V11.3333C13.3501 10.9743 13.6411 10.6833 14.0001 10.6833Z" fill="black"/>
<path d="M6.68347 2.6666C6.68347 2.30762 6.97449 2.0166 7.33347 2.0166H8.66681C9.02579 2.0166 9.3168 2.30762 9.3168 2.6666C9.3168 3.02559 9.02579 3.3166 8.66681 3.3166H7.33347C6.97449 3.3166 6.68347 3.02559 6.68347 2.6666Z" fill="black"/>
<path d="M7.33347 12.6833C6.97449 12.6833 6.68347 12.9743 6.68347 13.3333C6.68347 13.6922 6.97449 13.9833 7.33347 13.9833H8.66681C9.02579 13.9833 9.3168 13.6922 9.3168 13.3333C9.3168 12.9743 9.02579 12.6833 8.66681 12.6833H7.33347Z" fill="black"/>
<path d="M14.0001 9.3166C13.6411 9.3166 13.3501 9.02559 13.3501 8.6666V7.33327C13.3501 6.97428 13.6411 6.68327 14.0001 6.68327C14.3591 6.68327 14.6501 6.97428 14.6501 7.33327V8.6666C14.6501 9.02559 14.3591 9.3166 14.0001 9.3166Z" fill="black"/>
<path d="M6.79305 5.87364C6.53921 5.6198 6.12765 5.6198 5.87381 5.87364C5.61997 6.12748 5.61997 6.53904 5.87381 6.79288L6.43086 7.34993H2.0001C1.64111 7.34993 1.3501 7.64094 1.3501 7.99992C1.3501 8.35891 1.64111 8.64992 2.0001 8.64992H6.43086L5.87381 9.20697C5.61997 9.46081 5.61997 9.87237 5.87381 10.1262C6.12765 10.3801 6.53921 10.3801 6.79305 10.1262L8.45972 8.45954C8.58162 8.33765 8.6501 8.17232 8.6501 7.99992C8.6501 7.82753 8.58162 7.6622 8.45972 7.54031L6.79305 5.87364Z" fill="black"/>
</svg>
