<svg width="16" height="16" viewBox="0 0 16 16" fill="none" xmlns="http://www.w3.org/2000/svg">
<path d="M5.33333 2C3.49267 2 2 3.49267 2 5.33333V10.6667C2 12.5073 3.49267 14 5.33333 14H10.6667C12.5073 14 14 12.5073 14 10.6667V5.33333C14 3.49267 12.5073 2 10.6667 2H5.33333ZM12 3.33333C12.368 3.33333 12.6667 3.632 12.6667 4C12.6667 4.368 12.368 4.66667 12 4.66667C11.632 4.66667 11.3333 4.368 11.3333 4C11.3333 3.632 11.632 3.33333 12 3.33333ZM8 4.66667C9.84067 4.66667 11.3333 6.15933 11.3333 8C11.3333 9.84067 9.84067 11.3333 8 11.3333C6.15933 11.3333 4.66667 9.84067 4.66667 8C4.66667 6.15933 6.15933 4.66667 8 4.66667ZM8 6C7.46957 6 6.96086 6.21071 6.58579 6.58579C6.21071 6.96086 6 7.46957 6 8C6 8.53043 6.21071 9.03914 6.58579 9.41421C6.96086 9.78929 7.46957 10 8 10C8.53043 10 9.03914 9.78929 9.41421 9.41421C9.78929 9.03914 10 8.53043 10 8C10 7.46957 9.78929 6.96086 9.41421 6.58579C9.03914 6.21071 8.53043 6 8 6Z" fill="black"/>
</svg>
