<svg width="16" height="16" viewBox="0 0 16 16" fill="none" xmlns="http://www.w3.org/2000/svg">
<path d="M6.99951 12.1319C6.99951 11.7729 7.29053 11.4819 7.64951 11.4819H8.35068C8.70967 11.4819 9.00068 11.7729 9.00068 12.1319C9.00068 12.4909 8.70967 12.7819 8.35068 12.7819H7.64951C7.29053 12.7819 6.99951 12.4909 6.99951 12.1319Z" fill="black"/>
<path fill-rule="evenodd" clip-rule="evenodd" d="M3.61572 3.26587C3.61572 2.02323 4.62308 1.01587 5.86572 1.01587H10.1348C11.3775 1.01587 12.3848 2.02323 12.3848 3.26587V12.7339C12.3848 13.9765 11.3775 14.9839 10.1348 14.9839H5.86572C4.62308 14.9839 3.61572 13.9765 3.61572 12.7339V3.26587ZM5.86572 2.31587C5.34105 2.31587 4.91572 2.7412 4.91572 3.26587V12.7339C4.91572 13.2586 5.34105 13.6839 5.86572 13.6839H10.1348C10.6595 13.6839 11.0848 13.2586 11.0848 12.7339V3.26587C11.0848 2.7412 10.6595 2.31587 10.1348 2.31587H9.30622V3.04463C9.30622 3.32077 9.08236 3.54463 8.80622 3.54463H7.19346C6.91731 3.54463 6.69346 3.32077 6.69346 3.04463V2.31587H5.86572Z" fill="black"/>
</svg>
