<svg width="16" height="16" viewBox="0 0 16 16" fill="none" xmlns="http://www.w3.org/2000/svg">
<path d="M5.35 4.6713C5.35 4.31232 5.64102 4.0213 6 4.0213H10C10.359 4.0213 10.65 4.31232 10.65 4.6713C10.65 5.03029 10.359 5.3213 10 5.3213H6C5.64102 5.3213 5.35 5.03029 5.35 4.6713Z" fill="black"/>
<path d="M5.35 6.6713C5.35 6.31232 5.64102 6.0213 6 6.0213H8.66667C9.02565 6.0213 9.31667 6.31232 9.31667 6.6713C9.31667 7.03029 9.02565 7.3213 8.66667 7.3213H6C5.64102 7.3213 5.35 7.03029 5.35 6.6713Z" fill="black"/>
<path d="M5.35 9.33797C5.35 8.97898 5.64102 8.68797 6 8.68797H6.66667C7.02565 8.68797 7.31667 8.97898 7.31667 9.33797C7.31667 9.69695 7.02565 9.98797 6.66667 9.98797H6C5.64102 9.98797 5.35 9.69695 5.35 9.33797Z" fill="black"/>
<path d="M11.3334 11.338C11.3334 12.0744 10.7364 12.6713 10 12.6713C9.26364 12.6713 8.66669 12.0744 8.66669 11.338C8.66669 10.6016 9.26364 10.0046 10 10.0046C10.7364 10.0046 11.3334 10.6016 11.3334 11.338Z" fill="black"/>
<path fill-rule="evenodd" clip-rule="evenodd" d="M2.3125 3.60464C2.3125 2.1687 3.47656 1.00464 4.9125 1.00464H11.0875C12.5234 1.00464 13.6875 2.1687 13.6875 3.60464V12.4046C13.6875 13.8406 12.5234 15.0046 11.0875 15.0046H4.9125C3.47656 15.0046 2.3125 13.8406 2.3125 12.4046V3.60464ZM4.9125 2.30464H11.0875C11.8055 2.30464 12.3875 2.88667 12.3875 3.60464V12.4046C12.3875 13.1226 11.8055 13.7046 11.0875 13.7046H4.9125C4.19453 13.7046 3.6125 13.1226 3.6125 12.4046V3.60464C3.6125 2.88667 4.19453 2.30464 4.9125 2.30464Z" fill="black"/>
</svg>
