<svg width="16" height="16" viewBox="0 0 16 16" fill="none" xmlns="http://www.w3.org/2000/svg">
<path d="M14.3521 1.1272C14.7111 1.1272 15.0021 1.41821 15.0021 1.7772V4.93937C15.0021 5.29835 14.7111 5.58937 14.3521 5.58937C13.9931 5.58937 13.7021 5.29835 13.7021 4.93937V1.7772C13.7021 1.41821 13.9931 1.1272 14.3521 1.1272Z" fill="black"/>
<path d="M15.0021 7.12428C15.0021 7.48326 14.7111 7.77428 14.3521 7.77428C13.9931 7.77428 13.7021 7.48326 13.7021 7.12428C13.7021 6.76529 13.9931 6.47428 14.3521 6.47428C14.7111 6.47428 15.0021 6.76529 15.0021 7.12428Z" fill="black"/>
<path d="M3.4 2.3125H12.4021V3.6125H3.4C3.3517 3.6125 3.30413 3.61561 3.25747 3.62165L7.41551 7.28842C7.77686 7.60709 8.31954 7.60479 8.67819 7.28309L12.4021 3.94273V4.93938C12.4021 5.16734 12.4412 5.38617 12.5131 5.58952L9.54624 8.25081C8.69681 9.01275 7.41151 9.01818 6.55567 8.26346L2.31597 4.52466C2.30547 4.5857 2.3 4.64846 2.3 4.7125V11.2875C2.3 11.895 2.79249 12.3875 3.4 12.3875H12.6C13.2075 12.3875 13.7 11.895 13.7 11.2875V8.96259C13.9039 9.03492 14.1234 9.07429 14.3521 9.07429C14.5792 9.07429 14.7973 9.03546 15 8.96407V11.2875C15 12.613 13.9255 13.6875 12.6 13.6875H3.4C2.07452 13.6875 1 12.613 1 11.2875V4.7125C1 3.38702 2.07452 2.3125 3.4 2.3125Z" fill="black"/>
</svg>
