<svg width="16" height="16" viewBox="0 0 16 16" fill="none" xmlns="http://www.w3.org/2000/svg">
<path d="M9.47471 7.43302C9.80804 7.24057 9.80804 6.75945 9.47471 6.567L7.40366 5.37128C7.07033 5.17883 6.65366 5.41939 6.65366 5.80429V8.19573C6.65366 8.58063 7.07033 8.82119 7.40366 8.62874L9.47471 7.43302Z" fill="black"/>
<path fill-rule="evenodd" clip-rule="evenodd" d="M1.3501 4.53335C1.3501 3.51162 2.17837 2.68335 3.2001 2.68335H12.8001C13.8218 2.68335 14.6501 3.51162 14.6501 4.53335V9.46668C14.6501 10.4884 13.8218 11.3167 12.8001 11.3167H3.2001C2.17837 11.3167 1.3501 10.4884 1.3501 9.46668V4.53335ZM3.2001 3.98335C2.89634 3.98335 2.6501 4.22959 2.6501 4.53335V9.46668C2.6501 9.77044 2.89634 10.0167 3.2001 10.0167H12.8001C13.1039 10.0167 13.3501 9.77044 13.3501 9.46668V4.53335C13.3501 4.22959 13.1039 3.98335 12.8001 3.98335H3.2001Z" fill="black"/>
<path d="M4.68344 12.6667C4.68344 12.3077 4.97446 12.0167 5.33344 12.0167H10.6668C11.0258 12.0167 11.3168 12.3077 11.3168 12.6667C11.3168 13.0257 11.0258 13.3167 10.6668 13.3167H5.33344C4.97446 13.3167 4.68344 13.0257 4.68344 12.6667Z" fill="black"/>
</svg>
