<svg width="16" height="16" viewBox="0 0 16 16" fill="none" xmlns="http://www.w3.org/2000/svg">
<path d="M1 8.00464C1 8.97114 1.7835 9.75464 2.75 9.75464C3.7165 9.75464 4.5 8.97114 4.5 8.00464C4.5 7.03814 3.7165 6.25464 2.75 6.25464C1.7835 6.25464 1 7.03814 1 8.00464Z" fill="black"/>
<path d="M8 9.75464C7.0335 9.75464 6.25 8.97114 6.25 8.00464C6.25 7.03814 7.0335 6.25464 8 6.25464C8.9665 6.25464 9.75 7.03814 9.75 8.00464C9.75 8.97114 8.9665 9.75464 8 9.75464Z" fill="black"/>
<path d="M13.25 9.75464C12.2835 9.75464 11.5 8.97114 11.5 8.00464C11.5 7.03814 12.2835 6.25464 13.25 6.25464C14.2165 6.25464 15 7.03814 15 8.00464C15 8.97114 14.2165 9.75464 13.25 9.75464Z" fill="black"/>
</svg>
