<svg width="16" height="16" viewBox="0 0 16 16" fill="none" xmlns="http://www.w3.org/2000/svg">
<path fill-rule="evenodd" clip-rule="evenodd" d="M3.07307 2.31836C1.94109 2.31836 1.02344 3.23601 1.02344 4.36799V11.1804C1.02344 11.4241 1.15983 11.6474 1.37671 11.7587C1.59359 11.87 1.8545 11.8506 2.05252 11.7084L4.75284 9.76973H9.39549C10.5275 9.76973 11.4451 8.85208 11.4451 7.72009V4.36799C11.4451 3.23601 10.5275 2.31836 9.39549 2.31836H3.07307ZM2.32344 4.36799C2.32344 3.95398 2.65906 3.61836 3.07307 3.61836H9.39549C9.8095 3.61836 10.1451 3.95398 10.1451 4.36799V7.72009C10.1451 8.1341 9.8095 8.46973 9.39549 8.46973H4.54368C4.40767 8.46973 4.27508 8.51239 4.1646 8.59171L2.32344 9.91355V4.36799Z" fill="black"/>
<path d="M6.61135 12.3876C5.74406 12.3876 5.00258 11.849 4.70325 11.0879H9.39548L9.43977 11.0876H11.4632C11.5992 11.0876 11.7318 11.1303 11.8422 11.2096L13.6834 12.5315V6.98591C13.6834 6.5719 13.3478 6.23628 12.9338 6.23628H12.7634V4.93628H12.9338C14.0657 4.93628 14.9834 5.85393 14.9834 6.98591V13.7983C14.9834 14.0421 14.847 14.2653 14.6301 14.3766C14.4132 14.4879 14.1523 14.4685 13.9543 14.3263L11.254 12.3876H6.61135Z" fill="black"/>
</svg>
