<svg width="16" height="16" viewBox="0 0 16 16" fill="none" xmlns="http://www.w3.org/2000/svg">
<path d="M5.33329 7.50442C5.70148 7.50442 5.99996 7.20594 5.99996 6.83775C5.99996 6.46956 5.70148 6.17108 5.33329 6.17108C4.9651 6.17108 4.66663 6.46956 4.66663 6.83775C4.66663 7.20594 4.9651 7.50442 5.33329 7.50442Z" fill="black"/>
<path d="M8.66671 6.83775C8.66671 7.20594 8.36823 7.50442 8.00004 7.50442C7.63185 7.50442 7.33337 7.20594 7.33337 6.83775C7.33337 6.46956 7.63185 6.17108 8.00004 6.17108C8.36823 6.17108 8.66671 6.46956 8.66671 6.83775Z" fill="black"/>
<path d="M10.6667 7.50442C11.0349 7.50442 11.3333 7.20594 11.3333 6.83775C11.3333 6.46956 11.0349 6.17108 10.6667 6.17108C10.2985 6.17108 10 6.46956 10 6.83775C10 7.20594 10.2985 7.50442 10.6667 7.50442Z" fill="black"/>
<path fill-rule="evenodd" clip-rule="evenodd" d="M3.625 0.995361C2.17525 0.995361 1 2.17061 1 3.62036V9.57364C1 9.58874 1.00013 9.60381 1.00038 9.61885L1.00015 13.9526C1.00009 14.9106 2.17773 15.3683 2.82461 14.6617L4.81942 12.4828C4.98517 12.3017 5.21934 12.1986 5.4648 12.1986H12.375C13.8247 12.1986 15 11.0234 15 9.57364V3.62036C15 2.17061 13.8247 0.995361 12.375 0.995361H3.625ZM2.30038 9.61892L2.3 9.57364V3.62036C2.3 2.88858 2.89322 2.29536 3.625 2.29536H12.375C13.1068 2.29536 13.7 2.88858 13.7 3.62036V9.57364C13.7 10.3054 13.1068 10.8986 12.375 10.8986H5.4648C4.85466 10.8986 4.27257 11.1549 3.86056 11.6049L2.30018 13.3093L2.30038 9.61892Z" fill="black"/>
</svg>
