<svg width="16" height="16" viewBox="0 0 16 16" fill="none" xmlns="http://www.w3.org/2000/svg">
<path fill-rule="evenodd" clip-rule="evenodd" d="M3.35 6.8C3.35 5.99919 3.99919 5.35 4.8 5.35H8.2C9.00081 5.35 9.65 5.99919 9.65 6.8V9.2C9.65 10.0008 9.00081 10.65 8.2 10.65H4.8C3.99919 10.65 3.35 10.0008 3.35 9.2V6.8ZM4.8 6.65C4.71716 6.65 4.65 6.71716 4.65 6.8V9.2C4.65 9.28284 4.71716 9.35 4.8 9.35H8.2C8.28284 9.35 8.35 9.28284 8.35 9.2V6.8C8.35 6.71716 8.28284 6.65 8.2 6.65H4.8Z" fill="black"/>
<path d="M11 5.35C10.641 5.35 10.35 5.64102 10.35 6C10.35 6.35898 10.641 6.65 11 6.65H12.5C12.859 6.65 13.15 6.35898 13.15 6C13.15 5.64102 12.859 5.35 12.5 5.35H11Z" fill="black"/>
<path fill-rule="evenodd" clip-rule="evenodd" d="M3 3C1.89543 3 1 3.89543 1 5V11C1 11.9968 1.72925 12.8233 2.68334 12.9751V13.3333C2.68334 13.6923 2.97436 13.9833 3.33334 13.9833C3.69233 13.9833 3.98334 13.6923 3.98334 13.3333V13H12.0167V13.3333C12.0167 13.6923 12.3077 13.9833 12.6667 13.9833C13.0256 13.9833 13.3167 13.6923 13.3167 13.3333V12.9751C14.2708 12.8233 15 11.9968 15 11V5C15 3.89543 14.1046 3 13 3H3ZM13 4.3H3C2.6134 4.3 2.3 4.6134 2.3 5V11C2.3 11.3866 2.6134 11.7 3 11.7H13C13.3866 11.7 13.7 11.3866 13.7 11V5C13.7 4.6134 13.3866 4.3 13 4.3Z" fill="black"/>
</svg>
