<svg width="16" height="16" viewBox="0 0 16 16" fill="none" xmlns="http://www.w3.org/2000/svg">
<path d="M5.75197 7.34991C5.39298 7.35004 5.10207 7.64115 5.1022 8.00014C5.10232 8.35912 5.39344 8.65003 5.75243 8.64991L10.2481 8.64832C10.607 8.6482 10.898 8.35708 10.8978 7.99809C10.8977 7.63911 10.6066 7.3482 10.2476 7.34832L5.75197 7.34991Z" fill="black"/>
<path fill-rule="evenodd" clip-rule="evenodd" d="M1 3.60171C1 2.16577 2.16406 1.00171 3.6 1.00171H12.4C13.8359 1.00171 15 2.16577 15 3.60171V12.3981C15 13.8341 13.8359 14.9981 12.4 14.9981H3.6C2.16406 14.9981 1 13.8341 1 12.3981V3.60171ZM3.6 2.30171H12.4C13.118 2.30171 13.7 2.88374 13.7 3.60171V12.3981C13.7 13.1161 13.118 13.6981 12.4 13.6981H3.6C2.88203 13.6981 2.3 13.1161 2.3 12.3981V3.60171C2.3 2.88374 2.88203 2.30171 3.6 2.30171Z" fill="black"/>
</svg>
