<svg width="16" height="16" viewBox="0 0 16 16" fill="none" xmlns="http://www.w3.org/2000/svg">
<path d="M4.31797 1.90723C2.85441 1.90723 1.66797 3.09367 1.66797 4.55723V9.06121C1.66797 10.5248 2.85441 11.7112 4.31797 11.7112H8.20215V10.4112H4.31797C3.57238 10.4112 2.96797 9.8068 2.96797 9.06121V4.55723C2.96797 3.81164 3.57238 3.20723 4.31797 3.20723H11.419C12.1345 3.20723 12.72 3.76383 12.7661 4.46765H13.4578C13.6684 4.46765 13.8731 4.49304 14.069 4.54092C14.0602 3.08487 12.8772 1.90723 11.419 1.90723H4.31797Z" fill="black"/>
<path d="M1.38242 12.6414H8.21363C8.2595 13.1268 8.44061 13.5728 8.71887 13.9414H1.38242C1.02344 13.9414 0.732422 13.6503 0.732422 13.2914C0.732422 12.9324 1.02344 12.6414 1.38242 12.6414Z" fill="black"/>
<path fill-rule="evenodd" clip-rule="evenodd" d="M10.8746 5.4884C9.96334 5.4884 9.22461 6.22713 9.22461 7.1384V12.2914C9.22461 13.2027 9.96334 13.9414 10.8746 13.9414H13.3539C14.2651 13.9414 15.0039 13.2027 15.0039 12.2914V7.1384C15.0039 6.22713 14.2651 5.4884 13.3539 5.4884H10.8746ZM10.5246 7.1384C10.5246 6.9451 10.6813 6.7884 10.8746 6.7884H13.3539C13.5472 6.7884 13.7039 6.9451 13.7039 7.1384V12.2914C13.7039 12.4847 13.5472 12.6414 13.3539 12.6414H10.8746C10.6813 12.6414 10.5246 12.4847 10.5246 12.2914V7.1384Z" fill="black"/>
</svg>
