<svg width="16" height="16" viewBox="0 0 16 16" fill="none" xmlns="http://www.w3.org/2000/svg">
<path d="M5.08213 10.6102C5.08213 11.0244 4.74634 11.3602 4.33213 11.3602C3.91792 11.3602 3.58213 11.0244 3.58213 10.6102C3.58213 10.196 3.91792 9.86021 4.33213 9.86021C4.74634 9.86021 5.08213 10.196 5.08213 10.6102Z" fill="black"/>
<path d="M7.06064 11.3602C7.47486 11.3602 7.81064 11.0244 7.81064 10.6102C7.81064 10.196 7.47486 9.86021 7.06064 9.86021C6.64643 9.86021 6.31064 10.196 6.31064 10.6102C6.31064 11.0244 6.64643 11.3602 7.06064 11.3602Z" fill="black"/>
<path d="M9.85108 10.6102C9.85108 10.2512 10.1421 9.96021 10.5011 9.96021H11.7149C12.0739 9.96021 12.3649 10.2512 12.3649 10.6102C12.3649 10.9692 12.0739 11.2602 11.7149 11.2602H10.5011C10.1421 11.2602 9.85108 10.9692 9.85108 10.6102Z" fill="black"/>
<path fill-rule="evenodd" clip-rule="evenodd" d="M11.9372 2.53794C11.9372 2.17895 11.6462 1.88794 11.2872 1.88794C10.9282 1.88794 10.6372 2.17895 10.6372 2.53794V7.1084H2.63779C1.72652 7.1084 0.987793 7.84713 0.987793 8.7584V12.462C0.987793 13.3733 1.72652 14.112 2.63779 14.112H13.362C14.2733 14.112 15.012 13.3733 15.012 12.462V8.7584C15.012 7.84713 14.2733 7.1084 13.362 7.1084H11.9372V2.53794ZM2.63779 8.4084C2.44449 8.4084 2.28779 8.5651 2.28779 8.7584V12.462C2.28779 12.6553 2.44449 12.812 2.63779 12.812H13.362C13.5553 12.812 13.712 12.6553 13.712 12.462V8.7584C13.712 8.5651 13.5553 8.4084 13.362 8.4084H2.63779Z" fill="black"/>
</svg>
