<svg width="16" height="16" viewBox="0 0 16 16" fill="none" xmlns="http://www.w3.org/2000/svg">
<path d="M6.38674 8.92379L8.12305 6.23109C8.23833 6.05231 8.5156 6.13395 8.5156 6.34667V8.16065C8.5156 8.30792 8.63499 8.42732 8.78227 8.42732H9.43395C9.60284 8.42732 9.70473 8.61426 9.61321 8.7562L7.8769 11.4489C7.76162 11.6277 7.48435 11.546 7.48435 11.3333V9.51934C7.48435 9.37206 7.36496 9.25267 7.21768 9.25267H6.566C6.39712 9.25267 6.29522 9.06572 6.38674 8.92379Z" fill="black"/>
<path fill-rule="evenodd" clip-rule="evenodd" d="M14.2535 8.69645C14.2535 9.10943 14.2135 9.51306 14.1371 9.90368C14.6401 10.2758 14.9662 10.8733 14.9662 11.5469C14.9662 12.6752 14.0516 13.5897 12.9234 13.5897C12.6309 13.5897 12.3527 13.5283 12.1012 13.4175C11.0032 14.3721 9.56907 14.95 7.99994 14.95C6.4308 14.95 4.99665 14.3721 3.89871 13.4175C3.64714 13.5283 3.369 13.5897 3.07649 13.5897C1.94828 13.5897 1.03369 12.6752 1.03369 11.5469C1.03369 10.8733 1.3598 10.2758 1.86276 9.90365C1.78637 9.51305 1.74634 9.10942 1.74634 8.69645C1.74634 5.94891 3.51821 3.61521 5.98162 2.7757C6.134 1.79811 6.97962 1.05005 7.99995 1.05005C9.02029 1.05005 9.86591 1.79811 10.0183 2.77571C12.4817 3.61523 14.2535 5.94892 14.2535 8.69645ZM7.99995 2.35005C7.58972 2.35005 7.25715 2.68261 7.25715 3.09285C7.25715 3.50309 7.58972 3.83565 7.99995 3.83565C8.41019 3.83565 8.74275 3.50309 8.74275 3.09285C8.74275 2.68261 8.41019 2.35005 7.99995 2.35005ZM3.04634 8.69645C3.04634 6.59216 4.35843 4.79433 6.20912 4.07646C6.55663 4.70783 7.22833 5.13565 7.99995 5.13565C8.77157 5.13565 9.44326 4.70783 9.79078 4.07647C11.6415 4.79434 12.9535 6.59216 12.9535 8.69645C12.9535 8.9716 12.9311 9.24151 12.888 9.50445C11.7761 9.52334 10.8806 10.4306 10.8806 11.5469C10.8806 11.9045 10.9724 12.2406 11.1338 12.5329C10.28 13.2312 9.18891 13.65 7.99994 13.65C6.81096 13.65 5.71981 13.2312 4.86604 12.5329C5.02744 12.2406 5.11929 11.9045 5.11929 11.5469C5.11929 10.4306 4.22378 9.52336 3.11191 9.50445C3.06877 9.24151 3.04634 8.9716 3.04634 8.69645ZM2.33369 11.5469C2.33369 11.1367 2.66625 10.8042 3.07649 10.8042C3.48673 10.8042 3.81929 11.1367 3.81929 11.5469C3.81929 11.9572 3.48673 12.2897 3.07649 12.2897C2.66625 12.2897 2.33369 11.9572 2.33369 11.5469ZM12.9234 10.8042C12.5131 10.8042 12.1806 11.1367 12.1806 11.5469C12.1806 11.9572 12.5131 12.2897 12.9234 12.2897C13.3336 12.2897 13.6662 11.9572 13.6662 11.5469C13.6662 11.1367 13.3336 10.8042 12.9234 10.8042Z" fill="black"/>
</svg>
