<svg width="16" height="16" viewBox="0 0 16 16" fill="none" xmlns="http://www.w3.org/2000/svg">
<path d="M13.8063 1.19966C14.0601 1.4535 14.0601 1.86506 13.8063 2.11891L12.4109 3.51434L13.8063 4.90978C14.0601 5.16362 14.0601 5.57518 13.8063 5.82903C13.5525 6.08287 13.1409 6.08287 12.8871 5.82903L11.4917 4.43359L10.0962 5.82903C9.8424 6.08287 9.43085 6.08287 9.17701 5.82903C8.92317 5.57518 8.92317 5.16362 9.17701 4.90978L10.5724 3.51434L9.17701 2.11891C8.92317 1.86506 8.92317 1.4535 9.17701 1.19966C9.43085 0.945817 9.8424 0.945817 10.0962 1.19966L11.4917 2.5951L12.8871 1.19966C13.1409 0.945817 13.5525 0.945817 13.8063 1.19966Z" fill="black"/>
<path fill-rule="evenodd" clip-rule="evenodd" d="M13.7943 11.205V7.26759C13.3615 7.3692 12.9007 7.32125 12.4943 7.12376V12.4547C12.4943 12.8969 12.2447 13.2808 11.8787 13.4733C11.8227 13.4859 11.7645 13.4925 11.7048 13.4925C11.2687 13.4925 10.9152 13.139 10.9152 12.703V11.2077C10.9152 10.8487 10.6242 10.5577 10.2652 10.5577H4.46126V2.40474H7.83421C7.66334 1.99113 7.64086 1.53067 7.76677 1.10474H3.81125C3.45227 1.10474 3.16125 1.39575 3.16125 1.75474V10.5577H1.65195C1.29297 10.5577 1.00195 10.8487 1.00195 11.2077V12.4547C1.00195 13.8078 2.09886 14.9047 3.45195 14.9047L11.3443 14.9047C11.698 14.9047 12.0343 14.8298 12.338 14.6948C13.1825 14.4266 13.7943 13.6362 13.7943 12.703V11.2077L13.7943 11.205ZM9.61523 11.8577V12.703C9.61523 13.0259 9.68849 13.3317 9.8193 13.6047L3.45195 13.6047C2.81683 13.6047 2.30195 13.0899 2.30195 12.4547V11.8577H9.61523Z" fill="black"/>
</svg>
