<svg width="16" height="16" viewBox="0 0 16 16" fill="none" xmlns="http://www.w3.org/2000/svg">
<path d="M2.24475 4.0041C1.75296 4.71028 1.38795 5.51135 1.18264 6.3743C1.15674 6.48313 1.13339 6.59294 1.11265 6.70364C1.04654 7.05649 1.27898 7.39612 1.63183 7.46223C1.98467 7.52834 2.32431 7.2959 2.39042 6.94305C2.40729 6.85299 2.42628 6.76369 2.44733 6.6752C2.59581 6.05114 2.84694 5.46689 3.18189 4.94125L11.0513 12.8107C10.1675 13.3738 9.11807 13.7 7.99273 13.7C6.01035 13.7 4.2634 12.6881 3.24171 11.1506L4.51032 11.1506C4.86931 11.1506 5.16032 10.8596 5.16032 10.5006C5.16032 10.1416 4.86931 9.85057 4.51032 9.85057H1.68843C1.32944 9.85057 1.03843 10.1416 1.03843 10.5006V13.3225C1.03843 13.6815 1.32944 13.9725 1.68843 13.9725C2.04741 13.9725 2.33843 13.6814 2.33843 13.3225L2.33843 12.1272C3.6112 13.868 5.66935 15 7.99273 15C9.47845 15 10.8558 14.5373 11.9887 13.7481L13.2143 14.9737C13.4681 15.2275 13.8797 15.2275 14.1335 14.9737C14.3874 14.7198 14.3874 14.3083 14.1335 14.0544L1.82739 1.74827C1.57355 1.49443 1.16199 1.49443 0.908154 1.74827C0.654313 2.00211 0.654313 2.41366 0.908154 2.66751L2.24475 4.0041Z" fill="black"/>
<path d="M12.8095 11.0495L13.7469 11.9869C14.2584 11.2501 14.632 10.4102 14.8304 9.50484C14.8548 9.39367 14.8765 9.28154 14.8955 9.1685C14.9551 8.81449 14.7163 8.47924 14.3623 8.41971C14.0083 8.36018 13.6731 8.5989 13.6135 8.95292C13.5981 9.0449 13.5804 9.13612 13.5606 9.22653C13.4165 9.88385 13.1589 10.4987 12.8095 11.0495Z" fill="black"/>
<path d="M4.00568 2.24568L4.9434 3.18339C5.82533 2.62394 6.87134 2.3 7.99273 2.3C9.95773 2.3 11.6914 3.29418 12.7167 4.80917H11.4903C11.1313 4.80917 10.8403 5.10019 10.8403 5.45917C10.8403 5.81816 11.1313 6.10917 11.4903 6.10917H14.3122C14.6712 6.10917 14.9622 5.81816 14.9622 5.45917L14.9622 2.63728C14.9622 2.27829 14.6712 1.98728 14.3122 1.98728C13.9532 1.98728 13.6622 2.27829 13.6622 2.63728V3.89356C12.3907 2.1411 10.3254 1 7.99273 1C6.51091 1 5.13691 1.46031 4.00568 2.24568Z" fill="black"/>
</svg>
