<svg width="16" height="16" viewBox="0 0 16 16" fill="none" xmlns="http://www.w3.org/2000/svg">
<path d="M7.98334 9.96666C8.34233 9.96666 8.63334 9.67564 8.63334 9.31666C8.63334 8.95767 8.34233 8.66666 7.98334 8.66666C7.62436 8.66666 7.33334 8.95767 7.33334 9.31666C7.33334 9.67564 7.62436 9.96666 7.98334 9.96666Z" fill="black"/>
<path fill-rule="evenodd" clip-rule="evenodd" d="M7.31666 5.33333V6.68334H9.66668C10.5779 6.68334 11.3167 7.42207 11.3167 8.33334V10.3333C11.3167 11.2446 10.5779 11.9833 9.66668 11.9833H6.33334C5.42208 11.9833 4.68334 11.2446 4.68334 10.3333V8.33334C4.68334 7.53039 5.25689 6.8614 6.01666 6.7137V5.33333C6.01666 4.23797 6.90463 3.35 7.99999 3.35C9.09535 3.35 9.98332 4.23797 9.98332 5.33333C9.98332 5.69232 9.69231 5.98333 9.33332 5.98333C8.97434 5.98333 8.68332 5.69232 8.68332 5.33333C8.68332 4.95594 8.37738 4.65 7.99999 4.65C7.62259 4.65 7.31666 4.95594 7.31666 5.33333ZM5.98334 8.33334C5.98334 8.14004 6.14004 7.98334 6.33334 7.98334H9.66668C9.85998 7.98334 10.0167 8.14004 10.0167 8.33334V10.3333C10.0167 10.5266 9.85998 10.6833 9.66668 10.6833H6.33334C6.14004 10.6833 5.98334 10.5266 5.98334 10.3333V8.33334Z" fill="black"/>
<path fill-rule="evenodd" clip-rule="evenodd" d="M2 3C2 1.89543 2.89543 1 4 1H12C13.1046 1 14 1.89543 14 3V13C14 14.1046 13.1046 15 12 15H4C2.89543 15 2 14.1046 2 13V3ZM4 2.3H12C12.3866 2.3 12.7 2.6134 12.7 3V13C12.7 13.3866 12.3866 13.7 12 13.7H4C3.6134 13.7 3.3 13.3866 3.3 13V3C3.3 2.6134 3.6134 2.3 4 2.3Z" fill="black"/>
</svg>
