<svg width="16" height="16" viewBox="0 0 16 16" fill="none" xmlns="http://www.w3.org/2000/svg">
<path d="M10.0864 15.8293C10.4454 15.8293 10.7364 15.5383 10.7364 15.1793C10.7364 14.8204 10.4454 14.5293 10.0864 14.5293L5.1976 14.5293C3.62359 14.5293 2.3476 13.2534 2.3476 11.6793L2.3476 6.67953C2.3476 6.32055 2.05659 6.02953 1.6976 6.02953C1.33862 6.02953 1.0476 6.32055 1.0476 6.67953L1.0476 11.6793C1.0476 13.9713 2.90562 15.8293 5.1976 15.8293L10.0864 15.8293Z" fill="black"/>
<path fill-rule="evenodd" clip-rule="evenodd" d="M14.918 10.7255C14.918 12.051 13.8435 13.1255 12.518 13.1255L6.13327 13.1255C4.80778 13.1255 3.73326 12.051 3.73326 10.7255L3.73326 4.34084C3.73327 3.01536 4.80778 1.94084 6.13326 1.94084L12.518 1.94084C13.8435 1.94084 14.918 3.01535 14.918 4.34084L14.918 10.7255ZM12.518 11.8255L6.13327 11.8255C5.52575 11.8255 5.03326 11.3331 5.03326 10.7255L5.03327 4.34084C5.03327 3.73333 5.52575 3.24084 6.13326 3.24084L12.518 3.24084C13.1255 3.24084 13.618 3.73333 13.618 4.34084L13.618 10.7255C13.618 11.3331 13.1255 11.8255 12.518 11.8255Z" fill="black"/>
</svg>
