<svg width="16" height="16" viewBox="0 0 16 16" fill="none" xmlns="http://www.w3.org/2000/svg">
<path d="M4 2.5H12C12.8284 2.5 13.5 3.17157 13.5 4V5.81093C13.7102 5.74968 13.9324 5.71684 14.1624 5.71684C14.4573 5.71684 14.7397 5.77087 15 5.86957V4C15 2.34315 13.6569 1 12 1H4C2.34315 1 1 2.34315 1 4V12C1 13.6569 2.34315 15 4 15H12C13.6569 15 15 13.6569 15 12V10.2908C14.7397 10.3895 14.4573 10.4436 14.1624 10.4436C13.9324 10.4436 13.7102 10.4107 13.5 10.3495V12C13.5 12.8284 12.8284 13.5 12 13.5H4C3.17157 13.5 2.5 12.8284 2.5 12V4C2.5 3.17157 3.17157 2.5 4 2.5Z" fill="black"/>
<path d="M14.1624 7.01684C13.9119 7.01685 13.6817 7.10344 13.5 7.24831C13.2556 7.44314 13.099 7.74338 13.099 8.0802C13.099 8.53635 13.3863 8.92541 13.7897 9.07641C13.8918 9.11463 14.0014 9.1376 14.1157 9.14254C14.1312 9.14321 14.1467 9.14355 14.1624 9.14355C14.46 9.14355 14.7291 9.02129 14.9221 8.82425C14.9496 8.7961 14.9757 8.76643 15 8.73536C15.1414 8.5548 15.2257 8.32734 15.2257 8.0802C15.2257 7.83306 15.1414 7.60561 15 7.42505C14.8861 7.27958 14.735 7.16453 14.5612 7.09414C14.438 7.04429 14.3034 7.01684 14.1624 7.01684Z" fill="black"/>
<path d="M10.6197 9.14355C11.2069 9.14355 11.683 8.66747 11.683 8.0802C11.683 7.49293 11.2069 7.01685 10.6197 7.01685C10.0324 7.01685 9.5563 7.49293 9.5563 8.0802C9.5563 8.66747 10.0324 9.14355 10.6197 9.14355Z" fill="black"/>
<path d="M7.07669 9.14355C7.66397 9.14355 8.14005 8.66747 8.14005 8.0802C8.14005 7.49293 7.66397 7.01685 7.07669 7.01685C6.48942 7.01685 6.01334 7.49293 6.01334 8.0802C6.01334 8.66747 6.48942 9.14355 7.07669 9.14355Z" fill="black"/>
</svg>
