<svg width="16" height="16" viewBox="0 0 16 16" fill="none" xmlns="http://www.w3.org/2000/svg">
<path d="M5.31901 2.68335C4.00023 2.68335 2.93115 3.75243 2.93115 5.0712C2.93115 6.38998 4.00023 7.45906 5.31901 7.45906C6.63778 7.45906 7.70686 6.38998 7.70686 5.0712C7.70686 3.75243 6.63778 2.68335 5.31901 2.68335Z" fill="black"/>
<path d="M9.3501 6.66668C9.3501 5.57132 10.2381 4.68335 11.3334 4.68335C12.4288 4.68335 13.3168 5.57132 13.3168 6.66668C13.3168 7.76205 12.4288 8.65002 11.3334 8.65002C10.2381 8.65002 9.3501 7.76205 9.3501 6.66668Z" fill="black"/>
<path d="M10.2898 13.3167H13.8002C14.2696 13.3167 14.6502 12.9361 14.6502 12.4667V11.4C14.6502 10.2679 13.7324 9.35004 12.6002 9.35004H10.392C10.5375 9.76185 10.6167 10.205 10.6167 10.6667V12.0667C10.6167 12.5209 10.498 12.9473 10.2898 13.3167Z" fill="black"/>
<path d="M1.3501 10.6667C1.3501 9.20311 2.53654 8.01666 4.0001 8.01666H6.66677C8.13032 8.01666 9.31676 9.20311 9.31676 10.6667V12.0667C9.31676 12.757 8.75712 13.3167 8.06676 13.3167H2.6001C1.90974 13.3167 1.3501 12.757 1.3501 12.0667V10.6667Z" fill="black"/>
</svg>
