<svg width="16" height="16" viewBox="0 0 16 16" fill="none" xmlns="http://www.w3.org/2000/svg">
<path fill-rule="evenodd" clip-rule="evenodd" d="M4 2C2.89543 2 2 2.89543 2 4V12C2 13.1046 2.89543 14 4 14H5.33306C6.43763 14 7.33306 13.1046 7.33306 12V4C7.33306 2.89543 6.43763 2 5.33306 2H4ZM3.26829 4C3.26829 3.59589 3.59589 3.26829 4 3.26829H5.33306C5.73717 3.26829 6.06476 3.59589 6.06476 4V12C6.06476 12.4041 5.73717 12.7317 5.33306 12.7317H4C3.59589 12.7317 3.26829 12.4041 3.26829 12V4Z" fill="black"/>
<path fill-rule="evenodd" clip-rule="evenodd" d="M10.6669 2C9.56238 2 8.66694 2.89543 8.66694 4V12C8.66694 13.1046 9.56238 14 10.6669 14H12C13.1046 14 14 13.1046 14 12V4C14 2.89543 13.1046 2 12 2H10.6669ZM9.93524 4C9.93524 3.59589 10.2628 3.26829 10.6669 3.26829H12C12.4041 3.26829 12.7317 3.59589 12.7317 4V12C12.7317 12.4041 12.4041 12.7317 12 12.7317H10.6669C10.2628 12.7317 9.93524 12.4041 9.93524 12V4Z" fill="black"/>
</svg>
