<svg width="16" height="16" viewBox="0 0 16 16" fill="none" xmlns="http://www.w3.org/2000/svg">
<path d="M8.00034 3.20061C8.38694 3.20061 8.70034 3.51401 8.70034 3.90061L8.70034 6.44108C8.70034 6.82768 8.38694 7.14108 8.00034 7.14108C7.61374 7.14108 7.30034 6.82768 7.30034 6.44108V3.90061C7.30034 3.51401 7.61374 3.20061 8.00034 3.20061Z" fill="black"/>
<path d="M8.00034 9.35746C8.41456 9.35746 8.75034 9.02167 8.75034 8.60746C8.75034 8.19324 8.41456 7.85746 8.00034 7.85746C7.58613 7.85746 7.25034 8.19324 7.25034 8.60746C7.25034 9.02167 7.58613 9.35746 8.00034 9.35746Z" fill="black"/>
<path fill-rule="evenodd" clip-rule="evenodd" d="M0.998047 3.64072C0.998047 2.17717 2.18449 0.990723 3.64805 0.990723H12.3525C13.816 0.990723 15.0025 2.17717 15.0025 3.64072V9.29053C15.0025 10.7541 13.816 11.9405 12.3525 11.9405H10.4107V13.7094H11.2697C11.6287 13.7094 11.9197 14.0004 11.9197 14.3594C11.9197 14.7184 11.6287 15.0094 11.2697 15.0094H4.7313C4.37231 15.0094 4.0813 14.7184 4.0813 14.3594C4.0813 14.0004 4.37231 13.7094 4.7313 13.7094H5.59003V11.9405H3.64805C2.18449 11.9405 0.998047 10.7541 0.998047 9.29053V3.64072ZM3.64805 10.6405C2.90246 10.6405 2.29805 10.0361 2.29805 9.29053V3.64072C2.29805 2.89514 2.90246 2.29072 3.64805 2.29072H12.3525C13.098 2.29072 13.7025 2.89514 13.7025 3.64072V9.29053C13.7025 10.0361 13.098 10.6405 12.3525 10.6405H3.64805ZM6.89003 11.9405V13.7093H9.11074V11.9405H6.89003Z" fill="black"/>
</svg>
