<svg width="16" height="16" viewBox="0 0 16 16" fill="none" xmlns="http://www.w3.org/2000/svg">
<path d="M4.99998 4.66675C5.55226 4.66675 5.99998 4.21903 5.99998 3.66675C5.99998 3.11446 5.55226 2.66675 4.99998 2.66675C4.44769 2.66675 3.99998 3.11446 3.99998 3.66675C3.99998 4.21903 4.44769 4.66675 4.99998 4.66675Z" fill="black"/>
<path d="M11 4.66675C11.5523 4.66675 12 4.21903 12 3.66675C12 3.11446 11.5523 2.66675 11 2.66675C10.4477 2.66675 9.99998 3.11446 9.99998 3.66675C9.99998 4.21903 10.4477 4.66675 11 4.66675Z" fill="black"/>
<path fill-rule="evenodd" clip-rule="evenodd" d="M9.33327 6.66675C9.33327 7.14466 9.08184 7.56384 8.70404 7.79923C8.91429 8.68843 9.71319 9.35009 10.6666 9.35009C11.7804 9.35009 12.6833 8.44719 12.6833 7.33342C12.6833 6.97443 12.9743 6.68342 13.3333 6.68342C13.6923 6.68342 13.9833 6.97443 13.9833 7.33342C13.9833 9.16516 12.4984 10.6501 10.6666 10.6501C10.6611 10.6501 10.6555 10.6501 10.65 10.65V11.3334C10.65 12.797 9.46353 13.9834 7.99998 13.9834C6.53642 13.9834 5.34998 12.797 5.34998 11.3334V10.65C5.34441 10.6501 5.33884 10.6501 5.33327 10.6501C3.50152 10.6501 2.0166 9.16516 2.0166 7.33342C2.0166 6.97443 2.30762 6.68342 2.6666 6.68342C3.02559 6.68342 3.3166 6.97443 3.3166 7.33342C3.3166 8.44719 4.21949 9.35009 5.33327 9.35009C6.28671 9.35009 7.08561 8.68844 7.29586 7.79925C6.91805 7.56386 6.6666 7.14467 6.6666 6.66675C6.6666 5.93037 7.26356 5.33342 7.99994 5.33342C8.73631 5.33342 9.33327 5.93037 9.33327 6.66675ZM6.64998 10.3784V11.3334C6.64998 12.079 7.25439 12.6834 7.99998 12.6834C8.74556 12.6834 9.34998 12.079 9.34998 11.3334V10.3785C8.81064 10.1449 8.34556 9.77232 7.99996 9.30584C7.65437 9.77231 7.18929 10.1449 6.64998 10.3784Z" fill="black"/>
</svg>
