<svg width="16" height="16" viewBox="0 0 16 16" fill="none" xmlns="http://www.w3.org/2000/svg">
<path d="M5.6669 7.33335C6.21918 7.33335 6.6669 6.88563 6.6669 6.33335C6.6669 5.78106 6.21918 5.33335 5.6669 5.33335C5.11461 5.33335 4.6669 5.78106 4.6669 6.33335C4.6669 6.88563 5.11461 7.33335 5.6669 7.33335Z" fill="black"/>
<path fill-rule="evenodd" clip-rule="evenodd" d="M1.35024 5.33335C1.35024 3.86979 2.53669 2.68335 4.00024 2.68335H12.0002C13.4638 2.68335 14.6502 3.8698 14.6502 5.33335V10.6667C14.6502 12.1302 13.4638 13.3167 12.0002 13.3167H4.00024C2.5421 13.3167 1.35903 12.139 1.35029 10.6829C1.35005 10.6731 1.35004 10.6634 1.35024 10.6536V5.33335ZM4.00024 12.0167C3.38489 12.0167 2.86569 11.605 2.70309 11.042L4.51038 10.1383C4.60892 10.0891 4.7249 10.0891 4.82343 10.1383L5.84349 10.6484C6.3851 10.9192 7.03153 10.8715 7.5276 10.5243L9.82598 8.91543C9.94188 8.8343 10.0952 8.83092 10.2146 8.90688L13.3179 10.8817L13.3318 10.8903C13.2252 11.5295 12.6696 12.0167 12.0002 12.0167H4.00024ZM13.3502 5.33335V9.36139L10.9125 7.81012C10.3498 7.45204 9.62689 7.46794 9.08048 7.85043L6.7821 9.45929C6.67687 9.53295 6.53975 9.54305 6.42486 9.48561L5.40481 8.97558C4.94029 8.74332 4.39352 8.74332 3.929 8.97558L2.65024 9.61497V5.33335C2.65024 4.58776 3.25465 3.98335 4.00024 3.98335H12.0002C12.7458 3.98335 13.3502 4.58777 13.3502 5.33335Z" fill="black"/>
</svg>
