<svg width="16" height="16" viewBox="0 0 16 16" fill="none" xmlns="http://www.w3.org/2000/svg">
<path d="M1.10059 4.02202C1.10059 2.66893 2.19749 1.57202 3.55059 1.57202H5.24993C5.60892 1.57202 5.89993 1.86304 5.89993 2.22202C5.89993 2.58101 5.60892 2.87202 5.24993 2.87202H3.55059C2.91546 2.87202 2.40059 3.38689 2.40059 4.02202V5.73244C2.40059 6.09142 2.10957 6.38244 1.75059 6.38244C1.3916 6.38244 1.10059 6.09142 1.10059 5.73244V4.02202Z" fill="black"/>
<path d="M1.10059 12.922C1.10059 14.2751 2.19749 15.372 3.55059 15.372H5.24993C5.60892 15.372 5.89993 15.081 5.89993 14.722C5.89993 14.363 5.60892 14.072 5.24993 14.072H3.55059C2.91546 14.072 2.40059 13.5571 2.40059 12.922V11.2116C2.40059 10.8526 2.10957 10.5616 1.75059 10.5616C1.3916 10.5616 1.10059 10.8526 1.10059 11.2116V12.922Z" fill="black"/>
<path d="M12.4481 1.57202C13.8012 1.57202 14.8981 2.66893 14.8981 4.02202V5.73244C14.8981 6.09142 14.6071 6.38244 14.2481 6.38244C13.8892 6.38244 13.5981 6.09142 13.5981 5.73244V4.02202C13.5981 3.38689 13.0833 2.87202 12.4481 2.87202H10.7488C10.3898 2.87202 10.0988 2.58101 10.0988 2.22202C10.0988 1.86304 10.3898 1.57202 10.7488 1.57202H12.4481Z" fill="black"/>
<path d="M14.8981 12.922C14.8981 14.2751 13.8012 15.372 12.4481 15.372H10.7488C10.3898 15.372 10.0988 15.081 10.0988 14.722C10.0988 14.363 10.3898 14.072 10.7488 14.072H12.4481C13.0833 14.072 13.5981 13.5571 13.5981 12.922V11.2116C13.5981 10.8526 13.8892 10.5616 14.2481 10.5616C14.6071 10.5616 14.8981 10.8526 14.8981 11.2116V12.922Z" fill="black"/>
<path d="M8.254 2.87202C8.61299 2.87202 8.904 2.58101 8.904 2.22202C8.904 1.86304 8.61299 1.57202 8.254 1.57202H7.74483C7.38584 1.57202 7.09483 1.86304 7.09483 2.22202C7.09483 2.58101 7.38584 2.87202 7.74483 2.87202H8.254Z" fill="black"/>
<path d="M8.904 14.722C8.904 14.363 8.61299 14.072 8.254 14.072H7.74483C7.38584 14.072 7.09483 14.363 7.09483 14.722C7.09483 15.081 7.38584 15.372 7.74483 15.372H8.254C8.61299 15.372 8.904 15.081 8.904 14.722Z" fill="black"/>
<path d="M2.40059 8.71128C2.40059 9.07026 2.10957 9.36128 1.75059 9.36128C1.3916 9.36128 1.10059 9.07026 1.10059 8.71128V8.20321C1.10059 7.84422 1.3916 7.55321 1.75059 7.55321C2.10957 7.55321 2.40059 7.84422 2.40059 8.20321V8.71128Z" fill="black"/>
<path d="M14.2481 9.36128C14.6071 9.36128 14.8981 9.07026 14.8981 8.71128V8.20321C14.8981 7.84422 14.6071 7.55321 14.2481 7.55321C13.8892 7.55321 13.5981 7.84422 13.5981 8.20321V8.71128C13.5981 9.07026 13.8892 9.36128 14.2481 9.36128Z" fill="black"/>
<path fill-rule="evenodd" clip-rule="evenodd" d="M5.0001 6.47202C5.0001 5.91974 5.44781 5.47202 6.0001 5.47202H10.0001C10.5524 5.47202 11.0001 5.91974 11.0001 6.47202V10.472C11.0001 11.0243 10.5524 11.472 10.0001 11.472H6.0001C5.44781 11.472 5.0001 11.0243 5.0001 10.472V6.47202ZM6.3001 10.172V6.77202H9.7001V10.172H6.3001Z" fill="black"/>
</svg>
