<svg width="16" height="16" viewBox="0 0 16 16" fill="none" xmlns="http://www.w3.org/2000/svg">
<path fill-rule="evenodd" clip-rule="evenodd" d="M7.49175 5.48234C6.8362 5.10385 6.01675 5.57696 6.01675 6.33393L6.01675 9.79803C6.01675 10.555 6.8362 11.0281 7.49175 10.6496L10.4918 8.91757C11.1473 8.53909 11.1473 7.59287 10.4918 7.21439L7.49175 5.48234ZM9.36675 8.06598L7.31675 9.24955V6.88241L9.36675 8.06598Z" fill="black"/>
<path fill-rule="evenodd" clip-rule="evenodd" d="M8.0001 1.3501C4.3274 1.3501 1.3501 4.3274 1.3501 8.0001C1.3501 11.6728 4.3274 14.6501 8.0001 14.6501C11.6728 14.6501 14.6501 11.6728 14.6501 8.0001C14.6501 4.3274 11.6728 1.3501 8.0001 1.3501ZM2.6501 8.0001C2.6501 5.04537 5.04537 2.6501 8.0001 2.6501C10.9548 2.6501 13.3501 5.04537 13.3501 8.0001C13.3501 10.9548 10.9548 13.3501 8.0001 13.3501C5.04537 13.3501 2.6501 10.9548 2.6501 8.0001Z" fill="black"/>
</svg>
