<svg width="16" height="16" viewBox="0 0 16 16" fill="none" xmlns="http://www.w3.org/2000/svg">
<path d="M3.73789 4.53704C3.37891 4.53704 3.08789 4.82806 3.08789 5.18704C3.08789 5.54603 3.37891 5.83704 3.73789 5.83704H5.76637C6.12535 5.83704 6.41637 5.54603 6.41637 5.18704C6.41637 4.82806 6.12535 4.53704 5.76637 4.53704H3.73789Z" fill="black"/>
<path d="M3.08789 7.819C3.08789 7.46001 3.37891 7.169 3.73789 7.169H5.76637C6.12535 7.169 6.41637 7.46001 6.41637 7.819C6.41637 8.17798 6.12535 8.469 5.76637 8.469H3.73789C3.37891 8.469 3.08789 8.17798 3.08789 7.819Z" fill="black"/>
<path d="M4.75156 11.5096C5.16578 11.5096 5.50156 11.1738 5.50156 10.7596C5.50156 10.3453 5.16578 10.0096 4.75156 10.0096C4.33735 10.0096 4.00156 10.3453 4.00156 10.7596C4.00156 11.1738 4.33735 11.5096 4.75156 11.5096Z" fill="black"/>
<path fill-rule="evenodd" clip-rule="evenodd" d="M11.1911 1.83294H8.01523C8.00515 1.8327 7.99509 1.83271 7.98507 1.83294H3.66563C2.20207 1.83294 1.01562 3.01939 1.01562 4.48294V11.5172C1.01562 12.9808 2.20207 14.1672 3.66563 14.1672H12.3349C13.7984 14.1672 14.9849 12.9808 14.9849 11.5172V4.48294C14.9849 3.01938 13.7984 1.83294 12.3349 1.83294H11.2213C11.2112 1.8327 11.2011 1.83271 11.1911 1.83294ZM3.66563 3.13294H7.33056C7.32865 3.30248 7.32711 3.49963 7.32591 3.7197C7.32187 4.45675 7.32148 5.46032 7.32333 6.56689C7.32682 8.66044 7.33835 11.1274 7.34852 12.8672H3.66563C2.92004 12.8672 2.31562 12.2628 2.31562 11.5172V4.48294C2.31562 3.73736 2.92004 3.13294 3.66563 3.13294ZM8.62332 6.56472C8.62682 8.65891 8.63836 11.1281 8.64854 12.8672H10.5546C10.5444 11.1274 10.5329 8.66044 10.5294 6.56689C10.5275 5.46032 10.5279 4.45675 10.532 3.7197C10.5332 3.49963 10.5347 3.30248 10.5366 3.13294H8.63064C8.6287 3.30168 8.62712 3.50108 8.62589 3.72682C8.62188 4.45912 8.62148 5.45898 8.62332 6.56472ZM11.8546 12.8672C11.8444 11.1281 11.8329 8.65891 11.8294 6.56472C11.8275 5.45898 11.8279 4.45912 11.8319 3.72682C11.8332 3.50108 11.8348 3.30168 11.8367 3.13294H12.3349C13.0805 3.13294 13.6849 3.73736 13.6849 4.48294V11.5172C13.6849 12.2628 13.0805 12.8672 12.3349 12.8672H11.8546Z" fill="black"/>
</svg>
