<svg width="16" height="16" viewBox="0 0 16 16" fill="none" xmlns="http://www.w3.org/2000/svg">
<path d="M8.6501 2.0001C8.6501 1.64111 8.35908 1.3501 8.0001 1.3501C7.64111 1.3501 7.3501 1.64111 7.3501 2.0001V7.3501H2.0001C1.64111 7.3501 1.3501 7.64111 1.3501 8.0001C1.3501 8.35908 1.64111 8.6501 2.0001 8.6501H7.3501V14.0001C7.3501 14.3591 7.64111 14.6501 8.0001 14.6501C8.35908 14.6501 8.6501 14.3591 8.6501 14.0001V8.6501H14.0001C14.3591 8.6501 14.6501 8.35908 14.6501 8.0001C14.6501 7.64111 14.3591 7.3501 14.0001 7.3501H8.6501V2.0001Z" fill="black"/>
</svg>
