<svg width="16" height="16" viewBox="0 0 16 16" fill="none" xmlns="http://www.w3.org/2000/svg">
<path d="M5.1022 8.00014C5.10207 7.64115 5.39298 7.35004 5.75197 7.34991L7.35 7.34934V5.75128C7.35 5.3923 7.64101 5.10128 8 5.10128C8.35898 5.10128 8.65 5.3923 8.65 5.75128V7.34889L10.2476 7.34832C10.6066 7.3482 10.8977 7.63911 10.8978 7.99809C10.898 8.35708 10.607 8.6482 10.2481 8.64832L8.65 8.64889V10.2469C8.65 10.6059 8.35898 10.8969 8 10.8969C7.64102 10.8969 7.35 10.6059 7.35 10.2469V8.64934L5.75243 8.64991C5.39344 8.65003 5.10232 8.35912 5.1022 8.00014Z" fill="black"/>
<path fill-rule="evenodd" clip-rule="evenodd" d="M3.6 1.00171C2.16406 1.00171 1 2.16577 1 3.60171V12.3981C1 13.8341 2.16406 14.9981 3.6 14.9981H12.4C13.8359 14.9981 15 13.8341 15 12.3981V3.60171C15 2.16577 13.8359 1.00171 12.4 1.00171H3.6ZM12.4 2.30171H3.6C2.88203 2.30171 2.3 2.88374 2.3 3.60171V12.3981C2.3 13.1161 2.88203 13.6981 3.6 13.6981H12.4C13.118 13.6981 13.7 13.1161 13.7 12.3981V3.60171C13.7 2.88374 13.118 2.30171 12.4 2.30171Z" fill="black"/>
</svg>
