<svg width="16" height="16" viewBox="0 0 16 16" fill="none" xmlns="http://www.w3.org/2000/svg">
<path fill-rule="evenodd" clip-rule="evenodd" d="M10.6247 12.769C10.1081 13.3177 9.61383 13.7801 9.22406 14.1248C8.97878 14.3417 8.77373 14.513 8.62894 14.6308C8.55652 14.6898 8.4991 14.7354 8.45917 14.7668L8.41269 14.8031L8.39986 14.813L8.39614 14.8158L8.39497 14.8167L8.00054 14.3L7.60653 14.817L7.60495 14.8158L7.60123 14.813L7.5884 14.8031L7.54191 14.7668C7.50199 14.7354 7.44457 14.6898 7.37215 14.6308C7.22736 14.513 7.02231 14.3417 6.77703 14.1248C6.28739 13.6918 5.63288 13.0729 4.97635 12.3308C3.69521 10.8826 2.27584 8.82138 2.27584 6.69057C2.27584 6.01283 2.39685 5.36379 2.61852 4.76286L1.22163 3.36598C0.96779 3.11214 0.96779 2.70058 1.22163 2.44674C1.47547 2.1929 1.88703 2.1929 2.14087 2.44674L13.5826 13.8884C13.8364 14.1423 13.8364 14.5538 13.5826 14.8077C13.3287 15.0615 12.9172 15.0615 12.6633 14.8077L10.6247 12.769ZM3.66688 5.81123C3.60718 6.09541 3.57584 6.38954 3.57584 6.69057C3.57584 8.30596 4.69382 10.0494 5.95003 11.4695C6.56218 12.1614 7.17635 12.7425 7.63821 13.151C7.77385 13.2709 7.89596 13.3756 8.00054 13.4635C8.10512 13.3756 8.22724 13.2709 8.36288 13.151C8.73749 12.8197 9.21231 12.3748 9.70497 11.8493L3.66688 5.81123Z" fill="black"/>
<path d="M7.60653 14.817C7.60653 14.817 7.60682 14.8172 8.00054 14.3C8.39427 14.8172 8.39497 14.8167 8.39497 14.8167C8.16236 14.9938 7.83914 14.9941 7.60653 14.817Z" fill="black"/>
<path d="M7.07377 5.62482L9.00907 7.56012C9.24026 7.31728 9.38179 6.9909 9.38179 6.632C9.38179 5.88182 8.76339 5.27367 8.00056 5.27367C7.64391 5.27367 7.31884 5.4066 7.07377 5.62482Z" fill="black"/>
<path d="M12.4253 6.69057C12.4253 7.73021 11.9622 8.8229 11.2972 9.84828L12.2351 10.7862C13.0631 9.56886 13.7253 8.14594 13.7253 6.69057C13.7253 3.56519 11.1519 1.05005 8.00054 1.05005C6.47359 1.05005 5.08234 1.64054 4.05378 2.60483L4.97357 3.52462C5.76345 2.79703 6.82671 2.35005 8.00054 2.35005C10.4545 2.35005 12.4253 4.30357 12.4253 6.69057Z" fill="black"/>
</svg>
