<svg width="16" height="16" viewBox="0 0 16 16" fill="none" xmlns="http://www.w3.org/2000/svg">
<path d="M8.00011 7.99032C8.76295 7.99032 9.38135 7.38218 9.38135 6.632C9.38135 5.88181 8.76295 5.27367 8.00011 5.27367C7.23727 5.27367 6.61887 5.88181 6.61887 6.632C6.61887 7.38218 7.23727 7.99032 8.00011 7.99032Z" fill="black"/>
<path fill-rule="evenodd" clip-rule="evenodd" d="M7.60608 14.817C7.60608 14.817 7.60637 14.8172 8.0001 14.3L7.60608 14.817C7.83869 14.9941 8.16121 14.9943 8.39382 14.8172L8.0001 14.3C8.39382 14.8172 8.39382 14.8172 8.39382 14.8172L8.3957 14.8158L8.39941 14.813L8.41224 14.8031L8.45873 14.7668C8.49865 14.7354 8.55608 14.6898 8.6285 14.6308C8.77328 14.513 8.97834 14.3417 9.22361 14.1248C9.71325 13.6918 10.3678 13.0729 11.0243 12.3308C12.3054 10.8826 13.7248 8.82138 13.7248 6.69057C13.7248 3.56519 11.1515 1.05005 8.0001 1.05005C4.84872 1.05005 2.27539 3.56519 2.27539 6.69057C2.27539 8.82138 3.69476 10.8826 4.97591 12.3308C5.63243 13.0729 6.28694 13.6918 6.77658 14.1248C7.02186 14.3417 7.22692 14.513 7.3717 14.6308C7.44412 14.6898 7.50154 14.7354 7.54147 14.7668L7.58795 14.8031L7.60079 14.813L7.6045 14.8158L7.60608 14.817ZM3.57539 6.69057C3.57539 4.30357 5.54611 2.35005 8.0001 2.35005C10.4541 2.35005 12.4248 4.30357 12.4248 6.69057C12.4248 8.30596 11.3068 10.0494 10.0506 11.4695C9.43846 12.1614 8.8243 12.7425 8.36243 13.151C8.22679 13.2709 8.10468 13.3756 8.0001 13.4635C7.89551 13.3756 7.77341 13.2709 7.63777 13.151C7.1759 12.7425 6.56173 12.1614 5.94958 11.4695C4.69337 10.0494 3.57539 8.30596 3.57539 6.69057Z" fill="black"/>
</svg>
