<svg width="16" height="16" viewBox="0 0 16 16" fill="none" xmlns="http://www.w3.org/2000/svg">
<path d="M9.33342 6C9.33342 6.73638 8.73647 7.33333 8.00009 7.33333C7.26371 7.33333 6.66675 6.73638 6.66675 6C6.66675 5.26362 7.26371 4.66666 8.00009 4.66666C8.73647 4.66666 9.33342 5.26362 9.33342 6Z" fill="black"/>
<path fill-rule="evenodd" clip-rule="evenodd" d="M5.44454 1.34998C4.31946 1.34998 3.40158 2.23708 3.35219 3.34998H3.23366C2.1934 3.34998 1.3501 4.19328 1.3501 5.23354C1.3501 5.89667 1.61353 6.53264 2.08243 7.00155L3.85293 8.77204C4.52748 10.0981 5.81937 11.0575 7.3501 11.2716V13.35H6.0001C5.64111 13.35 5.3501 13.641 5.3501 14C5.3501 14.359 5.64111 14.65 6.0001 14.65H10.0001C10.3591 14.65 10.6501 14.359 10.6501 14C10.6501 13.641 10.3591 13.35 10.0001 13.35H8.6501V11.2716C10.1808 11.0575 11.4727 10.0981 12.1473 8.77204L13.9178 7.00155C14.3867 6.53264 14.6501 5.89667 14.6501 5.23354C14.6501 4.19328 13.8068 3.34998 12.7665 3.34998H12.648C12.5986 2.23708 11.6807 1.34998 10.5557 1.34998H5.44454ZM11.3501 3.44442C11.3501 3.00566 10.9944 2.64998 10.5557 2.64998H5.44454C5.00578 2.64998 4.6501 3.00566 4.6501 3.44442V6.66664C4.6501 8.5168 6.14994 10.0166 8.0001 10.0166C9.85025 10.0166 11.3501 8.5168 11.3501 6.66664V3.44442ZM12.6501 4.64998H12.7665C13.0888 4.64998 13.3501 4.91125 13.3501 5.23354C13.3501 5.55189 13.2236 5.8572 12.9985 6.08231L12.6501 6.43074V4.64998ZM3.23366 4.64998H3.3501V6.43074L3.00167 6.08231C2.77656 5.8572 2.6501 5.55189 2.6501 5.23354C2.6501 4.91125 2.91137 4.64998 3.23366 4.64998Z" fill="black"/>
</svg>
