<svg width="16" height="16" viewBox="0 0 16 16" fill="none" xmlns="http://www.w3.org/2000/svg">
<path d="M8.00015 6.26083C8.48898 6.26083 8.88526 5.86455 8.88526 5.37572C8.88526 4.88689 8.48898 4.49061 8.00015 4.49061C7.51132 4.49061 7.11504 4.88689 7.11504 5.37572C7.11504 5.86455 7.51132 6.26083 8.00015 6.26083Z" fill="black"/>
<path fill-rule="evenodd" clip-rule="evenodd" d="M12.8138 13.0821C14.1602 11.8063 15 10.0012 15 8C15 4.13401 11.866 1 8 1C4.13401 1 1 4.13401 1 8C1 10.0013 1.83983 11.8064 3.18628 13.0822V12.1541C3.18628 10.2487 4.7309 8.70413 6.63628 8.70413H9.36381C11.2692 8.70413 12.8138 10.2487 12.8138 12.1541V13.0821ZM8.00015 7.56083C9.20695 7.56083 10.1853 6.58252 10.1853 5.37572C10.1853 4.16892 9.20695 3.19061 8.00015 3.19061C6.79335 3.19061 5.81504 4.16892 5.81504 5.37572C5.81504 6.58252 6.79335 7.56083 8.00015 7.56083Z" fill="black"/>
<path d="M11.5138 14.0555V12.1541C11.5138 10.9667 10.5512 10.0041 9.36381 10.0041H6.63628C5.44887 10.0041 4.48628 10.9667 4.48628 12.1541V14.0556C5.51898 14.6561 6.71933 15 8 15C9.28071 15 10.4811 14.6561 11.5138 14.0555Z" fill="black"/>
</svg>
