<svg width="16" height="16" viewBox="0 0 16 16" fill="none" xmlns="http://www.w3.org/2000/svg">
<path fill-rule="evenodd" clip-rule="evenodd" d="M7.99999 7.56083C9.20679 7.56083 10.1851 6.58252 10.1851 5.37572C10.1851 4.16892 9.20679 3.19061 7.99999 3.19061C6.79319 3.19061 5.81488 4.16892 5.81488 5.37572C5.81488 6.58252 6.79319 7.56083 7.99999 7.56083ZM7.99999 6.26083C8.48882 6.26083 8.8851 5.86455 8.8851 5.37572C8.8851 4.88689 8.48882 4.49061 7.99999 4.49061C7.51116 4.49061 7.11488 4.88689 7.11488 5.37572C7.11488 5.86455 7.51116 6.26083 7.99999 6.26083Z" fill="black"/>
<path fill-rule="evenodd" clip-rule="evenodd" d="M8 15C11.866 15 15 11.866 15 8C15 4.13401 11.866 1 8 1C4.13401 1 1 4.13401 1 8C1 11.866 4.13401 15 8 15ZM12.7378 11.1701C13.3455 10.2637 13.7 9.17325 13.7 8C13.7 4.85198 11.148 2.3 8 2.3C4.85198 2.3 2.3 4.85198 2.3 8C2.3 9.17325 2.65447 10.2637 3.26217 11.1701C3.59453 9.61195 4.97891 8.44332 6.63624 8.44332H9.36377C11.0211 8.44332 12.4055 9.61194 12.7378 11.1701ZM11.5138 12.4885V11.8933C11.5138 10.7059 10.5512 9.74332 9.36377 9.74332H6.63624C5.44883 9.74332 4.48624 10.7059 4.48624 11.8933V12.4885C5.45443 13.2475 6.67437 13.7 8 13.7C9.32563 13.7 10.5456 13.2475 11.5138 12.4885Z" fill="black"/>
</svg>
