<svg width="16" height="16" viewBox="0 0 16 16" fill="none" xmlns="http://www.w3.org/2000/svg">
<path d="M4.29991 3.99991C4.13423 3.99991 3.99991 4.13423 3.99991 4.29992V5.03325C3.99991 5.19893 4.13423 5.33325 4.29992 5.33325H5.03325C5.19893 5.33325 5.33325 5.19893 5.33325 5.03325V4.29991C5.33325 4.13423 5.19893 3.99991 5.03325 3.99991H4.29991Z" fill="black"/>
<path fill-rule="evenodd" clip-rule="evenodd" d="M3.6666 2.0166C2.75533 2.0166 2.0166 2.75533 2.0166 3.6666V5.6666C2.0166 6.57787 2.75533 7.3166 3.6666 7.3166H5.6666C6.57787 7.3166 7.3166 6.57787 7.3166 5.6666V3.6666C7.3166 2.75533 6.57787 2.0166 5.6666 2.0166H3.6666ZM3.3166 3.6666C3.3166 3.4733 3.4733 3.3166 3.6666 3.3166H5.6666C5.8599 3.3166 6.0166 3.4733 6.0166 3.6666V5.6666C6.0166 5.8599 5.8599 6.0166 5.6666 6.0166H3.6666C3.4733 6.0166 3.3166 5.8599 3.3166 5.6666V3.6666Z" fill="black"/>
<path fill-rule="evenodd" clip-rule="evenodd" d="M10.3333 2.0166C9.42202 2.0166 8.68329 2.75533 8.68329 3.6666V5.6666C8.68329 6.57787 9.42202 7.3166 10.3333 7.3166H12.3333C13.2446 7.3166 13.9833 6.57787 13.9833 5.6666V3.6666C13.9833 2.75533 13.2446 2.0166 12.3333 2.0166H10.3333ZM9.98329 3.6666C9.98329 3.4733 10.14 3.3166 10.3333 3.3166H12.3333C12.5266 3.3166 12.6833 3.4733 12.6833 3.6666V5.6666C12.6833 5.8599 12.5266 6.0166 12.3333 6.0166H10.3333C10.14 6.0166 9.98329 5.8599 9.98329 5.6666V3.6666Z" fill="black"/>
<path fill-rule="evenodd" clip-rule="evenodd" d="M2.0166 10.3333C2.0166 9.42202 2.75533 8.68329 3.6666 8.68329H5.6666C6.57787 8.68329 7.3166 9.42202 7.3166 10.3333V12.3333C7.3166 13.2446 6.57787 13.9833 5.6666 13.9833H3.6666C2.75533 13.9833 2.0166 13.2446 2.0166 12.3333V10.3333ZM3.6666 9.98329C3.4733 9.98329 3.3166 10.14 3.3166 10.3333V12.3333C3.3166 12.5266 3.4733 12.6833 3.6666 12.6833H5.6666C5.8599 12.6833 6.0166 12.5266 6.0166 12.3333V10.3333C6.0166 10.14 5.8599 9.98329 5.6666 9.98329H3.6666Z" fill="black"/>
<path d="M8.6666 8.9666C8.6666 8.80092 8.80092 8.6666 8.9666 8.6666H9.69993C9.86562 8.6666 9.99994 8.80092 9.99994 8.9666V9.69993C9.99994 9.86562 9.86562 9.99994 9.69993 9.99994H8.9666C8.80092 9.99994 8.6666 9.86562 8.6666 9.69993V8.9666Z" fill="black"/>
<path d="M10.2999 9.99991C10.1342 9.99991 9.99991 10.1342 9.99991 10.2999V11.0332C9.99991 11.1989 10.1342 11.3332 10.2999 11.3332H11.0332C11.1989 11.3332 11.3332 11.1989 11.3332 11.0332V10.2999C11.3332 10.1342 11.1989 9.99991 11.0332 9.99991H10.2999Z" fill="black"/>
<path d="M8.6666 11.6333C8.6666 11.4676 8.80092 11.3333 8.9666 11.3333H9.69993C9.86562 11.3333 9.99994 11.4676 9.99994 11.6333V12.3666C9.99994 12.5323 9.86562 12.6666 9.69993 12.6666H8.9666C8.80092 12.6666 8.6666 12.5323 8.6666 12.3666V11.6333Z" fill="black"/>
<path d="M10.2999 12.6666C10.1342 12.6666 9.99991 12.8009 9.99991 12.9666V13.6999C9.99991 13.8656 10.1342 13.9999 10.2999 13.9999H11.0332C11.1989 13.9999 11.3332 13.8656 11.3332 13.6999V12.9666C11.3332 12.8009 11.1989 12.6666 11.0332 12.6666H10.2999Z" fill="black"/>
<path d="M11.3333 8.9666C11.3333 8.80092 11.4676 8.6666 11.6333 8.6666H12.3666C12.5323 8.6666 12.6666 8.80092 12.6666 8.9666V9.69993C12.6666 9.86562 12.5323 9.99994 12.3666 9.99994H11.6333C11.4676 9.99994 11.3333 9.86562 11.3333 9.69993V8.9666Z" fill="black"/>
<path d="M12.9666 9.99991C12.8009 9.99991 12.6666 10.1342 12.6666 10.2999V11.0332C12.6666 11.1989 12.8009 11.3332 12.9666 11.3332H13.6999C13.8656 11.3332 13.9999 11.1989 13.9999 11.0332V10.2999C13.9999 10.1342 13.8656 9.99991 13.6999 9.99991H12.9666Z" fill="black"/>
<path d="M11.3333 11.6333C11.3333 11.4676 11.4676 11.3333 11.6333 11.3333H12.3666C12.5323 11.3333 12.6666 11.4676 12.6666 11.6333V12.3666C12.6666 12.5323 12.5323 12.6666 12.3666 12.6666H11.6333C11.4676 12.6666 11.3333 12.5323 11.3333 12.3666V11.6333Z" fill="black"/>
<path d="M12.9666 12.6666C12.8009 12.6666 12.6666 12.8009 12.6666 12.9666V13.6999C12.6666 13.8656 12.8009 13.9999 12.9666 13.9999H13.6999C13.8656 13.9999 13.9999 13.8656 13.9999 13.6999V12.9666C13.9999 12.8009 13.8656 12.6666 13.6999 12.6666H12.9666Z" fill="black"/>
</svg>
