<svg width="16" height="17" viewBox="0 0 16 17" fill="none" xmlns="http://www.w3.org/2000/svg">
<path d="M12.5344 5.46732C11.5136 4.09127 9.87748 3.20063 8.0342 3.20063C4.94172 3.20063 2.43476 5.70759 2.43476 8.80007C2.43476 11.8926 4.94172 14.3995 8.0342 14.3995C10.025 14.3995 11.7738 13.361 12.7675 11.7931C12.9597 11.4899 13.3613 11.3999 13.6645 11.5921C13.9677 11.7843 14.0577 12.1859 13.8655 12.4891C12.6434 14.4172 10.4888 15.6995 8.0342 15.6995C4.22375 15.6995 1.13477 12.6105 1.13477 8.80007C1.13477 4.98962 4.22375 1.90063 8.0342 1.90063C10.2176 1.90063 12.1632 2.91483 13.427 4.49636V3.15214C13.427 2.79315 13.718 2.50214 14.077 2.50214C14.436 2.50214 14.727 2.79315 14.727 3.15214V6.11732C14.727 6.4763 14.436 6.76732 14.077 6.76732H11.2538C10.8948 6.76732 10.6038 6.4763 10.6038 6.11732C10.6038 5.75833 10.8948 5.46732 11.2538 5.46732H12.5344Z" fill="black"/>
</svg>
