<svg width="16" height="16" viewBox="0 0 16 16" fill="none" xmlns="http://www.w3.org/2000/svg">
<path d="M3.10062 3.19453C2.68595 3.19453 2.3498 3.53068 2.3498 3.94534V12.0549C2.3498 12.4695 2.68595 12.8057 3.10062 12.8057H9.86588L9.48146 13.1901C9.23191 13.4396 9.07308 13.7605 9.02063 14.1057H3.10062C1.96798 14.1057 1.0498 13.1875 1.0498 12.0549V3.94534C1.0498 2.81271 1.96798 1.89453 3.10062 1.89453H5.948C6.53185 1.89453 7.09231 2.12392 7.50862 2.53326L8.27822 3.28998H12.899C14.0316 3.28998 14.9498 4.20816 14.9498 5.34079V9.09234C14.7668 9.0251 14.5712 8.99008 14.3715 8.99008H14.3615C14.1124 8.99008 13.8697 9.04456 13.6498 9.14806V5.34079C13.6498 4.92613 13.3137 4.58998 12.899 4.58998H8.01219C7.8417 4.58998 7.67804 4.52299 7.55647 4.40346L6.59717 3.46022C6.424 3.28995 6.19086 3.19453 5.948 3.19453H3.10062Z" fill="black"/>
<path d="M14.8211 10.1804C15.0749 10.4342 15.0749 10.8458 14.8211 11.0996L13.4257 12.495L14.8211 13.8905C15.0749 14.1443 15.0749 14.5559 14.8211 14.8097C14.5673 15.0635 14.1557 15.0635 13.9019 14.8097L12.5064 13.4143L11.111 14.8097C10.8572 15.0635 10.4456 15.0635 10.1918 14.8097C9.93794 14.5559 9.93794 14.1443 10.1918 13.8905L11.5872 12.495L10.1918 11.0996C9.93794 10.8458 9.93794 10.4342 10.1918 10.1804C10.4456 9.92653 10.8572 9.92653 11.111 10.1804L12.5064 11.5758L13.9019 10.1804C14.1557 9.92653 14.5673 9.92653 14.8211 10.1804Z" fill="black"/>
</svg>
