<svg width="16" height="16" viewBox="0 0 16 16" fill="none" xmlns="http://www.w3.org/2000/svg">
<path d="M7.99998 5.51997C6.12273 5.51997 5.15478 6.73509 4.97696 6.98354C4.76803 7.27547 4.36201 7.34274 4.07009 7.13381C3.77817 6.92488 3.71089 6.51886 3.91982 6.22694C4.19363 5.84437 5.50107 4.21997 7.99998 4.21997C10.4989 4.21997 11.8063 5.84437 12.0801 6.22694C12.2891 6.51886 12.2218 6.92488 11.9299 7.13381C11.6379 7.34274 11.2319 7.27547 11.023 6.98354C10.8452 6.73509 9.87723 5.51997 7.99998 5.51997Z" fill="black"/>
<path d="M6.75827 8.80399C6.84208 8.69057 7.23995 8.21528 8.00023 8.21528C8.76051 8.21528 9.15839 8.69057 9.2422 8.80399C9.45552 9.09272 9.86252 9.15384 10.1512 8.94051C10.44 8.72718 10.5011 8.32018 10.2878 8.03146C10.1005 7.7781 9.36417 6.91528 8.00023 6.91528C6.63629 6.91528 5.89992 7.7781 5.71271 8.03146C5.49938 8.32018 5.5605 8.72718 5.84922 8.94051C6.13795 9.15384 6.54494 9.09272 6.75827 8.80399Z" fill="black"/>
<path fill-rule="evenodd" clip-rule="evenodd" d="M0.998047 3.64072C0.998047 2.17717 2.18449 0.990723 3.64805 0.990723H12.3525C13.816 0.990723 15.0025 2.17717 15.0025 3.64072V9.29053C15.0025 10.7541 13.816 11.9405 12.3525 11.9405H10.4106V13.7095H11.2695C11.6285 13.7095 11.9195 14.0005 11.9195 14.3595C11.9195 14.7185 11.6285 15.0095 11.2695 15.0095H4.73105C4.37207 15.0095 4.08105 14.7185 4.08105 14.3595C4.08105 14.0005 4.37207 13.7095 4.73105 13.7095H5.58984V11.9405H3.64805C2.18449 11.9405 0.998047 10.7541 0.998047 9.29053V3.64072ZM3.64805 10.6405C2.90246 10.6405 2.29805 10.0361 2.29805 9.29053V3.64072C2.29805 2.89514 2.90246 2.29072 3.64805 2.29072H12.3525C13.098 2.29072 13.7025 2.89514 13.7025 3.64072V9.29053C13.7025 10.0361 13.098 10.6405 12.3525 10.6405H3.64805ZM6.88984 11.9405V13.7093H9.11056V11.9405H6.88984Z" fill="black"/>
</svg>
