<svg width="16" height="16" viewBox="0 0 16 16" fill="none" xmlns="http://www.w3.org/2000/svg">
<path d="M3.3166 4.6666C3.3166 3.92102 3.92102 3.3166 4.6666 3.3166H7.99994C8.35892 3.3166 8.64994 3.02559 8.64994 2.6666C8.64994 2.30762 8.35892 2.0166 7.99994 2.0166H4.6666C3.20305 2.0166 2.0166 3.20305 2.0166 4.6666V11.3333C2.0166 12.7968 3.20305 13.9833 4.6666 13.9833H11.3333C12.7968 13.9833 13.9833 12.7968 13.9833 11.3333V7.99994C13.9833 7.64095 13.6923 7.34994 13.3333 7.34994C12.9743 7.34994 12.6833 7.64095 12.6833 7.99994V11.3333C12.6833 12.0789 12.0789 12.6833 11.3333 12.6833H4.6666C3.92102 12.6833 3.3166 12.0789 3.3166 11.3333V4.6666Z" fill="black"/>
<path d="M8.4596 8.45955L13.7929 3.12622C14.0468 2.87238 14.0468 2.46082 13.7929 2.20698C13.5391 1.95314 13.1275 1.95314 12.8737 2.20698L7.54036 7.54032C7.28652 7.79416 7.28652 8.20571 7.54036 8.45955C7.7942 8.7134 8.20575 8.7134 8.4596 8.45955Z" fill="black"/>
</svg>
