<svg width="16" height="16" viewBox="0 0 16 16" fill="none" xmlns="http://www.w3.org/2000/svg">
<path d="M8.10999 9.06335C8.69726 9.06335 9.17334 8.58727 9.17334 8C9.17334 7.41273 8.69726 6.93665 8.10999 6.93665C7.52271 6.93665 7.04663 7.41273 7.04663 8C7.04663 8.58727 7.52271 9.06335 8.10999 9.06335Z" fill="black"/>
<path d="M12.5413 8C12.5413 8.58727 12.0652 9.06335 11.478 9.06335C10.8907 9.06335 10.4146 8.58727 10.4146 8C10.4146 7.41273 10.8907 6.93665 11.478 6.93665C12.0652 6.93665 12.5413 7.41273 12.5413 8Z" fill="black"/>
<path d="M4.742 9.06335C5.32928 9.06335 5.80536 8.58727 5.80536 8C5.80536 7.41273 5.32928 6.93665 4.742 6.93665C4.15473 6.93665 3.67865 7.41273 3.67865 8C3.67865 8.58727 4.15473 9.06335 4.742 9.06335Z" fill="black"/>
<path fill-rule="evenodd" clip-rule="evenodd" d="M1 4C1 2.34315 2.34315 1 4 1H12C13.6569 1 15 2.34315 15 4V12C15 13.6569 13.6569 15 12 15H4C2.34315 15 1 13.6569 1 12V4ZM4 2.5H12C12.8284 2.5 13.5 3.17157 13.5 4V12C13.5 12.8284 12.8284 13.5 12 13.5H4C3.17157 13.5 2.5 12.8284 2.5 12V4C2.5 3.17157 3.17157 2.5 4 2.5Z" fill="black"/>
</svg>
