<svg width="16" height="16" viewBox="0 0 16 16" fill="none" xmlns="http://www.w3.org/2000/svg">
<path d="M3.46562 5.46732C4.48639 4.09127 6.12252 3.20063 7.9658 3.20063C11.0583 3.20063 13.5652 5.70759 13.5652 8.80007C13.5652 11.8926 11.0583 14.3995 7.9658 14.3995C5.97497 14.3995 4.22624 13.361 3.23248 11.7931C3.0403 11.4899 2.63871 11.3999 2.3355 11.5921C2.03229 11.7843 1.94228 12.1859 2.13446 12.4891C3.35655 14.4172 5.5112 15.6995 7.9658 15.6995C11.7763 15.6995 14.8652 12.6105 14.8652 8.80007C14.8652 4.98962 11.7763 1.90063 7.9658 1.90063C5.78244 1.90063 3.83677 2.91483 2.573 4.49636V3.15214C2.573 2.79315 2.28198 2.50214 1.923 2.50214C1.56401 2.50214 1.273 2.79315 1.273 3.15214V6.11732C1.273 6.4763 1.56401 6.76732 1.923 6.76732H4.74624C5.10523 6.76732 5.39624 6.4763 5.39624 6.11732C5.39624 5.75833 5.10523 5.46732 4.74624 5.46732H3.46562Z" fill="black"/>
</svg>
