<svg width="16" height="16" viewBox="0 0 16 16" fill="none" xmlns="http://www.w3.org/2000/svg">
<path d="M7.96575 2.35054C6.12248 2.35054 4.48635 3.24117 3.46557 4.61722H4.7462C5.10518 4.61722 5.3962 4.90824 5.3962 5.26722C5.3962 5.62621 5.10518 5.91722 4.7462 5.91722H1.92295C1.56396 5.91722 1.27295 5.62621 1.27295 5.26722V2.30204C1.27295 1.94305 1.56396 1.65204 1.92295 1.65204C2.28193 1.65204 2.57295 1.94305 2.57295 2.30204V3.64627C3.83672 2.06474 5.7824 1.05054 7.96575 1.05054C11.7762 1.05054 14.8652 4.13952 14.8652 7.94997C14.8652 11.7604 11.7762 14.8494 7.96575 14.8494C5.51116 14.8494 3.35651 13.5671 2.13441 11.639C1.94223 11.3358 2.03224 10.9342 2.33545 10.742C2.63866 10.5498 3.04026 10.6398 3.23244 10.943C4.22619 12.5109 5.97493 13.5494 7.96575 13.5494C11.0582 13.5494 13.5652 11.0425 13.5652 7.94997C13.5652 4.85749 11.0582 2.35054 7.96575 2.35054Z" fill="black"/>
<path d="M7.99985 9.74994C8.96635 9.74994 9.74985 8.96644 9.74985 7.99995C9.74985 7.03345 8.96635 6.24995 7.99985 6.24995C7.03335 6.24995 6.24985 7.03345 6.24985 7.99995C6.24985 8.96644 7.03335 9.74994 7.99985 9.74994Z" fill="black"/>
</svg>
