<svg width="16" height="16" viewBox="0 0 16 16" fill="none" xmlns="http://www.w3.org/2000/svg">
<path fill-rule="evenodd" clip-rule="evenodd" d="M10.7717 5.63593C9.60532 5.63593 8.65979 6.58146 8.65979 7.74784C8.65979 8.91421 9.60532 9.85975 10.7717 9.85975C11.9381 9.85975 12.8836 8.91421 12.8836 7.74784C12.8836 6.58146 11.9381 5.63593 10.7717 5.63593ZM9.95979 7.74784C9.95979 7.29943 10.3233 6.93593 10.7717 6.93593C11.2201 6.93593 11.5836 7.29943 11.5836 7.74784C11.5836 8.19624 11.2201 8.55975 10.7717 8.55975C10.3233 8.55975 9.95979 8.19624 9.95979 7.74784Z" fill="black"/>
<path fill-rule="evenodd" clip-rule="evenodd" d="M3.99995 2.24365C2.31548 2.24365 0.949951 3.60919 0.949951 5.29365V10.2021C0.949951 11.8199 2.20954 13.1435 3.80151 13.2457V13.997C3.80151 14.356 4.09253 14.647 4.45151 14.647C4.8105 14.647 5.10151 14.356 5.10151 13.997V13.2521H10.8984V13.997C10.8984 14.356 11.1895 14.647 11.5484 14.647C11.9074 14.647 12.1984 14.356 12.1984 13.997V13.2457C13.7904 13.1435 15.05 11.8199 15.05 10.2021V5.29365C15.05 3.60918 13.6844 2.24365 11.9999 2.24365H3.99995ZM2.24995 5.29365C2.24995 4.32716 3.03345 3.54365 3.99995 3.54365H11.9999C12.9664 3.54365 13.75 4.32716 13.75 5.29365V10.2021C13.75 11.1686 12.9664 11.9521 12 11.9521H3.99995C3.03345 11.9521 2.24995 11.1686 2.24995 10.2021V5.29365Z" fill="black"/>
</svg>
