<svg width="16" height="16" viewBox="0 0 16 16" fill="none" xmlns="http://www.w3.org/2000/svg">
<path fill-rule="evenodd" clip-rule="evenodd" d="M10.772 5.63599C9.60563 5.63599 8.6601 6.58152 8.6601 7.7479C8.6601 8.91428 9.60563 9.85981 10.772 9.85981C11.9384 9.85981 12.8839 8.91428 12.8839 7.7479C12.8839 6.58152 11.9384 5.63599 10.772 5.63599ZM9.9601 7.7479C9.9601 7.29949 10.3236 6.93599 10.772 6.93599C11.2204 6.93599 11.5839 7.29949 11.5839 7.7479C11.5839 8.1963 11.2204 8.55981 10.772 8.55981C10.3236 8.55981 9.9601 8.1963 9.9601 7.7479Z" fill="black"/>
<path fill-rule="evenodd" clip-rule="evenodd" d="M0.950195 5.29365C0.950195 3.60919 2.31573 2.24365 4.0002 2.24365H12.0002C13.6847 2.24365 15.0502 3.60918 15.0502 5.29365V10.2021C15.0502 11.4166 14.3404 12.4653 13.3129 12.9559C13.0044 13.1033 12.6672 13.2003 12.312 13.2363C12.2745 13.2402 12.2367 13.2433 12.1987 13.2457V13.997C12.1987 14.356 11.9077 14.647 11.5487 14.647C11.1897 14.647 10.8987 14.356 10.8987 13.997V13.2521H5.1017V13.997C5.1017 14.356 4.81068 14.647 4.4517 14.647C4.09271 14.647 3.8017 14.356 3.8017 13.997V13.2457C2.20975 13.1435 0.950195 11.8199 0.950195 10.2021V5.29365ZM4.54016 5.29365C4.54016 4.64251 4.74421 4.03903 5.09185 3.54365H4.0002C3.0337 3.54365 2.2502 4.32716 2.2502 5.29365V5.70245H4.54016V5.29365ZM4.54016 7.00245H2.2502V8.49331H4.54016V7.00245ZM5.84016 9.14713L5.84017 9.14331L5.84016 9.1395V5.29365C5.84016 4.32715 6.62366 3.54365 7.59016 3.54365H12.0002C12.0606 3.54365 12.1203 3.54671 12.1791 3.55269C12.3488 3.56991 12.5112 3.61137 12.663 3.67353C13.3009 3.93477 13.7502 4.56174 13.7502 5.29365V10.2021C13.7502 10.8968 13.3454 11.4969 12.7589 11.7795C12.5294 11.8901 12.272 11.9521 12.0002 11.9521H7.59016C6.62366 11.9521 5.84016 11.1686 5.84016 10.2021V9.14713ZM4.54016 9.79331H2.2502V10.2021C2.2502 11.1686 3.0337 11.9521 4.0002 11.9521H5.09185C4.74421 11.4567 4.54016 10.8532 4.54016 10.2021V9.79331Z" fill="black"/>
</svg>
