<svg width="16" height="16" viewBox="0 0 16 16" fill="none" xmlns="http://www.w3.org/2000/svg">
<path d="M3.78783 1.10474C3.42884 1.10474 3.13783 1.39575 3.13783 1.75474V10.5577H1.62852C1.26953 10.5577 0.978516 10.8487 0.978516 11.2077V12.4547C0.978516 13.8078 2.07542 14.9047 3.42852 14.9047L10.0725 14.9047C10.0246 14.7356 9.999 14.5571 9.999 14.3726V13.9253H9.55129C9.15551 13.9253 8.78726 13.8073 8.47977 13.6047L3.42852 13.6047C2.79339 13.6047 2.27852 13.0899 2.27852 12.4547V11.8577H7.60478C7.63518 11.3464 7.86262 10.8881 8.21223 10.5577H4.43783V2.40474H12.4708V7.69806C13.0688 7.86374 13.5514 8.30717 13.7708 8.88072V1.75474C13.7708 1.39575 13.4798 1.10474 13.1208 1.10474H3.78783Z" fill="black"/>
<path d="M6.13232 3.85144C5.77334 3.85144 5.48232 4.14246 5.48232 4.50144C5.48232 4.86043 5.77334 5.15144 6.13232 5.15144H10.7763C11.1353 5.15144 11.4263 4.86043 11.4263 4.50144C11.4263 4.14246 11.1353 3.85144 10.7763 3.85144H6.13232Z" fill="black"/>
<path d="M6.13234 6.63708C5.77336 6.63708 5.48234 6.9281 5.48234 7.28709C5.48234 7.64607 5.77336 7.93709 6.13234 7.93709H8.45432C8.81331 7.93709 9.10432 7.64607 9.10432 7.28709C9.10432 6.9281 8.81331 6.63708 8.45432 6.63708H6.13234Z" fill="black"/>
<path d="M11.949 8.92744C12.308 8.92744 12.599 9.21846 12.599 9.57744V11.3253H14.3465C14.7055 11.3253 14.9965 11.6163 14.9965 11.9753C14.9965 12.3342 14.7055 12.6253 14.3465 12.6253H12.599V14.3726C12.599 14.7316 12.308 15.0226 11.949 15.0226C11.59 15.0226 11.299 14.7316 11.299 14.3726V12.6253H9.55131C9.19232 12.6253 8.90131 12.3342 8.90131 11.9753C8.90131 11.6163 9.19232 11.3253 9.55131 11.3253H11.299V9.57744C11.299 9.21846 11.59 8.92744 11.949 8.92744Z" fill="black"/>
</svg>
