<svg width="16" height="16" viewBox="0 0 16 16" fill="none" xmlns="http://www.w3.org/2000/svg">
<path fill-rule="evenodd" clip-rule="evenodd" d="M6.00082 7.00492C6.00082 5.02956 7.60217 3.42822 9.57752 3.42822C11.5529 3.42822 13.1542 5.02956 13.1542 7.00492C13.1542 7.74356 12.9303 8.4299 12.5467 8.99978L14.8385 11.2916C15.1314 11.5845 15.1314 12.0594 14.8385 12.3523C14.5456 12.6452 14.0708 12.6452 13.7779 12.3523L11.4676 10.042C10.9192 10.384 10.2714 10.5816 9.57752 10.5816C7.60217 10.5816 6.00082 8.98027 6.00082 7.00492ZM9.57752 4.72822C8.32014 4.72822 7.30082 5.74753 7.30082 7.00492C7.30082 8.2623 8.32014 9.28162 9.57752 9.28162C10.8349 9.28162 11.8542 8.2623 11.8542 7.00492C11.8542 5.74753 10.8349 4.72822 9.57752 4.72822Z" fill="black"/>
<path d="M5.96363 4.19632H1.74219C1.32797 4.19632 0.992188 4.53211 0.992188 4.94632C0.992188 5.36053 1.32797 5.69632 1.74219 5.69632H5.1906C5.35459 5.14574 5.6194 4.6386 5.96363 4.19632Z" fill="black"/>
<path d="M5.04845 7.66776H1.74219C1.32797 7.66776 0.992188 8.00354 0.992188 8.41776C0.992188 8.83197 1.32797 9.16776 1.74219 9.16776H5.5431C5.29665 8.70902 5.12616 8.20342 5.04845 7.66776Z" fill="black"/>
<path d="M1.8385 11.1392C1.42429 11.1392 1.0885 11.475 1.0885 11.8892C1.0885 12.3034 1.42429 12.6392 1.8385 12.6392H7.40557C7.81978 12.6392 8.15557 12.3034 8.15557 11.8892C8.15557 11.475 7.81978 11.1392 7.40557 11.1392H1.8385Z" fill="black"/>
</svg>
