<svg width="16" height="16" viewBox="0 0 16 16" fill="none" xmlns="http://www.w3.org/2000/svg">
<path d="M5.05219 1.00244C3.92 1.00244 3.00218 1.92026 3.00218 3.05244V6.05008H4.30219V3.05244C4.30219 2.63823 4.63797 2.30244 5.05219 2.30244H10.9531C11.3673 2.30244 11.7031 2.63823 11.7031 3.05244V12.9517C11.7031 13.3659 11.3673 13.7017 10.9531 13.7017H5.05219C4.63797 13.7017 4.30219 13.3659 4.30219 12.9517V9.95008H3.00218V12.9517C3.00218 14.0838 3.92 15.0017 5.05219 15.0017H10.9531C12.0853 15.0017 13.0031 14.0838 13.0031 12.9517V3.05244C13.0031 1.92026 12.0853 1.00244 10.9531 1.00244H5.05219Z" fill="black"/>
<path d="M9.02515 8.2489C8.99343 8.32557 8.94641 8.3974 8.88409 8.45972L6.89179 10.452C6.63795 10.7059 6.22639 10.7059 5.97255 10.452C5.71871 10.1982 5.71871 9.78662 5.97255 9.53278L6.85526 8.65008L1.67148 8.65008C1.3125 8.65008 1.02148 8.35906 1.02148 8.00008C1.02148 7.64109 1.3125 7.35008 1.67148 7.35008H6.8552L5.97255 6.46742C5.71871 6.21358 5.71871 5.80202 5.97255 5.54818C6.22639 5.29434 6.63795 5.29434 6.89179 5.54818L8.87991 7.53631C8.89569 7.5518 8.91067 7.56809 8.92481 7.58511C8.96116 7.62884 8.99089 7.67621 9.014 7.7259C9.05281 7.80921 9.07448 7.90211 9.07448 8.00008C9.07448 8.08822 9.05694 8.17226 9.02515 8.2489Z" fill="black"/>
<path d="M7.2468 11.6982C6.88781 11.6982 6.5968 11.9892 6.5968 12.3482C6.5968 12.7072 6.88781 12.9982 7.2468 12.9982H8.75851C9.11749 12.9982 9.40851 12.7072 9.40851 12.3482C9.40851 11.9892 9.11749 11.6982 8.75851 11.6982H7.2468Z" fill="black"/>
</svg>
