<svg width="16" height="16" viewBox="0 0 16 16" fill="none" xmlns="http://www.w3.org/2000/svg">
<path d="M5.22227 4.89927C5.22227 5.31348 4.88648 5.64927 4.47227 5.64927C4.05805 5.64927 3.72227 5.31348 3.72227 4.89927C3.72227 4.48505 4.05805 4.14927 4.47227 4.14927C4.88648 4.14927 5.22227 4.48505 5.22227 4.89927Z" fill="black"/>
<path fill-rule="evenodd" clip-rule="evenodd" d="M3.0457 2.29053C1.96875 2.29053 1.0957 3.16357 1.0957 4.24053V5.55784C1.0957 6.6348 1.96875 7.50784 3.0457 7.50784H12.9545C14.0314 7.50784 14.9045 6.6348 14.9045 5.55784V4.24053C14.9045 3.16357 14.0314 2.29053 12.9545 2.29053H3.0457ZM2.3957 4.24053C2.3957 3.88154 2.68672 3.59053 3.0457 3.59053H12.9545C13.3134 3.59053 13.6045 3.88154 13.6045 4.24053V5.55784C13.6045 5.91683 13.3134 6.20784 12.9545 6.20784H3.0457C2.68672 6.20784 2.3957 5.91683 2.3957 5.55784V4.24053Z" fill="black"/>
<path d="M4.47227 11.8512C4.88648 11.8512 5.22227 11.5154 5.22227 11.1012C5.22227 10.687 4.88648 10.3512 4.47227 10.3512C4.05805 10.3512 3.72227 10.687 3.72227 11.1012C3.72227 11.5154 4.05805 11.8512 4.47227 11.8512Z" fill="black"/>
<path fill-rule="evenodd" clip-rule="evenodd" d="M3.0457 8.49243C1.96875 8.49243 1.0957 9.36548 1.0957 10.4424V11.7597C1.0957 12.8367 1.96875 13.7097 3.0457 13.7097H12.9545C14.0314 13.7097 14.9045 12.8367 14.9045 11.7597V10.4424C14.9045 9.36548 14.0314 8.49243 12.9545 8.49243H3.0457ZM2.3957 10.4424C2.3957 10.0834 2.68672 9.79243 3.0457 9.79243H12.9545C13.3134 9.79243 13.6045 10.0834 13.6045 10.4424V11.7597C13.6045 12.1187 13.3134 12.4097 12.9545 12.4097H3.0457C2.68672 12.4097 2.3957 12.1187 2.3957 11.7597V10.4424Z" fill="black"/>
</svg>
