<svg width="16" height="16" viewBox="0 0 16 16" fill="none" xmlns="http://www.w3.org/2000/svg">
<path fill-rule="evenodd" clip-rule="evenodd" d="M5.02302 1.70005C5.02302 1.34106 4.73201 1.05005 4.37302 1.05005C4.01404 1.05005 3.72302 1.34106 3.72302 1.70005V7.2356C2.45482 7.52998 1.50977 8.66701 1.50977 10.0248C1.50977 11.3825 2.45482 12.5196 3.72302 12.8139V14.3C3.72302 14.659 4.01404 14.95 4.37302 14.95C4.73201 14.95 5.02302 14.659 5.02302 14.3V12.8139C6.29123 12.5196 7.2363 11.3825 7.2363 10.0248C7.2363 8.667 6.29123 7.52997 5.02302 7.2356V1.70005ZM4.37303 8.4615C3.50966 8.4615 2.80977 9.1614 2.80977 10.0248C2.80977 10.8881 3.50966 11.588 4.37303 11.588C5.2364 11.588 5.9363 10.8881 5.9363 10.0248C5.9363 9.1614 5.2364 8.4615 4.37303 8.4615Z" fill="black"/>
<path fill-rule="evenodd" clip-rule="evenodd" d="M10.9767 14.3C10.9767 14.659 11.2677 14.95 11.6267 14.95C11.9857 14.95 12.2767 14.659 12.2767 14.3V8.76449C13.5449 8.4701 14.49 7.33308 14.49 5.97532C14.49 4.61757 13.5449 3.48055 12.2767 3.18616V1.70009C12.2767 1.34111 11.9857 1.05009 11.6267 1.05009C11.2677 1.05009 10.9767 1.34111 10.9767 1.70009V3.18615C9.7085 3.48052 8.76343 4.61755 8.76343 5.97532C8.76343 7.33309 9.7085 8.47013 10.9767 8.7645V14.3ZM11.6267 7.53859C12.4901 7.53859 13.19 6.83869 13.19 5.97532C13.19 5.11195 12.4901 4.41206 11.6267 4.41206C10.7633 4.41206 10.0634 5.11195 10.0634 5.97532C10.0634 6.83869 10.7633 7.53859 11.6267 7.53859Z" fill="black"/>
</svg>
