<svg width="16" height="16" viewBox="0 0 16 16" fill="none" xmlns="http://www.w3.org/2000/svg">
<path fill-rule="evenodd" clip-rule="evenodd" d="M11.6638 0.889404C10.375 0.889404 9.33032 1.93412 9.33032 3.22284C9.33032 3.42175 9.35521 3.61484 9.40204 3.79918L5.48193 6.20946C5.0676 5.83312 4.51734 5.60376 3.91351 5.60376C2.62479 5.60376 1.58008 6.64847 1.58008 7.93719C1.58008 9.22591 2.62479 10.2706 3.91351 10.2706C4.49334 10.2706 5.02377 10.0591 5.43188 9.7091L9.41362 12.1573C9.35932 12.3547 9.33032 12.5627 9.33032 12.7774C9.33032 14.0661 10.375 15.1108 11.6638 15.1108C12.9525 15.1108 13.9972 14.0661 13.9972 12.7774C13.9972 11.4887 12.9525 10.4439 11.6638 10.4439C11.0597 10.4439 10.5092 10.6735 10.0949 11.0501L6.14499 8.62149C6.21128 8.40509 6.24694 8.1753 6.24694 7.93719C6.24694 7.72226 6.21788 7.51412 6.16348 7.31648L10.0619 4.91956C10.4798 5.31428 11.0435 5.55627 11.6638 5.55627C12.9525 5.55627 13.9972 4.51155 13.9972 3.22284C13.9972 1.93412 12.9525 0.889404 11.6638 0.889404ZM10.6303 3.22284C10.6303 2.65209 11.093 2.1894 11.6638 2.1894C12.2345 2.1894 12.6972 2.65209 12.6972 3.22284C12.6972 3.79358 12.2345 4.25627 11.6638 4.25627C11.093 4.25627 10.6303 3.79358 10.6303 3.22284ZM11.6638 11.7439C11.093 11.7439 10.6303 12.2066 10.6303 12.7774C10.6303 13.3481 11.093 13.8108 11.6638 13.8108C12.2345 13.8108 12.6972 13.3481 12.6972 12.7774C12.6972 12.2066 12.2345 11.7439 11.6638 11.7439ZM2.88008 7.93719C2.88008 7.36644 3.34276 6.90376 3.91351 6.90376C4.48426 6.90376 4.94694 7.36644 4.94694 7.93719C4.94694 8.50794 4.48426 8.97062 3.91351 8.97062C3.34276 8.97062 2.88008 8.50794 2.88008 7.93719Z" fill="black"/>
</svg>
