<svg width="16" height="16" viewBox="0 0 16 16" fill="none" xmlns="http://www.w3.org/2000/svg">
<path fill-rule="evenodd" clip-rule="evenodd" d="M7.83667 15.1291C7.83699 15.1292 7.83729 15.1293 8.00057 14.5001L7.83667 15.1291C7.95201 15.159 8.07398 15.1569 8.18807 15.1225L8.00057 14.5001C8.18807 15.1225 8.18778 15.1226 8.18807 15.1225L8.18929 15.1221L8.19079 15.1217L8.19462 15.1205L8.20557 15.1171C8.21432 15.1143 8.22594 15.1105 8.2403 15.1058C8.26901 15.0962 8.30868 15.0825 8.35819 15.0643C8.45717 15.0279 8.59574 14.9733 8.76486 14.8973C9.10271 14.7454 9.56488 14.5069 10.0777 14.1554C11.1041 13.4518 12.3405 12.2901 13.1783 10.4629C13.6229 9.49323 13.7213 8.44228 13.7213 7.4774V4.13223C13.7213 3.88957 13.5862 3.66711 13.3708 3.55532L8.76073 1.16234C8.28414 0.91496 7.71699 0.914961 7.2404 1.16234L2.63033 3.55532C2.41495 3.66711 2.27979 3.88957 2.27979 4.13223V7.5192C2.27979 8.45628 2.37299 9.47266 2.78656 10.419C3.61988 12.3259 4.86725 13.5015 5.91112 14.1992C6.43189 14.5472 6.90221 14.7766 7.24665 14.9202C7.41906 14.9921 7.56057 15.0428 7.6619 15.0762C7.7126 15.0929 7.75331 15.1054 7.78291 15.1141C7.79771 15.1184 7.80973 15.1218 7.81884 15.1243L7.83031 15.1274L7.83436 15.1285L7.83667 15.1291ZM7.83932 2.31616C7.94041 2.26369 8.06072 2.26369 8.16181 2.31616L8.80112 2.64801C8.77271 2.69219 8.74923 2.74055 8.7317 2.79259L7.38412 6.79259C7.30539 7.02626 7.36567 7.28436 7.53974 7.459C7.71382 7.63363 7.97172 7.69473 8.20565 7.61676L9.91309 7.04761L8.89148 9.77188C8.76544 10.108 8.93574 10.4827 9.27187 10.6087C9.608 10.7348 9.98266 10.5645 10.1087 10.2283L11.6087 6.22834C11.6967 5.99375 11.642 5.72949 11.4681 5.54908C11.2943 5.36867 11.0322 5.30424 10.7945 5.38347L9.03279 5.97072L9.9511 3.24494L12.4213 4.52718V7.4774C12.4213 8.37056 12.3264 9.20182 11.9966 9.92109C11.2777 11.4891 10.2206 12.4814 9.34274 13.0831C8.90346 13.3842 8.5108 13.5862 8.23184 13.7116C8.13627 13.7545 8.05433 13.7884 7.98879 13.814C7.92353 13.7908 7.84199 13.76 7.74692 13.7203C7.46747 13.6038 7.07366 13.4125 6.63347 13.1183C5.75544 12.5315 4.6936 11.5365 3.97778 9.89845C3.66932 9.19261 3.57979 8.38521 3.57979 7.5192V4.52718L7.83932 2.31616Z" fill="black"/>
</svg>
