<svg width="16" height="16" viewBox="0 0 16 16" fill="none" xmlns="http://www.w3.org/2000/svg">
<path d="M7.04693 9.1203C7.12236 9.04681 7.46386 8.75117 7.98218 8.75117C8.50051 8.75117 8.842 9.04681 8.91744 9.1203C9.17458 9.3708 9.5861 9.36542 9.8366 9.10828C10.0871 8.85114 10.0817 8.43962 9.82457 8.18912C9.64841 8.0175 8.99615 7.45117 7.98218 7.45117C6.96821 7.45117 6.31595 8.0175 6.13979 8.18912C5.88265 8.43962 5.87727 8.85114 6.12777 9.10828C6.37827 9.36542 6.78979 9.3708 7.04693 9.1203Z" fill="black"/>
<path d="M8.00102 6.75264C6.73348 6.75264 5.93278 7.43134 5.8014 7.55191C5.53691 7.79463 5.12573 7.77698 4.88301 7.51249C4.64029 7.248 4.65794 6.83682 4.92243 6.5941C5.16146 6.37474 6.26462 5.45264 8.00102 5.45264C9.73742 5.45264 10.8406 6.37474 11.0796 6.5941C11.3441 6.83682 11.3617 7.248 11.119 7.51249C10.8763 7.77698 10.4651 7.79463 10.2006 7.55191C10.0693 7.43134 9.26856 6.75264 8.00102 6.75264Z" fill="black"/>
<path d="M7.98241 10.9433C8.38421 10.9433 8.70993 10.6176 8.70993 10.2158C8.70993 9.814 8.38421 9.48828 7.98241 9.48828C7.58061 9.48828 7.25488 9.814 7.25488 10.2158C7.25488 10.6176 7.58061 10.9433 7.98241 10.9433Z" fill="black"/>
<path fill-rule="evenodd" clip-rule="evenodd" d="M8.76122 1.16259C8.28463 0.915205 7.71747 0.915205 7.24089 1.16259L2.63081 3.55556C2.41544 3.66736 2.28027 3.88981 2.28027 4.13247V7.51945C2.28027 8.45657 2.3736 9.47331 2.78721 10.4197C4.34133 13.9755 7.32116 14.9772 7.77397 15.1115C7.77397 15.1115 7.87371 15.1454 7.99098 15.1469C8.11559 15.1484 8.21446 15.1149 8.24112 15.1059L8.2442 15.1049C8.6616 14.9653 11.6125 13.8793 13.1789 10.463C13.6235 9.49331 13.7218 8.44251 13.7218 7.47764V4.13247C13.7218 3.88981 13.5867 3.66736 13.3713 3.55556L8.76122 1.16259ZM7.83981 2.31641C7.9409 2.26393 8.06121 2.26393 8.1623 2.31641L12.4218 4.52742V7.47764C12.4218 8.37082 12.3269 9.20193 11.9972 9.92121C10.7918 12.5501 8.62899 13.5641 7.98924 13.8144C7.34835 13.5867 5.1747 12.6361 3.97841 9.89902C3.66992 9.19319 3.58027 8.38541 3.58027 7.51945V4.52742L7.83981 2.31641Z" fill="black"/>
</svg>
