<svg width="16" height="16" viewBox="0 0 16 16" fill="none" xmlns="http://www.w3.org/2000/svg">
<path d="M8.16084 2.31616C8.05974 2.26369 7.93944 2.26369 7.83834 2.31616L5.4461 3.55791L4.48189 2.59371L7.23942 1.16234C7.71601 0.914961 8.28317 0.91496 8.75975 1.16234L13.3698 3.55532C13.5852 3.66711 13.7204 3.88957 13.7204 4.13223V7.4774C13.7204 8.44228 13.622 9.49323 13.1773 10.4629C13.0898 10.6539 12.9979 10.8375 12.9023 11.0142L11.9361 10.048C11.9562 10.0061 11.976 9.96381 11.9956 9.92109C12.3254 9.20182 12.4204 8.37056 12.4204 7.4774V4.52718L8.16084 2.31616Z" fill="black"/>
<path fill-rule="evenodd" clip-rule="evenodd" d="M2.28667 4.03131L1.53999 3.28462C1.28615 3.03078 1.28615 2.61922 1.53999 2.36538C1.79383 2.11154 2.20539 2.11154 2.45923 2.36538L13.5703 13.4765C13.8241 13.7303 13.8241 14.1419 13.5703 14.3957C13.3165 14.6496 12.9049 14.6496 12.6511 14.3957L11.3518 13.0965C10.919 13.5292 10.4816 13.8779 10.0768 14.1554C9.56391 14.5069 9.10173 14.7454 8.76388 14.8973C8.59477 14.9733 8.4562 15.0279 8.35722 15.0643C8.30771 15.0825 8.26803 15.0962 8.23932 15.1058L8.2156 15.1135L8.20459 15.1171L8.19364 15.1205L8.18981 15.1217L8.18831 15.1221L8.1871 15.1225C8.073 15.1569 7.95166 15.1592 7.83632 15.1293L7.99959 14.5001C7.83632 15.1293 7.83499 15.1289 7.83499 15.1289L7.83339 15.1285L7.82933 15.1274L7.81787 15.1243C7.80876 15.1218 7.79673 15.1184 7.78193 15.1141C7.75234 15.1054 7.71162 15.0929 7.66093 15.0762C7.55959 15.0428 7.41809 14.9921 7.24568 14.9202C6.90124 14.7766 6.43092 14.5472 5.91014 14.1992C4.86627 13.5015 3.6189 12.3259 2.78558 10.419C2.37201 9.47266 2.27881 8.45628 2.27881 7.5192V4.13223C2.27881 4.0981 2.28148 4.06438 2.28667 4.03131ZM10.4326 12.1773C10.0623 12.5476 9.68808 12.8457 9.34177 13.0831C8.90248 13.3842 8.50982 13.5862 8.23087 13.7116C8.13529 13.7545 8.05335 13.7884 7.98782 13.814C7.92255 13.7908 7.84102 13.76 7.74595 13.7203C7.4665 13.6038 7.07268 13.4125 6.6325 13.1183C5.75446 12.5315 4.69263 11.5365 3.9768 9.89845C3.66834 9.19261 3.57881 8.38521 3.57881 7.5192V5.32344L10.4326 12.1773Z" fill="black"/>
</svg>
