<svg width="16" height="17" viewBox="0 0 16 17" fill="none" xmlns="http://www.w3.org/2000/svg">
<path d="M7.89963 1.96289C7.54065 1.96289 7.24963 2.25391 7.24963 2.61289C7.24963 2.97188 7.54065 3.26289 7.89963 3.26289H13.2187C13.412 3.26289 13.5687 3.41959 13.5687 3.61289V14.0196C13.5687 14.2129 13.412 14.3696 13.2187 14.3696H7.89963C7.54065 14.3696 7.24963 14.6606 7.24963 15.0196C7.24963 15.3785 7.54065 15.6696 7.89963 15.6696H13.2187C14.13 15.6696 14.8687 14.9308 14.8687 14.0196V3.61289C14.8687 2.70162 14.13 1.96289 13.2187 1.96289H7.89963Z" fill="black"/>
<path d="M5.99501 12.105C6.24885 12.3588 6.66041 12.3588 6.91425 12.105L9.70542 9.31382C9.72024 9.29926 9.73437 9.284 9.74775 9.26808C9.78836 9.21984 9.82084 9.16708 9.8452 9.11161C9.88667 9.01719 9.90459 8.91492 9.89896 8.81371C9.89543 8.74966 9.88263 8.68808 9.86187 8.63029C9.83049 8.54273 9.77973 8.46055 9.70959 8.39041L6.91425 5.59507C6.66041 5.34123 6.24885 5.34123 5.99501 5.59507C5.74117 5.84891 5.74117 6.26046 5.99501 6.51431L7.68077 8.20006L1.77647 8.20001C1.41749 8.20001 1.12647 8.49102 1.12646 8.85001C1.12646 9.20899 1.41747 9.50001 1.77646 9.50001L7.6807 9.50006L5.99501 11.1857C5.74117 11.4396 5.74117 11.8511 5.99501 12.105Z" fill="black"/>
</svg>
