<svg width="16" height="16" viewBox="0 0 16 16" fill="none" xmlns="http://www.w3.org/2000/svg">
<path d="M5.98313 7.99998C5.98313 7.64099 5.69211 7.34998 5.33313 7.34998C4.97414 7.34998 4.68313 7.64099 4.68313 7.99998V9.33331C4.68313 9.69229 4.97414 9.98331 5.33313 9.98331C5.69211 9.98331 5.98313 9.69229 5.98313 9.33331V7.99998Z" fill="black"/>
<path d="M8.64979 7.99998C8.64979 7.64099 8.35878 7.34998 7.99979 7.34998C7.64081 7.34998 7.34979 7.64099 7.34979 7.99998V8.66664C7.34979 9.02563 7.64081 9.31664 7.99979 9.31664C8.35878 9.31664 8.64979 9.02563 8.64979 8.66664V7.99998Z" fill="black"/>
<path d="M11.3165 7.99998C11.3165 7.64099 11.0254 7.34998 10.6665 7.34998C10.3075 7.34998 10.0165 7.64099 10.0165 7.99998V9.33331C10.0165 9.69229 10.3075 9.98331 10.6665 9.98331C11.0254 9.98331 11.3165 9.69229 11.3165 9.33331V7.99998Z" fill="black"/>
<path d="M8.64979 10.6666C8.64979 10.3077 8.35878 10.0166 7.99979 10.0166C7.64081 10.0166 7.34979 10.3077 7.34979 10.6666V12C7.34979 12.359 7.64081 12.65 7.99979 12.65C8.35878 12.65 8.64979 12.359 8.64979 12V10.6666Z" fill="black"/>
<path d="M5.98313 11.3333C5.98313 10.9743 5.69211 10.6833 5.33313 10.6833C4.97414 10.6833 4.68313 10.9743 4.68313 11.3333V12C4.68313 12.359 4.97414 12.65 5.33313 12.65C5.69211 12.65 5.98313 12.359 5.98313 12V11.3333Z" fill="black"/>
<path d="M11.3165 11.3333C11.3165 10.9743 11.0254 10.6833 10.6665 10.6833C10.3075 10.6833 10.0165 10.9743 10.0165 11.3333V12C10.0165 12.359 10.3075 12.65 10.6665 12.65C11.0254 12.65 11.3165 12.359 11.3165 12V11.3333Z" fill="black"/>
<path fill-rule="evenodd" clip-rule="evenodd" d="M11.2664 1.34998C12.3986 1.34998 13.3164 2.26779 13.3164 3.39997V12.6C13.3164 13.7322 12.3986 14.65 11.2664 14.65H4.73311C3.60092 14.65 2.68311 13.7322 2.68311 12.6V5.54042C2.68311 5.23542 2.80427 4.94291 3.01993 4.72724L6.06037 1.6868C6.27604 1.47114 6.56855 1.34998 6.87355 1.34998H11.2664ZM12.0164 3.39997C12.0164 2.98576 11.6807 2.64998 11.2664 2.64998H6.93568L3.9831 5.60255V12.6C3.9831 13.0142 4.31889 13.35 4.73311 13.35H11.2664C11.6807 13.35 12.0164 13.0142 12.0164 12.6V3.39997Z" fill="black"/>
</svg>
