<svg width="16" height="16" viewBox="0 0 16 16" fill="none" xmlns="http://www.w3.org/2000/svg">
<path d="M3.55626 2.39424C3.27842 2.62156 3.23746 3.03108 3.46479 3.30892C3.69153 3.58605 4.09954 3.6275 4.37734 3.40212L4.38371 3.39713C4.39076 3.39166 4.40341 3.38201 4.42151 3.36878C4.45773 3.34229 4.51567 3.30152 4.59434 3.25113C4.75185 3.15024 4.99124 3.01151 5.30462 2.87154C5.9313 2.59164 6.84897 2.30879 8 2.30879C9.15102 2.30879 10.0687 2.59164 10.6954 2.87154C11.0087 3.01151 11.2481 3.15024 11.4057 3.25113C11.4843 3.30152 11.5423 3.34229 11.5785 3.36878C11.5966 3.38201 11.6092 3.39166 11.6163 3.39713L11.6227 3.40212C11.9004 3.6275 12.3085 3.58605 12.5352 3.30892C12.7625 3.03108 12.7216 2.62156 12.4437 2.39424L12.4429 2.39353L12.4418 2.3927L12.4394 2.39071L12.4328 2.3854L12.4127 2.36968C12.3964 2.35701 12.3741 2.34005 12.3458 2.31942C12.2894 2.27817 12.2095 2.22218 12.1069 2.15646C11.9018 2.02513 11.6054 1.85422 11.2255 1.68456C10.4657 1.3452 9.36733 1.00879 8 1.00879C6.63266 1.00879 5.53426 1.3452 4.77446 1.68456C4.3946 1.85422 4.09816 2.02513 3.89313 2.15646C3.79054 2.22218 3.71054 2.27817 3.65414 2.31942C3.62593 2.34005 3.60359 2.35701 3.58725 2.36968L3.56722 2.3854L3.5606 2.39071L3.55815 2.3927L3.55713 2.39353C3.55713 2.39353 4.24339 3.23407 3.55626 2.39424Z" fill="black"/>
<path d="M5.52339 4.43879C5.24555 4.66611 5.2046 5.07563 5.43192 5.35347C5.65807 5.62988 6.06453 5.67184 6.34228 5.44844L6.35451 5.43929C6.36814 5.42933 6.39243 5.41216 6.42688 5.3901C6.49596 5.34585 6.60465 5.28265 6.74893 5.21821C7.03741 5.08936 7.4633 4.95756 8.00003 4.95756C8.53675 4.95756 8.96264 5.08936 9.25112 5.21821C9.3954 5.28265 9.50409 5.34585 9.57317 5.3901C9.60762 5.41216 9.63192 5.42933 9.64554 5.43929L9.65777 5.44844C9.93552 5.67184 10.342 5.62988 10.5681 5.35347C10.7955 5.07563 10.7545 4.66611 10.4767 4.43879L10.4758 4.43811L10.4749 4.43736L10.4729 4.4357L10.4679 4.43169L10.4543 4.42102C10.4436 4.41277 10.4298 4.4023 10.4129 4.38993C10.3791 4.36521 10.3328 4.33282 10.2744 4.29542C10.1578 4.22074 9.99204 4.12536 9.78128 4.03122C9.35969 3.84292 8.75306 3.65756 8.00003 3.65756C7.24699 3.65756 6.64036 3.84292 6.21877 4.03122C6.00801 4.12536 5.84227 4.22074 5.72568 4.29542C5.6673 4.33282 5.62095 4.36521 5.58714 4.38993C5.57023 4.4023 5.55642 4.41277 5.54578 4.42102L5.5322 4.43169L5.5272 4.4357L5.52514 4.43736L5.52423 4.43811C5.52423 4.43811 6.21052 5.27863 5.52339 4.43879Z" fill="black"/>
<path d="M9 10.9999C9 11.5522 8.55228 11.9999 8 11.9999C7.44772 11.9999 7 11.5522 7 10.9999C7 10.4476 7.44772 9.99989 8 9.99989C8.55228 9.99989 9 10.4476 9 10.9999Z" fill="black"/>
<path fill-rule="evenodd" clip-rule="evenodd" d="M5 6.99989C3.89543 6.99989 3 7.89532 3 8.99989V11.9999C3 13.1045 3.89543 13.9999 5 13.9999H11C12.1046 13.9999 13 13.1045 13 11.9999V8.99989C13 7.89532 12.1046 6.99989 11 6.99989H5ZM11 8.29989H5C4.6134 8.29989 4.3 8.61329 4.3 8.99989V11.9999C4.3 12.3865 4.6134 12.6999 5 12.6999H11C11.3866 12.6999 11.7 12.3865 11.7 11.9999V8.99989C11.7 8.61329 11.3866 8.29989 11 8.29989Z" fill="black"/>
</svg>
