<svg width="16" height="16" viewBox="0 0 16 16" fill="none" xmlns="http://www.w3.org/2000/svg">
<path d="M7.99995 2.33296C5.70829 2.33296 4.28022 3.38461 4.13622 3.4956C3.8519 3.71477 3.44375 3.66195 3.22458 3.37764C3.00542 3.09332 3.05823 2.68516 3.34255 2.466C3.60547 2.26333 5.30902 1.03296 7.99995 1.03296C10.6909 1.03296 12.3944 2.26333 12.6573 2.466C12.9417 2.68516 12.9945 3.09332 12.7753 3.37764C12.5562 3.66195 12.148 3.71477 11.8637 3.4956C11.7197 3.38461 10.2916 2.33296 7.99995 2.33296Z" fill="black"/>
<path d="M8.00004 5.14663C6.95808 5.14663 6.3023 5.61046 6.22005 5.67217C5.9329 5.88761 5.52547 5.82948 5.31003 5.54233C5.09459 5.25518 5.15272 4.84775 5.43987 4.63231C5.64431 4.47893 6.57072 3.84663 8.00004 3.84663C9.42936 3.84663 10.3558 4.47893 10.5602 4.63231C10.8474 4.84775 10.9055 5.25518 10.6901 5.54233C10.4746 5.82948 10.0672 5.88761 9.78003 5.67217C9.69778 5.61046 9.042 5.14663 8.00004 5.14663Z" fill="black"/>
<path d="M7.96914 7.43566L8.45848 7.00782C8.33706 6.86895 8.16236 6.78821 7.97791 6.78572C7.79346 6.78323 7.61664 6.85923 7.49152 6.99478L7.96914 7.43566Z" fill="black"/>
<path fill-rule="evenodd" clip-rule="evenodd" d="M7.96914 7.43566C8.45848 7.00782 8.45841 7.00774 8.45848 7.00782L8.45936 7.00883L8.46114 7.01087L8.46732 7.01799L8.48981 7.04405C8.50915 7.06655 8.53699 7.09915 8.57214 7.14084C8.64239 7.22417 8.74197 7.34399 8.86113 7.49207C9.09891 7.78756 9.41729 8.19884 9.737 8.65943C10.0552 9.11777 10.3835 9.63752 10.6347 10.1486C10.877 10.6416 11.0869 11.2033 11.0869 11.7234C11.0869 13.5226 9.67913 14.9853 7.96914 14.9853C6.24091 14.9853 4.91306 13.5187 4.91306 11.7234C4.91306 11.1637 5.10859 10.5839 5.35055 10.0681C5.5974 9.542 5.92026 9.02526 6.23309 8.57707C6.54732 8.12688 6.86017 7.73345 7.09388 7.45304C7.21104 7.31248 7.30905 7.19944 7.37838 7.12087C7.41306 7.08157 7.44061 7.05084 7.45985 7.02954L7.48235 7.00478L7.48865 6.99789L7.49152 6.99478C7.4916 6.99468 7.49152 6.99478 7.96914 7.43566ZM7.2991 9.32113C7.53118 8.98864 7.76416 8.68767 7.95975 8.44675C8.16724 8.70916 8.41863 9.03994 8.66907 9.40073C8.96787 9.83118 9.25651 10.2918 9.468 10.7221C9.68838 11.1704 9.78693 11.511 9.78693 11.7234C9.78693 12.8548 8.91199 13.6853 7.96914 13.6853C7.04453 13.6853 6.21306 12.8895 6.21306 11.7234C6.21306 11.4425 6.31829 11.0661 6.52746 10.6203C6.73175 10.1849 7.01041 9.73474 7.2991 9.32113Z" fill="black"/>
</svg>
