<svg width="16" height="16" viewBox="0 0 16 16" fill="none" xmlns="http://www.w3.org/2000/svg">
<path d="M5.33311 5.34998C4.97412 5.34998 4.68311 5.64099 4.68311 5.99998C4.68311 6.35896 4.97412 6.64998 5.33311 6.64998H5.99977C6.35876 6.64998 6.64977 6.35896 6.64977 5.99998C6.64977 5.64099 6.35876 5.34998 5.99977 5.34998H5.33311Z" fill="black"/>
<path d="M5.33311 10.6833C4.97412 10.6833 4.68311 10.9743 4.68311 11.3333C4.68311 11.6923 4.97412 11.9833 5.33311 11.9833H5.99977C6.35876 11.9833 6.64977 11.6923 6.64977 11.3333C6.64977 10.9743 6.35876 10.6833 5.99977 10.6833H5.33311Z" fill="black"/>
<path fill-rule="evenodd" clip-rule="evenodd" d="M4.73311 1.34998C3.60092 1.34998 2.68311 2.26779 2.68311 3.39997V12.6C2.68311 13.4801 3.23768 14.2306 4.01644 14.5212V14.6666C4.01644 15.0256 4.30745 15.3166 4.66644 15.3166C5.02542 15.3166 5.31644 15.0256 5.31644 14.6666V14.65H10.6831V14.6666C10.6831 15.0256 10.9741 15.3166 11.3331 15.3166C11.6921 15.3166 11.9831 15.0256 11.9831 14.6666V14.5212C12.7619 14.2306 13.3164 13.4801 13.3164 12.6V3.39998C13.3164 2.26779 12.3986 1.34998 11.2664 1.34998H4.73311ZM12.0164 8.01664V3.39998C12.0164 2.98576 11.6807 2.64998 11.2664 2.64998H4.73311C4.31889 2.64998 3.98311 2.98576 3.98311 3.39997V8.01664H12.0164ZM3.98311 9.31664H12.0164V12.6C12.0164 13.0142 11.6807 13.35 11.2664 13.35H4.7331C4.31889 13.35 3.98311 13.0142 3.98311 12.6V9.31664Z" fill="black"/>
</svg>
