<svg width="16" height="16" viewBox="0 0 16 16" fill="none" xmlns="http://www.w3.org/2000/svg">
<path fill-rule="evenodd" clip-rule="evenodd" d="M1.3501 3.4001C1.3501 2.26791 2.26791 1.3501 3.4001 1.3501H12.6001C13.7323 1.3501 14.6501 2.26791 14.6501 3.4001V3.93343C14.6501 4.89328 13.9904 5.69905 13.0997 5.92212L12.1567 8.27956C11.9062 8.90599 11.2995 9.31676 10.6248 9.31676H5.31216C4.63747 9.31676 4.03075 8.90599 3.78017 8.27956L2.82955 5.90299C1.97497 5.65586 1.3501 4.86762 1.3501 3.93343V3.4001ZM9.95179 5.98343H11.6751L10.9497 7.79675C10.8966 7.92963 10.7679 8.01676 10.6248 8.01676H9.95179V5.98343ZM9.30179 4.68343L9.30317 4.68343H12.6001C13.0143 4.68343 13.3501 4.34764 13.3501 3.93343V3.4001C13.3501 2.98588 13.0143 2.6501 12.6001 2.6501H3.4001C2.98588 2.6501 2.6501 2.98588 2.6501 3.4001V3.93343C2.6501 4.34764 2.98588 4.68343 3.4001 4.68343H6.63375L6.63513 4.68343L6.63651 4.68343H9.30042L9.30179 4.68343ZM4.26187 5.98343H5.98513V8.01676H5.31216C5.16904 8.01676 5.04035 7.92963 4.98719 7.79675L4.26187 5.98343ZM8.65179 5.98343H7.28513V8.01676H8.65179V5.98343Z" fill="black"/>
<path d="M7.73347 10.3965C7.73347 10.1203 7.50961 9.89648 7.23347 9.89648C6.95733 9.89648 6.73347 10.1203 6.73347 10.3965V11.0942C6.73347 11.3703 6.95733 11.5942 7.23347 11.5942H10.5143C10.7055 11.5942 10.8605 11.7492 10.8605 11.9404C10.8605 12.1316 10.7055 12.2866 10.5143 12.2866H5.41497C4.67559 12.2866 4.07621 12.8859 4.07621 13.6253C4.07621 14.3647 4.67559 14.9641 5.41497 14.9641H9.5048C9.78094 14.9641 10.0048 14.7402 10.0048 14.4641C10.0048 14.1879 9.78094 13.9641 9.5048 13.9641H5.41497C5.22787 13.9641 5.07621 13.8124 5.07621 13.6253C5.07621 13.4382 5.22788 13.2866 5.41497 13.2866H10.5143C11.2578 13.2866 11.8605 12.6838 11.8605 11.9404C11.8605 11.1969 11.2578 10.5942 10.5143 10.5942H7.73347V10.3965Z" fill="black"/>
</svg>
