<svg width="16" height="16" viewBox="0 0 16 16" fill="none" xmlns="http://www.w3.org/2000/svg">
<path fill-rule="evenodd" clip-rule="evenodd" d="M2.01685 11.9999C2.01685 12.3589 2.30786 12.6499 2.66685 12.6499H13.3335C13.6925 12.6499 13.9835 12.3589 13.9835 11.9999C13.9835 11.6409 13.6925 11.3499 13.3335 11.3499H2.66685C2.30786 11.3499 2.01685 11.6409 2.01685 11.9999ZM2.01685 7.9999C2.01685 8.35889 2.30786 8.6499 2.66685 8.6499H10.6668C11.0258 8.6499 11.3168 8.35889 11.3168 7.9999C11.3168 7.64092 11.0258 7.3499 10.6668 7.3499H2.66685C2.30786 7.3499 2.01685 7.64092 2.01685 7.9999ZM2.01685 3.9999C2.01685 4.35889 2.30786 4.6499 2.66685 4.6499H8.00018C8.35916 4.6499 8.65018 4.35889 8.65018 3.9999C8.65018 3.64092 8.35916 3.3499 8.00018 3.3499H2.66685C2.30786 3.3499 2.01685 3.64092 2.01685 3.9999Z" fill="black"/>
</svg>
