<svg width="16" height="16" viewBox="0 0 16 16" fill="none" xmlns="http://www.w3.org/2000/svg">
<path d="M7.21529 1.84645C7.50564 1.14836 8.49458 1.14835 8.78493 1.84645L10.2993 5.48749L14.2301 5.80262C14.9838 5.86304 15.2894 6.80357 14.7152 7.29544L12.1924 9.45645C11.8871 9.1547 11.5768 8.84787 11.2649 8.53922L13.0478 7.012L9.79969 6.7516C9.55673 6.73212 9.34508 6.57835 9.25148 6.3533L8.00011 3.34466L7.42642 4.72398C7.06929 4.36675 6.73545 4.03182 6.43306 3.72716L7.21529 1.84645Z" fill="black"/>
<path fill-rule="evenodd" clip-rule="evenodd" d="M10.3634 9.47599C10.9271 10.0339 11.4855 10.5857 12.0188 11.1122L12.02 11.1172C12.7887 11.8761 13.5067 12.5836 14.1153 13.1824C14.3712 13.4342 14.3745 13.8458 14.1228 14.1017C13.871 14.3575 13.4594 14.3609 13.2036 14.1091C13.0094 13.918 12.804 13.7159 12.5895 13.5045L12.6353 13.6967C12.8107 14.4321 12.0107 15.0134 11.3654 14.6193L8.00011 12.5637L4.6348 14.6193C3.98956 15.0134 3.1895 14.4321 3.36493 13.6967L4.2799 9.86085L1.28505 7.29544C0.710842 6.80357 1.01643 5.86304 1.77009 5.80262L4.60152 5.57562C4.419 5.39166 4.24804 5.21883 4.09048 5.05892C3.74146 4.7047 3.45585 4.4115 3.25531 4.20041C3.15568 4.09554 3.07306 4.00675 3.01302 3.93919C2.9838 3.9063 2.95399 3.87179 2.92861 3.83976C2.91652 3.8245 2.89853 3.80117 2.88035 3.7738C2.87133 3.76023 2.8571 3.73797 2.84226 3.70984C2.83169 3.6898 2.79951 3.62786 2.78051 3.54231C2.7027 3.19186 2.92372 2.84468 3.27417 2.76687C3.54719 2.70626 3.81822 2.827 3.96145 3.04902C3.96723 3.05574 3.97491 3.06455 3.98482 3.0757C4.03027 3.12686 4.10106 3.2032 4.1978 3.30503C4.38998 3.50732 4.66892 3.79375 5.0165 4.14651C5.27436 4.40822 5.56871 4.70513 5.89145 5.02933L5.89237 5.02713C6.20123 5.33726 6.53489 5.67122 6.88645 6.02223L6.88545 6.02462C7.15849 6.2973 7.44281 6.58074 7.73514 6.87176C8.57181 7.70468 9.47333 8.59888 10.3626 9.47904L10.3634 9.47599ZM10.8418 11.7808C9.53299 10.4882 8.09964 9.06899 6.81797 7.79306C6.46736 7.44403 6.12796 7.10558 5.80547 6.78327L2.95245 7.012L5.42715 9.13184C5.61226 9.29041 5.6931 9.53921 5.63655 9.77631L4.88049 12.9459L7.6613 11.2474C7.86931 11.1203 8.13092 11.1203 8.33893 11.2474L11.1197 12.9459L10.8418 11.7808Z" fill="black"/>
</svg>
