<svg width="16" height="16" viewBox="0 0 16 16" fill="none" xmlns="http://www.w3.org/2000/svg">
<path d="M8 11.7856C7.58579 11.7856 7.25 11.4499 7.25 11.0356V7.64966C7.25 7.23544 7.58579 6.89966 8 6.89966C8.41421 6.89966 8.75 7.23544 8.75 7.64966V11.0356C8.75 11.4499 8.41421 11.7856 8 11.7856Z" fill="black"/>
<path d="M8.00039 4.19038C8.46983 4.19038 8.85039 4.57094 8.85039 5.04038C8.85039 5.50982 8.46983 5.89038 8.00039 5.89038C7.53095 5.89038 7.15039 5.50982 7.15039 5.04038C7.15039 4.57094 7.53095 4.19038 8.00039 4.19038Z" fill="black"/>
<path fill-rule="evenodd" clip-rule="evenodd" d="M8 15C11.866 15 15 11.866 15 8C15 4.13401 11.866 1 8 1C4.13401 1 1 4.13401 1 8C1 11.866 4.13401 15 8 15ZM8 13.7C11.148 13.7 13.7 11.148 13.7 8C13.7 4.85198 11.148 2.3 8 2.3C4.85198 2.3 2.3 4.85198 2.3 8C2.3 11.148 4.85198 13.7 8 13.7Z" fill="black"/>
</svg>
