<svg width="16" height="16" viewBox="0 0 16 16" fill="none" xmlns="http://www.w3.org/2000/svg">
<path fill-rule="evenodd" clip-rule="evenodd" d="M8 15C11.866 15 15 11.866 15 8C15 4.13401 11.866 1 8 1C4.13401 1 1 4.13401 1 8C1 11.866 4.13401 15 8 15ZM12.4192 11.6003C13.2199 10.6188 13.7 9.36546 13.7 8C13.7 4.85198 11.148 2.3 8 2.3C4.85198 2.3 2.3 4.85198 2.3 8C2.3 11.148 4.85198 13.7 8 13.7C9.31414 13.7 10.5244 13.2553 11.4885 12.5081L9.97219 10.9919C9.40652 11.3655 8.72866 11.583 8 11.583C6.02116 11.583 4.41699 9.97884 4.41699 8C4.41699 6.02116 6.02116 4.41699 8 4.41699C9.97884 4.41699 11.583 6.02116 11.583 8C11.583 8.78044 11.3335 9.50261 10.9099 10.0911L12.4192 11.6003ZM8 10.283C9.26087 10.283 10.283 9.26087 10.283 8C10.283 6.73913 9.26087 5.71699 8 5.71699C6.73913 5.71699 5.71699 6.73913 5.71699 8C5.71699 9.26087 6.73913 10.283 8 10.283Z" fill="black"/>
</svg>
