<svg width="16" height="16" viewBox="0 0 16 16" fill="none" xmlns="http://www.w3.org/2000/svg">
<path fill-rule="evenodd" clip-rule="evenodd" d="M1 2.5C1 1.67157 1.67157 1 2.5 1H13.5C14.3284 1 15 1.67157 15 2.5C15 3.32843 14.3284 4 13.5 4H2.5C1.67157 4 1 3.32843 1 2.5ZM2.5 2H13.5C13.7761 2 14 2.22386 14 2.5C14 2.77614 13.7761 3 13.5 3H2.5C2.22386 3 2 2.77614 2 2.5C2 2.22386 2.22386 2 2.5 2Z" fill="black"/>
<path d="M2.5 5C1.67157 5 1 5.67157 1 6.5C1 7.32843 1.67157 8 2.5 8H13.5C14.3284 8 15 7.32843 15 6.5C15 5.67157 14.3284 5 13.5 5H2.5Z" fill="black"/>
<path d="M1 10.5C1 9.67157 1.67157 9 2.5 9H13.5C14.3284 9 15 9.67157 15 10.5C15 11.3284 14.3284 12 13.5 12H2.5C1.67157 12 1 11.3284 1 10.5Z" fill="black"/>
<path d="M2.5 13C1.67157 13 1 13.6716 1 14.5C1 15.3284 1.67157 16 2.5 16H13.5C14.3284 16 15 15.3284 15 14.5C15 13.6716 14.3284 13 13.5 13H2.5Z" fill="black"/>
</svg>
