<svg width="16" height="16" viewBox="0 0 16 16" fill="none" xmlns="http://www.w3.org/2000/svg">
<path fill-rule="evenodd" clip-rule="evenodd" d="M8.5 15C12.366 15 15.5 11.866 15.5 8C15.5 4.13401 12.366 1 8.5 1C4.63401 1 1.5 4.13401 1.5 8C1.5 11.866 4.63401 15 8.5 15ZM8.45619 5.49414C7.98365 5.49414 7.60059 5.87721 7.60059 6.34975C7.60059 6.76396 7.2648 7.09975 6.85059 7.09975C6.43637 7.09975 6.10059 6.76396 6.10059 6.34975C6.10059 5.04878 7.15523 3.99414 8.45619 3.99414H8.50016C9.82541 3.99414 10.8997 5.06847 10.8997 6.39372V6.45509C10.8997 7.41804 10.3381 8.29252 9.46241 8.69306L9.25016 8.79013C9.24966 9.20392 8.91407 9.5392 8.50016 9.5392C8.08595 9.5392 7.75016 9.20342 7.75016 8.7892C7.75016 8.20283 8.09216 7.67033 8.6254 7.42644L8.83849 7.32897C9.18043 7.17257 9.39974 6.8311 9.39974 6.45509V6.39372C9.39974 5.89689 8.99699 5.49414 8.50016 5.49414H8.45619ZM9.25 11.075C9.25 11.4892 8.91421 11.825 8.5 11.825C8.08579 11.825 7.75 11.4892 7.75 11.075C7.75 10.6607 8.08579 10.325 8.5 10.325C8.91421 10.325 9.25 10.6607 9.25 11.075Z" fill="black"/>
</svg>
