<svg width="16" height="16" viewBox="0 0 16 16" fill="none" xmlns="http://www.w3.org/2000/svg">
<path d="M7.9544 5.49854C7.48285 5.49854 7.10059 5.8808 7.10059 6.35235C7.10059 6.76656 6.7648 7.10235 6.35059 7.10235C5.93637 7.10235 5.60059 6.76656 5.60059 6.35235C5.60059 5.05237 6.65442 3.99854 7.9544 3.99854H8.00016C9.32541 3.99854 10.3997 5.07286 10.3997 6.39811V6.45727C10.3997 7.41972 9.83818 8.29368 8.96276 8.69364L8.75016 8.79077C8.74925 9.20421 8.41381 9.53908 8.00016 9.53908C7.58595 9.53908 7.25016 9.2033 7.25016 8.78908C7.25016 8.20295 7.59215 7.6707 8.12528 7.42713L8.33942 7.32929C8.68077 7.17334 8.89974 6.83255 8.89974 6.45727V6.39811C8.89974 5.90129 8.49699 5.49854 8.00016 5.49854H7.9544Z" fill="black"/>
<path d="M8 11.825C8.41421 11.825 8.75 11.4892 8.75 11.075C8.75 10.6607 8.41421 10.325 8 10.325C7.58579 10.325 7.25 10.6607 7.25 11.075C7.25 11.4892 7.58579 11.825 8 11.825Z" fill="black"/>
<path fill-rule="evenodd" clip-rule="evenodd" d="M8 15C11.866 15 15 11.866 15 8C15 4.13401 11.866 1 8 1C4.13401 1 1 4.13401 1 8C1 11.866 4.13401 15 8 15ZM8 13.7C11.148 13.7 13.7 11.148 13.7 8C13.7 4.85198 11.148 2.3 8 2.3C4.85198 2.3 2.3 4.85198 2.3 8C2.3 11.148 4.85198 13.7 8 13.7Z" fill="black"/>
</svg>
