<svg width="16" height="16" viewBox="0 0 16 16" fill="none" xmlns="http://www.w3.org/2000/svg">
<path fill-rule="evenodd" clip-rule="evenodd" d="M5.6501 6.99998C5.6501 5.70211 6.70223 4.64998 8.0001 4.64998C9.29797 4.64998 10.3501 5.70211 10.3501 6.99998V11.0148H5.6501V6.99998ZM7.60552 7.64998C7.60552 8.00896 7.3145 8.29998 6.95552 8.29998C6.59653 8.29998 6.30552 8.00896 6.30552 7.64998C6.30552 7.29099 6.59653 6.99998 6.95552 6.99998C7.3145 6.99998 7.60552 7.29099 7.60552 7.64998ZM9.04463 8.29998C9.40361 8.29998 9.69463 8.00896 9.69463 7.64998C9.69463 7.29099 9.40361 6.99998 9.04463 6.99998C8.68564 6.99998 8.39463 7.29099 8.39463 7.64998C8.39463 8.00896 8.68564 8.29998 9.04463 8.29998Z" fill="black"/>
<path fill-rule="evenodd" clip-rule="evenodd" d="M8 15C11.866 15 15 11.866 15 8C15 4.13401 11.866 1 8 1C4.13401 1 1 4.13401 1 8C1 11.866 4.13401 15 8 15ZM8.0001 3.34998C5.98426 3.34998 4.3501 4.98414 4.3501 6.99998V11.6648C4.3501 12.0238 4.64111 12.3148 5.0001 12.3148H11.0001C11.3591 12.3148 11.6501 12.0238 11.6501 11.6648V6.99998C11.6501 4.98414 10.0159 3.34998 8.0001 3.34998Z" fill="black"/>
</svg>
