<svg width="16" height="16" viewBox="0 0 16 16" fill="none" xmlns="http://www.w3.org/2000/svg">
<path fill-rule="evenodd" clip-rule="evenodd" d="M8 15C11.866 15 15 11.866 15 8C15 4.13401 11.866 1 8 1C4.13401 1 1 4.13401 1 8C1 11.866 4.13401 15 8 15ZM11.4848 6.67633C11.7777 6.38344 11.7777 5.90857 11.4848 5.61567C11.1919 5.32277 10.717 5.32277 10.4241 5.61566L7.23187 8.80788L5.56116 7.22831C5.26017 6.94374 4.78548 6.95705 4.50091 7.25804C4.21634 7.55903 4.22966 8.03372 4.53064 8.31828L6.73128 10.3989C7.02631 10.6778 7.48975 10.6713 7.77686 10.3842L11.4848 6.67633Z" fill="black"/>
</svg>
