<svg width="16" height="16" viewBox="0 0 16 16" fill="none" xmlns="http://www.w3.org/2000/svg">
<g clip-path="url(#clip0_10663_2089)">
<path d="M8.00032 0.949951C8.35931 0.949951 8.65032 1.24097 8.65032 1.59995V2.76884C8.65032 3.12782 8.35931 3.41884 8.00032 3.41884C7.64134 3.41884 7.35032 3.12782 7.35032 2.76884V1.59995C7.35032 1.24097 7.64134 0.949951 8.00032 0.949951Z" fill="black"/>
<path d="M3.55581 4.47442C3.80965 4.72826 4.22121 4.72826 4.47505 4.47442C4.72889 4.22058 4.72889 3.80902 4.47505 3.55518L3.58462 2.66475C3.33078 2.41091 2.91922 2.41091 2.66538 2.66475C2.41154 2.91859 2.41154 3.33015 2.66538 3.58399L3.55581 4.47442Z" fill="black"/>
<path d="M13.3352 2.66501C13.589 2.91885 13.589 3.33041 13.3352 3.58425L12.4447 4.47468C12.1909 4.72852 11.7793 4.72852 11.5255 4.47468C11.2716 4.22084 11.2716 3.80928 11.5255 3.55544L12.4159 2.66501C12.6698 2.41117 13.0813 2.41117 13.3352 2.66501Z" fill="black"/>
<path fill-rule="evenodd" clip-rule="evenodd" d="M4.06468 7.99543C4.06468 5.82272 5.826 4.06139 7.99871 4.06139C10.1714 4.06139 11.9327 5.82272 11.9327 7.99543C11.9327 10.1681 10.1714 11.9295 7.99871 11.9295C5.826 11.9295 4.06468 10.1681 4.06468 7.99543ZM7.99871 5.36139C6.54397 5.36139 5.36468 6.54069 5.36468 7.99543C5.36468 9.45016 6.54397 10.6295 7.99871 10.6295C9.45345 10.6295 10.6327 9.45016 10.6327 7.99543C10.6327 6.54069 9.45345 5.36139 7.99871 5.36139Z" fill="black"/>
<path d="M15.0502 7.99997C15.0502 8.35895 14.7592 8.64997 14.4002 8.64997H13.2313C12.8723 8.64997 12.5813 8.35895 12.5813 7.99997C12.5813 7.64098 12.8723 7.34997 13.2313 7.34997H14.4002C14.7592 7.34997 15.0502 7.64098 15.0502 7.99997Z" fill="black"/>
<path d="M2.76908 8.64975C3.12807 8.64975 3.41908 8.35874 3.41908 7.99975C3.41908 7.64077 3.12807 7.34975 2.76908 7.34975H1.6002C1.24121 7.34975 0.950195 7.64077 0.950195 7.99975C0.950195 8.35874 1.24121 8.64975 1.6002 8.64975H2.76908Z" fill="black"/>
<path d="M4.4748 12.4443C4.72864 12.1905 4.72864 11.7789 4.4748 11.5251C4.22096 11.2712 3.80941 11.2712 3.55557 11.5251L2.66513 12.4155C2.41129 12.6693 2.41129 13.0809 2.66513 13.3347C2.91898 13.5886 3.33053 13.5886 3.58437 13.3347L4.4748 12.4443Z" fill="black"/>
<path d="M13.3352 13.3349C13.0813 13.5888 12.6698 13.5888 12.4159 13.3349L11.5255 12.4445C11.2716 12.1907 11.2716 11.7791 11.5255 11.5253C11.7793 11.2714 12.1909 11.2714 12.4447 11.5253L13.3352 12.4157C13.589 12.6695 13.589 13.0811 13.3352 13.3349Z" fill="black"/>
<path d="M8.65032 13.231C8.65032 12.872 8.35931 12.581 8.00032 12.581C7.64134 12.581 7.35032 12.872 7.35032 13.231V14.3999C7.35032 14.7589 7.64134 15.0499 8.00032 15.0499C8.35931 15.0499 8.65032 14.7589 8.65032 14.3999V13.231Z" fill="black"/>
</g>
<defs>
<clipPath id="clip0_10663_2089">
<rect width="16" height="16" fill="white"/>
</clipPath>
</defs>
</svg>
