<svg width="16" height="16" viewBox="0 0 16 16" fill="none" xmlns="http://www.w3.org/2000/svg">
<path d="M1.02441 4.10381C1.02441 3.02685 1.89746 2.15381 2.97441 2.15381H13.051C14.1279 2.15381 15.001 3.02685 15.001 4.10381V5.47367C15.001 5.81721 14.9121 6.14 14.7562 6.42033C14.4002 6.15037 13.9998 5.95991 13.5757 5.85741C13.6545 5.74987 13.701 5.6172 13.701 5.47367V4.10381C13.701 3.74482 13.41 3.45381 13.051 3.45381H2.97441C2.61543 3.45381 2.32441 3.74482 2.32441 4.10381V5.47368C2.32441 5.83266 2.61543 6.12368 2.97441 6.12368H11.3067C10.7219 6.41181 10.2183 6.86208 9.87997 7.42368H2.97441C1.89746 7.42368 1.02441 6.55063 1.02441 5.47368V4.10381Z" fill="black"/>
<path d="M2.97441 8.43896H9.61597C9.65045 8.95808 9.92734 9.45123 10.395 9.73897H2.97441C2.61543 9.73897 2.32441 10.03 2.32441 10.389V11.7588C2.32441 12.1178 2.61543 12.4088 2.97441 12.4088H11.1838C11.2242 12.526 11.2777 12.6367 11.3445 12.7394C11.1845 12.9994 11.0945 13.2994 11.0945 13.6294C11.0945 13.656 11.0951 13.6825 11.0964 13.7088H2.97441C1.89746 13.7088 1.02441 12.8358 1.02441 11.7588V10.389C1.02441 9.31201 1.89746 8.43896 2.97441 8.43896Z" fill="black"/>
<path d="M4.09297 4.12622C3.92728 4.12622 3.79297 4.26054 3.79297 4.42622V5.15156C3.79297 5.31724 3.92728 5.45156 4.09297 5.45156H4.81831C4.98399 5.45156 5.11831 5.31724 5.11831 5.15156V4.42622C5.11831 4.26054 4.98399 4.12622 4.81831 4.12622H4.09297Z" fill="black"/>
<path d="M6.44824 4.42622C6.44824 4.26054 6.58256 4.12622 6.74824 4.12622H7.47358C7.63927 4.12622 7.77358 4.26054 7.77358 4.42622V5.15156C7.77358 5.31724 7.63927 5.45156 7.47358 5.45156H6.74824C6.58256 5.45156 6.44824 5.31724 6.44824 5.15156V4.42622Z" fill="black"/>
<path d="M3.79297 10.711C3.79297 10.5453 3.92728 10.411 4.09297 10.411H4.81831C4.98399 10.411 5.11831 10.5453 5.11831 10.711V11.4363C5.11831 11.602 4.98399 11.7363 4.81831 11.7363H4.09297C3.92728 11.7363 3.79297 11.602 3.79297 11.4363V10.711Z" fill="black"/>
<path d="M6.44824 10.711C6.44824 10.5453 6.58256 10.411 6.74824 10.411H7.47358C7.63927 10.411 7.77358 10.5453 7.77358 10.711V11.4363C7.77358 11.602 7.63927 11.7363 7.47358 11.7363H6.74824C6.58256 11.7363 6.44824 11.602 6.44824 11.4363V10.711Z" fill="black"/>
<path d="M11.8675 8.65885C12.2111 8.04282 13.0294 7.91108 13.4912 8.41449C13.7144 8.65788 13.7552 8.83811 13.7547 8.96177C13.7542 9.10405 13.6974 9.27544 13.5613 9.48262C13.4256 9.68941 13.2394 9.88887 13.0418 10.0806C12.9764 10.1441 12.9172 10.1998 12.8581 10.2553C12.8254 10.2859 12.7928 10.3166 12.7592 10.3486C12.6766 10.427 12.5777 10.5226 12.5007 10.6158C12.2429 10.9278 12.0476 11.4244 12.1086 11.9431C12.1513 12.3065 12.4807 12.5665 12.8441 12.5238C13.2076 12.481 13.4676 12.1517 13.4248 11.7882C13.419 11.739 13.4249 11.6759 13.4468 11.6076C13.4693 11.5378 13.5011 11.4857 13.5225 11.4599C13.5415 11.4368 13.5845 11.3925 13.6718 11.3096C13.6957 11.2869 13.7234 11.2609 13.7533 11.2328L13.754 11.232C13.818 11.172 13.8926 11.1018 13.9648 11.0318C14.1828 10.8201 14.4525 10.5401 14.6692 10.2101C14.8857 9.88045 15.0781 9.45765 15.0801 8.96709C15.0821 8.45791 14.8788 7.96665 14.4678 7.51861C13.2873 6.23164 11.4128 6.75325 10.71 8.01328C10.5318 8.33291 10.6464 8.73654 10.966 8.91481C11.2856 9.09308 11.6892 8.97848 11.8675 8.65885Z" fill="black"/>
<path d="M12.767 14.2951C12.8097 14.2951 12.8514 14.2911 12.8919 14.2834C13.2019 14.2252 13.4364 13.953 13.4364 13.6261C13.4364 13.2566 13.137 12.9572 12.7675 12.9572C12.7249 12.9572 12.6831 12.9611 12.6427 12.9688C12.3327 13.027 12.0981 13.2992 12.0981 13.6262C12.0981 13.9956 12.3976 14.2951 12.767 14.2951Z" fill="black"/>
</svg>
