<svg width="16" height="16" viewBox="0 0 16 16" fill="none" xmlns="http://www.w3.org/2000/svg">
<path fill-rule="evenodd" clip-rule="evenodd" d="M1 4C1 2.34315 2.34315 1 4 1H12C13.6569 1 15 2.34315 15 4V12C15 13.6569 13.6569 15 12 15H4C2.34315 15 1 13.6569 1 12V4ZM4 2.3H12C12.9389 2.3 13.7 3.06112 13.7 4V5.38738H2.3V4C2.3 3.06112 3.06112 2.3 4 2.3ZM9.75216 6.68738H6.24784V13.7H9.75216V6.68738ZM11.0522 13.7V6.68738H13.7V12C13.7 12.9389 12.9389 13.7 12 13.7H11.0522ZM2.3 6.68738H4.94784V13.7H4C3.06112 13.7 2.3 12.9389 2.3 12V6.68738Z" fill="black"/>
</svg>
