<svg width="16" height="16" viewBox="0 0 16 16" fill="none" xmlns="http://www.w3.org/2000/svg">
<path d="M11.5029 5.36694C11.9813 5.36694 12.3691 4.97913 12.3691 4.50073C12.3691 4.02234 11.9813 3.63452 11.5029 3.63452C11.0245 3.63452 10.6367 4.02234 10.6367 4.50073C10.6367 4.97913 11.0245 5.36694 11.5029 5.36694Z" fill="black"/>
<path fill-rule="evenodd" clip-rule="evenodd" d="M7.86977 1.40452C8.13193 1.14684 8.48481 1.00244 8.85241 1.00244H13.5947C14.3689 1.00244 14.9964 1.63003 14.9964 2.4042V7.18859C14.9964 7.55756 14.851 7.91165 14.5916 8.17405L8.25759 14.5815C7.71112 15.1343 6.81916 15.1369 6.2695 14.5873L1.41447 9.73223C0.86372 9.18148 0.867564 8.28736 1.42303 7.74136L7.86977 1.40452ZM13.6671 7.26013L7.33307 13.6676C7.29339 13.7077 7.22864 13.7079 7.18874 13.668L2.33371 8.813C2.29373 8.77301 2.29401 8.7081 2.33433 8.66847L8.78107 2.33163C8.80011 2.31292 8.82572 2.30244 8.85241 2.30244H13.5947C13.6509 2.30244 13.6964 2.348 13.6964 2.4042V7.18859C13.6964 7.21537 13.6859 7.24108 13.6671 7.26013Z" fill="black"/>
</svg>
