<svg width="16" height="16" viewBox="0 0 16 16" fill="none" xmlns="http://www.w3.org/2000/svg">
<path d="M10.576 7.51614C10.8298 7.2623 10.8298 6.85074 10.576 6.5969C10.3222 6.34306 9.9106 6.34306 9.65676 6.5969L7.48908 8.76458L6.34316 7.61867C6.08932 7.36483 5.67777 7.36483 5.42393 7.61867C5.17008 7.87251 5.17008 8.28407 5.42393 8.53791L7.02946 10.1434C7.15135 10.2653 7.31668 10.3338 7.48908 10.3338C7.66147 10.3338 7.8268 10.2653 7.94869 10.1434L10.576 7.51614Z" fill="black"/>
<path fill-rule="evenodd" clip-rule="evenodd" d="M11.4875 1.00464H4.5125C3.29747 1.00464 2.3125 1.98961 2.3125 3.20464V12.8046C2.3125 14.0197 3.29747 15.0046 4.5125 15.0046H11.4875C12.7025 15.0046 13.6875 14.0197 13.6875 12.8046V3.20464C13.6875 1.98961 12.7025 1.00464 11.4875 1.00464ZM11.4875 2.30464H10.2295V2.85525C10.2295 3.40753 9.78178 3.85525 9.22949 3.85525H6.77051C6.21822 3.85525 5.77051 3.40753 5.77051 2.85525V2.30464H4.5125C4.01544 2.30464 3.6125 2.70758 3.6125 3.20464V12.8046C3.6125 13.3017 4.01544 13.7046 4.5125 13.7046H11.4875C11.9846 13.7046 12.3875 13.3017 12.3875 12.8046V3.20464C12.3875 2.70758 11.9846 2.30464 11.4875 2.30464Z" fill="black"/>
</svg>
