<svg width="16" height="16" viewBox="0 0 16 16" fill="none" xmlns="http://www.w3.org/2000/svg">
<path d="M7.99978 2.33822C8.36797 2.33822 8.66645 2.03974 8.66645 1.67155C8.66645 1.30336 8.36797 1.00488 7.99978 1.00488C7.63159 1.00488 7.33311 1.30336 7.33311 1.67155C7.33311 2.03974 7.63159 2.33822 7.99978 2.33822Z" fill="black"/>
<path fill-rule="evenodd" clip-rule="evenodd" d="M3.24961 3.55411H4.96873C5.13513 3.22574 5.47544 3.00613 5.86091 3.00613H10.1387C10.5242 3.00613 10.8645 3.22574 11.0309 3.5541H12.337C13.2483 3.5541 13.987 4.29283 13.987 5.2041V8.35165C13.987 8.71064 13.696 9.00165 13.337 9.00165C12.9781 9.00165 12.687 8.71064 12.687 8.35165V5.2041C12.687 5.0108 12.5303 4.8541 12.337 4.8541H11.2772L12.1551 10.7032C12.3366 11.9125 11.4 13.0001 10.1772 13.0001H5.82238C4.59958 13.0001 3.66304 11.9125 3.84454 10.7032L4.40044 6.99941L2.71582 4.57501C2.57775 4.37631 2.56148 4.11736 2.67359 3.90293C2.78571 3.68851 3.00765 3.55411 3.24961 3.55411ZM6.14706 4.30928L6.14757 4.30613H9.88035L10.8695 10.8962C10.933 11.3194 10.6052 11.7001 10.1772 11.7001H5.82238C5.3944 11.7001 5.06661 11.3194 5.13014 10.8962L5.81272 6.34839L6.14706 4.30928Z" fill="black"/>
<path d="M4.66446 13.6967C4.30547 13.6967 4.01446 13.9877 4.01446 14.3467C4.01446 14.7057 4.30547 14.9967 4.66446 14.9967H11.3486C11.7076 14.9967 11.9986 14.7057 11.9986 14.3467C11.9986 13.9877 11.7076 13.6967 11.3486 13.6967L4.66446 13.6967Z" fill="black"/>
</svg>
