<svg width="16" height="16" viewBox="0 0 16 16" fill="none" xmlns="http://www.w3.org/2000/svg">
<path fill-rule="evenodd" clip-rule="evenodd" d="M10.173 5.14408C10.181 5.2202 10.1852 5.29748 10.1852 5.37572C10.1852 6.58252 9.20685 7.56083 8.00005 7.56083C6.79325 7.56083 5.81494 6.58252 5.81494 5.37572C5.81494 4.16892 6.79325 3.19061 8.00005 3.19061C8.61027 3.19061 9.16207 3.44075 9.5585 3.84408H10.5507C10.9096 3.84408 11.2007 4.13509 11.2007 4.49408C11.2007 4.85306 10.9096 5.14408 10.5507 5.14408H10.173ZM8.88516 5.37572C8.88516 5.86455 8.48888 6.26083 8.00005 6.26083C7.51122 6.26083 7.11494 5.86455 7.11494 5.37572C7.11494 5.29557 7.12559 5.21791 7.14556 5.14408H8.85454C8.87451 5.21791 8.88516 5.29557 8.88516 5.37572Z" fill="black"/>
<path fill-rule="evenodd" clip-rule="evenodd" d="M15 8C15 11.866 11.866 15 8 15C4.13401 15 1 11.866 1 8C1 4.13401 4.13401 1 8 1C11.866 1 15 4.13401 15 8ZM13.7 8C13.7 9.17328 13.3455 10.2638 12.7378 11.1702C12.4055 9.61198 11.0211 8.44332 9.36371 8.44332H6.63618C4.97888 8.44332 3.59451 9.61192 3.26212 11.1701C2.65446 10.2637 2.3 9.17322 2.3 8C2.3 4.85198 4.85198 2.3 8 2.3C11.148 2.3 13.7 4.85198 13.7 8ZM11.5137 11.8933V12.4885C10.5455 13.2475 9.32561 13.7 8 13.7C6.67434 13.7 5.45438 13.2475 4.48618 12.4884V11.8933C4.48618 10.7059 5.44877 9.74332 6.63618 9.74332H9.36371C10.5511 9.74332 11.5137 10.7059 11.5137 11.8933Z" fill="black"/>
</svg>
