<svg width="16" height="16" viewBox="0 0 16 16" fill="none" xmlns="http://www.w3.org/2000/svg">
<path d="M8.0166 10.0001C8.0166 9.64109 8.30761 9.35008 8.6666 9.35008H11.3333C11.6922 9.35008 11.9833 9.64109 11.9833 10.0001C11.9833 10.3591 11.6922 10.6501 11.3333 10.6501H8.6666C8.30761 10.6501 8.0166 10.3591 8.0166 10.0001Z" fill="black"/>
<path d="M5.12621 6.20713C4.87237 5.95329 4.46082 5.95329 4.20698 6.20713C3.95314 6.46097 3.95314 6.87253 4.20698 7.12637L5.41402 8.33341L4.20698 9.54046C3.95314 9.7943 3.95314 10.2059 4.20698 10.4597C4.46082 10.7135 4.87237 10.7135 5.12621 10.4597L6.79288 8.79303C7.04672 8.53919 7.04672 8.12764 6.79288 7.8738L5.12621 6.20713Z" fill="black"/>
<path fill-rule="evenodd" clip-rule="evenodd" d="M1.34229 4.66675C1.34229 3.56218 2.23772 2.66675 3.34229 2.66675H12.6756C13.7802 2.66675 14.6756 3.56218 14.6756 4.66675V11.3334C14.6756 12.438 13.7802 13.3334 12.6756 13.3334H3.34228C2.23771 13.3334 1.34229 12.438 1.34229 11.3334V4.66675ZM2.64229 4.66419L2.64229 4.66675V11.3334C2.64229 11.72 2.95569 12.0334 3.34228 12.0334H12.6756C13.0622 12.0334 13.3756 11.72 13.3756 11.3334V4.66675L13.3756 4.66419H2.64229Z" fill="black"/>
</svg>
