<svg width="16" height="16" viewBox="0 0 16 16" fill="none" xmlns="http://www.w3.org/2000/svg">
<path d="M5.94386 2.32334C6.87199 0.715785 9.1923 0.715787 10.1204 2.32335L12.1373 5.81667C11.6052 5.58014 11.0208 5.43999 10.4062 5.41835L8.99459 2.97335C8.56684 2.23245 7.49745 2.23245 7.06969 2.97334L2.48764 10.9097C2.05989 11.6506 2.59458 12.5767 3.45009 12.5767H6.27153C6.58929 13.0835 7.00147 13.525 7.48341 13.8767H3.45009C1.59384 13.8767 0.433688 11.8672 1.36181 10.2597L5.94386 2.32334Z" fill="black"/>
<path fill-rule="evenodd" clip-rule="evenodd" d="M6.66016 10.0943C6.66016 8.11765 8.26255 6.51526 10.2392 6.51526C12.2159 6.51526 13.8183 8.11765 13.8183 10.0943C13.8183 10.8019 13.6129 11.4616 13.2585 12.0169L14.9936 13.7519C15.2474 14.0057 15.2474 14.4173 14.9936 14.6711C14.7397 14.925 14.3282 14.925 14.0743 14.6711L12.3719 12.9688C11.7763 13.4114 11.0383 13.6734 10.2392 13.6734C8.26255 13.6734 6.66016 12.071 6.66016 10.0943ZM10.2392 7.81526C8.98052 7.81526 7.96016 8.83562 7.96016 10.0943C7.96016 11.353 8.98052 12.3734 10.2392 12.3734C11.4979 12.3734 12.5183 11.353 12.5183 10.0943C12.5183 8.83562 11.4979 7.81526 10.2392 7.81526Z" fill="black"/>
</svg>
