<svg width="16" height="16" viewBox="0 0 16 16" fill="none" xmlns="http://www.w3.org/2000/svg">
<path d="M5.58014 8.12577L8.18461 4.08671C8.35753 3.81854 8.77343 3.94101 8.77343 4.26009V6.98106C8.77343 7.20197 8.95252 7.38106 9.17343 7.38106H10.151C10.4043 7.38106 10.5571 7.66148 10.4198 7.87438L7.81538 11.9134C7.64246 12.1816 7.22656 12.0591 7.22656 11.7401V9.01909C7.22656 8.79818 7.04747 8.61909 6.82656 8.61909H5.84903C5.5957 8.61909 5.44286 8.33867 5.58014 8.12577Z" fill="black"/>
<path fill-rule="evenodd" clip-rule="evenodd" d="M15 8C15 11.866 11.866 15 8 15C4.13401 15 1 11.866 1 8C1 4.13401 4.13401 1 8 1C11.866 1 15 4.13401 15 8ZM13.7 8C13.7 11.148 11.148 13.7 8 13.7C4.85198 13.7 2.3 11.148 2.3 8C2.3 4.85198 4.85198 2.3 8 2.3C11.148 2.3 13.7 4.85198 13.7 8Z" fill="black"/>
</svg>
