<svg width="16" height="16" viewBox="0 0 16 16" fill="none" xmlns="http://www.w3.org/2000/svg">
<path d="M5.34326 1.64585C5.34326 1.28686 5.63428 0.99585 5.99326 0.99585H10.0063C10.3653 0.99585 10.6563 1.28686 10.6563 1.64585C10.6563 2.00483 10.3653 2.29585 10.0063 2.29585H5.99326C5.63428 2.29585 5.34326 2.00483 5.34326 1.64585Z" fill="black"/>
<path d="M8.64985 6.32777C8.64985 5.96879 8.35884 5.67777 7.99985 5.67777C7.64087 5.67777 7.34985 5.96879 7.34985 6.32777V9.00316C7.34985 9.17555 7.41834 9.34088 7.54023 9.46278L8.87793 10.8005C9.13177 11.0543 9.54332 11.0543 9.79717 10.8005C10.051 10.5466 10.051 10.1351 9.79717 9.88123L8.64985 8.73392V6.32777Z" fill="black"/>
<path fill-rule="evenodd" clip-rule="evenodd" d="M4.23033 4.33381C5.26055 3.50109 6.57193 3.00239 7.99979 3.00239C9.42765 3.00239 10.739 3.50109 11.7693 4.33381L12.5759 3.52719C12.8297 3.27335 13.2413 3.27335 13.4951 3.52719C13.749 3.78103 13.749 4.19259 13.4951 4.44643L12.6864 5.25515C13.5087 6.2821 14.0006 7.58519 14.0006 9.00316C14.0006 12.3173 11.3139 15.0039 7.99979 15.0039C4.68566 15.0039 1.99902 12.3173 1.99902 9.00316C1.99902 7.58519 2.49084 6.2821 3.31318 5.25515L2.50447 4.44643C2.25063 4.19259 2.25063 3.78103 2.50447 3.52719C2.75831 3.27335 3.16987 3.27335 3.42371 3.52719L4.23033 4.33381ZM7.99979 4.30239C5.40363 4.30239 3.29902 6.40699 3.29902 9.00316C3.29902 11.5993 5.40363 13.7039 7.99979 13.7039C10.596 13.7039 12.7006 11.5993 12.7006 9.00316C12.7006 6.40699 10.596 4.30239 7.99979 4.30239Z" fill="black"/>
</svg>
