<svg width="16" height="16" viewBox="0 0 16 16" fill="none" xmlns="http://www.w3.org/2000/svg">
<path d="M12.4839 3.61022C8.47726 1.17547 4.76383 2.74964 3.43414 3.82031C3.15453 4.04545 2.74535 4.00129 2.52021 3.72168C2.29507 3.44207 2.33922 3.03289 2.61883 2.80775C4.24684 1.49688 8.55786 -0.29677 13.159 2.49927C13.4658 2.68569 13.5633 3.08552 13.3769 3.3923C13.1905 3.69908 12.7907 3.79665 12.4839 3.61022Z" fill="black"/>
<path d="M10.3208 5.32489C9.20721 4.72893 7.71515 4.48516 5.83768 5.39739C4.32506 6.13233 3.61961 7.33539 3.36301 8.60222C3.10121 9.89479 3.31368 11.2424 3.65072 12.1476C3.77598 12.484 3.6048 12.8583 3.26838 12.9835C2.93195 13.1088 2.55768 12.9376 2.43242 12.6012C2.02621 11.5102 1.77081 9.91454 2.08889 8.34415C2.41218 6.74802 3.33436 5.16836 5.26955 4.2281C7.53779 3.12601 9.46919 3.39468 10.9342 4.17871C12.3631 4.94341 13.3132 6.17599 13.742 6.9908C14.5228 8.47436 13.8153 9.67731 12.9963 10.0278C12.6852 10.1695 12.1962 10.2648 11.6763 10.1249C11.117 9.97433 10.5928 9.57054 10.2429 8.83191C9.958 8.23042 9.48281 7.75475 8.91147 7.53156C8.35718 7.31504 7.64959 7.3108 6.82177 7.75987C6.14767 8.12556 5.70142 9.0395 5.8681 10.2278C6.03105 11.3894 6.7907 12.7434 8.42795 13.7606C8.73287 13.9501 8.82649 14.3509 8.63704 14.6558C8.44759 14.9607 8.04682 15.0543 7.7419 14.8649C5.80993 13.6646 4.80235 11.9885 4.58071 10.4084C4.3628 8.85492 4.91462 7.3155 6.20188 6.61718C7.33543 6.00225 8.44226 5.95261 9.38448 6.32067C10.3097 6.68207 11.013 7.42097 11.4178 8.2754C11.6196 8.70151 11.8555 8.82684 12.0142 8.86955C12.2053 8.921 12.386 8.87804 12.4588 8.84409C12.467 8.84025 12.4753 8.83659 12.4837 8.8331C12.5363 8.81118 12.6698 8.71196 12.7388 8.51418C12.7992 8.34094 12.8257 8.04097 12.5916 7.59627C12.2542 6.95516 11.4705 5.94019 10.3208 5.32489Z" fill="black"/>
<path d="M8.62343 9.48369C8.50644 9.1443 8.13647 8.96401 7.79709 9.08099C7.4577 9.19798 7.27741 9.56795 7.39439 9.90734C7.83249 11.1783 9.26242 13.4101 11.9317 13.6892C12.2887 13.7265 12.6084 13.4673 12.6457 13.1103C12.6831 12.7532 12.4239 12.4335 12.0669 12.3962C10.1157 12.1922 8.98166 10.5229 8.62343 9.48369Z" fill="black"/>
</svg>
