<svg width="16" height="16" viewBox="0 0 16 16" fill="none" xmlns="http://www.w3.org/2000/svg">
<path d="M8.8444 5.28823C8.23219 4.6208 7.16837 4.8134 6.72988 5.59959C6.55502 5.91311 6.15911 6.02552 5.84559 5.85066C5.53207 5.6758 5.41967 5.27989 5.59453 4.96637C6.38534 3.54848 8.48522 2.97347 9.80242 4.40948C10.267 4.91601 10.4901 5.463 10.4879 6.02382C10.4857 6.56637 10.2728 7.03872 10.0262 7.41413C9.77948 7.78992 9.47079 8.11107 9.21657 8.35778C9.1325 8.43936 9.04659 8.52013 8.97188 8.59036C8.93606 8.62404 8.90265 8.65544 8.87343 8.68319C8.77131 8.78017 8.71537 8.83724 8.68739 8.87112C8.6511 8.91504 8.60619 8.9909 8.57524 9.08717C8.54474 9.18205 8.53482 9.27475 8.54412 9.35374C8.58606 9.71026 8.33104 10.0333 7.97451 10.0752C7.61799 10.1172 7.29496 9.86216 7.25302 9.50563C7.18595 8.93552 7.40167 8.38634 7.6851 8.04322C7.76996 7.94048 7.88074 7.83311 7.9782 7.74055C8.01663 7.70406 8.05438 7.66858 8.09238 7.63287C8.16236 7.56712 8.23378 7.5 8.31124 7.42484C8.5454 7.19761 8.77221 6.95546 8.93959 6.70056C9.10723 6.44528 9.18709 6.21954 9.18789 6.0186C9.18863 5.83594 9.12489 5.59403 8.8444 5.28823Z" fill="black"/>
<path d="M8.0001 12.2121C8.41431 12.2121 8.7501 11.8763 8.7501 11.4621C8.7501 11.0479 8.41431 10.7121 8.0001 10.7121C7.58588 10.7121 7.2501 11.0479 7.2501 11.4621C7.2501 11.8763 7.58588 12.2121 8.0001 12.2121Z" fill="black"/>
<path fill-rule="evenodd" clip-rule="evenodd" d="M1.00635 3.65623C1.00635 2.19267 2.19279 1.00623 3.65635 1.00623H12.3438C13.8074 1.00623 14.9938 2.19267 14.9938 3.65623V12.3437C14.9938 13.8073 13.8074 14.9937 12.3438 14.9937H3.65635C2.19279 14.9937 1.00635 13.8073 1.00635 12.3437V3.65623ZM3.65635 2.30623C2.91076 2.30623 2.30635 2.91064 2.30635 3.65623V12.3437C2.30635 13.0893 2.91076 13.6937 3.65635 13.6937H12.3438C13.0894 13.6937 13.6938 13.0893 13.6938 12.3437V3.65623C13.6938 2.91064 13.0894 2.30623 12.3438 2.30623H3.65635Z" fill="black"/>
</svg>
