<svg width="16" height="16" viewBox="0 0 16 16" fill="none" xmlns="http://www.w3.org/2000/svg">
<path d="M8.95231 2.83155C8.34026 2.16429 7.27668 2.35682 6.83828 3.14285C6.66342 3.45637 6.26751 3.56877 5.95399 3.39391C5.64047 3.21905 5.52807 2.82314 5.70293 2.50962C6.49364 1.0919 8.59328 0.516954 9.91033 1.9528C10.3749 2.45927 10.598 3.0062 10.5957 3.56696C10.5935 4.10946 10.3806 4.58175 10.1341 4.95711C9.8874 5.33285 9.57875 5.65396 9.32457 5.90063C9.2405 5.98221 9.15458 6.06299 9.07988 6.13321C9.04405 6.16689 9.0107 6.19825 8.98148 6.226C8.87938 6.32296 8.82344 6.38002 8.79547 6.41388C8.75921 6.45779 8.7143 6.53363 8.68336 6.62987C8.65287 6.72472 8.64296 6.8174 8.65225 6.89635C8.69419 7.25288 8.43917 7.5759 8.08265 7.61785C7.72612 7.65979 7.4031 7.40477 7.36115 7.04825C7.29409 6.4782 7.50979 5.92907 7.79318 5.58598C7.87803 5.48326 7.98881 5.3759 8.08625 5.28336C8.12487 5.24668 8.16281 5.21103 8.20101 5.17514C8.27097 5.10939 8.34179 5.04284 8.41923 4.96769C8.65336 4.7405 8.88013 4.49839 9.04748 4.24354C9.21508 3.98831 9.29492 3.76262 9.29573 3.56174C9.29646 3.37913 9.23275 3.13729 8.95231 2.83155Z" fill="black"/>
<path d="M9.46293 11.9577H14.3429C14.7019 11.9577 14.9929 12.2487 14.9929 12.6077C14.9929 12.9667 14.7019 13.2577 14.3429 13.2577H9.46296C9.21381 13.8175 8.65272 14.2077 8.00049 14.2077C7.34825 14.2077 6.78717 13.8175 6.53802 13.2577H1.65732C1.29834 13.2577 1.00732 12.9667 1.00732 12.6077C1.00732 12.2487 1.29834 11.9577 1.65732 11.9577H6.53804C6.7872 11.398 7.34827 11.0077 8.00049 11.0077C8.6527 11.0077 9.21377 11.398 9.46293 11.9577Z" fill="black"/>
<path d="M7.99971 9.77821C8.43366 9.77821 8.78545 9.42642 8.78545 8.99247C8.78545 8.55851 8.43366 8.20672 7.99971 8.20672C7.56575 8.20672 7.21396 8.55851 7.21396 8.99247C7.21396 9.42642 7.56575 9.77821 7.99971 9.77821Z" fill="black"/>
</svg>
