<svg width="16" height="16" viewBox="0 0 16 16" fill="none" xmlns="http://www.w3.org/2000/svg">
<path d="M6.41054 2.00623C6.41054 2.42146 6.07393 2.75807 5.6587 2.75807C5.24347 2.75807 4.90686 2.42146 4.90686 2.00623C4.90686 1.591 5.24347 1.25439 5.6587 1.25439C6.07393 1.25439 6.41054 1.591 6.41054 2.00623Z" fill="black"/>
<path d="M13.5764 2.42323C12.0484 0.895211 9.57099 0.895211 8.04297 2.42323L6.31404 4.15216C6.0602 4.406 6.0602 4.81755 6.31404 5.07139C6.56788 5.32524 6.97944 5.32523 7.23328 5.07139L8.96221 3.34247C9.98254 2.32213 11.6368 2.32213 12.6572 3.34247C13.6775 4.36281 13.6775 6.0171 12.6572 7.03744L10.9472 8.7474C10.6934 9.00125 10.6934 9.4128 10.9472 9.66664C11.2011 9.92048 11.6126 9.92048 11.8665 9.66664L13.5764 7.95668C15.1044 6.42866 15.1044 3.95125 13.5764 2.42323Z" fill="black"/>
<path d="M5.06204 7.24264C5.31588 6.9888 5.31588 6.57724 5.06204 6.3234C4.80819 6.06956 4.39664 6.06956 4.1428 6.3234L2.42268 8.04352C0.894662 9.57154 0.894662 12.0489 2.42268 13.577C3.9507 15.105 6.42811 15.105 7.95613 13.577L9.66677 11.8663C9.92061 11.6125 9.92061 11.2009 9.66677 10.9471C9.41292 10.6933 9.00137 10.6933 8.74753 10.9471L7.03689 12.6577C6.01655 13.6781 4.36226 13.6781 3.34192 12.6577C2.32158 11.6374 2.32158 9.98309 3.34192 8.96275L5.06204 7.24264Z" fill="black"/>
<path d="M10.1849 6.73409C10.4387 6.48025 10.4387 6.0687 10.1849 5.81486C9.93106 5.56101 9.51951 5.56102 9.26567 5.81486L5.81443 9.2661C5.56059 9.51994 5.56059 9.9315 5.81443 10.1853C6.06827 10.4392 6.47983 10.4392 6.73367 10.1853L10.1849 6.73409Z" fill="black"/>
<path d="M2.17259 2.30014C2.42643 2.0463 2.83799 2.04631 3.09183 2.30015L4.15798 3.36634C4.41182 3.62018 4.41182 4.03174 4.15797 4.28558C3.90413 4.53942 3.49257 4.53941 3.23873 4.28557L2.17258 3.21938C1.91874 2.96553 1.91874 2.55398 2.17259 2.30014Z" fill="black"/>
<path d="M12.9073 13.7001C13.1612 13.9539 13.5727 13.9539 13.8266 13.7001C14.0804 13.4463 14.0804 13.0347 13.8266 12.7809L12.7604 11.7147C12.5066 11.4608 12.095 11.4608 11.8412 11.7147C11.5873 11.9685 11.5873 12.3801 11.8412 12.6339L12.9073 13.7001Z" fill="black"/>
<path d="M2.19118 5.55933C2.19118 5.97456 1.85457 6.31117 1.43934 6.31117C1.02411 6.31117 0.6875 5.97456 0.6875 5.55933C0.6875 5.1441 1.02411 4.8075 1.43934 4.8075C1.85457 4.8075 2.19118 5.1441 2.19118 5.55933Z" fill="black"/>
<path d="M14.5598 9.68907C14.1446 9.68907 13.808 10.0257 13.808 10.4409C13.808 10.8561 14.1446 11.1927 14.5598 11.1927C14.975 11.1927 15.3116 10.8561 15.3116 10.4409C15.3116 10.0257 14.975 9.68907 14.5598 9.68907Z" fill="black"/>
<path d="M10.3406 13.2422C9.92534 13.2422 9.58873 13.5788 9.58873 13.994C9.58873 14.4092 9.92534 14.7458 10.3406 14.7458C10.7558 14.7458 11.0924 14.4092 11.0924 13.994C11.0924 13.5788 10.7558 13.2422 10.3406 13.2422Z" fill="black"/>
</svg>
