<svg width="16" height="16" viewBox="0 0 16 16" fill="none" xmlns="http://www.w3.org/2000/svg">
<path d="M11.0665 3.19015C11.2111 3.61371 10.8501 4.0001 10.4026 4.0001C10.1301 4.0001 9.90794 3.79238 9.80971 3.5382C9.5284 2.81024 8.82177 2.2939 7.99455 2.2939C6.9202 2.2939 6.04927 3.16483 6.04927 4.23918V6H11.4C12.8359 6 14 7.16406 14 8.6V12.4C14 13.8359 12.8359 15 11.4 15H4.6C3.16406 15 2 13.8359 2 12.4V8.6C2 7.16406 3.16406 6 4.6 6H4.74927V4.23918C4.74927 2.44686 6.20223 0.993896 7.99455 0.993896C9.41977 0.993896 10.6304 1.91262 11.0665 3.19015Z" fill="black"/>
</svg>
