<svg width="16" height="16" viewBox="0 0 16 16" fill="none" xmlns="http://www.w3.org/2000/svg">
<path fill-rule="evenodd" clip-rule="evenodd" d="M2.74414 3.09858C2.74414 1.9664 3.66196 1.04858 4.79414 1.04858H8.46336C8.78233 1.04858 9.08698 1.18107 9.30449 1.41437L12.947 5.3213C13.1455 5.5342 13.2559 5.81445 13.2559 6.10552V7.94314C12.847 7.79962 12.4102 7.71518 11.9559 7.70009V6.54199H10.0642C8.93198 6.54199 8.01416 5.62417 8.01416 4.49199L8.01417 2.34858H4.79414C4.37993 2.34858 4.04414 2.68437 4.04414 3.09858V12.9106C4.04414 13.3248 4.37993 13.6606 4.79414 13.6606H8.09325C8.07833 14.1194 8.22439 14.5834 8.53438 14.9606H4.79414C3.66196 14.9606 2.74414 14.0428 2.74414 12.9106V3.09858ZM9.31416 3.33111L11.0957 5.24199H10.0642C9.64995 5.24199 9.31416 4.9062 9.31416 4.49199L9.31416 3.33111Z" fill="black"/>
<path d="M9.83063 14.4175C10.1076 14.6509 10.4268 14.8362 10.7748 14.9606C11.0977 15.076 11.4457 15.1389 11.8081 15.1389C13.5039 15.1389 14.8787 13.7642 14.8787 12.0683C14.8787 10.3724 13.5039 8.99762 11.8081 8.99762C10.9992 8.99762 10.2639 9.31041 9.71589 9.82079V9.39042C9.71589 9.03143 9.42488 8.74042 9.06589 8.74042C8.70691 8.74042 8.41589 9.03143 8.41589 9.39042V11.4697C8.41589 11.8287 8.70691 12.1197 9.06589 12.1197H11.0456C11.4046 12.1197 11.6956 11.8287 11.6956 11.4697C11.6956 11.1107 11.4046 10.8197 11.0456 10.8197H10.5524C10.8735 10.4968 11.3178 10.2976 11.8081 10.2976C11.8579 10.2976 11.9072 10.2997 11.9559 10.3037C12.262 10.329 12.546 10.4322 12.788 10.5933C12.8109 10.6085 12.8333 10.6242 12.8554 10.6405C13.0099 10.754 13.1453 10.892 13.2559 11.0487C13.4593 11.337 13.5787 11.6887 13.5787 12.0683C13.5787 13.0462 12.786 13.8389 11.8081 13.8389C11.2986 13.8389 10.8402 13.6246 10.5163 13.2793C10.2707 13.0175 9.85935 13.0043 9.59752 13.2499C9.47338 13.3664 9.40515 13.5201 9.39388 13.6774C9.383 13.8294 9.42529 13.9849 9.52172 14.1134" fill="black"/>
<path d="M9.56814 14.1687C9.65063 14.2566 9.73829 14.3397 9.83063 14.4175L9.56814 14.1687Z" fill="black"/>
</svg>
