<svg width="16" height="16" viewBox="0 0 16 16" fill="none" xmlns="http://www.w3.org/2000/svg">
<path d="M6.26815 5.21915C6.50563 5.48836 6.47991 5.89911 6.2107 6.13659C5.64739 6.63352 5.29365 7.35867 5.29365 8.16725C5.29365 9.6621 6.50547 10.8739 8.00033 10.8739C9.49519 10.8739 10.707 9.6621 10.707 8.16725C10.707 7.35867 10.3533 6.63351 9.78996 6.13659C9.52075 5.89911 9.49503 5.48836 9.73251 5.21915C9.96999 4.94994 10.3807 4.92422 10.65 5.1617C11.4811 5.89493 12.007 6.97008 12.007 8.16725C12.007 10.3801 10.2132 12.1739 8.00033 12.1739C5.7875 12.1739 3.99365 10.3801 3.99365 8.16725C3.99365 6.97008 4.51952 5.89493 5.35071 5.1617C5.61992 4.92422 6.03067 4.94994 6.26815 5.21915Z" fill="black"/>
<path d="M8.6501 4.47629C8.6501 4.11731 8.35908 3.82629 8.0001 3.82629C7.64111 3.82629 7.3501 4.11731 7.3501 4.47629V8.16737C7.3501 8.52636 7.64111 8.81737 8.0001 8.81737C8.35908 8.81737 8.6501 8.52636 8.6501 8.16737V4.47629Z" fill="black"/>
<path fill-rule="evenodd" clip-rule="evenodd" d="M1.1001 3.5501C1.1001 2.197 2.197 1.1001 3.5501 1.1001H12.4501C13.8032 1.1001 14.9001 2.197 14.9001 3.5501V12.4501C14.9001 13.8032 13.8032 14.9001 12.4501 14.9001H3.5501C2.197 14.9001 1.1001 13.8032 1.1001 12.4501V3.5501ZM3.5501 2.4001C2.91497 2.4001 2.4001 2.91497 2.4001 3.5501V12.4501C2.4001 13.0852 2.91497 13.6001 3.5501 13.6001H12.4501C13.0852 13.6001 13.6001 13.0852 13.6001 12.4501V3.5501C13.6001 2.91497 13.0852 2.4001 12.4501 2.4001H3.5501Z" fill="black"/>
</svg>
