<svg width="16" height="16" viewBox="0 0 16 16" fill="none" xmlns="http://www.w3.org/2000/svg">
<path d="M9.69675 8.34644C9.96342 8.19248 9.96342 7.80758 9.69675 7.65362L7.45158 6.35737C7.18491 6.20341 6.85158 6.39586 6.85158 6.70378V9.29628C6.85158 9.6042 7.18491 9.79665 7.45158 9.64269L9.69675 8.34644Z" fill="black"/>
<path fill-rule="evenodd" clip-rule="evenodd" d="M1 5.35C1 3.91406 2.16406 2.75 3.6 2.75H12.4C13.8359 2.75 15 3.91406 15 5.35V10.65C15 12.0859 13.8359 13.25 12.4 13.25H3.6C2.16406 13.25 1 12.0859 1 10.65V5.35ZM3.6 4.25H12.4C13.0075 4.25 13.5 4.74249 13.5 5.35V10.65C13.5 11.2575 13.0075 11.75 12.4 11.75H3.6C2.99249 11.75 2.5 11.2575 2.5 10.65V5.35C2.5 4.74249 2.99249 4.25 3.6 4.25Z" fill="black"/>
</svg>
