<svg width="16" height="16" viewBox="0 0 16 16" fill="none" xmlns="http://www.w3.org/2000/svg">
<path d="M8.00114 9.33497C6.40499 9.33497 5.60517 10.2232 5.48512 10.368C5.25599 10.6444 4.84622 10.6827 4.56987 10.4535C4.29351 10.2244 4.25522 9.81464 4.48435 9.53828C4.73558 9.23526 5.86731 8.03497 8.00114 8.03497C10.135 8.03497 11.2667 9.23526 11.5179 9.53828C11.7471 9.81464 11.7088 10.2244 11.4324 10.4535C11.1561 10.6827 10.7463 10.6444 10.5172 10.368C10.3971 10.2232 9.5973 9.33497 8.00114 9.33497Z" fill="black"/>
<path d="M7.14402 12.0789C7.18591 12.031 7.4557 11.7459 8.0012 11.7459C8.54669 11.7459 8.81648 12.031 8.85837 12.0789C9.09471 12.3491 9.50535 12.3765 9.77556 12.1402C10.0458 11.9038 10.0732 11.4932 9.83688 11.223C9.65407 11.014 9.0571 10.4459 8.0012 10.4459C6.94529 10.4459 6.34832 11.014 6.16551 11.223C5.92917 11.4932 5.95663 11.9038 6.22683 12.1402C6.49704 12.3765 6.90768 12.3491 7.14402 12.0789Z" fill="black"/>
<path fill-rule="evenodd" clip-rule="evenodd" d="M4.95142 4.04977C4.95142 2.36543 6.31685 1 8.00119 1C9.68554 1 11.051 2.36543 11.051 4.04977V5.37213H11.525C12.9609 5.37213 14.125 6.53619 14.125 7.97213V12.4C14.125 13.836 12.9609 15 11.525 15H4.475C3.03906 15 1.875 13.836 1.875 12.4V7.97213C1.875 6.53619 3.03906 5.37213 4.475 5.37213H4.95142V4.04977ZM9.75097 4.04977V5.36913H6.25142V4.04977C6.25142 3.0834 7.03482 2.3 8.00119 2.3C8.96757 2.3 9.75097 3.0834 9.75097 4.04977ZM4.475 6.67213H11.525C12.243 6.67213 12.825 7.25416 12.825 7.97213V12.4C12.825 13.118 12.243 13.7 11.525 13.7H4.475C3.75703 13.7 3.175 13.118 3.175 12.4V7.97213C3.175 7.25416 3.75703 6.67213 4.475 6.67213Z" fill="black"/>
</svg>
