<svg width="16" height="16" viewBox="0 0 16 16" fill="none" xmlns="http://www.w3.org/2000/svg">
<path fill-rule="evenodd" clip-rule="evenodd" d="M14.9999 7.96268C14.98 4.13552 11.8887 1.03506 8.06513 1.00021C8.04355 0.999422 8.02185 0.999023 8.00004 0.999023C7.97823 0.999023 7.95654 0.999422 7.93497 1.00021C4.09893 1.03512 1 4.15562 1 7.99991C1 11.8431 4.09711 14.9629 7.9316 14.9996C7.95428 15.0005 7.97709 15.0009 8.00004 15.0009C8.02299 15.0009 8.04581 15.0005 8.0685 14.9996C8.67284 14.9938 9.25885 14.9114 9.81732 14.7617C9.33763 14.1844 9.07488 13.5327 8.93126 12.8962C8.8076 13.1029 8.68111 13.2699 8.55639 13.3976C8.33886 13.6203 8.16174 13.6907 8.03044 13.6998L8 13.6999L7.96964 13.6998C7.83835 13.6907 7.66122 13.6203 7.44369 13.3976C7.20682 13.1551 6.96356 12.7705 6.74542 12.2426C6.36704 11.3267 6.10274 10.0729 6.04032 8.64991H9.95975C9.95716 8.70905 9.95422 8.76789 9.95093 8.82643L11.1716 8.1928C12.0237 7.75051 13.0377 7.75051 13.8898 8.1928L14.9604 8.74856C14.9853 8.51467 14.9987 8.27734 14.9999 8.03715C15.0006 8.02483 15.001 8.01241 15.001 7.99991C15.001 7.98742 15.0006 7.975 14.9999 7.96268ZM6.04033 7.34991H9.95975C9.89732 5.92693 9.63303 4.6732 9.25465 3.75737C9.03652 3.22938 8.79326 2.84481 8.55639 2.6023C8.33801 2.37874 8.16036 2.30869 8.02891 2.29999L8 2.29991L7.97117 2.29999C7.83972 2.30869 7.66206 2.37874 7.44369 2.6023C7.20682 2.84481 6.96356 3.22938 6.74542 3.75737C6.36705 4.6732 6.10275 5.92693 6.04033 7.34991ZM13.6633 7.34991H11.2609C11.1978 5.78499 10.9088 4.35657 10.4561 3.26097C10.3828 3.08336 10.304 2.91195 10.2199 2.74835C12.0746 3.53335 13.4275 5.27223 13.6633 7.34991ZM4.73919 7.34991H2.33666C2.57251 5.2722 3.92541 3.53328 5.78021 2.74831C5.69605 2.91192 5.61731 3.08335 5.54393 3.26097C5.09129 4.35657 4.80225 5.78499 4.73919 7.34991ZM4.73919 8.64991H2.33666C2.57251 10.7276 3.92538 12.4665 5.78015 13.2515C5.69601 13.0879 5.61729 12.9165 5.54393 12.739C5.09128 11.6433 4.80224 10.2149 4.73919 8.64991Z" fill="black"/>
<path d="M12.367 14.9801C12.367 14.9801 12.3674 14.9802 12.5307 14.351C12.7182 14.9734 12.7186 14.9733 12.7186 14.9733C12.6045 15.0077 12.4823 15.01 12.367 14.9801Z" fill="black"/>
<path fill-rule="evenodd" clip-rule="evenodd" d="M12.367 14.9801L12.5307 14.351L12.7186 14.9733L12.7219 14.9723L12.7266 14.9708L12.7386 14.967C12.7477 14.964 12.7593 14.9602 12.773 14.9554C12.8005 14.9458 12.8367 14.9323 12.8804 14.9146C12.9676 14.8791 13.0852 14.8259 13.2213 14.7506C13.4927 14.6004 13.8451 14.358 14.1756 13.986C14.9794 13.0813 15.001 11.8276 15.001 10.9324V10.6292C15.001 10.3866 14.8658 10.1641 14.6504 10.0523L13.2909 9.34661C12.8143 9.09923 12.2471 9.09923 11.7705 9.34661L10.411 10.0523C10.1956 10.1641 10.0604 10.3866 10.0604 10.6292V10.9742C10.0604 11.8405 10.0746 13.0547 10.8337 13.9505C11.1735 14.3516 11.5434 14.6048 11.831 14.7586C11.975 14.8356 12.1 14.8886 12.193 14.9234C12.2396 14.9408 12.2784 14.9538 12.308 14.963C12.3149 14.9652 12.3214 14.9671 12.3273 14.9689C12.3339 14.9709 12.3399 14.9726 12.3452 14.9741L12.3582 14.9778L12.3633 14.9791L12.3655 14.9797L12.367 14.9801ZM12.3695 10.5004C12.4706 10.448 12.5909 10.448 12.692 10.5004L13.7008 11.0241C13.6963 11.9425 13.6203 12.6537 13.2038 13.1225C12.9913 13.3617 12.7642 13.5178 12.5918 13.6131C12.5666 13.6271 12.5427 13.6397 12.5205 13.6509C12.4967 13.6395 12.4711 13.6267 12.444 13.6122C12.2692 13.5187 12.0386 13.3615 11.8255 13.1101C11.4261 12.6388 11.3626 11.9366 11.3605 11.0242L12.3695 10.5004Z" fill="black"/>
</svg>
