<svg width="16" height="16" viewBox="0 0 16 16" fill="none" xmlns="http://www.w3.org/2000/svg">
<path fill-rule="evenodd" clip-rule="evenodd" d="M4.01685 3.0001V4.01672H3.0001C2.08883 4.01672 1.3501 4.75545 1.3501 5.66672V8.01678H7.70661C8.47518 6.46152 10.054 5.36835 11.929 5.36835C12.4135 5.36835 12.8783 5.44134 13.3143 5.57644C13.2675 4.70716 12.5477 4.01672 11.6668 4.01672H10.6502V3.0001C10.6502 2.08883 9.91145 1.3501 9.00018 1.3501H5.66685C4.75558 1.3501 4.01685 2.08883 4.01685 3.0001ZM5.66685 2.6501C5.47355 2.6501 5.31685 2.8068 5.31685 3.0001V4.01672H9.35018V3.0001C9.35018 2.8068 9.19348 2.6501 9.00018 2.6501H5.66685Z" fill="black"/>
<path d="M5.31685 9.31678H7.27972C7.23063 9.59357 7.20508 9.87777 7.20508 10.1669C7.20508 11.3751 7.6991 12.4666 8.24592 13.3167H3.0001C2.08883 13.3167 1.3501 12.578 1.3501 11.6667V9.31678H4.01685V10.0001C4.01685 10.3591 4.30786 10.6501 4.66685 10.6501C5.02583 10.6501 5.31685 10.3591 5.31685 10.0001V9.31678Z" fill="black"/>
<path fill-rule="evenodd" clip-rule="evenodd" d="M11.3785 14.8945C11.297 14.8252 11.1824 14.7252 11.0457 14.599C10.7731 14.3472 10.4082 13.987 10.0415 13.554C9.33716 12.7225 8.50488 11.4837 8.50488 10.1669C8.50488 8.25164 10.0212 6.6684 11.9288 6.6684C13.8365 6.6684 15.3527 8.25164 15.3527 10.1669C15.3527 11.4837 14.5205 12.7225 13.8161 13.554C13.4494 13.987 13.0845 14.3472 12.812 14.599C12.6752 14.7252 12.5606 14.8252 12.4791 14.8945L12.4724 14.9003C12.4103 14.9535 12.1282 15.1954 11.9288 15.1954C11.8203 15.1954 11.7065 15.1733 11.3785 14.8945ZM12.6743 10.1646C12.6743 10.5763 12.3406 10.91 11.9289 10.91C11.5173 10.91 11.1836 10.5763 11.1836 10.1646C11.1836 9.75301 11.5173 9.41931 11.9289 9.41931C12.3406 9.41931 12.6743 9.75301 12.6743 10.1646Z" fill="black"/>
</svg>
