<svg width="16" height="16" viewBox="0 0 16 16" fill="none" xmlns="http://www.w3.org/2000/svg">
<path d="M6.45972 2.20723C6.20588 1.95339 5.79432 1.95339 5.54048 2.20723C5.28664 2.46107 5.28664 2.87262 5.54048 3.12646L6.43086 4.01685H6.0001C3.43197 4.01685 1.3501 6.09872 1.3501 8.66685C1.3501 11.235 3.43197 13.3168 6.0001 13.3168H8.0001C8.35908 13.3168 8.6501 13.0258 8.6501 12.6668C8.6501 12.3079 8.35908 12.0168 8.0001 12.0168H6.0001C4.14994 12.0168 2.6501 10.517 2.6501 8.66685C2.6501 6.81669 4.14994 5.31685 6.0001 5.31685H6.43086L5.54048 6.20723C5.28664 6.46107 5.28664 6.87262 5.54048 7.12647C5.79432 7.38031 6.20588 7.38031 6.45972 7.12647L8.45972 5.12647C8.71356 4.87262 8.71356 4.46107 8.45972 4.20723L6.45972 2.20723Z" fill="black"/>
<path d="M10.0001 5.3501C9.64111 5.3501 9.3501 5.64111 9.3501 6.0001C9.3501 6.35908 9.64111 6.6501 10.0001 6.6501H13.3334C13.6924 6.6501 13.9834 6.35908 13.9834 6.0001C13.9834 5.64111 13.6924 5.3501 13.3334 5.3501H10.0001Z" fill="black"/>
<path d="M10.0001 8.01676C9.64111 8.01676 9.3501 8.30778 9.3501 8.66676C9.3501 9.02575 9.64111 9.31676 10.0001 9.31676H13.3334C13.6924 9.31676 13.9834 9.02575 13.9834 8.66676C13.9834 8.30778 13.6924 8.01676 13.3334 8.01676H10.0001Z" fill="black"/>
<path d="M10.0001 10.6834C9.64111 10.6834 9.3501 10.9744 9.3501 11.3334C9.3501 11.6924 9.64111 11.9834 10.0001 11.9834H13.3334C13.6924 11.9834 13.9834 11.6924 13.9834 11.3334C13.9834 10.9744 13.6924 10.6834 13.3334 10.6834H10.0001Z" fill="black"/>
</svg>
