<svg width="16" height="16" viewBox="0 0 16 16" fill="none" xmlns="http://www.w3.org/2000/svg">
<circle cx="8" cy="8" r="7" fill="white"/>
<path fill-rule="evenodd" clip-rule="evenodd" d="M15 8C15 11.866 11.866 15 8 15C4.13401 15 1 11.866 1 8C1 4.13401 4.13401 1 8 1C11.866 1 15 4.13401 15 8ZM8.9963 12.3944H10.5329V12.3918H10.5226V3.60442H8.30136C6.07108 3.60442 4.89294 4.75398 4.89294 6.4439C4.89294 7.7961 5.53981 8.59755 6.68938 9.41848L4.69031 12.3931H6.34256L8.56375 9.06127L7.79088 8.54039C6.85304 7.913 6.39971 7.42071 6.39971 6.35817C6.39971 5.42163 7.05698 4.79425 8.31176 4.79425H8.9963V12.3944Z" fill="#FC3F1D"/>
</svg>
