<svg width="16" height="16" viewBox="0 0 16 16" fill="none" xmlns="http://www.w3.org/2000/svg">
<g clip-path="url(#clip0_21654_2247)">
<path fill-rule="evenodd" clip-rule="evenodd" d="M15.3334 7.99996C15.3334 12.05 12.0501 15.3333 8.00008 15.3333C3.95 15.3333 0.666748 12.05 0.666748 7.99996C0.666748 3.94987 3.95 0.666626 8.00008 0.666626C12.0501 0.666626 15.3334 3.94987 15.3334 7.99996Z" fill="url(#paint0_linear_21654_2247)"/>
<path fill-rule="evenodd" clip-rule="evenodd" d="M14.9782 7.99996C14.9782 11.8539 11.854 14.9781 8.00007 14.9781C4.14616 14.9781 1.02196 11.8539 1.02196 7.99996C1.02196 4.14605 4.14616 1.02183 8.00007 1.02183C11.854 1.02183 14.9782 4.14605 14.9782 7.99996Z" fill="white"/>
<path fill-rule="evenodd" clip-rule="evenodd" d="M12.7209 4.975L8.79642 8.81354V13.5859C8.79642 13.6719 8.42402 13.7406 8.00006 13.7464C7.59329 13.7406 7.20372 13.6719 7.20372 13.5859V8.81354L3.27924 4.975C3.21622 4.91198 3.41674 4.61406 3.72611 4.30468C4.03549 3.99531 4.33914 3.79479 4.39643 3.85781L7.99434 7.36979L11.5923 3.85781C11.6553 3.79479 11.9532 3.99531 12.2626 4.30468C12.572 4.61406 12.7782 4.91198 12.7209 4.975Z" fill="#EC1C24"/>
</g>
<defs>
<linearGradient id="paint0_linear_21654_2247" x1="8.00008" y1="0.666626" x2="8.00008" y2="15.3333" gradientUnits="userSpaceOnUse">
<stop offset="1e-07" stop-color="#F5F5F6"/>
<stop offset="1" stop-color="#EDEDEE"/>
</linearGradient>
<clipPath id="clip0_21654_2247">
<rect width="16" height="16" fill="white"/>
</clipPath>
</defs>
</svg>
