<svg width="542" height="259" viewBox="0 0 542 259" fill="none" xmlns="http://www.w3.org/2000/svg">
<g filter="url(#filter0_dd_2170_29)">
<path d="M442.021 45.5548C437.331 40.8716 430.501 39.0415 424.097 40.752L350.775 60.3371C344.356 62.0518 339.34 67.0636 337.621 73.4819L319.5 141.108C317.781 147.526 319.618 154.374 324.32 159.069L378.026 212.691C382.717 217.374 389.547 219.204 395.951 217.493L469.272 197.908C475.692 196.194 480.707 191.182 482.427 184.764L500.547 117.138C502.267 110.72 500.429 103.871 495.727 99.1768L442.021 45.5548Z" fill="white" fill-opacity="0.01" shape-rendering="crispEdges"/>
</g>
<path d="M391.574 179.419C368.98 179.419 353.204 165.429 353.204 141.713V84.4194H370.45V141.713C370.45 155.57 379.541 163.031 391.574 163.031C403.472 163.031 412.563 155.57 412.563 141.713V84.4194H429.81V141.713C429.81 165.562 413.9 179.419 391.574 179.419Z" fill="#F8F9FA"/>
<path d="M462.625 177.687H445.379V84.4194H462.625V177.687Z" fill="#F8F9FA"/>
<path d="M62.9258 123.192V84.4194H80.0384V177.687H62.9258V138.781H17.8714V177.687H0.625V84.4194H17.8714V123.192H62.9258Z" fill="#F8F9FA"/>
<path d="M159.176 140.114V148.108H108.373C109.977 159.433 117.33 164.363 126.288 164.363C134.577 164.363 139.523 160.633 141.128 155.57H157.839C154.497 169.426 143.267 179.419 126.288 179.419C105.432 179.419 91.6613 164.23 91.6613 143.844C91.6613 123.592 105.298 108.003 126.288 108.003C145.673 108.003 159.176 121.46 159.176 140.114ZM108.908 136.25H142.866C142.331 128.522 136.448 122.126 126.421 122.126C117.999 122.126 111.047 126.79 108.908 136.25Z" fill="#F8F9FA"/>
<path d="M182.142 177.687H162.757L186.42 142.379L164.495 109.735H184.281L193.239 124.125C194.308 126.124 194.977 127.589 195.511 128.922H197.784C198.319 127.456 198.854 126.124 200.057 124.125L208.881 109.735H228.266L206.474 142.379L230.004 177.687H210.084L199.522 160.633C198.185 158.634 197.517 157.035 197.116 155.836H194.977C194.575 157.035 193.773 158.634 192.704 160.633L182.142 177.687Z" fill="#F8F9FA"/>
<path d="M267.267 108.003C285.716 108.003 296.278 117.063 296.278 132.919V177.687H279.7V171.958H277.294C273.015 176.488 265.529 179.419 257.373 179.419C242.266 179.419 233.175 171.025 233.175 158.634C233.175 145.71 242.132 137.182 258.844 137.182H279.566V133.985C279.566 127.456 275.823 122.926 266.999 122.926C259.646 122.926 254.833 126.257 253.897 131.853H236.116C237.587 118.129 248.817 108.003 267.267 108.003ZM261.518 165.696C268.604 165.696 274.887 162.498 279.566 156.502V149.041H260.582C254.031 149.041 250.288 151.839 250.288 157.168C250.288 162.764 254.967 165.696 261.518 165.696Z" fill="#F8F9FA"/>
<path d="M248.066 233.025H243.02L248.521 221.205L239.065 200.748H244.066L249.612 213.159C250.112 214.25 250.43 215.023 250.748 216.068H251.385C251.703 215.023 252.021 214.25 252.521 213.159L257.931 200.748H262.841L248.066 233.025Z" fill="#F8F9FA"/>
<path d="M228.102 212.067L238.467 223.932H232.784L223.056 212.477V223.932H218.601V192.111H223.056V211.022L232.466 200.748H237.967L228.102 211.431V212.067Z" fill="#F8F9FA"/>
<path d="M204.826 224.523C198.416 224.523 194.961 221.068 194.643 216.841H199.189C199.552 218.977 201.598 220.523 204.871 220.523C208.462 220.523 209.963 219.068 209.963 217.023C209.963 214.977 208.553 214.295 206.235 214.068L202.553 213.749C197.779 213.295 195.461 211.158 195.461 207.431C195.461 203.112 199.098 200.157 204.598 200.157C210.099 200.157 213.372 202.839 213.69 207.112H209.19C208.917 205.294 207.189 204.157 204.598 204.157C201.643 204.157 200.007 205.248 200.007 207.249C200.007 208.976 201.234 209.84 204.235 210.113L207.371 210.385C211.872 210.795 214.508 212.522 214.508 216.932C214.508 221.432 210.963 224.523 204.826 224.523Z" fill="#F8F9FA"/>
<path d="M184.075 223.933H179.62V200.748H184.075V203.703H184.757C185.711 201.657 187.575 200.43 190.303 200.43H193.394V204.703H189.939C185.939 204.703 184.075 207.476 184.075 211.704V223.933Z" fill="#F8F9FA"/>
<path d="M175.906 210.885V213.568H157.949C158.404 218.159 161.268 220.387 164.996 220.387C168.496 220.387 170.36 218.705 170.996 216.523H175.497C174.406 221.205 170.769 224.523 165.041 224.523C157.949 224.523 153.494 219.341 153.494 212.386C153.494 205.476 157.904 200.157 164.95 200.157C171.451 200.157 175.906 204.703 175.906 210.885ZM158.086 210.113H171.496C171.406 206.93 169.178 204.157 164.996 204.157C161.541 204.157 158.768 206.112 158.086 210.113Z" fill="#F8F9FA"/>
<path d="M132 233.024H127.545V200.748H132V203.93H132.682C134.364 201.293 137.364 200.157 140.183 200.157C145.274 200.157 150.684 204.067 150.684 212.249C150.684 220.705 145.138 224.523 139.865 224.523C136.955 224.523 133.91 223.387 132 220.796V233.024ZM139.001 220.25C142.501 220.25 146.138 217.886 146.138 212.34C146.138 206.794 142.501 204.43 139.001 204.43C135.455 204.43 132 206.885 132 212.34C132 217.795 135.455 220.25 139.001 220.25Z" fill="#F8F9FA"/>
<path d="M113.906 224.523C107.496 224.523 104.041 221.068 103.723 216.841H108.269C108.633 218.977 110.678 220.523 113.952 220.523C117.543 220.523 119.043 219.068 119.043 217.023C119.043 214.977 117.634 214.295 115.315 214.068L111.633 213.749C106.86 213.295 104.541 211.158 104.541 207.431C104.541 203.112 108.178 200.157 113.679 200.157C119.179 200.157 122.453 202.839 122.771 207.112H118.27C117.998 205.294 116.27 204.157 113.679 204.157C110.724 204.157 109.087 205.248 109.087 207.249C109.087 208.976 110.315 209.84 113.315 210.113L116.452 210.385C120.952 210.795 123.589 212.522 123.589 216.932C123.589 221.432 120.043 224.523 113.906 224.523Z" fill="#F8F9FA"/>
<path d="M90.8447 200.157C96.8908 200.157 100.346 203.157 100.346 208.385V223.932H95.8907V221.75H95.2088C93.6632 223.341 90.8901 224.523 88.0262 224.523C82.7528 224.523 79.707 221.659 79.707 217.432C79.707 213.022 82.7074 210.249 88.2989 210.249H95.8907V208.613C95.8907 206.021 94.2542 204.294 90.7992 204.294C87.5716 204.294 85.7077 205.749 85.3895 207.976H80.6617C81.1617 203.385 84.9349 200.157 90.8447 200.157ZM88.8899 220.659C91.663 220.659 94.1178 219.386 95.8907 217.023V213.704H88.6171C85.7532 213.704 84.2985 214.886 84.2985 217.113C84.2985 219.477 86.1169 220.659 88.8899 220.659Z" fill="#F8F9FA"/>
<path d="M68.4603 212.067L78.8251 223.932H73.1427L63.4143 212.477V223.932H58.9592V192.111H63.4143V211.022L72.8245 200.748H78.3251L68.4603 211.431V212.067Z" fill="#F8F9FA"/>
<path d="M33.0648 233.024H28.0187L33.5194 221.205L24.0637 200.748H29.0643L34.6104 213.159C35.1105 214.25 35.4287 215.022 35.7469 216.068H36.3833C36.7015 215.022 37.0198 214.25 37.5198 213.159L42.9295 200.748H47.8392L33.0648 233.024Z" fill="#F8F9FA"/>
<path d="M13.2628 224.523C10.4443 224.523 7.44397 223.387 5.76196 220.75H5.08006V223.932H0.625V192.111H5.08006V203.885C6.98937 201.293 10.0352 200.157 12.9446 200.157C18.2179 200.157 23.764 203.976 23.764 212.431C23.764 220.614 18.3543 224.523 13.2628 224.523ZM12.0809 220.25C15.5813 220.25 19.2181 217.886 19.2181 212.34C19.2181 206.794 15.5813 204.43 12.0809 204.43C8.535 204.43 5.08006 206.885 5.08006 212.34C5.08006 217.795 8.535 220.25 12.0809 220.25Z" fill="#F8F9FA"/>
<defs>
<filter id="filter0_dd_2170_29" x="278.867" y="0.122192" width="262.314" height="258.001" filterUnits="userSpaceOnUse" color-interpolation-filters="sRGB">
<feFlood flood-opacity="0" result="BackgroundImageFix"/>
<feColorMatrix in="SourceAlpha" type="matrix" values="0 0 0 0 0 0 0 0 0 0 0 0 0 0 0 0 0 0 127 0" result="hardAlpha"/>
<feOffset/>
<feGaussianBlur stdDeviation="20"/>
<feComposite in2="hardAlpha" operator="out"/>
<feColorMatrix type="matrix" values="0 0 0 0 0.209668 0 0 0 0 0.32715 0 0 0 0 1 0 0 0 1 0"/>
<feBlend mode="normal" in2="BackgroundImageFix" result="effect1_dropShadow_2170_29"/>
<feColorMatrix in="SourceAlpha" type="matrix" values="0 0 0 0 0 0 0 0 0 0 0 0 0 0 0 0 0 0 127 0" result="hardAlpha"/>
<feOffset/>
<feGaussianBlur stdDeviation="14.85"/>
<feComposite in2="hardAlpha" operator="out"/>
<feColorMatrix type="matrix" values="0 0 0 0 0.484538 0 0 0 0 0.561472 0 0 0 0 1 0 0 0 1 0"/>
<feBlend mode="normal" in2="effect1_dropShadow_2170_29" result="effect2_dropShadow_2170_29"/>
<feBlend mode="normal" in="SourceGraphic" in2="effect2_dropShadow_2170_29" result="shape"/>
</filter>
</defs>
</svg>
