<svg width="100" height="100" viewBox="0 0 100 100" fill="none" xmlns="http://www.w3.org/2000/svg">
    <path
        d="M10.1342 54.6253L9.42715 20.303C9.12282 17.3861 11.3361 15 14.3452 15H30.5227C30.8863 15 31.3523 15.0881 31.6534 15.3536L41.0711 21.7164L74.7019 21.5111C77.711 21.5111 80.3699 23.3963 80.6742 26.3132"
        stroke="white" stroke-width="1.5" stroke-miterlimit="2" stroke-linecap="round" stroke-linejoin="round" />
    <path
        d="M87.1863 43.9852L89.1017 34.1391C89.5162 32.0084 88.1227 30.2783 85.9919 30.2783H26.9877C24.8569 30.2783 22.7904 32.0084 22.3759 34.1391L16.0157 66.834C15.6012 68.9648 16.9947 70.6948 19.1255 70.6948H56.7289"
        stroke="white" stroke-width="1.5" stroke-miterlimit="1.5" stroke-linecap="round" stroke-linejoin="round" />
    <path
        d="M61.1477 52.5867C61.1477 52.2414 61.3343 51.9381 61.6097 51.7946L75.5346 44.5215C76.8659 43.8262 78.4295 43.8262 79.7608 44.5215L93.6857 51.7946C93.9611 51.9381 94.1477 52.2414 94.1477 52.5867V64.8695C94.1477 75.0534 86.5372 82.6286 79.1714 85.6946C78.1916 86.1018 77.1038 86.1018 76.124 85.6946C68.7582 82.6286 61.1477 75.0534 61.1477 64.8695V52.5867Z"
        fill="#E5ECFB" fill-opacity="0.36" />
    <path d="M72.1477 63.2637L76.3266 68L85.1477 58" stroke="white" stroke-width="1.5" stroke-linecap="round" />
</svg>