<svg width="100" height="100" viewBox="0 0 100 100" fill="none" xmlns="http://www.w3.org/2000/svg">
    <g clip-path="url(#clip0_8087_2162)">
        <path fill-rule="evenodd" clip-rule="evenodd"
            d="M52.4656 25.8859C51.1393 25.1202 49.1304 25.0368 47.9823 25.6996L7.08025 49.3144C5.93222 49.9772 6.07676 51.137 7.403 51.9028L47.5984 75.1096C48.9246 75.8753 50.9336 75.9587 52.0816 75.2959L92.9837 51.6812C94.1318 51.0183 93.9872 49.8585 92.661 49.0928L52.4656 25.8859Z"
            fill="#52555A" />
        <path
            d="M48.7564 57.4336C49.611 57.927 50.6646 57.9246 51.517 57.4274L88.6735 35.7527C90.5008 34.6867 90.4905 32.0428 88.6549 30.9911L51.4985 9.70356C50.6555 9.22059 49.6202 9.21827 48.775 9.69748L11.2313 30.9851C9.38142 32.034 9.37109 34.6957 11.2127 35.7589L48.7564 57.4336Z"
            stroke="white" stroke-width="1.5" />
        <path
            d="M27.8696 56.0955L11.0409 65.6375C9.69555 66.4004 9.68804 68.3362 11.0274 69.1094L48.5711 90.784C49.1926 91.1429 49.9588 91.1412 50.5788 90.7795L87.7353 69.1048C89.0643 68.3296 89.0568 66.4068 87.7217 65.6419L81.5 62.0774"
            stroke="white" stroke-width="1.5" stroke-linecap="round" />
    </g>
    <defs>
        <clipPath id="clip0_8087_2162">
            <rect width="100" height="100" fill="white" />
        </clipPath>
    </defs>
</svg>