<svg width="32" height="32" viewBox="0 0 32 32" fill="none" xmlns="http://www.w3.org/2000/svg">
<path d="M15 18.3V21.5C15 21.9805 15.6117 22.1844 15.9 21.8L18.9 17.8C19.1472 17.4704 18.912 17 18.5 17H17.3C17.1343 17 17 16.8657 17 16.7V13.5C17 13.0195 16.3883 12.8156 16.1 13.2L13.1 17.2C12.8528 17.5296 13.088 18 13.5 18H14.7C14.8657 18 15 18.1343 15 18.3Z" fill="black"/>
<path fill-rule="evenodd" clip-rule="evenodd" d="M12 4C12 2.89543 12.8954 2 14 2H18C19.1046 2 20 2.89543 20 4V5C22.2091 5 24 6.79086 24 9V26C24 28.2091 22.2091 30 20 30H12C9.79086 30 8 28.2091 8 26V9C8 6.79086 9.79086 5 12 5V4ZM18 4V5H14V4H18ZM12 7H20C21.1046 7 22 7.89543 22 9V26C22 27.1046 21.1046 28 20 28H12C10.8954 28 10 27.1046 10 26V9C10 7.89543 10.8954 7 12 7Z" fill="black"/>
</svg>
