<svg width="32" height="32" viewBox="0 0 32 32" fill="none" xmlns="http://www.w3.org/2000/svg">
<path d="M10 18C10.5523 18 11 17.5523 11 17C11 16.4477 10.5523 16 10 16C9.44772 16 9 16.4477 9 17C9 17.5523 9.44772 18 10 18Z" fill="black"/>
<path d="M11 21C11 21.5523 10.5523 22 10 22C9.44772 22 9 21.5523 9 21C9 20.4477 9.44772 20 10 20C10.5523 20 11 20.4477 11 21Z" fill="black"/>
<path d="M14 18C14.5523 18 15 17.5523 15 17C15 16.4477 14.5523 16 14 16C13.4477 16 13 16.4477 13 17C13 17.5523 13.4477 18 14 18Z" fill="black"/>
<path d="M15 21C15 21.5523 14.5523 22 14 22C13.4477 22 13 21.5523 13 21C13 20.4477 13.4477 20 14 20C14.5523 20 15 20.4477 15 21Z" fill="black"/>
<path d="M18 18C18.5523 18 19 17.5523 19 17C19 16.4477 18.5523 16 18 16C17.4477 16 17 16.4477 17 17C17 17.5523 17.4477 18 18 18Z" fill="black"/>
<path d="M19 21C19 21.5523 18.5523 22 18 22C17.4477 22 17 21.5523 17 21C17 20.4477 17.4477 20 18 20C18.5523 20 19 20.4477 19 21Z" fill="black"/>
<path d="M22 18C22.5523 18 23 17.5523 23 17C23 16.4477 22.5523 16 22 16C21.4477 16 21 16.4477 21 17C21 17.5523 21.4477 18 22 18Z" fill="black"/>
<path fill-rule="evenodd" clip-rule="evenodd" d="M9 2C9.55228 2 10 2.44772 10 3V5H22V3C22 2.44772 22.4477 2 23 2C23.5523 2 24 2.44772 24 3V5H25C27.2091 5 29 6.79086 29 9V24C29 26.2091 27.2091 28 25 28H7C4.79086 28 3 26.2091 3 24V9C3 6.79086 4.79086 5 7 5H8V3C8 2.44772 8.44772 2 9 2ZM25 7C26.1046 7 27 7.89543 27 9V11H5V9C5 7.89543 5.89543 7 7 7H25ZM5 13H27V24C27 25.1046 26.1046 26 25 26H7C5.89543 26 5 25.1046 5 24V13Z" fill="black"/>
</svg>
