<svg width="32" height="32" viewBox="0 0 32 32" fill="none" xmlns="http://www.w3.org/2000/svg">
<path d="M13.7071 15.2929C13.3166 14.9024 12.6834 14.9024 12.2929 15.2929C11.9024 15.6834 11.9024 16.3166 12.2929 16.7071L14.5858 19L12.2929 21.2929C11.9024 21.6834 11.9024 22.3166 12.2929 22.7071C12.6834 23.0976 13.3166 23.0976 13.7071 22.7071L16 20.4142L18.2929 22.7071C18.6834 23.0976 19.3166 23.0976 19.7071 22.7071C20.0976 22.3166 20.0976 21.6834 19.7071 21.2929L17.4142 19L19.7071 16.7071C20.0976 16.3166 20.0976 15.6834 19.7071 15.2929C19.3166 14.9024 18.6834 14.9024 18.2929 15.2929L16 17.5858L13.7071 15.2929Z" fill="black"/>
<path fill-rule="evenodd" clip-rule="evenodd" d="M10 2C10.5523 2 11 2.44772 11 3V5H21V3C21 2.44772 21.4477 2 22 2C22.5523 2 23 2.44772 23 3V5H25C27.2091 5 29 6.79086 29 9V24C29 26.2091 27.2091 28 25 28H7C4.79086 28 3 26.2091 3 24V9C3 6.79086 4.79086 5 7 5H9V3C9 2.44772 9.44772 2 10 2ZM5 9C5 7.89543 5.89543 7 7 7H25C26.1046 7 27 7.89543 27 9V11H5V9ZM5 13V24C5 25.1046 5.89543 26 7 26H25C26.1046 26 27 25.1046 27 24V13H5Z" fill="black"/>
</svg>
