<svg width="32" height="32" viewBox="0 0 32 32" fill="none" xmlns="http://www.w3.org/2000/svg">
<path d="M25 13C25 13.5523 24.5523 14 24 14C23.4477 14 23 13.5523 23 13C23 12.4477 23.4477 12 24 12C24.5523 12 25 12.4477 25 13Z" fill="black"/>
<path fill-rule="evenodd" clip-rule="evenodd" d="M16 11C12.6863 11 10 13.6863 10 17C10 20.3137 12.6863 23 16 23C19.3137 23 22 20.3137 22 17C22 13.6863 19.3137 11 16 11ZM12 17C12 14.7909 13.7909 13 16 13C18.2091 13 20 14.7909 20 17C20 19.2091 18.2091 21 16 21C13.7909 21 12 19.2091 12 17Z" fill="black"/>
<path fill-rule="evenodd" clip-rule="evenodd" d="M10.5 5.58579C10.8751 5.21071 11.3838 5 11.9142 5H20.0858C20.6162 5 21.1249 5.21071 21.5 5.58579L23.9142 8H27C28.6569 8 30 9.34315 30 11V24C30 25.6569 28.6569 27 27 27H5C3.34315 27 2 25.6569 2 24V11C2 9.34315 3.34315 8 5 8H8.08579L10.5 5.58579ZM20.0858 7H11.9142L9.5 9.41421C9.12493 9.78929 8.61622 10 8.08579 10H5C4.44772 10 4 10.4477 4 11V24C4 24.5523 4.44772 25 5 25H27C27.5523 25 28 24.5523 28 24V11C28 10.4477 27.5523 10 27 10H23.9142C23.3838 10 22.8751 9.78929 22.5 9.41421L20.0858 7Z" fill="black"/>
</svg>
