<svg width="32" height="32" viewBox="0 0 32 32" fill="none" xmlns="http://www.w3.org/2000/svg">
<path d="M12 2C11.4477 2 11 2.44772 11 3C11 3.55228 11.4477 4 12 4H20C20.5523 4 21 3.55228 21 3C21 2.44772 20.5523 2 20 2H12Z" fill="black"/>
<path d="M17 12C17 11.4477 16.5523 11 16 11C15.4477 11 15 11.4477 15 12V18C15 18.2652 15.1054 18.5196 15.2929 18.7071L19.2929 22.7071C19.6834 23.0976 20.3166 23.0976 20.7071 22.7071C21.0976 22.3166 21.0976 21.6834 20.7071 21.2929L17 17.5858V12Z" fill="black"/>
<path fill-rule="evenodd" clip-rule="evenodd" d="M28 18C28 24.6274 22.6274 30 16 30C9.37258 30 4 24.6274 4 18C4 15.0463 5.06716 12.3418 6.83695 10.2512L5.29289 8.70711C4.90237 8.31658 4.90237 7.68342 5.29289 7.29289C5.68342 6.90237 6.31658 6.90237 6.70711 7.29289L8.25116 8.83695C10.3418 7.06716 13.0463 6 16 6C18.9537 6 21.6582 7.06716 23.7488 8.83695L25.2929 7.29289C25.6834 6.90237 26.3166 6.90237 26.7071 7.29289C27.0976 7.68342 27.0976 8.31658 26.7071 8.70711L25.1631 10.2512C26.9328 12.3418 28 15.0463 28 18ZM26 18C26 23.5228 21.5228 28 16 28C10.4772 28 6 23.5228 6 18C6 12.4772 10.4772 8 16 8C21.5228 8 26 12.4772 26 18Z" fill="black"/>
</svg>
