<svg width="32" height="32" viewBox="0 0 32 32" fill="none" xmlns="http://www.w3.org/2000/svg">
<path fill-rule="evenodd" clip-rule="evenodd" d="M30 16C30 8.26801 23.732 2 16 2C8.26801 2 2 8.26801 2 16C2 23.732 8.26801 30 16 30C23.732 30 30 23.732 30 16ZM16.9306 27.4763C16.4643 27.9366 16.1521 28 16 28C15.8479 28 15.5357 27.9366 15.0694 27.4763C14.5945 27.0076 14.075 26.2302 13.5956 25.1117C13.1082 23.9744 12.703 22.5796 12.4228 21H19.5772C19.297 22.5796 18.8918 23.9744 18.4044 25.1117C17.925 26.2302 17.4055 27.0076 16.9306 27.4763ZM19.8526 19H12.1474C12.0516 18.044 12 17.0398 12 16C12 14.9602 12.0516 13.956 12.1474 13H19.8526C19.9484 13.956 20 14.9602 20 16C20 17.0398 19.9484 18.044 19.8526 19ZM21.606 21C21.1718 23.6492 20.4025 25.9119 19.4192 27.5059C22.7532 26.5166 25.481 24.1177 26.9119 21H21.606ZM27.6219 19H21.8619C21.9524 18.0335 22 17.0297 22 16C22 14.9703 21.9524 13.9665 21.8619 13H27.6219C27.8687 13.9589 28 14.9641 28 16C28 17.0359 27.8687 18.0411 27.6219 19ZM26.9119 11C25.481 7.88226 22.7532 5.4834 19.4192 4.49415C20.4025 6.08811 21.1718 8.35077 21.606 11H26.9119ZM19.5772 11C19.297 9.42043 18.8918 8.02562 18.4044 6.88834C17.925 5.76981 17.4055 4.9924 16.9306 4.52368C16.4643 4.06345 16.1521 4 16 4C15.8479 4 15.5357 4.06345 15.0694 4.52368C14.5945 4.9924 14.075 5.76981 13.5956 6.88834C13.1082 8.02562 12.703 9.42043 12.4228 11H19.5772ZM10.394 11C10.8282 8.35077 11.5975 6.08811 12.5808 4.49415C9.24683 5.48341 6.51902 7.88226 5.08808 11H10.394ZM4.37805 13C4.13126 13.9589 4 14.9641 4 16C4 17.0359 4.13126 18.0411 4.37805 19H10.1381C10.0476 18.0335 10 17.0297 10 16C10 14.9703 10.0476 13.9665 10.1381 13H4.37805ZM10.394 21H5.08808C6.51902 24.1177 9.24683 26.5166 12.5808 27.5059C11.5975 25.9119 10.8282 23.6492 10.394 21Z" fill="black"/>
</svg>
