<svg width="32" height="32" viewBox="0 0 32 32" fill="none" xmlns="http://www.w3.org/2000/svg">
<path d="M16 26C16.8284 26 17.5 25.3284 17.5 24.5C17.5 23.6716 16.8284 23 16 23C15.1716 23 14.5 23.6716 14.5 24.5C14.5 25.3284 15.1716 26 16 26Z" fill="black"/>
<path fill-rule="evenodd" clip-rule="evenodd" d="M6 6C6 3.79086 7.79086 2 10 2H22C24.2091 2 26 3.79086 26 6V26C26 28.2091 24.2091 30 22 30H10C7.79086 30 6 28.2091 6 26V6ZM10 4H22C23.1046 4 24 4.89543 24 6V26C24 27.1046 23.1046 28 22 28H10C8.89543 28 8 27.1046 8 26V6C8 4.89543 8.89543 4 10 4Z" fill="black"/>
</svg>
