<svg width="32" height="32" viewBox="0 0 32 32" fill="none" xmlns="http://www.w3.org/2000/svg">
<path d="M6 6C5.44772 6 5 6.44772 5 7C5 7.55228 5.44772 8 6 8H26C26.5523 8 27 7.55228 27 7C27 6.44772 26.5523 6 26 6H6Z" fill="black"/>
<path d="M6 18C5.44772 18 5 18.4477 5 19C5 19.5523 5.44772 20 6 20H26C26.5523 20 27 19.5523 27 19C27 18.4477 26.5523 18 26 18H8.5H6Z" fill="black"/>
<path d="M6 12C5.44772 12 5 12.4477 5 13C5 13.5523 5.44772 14 6 14H26C26.5523 14 27 13.5523 27 13C27 12.4477 26.5523 12 26 12H6Z" fill="black" fill-opacity="0.1"/>
<path d="M6 24C5.44772 24 5 24.4477 5 25C5 25.5523 5.44772 26 6 26H26C26.5523 26 27 25.5523 27 25C27 24.4477 26.5523 24 26 24H6Z" fill="black" fill-opacity="0.1"/>
</svg>
