<svg width="32" height="32" viewBox="0 0 32 32" fill="none" xmlns="http://www.w3.org/2000/svg">
<path fill-rule="evenodd" clip-rule="evenodd" d="M10.2139 12.2072C10.6045 11.8167 11.2376 11.8167 11.6282 12.2072L20.6282 21.2072C21.0187 21.5977 21.0187 22.2309 20.6282 22.6214C20.2376 23.0119 19.6045 23.0119 19.2139 22.6214L18.7324 22.1399C17.9171 22.4422 17.0023 22.6309 16 22.6309C13.7358 22.6309 11.9241 21.6296 10.6998 20.5629C10.0863 20.0285 9.60199 19.4626 9.26363 18.9631C9.09489 18.714 8.95369 18.4685 8.85065 18.24C8.76195 18.0433 8.64999 17.7497 8.64999 17.439C8.64999 17.1242 8.76564 16.8278 8.85547 16.6321C8.96034 16.4035 9.10374 16.1582 9.27445 15.9097C9.61681 15.4112 10.1055 14.8465 10.7212 14.3132C10.754 14.2848 10.7871 14.2565 10.8207 14.2282L10.2139 13.6214C9.82342 13.2309 9.82342 12.5977 10.2139 12.2072ZM12.2416 15.649L17.116 20.5234C16.7612 20.5926 16.3887 20.6309 16 20.6309C14.3487 20.6309 12.9853 19.9016 12.0135 19.055C11.4996 18.6072 10.98 18.0672 10.6848 17.4416C10.9864 16.8143 11.5122 16.274 12.0306 15.825C12.0991 15.7657 12.1694 15.707 12.2416 15.649Z" fill="black"/>
<path d="M20.6736 18.4571C20.9514 18.1505 21.1941 17.8095 21.3339 17.4411C21.0791 16.7846 20.4994 16.2172 19.977 15.7738C19.1012 15.0305 17.9073 14.3889 16.4842 14.2677L14.597 12.3805C15.0432 12.2949 15.5114 12.2472 16 12.2472C18.227 12.2472 20.0357 13.2004 21.2712 14.249C21.8898 14.7741 22.3833 15.3379 22.7299 15.8512C22.903 16.1074 23.0483 16.3641 23.1539 16.6089C23.2507 16.8334 23.35 17.1288 23.35 17.439C23.35 17.7454 23.2538 18.0383 23.1584 18.2634C23.0547 18.508 22.9117 18.7648 22.7407 19.0216C22.5602 19.2925 22.3391 19.5775 22.0801 19.8636L20.6736 18.4571Z" fill="black"/>
<path fill-rule="evenodd" clip-rule="evenodd" d="M5 4C3.34315 4 2 5.34314 2 7V25C2 26.6569 3.34315 28 5 28H27C28.6569 28 30 26.6569 30 25V10C30 8.34315 28.6569 7 27 7L16.9684 7L15.0681 4.71963C14.6881 4.26365 14.1252 4 13.5316 4H5ZM4 7C4 6.44772 4.44771 6 5 6H13.5316L15.4319 8.28037C15.8119 8.73635 16.3748 9 16.9684 9H27C27.5523 9 28 9.44772 28 10V25C28 25.5523 27.5523 26 27 26H5C4.44772 26 4 25.5523 4 25V7Z" fill="black"/>
</svg>
