<svg width="32" height="32" viewBox="0 0 32 32" fill="none" xmlns="http://www.w3.org/2000/svg">
<path d="M20.7071 18.2071C21.0976 17.8166 21.0976 17.1834 20.7071 16.7929C20.3166 16.4024 19.6834 16.4024 19.2929 16.7929L15 21.0858L13.2071 19.2929C12.8166 18.9024 12.1834 18.9024 11.7929 19.2929C11.4024 19.6834 11.4024 20.3166 11.7929 20.7071L14.2929 23.2071C14.6834 23.5976 15.3166 23.5976 15.7071 23.2071L20.7071 18.2071Z" fill="black"/>
<path fill-rule="evenodd" clip-rule="evenodd" d="M11 7C11 4.23858 13.2386 2 16 2C18.7614 2 21 4.23858 21 7V10H22C24.2091 10 26 11.7909 26 14V26C26 28.2091 24.2091 30 22 30H10C7.79086 30 6 28.2091 6 26V14C6 11.7909 7.79086 10 10 10H11V7ZM19 7V10H13V7C13 5.34315 14.3431 4 16 4C17.6569 4 19 5.34315 19 7ZM10 12H22C23.1046 12 24 12.8954 24 14V26C24 27.1046 23.1046 28 22 28H10C8.89543 28 8 27.1046 8 26V14C8 12.8954 8.89543 12 10 12Z" fill="black"/>
</svg>
