<svg width="32" height="32" viewBox="0 0 32 32" fill="none" xmlns="http://www.w3.org/2000/svg">
<path fill-rule="evenodd" clip-rule="evenodd" d="M8 4C5.79086 4 4 5.79086 4 8V24C4 26.2091 5.79086 28 8 28H10.3328C12.5419 28 14.3328 26.2091 14.3328 24V8C14.3328 5.79086 12.5419 4 10.3328 4H8ZM6 8C6 6.89543 6.89543 6 8 6H10.3328C11.4373 6 12.3328 6.89543 12.3328 8V24C12.3328 25.1046 11.4373 26 10.3328 26H8C6.89543 26 6 25.1046 6 24V8Z" fill="black"/>
<path fill-rule="evenodd" clip-rule="evenodd" d="M21.6672 4C19.4581 4 17.6672 5.79086 17.6672 8V24C17.6672 26.2091 19.4581 28 21.6672 28H24C26.2091 28 28 26.2091 28 24V8C28 5.79086 26.2091 4 24 4H21.6672ZM19.6672 8C19.6672 6.89543 20.5627 6 21.6672 6H24C25.1046 6 26 6.89543 26 8V24C26 25.1046 25.1046 26 24 26H21.6672C20.5627 26 19.6672 25.1046 19.6672 24V8Z" fill="black"/>
</svg>
