<svg width="32" height="32" viewBox="0 0 32 32" fill="none" xmlns="http://www.w3.org/2000/svg">
<path fill-rule="evenodd" clip-rule="evenodd" d="M7 4C5.34315 4 4 5.34315 4 7V19C4 20.6569 5.34314 22 7 22H13V26H11C10.4477 26 10 26.4477 10 27C10 27.5523 10.4477 28 11 28H21C21.5523 28 22 27.5523 22 27C22 26.4477 21.5523 26 21 26H19V22H25C26.6569 22 28 20.6569 28 19V7C28 5.34315 26.6569 4 25 4H7ZM17 22V26H15V22H17ZM25 20C25.5523 20 26 19.5523 26 19V7C26 6.44771 25.5523 6 25 6H7C6.44772 6 6 6.44772 6 7V19C6 19.5523 6.44772 20 7 20H25Z" fill="black"/>
</svg>
