<svg width="32" height="32" viewBox="0 0 32 32" fill="none" xmlns="http://www.w3.org/2000/svg">
<path fill-rule="evenodd" clip-rule="evenodd" d="M14 12C14 10.3431 15.3431 9 17 9C18.6569 9 20 10.3431 20 12C20 13.6569 18.6569 15 17 15C15.3431 15 14 13.6569 14 12ZM17 11C16.4477 11 16 11.4477 16 12C16 12.5523 16.4477 13 17 13C17.5523 13 18 12.5523 18 12C18 11.4477 17.5523 11 17 11Z" fill="black"/>
<path fill-rule="evenodd" clip-rule="evenodd" d="M15 16C12.7909 16 11 17.7909 11 20V22C11 22.5523 11.4477 23 12 23H22C22.5523 23 23 22.5523 23 22V20C23 17.7909 21.2091 16 19 16H15ZM13 20C13 18.8954 13.8954 18 15 18H19C20.1046 18 21 18.8954 21 20V21H13V20Z" fill="black"/>
<path fill-rule="evenodd" clip-rule="evenodd" d="M10 3C8.34315 3 7 4.34315 7 6L6 6C5.44772 6 5 6.44772 5 7C5 7.55228 5.44772 8 6 8H7V12H6C5.44772 12 5 12.4477 5 13C5 13.5523 5.44772 14 6 14H7V18H6C5.44772 18 5 18.4477 5 19C5 19.5523 5.44772 20 6 20H7V24H6C5.44772 24 5 24.4477 5 25C5 25.5523 5.44772 26 6 26H7C7 27.6569 8.34315 29 10 29H24C25.6569 29 27 27.6569 27 26V6C27 4.34315 25.6569 3 24 3H10ZM9 26C9 26.5523 9.44772 27 10 27H24C24.5523 27 25 26.5523 25 26V6C25 5.44772 24.5523 5 24 5H10C9.44771 5 9 5.44772 9 6V26Z" fill="black"/>
</svg>
