<svg width="32" height="32" viewBox="0 0 32 32" fill="none" xmlns="http://www.w3.org/2000/svg">
<path fill-rule="evenodd" clip-rule="evenodd" d="M16 4C13.2386 4 11 6.23858 11 9C11 11.7614 13.2386 14 16 14C18.7614 14 21 11.7614 21 9C21 6.23858 18.7614 4 16 4ZM13 9C13 7.34315 14.3431 6 16 6C17.6569 6 19 7.34315 19 9C19 10.6569 17.6569 12 16 12C14.3431 12 13 10.6569 13 9Z" fill="black"/>
<path d="M8 22C8 19.7909 9.79086 18 12 18H19.1C19.25 17.2611 19.5629 16.5814 19.9996 16H12C8.68629 16 6 18.6863 6 22V24C6 26.2091 7.79086 28 10 28H16.1C16.0344 27.6769 16 27.3425 16 27V26H10C8.89543 26 8 25.1046 8 24V22Z" fill="black"/>
<path d="M24 26C24.5523 26 25 25.5523 25 25C25 24.4477 24.5523 24 24 24C23.4477 24 23 24.4477 23 25C23 25.5523 23.4477 26 24 26Z" fill="black"/>
<path fill-rule="evenodd" clip-rule="evenodd" d="M21 20V19C21 17.3431 22.3431 16 24 16C25.6569 16 27 17.3431 27 19V20C28.6569 20 30 21.3431 30 23V27C30 28.6569 28.6569 30 27 30H21C19.3431 30 18 28.6569 18 27V23C18 21.3431 19.3431 20 21 20ZM23 19C23 18.4477 23.4477 18 24 18C24.5523 18 25 18.4477 25 19V20H23V19ZM21 22C20.4477 22 20 22.4477 20 23V27C20 27.5523 20.4477 28 21 28H27C27.5523 28 28 27.5523 28 27V23C28 22.4477 27.5523 22 27 22H21Z" fill="black"/>
</svg>
