<svg width="32" height="32" viewBox="0 0 32 32" fill="none" xmlns="http://www.w3.org/2000/svg">
<path fill-rule="evenodd" clip-rule="evenodd" d="M18.4056 1.37466C16.9151 0.522908 15.0852 0.522899 13.5947 1.37464L4.44288 6.60423C2.93227 7.46744 2 9.0739 2 10.8138V21.1864C2 22.9263 2.93227 24.5327 4.44289 25.3959L13.5947 30.6255C15.0852 31.4773 16.9151 31.4773 18.4056 30.6255L27.5572 25.396C29.0678 24.5327 30 22.9263 30 21.1864V10.8137C30 9.07389 29.0678 7.46744 27.5572 6.60422L18.4056 1.37466ZM16 9C16.5523 9 17 9.44771 17 10V15H22C22.5523 15 23 15.4477 23 16C23 16.5523 22.5523 17 22 17H17V22C17 22.5523 16.5523 23 16 23C15.4477 23 15 22.5523 15 22V17H10C9.44771 17 9 16.5523 9 16C9 15.4477 9.44771 15 10 15H15V10C15 9.44771 15.4477 9 16 9Z" fill="black"/>
</svg>
