<svg width="32" height="32" viewBox="0 0 32 32" fill="none" xmlns="http://www.w3.org/2000/svg">
<path d="M4 5C4 4.44772 4.44772 4 5 4H7C7.55228 4 8 3.55228 8 3C8 2.44772 7.55228 2 7 2H5C3.34315 2 2 3.34315 2 5V7C2 7.55228 2.44772 8 3 8C3.55228 8 4 7.55228 4 7V5Z" fill="black"/>
<path d="M25 2C24.4477 2 24 2.44772 24 3C24 3.55228 24.4477 4 25 4H27C27.5523 4 28 4.44772 28 5V7C28 7.55228 28.4477 8 29 8C29.5523 8 30 7.55228 30 7V5C30 3.34315 28.6569 2 27 2H25Z" fill="black"/>
<path d="M4 25C4 24.4477 3.55228 24 3 24C2.44772 24 2 24.4477 2 25V27C2 28.6569 3.34315 30 5 30H7C7.55228 30 8 29.5523 8 29C8 28.4477 7.55228 28 7 28H5C4.44772 28 4 27.5523 4 27V25Z" fill="black"/>
<path d="M30 25C30 24.4477 29.5523 24 29 24C28.4477 24 28 24.4477 28 25V27C28 27.5523 27.5523 28 27 28H25C24.4477 28 24 28.4477 24 29C24 29.5523 24.4477 30 25 30H27C28.6569 30 30 28.6569 30 27V25Z" fill="black"/>
<path d="M9 9.5C9 9.22386 9.22386 9 9.5 9H11.5C11.7761 9 12 9.22386 12 9.5V11.5C12 11.7761 11.7761 12 11.5 12H9.5C9.22386 12 9 11.7761 9 11.5V9.5Z" fill="black"/>
<path fill-rule="evenodd" clip-rule="evenodd" d="M9 6C7.34315 6 6 7.34315 6 9V12C6 13.6569 7.34315 15 9 15H12C13.6569 15 15 13.6569 15 12V9C15 7.34315 13.6569 6 12 6H9ZM8 9C8 8.44772 8.44772 8 9 8H12C12.5523 8 13 8.44772 13 9V12C13 12.5523 12.5523 13 12 13H9C8.44772 13 8 12.5523 8 12V9Z" fill="black"/>
<path fill-rule="evenodd" clip-rule="evenodd" d="M17 9C17 7.34315 18.3431 6 20 6H23C24.6569 6 26 7.34315 26 9V12C26 13.6569 24.6569 15 23 15H20C18.3431 15 17 13.6569 17 12V9ZM20 8C19.4477 8 19 8.44772 19 9V12C19 12.5523 19.4477 13 20 13H23C23.5523 13 24 12.5523 24 12V9C24 8.44772 23.5523 8 23 8H20Z" fill="black"/>
<path fill-rule="evenodd" clip-rule="evenodd" d="M9 17C7.34315 17 6 18.3431 6 20V23C6 24.6569 7.34315 26 9 26H12C13.6569 26 15 24.6569 15 23V20C15 18.3431 13.6569 17 12 17H9ZM8 20C8 19.4477 8.44772 19 9 19H12C12.5523 19 13 19.4477 13 20V23C13 23.5523 12.5523 24 12 24H9C8.44772 24 8 23.5523 8 23V20Z" fill="black"/>
<path d="M20.5 20C20.2239 20 20 20.2239 20 20.5V22.5C20 22.7761 20.2239 23 20.5 23H22.5C22.7761 23 23 22.7761 23 22.5V20.5C23 20.2239 22.7761 20 22.5 20H20.5Z" fill="black"/>
<path d="M17 17.5C17 17.2239 17.2239 17 17.5 17H19.5C19.7761 17 20 17.2239 20 17.5V19.5C20 19.7761 19.7761 20 19.5 20H17.5C17.2239 20 17 19.7761 17 19.5V17.5Z" fill="black"/>
<path d="M23.5 17C23.2239 17 23 17.2239 23 17.5V19.5C23 19.7761 23.2239 20 23.5 20H25.5C25.7761 20 26 19.7761 26 19.5V17.5C26 17.2239 25.7761 17 25.5 17H23.5Z" fill="black"/>
<path d="M17 23.5C17 23.2239 17.2239 23 17.5 23H19.5C19.7761 23 20 23.2239 20 23.5V25.5C20 25.7761 19.7761 26 19.5 26H17.5C17.2239 26 17 25.7761 17 25.5V23.5Z" fill="black"/>
<path d="M23.5 23C23.2239 23 23 23.2239 23 23.5V25.5C23 25.7761 23.2239 26 23.5 26H25.5C25.7761 26 26 25.7761 26 25.5V23.5C26 23.2239 25.7761 23 25.5 23H23.5Z" fill="black"/>
</svg>
