<svg width="32" height="32" viewBox="0 0 32 32" fill="none" xmlns="http://www.w3.org/2000/svg">
<path d="M13 10C13 9.44772 12.5523 9 12 9C11.4477 9 11 9.44772 11 10V16C11 16.5523 11.4477 17 12 17C12.5523 17 13 16.5523 13 16V10Z" fill="black"/>
<path d="M21 12C21 11.4477 20.5523 11 20 11C19.4477 11 19 11.4477 19 12V16C19 16.5523 19.4477 17 20 17C20.5523 17 21 16.5523 21 16V12Z" fill="black"/>
<path d="M17 14C17 13.4477 16.5523 13 16 13C15.4477 13 15 13.4477 15 14V16C15 16.5523 15.4477 17 16 17C16.5523 17 17 16.5523 17 16V14Z" fill="black"/>
<path fill-rule="evenodd" clip-rule="evenodd" d="M4 7C4 5.34315 5.34315 4 7 4H25C26.6569 4 28 5.34315 28 7V19C28 20.6569 26.6569 22 25 22H19V26H21C21.5523 26 22 26.4477 22 27C22 27.5523 21.5523 28 21 28H11C10.4477 28 10 27.5523 10 27C10 26.4477 10.4477 26 11 26H13V22H7C5.34314 22 4 20.6569 4 19V7ZM17 26V22H15V26H17ZM25 20H7C6.44772 20 6 19.5523 6 19V7C6 6.44772 6.44772 6 7 6H25C25.5523 6 26 6.44771 26 7V19C26 19.5523 25.5523 20 25 20Z" fill="black"/>
</svg>
