<svg width="32" height="32" viewBox="0 0 32 32" fill="none" xmlns="http://www.w3.org/2000/svg">
<path d="M13 14C13.5523 14 14 13.5523 14 13V8C14 7.44772 13.5523 7 13 7C12.4477 7 12 7.44772 12 8V10.5858L4.70711 3.29289C4.31658 2.90237 3.68342 2.90237 3.29289 3.29289C2.90237 3.68342 2.90237 4.31658 3.29289 4.70711L10.5858 12H8C7.44772 12 7 12.4477 7 13C7 13.5523 7.44772 14 8 14H13Z" fill="black"/>
<path d="M13 18C13.5523 18 14 18.4477 14 19V24C14 24.5523 13.5523 25 13 25C12.4477 25 12 24.5523 12 24V21.4142L4.70711 28.7071C4.31658 29.0976 3.68342 29.0976 3.29289 28.7071C2.90237 28.3166 2.90237 27.6834 3.29289 27.2929L10.5858 20H8C7.44772 20 7 19.5523 7 19C7 18.4477 7.44772 18 8 18H13Z" fill="black"/>
<path d="M18 13C18 13.5523 18.4477 14 19 14H24C24.5523 14 25 13.5523 25 13C25 12.4477 24.5523 12 24 12H21.4142L28.7071 4.70711C29.0976 4.31658 29.0976 3.68342 28.7071 3.29289C28.3166 2.90237 27.6834 2.90237 27.2929 3.29289L20 10.5858V8C20 7.44772 19.5523 7 19 7C18.4477 7 18 7.44772 18 8V13Z" fill="black"/>
<path d="M19 18C18.4477 18 18 18.4477 18 19V24C18 24.5523 18.4477 25 19 25C19.5523 25 20 24.5523 20 24V21.4142L27.2929 28.7071C27.6834 29.0976 28.3166 29.0976 28.7071 28.7071C29.0976 28.3166 29.0976 27.6834 28.7071 27.2929L21.4142 20H24C24.5523 20 25 19.5523 25 19C25 18.4477 24.5523 18 24 18H19Z" fill="black"/>
</svg>
