<svg width="32" height="32" viewBox="0 0 32 32" fill="none" xmlns="http://www.w3.org/2000/svg">
<path fill-rule="evenodd" clip-rule="evenodd" d="M11.0711 21.799L16.7281 27.456C17.1186 27.8465 17.7518 27.8465 18.1423 27.456L21.6011 23.9971C22.3325 23.2657 22.6356 22.2091 22.403 21.2012L21.7162 18.2251L25.626 14.3153C26.3873 13.554 27.0048 12.5955 27.2689 11.4715C27.4755 10.5926 27.6994 9.38156 27.706 8.20768C27.7122 7.09016 27.5259 5.72677 26.6276 4.82845C25.7292 3.93013 24.3658 3.74375 23.2483 3.75003C22.0744 3.75663 20.8634 3.9805 19.9845 4.18707C18.8605 4.45122 17.902 5.06874 17.1407 5.83L13.2308 9.7399L10.2549 9.05315C9.24699 8.82056 8.19039 9.12359 7.45898 9.855L4.00016 13.3138C3.60964 13.7043 3.60964 14.3375 4.00016 14.728L9.65693 20.3848L8.94979 21.0919C8.55927 21.4825 8.55927 22.1156 8.94979 22.5061C9.34032 22.8967 9.97348 22.8967 10.364 22.5061L11.0711 21.799ZM23.2596 5.75C22.3027 5.75538 21.2583 5.94217 20.442 6.13402C19.7525 6.29608 19.111 6.68817 18.5549 7.24421L14.2685 11.5306C14.2589 11.5406 14.2491 11.5504 14.2391 11.56L9.65699 16.1422C9.26646 16.5327 9.26646 17.1658 9.65699 17.5564L11.0712 18.9706L13.1924 16.8493C13.583 16.4588 14.2161 16.4588 14.6066 16.8493C14.9972 17.2398 14.9972 17.873 14.6066 18.2635L12.4854 20.3848L13.8996 21.799C14.2902 22.1895 14.9233 22.1895 15.3138 21.799L24.2118 12.9011C24.7678 12.345 25.1599 11.7035 25.322 11.014C25.5138 10.1977 25.7006 9.15327 25.706 8.19644C25.7117 7.18326 25.5114 6.54068 25.2133 6.24266C24.9153 5.94464 24.2727 5.7443 23.2596 5.75ZM9.80516 11.0019L11.5631 11.4076L8.24277 14.7279C7.99483 14.9759 7.79935 15.2564 7.65635 15.5558L6.12148 14.0209L8.87319 11.2692C9.11699 11.0254 9.4692 10.9244 9.80516 11.0019ZM17.4352 25.3346L15.9002 23.7996C16.1996 23.6566 16.4801 23.4612 16.7281 23.2132L20.0485 19.8928L20.4542 21.651C20.5317 21.9869 20.4307 22.3391 20.1869 22.5829L17.4352 25.3346Z" fill="black"/>
<path d="M6.82847 21.799C7.219 21.4085 7.219 20.7754 6.82847 20.3848C6.43795 19.9943 5.80478 19.9943 5.41426 20.3848L4.00005 21.799C3.60952 22.1896 3.60952 22.8227 4.00005 23.2133C4.39057 23.6038 5.02374 23.6038 5.41426 23.2133L6.82847 21.799Z" fill="black"/>
<path d="M11.0711 26.0417C11.4616 25.6512 11.4616 25.018 11.0711 24.6275C10.6806 24.2369 10.0474 24.2369 9.6569 24.6275L7.53558 26.7488C7.14506 27.1393 7.14506 27.7725 7.53558 28.163C7.9261 28.5535 8.55927 28.5535 8.94979 28.163L11.0711 26.0417Z" fill="black"/>
</svg>
