<svg width="32" height="32" viewBox="0 0 32 32" fill="none" xmlns="http://www.w3.org/2000/svg">
<path fill-rule="evenodd" clip-rule="evenodd" d="M15.9995 10.7151C13.0809 10.7151 10.7149 13.0811 10.7149 15.9997C10.7149 18.9183 13.0809 21.2844 15.9995 21.2844C18.9182 21.2844 21.2842 18.9183 21.2842 15.9997C21.2842 13.0811 18.9182 10.7151 15.9995 10.7151ZM12.7149 15.9997C12.7149 14.1857 14.1855 12.7151 15.9995 12.7151C17.8136 12.7151 19.2842 14.1857 19.2842 15.9997C19.2842 17.8138 17.8136 19.2844 15.9995 19.2844C14.1855 19.2844 12.7149 17.8138 12.7149 15.9997Z" fill="black"/>
<path fill-rule="evenodd" clip-rule="evenodd" d="M13.6903 2.19995C13.1905 2.19995 12.7675 2.56898 12.6996 3.06416L12.2486 6.35466C11.2567 6.74065 10.3396 7.27491 9.52437 7.92981L6.44545 6.67524C5.98275 6.4867 5.45189 6.66861 5.20208 7.10131L2.89332 11.1002C2.64342 11.533 2.75147 12.0839 3.14638 12.3903L5.77225 14.4275C5.69396 14.9406 5.65343 15.4656 5.65343 15.9996C5.65343 16.5341 5.69406 17.0598 5.77252 17.5735L3.14824 19.6113C2.75361 19.9178 2.64572 20.4685 2.89554 20.9011L5.20429 24.9C5.4542 25.3329 5.98531 25.5147 6.44809 25.3259L9.52559 24.0703C10.3405 24.7248 11.2572 25.2586 12.2485 25.6444L12.6996 28.9357C12.7675 29.4309 13.1905 29.8 13.6903 29.8H18.3079C18.8075 29.8 19.2305 29.4312 19.2985 28.9362L19.7513 25.6442C20.7424 25.2584 21.6588 24.7246 22.4736 24.0702L25.5519 25.3261C26.0146 25.515 26.5457 25.3331 26.7956 24.9002L29.1044 20.9014C29.3542 20.4687 29.2463 19.918 28.8517 19.6115L26.2266 17.5731C26.305 17.0595 26.3456 16.534 26.3456 15.9996C26.3456 15.4658 26.3051 14.9409 26.2269 14.4279L28.8536 12.3901C29.2485 12.0837 29.3566 11.5328 29.1067 11.1L26.7979 7.1011C26.5481 6.6684 26.0172 6.48649 25.5545 6.67502L22.4748 7.92992C21.6597 7.27511 20.7428 6.74091 19.7512 6.35492L19.2985 3.06371C19.2305 2.56873 18.8075 2.19995 18.3079 2.19995H13.6903ZM14.5626 4.19995H17.436L17.9386 7.85499L18.5394 8.04668C19.6931 8.41479 20.7389 9.02766 21.6153 9.82528L22.0817 10.2498L25.5018 8.85617L26.9385 11.3446L24.0228 13.6066L24.1562 14.2223C24.2802 14.7942 24.3456 15.3886 24.3456 15.9996C24.3456 16.611 24.2801 17.2059 24.1559 17.7781L24.0224 18.3936L26.9364 20.6564L25.4997 23.1448L22.0811 21.75L21.6145 22.1746C20.7383 22.9718 19.6928 23.5844 18.5395 23.9524L17.9387 24.1441L17.436 27.8H14.5626L14.0616 24.1445L13.4604 23.9527C12.3068 23.5847 11.2611 22.9721 10.3847 22.1747L9.91807 21.7501L6.5002 23.1446L5.06353 20.6562L7.97675 18.394L7.8432 17.7785C7.71903 17.2061 7.65343 16.6111 7.65343 15.9996C7.65343 15.3885 7.71893 14.7939 7.84293 14.2219L7.97643 13.6062L5.06151 11.3448L6.49818 8.85639L9.91749 10.2497L10.3839 9.82518C11.2605 9.02741 12.3065 8.41447 13.4605 8.04641L14.0617 7.85467L14.5626 4.19995Z" fill="black"/>
</svg>
