<svg width="32" height="32" viewBox="0 0 32 32" fill="none" xmlns="http://www.w3.org/2000/svg">
<path fill-rule="evenodd" clip-rule="evenodd" d="M16.9351 2.24012C16.3501 1.9307 15.6499 1.9307 15.0649 2.24012L5.53245 7.28201C5.2049 7.45526 5 7.79543 5 8.16598V14.0557C5 16.001 5.11158 18.084 5.80452 20.0623C7.25742 24.2104 9.72131 26.6911 11.8413 28.1308C12.8972 28.8479 13.8642 29.3048 14.5742 29.5841C14.9295 29.7239 15.2216 29.8197 15.4299 29.8816C15.5341 29.9126 15.6174 29.9352 15.6774 29.9506C15.7074 29.9583 15.7315 29.9642 15.7495 29.9685L15.7718 29.9737L15.7795 29.9755L15.7824 29.9761L15.7836 29.9764C15.7836 29.9764 15.7847 29.9766 16 29.0001L15.7847 29.9766C15.8557 29.9923 15.9278 30.0001 16 30.0001C16.0819 30.0001 16.1637 29.99 16.2436 29.97L16 29.0001C16.2436 29.97 16.2446 29.9697 16.2446 29.9697L16.2458 29.9694L16.2486 29.9687L16.256 29.9668L16.2777 29.961C16.2891 29.958 16.3031 29.9542 16.3196 29.9495C16.3285 29.9471 16.338 29.9444 16.3483 29.9414C16.4071 29.9246 16.489 29.9 16.5915 29.8667C16.7965 29.8 17.0844 29.6979 17.4349 29.5515C18.1353 29.2589 19.0904 28.7876 20.135 28.0649C22.2302 26.6156 24.681 24.1573 26.1479 20.1354C26.8846 18.1158 27 15.9768 27 13.9863V8.16598C27 7.79543 26.7951 7.45526 26.4675 7.28201L16.9351 2.24012ZM16.6641 27.706C16.3759 27.8264 16.144 27.9087 15.9861 27.9605C15.8279 27.913 15.5954 27.8366 15.3064 27.723C14.7104 27.4885 13.879 27.0971 12.9649 26.4763C11.145 25.2403 8.98302 23.0869 7.69209 19.4012C7.11527 17.7544 7 15.9515 7 14.0557V8.76833L16 4.00806L17.9227 5.02499L15.0637 12.649C14.9382 12.9835 15.0008 13.3596 15.2279 13.6355C15.4549 13.9114 15.8119 14.0452 16.1644 13.9865L20.3315 13.292L17.0862 20.5939C16.8619 21.0986 17.0892 21.6896 17.5939 21.9139C18.0985 22.1382 18.6895 21.9109 18.9138 21.4062L22.9138 12.4062C23.0633 12.07 23.016 11.6788 22.7907 11.3879C22.5654 11.0969 22.1986 10.9532 21.8356 11.0137L17.5447 11.7288L19.7051 5.96776L25 8.76833V13.9863C25 15.9288 24.8801 17.7748 24.269 19.4501C22.9677 23.0178 20.8142 25.1632 18.9972 26.4201C18.0858 27.0506 17.2578 27.458 16.6641 27.706Z" fill="black"/>
</svg>
