<svg width="32" height="32" viewBox="0 0 32 32" fill="none" xmlns="http://www.w3.org/2000/svg">
<path fill-rule="evenodd" clip-rule="evenodd" d="M19.8237 2.3463C21.1456 1.38489 23 2.3292 23 3.96377V9.29009C25.891 10.1508 28 12.8279 28 15.9999C28 19.172 25.891 21.8491 23 22.7098V28.0362C23 29.6708 21.1456 30.6151 19.8237 29.6537L10.6748 23H5C4.44772 23 4 22.5523 4 22V10C4 9.44772 4.44772 9 5 9H10.6748L19.8237 2.3463ZM23 20.5842C24.7663 19.8126 26 18.0494 26 15.9999C26 13.9505 24.7663 12.1873 23 11.4157V20.5842ZM10 11V21H6V11H10ZM21 28.0362L12 21.4908V10.5092L21 3.96377V28.0362Z" fill="black"/>
</svg>
