<svg width="32" height="32" viewBox="0 0 32 32" fill="none" xmlns="http://www.w3.org/2000/svg">
<path d="M9.92066 13L12.0207 10H19.9793L22.0793 13H9.92066Z" fill="black"/>
<path d="M16 23.2998L9.96377 15H22.0362L16 23.2998Z" fill="black"/>
<path fill-rule="evenodd" clip-rule="evenodd" d="M16 30C23.732 30 30 23.732 30 16C30 8.26801 23.732 2 16 2C8.26801 2 2 8.26801 2 16C2 23.732 8.26801 30 16 30ZM11.5 8C11.1737 8 10.8679 8.15921 10.6808 8.42654L7.18077 13.4265C6.93594 13.7763 6.94016 14.2429 7.19126 14.5882L15.1913 25.5882C15.3794 25.8469 15.6801 26 16 26C16.3199 26 16.6206 25.8469 16.8087 25.5882L24.8087 14.5882C25.0598 14.2429 25.0641 13.7763 24.8192 13.4265L21.3192 8.42654C21.1321 8.15921 20.8263 8 20.5 8H11.5Z" fill="black"/>
</svg>
