<svg width="32" height="32" viewBox="0 0 32 32" fill="none" xmlns="http://www.w3.org/2000/svg">
<path fill-rule="evenodd" clip-rule="evenodd" d="M8.07811 20.525L15.1357 8.39943C15.5214 7.73681 16.4786 7.73681 16.8643 8.39943L23.9219 20.525C24.3099 21.1917 23.829 22.0281 23.0576 22.0281H8.94237C8.17101 22.0281 7.69009 21.1917 8.07811 20.525ZM16 12C16.5523 12 17 12.4477 17 13V16C17 16.5523 16.5523 17 16 17C15.4478 17 15 16.5523 15 16V13C15 12.4477 15.4478 12 16 12ZM16 20C16.5523 20 17 19.5523 17 19C17 18.4477 16.5523 18 16 18C15.4478 18 15 18.4477 15 19C15 19.5523 15.4478 20 16 20Z" fill="black"/>
<path fill-rule="evenodd" clip-rule="evenodd" d="M31 16C31 24.2843 24.2843 31 16 31C7.71573 31 1 24.2843 1 16C1 7.71573 7.71573 1 16 1C24.2843 1 31 7.71573 31 16ZM18.5928 7.39335C17.4358 5.4055 14.5642 5.40551 13.4072 7.39335L6.34958 19.519C5.18551 21.519 6.62828 24.0281 8.94237 24.0281H23.0576C25.3717 24.0281 26.8145 21.5189 25.6504 19.519L18.5928 7.39335Z" fill="black"/>
</svg>
