<svg width="32" height="32" viewBox="0 0 32 32" fill="none" xmlns="http://www.w3.org/2000/svg">
<path d="M16 23.2272C17.6066 23.2272 18.9091 21.9247 18.9091 20.3181C18.9091 18.7114 17.6066 17.409 16 17.409C14.3934 17.409 13.0909 18.7114 13.0909 20.3181C13.0909 21.9247 14.3934 23.2272 16 23.2272Z" fill="black"/>
<path fill-rule="evenodd" clip-rule="evenodd" d="M9.54545 8.31807C9.54545 4.75332 12.4353 1.86353 16 1.86353C18.6483 1.86353 20.9219 3.45835 21.917 5.73588C22.1381 6.24197 21.9071 6.83149 21.401 7.0526C20.895 7.27372 20.3054 7.04271 20.0843 6.53662C19.396 4.96127 17.8251 3.86353 16 3.86353C13.5398 3.86353 11.5455 5.85789 11.5455 8.31807V10.4999H24C26.2091 10.4999 28 12.2907 28 14.4999V26.1362C28 28.3454 26.2091 30.1362 24 30.1362H8C5.79086 30.1362 4 28.3454 4 26.1362V14.4999C4 12.2907 5.79086 10.4999 8 10.4999H9.54545V8.31807ZM24 12.4999H8C6.89543 12.4999 6 13.3953 6 14.4999V26.1362C6 27.2408 6.89543 28.1362 8 28.1362H24C25.1046 28.1362 26 27.2408 26 26.1362V14.4999C26 13.3953 25.1046 12.4999 24 12.4999Z" fill="black"/>
</svg>
