<svg width="32" height="32" viewBox="0 0 32 32" fill="none" xmlns="http://www.w3.org/2000/svg">
<path d="M14 8C14 7.44772 13.5523 7 13 7C12.4477 7 12 7.44772 12 8V10C12 10.5523 12.4477 11 13 11C13.5523 11 14 10.5523 14 10V8Z" fill="black"/>
<path d="M20 8C20 7.44772 19.5523 7 19 7C18.4477 7 18 7.44772 18 8V10C18 10.5523 18.4477 11 19 11C19.5523 11 20 10.5523 20 10V8Z" fill="black"/>
<path fill-rule="evenodd" clip-rule="evenodd" d="M8 6C8 4.34315 9.34315 3 11 3H21C22.6569 3 24 4.34315 24 6V13C25.6569 13 27 14.3431 27 16V26C27 27.6569 25.6569 29 24 29H8C6.34315 29 5 27.6569 5 26V16C5 14.3431 6.34315 13 8 13V6ZM22 6V13H10V6C10 5.44772 10.4477 5 11 5H21C21.5523 5 22 5.44772 22 6ZM7 16C7 15.4477 7.44772 15 8 15H24C24.5523 15 25 15.4477 25 16V26C25 26.5523 24.5523 27 24 27H8C7.44772 27 7 26.5523 7 26V16Z" fill="black"/>
</svg>
