<svg width="32" height="32" viewBox="0 0 32 32" fill="none" xmlns="http://www.w3.org/2000/svg">
<path fill-rule="evenodd" clip-rule="evenodd" d="M11 14C11 11.2386 13.2386 9 16 9C18.7614 9 21 11.2386 21 14C21 16.7614 18.7614 19 16 19C13.2386 19 11 16.7614 11 14ZM16 11C14.3431 11 13 12.3431 13 14C13 15.6569 14.3431 17 16 17C17.6569 17 19 15.6569 19 14C19 12.3431 17.6569 11 16 11Z" fill="black"/>
<path fill-rule="evenodd" clip-rule="evenodd" d="M5 14C5 7.92487 9.92487 3 16 3C22.0751 3 27 7.92487 27 14C27 16.8363 25.9265 19.4219 24.1637 21.3727L26.3161 24.1709C27.8337 26.1437 26.4273 29 23.9383 29H8.06173C5.57271 29 4.16627 26.1437 5.68385 24.1709L7.83632 21.3727C6.07348 19.4219 5 16.8363 5 14ZM16 5C11.0294 5 7 9.02944 7 14C7 18.9706 11.0294 23 16 23C20.9706 23 25 18.9706 25 14C25 9.02944 20.9706 5 16 5ZM9.31225 22.7342L7.2691 25.3903C6.76324 26.0479 7.23205 27 8.06173 27H23.9383C24.7679 27 25.2368 26.0479 24.7309 25.3903L22.6878 22.7342C20.8345 24.1554 18.5159 25 16 25C13.4841 25 11.1655 24.1554 9.31225 22.7342Z" fill="black"/>
</svg>
