<svg width="40" height="40" viewBox="0 0 40 40" fill="none" xmlns="http://www.w3.org/2000/svg">
<path d="M13 14C13 13.4477 12.5523 13 12 13C11.4477 13 11 13.4477 11 14V16H9C8.44771 16 8 16.4477 8 17C8 17.5523 8.44771 18 9 18H11V20C11 20.5523 11.4477 21 12 21C12.5523 21 13 20.5523 13 20V18H15C15.5523 18 16 17.5523 16 17C16 16.4477 15.5523 16 15 16H13V14Z" fill="black"/>
<path d="M33 17.5C33 18.3284 32.3284 19 31.5 19C30.6716 19 30 18.3284 30 17.5C30 16.6716 30.6716 16 31.5 16C32.3284 16 33 16.6716 33 17.5Z" fill="black"/>
<path d="M25.5 19C26.3284 19 27 18.3284 27 17.5C27 16.6716 26.3284 16 25.5 16C24.6716 16 24 16.6716 24 17.5C24 18.3284 24.6716 19 25.5 19Z" fill="black"/>
<path d="M30 14.5C30 15.3284 29.3284 16 28.5 16C27.6716 16 27 15.3284 27 14.5C27 13.6716 27.6716 13 28.5 13C29.3284 13 30 13.6716 30 14.5Z" fill="black"/>
<path d="M28.5 22C29.3284 22 30 21.3284 30 20.5C30 19.6716 29.3284 19 28.5 19C27.6716 19 27 19.6716 27 20.5C27 21.3284 27.6716 22 28.5 22Z" fill="black"/>
<path fill-rule="evenodd" clip-rule="evenodd" d="M20 5C20.5523 5 21 5.44772 21 6V8H31C34.3137 8 37 10.6863 37 14V25.5C37 29.0899 34.0899 32 30.5 32H30C27.027 32 24.559 29.8377 24.083 27H15.917C15.441 29.8377 12.973 32 10 32H9.5C5.91015 32 3 29.0899 3 25.5V14C3 10.6863 5.68629 8 9 8H19V6C19 5.44772 19.4477 5 20 5ZM9 10H31C33.2091 10 35 11.7909 35 14V25.5C35 27.9853 32.9853 30 30.5 30H30C27.7909 30 26 28.2091 26 26C26 25.4477 25.5523 25 25 25H15C14.4477 25 14 25.4477 14 26C14 28.2091 12.2091 30 10 30H9.5C7.01472 30 5 27.9853 5 25.5V14C5 11.7909 6.79086 10 9 10Z" fill="black"/>
</svg>
