<svg width="40" height="40" viewBox="0 0 40 40" fill="none" xmlns="http://www.w3.org/2000/svg">
<path fill-rule="evenodd" clip-rule="evenodd" d="M11 14.4641L14 12.732C15.3333 11.9623 15.3333 10.0378 14 9.26795L11 7.5359C9.66667 6.7661 8 7.72834 8 9.26795L8 12.732C8 14.2716 9.66666 15.2339 11 14.4641ZM10 9.26795L13 11L10 12.732L10 9.26795Z" fill="black"/>
<path fill-rule="evenodd" clip-rule="evenodd" d="M3 11C3 6.58172 6.58172 3 11 3C15.4183 3 19 6.58172 19 11C19 15.4183 15.4183 19 11 19C6.58172 19 3 15.4183 3 11ZM11 5C7.68629 5 5 7.68629 5 11C5 14.3137 7.68629 17 11 17C14.3137 17 17 14.3137 17 11C17 7.68629 14.3137 5 11 5Z" fill="black"/>
<path fill-rule="evenodd" clip-rule="evenodd" d="M19.0007 5H30C32.2091 5 34 6.79086 34 9V12C34 13.1947 33.4762 14.2671 32.6458 15C33.4762 15.7329 34 16.8053 34 18V21C34 23.2091 32.2091 25 30 25H21V29.126C22.4056 29.4878 23.5122 30.5944 23.874 32H34C34.5523 32 35 32.4477 35 33C35 33.5523 34.5523 34 34 34H23.874C23.4299 35.7252 21.8638 37 20 37C18.1362 37 16.5701 35.7252 16.126 34H6C5.44772 34 5 33.5523 5 33C5 32.4477 5.44772 32 6 32H16.126C16.4878 30.5944 17.5944 29.4878 19 29.126V25H10C7.79086 25 6 23.2091 6 21V19.6622C6.62683 20.0248 7.29667 20.3213 8 20.5422V21C8 22.1046 8.89543 23 10 23H30C31.1046 23 32 22.1046 32 21V18C32 16.8954 31.1046 16 30 16H19.6622C20.0248 15.3732 20.3213 14.7033 20.5422 14H30C31.1046 14 32 13.1046 32 12V9C32 7.89543 31.1046 7 30 7H20.1679C19.8559 6.28599 19.463 5.61546 19.0007 5ZM22 33C22 31.8954 21.1046 31 20 31C18.8954 31 18 31.8954 18 33C18 34.1046 18.8954 35 20 35C21.1046 35 22 34.1046 22 33Z" fill="black"/>
</svg>
