<svg width="40" height="40" viewBox="0 0 40 40" fill="none" xmlns="http://www.w3.org/2000/svg">
<path fill-rule="evenodd" clip-rule="evenodd" d="M5 10C5 7.23858 7.23858 5 10 5H30C32.7614 5 35 7.23858 35 10V23C35 25.7614 32.7614 28 30 28H24V33H27C27.5523 33 28 33.4477 28 34C28 34.5523 27.5523 35 27 35H13C12.4477 35 12 34.5523 12 34C12 33.4477 12.4477 33 13 33H16V28H10C7.23858 28 5 25.7614 5 23V10ZM7.17071 24C7.58254 25.1652 8.69378 26 10 26H30C31.3062 26 32.4175 25.1652 32.8293 24H7.17071ZM33 22H7V10C7 8.34315 8.34315 7 10 7H30C31.6569 7 33 8.34315 33 10V22ZM22 33V28H18V33H22Z" fill="black"/>
</svg>
