<svg width="40" height="40" viewBox="0 0 40 40" fill="none" xmlns="http://www.w3.org/2000/svg">
<path d="M28.5 20C29.3284 20 30 19.3284 30 18.5C30 17.6716 29.3284 17 28.5 17C27.6716 17 27 17.6716 27 18.5C27 19.3284 27.6716 20 28.5 20Z" fill="black"/>
<path fill-rule="evenodd" clip-rule="evenodd" d="M12 12H9C6.79086 12 5 13.7909 5 16V24C5 26.2091 6.79086 28 9 28H12V33C12 34.1046 12.8954 35 14 35H26C27.1046 35 28 34.1046 28 33V28H31C33.2091 28 35 26.2091 35 24V16C35 13.7909 33.2091 12 31 12H28V7C28 5.89543 27.1046 5 26 5H14C12.8968 5 12 5.89308 12 6.99898V12ZM14 7H26V12H14V7ZM12 24V26H9C7.89543 26 7 25.1046 7 24V16C7 14.8954 7.89543 14 9 14H31C32.1046 14 33 14.8954 33 16V24C33 25.1046 32.1046 26 31 26H28V24C28 22.8954 27.1046 22 26 22H14C12.8954 22 12 22.8954 12 24ZM26 24H14V33H26V24Z" fill="black"/>
</svg>
