<svg width="12" height="12" viewBox="0 0 12 12" fill="none" xmlns="http://www.w3.org/2000/svg">
<path fill-rule="evenodd" clip-rule="evenodd" d="M6 11C8.76142 11 11 8.76142 11 6C11 3.23858 8.76142 1 6 1C3.23858 1 1 3.23858 1 6C1 8.76142 3.23858 11 6 11ZM6.65001 3.49998C6.65001 3.14099 6.35899 2.84998 6.00001 2.84998C5.64102 2.84998 5.35001 3.14099 5.35001 3.49998V5.99998C5.35001 6.24618 5.48911 6.47125 5.70932 6.58135L7.70932 7.58135C8.0304 7.7419 8.42084 7.61175 8.58138 7.29066C8.74193 6.96958 8.61178 6.57914 8.29069 6.4186L6.65001 5.59825V3.49998Z" fill="black"/>
</svg>
