<svg width="12" height="12" viewBox="0 0 12 12" fill="none" xmlns="http://www.w3.org/2000/svg">
<path fill-rule="evenodd" clip-rule="evenodd" d="M6 11C8.76142 11 11 8.76142 11 6C11 3.23858 8.76142 1 6 1C3.23858 1 1 3.23858 1 6C1 8.76142 3.23858 11 6 11ZM3.54048 3.54036C3.79432 3.28652 4.20588 3.28652 4.45972 3.54036L6.0001 5.08074L7.54048 3.54036C7.79432 3.28652 8.20588 3.28652 8.45972 3.54036C8.71356 3.7942 8.71356 4.20575 8.45972 4.45959L6.91934 5.99998L8.45972 7.54036C8.71356 7.7942 8.71356 8.20575 8.45972 8.4596C8.20588 8.71344 7.79432 8.71344 7.54048 8.4596L6.0001 6.91921L4.45972 8.4596C4.20588 8.71344 3.79432 8.71344 3.54048 8.4596C3.28664 8.20575 3.28664 7.7942 3.54048 7.54036L5.08086 5.99998L3.54048 4.45959C3.28664 4.20575 3.28664 3.7942 3.54048 3.54036Z" fill="black"/>
</svg>
