<svg xmlns="http://www.w3.org/2000/svg" width="12" height="12" fill="none" viewBox="0 0 12 12"><path fill="#000" fill-rule="evenodd" d="M10.875 4.125c0 1.6569-1.3431 3-3 3a2.986 2.986 0 0 1-1.524-.4154l-3.9457 3.9457a.75.75 0 1 1-1.0606-1.0606L5.2904 5.649a2.986 2.986 0 0 1-.4154-1.524c0-1.6568 1.3431-3 3-3s3 1.3432 3 3M6.5923 2.8422a.4.4 0 0 1 .5656 0l.7172.7171.7172-.7171a.4.4 0 0 1 .5656.5656l-.7171.7172.7171.7172a.4.4 0 0 1-.5656.5656l-.7172-.7171-.7172.7172a.4.4 0 1 1-.5656-.5657l.7171-.7172-.7171-.7172a.4.4 0 0 1 0-.5656"/></svg>