<svg xmlns="http://www.w3.org/2000/svg" width="12" height="12" fill="none" viewBox="0 0 12 12"><path fill="#000" fill-rule="evenodd" d="M.0426 2.4913c0-1.3531 1.097-2.45 2.45-2.45h1.1723a.65.65 0 1 1 0 1.3H2.4926c-.6351 0-1.15.5149-1.15 1.15V3.673a.65.65 0 1 1-1.3 0zm6.824-1.8a.65.65 0 0 1-.65.65H5.784a.65.65 0 0 1 0-1.3h.4325a.65.65 0 0 1 .65.65m2.6408-.65c1.353 0 2.4499 1.0969 2.4499 2.45V3.673a.65.65 0 1 1-1.3 0V2.4913c0-.6351-.5148-1.15-1.15-1.15h-1.172a.65.65 0 1 1 0-1.3zM.6926 6.853a.65.65 0 0 1-.65-.65v-.4315a.65.65 0 0 1 1.3 0v.4315a.65.65 0 0 1-.65.65m11.2647-.65a.65.65 0 1 1-1.3 0v-.4315a.65.65 0 0 1 1.3 0zm-9.4647 5.7557c-1.353 0-2.45-1.0969-2.45-2.45V8.327a.65.65 0 1 1 1.3 0v1.1817c0 .6351.5149 1.15 1.15 1.15h1.1723a.65.65 0 1 1 0 1.3zm9.4647-2.45c0 1.3531-1.0969 2.45-2.45 2.45H8.3352a.65.65 0 1 1 0-1.3h1.1723c.6351 0 1.1499-.5149 1.1499-1.15V8.327a.65.65 0 0 1 1.3 0zm-5.7408 1.15a.65.65 0 1 1 0 1.3H5.784a.65.65 0 1 1 0-1.3z"/></svg>