<svg width="12" height="12" viewBox="0 0 12 12" fill="none" xmlns="http://www.w3.org/2000/svg">
<path d="M10.1651 2.75391C10.419 2.50007 10.419 2.08851 10.1651 1.83467C9.91129 1.58083 9.49973 1.58083 9.24589 1.83467L1.83442 9.24614C1.58058 9.49998 1.58058 9.91153 1.83442 10.1654C2.08826 10.4192 2.49982 10.4192 2.75366 10.1654L10.1651 2.75391Z" fill="black"/>
<path d="M10.1652 7.32227C10.419 7.06843 10.419 6.65687 10.1652 6.40303C9.91132 6.14919 9.49976 6.14919 9.24592 6.40303L6.40278 9.24616C6.14894 9.50001 6.14894 9.91156 6.40278 10.1654C6.65662 10.4192 7.06818 10.4192 7.32202 10.1654L10.1652 7.32227Z" fill="black"/>
</svg>
