<svg width="12" height="12" viewBox="0 0 12 12" fill="none" xmlns="http://www.w3.org/2000/svg">
<path d="M3.55957 8.14941C3.86333 8.14941 4.11035 8.39546 4.11035 8.69922C4.11033 9.00295 3.86331 9.24902 3.55957 9.24902C3.25603 9.24879 3.00979 9.00281 3.00977 8.69922C3.00977 8.39561 3.25602 8.14965 3.55957 8.14941Z" fill="black"/>
<path fill-rule="evenodd" clip-rule="evenodd" d="M9.56348 6.40625C10.3702 6.4881 10.9998 7.16974 11 7.99805V9.39941C11 10.2279 10.3703 10.9093 9.56348 10.9912L9.40039 11H2.59961L2.43652 10.9912C1.62967 10.9093 1 10.2279 1 9.39941V7.99805C1.00021 7.1147 1.71626 6.39865 2.59961 6.39844H9.40039L9.56348 6.40625ZM2.59961 7.39844C2.26855 7.39865 2.00021 7.66699 2 7.99805V9.39941C2 9.73065 2.26842 9.99979 2.59961 10H9.40039C9.73158 9.99979 10 9.73065 10 9.39941V7.99805C9.99979 7.66699 9.73145 7.39865 9.40039 7.39844H2.59961Z" fill="black"/>
<path d="M3.55957 2.75293C3.86333 2.75293 4.11035 2.99898 4.11035 3.30273C4.11019 3.60636 3.86323 3.85254 3.55957 3.85254C3.25611 3.8523 3.00992 3.60621 3.00977 3.30273C3.00977 2.99912 3.25602 2.75317 3.55957 2.75293Z" fill="black"/>
<path fill-rule="evenodd" clip-rule="evenodd" d="M9.56348 1.00781C10.3702 1.08966 10.9998 1.7713 11 2.59961V4.00488L10.9922 4.16797C10.9159 4.92122 10.3167 5.52025 9.56348 5.59668L9.40039 5.60449H2.59961C1.77122 5.60429 1.08955 4.97484 1.00781 4.16797L1 4.00488V2.59961C1.00021 1.71626 1.71626 1.00021 2.59961 1H9.40039L9.56348 1.00781ZM2.59961 2C2.26855 2.00021 2.00021 2.26855 2 2.59961V4.00488C2.00008 4.33606 2.26847 4.60428 2.59961 4.60449H9.40039C9.73153 4.60428 9.99992 4.33606 10 4.00488V2.59961C9.99979 2.26855 9.73145 2.00021 9.40039 2H2.59961Z" fill="black"/>
</svg>
