<svg xmlns="http://www.w3.org/2000/svg" width="12" height="12" fill="none" viewBox="0 0 12 12"><path fill="#000" fill-rule="evenodd" d="M11 2.5996c-.0002-.8283-.6298-1.51-1.4365-1.5918L9.4004 1H2.5996C1.7163 1.0002 1.0002 1.7163 1 2.5996V4.005l.0078.163c.0817.807.7634 1.4364 1.5918 1.4366h6.8008l.163-.0078c.7533-.0765 1.3525-.6755 1.4288-1.4287L11 4.0049zm-9 0A.6.6 0 0 1 2.5996 2h6.8008A.6.6 0 0 1 10 2.5996V4.005a.6.6 0 0 1-.5996.5996H2.5996A.6.6 0 0 1 2 4.0049zm1.5596.1533c.3037 0 .5508.246.5508.5498a.5503.5503 0 0 1-1.1006 0 .55.55 0 0 1 .5498-.5498M11 7.9981c-.0002-.8284-.6298-1.51-1.4365-1.5918l-.1631-.0079H2.5996C1.7163 6.3987 1.0002 7.1147 1 7.9981v1.4013c0 .8285.6297 1.5099 1.4365 1.5918L2.5996 11h6.8008l.163-.0088C10.3704 10.9093 11 10.2279 11 9.3994zm-9 0a.6.6 0 0 1 .5996-.5997h6.8008A.6.6 0 0 1 10 7.9981v1.4013A.6005.6005 0 0 1 9.4004 10H2.5996A.6005.6005 0 0 1 2 9.3994zm2.1104.7011a.5505.5505 0 0 0-.5508-.5498.55.55 0 0 0-.5498.5498.55.55 0 0 0 .5498.5498.5505.5505 0 0 0 .5508-.5498"/></svg>