<svg width="12" height="12" viewBox="0 0 12 12" fill="none" xmlns="http://www.w3.org/2000/svg">
<g clip-path="url(#clip0_15956_2080)">
<path fill-rule="evenodd" clip-rule="evenodd" d="M5.21538 0.80458C5.50573 0.106479 6.49467 0.106483 6.78502 0.80458L8.0091 3.74762L11.1864 4.00234C11.94 4.06276 12.2456 5.00329 11.6714 5.49516L9.25067 7.56878L9.99024 10.6692C10.1657 11.4047 9.36561 11.986 8.72038 11.5919L6.0002 9.93038L3.28002 11.5919C2.63479 11.986 1.83472 11.4047 2.01015 10.6692L2.74973 7.56878L0.328992 5.49516C-0.245216 5.00329 0.060385 4.06276 0.814039 4.00234L3.9913 3.74762L5.21538 0.80458ZM6.0002 2.30279L5.03915 4.61343C4.94554 4.83849 4.7339 4.99226 4.49093 5.01174L1.9964 5.21172L3.89697 6.83977C4.08208 6.99833 4.16292 7.24714 4.10637 7.48423L3.52571 9.91848L5.66138 8.61402C5.86939 8.48696 6.131 8.48696 6.33901 8.61402L8.47469 9.91848L7.89403 7.48423C7.83747 7.24714 7.91832 6.99833 8.10343 6.83977L10.004 5.21172L7.50947 5.01174C7.2665 4.99226 7.05486 4.83849 6.96125 4.61343L6.0002 2.30279Z" fill="black"/>
</g>
<defs>
<clipPath id="clip0_15956_2080">
<rect width="12" height="12" fill="white"/>
</clipPath>
</defs>
</svg>
