<svg xmlns="http://www.w3.org/2000/svg" width="48" height="48" fill="none" viewBox="0 0 48 48"><path fill="currentColor" fill-rule="evenodd" d="M24.05 1 4 12.32v23.16l20.05 11.57L44.1 35.48V12.32zM42.1 34.32l-18 10.43L6 34.32V13.48L24.05 3.3 42.1 13.48zM12.05 24c0 6.6274 5.3726 12 12 12s12-5.3726 12-12-5.3726-12-12-12-12 5.3726-12 12m22 0c0 5.5228-4.4772 10-10 10s-10-4.4772-10-10 4.4772-10 10-10 10 4.4772 10 10m-11 5h2v2h-2zm1-11.57c2.2091 0 4 1.7909 4 4a4.83 4.83 0 0 1-1.79 3.7 3 3 0 0 0-1.21 2.3h-2a4.88 4.88 0 0 1 1.79-3.71 2.93 2.93 0 0 0 1.21-2.29c0-1.1046-.8954-2-2-2s-2 .8954-2 2h-2a4 4 0 0 1 4-4.05z" clip-rule="evenodd"/></svg>