<svg xmlns="http://www.w3.org/2000/svg" width="48" height="48" fill="none" viewBox="0 0 48 48"><path fill="currentColor" fill-rule="evenodd" d="M24 0C10.7452 0 0 10.7452 0 24s10.7452 24 24 24 24-10.7452 24-24S37.2548 0 24 0m0 2c8.3897.0046 16.0465 4.7804 19.7406 12.3131S46.523 30.8237 41.39 37.46a8.48 8.48 0 0 0-3.88-2.38l-3.64-1A7.81 7.81 0 0 1 29.5 30c3.2-3.1 4.6-8.59 4.6-12 0-5.5781-4.5219-10.1-10.1-10.1S13.9 12.4219 13.9 18c0 3.46 1.42 9 4.65 12.07a8 8 0 0 1-4.42 4.05l-3.64 1a8.48 8.48 0 0 0-3.88 2.38C1.4527 30.8639.5268 21.8694 4.224 14.3219 7.9214 6.7744 15.5957 1.9927 24 2m-8.1 16c0-4.4735 3.6265-8.1 8.1-8.1s8.1 3.6265 8.1 8.1c0 4.17-2.45 12.34-8.1 12.34S15.9 22.13 15.9 18M24 46a21.94 21.94 0 0 1-16.07-7A6.46 6.46 0 0 1 11 37l3.64-1a9.85 9.85 0 0 0 5.51-4.75A7.39 7.39 0 0 0 24 32.3a7.47 7.47 0 0 0 3.88-1.08A9.54 9.54 0 0 0 33.34 36L37 37a6.46 6.46 0 0 1 3.09 2A21.94 21.94 0 0 1 24 46" clip-rule="evenodd"/></svg>