<svg xmlns="http://www.w3.org/2000/svg" width="48" height="48" fill="none" viewBox="0 0 48 48"><path fill="currentColor" fill-rule="evenodd" d="m40.3049 32.93-4.41-1.22a9.66 9.66 0 0 1-5.48-5.2c3.8999-3.68 5.59-10.36 5.59-14.51 0-6.6274-5.3726-12-12-12-6.6275 0-12 5.3726-12 12 0 4.18 1.73 10.91 5.68 14.57-1.23 2.47-3.4501 4.56-5.55 5.14l-4.43 1.22c-4.7 1.4757-7.8457 5.8961-7.7 10.82v4.4h48v-4.4c.1456-4.9239-3.0002-9.3443-7.7-10.82M14.0049 12c0-5.5228 4.4771-10 10-10s10 4.4772 10 10c0 5.15-3 15.15-10 15.15s-10-10-10-15.15m32 34.15h-44v-2.4c-.1487-4.0296 2.401-7.6662 6.24-8.9l4.4-1.21a11.77 11.77 0 0 0 6.6299-5.83c2.9256 1.8046 6.6236 1.7852 9.53-.05a11.47 11.47 0 0 0 6.5601 5.88l4.4 1.21c3.8388 1.2338 6.3886 4.8704 6.24 8.9z" clip-rule="evenodd"/></svg>