<svg xmlns="http://www.w3.org/2000/svg" width="48" height="48" fill="none" viewBox="0 0 48 48"><path fill="currentColor" fill-rule="evenodd" d="M8 36v-.033c0-.975.57-1.814 1.388-2.039l1.34-.37c.84-.234 1.632-.882 2.194-1.73.33.109.687.172 1.078.172.398 0 .762-.066 1.099-.18.555.856 1.339 1.507 2.173 1.738l1.34.37c.818.225 1.388 1.064 1.388 2.039zm6-12c.912 0 2 .382 2 2.2 0 1.411-.421 3.8-2 3.8s-2-2.389-2-3.8c0-1.818 1.088-2.2 2-2.2m5.146 8-1.341-.37c-.383-.106-.801-.497-1.092-.983C17.588 29.528 18 27.861 18 26.2c0-2.552-1.57-4.2-4-4.2s-4 1.648-4 4.2c0 1.671.418 3.346 1.302 4.464-.297.471-.726.86-1.108.966l-1.34.37C7.174 32.465 6 34.096 6 35.967V38h16v-2.033c0-1.871-1.174-3.502-2.854-3.967m5.566-23.304c-.189.19-.44.294-.708.295H24c-.55 0-.998-.441-1-.987a.982.982 0 0 1 .288-.7c.189-.19.433-.314.711-.295.55 0 .999.441 1.001.987a.982.982 0 0 1-.288.7m-.713-3.687h-.014c-.799.004-1.551.317-2.115.884-.564.568-.874 1.321-.87 2.121.007 1.644 1.352 2.977 3 2.977h.014c.8-.004 1.551-.317 2.116-.884.564-.567.874-1.321.87-2.121-.007-1.644-1.352-2.977-3.001-2.977M38 38h3v-2h-3zm-4 0h3v-2h-3zm-4 0h3v-2h-3zm-4 0h3v-2h-3zm0-5h16v-2H26zm0-4h16v-2H26zm0-4h6v-2h-6zm20 19H2V14h16v4h-1v2h14v-2h-1v-4h16zM20 18h8V4h-8zm10-6V2H18v10H0v34h48V12z" clip-rule="evenodd"/></svg>