<svg xmlns="http://www.w3.org/2000/svg" width="48" height="48" fill="none" viewBox="0 0 48 48"><path fill="currentColor" fill-rule="evenodd" d="M35.0048 35.15h2v5h-2zm0 9h2v-2h-2zm12.7 3.4a1.22 1.22 0 0 1-1 .6h-21.35a1.2 1.2 0 0 1-1-.6 1.22 1.22 0 0 1 0-1.2l10.58-18.4a1.24 1.24 0 0 1 2.07 0l10.7 18.4a1.22 1.22 0 0 1 0 1.2m-2.43-1.4-9.27-16-9.26 16zm-43.27-2.4v2.4h20v2h-22v-4.4c-.1443-4.9267 3.0061-9.348 7.71-10.82l4.4-1.22a9.92 9.92 0 0 0 5.55-5.14c-3.94-3.66-5.67-10.42-5.67-14.57 0-6.6274 5.3725-12 12-12 6.6274 0 12 5.3726 12 12 0 4.16-1.71 10.84-5.62 14.51a12.1 12.1 0 0 0 1.56 2.39l-1.54 1.25a13.55 13.55 0 0 1-1.6-2.4c-2.9112 1.8116-6.5989 1.8116-9.51 0a11.79 11.79 0 0 1-6.64 5.83l-4.4 1.27c-3.839 1.2338-6.3886 4.8704-6.24 8.9m22-16.6c7 0 10-10 10-15.15 0-5.5228-4.4772-10-10-10s-10 4.4772-10 10c-.01 5.15 3.01 15.15 10 15.15" clip-rule="evenodd"/></svg>