<svg width="48" height="48" viewBox="0 0 48 48" fill="none" xmlns="http://www.w3.org/2000/svg">
<g clip-path="url(#clip0_8212_3199)">
<path d="M6 20C6 10.0589 14.0589 2 24 2C33.0579 2 40.5532 8.69053 41.8135 17.3993L39.7071 15.2929C39.3166 14.9024 38.6834 14.9024 38.2929 15.2929C37.9024 15.6834 37.9024 16.3166 38.2929 16.7071L42.2929 20.7071C42.6834 21.0976 43.3166 21.0976 43.7071 20.7071L47.7071 16.7071C48.0976 16.3166 48.0976 15.6834 47.7071 15.2929C47.3166 14.9024 46.6834 14.9024 46.2929 15.2929L43.8709 17.7149C42.7369 7.7453 34.273 0 24 0C12.9543 0 4 8.95431 4 20C4 20.5523 4.44772 21 5 21C5.55228 21 6 20.5523 6 20Z" fill="black"/>
<path fill-rule="evenodd" clip-rule="evenodd" d="M17 13C17 11.3431 18.3431 10 20 10H28C29.6569 10 31 11.3431 31 13V21C31 21.3506 30.9398 21.6872 30.8293 22H37C38.6569 22 40 23.3431 40 25V33C40 33.3506 39.9398 33.6872 39.8293 34H45C46.6569 34 48 35.3431 48 37V45C48 46.6569 46.6569 48 45 48H37C35.3431 48 34 46.6569 34 45V37C34 36.6494 34.0602 36.3128 34.1707 36H30.8293C30.9398 36.3128 31 36.6494 31 37V45C31 46.6569 29.6569 48 28 48H20C18.3431 48 17 46.6569 17 45V37C17 36.6494 17.0602 36.3128 17.1707 36H13.8293C13.9398 36.3128 14 36.6494 14 37V45C14 46.6569 12.6569 48 11 48H3C1.34315 48 0 46.6569 0 45V37C0 35.3431 1.34315 34 3 34H8.17071C8.06015 33.6872 8 33.3506 8 33V25C8 23.3431 9.34315 22 11 22H17.1707C17.0602 21.6872 17 21.3506 17 21V13ZM38 33C38 33.5523 37.5523 34 37 34H29C28.4477 34 28 33.5523 28 33V25C28 24.4477 28.4477 24 29 24H37C37.5523 24 38 24.4477 38 25V33ZM36 37C36 36.4477 36.4477 36 37 36H45C45.5523 36 46 36.4477 46 37V45C46 45.5523 45.5523 46 45 46H37C36.4477 46 36 45.5523 36 45V37ZM22 33C22 33.3506 21.9398 33.6872 21.8293 34H26.1707C26.0602 33.6872 26 33.3506 26 33V25C26 24.6494 26.0602 24.3128 26.1707 24H21.8293C21.9398 24.3128 22 24.6494 22 25V33ZM19 34H11C10.4477 34 10 33.5523 10 33V25C10 24.4477 10.4477 24 11 24H19C19.5523 24 20 24.4477 20 25V33C20 33.5523 19.5523 34 19 34ZM3 36H11C11.5523 36 12 36.4477 12 37V45C12 45.5523 11.5523 46 11 46H3C2.44772 46 2 45.5523 2 45V37C2 36.4477 2.44772 36 3 36ZM20 12C19.4477 12 19 12.4477 19 13V21C19 21.5523 19.4477 22 20 22H28C28.5523 22 29 21.5523 29 21V13C29 12.4477 28.5523 12 28 12H20ZM19 37C19 36.4477 19.4477 36 20 36H28C28.5523 36 29 36.4477 29 37V45C29 45.5523 28.5523 46 28 46H20C19.4477 46 19 45.5523 19 45V37Z" fill="black"/>
</g>
<defs>
<clipPath id="clip0_8212_3199">
<rect width="48" height="48" fill="white"/>
</clipPath>
</defs>
</svg>
