<svg xmlns="http://www.w3.org/2000/svg" width="48" height="48" fill="none" viewBox="0 0 48 48"><path fill="currentColor" fill-rule="evenodd" d="M48 38V0H0v38h16v8h-4v2h24v-2h-4v-8zM46 2v27H2V2zM2 36v-5h44v5zm28 10H18v-8h12zm-6-23c3.866 0 7-3.134 7-7s-3.134-7-7-7-7 3.134-7 7 3.134 7 7 7m0-12c2.7614 0 5 2.2386 5 5s-2.2386 5-5 5-5-2.2386-5-5 2.2386-5 5-5m-2.09 7.13A3 3 0 0 1 21 16c0-1.6569 1.3431-3 3-3v2a1.0001 1.0001 0 0 0-.7 1.71c.1863.1847.4377.2889.7.29.5523 0 1-.4477 1-1h2c0 1.6569-1.3431 3-3 3a3 3 0 0 1-2.11-.87zM24 27h.07c8.25 0 14.27-6.56 16.13-10.66l.19-.41-.2-.42C38.28 11.44 32.23 5 24 5 15.7 5 9.68 11.56 7.82 15.66l-.19.41.2.42C9.72 20.56 15.77 27 24 27m0-20c7.22 0 12.45 5.76 14.13 8.94C36.5 19.14 31.3 25 24 25c-7.22 0-12.45-5.76-14.13-8.94C11.5 12.86 16.7 7 24 7" clip-rule="evenodd"/></svg>