<svg xmlns="http://www.w3.org/2000/svg" width="48" height="48" fill="none" viewBox="0 0 48 48"><path fill="#000" fill-rule="evenodd" d="M24 2C14.0589 2 6 10.0589 6 20c0 .5523-.4477 1-1 1s-1-.4477-1-1C4 8.9543 12.9543 0 24 0c10.273 0 18.7369 7.7453 19.8709 17.7149l2.422-2.422c.3905-.3905 1.0237-.3905 1.4142 0s.3905 1.0237 0 1.4142l-4 4c-.3905.3905-1.0237.3905-1.4142 0l-4-4c-.3905-.3905-.3905-1.0237 0-1.4142s1.0237-.3905 1.4142 0l2.1064 2.1064C40.5532 8.6905 33.0579 2 24 2m-4 8c-1.6569 0-3 1.3431-3 3v8c0 .3506.0602.6872.1707 1H11c-1.6569 0-3 1.3431-3 3v8c0 .3506.0602.6872.1707 1H3c-1.6569 0-3 1.3431-3 3v8c0 1.6569 1.3431 3 3 3h8c1.6569 0 3-1.3431 3-3v-8c0-.3506-.0602-.6872-.1707-1h3.3414A3 3 0 0 0 17 37v8c0 1.6569 1.3431 3 3 3h8c1.6569 0 3-1.3431 3-3v-8c0-.3506-.0602-.6872-.1707-1h3.3414A3 3 0 0 0 34 37v8c0 1.6569 1.3431 3 3 3h8c1.6569 0 3-1.3431 3-3v-8c0-1.6569-1.3431-3-3-3h-5.1707A3 3 0 0 0 40 33v-8c0-1.6569-1.3431-3-3-3h-6.1707A3 3 0 0 0 31 21v-8c0-1.6569-1.3431-3-3-3zm-1 3c0-.5523.4477-1 1-1h8c.5523 0 1 .4477 1 1v8c0 .5523-.4477 1-1 1h-8c-.5523 0-1-.4477-1-1zm-8 21h8c.5523 0 1-.4477 1-1v-8c0-.5523-.4477-1-1-1h-8c-.5523 0-1 .4477-1 1v8c0 .5523.4477 1 1 1m10.8293 0A3 3 0 0 0 22 33v-8c0-.3506-.0602-.6872-.1707-1h4.3414A3 3 0 0 0 26 25v8c0 .3506.0602.6872.1707 1zM37 34c.5523 0 1-.4477 1-1v-8c0-.5523-.4477-1-1-1h-8c-.5523 0-1 .4477-1 1v8c0 .5523.4477 1 1 1zm-26 2H3c-.5523 0-1 .4477-1 1v8c0 .5523.4477 1 1 1h8c.5523 0 1-.4477 1-1v-8c0-.5523-.4477-1-1-1m9 0c-.5523 0-1 .4477-1 1v8c0 .5523.4477 1 1 1h8c.5523 0 1-.4477 1-1v-8c0-.5523-.4477-1-1-1zm17 0c-.5523 0-1 .4477-1 1v8c0 .5523.4477 1 1 1h8c.5523 0 1-.4477 1-1v-8c0-.5523-.4477-1-1-1z"/></svg>