<svg xmlns="http://www.w3.org/2000/svg" width="48" height="48" fill="none" viewBox="0 0 48 48"><path fill="currentColor" fill-rule="evenodd" d="m44.7 39.6-5.2-6.93V20c-.0079-7.3126-4.9726-13.6893-12.06-15.49A3 3 0 0 0 27.5 4c0-2.2091-1.7909-4-4-4s-4 1.7909-4 4a4.4 4.4 0 0 0 .06.51C12.4726 6.3107 7.508 12.6874 7.5 20v12.67L2.3 39.6A1.5 1.5 0 0 0 3.5 42h12.27c.9337 3.5023 4.1054 5.9392 7.73 5.9392S30.2963 45.5023 31.23 42H43.5a1.5 1.5 0 0 0 1.2-2.4M21.5 4c0-1.1046.8954-2 2-2s2 .8954 2 2v.14a16.5 16.5 0 0 0-2-.14 16.2 16.2 0 0 0-2 .14.7.7 0 0 1 0-.14m2 42c-2.5365-.0071-4.7945-1.6085-5.64-4h11.28c-.8455 2.3915-3.1035 3.9929-5.64 4m-19-6 5-6.67V20c0-7.732 6.268-14 14-14s14 6.268 14 14v13.33l5 6.67zm19-31.5v2c-5.2444.0055-9.4945 4.2556-9.5 9.5h-2c.0055-6.349 5.151-11.4945 11.5-11.5" clip-rule="evenodd"/></svg>