<svg xmlns="http://www.w3.org/2000/svg" width="48" height="48" fill="none" viewBox="0 0 48 48"><path fill="currentColor" fill-rule="evenodd" d="M24 0C14.0589 0 6 8.0589 6 18c0 14.29 16.64 28.8 17.35 29.41L24 48l.65-.56C25.36 46.8 42 32.29 42 18c0-9.9411-8.0589-18-18-18m0 45.3C20.92 42.46 8 29.85 8 18 8 9.1634 15.1634 2 24 2s16 7.1634 16 16c0 11.84-12.92 24.46-16 27.3m5.71-31.59L25.41 18l4.3 4.29-1.42 1.42-4.29-4.3-4.29 4.3-1.42-1.42 4.3-4.29-4.3-4.29 1.42-1.42 4.29 4.3 4.29-4.3z" clip-rule="evenodd"/></svg>