<svg xmlns="http://www.w3.org/2000/svg" width="48" height="48" fill="none" viewBox="0 0 48 48"><path fill="currentColor" fill-rule="evenodd" d="M0 3v42h48V3zm46 2v4H2V5zM2 43V11h44v32zm6-16.16 1.48 1.36-3.25 3.48-1.46-1.36zm13.1 3.21-1.35 1.47L15.88 28l1.35-1.47zm10.44-7.59 1.65 1.14-4.77 6.94-1.63-1.14zm8.54-.78 4.11 4.11-1.42 1.42-4.09-4.11zM12.5 20C10.567 20 9 21.567 9 23.5s1.567 3.5 3.5 3.5 3.5-1.567 3.5-3.5-1.567-3.5-3.5-3.5m1.07 4.56a1.52 1.52 0 0 1-1.06.44A1.4897 1.4897 0 0 1 11 23.51 1.4897 1.4897 0 0 1 12.49 22 1.4897 1.4897 0 0 1 14 23.49a1.53 1.53 0 0 1-.43 1.07M24.5 31c-1.933 0-3.5 1.567-3.5 3.5s1.567 3.5 3.5 3.5 3.5-1.567 3.5-3.5-1.567-3.5-3.5-3.5m1.07 4.56a1.52 1.52 0 0 1-1.06.44 1.45 1.45 0 0 1-1.07-.43 1.4998 1.4998 0 0 1 1-2.57A1.4897 1.4897 0 0 1 26 34.49a1.53 1.53 0 0 1-.43 1.07M35.5 15c-1.933 0-3.5 1.567-3.5 3.5s1.567 3.5 3.5 3.5 3.5-1.567 3.5-3.5-1.567-3.5-3.5-3.5m1.07 4.56a1.52 1.52 0 0 1-1.06.44 1.44 1.44 0 0 1-1.07-.43A1.5 1.5 0 0 1 35.49 17 1.4897 1.4897 0 0 1 37 18.49a1.53 1.53 0 0 1-.43 1.07M45 8h-2V6h2zm-4 0h-2V6h2z" clip-rule="evenodd"/></svg>