<svg xmlns="http://www.w3.org/2000/svg" width="48" height="48" fill="none" viewBox="0 0 48 48"><path fill="currentColor" fill-rule="evenodd" d="M0 3v42h48V3zm46 2v4H2V5zM2 43V11h44v32zM45 8h-2V6h2zm-4 0h-2V6h2zM14.17 25.18l-2-.36c.8309-4.5269 4.1778-8.1797 8.6149-9.4024C25.222 14.1948 29.9676 15.6177 33 19.08V16h2v7h-7v-2h4c-2.3871-3.1539-6.409-4.6044-10.2597-3.7001S14.9338 21.2932 14.2 25.18zM34 27.91l2 .18c-.6059 6.1781-5.7923 10.8934-12 10.91a11.89 11.89 0 0 1-10-5.39V37h-2v-7h7v2h-3.65A9.92 9.92 0 0 0 24 37c5.1752-.0068 9.501-3.9389 10-9.09" clip-rule="evenodd"/></svg>