<svg xmlns="http://www.w3.org/2000/svg" width="48" height="48" fill="none" viewBox="0 0 48 48"><path fill="#000" fill-rule="evenodd" d="M7.2385.041c.5472.0748.9301.579.8554 1.1262-.1334.9756-.075 2.014.1723 3.0449H21.356c.5523 0 1 .4477 1 1s-.4477 1-1 1H8.9967c.7298 1.4628 1.8681 2.8087 3.4063 3.8116 1.8159 1.1838 3.5938 2.1777 5.2682 3.1116l.0802.0448c1.3481.7518 2.6423 1.4736 3.8043 2.2174 2.4192-2.5914 5.8656-4.2115 9.6904-4.2115 7.3198 0 13.2538 5.9339 13.2538 13.2538 0 3.7678-1.5723 7.1684-4.0965 9.5816l7.1557 7.1557c.3905.3905.3905 1.0237 0 1.4142s-1.0237.3905-1.4142 0l-7.2947-7.2947c-2.1526 1.5104-4.7748 2.397-7.6041 2.397-6.8855 0-12.5446-5.2505-13.1921-11.9661h-6.9793c-.5523 0-1-.4478-1-1s.4477-1 1-1h6.9364a13.18 13.18 0 0 1 2.2867-6.7598c-1.0629-.6702-2.2597-1.3377-3.5723-2.0698l-.0285-.0159c-1.6698-.9313-3.5047-1.9563-5.3862-3.1829C7.4074 9.1543 5.5886 4.7283 6.1123.8964c.0748-.5472.579-.9302 1.1262-.8554M26.231.0566c.5509-.0398 1.0297.3745 1.0695.9253.2119 2.9306-.8891 5.5348-2.2748 7.5293-1.38 1.9862-3.1057 3.461-4.3172 4.149-.4802.2727-1.0906.1045-1.3633-.3758-.2728-.4802-.1045-1.0906.3757-1.3633.9292-.5278 2.4381-1.789 3.6623-3.551 1.2184-1.7537 2.0913-3.91 1.9225-6.244-.0398-.5508.3745-1.0297.9253-1.0695m-6.2387 24.3832c0-6.2153 5.0385-11.2538 11.2538-11.2538s11.2538 5.0385 11.2538 11.2538-5.0385 11.2538-11.2538 11.2538-11.2538-5.0385-11.2538-11.2538m-6.4804-9.1475c.305.4604.1791 1.0809-.2813 1.3859-.9832.6514-2.4116 1.8344-3.5221 3.3467-1.1128 1.5154-1.8358 3.2608-1.6224 5.0886.281 2.4065 1.3597 3.9112 2.932 5.1478 1.1949.9398 2.611 1.6853 4.2099 2.527.6208.3268 1.2692.6681 1.9428 1.041 3.2747 1.8123 5.2889 2.984 6.6516 4.1858 1.431 1.2619 2.1245 2.5364 2.8795 4.4186.5167 1.288.7001 2.4377.7533 3.2736.0266.4183.0206.7595.0071 1.0027a6 6 0 0 1-.0229.2894 4 4 0 0 1-.0101.0853l-.0036.027-.0014.0094-.0006.0037-.0002.0016-.0002.0015c-.0838.5459-.5942.9205-1.1401.8367-.5442-.0835-.9182-.5911-.8376-1.135l.0004-.0027.0002-.0013.0031-.026.0014-.0126a4 4 0 0 0 .0147-.188c.0096-.1723.0148-.4337-.0062-.7648-.0282-.4443-.1037-1.0112-.2782-1.6554H12.2534c-.5523 0-1-.4477-1-1s.4477-1 1-1h12.1659c-.5276-1.1449-1.0519-1.8983-1.9197-2.6637-1.166-1.0283-2.9676-2.0932-6.2972-3.9359-.5751-.3183-1.1642-.6283-1.7525-.9379-1.6604-.8739-3.3188-1.7466-4.6682-2.8079-1.9141-1.5055-3.3288-3.4632-3.682-6.4879-.294-2.517.7185-4.7637 1.9967-6.5044 1.2805-1.7437 2.8984-3.0808 4.0296-3.8302.4604-.305 1.0809-.179 1.3859.2814m12.594 3.6146c0-.5523.4477-1 1-1h5.8655a1 1 0 0 1 .7872.3832l2.9573 3.7746a1 1 0 0 1 .2128.6167v6.6829c0 .5523-.4477 1-1 1h-8.8228c-.5523 0-1-.4477-1-1zm5.7165 1v2.1989c0 .5523.4477 1 1 1h2.1063v5.2585h-6.8228v-8.4574zM13.7083 36.2818c.279.4766.1187 1.0892-.358 1.3681-5.0526 2.957-5.5466 7.4136-5.2892 9.188.0793.5466-.2995 1.0539-.846 1.1332s-1.054-.2995-1.1332-.8461c-.3512-2.4204.3732-7.7571 6.2582-11.2012.4767-.2789 1.0892-.1187 1.3682.358"/></svg>