<svg xmlns="http://www.w3.org/2000/svg" width="48" height="48" fill="none" viewBox="0 0 48 48"><path fill="currentColor" fill-rule="evenodd" d="M36.562 29c-.46 0-.858-.312-.971-.757L35.282 27H41l.002 2zM41 25h-5.718c-.62 0-1.195.28-1.576.769a1.986 1.986 0 0 0-.365 1.715l.311 1.245A2.996 2.996 0 0 0 36.562 31H41c1.103 0 2-.897 2-2v-2c0-1.103-.897-2-2-2m-28.59 3.242a1.001 1.001 0 0 1-.971.758H7v-2h5.72zM12.719 25H7c-1.102 0-2 .897-2 2v2c0 1.103.898 2 2 2h4.439c1.379 0 2.576-.935 2.91-2.272l.312-1.244c.149-.601.016-1.227-.366-1.715-.381-.489-.956-.769-1.576-.769M43 19h3v-1h-3zm1 12c0 .552-.448 1-1 1H31v-2H17v2H5c-.551 0-1-.448-1-1v-5c0-1.565.749-3.061 2.001-4l1.034-.775 1.403.935c.823.55 1.782.84 2.773.84H36.79c.991 0 1.95-.29 2.773-.84l1.403-.935L42 22c1.252.939 2 2.435 2 4zm-1 4H31v-1h12c.353 0 .686-.072 1-.185V34c0 .552-.448 1-1 1m-2 3h-1v2h1.002v1H36v-1h1v-2h-1v-1h5zm-22-3h10v-3H19zM5 35c-.551 0-1-.448-1-1v-.185c.315.113.648.185 1 .185h12v1zm7 3h-1v2h1.002v1H7v-1h1v-2H7v-1h5zM2 19h3v-1H2zm8.983-7.025c.43-1.182 1.562-1.975 2.819-1.975h20.397c1.257 0 2.389.793 2.819 1.975l2.775 7.629-1.339.892c-.495.33-1.07.504-1.664.504H11.211c-.594 0-1.17-.174-1.664-.504l-1.339-.892zM46 16h-3c-.882 0-1.626.58-1.89 1.376l-2.213-6.085C38.182 9.322 36.293 8 34.199 8H13.802c-2.094 0-3.983 1.322-4.698 3.291l-2.213 6.085C6.626 16.58 5.883 16 5 16H2c-1.102 0-2 .897-2 2v1c0 1.103.898 2 2 2h2.111C2.779 22.307 2 24.115 2 26v8c0 1.654 1.346 3 3 3v4c0 1.103.898 2 2 2h5c1.103 0 2-.897 2-2v-4h20v4c0 1.103.898 2 2 2h5c1.103 0 2-.897 2-2v-4c1.655 0 3-1.346 3-3v-8c0-1.885-.777-3.693-2.109-5H46c1.103 0 2-.897 2-2v-1c0-1.103-.897-2-2-2" clip-rule="evenodd"/></svg>