<svg xmlns="http://www.w3.org/2000/svg" width="48" height="48" fill="none" viewBox="0 0 48 48"><path fill="currentColor" fill-rule="evenodd" d="M2.57 32.42a.87.87 0 0 1-.32.06 1 1 0 0 1-.95-.68c-.05-.17-.11-.33-.16-.5-.1635-.5244.1268-1.0826.65-1.25a1.0004 1.0004 0 0 1 1.26.65l.15.46a1 1 0 0 1-.63 1.26m4.74 5.9a1.0002 1.0002 0 0 0-1.7645.2818A1 1 0 0 0 5.8 39.62c.21.26.44.51.67.75.3761.4019 1.0063.4243 1.41.05a1 1 0 0 0 0-1.42c-.16-.22-.37-.45-.57-.68m3.35 3.16a1.0001 1.0001 0 1 0-1.21 1.59l.81.6a1 1 0 0 0 .58.18.9999.9999 0 0 0 .57-1.85zm-6-6.95c-.2623-.486-.869-.6673-1.355-.405-.486.2624-.6673.869-.405 1.355.17.3.33.59.51.88a1 1 0 0 0 .85.48 1 1 0 0 0 .52-.14c.4713-.2851.6233-.8976.34-1.37zm15.18 11.08-.9-.2a1 1 0 0 0-1.2.75 1 1 0 0 0 .75 1.2c.32.08.65.15 1 .21h.19c.5523.0497 1.0403-.3577 1.09-.91s-.3577-1.0403-.91-1.09zm-4.4-1.35c-.29-.12-.57-.24-.84-.37a1 1 0 1 0-.86 1.8c.3.15.61.28.92.42.124.0504.2562.0775.39.08a1 1 0 0 0 .92-.61 1 1 0 0 0 .0106-.7706 1 1 0 0 0-.5406-.5494M24 0C14.4368-.0164 5.7837 5.6672 2 14.45V9H0v9h9v-2H3.52C7.5561 5.6605 18.6621-.0531 29.421 2.6749S47.2217 15.718 45.8437 26.7315 35.0994 46.007 24 46h-.48c-.5523 0-1 .4478-1 1s.4477 1 1 1H24c13.2548 0 24-10.7451 24-24S37.2548 0 24 0m-1 13v13h11v-2h-9V13z" clip-rule="evenodd"/></svg>