<svg xmlns="http://www.w3.org/2000/svg" width="48" height="48" fill="none" viewBox="0 0 48 48"><path fill="currentColor" fill-rule="evenodd" d="M28 4h16v4h4v36H0V8h4V4h16a5 5 0 0 1 4 2 5 5 0 0 1 4-2m-8 32H6v2h16.82A3 3 0 0 0 20 36M36 6h2v3.45l-1-.63-1 .63zm-8 0c-1.6569 0-3 1.3431-3 3v26a5 5 0 0 1 3-1h14V6h-2v7.08l-3-1.9-3 1.9V6zm14 30v2H25.18A3 3 0 0 1 28 36zM20 6H6v28h14a5 5 0 0 1 3 1V9c0-1.6569-1.3431-3-3-3m26 36H2V10h2v30h40V10h2zM12 13h5v-2h-5zm9 5H8v-2h13zM8 22h13v-2H8zm13 4H8v-2h13zM8 30h13v-2H8zm32-12H27v-2h13zm-13 4h13v-2H27zm13 4H27v-2h13zm-13 4h7v-2h-7z" clip-rule="evenodd"/></svg>