<svg xmlns="http://www.w3.org/2000/svg" width="48" height="48" fill="none" viewBox="0 0 48 48"><path fill="currentColor" fill-rule="evenodd" d="M41 3V1h-6v2H14V1H8v2H2v44h45V3zm4 34h-5v5H4V13h41zm-3 2h1.59L42 40.59zM37 3h2v2h-2zM10 3h2v2h-2zM8 5v2h6V5h21v2h6V5h4v6H4V5zM4 45v-1h37.41L45 40.41V45zm7-26H8v-3h3zm5 0h-3v-3h3zm5 0h-3v-3h3zm5 0h-3v-3h3zm5 0h-3v-3h3zm5 0h-3v-3h3zm5 0h-3v-3h3zm-30 5H8v-3h3zm5 0h-3v-3h3zm5 0h-3v-3h3zm5 0h-3v-3h3zm5 0h-3v-3h3zm5 0h-3v-3h3zm5 0h-3v-3h3zm-30 5H8v-3h3zm5 0h-3v-3h3zm5 0h-3v-3h3zm5 0h-3v-3h3zm5 0h-3v-3h3zm5 0h-3v-3h3zm5 0h-3v-3h3zm-30 5H8v-3h3zm5 0h-3v-3h3zm5 0h-3v-3h3zm5 0h-3v-3h3zm5 0h-3v-3h3zm5 0h-3v-3h3zm5 0h-3v-3h3zM8 39v-3h3v3zm8 0h-3v-3h3zm5 0h-3v-3h3z" clip-rule="evenodd"/></svg>