<svg width="48" height="48" viewBox="0 0 48 48" fill="none" xmlns="http://www.w3.org/2000/svg">
<path d="M23 22C23 21.4477 23.4477 21 24 21C24.7879 21 25.5681 21.1552 26.2961 21.4567C27.0241 21.7583 27.6855 22.2002 28.2426 22.7574C28.7998 23.3145 29.2417 23.9759 29.5433 24.7039C29.8448 25.4319 30 26.2121 30 27C30 27.5523 29.5523 28 29 28C28.4477 28 28 27.5523 28 27C28 26.4747 27.8965 25.9546 27.6955 25.4693C27.4945 24.984 27.1999 24.543 26.8284 24.1716C26.457 23.8001 26.016 23.5055 25.5307 23.3045C25.0454 23.1035 24.5253 23 24 23C23.4477 23 23 22.5523 23 22Z" fill="black"/>
<path fill-rule="evenodd" clip-rule="evenodd" d="M24 17C18.4772 17 14 21.4772 14 27C14 32.5228 18.4772 37 24 37C29.5228 37 34 32.5228 34 27C34 21.4772 29.5228 17 24 17ZM16 27C16 22.5817 19.5817 19 24 19C28.4183 19 32 22.5817 32 27C32 31.4183 28.4183 35 24 35C19.5817 35 16 31.4183 16 27Z" fill="black"/>
<path d="M37 17C36.4477 17 36 17.4477 36 18V19C36 19.5523 36.4477 20 37 20H38C38.5523 20 39 19.5523 39 19V18C39 17.4477 38.5523 17 38 17H37Z" fill="black"/>
<path fill-rule="evenodd" clip-rule="evenodd" d="M19.8735 5C18.3896 5 16.9824 5.65911 16.0324 6.79908L12.8315 10.6402C12.6421 10.8674 12.3592 11 12.0615 11H7.00039C4.2391 11 2 13.2384 2 16V38C2 40.7614 4.23858 43 7 43H41C43.7614 43 46 40.7614 46 38V16C46 13.2386 43.7614 11 41 11H35.9367C35.64 11 35.3585 10.8682 35.1685 10.6402L31.9676 6.79908C31.0176 5.65911 29.6104 5 28.1265 5H19.8735ZM17.5688 8.07945C18.1388 7.39547 18.9832 7 19.8735 7H28.1265C29.0168 7 29.8612 7.39547 30.4312 8.07945L33.6321 11.9206C34.2021 12.6045 35.0464 13 35.9367 13H41C42.6569 13 44 14.3431 44 16V38C44 39.6569 42.6569 41 41 41H7C5.34315 41 4 39.6569 4 38V16C4 14.3433 5.34341 13 7.00039 13H12.0615C12.9509 13 13.7973 12.6053 14.3679 11.9206L17.5688 8.07945Z" fill="black"/>
</svg>
