<svg xmlns="http://www.w3.org/2000/svg" width="48" height="48" fill="none" viewBox="0 0 48 48"><path fill="#000" fill-rule="evenodd" d="M16.0324 6.799A5 5 0 0 1 19.8735 5h8.253a5 5 0 0 1 3.8411 1.799l3.2009 3.8412c.19.228.4715.3598.7683.3598H41c2.7614 0 5 2.2386 5 5v22c0 2.7614-2.2386 5-5 5H7c-2.7614 0-5-2.2386-5-5V16c0-2.7616 2.2391-5 5.0004-5h5.0611c.2977 0 .5806-.1326.77-.3598zM19.8735 7a3 3 0 0 0-2.3047 1.0794l-3.2009 3.8412A3.004 3.004 0 0 1 12.0615 13H7.0004C5.3434 13 4 14.3433 4 16v22c0 1.6569 1.3431 3 3 3h34c1.6569 0 3-1.3431 3-3V16c0-1.6569-1.3431-3-3-3h-5.0632a3 3 0 0 1-2.3047-1.0794l-3.2009-3.8412A3 3 0 0 0 28.1265 7zM14 27c0-5.5228 4.4772-10 10-10s10 4.4772 10 10-4.4772 10-10 10-10-4.4772-10-10m22-9c0-.5523.4477-1 1-1h1c.5523 0 1 .4477 1 1v1c0 .5523-.4477 1-1 1h-1c-.5523 0-1-.4477-1-1zm-12 1c-4.4183 0-8 3.5817-8 8s3.5817 8 8 8 8-3.5817 8-8-3.5817-8-8-8m-1 3c0-.5523.4477-1 1-1a6 6 0 0 1 4.2426 1.7574A5.998 5.998 0 0 1 30 27c0 .5523-.4477 1-1 1s-1-.4477-1-1a4 4 0 0 0-4-4c-.5523 0-1-.4477-1-1"/></svg>