<svg xmlns="http://www.w3.org/2000/svg" width="48" height="48" fill="none" viewBox="0 0 48 48"><path fill="currentColor" fill-rule="evenodd" d="M44 40.036v-24h-2v24h-2.59L34 34.746v-11c3.7236-6.73 2.1318-15.157-3.7901-20.065s-14.4979-4.908-20.4198 0S2.2765 17.016 6 23.746v11l-6 5.87v7.42h48v-8zm-11.54-4 4.09 4H3.45l4.09-4zM20 2.036c7.732 0 14 6.268 14 14s-6.268 14-14 14-14-6.268-14-14 6.268-14 14-14m0 30a16 16 0 0 0 12-5.45v7.45H8v-7.45a16 16 0 0 0 12 5.45m26 14H2v-4h44zm-26-23c3.866 0 7-3.134 7-7s-3.134-7-7-7-7 3.134-7 7 3.134 7 7 7m0-12c2.7614 0 5 2.2385 5 5s-2.2386 5-5 5-5-2.2386-5-5 2.2386-5 5-5m-3 5c0-1.6569 1.3431-3 3-3v2c-.5523 0-1 .4477-1 1s.4477 1 1 1 1-.4477 1-1h2c0 1.6568-1.3431 3-3 3s-3-1.3432-3-3" clip-rule="evenodd"/></svg>