<svg xmlns="http://www.w3.org/2000/svg" width="48" height="48" fill="none" viewBox="0 0 48 48"><path fill="currentColor" fill-rule="evenodd" d="M39.12 33.0914c6.9867-8.0693 6.4056-20.2031-1.3203-27.5678-7.7259-7.3648-19.8735-7.3648-27.5994 0-7.726 7.3647-8.307 19.4985-1.3203 27.5678L2 42.7214v5.32h44v-5.32zM24 40.0414a19.88 19.88 0 0 0 13.71-5.48l5.35 7.48H4.94l5.35-7.48a19.88 19.88 0 0 0 13.71 5.48m0-38c9.9411 0 18 8.0589 18 18s-8.0589 18-18 18-18-8.0588-18-18 8.0589-18 18-18m-20 44v-2h40v2zm20-16c3.866 0 7-3.134 7-7s-3.134-7-7-7-7 3.134-7 7 3.134 7 7 7m0-12c2.7614 0 5 2.2386 5 5s-2.2386 5-5 5-5-2.2385-5-5 2.2386-5 5-5m0 16c6.0751 0 11-4.9248 11-11s-4.9249-11-11-11-11 4.9249-11 11 4.9249 11 11 11m0-20c4.9706 0 9 4.0295 9 9s-4.0294 9-9 9-9-4.0294-9-9 4.0294-9 9-9m-3 9c0-1.6568 1.3431-3 3-3v2c-.5523 0-1 .4477-1 1s.4477 1 1 1 1-.4477 1-1h2c0 1.6569-1.3431 3-3 3s-3-1.3431-3-3m4-15h-2v-2h2z" clip-rule="evenodd"/></svg>