<svg xmlns="http://www.w3.org/2000/svg" width="48" height="48" fill="none" viewBox="0 0 48 48"><path fill="currentColor" fill-rule="evenodd" d="M16 31H6v-2h10zm8 2H6v2h18zm24-23v28c0 1.6569-1.3431 3-3 3H3c-1.6568 0-3-1.3431-3-3V10c0-1.6569 1.3432-3 3-3h42c1.6569 0 3 1.3431 3 3m-3.91 5h-2.18l-3 3h2.18zm-.18 3H46v-2.09zm-4.82-3h-2.18l-3 3h2.18zm-5 0h-2.18l-3 3h2.18zm-5 0h-2.18l-3 3h2.18zm-5 0h-2.18l-3 3h2.18zm-5 0h-2.18l-3 3h2.18zm-5 0h-2.18l-3 3h2.18zm-5 0H6.91l-3 3h2.18zm-5 0H2v2.09zM46 20H2v18c0 .5523.4477 1 1 1h42c.5523 0 1-.4477 1-1zm0-7v-3c0-.5523-.4477-1-1-1H3c-.5523 0-1 .4477-1 1v3z" clip-rule="evenodd"/></svg>