<svg xmlns="http://www.w3.org/2000/svg" width="48" height="48" fill="none" viewBox="0 0 48 48"><path fill="#000" fill-rule="evenodd" d="M13.4836 12.4417c.5274 0 .9575.4277.9575.9543v10.1511c0 .5297-.4301.9574-.9575.9574-.5279 0-.9581-.4277-.9581-.9574V13.396c0-.5266.4302-.9543.9581-.9543m21.0387 0c.5274 0 .9575.4277.9575.9543v10.1511c0 .5297-.4301.9574-.9575.9574-.5279 0-.9581-.4277-.9581-.9574V13.396c0-.5266.4302-.9543.9581-.9543M8.2231 16.0446c.5273 0 .9574.4284.9574.955v4.6408c0 .5297-.4301.9568-.9574.9568-.528 0-.9582-.4271-.9582-.9568v-4.6408c0-.5266.4302-.955.9582-.955m10.5211 0c.5273 0 .9575.4284.9575.955v4.6408c0 .5297-.4302.9568-.9575.9568-.5279 0-.9581-.4271-.9581-.9568v-4.6408c0-.5266.4302-.955.9581-.955m11.475.955c0-.5266-.4301-.955-.9574-.955-.5279 0-.9581.4284-.9581.955v4.6408c0 .5298.4302.9568.9581.9568.5273 0 .9574-.427.9574-.9568zm10.5212 0c0-.5266-.4301-.955-.9574-.955-.528 0-.9582.4284-.9582.955v4.6408c0 .5298.4302.9568.9582.9568.5273 0 .9574-.427.9574-.9568zM3.92 19.6334c0-.5267-.4301-.9538-.9575-.9538-.5273 0-.958.4271-.958.9538V21.64c0 .5297.4307.9575.958.9575.5274 0 .9575-.4278.9575-.9575zm20.6567-.7619a.947.947 0 0 0-.5724-.1919h-.0046c-.5266.0009-.9565.4276-.9565.9538V21.64c0 .5297.4308.9575.9581.9575a.954.954 0 0 0 .5704-.1886.956.956 0 0 0 .387-.7689v-2.0066c0-.3113-.1503-.5878-.382-.7619m20.4663-.1919c.5249 0 .9519.4271.9519.9538V21.64c0 .5297-.427.9575-.9519.9575-.5274 0-.9575-.4278-.9575-.9575v-2.0066c0-.5267.4301-.9538.9575-.9538M23.6919 29.5865c-.0287-.0091-.8408-.2334-1.508-.2334-.773 0-1.1934.2591-1.1934.6264 0 .4503.5306.6171.8523.7182l.0318.0101.5322.1692c1.2521.3984 1.8228 1.2557 1.8228 2.1869 0 1.9204-1.6889 2.5657-3.1652 2.5657-1.0258 0-1.987-.1888-2.0817-.209v-1.7592q.0252.0065.0685.0182c.2616.07.9937.266 1.753.266.9599 0 1.401-.2805 1.401-.7137 0-.3874-.3819-.611-.8603-.7613-.0703-.0236-.1617-.0528-.2495-.081a29 29 0 0 1-.1623-.0522c-1.0742-.3398-1.97-.971-1.97-2.2364 0-1.4298 1.0705-2.3897 2.8486-2.3897.9392 0 1.8227.2279 1.8802.2431zm18.3467 2.0837c0 2.1869-1.6883 3.9589-4.0395 3.9589s-4.0371-1.772-4.0371-3.9589c0-2.1832 1.6859-3.957 4.0371-3.957s4.0395 1.7738 4.0395 3.957m-30.2433-1.6308-.0187-.0101c-.1312-.0713-.7321-.3981-1.6017-.3981-1.2496 0-2.1142.8683-2.1142 2.0391 0 1.1358.8286 2.0408 2.1142 2.0408.8882 0 1.5114-.3454 1.6147-.4025l.0057-.0033v2.0519l-.0457.013c-.2706.0777-.9017.2589-1.7134.2589-2.1685 0-4.0707-1.4959-4.0707-3.9588 0-2.2829 1.7231-3.957 4.0707-3.957.8525 0 1.495.1944 1.7205.2627l.0386.0116zm20.1166-.0101.0187.0101v-2.0518l-.0386-.0116a5.83 5.83 0 0 0-1.7205-.2627c-2.3476 0-4.0707 1.6741-4.0707 3.957 0 2.4629 1.9021 3.9588 4.0707 3.9588.8117 0 1.4428-.1812 1.7134-.2589l.0457-.013v-2.0519l-.0058.0033c-.1032.0571-.7264.4025-1.6146.4025-1.2856 0-2.1141-.905-2.1141-2.0408 0-1.1708.8646-2.0391 2.1141-2.0391.8696 0 1.4705.3268 1.6017.3981m-17.4645-2.1804h1.929v7.6446h-1.929zm23.5517 1.811c-1.1445 0-1.9944.9007-1.9944 2.0103 0 1.1121.8499 2.0121 1.9944 2.0121 1.1432 0 1.9956-.9 1.9956-2.0121 0-1.1096-.8524-2.0103-1.9956-2.0103"/></svg>