<svg xmlns="http://www.w3.org/2000/svg" width="48" height="48" fill="none" viewBox="0 0 48 48"><path fill="#000" fill-rule="evenodd" d="M17.6573 13.2764C19.8137 9.5273 23.8609 7 28.5 7c6.7052 0 12.1773 5.2794 12.4862 11.9082C45.1073 20.6559 48 24.739 48 29.5 48 35.8513 42.8513 41 36.5 41c-.1753 0-.3461-.0007-.5146-.0013-.3282-.0013-.6475-.0026-.9737.0012L35 41.0001 11.9871 41c-.3255-.0042-.6433-.0029-.9709-.0015-.1687.0008-.34.0015-.5162.0015C4.701 41 0 36.299 0 30.5c0-4.5912 2.946-8.492 7.0492-9.9195C7.5078 16.3184 11.1162 13 15.5 13c.7444 0 1.4676.0959 2.1573.2764M28.5 9c-4.1547 0-7.7478 2.413-9.4507 5.9185l-.3988.8211-.854-.3226C17.0838 15.1478 16.3103 15 15.5 15c-3.541 0-6.421 2.8318-6.4984 6.3539l-.0164.747-.721.196C4.6537 23.2783 2 26.5805 2 30.5c0 4.6944 3.8056 8.5 8.5 8.5.1575 0 .3195-.0007.4838-.0014.3363-.0014.6827-.0029 1.0226.0014h22.9878a67 67 0 0 1 1.0204-.0013c.1646.0007.327.0013.4854.0013 5.2467 0 9.5-4.2533 9.5-9.5 0-4.1349-2.6423-7.6553-6.3336-8.9598l-.6726-.2377.0058-.7134A9 9 0 0 0 39 19.5C39 13.701 34.299 9 28.5 9"/></svg>