<svg width="48" height="48" viewBox="0 0 48 48" fill="none" xmlns="http://www.w3.org/2000/svg">
<path fill-rule="evenodd" clip-rule="evenodd" d="M15.4155 13.0004C15.4152 13.0004 15.4158 13.0004 15.4155 13.0004L17.8538 15.4387L17.8523 15.4381L40.5229 38.1087C40.5227 38.1088 40.5231 38.1086 40.5229 38.1087L42.0111 39.5959C42.0109 39.596 42.0113 39.5958 42.0111 39.5959L45.2071 42.7929C45.5976 43.1834 45.5976 43.8166 45.2071 44.2071C44.8166 44.5976 44.1834 44.5976 43.7929 44.2071L40.0329 40.4471C38.9198 40.8061 37.7325 41 36.5 41C36.3247 41 36.1539 40.9993 35.9854 40.9987C35.6575 40.9974 35.3376 40.9961 35.0117 40.9999L35 41.0001L11.9871 41C11.6616 40.9958 11.3438 40.9971 11.0162 40.9985C10.8475 40.9993 10.6762 41 10.5 41C4.70101 41 0 36.299 0 30.5C0 25.9088 2.94594 22.008 7.04919 20.5805C7.41557 17.1754 9.79246 14.3726 12.969 13.3832L8.79289 9.20711C8.40237 8.81658 8.40237 8.18342 8.79289 7.79289C9.18342 7.40237 9.81658 7.40237 10.2071 7.79289L15.4155 13.0004ZM14.6419 15.0561C11.5047 15.4699 9.07271 18.1211 9.00161 21.3539L8.98518 22.1009L8.26417 22.2969C4.65371 23.2783 2 26.5805 2 30.5C2 35.1944 5.80558 39 10.5 39C10.6571 39 10.8186 38.9993 10.9825 38.9986H10.9838C11.3199 38.9972 11.6666 38.9957 12.0064 39H34.9942C35.3335 38.9961 35.6786 38.9974 36.0146 38.9987C36.179 38.9994 36.3418 39 36.5 39C37.1494 39 37.7837 38.9348 38.3965 38.8107L14.6419 15.0561Z" fill="black"/>
<path d="M46 29.5C46 32.5711 44.5427 35.3018 42.282 37.0384L43.7062 38.4627C46.3246 36.3548 48 33.123 48 29.5C48 24.739 45.1073 20.6559 40.9862 18.9082C40.6773 12.2794 35.2052 7 28.5 7C24.0856 7 20.2072 9.28833 17.9838 12.7403L19.4373 14.1937C21.2617 11.0847 24.6382 9 28.5 9C34.299 9 39 13.701 39 19.5C39 19.5297 38.9999 19.5594 38.9996 19.5891L38.9938 20.3025L39.6664 20.5402C43.3577 21.8447 46 25.3651 46 29.5Z" fill="black"/>
</svg>
