<svg xmlns="http://www.w3.org/2000/svg" width="48" height="48" fill="none" viewBox="0 0 48 48"><path fill="#000" fill-rule="evenodd" d="M42.282 37.0384C44.5427 35.3018 46 32.5711 46 29.5c0-4.1349-2.6423-7.6553-6.3336-8.9598l-.6726-.2377.0058-.7134A9 9 0 0 0 39 19.5C39 13.701 34.299 9 28.5 9c-3.8618 0-7.2383 2.0847-9.0627 5.1937l-1.4535-1.4534C20.2072 9.2883 24.0856 7 28.5 7c6.7052 0 12.1773 5.2794 12.4862 11.9082C45.1073 20.6559 48 24.739 48 29.5c0 3.623-1.6754 6.8548-4.2938 8.9627zM17.8538 15.4387l-2.4383-2.4383-5.2084-5.2075c-.3905-.3905-1.0237-.3905-1.4142 0s-.3905 1.0237 0 1.4142l4.1761 4.1761c-3.1765.9894-5.5534 3.7922-5.9198 7.1973C2.9459 22.008 0 25.9088 0 30.5 0 36.299 4.701 41 10.5 41c.1762 0 .3475-.0007.5162-.0015.3276-.0014.6454-.0027.9709.0015L35 41.0001l.0117-.0002c.3254-.0038.6448-.0025.9721-.0012h.0016c.1685.0006.3393.0013.5146.0013 1.2325 0 2.4198-.1939 3.5329-.5529l3.76 3.76c.3905.3905 1.0237.3905 1.4142 0s.3905-1.0237 0-1.4142l-3.196-3.197-1.4882-1.4872-22.6706-22.6706zm-8.8522 5.9152c.0711-3.2328 2.5031-5.884 5.6403-6.2978l23.7546 23.7546A9.55 9.55 0 0 1 36.5 39c-.1582 0-.321-.0006-.4854-.0013h-.0004a67 67 0 0 0-1.02.0013H12.0064c-.3398-.0043-.6865-.0028-1.0226-.0014h-.0013c-.1639.0007-.3254.0014-.4825.0014C5.8056 39 2 35.1944 2 30.5c0-3.9195 2.6537-7.2217 6.2642-8.2031l.721-.196z"/></svg>