<svg xmlns="http://www.w3.org/2000/svg" width="48" height="48" fill="none" viewBox="0 0 48 48"><path fill="#000" fill-rule="evenodd" d="M34 18.3445V21c0 .5523.4477 1 1 1s1-.4477 1-1V7c0-1.2419-.7156-2.2858-1.6953-3.1033-.9852-.8221-2.3511-1.5176-3.9511-2.0823C27.1447.6818 22.7769 0 18 0S8.8553.6818 5.6464 1.8144c-1.6.5647-2.9659 1.2602-3.9511 2.0823C.7156 4.7142 0 5.7581 0 7v24c0 1.2419.7156 2.2858 1.6953 3.1033.9852.8221 2.3511 1.5176 3.951 2.0823C8.8554 37.3182 13.2232 38 18 38c2.1445 0 4.2022-.1374 6.1071-.3898C24.8938 43.4762 29.9186 48 36 48c6.6274 0 12-5.3726 12-12s-5.3726-12-12-12c-6.4955 0-11.7856 5.1608-11.9936 11.6057C22.1487 35.8598 20.1229 36 18 36c-4.6119 0-8.7442-.6613-11.688-1.7003-1.4764-.5211-2.6001-1.1185-3.3354-1.732C2.2358 31.9495 2 31.415 2 31v-4.6555c.9542.7178 2.2053 1.3325 3.6464 1.8411C8.8554 29.3182 13.223 30 18 30c1.0444 0 2.0678-.0326 3.0627-.0951.5512-.0346.97-.5095.9353-1.0607s-.5095-.97-1.0607-.9354A47 47 0 0 1 18 28c-4.6119 0-8.7442-.6613-11.688-1.7003-1.4764-.5211-2.6001-1.1185-3.3354-1.732C2.2358 23.9495 2 23.415 2 23v-4.6555c.9542.7178 2.2053 1.3325 3.6464 1.8411C8.8554 21.3182 13.223 22 18 22s9.1447-.6818 12.3536-1.8144c1.4411-.5086 2.6922-1.1233 3.6464-1.8411M2.9766 5.4323C2.2358 6.0505 2 6.585 2 7s.2358.9495.9766 1.5677c.7353.6135 1.859 1.2109 3.3354 1.732C9.2558 11.3387 13.3881 12 18 12s8.7442-.6613 11.688-1.7003c1.4764-.5211 2.6001-1.1185 3.3354-1.732C33.7642 7.9495 34 7.415 34 7s-.2358-.9495-.9766-1.5677c-.7353-.6135-1.859-1.2109-3.3354-1.732C26.7442 2.6613 22.6119 2 18 2s-8.7442.6614-11.688 1.7003c-1.4764.5211-2.6001 1.1185-3.3354 1.732M34 10.3445c-.9542.7178-2.2053 1.3325-3.6464 1.8411C27.1447 13.3182 22.7769 14 18 14s-9.1447-.6818-12.3536-1.8144C4.2054 11.677 2.9542 11.0623 2 10.3445V15c0 .415.2358.9495.9766 1.5677.7353.6135 1.859 1.2109 3.3354 1.732C9.2558 19.3387 13.3881 20 18 20s8.7442-.6613 11.688-1.7003c1.4764-.5211 2.6001-1.1185 3.3354-1.732C33.7642 15.9495 34 15.415 34 15zM36 26c-5.5228 0-10 4.4772-10 10s4.4772 10 10 10 10-4.4771 10-10-4.4771-10-10-10m-4 5c-.5523 0-1 .4477-1 1v7c0 .5523.4477 1 1 1s1-.4477 1-1v-4.5858l6.2929 6.2929c.3905.3905 1.0237.3905 1.4142 0s.3905-1.0237 0-1.4142L34.4142 33H39c.5523 0 1-.4477 1-1s-.4477-1-1-1z"/></svg>