<svg xmlns="http://www.w3.org/2000/svg" width="48" height="48" fill="none" viewBox="0 0 48 48"><path fill="currentColor" fill-rule="evenodd" d="M37.5 46c-4.687 0-8.5-3.813-8.5-8.5s3.813-8.5 8.5-8.5 8.5 3.813 8.5 8.5-3.813 8.5-8.5 8.5m0-19C31.71 27 27 31.71 27 37.5S31.71 48 37.5 48 48 43.29 48 37.5 43.29 27 37.5 27m4.012 7.902L38.914 37.5l2.598 2.598-1.414 1.414-2.598-2.598-2.598 2.598-1.414-1.414 2.598-2.598-2.598-2.598 1.414-1.414 2.598 2.598 2.598-2.598zM3.512 32h8.677c1.019 5.705 3.106 10.375 5.829 13.166C11.376 43.287 6.006 38.362 3.512 32m-.674-14h9.041c-.247 1.912-.379 3.921-.379 6s.132 4.088.379 6H2.838C2.297 28.091 2 26.08 2 24s.297-4.091.838-6m15.18-15.166c-2.723 2.791-4.81 7.461-5.829 13.166H3.512C6.006 9.638 11.376 4.713 18.018 2.834M44.488 16h-8.677c-1.019-5.705-3.106-10.375-5.829-13.166C36.624 4.713 41.994 9.638 44.488 16M25 16V2.107c3.928.82 7.298 6.403 8.744 13.893zM23 2.107V16h-8.75C15.693 8.521 19.068 2.928 23 2.107M23 30h-9.082c-.27-1.916-.418-3.929-.418-6s.148-4.084.418-6H23zm-8.75 2H23v13.893c-3.932-.821-7.307-6.414-8.75-13.893M25 45.96V18h9.077c.273 1.935.422 3.969.422 6.064l-.001.101 2.001-.064L36.5 24c0-2.079-.132-4.088-.379-6h9.041c.541 1.909.838 3.92.838 6 0 1.163-.095 2.339-.28 3.494l1.974.319C47.897 26.552 48 25.27 48 24 48 10.767 37.233 0 24 0S0 10.767 0 24s10.767 24 24 24c1.269 0 2.552-.103 3.813-.306l-.318-1.974c-.826.133-1.661.201-2.495.24" clip-rule="evenodd"/></svg>