<svg xmlns="http://www.w3.org/2000/svg" width="48" height="48" fill="none" viewBox="0 0 48 48"><path fill="currentColor" fill-rule="evenodd" d="M4 1v4H3v2h1v4H3v2h1v4H3v2h1v4H3v2h1v4H3v2h1v4H3v2h1v4H3v2h1v4h37v-4h3V1zm2 42h1v-2H6v-4h1v-2H6v-4h1v-2H6v-4h1v-2H6v-4h1v-2H6v-4h1v-2H6V7h1V5H6V3h3v42H6zm33 2H11V3h28zm3-4h-1v-6h1zm0-8h-1v-6h1zm0-8h-1v-6h1zm0-8h-1v-6h1zm-1-8V3h1v6zM28 31v2h-6v-2zm-10 4h14v2H18zm15-8v-2.0332c.0431-1.812-1.1227-3.4321-2.8545-3.9668l-1.3408-.3701a2.144 2.144 0 0 1-1.0923-.9827A7.38 7.38 0 0 0 29 15.2002 3.8452 3.8452 0 0 0 25 11a3.8453 3.8453 0 0 0-4 4.2002 7.358 7.358 0 0 0 1.3018 4.4644 2.218 2.218 0 0 1-1.1075.9653L19.8545 21c-1.7318.5347-2.8976 2.1548-2.8545 3.9668V27zm-8-14c.9121 0 2 .3818 2 2.2002C27 16.6113 26.5791 19 25 19s-2-2.3887-2-3.7998C23 13.3818 24.0879 13 25 13m-6 11.9668a2.051 2.051 0 0 1 1.3877-2.0391l1.3398-.3701a4.085 4.085 0 0 0 2.1944-1.7297 3.458 3.458 0 0 0 2.1767-.0073 4.012 4.012 0 0 0 2.1739 1.737l1.3398.3701A2.051 2.051 0 0 1 31 24.9668L19 25z" clip-rule="evenodd"/></svg>