<svg xmlns="http://www.w3.org/2000/svg" width="48" height="48" fill="none" viewBox="0 0 48 48"><path fill="#000" fill-rule="evenodd" d="M23.2929.2929c.3905-.3905 1.0237-.3905 1.4142 0l5 5c.3905.3905.3905 1.0237 0 1.4142s-1.0237.3905-1.4142 0L25 3.4142V13c0 .5523-.4477 1-1 1s-1-.4477-1-1V3.4142l-3.2929 3.2929c-.3905.3905-1.0237.3905-1.4142 0s-.3905-1.0237 0-1.4142zm14.5 12.5c-.3905.3905-.3905 1.0237 0 1.4142s1.0237.3905 1.4142 0L46 7.4142V12c0 .5523.4477 1 1 1s1-.4477 1-1V4.997a.996.996 0 0 0-.2864-.6975l-.013-.0131A.997.997 0 0 0 47.003 4H40c-.5523 0-1 .4477-1 1s.4477 1 1 1h4.5858zm-27.5858 0c.3905.3905.3905 1.0237 0 1.4142s-1.0237.3905-1.4142 0L2 7.4142V12c0 .5523-.4477 1-1 1s-1-.4477-1-1V5.0002a.998.998 0 0 1 .2884-.7027l.009-.0092A.996.996 0 0 1 1 4h7c.5523 0 1 .4477 1 1s-.4477 1-1 1H3.4142zM0 20c0-1.6569 1.3431-3 3-3h42c1.6569 0 3 1.3431 3 3v8c0 1.6569-1.3431 3-3 3H3c-1.6569 0-3-1.3431-3-3zm3-1h6v10H3c-.5523 0-1-.4477-1-1v-8c0-.5523.4477-1 1-1m8 0h7v10h-7zm9 0v10h7V19zm16 0v10h-7V19zm2 10h7c.5523 0 1-.4477 1-1v-8c0-.5523-.4477-1-1-1h-7zm-.2071 4.7929c-.3905.3905-.3905 1.0237 0 1.4142L44.5858 42H40c-.5523 0-1 .4477-1 1s.4477 1 1 1h7.003a.997.997 0 0 0 .6976-.2864l.013-.013A.996.996 0 0 0 48 43.003V36c0-.5523-.4477-1-1-1s-1 .4477-1 1v4.5858l-6.7929-6.7929c-.3905-.3905-1.0237-.3905-1.4142 0m-27.5858 0c.3905.3905.3905 1.0237 0 1.4142L3.4142 42H8c.5523 0 1 .4477 1 1s-.4477 1-1 1H.997a.997.997 0 0 1-.702-.2908l-.0042-.0042A.997.997 0 0 1 0 42.9998V36c0-.5523.4477-1 1-1s1 .4477 1 1v4.5858l6.7929-6.7929c.3905-.3905 1.0237-.3905 1.4142 0M25 44.5858V35c0-.5523-.4477-1-1-1s-1 .4477-1 1v9.5858l-3.2929-3.2929c-.3905-.3905-1.0237-.3905-1.4142 0s-.3905 1.0237 0 1.4142l5 5c.3905.3905 1.0237.3905 1.4142 0l5-5c.3905-.3905.3905-1.0237 0-1.4142s-1.0237-.3905-1.4142 0z"/></svg>