<svg xmlns="http://www.w3.org/2000/svg" width="48" height="48" fill="none" viewBox="0 0 48 48"><path fill="#000" fill-rule="evenodd" d="M11 0C8.2386 0 6 2.2386 6 5v12c0 .5523.4477 1 1 1s1-.4477 1-1V5c0-1.6569 1.3431-3 3-3h17.9688v8.0313c0 2.2091 1.7908 4 4 4H41V20c0 .5523.4477 1 1 1s1-.4477 1-1v-6.4056a5 5 0 0 0-1.4645-3.5356l-8.5943-8.5943A5 5 0 0 0 29.4056 0zm29.5606 12.0313a3 3 0 0 0-.4393-.5583L31.527 2.8787a3 3 0 0 0-.5582-.4393v7.5919c0 1.1045.8954 2 2 2zm-26.2677 3.2616c.3905-.3905 1.0237-.3905 1.4142 0l5 5c.3905.3905.3905 1.0237 0 1.4142l-5 5c-.3905.3905-1.0237.3905-1.4142 0s-.3905-1.0237 0-1.4142L17.5858 22H1c-.5523 0-1-.4477-1-1s.4477-1 1-1h16.5858l-3.2929-3.2929c-.3905-.3905-.3905-1.0237 0-1.4142M44.5858 28l-3.2929-3.2929c-.3905-.3905-.3905-1.0237 0-1.4142s1.0237-.3905 1.4142 0l4.9994 4.9994c.3905.3905.3911 1.0243.0006 1.4148l-5 5c-.3905.3905-1.0237.3905-1.4142 0s-.3905-1.0237 0-1.4142L44.5858 30H37a1 1 0 0 1-.0617-.0019C36.4471 33.9454 33.0803 37 29 37c-4.4183 0-8-3.5817-8-8s3.5817-8 8-8c4.0803 0 7.4471 3.0547 7.9383 7.0019A1 1 0 0 1 37 28zM29 23c-3.3137 0-6 2.6863-6 6s2.6863 6 6 6 6-2.6863 6-6-2.6863-6-6-6M8 25c0-.5523-.4477-1-1-1s-1 .4477-1 1v8c0 .5523.4477 1 1 1s1-.4477 1-1zm22 0c0-.5523-.4477-1-1-1s-1 .4477-1 1v4c0 .5523.4477 1 1 1h3c.5523 0 1-.4477 1-1s-.4477-1-1-1h-2zm-15.7071 6.2929c.3905-.3905 1.0237-.3905 1.4142 0l4.9994 4.9994c.3905.3905.3911 1.0243.0006 1.4148l-5 5c-.3905.3905-1.0237.3905-1.4142 0s-.3905-1.0237 0-1.4142L17.5858 38H1c-.5523 0-1-.4477-1-1s.4477-1 1-1h16.5858l-3.2929-3.2929c-.3905-.3905-.3905-1.0237 0-1.4142M41 38v5c0 1.6569-1.3431 3-3 3H11c-1.6569 0-3-1.3431-3-3v-2c0-.5523-.4477-1-1-1s-1 .4477-1 1v2c0 2.7614 2.2386 5 5 5h27c2.7614 0 5-2.2386 5-5v-5c0-.5523-.4477-1-1-1s-1 .4477-1 1"/></svg>