<svg xmlns="http://www.w3.org/2000/svg" width="48" height="48" fill="none" viewBox="0 0 48 48"><path fill="#000" fill-rule="evenodd" d="M1 0C.4477 0 0 .4477 0 1s.4477 1 1 1c24.8528 0 45 20.1472 45 45 0 .5523.4477 1 1 1s1-.4477 1-1C48 21.0426 26.9574 0 1 0M0 12c0-.5523.4477-1 1-1 19.8823 0 36 16.1178 36 36 0 .5523-.4477 1-1 1s-1-.4477-1-1c0-18.7777-15.2223-34-34-34-.5523 0-1-.4477-1-1m1 10c-.5523 0-1 .4477-1 1s.4477 1 1 1c12.7025 0 23 10.2975 23 23 0 .5523.4477 1 1 1s1-.4477 1-1c0-13.8071-11.1929-25-25-25m6 12c-3.866 0-7 3.134-7 7s3.134 7 7 7 7-3.134 7-7-3.134-7-7-7m-5 7c0-2.7614 2.2386-5 5-5s5 2.2386 5 5-2.2386 5-5 5-5-2.2386-5-5"/></svg>