<svg xmlns="http://www.w3.org/2000/svg" width="48" height="48" fill="none" viewBox="0 0 48 48"><path fill="currentColor" fill-rule="evenodd" d="M35.41 0H5v48h38V7.59zM36 3.41 39.59 7H36zM7 46V2h27v7h7v37zm4-16c0 1.6569 1.3431 3 3 3h6v1a2 2 0 0 0 1 1.72V42h2v-6h2v6h2v-6.28A2 2 0 0 0 28 34v-1h6c1.6569 0 3-1.3431 3-3v-6H11zm15 4h-4v-1h4zm8-3H14c-.5523 0-1-.4477-1-1v-1h22v1c0 .5523-.4477 1-1 1m1-5v1H13v-1zm-22-4h-2v-7h2zm0-8h-2v-3h2zm4 8h-2v-2h2zm0-3h-2v-7h2zm4 3h-2v-4h2zm0-5h-2v-3h2zm12 5h-2v-2h2zm0-3h-2v-6h2zm-4 3h-2v-3h2zm0-4h-2v-2h2zm-4 4h-2v-7h2zm0-8h-2v-2h2zm10 0h2v8h-2zm0-3h2v2h-2z" clip-rule="evenodd"/></svg>