<svg width="48" height="48" viewBox="0 0 48 48" fill="none" xmlns="http://www.w3.org/2000/svg">
<g clip-path="url(#clip0_8212_3073)">
<path fill-rule="evenodd" clip-rule="evenodd" d="M9 1C9 0.447715 8.55229 0 8 0C7.44772 0 7 0.447715 7 1V2.07089C3.60771 2.55612 1 5.47353 1 9V15C0.447715 15 0 15.4477 0 16C0 16.5523 0.447715 17 1 17H15C15.5523 17 16 16.5523 16 16C16 15.4477 15.5523 15 15 15V9C15 5.47353 12.3923 2.55612 9 2.07089V1ZM13 9V15H3V9C3 6.23858 5.23858 4 8 4C10.7614 4 13 6.23858 13 9Z" fill="black"/>
<path d="M31 7C30.4477 7 30 7.44772 30 8V9C30 9.55228 30.4477 10 31 10H32C32.5523 10 33 9.55229 33 9V8C33 7.44772 32.5523 7 32 7H31Z" fill="black"/>
<path d="M31 22C30.4477 22 30 22.4477 30 23V24C30 24.5523 30.4477 25 31 25H32C32.5523 25 33 24.5523 33 24V23C33 22.4477 32.5523 22 32 22H31Z" fill="black"/>
<path d="M35 8C35 7.44772 35.4477 7 36 7H37C37.5523 7 38 7.44772 38 8V9C38 9.55229 37.5523 10 37 10H36C35.4477 10 35 9.55228 35 9V8Z" fill="black"/>
<path d="M36 22C35.4477 22 35 22.4477 35 23V24C35 24.5523 35.4477 25 36 25H37C37.5523 25 38 24.5523 38 24V23C38 22.4477 37.5523 22 37 22H36Z" fill="black"/>
<path d="M40 8C40 7.44772 40.4477 7 41 7H42C42.5523 7 43 7.44772 43 8V9C43 9.55229 42.5523 10 42 10H41C40.4477 10 40 9.55228 40 9V8Z" fill="black"/>
<path d="M41 22C40.4477 22 40 22.4477 40 23V24C40 24.5523 40.4477 25 41 25H42C42.5523 25 43 24.5523 43 24V23C43 22.4477 42.5523 22 42 22H41Z" fill="black"/>
<path d="M17 34C17.0173 34 17.0344 34.0004 17.0515 34.0013C17.1683 34.0072 17.2799 34.0332 17.3828 34.0759C17.5007 34.1247 17.6112 34.197 17.7071 34.2929L22.7071 39.2929C23.0976 39.6834 23.0976 40.3166 22.7071 40.7071C22.3166 41.0976 21.6834 41.0976 21.2929 40.7071L18 37.4142V47C18 47.5523 17.5523 48 17 48C16.4477 48 16 47.5523 16 47V37.4142L12.7071 40.7071C12.3166 41.0976 11.6834 41.0976 11.2929 40.7071C10.9024 40.3166 10.9024 39.6834 11.2929 39.2929L16.2929 34.2929C16.3888 34.197 16.4993 34.1247 16.6172 34.0759C16.7351 34.027 16.8644 34 17 34Z" fill="black"/>
<path d="M33.0515 47.9987C33.0344 47.9996 33.0173 48 33 48C32.8644 48 32.7351 47.973 32.6172 47.9241C32.4993 47.8753 32.3888 47.803 32.2929 47.7071L27.2929 42.7071C26.9024 42.3166 26.9024 41.6834 27.2929 41.2929C27.6834 40.9024 28.3166 40.9024 28.7071 41.2929L32 44.5858V35C32 34.4477 32.4477 34 33 34C33.5523 34 34 34.4477 34 35V44.5858L37.2929 41.2929C37.6834 40.9024 38.3166 40.9024 38.7071 41.2929C39.0976 41.6834 39.0976 42.3166 38.7071 42.7071L33.7071 47.7071C33.6112 47.803 33.5007 47.8753 33.3828 47.9241C33.2799 47.9668 33.1683 47.9928 33.0515 47.9987Z" fill="black"/>
<path d="M16 0C15.4477 0 15 0.447715 15 1C15 1.55228 15.4477 2 16 2H44C45.1046 2 46 2.89543 46 4V13C46 14.1046 45.1046 15 44 15H20C19.4477 15 19 15.4477 19 16C19 16.5523 19.4477 17 20 17H44C45.1046 17 46 17.8954 46 19V28C46 29.1046 45.1046 30 44 30H8C6.89543 30 6 29.1046 6 28V25C6 24.4477 5.55228 24 5 24C4.44772 24 4 24.4477 4 25V28C4 30.2091 5.79086 32 8 32H44C46.2091 32 48 30.2091 48 28V19C48 17.8053 47.4762 16.7329 46.6458 16C47.4762 15.2671 48 14.1947 48 13V4C48 1.79086 46.2091 0 44 0H16Z" fill="black"/>
<path d="M8 20C9.10457 20 10 19.1046 10 18H6C6 19.1046 6.89543 20 8 20Z" fill="black"/>
</g>
<defs>
<clipPath id="clip0_8212_3073">
<rect width="48" height="48" fill="white"/>
</clipPath>
</defs>
</svg>
