<svg xmlns="http://www.w3.org/2000/svg" width="48" height="48" fill="none" viewBox="0 0 48 48"><path fill="#000" fill-rule="evenodd" d="M16 0c-.5523 0-1 .4477-1 1s.4477 1 1 1h28c1.1046 0 2 .8954 2 2v9c0 1.1046-.8954 2-2 2H20c-.5523 0-1 .4477-1 1s.4477 1 1 1h24c1.1046 0 2 .8954 2 2v9c0 1.1046-.8954 2-2 2H8c-1.1046 0-2-.8954-2-2v-3c0-.5523-.4477-1-1-1s-1 .4477-1 1v3c0 2.2091 1.7909 4 4 4h36c2.2091 0 4-1.7909 4-4v-9c0-1.1947-.5238-2.2671-1.3542-3C47.4762 15.2671 48 14.1947 48 13V4c0-2.2091-1.7909-4-4-4zM8 0c.5523 0 1 .4477 1 1v1.0709C12.3923 2.556 15 5.4735 15 9v6c.5523 0 1 .4477 1 1s-.4477 1-1 1H1c-.5523 0-1-.4477-1-1s.4477-1 1-1V9c0-3.5265 2.6077-6.4439 6-6.9291V1c0-.5523.4477-1 1-1m5 15V9c0-2.7614-2.2386-5-5-5S3 6.2386 3 9v6zm17-7c0-.5523.4477-1 1-1h1c.5523 0 1 .4477 1 1v1c0 .5523-.4477 1-1 1h-1c-.5523 0-1-.4477-1-1zm5 0c0-.5523.4477-1 1-1h1c.5523 0 1 .4477 1 1v1c0 .5523-.4477 1-1 1h-1c-.5523 0-1-.4477-1-1zm5 0c0-.5523.4477-1 1-1h1c.5523 0 1 .4477 1 1v1c0 .5523-.4477 1-1 1h-1c-.5523 0-1-.4477-1-1zM10 18c0 1.1046-.8954 2-2 2s-2-.8954-2-2zm21 4c-.5523 0-1 .4477-1 1v1c0 .5523.4477 1 1 1h1c.5523 0 1-.4477 1-1v-1c0-.5523-.4477-1-1-1zm5 0c-.5523 0-1 .4477-1 1v1c0 .5523.4477 1 1 1h1c.5523 0 1-.4477 1-1v-1c0-.5523-.4477-1-1-1zm5 0c-.5523 0-1 .4477-1 1v1c0 .5523.4477 1 1 1h1c.5523 0 1-.4477 1-1v-1c0-.5523-.4477-1-1-1zM17.0515 34.0013a.997.997 0 0 0-.7586.2916l-5 5c-.3905.3905-.3905 1.0237 0 1.4142s1.0237.3905 1.4142 0L16 37.4142V47c0 .5523.4477 1 1 1s1-.4477 1-1v-9.5858l3.2929 3.2929c.3905.3905 1.0237.3905 1.4142 0s.3905-1.0237 0-1.4142l-5-5a.997.997 0 0 0-.6556-.2916M33 48a.99.99 0 0 0 .3828-.0759 1 1 0 0 0 .3243-.217l5-5c.3905-.3905.3905-1.0237 0-1.4142s-1.0237-.3905-1.4142 0L34 44.5858V35c0-.5523-.4477-1-1-1s-1 .4477-1 1v9.5858l-3.2929-3.2929c-.3905-.3905-1.0237-.3905-1.4142 0s-.3905 1.0237 0 1.4142l5 5A.997.997 0 0 0 33 48"/></svg>