<svg xmlns="http://www.w3.org/2000/svg" width="48" height="48" fill="none" viewBox="0 0 48 48"><path fill="#000" fill-rule="evenodd" d="M4 7c0-1.6569 1.3431-3 3-3h12c2.087 0 3.9251 1.0655 5 2.6822C25.0749 5.0655 26.913 4 29 4h12c1.6569 0 3 1.3431 3 3v1h1c1.6569 0 3 1.3431 3 3v30c0 1.6569-1.3431 3-3 3H3c-1.6569 0-3-1.3431-3-3V11c0-1.6569 1.3431-3 3-3h1zm19 3v25.4293C22.0981 34.5452 20.8627 34 19.5 34H6V7c0-.5523.4477-1 1-1h12c2.2091 0 4 1.7909 4 4m19 24H28.5c-1.3627 0-2.5981.5452-3.5 1.4293V10c0-2.2091 1.7909-4 4-4h12c.5523 0 1 .4477 1 1zm2 3V10h1c.5523 0 1 .4477 1 1v30c0 .5523-.4477 1-1 1H3c-.5523 0-1-.4477-1-1V11c0-.5523.4477-1 1-1h1v27c0 1.6569 1.3431 3 3 3h34c1.6569 0 3-1.3431 3-3M8 17c0-.5523.4477-1 1-1h11c.5523 0 1 .4477 1 1s-.4477 1-1 1H9c-.5523 0-1-.4477-1-1m19 0c0-.5523.4477-1 1-1h11c.5523 0 1 .4477 1 1s-.4477 1-1 1H28c-.5523 0-1-.4477-1-1M8 21c0-.5523.4477-1 1-1h11c.5523 0 1 .4477 1 1s-.4477 1-1 1H9c-.5523 0-1-.4477-1-1m19 0c0-.5523.4477-1 1-1h11c.5523 0 1 .4477 1 1s-.4477 1-1 1H28c-.5523 0-1-.4477-1-1M8 25c0-.5523.4477-1 1-1h11c.5523 0 1 .4477 1 1s-.4477 1-1 1H9c-.5523 0-1-.4477-1-1m19 0c0-.5523.4477-1 1-1h11c.5523 0 1 .4477 1 1s-.4477 1-1 1H28c-.5523 0-1-.4477-1-1m-7.5 11H6v1c0 .5523.4477 1 1 1h15.3293c-.4118-1.1652-1.5231-2-2.8293-2m6.1707 2H41c.5523 0 1-.4477 1-1v-1H28.5c-1.3062 0-2.4175.8348-2.8293 2"/></svg>