<svg xmlns="http://www.w3.org/2000/svg" width="48" height="48" fill="none" viewBox="0 0 48 48"><path fill="currentColor" fill-rule="evenodd" d="M41.0001 26.2362v-1.295c.617-.631 1-1.491 1-2.441 0-1.93-1.57-3.5-3.5-3.5s-3.5 1.57-3.5 3.5c0 .95.383 1.81 1 2.441v1.295c-1.22-.821-2-2.212-2-3.736 0-2.482 2.019-4.5 4.5-4.5s4.5 2.018 4.5 4.5c0 1.524-.78 2.915-2 3.736m-11 19.764h-7c-4.963 0-9-4.037-9-9v-8h-1.294c-2.969 0-5.461-2.128-5.927-5.06l-.584-3.683.984-.164.575 3.679c.383 2.449 2.46 4.228 4.939 4.228h3.614c2.479 0 4.556-1.779 4.939-4.228l.575-3.679.984.164-.584 3.683c-.466 2.932-2.958 5.06-5.927 5.06h-1.294v8c0 4.411 3.589 8 8 8h7c4.411 0 8-3.589 8-8v-11.051c.165.024.329.051.5.051s.335-.027.5-.051v11.051c0 4.963-4.037 9-9 9m8.5-22c-.827 0-1.5-.673-1.5-1.5s.673-1.5 1.5-1.5 1.5.673 1.5 1.5-.673 1.5-1.5 1.5m-30.5-21h2l.002 1h-2.002zm11 1v-1h2l.002 1zm26 18.5c0-3.584-2.916-6.5-6.5-6.5s-6.5 2.916-6.5 6.5c0 2.632 1.616 4.982 4 5.982v8.518c0 3.308-2.691 6-6 6h-7c-3.309 0-6-2.692-6-6v-6.031c3.642-.314 6.612-3.041 7.195-6.714l.897-5.645-1.473-.245 1.98-11.872a2.999 2.999 0 0 0-.67-2.433c-.492-.58-1.183-.929-1.929-1.021v-.039c0-1.103-.897-2-2-2h-2c-1.103 0-2 .897-2 2v1c0 1.102.897 2 2 2h2c.73 0 1.363-.398 1.713-.985.267.021.514.131.689.338.194.229.273.517.224.812l-1.98 11.872-1.489-.248-.887 5.675c-.23 1.469-1.476 2.536-2.963 2.536h-3.614c-1.487 0-2.733-1.067-2.963-2.536l-.887-5.675-1.489.248-1.98-11.872c-.049-.295.03-.583.224-.812.175-.207.422-.317.689-.338.35.587.983.985 1.713.985h2c1.103 0 2-.898 2-2v-1c0-1.103-.897-2-2-2h-2c-1.103 0-2 .897-2 2v.039c-.746.092-1.437.441-1.929 1.021a2.999 2.999 0 0 0-.67 2.433l1.98 11.872-1.473.245.897 5.645c.583 3.673 3.553 6.4 7.195 6.714v6.031c0 6.065 4.935 11 11 11h7c6.065 0 11-4.935 11-11v-8.518c2.384-1 4-3.35 4-5.982" clip-rule="evenodd"/></svg>