<svg width="48" height="48" viewBox="0 0 48 48" fill="none" xmlns="http://www.w3.org/2000/svg">
<g clip-path="url(#clip0_8173_2802)">
<path fill-rule="evenodd" clip-rule="evenodd" d="M6 5C6 2.23857 8.23858 0 11 0H29.4056C30.7317 0 32.0035 0.526784 32.9412 1.46447L41.5355 10.0588C42.4732 10.9965 43 12.2683 43 13.5944V20C43 20.5523 42.5523 21 42 21C41.4477 21 41 20.5523 41 20V14.0312H32.9688C30.7596 14.0312 28.9688 12.2404 28.9688 10.0312V2H11C9.34315 2 8 3.34315 8 5V17C8 17.5523 7.55228 18 7 18C6.44772 18 6 17.5523 6 17V5ZM40.1213 11.473C40.2907 11.6425 40.4378 11.8301 40.5606 12.0312H32.9688C31.8642 12.0312 30.9688 11.1358 30.9688 10.0312V2.43938C31.1699 2.56219 31.3575 2.70926 31.527 2.87868L40.1213 11.473Z" fill="black"/>
<path d="M7 24C7.55228 24 8 24.4477 8 25V33C8 33.5523 7.55228 34 7 34C6.44772 34 6 33.5523 6 33V25C6 24.4477 6.44772 24 7 24Z" fill="black"/>
<path d="M41 43V38C41 37.4477 41.4477 37 42 37C42.5523 37 43 37.4477 43 38V43C43 45.7614 40.7614 48 38 48H11C8.23858 48 6 45.7614 6 43V41C6 40.4477 6.44772 40 7 40C7.55228 40 8 40.4477 8 41V43C8 44.6569 9.34315 46 11 46H38C39.6569 46 41 44.6569 41 43Z" fill="black"/>
<path d="M25 20C24.4477 20 24 20.4477 24 21C24 21.5523 24.4477 22 25 22H31C31.5523 22 32 22.4477 32 23V35C32 35.5523 31.5523 36 31 36H25C24.4477 36 24 36.4477 24 37C24 37.5523 24.4477 38 25 38H31C32.6569 38 34 36.6569 34 35V30H44.5858L41.2929 33.2929C40.9024 33.6834 40.9024 34.3166 41.2929 34.7071C41.6834 35.0976 42.3166 35.0976 42.7071 34.7071L47.7071 29.7071C48.0976 29.3166 48.0976 28.6834 47.7071 28.2929L42.7071 23.2929C42.3166 22.9024 41.6834 22.9024 41.2929 23.2929C40.9024 23.6834 40.9024 24.3166 41.2929 24.7071L44.5858 28H34V23C34 21.3431 32.6569 20 31 20H25Z" fill="black"/>
<path d="M15.7071 15.2929C15.3166 14.9024 14.6834 14.9024 14.2929 15.2929C13.9024 15.6834 13.9024 16.3166 14.2929 16.7071L17.5858 20H1C0.447715 20 0 20.4477 0 21C0 21.5523 0.447715 22 1 22H17.5858L14.2929 25.2929C13.9024 25.6834 13.9024 26.3166 14.2929 26.7071C14.6834 27.0976 15.3166 27.0976 15.7071 26.7071L20.7071 21.7071C21.0976 21.3166 21.0976 20.6834 20.7071 20.2929L15.7071 15.2929Z" fill="black"/>
<path d="M14.2929 31.2929C14.6834 30.9024 15.3166 30.9024 15.7071 31.2929L20.7065 36.2923C21.0482 36.634 21.0915 37.1621 20.8352 37.5502C20.7986 37.6057 20.7559 37.6583 20.7071 37.7071L15.7071 42.7071C15.3166 43.0976 14.6834 43.0976 14.2929 42.7071C13.9024 42.3166 13.9024 41.6834 14.2929 41.2929L17.5858 38H1C0.447715 38 0 37.5523 0 37C0 36.4477 0.447715 36 1 36H17.5858L14.2929 32.7071C13.9024 32.3166 13.9024 31.6834 14.2929 31.2929Z" fill="black"/>
</g>
<defs>
<clipPath id="clip0_8173_2802">
<rect width="48" height="48" fill="white"/>
</clipPath>
</defs>
</svg>
