<svg xmlns="http://www.w3.org/2000/svg" width="48" height="48" fill="none" viewBox="0 0 48 48"><path fill="#000" fill-rule="evenodd" d="M25 5c0-.5523-.4477-1-1-1s-1 .4477-1 1v26.5858l-8.2929-8.2929c-.3905-.3905-1.0237-.3905-1.4142 0s-.3905 1.0237 0 1.4142L22.5858 34c.781.7811 2.0474.781 2.8284 0l9.2929-9.2929c.3905-.3905.3905-1.0237 0-1.4142s-1.0237-.3905-1.4142 0L25 31.5858zM6 31c0-.5523-.4477-1-1-1s-1 .4477-1 1v8c0 2.2091 1.7909 4 4 4h32c2.2091 0 4-1.7909 4-4v-8c0-.5523-.4477-1-1-1s-1 .4477-1 1v8c0 1.1046-.8954 2-2 2H8c-1.1046 0-2-.8954-2-2z"/></svg>