<svg width="48" height="48" viewBox="0 0 48 48" fill="none" xmlns="http://www.w3.org/2000/svg">
<path d="M24 4C24.5523 4 25 4.44772 25 5V31.5858L33.2929 23.2929C33.6834 22.9024 34.3166 22.9024 34.7071 23.2929C35.0976 23.6834 35.0976 24.3166 34.7071 24.7071L25.4142 34C24.6332 34.781 23.3668 34.7811 22.5858 34L13.2929 24.7071C12.9024 24.3166 12.9024 23.6834 13.2929 23.2929C13.6834 22.9024 14.3166 22.9024 14.7071 23.2929L23 31.5858V5C23 4.44772 23.4477 4 24 4Z" fill="black"/>
<path d="M5 30C5.55228 30 6 30.4477 6 31V39C6 40.1046 6.89543 41 8 41H40C41.1046 41 42 40.1046 42 39V31C42 30.4477 42.4477 30 43 30C43.5523 30 44 30.4477 44 31V39C44 41.2091 42.2091 43 40 43H8C5.79086 43 4 41.2091 4 39V31C4 30.4477 4.44772 30 5 30Z" fill="black"/>
</svg>
