<svg xmlns="http://www.w3.org/2000/svg" width="48" height="48" fill="none" viewBox="0 0 48 48"><path fill="currentColor" d="M24 4c.5523 0 1 .4477 1 1v26.5858l8.2929-8.2929c.3905-.3905 1.0237-.3905 1.4142 0 .3906.3905.3906 1.0237 0 1.4142L25.4142 34c-.781.781-2.0473.781-2.8284 0l-9.2929-9.2929c-.3905-.3905-.3905-1.0237 0-1.4142s1.0237-.3905 1.4142 0L23 31.5858V5c0-.5523.4477-1 1-1"/><path fill="currentColor" d="M6 31.5c0-.5523-.4477-1-1-1s-1 .4477-1 1V39c0 2.2091 1.7909 4 4 4h32c2.2091 0 4-1.7909 4-4v-7.5c0-.5523-.4477-1-1-1s-1 .4477-1 1V39c0 1.1046-.8954 2-2 2H8c-1.1046 0-2-.8954-2-2z"/></svg>