<svg xmlns="http://www.w3.org/2000/svg" width="48" height="48" fill="none" viewBox="0 0 48 48"><path fill="#000" fill-rule="evenodd" d="M34.25 0c2.6233.0001 4.7499 2.1267 4.75 4.75v6.5c-.0001 1.525-.7198 2.8809-1.8369 3.75 1.1171.8691 1.8368 2.225 1.8369 3.75V25h-2v-6.25c-.0001-1.5187-1.2313-2.7499-2.75-2.75H16.1211A4.726 4.726 0 0 1 17 18.75v6.5c-.0001 2.6233-2.1267 4.7499-4.75 4.75H7v1c0 .5523-.4477 1-1 1s-1-.4477-1-1v-1h-.25C2.1267 29.9999.0001 27.8733 0 25.25v-6.5c0-1.5247.7191-2.8809 1.836-3.75C.719 14.1309 0 12.7747 0 11.25v-6.5C.0001 2.1267 2.1267.0001 4.75 0zM4.75 2C3.2313 2.0001 2.0001 3.2313 2 4.75v6.5c.0001 1.5187 1.2313 2.7499 2.75 2.75h7.5c1.5187-.0001 2.7499-1.2313 2.75-2.75v-6.5c-.0001-1.5187-1.2313-2.7499-2.75-2.75zm11.3711 0A4.726 4.726 0 0 1 17 4.75v6.5a4.726 4.726 0 0 1-.8789 2.75H34.25c1.5187-.0001 2.7499-1.2313 2.75-2.75v-6.5c-.0001-1.5187-1.2313-2.7499-2.75-2.75zM6 8c0-.5523-.4477-1-1-1s-1 .4477-1 1 .4477 1 1 1 1-.4477 1-1m22 0c.5523 0 1 .4477 1 1v2c0 .5523-.4477 1-1 1s-1-.4477-1-1V9c0-.5523.4477-1 1-1m3 0c.5523 0 1 .4477 1 1v2c0 .5523-.4477 1-1 1s-1-.4477-1-1V9c0-.5523.4477-1 1-1m3 0c.5523 0 1 .4477 1 1v2c0 .5523-.4477 1-1 1s-1-.4477-1-1V9c0-.5523.4477-1 1-1M6 11c0-.5523-.4477-1-1-1s-1 .4477-1 1 .4477 1 1 1 1-.4477 1-1m-1.25 5c-1.5187.0001-2.7499 1.2313-2.75 2.75v6.5c.0001 1.5187 1.2313 2.7499 2.75 2.75h7.5c1.5187-.0001 2.7499-1.2313 2.75-2.75v-6.5c-.0001-1.5187-1.2313-2.7499-2.75-2.75zM6 22c0-.5523-.4477-1-1-1s-1 .4477-1 1 .4477 1 1 1 1-.4477 1-1m22 0c.5523 0 1 .4477 1 1v2h-2v-2c0-.5523.4477-1 1-1m3 0c.5523 0 1 .4477 1 1v2h-2v-2c0-.5523.4477-1 1-1m3 0c.5523 0 1 .4477 1 1v2h-2v-2c0-.5523.4477-1 1-1M6 25c0-.5523-.4477-1-1-1s-1 .4477-1 1 .4477 1 1 1 1-.4477 1-1m37.25 2c2.6234 0 4.75 2.1266 4.75 4.75v11.5c0 2.6234-2.1266 4.75-4.75 4.75h-20.5C20.1266 48 18 45.8734 18 43.25v-11.5c0-2.6234 2.1266-4.75 4.75-4.75zm-20.5 2c-.3512 0-.6863.0675-.9951.1875L32.21 37.7178a1.25 1.25 0 0 0 1.58 0l10.4541-8.5303A2.74 2.74 0 0 0 43.25 29zm22.9756 1.5586-10.6709 8.709c-1.1959.9756-2.9135.9756-4.1094 0l-10.6719-8.709A2.74 2.74 0 0 0 20 31.75v11.5c0 .3926.0832.7656.2314 1.1035l6.1866-6.1865 1.5576 1.2705-6.3301 6.3301A2.74 2.74 0 0 0 22.75 46h20.5a2.74 2.74 0 0 0 1.1035-.2324l-6.3281-6.3281 1.5566-1.2715 6.1856 6.1855A2.74 2.74 0 0 0 46 43.25v-11.5c0-.4274-.1004-.8306-.2744-1.1914"/></svg>