<svg width="48" height="48" viewBox="0 0 48 48" fill="none" xmlns="http://www.w3.org/2000/svg">
<path fill-rule="evenodd" clip-rule="evenodd" d="M10 0C7.23858 0 5 2.23857 5 5V43C5 45.7614 7.23858 48 10 48H37C39.7614 48 42 45.7614 42 43V39C42 38.4477 41.5523 38 41 38C40.4477 38 40 38.4477 40 39V43C40 44.6569 38.6569 46 37 46H10C8.34315 46 7 44.6569 7 43V5C7 3.34315 8.34315 2 10 2H29V9C29 11.2091 30.7909 13 33 13H40V17C40 17.5523 40.4477 18 41 18C41.5523 18 42 17.5523 42 17V12.6569C42 12.5047 41.9931 12.3533 41.9794 12.203C41.9929 12.1375 42 12.0696 42 12C42 11.8156 41.9501 11.6429 41.8631 11.4946C41.65 10.6033 41.1941 9.77991 40.5355 9.12132L32.8787 1.46447C31.941 0.526784 30.6692 0 29.3431 0H10ZM31 9V2.49902C31.1659 2.60893 31.3216 2.73586 31.4645 2.87868L39.1213 10.5355C39.2641 10.6784 39.3911 10.8341 39.501 11H33C31.8954 11 31 10.1046 31 9Z" fill="black"/>
<path fill-rule="evenodd" clip-rule="evenodd" d="M9 13C9 11.3431 10.3431 10 12 10H14C15.6569 10 17 11.3431 17 13V15C17 16.6569 15.6569 18 14 18H12C10.3431 18 9 16.6569 9 15V13ZM12 12C11.4477 12 11 12.4477 11 13V15C11 15.5523 11.4477 16 12 16H14C14.5523 16 15 15.5523 15 15V13C15 12.4477 14.5523 12 14 12H12Z" fill="black"/>
<path d="M26 25C25.4477 25 25 25.4477 25 26C25 26.5523 25.4477 27 26 27H32C32.5523 27 33 26.5523 33 26C33 25.4477 32.5523 25 32 25H26Z" fill="black"/>
<path d="M26 29C25.4477 29 25 29.4477 25 30C25 30.5523 25.4477 31 26 31H36C36.5523 31 37 30.5523 37 30C37 29.4477 36.5523 29 36 29H26Z" fill="black"/>
<path d="M19 24C19.5523 24 20 24.4477 20 25V27H22C22.5523 27 23 27.4477 23 28C23 28.5523 22.5523 29 22 29H20V31C20 31.5523 19.5523 32 19 32C18.4477 32 18 31.5523 18 31V29H16C15.4477 29 15 28.5523 15 28C15 27.4477 15.4477 27 16 27H18V25C18 24.4477 18.4477 24 19 24Z" fill="black"/>
<path fill-rule="evenodd" clip-rule="evenodd" d="M9 24C9 21.7909 10.7909 20 13 20H44C46.2091 20 48 21.7909 48 24V32C48 34.2091 46.2091 36 44 36H13C10.7909 36 9 34.2091 9 32V24ZM13 22C11.8954 22 11 22.8954 11 24V32C11 33.1046 11.8954 34 13 34H44C45.1046 34 46 33.1046 46 32V24C46 22.8954 45.1046 22 44 22H13Z" fill="black"/>
<path d="M21 11C20.4477 11 20 11.4477 20 12C20 12.5523 20.4477 13 21 13H27C27.5523 13 28 12.5523 28 12C28 11.4477 27.5523 11 27 11H21Z" fill="black"/>
<path d="M21 15C20.4477 15 20 15.4477 20 16C20 16.5523 20.4477 17 21 17H31C31.5523 17 32 16.5523 32 16C32 15.4477 31.5523 15 31 15H21Z" fill="black"/>
<path d="M21 40H27C27.5523 40 28 39.5523 28 39C28 38.4477 27.5523 38 27 38H21C20.4477 38 20 38.4477 20 39C20 39.5523 20.4477 40 21 40Z" fill="black"/>
<path d="M31 44C31.5523 44 32 43.5523 32 43C32 42.4477 31.5523 42 31 42H21C20.4477 42 20 42.4477 20 43C20 43.5523 20.4477 44 21 44H31Z" fill="black"/>
<path d="M15.7071 38.2929C16.0976 38.6834 16.0976 39.3166 15.7071 39.7071L14.4142 41L15.7071 42.2929C16.0976 42.6834 16.0976 43.3166 15.7071 43.7071C15.3166 44.0976 14.6834 44.0976 14.2929 43.7071L13 42.4142L11.7071 43.7071C11.3166 44.0976 10.6834 44.0976 10.2929 43.7071C9.90237 43.3166 9.90237 42.6834 10.2929 42.2929L11.5858 41L10.2929 39.7071C9.90237 39.3166 9.90237 38.6834 10.2929 38.2929C10.6834 37.9024 11.3166 37.9024 11.7071 38.2929L13 39.5858L14.2929 38.2929C14.6834 37.9024 15.3166 37.9024 15.7071 38.2929Z" fill="black"/>
</svg>
