<svg xmlns="http://www.w3.org/2000/svg" width="48" height="48" fill="none" viewBox="0 0 48 48"><path fill="#000" fill-rule="evenodd" d="M35 6c0-1.1046-.8954-2-2-2H10c-1.1046 0-2 .8954-2 2v14c0 .5523-.4477 1-1 1s-1-.4477-1-1V6c0-2.2091 1.7909-4 4-4h23c2.2091 0 4 1.7909 4 4v3c0 .5523-.4477 1-1 1s-1-.4477-1-1zm-9 8c-.5523 0-1-.4477-1-1s.4477-1 1-1h17.5858l-4.2929-4.2929c-.3905-.3905-.3905-1.0237 0-1.4142s1.0237-.3905 1.4142 0l5.9988 5.9988.0121.0122a.997.997 0 0 1 .2807.7476.995.995 0 0 1-.2953.6593l-5.9963 5.9963c-.3905.3905-1.0237.3905-1.4142 0s-.3905-1.0237 0-1.4142L43.5858 14zm11 3c0-.5523-.4477-1-1-1s-1 .4477-1 1v14c0 .5523.4477 1 1 1s1-.4477 1-1zM1 24c0 .5523.4477 1 1 1h17.5858l-4.2929 4.2929c-.3905.3905-.3905 1.0237 0 1.4142s1.0237.3905 1.4142 0l5.9965-5.9965A.995.995 0 0 0 23 24a.997.997 0 0 0-.293-.7072l-5.9999-5.9999c-.3905-.3905-1.0237-.3905-1.4142 0s-.3905 1.0237 0 1.4142L19.5858 23H2c-.5523 0-1 .4477-1 1m35 14c.5523 0 1 .4477 1 1v3c0 2.2091-1.7909 4-4 4H10c-2.2091 0-4-1.7909-4-4V28c0-.5523.4477-1 1-1s1 .4477 1 1v14c0 1.1046.8954 2 2 2h23c1.1046 0 2-.8954 2-2v-3c0-.5523.4477-1 1-1m-11-3c0 .5523.4477 1 1 1h17.5858l-4.2929 4.2929c-.3905.3905-.3905 1.0237 0 1.4142s1.0237.3905 1.4142 0l5.9961-5.9961A.997.997 0 0 0 47 35a.997.997 0 0 0-.282-.6961l-.012-.0121-5.9989-5.9989c-.3905-.3905-1.0237-.3905-1.4142 0s-.3905 1.0237 0 1.4142L43.5858 34H26c-.5523 0-1 .4477-1 1m-14 4c-.5523 0-1 .4477-1 1v1c0 .5523.4477 1 1 1h1c.5523 0 1-.4477 1-1v-1c0-.5523-.4477-1-1-1zm4 1c0-.5523.4477-1 1-1h1c.5523 0 1 .4477 1 1v1c0 .5523-.4477 1-1 1h-1c-.5523 0-1-.4477-1-1zm6-1c-.5523 0-1 .4477-1 1v1c0 .5523.4477 1 1 1h1c.5523 0 1-.4477 1-1v-1c0-.5523-.4477-1-1-1z"/></svg>