<svg xmlns="http://www.w3.org/2000/svg" width="48" height="48" fill="none" viewBox="0 0 48 48"><path fill="#000" fill-rule="evenodd" d="M11 2C8.2386 2 6 4.2386 6 7v33c0 2.7614 2.2386 5 5 5h24c2.7614 0 5-2.2386 5-5V14.6569a5 5 0 0 0-1.4645-3.5356l-7.6568-7.6568A5 5 0 0 0 27.3431 2zM8 7c0-1.6569 1.3431-3 3-3h16v7c0 2.2091 1.7909 4 4 4h7v25c0 1.6569-1.3431 3-3 3H11c-1.6569 0-3-1.3431-3-3zm21 4V4.499c.1659.11.3216.2369.4645.3797l7.6568 7.6568c.1428.1429.2698.2986.3797.4645H31c-1.1046 0-2-.8954-2-2M13 22c0-.5523.4477-1 1-1h14c.5523 0 1 .4477 1 1s-.4477 1-1 1H14c-.5523 0-1-.4477-1-1m0 6c0-.5523.4477-1 1-1h9c.5523 0 1 .4477 1 1s-.4477 1-1 1h-9c-.5523 0-1-.4477-1-1"/></svg>