<svg xmlns="http://www.w3.org/2000/svg" width="48" height="48" fill="none" viewBox="0 0 48 48"><path fill="currentColor" fill-rule="evenodd" d="M25 11v2h-8v-2zm7 5H10v2h22zm0 4H10v2h22zm-2 4H10v2h20zm-2 4H10v2h18zm0 4H10v2h18zm-18 6h18v-2H10zm-6 8h27v2H2V0h30.41L40 7.59V21h-2V9h-7V2H4zM33 7h3.59L33 3.41zm15 22.2v9.09c0 6.53-8.32 9.47-8.67 9.6L39 48l-.34-.12c-.35-.12-8.66-3.13-8.66-9.59V29.2l9-5.38zm-2 1.13-7-4.18-7 4.18v8c0 4.5 5.55 7 7 7.58 1.42-.57 7-3.11 7-7.58zm-10.29 4.46-1.42 1.42 3.71 3.7 6.71-6.7-1.42-1.42-5.29 5.3z" clip-rule="evenodd"/></svg>