<svg xmlns="http://www.w3.org/2000/svg" width="48" height="48" fill="none" viewBox="0 0 48 48"><path fill="#000" fill-rule="evenodd" d="M11 2C8.2386 2 6 4.2386 6 7v33c0 2.7614 2.2386 5 5 5h16c.5523 0 1-.4477 1-1s-.4477-1-1-1H11c-1.6569 0-3-1.3431-3-3V7c0-1.6569 1.3431-3 3-3h16v7c0 2.2091 1.7909 4 4 4h7v10c0 .5523.4477 1 1 1s1-.4477 1-1V14.6569a5 5 0 0 0-1.4645-3.5356l-7.6568-7.6568A5 5 0 0 0 27.3431 2zm26.501 11a3 3 0 0 0-.3797-.4645l-7.6568-7.6568A3 3 0 0 0 29 4.499V11c0 1.1046.8954 2 2 2zM13 22c0-.5523.4477-1 1-1h14c.5523 0 1 .4477 1 1s-.4477 1-1 1H14c-.5523 0-1-.4477-1-1m0 6c0-.5523.4477-1 1-1h9c.5523 0 1 .4477 1 1s-.4477 1-1 1h-9c-.5523 0-1-.4477-1-1m25 0c-5.5228 0-10 4.4772-10 10s4.4772 10 10 10 10-4.4772 10-10-4.4772-10-10-10m-8 10c0-4.4183 3.5817-8 8-8s8 3.5817 8 8-3.5817 8-8 8-8-3.5817-8-8m12.7071-2.7071c.3905.3905.3905 1.0237 0 1.4142l-4 4a1 1 0 0 1-1.3318.0738l-2.5-2c-.4313-.345-.5012-.9743-.1562-1.4056s.9743-.5012 1.4056-.1562l1.8011 1.4409 3.3671-3.3671c.3905-.3905 1.0237-.3905 1.4142 0"/></svg>