<svg xmlns="http://www.w3.org/2000/svg" width="48" height="48" fill="none" viewBox="0 0 48 48"><path fill="#000" fill-rule="evenodd" d="M39 34.7947V15h-7c-2.2091 0-4-1.7909-4-4V4H12c-1.0315 0-1.9414.5206-2.4813 1.3134L8.0894 3.884C9.0055 2.7358 10.4168 2 12 2h16.4029a5 5 0 0 1 3.4437 1.375l7.5972 7.2172A5 5 0 0 1 41 14.2172v22.5775zM3.2929 4.7071 7 8.4142V40c0 2.7614 2.2386 5 5 5h24c2.0508 0 3.8132-1.2347 4.5845-3.0013l2.2084 2.2084c.3905.3905 1.0237.3905 1.4142 0s.3905-1.0237 0-1.4142l-39.5-39.5c-.3905-.3905-1.0237-.3905-1.4142 0s-.3905 1.0237 0 1.4142m34.7734 7.3351c.289.2746.5172.6008.6757.9578H32c-1.1046 0-2-.8954-2-2V4.4604a3 3 0 0 1 .4691.3646zM36 43c1.525 0 2.7842-1.1378 2.975-2.6108L9 10.4142V40c0 1.6569 1.3431 3 3 3z"/></svg>