<svg width="48" height="48" viewBox="0 0 48 48" fill="none" xmlns="http://www.w3.org/2000/svg">
<path d="M13 22C13 21.4477 13.4477 21 14 21H28C28.5523 21 29 21.4477 29 22C29 22.5523 28.5523 23 28 23H14C13.4477 23 13 22.5523 13 22Z" fill="black"/>
<path d="M13 28C13 27.4477 13.4477 27 14 27H23C23.5523 27 24 27.4477 24 28C24 28.5523 23.5523 29 23 29H14C13.4477 29 13 28.5523 13 28Z" fill="black"/>
<path fill-rule="evenodd" clip-rule="evenodd" d="M6 7C6 4.23858 8.23858 2 11 2H27.3431C28.6692 2 29.941 2.52678 30.8787 3.46447L38.5355 11.1213C39.4732 12.059 40 13.3308 40 14.6569V40C40 42.7614 37.7614 45 35 45H11C8.23858 45 6 42.7614 6 40V7ZM11 4C9.34315 4 8 5.34315 8 7V40C8 41.6569 9.34315 43 11 43H35C36.6569 43 38 41.6569 38 40V15H31C28.7909 15 27 13.2091 27 11V4H11ZM29 4.49902V11C29 12.1046 29.8954 13 31 13H37.501C37.3911 12.8341 37.2641 12.6784 37.1213 12.5355L29.4645 4.87868C29.3216 4.73586 29.1659 4.60893 29 4.49902Z" fill="black"/>
</svg>
