<svg width="48" height="48" viewBox="0 0 48 48" fill="none" xmlns="http://www.w3.org/2000/svg">
<path fill-rule="evenodd" clip-rule="evenodd" d="M6 7C6 4.23858 8.23858 2 11 2H27.3431C28.6692 2 29.941 2.52678 30.8787 3.46447L38.5355 11.1213C39.4732 12.059 40 13.3308 40 14.6569V25C40 25.5523 39.5523 26 39 26C38.4477 26 38 25.5523 38 25V15H31C28.7909 15 27 13.2091 27 11V4H11C9.34315 4 8 5.34315 8 7V40C8 41.6569 9.34315 43 11 43H27C27.5523 43 28 43.4477 28 44C28 44.5523 27.5523 45 27 45H11C8.23858 45 6 42.7614 6 40V7ZM37.1213 12.5355C37.2641 12.6784 37.3911 12.8341 37.501 13H31C29.8954 13 29 12.1046 29 11V4.49902C29.1659 4.60893 29.3216 4.73586 29.4645 4.87868L37.1213 12.5355Z" fill="black"/>
<path d="M14 21C13.4477 21 13 21.4477 13 22C13 22.5523 13.4477 23 14 23H28C28.5523 23 29 22.5523 29 22C29 21.4477 28.5523 21 28 21H14Z" fill="black"/>
<path d="M14 27C13.4477 27 13 27.4477 13 28C13 28.5523 13.4477 29 14 29H23C23.5523 29 24 28.5523 24 28C24 27.4477 23.5523 27 23 27H14Z" fill="black"/>
<path d="M35.7071 34.2929C35.3166 33.9024 34.6834 33.9024 34.2929 34.2929C33.9024 34.6834 33.9024 35.3166 34.2929 35.7071L36.5858 38L34.2929 40.2929C33.9024 40.6834 33.9024 41.3166 34.2929 41.7071C34.6834 42.0976 35.3166 42.0976 35.7071 41.7071L38 39.4142L40.2929 41.7071C40.6834 42.0976 41.3166 42.0976 41.7071 41.7071C42.0976 41.3166 42.0976 40.6834 41.7071 40.2929L39.4142 38L41.7071 35.7071C42.0976 35.3166 42.0976 34.6834 41.7071 34.2929C41.3166 33.9024 40.6834 33.9024 40.2929 34.2929L38 36.5858L35.7071 34.2929Z" fill="black"/>
<path fill-rule="evenodd" clip-rule="evenodd" d="M28 38C28 32.4772 32.4772 28 38 28C43.5228 28 48 32.4772 48 38C48 43.5228 43.5228 48 38 48C32.4772 48 28 43.5228 28 38ZM38 30C33.5817 30 30 33.5817 30 38C30 42.4183 33.5817 46 38 46C42.4183 46 46 42.4183 46 38C46 33.5817 42.4183 30 38 30Z" fill="black"/>
</svg>
