<svg xmlns="http://www.w3.org/2000/svg" width="48" height="48" fill="none" viewBox="0 0 48 48"><path fill="currentColor" fill-rule="evenodd" d="M6 2h27v7h7v26h2V7.59L34.41 0H4v48h31v-2H6zm29 1.41L38.59 7H35zm1.72 31.68-1.61 1.6-1.52-1.51c3.5769-4.3296 3.1222-10.7053-1.0328-14.4836s-10.5451-3.6266-14.5162.3446c-3.9712 3.9711-4.1228 10.3612-.3446 14.5162 3.7783 4.155 10.154 4.6097 14.4836 1.0328l1.51 1.52-1.6 1.61L40.36 48 45 43.36zM25.5 37c-4.6944 0-8.5-3.8056-8.5-8.5s3.8056-8.5 8.5-8.5 8.5 3.8056 8.5 8.5c-.0055 4.6921-3.8079 8.4945-8.5 8.5m9.41 2.72 1.81-1.81 5.45 5.45-1.81 1.81z" clip-rule="evenodd"/></svg>