<svg xmlns="http://www.w3.org/2000/svg" width="48" height="48" fill="none" viewBox="0 0 48 48"><path fill="currentColor" fill-rule="evenodd" d="M35.41 0H5v48h38V7.59zM36 3.41 39.59 7H36zM7 46V2h27v7h7v37zm25-24h-5v-8.69a1.11 1.11 0 0 0-.76-1.05 1.09 1.09 0 0 0-1.23.4l-9.9 13.6A1.09 1.09 0 0 0 15 27.4a1.1 1.1 0 0 0 1 .6h5v8.69c.0015.4769.3074.8996.76 1.05.1125.0194.2275.0194.34 0a1.09 1.09 0 0 0 .89-.45l9.9-13.6A1.09 1.09 0 0 0 33 22.6a1.1 1.1 0 0 0-1-.6m-9 11.93V27.1a1.1 1.1 0 0 0-1.1-1.1h-4.13L25 16.07v6.83a1.1 1.1 0 0 0 1.1 1.1h4.13z" clip-rule="evenodd"/></svg>