<svg width="48" height="48" viewBox="0 0 48 48" fill="none" xmlns="http://www.w3.org/2000/svg">
<path fill-rule="evenodd" clip-rule="evenodd" d="M7 8.41421L3.29289 4.70711C2.90237 4.31658 2.90237 3.68342 3.29289 3.29289C3.68342 2.90237 4.31658 2.90237 4.70711 3.29289L44.2071 42.7929C44.5976 43.1834 44.5976 43.8166 44.2071 44.2071C43.8166 44.5976 43.1834 44.5976 42.7929 44.2071L40.5845 41.9987C39.8132 43.7653 38.0508 45 36 45H12C9.23858 45 7 42.7614 7 40V8.41421ZM38.975 40.3892C38.7842 41.8622 37.525 43 36 43H12C10.3431 43 9 41.6569 9 40V10.4142L38.975 40.3892Z" fill="black"/>
<path fill-rule="evenodd" clip-rule="evenodd" d="M39 15V34.7947L41 36.7947V14.2172C41 12.8467 40.4374 11.5362 39.4437 10.5922L31.8466 3.375C30.9174 2.49222 29.6846 2 28.4029 2H12C10.4168 2 9.00551 2.73581 8.08937 3.8841L9.51865 5.31339C10.0586 4.5206 10.9685 4 12 4H28V11C28 13.2091 29.7909 15 32 15H39ZM38.742 13C38.5835 12.643 38.3553 12.3168 38.0662 12.0422L30.4691 4.825C30.3242 4.68728 30.1669 4.56541 30 4.46045V11C30 12.1046 30.8954 13 32 13H38.742Z" fill="black"/>
</svg>
