<svg xmlns="http://www.w3.org/2000/svg" width="48" height="48" fill="none" viewBox="0 0 48 48"><path fill="currentColor" fill-rule="evenodd" d="M10 11c-1.103 0-2-.897-2-2s.897-2 2-2 2 .897 2 2-.897 2-2 2m0-6C7.794 5 6 6.794 6 9s1.794 4 4 4 4-1.794 4-4-1.794-4-4-4M3 29.336V36h10v2H1V0h32v8h-2V2H3v24.021l5.917-7.818 4.812 5.111-1.458 1.372-3.188-3.389zM22 40h18v-2H22zm0-4h18v-2H22zm0-4h18v-2H22zm0-4h18v-2H22zm6-4h6v-2h-6zM17 46V12h22v6h6v28zm24-32.586L43.586 16H41zM40.414 10H15v38h32V16.586z" clip-rule="evenodd"/></svg>