<svg width="48" height="48" viewBox="0 0 48 48" fill="none" xmlns="http://www.w3.org/2000/svg">
<g clip-path="url(#clip0_8173_2801)">
<path d="M12 0C12.5523 0 13 0.447715 13 1V12.5858L14.7929 10.7929C15.1834 10.4024 15.8166 10.4024 16.2071 10.7929C16.5976 11.1834 16.5976 11.8166 16.2071 12.2071L12.7071 15.7071C12.3166 16.0976 11.6834 16.0976 11.2929 15.7071L7.79289 12.2071C7.40237 11.8166 7.40237 11.1834 7.79289 10.7929C8.18342 10.4024 8.81658 10.4024 9.20711 10.7929L11 12.5858V1C11 0.447715 11.4477 0 12 0Z" fill="black"/>
<path d="M36 0C36.5523 0 37 0.447715 37 1V12.5858L38.7929 10.7929C39.1834 10.4024 39.8166 10.4024 40.2071 10.7929C40.5976 11.1834 40.5976 11.8166 40.2071 12.2071L36.7071 15.7071C36.3166 16.0976 35.6834 16.0976 35.2929 15.7071L31.7929 12.2071C31.4024 11.8166 31.4024 11.1834 31.7929 10.7929C32.1834 10.4024 32.8166 10.4024 33.2071 10.7929L35 12.5858V1C35 0.447715 35.4477 0 36 0Z" fill="black"/>
<path d="M25 1C25 0.447715 24.5523 0 24 0C23.4477 0 23 0.447715 23 1V17.5858L19.2071 13.7929C18.8166 13.4024 18.1834 13.4024 17.7929 13.7929C17.4024 14.1834 17.4024 14.8166 17.7929 15.2071L23.2929 20.7071C23.6834 21.0976 24.3166 21.0976 24.7071 20.7071L30.2071 15.2071C30.5976 14.8166 30.5976 14.1834 30.2071 13.7929C29.8166 13.4024 29.1834 13.4024 28.7929 13.7929L25 17.5858V1Z" fill="black"/>
<path d="M16 4C15.4477 4 15 4.44772 15 5C15 5.55228 15.4477 6 16 6H20C20.5523 6 21 5.55228 21 5C21 4.44772 20.5523 4 20 4H16Z" fill="black"/>
<path d="M27 5C27 4.44772 27.4477 4 28 4H32C32.5523 4 33 4.44772 33 5C33 5.55228 32.5523 6 32 6H28C27.4477 6 27 5.55228 27 5Z" fill="black"/>
<path d="M2 4C0.89543 4 0 4.89543 0 6V10.5775C0 11.1177 0.218522 11.6349 0.605843 12.0115L18 28.9225V45.658C18 47.7556 20.578 48.7584 21.9955 47.2121L30.4743 37.9625C30.8124 37.5936 31 37.1114 31 36.611V28.4142L47.4142 12C47.7893 11.6249 48 11.1162 48 10.5858V6C48 4.89543 47.1046 4 46 4H40C39.4477 4 39 4.44772 39 5C39 5.55228 39.4477 6 40 6H46V10.5858L29.5858 27C29.2107 27.3751 29 27.8838 29 28.4142V36.611L20.5211 45.8607C20.3363 46.0624 20 45.9316 20 45.658V28.9225C20 28.3823 19.7815 27.8651 19.3942 27.4885L2 10.5775V6H8C8.55228 6 9 5.55228 9 5C9 4.44772 8.55228 4 8 4H2Z" fill="black"/>
</g>
<defs>
<clipPath id="clip0_8173_2801">
<rect width="48" height="48" fill="white"/>
</clipPath>
</defs>
</svg>
