<svg xmlns="http://www.w3.org/2000/svg" width="48" height="48" fill="none" viewBox="0 0 48 48"><path fill="#000" fill-rule="evenodd" d="M13 1c0-.5523-.4477-1-1-1s-1 .4477-1 1v11.5858l-1.7929-1.7929c-.3905-.3905-1.0237-.3905-1.4142 0s-.3905 1.0237 0 1.4142l3.5 3.5c.3905.3905 1.0237.3905 1.4142 0l3.5-3.5c.3905-.3905.3905-1.0237 0-1.4142s-1.0237-.3905-1.4142 0L13 12.5858zm11-1c.5523 0 1 .4477 1 1v16.5858l3.7929-3.7929c.3905-.3905 1.0237-.3905 1.4142 0s.3905 1.0237 0 1.4142l-5.5 5.5c-.3905.3905-1.0237.3905-1.4142 0l-5.5-5.5c-.3905-.3905-.3905-1.0237 0-1.4142s1.0237-.3905 1.4142 0L23 17.5858V1c0-.5523.4477-1 1-1m13 1c0-.5523-.4477-1-1-1s-1 .4477-1 1v11.5858l-1.7929-1.7929c-.3905-.3905-1.0237-.3905-1.4142 0s-.3905 1.0237 0 1.4142l3.5 3.5c.3905.3905 1.0237.3905 1.4142 0l3.5-3.5c.3905-.3905.3905-1.0237 0-1.4142s-1.0237-.3905-1.4142 0L37 12.5858zM0 6c0-1.1046.8954-2 2-2h6c.5523 0 1 .4477 1 1s-.4477 1-1 1H2v4.5775l17.3942 16.911c.3873.3766.6058.8938.6058 1.434V45.658c0 .2736.3363.4044.5211.2027L29 36.611v-8.1968A2 2 0 0 1 29.5858 27L46 10.5858V6h-6c-.5523 0-1-.4477-1-1s.4477-1 1-1h6c1.1046 0 2 .8954 2 2v4.5858A2 2 0 0 1 47.4142 12L31 28.4142v8.1968c0 .5004-.1876.9826-.5257 1.3515l-8.4788 9.2496C20.578 48.7584 18 47.7556 18 45.658V28.9225L.6058 12.0115A2 2 0 0 1 0 10.5775zm16-2c-.5523 0-1 .4477-1 1s.4477 1 1 1h4c.5523 0 1-.4477 1-1s-.4477-1-1-1zm11 1c0-.5523.4477-1 1-1h4c.5523 0 1 .4477 1 1s-.4477 1-1 1h-4c-.5523 0-1-.4477-1-1"/></svg>