<svg xmlns="http://www.w3.org/2000/svg" width="48" height="48" fill="none" viewBox="0 0 48 48"><path fill="currentColor" fill-rule="evenodd" d="M39.94 14.41c-.281-1.401-1.5111-2.4093-2.94-2.41h-5v2h-7V9c0-.5523.4477-1 1-1h4c1.6569 0 3-1.3431 3-3V0h-2v5c0 .5523-.4477 1-1 1h-4c-1.6569 0-3 1.3431-3 3v5h-7v-2h-5c-1.4289.0007-2.659 1.009-2.94 2.41C3.3005 15.7301.0044 20.0608 0 25v15c0 4.4183 3.5817 8 8 8s8-3.5817 8-8v-3c0-.5523.4477-1 1-1h14c.5523 0 1 .4477 1 1v3c0 4.4183 3.5817 8 8 8s8-3.5817 8-8V25c-.0044-4.9392-3.3005-9.2699-8.06-10.59M31 16v6H17v-6zm15 24c0 3.3137-2.6863 6-6 6s-6-2.6863-6-6v-3c0-1.6569-1.3431-3-3-3H17c-1.6569 0-3 1.3431-3 3v3c0 3.3137-2.6863 6-6 6s-6-2.6863-6-6V25c.004-4.4461 3.2542-8.2231 7.65-8.89.15 0 .29 0 .44-.06a9.1 9.1 0 0 1 .91 0h4v8h18v-8h4a9.1 9.1 0 0 1 .91 0c.15 0 .29 0 .44.06 4.3958.6669 7.646 4.4439 7.65 8.89zM10 27h3v2h-3v3H8v-3H5v-2h3v-3h2zm28-1c1.1046 0 2-.8954 2-2s-.8954-2-2-2-2 .8954-2 2 .8954 2 2 2m0 4c-1.1046 0-2 .8954-2 2s.8954 2 2 2 2-.8954 2-2-.8954-2-2-2m-4-4c-1.1046 0-2 .8954-2 2s.8954 2 2 2 2-.8954 2-2-.8954-2-2-2m6 2c0 1.1046.8954 2 2 2s2-.8954 2-2-.8954-2-2-2-2 .8954-2 2" clip-rule="evenodd"/></svg>