<svg xmlns="http://www.w3.org/2000/svg" width="48" height="48" fill="currentColor" viewBox="0 0 48 48"><path fill-rule="evenodd" d="M11 0H3C1.3432 0 0 1.3432 0 3v8c0 1.6569 1.3432 3 3 3h8c1.6569 0 3-1.3431 3-3V8h12c1.1046 0 2 .8954 2 2v13H14v-3c0-1.6569-1.3431-3-3-3H3c-1.6568 0-3 1.3431-3 3v8c0 1.6569 1.3432 3 3 3h8c1.6569 0 3-1.3431 3-3v-3h14v11.35c0 .7845-.0007 1.3178-.0316 1.7311-.0303.4031-.0852.611-.1521.7562a2 2 0 0 1-.979.979c-.1452.0669-.3531.1218-.7562.1521-.4133.0309-.9466.0316-1.7311.0316H14v-3c0-1.6569-1.3431-3-3-3H3c-1.6568 0-3 1.3431-3 3v8c0 1.6569 1.3432 3 3 3h8c1.6569 0 3-1.3431 3-3v-3h10.3878c.7373 0 1.3458 0 1.8429-.0372.5157-.0387.9914-.1216 1.4439-.3302a4 4 0 0 0 1.958-1.958c.2086-.4525.2915-.9282.3302-1.4439C30 37.7336 30 37.1251 30 36.3878V25h14.6004l-3.8787 3.8787c-.3905.3905-.3905 1.0237 0 1.4142s1.0237.3905 1.4142 0l5.4352-5.4352a1 1 0 0 0 .0997-.1161A.997.997 0 0 0 48 24a.996.996 0 0 0-.2854-.6995 1 1 0 0 0-.129-.1582l-5.4352-5.4352c-.3905-.3905-1.0237-.3905-1.4142 0s-.3905 1.0237 0 1.4142L44.6149 23H30V10c0-2.2091-1.7909-4-4-4H14V3c0-1.6568-1.3431-3-3-3m1 37c0-.5523-.4477-1-1-1H3c-.5523 0-1 .4477-1 1v8c0 .5523.4477 1 1 1h8c.5523 0 1-.4477 1-1zm0-26c0 .5523-.4477 1-1 1H3c-.5523 0-1-.4477-1-1V3c0-.5523.4477-1 1-1h8c.5523 0 1 .4477 1 1zM2 20c0-.5523.4477-1 1-1h8c.5523 0 1 .4477 1 1v8c0 .5523-.4477 1-1 1H3c-.5523 0-1-.4477-1-1z" clip-rule="evenodd"/></svg>