<svg xmlns="http://www.w3.org/2000/svg" width="48" height="48" fill="none" viewBox="0 0 48 48"><path fill="#000" fill-rule="evenodd" d="M3 0C1.3432 0 0 1.3432 0 3v8c0 1.6569 1.3432 3 3 3h8c1.6569 0 3-1.3431 3-3V8h12c1.1046 0 2 .8954 2 2v13H14v-3c0-1.6569-1.3431-3-3-3H3c-1.6568 0-3 1.3431-3 3v8c0 1.6569 1.3432 3 3 3h8c1.6569 0 3-1.3431 3-3v-3h14v13c0 1.1046-.8954 2-2 2H14v-3c0-1.6569-1.3431-3-3-3H3c-1.6568 0-3 1.3431-3 3v8c0 1.6569 1.3432 3 3 3h8c1.6569 0 3-1.3431 3-3v-3h12c2.2091 0 4-1.7909 4-4V25h14.5858l-3.7929 3.7929c-.3905.3905-.3905 1.0237 0 1.4142s1.0237.3905 1.4142 0l5.5-5.5a.997.997 0 0 0 .2916-.7586.997.997 0 0 0-.2916-.6556l-5.5-5.5c-.3905-.3905-1.0237-.3905-1.4142 0s-.3905 1.0237 0 1.4142L44.5858 23H30V10c0-2.2091-1.7909-4-4-4H14V3c0-1.6568-1.3431-3-3-3zm9 37c0-.5523-.4477-1-1-1H3c-.5523 0-1 .4477-1 1v8c0 .5523.4477 1 1 1h8c.5523 0 1-.4477 1-1zm0-34c0-.5523-.4477-1-1-1H3c-.5523 0-1 .4477-1 1v8c0 .5523.4477 1 1 1h8c.5523 0 1-.4477 1-1zm0 17c0-.5523-.4477-1-1-1H3c-.5523 0-1 .4477-1 1v8c0 .5523.4477 1 1 1h8c.5523 0 1-.4477 1-1z"/></svg>