<svg xmlns="http://www.w3.org/2000/svg" width="48" height="48" fill="none" viewBox="0 0 48 48"><path fill="currentColor" fill-rule="evenodd" d="M5 0v48h38V0zm36 46H7V2h34zm-2-27-2.07-2v-4.3l2.07-2V4H9v6.57l2.07 2v4.3L9 19v25h30zM11 42V26h6.78l-.49-1.34A4.47 4.47 0 0 1 17 23.4c-.1288-1.5682.8877-3.0022 2.41-3.4 1.5114-.3952 3.0732.4357 3.59 1.91l.35.61H24a1.09 1.09 0 0 0 1-.52 3.43 3.43 0 0 1 2.9-2.06 3.09 3.09 0 0 1 2.65 1.6l1.73-1a5.06 5.06 0 0 0-4.38-2.6A5 5 0 0 0 24 19.8a4.85 4.85 0 0 0-5.14-1.74c-2.4338.6717-4.0514 2.9725-3.86 5.49a3.45 3.45 0 0 0 .05.45H11v-4.2l2.07-2.05v-6L11 9.74V6h26v3.74l-2.07 2v6L37 19.8V24h-6l-.24.66c-.8 2.22-3.29 4.2-5.11 5.64-.63.5-1.17.93-1.61 1.33-.44-.41-1-.84-1.63-1.35S20.77 29 20 28.27l-1.36 1.46c.85.79 1.74 1.5 2.53 2.12a14.07 14.07 0 0 1 2 1.76c.2025.2779.5261.4416.87.44h.57l.3-.4a14.2 14.2 0 0 1 2-1.74c1.84-1.46 4.31-3.42 5.47-5.87H37V42z" clip-rule="evenodd"/></svg>