<svg xmlns="http://www.w3.org/2000/svg" width="48" height="48" fill="none" viewBox="0 0 48 48"><path fill="currentColor" fill-rule="evenodd" d="M35 9h-6V7h6zm8-9v48H5V0zm-2 2H7v44h34zm-2 42H9V19l2.07-2v-4.3L9 10.65V4h30v6.57l-2.07 2.05v4.3l2.07 2zm-2-24.2-2.07-2v-6L37 9.75V6H11v3.74l2.07 2.05v6l-2.07 2V42h26zM35 29c0 6.0751-4.9249 11-11 11s-11-4.9249-11-11 4.9249-11 11-11 11 4.9249 11 11m-2 0c0-4.9706-4.0294-9-9-9s-9 4.0294-9 9 4.0294 9 9 9 9-4.0294 9-9m-4 0c0 2.7614-2.2386 5-5 5s-5-2.2386-5-5 2.2386-5 5-5 5 2.2386 5 5m-2 0c0-1.6569-1.3431-3-3-3s-3 1.3431-3 3 1.3431 3 3 3 3-1.3431 3-3" clip-rule="evenodd"/></svg>