<svg xmlns="http://www.w3.org/2000/svg" width="48" height="48" fill="none" viewBox="0 0 48 48"><path fill="currentColor" fill-rule="evenodd" d="m7.351 14.601 1.298 1.521L11 14.117V32h26V14.117l2.351 2.005 1.298-1.521L24 .396zM13 30h22V12.41L24 3.025 13 12.41z" clip-rule="evenodd"/><path fill="currentColor" d="M23 34c0-.55.45-1 1-1s1 .45 1 1-.45 1-1 1-1-.45-1-1"/><path fill="currentColor" fill-rule="evenodd" d="M20 44c0-2.206 1.794-4 4-4s4 1.794 4 4-1.794 4-4 4-4-1.794-4-4m2 0c0 1.103.897 2 2 2s2-.897 2-2-.897-2-2-2-2 .897-2 2" clip-rule="evenodd"/><path fill="currentColor" d="M24 37c-.55 0-1 .45-1 1s.45 1 1 1 1-.45 1-1-.45-1-1-1m24 7c0 .27-.101.52-.29.71-.101.09-.21.16-.33.21s-.25.08-.38.08-.26-.03-.38-.08q-.18-.075-.33-.21c-.19-.19-.29-.44-.29-.71 0-.13.029-.26.08-.38.05-.13.12-.23.21-.33.37-.37 1.05-.37 1.42 0q.135.15.21.33c.059.12.08.25.08.38m-13 1c.55 0 1-.45 1-1s-.45-1-1-1-1 .45-1 1 .45 1 1 1m5-1c0 .55-.45 1-1 1-.561 0-1-.45-1-1s.439-1 1-1c.55 0 1 .45 1 1m3 1c.55 0 1-.45 1-1s-.45-1-1-1-1 .45-1 1 .45 1 1 1m-11-1c0 .55-.45 1-1 1s-1-.45-1-1 .45-1 1-1 1 .45 1 1M9 45c.55 0 1-.45 1-1s-.45-1-1-1-1 .45-1 1 .45 1 1 1m-3-1c0 .55-.45 1-1 1s-1-.45-1-1 .45-1 1-1 1 .45 1 1m7 1c.55 0 1-.45 1-1s-.45-1-1-1-1 .45-1 1 .45 1 1 1m5-1c0 .55-.45 1-1 1s-1-.45-1-1 .45-1 1-1 1 .45 1 1M2 44c0-.13-.03-.26-.08-.38q-.075-.18-.21-.33c-.28-.27-.72-.36-1.09-.21q-.195.075-.33.21-.135.15-.21.33c-.06.12-.08.25-.08.38s.02.26.069.38c.061.12.131.229.221.33q.15.135.33.21c.12.059.25.08.38.08.27 0 .52-.101.71-.29.189-.19.29-.44.29-.71"/></svg>