<svg xmlns="http://www.w3.org/2000/svg" width="48" height="48" fill="none" viewBox="0 0 48 48"><path fill="#000" fill-rule="evenodd" d="M12 2C9.2386 2 7 4.2386 7 7s2.2386 5 5 5c1.3387 0 2.5545-.5261 3.4519-1.3828l17.5625 9.757c.4828.2682 1.0916.0942 1.3598-.3886s.0942-1.0915-.3885-1.3598L16.5985 8.9663A4.98 4.98 0 0 0 17 7c0-2.7614-2.2386-5-5-5M9 7c0-1.6569 1.3431-3 3-3s3 1.3431 3 3-1.3431 3-3 3-3-1.3431-3-3M7 41c0-2.4207 1.7202-4.4396 4.0049-4.901A1 1 0 0 1 11 36V16c0-.5523.4477-1 1-1s1 .4477 1 1v20q0 .0502-.0048.099C15.2798 36.5604 17 38.5793 17 41c0 2.7614-2.2386 5-5 5s-5-2.2386-5-5m29-17c0-2.7614 2.2386-5 5-5s5 2.2386 5 5-2.2386 5-5 5c-1.4945 0-2.8359-.6557-3.7522-1.6952l-17.2439 10.059c-.4771.2783-1.0894.1171-1.3677-.3599-.2783-.4771-.1171-1.0894.3599-1.3677l17.2555-10.0657A5 5 0 0 1 36 24m5-3c-1.6569 0-3 1.3431-3 3s1.3431 3 3 3 3-1.3431 3-3-1.3431-3-3-3M12 38c-1.6569 0-3 1.3431-3 3s1.3431 3 3 3 3-1.3431 3-3-1.3431-3-3-3"/></svg>