<svg xmlns="http://www.w3.org/2000/svg" width="48" height="48" fill="none" viewBox="0 0 48 48"><path fill="#000" fill-rule="evenodd" d="M13.5225 2.001c-.0002-.552-.448-.9998-1-1H5.001c-2.209.0001-3.9999 1.791-4 4v7.5215c.0002.552.448.9998 1 1 .5522 0 .9998-.4479 1-1V5.001c.0001-1.1044.8956-1.9999 2-2h7.5215c.5521-.0002 1-.4478 1-1m33.4756 3c-.0002-2.14-1.6805-3.8881-3.794-3.9951l-.206-.005h-7.5206c-.552.0002-.9998.448-1 1 0 .5523.4479 1 1 1h7.5206l.205.0108c1.0084.1025 1.7948.954 1.795 1.9893v7.5215c.0001.5519.4481.9996 1 1 .5521 0 .9998-.4479 1-1zM19.6875 16.7207c1.2403.0001 2.3793.2875 3.4111.8633 1.0483.578 1.8813 1.4248 2.4961 2.5332l.1153.209c.5543 1.0553.8281 2.2823.8281 3.6738 0 1.4844-.3117 2.7875-.9424 3.9014l-.001-.001c-.615 1.0962-1.4471 1.9357-2.4951 2.5137l.001.0009c-1.0323.5765-2.1721.8633-3.4131.8633-1.2284-.0001-2.3667-.2875-3.4111-.8633-1.0481-.5777-1.8866-1.417-2.5147-2.5127l-.0019-.0029c-.6171-1.1135-.9219-2.4157-.9219-3.8994s.3052-2.7798.9228-3.8809c.628-1.1087 1.467-1.957 2.5157-2.5351 1.0443-.5756 2.1829-.8632 3.4111-.8633m21.3848 4.2285c-.9053-2.9382-3.5659-4.2282-6.1426-4.2285-3.5809 0-6.7919 2.6829-6.792 7.2793.0001 4.5964 3.2111 7.2783 6.792 7.2783 2.5766-.0003 5.2372-1.2894 6.1426-4.2275.1889-.6139-.3102-1.1637-.9102-1.1641-.4669 0-.8452.3247-.998.7334-.5531 1.4803-1.9204 2.7565-4.2344 2.7569-2.9609 0-4.832-2.4916-4.832-5.377s1.8711-5.3779 4.832-5.3779c2.314.0003 3.6813 1.2775 4.2344 2.7578.1528.4087.5311.7334.998.7334.6001-.0004 1.0993-.5501.9102-1.1641m-29.835-2.9844c-.0001-.5464-.4428-.99-.9892-.9902-.5466.0001-.9902.4437-.9903.9902v12.0704c0 .5465.4437.9892.9903.9892.5464-.0001.9892-.4427.9892-.9892zm8.4502.7159c-.9027 0-1.7195.2135-2.4541.6367l-.002.001c-.7309.4088-1.31 1.011-1.7353 1.8115-.4235.7974-.6396 1.7521-.6397 2.8701.0001 1.1182.2161 2.0726.6397 2.8701.4251.8001 1.0033 1.4081 1.7344 1.8301.735.4111 1.5531.6181 2.457.6182.9174-.0001 1.7419-.2073 2.4766-.6182.7306-.4217 1.3028-1.029 1.7148-1.8281l.001-.002c.4235-.7974.6396-1.7521.6396-2.8701s-.2161-2.0727-.6396-2.8701l-.001-.0029c-.4122-.7994-.9845-1.4001-1.7148-1.8086l-.002-.001c-.7343-.4232-1.5582-.6367-2.4746-.6367M3.001 35.4775c-.0002-.5521-.4478-1-1-1-.552.0002-.9999.448-1 1v7.5206c0 2.209 1.791 3.9998 4 4h7.5215c.5521-.0002 1-.4479 1-1-.0004-.5519-.4481-.9999-1-1H5.001c-1.1045-.0002-2-.8956-2-2zm43.9971 0c-.0002-.5521-.4479-1-1-1-.5519.0004-.9999.4481-1 1v7.5206c0 1.1045-.8955 2-2 2h-7.5206c-.5519.0001-.9996.4481-1 1 0 .5521.4479.9998 1 1h7.5206c2.2091 0 4-1.7909 4-4z"/></svg>