<svg xmlns="http://www.w3.org/2000/svg" width="48" height="48" fill="none" viewBox="0 0 48 48"><path fill="currentColor" fill-rule="evenodd" d="M25 17v-2c0-2.2091 1.7909-4 4-4 3.3137 0 6-2.6863 6-6V3h-2v2c0 2.2091-1.7909 4-4 4-3.3137 0-6 2.6863-6 6v2H0v28h48V17zm21 26H2V19h44zM8 25H5v-3h3zm5 0h-3v-3h3zm5 0h-3v-3h3zm5 0h-3v-3h3zm5 0h-3v-3h3zm5 0h-3v-3h3zm5 0h-3v-3h3zm5 0h-3v-3h3zM8 30H5v-3h3zm5 0h-3v-3h3zm5 0h-3v-3h3zm5 0h-3v-3h3zm5 0h-3v-3h3zm5 0h-3v-3h3zm5 0h-3v-3h3zm5 0h-3v-3h3zM8 35H5v-3h3zm5 0h-3v-3h3zm5 0h-3v-3h3zm5 0h-3v-3h3zm5 0h-3v-3h3zm5 0h-3v-3h3zm5 0h-3v-3h3zm5 0h-3v-3h3zM8 40H5v-3h3zm5 0h-3v-3h3zm20 0H15v-3h18zm5 0h-3v-3h3zm5 0h-3v-3h3z" clip-rule="evenodd"/></svg>