<svg xmlns="http://www.w3.org/2000/svg" width="48" height="48" fill="none" viewBox="0 0 48 48"><path fill="#000" fill-rule="evenodd" d="M5 42V7q0-1.4496.5125-2.687v-.0002l.0001-.0001q.5126-1.2374 1.5377-2.2624Q8.0753 1.0252 9.3127.5126h.0003Q10.5504 0 12 0h30q.2071 0 .384.0732.1767.0732.3231.2197t.2197.3232Q43 .793 43 1v46q0 .2072-.0732.3839-.0733.1768-.2197.3232t-.3232.2197Q42.2072 48 42 48H11q-1.2426 0-2.3033-.4393t-1.9393-1.3181q-.8787-.8786-1.318-1.9393T5 42m2-4.4738q.7805-.7072 1.6967-1.0869Q9.7574 36 11 36h30V2h-5v13q0 .2072-.0732.3839-.0733.1768-.2197.3232-.1464.1465-.3232.2197T35 16a.99.99 0 0 1-.3554-.0653 1 1 0 0 1-.1632-.0795 1 1 0 0 1-.1458-.1078L30.5 12.338l-3.8356 3.4094q-.1548.1376-.3356.2003t-.3875.0506q-.2067-.0122-.379-.0957-.1721-.0835-.3097-.2382a.99.99 0 0 1-.1873-.3091A.99.99 0 0 1 25 15V2H12q-1.0355 0-1.9194.366-.8838.3663-1.6162 1.0984-.7322.7323-1.0983 1.6162T7 7zM41 38H11q-.8285 0-1.5356.2929-.707.293-1.2928.8787-.5857.5856-.8786 1.2927v.0001Q7 41.1716 7 42t.2928 1.5355l.0001.0001.0001.0002q.2929.707.8786 1.2926.5856.5857 1.2926.8786l.0002.0001q.7072.293 1.5356.2929h30v-3H12.9951q-.2044-.0009-.379-.0732a1 1 0 0 1-.0617-.0283.983.983 0 0 1-.4529-.4528 1 1 0 0 1-.0283-.0618q-.0714-.1725-.0732-.3741v-.0147q.0009-.2042.0732-.3788a1 1 0 0 1 .0283-.0619.982.982 0 0 1 .4529-.4529 1 1 0 0 1 .0616-.0282q.1725-.0715.3742-.0733H41zm-7-25.2268V2h-7v10.7732l2.8356-2.5206a1 1 0 0 1 .3082-.1894A.99.99 0 0 1 30.5 10a.99.99 0 0 1 .3562.0632 1 1 0 0 1 .3082.1894z"/></svg>