<svg xmlns="http://www.w3.org/2000/svg" width="48" height="48" fill="none" viewBox="0 0 48 48"><path fill="currentColor" fill-rule="evenodd" d="m10.872 26.4505-7.801 4.455 24.358 13.917 6.45-3.686-2.709-4.696c-5.868 1.213-12.212-.45-16.765-5.005a18.32 18.32 0 0 1-3.534-4.985zm13.322-1.57-3.232-3.23-.599.595-1.115 1.119-1.44-.65a10.81 10.81 0 0 0-4.409-.947c-.31 0-.615.046-.921.076.62 2.726 1.962 5.32 4.082 7.438a15 15 0 0 0 1.927 1.613c.456.327.924.627 1.404.898.085.047.166.102.251.15.58.31 1.174.575 1.78.808.098.037.197.069.296.103.554.2 1.117.365 1.685.498l.08.02c.162-1.795-.085-3.632-.854-5.335l-.65-1.44 1.118-1.117zm-11.848-9.402c-.187.97-.281 1.954-.281 2.938 0 .382.025.763.054 1.144a12.4 12.4 0 0 1 1.28-.077c1.826 0 3.653.382 5.349 1.149l2.214-2.214 2.694 2.694 3.232-3.232 1.078 1.077-3.232 3.23 2.694 2.693-2.214 2.214c.943 2.09 1.261 4.375 1.039 6.616.641.048 1.286.061 1.929.03.03-.002.06-.002.09-.005a15.296 15.296 0 0 0 9.406-3.89c.208-.19.42-.363.62-.564 3.371-3.37 4.846-7.93 4.424-12.34a15.43 15.43 0 0 0-1.053-4.31 15.265 15.265 0 0 0-3.37-5.083 15.303 15.303 0 0 0-10.87-4.495 15.35 15.35 0 0 0-7.151 1.755 15.3 15.3 0 0 0-3.718 2.74 15.267 15.267 0 0 0-4.214 7.93m34.172 30.353-7.541-13.073a18.29 18.29 0 0 1-4.803 2.79l7.533 13.06 3.22.02 1.59-2.797zm5.27-14.926-7.813-4.463a18.3 18.3 0 0 1-2.74 4.13l2.76 4.786 7.792-4.453zm3.07 0v9.797l-5.853 3.341 1.024 1.776-3.334 5.866-6.755-.042-1.05-1.821-11.46 6.549L0 40.7015v-9.796l10.254-5.857c-2.54-6.59-1.164-14.342 4.151-19.656 7.193-7.19 18.854-7.19 26.048 0 5.315 5.314 6.674 13.058 4.13 19.643zm-18.272-20.568-4.311 4.31-1.077-1.078 4.31-4.31zm-3.902 14.558-1.472.395-1.577-5.887 1.472-.394zm-3.155-11.773-1.472.395-1.577-5.887 1.47-.394 1.58 5.886zm2.8 4.665.394-1.472 5.886 1.577-.394 1.472-5.887-1.577zm-5.494-3.05-.395 1.472-5.888-1.577.395-1.472z" clip-rule="evenodd"/></svg>