<svg xmlns="http://www.w3.org/2000/svg" width="48" height="48" fill="none" viewBox="0 0 48 48"><path fill="currentColor" fill-rule="evenodd" d="M34.41 0H7v44h15v-2H9V2h24v7h7v33h-4v2h6V7.6zM35 3.41 38.59 7H35zM31.29 28.8l1.42 1.42-4.71 4.7-2.71-2.7 1.42-1.42L28 32.1zm5 7.44A3 3 0 0 0 37.5 32a3 3 0 0 0-1.13-4.23 3 3 0 0 0-.89-2.21 2.83 2.83 0 0 0-2.21-.88 3 3 0 0 0-4.23-1.14 3 3 0 0 0-4.23 1.14 2.89 2.89 0 0 0-2.21.88 3 3 0 0 0-.89 2.21A3 3 0 0 0 20.5 32a3 3 0 0 0 1.13 4.23 3 3 0 0 0 .89 2.21 2.88 2.88 0 0 0 1.44.8V48l5-2.83 5 2.83v-8.74a2.9 2.9 0 0 0 1.44-.81 3 3 0 0 0 .93-2.21zM29 42.86l-3 1.7v-4c.204.1056.4185.1894.64.25a2.94 2.94 0 0 0 2.36-.34 3 3 0 0 0 1.56.45 3.2 3.2 0 0 0 .8-.11 3.27 3.27 0 0 0 .64-.25v4zm5.3-7.79a1 1 0 0 0-.06.89 1 1 0 0 1-1.29 1.29 1.0002 1.0002 0 0 0-1.38.8.9998.9998 0 0 1-1.77.47 1 1 0 0 0-1.6 0 .9998.9998 0 0 1-1.77-.47 1 1 0 0 0-1.38-.8A1 1 0 0 1 23.76 36a1.0002 1.0002 0 0 0-.8-1.38.9999.9999 0 0 1-.46-1.81 1 1 0 0 0 0-1.6.9998.9998 0 0 1 .47-1.77 1 1 0 0 0 .8-1.38.9999.9999 0 0 1 1.29-1.29 1.0002 1.0002 0 0 0 1.38-.8.9998.9998 0 0 1 1.77-.47 1 1 0 0 0 1.6 0 .9998.9998 0 0 1 1.77.47 1 1 0 0 0 1.38.8.9999.9999 0 0 1 1.29 1.29 1.0002 1.0002 0 0 0 .8 1.38.9999.9999 0 0 1 .45 1.77 1 1 0 0 0 0 1.6.9998.9998 0 0 1-.47 1.77 1 1 0 0 0-.73.49M29 10v2h-9v-2zm-15 4h21v2H14zm0 4h21v2H14z" clip-rule="evenodd"/></svg>