<svg xmlns="http://www.w3.org/2000/svg" width="48" height="48" fill="none" viewBox="0 0 48 48"><path stroke="currentColor" stroke-linecap="round" stroke-width="2" d="m14.7463 20.7215-7.3132 7.3131c-1.9526 1.9527-1.9526 5.1185 0 7.0711l5.3589 5.3589c1.9526 1.9526 5.1184 1.9526 7.0711 0l7.2876-7.2876m-6.5554-18.3046 7.3369-7.3369c1.9526-1.9526 5.1184-1.9526 7.0711 0l5.3589 5.3589c1.9526 1.9527 1.9526 5.1185 0 7.0711l-7.2859 7.2858M19.249 28.6487l9.2971-9.2971M16.0001 10l-2-4m18 32 2 4m-24-26-4-2m32 18 4 2"/></svg>