<svg xmlns="http://www.w3.org/2000/svg" width="48" height="48" fill="none" viewBox="0 0 48 48"><path fill="currentColor" fill-rule="evenodd" d="M38 20v-6c0-7.732-6.268-14-14-14S10 6.268 10 14v6H4v28h40V20zm-26-6c0-6.6274 5.3726-12 12-12s12 5.3726 12 12v6h-4v-6c0-4.4183-3.5817-8-8-8s-8 3.5817-8 8v6h-4zm18 6H18v-6c0-3.3137 2.6863-6 6-6s6 2.6863 6 6zm12 2v19H6V22zM6 46v-3h3.09l-3 3zm5.91-3h2.18l-3 3H8.91zm5 0h2.18l-3 3h-2.18zm5 0h2.18l-3 3h-2.18zm5 0h2.18l-3 3h-2.18zm5 0h2.18l-3 3h-2.18zm5 0h2.18l-3 3h-2.18zm2 3 3-3H42v3z" clip-rule="evenodd"/></svg>