<svg xmlns="http://www.w3.org/2000/svg" width="48" height="48" fill="none" viewBox="0 0 48 48"><path fill="currentColor" fill-rule="evenodd" d="M36 9v2h-2V9zm-6 0v2h2V9zm4 13v2h2v-2zm-4 0v2h2v-2zM42 2H17.92a12.26 12.26 0 0 1 1.81 2H40v11H21.3a11 11 0 0 1-.92 2H40v11H8v-5.18a12 12 0 0 1-2-.52V30h36zM1.38 43.08a.92.92 0 0 0-.76 0 1.15 1.15 0 0 0-.33.21A1 1 0 0 0 0 44a1 1 0 0 0 .08.38.9.9 0 0 0 .54.54c.242.107.518.107.76 0a.9.9 0 0 0 .54-.54A1 1 0 0 0 2 44a1.05 1.05 0 0 0-.29-.71 1.15 1.15 0 0 0-.33-.21M13 43c-.5523 0-1 .4477-1 1s.4477 1 1 1 1-.4477 1-1-.4477-1-1-1m-8 0c-.5523 0-1 .4477-1 1s.4477 1 1 1 1-.4477 1-1-.4477-1-1-1m4 0c-.5523 0-1 .4477-1 1s.4477 1 1 1 1-.4477 1-1-.4477-1-1-1m8 0c-.5523 0-1 .4477-1 1s.4477 1 1 1 1-.4477 1-1-.4477-1-1-1m14 0c-.5523 0-1 .4477-1 1s.4477 1 1 1 1-.4477 1-1-.4477-1-1-1m12 0c-.5523 0-1 .4477-1 1s.4477 1 1 1 1-.4477 1-1-.4477-1-1-1m-4 0c-.5523 0-1 .4477-1 1s.4477 1 1 1 1-.4477 1-1-.4477-1-1-1m-4 0c-.5523 0-1 .4477-1 1s.4477 1 1 1 1-.4477 1-1-.4477-1-1-1m12.92.62a1 1 0 0 0-.22-.33 1 1 0 0 0-.32-.21c-.2434-.1-.5165-.1-.76 0a.93.93 0 0 0-.33.21A1.05 1.05 0 0 0 46 44a1 1 0 0 0 .08.38c.0507.1212.1217.2328.21.33A1 1 0 0 0 47 45a1 1 0 0 0 .7-.29A1 1 0 0 0 48 44a.84.84 0 0 0-.08-.38M24 36c-.5523 0-1 .4477-1 1s.4477 1 1 1 1-.4477 1-1-.4477-1-1-1m0-4c-.5523 0-1 .4477-1 1s.4477 1 1 1 1-.4477 1-1-.4477-1-1-1m4 12c0 2.2091-1.7908 4-4 4-2.2091 0-4-1.7909-4-4s1.7909-4 4-4 4 1.7909 4 4m-2 0c0-1.1046-.8954-2-2-2s-2 .8954-2 2 .8954 2 2 2 2-.8954 2-2M10 21C4.4772 21 0 16.5228 0 11S4.4772 1 10 1s10 4.4772 10 10-4.4771 10-10 10m0-2c4.4183 0 8-3.5817 8-8s-3.5817-8-8-8-8 3.5817-8 8 3.5817 8 8 8m4.29-6.77-5 3a1.42 1.42 0 0 1-.78.23 1.5 1.5 0 0 1-.71-.18 1.46 1.46 0 0 1-.78-1.3V8A1.48 1.48 0 0 1 9.3 6.76l4.92 3a1.47 1.47 0 0 1 0 2.48zM12.47 11 9.05 8.91v4.18z" clip-rule="evenodd"/></svg>