<svg xmlns="http://www.w3.org/2000/svg" width="48" height="48" fill="none" viewBox="0 0 48 48"><path fill="currentColor" fill-rule="evenodd" d="m47.33 21.13.67-.24V13H0v7.89l.67.24a2 2 0 0 1 0 3.74l-.67.24V38h27v-2h3v2h18V25.11l-.67-.24a2 2 0 0 1 0-3.74M44 36v-2h-2v2h-1v-2h-2v2h-1v-2h-2v2h-1v-2h-2v2h-1v-2h-7v2h-1v-2h-2v2h-1v-2h-2v2h-1v-2h-2v2h-1v-2h-2v2h-1v-2h-2v2H9v-2H7v2H6v-2H4v2H2v-3h44v3zm2-16.45a4 4 0 0 0 0 6.9V31H2v-4.55a4 4 0 0 0 0-6.9V15h44zM16 29h6v-2h1v-2h-1v-1h1v-2h-1v-1h1v-2h-1v-2h-6v2h-1v2h1v1h-1v2h1v1h-1v2h1zm2-10h2v8h-2zM5 19v2h1v1H5v2h1v1H5v2h1v2h6v-2h1v-2h-1v-1h1v-2h-1v-1h1v-2h-1v-2H6v2zm3 0h2v8H8zm18 10h6v-2h1v-2h-1v-1h1v-2h-1v-1h1v-2h-1v-2h-6v2h-1v2h1v1h-1v2h1v1h-1v2h1zm2-10h2v8h-2zm8 10h6v-2h1v-2h-1v-1h1v-2h-1v-1h1v-2h-1v-2h-6v2h-1v2h1v1h-1v2h1v1h-1v2h1zm2-10h2v8h-2zM5 18H3v-2h2zm40 0h-2v-2h2z" clip-rule="evenodd"/></svg>