<svg xmlns="http://www.w3.org/2000/svg" width="48" height="48" fill="none" viewBox="0 0 48 48"><path fill="currentColor" fill-rule="evenodd" d="M34 46c-1.103 0-2-.897-2-2s.897-2 2-2 2 .897 2 2-.897 2-2 2m.117-5.988c-.031-.004-.062-.009-.094-.01-.007 0-.015-.002-.023-.002-2.206 0-4 1.794-4 4s1.794 4 4 4 4-1.794 4-4c0-2.166-1.732-3.924-3.883-3.988M14 46c-1.103 0-2-.897-2-2s.897-2 2-2 2 .897 2 2-.897 2-2 2m.203-5.979-.003-.001h-.007c-.065-.003-.127-.02-.193-.02s-.128.017-.193.02H13.8l-.003.001C11.687 40.129 10 41.863 10 44c0 2.206 1.794 4 4 4s4-1.794 4-4c0-2.137-1.687-3.871-3.797-3.979M32 24h4v-2h-4zM20 0v8h2V2h24v13H30v2h16v3H30v6h10v-2h-2v-2h10V0zm13 33c0-.55.45-1 1-1s1 .45 1 1-.45 1-1 1-1-.45-1-1m0-4c0-.55.45-1 1-1s1 .45 1 1-.45 1-1 1-1-.45-1-1m0 8c0-.55.45-1 1-1s1 .45 1 1-.45 1-1 1-1-.45-1-1m-19 2c-.55 0-1-.45-1-1s.45-1 1-1 1 .45 1 1-.45 1-1 1m11 5c0 .55-.45 1-1 1s-1-.45-1-1 .45-1 1-1 1 .45 1 1m-4 0c0 .55-.45 1-1 1s-1-.45-1-1 .45-1 1-1 1 .45 1 1m8 0c0 .55-.45 1-1 1s-1-.45-1-1 .45-1 1-1 1 .45 1 1m13 0c0 .55-.45 1-1 1s-1-.45-1-1 .45-1 1-1 1 .45 1 1m4 0c0 .55-.45 1-1 1s-1-.45-1-1 .45-1 1-1 1 .45 1 1M4 44c0 .55-.45 1-1 1s-1-.45-1-1 .45-1 1-1 1 .45 1 1m4 0c0 .55-.45 1-1 1s-1-.45-1-1 .45-1 1-1 1 .45 1 1m4-10h4v-2h-4zM2 30v-3h24v3zm0-5h24V12H2zm18 9h-2v-2h10V10H0v22h10v2H8v2h12z" clip-rule="evenodd"/></svg>