<svg xmlns="http://www.w3.org/2000/svg" width="48" height="48" fill="none" viewBox="0 0 48 48"><path fill="currentColor" fill-rule="evenodd" d="m46.6799 26.9999-4-10.87a7.9 7.9 0 0 0-.86-1.69 7.8 7.8 0 0 0-4.82-3.25 8 8 0 0 0 1.81-5.19c0-3.2087-2.6012-5.81-5.81-5.81s-5.81 2.6013-5.81 5.81a8 8 0 0 0 1.81 5.19 7.8 7.8 0 0 0-4.85 3.28 7.92 7.92 0 0 0-.86 1.69l-2.86 7.84h-5.89a6.36 6.36 0 0 0 1-3.39 4.56 4.56 0 0 0-4.54-4.61c-2.5145.033-4.5277 2.0954-4.5 4.61a6.21 6.21 0 0 0 1.12 3.62 5.06 5.06 0 0 0-2.62 1.91v.07a4.88 4.88 0 0 0-.56 1.09l-2.79 7.52a3 3 0 0 0 4.09 3.75l.26-.14v9.57h10v-18h3.58a3.56 3.56 0 0 0 1.9 1.64c1.7984.6311 3.7775-.2447 4.52-2v18.36h14v-18.32c.7537 1.7433 2.7348 2.598 4.52 1.95a3.52 3.52 0 0 0 2-1.85 3.6 3.6 0 0 0 .16-2.78m-13.68-25a3.9 3.9 0 0 1 3.81 4c0 2-1 5-3.81 5s-3.81-3-3.81-5a3.9 3.9 0 0 1 3.81-4m-22 16c1.4101.0328 2.528 1.1999 2.5 2.61 0 1.39-.67 3.39-2.5 3.39s-2.5-2-2.5-3.39c-.0279-1.4101 1.09-2.5772 2.5-2.61m1 28v-8h-2v8H8v-10h6v10zm2-18v6h-6v-5l-2.59 7.19a1 1 0 1 1-1.88-.68l2.73-7.51a3 3 0 0 1 .36-.69 3 3 0 0 1 2.47-1.31H19.7l-.38 1a3 3 0 0 0-.15.57v.21a1 1 0 0 0 0 .16zm20 18v-14h-2v14h-4v-17h10v17zm10.74-17.07a1.59 1.59 0 0 1-2.94-.13l-3.8-10.44v8.64h-10v-8.64l-3.8 10.44c-.3004.8051-1.1861 1.2259-2 .95a1.55 1.55 0 0 1-.9-.82.94.94 0 0 1-.06-.15v-.07a1.63 1.63 0 0 1 0-1l1.31-3.71 2.61-7.16a6 6 0 0 1 .64-1.26 5.84 5.84 0 0 1 4.85-2.58h4.7a5.84 5.84 0 0 1 4.85 2.58c.2623.3934.4771.8163.64 1.26l4 10.87c.1286.404.0927.8424-.1 1.22" clip-rule="evenodd"/></svg>