<svg xmlns="http://www.w3.org/2000/svg" width="48" height="48" fill="none" viewBox="0 0 48 48"><path fill="currentColor" fill-rule="evenodd" d="M31.138 31.724c-1.547 0-3.086-.243-4.573-.724l-.582-.188-2.085 2.085-1.682-1.683L7.43 46H2v-5.429l2-2v-2.563l3-.002V32h4v-3h2.571l3.215-3.215-1.681-1.682 2.085-2.085-.189-.582c-.48-1.486-.724-3.025-.724-4.573C16.277 8.667 22.944 2 31.138 2 39.333 2 46 8.667 46 16.863c0 8.194-6.667 14.861-14.862 14.861m0-31.724C21.84 0 14.277 7.565 14.277 16.863c0 1.552.215 3.096.642 4.597l-2.644 2.643 1.683 1.682L12.742 27H9v3H5v4.016l-3-.023v3.75l-2 2V48h8.258l13.958-13.958 1.682 1.683 2.642-2.643c1.502.426 3.046.642 4.598.642C40.436 33.724 48 26.161 48 16.863S40.436 0 31.138 0M18.873 27.713l1.414 1.414-12.58 12.58-1.414-1.414zM35 15c-1.102 0-2-.897-2-2 0-1.102.898-2 2-2 1.103 0 2 .898 2 2 0 1.103-.897 2-2 2m0-6c-2.206 0-4 1.794-4 4s1.794 4 4 4 4-1.794 4-4-1.794-4-4-4" clip-rule="evenodd"/></svg>