<svg xmlns="http://www.w3.org/2000/svg" width="48" height="48" fill="none" viewBox="0 0 48 48"><path fill="currentColor" fill-rule="evenodd" d="M24 14c-5.5228 0-10 4.4772-10 10s4.4772 10 10 10h.05c5.5228-.0138 9.9888-4.5022 9.975-10.025S29.5228 13.9862 24 14m5.69 15.6A8 8 0 0 1 24 32c-4.4183 0-8-3.5817-8-8a7.86 7.86 0 0 1 2.32-5.64A8 8 0 0 1 24 16c4.4183 0 8 3.5817 8 8a7.89 7.89 0 0 1-2.31 5.6M27 24h2c0 2.7614-2.2386 5-5 5s-5-2.2386-5-5 2.2386-5 5-5v2a3 3 0 0 0-2.7584 4.1496A3 3 0 0 0 24 27c1.6569 0 3-1.3431 3-3m20.81-.52C45 17.48 36.12 8 24 8h-.11c-12.1.06-20.97 9.65-23.7 15.69l-.19.42.19.42C3 30.52 11.89 40 24 40h.11c12.13-.06 21-9.65 23.73-15.69l.19-.42zM24.07 38H24C12.74 38 4.66 28.91 2.21 24.1 4.62 19.25 12.65 10.05 23.93 10H24c11.24 0 19.31 9.09 21.76 13.9C43.38 28.75 35.35 38 24.07 38" clip-rule="evenodd"/></svg>