<svg xmlns="http://www.w3.org/2000/svg" width="48" height="48" fill="none" viewBox="0 0 48 48"><path fill="currentColor" fill-rule="evenodd" d="M31.36 27.12A7.87 7.87 0 0 0 32 24a8 8 0 0 0-2.3431-5.6569A8 8 0 0 0 24 16a7.93 7.93 0 0 0-3.06.62l-1.5-1.5A10 10 0 0 1 24 14c5.5228 0 10 4.4772 10 10a9.83 9.83 0 0 1-1.14 4.67zm-16.22-7.74A9.83 9.83 0 0 0 14 24.05c.0275 5.5033 4.4966 9.9501 10 9.95h.05a10 10 0 0 0 4.55-1.12l-1.5-1.5A7.93 7.93 0 0 1 24 32c-4.4183 0-8-3.5817-8-8a7.87 7.87 0 0 1 .64-3.16zM23.93 10H24c11.24 0 19.31 9.09 21.76 13.9a28.19 28.19 0 0 1-8.26 9.38l1.5 1.47a29 29 0 0 0 8.82-10.44l.19-.42-.19-.42C45 17.48 36.12 8 24 8h-.11a23.87 23.87 0 0 0-9.56 2.11l1.53 1.54A21.1 21.1 0 0 1 23.93 10m.14 28H24C12.73 38 4.66 28.91 2.21 24.1a28.19 28.19 0 0 1 8.26-9.38L9 13.25A29 29 0 0 0 .19 23.69l-.19.42.19.42C3 30.52 11.88 40 24 40h.11a23.87 23.87 0 0 0 9.56-2.11l-1.53-1.54A21.1 21.1 0 0 1 24.07 38M0 1.42 46.58 48 48 46.58 1.42 0z" clip-rule="evenodd"/></svg>