<svg xmlns="http://www.w3.org/2000/svg" width="48" height="48" fill="none" viewBox="0 0 48 48"><path fill="currentColor" fill-rule="evenodd" d="m23.26 39.35.65.56.65-.56c.59-.5 14.35-12.5 14.35-24.35 0-8.2843-6.7157-15-15-15s-15 6.7157-15 15c0 11.85 13.76 23.85 14.35 24.35M23.91 2c7.1797 0 13 5.8203 13 13 0 9.53-10.28 19.72-13 22.25-2.72-2.53-13-12.71-13-22.25 0-7.1797 5.8203-13 13-13m5 12c0-2.7614-2.2386-5-5-5s-5 2.2386-5 5 2.2386 5 5 5 5-2.2386 5-5m-8 0c0-1.6569 1.3431-3 3-3s3 1.3431 3 3-1.3431 3-3 3-3-1.3431-3-3m26.91 34H0l8.27-18h3.64v2H9.55L3.12 46H44.7l-6.43-14h-2.36v-2h3.64z" clip-rule="evenodd"/></svg>