<svg xmlns="http://www.w3.org/2000/svg" width="48" height="48" fill="none" viewBox="0 0 48 48"><path fill="currentColor" fill-rule="evenodd" d="m19.999 31.075-.005-14.173 11.583 7.081zm12.621-8.799-11.578-7.078a2 2 0 0 0-2.021-.038 2.003 2.003 0 0 0-1.022 1.745v14.17c0 .723.392 1.392 1.022 1.744.303.171.641.255.978.255.362 0 .725-.098 1.045-.294l11.578-7.092c.599-.367.956-1.006.955-1.707-.001-.702-.358-1.339-.957-1.705M24 46C11.869 46 2 36.131 2 24S11.869 2 24 2s22 9.869 22 22-9.869 22-22 22m0-46C10.767 0 0 10.766 0 24c0 13.233 10.767 24 24 24s24-10.767 24-24C48 10.766 37.233 0 24 0" clip-rule="evenodd"/></svg>