<svg xmlns="http://www.w3.org/2000/svg" width="48" height="48" fill="none" viewBox="0 0 48 48"><path fill="#000" fill-rule="evenodd" d="M47 5c0-2.2091-1.7909-4-4-4H5C2.7909 1 1 2.7909 1 5v16c0 1.195.5246 2.267 1.3555 3C1.5246 24.733 1 25.805 1 27v16c0 2.2091 1.7909 4 4 4h38c2.2091 0 4-1.7909 4-4V27c0-1.1953-.5253-2.267-1.3564-3C46.4747 23.267 47 22.1953 47 21zM3 5c0-1.1046.8954-2 2-2h38c1.1046 0 2 .8954 2 2v16c0 1.1046-.8954 2-2 2h-1.1904c-.5523 0-1 .4477-1 1s.4477 1 1 1H43c1.1046 0 2 .8954 2 2v16c0 1.1046-.8954 2-2 2H5c-1.1046 0-2-.8954-2-2V27c0-1.1046.8954-2 2-2h1.1904c.5523 0 1-.4477 1-1s-.4477-1-1-1H5c-1.1046 0-2-.8954-2-2zm35 19c0-7.7321-6.2679-14-14-14s-14 6.2679-14 14 6.2679 14 14 14 14-6.2679 14-14m-26.1338 0c0-6.7012 5.4326-12.1338 12.1338-12.1338 3.2475 0 6.1944 1.2787 8.3721 3.3565a1 1 0 0 0-.0586.0507L14.7559 31.8545c-1.8005-2.1169-2.8897-4.8578-2.8897-7.8545m4.3057 9.2676 17.5146-16.541c.0051-.0048.0088-.0108.0137-.0157 1.5275 2.0295 2.4336 4.5534 2.4336 7.2891 0 6.7012-5.4326 12.1338-12.1338 12.1338-2.9841 0-5.7149-1.0794-7.8281-2.8662"/></svg>