<svg xmlns="http://www.w3.org/2000/svg" width="48" height="48" fill="none" viewBox="0 0 48 48"><path fill="currentColor" fill-rule="evenodd" d="M45 22h-6V6.59L32.41 0H9v22H3c-1.6568 0-3 1.3431-3 3v12c0 1.6569 1.3432 3 3 3h4v-2H3c-.5523 0-1-.4477-1-1v-7h44v7c0 .5523-.4477 1-1 1h-4v2h4c1.6569 0 3-1.3431 3-3V25c0-1.6569-1.3431-3-3-3M33 3.41 35.59 6H33zM11 2h20v6h6v14H11zM2 28v-3c0-.5523.4477-1 1-1h42c.5523 0 1 .4477 1 1v3zm2-3h2v2H4zm3 0h2v2H7zm34 10v-2H7v2h2v13h30V35zm-4 11H11V35h26zm-4-8H15v-2h18zm0 3H15v-2h18zm-18 3v-2h18v2z" clip-rule="evenodd"/></svg>