<svg xmlns="http://www.w3.org/2000/svg" width="48" height="48" fill="none" viewBox="0 0 48 48"><path fill="currentColor" fill-rule="evenodd" d="M48 38V0H0v38h16v8h-4v2h24v-2h-4v-8zM2 36v-5h17v-2H2V2h44v27H29v2h17v5zm28 10H18v-8h12zm4-21c1.6569 0 3-1.3431 3-3v-6H11v6c0 1.6569 1.3431 3 3 3h6v1a2 2 0 0 0 1 1.72V34h2v-6h2v6h2v-6.28A2 2 0 0 0 28 26v-1zm-20-2c-.5523 0-1-.4477-1-1v-4h22v4c0 .5523-.4477 1-1 1zm12 3h-4v-1h4zM13 15h-2V8h2zm0-8h-2V4h2zm4 8h-2v-2h2zm0-3h-2V5h2zm4 3h-2v-4h2zm0-5h-2V7h2zm12 5h-2v-1h2zm0-2h-2V6h2zm-4 2h-2v-3h2zm0-4h-2V9h2zm-4 4h-2V7h2zm0-9h-2V5h2zm12 9h-2V6h2zm0-10h-2V4h2z" clip-rule="evenodd"/></svg>