<svg xmlns="http://www.w3.org/2000/svg" width="48" height="48" fill="none" viewBox="0 0 48 48"><path fill="currentColor" fill-rule="evenodd" d="M24.5 0 6 10.35v18.42c0 12.82 17.43 18.87 18.18 19.12l.32.11.32-.11C25.56 47.64 43 41.65 43 28.77V10.35zm0 45.88c-1.58-.59-8.64-3.43-13-8.49v-1.7c-.0034-1.6852 1.1443-3.1548 2.78-3.56l3.93-1a5.66 5.66 0 0 0 3.63-2.87 5.69 5.69 0 0 0 5.32 0 5.66 5.66 0 0 0 3.63 2.87l3.93 1c1.6357.4052 2.7834 1.8748 2.78 3.56v1.71c-4.36 5.07-11.42 7.9-13 8.48m0-18.94c-3.84 0-5.5-5.69-5.5-8.59 0-3.0376 2.4624-5.5 5.5-5.5s5.5 2.4624 5.5 5.5c0 2.9-1.66 8.59-5.5 8.59M41 28.77a12.09 12.09 0 0 1-1.59 5.92 5.67 5.67 0 0 0-4.2-4.5l-3.93-1A3.67 3.67 0 0 1 28.77 27c2.24-2.31 3.23-6.21 3.23-8.68 0-4.1421-3.3579-7.5-7.5-7.5s-7.5 3.3579-7.5 7.5c0 2.47 1 6.37 3.23 8.68a3.67 3.67 0 0 1-2.51 2.18l-3.93 1a5.66 5.66 0 0 0-4.2 4.49A12.05 12.05 0 0 1 8 28.77V11.52l16.5-9.23L41 11.52z" clip-rule="evenodd"/></svg>