<svg xmlns="http://www.w3.org/2000/svg" width="48" height="48" fill="none" viewBox="0 0 48 48"><path fill="#000" fill-rule="evenodd" d="M8 0a1 1 0 0 0-.9864.8356l-.3124 1.8743a8 8 0 0 0-1.364.7887l-1.7806-.6671a1 1 0 0 0-1.2169.4364l-2 3.4642a1 1 0 0 0 .2305 1.272l1.4681 1.2086a8.1 8.1 0 0 0 0 1.5746L.5702 11.9959a1 1 0 0 0-.2305 1.272l2 3.4641a1 1 0 0 0 1.2169.4365l1.7807-.6671a8 8 0 0 0 1.3639.7887l.3124 1.8743A1 1 0 0 0 8 20h4a1 1 0 0 0 .9864-.8356l.3123-1.8743a8 8 0 0 0 1.364-.7887l1.7807.6671a1 1 0 0 0 1.2168-.4364l2-3.4641a1 1 0 0 0-.2304-1.2721l-1.4682-1.2086a8.07 8.07 0 0 0 0-1.5746l1.4682-1.2086a1 1 0 0 0 .2304-1.272l-2-3.4641a1 1 0 0 0-1.2168-.4365l-1.7807.6671a8 8 0 0 0-1.364-.7887L12.9864.8356A1 1 0 0 0 12 0zm10 1c0-.5523.4477-1 1-1h20c2.2091 0 4 1.7909 4 4v9c0 1.1947-.5238 2.2671-1.3542 3C42.4762 16.7329 43 17.8053 43 19v9c0 2.2091-1.7909 4-4 4H9c-2.2091 0-4-1.7909-4-4v-5c0-.5523.4477-1 1-1s1 .4477 1 1v5c0 1.1046.8954 2 2 2h30c1.1046 0 2-.8954 2-2v-9c0-1.1046-.8954-2-2-2H22c-.5523 0-1-.4477-1-1s.4477-1 1-1h17c1.1046 0 2-.8954 2-2V4c0-1.1046-.8954-2-2-2H19c-.5523 0-1-.4477-1-1M8.8471 2h2.3057l.3605 2.1628.5472.2a6 6 0 0 1 1.7889 1.0346l.4469.3742 2.0554-.77 1.1529 1.9968-1.6929 1.3937.0996.5732C15.9695 9.3008 16 9.6464 16 10s-.0305.6992-.0887 1.0347l-.0996.5733 1.6929 1.3936-1.1529 1.9968-2.0554-.77-.447.3742a5.99 5.99 0 0 1-1.7888 1.0345l-.5472.2001L11.1528 18H8.8471l-.3605-2.1628-.5472-.2001a5.99 5.99 0 0 1-1.7888-1.0345l-.447-.3742-2.0554.77-1.1529-1.9968 1.693-1.3937-.0996-.5732A6.05 6.05 0 0 1 4 10c0-.3536.0304-.6992.0887-1.0347l.0995-.5733-1.6929-1.3936 1.153-1.9968 2.0553.77.447-.3742a5.99 5.99 0 0 1 1.7888-1.0345l.5472-.2001zM10 6c-2.2091 0-4 1.7909-4 4s1.7909 4 4 4 4-1.7909 4-4-1.7909-4-4-4m15 2c0-.5523.4477-1 1-1h1c.5523 0 1 .4477 1 1v1c0 .5523-.4477 1-1 1h-1c-.5523 0-1-.4477-1-1zm5 0c0-.5523.4477-1 1-1h1c.5523 0 1 .4477 1 1v1c0 .5523-.4477 1-1 1h-1c-.5523 0-1-.4477-1-1zm5 0c0-.5523.4477-1 1-1h1c.5523 0 1 .4477 1 1v1c0 .5523-.4477 1-1 1h-1c-.5523 0-1-.4477-1-1zM8 10c0-1.1046.8954-2 2-2s2 .8954 2 2-.8954 2-2 2-2-.8954-2-2m18 12c-.5523 0-1 .4477-1 1v1c0 .5523.4477 1 1 1h1c.5523 0 1-.4477 1-1v-1c0-.5523-.4477-1-1-1zm5 0c-.5523 0-1 .4477-1 1v1c0 .5523.4477 1 1 1h1c.5523 0 1-.4477 1-1v-1c0-.5523-.4477-1-1-1zm5 0c-.5523 0-1 .4477-1 1v1c0 .5523.4477 1 1 1h1c.5523 0 1-.4477 1-1v-1c0-.5523-.4477-1-1-1zM23 33.5a.5.5 0 0 1 .5-.5h1a.5.5 0 0 1 .5.5v1a.5.5 0 0 1-.5.5h-1a.5.5 0 0 1-.5-.5zm.5 3.5a.5.5 0 0 0-.5.5v1a.5.5 0 0 0 .5.5h1a.5.5 0 0 0 .5-.5v-1a.5.5 0 0 0-.5-.5zm.5 3c-2.2091 0-4 1.7909-4 4s1.7909 4 4 4 4-1.7909 4-4-1.7909-4-4-4m-2 4c0-1.1046.8954-2 2-2s2 .8954 2 2-.8954 2-2 2-2-.8954-2-2m-22-.5a.5.5 0 0 1 .5-.5h1a.5.5 0 0 1 .5.5v1a.5.5 0 0 1-.5.5h-1a.5.5 0 0 1-.5-.5zm4 0a.5.5 0 0 1 .5-.5h1a.5.5 0 0 1 .5.5v1a.5.5 0 0 1-.5.5h-1a.5.5 0 0 1-.5-.5zm4 0a.5.5 0 0 1 .5-.5h1a.5.5 0 0 1 .5.5v1a.5.5 0 0 1-.5.5h-1a.5.5 0 0 1-.5-.5zm4 0a.5.5 0 0 1 .5-.5h1a.5.5 0 0 1 .5.5v1a.5.5 0 0 1-.5.5h-1a.5.5 0 0 1-.5-.5zm4 0a.5.5 0 0 1 .5-.5h1a.5.5 0 0 1 .5.5v1a.5.5 0 0 1-.5.5h-1a.5.5 0 0 1-.5-.5zm14.5-.5a.5.5 0 0 0-.5.5v1a.5.5 0 0 0 .5.5h1a.5.5 0 0 0 .5-.5v-1a.5.5 0 0 0-.5-.5zm4 0a.5.5 0 0 0-.5.5v1a.5.5 0 0 0 .5.5h1a.5.5 0 0 0 .5-.5v-1a.5.5 0 0 0-.5-.5zm4 0a.5.5 0 0 0-.5.5v1a.5.5 0 0 0 .5.5h1a.5.5 0 0 0 .5-.5v-1a.5.5 0 0 0-.5-.5zm4 0a.5.5 0 0 0-.5.5v1a.5.5 0 0 0 .5.5h1a.5.5 0 0 0 .5-.5v-1a.5.5 0 0 0-.5-.5zm4 0a.5.5 0 0 0-.5.5v1a.5.5 0 0 0 .5.5h1a.5.5 0 0 0 .5-.5v-1a.5.5 0 0 0-.5-.5z"/></svg>