<svg width="48" height="48" viewBox="0 0 48 48" fill="none" xmlns="http://www.w3.org/2000/svg">
<g clip-path="url(#clip0_8215_3372)">
<path d="M19 0C18.4477 0 18 0.447715 18 1C18 1.55228 18.4477 2 19 2H39C40.1046 2 41 2.89543 41 4V13C41 14.1046 40.1046 15 39 15H22C21.4477 15 21 15.4477 21 16C21 16.5523 21.4477 17 22 17H39C40.1046 17 41 17.8954 41 19V28C41 29.1046 40.1046 30 39 30H9C7.89543 30 7 29.1046 7 28V23C7 22.4477 6.55228 22 6 22C5.44772 22 5 22.4477 5 23V28C5 30.2091 6.79086 32 9 32H39C41.2091 32 43 30.2091 43 28V19C43 17.8053 42.4762 16.7329 41.6458 16C42.4762 15.2671 43 14.1947 43 13V4C43 1.79086 41.2091 0 39 0H19Z" fill="black"/>
<path fill-rule="evenodd" clip-rule="evenodd" d="M20 44C20 41.7909 21.7909 40 24 40C26.2091 40 28 41.7909 28 44C28 46.2091 26.2091 48 24 48C21.7909 48 20 46.2091 20 44ZM24 42C22.8954 42 22 42.8954 22 44C22 45.1046 22.8954 46 24 46C25.1046 46 26 45.1046 26 44C26 42.8954 25.1046 42 24 42Z" fill="black"/>
<path d="M26 7C25.4477 7 25 7.44772 25 8V9C25 9.55228 25.4477 10 26 10H27C27.5523 10 28 9.55229 28 9V8C28 7.44772 27.5523 7 27 7H26Z" fill="black"/>
<path d="M25 23C25 22.4477 25.4477 22 26 22H27C27.5523 22 28 22.4477 28 23V24C28 24.5523 27.5523 25 27 25H26C25.4477 25 25 24.5523 25 24V23Z" fill="black"/>
<path d="M23.5 33C23.2239 33 23 33.2239 23 33.5V34.5C23 34.7761 23.2239 35 23.5 35H24.5C24.7761 35 25 34.7761 25 34.5V33.5C25 33.2239 24.7761 33 24.5 33H23.5Z" fill="black"/>
<path d="M23 37.5C23 37.2239 23.2239 37 23.5 37H24.5C24.7761 37 25 37.2239 25 37.5V38.5C25 38.7761 24.7761 39 24.5 39H23.5C23.2239 39 23 38.7761 23 38.5V37.5Z" fill="black"/>
<path d="M0.5 43C0.223858 43 0 43.2239 0 43.5V44.5C0 44.7761 0.223858 45 0.5 45H1.5C1.77614 45 2 44.7761 2 44.5V43.5C2 43.2239 1.77614 43 1.5 43H0.5Z" fill="black"/>
<path d="M30 43.5C30 43.2239 30.2239 43 30.5 43H31.5C31.7761 43 32 43.2239 32 43.5V44.5C32 44.7761 31.7761 45 31.5 45H30.5C30.2239 45 30 44.7761 30 44.5V43.5Z" fill="black"/>
<path d="M8.5 43C8.22386 43 8 43.2239 8 43.5V44.5C8 44.7761 8.22386 45 8.5 45H9.5C9.77614 45 10 44.7761 10 44.5V43.5C10 43.2239 9.77614 43 9.5 43H8.5Z" fill="black"/>
<path d="M38 43.5C38 43.2239 38.2239 43 38.5 43H39.5C39.7761 43 40 43.2239 40 43.5V44.5C40 44.7761 39.7761 45 39.5 45H38.5C38.2239 45 38 44.7761 38 44.5V43.5Z" fill="black"/>
<path d="M4.5 43C4.22386 43 4 43.2239 4 43.5V44.5C4 44.7761 4.22386 45 4.5 45H5.5C5.77614 45 6 44.7761 6 44.5V43.5C6 43.2239 5.77614 43 5.5 43H4.5Z" fill="black"/>
<path d="M34 43.5C34 43.2239 34.2239 43 34.5 43H35.5C35.7761 43 36 43.2239 36 43.5V44.5C36 44.7761 35.7761 45 35.5 45H34.5C34.2239 45 34 44.7761 34 44.5V43.5Z" fill="black"/>
<path d="M12.5 43C12.2239 43 12 43.2239 12 43.5V44.5C12 44.7761 12.2239 45 12.5 45H13.5C13.7761 45 14 44.7761 14 44.5V43.5C14 43.2239 13.7761 43 13.5 43H12.5Z" fill="black"/>
<path d="M42 43.5C42 43.2239 42.2239 43 42.5 43H43.5C43.7761 43 44 43.2239 44 43.5V44.5C44 44.7761 43.7761 45 43.5 45H42.5C42.2239 45 42 44.7761 42 44.5V43.5Z" fill="black"/>
<path d="M16.5 43C16.2239 43 16 43.2239 16 43.5V44.5C16 44.7761 16.2239 45 16.5 45H17.5C17.7761 45 18 44.7761 18 44.5V43.5C18 43.2239 17.7761 43 17.5 43H16.5Z" fill="black"/>
<path d="M46 43.5C46 43.2239 46.2239 43 46.5 43H47.5C47.7761 43 48 43.2239 48 43.5V44.5C48 44.7761 47.7761 45 47.5 45H46.5C46.2239 45 46 44.7761 46 44.5V43.5Z" fill="black"/>
<path d="M31 7C30.4477 7 30 7.44772 30 8V9C30 9.55228 30.4477 10 31 10H32C32.5523 10 33 9.55229 33 9V8C33 7.44772 32.5523 7 32 7H31Z" fill="black"/>
<path d="M30 23C30 22.4477 30.4477 22 31 22H32C32.5523 22 33 22.4477 33 23V24C33 24.5523 32.5523 25 32 25H31C30.4477 25 30 24.5523 30 24V23Z" fill="black"/>
<path d="M36 7C35.4477 7 35 7.44772 35 8V9C35 9.55228 35.4477 10 36 10H37C37.5523 10 38 9.55229 38 9V8C38 7.44772 37.5523 7 37 7H36Z" fill="black"/>
<path d="M35 23C35 22.4477 35.4477 22 36 22H37C37.5523 22 38 22.4477 38 23V24C38 24.5523 37.5523 25 37 25H36C35.4477 25 35 24.5523 35 24V23Z" fill="black"/>
<path fill-rule="evenodd" clip-rule="evenodd" d="M6 10C6 7.79086 7.79086 6 10 6C12.2091 6 14 7.79086 14 10C14 12.2091 12.2091 14 10 14C7.79086 14 6 12.2091 6 10ZM10 8C8.89543 8 8 8.89543 8 10C8 11.1046 8.89543 12 10 12C11.1046 12 12 11.1046 12 10C12 8.89543 11.1046 8 10 8Z" fill="black"/>
<path fill-rule="evenodd" clip-rule="evenodd" d="M7.99997 0C7.51113 0 7.09394 0.353413 7.01358 0.835601L6.70119 2.7099C6.21892 2.92843 5.7624 3.19327 5.33729 3.49863L3.55657 2.83151C3.0988 2.66001 2.58414 2.8446 2.33972 3.26795L0.339724 6.73205C0.0953045 7.1554 0.192774 7.6934 0.570179 8.00409L2.03829 9.21269C2.01293 9.47193 1.99997 9.73458 1.99997 10C1.99997 10.2654 2.01293 10.5281 2.03829 10.7873L0.570179 11.9959C0.192774 12.3066 0.0953045 12.8446 0.339724 13.2679L2.33972 16.732C2.58414 17.1554 3.0988 17.34 3.55657 17.1685L5.33728 16.5014C5.7624 16.8067 6.21891 17.0716 6.70119 17.2901L7.01358 19.1644C7.09394 19.6466 7.51113 20 7.99997 20H12C12.4888 20 12.906 19.6466 12.9864 19.1644L13.2987 17.2901C13.781 17.0716 14.2375 16.8067 14.6627 16.5014L16.4434 17.1685C16.9011 17.34 17.4158 17.1554 17.6602 16.7321L19.6602 13.2679C19.9046 12.8446 19.8072 12.3066 19.4298 11.9959L17.9616 10.7873C17.987 10.5281 18 10.2654 18 10C18 9.73459 17.987 9.47194 17.9616 9.2127L19.4298 8.0041C19.8072 7.69341 19.9046 7.15541 19.6602 6.73206L17.6602 3.26796C17.4158 2.84461 16.9011 2.66002 16.4434 2.83152L14.6627 3.49863C14.2375 3.19327 13.781 2.92843 13.2987 2.7099L12.9864 0.835601C12.906 0.353413 12.4888 0 12 0H7.99997ZM8.8471 2H11.1528L11.5133 4.16281L12.0605 4.36289C12.7176 4.60316 13.3217 4.9555 13.8494 5.39736L14.2963 5.77163L16.3517 5.00159L17.5046 6.99843L15.8117 8.39205L15.9113 8.96534C15.9695 9.30079 16 9.64643 16 10C16 10.3536 15.9695 10.6992 15.9113 11.0347L15.8117 11.608L17.5046 13.0016L16.3517 14.9984L14.2963 14.2284L13.8493 14.6026C13.3217 15.0445 12.7176 15.3968 12.0605 15.6371L11.5133 15.8372L11.1528 18H8.8471L8.48663 15.8372L7.93943 15.6371C7.28232 15.3968 6.67826 15.0445 6.15059 14.6026L5.70364 14.2284L3.64821 14.9984L2.49534 13.0016L4.18821 11.6079L4.08868 11.0347C4.03044 10.6992 3.99997 10.3536 3.99997 10C3.99997 9.64643 4.03044 9.30079 4.08868 8.96533L4.18821 8.39205L2.49534 6.99842L3.64821 5.00158L5.70365 5.77162L6.15059 5.39736C6.67826 4.9555 7.28232 4.60316 7.93943 4.36289L8.48663 4.16281L8.8471 2Z" fill="black"/>
</g>
<defs>
<clipPath id="clip0_8215_3372">
<rect width="48" height="48" fill="white"/>
</clipPath>
</defs>
</svg>
