<svg xmlns="http://www.w3.org/2000/svg" width="48" height="48" fill="none" viewBox="0 0 48 48"><path fill="#000" d="M13.074 13.6044c0-.5523.4478-1 1-1h2.5653c.5522 0 1 .4477 1 1v2.5652c0 .5523-.4478 1-1 1H14.074c-.5522 0-1-.4477-1-1z"/><path fill="#000" fill-rule="evenodd" d="M7.678 10.208c0-1.657 1.343-3 3-3h9.358c1.657 0 3 1.343 3 3v9.358c0 1.657-1.343 3-3 3h-9.358c-1.657 0-3-1.343-3-3zm3-1c-.552 0-1 .448-1 1v9.358c0 .552.448 1 1 1h9.358c.552 0 1-.448 1-1v-9.358c0-.552-.448-1-1-1zm-3 19.226c0-1.657 1.343-3 3-3h9.358c1.657 0 3 1.343 3 3v9.358c0 1.657-1.343 3-3 3h-9.358c-1.657 0-3-1.343-3-3zm3-1c-.552 0-1 .448-1 1v9.358c0 .552.448 1 1 1h9.358c.552 0 1-.448 1-1v-9.358c0-.552-.448-1-1-1zM29.202 7.208c-1.657 0-3 1.343-3 3v9.358c0 1.657 1.343 3 3 3h9.358c1.657 0 3-1.343 3-3v-9.358c0-1.657-1.343-3-3-3zm-1 3c0-.552.448-1 1-1h9.358c.552 0 1 .448 1 1v9.358c0 .552-.448 1-1 1h-9.358c-.552 0-1-.448-1-1z" clip-rule="evenodd"/><path fill="#000" d="M28.202 26.434c-.552 0-1 .448-1 1v2.565c0 .552.448 1 1 1h2.565c.552 0 1-.448 1-1v-2.565c0-.552-.448-1-1-1zm3.397 5.396c0-.552.448-1 1-1h2.565c.552 0 1 .448 1 1v2.565c0 .552-.448 1-1 1h-2.565c-.552 0-1-.448-1-1zm5.396-5.565c-.552 0-1 .448-1 1v2.565c0 .552.448 1 1 1h2.565c.552 0 1-.448 1-1v-2.565c0-.552-.448-1-1-1zm-9.793 10.131c0-.552.448-1 1-1h2.565c.552 0 1 .448 1 1v2.565c0 .552-.448 1-1 1h-2.565c-.552 0-1-.448-1-1zm9.793-1c-.552 0-1 .448-1 1v2.565c0 .552.448 1 1 1h2.565c.552 0 1-.448 1-1v-2.565c0-.552-.448-1-1-1z"/></svg>