<svg xmlns="http://www.w3.org/2000/svg" width="48" height="48" fill="none" viewBox="0 0 48 48"><path fill="#000" d="M4.276 13.02c.552 0 1-.448 1-1V6.232c0-.552.448-1 1-1h6.202c.552 0 1-.448 1-1s-.448-1-1-1H6.276c-1.657 0-3 1.343-3 3v5.787c0 .552.448 1 1 1m39.944.001c.552 0 1-.448 1-1V6.232c0-1.657-1.343-3-3-3h-6.201c-.552 0-1 .448-1 1s.448 1 1 1h6.201c.552 0 1 .448 1 1v5.787c0 .552.448 1 1 1m-31.043-3.09c-1.657 0-3 1.343-3 3v9.128c0 .552.448 1 1 1s1-.448 1-1v-9.128c0-.552.448-1 1-1h22.141c.552 0 1 .448 1 1v9.128c0 .552.448 1 1 1s1-.448 1-1v-9.128c0-1.657-1.343-3-3-3z"/><path fill="#000" fill-rule="evenodd" d="M10.1773 27.6587H5.8265c-.5523 0-1-.4477-1-1s.4477-1 1-1h36.8427c.5523 0 1 .4478 1 1s-.4477 1-1 1h-4.3509v7.4118c0 1.6568-1.3431 3-3 3h-22.141c-1.6568 0-3-1.3432-3-3zm2 0v7.4118c0 .5522.4477 1 1 1h22.141c.5523 0 1-.4478 1-1v-7.4118z" clip-rule="evenodd"/><path fill="#000" d="M5.276 35.98c0-.552-.448-1-1-1s-1 .448-1 1v5.787c0 1.657 1.343 3 3 3h6.202c.552 0 1-.448 1-1s-.448-1-1-1H6.276c-.552 0-1-.448-1-1zm39.944 0c0-.552-.448-1-1-1s-1 .448-1 1v5.787c0 .552-.448 1-1 1h-6.201c-.552 0-1 .448-1 1s.448 1 1 1h6.201c1.657 0 3-1.343 3-3z"/></svg>