<svg xmlns="http://www.w3.org/2000/svg" width="48" height="48" fill="none" viewBox="0 0 48 48"><path fill="currentColor" fill-rule="evenodd" d="m29.4778 20.63-.87-.5-3.54 6.11a4.18 4.18 0 0 0-1-.15 3.88 3.88 0 0 0-1 .16l-3.52-6.11-.87.5a10.83 10.83 0 0 0-5.41 9.36v1h7a3.86 3.86 0 0 0 1 1.78l-3.5 6.07.87.5a10.82 10.82 0 0 0 10.77 0l.87-.5-3.5-6.07a3.86 3.86 0 0 0 1-1.81h7V30a10.86 10.86 0 0 0-5.3-9.37m-3.49 9.37a1.9 1.9 0 0 1-.82 1.56l-.15.09a1.94 1.94 0 0 1-1.91 0l-.14-.08a1.92 1.92 0 1 1 3-1.56zm-9.54-4.42a8.68 8.68 0 0 1 2.37-2.67l2.47 4.28a4.07 4.07 0 0 0-1 1.8h-4.97a8.81 8.81 0 0 1 1.13-3.4zm11.11 12.49a8.8 8.8 0 0 1-7 0l2.51-4.3a3.88 3.88 0 0 0 1 .16c.1665.0104.3335.0104.5 0l.5-.1zm.32-9.07a4 4 0 0 0-1-1.79l2.46-4.27a8.83 8.83 0 0 1 3.48 6.06zm2.19-16V6h1c1.6569 0 3-1.3431 3-3s-1.3431-3-3-3h-14c-1.6568 0-3 1.3432-3 3s1.3432 3 3 3h1v7C10.1223 15.774 5.1594 23.6832 6.118 32.0443c.9585 8.3611 7.5827 14.9419 15.9498 15.8457.7.07 1.39.11 2.08.11a17.75 17.75 0 0 0 12-4.59c4.7484-4.2496 6.896-10.6931 5.6466-16.9418C40.5451 20.2196 36.0851 15.0972 30.0678 13m-13-9c-.5523 0-1-.4477-1-1s.4477-1 1-1h14c.5523 0 1 .4477 1 1s-.4477 1-1 1zm17.67 37.92c-4.8771 4.3694-11.9243 5.326-17.7897 2.4148s-9.3649-9.1024-8.834-15.629S13.0991 16.635 19.3578 14.71l.71-.22V6h8v8.49l.7.22c5.5179 1.6891 9.6987 6.2186 10.9413 11.8539 1.2427 5.6352-.6455 11.503-4.9413 15.3561z" clip-rule="evenodd"/></svg>