<svg xmlns="http://www.w3.org/2000/svg" width="48" height="48" fill="none" viewBox="0 0 48 48"><path fill="#087bb5" d="M23 30c0-2.832.911-4.414 3.279-6.88l.214-.223C28.384 20.926 29 19.875 29 18c0-2.761-2.239-5-5-5s-5 2.239-5 5h-2c0-3.866 3.134-7 7-7s7 3.134 7 7c0 2.527-.846 3.971-3.064 6.282l-.214.223C25.679 26.633 25 27.811 25 30zm2 6v-2h-2v2z"/><path fill="#087bb5" fill-rule="evenodd" d="M0 24c0 13.2548 10.7452 24 24 24s24-10.7452 24-24S37.2548 0 24 0 0 10.7452 0 24m46 0c0 12.1503-9.8497 22-22 22S2 36.1503 2 24 11.8497 2 24 2s22 9.8497 22 22" clip-rule="evenodd"/></svg>