<svg xmlns="http://www.w3.org/2000/svg" width="48" height="48" fill="none" viewBox="0 0 48 48"><path fill="currentColor" fill-rule="evenodd" d="M48 8.9957v9h-9v-2h5.48C40.8189 6.6579 31.3056.9783 21.3487 2.1862 11.3918 3.394 3.5123 11.1834 2.19 21.1257l-2-.26C1.5993 10.171 9.9707 1.7307 20.6534.2335S41.7051 4.5505 46 14.4457v-5.45zm-24 37c-9.0647.0169-17.2048-5.5476-20.48-14H9v-2H0v9h2v-5.45c4.3052 9.8758 14.6637 15.6726 25.3327 14.1767s19.034-9.9178 20.4573-20.5967l-2-.26C44.3301 37.7929 35.0243 45.9628 24 45.9957" clip-rule="evenodd"/></svg>