<svg xmlns="http://www.w3.org/2000/svg" width="48" height="48" fill="none" viewBox="0 0 48 48"><path fill="currentColor" fill-rule="evenodd" d="M22 28h-2v2h16v-2h-2v-3h11V0H11v25h11zm10 0h-8v-3h8zM43 2v17H13V2zM13 23v-2h30v2zm12-7h-1v2h8v-2h-1v-1h5V3H20v12h5zm4 0h-2v-1h2zm-7-3V5h12v8zm26 18.31v.23a3.81 3.81 0 0 1-1.54 3.05l-16.41 12A7 7 0 0 1 25.9 48a6.94 6.94 0 0 1-2.11-.33L12.21 44a7 7 0 0 0-5.49.54l-5.24 2.88-1-1.75 5.23-2.88a9.06 9.06 0 0 1 7.06-.7l11.58 3.68a5 5 0 0 0 4.52-.77l16.41-12a1.77 1.77 0 0 0 .72-1.46v-.23a1.78 1.78 0 0 0-2.68-1.53l-11.77 7q.069.1051.12.22v.07c.5904 1.6936-.2492 3.5529-1.91 4.23h-.13a3.35 3.35 0 0 1-1.28.25 3.43 3.43 0 0 1-1.05-.16l-9.88-3.24.62-1.9 9.96 3.3c.3029.1144.6371.1144.94 0l.13-.06c.6654-.2693 1.0101-1.0067.79-1.69a1.33 1.33 0 0 0-.8-.82L15 31.46a8.93 8.93 0 0 0-6.59 0l-7 2.8-.78-1.83 7.05-2.8a11 11 0 0 1 8.06 0l14 5.45c.157.0661.3076.1464.45.24L42.3 28.1a3.77 3.77 0 0 1 5.7 3.21" clip-rule="evenodd"/></svg>