<svg xmlns="http://www.w3.org/2000/svg" width="48" height="48" fill="none" viewBox="0 0 48 48"><path fill="currentColor" fill-rule="evenodd" d="M24 0C10.7452 0 0 10.7452 0 24s10.7452 24 24 24 24-10.7452 24-24S37.2548 0 24 0m18.72 12.46-10.84 5.4a10.23 10.23 0 0 0-1.74-1.74l5.4-10.84a22 22 0 0 1 7.18 7.18M16 24c0-4.4183 3.5817-8 8-8s8 3.5817 8 8-3.5817 8-8 8-8-3.5817-8-8m8-22a21.83 21.83 0 0 1 9.8 2.31l-5.36 10.74c-3.8418-1.8929-8.4624-1.1291-11.4908 1.8992-3.0283 3.0284-3.7921 7.649-1.8992 11.4908L4.31 33.8c-3.3925-6.8185-3.0173-14.9065.992-21.3816S16.3842 2.0024 24 2M5.28 35.54l10.84-5.4a10.23 10.23 0 0 0 1.74 1.74l-5.4 10.84a22 22 0 0 1-7.18-7.18M24 46a21.83 21.83 0 0 1-9.8-2.31l5.36-10.74c3.8459 1.9304 8.4954 1.184 11.5439-1.8531S34.9161 23.413 33 19.56l10.74-5.36c3.3965 6.8264 3.0162 14.9248-1.0051 21.4029S31.6247 46.015 24 46m6-22c0-3.3137-2.6863-6-6-6s-6 2.6863-6 6 2.6863 6 6 6 6-2.6863 6-6m-10 0c0-2.2091 1.7909-4 4-4s4 1.7909 4 4-1.7909 4-4 4-4-1.7909-4-4" clip-rule="evenodd"/></svg>