<svg width="48" height="48" viewBox="0 0 48 48" fill="none" xmlns="http://www.w3.org/2000/svg">
<g clip-path="url(#clip0_8215_3316)">
<path d="M23 8C23 7.44772 23.4477 7 24 7H29C29.5523 7 30 7.44772 30 8C30 8.55229 29.5523 9 29 9H24C23.4477 9 23 8.55229 23 8Z" fill="black"/>
<path d="M23 11C23 10.4477 23.4477 10 24 10H34C34.5523 10 35 10.4477 35 11C35 11.5523 34.5523 12 34 12H24C23.4477 12 23 11.5523 23 11Z" fill="black"/>
<path d="M23 17C23 16.4477 23.4477 16 24 16H29C29.5523 16 30 16.4477 30 17C30 17.5523 29.5523 18 29 18H24C23.4477 18 23 17.5523 23 17Z" fill="black"/>
<path d="M23 20C23 19.4477 23.4477 19 24 19H34C34.5523 19 35 19.4477 35 20C35 20.5523 34.5523 21 34 21H24C23.4477 21 23 20.5523 23 20Z" fill="black"/>
<path d="M19.6644 6.25259C20.0771 6.61951 20.1143 7.25158 19.7474 7.66436L15.7474 12.1644C15.5644 12.3702 15.3047 12.4915 15.0294 12.4996C14.7541 12.5077 14.4876 12.4019 14.2929 12.2071L12.2929 10.2071C11.9024 9.81658 11.9024 9.18342 12.2929 8.79289C12.6834 8.40237 13.3166 8.40237 13.7071 8.79289L14.9572 10.043L18.2526 6.33564C18.6195 5.92285 19.2516 5.88567 19.6644 6.25259Z" fill="black"/>
<path d="M13.7071 15.2929C13.3166 14.9024 12.6834 14.9024 12.2929 15.2929C11.9024 15.6834 11.9024 16.3166 12.2929 16.7071L14.0858 18.5L12.2929 20.2929C11.9024 20.6834 11.9024 21.3166 12.2929 21.7071C12.6834 22.0976 13.3166 22.0976 13.7071 21.7071L15.5 19.9142L17.2929 21.7071C17.6834 22.0976 18.3166 22.0976 18.7071 21.7071C19.0976 21.3166 19.0976 20.6834 18.7071 20.2929L16.9142 18.5L18.7071 16.7071C19.0976 16.3166 19.0976 15.6834 18.7071 15.2929C18.3166 14.9024 17.6834 14.9024 17.2929 15.2929L15.5 17.0858L13.7071 15.2929Z" fill="black"/>
<path fill-rule="evenodd" clip-rule="evenodd" d="M41 3V13.5858L46.8284 19.4142C47.5786 20.1644 48 21.1818 48 22.2426V44C48 46.2091 46.2091 48 44 48H4C1.79086 48 0 46.2091 0 44V22.2426C0 21.1818 0.421426 20.1644 1.17157 19.4142L7 13.5858V3C7 1.34315 8.34315 0 10 0H38C39.6569 0 41 1.34315 41 3ZM9 3C9 2.44772 9.44771 2 10 2H38C38.5523 2 39 2.44772 39 3V26.5858L33 32.5858L27.5355 27.1213C25.5829 25.1687 22.4171 25.1687 20.4645 27.1213L15 32.5858L9 26.5858V3ZM15.7077 34.7065C15.7075 34.7067 15.7079 34.7063 15.7077 34.7065C15.7075 34.7067 15.7067 34.7075 15.7065 34.7077L4.41421 46H43.5858L32.2938 34.7081C32.2935 34.7077 32.2932 34.7074 32.2929 34.7071C32.2926 34.7068 32.2923 34.7065 32.2919 34.7062L26.1213 28.5355C24.9497 27.364 23.0503 27.364 21.8787 28.5355L15.7077 34.7065ZM34.4142 34L45.6062 45.1919C45.8536 44.8591 46 44.4466 46 44V22.4142L34.4142 34ZM2.39384 45.1919L13.5858 34L2 22.4142V44C2 44.4466 2.1464 44.8591 2.39384 45.1919ZM45.0858 20.5L41 24.5858V16.4142L45.0858 20.5ZM7 16.4142L2.91421 20.5L7 24.5858V16.4142Z" fill="black"/>
</g>
<defs>
<clipPath id="clip0_8215_3316">
<rect width="48" height="48" fill="white"/>
</clipPath>
</defs>
</svg>
