<svg xmlns="http://www.w3.org/2000/svg" width="48" height="48" fill="none" viewBox="0 0 48 48"><path fill="currentColor" fill-rule="evenodd" d="M48 27H0v18h4v3h2v-3h36v3h2v-3h4zm-2 2v10H2V29zM2 43v-2h44v2zm40-8h-2v-2h2zm-4 0h-2v-2h2zm-4 0h-2v-2h2zm-5.52-19.38c-2.6025-2.1841-6.3975-2.1841-9 0l-1.28-1.53c3.337-2.7795 8.183-2.7795 11.52 0zm3.84-4.61c-4.8202-4.0148-11.8198-4.0148-16.64 0L14.4 9.48c5.5617-4.6325 13.6383-4.6325 19.2 0zm-20.48-4.6-1.28-1.54c7.7864-6.4855 19.0936-6.4855 26.88 0l-1.28 1.54C29.1152.5422 18.8848.5422 11.84 6.41M25.92 18.7l.76.64L24 22.56l-2.68-3.22.76-.64c1.122-.8993 2.718-.8993 3.84 0" clip-rule="evenodd"/></svg>