<svg xmlns="http://www.w3.org/2000/svg" width="48" height="48" fill="none" viewBox="0 0 48 48"><path fill="currentColor" fill-rule="evenodd" d="M45 3.0001h-8.35l-2.76-2.46a1.1 1.1 0 0 0-1.13-.28 1.11 1.11 0 0 0-.76 1.05v.69h-3a3 3 0 0 0-2.22 1H3c-1.6568 0-3 1.3432-3 3v36c0 1.6569 1.3432 3 3 3h23.78a3 3 0 0 0 2.22 1h3v.69a1.11 1.11 0 0 0 .76 1.05c.1125.0194.2275.0194.34 0a1.09 1.09 0 0 0 .79-.33l2.76-2.41H45c1.6569 0 3-1.3431 3-3v-36c0-1.6568-1.3431-3-3-3m-42 40c-.5523 0-1-.4477-1-1v-36c0-.5523.4477-1 1-1h23v2H4v34h22v2zm23-20H6v-14h20zm-20 2h20v14H6zm23 19c-.5523 0-1-.4477-1-1v-38c0-.5523.4477-1 1-1h3v40zm5-40.68 8 7.13v4.83a2 2 0 0 0-1 1.72v2a2 2 0 0 0 1 1.72v6.56a2 2 0 0 0-1 1.72v2a2 2 0 0 0 1 1.72v4.83l-8 7.13zm12 38.68c0 .5523-.4477 1-1 1h-6.11l2.25-2H44v-8.28a2 2 0 0 0 1-1.72v-2a2 2 0 0 0-1-1.72v-6.56a2 2 0 0 0 1-1.72v-2a2 2 0 0 0-1-1.72v-8.28h-2.86l-2.25-2H45c.5523 0 1 .4477 1 1zm-15.29-6.71c.1827.1917.2863.4453.29.71a1 1 0 0 1-2 0 1.05 1.05 0 0 1 .29-.71 1 1 0 0 1 .16-.12.56.56 0 0 1 .17-.09.64.64 0 0 1 .18-.08.9.9 0 0 1 .4 0 .64.64 0 0 1 .18.06l.18.09zm.29-7.48a1.2 1.2 0 0 1 0 .19 1 1 0 0 1-2 0 1.05 1.05 0 0 1 .29-.71 1 1 0 0 1 .16-.12.56.56 0 0 1 .17-.09l.18-.08a.9.9 0 0 1 .4 0l.18.06a.76.76 0 0 1 .18.09q.0787.0554.15.12l.12.15a.76.76 0 0 1 .09.18.6.6 0 0 1 .08.21m0-8a1.2 1.2 0 0 1 0 .19 1 1 0 0 1-.29.71 1.15 1.15 0 0 1-.33.21.94.94 0 0 1-.76 0 1.15 1.15 0 0 1-.33-.21 1 1 0 0 1-.21-.33 1 1 0 0 1-.08-.38 1.05 1.05 0 0 1 .29-.71l.16-.12a.56.56 0 0 1 .17-.09l.18-.08a1 1 0 0 1 .91.27l.12.15a.76.76 0 0 1 .09.18.6.6 0 0 1 .08.21m-.27-8.52c.1755.1947.2718.4479.27.71a1 1 0 0 1-.29.71 1.15 1.15 0 0 1-.33.21.94.94 0 0 1-.76 0 1.15 1.15 0 0 1-.33-.21 1 1 0 0 1-.21-.33 1 1 0 0 1-.08-.38 1 1 0 0 1 1.71-.71z" clip-rule="evenodd"/></svg>