<svg xmlns="http://www.w3.org/2000/svg" width="48" height="48" fill="none" viewBox="0 0 48 48"><path fill="#000" fill-rule="evenodd" d="M24.4138.0896a1 1 0 0 0-.8763.0238L.5413 12.1114l-.0235.0126a.996.996 0 0 0-.4497.5134 1 1 0 0 0-.068.3833V35a1 1 0 0 0 .5373.8866l22.996 11.9979q.0277.0145.0559.0273a1 1 0 0 0 .8715-.0243q.0206-.0106.0411-.0214l.0212-.0111 22.9721-11.9681a1 1 0 0 0 .5379-.8884L48 13.0196a1 1 0 0 0-.0791-.4095.996.996 0 0 0-.4453-.4898l-.0157-.0083L24.5759.1725l-.0422-.0223c-.0396-.021-.0792-.042-.1199-.0606m.5861 45.2618 21.0323-10.9575-.0298-19.8083-21.0025 10.0446zm-1-22.4599 7.9463-3.8004-7.9216-3.9608-7.5187 4.1771zm-9.6767-4.628a1 1 0 0 1 .1912-.1377L23 13.4116V2.6496L3.2364 12.9612zm8.6767 6.3667v20.7201L2 34.3938V14.5867zm21.7637-11.6691L34.232 17.9979 25 13.382V2.6497z"/></svg>