<svg xmlns="http://www.w3.org/2000/svg" width="48" height="48" fill="none" viewBox="0 0 48 48"><path fill="currentColor" fill-rule="evenodd" d="M6 40h2v2H6zm21.86-7.87a8.3 8.3 0 0 1-.82.34 1.0001 1.0001 0 0 0 .34 1.95 1.06 1.06 0 0 0 .34-.06c.34-.13.67-.26 1-.42a1 1 0 0 0 .4632-1.3221A1 1 0 0 0 27.87 32.13zM30 24q.015-.285 0-.57c-.0525-.5523-.5427-.9575-1.095-.905s-.9575.5427-.905 1.095v.78a.9997.9997 0 0 0 .9 1.1h.1a1 1 0 0 0 1-.9zm.67 6c-.2.22-.41.43-.62.63-.4077.3705-.439 1.001-.07 1.41a1 1 0 0 0 .74.33 1 1 0 0 0 .67-.26 9.2 9.2 0 0 0 .76-.77A1 1 0 0 0 30.67 30m1.81-9.06a1 1 0 0 0 1.28.61 1 1 0 0 0 .61-1.28c-.13-.34-.26-.67-.41-1-.2375-.5026-.8374-.7175-1.34-.48s-.7175.8374-.48 1.34c.1319.2824.2454.573.34.87zm-5.31 7.88a1 1 0 0 0 .64-.22 6.5 6.5 0 0 0 .83-.83c.3507-.428.288-1.0593-.14-1.41s-1.0593-.288-1.41.14a3.58 3.58 0 0 1-.55.55 1 1 0 0 0 .63 1.77M8 6H6v2h2zm32 2h2V6h-2zm6-1v34c0 2.7614-2.2386 5-5 5H7c-2.7614 0-5-2.2386-5-5V7c0-2.7614 2.2386-5 5-5h34c2.7614 0 5 2.2386 5 5m-2 0c0-1.6569-1.3431-3-3-3H7C5.3431 4 4 5.3431 4 7v34c0 1.6569 1.3431 3 3 3h34c1.6569 0 3-1.3431 3-3zm-4 35h2v-2h-2zm-6.25-15.57a1 1 0 0 0-1.28.61 7.2 7.2 0 0 1-.33.81c-.236.4971-.0259 1.0915.47 1.33a1 1 0 0 0 .43.1 1 1 0 0 0 .9-.57 9.6 9.6 0 0 0 .42-1 1 1 0 0 0-.61-1.28M40 24c.0082 7.629-5.371 14.2027-12.8507 15.7043-7.4798 1.5016-14.9793-2.4866-17.9162-9.5276-2.9369-7.0411-.494-15.1763 5.8358-19.4348S29.8547 7.2863 35.27 12.66A15.93 15.93 0 0 1 40 24m-2 0a13.91 13.91 0 0 0-3.43-9.15l-2.2 2.19a1 1 0 0 1-.28 1 .89.89 0 0 1-.92.2l-2.34 2.34a1 1 0 0 1-1 1.26 1.05 1.05 0 0 1-.24-.06l-2.92 2.93a1 1 0 0 1-1.42 0 1 1 0 0 1 0-1.42l2.73-2.73a4.06 4.06 0 0 0-2-.56c-2.2091 0-4 1.7909-4 4s1.7909 4 4 4h.4a.9997.9997 0 0 1 1.1.9c.0522.5494-.3506 1.0373-.9 1.09h-.6c-2.5926.0029-4.8939-1.6597-5.7053-4.1221-.8115-2.4624.0505-5.1674 2.1369-6.7064 2.0865-1.539 4.9254-1.5638 7.0384-.0615l2.14-2.14a8.94 8.94 0 0 0-4-1.82 2 2 0 0 1-3.26 0c-3.3261.6206-6.0232 3.0542-6.9811 6.2993S15.334 28.1926 17.79 30.52a1.92 1.92 0 0 1 .79-.16c1.1046 0 2 .8954 2 2a9 9 0 0 0 3.38.66h.45c.5523 0 1 .4477 1 1s-.4477 1-1 1H24a10.9 10.9 0 0 1-4.36-.91 2 2 0 0 1-1 .29c-1.1046 0-2-.8954-2-2a1.5 1.5 0 0 1 0-.22c-3.1234-2.8272-4.3577-7.1899-3.1784-11.2344s4.565-7.0602 8.7184-7.7656a2 2 0 0 1 3.62 0 10.94 10.94 0 0 1 5.23 2.39l2.11-2.12c-4.9895-4.3002-12.3018-4.5408-17.5631-.5778s-7.0484 11.0577-4.2925 17.0403c2.756 5.9826 9.3096 9.2349 15.7409 7.8116C33.4565 36.3008 38.0258 30.5868 38 24m-3-.53c0-.5523-.4477-1-1-1a1 1 0 0 0-1 1.05v.88c0 .5523.4477 1 1 1s1-.4477 1-1z" clip-rule="evenodd"/></svg>