<svg xmlns="http://www.w3.org/2000/svg" width="48" height="48" fill="none" viewBox="0 0 48 48"><path fill="currentColor" fill-rule="evenodd" d="M29.3224 38.0699c.1554.5272-.1438 1.081-.67 1.24-.33.1-.67.19-1 .27a.85.85 0 0 1-.23 0c-.5523.0608-1.0492-.3377-1.11-.89-.0607-.5523.3377-1.0492.89-1.11.3-.07.59-.15.88-.24a1 1 0 0 1 1.24.73m4.9-4.5-.65.65c-.3877.39-.3877 1.02 0 1.41a1 1 0 0 0 1.42 0c.25-.24.5-.49.74-.74a1 1 0 0 0 0-1.42.9997.9997 0 0 0-1.51.1m-2.82 2.32c-.26.16-.53.31-.8.46a1.012 1.012 0 1 0 1 1.76c.3-.16.61-.34.9-.52a1 1 0 0 0 .219-1.2729 1 1 0 0 0-1.219-.4271zm6-15.94c.08.29.16.59.23.89a1 1 0 0 0 1 .77h.22a1 1 0 0 0 .75-1.2c-.08-.35-.17-.68-.27-1a1 1 0 0 0-1.91.57zm-1.05-2.53c.2605.4849.8639.6682 1.35.41a1 1 0 0 0 .41-1.35c-.16-.31-.33-.61-.52-.91-.2917-.4642-.9028-.6069-1.37-.32a1 1 0 0 0-.33 1.38c.17.26.33.52.47.79zm2.48 9c-.5354-.1252-1.0714.2054-1.2.74-.07.3-.15.59-.24.89-.1562.5243.1379 1.0768.66 1.24a1 1 0 0 0 .3 0 1 1 0 0 0 1-.71c.1-.33.19-.67.27-1a1 1 0 0 0-.78-1.13zm1.15-3a1.0003 1.0003 0 0 0-1.5259-.821 1 1 0 0 0-.4741.881v.91c0 .5523.4477 1 1 1s1-.4477 1-1v-.54c0-.18.02-.19.02-.35zm-2.29 6.7c-.4861-.2582-1.0895-.0749-1.35.41-.15.27-.3.53-.46.79-.2869.4672-.1442 1.0783.32 1.37a.92.92 0 0 0 .53.16 1 1 0 0 0 .84-.47c.19-.3.36-.6.53-.91a1 1 0 0 0-.4-1.27zm-7.74-6.93a1 1 0 0 0 1 .89h.12c.546-.0677.9347-.5637.87-1.11a7.64 7.64 0 0 0-.22-1.16 1.0005 1.0005 0 0 0-1.677-.4382 1.001 1.001 0 0 0-.253.9682c.0937.3042.1639.6151.21.93zm-2.52 7.83a1 1 0 0 0 .49-.13 7.9 7.9 0 0 0 1-.65 1 1 0 0 0-1.22-1.58c-.238.176-.485.3395-.74.49-.4798.2712-.6497.8794-.38 1.36.1533.3424.4854.5702.86.59zm3.7-3.49a7.24 7.24 0 0 0 .45-1.08.9998.9998 0 0 0-1.1412-1.36 1 1 0 0 0-.7488.72 7.4 7.4 0 0 1-.34.82c-.2469.4917-.0503 1.0904.44 1.34a1 1 0 0 0 .45.11 1 1 0 0 0 .9-.47zm16.87-3.53c.01 11.445-8.0629 21.3047-19.2849 23.5533S6.2472 43.8133 1.8471 33.248c-4.4002-10.5654-.7278-22.7678 8.7728-29.1496 9.5006-6.3819 22.1856-5.1672 30.3025 2.9015v.05a24 24 0 0 1 7.08 16.95m-2 0a21.91 21.91 0 0 0-5.76-14.83l-4.33 4.33a1 1 0 0 1-1 1.26 1 1 0 0 1-.25 0l-4.46 4.45a1 1 0 0 1-.3 1 1 1 0 0 1-.66.25 1 1 0 0 1-.24 0l-4.34 4.34a1 1 0 0 1-1.42 0 1 1 0 0 1 0-1.42l4.18-4.18c-2.1065-1.5775-4.9952-1.5982-7.124-.0509s-3.001 4.3012-2.1508 6.7918 3.2242 4.1365 5.8548 4.0591h.43c.5491-.0402 1.0275.3711 1.07.92a1 1 0 0 1-.93 1.07h-.57c-3.5011.0077-6.6005-2.262-7.6499-5.6022s.1952-6.9747 3.0717-8.9706 6.7167-1.8894 9.4782.2628l4.26-4.26a13.88 13.88 0 0 0-7.5-3.32 2 2 0 0 1-3.32 0c-5.5696.6762-10.1977 4.6121-11.7594 10.0009s.2444 11.1895 4.5894 14.7391a1.89 1.89 0 0 1 .72-.14c1.0522-.0026 1.9264.8105 2 1.86a13.89 13.89 0 0 0 6.11 1.44h.47c.5523 0 1 .4477 1 1s-.4477 1-1 1h-.47a15.9 15.9 0 0 1-7-1.63 2 2 0 0 1-2.0594.1087 2 2 0 0 1-1.0606-1.7687 1.53 1.53 0 0 1 0-.3c-4.997-4.0654-7.0685-10.7311-5.2562-16.9127S15.7814 8.8236 22.1824 8.0999a2 2 0 0 1 3.56 0 15.84 15.84 0 0 1 8.79 3.9l4.26-4.25C31.0935.7585 19.5507.1131 11.1203 6.2026S-.3247 23.453 3.893 32.959s14.5157 14.7601 24.6877 12.596c10.172-2.1642 17.4391-11.1555 17.4217-21.5551" clip-rule="evenodd"/></svg>