<svg xmlns="http://www.w3.org/2000/svg" width="48" height="48" fill="none" viewBox="0 0 48 48"><path fill="currentColor" fill-rule="evenodd" d="M2 6H0V0h6v2H2zm40-6v2h4v4h2V0zM2 42H0v6h6v-2H2zm44 4h-4v2h6v-6h-2zm-15-4h3v2H14v-2h3v-5H4V19h2v10h36V19h2v18H31zm11-7v-5H6v5zm-13 7v-5H19v5zm15-27h4v2H0v-2h4V4h40zM6 15h36V6H6zm5 4H9v5h2zm-2 8h2v-2H9zm6-8h-2v1h2zm-2 7h2v-5h-2zm10-7h-2v2h2zm-2 7h2v-4h-2zm14-7h-2v1h2zm-2 7h2v-5h-2zm-2-7h-2v1h2zm-2 4h2v-2h-2zm-10-4h-2v3h2zm-2 5h2v-1h-2zm10-5h-2v6h2zm-2 8h2v-1h-2zm14-8h-2v6h2zm-2 8h2v-1h-2z" clip-rule="evenodd"/></svg>