<svg xmlns="http://www.w3.org/2000/svg" width="48" height="48" fill="none" viewBox="0 0 48 48"><path fill="#000" fill-rule="evenodd" d="M0 18C0 8.0589 8.0589 0 18 0s18 8.0589 18 18c0 4.6107-1.7336 8.8166-4.5845 12.0013l2.7058 2.7058.7071-.7071c.7811-.7811 2.0474-.7811 2.8285 0l8.1718 8.1719c1.5621 1.5621 1.5621 4.0947 0 5.6568s-4.0947 1.5621-5.6568 0L32 37.6569c-.781-.7811-.781-2.0474 0-2.8285l.7071-.7071-2.7058-2.7058C26.8166 34.2664 22.6107 36 18 36 8.0589 36 0 27.9411 0 18M18 2C9.1634 2 2 9.1634 2 18s7.1634 16 16 16 16-7.1634 16-16S26.8366 2 18 2m15.4142 34.2426 2.8284-2.8284 8.1719 8.1719c.7811.781.7811 2.0474 0 2.8284-.781.7811-2.0474.7811-2.8284 0z"/></svg>