<svg xmlns="http://www.w3.org/2000/svg" width="48" height="48" fill="none" viewBox="0 0 48 48"><path fill="#000" fill-rule="evenodd" d="M0 15C0 6.7157 6.7157 0 15 0s15 6.7157 15 15c0 1.11-.1207 2.1928-.3501 3.2357l18.0572 18.0572c.1875.1875.2929.4419.2929.7071v10c0 .5523-.4477 1-1 1H36c-.5523 0-1-.4477-1-1v-4.5h-4.5c-.5523 0-1-.4477-1-1V37H25c-.5523 0-1-.4477-1-1v-4.5h-2.5a1 1 0 0 1-.7071-.2929l-1.7567-1.7566C17.751 29.8087 16.3971 30 15 30 6.7157 30 0 23.2843 0 15M15 2C7.8203 2 2 7.8203 2 15s5.8203 13 13 13c1.4018 0 2.7499-.2215 4.0123-.6307a1 1 0 0 1 1.0154.2442L21.9142 29.5H25c.5523 0 1 .4477 1 1V35h4.5c.5523 0 1 .4477 1 1v4.5H36c.5523 0 1 .4477 1 1V46h9v-8.5858L27.8397 19.2539a1 1 0 0 1-.2605-.9597A13.02 13.02 0 0 0 28 15c0-7.1797-5.8203-13-13-13m-8 9c0-2.2091 1.7909-4 4-4s4 1.7909 4 4-1.7909 4-4 4-4-1.7909-4-4m4-2c-1.1046 0-2 .8954-2 2s.8954 2 2 2 2-.8954 2-2-.8954-2-2-2m9.2071 4.2071c.3905-.3905.3905-1.0237 0-1.4142s-1.0237-.3905-1.4142 0l-7 7c-.3905.3905-.3905 1.0237 0 1.4142s1.0237.3905 1.4142 0zm3 3c.3905-.3905.3905-1.0237 0-1.4142s-1.0237-.3905-1.4142 0l-7 7c-.3905.3905-.3905 1.0237 0 1.4142s1.0237.3905 1.4142 0zm4.5858 7.5858c.3905-.3905 1.0237-.3905 1.4142 0l11 11c.3905.3905.3905 1.0237 0 1.4142s-1.0237.3905-1.4142 0l-11-11c-.3905-.3905-.3905-1.0237 0-1.4142"/></svg>