<svg width="48" height="48" viewBox="0 0 48 48" fill="none" xmlns="http://www.w3.org/2000/svg">
<g clip-path="url(#clip0_8215_3394)">
<path fill-rule="evenodd" clip-rule="evenodd" d="M11 7C8.79086 7 7 8.79086 7 11C7 13.2091 8.79086 15 11 15C13.2091 15 15 13.2091 15 11C15 8.79086 13.2091 7 11 7ZM9 11C9 9.89543 9.89543 9 11 9C12.1046 9 13 9.89543 13 11C13 12.1046 12.1046 13 11 13C9.89543 13 9 12.1046 9 11Z" fill="black"/>
<path d="M29.2071 23.7929C28.8166 23.4024 28.1834 23.4024 27.7929 23.7929C27.4024 24.1834 27.4024 24.8166 27.7929 25.2071L38.7929 36.2071C39.1834 36.5976 39.8166 36.5976 40.2071 36.2071C40.5976 35.8166 40.5976 35.1834 40.2071 34.7929L29.2071 23.7929Z" fill="black"/>
<path d="M20.2071 11.7929C20.5976 12.1834 20.5976 12.8166 20.2071 13.2071L13.2071 20.2071C12.8166 20.5976 12.1834 20.5976 11.7929 20.2071C11.4024 19.8166 11.4024 19.1834 11.7929 18.7929L18.7929 11.7929C19.1834 11.4024 19.8166 11.4024 20.2071 11.7929Z" fill="black"/>
<path d="M23.2071 14.7929C23.5976 15.1834 23.5976 15.8166 23.2071 16.2071L16.2071 23.2071C15.8166 23.5976 15.1834 23.5976 14.7929 23.2071C14.4024 22.8166 14.4024 22.1834 14.7929 21.7929L21.7929 14.7929C22.1834 14.4024 22.8166 14.4024 23.2071 14.7929Z" fill="black"/>
<path fill-rule="evenodd" clip-rule="evenodd" d="M15 0C6.71573 0 0 6.71573 0 15C0 23.2843 6.71573 30 15 30C16.3971 30 17.751 29.8087 19.0362 29.4505L20.7929 31.2071C20.9804 31.3946 21.2348 31.5 21.5 31.5H24V36C24 36.5523 24.4477 37 25 37H29.5V41.5C29.5 42.0523 29.9477 42.5 30.5 42.5H35V47C35 47.5523 35.4477 48 36 48H47C47.5523 48 48 47.5523 48 47V37C48 36.7348 47.8946 36.4804 47.7071 36.2929L29.6499 18.2357C29.8793 17.1928 30 16.11 30 15C30 6.71573 23.2843 0 15 0ZM2 15C2 7.8203 7.8203 2 15 2C22.1797 2 28 7.8203 28 15C28 16.1394 27.8536 17.2432 27.5792 18.2942C27.4896 18.6376 27.5887 19.0029 27.8397 19.2539L46 37.4142V46H37V41.5C37 40.9477 36.5523 40.5 36 40.5H31.5V36C31.5 35.4477 31.0523 35 30.5 35H26V30.5C26 29.9477 25.5523 29.5 25 29.5H21.9142L20.0277 27.6135C19.762 27.3478 19.3697 27.2535 19.0123 27.3693C17.7499 27.7785 16.4018 28 15 28C7.8203 28 2 22.1797 2 15Z" fill="black"/>
</g>
<defs>
<clipPath id="clip0_8215_3394">
<rect width="48" height="48" fill="white"/>
</clipPath>
</defs>
</svg>
