<svg xmlns="http://www.w3.org/2000/svg" width="48" height="48" fill="none" viewBox="0 0 48 48"><path fill="#000" fill-rule="evenodd" d="M3 1C1.3431 1 0 2.3431 0 4v18c0 1.6569 1.3431 3 3 3h42c1.6569 0 3-1.3431 3-3V4c0-1.6569-1.3431-3-3-3zM2 4c0-.5523.4477-1 1-1h42c.5523 0 1 .4477 1 1v18c0 .5523-.4477 1-1 1H3c-.5523 0-1-.4477-1-1zm22 3.5a1 1 0 0 1 .7474.3356l4 4.5c.1627.1831.2526.4195.2526.6644v4c0 .5523-.4477 1-1 1h-8c-.5523 0-1-.4477-1-1v-4c0-.2449.0899-.4813.2526-.6644l4-4.5A1 1 0 0 1 24 7.5M5 11c0-1.6569 1.3431-3 3-3h4c1.6569 0 3 1.3431 3 3v4c0 1.6569-1.3431 3-3 3H8c-1.6569 0-3-1.3431-3-3zm28 2c0-2.7614 2.2386-5 5-5s5 2.2386 5 5-2.2386 5-5 5-5-2.2386-5-5M8 10c-.5523 0-1 .4477-1 1v4c0 .5523.4477 1 1 1h4c.5523 0 1-.4477 1-1v-4c0-.5523-.4477-1-1-1zm30 0c-1.6569 0-3 1.3431-3 3s1.3431 3 3 3 3-1.3431 3-3-1.3431-3-3-3m-17 3.3802V16h6v-2.6198l-3-3.375zM14 28.5a.5.5 0 0 1 .5-.5h1a.5.5 0 0 1 .5.5v1a.5.5 0 0 1-.5.5h-1a.5.5 0 0 1-.5-.5zm18.5-.5a.5.5 0 0 0-.5.5v1a.5.5 0 0 0 .5.5h1a.5.5 0 0 0 .5-.5v-1a.5.5 0 0 0-.5-.5zM14 32.5a.5.5 0 0 1 .5-.5h1a.5.5 0 0 1 .5.5v1a.5.5 0 0 1-.5.5h-1a.5.5 0 0 1-.5-.5zm18.5-.5a.5.5 0 0 0-.5.5v1a.5.5 0 0 0 .5.5h1a.5.5 0 0 0 .5-.5v-1a.5.5 0 0 0-.5-.5zM28 41c0-2.7614 2.2386-5 5-5s5 2.2386 5 5-2.2386 5-5 5-5-2.2386-5-5m-15-5c-1.6569 0-3 1.3431-3 3v4c0 1.6569 1.3431 3 3 3h4c1.6569 0 3-1.3431 3-3v-4c0-1.6569-1.3431-3-3-3zm20 2c-1.6569 0-3 1.3431-3 3s1.3431 3 3 3 3-1.3431 3-3-1.3431-3-3-3m-21 1c0-.5523.4477-1 1-1h4c.5523 0 1 .4477 1 1v4c0 .5523-.4477 1-1 1h-4c-.5523 0-1-.4477-1-1z"/></svg>