<svg xmlns="http://www.w3.org/2000/svg" width="48" height="48" fill="none" viewBox="0 0 48 48"><path fill="currentColor" fill-rule="evenodd" d="M44 16V1H4v15h1v1H4v15h1v1H4v15h40V33h-1v-1h1V17h-1v-1zM6 3h36v11H6zm36 16v11H6V19zm0 27H6V35h36zm-1-13H7v-1h34zm0-16H7v-1h34zM38 5h2v2h-2zm-3 0h2v2h-2zm-3 0h2v2h-2zm-3 0h2v2h-2zM8 5h13v2H8zm32 18h-2v-2h2zm-3 0h-2v-2h2zm-3 0h-2v-2h2zm-3 0h-2v-2h2zm-10 0H8v-2h13zm19 16h-2v-2h2zm-3 0h-2v-2h2zm-3 0h-2v-2h2zm-3 0h-2v-2h2zm-10 0H8v-2h13z" clip-rule="evenodd"/></svg>