<svg width="48" height="48" viewBox="0 0 48 48" fill="none" xmlns="http://www.w3.org/2000/svg">
<g clip-path="url(#clip0_8214_3276)">
<path d="M5 30.5C5 30.2239 5.22386 30 5.5 30H6.5C6.77614 30 7 30.2239 7 30.5V31.5C7 31.7761 6.77614 32 6.5 32H5.5C5.22386 32 5 31.7761 5 31.5V30.5Z" fill="black"/>
<path d="M13.5 30C13.2239 30 13 30.2239 13 30.5V31.5C13 31.7761 13.2239 32 13.5 32H14.5C14.7761 32 15 31.7761 15 31.5V30.5C15 30.2239 14.7761 30 14.5 30H13.5Z" fill="black"/>
<path d="M17 30.5C17 30.2239 17.2239 30 17.5 30H32.5C32.7761 30 33 30.2239 33 30.5V31.5C33 31.7761 32.7761 32 32.5 32H17.5C17.2239 32 17 31.7761 17 31.5V30.5Z" fill="black"/>
<path d="M5 6.5C5 6.22386 5.22386 6 5.5 6H6.5C6.77614 6 7 6.22386 7 6.5V7.5C7 7.77614 6.77614 8 6.5 8H5.5C5.22386 8 5 7.77614 5 7.5V6.5Z" fill="black"/>
<path d="M13.5 6C13.2239 6 13 6.22386 13 6.5V7.5C13 7.77614 13.2239 8 13.5 8H14.5C14.7761 8 15 7.77614 15 7.5V6.5C15 6.22386 14.7761 6 14.5 6H13.5Z" fill="black"/>
<path d="M17 6.5C17 6.22386 17.2239 6 17.5 6H32.5C32.7761 6 33 6.22386 33 6.5V7.5C33 7.77614 32.7761 8 32.5 8H17.5C17.2239 8 17 7.77614 17 7.5V6.5Z" fill="black"/>
<path d="M5 18.5C5 18.2239 5.22386 18 5.5 18H6.5C6.77614 18 7 18.2239 7 18.5V19.5C7 19.7761 6.77614 20 6.5 20H5.5C5.22386 20 5 19.7761 5 19.5V18.5Z" fill="black"/>
<path d="M13.5 18C13.2239 18 13 18.2239 13 18.5V19.5C13 19.7761 13.2239 20 13.5 20H14.5C14.7761 20 15 19.7761 15 19.5V18.5C15 18.2239 14.7761 18 14.5 18H13.5Z" fill="black"/>
<path d="M17.5 18C17.2239 18 17 18.2239 17 18.5V19.5C17 19.7761 17.2239 20 17.5 20H32.5C32.7761 20 33 19.7761 33 19.5V18.5C33 18.2239 32.7761 18 32.5 18H17.5Z" fill="black"/>
<path fill-rule="evenodd" clip-rule="evenodd" d="M0 4C0 1.79086 1.79086 0 4 0H33C35.2091 0 37 1.79086 37 4V10C37 11.1947 36.4762 12.2671 35.6458 13C36.4762 13.7329 37 14.8053 37 16V22C37 23.1947 36.4762 24.2671 35.6458 25C36.4762 25.7329 37 26.8053 37 28V34C37 35.1947 36.4762 36.2671 35.6458 37C36.4762 37.7329 37 38.8053 37 40V44C37 46.2091 35.2091 48 33 48H4C1.79086 48 0 46.2091 0 44V40C0 38.8053 0.523756 37.7329 1.35418 37C0.523756 36.2671 0 35.1947 0 34V28C0 26.8053 0.523756 25.7329 1.35418 25C0.523755 24.2671 0 23.1947 0 22V16C0 14.8053 0.523756 13.7329 1.35418 13C0.523755 12.2671 0 11.1947 0 10V4ZM2 43V44C2 45.1046 2.89543 46 4 46H33C34.1046 46 35 45.1046 35 44V43H2ZM35 41H2V40C2 38.8954 2.89543 38 4 38H33C34.1046 38 35 38.8954 35 40V41ZM7 36C8.10457 36 9 35.1046 9 34V28C9 26.8954 8.10457 26 7 26H4C2.89543 26 2 26.8954 2 28V34C2 35.1046 2.89543 36 4 36H7ZM10.4649 36H33C34.1046 36 35 35.1046 35 34V28C35 26.8954 34.1046 26 33 26H10.4649C10.8052 26.5883 11 27.2714 11 28V34C11 34.7286 10.8052 35.4117 10.4649 36ZM4 2H7C8.10457 2 9 2.89543 9 4V10C9 11.1046 8.10457 12 7 12H4C2.89543 12 2 11.1046 2 10V4C2 2.89543 2.89543 2 4 2ZM11 10C11 10.7286 10.8052 11.4117 10.4649 12H33C34.1046 12 35 11.1046 35 10V4C35 2.89543 34.1046 2 33 2H10.4649C10.8052 2.58835 11 3.27143 11 4V10ZM7 14C8.10457 14 9 14.8954 9 16V22C9 23.1046 8.10457 24 7 24H4C2.89543 24 2 23.1046 2 22V16C2 14.8954 2.89543 14 4 14H7ZM10.4649 24C10.8052 23.4117 11 22.7286 11 22V16C11 15.2714 10.8052 14.5883 10.4649 14H33C34.1046 14 35 14.8954 35 16V22C35 23.1046 34.1046 24 33 24H10.4649Z" fill="black"/>
<path d="M39 6C39 5.44772 39.4477 5 40 5H44C46.2091 5 48 6.79086 48 9V15C48 16.1947 47.4762 17.2671 46.6458 18C47.4762 18.7329 48 19.8053 48 21V27C48 28.1947 47.4762 29.2671 46.6458 30C47.4762 30.7329 48 31.8053 48 33V39C48 41.2091 46.2091 43 44 43H40C39.4477 43 39 42.5523 39 42C39 41.4477 39.4477 41 40 41H44C45.1046 41 46 40.1046 46 39V33C46 31.8954 45.1046 31 44 31H40C39.4477 31 39 30.5523 39 30C39 29.4477 39.4477 29 40 29H44C45.1046 29 46 28.1046 46 27V21C46 19.8954 45.1046 19 44 19H40C39.4477 19 39 18.5523 39 18C39 17.4477 39.4477 17 40 17H44C45.1046 17 46 16.1046 46 15V9C46 7.89543 45.1046 7 44 7H40C39.4477 7 39 6.55228 39 6Z" fill="black"/>
<path d="M39.5 9C39.2239 9 39 9.22386 39 9.5V10.5C39 10.7761 39.2239 11 39.5 11H43.5C43.7761 11 44 10.7761 44 10.5V9.5C44 9.22386 43.7761 9 43.5 9H39.5Z" fill="black"/>
<path d="M39 21.5C39 21.2239 39.2239 21 39.5 21H43.5C43.7761 21 44 21.2239 44 21.5V22.5C44 22.7761 43.7761 23 43.5 23H39.5C39.2239 23 39 22.7761 39 22.5V21.5Z" fill="black"/>
<path d="M39.5 33C39.2239 33 39 33.2239 39 33.5V34.5C39 34.7761 39.2239 35 39.5 35H43.5C43.7761 35 44 34.7761 44 34.5V33.5C44 33.2239 43.7761 33 43.5 33H39.5Z" fill="black"/>
</g>
<defs>
<clipPath id="clip0_8214_3276">
<rect width="48" height="48" fill="white"/>
</clipPath>
</defs>
</svg>
