<svg xmlns="http://www.w3.org/2000/svg" width="48" height="48" fill="none" viewBox="0 0 48 48"><path fill="#000" fill-rule="evenodd" d="M20.854.2031C21.6325.0931 22.6812 0 24 0c1.2464 0 2.2517.0832 3.0155.1852.3823.051.7039.1068.9648.159l.0219.0044c.1296.0256.3851.0761.6334.21.2091.1127.3896.2622.5368.4358.3581.4227.4494.9724.4841 1.1815q.0062.0376.0104.0595l.7771 3.8855a18.9 18.9 0 0 1 1.6412.6805l3.6052-2.4034c.5925-.395 1.4053-.4683 2.0777-.0344.6473.4176 1.7791 1.2424 3.2025 2.6658s2.2482 2.5552 2.6658 3.2025c.4339.6724.3606 1.4852-.0344 2.0777l-2.4034 3.6052c.2514.5339.4787 1.0814.6805 1.6412l4.248.8496c.6982.1397 1.3248.6626 1.4935 1.4449C47.7829 20.6035 48 21.987 48 24s-.2171 3.3965-.3794 4.1495c-.1687.7823-.7953 1.3052-1.4935 1.4449l-4.8113.9623c-.5416.1083-1.0684-.243-1.1767-.7845s.2429-1.0684.7844-1.1767l4.7598-.952C45.8159 27.0007 46 25.7865 46 24s-.1841-3.0007-.3167-3.6435l-4.7598-.952a1 1 0 0 1-.7547-.6711 16.9 16.9 0 0 0-1.0121-2.4409 1 1 0 0 1 .0589-1.0088l2.6932-4.0398c-.3608-.5482-1.0892-1.537-2.3525-2.8003s-2.252-1.9916-2.8003-2.3524l-4.0397 2.6932a1 1 0 0 1-1.0088.059 16.9 16.9 0 0 0-2.4409-1.0122 1 1 0 0 1-.6711-.7547l-.8898-4.4489a12 12 0 0 1-.0223-.1162l-.0011-.0061c-.0064-.0336-.0116-.0618-.0171-.0894a2 2 0 0 0-.0216-.0992l-.0562-.0114a13 13 0 0 0-.8366-.1377C26.0739 2.0772 25.1571 2 24 2c-1.2242 0-2.1795.0865-2.8662.1835a13 13 0 0 0-.6334.1046c-.0261.005-.0552.0104-.0795.0149l-.0298.0056-.0416.008a1 1 0 0 0-.017.064c-.0138.0589-.0258.1265-.041.219l-.0068.0419a7 7 0 0 1-.0473.2704l-.8329 4.1646a1 1 0 0 1-.6711.7547 16.9 16.9 0 0 0-2.4409 1.0121 1 1 0 0 1-1.0088-.0589L11.244 6.0912c-.5483.3608-1.537 1.0892-2.8003 2.3524C7.1804 9.707 6.452 10.6957 6.0912 11.244l2.6932 4.0398a1 1 0 0 1 .059 1.0088 16.9 16.9 0 0 0-1.0122 2.4409 1 1 0 0 1-.7547.6711l-4.7598.952C2.1841 20.9993 2 22.2135 2 24s.1841 3.0007.3167 3.6435l4.7598.952a1 1 0 0 1 .7547.6711 16.9 16.9 0 0 0 1.0121 2.4409 1 1 0 0 1-.0589 1.0088L6.0912 36.756c.3608.5483 1.0892 1.5371 2.3524 2.8003 1.2633 1.2633 2.2521 1.9917 2.8003 2.3525l4.0398-2.6932a1 1 0 0 1 1.0088-.0589 16.9 16.9 0 0 0 2.4409 1.0121 1 1 0 0 1 .6711.7547l.952 4.7598C20.9993 45.8159 22.2135 46 24 46s3.0007-.1841 3.6435-.3167l.952-4.7598c.1083-.5415.6351-.8927 1.1767-.7844.5415.1083.8928.6351.7845 1.1767l-.9623 4.8113c-.1397.6982-.6626 1.3248-1.4449 1.4935C27.3965 47.7829 26.013 48 24 48s-3.3965-.2171-4.1495-.3794c-.7823-.1687-1.3052-.7953-1.4449-1.4935l-.8496-4.248a18.9 18.9 0 0 1-1.6412-.6805l-3.6052 2.4034c-.5925.395-1.4053.4683-2.0777.0344-.6473-.4176-1.779-1.2424-3.2025-2.6658-1.4234-1.4234-2.2482-2.5552-2.6658-3.2025-.434-.6724-.3606-1.4852.0344-2.0777l2.4034-3.6052a18.9 18.9 0 0 1-.6805-1.6412l-4.248-.8496c-.6982-.1397-1.3248-.6626-1.4935-1.4449C.2171 27.3965 0 26.013 0 24s.217-3.3965.3794-4.1495c.1687-.7823.7953-1.3052 1.4935-1.4449l4.248-.8496a18.9 18.9 0 0 1 .6805-1.6412L4.398 12.3096c-.395-.5925-.4683-1.4053-.0344-2.0777.4176-.6473 1.2425-1.779 2.6658-3.2025C8.4528 5.606 9.5846 4.7812 10.232 4.3636c.6724-.434 1.4852-.3606 2.0777.0344l3.6052 2.4034a18.9 18.9 0 0 1 1.6412-.6805l.7203-3.6012a5 5 0 0 0 .0323-.1867l.0091-.0561c.016-.0973.037-.222.0672-.3514.059-.2522.1713-.6107.4427-.931a1.855 1.855 0 0 1 .7367-.5287c.195-.0766.4137-.1157.5202-.1348l.0394-.0072c.2088-.04.4521-.0814.7301-.1207M24 13c-1.4169 0-2.7734.2684-4.02.758a1 1 0 0 0-.3415 1.6379l6.0894 6.0894c.3905.3905.3905 1.0237 0 1.4142l-2.8284 2.8284c-.3905.3906-1.0237.3906-1.4142 0l-6.0894-6.0894a1 1 0 0 0-1.6379.3415C13.2684 21.2266 13 22.5831 13 24c0 6.0751 4.9249 11 11 11 1.1847 0 2.3258-.1873 3.395-.5339l12.0832 12.0832c1.9527 1.9527 5.1185 1.9527 7.0711 0 1.9526-1.9526 1.9526-5.1184 0-7.071L34.4661 27.395C34.8127 26.3258 35 25.1848 35 24c0-6.0751-4.9249-11-11-11m3.1421 7.0711-4.8997-4.8998A9.06 9.06 0 0 1 24 15c4.9706 0 9 4.0294 9 9s-4.0294 9-9 9-9-4.0294-9-9c0-.602.059-1.1896.1713-1.7576l4.8998 4.8997c1.1715 1.1716 3.071 1.1716 4.2426 0l2.8284-2.8284c1.1716-1.1716 1.1716-3.0711 0-4.2426m6.464 9.2924a11.05 11.05 0 0 1-4.2427 4.2426l11.5291 11.529c1.1715 1.1716 3.071 1.1716 4.2426 0s1.1716-3.0711 0-4.2426z"/></svg>