<svg width="48" height="48" viewBox="0 0 48 48" fill="none" xmlns="http://www.w3.org/2000/svg">
<g clip-path="url(#clip0_8173_2797)">
<path d="M24 0C22.6812 0 21.6325 0.0931677 20.854 0.203149C20.576 0.242414 20.3327 0.283808 20.1238 0.323844L20.0845 0.331013C19.978 0.350084 19.7593 0.389205 19.5643 0.465815C19.2701 0.581437 19.0204 0.766934 18.8276 0.994441C18.5562 1.31477 18.4439 1.67333 18.3849 1.92553C18.3547 2.05488 18.3337 2.17958 18.3177 2.27687L18.3086 2.33298C18.2961 2.41005 18.2871 2.46546 18.2763 2.51968L17.556 6.12093C16.9962 6.32271 16.4487 6.55001 15.9148 6.80141L12.3096 4.39797C11.7171 4.00296 10.9043 3.92968 10.2319 4.36358C9.58463 4.78122 8.45283 5.60604 7.02944 7.02943C5.60605 8.45282 4.78123 9.58462 4.36359 10.2319C3.92969 10.9043 4.00297 11.7171 4.39797 12.3096L6.80142 15.9148C6.55002 16.4487 6.32271 16.9962 6.12093 17.556L1.87293 18.4056C1.17466 18.5453 0.548097 19.0682 0.379424 19.8505C0.217072 20.6035 0 21.987 0 24C0 26.013 0.217072 27.3965 0.379424 28.1495C0.548096 28.9318 1.17467 29.4547 1.87294 29.5944L6.12093 30.444C6.32271 31.0038 6.55001 31.5513 6.80141 32.0852L4.39796 35.6904C4.00296 36.2829 3.92968 37.0957 4.36358 37.7681C4.78122 38.4154 5.60604 39.5472 7.02943 40.9706C8.45282 42.3939 9.58462 43.2188 10.2319 43.6364C10.9043 44.0703 11.7171 43.997 12.3096 43.602L15.9148 41.1986C16.4487 41.45 16.9962 41.6773 17.556 41.8791L18.4056 46.1271C18.5453 46.8253 19.0682 47.4519 19.8505 47.6206C20.6035 47.7829 21.987 48 24 48C26.013 48 27.3965 47.7829 28.1495 47.6206C28.9318 47.4519 29.4547 46.8253 29.5944 46.1271L30.5567 41.3158C30.665 40.7742 30.3137 40.2474 29.7722 40.1391C29.2306 40.0308 28.7038 40.382 28.5955 40.9235L27.6435 45.6833C27.0007 45.8159 25.7865 46 24 46C22.2135 46 20.9993 45.8159 20.3565 45.6833L19.4045 40.9235C19.3336 40.5692 19.0771 40.2806 18.7334 40.1688C17.8889 39.8939 17.0733 39.5546 16.2925 39.1567C15.9703 38.9925 15.5846 39.015 15.2837 39.2156L11.2439 41.9088C10.6957 41.548 9.7069 40.8196 8.44364 39.5563C7.18039 38.2931 6.45203 37.3043 6.09121 36.756L8.7844 32.7163C8.98497 32.4154 9.00751 32.0297 8.84333 31.7075C8.44541 30.9267 8.10613 30.1111 7.83124 29.2666C7.71939 28.9229 7.43083 28.6664 7.07646 28.5955L2.31669 27.6435C2.18413 27.0007 2 25.7865 2 24C2 22.2135 2.18414 20.9993 2.31669 20.3565L7.07646 19.4045C7.43083 19.3336 7.71939 19.0771 7.83124 18.7334C8.10613 17.8889 8.44541 17.0733 8.84334 16.2925C9.00751 15.9703 8.98498 15.5846 8.7844 15.2837L6.09122 11.2439C6.45204 10.6957 7.1804 9.7069 8.44365 8.44364C9.70691 7.18039 10.6957 6.45203 11.244 6.09121L15.2837 8.7844C15.5846 8.98497 15.9703 9.00751 16.2925 8.84333C17.0733 8.44541 17.8889 8.10613 18.7334 7.83124C19.0771 7.71939 19.3336 7.43083 19.4045 7.07646L20.2374 2.91191C20.2562 2.81824 20.2722 2.71926 20.2847 2.64146L20.2915 2.59966C20.3067 2.50714 20.3187 2.43947 20.3325 2.38067C20.3387 2.35384 20.3445 2.33276 20.3495 2.31653L20.3911 2.30856L20.4209 2.303C20.4452 2.2985 20.4743 2.29307 20.5004 2.28807C20.6774 2.25414 20.8885 2.21813 21.1338 2.18348C21.8205 2.08647 22.7758 2 24 2C25.1571 2 26.0739 2.07724 26.7508 2.16762C27.0896 2.21287 27.3685 2.26143 27.5874 2.30529L27.6436 2.31671C27.6499 2.34172 27.6568 2.37337 27.6652 2.41586C27.6707 2.4435 27.6759 2.47166 27.6823 2.5053L27.6834 2.51137C27.6899 2.54592 27.6975 2.58629 27.7057 2.62763L28.5955 7.07646C28.6664 7.43083 28.9229 7.71939 29.2666 7.83124C30.1111 8.10613 30.9267 8.44541 31.7075 8.84333C32.0297 9.00751 32.4154 8.98497 32.7163 8.7844L36.756 6.09121C37.3043 6.45203 38.2931 7.18039 39.5563 8.44364C40.8196 9.7069 41.548 10.6957 41.9088 11.2439L39.2156 15.2837C39.015 15.5846 38.9925 15.9703 39.1567 16.2925C39.5546 17.0733 39.8939 17.8889 40.1688 18.7334C40.2806 19.0771 40.5692 19.3336 40.9235 19.4045L45.6833 20.3565C45.8159 20.9993 46 22.2135 46 24C46 25.7865 45.8159 27.0007 45.6833 27.6435L40.9235 28.5955C40.382 28.7038 40.0308 29.2306 40.1391 29.7722C40.2474 30.3137 40.7742 30.665 41.3158 30.5567L46.1271 29.5944C46.8253 29.4547 47.4519 28.9318 47.6206 28.1495C47.7829 27.3965 48 26.013 48 24C48 21.987 47.7829 20.6035 47.6206 19.8505C47.4519 19.0682 46.8253 18.5453 46.1271 18.4056L41.8791 17.556C41.6773 16.9962 41.45 16.4487 41.1986 15.9148L43.602 12.3096C43.997 11.7171 44.0703 10.9043 43.6364 10.2319C43.2188 9.58462 42.3939 8.45282 40.9706 7.02943C39.5472 5.60604 38.4154 4.78122 37.7681 4.36358C37.0957 3.92969 36.2829 4.00296 35.6904 4.39797L32.0852 6.80141C31.5513 6.55001 31.0038 6.32271 30.444 6.12092L29.6669 2.23541C29.664 2.22095 29.6607 2.20083 29.6565 2.17586C29.6218 1.96679 29.5305 1.41713 29.1724 0.994441C29.0252 0.820763 28.8447 0.671255 28.6356 0.558552C28.3873 0.424748 28.1318 0.374227 28.0022 0.348597L27.9803 0.344266C27.7194 0.291979 27.3978 0.236259 27.0155 0.185216C26.2517 0.0832239 25.2464 0 24 0Z" fill="black"/>
<path fill-rule="evenodd" clip-rule="evenodd" d="M19.98 13.758C21.2266 13.2684 22.5831 13 24 13C30.0751 13 35 17.9249 35 24C35 25.1848 34.8127 26.3258 34.4661 27.395L46.5493 39.4783C48.5019 41.4309 48.5019 44.5967 46.5493 46.5493C44.5967 48.5019 41.4309 48.5019 39.4782 46.5493L27.395 34.4661C26.3257 34.8127 25.1847 35 24 35C17.9249 35 13 30.0751 13 24C13 22.5831 13.2684 21.2266 13.758 19.98C13.8813 19.6661 14.1545 19.4355 14.4846 19.3667C14.8148 19.2978 15.1574 19.4 15.3959 19.6385L21.4853 25.7279C21.8758 26.1185 22.509 26.1185 22.8995 25.7279L25.7279 22.8995C26.1184 22.509 26.1184 21.8758 25.7279 21.4853L19.6385 15.3959C19.4 15.1574 19.2978 14.8148 19.3667 14.4846C19.4355 14.1545 19.6661 13.8813 19.98 13.758ZM22.2424 15.1713L27.1421 20.0711C28.3137 21.2426 28.3137 23.1421 27.1421 24.3137L24.3137 27.1421C23.1421 28.3137 21.2426 28.3137 20.0711 27.1421L15.1713 22.2424C15.059 22.8104 15 23.398 15 24C15 28.9706 19.0294 33 24 33C28.9706 33 33 28.9706 33 24C33 19.0294 28.9706 15 24 15C23.398 15 22.8104 15.059 22.2424 15.1713ZM29.3634 33.6061C31.1398 32.6122 32.6122 31.1398 33.6061 29.3635L45.1351 40.8925C46.3067 42.064 46.3067 43.9635 45.1351 45.1351C43.9635 46.3067 42.064 46.3067 40.8924 45.1351L29.3634 33.6061Z" fill="black"/>
</g>
<defs>
<clipPath id="clip0_8173_2797">
<rect width="48" height="48" fill="white"/>
</clipPath>
</defs>
</svg>
