<svg xmlns="http://www.w3.org/2000/svg" width="48" height="48" fill="none" viewBox="0 0 48 48"><path fill="#000" fill-rule="evenodd" d="M4 0C1.7909 0 0 1.7909 0 4v6c0 1.1947.5238 2.2671 1.3542 3C.5238 13.7329 0 14.8053 0 16v6c0 1.1947.5238 2.2671 1.3542 3C.5238 25.7329 0 26.8053 0 28v6c0 1.1947.5238 2.2671 1.3542 3C.5238 37.7329 0 38.8053 0 40v4c0 2.2091 1.7909 4 4 4h29c2.2091 0 4-1.7909 4-4v-4c0-1.1947-.5238-2.2671-1.3542-3C36.4762 36.2671 37 35.1947 37 34v-6c0-1.1947-.5238-2.2671-1.3542-3C36.4762 24.2671 37 23.1947 37 22v-6c0-1.1947-.5238-2.2671-1.3542-3C36.4762 12.2671 37 11.1947 37 10V4c0-2.2091-1.7909-4-4-4zm3 2H4c-1.1046 0-2 .8954-2 2v6c0 1.1046.8954 2 2 2h3c1.1046 0 2-.8954 2-2V4c0-1.1046-.8954-2-2-2m3.4649 10A3.98 3.98 0 0 0 11 10V4a3.98 3.98 0 0 0-.5351-2H33c1.1046 0 2 .8954 2 2v6c0 1.1046-.8954 2-2 2zM40 5c-.5523 0-1 .4477-1 1s.4477 1 1 1h4c1.1046 0 2 .8954 2 2v6c0 1.1046-.8954 2-2 2h-4c-.5523 0-1 .4477-1 1s.4477 1 1 1h4c1.1046 0 2 .8954 2 2v6c0 1.1046-.8954 2-2 2h-4c-.5523 0-1 .4477-1 1s.4477 1 1 1h4c1.1046 0 2 .8954 2 2v6c0 1.1046-.8954 2-2 2h-4c-.5523 0-1 .4477-1 1s.4477 1 1 1h4c2.2091 0 4-1.7909 4-4v-6c0-1.1947-.5238-2.2671-1.3542-3C47.4762 29.2671 48 28.1947 48 27v-6c0-1.1947-.5238-2.2671-1.3542-3C47.4762 17.2671 48 16.1947 48 15V9c0-2.2091-1.7909-4-4-4zM5.5 6a.5.5 0 0 0-.5.5v1a.5.5 0 0 0 .5.5h1a.5.5 0 0 0 .5-.5v-1a.5.5 0 0 0-.5-.5zm7.5.5a.5.5 0 0 1 .5-.5h1a.5.5 0 0 1 .5.5v1a.5.5 0 0 1-.5.5h-1a.5.5 0 0 1-.5-.5zm4.5-.5a.5.5 0 0 0-.5.5v1a.5.5 0 0 0 .5.5h15a.5.5 0 0 0 .5-.5v-1a.5.5 0 0 0-.5-.5zM39 9.5a.5.5 0 0 1 .5-.5h4a.5.5 0 0 1 .5.5v1a.5.5 0 0 1-.5.5h-4a.5.5 0 0 1-.5-.5zM9 16c0-1.1046-.8954-2-2-2H4c-1.1046 0-2 .8954-2 2v6c0 1.1046.8954 2 2 2h3c1.1046 0 2-.8954 2-2zm2 6a3.98 3.98 0 0 1-.5351 2H33c1.1046 0 2-.8954 2-2v-6c0-1.1046-.8954-2-2-2H10.4649A3.98 3.98 0 0 1 11 16zm-5.5-4a.5.5 0 0 0-.5.5v1a.5.5 0 0 0 .5.5h1a.5.5 0 0 0 .5-.5v-1a.5.5 0 0 0-.5-.5zm7.5.5a.5.5 0 0 1 .5-.5h1a.5.5 0 0 1 .5.5v1a.5.5 0 0 1-.5.5h-1a.5.5 0 0 1-.5-.5zm4 0a.5.5 0 0 1 .5-.5h15a.5.5 0 0 1 .5.5v1a.5.5 0 0 1-.5.5h-15a.5.5 0 0 1-.5-.5zM39.5 21a.5.5 0 0 0-.5.5v1a.5.5 0 0 0 .5.5h4a.5.5 0 0 0 .5-.5v-1a.5.5 0 0 0-.5-.5zM9 34c0 1.1046-.8954 2-2 2H4c-1.1046 0-2-.8954-2-2v-6c0-1.1046.8954-2 2-2h3c1.1046 0 2 .8954 2 2zm24 2H10.4649A3.98 3.98 0 0 0 11 34v-6a3.98 3.98 0 0 0-.5351-2H33c1.1046 0 2 .8954 2 2v6c0 1.1046-.8954 2-2 2M5.5 30a.5.5 0 0 0-.5.5v1a.5.5 0 0 0 .5.5h1a.5.5 0 0 0 .5-.5v-1a.5.5 0 0 0-.5-.5zm7.5.5a.5.5 0 0 1 .5-.5h1a.5.5 0 0 1 .5.5v1a.5.5 0 0 1-.5.5h-1a.5.5 0 0 1-.5-.5zm4.5-.5a.5.5 0 0 0-.5.5v1a.5.5 0 0 0 .5.5h15a.5.5 0 0 0 .5-.5v-1a.5.5 0 0 0-.5-.5zM39 33.5a.5.5 0 0 1 .5-.5h4a.5.5 0 0 1 .5.5v1a.5.5 0 0 1-.5.5h-4a.5.5 0 0 1-.5-.5zM2 41h33v-1c0-1.1046-.8954-2-2-2H4c-1.1046 0-2 .8954-2 2zm0 3v-1h33v1c0 1.1046-.8954 2-2 2H4c-1.1046 0-2-.8954-2-2"/></svg>