<svg xmlns="http://www.w3.org/2000/svg" width="48" height="48" fill="none" viewBox="0 0 48 48"><path fill="currentColor" fill-rule="evenodd" d="m36.2253 30.6153-2.08 2.1-2.6-2.57c6.5348-7.293 6.0756-18.463-1.0357-25.1951s-18.2898-6.579-25.214.3453c-6.9244 6.9243-7.0775 18.1027-.3454 25.2141s17.9021 7.5705 25.1951 1.0357l2.57 2.6-2.1 2.1 11.92 11.9 5.6-5.6zm-18.08 3.53c-8.8365 0-16-7.1634-16-16 0-8.8365 7.1635-16 16-16s16 7.1635 16 16a15.9997 15.9997 0 0 1-16 16m15.3 2.08 2.78-2.78 9.08 9.09-2.77 2.77zm-15.3-22.08c-2.2091 0-4 1.7909-4 4s1.7909 4 4 4 4-1.7908 4-4c0-2.2091-1.7908-4-4-4m0 6c-1.1045 0-2-.8954-2-2s.8955-2 2-2 2 .8955 2 2-.8954 2-2 2m9-5.36a8.6 8.6 0 0 0-.24-.57l1.45-2.88-3.38-3.33-2.83 1.45a8.6 8.6 0 0 0-.57-.24l-1.07-3.07h-4.7l-1 3.06-.57.24-2.9-1.44-3.33 3.33 1.45 2.88a13 13 0 0 0-.24.57l-3.07 1.02v4.7l3.06 1q.1101.2901.24.57l-1.44 2.9 3.33 3.33 2.88-1.45q.2901.13.57.24l1 3.06h4.7l1-3.06a8.5 8.5 0 0 0 .57-.24l2.88 1.45 3.33-3.33-1.41-2.83a8.5 8.5 0 0 0 .24-.57l3.06-1v-4.7zm1 4.28-2.64.88-.15.48a7.4 7.4 0 0 1-.51 1.21l-.23.45 1.24 2.5-1.28 1.28-2.5-1.24-.45.23a7.4 7.4 0 0 1-1.21.51l-.48.15-.87 2.63h-1.82l-.88-2.64-.49-.15a7.7 7.7 0 0 1-1.2-.51l-.45-.23-2.5 1.24-1.28-1.27 1.24-2.5-.23-.45a7.4 7.4 0 0 1-.51-1.21l-.15-.48-2.65-.88v-1.82l2.64-.88.15-.49a7.7 7.7 0 0 1 .51-1.2l.23-.45-1.24-2.5 1.28-1.28 2.5 1.24.45-.23a7.7 7.7 0 0 1 1.2-.51l.49-.15.89-2.65h1.82l.88 2.64.48.15a7.4 7.4 0 0 1 1.21.51l.45.23 2.5-1.24 1.28 1.28-1.24 2.5.23.45a7.7 7.7 0 0 1 .51 1.2l.15.49 2.63.89z" clip-rule="evenodd"/></svg>