<svg xmlns="http://www.w3.org/2000/svg" width="48" height="48" fill="none" viewBox="0 0 48 48"><path fill="#000" fill-rule="evenodd" d="M26.8006.8473a6 6 0 0 0-5.6011 0L6.5997 8.5527A3 3 0 0 0 5 11.206v11.9524c0 10.0588 5.8021 19.2152 14.8978 23.5104l1.5402.7273a6 6 0 0 0 5.124 0l1.5402-.7273C37.1979 42.3735 43 33.2171 43 23.1583V11.2059a3 3 0 0 0-1.5997-2.6532zM25.4248 2.416c.1503.0574.298.124.4422.2002l14.5998 7.7054A1 1 0 0 1 41 11.206v11.9524c0 9.2851-5.3558 17.7371-13.7518 21.7019l-1.5402.7273a4 4 0 0 1-.4925.1939l5.7534-22.534A1 1 0 0 0 30 22h-9.7044zm-2.01-.2193a4 4 0 0 0-1.2818.4195L7.5332 10.3215A1 1 0 0 0 7 11.2059v11.9524c0 9.2851 5.3558 17.7371 13.7519 21.7019l1.5401.7273c.2696.1274.55.2229.8357.2868L28.7126 24H19a1 1 0 0 1-.9674-1.2534z"/></svg>