<svg xmlns="http://www.w3.org/2000/svg" width="48" height="48" fill="none" viewBox="0 0 48 48"><path fill="currentColor" fill-rule="evenodd" d="M48 15.9998H36.81l-6.71-11.63a3.0016 3.0016 0 1 0-5.2 3l5 8.63H18.12l5-8.63c.8284-1.4359.3359-3.2715-1.1-4.1s-3.2716-.3359-4.1 1.1l-6.73 11.63H0v8h2.13l3 22h37.74l3-22H48zm-2 3h-8.69a3.39 3.39 0 0 0 .18-1H46zm-44 2h44v1H2zm25-16a1 1 0 0 1 1.37.37l7 12.12c.2761.4805.1105 1.0939-.37 1.37s-1.0939.1105-1.37-.37l-7-12.12a1 1 0 0 1 .37-1.37m4 13 .58 1h-15.2l.58-1zm-18.41-.51 7-12.12c.2761-.4804.8895-.6461 1.37-.37s.6461.8896.37 1.37l-7 12.12c-.2761.4805-.8895.6462-1.37.37s-.6461-.8895-.37-1.37m-2.12.51c.0094.3405.0701.6776.18 1H2v-1zm30.62 26H6.87l-2.72-20h39.7zm-16.09-12h-2v-4h2zm6 0h-2v-4h2zm6 0h-2v-4h2zm0 8h-2v-4h2zm-6 0h-2v-4h2zm-6 0h-2v-4h2zm-12-8h-2v-4h2zm6 0h-2v-4h2zm0 8h-2v-4h2zm-6 0h-2v-4h2z" clip-rule="evenodd"/></svg>