<svg xmlns="http://www.w3.org/2000/svg" width="48" height="48" fill="none" viewBox="0 0 48 48"><path fill="#000" fill-rule="evenodd" d="M34.25 0c2.6233.0001 4.7499 2.1267 4.75 4.75v6.5c-.0001 1.525-.7198 2.8809-1.8369 3.75 1.1171.8691 1.8368 2.225 1.8369 3.75v6.5c-.0001 2.6233-2.1267 4.7499-4.75 4.75H34v1c0 .5523-.4477 1-1 1s-1-.4477-1-1v-1H7v1c0 .5523-.4477 1-1 1s-1-.4477-1-1v-1h-.25C2.1267 29.9999.0001 27.8733 0 25.25v-6.5c0-1.5247.7191-2.8809 1.836-3.75C.719 14.1309 0 12.7747 0 11.25v-6.5C.0001 2.1267 2.1267.0001 4.75 0zM4.75 2C3.2313 2.0001 2.0001 3.2313 2 4.75v6.5c.0001 1.5187 1.2313 2.7499 2.75 2.75h7.5c1.5187-.0001 2.7499-1.2313 2.75-2.75v-6.5c-.0001-1.5187-1.2313-2.7499-2.75-2.75zm11.3711 0A4.726 4.726 0 0 1 17 4.75v6.5a4.726 4.726 0 0 1-.8789 2.75h3.9551c.2664.4594.5752.8907.9238 1.2861V16h-4.8789A4.726 4.726 0 0 1 17 18.75v6.5a4.726 4.726 0 0 1-.8789 2.75H34.25c1.5187-.0001 2.7499-1.2313 2.75-2.75v-6.5c-.0001-1.5187-1.2313-2.7499-2.75-2.75H33v-.7139A8.05 8.05 0 0 0 33.9238 14h.3262c1.5187-.0001 2.7499-1.2313 2.75-2.75v-6.5c-.0001-1.5187-1.2313-2.7499-2.75-2.75zM33 10c0-3.3137-2.6863-6-6-6s-6 2.6863-6 6c0 1.7766.7729 3.3721 2 4.4707V20a1 1 0 0 0 .5215.8779 1 1 0 0 0 1.0205-.0371l2.4951-1.6094 2.4092 1.6016.1191.0674A1.0002 1.0002 0 0 0 31 20v-5.5293c1.2271-1.0986 2-2.6941 2-4.4707m-10 0c0-2.2091 1.7909-4 4-4s4 1.7909 4 4-1.7909 4-4 4-4-1.7909-4-4M5 7c.5523 0 1 .4477 1 1s-.4477 1-1 1-1-.4477-1-1 .4477-1 1-1m0 3c.5523 0 1 .4477 1 1s-.4477 1-1 1-1-.4477-1-1 .4477-1 1-1m22 6a5.99 5.99 0 0 0 2-.3428v2.4776l-1.4014-.9307a1 1 0 0 0-.9658-.0781l-.1299.0703L25 18.165v-2.5078A5.99 5.99 0 0 0 27 16M4.75 16c-1.5187.0001-2.7499 1.2313-2.75 2.75v6.5c.0001 1.5187 1.2313 2.7499 2.75 2.75h7.5c1.5187-.0001 2.7499-1.2313 2.75-2.75v-6.5c-.0001-1.5187-1.2313-2.7499-2.75-2.75zM5 21c.5523 0 1 .4477 1 1s-.4477 1-1 1-1-.4477-1-1 .4477-1 1-1m24 2c0-.5523-.4477-1-1-1s-1 .4477-1 1v2c0 .5523.4477 1 1 1s1-.4477 1-1zm3 0c0-.5523-.4477-1-1-1s-1 .4477-1 1v2c0 .5523.4477 1 1 1s1-.4477 1-1zm3 0c0-.5523-.4477-1-1-1s-1 .4477-1 1v2c0 .5523.4477 1 1 1s1-.4477 1-1zM5 24c.5523 0 1 .4477 1 1s-.4477 1-1 1-1-.4477-1-1 .4477-1 1-1m.2734 9.4453c.9957 0 1.8633.1594 2.5967.4854.7448.325 1.3321.8021 1.7578 1.4316.2443.3435.4356.7288.5723 1.1533.2267.704-.3704 1.3084-1.044 1.3086-.378 0-.6759-.2483-.8232-.5576l-.0537-.1357c-.1433-.4505-.4001-.8246-.7725-1.126l-.002-.002c-.4829-.4002-1.2157-.6171-2.2314-.6172-.8772 0-1.5503.1611-2.038.4629l-.1983.1387c-.497.3906-.7422.8977-.7422 1.5391 0 .5864.2289 1.0237.6914 1.3359l.1895.1152c.4649.257 1.087.419 1.878.4747l1.6376.1171.4502.0479c1.0212.139 1.8629.4797 2.5127 1.0332.7615.6352 1.123 1.6111 1.123 2.8828 0 .8684-.2316 1.6476-.6962 2.332l.0009.001c-.4514.6841-1.0866 1.2139-1.8965 1.5918l-.001.001c-.7968.3646-1.697.5449-2.6962.5449-1.1273 0-2.1077-.1923-2.9336-.585-.8223-.3909-1.4695-.9337-1.9336-1.6298l-.001-.002a4.6 4.6 0 0 1-.4736-.9648l-.1084-.3467c-.1896-.7019.406-1.2791 1.0703-1.2793.4366 0 .7717.3255.8867.7051.1623.5361.4657.9992.914 1.3916.588.5034 1.4498.7704 2.6173.7705.7606 0 1.3723-.121 1.8437-.3506.4927-.2467.8361-.5538 1.046-.915l.0019-.0049.08-.1407c.1746-.3306.2608-.6774.2608-1.0419-.0001-.6837-.2116-1.1648-.6074-1.4815-.415-.332-1.0043-.5444-1.7862-.6201l-1.8281-.1358-.003-.0009c-1.237-.1065-2.2642-.46-3.0683-1.0733l-.0029-.0029c-.8071-.6403-1.206-1.533-1.206-2.6523 0-.8559.2246-1.6065.6806-2.2422.451-.6418 1.0583-1.1257 1.8164-1.4512l.2881-.1182c.6805-.2582 1.425-.3867 2.2314-.3867m36.4541 1.749c0-.8257-.6703-1.4951-1.4961-1.4951a1.496 1.496 0 0 0-1.3496.8516l-.0449.1055-4.0088 10.4043-4-10.3819a1.53 1.53 0 0 0-1.4277-.9795c-.8446.0003-1.529.6848-1.5293 1.5293v11.5322a.9895.9895 0 0 0 .9893.9893c.5465 0 .99-.4428.9902-.9893v-9.4375c.0247.0792.0498.1621.0781.2471l.1485.4209c.0527.1417.1087.284.1679.4287l3.2285 8.419c.2106.5488.7374.911 1.3252.9111.588 0 1.1157-.3622 1.3262-.9111l3.2295-8.4219-.001-.001q.2228-.5765.3936-1.0849v9.4296c.0002.5465.4437.9893.9902.9893s.99-.4428.9902-.9893zm-27.208-.5058c-.0002-.5464-.4429-.9891-.9892-.9893-.5465 0-.99.4428-.9903.9893v12.0722c.0003.5465.4438.9893.9903.9893.5464-.0002.989-.4429.9892-.9893zm10.5557-.9893c.5142 0 .9313.4166.9316.9307 0 .5143-.4173.9316-.9316.9316h-6.5176v4.124h6.1279c.5143.0001.9316.4175.9317.9317s-.4173.9316-.9317.9316h-6.1279v4.3389h6.5176c.5142 0 .9313.4166.9316.9307 0 .5143-.4173.9316-.9316.9316h-6.7979c-.9387-.0002-1.7002-.7614-1.7002-1.7002V35.3994c.0001-.9388.7615-1.7 1.7002-1.7002z"/></svg>