<svg xmlns="http://www.w3.org/2000/svg" width="48" height="48" fill="none" viewBox="0 0 48 48"><path fill="#000" fill-rule="evenodd" d="M34.25 0c2.6233.0001 4.7499 2.1267 4.75 4.75v6.5c-.0001 1.525-.7198 2.8809-1.8369 3.75 1.1171.8691 1.8368 2.225 1.8369 3.75v6.5c-.0001 2.6233-2.1267 4.7499-4.75 4.75H34v1c0 .5523-.4477 1-1 1s-1-.4477-1-1v-1H7v1c0 .5523-.4477 1-1 1s-1-.4477-1-1v-1h-.25C2.1267 29.9999.0001 27.8733 0 25.25v-6.5c0-1.5247.7191-2.8809 1.836-3.75C.719 14.1309 0 12.7747 0 11.25v-6.5C.0001 2.1267 2.1267.0001 4.75 0zM4.75 2C3.2313 2.0001 2.0001 3.2313 2 4.75v6.5c.0001 1.5187 1.2313 2.7499 2.75 2.75h7.5c1.5187-.0001 2.7499-1.2313 2.75-2.75v-6.5c-.0001-1.5187-1.2313-2.7499-2.75-2.75zm11.3711 0A4.726 4.726 0 0 1 17 4.75v6.5a4.726 4.726 0 0 1-.8789 2.75H34.25c1.5187-.0001 2.7499-1.2313 2.75-2.75v-6.5c-.0001-1.5187-1.2313-2.7499-2.75-2.75zM6 8c0-.5523-.4477-1-1-1s-1 .4477-1 1 .4477 1 1 1 1-.4477 1-1m23 1c0-.5523-.4477-1-1-1s-1 .4477-1 1v2c0 .5523.4477 1 1 1s1-.4477 1-1zm3 0c0-.5523-.4477-1-1-1s-1 .4477-1 1v2c0 .5523.4477 1 1 1s1-.4477 1-1zm3 0c0-.5523-.4477-1-1-1s-1 .4477-1 1v2c0 .5523.4477 1 1 1s1-.4477 1-1zM6 11c0-.5523-.4477-1-1-1s-1 .4477-1 1 .4477 1 1 1 1-.4477 1-1m-1.25 5c-1.5187.0001-2.7499 1.2313-2.75 2.75v6.5c.0001 1.5187 1.2313 2.7499 2.75 2.75h7.5c1.5187-.0001 2.7499-1.2313 2.75-2.75v-6.5c-.0001-1.5187-1.2313-2.7499-2.75-2.75zm11.3711 0A4.726 4.726 0 0 1 17 18.75v6.5a4.726 4.726 0 0 1-.8789 2.75H34.25c1.5187-.0001 2.7499-1.2313 2.75-2.75v-6.5c-.0001-1.5187-1.2313-2.7499-2.75-2.75zM5 21c.5523 0 1 .4477 1 1s-.4477 1-1 1-1-.4477-1-1 .4477-1 1-1m24 2c0-.5523-.4477-1-1-1s-1 .4477-1 1v2c0 .5523.4477 1 1 1s1-.4477 1-1zm3 0c0-.5523-.4477-1-1-1s-1 .4477-1 1v2c0 .5523.4477 1 1 1s1-.4477 1-1zm3 0c0-.5523-.4477-1-1-1s-1 .4477-1 1v2c0 .5523.4477 1 1 1s1-.4477 1-1zM5 24c.5523 0 1 .4477 1 1s-.4477 1-1 1-1-.4477-1-1 .4477-1 1-1m6.5508 9.4424c.9956 0 1.8642.1594 2.5976.4853.7445.3251 1.3313.8023 1.7569 1.4317.2443.3435.4355.7288.5722 1.1533.2267.7039-.3704 1.3074-1.0439 1.3076-.4322 0-.7595-.324-.877-.6933-.1432-.4501-.3995-.8238-.7714-1.125l-.002-.002c-.4829-.4005-1.2167-.6172-2.2324-.6172-.8773.0001-1.5504.161-2.0381.4629l-.1973.1377c-.497.3906-.7431.8987-.7431 1.54 0 .5862.23 1.0228.6923 1.335l.1895.1162c.4648.2568 1.0865.4189 1.877.4746l1.6386.1172.4492.0469c1.0206.1389 1.8621.4793 2.5118 1.0322l.1377.1231c.6678.6352.9872 1.568.9873 2.7607-.0001.8684-.2327 1.6476-.6973 2.332l.001.001c-.4514.684-1.0868 1.2139-1.8965 1.5918l-.001.001c-.7968.3646-1.6971.5449-2.6963.5449-1.127 0-2.1069-.1925-2.9326-.585-.8222-.3908-1.4695-.9338-1.9336-1.6298l-.001-.002a4.6 4.6 0 0 1-.4736-.9639l-.1084-.3466c-.19-.7022.406-1.2801 1.0703-1.2803.4364.0001.7717.3256.8867.7051.162.5352.4639.9986.9112 1.3906.588.5039 1.4519.7715 2.6201.7715.7604-.0001 1.3715-.1211 1.8428-.3506.4926-.2467.8361-.5538 1.0459-.9151l.0019-.0039.0811-.1416c.1743-.3304.2607-.6768.2607-1.041 0-.6837-.2116-1.1657-.6074-1.4824-.4143-.3314-1.0024-.5441-1.7822-.6201l-1.833-.1358h-.002c-1.237-.1064-2.2643-.4609-3.0684-1.0742l-.0029-.0019c-.8074-.6404-1.206-1.5338-1.206-2.6533 0-.8556.2247-1.6057.6806-2.2413.451-.6417 1.0583-1.1257 1.8164-1.4511l.2881-.1182c.6802-.2581 1.4245-.3867 2.2305-.3867m9.2461 1.2431c-.0002-.5462-.4431-.9889-.9893-.9892-.5465 0-.99.4428-.9902.9892v12.0713c.0002.5464.4438.9893.9902.9893.5462-.0003.989-.4431.9893-.9893zm27.2051.5059c-.0001-.8256-.6696-1.495-1.4952-1.4951a1.495 1.495 0 0 0-1.3496.8516l-.0449.1054-4.0088 10.4024-3.999-10.3799a1.53 1.53 0 0 0-1.4277-.9795c-.8447 0-1.5291.6846-1.5293 1.5293v11.5312c.0002.5464.4428.9892.9892.9893.5464-.0001.99-.4429.9903-.9893v-9.4365c.1154.3697.246.7353.3925 1.0938l3.2295 8.4209a1.4199 1.4199 0 0 0 2.6514 0l3.2285-8.4209c.1334-.3612.2709-.721.3936-1.086v9.4287c.0002.5464.4437.9893.9902.9893.5462-.0003.989-.443.9893-.9893zm-16.6504-1.4951c.514.0001.9313.4166.9316.9307 0 .5142-.4174.9315-.9316.9316H24.834v4.124h6.1279c.5142.0002.9316.4175.9317.9317-.0003.514-.4176.9305-.9317.9306H24.834v4.3389h6.5176c.514.0001.9313.4166.9316.9307 0 .5142-.4174.9315-.9316.9316h-6.7969c-.9389 0-1.7002-.7613-1.7002-1.7002V35.3965c0-.9389.7613-1.7002 1.7002-1.7002z"/></svg>