<svg xmlns="http://www.w3.org/2000/svg" width="48" height="48" fill="none" viewBox="0 0 48 48"><path fill="#000" fill-rule="evenodd" d="M8.5083 3.101c1.5426-2.8013 5.4408-2.8013 6.9834 0l6.9751 12.6666C23.9576 18.4749 22.1399 22 18.9752 22H5.0248c-3.1647 0-4.9824-3.5251-3.4916-6.2324zm21.0485-.6041A3 3 0 0 1 32.1531 1h7.6938a3 3 0 0 1 2.5963 1.4969l4.3421 7.5a3 3 0 0 1 0 3.0062l-4.3421 7.5A3 3 0 0 1 39.8469 22h-7.6938a3 3 0 0 1-2.5963-1.4969l-4.3421-7.5a3 3 0 0 1 0-3.0062zM13.7397 4.0657c-.7824-1.421-2.6969-1.421-3.4794 0L3.2851 16.7324C2.451 18.2473 3.5395 20 5.0248 20h13.9504c1.4853 0 2.5739-1.7527 1.7397-3.2676zM32.1531 3a1 1 0 0 0-.8654.499l-4.3421 7.5a1 1 0 0 0 0 1.002l4.3421 7.5a1 1 0 0 0 .8654.499h7.6938a1 1 0 0 0 .8654-.499l4.3421-7.5a1 1 0 0 0 0-1.002l-4.3421-7.5A1 1 0 0 0 39.8469 3zM12 6c.5523 0 1 .4477 1 1v6c0 .5523-.4477 1-1 1s-1-.4477-1-1V7c0-.5523.4477-1 1-1m25 1c0-.5523-.4477-1-1-1s-1 .4477-1 1v6c0 .5523.4477 1 1 1s1-.4477 1-1zM12 17c.5523 0 1-.4477 1-1s-.4477-1-1-1-1 .4477-1 1 .4477 1 1 1m25-1c0 .5523-.4477 1-1 1s-1-.4477-1-1 .4477-1 1-1 1 .4477 1 1m-25 9C5.9249 25 1 29.9249 1 36s4.9249 11 11 11 11-4.9249 11-11-4.9249-11-11-11m14 5c0-2.2091 1.7909-4 4-4h12c2.2091 0 4 1.7909 4 4v12c0 2.2091-1.7909 4-4 4H30c-2.2091 0-4-1.7909-4-4zM3 36c0-4.9706 4.0294-9 9-9s9 4.0294 9 9-4.0294 9-9 9-9-4.0294-9-9m27-8c-1.1046 0-2 .8954-2 2v12c0 1.1046.8954 2 2 2h12c1.1046 0 2-.8954 2-2V30c0-1.1046-.8954-2-2-2zm-17 3c0-.5523-.4477-1-1-1s-1 .4477-1 1v6c0 .5523.4477 1 1 1s1-.4477 1-1zm23-1c.5523 0 1 .4477 1 1v6c0 .5523-.4477 1-1 1s-1-.4477-1-1v-6c0-.5523.4477-1 1-1M12 41c.5523 0 1-.4477 1-1s-.4477-1-1-1-1 .4477-1 1 .4477 1 1 1m25-1c0 .5523-.4477 1-1 1s-1-.4477-1-1 .4477-1 1-1 1 .4477 1 1"/></svg>