<svg xmlns="http://www.w3.org/2000/svg" width="48" height="48" fill="none" viewBox="0 0 48 48"><path fill="currentColor" fill-rule="evenodd" d="m46 24.086-10.001-5.924L26 24.086v10.991c0 6.518 8.2 10.058 9.997 10.755C37.752 45.143 46 41.552 46 35.077zm2-1.141v12.132c0 8.636-11.197 12.604-11.675 12.769l-.329.113-.331-.116C35.188 47.676 24 43.641 24 35.077V22.945l11.999-7.107zm-15.725 7.666-1.414 1.414 4.117 4.117 7.525-7.526-1.414-1.414-6.111 6.112zM5 6h24V2H5zm0 38h20.495v2H3V0h28v15.924h-2V8H5v28h16.235v2H5zm10-2h4v-2h-4z" clip-rule="evenodd"/></svg>