<svg xmlns="http://www.w3.org/2000/svg" width="48" height="48" fill="none" viewBox="0 0 48 48"><path fill="currentColor" fill-rule="evenodd" d="M5 0v48h38V0zm10 6V2h1v4zm3-4h1v4h-1zm3 0h1v4h-1zm3 0h1v4h-1zm3 0h1v4h-1zm3 0h1v4h-1zM13 2v4h-1V2zm28 44H7V2h3v6h23V2h8zm-3-3V10H10v33zM12 12h24v29H12zm21 17h-2v-1h-2v1h-2v-1h-2v1h-2v-1h-2v1h-2v-1h-2v1h-2v2h-1v2h1v1h-1v2h1v2h2v1h2v-1h2v1h2v-1h2v1h2v-1h2v1h2v-1h2v-2h1v-2h-1v-1h1v-2h-1zm-2 7H17v-5h14zm2-21h-2v-1h-2v1h-2v-1h-2v1h-2v-1h-2v1h-2v-1h-2v1h-2v2h-1v2h1v1h-1v2h1v2h2v1h2v-1h2v1h2v-1h2v1h2v-1h2v1h2v-1h2v-2h1v-2h-1v-1h1v-2h-1zm-2 7H17v-5h14zM8 8h2v2H8zm0 35h2v2H8zm30 2v-2h2v2zm2-35h-2V8h2z" clip-rule="evenodd"/></svg>