<svg width="48" height="48" viewBox="0 0 48 48" fill="none" xmlns="http://www.w3.org/2000/svg">
<g clip-path="url(#clip0_10395_2115)">
<path d="M31.7071 20.7071C32.0976 20.3166 32.0976 19.6834 31.7071 19.2929C31.3166 18.9024 30.6834 18.9024 30.2929 19.2929L22 27.5858L17.7071 23.2929C17.3166 22.9024 16.6834 22.9024 16.2929 23.2929C15.9024 23.6834 15.9024 24.3166 16.2929 24.7071L21.01 29.4243C21.5568 29.971 22.4432 29.971 22.9899 29.4243L31.7071 20.7071Z" fill="black"/>
<path fill-rule="evenodd" clip-rule="evenodd" d="M24 0C10.7452 0 0 10.7452 0 24C0 37.2548 10.7452 48 24 48C37.2548 48 48 37.2548 48 24C48 10.7452 37.2548 0 24 0ZM2 24C2 11.8497 11.8497 2 24 2C36.1503 2 46 11.8497 46 24C46 36.1503 36.1503 46 24 46C11.8497 46 2 36.1503 2 24Z" fill="black"/>
</g>
<defs>
<clipPath id="clip0_10395_2115">
<rect width="48" height="48" fill="white"/>
</clipPath>
</defs>
</svg>
