<svg width="48" height="48" viewBox="0 0 48 48" fill="none" xmlns="http://www.w3.org/2000/svg">
<path d="M24 15C24.5523 15 25 15.4477 25 16V27C25 27.5523 24.5523 28 24 28C23.4477 28 23 27.5523 23 27V16C23 15.4477 23.4477 15 24 15Z" fill="black"/>
<path d="M25 32C25 32.5523 24.5523 33 24 33C23.4477 33 23 32.5523 23 32C23 31.4477 23.4477 31 24 31C24.5523 31 25 31.4477 25 32Z" fill="black"/>
<path fill-rule="evenodd" clip-rule="evenodd" d="M31.0452 5.09505C27.9209 -0.354594 20.1041 -0.354603 16.9798 5.09504L1.12657 32.7477C-1.98964 38.1832 1.89855 44.9988 8.15925 44.9988H39.8657C46.1264 44.9988 50.0146 38.1832 46.8984 32.7477L31.0452 5.09505ZM18.7149 6.08977C21.0707 1.98049 26.9542 1.98049 29.3101 6.08977L45.1633 33.7424C47.5272 37.8657 44.5653 42.9988 39.8657 42.9988H8.15925C3.4597 42.9988 0.497746 37.8657 2.86166 33.7424L18.7149 6.08977Z" fill="black"/>
</svg>
