<svg xmlns="http://www.w3.org/2000/svg" width="48" height="48" fill="none" viewBox="0 0 48 48"><path fill="#000" fill-rule="evenodd" d="M16.9798 5.095c3.1243-5.4496 10.9411-5.4496 14.0654 0l15.8532 27.6527c3.1162 5.4355-.772 12.2511-7.0327 12.2511H8.1593c-6.2607 0-10.149-6.8156-7.0327-12.2511zm12.3303.9948c-2.3559-4.1093-8.2394-4.1093-10.5952 0L2.8617 33.7424c-2.364 4.1233.598 9.2564 5.2976 9.2564h31.7064c4.6996 0 7.6615-5.1331 5.2976-9.2564zM24 15c.5523 0 1 .4477 1 1v11c0 .5523-.4477 1-1 1s-1-.4477-1-1V16c0-.5523.4477-1 1-1m1 17c0 .5523-.4477 1-1 1s-1-.4477-1-1 .4477-1 1-1 1 .4477 1 1"/></svg>