<svg xmlns="http://www.w3.org/2000/svg" width="48" height="48" fill="none" viewBox="0 0 48 48"><path fill="#000" fill-rule="evenodd" d="M24 0C10.7452 0 0 10.7452 0 24s10.7452 24 24 24 24-10.7452 24-24S37.2548 0 24 0M2 24C2 11.8497 11.8497 2 24 2s22 9.8497 22 22-9.8497 22-22 22S2 36.1503 2 24m16.7071-6.7071c-.3905-.3905-1.0237-.3905-1.4142 0s-.3905 1.0237 0 1.4142L22.5858 24l-5.2929 5.2929c-.3905.3905-.3905 1.0237 0 1.4142s1.0237.3905 1.4142 0L24 25.4142l5.2929 5.2929c.3905.3905 1.0237.3905 1.4142 0s.3905-1.0237 0-1.4142L25.4142 24l5.2929-5.2929c.3905-.3905.3905-1.0237 0-1.4142s-1.0237-.3905-1.4142 0L24 22.5858z"/></svg>