<svg xmlns="http://www.w3.org/2000/svg" width="48" height="48" fill="none" viewBox="0 0 48 48"><path fill="#000" fill-rule="evenodd" d="M0 24C0 10.7452 10.7452 0 24 0s24 10.7452 24 24-10.7452 24-24 24S0 37.2548 0 24M24 2C11.8497 2 2 11.8497 2 24s9.8497 22 22 22 22-9.8497 22-22S36.1503 2 24 2m7.7071 17.2929c.3905.3905.3905 1.0237 0 1.4142L22.99 29.4243c-.5468.5467-1.4332.5467-1.9799 0l-4.7172-4.7172c-.3905-.3905-.3905-1.0237 0-1.4142s1.0237-.3905 1.4142 0L22 27.5858l8.2929-8.2929c.3905-.3905 1.0237-.3905 1.4142 0"/></svg>