<svg xmlns="http://www.w3.org/2000/svg" width="48" height="48" fill="none" viewBox="0 0 48 48"><path fill="currentColor" fill-rule="evenodd" d="M36.0002 11h-2V9h2zm-4-2h-2v2h2zm2 15h2v-2h-2zm-4 0h2v-2h-2zm12 6h-36V2h36zm-34-26v11h32V4zm32 24V17h-32v11zm-38.29 15.29a1 1 0 0 0-.33-.21c-.2434-.1-.5165-.1-.76 0a1 1 0 0 0-.33.21 1.15 1.15 0 0 0-.21.33.94.94 0 0 0 0 .76 1 1 0 0 0 .21.33c.0972.0883.2088.1594.33.21a1 1 0 0 0 1.09-.21 1.15 1.15 0 0 0 .21-.33.94.94 0 0 0 0-.76 1.15 1.15 0 0 0-.21-.33m11.29-.29c-.5523 0-1 .4477-1 1s.4477 1 1 1 1-.4477 1-1-.4477-1-1-1m4 0c-.5523 0-1 .4477-1 1s.4477 1 1 1 1-.4477 1-1-.4477-1-1-1m-8 0c-.5522 0-1 .4477-1 1s.4478 1 1 1 1-.4477 1-1-.4477-1-1-1m-4 0c-.5523 0-1 .4477-1 1s.4477 1 1 1 1-.4477 1-1-.4477-1-1-1m30 0c-.5523 0-1 .4477-1 1s.4477 1 1 1 1-.4477 1-1-.4477-1-1-1m8 0c-.5523 0-1 .4477-1 1s.4477 1 1 1 1-.4477 1-1-.4477-1-1-1m-12 0c-.5523 0-1 .4477-1 1s.4477 1 1 1 1-.4477 1-1-.4477-1-1-1m8 0c-.5523 0-1 .4477-1 1s.4477 1 1 1 1-.4477 1-1-.4477-1-1-1m8.92.62a1 1 0 0 0-.21-.33 1.15 1.15 0 0 0-.33-.21 1 1 0 0 0-.58-.06l-.18.06a.76.76 0 0 0-.18.09l-.15.12a1.05 1.05 0 0 0-.29.71c-.0016.13.0222.2591.07.38.0544.1215.1288.2331.22.33.0972.0883.2088.1594.33.21.2421.107.518.107.76 0a.9.9 0 0 0 .54-.54.94.94 0 0 0 0-.76M24.0002 32c-.5523 0-1 .4477-1 1s.4477 1 1 1 1-.4477 1-1-.4477-1-1-1m0 4c-.5523 0-1 .4477-1 1s.4477 1 1 1 1-.4477 1-1-.4477-1-1-1m4 8a1.2 1.2 0 0 1 0 .2c0 2.2091-1.7908 4-4 4-2.2091 0-4-1.7909-4-4a1 1 0 0 1 0-.4c.0553-2.2091 1.8909-3.9552 4.1-3.9 2.2092.0552 3.9553 1.8909 3.9 4.1m-2 0c0-1.1046-.8954-2-2-2s-2 .8954-2 2 .8955 2 2 2 2-.8954 2-2" clip-rule="evenodd"/></svg>