<svg xmlns="http://www.w3.org/2000/svg" width="48" height="48" fill="none" viewBox="0 0 48 48"><path fill="currentColor" fill-rule="evenodd" d="M44.68 22v6c0 1.6569-1.3432 3-3 3h-1.06c-.5091 4.5536-4.358 7.9978-8.94 8H27.4a2 2 0 0 1-1.72 1h-2c-1.1046 0-2-.8954-2-2s.8954-2 2-2h2a2 2 0 0 1 1.72 1h4.28a6.92 6.92 0 0 0 4.05-1.31 34.88 34.88 0 0 0 2.95-13.19 13.2 13.2 0 0 0-.15-1.9l-1.1-.49A8 8 0 0 1 32.77 14H14.58a8 8 0 0 1-4.66 6.11l-1.1.49a13.2 13.2 0 0 0-.14 1.9c0 8.43 5 23.5 15 23.5 3.67 0 6.67-2 9-5a10.7 10.7 0 0 0 2.93-.69C32.85 44.69 28.92 48 23.68 48c-8.6 0-13.68-8.85-15.8-17a3 3 0 0 1-2.79-2.26l-1-4a3 3 0 0 1 .55-2.58 2.91 2.91 0 0 1 1-.84V12c.0057-2.6271 1.7198-4.945 4.23-5.72.8072-3.6666 4.0556-6.2786 7.81-6.28h26v4a10 10 0 0 1-2.25 6.31 5.91 5.91 0 0 1 .25 1.69v7c1.6568 0 3 1.3431 3 3" clip-rule="evenodd"/></svg>