<svg xmlns="http://www.w3.org/2000/svg" width="48" height="48" fill="none" viewBox="0 0 48 48"><path fill="currentColor" fill-rule="evenodd" d="M43.5806 37.8906c5.9342-8.3093 5.9342-19.4707 0-27.78l2.45-2.42a4.0234 4.0234 0 1 0-5.69-5.69l-2.42 2.45c-8.3093-5.9341-19.4707-5.9341-27.78 0l-2.42-2.45c-1.5712-1.5712-4.1187-1.5712-5.69 0-1.5712 1.5713-1.5712 4.1188 0 5.69l2.42 2.42c-5.9341 8.3093-5.9341 19.4707 0 27.78l-2.42 2.42c-1.5712 1.5713-1.5712 4.1188 0 5.69s4.1188 1.5713 5.69 0l2.42-2.42c8.3093 5.9342 19.4707 5.9342 27.78 0l2.42 2.42c1.5713 1.5713 4.1188 1.5713 5.69 0s1.5713-4.1187 0-5.69zm-2.75.29c-.15.18-.3.36-.46.53l-.34.39-.9.9-.39.36c-.17.16-.35.31-.53.46l-.44.37a22.68 22.68 0 0 1-4.61 2.81l-4-7a14 14 0 0 0 7.87-7.87l7 4a22.67 22.67 0 0 1-2.84 4.61zm-30.54 3-.44-.37c-.18-.15-.36-.3-.53-.46l-.39-.35-.9-.9-.36-.39c-.16-.17-.31-.35-.46-.53l-.37-.44a22.68 22.68 0 0 1-2.81-4.61l7-4a14 14 0 0 0 7.87 7.87l-4 7a22.68 22.68 0 0 1-4.61-2.83zm-3.43-30.92.37-.44c.15-.18.3-.36.46-.53l.34-.39.9-.9.39-.36c.17-.16.35-.31.53-.46l.44-.37a22.68 22.68 0 0 1 4.61-2.81l4 7a14 14 0 0 0-7.87 7.87l-7-4a22.68 22.68 0 0 1 2.83-4.61m5.17 13.74c0-6.6274 5.3726-12 12-12s12 5.3726 12 12-5.3726 12-12 12a12 12 0 0 1-12-12m25.74-17.17.44.37c.18.15.36.3.53.46l.39.34.9.9.36.39c.16.17.31.35.46.53l.37.44a22.68 22.68 0 0 1 2.81 4.61l-7 4a14 14 0 0 0-7.87-7.87l4-7a22.68 22.68 0 0 1 4.61 2.83m7 24.42-7.15-4.07a13.5 13.5 0 0 0 0-6.36l7.15-4.07a22 22 0 0 1 0 14.5m-5.25-25.57 2.24-2.24a2.0013 2.0013 0 0 1 3.348.8971 2.001 2.001 0 0 1-.518 1.933l-2.24 2.24c-.08-.1-.17-.19-.25-.28-.28-.32-.56-.63-.85-.93l-.52-.52c-.3-.29-.61-.57-.93-.85zm-8.24-2.45-4.07 7.15a13.5 13.5 0 0 0-6.36 0l-4.07-7.15a22 22 0 0 1 14.5 0m-25.57 5.28-2.24-2.24a2 2 0 0 1 1.42-3.41 2 2 0 0 1 1.41.58l2.24 2.24-.28.25c-.32.28-.63.56-.93.85l-.52.52c-.29.3-.57.61-.85.93-.08.09-.17.18-.25.28m-2.45 8.24 7.15 4.07a13.5 13.5 0 0 0 0 6.36l-7.15 4.07a22 22 0 0 1 0-14.5m5.28 25.57-2.24 2.24a2.001 2.001 0 1 1-2.83-2.83l2.24-2.24c.08.1.17.19.25.28.28.32.56.63.85.93l.52.52c.3.29.61.57.93.85zm8.24 2.45 4.07-7.15a13.5 13.5 0 0 0 6.36 0l4.07 7.15a22 22 0 0 1-14.5 0m27.81-.21a1.9996 1.9996 0 0 1-2.83 0l-2.24-2.24.28-.25c.32-.28.63-.56.93-.85l.52-.52c.29-.3.57-.61.85-.93.08-.09.17-.18.25-.28l2.24 2.24a2 2 0 0 1 0 2.83" clip-rule="evenodd"/></svg>