<svg xmlns="http://www.w3.org/2000/svg" width="48" height="48" fill="none" viewBox="0 0 48 48"><path fill="#000" fill-rule="evenodd" d="M34.25 0c2.6233.0001 4.7499 2.1267 4.75 4.75v6.5c-.0001 1.525-.7198 2.8809-1.8369 3.75 1.1171.8691 1.8368 2.225 1.8369 3.75v6.5c-.0001 2.6233-2.1267 4.7499-4.75 4.75H34v1c0 .5523-.4477 1-1 1s-1-.4477-1-1v-1H7v1c0 .5523-.4477 1-1 1s-1-.4477-1-1v-1h-.25C2.1267 29.9999.0001 27.8733 0 25.25v-6.5c0-1.5247.7191-2.8809 1.836-3.75C.719 14.1309 0 12.7747 0 11.25v-6.5C.0001 2.1267 2.1267.0001 4.75 0zM4.75 2C3.2313 2.0001 2.0001 3.2313 2 4.75v6.5c.0001 1.5187 1.2313 2.7499 2.75 2.75h7.5c1.5187-.0001 2.7499-1.2313 2.75-2.75v-6.5c-.0001-1.5187-1.2313-2.7499-2.75-2.75zm11.3711 0A4.726 4.726 0 0 1 17 4.75v6.5a4.726 4.726 0 0 1-.8789 2.75H34.25c1.5187-.0001 2.7499-1.2313 2.75-2.75v-6.5c-.0001-1.5187-1.2313-2.7499-2.75-2.75zM6 8c0-.5523-.4477-1-1-1s-1 .4477-1 1 .4477 1 1 1 1-.4477 1-1m23 1c0-.5523-.4477-1-1-1s-1 .4477-1 1v2c0 .5523.4477 1 1 1s1-.4477 1-1zm3 0c0-.5523-.4477-1-1-1s-1 .4477-1 1v2c0 .5523.4477 1 1 1s1-.4477 1-1zm3 0c0-.5523-.4477-1-1-1s-1 .4477-1 1v2c0 .5523.4477 1 1 1s1-.4477 1-1zM6 11c0-.5523-.4477-1-1-1s-1 .4477-1 1 .4477 1 1 1 1-.4477 1-1m-1.25 5c-1.5187.0001-2.7499 1.2313-2.75 2.75v6.5c.0001 1.5187 1.2313 2.7499 2.75 2.75h7.5c1.5187-.0001 2.7499-1.2313 2.75-2.75v-6.5c-.0001-1.5187-1.2313-2.7499-2.75-2.75zm11.3711 0A4.726 4.726 0 0 1 17 18.75v6.5a4.726 4.726 0 0 1-.8789 2.75H34.25c1.5187-.0001 2.7499-1.2313 2.75-2.75v-6.5c-.0001-1.5187-1.2313-2.7499-2.75-2.75zM6 22c0-.5523-.4477-1-1-1s-1 .4477-1 1 .4477 1 1 1 1-.4477 1-1m23 1c0-.5523-.4477-1-1-1s-1 .4477-1 1v2c0 .5523.4477 1 1 1s1-.4477 1-1zm3 0c0-.5523-.4477-1-1-1s-1 .4477-1 1v2c0 .5523.4477 1 1 1s1-.4477 1-1zm3 0c0-.5523-.4477-1-1-1s-1 .4477-1 1v2c0 .5523.4477 1 1 1s1-.4477 1-1zM6 25c0-.5523-.4477-1-1-1s-1 .4477-1 1 .4477 1 1 1 1-.4477 1-1m35.7891 8.4395c1.0527 0 2.0116.2007 2.873.6044l.3164.1592c.7204.3898 1.3293.9088 1.8242 1.5567l.1221.164c.2785.3872.5045.8087.6777 1.2637l.0411.1328c.1563.6618-.4088 1.2383-1.0694 1.2383-.3492-.0002-.6387-.2141-.7871-.502l-.0547-.1279c-.241-.6942-.6642-1.2632-1.2734-1.7099l-.001-.001c-.7284-.5433-1.602-.8183-2.6299-.8184-.8684.0001-1.6346.1873-2.3017.5576l-.2793.17c-.7365.4869-1.3054 1.1363-1.7061 1.9502-.3883.8154-.584 1.7085-.584 2.6806.0001.9589.1958 1.8384.584 2.6406l.1572.293c.3861.6669.8963 1.2123 1.5303 1.6387.7175.4695 1.5559.7069 2.5215.707 1.2149-.0001 2.1818-.3806 2.9189-1.1299l.001-.0009.1377-.1446c.6312-.6994 1.0237-1.6441 1.166-2.8486h-3.7265c-.5033-.0002-.9119-.4089-.9121-.9121.0002-.5033.4088-.9109.9121-.9112h4.5049c.6865.0002 1.2431.5566 1.2431 1.2432v5.46c-.0002.5249-.4262.9511-.9512.9511-.5246-.0003-.9499-.4264-.9501-.9511v-.9727c-.4944.7106-1.1197 1.2503-1.879 1.6113l-.0009.001c-.8079.3769-1.6828.5645-2.6201.5645-1.1908-.0001-2.2979-.288-3.3165-.8643l-.0029-.001c-1.008-.5914-1.8187-1.4379-2.4326-2.5322l-.001-.0019c-.6036-1.1002-.9022-2.3825-.9023-3.8399 0-1.471.3059-2.7675.9228-3.8808l.2461-.4053c.5951-.9136 1.3512-1.6314 2.2676-2.1485 1.0448-.5893 2.1847-.8837 3.4141-.8837m-11.5772.8632c-1.032-.5759-2.1706-.8632-3.4111-.8632-1.0749 0-2.0812.2203-3.0156.6611l-.3955.2021c-.9176.506-1.6751 1.218-2.2706 2.1309l-.2451.4043c-.6175 1.101-.9228 2.3973-.9228 3.8809.0001 1.4835.3048 2.7859.9218 3.8994l.002.0029c.628 1.0955 1.4667 1.935 2.5147 2.5127l.3955.2031c.9343.4408 1.9407.6601 3.0156.6602 1.2411 0 2.3807-.2869 3.4131-.8633l-.001-.001c1.0481-.5779 1.881-1.4174 2.4961-2.5137l-.001-.0009c.6303-1.1136.9423-2.4156.9424-3.8994 0-1.4844-.3121-2.7814-.9434-3.8829-.6149-1.1083-1.4468-1.9552-2.4951-2.5332m-18.2431-.6093c.5464.0001.989.4428.9892.9892v11.2188h6.5283c.5089 0 .9218.412.9219.9209-.0002.5087-.4131.9218-.9219.9218h-6.8076c-.9385-.0002-1.6999-.7616-1.7002-1.7002V34.6826c.0002-.5463.4439-.989.9903-.9892m12.3769 2.3427c.7348-.4234 1.5522-.6366 2.4551-.6367.9165 0 1.7401.2135 2.4746.6367l.0019.001c.7304.4085 1.3017 1.0093 1.7139 1.8086l.001.0029c.4236.7976.6396 1.752.6396 2.8702 0 .9782-.1651 1.8313-.4902 2.5634l-.1494.3067-.001.0019c-.412.7989-.9833 1.4066-1.7139 1.8281l-.2793.1446c-.6625.3149-1.3943.4736-2.1972.4736-.904-.0001-1.7229-.207-2.458-.6182-.6394-.3691-1.1612-.8812-1.5664-1.539l-.167-.291c-.4237-.7975-.6396-1.7521-.6397-2.8701 0-1.118.2162-2.0727.6397-2.8702l.167-.291c.4055-.6569.9279-1.1627 1.5674-1.5205z"/></svg>