<svg xmlns="http://www.w3.org/2000/svg" width="48" height="48" fill="none" viewBox="0 0 48 48"><path fill="#000" fill-rule="evenodd" d="M4 2C1.7568 2 0 3.7016 0 6v28c0 2.2984 1.7568 4 4 4h11v7h-4c-.5523 0-1 .4477-1 1s.4477 1 1 1h21c.5523 0 1-.4477 1-1s-.4477-1-1-1h-4v-4.1322A15.1 15.1 0 0 0 30 41c3.7823 0 7.2376-1.3999 9.876-3.7097l6.4169 6.4168c.3905.3905 1.0237.3905 1.4142 0s.3905-1.0237 0-1.4142l-6.4168-6.4168C43.6001 33.2376 45 29.7823 45 26c0-8.2843-6.7157-15-15-15s-15 6.7157-15 15c0 3.8418 1.4443 7.3462 3.8195 10H4c-1.1555 0-2-.823-2-2v-2.7317h9.2564c.5523 0 1-.4477 1-1s-.4477-1-1-1H2V6c0-1.177.8445-2 2-2h35c1.1555 0 2 .823 2 2v6c0 .5523.4477 1 1 1s1-.4477 1-1V6c0-2.2984-1.7568-4-4-4zm2 6c-.5523 0-1 .4477-1 1s.4477 1 1 1h11c.5523 0 1-.4477 1-1s-.4477-1-1-1zm0 4c-.5523 0-1 .4477-1 1s.4477 1 1 1h6c.5523 0 1-.4477 1-1s-.4477-1-1-1zm24 1c-7.1797 0-13 5.8203-13 13s5.8203 13 13 13 13-5.8203 13-13-5.8203-13-13-13M6.5 19c.8284 0 1.5-.6716 1.5-1.5S7.3284 16 6.5 16 5 16.6716 5 17.5 5.6716 19 6.5 19m22.8984-2.5524c-1.5396 0-2.8083 1.1597-2.9802 2.6532h-.265c-2.2092 0-4 1.7909-4 4v6.7356c0 2.2092 1.7908 4 4 4h1.2452c.5523 0 1-.4477 1-1v-.6532c0-.5523.4477-1 1-1h.2452c.5523 0 1 .4477 1 1v.6532c0 .5523.4477 1 1 1h1.2452c2.2091 0 4-1.7908 4-4v-.265c1.4935-.1719 2.6532-1.4406 2.6532-2.9802v-.2452c0-1.5396-1.1597-2.8083-2.6532-2.9802v-.265c0-2.2091-1.7909-4-4-4h-.265c-.1719-1.4935-1.4406-2.6532-2.9802-2.6532zm-1 3c0-.5523.4477-1 1-1h.2452c.5523 0 1 .4477 1 1v.6532c0 .5523.4477 1 1 1h1.2452c1.1046 0 2 .8954 2 2v1.2452c0 .5523.4477 1 1 1h.6532c.5523 0 1 .4477 1 1v.2452c0 .5523-.4477 1-1 1h-.6532c-.5523 0-1 .4477-1 1v1.2452c0 1.1046-.8954 2-2 2h-.265c-.1719-1.4935-1.4406-2.6532-2.9802-2.6532h-.2452c-1.5396 0-2.8083 1.1597-2.9802 2.6532h-.265c-1.1046 0-2-.8954-2-2v-6.7356c0-1.1046.8954-2 2-2h1.2452c.5523 0 1-.4477 1-1zM20.9985 38H17v7h9v-4.5392A14.95 14.95 0 0 1 20.9985 38"/></svg>