<svg width="48" height="48" viewBox="0 0 48 48" fill="none" xmlns="http://www.w3.org/2000/svg">
<path fill-rule="evenodd" clip-rule="evenodd" d="M26.4182 19.1008C26.5901 17.6073 27.8588 16.4476 29.3984 16.4476H29.6436C31.1832 16.4476 32.4519 17.6073 32.6238 19.1008H32.8888C35.0979 19.1008 36.8888 20.8917 36.8888 23.1008V23.3658C38.3823 23.5377 39.542 24.8064 39.542 26.346V26.5912C39.542 28.1308 38.3823 29.3995 36.8888 29.5714V29.8364C36.8888 32.0456 35.0979 33.8364 32.8888 33.8364H31.6436C31.0913 33.8364 30.6436 33.3887 30.6436 32.8364V32.1832C30.6436 31.6309 30.1959 31.1832 29.6436 31.1832H29.3984C28.8461 31.1832 28.3984 31.6309 28.3984 32.1832V32.8364C28.3984 33.3887 27.9507 33.8364 27.3984 33.8364H26.1532C23.944 33.8364 22.1532 32.0456 22.1532 29.8364V23.1008C22.1532 20.8917 23.944 19.1008 26.1532 19.1008H26.4182ZM29.3984 18.4476C28.8461 18.4476 28.3984 18.8953 28.3984 19.4476V20.1008C28.3984 20.6531 27.9507 21.1008 27.3984 21.1008H26.1532C25.0486 21.1008 24.1532 21.9962 24.1532 23.1008V29.8364C24.1532 30.941 25.0486 31.8364 26.1532 31.8364H26.4182C26.5901 30.3429 27.8588 29.1832 29.3984 29.1832H29.6436C31.1832 29.1832 32.4519 30.3429 32.6238 31.8364H32.8888C33.9934 31.8364 34.8888 30.941 34.8888 29.8364V28.5912C34.8888 28.0389 35.3365 27.5912 35.8888 27.5912H36.542C37.0943 27.5912 37.542 27.1435 37.542 26.5912V26.346C37.542 25.7937 37.0943 25.346 36.542 25.346H35.8888C35.3365 25.346 34.8888 24.8983 34.8888 24.346V23.1008C34.8888 21.9962 33.9934 21.1008 32.8888 21.1008H31.6436C31.0913 21.1008 30.6436 20.6531 30.6436 20.1008V19.4476C30.6436 18.8953 30.1959 18.4476 29.6436 18.4476H29.3984Z" fill="black"/>
<path fill-rule="evenodd" clip-rule="evenodd" d="M4 2C1.75684 2 0 3.70162 0 6V34C0 36.2984 1.75684 38 4 38H15V45H11C10.4477 45 10 45.4477 10 46C10 46.5523 10.4477 47 11 47H32C32.5523 47 33 46.5523 33 46C33 45.4477 32.5523 45 32 45H28V40.8678C28.6543 40.955 29.3219 41 30 41C33.7823 41 37.2376 39.6001 39.876 37.2903L46.2929 43.7071C46.6834 44.0976 47.3166 44.0976 47.7071 43.7071C48.0976 43.3166 48.0976 42.6834 47.7071 42.2929L41.2903 35.876C43.6001 33.2376 45 29.7823 45 26C45 17.7157 38.2843 11 30 11C21.7157 11 15 17.7157 15 26C15 29.8418 16.4443 33.3462 18.8195 36H4C2.84449 36 2 35.177 2 34V31.2683H11.2564C11.8087 31.2683 12.2564 30.8206 12.2564 30.2683C12.2564 29.716 11.8087 29.2683 11.2564 29.2683H2V6C2 4.82303 2.84449 4 4 4H39C40.1555 4 41 4.82303 41 6V12C41 12.5523 41.4477 13 42 13C42.5523 13 43 12.5523 43 12V6C43 3.70162 41.2432 2 39 2H4ZM20.9985 38H17V45H26V40.4608C24.1685 39.9553 22.4775 39.1112 20.9985 38ZM30 13C22.8203 13 17 18.8203 17 26C17 33.1797 22.8203 39 30 39C37.1797 39 43 33.1797 43 26C43 18.8203 37.1797 13 30 13Z" fill="black"/>
<path d="M6 8C5.44772 8 5 8.44771 5 9C5 9.55229 5.44772 10 6 10H17C17.5523 10 18 9.55229 18 9C18 8.44771 17.5523 8 17 8H6Z" fill="black"/>
<path d="M5 13C5 12.4477 5.44772 12 6 12H12C12.5523 12 13 12.4477 13 13C13 13.5523 12.5523 14 12 14H6C5.44772 14 5 13.5523 5 13Z" fill="black"/>
<path d="M6.5 19C7.32843 19 8 18.3284 8 17.5C8 16.6716 7.32843 16 6.5 16C5.67157 16 5 16.6716 5 17.5C5 18.3284 5.67157 19 6.5 19Z" fill="black"/>
</svg>
