<svg xmlns="http://www.w3.org/2000/svg" width="48" height="48" fill="none" viewBox="0 0 48 48"><path fill="currentColor" fill-rule="evenodd" d="M42.4141 0H27.5742L.5986 28.0137 20 47.4141l28-28V5.5859zM46 18.5859l-26 26L3.4014 27.9863 28.4258 2h13.1601L46 6.414zM7.586 28.167l12.247 12.2471 16.581-16.581-12.247-12.2472zm12.247 9.419-9.419-9.419 13.753-13.7529 9.419 9.419zm-3.126-12.293 6 6-1.414 1.414-6-6zm3-3 6 6-1.414 1.414-6-6zm3.086-.086 1.414-1.414 3 3-1.414 1.414zM34.1719 8.1719a4 4 0 1 0 6.5237 4.3592 4 4 0 0 0-.8675-4.3592c-1.5824-1.5117-4.0738-1.5117-5.6562 0m4.2422 4.2422c-.7912.7558-2.037.7558-2.8282 0a2 2 0 1 1 2.8282 0" clip-rule="evenodd"/></svg>