<svg xmlns="http://www.w3.org/2000/svg" width="48" height="48" fill="none" viewBox="0 0 48 48"><path fill="currentColor" fill-rule="evenodd" d="m39 23.7192 2-1.9092v4.6177L18.4346 47.9462 1.0811 30.5927l1.6328-1.8574 1.502 1.3203-.3946.4492 14.6465 14.6465L39 25.5722zM20.167 10.5859l12.2471 12.247-14.581 14.581-12.2472-12.247zm9.419 12.2471-9.419-9.419L8.414 25.1669l9.4191 9.419zm-17.293 1.8739 6 6 1.414-1.414-6-6zm3-3 6 6 1.414-1.414-6-6zm7.5 1.5 1.414-1.414-3-3-1.414 1.414zm21.8643-9.5498A7.926 7.926 0 0 1 41 15.7248v4.7029L17.9834 42.3984.6016 25.0165 22.5723 1.9999h11.1499c3.2405-2.8541 8.1618-2.6195 11.1162.53s2.8742 8.0756-.1811 11.1272M39 8.414 34.5859 4h-.0275a5.94 5.94 0 0 0-1.4788 3.1962 3.837 3.837 0 0 1 1.7485.9756 4 4 0 1 1-5.6562 0 3.86 3.86 0 0 1 1.8794-1.013A7.98 7.98 0 0 1 32.0815 4h-8.6538L3.3984 24.9833l14.6182 14.6182L39 19.5722zm-8.4141 1.1719a1.9994 1.9994 0 0 0 0 2.8281 2.043 2.043 0 0 0 2.0745.4534 7.946 7.946 0 0 1-1.5544-3.6475 2 2 0 0 0-.5201.366M34 10.9999a1.987 1.987 0 0 0-.5859-1.414 2.04 2.04 0 0 0-.227-.1868 5.94 5.94 0 0 0 .7863 1.8731A2 2 0 0 0 34 10.9999m9.2432 1.2432c2.1119-2.0998 2.3581-5.433.5776-7.8204-1.7804-2.3873-5.0455-3.1018-7.6604-1.6764L41 7.5859v6.0588a5.95 5.95 0 0 0 2.2432-1.4016" clip-rule="evenodd"/></svg>