<svg xmlns="http://www.w3.org/2000/svg" width="48" height="48" fill="none" viewBox="0 0 48 48"><path fill="currentColor" fill-rule="evenodd" d="M40.244 40.244c-.552 0-1-.448-1-1s.448-1 1-1 1 .448 1 1-.448 1-1 1m0-4c-1.654 0-3 1.346-3 3s1.346 3 3 3 3-1.346 3-3-1.346-3-3-3m-25.257-3.129 1.414 1.414L8.91 42.02l-1.414-1.414zm-1.099-1.1-7.493 7.492-1.414-1.414 7.492-7.492zm29.338 10.833c-1.646 1.321-4.12 1.304-5.754-.041-.968-.795-1.561-1.914-1.668-3.149-.153-1.748-.838-3.277-1.982-4.422l-9.239-9.238 2.54-2.541 9.24 9.241c1.155 1.156 2.699 1.857 4.347 1.974 1.098.078 2.132.551 2.911 1.329.922.923 1.41 2.2 1.338 3.503-.073 1.32-.689 2.508-1.733 3.344m-22.65-17.2L42.034 4.19l.654.111.11.653L21.34 26.412zm1.295 4.124c.252.252.253.662.001.914h-.001c-.242.245-.669.245-.913 0l-1.095-1.094-2.578 2.578.707.707c.465.466.465 1.224 0 1.69l-8.269 8.268c-1.535 1.535-4.035 1.535-5.57 0-1.535-1.536-1.535-4.034 0-5.57l8.269-8.268c.225-.226.525-.351.844-.351s.62.125.845.351l.707.707 2.577-2.577-1.093-1.097c-.252-.252-.251-.662 0-.914a.647.647 0 0 1 .914 0zm-4.746-11.233c-1.568-1.566-3.847-2.165-6.081-1.61-1.098.273-2.214.137-3.316-.402-1.218-.597-2.909-2.099-3.847-4.018l3.917 1.92 4.684-3.177-.359-5.649-3.946-1.934c2.164-.464 4.406.028 5.562.594 2.739 1.342 2.903 3.942 2.758 5.372-.188 1.844.471 3.668 1.806 5.002l5.228 5.228-2.54 2.54zm27.91 16.048a6.568 6.568 0 0 0-4.183-1.909c-1.168-.083-2.259-.579-3.075-1.394l-9.24-9.241L44.94 5.64l-.515-3.076-3.077-.516-16.403 16.403-5.228-5.228c-.909-.908-1.357-2.142-1.23-3.385.337-3.314-1.072-6-3.868-7.371-1.968-.963-6.105-1.701-9.439.225l-1.624.939 6.645 3.258.213 3.349-2.778 1.884L1 8.87l.257 1.861c.526 3.818 3.632 6.631 5.591 7.592 1.515.74 3.13.93 4.679.547 1.557-.387 3.118.018 4.184 1.083l3.866 3.866-.415.415-.532-.532c-1.032-1.031-2.71-1.031-3.743 0-.857.858-1.001 2.164-.433 3.172-1.144-.458-2.553-.187-3.446.709L2.739 35.85c-2.315 2.316-2.315 6.083 0 8.399 1.158 1.158 2.679 1.737 4.199 1.736 1.521 0 3.042-.579 4.2-1.736l8.268-8.268c.93-.93 1.165-2.296.706-3.446.993.563 2.346.394 3.174-.435 1.031-1.031 1.031-2.71 0-3.742l-.532-.532.415-.414 9.239 9.238c.807.808 1.292 1.908 1.403 3.182.155 1.774 1.003 3.38 2.39 4.52 1.205.992 2.69 1.488 4.175 1.488 1.454 0 2.909-.477 4.1-1.432 1.472-1.178 2.376-2.925 2.48-4.793.103-1.871-.597-3.704-1.921-5.028" clip-rule="evenodd"/></svg>