<svg width="48" height="48" viewBox="0 0 48 48" fill="none" xmlns="http://www.w3.org/2000/svg">
<g clip-path="url(#clip0_8173_2798)">
<path fill-rule="evenodd" clip-rule="evenodd" d="M34 3C34 1.34315 35.3431 0 37 0H45C46.6569 0 48 1.34315 48 3V11C48 12.6569 46.6569 14 45 14H37C36.6729 14 36.358 13.9477 36.0633 13.8509L28.3613 21.5529C28.768 22.2763 29 23.111 29 24C29 26.7614 26.7614 29 24 29C21.2386 29 19 26.7614 19 24C19 21.2386 21.2386 19 24 19C25.1477 19 26.205 19.3867 27.0489 20.0369L34.4711 12.6146C34.1729 12.1485 34 11.5944 34 11V3ZM37 2C36.4477 2 36 2.44772 36 3V11C36 11.5523 36.4477 12 37 12H45C45.5523 12 46 11.5523 46 11V3C46 2.44772 45.5523 2 45 2H37ZM24 21C22.3431 21 21 22.3431 21 24C21 25.6569 22.3431 27 24 27C25.6569 27 27 25.6569 27 24C27 22.3431 25.6569 21 24 21Z" fill="black"/>
<path fill-rule="evenodd" clip-rule="evenodd" d="M14 24C14 18.4772 18.4772 14 24 14C24.5523 14 25 13.5523 25 13C25 12.4477 24.5523 12 24 12C17.3726 12 12 17.3726 12 24C12 27.0811 13.1612 29.891 15.0699 32.0159L11.4716 35.6142C10.2589 34.6062 8.70022 34 7 34C3.13401 34 0 37.134 0 41C0 44.866 3.13401 48 7 48C10.866 48 14 44.866 14 41C14 39.5563 13.563 38.2147 12.814 37.1003L16.5257 33.3886C18.5761 35.0231 21.174 36 24 36C27.0811 36 29.891 34.8388 32.0159 32.9301L35.6142 36.5284C34.6062 37.7411 34 39.2998 34 41C34 44.866 37.134 48 41 48C44.866 48 48 44.866 48 41C48 37.134 44.866 34 41 34C39.5563 34 38.2147 34.437 37.1003 35.186L33.3886 31.4743C35.0231 29.4239 36 26.826 36 24C36 23.4477 35.5523 23 35 23C34.4477 23 34 23.4477 34 24C34 29.5228 29.5228 34 24 34C21.4439 34 19.1119 33.041 17.3439 31.4632C17.3055 31.4028 17.2598 31.3456 17.2071 31.2929C17.1385 31.2243 17.0624 31.1678 16.9815 31.1233C15.141 29.3097 14 26.7881 14 24ZM2 41C2 38.2386 4.23858 36 7 36C9.76142 36 12 38.2386 12 41C12 43.7614 9.76142 46 7 46C4.23858 46 2 43.7614 2 41ZM36 41C36 38.2386 38.2386 36 41 36C43.7614 36 46 38.2386 46 41C46 43.7614 43.7614 46 41 46C38.2386 46 36 43.7614 36 41Z" fill="black"/>
</g>
<defs>
<clipPath id="clip0_8173_2798">
<rect width="48" height="48" fill="white"/>
</clipPath>
</defs>
</svg>
