<svg xmlns="http://www.w3.org/2000/svg" width="48" height="48" fill="none" viewBox="0 0 48 48"><path fill="#000" fill-rule="evenodd" d="M37 0c-1.6569 0-3 1.3431-3 3v8c0 .5944.1729 1.1485.4711 1.6146l-7.4222 7.4223A4.978 4.978 0 0 0 24 19c-2.7614 0-5 2.2386-5 5s2.2386 5 5 5 5-2.2386 5-5c0-.8889-.232-1.7237-.6387-2.4471l7.702-7.702c.2947.0968.6096.1491.9367.1491h8c1.6569 0 3-1.3431 3-3V3c0-1.6569-1.3431-3-3-3zm-1 3c0-.5523.4477-1 1-1h8c.5523 0 1 .4477 1 1v8c0 .5523-.4477 1-1 1h-8c-.5523 0-1-.4477-1-1zM24 14c-5.5228 0-10 4.4772-10 10 0 2.7881 1.141 5.3097 2.9815 7.1233.0809.0445.157.101.2256.1696a1 1 0 0 1 .1368.1703C19.1119 33.041 21.4439 34 24 34c5.5229 0 10-4.4771 10-10 0-.5523.4477-1 1-1s1 .4477 1 1c0 2.826-.9769 5.4239-2.6114 7.4744l3.7117 3.7116C38.2147 34.437 39.5563 34 41 34c3.866 0 7 3.134 7 7s-3.134 7-7 7-7-3.134-7-7c0-1.7002.6062-3.2589 1.6142-4.4716l-3.5983-3.5983C29.891 34.8388 27.0811 36 24 36c-2.826 0-5.4239-.9769-7.4743-2.6114l-3.7117 3.7117C13.563 38.2147 14 39.5563 14 41c0 3.866-3.134 7-7 7s-7-3.134-7-7 3.134-7 7-7c1.7002 0 3.2589.6062 4.4716 1.6142l3.5983-3.5983C13.1612 29.891 12 27.0811 12 24c0-6.6274 5.3726-12 12-12 .5523 0 1 .4477 1 1s-.4477 1-1 1m-3 10c0-1.6569 1.3431-3 3-3s3 1.3431 3 3-1.3431 3-3 3-3-1.3431-3-3M7 36c-2.7614 0-5 2.2386-5 5s2.2386 5 5 5 5-2.2386 5-5-2.2386-5-5-5m34 0c-2.7614 0-5 2.2386-5 5s2.2386 5 5 5 5-2.2386 5-5-2.2386-5-5-5"/></svg>