<svg xmlns="http://www.w3.org/2000/svg" width="48" height="48" fill="none" viewBox="0 0 48 48"><path fill="currentColor" fill-rule="evenodd" d="M0 3v42h48V3zm46 2v4H2V5zM2 43V11h44v32zm30-22c0-4.4183-3.5817-8-8-8s-8 3.5817-8 8v4h-3v16h22V25h-3zm-14 0c0-3.3137 2.6863-6 6-6s6 2.6863 6 6v4h-2v-4c0-2.2091-1.7909-4-4-4s-4 1.7909-4 4v4h-2zm8 4h-4v-4c0-1.1046.8954-2 2-2s2 .8954 2 2zm5.09 12-2 2h-2.18l2-2zm-7 2h-2.18l2-2h2.18zm-5 0h-2.18l2-2h2.18zM15 38.09V37h1.09zm16.91.91L33 37.91V39zM33 35H15v-8h18zM45 8h-2V6h2zm-4 0h-2V6h2z" clip-rule="evenodd"/></svg>