<svg xmlns="http://www.w3.org/2000/svg" width="48" height="48" fill="none" viewBox="0 0 48 48"><path fill="currentColor" fill-rule="evenodd" d="M5 0v48h38V0zm10 6V2h1v4zm3-4h1v4h-1zm3 0h1v4h-1zm3 0h1v4h-1zm3 0h1v4h-1zm3 0h1v4h-1zM13 2v4h-1V2zm28 44H7V2h3v6h23V2h8zm-3-3V10H10v33zM12 12h24v29H12zm11 19h2v2h-2zm5-7.57a4.87 4.87 0 0 1-1.79 3.71A2.94 2.94 0 0 0 25 29.43h-2a4.85 4.85 0 0 1 1.79-3.71A3 3 0 0 0 26 23.43c0-1.1046-.8954-2-2-2s-2 .8954-2 2h-2c0-2.2091 1.7909-4 4-4s4 1.7909 4 4M8 8h2v2H8zm0 35h2v2H8zm30 2v-2h2v2zm2-35h-2V8h2z" clip-rule="evenodd"/></svg>