<svg xmlns="http://www.w3.org/2000/svg" width="48" height="48" fill="none" viewBox="0 0 48 48"><path fill="currentColor" d="M25 33.5858c0 .5523-.4477 1-1 1s-1-.4477-1-1V7l-8.2929 8.2929c-.3905.3905-1.0237.3905-1.4142 0s-.3905-1.0237 0-1.4142l9.2929-9.293c.781-.781 2.0474-.781 2.8284 0l9.2929 9.293c.3905.3905.3905 1.0237 0 1.4142s-1.0237.3905-1.4142 0L25 6.9999z"/><path fill="currentColor" d="M5 30.5c.5523 0 1 .4477 1 1V39c0 1.1046.8954 2 2 2h32c1.1046 0 2-.8954 2-2v-7.5c0-.5523.4477-1 1-1s1 .4477 1 1V39c0 2.2091-1.7909 4-4 4H8c-2.2091 0-4-1.7909-4-4v-7.5c0-.5523.4477-1 1-1"/></svg>