<svg xmlns="http://www.w3.org/2000/svg" width="48" height="48" fill="none" viewBox="0 0 48 48"><path fill="#000" fill-rule="evenodd" d="M28.5 7c-4.6391 0-8.6863 2.5273-10.8427 6.2764A8.5 8.5 0 0 0 15.5 13c-4.3838 0-7.9922 3.3184-8.4508 7.5805C2.9459 22.008 0 25.9088 0 30.5 0 36.299 4.701 41 10.5 41c.1762 0 .3477-.0007.5164-.0015.3275-.0014.6453-.0027.9707.0015H19.5c.5523 0 1-.4477 1-1s-.4477-1-1-1h-7.4936c-.3398-.0043-.6865-.0028-1.0226-.0014h-.0013c-.1639.0007-.3254.0014-.4825.0014C5.8056 39 2 35.1944 2 30.5c0-3.9195 2.6537-7.2217 6.2642-8.2031l.721-.196.0164-.747C9.0791 17.8318 11.959 15 15.5 15c.8103 0 1.5838.1478 2.2965.417l.854.3226.3988-.8211C20.7522 11.413 24.3453 9 28.5 9 34.299 9 39 13.701 39 19.5q0 .0446-.0004.0891l-.0058.7134.6726.2377C43.3577 21.8447 46 25.3651 46 29.5c0 5.2467-4.2533 9.5-9.5 9.5-.1582 0-.321-.0006-.4854-.0013h-.0004a67 67 0 0 0-1.02.0013H28c-.5523 0-1 .4477-1 1s.4477 1 1 1l7 .0001.0117-.0002c.3254-.0038.6448-.0025.9721-.0012h.0016c.1685.0006.3393.0013.5146.0013C42.8513 41 48 35.8513 48 29.5c0-4.761-2.8927-8.8441-7.0138-10.5918C40.6773 12.2794 35.2052 7 28.5 7m1.2929 24.7071L25 26.9142V47c0 .5523-.4477 1-1 1s-1-.4477-1-1V26.9142l-4.7929 4.7929c-.3905.3905-1.0237.3905-1.4142 0s-.3905-1.0237 0-1.4142l6.5-6.5c.3905-.3905 1.0237-.3905 1.4142 0l6.5 6.5c.3905.3905.3905 1.0237 0 1.4142s-1.0237.3905-1.4142 0"/></svg>