<svg width="48" height="48" viewBox="0 0 48 48" fill="none" xmlns="http://www.w3.org/2000/svg">
<path d="M17.6573 13.2764C19.8137 9.52726 23.8609 7 28.5 7C35.2052 7 40.6773 12.2794 40.9862 18.9082C45.1073 20.6559 48 24.739 48 29.5C48 35.8513 42.8513 41 36.5 41C36.3247 41 36.1539 40.9993 35.9854 40.9987C35.6575 40.9974 35.3376 40.9961 35.0117 40.9999L35 41.0001L28 41C27.4477 41 27 40.5523 27 40C27 39.4477 27.4477 39 28 39H34.9942C35.3335 38.9961 35.6786 38.9974 36.0146 38.9987C36.179 38.9994 36.3418 39 36.5 39C41.7467 39 46 34.7467 46 29.5C46 25.3651 43.3577 21.8447 39.6664 20.5402L38.9938 20.3025L38.9996 19.5891C38.9999 19.5594 39 19.5297 39 19.5C39 13.701 34.299 9 28.5 9C24.3453 9 20.7522 11.413 19.0493 14.9185L18.6505 15.7396L17.7965 15.417C17.0838 15.1478 16.3103 15 15.5 15C11.959 15 9.07907 17.8318 9.00161 21.3539L8.98518 22.1009L8.26417 22.2969C4.65371 23.2783 2 26.5805 2 30.5C2 35.1944 5.80558 39 10.5 39C10.6571 39 10.8186 38.9993 10.9825 38.9986H10.9838C11.3199 38.9972 11.6666 38.9957 12.0064 39H19.5C20.0523 39 20.5 39.4477 20.5 40C20.5 40.5523 20.0523 41 19.5 41H11.9871C11.6617 40.9958 11.3439 40.9971 11.0164 40.9985C10.8477 40.9993 10.6762 41 10.5 41C4.70101 41 0 36.299 0 30.5C0 25.9088 2.94594 22.008 7.04919 20.5805C7.50778 16.3184 11.1162 13 15.5 13C16.2444 13 16.9676 13.0959 17.6573 13.2764Z" fill="black"/>
<path d="M25 26.9142L29.7929 31.7071C30.1834 32.0976 30.8166 32.0976 31.2071 31.7071C31.5976 31.3166 31.5976 30.6834 31.2071 30.2929L24.7071 23.7929C24.3166 23.4024 23.6834 23.4024 23.2929 23.7929L16.7929 30.2929C16.4024 30.6834 16.4024 31.3166 16.7929 31.7071C17.1834 32.0976 17.8166 32.0976 18.2071 31.7071L23 26.9142V47C23 47.5523 23.4477 48 24 48C24.5523 48 25 47.5523 25 47V26.9142Z" fill="black"/>
</svg>
