<svg width="48" height="48" viewBox="0 0 48 48" fill="none" xmlns="http://www.w3.org/2000/svg">
<path d="M14.7071 15.7071C14.3166 16.0976 13.6834 16.0976 13.2929 15.7071C12.9024 15.3166 12.9024 14.6834 13.2929 14.2929L22.5858 5C23.3668 4.21895 24.6332 4.21895 25.4142 5L34.7071 14.2929C35.0976 14.6834 35.0976 15.3166 34.7071 15.7071C34.3166 16.0976 33.6834 16.0976 33.2929 15.7071L25 7.41421V34C25 34.5523 24.5523 35 24 35C23.4477 35 23 34.5523 23 34V7.41421L14.7071 15.7071Z" fill="black"/>
<path d="M5 30C5.55228 30 6 30.4477 6 31V39C6 40.1046 6.89543 41 8 41H40C41.1046 41 42 40.1046 42 39V31C42 30.4477 42.4477 30 43 30C43.5523 30 44 30.4477 44 31V39C44 41.2091 42.2091 43 40 43H8C5.79086 43 4 41.2091 4 39V31C4 30.4477 4.44772 30 5 30Z" fill="black"/>
</svg>
