<svg xmlns="http://www.w3.org/2000/svg" width="48" height="48" fill="none" viewBox="0 0 48 48"><path fill="currentColor" fill-rule="evenodd" d="M33.9999 26c0-5.5229-4.4771-10-10-10s-10 4.4771-10 10v4h-4v18h28V30h-4zm-18 0c0-4.4183 3.5817-8 8-8s8 3.5817 8 8v4h-3v-4c0-2.7614-2.2386-5-5-5s-5 2.2386-5 5v4h-3zm11 4h-6v-4c0-1.6569 1.3431-3 3-3s3 1.3431 3 3zm9 2v14h-24V32zm-25.38-25.46L9.3999 5c8.6138-6.6022 20.5862-6.6022 29.2 0l-1.22 1.54c-7.8946-6.0486-18.8654-6.0486-26.76 0M23.9999 8a15.86 15.86 0 0 1 9.73 3.32l-1.22 1.58c-5.011-3.8551-11.989-3.8551-17 0l-1.22-1.58a15.86 15.86 0 0 1 9.71-3.32m-8.29 31 4.29-3.68v7.34zm12.29-3.68 4.29 3.68-4.29 3.66zm-2 3.68c0 1.1045-.8954 2-2 2s-2-.8955-2-2 .8954-2 2-2 2 .8954 2 2" clip-rule="evenodd"/></svg>