<svg xmlns="http://www.w3.org/2000/svg" width="48" height="48" fill="none" viewBox="0 0 48 48"><path fill="currentColor" fill-rule="evenodd" d="M23 29h2v1h-2zm0-1h2v-1h-2zm0 4h2v-1h-2zm4-8.53v1.06a1 1 0 0 0 .31.72l6.93 6.67A9.06 9.06 0 0 1 37 38.41V42h1c1.6569 0 3 1.3431 3 3v3H7v-3c0-1.6569 1.3431-3 3-3h1v-3.59a9.06 9.06 0 0 1 2.76-6.49l6.93-6.67a1 1 0 0 0 .31-.72v-1.06a1 1 0 0 0-.31-.72l-6.93-6.67A9.06 9.06 0 0 1 11 9.59V6h-1C8.3431 6 7 4.6569 7 3V0h34v3c0 1.6569-1.3431 3-3 3h-1v3.59a9.06 9.06 0 0 1-2.76 6.49l-6.93 6.67a1 1 0 0 0-.31.72M38 4c.5523 0 1-.4477 1-1V2H9v1c0 .5523.4477 1 1 1zM10 44c-.5523 0-1 .4477-1 1v1h30v-1c0-.5523-.4477-1-1-1zm22-3.46-8-5.34-8 5.34V42h16zm-7-16v-1.07a3.05 3.05 0 0 1 .92-2.17l6.93-6.66A7 7 0 0 0 35 9.59V6H13v3.59a7 7 0 0 0 2.15 5.05l6.93 6.66a3.05 3.05 0 0 1 .92 2.17v1.06a3.05 3.05 0 0 1-.92 2.17l-6.93 6.66a7 7 0 0 0-2.15 5V42h1v-2.54l10-6.66 10 6.66V42h1v-3.59a7 7 0 0 0-2.15-5l-6.93-6.71a3.05 3.05 0 0 1-.92-2.17zM32.91 12 24 20.91 15.09 12zM24 18.09 28.09 14h-8.18z" clip-rule="evenodd"/></svg>