<svg xmlns="http://www.w3.org/2000/svg" width="48" height="48" fill="none" viewBox="0 0 48 48"><path fill="currentColor" fill-rule="evenodd" d="M24 0C10.7452 0 0 10.7452 0 24s10.7452 24 24 24 24-10.7452 24-24A24 24 0 0 0 24 0M13.5 24a43.1 43.1 0 0 1 .42-6H23v12h-9.08a43.1 43.1 0 0 1-.42-6M25 2.11c3.93.82 7.31 6.41 8.75 13.89H25zm-2 0V16h-8.75C15.69 8.52 19.07 2.93 23 2.11M23 32v13.89c-3.93-.82-7.31-6.41-8.75-13.89zm2 13.89V32h8.75c-1.44 7.48-4.82 13.07-8.75 13.89M25 30V18h9.08a43.1 43.1 0 0 1 .42 6 43.1 43.1 0 0 1-.42 6zm11.12-12h9a21.85 21.85 0 0 1 0 12h-9a46.3 46.3 0 0 0 .38-6 46.3 46.3 0 0 0-.38-6m8.37-2h-8.68c-1-5.71-3.1-10.38-5.83-13.17A22.13 22.13 0 0 1 44.49 16M18 2.83c-2.71 2.79-4.79 7.46-5.81 13.17H3.51A22.13 22.13 0 0 1 18 2.83M2.84 18h9a47.57 47.57 0 0 0 0 12h-9a21.85 21.85 0 0 1 0-12m.67 14h8.68c1 5.71 3.1 10.38 5.83 13.17A22.13 22.13 0 0 1 3.51 32M30 45.17c2.73-2.79 4.81-7.46 5.83-13.17h8.68A22.13 22.13 0 0 1 30 45.17" clip-rule="evenodd"/></svg>