<svg xmlns="http://www.w3.org/2000/svg" width="48" height="48" fill="none" viewBox="0 0 48 48"><path fill="currentColor" fill-rule="evenodd" d="M25 46.0105v-14h2v-2h-2v-12h9.08a42.6 42.6 0 0 1 .39 4.48l2-.06c0-1.53-.18-3-.36-4.42h9a22 22 0 0 1 .89 6v1.05l2 .1v-1.15c.0039-10.3216-6.592-19.4897-16.3795-22.767-9.7874-3.2773-20.5742.0702-26.7865 8.3129-6.2124 8.2426-6.459 19.5341-.6122 28.0401s16.4771 12.321 26.3982 9.474l-.55-1.92a21.38 21.38 0 0 1-5.07.86m-2-.07c-3.93-.82-7.31-6.41-8.75-13.89H23zm0-15.93h-9.08a43.07 43.07 0 0 1 0-12H23zm0-27.89v13.89h-8.75c1.44-7.48 4.82-13.07 8.75-13.89m2 13.89v-13.89c3.9.82 7.29 6.4 8.74 13.89zm19.49 0H35.8c-1-5.74-3.13-10.4-5.85-13.18a22.12 22.12 0 0 1 14.54 13.18M18 2.8405c-2.71 2.79-4.79 7.46-5.81 13.17H3.51A22.13 22.13 0 0 1 18 2.8405m-15.16 15.17h9a47.57 47.57 0 0 0 0 12h-9a21.85 21.85 0 0 1 0-12m.67 14h8.68c1 5.71 3.1 10.38 5.83 13.17a22.13 22.13 0 0 1-14.51-13.17m26.49-2.79v9.1c0 6.45 8.31 9.5 8.66 9.63l.34.12.33-.12c.35-.12 8.67-3.11 8.67-9.63v-9.1l-9-5.38zm16 9.1c0 4.47-5.57 7-7 7.62-1.46-.59-7-3.13-7-7.62v-8l7-4.18 7 4.18zm-8-1.22 5.29-5.3 1.42 1.42-6.71 6.7-3.71-3.7 1.42-1.42z" clip-rule="evenodd"/></svg>