<svg xmlns="http://www.w3.org/2000/svg" width="48" height="48" fill="none" viewBox="0 0 48 48"><path fill="currentColor" fill-rule="evenodd" d="M24 0C10.7452 0 0 10.7452 0 24s10.7452 24 24 24h1V18h9.08a43.1 43.1 0 0 1 .42 6v1h2v-1a46.3 46.3 0 0 0-.38-6h9c.5689 1.9498.865 3.969.88 6v1h2v-1C48 10.7452 37.2548 0 24 0m-1 2.11V16h-8.75C15.69 8.52 19.07 2.93 23 2.11m-5 .72c-2.71 2.79-4.79 7.46-5.81 13.17H3.51A22.13 22.13 0 0 1 18 2.83M2.84 18h9a47.57 47.57 0 0 0 0 12h-9a21.85 21.85 0 0 1 0-12m.67 14h8.68c1 5.71 3.1 10.38 5.83 13.17A22.13 22.13 0 0 1 3.51 32m10.74 0H23v13.89c-3.93-.82-7.31-6.41-8.75-13.89M23 30h-9.08a43.07 43.07 0 0 1 0-12H23zm2-14V2.11c3.93.82 7.31 6.41 8.75 13.89zm10.81 0c-1-5.71-3.1-10.38-5.83-13.17A22.13 22.13 0 0 1 44.49 16zM27 48h21V27H27zm2-19h17v17H29zm6 10h2v3h-2v2h-2v-2h-2v-3h2v-8h2zm7-6h2v3h-2v8h-2v-8h-2v-3h2v-2h2z" clip-rule="evenodd"/></svg>