<svg xmlns="http://www.w3.org/2000/svg" width="48" height="48" fill="none" viewBox="0 0 48 48"><path fill="#000" fill-rule="evenodd" d="M13.5225 2.001c-.0002-.552-.448-.9998-1-1H5.001c-2.209.0001-3.9999 1.791-4 4v7.5215c.0002.552.448.9998 1 1 .5522 0 .9998-.4479 1-1V5.001c.0001-1.1044.8956-1.9999 2-2h7.5215c.5521-.0002 1-.4478 1-1m33.4756 3c-.0002-2.14-1.6805-3.8881-3.794-3.9951l-.206-.005h-7.5206c-.552.0002-.9998.448-1 1 0 .5523.4479 1 1 1h7.5206l.205.0108c1.0084.1025 1.7948.954 1.795 1.9893v7.5215c.0001.5519.4481.9996 1 1 .5521 0 .9998-.4479 1-1zM29.5928 17.3594c1.2597 0 2.3065.3513 3.04 1.0137.7356.6645 1.1347 1.6232 1.1348 2.7929-.0001 1.1581-.3791 2.1124-1.084 2.7754-.7034.6614-1.7094 1.0137-2.9248 1.0137H28.542l3.9961 4.2236c.5223.5528.1308 1.4629-.6299 1.4629a.87.87 0 0 1-.6357-.2773l-4.9571-5.3379v4.6972c-.0003.5066-.4113.918-.9179.918-.5066-.0001-.9177-.4114-.918-.918v-10.664c0-.9389.7614-1.7002 1.7002-1.7002zm-16.5781 1.3203c.3362-.5844-.0856-1.3142-.7598-1.3145a.877.877 0 0 0-.7617.4424l-3.0244 5.3057-.002.0039c-.0944.1753-.2041.3734-.293.5478l-.293-.5478-.0019-.0039-3.0176-5.294a.901.901 0 0 0-.7822-.4541c-.6925.0002-1.1248.75-.7783 1.3496l3.7724 6.5303c.114.1976.1739.4223.1739.6504v3.8369c0 .5015.4067.9082.9082.9082.5013-.0001.908-.4068.9082-.9082v-3.8388c0-.2275.0594-.4513.1728-.6485zm6.039-.2451a1.611 1.611 0 0 0-1.5166-1.0694 1.611 1.611 0 0 0-1.5156 1.0674l-3.9307 10.96c-.2178.6078.2332 1.248.8789 1.248a.933.933 0 0 0 .8809-.6269l.9307-2.6836h5.458l.9257 2.6709a.952.952 0 0 0 .8985.6396c.6576 0 1.1165-.6512.8955-1.2705zm22.0039 0a1.611 1.611 0 0 0-1.5166-1.0694 1.611 1.611 0 0 0-1.5156 1.0674l-3.9307 10.96c-.2178.6078.2332 1.248.8789 1.248a.933.933 0 0 0 .8809-.6269l.9307-2.6836h5.458l.9258 2.6709a.9515.9515 0 0 0 .8984.6396c.6574-.0002 1.1164-.6513.8955-1.2705zm-14.7422 4.8877h3.1856c.8936 0 1.4895-.2437 1.8623-.6143.3729-.3709.5507-.8981.5508-1.5234-.0001-.6056-.1769-1.1234-.5498-1.4903-.373-.3668-.9695-.6093-1.8633-.6093h-3.1856zm-10.9238 2.247 1.9668-5.6767a9.4 9.4 0 0 0 .1514-.4776 9.4 9.4 0 0 0 .1513.4786l1.9678 5.6757zm22.0039 0 1.9668-5.6767a9.3 9.3 0 0 0 .1514-.4776 9.4 9.4 0 0 0 .1513.4786l1.9678 5.6757zM2.001 34.4775c.5522 0 .9998.4479 1 1v7.5206c0 1.1044.8955 1.9998 2 2h7.5215c.5519.0001.9996.4481 1 1 0 .5521-.4479.9998-1 1H5.001c-2.209-.0002-4-1.791-4-4v-7.5206c.0001-.552.448-.9998 1-1m43.9971 0c.5521 0 .9998.4479 1 1v7.5206c0 2.2091-1.7909 4-4 4h-7.5206c-.5521-.0002-1-.4479-1-1 .0004-.5519.4481-.9999 1-1h7.5206c1.1045 0 2-.8955 2-2v-7.5206c.0001-.5519.4481-.9996 1-1"/></svg>