<svg id="icons"
    width="96" height="96" viewBox="0 0 56 62">
    <defs>
        <style>.cls-1{fill:none;}.cls-2{clip-path:url(#clip-path);}.cls-3{fill:#00a88e;}.cls-4{fill:#58595b;}</style>
        <clipPath id="clip-path">
            <rect class="cls-1" width="56" height="62"/>
        </clipPath>
    </defs>
    <title>k_Security_Network</title>
    <g id="Kaspersky_Industrial_CyberSecurity" data-name="Kaspersky Industrial CyberSecurity">
        <g class="cls-2">
            <g class="cls-2">
                <path class="cls-3" d="M28,2a4.6,4.6,0,0,1,2.278.605L51.687,14.839A4.6,4.6,0,0,1,54,18.824V43.175a4.6,4.6,0,0,1-2.313,3.986L30.278,59.4a4.589,4.589,0,0,1-4.555,0L4.313,47.161A4.6,4.6,0,0,1,2,43.175V18.824a4.6,4.6,0,0,1,2.313-3.985L25.723,2.605A4.593,4.593,0,0,1,28,2m0-2a6.6,6.6,0,0,0-3.27.868L3.321,13.1A6.587,6.587,0,0,0,0,18.824V43.175A6.588,6.588,0,0,0,3.321,48.9L24.73,61.131a6.587,6.587,0,0,0,6.54,0L52.68,48.9A6.589,6.589,0,0,0,56,43.175V18.824A6.588,6.588,0,0,0,52.68,13.1L31.27.868A6.6,6.6,0,0,0,28,0"/>
                <path class="cls-4" d="M24.493,19A8.168,8.168,0,0,1,31.2,22.522L32.15,23.9l1.521-.693a4.066,4.066,0,0,1,1.7-.367q.108,0,.219.006a4.163,4.163,0,0,1,3.866,3.6c.008.067.015.134.02.2l.1,1.278,1.2.443a6.51,6.51,0,0,1,4.181,6.843A6.612,6.612,0,0,1,38.281,41H17.707a6.622,6.622,0,0,1-6.658-5.7A6.544,6.544,0,0,1,15.1,28.414l1.183-.47.075-1.27A8.164,8.164,0,0,1,24.493,19m0-2a10.17,10.17,0,0,0-10.134,9.555A8.528,8.528,0,0,0,17.707,43H38.281a8.607,8.607,0,0,0,8.667-7.581,8.482,8.482,0,0,0-5.476-8.933c-.007-.1-.019-.2-.032-.3a6.183,6.183,0,0,0-5.746-5.345c-.107-.006-.215-.009-.322-.009a6.087,6.087,0,0,0-2.53.547A10.185,10.185,0,0,0,24.493,17"/>
                <polygon class="cls-4" points="18.915 29.09 20.044 29.09 20.044 32.248 22.873 29.09 24.292 29.09 21.364 32.298 21.364 32.458 24.452 36.086 22.983 36.086 20.044 32.568 20.044 36.086 18.915 36.086 18.915 29.09"/>
                <path class="cls-4" d="M24.645,33.878h1.169c.08.68.61,1.27,1.709,1.27,1.019,0,1.479-.52,1.479-1.121,0-.628-.44-.928-1.079-.978l-.92-.08c-1.219-.1-2.148-.7-2.148-1.889,0-1.269,1.039-2.109,2.528-2.109a2.305,2.305,0,0,1,2.6,2.1H28.812c-.089-.6-.539-1.02-1.449-1.02s-1.369.41-1.369.95c0,.589.56.839,1.3.9l.87.07a1.913,1.913,0,0,1,2,1.989c0,1.379-1.129,2.249-2.678,2.249-1.729,0-2.778-.96-2.838-2.329"/>
                <path class="cls-4" d="M31.225,29.09h1.469l2.669,4.4a5.766,5.766,0,0,1,.429.89h.161V29.09h1.128v7H35.613l-2.639-4.348a5.282,5.282,0,0,1-.46-.929h-.16v5.277H31.225Z"/>
            </g>
        </g>
    </g>
</svg>
