<svg width="100" height="100" viewBox="0 0 100 100" fill="none" xmlns="http://www.w3.org/2000/svg">
    <g clip-path="url(#clip0_8090_2170)">
        <path fill-rule="evenodd" clip-rule="evenodd"
            d="M49.4656 21.8862C48.1393 21.1205 46.1304 21.037 44.9823 21.6998L4.08025 45.3146C2.93222 45.9774 3.07676 47.1373 4.403 47.903L44.5984 71.1098C45.9246 71.8755 47.9336 71.959 49.0816 71.2962L89.9837 47.6814C91.1318 47.0186 90.9872 45.8587 89.661 45.093L49.4656 21.8862Z"
            fill="#E6E7E9" />
        <path
            d="M45.7564 53.4338C46.611 53.9272 47.6646 53.9248 48.517 53.4276L85.6735 31.7529C87.5008 30.6869 87.4905 28.0431 85.6549 26.9914L48.4985 5.70381C47.6555 5.22083 46.6202 5.21852 45.775 5.69773L8.23126 26.9854C6.38142 28.0342 6.37109 30.696 8.21273 31.7592L45.7564 53.4338Z"
            stroke="#0D0D15" stroke-width="1.5" />
        <path
            d="M24.8696 52.0958L8.04089 61.6378C6.69555 62.4006 6.68804 64.3364 8.02741 65.1096L45.5711 86.7843C46.1926 87.1431 46.9588 87.1414 47.5788 86.7798L84.7353 65.1051C86.0643 64.3298 86.0568 62.407 84.7217 61.6422L78.5 58.0776"
            stroke="#0D0D15" stroke-width="1.5" stroke-linecap="round" />
    </g>
    <defs>
        <clipPath id="clip0_8090_2170">
            <rect width="100" height="100" fill="white" />
        </clipPath>
    </defs>
</svg>