<svg width="16" height="16" viewBox="0 0 16 16" fill="none"
  xmlns="http://www.w3.org/2000/svg">
  <path fill-rule="evenodd" clip-rule="evenodd" d="M8 12C10.2091 12 12 10.2091 12 8C12 5.79086 10.2091 4 8 4C5.79086 4 4 5.79086 4 8C4 10.2091 5.79086 12 8 12ZM8 14C11.3137 14 14 11.3137 14 8C14 4.68629 11.3137 2 8 2C4.68629 2 2 4.68629 2 8C2 11.3137 4.68629 14 8 14Z" fill="currentColor"/>
  <path fill-rule="evenodd" clip-rule="evenodd" d="M9.46967 10.5303L5.46967 6.53033L6.53033 5.46967L10.5303 9.46967L9.46967 10.5303Z" fill="currentColor"/>
  <path fill-rule="evenodd" clip-rule="evenodd" d="M9.46967 5.46967L5.46967 9.46967L6.53033 10.5303L10.5303 6.53033L9.46967 5.46967Z" fill="currentColor"/>
</svg>
