<svg width="16" height="16" viewBox="0 0 16 16" fill="none" xmlns="http://www.w3.org/2000/svg">
    <path d="M8.00004 11.3335C8.36823 11.3335 8.66671 11.035 8.66671 10.6668V7.3335C8.66671 6.96531 8.36823 6.66683 8.00004 6.66683C7.63185 6.66683 7.33337 6.96531 7.33337 7.3335V10.6668C7.33337 11.035 7.63185 11.3335 8.00004 11.3335Z" fill="currentColor" fill-opacity="0.7"/>
    <path d="M8.00004 4.66683C8.36823 4.66683 8.66671 4.96531 8.66671 5.3335C8.66671 5.70169 8.36823 6.00016 8.00004 6.00016C7.63185 6.00016 7.33337 5.70169 7.33337 5.3335C7.33337 4.96531 7.63185 4.66683 8.00004 4.66683Z" fill="currentColor" fill-opacity="0.7"/>
    <path fill-rule="evenodd" clip-rule="evenodd" d="M8.00004 14.6668C11.6819 14.6668 14.6667 11.6821 14.6667 8.00016C14.6667 4.31826 11.6819 1.3335 8.00004 1.3335C4.31814 1.3335 1.33337 4.31826 1.33337 8.00016C1.33337 11.6821 4.31814 14.6668 8.00004 14.6668ZM8.00004 13.3335C10.9456 13.3335 13.3334 10.9457 13.3334 8.00016C13.3334 5.05464 10.9456 2.66683 8.00004 2.66683C5.05452 2.66683 2.66671 5.05464 2.66671 8.00016C2.66671 10.9457 5.05452 13.3335 8.00004 13.3335Z" fill="currentColor" fill-opacity="0.7"/>
</svg>
