<svg width="14" height="14" viewBox="0 0 14 14" fill="none" xmlns="http://www.w3.org/2000/svg">
<path d="M5.85785 2C7.98882 2 9.7157 3.72688 9.7157 5.85785C9.7157 6.60062 9.5059 7.29429 9.14231 7.88285L12 10.7409L10.741 11.9999L7.88285 9.14231C7.29429 9.5059 6.60062 9.7157 5.85785 9.7157C3.72688 9.7157 2 7.98882 2 5.85785C2 3.72688 3.72688 2 5.85785 2ZM5.85785 3.78055C4.71025 3.78055 3.78055 4.71025 3.78055 5.85785C3.78055 7.00546 4.71025 7.93515 5.85785 7.93515C7.00546 7.93515 7.93515 7.00546 7.93515 5.85785C7.93515 4.71025 7.00546 3.78055 5.85785 3.78055Z"  fill="currentColor"/>
</svg>
