<svg width="14" height="14" viewBox="0 0 14 14" fill="none" xmlns="http://www.w3.org/2000/svg">
<path fill-rule="evenodd" clip-rule="evenodd" d="M7 13C10.3137 13 13 10.3137 13 7C13 3.68629 10.3137 1 7 1C3.68629 1 1 3.68629 1 7C1 10.3137 3.68629 13 7 13ZM9.34 5.67C9.33452 4.19767 8.14232 3.00548 6.67 3C5.21308 3.00518 4.02717 4.17332 4 5.63H6C6 5.25996 6.29997 4.96 6.67 4.96C7.04003 4.96 7.34 5.25996 7.34 5.63C7.34 6.06999 7.2 6.21999 6.8 6.62999C6.08861 7.21184 5.67421 8.08097 5.67 8.99999H7.67C7.67 8.55999 7.81 8.39999 8.21 7.99999C8.90855 7.42537 9.3213 6.57432 9.34 5.67ZM7.67 9.99999V11H5.67V9.99999H7.67Z" fill="currentColor"/>
</svg>
