<svg width="24" height="24" viewBox="0 0 24 24" fill="none" xmlns="http://www.w3.org/2000/svg">
<path fill-rule="evenodd" clip-rule="evenodd" d="M23 22V14H19V3H20V1H13V0H11V1H4V3H5V14H1V22H0V24H24V22H23ZM7 21H9V22H7V21ZM11 21H13V22H11V21ZM15 21H17V22H15V21ZM19 21H21V22H19V21ZM21 16V19H19V16H21ZM17 3V4H7V3H17ZM17 6V19H7V6H17ZM5 16V19H3V16H5ZM3 21H5V22H3V21ZM10 10H8V7H10V10ZM13 10H11V7H13V10ZM16 10H14V7H16V10ZM10 14H8V11H10V14ZM13 14H11V11H13V14ZM16 14H14V11H16V14ZM8 18V15H10V18H8ZM13 18H11V15H13V18ZM16 18H14V15H16V18Z" fill="currentColor"/>
</svg>
