<svg width="24" height="24" viewBox="0 0 24 24" fill="none" xmlns="http://www.w3.org/2000/svg">
<path fill-rule="evenodd" clip-rule="evenodd" d="M12 8V10C10.8954 10 10 10.8954 10 12H8C8 9.79086 9.79086 8 12 8ZM19 18H22V24H2V18H5V12C5 8.13401 8.13401 5 12 5C15.866 5 19 8.13401 19 12V18ZM7 18H17V12C17 9.23858 14.7614 7 12 7C9.23858 7 7 9.23858 7 12V18ZM4 20V22H20V20H4ZM13 0H11V3H13V0ZM21.19 4.22L19.78 2.81L17.85 4.74L19.26 6.15L21.19 4.22ZM3 11H0V13H3V11ZM21 11V13H24V11H21ZM6.15 4.74L4.22 2.81L2.81 4.22L4.74 6.15L6.15 4.74Z" fill="currentColor"/>
</svg>
