<svg width="24" height="24" viewBox="0 0 24 24" fill="none" xmlns="http://www.w3.org/2000/svg">
<path fill-rule="evenodd" clip-rule="evenodd" d="M12 0C7.02944 0 3 4.02944 3 9C3 15.36 11 23 11.31 23.32L12 23.98L12.69 23.32C13.03 23 21 15.32 21 9C21 4.02944 16.9706 0 12 0ZM12 21.18C10.11 19.18 5 13.51 5 9C5 5.13401 8.13401 2 12 2C15.866 2 19 5.13401 19 9C19 13.51 13.89 19.22 12 21.18ZM15.71 6.71L13.41 9L15.71 11.29L14.29 12.71L12 10.41L9.71 12.71L8.29 11.29L10.59 9L8.29 6.71L9.71 5.29L12 7.59L14.29 5.29L15.71 6.71Z" fill="currentColor"/>
</svg>
