<svg width="24" height="24" viewBox="0 0 24 24" fill="none" xmlns="http://www.w3.org/2000/svg">
<path fill-rule="evenodd" clip-rule="evenodd" d="M22 17V16C22 14.3431 20.6569 13 19 13C17.3431 13 16 14.3431 16 16V17H14V24H24V17H22ZM18 16C18 15.4477 18.4477 15 19 15C19.5523 15 20 15.4477 20 16V17H18V16ZM22 22H16V19H22V22ZM0 6H6V0H0V6ZM2 2H4V4H2V2ZM14 0H8V6H14V0ZM12 4H10V2H12V4ZM22 0H16V6H22V0ZM20 4H18V2H20V4ZM0 14H6V8H0V14ZM2 10H4V12H2V10ZM14 8H8V14H14V8ZM12 12H10V10H12V12ZM18 11H16V8H22V11H20V10H18V11ZM0 22H6V16H0V22ZM2 18H4V20H2V18ZM8 16H12V18H10V20H12V22H8V16Z" fill="currentColor"/>
</svg>
