<svg width="24" height="24" viewBox="0 0 24 24" fill="none" xmlns="http://www.w3.org/2000/svg">
<path fill-rule="evenodd" clip-rule="evenodd" d="M0 1V23H24V1H0ZM16 3V4H18V3H19V4H21V3H22V5H2V3H16ZM2 21V7H22V21H2ZM16 8H18V13H13V11H14.64C13.5693 10.0584 12.0784 9.75792 10.7266 10.2113C9.37477 10.6646 8.36647 11.8033 8.08 13.2L6.08 12.8C6.51289 10.6963 8.03721 8.98447 10.0768 8.31149C12.1164 7.6385 14.3602 8.10704 15.96 9.54L16 8ZM15.92 14.8L17.92 15.2C17.4871 17.3037 15.9628 19.0155 13.9232 19.6885C11.8836 20.3615 9.63984 19.893 8.04 18.46V20H6.04V15H11.04V17H9.4C10.4707 17.9416 11.9616 18.2421 13.3134 17.7887C14.6652 17.3354 15.6735 16.1967 15.96 14.8H15.92Z" fill="currentColor"/>
</svg>
