<svg width="24" height="24" viewBox="0 0 24 24" fill="none" xmlns="http://www.w3.org/2000/svg">
<path fill-rule="evenodd" clip-rule="evenodd" d="M13 5.00008V11.0001H17V13.0001H11V5.00008H13ZM2.38 14.7001C2.3 14.4101 2.23 14.1201 2.17 13.8201C2.12617 13.5549 1.97743 13.3185 1.75731 13.1642C1.53719 13.0099 1.26424 12.9508 1 13.0001C0.459926 13.1013 0.102683 13.6193 0.2 14.1601C0.263195 14.5212 0.34666 14.8784 0.45 15.2301C0.578306 15.6713 0.990829 15.9684 1.45 15.9501C1.53941 15.9646 1.63059 15.9646 1.72 15.9501C2.24725 15.7869 2.54264 15.2275 2.38 14.7001ZM6.62 20.4201C6.36386 20.2606 6.11681 20.087 5.88 19.9001C5.59955 19.6786 5.22223 19.6235 4.89017 19.7556C4.55812 19.8878 4.32177 20.187 4.27017 20.5406C4.21857 20.8943 4.35955 21.2486 4.64 21.4701C4.92536 21.6956 5.22244 21.9059 5.53 22.1001C5.69095 22.2041 5.87839 22.2596 6.07 22.2601C6.51473 22.2634 6.9082 21.9726 7.03557 21.5465C7.16294 21.1204 6.99359 20.6614 6.62 20.4201ZM3.47 17.1901C3.18005 16.7179 2.5622 16.5701 2.09 16.8601C1.6178 17.15 1.47005 17.7679 1.76 18.2401C1.95 18.5501 2.15 18.8501 2.37 19.1401C2.55885 19.3919 2.85524 19.5401 3.17 19.5401C3.38524 19.543 3.59566 19.4763 3.77 19.3501C3.98217 19.191 4.12244 18.9541 4.15995 18.6915C4.19746 18.429 4.12913 18.1623 3.97 17.9501C3.78842 17.7069 3.62146 17.4531 3.47 17.1901ZM9.96 21.7901C9.66288 21.7287 9.36915 21.652 9.08 21.5601C8.54981 21.3972 7.98792 21.6949 7.825 22.2251C7.66208 22.7553 7.95981 23.3172 8.49 23.4801C8.84 23.5801 9.19 23.6701 9.55 23.7501H9.75C10.2328 23.7598 10.6535 23.4232 10.75 22.9501C10.8501 22.4251 10.5198 21.9142 10 21.7901H9.96ZM12 8.1481e-05C7.96843 -0.014817 4.20396 2.01424 2 5.39008V3.00008H0V9.00008H6V7.00008H3.35C5.77712 2.7962 10.8728 0.942528 15.4337 2.60433C19.9946 4.26613 22.7033 8.9634 21.8571 13.7433C21.0109 18.5232 16.8542 22.0051 12 22.0001V24.0001C18.6274 24.0001 24 18.6275 24 12.0001C24 5.37266 18.6274 8.1481e-05 12 8.1481e-05Z" fill="currentColor"/>
</svg>
