<svg width="24" height="24" viewBox="0 0 24 24" fill="none" xmlns="http://www.w3.org/2000/svg">
<path fill-rule="evenodd" clip-rule="evenodd" d="M9.707 15.707L12 13.414L14.293 15.707L15.707 14.293L13.414 12L15.707 9.707L14.293 8.293L12 10.586L9.707 8.293L8.293 9.707L10.586 12L8.293 14.293L9.707 15.707ZM12 0C7.893 0 4.188 2.055 2 5.389V3H0V9H6V7H3.35C5.119 3.92 8.374 2 12 2C17.514 2 22 6.486 22 12C22 17.514 17.514 22 12 22V24C18.617 24 24 18.617 24 12C24 5.383 18.617 0 12 0ZM2.379 14.7C2.298 14.413 2.229 14.118 2.175 13.819C2.076 13.276 1.565 12.915 1.011 13.017C0.468 13.116 0.108 13.637 0.208 14.181C0.274 14.542 0.356 14.897 0.455 15.245C0.579 15.686 0.98 15.973 1.416 15.973C1.507 15.973 1.599 15.961 1.689 15.935C2.221 15.784 2.529 15.231 2.379 14.7ZM9.96 21.79C9.661 21.728 9.368 21.652 9.08 21.564C8.556 21.399 7.992 21.701 7.832 22.228C7.67 22.757 7.968 23.315 8.496 23.477C8.841 23.582 9.194 23.673 9.552 23.747C9.621 23.762 9.689 23.769 9.757 23.769C10.221 23.769 10.637 23.444 10.734 22.973C10.848 22.432 10.501 21.902 9.96 21.79ZM3.466 17.194C3.179 16.723 2.561 16.572 2.092 16.861C1.62 17.148 1.471 17.764 1.759 18.235C1.948 18.546 2.151 18.848 2.367 19.14C2.563 19.404 2.865 19.544 3.172 19.544C3.379 19.544 3.587 19.48 3.767 19.348C4.21 19.019 4.303 18.393 3.975 17.948C3.794 17.705 3.624 17.454 3.466 17.194ZM6.915 21.804C6.724 22.101 6.402 22.263 6.073 22.263C5.888 22.263 5.7 22.211 5.533 22.103C5.228 21.907 4.931 21.696 4.645 21.473C4.209 21.133 4.132 20.505 4.472 20.069C4.811 19.634 5.438 19.555 5.875 19.896C6.114 20.083 6.361 20.259 6.615 20.422C7.08 20.721 7.214 21.339 6.915 21.804Z" fill="currentColor"/>
</svg>
