<svg width="24" height="24" viewBox="0 0 24 24" fill="none" xmlns="http://www.w3.org/2000/svg">
<path fill-rule="evenodd" clip-rule="evenodd" d="M2 17H8V19H0V6H7.85C7.11588 6.51513 6.51859 7.20166 6.11 8H2V17ZM24 10H23V6H14.15C14.8841 6.51513 15.4814 7.20166 15.89 8H21V17H14V19H23V15H24V10ZM10 18H12V16H10V18ZM11 7C9.067 7 7.5 8.567 7.5 10.5V11H9.5V10.5C9.5 9.67157 10.1716 9 11 9C11.8284 9 12.5 9.67157 12.5 10.5C12.5 11.27 12.21 11.5 11.62 11.97C10.6037 12.6283 9.99303 13.7592 10 14.97H12C12 14.2 12.29 13.97 12.88 13.5C13.8963 12.8417 14.507 11.7108 14.5 10.5C14.5 8.567 12.933 7 11 7Z" fill="currentColor"/>
</svg>
