<svg width="24" height="24" viewBox="0 0 24 24" fill="none" xmlns="http://www.w3.org/2000/svg">
<path fill-rule="evenodd" clip-rule="evenodd" d="M0 1V23H24V1H0ZM22 5H20V3H22V5ZM18 3V5H2V3H18ZM11.24 20.92C11.0763 20.8872 10.9157 20.8404 10.76 20.78C10.6917 20.766 10.6247 20.7459 10.56 20.72C10.3505 20.6403 10.1495 20.5398 9.96 20.42C9.76297 20.2981 9.57573 20.161 9.4 20.01C8.13822 18.9163 7.68864 17.1538 8.27233 15.5893C8.85602 14.0248 10.3502 12.9875 12.02 12.9875C13.6898 12.9875 15.184 14.0248 15.7677 15.5893C16.3514 17.1538 15.9018 18.9163 14.64 20.01C14.4643 20.161 14.277 20.2981 14.08 20.42C13.8905 20.5398 13.6895 20.6403 13.48 20.72C13.4153 20.7459 13.3483 20.766 13.28 20.78C13.1243 20.8404 12.9637 20.8872 12.8 20.92C12.2989 21.0267 11.7811 21.0267 11.28 20.92H11.24ZM18.09 21L17.52 19.87C17.6831 19.5481 17.8202 19.2137 17.93 18.87L20 18.19V15.81L17.93 15.13C17.8202 14.7863 17.6831 14.4519 17.52 14.13L18.52 12.13L16.85 10.46L14.85 11.46C14.5281 11.2969 14.1937 11.1598 13.85 11.05L13.17 8.98H10.79L10.11 11.05C9.76627 11.1598 9.43187 11.2969 9.11 11.46L7.11 10.46L5.44 12.13L6.44 14.13C6.2769 14.4519 6.1398 14.7863 6.03 15.13L3.96 15.81V18.19L6.03 18.87C6.1398 19.2137 6.2769 19.5481 6.44 19.87L5.87 21H2V7H22V21H18.09ZM14 17C14 15.8954 13.1046 15 12 15C10.8954 15 10 15.8954 10 17C10 18.1046 10.8954 19 12 19C13.1046 19 14 18.1046 14 17Z" fill="currentColor"/>
</svg>
