<svg width="24" height="24" viewBox="0 0 24 24" fill="none" xmlns="http://www.w3.org/2000/svg">
<path fill-rule="evenodd" clip-rule="evenodd" d="M15.837 18.2432L15.22 21.7422C15.198 21.8602 15.122 21.9252 15.078 21.9532C15.031 21.9842 14.956 22.0152 14.86 21.9912C12.22 21.3032 9.76102 19.9312 7.74402 18.0242C6.74002 17.0802 5.84002 16.0002 5.06902 14.8122C4.27302 13.5822 3.62402 12.2622 3.14102 10.8852C2.17802 8.16524 1.83902 5.18224 2.16202 2.26124C2.17302 2.16024 2.23102 2.09824 2.27702 2.06324C2.31102 2.03824 2.37602 2.00024 2.46502 2.00024C2.48302 2.00024 2.50102 2.00224 2.52202 2.00624L5.94102 2.60624V7.65124L3.79802 9.01424L4.02102 9.74124C4.48002 11.2452 5.13202 12.6662 5.95602 13.9592C6.80502 15.3052 7.82602 16.5022 8.99302 17.5162L9.60902 18.0542L11.691 16.4562L15.837 18.2432ZM9.70902 15.4562C8.93502 14.6962 8.24302 13.8362 7.64602 12.8892C7.04802 11.9512 6.55402 10.9402 6.17102 9.87524L7.94102 8.74924V0.927244L2.86902 0.0362441C2.24102 -0.0747559 1.58802 0.0812441 1.07802 0.463244C0.572022 0.842244 0.243022 1.41724 0.174022 2.04224C-0.181978 5.26224 0.192022 8.55024 1.25502 11.5502C1.78902 13.0732 2.50802 14.5372 3.39202 15.9002C4.25002 17.2222 5.25302 18.4282 6.37202 19.4792C8.63002 21.6162 11.391 23.1532 14.358 23.9272C14.543 23.9752 14.733 23.9992 14.923 23.9992C15.357 23.9992 15.787 23.8752 16.159 23.6362C16.702 23.2872 17.077 22.7232 17.189 22.0912L18.081 17.0322L11.404 14.1552L9.70902 15.4562ZM22 7.00024H14V2.00024H22V7.00024ZM12 0.000244141V9.00024H15V11.8632L18.367 9.00024H24V0.000244141H12Z" fill="currentColor"/>
</svg>
