<svg width="24" height="24" viewBox="0 0 24 24" fill="none" xmlns="http://www.w3.org/2000/svg">
<path fill-rule="evenodd" clip-rule="evenodd" d="M18.54 5L16.54 2H7.46L5.46 5H4V4H1V5H0V23H24V5H18.54ZM22 21H2V7H6.54L8.54 4H15.46L17.46 7H22V21ZM12 8C8.68629 8 6 10.6863 6 14C6 17.3137 8.68629 20 12 20C15.3137 20 18 17.3137 18 14C18 10.6863 15.3137 8 12 8ZM12 18C9.79086 18 8 16.2091 8 14C8 11.7909 9.79086 10 12 10C14.2091 10 16 11.7909 16 14C16 16.2091 14.2091 18 12 18ZM13 14H15C15 15.6569 13.6569 17 12 17C10.3431 17 9 15.6569 9 14C9 12.3431 10.3431 11 12 11V13C11.4477 13 11 13.4477 11 14C11 14.5523 11.4477 15 12 15C12.5523 15 13 14.5523 13 14ZM19.5 11C20.3284 11 21 10.3284 21 9.5C21 8.67157 20.3284 8 19.5 8C18.6716 8 18 8.67157 18 9.5C18 10.3284 18.6716 11 19.5 11ZM14 7H10V5H14V7Z" fill="currentColor"/>
</svg>
