<svg width="24" height="24" viewBox="0 0 24 24" fill="none" xmlns="http://www.w3.org/2000/svg">
<path fill-rule="evenodd" clip-rule="evenodd" d="M24 8H21.47L20.38 4.18C20.013 2.88851 18.8326 1.99811 17.49 2H6.49C5.14738 1.99811 3.96698 2.88851 3.6 4.18L2.53 8H0V10H1.88L1.32 11.13C1.11083 11.5458 1.00127 12.0046 1 12.47V19H2V21C2 22.1046 2.89543 23 4 23H6C7.10457 23 8 22.1046 8 21V19H16V21C16 22.1046 16.8954 23 18 23H20C21.1046 23 22 22.1046 22 21V19H23V12.47C22.9987 12.0046 22.8892 11.5458 22.68 11.13L22.12 10H24V8ZM5.55 4.72C5.67831 4.27874 6.09083 3.98173 6.55 4H17.55C18.0092 3.98173 18.4217 4.27874 18.55 4.72L19.77 9H4.33L5.55 4.72ZM6 21H4V19H6V21ZM10 17V16H14V17H10ZM8 14V17H3V12.47C3.00248 12.3168 3.04012 12.1663 3.11 12.03L3.62 11.03H20.38L20.89 12.03C20.9599 12.1663 20.9975 12.3168 21 12.47V17H16V14H8ZM20 21H18V19H20V21ZM4 13H7V15H4V13ZM20 15H17V13H20V15Z" fill="currentColor"/>
</svg>
