<svg width="25" height="24" viewBox="0 0 25 24" fill="none" xmlns="http://www.w3.org/2000/svg">
<path fill-rule="evenodd" clip-rule="evenodd" d="M9.31046 16.4404L10.2305 18.2104C7.28525 19.7425 3.66892 18.9951 1.57239 16.421C-0.524131 13.8468 -0.524131 10.154 1.57239 7.57989C3.66892 5.00574 7.28525 4.25831 10.2305 5.79042L9.31046 7.56042C7.20677 6.47105 4.62734 7.00751 3.13243 8.84531C1.63752 10.6831 1.63752 13.3177 3.13243 15.1555C4.62734 16.9933 7.20677 17.5298 9.31046 16.4404ZM17.0105 5.00042C14.7611 5.00622 12.6515 6.09262 11.3405 7.92042L12.9605 9.08042C14.228 7.31856 16.4874 6.57567 18.5532 7.24155C20.619 7.90742 22.0192 9.82999 22.0192 12.0004C22.0192 14.1709 20.619 16.0934 18.5532 16.7593C16.4874 17.4252 14.228 16.6823 12.9605 14.9204L11.3405 16.0804C13.2713 18.7722 16.8246 19.742 19.8552 18.4043C22.8858 17.0666 24.5637 13.7876 23.876 10.5471C23.1882 7.30664 20.3231 4.9919 17.0105 5.00042ZM7.01046 9.00042C5.48376 8.99614 4.19733 10.1391 4.02191 11.6557C3.84649 13.1723 4.83805 14.5788 6.32542 14.9231C7.8128 15.2674 9.32155 14.4398 9.83046 13.0004H16.1005L14.8005 14.2904L16.2205 15.7104L19.9205 12.0004L16.2205 8.29042L14.8005 9.71042L16.1005 11.0004H9.83046C9.40772 9.8047 8.27872 9.00399 7.01046 9.00042Z" fill="currentColor"/>
</svg>
