<svg width="24" height="24" viewBox="0 0 24 24" fill="none" xmlns="http://www.w3.org/2000/svg">
<path fill-rule="evenodd" clip-rule="evenodd" d="M15.707 11.707L13.414 14L15.707 16.293L14.293 17.707L12 15.414L9.707 17.707L8.293 16.293L10.586 14L8.293 11.707L9.707 10.293L12 12.586L14.293 10.293L15.707 11.707ZM18.695 19H5.305C3.482 19 2 17.43 2 15.5C2 13.888 3.039 12.494 4.527 12.111L4.631 12.085C5.102 11.98 5.602 11.977 6.077 12.096L6.565 10.156C6.033 10.021 5.48 9.985 4.936 10.023C4.896 9.85 4.869 9.675 4.869 9.5C4.869 8.121 5.923 7 7.218 7C7.787 7 8.341 7.23 8.778 7.648L8.837 7.705C9.117 7.992 9.335 8.342 9.453 8.733L11.367 8.155C11.225 7.685 11.001 7.248 10.721 6.851C11.615 5.682 12.944 5 14.392 5C17.005 5 19.131 7.243 19.131 10C19.131 10.01 19.128 10.019 19.128 10.028C18.562 9.98 17.987 10.017 17.435 10.156L17.923 12.096C18.414 11.973 18.931 11.977 19.415 12.091L19.688 12.183C21.071 12.648 22 13.981 22 15.5C22 17.43 20.518 19 18.695 19ZM21.103 10.62C21.122 10.413 21.131 10.206 21.131 10C21.131 6.141 18.107 3 14.392 3C12.393 3 10.495 3.942 9.225 5.517C8.608 5.18 7.922 5 7.218 5C4.82 5 2.869 7.019 2.869 9.5C2.869 9.857 2.912 10.211 2.998 10.559C1.19 11.46 0 13.359 0 15.5C0 18.532 2.38 21 5.305 21H18.695C21.62 21 24 18.532 24 15.5C24 13.415 22.865 11.547 21.103 10.62Z" fill="currentColor"/>
</svg>
