<svg width="24" height="24" viewBox="0 0 24 24" fill="none" xmlns="http://www.w3.org/2000/svg">
<path fill-rule="evenodd" clip-rule="evenodd" d="M15.293 7.293L12 10.586L8.707 7.293L7.293 8.707L10.586 12L7.293 15.293L8.707 16.707L12 13.414L15.293 16.707L16.707 15.293L13.414 12L16.707 8.707L15.293 7.293ZM12 22C6.486 22 2 17.514 2 12C2 6.486 6.486 2 12 2C17.514 2 22 6.486 22 12C22 17.514 17.514 22 12 22ZM12 0C5.383 0 0 5.383 0 12C0 18.617 5.383 24 12 24C18.617 24 24 18.617 24 12C24 5.383 18.617 0 12 0Z" fill="currentColor"/>
</svg>
