<svg width="24" height="24" viewBox="0 0 24 24" fill="none" xmlns="http://www.w3.org/2000/svg">
<path fill-rule="evenodd" clip-rule="evenodd" d="M22.0001 3.00004V5.00004H4.41009L5.71009 6.29004L4.29009 7.71004L0.590088 4.00004L4.29009 0.290039L5.71009 1.71004L4.41009 3.00004H22.0001ZM20.0001 16.1V21.6C19.9946 22.9232 18.9233 23.9946 17.6001 24H9.86009L9.56009 23.62C6.53009 19.83 5.00009 17.44 5.00009 16.5C4.99752 15.654 5.4739 14.8794 6.23009 14.5C6.99783 14.1177 7.91583 14.2029 8.60009 14.72L9.00009 15V8.55004C8.963 7.87006 9.21412 7.20593 9.69182 6.72061C10.1695 6.23529 10.8296 5.9737 11.5101 6.00004C12.1908 5.96674 12.8531 6.22684 13.3292 6.71444C13.8053 7.20203 14.0496 7.87034 14.0001 8.55004V11.37L18.2101 13.37C19.293 13.8473 19.9941 14.9166 20.0001 16.1ZM18.0001 16.1C17.9975 15.7048 17.7624 15.3481 17.4001 15.19L17.0001 15V16C17.0001 16.5523 16.5524 17 16.0001 17C15.4478 17 15.0001 16.5523 15.0001 16V14.05L14.0001 13.58V15C14.0001 15.5523 13.5524 16 13.0001 16C12.4478 16 12.0001 15.5523 12.0001 15V8.55004C12.0001 8.00004 11.8001 8.00004 11.5101 8.00004C11.2201 8.00004 11.0001 8.00004 11.0001 8.55004V16.8C11.0135 17.225 10.774 17.6175 10.3901 17.8C10.0191 17.9891 9.57286 17.9503 9.24009 17.7L7.40009 16.3C7.32674 16.2337 7.22021 16.2191 7.13174 16.2634C7.04328 16.3076 6.99101 16.4016 7.00009 16.5C8.10206 18.4466 9.38078 20.2877 10.8201 22H17.6001C17.821 22 18.0001 21.821 18.0001 21.6V16.1Z" fill="currentColor"/>
</svg>
