<svg width="24" height="24" viewBox="0 0 24 24" fill="none" xmlns="http://www.w3.org/2000/svg">
<path fill-rule="evenodd" clip-rule="evenodd" d="M13 3H17V5H13V3ZM22 0V24H2V0H22ZM20 22V14L17.55 13.92C16.6457 15.3543 15.4622 16.5922 14.07 17.56C13.6526 17.8639 13.2582 18.1981 12.89 18.56C12.6755 18.8194 12.3566 18.9697 12.02 18.97C11.6869 18.9668 11.3722 18.8167 11.16 18.56C10.7906 18.1955 10.3927 17.8611 9.97 17.56C9.47 17.16 8.89 16.71 8.34 16.19L9.7 14.73C10.2 15.19 10.7 15.62 11.21 16C11.51 16.23 11.78 16.45 12.03 16.66C12.27 16.45 12.54 16.24 12.83 16.01C13.96 15.11 15.5 13.89 15.97 12.57L16.22 11.89L20 12V9.44L19 8.44V4.62L20 3.62V2H4V3.59L5 4.59V8.41L4 9.41V12H5.93C5.78377 10.2344 6.91297 8.61407 8.62 8.14C9.84172 7.77753 11.1636 8.12439 12.05 9.04C12.7086 8.39919 13.5911 8.04044 14.51 8.04C15.7981 8.05452 16.9803 8.7562 17.61 9.88L15.87 10.88C15.5931 10.3797 15.0717 10.0637 14.5 10.05C13.8534 10.0874 13.2768 10.4693 12.99 11.05C12.8073 11.4281 12.4079 11.6518 11.99 11.61C11.5712 11.6107 11.1864 11.3798 10.99 11.01C10.7239 10.2391 9.9089 9.8033 9.12 10.01C8.33191 10.2352 7.81002 10.9826 7.87 11.8C7.89354 12.0849 7.94717 12.3664 8.03 12.64L8.52 13.98H4V21.98L20 22Z" fill="currentColor"/>
</svg>
