<svg width="24" height="24" viewBox="0 0 24 24" fill="none" xmlns="http://www.w3.org/2000/svg">
<path fill-rule="evenodd" clip-rule="evenodd" d="M5 15.9999V8.8319L4.519 9.2529L3.202 7.7469L12 0.0509033L20.79 7.7479L19.472 9.2519L19 8.8389V15.9999H5ZM17 13.9999V7.0879L12 2.7089L7 7.0819V13.9999H17Z" fill="currentColor"/>
<path fill-rule="evenodd" clip-rule="evenodd" d="M24 19.9999H14.815C14.514 19.1519 13.848 18.4859 13 18.1849V16.9999H11V18.1849C10.152 18.4859 9.486 19.1519 9.185 19.9999H0V21.9999H9.185C9.599 23.1619 10.698 23.9999 12 23.9999C13.302 23.9999 14.401 23.1619 14.815 21.9999H24V19.9999ZM11 20.9999C11 21.5519 11.448 21.9999 12 21.9999C12.552 21.9999 13 21.5519 13 20.9999C13 20.4479 12.552 19.9999 12 19.9999C11.448 19.9999 11 20.4479 11 20.9999Z" fill="currentColor"/>
</svg>
