<svg width="24" height="24" viewBox="0 0 24 24" fill="none" xmlns="http://www.w3.org/2000/svg">
<path fill-rule="evenodd" clip-rule="evenodd" d="M23.97 12.34C23.9645 15.8226 21.1426 18.6445 17.66 18.65C15.9444 18.6287 14.3219 17.8666 13.21 16.56L14.69 15.22C15.4353 16.1092 16.5299 16.631 17.69 16.65C20.0703 16.65 22 14.7203 22 12.34C22 9.95965 20.0703 8.03 17.69 8.03C14.33 8.03 12.97 12.57 12.96 12.62C12.89 12.86 11.18 18.62 6.31 18.62C2.82508 18.62 0 15.7949 0 12.31C0 8.82508 2.82508 6 6.31 6C8.07661 6.02764 9.74123 6.83252 10.86 8.2L9.36 9.52C8.6208 8.58394 7.50244 8.0266 6.31 8C3.92965 8 2 9.92965 2 12.31C2 14.6903 3.92965 16.62 6.31 16.62C9.67 16.62 11.03 12.08 11.04 12.03C11.11 11.79 12.82 6.03 17.69 6.03C21.1609 6.05196 23.9646 8.86902 23.97 12.34Z" fill="currentColor"/>
</svg>
