<svg width="24" height="24" viewBox="0 0 24 24" fill="none" xmlns="http://www.w3.org/2000/svg">
<path fill-rule="evenodd" clip-rule="evenodd" d="M10 10H13V16H14V18H10V16H11V12H10V10ZM12 0C18.6173 0 24 5.38272 24 12C24 18.6173 18.6173 24 12 24C5.38272 24 0 18.6173 0 12C0 5.38272 5.38272 0 12 0ZM12 2C6.48728 2 2 6.48728 2 12C2 17.5127 6.48728 22 12 22C17.5127 22 22 17.5127 22 12C22 6.48728 17.5127 2 12 2ZM12 6C12.552 6 13 6.448 13 7C13 7.552 12.552 8 12 8C11.448 8 11 7.552 11 7C11 6.448 11.448 6 12 6Z" fill="currentColor"/>
</svg>
