<svg width="24" height="24" viewBox="0 0 24 24" fill="none" xmlns="http://www.w3.org/2000/svg">
<path fill-rule="evenodd" clip-rule="evenodd" d="M3 20H11V22H1V0H14.41L18 3.59V7H16V5H13V2H3V20ZM15.25 14.09L14.58 13.42L13.17 14.83L15.25 16.91L18.96 13.21L17.54 11.79L15.25 14.09ZM20 18.46V24L16 23.07L12 24V18.5C10.1458 16.8415 9.5073 14.2109 10.395 11.8869C11.2826 9.56299 13.5123 8.02786 16 8.02786C18.4877 8.02786 20.7174 9.56299 21.605 11.8869C22.4927 14.2109 21.8542 16.8415 20 18.5V18.46ZM18 19.65C16.7075 20.1166 15.2925 20.1166 14 19.65V21.44L16 20.97L18 21.44V19.65ZM20 14C20 11.7909 18.2091 10 16 10C13.7909 10 12 11.7909 12 14C12 16.2091 13.7909 18 16 18C18.2091 18 20 16.2091 20 14Z" fill="currentColor"/>
</svg>
