<svg width="24" height="24" viewBox="0 0 24 24" fill="none" xmlns="http://www.w3.org/2000/svg">
<path fill-rule="evenodd" clip-rule="evenodd" d="M23.72 24H0L3.12 14H5.86V16H4.6L2.72 22H21L19.12 16H17.86V14H20.6L23.72 24ZM13.86 7C13.86 5.89543 12.9646 5 11.86 5C10.7554 5 9.86 5.89543 9.86 7C9.86 8.10457 10.7554 9 11.86 9C12.9646 9 13.86 8.10457 13.86 7ZM11.15 18.71C10.9 18.45 4.86 12.35 4.86 7C4.86 3.13401 7.99401 0 11.86 0C15.726 0 18.86 3.13401 18.86 7C18.86 12.35 12.86 18.45 12.57 18.71L11.86 19.41L11.15 18.71ZM6.86 7C6.86 10.55 10.33 14.83 11.86 16.53C13.39 14.82 16.86 10.53 16.86 7C16.86 4.23858 14.6214 2 11.86 2C9.09858 2 6.86 4.23858 6.86 7Z" fill="currentColor"/>
</svg>
