<svg width="24" height="24" viewBox="0 0 18 18" fill="none" xmlns="http://www.w3.org/2000/svg">
<path d="M7.5 7C7.22386 7 7 7.22386 7 7.5V10.5C7 10.7761 7.22386 11 7.5 11H10.5C10.7761 11 11 10.7761 11 10.5V7.5C11 7.22386 10.7761 7 10.5 7H7.5Z" fill="currentColor"/>
<path fill-rule="evenodd" clip-rule="evenodd" d="M17 6C17.55 6 18 6.45 18 7C18 7.55 17.55 8 17 8H16V10H17C17.55 10 18 10.45 18 11C18 11.55 17.55 12 17 12H16V14C16 15.1 15.1 16 14 16H12V17C12 17.55 11.55 18 11 18C10.45 18 10 17.55 10 17V16H8V17C8 17.55 7.55 18 7 18C6.45 18 6 17.55 6 17V16H4C2.9 16 2 15.1 2 14V12H1C0.45 12 0 11.55 0 11C0 10.45 0.45 10 1 10H2V8H1C0.45 8 0 7.55 0 7C0 6.45 0.45 6 1 6H2V4C2 2.9 2.9 2 4 2H6V1C6 0.45 6.45 0 7 0C7.55 0 8 0.45 8 1V2H10V1C10 0.45 10.45 0 11 0C11.55 0 12 0.45 12 1V2H14C15.1 2 16 2.9 16 4V6H17ZM5 14H13C13.55 14 14 13.55 14 13V5C14 4.45 13.55 4 13 4H5C4.45 4 4 4.45 4 5V13C4 13.55 4.45 14 5 14Z" fill="currentColor"/>
</svg>
