<svg width="25" height="24" viewBox="0 0 25 24" fill="none" xmlns="http://www.w3.org/2000/svg">
<path fill-rule="evenodd" clip-rule="evenodd" d="M4.00594 4.50003C4.00594 3.6716 4.67752 3.00003 5.50594 3.00003C6.33437 3.00003 7.00594 3.6716 7.00594 4.50003C7.00594 5.32845 6.33437 6.00003 5.50594 6.00003C4.67752 6.00003 4.00594 5.32845 4.00594 4.50003ZM15.5059 6.00003C16.3344 6.00003 17.0059 5.32845 17.0059 4.50003C17.0059 3.6716 16.3344 3.00003 15.5059 3.00003C14.6775 3.00003 14.0059 3.6716 14.0059 4.50003C14.0059 5.32845 14.6775 6.00003 15.5059 6.00003ZM10.5059 6.00003C11.3344 6.00003 12.0059 5.32845 12.0059 4.50003C12.0059 3.6716 11.3344 3.00003 10.5059 3.00003C9.67752 3.00003 9.00594 3.6716 9.00594 4.50003C9.00594 5.32845 9.67752 6.00003 10.5059 6.00003ZM13.5059 15C12.6775 15 12.0059 15.6716 12.0059 16.5C12.0059 17.3285 12.6775 18 13.5059 18C14.3344 18 15.0059 17.3285 15.0059 16.5C15.0059 15.6716 14.3344 15 13.5059 15ZM2.00594 11.82V8.23003C0.354288 7.13287 -0.382129 5.08222 0.194193 3.18497C0.770515 1.28772 2.5231 -0.00685706 4.50594 2.73254e-05H16.5059C18.9912 2.73254e-05 21.0059 2.01475 21.0059 4.50003C21.0059 6.98531 18.9912 9.00003 16.5059 9.00003H7.25594L2.00594 11.82ZM2.00594 4.50003C2.00468 5.46425 2.56241 6.34179 3.43594 6.75003L4.00594 7.02003V8.48003L6.75594 7.00003H16.5059C17.8867 7.00003 19.0059 5.88074 19.0059 4.50003C19.0059 3.11932 17.8867 2.00003 16.5059 2.00003H4.50594C3.8429 2.00003 3.20702 2.26342 2.73818 2.73226C2.26933 3.2011 2.00594 3.83699 2.00594 4.50003ZM18.5059 15C17.6775 15 17.0059 15.6716 17.0059 16.5C17.0059 17.3285 17.6775 18 18.5059 18C19.3344 18 20.0059 17.3285 20.0059 16.5C20.0059 15.6716 19.3344 15 18.5059 15ZM24.0059 16.5C23.9968 17.9975 23.2482 19.3937 22.0059 20.23V23.82L16.7559 21H7.50594C5.02066 21 3.00594 18.9853 3.00594 16.5C3.00594 14.0147 5.02066 12 7.50594 12H19.5059C21.9889 12.0055 24.0004 14.017 24.0059 16.5ZM22.0059 16.5C22.0059 15.1193 20.8867 14 19.5059 14H7.50594C6.12523 14 5.00594 15.1193 5.00594 16.5C5.00594 17.8807 6.12523 19 7.50594 19H17.2559L20.0059 20.48V19L20.5759 18.73C21.4429 18.3249 21.9995 17.457 22.0059 16.5ZM8.50594 15C7.67752 15 7.00594 15.6716 7.00594 16.5C7.00594 17.3285 7.67752 18 8.50594 18C9.33437 18 10.0059 17.3285 10.0059 16.5C10.0059 15.6716 9.33437 15 8.50594 15Z" fill="currentColor"/>
</svg>
