<svg width="24" height="24" viewBox="0 0 24 24" fill="none" xmlns="http://www.w3.org/2000/svg">
<path fill-rule="evenodd" clip-rule="evenodd" d="M4 14H3V16H11V14H10V13H14V3H0V13H4V14ZM8 14H6V13H8V14ZM2 5H12V11H2V5ZM24 0V10H20V11H21V13H15V11H18V10H15V8H22V2H10V0H24ZM18 18.18V14H16V18.18C15.1507 18.4824 14.4824 19.1507 14.18 20H9.82C9.51762 19.1507 8.84932 18.4824 8 18.18V17H6V18.18C5.15068 18.4824 4.48238 19.1507 4.18 20H0V22H4.18C4.61062 23.1865 5.73782 23.9765 7 23.9765C8.26218 23.9765 9.38937 23.1865 9.82 22H14.18C14.6106 23.1865 15.7378 23.9765 17 23.9765C18.2622 23.9765 19.3894 23.1865 19.82 22H24V20H19.82C19.5176 19.1507 18.8493 18.4824 18 18.18ZM7 22C6.44772 22 6 21.5523 6 21C6 20.4477 6.44772 20 7 20C7.55228 20 8 20.4477 8 21C8 21.5523 7.55228 22 7 22ZM17 22C16.4477 22 16 21.5523 16 21C16 20.4477 16.4477 20 17 20C17.5523 20 18 20.4477 18 21C18 21.5523 17.5523 22 17 22Z" fill="currentColor"/>
</svg>
