<svg width="24" height="24" viewBox="0 0 24 24" fill="none" xmlns="http://www.w3.org/2000/svg">
<path fill-rule="evenodd" clip-rule="evenodd" d="M21.96 12.3076C21.74 11.9306 21.465 11.6136 21.134 11.3566C20.803 11.0986 20.443 10.8806 20.056 10.6996C19.668 10.5186 19.309 10.3416 18.978 10.1696C18.647 9.99763 18.371 9.81363 18.151 9.61163C17.933 9.40963 17.822 9.15863 17.822 8.85663C17.822 8.53363 17.941 8.27663 18.18 8.08463C18.418 7.89463 18.761 7.79763 19.209 7.79763C19.685 7.79763 20.128 7.85563 20.539 7.97163C20.949 8.08763 21.258 8.21663 21.463 8.35763L22.064 6.61963C21.738 6.41763 21.322 6.26463 20.818 6.15963C20.314 6.05263 19.778 5.99963 19.209 5.99963C18.714 5.99963 18.266 6.06063 17.864 6.18163C17.463 6.30263 17.116 6.48963 16.821 6.74163C16.527 6.99263 16.302 7.30663 16.143 7.68563C15.984 8.06263 15.904 8.50763 15.904 9.02163C15.904 9.61663 16.015 10.1056 16.233 10.4886C16.453 10.8706 16.729 11.1906 17.06 11.4476C17.391 11.7036 17.75 11.9206 18.138 12.0976C18.525 12.2736 18.885 12.4436 19.216 12.6106C19.547 12.7776 19.822 12.9596 20.042 13.1616C20.261 13.3636 20.371 13.6246 20.371 13.9476C20.371 14.3706 20.219 14.6856 19.916 14.8926C19.612 15.0986 19.176 15.2026 18.606 15.2026C18.364 15.2026 18.128 15.1816 17.899 15.1406C17.671 15.1006 17.454 15.0506 17.249 14.9906C17.043 14.9296 16.859 14.8656 16.695 14.7936C16.532 14.7236 16.399 14.6586 16.297 14.5966L15.681 16.3656C15.933 16.5066 16.325 16.6466 16.856 16.7876C17.389 16.9296 18.005 16.9996 18.705 16.9996C19.236 16.9996 19.725 16.9336 20.168 16.8026C20.611 16.6716 20.989 16.4706 21.302 16.1996C21.614 15.9266 21.856 15.5866 22.029 15.1786C22.202 14.7716 22.289 14.2856 22.289 13.7206C22.289 13.1576 22.179 12.6866 21.96 12.3076ZM12.139 11.4996C12.139 10.9866 12.098 10.5076 12.02 10.0646C11.94 9.62063 11.816 9.23363 11.648 8.90163C11.481 8.56863 11.263 8.30863 10.992 8.12263C10.722 7.93763 10.392 7.84363 10 7.84363C9.32 7.84363 8.794 8.13863 8.422 8.72763C8.048 9.31663 7.861 10.2416 7.861 11.4996C7.861 12.0336 7.904 12.5256 7.987 12.9726C8.071 13.4216 8.199 13.8066 8.371 14.1286C8.544 14.4516 8.766 14.7036 9.035 14.8846C9.306 15.0666 9.627 15.1566 10 15.1566C10.68 15.1566 11.206 14.8696 11.58 14.2956C11.952 13.7206 12.139 12.7886 12.139 11.4996ZM13.898 9.24763C14.066 9.92363 14.15 10.6736 14.15 11.4996C14.15 13.2626 13.789 14.6206 13.067 15.5726C12.346 16.5236 11.323 16.9996 10 16.9996C9.292 16.9996 8.677 16.8686 8.155 16.6076C7.634 16.3456 7.203 15.9726 6.863 15.4886C6.522 15.0046 6.27 14.4256 6.102 13.7506C5.934 13.0766 5.85 12.3266 5.85 11.4996C5.85 9.73763 6.209 8.37963 6.926 7.42763C7.643 6.47663 8.668 5.99963 10 5.99963C10.698 5.99963 11.309 6.13063 11.831 6.39263C12.353 6.65463 12.785 7.02763 13.131 7.51163C13.475 7.99463 13.731 8.57463 13.898 9.24763ZM2.976 7.03463C2.671 7.03463 2.432 7.12963 2.259 7.32163C2.086 7.51263 2 7.74463 2 8.01463C2 8.28563 2.086 8.51163 2.259 8.69363C2.432 8.87463 2.671 8.96563 2.976 8.96563C3.281 8.96563 3.527 8.87463 3.717 8.69363C3.905 8.51163 4 8.28563 4 8.01463C4 7.74463 3.905 7.51263 3.717 7.32163C3.527 7.12963 3.281 7.03463 2.976 7.03463ZM2 16.9996H4V9.99963H2V16.9996Z" fill="currentColor"/>
</svg>
