<svg width="25" height="24" viewBox="0 0 25 24" fill="none" xmlns="http://www.w3.org/2000/svg">
<path fill-rule="evenodd" clip-rule="evenodd" d="M3.50009 10.5C3.50009 9.39543 4.39552 8.5 5.50009 8.5C6.60466 8.5 7.50009 9.39543 7.50009 10.5C7.50009 11.6046 6.60466 12.5 5.50009 12.5C4.96966 12.5 4.46095 12.2893 4.08588 11.9142C3.7108 11.5391 3.50009 11.0304 3.50009 10.5ZM11.1501 12.19C10.8723 11.8845 10.4353 11.7813 10.0501 11.93L7.84009 12.79C7.49346 12.9288 7.12349 13.0001 6.75009 13H3.62009C2.65765 12.9796 1.81722 13.6477 1.62009 14.59L1.00009 17.75C0.942466 17.9944 0.989595 18.2518 1.13009 18.46C1.33986 18.8092 1.75611 18.9764 2.14913 18.8694C2.54215 18.7624 2.81622 18.4073 2.82009 18L3.00009 17V24H5.00009V19H6.00009V24H8.00009V15L10.8501 13.86C11.1563 13.7374 11.3823 13.4717 11.4543 13.1499C11.5263 12.828 11.4349 12.4913 11.2101 12.25L11.1501 12.19ZM19.0001 5.5C20.3808 5.5 21.5001 4.38071 21.5001 3C21.5001 1.61929 20.3808 0.5 19.0001 0.5C17.6194 0.5 16.5001 1.61929 16.5001 3C16.5001 4.38071 17.6194 5.5 19.0001 5.5ZM24.8101 13.22L23.3801 7.51C23.1556 6.62173 22.3563 5.99956 21.4401 6H16.8801C16.3208 6.00158 15.7876 6.23731 15.4101 6.65L11.4001 11C11.1881 11.2313 11.097 11.5487 11.154 11.8572C11.211 12.1658 11.4095 12.4297 11.6901 12.57L11.9101 12.68C12.263 12.8633 12.6909 12.8201 13.0001 12.57L16.0001 9.49V24H18.0001V16H20.0001V24H22.0001V10L22.7401 13.72C22.8032 14.0247 23.0045 14.2827 23.2848 14.418C23.565 14.5532 23.8923 14.5503 24.1701 14.41L24.2801 14.36C24.7034 14.1524 24.9242 13.6774 24.8101 13.22Z" fill="currentColor"/>
</svg>
