<svg width="24" height="24" viewBox="0 0 24 24" fill="none" xmlns="http://www.w3.org/2000/svg">
<path fill-rule="evenodd" clip-rule="evenodd" d="M12 18C8.68629 18 6 15.3138 6 12C5.99825 11.4696 6.0689 10.9414 6.21 10.43L8.03 12.24C8.169 14.2248 9.74562 15.8057 11.73 15.95L13.55 17.7701C13.0541 17.9023 12.5432 17.9695 12.03 17.97L12 18ZM19.49 18.09L22.71 21.3L21.29 22.72L1.29 2.72005L2.71 1.30005L6.15 4.74005C7.9 3.62677 9.92604 3.02415 12 3.00005C18 3.00005 22.44 8.28005 23.82 11.62L23.98 12L23.83 12.38C22.8438 14.5903 21.3582 16.5414 19.49 18.08V18.09ZM16 12C16 9.79091 14.2091 8.00005 12 8.00005C11.2947 8.01039 10.6048 8.20704 10 8.57005L15.47 14.03C15.8274 13.4139 16.0106 12.7122 16 12ZM18.07 16.68C19.6322 15.4061 20.9097 13.8186 21.82 12.02C20.61 9.51005 16.97 5.02005 12.01 5.02005C10.4782 5.04246 8.97752 5.4555 7.65 6.22005L8.57 7.13005C9.57016 6.41007 10.7678 6.01553 12 6.00005C14.2445 6.00293 16.2997 7.25831 17.327 9.25392C18.3543 11.2495 18.1818 13.6516 16.88 15.48L18.07 16.68ZM12 19C7 19 3.4 14.51 2.19 12C2.78398 10.7917 3.55591 9.67932 4.48 8.70005L3.06 7.28005C1.85069 8.5469 0.872579 10.0158 0.17 11.62L0 12L0.16 12.38C1.55 15.72 6 21 12 21C13.3478 20.9843 14.6808 20.7163 15.93 20.21L14.36 18.64C13.5945 18.8719 12.7998 18.9932 12 19Z" fill="currentColor"/>
</svg>
