<svg width="24" height="24" viewBox="0 0 24 24" fill="none" xmlns="http://www.w3.org/2000/svg">
<path fill-rule="evenodd" clip-rule="evenodd" d="M12 6C8.68629 6 6 8.68629 6 12C6 15.3137 8.68629 18 12 18C15.3137 18 18 15.3137 18 12C18 8.68629 15.3137 6 12 6ZM12 16C9.79086 16 8 14.2091 8 12C8 9.79086 9.79086 8 12 8C14.2091 8 16 9.79086 16 12C16 14.2091 14.2091 16 12 16ZM13 12H15C15 13.6569 13.6569 15 12 15C10.3431 15 9 13.6569 9 12C9 10.3431 10.3431 9 12 9V11C11.4477 11 11 11.4477 11 12C11.0011 12.2672 11.1091 12.5229 11.3 12.71C11.4952 12.8793 11.7418 12.978 12 12.99C12.5523 12.99 13 12.5423 13 11.99V12ZM23.83 11.63C22.45 8.28 18 3 12 3C5.94 3 1.55 8.31 0.2 11.62L0 12L0.16 12.38C1.55 15.72 6 21 12 21C18.06 21 22.45 15.69 23.8 12.38L24 12L23.83 11.63ZM12 19C7 19 3.4 14.51 2.19 12C3.37 9.5 6.97 5 11.98 5C16.98 5 20.58 9.49 21.79 12C20.64 14.5 17 19 12 19Z" fill="currentColor"/>
</svg>
