<svg width="24" height="24" viewBox="0 0 24 24" fill="none" xmlns="http://www.w3.org/2000/svg">
<path fill-rule="evenodd" clip-rule="evenodd" d="M7 7.5C7 6.67157 7.67157 6 8.5 6C9.32843 6 10 6.67157 10 7.5C10 8.32843 9.32843 9 8.5 9C7.67157 9 7 8.32843 7 7.5ZM24 22H22V24H20V22H5V24H3V22H1V0H24V22ZM22 2H3V20H22V2ZM21 19H4V3H21V19ZM6 5V14.59L11 9.59L14 12.59L16.25 10.34L19 13.09V5H6ZM19 17V15.91L16.25 13.16L14.71 14.71L14 15.41L13.21 16.21L11.79 14.79L12.59 14L11 12.41L6.41 17H19Z" fill="currentColor"/>
</svg>
