<svg width="24" height="24" viewBox="0 0 24 24" fill="none" xmlns="http://www.w3.org/2000/svg">
<path fill-rule="evenodd" clip-rule="evenodd" d="M12 0C7.02944 0 3 4.02944 3 9C3 15.36 11 23 11.31 23.32L12 23.98L12.69 23.32C13.03 23 21 15.32 21 9C21 4.02944 16.9706 0 12 0ZM12 21.18C10.11 19.18 5 13.51 5 9C5 5.13401 8.13401 2 12 2C15.866 2 19 5.13401 19 9C19 13.51 13.89 19.22 12 21.18ZM12 5C9.79086 5 8 6.79086 8 9C8 11.2091 9.79086 13 12 13C14.2091 13 16 11.2091 16 9C16 6.79086 14.2091 5 12 5ZM12 11C10.8954 11 10 10.1046 10 9C10 7.89543 10.8954 7 12 7C13.1046 7 14 7.89543 14 9C14 10.1046 13.1046 11 12 11Z" fill="currentColor"/>
</svg>
