<svg width="24" height="24" viewBox="0 0 24 24" fill="none" xmlns="http://www.w3.org/2000/svg">
<path fill-rule="evenodd" clip-rule="evenodd" d="M24 6.00023H13C10.8933 4.66659 8.20667 4.66659 6.1 6.00023H0V17.0002H2V19.0002H4V17.0002H6.05C8.15668 18.3339 10.8433 18.3339 12.95 17.0002H20V19.0002H22V17.0002H24V6.00023ZM2 8.00023H4C2.62626 10.1314 2.62626 12.8691 4 15.0002H2V8.00023ZM5 11.5002C5 9.01495 7.01472 7.00023 9.5 7.00023C11.9853 7.00023 14 9.01495 14 11.5002C14 13.9855 11.9853 16.0002 9.5 16.0002C7.017 15.9947 5.0055 13.9832 5 11.5002ZM22 15.0002H15C16.3737 12.8691 16.3737 10.1314 15 8.00023H22V15.0002ZM21 11.0002H17V9.00023H21V11.0002ZM21 14.0002H17V12.0002H21V14.0002ZM13 11.5002C13 13.4332 11.433 15.0002 9.5 15.0002C7.567 15.0002 6 13.4332 6 11.5002C6 9.56723 7.567 8.00023 9.5 8.00023V10.0002C8.67157 10.0002 8 10.6718 8 11.5002C8 12.3287 8.67157 13.0002 9.5 13.0002C10.3284 13.0002 11 12.3287 11 11.5002H13Z" fill="currentColor"/>
</svg>
