<svg width="24" height="24" viewBox="0 0 24 24" fill="none" xmlns="http://www.w3.org/2000/svg">
<path fill-rule="evenodd" clip-rule="evenodd" d="M21 13H23V23H1V13H3V21H21V13ZM18 18H19V16H18V18ZM24 10V12H0V10H1V1H23V10H24ZM9 6H6V9H9V6ZM18 6H15V9H18V6ZM21 3H3V10H4V4H12V5H11V6H12V7H11V10H12V9H13V8H12V7H13V6H12V5H13V4H20V10H21V3ZM19 16H20V13H19V14H18V15H19V16ZM17 18V19H18V18H17ZM17 13H16V14H17V13ZM14 13H13V14H14V13ZM18 19V20H20V18H19V19H18ZM14 16H15V15H16V14H14V16ZM11 13V16H12V17H11V18H13V19H11V20H4V13H11ZM9 15H6V18H9V15ZM8 16H7V17H8V16ZM13 14H12V16H13V14ZM8 7H7V8H8V7ZM17 7H16V8H17V7ZM14 16H13V18H14V16ZM15 18H14V19H15V20H16V17H15V18ZM13 20H14V19H13V20ZM16 17H17V16H18V15H16V17Z" fill="currentColor"/>
</svg>
