<svg width="24" height="24" viewBox="0 0 24 24" fill="none" xmlns="http://www.w3.org/2000/svg">
<path d="M12 17C11.448 17 11 17.448 11 18C11 18.552 11.448 19 12 19C12.552 19 13 18.552 13 18C13 17.448 12.552 17 12 17Z" fill="#087BB5"/>
<path d="M11 14.9287H13C13 14.0115 13.2529 13.59 14.2071 12.6358C15.5029 11.34 16 10.5115 16 8.9287C16 6.72042 14.2083 4.9287 12 4.9287C9.79172 4.9287 8 6.72042 8 8.9287H10C10 7.82498 10.8963 6.9287 12 6.9287C13.1037 6.9287 14 7.82498 14 8.9287C14 9.84588 13.7471 10.2674 12.7929 11.2216C11.4971 12.5174 11 13.3459 11 14.9287Z" fill="#087BB5"/>
<path fill-rule="evenodd" clip-rule="evenodd" d="M24 12C24 5.38272 18.6173 0 12 0C5.38272 0 0 5.38272 0 12C0 18.6173 5.38272 24 12 24C18.6173 24 24 18.6173 24 12ZM2 12C2 6.48728 6.48728 2 12 2C17.5127 2 22 6.48728 22 12C22 17.5127 17.5127 22 12 22C6.48728 22 2 17.5127 2 12Z" fill="#087BB5"/>
</svg>
