<svg width="24" height="24" viewBox="0 0 24 24" fill="none" xmlns="http://www.w3.org/2000/svg">
<path fill-rule="evenodd" clip-rule="evenodd" d="M10 7H18V2H10V7ZM13 10H15V9H13V10ZM11 9H8.00002V0H20V9H17V10H18V12H10V10H11V9ZM23.706 16.92C23.46 17.45 23.066 17.893 22.564 18.206L16.35 22.809C15.302 23.584 14.043 23.983 12.775 23.983C11.966 23.983 11.152 23.82 10.388 23.488L6.17602 21.657C5.33202 21.291 4.38202 21.227 3.49602 21.476L0.56202 22.303L0.0200195 20.377L2.95302 19.551C4.28002 19.177 5.70702 19.272 6.97302 19.823L11.186 21.654C12.493 22.223 14.015 22.05 15.16 21.201L21.44 16.554C21.678 16.402 21.81 16.255 21.89 16.083C22.059 15.714 22.004 15.301 21.742 14.983C21.48 14.665 21.085 14.53 20.685 14.632L20.468 14.685C20.387 14.705 20.31 14.733 20.238 14.771L16.224 17.297C16.277 17.676 16.249 18.067 16.127 18.444C15.889 19.183 15.338 19.765 14.614 20.044C14.321 20.157 14.009 20.214 13.697 20.214C13.429 20.214 13.159 20.172 12.901 20.087L8.70102 18.713L9.32202 16.813L13.522 18.187C13.644 18.227 13.777 18.224 13.895 18.178C14.11 18.095 14.193 17.924 14.224 17.83C14.254 17.735 14.286 17.549 14.16 17.356L14.019 17.137C13.951 17.034 13.854 16.958 13.736 16.917L6.52502 14.404C5.63102 14.092 4.65402 14.11 3.77102 14.449L0.75602 15.611L0.0370195 13.744L3.05202 12.583C4.37602 12.073 5.84202 12.048 7.18402 12.516L14.395 15.028C14.713 15.14 15.002 15.32 15.253 15.545L19.244 13.037C19.53 12.885 19.759 12.799 19.994 12.742L20.21 12.689C21.354 12.409 22.533 12.802 23.284 13.709C24.034 14.618 24.196 15.848 23.706 16.92Z" fill="currentColor"/>
</svg>
