<svg width="24" height="24" viewBox="0 0 24 24" fill="none" xmlns="http://www.w3.org/2000/svg">
<path fill-rule="evenodd" clip-rule="evenodd" d="M12 14C13.103 14 14 13.103 14 12C14 10.897 13.103 10 12 10C10.897 10 10 10.897 10 12C10 13.103 10.897 14 12 14ZM0 12C0 18.617 5.383 24 12 24C17.783 24 22.742 19.871 23.792 14.182L21.825 13.818C20.95 18.56 16.818 22 12 22C6.486 22 2 17.514 2 12C2 6.486 6.486 2 12 2C15.626 2 18.88 3.921 20.649 7H18V9H24V3H22V5.389C19.812 2.055 16.107 0 12 0C5.383 0 0 5.383 0 12Z" fill="currentColor"/>
</svg>
