<svg width="24" height="24" viewBox="0 0 24 24" fill="none" xmlns="http://www.w3.org/2000/svg">
<path fill-rule="evenodd" clip-rule="evenodd" d="M16.7901 8.29005L18.2101 9.71005L11.5001 16.4101L7.79009 12.7101L9.21009 11.2901L11.5001 13.5901L16.7901 8.29005ZM24.0001 15.0601C23.9345 18.3716 21.2223 21.0171 17.9101 21.0001H7.23009C5.31273 20.9907 3.47647 20.2253 2.12009 18.8701C0.755204 17.5333 -0.00967669 15.7005 9.2443e-05 13.7901C0.0757725 10.5364 2.38396 7.76404 5.57009 7.10005C6.72553 4.59207 9.23878 2.98953 12.0001 3.00005H12.1201C13.6034 3.0253 15.0519 3.45396 16.3101 4.24005C16.7398 4.12012 17.1839 4.05955 17.6301 4.06005C19.2108 4.04007 20.697 4.81107 21.5909 6.11484C22.4849 7.41861 22.6684 9.08279 22.0801 10.5501C23.333 11.7115 24.0314 13.3519 24.0001 15.0601ZM22.0001 15.0601C22.0178 13.7045 21.3478 12.4323 20.2201 11.6801L19.4001 11.1301L19.9401 10.3001C20.2304 9.86451 20.3869 9.35348 20.3901 8.83005C20.3699 7.90805 19.897 7.05512 19.1257 6.54957C18.3544 6.04403 17.3836 5.9507 16.5301 6.30005L16.0001 6.52005L15.5501 6.19005C14.5328 5.44441 13.3111 5.02903 12.0501 5.00005C9.89329 4.954 7.95014 6.29647 7.23009 8.33005L7.02009 8.92005L6.40009 9.00005C5.30797 9.12863 4.2887 9.61367 3.50009 10.3801C2.55817 11.2827 2.0178 12.5256 2.00009 13.8301C1.99187 15.1984 2.54485 16.5104 3.53009 17.4601C4.51925 18.4427 5.8558 18.996 7.25009 19.0001H17.9001C20.1325 19.0168 21.9618 17.2322 22.0001 15.0001V15.0601Z" fill="currentColor"/>
</svg>
