<svg width="24" height="24" viewBox="0 0 24 24" fill="none" xmlns="http://www.w3.org/2000/svg">
<path fill-rule="evenodd" clip-rule="evenodd" d="M18.1742 14.4943L17.0343 15.6143L16.0343 14.6143C19.013 10.882 18.5584 5.4731 14.9985 2.29044C11.4385 -0.892217 6.01264 -0.740526 2.63606 2.63606C-0.740526 6.01264 -0.892217 11.4385 2.29044 14.9985C5.4731 18.5584 10.882 19.013 14.6143 16.0343L15.6143 17.0343L14.4943 18.1543L20.3342 23.9942L23.9942 20.3342L18.1742 14.4943ZM9.03425 16.0142C5.16826 16.0142 2.03425 12.8802 2.03425 9.01425C2.03425 5.14826 5.16826 2.01425 9.03425 2.01425C12.9002 2.01425 16.0343 5.14826 16.0343 9.01425C16.0343 12.8802 12.9002 16.0142 9.03425 16.0142ZM17.3442 18.1542L18.1742 17.3242L21.1742 20.3242L20.3442 21.1542L17.3442 18.1542Z" fill="currentColor"/>
</svg>
