<svg width="24" height="25" viewBox="0 0 24 25" fill="none" xmlns="http://www.w3.org/2000/svg">
<path fill-rule="evenodd" clip-rule="evenodd" d="M11 10.0063H5.5C4.11929 10.0063 3 11.1256 3 12.5063C3 13.887 4.11929 15.0063 5.5 15.0063H11V24.0063H21V7.00629H11V10.0063ZM5 12.5063C5 12.2302 5.22386 12.0063 5.5 12.0063H14.5C14.7761 12.0063 15 12.2302 15 12.5063C15 12.7824 14.7761 13.0063 14.5 13.0063H5.5C5.22386 13.0063 5 12.7824 5 12.5063ZM19 9.00629V22.0063H13V15.0063H14.5C15.8807 15.0063 17 13.887 17 12.5063C17 11.1256 15.8807 10.0063 14.5 10.0063H13V9.00629H19ZM16 3.50629C17.1937 3.50402 18.3388 3.97933 19.18 4.82629L17.77 6.23629C16.7781 5.29407 15.2219 5.29407 14.23 6.23629L12.82 4.82629C13.6612 3.97933 14.8063 3.50402 16 3.50629ZM11.76 3.76629L10.34 2.34629C11.8405 0.844077 13.8767 0 16 0C18.1233 0 20.1595 0.844077 21.66 2.34629L20.24 3.76629C17.8975 1.42667 14.1025 1.42667 11.76 3.76629ZM15 19.1163V21.0063H17V19.1163C17.314 18.8321 17.4953 18.4298 17.5 18.0063C17.5 17.1779 16.8284 16.5063 16 16.5063C15.1716 16.5063 14.5 17.1779 14.5 18.0063C14.5047 18.4298 14.686 18.8321 15 19.1163Z" fill="currentColor"/>
</svg>
