<svg width="24" height="24" viewBox="0 0 24 24" fill="none" xmlns="http://www.w3.org/2000/svg">
<path fill-rule="evenodd" clip-rule="evenodd" d="M19 7V0H5V7H3V24H21V7H19ZM7 2H17V7H7V2ZM19 22H5V9H19V22ZM9 3H11V6H9V3ZM13 3H15V6H13V3ZM12 14.5C13.1937 14.4977 14.3388 14.973 15.18 15.82L13.77 17.23C12.7781 16.2878 11.2219 16.2878 10.23 17.23L8.82 15.82C9.66122 14.973 10.8063 14.4977 12 14.5ZM7.76 14.76L6.34 13.34C7.84055 11.8378 9.87673 10.9937 12 10.9937C14.1233 10.9937 16.1595 11.8378 17.66 13.34L16.24 14.76C13.8975 12.4204 10.1025 12.4204 7.76 14.76ZM13 19C13 19.5523 12.5523 20 12 20C11.4477 20 11 19.5523 11 19C11 18.4477 11.4477 18 12 18C12.5523 18 13 18.4477 13 19Z" fill="currentColor"/>
</svg>
