<svg width="25" height="25" viewBox="0 0 25 25" fill="none" xmlns="http://www.w3.org/2000/svg">
<path fill-rule="evenodd" clip-rule="evenodd" d="M24.0409 12.0009C24.0305 9.66875 23.335 7.39107 22.0409 5.45089C22.9365 4.4763 22.9047 2.96894 21.9688 2.03299C21.0328 1.09704 19.5255 1.06524 18.5509 1.96089C14.5756 -0.65363 9.4262 -0.65363 5.45089 1.96089C4.4763 1.06524 2.96894 1.09704 2.03299 2.03299C1.09704 2.96894 1.06524 4.4763 1.96089 5.45089C-0.65363 9.4262 -0.65363 14.5756 1.96089 18.5509C1.08661 19.5295 1.12606 21.0199 2.05089 21.9509C2.5188 22.4161 3.15108 22.6783 3.81089 22.6809C4.41815 22.6791 5.00291 22.4509 5.45089 22.0409C9.4262 24.6554 14.5756 24.6554 18.5509 22.0409C18.9989 22.4509 19.5836 22.6791 20.1909 22.6809C20.8745 22.716 21.5427 22.4703 22.0409 22.0009C22.9657 21.0699 23.0052 19.5795 22.1309 18.6009C23.4026 16.6365 24.067 14.3408 24.0409 12.0009ZM16.5609 20.9109L15.0309 18.5609C16.6123 17.84 17.88 16.5723 18.6009 14.9909L20.9509 16.5209C20.6677 17.0714 20.3328 17.5937 19.9509 18.0809C19.4203 18.7717 18.8017 19.3903 18.1109 19.9209C17.6265 20.2988 17.1075 20.6303 16.5609 20.9109ZM5.96089 19.9109C5.27003 19.3803 4.65146 18.7617 4.12089 18.0709C3.73893 17.5837 3.4041 17.0614 3.12089 16.5109L5.47089 14.9809C6.19174 16.5623 7.45952 17.83 9.04089 18.5509L7.51089 20.9009C6.96467 20.6235 6.44572 20.2954 5.96089 19.9209V19.9109ZM2.04089 12.0009C2.042 11.1186 2.16311 10.2405 2.40089 9.39089L4.90089 11.0209C4.789 11.6829 4.789 12.3589 4.90089 13.0209L2.40089 14.6609C2.16019 13.7948 2.03907 12.8998 2.04089 12.0009ZM4.12089 5.92089C4.65146 5.23003 5.27003 4.61146 5.96089 4.08089C6.44807 3.69893 6.97041 3.3641 7.52089 3.08089L9.05089 5.43089C7.46952 6.15174 6.20174 7.41952 5.48089 9.00089L3.13089 7.47089C3.41147 6.92427 3.74293 6.40531 4.12089 5.92089ZM6.82089 12.0009C6.82089 9.11796 9.15796 6.78089 12.0409 6.78089C14.9238 6.78089 17.2609 9.11796 17.2609 12.0009C17.2609 14.8838 14.9238 17.2209 12.0409 17.2209C10.6565 17.2209 9.32873 16.6709 8.34979 15.692C7.37085 14.713 6.82089 13.3853 6.82089 12.0009ZM18.1209 4.08089C18.8117 4.61146 19.4303 5.23003 19.9609 5.92089C20.3428 6.40807 20.6777 6.93041 20.9609 7.48089L18.6109 9.01089C17.89 7.42952 16.6223 6.16174 15.0409 5.44089L16.5709 3.09089C17.1175 3.37147 17.6365 3.70293 18.1209 4.08089ZM22.0409 12.0009C22.0391 12.8864 21.918 13.7677 21.6809 14.6209L19.1809 12.9809C19.2928 12.3189 19.2928 11.6429 19.1809 10.9809L21.6809 9.35089C21.9223 10.2134 22.0434 11.1052 22.0409 12.0009ZM14.6609 2.36089L13.0209 4.86089C12.3589 4.74899 11.6829 4.74899 11.0209 4.86089L9.38089 2.36089C11.0946 1.88069 12.9072 1.88069 14.6209 2.36089H14.6609ZM9.42089 21.6409L11.0609 19.1409C11.7229 19.2528 12.3989 19.2528 13.0609 19.1409L14.7009 21.6409C12.9872 22.1211 11.1746 22.1211 9.46089 21.6409H9.42089Z" fill="currentColor"/>
</svg>
