<svg width="24" height="24" viewBox="0 0 24 24" fill="none" xmlns="http://www.w3.org/2000/svg">
<path fill-rule="evenodd" clip-rule="evenodd" d="M22.17 11V14C22.17 15.1046 21.2746 16 20.17 16H20C19.5453 17.7614 17.9592 18.9941 16.14 19H13.14C12.8581 19.3171 12.4544 19.499 12.03 19.5H11.28C10.4516 19.5 9.78005 18.8284 9.78005 18C9.78005 17.1716 10.4516 16.5 11.28 16.5H12C12.4244 16.501 12.8281 16.6829 13.11 17H16.11C16.3536 17 16.5948 16.9525 16.82 16.86C17.625 14.9209 18.0624 12.849 18.11 10.75C18.1087 10.4826 18.092 10.2155 18.06 9.95C17.0215 9.30293 16.3362 8.21607 16.2 7H6.14005C6.00515 8.24549 5.29453 9.35584 4.22005 10C4.18811 10.2655 4.17142 10.5326 4.17005 10.8C4.17005 14.8 6.51005 22.05 11.17 22.05C12.2049 22.0298 13.2025 21.6597 14 21H16.2C16.43 21 16.66 21 16.88 21C15.5721 22.847 13.4629 23.961 11.2 24C6.85005 24 4.20005 20 3.03005 15.93C2.30915 15.7565 1.74338 15.1985 1.56005 14.48L1.06005 12.48C0.911512 11.885 1.04421 11.2547 1.42005 10.77C1.62016 10.5171 1.87712 10.3149 2.17005 10.18V6C2.17381 4.69691 3.01835 3.54527 4.26005 3.15C4.65999 1.31088 6.28795 -0.000637651 8.17005 2.32583e-07H21.17V2C21.1528 3.15009 20.7396 4.25907 20 5.14C20.0871 5.41862 20.1342 5.70816 20.14 6V9C20.6757 8.99197 21.1921 9.19913 21.5737 9.57507C21.9553 9.95102 22.1701 10.4643 22.17 11Z" fill="currentColor"/>
</svg>
