<svg width="24" height="24" viewBox="0 0 24 24" fill="none" xmlns="http://www.w3.org/2000/svg">
<path fill-rule="evenodd" clip-rule="evenodd" d="M12 0C5.37258 0 0 5.37258 0 12C0 18.6274 5.37258 24 12 24C18.6274 24 24 18.6274 24 12C24 5.37258 18.6274 0 12 0ZM6.39 20.27C6.93697 19.3302 7.75164 18.5747 8.73 18.1L9.23 17.89C9.88234 17.6885 10.4829 17.3472 10.99 16.89C11.6423 17.0857 12.3377 17.0857 12.99 16.89C13.4971 17.3472 14.0977 17.6885 14.75 17.89L15.25 18.1C16.2284 18.5747 17.043 19.3302 17.59 20.27C14.2023 22.5658 9.75768 22.5658 6.37 20.27H6.39ZM14 9H10C10 8.44771 10.4477 8 11 8H15.73C15.3731 8.61817 14.7138 8.99927 14 9ZM14 11C14 11.07 14 11.13 14 11.2C14 12.61 13.58 15 12 15C10.42 15 10 12.61 10 11.2C10 11.13 10 11.07 10 11H14ZM19.18 19C18.4149 17.8343 17.3419 16.9032 16.08 16.31L15.54 16.08C15.2555 15.9711 14.9783 15.8442 14.71 15.7C15.6122 14.392 16.0681 12.8278 16.01 11.24C16.0103 10.9954 15.9903 10.7512 15.95 10.51C17.2212 9.80026 18.0064 8.45589 18 7V6H11C9.34315 6 8 7.34315 8 9V11C8 11.07 8 11.13 8 11.2C7.94192 12.7878 8.39785 14.352 9.3 15.66C9.03171 15.8042 8.75448 15.9311 8.47 16.04L7.93 16.27C6.66809 16.8632 5.5951 17.7943 4.83 18.96C1.00572 15.0264 1.06472 8.74613 4.96222 4.88507C8.85973 1.024 15.1403 1.024 19.0378 4.88507C22.9353 8.74613 22.9943 15.0264 19.17 18.96L19.18 19Z" fill="currentColor"/>
</svg>
