<svg width="24" height="24" viewBox="0 0 24 24" fill="none" xmlns="http://www.w3.org/2000/svg">
<path fill-rule="evenodd" clip-rule="evenodd" d="M19.206 13.337C18.681 13.337 18.24 12.927 18.209 12.396C17.949 7.973 15.917 6.001 11.619 6.001H11.616C9.302 6.001 7.622 6.895 6.622 8.656C6.35 9.136 5.739 9.305 5.258 9.032C4.778 8.759 4.609 8.149 4.882 7.668C6.225 5.304 8.616 4.001 11.616 4.001H11.619C16.994 4.001 19.883 6.786 20.205 12.278C20.237 12.83 19.817 13.303 19.266 13.335C19.246 13.336 19.226 13.337 19.206 13.337ZM2.999 20.631C2.793 20.631 2.585 20.567 2.405 20.436C1.962 20.107 1.867 19.481 2.195 19.036C3.697 17.005 3.72 15.093 3.743 13.067C3.752 12.349 3.761 11.606 3.846 10.883C3.91 10.334 4.404 9.941 4.956 10.007C5.504 10.071 5.896 10.568 5.832 11.117C5.76 11.734 5.752 12.394 5.743 13.091C5.718 15.239 5.689 17.675 3.805 20.226C3.608 20.49 3.306 20.631 2.999 20.631ZM17.582 23.365C17.442 23.365 17.3 23.336 17.164 23.274C16.662 23.042 16.443 22.447 16.675 21.946C16.961 21.328 17.1 20.984 17.154 20.763C17.661 18.724 17.993 16.866 18.142 15.242C18.192 14.691 18.695 14.282 19.228 14.337C19.778 14.388 20.184 14.874 20.134 15.424C19.976 17.15 19.627 19.108 19.096 21.244C19.006 21.606 18.842 22.024 18.491 22.784C18.322 23.15 17.96 23.365 17.582 23.365ZM20.445 5.771C20.157 5.771 19.871 5.647 19.674 5.407C17.792 3.131 14.867 1.933 11.549 2.005C9.008 2.075 6.755 3.001 5.028 4.682C4.632 5.065 4 5.06 3.614 4.662C3.229 4.267 3.237 3.634 3.634 3.248C5.726 1.212 8.442 0.091 11.49 0.006C11.622 0.002 11.757 0 11.893 0C15.701 0 19.012 1.468 21.215 4.134C21.567 4.56 21.507 5.19 21.081 5.541C20.894 5.695 20.669 5.771 20.445 5.771ZM1.029 17.08C0.477 17.08 0.029 16.633 0.029 16.08V13.066C0.011 12.818 0 12.507 0 12.197C0 9.922 0.565 7.724 1.637 5.839C1.908 5.359 2.518 5.19 3 5.464C3.48 5.736 3.648 6.347 3.375 6.827C2.476 8.411 2 10.268 2 12.197C2 12.462 2.009 12.731 2.027 13L2.029 16.08C2.029 16.633 1.582 17.08 1.029 17.08ZM22.33 18.136C22.243 18.136 22.155 18.125 22.068 18.101C21.535 17.957 21.22 17.407 21.364 16.875C21.631 15.887 21.819 14.894 21.924 13.923C21.959 13.481 21.977 13.025 21.977 12.581C21.978 10.78 21.672 9.144 21.067 7.719C20.852 7.21 21.089 6.623 21.598 6.407C22.105 6.195 22.692 6.429 22.909 6.938C23.619 8.611 23.978 10.511 23.977 12.581C23.977 13.077 23.957 13.586 23.915 14.109C23.797 15.211 23.589 16.309 23.294 17.397C23.174 17.843 22.77 18.136 22.33 18.136ZM20.919 21.973C20.779 21.973 20.637 21.943 20.501 21.881C19.999 21.649 19.78 21.055 20.012 20.554C20.161 20.232 20.302 19.91 20.435 19.59C20.646 19.078 21.231 18.839 21.74 19.048C22.251 19.259 22.493 19.844 22.282 20.354C22.14 20.699 21.987 21.046 21.828 21.392C21.659 21.758 21.297 21.973 20.919 21.973ZM15.402 17.476C15.365 17.476 15.327 17.474 15.289 17.47C14.74 17.407 14.346 16.912 14.407 16.363C14.479 15.729 14.516 15.124 14.516 14.567C14.516 10.001 12.215 10.001 11.459 10.001C9.415 10.001 9.091 10.733 8.968 13.433L8.937 14.167C8.917 14.719 8.464 15.181 7.899 15.127C7.348 15.106 6.918 14.642 6.939 14.089L6.97 13.342C7.066 11.215 7.213 8.001 11.459 8.001C13.348 8.001 16.516 8.855 16.516 14.567C16.516 15.199 16.475 15.879 16.395 16.588C16.338 17.099 15.904 17.476 15.402 17.476ZM5.999 22.773C5.809 22.773 5.616 22.719 5.446 22.605C4.986 22.299 4.861 21.678 5.168 21.219C5.977 20.002 6.47 18.652 6.718 16.973C6.798 16.427 7.307 16.039 7.852 16.129C8.399 16.21 8.777 16.718 8.696 17.264C8.408 19.22 7.798 20.876 6.832 22.326C6.64 22.616 6.322 22.773 5.999 22.773ZM13.595 23.985C13.436 23.985 13.276 23.948 13.127 23.868C12.639 23.609 12.453 23.004 12.713 22.517C12.934 22.101 13.071 21.835 13.118 21.713C13.397 20.991 13.673 20.096 13.894 19.188C14.026 18.651 14.568 18.325 15.104 18.454C15.641 18.586 15.969 19.127 15.838 19.664C15.592 20.666 15.297 21.623 14.984 22.431C14.936 22.556 14.838 22.778 14.478 23.454C14.299 23.793 13.953 23.985 13.595 23.985ZM11.76 14.422C11.232 14.422 10.791 14.009 10.762 13.476C10.742 13.108 10.705 12.79 10.654 12.556C10.538 12.016 10.881 11.483 11.421 11.367C11.96 11.248 12.492 11.594 12.609 12.134C12.683 12.475 12.733 12.89 12.76 13.368C12.789 13.919 12.366 14.391 11.814 14.421C11.797 14.422 11.778 14.422 11.76 14.422ZM9.237 23.935C9.093 23.935 8.945 23.903 8.806 23.836C8.308 23.598 8.098 23 8.337 22.502C8.413 22.344 8.532 22.121 8.68 21.849C9.095 21.08 9.722 19.92 10.174 18.637C10.372 18.073 10.543 17.243 10.653 16.302C10.717 15.753 11.224 15.359 11.763 15.425C12.311 15.489 12.704 15.986 12.64 16.534C12.55 17.302 12.376 18.403 12.06 19.302C11.556 20.733 10.856 22.026 10.439 22.799C10.31 23.036 10.206 23.229 10.14 23.367C9.968 23.726 9.61 23.935 9.237 23.935Z" fill="currentColor"/>
</svg>
