<svg width="24" height="24" viewBox="0 0 24 24" fill="none" xmlns="http://www.w3.org/2000/svg">
<path fill-rule="evenodd" clip-rule="evenodd" d="M21 0H3C1.34315 0 0 1.34315 0 3V21C0 22.6569 1.34315 24 3 24H21C22.6569 24 24 22.6569 24 21V3C24 1.34315 22.6569 0 21 0ZM22 21C22 21.5523 21.5523 22 21 22H3C2.44772 22 2 21.5523 2 21V3C2 2.44772 2.44772 2 3 2H21C21.5523 2 22 2.44772 22 3V21ZM17.54 11H20V13H18.22L16.22 18.87L14.6 18.77L14.44 17.95L13.14 9.53L11.25 15.83L9.75 15.9L9.46 15.17L8.16 11.26L7.05 13H4V11H6L8 8L9.29 8.16L9.52 8.79L10.52 11.69L12.78 4.15L14.43 4.24L14.59 5.07L15.93 13.76L16.84 11.03L17.54 11Z" fill="currentColor"/>
</svg>
