<svg width="24" height="24" viewBox="0 0 24 24" fill="none" xmlns="http://www.w3.org/2000/svg">
<path fill-rule="evenodd" clip-rule="evenodd" d="M12 0C5.37258 0 0 5.37258 0 12C0 18.6274 5.37258 24 12 24C18.6274 24 24 18.6274 24 12C24 5.37258 18.6274 0 12 0ZM21.16 8H18.61C18.2979 6.32356 17.6919 4.71549 16.82 3.25C18.7472 4.31613 20.2717 5.98467 21.16 8ZM22 12C21.9993 12.6716 21.9324 13.3415 21.8 14H18.9C18.96 13.35 19 12.68 19 12C19 11.32 19 10.65 18.9 10H21.8C21.9324 10.6585 21.9993 11.3284 22 12ZM2 12C2.00066 11.3284 2.06765 10.6585 2.2 10H5.1C5.04 10.65 5 11.32 5 12C5 12.68 5 13.35 5.1 14H2.2C2.06765 13.3415 2.00066 12.6716 2 12ZM7 12C7.00093 11.3318 7.03765 10.6642 7.11 10H11V14H7.11C7.03765 13.3358 7.00093 12.6682 7 12ZM13 2.21C14.58 2.88 15.91 5.1 16.56 8H13V2.21ZM11 2.21V8H7.44C8.09 5.1 9.42 2.88 11 2.21ZM11 16V21.79C9.42 21.12 8.09 18.9 7.44 16H11ZM13 21.79V16H16.56C15.91 18.9 14.58 21.12 13 21.79ZM13 14V10H16.89C17.0366 11.3293 17.0366 12.6707 16.89 14H13ZM7.18 3.25C6.30811 4.71549 5.70212 6.32356 5.39 8H2.84C3.7283 5.98467 5.25282 4.31613 7.18 3.25ZM2.84 16H5.39C5.70212 17.6764 6.30811 19.2845 7.18 20.75C5.25282 19.6839 3.7283 18.0153 2.84 16ZM16.84 20.75C17.7119 19.2845 18.3179 17.6764 18.63 16H21.18C20.2865 18.0184 18.7546 19.6873 16.82 20.75H16.84Z" fill="currentColor"/>
</svg>
