<svg xmlns="http://www.w3.org/2000/svg" width="32" height="32" fill="none" viewBox="0 0 32 32"><path fill="#000" fill-rule="evenodd" d="M30 16c0 7.732-6.268 14-14 14S2 23.732 2 16 8.268 2 16 2s14 6.268 14 14M16 7.988c-1.9358 0-3.5051 1.5693-3.5051 3.5052S14.0642 14.9983 16 14.9983s3.5051-1.5693 3.5051-3.5051S17.9358 7.988 16 7.988m0 2c-.8313 0-1.5051.6739-1.5051 1.5052s.6738 1.5051 1.5051 1.5051 1.5051-.6739 1.5051-1.5051S16.8313 9.988 16 9.988M14 16c-2.7614 0-5 2.2386-5 5v.2c0 1.5464 1.2536 2.8 2.8 2.8h8.4c1.5464 0 2.8-1.2536 2.8-2.8V21c0-2.7614-2.2386-5-5-5zm0 2c-1.6569 0-3 1.3431-3 3v.2a.8.8 0 0 0 .8.8h8.4a.8.8 0 0 0 .8-.8V21c0-1.6569-1.3431-3-3-3z"/></svg>