<svg width="32" height="32" viewBox="0 0 32 32" fill="none" xmlns="http://www.w3.org/2000/svg">
<path d="M16 9.98804C15.1687 9.98804 14.4949 10.6619 14.4949 11.4932C14.4949 12.3244 15.1687 12.9983 16 12.9983C16.8313 12.9983 17.5051 12.3244 17.5051 11.4932C17.5051 10.6619 16.8313 9.98804 16 9.98804Z" fill="black"/>
<path d="M14 18C12.3431 18 11 19.3431 11 21V21.2C11 21.6418 11.3582 22 11.8 22H20.2C20.6418 22 21 21.6418 21 21.2V21C21 19.3431 19.6569 18 18 18H14Z" fill="black"/>
<path fill-rule="evenodd" clip-rule="evenodd" d="M16 30C23.732 30 30 23.732 30 16C30 8.26801 23.732 2 16 2C8.26801 2 2 8.26801 2 16C2 23.732 8.26801 30 16 30ZM12.4949 11.4932C12.4949 9.55734 14.0642 7.98804 16 7.98804C17.9358 7.98804 19.5051 9.55734 19.5051 11.4932C19.5051 13.429 17.9358 14.9983 16 14.9983C14.0642 14.9983 12.4949 13.429 12.4949 11.4932ZM9 21C9 18.2386 11.2386 16 14 16H18C20.7614 16 23 18.2386 23 21V21.2C23 22.7464 21.7464 24 20.2 24H11.8C10.2536 24 9 22.7464 9 21.2V21Z" fill="black"/>
</svg>
