<svg xmlns="http://www.w3.org/2000/svg" width="32" height="32" fill="none" viewBox="0 0 32 32"><path fill="#000" fill-rule="evenodd" d="M14 3c0-.5523-.4477-1-1-1s-1 .4477-1 1v3h-2c-2.2091 0-4 1.7909-4 4v2H3c-.5523 0-1 .4477-1 1s.4477 1 1 1h3v4H3c-.5523 0-1 .4477-1 1s.4477 1 1 1h3v2c0 2.2091 1.7909 4 4 4h2v3c0 .5523.4477 1 1 1s1-.4477 1-1v-3h4v3c0 .5523.4477 1 1 1s1-.4477 1-1v-3h2c2.2091 0 4-1.7909 4-4v-2h3c.5523 0 1-.4477 1-1s-.4477-1-1-1h-3v-4h3c.5523 0 1-.4477 1-1s-.4477-1-1-1h-3v-2c0-2.2091-1.7909-4-4-4h-2V3c0-.5523-.4477-1-1-1s-1 .4477-1 1v3h-4zm-4 5h12c1.1046 0 2 .8954 2 2v12c0 1.1046-.8954 2-2 2H10c-1.1046 0-2-.8954-2-2V10c0-1.1046.8954-2 2-2m4.6475 3.6802a1 1 0 0 0-1.895 0l-2.7 8c-.1766.5233.1044 1.0907.6277 1.2673s1.0907-.1044 1.2673-.6277L12.3929 19h2.6142l.4454 1.3198c.1766.5233.744.8043 1.2673.6277s.8043-.744.6277-1.2673zM20 11c.5523 0 1 .4477 1 1v8c0 .5523-.4477 1-1 1s-1-.4477-1-1v-8c0-.5523.4477-1 1-1m-6.9321 6 .6321-1.8728L14.3321 17z"/></svg>