<svg xmlns="http://www.w3.org/2000/svg" width="32" height="32" fill="none" viewBox="0 0 32 32"><path fill="#000" fill-rule="evenodd" d="M17 3c0-.5523-.4477-1-1-1s-1 .4477-1 1v1.055c-1.7829.197-3.4088.9149-4.7223 1.998l1.4227 1.4227C12.8869 6.551 14.3791 6 16 6c3.866 0 7 3.134 7 7v5.7754l2 2V13c0-4.6325-3.5-8.4476-8-8.945zM7.8223 9.2365 4.2929 5.707c-.3905-.3905-.3905-1.0237 0-1.4142s1.0237-.3905 1.4142 0l22 22c.3905.3905.3905 1.0237 0 1.4142s-1.0237.3905-1.4142 0L24.5858 26H7c-.5523 0-1-.4477-1-1s.4477-1 1-1V13c0-1.3436.2944-2.6184.8223-3.7635M22.5858 24 9.361 10.7752A6.99 6.99 0 0 0 9 13v11zm-9.4151 4c.4118 1.1652 1.523 2 2.8292 2s2.4175-.8348 2.8293-2z"/></svg>