<svg width="32" height="32" viewBox="0 0 32 32" fill="none" xmlns="http://www.w3.org/2000/svg">
<path d="M7 10C7.55228 10 8 9.55228 8 9C8 8.44772 7.55228 8 7 8C6.44772 8 6 8.44772 6 9C6 9.55228 6.44772 10 7 10Z" fill="black"/>
<path d="M11 9C11 9.55228 10.5523 10 10 10C9.44772 10 9 9.55228 9 9C9 8.44772 9.44772 8 10 8C10.5523 8 11 8.44772 11 9Z" fill="black"/>
<path d="M13 10C13.5523 10 14 9.55228 14 9C14 8.44772 13.5523 8 13 8C12.4477 8 12 8.44772 12 9C12 9.55228 12.4477 10 13 10Z" fill="black"/>
<path d="M17.4142 19L19.7071 21.2929C20.0976 21.6834 20.0976 22.3166 19.7071 22.7071C19.3166 23.0976 18.6834 23.0976 18.2929 22.7071L16 20.4142L13.7071 22.7071C13.3166 23.0976 12.6834 23.0976 12.2929 22.7071C11.9024 22.3166 11.9024 21.6834 12.2929 21.2929L14.5858 19L12.2929 16.7071C11.9024 16.3166 11.9024 15.6834 12.2929 15.2929C12.6834 14.9024 13.3166 14.9024 13.7071 15.2929L16 17.5858L18.2929 15.2929C18.6834 14.9024 19.3166 14.9024 19.7071 15.2929C20.0976 15.6834 20.0976 16.3166 19.7071 16.7071L17.4142 19Z" fill="black"/>
<path fill-rule="evenodd" clip-rule="evenodd" d="M2 9C2 6.79086 3.79086 5 6 5H26C28.2091 5 30 6.79086 30 9V23C30 25.2091 28.2091 27 26 27H6C3.79086 27 2 25.2091 2 23V9ZM26 7C27.1046 7 28 7.89543 28 9V11H4V9C4 7.89543 4.89543 7 6 7H26ZM4 13V23C4 24.1046 4.89543 25 6 25H26C27.1046 25 28 24.1046 28 23V13H4Z" fill="black"/>
</svg>
