<svg xmlns="http://www.w3.org/2000/svg" width="32" height="32" fill="none" viewBox="0 0 32 32"><path fill="#000" fill-rule="evenodd" d="M6 5C3.7909 5 2 6.7909 2 9v14c0 2.2091 1.7909 4 4 4h20c2.2091 0 4-1.7909 4-4V9c0-2.2091-1.7909-4-4-4zm22 4c0-1.1046-.8954-2-2-2H6c-1.1046 0-2 .8954-2 2v2h24zM7 10c.5523 0 1-.4477 1-1s-.4477-1-1-1-1 .4477-1 1 .4477 1 1 1m4-1c0 .5523-.4477 1-1 1s-1-.4477-1-1 .4477-1 1-1 1 .4477 1 1m3 0c0 .5523-.4477 1-1 1s-1-.4477-1-1 .4477-1 1-1 1 .4477 1 1M4 23V13h24v10c0 1.1046-.8954 2-2 2H6c-1.1046 0-2-.8954-2-2m13.4142-4 2.2929 2.2929c.3905.3905.3905 1.0237 0 1.4142s-1.0237.3905-1.4142 0L16 20.4142l-2.2929 2.2929c-.3905.3905-1.0237.3905-1.4142 0s-.3905-1.0237 0-1.4142L14.5858 19l-2.2929-2.2929c-.3905-.3905-.3905-1.0237 0-1.4142s1.0237-.3905 1.4142 0L16 17.5858l2.2929-2.2929c.3905-.3905 1.0237-.3905 1.4142 0s.3905 1.0237 0 1.4142z"/></svg>