<svg width="32" height="32" viewBox="0 0 32 32" fill="none" xmlns="http://www.w3.org/2000/svg">
<path d="M15.8361 5C11.9143 5 8.46859 6.99153 6.4776 10H9.99999C10.5523 10 11 10.4477 11 11C11 11.5523 10.5523 12 9.99999 12H3.99999C3.4477 12 2.99999 11.5523 2.99999 11V5C2.99999 4.44772 3.4477 4 3.99999 4C4.55227 4 4.99999 4.44772 4.99999 5V8.61686C7.3762 5.22177 11.3454 3 15.8361 3C23.0935 3 29 8.80756 29 16C29 23.1924 23.0935 29 15.8361 29C9.62352 29 4.4058 24.7474 3.02766 19.012C2.89863 18.475 3.22935 17.9351 3.76635 17.806C4.30335 17.677 4.84328 18.0077 4.97231 18.5447C6.13531 23.3848 10.5518 27 15.8361 27C22.0146 27 27 22.0624 27 16C27 9.93761 22.0146 5 15.8361 5Z" fill="black"/>
<path d="M17 10C17 9.44772 16.5523 9 16 9C15.4477 9 15 9.44772 15 10V16C15 16.2652 15.1053 16.5196 15.2929 16.7071L19.2929 20.7071C19.6834 21.0976 20.3166 21.0976 20.7071 20.7071C21.0976 20.3166 21.0976 19.6834 20.7071 19.2929L17 15.5858V10Z" fill="black"/>
</svg>
