<svg xmlns="http://www.w3.org/2000/svg" width="32" height="32" fill="none" viewBox="0 0 32 32"><path fill="#000" fill-rule="evenodd" d="M15.8364 5c-3.9219 0-7.3676 1.9915-9.3585 5h3.5223c.5523 0 1 .4477 1 1s-.4477 1-1 1h-6c-.5523 0-1-.4477-1-1V5c0-.5523.4477-1 1-1s1 .4477 1 1v3.6169C7.3764 5.2218 11.3456 3 15.8364 3c7.2574 0 13.1638 5.8076 13.1638 13s-5.9064 13-13.1638 13C9.6238 29 4.406 24.7474 3.0279 19.012c-.129-.537.2017-1.0769.7387-1.206s1.077.2017 1.206.7387C6.1356 23.3848 10.552 27 15.8364 27c6.1784 0 11.1638-4.9376 11.1638-11S22.0148 5 15.8364 5m.1638 4c.5523 0 1 .4477 1 1v5.5858l3.7071 3.7071c.3906.3905.3906 1.0237 0 1.4142s-1.0237.3905-1.4142 0l-4-4A1 1 0 0 1 15.0002 16v-6c0-.5523.4477-1 1-1"/></svg>