<svg xmlns="http://www.w3.org/2000/svg" width="32" height="32" fill="none" viewBox="0 0 32 32"><path fill="#000" fill-rule="evenodd" d="M2 9c0-1.6569 1.3432-3 3-3h22c1.6569 0 3 1.3431 3 3v14c0 1.6569-1.3431 3-3 3H5c-1.6568 0-3-1.3431-3-3zm3-1c-.5523 0-1 .4477-1 1v2c1.6569 0 3-1.3431 3-3zm4 0c0 2.7614-2.2386 5-5 5v6c2.7614 0 5 2.2386 5 5h14c0-2.7614 2.2386-5 5-5v-6c-2.7614 0-5-2.2386-5-5zm18 0c.5523 0 1 .4477 1 1v2c-1.6569 0-3-1.3431-3-3zm-5 8c0 3.3137-2.6863 6-6 6s-6-2.6863-6-6 2.6863-6 6-6 6 2.6863 6 6m-2 0c0 2.2091-1.7909 4-4 4s-4-1.7909-4-4 1.7909-4 4-4 4 1.7909 4 4M7 24c0-1.6569-1.3431-3-3-3v2c0 .5523.4477 1 1 1zm20 0h-2c0-1.6569 1.3431-3 3-3v2c0 .5523-.4477 1-1 1"/></svg>