<svg width="32" height="32" viewBox="0 0 32 32" fill="none" xmlns="http://www.w3.org/2000/svg">
<path d="M14 3C14 2.44772 13.5523 2 13 2C12.4477 2 12 2.44772 12 3V29C12 29.5523 12.4477 30 13 30C13.5523 30 14 29.5523 14 29V3Z" fill="black"/>
<path d="M2 6H4V26H2V6Z" fill="black"/>
<path d="M6 6H10V26H6V6Z" fill="black"/>
<path d="M19 6H16V26H19V6Z" fill="black"/>
<path d="M21 6H23V26H21V6Z" fill="black"/>
<path d="M26 6H25V26H26V6Z" fill="black"/>
<path d="M28 6H30V26H28V6Z" fill="black"/>
</svg>
