<svg xmlns="http://www.w3.org/2000/svg" width="32" height="32" fill="none" viewBox="0 0 32 32"><path fill="#000" fill-rule="evenodd" d="M19.8182 30.003c2.4781 0 4.5192-1.8709 4.7881-4.2772q.0603.0017.121.0017c2.3597 0 4.2727-1.913 4.2727-4.2727 0-1.1187-.4301-2.1362-1.1323-2.8971A4.8 4.8 0 0 0 29 15.4546c0-1.4227-.6167-2.7003-1.5953-3.5815A3.71 3.71 0 0 0 27.9091 10c0-2.0585-1.6688-3.7273-3.7273-3.7273-.2169 0-.4296.0185-.6363.0541v-.0511c0-2.3598-1.913-4.2728-4.2728-4.2728-1.3137 0-2.4889.593-3.2727 1.5257-.7838-.9328-1.959-1.5257-3.2727-1.5257-2.3598 0-4.2727 1.913-4.2727 4.2728v.0511a3.75 3.75 0 0 0-.6364-.054c-2.0585 0-3.7273 1.6687-3.7273 3.7272 0 .6827.184 1.3229.5044 1.8731C3.6167 12.7543 3 14.0319 3 15.4546c0 1.1826.4265 2.2653 1.1323 3.1031C3.4302 19.3186 3 20.3361 3 21.4548c0 2.3597 1.913 4.2727 4.2728 4.2727q.0606 0 .1209-.0017c.2689 2.4063 2.31 4.2772 4.7881 4.2772 1.5546 0 2.9372-.7363 3.8182-1.8791.881 1.1428 2.2636 1.8791 3.8182 1.8791m-.5455-26C18.0175 4.003 17 5.0204 17 6.2756v5.9062c0 .9539.7733 1.7273 1.7273 1.7273a1.715 1.715 0 0 0 1.0357-.345c.4416-.3317 1.0685-.2427 1.4002.1989s.2426 1.0684-.1989 1.4001a3.8 3.8 0 0 1-.2293.1592c.1309.2168.3053.3971.5082.5344.4573.3096.5771.9313.2676 1.3887-.3096.4573-.9313.5772-1.3887.2676a3.714 3.714 0 0 1-1.3296-1.6045A3.71 3.71 0 0 1 17 15.4856v5.7624a4.8 4.8 0 0 1 .747-.4488c.4973-.2402 1.0952-.0317 1.3353.4657.2402.4973.0317 1.0952-.4656 1.3353C17.6625 23.0609 17 24.0561 17 25.1848c0 1.5564 1.2617 2.8182 2.8182 2.8182s2.8182-1.2618 2.8182-2.8182c0-.1513-.0119-.2993-.0345-.4431a1 1 0 0 1-.0176-.0997l-.0048-.024c-.1102-.5412.2391-1.0693.7802-1.1796a.998.998 0 0 1 .8655.2337c.1609.0362.3288.0554.5021.0554C25.9825 23.7275 27 22.71 27 21.4548a2.266 2.266 0 0 0-.7215-1.6612 4.8 4.8 0 0 1-2.0967.4792c-.5523 0-1-.4477-1-1s.4477-1 1-1c.5766 0 1.11-.1721 1.5553-.4675C26.5003 17.2989 27 16.4349 27 15.4546c0-1.0441-.5675-1.9571-1.415-2.4448a.995.995 0 0 1-.3983-.2838 1 1 0 0 1-.1997-.3717.997.997 0 0 1 .0711-.7498.995.995 0 0 1 .331-.3692c.3221-.3147.52-.7515.52-1.2353 0-.954-.7733-1.7273-1.7273-1.7273-.9539 0-1.7273.7733-1.7273 1.7273 0 .5523-.4477 1-1 1s-1-.4477-1-1c0-1.0289.4169-1.9604 1.091-2.6348V6.2757c0-1.2552-1.0176-2.2728-2.2728-2.2728m-9.857 20.639.0048-.024c.1102-.5412-.239-1.0693-.7802-1.1796a.998.998 0 0 0-.8655.2337 2.3 2.3 0 0 1-.502.0554C6.0176 23.7275 5 22.71 5 21.4548a2.266 2.266 0 0 1 .7215-1.6612 4.8 4.8 0 0 0 2.0967.4792c.5523 0 1-.4477 1-1s-.4477-1-1-1c-.5766 0-1.11-.1721-1.5552-.4675C5.4997 17.2989 5 16.4349 5 15.4546c0-1.0441.5675-1.9571 1.415-2.4448a.995.995 0 0 0 .3983-.2838 1 1 0 0 0 .1997-.3717.997.997 0 0 0-.071-.7498.995.995 0 0 0-.3311-.3692A1.72 1.72 0 0 1 6.0909 10c0-.954.7734-1.7273 1.7273-1.7273S9.5455 9.046 9.5455 10c0 .5523.4477 1 1 1s1-.4477 1-1c0-1.0289-.4169-1.9604-1.0909-2.6348V6.2757c0-1.2552 1.0175-2.2728 2.2727-2.2728S15 5.0205 15 6.2757v5.9062c0 .9539-.7733 1.7273-1.7273 1.7273a1.715 1.715 0 0 1-1.0357-.345c-.4416-.3317-1.0685-.2427-1.4002.1989s-.2426 1.0684.199 1.4001q.1114.0837.2292.1592a1.72 1.72 0 0 1-.5081.5344c-.4574.3096-.5772.9313-.2677 1.3887.3096.4573.9313.5772 1.3887.2676a3.713 3.713 0 0 0 1.3296-1.6045A3.71 3.71 0 0 0 15 15.4856v5.7624a4.8 4.8 0 0 0-.747-.4488c-.4973-.2402-1.0952-.0317-1.3353.4657-.2402.4973-.0317 1.0952.4657 1.3353.9541.4607 1.6166 1.4559 1.6166 2.5846 0 1.5564-1.2617 2.8182-2.8182 2.8182s-2.8182-1.2618-2.8182-2.8182c0-.1513.0119-.2993.0345-.4431a1 1 0 0 0 .0176-.0997"/></svg>