<svg xmlns="http://www.w3.org/2000/svg" width="32" height="32" fill="none" viewBox="0 0 32 32"><path fill="#000" fill-rule="evenodd" d="M6 12C6 6.4772 10.4772 2 16 2s10 4.4772 10 10c0 3.2727-1.5729 6.1776-4 8.0006V21c0 1.6569-1.3431 3-3 3h-6c-1.6569 0-3-1.3431-3-3v-.9994C7.5729 18.1776 6 15.2727 6 12m10-8c-4.4183 0-8 3.5817-8 8 0 2.7727 1.4098 5.2166 3.5563 6.6534.2773.1857.4437.4974.4437.8311V21c0 .5523.4477 1 1 1h6c.5523 0 1-.4477 1-1v-1.5155c0-.3337.1664-.6454.4437-.8311C22.5902 17.2166 24 14.7727 24 12c0-4.4183-3.5817-8-8-8m-3 21c-.5523 0-1 .4477-1 1s.4477 1 1 1h6c.5523 0 1-.4477 1-1s-.4477-1-1-1zm0 4c0-.5523.4477-1 1-1h4c.5523 0 1 .4477 1 1s-.4477 1-1 1h-4c-.5523 0-1-.4477-1-1"/></svg>