<svg width="32" height="32" viewBox="0 0 32 32" fill="none" xmlns="http://www.w3.org/2000/svg">
<path fill-rule="evenodd" clip-rule="evenodd" d="M16 2C10.4772 2 6 6.47715 6 12C6 15.2727 7.57286 18.1776 10 20.0006V21C10 22.6569 11.3431 24 13 24H19C20.6569 24 22 22.6569 22 21V20.0006C24.4271 18.1776 26 15.2727 26 12C26 6.47715 21.5228 2 16 2ZM8 12C8 7.58172 11.5817 4 16 4C20.4183 4 24 7.58172 24 12C24 14.7727 22.5902 17.2166 20.4437 18.6534C20.1664 18.8391 20 19.1508 20 19.4845V21C20 21.5523 19.5523 22 19 22H13C12.4477 22 12 21.5523 12 21V19.4845C12 19.1508 11.8336 18.8391 11.5563 18.6534C9.40977 17.2166 8 14.7727 8 12Z" fill="black"/>
<path d="M13 25C12.4477 25 12 25.4477 12 26C12 26.5523 12.4477 27 13 27H19C19.5523 27 20 26.5523 20 26C20 25.4477 19.5523 25 19 25H13Z" fill="black"/>
<path d="M14 28C13.4477 28 13 28.4477 13 29C13 29.5523 13.4477 30 14 30H18C18.5523 30 19 29.5523 19 29C19 28.4477 18.5523 28 18 28H14Z" fill="black"/>
</svg>
