<svg xmlns="http://www.w3.org/2000/svg" width="32" height="32" fill="none" viewBox="0 0 32 32"><path fill="#000" fill-rule="evenodd" d="M10 3c0-.5523-.4477-1-1-1s-1 .4477-1 1v2H7C4.7909 5 3 6.7909 3 9v15c0 2.2091 1.7909 4 4 4h18c2.2091 0 4-1.7909 4-4V9c0-2.2091-1.7909-4-4-4h-1V3c0-.5523-.4477-1-1-1s-1 .4477-1 1v2H10zm15 4c1.1046 0 2 .8954 2 2v2H5V9c0-1.1046.8954-2 2-2zM5 13h22v11c0 1.1046-.8954 2-2 2H7c-1.1046 0-2-.8954-2-2zm5 5c.5523 0 1-.4477 1-1s-.4477-1-1-1-1 .4477-1 1 .4477 1 1 1m4 0c.5523 0 1-.4477 1-1s-.4477-1-1-1-1 .4477-1 1 .4477 1 1 1m4 0c.5523 0 1-.4477 1-1s-.4477-1-1-1-1 .4477-1 1 .4477 1 1 1m4 0c.5523 0 1-.4477 1-1s-.4477-1-1-1-1 .4477-1 1 .4477 1 1 1m-11 3c0-.5523-.4477-1-1-1s-1 .4477-1 1 .4477 1 1 1 1-.4477 1-1m4 0c0-.5523-.4477-1-1-1s-1 .4477-1 1 .4477 1 1 1 1-.4477 1-1m4 0c0-.5523-.4477-1-1-1s-1 .4477-1 1 .4477 1 1 1 1-.4477 1-1"/></svg>