<svg xmlns="http://www.w3.org/2000/svg" width="32" height="32" fill="none" viewBox="0 0 32 32"><path fill="#000" fill-rule="evenodd" d="M11 3c0-.5523-.4477-1-1-1s-1 .4477-1 1v2H7C4.7909 5 3 6.7909 3 9v15c0 2.2091 1.7909 4 4 4h18c2.2091 0 4-1.7909 4-4V9c0-2.2091-1.7909-4-4-4h-2V3c0-.5523-.4477-1-1-1s-1 .4477-1 1v2H11zM7 7c-1.1046 0-2 .8954-2 2v2h22V9c0-1.1046-.8954-2-2-2zM5 24V13h22v11c0 1.1046-.8954 2-2 2H7c-1.1046 0-2-.8954-2-2m8.7071-8.7071c-.3905-.3905-1.0237-.3905-1.4142 0s-.3905 1.0237 0 1.4142L14.5858 19l-2.2929 2.2929c-.3905.3905-.3905 1.0237 0 1.4142s1.0237.3905 1.4142 0L16 20.4142l2.2929 2.2929c.3905.3905 1.0237.3905 1.4142 0s.3905-1.0237 0-1.4142L17.4142 19l2.2929-2.2929c.3905-.3905.3905-1.0237 0-1.4142s-1.0237-.3905-1.4142 0L16 17.5858z"/></svg>