<svg xmlns="http://www.w3.org/2000/svg" width="32" height="32" fill="none" viewBox="0 0 32 32"><path fill="#000" fill-rule="evenodd" d="M10.5 5.5858A2 2 0 0 1 11.9142 5h8.1716a2 2 0 0 1 1.4142.5858L23.9142 8H27c1.6569 0 3 1.3431 3 3v13c0 1.6569-1.3431 3-3 3H5c-1.6568 0-3-1.3431-3-3V11c0-1.6569 1.3432-3 3-3h3.0858zM20.0858 7h-8.1716L9.5 9.4142A2 2 0 0 1 8.0858 10H5c-.5523 0-1 .4477-1 1v13c0 .5523.4477 1 1 1h22c.5523 0 1-.4477 1-1V11c0-.5523-.4477-1-1-1h-3.0858A2 2 0 0 1 22.5 9.4142zM10 17c0-3.3137 2.6863-6 6-6s6 2.6863 6 6-2.6863 6-6 6-6-2.6863-6-6m6-4c-2.2091 0-4 1.7909-4 4s1.7909 4 4 4 4-1.7909 4-4-1.7909-4-4-4"/></svg>