<svg xmlns="http://www.w3.org/2000/svg" width="32" height="32" fill="none" viewBox="0 0 32 32"><path fill="#000" fill-rule="evenodd" d="M11.9142 5a2 2 0 0 0-1.4142.5858L8.0858 8H5c-1.6568 0-3 1.3431-3 3v13c0 1.6569 1.3432 3 3 3h22c1.6569 0 3-1.3431 3-3V11c0-1.6569-1.3431-3-3-3h-3.0858L21.5 5.5858A2 2 0 0 0 20.0858 5zm0 2h8.1716L22.5 9.4142A2 2 0 0 0 23.9142 10H27c.5523 0 1 .4477 1 1v13c0 .5523-.4477 1-1 1H5c-.5523 0-1-.4477-1-1V11c0-.5523.4477-1 1-1h3.0858A2 2 0 0 0 9.5 9.4142zM16 11c-3.3137 0-6 2.6863-6 6s2.6863 6 6 6 6-2.6863 6-6-2.6863-6-6-6m9 2c0 .5523-.4477 1-1 1s-1-.4477-1-1 .4477-1 1-1 1 .4477 1 1m-13 4c0-2.2091 1.7909-4 4-4s4 1.7909 4 4-1.7909 4-4 4-4-1.7909-4-4"/></svg>