<svg xmlns="http://www.w3.org/2000/svg" width="32" height="32" fill="none" viewBox="0 0 32 32"><path fill="#000" fill-rule="evenodd" d="M2 9c0-2.2091 1.7909-4 4-4h20c2.2091 0 4 1.7909 4 4v9.9995a5.02 5.02 0 0 0-2-1.5835V13H4v10c0 1.1046.8954 2 2 2h9v1c0 .3425.0344.6769.1 1H6c-2.2091 0-4-1.7909-4-4zm26 0v2H4V9c0-1.1046.8954-2 2-2h20c1.1046 0 2 .8954 2 2M17 22c0-1.6569 1.3431-3 3-3v-1c0-1.6569 1.3431-3 3-3s3 1.3431 3 3v1c1.6569 0 3 1.3431 3 3v4c0 1.6569-1.3431 3-3 3h-6c-1.6569 0-3-1.3431-3-3zm7-3v-1c0-.5523-.4477-1-1-1s-1 .4477-1 1v1zm-5 3c0-.5523.4477-1 1-1h6c.5523 0 1 .4477 1 1v4c0 .5523-.4477 1-1 1h-6c-.5523 0-1-.4477-1-1zm4 3c.5523 0 1-.4477 1-1s-.4477-1-1-1-1 .4477-1 1 .4477 1 1 1"/></svg>