<svg width="32" height="32" viewBox="0 0 32 32" fill="none" xmlns="http://www.w3.org/2000/svg">
<path fill-rule="evenodd" clip-rule="evenodd" d="M6 5C3.79086 5 2 6.79086 2 9V23C2 25.2091 3.79086 27 6 27H15.1C15.0344 26.6769 15 26.3425 15 26V25H6C4.89543 25 4 24.1046 4 23V13H28V17.416C28.7963 17.7639 29.4844 18.3132 30 18.9995V9C30 6.79086 28.2091 5 26 5H6ZM28 11V9C28 7.89543 27.1046 7 26 7H6C4.89543 7 4 7.89543 4 9V11H28Z" fill="black"/>
<path d="M23 25C23.5523 25 24 24.5523 24 24C24 23.4477 23.5523 23 23 23C22.4477 23 22 23.4477 22 24C22 24.5523 22.4477 25 23 25Z" fill="black"/>
<path fill-rule="evenodd" clip-rule="evenodd" d="M20 19C18.3431 19 17 20.3431 17 22V26C17 27.6569 18.3431 29 20 29H26C27.6569 29 29 27.6569 29 26V22C29 20.3431 27.6569 19 26 19V18C26 16.3431 24.6569 15 23 15C21.3431 15 20 16.3431 20 18V19ZM24 18V19H22V18C22 17.4477 22.4477 17 23 17C23.5523 17 24 17.4477 24 18ZM26 21H20C19.4477 21 19 21.4477 19 22V26C19 26.5523 19.4477 27 20 27H26C26.5523 27 27 26.5523 27 26V22C27 21.4477 26.5523 21 26 21Z" fill="black"/>
</svg>
