<svg xmlns="http://www.w3.org/2000/svg" width="32" height="32" fill="none" viewBox="0 0 32 32"><path fill="#000" fill-rule="evenodd" d="M12 2c-.5523 0-1 .4477-1 1s.4477 1 1 1h8c.5523 0 1-.4477 1-1s-.4477-1-1-1zm4 28c6.6274 0 12-5.3726 12-12 0-2.9537-1.0672-5.6582-2.8369-7.7488l1.544-1.544c.3905-.3906.3905-1.0238 0-1.4143s-1.0237-.3905-1.4142 0l-1.5441 1.544C21.6582 7.0672 18.9537 6 16 6s-5.6582 1.0672-7.7488 2.837l-1.544-1.5441c-.3906-.3905-1.0238-.3905-1.4143 0s-.3905 1.0237 0 1.4142l1.544 1.5441C5.0672 12.3418 4 15.0463 4 18c0 6.6274 5.3726 12 12 12m0-2c5.5228 0 10-4.4772 10-10S21.5228 8 16 8 6 12.4772 6 18s4.4772 10 10 10m1-16c0-.5523-.4477-1-1-1s-1 .4477-1 1v6c0 .2652.1054.5196.2929.7071l4 4c.3905.3905 1.0237.3905 1.4142 0s.3905-1.0237 0-1.4142L17 17.5858z"/></svg>