<svg width="32" height="32" viewBox="0 0 32 32" fill="none" xmlns="http://www.w3.org/2000/svg">
<path fill-rule="evenodd" clip-rule="evenodd" d="M16 7C12.5827 7 10.4225 9.54774 9.98639 12.1644C9.90603 12.6466 9.48884 13 9 13C6.23858 13 4 15.2386 4 18C4 20.7614 6.23858 23 9 23H23C25.7614 23 28 20.7614 28 18C28 15.2386 25.7614 13 23 13C22.5112 13 22.094 12.6466 22.0136 12.1644C21.5775 9.54774 19.4173 7 16 7ZM8.18617 11.0468C9.02965 7.93628 11.7736 5 16 5C20.2264 5 22.9704 7.93628 23.8138 11.0468C27.2964 11.45 30 14.4093 30 18C30 21.866 26.866 25 23 25H9C5.13401 25 2 21.866 2 18C2 14.4093 4.70358 11.45 8.18617 11.0468Z" fill="black"/>
</svg>
