<svg xmlns="http://www.w3.org/2000/svg" width="32" height="32" fill="none" viewBox="0 0 32 32"><path fill="#000" fill-rule="evenodd" d="M16 7c-3.4173 0-5.5775 2.5477-6.0136 5.1644A1 1 0 0 1 9 13c-2.7614 0-5 2.2386-5 5s2.2386 5 5 5h14c2.7614 0 5-2.2386 5-5s-2.2386-5-5-5a1 1 0 0 1-.9864-.8356C21.5775 9.5477 19.4173 7 16 7m-7.8138 4.0468C9.0297 7.9363 11.7736 5 16 5s6.9704 2.9363 7.8138 6.0468C27.2964 11.45 30 14.4093 30 18c0 3.866-3.134 7-7 7H9c-3.866 0-7-3.134-7-7 0-3.5907 2.7036-6.55 6.1862-6.9532"/></svg>