<svg xmlns="http://www.w3.org/2000/svg" width="32" height="32" fill="none" viewBox="0 0 32 32"><path fill="#000" fill-rule="evenodd" d="M2 9c0-2.2091 1.7909-4 4-4h20c2.2091 0 4 1.7909 4 4v14c0 2.2091-1.7909 4-4 4H6c-2.2091 0-4-1.7909-4-4zm26 0v2H4V9c0-1.1046.8954-2 2-2h20c1.1046 0 2 .8954 2 2m0 4H4v10c0 1.1046.8954 2 2 2h20c1.1046 0 2-.8954 2-2zM8.7071 15.2929c-.3905-.3905-1.0237-.3905-1.4142 0s-.3905 1.0237 0 1.4142L9.5858 19l-2.293 2.2929c-.3904.3905-.3904 1.0237 0 1.4142.3906.3905 1.0238.3905 1.4143 0l3-3c.3905-.3905.3905-1.0237 0-1.4142zM24 21H14c-.5523 0-1 .4477-1 1s.4477 1 1 1h10c.5523 0 1-.4477 1-1s-.4477-1-1-1"/></svg>