<svg width="32" height="32" viewBox="0 0 32 32" fill="none" xmlns="http://www.w3.org/2000/svg">
<path d="M7.29289 15.2929C7.68342 14.9024 8.31658 14.9024 8.70711 15.2929L11.7071 18.2929C12.0976 18.6834 12.0976 19.3166 11.7071 19.7071L8.70711 22.7071C8.31658 23.0976 7.68342 23.0976 7.29289 22.7071C6.90237 22.3166 6.90237 21.6834 7.29289 21.2929L9.58579 19L7.29289 16.7071C6.90237 16.3166 6.90237 15.6834 7.29289 15.2929Z" fill="black"/>
<path d="M24 21H13C12.4477 21 12 21.4477 12 22C12 22.5523 12.4477 23 13 23H24C24.5523 23 25 22.5523 25 22C25 21.4477 24.5523 21 24 21Z" fill="black"/>
<path fill-rule="evenodd" clip-rule="evenodd" d="M6 5C3.79086 5 2 6.79086 2 9V23C2 25.2091 3.79086 27 6 27H26C28.2091 27 30 25.2091 30 23V9C30 6.79086 28.2091 5 26 5H6ZM28 11V9C28 7.89543 27.1046 7 26 7H6C4.89543 7 4 7.89543 4 9V11H28ZM4 13H28V23C28 24.1046 27.1046 25 26 25H6C4.89543 25 4 24.1046 4 23V13Z" fill="black"/>
</svg>
