<svg xmlns="http://www.w3.org/2000/svg" width="32" height="32" fill="none" viewBox="0 0 32 32"><path fill="#000" fill-rule="evenodd" d="M6 5C3.7909 5 2 6.7909 2 9v14c0 2.2091 1.7909 4 4 4h20c2.2091 0 4-1.7909 4-4V9c0-2.2091-1.7909-4-4-4zm22 6V9c0-1.1046-.8954-2-2-2H6c-1.1046 0-2 .8954-2 2v2zM4 23V13h24v10c0 1.1046-.8954 2-2 2H6c-1.1046 0-2-.8954-2-2m11-6c.5523 0 1 .4477 1 1s-.4477 1-1 1H7c-.5523 0-1-.4477-1-1s.4477-1 1-1zm3 1c0-.5523.4477-1 1-1h1c.5523 0 1 .4477 1 1s-.4477 1-1 1h-1c-.5523 0-1-.4477-1-1m6-1c-.5523 0-1 .4477-1 1s.4477 1 1 1h1c.5523 0 1-.4477 1-1s-.4477-1-1-1z"/></svg>