<svg width="32" height="32" viewBox="0 0 32 32" fill="none" xmlns="http://www.w3.org/2000/svg">
<path d="M10 12C10 11.4477 9.55228 11 9 11C8.44772 11 8 11.4477 8 12V13H7C6.44772 13 6 13.4477 6 14C6 14.5523 6.44772 15 7 15H8V16C8 16.5523 8.44772 17 9 17C9.55228 17 10 16.5523 10 16V15H11C11.5523 15 12 14.5523 12 14C12 13.4477 11.5523 13 11 13H10V12Z" fill="black"/>
<path d="M26 12.5C26 13.3284 25.3284 14 24.5 14C23.6716 14 23 13.3284 23 12.5C23 11.6716 23.6716 11 24.5 11C25.3284 11 26 11.6716 26 12.5Z" fill="black"/>
<path d="M21.5 17C22.3284 17 23 16.3284 23 15.5C23 14.6716 22.3284 14 21.5 14C20.6716 14 20 14.6716 20 15.5C20 16.3284 20.6716 17 21.5 17Z" fill="black"/>
<path fill-rule="evenodd" clip-rule="evenodd" d="M16 4C16.5523 4 17 4.44772 17 5V6H24C27.3137 6 30 8.68629 30 12V20.5C30 23.5376 27.5376 26 24.5 26H24C21.581 26 19.5633 24.2822 19.1 22H12.9C12.4367 24.2822 10.419 26 8 26H7.5C4.46243 26 2 23.5376 2 20.5V12C2 8.68629 4.68629 6 8 6H15V5C15 4.44772 15.4477 4 16 4ZM8 8H24C26.2091 8 28 9.79086 28 12V20.5C28 22.433 26.433 24 24.5 24H24C22.3431 24 21 22.6569 21 21C21 20.4477 20.5523 20 20 20H12C11.4477 20 11 20.4477 11 21C11 22.6569 9.65685 24 8 24H7.5C5.567 24 4 22.433 4 20.5V12C4 9.79086 5.79086 8 8 8Z" fill="black"/>
</svg>
