<svg xmlns="http://www.w3.org/2000/svg" width="32" height="32" fill="none" viewBox="0 0 32 32"><path fill="#000" fill-rule="evenodd" d="M17 5c0-.5523-.4477-1-1-1s-1 .4477-1 1v1H8c-3.3137 0-6 2.6863-6 6v8.5C2 23.5376 4.4624 26 7.5 26H8c2.419 0 4.4367-1.7178 4.9-4h6.2c.4633 2.2822 2.481 4 4.9 4h.5c3.0376 0 5.5-2.4624 5.5-5.5V12c0-3.3137-2.6863-6-6-6h-7zm11 7c0-2.2091-1.7909-4-4-4H8c-2.2091 0-4 1.7909-4 4v8.5C4 22.433 5.567 24 7.5 24H8c1.6569 0 3-1.3431 3-3 0-.5523.4477-1 1-1h8c.5523 0 1 .4477 1 1 0 1.6569 1.3431 3 3 3h.5c1.933 0 3.5-1.567 3.5-3.5zm-18 0c0-.5523-.4477-1-1-1s-1 .4477-1 1v1H7c-.5523 0-1 .4477-1 1s.4477 1 1 1h1v1c0 .5523.4477 1 1 1s1-.4477 1-1v-1h1c.5523 0 1-.4477 1-1s-.4477-1-1-1h-1zm14.5 2c.8284 0 1.5-.6716 1.5-1.5s-.6716-1.5-1.5-1.5-1.5.6716-1.5 1.5.6716 1.5 1.5 1.5m-3 3c.8284 0 1.5-.6716 1.5-1.5s-.6716-1.5-1.5-1.5-1.5.6716-1.5 1.5.6716 1.5 1.5 1.5"/></svg>