<svg xmlns="http://www.w3.org/2000/svg" width="32" height="32" fill="none" viewBox="0 0 32 32"><path fill="#000" fill-rule="evenodd" d="M6 6c0-2.2091 1.7909-4 4-4h12c2.2091 0 4 1.7909 4 4v20c0 2.2091-1.7909 4-4 4H10c-2.2091 0-4-1.7909-4-4zm18 0v14.5351A3.98 3.98 0 0 0 22 20H10a3.98 3.98 0 0 0-2 .5351V6c0-1.1046.8954-2 2-2h12c1.1046 0 2 .8954 2 2M8 26v-2c0-1.1046.8954-2 2-2h12c1.1046 0 2 .8954 2 2v2c0 1.1046-.8954 2-2 2H10c-1.1046 0-2-.8954-2-2m4-1c0 .5523-.4477 1-1 1s-1-.4477-1-1 .4477-1 1-1 1 .4477 1 1m3 1c.5523 0 1-.4477 1-1s-.4477-1-1-1-1 .4477-1 1 .4477 1 1 1"/></svg>