<svg xmlns="http://www.w3.org/2000/svg" width="32" height="32" fill="none" viewBox="0 0 32 32"><path fill="#000" fill-rule="evenodd" d="M17 5c0-.5523-.4477-1-1-1s-1 .4477-1 1v13.5858l-4.2929-4.2929c-.3905-.3905-1.0237-.3905-1.4142 0s-.3905 1.0237 0 1.4142l6 6c.3905.3905 1.0237.3905 1.4142 0l6-6c.3905-.3905.3905-1.0237 0-1.4142s-1.0237-.3905-1.4142 0L17 18.5858zM5 20c.5523 0 1 .4477 1 1v3c0 1.1046.8954 2 2 2h16c1.1046 0 2-.8954 2-2v-3c0-.5523.4477-1 1-1s1 .4477 1 1v3c0 2.2091-1.7909 4-4 4H8c-2.2091 0-4-1.7909-4-4v-3c0-.5523.4477-1 1-1"/></svg>