<svg width="32" height="32" viewBox="0 0 32 32" fill="none" xmlns="http://www.w3.org/2000/svg">
<path d="M17 5C17 4.44772 16.5523 4 16 4C15.4477 4 15 4.44772 15 5V18.5858L10.7071 14.2929C10.3166 13.9024 9.68342 13.9024 9.29289 14.2929C8.90237 14.6834 8.90237 15.3166 9.29289 15.7071L15.2929 21.7071C15.6834 22.0976 16.3166 22.0976 16.7071 21.7071L22.7071 15.7071C23.0976 15.3166 23.0976 14.6834 22.7071 14.2929C22.3166 13.9024 21.6834 13.9024 21.2929 14.2929L17 18.5858V5Z" fill="black"/>
<path d="M6 21C6 20.4477 5.55228 20 5 20C4.44772 20 4 20.4477 4 21V24C4 26.2091 5.79086 28 8 28H24C26.2091 28 28 26.2091 28 24V21C28 20.4477 27.5523 20 27 20C26.4477 20 26 20.4477 26 21V24C26 25.1046 25.1046 26 24 26H8C6.89543 26 6 25.1046 6 24V21Z" fill="black"/>
</svg>
