<svg xmlns="http://www.w3.org/2000/svg" width="32" height="32" fill="none" viewBox="0 0 32 32"><path fill="#000" fill-rule="evenodd" d="M13 3c-1.1046 0-2 .8954-2 2v5c0 1.1046.8954 2 2 2h2v4H8c-.5523 0-1 .4477-1 1v6.0858l-.7929-.7929c-.3905-.3905-1.0237-.3905-1.4142 0s-.3905 1.0237 0 1.4142L6.5858 25.5l-1.793 1.7929c-.3904.3905-.3904 1.0237 0 1.4142.3906.3905 1.0238.3905 1.4143 0L8 26.9142l1.7929 1.7929c.3905.3905 1.0237.3905 1.4142 0s.3905-1.0237 0-1.4142L9.4142 25.5l1.7929-1.7929c.3905-.3905.3905-1.0237 0-1.4142s-1.0237-.3905-1.4142 0L9 23.0858V18h14v3.126c-1.7252.4441-3 2.0102-3 3.874 0 2.2091 1.7909 4 4 4s4-1.7909 4-4c0-1.8638-1.2748-3.4299-3-3.874V17c0-.5523-.4477-1-1-1h-7v-4h2c1.1046 0 2-.8954 2-2V5c0-1.1046-.8954-2-2-2zm6 7h-6V5h6zm7 15c0 1.1046-.8954 2-2 2s-2-.8954-2-2 .8954-2 2-2 2 .8954 2 2"/></svg>