<svg width="32" height="32" viewBox="0 0 32 32" fill="none" xmlns="http://www.w3.org/2000/svg">
<path d="M8 17C8 16.4477 7.55228 16 7 16C6.44772 16 6 16.4477 6 17V20C6 20.5523 6.44772 21 7 21C7.55228 21 8 20.5523 8 20V17Z" fill="black"/>
<path d="M12 17C12 16.4477 11.5523 16 11 16C10.4477 16 10 16.4477 10 17V20C10 20.5523 10.4477 21 11 21C11.5523 21 12 20.5523 12 20V17Z" fill="black"/>
<path d="M16 17C16 16.4477 15.5523 16 15 16C14.4477 16 14 16.4477 14 17V20C14 20.5523 14.4477 21 15 21C15.5523 21 16 20.5523 16 20V17Z" fill="black"/>
<path fill-rule="evenodd" clip-rule="evenodd" d="M21.4056 3.77418C21.5204 2.76349 22.3756 2 23.3928 2H25.6072C26.6244 2 27.4796 2.76349 27.5944 3.77418L29.7407 22.6613C29.9429 24.4408 28.5509 26 26.7599 26H5C3.34315 26 2 24.6569 2 23V12.4599C2 11.8761 2.25513 11.3214 2.69842 10.9414L7.69842 6.65571C8.99576 5.5437 11 6.46551 11 8.17422V9.82578L14.6984 6.65571C15.9958 5.5437 18 6.46551 18 8.17422V11H20.5845L21.4056 3.77418ZM26.7599 24H22.2401C21.6431 24 21.1791 23.4803 21.2465 22.8871L22.8246 9H26.1754L27.7535 22.8871C27.8209 23.4803 27.3569 24 26.7599 24ZM25.9481 7H23.0519L23.3928 4L25.6072 4L25.9481 7ZM19.2593 22.6613C19.2059 23.1311 19.2637 23.5855 19.4105 24H5C4.44772 24 4 23.5523 4 23V12.4599L9 8.17422V12C9 12.3905 9.22734 12.7453 9.58214 12.9085C9.93694 13.0717 10.3543 13.0134 10.6508 12.7593L16 8.17422V12C16 12.5523 16.4477 13 17 13H20.3572L19.2593 22.6613Z" fill="black"/>
</svg>
