<svg xmlns="http://www.w3.org/2000/svg" width="32" height="32" fill="none" viewBox="0 0 32 32"><path fill="#000" fill-rule="evenodd" d="M9 1.9954c-2.2091 0-4 1.7908-4 4v20c0 2.2091 1.7909 4 4 4h5.3104c-.7019-.4457-1.2159-1.1609-1.3963-2H9c-1.1046 0-2-.8955-2-2v-20c0-1.1046.8954-2 2-2h7v5c0 2.2091 1.7909 4 4 4h5v13c0 1.1045-.8954 2-2 2h-3.9141c-.1804.8391-.6944 1.5543-1.3963 2H23c2.2091 0 4-1.7909 4-4V12.0833a2 2 0 0 0-.5729-1.4013l-7.9416-8.0879a2 2 0 0 0-1.427-.5987zm14.9318 9L18 4.9542v4.0412c0 1.1045.8954 2 2 2zm-7.9086 7c-.9318 0-1.6899.7574-1.6899 1.6666 0 .5523-.4477 1-1 1s-1-.4477-1-1c0-2.0363 1.6762-3.6666 3.6899-3.6666 1.9883 0 3.6435 1.6097 3.6435 3.6205v.2136c0 1.5359-1.0453 2.8746-2.5353 3.2471a.1735.1735 0 0 0-.1314.1683v.7505c0 .5522-.4477 1-1 1s-1-.4478-1-1v-.7505c0-.9973.6788-1.8667 1.6464-2.1086a1.347 1.347 0 0 0 1.0203-1.3068v-.2136c0-.8837-.7371-1.6205-1.6435-1.6205m1.1333 9.3333c0 .6387-.5178 1.1564-1.1565 1.1564s-1.1565-.5177-1.1565-1.1564.5178-1.1565 1.1565-1.1565 1.1565.5178 1.1565 1.1565"/></svg>