<svg xmlns="http://www.w3.org/2000/svg" width="32" height="32" fill="none" viewBox="0 0 32 32"><path fill="#000" fill-rule="evenodd" d="m25 23.7596 2 2V12.0833a2 2 0 0 0-.5729-1.4013l-7.9416-8.0879a2 2 0 0 0-1.427-.5987H9c-1.5594 0-2.9103.8922-3.5701 2.1941L7.0123 5.772C7.1234 4.7725 7.971 3.9954 9 3.9954h7v5c0 2.2091 1.7909 4 4 4h5zM18 4.9542l5.9318 6.0412H20c-1.1046 0-2-.8955-2-2zm-13 4.46-2.7071-2.707c-.3905-.3906-.3905-1.0238 0-1.4143s1.0237-.3905 1.4142 0l24 24c.3905.3905.3905 1.0237 0 1.4142s-1.0237.3905-1.4142 0l-1.2638-1.2638A3.98 3.98 0 0 1 23 29.9954H9c-2.2091 0-4-1.7909-4-4zm18.5144 18.5144a2 2 0 0 1-.5144.0668H9c-1.1046 0-2-.8955-2-2V11.4142z"/></svg>