<svg width="32" height="32" viewBox="0 0 32 32" fill="none" xmlns="http://www.w3.org/2000/svg">
<path d="M10 24C10 23.4477 10.4477 23 11 23H16C16.5523 23 17 23.4477 17 24C17 24.5523 16.5523 25 16 25H11C10.4477 25 10 24.5523 10 24Z" fill="black"/>
<path d="M11 18C10.4477 18 10 18.4477 10 19C10 19.5523 10.4477 20 11 20H21C21.5523 20 22 19.5523 22 19C22 18.4477 21.5523 18 21 18H11Z" fill="black"/>
<path fill-rule="evenodd" clip-rule="evenodd" d="M9 1.99536C6.79086 1.99536 5 3.78622 5 5.99536V25.9954C5 28.2045 6.79086 29.9954 9 29.9954H23C25.2091 29.9954 27 28.2045 27 25.9954V12.0833C27 11.5592 26.7943 11.056 26.4271 10.682L18.4855 2.59412C18.1095 2.21112 17.5952 1.99536 17.0585 1.99536H9ZM7 5.99536C7 4.89079 7.89543 3.99536 9 3.99536H16V8.99536C16 11.2045 17.7909 12.9954 20 12.9954H25V25.9954C25 27.0999 24.1046 27.9954 23 27.9954H9C7.89543 27.9954 7 27.0999 7 25.9954V5.99536ZM23.9318 10.9954L18 4.95424V8.99536C18 10.0999 18.8954 10.9954 20 10.9954H23.9318Z" fill="black"/>
</svg>
