<svg xmlns="http://www.w3.org/2000/svg" width="32" height="32" fill="none" viewBox="0 0 32 32"><path fill="#000" fill-rule="evenodd" d="M11 26c-1.6569 0-3-1.3431-3-3V5c0-1.6569 1.3431-3 3-3h7.1716a3 3 0 0 1 2.1213.8787l4.8284 4.8284A3 3 0 0 1 26 9.8284V23c0 1.6569-1.3431 3-3 3zM10 5c0-.5523.4477-1 1-1h6v4c0 1.6569 1.3431 3 3 3h4v12c0 .5523-.4477 1-1 1H11c-.5523 0-1-.4477-1-1zm13.5858 4H20c-.5523 0-1-.4477-1-1V4.4142zM5 14c.5523 0 1 .4477 1 1v10c0 1.6569 1.3431 3 3 3h8c.5523 0 1 .4477 1 1s-.4477 1-1 1H9c-2.7614 0-5-2.2386-5-5V15c0-.5523.4477-1 1-1m8 0c-.5523 0-1 .4477-1 1s.4477 1 1 1h7c.5523 0 1-.4477 1-1s-.4477-1-1-1zm0 4c-.5523 0-1 .4477-1 1s.4477 1 1 1h3c.5523 0 1-.4477 1-1s-.4477-1-1-1z"/></svg>