<svg xmlns="http://www.w3.org/2000/svg" width="32" height="32" fill="none" viewBox="0 0 32 32"><path fill="#000" fill-rule="evenodd" d="M9 1.9954c-2.2091 0-4 1.7908-4 4v20c0 2.2091 1.7909 4 4 4h7.018a2.3 2.3 0 0 1-.018-.289v-1.711H9c-1.1046 0-2-.8955-2-2v-20c0-1.1046.8954-2 2-2h7v5c0 2.2091 1.7909 4 4 4h5v4.5819l.7765-.7766A2.72 2.72 0 0 1 27 16.0932v-4.0099a2 2 0 0 0-.5729-1.4013l-7.9416-8.0879a2 2 0 0 0-1.427-.5987zm14.9318 9L18 4.9542v4.0412c0 1.1045.8954 2 2 2zM12 18c1.1046 0 2-.8954 2-2s-.8954-2-2-2-2 .8954-2 2 .8954 2 2 2m16.4352 4.1591-2.5943-2.5943 1.3499-1.3499a.734.734 0 0 1 1.0377 0l1.5566 1.5566a.734.734 0 0 1 0 1.0377zm-10.1939 7.8363A.294.294 0 0 1 18 29.7065v-1.9969a.734.734 0 0 1 .215-.5188l6.6831-6.6832 2.5943 2.5943-6.6831 6.6832a.735.735 0 0 1-.5189.2149h-1.9969a.3.3 0 0 1-.0522-.0046M14 23c0 1.1046-.8954 2-2 2s-2-.8954-2-2 .8954-2 2-2 2 .8954 2 2"/></svg>