<svg width="32" height="32" viewBox="0 0 32 32" fill="none" xmlns="http://www.w3.org/2000/svg">
<path fill-rule="evenodd" clip-rule="evenodd" d="M5 5.99536C5 3.78622 6.79086 1.99536 9 1.99536H17.0585C17.5952 1.99536 18.1095 2.21112 18.4855 2.59412L26.4271 10.682C26.7943 11.056 27 11.5592 27 12.0833V16.0932C26.5518 16.2132 26.1282 16.4491 25.7765 16.8007L25 17.5773V12.9954H20C17.7909 12.9954 16 11.2045 16 8.99536V3.99536H9C7.89543 3.99536 7 4.89079 7 5.99536V25.9954C7 27.0999 7.89543 27.9954 9 27.9954H16L16 29.7064C16 29.8043 16.0061 29.9007 16.018 29.9954H9C6.79086 29.9954 5 28.2045 5 25.9954V5.99536ZM18 4.95424L23.9318 10.9954H20C18.8954 10.9954 18 10.0999 18 8.99536V4.95424Z" fill="black"/>
<path d="M18.2413 29.9954C18.1041 29.9707 18 29.8508 18 29.7065L18 27.7096C18 27.515 18.0774 27.3284 18.215 27.1908L24.8981 20.5076L27.4924 23.1019L20.8093 29.7851C20.6912 29.9031 20.5371 29.9768 20.3728 29.9954C20.3456 29.9984 20.3181 30 20.2904 30L18.2935 30C18.2757 30 18.2583 29.9984 18.2413 29.9954Z" fill="black"/>
<path d="M25.8409 19.5648L28.4352 22.1591L29.7851 20.8092C30.0716 20.5227 30.0716 20.0581 29.7851 19.7715L28.2285 18.2149C27.9419 17.9284 27.4773 17.9284 27.1908 18.2149L25.8409 19.5648Z" fill="black"/>
<path d="M12 18C13.1046 18 14 17.1046 14 16C14 14.8954 13.1046 14 12 14C10.8954 14 10 14.8954 10 16C10 17.1046 10.8954 18 12 18Z" fill="black"/>
<path d="M12 25C13.1046 25 14 24.1046 14 23C14 21.8954 13.1046 21 12 21C10.8954 21 10 21.8954 10 23C10 24.1046 10.8954 25 12 25Z" fill="black"/>
</svg>
