<svg width="32" height="32" viewBox="0 0 32 32" fill="none" xmlns="http://www.w3.org/2000/svg">
<path fill-rule="evenodd" clip-rule="evenodd" d="M5 9.41421L2.29289 6.70711C1.90237 6.31658 1.90237 5.68342 2.29289 5.29289C2.68342 4.90237 3.31658 4.90237 3.70711 5.29289L27.7071 29.2929C28.0976 29.6834 28.0976 30.3166 27.7071 30.7071C27.3166 31.0976 26.6834 31.0976 26.2929 30.7071L25.0291 29.4433C24.4342 29.7941 23.7406 29.9954 23 29.9954H9C6.79086 29.9954 5 28.2045 5 25.9954V9.41421ZM23.5144 27.9286C23.3503 27.9722 23.1778 27.9954 23 27.9954H9C7.89543 27.9954 7 27.0999 7 25.9954V11.4142L23.5144 27.9286Z" fill="black"/>
<path fill-rule="evenodd" clip-rule="evenodd" d="M27 25.7596L25 23.7596V12.9954H20C17.7909 12.9954 16 11.2045 16 8.99536V3.99536H9C7.97095 3.99536 7.12342 4.77254 7.01234 5.77195L5.42988 4.1895C6.0897 2.88765 7.44065 1.99536 9 1.99536H17.0585C17.5952 1.99536 18.1095 2.21112 18.4855 2.59412L26.4271 10.682C26.7943 11.056 27 11.5592 27 12.0833V25.7596ZM23.9318 10.9954L18 4.95424V8.99536C18 10.0999 18.8954 10.9954 20 10.9954H23.9318Z" fill="black"/>
</svg>
