<svg width="32" height="32" viewBox="0 0 32 32" fill="none" xmlns="http://www.w3.org/2000/svg">
<path fill-rule="evenodd" clip-rule="evenodd" d="M2 7C2 5.34314 3.34315 4 5 4H13.5316C14.1252 4 14.6881 4.26365 15.0681 4.71963L16.9684 7L27 7C28.6569 7 30 8.34315 30 10V25C30 26.6569 28.6569 28 27 28H5C3.34315 28 2 26.6569 2 25V7ZM4 7C4 6.44772 4.44771 6 5 6H13.5316L15.4319 8.28037C15.8119 8.73635 16.3748 9 16.9684 9H27C27.5523 9 28 9.44772 28 10V12H4V7ZM28 14V25C28 25.5523 27.5523 26 27 26H5C4.44772 26 4 25.5523 4 25V14H28Z" fill="black"/>
</svg>
