<svg xmlns="http://www.w3.org/2000/svg" width="32" height="32" fill="none" viewBox="0 0 32 32"><path fill="#000" fill-rule="evenodd" d="M2 7c0-1.6569 1.3432-3 3-3h8.5316a2 2 0 0 1 1.5365.7196L16.9684 7H27c1.6569 0 3 1.3431 3 3v15c0 1.6569-1.3431 3-3 3H5c-1.6568 0-3-1.3431-3-3zm3-1c-.5523 0-1 .4477-1 1v18c0 .5523.4477 1 1 1h22c.5523 0 1-.4477 1-1V10c0-.5523-.4477-1-1-1H16.9684a2 2 0 0 1-1.5365-.7196L13.5316 6zm6.6282 6.2072c-.3906-.3905-1.0237-.3905-1.4143 0s-.3905 1.0237 0 1.4142l.6068.6068a10 10 0 0 0-.0995.085c-.6157.5333-1.1044 1.098-1.4467 1.5965-.1708.2485-.3142.4938-.419.7224-.0899.1957-.2055.4921-.2055.8069 0 .3107.112.6043.2006.801.103.2285.2443.474.413.7231.3384.4995.8227 1.0654 1.4362 1.5998 1.2243 1.0667 3.036 2.068 5.3002 2.068a7.82 7.82 0 0 0 2.7324-.491l.4815.4815c.3906.3905 1.0237.3905 1.4143 0s.3905-1.0237 0-1.4142zm9.0454 6.2499c.2778-.3066.5205-.6476.6603-1.016-.2548-.6565-.8345-1.2239-1.3569-1.6673-.8758-.7433-2.0697-1.3849-3.4928-1.5061l-1.8872-1.8872A7.43 7.43 0 0 1 16 12.2472c2.227 0 4.0357.9532 5.2712 2.0018.6186.5251 1.1121 1.0889 1.4587 1.6022.1731.2562.3184.5129.424.7577.0968.2245.1961.5199.1961.8301 0 .3064-.0962.5993-.1916.8244-.1037.2446-.2467.5014-.4177.7582-.1805.2709-.4016.5559-.6606.842zm-3.5576 2.0663-4.8744-4.8744a8 8 0 0 0-.211.176c-.5184.449-1.0442.9893-1.3458 1.6166.2952.6256.8148 1.1656 1.3287 1.6134.9718.8466 2.3352 1.5759 3.9865 1.5759.3887 0 .7612-.0383 1.116-.1075"/></svg>