<svg xmlns="http://www.w3.org/2000/svg" width="32" height="32" fill="none" viewBox="0 0 32 32"><path fill="#000" fill-rule="evenodd" d="M12.6996 3.0642a1 1 0 0 1 .9907-.8642h4.6176a1 1 0 0 1 .9906.8638l.4527 3.2912a10.3 10.3 0 0 1 1.5298.7464c.4744.2821.6305.8952.3489 1.3698l-2.5832 4.3537a1 1 0 0 1-1.3712.3492 3.265 3.265 0 0 0-1.676-.459c-1.814 0-3.2846 1.4706-3.2846 3.2847s1.4706 3.2846 3.2846 3.2846S19.2841 17.8139 19.2842 16c0-.5523.4477-1 1-1h5.0614a1 1 0 0 1 1 1c0 .5343-.0406 1.0597-.119 1.5731l2.6251 2.0385a1 1 0 0 1 .2527 1.2898l-2.3088 3.9989a1 1 0 0 1-1.2437.4259l-3.0783-1.2559a10.34 10.34 0 0 1-2.7223 1.5739l-.4528 3.2921a1 1 0 0 1-.9906.8637h-4.6176a1 1 0 0 1-.9907-.8642l-.4511-3.2913a10.34 10.34 0 0 1-2.723-1.5741L6.4482 25.326a1 1 0 0 1-1.2438-.4259l-2.3088-3.9989a1 1 0 0 1 .2527-1.2898l2.6243-2.0379a10.4 10.4 0 0 1-.119-1.5739c0-.5339.0405-1.059.1187-1.5721l-2.6258-2.0371a1 1 0 0 1-.253-1.2901l2.3087-3.999a1 1 0 0 1 1.2434-.426l3.0789 1.2546a10.34 10.34 0 0 1 2.7242-1.5752zM14.5626 4.2l-.4152 3.0295a1 1 0 0 1-.6869.817c-1.154.368-2.2.981-3.0766 1.7787a1 1 0 0 1-1.0504.1865L6.4982 8.8565l-1.4367 2.4883L7.4786 13.22a1 1 0 0 1 .3643 1.002 8.38 8.38 0 0 0-.1895 1.7776 8.38 8.38 0 0 0 .1898 1.7789 1 1 0 0 1-.364 1.0019l-2.4157 1.8759 1.4367 2.4884 2.8337-1.1562a1 1 0 0 1 1.0508.1863 8.34 8.34 0 0 0 3.0757 1.778 1 1 0 0 1 .6869.8169l.4153 3.0303h2.8734l.4168-3.0311a1 1 0 0 1 .6867-.8164 8.34 8.34 0 0 0 3.075-1.7778 1 1 0 0 1 1.0507-.1863l2.8345 1.1565 1.4367-2.4884-2.4165-1.8765a1 1 0 0 1-.364-1.0018A8.3 8.3 0 0 0 24.2864 17h-3.0968c-.4675 2.4404-2.6134 4.2844-5.1901 4.2844-2.9186 0-5.2846-2.366-5.2846-5.2846s2.366-5.2847 5.2846-5.2847c.627 0 1.2297.1096 1.789.3108l1.5809-2.6644a8.3 8.3 0 0 0-.83-.3148 1 1 0 0 1-.6867-.8164L17.436 4.2z"/></svg>