<svg width="32" height="32" viewBox="0 0 32 32" fill="none" xmlns="http://www.w3.org/2000/svg">
<path d="M9 11C9 10.4477 8.55228 10 8 10C7.44772 10 7 10.4477 7 11V15C7 15.5523 7.44772 16 8 16C8.55228 16 9 15.5523 9 15V11Z" fill="black"/>
<path d="M12 10C12.5523 10 13 10.4477 13 11V15C13 15.5523 12.5523 16 12 16C11.4477 16 11 15.5523 11 15V11C11 10.4477 11.4477 10 12 10Z" fill="black"/>
<path d="M17 11C17 10.4477 16.5523 10 16 10C15.4477 10 15 10.4477 15 11V15C15 15.5523 15.4477 16 16 16C16.5523 16 17 15.5523 17 15V11Z" fill="black"/>
<path d="M20 10C20.5523 10 21 10.4477 21 11V15C21 15.5523 20.5523 16 20 16C19.4477 16 19 15.5523 19 15V11C19 10.4477 19.4477 10 20 10Z" fill="black"/>
<path d="M25 11C25 10.4477 24.5523 10 24 10C23.4477 10 23 10.4477 23 11V15C23 15.5523 23.4477 16 24 16C24.5523 16 25 15.5523 25 15V11Z" fill="black"/>
<path fill-rule="evenodd" clip-rule="evenodd" d="M6 5C3.79086 5 2 6.79086 2 9V11.05C2 11.5256 2.33497 11.9354 2.80107 12.03C3.48532 12.1689 4 12.7755 4 13.5C4 14.2245 3.48532 14.8311 2.80107 14.97C2.33497 15.0646 2 15.4744 2 15.95V23C2 25.2091 3.79086 27 6 27H26C28.2091 27 30 25.2091 30 23V15.95C30 15.4744 29.665 15.0646 29.1989 14.97C28.5147 14.8311 28 14.2245 28 13.5C28 12.7755 28.5147 12.1689 29.1989 12.03C29.665 11.9354 30 11.5256 30 11.05V9C30 6.79086 28.2091 5 26 5H6ZM26 23V25C27.1046 25 28 24.1046 28 23V21H4V23C4 24.1046 4.89543 25 6 25L6 23C6 22.4477 6.44772 22 7 22C7.55228 22 8 22.4477 8 23V25H10V23C10 22.4477 10.4477 22 11 22C11.5523 22 12 22.4477 12 23V25H14V23C14 22.4477 14.4477 22 15 22C15.5523 22 16 22.4477 16 23V25H20V23C20 22.4477 20.4477 22 21 22C21.5523 22 22 22.4477 22 23V25H24V23C24 22.4477 24.4477 22 25 22C25.5523 22 26 22.4477 26 23ZM28 19V16.6629C26.8176 16.1012 26 14.8968 26 13.5C26 12.1032 26.8176 10.8988 28 10.3371V9C28 7.89543 27.1046 7 26 7H6C4.89543 7 4 7.89543 4 9V10.3371C5.18242 10.8988 6 12.1032 6 13.5C6 14.8968 5.18242 16.1012 4 16.6629V19H28Z" fill="black"/>
</svg>
