<svg xmlns="http://www.w3.org/2000/svg" width="32" height="32" fill="none" viewBox="0 0 32 32"><path fill="#000" fill-rule="evenodd" d="M2 9c0-2.2091 1.7909-4 4-4h20c2.2091 0 4 1.7909 4 4v2.05a1 1 0 0 1-.8011.98C28.5147 12.1689 28 12.7755 28 13.5s.5147 1.3311 1.1989 1.47a1 1 0 0 1 .8011.98V23c0 2.2091-1.7909 4-4 4H6c-2.2091 0-4-1.7909-4-4v-7.05a1 1 0 0 1 .801-.98C3.4854 14.8311 4 14.2245 4 13.5s-.5147-1.3311-1.199-1.47A1 1 0 0 1 2 11.05zm26 7.6629V19H4v-2.3371c1.1824-.5617 2-1.7661 2-3.1629s-.8176-2.6012-2-3.1629V9c0-1.1046.8954-2 2-2h20c1.1046 0 2 .8954 2 2v1.3371c-1.1824.5617-2 1.7661-2 3.1629s.8176 2.6012 2 3.1629M8 10c.5523 0 1 .4477 1 1v4c0 .5523-.4477 1-1 1s-1-.4477-1-1v-4c0-.5523.4477-1 1-1m5 1c0-.5523-.4477-1-1-1s-1 .4477-1 1v4c0 .5523.4477 1 1 1s1-.4477 1-1zm4 0c0-.5523-.4477-1-1-1s-1 .4477-1 1v4c0 .5523.4477 1 1 1s1-.4477 1-1zm4 0c0-.5523-.4477-1-1-1s-1 .4477-1 1v4c0 .5523.4477 1 1 1s1-.4477 1-1zm4 0c0-.5523-.4477-1-1-1s-1 .4477-1 1v4c0 .5523.4477 1 1 1s1-.4477 1-1zm1 14v-2c0-.5523-.4477-1-1-1s-1 .4477-1 1v2h-2v-2c0-.5523-.4477-1-1-1s-1 .4477-1 1v2h-4v-2c0-.5523-.4477-1-1-1s-1 .4477-1 1v2h-2v-2c0-.5523-.4477-1-1-1s-1 .4477-1 1v2H8v-2c0-.5523-.4477-1-1-1s-1 .4477-1 1v2c-1.1046 0-2-.8954-2-2v-2h24v2c0 1.1046-.8954 2-2 2"/></svg>