<svg width="32" height="32" viewBox="0 0 32 32" fill="none" xmlns="http://www.w3.org/2000/svg">
<path d="M21.8012 17.4131C21.3358 17.7063 20.7213 17.5685 20.4255 17.1056L20.4206 17.0981C20.4141 17.0885 20.4017 17.0705 20.3833 17.0452C20.3465 16.9946 20.286 16.9155 20.2017 16.8173C20.0324 16.62 19.7707 16.3503 19.4145 16.0795C18.7078 15.5421 17.6316 15 16.1341 15C14.6366 15 13.5604 15.5421 12.8536 16.0795C12.4974 16.3503 12.2358 16.62 12.0665 16.8173C11.9821 16.9155 11.9217 16.9946 11.8849 17.0452C11.8665 17.0705 11.8541 17.0885 11.8476 17.0981L11.8426 17.1056C11.5468 17.5685 10.9324 17.7063 10.4669 17.4131C9.99965 17.1186 9.85953 16.5012 10.154 16.0339L11 16.567C10.154 16.0339 10.1537 16.0343 10.154 16.0339L10.1551 16.0322L10.1563 16.0302L10.1593 16.0255L10.1671 16.0134C10.1732 16.004 10.181 15.9923 10.1905 15.9783C10.2094 15.9503 10.2352 15.9131 10.2679 15.8682C10.3333 15.7784 10.4267 15.657 10.5489 15.5146C10.7927 15.2305 11.1552 14.8584 11.643 14.4875C12.6241 13.7414 14.1149 13 16.1341 13C18.1532 13 19.644 13.7414 20.6251 14.4875C21.1129 14.8584 21.4754 15.2305 21.7193 15.5146C21.8415 15.657 21.9349 15.7784 22.0003 15.8682C22.033 15.9131 22.0587 15.9503 22.0777 15.9783C22.0872 15.9923 22.0949 16.004 22.101 16.0134L22.1089 16.0255L22.1118 16.0302L22.1131 16.0322L22.1137 16.0331C22.1139 16.0335 22.1142 16.0339 21.3005 16.5466L22.1137 16.0331C22.4081 16.5003 22.2685 17.1186 21.8012 17.4131Z" fill="black"/>
<path d="M14.406 19.6268C14.1089 20.0852 13.4975 20.2208 13.0339 19.9288C12.5667 19.6343 12.4265 19.0169 12.721 18.5496L13.5668 19.0826C12.721 18.5496 12.7207 18.55 12.721 18.5496L12.722 18.5479L12.7232 18.5461L12.7257 18.5421L12.7318 18.5327L12.748 18.5084C12.7606 18.4898 12.7768 18.4664 12.7967 18.439C12.8365 18.3843 12.8915 18.313 12.9621 18.2308C13.1026 18.0671 13.3091 17.8554 13.5859 17.6449C14.145 17.2198 14.9941 16.7992 16.1341 16.7992C17.274 16.7992 18.1231 17.2198 18.6822 17.6449C18.959 17.8554 19.1655 18.0671 19.306 18.2308C19.3766 18.313 19.4316 18.3843 19.4714 18.439C19.4913 18.4664 19.5076 18.4898 19.5201 18.5084L19.5363 18.5327L19.5424 18.5421L19.5449 18.5461L19.5461 18.5479L19.5466 18.5488C19.5469 18.5492 19.5471 18.5496 18.7192 19.0713L19.5466 18.5488C19.841 19.016 19.7015 19.6343 19.2342 19.9288C18.7706 20.2208 18.1592 20.0852 17.8621 19.6268L17.8544 19.6161C17.8431 19.6006 17.8212 19.5716 17.7885 19.5335C17.7224 19.4566 17.6168 19.3474 17.4716 19.2369C17.1868 19.0204 16.7524 18.7992 16.1341 18.7992C15.5157 18.7992 15.0813 19.0204 14.7965 19.2369C14.6513 19.3474 14.5457 19.4566 14.4796 19.5335C14.4469 19.5716 14.425 19.6006 14.4137 19.6161L14.406 19.6268Z" fill="black"/>
<path d="M17.4175 21.9925C17.4175 22.7014 16.8428 23.276 16.134 23.276C15.4251 23.276 14.8505 22.7014 14.8505 21.9925C14.8505 21.2836 15.4251 20.709 16.134 20.709C16.8428 20.709 17.4175 21.2836 17.4175 21.9925Z" fill="black"/>
<path fill-rule="evenodd" clip-rule="evenodd" d="M13.4163 4.87626C14.9076 3.61432 17.0924 3.61432 18.5838 4.87626L29.646 14.2366C30.0676 14.5933 30.1202 15.2243 29.7634 15.6459C29.4067 16.0675 28.7757 16.1201 28.3541 15.7633L27 14.6176V24C27 26.2091 25.2092 28 23 28H9.00002C6.79088 28 5.00002 26.2091 5.00002 24V14.6176L3.64596 15.7633C3.22436 16.1201 2.59338 16.0675 2.23663 15.6459C1.87989 15.2243 1.93247 14.5933 2.35408 14.2366L13.4163 4.87626ZM17.2919 6.40304L25.0026 12.9275C25.0009 12.9514 25 12.9756 25 13V24C25 25.1045 24.1046 26 23 26H9.00002C7.89545 26 7.00002 25.1045 7.00002 24V13C7.00002 12.9756 6.99915 12.9514 6.99744 12.9275L14.7081 6.40304C15.4538 5.77207 16.5462 5.77207 17.2919 6.40304Z" fill="black"/>
</svg>
