<svg xmlns="http://www.w3.org/2000/svg" width="32" height="32" fill="none" viewBox="0 0 32 32"><path fill="#000" fill-rule="evenodd" d="M18.5838 4.8763c-1.4914-1.262-3.6762-1.262-5.1675 0L2.3541 14.2366c-.4216.3567-.4742.9877-.1175 1.4093s.9878.4742 1.4094.1174L5 14.6176V24c0 2.2091 1.7909 4 4 4h14c2.2092 0 4-1.7909 4-4v-9.3824l1.3541 1.1457c.4216.3568 1.0526.3042 1.4093-.1174s.3042-1.0526-.1174-1.4093zm6.4188 8.0512L17.2919 6.403c-.7457-.631-1.8381-.631-2.5838 0l-7.7107 6.5245Q7.0001 12.9634 7 13v11c0 1.1045.8955 2 2 2h14c1.1046 0 2-.8955 2-2V13q0-.0366.0026-.0725m-3.2014 4.4856c-.4654.2932-1.0799.1554-1.3757-.3075l-.0049-.0075a2 2 0 0 0-.0373-.0529 3.7 3.7 0 0 0-.1816-.2279c-.1693-.1973-.431-.467-.7872-.7378C18.7078 15.5421 17.6316 15 16.1341 15s-2.5737.5421-3.2805 1.0795c-.3562.2708-.6178.5405-.7871.7378a3.6 3.6 0 0 0-.1816.2279 2 2 0 0 0-.0373.0529l-.005.0075c-.2958.4629-.9102.6007-1.3757.3075-.4672-.2945-.6074-.9119-.3129-1.3792l.0011-.0017.0012-.002.003-.0047.0078-.0121a4 4 0 0 1 .1008-.1452 5.7 5.7 0 0 1 .281-.3536c.2438-.2841.6063-.6562 1.0941-1.0271C12.6241 13.7414 14.1149 13 16.1341 13c2.0191 0 3.5099.7414 4.491 1.4875.4878.3709.8503.743 1.0942 1.0271.1222.1424.2156.2638.281.3536a4 4 0 0 1 .1007.1452l.0079.0121.0029.0047.0013.002.0006.0009c.2944.4672.1548 1.0855-.3125 1.38m-8.7673 2.5157c.4636.292 1.075.1564 1.3721-.302l.0077-.0107a1.4 1.4 0 0 1 .0659-.0826 2.1 2.1 0 0 1 .3169-.2966c.2848-.2165.7192-.4377 1.3376-.4377s1.0527.2212 1.3375.4377c.1452.1105.2508.2197.3169.2966.0327.0381.0546.0671.0659.0826l.0077.0107c.2971.4584.9085.594 1.3721.302.4673-.2945.6068-.9128.3124-1.38l-.0005-.0009-.0012-.0018-.0025-.004-.0061-.0094-.0162-.0243a2 2 0 0 0-.0487-.0694 3.3 3.3 0 0 0-.1654-.2082 4.08 4.08 0 0 0-.6238-.5859c-.5591-.4251-1.4082-.8457-2.5481-.8457s-1.9891.4206-2.5482.8457a4.08 4.08 0 0 0-.6238.5859 3.3 3.3 0 0 0-.1654.2082 3 3 0 0 0-.0487.0694l-.0162.0243-.0061.0094-.0025.004-.0012.0018-.001.0017c-.2945.4673-.1543 1.0847.3129 1.3792m4.3836 2.0637c0 .7089-.5747 1.2835-1.2835 1.2835s-1.2835-.5746-1.2835-1.2835.5746-1.2835 1.2835-1.2835c.7088 0 1.2835.5746 1.2835 1.2835"/></svg>