<svg xmlns="http://www.w3.org/2000/svg" width="32" height="32" fill="none" viewBox="0 0 32 32"><path fill="#000" fill-rule="evenodd" d="M21 2c.5523 0 1 .4477 1 1v7.126c1.7252.4441 3 2.0102 3 3.874s-1.2748 3.4299-3 3.874V22.5c0 4.1421-3.3579 7.5-7.5 7.5S7 26.6421 7 22.5V16a.9999.9999 0 0 1 1.7809-.6247l4 5c.345.4313.2751 1.0606-.1562 1.4056s-1.0606.2751-1.4056-.1562L9 18.8508V22.5c0 3.0376 2.4624 5.5 5.5 5.5s5.5-2.4624 5.5-5.5v-4.626c-1.7252-.4441-3-2.0102-3-3.874s1.2748-3.4299 3-3.874V3c0-.5523.4477-1 1-1m-2 12c0-1.1046.8954-2 2-2s2 .8954 2 2-.8954 2-2 2-2-.8954-2-2"/></svg>