<svg xmlns="http://www.w3.org/2000/svg" width="32" height="32" fill="none" viewBox="0 0 32 32"><path fill="#000" fill-rule="evenodd" d="M6 5C3.7909 5 2 6.7909 2 9v14c0 2.2091 1.7909 4 4 4h20c2.2091 0 4-1.7909 4-4V9c0-2.2091-1.7909-4-4-4zm22 4c0-1.1046-.8954-2-2-2H6c-1.1046 0-2 .8954-2 2v2h24zM8 9c0 .5523-.4477 1-1 1s-1-.4477-1-1 .4477-1 1-1 1 .4477 1 1m2 1c.5523 0 1-.4477 1-1s-.4477-1-1-1-1 .4477-1 1 .4477 1 1 1m3 0c.5523 0 1-.4477 1-1s-.4477-1-1-1-1 .4477-1 1 .4477 1 1 1m-9 3v10c0 1.1046.8954 2 2 2h10V13zm24 5H18v-5h10zm-10 7h8c1.1046 0 2-.8954 2-2v-3H18z"/></svg>