<svg width="32" height="32" viewBox="0 0 32 32" fill="none" xmlns="http://www.w3.org/2000/svg">
<path d="M7 10C7.55228 10 8 9.55229 8 9C8 8.44771 7.55228 8 7 8C6.44772 8 6 8.44771 6 9C6 9.55229 6.44772 10 7 10Z" fill="black"/>
<path d="M11 9C11 9.55229 10.5523 10 10 10C9.44771 10 9 9.55229 9 9C9 8.44771 9.44771 8 10 8C10.5523 8 11 8.44771 11 9Z" fill="black"/>
<path d="M13 10C13.5523 10 14 9.55229 14 9C14 8.44771 13.5523 8 13 8C12.4477 8 12 8.44771 12 9C12 9.55229 12.4477 10 13 10Z" fill="black"/>
<path fill-rule="evenodd" clip-rule="evenodd" d="M2 9C2 6.79086 3.79086 5 6 5H26C28.2091 5 30 6.79086 30 9V23C30 25.2091 28.2091 27 26 27H6C3.79086 27 2 25.2091 2 23V9ZM26 7C27.1046 7 28 7.89543 28 9V11H4V9C4 7.89543 4.89543 7 6 7H26ZM4 23V13H16V25H6C4.89543 25 4 24.1046 4 23ZM26 25H18V20H28V23C28 24.1046 27.1046 25 26 25ZM18 18H28V13H18V18Z" fill="black"/>
</svg>
