<svg width="32" height="32" viewBox="0 0 32 32" fill="none" xmlns="http://www.w3.org/2000/svg">
<path d="M10.5 12C11.3284 12 12 11.3284 12 10.5C12 9.67157 11.3284 9 10.5 9C9.67157 9 9 9.67157 9 10.5C9 11.3284 9.67157 12 10.5 12Z" fill="black"/>
<path fill-rule="evenodd" clip-rule="evenodd" d="M12 4C7.58172 4 4 7.58172 4 12C4 16.4183 7.58172 20 12 20C12.9237 20 13.8123 19.8431 14.6397 19.554L16 20.9142V24C16 24.5523 16.4477 25 17 25H20V27C20 27.5523 20.4477 28 21 28H27C27.5523 28 28 27.5523 28 27V22.5C28 22.2348 27.8946 21.9804 27.7071 21.7929L19.7808 13.8666C19.9242 13.267 20 12.6418 20 12C20 7.58172 16.4183 4 12 4ZM6 12C6 8.68629 8.68629 6 12 6C15.3137 6 18 8.68629 18 12C18 12.6479 17.8977 13.27 17.709 13.852C17.5932 14.2094 17.6875 14.6017 17.9532 14.8674L26 22.9142V26H22V24C22 23.4477 21.5523 23 21 23H18V20.5C18 20.2348 17.8946 19.9804 17.7071 19.7929L15.5885 17.6743C15.2942 17.38 14.8485 17.2987 14.4693 17.4702C13.7175 17.8102 12.8822 18 12 18C8.68629 18 6 15.3137 6 12Z" fill="black"/>
</svg>
