<svg xmlns="http://www.w3.org/2000/svg" width="32" height="32" fill="none" viewBox="0 0 32 32"><path fill="#000" fill-rule="evenodd" d="M4 12c0-4.4183 3.5817-8 8-8s8 3.5817 8 8c0 .6418-.0758 1.267-.2192 1.8666l7.9263 7.9263c.1875.1875.2929.4419.2929.7071V27c0 .5523-.4477 1-1 1h-6c-.5523 0-1-.4477-1-1v-2h-3c-.5523 0-1-.4477-1-1v-3.0858l-1.3603-1.3602A7.99 7.99 0 0 1 12 20c-4.4183 0-8-3.5817-8-8m8-6c-3.3137 0-6 2.6863-6 6s2.6863 6 6 6c.8822 0 1.7175-.1898 2.4693-.5298a1 1 0 0 1 1.1192.2041l2.1186 2.1186c.1875.1875.2929.4419.2929.7071V23h3c.5523 0 1 .4477 1 1v2h4v-3.0858l-8.0468-8.0468a1 1 0 0 1-.2442-1.0154A6 6 0 0 0 18 12c0-3.3137-2.6863-6-6-6m0 4.5c0 .8284-.6716 1.5-1.5 1.5S9 11.3284 9 10.5 9.6716 9 10.5 9s1.5.6716 1.5 1.5"/></svg>