<svg xmlns="http://www.w3.org/2000/svg" width="32" height="32" fill="none" viewBox="0 0 32 32"><path fill="#000" fill-rule="evenodd" d="M21.0304 2.3115c-.3891-.389-1.0201-.391-1.4112-.0039-4.3965 4.3525-11.4754 4.357-15.877.0127-.0017-.0018-.004-.0031-.0058-.0049-.0023-.0023-.0045-.0055-.0068-.0078-.391-.3867-1.0212-.385-1.4102.0039-.389.3892-.391 1.02-.0039 1.4111 4.3578 4.4 4.3577 11.4886 0 15.8887-.3872.391-.385 1.0219.004 1.4111.389.389 1.019.3907 1.41.0039 4.2371-4.1938 10.9643-4.3483 15.3868-.4668a62 62 0 0 1-1.4668 1.378c-1.4314 1.3014-2.8136 2.4303-4.0674 3.3398a31 31 0 0 1-.2842.2031 28 28 0 0 1-1.0029.6817c-.039.0252-.0775.0515-.1162.0762-.407.2601-.7876.4853-1.1387.6767s-.6728.3487-.9629.4717a6 6 0 0 1-.537.2012c-.2762.087-.4735.1173-.6026.123.0058-.1291.037-.3267.124-.6025.2075-.6574.6559-1.5534 1.3496-2.6387.8414-1.3162 1.9995-2.8436 3.4014-4.4609a9.34 9.34 0 0 0-2.4121-.2432c-1.0614 1.2904-1.9656 2.519-2.6738 3.627-.7342 1.1485-1.2884 2.2147-1.5723 3.1142-.1415.4484-.2326.9084-.2168 1.3447.0161.4434.1487.9386.5351 1.3252.3865.3863.881.519 1.3243.5352a3 3 0 0 0 .165.001c.3866-.0088.7883-.094 1.1807-.2178.8995-.2839 1.9657-.8371 3.1142-1.5713.1927-.1232.3883-.2538.5879-.3887q.09-.0607.1807-.123c.417-.286.848-.5961 1.29-.9287q.058-.0437.1162-.0879c1.8131-1.3744 3.8092-3.1188 5.8018-5.1113 2.5376-2.5377 4.6735-5.0805 6.1533-7.2452q.0393-.0577.0781-.1152c.1419-.2095.2792-.4144.4082-.6162.1836-.2872.3561-.5692.5157-.8447.4785-.8265.8428-1.595 1.0556-2.2696.1415-.4485.2327-.9092.2168-1.3457-.0162-.4432-.1487-.9387-.5351-1.3252-.3866-.3863-.8819-.519-1.3252-.5351-.4363-.0159-.8964.0753-1.3447.2168-.8995.2838-1.9658.839-3.1143 1.5732-1.0923.6983-2.3018 1.5869-3.5723 2.6289a9.33 9.33 0 0 0 .2451 2.4082c1.5965-1.3799 3.1035-2.5209 4.4043-3.3525 1.0853-.6937 1.9814-1.1421 2.6387-1.3496.2762-.0871.4744-.1184.6035-.124-.0056.129-.0369.3264-.124.6025-.0518.1643-.1191.3438-.2012.5371-.123.2901-.2804.6118-.4716.9629-.1915.3511-.4167.7317-.6768 1.1387-.0181.0282-.0373.0565-.0557.0849-1.0024 1.5537-2.438 3.3934-4.1894 5.3252-.4396.485-.8995.9753-1.377 1.4688-3.8849-4.421-3.7296-11.1505.4678-15.3858.3873-.391.3861-1.0218-.0029-1.4111M6.5636 16.7783c1.3582-3.2638 1.359-6.9578.001-10.2217 3.2622 1.357 6.9542 1.3569 10.2167.001-1.3574 3.2626-1.3565 6.9562.001 10.2187-3.2631-1.3562-6.956-1.3553-10.2187.002m21.4736 1.5498c-.4532-.3151-1.0761-.2029-1.3916.25-.7552 1.0852-2.1728 2.6646-3.7246 4.2148-1.5468 1.5453-3.165 2.9989-4.293 3.8409-.4423.3302-.533.9569-.2031 1.3994.3304.4426.9578.5335 1.4004.2031 1.2375-.9238 2.9314-2.4526 4.5088-4.0283 1.5725-1.571 3.0932-3.2516 3.9531-4.4873.3153-.4533.2032-1.0772-.25-1.3926m-.9082 5.9834c.3156-.4527.9385-.5651 1.3916-.25.453.3154.565.9394.25 1.3926-.3011.4326-.8054.9855-1.2969 1.4765-.4963.4958-1.0448.9928-1.4638 1.3057-.4426.3304-1.0701.2394-1.4004-.2031-.33-.4425-.2392-1.0691.2031-1.3994.3095-.2311.7824-.653 1.248-1.1182.4707-.4702.8721-.922 1.0684-1.2041"/></svg>