<svg width="32" height="32" viewBox="0 0 32 32" fill="none" xmlns="http://www.w3.org/2000/svg">
<path fill-rule="evenodd" clip-rule="evenodd" d="M19.619 2.30763C20.0101 1.92061 20.6411 1.92249 21.0301 2.31153C21.4192 2.7008 21.4204 3.33171 21.0331 3.72267C16.8356 7.95788 16.6804 14.6874 20.5653 19.1084C21.0428 18.6149 21.5027 18.1246 21.9422 17.6397C23.6937 15.7078 25.1293 13.8681 26.1317 12.3145C26.1501 12.286 26.1693 12.2578 26.1874 12.2295C26.4475 11.8225 26.6727 11.4419 26.8641 11.0908C27.0554 10.7397 27.2128 10.418 27.3358 10.1279C27.4179 9.9346 27.4851 9.75514 27.537 9.59083C27.624 9.31475 27.6553 9.11736 27.661 8.98829C27.5319 8.99397 27.3337 9.02518 27.0575 9.11231C26.4002 9.31978 25.504 9.76822 24.4188 10.4619C23.118 11.2935 21.6109 12.4345 20.0145 13.8145C19.8274 13.0241 19.7469 12.214 19.7694 11.4063C21.0398 10.3642 22.2494 9.47562 23.3417 8.77735C24.4902 8.04317 25.5564 7.48795 26.4559 7.20411C26.9043 7.06268 27.3644 6.97148 27.8006 6.98731C28.2439 7.00343 28.7393 7.13615 29.1258 7.52247C29.5123 7.9089 29.6448 8.4044 29.661 8.84767C29.6769 9.2841 29.5857 9.74485 29.4442 10.1934C29.2313 10.8679 28.8671 11.6364 28.3885 12.4629C28.2289 12.7385 28.0565 13.0204 27.8729 13.3076C27.7439 13.5095 27.6065 13.7144 27.4647 13.9238C27.4388 13.9621 27.4129 14.0006 27.3866 14.0391C25.9067 16.2038 23.7709 18.7466 21.2333 21.2842C19.2407 23.2767 17.2446 25.0211 15.4315 26.3955C15.3927 26.425 15.354 26.4543 15.3153 26.4834C14.8732 26.8161 14.4423 27.1261 14.0253 27.4121C13.9647 27.4536 13.9045 27.4947 13.8446 27.5352C13.6449 27.67 13.4494 27.8007 13.2567 27.9238C12.1081 28.658 11.0419 29.2113 10.1424 29.4951C9.75005 29.6189 9.34841 29.7041 8.96178 29.7129C8.90664 29.7141 8.85121 29.7139 8.79674 29.7119C8.35356 29.6957 7.85894 29.563 7.47252 29.1768C7.08604 28.7902 6.95349 28.2949 6.93737 27.8516C6.92155 27.4153 7.01271 26.9552 7.15416 26.5068C7.43804 25.6074 7.99225 24.5411 8.72643 23.3926C9.43471 22.2847 10.3389 21.056 11.4003 19.7656C12.2093 19.7419 13.0205 19.8224 13.8124 20.0088C12.4105 21.6262 11.2524 23.1535 10.411 24.4697C9.71724 25.555 9.26886 26.451 9.06139 27.1084C8.97436 27.3842 8.94312 27.5818 8.93737 27.7109C9.06645 27.7053 9.26382 27.675 9.5399 27.5879C9.70422 27.5361 9.88369 27.4688 10.077 27.3867C10.3671 27.2637 10.6888 27.1063 11.0399 26.915C11.391 26.7236 11.7716 26.4984 12.1786 26.2383C12.2172 26.2136 12.2558 26.1874 12.2948 26.1621C12.6175 25.9532 12.9523 25.7256 13.2977 25.4805C13.3916 25.4139 13.4865 25.3465 13.5819 25.2774C14.8356 24.3679 16.2178 23.2389 17.6493 21.9375C18.1336 21.4973 18.6235 21.0374 19.1161 20.5596C14.6936 16.678 7.96639 16.8325 3.72936 21.0264C3.33825 21.4131 2.7082 21.4114 2.3192 21.0225C1.93021 20.6333 1.92811 20.0023 2.3153 19.6113C6.67296 15.2113 6.67307 8.12268 2.3153 3.72267C1.9281 3.33162 1.93011 2.70071 2.3192 2.31153C2.7082 1.92271 3.33829 1.92094 3.72936 2.30763C3.73166 2.30991 3.73389 2.31314 3.73619 2.31544C3.73795 2.31721 3.74029 2.31857 3.74205 2.32032C8.14361 6.66466 15.2225 6.66009 19.619 2.30763ZM6.56432 6.55665C7.92229 9.82055 7.9216 13.5145 6.56334 16.7783C9.8261 15.421 13.519 15.4201 16.7821 16.7764C15.4246 13.5138 15.4237 9.8202 16.7811 6.55763C13.5185 7.91353 9.82658 7.91355 6.56432 6.55665Z" fill="black"/>
<path d="M27.1288 24.3115C27.4443 23.8588 28.0673 23.7464 28.5204 24.0615C28.9734 24.3769 29.0854 25.0009 28.7704 25.4541C28.4693 25.8867 27.965 26.4397 27.4735 26.9307C26.9772 27.4265 26.4287 27.9234 26.0096 28.2363C25.5671 28.5667 24.9396 28.4758 24.6092 28.0332C24.2793 27.5907 24.3701 26.9641 24.8124 26.6338C25.1219 26.4027 25.5948 25.9808 26.0604 25.5156C26.5311 25.0454 26.9324 24.5937 27.1288 24.3115Z" fill="black"/>
<path d="M26.6454 18.5781C26.9609 18.1252 27.5838 18.013 28.037 18.3281C28.4902 18.6436 28.6022 19.2674 28.287 19.7207C27.4271 20.9564 25.9064 22.6371 24.3339 24.208C22.7565 25.7837 21.0625 27.3125 19.8251 28.2363C19.3825 28.5667 18.755 28.4758 18.4247 28.0332C18.0947 27.5907 18.1855 26.9641 18.6278 26.6338C19.7557 25.7918 21.374 24.3382 22.9208 22.793C24.4726 21.2427 25.8902 19.6634 26.6454 18.5781Z" fill="black"/>
</svg>
