<svg width="32" height="32" viewBox="0 0 32 32" fill="none" xmlns="http://www.w3.org/2000/svg">
<path fill-rule="evenodd" clip-rule="evenodd" d="M17.4366 3.36631C16.5411 2.8779 15.4589 2.8779 14.5634 3.36631L4.52115 8.84393C4.19989 9.01916 4.00001 9.35588 4.00001 9.72183C4.00001 10.0878 4.19989 10.4245 4.52115 10.5997L14.5634 16.0773C15.4589 16.5658 16.5411 16.5658 17.4366 16.0773L27.4788 10.5997C27.8001 10.4245 28 10.0878 28 9.72181C28 9.35587 27.8001 9.01915 27.4788 8.84391L17.4366 3.36631ZM15.5212 5.1221C15.8196 4.9593 16.1804 4.9593 16.4789 5.1221L24.9117 9.72181L16.4789 14.3215C16.1804 14.4844 15.8196 14.4844 15.5212 14.3215L7.08833 9.72183L15.5212 5.1221Z" fill="black"/>
<path d="M27.4788 14.8779C27.9637 14.6134 28.1423 14.006 27.8779 13.5211C27.6134 13.0363 27.006 12.8576 26.5211 13.1221L16.4789 18.5997C16.1804 18.7625 15.8196 18.7625 15.5212 18.5997L5.47886 13.1221C4.99401 12.8577 4.38657 13.0363 4.12211 13.5212C3.85765 14.006 4.03631 14.6134 4.52115 14.8779L14.5634 20.3555C15.4589 20.8439 16.5411 20.8439 17.4366 20.3555L27.4788 14.8779Z" fill="black"/>
<path d="M27.8779 17.5211C28.1423 18.006 27.9637 18.6134 27.4788 18.8779L17.4366 24.3555C16.5411 24.8439 15.4589 24.8439 14.5634 24.3555L4.52115 18.8779C4.03631 18.6134 3.85765 18.006 4.12211 17.5212C4.38657 17.0363 4.99401 16.8577 5.47886 17.1221L15.5212 22.5997C15.8196 22.7625 16.1804 22.7625 16.4789 22.5997L26.5211 17.1221C27.006 16.8576 27.6134 17.0363 27.8779 17.5211Z" fill="black"/>
<path d="M27.4788 22.8779C27.9637 22.6134 28.1423 22.006 27.8779 21.5211C27.6134 21.0363 27.006 20.8576 26.5211 21.1221L16.4789 26.5997C16.1804 26.7625 15.8196 26.7625 15.5212 26.5997L5.47886 21.1221C4.99401 20.8577 4.38657 21.0363 4.12211 21.5212C3.85765 22.006 4.03631 22.6134 4.52115 22.8779L14.5634 28.3555C15.4589 28.8439 16.5411 28.8439 17.4366 28.3555L27.4788 22.8779Z" fill="black"/>
</svg>
