<svg width="32" height="32" viewBox="0 0 32 32" fill="none" xmlns="http://www.w3.org/2000/svg">
<path d="M10 9C10 8.44772 10.4477 8 11 8H21C21.5523 8 22 8.44772 22 9C22 9.55228 21.5523 10 21 10H11C10.4477 10 10 9.55228 10 9Z" fill="black"/>
<path d="M10 13C10 12.4477 10.4477 12 11 12H18C18.5523 12 19 12.4477 19 13C19 13.5523 18.5523 14 18 14H11C10.4477 14 10 13.5523 10 13Z" fill="black"/>
<path d="M10 18C10 17.4477 10.4477 17 11 17H13C13.5523 17 14 17.4477 14 18C14 18.5523 13.5523 19 13 19H11C10.4477 19 10 18.5523 10 18Z" fill="black"/>
<path d="M20.5 26C21.8807 26 23 24.8807 23 23.5C23 22.1193 21.8807 21 20.5 21C19.1193 21 18 22.1193 18 23.5C18 24.8807 19.1193 26 20.5 26Z" fill="black"/>
<path fill-rule="evenodd" clip-rule="evenodd" d="M5 6C5 3.79086 6.79086 2 9 2H23C25.2091 2 27 3.79086 27 6V26C27 28.2091 25.2091 30 23 30H9C6.79086 30 5 28.2091 5 26V6ZM9 4C7.89543 4 7 4.89543 7 6V26C7 27.1046 7.89543 28 9 28H23C24.1046 28 25 27.1046 25 26V6C25 4.89543 24.1046 4 23 4H9Z" fill="black"/>
</svg>
