<svg xmlns="http://www.w3.org/2000/svg" width="32" height="32" fill="none" viewBox="0 0 32 32"><path fill="#000" fill-rule="evenodd" d="M24.9503 12.7924c0 .0831-.0011.1865-.0027.2946a4.14 4.14 0 0 0-.8476-.0863 4.12 4.12 0 0 0-.9499.1091 4.12 4.12 0 0 0-.906.3309l-.008.0041-.0134.0068-.0129.0068-.0114.006-4.3246 2.3134a3.05 3.05 0 0 0-.6679.4625q-.3117.285-.5418.6591a3.07 3.07 0 0 0-.3418.7722 3.05 3.05 0 0 0-.1142.7739 21 21 0 0 1-.1932-.0014h-.0303c-.5308.0063-1.0918-.0076-1.6734-.04v3.7663c-1.9748.2704-3.9457-.12-3.9457-.12v-4.0945a42 42 0 0 1-1.1356-.2047c-.1733 1.0901-.2696 2.4295-.174 4.0045.261 4.294 2.8576 6.9934 6.8656 7.0323h.1627c.8389-.0081 1.616-.1328 2.3228-.3643q.6741.8319 1.5297 1.5642c-1.4313-.0289-2.8293-.1052-3.6639-.1825a13 13 0 0 1-.1886.0026h-.1683a12 12 0 0 1-.184-.0025c-2.187.2024-8.237.3983-8.6273-.2486-.0929-.1537-.1573-.5347.3584-.9083.5657-.4105 1.4422-.7462 2.165-.9669-1.9287-1.6154-2.8198-3.8429-2.8198-5.5514 0 0-1.8579 2.9635-2.5003 2.8872-.2994-.0354-.6927-1.6227.521-5.4583.2545-.8042.6016-1.7426.9535-2.6433l1.2843-3.1478c-.0012-.0366-.017-.6561-.017-.9759C7.0496 7.4094 9.637 2.0002 16 2c6.363.0002 8.9502 5.4092 8.9502 10.7924m-12.8586-4.995c.0465 1.2279.7839 2.1935 1.6471 2.1552.8626-.0379 1.5241-1.0647 1.4769-2.293-.0468-1.2283-.7841-2.1935-1.6462-2.1555-.8633.0383-1.5246 1.0651-1.4778 2.2934m6.1754 2.1552c.8632.0383 1.6007-.9275 1.6469-2.1551.047-1.2283-.6143-2.255-1.4775-2.2934-.8624-.0378-1.5995.9274-1.6463 2.1556-.0472 1.2282.6141 2.2549 1.4769 2.2929m-4.0747-1.1742c.3727-.0469.6437-.4778.6042-.9628-.0391-.4851-.3739-.8406-.748-.793-.3721.0467-.6426.4775-.6035.963.0396.485.3738.84.7473.7928m3.781-.9193c-.2538.0862-.4221.25-.4906.3437a.2107.2107 0 0 1-.2942.046.21.21 0 0 1-.046-.294c.1112-.1522.3469-.3757.6952-.494.3563-.1209.8147-.1261 1.3491.1408a.21.21 0 0 1 .0943.2821.211.211 0 0 1-.2826.094c-.4376-.2184-.7794-.202-1.0252-.1186m-1.9558 2.7667c2.8759 0 5.1991.559 5.4296 1.0606a.165.165 0 0 1 .0169.0714.17.17 0 0 1-.0317.0969c-.1944.2784-2.774 1.6533-5.4148 1.6533h-.0309c-2.641 0-5.2205-1.3753-5.4149-1.6533a.17.17 0 0 1-.0317-.0966.17.17 0 0 1 .0168-.0715c.2307-.5018 2.5538-1.0608 5.4298-1.0608zm2.1899 7.8875c0-.4077.2292-.7803.5922-.9626l4.3421-2.3227a2.134 2.134 0 0 1 1.9165 0l4.3421 2.3227c.363.1823.5922.5549.5922.9626v4.2475c0 .764-.1783 1.6045-.5357 2.418C28.1177 28.1251 25.1714 30 24.1 30s-4.0508-1.8749-5.3568-4.8212c-.3696-.8335-.5357-1.6926-.5357-2.4612zm1.9999.5525 3.8421-2.0552A.13.13 0 0 1 24.1 17a.13.13 0 0 1 .0506.0106l3.842 2.0552v3.695q0 .7787-.3564 1.5904a7 7 0 0 1-.0665.142q-.7194 1.4928-2.1472 2.6442-.5843.4713-1.1095.7314a2.8 2.8 0 0 1-.2143.0966 3 3 0 0 1-.2204-.0986q-.5304-.2611-1.1162-.7318-1.4814-1.1898-2.1758-2.7336l-.0001-.0002-.0147-.0329q-.346-.7804-.3631-1.5681l-.0001-.0009-.0001-.0082-.0001-.0027a4 4 0 0 1-.0007-.0708zm4.0041 5.3735 2.6565-2.6565q.1173-.1172.1759-.2588t.0586-.3073q0-.1659-.0586-.3074t-.1759-.2588-.2588-.1759-.3073-.0586-.3074.0586-.2588.1759l-2.0903 2.0903-.7621-.762q-.1172-.1173-.2588-.1759t-.3074-.0586-.3073.0586-.2588.1759-.1759.2587q-.0586.1416-.0586.3074t.0586.3074.1759.2588l1.3282 1.3282q.1172.1173.2588.1759t.3074.0586.3073-.0586.2588-.1759"/></svg>