<svg width="32" height="32" viewBox="0 0 32 32" fill="none" xmlns="http://www.w3.org/2000/svg">
<path fill-rule="evenodd" clip-rule="evenodd" d="M11 15C11 13.8954 11.8954 13 13 13V11C13 9.34315 14.3431 8 16 8C17.6569 8 19 9.34315 19 11V13C20.1046 13 21 13.8954 21 15V17C21 18.1046 20.1046 19 19 19H13C11.8954 19 11 18.1046 11 17V15ZM19 15H13V17H19V15ZM17 13V11C17 10.4477 16.5523 10 16 10C15.4477 10 15 10.4477 15 11V13H17Z" fill="black"/>
<path fill-rule="evenodd" clip-rule="evenodd" d="M6 4C4.34315 4 3 5.34315 3 7V20C3 21.6569 4.34315 23 6 23H13V27H11C10.4477 27 10 27.4477 10 28C10 28.5523 10.4477 29 11 29H21C21.5523 29 22 28.5523 22 28C22 27.4477 21.5523 27 21 27H19V23H26C27.6569 23 29 21.6569 29 20V7C29 5.34315 27.6569 4 26 4H6ZM17 23V27H15V23H17ZM26 21C26.5523 21 27 20.5523 27 20V7C27 6.44771 26.5523 6 26 6H6C5.44772 6 5 6.44772 5 7V20C5 20.5523 5.44772 21 6 21H26Z" fill="black"/>
</svg>
