<svg xmlns="http://www.w3.org/2000/svg" width="32" height="32" fill="none" viewBox="0 0 32 32"><path fill="#000" fill-rule="evenodd" d="M16 1.8637c-3.5647 0-6.4545 2.8897-6.4545 6.4545V10.5H8c-2.2091 0-4 1.7909-4 4v11.6364c0 2.2091 1.7909 4 4 4h16c2.2091 0 4-1.7909 4-4V14.5c0-2.2091-1.7909-4-4-4h-1.5455V8.3182c0-3.5648-2.8898-6.4545-6.4545-6.4545M20.4545 10.5V8.3182c0-2.4602-1.9943-4.4545-4.4545-4.4545s-4.4545 1.9943-4.4545 4.4545V10.5zM8 12.5h16c1.1046 0 2 .8954 2 2v11.6364c0 1.1045-.8954 2-2 2H8c-1.1046 0-2-.8955-2-2V14.5c0-1.1046.8954-2 2-2m10.9091 7.8182c0 1.6066-1.3025 2.9091-2.9091 2.9091s-2.9091-1.3025-2.9091-2.9091S14.3934 17.4091 16 17.4091s2.9091 1.3024 2.9091 2.9091"/></svg>