<svg xmlns="http://www.w3.org/2000/svg" width="32" height="32" fill="none" viewBox="0 0 32 32"><path fill="#000" fill-rule="evenodd" d="M30 16c0 7.732-6.268 14-14 14S2 23.732 2 16 8.268 2 16 2s14 6.268 14 14m-2 0c0 6.6274-5.3726 12-12 12S4 22.6274 4 16 9.3726 4 16 4s12 5.3726 12 12m-11.9091 5.2273h1.3636V22c0 .5523.4478 1 1 1H22c.5523 0 1-.4477 1-1v-2.6591c0-.2652-.1054-.5196-.2929-.7071l-4.5262-4.5263a5.16 5.16 0 0 0 .0918-.9711C18.2727 10.2996 15.9731 8 13.1364 8S8 10.2996 8 13.1364c0 2.8367 2.2996 5.1363 5.1364 5.1363a5.14 5.14 0 0 0 1.447-.2069l.5075.5075v1.654c0 .5523.4477 1 1 1M10 13.1364C10 11.4042 11.4042 10 13.1364 10c1.7321 0 3.1363 1.4042 3.1363 3.1364 0 .3395-.0536.6645-.152.9682a1 1 0 0 0 .2442 1.0154L21 19.7551V21h-1.5455v-.7727c0-.5523-.4477-1-1-1h-1.3636v-1.0682a1 1 0 0 0-.2929-.7071l-1.2519-1.2519a1 1 0 0 0-1.1192-.2041 3.12 3.12 0 0 1-1.2905.2767c-1.7322 0-3.1364-1.4042-3.1364-3.1363M14 13c0 .5523-.4477 1-1 1s-1-.4477-1-1 .4477-1 1-1 1 .4477 1 1"/></svg>