<svg xmlns="http://www.w3.org/2000/svg" width="32" height="32" fill="none" viewBox="0 0 32 32"><path fill="#000" fill-rule="evenodd" d="M6 6c-2.2091 0-4 1.7909-4 4v12c0 2.2091 1.7909 4 4 4h9.402l1.1429-2H6c-1.1046 0-2-.8954-2-2V10c0-.4466.1464-.859.3938-1.192l8.7778 8.7778c1.5621 1.5621 4.0947 1.5621 5.6568 0l8.7778-8.7777A1.99 1.99 0 0 1 28 10v8.0281a5.2 5.2 0 0 1 .3413.5225L30 21.4533V10c0-2.2091-1.7909-4-4-4zm19.5858 2H6.4142l8.1716 8.1716c.781.781 2.0474.781 2.8284 0zm1.019 11.5428c-1.1517-2.0154-4.0578-2.0154-5.2095 0l-4.5536 7.9689c-1.1429 2 .3012 4.4884 2.6047 4.4884h9.1073c2.3034 0 3.7475-2.4884 2.6047-4.4884zm-3.473.9923c.3839-.6718 1.3526-.6718 1.7365 0l4.5536 7.9689c.381.6666-.1004 1.4961-.8682 1.4961h-9.1073c-.7678 0-1.2492-.8295-.8683-1.4961zM25 23c0-.5523-.4477-1-1-1s-1 .4477-1 1v2c0 .5523.4477 1 1 1s1-.4477 1-1zm0 5c0 .5523-.4477 1-1 1s-1-.4477-1-1 .4477-1 1-1 1 .4477 1 1"/></svg>