<svg width="32" height="32" viewBox="0 0 32 32" fill="none" xmlns="http://www.w3.org/2000/svg">
<path fill-rule="evenodd" clip-rule="evenodd" d="M16 9C13.7909 9 12 10.7909 12 13C12 15.2091 13.7909 17 16 17C18.2091 17 20 15.2091 20 13C20 10.7909 18.2091 9 16 9ZM14 13C14 11.8954 14.8954 11 16 11C17.1046 11 18 11.8954 18 13C18 14.1046 17.1046 15 16 15C14.8954 15 14 14.1046 14 13Z" fill="black"/>
<path fill-rule="evenodd" clip-rule="evenodd" d="M16 2C9.94889 2 5 6.78922 5 12.75C5 17.4266 7.53316 21.7129 10.0168 24.7572C11.2707 26.2941 12.5427 27.5522 13.5432 28.431C14.0428 28.8698 14.4828 29.2212 14.8264 29.4687C14.9964 29.5911 15.156 29.6977 15.2955 29.7784C15.364 29.818 15.4444 29.8611 15.5292 29.8974L15.5319 29.8986C15.584 29.9209 15.7686 30 16 30C16.2314 30 16.416 29.9209 16.4681 29.8986L16.4708 29.8974C16.5556 29.8611 16.636 29.818 16.7045 29.7784C16.844 29.6977 17.0036 29.5911 17.1736 29.4687C17.5172 29.2212 17.9572 28.8698 18.4568 28.431C19.4573 27.5522 20.7293 26.2941 21.9832 24.7572C24.4668 21.7129 27 17.4266 27 12.75C27 6.78922 22.0511 2 16 2ZM7 12.75C7 7.94122 11.0054 4 16 4C20.9946 4 25 7.94122 25 12.75C25 16.74 22.8109 20.5788 20.4335 23.4928C19.2568 24.9351 18.0636 26.1144 17.1369 26.9284C16.673 27.3359 16.284 27.6447 16.0048 27.8458L16 27.8492L15.9952 27.8458C15.716 27.6447 15.327 27.3359 14.8631 26.9284C13.9364 26.1144 12.7432 24.9351 11.5665 23.4928C9.18906 20.5788 7 16.74 7 12.75Z" fill="black"/>
</svg>
