<svg xmlns="http://www.w3.org/2000/svg" width="32" height="32" fill="none" viewBox="0 0 32 32"><path fill="#000" fill-rule="evenodd" d="M5 12.75C5 6.7892 9.9489 2 16 2s11 4.7892 11 10.75c0 4.6766-2.5332 8.9629-5.0168 12.0072-1.2539 1.5369-2.5259 2.795-3.5264 3.6738-.4996.4388-.9396.7902-1.2832 1.0377-.17.1224-.3296.229-.4691.3097a2.2 2.2 0 0 1-.2337.119l-.0027.0012C16.416 29.9209 16.2314 30 16 30s-.416-.0791-.4681-.1014l-.0027-.0012a2.2 2.2 0 0 1-.2337-.119c-.1395-.0807-.2991-.1873-.4691-.3097-.3436-.2475-.7836-.5989-1.2832-1.0377-1.0005-.8788-2.2725-2.1369-3.5264-3.6738C7.5332 21.7129 5 17.4266 5 12.75M16 4c-4.9946 0-9 3.9412-9 8.75 0 3.99 2.189 7.8288 4.5665 10.7428 1.1767 1.4423 2.3699 2.6216 3.2966 3.4356.4639.4075.8529.7163 1.1321.9174l.0048.0034.0048-.0034c.2792-.2011.6682-.5099 1.1321-.9174.9267-.814 2.1199-1.9933 3.2966-3.4356C22.8109 20.5788 25 16.74 25 12.75 25 7.9412 20.9946 4 16 4m0 5c-2.2091 0-4 1.7909-4 4s1.7909 4 4 4 4-1.7909 4-4-1.7909-4-4-4m-2 4c0-1.1046.8954-2 2-2s2 .8954 2 2-.8954 2-2 2-2-.8954-2-2"/></svg>