<svg width="32" height="32" viewBox="0 0 32 32" fill="none" xmlns="http://www.w3.org/2000/svg">
<path d="M7 15C7.02141 16.6606 8.35635 18 10 18C11.6436 18 12.9786 16.6606 13 15H7Z" fill="black"/>
<path d="M19 15C19.0214 16.6606 20.3564 18 22 18C23.6436 18 24.9786 16.6606 25 15H19Z" fill="black"/>
<path fill-rule="evenodd" clip-rule="evenodd" d="M5.35742 9.54752C6.80064 8.94958 8.46075 8.97423 9.89598 9.13176C12.1787 9.3823 14.551 10.0209 16 10.5984C17.449 10.0209 19.8213 9.3823 22.104 9.13176C23.5392 8.97423 25.1994 8.94958 26.6426 9.54752C28.1685 10.1797 29.3299 11.4561 29.7938 13.5951C30.193 15.4359 30.0411 17.6456 29.0836 19.477C28.0993 21.3598 26.2808 22.7943 23.5303 22.9745C22.1078 23.0677 20.9895 22.8692 20.0744 22.4778C19.161 22.0871 18.5162 21.5319 18.0121 21.0181C17.83 20.8325 17.6547 20.6398 17.5006 20.4704C17.4495 20.4142 17.4006 20.3604 17.3546 20.3104C17.1578 20.0963 16.9982 19.9324 16.8443 19.8031C16.5696 19.5724 16.3559 19.4843 16.0567 19.4983L16.0409 19.4991C16.0176 19.5001 15.9947 19.5004 15.9722 19.5002C15.6641 19.5061 15.4349 19.6126 15.1544 19.8517C14.9962 19.9865 14.8344 20.1536 14.6365 20.3678C14.5964 20.4111 14.5539 20.4575 14.5103 20.5051C14.3505 20.6795 14.1683 20.8782 13.9764 21.0709C13.4703 21.579 12.8257 22.1209 11.9134 22.4998C11.0012 22.8786 9.88724 23.0674 8.46971 22.9745C5.71917 22.7943 3.90074 21.3598 2.91639 19.477C1.95889 17.6456 1.80702 15.4359 2.20622 13.5951C2.67013 11.4561 3.83145 10.1797 5.35742 9.54752ZM15.577 12.5896L15.5535 12.5792L15.5433 12.5747C14.3579 12.0546 11.9768 11.3722 9.67777 11.1198C8.32797 10.9717 7.08558 10.9964 6.12295 11.3952C5.24307 11.7598 4.49522 12.4769 4.16078 14.019C3.84346 15.4822 3.98336 17.2011 4.68878 18.5504C5.36733 19.8483 6.58296 20.8466 8.60046 20.9788C9.76669 21.0552 10.5652 20.894 11.1465 20.6527C11.7277 20.4113 12.1576 20.0629 12.5593 19.6595C12.7191 19.4991 12.864 19.3411 13.0193 19.1718C13.0674 19.1193 13.1165 19.0657 13.1674 19.0106C13.3716 18.7896 13.6017 18.5473 13.8568 18.3298C14.3937 17.872 15.07 17.5011 15.9956 17.4999C16.0137 17.4987 16.0322 17.4979 16.0509 17.4976C16.9389 17.4795 17.6019 17.8277 18.1305 18.2716C18.3891 18.4888 18.6214 18.7332 18.8269 18.9568C18.8874 19.0226 18.9454 19.0863 19.0018 19.1484C19.1486 19.3097 19.2864 19.4611 19.4397 19.6174C19.8455 20.031 20.2783 20.3898 20.861 20.639C21.442 20.8875 22.2382 21.0548 23.3995 20.9788C25.417 20.8466 26.6327 19.8483 27.3112 18.5504C28.0166 17.2011 28.1565 15.4822 27.8392 14.019C27.5048 12.4769 26.7569 11.7598 25.8771 11.3952C24.9144 10.9964 23.672 10.9717 22.3222 11.1198C20.0011 11.3746 17.5964 12.0677 16.423 12.5896C16.2853 12.6508 16.1413 12.6784 16 12.676C15.8587 12.6784 15.7147 12.6508 15.577 12.5896Z" fill="black"/>
</svg>
