<svg xmlns="http://www.w3.org/2000/svg" width="32" height="32" fill="none" viewBox="0 0 32 32"><path fill="#000" fill-rule="evenodd" d="M24 7c0-1.6569-1.3431-3-3-3H5C3.3432 4 2 5.3431 2 7v16a1 1 0 0 0 1.6247.7809L6 21.8806v-2.5612l-2 1.6V7c0-.5523.4477-1 1-1h16c.5523 0 1 .4477 1 1zM11 9c-1.6569 0-3 1.3431-3 3v11c0 1.6569 1.3431 3 3 3h12.2984c.2271 0 .4474.0773.6247.2191l4.4522 3.5618A1.0001 1.0001 0 0 0 30 29V12c0-1.6569-1.3431-3-3-3zm-1 3c0-.5523.4477-1 1-1h16c.5523 0 1 .4477 1 1v14.9194l-2.8275-2.262A3 3 0 0 0 23.2984 24H11c-.5523 0-1-.4477-1-1zm6 6c0 .5523-.4477 1-1 1s-1-.4477-1-1 .4477-1 1-1 1 .4477 1 1m4 0c0 .5523-.4477 1-1 1s-1-.4477-1-1 .4477-1 1-1 1 .4477 1 1m4 0c0 .5523-.4477 1-1 1s-1-.4477-1-1 .4477-1 1-1 1 .4477 1 1"/></svg>