<svg width="32" height="32" viewBox="0 0 32 32" fill="none" xmlns="http://www.w3.org/2000/svg">
<path d="M21 4C22.6569 4 24 5.34315 24 7H22C22 6.44772 21.5523 6 21 6H5C4.44772 6 4 6.44772 4 7V20.9194L6 19.3194V21.8806L3.62469 23.7809C3.32453 24.021 2.91328 24.0678 2.56681 23.9013C2.22035 23.7348 2 23.3844 2 23V7C2 5.34315 3.34315 4 5 4H21Z" fill="black"/>
<path d="M16 18C16 18.5523 15.5523 19 15 19C14.4477 19 14 18.5523 14 18C14 17.4477 14.4477 17 15 17C15.5523 17 16 17.4477 16 18Z" fill="black"/>
<path d="M19 19C19.5523 19 20 18.5523 20 18C20 17.4477 19.5523 17 19 17C18.4477 17 18 17.4477 18 18C18 18.5523 18.4477 19 19 19Z" fill="black"/>
<path d="M24 18C24 18.5523 23.5523 19 23 19C22.4477 19 22 18.5523 22 18C22 17.4477 22.4477 17 23 17C23.5523 17 24 17.4477 24 18Z" fill="black"/>
<path fill-rule="evenodd" clip-rule="evenodd" d="M8 12C8 10.3431 9.34315 9 11 9H27C28.6569 9 30 10.3431 30 12V29C30 29.3844 29.7797 29.7348 29.4332 29.9013C29.0867 30.0678 28.6755 30.021 28.3753 29.7809L23.9231 26.2191C23.7458 26.0773 23.5255 26 23.2984 26H11C9.34315 26 8 24.6569 8 23V12ZM11 11C10.4477 11 10 11.4477 10 12V23C10 23.5523 10.4477 24 11 24H23.2984C23.9797 24 24.6406 24.2318 25.1725 24.6574L28 26.9194V12C28 11.4477 27.5523 11 27 11H11Z" fill="black"/>
</svg>
