<svg width="32" height="32" viewBox="0 0 32 32" fill="none" xmlns="http://www.w3.org/2000/svg">
<path fill-rule="evenodd" clip-rule="evenodd" d="M11 9C11 6.23858 13.2386 4 16 4C18.7614 4 21 6.23858 21 9V15C21 17.7614 18.7614 20 16 20C13.2386 20 11 17.7614 11 15V9ZM16 6C14.3431 6 13 7.34315 13 9V15C13 16.6569 14.3431 18 16 18C17.6569 18 19 16.6569 19 15V9C19 7.34315 17.6569 6 16 6Z" fill="black"/>
<path d="M7 14C7.55228 14 8 14.4477 8 15C8 19.4183 11.5817 23 16 23C20.4183 23 24 19.4183 24 15C24 14.4477 24.4477 14 25 14C25.5523 14 26 14.4477 26 15C26 20.1853 22.0533 24.4489 17 24.9506V28C17 28.5523 16.5523 29 16 29C15.4477 29 15 28.5523 15 28V24.9506C9.94668 24.4489 6 20.1853 6 15C6 14.4477 6.44772 14 7 14Z" fill="black"/>
</svg>
