<svg xmlns="http://www.w3.org/2000/svg" width="32" height="32" fill="none" viewBox="0 0 32 32"><path fill="#000" fill-rule="evenodd" d="M11 9c0-2.7614 2.2386-5 5-5s5 2.2386 5 5v6c0 2.7614-2.2386 5-5 5s-5-2.2386-5-5zm5-3c-1.6569 0-3 1.3431-3 3v6c0 1.6569 1.3431 3 3 3s3-1.3431 3-3V9c0-1.6569-1.3431-3-3-3m-8 9c0-.5523-.4477-1-1-1s-1 .4477-1 1c0 5.1853 3.9467 9.4489 9 9.9506V28c0 .5523.4477 1 1 1s1-.4477 1-1v-3.0494c5.0533-.5017 9-4.7653 9-9.9506 0-.5523-.4477-1-1-1s-1 .4477-1 1c0 4.4183-3.5817 8-8 8s-8-3.5817-8-8"/></svg>