<svg width="32" height="32" viewBox="0 0 32 32" fill="none" xmlns="http://www.w3.org/2000/svg">
<path fill-rule="evenodd" clip-rule="evenodd" d="M16 2C16.5523 2 17 2.44772 17 3V4.05493C21.5 4.55237 25 8.36745 25 13V24C25.5523 24 26 24.4477 26 25C26 25.5523 25.5523 26 25 26H7C6.44772 26 6 25.5523 6 25C6 24.4477 6.44772 24 7 24V13C7 8.36745 10.5 4.55237 15 4.05493V3C15 2.44772 15.4477 2 16 2ZM23 24V13C23 9.13401 19.866 6 16 6C12.134 6 9 9.13401 9 13V24H23Z" fill="black"/>
<path d="M15.9999 30C14.6937 30 13.5825 29.1652 13.1707 28H18.8292C18.4174 29.1652 17.3062 30 15.9999 30Z" fill="black"/>
</svg>
