<svg xmlns="http://www.w3.org/2000/svg" width="32" height="32" fill="none" viewBox="0 0 32 32"><path fill="#000" fill-rule="evenodd" d="M2 12c0-.5523.4477-1 1-1h1c1.1046 0 2 .8954 2 2v7c0 .5523-.4477 1-1 1s-1-.4477-1-1v-7H3c-.5523 0-1-.4477-1-1m9 0c0-.5523.4477-1 1-1h4c1.1046 0 2 .8954 2 2v2c0 1.1046-.8954 2-2 2h-3v2h4c.5523 0 1 .4477 1 1s-.4477 1-1 1h-4c-1.1046 0-2-.8954-2-2v-2c0-1.1046.8954-2 2-2h3v-2h-4c-.5523 0-1-.4477-1-1m12 0c0-.5523.4477-1 1-1h4c1.1046 0 2 .8954 2 2v6c0 1.1046-.8954 2-2 2h-4c-.5523 0-1-.4477-1-1s.4477-1 1-1h4v-2h-2c-.5523 0-1-.4477-1-1s.4477-1 1-1h2v-2h-4c-.5523 0-1-.4477-1-1"/></svg>