<svg xmlns="http://www.w3.org/2000/svg" width="32" height="32" fill="none" viewBox="0 0 32 32"><path d="M13 9c1.105 0 2-.895 2-2s-.895-2-2-2-2 .895-2 2 .895 2 2 2m-4 4c0 1.105-.895 2-2 2s-2-.895-2-2 .895-2 2-2 2 .895 2 2m0 6c0 1.105-.895 2-2 2s-2-.895-2-2 .895-2 2-2 2 .895 2 2m6-6c0 1.105-.895 2-2 2s-2-.895-2-2 .895-2 2-2 2 .895 2 2m-2 14c1.105 0 2-.895 2-2s-.895-2-2-2-2 .895-2 2 .895 2 2 2m8-20c0 1.105-.895 2-2 2s-2-.895-2-2 .895-2 2-2 2 .895 2 2m-2 14c1.105 0 2-.895 2-2s-.895-2-2-2-2 .895-2 2 .895 2 2 2m2 4c0 1.105-.895 2-2 2s-2-.895-2-2 .895-2 2-2 2 .895 2 2m4-16c1.105 0 2-.895 2-2s-.895-2-2-2-2 .895-2 2 .895 2 2 2m2 10c0 1.105-.895 2-2 2s-2-.895-2-2 .895-2 2-2 2 .895 2 2m-2-4c1.105 0 2-.895 2-2s-.895-2-2-2-2 .895-2 2 .895 2 2 2"/><path fill="#000" d="M9 7c0 1.105-.895 2-2 2s-2-.895-2-2 .895-2 2-2 2 .895 2 2m0 18c0 1.105-.895 2-2 2s-2-.895-2-2 .895-2 2-2 2 .895 2 2m4-4a1.993 1.993 0 0 0 1.377-.55A1.994 1.994 0 0 0 15 19c0-1.105-.895-2-2-2-.668 0-1.26.328-1.623.832A1.99 1.99 0 0 0 11 19c0 1.105.895 2 2 2m8-8c0 1.105-.895 2-2 2s-2-.895-2-2 .895-2 2-2 2 .895 2 2m4 14c1.105 0 2-.895 2-2s-.895-2-2-2-2 .895-2 2 .895 2 2 2"/></svg>