<svg xmlns="http://www.w3.org/2000/svg" width="32" height="32" fill="none" viewBox="0 0 32 32"><path fill="#000" fill-rule="evenodd" d="M12 4C9.2386 4 7 6.2386 7 9s2.2386 5 5 5 5-2.2386 5-5-2.2386-5-5-5M9 9c0-1.6569 1.3431-3 3-3s3 1.3431 3 3-1.3431 3-3 3-3-1.3431-3-3m9 5c0-2.2091 1.7909-4 4-4s4 1.7909 4 4-1.7909 4-4 4-4-1.7909-4-4m4-2c-1.1046 0-2 .8954-2 2s.8954 2 2 2 2-.8954 2-2-.8954-2-2-2M2 22c0-3.3137 2.6863-6 6-6h8q.1737 0 .3449.0097c.1621.4562.3779.887.6397 1.2848A6.96 6.96 0 0 0 15.3924 18H8c-2.2091 0-4 1.7909-4 4v2c0 1.1046.8954 2 2 2h6.1a4.98 4.98 0 0 0 .8996 2H6c-2.2091 0-4-1.7909-4-4zm17-3c-2.7614 0-5 2.2386-5 5v1c0 1.6569 1.3431 3 3 3h10c1.6569 0 3-1.3431 3-3v-1c0-2.7614-2.2386-5-5-5zm-3 5c0-1.6569 1.3431-3 3-3h6c1.6569 0 3 1.3431 3 3v1c0 .5523-.4477 1-1 1H17c-.5523 0-1-.4477-1-1z"/></svg>