<svg xmlns="http://www.w3.org/2000/svg" width="32" height="32" fill="none" viewBox="0 0 32 32"><path fill="#000" fill-rule="evenodd" d="M16 2c-2.7614 0-5 2.2386-5 5v3h-1c-2.2091 0-4 1.7909-4 4v12c0 2.2091 1.7909 4 4 4h12c2.2091 0 4-1.7909 4-4V14c0-2.2091-1.7909-4-4-4h-1V7c0-2.7614-2.2386-5-5-5m3 8V7c0-1.6569-1.3431-3-3-3s-3 1.3431-3 3v3zm5 4c0-1.1046-.8954-2-2-2H10c-1.1046 0-2 .8954-2 2v12c0 1.1046.8954 2 2 2h12c1.1046 0 2-.8954 2-2zm-3.2929 4.2071c.3905-.3905.3905-1.0237 0-1.4142s-1.0237-.3905-1.4142 0L15 21.0858l-1.7929-1.7929c-.3905-.3905-1.0237-.3905-1.4142 0s-.3905 1.0237 0 1.4142l2.5 2.5c.3905.3905 1.0237.3905 1.4142 0z"/></svg>