<svg xmlns="http://www.w3.org/2000/svg" width="32" height="32" fill="none" viewBox="0 0 32 32"><path fill="#000" fill-rule="evenodd" d="M8 4C5.7909 4 4 5.7909 4 8v16c0 2.2091 1.7909 4 4 4h2.3328c2.2091 0 4-1.7909 4-4V8c0-2.2091-1.7909-4-4-4zm9.6672 4c0-2.2091 1.7909-4 4-4H24c2.2091 0 4 1.7909 4 4v16c0 2.2091-1.7909 4-4 4h-2.3328c-2.2091 0-4-1.7909-4-4zM6 8c0-1.1046.8954-2 2-2h2.3328c1.1045 0 2 .8954 2 2v16c0 1.1046-.8955 2-2 2H8c-1.1046 0-2-.8954-2-2zm15.6672-2c-1.1045 0-2 .8954-2 2v16c0 1.1046.8955 2 2 2H24c1.1046 0 2-.8954 2-2V8c0-1.1046-.8954-2-2-2z"/></svg>