<svg width="32" height="32" viewBox="0 0 32 32" fill="none" xmlns="http://www.w3.org/2000/svg">
<path fill-rule="evenodd" clip-rule="evenodd" d="M16 18.5C18.7614 18.5 21 16.2614 21 13.5C21 10.7386 18.7614 8.5 16 8.5C13.2386 8.5 11 10.7386 11 13.5C11 16.2614 13.2386 18.5 16 18.5ZM16 16.5C17.6569 16.5 19 15.1569 19 13.5C19 13.1544 18.9416 12.8224 18.834 12.5134L14.4157 16.048C14.8755 16.3345 15.4184 16.5 16 16.5ZM13.166 14.4866L17.5843 10.952C17.1245 10.6655 16.5816 10.5 16 10.5C14.3431 10.5 13 11.8431 13 13.5C13 13.8456 13.0584 14.1776 13.166 14.4866Z" fill="black"/>
<path fill-rule="evenodd" clip-rule="evenodd" d="M6 4C4.34315 4 3 5.34315 3 7V20C3 21.6569 4.34315 23 6 23H9.5H13V27H11C10.4477 27 10 27.4477 10 28C10 28.5523 10.4477 29 11 29H21C21.5523 29 22 28.5523 22 28C22 27.4477 21.5523 27 21 27H19V23H22.5H26C27.6569 23 29 21.6569 29 20V7C29 5.34315 27.6569 4 26 4H6ZM17 23V27H15V23H17ZM26 21C26.5523 21 27 20.5523 27 20V7C27 6.44771 26.5523 6 26 6H6C5.44772 6 5 6.44772 5 7V20C5 20.5523 5.44772 21 6 21H26Z" fill="black"/>
</svg>
