<svg xmlns="http://www.w3.org/2000/svg" width="32" height="32" fill="none" viewBox="0 0 32 32"><path fill="#000" fill-rule="evenodd" d="M3 7c0-1.6569 1.3431-3 3-3h20c1.6569 0 3 1.3431 3 3v13c0 1.6569-1.3431 3-3 3h-7v4h2c.5523 0 1 .4477 1 1s-.4477 1-1 1H11c-.5523 0-1-.4477-1-1s.4477-1 1-1h2v-4H6c-1.6569 0-3-1.3431-3-3zm24 13c0 .5523-.4477 1-1 1H6c-.5523 0-1-.4477-1-1V7c0-.5523.4477-1 1-1h20c.5523 0 1 .4477 1 1zm-11-1.5c2.7614 0 5-2.2386 5-5s-2.2386-5-5-5-5 2.2386-5 5 2.2386 5 5 5m-2.834-4.0134 4.4183-3.5346A2.986 2.986 0 0 0 16 10.5c-1.6569 0-3 1.3431-3 3 0 .3456.0584.6776.166.9866M16 16.5c1.6569 0 3-1.3431 3-3 0-.3456-.0584-.6776-.166-.9866l-4.4183 3.5346A2.986 2.986 0 0 0 16 16.5M17 27v-4h-2v4z"/></svg>