<svg xmlns="http://www.w3.org/2000/svg" width="32" height="32" fill="none" viewBox="0 0 32 32"><path fill="#000" fill-rule="evenodd" d="M4 4.9996a.998.998 0 0 1 .3547-.7636A.996.996 0 0 1 5 4h4.7792a2 2 0 0 1 1.8974 1.3675l1.5636 4.6907a2 2 0 0 1-.5687 2.1273l-3.5259 3.1341a22.21 22.21 0 0 0 7.7084 7.6385l2.23-3.341a2 2 0 0 1 2.271-.7951l4.8403 1.5431a2 2 0 0 1 1.3851 1.7334l.4147 4.8013q.0034.0338.0045.0681a1 1 0 0 1-.0489.343c-.1347.4128-.5293.7033-.9828.6886q-.0118-.0004-.0235-.001C14.5291 27.4032 4.5979 17.4726 4.0016 5.0577A1 1 0 0 1 4 4.9996m21.9028 20.9176-.315-3.6466-4.8403-1.5431-2.1183 3.1735c2.242 1.0627 4.692 1.7603 7.2736 2.0162M8.1673 13.5134C7.0526 11.2048 6.3265 8.6722 6.0733 6h3.706l1.5635 4.6907z"/></svg>