<svg xmlns="http://www.w3.org/2000/svg" width="32" height="32" fill="none" viewBox="0 0 32 32"><path fill="#000" fill-rule="evenodd" d="M7 6c0-1.6569 1.3431-3 3-3h14c1.6569 0 3 1.3431 3 3v20c0 1.6569-1.3431 3-3 3H10c-1.6569 0-3-1.3431-3-3H6c-.5523 0-1-.4477-1-1s.4477-1 1-1h1v-4H6c-.5523 0-1-.4477-1-1s.4477-1 1-1h1v-4H6c-.5523 0-1-.4477-1-1s.4477-1 1-1h1V8H6c-.5523 0-1-.4477-1-1s.4477-1 1-1zm3 21c-.5523 0-1-.4477-1-1V6c0-.5523.4477-1 1-1h14c.5523 0 1 .4477 1 1v20c0 .5523-.4477 1-1 1zm7-18c-1.6569 0-3 1.3431-3 3s1.3431 3 3 3 3-1.3431 3-3-1.3431-3-3-3m-1 3c0-.5523.4477-1 1-1s1 .4477 1 1-.4477 1-1 1-1-.4477-1-1m-1 4c-2.2091 0-4 1.7909-4 4v2c0 .5523.4477 1 1 1h10c.5523 0 1-.4477 1-1v-2c0-2.2091-1.7909-4-4-4zm-2 4c0-1.1046.8954-2 2-2h4c1.1046 0 2 .8954 2 2v1h-8z"/></svg>