<svg xmlns="http://www.w3.org/2000/svg" width="32" height="32" fill="none" viewBox="0 0 32 32"><path fill="#000" fill-rule="evenodd" d="M8 4C5.7909 4 4 5.7909 4 8v2c0 .5523.4477 1 1 1s1-.4477 1-1V8c0-1.1046.8954-2 2-2h2c.5523 0 1-.4477 1-1s-.4477-1-1-1zm7 0c-.5523 0-1 .4477-1 1s.4477 1 1 1h2c.5523 0 1-.4477 1-1s-.4477-1-1-1zm7 0c-.5523 0-1 .4477-1 1s.4477 1 1 1h2c1.1046 0 2 .8954 2 2v2c0 .5523.4477 1 1 1s1-.4477 1-1V8c0-2.2091-1.7909-4-4-4zM6 15c0-.5523-.4477-1-1-1s-1 .4477-1 1v2c0 .5523.4477 1 1 1s1-.4477 1-1zm22 0c0-.5523-.4477-1-1-1s-1 .4477-1 1v2c0 .5523.4477 1 1 1s1-.4477 1-1zM6 22c0-.5523-.4477-1-1-1s-1 .4477-1 1v2c0 2.2091 1.7909 4 4 4h2c.5523 0 1-.4477 1-1s-.4477-1-1-1H8c-1.1046 0-2-.8954-2-2zm22 0c0-.5523-.4477-1-1-1s-1 .4477-1 1v2c0 1.1046-.8954 2-2 2h-2c-.5523 0-1 .4477-1 1s.4477 1 1 1h2c2.2091 0 4-1.7909 4-4zm-13 4c-.5523 0-1 .4477-1 1s.4477 1 1 1h2c.5523 0 1-.4477 1-1s-.4477-1-1-1z"/></svg>