<svg xmlns="http://www.w3.org/2000/svg" width="32" height="32" fill="none" viewBox="0 0 32 32"><path fill="#000" fill-rule="evenodd" d="M16 2C9.9489 2 5 6.7892 5 12.75c0 4.6766 2.5332 8.9629 5.0168 12.0072 1.2539 1.5369 2.5259 2.795 3.5264 3.6738.4996.4388.9396.7902 1.2832 1.0377.17.1224.3296.229.4691.3097.0685.0396.1489.0827.2337.119l.0027.0012c.0521.0223.2367.1014.4681.1014s.416-.0791.4681-.1014l.0027-.0012a2.2 2.2 0 0 0 .2337-.119c.1395-.0807.2991-.1873.4691-.3097.3436-.2475.7836-.5989 1.2832-1.0377 1.0005-.8788 2.2725-2.1369 3.5264-3.6738C24.4668 21.7129 27 17.4266 27 12.75 27 6.7892 22.0511 2 16 2M7 12.75C7 7.9412 11.0054 4 16 4s9 3.9412 9 8.75c0 3.99-2.1891 7.8288-4.5665 10.7428-1.1767 1.4423-2.3699 2.6216-3.2966 3.4356-.4639.4075-.8529.7163-1.1321.9174L16 27.8492l-.0048-.0034c-.2792-.2011-.6682-.5099-1.1321-.9174-.9267-.814-2.1199-1.9933-3.2966-3.4356C9.1891 20.5788 7 16.74 7 12.75M16 7c.5523 0 1 .4477 1 1v3c0 .5523-.4477 1-1 1s-1-.4477-1-1V8c0-.5523.4477-1 1-1m-2 7c.5523 0 1-.4477 1-1s-.4477-1-1-1h-3c-.5523 0-1 .4477-1 1s.4477 1 1 1zm7 0c.5523 0 1-.4477 1-1s-.4477-1-1-1h-3c-.5523 0-1 .4477-1 1s.4477 1 1 1zm-4 1c0-.5523-.4477-1-1-1s-1 .4477-1 1v3c0 .5523.4477 1 1 1s1-.4477 1-1z"/></svg>