<svg xmlns="http://www.w3.org/2000/svg" width="32" height="32" fill="none" viewBox="0 0 32 32"><path fill="#000" fill-rule="evenodd" d="M16 4c-2.7614 0-5 2.2386-5 5s2.2386 5 5 5 5-2.2386 5-5-2.2386-5-5-5m-3 5c0-1.6569 1.3431-3 3-3s3 1.3431 3 3-1.3431 3-3 3-3-1.3431-3-3m-1 9c-2.2091 0-4 1.7909-4 4v2c0 1.1046.8954 2 2 2h6v1c0 .3425.0344.6769.1 1H10c-2.2091 0-4-1.7909-4-4v-2c0-3.3137 2.6863-6 6-6h7.9996a4.98 4.98 0 0 0-.8996 2zm9 1v1c-1.6569 0-3 1.3431-3 3v4c0 1.6569 1.3431 3 3 3h6c1.6569 0 3-1.3431 3-3v-4c0-1.6569-1.3431-3-3-3v-1c0-1.6569-1.3431-3-3-3s-3 1.3431-3 3m3-1c-.5523 0-1 .4477-1 1v1h2v-1c0-.5523-.4477-1-1-1m-4 5c0-.5523.4477-1 1-1h6c.5523 0 1 .4477 1 1v4c0 .5523-.4477 1-1 1h-6c-.5523 0-1-.4477-1-1zm4 3c.5523 0 1-.4477 1-1s-.4477-1-1-1-1 .4477-1 1 .4477 1 1 1"/></svg>