<svg xmlns="http://www.w3.org/2000/svg" width="32" height="32" fill="none" viewBox="0 0 32 32"><path fill="#000" fill-rule="evenodd" d="M5 4c-.5523 0-1 .4477-1 1v2c0 .5523-.4477 1-1 1s-1-.4477-1-1V5c0-1.6568 1.3432-3 3-3h2c.5523 0 1 .4477 1 1s-.4477 1-1 1zm19-1c0-.5523.4477-1 1-1h2c1.6569 0 3 1.3432 3 3v2c0 .5523-.4477 1-1 1s-1-.4477-1-1V5c0-.5523-.4477-1-1-1h-2c-.5523 0-1-.4477-1-1M6 9c0-1.6569 1.3431-3 3-3h3c1.6569 0 3 1.3431 3 3v3c0 1.6569-1.3431 3-3 3H9c-1.6569 0-3-1.3431-3-3zm11 0c0-1.6569 1.3431-3 3-3h3c1.6569 0 3 1.3431 3 3v3c0 1.6569-1.3431 3-3 3h-3c-1.6569 0-3-1.3431-3-3zM9 8c-.5523 0-1 .4477-1 1v3c0 .5523.4477 1 1 1h3c.5523 0 1-.4477 1-1V9c0-.5523-.4477-1-1-1zm11 0c-.5523 0-1 .4477-1 1v3c0 .5523.4477 1 1 1h3c.5523 0 1-.4477 1-1V9c0-.5523-.4477-1-1-1zM9 9.5a.5.5 0 0 1 .5-.5h2a.5.5 0 0 1 .5.5v2a.5.5 0 0 1-.5.5h-2a.5.5 0 0 1-.5-.5zM6 20c0-1.6569 1.3431-3 3-3h3c1.6569 0 3 1.3431 3 3v3c0 1.6569-1.3431 3-3 3H9c-1.6569 0-3-1.3431-3-3zm11-2.5a.5.5 0 0 1 .5-.5h2a.5.5 0 0 1 .5.5v2a.5.5 0 0 1-.5.5h-2a.5.5 0 0 1-.5-.5zm6.5-.5h2a.5.5 0 0 1 .5.5v2a.5.5 0 0 1-.5.5h-2a.5.5 0 0 1-.5-.5v-2a.5.5 0 0 1 .5-.5M9 19c-.5523 0-1 .4477-1 1v3c0 .5523.4477 1 1 1h3c.5523 0 1-.4477 1-1v-3c0-.5523-.4477-1-1-1zm11.5 1h2a.5.5 0 0 1 .5.5v2a.5.5 0 0 1-.5.5h-2a.5.5 0 0 1-.5-.5v-2a.5.5 0 0 1 .5-.5M17 23.5a.5.5 0 0 1 .5-.5h2a.5.5 0 0 1 .5.5v2a.5.5 0 0 1-.5.5h-2a.5.5 0 0 1-.5-.5zm6.5-.5h2a.5.5 0 0 1 .5.5v2a.5.5 0 0 1-.5.5h-2a.5.5 0 0 1-.5-.5v-2a.5.5 0 0 1 .5-.5M3 24c.5523 0 1 .4477 1 1v2c0 .5523.4477 1 1 1h2c.5523 0 1 .4477 1 1s-.4477 1-1 1H5c-1.6568 0-3-1.3431-3-3v-2c0-.5523.4477-1 1-1m26 0c.5523 0 1 .4477 1 1v2c0 1.6569-1.3431 3-3 3h-2c-.5523 0-1-.4477-1-1s.4477-1 1-1h2c.5523 0 1-.4477 1-1v-2c0-.5523.4477-1 1-1"/></svg>