<svg xmlns="http://www.w3.org/2000/svg" width="32" height="32" fill="none" viewBox="0 0 32 32"><path fill="#000" d="M4 16C4 9.3726 9.3726 4 16 4c2.9541 0 5.6576 1.0664 7.7489 2.837l-2.1313 2.131C20.0784 7.7371 18.1246 7 16 7c-4.9706 0-9 4.0294-9 9s4.0294 9 9 9c4.4373 0 8.1228-3.2103 8.8642-7.4349.0955-.5439-.2681-1.0623-.8121-1.1578s-1.0623.2682-1.1578.8121C22.3179 20.504 19.4494 23 16 23c-3.866 0-7-3.134-7-7s3.134-7 7-7c1.5728 0 3.0233.5178 4.1922 1.3935l-2.8988 2.8989A2.99 2.99 0 0 0 16 13c-1.6569 0-3 1.3431-3 3s1.3431 3 3 3 3-1.3431 3-3c0-.4631-.105-.9018-.2924-1.2934l6.9995-6.9995a.996.996 0 0 0 .2629-.4632c.2332-.3873.1802-.8977-.1563-1.2285C23.2883 3.533 19.8222 2 16 2 8.268 2 2 8.268 2 16s6.268 14 14 14c6.9403 0 12.6994-5.0492 13.8076-11.6746.0911-.5447-.2766-1.0602-.8213-1.1513s-1.0602.2766-1.1513.8213C26.8854 23.6729 21.947 28 16 28 9.3726 28 4 22.6274 4 16"/></svg>