<svg xmlns="http://www.w3.org/2000/svg" width="32" height="32" fill="none" viewBox="0 0 32 32"><path fill="#000" fill-rule="evenodd" d="M14 5h1V3c0-.5523.4477-1 1-1s1 .4477 1 1v2h1V3c0-.5523.4477-1 1-1s1 .4477 1 1v2h1V3c0-.5523.4477-1 1-1s1 .4477 1 1v2h1c1.6569 0 3 1.3431 3 3v1h2c.5523 0 1 .4477 1 1s-.4477 1-1 1h-2v1h2c.5523 0 1 .4477 1 1s-.4477 1-1 1h-2v1h2c.5523 0 1 .4477 1 1s-.4477 1-1 1h-2v1h2c.5523 0 1 .4477 1 1s-.4477 1-1 1h-2v1h2c.5523 0 1 .4477 1 1s-.4477 1-1 1h-2v1c0 1.6569-1.3431 3-3 3h-1v2c0 .5523-.4477 1-1 1s-1-.4477-1-1v-2h-1v2c0 .5523-.4477 1-1 1s-1-.4477-1-1v-2h-1v2c0 .5523-.4477 1-1 1s-1-.4477-1-1v-2h-1v2c0 .5523-.4477 1-1 1s-1-.4477-1-1v-2h-1v2c0 .5523-.4477 1-1 1s-1-.4477-1-1v-2H8c-1.6569 0-3-1.3431-3-3v-1H3c-.5523 0-1-.4477-1-1s.4477-1 1-1h2v-1H3c-.5523 0-1-.4477-1-1s.4477-1 1-1h2v-1H3c-.5523 0-1-.4477-1-1s.4477-1 1-1h2v-1H3c-.5523 0-1-.4477-1-1s.4477-1 1-1h2v-1H3c-.5523 0-1-.4477-1-1s.4477-1 1-1h2V8c0-1.6569 1.3431-3 3-3h1V3c0-.5523.4477-1 1-1s1 .4477 1 1v2h1V3c0-.5523.4477-1 1-1s1 .4477 1 1zM8 7c-.5523 0-1 .4477-1 1v16c0 .5523.4477 1 1 1h16c.5523 0 1-.4477 1-1V8c0-.5523-.4477-1-1-1zm6 5c-1.1046 0-2 .8954-2 2v4c0 1.1046.8954 2 2 2h4c1.1046 0 2-.8954 2-2v-4c0-1.1046-.8954-2-2-2zm0 6v-4h4v4z"/></svg>