<svg xmlns="http://www.w3.org/2000/svg" width="32" height="32" fill="none" viewBox="0 0 32 32"><path fill="#000" fill-rule="evenodd" d="M9 1.9954c-2.2091 0-4 1.7908-4 4v20c0 2.2091 1.7909 4 4 4h14c2.2091 0 4-1.7909 4-4V12.0833a2 2 0 0 0-.5729-1.4013l-7.9416-8.0879a2 2 0 0 0-1.427-.5987zm-2 4c0-1.1046.8954-2 2-2h7v5c0 2.2091 1.7909 4 4 4h5v13c0 1.1045-.8954 2-2 2H9c-1.1046 0-2-.8955-2-2zm16.9318 5L18 4.9542v4.0412c0 1.1045.8954 2 2 2zm-12.9318 2c.5523 0 1 .4477 1 1v10c0 .5522-.4477 1-1 1s-1-.4478-1-1v-10c0-.5523.4477-1 1-1m11 5c0-.5523-.4477-1-1-1s-1 .4477-1 1v6c0 .5522.4477 1 1 1s1-.4478 1-1zm-5 2.2988c0-.5523-.4477-1-1-1s-1 .4477-1 1v3.7011c0 .5523.4477 1 1 1s1-.4477 1-1z"/></svg>