<svg xmlns="http://www.w3.org/2000/svg" width="32" height="32" fill="none" viewBox="0 0 32 32"><path fill="#000" fill-rule="evenodd" d="M6 4C4.3431 4 3 5.3431 3 7v13c0 1.6569 1.3431 3 3 3h7v4h-2c-.5523 0-1 .4477-1 1s.4477 1 1 1h10c.5523 0 1-.4477 1-1s-.4477-1-1-1h-2v-4h7c1.6569 0 3-1.3431 3-3V7c0-1.6569-1.3431-3-3-3zM5 7c0-.5523.4477-1 1-1h20c.5523 0 1 .4477 1 1v13c0 .5523-.4477 1-1 1H6c-.5523 0-1-.4477-1-1zm7 2c.5523 0 1 .4477 1 1v7c0 .5523-.4477 1-1 1s-1-.4477-1-1v-7c0-.5523.4477-1 1-1m8 3c.5523 0 1 .4477 1 1v4c0 .5523-.4477 1-1 1s-1-.4477-1-1v-4c0-.5523.4477-1 1-1m-3 3c0-.5523-.4477-1-1-1s-1 .4477-1 1v2c0 .5523.4477 1 1 1s1-.4477 1-1zm0 8h-2v4h2z"/></svg>