<svg xmlns="http://www.w3.org/2000/svg" width="32" height="32" fill="none" viewBox="0 0 32 32"><path fill="#000" d="M12 13.995c0-.552-.448-1-1-1s-1 .448-1 1v10c0 .552.448 1 1 1s1-.448 1-1zm9 3c.552 0 1 .448 1 1v6c0 .552-.448 1-1 1s-1-.448-1-1v-6c0-.552.448-1 1-1m-4 3.299c0-.552-.448-1-1-1s-1 .448-1 1v3.701c0 .552.448 1 1 1s1-.448 1-1z"/><path fill="#000" fill-rule="evenodd" d="M5 5.9954c0-2.2092 1.7909-4 4-4h8.0585c.5367 0 1.051.2157 1.427.5987l7.9416 8.0879c.3672.374.5729.8772.5729 1.4013v13.9121c0 2.2091-1.7909 4-4 4H9c-2.2091 0-4-1.7909-4-4zm4-2c-1.1046 0-2 .8954-2 2v20c0 1.1045.8954 2 2 2h14c1.1046 0 2-.8955 2-2v-13h-5c-2.2091 0-4-1.7909-4-4v-5zm9 .9588 5.9318 6.0412H20c-1.1046 0-2-.8955-2-2z" clip-rule="evenodd"/></svg>