<svg xmlns="http://www.w3.org/2000/svg" width="32" height="32" fill="none" viewBox="0 0 32 32"><path fill="#000" fill-rule="evenodd" d="M5 5.9954c0-2.2092 1.7909-4 4-4h8.0585c.5367 0 1.051.2157 1.427.5987l7.9416 8.0879c.3672.374.5729.8772.5729 1.4013v13.9121c0 2.2091-1.7909 4-4 4h-5.3104c.7019-.4457 1.2159-1.1609 1.3963-2H23c1.1046 0 2-.8955 2-2v-13h-5c-2.2091 0-4-1.7909-4-4v-5H9c-1.1046 0-2 .8954-2 2v20c0 1.1045.8954 2 2 2h3.9141c.1804.8391.6944 1.5543 1.3963 2H9c-2.2091 0-4-1.7909-4-4zm13-1.0412 5.9318 6.0412H20c-1.1046 0-2-.8955-2-2z" clip-rule="evenodd"/><path fill="#000" d="M17.157 27.329c0 .639-.518 1.156-1.156 1.156s-1.156-.518-1.156-1.156.518-1.156 1.157-1.156 1.157.518 1.157 1.157m-2.826-7.668c0-.909.758-1.667 1.69-1.667.906 0 1.644.737 1.644 1.621v.214a1.347 1.347 0 0 1-1.02 1.307A2.174 2.174 0 0 0 15 23.245v.751c0 .552.448 1 1 1s1-.448 1-1v-.75c0-.08.054-.149.131-.168 1.49-.372 2.535-1.711 2.535-3.247v-.214c0-2.011-1.655-3.62-3.643-3.62-2.014 0-3.69 1.63-3.69 3.667 0 .552.448 1 1 1s1-.448 1-1"/></svg>