<svg xmlns="http://www.w3.org/2000/svg" width="32" height="32" fill="none" viewBox="0 0 32 32"><path fill="#000" fill-rule="evenodd" d="M4 3c-.5523 0-1 .4477-1 1v5c0 .5523.4477 1 1 1s1-.4477 1-1V6.4142l7.2929 7.2929c.3905.3905 1.0237.3905 1.4142 0s.3905-1.0237 0-1.4142L6.4142 5H9c.5523 0 1-.4477 1-1s-.4477-1-1-1zm25 1c0-.5523-.4477-1-1-1h-5c-.5523 0-1 .4477-1 1s.4477 1 1 1h2.5858l-7.2929 7.2929c-.3905.3905-.3905 1.0237 0 1.4142s1.0237.3905 1.4142 0L27 6.4142V9c0 .5523.4477 1 1 1s1-.4477 1-1zM3 28c0 .5523.4477 1 1 1h5c.5523 0 1-.4477 1-1s-.4477-1-1-1H6.4142l7.2929-7.2929c.3905-.3905.3905-1.0237 0-1.4142s-1.0237-.3905-1.4142 0L5 25.5858V23c0-.5523-.4477-1-1-1s-1 .4477-1 1zm26 0c0 .5523-.4477 1-1 1h-5c-.5523 0-1-.4477-1-1s.4477-1 1-1h2.5858l-7.2929-7.2929c-.3905-.3905-.3905-1.0237 0-1.4142s1.0237-.3905 1.4142 0L27 25.5858V23c0-.5523.4477-1 1-1s1 .4477 1 1z"/></svg>