<svg width="32" height="32" viewBox="0 0 32 32" fill="none" xmlns="http://www.w3.org/2000/svg">
<path d="M4 3C3.44772 3 3 3.44772 3 4V9C3 9.55228 3.44772 10 4 10C4.55228 10 5 9.55228 5 9V6.41421L12.2929 13.7071C12.6834 14.0976 13.3166 14.0976 13.7071 13.7071C14.0976 13.3166 14.0976 12.6834 13.7071 12.2929L6.41421 5H9C9.55228 5 10 4.55228 10 4C10 3.44772 9.55228 3 9 3H4Z" fill="black"/>
<path d="M4 29C3.44772 29 3 28.5523 3 28V23C3 22.4477 3.44772 22 4 22C4.55228 22 5 22.4477 5 23V25.5858L12.2929 18.2929C12.6834 17.9024 13.3166 17.9024 13.7071 18.2929C14.0976 18.6834 14.0976 19.3166 13.7071 19.7071L6.41421 27H9C9.55228 27 10 27.4477 10 28C10 28.5523 9.55228 29 9 29H4Z" fill="black"/>
<path d="M29 4C29 3.44772 28.5523 3 28 3H23C22.4477 3 22 3.44772 22 4C22 4.55228 22.4477 5 23 5H25.5858L18.2929 12.2929C17.9024 12.6834 17.9024 13.3166 18.2929 13.7071C18.6834 14.0976 19.3166 14.0976 19.7071 13.7071L27 6.41421V9C27 9.55228 27.4477 10 28 10C28.5523 10 29 9.55228 29 9V4Z" fill="black"/>
<path d="M28 29C28.5523 29 29 28.5523 29 28V23C29 22.4477 28.5523 22 28 22C27.4477 22 27 22.4477 27 23V25.5858L19.7071 18.2929C19.3166 17.9024 18.6834 17.9024 18.2929 18.2929C17.9024 18.6834 17.9024 19.3166 18.2929 19.7071L25.5858 27H23C22.4477 27 22 27.4477 22 28C22 28.5523 22.4477 29 23 29H28Z" fill="black"/>
</svg>
