<svg xmlns="http://www.w3.org/2000/svg" width="32" height="32" fill="none" viewBox="0 0 32 32"><path fill="#000" fill-rule="evenodd" d="M8.236 27.8778q.45 0 .9-.2599l3.3152-1.914q-.3489-.9827-.4281-2.0622l-3.587 2.071V6.2874L25.2588 16l-.7082.4089q.5806.4088 1.106.9343a8.8 8.8 0 0 1 .4454.4794l.4567-.2637q.45-.2598.675-.6495t.225-.9094-.225-.9093-.675-.6495L9.136 4.3822q-.45-.26-.9-.2599t-.9.2598-.675.6495-.225.9094v20.118q0 .5196.225.9093v.0001q.225.3896.675.6494.45.26.9.2599m14.0671-10.4384q1.0606.4393 1.9393 1.318t1.318 1.9393q.4394 1.0607.4394 2.3033t-.4394 2.3033q-.4392 1.0607-1.318 1.9394t-1.9393 1.318Q21.2425 29 19.9999 29t-2.3033-.4393-1.9394-1.318-1.318-1.9394T13.9999 23t.4393-2.3033 1.318-1.9393 1.9394-1.318T19.9999 17t2.3032.4394M19.9999 19q-.8284 0-1.5356.2929-.707.293-1.2928.8787t-.8787 1.2929q-.293.707-.2929 1.5355t.2929 1.5356.8787 1.2929q.5857.5858 1.2929.8786.707.293 1.5355.2929.8284 0 1.5355-.2929t1.2929-.8786q.5858-.5859.8787-1.2929T23.9999 23q0-.8284-.2929-1.5355t-.8787-1.2929-1.2929-.8787T19.9999 19m.8151 1.5798 1.8899 1.8899q.2197.2197.2197.5303 0 .1554-.0549.288t-.1648.2424l-1.8899 1.8899c-.297.297-.7637.297-1.0607 0s-.2969-.7637 0-1.0607l.5737-.5737h-2.6125c-.42 0-.75-.33-.75-.75s.33-.75.75-.75h2.6843l-.6455-.6454c-.2969-.297-.2969-.7637 0-1.0607s.7637-.297 1.0607 0"/></svg>