<svg width="32" height="32" viewBox="0 0 32 32" fill="none" xmlns="http://www.w3.org/2000/svg">
<path fill-rule="evenodd" clip-rule="evenodd" d="M5.97908 17C5.99357 17.0003 6.00802 17.0003 6.02243 17H25.9776C25.992 17.0003 26.0064 17.0003 26.0209 17H28C28.5523 17 29 16.5523 29 16C29 15.4477 28.5523 15 28 15H26.7808L24.5382 6.02986C24.0931 4.24919 22.4931 3 20.6577 3H11.3423C9.50686 3 7.90693 4.24919 7.46176 6.02986L5.21922 15H4C3.44772 15 3 15.4477 3 16C3 16.5523 3.44772 17 4 17H5.97908ZM9.40204 6.51493C9.62463 5.62459 10.4246 5 11.3423 5H20.6577C21.5754 5 22.3754 5.62459 22.598 6.51493L24.7192 15H7.28078L9.40204 6.51493Z" fill="black"/>
<path fill-rule="evenodd" clip-rule="evenodd" d="M3 20C3 19.4477 3.44772 19 4 19H28C28.5523 19 29 19.4477 29 20C29 20.5523 28.5523 21 28 21H27.4C27.7834 21.75 28 22.5998 28 23.5C28 26.5376 25.5376 29 22.5 29C19.4624 29 17 26.5376 17 23.5C17 22.5998 17.2166 21.75 17.6 21H14.4C14.7834 21.75 15 22.5998 15 23.5C15 26.5376 12.5376 29 9.5 29C6.46243 29 4 26.5376 4 23.5C4 22.5998 4.21659 21.75 4.59996 21H4C3.44772 21 3 20.5523 3 20ZM20.0505 21H24.9495C25.599 21.6363 26 22.521 26 23.5C26 25.433 24.433 27 22.5 27C20.567 27 19 25.433 19 23.5C19 22.521 19.401 21.6363 20.0505 21ZM7.05047 21C6.40102 21.6363 6 22.521 6 23.5C6 25.433 7.567 27 9.5 27C11.433 27 13 25.433 13 23.5C13 22.521 12.599 21.6363 11.9495 21H7.05047Z" fill="black"/>
</svg>
