<svg width="32" height="32" viewBox="0 0 32 32" fill="none" xmlns="http://www.w3.org/2000/svg">
<path fill-rule="evenodd" clip-rule="evenodd" d="M14 4C8.47715 4 4 8.47715 4 14C4 19.5228 8.47715 24 14 24C16.4013 24 18.6049 23.1536 20.3287 21.7429L26.2929 27.7071C26.6834 28.0976 27.3166 28.0976 27.7071 27.7071C28.0976 27.3166 28.0976 26.6834 27.7071 26.2929L21.7429 20.3287C23.1536 18.6049 24 16.4013 24 14C24 8.47715 19.5228 4 14 4ZM6 14C6 9.58172 9.58172 6 14 6C18.4183 6 22 9.58172 22 14C22 18.4183 18.4183 22 14 22C9.58172 22 6 18.4183 6 14Z" fill="black"/>
</svg>
