<svg width="32" height="32" viewBox="0 0 32 32" fill="none" xmlns="http://www.w3.org/2000/svg">
<path d="M14 4C8.47715 4 4 8.47715 4 14C4 14.8473 4.10537 15.67 4.30373 16.4556L6.03252 14.7263C6.011 14.4871 6 14.2448 6 14C6 9.58172 9.58172 6 14 6C15.8909 6 17.6286 6.65602 18.9978 7.75288L20.4217 6.33406C18.6844 4.87722 16.4446 4 14 4Z" fill="black"/>
<path d="M14 24C11.5549 24 9.31483 23.1225 7.57744 21.6652L8.99848 20.2442C10.3683 21.3428 12.1074 22 14 22C18.4183 22 22 18.4183 22 14C22 13.7556 21.989 13.5138 21.9676 13.275L23.6967 11.546C23.8948 12.3312 24 13.1533 24 14C24 16.4013 23.1536 18.6049 21.7429 20.3287L27.7071 26.2929C28.0976 26.6834 28.0976 27.3166 27.7071 27.7071C27.3166 28.0976 26.6834 28.0976 26.2929 27.7071L20.3287 21.7429C18.6049 23.1536 16.4013 24 14 24Z" fill="black"/>
<path d="M23.7071 8.70711C24.0976 8.31658 24.0976 7.68342 23.7071 7.29289C23.3166 6.90237 22.6834 6.90237 22.2929 7.29289L15.5 14.0858L13.2071 11.7929C12.8166 11.4024 12.1834 11.4024 11.7929 11.7929L4.29289 19.2929C3.90237 19.6834 3.90237 20.3166 4.29289 20.7071C4.68342 21.0976 5.31658 21.0976 5.70711 20.7071L12.5 13.9142L14.7929 16.2071C15.1834 16.5976 15.8166 16.5976 16.2071 16.2071L23.7071 8.70711Z" fill="black"/>
</svg>
