<svg xmlns="http://www.w3.org/2000/svg" width="32" height="32" fill="none" viewBox="0 0 32 32"><path fill="#000" fill-rule="evenodd" d="M15.0649 2.24a2 2 0 0 1 1.8702 0l9.5324 5.0419a1 1 0 0 1 .5325.884v5.8203c0 1.9905-.1154 4.1295-.8521 6.1491-1.4669 4.0219-3.9177 6.4802-6.0129 7.9295-1.0446.7227-1.9997 1.194-2.7001 1.4866a11.2 11.2 0 0 1-.8434.3152 7 7 0 0 1-.2432.0747l-.0287.0081-.0419.0115-.0217.0058-.0074.0019-.0028.0007-.0012.0003S16.2436 29.9698 16 29c-.2153.9765-.2164.9763-.2164.9763l-.0012-.0003-.0029-.0007-.0077-.0017-.0223-.0052a4 4 0 0 1-.0721-.0179 7 7 0 0 1-.2475-.069 10.6 10.6 0 0 1-.8557-.2975c-.71-.2793-1.677-.7362-2.7329-1.4533-2.12-1.4397-4.5839-3.9204-6.0368-8.0685C5.1115 18.0839 5 16.0008 5 14.0556V8.1659a1 1 0 0 1 .5324-.884zM16 29l.2436.9698a1 1 0 0 1-.4589.0067zm-.0139-1.0397a9.2 9.2 0 0 0 .678-.2544c.5937-.248 1.4217-.6554 2.3331-1.2859 1.817-1.2569 3.9705-3.4023 5.2718-6.9701.6111-1.6752.731-3.5213.731-5.4637v-5.218l-9-4.7603-9 4.7603v5.2874c0 1.8958.1153 3.6987.692 5.3455 1.291 3.6856 3.453 5.8391 5.2729 7.0751.9141.6207 1.7455 1.0122 2.3415 1.2466.289.1137.5215.1901.6797.2375M16 10.3c-1.2508 0-2.2102.5563-2.8666 1.326-.4474.5246-.7519 1.142-.9409 1.7524C10.5595 13.6935 9 14.9446 9 16.9c0 2.0882 1.6771 3.8 3.7692 3.8h6.4615C21.3228 20.7 23 18.9882 23 16.9c0-1.9554-1.5595-3.2065-3.1925-3.5216-.189-.6104-.4935-1.2278-.9409-1.7524C18.2101 10.8563 17.2508 10.3 16 10.3m-2.0133 4.1626c.0933-.5664.3231-1.1339.6684-1.5387.3243-.3803.7495-.6239 1.3449-.6239s1.0206.2436 1.3449.6239c.3453.4048.5751.9723.6684 1.5387A1 1 0 0 0 19 15.3c1.1752 0 2 .785 2 1.6 0 1.0045-.8025 1.8-1.7693 1.8h-6.4615C11.8025 18.7 11 17.9045 11 16.9c0-.815.8247-1.6 2-1.6a1 1 0 0 0 .9867-.8374"/></svg>