<svg width="32" height="32" viewBox="0 0 32 32" fill="none" xmlns="http://www.w3.org/2000/svg">
<path fill-rule="evenodd" clip-rule="evenodd" d="M16 10.3001C14.7492 10.3001 13.7898 10.8564 13.1334 11.6262C12.686 12.1507 12.3815 12.7682 12.1925 13.3786C10.5595 13.6937 9 14.9447 9 16.9001C9 18.9883 10.6771 20.7001 12.7692 20.7001H19.2307C21.3228 20.7001 23 18.9883 23 16.9001C23 14.9447 21.4405 13.6937 19.8075 13.3786C19.6185 12.7682 19.314 12.1507 18.8666 11.6262C18.2101 10.8564 17.2508 10.3001 16 10.3001ZM13.9867 14.4627C14.08 13.8963 14.3098 13.3288 14.6551 12.924C14.9794 12.5437 15.4046 12.3001 16 12.3001C16.5954 12.3001 17.0206 12.5437 17.3449 12.924C17.6902 13.3288 17.92 13.8963 18.0133 14.4627C18.0929 14.9457 18.5105 15.3001 19 15.3001C20.1752 15.3001 21 16.0852 21 16.9001C21 17.9046 20.1975 18.7001 19.2307 18.7001H12.7692C11.8025 18.7001 11 17.9046 11 16.9001C11 16.0852 11.8247 15.3001 13 15.3001C13.4895 15.3001 13.9071 14.9457 13.9867 14.4627Z" fill="black"/>
<path fill-rule="evenodd" clip-rule="evenodd" d="M16.9351 2.24012C16.3501 1.9307 15.6499 1.9307 15.0649 2.24012L5.53245 7.28201C5.2049 7.45526 5 7.79543 5 8.16598V14.0557C5 16.001 5.11158 18.084 5.80452 20.0623C7.25742 24.2104 9.72131 26.6911 11.8413 28.1308C12.8972 28.8479 13.8642 29.3048 14.5742 29.5841C14.9295 29.7239 15.2216 29.8197 15.4299 29.8816C15.5341 29.9126 15.6174 29.9352 15.6774 29.9506C15.7074 29.9583 15.7315 29.9642 15.7495 29.9685L15.7718 29.9737L15.7795 29.9755L15.7824 29.9761L15.7836 29.9764C15.7836 29.9764 15.7847 29.9766 16 29.0001L15.7847 29.9766C15.9361 30.01 16.0932 30.0077 16.2436 29.97L16 29.0001C16.2436 29.97 16.2446 29.9697 16.2446 29.9697L16.2458 29.9694L16.2486 29.9687L16.256 29.9668L16.2777 29.961C16.2891 29.958 16.3031 29.9542 16.3196 29.9495C16.3285 29.9471 16.338 29.9444 16.3483 29.9414C16.4071 29.9246 16.489 29.9 16.5915 29.8667C16.7965 29.8 17.0844 29.6979 17.4349 29.5515C18.1353 29.2589 19.0904 28.7876 20.135 28.0649C22.2302 26.6156 24.681 24.1573 26.1479 20.1354C26.8846 18.1158 27 15.9768 27 13.9863V8.16598C27 7.79543 26.7951 7.45526 26.4675 7.28201L16.9351 2.24012ZM16.6641 27.706C16.3759 27.8264 16.144 27.9087 15.9861 27.9605C15.8279 27.913 15.5954 27.8366 15.3064 27.723C14.7104 27.4885 13.879 27.0971 12.9649 26.4763C11.145 25.2403 8.98302 23.0869 7.69209 19.4012C7.11527 17.7544 7 15.9515 7 14.0557V8.76833L16 4.00806L25 8.76833V13.9863C25 15.9288 24.8801 17.7748 24.269 19.4501C22.9677 23.0178 20.8142 25.1632 18.9972 26.4201C18.0858 27.0506 17.2578 27.458 16.6641 27.706Z" fill="black"/>
</svg>
