<svg xmlns="http://www.w3.org/2000/svg" width="32" height="32" fill="none" viewBox="0 0 32 32"><path fill="#000" fill-rule="evenodd" d="M6.5998 6.63c.3873.3914.385 1.022-.0042 1.4107l-.013.0135a3 3 0 0 0-.0681.075 6 6 0 0 0-.279.344c-.2383.3157-.5661.8032-.8971 1.4634C4.6781 11.2536 4 13.2678 4 15.9999c0 2.7322.6781 4.7464 1.3384 6.0633.331.6603.6588 1.1477.8972 1.4635a5.8 5.8 0 0 0 .2789.344c.0316.0358.0548.0607.0682.0749l.0119.0124c.3902.3887.3928 1.0201.0052 1.4119-.3807.3848-.9965.3957-1.3905.0303a1.7 1.7 0 0 1-.079-.0797 5 5 0 0 1-.1153-.1263 8 8 0 0 1-.3756-.4624c-.3033-.4017-.6977-.9919-1.089-1.7722C2.7664 21.3953 2 19.0762 2 15.9999s.7663-5.3954 1.5505-6.9596c.3912-.7804.7856-1.3706 1.089-1.7722a8 8 0 0 1 .3755-.4624 5 5 0 0 1 .1152-.1264c.0042-.0044.0792-.0797.0792-.0797.394-.3654 1.0097-.3544 1.3904.0303m18.8004 0c-.3873.3914-.385 1.022.0042 1.4107l.0129.0135c.0134.0142.0366.0392.0682.075.0632.0715.1598.1861.2789.344.2384.3157.5662.8032.8972 1.4634C27.3218 11.2536 28 13.2678 28 15.9999c0 2.7322-.6782 4.7464-1.3384 6.0633-.331.6603-.6588 1.1477-.8972 1.4635a5.8 5.8 0 0 1-.2789.344 3 3 0 0 1-.0682.0749l-.0119.0124c-.3902.3887-.3928 1.0201-.0052 1.4119.3809.3849.997.3957 1.3909.0299a1.5 1.5 0 0 0 .0787-.0793 5 5 0 0 0 .1152-.1263 8 8 0 0 0 .3756-.4624c.3033-.4017.6977-.9919 1.0889-1.7722C29.2337 21.3953 30 19.0762 30 15.9999s-.7663-5.3954-1.5505-6.9596c-.3912-.7804-.7856-1.3706-1.0889-1.7722a8 8 0 0 0-.3756-.4624 5 5 0 0 0-.1152-.1264 15 15 0 0 0-.0872-.087 1 1 0 0 0-1.3824.0376M9.4167 16c0-2.3425 1.0794-3.5479 1.1555-3.6301.3751-.4053.3507-1.038-.0547-1.4131s-1.038-.3507-1.4131.0546c-.2926.3161-1.6877 1.9837-1.6877 4.9886 0 2.9989 1.3896 4.6658 1.6859 4.9866.3747.4057 1.0074.4308 1.4131.056.4057-.3747.4308-1.0074.0561-1.4131-.08-.0865-1.1551-1.2917-1.1551-3.6295m13.1666 0c0-2.3135-1.0527-3.5176-1.1524-3.6266-.3726-.4077-.3441-1.0402.0635-1.4128s1.0402-.3442 1.4128.0635c.3154.3451 1.6761 2.0085 1.6761 4.9759s-1.3607 4.6309-1.6761 4.976c-.3726.4076-1.0051.4361-1.4128.0635s-.4361-1.0052-.0635-1.4128c.0997-.1091 1.1524-1.3131 1.1524-3.6267M16 19c1.6569 0 3-1.3431 3-3s-1.3431-3-3-3-3 1.3431-3 3 1.3431 3 3 3"/><path d="m6.5956 8.0407-.013.0135a3 3 0 0 0-.0681.075 6 6 0 0 0-.279.344c-.2383.3157-.5661.8032-.8971 1.4634C4.6781 11.2536 4 13.2678 4 15.9999c0 2.7322.6781 4.7464 1.3384 6.0633.331.6603.6588 1.1477.8972 1.4635a5.8 5.8 0 0 0 .2789.344c.0316.0358.0548.0607.0682.0749l.0119.0124c.3902.3887.3928 1.0201.0052 1.4119-.3807.3848-.9965.3957-1.3905.0303a1.7 1.7 0 0 1-.079-.0797 5 5 0 0 1-.1153-.1263 8 8 0 0 1-.3756-.4624c-.3033-.4017-.6977-.9919-1.089-1.7722C2.7664 21.3953 2 19.0762 2 15.9999s.7663-5.3954 1.5505-6.9596c.3912-.7804.7856-1.3706 1.089-1.7722a8 8 0 0 1 .3755-.4624 5 5 0 0 1 .1152-.1264c.0042-.0044.0792-.0797.0792-.0797.394-.3654 1.0097-.3544 1.3904.0303.3873.3915.385 1.0221-.0042 1.4108M9.4166 16c0 2.3378 1.0752 3.543 1.1552 3.6295.3747.4057.3496 1.0384-.0561 1.4131s-1.0384.3497-1.4131-.056c-.2963-.3208-1.686-1.9877-1.686-4.9866 0-3.0049 1.3952-4.6725 1.6878-4.9886.3751-.4053 1.0078-.4298 1.4131-.0546.4054.3751.4298 1.0078.0547 1.4131-.0761.0822-1.1555 1.2876-1.1555 3.6301m15.9878-7.9593.0129.0135c.0134.0142.0366.0392.0682.075.0632.0715.1598.1861.2789.344.2384.3157.5662.8032.8972 1.4634C27.3218 11.2536 28 13.2678 28 15.9999c0 2.7322-.6782 4.7464-1.3384 6.0633-.331.6603-.6588 1.1477-.8972 1.4635a5.8 5.8 0 0 1-.2789.344 3 3 0 0 1-.0682.0749l-.0119.0124c-.3902.3887-.3928 1.0201-.0052 1.4119.3809.3849.997.3957 1.3909.0299a1.5 1.5 0 0 0 .0787-.0793 5 5 0 0 0 .1152-.1263 8 8 0 0 0 .3756-.4624c.3033-.4017.6977-.9919 1.0889-1.7722C29.2337 21.3953 30 19.0762 30 15.9999s-.7663-5.3954-1.5505-6.9596c-.3912-.7804-.7856-1.3706-1.0889-1.7722a8 8 0 0 0-.3756-.4624 5 5 0 0 0-.1152-.1264 15 15 0 0 0-.0872-.087 1 1 0 0 0-1.3782 1.4484M22.5833 16c0 2.3136-1.0527 3.5176-1.1524 3.6267-.3726.4076-.3441 1.0401.0635 1.4128.4077.3726 1.0402.3441 1.4128-.0635.3154-.3451 1.6761-2.0086 1.6761-4.976s-1.3607-4.6308-1.6761-4.9759c-.3726-.4077-1.0051-.4361-1.4128-.0635s-.4361 1.0051-.0635 1.4128c.0997.109 1.1524 1.3131 1.1524 3.6266M19 16c0-1.6569-1.3431-3-3-3s-3 1.3431-3 3 1.3431 3 3 3 3-1.3431 3-3"/></svg>