<svg xmlns="http://www.w3.org/2000/svg" width="32" height="32" fill="none" viewBox="0 0 32 32"><path fill="#000" fill-rule="evenodd" d="M4 9c0-.5523.4477-1 1-1h22c.5523 0 1 .4477 1 1v2.5126l2 1.1111V9c0-1.6569-1.3431-3-3-3H5C3.3432 6 2 7.3431 2 9v5a2.99 2.99 0 0 0 .7639 2A2.99 2.99 0 0 0 2 18v5c0 1.6569 1.3432 3 3 3h15.471c-.4999-.4022-1.0217-.8831-1.5112-1.4468A7 7 0 0 1 18.5261 24H5c-.5523 0-1-.4477-1-1v-5c0-.5523.4477-1 1-1h12v-1.5c0-.1692.0142-.3364.0419-.5H5c-.5523 0-1-.4477-1-1zm3.5 4c.8284 0 1.5-.6716 1.5-1.5S8.3284 10 7.5 10 6 10.6716 6 11.5 6.6716 13 7.5 13m16.5144-.8742a1 1 0 0 1 .9712 0l4.5 2.5A1 1 0 0 1 30 15.5v2.5658c0 1.6231-.1505 3.657-1.4698 5.176-.7851.9039-1.6913 1.5683-2.3869 2.0028a11.6 11.6 0 0 1-.8749.496 6.7 6.7 0 0 1-.3736.1782 1.004 1.004 0 0 1-.7891.0002 5 5 0 0 1-.1894-.0867 10 10 0 0 1-.1847-.0917 11.6 11.6 0 0 1-.8749-.496c-.6956-.4345-1.6018-1.0989-2.3869-2.0028C19.1505 21.7228 19 19.6889 19 18.0658V15.5a1 1 0 0 1 .5144-.8742zM24.5 23.8859a9.7 9.7 0 0 0 .5837-.3375c.5925-.3701 1.3239-.9128 1.9365-1.6181.7951-.9155.9798-2.263.9798-3.8645v-1.9774l-3.5-1.9444-3.5 1.9444v1.9774c0 1.6015.1847 2.949.9798 3.8645.6126.7053 1.344 1.248 1.9365 1.6181a9.7 9.7 0 0 0 .5837.3375M7.5 22c.8284 0 1.5-.6716 1.5-1.5S8.3284 19 7.5 19 6 19.6716 6 20.5 6.6716 22 7.5 22"/></svg>