<svg width="32" height="32" viewBox="0 0 32 32" fill="none" xmlns="http://www.w3.org/2000/svg">
<path d="M4 9C4 8.44772 4.44772 8 5 8H27C27.5523 8 28 8.44772 28 9V11.5126L30 12.6237V9C30 7.34315 28.6569 6 27 6H5C3.34315 6 2 7.34315 2 9V14C2 14.7684 2.28885 15.4692 2.7639 16C2.28885 16.5308 2 17.2316 2 18V23C2 24.6569 3.34315 26 5 26H20.471C19.9711 25.5978 19.4493 25.1169 18.9598 24.5532C18.8031 24.3728 18.6589 24.188 18.5261 24H5C4.44772 24 4 23.5523 4 23V18C4 17.4477 4.44772 17 5 17H17V15.5C17 15.3308 17.0142 15.1636 17.0419 15H5C4.44772 15 4 14.5523 4 14V9Z" fill="black"/>
<path d="M9 11.5C9 12.3284 8.32843 13 7.5 13C6.67157 13 6 12.3284 6 11.5C6 10.6716 6.67157 10 7.5 10C8.32843 10 9 10.6716 9 11.5Z" fill="black"/>
<path d="M7.5 22C8.32843 22 9 21.3284 9 20.5C9 19.6716 8.32843 19 7.5 19C6.67157 19 6 19.6716 6 20.5C6 21.3284 6.67157 22 7.5 22Z" fill="black"/>
<path fill-rule="evenodd" clip-rule="evenodd" d="M24.9856 12.1258C24.6836 11.9581 24.3164 11.9581 24.0144 12.1258L19.5144 14.6258C19.1969 14.8022 19 15.1368 19 15.5V18.0658C19 19.6889 19.1505 21.7228 20.4698 23.2418C21.2549 24.1457 22.1611 24.8101 22.8567 25.2446C23.2074 25.4637 23.5119 25.6288 23.7316 25.7406C23.7929 25.7717 23.8543 25.8025 23.9163 25.8323C23.9789 25.8624 24.0419 25.8916 24.1057 25.919C24.1272 25.9282 24.149 25.9366 24.171 25.9443C24.2774 25.9813 24.3887 25.9997 24.5 25.9997C24.6113 25.9997 24.7225 25.9812 24.8289 25.9443C24.8511 25.9366 24.8731 25.9281 24.8948 25.9188C25.0215 25.8641 25.1455 25.803 25.2684 25.7406C25.4881 25.6288 25.7926 25.4637 26.1433 25.2446C26.8389 24.8101 27.7451 24.1457 28.5302 23.2418C29.8495 21.7228 30 19.6889 30 18.0658V15.5C30 15.1368 29.8031 14.8022 29.4856 14.6258L24.9856 12.1258ZM25.0837 23.5484C24.86 23.6881 24.6603 23.8007 24.5 23.8859C24.3397 23.8007 24.14 23.6881 23.9163 23.5484C23.3238 23.1783 22.5924 22.6356 21.9798 21.9303C21.1847 21.0148 21 19.6673 21 18.0658V16.0884L24.5 14.144L28 16.0884V18.0658C28 19.6673 27.8153 21.0148 27.0202 21.9303C26.4076 22.6356 25.6762 23.1783 25.0837 23.5484Z" fill="black"/>
</svg>
