<svg xmlns="http://www.w3.org/2000/svg" width="32" height="32" fill="none" viewBox="0 0 32 32"><path fill="#000" fill-rule="evenodd" d="M12.6996 3.0642a1 1 0 0 1 .9907-.8643h4.6176a1 1 0 0 1 .9906.8638l.4527 3.2912c.9916.386 1.9085.9202 2.7236 1.575l3.0797-1.2549a1 1 0 0 1 1.2434.4261L29.1067 11.1a1 1 0 0 1-.2531 1.2901l-2.6267 2.0378a10.4 10.4 0 0 1 .1187 1.5717c0 .5344-.0406 1.0599-.119 1.5735l2.6251 2.0384c.3946.3065.5025.8572.2527 1.2899l-2.3088 3.9988a1 1 0 0 1-1.2437.4259l-3.0783-1.2559a10.34 10.34 0 0 1-2.7223 1.574l-.4528 3.292a1 1 0 0 1-.9906.8638h-4.6176a1 1 0 0 1-.9907-.8643l-.4511-3.2913a10.34 10.34 0 0 1-2.723-1.5741l-3.0774 1.2556A1 1 0 0 1 5.2043 24.9l-2.3088-3.9989a1 1 0 0 1 .2527-1.2898l2.6243-2.0378a10.4 10.4 0 0 1-.119-1.5739c0-.534.0405-1.059.1187-1.5721l-2.6258-2.0372a1 1 0 0 1-.253-1.2901L5.202 7.1013a1 1 0 0 1 1.2434-.426l3.0789 1.2545a10.34 10.34 0 0 1 2.7242-1.5751zM17.436 4.2h-2.8734l-.5009 3.6547-.6012.1917c-1.154.368-2.2.981-3.0766 1.7788l-.4664.4245-3.4193-1.3933-1.4367 2.4884 2.915 2.2614-.1336.6157a8.38 8.38 0 0 0-.1895 1.7777c0 .6115.0656 1.2065.1898 1.7789l.1335.6155-2.9132 2.2622 1.4367 2.4884 3.4179-1.3945.4666.4246a8.34 8.34 0 0 0 3.0757 1.778l.6012.1918.501 3.6555h2.8734l.5027-3.6559.6008-.1917a8.34 8.34 0 0 0 3.075-1.7778l.4666-.4246 3.4186 1.3948 1.4367-2.4884-2.914-2.2628.1335-.6155a8.38 8.38 0 0 0 .1897-1.7785c0-.611-.0654-1.2054-.1894-1.7773l-.1334-.6157 2.9157-2.262-1.4367-2.4884-3.4201 1.3936-.4664-.4245a8.34 8.34 0 0 0-3.0759-1.7786l-.6008-.1917zm-1.4365 6.5151c-2.9186 0-5.2846 2.366-5.2846 5.2846s2.366 5.2847 5.2846 5.2847 5.2847-2.3661 5.2847-5.2847-2.366-5.2846-5.2847-5.2846m-3.2846 5.2846c0-1.814 1.4706-3.2846 3.2846-3.2846s3.2847 1.4706 3.2847 3.2846-1.4706 3.2847-3.2847 3.2847-3.2846-1.4706-3.2846-3.2847"/></svg>