<svg xmlns="http://www.w3.org/2000/svg" width="32" height="32" fill="none" viewBox="0 0 32 32"><path fill="#000" fill-rule="evenodd" d="M5 9h11.126c.4441 1.7252 2.0102 3 3.874 3s3.4299-1.2748 3.874-3H27c.5523 0 1-.4477 1-1s-.4477-1-1-1h-3.126C23.4299 5.2748 21.8638 4 20 4s-3.4299 1.2748-3.874 3H5c-.5523 0-1 .4477-1 1s.4477 1 1 1m15-3c-1.1046 0-2 .8954-2 2s.8954 2 2 2 2-.8954 2-2-.8954-2-2-2M4 16c0-.5523.4477-1 1-1h3.126c.444-1.7252 2.0102-3 3.874-3s3.4299 1.2748 3.874 3H27c.5523 0 1 .4477 1 1s-.4477 1-1 1H15.874c-.4441 1.7252-2.0102 3-3.874 3s-3.43-1.2748-3.874-3H5c-.5523 0-1-.4477-1-1m6 0c0-1.1046.8954-2 2-2s2 .8954 2 2-.8954 2-2 2-2-.8954-2-2m-5 7c-.5523 0-1 .4477-1 1s.4477 1 1 1h11.126c.4441 1.7252 2.0102 3 3.874 3s3.4299-1.2748 3.874-3H27c.5523 0 1-.4477 1-1s-.4477-1-1-1h-3.126c-.4441-1.7252-2.0102-3-3.874-3s-3.4299 1.2748-3.874 3zm15-1c-1.1046 0-2 .8954-2 2s.8954 2 2 2 2-.8954 2-2-.8954-2-2-2"/></svg>