<svg xmlns="http://www.w3.org/2000/svg" width="32" height="32" fill="none" viewBox="0 0 32 32"><path fill="#000" fill-rule="evenodd" d="M16.126 9H5c-.552 0-1-.448-1-1s.448-1 1-1h11.126c.444-1.725 2.01-3 3.874-3s3.43 1.275 3.874 3H27c.552 0 1 .448 1 1s-.448 1-1 1h-3.126c-.444 1.725-2.01 3-3.874 3s-3.43-1.275-3.874-3M18 8c0-1.105.895-2 2-2s2 .895 2 2-.895 2-2 2-2-.895-2-2M4 16c0-.552.448-1 1-1h3.126c.444-1.725 2.01-3 3.874-3s3.43 1.275 3.874 3H27c.552 0 1 .448 1 1s-.448 1-1 1H15.874c-.444 1.725-2.01 3-3.874 3s-3.43-1.275-3.874-3H5c-.552 0-1-.448-1-1m6 0c0-1.105.895-2 2-2s2 .895 2 2-.895 2-2 2-2-.895-2-2m-6 8c0-.552.448-1 1-1h11.126c.444-1.725 2.01-3 3.874-3s3.43 1.275 3.874 3H27c.552 0 1 .448 1 1s-.448 1-1 1h-3.126c-.444 1.725-2.01 3-3.874 3s-3.43-1.275-3.874-3H5c-.552 0-1-.448-1-1m14 0c0-1.105.895-2 2-2s2 .895 2 2-.895 2-2 2-2-.895-2-2" clip-rule="evenodd"/></svg>