<svg xmlns="http://www.w3.org/2000/svg" width="32" height="32" fill="none" viewBox="0 0 32 32"><path fill="#000" fill-rule="evenodd" d="M15.0645 2.2396a2.002 2.002 0 0 1 1.871 0l9.5323 5.042.1162.0722c.2588.1861.4158.4873.416.8115v5.8203c0 1.8661-.1011 3.8633-.7207 5.7696l-.1318.3799c-1.467 4.0216-3.9176 6.4803-6.0127 7.9296-1.0445.7225-1.9999 1.1939-2.7002 1.4864-.3503.1462-.6379.2487-.8428.3154a7 7 0 0 1-.2432.0742c-.0293.0084-.0537.0148-.0713.0196l-.0214.0058-.0069.002-.0029.0009L16 28.9993l.2432.9697a1 1 0 0 1-.458.0069L16 28.9993l-.2168.9766-.0039-.001-.0078-.002c-.0058-.0013-.0137-.0027-.0225-.0048q-.0269-.0063-.0713-.0176a7 7 0 0 1-.248-.0693c-.2083-.062-.5003-.1582-.8555-.2979-.7099-.2793-1.6776-.7361-2.7334-1.4531-2.1198-1.4398-4.5833-3.9207-6.0361-8.0684C5.1118 18.0835 5 16.0001 5 14.055V8.1653l.0098-.1367a1 1 0 0 1 .5224-.747zM7 8.7669v5.2881c0 1.8957.1157 3.699.6924 5.3457 1.2909 3.6854 3.4526 5.8392 5.2724 7.0752.914.6207 1.7459 1.0116 2.3418 1.2461.2884.1134.5206.1898.6788.2373a9.2 9.2 0 0 0 .6787-.2539c.5936-.248 1.4216-.6557 2.333-1.2862 1.8169-1.2569 3.9702-3.4022 5.2715-6.9697l.1093-.3164c.5165-1.5901.6221-3.3267.6221-5.1475V8.7669l-5.3164-2.8125-2.4736 5.6758 4.4462 3.8672a.9995.9995 0 0 1 .2657 1.1406l-1.9912 4.749c-.2137.509-.7995.7486-1.3086.5352-.5091-.2136-.7485-.7994-.5352-1.3086l1.711-4.0821-4.4541-3.874a1.001 1.001 0 0 1-.2608-1.1543l2.8272-6.4863L16 4.007z" clip-rule="evenodd"/></svg>