<svg xmlns="http://www.w3.org/2000/svg" width="32" height="32" fill="none" viewBox="0 0 32 32"><path fill="#000" fill-rule="evenodd" d="M15.0649 2.24a2 2 0 0 1 1.8702 0l9.5324 5.0419a1 1 0 0 1 .5325.884v5.8203c0 1.9905-.1154 4.1295-.8521 6.1491-1.4669 4.0219-3.9177 6.4802-6.0129 7.9295-1.0446.7227-1.9997 1.194-2.7001 1.4866a11.2 11.2 0 0 1-.8434.3152 7 7 0 0 1-.2432.0747 4 4 0 0 1-.0706.0196l-.0217.0058-.0074.0019-.0028.0007-.0012.0003S16.2436 29.9698 16 29c-.2153.9765-.2164.9763-.2164.9763l-.0012-.0003-.0029-.0007-.0077-.0017-.0223-.0052a4 4 0 0 1-.0721-.0179 7 7 0 0 1-.2475-.069 10.6 10.6 0 0 1-.8557-.2975c-.71-.2793-1.677-.7362-2.7329-1.4533-2.12-1.4397-4.5839-3.9204-6.0368-8.0685C5.1115 18.0839 5 16.0008 5 14.0556V8.1659a1 1 0 0 1 .5324-.884zM16 29l-.2153.9765a1 1 0 0 0 .4589-.0067zm-.0139-1.0397a9.2 9.2 0 0 0 .678-.2544c.5937-.248 1.4217-.6554 2.3331-1.2859 1.817-1.2569 3.9705-3.4023 5.2718-6.9701.6111-1.6752.731-3.5213.731-5.4637v-5.218l-9-4.7603-9 4.7603v5.2874c0 1.8958.1153 3.6987.692 5.3455 1.291 3.6856 3.453 5.8391 5.2729 7.0751.9141.6207 1.7455 1.0122 2.3415 1.2466.289.1137.5215.1901.6797.2375M17 11c0-.5523-.4477-1-1-1s-1 .4477-1 1v6c0 .5522.4477 1 1 1s1-.4478 1-1zm0 10c0 .5522-.4477 1-1 1s-1-.4478-1-1 .4477-1 1-1 1 .4477 1 1"/></svg>