<svg xmlns="http://www.w3.org/2000/svg" width="32" height="32" fill="none" viewBox="0 0 32 32"><path fill="#000" fill-rule="evenodd" d="M16.9351 2.24a2 2 0 0 0-1.8702 0L5.5324 7.2819A1 1 0 0 0 5 8.1659v5.8897c0 1.9452.1116 4.0283.8045 6.0066 1.453 4.1481 3.9168 6.6288 6.0368 8.0685 1.0559.7171 2.0229 1.174 2.7329 1.4533.3553.1398.6474.2356.8557.2975.1042.031.1875.0536.2475.069q.045.0115.0721.0179l.0223.0052.0077.0017.0029.0007.0012.0003c.0005.0001.0009.0002.1254-.5638l-.1243.564a1 1 0 0 0 .4589-.0067l-.1644-.6546c.1645.6546.165.6545.1654.6544l.0012-.0003.0028-.0007.0074-.0019.0217-.0058.0419-.0115.0287-.0081a7 7 0 0 0 .2432-.0747c.205-.0667.4929-.1688.8434-.3152.7004-.2926 1.6555-.7639 2.7001-1.4866 2.0952-1.4493 4.546-3.9076 6.0129-7.9295.7367-2.0196.8521-4.1586.8521-6.1491V8.1659a1 1 0 0 0-.5325-.884zm-.21 25.4402c.5888-.2501 1.3915-.651 2.2721-1.2602 1.817-1.2569 3.9705-3.4023 5.2718-6.9701.6111-1.6752.731-3.5213.731-5.4637v-5.218l-7.3484-3.8867L14.8185 15H18.5a1 1 0 0 1 .9724 1.2333zm-.9372-23.56L7 8.7681v5.2874c0 1.8958.1153 3.6987.692 5.3455 1.291 3.6856 3.453 5.8391 5.2729 7.0751a12.4 12.4 0 0 0 1.7536.995L17.2316 17H13.5a1.0003 1.0003 0 0 1-.963-1.2697z"/></svg>