<svg xmlns="http://www.w3.org/2000/svg" width="32" height="32" fill="none" viewBox="0 0 32 32"><path fill="#000" fill-rule="evenodd" d="M4.6922 5.4402 13.9557.4848a4.553 4.553 0 0 1 4.0888 0l9.2635 4.9554c.7744.389 1.2635 1.184 1.2635 2.0536v9.0617c0 1.63-.3803 3.4231-1.1428 5.1588C24.5715 28 18.2858 31.9999 16.0001 31.9999S7.3579 28 4.5716 21.7143c-.7883-1.7782-1.1429-3.6112-1.1429-5.2508V7.4938c0-.8696.4892-1.6646 1.2635-2.0536m17.7292 7.8384c.3905-.3905.3905-1.0236 0-1.4142s-1.0237-.3905-1.4142 0l-6.15 6.1501-2.7215-2.7215c-.3905-.3905-1.0237-.3905-1.4142 0s-.3905 1.0237 0 1.4142l3.4286 3.4286c.3905.3905 1.0236.3905 1.4142 0z"/></svg>