<svg width="32" height="32" viewBox="0 0 32 32" fill="none" xmlns="http://www.w3.org/2000/svg">
<path d="M16.7071 10.2929C16.3166 9.90233 15.6834 9.90233 15.2929 10.2929L12.2929 13.2929C11.9024 13.6834 11.9024 14.3165 12.2929 14.7071C12.6834 15.0976 13.3166 15.0976 13.7071 14.7071L15 13.4142V21C15 21.5522 15.4477 22 16 22C16.5523 22 17 21.5522 17 21V13.4142L18.2929 14.7071C18.6834 15.0976 19.3166 15.0976 19.7071 14.7071C20.0976 14.3165 20.0976 13.6834 19.7071 13.2929L16.7071 10.2929Z" fill="black"/>
<path fill-rule="evenodd" clip-rule="evenodd" d="M16.9351 2.24C16.3501 1.93058 15.6499 1.93058 15.0649 2.24L5.53245 7.28189C5.2049 7.45514 5 7.79531 5 8.16586V14.0556C5 16.0008 5.11158 18.0839 5.80452 20.0622C7.25742 24.2103 9.72131 26.691 11.8413 28.1307C12.8972 28.8478 13.8642 29.3047 14.5742 29.584C14.9295 29.7238 15.2216 29.8196 15.4299 29.8815C15.5341 29.9125 15.6174 29.9351 15.6774 29.9505C15.7074 29.9582 15.7315 29.9641 15.7495 29.9684L15.7718 29.9736L15.7795 29.9753L15.7824 29.976L15.7836 29.9763C15.7836 29.9763 15.7847 29.9765 16 29L15.7847 29.9765C15.9361 30.0099 16.0932 30.0076 16.2436 29.9698L16 29C16.2436 29.9698 16.2446 29.9696 16.2446 29.9696L16.2458 29.9693L16.2486 29.9686L16.256 29.9667L16.2777 29.9609C16.2891 29.9579 16.3031 29.954 16.3196 29.9494C16.3285 29.9469 16.338 29.9442 16.3483 29.9413C16.4071 29.9245 16.489 29.8999 16.5915 29.8666C16.7965 29.7999 17.0844 29.6978 17.4349 29.5514C18.1353 29.2588 19.0904 28.7875 20.135 28.0648C22.2302 26.6155 24.681 24.1572 26.1479 20.1353C26.8846 18.1157 27 15.9767 27 13.9862V8.16586C27 7.79531 26.7951 7.45514 26.4675 7.28189L16.9351 2.24ZM16.6641 27.7059C16.3759 27.8263 16.144 27.9086 15.9861 27.9603C15.8279 27.9129 15.5954 27.8365 15.3064 27.7228C14.7104 27.4884 13.879 27.0969 12.9649 26.4762C11.145 25.2402 8.98302 23.0867 7.69209 19.4011C7.11527 17.7543 7 15.9514 7 14.0556V8.7682L16 4.00793L25 8.7682V13.9862C25 15.9286 24.8801 17.7747 24.269 19.4499C22.9677 23.0177 20.8142 25.1631 18.9972 26.42C18.0858 27.0505 17.2578 27.4579 16.6641 27.7059Z" fill="black"/>
</svg>
