<svg xmlns="http://www.w3.org/2000/svg" width="32" height="32" fill="none" viewBox="0 0 32 32"><path fill="#000" fill-rule="evenodd" d="M4.6922 5.4402 13.9557.4848a4.553 4.553 0 0 1 4.0888 0l9.2636 4.9554c.7743.389 1.2635 1.184 1.2635 2.0536v9.0617c0 1.63-.3804 3.4231-1.1429 5.1588C24.5716 28 18.2859 32 16.0001 32c-2.2857 0-8.6422-4-11.4285-10.2857-.7883-1.7782-1.1429-3.6112-1.1429-5.2508V7.4938c0-.8696.4892-1.6646 1.2635-2.0536m16.032 5.8357c-.3905-.3905-1.0237-.3905-1.4142 0l-3.3099 3.3099-3.3098-3.3099c-.3905-.3905-1.0237-.3905-1.4142 0-.3906.3906-.3906 1.0237 0 1.4142L14.5859 16l-3.3098 3.3099c-.3906.3905-.3906 1.0236 0 1.4142s1.0237.3905 1.4142 0l3.3098-3.3099 3.3099 3.3099c.3905.3905 1.0237.3905 1.4142 0s.3905-1.0237 0-1.4142L17.4144 16l3.3098-3.3099c.3905-.3905.3905-1.0236 0-1.4142"/></svg>