<svg xmlns="http://www.w3.org/2000/svg" width="32" height="32" fill="none" viewBox="0 0 32 32"><path fill="#000" fill-rule="evenodd" d="M7 6c0-2.2091 1.7909-4 4-4h10c2.2091 0 4 1.7909 4 4v20c0 2.2091-1.7909 4-4 4H11c-2.2091 0-4-1.7909-4-4zm13-2h1c1.1046 0 2 .8954 2 2v20c0 1.1046-.8954 2-2 2H11c-1.1046 0-2-.8954-2-2V6c0-1.1046.8954-2 2-2h1l.7236 1.4472A1 1 0 0 0 13.618 6h4.764a1 1 0 0 0 .8944-.5528zm.7071 10.7071c.3905-.3905.3905-1.0237 0-1.4142s-1.0237-.3905-1.4142 0L15.5 17.0858l-1.7929-1.7929c-.3905-.3905-1.0237-.3905-1.4142 0s-.3905 1.0237 0 1.4142l2.5 2.5c.3905.3905 1.0237.3905 1.4142 0z"/></svg>