<svg width="32" height="32" viewBox="0 0 32 32" fill="none" xmlns="http://www.w3.org/2000/svg">
<path d="M20.7071 14.7071C21.0976 14.3166 21.0976 13.6834 20.7071 13.2929C20.3166 12.9024 19.6834 12.9024 19.2929 13.2929L15.5 17.0858L13.7071 15.2929C13.3166 14.9024 12.6834 14.9024 12.2929 15.2929C11.9024 15.6834 11.9024 16.3166 12.2929 16.7071L14.7929 19.2071C15.1834 19.5976 15.8166 19.5976 16.2071 19.2071L20.7071 14.7071Z" fill="black"/>
<path fill-rule="evenodd" clip-rule="evenodd" d="M11 2C8.79086 2 7 3.79086 7 6V26C7 28.2091 8.79086 30 11 30H21C23.2091 30 25 28.2091 25 26V6C25 3.79086 23.2091 2 21 2H11ZM21 4H20L19.2764 5.44721C19.107 5.786 18.7607 6 18.382 6H13.618C13.2393 6 12.893 5.786 12.7236 5.44721L12 4H11C9.89543 4 9 4.89543 9 6V26C9 27.1046 9.89543 28 11 28H21C22.1046 28 23 27.1046 23 26V6C23 4.89543 22.1046 4 21 4Z" fill="black"/>
</svg>
