<svg xmlns="http://www.w3.org/2000/svg" width="32" height="32" fill="none" viewBox="0 0 32 32"><path fill="#000" fill-rule="evenodd" d="M30 16c0 7.732-6.268 14-14 14S2 23.732 2 16 8.268 2 16 2s14 6.268 14 14M8 13c0-4.4183 3.5817-8 8-8s8 3.5817 8 8v11c0 .5523-.4477 1-1 1h-9c-3.3137 0-6-2.6863-6-6zm2 0c0-3.3137 2.6863-6 6-6s6 2.6863 6 6v10h-8c-2.2091 0-4-1.7909-4-4zm3.5 2c.8284 0 1.5-.6716 1.5-1.5s-.6716-1.5-1.5-1.5-1.5.6716-1.5 1.5.6716 1.5 1.5 1.5m6.5-1.5c0 .8284-.6716 1.5-1.5 1.5s-1.5-.6716-1.5-1.5.6716-1.5 1.5-1.5 1.5.6716 1.5 1.5"/></svg>