<svg xmlns="http://www.w3.org/2000/svg" width="32" height="32" fill="none" viewBox="0 0 32 32"><path fill="#000" fill-rule="evenodd" d="M16 30c7.732 0 14-6.268 14-14S23.732 2 16 2 2 8.268 2 16s6.268 14 14 14m4.2071-18.2071c-.3905-.3905-1.0237-.3905-1.4142 0L16 14.5858l-2.7929-2.7929c-.3905-.3905-1.0237-.3905-1.4142 0s-.3905 1.0237 0 1.4142L14.5858 16l-2.7929 2.7929c-.3905.3905-.3905 1.0237 0 1.4142s1.0237.3905 1.4142 0L16 17.4142l2.7929 2.7929c.3905.3905 1.0237.3905 1.4142 0s.3905-1.0237 0-1.4142L17.4142 16l2.7929-2.7929c.3905-.3905.3905-1.0237 0-1.4142"/></svg>