<svg xmlns="http://www.w3.org/2000/svg" width="32" height="32" fill="none" viewBox="0 0 32 32"><path fill="#000" fill-rule="evenodd" d="M16 30c7.732 0 14-6.268 14-14S23.732 2 16 2 2 8.268 2 16s6.268 14 14 14m-.0684-18.4718c-.7458 0-1.3814.4836-1.6052 1.157-.1741.5242-.7402.8078-1.2643.6337-.5241-.1742-.8078-.7402-.6336-1.2643.4873-1.4666 1.8701-2.5264 3.5031-2.5264 2.2327 0 3.6909 1.8704 3.6909 3.8506 0 1.6544-1.0519 2.8883-2.2326 3.5847-.2671.1575-.3675.3208-.4114.4206-.0467.1064-.0486.1881-.0487.1936.0089.5522-.4315 1.0071-.9838 1.016s-1.0071-.4315-1.016-.9837c-.0061-.3789.105-1.5796 1.4439-2.3692.7897-.4658 1.2486-1.1373 1.2486-1.862 0-1.0637-.7419-1.8506-1.6909-1.8506m1.0685 9.7823c0 .5523-.4477 1-1 1s-1-.4477-1-1 .4477-1 1-1 1 .4478 1 1"/></svg>