<svg xmlns="http://www.w3.org/2000/svg" width="32" height="32" fill="none" viewBox="0 0 32 32"><path fill="#000" fill-rule="evenodd" d="M3 5.5C3 4.1193 4.1193 3 5.5 3h21C27.8807 3 29 4.1193 29 5.5S27.8807 8 26.5 8h-21C4.1193 8 3 6.8807 3 5.5M5.5 5h21a.5.5 0 0 1 0 1h-21a.5.5 0 0 1 0-1M3 12.5C3 11.1193 4.1193 10 5.5 10h21c1.3807 0 2.5 1.1193 2.5 2.5S27.8807 15 26.5 15h-21C4.1193 15 3 13.8807 3 12.5m0 7C3 18.1193 4.1193 17 5.5 17h21c1.3807 0 2.5 1.1193 2.5 2.5S27.8807 22 26.5 22h-21C4.1193 22 3 20.8807 3 19.5m0 7C3 25.1193 4.1193 24 5.5 24h21c1.3807 0 2.5 1.1193 2.5 2.5S27.8807 29 26.5 29h-21C4.1193 29 3 27.8807 3 26.5"/><path fill="#000" fill-rule="evenodd" d="M28.2651 7.2704A2.492 2.492 0 0 1 26.5 8h-21a2.492 2.492 0 0 1-1.7678-.7322A2.492 2.492 0 0 1 3 5.5c0-.604.2142-1.158.5709-1.5902a2.5 2.5 0 0 1 .1587-.175l.0026-.0026.0027-.0026A2.492 2.492 0 0 1 5.5 3h21a2.492 2.492 0 0 1 1.7651.7296l.0027.0026.0026.0027A2.492 2.492 0 0 1 29 5.5a2.492 2.492 0 0 1-.7296 1.7651l-.0026.0027zM5.5 6h21a.5.5 0 0 0 .3536-.1464A.5.5 0 0 0 27 5.5c0-.138-.056-.263-.1464-.3536A.5.5 0 0 0 26.5 5h-21c-.138 0-.263.056-.3536.1464A.498.498 0 0 0 5 5.5a.498.498 0 0 0 .1486.3557A.498.498 0 0 0 5.5 6m0 9C4.1193 15 3 13.8807 3 12.5S4.1193 10 5.5 10h21c1.3807 0 2.5 1.1193 2.5 2.5S27.8807 15 26.5 15zm0-3a.5.5 0 0 0-.192.0366.5.5 0 0 0-.1616.1098.5.5 0 0 0-.1098.1617A.5.5 0 0 0 5 12.5q0 .1035.0366.1919a.5.5 0 0 0 .1098.1617.5.5 0 0 0 .1616.1098A.5.5 0 0 0 5.5 13h21q.1035 0 .1919-.0366a.5.5 0 0 0 .1617-.1098.5.5 0 0 0 .1098-.1617Q27 12.6035 27 12.5a.5.5 0 0 0-.0366-.1919.5.5 0 0 0-.1098-.1617.5.5 0 0 0-.1617-.1098A.5.5 0 0 0 26.5 12zm0 10C4.1193 22 3 20.8807 3 19.5S4.1193 17 5.5 17h21c1.3807 0 2.5 1.1193 2.5 2.5S27.8807 22 26.5 22zm-.4634-2.3081a.5.5 0 0 0 .1098.1617.5.5 0 0 0 .1616.1098h.0001Q5.3965 20 5.5 20h21q.1035 0 .1919-.0366a.5.5 0 0 0 .1617-.1098.5.5 0 0 0 .1098-.1617A.5.5 0 0 0 27 19.5q0-.1035-.0366-.1919a.5.5 0 0 0-.1098-.1617.5.5 0 0 0-.1617-.1098A.5.5 0 0 0 26.5 19h-21a.5.5 0 0 0-.192.0366.5.5 0 0 0-.1616.1098.5.5 0 0 0-.1098.1617A.5.5 0 0 0 5 19.5q0 .1035.0366.1919M3 26.5C3 25.1193 4.1193 24 5.5 24h21c1.3807 0 2.5 1.1193 2.5 2.5S27.8807 29 26.5 29h-21C4.1193 29 3 27.8807 3 26.5m2.5-.5a.5.5 0 0 0-.192.0366.5.5 0 0 0-.1616.1098.5.5 0 0 0-.1098.1617A.5.5 0 0 0 5 26.5q0 .1035.0366.1918v.0001a.5.5 0 0 0 .1098.1617.5.5 0 0 0 .1616.1098A.5.5 0 0 0 5.5 27h21q.1034 0 .1918-.0365l.0001-.0001q.0884-.0366.1617-.1098a.5.5 0 0 0 .1098-.1617Q27 26.6035 27 26.5a.5.5 0 0 0-.0366-.192.5.5 0 0 0-.1098-.1616.5.5 0 0 0-.1617-.1098Q26.6035 26 26.5 26z"/></svg>