<svg xmlns="http://www.w3.org/2000/svg" width="32" height="32" fill="none" viewBox="0 0 32 32"><path fill="#000" fill-rule="evenodd" d="M12.5621 6.021c1.528-2.6947 5.3478-2.6947 6.8758 0l9.0243 15.9158C29.9902 24.6316 28.0803 28 25.0244 28H6.9756c-3.0559 0-4.9658-3.3684-3.4378-6.0632zm5.136.9865 9.0243 15.9158C27.525 24.3388 26.4859 26 25.0244 26H6.9756c-1.4615 0-2.5007-1.6612-1.698-3.0767l9.0243-15.9158c.7617-1.3433 2.6345-1.3433 3.3962 0M16 11c.5523 0 1 .4477 1 1v6c0 .5523-.4477 1-1 1s-1-.4477-1-1v-6c0-.5523.4477-1 1-1m0 12c.5523 0 1-.4477 1-1s-.4477-1-1-1-1 .4477-1 1 .4477 1 1 1"/></svg>