<svg xmlns="http://www.w3.org/2000/svg" width="32" height="32" fill="none" viewBox="0 0 32 32"><path fill="#000" fill-rule="evenodd" d="M18.4056 1.3747a4.848 4.848 0 0 0-4.8109 0L4.4429 6.6041A4.848 4.848 0 0 0 2 10.8138v10.3726a4.848 4.848 0 0 0 2.4429 4.2095l9.1518 5.2296a4.848 4.848 0 0 0 4.8109 0l9.1516-5.2295A4.849 4.849 0 0 0 30 21.1864V10.8137a4.848 4.848 0 0 0-2.4428-4.2095zM21.7504 10c0 1.3807-1.1193 2.5-2.5 2.5a2.49 2.49 0 0 1-1.4416-.4573l-5.1181 3.4121c.0391.1755.0597.3579.0597.5452s-.0206.3697-.0597.5452l5.1181 3.4121a2.49 2.49 0 0 1 1.4416-.4573c1.3807 0 2.5 1.1193 2.5 2.5s-1.1193 2.5-2.5 2.5-2.5-1.1193-2.5-2.5c0-.1873.0206-.3697.0596-.5452l-5.118-3.4121a2.49 2.49 0 0 1-1.4416.4573c-1.3808 0-2.5-1.1193-2.5-2.5s1.1193-2.5 2.5-2.5c.5368 0 1.0342.1692 1.4416.4573l5.118-3.4121A2.5 2.5 0 0 1 16.7504 10c0-1.3807 1.1193-2.5 2.5-2.5s2.5 1.1193 2.5 2.5"/></svg>