<svg xmlns="http://www.w3.org/2000/svg" width="32" height="32" fill="none" viewBox="0 0 32 32"><path fill="#000" fill-rule="evenodd" d="M16 30c7.732 0 14-6.268 14-14S23.732 2 16 2 2 8.268 2 16s6.268 14 14 14M9 13c0-3.866 3.134-7 7-7s7 3.134 7 7c0 2.38-1.1882 4.4814-3 5.7452V20c0 1.1046-.8954 2-2 2h-4c-1.1046 0-2-.8954-2-2v-1.2548C10.1882 17.4814 9 15.38 9 13m2 0c0-2.7614 2.2386-5 5-5s5 2.2386 5 5c0 1.8494-1.0036 3.4657-2.5007 4.3317a1 1 0 0 0-.4993.8656V20h-4v-1.8027a1 1 0 0 0-.4993-.8656C12.0036 16.4657 11 14.8494 11 13m3 11c-.5523 0-1 .4477-1 1s.4477 1 1 1h4c.5523 0 1-.4477 1-1s-.4477-1-1-1z"/></svg>