<svg width="32" height="32" viewBox="0 0 32 32" fill="none" xmlns="http://www.w3.org/2000/svg">
<mask id="path-1-inside-1_26857_126" fill="white">
<path fill-rule="evenodd" clip-rule="evenodd" d="M3 5.5C3 4.11929 4.11929 3 5.5 3H26.5C27.8807 3 29 4.11929 29 5.5C29 6.88071 27.8807 8 26.5 8H5.5C4.11929 8 3 6.88071 3 5.5ZM5.5 5H26.5C26.7761 5 27 5.22386 27 5.5C27 5.77614 26.7761 6 26.5 6H5.5C5.22386 6 5 5.77614 5 5.5C5 5.22386 5.22386 5 5.5 5Z"/>
<path d="M5.5 10C4.11929 10 3 11.1193 3 12.5C3 13.8807 4.11929 15 5.5 15H26.5C27.8807 15 29 13.8807 29 12.5C29 11.1193 27.8807 10 26.5 10H5.5Z"/>
<path d="M3 19.5C3 18.1193 4.11929 17 5.5 17H26.5C27.8807 17 29 18.1193 29 19.5C29 20.8807 27.8807 22 26.5 22H5.5C4.11929 22 3 20.8807 3 19.5Z"/>
<path d="M5.5 24C4.11929 24 3 25.1193 3 26.5C3 27.8807 4.11929 29 5.5 29H26.5C27.8807 29 29 27.8807 29 26.5C29 25.1193 27.8807 24 26.5 24H5.5Z"/>
</mask>
<path fill-rule="evenodd" clip-rule="evenodd" d="M3 5.5C3 4.11929 4.11929 3 5.5 3H26.5C27.8807 3 29 4.11929 29 5.5C29 6.88071 27.8807 8 26.5 8H5.5C4.11929 8 3 6.88071 3 5.5ZM5.5 5H26.5C26.7761 5 27 5.22386 27 5.5C27 5.77614 26.7761 6 26.5 6H5.5C5.22386 6 5 5.77614 5 5.5C5 5.22386 5.22386 5 5.5 5Z" fill="black"/>
<path d="M5.5 10C4.11929 10 3 11.1193 3 12.5C3 13.8807 4.11929 15 5.5 15H26.5C27.8807 15 29 13.8807 29 12.5C29 11.1193 27.8807 10 26.5 10H5.5Z" fill="black"/>
<path d="M3 19.5C3 18.1193 4.11929 17 5.5 17H26.5C27.8807 17 29 18.1193 29 19.5C29 20.8807 27.8807 22 26.5 22H5.5C4.11929 22 3 20.8807 3 19.5Z" fill="black"/>
<path d="M5.5 24C4.11929 24 3 25.1193 3 26.5C3 27.8807 4.11929 29 5.5 29H26.5C27.8807 29 29 27.8807 29 26.5C29 25.1193 27.8807 24 26.5 24H5.5Z" fill="black"/>
<path fill-rule="evenodd" clip-rule="evenodd" d="M3 5.5C3 4.11929 4.11929 3 5.5 3H26.5C27.8807 3 29 4.11929 29 5.5C29 6.88071 27.8807 8 26.5 8H5.5C4.11929 8 3 6.88071 3 5.5ZM5.5 5H26.5C26.7761 5 27 5.22386 27 5.5C27 5.77614 26.7761 6 26.5 6H5.5C5.22386 6 5 5.77614 5 5.5C5 5.22386 5.22386 5 5.5 5Z" stroke="black" stroke-width="4" mask="url(#path-1-inside-1_26857_126)"/>
<path d="M5.5 10C4.11929 10 3 11.1193 3 12.5C3 13.8807 4.11929 15 5.5 15H26.5C27.8807 15 29 13.8807 29 12.5C29 11.1193 27.8807 10 26.5 10H5.5Z" stroke="black" stroke-width="4" mask="url(#path-1-inside-1_26857_126)"/>
<path d="M3 19.5C3 18.1193 4.11929 17 5.5 17H26.5C27.8807 17 29 18.1193 29 19.5C29 20.8807 27.8807 22 26.5 22H5.5C4.11929 22 3 20.8807 3 19.5Z" stroke="black" stroke-width="4" mask="url(#path-1-inside-1_26857_126)"/>
<path d="M5.5 24C4.11929 24 3 25.1193 3 26.5C3 27.8807 4.11929 29 5.5 29H26.5C27.8807 29 29 27.8807 29 26.5C29 25.1193 27.8807 24 26.5 24H5.5Z" stroke="black" stroke-width="4" mask="url(#path-1-inside-1_26857_126)"/>
</svg>
