<svg xmlns="http://www.w3.org/2000/svg" width="32" height="32" fill="none" viewBox="0 0 32 32"><path fill="#000" fill-rule="evenodd" d="M5.5 3C4.1193 3 3 4.1193 3 5.5S4.1193 8 5.5 8h7.2324C13.1215 6.56 14.437 5.5005 16 5.5005S18.8785 6.56 19.2676 8H26.5C27.8807 8 29 6.8807 29 5.5S27.8807 3 26.5 3zm9.4353 5a1.38 1.38 0 0 0-.3198.885v9.23c0 .7646.6199 1.3845 1.3845 1.3845s1.3845-.6199 1.3845-1.3845v-9.23c0-.3365-.1201-.645-.3198-.885A1.381 1.381 0 0 0 16 7.5005c-.4281 0-.8108.1943-1.0647.4995m-2.3198 2H5.5C4.1193 10 3 11.1193 3 12.5S4.1193 15 5.5 15h7.1155zm6.769 5H26.5c1.3807 0 2.5-1.1193 2.5-2.5S27.8807 10 26.5 10h-7.1155zm-6.769 2H5.5C4.1193 17 3 18.1193 3 19.5S4.1193 22 5.5 22h7.1448a3.5 3.5 0 0 1 .9301-1.5242c-.5937-.6097-.9594-1.4426-.9594-2.3608zm6.7397 5H26.5c1.3807 0 2.5-1.1193 2.5-2.5S27.8807 17 26.5 17h-7.1155v1.115c0 .9182-.3657 1.7511-.9594 2.3608A3.5 3.5 0 0 1 19.3552 22M16 24.4995c.444 0 .8429-.1929 1.1176-.4995a1.494 1.494 0 0 0 .3824-1.0005A1.494 1.494 0 0 0 17.1185 22 1.496 1.496 0 0 0 16 21.4995 1.496 1.496 0 0 0 14.8815 22a1.494 1.494 0 0 0-.3815.9995c0 .3844.1446.7351.3824 1.0005A1.496 1.496 0 0 0 16 24.4995M12.6451 24H5.5C4.1193 24 3 25.1193 3 26.5S4.1193 29 5.5 29h21c1.3807 0 2.5-1.1193 2.5-2.5S27.8807 24 26.5 24h-7.1451c-.4304 1.4455-1.7696 2.4995-3.3549 2.4995S13.0755 25.4455 12.6451 24"/></svg>