<svg xmlns="http://www.w3.org/2000/svg" width="32" height="32" fill="none" viewBox="0 0 32 32"><path fill="#000" fill-rule="evenodd" d="M2.8283 18.8284c-1.562-1.5621-1.562-4.0947 0-5.6568L13.1715 2.8284c1.5621-1.562 4.0947-1.562 5.6568 0l10.3432 10.3432c1.5621 1.5621 1.5621 4.0947 0 5.6568L18.8283 29.1716c-1.5621 1.5621-4.0947 1.5621-5.6568 0zm1.4142-4.2426L14.5857 4.2426c.781-.781 2.0473-.781 2.8284 0l10.3431 10.3432c.7811.781.7811 2.0474 0 2.8284L17.4141 27.7574c-.7811.781-2.0474.781-2.8284 0L4.2425 17.4142c-.781-.781-.781-2.0474 0-2.8284M17 11c0-.5523-.4477-1-1-1s-1 .4477-1 1v6c0 .5523.4477 1 1 1s1-.4477 1-1zm-1 11c.5523 0 1-.4477 1-1s-.4477-1-1-1-1 .4477-1 1 .4477 1 1 1"/></svg>