<svg xmlns="http://www.w3.org/2000/svg" width="32" height="32" fill="none" viewBox="0 0 32 32"><path fill="#000" fill-rule="evenodd" d="M5 6c0-1.6569 1.3431-3 3-3h16c1.6569 0 3 1.3431 3 3v4a2.99 2.99 0 0 1-.7639 2A2.99 2.99 0 0 1 27 14v4c0 1.6569-1.3431 3-3 3h-7v3q-.0001.0848-.0137.1659a3.009 3.009 0 0 1 1.8478 1.8478q.081-.0136.1659-.0137h7c.5523 0 1 .4477 1 1s-.4477 1-1 1h-7a1 1 0 0 1-.1659-.0137C18.4262 29.1586 17.3113 30 16 30s-2.4262-.8414-2.8341-2.0137A1 1 0 0 1 13 28H6c-.5523 0-1-.4477-1-1s.4477-1 1-1h7q.0848.0001.1659.0137a3.009 3.009 0 0 1 1.8478-1.8478A1 1 0 0 1 15 24v-3H8c-1.6569 0-3-1.3431-3-3v-4a2.99 2.99 0 0 1 .7639-2A2.99 2.99 0 0 1 5 10zm3-1c-.5523 0-1 .4477-1 1v4c0 .5523.4477 1 1 1h16c.5523 0 1-.4477 1-1V6c0-.5523-.4477-1-1-1zm4 3c0 .5523-.4477 1-1 1s-1-.4477-1-1 .4477-1 1-1 1 .4477 1 1m13 10c0 .5523-.4477 1-1 1H8c-.5523 0-1-.4477-1-1v-4c0-.5523.4477-1 1-1h16c.5523 0 1 .4477 1 1zm-14-1c.5523 0 1-.4477 1-1s-.4477-1-1-1-1 .4477-1 1 .4477 1 1 1m4 10c0-.5523.4477-1 1-1s1 .4477 1 1-.4477 1-1 1-1-.4477-1-1"/></svg>