<svg width="32" height="32" viewBox="0 0 32 32" fill="none" xmlns="http://www.w3.org/2000/svg">
<path d="M11 17C11.5523 17 12 16.5523 12 16C12 15.4477 11.5523 15 11 15C10.4477 15 10 15.4477 10 16C10 16.5523 10.4477 17 11 17Z" fill="black"/>
<path d="M12 8C12 8.55228 11.5523 9 11 9C10.4477 9 10 8.55228 10 8C10 7.44772 10.4477 7 11 7C11.5523 7 12 7.44772 12 8Z" fill="black"/>
<path fill-rule="evenodd" clip-rule="evenodd" d="M8 3C6.34315 3 5 4.34315 5 6V10C5 10.7684 5.28885 11.4692 5.7639 12C5.28885 12.5308 5 13.2316 5 14V18C5 19.6569 6.34315 21 8 21H15V24C15 24.0565 15.0047 24.1119 15.0137 24.1659C14.1503 24.4664 13.4664 25.1503 13.1659 26.0137C13.1119 26.0047 13.0565 26 13 26H6C5.44772 26 5 26.4477 5 27C5 27.5523 5.44772 28 6 28H13C13.0565 28 13.1119 27.9953 13.1659 27.9863C13.5738 29.1586 14.6887 30 16 30C17.3113 30 18.4262 29.1586 18.8341 27.9863C18.8881 27.9953 18.9435 28 19 28H26C26.5523 28 27 27.5523 27 27C27 26.4477 26.5523 26 26 26H19C18.9435 26 18.8881 26.0047 18.8341 26.0137C18.5336 25.1503 17.8497 24.4664 16.9863 24.1659C16.9953 24.1119 17 24.0565 17 24V21H24C25.6569 21 27 19.6569 27 18V14C27 13.2316 26.7111 12.5308 26.2361 12C26.7111 11.4692 27 10.7684 27 10V6C27 4.34315 25.6569 3 24 3H8ZM24 19C24.5523 19 25 18.5523 25 18V14C25 13.4477 24.5523 13 24 13H8C7.44772 13 7 13.4477 7 14V18C7 18.5523 7.44772 19 8 19H24ZM7 6C7 5.44772 7.44772 5 8 5H24C24.5523 5 25 5.44772 25 6V10C25 10.5523 24.5523 11 24 11H8C7.44772 11 7 10.5523 7 10V6ZM16 26C15.4477 26 15 26.4477 15 27C15 27.5523 15.4477 28 16 28C16.5523 28 17 27.5523 17 27C17 26.4477 16.5523 26 16 26Z" fill="black"/>
</svg>
