<svg xmlns="http://www.w3.org/2000/svg" width="32" height="32" fill="none" viewBox="0 0 32 32"><path fill="#000" fill-rule="evenodd" d="M12 6c-1.6569 0-3 1.3431-3 3v1c0 1.6569 1.3431 3 3 3h3v2h-5c-1.6569 0-3 1.3431-3 3v1H4c-1.6568 0-3 1.3431-3 3v1c0 1.6569 1.3432 3 3 3h8c1.6569 0 3-1.3431 3-3v-1c0-1.6569-1.3431-3-3-3H9v-1c0-.5523.4477-1 1-1h12c.5523 0 1 .4477 1 1v1h-3c-1.6569 0-3 1.3431-3 3v1c0 1.6569 1.3431 3 3 3h8c1.6569 0 3-1.3431 3-3v-1c0-1.6569-1.3431-3-3-3h-3v-1c0-1.6569-1.3431-3-3-3h-5v-2h3c1.6569 0 3-1.3431 3-3V9c0-1.6569-1.3431-3-3-3zm8 15c-.5523 0-1 .4477-1 1v1c0 .5523.4477 1 1 1h8c.5523 0 1-.4477 1-1v-1c0-.5523-.4477-1-1-1zM4 21c-.5523 0-1 .4477-1 1v1c0 .5523.4477 1 1 1h8c.5523 0 1-.4477 1-1v-1c0-.5523-.4477-1-1-1zm16-10c.5523 0 1-.4477 1-1V9c0-.5523-.4477-1-1-1h-8c-.5523 0-1 .4477-1 1v1c0 .5523.4477 1 1 1z"/></svg>