<svg xmlns="http://www.w3.org/2000/svg" width="32" height="32" fill="none" viewBox="0 0 32 32"><path fill="#000" fill-rule="evenodd" d="M16 5c-2.2091 0-4 1.7909-4 4 0 .5523-.4477 1-1 1s-1-.4477-1-1c0-3.3137 2.6863-6 6-6s6 2.6863 6 6c0 1.7885-.783 3.3936-2.0222 4.4918l3.9732 6.5088A2 2 0 0 1 24 20c1.1046 0 2 .8954 2 2s-.8954 2-2 2-2-.8954-2-2c0-.3469.0883-.6732.2437-.9576L17.896 13.92a1 1 0 0 1-.1077-.1431c-.2918-.469-.1481-1.0856.3209-1.3774C19.2465 11.692 20 10.4336 20 9c0-2.2091-1.7909-4-4-4m2 4c0 1.1046-.8954 2-2 2a2 2 0 0 1-.0593-.0009l-4.4209 7.1835a1 1 0 0 1-.1433.182c-.3112.3805-.8633.4826-1.2946.219C9.4761 18.2135 8.7645 18 8 18c-2.2091 0-4 1.7909-4 4s1.7909 4 4 4c.7645 0 1.4761-.2135 2.0819-.5836.4713-.288 1.0867-.1394 1.3747.3319s.1394 1.0867-.3319 1.3747A5.977 5.977 0 0 1 8 28c-3.3137 0-6-2.6863-6-6s2.6863-6 6-6c.7934 0 1.5522.1545 2.2468.4351l3.992-6.4865A1.99 1.99 0 0 1 14 9c0-1.1046.8954-2 2-2s2 .8954 2 2M8 24c.7403 0 1.3866-.4022 1.7324-1h8.3506c.4761 2.8377 2.944 5 5.917 5 3.3137 0 6-2.6863 6-6 0-2.2221-1.2085-4.1608-2.9993-5.1967-.478-.2766-1.0898-.1132-1.3663.3648-.2765.4781-.1132 1.0898.3649 1.3664C27.1975 19.2276 28 20.5207 28 22c0 2.2091-1.7909 4-4 4s-4-1.7909-4-4l-.0001-.0129a1 1 0 0 0-.0202-.1886C19.8865 21.3428 19.4833 21 19 21H9.7325c-.3459-.5978-.9922-1-1.7325-1-1.1046 0-2 .8954-2 2s.8954 2 2 2"/></svg>