<svg width="32" height="32" viewBox="0 0 32 32" fill="none" xmlns="http://www.w3.org/2000/svg">
<path d="M20.2071 15.7071C20.5976 15.3166 20.5976 14.6834 20.2071 14.2929C19.8166 13.9024 19.1834 13.9024 18.7929 14.2929L14.5 18.5858L12.7071 16.7929C12.3166 16.4024 11.6834 16.4024 11.2929 16.7929C10.9024 17.1834 10.9024 17.8166 11.2929 18.2071L13.7929 20.7071C14.1834 21.0976 14.8166 21.0976 15.2071 20.7071L20.2071 15.7071Z" fill="black"/>
<path fill-rule="evenodd" clip-rule="evenodd" d="M5 5.99536C5 3.78622 6.79086 1.99536 9 1.99536H23C25.2091 1.99536 27 3.78622 27 5.99536V25.9954C27 28.2045 25.2091 29.9954 23 29.9954H9C6.79086 29.9954 5 28.2045 5 25.9954V5.99536ZM9 3.99536C7.89543 3.99536 7 4.89079 7 5.99536V25.9954C7 27.0999 7.89543 27.9954 9 27.9954H23C24.1046 27.9954 25 27.0999 25 25.9954V5.99536C25 4.89079 24.1046 3.99536 23 3.99536H21V6C21 7.10457 20.1046 8 19 8H13C11.8954 8 11 7.10457 11 6V3.99536H9ZM13 4V6H19V4H13Z" fill="black"/>
</svg>
