<svg xmlns="http://www.w3.org/2000/svg" width="32" height="32" fill="none" viewBox="0 0 32 32"><path fill="#000" fill-rule="evenodd" d="M9 1.9954c-2.2091 0-4 1.7908-4 4v20c0 2.2091 1.7909 4 4 4h14c2.2091 0 4-1.7909 4-4v-20c0-2.2092-1.7909-4-4-4zm-2 4c0-1.1046.8954-2 2-2h2V6c0 1.1046.8954 2 2 2h6c1.1046 0 2-.8954 2-2V3.9954h2c1.1046 0 2 .8954 2 2v20c0 1.1045-.8954 2-2 2H9c-1.1046 0-2-.8955-2-2zM13 6V4h6v2zm7.2071 9.7071c.3905-.3905.3905-1.0237 0-1.4142s-1.0237-.3905-1.4142 0L14.5 18.5858l-1.7929-1.7929c-.3905-.3905-1.0237-.3905-1.4142 0s-.3905 1.0237 0 1.4142l2.5 2.5c.3905.3905 1.0237.3905 1.4142 0z"/></svg>