<svg xmlns="http://www.w3.org/2000/svg" width="32" height="32" fill="none" viewBox="0 0 32 32"><path fill="#000" fill-rule="evenodd" d="M16 3c.5523 0 1 .4477 1 1v2.041c2.5624.2115 4.8965 1.228 6.7488 2.796l1.337-1.337-.2929-.2929c-.3905-.3905-.3905-1.0237 0-1.4142s1.0237-.3905 1.4142 0l1 1 1 1c.3905.3905.3905 1.0237 0 1.4142s-1.0237.3905-1.4142 0L26.5 8.9142l-1.3369 1.337C26.9328 12.3418 28 15.0463 28 18c0 6.6274-5.3726 12-12 12S4 24.6274 4 18C4 11.7093 8.8405 6.5492 15 6.041V4c0-.5523.4477-1 1-1M6 18c0-5.5228 4.4772-10 10-10s10 4.4772 10 10-4.4772 10-10 10S6 23.5228 6 18m15.2071-3.7929c.3905-.3905.3905-1.0237 0-1.4142s-1.0237-.3905-1.4142 0l-3.2749 3.2748A2 2 0 0 0 16 16c-1.1046 0-2 .8954-2 2s.8954 2 2 2 2-.8954 2-2c0-.1792-.0236-.3528-.0677-.518z"/></svg>