<svg width="32" height="32" viewBox="0 0 32 32" fill="none" xmlns="http://www.w3.org/2000/svg">
<path d="M21.2071 14.2071C21.5976 13.8166 21.5976 13.1834 21.2071 12.7929C20.8166 12.4024 20.1834 12.4024 19.7929 12.7929L16.518 16.0677C16.3528 16.0236 16.1792 16 16 16C14.8954 16 14 16.8954 14 18C14 19.1046 14.8954 20 16 20C17.1046 20 18 19.1046 18 18C18 17.8208 17.9764 17.6472 17.9323 17.482L21.2071 14.2071Z" fill="black"/>
<path fill-rule="evenodd" clip-rule="evenodd" d="M17 4C17 3.44772 16.5523 3 16 3C15.4477 3 15 3.44772 15 4V6.04107C8.84047 6.54922 4 11.7093 4 18C4 24.6274 9.37258 30 16 30C22.6274 30 28 24.6274 28 18C28 15.0463 26.9328 12.3418 25.1631 10.2512L26.5 8.91421L26.7929 9.20711C27.1834 9.59763 27.8166 9.59763 28.2071 9.20711C28.5976 8.81658 28.5976 8.18342 28.2071 7.79289L27.2071 6.79289L26.2071 5.79289C25.8166 5.40237 25.1834 5.40237 24.7929 5.79289C24.4024 6.18342 24.4024 6.81658 24.7929 7.20711L25.0858 7.5L23.7488 8.83695C21.8965 7.26893 19.5624 6.25247 17 6.04107V4ZM16 8C10.4772 8 6 12.4772 6 18C6 23.5228 10.4772 28 16 28C21.5228 28 26 23.5228 26 18C26 12.4772 21.5228 8 16 8Z" fill="black"/>
</svg>
