<svg xmlns="http://www.w3.org/2000/svg" width="32" height="32" fill="none" viewBox="0 0 32 32"><path fill="#000" fill-rule="evenodd" d="M7.4557 2.5617C8.402 2.1985 9.429 2 10.5 2c4.6944 0 8.5 3.8056 8.5 8.5 0 .6598-.0752 1.302-.2174 1.9186l9.8344 9.8344c1.7574 1.7574 1.7574 4.6066 0 6.364s-4.6066 1.7574-6.3639 0l-9.8345-9.8344A8.53 8.53 0 0 1 10.5 19C5.8056 19 2 15.1944 2 10.5c0-1.071.1985-2.0978.5617-3.0443a1 1 0 0 1 1.6407-.3489l4.1592 4.1592c.3906.3906 1.0237.3906 1.4143 0l1.4901-1.49c.3905-.3906.3905-1.0238 0-1.4143L7.1068 4.2024a1 1 0 0 1 .3489-1.6407m2.3172 1.4784 2.9073 2.9074c1.1716 1.1716 1.1716 3.0711 0 4.2426l-1.4901 1.4902c-1.1716 1.1715-3.071 1.1715-4.2427-.0001L4.0401 9.7729A6.6 6.6 0 0 0 4 10.5c0 3.5899 2.9101 6.5 6.5 6.5s6.5-2.9101 6.5-6.5C17 6.9102 14.0899 4 10.5 4a6.6 6.6 0 0 0-.7271.0401m4.7052 13.9735a8.54 8.54 0 0 0 3.5355-3.5356l9.1892 9.1893c.9763.9763.9763 2.5592 0 3.5355s-2.5592.9763-3.5355 0zm3.8148 1.6935 5 5c.3905.3905 1.0237.3905 1.4142 0s.3905-1.0237 0-1.4142l-5-5c-.3905-.3905-1.0237-.3905-1.4142 0s-.3905 1.0237 0 1.4142"/></svg>