<svg xmlns="http://www.w3.org/2000/svg" width="32" height="32" fill="none" viewBox="0 0 32 32"><path fill="#000" fill-rule="evenodd" d="M5.2246 10.7137C5.717 9.8721 6.9649 8.464 8.836 7.2709c1.8543-1.1823 4.2603-2.1147 7.0589-2.1026 3.0585.0133 5.3144.7486 7.0269 1.7886 1.7197 1.0443 2.9448 2.4286 3.8899 3.815.311.4563.9331.5741 1.3895.263.4563-.311.5741-.9331.263-1.3895-1.0487-1.5386-2.4665-3.1605-4.5043-4.398-2.0452-1.242-4.6617-2.0643-8.0563-2.079-3.2584-.0142-6.0354 1.0724-8.1429 2.4161-2.0905 1.333-3.5831 2.9582-4.2624 4.1191-.279.4767-.1186 1.0892.358 1.3681.4767.279 1.0893.1187 1.3682-.358m16.6427-.1465c-1.6379-1.3818-4.056-2.2963-7.6985-1.6797-3.7647.6373-5.8377 2.905-6.83 5.4955-1.0156 2.6516-.8759 5.6008-.1867 7.3866.1989.5152-.0576 1.0941-.5728 1.293s-1.0942-.0577-1.293-.5729c-.8734-2.2631-1.0018-5.7239.1849-8.8221 1.21-3.1593 3.8097-5.9812 8.3638-6.752 4.1764-.707 7.1999.3327 9.3219 2.123 2.0819 1.7563 3.1995 4.152 3.7759 6.0248.4241 1.3779.5106 3.0297.0049 4.4236-.2571.7087-.6768 1.3735-1.3062 1.8789-.6351.5099-1.4323.8156-2.3691.8788-.8578.0578-1.9236-.127-2.8555-.738-.9624-.6311-1.7187-1.6777-1.9573-3.1993-.2497-1.5918-.8798-2.2155-1.4005-2.4875-.5813-.3036-1.2656-.2944-1.7705-.2033-.3751.0677-1.3137.5593-1.7495 1.6844-.4136 1.0676-.4529 2.9411 1.4116 5.8986 1.8343 2.9095 5.0738 3.5489 7.0105 3.6331.5518.024.9796.4907.9556 1.0425s-.4907.9796-1.0425.9556c-2.1473-.0934-6.2471-.8078-8.6155-4.5646-2.0661-3.2774-2.3054-5.8271-1.5847-7.6876.6983-1.8029 2.2281-2.7441 3.2593-2.9302.7182-.1296 1.9143-.1954 3.0517.3988 1.1978.6257 2.1244 1.8723 2.4503 3.9504.1531.9758.5984 1.522 1.0782 1.8366.5104.3347 1.1276.4485 1.6243.415.5678-.0383.965-.2128 1.2515-.4429.2923-.2346.5215-.5696.6782-1.0013.3217-.8868.2945-2.0784-.0363-3.1533-.5154-1.6748-1.476-3.6688-3.154-5.0845m-7.2759 1.7496c-2.046.4743-4.0024 2.0057-4.5653 5.3076-.3108 1.8231.1203 3.7796.835 5.4354.3542.8206.7677 1.5429 1.167 2.1089.4112.5831.7665.9424.9839 1.0943.4527.3164.5633.9398.2469 1.3925s-.9398.5633-1.3925.2469c-.4908-.343-1.0031-.9152-1.4726-1.5809-.4815-.6826-.962-1.5261-1.369-2.4691-.8076-1.8714-1.3677-4.2331-.9703-6.5641.7015-4.1149 3.2724-6.2678 6.0852-6.9198 2.7023-.6264 5.6929.131 7.2813 1.8574 1.4569 1.5834 2.1495 3.1832 2.4938 5.4017.0847.5458-.2891 1.0568-.8349 1.1415s-1.0568-.2891-1.1415-.8348c-.2931-1.889-.84-3.1052-1.9892-4.3542-1.0017-1.0888-3.2014-1.7631-5.3578-1.2633m1.2932 5.0279c.5519-.0201 1.0157.411 1.0358.9629.0342.9393.4048 2.2764 1.2672 3.3589.8327 1.0451 2.1439 1.8846 4.1877 1.8902.5522.0015.9987.4505.9972 1.0028s-.4504.9987-1.0027.9972c-2.6816-.0073-4.5551-1.1487-5.7464-2.6439-1.1615-1.4579-1.6539-3.2207-1.7017-4.5324-.0201-.5519.411-1.0156.9629-1.0357"/></svg>