<svg xmlns="http://www.w3.org/2000/svg" width="32" height="32" fill="none" viewBox="0 0 32 32"><path fill="#000" fill-rule="evenodd" d="M15.5528 4.1056a1 1 0 0 1 .8944 0l12.981 6.4905a1 1 0 0 1 .1867.1153A.998.998 0 0 1 30 11.5V18c0 .5523-.4477 1-1 1s-1-.4477-1-1v-4.882l-3 1.5V23a1 1 0 0 1-.5528.8944l-8 4a1 1 0 0 1-.8944 0l-8-4A1 1 0 0 1 7 23v-8.382l-4.4472-2.2236a1 1 0 0 1 0-1.7888zm.8944 14.7888L23 15.618v6.764l-7 3.5-7-3.5v-6.764l6.5528 3.2764a1 1 0 0 0 .8944 0M5.2361 11.5 16 16.882 26.7639 11.5 16 6.118z"/></svg>