<svg xmlns="http://www.w3.org/2000/svg" width="32" height="32" fill="none" viewBox="0 0 32 32"><path fill="#000" fill-rule="evenodd" d="M3.0444 14.9178c-.0454.5504.364 1.0334.9144 1.0788s1.0334-.364 1.0789-.9144C5.5034 9.437 10.234 5 16 5c4.2732 0 7.9794 2.437 9.8008 6H22c-.5523 0-1 .4477-1 1s.4477 1 1 1h6c.5523 0 1-.4477 1-1V6c0-.5523-.4477-1-1-1s-1 .4477-1 1v3.0691C24.6981 5.4233 20.6329 3 16 3 9.1846 3 3.595 8.244 3.0444 14.9178M4 26.6829c.5523 0 1-.4478 1-1v-2.7521C7.302 26.577 11.3672 29 16 29c6.4425 0 11.7887-4.6854 12.8203-10.8345q.0898-.5349.1353-1.0833c.0454-.5504-.364-1.0334-.9144-1.0788s-1.0334.364-1.0788.9144a11 11 0 0 1-.1145.9167C25.9752 23.0363 21.4495 27 16 27c-4.2734 0-7.9796-2.4374-9.8008-6h3.4894c.5523 0 1-.4477 1-1s-.4477-1-1-1H4.7063a1 1 0 0 0-.0469 0H4c-.5523 0-1 .4477-1 1v5.6829c0 .5522.4477 1 1 1"/></svg>