<svg xmlns="http://www.w3.org/2000/svg" width="32" height="32" fill="none" viewBox="0 0 32 32"><path fill="#000" fill-rule="evenodd" d="M15.0649 2.24a2 2 0 0 1 1.8702 0l9.5324 5.042A1 1 0 0 1 27 8.1658v5.8204c0 1.9905-.1154 4.1295-.8521 6.149-1.4669 4.0219-3.9177 6.4802-6.0129 7.9295-1.0446.7227-1.9997 1.1941-2.7001 1.4866a11.2 11.2 0 0 1-.8434.3152 7 7 0 0 1-.2719.0829l-.0419.0115-.0217.0057-.0074.0019-.0028.0007-.0012.0003S16.2436 29.9699 16 29c-.2153.9765-.2164.9763-.2164.9763l-.0012-.0003-.0029-.0006-.0077-.0018-.0223-.0052a4 4 0 0 1-.0721-.0179 7 7 0 0 1-.2475-.069 10.6 10.6 0 0 1-.8557-.2975c-.71-.2793-1.677-.7362-2.7329-1.4533-2.12-1.4397-4.5839-3.9204-6.0368-8.0684C5.1115 18.0839 5 16.0009 5 14.0556V8.1659a1 1 0 0 1 .5324-.884zM16 29l.2436.9699a1 1 0 0 1-.4589.0066zm-.0139-1.0396a9.3 9.3 0 0 0 .678-.2545c.5937-.248 1.4217-.6554 2.3331-1.2859 1.817-1.2569 3.9705-3.4023 5.2718-6.97.6111-1.6753.731-3.5213.731-5.4637v-5.218L16 4.008 7 8.7682v5.2874c0 1.8958.1153 3.6987.692 5.3455 1.291 3.6857 3.453 5.8391 5.2729 7.0751.9141.6208 1.7455 1.0122 2.3415 1.2467a8.7 8.7 0 0 0 .6797.2375m-.6932-6.2533-3-3c-.3905-.3905-.3905-1.0237 0-1.4142s1.0237-.3905 1.4142 0L15 18.5858V11c0-.5523.4477-1 1-1s1 .4477 1 1v7.5858l1.2929-1.2929c.3905-.3905 1.0237-.3905 1.4142 0s.3905 1.0237 0 1.4142l-3 3c-.3905.3905-1.0237.3905-1.4142 0"/></svg>