<svg width="32" height="32" viewBox="0 0 32 32" fill="none" xmlns="http://www.w3.org/2000/svg">
<path d="M17 7.41421V21C17 21.5523 16.5523 22 16 22C15.4477 22 15 21.5523 15 21V7.41421L10.7071 11.7071C10.3166 12.0976 9.68342 12.0976 9.29289 11.7071C8.90237 11.3166 8.90237 10.6834 9.29289 10.2929L15.2929 4.29289C15.6834 3.90237 16.3166 3.90237 16.7071 4.29289L22.7071 10.2929C23.0976 10.6834 23.0976 11.3166 22.7071 11.7071C22.3166 12.0976 21.6834 12.0976 21.2929 11.7071L17 7.41421Z" fill="black"/>
<path d="M6 21C6 20.4477 5.55228 20 5 20C4.44772 20 4 20.4477 4 21V24C4 26.2091 5.79086 28 8 28H24C26.2091 28 28 26.2091 28 24V21C28 20.4477 27.5523 20 27 20C26.4477 20 26 20.4477 26 21V24C26 25.1046 25.1046 26 24 26H8C6.89543 26 6 25.1046 6 24V21Z" fill="black"/>
</svg>
