<svg xmlns="http://www.w3.org/2000/svg" width="32" height="32" fill="none" viewBox="0 0 32 32"><path fill="#000" fill-rule="evenodd" d="M9.9864 13.1644C10.4225 10.5477 12.5827 8 16 8s5.5775 2.5477 6.0136 5.1644A1 1 0 0 0 23 14c2.7614 0 5 2.2386 5 5s-2.2386 5-5 5h-4v2h4c3.866 0 7-3.134 7-7 0-3.5907-2.7036-6.55-6.1862-6.9532C22.9704 8.9363 20.2264 6 16 6s-6.9703 2.9363-7.8138 6.0468C4.7036 12.45 2 15.4093 2 19c0 3.866 3.134 7 7 7h4v-2H9c-2.7614 0-5-2.2386-5-5s2.2386-5 5-5a1 1 0 0 0 .9864-.8356m6.7207 3.1285 3 3c.3905.3905.3905 1.0237 0 1.4142s-1.0237.3905-1.4142 0L17 19.4142V28c0 .5523-.4477 1-1 1s-1-.4477-1-1v-8.5858l-1.2929 1.2929c-.3905.3905-1.0237.3905-1.4142 0s-.3905-1.0237 0-1.4142l3-3c.3905-.3905 1.0237-.3905 1.4142 0"/></svg>