<svg width="32" height="32" viewBox="0 0 32 32" fill="none" xmlns="http://www.w3.org/2000/svg">
<path fill-rule="evenodd" clip-rule="evenodd" d="M16 4C13.2386 4 11 6.23858 11 9C11 11.7614 13.2386 14 16 14C18.7614 14 21 11.7614 21 9C21 6.23858 18.7614 4 16 4ZM13 9C13 7.34315 14.3431 6 16 6C17.6569 6 19 7.34315 19 9C19 10.6569 17.6569 12 16 12C14.3431 12 13 10.6569 13 9Z" fill="black"/>
<path fill-rule="evenodd" clip-rule="evenodd" d="M12 16C8.68629 16 6 18.6863 6 22V24C6 26.2091 7.79086 28 10 28H22C24.2091 28 26 26.2091 26 24V22C26 18.6863 23.3137 16 20 16H12ZM8 22C8 19.7909 9.79086 18 12 18H20C22.2091 18 24 19.7909 24 22V24C24 25.1046 23.1046 26 22 26H10C8.89543 26 8 25.1046 8 24V22Z" fill="black"/>
</svg>
