<svg xmlns="http://www.w3.org/2000/svg" width="32" height="32" fill="none" viewBox="0 0 32 32"><path fill="#000" fill-rule="evenodd" d="M6 7c-1.1046 0-2 .8954-2 2v11.1707A3 3 0 0 0 3 20c-.3506 0-.6872.0602-1 .1707V9c0-2.2091 1.7909-4 4-4h14c2.2091 0 4 1.7909 4 4v1.882l3.1056-1.5528C28.4354 8.6643 30 9.6313 30 11.1181v7.7639c0 1.4868-1.5646 2.4537-2.8944 1.7888L24 19.1181V21c0 2.2091-1.7909 4-4 4h-2v-2h2c1.1046 0 2-.8954 2-2V9c0-1.1046-.8954-2-2-2zm18 9.882v-3.7639l4-2v7.7639zM7 19c.5523 0 1 .4477 1 1v8c0 .5523-.4477 1-1 1s-1-.4477-1-1v-8c0-.5523.4477-1 1-1m5 2c0-.5523-.4477-1-1-1s-1 .4477-1 1v6c0 .5523.4477 1 1 1s1-.4477 1-1zm-9 1c.5523 0 1 .4477 1 1v2c0 .5523-.4477 1-1 1s-1-.4477-1-1v-2c0-.5523.4477-1 1-1m13 1c0-.5523-.4477-1-1-1s-1 .4477-1 1v2c0 .5523.4477 1 1 1s1-.4477 1-1z"/></svg>