<svg xmlns="http://www.w3.org/2000/svg" width="32" height="32" fill="none" viewBox="0 0 32 32"><path fill="#000" fill-rule="evenodd" d="M16 5c-3.4173 0-5.5775 2.5477-6.0136 5.1644A1 1 0 0 1 9 11c-2.7614 0-5 2.2386-5 5 0 2.419 1.7178 4.4367 4 4.9v2.0291C4.6077 22.4439 2 19.5265 2 16c0-3.5907 2.7036-6.55 6.1862-6.9532C9.0297 5.9363 11.7736 3 16 3s6.9704 2.9363 7.8138 6.0468C27.2964 9.45 30 12.4093 30 16c0 3.5265-2.6077 6.4439-6 6.9291V20.9c2.2822-.4633 4-2.481 4-4.9 0-2.7614-2.2386-5-5-5a1 1 0 0 1-.9864-.8356C21.5775 7.5477 19.4173 5 16 5m-6 9c0-1.1046.8954-2 2-2h8c1.1046 0 2 .8954 2 2v13c0 1.1046-.8954 2-2 2h-8c-1.1046 0-2-.8954-2-2zm2 0v13h8V14zm2 2c-.5523 0-1 .4477-1 1s.4477 1 1 1h4c.5523 0 1-.4477 1-1s-.4477-1-1-1zm2 8c.5523 0 1-.4477 1-1s-.4477-1-1-1-1 .4477-1 1 .4477 1 1 1"/></svg>