<svg xmlns="http://www.w3.org/2000/svg" width="32" height="32" fill="none" viewBox="0 0 32 32"><path fill="#000" fill-rule="evenodd" d="M24.3598 6.7683c-4.8426-4.0356-11.8769-4.0356-16.7196 0-.4243.3535-1.0548.2962-1.4084-.128-.3536-.4244-.2962-1.055.128-1.4085 5.5844-4.6536 13.696-4.6536 19.2804 0 .4243.3536.4816.9841.128 1.4084s-.9841.4816-1.4084.128m-3 3.9999c-3.1048-2.5873-7.6148-2.5873-10.7196 0-.4243.3536-1.0548.2963-1.4084-.128s-.2962-1.0548.128-1.4084c3.8466-3.2054 9.4339-3.2054 13.2804 0 .4243.3536.4816.9841.128 1.4084s-.9841.4816-1.4084.128M11 17c0-2.7614 2.2386-5 5-5s5 2.2386 5 5v1h1c1.6569 0 3 1.3432 3 3v6c0 1.6569-1.3431 3-3 3H10c-1.6568 0-3-1.3431-3-3v-6c0-1.6568 1.3432-3 3-3h1zm8 0v1h-6v-1c0-1.6568 1.3432-3 3-3s3 1.3432 3 3m3 3c.5523 0 1 .4477 1 1v6c0 .5523-.4477 1-1 1H10c-.5523 0-1-.4477-1-1v-6c0-.5523.4477-1 1-1zm-4.3 4c0 .8285-.6715 1.5-1.5 1.5s-1.5-.6715-1.5-1.5.6716-1.5 1.5-1.5 1.5.6716 1.5 1.5"/></svg>