<svg xmlns="http://www.w3.org/2000/svg" width="32" height="32" fill="none" viewBox="0 0 32 32"><path fill="#000" fill-rule="evenodd" d="M16 3C9.9249 3 5 7.9249 5 14c0 2.8363 1.0735 5.4219 2.8363 7.3727L5.684 24.1709C4.1663 26.1437 5.5726 29 8.0617 29h15.8766c2.489 0 3.8954-2.8563 2.3778-4.8291l-2.1524-2.7982C25.9265 19.4219 27 16.8363 27 14c0-6.0751-4.9249-11-11-11M7 14c0-4.9706 4.0294-9 9-9s9 4.0294 9 9-4.0294 9-9 9-9-4.0294-9-9m4 0c0-2.7614 2.2386-5 5-5s5 2.2386 5 5-2.2386 5-5 5-5-2.2386-5-5m5-3c-1.6569 0-3 1.3431-3 3s1.3431 3 3 3 3-1.3431 3-3-1.3431-3-3-3M7.2691 25.3903l2.0432-2.6561C11.1655 24.1554 13.484 25 16 25s4.8345-.8446 6.6878-2.2658l2.0431 2.6561c.5059.6576.037 1.6097-.7926 1.6097H8.0617c-.8296 0-1.2985-.9521-.7926-1.6097"/></svg>