<svg xmlns="http://www.w3.org/2000/svg" width="32" height="32" fill="none" viewBox="0 0 32 32"><path fill="#000" fill-rule="evenodd" d="M11.0002 7c0 1.1256.3719 2.1643.9996 3H9.6944c-1.4665 0-2.718 1.0602-2.9591 2.5068l-2.3334 14C4.0971 28.3354 5.5073 30 7.3611 30h17.2782c1.8538 0 3.2639-1.6646 2.9591-3.4932l-2.3333-14C25.024 11.0602 23.7724 10 22.3059 10h-2.3054a4.978 4.978 0 0 0 .9997-3c0-2.7614-2.2386-5-5-5s-5 2.2386-5 5m5-3c-1.6569 0-3 1.3431-3 3 0 1.3062.8348 2.4175 2 2.8293V8c0-.5523.4477-1 1-1s1 .4477 1 1v1.8293c1.1652-.4118 2-1.523 2-2.8293 0-1.6569-1.3432-3-3-3m-6.3058 8a1 1 0 0 0-.9864.8356l-2.3333 14C6.2731 27.4451 6.7432 28 7.3611 28h17.2782c.6179 0 1.0879-.5549.9863-1.1644l-2.3333-14A1 1 0 0 0 22.3059 12z"/></svg>