<svg xmlns="http://www.w3.org/2000/svg" width="32" height="32" fill="none" viewBox="0 0 32 32"><path fill="#000" fill-rule="evenodd" d="M19 7c0-1.1046.8954-2 2-2s2 .8954 2 2v.257a2.257 2.257 0 0 1-1.005 1.8778l-.6926.4617A2.925 2.925 0 0 0 20 12.0302V13c0 .5523.4477 1 1 1s1-.4477 1-1v-.9698a.925.925 0 0 1 .4118-.7696l.6926-.4617A4.257 4.257 0 0 0 25 7.2569V7c0-2.2091-1.7909-4-4-4s-4 1.7909-4 4c0 .5523.4477 1 1 1s1-.4477 1-1m-8.677 1H6c-.5523 0-1 .4477-1 1 0 7.8041 4.4698 14.5642 10.989 17.8599q.0625.037.1285.0643C18.7936 28.253 21.8095 29 25 29h1c.5523 0 1-.4477 1-1v-3.7362a2 2 0 0 0-1.4738-1.9295l-4.2032-1.1464a2 2 0 0 0-1.9405.5153l-3.067 3.067c-2.6586-1.4672-4.9065-3.5871-6.5278-6.1437l3.4531-3.4531a2 2 0 0 0 .4428-2.157l-1.5037-3.7592A2 2 0 0 0 10.323 8m-1.5457 8.8085C7.7749 14.7298 7.1603 12.429 7.0273 10h3.2957l1.5036 3.7592zM22 16c0 .5523-.4477 1-1 1s-1-.4477-1-1 .4477-1 1-1 1 .4477 1 1m-3.7695 9.6837C20.3203 26.5325 22.6055 27 25 27v-2.7362l-4.2032-1.1463z"/></svg>